<?xml version="1.0" encoding="UTF-8" standalone="no"?>
<!DOCTYPE svg PUBLIC "-//W3C//DTD SVG 1.1//EN"
 "http://www.w3.org/Graphics/SVG/1.1/DTD/svg11.dtd">
<!-- Generated by graphviz version 9.0.0 (20230911.1827)
 -->
<!-- Title: request_of_phase_process_class Pages: 1 -->
<svg width="282pt" height="434pt"
 viewBox="0.00 0.00 282.25 434.25" xmlns="http://www.w3.org/2000/svg" xmlns:xlink="http://www.w3.org/1999/xlink">

<svg id="main" version="1.1" xmlns="http://www.w3.org/2000/svg" xmlns:xlink="http://www.w3.org/1999/xlink" xml:space="preserve" onload="init(evt)">
<style type="text/css"><![CDATA[
.node, .edge {opacity: 0.7;}
.node.selected, .edge.selected {opacity: 1;}
.edge:hover path { stroke: red; }
.edge:hover polygon { stroke: red; fill: red; }
]]></style>
<script type="application/ecmascript" xlink:href="svg.min.js"/>
<svg id="graph" class="graph">
<g id="graph0" class="graph" transform="scale(1 1) rotate(0) translate(4 430.25)">
<title>request_of_phase_process_class</title>
<!-- Node1 -->
<g id="Node000001" class="node">
<title>Node1</title>
<g id="a_Node000001"><a xlink:title=" ">
<polygon fill="#999999" stroke="#666666" points="133,-227.88 0,-227.88 0,-197.38 133,-197.38 133,-227.88"/>
<text text-anchor="start" x="8" y="-214.38" font-family="Helvetica,sans-Serif" font-size="10.00">request_of_phase_process</text>
<text text-anchor="middle" x="66.5" y="-203.12" font-family="Helvetica,sans-Serif" font-size="10.00">_class</text>
</a>
</g>
</g>
<!-- Node2 -->
<g id="Node000002" class="node">
<title>Node2</title>
<g id="a_Node000002"><a xlink:href="classdaBalloon2D__c.html" target="_top" xlink:title="???">
<polygon fill="white" stroke="#666666" points="262.25,-426.25 181,-426.25 181,-407 262.25,-407 262.25,-426.25"/>
<text text-anchor="middle" x="221.62" y="-412.75" font-family="Helvetica,sans-Serif" font-size="10.00">daBalloon2D_c</text>
</a>
</g>
</g>
<!-- Node1&#45;&gt;Node2 -->
<g id="edge1_Node000001_Node000002" class="edge">
<title>Node1&#45;&gt;Node2</title>
<g id="a_edge1_Node000001_Node000002"><a xlink:title=" ">
<path fill="none" stroke="#63b8ff" d="M75.14,-239.09C88.02,-279.17 117.8,-355.21 169,-398.62 172.69,-401.76 176.96,-404.35 181.43,-406.51"/>
<polygon fill="#63b8ff" stroke="#63b8ff" points="78.56,-238.3 72.26,-229.78 71.87,-240.37 78.56,-238.3"/>
</a>
</g>
</g>
<!-- Node3 -->
<g id="Node000003" class="node">
<title>Node3</title>
<g id="a_Node000003"><a xlink:href="classdaMirror__c.html" target="_top" xlink:title="Mirror.">
<polygon fill="white" stroke="#666666" points="252.5,-389.25 190.75,-389.25 190.75,-370 252.5,-370 252.5,-389.25"/>
<text text-anchor="middle" x="221.62" y="-375.75" font-family="Helvetica,sans-Serif" font-size="10.00">daMirror_c</text>
</a>
</g>
</g>
<!-- Node1&#45;&gt;Node3 -->
<g id="edge2_Node000001_Node000003" class="edge">
<title>Node1&#45;&gt;Node3</title>
<g id="a_edge2_Node000001_Node000003"><a xlink:title=" ">
<path fill="none" stroke="#63b8ff" d="M78.69,-238.32C94.32,-271.37 125.71,-328.43 169,-361.62 175.25,-366.42 182.88,-370 190.33,-372.64"/>
<polygon fill="#63b8ff" stroke="#63b8ff" points="81.98,-237.11 74.63,-229.48 75.62,-240.03 81.98,-237.11"/>
</a>
</g>
</g>
<!-- Node4 -->
<g id="Node000004" class="node">
<title>Node4</title>
<g id="a_Node000004"><a xlink:href="classdaObjChandelier__c.html" target="_top" xlink:title="Hyrule Castle Chandelier.">
<polygon fill="white" stroke="#666666" points="270.5,-352.25 172.75,-352.25 172.75,-333 270.5,-333 270.5,-352.25"/>
<text text-anchor="middle" x="221.62" y="-338.75" font-family="Helvetica,sans-Serif" font-size="10.00">daObjChandelier_c</text>
</a>
</g>
</g>
<!-- Node1&#45;&gt;Node4 -->
<g id="edge3_Node000001_Node000004" class="edge">
<title>Node1&#45;&gt;Node4</title>
<g id="a_edge3_Node000001_Node000004"><a xlink:title=" ">
<path fill="none" stroke="#63b8ff" d="M84.32,-237.55C102.5,-262.75 133.66,-301.21 169,-324.62 173.67,-327.72 178.93,-330.34 184.26,-332.55"/>
<polygon fill="#63b8ff" stroke="#63b8ff" points="87.28,-235.68 78.66,-229.52 81.56,-239.71 87.28,-235.68"/>
</a>
</g>
</g>
<!-- Node5 -->
<g id="Node000005" class="node">
<title>Node5</title>
<g id="a_Node000005"><a xlink:href="classdaObjHBombkoya__c.html" target="_top" xlink:title="Destructable Bomb House.">
<polygon fill="white" stroke="#666666" points="274.25,-315.25 169,-315.25 169,-296 274.25,-296 274.25,-315.25"/>
<text text-anchor="middle" x="221.62" y="-301.75" font-family="Helvetica,sans-Serif" font-size="10.00">daObjHBombkoya_c</text>
</a>
</g>
</g>
<!-- Node1&#45;&gt;Node5 -->
<g id="edge4_Node000001_Node000005" class="edge">
<title>Node1&#45;&gt;Node5</title>
<g id="a_edge4_Node000001_Node000005"><a xlink:title=" ">
<path fill="none" stroke="#63b8ff" d="M93.77,-235.5C113.44,-251.74 141.57,-273.14 169,-287.62 174.62,-290.6 180.84,-293.24 186.95,-295.54"/>
<polygon fill="#63b8ff" stroke="#63b8ff" points="96.16,-232.94 86.25,-229.19 91.66,-238.3 96.16,-232.94"/>
</a>
</g>
</g>
<!-- Node6 -->
<g id="Node000006" class="node">
<title>Node6</title>
<g id="a_Node000006"><a xlink:href="classdaObjKJgjs__c.html" target="_top" xlink:title="???">
<polygon fill="white" stroke="#666666" points="260,-278.25 183.25,-278.25 183.25,-259 260,-259 260,-278.25"/>
<text text-anchor="middle" x="221.62" y="-264.75" font-family="Helvetica,sans-Serif" font-size="10.00">daObjKJgjs_c</text>
</a>
</g>
</g>
<!-- Node1&#45;&gt;Node6 -->
<g id="edge5_Node000001_Node000006" class="edge">
<title>Node1&#45;&gt;Node6</title>
<g id="a_edge5_Node000001_Node000006"><a xlink:title=" ">
<path fill="none" stroke="#63b8ff" d="M119.57,-232.38C135.42,-238.32 152.9,-244.8 169,-250.62 176.23,-253.24 184.05,-256 191.37,-258.55"/>
<polygon fill="#63b8ff" stroke="#63b8ff" points="120.91,-229.14 110.32,-228.9 118.45,-235.7 120.91,-229.14"/>
</a>
</g>
</g>
<!-- Node7 -->
<g id="Node000007" class="node">
<title>Node7</title>
<g id="a_Node000007"><a xlink:href="classdaObjProp__c.html" target="_top" xlink:title="City in the Sky Propeller?">
<polygon fill="white" stroke="#666666" points="257.75,-241.25 185.5,-241.25 185.5,-222 257.75,-222 257.75,-241.25"/>
<text text-anchor="middle" x="221.62" y="-227.75" font-family="Helvetica,sans-Serif" font-size="10.00">daObjProp_c</text>
</a>
</g>
</g>
<!-- Node1&#45;&gt;Node7 -->
<g id="edge6_Node000001_Node000007" class="edge">
<title>Node1&#45;&gt;Node7</title>
<g id="a_edge6_Node000001_Node000007"><a xlink:title=" ">
<path fill="none" stroke="#63b8ff" d="M144.68,-222.2C158.88,-223.96 173.04,-225.72 185.23,-227.23"/>
<polygon fill="#63b8ff" stroke="#63b8ff" points="145.18,-218.74 134.83,-220.98 144.32,-225.68 145.18,-218.74"/>
</a>
</g>
</g>
<!-- Node8 -->
<g id="Node000008" class="node">
<title>Node8</title>
<g id="a_Node000008"><a xlink:href="classdaObjRCircle__c.html" target="_top" xlink:title="River Circle.">
<polygon fill="white" stroke="#666666" points="263.38,-204.25 179.88,-204.25 179.88,-185 263.38,-185 263.38,-204.25"/>
<text text-anchor="middle" x="221.62" y="-190.75" font-family="Helvetica,sans-Serif" font-size="10.00">daObjRCircle_c</text>
</a>
</g>
</g>
<!-- Node1&#45;&gt;Node8 -->
<g id="edge7_Node000001_Node000008" class="edge">
<title>Node1&#45;&gt;Node8</title>
<g id="a_edge7_Node000001_Node000008"><a xlink:title=" ">
<path fill="none" stroke="#63b8ff" d="M144.45,-203.58C156.6,-202.15 168.73,-200.73 179.63,-199.44"/>
<polygon fill="#63b8ff" stroke="#63b8ff" points="144.35,-200.07 134.83,-204.71 145.17,-207.02 144.35,-200.07"/>
</a>
</g>
</g>
<!-- Node9 -->
<g id="Node000009" class="node">
<title>Node9</title>
<g id="a_Node000009"><a xlink:href="classdaObjSnowSoup__c.html" target="_top" xlink:title="Snowpeak Ruins Soup Pot?">
<polygon fill="white" stroke="#666666" points="271.25,-167.25 172,-167.25 172,-148 271.25,-148 271.25,-167.25"/>
<text text-anchor="middle" x="221.62" y="-153.75" font-family="Helvetica,sans-Serif" font-size="10.00">daObjSnowSoup_c</text>
</a>
</g>
</g>
<!-- Node1&#45;&gt;Node9 -->
<g id="edge8_Node000001_Node000009" class="edge">
<title>Node1&#45;&gt;Node9</title>
<g id="a_edge8_Node000001_Node000009"><a xlink:title=" ">
<path fill="none" stroke="#63b8ff" d="M120.46,-193.16C136.07,-187.46 153.21,-181.26 169,-175.62 176.24,-173.04 184.07,-170.29 191.39,-167.74"/>
<polygon fill="#63b8ff" stroke="#63b8ff" points="119.54,-189.77 111.34,-196.49 121.94,-196.35 119.54,-189.77"/>
</a>
</g>
</g>
<!-- Node10 -->
<g id="Node000010" class="node">
<title>Node10</title>
<g id="a_Node000010"><a xlink:href="classdaObjToaruMaki__c.html" target="_top" xlink:title="Ordon Bundle.">
<polygon fill="white" stroke="#666666" points="270.5,-130.25 172.75,-130.25 172.75,-111 270.5,-111 270.5,-130.25"/>
<text text-anchor="middle" x="221.62" y="-116.75" font-family="Helvetica,sans-Serif" font-size="10.00">daObjToaruMaki_c</text>
</a>
</g>
</g>
<!-- Node1&#45;&gt;Node10 -->
<g id="edge9_Node000001_Node000010" class="edge">
<title>Node1&#45;&gt;Node10</title>
<g id="a_edge9_Node000001_Node000010"><a xlink:title=" ">
<path fill="none" stroke="#63b8ff" d="M94.18,-189.79C113.85,-173.81 141.82,-152.87 169,-138.62 174.63,-135.67 180.85,-133.03 186.97,-130.74"/>
<polygon fill="#63b8ff" stroke="#63b8ff" points="92.14,-186.93 86.66,-195.99 96.6,-192.33 92.14,-186.93"/>
</a>
</g>
</g>
<!-- Node11 -->
<g id="Node000011" class="node">
<title>Node11</title>
<g id="a_Node000011"><a xlink:href="classdaObjYIblltray__c.html" target="_top" xlink:title="Snowpeak Ruins Cannonball Transporter.">
<polygon fill="white" stroke="#666666" points="265.25,-93.25 178,-93.25 178,-74 265.25,-74 265.25,-93.25"/>
<text text-anchor="middle" x="221.62" y="-79.75" font-family="Helvetica,sans-Serif" font-size="10.00">daObjYIblltray_c</text>
</a>
</g>
</g>
<!-- Node1&#45;&gt;Node11 -->
<g id="edge10_Node000001_Node000011" class="edge">
<title>Node1&#45;&gt;Node11</title>
<g id="a_edge10_Node000001_Node000011"><a xlink:title=" ">
<path fill="none" stroke="#63b8ff" d="M84.37,-187.93C102.59,-162.96 133.78,-124.84 169,-101.62 173.68,-98.54 178.94,-95.93 184.27,-93.72"/>
<polygon fill="#63b8ff" stroke="#63b8ff" points="81.66,-185.7 78.7,-195.88 87.36,-189.77 81.66,-185.7"/>
</a>
</g>
</g>
<!-- Node12 -->
<g id="Node000012" class="node">
<title>Node12</title>
<g id="a_Node000012"><a xlink:href="structdaTagCsw__c.html" target="_top" xlink:title=" ">
<polygon fill="white" stroke="#666666" points="258.12,-56.25 185.12,-56.25 185.12,-37 258.12,-37 258.12,-56.25"/>
<text text-anchor="middle" x="221.62" y="-42.75" font-family="Helvetica,sans-Serif" font-size="10.00">daTagCsw_c</text>
</a>
</g>
</g>
<!-- Node1&#45;&gt;Node12 -->
<g id="edge11_Node000001_Node000012" class="edge">
<title>Node1&#45;&gt;Node12</title>
<g id="a_edge11_Node000001_Node000012"><a xlink:title=" ">
<path fill="none" stroke="#63b8ff" d="M78.73,-187.1C94.41,-154.28 125.85,-97.6 169,-64.62 173.68,-61.05 179.11,-58.15 184.67,-55.81"/>
<polygon fill="#63b8ff" stroke="#63b8ff" points="75.7,-185.33 74.66,-195.87 82.05,-188.27 75.7,-185.33"/>
</a>
</g>
</g>
<!-- Node13 -->
<g id="Node000013" class="node">
<title>Node13</title>
<g id="a_Node000013"><a xlink:href="classdaWindStone__c.html" target="_top" xlink:title="Howling Stone (Hole)">
<polygon fill="white" stroke="#666666" points="263.75,-19.25 179.5,-19.25 179.5,0 263.75,0 263.75,-19.25"/>
<text text-anchor="middle" x="221.62" y="-5.75" font-family="Helvetica,sans-Serif" font-size="10.00">daWindStone_c</text>
</a>
</g>
</g>
<!-- Node1&#45;&gt;Node13 -->
<g id="edge12_Node000001_Node000013" class="edge">
<title>Node1&#45;&gt;Node13</title>
<g id="a_edge12_Node000001_Node000013"><a xlink:title=" ">
<path fill="none" stroke="#63b8ff" d="M75.26,-186.05C88.24,-146.11 118.07,-70.71 169,-27.62 172.77,-24.44 177.14,-21.8 181.7,-19.63"/>
<polygon fill="#63b8ff" stroke="#63b8ff" points="71.93,-184.97 72.29,-195.55 78.61,-187.05 71.93,-184.97"/>
</a>
</g>
</g>
</g>
</svg>
</svg>

<style type='text/css'>
<![CDATA[
[data-mouse-over-selected='false'] { opacity: 0.7; }
[data-mouse-over-selected='true']  { opacity: 1.0; }
]]>
</style>
<script type="application/ecmascript"><![CDATA[
document.addEventListener('DOMContentLoaded', (event) => {
  highlightEdges();
  highlightAdjacentNodes();
});
]]></script>
</svg>
