<?xml version="1.0" encoding="UTF-8" standalone="no"?>
<!DOCTYPE svg PUBLIC "-//W3C//DTD SVG 1.1//EN"
 "http://www.w3.org/Graphics/SVG/1.1/DTD/svg11.dtd">
<!-- Generated by graphviz version 7.0.5 (20221223.1930)
 -->
<!-- Title: include/SSystem/SComponent/c_bg_w.h Pages: 1 -->
<svg width="4410pt" height="489pt"
 viewBox="0.00 0.00 4409.50 489.00" xmlns="http://www.w3.org/2000/svg" xmlns:xlink="http://www.w3.org/1999/xlink">
<g id="graph0" class="graph" transform="scale(1 1) rotate(0) translate(4 485)">
<title>include/SSystem/SComponent/c_bg_w.h</title>
<!-- Node1 -->
<g id="node1" class="node">
<title>Node1</title>
<g id="a_node1"><a xlink:title=" ">
<polygon fill="#999999" stroke="#666666" points="4340,-481 4191,-481 4191,-451 4340,-451 4340,-481"/>
<text text-anchor="start" x="4199" y="-469" font-family="Helvetica,sans-Serif" font-size="10.00">include/SSystem/SComponent</text>
<text text-anchor="middle" x="4265.5" y="-458" font-family="Helvetica,sans-Serif" font-size="10.00">/c_bg_w.h</text>
</a>
</g>
</g>
<!-- Node2 -->
<g id="node2" class="node">
<title>Node2</title>
<g id="a_node2"><a xlink:href="d__bg__w__base_8h.html" target="_top" xlink:title=" ">
<polygon fill="white" stroke="#666666" points="4249.5,-415 4143.5,-415 4143.5,-385 4249.5,-385 4249.5,-415"/>
<text text-anchor="start" x="4151.5" y="-403" font-family="Helvetica,sans-Serif" font-size="10.00">include/d/bg/d_bg_w</text>
<text text-anchor="middle" x="4196.5" y="-392" font-family="Helvetica,sans-Serif" font-size="10.00">_base.h</text>
</a>
</g>
</g>
<!-- Node1&#45;&gt;Node2 -->
<g id="edge1" class="edge">
<title>Node1&#45;&gt;Node2</title>
<path fill="none" stroke="#63b8ff" d="M4241.88,-443.09C4231.91,-433.85 4220.61,-423.36 4211.77,-415.16"/>
<polygon fill="#63b8ff" stroke="#63b8ff" points="4239.37,-445.53 4249.08,-449.77 4244.13,-440.4 4239.37,-445.53"/>
</g>
<!-- Node194 -->
<g id="node50" class="node">
<title>Node194</title>
<g id="a_node50"><a xlink:href="c__bg__w_8cpp.html" target="_top" xlink:title=" ">
<polygon fill="white" stroke="#666666" points="4401.5,-415 4267.5,-415 4267.5,-385 4401.5,-385 4401.5,-415"/>
<text text-anchor="start" x="4275.5" y="-403" font-family="Helvetica,sans-Serif" font-size="10.00">libs/SSystem/SComponent</text>
<text text-anchor="middle" x="4334.5" y="-392" font-family="Helvetica,sans-Serif" font-size="10.00">/c_bg_w.cpp</text>
</a>
</g>
</g>
<!-- Node1&#45;&gt;Node194 -->
<g id="edge67" class="edge">
<title>Node1&#45;&gt;Node194</title>
<path fill="none" stroke="#63b8ff" d="M4289.12,-443.09C4299.09,-433.85 4310.39,-423.36 4319.23,-415.16"/>
<polygon fill="#63b8ff" stroke="#63b8ff" points="4286.87,-440.4 4281.92,-449.77 4291.63,-445.53 4286.87,-440.4"/>
</g>
<!-- Node3 -->
<g id="node3" class="node">
<title>Node3</title>
<g id="a_node3"><a xlink:href="d__bg__w_8h.html" target="_top" xlink:title=" ">
<polygon fill="white" stroke="#666666" points="4021,-343.5 3908,-343.5 3908,-324.5 4021,-324.5 4021,-343.5"/>
<text text-anchor="middle" x="3964.5" y="-331.5" font-family="Helvetica,sans-Serif" font-size="10.00">include/d/bg/d_bg_w.h</text>
</a>
</g>
</g>
<!-- Node2&#45;&gt;Node3 -->
<g id="edge2" class="edge">
<title>Node2&#45;&gt;Node3</title>
<path fill="none" stroke="#63b8ff" d="M4133.24,-381.55C4089.16,-369.39 4032.17,-353.67 3996.99,-343.96"/>
<polygon fill="#63b8ff" stroke="#63b8ff" points="4132.12,-384.87 4142.69,-384.15 4133.98,-378.12 4132.12,-384.87"/>
</g>
<!-- Node191 -->
<g id="node47" class="node">
<title>Node191</title>
<g id="a_node47"><a xlink:href="d__bg__w__kcol_8h.html" target="_top" xlink:title=" ">
<polygon fill="white" stroke="#666666" points="4249.5,-349 4143.5,-349 4143.5,-319 4249.5,-319 4249.5,-349"/>
<text text-anchor="start" x="4151.5" y="-337" font-family="Helvetica,sans-Serif" font-size="10.00">include/d/bg/d_bg_w</text>
<text text-anchor="middle" x="4196.5" y="-326" font-family="Helvetica,sans-Serif" font-size="10.00">_kcol.h</text>
</a>
</g>
</g>
<!-- Node2&#45;&gt;Node191 -->
<g id="edge64" class="edge">
<title>Node2&#45;&gt;Node191</title>
<path fill="none" stroke="#63b8ff" d="M4196.5,-373.39C4196.5,-365.13 4196.5,-356.28 4196.5,-349.16"/>
<polygon fill="#63b8ff" stroke="#63b8ff" points="4193,-373.28 4196.5,-383.28 4200,-373.28 4193,-373.28"/>
</g>
<!-- Node193 -->
<g id="node49" class="node">
<title>Node193</title>
<g id="a_node49"><a xlink:href="d__bg__w__base_8cpp.html" target="_top" xlink:title=" ">
<polygon fill="white" stroke="#666666" points="4401,-343.5 4268,-343.5 4268,-324.5 4401,-324.5 4401,-343.5"/>
<text text-anchor="middle" x="4334.5" y="-331.5" font-family="Helvetica,sans-Serif" font-size="10.00">src/d/bg/d_bg_w_base.cpp</text>
</a>
</g>
</g>
<!-- Node2&#45;&gt;Node193 -->
<g id="edge66" class="edge">
<title>Node2&#45;&gt;Node193</title>
<path fill="none" stroke="#63b8ff" d="M4237.67,-379.91C4263.32,-368.01 4295.13,-353.26 4315.12,-343.99"/>
<polygon fill="#63b8ff" stroke="#63b8ff" points="4236.44,-376.62 4228.84,-384 4239.39,-382.97 4236.44,-376.62"/>
</g>
<!-- Node4 -->
<g id="node4" class="node">
<title>Node4</title>
<g id="a_node4"><a xlink:href="d__bg__s_8h.html" target="_top" xlink:title=" ">
<polygon fill="white" stroke="#666666" points="4020,-283 3909,-283 3909,-264 4020,-264 4020,-283"/>
<text text-anchor="middle" x="3964.5" y="-271" font-family="Helvetica,sans-Serif" font-size="10.00">include/d/bg/d_bg_s.h</text>
</a>
</g>
</g>
<!-- Node3&#45;&gt;Node4 -->
<g id="edge3" class="edge">
<title>Node3&#45;&gt;Node4</title>
<path fill="none" stroke="#63b8ff" d="M3964.5,-313.16C3964.5,-302.95 3964.5,-291.04 3964.5,-283.17"/>
<polygon fill="#63b8ff" stroke="#63b8ff" points="3961,-312.85 3964.5,-322.85 3968,-312.85 3961,-312.85"/>
</g>
<!-- Node148 -->
<g id="node40" class="node">
<title>Node148</title>
<g id="a_node40"><a xlink:href="d__bg__w_8cpp.html" target="_top" xlink:title=" ">
<polygon fill="white" stroke="#666666" points="4266,-96 4159,-96 4159,-77 4266,-77 4266,-96"/>
<text text-anchor="middle" x="4212.5" y="-84" font-family="Helvetica,sans-Serif" font-size="10.00">src/d/bg/d_bg_w.cpp</text>
</a>
</g>
</g>
<!-- Node3&#45;&gt;Node148 -->
<g id="edge63" class="edge">
<title>Node3&#45;&gt;Node148</title>
<path fill="none" stroke="#63b8ff" d="M3995.87,-319.36C4044.86,-296.43 4139.12,-245.43 4189.5,-173 4206.35,-148.77 4210.86,-112.79 4212.07,-96.32"/>
<polygon fill="#63b8ff" stroke="#63b8ff" points="3994.58,-316.1 3986.95,-323.45 3997.49,-322.47 3994.58,-316.1"/>
</g>
<!-- Node187 -->
<g id="node43" class="node">
<title>Node187</title>
<g id="a_node43"><a xlink:href="d__bg__s__movebg__actor_8h.html" target="_top" xlink:title=" ">
<polygon fill="white" stroke="#666666" points="500.5,-173 396.5,-173 396.5,-143 500.5,-143 500.5,-173"/>
<text text-anchor="start" x="404.5" y="-161" font-family="Helvetica,sans-Serif" font-size="10.00">include/d/bg/d_bg_s</text>
<text text-anchor="middle" x="448.5" y="-150" font-family="Helvetica,sans-Serif" font-size="10.00">_movebg_actor.h</text>
</a>
</g>
</g>
<!-- Node3&#45;&gt;Node187 -->
<g id="edge54" class="edge">
<title>Node3&#45;&gt;Node187</title>
<path fill="none" stroke="#63b8ff" d="M3929.56,-320.05C3879.25,-301.13 3783.72,-264.25 3704.5,-228 3687.69,-220.31 3685.43,-213.48 3667.5,-209 3587.39,-188.97 910.84,-163.3 500.94,-159.48"/>
<polygon fill="#63b8ff" stroke="#63b8ff" points="3928.16,-323.26 3938.76,-323.49 3930.62,-316.7 3928.16,-323.26"/>
</g>
<!-- Node189 -->
<g id="node45" class="node">
<title>Node189</title>
<g id="a_node45"><a xlink:href="d__bg__w__sv_8h.html" target="_top" xlink:title=" ">
<polygon fill="white" stroke="#666666" points="3662,-283 3533,-283 3533,-264 3662,-264 3662,-283"/>
<text text-anchor="middle" x="3597.5" y="-271" font-family="Helvetica,sans-Serif" font-size="10.00">include/d/bg/d_bg_w_sv.h</text>
</a>
</g>
</g>
<!-- Node3&#45;&gt;Node189 -->
<g id="edge61" class="edge">
<title>Node3&#45;&gt;Node189</title>
<path fill="none" stroke="#63b8ff" d="M3897.07,-322.25C3827.25,-311.12 3719.4,-293.93 3653.93,-283.5"/>
<polygon fill="#63b8ff" stroke="#63b8ff" points="3896.44,-325.7 3906.87,-323.81 3897.54,-318.78 3896.44,-325.7"/>
</g>
<!-- Node5 -->
<g id="node5" class="node">
<title>Node5</title>
<g id="a_node5"><a xlink:href="d__a__alink_8h.html" target="_top" xlink:title=" ">
<polygon fill="white" stroke="#666666" points="4022.5,-228 3906.5,-228 3906.5,-209 4022.5,-209 4022.5,-228"/>
<text text-anchor="middle" x="3964.5" y="-216" font-family="Helvetica,sans-Serif" font-size="10.00">include/d/a/d_a_alink.h</text>
</a>
</g>
</g>
<!-- Node4&#45;&gt;Node5 -->
<g id="edge4" class="edge">
<title>Node4&#45;&gt;Node5</title>
<path fill="none" stroke="#63b8ff" d="M3964.5,-252.35C3964.5,-244.1 3964.5,-234.97 3964.5,-228.44"/>
<polygon fill="#63b8ff" stroke="#63b8ff" points="3961,-252.23 3964.5,-262.23 3968,-252.23 3961,-252.23"/>
</g>
<!-- Node6 -->
<g id="node6" class="node">
<title>Node6</title>
<g id="a_node6"><a xlink:href="d__com__inf__game_8h.html" target="_top" xlink:title=" ">
<polygon fill="#fff0f0" stroke="red" points="2245.5,-173 2135.5,-173 2135.5,-143 2245.5,-143 2245.5,-173"/>
<text text-anchor="start" x="2143.5" y="-161" font-family="Helvetica,sans-Serif" font-size="10.00">include/d/com/d_com</text>
<text text-anchor="middle" x="2190.5" y="-150" font-family="Helvetica,sans-Serif" font-size="10.00">_inf_game.h</text>
</a>
</g>
</g>
<!-- Node4&#45;&gt;Node6 -->
<g id="edge48" class="edge">
<title>Node4&#45;&gt;Node6</title>
<path fill="none" stroke="#63b8ff" d="M3897.54,-262.58C3854.16,-255.22 3796.77,-243.74 3747.5,-228 3727.6,-221.64 3724.87,-213.65 3704.5,-209 3560.36,-176.08 2501.22,-162.41 2245.81,-159.58"/>
<polygon fill="#63b8ff" stroke="#63b8ff" points="3896.88,-266.02 3907.32,-264.2 3898.03,-259.11 3896.88,-266.02"/>
</g>
<!-- Node146 -->
<g id="node38" class="node">
<title>Node146</title>
<g id="a_node38"><a xlink:href="d__bg__s_8cpp.html" target="_top" xlink:title=" ">
<polygon fill="white" stroke="#666666" points="4102.5,-96 3998.5,-96 3998.5,-77 4102.5,-77 4102.5,-96"/>
<text text-anchor="middle" x="4050.5" y="-84" font-family="Helvetica,sans-Serif" font-size="10.00">src/d/bg/d_bg_s.cpp</text>
</a>
</g>
</g>
<!-- Node4&#45;&gt;Node146 -->
<g id="edge52" class="edge">
<title>Node4&#45;&gt;Node146</title>
<path fill="none" stroke="#63b8ff" d="M3996.9,-258.38C4009.72,-251.15 4023.31,-241.07 4031.5,-228 4058.54,-184.82 4054.27,-119.61 4051.65,-96.23"/>
<polygon fill="#63b8ff" stroke="#63b8ff" points="3995.51,-255.16 3988.25,-262.88 3998.74,-261.37 3995.51,-255.16"/>
</g>
<!-- Node185 -->
<g id="node41" class="node">
<title>Node185</title>
<g id="a_node41"><a xlink:href="d__a__horse_8h.html" target="_top" xlink:title=" ">
<polygon fill="#fff0f0" stroke="red" points="4180,-173 4079,-173 4079,-143 4180,-143 4180,-173"/>
<text text-anchor="start" x="4087" y="-161" font-family="Helvetica,sans-Serif" font-size="10.00">include/rel/d/a/d_a</text>
<text text-anchor="middle" x="4129.5" y="-150" font-family="Helvetica,sans-Serif" font-size="10.00">_horse/d_a_horse.h</text>
</a>
</g>
</g>
<!-- Node4&#45;&gt;Node185 -->
<g id="edge49" class="edge">
<title>Node4&#45;&gt;Node185</title>
<path fill="none" stroke="#63b8ff" d="M4002.58,-259.67C4022.08,-252.11 4045.63,-241.39 4064.5,-228 4086.51,-212.38 4107,-188.46 4118.88,-173.28"/>
<polygon fill="#63b8ff" stroke="#63b8ff" points="4001.48,-256.34 3993.34,-263.12 4003.93,-262.9 4001.48,-256.34"/>
</g>
<!-- Node186 -->
<g id="node42" class="node">
<title>Node186</title>
<g id="a_node42"><a xlink:href="d__bg__s__acch_8cpp.html" target="_top" xlink:title=" ">
<polygon fill="white" stroke="#666666" points="3888,-228 3757,-228 3757,-209 3888,-209 3888,-228"/>
<text text-anchor="middle" x="3822.5" y="-216" font-family="Helvetica,sans-Serif" font-size="10.00">src/d/bg/d_bg_s_acch.cpp</text>
</a>
</g>
</g>
<!-- Node4&#45;&gt;Node186 -->
<g id="edge53" class="edge">
<title>Node4&#45;&gt;Node186</title>
<path fill="none" stroke="#63b8ff" d="M3929.89,-259.58C3903.94,-249.9 3869.1,-236.89 3846.23,-228.36"/>
<polygon fill="#63b8ff" stroke="#63b8ff" points="3928.4,-262.76 3938.99,-262.98 3930.85,-256.2 3928.4,-262.76"/>
</g>
<!-- Node5&#45;&gt;Node6 -->
<g id="edge5" class="edge">
<title>Node5&#45;&gt;Node6</title>
<path fill="none" stroke="#63b8ff" d="M3895.21,-209.01C3239.91,-159.13 2457.98,-158.01 2245.83,-158.71"/>
<polygon fill="#63b8ff" stroke="#63b8ff" points="3894.55,-212.47 3904.79,-209.74 3895.09,-205.49 3894.55,-212.47"/>
</g>
<!-- Node18 -->
<g id="node12" class="node">
<title>Node18</title>
<g id="a_node12"><a xlink:href="d__a__alink_8cpp.html" target="_top" xlink:title=" ">
<polygon fill="white" stroke="#666666" points="3754,-24.5 3645,-24.5 3645,-5.5 3754,-5.5 3754,-24.5"/>
<text text-anchor="middle" x="3699.5" y="-12.5" font-family="Helvetica,sans-Serif" font-size="10.00">src/d/a/d_a_alink.cpp</text>
</a>
</g>
</g>
<!-- Node5&#45;&gt;Node18 -->
<g id="edge47" class="edge">
<title>Node5&#45;&gt;Node18</title>
<path fill="none" stroke="#63b8ff" d="M3966.57,-197.37C3968.69,-164.96 3967.69,-101.31 3932.5,-66 3907.97,-41.39 3815.29,-27.55 3754.47,-20.94"/>
<polygon fill="#63b8ff" stroke="#63b8ff" points="3963.08,-197.06 3965.72,-207.32 3970.06,-197.65 3963.08,-197.06"/>
</g>
<!-- Node7 -->
<g id="node7" class="node">
<title>Node7</title>
<g id="a_node7"><a xlink:href="d__a__npc_8h.html" target="_top" xlink:title=" ">
<polygon fill="#fff0f0" stroke="red" points="2684,-24.5 2573,-24.5 2573,-5.5 2684,-5.5 2684,-24.5"/>
<text text-anchor="middle" x="2628.5" y="-12.5" font-family="Helvetica,sans-Serif" font-size="10.00">include/d/a/d_a_npc.h</text>
</a>
</g>
</g>
<!-- Node6&#45;&gt;Node7 -->
<g id="edge6" class="edge">
<title>Node6&#45;&gt;Node7</title>
<path fill="none" stroke="#63b8ff" d="M2124.03,-149.24C2097.57,-142.52 2069.63,-130.05 2053.5,-107 2043.05,-92.07 2041.19,-79.43 2053.5,-66 2088.14,-28.22 2434.78,-18.89 2572.51,-16.67"/>
<polygon fill="#63b8ff" stroke="#63b8ff" points="2123.24,-152.64 2133.76,-151.44 2124.78,-145.82 2123.24,-152.64"/>
</g>
<!-- Node13 -->
<g id="node8" class="node">
<title>Node13</title>
<g id="a_node8"><a xlink:href="d__cc__uty_8h.html" target="_top" xlink:title=" ">
<polygon fill="#fff0f0" stroke="red" points="912,-96 793,-96 793,-77 912,-77 912,-96"/>
<text text-anchor="middle" x="852.5" y="-84" font-family="Helvetica,sans-Serif" font-size="10.00">include/d/cc/d_cc_uty.h</text>
</a>
</g>
</g>
<!-- Node6&#45;&gt;Node13 -->
<g id="edge7" class="edge">
<title>Node6&#45;&gt;Node13</title>
<path fill="none" stroke="#63b8ff" d="M2123.96,-156.28C1897.95,-153.54 1160.8,-142.07 926.5,-107 911.13,-104.7 894.35,-100.43 880.66,-96.47"/>
<polygon fill="#63b8ff" stroke="#63b8ff" points="2123.72,-159.78 2133.77,-156.4 2123.81,-152.78 2123.72,-159.78"/>
</g>
<!-- Node14 -->
<g id="node9" class="node">
<title>Node14</title>
<g id="a_node9"><a xlink:href="d__a__b__ob_8h.html" target="_top" xlink:title=" ">
<polygon fill="#fff0f0" stroke="red" points="948.5,-30 842.5,-30 842.5,0 948.5,0 948.5,-30"/>
<text text-anchor="start" x="850.5" y="-18" font-family="Helvetica,sans-Serif" font-size="10.00">include/rel/d/a/b/d</text>
<text text-anchor="middle" x="895.5" y="-7" font-family="Helvetica,sans-Serif" font-size="10.00">_a_b_ob/d_a_b_ob.h</text>
</a>
</g>
</g>
<!-- Node6&#45;&gt;Node14 -->
<g id="edge28" class="edge">
<title>Node6&#45;&gt;Node14</title>
<path fill="none" stroke="#63b8ff" d="M2123.87,-157.05C1886.48,-156.84 1090.64,-152.69 986.5,-107 949.26,-90.66 918.98,-51.56 904.58,-30.32"/>
<polygon fill="#63b8ff" stroke="#63b8ff" points="2123.56,-160.55 2133.56,-157.05 2123.56,-153.55 2123.56,-160.55"/>
</g>
<!-- Node24 -->
<g id="node10" class="node">
<title>Node24</title>
<g id="a_node10"><a xlink:href="d__error__msg_8h.html" target="_top" xlink:title=" ">
<polygon fill="#fff0f0" stroke="red" points="3663.5,-96 3543.5,-96 3543.5,-77 3663.5,-77 3663.5,-96"/>
<text text-anchor="middle" x="3603.5" y="-84" font-family="Helvetica,sans-Serif" font-size="10.00">include/d/d_error_msg.h</text>
</a>
</g>
</g>
<!-- Node6&#45;&gt;Node24 -->
<g id="edge9" class="edge">
<title>Node6&#45;&gt;Node24</title>
<path fill="none" stroke="#63b8ff" d="M2257.27,-156.62C2492.83,-154.94 3284.29,-146.43 3534.5,-107 3548.89,-104.73 3564.54,-100.46 3577.29,-96.5"/>
<polygon fill="#63b8ff" stroke="#63b8ff" points="2257.31,-153.12 2247.34,-156.69 2257.36,-160.12 2257.31,-153.12"/>
</g>
<!-- Node27 -->
<g id="node11" class="node">
<title>Node27</title>
<g id="a_node11"><a xlink:href="d__item_8h.html" target="_top" xlink:title=" ">
<polygon fill="#fff0f0" stroke="red" points="3391,-96 3296,-96 3296,-77 3391,-77 3391,-96"/>
<text text-anchor="middle" x="3343.5" y="-84" font-family="Helvetica,sans-Serif" font-size="10.00">include/d/d_item.h</text>
</a>
</g>
</g>
<!-- Node6&#45;&gt;Node27 -->
<g id="edge10" class="edge">
<title>Node6&#45;&gt;Node27</title>
<path fill="none" stroke="#63b8ff" d="M2257.15,-156.43C2463.13,-154.29 3087.57,-144.76 3286.5,-107 3298.52,-104.72 3311.46,-100.45 3321.97,-96.49"/>
<polygon fill="#63b8ff" stroke="#63b8ff" points="2257.4,-152.93 2247.44,-156.53 2257.47,-159.93 2257.4,-152.93"/>
</g>
<!-- Node6&#45;&gt;Node18 -->
<g id="edge43" class="edge">
<title>Node6&#45;&gt;Node18</title>
<path fill="none" stroke="#63b8ff" d="M2256.9,-156.33C2569.8,-153 3883.13,-137.23 3912.5,-107 3963.7,-54.29 3833.26,-30.46 3754.41,-21.14"/>
<polygon fill="#63b8ff" stroke="#63b8ff" points="2257.24,-152.82 2247.28,-156.43 2257.32,-159.82 2257.24,-152.82"/>
</g>
<!-- Node32 -->
<g id="node13" class="node">
<title>Node32</title>
<g id="a_node13"><a xlink:href="d__kantera__icon__meter_8h.html" target="_top" xlink:title=" ">
<polygon fill="#fff0f0" stroke="red" points="3783,-101.5 3682,-101.5 3682,-71.5 3783,-71.5 3783,-101.5"/>
<text text-anchor="start" x="3690" y="-89.5" font-family="Helvetica,sans-Serif" font-size="10.00">include/d/d_kantera</text>
<text text-anchor="middle" x="3732.5" y="-78.5" font-family="Helvetica,sans-Serif" font-size="10.00">_icon_meter.h</text>
</a>
</g>
</g>
<!-- Node6&#45;&gt;Node32 -->
<g id="edge12" class="edge">
<title>Node6&#45;&gt;Node32</title>
<path fill="none" stroke="#63b8ff" d="M2257.37,-157.23C2508.48,-157.69 3394.99,-155.77 3672.5,-107 3679.4,-105.79 3686.61,-103.96 3693.53,-101.91"/>
<polygon fill="#63b8ff" stroke="#63b8ff" points="2257.42,-153.73 2247.41,-157.21 2257.4,-160.73 2257.42,-153.73"/>
</g>
<!-- Node35 -->
<g id="node14" class="node">
<title>Node35</title>
<g id="a_node14"><a xlink:href="d__model_8h.html" target="_top" xlink:title=" ">
<polygon fill="#fff0f0" stroke="red" points="3904,-96 3801,-96 3801,-77 3904,-77 3904,-96"/>
<text text-anchor="middle" x="3852.5" y="-84" font-family="Helvetica,sans-Serif" font-size="10.00">include/d/d_model.h</text>
</a>
</g>
</g>
<!-- Node6&#45;&gt;Node35 -->
<g id="edge13" class="edge">
<title>Node6&#45;&gt;Node35</title>
<path fill="none" stroke="#63b8ff" d="M2256.99,-157.38C2520.18,-158.51 3489.38,-158.96 3791.5,-107 3804.43,-104.78 3818.4,-100.46 3829.7,-96.45"/>
<polygon fill="#63b8ff" stroke="#63b8ff" points="2257.25,-153.88 2247.24,-157.34 2257.22,-160.88 2257.25,-153.88"/>
</g>
<!-- Node37 -->
<g id="node15" class="node">
<title>Node37</title>
<g id="a_node15"><a xlink:href="d__name_8h.html" target="_top" xlink:title=" ">
<polygon fill="#fff0f0" stroke="red" points="1108,-96 1007,-96 1007,-77 1108,-77 1108,-96"/>
<text text-anchor="middle" x="1057.5" y="-84" font-family="Helvetica,sans-Serif" font-size="10.00">include/d/d_name.h</text>
</a>
</g>
</g>
<!-- Node6&#45;&gt;Node37 -->
<g id="edge14" class="edge">
<title>Node6&#45;&gt;Node37</title>
<path fill="none" stroke="#63b8ff" d="M2123.92,-156.22C1920.96,-153.5 1312.09,-142.49 1117.5,-107 1104.89,-104.7 1091.28,-100.43 1080.21,-96.47"/>
<polygon fill="#63b8ff" stroke="#63b8ff" points="2123.71,-159.72 2133.76,-156.35 2123.81,-152.72 2123.71,-159.72"/>
</g>
<!-- Node38 -->
<g id="node16" class="node">
<title>Node38</title>
<g id="a_node16"><a xlink:href="d__file__select_8h.html" target="_top" xlink:title=" ">
<polygon fill="#fff0f0" stroke="red" points="1105.5,-30 1009.5,-30 1009.5,0 1105.5,0 1105.5,-30"/>
<text text-anchor="start" x="1017.5" y="-18" font-family="Helvetica,sans-Serif" font-size="10.00">include/d/file/d_file</text>
<text text-anchor="middle" x="1057.5" y="-7" font-family="Helvetica,sans-Serif" font-size="10.00">_select.h</text>
</a>
</g>
</g>
<!-- Node6&#45;&gt;Node38 -->
<g id="edge19" class="edge">
<title>Node6&#45;&gt;Node38</title>
<path fill="none" stroke="#63b8ff" d="M2123.83,-156.73C1878.31,-155.4 1036.69,-147.87 997.5,-107 984.89,-93.85 989.77,-82.5 997.5,-66 1004.52,-51.02 1018.47,-38.96 1031.16,-30.44"/>
<polygon fill="#63b8ff" stroke="#63b8ff" points="2123.53,-160.23 2133.55,-156.78 2123.57,-153.23 2123.53,-160.23"/>
</g>
<!-- Node41 -->
<g id="node17" class="node">
<title>Node41</title>
<g id="a_node17"><a xlink:href="d__file__sel__info_8h.html" target="_top" xlink:title=" ">
<polygon fill="#fff0f0" stroke="red" points="1336.5,-101.5 1240.5,-101.5 1240.5,-71.5 1336.5,-71.5 1336.5,-101.5"/>
<text text-anchor="start" x="1248.5" y="-89.5" font-family="Helvetica,sans-Serif" font-size="10.00">include/d/file/d_file</text>
<text text-anchor="middle" x="1288.5" y="-78.5" font-family="Helvetica,sans-Serif" font-size="10.00">_sel_info.h</text>
</a>
</g>
</g>
<!-- Node6&#45;&gt;Node41 -->
<g id="edge16" class="edge">
<title>Node6&#45;&gt;Node41</title>
<path fill="none" stroke="#63b8ff" d="M2123.73,-155.38C1951.28,-150.82 1494.12,-136.25 1345.5,-107 1339.14,-105.75 1332.51,-103.96 1326.13,-101.96"/>
<polygon fill="#63b8ff" stroke="#63b8ff" points="2123.56,-158.87 2133.65,-155.64 2123.74,-151.88 2123.56,-158.87"/>
</g>
<!-- Node44 -->
<g id="node18" class="node">
<title>Node44</title>
<g id="a_node18"><a xlink:href="d__file__sel__warning_8h.html" target="_top" xlink:title=" ">
<polygon fill="#fff0f0" stroke="red" points="1222.5,-101.5 1126.5,-101.5 1126.5,-71.5 1222.5,-71.5 1222.5,-101.5"/>
<text text-anchor="start" x="1134.5" y="-89.5" font-family="Helvetica,sans-Serif" font-size="10.00">include/d/file/d_file</text>
<text text-anchor="middle" x="1174.5" y="-78.5" font-family="Helvetica,sans-Serif" font-size="10.00">_sel_warning.h</text>
</a>
</g>
</g>
<!-- Node6&#45;&gt;Node44 -->
<g id="edge17" class="edge">
<title>Node6&#45;&gt;Node44</title>
<path fill="none" stroke="#63b8ff" d="M2123.68,-155.92C1935.37,-152.5 1402.86,-140.11 1231.5,-107 1225.03,-105.75 1218.29,-103.93 1211.81,-101.91"/>
<polygon fill="#63b8ff" stroke="#63b8ff" points="2123.48,-159.42 2133.54,-156.1 2123.6,-152.42 2123.48,-159.42"/>
</g>
<!-- Node46 -->
<g id="node19" class="node">
<title>Node46</title>
<g id="a_node19"><a xlink:href="d__menu__calibration_8h.html" target="_top" xlink:title=" ">
<polygon fill="#fff0f0" stroke="red" points="1474.5,-101.5 1354.5,-101.5 1354.5,-71.5 1474.5,-71.5 1474.5,-101.5"/>
<text text-anchor="start" x="1362.5" y="-89.5" font-family="Helvetica,sans-Serif" font-size="10.00">include/d/menu/d_menu</text>
<text text-anchor="middle" x="1414.5" y="-78.5" font-family="Helvetica,sans-Serif" font-size="10.00">_calibration.h</text>
</a>
</g>
</g>
<!-- Node6&#45;&gt;Node46 -->
<g id="edge20" class="edge">
<title>Node6&#45;&gt;Node46</title>
<path fill="none" stroke="#63b8ff" d="M2123.68,-156.81C1997.57,-155.46 1716.24,-147.67 1483.5,-107 1476.02,-105.69 1468.19,-103.9 1460.59,-101.93"/>
<polygon fill="#63b8ff" stroke="#63b8ff" points="2123.48,-160.31 2133.52,-156.91 2123.55,-153.31 2123.48,-160.31"/>
</g>
<!-- Node48 -->
<g id="node20" class="node">
<title>Node48</title>
<g id="a_node20"><a xlink:href="d__meter2_8h.html" target="_top" xlink:title=" ">
<polygon fill="#fff0f0" stroke="red" points="1626.5,-96 1492.5,-96 1492.5,-77 1626.5,-77 1626.5,-96"/>
<text text-anchor="middle" x="1559.5" y="-84" font-family="Helvetica,sans-Serif" font-size="10.00">include/d/meter/d_meter2.h</text>
</a>
</g>
</g>
<!-- Node6&#45;&gt;Node48 -->
<g id="edge21" class="edge">
<title>Node6&#45;&gt;Node48</title>
<path fill="none" stroke="#63b8ff" d="M2124.06,-154.48C2019.47,-149.73 1810.33,-137.1 1635.5,-107 1620.2,-104.37 1603.45,-100.21 1589.58,-96.41"/>
<polygon fill="#63b8ff" stroke="#63b8ff" points="2123.71,-157.97 2133.86,-154.91 2124.02,-150.97 2123.71,-157.97"/>
</g>
<!-- Node58 -->
<g id="node21" class="node">
<title>Node58</title>
<g id="a_node21"><a xlink:href="d__msg__object_8h.html" target="_top" xlink:title=" ">
<polygon fill="#fff0f0" stroke="red" points="3277.5,-101.5 3167.5,-101.5 3167.5,-71.5 3277.5,-71.5 3277.5,-101.5"/>
<text text-anchor="start" x="3175.5" y="-89.5" font-family="Helvetica,sans-Serif" font-size="10.00">include/d/msg/d_msg</text>
<text text-anchor="middle" x="3222.5" y="-78.5" font-family="Helvetica,sans-Serif" font-size="10.00">_object.h</text>
</a>
</g>
</g>
<!-- Node6&#45;&gt;Node58 -->
<g id="edge22" class="edge">
<title>Node6&#45;&gt;Node58</title>
<path fill="none" stroke="#63b8ff" d="M2257.22,-155.67C2446.57,-151.57 2984.79,-137.48 3158.5,-107 3165.59,-105.76 3173,-103.97 3180.16,-101.98"/>
<polygon fill="#63b8ff" stroke="#63b8ff" points="2257.23,-152.17 2247.31,-155.88 2257.38,-159.17 2257.23,-152.17"/>
</g>
<!-- Node77 -->
<g id="node22" class="node">
<title>Node77</title>
<g id="a_node22"><a xlink:href="d__s__logo_8h.html" target="_top" xlink:title=" ">
<polygon fill="#fff0f0" stroke="red" points="1758,-96 1645,-96 1645,-77 1758,-77 1758,-96"/>
<text text-anchor="middle" x="1701.5" y="-84" font-family="Helvetica,sans-Serif" font-size="10.00">include/d/s/d_s_logo.h</text>
</a>
</g>
</g>
<!-- Node6&#45;&gt;Node77 -->
<g id="edge25" class="edge">
<title>Node6&#45;&gt;Node77</title>
<path fill="none" stroke="#63b8ff" d="M2123.7,-152.73C2039.67,-146.54 1891.27,-132.87 1766.5,-107 1753.46,-104.3 1739.27,-100.18 1727.48,-96.43"/>
<polygon fill="#63b8ff" stroke="#63b8ff" points="2123.39,-156.22 2133.61,-153.45 2123.89,-149.24 2123.39,-156.22"/>
</g>
<!-- Node79 -->
<g id="node23" class="node">
<title>Node79</title>
<g id="a_node23"><a xlink:href="d__s__play_8h.html" target="_top" xlink:title=" ">
<polygon fill="#fff0f0" stroke="red" points="1889,-96 1776,-96 1776,-77 1889,-77 1889,-96"/>
<text text-anchor="middle" x="1832.5" y="-84" font-family="Helvetica,sans-Serif" font-size="10.00">include/d/s/d_s_play.h</text>
</a>
</g>
</g>
<!-- Node6&#45;&gt;Node79 -->
<g id="edge26" class="edge">
<title>Node6&#45;&gt;Node79</title>
<path fill="none" stroke="#63b8ff" d="M2123.86,-148C2064.17,-139.38 1974.44,-125.03 1897.5,-107 1884.88,-104.04 1871.11,-100.03 1859.5,-96.41"/>
<polygon fill="#63b8ff" stroke="#63b8ff" points="2123.12,-151.43 2133.52,-149.38 2124.11,-144.5 2123.12,-151.43"/>
</g>
<!-- Node86 -->
<g id="node24" class="node">
<title>Node86</title>
<g id="a_node24"><a xlink:href="d__msg__scrn__base_8h.html" target="_top" xlink:title=" ">
<polygon fill="#fff0f0" stroke="red" points="2006,-101.5 1907,-101.5 1907,-71.5 2006,-71.5 2006,-101.5"/>
<text text-anchor="start" x="1915" y="-89.5" font-family="Helvetica,sans-Serif" font-size="10.00">include/msg/scrn/d</text>
<text text-anchor="middle" x="1956.5" y="-78.5" font-family="Helvetica,sans-Serif" font-size="10.00">_msg_scrn_base.h</text>
</a>
</g>
</g>
<!-- Node6&#45;&gt;Node86 -->
<g id="edge27" class="edge">
<title>Node6&#45;&gt;Node86</title>
<path fill="none" stroke="#63b8ff" d="M2130.3,-139.45C2097.76,-129.92 2056.91,-117.9 2020.5,-107 2015.05,-105.37 2009.34,-103.65 2003.67,-101.93"/>
<polygon fill="#63b8ff" stroke="#63b8ff" points="2128.96,-142.7 2139.54,-142.15 2130.93,-135.98 2128.96,-142.7"/>
</g>
<!-- Node90 -->
<g id="node25" class="node">
<title>Node90</title>
<g id="a_node25"><a xlink:href="d__a__b__zant_8h.html" target="_top" xlink:title=" ">
<polygon fill="white" stroke="#666666" points="2184,-101.5 2063,-101.5 2063,-71.5 2184,-71.5 2184,-101.5"/>
<text text-anchor="start" x="2071" y="-89.5" font-family="Helvetica,sans-Serif" font-size="10.00">include/rel/d/a/b/d</text>
<text text-anchor="middle" x="2123.5" y="-78.5" font-family="Helvetica,sans-Serif" font-size="10.00">_a_b_zant/d_a_b_zant.h</text>
</a>
</g>
</g>
<!-- Node6&#45;&gt;Node90 -->
<g id="edge29" class="edge">
<title>Node6&#45;&gt;Node90</title>
<path fill="none" stroke="#63b8ff" d="M2168.79,-134.48C2158.47,-123.78 2146.43,-111.29 2137.36,-101.88"/>
<polygon fill="#63b8ff" stroke="#63b8ff" points="2166.11,-136.74 2175.57,-141.51 2171.15,-131.88 2166.11,-136.74"/>
</g>
<!-- Node91 -->
<g id="node26" class="node">
<title>Node91</title>
<g id="a_node26"><a xlink:href="d__a__andsw_8h.html" target="_top" xlink:title=" ">
<polygon fill="white" stroke="#666666" points="2312.5,-101.5 2202.5,-101.5 2202.5,-71.5 2312.5,-71.5 2312.5,-101.5"/>
<text text-anchor="start" x="2210.5" y="-89.5" font-family="Helvetica,sans-Serif" font-size="10.00">include/rel/d/a/d_a</text>
<text text-anchor="middle" x="2257.5" y="-78.5" font-family="Helvetica,sans-Serif" font-size="10.00">_andsw/d_a_andsw.h</text>
</a>
</g>
</g>
<!-- Node6&#45;&gt;Node91 -->
<g id="edge30" class="edge">
<title>Node6&#45;&gt;Node91</title>
<path fill="none" stroke="#63b8ff" d="M2212.21,-134.48C2222.53,-123.78 2234.57,-111.29 2243.64,-101.88"/>
<polygon fill="#63b8ff" stroke="#63b8ff" points="2209.85,-131.88 2205.43,-141.51 2214.89,-136.74 2209.85,-131.88"/>
</g>
<!-- Node92 -->
<g id="node27" class="node">
<title>Node92</title>
<g id="a_node27"><a xlink:href="d__a__cstaF_8h.html" target="_top" xlink:title=" ">
<polygon fill="white" stroke="#666666" points="377,-101.5 274,-101.5 274,-71.5 377,-71.5 377,-101.5"/>
<text text-anchor="start" x="282" y="-89.5" font-family="Helvetica,sans-Serif" font-size="10.00">include/rel/d/a/d_a</text>
<text text-anchor="middle" x="325.5" y="-78.5" font-family="Helvetica,sans-Serif" font-size="10.00">_cstaF/d_a_cstaF.h</text>
</a>
</g>
</g>
<!-- Node6&#45;&gt;Node92 -->
<g id="edge31" class="edge">
<title>Node6&#45;&gt;Node92</title>
<path fill="none" stroke="#63b8ff" d="M2124.08,-156.29C1818.93,-152.85 559.06,-136.97 385.5,-107 378.59,-105.81 371.39,-103.99 364.47,-101.94"/>
<polygon fill="#63b8ff" stroke="#63b8ff" points="2123.82,-159.78 2133.86,-156.4 2123.9,-152.78 2123.82,-159.78"/>
</g>
<!-- Node93 -->
<g id="node28" class="node">
<title>Node93</title>
<g id="a_node28"><a xlink:href="d__a__dmidna_8h.html" target="_top" xlink:title=" ">
<polygon fill="white" stroke="#666666" points="2446.5,-101.5 2330.5,-101.5 2330.5,-71.5 2446.5,-71.5 2446.5,-101.5"/>
<text text-anchor="start" x="2338.5" y="-89.5" font-family="Helvetica,sans-Serif" font-size="10.00">include/rel/d/a/d_a</text>
<text text-anchor="middle" x="2388.5" y="-78.5" font-family="Helvetica,sans-Serif" font-size="10.00">_dmidna/d_a_dmidna.h</text>
</a>
</g>
</g>
<!-- Node6&#45;&gt;Node93 -->
<g id="edge32" class="edge">
<title>Node6&#45;&gt;Node93</title>
<path fill="none" stroke="#63b8ff" d="M2242.29,-138.82C2275.12,-127.3 2317.01,-112.59 2347.53,-101.88"/>
<polygon fill="#63b8ff" stroke="#63b8ff" points="2241.23,-135.48 2232.95,-142.1 2243.55,-142.09 2241.23,-135.48"/>
</g>
<!-- Node94 -->
<g id="node29" class="node">
<title>Node94</title>
<g id="a_node29"><a xlink:href="d__a__econt_8h.html" target="_top" xlink:title=" ">
<polygon fill="white" stroke="#666666" points="2566,-101.5 2465,-101.5 2465,-71.5 2566,-71.5 2566,-101.5"/>
<text text-anchor="start" x="2473" y="-89.5" font-family="Helvetica,sans-Serif" font-size="10.00">include/rel/d/a/d_a</text>
<text text-anchor="middle" x="2515.5" y="-78.5" font-family="Helvetica,sans-Serif" font-size="10.00">_econt/d_a_econt.h</text>
</a>
</g>
</g>
<!-- Node6&#45;&gt;Node94 -->
<g id="edge33" class="edge">
<title>Node6&#45;&gt;Node94</title>
<path fill="none" stroke="#63b8ff" d="M2256.89,-146.89C2310.81,-138.1 2388.59,-124.11 2455.5,-107 2461.34,-105.51 2467.43,-103.76 2473.41,-101.93"/>
<polygon fill="#63b8ff" stroke="#63b8ff" points="2256.57,-143.4 2247.26,-148.44 2257.69,-150.31 2256.57,-143.4"/>
</g>
<!-- Node95 -->
<g id="node30" class="node">
<title>Node95</title>
<g id="a_node30"><a xlink:href="d__a__guard__mng_8h.html" target="_top" xlink:title=" ">
<polygon fill="white" stroke="#666666" points="2733,-101.5 2584,-101.5 2584,-71.5 2733,-71.5 2733,-101.5"/>
<text text-anchor="start" x="2592" y="-89.5" font-family="Helvetica,sans-Serif" font-size="10.00">include/rel/d/a/d_a</text>
<text text-anchor="middle" x="2658.5" y="-78.5" font-family="Helvetica,sans-Serif" font-size="10.00">_guard_mng/d_a_guard_mng.h</text>
</a>
</g>
</g>
<!-- Node6&#45;&gt;Node95 -->
<g id="edge34" class="edge">
<title>Node6&#45;&gt;Node95</title>
<path fill="none" stroke="#63b8ff" d="M2257.17,-150.34C2334.01,-142.19 2463.91,-126.99 2574.5,-107 2582.6,-105.54 2591.1,-103.8 2599.45,-101.98"/>
<polygon fill="#63b8ff" stroke="#63b8ff" points="2256.85,-146.85 2247.27,-151.38 2257.59,-153.81 2256.85,-146.85"/>
</g>
<!-- Node96 -->
<g id="node31" class="node">
<title>Node96</title>
<g id="a_node31"><a xlink:href="d__a__hitobj_8h.html" target="_top" xlink:title=" ">
<polygon fill="white" stroke="#666666" points="2851.5,-101.5 2751.5,-101.5 2751.5,-71.5 2851.5,-71.5 2851.5,-101.5"/>
<text text-anchor="start" x="2759.5" y="-89.5" font-family="Helvetica,sans-Serif" font-size="10.00">include/rel/d/a/d_a</text>
<text text-anchor="middle" x="2801.5" y="-78.5" font-family="Helvetica,sans-Serif" font-size="10.00">_hitobj/d_a_hitobj.h</text>
</a>
</g>
</g>
<!-- Node6&#45;&gt;Node96 -->
<g id="edge35" class="edge">
<title>Node6&#45;&gt;Node96</title>
<path fill="none" stroke="#63b8ff" d="M2257.13,-155.75C2361.43,-152.71 2569.18,-142.35 2741.5,-107 2747.94,-105.68 2754.65,-103.91 2761.16,-101.97"/>
<polygon fill="#63b8ff" stroke="#63b8ff" points="2257.25,-152.24 2247.35,-156.02 2257.44,-159.24 2257.25,-152.24"/>
</g>
<!-- Node97 -->
<g id="node32" class="node">
<title>Node97</title>
<g id="a_node32"><a xlink:href="d__a__set__bgobj_8h.html" target="_top" xlink:title=" ">
<polygon fill="white" stroke="#666666" points="3007,-101.5 2870,-101.5 2870,-71.5 3007,-71.5 3007,-101.5"/>
<text text-anchor="start" x="2878" y="-89.5" font-family="Helvetica,sans-Serif" font-size="10.00">include/rel/d/a/d_a</text>
<text text-anchor="middle" x="2938.5" y="-78.5" font-family="Helvetica,sans-Serif" font-size="10.00">_set_bgobj/d_a_set_bgobj.h</text>
</a>
</g>
</g>
<!-- Node6&#45;&gt;Node97 -->
<g id="edge36" class="edge">
<title>Node6&#45;&gt;Node97</title>
<path fill="none" stroke="#63b8ff" d="M2256.82,-155.79C2377.62,-152.76 2641.29,-142.32 2860.5,-107 2868.77,-105.67 2877.45,-103.89 2885.89,-101.95"/>
<polygon fill="#63b8ff" stroke="#63b8ff" points="2257.01,-152.28 2247.1,-156.02 2257.18,-159.28 2257.01,-152.28"/>
</g>
<!-- Node98 -->
<g id="node33" class="node">
<title>Node98</title>
<g id="a_node33"><a xlink:href="d__a__skip__2D_8h.html" target="_top" xlink:title=" ">
<polygon fill="white" stroke="#666666" points="3149.5,-101.5 3025.5,-101.5 3025.5,-71.5 3149.5,-71.5 3149.5,-101.5"/>
<text text-anchor="start" x="3033.5" y="-89.5" font-family="Helvetica,sans-Serif" font-size="10.00">include/rel/d/a/d_a</text>
<text text-anchor="middle" x="3087.5" y="-78.5" font-family="Helvetica,sans-Serif" font-size="10.00">_skip_2D/d_a_skip_2D.h</text>
</a>
</g>
</g>
<!-- Node6&#45;&gt;Node98 -->
<g id="edge37" class="edge">
<title>Node6&#45;&gt;Node98</title>
<path fill="none" stroke="#63b8ff" d="M2257.39,-157.54C2398.5,-157.69 2736.6,-152.73 3015.5,-107 3023.3,-105.72 3031.46,-103.95 3039.39,-101.98"/>
<polygon fill="#63b8ff" stroke="#63b8ff" points="2257.49,-154.05 2247.48,-157.52 2257.47,-161.05 2257.49,-154.05"/>
</g>
<!-- Node99 -->
<g id="node34" class="node">
<title>Node99</title>
<g id="a_node34"><a xlink:href="d__a__spinner_8h.html" target="_top" xlink:title=" ">
<polygon fill="#fff0f0" stroke="red" points="3525.5,-101.5 3409.5,-101.5 3409.5,-71.5 3525.5,-71.5 3525.5,-101.5"/>
<text text-anchor="start" x="3417.5" y="-89.5" font-family="Helvetica,sans-Serif" font-size="10.00">include/rel/d/a/d_a</text>
<text text-anchor="middle" x="3467.5" y="-78.5" font-family="Helvetica,sans-Serif" font-size="10.00">_spinner/d_a_spinner.h</text>
</a>
</g>
</g>
<!-- Node6&#45;&gt;Node99 -->
<g id="edge38" class="edge">
<title>Node6&#45;&gt;Node99</title>
<path fill="none" stroke="#63b8ff" d="M2257.11,-156.33C2476.76,-153.79 3176.79,-143.01 3399.5,-107 3407.14,-105.77 3415.14,-103.96 3422.85,-101.93"/>
<polygon fill="#63b8ff" stroke="#63b8ff" points="2257.26,-152.83 2247.3,-156.44 2257.34,-159.83 2257.26,-152.83"/>
</g>
<!-- Node107 -->
<g id="node35" class="node">
<title>Node107</title>
<g id="a_node35"><a xlink:href="d__a__obj__cboard_8h.html" target="_top" xlink:title=" ">
<polygon fill="white" stroke="#666666" points="502,-107 395,-107 395,-66 502,-66 502,-107"/>
<text text-anchor="start" x="403" y="-95" font-family="Helvetica,sans-Serif" font-size="10.00">include/rel/d/a/obj</text>
<text text-anchor="start" x="403" y="-84" font-family="Helvetica,sans-Serif" font-size="10.00">/d_a_obj_cboard/d_a</text>
<text text-anchor="middle" x="448.5" y="-73" font-family="Helvetica,sans-Serif" font-size="10.00">_obj_cboard.h</text>
</a>
</g>
</g>
<!-- Node6&#45;&gt;Node107 -->
<g id="edge40" class="edge">
<title>Node6&#45;&gt;Node107</title>
<path fill="none" stroke="#63b8ff" d="M2123.94,-157.41C1852.67,-158.73 829.83,-160 511.5,-107 508.45,-106.49 505.34,-105.87 502.23,-105.18"/>
<polygon fill="#63b8ff" stroke="#63b8ff" points="2123.66,-160.92 2133.65,-157.36 2123.63,-153.92 2123.66,-160.92"/>
</g>
<!-- Node108 -->
<g id="node36" class="node">
<title>Node108</title>
<g id="a_node36"><a xlink:href="d__a__obj__cowdoor_8h.html" target="_top" xlink:title=" ">
<polygon fill="white" stroke="#666666" points="634.5,-107 520.5,-107 520.5,-66 634.5,-66 634.5,-107"/>
<text text-anchor="start" x="528.5" y="-95" font-family="Helvetica,sans-Serif" font-size="10.00">include/rel/d/a/obj</text>
<text text-anchor="start" x="528.5" y="-84" font-family="Helvetica,sans-Serif" font-size="10.00">/d_a_obj_cowdoor/d_a</text>
<text text-anchor="middle" x="577.5" y="-73" font-family="Helvetica,sans-Serif" font-size="10.00">_obj_cowdoor.h</text>
</a>
</g>
</g>
<!-- Node6&#45;&gt;Node108 -->
<g id="edge41" class="edge">
<title>Node6&#45;&gt;Node108</title>
<path fill="none" stroke="#63b8ff" d="M2123.75,-157.1C1865.93,-157.15 934.99,-153.98 643.5,-107 640.67,-106.54 637.79,-106 634.89,-105.39"/>
<polygon fill="#63b8ff" stroke="#63b8ff" points="2123.65,-160.6 2133.65,-157.1 2123.64,-153.6 2123.65,-160.6"/>
</g>
<!-- Node110 -->
<g id="node37" class="node">
<title>Node110</title>
<g id="a_node37"><a xlink:href="d__a__obj__mgate_8h.html" target="_top" xlink:title=" ">
<polygon fill="white" stroke="#666666" points="774.5,-107 652.5,-107 652.5,-66 774.5,-66 774.5,-107"/>
<text text-anchor="start" x="660.5" y="-95" font-family="Helvetica,sans-Serif" font-size="10.00">include/rel/d/a/obj</text>
<text text-anchor="start" x="660.5" y="-84" font-family="Helvetica,sans-Serif" font-size="10.00">/d_a_obj_mgate/d_a_obj</text>
<text text-anchor="middle" x="713.5" y="-73" font-family="Helvetica,sans-Serif" font-size="10.00">_mgate.h</text>
</a>
</g>
</g>
<!-- Node6&#45;&gt;Node110 -->
<g id="edge42" class="edge">
<title>Node6&#45;&gt;Node110</title>
<path fill="none" stroke="#63b8ff" d="M2123.87,-156.72C1881.43,-155.35 1046.7,-147.75 783.5,-107 780.63,-106.56 777.72,-106.03 774.78,-105.45"/>
<polygon fill="#63b8ff" stroke="#63b8ff" points="2123.77,-160.21 2133.79,-156.77 2123.81,-153.21 2123.77,-160.21"/>
</g>
<!-- Node6&#45;&gt;Node146 -->
<g id="edge44" class="edge">
<title>Node6&#45;&gt;Node146</title>
<path fill="none" stroke="#63b8ff" d="M2256.74,-156.51C2534.91,-154.21 3609.64,-143.15 3946.5,-107 3967.87,-104.71 3991.43,-100.44 4010.71,-96.48"/>
<polygon fill="#63b8ff" stroke="#63b8ff" points="2257.12,-153 2247.15,-156.58 2257.18,-160 2257.12,-153"/>
</g>
<!-- Node147 -->
<g id="node39" class="node">
<title>Node147</title>
<g id="a_node39"><a xlink:href="d__bg__s__movebg__actor_8cpp.html" target="_top" xlink:title=" ">
<polygon fill="white" stroke="#666666" points="255.5,-101.5 129.5,-101.5 129.5,-71.5 255.5,-71.5 255.5,-101.5"/>
<text text-anchor="start" x="137.5" y="-89.5" font-family="Helvetica,sans-Serif" font-size="10.00">src/d/bg/d_bg_s_movebg</text>
<text text-anchor="middle" x="192.5" y="-78.5" font-family="Helvetica,sans-Serif" font-size="10.00">_actor.cpp</text>
</a>
</g>
</g>
<!-- Node6&#45;&gt;Node147 -->
<g id="edge45" class="edge">
<title>Node6&#45;&gt;Node147</title>
<path fill="none" stroke="#63b8ff" d="M2123.69,-157.4C1827.89,-158.84 634.58,-161.12 264.5,-107 256.3,-105.8 247.7,-103.98 239.41,-101.93"/>
<polygon fill="#63b8ff" stroke="#63b8ff" points="2123.56,-160.9 2133.54,-157.35 2123.53,-153.9 2123.56,-160.9"/>
</g>
<!-- Node6&#45;&gt;Node148 -->
<g id="edge46" class="edge">
<title>Node6&#45;&gt;Node148</title>
<path fill="none" stroke="#63b8ff" d="M2257.06,-156.74C2551.73,-155.36 3740.64,-147.35 4111.5,-107 4132.45,-104.72 4155.54,-100.4 4174.36,-96.4"/>
<polygon fill="#63b8ff" stroke="#63b8ff" points="2257.23,-153.24 2247.24,-156.78 2257.26,-160.24 2257.23,-153.24"/>
</g>
<!-- Node13&#45;&gt;Node14 -->
<g id="edge8" class="edge">
<title>Node13&#45;&gt;Node14</title>
<path fill="none" stroke="#63b8ff" d="M863.83,-67.19C870.97,-55.64 880.06,-40.95 886.67,-30.27"/>
<polygon fill="#63b8ff" stroke="#63b8ff" points="861.03,-65.07 858.74,-75.41 866.98,-68.75 861.03,-65.07"/>
</g>
<!-- Node27&#45;&gt;Node18 -->
<g id="edge11" class="edge">
<title>Node27&#45;&gt;Node18</title>
<path fill="none" stroke="#63b8ff" d="M3377.68,-72.79C3385.13,-70.31 3393.03,-67.89 3400.5,-66 3484.56,-44.74 3584.26,-30.14 3644.66,-22.43"/>
<polygon fill="#63b8ff" stroke="#63b8ff" points="3376.54,-69.48 3368.24,-76.06 3378.84,-76.1 3376.54,-69.48"/>
</g>
<!-- Node37&#45;&gt;Node38 -->
<g id="edge15" class="edge">
<title>Node37&#45;&gt;Node38</title>
<path fill="none" stroke="#63b8ff" d="M1057.5,-65.39C1057.5,-54.15 1057.5,-40.41 1057.5,-30.27"/>
<polygon fill="#63b8ff" stroke="#63b8ff" points="1054,-65.18 1057.5,-75.18 1061,-65.18 1054,-65.18"/>
</g>
<!-- Node44&#45;&gt;Node38 -->
<g id="edge18" class="edge">
<title>Node44&#45;&gt;Node38</title>
<path fill="none" stroke="#63b8ff" d="M1140.56,-65.34C1121.72,-54.15 1098.73,-40.49 1081.71,-30.38"/>
<polygon fill="#63b8ff" stroke="#63b8ff" points="1138.57,-68.23 1148.96,-70.33 1142.15,-62.21 1138.57,-68.23"/>
</g>
<!-- Node58&#45;&gt;Node7 -->
<g id="edge23" class="edge">
<title>Node58&#45;&gt;Node7</title>
<path fill="none" stroke="#63b8ff" d="M3168.59,-68.24C3165.2,-67.41 3161.81,-66.65 3158.5,-66 2987.81,-32.3 2781.56,-21.13 2684.35,-17.57"/>
<polygon fill="#63b8ff" stroke="#63b8ff" points="3167.4,-71.54 3177.96,-70.7 3169.18,-64.77 3167.4,-71.54"/>
</g>
<!-- Node58&#45;&gt;Node18 -->
<g id="edge24" class="edge">
<title>Node58&#45;&gt;Node18</title>
<path fill="none" stroke="#63b8ff" d="M3277.4,-68.1C3280.47,-67.34 3283.51,-66.63 3286.5,-66 3413.17,-39.25 3564.94,-25.45 3644.55,-19.57"/>
<polygon fill="#63b8ff" stroke="#63b8ff" points="3276.53,-64.71 3267.77,-70.66 3278.33,-71.47 3276.53,-64.71"/>
</g>
<!-- Node99&#45;&gt;Node18 -->
<g id="edge39" class="edge">
<title>Node99&#45;&gt;Node18</title>
<path fill="none" stroke="#63b8ff" d="M3526.81,-67.73C3572.46,-54.06 3633.66,-35.73 3669.6,-24.96"/>
<polygon fill="#63b8ff" stroke="#63b8ff" points="3525.88,-64.36 3517.3,-70.58 3527.89,-71.06 3525.88,-64.36"/>
</g>
<!-- Node185&#45;&gt;Node18 -->
<g id="edge50" class="edge">
<title>Node185&#45;&gt;Node18</title>
<path fill="none" stroke="#63b8ff" d="M4131.91,-131.12C4132.3,-110.45 4129.08,-82.32 4111.5,-66 4085.75,-42.1 3860.18,-25.6 3754.14,-19.09"/>
<polygon fill="#63b8ff" stroke="#63b8ff" points="4128.42,-130.9 4131.41,-141.07 4135.41,-131.26 4128.42,-130.9"/>
</g>
<!-- Node185&#45;&gt;Node148 -->
<g id="edge51" class="edge">
<title>Node185&#45;&gt;Node148</title>
<path fill="none" stroke="#63b8ff" d="M4155.5,-135.23C4171.27,-122.03 4190.52,-105.9 4202.13,-96.18"/>
<polygon fill="#63b8ff" stroke="#63b8ff" points="4153.28,-132.52 4147.86,-141.63 4157.77,-137.89 4153.28,-132.52"/>
</g>
<!-- Node187&#45;&gt;Node92 -->
<g id="edge55" class="edge">
<title>Node187&#45;&gt;Node92</title>
<path fill="none" stroke="#63b8ff" d="M413.09,-136.99C393.24,-125.77 368.92,-112.04 350.95,-101.88"/>
<polygon fill="#63b8ff" stroke="#63b8ff" points="411.27,-139.98 421.7,-141.85 414.71,-133.89 411.27,-139.98"/>
</g>
<!-- Node187&#45;&gt;Node107 -->
<g id="edge56" class="edge">
<title>Node187&#45;&gt;Node107</title>
<path fill="none" stroke="#63b8ff" d="M448.5,-131.36C448.5,-123.45 448.5,-114.87 448.5,-107.42"/>
<polygon fill="#63b8ff" stroke="#63b8ff" points="445,-131.09 448.5,-141.09 452,-131.09 445,-131.09"/>
</g>
<!-- Node187&#45;&gt;Node108 -->
<g id="edge57" class="edge">
<title>Node187&#45;&gt;Node108</title>
<path fill="none" stroke="#63b8ff" d="M485.02,-137.33C502.38,-127.97 523.11,-116.8 540.53,-107.42"/>
<polygon fill="#63b8ff" stroke="#63b8ff" points="483.7,-134.06 476.56,-141.88 487.03,-140.22 483.7,-134.06"/>
</g>
<!-- Node187&#45;&gt;Node110 -->
<g id="edge58" class="edge">
<title>Node187&#45;&gt;Node110</title>
<path fill="none" stroke="#63b8ff" d="M511.68,-141.15C549.89,-131.48 599.56,-118.75 643.5,-107 646.3,-106.25 649.17,-105.48 652.06,-104.69"/>
<polygon fill="#63b8ff" stroke="#63b8ff" points="511.02,-137.71 502.19,-143.55 512.74,-144.49 511.02,-137.71"/>
</g>
<!-- Node187&#45;&gt;Node147 -->
<g id="edge60" class="edge">
<title>Node187&#45;&gt;Node147</title>
<path fill="none" stroke="#63b8ff" d="M385.2,-139.81C342.32,-128.17 286.31,-112.97 245.73,-101.95"/>
<polygon fill="#63b8ff" stroke="#63b8ff" points="384.05,-143.13 394.62,-142.37 385.88,-136.37 384.05,-143.13"/>
</g>
<!-- Node188 -->
<g id="node44" class="node">
<title>Node188</title>
<g id="a_node44"><a xlink:href="d__a__obj__swhang_8h.html" target="_top" xlink:title=" ">
<polygon fill="white" stroke="#666666" points="111,-107 0,-107 0,-66 111,-66 111,-107"/>
<text text-anchor="start" x="8" y="-95" font-family="Helvetica,sans-Serif" font-size="10.00">include/rel/d/a/obj</text>
<text text-anchor="start" x="8" y="-84" font-family="Helvetica,sans-Serif" font-size="10.00">/d_a_obj_swhang/d_a</text>
<text text-anchor="middle" x="55.5" y="-73" font-family="Helvetica,sans-Serif" font-size="10.00">_obj_swhang.h</text>
</a>
</g>
</g>
<!-- Node187&#45;&gt;Node188 -->
<g id="edge59" class="edge">
<title>Node187&#45;&gt;Node188</title>
<path fill="none" stroke="#63b8ff" d="M384.99,-150C318.55,-142.05 211.47,-127.47 120.5,-107 117.51,-106.33 114.46,-105.59 111.39,-104.81"/>
<polygon fill="#63b8ff" stroke="#63b8ff" points="384.25,-153.43 394.6,-151.13 385.08,-146.48 384.25,-153.43"/>
</g>
<!-- Node190 -->
<g id="node46" class="node">
<title>Node190</title>
<g id="a_node46"><a xlink:href="d__bg__w__sv_8cpp.html" target="_top" xlink:title=" ">
<polygon fill="white" stroke="#666666" points="3658.5,-228 3536.5,-228 3536.5,-209 3658.5,-209 3658.5,-228"/>
<text text-anchor="middle" x="3597.5" y="-216" font-family="Helvetica,sans-Serif" font-size="10.00">src/d/bg/d_bg_w_sv.cpp</text>
</a>
</g>
</g>
<!-- Node189&#45;&gt;Node190 -->
<g id="edge62" class="edge">
<title>Node189&#45;&gt;Node190</title>
<path fill="none" stroke="#63b8ff" d="M3597.5,-252.35C3597.5,-244.1 3597.5,-234.97 3597.5,-228.44"/>
<polygon fill="#63b8ff" stroke="#63b8ff" points="3594,-252.23 3597.5,-262.23 3601,-252.23 3594,-252.23"/>
</g>
<!-- Node192 -->
<g id="node48" class="node">
<title>Node192</title>
<g id="a_node48"><a xlink:href="d__bg__w__kcol_8cpp.html" target="_top" xlink:title=" ">
<polygon fill="white" stroke="#666666" points="4366.5,-283 4236.5,-283 4236.5,-264 4366.5,-264 4366.5,-283"/>
<text text-anchor="middle" x="4301.5" y="-271" font-family="Helvetica,sans-Serif" font-size="10.00">src/d/bg/d_bg_w_kcol.cpp</text>
</a>
</g>
</g>
<!-- Node191&#45;&gt;Node192 -->
<g id="edge65" class="edge">
<title>Node191&#45;&gt;Node192</title>
<path fill="none" stroke="#63b8ff" d="M4232.42,-312.98C4250.53,-302.9 4271.57,-291.18 4285.62,-283.35"/>
<polygon fill="#63b8ff" stroke="#63b8ff" points="4230.81,-309.88 4223.78,-317.8 4234.22,-315.99 4230.81,-309.88"/>
</g>
</g>
</svg>
