<?xml version="1.0" encoding="UTF-8" standalone="no"?>
<!DOCTYPE svg PUBLIC "-//W3C//DTD SVG 1.1//EN"
 "http://www.w3.org/Graphics/SVG/1.1/DTD/svg11.dtd">
<!-- Generated by graphviz version 7.0.5 (20221223.1930)
 -->
<!-- Title: include/SSystem/SComponent/c_bg_s_gnd_chk.h Pages: 1 -->
<svg width="3980pt" height="379pt"
 viewBox="0.00 0.00 3980.00 379.00" xmlns="http://www.w3.org/2000/svg" xmlns:xlink="http://www.w3.org/1999/xlink">
<g id="graph0" class="graph" transform="scale(1 1) rotate(0) translate(4 375)">
<title>include/SSystem/SComponent/c_bg_s_gnd_chk.h</title>
<!-- Node1 -->
<g id="node1" class="node">
<title>Node1</title>
<g id="a_node1"><a xlink:title=" ">
<polygon fill="#999999" stroke="#666666" points="3174.5,-371 3025.5,-371 3025.5,-341 3174.5,-341 3174.5,-371"/>
<text text-anchor="start" x="3033.5" y="-359" font-family="Helvetica,sans-Serif" font-size="10.00">include/SSystem/SComponent</text>
<text text-anchor="middle" x="3100" y="-348" font-family="Helvetica,sans-Serif" font-size="10.00">/c_bg_s_gnd_chk.h</text>
</a>
</g>
</g>
<!-- Node2 -->
<g id="node2" class="node">
<title>Node2</title>
<g id="a_node2"><a xlink:href="d__bg__s__gnd__chk_8h.html" target="_top" xlink:title=" ">
<polygon fill="white" stroke="#666666" points="3032,-305 2928,-305 2928,-275 3032,-275 3032,-305"/>
<text text-anchor="start" x="2936" y="-293" font-family="Helvetica,sans-Serif" font-size="10.00">include/d/bg/d_bg_s</text>
<text text-anchor="middle" x="2980" y="-282" font-family="Helvetica,sans-Serif" font-size="10.00">_gnd_chk.h</text>
</a>
</g>
</g>
<!-- Node1&#45;&gt;Node2 -->
<g id="edge1" class="edge">
<title>Node1&#45;&gt;Node2</title>
<path fill="none" stroke="#63b8ff" d="M3063.1,-335.32C3044.93,-325.63 3023.42,-314.16 3006.84,-305.31"/>
<polygon fill="#63b8ff" stroke="#63b8ff" points="3061.26,-338.31 3071.73,-339.92 3064.56,-332.13 3061.26,-338.31"/>
</g>
<!-- Node268 -->
<g id="node49" class="node">
<title>Node268</title>
<g id="a_node49"><a xlink:href="d__a__myna_8h.html" target="_top" xlink:title=" ">
<polygon fill="white" stroke="#666666" points="3150,-305 3050,-305 3050,-275 3150,-275 3150,-305"/>
<text text-anchor="start" x="3058" y="-293" font-family="Helvetica,sans-Serif" font-size="10.00">include/rel/d/a/d_a</text>
<text text-anchor="middle" x="3100" y="-282" font-family="Helvetica,sans-Serif" font-size="10.00">_myna/d_a_myna.h</text>
</a>
</g>
</g>
<!-- Node1&#45;&gt;Node268 -->
<g id="edge57" class="edge">
<title>Node1&#45;&gt;Node268</title>
<path fill="none" stroke="#63b8ff" d="M3100,-329.39C3100,-321.13 3100,-312.28 3100,-305.16"/>
<polygon fill="#63b8ff" stroke="#63b8ff" points="3096.5,-329.28 3100,-339.28 3103.5,-329.28 3096.5,-329.28"/>
</g>
<!-- Node269 -->
<g id="node50" class="node">
<title>Node269</title>
<g id="a_node50"><a xlink:href="c__bg__s__gnd__chk_8cpp.html" target="_top" xlink:title=" ">
<polygon fill="white" stroke="#666666" points="3302,-305 3168,-305 3168,-275 3302,-275 3302,-305"/>
<text text-anchor="start" x="3176" y="-293" font-family="Helvetica,sans-Serif" font-size="10.00">libs/SSystem/SComponent</text>
<text text-anchor="middle" x="3235" y="-282" font-family="Helvetica,sans-Serif" font-size="10.00">/c_bg_s_gnd_chk.cpp</text>
</a>
</g>
</g>
<!-- Node1&#45;&gt;Node269 -->
<g id="edge58" class="edge">
<title>Node1&#45;&gt;Node269</title>
<path fill="none" stroke="#63b8ff" d="M3140.66,-335.72C3161.28,-325.95 3185.89,-314.28 3204.8,-305.31"/>
<polygon fill="#63b8ff" stroke="#63b8ff" points="3139.2,-332.54 3131.66,-339.99 3142.2,-338.87 3139.2,-332.54"/>
</g>
<!-- Node3 -->
<g id="node3" class="node">
<title>Node3</title>
<g id="a_node3"><a xlink:href="d__bg__s__acch_8h.html" target="_top" xlink:title=" ">
<polygon fill="white" stroke="#666666" points="1937,-239 1833,-239 1833,-209 1937,-209 1937,-239"/>
<text text-anchor="start" x="1841" y="-227" font-family="Helvetica,sans-Serif" font-size="10.00">include/d/bg/d_bg_s</text>
<text text-anchor="middle" x="1885" y="-216" font-family="Helvetica,sans-Serif" font-size="10.00">_acch.h</text>
</a>
</g>
</g>
<!-- Node2&#45;&gt;Node3 -->
<g id="edge2" class="edge">
<title>Node2&#45;&gt;Node3</title>
<path fill="none" stroke="#63b8ff" d="M2916.23,-285.27C2718.55,-273.72 2118.5,-238.65 1937.34,-228.06"/>
<polygon fill="#63b8ff" stroke="#63b8ff" points="2915.86,-288.76 2926.04,-285.85 2916.27,-281.77 2915.86,-288.76"/>
</g>
<!-- Node256 -->
<g id="node37" class="node">
<title>Node256</title>
<g id="a_node37"><a xlink:href="d__a__obj__bed_8h.html" target="_top" xlink:title=" ">
<polygon fill="white" stroke="#666666" points="3031,-167.5 2891,-167.5 2891,-137.5 3031,-137.5 3031,-167.5"/>
<text text-anchor="start" x="2899" y="-155.5" font-family="Helvetica,sans-Serif" font-size="10.00">include/rel/d/a/obj</text>
<text text-anchor="middle" x="2961" y="-144.5" font-family="Helvetica,sans-Serif" font-size="10.00">/d_a_obj_bed/d_a_obj_bed.h</text>
</a>
</g>
</g>
<!-- Node2&#45;&gt;Node256 -->
<g id="edge55" class="edge">
<title>Node2&#45;&gt;Node256</title>
<path fill="none" stroke="#63b8ff" d="M2976.41,-263.41C2972.45,-235.17 2966.22,-190.71 2963.03,-167.96"/>
<polygon fill="#63b8ff" stroke="#63b8ff" points="2972.94,-263.84 2977.79,-273.26 2979.87,-262.87 2972.94,-263.84"/>
</g>
<!-- Node262 -->
<g id="node46" class="node">
<title>Node262</title>
<g id="a_node46"><a xlink:href="d__camera_8h.html" target="_top" xlink:title=" ">
<polygon fill="white" stroke="#666666" points="3569.5,-162 3460.5,-162 3460.5,-143 3569.5,-143 3569.5,-162"/>
<text text-anchor="middle" x="3515" y="-150" font-family="Helvetica,sans-Serif" font-size="10.00">include/d/d_camera.h</text>
</a>
</g>
</g>
<!-- Node2&#45;&gt;Node262 -->
<g id="edge51" class="edge">
<title>Node2&#45;&gt;Node262</title>
<path fill="none" stroke="#63b8ff" d="M2985.47,-263.66C2990.81,-245.39 3000.87,-221.79 3019,-209 3088.92,-159.68 3346.17,-153.43 3460.09,-153.14"/>
<polygon fill="#63b8ff" stroke="#63b8ff" points="2982.1,-262.7 2982.99,-273.26 2988.88,-264.45 2982.1,-262.7"/>
</g>
<!-- Node267 -->
<g id="node48" class="node">
<title>Node267</title>
<g id="a_node48"><a xlink:href="d__bg__s__gnd__chk_8cpp.html" target="_top" xlink:title=" ">
<polygon fill="white" stroke="#666666" points="3134.5,-239 3027.5,-239 3027.5,-209 3134.5,-209 3134.5,-239"/>
<text text-anchor="start" x="3035.5" y="-227" font-family="Helvetica,sans-Serif" font-size="10.00">src/d/bg/d_bg_s_gnd</text>
<text text-anchor="middle" x="3081" y="-216" font-family="Helvetica,sans-Serif" font-size="10.00">_chk.cpp</text>
</a>
</g>
</g>
<!-- Node2&#45;&gt;Node267 -->
<g id="edge56" class="edge">
<title>Node2&#45;&gt;Node267</title>
<path fill="none" stroke="#63b8ff" d="M3012.13,-268.64C3027.19,-259.09 3044.78,-247.95 3058.41,-239.31"/>
<polygon fill="#63b8ff" stroke="#63b8ff" points="3010.52,-265.52 3003.94,-273.83 3014.27,-271.43 3010.52,-265.52"/>
</g>
<!-- Node4 -->
<g id="node4" class="node">
<title>Node4</title>
<g id="a_node4"><a xlink:href="d__a__alink_8h.html" target="_top" xlink:title=" ">
<polygon fill="white" stroke="#666666" points="2873,-162 2757,-162 2757,-143 2873,-143 2873,-162"/>
<text text-anchor="middle" x="2815" y="-150" font-family="Helvetica,sans-Serif" font-size="10.00">include/d/a/d_a_alink.h</text>
</a>
</g>
</g>
<!-- Node3&#45;&gt;Node4 -->
<g id="edge3" class="edge">
<title>Node3&#45;&gt;Node4</title>
<path fill="none" stroke="#63b8ff" d="M1948.66,-221.19C2085.46,-216.83 2417.45,-203.75 2694,-173 2717.9,-170.34 2744.27,-166.23 2766.28,-162.47"/>
<polygon fill="#63b8ff" stroke="#63b8ff" points="1948.61,-217.69 1938.72,-221.5 1948.83,-224.68 1948.61,-217.69"/>
</g>
<!-- Node15 -->
<g id="node15" class="node">
<title>Node15</title>
<g id="a_node15"><a xlink:href="d__a__itembase_8h.html" target="_top" xlink:title=" ">
<polygon fill="white" stroke="#666666" points="542.5,-162 407.5,-162 407.5,-143 542.5,-143 542.5,-162"/>
<text text-anchor="middle" x="475" y="-150" font-family="Helvetica,sans-Serif" font-size="10.00">include/d/a/d_a_itembase.h</text>
</a>
</g>
</g>
<!-- Node3&#45;&gt;Node15 -->
<g id="edge14" class="edge">
<title>Node3&#45;&gt;Node15</title>
<path fill="none" stroke="#63b8ff" d="M1821.14,-221.6C1640.98,-217.4 1113.32,-203.23 676,-173 631.58,-169.93 581.77,-165.11 542.84,-161.02"/>
<polygon fill="#63b8ff" stroke="#63b8ff" points="1820.91,-225.1 1830.99,-221.83 1821.08,-218.1 1820.91,-225.1"/>
</g>
<!-- Node249 -->
<g id="node22" class="node">
<title>Node249</title>
<g id="a_node22"><a xlink:href="d__bomb_8h.html" target="_top" xlink:title=" ">
<polygon fill="white" stroke="#666666" points="786.5,-162 685.5,-162 685.5,-143 786.5,-143 786.5,-162"/>
<text text-anchor="middle" x="736" y="-150" font-family="Helvetica,sans-Serif" font-size="10.00">include/d/d_bomb.h</text>
</a>
</g>
</g>
<!-- Node3&#45;&gt;Node249 -->
<g id="edge22" class="edge">
<title>Node3&#45;&gt;Node249</title>
<path fill="none" stroke="#63b8ff" d="M1821.3,-222.31C1619.32,-219.79 994.75,-209.18 796,-173 783.39,-170.71 769.78,-166.43 758.71,-162.47"/>
<polygon fill="#63b8ff" stroke="#63b8ff" points="1821.03,-225.81 1831.07,-222.43 1821.11,-218.81 1821.03,-225.81"/>
</g>
<!-- Node41 -->
<g id="node25" class="node">
<title>Node41</title>
<g id="a_node25"><a xlink:href="d__a__b__gnd_8h.html" target="_top" xlink:title=" ">
<polygon fill="white" stroke="#666666" points="921,-167.5 805,-167.5 805,-137.5 921,-137.5 921,-167.5"/>
<text text-anchor="start" x="813" y="-155.5" font-family="Helvetica,sans-Serif" font-size="10.00">include/rel/d/a/b/d</text>
<text text-anchor="middle" x="863" y="-144.5" font-family="Helvetica,sans-Serif" font-size="10.00">_a_b_gnd/d_a_b_gnd.h</text>
</a>
</g>
</g>
<!-- Node3&#45;&gt;Node41 -->
<g id="edge25" class="edge">
<title>Node3&#45;&gt;Node41</title>
<path fill="none" stroke="#63b8ff" d="M1821.19,-221.58C1636.25,-217.16 1102.18,-202.16 930,-173 922.59,-171.75 914.85,-169.96 907.36,-167.96"/>
<polygon fill="#63b8ff" stroke="#63b8ff" points="1821,-225.08 1831.08,-221.81 1821.17,-218.08 1821,-225.08"/>
</g>
<!-- Node86 -->
<g id="node26" class="node">
<title>Node86</title>
<g id="a_node26"><a xlink:href="d__a__boomerang_8h.html" target="_top" xlink:title=" ">
<polygon fill="white" stroke="#666666" points="2685.5,-167.5 2536.5,-167.5 2536.5,-137.5 2685.5,-137.5 2685.5,-167.5"/>
<text text-anchor="start" x="2544.5" y="-155.5" font-family="Helvetica,sans-Serif" font-size="10.00">include/rel/d/a/d_a</text>
<text text-anchor="middle" x="2611" y="-144.5" font-family="Helvetica,sans-Serif" font-size="10.00">_boomerang/d_a_boomerang.h</text>
</a>
</g>
</g>
<!-- Node3&#45;&gt;Node86 -->
<g id="edge26" class="edge">
<title>Node3&#45;&gt;Node86</title>
<path fill="none" stroke="#63b8ff" d="M1948.75,-221.21C2064.54,-217.25 2316.83,-205.39 2527,-173 2535.73,-171.65 2544.9,-169.89 2553.84,-167.98"/>
<polygon fill="#63b8ff" stroke="#63b8ff" points="1948.71,-217.71 1938.83,-221.54 1948.94,-224.7 1948.71,-217.71"/>
</g>
<!-- Node251 -->
<g id="node27" class="node">
<title>Node251</title>
<g id="a_node27"><a xlink:href="d__a__canoe_8h.html" target="_top" xlink:title=" ">
<polygon fill="white" stroke="#666666" points="1045,-167.5 939,-167.5 939,-137.5 1045,-137.5 1045,-167.5"/>
<text text-anchor="start" x="947" y="-155.5" font-family="Helvetica,sans-Serif" font-size="10.00">include/rel/d/a/d_a</text>
<text text-anchor="middle" x="992" y="-144.5" font-family="Helvetica,sans-Serif" font-size="10.00">_canoe/d_a_canoe.h</text>
</a>
</g>
</g>
<!-- Node3&#45;&gt;Node251 -->
<g id="edge28" class="edge">
<title>Node3&#45;&gt;Node251</title>
<path fill="none" stroke="#63b8ff" d="M1821.22,-221.18C1653.16,-216.06 1201.03,-200.12 1054,-173 1047.12,-171.73 1039.94,-169.93 1033,-167.94"/>
<polygon fill="#63b8ff" stroke="#63b8ff" points="1820.97,-224.67 1831.07,-221.48 1821.18,-217.68 1820.97,-224.67"/>
</g>
<!-- Node88 -->
<g id="node28" class="node">
<title>Node88</title>
<g id="a_node28"><a xlink:href="d__a__cstatue_8h.html" target="_top" xlink:title=" ">
<polygon fill="white" stroke="#666666" points="1181,-167.5 1063,-167.5 1063,-137.5 1181,-137.5 1181,-167.5"/>
<text text-anchor="start" x="1071" y="-155.5" font-family="Helvetica,sans-Serif" font-size="10.00">include/rel/d/a/d_a</text>
<text text-anchor="middle" x="1122" y="-144.5" font-family="Helvetica,sans-Serif" font-size="10.00">_cstatue/d_a_cstatue.h</text>
</a>
</g>
</g>
<!-- Node3&#45;&gt;Node88 -->
<g id="edge29" class="edge">
<title>Node3&#45;&gt;Node88</title>
<path fill="none" stroke="#63b8ff" d="M1821.26,-222.81C1698.24,-221.49 1419.91,-213.78 1190,-173 1182.62,-171.69 1174.9,-169.9 1167.42,-167.93"/>
<polygon fill="#63b8ff" stroke="#63b8ff" points="1821.12,-226.31 1831.16,-222.91 1821.19,-219.31 1821.12,-226.31"/>
</g>
<!-- Node252 -->
<g id="node29" class="node">
<title>Node252</title>
<g id="a_node29"><a xlink:href="d__a__horse_8h.html" target="_top" xlink:title=" ">
<polygon fill="white" stroke="#666666" points="2403.5,-167.5 2302.5,-167.5 2302.5,-137.5 2403.5,-137.5 2403.5,-167.5"/>
<text text-anchor="start" x="2310.5" y="-155.5" font-family="Helvetica,sans-Serif" font-size="10.00">include/rel/d/a/d_a</text>
<text text-anchor="middle" x="2353" y="-144.5" font-family="Helvetica,sans-Serif" font-size="10.00">_horse/d_a_horse.h</text>
</a>
</g>
</g>
<!-- Node3&#45;&gt;Node252 -->
<g id="edge30" class="edge">
<title>Node3&#45;&gt;Node252</title>
<path fill="none" stroke="#63b8ff" d="M1948.86,-218.99C2029.72,-213.04 2172.97,-199.6 2293,-173 2299.2,-171.63 2305.67,-169.87 2311.97,-167.98"/>
<polygon fill="#63b8ff" stroke="#63b8ff" points="1948.62,-215.5 1938.9,-219.7 1949.12,-222.48 1948.62,-215.5"/>
</g>
<!-- Node253 -->
<g id="node34" class="node">
<title>Node253</title>
<g id="a_node34"><a xlink:href="d__a__mg__fshop_8h.html" target="_top" xlink:title=" ">
<polygon fill="white" stroke="#666666" points="1338.5,-167.5 1199.5,-167.5 1199.5,-137.5 1338.5,-137.5 1338.5,-167.5"/>
<text text-anchor="start" x="1207.5" y="-155.5" font-family="Helvetica,sans-Serif" font-size="10.00">include/rel/d/a/d_a</text>
<text text-anchor="middle" x="1269" y="-144.5" font-family="Helvetica,sans-Serif" font-size="10.00">_mg_fshop/d_a_mg_fshop.h</text>
</a>
</g>
</g>
<!-- Node3&#45;&gt;Node253 -->
<g id="edge37" class="edge">
<title>Node3&#45;&gt;Node253</title>
<path fill="none" stroke="#63b8ff" d="M1821.63,-220.16C1720.78,-214.97 1517.79,-201.7 1348,-173 1339.78,-171.61 1331.16,-169.83 1322.75,-167.9"/>
<polygon fill="#63b8ff" stroke="#63b8ff" points="1821.15,-223.65 1831.31,-220.65 1821.5,-216.65 1821.15,-223.65"/>
</g>
<!-- Node254 -->
<g id="node35" class="node">
<title>Node254</title>
<g id="a_node35"><a xlink:href="d__a__tbox_8h.html" target="_top" xlink:title=" ">
<polygon fill="white" stroke="#666666" points="2518,-167.5 2422,-167.5 2422,-137.5 2518,-137.5 2518,-167.5"/>
<text text-anchor="start" x="2430" y="-155.5" font-family="Helvetica,sans-Serif" font-size="10.00">include/rel/d/a/d_a</text>
<text text-anchor="middle" x="2470" y="-144.5" font-family="Helvetica,sans-Serif" font-size="10.00">_tbox/d_a_tbox.h</text>
</a>
</g>
</g>
<!-- Node3&#45;&gt;Node254 -->
<g id="edge38" class="edge">
<title>Node3&#45;&gt;Node254</title>
<path fill="none" stroke="#63b8ff" d="M1948.59,-221.67C2048.35,-218.52 2247.27,-208.02 2412,-173 2418.23,-171.67 2424.73,-169.9 2431.03,-167.96"/>
<polygon fill="#63b8ff" stroke="#63b8ff" points="1948.62,-218.16 1938.73,-221.96 1948.83,-225.16 1948.62,-218.16"/>
</g>
<!-- Node255 -->
<g id="node36" class="node">
<title>Node255</title>
<g id="a_node36"><a xlink:href="d__a__e__sm2_8h.html" target="_top" xlink:title=" ">
<polygon fill="white" stroke="#666666" points="1479,-167.5 1357,-167.5 1357,-137.5 1479,-137.5 1479,-167.5"/>
<text text-anchor="start" x="1365" y="-155.5" font-family="Helvetica,sans-Serif" font-size="10.00">include/rel/d/a/e/d</text>
<text text-anchor="middle" x="1418" y="-144.5" font-family="Helvetica,sans-Serif" font-size="10.00">_a_e_sm2/d_a_e_sm2.h</text>
</a>
</g>
</g>
<!-- Node3&#45;&gt;Node255 -->
<g id="edge40" class="edge">
<title>Node3&#45;&gt;Node255</title>
<path fill="none" stroke="#63b8ff" d="M1821.4,-217.88C1742.61,-210.88 1604.52,-196.44 1488,-173 1480.95,-171.58 1473.57,-169.83 1466.35,-167.96"/>
<polygon fill="#63b8ff" stroke="#63b8ff" points="1820.81,-221.34 1831.08,-218.73 1821.42,-214.37 1820.81,-221.34"/>
</g>
<!-- Node3&#45;&gt;Node256 -->
<g id="edge41" class="edge">
<title>Node3&#45;&gt;Node256</title>
<path fill="none" stroke="#63b8ff" d="M1948.94,-221.4C2139.38,-216.37 2700.83,-199.65 2882,-173 2890.67,-171.73 2899.77,-169.92 2908.59,-167.93"/>
<polygon fill="#63b8ff" stroke="#63b8ff" points="1948.89,-217.9 1938.98,-221.66 1949.07,-224.9 1948.89,-217.9"/>
</g>
<!-- Node113 -->
<g id="node38" class="node">
<title>Node113</title>
<g id="a_node38"><a xlink:href="d__a__obj__carry_8h.html" target="_top" xlink:title=" ">
<polygon fill="#fff0f0" stroke="red" points="3862,-173 3746,-173 3746,-132 3862,-132 3862,-173"/>
<text text-anchor="start" x="3754" y="-161" font-family="Helvetica,sans-Serif" font-size="10.00">include/rel/d/a/obj</text>
<text text-anchor="start" x="3754" y="-150" font-family="Helvetica,sans-Serif" font-size="10.00">/d_a_obj_carry/d_a_obj</text>
<text text-anchor="middle" x="3804" y="-139" font-family="Helvetica,sans-Serif" font-size="10.00">_carry.h</text>
</a>
</g>
</g>
<!-- Node3&#45;&gt;Node113 -->
<g id="edge42" class="edge">
<title>Node3&#45;&gt;Node113</title>
<path fill="none" stroke="#63b8ff" d="M1948.88,-222.42C2172.93,-220.13 2943.79,-209.87 3579,-173 3635.76,-169.71 3700.4,-163.89 3745.79,-159.46"/>
<polygon fill="#63b8ff" stroke="#63b8ff" points="1948.86,-218.92 1938.9,-222.53 1948.93,-225.92 1948.86,-218.92"/>
</g>
<!-- Node93 -->
<g id="node40" class="node">
<title>Node93</title>
<g id="a_node40"><a xlink:href="d__a__obj__grave__stone_8h.html" target="_top" xlink:title=" ">
<polygon fill="white" stroke="#666666" points="1616.5,-173 1497.5,-173 1497.5,-132 1616.5,-132 1616.5,-173"/>
<text text-anchor="start" x="1505.5" y="-161" font-family="Helvetica,sans-Serif" font-size="10.00">include/rel/d/a/obj</text>
<text text-anchor="start" x="1505.5" y="-150" font-family="Helvetica,sans-Serif" font-size="10.00">/d_a_obj_grave_stone</text>
<text text-anchor="middle" x="1557" y="-139" font-family="Helvetica,sans-Serif" font-size="10.00">/d_a_obj_grave_stone.h</text>
</a>
</g>
</g>
<!-- Node3&#45;&gt;Node93 -->
<g id="edge45" class="edge">
<title>Node3&#45;&gt;Node93</title>
<path fill="none" stroke="#63b8ff" d="M1821.45,-212.28C1768.82,-203.03 1692.21,-188.72 1626,-173 1622.97,-172.28 1619.88,-171.52 1616.76,-170.72"/>
<polygon fill="#63b8ff" stroke="#63b8ff" points="1820.69,-215.7 1831.14,-213.97 1821.89,-208.81 1820.69,-215.7"/>
</g>
<!-- Node257 -->
<g id="node41" class="node">
<title>Node257</title>
<g id="a_node41"><a xlink:href="d__a__obj__ss__item_8h.html" target="_top" xlink:title=" ">
<polygon fill="white" stroke="#666666" points="1747,-173 1635,-173 1635,-132 1747,-132 1747,-173"/>
<text text-anchor="start" x="1643" y="-161" font-family="Helvetica,sans-Serif" font-size="10.00">include/rel/d/a/obj</text>
<text text-anchor="start" x="1643" y="-150" font-family="Helvetica,sans-Serif" font-size="10.00">/d_a_obj_ss_item/d_a</text>
<text text-anchor="middle" x="1691" y="-139" font-family="Helvetica,sans-Serif" font-size="10.00">_obj_ss_item.h</text>
</a>
</g>
</g>
<!-- Node3&#45;&gt;Node257 -->
<g id="edge46" class="edge">
<title>Node3&#45;&gt;Node257</title>
<path fill="none" stroke="#63b8ff" d="M1834.07,-204.75C1807.18,-195.12 1774.14,-183.29 1746.59,-173.42"/>
<polygon fill="#63b8ff" stroke="#63b8ff" points="1832.78,-208.01 1843.38,-208.09 1835.14,-201.42 1832.78,-208.01"/>
</g>
<!-- Node258 -->
<g id="node42" class="node">
<title>Node258</title>
<g id="a_node42"><a xlink:href="d__a__obj__suisya_8h.html" target="_top" xlink:title=" ">
<polygon fill="white" stroke="#666666" points="1870.5,-173 1765.5,-173 1765.5,-132 1870.5,-132 1870.5,-173"/>
<text text-anchor="start" x="1773.5" y="-161" font-family="Helvetica,sans-Serif" font-size="10.00">include/rel/d/a/obj</text>
<text text-anchor="start" x="1773.5" y="-150" font-family="Helvetica,sans-Serif" font-size="10.00">/d_a_obj_suisya/d_a</text>
<text text-anchor="middle" x="1818" y="-139" font-family="Helvetica,sans-Serif" font-size="10.00">_obj_suisya.h</text>
</a>
</g>
</g>
<!-- Node3&#45;&gt;Node258 -->
<g id="edge47" class="edge">
<title>Node3&#45;&gt;Node258</title>
<path fill="none" stroke="#63b8ff" d="M1863.2,-200.39C1854.82,-191.69 1845.32,-181.84 1837.2,-173.42"/>
<polygon fill="#63b8ff" stroke="#63b8ff" points="1860.61,-202.74 1870.07,-207.51 1865.65,-197.88 1860.61,-202.74"/>
</g>
<!-- Node259 -->
<g id="node43" class="node">
<title>Node259</title>
<g id="a_node43"><a xlink:href="d__a__obj__zrTuraraRock_8h.html" target="_top" xlink:title=" ">
<polygon fill="white" stroke="#666666" points="2013,-173 1889,-173 1889,-132 2013,-132 2013,-173"/>
<text text-anchor="start" x="1897" y="-161" font-family="Helvetica,sans-Serif" font-size="10.00">include/rel/d/a/obj</text>
<text text-anchor="start" x="1897" y="-150" font-family="Helvetica,sans-Serif" font-size="10.00">/d_a_obj_zrTuraraRock</text>
<text text-anchor="middle" x="1951" y="-139" font-family="Helvetica,sans-Serif" font-size="10.00">/d_a_obj_zrTuraraRock.h</text>
</a>
</g>
</g>
<!-- Node3&#45;&gt;Node259 -->
<g id="edge48" class="edge">
<title>Node3&#45;&gt;Node259</title>
<path fill="none" stroke="#63b8ff" d="M1906.47,-200.39C1914.73,-191.69 1924.09,-181.84 1932.09,-173.42"/>
<polygon fill="#63b8ff" stroke="#63b8ff" points="1904.07,-197.84 1899.72,-207.5 1909.14,-202.66 1904.07,-197.84"/>
</g>
<!-- Node260 -->
<g id="node44" class="node">
<title>Node260</title>
<g id="a_node44"><a xlink:href="d__a__obj__zra__rock_8h.html" target="_top" xlink:title=" ">
<polygon fill="white" stroke="#666666" points="2135,-173 2031,-173 2031,-132 2135,-132 2135,-173"/>
<text text-anchor="start" x="2039" y="-161" font-family="Helvetica,sans-Serif" font-size="10.00">include/rel/d/a/obj</text>
<text text-anchor="start" x="2039" y="-150" font-family="Helvetica,sans-Serif" font-size="10.00">/d_a_obj_zra_rock/d</text>
<text text-anchor="middle" x="2083" y="-139" font-family="Helvetica,sans-Serif" font-size="10.00">_a_obj_zra_rock.h</text>
</a>
</g>
</g>
<!-- Node3&#45;&gt;Node260 -->
<g id="edge49" class="edge">
<title>Node3&#45;&gt;Node260</title>
<path fill="none" stroke="#63b8ff" d="M1936.75,-204.84C1965.69,-194.68 2001.68,-182.04 2030.71,-171.85"/>
<polygon fill="#63b8ff" stroke="#63b8ff" points="1935.73,-201.48 1927.45,-208.1 1938.05,-208.09 1935.73,-201.48"/>
</g>
<!-- Node261 -->
<g id="node45" class="node">
<title>Node261</title>
<g id="a_node45"><a xlink:href="d__bg__s__acch_8cpp.html" target="_top" xlink:title=" ">
<polygon fill="white" stroke="#666666" points="2284.5,-162 2153.5,-162 2153.5,-143 2284.5,-143 2284.5,-162"/>
<text text-anchor="middle" x="2219" y="-150" font-family="Helvetica,sans-Serif" font-size="10.00">src/d/bg/d_bg_s_acch.cpp</text>
</a>
</g>
</g>
<!-- Node3&#45;&gt;Node261 -->
<g id="edge50" class="edge">
<title>Node3&#45;&gt;Node261</title>
<path fill="none" stroke="#63b8ff" d="M1948.46,-211.91C2001.04,-202.45 2077.63,-188.02 2144,-173 2157.91,-169.85 2173.16,-165.97 2186.25,-162.5"/>
<polygon fill="#63b8ff" stroke="#63b8ff" points="1948.01,-208.44 1938.78,-213.65 1949.24,-215.33 1948.01,-208.44"/>
</g>
<!-- Node5 -->
<g id="node5" class="node">
<title>Node5</title>
<g id="a_node5"><a xlink:href="d__a__alink_8cpp.html" target="_top" xlink:title=" ">
<polygon fill="white" stroke="#666666" points="2507.5,-19 2398.5,-19 2398.5,0 2507.5,0 2507.5,-19"/>
<text text-anchor="middle" x="2453" y="-7" font-family="Helvetica,sans-Serif" font-size="10.00">src/d/a/d_a_alink.cpp</text>
</a>
</g>
</g>
<!-- Node4&#45;&gt;Node5 -->
<g id="edge4" class="edge">
<title>Node4&#45;&gt;Node5</title>
<path fill="none" stroke="#63b8ff" d="M2773.55,-138.95C2745.79,-129.49 2709.14,-114.92 2680,-96 2657.85,-81.62 2660.18,-67.65 2637,-55 2596.75,-33.04 2545.73,-21.8 2507.63,-16.12"/>
<polygon fill="#63b8ff" stroke="#63b8ff" points="2772.44,-142.27 2783.04,-142.09 2774.64,-135.62 2772.44,-142.27"/>
</g>
<!-- Node6 -->
<g id="node6" class="node">
<title>Node6</title>
<g id="a_node6"><a xlink:href="d__a__player_8cpp.html" target="_top" xlink:title=" ">
<polygon fill="white" stroke="#666666" points="2595,-85 2481,-85 2481,-66 2595,-66 2595,-85"/>
<text text-anchor="middle" x="2538" y="-73" font-family="Helvetica,sans-Serif" font-size="10.00">src/d/a/d_a_player.cpp</text>
</a>
</g>
</g>
<!-- Node4&#45;&gt;Node6 -->
<g id="edge5" class="edge">
<title>Node4&#45;&gt;Node6</title>
<path fill="none" stroke="#63b8ff" d="M2770.56,-139.59C2728.83,-128.4 2664.66,-111.14 2609,-96 2596.42,-92.58 2582.59,-88.79 2570.51,-85.46"/>
<polygon fill="#63b8ff" stroke="#63b8ff" points="2769.42,-142.91 2779.98,-142.12 2771.23,-136.15 2769.42,-142.91"/>
</g>
<!-- Node7 -->
<g id="node7" class="node">
<title>Node7</title>
<g id="a_node7"><a xlink:href="d__com__inf__game_8cpp.html" target="_top" xlink:title=" ">
<polygon fill="white" stroke="#666666" points="2797,-90.5 2689,-90.5 2689,-60.5 2797,-60.5 2797,-90.5"/>
<text text-anchor="start" x="2697" y="-78.5" font-family="Helvetica,sans-Serif" font-size="10.00">src/d/com/d_com_inf</text>
<text text-anchor="middle" x="2743" y="-67.5" font-family="Helvetica,sans-Serif" font-size="10.00">_game.cpp</text>
</a>
</g>
</g>
<!-- Node4&#45;&gt;Node7 -->
<g id="edge6" class="edge">
<title>Node4&#45;&gt;Node7</title>
<path fill="none" stroke="#63b8ff" d="M2798.56,-134.37C2785.9,-121.19 2768.61,-103.17 2756.69,-90.77"/>
<polygon fill="#63b8ff" stroke="#63b8ff" points="2795.96,-136.72 2805.41,-141.51 2801.01,-131.87 2795.96,-136.72"/>
</g>
<!-- Node8 -->
<g id="node8" class="node">
<title>Node8</title>
<g id="a_node8"><a xlink:href="d__camera_8cpp.html" target="_top" xlink:title=" ">
<polygon fill="white" stroke="#666666" points="3630,-85 3528,-85 3528,-66 3630,-66 3630,-85"/>
<text text-anchor="middle" x="3579" y="-73" font-family="Helvetica,sans-Serif" font-size="10.00">src/d/d_camera.cpp</text>
</a>
</g>
</g>
<!-- Node4&#45;&gt;Node8 -->
<g id="edge7" class="edge">
<title>Node4&#45;&gt;Node8</title>
<path fill="none" stroke="#63b8ff" d="M2851.73,-139.19C2861.47,-136.37 2872.04,-133.71 2882,-132 3161.48,-84.07 3240.29,-148.26 3519,-96 3531.6,-93.64 3545.21,-89.36 3556.28,-85.42"/>
<polygon fill="#63b8ff" stroke="#63b8ff" points="2850.77,-135.82 2842.22,-142.07 2852.8,-142.52 2850.77,-135.82"/>
</g>
<!-- Node9 -->
<g id="node9" class="node">
<title>Node9</title>
<g id="a_node9"><a xlink:href="d__ev__camera_8cpp.html" target="_top" xlink:title=" ">
<polygon fill="white" stroke="#666666" points="3510,-85 3392,-85 3392,-66 3510,-66 3510,-85"/>
<text text-anchor="middle" x="3451" y="-73" font-family="Helvetica,sans-Serif" font-size="10.00">src/d/d_ev_camera.cpp</text>
</a>
</g>
</g>
<!-- Node4&#45;&gt;Node9 -->
<g id="edge8" class="edge">
<title>Node4&#45;&gt;Node9</title>
<path fill="none" stroke="#63b8ff" d="M2852,-139.22C2861.67,-136.43 2872.14,-133.77 2882,-132 3101.73,-92.59 3163.19,-134.98 3383,-96 3396.91,-93.53 3412.04,-89.35 3424.49,-85.49"/>
<polygon fill="#63b8ff" stroke="#63b8ff" points="2851.12,-135.83 2842.55,-142.07 2853.14,-142.53 2851.12,-135.83"/>
</g>
<!-- Node10 -->
<g id="node10" class="node">
<title>Node10</title>
<g id="a_node10"><a xlink:href="d__event_8cpp.html" target="_top" xlink:title=" ">
<polygon fill="white" stroke="#666666" points="1398.5,-19 1277.5,-19 1277.5,0 1398.5,0 1398.5,-19"/>
<text text-anchor="middle" x="1338" y="-7" font-family="Helvetica,sans-Serif" font-size="10.00">src/d/event/d_event.cpp</text>
</a>
</g>
</g>
<!-- Node4&#45;&gt;Node10 -->
<g id="edge9" class="edge">
<title>Node4&#45;&gt;Node10</title>
<path fill="none" stroke="#63b8ff" d="M2746.42,-140.03C2711.48,-131.83 2669.6,-118.19 2637,-96 2617.66,-82.84 2624.92,-65.47 2604,-55 2549.61,-27.77 1643.61,-14.37 1398.64,-11.23"/>
<polygon fill="#63b8ff" stroke="#63b8ff" points="2745.5,-143.41 2756.03,-142.17 2747.03,-136.58 2745.5,-143.41"/>
</g>
<!-- Node11 -->
<g id="node11" class="node">
<title>Node11</title>
<g id="a_node11"><a xlink:href="d__menu__ring_8cpp.html" target="_top" xlink:title=" ">
<polygon fill="white" stroke="#666666" points="2957,-85 2815,-85 2815,-66 2957,-66 2957,-85"/>
<text text-anchor="middle" x="2886" y="-73" font-family="Helvetica,sans-Serif" font-size="10.00">src/d/menu/d_menu_ring.cpp</text>
</a>
</g>
</g>
<!-- Node4&#45;&gt;Node11 -->
<g id="edge10" class="edge">
<title>Node4&#45;&gt;Node11</title>
<path fill="none" stroke="#63b8ff" d="M2831.1,-134.5C2845.54,-119.24 2866.17,-97.45 2877.59,-85.39"/>
<polygon fill="#63b8ff" stroke="#63b8ff" points="2828.8,-131.83 2824.46,-141.5 2833.88,-136.65 2828.8,-131.83"/>
</g>
<!-- Node12 -->
<g id="node12" class="node">
<title>Node12</title>
<g id="a_node12"><a xlink:href="d__meter2__draw_8cpp.html" target="_top" xlink:title=" ">
<polygon fill="white" stroke="#666666" points="3085,-90.5 2975,-90.5 2975,-60.5 3085,-60.5 3085,-90.5"/>
<text text-anchor="start" x="2983" y="-78.5" font-family="Helvetica,sans-Serif" font-size="10.00">src/d/meter/d_meter2</text>
<text text-anchor="middle" x="3030" y="-67.5" font-family="Helvetica,sans-Serif" font-size="10.00">_draw.cpp</text>
</a>
</g>
</g>
<!-- Node4&#45;&gt;Node12 -->
<g id="edge11" class="edge">
<title>Node4&#45;&gt;Node12</title>
<path fill="none" stroke="#63b8ff" d="M2851.09,-138.91C2889.09,-125.65 2948.85,-104.81 2988.71,-90.9"/>
<polygon fill="#63b8ff" stroke="#63b8ff" points="2850.23,-135.5 2841.94,-142.1 2852.53,-142.11 2850.23,-135.5"/>
</g>
<!-- Node13 -->
<g id="node13" class="node">
<title>Node13</title>
<g id="a_node13"><a xlink:href="d__msg__flow_8cpp.html" target="_top" xlink:title=" ">
<polygon fill="white" stroke="#666666" points="3236.5,-85 3103.5,-85 3103.5,-66 3236.5,-66 3236.5,-85"/>
<text text-anchor="middle" x="3170" y="-73" font-family="Helvetica,sans-Serif" font-size="10.00">src/d/msg/d_msg_flow.cpp</text>
</a>
</g>
</g>
<!-- Node4&#45;&gt;Node13 -->
<g id="edge12" class="edge">
<title>Node4&#45;&gt;Node13</title>
<path fill="none" stroke="#63b8ff" d="M2853.95,-139.34C2863.1,-136.72 2872.85,-134.1 2882,-132 2975.15,-110.61 3000.52,-115.89 3094,-96 3108.39,-92.94 3124.16,-88.99 3137.59,-85.45"/>
<polygon fill="#63b8ff" stroke="#63b8ff" points="2853.23,-135.91 2844.63,-142.09 2855.21,-142.62 2853.23,-135.91"/>
</g>
<!-- Node14 -->
<g id="node14" class="node">
<title>Node14</title>
<g id="a_node14"><a xlink:href="f__op__actor_8cpp.html" target="_top" xlink:title=" ">
<polygon fill="white" stroke="#666666" points="3373.5,-85 3254.5,-85 3254.5,-66 3373.5,-66 3373.5,-85"/>
<text text-anchor="middle" x="3314" y="-73" font-family="Helvetica,sans-Serif" font-size="10.00">src/f_op/f_op_actor.cpp</text>
</a>
</g>
</g>
<!-- Node4&#45;&gt;Node14 -->
<g id="edge13" class="edge">
<title>Node4&#45;&gt;Node14</title>
<path fill="none" stroke="#63b8ff" d="M2852.29,-139.33C2861.88,-136.56 2872.25,-133.88 2882,-132 3041.61,-101.15 3086.33,-126.53 3246,-96 3259.75,-93.37 3274.74,-89.22 3287.14,-85.42"/>
<polygon fill="#63b8ff" stroke="#63b8ff" points="2851.48,-135.91 2842.91,-142.14 2853.49,-142.62 2851.48,-135.91"/>
</g>
<!-- Node16 -->
<g id="node16" class="node">
<title>Node16</title>
<g id="a_node16"><a xlink:href="d__a__item__static_8h.html" target="_top" xlink:title=" ">
<polygon fill="#fff0f0" stroke="red" points="655.5,-90.5 548.5,-90.5 548.5,-60.5 655.5,-60.5 655.5,-90.5"/>
<text text-anchor="start" x="556.5" y="-78.5" font-family="Helvetica,sans-Serif" font-size="10.00">include/d/a/d_a_item</text>
<text text-anchor="middle" x="602" y="-67.5" font-family="Helvetica,sans-Serif" font-size="10.00">_static.h</text>
</a>
</g>
</g>
<!-- Node15&#45;&gt;Node16 -->
<g id="edge15" class="edge">
<title>Node15&#45;&gt;Node16</title>
<path fill="none" stroke="#63b8ff" d="M499.92,-136.79C522.48,-123.46 555.52,-103.95 577.84,-90.77"/>
<polygon fill="#63b8ff" stroke="#63b8ff" points="498.2,-133.73 491.37,-141.83 501.76,-139.76 498.2,-133.73"/>
</g>
<!-- Node21 -->
<g id="node17" class="node">
<title>Node21</title>
<g id="a_node17"><a xlink:href="d__a__shop__item__static_8h.html" target="_top" xlink:title=" ">
<polygon fill="#fff0f0" stroke="red" points="782.5,-90.5 673.5,-90.5 673.5,-60.5 782.5,-60.5 782.5,-90.5"/>
<text text-anchor="start" x="681.5" y="-78.5" font-family="Helvetica,sans-Serif" font-size="10.00">include/d/a/d_a_shop</text>
<text text-anchor="middle" x="728" y="-67.5" font-family="Helvetica,sans-Serif" font-size="10.00">_item_static.h</text>
</a>
</g>
</g>
<!-- Node15&#45;&gt;Node21 -->
<g id="edge16" class="edge">
<title>Node15&#45;&gt;Node21</title>
<path fill="none" stroke="#63b8ff" d="M516.53,-139.44C554.85,-128.27 613.31,-111.17 664,-96 669.45,-94.37 675.16,-92.65 680.83,-90.93"/>
<polygon fill="#63b8ff" stroke="#63b8ff" points="515.88,-135.98 507.25,-142.14 517.83,-142.7 515.88,-135.98"/>
</g>
<!-- Node25 -->
<g id="node18" class="node">
<title>Node25</title>
<g id="a_node18"><a xlink:href="d__event_8h.html" target="_top" xlink:title=" ">
<polygon fill="#fff0f0" stroke="red" points="402,-85 274,-85 274,-66 402,-66 402,-85"/>
<text text-anchor="middle" x="338" y="-73" font-family="Helvetica,sans-Serif" font-size="10.00">include/d/event/d_event.h</text>
</a>
</g>
</g>
<!-- Node15&#45;&gt;Node25 -->
<g id="edge17" class="edge">
<title>Node15&#45;&gt;Node25</title>
<path fill="none" stroke="#63b8ff" d="M448.88,-137.2C420.97,-121.92 377.6,-98.18 354.23,-85.39"/>
<polygon fill="#63b8ff" stroke="#63b8ff" points="446.97,-140.14 457.42,-141.88 450.33,-134 446.97,-140.14"/>
</g>
<!-- Node247 -->
<g id="node19" class="node">
<title>Node247</title>
<g id="a_node19"><a xlink:href="d__a__obj__kantera_8h.html" target="_top" xlink:title=" ">
<polygon fill="white" stroke="#666666" points="110,-96 0,-96 0,-55 110,-55 110,-96"/>
<text text-anchor="start" x="8" y="-84" font-family="Helvetica,sans-Serif" font-size="10.00">include/rel/d/a/obj</text>
<text text-anchor="start" x="8" y="-73" font-family="Helvetica,sans-Serif" font-size="10.00">/d_a_obj_kantera/d_a</text>
<text text-anchor="middle" x="55" y="-62" font-family="Helvetica,sans-Serif" font-size="10.00">_obj_kantera.h</text>
</a>
</g>
</g>
<!-- Node15&#45;&gt;Node247 -->
<g id="edge19" class="edge">
<title>Node15&#45;&gt;Node247</title>
<path fill="none" stroke="#63b8ff" d="M395.89,-142.42C323.35,-133.32 213.19,-117.58 119,-96 116.17,-95.35 113.28,-94.64 110.37,-93.89"/>
<polygon fill="#63b8ff" stroke="#63b8ff" points="395.35,-145.88 405.7,-143.64 396.21,-138.93 395.35,-145.88"/>
</g>
<!-- Node183 -->
<g id="node20" class="node">
<title>Node183</title>
<g id="a_node20"><a xlink:href="d__a__itembase_8cpp.html" target="_top" xlink:title=" ">
<polygon fill="white" stroke="#666666" points="256,-85 128,-85 128,-66 256,-66 256,-85"/>
<text text-anchor="middle" x="192" y="-73" font-family="Helvetica,sans-Serif" font-size="10.00">src/d/a/d_a_itembase.cpp</text>
</a>
</g>
</g>
<!-- Node15&#45;&gt;Node183 -->
<g id="edge20" class="edge">
<title>Node15&#45;&gt;Node183</title>
<path fill="none" stroke="#63b8ff" d="M430.08,-139.66C387.55,-128.45 321.92,-111.12 265,-96 252.07,-92.56 237.85,-88.77 225.43,-85.45"/>
<polygon fill="#63b8ff" stroke="#63b8ff" points="429.14,-143.04 439.7,-142.2 430.93,-136.27 429.14,-143.04"/>
</g>
<!-- Node248 -->
<g id="node21" class="node">
<title>Node248</title>
<g id="a_node21"><a xlink:href="d__a__itembase__static_8cpp.html" target="_top" xlink:title=" ">
<polygon fill="white" stroke="#666666" points="530,-90.5 420,-90.5 420,-60.5 530,-60.5 530,-90.5"/>
<text text-anchor="start" x="428" y="-78.5" font-family="Helvetica,sans-Serif" font-size="10.00">src/d/a/d_a_itembase</text>
<text text-anchor="middle" x="475" y="-67.5" font-family="Helvetica,sans-Serif" font-size="10.00">_static.cpp</text>
</a>
</g>
</g>
<!-- Node15&#45;&gt;Node248 -->
<g id="edge21" class="edge">
<title>Node15&#45;&gt;Node248</title>
<path fill="none" stroke="#63b8ff" d="M475,-131.25C475,-118.45 475,-102.22 475,-90.77"/>
<polygon fill="#63b8ff" stroke="#63b8ff" points="471.5,-131.09 475,-141.09 478.5,-131.09 471.5,-131.09"/>
</g>
<!-- Node25&#45;&gt;Node10 -->
<g id="edge18" class="edge">
<title>Node25&#45;&gt;Node10</title>
<path fill="none" stroke="#63b8ff" d="M376.76,-62.51C387.73,-59.56 399.74,-56.75 411,-55 578.76,-28.87 1098.56,-15.6 1277.08,-11.73"/>
<polygon fill="#63b8ff" stroke="#63b8ff" points="375.92,-59.1 367.24,-65.18 377.81,-65.84 375.92,-59.1"/>
</g>
<!-- Node112 -->
<g id="node23" class="node">
<title>Node112</title>
<g id="a_node23"><a xlink:href="d__a__obj__bombf_8h.html" target="_top" xlink:title=" ">
<polygon fill="white" stroke="#666666" points="923,-96 801,-96 801,-55 923,-55 923,-96"/>
<text text-anchor="start" x="809" y="-84" font-family="Helvetica,sans-Serif" font-size="10.00">include/rel/d/a/obj</text>
<text text-anchor="start" x="809" y="-73" font-family="Helvetica,sans-Serif" font-size="10.00">/d_a_obj_bombf/d_a_obj</text>
<text text-anchor="middle" x="862" y="-62" font-family="Helvetica,sans-Serif" font-size="10.00">_bombf.h</text>
</a>
</g>
</g>
<!-- Node249&#45;&gt;Node112 -->
<g id="edge23" class="edge">
<title>Node249&#45;&gt;Node112</title>
<path fill="none" stroke="#63b8ff" d="M760.84,-136.71C780.23,-125.17 807.37,-109.02 828.65,-96.35"/>
<polygon fill="#63b8ff" stroke="#63b8ff" points="759.05,-133.71 752.25,-141.83 762.63,-139.72 759.05,-133.71"/>
</g>
<!-- Node250 -->
<g id="node24" class="node">
<title>Node250</title>
<g id="a_node24"><a xlink:href="d__bomb_8cpp.html" target="_top" xlink:title=" ">
<polygon fill="white" stroke="#666666" points="1035,-85 941,-85 941,-66 1035,-66 1035,-85"/>
<text text-anchor="middle" x="988" y="-73" font-family="Helvetica,sans-Serif" font-size="10.00">src/d/d_bomb.cpp</text>
</a>
</g>
</g>
<!-- Node249&#45;&gt;Node250 -->
<g id="edge24" class="edge">
<title>Node249&#45;&gt;Node250</title>
<path fill="none" stroke="#63b8ff" d="M773.17,-139.06C780.7,-136.64 788.59,-134.18 796,-132 855.98,-114.33 872.21,-114.29 932,-96 942.43,-92.81 953.83,-88.92 963.6,-85.45"/>
<polygon fill="#63b8ff" stroke="#63b8ff" points="772.35,-135.65 763.92,-142.07 774.52,-142.31 772.35,-135.65"/>
</g>
<!-- Node86&#45;&gt;Node6 -->
<g id="edge27" class="edge">
<title>Node86&#45;&gt;Node6</title>
<path fill="none" stroke="#63b8ff" d="M2589.01,-128.91C2574.73,-114.23 2556.91,-95.92 2546.55,-85.29"/>
<polygon fill="#63b8ff" stroke="#63b8ff" points="2586.39,-131.23 2595.87,-135.95 2591.4,-126.35 2586.39,-131.23"/>
</g>
<!-- Node252&#45;&gt;Node5 -->
<g id="edge34" class="edge">
<title>Node252&#45;&gt;Node5</title>
<path fill="none" stroke="#63b8ff" d="M2328.74,-129.07C2309.61,-108.63 2288.8,-78.18 2306,-55 2327.05,-26.63 2365.69,-15.7 2398.07,-11.77"/>
<polygon fill="#63b8ff" stroke="#63b8ff" points="2326.15,-131.42 2335.66,-136.09 2331.13,-126.51 2326.15,-131.42"/>
</g>
<!-- Node45 -->
<g id="node30" class="node">
<title>Node45</title>
<g id="a_node30"><a xlink:href="d__a__e__wb_8h.html" target="_top" xlink:title=" ">
<polygon fill="#fff0f0" stroke="red" points="2425,-90.5 2315,-90.5 2315,-60.5 2425,-60.5 2425,-90.5"/>
<text text-anchor="start" x="2323" y="-78.5" font-family="Helvetica,sans-Serif" font-size="10.00">include/rel/d/a/e/d</text>
<text text-anchor="middle" x="2370" y="-67.5" font-family="Helvetica,sans-Serif" font-size="10.00">_a_e_wb/d_a_e_wb.h</text>
</a>
</g>
</g>
<!-- Node252&#45;&gt;Node45 -->
<g id="edge31" class="edge">
<title>Node252&#45;&gt;Node45</title>
<path fill="none" stroke="#63b8ff" d="M2358.76,-126.1C2361.42,-114.37 2364.48,-100.87 2366.73,-90.92"/>
<polygon fill="#63b8ff" stroke="#63b8ff" points="2355.41,-125.04 2356.61,-135.56 2362.24,-126.58 2355.41,-125.04"/>
</g>
<!-- Node161 -->
<g id="node31" class="node">
<title>Node161</title>
<g id="a_node31"><a xlink:href="d__a__tag__hinit_8h.html" target="_top" xlink:title=" ">
<polygon fill="white" stroke="#666666" points="2258.5,-96 2143.5,-96 2143.5,-55 2258.5,-55 2258.5,-96"/>
<text text-anchor="start" x="2151.5" y="-84" font-family="Helvetica,sans-Serif" font-size="10.00">include/rel/d/a/tag</text>
<text text-anchor="start" x="2151.5" y="-73" font-family="Helvetica,sans-Serif" font-size="10.00">/d_a_tag_hinit/d_a_tag</text>
<text text-anchor="middle" x="2201" y="-62" font-family="Helvetica,sans-Serif" font-size="10.00">_hinit.h</text>
</a>
</g>
</g>
<!-- Node252&#45;&gt;Node161 -->
<g id="edge33" class="edge">
<title>Node252&#45;&gt;Node161</title>
<path fill="none" stroke="#63b8ff" d="M2313.61,-132.06C2291.42,-121.12 2263.77,-107.47 2241.42,-96.44"/>
<polygon fill="#63b8ff" stroke="#63b8ff" points="2311.82,-135.08 2322.34,-136.37 2314.92,-128.81 2311.82,-135.08"/>
</g>
<!-- Node187 -->
<g id="node32" class="node">
<title>Node187</title>
<g id="a_node32"><a xlink:href="d__bg__w_8cpp.html" target="_top" xlink:title=" ">
<polygon fill="white" stroke="#666666" points="1978.5,-85 1871.5,-85 1871.5,-66 1978.5,-66 1978.5,-85"/>
<text text-anchor="middle" x="1925" y="-73" font-family="Helvetica,sans-Serif" font-size="10.00">src/d/bg/d_bg_w.cpp</text>
</a>
</g>
</g>
<!-- Node252&#45;&gt;Node187 -->
<g id="edge35" class="edge">
<title>Node252&#45;&gt;Node187</title>
<path fill="none" stroke="#63b8ff" d="M2301.41,-134.02C2298.58,-133.29 2295.76,-132.61 2293,-132 2159.67,-102.76 2121.53,-124.3 1988,-96 1975.34,-93.32 1961.59,-89.2 1950.16,-85.45"/>
<polygon fill="#63b8ff" stroke="#63b8ff" points="2300.27,-137.34 2310.85,-136.68 2302.17,-130.6 2300.27,-137.34"/>
</g>
<!-- Node69 -->
<g id="node33" class="node">
<title>Node69</title>
<g id="a_node33"><a xlink:href="d__meter2_8cpp.html" target="_top" xlink:title=" ">
<polygon fill="white" stroke="#666666" points="2125,-85 1997,-85 1997,-66 2125,-66 2125,-85"/>
<text text-anchor="middle" x="2061" y="-73" font-family="Helvetica,sans-Serif" font-size="10.00">src/d/meter/d_meter2.cpp</text>
</a>
</g>
</g>
<!-- Node252&#45;&gt;Node69 -->
<g id="edge36" class="edge">
<title>Node252&#45;&gt;Node69</title>
<path fill="none" stroke="#63b8ff" d="M2299.39,-133.81C2297.23,-133.18 2295.1,-132.58 2293,-132 2223.14,-112.78 2204.35,-113.35 2134,-96 2120.63,-92.7 2105.94,-88.83 2093.27,-85.41"/>
<polygon fill="#63b8ff" stroke="#63b8ff" points="2298.18,-137.1 2308.76,-136.63 2300.19,-130.4 2298.18,-137.1"/>
</g>
<!-- Node45&#45;&gt;Node5 -->
<g id="edge32" class="edge">
<title>Node45&#45;&gt;Node5</title>
<path fill="none" stroke="#63b8ff" d="M2397.32,-53.43C2412.34,-41.85 2430.17,-28.11 2441.53,-19.34"/>
<polygon fill="#63b8ff" stroke="#63b8ff" points="2395.4,-50.49 2389.62,-59.37 2399.68,-56.04 2395.4,-50.49"/>
</g>
<!-- Node254&#45;&gt;Node5 -->
<g id="edge39" class="edge">
<title>Node254&#45;&gt;Node5</title>
<path fill="none" stroke="#63b8ff" d="M2466.94,-126.08C2463.07,-94.03 2456.63,-40.57 2454.08,-19.46"/>
<polygon fill="#63b8ff" stroke="#63b8ff" points="2463.42,-126.19 2468.1,-135.7 2470.37,-125.35 2463.42,-126.19"/>
</g>
<!-- Node113&#45;&gt;Node5 -->
<g id="edge43" class="edge">
<title>Node113&#45;&gt;Node5</title>
<path fill="none" stroke="#63b8ff" d="M3807.04,-120.37C3807.28,-98.58 3803.44,-70.68 3785,-55 3735.65,-13.02 2752.85,-10.44 2507.92,-10.44"/>
<polygon fill="#63b8ff" stroke="#63b8ff" points="3803.55,-120.07 3806.62,-130.21 3810.54,-120.37 3803.55,-120.07"/>
</g>
<!-- Node98 -->
<g id="node39" class="node">
<title>Node98</title>
<g id="a_node39"><a xlink:href="d__com__static_8cpp.html" target="_top" xlink:title=" ">
<polygon fill="white" stroke="#666666" points="3972,-85 3832,-85 3832,-66 3972,-66 3972,-85"/>
<text text-anchor="middle" x="3902" y="-73" font-family="Helvetica,sans-Serif" font-size="10.00">src/d/com/d_com_static.cpp</text>
</a>
</g>
</g>
<!-- Node113&#45;&gt;Node98 -->
<g id="edge44" class="edge">
<title>Node113&#45;&gt;Node98</title>
<path fill="none" stroke="#63b8ff" d="M3839.1,-124.63C3857.09,-110.87 3877.8,-95.02 3890.39,-85.38"/>
<polygon fill="#63b8ff" stroke="#63b8ff" points="3837.02,-121.82 3831.21,-130.68 3841.28,-127.38 3837.02,-121.82"/>
</g>
<!-- Node262&#45;&gt;Node8 -->
<g id="edge53" class="edge">
<title>Node262&#45;&gt;Node8</title>
<path fill="none" stroke="#63b8ff" d="M3529.88,-134.07C3542.88,-118.83 3561.22,-97.33 3571.42,-85.39"/>
<polygon fill="#63b8ff" stroke="#63b8ff" points="3527.4,-131.57 3523.58,-141.45 3532.73,-136.12 3527.4,-131.57"/>
</g>
<!-- Node262&#45;&gt;Node9 -->
<g id="edge54" class="edge">
<title>Node262&#45;&gt;Node9</title>
<path fill="none" stroke="#63b8ff" d="M3500.12,-134.07C3487.12,-118.83 3468.78,-97.33 3458.58,-85.39"/>
<polygon fill="#63b8ff" stroke="#63b8ff" points="3497.27,-136.12 3506.42,-141.45 3502.6,-131.57 3497.27,-136.12"/>
</g>
<!-- Node263 -->
<g id="node47" class="node">
<title>Node263</title>
<g id="a_node47"><a xlink:href="f__op__camera__mng_8h.html" target="_top" xlink:title=" ">
<polygon fill="#fff0f0" stroke="red" points="3776,-90.5 3648,-90.5 3648,-60.5 3776,-60.5 3776,-90.5"/>
<text text-anchor="start" x="3656" y="-78.5" font-family="Helvetica,sans-Serif" font-size="10.00">include/f_op/f_op_camera</text>
<text text-anchor="middle" x="3712" y="-67.5" font-family="Helvetica,sans-Serif" font-size="10.00">_mng.h</text>
</a>
</g>
</g>
<!-- Node262&#45;&gt;Node263 -->
<g id="edge52" class="edge">
<title>Node262&#45;&gt;Node263</title>
<path fill="none" stroke="#63b8ff" d="M3548.97,-138.57C3583.83,-125.3 3637.95,-104.69 3674.16,-90.9"/>
<polygon fill="#63b8ff" stroke="#63b8ff" points="3547.89,-135.23 3539.79,-142.06 3550.38,-141.78 3547.89,-135.23"/>
</g>
</g>
</svg>
