<?xml version="1.0" encoding="UTF-8" standalone="no"?>
<!DOCTYPE svg PUBLIC "-//W3C//DTD SVG 1.1//EN"
 "http://www.w3.org/Graphics/SVG/1.1/DTD/svg11.dtd">
<!-- Generated by graphviz version 7.0.5 (20221223.1930)
 -->
<!-- Title: include/SSystem/SComponent/c_bg_s_lin_chk.h Pages: 1 -->
<svg width="4560pt" height="313pt"
 viewBox="0.00 0.00 4560.00 313.00" xmlns="http://www.w3.org/2000/svg" xmlns:xlink="http://www.w3.org/1999/xlink">
<g id="graph0" class="graph" transform="scale(1 1) rotate(0) translate(4 309)">
<title>include/SSystem/SComponent/c_bg_s_lin_chk.h</title>
<!-- Node1 -->
<g id="node1" class="node">
<title>Node1</title>
<g id="a_node1"><a xlink:title=" ">
<polygon fill="#999999" stroke="#666666" points="2520.5,-305 2371.5,-305 2371.5,-275 2520.5,-275 2520.5,-305"/>
<text text-anchor="start" x="2379.5" y="-293" font-family="Helvetica,sans-Serif" font-size="10.00">include/SSystem/SComponent</text>
<text text-anchor="middle" x="2446" y="-282" font-family="Helvetica,sans-Serif" font-size="10.00">/c_bg_s_lin_chk.h</text>
</a>
</g>
</g>
<!-- Node2 -->
<g id="node2" class="node">
<title>Node2</title>
<g id="a_node2"><a xlink:href="d__bg__s_8h.html" target="_top" xlink:title=" ">
<polygon fill="white" stroke="#666666" points="2501.5,-233.5 2390.5,-233.5 2390.5,-214.5 2501.5,-214.5 2501.5,-233.5"/>
<text text-anchor="middle" x="2446" y="-221.5" font-family="Helvetica,sans-Serif" font-size="10.00">include/d/bg/d_bg_s.h</text>
</a>
</g>
</g>
<!-- Node1&#45;&gt;Node2 -->
<g id="edge1" class="edge">
<title>Node1&#45;&gt;Node2</title>
<path fill="none" stroke="#63b8ff" d="M2446,-263.59C2446,-253.06 2446,-241.53 2446,-233.84"/>
<polygon fill="#63b8ff" stroke="#63b8ff" points="2442.5,-263.28 2446,-273.28 2449.5,-263.28 2442.5,-263.28"/>
</g>
<!-- Node175 -->
<g id="node42" class="node">
<title>Node175</title>
<g id="a_node42"><a xlink:href="d__bg__s__lin__chk_8h.html" target="_top" xlink:title=" ">
<polygon fill="white" stroke="#666666" points="2001,-239 1897,-239 1897,-209 2001,-209 2001,-239"/>
<text text-anchor="start" x="1905" y="-227" font-family="Helvetica,sans-Serif" font-size="10.00">include/d/bg/d_bg_s</text>
<text text-anchor="middle" x="1949" y="-216" font-family="Helvetica,sans-Serif" font-size="10.00">_lin_chk.h</text>
</a>
</g>
</g>
<!-- Node1&#45;&gt;Node175 -->
<g id="edge45" class="edge">
<title>Node1&#45;&gt;Node175</title>
<path fill="none" stroke="#63b8ff" d="M2359.72,-277.89C2256.38,-264.58 2086.55,-242.71 2001.29,-231.73"/>
<polygon fill="#63b8ff" stroke="#63b8ff" points="2359.19,-281.35 2369.55,-279.16 2360.08,-274.41 2359.19,-281.35"/>
</g>
<!-- Node188 -->
<g id="node50" class="node">
<title>Node188</title>
<g id="a_node50"><a xlink:href="c__bg__s__lin__chk_8cpp.html" target="_top" xlink:title=" ">
<polygon fill="white" stroke="#666666" points="2654,-239 2520,-239 2520,-209 2654,-209 2654,-239"/>
<text text-anchor="start" x="2528" y="-227" font-family="Helvetica,sans-Serif" font-size="10.00">libs/SSystem/SComponent</text>
<text text-anchor="middle" x="2587" y="-216" font-family="Helvetica,sans-Serif" font-size="10.00">/c_bg_s_lin_chk.cpp</text>
</a>
</g>
</g>
<!-- Node1&#45;&gt;Node188 -->
<g id="edge55" class="edge">
<title>Node1&#45;&gt;Node188</title>
<path fill="none" stroke="#63b8ff" d="M2487.88,-269.99C2509.53,-260.16 2535.53,-248.36 2555.46,-239.31"/>
<polygon fill="#63b8ff" stroke="#63b8ff" points="2486.68,-266.69 2479.02,-274.01 2489.57,-273.07 2486.68,-266.69"/>
</g>
<!-- Node3 -->
<g id="node3" class="node">
<title>Node3</title>
<g id="a_node3"><a xlink:href="d__com__inf__game_8h.html" target="_top" xlink:title=" ">
<polygon fill="#fff0f0" stroke="red" points="2501,-173 2391,-173 2391,-143 2501,-143 2501,-173"/>
<text text-anchor="start" x="2399" y="-161" font-family="Helvetica,sans-Serif" font-size="10.00">include/d/com/d_com</text>
<text text-anchor="middle" x="2446" y="-150" font-family="Helvetica,sans-Serif" font-size="10.00">_inf_game.h</text>
</a>
</g>
</g>
<!-- Node2&#45;&gt;Node3 -->
<g id="edge2" class="edge">
<title>Node2&#45;&gt;Node3</title>
<path fill="none" stroke="#63b8ff" d="M2446,-202.78C2446,-193.17 2446,-181.92 2446,-173.23"/>
<polygon fill="#63b8ff" stroke="#63b8ff" points="2442.5,-202.59 2446,-212.59 2449.5,-202.59 2442.5,-202.59"/>
</g>
<!-- Node112 -->
<g id="node39" class="node">
<title>Node112</title>
<g id="a_node39"><a xlink:href="d__bg__s_8cpp.html" target="_top" xlink:title=" ">
<polygon fill="white" stroke="#666666" points="4552,-96 4448,-96 4448,-77 4552,-77 4552,-96"/>
<text text-anchor="middle" x="4500" y="-84" font-family="Helvetica,sans-Serif" font-size="10.00">src/d/bg/d_bg_s.cpp</text>
</a>
</g>
</g>
<!-- Node2&#45;&gt;Node112 -->
<g id="edge43" class="edge">
<title>Node2&#45;&gt;Node112</title>
<path fill="none" stroke="#63b8ff" d="M2465.97,-207.37C2495.57,-184.2 2547.78,-143.43 2549,-143 2744.2,-73.99 4206.42,-131.52 4412,-107 4430.34,-104.81 4450.46,-100.5 4466.84,-96.48"/>
<polygon fill="#63b8ff" stroke="#63b8ff" points="2464.15,-204.34 2458.43,-213.26 2468.47,-209.85 2464.15,-204.34"/>
</g>
<!-- Node173 -->
<g id="node40" class="node">
<title>Node173</title>
<g id="a_node40"><a xlink:href="d__a__horse_8h.html" target="_top" xlink:title=" ">
<polygon fill="#fff0f0" stroke="red" points="2372.5,-173 2271.5,-173 2271.5,-143 2372.5,-143 2372.5,-173"/>
<text text-anchor="start" x="2279.5" y="-161" font-family="Helvetica,sans-Serif" font-size="10.00">include/rel/d/a/d_a</text>
<text text-anchor="middle" x="2322" y="-150" font-family="Helvetica,sans-Serif" font-size="10.00">_horse/d_a_horse.h</text>
</a>
</g>
</g>
<!-- Node2&#45;&gt;Node173 -->
<g id="edge42" class="edge">
<title>Node2&#45;&gt;Node173</title>
<path fill="none" stroke="#63b8ff" d="M2418.58,-208.85C2398.22,-198.34 2370.55,-184.06 2350.05,-173.48"/>
<polygon fill="#63b8ff" stroke="#63b8ff" points="2416.92,-211.93 2427.41,-213.41 2420.13,-205.71 2416.92,-211.93"/>
</g>
<!-- Node174 -->
<g id="node41" class="node">
<title>Node174</title>
<g id="a_node41"><a xlink:href="d__bg__s__acch_8cpp.html" target="_top" xlink:title=" ">
<polygon fill="white" stroke="#666666" points="2688.5,-167.5 2557.5,-167.5 2557.5,-148.5 2688.5,-148.5 2688.5,-167.5"/>
<text text-anchor="middle" x="2623" y="-155.5" font-family="Helvetica,sans-Serif" font-size="10.00">src/d/bg/d_bg_s_acch.cpp</text>
</a>
</g>
</g>
<!-- Node2&#45;&gt;Node174 -->
<g id="edge44" class="edge">
<title>Node2&#45;&gt;Node174</title>
<path fill="none" stroke="#63b8ff" d="M2481.2,-210.27C2515.84,-197.75 2567.85,-178.94 2598.31,-167.93"/>
<polygon fill="#63b8ff" stroke="#63b8ff" points="2480.25,-206.89 2472.03,-213.59 2482.63,-213.48 2480.25,-206.89"/>
</g>
<!-- Node4 -->
<g id="node4" class="node">
<title>Node4</title>
<g id="a_node4"><a xlink:href="d__a__npc_8h.html" target="_top" xlink:title=" ">
<polygon fill="#fff0f0" stroke="red" points="4177.5,-96 4066.5,-96 4066.5,-77 4177.5,-77 4177.5,-96"/>
<text text-anchor="middle" x="4122" y="-84" font-family="Helvetica,sans-Serif" font-size="10.00">include/d/a/d_a_npc.h</text>
</a>
</g>
</g>
<!-- Node3&#45;&gt;Node4 -->
<g id="edge3" class="edge">
<title>Node3&#45;&gt;Node4</title>
<path fill="none" stroke="#63b8ff" d="M2512.46,-143.3C2513.31,-143.19 2514.16,-143.09 2515,-143 2855.84,-104.75 3719.37,-161.49 4058,-107 4071.53,-104.82 4086.19,-100.51 4098.05,-96.49"/>
<polygon fill="#63b8ff" stroke="#63b8ff" points="2512.13,-139.81 2502.72,-144.69 2513.12,-146.74 2512.13,-139.81"/>
</g>
<!-- Node11 -->
<g id="node5" class="node">
<title>Node11</title>
<g id="a_node5"><a xlink:href="d__cc__uty_8h.html" target="_top" xlink:title=" ">
<polygon fill="#fff0f0" stroke="red" points="4353.5,-96 4234.5,-96 4234.5,-77 4353.5,-77 4353.5,-96"/>
<text text-anchor="middle" x="4294" y="-84" font-family="Helvetica,sans-Serif" font-size="10.00">include/d/cc/d_cc_uty.h</text>
</a>
</g>
</g>
<!-- Node3&#45;&gt;Node11 -->
<g id="edge4" class="edge">
<title>Node3&#45;&gt;Node11</title>
<path fill="none" stroke="#63b8ff" d="M2512.46,-143.3C2513.31,-143.19 2514.16,-143.09 2515,-143 2891.66,-101.15 3844.7,-159.65 4220,-107 4235.53,-104.82 4252.46,-100.51 4266.21,-96.49"/>
<polygon fill="#63b8ff" stroke="#63b8ff" points="2512.13,-139.81 2502.72,-144.68 2513.11,-146.74 2512.13,-139.81"/>
</g>
<!-- Node12 -->
<g id="node6" class="node">
<title>Node12</title>
<g id="a_node6"><a xlink:href="d__a__b__ob_8h.html" target="_top" xlink:title=" ">
<polygon fill="#fff0f0" stroke="red" points="4242,-30 4136,-30 4136,0 4242,0 4242,-30"/>
<text text-anchor="start" x="4144" y="-18" font-family="Helvetica,sans-Serif" font-size="10.00">include/rel/d/a/b/d</text>
<text text-anchor="middle" x="4189" y="-7" font-family="Helvetica,sans-Serif" font-size="10.00">_a_b_ob/d_a_b_ob.h</text>
</a>
</g>
</g>
<!-- Node3&#45;&gt;Node12 -->
<g id="edge10" class="edge">
<title>Node3&#45;&gt;Node12</title>
<path fill="none" stroke="#63b8ff" d="M2512.46,-143.3C2513.31,-143.19 2514.16,-143.09 2515,-143 2561.17,-137.86 4154.14,-139.84 4187,-107 4207.01,-87 4200.01,-50.48 4194,-30.32"/>
<polygon fill="#63b8ff" stroke="#63b8ff" points="2512.13,-139.81 2502.72,-144.68 2513.12,-146.74 2512.13,-139.81"/>
</g>
<!-- Node18 -->
<g id="node7" class="node">
<title>Node18</title>
<g id="a_node7"><a xlink:href="d__a__e__yk_8h.html" target="_top" xlink:title=" ">
<polygon fill="white" stroke="#666666" points="4364,-30 4260,-30 4260,0 4364,0 4364,-30"/>
<text text-anchor="start" x="4268" y="-18" font-family="Helvetica,sans-Serif" font-size="10.00">include/rel/d/a/e/d</text>
<text text-anchor="middle" x="4312" y="-7" font-family="Helvetica,sans-Serif" font-size="10.00">_a_e_yk/d_a_e_yk.h</text>
</a>
</g>
</g>
<!-- Node3&#45;&gt;Node18 -->
<g id="edge25" class="edge">
<title>Node3&#45;&gt;Node18</title>
<path fill="none" stroke="#63b8ff" d="M2512.46,-143.29C2513.31,-143.19 2514.16,-143.09 2515,-143 2566.03,-137.37 4327.05,-143.66 4363,-107 4375.76,-93.99 4370.06,-82.8 4363,-66 4356.95,-51.6 4344.5,-39.26 4333.42,-30.44"/>
<polygon fill="#63b8ff" stroke="#63b8ff" points="2512.13,-139.81 2502.72,-144.67 2513.11,-146.74 2512.13,-139.81"/>
</g>
<!-- Node19 -->
<g id="node8" class="node">
<title>Node19</title>
<g id="a_node8"><a xlink:href="d__a__e__ym_8h.html" target="_top" xlink:title=" ">
<polygon fill="#fff0f0" stroke="red" points="4492,-30 4382,-30 4382,0 4492,0 4492,-30"/>
<text text-anchor="start" x="4390" y="-18" font-family="Helvetica,sans-Serif" font-size="10.00">include/rel/d/a/e/d</text>
<text text-anchor="middle" x="4437" y="-7" font-family="Helvetica,sans-Serif" font-size="10.00">_a_e_ym/d_a_e_ym.h</text>
</a>
</g>
</g>
<!-- Node3&#45;&gt;Node19 -->
<g id="edge26" class="edge">
<title>Node3&#45;&gt;Node19</title>
<path fill="none" stroke="#63b8ff" d="M2512.46,-143.29C2513.31,-143.19 2514.16,-143.09 2515,-143 2618.01,-131.65 4289.82,-158.06 4380,-107 4409.52,-90.28 4425.88,-51.34 4432.87,-30.22"/>
<polygon fill="#63b8ff" stroke="#63b8ff" points="2512.13,-139.8 2502.72,-144.67 2513.11,-146.74 2512.13,-139.8"/>
</g>
<!-- Node22 -->
<g id="node9" class="node">
<title>Node22</title>
<g id="a_node9"><a xlink:href="d__error__msg_8h.html" target="_top" xlink:title=" ">
<polygon fill="#fff0f0" stroke="red" points="260,-96 140,-96 140,-77 260,-77 260,-96"/>
<text text-anchor="middle" x="200" y="-84" font-family="Helvetica,sans-Serif" font-size="10.00">include/d/d_error_msg.h</text>
</a>
</g>
</g>
<!-- Node3&#45;&gt;Node22 -->
<g id="edge8" class="edge">
<title>Node3&#45;&gt;Node22</title>
<path fill="none" stroke="#63b8ff" d="M2379.35,-142.9C1897.12,-89.9 729.98,-174.89 269,-107 254.34,-104.84 238.4,-100.48 225.54,-96.42"/>
<polygon fill="#63b8ff" stroke="#63b8ff" points="2378.78,-146.36 2389.11,-144.01 2379.57,-139.4 2378.78,-146.36"/>
</g>
<!-- Node25 -->
<g id="node10" class="node">
<title>Node25</title>
<g id="a_node10"><a xlink:href="d__msg__object_8h.html" target="_top" xlink:title=" ">
<polygon fill="#fff0f0" stroke="red" points="388,-101.5 278,-101.5 278,-71.5 388,-71.5 388,-101.5"/>
<text text-anchor="start" x="286" y="-89.5" font-family="Helvetica,sans-Serif" font-size="10.00">include/d/msg/d_msg</text>
<text text-anchor="middle" x="333" y="-78.5" font-family="Helvetica,sans-Serif" font-size="10.00">_object.h</text>
</a>
</g>
</g>
<!-- Node3&#45;&gt;Node25 -->
<g id="edge9" class="edge">
<title>Node3&#45;&gt;Node25</title>
<path fill="none" stroke="#63b8ff" d="M2379.35,-142.9C1925.42,-93 829.14,-175.38 397,-107 389.66,-105.84 381.99,-104.04 374.61,-101.99"/>
<polygon fill="#63b8ff" stroke="#63b8ff" points="2378.77,-146.36 2389.11,-144.01 2379.57,-139.4 2378.77,-146.36"/>
</g>
<!-- Node48 -->
<g id="node11" class="node">
<title>Node48</title>
<g id="a_node11"><a xlink:href="d__a__b__zant_8h.html" target="_top" xlink:title=" ">
<polygon fill="white" stroke="#666666" points="527.5,-101.5 406.5,-101.5 406.5,-71.5 527.5,-71.5 527.5,-101.5"/>
<text text-anchor="start" x="414.5" y="-89.5" font-family="Helvetica,sans-Serif" font-size="10.00">include/rel/d/a/b/d</text>
<text text-anchor="middle" x="467" y="-78.5" font-family="Helvetica,sans-Serif" font-size="10.00">_a_b_zant/d_a_b_zant.h</text>
</a>
</g>
</g>
<!-- Node3&#45;&gt;Node48 -->
<g id="edge11" class="edge">
<title>Node3&#45;&gt;Node48</title>
<path fill="none" stroke="#63b8ff" d="M2379.19,-142.88C1956.15,-96.24 939.07,-165.96 537,-107 529.01,-105.83 520.64,-104.02 512.58,-101.98"/>
<polygon fill="#63b8ff" stroke="#63b8ff" points="2378.77,-146.36 2389.11,-144.02 2379.57,-139.4 2378.77,-146.36"/>
</g>
<!-- Node49 -->
<g id="node12" class="node">
<title>Node49</title>
<g id="a_node12"><a xlink:href="d__a__andsw_8h.html" target="_top" xlink:title=" ">
<polygon fill="white" stroke="#666666" points="656,-101.5 546,-101.5 546,-71.5 656,-71.5 656,-101.5"/>
<text text-anchor="start" x="554" y="-89.5" font-family="Helvetica,sans-Serif" font-size="10.00">include/rel/d/a/d_a</text>
<text text-anchor="middle" x="601" y="-78.5" font-family="Helvetica,sans-Serif" font-size="10.00">_andsw/d_a_andsw.h</text>
</a>
</g>
</g>
<!-- Node3&#45;&gt;Node49 -->
<g id="edge12" class="edge">
<title>Node3&#45;&gt;Node49</title>
<path fill="none" stroke="#63b8ff" d="M2379.38,-142.91C1984.77,-99.32 1038.28,-166.61 665,-107 657.66,-105.83 649.99,-104.02 642.61,-101.97"/>
<polygon fill="#63b8ff" stroke="#63b8ff" points="2378.77,-146.36 2389.11,-144.02 2379.57,-139.4 2378.77,-146.36"/>
</g>
<!-- Node50 -->
<g id="node13" class="node">
<title>Node50</title>
<g id="a_node13"><a xlink:href="d__a__cstaF_8h.html" target="_top" xlink:title=" ">
<polygon fill="white" stroke="#666666" points="777.5,-101.5 674.5,-101.5 674.5,-71.5 777.5,-71.5 777.5,-101.5"/>
<text text-anchor="start" x="682.5" y="-89.5" font-family="Helvetica,sans-Serif" font-size="10.00">include/rel/d/a/d_a</text>
<text text-anchor="middle" x="726" y="-78.5" font-family="Helvetica,sans-Serif" font-size="10.00">_cstaF/d_a_cstaF.h</text>
</a>
</g>
</g>
<!-- Node3&#45;&gt;Node50 -->
<g id="edge13" class="edge">
<title>Node3&#45;&gt;Node50</title>
<path fill="none" stroke="#63b8ff" d="M2379.35,-142.9C2011.71,-102.24 1133.08,-164.98 787,-107 779.98,-105.82 772.66,-104.02 765.63,-101.97"/>
<polygon fill="#63b8ff" stroke="#63b8ff" points="2378.77,-146.36 2389.1,-144.03 2379.57,-139.4 2378.77,-146.36"/>
</g>
<!-- Node51 -->
<g id="node14" class="node">
<title>Node51</title>
<g id="a_node14"><a xlink:href="d__a__dmidna_8h.html" target="_top" xlink:title=" ">
<polygon fill="white" stroke="#666666" points="912,-101.5 796,-101.5 796,-71.5 912,-71.5 912,-101.5"/>
<text text-anchor="start" x="804" y="-89.5" font-family="Helvetica,sans-Serif" font-size="10.00">include/rel/d/a/d_a</text>
<text text-anchor="middle" x="854" y="-78.5" font-family="Helvetica,sans-Serif" font-size="10.00">_dmidna/d_a_dmidna.h</text>
</a>
</g>
</g>
<!-- Node3&#45;&gt;Node51 -->
<g id="edge14" class="edge">
<title>Node3&#45;&gt;Node51</title>
<path fill="none" stroke="#63b8ff" d="M2379.27,-142.89C2041.27,-105.29 1238.32,-156.23 921,-107 913.34,-105.81 905.32,-104 897.6,-101.95"/>
<polygon fill="#63b8ff" stroke="#63b8ff" points="2378.77,-146.36 2389.1,-144.03 2379.57,-139.4 2378.77,-146.36"/>
</g>
<!-- Node52 -->
<g id="node15" class="node">
<title>Node52</title>
<g id="a_node15"><a xlink:href="d__a__dshutter_8h.html" target="_top" xlink:title=" ">
<polygon fill="white" stroke="#666666" points="1054,-101.5 930,-101.5 930,-71.5 1054,-71.5 1054,-101.5"/>
<text text-anchor="start" x="938" y="-89.5" font-family="Helvetica,sans-Serif" font-size="10.00">include/rel/d/a/d_a</text>
<text text-anchor="middle" x="992" y="-78.5" font-family="Helvetica,sans-Serif" font-size="10.00">_dshutter/d_a_dshutter.h</text>
</a>
</g>
</g>
<!-- Node3&#45;&gt;Node52 -->
<g id="edge15" class="edge">
<title>Node3&#45;&gt;Node52</title>
<path fill="none" stroke="#63b8ff" d="M2379.41,-142.86C1797.86,-73.56 1639.38,-192.73 1063,-107 1054.91,-105.8 1046.42,-103.98 1038.25,-101.92"/>
<polygon fill="#63b8ff" stroke="#63b8ff" points="2378.76,-146.31 2389.1,-144.03 2379.6,-139.36 2378.76,-146.31"/>
</g>
<!-- Node53 -->
<g id="node16" class="node">
<title>Node53</title>
<g id="a_node16"><a xlink:href="d__a__econt_8h.html" target="_top" xlink:title=" ">
<polygon fill="white" stroke="#666666" points="1173.5,-101.5 1072.5,-101.5 1072.5,-71.5 1173.5,-71.5 1173.5,-101.5"/>
<text text-anchor="start" x="1080.5" y="-89.5" font-family="Helvetica,sans-Serif" font-size="10.00">include/rel/d/a/d_a</text>
<text text-anchor="middle" x="1123" y="-78.5" font-family="Helvetica,sans-Serif" font-size="10.00">_econt/d_a_econt.h</text>
</a>
</g>
</g>
<!-- Node3&#45;&gt;Node53 -->
<g id="edge16" class="edge">
<title>Node3&#45;&gt;Node53</title>
<path fill="none" stroke="#63b8ff" d="M2379.59,-142.92C2099.56,-111.47 1441.27,-152.73 1182,-107 1175.2,-105.8 1168.11,-103.98 1161.31,-101.93"/>
<polygon fill="#63b8ff" stroke="#63b8ff" points="2378.76,-146.35 2389.1,-144.05 2379.58,-139.4 2378.76,-146.35"/>
</g>
<!-- Node54 -->
<g id="node17" class="node">
<title>Node54</title>
<g id="a_node17"><a xlink:href="d__a__guard__mng_8h.html" target="_top" xlink:title=" ">
<polygon fill="white" stroke="#666666" points="1340.5,-101.5 1191.5,-101.5 1191.5,-71.5 1340.5,-71.5 1340.5,-101.5"/>
<text text-anchor="start" x="1199.5" y="-89.5" font-family="Helvetica,sans-Serif" font-size="10.00">include/rel/d/a/d_a</text>
<text text-anchor="middle" x="1266" y="-78.5" font-family="Helvetica,sans-Serif" font-size="10.00">_guard_mng/d_a_guard_mng.h</text>
</a>
</g>
</g>
<!-- Node3&#45;&gt;Node54 -->
<g id="edge17" class="edge">
<title>Node3&#45;&gt;Node54</title>
<path fill="none" stroke="#63b8ff" d="M2379.46,-142.85C1924.66,-87.03 1801.32,-166.69 1350,-107 1340.65,-105.76 1330.81,-103.95 1321.3,-101.93"/>
<polygon fill="#63b8ff" stroke="#63b8ff" points="2378.75,-146.29 2389.1,-144.05 2379.61,-139.35 2378.75,-146.29"/>
</g>
<!-- Node55 -->
<g id="node18" class="node">
<title>Node55</title>
<g id="a_node18"><a xlink:href="d__a__hitobj_8h.html" target="_top" xlink:title=" ">
<polygon fill="white" stroke="#666666" points="1459,-101.5 1359,-101.5 1359,-71.5 1459,-71.5 1459,-101.5"/>
<text text-anchor="start" x="1367" y="-89.5" font-family="Helvetica,sans-Serif" font-size="10.00">include/rel/d/a/d_a</text>
<text text-anchor="middle" x="1409" y="-78.5" font-family="Helvetica,sans-Serif" font-size="10.00">_hitobj/d_a_hitobj.h</text>
</a>
</g>
</g>
<!-- Node3&#45;&gt;Node55 -->
<g id="edge18" class="edge">
<title>Node3&#45;&gt;Node55</title>
<path fill="none" stroke="#63b8ff" d="M2379.23,-142.82C1977.12,-93.01 1865.05,-177.77 1469,-107 1462.21,-105.79 1455.12,-103.99 1448.3,-101.97"/>
<polygon fill="#63b8ff" stroke="#63b8ff" points="2378.74,-146.29 2389.1,-144.07 2379.62,-139.34 2378.74,-146.29"/>
</g>
<!-- Node56 -->
<g id="node19" class="node">
<title>Node56</title>
<g id="a_node19"><a xlink:href="d__a__set__bgobj_8h.html" target="_top" xlink:title=" ">
<polygon fill="white" stroke="#666666" points="1614.5,-101.5 1477.5,-101.5 1477.5,-71.5 1614.5,-71.5 1614.5,-101.5"/>
<text text-anchor="start" x="1485.5" y="-89.5" font-family="Helvetica,sans-Serif" font-size="10.00">include/rel/d/a/d_a</text>
<text text-anchor="middle" x="1546" y="-78.5" font-family="Helvetica,sans-Serif" font-size="10.00">_set_bgobj/d_a_set_bgobj.h</text>
</a>
</g>
</g>
<!-- Node3&#45;&gt;Node56 -->
<g id="edge19" class="edge">
<title>Node3&#45;&gt;Node56</title>
<path fill="none" stroke="#63b8ff" d="M2379.63,-142.85C2045.68,-100.03 1954.09,-155.61 1624,-107 1615.44,-105.74 1606.45,-103.95 1597.74,-101.95"/>
<polygon fill="#63b8ff" stroke="#63b8ff" points="2378.73,-146.27 2389.1,-144.09 2379.63,-139.32 2378.73,-146.27"/>
</g>
<!-- Node57 -->
<g id="node20" class="node">
<title>Node57</title>
<g id="a_node20"><a xlink:href="d__a__skip__2D_8h.html" target="_top" xlink:title=" ">
<polygon fill="white" stroke="#666666" points="1757,-101.5 1633,-101.5 1633,-71.5 1757,-71.5 1757,-101.5"/>
<text text-anchor="start" x="1641" y="-89.5" font-family="Helvetica,sans-Serif" font-size="10.00">include/rel/d/a/d_a</text>
<text text-anchor="middle" x="1695" y="-78.5" font-family="Helvetica,sans-Serif" font-size="10.00">_skip_2D/d_a_skip_2D.h</text>
</a>
</g>
</g>
<!-- Node3&#45;&gt;Node57 -->
<g id="edge20" class="edge">
<title>Node3&#45;&gt;Node57</title>
<path fill="none" stroke="#63b8ff" d="M2379.21,-142.78C2108.27,-106.82 2032.9,-150.95 1766,-107 1758.18,-105.71 1749.98,-103.9 1742.05,-101.9"/>
<polygon fill="#63b8ff" stroke="#63b8ff" points="2378.71,-146.24 2389.09,-144.12 2379.65,-139.31 2378.71,-146.24"/>
</g>
<!-- Node58 -->
<g id="node21" class="node">
<title>Node58</title>
<g id="a_node21"><a xlink:href="d__a__spinner_8h.html" target="_top" xlink:title=" ">
<polygon fill="#fff0f0" stroke="red" points="1891,-101.5 1775,-101.5 1775,-71.5 1891,-71.5 1891,-101.5"/>
<text text-anchor="start" x="1783" y="-89.5" font-family="Helvetica,sans-Serif" font-size="10.00">include/rel/d/a/d_a</text>
<text text-anchor="middle" x="1833" y="-78.5" font-family="Helvetica,sans-Serif" font-size="10.00">_spinner/d_a_spinner.h</text>
</a>
</g>
</g>
<!-- Node3&#45;&gt;Node58 -->
<g id="edge21" class="edge">
<title>Node3&#45;&gt;Node58</title>
<path fill="none" stroke="#63b8ff" d="M2379.39,-142.77C2167.41,-113.09 2107.78,-144.57 1900,-107 1892.73,-105.69 1885.12,-103.89 1877.74,-101.92"/>
<polygon fill="#63b8ff" stroke="#63b8ff" points="2378.69,-146.21 2389.09,-144.16 2379.68,-139.28 2378.69,-146.21"/>
</g>
<!-- Node61 -->
<g id="node22" class="node">
<title>Node61</title>
<g id="a_node22"><a xlink:href="d__a__swTime_8h.html" target="_top" xlink:title=" ">
<polygon fill="white" stroke="#666666" points="2031,-101.5 1909,-101.5 1909,-71.5 2031,-71.5 2031,-101.5"/>
<text text-anchor="start" x="1917" y="-89.5" font-family="Helvetica,sans-Serif" font-size="10.00">include/rel/d/a/d_a</text>
<text text-anchor="middle" x="1970" y="-78.5" font-family="Helvetica,sans-Serif" font-size="10.00">_swTime/d_a_swTime.h</text>
</a>
</g>
</g>
<!-- Node3&#45;&gt;Node61 -->
<g id="edge22" class="edge">
<title>Node3&#45;&gt;Node61</title>
<path fill="none" stroke="#63b8ff" d="M2379.55,-142.73C2229.13,-119.4 2186.62,-134.94 2040,-107 2032.81,-105.63 2025.29,-103.88 2017.95,-101.99"/>
<polygon fill="#63b8ff" stroke="#63b8ff" points="2378.65,-146.13 2389.07,-144.24 2379.75,-139.22 2378.65,-146.13"/>
</g>
<!-- Node62 -->
<g id="node23" class="node">
<title>Node62</title>
<g id="a_node23"><a xlink:href="d__a__vrbox_8h.html" target="_top" xlink:title=" ">
<polygon fill="white" stroke="#666666" points="2149,-101.5 2049,-101.5 2049,-71.5 2149,-71.5 2149,-101.5"/>
<text text-anchor="start" x="2057" y="-89.5" font-family="Helvetica,sans-Serif" font-size="10.00">include/rel/d/a/d_a</text>
<text text-anchor="middle" x="2099" y="-78.5" font-family="Helvetica,sans-Serif" font-size="10.00">_vrbox/d_a_vrbox.h</text>
</a>
</g>
</g>
<!-- Node3&#45;&gt;Node62 -->
<g id="edge23" class="edge">
<title>Node3&#45;&gt;Node62</title>
<path fill="none" stroke="#63b8ff" d="M2379.23,-142.56C2281.34,-124.68 2253.06,-129.73 2159,-107 2153.04,-105.56 2146.81,-103.82 2140.73,-101.97"/>
<polygon fill="#63b8ff" stroke="#63b8ff" points="2378.58,-146 2389.05,-144.39 2379.86,-139.12 2378.58,-146"/>
</g>
<!-- Node63 -->
<g id="node24" class="node">
<title>Node63</title>
<g id="a_node24"><a xlink:href="d__a__e__db__leaf_8h.html" target="_top" xlink:title=" ">
<polygon fill="white" stroke="#666666" points="2286.5,-107 2167.5,-107 2167.5,-66 2286.5,-66 2286.5,-107"/>
<text text-anchor="start" x="2175.5" y="-95" font-family="Helvetica,sans-Serif" font-size="10.00">include/rel/d/a/e/d</text>
<text text-anchor="start" x="2175.5" y="-84" font-family="Helvetica,sans-Serif" font-size="10.00">_a_e_db_leaf/d_a_e_db</text>
<text text-anchor="middle" x="2227" y="-73" font-family="Helvetica,sans-Serif" font-size="10.00">_leaf.h</text>
</a>
</g>
</g>
<!-- Node3&#45;&gt;Node63 -->
<g id="edge24" class="edge">
<title>Node3&#45;&gt;Node63</title>
<path fill="none" stroke="#63b8ff" d="M2389.55,-139.09C2358.03,-129.08 2318.77,-116.62 2286.73,-106.46"/>
<polygon fill="#63b8ff" stroke="#63b8ff" points="2388.32,-142.37 2398.91,-142.06 2390.44,-135.7 2388.32,-142.37"/>
</g>
<!-- Node64 -->
<g id="node25" class="node">
<title>Node64</title>
<g id="a_node25"><a xlink:href="d__a__kytag02_8h.html" target="_top" xlink:title=" ">
<polygon fill="white" stroke="#666666" points="2445,-101.5 2305,-101.5 2305,-71.5 2445,-71.5 2445,-101.5"/>
<text text-anchor="start" x="2313" y="-89.5" font-family="Helvetica,sans-Serif" font-size="10.00">include/rel/d/a/kytag</text>
<text text-anchor="middle" x="2375" y="-78.5" font-family="Helvetica,sans-Serif" font-size="10.00">/d_a_kytag02/d_a_kytag02.h</text>
</a>
</g>
</g>
<!-- Node3&#45;&gt;Node64 -->
<g id="edge27" class="edge">
<title>Node3&#45;&gt;Node64</title>
<path fill="none" stroke="#63b8ff" d="M2423.32,-134.8C2412.31,-124.02 2399.4,-111.38 2389.69,-101.88"/>
<polygon fill="#63b8ff" stroke="#63b8ff" points="2420.61,-137.05 2430.21,-141.54 2425.51,-132.04 2420.61,-137.05"/>
</g>
<!-- Node65 -->
<g id="node26" class="node">
<title>Node65</title>
<g id="a_node26"><a xlink:href="d__a__obj__bombf_8h.html" target="_top" xlink:title=" ">
<polygon fill="white" stroke="#666666" points="122,-107 0,-107 0,-66 122,-66 122,-107"/>
<text text-anchor="start" x="8" y="-95" font-family="Helvetica,sans-Serif" font-size="10.00">include/rel/d/a/obj</text>
<text text-anchor="start" x="8" y="-84" font-family="Helvetica,sans-Serif" font-size="10.00">/d_a_obj_bombf/d_a_obj</text>
<text text-anchor="middle" x="61" y="-73" font-family="Helvetica,sans-Serif" font-size="10.00">_bombf.h</text>
</a>
</g>
</g>
<!-- Node3&#45;&gt;Node65 -->
<g id="edge28" class="edge">
<title>Node3&#45;&gt;Node65</title>
<path fill="none" stroke="#63b8ff" d="M2379.38,-142.91C1866.66,-86.62 622.49,-178.19 131,-107 128.13,-106.58 125.21,-106.09 122.27,-105.52"/>
<polygon fill="#63b8ff" stroke="#63b8ff" points="2378.78,-146.36 2389.11,-144.01 2379.56,-139.4 2378.78,-146.36"/>
</g>
<!-- Node66 -->
<g id="node27" class="node">
<title>Node66</title>
<g id="a_node27"><a xlink:href="d__a__obj__cboard_8h.html" target="_top" xlink:title=" ">
<polygon fill="white" stroke="#666666" points="2570.5,-107 2463.5,-107 2463.5,-66 2570.5,-66 2570.5,-107"/>
<text text-anchor="start" x="2471.5" y="-95" font-family="Helvetica,sans-Serif" font-size="10.00">include/rel/d/a/obj</text>
<text text-anchor="start" x="2471.5" y="-84" font-family="Helvetica,sans-Serif" font-size="10.00">/d_a_obj_cboard/d_a</text>
<text text-anchor="middle" x="2517" y="-73" font-family="Helvetica,sans-Serif" font-size="10.00">_obj_cboard.h</text>
</a>
</g>
</g>
<!-- Node3&#45;&gt;Node66 -->
<g id="edge29" class="edge">
<title>Node3&#45;&gt;Node66</title>
<path fill="none" stroke="#63b8ff" d="M2468.82,-134.66C2477.77,-125.9 2487.96,-115.93 2496.65,-107.42"/>
<polygon fill="#63b8ff" stroke="#63b8ff" points="2466.49,-132.04 2461.79,-141.54 2471.39,-137.05 2466.49,-132.04"/>
</g>
<!-- Node67 -->
<g id="node28" class="node">
<title>Node67</title>
<g id="a_node28"><a xlink:href="d__a__obj__cowdoor_8h.html" target="_top" xlink:title=" ">
<polygon fill="white" stroke="#666666" points="2703,-107 2589,-107 2589,-66 2703,-66 2703,-107"/>
<text text-anchor="start" x="2597" y="-95" font-family="Helvetica,sans-Serif" font-size="10.00">include/rel/d/a/obj</text>
<text text-anchor="start" x="2597" y="-84" font-family="Helvetica,sans-Serif" font-size="10.00">/d_a_obj_cowdoor/d_a</text>
<text text-anchor="middle" x="2646" y="-73" font-family="Helvetica,sans-Serif" font-size="10.00">_obj_cowdoor.h</text>
</a>
</g>
</g>
<!-- Node3&#45;&gt;Node67 -->
<g id="edge30" class="edge">
<title>Node3&#45;&gt;Node67</title>
<path fill="none" stroke="#63b8ff" d="M2498.14,-138.88C2525.92,-129.23 2560.16,-117.33 2588.69,-107.42"/>
<polygon fill="#63b8ff" stroke="#63b8ff" points="2497.17,-135.51 2488.87,-142.1 2499.46,-142.13 2497.17,-135.51"/>
</g>
<!-- Node68 -->
<g id="node29" class="node">
<title>Node68</title>
<g id="a_node29"><a xlink:href="d__a__obj__digholl_8h.html" target="_top" xlink:title=" ">
<polygon fill="white" stroke="#666666" points="2826.5,-107 2721.5,-107 2721.5,-66 2826.5,-66 2826.5,-107"/>
<text text-anchor="start" x="2729.5" y="-95" font-family="Helvetica,sans-Serif" font-size="10.00">include/rel/d/a/obj</text>
<text text-anchor="start" x="2729.5" y="-84" font-family="Helvetica,sans-Serif" font-size="10.00">/d_a_obj_digholl/d_a</text>
<text text-anchor="middle" x="2774" y="-73" font-family="Helvetica,sans-Serif" font-size="10.00">_obj_digholl.h</text>
</a>
</g>
</g>
<!-- Node3&#45;&gt;Node68 -->
<g id="edge31" class="edge">
<title>Node3&#45;&gt;Node68</title>
<path fill="none" stroke="#63b8ff" d="M2512.49,-143.49C2513.33,-143.32 2514.17,-143.16 2515,-143 2602.4,-126.15 2625.6,-128.39 2712,-107 2714.96,-106.27 2717.98,-105.47 2721.02,-104.64"/>
<polygon fill="#63b8ff" stroke="#63b8ff" points="2511.97,-140.02 2502.83,-145.38 2513.31,-146.89 2511.97,-140.02"/>
</g>
<!-- Node69 -->
<g id="node30" class="node">
<title>Node69</title>
<g id="a_node30"><a xlink:href="d__a__obj__enemy__create_8h.html" target="_top" xlink:title=" ">
<polygon fill="white" stroke="#666666" points="2971.5,-107 2844.5,-107 2844.5,-66 2971.5,-66 2971.5,-107"/>
<text text-anchor="start" x="2852.5" y="-95" font-family="Helvetica,sans-Serif" font-size="10.00">include/rel/d/a/obj</text>
<text text-anchor="start" x="2852.5" y="-84" font-family="Helvetica,sans-Serif" font-size="10.00">/d_a_obj_enemy_create</text>
<text text-anchor="middle" x="2908" y="-73" font-family="Helvetica,sans-Serif" font-size="10.00">/d_a_obj_enemy_create.h</text>
</a>
</g>
</g>
<!-- Node3&#45;&gt;Node69 -->
<g id="edge32" class="edge">
<title>Node3&#45;&gt;Node69</title>
<path fill="none" stroke="#63b8ff" d="M2512.47,-143.4C2513.32,-143.27 2514.16,-143.13 2515,-143 2656.82,-120.7 2694.97,-133.84 2836,-107 2838.67,-106.49 2841.39,-105.94 2844.13,-105.34"/>
<polygon fill="#63b8ff" stroke="#63b8ff" points="2512.03,-139.93 2502.78,-145.08 2513.22,-146.83 2512.03,-139.93"/>
</g>
<!-- Node70 -->
<g id="node31" class="node">
<title>Node70</title>
<g id="a_node31"><a xlink:href="d__a__obj__kjgjs_8h.html" target="_top" xlink:title=" ">
<polygon fill="white" stroke="#666666" points="3106,-107 2990,-107 2990,-66 3106,-66 3106,-107"/>
<text text-anchor="start" x="2998" y="-95" font-family="Helvetica,sans-Serif" font-size="10.00">include/rel/d/a/obj</text>
<text text-anchor="start" x="2998" y="-84" font-family="Helvetica,sans-Serif" font-size="10.00">/d_a_obj_kjgjs/d_a_obj</text>
<text text-anchor="middle" x="3048" y="-73" font-family="Helvetica,sans-Serif" font-size="10.00">_kjgjs.h</text>
</a>
</g>
</g>
<!-- Node3&#45;&gt;Node70 -->
<g id="edge33" class="edge">
<title>Node3&#45;&gt;Node70</title>
<path fill="none" stroke="#63b8ff" d="M2512.47,-143.36C2513.32,-143.24 2514.16,-143.12 2515,-143 2720.74,-114.29 2776.63,-144.22 2981,-107 2983.86,-106.48 2986.77,-105.88 2989.7,-105.23"/>
<polygon fill="#63b8ff" stroke="#63b8ff" points="2512.07,-139.88 2502.75,-144.92 2513.18,-146.79 2512.07,-139.88"/>
</g>
<!-- Node71 -->
<g id="node32" class="node">
<title>Node71</title>
<g id="a_node32"><a xlink:href="d__a__obj__mgate_8h.html" target="_top" xlink:title=" ">
<polygon fill="white" stroke="#666666" points="3246,-107 3124,-107 3124,-66 3246,-66 3246,-107"/>
<text text-anchor="start" x="3132" y="-95" font-family="Helvetica,sans-Serif" font-size="10.00">include/rel/d/a/obj</text>
<text text-anchor="start" x="3132" y="-84" font-family="Helvetica,sans-Serif" font-size="10.00">/d_a_obj_mgate/d_a_obj</text>
<text text-anchor="middle" x="3185" y="-73" font-family="Helvetica,sans-Serif" font-size="10.00">_mgate.h</text>
</a>
</g>
</g>
<!-- Node3&#45;&gt;Node71 -->
<g id="edge34" class="edge">
<title>Node3&#45;&gt;Node71</title>
<path fill="none" stroke="#63b8ff" d="M2512.46,-143.34C2513.31,-143.22 2514.16,-143.11 2515,-143 2779.89,-108.35 2851.52,-151.09 3115,-107 3117.86,-106.52 3120.77,-105.97 3123.71,-105.37"/>
<polygon fill="#63b8ff" stroke="#63b8ff" points="2512.09,-139.86 2502.74,-144.85 2513.16,-146.78 2512.09,-139.86"/>
</g>
<!-- Node72 -->
<g id="node33" class="node">
<title>Node72</title>
<g id="a_node33"><a xlink:href="d__a__obj__onsen_8h.html" target="_top" xlink:title=" ">
<polygon fill="white" stroke="#666666" points="3386,-107 3264,-107 3264,-66 3386,-66 3386,-107"/>
<text text-anchor="start" x="3272" y="-95" font-family="Helvetica,sans-Serif" font-size="10.00">include/rel/d/a/obj</text>
<text text-anchor="start" x="3272" y="-84" font-family="Helvetica,sans-Serif" font-size="10.00">/d_a_obj_onsen/d_a_obj</text>
<text text-anchor="middle" x="3325" y="-73" font-family="Helvetica,sans-Serif" font-size="10.00">_onsen.h</text>
</a>
</g>
</g>
<!-- Node3&#45;&gt;Node72 -->
<g id="edge35" class="edge">
<title>Node3&#45;&gt;Node72</title>
<path fill="none" stroke="#63b8ff" d="M2512.46,-143.33C2513.31,-143.22 2514.16,-143.11 2515,-143 2841.73,-102.14 2929.94,-159.51 3255,-107 3257.86,-106.54 3260.78,-106 3263.71,-105.41"/>
<polygon fill="#63b8ff" stroke="#63b8ff" points="2512.1,-139.84 2502.74,-144.8 2513.15,-146.77 2512.1,-139.84"/>
</g>
<!-- Node73 -->
<g id="node34" class="node">
<title>Node73</title>
<g id="a_node34"><a xlink:href="d__a__obj__onsenFire_8h.html" target="_top" xlink:title=" ">
<polygon fill="white" stroke="#666666" points="3514,-107 3404,-107 3404,-66 3514,-66 3514,-107"/>
<text text-anchor="start" x="3412" y="-95" font-family="Helvetica,sans-Serif" font-size="10.00">include/rel/d/a/obj</text>
<text text-anchor="start" x="3412" y="-84" font-family="Helvetica,sans-Serif" font-size="10.00">/d_a_obj_onsenFire/d</text>
<text text-anchor="middle" x="3459" y="-73" font-family="Helvetica,sans-Serif" font-size="10.00">_a_obj_onsenFire.h</text>
</a>
</g>
</g>
<!-- Node3&#45;&gt;Node73 -->
<g id="edge36" class="edge">
<title>Node3&#45;&gt;Node73</title>
<path fill="none" stroke="#63b8ff" d="M2512.46,-143.32C2513.31,-143.21 2514.16,-143.1 2515,-143 2903.6,-95.93 3009.09,-172.58 3395,-107 3397.86,-106.51 3400.78,-105.94 3403.7,-105.29"/>
<polygon fill="#63b8ff" stroke="#63b8ff" points="2512.11,-139.83 2502.73,-144.76 2513.14,-146.76 2512.11,-139.83"/>
</g>
<!-- Node74 -->
<g id="node35" class="node">
<title>Node74</title>
<g id="a_node35"><a xlink:href="d__a__obj__prop_8h.html" target="_top" xlink:title=" ">
<polygon fill="white" stroke="#666666" points="3646,-107 3532,-107 3532,-66 3646,-66 3646,-107"/>
<text text-anchor="start" x="3540" y="-95" font-family="Helvetica,sans-Serif" font-size="10.00">include/rel/d/a/obj</text>
<text text-anchor="start" x="3540" y="-84" font-family="Helvetica,sans-Serif" font-size="10.00">/d_a_obj_prop/d_a_obj</text>
<text text-anchor="middle" x="3589" y="-73" font-family="Helvetica,sans-Serif" font-size="10.00">_prop.h</text>
</a>
</g>
</g>
<!-- Node3&#45;&gt;Node74 -->
<g id="edge37" class="edge">
<title>Node3&#45;&gt;Node74</title>
<path fill="none" stroke="#63b8ff" d="M2512.46,-143.31C2513.31,-143.2 2514.16,-143.1 2515,-143 2960.17,-90.25 3080.55,-179.08 3523,-107 3525.83,-106.54 3528.71,-105.99 3531.6,-105.38"/>
<polygon fill="#63b8ff" stroke="#63b8ff" points="2512.12,-139.83 2502.73,-144.74 2513.13,-146.75 2512.12,-139.83"/>
</g>
<!-- Node75 -->
<g id="node36" class="node">
<title>Node75</title>
<g id="a_node36"><a xlink:href="d__a__obj__rcircle_8h.html" target="_top" xlink:title=" ">
<polygon fill="white" stroke="#666666" points="3768,-107 3664,-107 3664,-66 3768,-66 3768,-107"/>
<text text-anchor="start" x="3672" y="-95" font-family="Helvetica,sans-Serif" font-size="10.00">include/rel/d/a/obj</text>
<text text-anchor="start" x="3672" y="-84" font-family="Helvetica,sans-Serif" font-size="10.00">/d_a_obj_rcircle/d_a</text>
<text text-anchor="middle" x="3716" y="-73" font-family="Helvetica,sans-Serif" font-size="10.00">_obj_rcircle.h</text>
</a>
</g>
</g>
<!-- Node3&#45;&gt;Node75 -->
<g id="edge38" class="edge">
<title>Node3&#45;&gt;Node75</title>
<path fill="none" stroke="#63b8ff" d="M2512.46,-143.31C2513.31,-143.2 2514.16,-143.1 2515,-143 3018.52,-84.39 3155.43,-193.01 3655,-107 3657.85,-106.51 3660.75,-105.92 3663.66,-105.25"/>
<polygon fill="#63b8ff" stroke="#63b8ff" points="2512.12,-139.82 2502.73,-144.72 2513.13,-146.75 2512.12,-139.82"/>
</g>
<!-- Node76 -->
<g id="node37" class="node">
<title>Node76</title>
<g id="a_node37"><a xlink:href="d__a__obj__smoke_8h.html" target="_top" xlink:title=" ">
<polygon fill="white" stroke="#666666" points="3911.5,-107 3786.5,-107 3786.5,-66 3911.5,-66 3911.5,-107"/>
<text text-anchor="start" x="3794.5" y="-95" font-family="Helvetica,sans-Serif" font-size="10.00">include/rel/d/a/obj</text>
<text text-anchor="start" x="3794.5" y="-84" font-family="Helvetica,sans-Serif" font-size="10.00">/d_a_obj_smoke/d_a_obj</text>
<text text-anchor="middle" x="3849" y="-73" font-family="Helvetica,sans-Serif" font-size="10.00">_smoke.h</text>
</a>
</g>
</g>
<!-- Node3&#45;&gt;Node76 -->
<g id="edge39" class="edge">
<title>Node3&#45;&gt;Node76</title>
<path fill="none" stroke="#63b8ff" d="M2512.46,-143.31C2513.31,-143.2 2514.16,-143.1 2515,-143 3072.45,-78.98 3221.89,-188.91 3777,-107 3780.07,-106.55 3783.21,-106.01 3786.36,-105.4"/>
<polygon fill="#63b8ff" stroke="#63b8ff" points="2512.12,-139.82 2502.73,-144.71 2513.12,-146.75 2512.12,-139.82"/>
</g>
<!-- Node77 -->
<g id="node38" class="node">
<title>Node77</title>
<g id="a_node38"><a xlink:href="d__a__obj__stone_8h.html" target="_top" xlink:title=" ">
<polygon fill="white" stroke="#666666" points="4048.5,-107 3929.5,-107 3929.5,-66 4048.5,-66 4048.5,-107"/>
<text text-anchor="start" x="3937.5" y="-95" font-family="Helvetica,sans-Serif" font-size="10.00">include/rel/d/a/obj</text>
<text text-anchor="start" x="3937.5" y="-84" font-family="Helvetica,sans-Serif" font-size="10.00">/d_a_obj_stone/d_a_obj</text>
<text text-anchor="middle" x="3989" y="-73" font-family="Helvetica,sans-Serif" font-size="10.00">_stone.h</text>
</a>
</g>
</g>
<!-- Node3&#45;&gt;Node77 -->
<g id="edge40" class="edge">
<title>Node3&#45;&gt;Node77</title>
<path fill="none" stroke="#63b8ff" d="M2512.46,-143.3C2513.31,-143.2 2514.16,-143.1 2515,-143 2825.56,-107.79 3612.08,-154.46 3921,-107 3923.67,-106.59 3926.38,-106.11 3929.11,-105.56"/>
<polygon fill="#63b8ff" stroke="#63b8ff" points="2512.13,-139.81 2502.72,-144.7 2513.12,-146.74 2512.13,-139.81"/>
</g>
<!-- Node3&#45;&gt;Node112 -->
<g id="edge41" class="edge">
<title>Node3&#45;&gt;Node112</title>
<path fill="none" stroke="#63b8ff" d="M2512.46,-143.29C2513.31,-143.19 2514.16,-143.09 2515,-143 2938.97,-96.4 4012.46,-172.01 4434,-107 4448.05,-104.83 4463.3,-100.47 4475.6,-96.41"/>
<polygon fill="#63b8ff" stroke="#63b8ff" points="2512.13,-139.8 2502.72,-144.67 2513.11,-146.74 2512.13,-139.8"/>
</g>
<!-- Node11&#45;&gt;Node12 -->
<g id="edge5" class="edge">
<title>Node11&#45;&gt;Node12</title>
<path fill="none" stroke="#63b8ff" d="M4271.26,-70.45C4253.25,-58.53 4228.26,-41.99 4210.57,-30.27"/>
<polygon fill="#63b8ff" stroke="#63b8ff" points="4269.17,-73.26 4279.44,-75.86 4273.03,-67.42 4269.17,-73.26"/>
</g>
<!-- Node11&#45;&gt;Node18 -->
<g id="edge6" class="edge">
<title>Node11&#45;&gt;Node18</title>
<path fill="none" stroke="#63b8ff" d="M4299.11,-65.76C4302.04,-54.45 4305.65,-40.52 4308.3,-30.27"/>
<polygon fill="#63b8ff" stroke="#63b8ff" points="4295.78,-64.67 4296.66,-75.23 4302.55,-66.43 4295.78,-64.67"/>
</g>
<!-- Node11&#45;&gt;Node19 -->
<g id="edge7" class="edge">
<title>Node11&#45;&gt;Node19</title>
<path fill="none" stroke="#63b8ff" d="M4322.52,-71.64C4347.06,-59.71 4382.33,-42.57 4407.22,-30.47"/>
<polygon fill="#63b8ff" stroke="#63b8ff" points="4321.23,-68.38 4313.76,-75.89 4324.29,-74.67 4321.23,-68.38"/>
</g>
<!-- Node175&#45;&gt;Node173 -->
<g id="edge53" class="edge">
<title>Node175&#45;&gt;Node173</title>
<path fill="none" stroke="#63b8ff" d="M2012.48,-214.32C2076.09,-205.29 2176.67,-190.09 2263,-173 2265.69,-172.47 2268.43,-171.9 2271.2,-171.31"/>
<polygon fill="#63b8ff" stroke="#63b8ff" points="2012.35,-210.8 2002.94,-215.67 2013.33,-217.73 2012.35,-210.8"/>
</g>
<!-- Node176 -->
<g id="node43" class="node">
<title>Node176</title>
<g id="a_node43"><a xlink:href="d__a__alink_8h.html" target="_top" xlink:title=" ">
<polygon fill="#fff0f0" stroke="red" points="2007,-167.5 1891,-167.5 1891,-148.5 2007,-148.5 2007,-167.5"/>
<text text-anchor="middle" x="1949" y="-155.5" font-family="Helvetica,sans-Serif" font-size="10.00">include/d/a/d_a_alink.h</text>
</a>
</g>
</g>
<!-- Node175&#45;&gt;Node176 -->
<g id="edge46" class="edge">
<title>Node175&#45;&gt;Node176</title>
<path fill="none" stroke="#63b8ff" d="M1949,-197.59C1949,-187.06 1949,-175.53 1949,-167.84"/>
<polygon fill="#63b8ff" stroke="#63b8ff" points="1945.5,-197.28 1949,-207.28 1952.5,-197.28 1945.5,-197.28"/>
</g>
<!-- Node177 -->
<g id="node44" class="node">
<title>Node177</title>
<g id="a_node44"><a xlink:href="d__bomb_8h.html" target="_top" xlink:title=" ">
<polygon fill="#fff0f0" stroke="red" points="1872.5,-167.5 1771.5,-167.5 1771.5,-148.5 1872.5,-148.5 1872.5,-167.5"/>
<text text-anchor="middle" x="1822" y="-155.5" font-family="Helvetica,sans-Serif" font-size="10.00">include/d/d_bomb.h</text>
</a>
</g>
</g>
<!-- Node175&#45;&gt;Node177 -->
<g id="edge47" class="edge">
<title>Node175&#45;&gt;Node177</title>
<path fill="none" stroke="#63b8ff" d="M1910.48,-203.59C1886.99,-191.75 1858.07,-177.18 1839.83,-167.99"/>
<polygon fill="#63b8ff" stroke="#63b8ff" points="1908.64,-206.58 1919.15,-207.96 1911.79,-200.33 1908.64,-206.58"/>
</g>
<!-- Node179 -->
<g id="node45" class="node">
<title>Node179</title>
<g id="a_node45"><a xlink:href="d__camera_8h.html" target="_top" xlink:title=" ">
<polygon fill="#fff0f0" stroke="red" points="2134.5,-167.5 2025.5,-167.5 2025.5,-148.5 2134.5,-148.5 2134.5,-167.5"/>
<text text-anchor="middle" x="2080" y="-155.5" font-family="Helvetica,sans-Serif" font-size="10.00">include/d/d_camera.h</text>
</a>
</g>
</g>
<!-- Node175&#45;&gt;Node179 -->
<g id="edge49" class="edge">
<title>Node175&#45;&gt;Node179</title>
<path fill="none" stroke="#63b8ff" d="M1988.73,-203.59C2012.97,-191.75 2042.79,-177.18 2061.61,-167.99"/>
<polygon fill="#63b8ff" stroke="#63b8ff" points="1987.21,-200.44 1979.76,-207.97 1990.28,-206.73 1987.21,-200.44"/>
</g>
<!-- Node184 -->
<g id="node46" class="node">
<title>Node184</title>
<g id="a_node46"><a xlink:href="d__a__arrow_8h.html" target="_top" xlink:title=" ">
<polygon fill="white" stroke="#666666" points="2253.5,-173 2152.5,-173 2152.5,-143 2253.5,-143 2253.5,-173"/>
<text text-anchor="start" x="2160.5" y="-161" font-family="Helvetica,sans-Serif" font-size="10.00">include/rel/d/a/d_a</text>
<text text-anchor="middle" x="2203" y="-150" font-family="Helvetica,sans-Serif" font-size="10.00">_arrow/d_a_arrow.h</text>
</a>
</g>
</g>
<!-- Node175&#45;&gt;Node184 -->
<g id="edge50" class="edge">
<title>Node175&#45;&gt;Node184</title>
<path fill="none" stroke="#63b8ff" d="M2012.27,-207.06C2055.41,-196.19 2111.8,-181.98 2152.05,-171.84"/>
<polygon fill="#63b8ff" stroke="#63b8ff" points="2011.63,-203.61 2002.79,-209.45 2013.34,-210.4 2011.63,-203.61"/>
</g>
<!-- Node185 -->
<g id="node47" class="node">
<title>Node185</title>
<g id="a_node47"><a xlink:href="d__a__boomerang_8h.html" target="_top" xlink:title=" ">
<polygon fill="#fff0f0" stroke="red" points="1509.5,-173 1360.5,-173 1360.5,-143 1509.5,-143 1509.5,-173"/>
<text text-anchor="start" x="1368.5" y="-161" font-family="Helvetica,sans-Serif" font-size="10.00">include/rel/d/a/d_a</text>
<text text-anchor="middle" x="1435" y="-150" font-family="Helvetica,sans-Serif" font-size="10.00">_boomerang/d_a_boomerang.h</text>
</a>
</g>
</g>
<!-- Node175&#45;&gt;Node185 -->
<g id="edge51" class="edge">
<title>Node175&#45;&gt;Node185</title>
<path fill="none" stroke="#63b8ff" d="M1885.2,-216.58C1801.13,-207.88 1648.71,-191.34 1519,-173 1515.93,-172.57 1512.79,-172.11 1509.63,-171.63"/>
<polygon fill="#63b8ff" stroke="#63b8ff" points="1884.79,-220.05 1895.1,-217.6 1885.51,-213.09 1884.79,-220.05"/>
</g>
<!-- Node186 -->
<g id="node48" class="node">
<title>Node186</title>
<g id="a_node48"><a xlink:href="d__a__canoe_8h.html" target="_top" xlink:title=" ">
<polygon fill="white" stroke="#666666" points="1634,-173 1528,-173 1528,-143 1634,-143 1634,-173"/>
<text text-anchor="start" x="1536" y="-161" font-family="Helvetica,sans-Serif" font-size="10.00">include/rel/d/a/d_a</text>
<text text-anchor="middle" x="1581" y="-150" font-family="Helvetica,sans-Serif" font-size="10.00">_canoe/d_a_canoe.h</text>
</a>
</g>
</g>
<!-- Node175&#45;&gt;Node186 -->
<g id="edge52" class="edge">
<title>Node175&#45;&gt;Node186</title>
<path fill="none" stroke="#63b8ff" d="M1885.64,-213.67C1823.82,-204.33 1727.2,-189.05 1644,-173 1640.81,-172.38 1637.53,-171.73 1634.23,-171.05"/>
<polygon fill="#63b8ff" stroke="#63b8ff" points="1884.86,-217.1 1895.27,-215.12 1885.9,-210.17 1884.86,-217.1"/>
</g>
<!-- Node187 -->
<g id="node49" class="node">
<title>Node187</title>
<g id="a_node49"><a xlink:href="d__bg__s__lin__chk_8cpp.html" target="_top" xlink:title=" ">
<polygon fill="white" stroke="#666666" points="1753.5,-173 1652.5,-173 1652.5,-143 1753.5,-143 1753.5,-173"/>
<text text-anchor="start" x="1660.5" y="-161" font-family="Helvetica,sans-Serif" font-size="10.00">src/d/bg/d_bg_s_lin</text>
<text text-anchor="middle" x="1703" y="-150" font-family="Helvetica,sans-Serif" font-size="10.00">_chk.cpp</text>
</a>
</g>
</g>
<!-- Node175&#45;&gt;Node187 -->
<g id="edge54" class="edge">
<title>Node175&#45;&gt;Node187</title>
<path fill="none" stroke="#63b8ff" d="M1885.56,-206.5C1844.56,-195.83 1791.92,-182.13 1753.71,-172.19"/>
<polygon fill="#63b8ff" stroke="#63b8ff" points="1884.5,-209.84 1895.06,-208.97 1886.27,-203.06 1884.5,-209.84"/>
</g>
<!-- Node177&#45;&gt;Node65 -->
<g id="edge48" class="edge">
<title>Node177&#45;&gt;Node65</title>
<path fill="none" stroke="#63b8ff" d="M1778.55,-145.6C1773.34,-144.56 1768.07,-143.65 1763,-143 1403.19,-96.87 489.85,-160.09 131,-107 128.13,-106.58 125.21,-106.07 122.27,-105.5"/>
<polygon fill="#63b8ff" stroke="#63b8ff" points="1777.77,-149.01 1788.29,-147.73 1779.27,-142.17 1777.77,-149.01"/>
</g>
</g>
</svg>
