<?xml version="1.0" encoding="UTF-8" standalone="no"?>
<!DOCTYPE svg PUBLIC "-//W3C//DTD SVG 1.1//EN"
 "http://www.w3.org/Graphics/SVG/1.1/DTD/svg11.dtd">
<!-- Generated by graphviz version 7.0.5 (20221223.1930)
 -->
<!-- Title: include/SSystem/SComponent/c_math.h Pages: 1 -->
<svg width="3848pt" height="104pt"
 viewBox="0.00 0.00 3847.50 104.00" xmlns="http://www.w3.org/2000/svg" xmlns:xlink="http://www.w3.org/1999/xlink">
<g id="graph0" class="graph" transform="scale(1 1) rotate(0) translate(4 100)">
<title>include/SSystem/SComponent/c_math.h</title>
<!-- Node1 -->
<g id="node1" class="node">
<title>Node1</title>
<g id="a_node1"><a xlink:title=" ">
<polygon fill="#999999" stroke="#666666" points="1958,-96 1809,-96 1809,-66 1958,-66 1958,-96"/>
<text text-anchor="start" x="1817" y="-84" font-family="Helvetica,sans-Serif" font-size="10.00">include/SSystem/SComponent</text>
<text text-anchor="middle" x="1883.5" y="-73" font-family="Helvetica,sans-Serif" font-size="10.00">/c_math.h</text>
</a>
</g>
</g>
<!-- Node2 -->
<g id="node2" class="node">
<title>Node2</title>
<g id="a_node2"><a xlink:href="JASLfo_8cpp.html" target="_top" xlink:title=" ">
<polygon fill="white" stroke="#666666" points="111,-30 0,-30 0,0 111,0 111,-30"/>
<text text-anchor="start" x="8" y="-18" font-family="Helvetica,sans-Serif" font-size="10.00">libs/JSystem/JAudio2</text>
<text text-anchor="middle" x="55.5" y="-7" font-family="Helvetica,sans-Serif" font-size="10.00">/JASLfo.cpp</text>
</a>
</g>
</g>
<!-- Node1&#45;&gt;Node2 -->
<g id="edge1" class="edge">
<title>Node1&#45;&gt;Node2</title>
<path fill="none" stroke="#63b8ff" d="M1797.06,-79.65C1489.73,-78.08 450.64,-69.89 120.5,-30 117.52,-29.64 114.48,-29.21 111.41,-28.72"/>
<polygon fill="#63b8ff" stroke="#63b8ff" points="1797.02,-83.15 1807.04,-79.7 1797.06,-76.15 1797.02,-83.15"/>
</g>
<!-- Node3 -->
<g id="node3" class="node">
<title>Node3</title>
<g id="a_node3"><a xlink:href="c__lib_8cpp.html" target="_top" xlink:title=" ">
<polygon fill="white" stroke="#666666" points="263.5,-30 129.5,-30 129.5,0 263.5,0 263.5,-30"/>
<text text-anchor="start" x="137.5" y="-18" font-family="Helvetica,sans-Serif" font-size="10.00">libs/SSystem/SComponent</text>
<text text-anchor="middle" x="196.5" y="-7" font-family="Helvetica,sans-Serif" font-size="10.00">/c_lib.cpp</text>
</a>
</g>
</g>
<!-- Node1&#45;&gt;Node3 -->
<g id="edge2" class="edge">
<title>Node1&#45;&gt;Node3</title>
<path fill="none" stroke="#63b8ff" d="M1797.29,-79.04C1507.84,-75.57 572.12,-62.06 272.5,-30 269.7,-29.7 266.85,-29.36 263.97,-28.98"/>
<polygon fill="#63b8ff" stroke="#63b8ff" points="1796.99,-82.54 1807.03,-79.16 1797.07,-75.54 1796.99,-82.54"/>
</g>
<!-- Node4 -->
<g id="node4" class="node">
<title>Node4</title>
<g id="a_node4"><a xlink:href="c__m3d_8cpp.html" target="_top" xlink:title=" ">
<polygon fill="white" stroke="#666666" points="415.5,-30 281.5,-30 281.5,0 415.5,0 415.5,-30"/>
<text text-anchor="start" x="289.5" y="-18" font-family="Helvetica,sans-Serif" font-size="10.00">libs/SSystem/SComponent</text>
<text text-anchor="middle" x="348.5" y="-7" font-family="Helvetica,sans-Serif" font-size="10.00">/c_m3d.cpp</text>
</a>
</g>
</g>
<!-- Node1&#45;&gt;Node4 -->
<g id="edge3" class="edge">
<title>Node1&#45;&gt;Node4</title>
<path fill="none" stroke="#63b8ff" d="M1797.27,-78.72C1526.14,-74.43 693.08,-59.18 424.5,-30 421.7,-29.7 418.85,-29.35 415.97,-28.96"/>
<polygon fill="#63b8ff" stroke="#63b8ff" points="1797.03,-82.22 1807.09,-78.87 1797.14,-75.22 1797.03,-82.22"/>
</g>
<!-- Node5 -->
<g id="node5" class="node">
<title>Node5</title>
<g id="a_node5"><a xlink:href="c__math_8cpp.html" target="_top" xlink:title=" ">
<polygon fill="white" stroke="#666666" points="567.5,-30 433.5,-30 433.5,0 567.5,0 567.5,-30"/>
<text text-anchor="start" x="441.5" y="-18" font-family="Helvetica,sans-Serif" font-size="10.00">libs/SSystem/SComponent</text>
<text text-anchor="middle" x="500.5" y="-7" font-family="Helvetica,sans-Serif" font-size="10.00">/c_math.cpp</text>
</a>
</g>
</g>
<!-- Node1&#45;&gt;Node5 -->
<g id="edge4" class="edge">
<title>Node1&#45;&gt;Node5</title>
<path fill="none" stroke="#63b8ff" d="M1797.32,-78.32C1545.59,-73.17 814.2,-56.3 576.5,-30 573.7,-29.69 570.85,-29.34 567.97,-28.95"/>
<polygon fill="#63b8ff" stroke="#63b8ff" points="1797,-81.82 1807.07,-78.52 1797.14,-74.82 1797,-81.82"/>
</g>
<!-- Node6 -->
<g id="node6" class="node">
<title>Node6</title>
<g id="a_node6"><a xlink:href="c__xyz_8cpp.html" target="_top" xlink:title=" ">
<polygon fill="white" stroke="#666666" points="719.5,-30 585.5,-30 585.5,0 719.5,0 719.5,-30"/>
<text text-anchor="start" x="593.5" y="-18" font-family="Helvetica,sans-Serif" font-size="10.00">libs/SSystem/SComponent</text>
<text text-anchor="middle" x="652.5" y="-7" font-family="Helvetica,sans-Serif" font-size="10.00">/c_xyz.cpp</text>
</a>
</g>
</g>
<!-- Node1&#45;&gt;Node6 -->
<g id="edge5" class="edge">
<title>Node1&#45;&gt;Node6</title>
<path fill="none" stroke="#63b8ff" d="M1797.13,-80.35C1604.62,-80.23 1125.98,-74.99 728.5,-30 725.7,-29.68 722.85,-29.32 719.97,-28.93"/>
<polygon fill="#63b8ff" stroke="#63b8ff" points="1797.05,-83.85 1807.05,-80.35 1797.05,-76.85 1797.05,-83.85"/>
</g>
<!-- Node7 -->
<g id="node7" class="node">
<title>Node7</title>
<g id="a_node7"><a xlink:href="d__a__alink_8cpp.html" target="_top" xlink:title=" ">
<polygon fill="white" stroke="#666666" points="847,-24.5 738,-24.5 738,-5.5 847,-5.5 847,-24.5"/>
<text text-anchor="middle" x="792.5" y="-12.5" font-family="Helvetica,sans-Serif" font-size="10.00">src/d/a/d_a_alink.cpp</text>
</a>
</g>
</g>
<!-- Node1&#45;&gt;Node7 -->
<g id="edge6" class="edge">
<title>Node1&#45;&gt;Node7</title>
<path fill="none" stroke="#63b8ff" d="M1797.38,-80.64C1620.34,-80.89 1203.03,-76.01 856.5,-30 847.37,-28.79 837.61,-26.94 828.53,-24.98"/>
<polygon fill="#63b8ff" stroke="#63b8ff" points="1797.19,-84.14 1807.18,-80.62 1797.17,-77.14 1797.19,-84.14"/>
</g>
<!-- Node8 -->
<g id="node8" class="node">
<title>Node8</title>
<g id="a_node8"><a xlink:href="d__a__npc_8cpp.html" target="_top" xlink:title=" ">
<polygon fill="white" stroke="#666666" points="969.5,-24.5 865.5,-24.5 865.5,-5.5 969.5,-5.5 969.5,-24.5"/>
<text text-anchor="middle" x="917.5" y="-12.5" font-family="Helvetica,sans-Serif" font-size="10.00">src/d/a/d_a_npc.cpp</text>
</a>
</g>
</g>
<!-- Node1&#45;&gt;Node8 -->
<g id="edge7" class="edge">
<title>Node1&#45;&gt;Node8</title>
<path fill="none" stroke="#63b8ff" d="M1797.3,-80.11C1635.83,-79.24 1277.11,-72.2 978.5,-30 969.79,-28.77 960.48,-26.91 951.83,-24.96"/>
<polygon fill="#63b8ff" stroke="#63b8ff" points="1797.06,-83.61 1807.07,-80.16 1797.09,-76.61 1797.06,-83.61"/>
</g>
<!-- Node9 -->
<g id="node9" class="node">
<title>Node9</title>
<g id="a_node9"><a xlink:href="d__a__player_8cpp.html" target="_top" xlink:title=" ">
<polygon fill="white" stroke="#666666" points="1101.5,-24.5 987.5,-24.5 987.5,-5.5 1101.5,-5.5 1101.5,-24.5"/>
<text text-anchor="middle" x="1044.5" y="-12.5" font-family="Helvetica,sans-Serif" font-size="10.00">src/d/a/d_a_player.cpp</text>
</a>
</g>
</g>
<!-- Node1&#45;&gt;Node9 -->
<g id="edge8" class="edge">
<title>Node1&#45;&gt;Node9</title>
<path fill="none" stroke="#63b8ff" d="M1797.22,-78.48C1653.96,-75.05 1358.25,-64.11 1110.5,-30 1101.22,-28.72 1091.29,-26.88 1082.03,-24.94"/>
<polygon fill="#63b8ff" stroke="#63b8ff" points="1796.93,-81.97 1807,-78.71 1797.09,-74.98 1796.93,-81.97"/>
</g>
<!-- Node10 -->
<g id="node10" class="node">
<title>Node10</title>
<g id="a_node10"><a xlink:href="d__bg__w_8cpp.html" target="_top" xlink:title=" ">
<polygon fill="white" stroke="#666666" points="1227,-24.5 1120,-24.5 1120,-5.5 1227,-5.5 1227,-24.5"/>
<text text-anchor="middle" x="1173.5" y="-12.5" font-family="Helvetica,sans-Serif" font-size="10.00">src/d/bg/d_bg_w.cpp</text>
</a>
</g>
</g>
<!-- Node1&#45;&gt;Node10 -->
<g id="edge9" class="edge">
<title>Node1&#45;&gt;Node10</title>
<path fill="none" stroke="#63b8ff" d="M1797.43,-77.33C1672.87,-72.57 1435.39,-60.12 1235.5,-30 1226.88,-28.7 1217.68,-26.87 1209.07,-24.96"/>
<polygon fill="#63b8ff" stroke="#63b8ff" points="1797.12,-80.82 1807.24,-77.7 1797.38,-73.83 1797.12,-80.82"/>
</g>
<!-- Node11 -->
<g id="node11" class="node">
<title>Node11</title>
<g id="a_node11"><a xlink:href="d__cc__mass__s_8cpp.html" target="_top" xlink:title=" ">
<polygon fill="white" stroke="#666666" points="1350,-30 1245,-30 1245,0 1350,0 1350,-30"/>
<text text-anchor="start" x="1253" y="-18" font-family="Helvetica,sans-Serif" font-size="10.00">src/d/cc/d_cc_mass</text>
<text text-anchor="middle" x="1297.5" y="-7" font-family="Helvetica,sans-Serif" font-size="10.00">_s.cpp</text>
</a>
</g>
</g>
<!-- Node1&#45;&gt;Node11 -->
<g id="edge10" class="edge">
<title>Node1&#45;&gt;Node11</title>
<path fill="none" stroke="#63b8ff" d="M1797.37,-75.26C1693,-68.72 1512.05,-54.82 1358.5,-30 1355.82,-29.57 1353.08,-29.08 1350.32,-28.57"/>
<polygon fill="#63b8ff" stroke="#63b8ff" points="1797.07,-78.75 1807.26,-75.87 1797.5,-71.76 1797.07,-78.75"/>
</g>
<!-- Node12 -->
<g id="node12" class="node">
<title>Node12</title>
<g id="a_node12"><a xlink:href="d__cam__param_8cpp.html" target="_top" xlink:title=" ">
<polygon fill="white" stroke="#666666" points="1489,-24.5 1368,-24.5 1368,-5.5 1489,-5.5 1489,-24.5"/>
<text text-anchor="middle" x="1428.5" y="-12.5" font-family="Helvetica,sans-Serif" font-size="10.00">src/d/d_cam_param.cpp</text>
</a>
</g>
</g>
<!-- Node1&#45;&gt;Node12 -->
<g id="edge11" class="edge">
<title>Node1&#45;&gt;Node12</title>
<path fill="none" stroke="#63b8ff" d="M1797.52,-70.54C1719.33,-61.53 1600.87,-46.86 1498.5,-30 1489.57,-28.53 1480.05,-26.76 1470.99,-24.98"/>
<polygon fill="#63b8ff" stroke="#63b8ff" points="1796.92,-73.99 1807.25,-71.65 1797.71,-67.04 1796.92,-73.99"/>
</g>
<!-- Node13 -->
<g id="node13" class="node">
<title>Node13</title>
<g id="a_node13"><a xlink:href="d__k__wmark_8cpp.html" target="_top" xlink:title=" ">
<polygon fill="white" stroke="#666666" points="1617.5,-24.5 1507.5,-24.5 1507.5,-5.5 1617.5,-5.5 1617.5,-24.5"/>
<text text-anchor="middle" x="1562.5" y="-12.5" font-family="Helvetica,sans-Serif" font-size="10.00">src/d/d_k_wmark.cpp</text>
</a>
</g>
</g>
<!-- Node1&#45;&gt;Node13 -->
<g id="edge12" class="edge">
<title>Node1&#45;&gt;Node13</title>
<path fill="none" stroke="#63b8ff" d="M1797.54,-63.79C1747.56,-54.24 1683.4,-41.76 1626.5,-30 1618.81,-28.41 1610.62,-26.66 1602.76,-24.96"/>
<polygon fill="#63b8ff" stroke="#63b8ff" points="1796.66,-67.19 1807.14,-65.62 1797.97,-60.31 1796.66,-67.19"/>
</g>
<!-- Node14 -->
<g id="node14" class="node">
<title>Node14</title>
<g id="a_node14"><a xlink:href="d__k__wpillar_8cpp.html" target="_top" xlink:title=" ">
<polygon fill="white" stroke="#666666" points="1743.5,-24.5 1635.5,-24.5 1635.5,-5.5 1743.5,-5.5 1743.5,-24.5"/>
<text text-anchor="middle" x="1689.5" y="-12.5" font-family="Helvetica,sans-Serif" font-size="10.00">src/d/d_k_wpillar.cpp</text>
</a>
</g>
</g>
<!-- Node1&#45;&gt;Node14 -->
<g id="edge13" class="edge">
<title>Node1&#45;&gt;Node14</title>
<path fill="none" stroke="#63b8ff" d="M1829.43,-62.16C1792.77,-50.07 1745.85,-34.59 1716.74,-24.99"/>
<polygon fill="#63b8ff" stroke="#63b8ff" points="1827.93,-65.35 1838.53,-65.16 1830.13,-58.71 1827.93,-65.35"/>
</g>
<!-- Node15 -->
<g id="node15" class="node">
<title>Node15</title>
<g id="a_node15"><a xlink:href="d__ky__thunder_8cpp.html" target="_top" xlink:title=" ">
<polygon fill="white" stroke="#666666" points="1879,-24.5 1762,-24.5 1762,-5.5 1879,-5.5 1879,-24.5"/>
<text text-anchor="middle" x="1820.5" y="-12.5" font-family="Helvetica,sans-Serif" font-size="10.00">src/d/d_ky_thunder.cpp</text>
</a>
</g>
</g>
<!-- Node1&#45;&gt;Node15 -->
<g id="edge14" class="edge">
<title>Node1&#45;&gt;Node15</title>
<path fill="none" stroke="#63b8ff" d="M1861.46,-57.61C1850.35,-46.32 1837.51,-33.28 1829.21,-24.84"/>
<polygon fill="#63b8ff" stroke="#63b8ff" points="1858.95,-60.05 1868.46,-64.72 1863.94,-55.14 1858.95,-60.05"/>
</g>
<!-- Node16 -->
<g id="node16" class="node">
<title>Node16</title>
<g id="a_node16"><a xlink:href="d__npc__lib_8cpp.html" target="_top" xlink:title=" ">
<polygon fill="white" stroke="#666666" points="1998,-24.5 1897,-24.5 1897,-5.5 1998,-5.5 1998,-24.5"/>
<text text-anchor="middle" x="1947.5" y="-12.5" font-family="Helvetica,sans-Serif" font-size="10.00">src/d/d_npc_lib.cpp</text>
</a>
</g>
</g>
<!-- Node1&#45;&gt;Node16 -->
<g id="edge15" class="edge">
<title>Node1&#45;&gt;Node16</title>
<path fill="none" stroke="#63b8ff" d="M1905.56,-57.94C1916.92,-46.58 1930.14,-33.36 1938.66,-24.84"/>
<polygon fill="#63b8ff" stroke="#63b8ff" points="1903.37,-55.18 1898.77,-64.73 1908.32,-60.13 1903.37,-55.18"/>
</g>
<!-- Node17 -->
<g id="node17" class="node">
<title>Node17</title>
<g id="a_node17"><a xlink:href="d__tresure_8cpp.html" target="_top" xlink:title=" ">
<polygon fill="white" stroke="#666666" points="2116.5,-24.5 2016.5,-24.5 2016.5,-5.5 2116.5,-5.5 2116.5,-24.5"/>
<text text-anchor="middle" x="2066.5" y="-12.5" font-family="Helvetica,sans-Serif" font-size="10.00">src/d/d_tresure.cpp</text>
</a>
</g>
</g>
<!-- Node1&#45;&gt;Node17 -->
<g id="edge16" class="edge">
<title>Node1&#45;&gt;Node17</title>
<path fill="none" stroke="#63b8ff" d="M1935.4,-61.85C1969.85,-49.8 2013.58,-34.51 2040.81,-24.99"/>
<polygon fill="#63b8ff" stroke="#63b8ff" points="1934.28,-58.53 1926,-65.14 1936.59,-65.14 1934.28,-58.53"/>
</g>
<!-- Node18 -->
<g id="node18" class="node">
<title>Node18</title>
<g id="a_node18"><a xlink:href="d__vibration_8cpp.html" target="_top" xlink:title=" ">
<polygon fill="white" stroke="#666666" points="2242,-24.5 2135,-24.5 2135,-5.5 2242,-5.5 2242,-24.5"/>
<text text-anchor="middle" x="2188.5" y="-12.5" font-family="Helvetica,sans-Serif" font-size="10.00">src/d/d_vibration.cpp</text>
</a>
</g>
</g>
<!-- Node1&#45;&gt;Node18 -->
<g id="edge17" class="edge">
<title>Node1&#45;&gt;Node18</title>
<path fill="none" stroke="#63b8ff" d="M1966.04,-63.26C2012.85,-53.69 2072.49,-41.37 2125.5,-30 2132.95,-28.4 2140.89,-26.67 2148.53,-24.98"/>
<polygon fill="#63b8ff" stroke="#63b8ff" points="1965.62,-59.78 1956.52,-65.21 1967.02,-66.64 1965.62,-59.78"/>
</g>
<!-- Node19 -->
<g id="node19" class="node">
<title>Node19</title>
<g id="a_node19"><a xlink:href="d__event__manager_8cpp.html" target="_top" xlink:title=" ">
<polygon fill="white" stroke="#666666" points="2363,-30 2260,-30 2260,0 2363,0 2363,-30"/>
<text text-anchor="start" x="2268" y="-18" font-family="Helvetica,sans-Serif" font-size="10.00">src/d/event/d_event</text>
<text text-anchor="middle" x="2311.5" y="-7" font-family="Helvetica,sans-Serif" font-size="10.00">_manager.cpp</text>
</a>
</g>
</g>
<!-- Node1&#45;&gt;Node19 -->
<g id="edge18" class="edge">
<title>Node1&#45;&gt;Node19</title>
<path fill="none" stroke="#63b8ff" d="M1969.41,-70.65C2044.23,-61.95 2155.45,-47.69 2251.5,-30 2254.13,-29.52 2256.82,-28.99 2259.53,-28.44"/>
<polygon fill="#63b8ff" stroke="#63b8ff" points="1969.22,-67.15 1959.69,-71.77 1970.03,-74.1 1969.22,-67.15"/>
</g>
<!-- Node20 -->
<g id="node20" class="node">
<title>Node20</title>
<g id="a_node20"><a xlink:href="d__kankyo_8cpp.html" target="_top" xlink:title=" ">
<polygon fill="white" stroke="#666666" points="2515.5,-24.5 2381.5,-24.5 2381.5,-5.5 2515.5,-5.5 2515.5,-24.5"/>
<text text-anchor="middle" x="2448.5" y="-12.5" font-family="Helvetica,sans-Serif" font-size="10.00">src/d/kankyo/d_kankyo.cpp</text>
</a>
</g>
</g>
<!-- Node1&#45;&gt;Node20 -->
<g id="edge19" class="edge">
<title>Node1&#45;&gt;Node20</title>
<path fill="none" stroke="#63b8ff" d="M1969.6,-73.3C2067.47,-65.2 2231.92,-50.1 2372.5,-30 2382.46,-28.58 2393.11,-26.78 2403.19,-24.96"/>
<polygon fill="#63b8ff" stroke="#63b8ff" points="1969.48,-69.8 1959.8,-74.11 1970.05,-76.78 1969.48,-69.8"/>
</g>
<!-- Node21 -->
<g id="node21" class="node">
<title>Node21</title>
<g id="a_node21"><a xlink:href="d__kankyo__rain_8cpp.html" target="_top" xlink:title=" ">
<polygon fill="white" stroke="#666666" points="2649.5,-30 2533.5,-30 2533.5,0 2649.5,0 2649.5,-30"/>
<text text-anchor="start" x="2541.5" y="-18" font-family="Helvetica,sans-Serif" font-size="10.00">src/d/kankyo/d_kankyo</text>
<text text-anchor="middle" x="2591.5" y="-7" font-family="Helvetica,sans-Serif" font-size="10.00">_rain.cpp</text>
</a>
</g>
</g>
<!-- Node1&#45;&gt;Node21 -->
<g id="edge20" class="edge">
<title>Node1&#45;&gt;Node21</title>
<path fill="none" stroke="#63b8ff" d="M1969.58,-76.79C2092.98,-71.4 2327.07,-58.21 2524.5,-30 2527.32,-29.6 2530.21,-29.15 2533.11,-28.66"/>
<polygon fill="#63b8ff" stroke="#63b8ff" points="1969.71,-73.28 1959.87,-77.21 1970.01,-80.28 1969.71,-73.28"/>
</g>
<!-- Node22 -->
<g id="node22" class="node">
<title>Node22</title>
<g id="a_node22"><a xlink:href="d__kankyo__wether_8cpp.html" target="_top" xlink:title=" ">
<polygon fill="white" stroke="#666666" points="2783.5,-30 2667.5,-30 2667.5,0 2783.5,0 2783.5,-30"/>
<text text-anchor="start" x="2675.5" y="-18" font-family="Helvetica,sans-Serif" font-size="10.00">src/d/kankyo/d_kankyo</text>
<text text-anchor="middle" x="2725.5" y="-7" font-family="Helvetica,sans-Serif" font-size="10.00">_wether.cpp</text>
</a>
</g>
</g>
<!-- Node1&#45;&gt;Node22 -->
<g id="edge21" class="edge">
<title>Node1&#45;&gt;Node22</title>
<path fill="none" stroke="#63b8ff" d="M1969.71,-78.42C2113.22,-74.89 2409.89,-63.82 2658.5,-30 2661.33,-29.62 2664.21,-29.18 2667.12,-28.71"/>
<polygon fill="#63b8ff" stroke="#63b8ff" points="1969.82,-74.91 1959.91,-78.65 1969.99,-81.91 1969.82,-74.91"/>
</g>
<!-- Node23 -->
<g id="node23" class="node">
<title>Node23</title>
<g id="a_node23"><a xlink:href="d__menu__ring_8cpp.html" target="_top" xlink:title=" ">
<polygon fill="white" stroke="#666666" points="2943.5,-24.5 2801.5,-24.5 2801.5,-5.5 2943.5,-5.5 2943.5,-24.5"/>
<text text-anchor="middle" x="2872.5" y="-12.5" font-family="Helvetica,sans-Serif" font-size="10.00">src/d/menu/d_menu_ring.cpp</text>
</a>
</g>
</g>
<!-- Node1&#45;&gt;Node23 -->
<g id="edge22" class="edge">
<title>Node1&#45;&gt;Node23</title>
<path fill="none" stroke="#63b8ff" d="M1969.58,-78.65C2131.3,-75.37 2491.37,-64.51 2792.5,-30 2803.71,-28.72 2815.72,-26.87 2826.95,-24.93"/>
<polygon fill="#63b8ff" stroke="#63b8ff" points="1969.72,-75.15 1959.79,-78.85 1969.86,-82.15 1969.72,-75.15"/>
</g>
<!-- Node24 -->
<g id="node24" class="node">
<title>Node24</title>
<g id="a_node24"><a xlink:href="d__shop__system_8cpp.html" target="_top" xlink:title=" ">
<polygon fill="white" stroke="#666666" points="3113.5,-24.5 2961.5,-24.5 2961.5,-5.5 3113.5,-5.5 3113.5,-24.5"/>
<text text-anchor="middle" x="3037.5" y="-12.5" font-family="Helvetica,sans-Serif" font-size="10.00">src/d/shop/d_shop_system.cpp</text>
</a>
</g>
</g>
<!-- Node1&#45;&gt;Node24 -->
<g id="edge23" class="edge">
<title>Node1&#45;&gt;Node24</title>
<path fill="none" stroke="#63b8ff" d="M1969.6,-79.37C2151.57,-77.29 2588.46,-68.36 2952.5,-30 2964.4,-28.75 2977.16,-26.91 2989.09,-24.98"/>
<polygon fill="#63b8ff" stroke="#63b8ff" points="1969.72,-75.87 1959.76,-79.48 1969.8,-82.87 1969.72,-75.87"/>
</g>
<!-- Node25 -->
<g id="node25" class="node">
<title>Node25</title>
<g id="a_node25"><a xlink:href="f__op__actor__mng_8cpp.html" target="_top" xlink:title=" ">
<polygon fill="white" stroke="#666666" points="3233,-30 3132,-30 3132,0 3233,0 3233,-30"/>
<text text-anchor="start" x="3140" y="-18" font-family="Helvetica,sans-Serif" font-size="10.00">src/f_op/f_op_actor</text>
<text text-anchor="middle" x="3182.5" y="-7" font-family="Helvetica,sans-Serif" font-size="10.00">_mng.cpp</text>
</a>
</g>
</g>
<!-- Node1&#45;&gt;Node25 -->
<g id="edge24" class="edge">
<title>Node1&#45;&gt;Node25</title>
<path fill="none" stroke="#63b8ff" d="M1969.43,-78.65C2212.04,-74.48 2899.12,-60.29 3122.5,-30 3125.47,-29.6 3128.5,-29.12 3131.56,-28.58"/>
<polygon fill="#63b8ff" stroke="#63b8ff" points="1969.66,-75.14 1959.73,-78.81 1969.78,-82.14 1969.66,-75.14"/>
</g>
<!-- Node26 -->
<g id="node26" class="node">
<title>Node26</title>
<g id="a_node26"><a xlink:href="f__op__msg__mng_8cpp.html" target="_top" xlink:title=" ">
<polygon fill="white" stroke="#666666" points="3391.5,-24.5 3251.5,-24.5 3251.5,-5.5 3391.5,-5.5 3391.5,-24.5"/>
<text text-anchor="middle" x="3321.5" y="-12.5" font-family="Helvetica,sans-Serif" font-size="10.00">src/f_op/f_op_msg_mng.cpp</text>
</a>
</g>
</g>
<!-- Node1&#45;&gt;Node26 -->
<g id="edge25" class="edge">
<title>Node1&#45;&gt;Node26</title>
<path fill="none" stroke="#63b8ff" d="M1969.53,-78.4C2227.83,-73.34 2994.11,-56.45 3242.5,-30 3253.86,-28.79 3266.04,-26.92 3277.36,-24.93"/>
<polygon fill="#63b8ff" stroke="#63b8ff" points="1969.79,-74.89 1959.86,-78.59 1969.93,-81.89 1969.79,-74.89"/>
</g>
<!-- Node27 -->
<g id="node27" class="node">
<title>Node27</title>
<g id="a_node27"><a xlink:href="m__Do__lib_8cpp.html" target="_top" xlink:title=" ">
<polygon fill="white" stroke="#666666" points="3529.5,-24.5 3409.5,-24.5 3409.5,-5.5 3529.5,-5.5 3529.5,-24.5"/>
<text text-anchor="middle" x="3469.5" y="-12.5" font-family="Helvetica,sans-Serif" font-size="10.00">src/m_Do/m_Do_lib.cpp</text>
</a>
</g>
</g>
<!-- Node1&#45;&gt;Node27 -->
<g id="edge26" class="edge">
<title>Node1&#45;&gt;Node27</title>
<path fill="none" stroke="#63b8ff" d="M1969.38,-79.06C2247.27,-75.72 3120.25,-62.82 3400.5,-30 3410.46,-28.83 3421.11,-26.98 3431,-25"/>
<polygon fill="#63b8ff" stroke="#63b8ff" points="1969.64,-75.56 1959.68,-79.17 1969.72,-82.56 1969.64,-75.56"/>
</g>
<!-- Node28 -->
<g id="node28" class="node">
<title>Node28</title>
<g id="a_node28"><a xlink:href="m__Do__machine_8cpp.html" target="_top" xlink:title=" ">
<polygon fill="white" stroke="#666666" points="3695,-24.5 3548,-24.5 3548,-5.5 3695,-5.5 3695,-24.5"/>
<text text-anchor="middle" x="3621.5" y="-12.5" font-family="Helvetica,sans-Serif" font-size="10.00">src/m_Do/m_Do_machine.cpp</text>
</a>
</g>
</g>
<!-- Node1&#45;&gt;Node28 -->
<g id="edge27" class="edge">
<title>Node1&#45;&gt;Node28</title>
<path fill="none" stroke="#63b8ff" d="M1969.5,-78.96C2263.83,-75.15 3229.57,-60.58 3538.5,-30 3550.42,-28.82 3563.23,-26.96 3575.12,-24.98"/>
<polygon fill="#63b8ff" stroke="#63b8ff" points="1969.54,-75.46 1959.58,-79.09 1969.63,-82.46 1969.54,-75.46"/>
</g>
<!-- Node29 -->
<g id="node29" class="node">
<title>Node29</title>
<g id="a_node29"><a xlink:href="m__Do__mtx_8cpp.html" target="_top" xlink:title=" ">
<polygon fill="white" stroke="#666666" points="3839.5,-24.5 3713.5,-24.5 3713.5,-5.5 3839.5,-5.5 3839.5,-24.5"/>
<text text-anchor="middle" x="3776.5" y="-12.5" font-family="Helvetica,sans-Serif" font-size="10.00">src/m_Do/m_Do_mtx.cpp</text>
</a>
</g>
</g>
<!-- Node1&#45;&gt;Node29 -->
<g id="edge28" class="edge">
<title>Node1&#45;&gt;Node29</title>
<path fill="none" stroke="#63b8ff" d="M1969.6,-79.52C2282.94,-77.46 3361.95,-67.75 3704.5,-30 3715.01,-28.84 3726.27,-26.96 3736.69,-24.95"/>
<polygon fill="#63b8ff" stroke="#63b8ff" points="1969.83,-76.01 1959.85,-79.58 1969.88,-83.01 1969.83,-76.01"/>
</g>
</g>
</svg>
