<?xml version="1.0" encoding="UTF-8" standalone="no"?>
<!DOCTYPE svg PUBLIC "-//W3C//DTD SVG 1.1//EN"
 "http://www.w3.org/Graphics/SVG/1.1/DTD/svg11.dtd">
<!-- Generated by graphviz version 7.0.5 (20221223.1930)
 -->
<!-- Title: include/SSystem/SComponent/c_m3d_g_sph.h Pages: 1 -->
<svg width="3360pt" height="456pt"
 viewBox="0.00 0.00 3359.50 456.00" xmlns="http://www.w3.org/2000/svg" xmlns:xlink="http://www.w3.org/1999/xlink">
<g id="graph0" class="graph" transform="scale(1 1) rotate(0) translate(4 452)">
<title>include/SSystem/SComponent/c_m3d_g_sph.h</title>
<!-- Node1 -->
<g id="node1" class="node">
<title>Node1</title>
<g id="a_node1"><a xlink:title=" ">
<polygon fill="#999999" stroke="#666666" points="3159,-448 3010,-448 3010,-418 3159,-418 3159,-448"/>
<text text-anchor="start" x="3018" y="-436" font-family="Helvetica,sans-Serif" font-size="10.00">include/SSystem/SComponent</text>
<text text-anchor="middle" x="3084.5" y="-425" font-family="Helvetica,sans-Serif" font-size="10.00">/c_m3d_g_sph.h</text>
</a>
</g>
</g>
<!-- Node2 -->
<g id="node2" class="node">
<title>Node2</title>
<g id="a_node2"><a xlink:href="c__cc__d_8h.html" target="_top" xlink:title=" ">
<polygon fill="white" stroke="#666666" points="2849,-382 2700,-382 2700,-352 2849,-352 2849,-382"/>
<text text-anchor="start" x="2708" y="-370" font-family="Helvetica,sans-Serif" font-size="10.00">include/SSystem/SComponent</text>
<text text-anchor="middle" x="2774.5" y="-359" font-family="Helvetica,sans-Serif" font-size="10.00">/c_cc_d.h</text>
</a>
</g>
</g>
<!-- Node1&#45;&gt;Node2 -->
<g id="edge1" class="edge">
<title>Node1&#45;&gt;Node2</title>
<path fill="none" stroke="#63b8ff" d="M3003.58,-415.29C2954.2,-405.1 2891.71,-392.2 2844.47,-382.45"/>
<polygon fill="#63b8ff" stroke="#63b8ff" points="3002.56,-418.66 3013.06,-417.25 3003.98,-411.8 3002.56,-418.66"/>
</g>
<!-- Node247 -->
<g id="node47" class="node">
<title>Node247</title>
<g id="a_node47"><a xlink:href="d__bg__s__sph__chk_8h.html" target="_top" xlink:title=" ">
<polygon fill="white" stroke="#666666" points="3089.5,-178.5 2985.5,-178.5 2985.5,-148.5 3089.5,-148.5 3089.5,-178.5"/>
<text text-anchor="start" x="2993.5" y="-166.5" font-family="Helvetica,sans-Serif" font-size="10.00">include/d/bg/d_bg_s</text>
<text text-anchor="middle" x="3037.5" y="-155.5" font-family="Helvetica,sans-Serif" font-size="10.00">_sph_chk.h</text>
</a>
</g>
</g>
<!-- Node1&#45;&gt;Node247 -->
<g id="edge60" class="edge">
<title>Node1&#45;&gt;Node247</title>
<path fill="none" stroke="#63b8ff" d="M3068.44,-408.15C3063.81,-400.16 3059.27,-390.99 3056.5,-382 3033.79,-308.28 3035.18,-214.33 3036.7,-178.89"/>
<polygon fill="#63b8ff" stroke="#63b8ff" points="3065.41,-409.9 3073.64,-416.58 3071.37,-406.23 3065.41,-409.9"/>
</g>
<!-- Node249 -->
<g id="node49" class="node">
<title>Node249</title>
<g id="a_node49"><a xlink:href="c__m3d_8cpp.html" target="_top" xlink:title=" ">
<polygon fill="white" stroke="#666666" points="3199.5,-382 3065.5,-382 3065.5,-352 3199.5,-352 3199.5,-382"/>
<text text-anchor="start" x="3073.5" y="-370" font-family="Helvetica,sans-Serif" font-size="10.00">libs/SSystem/SComponent</text>
<text text-anchor="middle" x="3132.5" y="-359" font-family="Helvetica,sans-Serif" font-size="10.00">/c_m3d.cpp</text>
</a>
</g>
</g>
<!-- Node1&#45;&gt;Node249 -->
<g id="edge64" class="edge">
<title>Node1&#45;&gt;Node249</title>
<path fill="none" stroke="#63b8ff" d="M3101.99,-408.68C3108.65,-399.79 3116.04,-389.95 3121.88,-382.16"/>
<polygon fill="#63b8ff" stroke="#63b8ff" points="3099.26,-406.49 3096.06,-416.59 3104.86,-410.69 3099.26,-406.49"/>
</g>
<!-- Node250 -->
<g id="node50" class="node">
<title>Node250</title>
<g id="a_node50"><a xlink:href="c__m3d__g__sph_8cpp.html" target="_top" xlink:title=" ">
<polygon fill="white" stroke="#666666" points="3351.5,-382 3217.5,-382 3217.5,-352 3351.5,-352 3351.5,-382"/>
<text text-anchor="start" x="3225.5" y="-370" font-family="Helvetica,sans-Serif" font-size="10.00">libs/SSystem/SComponent</text>
<text text-anchor="middle" x="3284.5" y="-359" font-family="Helvetica,sans-Serif" font-size="10.00">/c_m3d_g_sph.cpp</text>
</a>
</g>
</g>
<!-- Node1&#45;&gt;Node250 -->
<g id="edge65" class="edge">
<title>Node1&#45;&gt;Node250</title>
<path fill="none" stroke="#63b8ff" d="M3140.13,-414.2C3171.43,-404.18 3210.02,-391.83 3239.42,-382.43"/>
<polygon fill="#63b8ff" stroke="#63b8ff" points="3139.28,-410.79 3130.83,-417.18 3141.42,-417.46 3139.28,-410.79"/>
</g>
<!-- Node3 -->
<g id="node3" class="node">
<title>Node3</title>
<g id="a_node3"><a xlink:href="c__cc__s_8h.html" target="_top" xlink:title=" ">
<polygon fill="white" stroke="#666666" points="3009,-316 2860,-316 2860,-286 3009,-286 3009,-316"/>
<text text-anchor="start" x="2868" y="-304" font-family="Helvetica,sans-Serif" font-size="10.00">include/SSystem/SComponent</text>
<text text-anchor="middle" x="2934.5" y="-293" font-family="Helvetica,sans-Serif" font-size="10.00">/c_cc_s.h</text>
</a>
</g>
</g>
<!-- Node2&#45;&gt;Node3 -->
<g id="edge2" class="edge">
<title>Node2&#45;&gt;Node3</title>
<path fill="none" stroke="#63b8ff" d="M2820.98,-347.41C2845.66,-337.54 2875.53,-325.59 2898.44,-316.43"/>
<polygon fill="#63b8ff" stroke="#63b8ff" points="2819.8,-344.11 2811.81,-351.08 2822.4,-350.61 2819.8,-344.11"/>
</g>
<!-- Node213 -->
<g id="node16" class="node">
<title>Node213</title>
<g id="a_node16"><a xlink:href="d__cc__d_8h.html" target="_top" xlink:title=" ">
<polygon fill="white" stroke="#666666" points="1509,-244.5 1398,-244.5 1398,-225.5 1509,-225.5 1509,-244.5"/>
<text text-anchor="middle" x="1453.5" y="-232.5" font-family="Helvetica,sans-Serif" font-size="10.00">include/d/cc/d_cc_d.h</text>
</a>
</g>
</g>
<!-- Node2&#45;&gt;Node213 -->
<g id="edge16" class="edge">
<title>Node2&#45;&gt;Node213</title>
<path fill="none" stroke="#63b8ff" d="M2688.5,-357.54C2438.45,-332.93 1716.26,-261.86 1509.45,-241.51"/>
<polygon fill="#63b8ff" stroke="#63b8ff" points="2687.89,-360.99 2698.19,-358.49 2688.58,-354.03 2687.89,-360.99"/>
</g>
<!-- Node245 -->
<g id="node45" class="node">
<title>Node245</title>
<g id="a_node45"><a xlink:href="d__cc__mass__s_8h.html" target="_top" xlink:title=" ">
<polygon fill="white" stroke="#666666" points="2689.5,-310.5 2549.5,-310.5 2549.5,-291.5 2689.5,-291.5 2689.5,-310.5"/>
<text text-anchor="middle" x="2619.5" y="-298.5" font-family="Helvetica,sans-Serif" font-size="10.00">include/d/cc/d_cc_mass_s.h</text>
</a>
</g>
</g>
<!-- Node2&#45;&gt;Node245 -->
<g id="edge56" class="edge">
<title>Node2&#45;&gt;Node245</title>
<path fill="none" stroke="#63b8ff" d="M2729.4,-347.38C2700.41,-335.41 2664.02,-320.38 2641.26,-310.99"/>
<polygon fill="#63b8ff" stroke="#63b8ff" points="2727.74,-350.48 2738.32,-351.06 2730.41,-344.01 2727.74,-350.48"/>
</g>
<!-- Node246 -->
<g id="node46" class="node">
<title>Node246</title>
<g id="a_node46"><a xlink:href="c__cc__d_8cpp.html" target="_top" xlink:title=" ">
<polygon fill="white" stroke="#666666" points="2841.5,-316 2707.5,-316 2707.5,-286 2841.5,-286 2841.5,-316"/>
<text text-anchor="start" x="2715.5" y="-304" font-family="Helvetica,sans-Serif" font-size="10.00">libs/SSystem/SComponent</text>
<text text-anchor="middle" x="2774.5" y="-293" font-family="Helvetica,sans-Serif" font-size="10.00">/c_cc_d.cpp</text>
</a>
</g>
</g>
<!-- Node2&#45;&gt;Node246 -->
<g id="edge59" class="edge">
<title>Node2&#45;&gt;Node246</title>
<path fill="none" stroke="#63b8ff" d="M2774.5,-340.39C2774.5,-332.13 2774.5,-323.28 2774.5,-316.16"/>
<polygon fill="#63b8ff" stroke="#63b8ff" points="2771,-340.28 2774.5,-350.28 2778,-340.28 2771,-340.28"/>
</g>
<!-- Node4 -->
<g id="node4" class="node">
<title>Node4</title>
<g id="a_node4"><a xlink:href="d__cc__s_8h.html" target="_top" xlink:title=" ">
<polygon fill="white" stroke="#666666" points="2826,-244.5 2715,-244.5 2715,-225.5 2826,-225.5 2826,-244.5"/>
<text text-anchor="middle" x="2770.5" y="-232.5" font-family="Helvetica,sans-Serif" font-size="10.00">include/d/cc/d_cc_s.h</text>
</a>
</g>
</g>
<!-- Node3&#45;&gt;Node4 -->
<g id="edge3" class="edge">
<title>Node3&#45;&gt;Node4</title>
<path fill="none" stroke="#63b8ff" d="M2887.19,-281.54C2856.44,-269.54 2817.71,-254.43 2793.53,-244.99"/>
<polygon fill="#63b8ff" stroke="#63b8ff" points="2885.7,-284.71 2896.29,-285.09 2888.24,-278.19 2885.7,-284.71"/>
</g>
<!-- Node212 -->
<g id="node15" class="node">
<title>Node212</title>
<g id="a_node15"><a xlink:href="c__cc__s_8cpp.html" target="_top" xlink:title=" ">
<polygon fill="white" stroke="#666666" points="3001.5,-250 2867.5,-250 2867.5,-220 3001.5,-220 3001.5,-250"/>
<text text-anchor="start" x="2875.5" y="-238" font-family="Helvetica,sans-Serif" font-size="10.00">libs/SSystem/SComponent</text>
<text text-anchor="middle" x="2934.5" y="-227" font-family="Helvetica,sans-Serif" font-size="10.00">/c_cc_s.cpp</text>
</a>
</g>
</g>
<!-- Node3&#45;&gt;Node212 -->
<g id="edge15" class="edge">
<title>Node3&#45;&gt;Node212</title>
<path fill="none" stroke="#63b8ff" d="M2934.5,-274.39C2934.5,-266.13 2934.5,-257.28 2934.5,-250.16"/>
<polygon fill="#63b8ff" stroke="#63b8ff" points="2931,-274.28 2934.5,-284.28 2938,-274.28 2931,-274.28"/>
</g>
<!-- Node5 -->
<g id="node5" class="node">
<title>Node5</title>
<g id="a_node5"><a xlink:href="d__com__inf__game_8h.html" target="_top" xlink:title=" ">
<polygon fill="#fff0f0" stroke="red" points="2686.5,-178.5 2576.5,-178.5 2576.5,-148.5 2686.5,-148.5 2686.5,-178.5"/>
<text text-anchor="start" x="2584.5" y="-166.5" font-family="Helvetica,sans-Serif" font-size="10.00">include/d/com/d_com</text>
<text text-anchor="middle" x="2631.5" y="-155.5" font-family="Helvetica,sans-Serif" font-size="10.00">_inf_game.h</text>
</a>
</g>
</g>
<!-- Node4&#45;&gt;Node5 -->
<g id="edge4" class="edge">
<title>Node4&#45;&gt;Node5</title>
<path fill="none" stroke="#63b8ff" d="M2742.46,-219.98C2718.62,-208.06 2684.53,-191.02 2660.44,-178.97"/>
<polygon fill="#63b8ff" stroke="#63b8ff" points="2740.75,-223.04 2751.26,-224.38 2743.88,-216.78 2740.75,-223.04"/>
</g>
<!-- Node151 -->
<g id="node11" class="node">
<title>Node151</title>
<g id="a_node11"><a xlink:href="d__cc__s_8cpp.html" target="_top" xlink:title=" ">
<polygon fill="white" stroke="#666666" points="2727.5,-96 2623.5,-96 2623.5,-77 2727.5,-77 2727.5,-96"/>
<text text-anchor="middle" x="2675.5" y="-84" font-family="Helvetica,sans-Serif" font-size="10.00">src/d/cc/d_cc_s.cpp</text>
</a>
</g>
</g>
<!-- Node4&#45;&gt;Node151 -->
<g id="edge14" class="edge">
<title>Node4&#45;&gt;Node151</title>
<path fill="none" stroke="#63b8ff" d="M2835.98,-222.8C2877.57,-214.2 2925.88,-200.93 2938.5,-184 2949.39,-169.39 2949.98,-157.15 2938.5,-143 2935.06,-138.76 2796.32,-111.1 2721.77,-96.5"/>
<polygon fill="#63b8ff" stroke="#63b8ff" points="2835.34,-219.35 2826.22,-224.75 2836.71,-226.22 2835.34,-219.35"/>
</g>
<!-- Node90 -->
<g id="node6" class="node">
<title>Node90</title>
<g id="a_node6"><a xlink:href="d__a__obj__bbox_8h.html" target="_top" xlink:title=" ">
<polygon fill="white" stroke="#666666" points="2605.5,-107 2489.5,-107 2489.5,-66 2605.5,-66 2605.5,-107"/>
<text text-anchor="start" x="2497.5" y="-95" font-family="Helvetica,sans-Serif" font-size="10.00">include/rel/d/a/obj</text>
<text text-anchor="start" x="2497.5" y="-84" font-family="Helvetica,sans-Serif" font-size="10.00">/d_a_obj_bbox/d_a_obj</text>
<text text-anchor="middle" x="2547.5" y="-73" font-family="Helvetica,sans-Serif" font-size="10.00">_bbox.h</text>
</a>
</g>
</g>
<!-- Node5&#45;&gt;Node90 -->
<g id="edge5" class="edge">
<title>Node5&#45;&gt;Node90</title>
<path fill="none" stroke="#63b8ff" d="M2606.82,-140.46C2595.06,-129.96 2581.1,-117.5 2569.68,-107.3"/>
<polygon fill="#63b8ff" stroke="#63b8ff" points="2604.38,-142.98 2614.17,-147.03 2609.05,-137.76 2604.38,-142.98"/>
</g>
<!-- Node92 -->
<g id="node7" class="node">
<title>Node92</title>
<g id="a_node7"><a xlink:href="d__a__obj__carry_8h.html" target="_top" xlink:title=" ">
<polygon fill="#fff0f0" stroke="red" points="2471.5,-107 2355.5,-107 2355.5,-66 2471.5,-66 2471.5,-107"/>
<text text-anchor="start" x="2363.5" y="-95" font-family="Helvetica,sans-Serif" font-size="10.00">include/rel/d/a/obj</text>
<text text-anchor="start" x="2363.5" y="-84" font-family="Helvetica,sans-Serif" font-size="10.00">/d_a_obj_carry/d_a_obj</text>
<text text-anchor="middle" x="2413.5" y="-73" font-family="Helvetica,sans-Serif" font-size="10.00">_carry.h</text>
</a>
</g>
</g>
<!-- Node5&#45;&gt;Node92 -->
<g id="edge6" class="edge">
<title>Node5&#45;&gt;Node92</title>
<path fill="none" stroke="#63b8ff" d="M2578.85,-144.39C2546.43,-133.23 2504.83,-118.92 2471.47,-107.44"/>
<polygon fill="#63b8ff" stroke="#63b8ff" points="2577.44,-147.6 2588.04,-147.55 2579.72,-140.98 2577.44,-147.6"/>
</g>
<!-- Node147 -->
<g id="node9" class="node">
<title>Node147</title>
<g id="a_node9"><a xlink:href="d__bg__s_8cpp.html" target="_top" xlink:title=" ">
<polygon fill="white" stroke="#666666" points="3013.5,-96 2909.5,-96 2909.5,-77 3013.5,-77 3013.5,-96"/>
<text text-anchor="middle" x="2961.5" y="-84" font-family="Helvetica,sans-Serif" font-size="10.00">src/d/bg/d_bg_s.cpp</text>
</a>
</g>
</g>
<!-- Node5&#45;&gt;Node147 -->
<g id="edge8" class="edge">
<title>Node5&#45;&gt;Node147</title>
<path fill="none" stroke="#63b8ff" d="M2688.09,-145.1C2690.93,-144.36 2693.74,-143.65 2696.5,-143 2786.08,-121.74 2811.12,-129.07 2900.5,-107 2912.37,-104.07 2925.31,-100.06 2936.19,-96.43"/>
<polygon fill="#63b8ff" stroke="#63b8ff" points="2687.32,-141.68 2678.59,-147.68 2689.16,-148.43 2687.32,-141.68"/>
</g>
<!-- Node149 -->
<g id="node10" class="node">
<title>Node149</title>
<g id="a_node10"><a xlink:href="d__bg__w_8cpp.html" target="_top" xlink:title=" ">
<polygon fill="white" stroke="#666666" points="2891,-96 2784,-96 2784,-77 2891,-77 2891,-96"/>
<text text-anchor="middle" x="2837.5" y="-84" font-family="Helvetica,sans-Serif" font-size="10.00">src/d/bg/d_bg_w.cpp</text>
</a>
</g>
</g>
<!-- Node5&#45;&gt;Node149 -->
<g id="edge9" class="edge">
<title>Node5&#45;&gt;Node149</title>
<path fill="none" stroke="#63b8ff" d="M2681.98,-144.12C2723.63,-128.96 2780.93,-108.1 2813.07,-96.39"/>
<polygon fill="#63b8ff" stroke="#63b8ff" points="2680.84,-140.81 2672.64,-147.52 2683.24,-147.39 2680.84,-140.81"/>
</g>
<!-- Node5&#45;&gt;Node151 -->
<g id="edge10" class="edge">
<title>Node5&#45;&gt;Node151</title>
<path fill="none" stroke="#63b8ff" d="M2645.73,-138.25C2654.16,-123.87 2664.34,-106.53 2670.34,-96.29"/>
<polygon fill="#63b8ff" stroke="#63b8ff" points="2642.79,-136.34 2640.75,-146.73 2648.83,-139.88 2642.79,-136.34"/>
</g>
<!-- Node48 -->
<g id="node12" class="node">
<title>Node48</title>
<g id="a_node12"><a xlink:href="d__com__inf__game_8cpp.html" target="_top" xlink:title=" ">
<polygon fill="white" stroke="#666666" points="1710.5,-101.5 1602.5,-101.5 1602.5,-71.5 1710.5,-71.5 1710.5,-101.5"/>
<text text-anchor="start" x="1610.5" y="-89.5" font-family="Helvetica,sans-Serif" font-size="10.00">src/d/com/d_com_inf</text>
<text text-anchor="middle" x="1656.5" y="-78.5" font-family="Helvetica,sans-Serif" font-size="10.00">_game.cpp</text>
</a>
</g>
</g>
<!-- Node5&#45;&gt;Node48 -->
<g id="edge11" class="edge">
<title>Node5&#45;&gt;Node48</title>
<path fill="none" stroke="#63b8ff" d="M2564.97,-152.14C2541.77,-148.82 2515.53,-145.39 2491.5,-143 2224.78,-116.49 2156.85,-126.18 1889.5,-107 1828.16,-102.6 1757.82,-96.58 1710.61,-92.4"/>
<polygon fill="#63b8ff" stroke="#63b8ff" points="2564.2,-155.57 2574.6,-153.54 2565.2,-148.64 2564.2,-155.57"/>
</g>
<!-- Node154 -->
<g id="node13" class="node">
<title>Node154</title>
<g id="a_node13"><a xlink:href="d__camera_8cpp.html" target="_top" xlink:title=" ">
<polygon fill="white" stroke="#666666" points="2000.5,-96 1898.5,-96 1898.5,-77 2000.5,-77 2000.5,-96"/>
<text text-anchor="middle" x="1949.5" y="-84" font-family="Helvetica,sans-Serif" font-size="10.00">src/d/d_camera.cpp</text>
</a>
</g>
</g>
<!-- Node5&#45;&gt;Node154 -->
<g id="edge12" class="edge">
<title>Node5&#45;&gt;Node154</title>
<path fill="none" stroke="#63b8ff" d="M2564.93,-152.56C2541.72,-149.28 2515.49,-145.76 2491.5,-143 2315.49,-122.77 2270.56,-126.81 2094.5,-107 2063.33,-103.49 2028.49,-98.83 2000.77,-94.94"/>
<polygon fill="#63b8ff" stroke="#63b8ff" points="2564.16,-155.99 2574.55,-153.94 2565.15,-149.06 2564.16,-155.99"/>
</g>
<!-- Node200 -->
<g id="node14" class="node">
<title>Node200</title>
<g id="a_node14"><a xlink:href="f__op__actor_8cpp.html" target="_top" xlink:title=" ">
<polygon fill="white" stroke="#666666" points="2337,-96 2218,-96 2218,-77 2337,-77 2337,-96"/>
<text text-anchor="middle" x="2277.5" y="-84" font-family="Helvetica,sans-Serif" font-size="10.00">src/f_op/f_op_actor.cpp</text>
</a>
</g>
</g>
<!-- Node5&#45;&gt;Node200 -->
<g id="edge13" class="edge">
<title>Node5&#45;&gt;Node200</title>
<path fill="none" stroke="#63b8ff" d="M2565.22,-150.25C2494.48,-137.06 2387.11,-116.68 2346.5,-107 2333.54,-103.91 2319.36,-100 2307.25,-96.49"/>
<polygon fill="#63b8ff" stroke="#63b8ff" points="2564.28,-153.64 2574.76,-152.03 2565.57,-146.76 2564.28,-153.64"/>
</g>
<!-- Node24 -->
<g id="node8" class="node">
<title>Node24</title>
<g id="a_node8"><a xlink:href="d__a__alink_8cpp.html" target="_top" xlink:title=" ">
<polygon fill="white" stroke="#666666" points="2337,-24.5 2228,-24.5 2228,-5.5 2337,-5.5 2337,-24.5"/>
<text text-anchor="middle" x="2282.5" y="-12.5" font-family="Helvetica,sans-Serif" font-size="10.00">src/d/a/d_a_alink.cpp</text>
</a>
</g>
</g>
<!-- Node92&#45;&gt;Node24 -->
<g id="edge7" class="edge">
<title>Node92&#45;&gt;Node24</title>
<path fill="none" stroke="#63b8ff" d="M2365.9,-60.24C2342.65,-47.91 2316.15,-33.85 2299.38,-24.95"/>
<polygon fill="#63b8ff" stroke="#63b8ff" points="2364.15,-63.28 2374.62,-64.87 2367.43,-57.1 2364.15,-63.28"/>
</g>
<!-- Node213&#45;&gt;Node90 -->
<g id="edge46" class="edge">
<title>Node213&#45;&gt;Node90</title>
<path fill="none" stroke="#63b8ff" d="M1520.62,-232.82C1746.81,-228.58 2469.26,-212.82 2509.5,-184 2534.24,-166.28 2542.88,-129.9 2545.89,-107.22"/>
<polygon fill="#63b8ff" stroke="#63b8ff" points="1520.73,-229.32 1510.8,-233 1520.86,-236.31 1520.73,-229.32"/>
</g>
<!-- Node213&#45;&gt;Node92 -->
<g id="edge47" class="edge">
<title>Node213&#45;&gt;Node92</title>
<path fill="none" stroke="#63b8ff" d="M1386.4,-234.25C1274.32,-232.61 1068.26,-219.5 1142.5,-143 1189.11,-94.98 2280.4,-117.43 2346.5,-107 2349.37,-106.55 2352.29,-106.01 2355.23,-105.4"/>
<polygon fill="#63b8ff" stroke="#63b8ff" points="1386.05,-237.75 1396.09,-234.37 1386.13,-230.75 1386.05,-237.75"/>
</g>
<!-- Node214 -->
<g id="node17" class="node">
<title>Node214</title>
<g id="a_node17"><a xlink:href="d__a__alink_8h.html" target="_top" xlink:title=" ">
<polygon fill="white" stroke="#666666" points="971.5,-173 855.5,-173 855.5,-154 971.5,-154 971.5,-173"/>
<text text-anchor="middle" x="913.5" y="-161" font-family="Helvetica,sans-Serif" font-size="10.00">include/d/a/d_a_alink.h</text>
</a>
</g>
</g>
<!-- Node213&#45;&gt;Node214 -->
<g id="edge17" class="edge">
<title>Node213&#45;&gt;Node214</title>
<path fill="none" stroke="#63b8ff" d="M1386.28,-230.66C1294.07,-225.24 1123.47,-212.13 980.5,-184 967.07,-181.36 952.44,-177.25 940.29,-173.48"/>
<polygon fill="#63b8ff" stroke="#63b8ff" points="1385.98,-234.15 1396.17,-231.23 1386.38,-227.16 1385.98,-234.15"/>
</g>
<!-- Node215 -->
<g id="node23" class="node">
<title>Node215</title>
<g id="a_node23"><a xlink:href="d__a__item__static_8h.html" target="_top" xlink:title=" ">
<polygon fill="#fff0f0" stroke="red" points="107,-101.5 0,-101.5 0,-71.5 107,-71.5 107,-101.5"/>
<text text-anchor="start" x="8" y="-89.5" font-family="Helvetica,sans-Serif" font-size="10.00">include/d/a/d_a_item</text>
<text text-anchor="middle" x="53.5" y="-78.5" font-family="Helvetica,sans-Serif" font-size="10.00">_static.h</text>
</a>
</g>
</g>
<!-- Node213&#45;&gt;Node215 -->
<g id="edge27" class="edge">
<title>Node213&#45;&gt;Node215</title>
<path fill="none" stroke="#63b8ff" d="M1386.41,-234.21C1110.1,-234.76 72.31,-233.51 24.5,-184 2.63,-161.35 25.85,-122.84 41.57,-101.98"/>
<polygon fill="#63b8ff" stroke="#63b8ff" points="1386.34,-237.71 1396.33,-234.19 1386.32,-230.71 1386.34,-237.71"/>
</g>
<!-- Node219 -->
<g id="node25" class="node">
<title>Node219</title>
<g id="a_node25"><a xlink:href="d__a__itembase_8h.html" target="_top" xlink:title=" ">
<polygon fill="#fff0f0" stroke="red" points="169,-173 34,-173 34,-154 169,-154 169,-173"/>
<text text-anchor="middle" x="101.5" y="-161" font-family="Helvetica,sans-Serif" font-size="10.00">include/d/a/d_a_itembase.h</text>
</a>
</g>
</g>
<!-- Node213&#45;&gt;Node219 -->
<g id="edge29" class="edge">
<title>Node213&#45;&gt;Node219</title>
<path fill="none" stroke="#63b8ff" d="M1386.34,-233.25C1158.2,-230.39 414.14,-218.59 177.5,-184 161.73,-181.69 144.5,-177.42 130.44,-173.46"/>
<polygon fill="#63b8ff" stroke="#63b8ff" points="1386.21,-236.74 1396.25,-233.37 1386.29,-229.75 1386.21,-236.74"/>
</g>
<!-- Node226 -->
<g id="node26" class="node">
<title>Node226</title>
<g id="a_node26"><a xlink:href="d__bomb_8h.html" target="_top" xlink:title=" ">
<polygon fill="#fff0f0" stroke="red" points="455,-173 354,-173 354,-154 455,-154 455,-173"/>
<text text-anchor="middle" x="404.5" y="-161" font-family="Helvetica,sans-Serif" font-size="10.00">include/d/d_bomb.h</text>
</a>
</g>
</g>
<!-- Node213&#45;&gt;Node226 -->
<g id="edge31" class="edge">
<title>Node213&#45;&gt;Node226</title>
<path fill="none" stroke="#63b8ff" d="M1386.27,-232.91C1193.6,-229.41 641.99,-216.73 464.5,-184 451.9,-181.68 438.28,-177.4 427.21,-173.45"/>
<polygon fill="#63b8ff" stroke="#63b8ff" points="1386.04,-236.4 1396.1,-233.08 1386.17,-229.4 1386.04,-236.4"/>
</g>
<!-- Node19 -->
<g id="node27" class="node">
<title>Node19</title>
<g id="a_node27"><a xlink:href="d__a__b__gnd_8h.html" target="_top" xlink:title=" ">
<polygon fill="white" stroke="#666666" points="589.5,-178.5 473.5,-178.5 473.5,-148.5 589.5,-148.5 589.5,-178.5"/>
<text text-anchor="start" x="481.5" y="-166.5" font-family="Helvetica,sans-Serif" font-size="10.00">include/rel/d/a/b/d</text>
<text text-anchor="middle" x="531.5" y="-155.5" font-family="Helvetica,sans-Serif" font-size="10.00">_a_b_gnd/d_a_b_gnd.h</text>
</a>
</g>
</g>
<!-- Node213&#45;&gt;Node19 -->
<g id="edge32" class="edge">
<title>Node213&#45;&gt;Node19</title>
<path fill="none" stroke="#63b8ff" d="M1386.28,-232.02C1212.17,-226.58 749.6,-210.06 598.5,-184 591.1,-182.72 583.35,-180.92 575.86,-178.92"/>
<polygon fill="#63b8ff" stroke="#63b8ff" points="1385.95,-235.51 1396.06,-232.32 1386.17,-228.52 1385.95,-235.51"/>
</g>
<!-- Node228 -->
<g id="node28" class="node">
<title>Node228</title>
<g id="a_node28"><a xlink:href="d__a__arrow_8h.html" target="_top" xlink:title=" ">
<polygon fill="white" stroke="#666666" points="709,-178.5 608,-178.5 608,-148.5 709,-148.5 709,-178.5"/>
<text text-anchor="start" x="616" y="-166.5" font-family="Helvetica,sans-Serif" font-size="10.00">include/rel/d/a/d_a</text>
<text text-anchor="middle" x="658.5" y="-155.5" font-family="Helvetica,sans-Serif" font-size="10.00">_arrow/d_a_arrow.h</text>
</a>
</g>
</g>
<!-- Node213&#45;&gt;Node228 -->
<g id="edge33" class="edge">
<title>Node213&#45;&gt;Node228</title>
<path fill="none" stroke="#63b8ff" d="M1386.25,-234.92C1256.06,-235.5 961.07,-230.92 718.5,-184 711.94,-182.73 705.1,-180.96 698.49,-179"/>
<polygon fill="#63b8ff" stroke="#63b8ff" points="1386.08,-238.42 1396.06,-234.87 1386.04,-231.42 1386.08,-238.42"/>
</g>
<!-- Node229 -->
<g id="node29" class="node">
<title>Node229</title>
<g id="a_node29"><a xlink:href="d__a__bg__obj_8h.html" target="_top" xlink:title=" ">
<polygon fill="white" stroke="#666666" points="837.5,-178.5 727.5,-178.5 727.5,-148.5 837.5,-148.5 837.5,-178.5"/>
<text text-anchor="start" x="735.5" y="-166.5" font-family="Helvetica,sans-Serif" font-size="10.00">include/rel/d/a/d_a</text>
<text text-anchor="middle" x="782.5" y="-155.5" font-family="Helvetica,sans-Serif" font-size="10.00">_bg_obj/d_a_bg_obj.h</text>
</a>
</g>
</g>
<!-- Node213&#45;&gt;Node229 -->
<g id="edge34" class="edge">
<title>Node213&#45;&gt;Node229</title>
<path fill="none" stroke="#63b8ff" d="M1386.23,-233.13C1273.58,-230.64 1040.09,-221.02 846.5,-184 839.65,-182.69 832.5,-180.92 825.56,-178.99"/>
<polygon fill="#63b8ff" stroke="#63b8ff" points="1386.14,-236.63 1396.21,-233.34 1386.29,-229.63 1386.14,-236.63"/>
</g>
<!-- Node230 -->
<g id="node30" class="node">
<title>Node230</title>
<g id="a_node30"><a xlink:href="d__a__boomerang_8h.html" target="_top" xlink:title=" ">
<polygon fill="white" stroke="#666666" points="336,-178.5 187,-178.5 187,-148.5 336,-148.5 336,-178.5"/>
<text text-anchor="start" x="195" y="-166.5" font-family="Helvetica,sans-Serif" font-size="10.00">include/rel/d/a/d_a</text>
<text text-anchor="middle" x="261.5" y="-155.5" font-family="Helvetica,sans-Serif" font-size="10.00">_boomerang/d_a_boomerang.h</text>
</a>
</g>
</g>
<!-- Node213&#45;&gt;Node230 -->
<g id="edge35" class="edge">
<title>Node213&#45;&gt;Node230</title>
<path fill="none" stroke="#63b8ff" d="M1386.2,-232.6C1178.19,-228.03 547.43,-212.16 344.5,-184 335.41,-182.74 325.85,-180.94 316.59,-178.95"/>
<polygon fill="#63b8ff" stroke="#63b8ff" points="1385.95,-236.1 1396.02,-232.82 1386.1,-229.1 1385.95,-236.1"/>
</g>
<!-- Node231 -->
<g id="node31" class="node">
<title>Node231</title>
<g id="a_node31"><a xlink:href="d__a__canoe_8h.html" target="_top" xlink:title=" ">
<polygon fill="white" stroke="#666666" points="1095.5,-178.5 989.5,-178.5 989.5,-148.5 1095.5,-148.5 1095.5,-178.5"/>
<text text-anchor="start" x="997.5" y="-166.5" font-family="Helvetica,sans-Serif" font-size="10.00">include/rel/d/a/d_a</text>
<text text-anchor="middle" x="1042.5" y="-155.5" font-family="Helvetica,sans-Serif" font-size="10.00">_canoe/d_a_canoe.h</text>
</a>
</g>
</g>
<!-- Node213&#45;&gt;Node231 -->
<g id="edge37" class="edge">
<title>Node213&#45;&gt;Node231</title>
<path fill="none" stroke="#63b8ff" d="M1386.43,-227.04C1316.74,-219.17 1204.75,-204.68 1109.5,-184 1102.87,-182.56 1095.93,-180.82 1089.15,-178.97"/>
<polygon fill="#63b8ff" stroke="#63b8ff" points="1385.83,-230.5 1396.16,-228.13 1386.61,-223.54 1385.83,-230.5"/>
</g>
<!-- Node232 -->
<g id="node32" class="node">
<title>Node232</title>
<g id="a_node32"><a xlink:href="d__a__crod_8h.html" target="_top" xlink:title=" ">
<polygon fill="white" stroke="#666666" points="2199.5,-101.5 2103.5,-101.5 2103.5,-71.5 2199.5,-71.5 2199.5,-101.5"/>
<text text-anchor="start" x="2111.5" y="-89.5" font-family="Helvetica,sans-Serif" font-size="10.00">include/rel/d/a/d_a</text>
<text text-anchor="middle" x="2151.5" y="-78.5" font-family="Helvetica,sans-Serif" font-size="10.00">_crod/d_a_crod.h</text>
</a>
</g>
</g>
<!-- Node213&#45;&gt;Node232 -->
<g id="edge38" class="edge">
<title>Node213&#45;&gt;Node232</title>
<path fill="none" stroke="#63b8ff" d="M1520.69,-233.28C1745.32,-230.56 2457.97,-219.18 2491.5,-184 2504.07,-170.81 2503.54,-156.68 2491.5,-143 2449.75,-95.58 2271.07,-121.14 2209.5,-107 2203.49,-105.62 2197.23,-103.87 2191.14,-101.98"/>
<polygon fill="#63b8ff" stroke="#63b8ff" points="1520.89,-229.78 1510.94,-233.4 1520.98,-236.78 1520.89,-229.78"/>
</g>
<!-- Node233 -->
<g id="node33" class="node">
<title>Node233</title>
<g id="a_node33"><a xlink:href="d__a__cstatue_8h.html" target="_top" xlink:title=" ">
<polygon fill="white" stroke="#666666" points="1269.5,-178.5 1151.5,-178.5 1151.5,-148.5 1269.5,-148.5 1269.5,-178.5"/>
<text text-anchor="start" x="1159.5" y="-166.5" font-family="Helvetica,sans-Serif" font-size="10.00">include/rel/d/a/d_a</text>
<text text-anchor="middle" x="1210.5" y="-155.5" font-family="Helvetica,sans-Serif" font-size="10.00">_cstatue/d_a_cstatue.h</text>
</a>
</g>
</g>
<!-- Node213&#45;&gt;Node233 -->
<g id="edge40" class="edge">
<title>Node213&#45;&gt;Node233</title>
<path fill="none" stroke="#63b8ff" d="M1411.3,-221.96C1375.86,-211.84 1323.87,-196.99 1278.5,-184 1272.83,-182.38 1266.9,-180.68 1261,-178.99"/>
<polygon fill="#63b8ff" stroke="#63b8ff" points="1410.17,-225.27 1420.75,-224.65 1412.09,-218.54 1410.17,-225.27"/>
</g>
<!-- Node234 -->
<g id="node34" class="node">
<title>Node234</title>
<g id="a_node34"><a xlink:href="d__a__horse_8h.html" target="_top" xlink:title=" ">
<polygon fill="#fff0f0" stroke="red" points="2806,-178.5 2705,-178.5 2705,-148.5 2806,-148.5 2806,-178.5"/>
<text text-anchor="start" x="2713" y="-166.5" font-family="Helvetica,sans-Serif" font-size="10.00">include/rel/d/a/d_a</text>
<text text-anchor="middle" x="2755.5" y="-155.5" font-family="Helvetica,sans-Serif" font-size="10.00">_horse/d_a_horse.h</text>
</a>
</g>
</g>
<!-- Node213&#45;&gt;Node234 -->
<g id="edge41" class="edge">
<title>Node213&#45;&gt;Node234</title>
<path fill="none" stroke="#63b8ff" d="M1520.49,-233.72C1744.6,-232.39 2466.88,-224.95 2695.5,-184 2702.29,-182.78 2709.38,-180.98 2716.19,-178.96"/>
<polygon fill="#63b8ff" stroke="#63b8ff" points="1520.75,-230.21 1510.77,-233.77 1520.79,-237.21 1520.75,-230.21"/>
</g>
<!-- Node235 -->
<g id="node35" class="node">
<title>Node235</title>
<g id="a_node35"><a xlink:href="d__a__myna_8h.html" target="_top" xlink:title=" ">
<polygon fill="white" stroke="#666666" points="1387.5,-178.5 1287.5,-178.5 1287.5,-148.5 1387.5,-148.5 1387.5,-178.5"/>
<text text-anchor="start" x="1295.5" y="-166.5" font-family="Helvetica,sans-Serif" font-size="10.00">include/rel/d/a/d_a</text>
<text text-anchor="middle" x="1337.5" y="-155.5" font-family="Helvetica,sans-Serif" font-size="10.00">_myna/d_a_myna.h</text>
</a>
</g>
</g>
<!-- Node213&#45;&gt;Node235 -->
<g id="edge44" class="edge">
<title>Node213&#45;&gt;Node235</title>
<path fill="none" stroke="#63b8ff" d="M1429.2,-219.44C1409.25,-207.49 1381.15,-190.65 1361.32,-178.77"/>
<polygon fill="#63b8ff" stroke="#63b8ff" points="1427.13,-222.28 1437.51,-224.42 1430.73,-216.28 1427.13,-222.28"/>
</g>
<!-- Node236 -->
<g id="node36" class="node">
<title>Node236</title>
<g id="a_node36"><a xlink:href="d__a__tbox_8h.html" target="_top" xlink:title=" ">
<polygon fill="white" stroke="#666666" points="1501.5,-178.5 1405.5,-178.5 1405.5,-148.5 1501.5,-148.5 1501.5,-178.5"/>
<text text-anchor="start" x="1413.5" y="-166.5" font-family="Helvetica,sans-Serif" font-size="10.00">include/rel/d/a/d_a</text>
<text text-anchor="middle" x="1453.5" y="-155.5" font-family="Helvetica,sans-Serif" font-size="10.00">_tbox/d_a_tbox.h</text>
</a>
</g>
</g>
<!-- Node213&#45;&gt;Node236 -->
<g id="edge45" class="edge">
<title>Node213&#45;&gt;Node236</title>
<path fill="none" stroke="#63b8ff" d="M1453.5,-213.89C1453.5,-202.65 1453.5,-188.91 1453.5,-178.77"/>
<polygon fill="#63b8ff" stroke="#63b8ff" points="1450,-213.68 1453.5,-223.68 1457,-213.68 1450,-213.68"/>
</g>
<!-- Node237 -->
<g id="node37" class="node">
<title>Node237</title>
<g id="a_node37"><a xlink:href="d__a__obj__hbombkoya_8h.html" target="_top" xlink:title=" ">
<polygon fill="white" stroke="#666666" points="1635.5,-184 1519.5,-184 1519.5,-143 1635.5,-143 1635.5,-184"/>
<text text-anchor="start" x="1527.5" y="-172" font-family="Helvetica,sans-Serif" font-size="10.00">include/rel/d/a/obj</text>
<text text-anchor="start" x="1527.5" y="-161" font-family="Helvetica,sans-Serif" font-size="10.00">/d_a_obj_hbombkoya/d</text>
<text text-anchor="middle" x="1577.5" y="-150" font-family="Helvetica,sans-Serif" font-size="10.00">_a_obj_hbombkoya.h</text>
</a>
</g>
</g>
<!-- Node213&#45;&gt;Node237 -->
<g id="edge48" class="edge">
<title>Node213&#45;&gt;Node237</title>
<path fill="none" stroke="#63b8ff" d="M1479.3,-219.54C1497.41,-209.39 1521.85,-195.69 1541.82,-184.5"/>
<polygon fill="#63b8ff" stroke="#63b8ff" points="1477.79,-216.37 1470.78,-224.32 1481.21,-222.48 1477.79,-216.37"/>
</g>
<!-- Node238 -->
<g id="node38" class="node">
<title>Node238</title>
<g id="a_node38"><a xlink:href="d__a__obj__iceleaf_8h.html" target="_top" xlink:title=" ">
<polygon fill="white" stroke="#666666" points="1759.5,-184 1653.5,-184 1653.5,-143 1759.5,-143 1759.5,-184"/>
<text text-anchor="start" x="1661.5" y="-172" font-family="Helvetica,sans-Serif" font-size="10.00">include/rel/d/a/obj</text>
<text text-anchor="start" x="1661.5" y="-161" font-family="Helvetica,sans-Serif" font-size="10.00">/d_a_obj_iceleaf/d_a</text>
<text text-anchor="middle" x="1706.5" y="-150" font-family="Helvetica,sans-Serif" font-size="10.00">_obj_iceleaf.h</text>
</a>
</g>
</g>
<!-- Node213&#45;&gt;Node238 -->
<g id="edge49" class="edge">
<title>Node213&#45;&gt;Node238</title>
<path fill="none" stroke="#63b8ff" d="M1500.85,-222.29C1539.61,-212.54 1595.78,-198.03 1644.5,-184 1647.32,-183.19 1650.21,-182.34 1653.12,-181.47"/>
<polygon fill="#63b8ff" stroke="#63b8ff" points="1500.22,-218.84 1491.37,-224.66 1501.92,-225.63 1500.22,-218.84"/>
</g>
<!-- Node239 -->
<g id="node39" class="node">
<title>Node239</title>
<g id="a_node39"><a xlink:href="d__a__obj__lv1Candle00_8h.html" target="_top" xlink:title=" ">
<polygon fill="white" stroke="#666666" points="1897,-184 1778,-184 1778,-143 1897,-143 1897,-184"/>
<text text-anchor="start" x="1786" y="-172" font-family="Helvetica,sans-Serif" font-size="10.00">include/rel/d/a/obj</text>
<text text-anchor="start" x="1786" y="-161" font-family="Helvetica,sans-Serif" font-size="10.00">/d_a_obj_lv1Candle00</text>
<text text-anchor="middle" x="1837.5" y="-150" font-family="Helvetica,sans-Serif" font-size="10.00">/d_a_obj_lv1Candle00.h</text>
</a>
</g>
</g>
<!-- Node213&#45;&gt;Node239 -->
<g id="edge50" class="edge">
<title>Node213&#45;&gt;Node239</title>
<path fill="none" stroke="#63b8ff" d="M1520.5,-225.7C1584.56,-217.21 1683.68,-202.65 1768.5,-184 1771.54,-183.33 1774.64,-182.61 1777.77,-181.85"/>
<polygon fill="#63b8ff" stroke="#63b8ff" points="1520.31,-222.19 1510.85,-226.96 1521.22,-229.13 1520.31,-222.19"/>
</g>
<!-- Node240 -->
<g id="node40" class="node">
<title>Node240</title>
<g id="a_node40"><a xlink:href="d__a__obj__swhang_8h.html" target="_top" xlink:title=" ">
<polygon fill="white" stroke="#666666" points="2026,-184 1915,-184 1915,-143 2026,-143 2026,-184"/>
<text text-anchor="start" x="1923" y="-172" font-family="Helvetica,sans-Serif" font-size="10.00">include/rel/d/a/obj</text>
<text text-anchor="start" x="1923" y="-161" font-family="Helvetica,sans-Serif" font-size="10.00">/d_a_obj_swhang/d_a</text>
<text text-anchor="middle" x="1970.5" y="-150" font-family="Helvetica,sans-Serif" font-size="10.00">_obj_swhang.h</text>
</a>
</g>
</g>
<!-- Node213&#45;&gt;Node240 -->
<g id="edge51" class="edge">
<title>Node213&#45;&gt;Node240</title>
<path fill="none" stroke="#63b8ff" d="M1520.74,-230.49C1609.73,-224.96 1771.19,-211.83 1906.5,-184 1909.23,-183.44 1912.01,-182.81 1914.81,-182.13"/>
<polygon fill="#63b8ff" stroke="#63b8ff" points="1520.74,-226.98 1510.97,-231.08 1521.16,-233.97 1520.74,-226.98"/>
</g>
<!-- Node241 -->
<g id="node41" class="node">
<title>Node241</title>
<g id="a_node41"><a xlink:href="d__a__obj__swpropeller_8h.html" target="_top" xlink:title=" ">
<polygon fill="white" stroke="#666666" points="2160.5,-184 2044.5,-184 2044.5,-143 2160.5,-143 2160.5,-184"/>
<text text-anchor="start" x="2052.5" y="-172" font-family="Helvetica,sans-Serif" font-size="10.00">include/rel/d/a/obj</text>
<text text-anchor="start" x="2052.5" y="-161" font-family="Helvetica,sans-Serif" font-size="10.00">/d_a_obj_swpropeller</text>
<text text-anchor="middle" x="2102.5" y="-150" font-family="Helvetica,sans-Serif" font-size="10.00">/d_a_obj_swpropeller.h</text>
</a>
</g>
</g>
<!-- Node213&#45;&gt;Node241 -->
<g id="edge52" class="edge">
<title>Node213&#45;&gt;Node241</title>
<path fill="none" stroke="#63b8ff" d="M1520.82,-232.52C1629.82,-229.17 1851.3,-218.37 2035.5,-184 2038.36,-183.47 2041.27,-182.86 2044.2,-182.2"/>
<polygon fill="#63b8ff" stroke="#63b8ff" points="1520.77,-229.02 1510.87,-232.82 1520.97,-236.02 1520.77,-229.02"/>
</g>
<!-- Node242 -->
<g id="node42" class="node">
<title>Node242</title>
<g id="a_node42"><a xlink:href="d__a__tag__pachi_8h.html" target="_top" xlink:title=" ">
<polygon fill="white" stroke="#666666" points="2298.5,-184 2178.5,-184 2178.5,-143 2298.5,-143 2298.5,-184"/>
<text text-anchor="start" x="2186.5" y="-172" font-family="Helvetica,sans-Serif" font-size="10.00">include/rel/d/a/tag</text>
<text text-anchor="start" x="2186.5" y="-161" font-family="Helvetica,sans-Serif" font-size="10.00">/d_a_tag_pachi/d_a_tag</text>
<text text-anchor="middle" x="2238.5" y="-150" font-family="Helvetica,sans-Serif" font-size="10.00">_pachi.h</text>
</a>
</g>
</g>
<!-- Node213&#45;&gt;Node242 -->
<g id="edge53" class="edge">
<title>Node213&#45;&gt;Node242</title>
<path fill="none" stroke="#63b8ff" d="M1520.69,-233.9C1648.17,-232.69 1933.5,-225.14 2169.5,-184 2172.32,-183.51 2175.19,-182.95 2178.08,-182.33"/>
<polygon fill="#63b8ff" stroke="#63b8ff" points="1520.7,-230.39 1510.73,-233.98 1520.76,-237.39 1520.7,-230.39"/>
</g>
<!-- Node243 -->
<g id="node43" class="node">
<title>Node243</title>
<g id="a_node43"><a xlink:href="d__cc__d__nonmatching_8cpp.html" target="_top" xlink:title=" ">
<polygon fill="white" stroke="#666666" points="2482,-173 2317,-173 2317,-154 2482,-154 2482,-173"/>
<text text-anchor="middle" x="2399.5" y="-161" font-family="Helvetica,sans-Serif" font-size="10.00">src/d/cc/d_cc_d_nonmatching.cpp</text>
</a>
</g>
</g>
<!-- Node213&#45;&gt;Node243 -->
<g id="edge54" class="edge">
<title>Node213&#45;&gt;Node243</title>
<path fill="none" stroke="#63b8ff" d="M1520.77,-233.49C1665.39,-231.65 2016.4,-223.15 2307.5,-184 2326.11,-181.5 2346.56,-177.31 2363.45,-173.45"/>
<polygon fill="#63b8ff" stroke="#63b8ff" points="1520.95,-229.99 1510.99,-233.61 1521.04,-236.99 1520.95,-229.99"/>
</g>
<!-- Node244 -->
<g id="node44" class="node">
<title>Node244</title>
<g id="a_node44"><a xlink:href="d__cc__mass__s_8cpp.html" target="_top" xlink:title=" ">
<polygon fill="white" stroke="#666666" points="2929,-178.5 2824,-178.5 2824,-148.5 2929,-148.5 2929,-178.5"/>
<text text-anchor="start" x="2832" y="-166.5" font-family="Helvetica,sans-Serif" font-size="10.00">src/d/cc/d_cc_mass</text>
<text text-anchor="middle" x="2876.5" y="-155.5" font-family="Helvetica,sans-Serif" font-size="10.00">_s.cpp</text>
</a>
</g>
</g>
<!-- Node213&#45;&gt;Node244 -->
<g id="edge55" class="edge">
<title>Node213&#45;&gt;Node244</title>
<path fill="none" stroke="#63b8ff" d="M1520.46,-233.95C1758.39,-233.4 2562.38,-228.25 2815.5,-184 2822.4,-182.79 2829.6,-181 2836.53,-178.98"/>
<polygon fill="#63b8ff" stroke="#63b8ff" points="1520.73,-230.45 1510.74,-233.97 1520.75,-237.45 1520.73,-230.45"/>
</g>
<!-- Node214&#45;&gt;Node24 -->
<g id="edge18" class="edge">
<title>Node214&#45;&gt;Node24</title>
<path fill="none" stroke="#63b8ff" d="M951.64,-150.27C961,-147.58 971.05,-144.96 980.5,-143 1456.72,-44.44 2047.18,-21.91 2227.61,-17.17"/>
<polygon fill="#63b8ff" stroke="#63b8ff" points="950.67,-146.9 942.09,-153.11 952.67,-153.61 950.67,-146.9"/>
</g>
<!-- Node214&#45;&gt;Node48 -->
<g id="edge20" class="edge">
<title>Node214&#45;&gt;Node48</title>
<path fill="none" stroke="#63b8ff" d="M950.51,-150.29C960.18,-147.49 970.65,-144.82 980.5,-143 1208.91,-100.83 1486.67,-90.69 1602.12,-88.26"/>
<polygon fill="#63b8ff" stroke="#63b8ff" points="949.63,-146.9 941.07,-153.13 951.65,-153.6 949.63,-146.9"/>
</g>
<!-- Node214&#45;&gt;Node154 -->
<g id="edge21" class="edge">
<title>Node214&#45;&gt;Node154</title>
<path fill="none" stroke="#63b8ff" d="M949.65,-150.3C959.54,-147.42 970.34,-144.7 980.5,-143 1304.82,-88.68 1391.4,-128.89 1719.5,-107 1781.08,-102.89 1851.8,-96.67 1898.38,-92.36"/>
<polygon fill="#63b8ff" stroke="#63b8ff" points="948.93,-146.86 940.39,-153.13 950.98,-153.55 948.93,-146.86"/>
</g>
<!-- Node214&#45;&gt;Node200 -->
<g id="edge26" class="edge">
<title>Node214&#45;&gt;Node200</title>
<path fill="none" stroke="#63b8ff" d="M949.37,-150.24C959.34,-147.34 970.24,-144.62 980.5,-143 1519.86,-58.02 1668.81,-189.87 2208.5,-107 2223.02,-104.77 2238.81,-100.45 2251.62,-96.45"/>
<polygon fill="#63b8ff" stroke="#63b8ff" points="948.59,-146.82 940.05,-153.1 950.64,-153.51 948.59,-146.82"/>
</g>
<!-- Node77 -->
<g id="node18" class="node">
<title>Node77</title>
<g id="a_node18"><a xlink:href="d__a__player_8cpp.html" target="_top" xlink:title=" ">
<polygon fill="white" stroke="#666666" points="472.5,-96 358.5,-96 358.5,-77 472.5,-77 472.5,-96"/>
<text text-anchor="middle" x="415.5" y="-84" font-family="Helvetica,sans-Serif" font-size="10.00">src/d/a/d_a_player.cpp</text>
</a>
</g>
</g>
<!-- Node214&#45;&gt;Node77 -->
<g id="edge19" class="edge">
<title>Node214&#45;&gt;Node77</title>
<path fill="none" stroke="#63b8ff" d="M875.36,-150.29C865.99,-147.6 855.94,-144.97 846.5,-143 776.34,-128.36 572.91,-104.88 472.68,-93.75"/>
<polygon fill="#63b8ff" stroke="#63b8ff" points="874.33,-153.63 884.91,-153.13 876.32,-146.93 874.33,-153.63"/>
</g>
<!-- Node52 -->
<g id="node19" class="node">
<title>Node52</title>
<g id="a_node19"><a xlink:href="d__event_8cpp.html" target="_top" xlink:title=" ">
<polygon fill="white" stroke="#666666" points="723,-96 602,-96 602,-77 723,-77 723,-96"/>
<text text-anchor="middle" x="662.5" y="-84" font-family="Helvetica,sans-Serif" font-size="10.00">src/d/event/d_event.cpp</text>
</a>
</g>
</g>
<!-- Node214&#45;&gt;Node52 -->
<g id="edge22" class="edge">
<title>Node214&#45;&gt;Node52</title>
<path fill="none" stroke="#63b8ff" d="M872.87,-150.36C822.3,-135.25 737.13,-109.8 692.24,-96.39"/>
<polygon fill="#63b8ff" stroke="#63b8ff" points="871.69,-153.66 882.27,-153.17 873.69,-146.95 871.69,-153.66"/>
</g>
<!-- Node45 -->
<g id="node20" class="node">
<title>Node45</title>
<g id="a_node20"><a xlink:href="d__menu__ring_8cpp.html" target="_top" xlink:title=" ">
<polygon fill="white" stroke="#666666" points="883.5,-96 741.5,-96 741.5,-77 883.5,-77 883.5,-96"/>
<text text-anchor="middle" x="812.5" y="-84" font-family="Helvetica,sans-Serif" font-size="10.00">src/d/menu/d_menu_ring.cpp</text>
</a>
</g>
</g>
<!-- Node214&#45;&gt;Node45 -->
<g id="edge23" class="edge">
<title>Node214&#45;&gt;Node45</title>
<path fill="none" stroke="#63b8ff" d="M892.31,-146.76C871.71,-131.47 841.16,-108.78 824.47,-96.39"/>
<polygon fill="#63b8ff" stroke="#63b8ff" points="890.19,-149.55 900.3,-152.7 894.36,-143.93 890.19,-149.55"/>
</g>
<!-- Node55 -->
<g id="node21" class="node">
<title>Node55</title>
<g id="a_node21"><a xlink:href="d__meter2__draw_8cpp.html" target="_top" xlink:title=" ">
<polygon fill="white" stroke="#666666" points="1011.5,-101.5 901.5,-101.5 901.5,-71.5 1011.5,-71.5 1011.5,-101.5"/>
<text text-anchor="start" x="909.5" y="-89.5" font-family="Helvetica,sans-Serif" font-size="10.00">src/d/meter/d_meter2</text>
<text text-anchor="middle" x="956.5" y="-78.5" font-family="Helvetica,sans-Serif" font-size="10.00">_draw.cpp</text>
</a>
</g>
</g>
<!-- Node214&#45;&gt;Node55 -->
<g id="edge24" class="edge">
<title>Node214&#45;&gt;Node55</title>
<path fill="none" stroke="#63b8ff" d="M924.2,-143.83C931.67,-130.81 941.48,-113.7 948.32,-101.77"/>
<polygon fill="#63b8ff" stroke="#63b8ff" points="921.29,-141.87 919.35,-152.29 927.36,-145.35 921.29,-141.87"/>
</g>
<!-- Node8 -->
<g id="node22" class="node">
<title>Node8</title>
<g id="a_node22"><a xlink:href="d__msg__flow_8cpp.html" target="_top" xlink:title=" ">
<polygon fill="white" stroke="#666666" points="1163,-96 1030,-96 1030,-77 1163,-77 1163,-96"/>
<text text-anchor="middle" x="1096.5" y="-84" font-family="Helvetica,sans-Serif" font-size="10.00">src/d/msg/d_msg_flow.cpp</text>
</a>
</g>
</g>
<!-- Node214&#45;&gt;Node8 -->
<g id="edge25" class="edge">
<title>Node214&#45;&gt;Node8</title>
<path fill="none" stroke="#63b8ff" d="M945.48,-149.39C982.59,-134.19 1042.78,-109.52 1074.82,-96.39"/>
<polygon fill="#63b8ff" stroke="#63b8ff" points="944.54,-146 936.61,-153.03 947.19,-152.47 944.54,-146"/>
</g>
<!-- Node216 -->
<g id="node24" class="node">
<title>Node216</title>
<g id="a_node24"><a xlink:href="d__a__obj__item_8h.html" target="_top" xlink:title=" ">
<polygon fill="#fff0f0" stroke="red" points="104,-30 3,-30 3,0 104,0 104,-30"/>
<text text-anchor="start" x="11" y="-18" font-family="Helvetica,sans-Serif" font-size="10.00">include/d/a/d_a_obj</text>
<text text-anchor="middle" x="53.5" y="-7" font-family="Helvetica,sans-Serif" font-size="10.00">_item.h</text>
</a>
</g>
</g>
<!-- Node215&#45;&gt;Node216 -->
<g id="edge28" class="edge">
<title>Node215&#45;&gt;Node216</title>
<path fill="none" stroke="#63b8ff" d="M53.5,-59.76C53.5,-49.83 53.5,-38.86 53.5,-30.38"/>
<polygon fill="#63b8ff" stroke="#63b8ff" points="50,-59.59 53.5,-69.59 57,-59.59 50,-59.59"/>
</g>
<!-- Node219&#45;&gt;Node215 -->
<g id="edge30" class="edge">
<title>Node219&#45;&gt;Node215</title>
<path fill="none" stroke="#63b8ff" d="M89.8,-144.22C81.44,-131.15 70.34,-113.82 62.63,-101.77"/>
<polygon fill="#63b8ff" stroke="#63b8ff" points="86.65,-145.79 94.99,-152.33 92.55,-142.02 86.65,-145.79"/>
</g>
<!-- Node230&#45;&gt;Node77 -->
<g id="edge36" class="edge">
<title>Node230&#45;&gt;Node77</title>
<path fill="none" stroke="#63b8ff" d="M301.27,-143.13C332.31,-128.01 373.98,-107.72 397.46,-96.29"/>
<polygon fill="#63b8ff" stroke="#63b8ff" points="300.01,-139.85 292.55,-147.38 303.08,-146.14 300.01,-139.85"/>
</g>
<!-- Node232&#45;&gt;Node24 -->
<g id="edge39" class="edge">
<title>Node232&#45;&gt;Node24</title>
<path fill="none" stroke="#63b8ff" d="M2188.68,-65.78C2214.05,-52.32 2246.44,-35.13 2265.77,-24.88"/>
<polygon fill="#63b8ff" stroke="#63b8ff" points="2187.17,-62.61 2179.98,-70.39 2190.45,-68.8 2187.17,-62.61"/>
</g>
<!-- Node234&#45;&gt;Node24 -->
<g id="edge42" class="edge">
<title>Node234&#45;&gt;Node24</title>
<path fill="none" stroke="#63b8ff" d="M2758.08,-137.03C2758.79,-114.92 2755.81,-83.74 2736.5,-66 2707.59,-39.45 2451.82,-24.06 2337.4,-18.45"/>
<polygon fill="#63b8ff" stroke="#63b8ff" points="2754.61,-136.53 2757.48,-146.73 2761.59,-136.97 2754.61,-136.53"/>
</g>
<!-- Node234&#45;&gt;Node149 -->
<g id="edge43" class="edge">
<title>Node234&#45;&gt;Node149</title>
<path fill="none" stroke="#63b8ff" d="M2779.75,-140.32C2795.87,-125.58 2816.16,-107.02 2827.89,-96.29"/>
<polygon fill="#63b8ff" stroke="#63b8ff" points="2777.44,-137.69 2772.43,-147.02 2782.17,-142.85 2777.44,-137.69"/>
</g>
<!-- Node245&#45;&gt;Node4 -->
<g id="edge57" class="edge">
<title>Node245&#45;&gt;Node4</title>
<path fill="none" stroke="#63b8ff" d="M2650.72,-286.77C2680.36,-274.21 2724.07,-255.68 2749.68,-244.82"/>
<polygon fill="#63b8ff" stroke="#63b8ff" points="2649.73,-283.39 2641.89,-290.51 2652.46,-289.83 2649.73,-283.39"/>
</g>
<!-- Node245&#45;&gt;Node244 -->
<g id="edge58" class="edge">
<title>Node245&#45;&gt;Node244</title>
<path fill="none" stroke="#63b8ff" d="M2634.03,-282.85C2650.09,-264.88 2677.55,-236.95 2706.5,-220 2709.32,-218.35 2782.08,-194.83 2831.48,-178.94"/>
<polygon fill="#63b8ff" stroke="#63b8ff" points="2631.65,-280.25 2627.71,-290.09 2636.92,-284.85 2631.65,-280.25"/>
</g>
<!-- Node247&#45;&gt;Node147 -->
<g id="edge61" class="edge">
<title>Node247&#45;&gt;Node147</title>
<path fill="none" stroke="#63b8ff" d="M3015.02,-140.32C3000.08,-125.58 2981.28,-107.02 2970.4,-96.29"/>
<polygon fill="#63b8ff" stroke="#63b8ff" points="3012.19,-142.44 3021.77,-146.98 3017.11,-137.46 3012.19,-142.44"/>
</g>
<!-- Node247&#45;&gt;Node149 -->
<g id="edge63" class="edge">
<title>Node247&#45;&gt;Node149</title>
<path fill="none" stroke="#63b8ff" d="M2988.23,-144.02C2947.81,-128.87 2892.36,-108.07 2861.22,-96.39"/>
<polygon fill="#63b8ff" stroke="#63b8ff" points="2986.93,-147.27 2997.52,-147.51 2989.39,-140.72 2986.93,-147.27"/>
</g>
<!-- Node248 -->
<g id="node48" class="node">
<title>Node248</title>
<g id="a_node48"><a xlink:href="d__bg__s__sph__chk_8cpp.html" target="_top" xlink:title=" ">
<polygon fill="white" stroke="#666666" points="3139,-101.5 3032,-101.5 3032,-71.5 3139,-71.5 3139,-101.5"/>
<text text-anchor="start" x="3040" y="-89.5" font-family="Helvetica,sans-Serif" font-size="10.00">src/d/bg/d_bg_s_sph</text>
<text text-anchor="middle" x="3085.5" y="-78.5" font-family="Helvetica,sans-Serif" font-size="10.00">_chk.cpp</text>
</a>
</g>
</g>
<!-- Node247&#45;&gt;Node248 -->
<g id="edge62" class="edge">
<title>Node247&#45;&gt;Node248</title>
<path fill="none" stroke="#63b8ff" d="M3052.83,-138.55C3060.54,-126.5 3069.64,-112.28 3076.27,-101.92"/>
<polygon fill="#63b8ff" stroke="#63b8ff" points="3050.01,-136.46 3047.57,-146.76 3055.91,-140.23 3050.01,-136.46"/>
</g>
</g>
</svg>
