<?xml version="1.0" encoding="UTF-8" standalone="no"?>
<!DOCTYPE svg PUBLIC "-//W3C//DTD SVG 1.1//EN"
 "http://www.w3.org/Graphics/SVG/1.1/DTD/svg11.dtd">
<!-- Generated by graphviz version 7.0.5 (20221223.1930)
 -->
<!-- Title: include/SSystem/SComponent/c_m3d_g_sph.h Pages: 1 -->
<svg width="2563pt" height="522pt"
 viewBox="0.00 0.00 2562.50 522.00" xmlns="http://www.w3.org/2000/svg" xmlns:xlink="http://www.w3.org/1999/xlink">
<g id="graph0" class="graph" transform="scale(1 1) rotate(0) translate(4 518)">
<title>include/SSystem/SComponent/c_m3d_g_sph.h</title>
<!-- Node1 -->
<g id="node1" class="node">
<title>Node1</title>
<g id="a_node1"><a xlink:title=" ">
<polygon fill="#999999" stroke="#666666" points="2362,-514 2213,-514 2213,-484 2362,-484 2362,-514"/>
<text text-anchor="start" x="2221" y="-502" font-family="Helvetica,sans-Serif" font-size="10.00">include/SSystem/SComponent</text>
<text text-anchor="middle" x="2287.5" y="-491" font-family="Helvetica,sans-Serif" font-size="10.00">/c_m3d_g_sph.h</text>
</a>
</g>
</g>
<!-- Node2 -->
<g id="node2" class="node">
<title>Node2</title>
<g id="a_node2"><a xlink:href="c__cc__d_8h.html" target="_top" xlink:title=" ">
<polygon fill="white" stroke="#666666" points="2060,-448 1911,-448 1911,-418 2060,-418 2060,-448"/>
<text text-anchor="start" x="1919" y="-436" font-family="Helvetica,sans-Serif" font-size="10.00">include/SSystem/SComponent</text>
<text text-anchor="middle" x="1985.5" y="-425" font-family="Helvetica,sans-Serif" font-size="10.00">/c_cc_d.h</text>
</a>
</g>
</g>
<!-- Node1&#45;&gt;Node2 -->
<g id="edge1" class="edge">
<title>Node1&#45;&gt;Node2</title>
<path fill="none" stroke="#63b8ff" d="M2208.36,-481.23C2160.31,-471.04 2099.58,-458.18 2053.66,-448.45"/>
<polygon fill="#63b8ff" stroke="#63b8ff" points="2207.36,-484.59 2217.87,-483.24 2208.81,-477.75 2207.36,-484.59"/>
</g>
<!-- Node240 -->
<g id="node47" class="node">
<title>Node240</title>
<g id="a_node47"><a xlink:href="d__bg__s__sph__chk_8h.html" target="_top" xlink:title=" ">
<polygon fill="white" stroke="#666666" points="1914.5,-162 1810.5,-162 1810.5,-132 1914.5,-132 1914.5,-162"/>
<text text-anchor="start" x="1818.5" y="-150" font-family="Helvetica,sans-Serif" font-size="10.00">include/d/bg/d_bg_s</text>
<text text-anchor="middle" x="1862.5" y="-139" font-family="Helvetica,sans-Serif" font-size="10.00">_sph_chk.h</text>
</a>
</g>
</g>
<!-- Node1&#45;&gt;Node240 -->
<g id="edge61" class="edge">
<title>Node1&#45;&gt;Node240</title>
<path fill="none" stroke="#63b8ff" d="M2272.13,-473.92C2267.54,-465.91 2262.84,-456.79 2259.5,-448 2231.52,-374.42 2273.61,-334 2221.5,-275 2180.14,-228.18 2004.17,-181.27 1914.9,-159.92"/>
<polygon fill="#63b8ff" stroke="#63b8ff" points="2269.06,-475.6 2277.2,-482.38 2275.06,-472 2269.06,-475.6"/>
</g>
<!-- Node242 -->
<g id="node49" class="node">
<title>Node242</title>
<g id="a_node49"><a xlink:href="c__m3d_8cpp.html" target="_top" xlink:title=" ">
<polygon fill="white" stroke="#666666" points="2402.5,-448 2268.5,-448 2268.5,-418 2402.5,-418 2402.5,-448"/>
<text text-anchor="start" x="2276.5" y="-436" font-family="Helvetica,sans-Serif" font-size="10.00">libs/SSystem/SComponent</text>
<text text-anchor="middle" x="2335.5" y="-425" font-family="Helvetica,sans-Serif" font-size="10.00">/c_m3d.cpp</text>
</a>
</g>
</g>
<!-- Node1&#45;&gt;Node242 -->
<g id="edge65" class="edge">
<title>Node1&#45;&gt;Node242</title>
<path fill="none" stroke="#63b8ff" d="M2304.99,-474.68C2311.65,-465.79 2319.04,-455.95 2324.88,-448.16"/>
<polygon fill="#63b8ff" stroke="#63b8ff" points="2302.26,-472.49 2299.06,-482.59 2307.86,-476.69 2302.26,-472.49"/>
</g>
<!-- Node243 -->
<g id="node50" class="node">
<title>Node243</title>
<g id="a_node50"><a xlink:href="c__m3d__g__sph_8cpp.html" target="_top" xlink:title=" ">
<polygon fill="white" stroke="#666666" points="2554.5,-448 2420.5,-448 2420.5,-418 2554.5,-418 2554.5,-448"/>
<text text-anchor="start" x="2428.5" y="-436" font-family="Helvetica,sans-Serif" font-size="10.00">libs/SSystem/SComponent</text>
<text text-anchor="middle" x="2487.5" y="-425" font-family="Helvetica,sans-Serif" font-size="10.00">/c_m3d_g_sph.cpp</text>
</a>
</g>
</g>
<!-- Node1&#45;&gt;Node243 -->
<g id="edge66" class="edge">
<title>Node1&#45;&gt;Node243</title>
<path fill="none" stroke="#63b8ff" d="M2343.13,-480.2C2374.43,-470.18 2413.02,-457.83 2442.42,-448.43"/>
<polygon fill="#63b8ff" stroke="#63b8ff" points="2342.28,-476.79 2333.83,-483.18 2344.42,-483.46 2342.28,-476.79"/>
</g>
<!-- Node3 -->
<g id="node3" class="node">
<title>Node3</title>
<g id="a_node3"><a xlink:href="c__cc__s_8h.html" target="_top" xlink:title=" ">
<polygon fill="white" stroke="#666666" points="2060,-382 1911,-382 1911,-352 2060,-352 2060,-382"/>
<text text-anchor="start" x="1919" y="-370" font-family="Helvetica,sans-Serif" font-size="10.00">include/SSystem/SComponent</text>
<text text-anchor="middle" x="1985.5" y="-359" font-family="Helvetica,sans-Serif" font-size="10.00">/c_cc_s.h</text>
</a>
</g>
</g>
<!-- Node2&#45;&gt;Node3 -->
<g id="edge2" class="edge">
<title>Node2&#45;&gt;Node3</title>
<path fill="none" stroke="#63b8ff" d="M1985.5,-406.39C1985.5,-398.13 1985.5,-389.28 1985.5,-382.16"/>
<polygon fill="#63b8ff" stroke="#63b8ff" points="1982,-406.28 1985.5,-416.28 1989,-406.28 1982,-406.28"/>
</g>
<!-- Node209 -->
<g id="node15" class="node">
<title>Node209</title>
<g id="a_node15"><a xlink:href="d__cc__d_8h.html" target="_top" xlink:title=" ">
<polygon fill="white" stroke="#666666" points="1196,-376.5 1085,-376.5 1085,-357.5 1196,-357.5 1196,-376.5"/>
<text text-anchor="middle" x="1140.5" y="-364.5" font-family="Helvetica,sans-Serif" font-size="10.00">include/d/cc/d_cc_d.h</text>
</a>
</g>
</g>
<!-- Node2&#45;&gt;Node209 -->
<g id="edge15" class="edge">
<title>Node2&#45;&gt;Node209</title>
<path fill="none" stroke="#63b8ff" d="M1899.17,-425.46C1726.06,-412.35 1340.77,-383.17 1196.49,-372.24"/>
<polygon fill="#63b8ff" stroke="#63b8ff" points="1898.77,-428.94 1909,-426.21 1899.3,-421.96 1898.77,-428.94"/>
</g>
<!-- Node238 -->
<g id="node45" class="node">
<title>Node238</title>
<g id="a_node45"><a xlink:href="d__cc__mass__s_8h.html" target="_top" xlink:title=" ">
<polygon fill="white" stroke="#666666" points="427.5,-376.5 287.5,-376.5 287.5,-357.5 427.5,-357.5 427.5,-376.5"/>
<text text-anchor="middle" x="357.5" y="-364.5" font-family="Helvetica,sans-Serif" font-size="10.00">include/d/cc/d_cc_mass_s.h</text>
</a>
</g>
</g>
<!-- Node2&#45;&gt;Node238 -->
<g id="edge57" class="edge">
<title>Node2&#45;&gt;Node238</title>
<path fill="none" stroke="#63b8ff" d="M1899.34,-428.61C1612.07,-417.32 690.32,-381.08 427.85,-370.77"/>
<polygon fill="#63b8ff" stroke="#63b8ff" points="1898.87,-432.1 1909,-428.99 1899.15,-425.1 1898.87,-432.1"/>
</g>
<!-- Node239 -->
<g id="node46" class="node">
<title>Node239</title>
<g id="a_node46"><a xlink:href="c__cc__d_8cpp.html" target="_top" xlink:title=" ">
<polygon fill="white" stroke="#666666" points="2212.5,-382 2078.5,-382 2078.5,-352 2212.5,-352 2212.5,-382"/>
<text text-anchor="start" x="2086.5" y="-370" font-family="Helvetica,sans-Serif" font-size="10.00">libs/SSystem/SComponent</text>
<text text-anchor="middle" x="2145.5" y="-359" font-family="Helvetica,sans-Serif" font-size="10.00">/c_cc_d.cpp</text>
</a>
</g>
</g>
<!-- Node2&#45;&gt;Node239 -->
<g id="edge60" class="edge">
<title>Node2&#45;&gt;Node239</title>
<path fill="none" stroke="#63b8ff" d="M2031.98,-413.41C2056.66,-403.54 2086.53,-391.59 2109.44,-382.43"/>
<polygon fill="#63b8ff" stroke="#63b8ff" points="2030.8,-410.11 2022.81,-417.08 2033.4,-416.61 2030.8,-410.11"/>
</g>
<!-- Node4 -->
<g id="node4" class="node">
<title>Node4</title>
<g id="a_node4"><a xlink:href="d__cc__s_8h.html" target="_top" xlink:title=" ">
<polygon fill="white" stroke="#666666" points="1374,-228 1263,-228 1263,-209 1374,-209 1374,-228"/>
<text text-anchor="middle" x="1318.5" y="-216" font-family="Helvetica,sans-Serif" font-size="10.00">include/d/cc/d_cc_s.h</text>
</a>
</g>
</g>
<!-- Node3&#45;&gt;Node4 -->
<g id="edge3" class="edge">
<title>Node3&#45;&gt;Node4</title>
<path fill="none" stroke="#63b8ff" d="M1984.41,-340.28C1982.04,-319.25 1975.13,-290.54 1955.5,-275 1932.84,-257.06 1525.52,-231.58 1374.35,-222.7"/>
<polygon fill="#63b8ff" stroke="#63b8ff" points="1980.91,-340.43 1985.22,-350.11 1987.89,-339.85 1980.91,-340.43"/>
</g>
<!-- Node208 -->
<g id="node14" class="node">
<title>Node208</title>
<g id="a_node14"><a xlink:href="c__cc__s_8cpp.html" target="_top" xlink:title=" ">
<polygon fill="white" stroke="#666666" points="2212.5,-310.5 2078.5,-310.5 2078.5,-280.5 2212.5,-280.5 2212.5,-310.5"/>
<text text-anchor="start" x="2086.5" y="-298.5" font-family="Helvetica,sans-Serif" font-size="10.00">libs/SSystem/SComponent</text>
<text text-anchor="middle" x="2145.5" y="-287.5" font-family="Helvetica,sans-Serif" font-size="10.00">/c_cc_s.cpp</text>
</a>
</g>
</g>
<!-- Node3&#45;&gt;Node208 -->
<g id="edge14" class="edge">
<title>Node3&#45;&gt;Node208</title>
<path fill="none" stroke="#63b8ff" d="M2029.09,-347.07C2055.35,-335.66 2088.27,-321.36 2112.39,-310.88"/>
<polygon fill="#63b8ff" stroke="#63b8ff" points="2027.82,-343.8 2020.04,-351 2030.61,-350.22 2027.82,-343.8"/>
</g>
<!-- Node5 -->
<g id="node5" class="node">
<title>Node5</title>
<g id="a_node5"><a xlink:href="d__com__inf__game_8h.html" target="_top" xlink:title=" ">
<polygon fill="#fff0f0" stroke="red" points="1354.5,-162 1244.5,-162 1244.5,-132 1354.5,-132 1354.5,-162"/>
<text text-anchor="start" x="1252.5" y="-150" font-family="Helvetica,sans-Serif" font-size="10.00">include/d/com/d_com</text>
<text text-anchor="middle" x="1299.5" y="-139" font-family="Helvetica,sans-Serif" font-size="10.00">_inf_game.h</text>
</a>
</g>
</g>
<!-- Node4&#45;&gt;Node5 -->
<g id="edge4" class="edge">
<title>Node4&#45;&gt;Node5</title>
<path fill="none" stroke="#63b8ff" d="M1313.1,-197.76C1310.01,-186.45 1306.2,-172.52 1303.4,-162.27"/>
<polygon fill="#63b8ff" stroke="#63b8ff" points="1309.68,-198.51 1315.69,-207.24 1316.43,-196.67 1309.68,-198.51"/>
</g>
<!-- Node147 -->
<g id="node10" class="node">
<title>Node147</title>
<g id="a_node10"><a xlink:href="d__cc__s_8cpp.html" target="_top" xlink:title=" ">
<polygon fill="white" stroke="#666666" points="1453.5,-85 1349.5,-85 1349.5,-66 1453.5,-66 1453.5,-85"/>
<text text-anchor="middle" x="1401.5" y="-73" font-family="Helvetica,sans-Serif" font-size="10.00">src/d/cc/d_cc_s.cpp</text>
</a>
</g>
</g>
<!-- Node4&#45;&gt;Node147 -->
<g id="edge13" class="edge">
<title>Node4&#45;&gt;Node147</title>
<path fill="none" stroke="#63b8ff" d="M1334.36,-200.38C1343.61,-189.83 1355.08,-175.74 1363.5,-162 1379.63,-135.68 1392.75,-101.33 1398.44,-85.37"/>
<polygon fill="#63b8ff" stroke="#63b8ff" points="1332.03,-197.73 1327.95,-207.51 1337.24,-202.41 1332.03,-197.73"/>
</g>
<!-- Node88 -->
<g id="node6" class="node">
<title>Node88</title>
<g id="a_node6"><a xlink:href="d__a__obj__carry_8h.html" target="_top" xlink:title=" ">
<polygon fill="#fff0f0" stroke="red" points="1587.5,-96 1471.5,-96 1471.5,-55 1587.5,-55 1587.5,-96"/>
<text text-anchor="start" x="1479.5" y="-84" font-family="Helvetica,sans-Serif" font-size="10.00">include/rel/d/a/obj</text>
<text text-anchor="start" x="1479.5" y="-73" font-family="Helvetica,sans-Serif" font-size="10.00">/d_a_obj_carry/d_a_obj</text>
<text text-anchor="middle" x="1529.5" y="-62" font-family="Helvetica,sans-Serif" font-size="10.00">_carry.h</text>
</a>
</g>
</g>
<!-- Node5&#45;&gt;Node88 -->
<g id="edge5" class="edge">
<title>Node5&#45;&gt;Node88</title>
<path fill="none" stroke="#63b8ff" d="M1358.33,-128.22C1392.91,-117.77 1436.49,-104.61 1471.02,-94.17"/>
<polygon fill="#63b8ff" stroke="#63b8ff" points="1357.44,-124.83 1348.88,-131.08 1359.47,-131.54 1357.44,-124.83"/>
</g>
<!-- Node143 -->
<g id="node8" class="node">
<title>Node143</title>
<g id="a_node8"><a xlink:href="d__bg__s_8cpp.html" target="_top" xlink:title=" ">
<polygon fill="white" stroke="#666666" points="1747.5,-85 1643.5,-85 1643.5,-66 1747.5,-66 1747.5,-85"/>
<text text-anchor="middle" x="1695.5" y="-73" font-family="Helvetica,sans-Serif" font-size="10.00">src/d/bg/d_bg_s.cpp</text>
</a>
</g>
</g>
<!-- Node5&#45;&gt;Node143 -->
<g id="edge7" class="edge">
<title>Node5&#45;&gt;Node143</title>
<path fill="none" stroke="#63b8ff" d="M1366.12,-135.33C1426.37,-125.54 1517.49,-110.43 1596.5,-96 1614.42,-92.73 1634.12,-88.9 1651.2,-85.5"/>
<polygon fill="#63b8ff" stroke="#63b8ff" points="1365.67,-131.85 1356.36,-136.91 1366.79,-138.76 1365.67,-131.85"/>
</g>
<!-- Node145 -->
<g id="node9" class="node">
<title>Node145</title>
<g id="a_node9"><a xlink:href="d__bg__w_8cpp.html" target="_top" xlink:title=" ">
<polygon fill="white" stroke="#666666" points="1998,-85 1891,-85 1891,-66 1998,-66 1998,-85"/>
<text text-anchor="middle" x="1944.5" y="-73" font-family="Helvetica,sans-Serif" font-size="10.00">src/d/bg/d_bg_w.cpp</text>
</a>
</g>
</g>
<!-- Node5&#45;&gt;Node145 -->
<g id="edge8" class="edge">
<title>Node5&#45;&gt;Node145</title>
<path fill="none" stroke="#63b8ff" d="M1366.17,-145.02C1475.17,-142.35 1697.88,-132.49 1882.5,-96 1895.23,-93.48 1909.03,-89.29 1920.38,-85.44"/>
<polygon fill="#63b8ff" stroke="#63b8ff" points="1366.15,-141.51 1356.23,-145.24 1366.31,-148.51 1366.15,-141.51"/>
</g>
<!-- Node5&#45;&gt;Node147 -->
<g id="edge9" class="edge">
<title>Node5&#45;&gt;Node147</title>
<path fill="none" stroke="#63b8ff" d="M1330.04,-125.19C1349.54,-111.91 1373.82,-95.36 1388.47,-85.38"/>
<polygon fill="#63b8ff" stroke="#63b8ff" points="1328.18,-122.22 1321.89,-130.75 1332.12,-128.01 1328.18,-122.22"/>
</g>
<!-- Node47 -->
<g id="node11" class="node">
<title>Node47</title>
<g id="a_node11"><a xlink:href="d__com__inf__game_8cpp.html" target="_top" xlink:title=" ">
<polygon fill="white" stroke="#666666" points="1211.5,-90.5 1103.5,-90.5 1103.5,-60.5 1211.5,-60.5 1211.5,-90.5"/>
<text text-anchor="start" x="1111.5" y="-78.5" font-family="Helvetica,sans-Serif" font-size="10.00">src/d/com/d_com_inf</text>
<text text-anchor="middle" x="1157.5" y="-67.5" font-family="Helvetica,sans-Serif" font-size="10.00">_game.cpp</text>
</a>
</g>
</g>
<!-- Node5&#45;&gt;Node47 -->
<g id="edge10" class="edge">
<title>Node5&#45;&gt;Node47</title>
<path fill="none" stroke="#63b8ff" d="M1259.88,-126.61C1236.73,-115.28 1208.01,-101.22 1186.88,-90.88"/>
<polygon fill="#63b8ff" stroke="#63b8ff" points="1258.2,-129.68 1268.72,-130.93 1261.27,-123.39 1258.2,-129.68"/>
</g>
<!-- Node150 -->
<g id="node12" class="node">
<title>Node150</title>
<g id="a_node12"><a xlink:href="d__camera_8cpp.html" target="_top" xlink:title=" ">
<polygon fill="white" stroke="#666666" points="1331.5,-85 1229.5,-85 1229.5,-66 1331.5,-66 1331.5,-85"/>
<text text-anchor="middle" x="1280.5" y="-73" font-family="Helvetica,sans-Serif" font-size="10.00">src/d/d_camera.cpp</text>
</a>
</g>
</g>
<!-- Node5&#45;&gt;Node150 -->
<g id="edge11" class="edge">
<title>Node5&#45;&gt;Node150</title>
<path fill="none" stroke="#63b8ff" d="M1292.62,-120.84C1289.21,-108.36 1285.31,-94.08 1282.87,-85.18"/>
<polygon fill="#63b8ff" stroke="#63b8ff" points="1289.15,-121.42 1295.16,-130.14 1295.9,-119.57 1289.15,-121.42"/>
</g>
<!-- Node196 -->
<g id="node13" class="node">
<title>Node196</title>
<g id="a_node13"><a xlink:href="f__op__actor_8cpp.html" target="_top" xlink:title=" ">
<polygon fill="white" stroke="#666666" points="1085,-85 966,-85 966,-66 1085,-66 1085,-85"/>
<text text-anchor="middle" x="1025.5" y="-73" font-family="Helvetica,sans-Serif" font-size="10.00">src/f_op/f_op_actor.cpp</text>
</a>
</g>
</g>
<!-- Node5&#45;&gt;Node196 -->
<g id="edge12" class="edge">
<title>Node5&#45;&gt;Node196</title>
<path fill="none" stroke="#63b8ff" d="M1233.11,-130.45C1192.9,-120.87 1140.65,-108.14 1094.5,-96 1081.98,-92.71 1068.24,-88.87 1056.35,-85.48"/>
<polygon fill="#63b8ff" stroke="#63b8ff" points="1232.1,-133.81 1242.64,-132.71 1233.72,-127 1232.1,-133.81"/>
</g>
<!-- Node23 -->
<g id="node7" class="node">
<title>Node23</title>
<g id="a_node7"><a xlink:href="d__a__alink_8cpp.html" target="_top" xlink:title=" ">
<polygon fill="white" stroke="#666666" points="1627,-19 1518,-19 1518,0 1627,0 1627,-19"/>
<text text-anchor="middle" x="1572.5" y="-7" font-family="Helvetica,sans-Serif" font-size="10.00">src/d/a/d_a_alink.cpp</text>
</a>
</g>
</g>
<!-- Node88&#45;&gt;Node23 -->
<g id="edge6" class="edge">
<title>Node88&#45;&gt;Node23</title>
<path fill="none" stroke="#63b8ff" d="M1549.11,-45.32C1555.5,-35.8 1562.12,-25.95 1566.68,-19.16"/>
<polygon fill="#63b8ff" stroke="#63b8ff" points="1546.39,-43.09 1543.71,-53.34 1552.2,-47 1546.39,-43.09"/>
</g>
<!-- Node209&#45;&gt;Node88 -->
<g id="edge50" class="edge">
<title>Node209&#45;&gt;Node88</title>
<path fill="none" stroke="#63b8ff" d="M1207.61,-359.74C1274.46,-352.36 1371.34,-338.2 1401.5,-316 1440.79,-287.07 1500.23,-148.33 1521.55,-96.28"/>
<polygon fill="#63b8ff" stroke="#63b8ff" points="1207.41,-356.24 1197.84,-360.79 1208.15,-363.2 1207.41,-356.24"/>
</g>
<!-- Node210 -->
<g id="node16" class="node">
<title>Node210</title>
<g id="a_node16"><a xlink:href="d__a__alink_8h.html" target="_top" xlink:title=" ">
<polygon fill="white" stroke="#666666" points="939.5,-156.5 823.5,-156.5 823.5,-137.5 939.5,-137.5 939.5,-156.5"/>
<text text-anchor="middle" x="881.5" y="-144.5" font-family="Helvetica,sans-Serif" font-size="10.00">include/d/a/d_a_alink.h</text>
</a>
</g>
</g>
<!-- Node209&#45;&gt;Node210 -->
<g id="edge16" class="edge">
<title>Node209&#45;&gt;Node210</title>
<path fill="none" stroke="#63b8ff" d="M1073.28,-366.9C978.41,-366.56 812.5,-359.54 774.5,-316 726.64,-261.16 829.83,-182.92 868.03,-156.84"/>
<polygon fill="#63b8ff" stroke="#63b8ff" points="1073.25,-370.4 1083.26,-366.9 1073.26,-363.4 1073.25,-370.4"/>
</g>
<!-- Node211 -->
<g id="node22" class="node">
<title>Node211</title>
<g id="a_node22"><a xlink:href="d__a__item__static_8h.html" target="_top" xlink:title=" ">
<polygon fill="white" stroke="#666666" points="676,-233.5 569,-233.5 569,-203.5 676,-203.5 676,-233.5"/>
<text text-anchor="start" x="577" y="-221.5" font-family="Helvetica,sans-Serif" font-size="10.00">include/d/a/d_a_item</text>
<text text-anchor="middle" x="622.5" y="-210.5" font-family="Helvetica,sans-Serif" font-size="10.00">_static.h</text>
</a>
</g>
</g>
<!-- Node209&#45;&gt;Node211 -->
<g id="edge26" class="edge">
<title>Node209&#45;&gt;Node211</title>
<path fill="none" stroke="#63b8ff" d="M1073.47,-362.59C975.58,-356.76 798.91,-342.84 741.5,-316 717.29,-304.68 718.05,-292.09 697.5,-275 679.81,-260.3 658.67,-244.83 643.35,-233.97"/>
<polygon fill="#63b8ff" stroke="#63b8ff" points="1073.02,-366.06 1083.21,-363.15 1073.43,-359.08 1073.02,-366.06"/>
</g>
<!-- Node215 -->
<g id="node26" class="node">
<title>Node215</title>
<g id="a_node26"><a xlink:href="d__a__itembase_8h.html" target="_top" xlink:title=" ">
<polygon fill="#fff0f0" stroke="red" points="329,-305 194,-305 194,-286 329,-286 329,-305"/>
<text text-anchor="middle" x="261.5" y="-293" font-family="Helvetica,sans-Serif" font-size="10.00">include/d/a/d_a_itembase.h</text>
</a>
</g>
</g>
<!-- Node209&#45;&gt;Node215 -->
<g id="edge30" class="edge">
<title>Node209&#45;&gt;Node215</title>
<path fill="none" stroke="#63b8ff" d="M1073.53,-363.93C940.37,-359.3 633.06,-346.07 376.5,-316 353.77,-313.34 328.7,-309.23 307.79,-305.46"/>
<polygon fill="#63b8ff" stroke="#63b8ff" points="1073.1,-367.42 1083.21,-364.26 1073.34,-360.42 1073.1,-367.42"/>
</g>
<!-- Node222 -->
<g id="node30" class="node">
<title>Node222</title>
<g id="a_node30"><a xlink:href="d__bomb_8h.html" target="_top" xlink:title=" ">
<polygon fill="#fff0f0" stroke="red" points="885,-305 784,-305 784,-286 885,-286 885,-305"/>
<text text-anchor="middle" x="834.5" y="-293" font-family="Helvetica,sans-Serif" font-size="10.00">include/d/d_bomb.h</text>
</a>
</g>
</g>
<!-- Node209&#45;&gt;Node222 -->
<g id="edge37" class="edge">
<title>Node209&#45;&gt;Node222</title>
<path fill="none" stroke="#63b8ff" d="M1075.28,-354.99C1025.19,-346.01 954.5,-332.19 893.5,-316 882.13,-312.98 869.75,-309 859.28,-305.42"/>
<polygon fill="#63b8ff" stroke="#63b8ff" points="1074.64,-358.44 1085.1,-356.74 1075.87,-351.54 1074.64,-358.44"/>
</g>
<!-- Node224 -->
<g id="node31" class="node">
<title>Node224</title>
<g id="a_node31"><a xlink:href="d__a__arrow_8h.html" target="_top" xlink:title=" ">
<polygon fill="white" stroke="#666666" points="1004,-310.5 903,-310.5 903,-280.5 1004,-280.5 1004,-310.5"/>
<text text-anchor="start" x="911" y="-298.5" font-family="Helvetica,sans-Serif" font-size="10.00">include/rel/d/a/d_a</text>
<text text-anchor="middle" x="953.5" y="-287.5" font-family="Helvetica,sans-Serif" font-size="10.00">_arrow/d_a_arrow.h</text>
</a>
</g>
</g>
<!-- Node209&#45;&gt;Node224 -->
<g id="edge38" class="edge">
<title>Node209&#45;&gt;Node224</title>
<path fill="none" stroke="#63b8ff" d="M1105.76,-353.09C1073.61,-341.14 1025.87,-323.4 992.44,-310.97"/>
<polygon fill="#63b8ff" stroke="#63b8ff" points="1104.42,-356.33 1115.02,-356.53 1106.86,-349.76 1104.42,-356.33"/>
</g>
<!-- Node225 -->
<g id="node32" class="node">
<title>Node225</title>
<g id="a_node32"><a xlink:href="d__a__bg__obj_8h.html" target="_top" xlink:title=" ">
<polygon fill="white" stroke="#666666" points="1132.5,-310.5 1022.5,-310.5 1022.5,-280.5 1132.5,-280.5 1132.5,-310.5"/>
<text text-anchor="start" x="1030.5" y="-298.5" font-family="Helvetica,sans-Serif" font-size="10.00">include/rel/d/a/d_a</text>
<text text-anchor="middle" x="1077.5" y="-287.5" font-family="Helvetica,sans-Serif" font-size="10.00">_bg_obj/d_a_bg_obj.h</text>
</a>
</g>
</g>
<!-- Node209&#45;&gt;Node225 -->
<g id="edge39" class="edge">
<title>Node209&#45;&gt;Node225</title>
<path fill="none" stroke="#63b8ff" d="M1124.85,-348.74C1114.25,-337.04 1100.42,-321.78 1090.44,-310.77"/>
<polygon fill="#63b8ff" stroke="#63b8ff" points="1122.2,-351.02 1131.5,-356.08 1127.38,-346.32 1122.2,-351.02"/>
</g>
<!-- Node226 -->
<g id="node33" class="node">
<title>Node226</title>
<g id="a_node33"><a xlink:href="d__a__boomerang_8h.html" target="_top" xlink:title=" ">
<polygon fill="white" stroke="#666666" points="149,-233.5 0,-233.5 0,-203.5 149,-203.5 149,-233.5"/>
<text text-anchor="start" x="8" y="-221.5" font-family="Helvetica,sans-Serif" font-size="10.00">include/rel/d/a/d_a</text>
<text text-anchor="middle" x="74.5" y="-210.5" font-family="Helvetica,sans-Serif" font-size="10.00">_boomerang/d_a_boomerang.h</text>
</a>
</g>
</g>
<!-- Node209&#45;&gt;Node226 -->
<g id="edge40" class="edge">
<title>Node209&#45;&gt;Node226</title>
<path fill="none" stroke="#63b8ff" d="M1073.31,-365.35C869.07,-362.97 264.61,-352.87 184.5,-316 161.65,-305.49 164.12,-291.9 145.5,-275 129.05,-260.07 109,-244.63 94.41,-233.83"/>
<polygon fill="#63b8ff" stroke="#63b8ff" points="1073.2,-368.85 1083.23,-365.46 1073.27,-361.85 1073.2,-368.85"/>
</g>
<!-- Node227 -->
<g id="node34" class="node">
<title>Node227</title>
<g id="a_node34"><a xlink:href="d__a__canoe_8h.html" target="_top" xlink:title=" ">
<polygon fill="white" stroke="#666666" points="1256.5,-310.5 1150.5,-310.5 1150.5,-280.5 1256.5,-280.5 1256.5,-310.5"/>
<text text-anchor="start" x="1158.5" y="-298.5" font-family="Helvetica,sans-Serif" font-size="10.00">include/rel/d/a/d_a</text>
<text text-anchor="middle" x="1203.5" y="-287.5" font-family="Helvetica,sans-Serif" font-size="10.00">_canoe/d_a_canoe.h</text>
</a>
</g>
</g>
<!-- Node209&#45;&gt;Node227 -->
<g id="edge42" class="edge">
<title>Node209&#45;&gt;Node227</title>
<path fill="none" stroke="#63b8ff" d="M1156.15,-348.74C1166.75,-337.04 1180.58,-321.78 1190.56,-310.77"/>
<polygon fill="#63b8ff" stroke="#63b8ff" points="1153.62,-346.32 1149.5,-356.08 1158.8,-351.02 1153.62,-346.32"/>
</g>
<!-- Node228 -->
<g id="node35" class="node">
<title>Node228</title>
<g id="a_node35"><a xlink:href="d__a__crod_8h.html" target="_top" xlink:title=" ">
<polygon fill="white" stroke="#666666" points="1833.5,-233.5 1737.5,-233.5 1737.5,-203.5 1833.5,-203.5 1833.5,-233.5"/>
<text text-anchor="start" x="1745.5" y="-221.5" font-family="Helvetica,sans-Serif" font-size="10.00">include/rel/d/a/d_a</text>
<text text-anchor="middle" x="1785.5" y="-210.5" font-family="Helvetica,sans-Serif" font-size="10.00">_crod/d_a_crod.h</text>
</a>
</g>
</g>
<!-- Node209&#45;&gt;Node228 -->
<g id="edge43" class="edge">
<title>Node209&#45;&gt;Node228</title>
<path fill="none" stroke="#63b8ff" d="M1207.62,-364.36C1398.11,-359.38 1930.01,-343.1 1955.5,-316 1967.98,-302.73 1966.2,-289.75 1955.5,-275 1927.97,-237.05 1873.77,-224.56 1833.94,-220.7"/>
<polygon fill="#63b8ff" stroke="#63b8ff" points="1207.8,-360.85 1197.9,-364.61 1207.98,-367.85 1207.8,-360.85"/>
</g>
<!-- Node229 -->
<g id="node36" class="node">
<title>Node229</title>
<g id="a_node36"><a xlink:href="d__a__cstatue_8h.html" target="_top" xlink:title=" ">
<polygon fill="white" stroke="#666666" points="1392.5,-310.5 1274.5,-310.5 1274.5,-280.5 1392.5,-280.5 1392.5,-310.5"/>
<text text-anchor="start" x="1282.5" y="-298.5" font-family="Helvetica,sans-Serif" font-size="10.00">include/rel/d/a/d_a</text>
<text text-anchor="middle" x="1333.5" y="-287.5" font-family="Helvetica,sans-Serif" font-size="10.00">_cstatue/d_a_cstatue.h</text>
</a>
</g>
</g>
<!-- Node209&#45;&gt;Node229 -->
<g id="edge45" class="edge">
<title>Node209&#45;&gt;Node229</title>
<path fill="none" stroke="#63b8ff" d="M1175.92,-353.25C1209.11,-341.3 1258.66,-323.45 1293.31,-310.97"/>
<polygon fill="#63b8ff" stroke="#63b8ff" points="1174.98,-349.86 1166.76,-356.54 1177.35,-356.45 1174.98,-349.86"/>
</g>
<!-- Node230 -->
<g id="node37" class="node">
<title>Node230</title>
<g id="a_node37"><a xlink:href="d__a__horse_8h.html" target="_top" xlink:title=" ">
<polygon fill="#fff0f0" stroke="red" points="2077,-162 1976,-162 1976,-132 2077,-132 2077,-162"/>
<text text-anchor="start" x="1984" y="-150" font-family="Helvetica,sans-Serif" font-size="10.00">include/rel/d/a/d_a</text>
<text text-anchor="middle" x="2026.5" y="-139" font-family="Helvetica,sans-Serif" font-size="10.00">_horse/d_a_horse.h</text>
</a>
</g>
</g>
<!-- Node209&#45;&gt;Node230 -->
<g id="edge46" class="edge">
<title>Node209&#45;&gt;Node230</title>
<path fill="none" stroke="#63b8ff" d="M1207.73,-366.27C1395.17,-366.43 1913.75,-362.62 1973.5,-316 2022.21,-278 2027.05,-195.37 2026.92,-162.2"/>
<polygon fill="#63b8ff" stroke="#63b8ff" points="1207.92,-362.77 1197.91,-366.26 1207.91,-369.77 1207.92,-362.77"/>
</g>
<!-- Node231 -->
<g id="node38" class="node">
<title>Node231</title>
<g id="a_node38"><a xlink:href="d__a__myna_8h.html" target="_top" xlink:title=" ">
<polygon fill="white" stroke="#666666" points="1548.5,-310.5 1448.5,-310.5 1448.5,-280.5 1548.5,-280.5 1548.5,-310.5"/>
<text text-anchor="start" x="1456.5" y="-298.5" font-family="Helvetica,sans-Serif" font-size="10.00">include/rel/d/a/d_a</text>
<text text-anchor="middle" x="1498.5" y="-287.5" font-family="Helvetica,sans-Serif" font-size="10.00">_myna/d_a_myna.h</text>
</a>
</g>
</g>
<!-- Node209&#45;&gt;Node231 -->
<g id="edge49" class="edge">
<title>Node209&#45;&gt;Node231</title>
<path fill="none" stroke="#63b8ff" d="M1207.66,-357.06C1267.57,-348.5 1357.46,-334.21 1434.5,-316 1440.72,-314.53 1447.22,-312.79 1453.59,-310.97"/>
<polygon fill="#63b8ff" stroke="#63b8ff" points="1207.38,-353.57 1197.97,-358.43 1208.36,-360.5 1207.38,-353.57"/>
</g>
<!-- Node232 -->
<g id="node39" class="node">
<title>Node232</title>
<g id="a_node39"><a xlink:href="d__a__obj__hbombkoya_8h.html" target="_top" xlink:title=" ">
<polygon fill="white" stroke="#666666" points="1682.5,-316 1566.5,-316 1566.5,-275 1682.5,-275 1682.5,-316"/>
<text text-anchor="start" x="1574.5" y="-304" font-family="Helvetica,sans-Serif" font-size="10.00">include/rel/d/a/obj</text>
<text text-anchor="start" x="1574.5" y="-293" font-family="Helvetica,sans-Serif" font-size="10.00">/d_a_obj_hbombkoya/d</text>
<text text-anchor="middle" x="1624.5" y="-282" font-family="Helvetica,sans-Serif" font-size="10.00">_a_obj_hbombkoya.h</text>
</a>
</g>
</g>
<!-- Node209&#45;&gt;Node232 -->
<g id="edge51" class="edge">
<title>Node209&#45;&gt;Node232</title>
<path fill="none" stroke="#63b8ff" d="M1207.54,-361.36C1290.39,-354.86 1435.36,-340.92 1557.5,-316 1560.35,-315.42 1563.25,-314.78 1566.18,-314.09"/>
<polygon fill="#63b8ff" stroke="#63b8ff" points="1207.48,-357.86 1197.78,-362.12 1208.02,-364.84 1207.48,-357.86"/>
</g>
<!-- Node233 -->
<g id="node40" class="node">
<title>Node233</title>
<g id="a_node40"><a xlink:href="d__a__obj__swhang_8h.html" target="_top" xlink:title=" ">
<polygon fill="white" stroke="#666666" points="1812,-316 1701,-316 1701,-275 1812,-275 1812,-316"/>
<text text-anchor="start" x="1709" y="-304" font-family="Helvetica,sans-Serif" font-size="10.00">include/rel/d/a/obj</text>
<text text-anchor="start" x="1709" y="-293" font-family="Helvetica,sans-Serif" font-size="10.00">/d_a_obj_swhang/d_a</text>
<text text-anchor="middle" x="1756.5" y="-282" font-family="Helvetica,sans-Serif" font-size="10.00">_obj_swhang.h</text>
</a>
</g>
</g>
<!-- Node209&#45;&gt;Node233 -->
<g id="edge52" class="edge">
<title>Node209&#45;&gt;Node233</title>
<path fill="none" stroke="#63b8ff" d="M1207.44,-364.25C1311.75,-360.57 1519.02,-349.35 1691.5,-316 1694.51,-315.42 1697.57,-314.75 1700.66,-314.03"/>
<polygon fill="#63b8ff" stroke="#63b8ff" points="1207.54,-360.75 1197.66,-364.59 1207.78,-367.74 1207.54,-360.75"/>
</g>
<!-- Node234 -->
<g id="node41" class="node">
<title>Node234</title>
<g id="a_node41"><a xlink:href="d__a__obj__swpropeller_8h.html" target="_top" xlink:title=" ">
<polygon fill="white" stroke="#666666" points="1946.5,-316 1830.5,-316 1830.5,-275 1946.5,-275 1946.5,-316"/>
<text text-anchor="start" x="1838.5" y="-304" font-family="Helvetica,sans-Serif" font-size="10.00">include/rel/d/a/obj</text>
<text text-anchor="start" x="1838.5" y="-293" font-family="Helvetica,sans-Serif" font-size="10.00">/d_a_obj_swpropeller</text>
<text text-anchor="middle" x="1888.5" y="-282" font-family="Helvetica,sans-Serif" font-size="10.00">/d_a_obj_swpropeller.h</text>
</a>
</g>
</g>
<!-- Node209&#45;&gt;Node234 -->
<g id="edge53" class="edge">
<title>Node209&#45;&gt;Node234</title>
<path fill="none" stroke="#63b8ff" d="M1207.58,-365.72C1330.38,-364.19 1599.13,-356.06 1821.5,-316 1824.36,-315.48 1827.28,-314.89 1830.21,-314.25"/>
<polygon fill="#63b8ff" stroke="#63b8ff" points="1207.64,-362.22 1197.68,-365.83 1207.72,-369.22 1207.64,-362.22"/>
</g>
<!-- Node235 -->
<g id="node42" class="node">
<title>Node235</title>
<g id="a_node42"><a xlink:href="d__a__tag__pachi_8h.html" target="_top" xlink:title=" ">
<polygon fill="white" stroke="#666666" points="505.5,-316 385.5,-316 385.5,-275 505.5,-275 505.5,-316"/>
<text text-anchor="start" x="393.5" y="-304" font-family="Helvetica,sans-Serif" font-size="10.00">include/rel/d/a/tag</text>
<text text-anchor="start" x="393.5" y="-293" font-family="Helvetica,sans-Serif" font-size="10.00">/d_a_tag_pachi/d_a_tag</text>
<text text-anchor="middle" x="445.5" y="-282" font-family="Helvetica,sans-Serif" font-size="10.00">_pachi.h</text>
</a>
</g>
</g>
<!-- Node209&#45;&gt;Node235 -->
<g id="edge54" class="edge">
<title>Node209&#45;&gt;Node235</title>
<path fill="none" stroke="#63b8ff" d="M1073.35,-364.93C958.14,-362.15 715.77,-352.12 514.5,-316 511.68,-315.49 508.81,-314.92 505.93,-314.3"/>
<polygon fill="#63b8ff" stroke="#63b8ff" points="1073.17,-368.43 1083.25,-365.16 1073.33,-361.43 1073.17,-368.43"/>
</g>
<!-- Node236 -->
<g id="node43" class="node">
<title>Node236</title>
<g id="a_node43"><a xlink:href="d__cc__d__nonmatching_8cpp.html" target="_top" xlink:title=" ">
<polygon fill="white" stroke="#666666" points="689,-305 524,-305 524,-286 689,-286 689,-305"/>
<text text-anchor="middle" x="606.5" y="-293" font-family="Helvetica,sans-Serif" font-size="10.00">src/d/cc/d_cc_d_nonmatching.cpp</text>
</a>
</g>
</g>
<!-- Node209&#45;&gt;Node236 -->
<g id="edge55" class="edge">
<title>Node209&#45;&gt;Node236</title>
<path fill="none" stroke="#63b8ff" d="M1073.34,-360.09C987.35,-352.12 833.85,-336.52 703.5,-316 684.83,-313.06 664.3,-309.05 646.95,-305.43"/>
<polygon fill="#63b8ff" stroke="#63b8ff" points="1072.98,-363.57 1083.26,-361 1073.62,-356.6 1072.98,-363.57"/>
</g>
<!-- Node237 -->
<g id="node44" class="node">
<title>Node237</title>
<g id="a_node44"><a xlink:href="d__cc__mass__s_8cpp.html" target="_top" xlink:title=" ">
<polygon fill="white" stroke="#666666" points="137,-310.5 32,-310.5 32,-280.5 137,-280.5 137,-310.5"/>
<text text-anchor="start" x="40" y="-298.5" font-family="Helvetica,sans-Serif" font-size="10.00">src/d/cc/d_cc_mass</text>
<text text-anchor="middle" x="84.5" y="-287.5" font-family="Helvetica,sans-Serif" font-size="10.00">_s.cpp</text>
</a>
</g>
</g>
<!-- Node209&#45;&gt;Node237 -->
<g id="edge56" class="edge">
<title>Node209&#45;&gt;Node237</title>
<path fill="none" stroke="#63b8ff" d="M1073.31,-364.64C880.78,-360.42 329.48,-345.98 151.5,-316 144.09,-314.75 136.34,-312.97 128.85,-310.97"/>
<polygon fill="#63b8ff" stroke="#63b8ff" points="1073.07,-368.13 1083.14,-364.85 1073.22,-361.14 1073.07,-368.13"/>
</g>
<!-- Node210&#45;&gt;Node23 -->
<g id="edge17" class="edge">
<title>Node210&#45;&gt;Node23</title>
<path fill="none" stroke="#63b8ff" d="M829.58,-134.85C824.16,-133.83 818.73,-132.85 813.5,-132 679.35,-110.07 423.43,-153.12 517.5,-55 552.39,-18.61 1306.46,-11.9 1517.85,-10.73"/>
<polygon fill="#63b8ff" stroke="#63b8ff" points="828.64,-138.24 839.12,-136.72 829.98,-131.37 828.64,-138.24"/>
</g>
<!-- Node210&#45;&gt;Node47 -->
<g id="edge19" class="edge">
<title>Node210&#45;&gt;Node47</title>
<path fill="none" stroke="#63b8ff" d="M934.46,-134.64C977.71,-125.11 1040.33,-110.72 1094.5,-96 1100.25,-94.44 1106.26,-92.71 1112.19,-90.94"/>
<polygon fill="#63b8ff" stroke="#63b8ff" points="933.84,-131.2 924.82,-136.76 935.34,-138.03 933.84,-131.2"/>
</g>
<!-- Node210&#45;&gt;Node150 -->
<g id="edge20" class="edge">
<title>Node210&#45;&gt;Node150</title>
<path fill="none" stroke="#63b8ff" d="M951.09,-139.19C1020.07,-131.64 1128.46,-117.58 1220.5,-96 1232.44,-93.2 1245.42,-89.12 1256.24,-85.41"/>
<polygon fill="#63b8ff" stroke="#63b8ff" points="951.02,-135.68 941.45,-140.23 951.77,-142.64 951.02,-135.68"/>
</g>
<!-- Node210&#45;&gt;Node196 -->
<g id="edge25" class="edge">
<title>Node210&#45;&gt;Node196</title>
<path fill="none" stroke="#63b8ff" d="M910.29,-132.11C939.1,-118.2 982.56,-97.22 1007.04,-85.41"/>
<polygon fill="#63b8ff" stroke="#63b8ff" points="908.88,-128.9 901.39,-136.4 911.92,-135.2 908.88,-128.9"/>
</g>
<!-- Node81 -->
<g id="node17" class="node">
<title>Node81</title>
<g id="a_node17"><a xlink:href="d__a__player_8cpp.html" target="_top" xlink:title=" ">
<polygon fill="white" stroke="#666666" points="274.5,-85 160.5,-85 160.5,-66 274.5,-66 274.5,-85"/>
<text text-anchor="middle" x="217.5" y="-73" font-family="Helvetica,sans-Serif" font-size="10.00">src/d/a/d_a_player.cpp</text>
</a>
</g>
</g>
<!-- Node210&#45;&gt;Node81 -->
<g id="edge18" class="edge">
<title>Node210&#45;&gt;Node81</title>
<path fill="none" stroke="#63b8ff" d="M831.17,-134.89C825.24,-133.8 819.25,-132.81 813.5,-132 603.39,-102.55 548.18,-121.04 337.5,-96 314.13,-93.22 288.35,-89.17 266.7,-85.47"/>
<polygon fill="#63b8ff" stroke="#63b8ff" points="830.49,-138.32 840.97,-136.79 831.81,-131.45 830.49,-138.32"/>
</g>
<!-- Node51 -->
<g id="node18" class="node">
<title>Node51</title>
<g id="a_node18"><a xlink:href="d__event_8cpp.html" target="_top" xlink:title=" ">
<polygon fill="white" stroke="#666666" points="468,-85 347,-85 347,-66 468,-66 468,-85"/>
<text text-anchor="middle" x="407.5" y="-73" font-family="Helvetica,sans-Serif" font-size="10.00">src/d/event/d_event.cpp</text>
</a>
</g>
</g>
<!-- Node210&#45;&gt;Node51 -->
<g id="edge21" class="edge">
<title>Node210&#45;&gt;Node51</title>
<path fill="none" stroke="#63b8ff" d="M829.81,-134.83C824.32,-133.8 818.8,-132.83 813.5,-132 668.19,-109.14 629.26,-122.12 484.5,-96 469.3,-93.26 452.66,-89.18 438.75,-85.47"/>
<polygon fill="#63b8ff" stroke="#63b8ff" points="829.01,-138.24 839.5,-136.72 830.35,-131.37 829.01,-138.24"/>
</g>
<!-- Node44 -->
<g id="node19" class="node">
<title>Node44</title>
<g id="a_node19"><a xlink:href="d__menu__ring_8cpp.html" target="_top" xlink:title=" ">
<polygon fill="white" stroke="#666666" points="668.5,-85 526.5,-85 526.5,-66 668.5,-66 668.5,-85"/>
<text text-anchor="middle" x="597.5" y="-73" font-family="Helvetica,sans-Serif" font-size="10.00">src/d/menu/d_menu_ring.cpp</text>
</a>
</g>
</g>
<!-- Node210&#45;&gt;Node44 -->
<g id="edge22" class="edge">
<title>Node210&#45;&gt;Node44</title>
<path fill="none" stroke="#63b8ff" d="M833.84,-134.34C777.46,-120.54 684.85,-97.88 633.91,-85.41"/>
<polygon fill="#63b8ff" stroke="#63b8ff" points="832.94,-137.72 843.48,-136.7 834.6,-130.92 832.94,-137.72"/>
</g>
<!-- Node54 -->
<g id="node20" class="node">
<title>Node54</title>
<g id="a_node20"><a xlink:href="d__meter2__draw_8cpp.html" target="_top" xlink:title=" ">
<polygon fill="white" stroke="#666666" points="796.5,-90.5 686.5,-90.5 686.5,-60.5 796.5,-60.5 796.5,-90.5"/>
<text text-anchor="start" x="694.5" y="-78.5" font-family="Helvetica,sans-Serif" font-size="10.00">src/d/meter/d_meter2</text>
<text text-anchor="middle" x="741.5" y="-67.5" font-family="Helvetica,sans-Serif" font-size="10.00">_draw.cpp</text>
</a>
</g>
</g>
<!-- Node210&#45;&gt;Node54 -->
<g id="edge23" class="edge">
<title>Node210&#45;&gt;Node54</title>
<path fill="none" stroke="#63b8ff" d="M853.25,-131.98C829.25,-120.06 794.92,-103.02 770.65,-90.97"/>
<polygon fill="#63b8ff" stroke="#63b8ff" points="851.62,-135.07 862.13,-136.38 854.73,-128.8 851.62,-135.07"/>
</g>
<!-- Node8 -->
<g id="node21" class="node">
<title>Node8</title>
<g id="a_node21"><a xlink:href="d__msg__flow_8cpp.html" target="_top" xlink:title=" ">
<polygon fill="white" stroke="#666666" points="948,-85 815,-85 815,-66 948,-66 948,-85"/>
<text text-anchor="middle" x="881.5" y="-73" font-family="Helvetica,sans-Serif" font-size="10.00">src/d/msg/d_msg_flow.cpp</text>
</a>
</g>
</g>
<!-- Node210&#45;&gt;Node8 -->
<g id="edge24" class="edge">
<title>Node210&#45;&gt;Node8</title>
<path fill="none" stroke="#63b8ff" d="M881.5,-125.8C881.5,-112.44 881.5,-95.59 881.5,-85.45"/>
<polygon fill="#63b8ff" stroke="#63b8ff" points="878,-125.68 881.5,-135.68 885,-125.68 878,-125.68"/>
</g>
<!-- Node212 -->
<g id="node23" class="node">
<title>Node212</title>
<g id="a_node23"><a xlink:href="d__a__obj__item_8h.html" target="_top" xlink:title=" ">
<polygon fill="#fff0f0" stroke="red" points="535,-162 434,-162 434,-132 535,-132 535,-162"/>
<text text-anchor="start" x="442" y="-150" font-family="Helvetica,sans-Serif" font-size="10.00">include/d/a/d_a_obj</text>
<text text-anchor="middle" x="484.5" y="-139" font-family="Helvetica,sans-Serif" font-size="10.00">_item.h</text>
</a>
</g>
</g>
<!-- Node211&#45;&gt;Node212 -->
<g id="edge27" class="edge">
<title>Node211&#45;&gt;Node212</title>
<path fill="none" stroke="#63b8ff" d="M583.69,-197.96C561.25,-186.65 533.49,-172.67 513.06,-162.38"/>
<polygon fill="#63b8ff" stroke="#63b8ff" points="582.05,-201.05 592.55,-202.42 585.2,-194.79 582.05,-201.05"/>
</g>
<!-- Node213 -->
<g id="node24" class="node">
<title>Node213</title>
<g id="a_node24"><a xlink:href="d__a__do_8h.html" target="_top" xlink:title=" ">
<polygon fill="white" stroke="#666666" points="649.5,-162 553.5,-162 553.5,-132 649.5,-132 649.5,-162"/>
<text text-anchor="start" x="561.5" y="-150" font-family="Helvetica,sans-Serif" font-size="10.00">include/rel/d/a/d_a</text>
<text text-anchor="middle" x="601.5" y="-139" font-family="Helvetica,sans-Serif" font-size="10.00">_do/d_a_do.h</text>
</a>
</g>
</g>
<!-- Node211&#45;&gt;Node213 -->
<g id="edge28" class="edge">
<title>Node211&#45;&gt;Node213</title>
<path fill="none" stroke="#63b8ff" d="M614.82,-192.08C611.8,-182.08 608.43,-170.95 605.85,-162.38"/>
<polygon fill="#63b8ff" stroke="#63b8ff" points="611.47,-193.09 617.71,-201.65 618.17,-191.07 611.47,-193.09"/>
</g>
<!-- Node214 -->
<g id="node25" class="node">
<title>Node214</title>
<g id="a_node25"><a xlink:href="d__a__item__static_8cpp.html" target="_top" xlink:title=" ">
<polygon fill="white" stroke="#666666" points="805,-156.5 668,-156.5 668,-137.5 805,-137.5 805,-156.5"/>
<text text-anchor="middle" x="736.5" y="-144.5" font-family="Helvetica,sans-Serif" font-size="10.00">src/d/a/d_a_item_static.cpp</text>
</a>
</g>
</g>
<!-- Node211&#45;&gt;Node214 -->
<g id="edge29" class="edge">
<title>Node211&#45;&gt;Node214</title>
<path fill="none" stroke="#63b8ff" d="M655.74,-197.24C677.68,-183.86 705.34,-167 721.94,-156.88"/>
<polygon fill="#63b8ff" stroke="#63b8ff" points="654.13,-194.12 647.41,-202.31 657.77,-200.09 654.13,-194.12"/>
</g>
<!-- Node215&#45;&gt;Node211 -->
<g id="edge31" class="edge">
<title>Node215&#45;&gt;Node211</title>
<path fill="none" stroke="#63b8ff" d="M307.74,-282.92C319.38,-280.17 331.87,-277.35 343.5,-275 438.9,-255.73 464.8,-261.44 559.5,-239 565.74,-237.52 572.26,-235.76 578.65,-233.9"/>
<polygon fill="#63b8ff" stroke="#63b8ff" points="307.28,-279.43 298.37,-285.17 308.91,-286.24 307.28,-279.43"/>
</g>
<!-- Node216 -->
<g id="node27" class="node">
<title>Node216</title>
<g id="a_node27"><a xlink:href="d__a__shop__item__static_8h.html" target="_top" xlink:title=" ">
<polygon fill="#fff0f0" stroke="red" points="276,-233.5 167,-233.5 167,-203.5 276,-203.5 276,-233.5"/>
<text text-anchor="start" x="175" y="-221.5" font-family="Helvetica,sans-Serif" font-size="10.00">include/d/a/d_a_shop</text>
<text text-anchor="middle" x="221.5" y="-210.5" font-family="Helvetica,sans-Serif" font-size="10.00">_item_static.h</text>
</a>
</g>
</g>
<!-- Node215&#45;&gt;Node216 -->
<g id="edge32" class="edge">
<title>Node215&#45;&gt;Node216</title>
<path fill="none" stroke="#63b8ff" d="M251.54,-275.83C244.6,-262.81 235.47,-245.7 229.11,-233.77"/>
<polygon fill="#63b8ff" stroke="#63b8ff" points="248.25,-277.09 256.04,-284.27 254.42,-273.8 248.25,-277.09"/>
</g>
<!-- Node219 -->
<g id="node28" class="node">
<title>Node219</title>
<g id="a_node28"><a xlink:href="d__event_8h.html" target="_top" xlink:title=" ">
<polygon fill="white" stroke="#666666" points="550.5,-228 422.5,-228 422.5,-209 550.5,-209 550.5,-228"/>
<text text-anchor="middle" x="486.5" y="-216" font-family="Helvetica,sans-Serif" font-size="10.00">include/d/event/d_event.h</text>
</a>
</g>
</g>
<!-- Node215&#45;&gt;Node219 -->
<g id="edge33" class="edge">
<title>Node215&#45;&gt;Node219</title>
<path fill="none" stroke="#63b8ff" d="M299.07,-281.98C344.53,-266.82 419.94,-241.69 459.84,-228.39"/>
<polygon fill="#63b8ff" stroke="#63b8ff" points="298.01,-278.64 289.63,-285.12 300.22,-285.28 298.01,-278.64"/>
</g>
<!-- Node220 -->
<g id="node29" class="node">
<title>Node220</title>
<g id="a_node29"><a xlink:href="d__a__obj__kantera_8h.html" target="_top" xlink:title=" ">
<polygon fill="white" stroke="#666666" points="404.5,-239 294.5,-239 294.5,-198 404.5,-198 404.5,-239"/>
<text text-anchor="start" x="302.5" y="-227" font-family="Helvetica,sans-Serif" font-size="10.00">include/rel/d/a/obj</text>
<text text-anchor="start" x="302.5" y="-216" font-family="Helvetica,sans-Serif" font-size="10.00">/d_a_obj_kantera/d_a</text>
<text text-anchor="middle" x="349.5" y="-205" font-family="Helvetica,sans-Serif" font-size="10.00">_obj_kantera.h</text>
</a>
</g>
</g>
<!-- Node215&#45;&gt;Node220 -->
<g id="edge36" class="edge">
<title>Node215&#45;&gt;Node220</title>
<path fill="none" stroke="#63b8ff" d="M280.38,-278.41C293.79,-266.98 311.9,-251.55 326.21,-239.35"/>
<polygon fill="#63b8ff" stroke="#63b8ff" points="278.43,-275.47 273.09,-284.62 282.97,-280.8 278.43,-275.47"/>
</g>
<!-- Node219&#45;&gt;Node5 -->
<g id="edge34" class="edge">
<title>Node219&#45;&gt;Node5</title>
<path fill="none" stroke="#63b8ff" d="M525.84,-205.5C536.66,-202.61 548.45,-199.83 559.5,-198 691.3,-176.16 1095.61,-156.87 1244.07,-150.35"/>
<polygon fill="#63b8ff" stroke="#63b8ff" points="525.15,-202.06 516.46,-208.11 527.03,-208.8 525.15,-202.06"/>
</g>
<!-- Node219&#45;&gt;Node51 -->
<g id="edge35" class="edge">
<title>Node219&#45;&gt;Node51</title>
<path fill="none" stroke="#63b8ff" d="M462.85,-202.15C449.54,-192.27 433.77,-178.26 424.5,-162 410.18,-136.89 407.76,-101.66 407.46,-85.38"/>
<polygon fill="#63b8ff" stroke="#63b8ff" points="460.56,-204.82 470.75,-207.72 464.59,-199.1 460.56,-204.82"/>
</g>
<!-- Node226&#45;&gt;Node81 -->
<g id="edge41" class="edge">
<title>Node226&#45;&gt;Node81</title>
<path fill="none" stroke="#63b8ff" d="M96.93,-195.39C128.92,-163.84 186.25,-107.31 208.41,-85.46"/>
<polygon fill="#63b8ff" stroke="#63b8ff" points="94.74,-192.63 90.08,-202.14 99.65,-197.61 94.74,-192.63"/>
</g>
<!-- Node228&#45;&gt;Node23 -->
<g id="edge44" class="edge">
<title>Node228&#45;&gt;Node23</title>
<path fill="none" stroke="#63b8ff" d="M1754.97,-196.64C1722.97,-173.98 1672.22,-135.66 1634.5,-96 1610.37,-70.62 1587.73,-35.52 1577.79,-19.33"/>
<polygon fill="#63b8ff" stroke="#63b8ff" points="1752.82,-199.41 1763.02,-202.29 1756.84,-193.68 1752.82,-199.41"/>
</g>
<!-- Node230&#45;&gt;Node23 -->
<g id="edge47" class="edge">
<title>Node230&#45;&gt;Node23</title>
<path fill="none" stroke="#63b8ff" d="M2028.68,-120.01C2028.87,-99.26 2025.36,-71.09 2007.5,-55 1979.76,-30 1737.72,-17.14 1627.16,-12.53"/>
<polygon fill="#63b8ff" stroke="#63b8ff" points="2025.18,-119.85 2028.26,-129.99 2032.18,-120.14 2025.18,-119.85"/>
</g>
<!-- Node230&#45;&gt;Node145 -->
<g id="edge48" class="edge">
<title>Node230&#45;&gt;Node145</title>
<path fill="none" stroke="#63b8ff" d="M2000.82,-124.23C1985.24,-111.03 1966.21,-94.9 1954.74,-85.18"/>
<polygon fill="#63b8ff" stroke="#63b8ff" points="1998.46,-126.83 2008.35,-130.62 2002.99,-121.49 1998.46,-126.83"/>
</g>
<!-- Node238&#45;&gt;Node4 -->
<g id="edge58" class="edge">
<title>Node238&#45;&gt;Node4</title>
<path fill="none" stroke="#63b8ff" d="M355.33,-345.85C354.3,-324.74 356.47,-292.28 376.5,-275 410.18,-245.94 1065.1,-226.23 1262.6,-220.93"/>
<polygon fill="#63b8ff" stroke="#63b8ff" points="351.82,-345.84 356.11,-355.53 358.8,-345.28 351.82,-345.84"/>
</g>
<!-- Node238&#45;&gt;Node237 -->
<g id="edge59" class="edge">
<title>Node238&#45;&gt;Node237</title>
<path fill="none" stroke="#63b8ff" d="M307.26,-354.47C265.45,-344.72 204.43,-330.12 151.5,-316 145.53,-314.41 139.28,-312.68 133.1,-310.92"/>
<polygon fill="#63b8ff" stroke="#63b8ff" points="306.25,-357.83 316.78,-356.69 307.84,-351.01 306.25,-357.83"/>
</g>
<!-- Node240&#45;&gt;Node143 -->
<g id="edge62" class="edge">
<title>Node240&#45;&gt;Node143</title>
<path fill="none" stroke="#63b8ff" d="M1817.67,-127.34C1784.98,-113.74 1742.13,-95.91 1716.83,-85.38"/>
<polygon fill="#63b8ff" stroke="#63b8ff" points="1815.92,-130.41 1826.5,-131.02 1818.61,-123.94 1815.92,-130.41"/>
</g>
<!-- Node240&#45;&gt;Node145 -->
<g id="edge64" class="edge">
<title>Node240&#45;&gt;Node145</title>
<path fill="none" stroke="#63b8ff" d="M1888.18,-124.23C1903.76,-111.03 1922.79,-94.9 1934.26,-85.18"/>
<polygon fill="#63b8ff" stroke="#63b8ff" points="1886.01,-121.49 1880.65,-130.62 1890.54,-126.83 1886.01,-121.49"/>
</g>
<!-- Node241 -->
<g id="node48" class="node">
<title>Node241</title>
<g id="a_node48"><a xlink:href="d__bg__s__sph__chk_8cpp.html" target="_top" xlink:title=" ">
<polygon fill="white" stroke="#666666" points="1873,-90.5 1766,-90.5 1766,-60.5 1873,-60.5 1873,-90.5"/>
<text text-anchor="start" x="1774" y="-78.5" font-family="Helvetica,sans-Serif" font-size="10.00">src/d/bg/d_bg_s_sph</text>
<text text-anchor="middle" x="1819.5" y="-67.5" font-family="Helvetica,sans-Serif" font-size="10.00">_chk.cpp</text>
</a>
</g>
</g>
<!-- Node240&#45;&gt;Node241 -->
<g id="edge63" class="edge">
<title>Node240&#45;&gt;Node241</title>
<path fill="none" stroke="#63b8ff" d="M1847.58,-121.88C1841.18,-111.55 1833.93,-99.82 1828.4,-90.88"/>
<polygon fill="#63b8ff" stroke="#63b8ff" points="1844.56,-123.65 1852.79,-130.31 1850.51,-119.97 1844.56,-123.65"/>
</g>
</g>
</svg>
