<?xml version="1.0" encoding="UTF-8" standalone="no"?>
<!DOCTYPE svg PUBLIC "-//W3C//DTD SVG 1.1//EN"
 "http://www.w3.org/Graphics/SVG/1.1/DTD/svg11.dtd">
<!-- Generated by graphviz version 7.0.5 (20221223.1930)
 -->
<!-- Title: include/SSystem/SComponent/c_m3d_g_tri.h Pages: 1 -->
<svg width="2882pt" height="511pt"
 viewBox="0.00 0.00 2881.50 511.00" xmlns="http://www.w3.org/2000/svg" xmlns:xlink="http://www.w3.org/1999/xlink">
<g id="graph0" class="graph" transform="scale(1 1) rotate(0) translate(4 507)">
<title>include/SSystem/SComponent/c_m3d_g_tri.h</title>
<!-- Node1 -->
<g id="node1" class="node">
<title>Node1</title>
<g id="a_node1"><a xlink:title=" ">
<polygon fill="#999999" stroke="#666666" points="1048.5,-503 899.5,-503 899.5,-473 1048.5,-473 1048.5,-503"/>
<text text-anchor="start" x="907.5" y="-491" font-family="Helvetica,sans-Serif" font-size="10.00">include/SSystem/SComponent</text>
<text text-anchor="middle" x="974" y="-480" font-family="Helvetica,sans-Serif" font-size="10.00">/c_m3d_g_tri.h</text>
</a>
</g>
</g>
<!-- Node2 -->
<g id="node2" class="node">
<title>Node2</title>
<g id="a_node2"><a xlink:href="c__cc__d_8h.html" target="_top" xlink:title=" ">
<polygon fill="white" stroke="#666666" points="888.5,-437 739.5,-437 739.5,-407 888.5,-407 888.5,-437"/>
<text text-anchor="start" x="747.5" y="-425" font-family="Helvetica,sans-Serif" font-size="10.00">include/SSystem/SComponent</text>
<text text-anchor="middle" x="814" y="-414" font-family="Helvetica,sans-Serif" font-size="10.00">/c_cc_d.h</text>
</a>
</g>
</g>
<!-- Node1&#45;&gt;Node2 -->
<g id="edge1" class="edge">
<title>Node1&#45;&gt;Node2</title>
<path fill="none" stroke="#63b8ff" d="M927.52,-468.41C902.84,-458.54 872.97,-446.59 850.06,-437.43"/>
<polygon fill="#63b8ff" stroke="#63b8ff" points="926.1,-471.61 936.69,-472.08 928.7,-465.11 926.1,-471.61"/>
</g>
<!-- Node247 -->
<g id="node49" class="node">
<title>Node247</title>
<g id="a_node49"><a xlink:href="c__m3d_8cpp.html" target="_top" xlink:title=" ">
<polygon fill="white" stroke="#666666" points="1041,-437 907,-437 907,-407 1041,-407 1041,-437"/>
<text text-anchor="start" x="915" y="-425" font-family="Helvetica,sans-Serif" font-size="10.00">libs/SSystem/SComponent</text>
<text text-anchor="middle" x="974" y="-414" font-family="Helvetica,sans-Serif" font-size="10.00">/c_m3d.cpp</text>
</a>
</g>
</g>
<!-- Node1&#45;&gt;Node247 -->
<g id="edge63" class="edge">
<title>Node1&#45;&gt;Node247</title>
<path fill="none" stroke="#63b8ff" d="M974,-461.39C974,-453.13 974,-444.28 974,-437.16"/>
<polygon fill="#63b8ff" stroke="#63b8ff" points="970.5,-461.28 974,-471.28 977.5,-461.28 970.5,-461.28"/>
</g>
<!-- Node248 -->
<g id="node50" class="node">
<title>Node248</title>
<g id="a_node50"><a xlink:href="c__m3d__g__tri_8cpp.html" target="_top" xlink:title=" ">
<polygon fill="white" stroke="#666666" points="1193,-437 1059,-437 1059,-407 1193,-407 1193,-437"/>
<text text-anchor="start" x="1067" y="-425" font-family="Helvetica,sans-Serif" font-size="10.00">libs/SSystem/SComponent</text>
<text text-anchor="middle" x="1126" y="-414" font-family="Helvetica,sans-Serif" font-size="10.00">/c_m3d_g_tri.cpp</text>
</a>
</g>
</g>
<!-- Node1&#45;&gt;Node248 -->
<g id="edge64" class="edge">
<title>Node1&#45;&gt;Node248</title>
<path fill="none" stroke="#63b8ff" d="M1018.47,-468.27C1041.86,-458.43 1070.08,-446.55 1091.74,-437.43"/>
<polygon fill="#63b8ff" stroke="#63b8ff" points="1017.36,-464.94 1009.51,-472.05 1020.08,-471.39 1017.36,-464.94"/>
</g>
<!-- Node3 -->
<g id="node3" class="node">
<title>Node3</title>
<g id="a_node3"><a xlink:href="c__cc__s_8h.html" target="_top" xlink:title=" ">
<polygon fill="white" stroke="#666666" points="214.5,-371 65.5,-371 65.5,-341 214.5,-341 214.5,-371"/>
<text text-anchor="start" x="73.5" y="-359" font-family="Helvetica,sans-Serif" font-size="10.00">include/SSystem/SComponent</text>
<text text-anchor="middle" x="140" y="-348" font-family="Helvetica,sans-Serif" font-size="10.00">/c_cc_s.h</text>
</a>
</g>
</g>
<!-- Node2&#45;&gt;Node3 -->
<g id="edge2" class="edge">
<title>Node2&#45;&gt;Node3</title>
<path fill="none" stroke="#63b8ff" d="M728.12,-415.9C613.06,-408.57 402.67,-393.42 224,-371 220.92,-370.61 217.78,-370.2 214.61,-369.76"/>
<polygon fill="#63b8ff" stroke="#63b8ff" points="727.58,-419.37 737.78,-416.51 728.02,-412.39 727.58,-419.37"/>
</g>
<!-- Node213 -->
<g id="node14" class="node">
<title>Node213</title>
<g id="a_node14"><a xlink:href="d__cc__d_8h.html" target="_top" xlink:title=" ">
<polygon fill="white" stroke="#666666" points="1422.5,-365.5 1311.5,-365.5 1311.5,-346.5 1422.5,-346.5 1422.5,-365.5"/>
<text text-anchor="middle" x="1367" y="-353.5" font-family="Helvetica,sans-Serif" font-size="10.00">include/d/cc/d_cc_d.h</text>
</a>
</g>
</g>
<!-- Node2&#45;&gt;Node213 -->
<g id="edge14" class="edge">
<title>Node2&#45;&gt;Node213</title>
<path fill="none" stroke="#63b8ff" d="M899.78,-406.81C1055.1,-385.89 1225.36,-369.61 1311.28,-361.87"/>
<polygon fill="#63b8ff" stroke="#63b8ff" points="899.56,-403.31 890.12,-408.13 900.5,-410.25 899.56,-403.31"/>
</g>
<!-- Node245 -->
<g id="node47" class="node">
<title>Node245</title>
<g id="a_node47"><a xlink:href="d__cc__mass__s_8h.html" target="_top" xlink:title=" ">
<polygon fill="white" stroke="#666666" points="373,-365.5 233,-365.5 233,-346.5 373,-346.5 373,-365.5"/>
<text text-anchor="middle" x="303" y="-353.5" font-family="Helvetica,sans-Serif" font-size="10.00">include/d/cc/d_cc_mass_s.h</text>
</a>
</g>
</g>
<!-- Node2&#45;&gt;Node245 -->
<g id="edge59" class="edge">
<title>Node2&#45;&gt;Node245</title>
<path fill="none" stroke="#63b8ff" d="M727.9,-410.22C628.1,-397.72 465.55,-377.36 373.12,-365.78"/>
<polygon fill="#63b8ff" stroke="#63b8ff" points="727.29,-413.67 737.65,-411.44 728.16,-406.72 727.29,-413.67"/>
</g>
<!-- Node246 -->
<g id="node48" class="node">
<title>Node246</title>
<g id="a_node48"><a xlink:href="c__cc__d_8cpp.html" target="_top" xlink:title=" ">
<polygon fill="white" stroke="#666666" points="1575,-371 1441,-371 1441,-341 1575,-341 1575,-371"/>
<text text-anchor="start" x="1449" y="-359" font-family="Helvetica,sans-Serif" font-size="10.00">libs/SSystem/SComponent</text>
<text text-anchor="middle" x="1508" y="-348" font-family="Helvetica,sans-Serif" font-size="10.00">/c_cc_d.cpp</text>
</a>
</g>
</g>
<!-- Node2&#45;&gt;Node246 -->
<g id="edge62" class="edge">
<title>Node2&#45;&gt;Node246</title>
<path fill="none" stroke="#63b8ff" d="M899.98,-406.87C1136.24,-380.06 1199.66,-400.13 1432,-371 1434.8,-370.65 1437.64,-370.26 1440.52,-369.85"/>
<polygon fill="#63b8ff" stroke="#63b8ff" points="899.64,-403.38 890.1,-408 900.44,-410.34 899.64,-403.38"/>
</g>
<!-- Node4 -->
<g id="node4" class="node">
<title>Node4</title>
<g id="a_node4"><a xlink:href="d__cc__s_8h.html" target="_top" xlink:title=" ">
<polygon fill="white" stroke="#666666" points="360.5,-222.5 249.5,-222.5 249.5,-203.5 360.5,-203.5 360.5,-222.5"/>
<text text-anchor="middle" x="305" y="-210.5" font-family="Helvetica,sans-Serif" font-size="10.00">include/d/cc/d_cc_s.h</text>
</a>
</g>
</g>
<!-- Node3&#45;&gt;Node4 -->
<g id="edge3" class="edge">
<title>Node3&#45;&gt;Node4</title>
<path fill="none" stroke="#63b8ff" d="M154,-331C166.48,-311.14 186.27,-283.19 209,-264 230.83,-245.57 260.58,-231.4 281.15,-222.93"/>
<polygon fill="#63b8ff" stroke="#63b8ff" points="151.01,-329.17 148.79,-339.53 156.98,-332.82 151.01,-329.17"/>
</g>
<!-- Node212 -->
<g id="node13" class="node">
<title>Node212</title>
<g id="a_node13"><a xlink:href="c__cc__s_8cpp.html" target="_top" xlink:title=" ">
<polygon fill="white" stroke="#666666" points="134,-299.5 0,-299.5 0,-269.5 134,-269.5 134,-299.5"/>
<text text-anchor="start" x="8" y="-287.5" font-family="Helvetica,sans-Serif" font-size="10.00">libs/SSystem/SComponent</text>
<text text-anchor="middle" x="67" y="-276.5" font-family="Helvetica,sans-Serif" font-size="10.00">/c_cc_s.cpp</text>
</a>
</g>
</g>
<!-- Node3&#45;&gt;Node212 -->
<g id="edge13" class="edge">
<title>Node3&#45;&gt;Node212</title>
<path fill="none" stroke="#63b8ff" d="M116.68,-332.8C105.36,-322.02 92.09,-309.38 82.11,-299.88"/>
<polygon fill="#63b8ff" stroke="#63b8ff" points="114.12,-335.2 123.78,-339.56 118.95,-330.13 114.12,-335.2"/>
</g>
<!-- Node5 -->
<g id="node5" class="node">
<title>Node5</title>
<g id="a_node5"><a xlink:href="d__com__inf__game_8h.html" target="_top" xlink:title=" ">
<polygon fill="#fff0f0" stroke="red" points="659,-162 549,-162 549,-132 659,-132 659,-162"/>
<text text-anchor="start" x="557" y="-150" font-family="Helvetica,sans-Serif" font-size="10.00">include/d/com/d_com</text>
<text text-anchor="middle" x="604" y="-139" font-family="Helvetica,sans-Serif" font-size="10.00">_inf_game.h</text>
</a>
</g>
</g>
<!-- Node4&#45;&gt;Node5 -->
<g id="edge4" class="edge">
<title>Node4&#45;&gt;Node5</title>
<path fill="none" stroke="#63b8ff" d="M357.87,-200.68C411.51,-189.2 494.17,-171.51 548.67,-159.84"/>
<polygon fill="#63b8ff" stroke="#63b8ff" points="357.42,-197.2 348.37,-202.72 358.88,-204.05 357.42,-197.2"/>
</g>
<!-- Node151 -->
<g id="node9" class="node">
<title>Node151</title>
<g id="a_node9"><a xlink:href="d__cc__s_8cpp.html" target="_top" xlink:title=" ">
<polygon fill="white" stroke="#666666" points="331,-85 227,-85 227,-66 331,-66 331,-85"/>
<text text-anchor="middle" x="279" y="-73" font-family="Helvetica,sans-Serif" font-size="10.00">src/d/cc/d_cc_s.cpp</text>
</a>
</g>
</g>
<!-- Node4&#45;&gt;Node151 -->
<g id="edge12" class="edge">
<title>Node4&#45;&gt;Node151</title>
<path fill="none" stroke="#63b8ff" d="M301.16,-191.98C295.4,-161.99 284.78,-106.63 280.68,-85.25"/>
<polygon fill="#63b8ff" stroke="#63b8ff" points="297.69,-192.46 303.01,-201.62 304.56,-191.14 297.69,-192.46"/>
</g>
<!-- Node90 -->
<g id="node6" class="node">
<title>Node90</title>
<g id="a_node6"><a xlink:href="d__a__obj__bbox_8h.html" target="_top" xlink:title=" ">
<polygon fill="white" stroke="#666666" points="465,-96 349,-96 349,-55 465,-55 465,-96"/>
<text text-anchor="start" x="357" y="-84" font-family="Helvetica,sans-Serif" font-size="10.00">include/rel/d/a/obj</text>
<text text-anchor="start" x="357" y="-73" font-family="Helvetica,sans-Serif" font-size="10.00">/d_a_obj_bbox/d_a_obj</text>
<text text-anchor="middle" x="407" y="-62" font-family="Helvetica,sans-Serif" font-size="10.00">_bbox.h</text>
</a>
</g>
</g>
<!-- Node5&#45;&gt;Node90 -->
<g id="edge5" class="edge">
<title>Node5&#45;&gt;Node90</title>
<path fill="none" stroke="#63b8ff" d="M552.65,-127.88C525.28,-118.23 491.55,-106.33 463.45,-96.42"/>
<polygon fill="#63b8ff" stroke="#63b8ff" points="551.16,-131.07 561.75,-131.1 553.49,-124.47 551.16,-131.07"/>
</g>
<!-- Node92 -->
<g id="node7" class="node">
<title>Node92</title>
<g id="a_node7"><a xlink:href="d__a__obj__carry_8h.html" target="_top" xlink:title=" ">
<polygon fill="#fff0f0" stroke="red" points="1181,-96 1065,-96 1065,-55 1181,-55 1181,-96"/>
<text text-anchor="start" x="1073" y="-84" font-family="Helvetica,sans-Serif" font-size="10.00">include/rel/d/a/obj</text>
<text text-anchor="start" x="1073" y="-73" font-family="Helvetica,sans-Serif" font-size="10.00">/d_a_obj_carry/d_a_obj</text>
<text text-anchor="middle" x="1123" y="-62" font-family="Helvetica,sans-Serif" font-size="10.00">_carry.h</text>
</a>
</g>
</g>
<!-- Node5&#45;&gt;Node92 -->
<g id="edge6" class="edge">
<title>Node5&#45;&gt;Node92</title>
<path fill="none" stroke="#63b8ff" d="M670.67,-142.24C759.34,-136.43 920.63,-122.98 1056,-96 1058.85,-95.43 1061.76,-94.8 1064.68,-94.12"/>
<polygon fill="#63b8ff" stroke="#63b8ff" points="670.7,-138.73 660.95,-142.87 671.15,-145.72 670.7,-138.73"/>
</g>
<!-- Node5&#45;&gt;Node151 -->
<g id="edge8" class="edge">
<title>Node5&#45;&gt;Node151</title>
<path fill="none" stroke="#63b8ff" d="M537.63,-135.74C483.94,-126.89 406.59,-112.88 340,-96 328.25,-93.02 315.45,-89.04 304.62,-85.46"/>
<polygon fill="#63b8ff" stroke="#63b8ff" points="536.78,-139.15 547.22,-137.31 537.91,-132.24 536.78,-139.15"/>
</g>
<!-- Node48 -->
<g id="node10" class="node">
<title>Node48</title>
<g id="a_node10"><a xlink:href="d__com__inf__game_8cpp.html" target="_top" xlink:title=" ">
<polygon fill="white" stroke="#666666" points="729,-90.5 621,-90.5 621,-60.5 729,-60.5 729,-90.5"/>
<text text-anchor="start" x="629" y="-78.5" font-family="Helvetica,sans-Serif" font-size="10.00">src/d/com/d_com_inf</text>
<text text-anchor="middle" x="675" y="-67.5" font-family="Helvetica,sans-Serif" font-size="10.00">_game.cpp</text>
</a>
</g>
</g>
<!-- Node5&#45;&gt;Node48 -->
<g id="edge9" class="edge">
<title>Node5&#45;&gt;Node48</title>
<path fill="none" stroke="#63b8ff" d="M626.68,-123.8C637.69,-113.02 650.6,-100.38 660.31,-90.88"/>
<polygon fill="#63b8ff" stroke="#63b8ff" points="624.49,-121.04 619.79,-130.54 629.39,-126.05 624.49,-121.04"/>
</g>
<!-- Node154 -->
<g id="node11" class="node">
<title>Node154</title>
<g id="a_node11"><a xlink:href="d__camera_8cpp.html" target="_top" xlink:title=" ">
<polygon fill="white" stroke="#666666" points="849,-85 747,-85 747,-66 849,-66 849,-85"/>
<text text-anchor="middle" x="798" y="-73" font-family="Helvetica,sans-Serif" font-size="10.00">src/d/d_camera.cpp</text>
</a>
</g>
</g>
<!-- Node5&#45;&gt;Node154 -->
<g id="edge10" class="edge">
<title>Node5&#45;&gt;Node154</title>
<path fill="none" stroke="#63b8ff" d="M654.57,-127.88C692.61,-114.26 743.12,-96.16 772.94,-85.48"/>
<polygon fill="#63b8ff" stroke="#63b8ff" points="653.86,-124.42 645.62,-131.09 656.22,-131.01 653.86,-124.42"/>
</g>
<!-- Node200 -->
<g id="node12" class="node">
<title>Node200</title>
<g id="a_node12"><a xlink:href="f__op__actor_8cpp.html" target="_top" xlink:title=" ">
<polygon fill="white" stroke="#666666" points="602.5,-85 483.5,-85 483.5,-66 602.5,-66 602.5,-85"/>
<text text-anchor="middle" x="543" y="-73" font-family="Helvetica,sans-Serif" font-size="10.00">src/f_op/f_op_actor.cpp</text>
</a>
</g>
</g>
<!-- Node5&#45;&gt;Node200 -->
<g id="edge11" class="edge">
<title>Node5&#45;&gt;Node200</title>
<path fill="none" stroke="#63b8ff" d="M583.91,-123.12C572.52,-110.13 558.91,-94.63 550.62,-85.18"/>
<polygon fill="#63b8ff" stroke="#63b8ff" points="581.14,-125.26 590.36,-130.46 586.4,-120.64 581.14,-125.26"/>
</g>
<!-- Node24 -->
<g id="node8" class="node">
<title>Node24</title>
<g id="a_node8"><a xlink:href="d__a__alink_8cpp.html" target="_top" xlink:title=" ">
<polygon fill="white" stroke="#666666" points="1054.5,-19 945.5,-19 945.5,0 1054.5,0 1054.5,-19"/>
<text text-anchor="middle" x="1000" y="-7" font-family="Helvetica,sans-Serif" font-size="10.00">src/d/a/d_a_alink.cpp</text>
</a>
</g>
</g>
<!-- Node92&#45;&gt;Node24 -->
<g id="edge7" class="edge">
<title>Node92&#45;&gt;Node24</title>
<path fill="none" stroke="#63b8ff" d="M1074.65,-49.34C1054.26,-38.74 1031.86,-27.08 1016.97,-19.33"/>
<polygon fill="#63b8ff" stroke="#63b8ff" points="1072.93,-52.39 1083.41,-53.9 1076.16,-46.18 1072.93,-52.39"/>
</g>
<!-- Node213&#45;&gt;Node90 -->
<g id="edge49" class="edge">
<title>Node213&#45;&gt;Node90</title>
<path fill="none" stroke="#63b8ff" d="M1299.83,-353.61C1093.34,-349.04 479.84,-333.14 448,-305 387.3,-251.35 396.64,-141.08 403.46,-96.18"/>
<polygon fill="#63b8ff" stroke="#63b8ff" points="1299.52,-357.1 1309.59,-353.82 1299.67,-350.1 1299.52,-357.1"/>
</g>
<!-- Node213&#45;&gt;Node92 -->
<g id="edge50" class="edge">
<title>Node213&#45;&gt;Node92</title>
<path fill="none" stroke="#63b8ff" d="M1413.74,-343.88C1419.85,-342.73 1426.06,-341.73 1432,-341 1496.61,-333.12 2557.69,-351.72 2603,-305 2615.69,-291.92 2613.35,-279 2603,-264 2509.03,-127.86 2417.18,-164.57 2255,-132 1790.67,-38.76 1657.67,-170.75 1190,-96 1187.13,-95.54 1184.21,-95 1181.27,-94.39"/>
<polygon fill="#63b8ff" stroke="#63b8ff" points="1413.5,-340.35 1404.39,-345.75 1414.88,-347.22 1413.5,-340.35"/>
</g>
<!-- Node214 -->
<g id="node15" class="node">
<title>Node214</title>
<g id="a_node15"><a xlink:href="d__a__alink_8h.html" target="_top" xlink:title=" ">
<polygon fill="white" stroke="#666666" points="984,-156.5 868,-156.5 868,-137.5 984,-137.5 984,-156.5"/>
<text text-anchor="middle" x="926" y="-144.5" font-family="Helvetica,sans-Serif" font-size="10.00">include/d/a/d_a_alink.h</text>
</a>
</g>
</g>
<!-- Node213&#45;&gt;Node214 -->
<g id="edge15" class="edge">
<title>Node213&#45;&gt;Node214</title>
<path fill="none" stroke="#63b8ff" d="M1299.68,-353.8C1094.13,-349.81 486.86,-335.49 458,-305 445.58,-291.87 456.14,-206.88 465,-198 492.97,-169.97 750.25,-155.49 867.84,-150.29"/>
<polygon fill="#63b8ff" stroke="#63b8ff" points="1299.61,-357.3 1309.68,-353.99 1299.75,-350.3 1299.61,-357.3"/>
</g>
<!-- Node215 -->
<g id="node21" class="node">
<title>Node215</title>
<g id="a_node21"><a xlink:href="d__a__item__static_8h.html" target="_top" xlink:title=" ">
<polygon fill="white" stroke="#666666" points="2134.5,-228 2027.5,-228 2027.5,-198 2134.5,-198 2134.5,-228"/>
<text text-anchor="start" x="2035.5" y="-216" font-family="Helvetica,sans-Serif" font-size="10.00">include/d/a/d_a_item</text>
<text text-anchor="middle" x="2081" y="-205" font-family="Helvetica,sans-Serif" font-size="10.00">_static.h</text>
</a>
</g>
</g>
<!-- Node213&#45;&gt;Node215 -->
<g id="edge25" class="edge">
<title>Node213&#45;&gt;Node215</title>
<path fill="none" stroke="#63b8ff" d="M1413.74,-343.88C1419.85,-342.73 1426.06,-341.73 1432,-341 1495.61,-333.22 2540.4,-351.02 2585,-305 2597.68,-291.92 2597.23,-277.51 2585,-264 2555.19,-231.09 2258.62,-218.98 2134.84,-215.34"/>
<polygon fill="#63b8ff" stroke="#63b8ff" points="1413.5,-340.36 1404.39,-345.76 1414.88,-347.22 1413.5,-340.36"/>
</g>
<!-- Node219 -->
<g id="node25" class="node">
<title>Node219</title>
<g id="a_node25"><a xlink:href="d__a__itembase_8h.html" target="_top" xlink:title=" ">
<polygon fill="#fff0f0" stroke="red" points="601.5,-294 466.5,-294 466.5,-275 601.5,-275 601.5,-294"/>
<text text-anchor="middle" x="534" y="-282" font-family="Helvetica,sans-Serif" font-size="10.00">include/d/a/d_a_itembase.h</text>
</a>
</g>
</g>
<!-- Node213&#45;&gt;Node219 -->
<g id="edge29" class="edge">
<title>Node213&#45;&gt;Node219</title>
<path fill="none" stroke="#63b8ff" d="M1299.99,-354.65C1167.53,-353.05 863.16,-344.93 611,-305 595.34,-302.52 578.21,-298.33 564.09,-294.47"/>
<polygon fill="#63b8ff" stroke="#63b8ff" points="1299.58,-358.14 1309.62,-354.75 1299.65,-351.14 1299.58,-358.14"/>
</g>
<!-- Node226 -->
<g id="node28" class="node">
<title>Node226</title>
<g id="a_node28"><a xlink:href="d__bomb_8h.html" target="_top" xlink:title=" ">
<polygon fill="#fff0f0" stroke="red" points="720.5,-294 619.5,-294 619.5,-275 720.5,-275 720.5,-294"/>
<text text-anchor="middle" x="670" y="-282" font-family="Helvetica,sans-Serif" font-size="10.00">include/d/d_bomb.h</text>
</a>
</g>
</g>
<!-- Node213&#45;&gt;Node226 -->
<g id="edge35" class="edge">
<title>Node213&#45;&gt;Node226</title>
<path fill="none" stroke="#63b8ff" d="M1299.77,-354.9C1182.81,-353.59 934.8,-345.72 730,-305 717.65,-302.54 704.28,-298.36 693.31,-294.49"/>
<polygon fill="#63b8ff" stroke="#63b8ff" points="1299.47,-358.4 1309.5,-355 1299.53,-351.4 1299.47,-358.4"/>
</g>
<!-- Node19 -->
<g id="node29" class="node">
<title>Node19</title>
<g id="a_node29"><a xlink:href="d__a__b__gnd_8h.html" target="_top" xlink:title=" ">
<polygon fill="white" stroke="#666666" points="855,-299.5 739,-299.5 739,-269.5 855,-269.5 855,-299.5"/>
<text text-anchor="start" x="747" y="-287.5" font-family="Helvetica,sans-Serif" font-size="10.00">include/rel/d/a/b/d</text>
<text text-anchor="middle" x="797" y="-276.5" font-family="Helvetica,sans-Serif" font-size="10.00">_a_b_gnd/d_a_b_gnd.h</text>
</a>
</g>
</g>
<!-- Node213&#45;&gt;Node19 -->
<g id="edge36" class="edge">
<title>Node213&#45;&gt;Node19</title>
<path fill="none" stroke="#63b8ff" d="M1299.82,-352.15C1203,-347.19 1018.95,-334.49 865,-305 857.88,-303.64 850.44,-301.87 843.19,-299.95"/>
<polygon fill="#63b8ff" stroke="#63b8ff" points="1299.52,-355.64 1309.68,-352.65 1299.86,-348.65 1299.52,-355.64"/>
</g>
<!-- Node228 -->
<g id="node30" class="node">
<title>Node228</title>
<g id="a_node30"><a xlink:href="d__a__arrow_8h.html" target="_top" xlink:title=" ">
<polygon fill="white" stroke="#666666" points="974.5,-299.5 873.5,-299.5 873.5,-269.5 974.5,-269.5 974.5,-299.5"/>
<text text-anchor="start" x="881.5" y="-287.5" font-family="Helvetica,sans-Serif" font-size="10.00">include/rel/d/a/d_a</text>
<text text-anchor="middle" x="924" y="-276.5" font-family="Helvetica,sans-Serif" font-size="10.00">_arrow/d_a_arrow.h</text>
</a>
</g>
</g>
<!-- Node213&#45;&gt;Node228 -->
<g id="edge37" class="edge">
<title>Node213&#45;&gt;Node228</title>
<path fill="none" stroke="#63b8ff" d="M1299.83,-350.01C1222.83,-343.41 1093.19,-329.65 984,-305 977.8,-303.6 971.33,-301.84 965.04,-299.94"/>
<polygon fill="#63b8ff" stroke="#63b8ff" points="1299.49,-353.49 1309.75,-350.84 1300.08,-346.51 1299.49,-353.49"/>
</g>
<!-- Node229 -->
<g id="node31" class="node">
<title>Node229</title>
<g id="a_node31"><a xlink:href="d__a__bg__obj_8h.html" target="_top" xlink:title=" ">
<polygon fill="white" stroke="#666666" points="1103,-299.5 993,-299.5 993,-269.5 1103,-269.5 1103,-299.5"/>
<text text-anchor="start" x="1001" y="-287.5" font-family="Helvetica,sans-Serif" font-size="10.00">include/rel/d/a/d_a</text>
<text text-anchor="middle" x="1048" y="-276.5" font-family="Helvetica,sans-Serif" font-size="10.00">_bg_obj/d_a_bg_obj.h</text>
</a>
</g>
</g>
<!-- Node213&#45;&gt;Node229 -->
<g id="edge38" class="edge">
<title>Node213&#45;&gt;Node229</title>
<path fill="none" stroke="#63b8ff" d="M1301.9,-344.13C1250.13,-335.03 1176.02,-320.99 1112,-305 1105.91,-303.48 1099.55,-301.73 1093.29,-299.92"/>
<polygon fill="#63b8ff" stroke="#63b8ff" points="1300.98,-347.52 1311.43,-345.79 1302.18,-340.62 1300.98,-347.52"/>
</g>
<!-- Node230 -->
<g id="node32" class="node">
<title>Node230</title>
<g id="a_node32"><a xlink:href="d__a__boomerang_8h.html" target="_top" xlink:title=" ">
<polygon fill="white" stroke="#666666" points="2754.5,-228 2605.5,-228 2605.5,-198 2754.5,-198 2754.5,-228"/>
<text text-anchor="start" x="2613.5" y="-216" font-family="Helvetica,sans-Serif" font-size="10.00">include/rel/d/a/d_a</text>
<text text-anchor="middle" x="2680" y="-205" font-family="Helvetica,sans-Serif" font-size="10.00">_boomerang/d_a_boomerang.h</text>
</a>
</g>
</g>
<!-- Node213&#45;&gt;Node230 -->
<g id="edge39" class="edge">
<title>Node213&#45;&gt;Node230</title>
<path fill="none" stroke="#63b8ff" d="M1413.74,-343.87C1419.85,-342.73 1426.06,-341.72 1432,-341 1499.53,-332.8 2602.73,-347.31 2656,-305 2679.03,-286.71 2681.54,-249.15 2681,-228.46"/>
<polygon fill="#63b8ff" stroke="#63b8ff" points="1413.5,-340.34 1404.39,-345.74 1414.88,-347.21 1413.5,-340.34"/>
</g>
<!-- Node231 -->
<g id="node33" class="node">
<title>Node231</title>
<g id="a_node33"><a xlink:href="d__a__canoe_8h.html" target="_top" xlink:title=" ">
<polygon fill="white" stroke="#666666" points="1227,-299.5 1121,-299.5 1121,-269.5 1227,-269.5 1227,-299.5"/>
<text text-anchor="start" x="1129" y="-287.5" font-family="Helvetica,sans-Serif" font-size="10.00">include/rel/d/a/d_a</text>
<text text-anchor="middle" x="1174" y="-276.5" font-family="Helvetica,sans-Serif" font-size="10.00">_canoe/d_a_canoe.h</text>
</a>
</g>
</g>
<!-- Node213&#45;&gt;Node231 -->
<g id="edge41" class="edge">
<title>Node213&#45;&gt;Node231</title>
<path fill="none" stroke="#63b8ff" d="M1331.58,-342.25C1298.39,-330.3 1248.84,-312.45 1214.19,-299.97"/>
<polygon fill="#63b8ff" stroke="#63b8ff" points="1330.15,-345.45 1340.74,-345.54 1332.52,-338.86 1330.15,-345.45"/>
</g>
<!-- Node232 -->
<g id="node34" class="node">
<title>Node232</title>
<g id="a_node34"><a xlink:href="d__a__crod_8h.html" target="_top" xlink:title=" ">
<polygon fill="white" stroke="#666666" points="231,-228 135,-228 135,-198 231,-198 231,-228"/>
<text text-anchor="start" x="143" y="-216" font-family="Helvetica,sans-Serif" font-size="10.00">include/rel/d/a/d_a</text>
<text text-anchor="middle" x="183" y="-205" font-family="Helvetica,sans-Serif" font-size="10.00">_crod/d_a_crod.h</text>
</a>
</g>
</g>
<!-- Node213&#45;&gt;Node232 -->
<g id="edge42" class="edge">
<title>Node213&#45;&gt;Node232</title>
<path fill="none" stroke="#63b8ff" d="M1299.89,-354.27C1092.27,-351.65 469.36,-340.86 386,-305 361.74,-294.56 365.75,-277.4 343,-264 323.94,-252.78 271.11,-237.25 231.33,-226.49"/>
<polygon fill="#63b8ff" stroke="#63b8ff" points="1299.66,-357.77 1309.7,-354.39 1299.74,-350.77 1299.66,-357.77"/>
</g>
<!-- Node233 -->
<g id="node35" class="node">
<title>Node233</title>
<g id="a_node35"><a xlink:href="d__a__cstatue_8h.html" target="_top" xlink:title=" ">
<polygon fill="white" stroke="#666666" points="1363,-299.5 1245,-299.5 1245,-269.5 1363,-269.5 1363,-299.5"/>
<text text-anchor="start" x="1253" y="-287.5" font-family="Helvetica,sans-Serif" font-size="10.00">include/rel/d/a/d_a</text>
<text text-anchor="middle" x="1304" y="-276.5" font-family="Helvetica,sans-Serif" font-size="10.00">_cstatue/d_a_cstatue.h</text>
</a>
</g>
</g>
<!-- Node213&#45;&gt;Node233 -->
<g id="edge44" class="edge">
<title>Node213&#45;&gt;Node233</title>
<path fill="none" stroke="#63b8ff" d="M1351.35,-337.74C1340.75,-326.04 1326.92,-310.78 1316.94,-299.77"/>
<polygon fill="#63b8ff" stroke="#63b8ff" points="1348.7,-340.02 1358,-345.08 1353.88,-335.32 1348.7,-340.02"/>
</g>
<!-- Node234 -->
<g id="node36" class="node">
<title>Node234</title>
<g id="a_node36"><a xlink:href="d__a__horse_8h.html" target="_top" xlink:title=" ">
<polygon fill="#fff0f0" stroke="red" points="2873.5,-228 2772.5,-228 2772.5,-198 2873.5,-198 2873.5,-228"/>
<text text-anchor="start" x="2780.5" y="-216" font-family="Helvetica,sans-Serif" font-size="10.00">include/rel/d/a/d_a</text>
<text text-anchor="middle" x="2823" y="-205" font-family="Helvetica,sans-Serif" font-size="10.00">_horse/d_a_horse.h</text>
</a>
</g>
</g>
<!-- Node213&#45;&gt;Node234 -->
<g id="edge45" class="edge">
<title>Node213&#45;&gt;Node234</title>
<path fill="none" stroke="#63b8ff" d="M1413.74,-343.86C1419.85,-342.72 1426.06,-341.72 1432,-341 1569.83,-324.31 2548.34,-345.94 2681,-305 2731.92,-289.28 2782.21,-249.92 2807.03,-228.48"/>
<polygon fill="#63b8ff" stroke="#63b8ff" points="1413.5,-340.34 1404.39,-345.74 1414.88,-347.2 1413.5,-340.34"/>
</g>
<!-- Node235 -->
<g id="node37" class="node">
<title>Node235</title>
<g id="a_node37"><a xlink:href="d__a__myna_8h.html" target="_top" xlink:title=" ">
<polygon fill="white" stroke="#666666" points="1481,-299.5 1381,-299.5 1381,-269.5 1481,-269.5 1481,-299.5"/>
<text text-anchor="start" x="1389" y="-287.5" font-family="Helvetica,sans-Serif" font-size="10.00">include/rel/d/a/d_a</text>
<text text-anchor="middle" x="1431" y="-276.5" font-family="Helvetica,sans-Serif" font-size="10.00">_myna/d_a_myna.h</text>
</a>
</g>
</g>
<!-- Node213&#45;&gt;Node235 -->
<g id="edge47" class="edge">
<title>Node213&#45;&gt;Node235</title>
<path fill="none" stroke="#63b8ff" d="M1382.9,-337.74C1393.66,-326.04 1407.72,-310.78 1417.86,-299.77"/>
<polygon fill="#63b8ff" stroke="#63b8ff" points="1380.33,-335.36 1376.13,-345.08 1385.48,-340.1 1380.33,-335.36"/>
</g>
<!-- Node236 -->
<g id="node38" class="node">
<title>Node236</title>
<g id="a_node38"><a xlink:href="d__a__tbox_8h.html" target="_top" xlink:title=" ">
<polygon fill="white" stroke="#666666" points="1595,-299.5 1499,-299.5 1499,-269.5 1595,-269.5 1595,-299.5"/>
<text text-anchor="start" x="1507" y="-287.5" font-family="Helvetica,sans-Serif" font-size="10.00">include/rel/d/a/d_a</text>
<text text-anchor="middle" x="1547" y="-276.5" font-family="Helvetica,sans-Serif" font-size="10.00">_tbox/d_a_tbox.h</text>
</a>
</g>
</g>
<!-- Node213&#45;&gt;Node236 -->
<g id="edge48" class="edge">
<title>Node213&#45;&gt;Node236</title>
<path fill="none" stroke="#63b8ff" d="M1400.84,-341.93C1431.79,-329.99 1477.48,-312.34 1509.52,-299.97"/>
<polygon fill="#63b8ff" stroke="#63b8ff" points="1399.64,-338.64 1391.58,-345.51 1402.16,-345.17 1399.64,-338.64"/>
</g>
<!-- Node237 -->
<g id="node39" class="node">
<title>Node237</title>
<g id="a_node39"><a xlink:href="d__a__obj__hbombkoya_8h.html" target="_top" xlink:title=" ">
<polygon fill="white" stroke="#666666" points="1729,-305 1613,-305 1613,-264 1729,-264 1729,-305"/>
<text text-anchor="start" x="1621" y="-293" font-family="Helvetica,sans-Serif" font-size="10.00">include/rel/d/a/obj</text>
<text text-anchor="start" x="1621" y="-282" font-family="Helvetica,sans-Serif" font-size="10.00">/d_a_obj_hbombkoya/d</text>
<text text-anchor="middle" x="1671" y="-271" font-family="Helvetica,sans-Serif" font-size="10.00">_a_obj_hbombkoya.h</text>
</a>
</g>
</g>
<!-- Node213&#45;&gt;Node237 -->
<g id="edge51" class="edge">
<title>Node213&#45;&gt;Node237</title>
<path fill="none" stroke="#63b8ff" d="M1419.64,-343.63C1423.82,-342.74 1427.98,-341.85 1432,-341 1508.4,-324.78 1528.23,-323.93 1604,-305 1606.82,-304.3 1609.7,-303.55 1612.61,-302.78"/>
<polygon fill="#63b8ff" stroke="#63b8ff" points="1419.13,-340.17 1410.08,-345.68 1420.59,-347.01 1419.13,-340.17"/>
</g>
<!-- Node238 -->
<g id="node40" class="node">
<title>Node238</title>
<g id="a_node40"><a xlink:href="d__a__obj__iceleaf_8h.html" target="_top" xlink:title=" ">
<polygon fill="white" stroke="#666666" points="1853,-305 1747,-305 1747,-264 1853,-264 1853,-305"/>
<text text-anchor="start" x="1755" y="-293" font-family="Helvetica,sans-Serif" font-size="10.00">include/rel/d/a/obj</text>
<text text-anchor="start" x="1755" y="-282" font-family="Helvetica,sans-Serif" font-size="10.00">/d_a_obj_iceleaf/d_a</text>
<text text-anchor="middle" x="1800" y="-271" font-family="Helvetica,sans-Serif" font-size="10.00">_obj_iceleaf.h</text>
</a>
</g>
</g>
<!-- Node213&#45;&gt;Node238 -->
<g id="edge52" class="edge">
<title>Node213&#45;&gt;Node238</title>
<path fill="none" stroke="#63b8ff" d="M1416.82,-343.77C1421.93,-342.76 1427.06,-341.82 1432,-341 1567.09,-318.56 1604.1,-333.67 1738,-305 1740.87,-304.39 1743.79,-303.7 1746.74,-302.95"/>
<polygon fill="#63b8ff" stroke="#63b8ff" points="1416.31,-340.3 1407.21,-345.73 1417.7,-347.16 1416.31,-340.3"/>
</g>
<!-- Node239 -->
<g id="node41" class="node">
<title>Node239</title>
<g id="a_node41"><a xlink:href="d__a__obj__lv1Candle00_8h.html" target="_top" xlink:title=" ">
<polygon fill="white" stroke="#666666" points="1990.5,-305 1871.5,-305 1871.5,-264 1990.5,-264 1990.5,-305"/>
<text text-anchor="start" x="1879.5" y="-293" font-family="Helvetica,sans-Serif" font-size="10.00">include/rel/d/a/obj</text>
<text text-anchor="start" x="1879.5" y="-282" font-family="Helvetica,sans-Serif" font-size="10.00">/d_a_obj_lv1Candle00</text>
<text text-anchor="middle" x="1931" y="-271" font-family="Helvetica,sans-Serif" font-size="10.00">/d_a_obj_lv1Candle00.h</text>
</a>
</g>
</g>
<!-- Node213&#45;&gt;Node239 -->
<g id="edge53" class="edge">
<title>Node213&#45;&gt;Node239</title>
<path fill="none" stroke="#63b8ff" d="M1415.74,-343.79C1421.21,-342.75 1426.71,-341.79 1432,-341 1621.69,-312.75 1673.3,-339.24 1862,-305 1865.06,-304.44 1868.18,-303.81 1871.33,-303.12"/>
<polygon fill="#63b8ff" stroke="#63b8ff" points="1415.25,-340.32 1406.14,-345.73 1416.64,-347.18 1415.25,-340.32"/>
</g>
<!-- Node240 -->
<g id="node42" class="node">
<title>Node240</title>
<g id="a_node42"><a xlink:href="d__a__obj__swhang_8h.html" target="_top" xlink:title=" ">
<polygon fill="white" stroke="#666666" points="2119.5,-305 2008.5,-305 2008.5,-264 2119.5,-264 2119.5,-305"/>
<text text-anchor="start" x="2016.5" y="-293" font-family="Helvetica,sans-Serif" font-size="10.00">include/rel/d/a/obj</text>
<text text-anchor="start" x="2016.5" y="-282" font-family="Helvetica,sans-Serif" font-size="10.00">/d_a_obj_swhang/d_a</text>
<text text-anchor="middle" x="2064" y="-271" font-family="Helvetica,sans-Serif" font-size="10.00">_obj_swhang.h</text>
</a>
</g>
</g>
<!-- Node213&#45;&gt;Node240 -->
<g id="edge54" class="edge">
<title>Node213&#45;&gt;Node240</title>
<path fill="none" stroke="#63b8ff" d="M1414.87,-343.85C1420.62,-342.76 1426.43,-341.77 1432,-341 1682.56,-306.27 1751.11,-350.17 2000,-305 2002.74,-304.5 2005.53,-303.93 2008.34,-303.29"/>
<polygon fill="#63b8ff" stroke="#63b8ff" points="1414.55,-340.34 1405.44,-345.75 1415.93,-347.2 1414.55,-340.34"/>
</g>
<!-- Node241 -->
<g id="node43" class="node">
<title>Node241</title>
<g id="a_node43"><a xlink:href="d__a__obj__swpropeller_8h.html" target="_top" xlink:title=" ">
<polygon fill="white" stroke="#666666" points="2254,-305 2138,-305 2138,-264 2254,-264 2254,-305"/>
<text text-anchor="start" x="2146" y="-293" font-family="Helvetica,sans-Serif" font-size="10.00">include/rel/d/a/obj</text>
<text text-anchor="start" x="2146" y="-282" font-family="Helvetica,sans-Serif" font-size="10.00">/d_a_obj_swpropeller</text>
<text text-anchor="middle" x="2196" y="-271" font-family="Helvetica,sans-Serif" font-size="10.00">/d_a_obj_swpropeller.h</text>
</a>
</g>
</g>
<!-- Node213&#45;&gt;Node241 -->
<g id="edge55" class="edge">
<title>Node213&#45;&gt;Node241</title>
<path fill="none" stroke="#63b8ff" d="M1414.64,-343.83C1420.47,-342.73 1426.35,-341.75 1432,-341 1739.5,-300.21 1823.15,-356.69 2129,-305 2131.87,-304.52 2134.79,-303.95 2137.72,-303.32"/>
<polygon fill="#63b8ff" stroke="#63b8ff" points="1414.2,-340.34 1405.09,-345.74 1415.58,-347.21 1414.2,-340.34"/>
</g>
<!-- Node242 -->
<g id="node44" class="node">
<title>Node242</title>
<g id="a_node44"><a xlink:href="d__a__tag__pachi_8h.html" target="_top" xlink:title=" ">
<polygon fill="white" stroke="#666666" points="2392,-305 2272,-305 2272,-264 2392,-264 2392,-305"/>
<text text-anchor="start" x="2280" y="-293" font-family="Helvetica,sans-Serif" font-size="10.00">include/rel/d/a/tag</text>
<text text-anchor="start" x="2280" y="-282" font-family="Helvetica,sans-Serif" font-size="10.00">/d_a_tag_pachi/d_a_tag</text>
<text text-anchor="middle" x="2332" y="-271" font-family="Helvetica,sans-Serif" font-size="10.00">_pachi.h</text>
</a>
</g>
</g>
<!-- Node213&#45;&gt;Node242 -->
<g id="edge56" class="edge">
<title>Node213&#45;&gt;Node242</title>
<path fill="none" stroke="#63b8ff" d="M1414.42,-343.82C1420.31,-342.72 1426.28,-341.73 1432,-341 1798.67,-293.91 1898,-363.66 2263,-305 2265.83,-304.55 2268.7,-304.02 2271.6,-303.43"/>
<polygon fill="#63b8ff" stroke="#63b8ff" points="1413.85,-340.36 1404.74,-345.76 1415.23,-347.23 1413.85,-340.36"/>
</g>
<!-- Node243 -->
<g id="node45" class="node">
<title>Node243</title>
<g id="a_node45"><a xlink:href="d__cc__d__nonmatching_8cpp.html" target="_top" xlink:title=" ">
<polygon fill="white" stroke="#666666" points="2575.5,-294 2410.5,-294 2410.5,-275 2575.5,-275 2575.5,-294"/>
<text text-anchor="middle" x="2493" y="-282" font-family="Helvetica,sans-Serif" font-size="10.00">src/d/cc/d_cc_d_nonmatching.cpp</text>
</a>
</g>
</g>
<!-- Node213&#45;&gt;Node243 -->
<g id="edge57" class="edge">
<title>Node213&#45;&gt;Node243</title>
<path fill="none" stroke="#63b8ff" d="M1414.42,-343.79C1420.31,-342.69 1426.28,-341.72 1432,-341 1859.62,-287.42 1973.29,-357.87 2401,-305 2419.96,-302.66 2440.8,-298.38 2457.85,-294.43"/>
<polygon fill="#63b8ff" stroke="#63b8ff" points="1413.85,-340.33 1404.73,-345.72 1415.22,-347.19 1413.85,-340.33"/>
</g>
<!-- Node244 -->
<g id="node46" class="node">
<title>Node244</title>
<g id="a_node46"><a xlink:href="d__cc__mass__s_8cpp.html" target="_top" xlink:title=" ">
<polygon fill="white" stroke="#666666" points="333.5,-299.5 228.5,-299.5 228.5,-269.5 333.5,-269.5 333.5,-299.5"/>
<text text-anchor="start" x="236.5" y="-287.5" font-family="Helvetica,sans-Serif" font-size="10.00">src/d/cc/d_cc_mass</text>
<text text-anchor="middle" x="281" y="-276.5" font-family="Helvetica,sans-Serif" font-size="10.00">_s.cpp</text>
</a>
</g>
</g>
<!-- Node213&#45;&gt;Node244 -->
<g id="edge58" class="edge">
<title>Node213&#45;&gt;Node244</title>
<path fill="none" stroke="#63b8ff" d="M1299.8,-353.75C1103.29,-349.79 532.01,-335.85 348,-305 340.59,-303.76 332.84,-301.97 325.35,-299.98"/>
<polygon fill="#63b8ff" stroke="#63b8ff" points="1299.51,-357.25 1309.57,-353.95 1299.65,-350.25 1299.51,-357.25"/>
</g>
<!-- Node214&#45;&gt;Node24 -->
<g id="edge16" class="edge">
<title>Node214&#45;&gt;Node24</title>
<path fill="none" stroke="#63b8ff" d="M911.43,-128.14C897.58,-108.85 880.94,-77.82 896,-55 908.11,-36.64 929.53,-25.83 949.8,-19.47"/>
<polygon fill="#63b8ff" stroke="#63b8ff" points="908.46,-130.02 917.31,-135.84 914.03,-125.77 908.46,-130.02"/>
</g>
<!-- Node214&#45;&gt;Node48 -->
<g id="edge18" class="edge">
<title>Node214&#45;&gt;Node48</title>
<path fill="none" stroke="#63b8ff" d="M879.78,-134.26C841.63,-124.44 786.15,-109.85 738,-96 732.5,-94.42 726.74,-92.71 721.04,-90.99"/>
<polygon fill="#63b8ff" stroke="#63b8ff" points="878.52,-137.55 889.07,-136.65 880.26,-130.77 878.52,-137.55"/>
</g>
<!-- Node214&#45;&gt;Node154 -->
<g id="edge19" class="edge">
<title>Node214&#45;&gt;Node154</title>
<path fill="none" stroke="#63b8ff" d="M899.73,-131.74C874.12,-117.83 835.98,-97.12 814.41,-85.41"/>
<polygon fill="#63b8ff" stroke="#63b8ff" points="897.74,-134.64 908.2,-136.33 901.08,-128.49 897.74,-134.64"/>
</g>
<!-- Node214&#45;&gt;Node200 -->
<g id="edge24" class="edge">
<title>Node214&#45;&gt;Node200</title>
<path fill="none" stroke="#63b8ff" d="M856.6,-137.33C792.68,-128.79 695.4,-114.36 612,-96 598.63,-93.06 584.01,-89.04 571.68,-85.42"/>
<polygon fill="#63b8ff" stroke="#63b8ff" points="855.87,-140.77 866.24,-138.61 856.79,-133.83 855.87,-140.77"/>
</g>
<!-- Node77 -->
<g id="node16" class="node">
<title>Node77</title>
<g id="a_node16"><a xlink:href="d__a__player_8cpp.html" target="_top" xlink:title=" ">
<polygon fill="white" stroke="#666666" points="2667,-85 2553,-85 2553,-66 2667,-66 2667,-85"/>
<text text-anchor="middle" x="2610" y="-73" font-family="Helvetica,sans-Serif" font-size="10.00">src/d/a/d_a_player.cpp</text>
</a>
</g>
</g>
<!-- Node214&#45;&gt;Node77 -->
<g id="edge17" class="edge">
<title>Node214&#45;&gt;Node77</title>
<path fill="none" stroke="#63b8ff" d="M995.56,-143.13C1273.13,-131.67 2298.69,-89.35 2552.77,-78.86"/>
<polygon fill="#63b8ff" stroke="#63b8ff" points="995.82,-139.62 985.97,-143.53 996.1,-146.61 995.82,-139.62"/>
</g>
<!-- Node52 -->
<g id="node17" class="node">
<title>Node52</title>
<g id="a_node17"><a xlink:href="d__event_8cpp.html" target="_top" xlink:title=" ">
<polygon fill="white" stroke="#666666" points="1599.5,-85 1478.5,-85 1478.5,-66 1599.5,-66 1599.5,-85"/>
<text text-anchor="middle" x="1539" y="-73" font-family="Helvetica,sans-Serif" font-size="10.00">src/d/event/d_event.cpp</text>
</a>
</g>
</g>
<!-- Node214&#45;&gt;Node52 -->
<g id="edge20" class="edge">
<title>Node214&#45;&gt;Node52</title>
<path fill="none" stroke="#63b8ff" d="M995.73,-143.69C1099.78,-139.32 1301.47,-127.28 1470,-96 1483.95,-93.41 1499.16,-89.26 1511.74,-85.45"/>
<polygon fill="#63b8ff" stroke="#63b8ff" points="995.81,-140.18 985.96,-144.09 996.1,-147.18 995.81,-140.18"/>
</g>
<!-- Node45 -->
<g id="node18" class="node">
<title>Node45</title>
<g id="a_node18"><a xlink:href="d__menu__ring_8cpp.html" target="_top" xlink:title=" ">
<polygon fill="white" stroke="#666666" points="1047,-85 905,-85 905,-66 1047,-66 1047,-85"/>
<text text-anchor="middle" x="976" y="-73" font-family="Helvetica,sans-Serif" font-size="10.00">src/d/menu/d_menu_ring.cpp</text>
</a>
</g>
</g>
<!-- Node214&#45;&gt;Node45 -->
<g id="edge21" class="edge">
<title>Node214&#45;&gt;Node45</title>
<path fill="none" stroke="#63b8ff" d="M938.78,-128.23C948.62,-114.56 961.81,-96.22 969.56,-85.45"/>
<polygon fill="#63b8ff" stroke="#63b8ff" points="936.22,-125.81 933.22,-135.97 941.9,-129.9 936.22,-125.81"/>
</g>
<!-- Node55 -->
<g id="node19" class="node">
<title>Node55</title>
<g id="a_node19"><a xlink:href="d__meter2__draw_8cpp.html" target="_top" xlink:title=" ">
<polygon fill="white" stroke="#666666" points="1309,-90.5 1199,-90.5 1199,-60.5 1309,-60.5 1309,-90.5"/>
<text text-anchor="start" x="1207" y="-78.5" font-family="Helvetica,sans-Serif" font-size="10.00">src/d/meter/d_meter2</text>
<text text-anchor="middle" x="1254" y="-67.5" font-family="Helvetica,sans-Serif" font-size="10.00">_draw.cpp</text>
</a>
</g>
</g>
<!-- Node214&#45;&gt;Node55 -->
<g id="edge22" class="edge">
<title>Node214&#45;&gt;Node55</title>
<path fill="none" stroke="#63b8ff" d="M994.11,-135.19C1047.68,-126.19 1124.03,-112.25 1190,-96 1196.09,-94.5 1202.46,-92.77 1208.72,-90.96"/>
<polygon fill="#63b8ff" stroke="#63b8ff" points="993.81,-131.69 984.53,-136.79 994.97,-138.6 993.81,-131.69"/>
</g>
<!-- Node8 -->
<g id="node20" class="node">
<title>Node8</title>
<g id="a_node20"><a xlink:href="d__msg__flow_8cpp.html" target="_top" xlink:title=" ">
<polygon fill="white" stroke="#666666" points="1460.5,-85 1327.5,-85 1327.5,-66 1460.5,-66 1460.5,-85"/>
<text text-anchor="middle" x="1394" y="-73" font-family="Helvetica,sans-Serif" font-size="10.00">src/d/msg/d_msg_flow.cpp</text>
</a>
</g>
</g>
<!-- Node214&#45;&gt;Node8 -->
<g id="edge23" class="edge">
<title>Node214&#45;&gt;Node8</title>
<path fill="none" stroke="#63b8ff" d="M995.69,-139.75C1074.39,-132.08 1206.09,-117.41 1318,-96 1332.85,-93.16 1349.11,-89.12 1362.77,-85.45"/>
<polygon fill="#63b8ff" stroke="#63b8ff" points="995.6,-136.24 985.98,-140.69 996.27,-143.21 995.6,-136.24"/>
</g>
<!-- Node216 -->
<g id="node22" class="node">
<title>Node216</title>
<g id="a_node22"><a xlink:href="d__a__obj__item_8h.html" target="_top" xlink:title=" ">
<polygon fill="#fff0f0" stroke="red" points="2131.5,-162 2030.5,-162 2030.5,-132 2131.5,-132 2131.5,-162"/>
<text text-anchor="start" x="2038.5" y="-150" font-family="Helvetica,sans-Serif" font-size="10.00">include/d/a/d_a_obj</text>
<text text-anchor="middle" x="2081" y="-139" font-family="Helvetica,sans-Serif" font-size="10.00">_item.h</text>
</a>
</g>
</g>
<!-- Node215&#45;&gt;Node216 -->
<g id="edge26" class="edge">
<title>Node215&#45;&gt;Node216</title>
<path fill="none" stroke="#63b8ff" d="M2081,-186.39C2081,-178.13 2081,-169.28 2081,-162.16"/>
<polygon fill="#63b8ff" stroke="#63b8ff" points="2077.5,-186.28 2081,-196.28 2084.5,-186.28 2077.5,-186.28"/>
</g>
<!-- Node217 -->
<g id="node23" class="node">
<title>Node217</title>
<g id="a_node23"><a xlink:href="d__a__do_8h.html" target="_top" xlink:title=" ">
<polygon fill="white" stroke="#666666" points="2246,-162 2150,-162 2150,-132 2246,-132 2246,-162"/>
<text text-anchor="start" x="2158" y="-150" font-family="Helvetica,sans-Serif" font-size="10.00">include/rel/d/a/d_a</text>
<text text-anchor="middle" x="2198" y="-139" font-family="Helvetica,sans-Serif" font-size="10.00">_do/d_a_do.h</text>
</a>
</g>
</g>
<!-- Node215&#45;&gt;Node217 -->
<g id="edge27" class="edge">
<title>Node215&#45;&gt;Node217</title>
<path fill="none" stroke="#63b8ff" d="M2117.23,-192.18C2134.89,-182.52 2155.74,-171.12 2171.83,-162.31"/>
<polygon fill="#63b8ff" stroke="#63b8ff" points="2115.68,-189.04 2108.58,-196.91 2119.04,-195.18 2115.68,-189.04"/>
</g>
<!-- Node218 -->
<g id="node24" class="node">
<title>Node218</title>
<g id="a_node24"><a xlink:href="d__a__item__static_8cpp.html" target="_top" xlink:title=" ">
<polygon fill="white" stroke="#666666" points="2012.5,-156.5 1875.5,-156.5 1875.5,-137.5 2012.5,-137.5 2012.5,-156.5"/>
<text text-anchor="middle" x="1944" y="-144.5" font-family="Helvetica,sans-Serif" font-size="10.00">src/d/a/d_a_item_static.cpp</text>
</a>
</g>
</g>
<!-- Node215&#45;&gt;Node218 -->
<g id="edge28" class="edge">
<title>Node215&#45;&gt;Node218</title>
<path fill="none" stroke="#63b8ff" d="M2040.13,-192.91C2014.67,-181.01 1983.09,-166.26 1963.24,-156.99"/>
<polygon fill="#63b8ff" stroke="#63b8ff" points="2038.34,-195.94 2048.88,-197 2041.3,-189.59 2038.34,-195.94"/>
</g>
<!-- Node219&#45;&gt;Node215 -->
<g id="edge30" class="edge">
<title>Node219&#45;&gt;Node215</title>
<path fill="none" stroke="#63b8ff" d="M574.17,-271.6C585.94,-268.59 598.89,-265.72 611,-264 892.58,-224.03 1797.09,-215.76 2027.3,-214.29"/>
<polygon fill="#63b8ff" stroke="#63b8ff" points="573.54,-268.15 564.78,-274.11 575.35,-274.91 573.54,-268.15"/>
</g>
<!-- Node220 -->
<g id="node26" class="node">
<title>Node220</title>
<g id="a_node26"><a xlink:href="d__a__shop__item__static_8h.html" target="_top" xlink:title=" ">
<polygon fill="#fff0f0" stroke="red" points="582.5,-228 473.5,-228 473.5,-198 582.5,-198 582.5,-228"/>
<text text-anchor="start" x="481.5" y="-216" font-family="Helvetica,sans-Serif" font-size="10.00">include/d/a/d_a_shop</text>
<text text-anchor="middle" x="528" y="-205" font-family="Helvetica,sans-Serif" font-size="10.00">_item_static.h</text>
</a>
</g>
</g>
<!-- Node219&#45;&gt;Node220 -->
<g id="edge31" class="edge">
<title>Node219&#45;&gt;Node220</title>
<path fill="none" stroke="#63b8ff" d="M532.26,-263.39C531.29,-252.15 530.11,-238.41 529.23,-228.27"/>
<polygon fill="#63b8ff" stroke="#63b8ff" points="528.76,-263.53 533.11,-273.19 535.74,-262.93 528.76,-263.53"/>
</g>
<!-- Node223 -->
<g id="node27" class="node">
<title>Node223</title>
<g id="a_node27"><a xlink:href="d__event_8h.html" target="_top" xlink:title=" ">
<polygon fill="white" stroke="#666666" points="729,-222.5 601,-222.5 601,-203.5 729,-203.5 729,-222.5"/>
<text text-anchor="middle" x="665" y="-210.5" font-family="Helvetica,sans-Serif" font-size="10.00">include/d/event/d_event.h</text>
</a>
</g>
</g>
<!-- Node219&#45;&gt;Node223 -->
<g id="edge32" class="edge">
<title>Node219&#45;&gt;Node223</title>
<path fill="none" stroke="#63b8ff" d="M560.88,-269.24C587.09,-255.33 626.13,-234.62 648.21,-222.91"/>
<polygon fill="#63b8ff" stroke="#63b8ff" points="559.39,-266.07 552.19,-273.85 562.67,-272.25 559.39,-266.07"/>
</g>
<!-- Node223&#45;&gt;Node5 -->
<g id="edge33" class="edge">
<title>Node223&#45;&gt;Node5</title>
<path fill="none" stroke="#63b8ff" d="M648.75,-194.95C639.01,-184.73 626.78,-171.9 617.57,-162.23"/>
<polygon fill="#63b8ff" stroke="#63b8ff" points="646.04,-197.18 655.47,-202.01 651.11,-192.35 646.04,-197.18"/>
</g>
<!-- Node223&#45;&gt;Node52 -->
<g id="edge34" class="edge">
<title>Node223&#45;&gt;Node52</title>
<path fill="none" stroke="#63b8ff" d="M740.68,-204.48C884.02,-189.48 1204.57,-152.37 1470,-96 1483.52,-93.13 1498.28,-89.08 1510.68,-85.42"/>
<polygon fill="#63b8ff" stroke="#63b8ff" points="740.51,-200.97 730.93,-205.49 741.24,-207.94 740.51,-200.97"/>
</g>
<!-- Node230&#45;&gt;Node77 -->
<g id="edge40" class="edge">
<title>Node230&#45;&gt;Node77</title>
<path fill="none" stroke="#63b8ff" d="M2667.53,-187.87C2651.7,-157.23 2625.18,-105.89 2614.58,-85.37"/>
<polygon fill="#63b8ff" stroke="#63b8ff" points="2664.25,-189.13 2671.95,-196.41 2670.47,-185.92 2664.25,-189.13"/>
</g>
<!-- Node232&#45;&gt;Node24 -->
<g id="edge43" class="edge">
<title>Node232&#45;&gt;Node24</title>
<path fill="none" stroke="#63b8ff" d="M180.25,-186.66C177.97,-151.16 179.92,-87.34 218,-55 245.68,-31.49 771.7,-16.23 945.09,-11.82"/>
<polygon fill="#63b8ff" stroke="#63b8ff" points="176.75,-186.75 181.06,-196.43 183.72,-186.18 176.75,-186.75"/>
</g>
<!-- Node234&#45;&gt;Node24 -->
<g id="edge46" class="edge">
<title>Node234&#45;&gt;Node24</title>
<path fill="none" stroke="#63b8ff" d="M2809.14,-187.78C2786.63,-151.16 2738.31,-83 2676,-55 2600.5,-21.07 1335.59,-12.3 1054.88,-10.77"/>
<polygon fill="#63b8ff" stroke="#63b8ff" points="2806.12,-189.55 2814.26,-196.34 2812.13,-185.96 2806.12,-189.55"/>
</g>
<!-- Node245&#45;&gt;Node4 -->
<g id="edge60" class="edge">
<title>Node245&#45;&gt;Node4</title>
<path fill="none" stroke="#63b8ff" d="M263.45,-341.67C246.61,-333.8 228.65,-321.98 219,-305 209.99,-289.16 209.91,-279.79 219,-264 230.89,-243.34 254.95,-230.43 274.6,-222.91"/>
<polygon fill="#63b8ff" stroke="#63b8ff" points="261.75,-344.75 272.32,-345.47 264.5,-338.31 261.75,-344.75"/>
</g>
<!-- Node245&#45;&gt;Node244 -->
<g id="edge61" class="edge">
<title>Node245&#45;&gt;Node244</title>
<path fill="none" stroke="#63b8ff" d="M296.75,-335.26C293.17,-323.95 288.76,-310.02 285.52,-299.77"/>
<polygon fill="#63b8ff" stroke="#63b8ff" points="293.4,-336.28 299.76,-344.75 300.08,-334.16 293.4,-336.28"/>
</g>
</g>
</svg>
