<?xml version="1.0" encoding="UTF-8" standalone="no"?>
<!DOCTYPE svg PUBLIC "-//W3C//DTD SVG 1.1//EN"
 "http://www.w3.org/Graphics/SVG/1.1/DTD/svg11.dtd">
<!-- Generated by graphviz version 7.0.5 (20221223.1930)
 -->
<!-- Title: include/SSystem/SComponent/c_phase.h Pages: 1 -->
<svg width="3867pt" height="324pt"
 viewBox="0.00 0.00 3866.76 324.00" xmlns="http://www.w3.org/2000/svg" xmlns:xlink="http://www.w3.org/1999/xlink">
<g id="graph0" class="graph" transform="scale(1 1) rotate(0) translate(4 320)">
<title>include/SSystem/SComponent/c_phase.h</title>
<!-- Node1 -->
<g id="node1" class="node">
<title>Node1</title>
<g id="a_node1"><a xlink:title=" ">
<polygon fill="#999999" stroke="#666666" points="2303.76,-316 2154.76,-316 2154.76,-286 2303.76,-286 2303.76,-316"/>
<text text-anchor="start" x="2162.76" y="-304" font-family="Helvetica,sans-Serif" font-size="10.00">include/SSystem/SComponent</text>
<text text-anchor="middle" x="2229.26" y="-293" font-family="Helvetica,sans-Serif" font-size="10.00">/c_phase.h</text>
</a>
</g>
</g>
<!-- Node2 -->
<g id="node2" class="node">
<title>Node2</title>
<g id="a_node2"><a xlink:href="d__a__itembase_8h.html" target="_top" xlink:title=" ">
<polygon fill="white" stroke="#666666" points="496.76,-239 361.76,-239 361.76,-220 496.76,-220 496.76,-239"/>
<text text-anchor="middle" x="429.26" y="-227" font-family="Helvetica,sans-Serif" font-size="10.00">include/d/a/d_a_itembase.h</text>
</a>
</g>
</g>
<!-- Node1&#45;&gt;Node2 -->
<g id="edge1" class="edge">
<title>Node1&#45;&gt;Node2</title>
<path fill="none" stroke="#63b8ff" d="M2143.19,-297.35C1923.44,-290.49 1323.77,-271.22 824.26,-250 709.36,-245.12 575.72,-238.28 497.05,-234.13"/>
<polygon fill="#63b8ff" stroke="#63b8ff" points="2143,-300.84 2153.1,-297.66 2143.22,-293.85 2143,-300.84"/>
</g>
<!-- Node86 -->
<g id="node7" class="node">
<title>Node86</title>
<g id="a_node7"><a xlink:href="d__a__midna_8h.html" target="_top" xlink:title=" ">
<polygon fill="#fff0f0" stroke="red" points="196.26,-30 90.26,-30 90.26,0 196.26,0 196.26,-30"/>
<text text-anchor="start" x="98.26" y="-18" font-family="Helvetica,sans-Serif" font-size="10.00">include/rel/d/a/d_a</text>
<text text-anchor="middle" x="143.26" y="-7" font-family="Helvetica,sans-Serif" font-size="10.00">_midna/d_a_midna.h</text>
</a>
</g>
</g>
<!-- Node1&#45;&gt;Node86 -->
<g id="edge44" class="edge">
<title>Node1&#45;&gt;Node86</title>
<path fill="none" stroke="#63b8ff" d="M2142.93,-299.94C1823.04,-299.37 705.63,-294.17 352.26,-250 198.09,-230.73 108.28,-294.36 11.26,-173 -31.54,-119.45 64.67,-57.66 115.03,-30.3"/>
<polygon fill="#63b8ff" stroke="#63b8ff" points="2142.9,-303.44 2152.91,-299.96 2142.91,-296.44 2142.9,-303.44"/>
</g>
<!-- Node227 -->
<g id="node12" class="node">
<title>Node227</title>
<g id="a_node12"><a xlink:href="d__gameover_8h.html" target="_top" xlink:title=" ">
<polygon fill="white" stroke="#666666" points="1008.76,-239 889.76,-239 889.76,-220 1008.76,-220 1008.76,-239"/>
<text text-anchor="middle" x="949.26" y="-227" font-family="Helvetica,sans-Serif" font-size="10.00">include/d/d_gameover.h</text>
</a>
</g>
</g>
<!-- Node1&#45;&gt;Node227 -->
<g id="edge12" class="edge">
<title>Node1&#45;&gt;Node227</title>
<path fill="none" stroke="#63b8ff" d="M2143.21,-296.63C1966.69,-289.55 1550.92,-271.92 1202.26,-250 1136.09,-245.84 1060.28,-239.83 1009.04,-235.59"/>
<polygon fill="#63b8ff" stroke="#63b8ff" points="2142.84,-300.12 2152.97,-297.02 2143.12,-293.13 2142.84,-300.12"/>
</g>
<!-- Node228 -->
<g id="node14" class="node">
<title>Node228</title>
<g id="a_node14"><a xlink:href="f__op__camera__mng_8h.html" target="_top" xlink:title=" ">
<polygon fill="white" stroke="#666666" points="879.26,-167.5 751.26,-167.5 751.26,-137.5 879.26,-137.5 879.26,-167.5"/>
<text text-anchor="start" x="759.26" y="-155.5" font-family="Helvetica,sans-Serif" font-size="10.00">include/f_op/f_op_camera</text>
<text text-anchor="middle" x="815.26" y="-144.5" font-family="Helvetica,sans-Serif" font-size="10.00">_mng.h</text>
</a>
</g>
</g>
<!-- Node1&#45;&gt;Node228 -->
<g id="edge15" class="edge">
<title>Node1&#45;&gt;Node228</title>
<path fill="none" stroke="#63b8ff" d="M2143.28,-298.95C1854.67,-295.16 935.47,-280.7 880.26,-250 847.78,-231.94 828.41,-189.99 820.09,-167.82"/>
<polygon fill="#63b8ff" stroke="#63b8ff" points="2142.95,-302.45 2152.99,-299.08 2143.04,-295.45 2142.95,-302.45"/>
</g>
<!-- Node232 -->
<g id="node18" class="node">
<title>Node232</title>
<g id="a_node18"><a xlink:href="f__op__overlap__req_8h.html" target="_top" xlink:title=" ">
<polygon fill="white" stroke="#666666" points="1531.26,-244.5 1403.26,-244.5 1403.26,-214.5 1531.26,-214.5 1531.26,-244.5"/>
<text text-anchor="start" x="1411.26" y="-232.5" font-family="Helvetica,sans-Serif" font-size="10.00">include/f_op/f_op_overlap</text>
<text text-anchor="middle" x="1467.26" y="-221.5" font-family="Helvetica,sans-Serif" font-size="10.00">_req.h</text>
</a>
</g>
</g>
<!-- Node1&#45;&gt;Node232 -->
<g id="edge20" class="edge">
<title>Node1&#45;&gt;Node232</title>
<path fill="none" stroke="#63b8ff" d="M2142.93,-298.44C2012.66,-295.02 1758.38,-284.17 1545.26,-250 1536.99,-248.67 1528.32,-246.9 1519.88,-244.96"/>
<polygon fill="#63b8ff" stroke="#63b8ff" points="2142.79,-301.94 2152.87,-298.69 2142.96,-294.94 2142.79,-301.94"/>
</g>
<!-- Node235 -->
<g id="node21" class="node">
<title>Node235</title>
<g id="a_node21"><a xlink:href="f__op__scene__tag_8h.html" target="_top" xlink:title=" ">
<polygon fill="white" stroke="#666666" points="1333.26,-244.5 1211.26,-244.5 1211.26,-214.5 1333.26,-214.5 1333.26,-244.5"/>
<text text-anchor="start" x="1219.26" y="-232.5" font-family="Helvetica,sans-Serif" font-size="10.00">include/f_op/f_op_scene</text>
<text text-anchor="middle" x="1272.26" y="-221.5" font-family="Helvetica,sans-Serif" font-size="10.00">_tag.h</text>
</a>
</g>
</g>
<!-- Node1&#45;&gt;Node235 -->
<g id="edge23" class="edge">
<title>Node1&#45;&gt;Node235</title>
<path fill="none" stroke="#63b8ff" d="M2142.98,-297.64C1991.2,-292.86 1666.68,-279.85 1394.26,-250 1374.43,-247.83 1352.91,-244.66 1333.54,-241.51"/>
<polygon fill="#63b8ff" stroke="#63b8ff" points="2142.87,-301.14 2152.98,-297.95 2143.09,-294.14 2142.87,-301.14"/>
</g>
<!-- Node250 -->
<g id="node25" class="node">
<title>Node250</title>
<g id="a_node25"><a xlink:href="f__pc__create__req_8h.html" target="_top" xlink:title=" ">
<polygon fill="white" stroke="#666666" points="1710.76,-244.5 1587.76,-244.5 1587.76,-214.5 1710.76,-214.5 1710.76,-244.5"/>
<text text-anchor="start" x="1595.76" y="-232.5" font-family="Helvetica,sans-Serif" font-size="10.00">include/f_pc/f_pc_create</text>
<text text-anchor="middle" x="1649.26" y="-221.5" font-family="Helvetica,sans-Serif" font-size="10.00">_req.h</text>
</a>
</g>
</g>
<!-- Node1&#45;&gt;Node250 -->
<g id="edge28" class="edge">
<title>Node1&#45;&gt;Node250</title>
<path fill="none" stroke="#63b8ff" d="M2143.09,-296.01C2041.36,-290.27 1867.39,-277.23 1720.26,-250 1712.85,-248.63 1705.08,-246.85 1697.51,-244.93"/>
<polygon fill="#63b8ff" stroke="#63b8ff" points="2142.84,-299.5 2153.02,-296.56 2143.22,-292.51 2142.84,-299.5"/>
</g>
<!-- Node372 -->
<g id="node33" class="node">
<title>Node372</title>
<g id="a_node33"><a xlink:href="f__pc__node__req_8h.html" target="_top" xlink:title=" ">
<polygon fill="white" stroke="#666666" points="1852.76,-167.5 1735.76,-167.5 1735.76,-137.5 1852.76,-137.5 1852.76,-167.5"/>
<text text-anchor="start" x="1743.76" y="-155.5" font-family="Helvetica,sans-Serif" font-size="10.00">include/f_pc/f_pc_node</text>
<text text-anchor="middle" x="1794.26" y="-144.5" font-family="Helvetica,sans-Serif" font-size="10.00">_req.h</text>
</a>
</g>
</g>
<!-- Node1&#45;&gt;Node372 -->
<g id="edge38" class="edge">
<title>Node1&#45;&gt;Node372</title>
<path fill="none" stroke="#63b8ff" d="M2143.2,-299.74C1975.24,-298.32 1616.8,-290.54 1579.26,-250 1566.88,-236.63 1568,-223.33 1579.26,-209 1621.09,-155.77 1661.86,-190.46 1727.26,-173 1733.23,-171.41 1739.48,-169.67 1745.66,-167.92"/>
<polygon fill="#63b8ff" stroke="#63b8ff" points="2142.93,-303.24 2152.96,-299.81 2142.98,-296.24 2142.93,-303.24"/>
</g>
<!-- Node265 -->
<g id="node35" class="node">
<title>Node265</title>
<g id="a_node35"><a xlink:href="d__a__canoe_8h.html" target="_top" xlink:title=" ">
<polygon fill="white" stroke="#666666" points="1835.26,-244.5 1729.26,-244.5 1729.26,-214.5 1835.26,-214.5 1835.26,-244.5"/>
<text text-anchor="start" x="1737.26" y="-232.5" font-family="Helvetica,sans-Serif" font-size="10.00">include/rel/d/a/d_a</text>
<text text-anchor="middle" x="1782.26" y="-221.5" font-family="Helvetica,sans-Serif" font-size="10.00">_canoe/d_a_canoe.h</text>
</a>
</g>
</g>
<!-- Node1&#45;&gt;Node265 -->
<g id="edge42" class="edge">
<title>Node1&#45;&gt;Node265</title>
<path fill="none" stroke="#63b8ff" d="M2143.14,-293.18C2064.62,-285.93 1945.74,-272.37 1844.26,-250 1837.87,-248.59 1831.19,-246.82 1824.69,-244.92"/>
<polygon fill="#63b8ff" stroke="#63b8ff" points="2142.64,-296.65 2152.92,-294.06 2143.28,-289.67 2142.64,-296.65"/>
</g>
<!-- Node374 -->
<g id="node36" class="node">
<title>Node374</title>
<g id="a_node36"><a xlink:href="d__a__cstatue_8h.html" target="_top" xlink:title=" ">
<polygon fill="white" stroke="#666666" points="1971.26,-244.5 1853.26,-244.5 1853.26,-214.5 1971.26,-214.5 1971.26,-244.5"/>
<text text-anchor="start" x="1861.26" y="-232.5" font-family="Helvetica,sans-Serif" font-size="10.00">include/rel/d/a/d_a</text>
<text text-anchor="middle" x="1912.26" y="-221.5" font-family="Helvetica,sans-Serif" font-size="10.00">_cstatue/d_a_cstatue.h</text>
</a>
</g>
</g>
<!-- Node1&#45;&gt;Node374 -->
<g id="edge43" class="edge">
<title>Node1&#45;&gt;Node374</title>
<path fill="none" stroke="#63b8ff" d="M2142.97,-284.46C2094.87,-275.35 2034.01,-263.08 1980.26,-250 1973.94,-248.46 1967.32,-246.72 1960.8,-244.94"/>
<polygon fill="#63b8ff" stroke="#63b8ff" points="2142.32,-287.89 2152.79,-286.3 2143.61,-281.02 2142.32,-287.89"/>
</g>
<!-- Node280 -->
<g id="node37" class="node">
<title>Node280</title>
<g id="a_node37"><a xlink:href="d__a__tbox_8h.html" target="_top" xlink:title=" ">
<polygon fill="#fff0f0" stroke="red" points="2085.26,-244.5 1989.26,-244.5 1989.26,-214.5 2085.26,-214.5 2085.26,-244.5"/>
<text text-anchor="start" x="1997.26" y="-232.5" font-family="Helvetica,sans-Serif" font-size="10.00">include/rel/d/a/d_a</text>
<text text-anchor="middle" x="2037.26" y="-221.5" font-family="Helvetica,sans-Serif" font-size="10.00">_tbox/d_a_tbox.h</text>
</a>
</g>
</g>
<!-- Node1&#45;&gt;Node280 -->
<g id="edge45" class="edge">
<title>Node1&#45;&gt;Node280</title>
<path fill="none" stroke="#63b8ff" d="M2179.05,-281.82C2147.2,-270.3 2106.59,-255.59 2076.99,-244.88"/>
<polygon fill="#63b8ff" stroke="#63b8ff" points="2177.46,-284.97 2188.06,-285.08 2179.85,-278.39 2177.46,-284.97"/>
</g>
<!-- Node34 -->
<g id="node38" class="node">
<title>Node34</title>
<g id="a_node38"><a xlink:href="d__a__e__wb_8h.html" target="_top" xlink:title=" ">
<polygon fill="#fff0f0" stroke="red" points="2213.26,-244.5 2103.26,-244.5 2103.26,-214.5 2213.26,-214.5 2213.26,-244.5"/>
<text text-anchor="start" x="2111.26" y="-232.5" font-family="Helvetica,sans-Serif" font-size="10.00">include/rel/d/a/e/d</text>
<text text-anchor="middle" x="2158.26" y="-221.5" font-family="Helvetica,sans-Serif" font-size="10.00">_a_e_wb/d_a_e_wb.h</text>
</a>
</g>
</g>
<!-- Node1&#45;&gt;Node34 -->
<g id="edge46" class="edge">
<title>Node1&#45;&gt;Node34</title>
<path fill="none" stroke="#63b8ff" d="M2206.59,-277.8C2195.58,-267.02 2182.66,-254.38 2172.96,-244.88"/>
<polygon fill="#63b8ff" stroke="#63b8ff" points="2203.88,-280.05 2213.47,-284.54 2208.77,-275.04 2203.88,-280.05"/>
</g>
<!-- Node375 -->
<g id="node39" class="node">
<title>Node375</title>
<g id="a_node39"><a xlink:href="d__a__obj__bed_8h.html" target="_top" xlink:title=" ">
<polygon fill="white" stroke="#666666" points="2371.26,-244.5 2231.26,-244.5 2231.26,-214.5 2371.26,-214.5 2371.26,-244.5"/>
<text text-anchor="start" x="2239.26" y="-232.5" font-family="Helvetica,sans-Serif" font-size="10.00">include/rel/d/a/obj</text>
<text text-anchor="middle" x="2301.26" y="-221.5" font-family="Helvetica,sans-Serif" font-size="10.00">/d_a_obj_bed/d_a_obj_bed.h</text>
</a>
</g>
</g>
<!-- Node1&#45;&gt;Node375 -->
<g id="edge47" class="edge">
<title>Node1&#45;&gt;Node375</title>
<path fill="none" stroke="#63b8ff" d="M2252.26,-277.8C2263.43,-267.02 2276.52,-254.38 2286.36,-244.88"/>
<polygon fill="#63b8ff" stroke="#63b8ff" points="2250.03,-275.09 2245.27,-284.55 2254.9,-280.12 2250.03,-275.09"/>
</g>
<!-- Node376 -->
<g id="node40" class="node">
<title>Node376</title>
<g id="a_node40"><a xlink:href="d__a__obj__lv1Candle00_8h.html" target="_top" xlink:title=" ">
<polygon fill="white" stroke="#666666" points="2508.76,-250 2389.76,-250 2389.76,-209 2508.76,-209 2508.76,-250"/>
<text text-anchor="start" x="2397.76" y="-238" font-family="Helvetica,sans-Serif" font-size="10.00">include/rel/d/a/obj</text>
<text text-anchor="start" x="2397.76" y="-227" font-family="Helvetica,sans-Serif" font-size="10.00">/d_a_obj_lv1Candle00</text>
<text text-anchor="middle" x="2449.26" y="-216" font-family="Helvetica,sans-Serif" font-size="10.00">/d_a_obj_lv1Candle00.h</text>
</a>
</g>
</g>
<!-- Node1&#45;&gt;Node376 -->
<g id="edge48" class="edge">
<title>Node1&#45;&gt;Node376</title>
<path fill="none" stroke="#63b8ff" d="M2286.01,-282.07C2317.8,-272.03 2357.42,-259.51 2389.67,-249.33"/>
<polygon fill="#63b8ff" stroke="#63b8ff" points="2285.04,-278.71 2276.56,-285.06 2287.15,-285.38 2285.04,-278.71"/>
</g>
<!-- Node377 -->
<g id="node41" class="node">
<title>Node377</title>
<g id="a_node41"><a xlink:href="d__a__obj__lv1Candle01_8h.html" target="_top" xlink:title=" ">
<polygon fill="white" stroke="#666666" points="2645.76,-250 2526.76,-250 2526.76,-209 2645.76,-209 2645.76,-250"/>
<text text-anchor="start" x="2534.76" y="-238" font-family="Helvetica,sans-Serif" font-size="10.00">include/rel/d/a/obj</text>
<text text-anchor="start" x="2534.76" y="-227" font-family="Helvetica,sans-Serif" font-size="10.00">/d_a_obj_lv1Candle01</text>
<text text-anchor="middle" x="2586.26" y="-216" font-family="Helvetica,sans-Serif" font-size="10.00">/d_a_obj_lv1Candle01.h</text>
</a>
</g>
</g>
<!-- Node1&#45;&gt;Node377 -->
<g id="edge49" class="edge">
<title>Node1&#45;&gt;Node377</title>
<path fill="none" stroke="#63b8ff" d="M2315.52,-287.57C2373.22,-278.65 2450.68,-265.49 2518.26,-250 2520.9,-249.4 2523.58,-248.75 2526.28,-248.08"/>
<polygon fill="#63b8ff" stroke="#63b8ff" points="2315.1,-284.1 2305.75,-289.07 2316.16,-291.01 2315.1,-284.1"/>
</g>
<!-- Node310 -->
<g id="node42" class="node">
<title>Node310</title>
<g id="a_node42"><a xlink:href="d__a__obj__lv2Candle_8h.html" target="_top" xlink:title=" ">
<polygon fill="white" stroke="#666666" points="2774.26,-250 2664.26,-250 2664.26,-209 2774.26,-209 2774.26,-250"/>
<text text-anchor="start" x="2672.26" y="-238" font-family="Helvetica,sans-Serif" font-size="10.00">include/rel/d/a/obj</text>
<text text-anchor="start" x="2672.26" y="-227" font-family="Helvetica,sans-Serif" font-size="10.00">/d_a_obj_lv2Candle/d</text>
<text text-anchor="middle" x="2719.26" y="-216" font-family="Helvetica,sans-Serif" font-size="10.00">_a_obj_lv2Candle.h</text>
</a>
</g>
</g>
<!-- Node1&#45;&gt;Node310 -->
<g id="edge50" class="edge">
<title>Node1&#45;&gt;Node310</title>
<path fill="none" stroke="#63b8ff" d="M2315.53,-294.42C2402.1,-287.77 2538.95,-274.34 2655.26,-250 2658.11,-249.41 2661,-248.74 2663.92,-248.03"/>
<polygon fill="#63b8ff" stroke="#63b8ff" points="2315.39,-290.92 2305.69,-295.17 2315.92,-297.9 2315.39,-290.92"/>
</g>
<!-- Node378 -->
<g id="node43" class="node">
<title>Node378</title>
<g id="a_node43"><a xlink:href="d__a__obj__snow__soup_8h.html" target="_top" xlink:title=" ">
<polygon fill="white" stroke="#666666" points="2908.26,-250 2792.26,-250 2792.26,-209 2908.26,-209 2908.26,-250"/>
<text text-anchor="start" x="2800.26" y="-238" font-family="Helvetica,sans-Serif" font-size="10.00">include/rel/d/a/obj</text>
<text text-anchor="start" x="2800.26" y="-227" font-family="Helvetica,sans-Serif" font-size="10.00">/d_a_obj_snow_soup/d</text>
<text text-anchor="middle" x="2850.26" y="-216" font-family="Helvetica,sans-Serif" font-size="10.00">_a_obj_snow_soup.h</text>
</a>
</g>
</g>
<!-- Node1&#45;&gt;Node378 -->
<g id="edge51" class="edge">
<title>Node1&#45;&gt;Node378</title>
<path fill="none" stroke="#63b8ff" d="M2315.12,-297.39C2424.62,-292.88 2619.44,-280.93 2783.26,-250 2786.12,-249.46 2789.03,-248.85 2791.96,-248.19"/>
<polygon fill="#63b8ff" stroke="#63b8ff" points="2315.18,-293.88 2305.33,-297.78 2315.46,-300.88 2315.18,-293.88"/>
</g>
<!-- Node379 -->
<g id="node44" class="node">
<title>Node379</title>
<g id="a_node44"><a xlink:href="d__a__obj__ss__item_8h.html" target="_top" xlink:title=" ">
<polygon fill="white" stroke="#666666" points="3038.26,-250 2926.26,-250 2926.26,-209 3038.26,-209 3038.26,-250"/>
<text text-anchor="start" x="2934.26" y="-238" font-family="Helvetica,sans-Serif" font-size="10.00">include/rel/d/a/obj</text>
<text text-anchor="start" x="2934.26" y="-227" font-family="Helvetica,sans-Serif" font-size="10.00">/d_a_obj_ss_item/d_a</text>
<text text-anchor="middle" x="2982.26" y="-216" font-family="Helvetica,sans-Serif" font-size="10.00">_obj_ss_item.h</text>
</a>
</g>
</g>
<!-- Node1&#45;&gt;Node379 -->
<g id="edge52" class="edge">
<title>Node1&#45;&gt;Node379</title>
<path fill="none" stroke="#63b8ff" d="M2315.4,-299.76C2446.43,-298.05 2703.25,-289.39 2917.26,-250 2920.16,-249.47 2923.11,-248.85 2926.08,-248.18"/>
<polygon fill="#63b8ff" stroke="#63b8ff" points="2315.73,-296.26 2305.78,-299.88 2315.82,-303.26 2315.73,-296.26"/>
</g>
<!-- Node380 -->
<g id="node45" class="node">
<title>Node380</title>
<g id="a_node45"><a xlink:href="d__a__obj__swhang_8h.html" target="_top" xlink:title=" ">
<polygon fill="white" stroke="#666666" points="3167.76,-250 3056.76,-250 3056.76,-209 3167.76,-209 3167.76,-250"/>
<text text-anchor="start" x="3064.76" y="-238" font-family="Helvetica,sans-Serif" font-size="10.00">include/rel/d/a/obj</text>
<text text-anchor="start" x="3064.76" y="-227" font-family="Helvetica,sans-Serif" font-size="10.00">/d_a_obj_swhang/d_a</text>
<text text-anchor="middle" x="3112.26" y="-216" font-family="Helvetica,sans-Serif" font-size="10.00">_obj_swhang.h</text>
</a>
</g>
</g>
<!-- Node1&#45;&gt;Node380 -->
<g id="edge53" class="edge">
<title>Node1&#45;&gt;Node380</title>
<path fill="none" stroke="#63b8ff" d="M2315.51,-297.24C2496.1,-291.06 2908.76,-274.67 3047.26,-250 3050.28,-249.46 3053.35,-248.83 3056.44,-248.14"/>
<polygon fill="#63b8ff" stroke="#63b8ff" points="2315.6,-293.74 2305.73,-297.58 2315.84,-300.73 2315.6,-293.74"/>
</g>
<!-- Node381 -->
<g id="node46" class="node">
<title>Node381</title>
<g id="a_node46"><a xlink:href="d__a__tag__evt_8h.html" target="_top" xlink:title=" ">
<polygon fill="white" stroke="#666666" points="3322.76,-244.5 3185.76,-244.5 3185.76,-214.5 3322.76,-214.5 3322.76,-244.5"/>
<text text-anchor="start" x="3193.76" y="-232.5" font-family="Helvetica,sans-Serif" font-size="10.00">include/rel/d/a/tag</text>
<text text-anchor="middle" x="3254.26" y="-221.5" font-family="Helvetica,sans-Serif" font-size="10.00">/d_a_tag_evt/d_a_tag_evt.h</text>
</a>
</g>
</g>
<!-- Node1&#45;&gt;Node381 -->
<g id="edge54" class="edge">
<title>Node1&#45;&gt;Node381</title>
<path fill="none" stroke="#63b8ff" d="M2315.44,-297.61C2516.61,-291.68 3012.52,-274.96 3177.26,-250 3185.72,-248.72 3194.59,-246.92 3203.19,-244.92"/>
<polygon fill="#63b8ff" stroke="#63b8ff" points="2315.47,-294.11 2305.58,-297.9 2315.68,-301.1 2315.47,-294.11"/>
</g>
<!-- Node382 -->
<g id="node47" class="node">
<title>Node382</title>
<g id="a_node47"><a xlink:href="c__phase_8cpp.html" target="_top" xlink:title=" ">
<polygon fill="white" stroke="#666666" points="3475.26,-244.5 3341.26,-244.5 3341.26,-214.5 3475.26,-214.5 3475.26,-244.5"/>
<text text-anchor="start" x="3349.26" y="-232.5" font-family="Helvetica,sans-Serif" font-size="10.00">libs/SSystem/SComponent</text>
<text text-anchor="middle" x="3408.26" y="-221.5" font-family="Helvetica,sans-Serif" font-size="10.00">/c_phase.cpp</text>
</a>
</g>
</g>
<!-- Node1&#45;&gt;Node382 -->
<g id="edge55" class="edge">
<title>Node1&#45;&gt;Node382</title>
<path fill="none" stroke="#63b8ff" d="M2315.37,-298.39C2539.39,-293.82 3136.6,-279.22 3332.26,-250 3340.62,-248.75 3349.38,-246.97 3357.87,-244.97"/>
<polygon fill="#63b8ff" stroke="#63b8ff" points="2315.46,-294.88 2305.54,-298.59 2315.6,-301.88 2315.46,-294.88"/>
</g>
<!-- Node383 -->
<g id="node48" class="node">
<title>Node383</title>
<g id="a_node48"><a xlink:href="d__kyeff2_8cpp.html" target="_top" xlink:title=" ">
<polygon fill="white" stroke="#666666" points="3588.76,-239 3493.76,-239 3493.76,-220 3588.76,-220 3588.76,-239"/>
<text text-anchor="middle" x="3541.26" y="-227" font-family="Helvetica,sans-Serif" font-size="10.00">src/d/d_kyeff2.cpp</text>
</a>
</g>
</g>
<!-- Node1&#45;&gt;Node383 -->
<g id="edge56" class="edge">
<title>Node1&#45;&gt;Node383</title>
<path fill="none" stroke="#63b8ff" d="M2315.18,-299.81C2560.24,-298.75 3259.42,-292.01 3484.26,-250 3496.39,-247.73 3509.45,-243.41 3520.01,-239.41"/>
<polygon fill="#63b8ff" stroke="#63b8ff" points="2315.36,-296.31 2305.37,-299.85 2315.39,-303.31 2315.36,-296.31"/>
</g>
<!-- Node384 -->
<g id="node49" class="node">
<title>Node384</title>
<g id="a_node49"><a xlink:href="f__pc__base_8cpp.html" target="_top" xlink:title=" ">
<polygon fill="white" stroke="#666666" points="3725.26,-239 3607.26,-239 3607.26,-220 3725.26,-220 3725.26,-239"/>
<text text-anchor="middle" x="3666.26" y="-227" font-family="Helvetica,sans-Serif" font-size="10.00">src/f_pc/f_pc_base.cpp</text>
</a>
</g>
</g>
<!-- Node1&#45;&gt;Node384 -->
<g id="edge57" class="edge">
<title>Node1&#45;&gt;Node384</title>
<path fill="none" stroke="#63b8ff" d="M2315.17,-299.59C2574.93,-297.9 3349.47,-289.61 3598.26,-250 3612.58,-247.72 3628.14,-243.4 3640.76,-239.4"/>
<polygon fill="#63b8ff" stroke="#63b8ff" points="2315.42,-296.08 2305.44,-299.65 2315.47,-303.08 2315.42,-296.08"/>
</g>
<!-- Node385 -->
<g id="node50" class="node">
<title>Node385</title>
<g id="a_node50"><a xlink:href="f__pc__load_8cpp.html" target="_top" xlink:title=" ">
<polygon fill="white" stroke="#666666" points="3858.76,-239 3743.76,-239 3743.76,-220 3858.76,-220 3858.76,-239"/>
<text text-anchor="middle" x="3801.26" y="-227" font-family="Helvetica,sans-Serif" font-size="10.00">src/f_pc/f_pc_load.cpp</text>
</a>
</g>
</g>
<!-- Node1&#45;&gt;Node385 -->
<g id="edge58" class="edge">
<title>Node1&#45;&gt;Node385</title>
<path fill="none" stroke="#63b8ff" d="M2315.06,-299.96C2591.67,-299.4 3457.99,-294.08 3734.26,-250 3748.38,-247.75 3763.72,-243.43 3776.15,-239.43"/>
<polygon fill="#63b8ff" stroke="#63b8ff" points="2315.41,-296.46 2305.42,-299.98 2315.43,-303.46 2315.41,-296.46"/>
</g>
<!-- Node3 -->
<g id="node3" class="node">
<title>Node3</title>
<g id="a_node3"><a xlink:href="d__a__item__static_8h.html" target="_top" xlink:title=" ">
<polygon fill="#fff0f0" stroke="red" points="127.76,-167.5 20.76,-167.5 20.76,-137.5 127.76,-137.5 127.76,-167.5"/>
<text text-anchor="start" x="28.76" y="-155.5" font-family="Helvetica,sans-Serif" font-size="10.00">include/d/a/d_a_item</text>
<text text-anchor="middle" x="74.26" y="-144.5" font-family="Helvetica,sans-Serif" font-size="10.00">_static.h</text>
</a>
</g>
</g>
<!-- Node2&#45;&gt;Node3 -->
<g id="edge2" class="edge">
<title>Node2&#45;&gt;Node3</title>
<path fill="none" stroke="#63b8ff" d="M359.83,-217.71C300.15,-207.88 211.98,-192.01 136.26,-173 130.35,-171.52 124.18,-169.79 118.11,-167.99"/>
<polygon fill="#63b8ff" stroke="#63b8ff" points="359.08,-221.14 369.51,-219.29 360.21,-214.23 359.08,-221.14"/>
</g>
<!-- Node8 -->
<g id="node4" class="node">
<title>Node8</title>
<g id="a_node4"><a xlink:href="d__a__shop__item__static_8h.html" target="_top" xlink:title=" ">
<polygon fill="#fff0f0" stroke="red" points="254.76,-167.5 145.76,-167.5 145.76,-137.5 254.76,-137.5 254.76,-167.5"/>
<text text-anchor="start" x="153.76" y="-155.5" font-family="Helvetica,sans-Serif" font-size="10.00">include/d/a/d_a_shop</text>
<text text-anchor="middle" x="200.26" y="-144.5" font-family="Helvetica,sans-Serif" font-size="10.00">_item_static.h</text>
</a>
</g>
</g>
<!-- Node2&#45;&gt;Node8 -->
<g id="edge3" class="edge">
<title>Node2&#45;&gt;Node8</title>
<path fill="none" stroke="#63b8ff" d="M391.35,-216.08C350.89,-202.83 286.88,-181.87 244.25,-167.9"/>
<polygon fill="#63b8ff" stroke="#63b8ff" points="390.06,-219.34 400.66,-219.13 392.24,-212.69 390.06,-219.34"/>
</g>
<!-- Node12 -->
<g id="node5" class="node">
<title>Node12</title>
<g id="a_node5"><a xlink:href="d__event_8h.html" target="_top" xlink:title=" ">
<polygon fill="#fff0f0" stroke="red" points="401.26,-162 273.26,-162 273.26,-143 401.26,-143 401.26,-162"/>
<text text-anchor="middle" x="337.26" y="-150" font-family="Helvetica,sans-Serif" font-size="10.00">include/d/event/d_event.h</text>
</a>
</g>
</g>
<!-- Node2&#45;&gt;Node12 -->
<g id="edge4" class="edge">
<title>Node2&#45;&gt;Node12</title>
<path fill="none" stroke="#63b8ff" d="M409.45,-212.35C390.69,-197.06 363.23,-174.67 348.16,-162.39"/>
<polygon fill="#63b8ff" stroke="#63b8ff" points="407.21,-215.04 417.18,-218.65 411.64,-209.61 407.21,-215.04"/>
</g>
<!-- Node157 -->
<g id="node8" class="node">
<title>Node157</title>
<g id="a_node8"><a xlink:href="d__a__itembase_8cpp.html" target="_top" xlink:title=" ">
<polygon fill="white" stroke="#666666" points="451.26,-24.5 323.26,-24.5 323.26,-5.5 451.26,-5.5 451.26,-24.5"/>
<text text-anchor="middle" x="387.26" y="-12.5" font-family="Helvetica,sans-Serif" font-size="10.00">src/d/a/d_a_itembase.cpp</text>
</a>
</g>
</g>
<!-- Node2&#45;&gt;Node157 -->
<g id="edge10" class="edge">
<title>Node2&#45;&gt;Node157</title>
<path fill="none" stroke="#63b8ff" d="M428.92,-208.09C427.95,-176.91 424.24,-115.77 410.26,-66 406.03,-50.91 397.78,-34.64 392.4,-24.89"/>
<polygon fill="#63b8ff" stroke="#63b8ff" points="425.42,-208.08 429.16,-217.99 432.42,-207.91 425.42,-208.08"/>
</g>
<!-- Node225 -->
<g id="node10" class="node">
<title>Node225</title>
<g id="a_node10"><a xlink:href="d__a__obj__kantera_8h.html" target="_top" xlink:title=" ">
<polygon fill="white" stroke="#666666" points="567.26,-173 457.26,-173 457.26,-132 567.26,-132 567.26,-173"/>
<text text-anchor="start" x="465.26" y="-161" font-family="Helvetica,sans-Serif" font-size="10.00">include/rel/d/a/obj</text>
<text text-anchor="start" x="465.26" y="-150" font-family="Helvetica,sans-Serif" font-size="10.00">/d_a_obj_kantera/d_a</text>
<text text-anchor="middle" x="512.26" y="-139" font-family="Helvetica,sans-Serif" font-size="10.00">_obj_kantera.h</text>
</a>
</g>
</g>
<!-- Node2&#45;&gt;Node225 -->
<g id="edge9" class="edge">
<title>Node2&#45;&gt;Node225</title>
<path fill="none" stroke="#63b8ff" d="M447.43,-212.08C460.05,-200.68 476.92,-185.43 490.3,-173.35"/>
<polygon fill="#63b8ff" stroke="#63b8ff" points="445.31,-209.29 440.23,-218.59 450,-214.48 445.31,-209.29"/>
</g>
<!-- Node226 -->
<g id="node11" class="node">
<title>Node226</title>
<g id="a_node11"><a xlink:href="d__a__itembase__static_8cpp.html" target="_top" xlink:title=" ">
<polygon fill="white" stroke="#666666" points="695.26,-167.5 585.26,-167.5 585.26,-137.5 695.26,-137.5 695.26,-167.5"/>
<text text-anchor="start" x="593.26" y="-155.5" font-family="Helvetica,sans-Serif" font-size="10.00">src/d/a/d_a_itembase</text>
<text text-anchor="middle" x="640.26" y="-144.5" font-family="Helvetica,sans-Serif" font-size="10.00">_static.cpp</text>
</a>
</g>
</g>
<!-- Node2&#45;&gt;Node226 -->
<g id="edge11" class="edge">
<title>Node2&#45;&gt;Node226</title>
<path fill="none" stroke="#63b8ff" d="M464.68,-215.91C501.98,-202.65 560.62,-181.81 599.74,-167.9"/>
<polygon fill="#63b8ff" stroke="#63b8ff" points="463.97,-212.45 455.72,-219.1 466.32,-219.04 463.97,-212.45"/>
</g>
<!-- Node13 -->
<g id="node6" class="node">
<title>Node13</title>
<g id="a_node6"><a xlink:href="d__com__inf__game_8h.html" target="_top" xlink:title=" ">
<polygon fill="#fff0f0" stroke="red" points="401.26,-96 291.26,-96 291.26,-66 401.26,-66 401.26,-96"/>
<text text-anchor="start" x="299.26" y="-84" font-family="Helvetica,sans-Serif" font-size="10.00">include/d/com/d_com</text>
<text text-anchor="middle" x="346.26" y="-73" font-family="Helvetica,sans-Serif" font-size="10.00">_inf_game.h</text>
</a>
</g>
</g>
<!-- Node12&#45;&gt;Node13 -->
<g id="edge5" class="edge">
<title>Node12&#45;&gt;Node13</title>
<path fill="none" stroke="#63b8ff" d="M339.87,-131.39C341.32,-120.15 343.1,-106.41 344.41,-96.27"/>
<polygon fill="#63b8ff" stroke="#63b8ff" points="336.41,-130.83 338.6,-141.2 343.35,-131.73 336.41,-130.83"/>
</g>
<!-- Node13&#45;&gt;Node86 -->
<g id="edge6" class="edge">
<title>Node13&#45;&gt;Node86</title>
<path fill="none" stroke="#63b8ff" d="M289.55,-62.12C257.78,-52.1 218.68,-39.78 188.91,-30.39"/>
<polygon fill="#63b8ff" stroke="#63b8ff" points="288.42,-65.43 299.01,-65.1 290.52,-58.76 288.42,-65.43"/>
</g>
<!-- Node13&#45;&gt;Node157 -->
<g id="edge7" class="edge">
<title>Node13&#45;&gt;Node157</title>
<path fill="none" stroke="#63b8ff" d="M361.46,-56.28C368.49,-45.31 376.41,-32.94 381.6,-24.84"/>
<polygon fill="#63b8ff" stroke="#63b8ff" points="358.63,-54.21 356.18,-64.52 364.52,-57.99 358.63,-54.21"/>
</g>
<!-- Node171 -->
<g id="node9" class="node">
<title>Node171</title>
<g id="a_node9"><a xlink:href="d__gameover_8cpp.html" target="_top" xlink:title=" ">
<polygon fill="white" stroke="#666666" points="681.76,-24.5 568.76,-24.5 568.76,-5.5 681.76,-5.5 681.76,-24.5"/>
<text text-anchor="middle" x="625.26" y="-12.5" font-family="Helvetica,sans-Serif" font-size="10.00">src/d/d_gameover.cpp</text>
</a>
</g>
</g>
<!-- Node13&#45;&gt;Node171 -->
<g id="edge8" class="edge">
<title>Node13&#45;&gt;Node171</title>
<path fill="none" stroke="#63b8ff" d="M412.92,-64.71C466.94,-52.32 541.22,-35.28 586.09,-24.99"/>
<polygon fill="#63b8ff" stroke="#63b8ff" points="412.16,-61.29 403.19,-66.94 413.72,-68.12 412.16,-61.29"/>
</g>
<!-- Node227&#45;&gt;Node171 -->
<g id="edge13" class="edge">
<title>Node227&#45;&gt;Node171</title>
<path fill="none" stroke="#63b8ff" d="M878.24,-221.3C835.85,-214.26 782.59,-200.36 742.26,-173 726.93,-162.6 652.87,-56.06 631.22,-24.66"/>
<polygon fill="#63b8ff" stroke="#63b8ff" points="877.69,-224.75 888.11,-222.83 878.77,-217.84 877.69,-224.75"/>
</g>
<!-- Node63 -->
<g id="node13" class="node">
<title>Node63</title>
<g id="a_node13"><a xlink:href="d__event__data_8cpp.html" target="_top" xlink:title=" ">
<polygon fill="white" stroke="#666666" points="1000.76,-167.5 897.76,-167.5 897.76,-137.5 1000.76,-137.5 1000.76,-167.5"/>
<text text-anchor="start" x="905.76" y="-155.5" font-family="Helvetica,sans-Serif" font-size="10.00">src/d/event/d_event</text>
<text text-anchor="middle" x="949.26" y="-144.5" font-family="Helvetica,sans-Serif" font-size="10.00">_data.cpp</text>
</a>
</g>
</g>
<!-- Node227&#45;&gt;Node63 -->
<g id="edge14" class="edge">
<title>Node227&#45;&gt;Node63</title>
<path fill="none" stroke="#63b8ff" d="M949.26,-208.25C949.26,-195.45 949.26,-179.22 949.26,-167.77"/>
<polygon fill="#63b8ff" stroke="#63b8ff" points="945.76,-208.09 949.26,-218.09 952.76,-208.09 945.76,-208.09"/>
</g>
<!-- Node228&#45;&gt;Node13 -->
<g id="edge16" class="edge">
<title>Node228&#45;&gt;Node13</title>
<path fill="none" stroke="#63b8ff" d="M739.78,-137.87C727.91,-135.84 715.76,-133.81 704.26,-132 597.33,-115.15 471.96,-98.3 401.55,-89.11"/>
<polygon fill="#63b8ff" stroke="#63b8ff" points="739.11,-141.31 749.56,-139.57 740.31,-134.41 739.11,-141.31"/>
</g>
<!-- Node229 -->
<g id="node15" class="node">
<title>Node229</title>
<g id="a_node15"><a xlink:href="d__s__name_8h.html" target="_top" xlink:title=" ">
<polygon fill="#fff0f0" stroke="red" points="1078.76,-90.5 959.76,-90.5 959.76,-71.5 1078.76,-71.5 1078.76,-90.5"/>
<text text-anchor="middle" x="1019.26" y="-78.5" font-family="Helvetica,sans-Serif" font-size="10.00">include/d/s/d_s_name.h</text>
</a>
</g>
</g>
<!-- Node228&#45;&gt;Node229 -->
<g id="edge17" class="edge">
<title>Node228&#45;&gt;Node229</title>
<path fill="none" stroke="#63b8ff" d="M868.18,-133.47C908.22,-119.83 961.49,-101.68 992.91,-90.98"/>
<polygon fill="#63b8ff" stroke="#63b8ff" points="867.3,-130.07 858.96,-136.61 869.56,-136.7 867.3,-130.07"/>
</g>
<!-- Node230 -->
<g id="node16" class="node">
<title>Node230</title>
<g id="a_node16"><a xlink:href="f__ap__game_8cpp.html" target="_top" xlink:title=" ">
<polygon fill="white" stroke="#666666" points="875.76,-90.5 754.76,-90.5 754.76,-71.5 875.76,-71.5 875.76,-90.5"/>
<text text-anchor="middle" x="815.26" y="-78.5" font-family="Helvetica,sans-Serif" font-size="10.00">src/f_ap/f_ap_game.cpp</text>
</a>
</g>
</g>
<!-- Node228&#45;&gt;Node230 -->
<g id="edge18" class="edge">
<title>Node228&#45;&gt;Node230</title>
<path fill="none" stroke="#63b8ff" d="M815.26,-125.96C815.26,-113.57 815.26,-99.49 815.26,-90.68"/>
<polygon fill="#63b8ff" stroke="#63b8ff" points="811.76,-125.59 815.26,-135.59 818.76,-125.59 811.76,-125.59"/>
</g>
<!-- Node231 -->
<g id="node17" class="node">
<title>Node231</title>
<g id="a_node17"><a xlink:href="f__op__camera__mng_8cpp.html" target="_top" xlink:title=" ">
<polygon fill="white" stroke="#666666" points="1333.76,-96 1222.76,-96 1222.76,-66 1333.76,-66 1333.76,-96"/>
<text text-anchor="start" x="1230.76" y="-84" font-family="Helvetica,sans-Serif" font-size="10.00">src/f_op/f_op_camera</text>
<text text-anchor="middle" x="1278.26" y="-73" font-family="Helvetica,sans-Serif" font-size="10.00">_mng.cpp</text>
</a>
</g>
</g>
<!-- Node228&#45;&gt;Node231 -->
<g id="edge19" class="edge">
<title>Node228&#45;&gt;Node231</title>
<path fill="none" stroke="#63b8ff" d="M876.71,-134.46C880.6,-133.57 884.48,-132.74 888.26,-132 1006.15,-108.81 1146.28,-93.87 1222.34,-86.8"/>
<polygon fill="#63b8ff" stroke="#63b8ff" points="876.1,-131.01 867.19,-136.73 877.73,-137.82 876.1,-131.01"/>
</g>
<!-- Node233 -->
<g id="node19" class="node">
<title>Node233</title>
<g id="a_node19"><a xlink:href="f__op__overlap__mng_8cpp.html" target="_top" xlink:title=" ">
<polygon fill="white" stroke="#666666" points="1562.26,-167.5 1452.26,-167.5 1452.26,-137.5 1562.26,-137.5 1562.26,-167.5"/>
<text text-anchor="start" x="1460.26" y="-155.5" font-family="Helvetica,sans-Serif" font-size="10.00">src/f_op/f_op_overlap</text>
<text text-anchor="middle" x="1507.26" y="-144.5" font-family="Helvetica,sans-Serif" font-size="10.00">_mng.cpp</text>
</a>
</g>
</g>
<!-- Node232&#45;&gt;Node233 -->
<g id="edge21" class="edge">
<title>Node232&#45;&gt;Node233</title>
<path fill="none" stroke="#63b8ff" d="M1480.23,-204.19C1486.62,-192.21 1494.1,-178.18 1499.57,-167.92"/>
<polygon fill="#63b8ff" stroke="#63b8ff" points="1477.31,-202.23 1475.69,-212.7 1483.48,-205.53 1477.31,-202.23"/>
</g>
<!-- Node234 -->
<g id="node20" class="node">
<title>Node234</title>
<g id="a_node20"><a xlink:href="f__op__overlap__req_8cpp.html" target="_top" xlink:title=" ">
<polygon fill="white" stroke="#666666" points="1533.26,-96 1423.26,-96 1423.26,-66 1533.26,-66 1533.26,-96"/>
<text text-anchor="start" x="1431.26" y="-84" font-family="Helvetica,sans-Serif" font-size="10.00">src/f_op/f_op_overlap</text>
<text text-anchor="middle" x="1478.26" y="-73" font-family="Helvetica,sans-Serif" font-size="10.00">_req.cpp</text>
</a>
</g>
</g>
<!-- Node232&#45;&gt;Node234 -->
<g id="edge22" class="edge">
<title>Node232&#45;&gt;Node234</title>
<path fill="none" stroke="#63b8ff" d="M1453.76,-204.07C1444.68,-184.42 1435.64,-156.2 1443.26,-132 1447.47,-118.66 1456.64,-105.78 1464.54,-96.44"/>
<polygon fill="#63b8ff" stroke="#63b8ff" points="1450.58,-205.54 1458.17,-212.93 1456.85,-202.42 1450.58,-205.54"/>
</g>
<!-- Node236 -->
<g id="node22" class="node">
<title>Node236</title>
<g id="a_node22"><a xlink:href="f__op__scene_8h.html" target="_top" xlink:title=" ">
<polygon fill="#fff0f0" stroke="red" points="1149.26,-162 1019.26,-162 1019.26,-143 1149.26,-143 1149.26,-162"/>
<text text-anchor="middle" x="1084.26" y="-150" font-family="Helvetica,sans-Serif" font-size="10.00">include/f_op/f_op_scene.h</text>
</a>
</g>
</g>
<!-- Node235&#45;&gt;Node236 -->
<g id="edge24" class="edge">
<title>Node235&#45;&gt;Node236</title>
<path fill="none" stroke="#63b8ff" d="M1225.71,-209.93C1187.74,-194.78 1135.77,-174.05 1106.56,-162.39"/>
<polygon fill="#63b8ff" stroke="#63b8ff" points="1224.02,-213.02 1234.61,-213.48 1226.62,-206.52 1224.02,-213.02"/>
</g>
<!-- Node248 -->
<g id="node23" class="node">
<title>Node248</title>
<g id="a_node23"><a xlink:href="f__op__scene__iter_8cpp.html" target="_top" xlink:title=" ">
<polygon fill="white" stroke="#666666" points="1272.76,-167.5 1167.76,-167.5 1167.76,-137.5 1272.76,-137.5 1272.76,-167.5"/>
<text text-anchor="start" x="1175.76" y="-155.5" font-family="Helvetica,sans-Serif" font-size="10.00">src/f_op/f_op_scene</text>
<text text-anchor="middle" x="1220.26" y="-144.5" font-family="Helvetica,sans-Serif" font-size="10.00">_iter.cpp</text>
</a>
</g>
</g>
<!-- Node235&#45;&gt;Node248 -->
<g id="edge26" class="edge">
<title>Node235&#45;&gt;Node248</title>
<path fill="none" stroke="#63b8ff" d="M1255.91,-204.91C1247.5,-192.78 1237.52,-178.38 1230.26,-167.92"/>
<polygon fill="#63b8ff" stroke="#63b8ff" points="1252.8,-206.57 1261.37,-212.8 1258.55,-202.58 1252.8,-206.57"/>
</g>
<!-- Node249 -->
<g id="node24" class="node">
<title>Node249</title>
<g id="a_node24"><a xlink:href="f__op__scene__tag_8cpp.html" target="_top" xlink:title=" ">
<polygon fill="white" stroke="#666666" points="1395.76,-167.5 1290.76,-167.5 1290.76,-137.5 1395.76,-137.5 1395.76,-167.5"/>
<text text-anchor="start" x="1298.76" y="-155.5" font-family="Helvetica,sans-Serif" font-size="10.00">src/f_op/f_op_scene</text>
<text text-anchor="middle" x="1343.26" y="-144.5" font-family="Helvetica,sans-Serif" font-size="10.00">_tag.cpp</text>
</a>
</g>
</g>
<!-- Node235&#45;&gt;Node249 -->
<g id="edge27" class="edge">
<title>Node235&#45;&gt;Node249</title>
<path fill="none" stroke="#63b8ff" d="M1293.57,-205.99C1305.26,-193.64 1319.41,-178.7 1329.62,-167.92"/>
<polygon fill="#63b8ff" stroke="#63b8ff" points="1291.33,-203.27 1286.99,-212.94 1296.41,-208.08 1291.33,-203.27"/>
</g>
<!-- Node236&#45;&gt;Node229 -->
<g id="edge25" class="edge">
<title>Node236&#45;&gt;Node229</title>
<path fill="none" stroke="#63b8ff" d="M1068.39,-134.53C1055.52,-120.77 1037.9,-101.93 1027.63,-90.95"/>
<polygon fill="#63b8ff" stroke="#63b8ff" points="1065.61,-136.68 1075,-141.59 1070.72,-131.9 1065.61,-136.68"/>
</g>
<!-- Node251 -->
<g id="node26" class="node">
<title>Node251</title>
<g id="a_node26"><a xlink:href="f__pc__fstcreate__req_8h.html" target="_top" xlink:title=" ">
<polygon fill="#fff0f0" stroke="red" points="2005.26,-167.5 1871.26,-167.5 1871.26,-137.5 2005.26,-137.5 2005.26,-167.5"/>
<text text-anchor="start" x="1879.26" y="-155.5" font-family="Helvetica,sans-Serif" font-size="10.00">include/f_pc/f_pc_fstcreate</text>
<text text-anchor="middle" x="1938.26" y="-144.5" font-family="Helvetica,sans-Serif" font-size="10.00">_req.h</text>
</a>
</g>
</g>
<!-- Node250&#45;&gt;Node251 -->
<g id="edge29" class="edge">
<title>Node250&#45;&gt;Node251</title>
<path fill="none" stroke="#63b8ff" d="M1712.47,-211.07C1715.1,-210.37 1717.71,-209.67 1720.26,-209 1783.21,-192.38 1799.18,-189.09 1862.26,-173 1868.73,-171.35 1875.51,-169.62 1882.24,-167.89"/>
<polygon fill="#63b8ff" stroke="#63b8ff" points="1711.78,-207.63 1703.04,-213.61 1713.6,-214.39 1711.78,-207.63"/>
</g>
<!-- Node253 -->
<g id="node28" class="node">
<title>Node253</title>
<g id="a_node28"><a xlink:href="f__pc__stdcreate__req_8h.html" target="_top" xlink:title=" ">
<polygon fill="#fff0f0" stroke="red" points="1717.76,-167.5 1580.76,-167.5 1580.76,-137.5 1717.76,-137.5 1717.76,-167.5"/>
<text text-anchor="start" x="1588.76" y="-155.5" font-family="Helvetica,sans-Serif" font-size="10.00">include/f_pc/f_pc_stdcreate</text>
<text text-anchor="middle" x="1649.26" y="-144.5" font-family="Helvetica,sans-Serif" font-size="10.00">_req.h</text>
</a>
</g>
</g>
<!-- Node250&#45;&gt;Node253 -->
<g id="edge31" class="edge">
<title>Node250&#45;&gt;Node253</title>
<path fill="none" stroke="#63b8ff" d="M1649.26,-202.73C1649.26,-191.08 1649.26,-177.76 1649.26,-167.92"/>
<polygon fill="#63b8ff" stroke="#63b8ff" points="1645.76,-202.53 1649.26,-212.53 1652.76,-202.53 1645.76,-202.53"/>
</g>
<!-- Node369 -->
<g id="node30" class="node">
<title>Node369</title>
<g id="a_node30"><a xlink:href="f__pc__create__iter_8cpp.html" target="_top" xlink:title=" ">
<polygon fill="white" stroke="#666666" points="2129.26,-167.5 2023.26,-167.5 2023.26,-137.5 2129.26,-137.5 2129.26,-167.5"/>
<text text-anchor="start" x="2031.26" y="-155.5" font-family="Helvetica,sans-Serif" font-size="10.00">src/f_pc/f_pc_create</text>
<text text-anchor="middle" x="2076.26" y="-144.5" font-family="Helvetica,sans-Serif" font-size="10.00">_iter.cpp</text>
</a>
</g>
</g>
<!-- Node250&#45;&gt;Node369 -->
<g id="edge35" class="edge">
<title>Node250&#45;&gt;Node369</title>
<path fill="none" stroke="#63b8ff" d="M1709.35,-211.34C1713.03,-210.5 1716.69,-209.71 1720.26,-209 1849.41,-183.5 1885.6,-200.86 2014.26,-173 2020.66,-171.61 2027.34,-169.86 2033.85,-167.96"/>
<polygon fill="#63b8ff" stroke="#63b8ff" points="1708.67,-207.91 1699.78,-213.67 1710.33,-214.71 1708.67,-207.91"/>
</g>
<!-- Node370 -->
<g id="node31" class="node">
<title>Node370</title>
<g id="a_node31"><a xlink:href="f__pc__create__req_8cpp.html" target="_top" xlink:title=" ">
<polygon fill="white" stroke="#666666" points="2253.26,-167.5 2147.26,-167.5 2147.26,-137.5 2253.26,-137.5 2253.26,-167.5"/>
<text text-anchor="start" x="2155.26" y="-155.5" font-family="Helvetica,sans-Serif" font-size="10.00">src/f_pc/f_pc_create</text>
<text text-anchor="middle" x="2200.26" y="-144.5" font-family="Helvetica,sans-Serif" font-size="10.00">_req.cpp</text>
</a>
</g>
</g>
<!-- Node250&#45;&gt;Node370 -->
<g id="edge36" class="edge">
<title>Node250&#45;&gt;Node370</title>
<path fill="none" stroke="#63b8ff" d="M1708.01,-211.48C1712.14,-210.56 1716.25,-209.72 1720.26,-209 1903.82,-176.17 1955.34,-209.19 2138.26,-173 2144.9,-171.69 2151.84,-169.92 2158.56,-167.98"/>
<polygon fill="#63b8ff" stroke="#63b8ff" points="1707.5,-208.01 1698.59,-213.73 1709.13,-214.81 1707.5,-208.01"/>
</g>
<!-- Node371 -->
<g id="node32" class="node">
<title>Node371</title>
<g id="a_node32"><a xlink:href="f__pc__creator_8cpp.html" target="_top" xlink:title=" ">
<polygon fill="white" stroke="#666666" points="2398.76,-162 2271.76,-162 2271.76,-143 2398.76,-143 2398.76,-162"/>
<text text-anchor="middle" x="2335.26" y="-150" font-family="Helvetica,sans-Serif" font-size="10.00">src/f_pc/f_pc_creator.cpp</text>
</a>
</g>
</g>
<!-- Node250&#45;&gt;Node371 -->
<g id="edge37" class="edge">
<title>Node250&#45;&gt;Node371</title>
<path fill="none" stroke="#63b8ff" d="M1707.79,-211.44C1711.99,-210.52 1716.18,-209.69 1720.26,-209 1958.32,-168.83 2024.07,-212.34 2262.26,-173 2277.15,-170.54 2293.39,-166.36 2306.77,-162.49"/>
<polygon fill="#63b8ff" stroke="#63b8ff" points="1707.11,-208 1698.18,-213.7 1708.72,-214.81 1707.11,-208"/>
</g>
<!-- Node44 -->
<g id="node27" class="node">
<title>Node44</title>
<g id="a_node27"><a xlink:href="f__pc__manager_8cpp.html" target="_top" xlink:title=" ">
<polygon fill="white" stroke="#666666" points="2005.26,-90.5 1871.26,-90.5 1871.26,-71.5 2005.26,-71.5 2005.26,-90.5"/>
<text text-anchor="middle" x="1938.26" y="-78.5" font-family="Helvetica,sans-Serif" font-size="10.00">src/f_pc/f_pc_manager.cpp</text>
</a>
</g>
</g>
<!-- Node251&#45;&gt;Node44 -->
<g id="edge30" class="edge">
<title>Node251&#45;&gt;Node44</title>
<path fill="none" stroke="#63b8ff" d="M1938.26,-125.96C1938.26,-113.57 1938.26,-99.49 1938.26,-90.68"/>
<polygon fill="#63b8ff" stroke="#63b8ff" points="1934.76,-125.59 1938.26,-135.59 1941.76,-125.59 1934.76,-125.59"/>
</g>
<!-- Node253&#45;&gt;Node231 -->
<g id="edge32" class="edge">
<title>Node253&#45;&gt;Node231</title>
<path fill="none" stroke="#63b8ff" d="M1582.68,-134.5C1578.82,-133.62 1575,-132.78 1571.26,-132 1489.2,-114.77 1393.26,-99.26 1334.13,-90.24"/>
<polygon fill="#63b8ff" stroke="#63b8ff" points="1581.56,-137.83 1592.09,-136.69 1583.15,-131.01 1581.56,-137.83"/>
</g>
<!-- Node253&#45;&gt;Node234 -->
<g id="edge33" class="edge">
<title>Node253&#45;&gt;Node234</title>
<path fill="none" stroke="#63b8ff" d="M1603.43,-132.87C1575.24,-121.41 1539.66,-106.95 1513.65,-96.38"/>
<polygon fill="#63b8ff" stroke="#63b8ff" points="1601.85,-136.01 1612.43,-136.53 1604.48,-129.52 1601.85,-136.01"/>
</g>
<!-- Node367 -->
<g id="node29" class="node">
<title>Node367</title>
<g id="a_node29"><a xlink:href="f__pc__node__req_8cpp.html" target="_top" xlink:title=" ">
<polygon fill="white" stroke="#666666" points="1706.26,-96 1606.26,-96 1606.26,-66 1706.26,-66 1706.26,-96"/>
<text text-anchor="start" x="1614.26" y="-84" font-family="Helvetica,sans-Serif" font-size="10.00">src/f_pc/f_pc_node</text>
<text text-anchor="middle" x="1656.26" y="-73" font-family="Helvetica,sans-Serif" font-size="10.00">_req.cpp</text>
</a>
</g>
</g>
<!-- Node253&#45;&gt;Node367 -->
<g id="edge34" class="edge">
<title>Node253&#45;&gt;Node367</title>
<path fill="none" stroke="#63b8ff" d="M1651.86,-125.76C1652.86,-115.83 1653.96,-104.86 1654.81,-96.38"/>
<polygon fill="#63b8ff" stroke="#63b8ff" points="1648.39,-125.29 1650.87,-135.59 1655.35,-125.99 1648.39,-125.29"/>
</g>
<!-- Node372&#45;&gt;Node44 -->
<g id="edge40" class="edge">
<title>Node372&#45;&gt;Node44</title>
<path fill="none" stroke="#63b8ff" d="M1834.39,-132.13C1862.38,-118.62 1898.43,-101.22 1919.87,-90.88"/>
<polygon fill="#63b8ff" stroke="#63b8ff" points="1832.95,-128.94 1825.46,-136.44 1835.99,-135.25 1832.95,-128.94"/>
</g>
<!-- Node372&#45;&gt;Node367 -->
<g id="edge41" class="edge">
<title>Node372&#45;&gt;Node367</title>
<path fill="none" stroke="#63b8ff" d="M1755.46,-131.96C1733.01,-120.65 1705.26,-106.67 1684.82,-96.38"/>
<polygon fill="#63b8ff" stroke="#63b8ff" points="1753.81,-135.05 1764.32,-136.42 1756.96,-128.79 1753.81,-135.05"/>
</g>
<!-- Node373 -->
<g id="node34" class="node">
<title>Node373</title>
<g id="a_node34"><a xlink:href="f__op__scene__req_8h.html" target="_top" xlink:title=" ">
<polygon fill="#fff0f0" stroke="red" points="1853.26,-96 1731.26,-96 1731.26,-66 1853.26,-66 1853.26,-96"/>
<text text-anchor="start" x="1739.26" y="-84" font-family="Helvetica,sans-Serif" font-size="10.00">include/f_op/f_op_scene</text>
<text text-anchor="middle" x="1792.26" y="-73" font-family="Helvetica,sans-Serif" font-size="10.00">_req.h</text>
</a>
</g>
</g>
<!-- Node372&#45;&gt;Node373 -->
<g id="edge39" class="edge">
<title>Node372&#45;&gt;Node373</title>
<path fill="none" stroke="#63b8ff" d="M1793.52,-125.76C1793.24,-115.83 1792.92,-104.86 1792.68,-96.38"/>
<polygon fill="#63b8ff" stroke="#63b8ff" points="1790.02,-125.69 1793.81,-135.59 1797.02,-125.49 1790.02,-125.69"/>
</g>
</g>
</svg>
