<?xml version="1.0" encoding="UTF-8" standalone="no"?>
<!DOCTYPE svg PUBLIC "-//W3C//DTD SVG 1.1//EN"
 "http://www.w3.org/Graphics/SVG/1.1/DTD/svg11.dtd">
<!-- Generated by graphviz version 9.0.0 (20230911.1827)
 -->
<!-- Title: dBgS_MoveBgActor Pages: 1 -->
<svg width="574pt" height="1507pt"
 viewBox="0.00 0.00 574.00 1507.25" xmlns="http://www.w3.org/2000/svg" xmlns:xlink="http://www.w3.org/1999/xlink">
<g id="graph0" class="graph" transform="scale(1 1) rotate(0) translate(4 1503.25)">
<title>dBgS_MoveBgActor</title>
<!-- Node1 -->
<g id="Node000001" class="node">
<title>Node1</title>
<g id="a_Node000001"><a xlink:title=" ">
<polygon fill="#999999" stroke="#666666" points="325.5,-759.25 221,-759.25 221,-740 325.5,-740 325.5,-759.25"/>
<text text-anchor="middle" x="273.25" y="-745.75" font-family="Helvetica,sans-Serif" font-size="10.00">dBgS_MoveBgActor</text>
</a>
</g>
</g>
<!-- Node4 -->
<g id="Node000004" class="node">
<title>Node4</title>
<g id="a_Node000004"><a xlink:href="classdaBarDesk__c.html" target="_top" xlink:title=" ">
<polygon fill="white" stroke="#666666" points="451.38,-1499.25 376.88,-1499.25 376.88,-1480 451.38,-1480 451.38,-1499.25"/>
<text text-anchor="middle" x="414.12" y="-1485.75" font-family="Helvetica,sans-Serif" font-size="10.00">daBarDesk_c</text>
</a>
</g>
</g>
<!-- Node1&#45;&gt;Node4 -->
<g id="edge3_Node000001_Node000004" class="edge">
<title>Node1&#45;&gt;Node4</title>
<g id="a_edge3_Node000001_Node000004"><a xlink:title=" ">
<path fill="none" stroke="#63b8ff" d="M273.9,-770.98C272.54,-878.52 271.63,-1359.98 361.5,-1471.62 365.43,-1476.5 370.76,-1480.07 376.52,-1482.66"/>
<polygon fill="#63b8ff" stroke="#63b8ff" points="277.39,-771.09 274.04,-761.04 270.4,-770.99 277.39,-771.09"/>
</a>
</g>
</g>
<!-- Node5 -->
<g id="Node000005" class="node">
<title>Node5</title>
<g id="a_Node000005"><a xlink:href="classdaBgObj__c.html" target="_top" xlink:title=" ">
<polygon fill="white" stroke="#666666" points="446.12,-1462.25 382.12,-1462.25 382.12,-1443 446.12,-1443 446.12,-1462.25"/>
<text text-anchor="middle" x="414.12" y="-1448.75" font-family="Helvetica,sans-Serif" font-size="10.00">daBgObj_c</text>
</a>
</g>
</g>
<!-- Node1&#45;&gt;Node5 -->
<g id="edge4_Node000001_Node000005" class="edge">
<title>Node1&#45;&gt;Node5</title>
<g id="a_edge4_Node000001_Node000005"><a xlink:title=" ">
<path fill="none" stroke="#63b8ff" d="M274.05,-770.86C273.5,-874.81 276.09,-1329.22 361.5,-1434.62 366.64,-1440.97 374.15,-1445.08 381.86,-1447.74"/>
<polygon fill="#63b8ff" stroke="#63b8ff" points="277.55,-771.04 274.12,-761.02 270.55,-770.99 277.55,-771.04"/>
</a>
</g>
</g>
<!-- Node6 -->
<g id="Node000006" class="node">
<title>Node6</title>
<g id="a_Node000006"><a xlink:href="classdaBsGate__c.html" target="_top" xlink:title=" ">
<polygon fill="white" stroke="#666666" points="449.12,-1425.25 379.12,-1425.25 379.12,-1406 449.12,-1406 449.12,-1425.25"/>
<text text-anchor="middle" x="414.12" y="-1411.75" font-family="Helvetica,sans-Serif" font-size="10.00">daBsGate_c</text>
</a>
</g>
</g>
<!-- Node1&#45;&gt;Node6 -->
<g id="edge5_Node000001_Node000006" class="edge">
<title>Node1&#45;&gt;Node6</title>
<g id="a_edge5_Node000001_Node000006"><a xlink:title=" ">
<path fill="none" stroke="#63b8ff" d="M274.22,-770.66C274.51,-870.79 280.53,-1298.43 361.5,-1397.62 365.94,-1403.07 372.13,-1406.87 378.68,-1409.52"/>
<polygon fill="#63b8ff" stroke="#63b8ff" points="277.72,-770.94 274.21,-760.95 270.72,-770.95 277.72,-770.94"/>
</a>
</g>
</g>
<!-- Node7 -->
<g id="Node000007" class="node">
<title>Node7</title>
<g id="a_Node000007"><a xlink:href="classdaCowdoor__c.html" target="_top" xlink:title=" ">
<polygon fill="white" stroke="#666666" points="451.75,-1388.25 376.5,-1388.25 376.5,-1369 451.75,-1369 451.75,-1388.25"/>
<text text-anchor="middle" x="414.12" y="-1374.75" font-family="Helvetica,sans-Serif" font-size="10.00">daCowdoor_c</text>
</a>
</g>
</g>
<!-- Node1&#45;&gt;Node7 -->
<g id="edge6_Node000001_Node000007" class="edge">
<title>Node1&#45;&gt;Node7</title>
<g id="a_edge6_Node000001_Node000007"><a xlink:title=" ">
<path fill="none" stroke="#63b8ff" d="M274.41,-770.66C275.58,-867.27 285.01,-1267.68 361.5,-1360.62 365.36,-1365.32 370.52,-1368.79 376.08,-1371.35"/>
<polygon fill="#63b8ff" stroke="#63b8ff" points="277.92,-770.8 274.32,-760.84 270.92,-770.87 277.92,-770.8"/>
</a>
</g>
</g>
<!-- Node8 -->
<g id="Node000008" class="node">
<title>Node8</title>
<g id="a_Node000008"><a xlink:href="classdaCstaF__c.html" target="_top" xlink:title=" ">
<polygon fill="white" stroke="#666666" points="445.75,-1351.25 382.5,-1351.25 382.5,-1332 445.75,-1332 445.75,-1351.25"/>
<text text-anchor="middle" x="414.12" y="-1337.75" font-family="Helvetica,sans-Serif" font-size="10.00">daCstaF_c</text>
</a>
</g>
</g>
<!-- Node1&#45;&gt;Node8 -->
<g id="edge7_Node000001_Node000008" class="edge">
<title>Node1&#45;&gt;Node8</title>
<g id="a_edge7_Node000001_Node000008"><a xlink:title=" ">
<path fill="none" stroke="#63b8ff" d="M274.63,-770.85C276.73,-864.15 289.54,-1236.98 361.5,-1323.62 366.78,-1329.98 374.43,-1334.09 382.23,-1336.75"/>
<polygon fill="#63b8ff" stroke="#63b8ff" points="278.14,-771.04 274.43,-761.12 271.14,-771.19 278.14,-771.04"/>
</a>
</g>
</g>
<!-- Node9 -->
<g id="Node000009" class="node">
<title>Node9</title>
<g id="a_Node000009"><a xlink:href="classdaDoorPush__c.html" target="_top" xlink:title=" ">
<polygon fill="white" stroke="#666666" points="454,-1314.25 374.25,-1314.25 374.25,-1295 454,-1295 454,-1314.25"/>
<text text-anchor="middle" x="414.12" y="-1300.75" font-family="Helvetica,sans-Serif" font-size="10.00">daDoorPush_c</text>
</a>
</g>
</g>
<!-- Node1&#45;&gt;Node9 -->
<g id="edge8_Node000001_Node000009" class="edge">
<title>Node1&#45;&gt;Node9</title>
<g id="a_edge8_Node000001_Node000009"><a xlink:title=" ">
<path fill="none" stroke="#63b8ff" d="M274.88,-770.88C277.94,-860.45 294.01,-1206.2 361.5,-1286.62 364.86,-1290.62 369.15,-1293.74 373.83,-1296.16"/>
<polygon fill="#63b8ff" stroke="#63b8ff" points="278.38,-770.78 274.56,-760.9 271.38,-771 278.38,-770.78"/>
</a>
</g>
</g>
<!-- Node10 -->
<g id="Node000010" class="node">
<title>Node10</title>
<g id="a_Node000010"><a xlink:href="classdaDsh__c.html" target="_top" xlink:title=" ">
<polygon fill="white" stroke="#666666" points="441.25,-1277.25 387,-1277.25 387,-1258 441.25,-1258 441.25,-1277.25"/>
<text text-anchor="middle" x="414.12" y="-1263.75" font-family="Helvetica,sans-Serif" font-size="10.00">daDsh_c</text>
</a>
</g>
</g>
<!-- Node1&#45;&gt;Node10 -->
<g id="edge9_Node000001_Node000010" class="edge">
<title>Node1&#45;&gt;Node10</title>
<g id="a_edge9_Node000001_Node000010"><a xlink:title=" ">
<path fill="none" stroke="#63b8ff" d="M275.15,-770.77C279.22,-856.28 298.43,-1175.36 361.5,-1249.62 367.83,-1257.08 377.42,-1261.45 386.63,-1264.01"/>
<polygon fill="#63b8ff" stroke="#63b8ff" points="278.66,-770.86 274.71,-761.03 271.67,-771.18 278.66,-770.86"/>
</a>
</g>
</g>
<!-- Node11 -->
<g id="Node000011" class="node">
<title>Node11</title>
<g id="a_Node000011"><a xlink:href="classdaGraveStone__c.html" target="_top" xlink:title=" ">
<polygon fill="white" stroke="#666666" points="458.5,-1240.25 369.75,-1240.25 369.75,-1221 458.5,-1221 458.5,-1240.25"/>
<text text-anchor="middle" x="414.12" y="-1226.75" font-family="Helvetica,sans-Serif" font-size="10.00">daGraveStone_c</text>
</a>
</g>
</g>
<!-- Node1&#45;&gt;Node11 -->
<g id="edge10_Node000001_Node000011" class="edge">
<title>Node1&#45;&gt;Node11</title>
<g id="a_edge10_Node000001_Node000011"><a xlink:title=" ">
<path fill="none" stroke="#63b8ff" d="M275.49,-771.01C280.65,-852.79 302.93,-1144.59 361.5,-1212.62 364.22,-1215.79 367.54,-1218.4 371.16,-1220.55"/>
<polygon fill="#63b8ff" stroke="#63b8ff" points="278.99,-770.84 274.89,-761.07 272,-771.27 278.99,-770.84"/>
</a>
</g>
</g>
<!-- Node12 -->
<g id="Node000012" class="node">
<title>Node12</title>
<g id="a_Node000012"><a xlink:href="classdaHeavySw__c.html" target="_top" xlink:title=" ">
<polygon fill="white" stroke="#666666" points="453.62,-1203.25 374.62,-1203.25 374.62,-1184 453.62,-1184 453.62,-1203.25"/>
<text text-anchor="middle" x="414.12" y="-1189.75" font-family="Helvetica,sans-Serif" font-size="10.00">daHeavySw_c</text>
</a>
</g>
</g>
<!-- Node1&#45;&gt;Node12 -->
<g id="edge11_Node000001_Node000012" class="edge">
<title>Node1&#45;&gt;Node12</title>
<g id="a_edge11_Node000001_Node000012"><a xlink:title=" ">
<path fill="none" stroke="#63b8ff" d="M275.84,-770.54C282.07,-847.48 307.24,-1113.59 361.5,-1175.62 365,-1179.63 369.44,-1182.74 374.24,-1185.16"/>
<polygon fill="#63b8ff" stroke="#63b8ff" points="279.36,-770.72 275.09,-761.02 272.38,-771.27 279.36,-770.72"/>
</a>
</g>
</g>
<!-- Node13 -->
<g id="Node000013" class="node">
<title>Node13</title>
<g id="a_Node000013"><a xlink:href="classdaHsTarget__c.html" target="_top" xlink:title=" ">
<polygon fill="white" stroke="#666666" points="452.88,-1166.25 375.38,-1166.25 375.38,-1147 452.88,-1147 452.88,-1166.25"/>
<text text-anchor="middle" x="414.12" y="-1152.75" font-family="Helvetica,sans-Serif" font-size="10.00">daHsTarget_c</text>
</a>
</g>
</g>
<!-- Node1&#45;&gt;Node13 -->
<g id="edge12_Node000001_Node000013" class="edge">
<title>Node1&#45;&gt;Node13</title>
<g id="a_edge12_Node000001_Node000013"><a xlink:title=" ">
<path fill="none" stroke="#63b8ff" d="M276.33,-771.03C283.84,-844.19 311.76,-1082.82 361.5,-1138.62 365.23,-1142.81 369.98,-1146.02 375.08,-1148.48"/>
<polygon fill="#63b8ff" stroke="#63b8ff" points="279.83,-770.83 275.35,-761.23 272.86,-771.52 279.83,-770.83"/>
</a>
</g>
</g>
<!-- Node14 -->
<g id="Node000014" class="node">
<title>Node14</title>
<g id="a_Node000014"><a xlink:href="classdaIzumiGate__c.html" target="_top" xlink:title=" ">
<polygon fill="white" stroke="#666666" points="454.75,-1129.25 373.5,-1129.25 373.5,-1110 454.75,-1110 454.75,-1129.25"/>
<text text-anchor="middle" x="414.12" y="-1115.75" font-family="Helvetica,sans-Serif" font-size="10.00">daIzumiGate_c</text>
</a>
</g>
</g>
<!-- Node1&#45;&gt;Node14 -->
<g id="edge13_Node000001_Node000014" class="edge">
<title>Node1&#45;&gt;Node14</title>
<g id="a_edge13_Node000001_Node000014"><a xlink:title=" ">
<path fill="none" stroke="#63b8ff" d="M276.84,-770.73C285.58,-838.93 316.08,-1051.79 361.5,-1101.62 364.76,-1105.2 368.77,-1108.07 373.1,-1110.37"/>
<polygon fill="#63b8ff" stroke="#63b8ff" points="280.32,-770.42 275.61,-760.93 273.38,-771.29 280.32,-770.42"/>
</a>
</g>
</g>
<!-- Node15 -->
<g id="Node000015" class="node">
<title>Node15</title>
<g id="a_Node000015"><a xlink:href="classdaLv1Cdl01__c.html" target="_top" xlink:title=" ">
<polygon fill="white" stroke="#666666" points="453.25,-1092.25 375,-1092.25 375,-1073 453.25,-1073 453.25,-1092.25"/>
<text text-anchor="middle" x="414.12" y="-1078.75" font-family="Helvetica,sans-Serif" font-size="10.00">daLv1Cdl01_c</text>
</a>
</g>
</g>
<!-- Node1&#45;&gt;Node15 -->
<g id="edge14_Node000001_Node000015" class="edge">
<title>Node1&#45;&gt;Node15</title>
<g id="a_edge14_Node000001_Node000015"><a xlink:title=" ">
<path fill="none" stroke="#63b8ff" d="M273.79,-770.87C273.75,-826.71 281.42,-979.14 361.5,-1064.62 365.2,-1068.57 369.81,-1071.66 374.74,-1074.06"/>
<polygon fill="#63b8ff" stroke="#63b8ff" points="277.29,-771.21 273.89,-761.18 270.29,-771.14 277.29,-771.21"/>
</a>
</g>
</g>
<!-- Node16 -->
<g id="Node000016" class="node">
<title>Node16</title>
<g id="a_Node000016"><a xlink:href="classdaLv4Gate__c.html" target="_top" xlink:title=" ">
<polygon fill="white" stroke="#666666" points="451.38,-1055.25 376.88,-1055.25 376.88,-1036 451.38,-1036 451.38,-1055.25"/>
<text text-anchor="middle" x="414.12" y="-1041.75" font-family="Helvetica,sans-Serif" font-size="10.00">daLv4Gate_c</text>
</a>
</g>
</g>
<!-- Node1&#45;&gt;Node16 -->
<g id="edge15_Node000001_Node000016" class="edge">
<title>Node1&#45;&gt;Node16</title>
<g id="a_edge15_Node000001_Node000016"><a xlink:title=" ">
<path fill="none" stroke="#63b8ff" d="M274.72,-770.75C277.01,-821.93 289.94,-953.78 361.5,-1027.62 365.66,-1031.92 370.9,-1035.19 376.44,-1037.68"/>
<polygon fill="#63b8ff" stroke="#63b8ff" points="278.23,-770.95 274.39,-761.07 271.24,-771.19 278.23,-770.95"/>
</a>
</g>
</g>
<!-- Node17 -->
<g id="Node000017" class="node">
<title>Node17</title>
<g id="a_Node000017"><a xlink:href="classdaLv4HsTarget__c.html" target="_top" xlink:title=" ">
<polygon fill="white" stroke="#666666" points="461.12,-1018.25 367.12,-1018.25 367.12,-999 461.12,-999 461.12,-1018.25"/>
<text text-anchor="middle" x="414.12" y="-1004.75" font-family="Helvetica,sans-Serif" font-size="10.00">daLv4HsTarget_c</text>
</a>
</g>
</g>
<!-- Node1&#45;&gt;Node17 -->
<g id="edge16_Node000001_Node000017" class="edge">
<title>Node1&#45;&gt;Node17</title>
<g id="a_edge16_Node000001_Node000017"><a xlink:title=" ">
<path fill="none" stroke="#63b8ff" d="M275.95,-771.02C280.76,-817.49 298.58,-928.44 361.5,-990.62 364.74,-993.83 368.58,-996.46 372.68,-998.63"/>
<polygon fill="#63b8ff" stroke="#63b8ff" points="279.45,-770.87 275.04,-761.23 272.48,-771.51 279.45,-770.87"/>
</a>
</g>
</g>
<!-- Node18 -->
<g id="Node000018" class="node">
<title>Node18</title>
<g id="a_Node000018"><a xlink:href="classdaLv4PoGate__c.html" target="_top" xlink:title=" ">
<polygon fill="white" stroke="#666666" points="457.38,-981.25 370.88,-981.25 370.88,-962 457.38,-962 457.38,-981.25"/>
<text text-anchor="middle" x="414.12" y="-967.75" font-family="Helvetica,sans-Serif" font-size="10.00">daLv4PoGate_c</text>
</a>
</g>
</g>
<!-- Node1&#45;&gt;Node18 -->
<g id="edge17_Node000001_Node000018" class="edge">
<title>Node1&#45;&gt;Node18</title>
<g id="a_edge17_Node000001_Node000018"><a xlink:title=" ">
<path fill="none" stroke="#63b8ff" d="M277.46,-770.48C284.84,-811.37 306.76,-902.52 361.5,-953.62 364.9,-956.8 368.89,-959.42 373.12,-961.58"/>
<polygon fill="#63b8ff" stroke="#63b8ff" points="280.94,-770.07 275.84,-760.79 274.04,-771.23 280.94,-770.07"/>
</a>
</g>
</g>
<!-- Node19 -->
<g id="Node000019" class="node">
<title>Node19</title>
<g id="a_Node000019"><a xlink:href="classdaObjBBox__c.html" target="_top" xlink:title=" ">
<polygon fill="white" stroke="#666666" points="451.75,-944.25 376.5,-944.25 376.5,-925 451.75,-925 451.75,-944.25"/>
<text text-anchor="middle" x="414.12" y="-930.75" font-family="Helvetica,sans-Serif" font-size="10.00">daObjBBox_c</text>
</a>
</g>
</g>
<!-- Node1&#45;&gt;Node19 -->
<g id="edge18_Node000001_Node000019" class="edge">
<title>Node1&#45;&gt;Node19</title>
<g id="a_edge18_Node000001_Node000019"><a xlink:title=" ">
<path fill="none" stroke="#63b8ff" d="M279.62,-770.29C289.76,-805.32 315,-876.46 361.5,-916.62 365.81,-920.35 370.94,-923.31 376.26,-925.67"/>
<polygon fill="#63b8ff" stroke="#63b8ff" points="283.08,-769.68 277.06,-760.97 276.34,-771.54 283.08,-769.68"/>
</a>
</g>
</g>
<!-- Node20 -->
<g id="Node000020" class="node">
<title>Node20</title>
<g id="a_Node000020"><a xlink:href="classdaObjBkDoor__c.html" target="_top" xlink:title=" ">
<polygon fill="white" stroke="#666666" points="456.25,-907.25 372,-907.25 372,-888 456.25,-888 456.25,-907.25"/>
<text text-anchor="middle" x="414.12" y="-893.75" font-family="Helvetica,sans-Serif" font-size="10.00">daObjBkDoor_c</text>
</a>
</g>
</g>
<!-- Node1&#45;&gt;Node20 -->
<g id="edge19_Node000001_Node000020" class="edge">
<title>Node1&#45;&gt;Node20</title>
<g id="a_edge19_Node000001_Node000020"><a xlink:title=" ">
<path fill="none" stroke="#63b8ff" d="M282.86,-770.04C295.86,-798.51 323.12,-849.98 361.5,-879.62 365.56,-882.76 370.2,-885.37 375,-887.54"/>
<polygon fill="#63b8ff" stroke="#63b8ff" points="286.15,-768.83 278.91,-761.08 279.74,-771.65 286.15,-768.83"/>
</a>
</g>
</g>
<!-- Node21 -->
<g id="Node000021" class="node">
<title>Node21</title>
<g id="a_Node000021"><a xlink:href="classdaObjBoard__c.html" target="_top" xlink:title=" ">
<polygon fill="white" stroke="#666666" points="452.88,-870.25 375.38,-870.25 375.38,-851 452.88,-851 452.88,-870.25"/>
<text text-anchor="middle" x="414.12" y="-856.75" font-family="Helvetica,sans-Serif" font-size="10.00">daObjBoard_c</text>
</a>
</g>
</g>
<!-- Node1&#45;&gt;Node21 -->
<g id="edge20_Node000001_Node000021" class="edge">
<title>Node1&#45;&gt;Node21</title>
<g id="a_edge20_Node000001_Node000021"><a xlink:title=" ">
<path fill="none" stroke="#63b8ff" d="M287.63,-768.65C303.2,-789.49 330.71,-822.61 361.5,-842.62 366.27,-845.73 371.65,-848.37 377.08,-850.59"/>
<polygon fill="#63b8ff" stroke="#63b8ff" points="290.59,-766.77 281.88,-760.74 284.93,-770.89 290.59,-766.77"/>
</a>
</g>
</g>
<!-- Node22 -->
<g id="Node000022" class="node">
<title>Node22</title>
<g id="a_Node000022"><a xlink:href="classdaObjCdoor__c.html" target="_top" xlink:title=" ">
<polygon fill="white" stroke="#666666" points="452.88,-833.25 375.38,-833.25 375.38,-814 452.88,-814 452.88,-833.25"/>
<text text-anchor="middle" x="414.12" y="-819.75" font-family="Helvetica,sans-Serif" font-size="10.00">daObjCdoor_c</text>
</a>
</g>
</g>
<!-- Node1&#45;&gt;Node22 -->
<g id="edge21_Node000001_Node000022" class="edge">
<title>Node1&#45;&gt;Node22</title>
<g id="a_edge21_Node000001_Node000022"><a xlink:title=" ">
<path fill="none" stroke="#63b8ff" d="M296.73,-766.15C313.86,-778.22 338.37,-794.36 361.5,-805.62 367.47,-808.53 374.04,-811.2 380.43,-813.53"/>
<polygon fill="#63b8ff" stroke="#63b8ff" points="298.97,-763.45 288.8,-760.47 294.89,-769.14 298.97,-763.45"/>
</a>
</g>
</g>
<!-- Node23 -->
<g id="Node000023" class="node">
<title>Node23</title>
<g id="a_Node000023"><a xlink:href="classdaObjChandelier__c.html" target="_top" xlink:title=" ">
<polygon fill="white" stroke="#666666" points="463,-796.25 365.25,-796.25 365.25,-777 463,-777 463,-796.25"/>
<text text-anchor="middle" x="414.12" y="-782.75" font-family="Helvetica,sans-Serif" font-size="10.00">daObjChandelier_c</text>
</a>
</g>
</g>
<!-- Node1&#45;&gt;Node23 -->
<g id="edge22_Node000001_Node000023" class="edge">
<title>Node1&#45;&gt;Node23</title>
<g id="a_edge22_Node000001_Node000023"><a xlink:title=" ">
<path fill="none" stroke="#63b8ff" d="M323.12,-762.65C340.22,-767.2 359.15,-772.25 375.22,-776.53"/>
<polygon fill="#63b8ff" stroke="#63b8ff" points="324.22,-759.32 313.66,-760.13 322.42,-766.08 324.22,-759.32"/>
</a>
</g>
</g>
<!-- Node24 -->
<g id="Node000024" class="node">
<title>Node24</title>
<g id="a_Node000024"><a xlink:href="classdaObjDigSnow__c.html" target="_top" xlink:title=" ">
<polygon fill="white" stroke="#666666" points="459.62,-759.25 368.62,-759.25 368.62,-740 459.62,-740 459.62,-759.25"/>
<text text-anchor="middle" x="414.12" y="-745.75" font-family="Helvetica,sans-Serif" font-size="10.00">daObjDigSnow_c</text>
</a>
</g>
</g>
<!-- Node1&#45;&gt;Node24 -->
<g id="edge23_Node000001_Node000024" class="edge">
<title>Node1&#45;&gt;Node24</title>
<g id="a_edge23_Node000001_Node000024"><a xlink:title=" ">
<path fill="none" stroke="#63b8ff" d="M337.19,-749.62C347.66,-749.62 358.32,-749.62 368.22,-749.62"/>
<polygon fill="#63b8ff" stroke="#63b8ff" points="337.48,-746.13 327.48,-749.63 337.48,-753.13 337.48,-746.13"/>
</a>
</g>
</g>
<!-- Node25 -->
<g id="Node000025" class="node">
<title>Node25</title>
<g id="a_Node000025"><a xlink:href="classdaObjGake__c.html" target="_top" xlink:title=" ">
<polygon fill="white" stroke="#666666" points="451.75,-722.25 376.5,-722.25 376.5,-703 451.75,-703 451.75,-722.25"/>
<text text-anchor="middle" x="414.12" y="-708.75" font-family="Helvetica,sans-Serif" font-size="10.00">daObjGake_c</text>
</a>
</g>
</g>
<!-- Node1&#45;&gt;Node25 -->
<g id="edge24_Node000001_Node000025" class="edge">
<title>Node1&#45;&gt;Node25</title>
<g id="a_edge24_Node000001_Node000025"><a xlink:title=" ">
<path fill="none" stroke="#63b8ff" d="M323.31,-736.55C340.7,-731.92 359.97,-726.79 376.18,-722.47"/>
<polygon fill="#63b8ff" stroke="#63b8ff" points="322.42,-733.17 313.66,-739.12 324.22,-739.93 322.42,-733.17"/>
</a>
</g>
</g>
<!-- Node26 -->
<g id="Node000026" class="node">
<title>Node26</title>
<g id="a_Node000026"><a xlink:href="classdaObjHBombkoya__c.html" target="_top" xlink:title=" ">
<polygon fill="white" stroke="#666666" points="466.75,-685.25 361.5,-685.25 361.5,-666 466.75,-666 466.75,-685.25"/>
<text text-anchor="middle" x="414.12" y="-671.75" font-family="Helvetica,sans-Serif" font-size="10.00">daObjHBombkoya_c</text>
</a>
</g>
</g>
<!-- Node1&#45;&gt;Node26 -->
<g id="edge25_Node000001_Node000026" class="edge">
<title>Node1&#45;&gt;Node26</title>
<g id="a_edge25_Node000001_Node000026"><a xlink:title=" ">
<path fill="none" stroke="#63b8ff" d="M296.73,-733.1C313.86,-721.03 338.37,-704.89 361.5,-693.62 367.47,-690.72 374.04,-688.05 380.43,-685.72"/>
<polygon fill="#63b8ff" stroke="#63b8ff" points="294.89,-730.11 288.8,-738.78 298.97,-735.8 294.89,-730.11"/>
</a>
</g>
</g>
<!-- Node27 -->
<g id="Node000027" class="node">
<title>Node27</title>
<g id="a_Node000027"><a xlink:href="classdaObjIce__l__c.html" target="_top" xlink:title=" ">
<polygon fill="white" stroke="#666666" points="450.62,-648.25 377.62,-648.25 377.62,-629 450.62,-629 450.62,-648.25"/>
<text text-anchor="middle" x="414.12" y="-634.75" font-family="Helvetica,sans-Serif" font-size="10.00">daObjIce_l_c</text>
</a>
</g>
</g>
<!-- Node1&#45;&gt;Node27 -->
<g id="edge26_Node000001_Node000027" class="edge">
<title>Node1&#45;&gt;Node27</title>
<g id="a_edge26_Node000001_Node000027"><a xlink:title=" ">
<path fill="none" stroke="#63b8ff" d="M287.63,-730.6C303.2,-709.76 330.71,-676.64 361.5,-656.62 366.35,-653.47 371.83,-650.8 377.35,-648.55"/>
<polygon fill="#63b8ff" stroke="#63b8ff" points="284.93,-728.36 281.88,-738.51 290.59,-732.48 284.93,-728.36"/>
</a>
</g>
</g>
<!-- Node28 -->
<g id="Node000028" class="node">
<title>Node28</title>
<g id="a_Node000028"><a xlink:href="classdaObjKGate__c.html" target="_top" xlink:title=" ">
<polygon fill="white" stroke="#666666" points="454,-611.25 374.25,-611.25 374.25,-592 454,-592 454,-611.25"/>
<text text-anchor="middle" x="414.12" y="-597.75" font-family="Helvetica,sans-Serif" font-size="10.00">daObjKGate_c</text>
</a>
</g>
</g>
<!-- Node1&#45;&gt;Node28 -->
<g id="edge27_Node000001_Node000028" class="edge">
<title>Node1&#45;&gt;Node28</title>
<g id="a_edge27_Node000001_Node000028"><a xlink:title=" ">
<path fill="none" stroke="#63b8ff" d="M282.86,-729.21C295.86,-700.74 323.12,-649.27 361.5,-619.62 365.56,-616.49 370.2,-613.88 375,-611.71"/>
<polygon fill="#63b8ff" stroke="#63b8ff" points="279.74,-727.6 278.91,-738.17 286.15,-730.42 279.74,-727.6"/>
</a>
</g>
</g>
<!-- Node29 -->
<g id="Node000029" class="node">
<title>Node29</title>
<g id="a_Node000029"><a xlink:href="classdaObjKJgjs__c.html" target="_top" xlink:title=" ">
<polygon fill="white" stroke="#666666" points="452.5,-574.25 375.75,-574.25 375.75,-555 452.5,-555 452.5,-574.25"/>
<text text-anchor="middle" x="414.12" y="-560.75" font-family="Helvetica,sans-Serif" font-size="10.00">daObjKJgjs_c</text>
</a>
</g>
</g>
<!-- Node1&#45;&gt;Node29 -->
<g id="edge28_Node000001_Node000029" class="edge">
<title>Node1&#45;&gt;Node29</title>
<g id="a_edge28_Node000001_Node000029"><a xlink:title=" ">
<path fill="none" stroke="#63b8ff" d="M279.62,-728.96C289.76,-693.93 315,-622.79 361.5,-582.62 365.59,-579.09 370.42,-576.23 375.46,-573.93"/>
<polygon fill="#63b8ff" stroke="#63b8ff" points="276.34,-727.71 277.06,-738.28 283.08,-729.57 276.34,-727.71"/>
</a>
</g>
</g>
<!-- Node30 -->
<g id="Node000030" class="node">
<title>Node30</title>
<g id="a_Node000030"><a xlink:href="classdaObjKKanban__c.html" target="_top" xlink:title=" ">
<polygon fill="white" stroke="#666666" points="460,-537.25 368.25,-537.25 368.25,-518 460,-518 460,-537.25"/>
<text text-anchor="middle" x="414.12" y="-523.75" font-family="Helvetica,sans-Serif" font-size="10.00">daObjKKanban_c</text>
</a>
</g>
</g>
<!-- Node1&#45;&gt;Node30 -->
<g id="edge29_Node000001_Node000030" class="edge">
<title>Node1&#45;&gt;Node30</title>
<g id="a_edge29_Node000001_Node000030"><a xlink:title=" ">
<path fill="none" stroke="#63b8ff" d="M277.46,-728.77C284.84,-687.88 306.76,-596.73 361.5,-545.62 364.9,-542.45 368.89,-539.83 373.12,-537.67"/>
<polygon fill="#63b8ff" stroke="#63b8ff" points="274.04,-728.02 275.84,-738.46 280.94,-729.18 274.04,-728.02"/>
</a>
</g>
</g>
<!-- Node31 -->
<g id="Node000031" class="node">
<title>Node31</title>
<g id="a_Node000031"><a xlink:href="classdaObjLv3saka__c.html" target="_top" xlink:title=" ">
<polygon fill="white" stroke="#666666" points="458.88,-500.25 369.38,-500.25 369.38,-481 458.88,-481 458.88,-500.25"/>
<text text-anchor="middle" x="414.12" y="-486.75" font-family="Helvetica,sans-Serif" font-size="10.00">daObjLv3saka_c</text>
</a>
</g>
</g>
<!-- Node1&#45;&gt;Node31 -->
<g id="edge30_Node000001_Node000031" class="edge">
<title>Node1&#45;&gt;Node31</title>
<g id="a_edge30_Node000001_Node000031"><a xlink:title=" ">
<path fill="none" stroke="#63b8ff" d="M275.95,-728.23C280.76,-681.76 298.58,-570.81 361.5,-508.62 364.74,-505.42 368.58,-502.79 372.68,-500.62"/>
<polygon fill="#63b8ff" stroke="#63b8ff" points="272.48,-727.74 275.04,-738.02 279.45,-728.38 272.48,-727.74"/>
</a>
</g>
</g>
<!-- Node32 -->
<g id="Node000032" class="node">
<title>Node32</title>
<g id="a_Node000032"><a xlink:href="classdaObjLv4Floor__c.html" target="_top" xlink:title=" ">
<polygon fill="white" stroke="#666666" points="459.25,-463.25 369,-463.25 369,-444 459.25,-444 459.25,-463.25"/>
<text text-anchor="middle" x="414.12" y="-449.75" font-family="Helvetica,sans-Serif" font-size="10.00">daObjLv4Floor_c</text>
</a>
</g>
</g>
<!-- Node1&#45;&gt;Node32 -->
<g id="edge31_Node000001_Node000032" class="edge">
<title>Node1&#45;&gt;Node32</title>
<g id="a_edge31_Node000001_Node000032"><a xlink:title=" ">
<path fill="none" stroke="#63b8ff" d="M274.72,-728.5C277.01,-677.32 289.94,-545.47 361.5,-471.62 364.6,-468.42 368.31,-465.79 372.29,-463.62"/>
<polygon fill="#63b8ff" stroke="#63b8ff" points="271.24,-728.06 274.39,-738.18 278.23,-728.3 271.24,-728.06"/>
</a>
</g>
</g>
<!-- Node33 -->
<g id="Node000033" class="node">
<title>Node33</title>
<g id="a_Node000033"><a xlink:href="classdaObjMGate__c.html" target="_top" xlink:title=" ">
<polygon fill="white" stroke="#666666" points="454.75,-426.25 373.5,-426.25 373.5,-407 454.75,-407 454.75,-426.25"/>
<text text-anchor="middle" x="414.12" y="-412.75" font-family="Helvetica,sans-Serif" font-size="10.00">daObjMGate_c</text>
</a>
</g>
</g>
<!-- Node1&#45;&gt;Node33 -->
<g id="edge32_Node000001_Node000033" class="edge">
<title>Node1&#45;&gt;Node33</title>
<g id="a_edge32_Node000001_Node000033"><a xlink:title=" ">
<path fill="none" stroke="#63b8ff" d="M273.79,-728.38C273.75,-672.54 281.42,-520.11 361.5,-434.62 364.81,-431.09 368.85,-428.25 373.2,-425.97"/>
<polygon fill="#63b8ff" stroke="#63b8ff" points="270.29,-728.11 273.89,-738.07 277.29,-728.04 270.29,-728.11"/>
</a>
</g>
</g>
<!-- Node34 -->
<g id="Node000034" class="node">
<title>Node34</title>
<g id="a_Node000034"><a xlink:href="classdaObjMirrorScrew__c.html" target="_top" xlink:title=" ">
<polygon fill="white" stroke="#666666" points="466.38,-389.25 361.88,-389.25 361.88,-370 466.38,-370 466.38,-389.25"/>
<text text-anchor="middle" x="414.12" y="-375.75" font-family="Helvetica,sans-Serif" font-size="10.00">daObjMirrorScrew_c</text>
</a>
</g>
</g>
<!-- Node1&#45;&gt;Node34 -->
<g id="edge33_Node000001_Node000034" class="edge">
<title>Node1&#45;&gt;Node34</title>
<g id="a_edge33_Node000001_Node000034"><a xlink:title=" ">
<path fill="none" stroke="#63b8ff" d="M276.84,-728.52C285.58,-660.32 316.08,-447.46 361.5,-397.62 364.38,-394.47 367.84,-391.87 371.59,-389.72"/>
<polygon fill="#63b8ff" stroke="#63b8ff" points="273.38,-727.96 275.61,-738.32 280.32,-728.83 273.38,-727.96"/>
</a>
</g>
</g>
<!-- Node35 -->
<g id="Node000035" class="node">
<title>Node35</title>
<g id="a_Node000035"><a xlink:href="classdaObjOnsen__c.html" target="_top" xlink:title=" ">
<polygon fill="white" stroke="#666666" points="454.38,-352.25 373.88,-352.25 373.88,-333 454.38,-333 454.38,-352.25"/>
<text text-anchor="middle" x="414.12" y="-338.75" font-family="Helvetica,sans-Serif" font-size="10.00">daObjOnsen_c</text>
</a>
</g>
</g>
<!-- Node1&#45;&gt;Node35 -->
<g id="edge34_Node000001_Node000035" class="edge">
<title>Node1&#45;&gt;Node35</title>
<g id="a_edge34_Node000001_Node000035"><a xlink:title=" ">
<path fill="none" stroke="#63b8ff" d="M276.33,-728.22C283.84,-655.06 311.76,-416.43 361.5,-360.62 364.85,-356.87 369.02,-353.9 373.54,-351.55"/>
<polygon fill="#63b8ff" stroke="#63b8ff" points="272.86,-727.73 275.35,-738.02 279.83,-728.42 272.86,-727.73"/>
</a>
</g>
</g>
<!-- Node36 -->
<g id="Node000036" class="node">
<title>Node36</title>
<g id="a_Node000036"><a xlink:href="classdaObjRgate__c.html" target="_top" xlink:title=" ">
<polygon fill="white" stroke="#666666" points="452.88,-315.25 375.38,-315.25 375.38,-296 452.88,-296 452.88,-315.25"/>
<text text-anchor="middle" x="414.12" y="-301.75" font-family="Helvetica,sans-Serif" font-size="10.00">daObjRgate_c</text>
</a>
</g>
</g>
<!-- Node1&#45;&gt;Node36 -->
<g id="edge35_Node000001_Node000036" class="edge">
<title>Node1&#45;&gt;Node36</title>
<g id="a_edge35_Node000001_Node000036"><a xlink:title=" ">
<path fill="none" stroke="#63b8ff" d="M275.84,-728.71C282.07,-651.77 307.24,-385.66 361.5,-323.62 365.19,-319.41 369.92,-316.18 375.01,-313.71"/>
<polygon fill="#63b8ff" stroke="#63b8ff" points="272.38,-727.98 275.09,-738.23 279.36,-728.53 272.38,-727.98"/>
</a>
</g>
</g>
<!-- Node37 -->
<g id="Node000037" class="node">
<title>Node37</title>
<g id="a_Node000037"><a xlink:href="classdaObjSwHang__c.html" target="_top" xlink:title=" ">
<polygon fill="white" stroke="#666666" points="458.88,-278.25 369.38,-278.25 369.38,-259 458.88,-259 458.88,-278.25"/>
<text text-anchor="middle" x="414.12" y="-264.75" font-family="Helvetica,sans-Serif" font-size="10.00">daObjSwHang_c</text>
</a>
</g>
</g>
<!-- Node1&#45;&gt;Node37 -->
<g id="edge36_Node000001_Node000037" class="edge">
<title>Node1&#45;&gt;Node37</title>
<g id="a_edge36_Node000001_Node000037"><a xlink:title=" ">
<path fill="none" stroke="#63b8ff" d="M275.49,-728.24C280.65,-646.46 302.93,-354.66 361.5,-286.62 364.22,-283.46 367.54,-280.85 371.16,-278.7"/>
<polygon fill="#63b8ff" stroke="#63b8ff" points="272,-727.98 274.89,-738.18 278.99,-728.41 272,-727.98"/>
</a>
</g>
</g>
<!-- Node38 -->
<g id="Node000038" class="node">
<title>Node38</title>
<g id="a_Node000038"><a xlink:href="classdaObjSwSpinner__c.html" target="_top" xlink:title=" ">
<polygon fill="white" stroke="#666666" points="463.75,-241.25 364.5,-241.25 364.5,-222 463.75,-222 463.75,-241.25"/>
<text text-anchor="middle" x="414.12" y="-227.75" font-family="Helvetica,sans-Serif" font-size="10.00">daObjSwSpinner_c</text>
</a>
</g>
</g>
<!-- Node1&#45;&gt;Node38 -->
<g id="edge37_Node000001_Node000038" class="edge">
<title>Node1&#45;&gt;Node38</title>
<g id="a_edge37_Node000001_Node000038"><a xlink:title=" ">
<path fill="none" stroke="#63b8ff" d="M275.15,-728.48C279.22,-642.97 298.43,-323.89 361.5,-249.62 364.2,-246.44 367.5,-243.82 371.11,-241.66"/>
<polygon fill="#63b8ff" stroke="#63b8ff" points="271.67,-728.07 274.71,-738.22 278.66,-728.39 271.67,-728.07"/>
</a>
</g>
</g>
<!-- Node39 -->
<g id="Node000039" class="node">
<title>Node39</title>
<g id="a_Node000039"><a xlink:href="classdaObjTable__c.html" target="_top" xlink:title=" ">
<polygon fill="white" stroke="#666666" points="452.12,-204.25 376.12,-204.25 376.12,-185 452.12,-185 452.12,-204.25"/>
<text text-anchor="middle" x="414.12" y="-190.75" font-family="Helvetica,sans-Serif" font-size="10.00">daObjTable_c</text>
</a>
</g>
</g>
<!-- Node1&#45;&gt;Node39 -->
<g id="edge38_Node000001_Node000039" class="edge">
<title>Node1&#45;&gt;Node39</title>
<g id="a_edge38_Node000001_Node000039"><a xlink:title=" ">
<path fill="none" stroke="#63b8ff" d="M274.88,-728.37C277.94,-638.8 294.01,-293.05 361.5,-212.62 365.28,-208.12 370.26,-204.74 375.63,-202.2"/>
<polygon fill="#63b8ff" stroke="#63b8ff" points="271.38,-728.25 274.56,-738.35 278.38,-728.47 271.38,-728.25"/>
</a>
</g>
</g>
<!-- Node40 -->
<g id="Node000040" class="node">
<title>Node40</title>
<g id="a_Node000040"><a xlink:href="classdaObjWindow__c.html" target="_top" xlink:title=" ">
<polygon fill="white" stroke="#666666" points="457.38,-167.25 370.88,-167.25 370.88,-148 457.38,-148 457.38,-167.25"/>
<text text-anchor="middle" x="414.12" y="-153.75" font-family="Helvetica,sans-Serif" font-size="10.00">daObjWindow_c</text>
</a>
</g>
</g>
<!-- Node1&#45;&gt;Node40 -->
<g id="edge39_Node000001_Node000040" class="edge">
<title>Node1&#45;&gt;Node40</title>
<g id="a_edge39_Node000001_Node000040"><a xlink:title=" ">
<path fill="none" stroke="#63b8ff" d="M274.63,-728.4C276.73,-635.1 289.54,-262.27 361.5,-175.62 364.17,-172.41 367.44,-169.77 371.04,-167.6"/>
<polygon fill="#63b8ff" stroke="#63b8ff" points="271.14,-728.06 274.43,-738.13 278.14,-728.21 271.14,-728.06"/>
</a>
</g>
</g>
<!-- Node41 -->
<g id="Node000041" class="node">
<title>Node41</title>
<g id="a_Node000041"><a xlink:href="classdaObjZraRock__c.html" target="_top" xlink:title=" ">
<polygon fill="white" stroke="#666666" points="458.5,-130.25 369.75,-130.25 369.75,-111 458.5,-111 458.5,-130.25"/>
<text text-anchor="middle" x="414.12" y="-116.75" font-family="Helvetica,sans-Serif" font-size="10.00">daObjZraRock_c</text>
</a>
</g>
</g>
<!-- Node1&#45;&gt;Node41 -->
<g id="edge40_Node000001_Node000041" class="edge">
<title>Node1&#45;&gt;Node41</title>
<g id="a_edge40_Node000001_Node000041"><a xlink:title=" ">
<path fill="none" stroke="#63b8ff" d="M274.41,-728.59C275.58,-631.98 285.01,-231.57 361.5,-138.62 364.15,-135.4 367.42,-132.75 371.01,-130.58"/>
<polygon fill="#63b8ff" stroke="#63b8ff" points="270.92,-728.38 274.32,-738.41 277.92,-728.45 270.92,-728.38"/>
</a>
</g>
</g>
<!-- Node42 -->
<g id="Node000042" class="node">
<title>Node42</title>
<g id="a_Node000042"><a xlink:href="classdaTagHjump__c.html" target="_top" xlink:title=" ">
<polygon fill="white" stroke="#666666" points="455.12,-93.25 373.12,-93.25 373.12,-74 455.12,-74 455.12,-93.25"/>
<text text-anchor="middle" x="414.12" y="-79.75" font-family="Helvetica,sans-Serif" font-size="10.00">daTagHjump_c</text>
</a>
</g>
</g>
<!-- Node1&#45;&gt;Node42 -->
<g id="edge41_Node000001_Node000042" class="edge">
<title>Node1&#45;&gt;Node42</title>
<g id="a_edge41_Node000001_Node000042"><a xlink:title=" ">
<path fill="none" stroke="#63b8ff" d="M274.22,-728.59C274.51,-628.46 280.53,-200.82 361.5,-101.62 364.56,-97.87 368.45,-94.9 372.72,-92.55"/>
<polygon fill="#63b8ff" stroke="#63b8ff" points="270.72,-728.3 274.21,-738.3 277.72,-728.31 270.72,-728.3"/>
</a>
</g>
</g>
<!-- Node43 -->
<g id="Node000043" class="node">
<title>Node43</title>
<g id="a_Node000043"><a xlink:href="classdaTboxBase__c.html" target="_top" xlink:title=" ">
<polygon fill="white" stroke="#666666" points="454.38,-56.25 373.88,-56.25 373.88,-37 454.38,-37 454.38,-56.25"/>
<text text-anchor="middle" x="414.12" y="-42.75" font-family="Helvetica,sans-Serif" font-size="10.00">daTboxBase_c</text>
</a>
</g>
</g>
<!-- Node1&#45;&gt;Node43 -->
<g id="edge42_Node000001_Node000043" class="edge">
<title>Node1&#45;&gt;Node43</title>
<g id="a_edge42_Node000001_Node000043"><a xlink:title=" ">
<path fill="none" stroke="#63b8ff" d="M274.05,-728.39C273.5,-624.44 276.09,-170.03 361.5,-64.62 364.73,-60.64 368.89,-57.54 373.45,-55.12"/>
<polygon fill="#63b8ff" stroke="#63b8ff" points="270.55,-728.26 274.12,-738.23 277.55,-728.21 270.55,-728.26"/>
</a>
</g>
</g>
<!-- Node46 -->
<g id="Node000046" class="node">
<title>Node46</title>
<g id="a_Node000046"><a xlink:href="classdaZrTurara__c.html" target="_top" xlink:title=" ">
<polygon fill="white" stroke="#666666" points="451,-19.25 377.25,-19.25 377.25,0 451,0 451,-19.25"/>
<text text-anchor="middle" x="414.12" y="-5.75" font-family="Helvetica,sans-Serif" font-size="10.00">daZrTurara_c</text>
</a>
</g>
</g>
<!-- Node1&#45;&gt;Node46 -->
<g id="edge45_Node000001_Node000046" class="edge">
<title>Node1&#45;&gt;Node46</title>
<g id="a_edge45_Node000001_Node000046"><a xlink:title=" ">
<path fill="none" stroke="#63b8ff" d="M273.9,-728.27C272.54,-620.73 271.63,-139.27 361.5,-27.62 365.49,-22.67 370.92,-19.08 376.78,-16.47"/>
<polygon fill="#63b8ff" stroke="#63b8ff" points="270.4,-728.26 274.04,-738.21 277.39,-728.16 270.4,-728.26"/>
</a>
</g>
</g>
<!-- Node2 -->
<g id="Node000002" class="node">
<title>Node2</title>
<g id="a_Node000002"><a xlink:href="structfopAc__ac__c.html" target="_top" xlink:title=" ">
<polygon fill="white" stroke="#666666" points="185,-759.25 117.25,-759.25 117.25,-740 185,-740 185,-759.25"/>
<text text-anchor="middle" x="151.12" y="-745.75" font-family="Helvetica,sans-Serif" font-size="10.00">fopAc_ac_c</text>
</a>
</g>
</g>
<!-- Node2&#45;&gt;Node1 -->
<g id="edge1_Node000001_Node000002" class="edge">
<title>Node2&#45;&gt;Node1</title>
<g id="a_edge1_Node000001_Node000002"><a xlink:title=" ">
<path fill="none" stroke="#63b8ff" d="M196.76,-749.62C204.57,-749.62 212.76,-749.62 220.74,-749.62"/>
<polygon fill="#63b8ff" stroke="#63b8ff" points="196.78,-746.13 186.78,-749.63 196.78,-753.13 196.78,-746.13"/>
</a>
</g>
</g>
<!-- Node3 -->
<g id="Node000003" class="node">
<title>Node3</title>
<g id="a_Node000003"><a xlink:href="structleafdraw__class.html" target="_top" xlink:title=" ">
<polygon fill="white" stroke="#666666" points="81.25,-759.25 0,-759.25 0,-740 81.25,-740 81.25,-759.25"/>
<text text-anchor="middle" x="40.62" y="-745.75" font-family="Helvetica,sans-Serif" font-size="10.00">leafdraw_class</text>
</a>
</g>
</g>
<!-- Node3&#45;&gt;Node2 -->
<g id="edge2_Node000002_Node000003" class="edge">
<title>Node3&#45;&gt;Node2</title>
<g id="a_edge2_Node000002_Node000003"><a xlink:title=" ">
<path fill="none" stroke="#63b8ff" d="M93.06,-749.62C101.18,-749.62 109.39,-749.62 116.94,-749.62"/>
<polygon fill="#63b8ff" stroke="#63b8ff" points="93.23,-746.13 83.23,-749.63 93.23,-753.13 93.23,-746.13"/>
</a>
</g>
</g>
<!-- Node44 -->
<g id="Node000044" class="node">
<title>Node44</title>
<g id="a_Node000044"><a xlink:href="classdaTbox2__c.html" target="_top" xlink:title=" ">
<polygon fill="white" stroke="#666666" points="566,-74.25 502.75,-74.25 502.75,-55 566,-55 566,-74.25"/>
<text text-anchor="middle" x="534.38" y="-60.75" font-family="Helvetica,sans-Serif" font-size="10.00">daTbox2_c</text>
</a>
</g>
</g>
<!-- Node43&#45;&gt;Node44 -->
<g id="edge43_Node000043_Node000044" class="edge">
<title>Node43&#45;&gt;Node44</title>
<g id="a_edge43_Node000043_Node000044"><a xlink:title=" ">
<path fill="none" stroke="#63b8ff" d="M466.04,-54.38C478.47,-56.27 491.4,-58.24 502.56,-59.93"/>
<polygon fill="#63b8ff" stroke="#63b8ff" points="466.74,-50.94 456.33,-52.9 465.69,-57.86 466.74,-50.94"/>
</a>
</g>
</g>
<!-- Node45 -->
<g id="Node000045" class="node">
<title>Node45</title>
<g id="a_Node000045"><a xlink:href="classdaTbox__c.html" target="_top" xlink:title=" ">
<polygon fill="white" stroke="#666666" points="563.38,-37.25 505.38,-37.25 505.38,-18 563.38,-18 563.38,-37.25"/>
<text text-anchor="middle" x="534.38" y="-23.75" font-family="Helvetica,sans-Serif" font-size="10.00">daTbox_c</text>
</a>
</g>
</g>
<!-- Node43&#45;&gt;Node45 -->
<g id="edge44_Node000043_Node000045" class="edge">
<title>Node43&#45;&gt;Node45</title>
<g id="a_edge44_Node000043_Node000045"><a xlink:title=" ">
<path fill="none" stroke="#63b8ff" d="M465.92,-38.46C479.37,-36.3 493.41,-34.05 505.17,-32.16"/>
<polygon fill="#63b8ff" stroke="#63b8ff" points="465.64,-34.96 456.32,-40.01 466.75,-41.87 465.64,-34.96"/>
</a>
</g>
</g>
</g>
</svg>
