<?xml version="1.0" encoding="UTF-8" standalone="no"?>
<!DOCTYPE svg PUBLIC "-//W3C//DTD SVG 1.1//EN"
 "http://www.w3.org/Graphics/SVG/1.1/DTD/svg11.dtd">
<!-- Generated by graphviz version 7.0.5 (20221223.1930)
 -->
<!-- Title: JStudio::TObject Pages: 1 -->
<svg width="930pt" height="306pt"
 viewBox="0.00 0.00 930.00 306.00" xmlns="http://www.w3.org/2000/svg" xmlns:xlink="http://www.w3.org/1999/xlink">
<g id="graph0" class="graph" transform="scale(1 1) rotate(0) translate(4 302)">
<title>JStudio::TObject</title>
<!-- Node1 -->
<g id="node1" class="node">
<title>Node1</title>
<g id="a_node1"><a xlink:title=" ">
<polygon fill="#999999" stroke="#666666" points="680.5,-106 591.5,-106 591.5,-87 680.5,-87 680.5,-106"/>
<text text-anchor="middle" x="636" y="-94" font-family="Helvetica,sans-Serif" font-size="10.00">JStudio::TObject</text>
</a>
</g>
</g>
<!-- Node11 -->
<g id="node11" class="node">
<title>Node11</title>
<g id="a_node11"><a xlink:href="structJStudio_1_1TAdaptor.html" target="_top" xlink:title=" ">
<polygon fill="white" stroke="#666666" points="914.5,-74 820.5,-74 820.5,-55 914.5,-55 914.5,-74"/>
<text text-anchor="middle" x="867.5" y="-62" font-family="Helvetica,sans-Serif" font-size="10.00">JStudio::TAdaptor</text>
</a>
</g>
</g>
<!-- Node1&#45;&gt;Node11 -->
<g id="edge14" class="edge">
<title>Node1&#45;&gt;Node11</title>
<path fill="none" stroke="#9a32cd" stroke-dasharray="5,2" d="M692.22,-90.06C722.59,-86.39 760.92,-81.51 795,-76.5 803.09,-75.31 811.69,-73.95 820,-72.58"/>
<polygon fill="#9a32cd" stroke="#9a32cd" points="692.01,-86.56 682.5,-91.23 692.84,-93.51 692.01,-86.56"/>
<text text-anchor="middle" x="754.5" y="-90.5" font-family="Helvetica,sans-Serif" font-size="10.00"> pObject_</text>
</g>
<!-- Node2 -->
<g id="node2" class="node">
<title>Node2</title>
<g id="a_node2"><a xlink:href="classJStudio_1_1stb_1_1TObject.html" target="_top" xlink:title=" ">
<polygon fill="white" stroke="#666666" points="489.5,-189 382.5,-189 382.5,-170 489.5,-170 489.5,-189"/>
<text text-anchor="middle" x="436" y="-177" font-family="Helvetica,sans-Serif" font-size="10.00">JStudio::stb::TObject</text>
</a>
</g>
</g>
<!-- Node2&#45;&gt;Node1 -->
<g id="edge1" class="edge">
<title>Node2&#45;&gt;Node1</title>
<path fill="none" stroke="#63b8ff" d="M466.16,-164.39C493.93,-150.35 537.14,-129.43 576,-114.5 583.5,-111.62 591.67,-108.88 599.47,-106.45"/>
<polygon fill="#63b8ff" stroke="#63b8ff" points="464.64,-161.24 457.31,-168.89 467.81,-167.47 464.64,-161.24"/>
</g>
<!-- Node10 -->
<g id="node10" class="node">
<title>Node10</title>
<g id="a_node10"><a xlink:href="classJStudio_1_1stb_1_1TObject__control.html" target="_top" xlink:title=" ">
<polygon fill="white" stroke="#666666" points="689.5,-238.5 582.5,-238.5 582.5,-208.5 689.5,-208.5 689.5,-238.5"/>
<text text-anchor="start" x="590.5" y="-226.5" font-family="Helvetica,sans-Serif" font-size="10.00">JStudio::stb::TObject</text>
<text text-anchor="middle" x="636" y="-215.5" font-family="Helvetica,sans-Serif" font-size="10.00">_control</text>
</a>
</g>
</g>
<!-- Node2&#45;&gt;Node10 -->
<g id="edge12" class="edge">
<title>Node2&#45;&gt;Node10</title>
<path fill="none" stroke="#63b8ff" d="M493.13,-191.97C521.09,-198.19 554.69,-205.65 582.18,-211.76"/>
<polygon fill="#63b8ff" stroke="#63b8ff" points="493.93,-188.57 483.41,-189.81 492.41,-195.4 493.93,-188.57"/>
</g>
<!-- Node3 -->
<g id="node3" class="node">
<title>Node3</title>
<g id="a_node3"><a xlink:href="structJStudio_1_1object_1_1TObject__ID.html" target="_top" xlink:title=" ">
<polygon fill="white" stroke="#666666" points="292,-189 158,-189 158,-170 292,-170 292,-189"/>
<text text-anchor="middle" x="225" y="-177" font-family="Helvetica,sans-Serif" font-size="10.00">JStudio::object::TObject_ID</text>
</a>
</g>
</g>
<!-- Node3&#45;&gt;Node2 -->
<g id="edge2" class="edge">
<title>Node3&#45;&gt;Node2</title>
<path fill="none" stroke="#63b8ff" d="M303.85,-179.5C330.02,-179.5 358.57,-179.5 382.33,-179.5"/>
<polygon fill="#63b8ff" stroke="#63b8ff" points="303.93,-176 293.93,-179.5 303.93,-183 303.93,-176"/>
</g>
<!-- Node4 -->
<g id="node4" class="node">
<title>Node4</title>
<g id="a_node4"><a xlink:href="structJStudio_1_1object_1_1TIDData.html" target="_top" xlink:title=" ">
<polygon fill="white" stroke="#666666" points="121,-189 0,-189 0,-170 121,-170 121,-189"/>
<text text-anchor="middle" x="60.5" y="-177" font-family="Helvetica,sans-Serif" font-size="10.00">JStudio::object::TIDData</text>
</a>
</g>
</g>
<!-- Node4&#45;&gt;Node3 -->
<g id="edge3" class="edge">
<title>Node4&#45;&gt;Node3</title>
<path fill="none" stroke="#63b8ff" d="M132.37,-179.5C140.74,-179.5 149.26,-179.5 157.56,-179.5"/>
<polygon fill="#63b8ff" stroke="#63b8ff" points="132.6,-176 122.6,-179.5 132.6,-183 132.6,-176"/>
</g>
<!-- Node5 -->
<g id="node5" class="node">
<title>Node5</title>
<g id="a_node5"><a xlink:href="structJGadget_1_1TLinkListNode.html" target="_top" xlink:title=" ">
<polygon fill="white" stroke="#666666" points="286,-241 164,-241 164,-222 286,-222 286,-241"/>
<text text-anchor="middle" x="225" y="-229" font-family="Helvetica,sans-Serif" font-size="10.00">JGadget::TLinkListNode</text>
</a>
</g>
</g>
<!-- Node5&#45;&gt;Node2 -->
<g id="edge4" class="edge">
<title>Node5&#45;&gt;Node2</title>
<path fill="none" stroke="#9a32cd" stroke-dasharray="5,2" d="M276.67,-218.89C313.03,-209.85 361.33,-197.83 394.99,-189.45"/>
<polygon fill="#9a32cd" stroke="#9a32cd" points="276.13,-215.42 267.27,-221.23 277.82,-222.21 276.13,-215.42"/>
<text text-anchor="middle" x="333.5" y="-213.5" font-family="Helvetica,sans-Serif" font-size="10.00"> ocObject_</text>
</g>
<!-- Node5&#45;&gt;Node5 -->
<g id="edge5" class="edge">
<title>Node5&#45;&gt;Node5</title>
<path fill="none" stroke="#9a32cd" stroke-dasharray="5,2" d="M209.99,-252.76C212.01,-256.44 217.02,-259 225,-259 240.03,-259 244.49,-249.94 238.39,-241.37"/>
<polygon fill="#9a32cd" stroke="#9a32cd" points="213.46,-253.26 211.4,-242.87 206.53,-252.27 213.46,-253.26"/>
<text text-anchor="middle" x="225" y="-273" font-family="Helvetica,sans-Serif" font-size="10.00"> mNext</text>
<text text-anchor="middle" x="225" y="-262" font-family="Helvetica,sans-Serif" font-size="10.00">mPrev</text>
</g>
<!-- Node9 -->
<g id="node9" class="node">
<title>Node9</title>
<g id="a_node9"><a xlink:href="structJGadget_1_1TNodeLinkList.html" target="_top" xlink:title=" ">
<polygon fill="white" stroke="#666666" points="497,-262 375,-262 375,-243 497,-243 497,-262"/>
<text text-anchor="middle" x="436" y="-250" font-family="Helvetica,sans-Serif" font-size="10.00">JGadget::TNodeLinkList</text>
</a>
</g>
</g>
<!-- Node5&#45;&gt;Node9 -->
<g id="edge10" class="edge">
<title>Node5&#45;&gt;Node9</title>
<path fill="none" stroke="#9a32cd" stroke-dasharray="5,2" d="M297.74,-238.71C322.8,-241.23 350.65,-244.02 374.68,-246.44"/>
<polygon fill="#9a32cd" stroke="#9a32cd" points="298.26,-235.24 287.96,-237.73 297.56,-242.21 298.26,-235.24"/>
<text text-anchor="middle" x="333.5" y="-247.5" font-family="Helvetica,sans-Serif" font-size="10.00"> ocObject_</text>
</g>
<!-- Node6 -->
<g id="node6" class="node">
<title>Node6</title>
<g id="a_node6"><a xlink:href="classJStudio_1_1stb_1_1TControl.html" target="_top" xlink:title=" ">
<polygon fill="white" stroke="#666666" points="922,-208 813,-208 813,-189 922,-189 922,-208"/>
<text text-anchor="middle" x="867.5" y="-196" font-family="Helvetica,sans-Serif" font-size="10.00">JStudio::stb::TControl</text>
</a>
</g>
</g>
<!-- Node6&#45;&gt;Node2 -->
<g id="edge6" class="edge">
<title>Node6&#45;&gt;Node2</title>
<path fill="none" stroke="#9a32cd" stroke-dasharray="5,2" d="M801.39,-194.32C769.62,-192.37 730.82,-190.13 696,-188.5 624.54,-185.16 541.94,-182.5 489.6,-180.96"/>
<polygon fill="#9a32cd" stroke="#9a32cd" points="801.06,-197.8 811.25,-194.93 801.49,-190.82 801.06,-197.8"/>
<text text-anchor="middle" x="636" y="-191.5" font-family="Helvetica,sans-Serif" font-size="10.00"> pControl</text>
</g>
<!-- Node7 -->
<g id="node7" class="node">
<title>Node7</title>
<g id="a_node7"><a xlink:href="classJStudio_1_1stb_1_1TFactory.html" target="_top" xlink:title=" ">
<polygon fill="white" stroke="#666666" points="691,-143 581,-143 581,-124 691,-124 691,-143"/>
<text text-anchor="middle" x="636" y="-131" font-family="Helvetica,sans-Serif" font-size="10.00">JStudio::stb::TFactory</text>
</a>
</g>
</g>
<!-- Node7&#45;&gt;Node6 -->
<g id="edge7" class="edge">
<title>Node7&#45;&gt;Node6</title>
<path fill="none" stroke="#9a32cd" stroke-dasharray="5,2" d="M702.59,-136.06C731.57,-138.74 765.66,-144.06 795,-154.5 817.52,-162.51 840.53,-178.32 854.16,-188.64"/>
<polygon fill="#9a32cd" stroke="#9a32cd" points="703.1,-132.59 692.85,-135.25 702.52,-139.56 703.1,-132.59"/>
<text text-anchor="middle" x="754.5" y="-157.5" font-family="Helvetica,sans-Serif" font-size="10.00"> pFactory</text>
</g>
<!-- Node8 -->
<g id="node8" class="node">
<title>Node8</title>
<g id="a_node8"><a xlink:href="structJGadget_1_1TLinkList.html" target="_top" xlink:title=" ">
<polygon fill="white" stroke="#666666" points="695,-298 577,-298 577,-257 695,-257 695,-298"/>
<text text-anchor="start" x="585" y="-286" font-family="Helvetica,sans-Serif" font-size="10.00">JGadget::TLinkList</text>
<text text-anchor="start" x="585" y="-275" font-family="Helvetica,sans-Serif" font-size="10.00">&lt; JStudio::stb::TObject,</text>
<text text-anchor="middle" x="636" y="-264" font-family="Helvetica,sans-Serif" font-size="10.00"> &#45;12 &gt;</text>
</a>
</g>
</g>
<!-- Node8&#45;&gt;Node6 -->
<g id="edge8" class="edge">
<title>Node8&#45;&gt;Node6</title>
<path fill="none" stroke="#9a32cd" stroke-dasharray="5,2" d="M706.23,-259.04C734.08,-251.07 766.34,-241.13 795,-230.5 812.6,-223.98 832,-215.19 846.15,-208.47"/>
<polygon fill="#9a32cd" stroke="#9a32cd" points="705.51,-255.61 696.84,-261.7 707.42,-262.35 705.51,-255.61"/>
<text text-anchor="middle" x="754.5" y="-258.5" font-family="Helvetica,sans-Serif" font-size="10.00"> mObjectContainer</text>
</g>
<!-- Node9&#45;&gt;Node8 -->
<g id="edge9" class="edge">
<title>Node9&#45;&gt;Node8</title>
<path fill="none" stroke="#63b8ff" d="M508.6,-261.54C530.93,-264.36 555.27,-267.43 576.59,-270.12"/>
<polygon fill="#63b8ff" stroke="#63b8ff" points="509.34,-258.11 498.98,-260.33 508.47,-265.05 509.34,-258.11"/>
</g>
<!-- Node10&#45;&gt;Node6 -->
<g id="edge11" class="edge">
<title>Node10&#45;&gt;Node6</title>
<path fill="none" stroke="#9a32cd" stroke-dasharray="5,2" d="M701.05,-216.52C736.18,-212.7 779.24,-208 812.63,-204.37"/>
<polygon fill="#9a32cd" stroke="#9a32cd" points="701.01,-213.01 691.44,-217.57 701.76,-219.97 701.01,-213.01"/>
<text text-anchor="middle" x="754.5" y="-218.5" font-family="Helvetica,sans-Serif" font-size="10.00"> mObject_control</text>
</g>
<!-- Node11&#45;&gt;Node1 -->
<g id="edge13" class="edge">
<title>Node11&#45;&gt;Node1</title>
<path fill="none" stroke="#9a32cd" stroke-dasharray="5,2" d="M808.53,-59.81C779.83,-58.77 744.82,-59.42 714,-65.5 693.36,-69.57 671.22,-79.08 656,-86.5"/>
<polygon fill="#9a32cd" stroke="#9a32cd" points="808.34,-63.3 818.49,-60.26 808.66,-56.31 808.34,-63.3"/>
<text text-anchor="middle" x="754.5" y="-68.5" font-family="Helvetica,sans-Serif" font-size="10.00"> mpAdaptor</text>
</g>
<!-- Node12 -->
<g id="node12" class="node">
<title>Node12</title>
<g id="a_node12"><a xlink:href="structJStudio_1_1TVariableValue.html" target="_top" xlink:title=" ">
<polygon fill="white" stroke="#666666" points="696,-40 576,-40 576,-21 696,-21 696,-40"/>
<text text-anchor="middle" x="636" y="-28" font-family="Helvetica,sans-Serif" font-size="10.00">JStudio::TVariableValue</text>
</a>
</g>
</g>
<!-- Node12&#45;&gt;Node11 -->
<g id="edge15" class="edge">
<title>Node12&#45;&gt;Node11</title>
<path fill="none" stroke="#9a32cd" stroke-dasharray="5,2" d="M707.72,-33.97C735.13,-36.05 766.67,-39.33 795,-44.5 808.57,-46.98 823.28,-50.88 835.82,-54.58"/>
<polygon fill="#9a32cd" stroke="#9a32cd" points="707.98,-30.48 697.76,-33.26 707.48,-37.46 707.98,-30.48"/>
<text text-anchor="middle" x="754.5" y="-47.5" font-family="Helvetica,sans-Serif" font-size="10.00"> pValue_</text>
</g>
<!-- Node13 -->
<g id="node13" class="node">
<title>Node13</title>
<g id="a_node13"><a xlink:href="classJStudio_1_1TFunctionValue.html" target="_top" xlink:title=" ">
<polygon fill="white" stroke="#666666" points="497,-19 375,-19 375,0 497,0 497,-19"/>
<text text-anchor="middle" x="436" y="-7" font-family="Helvetica,sans-Serif" font-size="10.00">JStudio::TFunctionValue</text>
</a>
</g>
</g>
<!-- Node13&#45;&gt;Node12 -->
<g id="edge16" class="edge">
<title>Node13&#45;&gt;Node12</title>
<path fill="none" stroke="#9a32cd" stroke-dasharray="5,2" d="M508.49,-14.7C524.78,-16.08 542,-17.7 558,-19.5 563.77,-20.15 569.77,-20.89 575.77,-21.68"/>
<polygon fill="#9a32cd" stroke="#9a32cd" points="509.15,-11.24 498.89,-13.91 508.57,-18.22 509.15,-11.24"/>
<text text-anchor="middle" x="536.5" y="-22.5" font-family="Helvetica,sans-Serif" font-size="10.00"> field_0xc</text>
</g>
<!-- Node14 -->
<g id="node14" class="node">
<title>Node14</title>
<g id="a_node14"><a xlink:href="structJStudio_1_1TVariableValue_1_1TOutput.html" target="_top" xlink:title=" ">
<polygon fill="white" stroke="#666666" points="496,-67.5 376,-67.5 376,-37.5 496,-37.5 496,-67.5"/>
<text text-anchor="start" x="384" y="-55.5" font-family="Helvetica,sans-Serif" font-size="10.00">JStudio::TVariableValue</text>
<text text-anchor="middle" x="436" y="-44.5" font-family="Helvetica,sans-Serif" font-size="10.00">::TOutput</text>
</a>
</g>
</g>
<!-- Node14&#45;&gt;Node12 -->
<g id="edge17" class="edge">
<title>Node14&#45;&gt;Node12</title>
<path fill="none" stroke="#9a32cd" stroke-dasharray="5,2" d="M507.81,-44.63C530.02,-42.16 554.3,-39.47 575.64,-37.1"/>
<polygon fill="#9a32cd" stroke="#9a32cd" points="507.46,-41.15 497.91,-45.73 508.24,-48.11 507.46,-41.15"/>
<text text-anchor="middle" x="536.5" y="-46.5" font-family="Helvetica,sans-Serif" font-size="10.00"> pOutput_</text>
</g>
</g>
</svg>
