<?xml version="1.0" encoding="UTF-8" standalone="no"?>
<!DOCTYPE svg PUBLIC "-//W3C//DTD SVG 1.1//EN"
 "http://www.w3.org/Graphics/SVG/1.1/DTD/svg11.dtd">
<!-- Generated by graphviz version 7.0.5 (20221223.1930)
 -->
<!-- Title: dBgS_MoveBgActor Pages: 1 -->
<!--zoomable 915 -->
<svg id="main" version="1.1" xmlns="http://www.w3.org/2000/svg" xmlns:xlink="http://www.w3.org/1999/xlink" xml:space="preserve" onload="init(evt)">
<style type="text/css"><![CDATA[
.edge:hover path { stroke: red; }
.edge:hover polygon { stroke: red; fill: red; }
]]></style>
<script type="text/javascript"><![CDATA[
var edges = document.getElementsByTagName('g');
if (edges && edges.length) {
  for (var i=0;i<edges.length;i++) {
    if (edges[i].id.substr(0,4)=='edge') {
      edges[i].setAttribute('class','edge');
    }
  }
}
]]></script>
        <defs>
                <circle id="rim" cx="0" cy="0" r="7"/>
                <circle id="rim2" cx="0" cy="0" r="3.5"/>
                <g id="zoomPlus">
                        <use xlink:href="#rim" fill="#404040">
                                <set attributeName="fill" to="#808080" begin="zoomplus.mouseover" end="zoomplus.mouseout"/>
                        </use>
                        <path d="M-4,0h8M0,-4v8" fill="none" stroke="white" stroke-width="1.5" pointer-events="none"/>
                </g>
                <g id="zoomMin">
                        <use xlink:href="#rim" fill="#404040">
                                <set attributeName="fill" to="#808080" begin="zoomminus.mouseover" end="zoomminus.mouseout"/>
                        </use>
                        <path d="M-4,0h8" fill="none" stroke="white" stroke-width="1.5" pointer-events="none"/>
                </g>
                <g id="dirArrow">
                        <path fill="none" stroke="white" stroke-width="1.5" d="M0,-3.0v7 M-2.5,-0.5L0,-3.0L2.5,-0.5"/>
                </g>
               <g id="resetDef">
                       <use xlink:href="#rim2" fill="#404040">
                               <set attributeName="fill" to="#808080" begin="reset.mouseover" end="reset.mouseout"/>
                       </use>
               </g>
        </defs>

<script type="text/javascript">
var viewWidth = 572;
var viewHeight = 915;
var sectionId = 'dynsection-0';
</script>
<script xlink:href="svgpan.js"/>
<svg id="graph" class="graph">
<g id="viewport">
<title>dBgS_MoveBgActor</title>
<!-- Node1 -->
<g id="node1" class="node">
<title>Node1</title>
<g id="a_node1"><a xlink:title=" ">
<polygon fill="#999999" stroke="#666666" points="327,-463 222,-463 222,-444 327,-444 327,-463"/>
<text text-anchor="middle" x="274.5" y="-451" font-family="Helvetica,sans-Serif" font-size="10.00">dBgS_MoveBgActor</text>
</a>
</g>
</g>
<!-- Node4 -->
<g id="node4" class="node">
<title>Node4</title>
<g id="a_node4"><a xlink:href="classdaBgObj__c.html" target="_top" xlink:title=" ">
<polygon fill="white" stroke="#666666" points="448.5,-907 383.5,-907 383.5,-888 448.5,-888 448.5,-907"/>
<text text-anchor="middle" x="416" y="-895" font-family="Helvetica,sans-Serif" font-size="10.00">daBgObj_c</text>
</a>
</g>
</g>
<!-- Node1&#45;&gt;Node4 -->
<g id="edge3" class="edge">
<title>Node1&#45;&gt;Node4</title>
<path fill="none" stroke="#63b8ff" d="M277.09,-474.42C283.36,-551.38 308.64,-817.53 363,-879.5 368.23,-885.46 375.53,-889.45 383.02,-892.12"/>
<polygon fill="#63b8ff" stroke="#63b8ff" points="280.62,-474.59 276.34,-464.9 273.64,-475.14 280.62,-474.59"/>
</g>
<!-- Node5 -->
<g id="node5" class="node">
<title>Node5</title>
<g id="a_node5"><a xlink:href="classdaCowdoor__c.html" target="_top" xlink:title=" ">
<polygon fill="white" stroke="#666666" points="454,-870 378,-870 378,-851 454,-851 454,-870"/>
<text text-anchor="middle" x="416" y="-858" font-family="Helvetica,sans-Serif" font-size="10.00">daCowdoor_c</text>
</a>
</g>
</g>
<!-- Node1&#45;&gt;Node5 -->
<g id="edge4" class="edge">
<title>Node1&#45;&gt;Node5</title>
<path fill="none" stroke="#63b8ff" d="M277.54,-474.43C285.01,-547.04 313.06,-786.63 363,-842.5 367.01,-846.99 372.2,-850.36 377.74,-852.89"/>
<polygon fill="#63b8ff" stroke="#63b8ff" points="281.05,-474.34 276.57,-464.74 274.08,-475.04 281.05,-474.34"/>
</g>
<!-- Node6 -->
<g id="node6" class="node">
<title>Node6</title>
<g id="a_node6"><a xlink:href="classdaCstaF__c.html" target="_top" xlink:title=" ">
<polygon fill="white" stroke="#666666" points="448,-833 384,-833 384,-814 448,-814 448,-833"/>
<text text-anchor="middle" x="416" y="-821" font-family="Helvetica,sans-Serif" font-size="10.00">daCstaF_c</text>
</a>
</g>
</g>
<!-- Node1&#45;&gt;Node6 -->
<g id="edge5" class="edge">
<title>Node1&#45;&gt;Node6</title>
<path fill="none" stroke="#63b8ff" d="M278.1,-474.61C286.88,-542.82 317.5,-755.72 363,-805.5 368.48,-811.49 376.05,-815.49 383.73,-818.16"/>
<polygon fill="#63b8ff" stroke="#63b8ff" points="281.59,-474.3 276.86,-464.81 274.64,-475.17 281.59,-474.3"/>
</g>
<!-- Node7 -->
<g id="node7" class="node">
<title>Node7</title>
<g id="a_node7"><a xlink:href="classdaDoorPush__c.html" target="_top" xlink:title=" ">
<polygon fill="white" stroke="#666666" points="456,-796 376,-796 376,-777 456,-777 456,-796"/>
<text text-anchor="middle" x="416" y="-784" font-family="Helvetica,sans-Serif" font-size="10.00">daDoorPush_c</text>
</a>
</g>
</g>
<!-- Node1&#45;&gt;Node7 -->
<g id="edge6" class="edge">
<title>Node1&#45;&gt;Node7</title>
<path fill="none" stroke="#63b8ff" d="M275.05,-474.74C275.03,-530.58 282.76,-683.1 363,-768.5 366.53,-772.26 370.89,-775.23 375.56,-777.59"/>
<polygon fill="#63b8ff" stroke="#63b8ff" points="278.55,-474.8 275.15,-464.77 271.55,-474.73 278.55,-474.8"/>
</g>
<!-- Node8 -->
<g id="node8" class="node">
<title>Node8</title>
<g id="a_node8"><a xlink:href="classdaDsh__c.html" target="_top" xlink:title=" ">
<polygon fill="white" stroke="#666666" points="443.5,-759 388.5,-759 388.5,-740 443.5,-740 443.5,-759"/>
<text text-anchor="middle" x="416" y="-747" font-family="Helvetica,sans-Serif" font-size="10.00">daDsh_c</text>
</a>
</g>
</g>
<!-- Node1&#45;&gt;Node8 -->
<g id="edge7" class="edge">
<title>Node1&#45;&gt;Node8</title>
<path fill="none" stroke="#63b8ff" d="M275.98,-474.64C278.3,-525.84 291.31,-657.75 363,-731.5 369.66,-738.35 379.05,-742.6 388.02,-745.23"/>
<polygon fill="#63b8ff" stroke="#63b8ff" points="279.49,-474.83 275.65,-464.95 272.5,-475.07 279.49,-474.83"/>
</g>
<!-- Node9 -->
<g id="node9" class="node">
<title>Node9</title>
<g id="a_node9"><a xlink:href="classdaHsTarget__c.html" target="_top" xlink:title=" ">
<polygon fill="white" stroke="#666666" points="455,-722 377,-722 377,-703 455,-703 455,-722"/>
<text text-anchor="middle" x="416" y="-710" font-family="Helvetica,sans-Serif" font-size="10.00">daHsTarget_c</text>
</a>
</g>
</g>
<!-- Node1&#45;&gt;Node9 -->
<g id="edge8" class="edge">
<title>Node1&#45;&gt;Node9</title>
<path fill="none" stroke="#63b8ff" d="M277.18,-474.59C281.98,-520.89 299.81,-632.25 363,-694.5 366.88,-698.32 371.61,-701.33 376.62,-703.71"/>
<polygon fill="#63b8ff" stroke="#63b8ff" points="280.68,-474.5 276.28,-464.86 273.71,-475.14 280.68,-474.5"/>
</g>
<!-- Node10 -->
<g id="node10" class="node">
<title>Node10</title>
<g id="a_node10"><a xlink:href="classdaIzumiGate__c.html" target="_top" xlink:title=" ">
<polygon fill="white" stroke="#666666" points="457,-685 375,-685 375,-666 457,-666 457,-685"/>
<text text-anchor="middle" x="416" y="-673" font-family="Helvetica,sans-Serif" font-size="10.00">daIzumiGate_c</text>
</a>
</g>
</g>
<!-- Node1&#45;&gt;Node10 -->
<g id="edge9" class="edge">
<title>Node1&#45;&gt;Node10</title>
<path fill="none" stroke="#63b8ff" d="M278.73,-474.37C286.14,-515.28 308.15,-606.46 363,-657.5 366.5,-660.75 370.61,-663.42 374.97,-665.61"/>
<polygon fill="#63b8ff" stroke="#63b8ff" points="282.21,-473.95 277.1,-464.67 275.31,-475.11 282.21,-473.95"/>
</g>
<!-- Node11 -->
<g id="node11" class="node">
<title>Node11</title>
<g id="a_node11"><a xlink:href="classdaLv1Cdl01__c.html" target="_top" xlink:title=" ">
<polygon fill="white" stroke="#666666" points="455.5,-648 376.5,-648 376.5,-629 455.5,-629 455.5,-648"/>
<text text-anchor="middle" x="416" y="-636" font-family="Helvetica,sans-Serif" font-size="10.00">daLv1Cdl01_c</text>
</a>
</g>
</g>
<!-- Node1&#45;&gt;Node11 -->
<g id="edge10" class="edge">
<title>Node1&#45;&gt;Node11</title>
<path fill="none" stroke="#63b8ff" d="M280.89,-474.17C291.07,-509.22 316.4,-580.39 363,-620.5 366.84,-623.8 371.31,-626.51 376,-628.73"/>
<polygon fill="#63b8ff" stroke="#63b8ff" points="284.35,-473.56 278.32,-464.85 277.61,-475.42 284.35,-473.56"/>
</g>
<!-- Node12 -->
<g id="node12" class="node">
<title>Node12</title>
<g id="a_node12"><a xlink:href="classdaLv4Gate__c.html" target="_top" xlink:title=" ">
<polygon fill="white" stroke="#666666" points="453.5,-611 378.5,-611 378.5,-592 453.5,-592 453.5,-611"/>
<text text-anchor="middle" x="416" y="-599" font-family="Helvetica,sans-Serif" font-size="10.00">daLv4Gate_c</text>
</a>
</g>
</g>
<!-- Node1&#45;&gt;Node12 -->
<g id="edge11" class="edge">
<title>Node1&#45;&gt;Node12</title>
<path fill="none" stroke="#63b8ff" d="M283.95,-473.51C296.91,-501.91 324.34,-553.75 363,-583.5 367.54,-587 372.81,-589.84 378.22,-592.15"/>
<polygon fill="#63b8ff" stroke="#63b8ff" points="287.26,-472.35 280.03,-464.61 280.85,-475.17 287.26,-472.35"/>
</g>
<!-- Node13 -->
<g id="node13" class="node">
<title>Node13</title>
<g id="a_node13"><a xlink:href="classdaLv4HsTarget__c.html" target="_top" xlink:title=" ">
<polygon fill="white" stroke="#666666" points="463.5,-574 368.5,-574 368.5,-555 463.5,-555 463.5,-574"/>
<text text-anchor="middle" x="416" y="-562" font-family="Helvetica,sans-Serif" font-size="10.00">daLv4HsTarget_c</text>
</a>
</g>
</g>
<!-- Node1&#45;&gt;Node13 -->
<g id="edge12" class="edge">
<title>Node1&#45;&gt;Node13</title>
<path fill="none" stroke="#63b8ff" d="M288.93,-472.54C304.54,-493.39 332.13,-526.52 363,-546.5 367.89,-549.67 373.4,-552.35 378.97,-554.59"/>
<polygon fill="#63b8ff" stroke="#63b8ff" points="291.87,-470.64 283.16,-464.62 286.22,-474.77 291.87,-470.64"/>
</g>
<!-- Node14 -->
<g id="node14" class="node">
<title>Node14</title>
<g id="a_node14"><a xlink:href="classdaLv4PoGate__c.html" target="_top" xlink:title=" ">
<polygon fill="white" stroke="#666666" points="459.5,-537 372.5,-537 372.5,-518 459.5,-518 459.5,-537"/>
<text text-anchor="middle" x="416" y="-525" font-family="Helvetica,sans-Serif" font-size="10.00">daLv4PoGate_c</text>
</a>
</g>
</g>
<!-- Node1&#45;&gt;Node14 -->
<g id="edge13" class="edge">
<title>Node1&#45;&gt;Node14</title>
<path fill="none" stroke="#63b8ff" d="M298.05,-470.04C315.23,-482.11 339.8,-498.26 363,-509.5 369.1,-512.46 375.82,-515.16 382.34,-517.52"/>
<polygon fill="#63b8ff" stroke="#63b8ff" points="300.26,-467.32 290.09,-464.35 296.19,-473.01 300.26,-467.32"/>
</g>
<!-- Node15 -->
<g id="node15" class="node">
<title>Node15</title>
<g id="a_node15"><a xlink:href="classdaObjBBox__c.html" target="_top" xlink:title=" ">
<polygon fill="white" stroke="#666666" points="454,-500 378,-500 378,-481 454,-481 454,-500"/>
<text text-anchor="middle" x="416" y="-488" font-family="Helvetica,sans-Serif" font-size="10.00">daObjBBox_c</text>
</a>
</g>
</g>
<!-- Node1&#45;&gt;Node15 -->
<g id="edge14" class="edge">
<title>Node1&#45;&gt;Node15</title>
<path fill="none" stroke="#63b8ff" d="M323.81,-466.31C341.4,-470.98 361,-476.18 377.51,-480.56"/>
<polygon fill="#63b8ff" stroke="#63b8ff" points="324.91,-462.98 314.35,-463.8 323.11,-469.75 324.91,-462.98"/>
</g>
<!-- Node16 -->
<g id="node16" class="node">
<title>Node16</title>
<g id="a_node16"><a xlink:href="classdaObjBoard__c.html" target="_top" xlink:title=" ">
<polygon fill="white" stroke="#666666" points="455,-463 377,-463 377,-444 455,-444 455,-463"/>
<text text-anchor="middle" x="416" y="-451" font-family="Helvetica,sans-Serif" font-size="10.00">daObjBoard_c</text>
</a>
</g>
</g>
<!-- Node1&#45;&gt;Node16 -->
<g id="edge15" class="edge">
<title>Node1&#45;&gt;Node16</title>
<path fill="none" stroke="#63b8ff" d="M338.67,-453.5C351.58,-453.5 364.8,-453.5 376.53,-453.5"/>
<polygon fill="#63b8ff" stroke="#63b8ff" points="338.96,-450 328.96,-453.5 338.96,-457 338.96,-450"/>
</g>
<!-- Node17 -->
<g id="node17" class="node">
<title>Node17</title>
<g id="a_node17"><a xlink:href="classdaObjGake__c.html" target="_top" xlink:title=" ">
<polygon fill="white" stroke="#666666" points="454,-426 378,-426 378,-407 454,-407 454,-426"/>
<text text-anchor="middle" x="416" y="-414" font-family="Helvetica,sans-Serif" font-size="10.00">daObjGake_c</text>
</a>
</g>
</g>
<!-- Node1&#45;&gt;Node17 -->
<g id="edge16" class="edge">
<title>Node1&#45;&gt;Node17</title>
<path fill="none" stroke="#63b8ff" d="M323.81,-440.69C341.4,-436.02 361,-430.82 377.51,-426.44"/>
<polygon fill="#63b8ff" stroke="#63b8ff" points="323.11,-437.25 314.35,-443.2 324.91,-444.02 323.11,-437.25"/>
</g>
<!-- Node18 -->
<g id="node18" class="node">
<title>Node18</title>
<g id="a_node18"><a xlink:href="classdaObjHBombkoya__c.html" target="_top" xlink:title=" ">
<polygon fill="white" stroke="#666666" points="469,-389 363,-389 363,-370 469,-370 469,-389"/>
<text text-anchor="middle" x="416" y="-377" font-family="Helvetica,sans-Serif" font-size="10.00">daObjHBombkoya_c</text>
</a>
</g>
</g>
<!-- Node1&#45;&gt;Node18 -->
<g id="edge17" class="edge">
<title>Node1&#45;&gt;Node18</title>
<path fill="none" stroke="#63b8ff" d="M298.05,-436.96C315.23,-424.89 339.8,-408.74 363,-397.5 369.1,-394.54 375.82,-391.84 382.34,-389.48"/>
<polygon fill="#63b8ff" stroke="#63b8ff" points="296.19,-433.99 290.09,-442.65 300.26,-439.68 296.19,-433.99"/>
</g>
<!-- Node19 -->
<g id="node19" class="node">
<title>Node19</title>
<g id="a_node19"><a xlink:href="classdaObjKJgjs__c.html" target="_top" xlink:title=" ">
<polygon fill="white" stroke="#666666" points="454.5,-352 377.5,-352 377.5,-333 454.5,-333 454.5,-352"/>
<text text-anchor="middle" x="416" y="-340" font-family="Helvetica,sans-Serif" font-size="10.00">daObjKJgjs_c</text>
</a>
</g>
</g>
<!-- Node1&#45;&gt;Node19 -->
<g id="edge18" class="edge">
<title>Node1&#45;&gt;Node19</title>
<path fill="none" stroke="#63b8ff" d="M288.93,-434.46C304.54,-413.61 332.13,-380.48 363,-360.5 367.89,-357.33 373.4,-354.65 378.97,-352.41"/>
<polygon fill="#63b8ff" stroke="#63b8ff" points="286.22,-432.23 283.16,-442.38 291.87,-436.36 286.22,-432.23"/>
</g>
<!-- Node20 -->
<g id="node20" class="node">
<title>Node20</title>
<g id="a_node20"><a xlink:href="classdaObjKKanban__c.html" target="_top" xlink:title=" ">
<polygon fill="white" stroke="#666666" points="462,-315 370,-315 370,-296 462,-296 462,-315"/>
<text text-anchor="middle" x="416" y="-303" font-family="Helvetica,sans-Serif" font-size="10.00">daObjKKanban_c</text>
</a>
</g>
</g>
<!-- Node1&#45;&gt;Node20 -->
<g id="edge19" class="edge">
<title>Node1&#45;&gt;Node20</title>
<path fill="none" stroke="#63b8ff" d="M283.95,-433.49C296.91,-405.09 324.34,-353.25 363,-323.5 367.16,-320.3 371.94,-317.64 376.87,-315.44"/>
<polygon fill="#63b8ff" stroke="#63b8ff" points="280.85,-431.83 280.03,-442.39 287.26,-434.65 280.85,-431.83"/>
</g>
<!-- Node21 -->
<g id="node21" class="node">
<title>Node21</title>
<g id="a_node21"><a xlink:href="classdaObjLv3saka__c.html" target="_top" xlink:title=" ">
<polygon fill="white" stroke="#666666" points="461,-278 371,-278 371,-259 461,-259 461,-278"/>
<text text-anchor="middle" x="416" y="-266" font-family="Helvetica,sans-Serif" font-size="10.00">daObjLv3saka_c</text>
</a>
</g>
</g>
<!-- Node1&#45;&gt;Node21 -->
<g id="edge20" class="edge">
<title>Node1&#45;&gt;Node21</title>
<path fill="none" stroke="#63b8ff" d="M280.89,-432.83C291.07,-397.78 316.4,-326.61 363,-286.5 366.77,-283.26 371.15,-280.59 375.74,-278.4"/>
<polygon fill="#63b8ff" stroke="#63b8ff" points="277.61,-431.58 278.32,-442.15 284.35,-433.44 277.61,-431.58"/>
</g>
<!-- Node22 -->
<g id="node22" class="node">
<title>Node22</title>
<g id="a_node22"><a xlink:href="classdaObjLv4Floor__c.html" target="_top" xlink:title=" ">
<polygon fill="white" stroke="#666666" points="461.5,-241 370.5,-241 370.5,-222 461.5,-222 461.5,-241"/>
<text text-anchor="middle" x="416" y="-229" font-family="Helvetica,sans-Serif" font-size="10.00">daObjLv4Floor_c</text>
</a>
</g>
</g>
<!-- Node1&#45;&gt;Node22 -->
<g id="edge21" class="edge">
<title>Node1&#45;&gt;Node22</title>
<path fill="none" stroke="#63b8ff" d="M278.73,-432.63C286.14,-391.72 308.15,-300.54 363,-249.5 366.5,-246.25 370.61,-243.58 374.97,-241.39"/>
<polygon fill="#63b8ff" stroke="#63b8ff" points="275.31,-431.89 277.1,-442.33 282.21,-433.05 275.31,-431.89"/>
</g>
<!-- Node23 -->
<g id="node23" class="node">
<title>Node23</title>
<g id="a_node23"><a xlink:href="classdaObjMGate__c.html" target="_top" xlink:title=" ">
<polygon fill="white" stroke="#666666" points="457,-204 375,-204 375,-185 457,-185 457,-204"/>
<text text-anchor="middle" x="416" y="-192" font-family="Helvetica,sans-Serif" font-size="10.00">daObjMGate_c</text>
</a>
</g>
</g>
<!-- Node1&#45;&gt;Node23 -->
<g id="edge22" class="edge">
<title>Node1&#45;&gt;Node23</title>
<path fill="none" stroke="#63b8ff" d="M277.18,-432.41C281.98,-386.11 299.81,-274.75 363,-212.5 366.33,-209.21 370.3,-206.53 374.53,-204.33"/>
<polygon fill="#63b8ff" stroke="#63b8ff" points="273.71,-431.86 276.28,-442.14 280.68,-432.5 273.71,-431.86"/>
</g>
<!-- Node24 -->
<g id="node24" class="node">
<title>Node24</title>
<g id="a_node24"><a xlink:href="classdaObjOnsen__c.html" target="_top" xlink:title=" ">
<polygon fill="white" stroke="#666666" points="456.5,-167 375.5,-167 375.5,-148 456.5,-148 456.5,-167"/>
<text text-anchor="middle" x="416" y="-155" font-family="Helvetica,sans-Serif" font-size="10.00">daObjOnsen_c</text>
</a>
</g>
</g>
<!-- Node1&#45;&gt;Node24 -->
<g id="edge23" class="edge">
<title>Node1&#45;&gt;Node24</title>
<path fill="none" stroke="#63b8ff" d="M275.98,-432.36C278.3,-381.16 291.31,-249.25 363,-175.5 366.46,-171.94 370.66,-169.08 375.16,-166.79"/>
<polygon fill="#63b8ff" stroke="#63b8ff" points="272.5,-431.93 275.65,-442.05 279.49,-432.17 272.5,-431.93"/>
</g>
<!-- Node25 -->
<g id="node25" class="node">
<title>Node25</title>
<g id="a_node25"><a xlink:href="classdaObjSwHang__c.html" target="_top" xlink:title=" ">
<polygon fill="white" stroke="#666666" points="461,-130 371,-130 371,-111 461,-111 461,-130"/>
<text text-anchor="middle" x="416" y="-118" font-family="Helvetica,sans-Serif" font-size="10.00">daObjSwHang_c</text>
</a>
</g>
</g>
<!-- Node1&#45;&gt;Node25 -->
<g id="edge24" class="edge">
<title>Node1&#45;&gt;Node25</title>
<path fill="none" stroke="#63b8ff" d="M275.05,-432.26C275.03,-376.42 282.76,-223.9 363,-138.5 366.01,-135.3 369.62,-132.66 373.51,-130.5"/>
<polygon fill="#63b8ff" stroke="#63b8ff" points="271.55,-432.27 275.15,-442.23 278.55,-432.2 271.55,-432.27"/>
</g>
<!-- Node26 -->
<g id="node26" class="node">
<title>Node26</title>
<g id="a_node26"><a xlink:href="classdaObjSwSpinner__c.html" target="_top" xlink:title=" ">
<polygon fill="white" stroke="#666666" points="466,-93 366,-93 366,-74 466,-74 466,-93"/>
<text text-anchor="middle" x="416" y="-81" font-family="Helvetica,sans-Serif" font-size="10.00">daObjSwSpinner_c</text>
</a>
</g>
</g>
<!-- Node1&#45;&gt;Node26 -->
<g id="edge25" class="edge">
<title>Node1&#45;&gt;Node26</title>
<path fill="none" stroke="#63b8ff" d="M278.1,-432.39C286.88,-364.18 317.5,-151.28 363,-101.5 365.97,-98.26 369.54,-95.6 373.42,-93.42"/>
<polygon fill="#63b8ff" stroke="#63b8ff" points="274.64,-431.83 276.86,-442.19 281.59,-432.7 274.64,-431.83"/>
</g>
<!-- Node27 -->
<g id="node27" class="node">
<title>Node27</title>
<g id="a_node27"><a xlink:href="classdaTagHjump__c.html" target="_top" xlink:title=" ">
<polygon fill="white" stroke="#666666" points="457.5,-56 374.5,-56 374.5,-37 457.5,-37 457.5,-56"/>
<text text-anchor="middle" x="416" y="-44" font-family="Helvetica,sans-Serif" font-size="10.00">daTagHjump_c</text>
</a>
</g>
</g>
<!-- Node1&#45;&gt;Node27 -->
<g id="edge26" class="edge">
<title>Node1&#45;&gt;Node27</title>
<path fill="none" stroke="#63b8ff" d="M277.54,-432.57C285.01,-359.96 313.06,-120.37 363,-64.5 366.12,-61.01 369.95,-58.2 374.11,-55.93"/>
<polygon fill="#63b8ff" stroke="#63b8ff" points="274.08,-431.96 276.57,-442.26 281.05,-432.66 274.08,-431.96"/>
</g>
<!-- Node28 -->
<g id="node28" class="node">
<title>Node28</title>
<g id="a_node28"><a xlink:href="classdaTboxBase__c.html" target="_top" xlink:title=" ">
<polygon fill="white" stroke="#666666" points="456.5,-19 375.5,-19 375.5,0 456.5,0 456.5,-19"/>
<text text-anchor="middle" x="416" y="-7" font-family="Helvetica,sans-Serif" font-size="10.00">daTboxBase_c</text>
</a>
</g>
</g>
<!-- Node1&#45;&gt;Node28 -->
<g id="edge27" class="edge">
<title>Node1&#45;&gt;Node28</title>
<path fill="none" stroke="#63b8ff" d="M277.09,-432.58C283.36,-355.62 308.64,-89.47 363,-27.5 366.34,-23.69 370.52,-20.69 375.06,-18.32"/>
<polygon fill="#63b8ff" stroke="#63b8ff" points="273.64,-431.86 276.34,-442.1 280.62,-432.41 273.64,-431.86"/>
</g>
<!-- Node2 -->
<g id="node2" class="node">
<title>Node2</title>
<g id="a_node2"><a xlink:href="structfopAc__ac__c.html" target="_top" xlink:title=" ">
<polygon fill="white" stroke="#666666" points="186,-463 118,-463 118,-444 186,-444 186,-463"/>
<text text-anchor="middle" x="152" y="-451" font-family="Helvetica,sans-Serif" font-size="10.00">fopAc_ac_c</text>
</a>
</g>
</g>
<!-- Node2&#45;&gt;Node1 -->
<g id="edge1" class="edge">
<title>Node2&#45;&gt;Node1</title>
<path fill="none" stroke="#63b8ff" d="M197.5,-453.5C205.42,-453.5 213.73,-453.5 221.83,-453.5"/>
<polygon fill="#63b8ff" stroke="#63b8ff" points="197.76,-450 187.76,-453.5 197.76,-457 197.76,-450"/>
</g>
<!-- Node3 -->
<g id="node3" class="node">
<title>Node3</title>
<g id="a_node3"><a xlink:href="structleafdraw__class.html" target="_top" xlink:title=" ">
<polygon fill="white" stroke="#666666" points="82,-463 0,-463 0,-444 82,-444 82,-463"/>
<text text-anchor="middle" x="41" y="-451" font-family="Helvetica,sans-Serif" font-size="10.00">leafdraw_class</text>
</a>
</g>
</g>
<!-- Node3&#45;&gt;Node2 -->
<g id="edge2" class="edge">
<title>Node3&#45;&gt;Node2</title>
<path fill="none" stroke="#63b8ff" d="M93.68,-453.5C101.83,-453.5 110.07,-453.5 117.67,-453.5"/>
<polygon fill="#63b8ff" stroke="#63b8ff" points="93.79,-450 83.79,-453.5 93.79,-457 93.79,-450"/>
</g>
<!-- Node29 -->
<g id="node29" class="node">
<title>Node29</title>
<g id="a_node29"><a xlink:href="classdaTbox__c.html" target="_top" xlink:title=" ">
<polygon fill="white" stroke="#666666" points="564,-19 505,-19 505,0 564,0 564,-19"/>
<text text-anchor="middle" x="534.5" y="-7" font-family="Helvetica,sans-Serif" font-size="10.00">daTbox_c</text>
</a>
</g>
</g>
<!-- Node28&#45;&gt;Node29 -->
<g id="edge28" class="edge">
<title>Node28&#45;&gt;Node29</title>
<path fill="none" stroke="#63b8ff" d="M468.06,-9.5C480.57,-9.5 493.52,-9.5 504.57,-9.5"/>
<polygon fill="#63b8ff" stroke="#63b8ff" points="468.28,-6 458.28,-9.5 468.28,-13 468.28,-6"/>
</g>
</g>
</svg>
        <g id="navigator" transform="translate(0 0)" fill="#404254">
                <rect fill="#f2f5e9" fill-opacity="0.5" stroke="#606060" stroke-width=".5" x="0" y="0" width="60" height="60"/>
                <use id="zoomplus" xlink:href="#zoomPlus" x="17" y="9" onmousedown="handleZoom(evt,'in')"/>
                <use id="zoomminus" xlink:href="#zoomMin" x="42" y="9" onmousedown="handleZoom(evt,'out')"/>
                <use id="reset" xlink:href="#resetDef" x="30" y="36" onmousedown="handleReset()"/>
                <g id="arrowUp" xlink:href="#dirArrow" transform="translate(30 24)" onmousedown="handlePan(0,-1)">
                  <use xlink:href="#rim" fill="#404040">
                        <set attributeName="fill" to="#808080" begin="arrowUp.mouseover" end="arrowUp.mouseout"/>
                  </use>
                  <path fill="none" stroke="white" stroke-width="1.5" d="M0,-3.0v7 M-2.5,-0.5L0,-3.0L2.5,-0.5"/>
                </g>
                <g id="arrowRight" xlink:href="#dirArrow" transform="rotate(90) translate(36 -43)" onmousedown="handlePan(1,0)">
                  <use xlink:href="#rim" fill="#404040">
                        <set attributeName="fill" to="#808080" begin="arrowRight.mouseover" end="arrowRight.mouseout"/>
                  </use>
                  <path fill="none" stroke="white" stroke-width="1.5" d="M0,-3.0v7 M-2.5,-0.5L0,-3.0L2.5,-0.5"/>
                </g>
                <g id="arrowDown" xlink:href="#dirArrow" transform="rotate(180) translate(-30 -48)" onmousedown="handlePan(0,1)">
                  <use xlink:href="#rim" fill="#404040">
                        <set attributeName="fill" to="#808080" begin="arrowDown.mouseover" end="arrowDown.mouseout"/>
                  </use>
                  <path fill="none" stroke="white" stroke-width="1.5" d="M0,-3.0v7 M-2.5,-0.5L0,-3.0L2.5,-0.5"/>
                </g>
                <g id="arrowLeft" xlink:href="#dirArrow" transform="rotate(270) translate(-36 17)" onmousedown="handlePan(-1,0)">
                  <use xlink:href="#rim" fill="#404040">
                        <set attributeName="fill" to="#808080" begin="arrowLeft.mouseover" end="arrowLeft.mouseout"/>
                  </use>
                  <path fill="none" stroke="white" stroke-width="1.5" d="M0,-3.0v7 M-2.5,-0.5L0,-3.0L2.5,-0.5"/>
                </g>
        </g>
        <svg viewBox="0 0 15 15" width="100%" height="30px" preserveAspectRatio="xMaxYMin meet">
         <g id="arrow_out" transform="scale(0.3 0.3)">
          <a xlink:href="classdBgS__MoveBgActor__inherit__graph_org.svg" target="_base">
           <rect id="button" ry="5" rx="5" y="6" x="6" height="38" width="38"
                fill="#f2f5e9" fill-opacity="0.5" stroke="#606060" stroke-width="1.0"/>
           <path id="arrow"
             d="M 11.500037,31.436501 C 11.940474,20.09759 22.043105,11.32322 32.158766,21.979434 L 37.068811,17.246167 C 37.068811,17.246167 37.088388,32 37.088388,32 L 22.160133,31.978069 C 22.160133,31.978069 26.997745,27.140456 26.997745,27.140456 C 18.528582,18.264221 13.291696,25.230495 11.500037,31.436501 z"
             style="fill:#404040;"/>
          </a>
         </g>
        </svg>
</svg>
