<?xml version="1.0" encoding="UTF-8" standalone="no"?>
<!DOCTYPE svg PUBLIC "-//W3C//DTD SVG 1.1//EN"
 "http://www.w3.org/Graphics/SVG/1.1/DTD/svg11.dtd">
<!-- Generated by graphviz version 7.0.5 (20221223.1930)
 -->
<!-- Title: JAUSeqDataBlocks Pages: 1 -->
<svg width="295pt" height="163pt"
 viewBox="0.00 0.00 294.50 163.00" xmlns="http://www.w3.org/2000/svg" xmlns:xlink="http://www.w3.org/1999/xlink">
<g id="graph0" class="graph" transform="scale(1 1) rotate(0) translate(4 159)">
<title>JAUSeqDataBlocks</title>
<!-- Node1 -->
<g id="node1" class="node">
<title>Node1</title>
<g id="a_node1"><a xlink:title=" ">
<polygon fill="#999999" stroke="#666666" points="127.5,-19 23.5,-19 23.5,0 127.5,0 127.5,-19"/>
<text text-anchor="middle" x="75.5" y="-7" font-family="Helvetica,sans-Serif" font-size="10.00">JAUSeqDataBlocks</text>
</a>
</g>
</g>
<!-- Node2 -->
<g id="node2" class="node">
<title>Node2</title>
<g id="a_node2"><a xlink:href="classJSUList.html" target="_top" xlink:title=" ">
<polygon fill="white" stroke="#666666" points="151,-76.5 0,-76.5 0,-57.5 151,-57.5 151,-76.5"/>
<text text-anchor="middle" x="75.5" y="-64.5" font-family="Helvetica,sans-Serif" font-size="10.00">JSUList&lt; JAUSeqDataBlock &gt;</text>
</a>
</g>
</g>
<!-- Node2&#45;&gt;Node1 -->
<g id="edge1" class="edge">
<title>Node2&#45;&gt;Node1</title>
<path fill="none" stroke="#63b8ff" d="M75.5,-45.76C75.5,-36.63 75.5,-26.31 75.5,-19.21"/>
<polygon fill="#63b8ff" stroke="#63b8ff" points="72,-45.57 75.5,-55.57 79,-45.57 72,-45.57"/>
</g>
<!-- Node3 -->
<g id="node3" class="node">
<title>Node3</title>
<g id="a_node3"><a xlink:href="classJSUPtrList.html" target="_top" xlink:title=" ">
<polygon fill="white" stroke="#666666" points="185,-155 120,-155 120,-136 185,-136 185,-155"/>
<text text-anchor="middle" x="152.5" y="-143" font-family="Helvetica,sans-Serif" font-size="10.00">JSUPtrList</text>
</a>
</g>
</g>
<!-- Node3&#45;&gt;Node2 -->
<g id="edge2" class="edge">
<title>Node3&#45;&gt;Node2</title>
<path fill="none" stroke="#63b8ff" d="M135.72,-127.83C119.87,-112.08 96.7,-89.07 84.23,-76.67"/>
<polygon fill="#63b8ff" stroke="#63b8ff" points="133.03,-130.09 142.59,-134.66 137.97,-125.13 133.03,-130.09"/>
</g>
<!-- Node4 -->
<g id="node4" class="node">
<title>Node4</title>
<g id="a_node4"><a xlink:href="classJSUPtrLink.html" target="_top" xlink:title=" ">
<polygon fill="white" stroke="#666666" points="237.5,-76.5 169.5,-76.5 169.5,-57.5 237.5,-57.5 237.5,-76.5"/>
<text text-anchor="middle" x="203.5" y="-64.5" font-family="Helvetica,sans-Serif" font-size="10.00">JSUPtrLink</text>
</a>
</g>
</g>
<!-- Node3&#45;&gt;Node4 -->
<g id="edge4" class="edge">
<title>Node3&#45;&gt;Node4</title>
<path fill="none" stroke="#9a32cd" stroke-dasharray="5,2" d="M146.26,-124.55C144.56,-115.25 144.38,-104.42 149.5,-96 154.77,-87.34 163.68,-81.23 172.76,-76.99"/>
<polygon fill="#9a32cd" stroke="#9a32cd" points="142.83,-125.25 148.7,-134.07 149.61,-123.52 142.83,-125.25"/>
<text text-anchor="middle" x="163.5" y="-104.5" font-family="Helvetica,sans-Serif" font-size="10.00"> mList</text>
</g>
<!-- Node4&#45;&gt;Node3 -->
<g id="edge3" class="edge">
<title>Node4&#45;&gt;Node3</title>
<path fill="none" stroke="#9a32cd" stroke-dasharray="5,2" d="M197.17,-87.3C193.46,-97.02 188.18,-108.69 181.5,-118 176.73,-124.65 170.06,-130.89 164.32,-135.64"/>
<polygon fill="#9a32cd" stroke="#9a32cd" points="200.38,-88.72 200.4,-78.13 193.78,-86.4 200.38,-88.72"/>
<text text-anchor="middle" x="209.5" y="-110" font-family="Helvetica,sans-Serif" font-size="10.00"> mHead</text>
<text text-anchor="middle" x="209.5" y="-99" font-family="Helvetica,sans-Serif" font-size="10.00">mTail</text>
</g>
<!-- Node4&#45;&gt;Node4 -->
<g id="edge5" class="edge">
<title>Node4&#45;&gt;Node4</title>
<path fill="none" stroke="#9a32cd" stroke-dasharray="5,2" d="M248.69,-71.42C252.87,-70.5 255.5,-69.03 255.5,-67 255.5,-63.49 247.63,-61.65 237.51,-61.48"/>
<polygon fill="#9a32cd" stroke="#9a32cd" points="248.62,-67.91 239.01,-72.37 249.31,-74.87 248.62,-67.91"/>
<text text-anchor="middle" x="271" y="-70" font-family="Helvetica,sans-Serif" font-size="10.00"> mNext</text>
<text text-anchor="middle" x="271" y="-59" font-family="Helvetica,sans-Serif" font-size="10.00">mPrev</text>
</g>
</g>
</svg>
