<?xml version="1.0" encoding="UTF-8" standalone="no"?>
<!DOCTYPE svg PUBLIC "-//W3C//DTD SVG 1.1//EN"
 "http://www.w3.org/Graphics/SVG/1.1/DTD/svg11.dtd">
<!-- Generated by graphviz version 7.0.5 (20221223.1930)
 -->
<!-- Title: Z2CreatureOI Pages: 1 -->
<svg width="240pt" height="192pt"
 viewBox="0.00 0.00 240.00 192.00" xmlns="http://www.w3.org/2000/svg" xmlns:xlink="http://www.w3.org/1999/xlink">
<g id="graph0" class="graph" transform="scale(1 1) rotate(0) translate(4 188)">
<title>Z2CreatureOI</title>
<!-- Node1 -->
<g id="node1" class="node">
<title>Node1</title>
<g id="a_node1"><a xlink:title=" ">
<polygon fill="#999999" stroke="#666666" points="132,-19 57,-19 57,0 132,0 132,-19"/>
<text text-anchor="middle" x="94.5" y="-7" font-family="Helvetica,sans-Serif" font-size="10.00">Z2CreatureOI</text>
</a>
</g>
</g>
<!-- Node2 -->
<g id="node2" class="node">
<title>Node2</title>
<g id="a_node2"><a xlink:href="classZ2CreatureEnemy.html" target="_top" xlink:title=" ">
<polygon fill="white" stroke="#666666" points="141.5,-74 47.5,-74 47.5,-55 141.5,-55 141.5,-74"/>
<text text-anchor="middle" x="94.5" y="-62" font-family="Helvetica,sans-Serif" font-size="10.00">Z2CreatureEnemy</text>
</a>
</g>
</g>
<!-- Node2&#45;&gt;Node1 -->
<g id="edge1" class="edge">
<title>Node2&#45;&gt;Node1</title>
<path fill="none" stroke="#63b8ff" d="M94.5,-43.35C94.5,-35.1 94.5,-25.97 94.5,-19.44"/>
<polygon fill="#63b8ff" stroke="#63b8ff" points="91,-43.23 94.5,-53.23 98,-43.23 91,-43.23"/>
</g>
<!-- Node3 -->
<g id="node3" class="node">
<title>Node3</title>
<g id="a_node3"><a xlink:href="classZ2Creature.html" target="_top" xlink:title=" ">
<polygon fill="white" stroke="#666666" points="65,-129 0,-129 0,-110 65,-110 65,-129"/>
<text text-anchor="middle" x="32.5" y="-117" font-family="Helvetica,sans-Serif" font-size="10.00">Z2Creature</text>
</a>
</g>
</g>
<!-- Node3&#45;&gt;Node2 -->
<g id="edge2" class="edge">
<title>Node3&#45;&gt;Node2</title>
<path fill="none" stroke="#63b8ff" d="M51.7,-102.09C62.4,-92.94 75.31,-81.9 84.14,-74.36"/>
<polygon fill="#63b8ff" stroke="#63b8ff" points="49.49,-99.37 44.17,-108.53 54.04,-104.69 49.49,-99.37"/>
</g>
<!-- Node4 -->
<g id="node4" class="node">
<title>Node4</title>
<g id="a_node4"><a xlink:href="classJSULink.html" target="_top" xlink:title=" ">
<polygon fill="white" stroke="#666666" points="232,-129 83,-129 83,-110 232,-110 232,-129"/>
<text text-anchor="middle" x="157.5" y="-117" font-family="Helvetica,sans-Serif" font-size="10.00">JSULink&lt; Z2CreatureEnemy &gt;</text>
</a>
</g>
</g>
<!-- Node4&#45;&gt;Node2 -->
<g id="edge3" class="edge">
<title>Node4&#45;&gt;Node2</title>
<path fill="none" stroke="#63b8ff" d="M138.32,-102.37C127.38,-93.16 114.09,-81.98 105.03,-74.36"/>
<polygon fill="#63b8ff" stroke="#63b8ff" points="135.75,-104.78 145.65,-108.53 140.26,-99.42 135.75,-104.78"/>
</g>
<!-- Node5 -->
<g id="node5" class="node">
<title>Node5</title>
<g id="a_node5"><a xlink:href="classJSUPtrLink.html" target="_top" xlink:title=" ">
<polygon fill="white" stroke="#666666" points="191.5,-184 123.5,-184 123.5,-165 191.5,-165 191.5,-184"/>
<text text-anchor="middle" x="157.5" y="-172" font-family="Helvetica,sans-Serif" font-size="10.00">JSUPtrLink</text>
</a>
</g>
</g>
<!-- Node5&#45;&gt;Node4 -->
<g id="edge4" class="edge">
<title>Node5&#45;&gt;Node4</title>
<path fill="none" stroke="#63b8ff" d="M157.5,-153.35C157.5,-145.1 157.5,-135.97 157.5,-129.44"/>
<polygon fill="#63b8ff" stroke="#63b8ff" points="154,-153.23 157.5,-163.23 161,-153.23 154,-153.23"/>
</g>
</g>
</svg>
