<?xml version="1.0" encoding="UTF-8" standalone="no"?>
<!DOCTYPE svg PUBLIC "-//W3C//DTD SVG 1.1//EN"
 "http://www.w3.org/Graphics/SVG/1.1/DTD/svg11.dtd">
<!-- Generated by graphviz version 7.0.5 (20221223.1930)
 -->
<!-- Title: dBgS_MoveBgActor Pages: 1 -->
<svg width="572pt" height="1063pt"
 viewBox="0.00 0.00 572.00 1063.00" xmlns="http://www.w3.org/2000/svg" xmlns:xlink="http://www.w3.org/1999/xlink">
<g id="graph0" class="graph" transform="scale(1 1) rotate(0) translate(4 1059)">
<title>dBgS_MoveBgActor</title>
<!-- Node1 -->
<g id="node1" class="node">
<title>Node1</title>
<g id="a_node1"><a xlink:title=" ">
<polygon fill="#999999" stroke="#666666" points="327,-537 222,-537 222,-518 327,-518 327,-537"/>
<text text-anchor="middle" x="274.5" y="-525" font-family="Helvetica,sans-Serif" font-size="10.00">dBgS_MoveBgActor</text>
</a>
</g>
</g>
<!-- Node4 -->
<g id="node4" class="node">
<title>Node4</title>
<g id="a_node4"><a xlink:href="classdaBarDesk__c.html" target="_top" xlink:title=" ">
<polygon fill="white" stroke="#666666" points="453.5,-1055 378.5,-1055 378.5,-1036 453.5,-1036 453.5,-1055"/>
<text text-anchor="middle" x="416" y="-1043" font-family="Helvetica,sans-Serif" font-size="10.00">daBarDesk_c</text>
</a>
</g>
</g>
<!-- Node1&#45;&gt;Node4 -->
<g id="edge3" class="edge">
<title>Node1&#45;&gt;Node4</title>
<path fill="none" stroke="#63b8ff" d="M276.41,-548.65C280.5,-634.17 299.82,-953.31 363,-1027.5 367.03,-1032.23 372.36,-1035.72 378.08,-1038.29"/>
<polygon fill="#63b8ff" stroke="#63b8ff" points="279.92,-548.74 275.97,-538.91 272.93,-549.06 279.92,-548.74"/>
</g>
<!-- Node5 -->
<g id="node5" class="node">
<title>Node5</title>
<g id="a_node5"><a xlink:href="classdaBgObj__c.html" target="_top" xlink:title=" ">
<polygon fill="white" stroke="#666666" points="448.5,-1018 383.5,-1018 383.5,-999 448.5,-999 448.5,-1018"/>
<text text-anchor="middle" x="416" y="-1006" font-family="Helvetica,sans-Serif" font-size="10.00">daBgObj_c</text>
</a>
</g>
</g>
<!-- Node1&#45;&gt;Node5 -->
<g id="edge4" class="edge">
<title>Node1&#45;&gt;Node5</title>
<path fill="none" stroke="#63b8ff" d="M276.75,-548.89C281.94,-630.69 304.33,-922.54 363,-990.5 368.24,-996.57 375.65,-1000.6 383.22,-1003.27"/>
<polygon fill="#63b8ff" stroke="#63b8ff" points="280.25,-548.72 276.14,-538.95 273.26,-549.15 280.25,-548.72"/>
</g>
<!-- Node6 -->
<g id="node6" class="node">
<title>Node6</title>
<g id="a_node6"><a xlink:href="classdaCowdoor__c.html" target="_top" xlink:title=" ">
<polygon fill="white" stroke="#666666" points="454,-981 378,-981 378,-962 454,-962 454,-981"/>
<text text-anchor="middle" x="416" y="-969" font-family="Helvetica,sans-Serif" font-size="10.00">daCowdoor_c</text>
</a>
</g>
</g>
<!-- Node1&#45;&gt;Node6 -->
<g id="edge5" class="edge">
<title>Node1&#45;&gt;Node6</title>
<path fill="none" stroke="#63b8ff" d="M277.09,-548.42C283.36,-625.38 308.64,-891.53 363,-953.5 366.97,-958.02 372.13,-961.41 377.67,-963.95"/>
<polygon fill="#63b8ff" stroke="#63b8ff" points="280.62,-548.59 276.34,-538.9 273.64,-549.14 280.62,-548.59"/>
</g>
<!-- Node7 -->
<g id="node7" class="node">
<title>Node7</title>
<g id="a_node7"><a xlink:href="classdaCstaF__c.html" target="_top" xlink:title=" ">
<polygon fill="white" stroke="#666666" points="448,-944 384,-944 384,-925 448,-925 448,-944"/>
<text text-anchor="middle" x="416" y="-932" font-family="Helvetica,sans-Serif" font-size="10.00">daCstaF_c</text>
</a>
</g>
</g>
<!-- Node1&#45;&gt;Node7 -->
<g id="edge6" class="edge">
<title>Node1&#45;&gt;Node7</title>
<path fill="none" stroke="#63b8ff" d="M277.54,-548.43C285.01,-621.04 313.06,-860.63 363,-916.5 368.41,-922.55 375.96,-926.57 383.63,-929.24"/>
<polygon fill="#63b8ff" stroke="#63b8ff" points="281.05,-548.34 276.57,-538.74 274.08,-549.04 281.05,-548.34"/>
</g>
<!-- Node8 -->
<g id="node8" class="node">
<title>Node8</title>
<g id="a_node8"><a xlink:href="classdaDoorPush__c.html" target="_top" xlink:title=" ">
<polygon fill="white" stroke="#666666" points="456,-907 376,-907 376,-888 456,-888 456,-907"/>
<text text-anchor="middle" x="416" y="-895" font-family="Helvetica,sans-Serif" font-size="10.00">daDoorPush_c</text>
</a>
</g>
</g>
<!-- Node1&#45;&gt;Node8 -->
<g id="edge7" class="edge">
<title>Node1&#45;&gt;Node8</title>
<path fill="none" stroke="#63b8ff" d="M278.1,-548.61C286.88,-616.82 317.5,-829.72 363,-879.5 366.55,-883.38 370.97,-886.42 375.73,-888.81"/>
<polygon fill="#63b8ff" stroke="#63b8ff" points="281.59,-548.3 276.86,-538.81 274.64,-549.17 281.59,-548.3"/>
</g>
<!-- Node9 -->
<g id="node9" class="node">
<title>Node9</title>
<g id="a_node9"><a xlink:href="classdaDsh__c.html" target="_top" xlink:title=" ">
<polygon fill="white" stroke="#666666" points="443.5,-870 388.5,-870 388.5,-851 443.5,-851 443.5,-870"/>
<text text-anchor="middle" x="416" y="-858" font-family="Helvetica,sans-Serif" font-size="10.00">daDsh_c</text>
</a>
</g>
</g>
<!-- Node1&#45;&gt;Node9 -->
<g id="edge8" class="edge">
<title>Node1&#45;&gt;Node9</title>
<path fill="none" stroke="#63b8ff" d="M275.05,-548.74C275.03,-604.58 282.76,-757.1 363,-842.5 369.61,-849.53 379.09,-853.82 388.16,-856.43"/>
<polygon fill="#63b8ff" stroke="#63b8ff" points="278.55,-548.8 275.15,-538.77 271.55,-548.73 278.55,-548.8"/>
</g>
<!-- Node10 -->
<g id="node10" class="node">
<title>Node10</title>
<g id="a_node10"><a xlink:href="classdaGraveStone__c.html" target="_top" xlink:title=" ">
<polygon fill="white" stroke="#666666" points="460.5,-833 371.5,-833 371.5,-814 460.5,-814 460.5,-833"/>
<text text-anchor="middle" x="416" y="-821" font-family="Helvetica,sans-Serif" font-size="10.00">daGraveStone_c</text>
</a>
</g>
</g>
<!-- Node1&#45;&gt;Node10 -->
<g id="edge9" class="edge">
<title>Node1&#45;&gt;Node10</title>
<path fill="none" stroke="#63b8ff" d="M275.98,-548.64C278.3,-599.84 291.31,-731.75 363,-805.5 366.13,-808.72 369.86,-811.36 373.87,-813.54"/>
<polygon fill="#63b8ff" stroke="#63b8ff" points="279.49,-548.83 275.65,-538.95 272.5,-549.07 279.49,-548.83"/>
</g>
<!-- Node11 -->
<g id="node11" class="node">
<title>Node11</title>
<g id="a_node11"><a xlink:href="classdaHsTarget__c.html" target="_top" xlink:title=" ">
<polygon fill="white" stroke="#666666" points="455,-796 377,-796 377,-777 455,-777 455,-796"/>
<text text-anchor="middle" x="416" y="-784" font-family="Helvetica,sans-Serif" font-size="10.00">daHsTarget_c</text>
</a>
</g>
</g>
<!-- Node1&#45;&gt;Node11 -->
<g id="edge10" class="edge">
<title>Node1&#45;&gt;Node11</title>
<path fill="none" stroke="#63b8ff" d="M277.18,-548.59C281.98,-594.89 299.81,-706.25 363,-768.5 366.88,-772.32 371.61,-775.33 376.62,-777.71"/>
<polygon fill="#63b8ff" stroke="#63b8ff" points="280.68,-548.5 276.28,-538.86 273.71,-549.14 280.68,-548.5"/>
</g>
<!-- Node12 -->
<g id="node12" class="node">
<title>Node12</title>
<g id="a_node12"><a xlink:href="classdaIzumiGate__c.html" target="_top" xlink:title=" ">
<polygon fill="white" stroke="#666666" points="457,-759 375,-759 375,-740 457,-740 457,-759"/>
<text text-anchor="middle" x="416" y="-747" font-family="Helvetica,sans-Serif" font-size="10.00">daIzumiGate_c</text>
</a>
</g>
</g>
<!-- Node1&#45;&gt;Node12 -->
<g id="edge11" class="edge">
<title>Node1&#45;&gt;Node12</title>
<path fill="none" stroke="#63b8ff" d="M278.73,-548.37C286.14,-589.28 308.15,-680.46 363,-731.5 366.5,-734.75 370.61,-737.42 374.97,-739.61"/>
<polygon fill="#63b8ff" stroke="#63b8ff" points="282.21,-547.95 277.1,-538.67 275.31,-549.11 282.21,-547.95"/>
</g>
<!-- Node13 -->
<g id="node13" class="node">
<title>Node13</title>
<g id="a_node13"><a xlink:href="classdaLv1Cdl01__c.html" target="_top" xlink:title=" ">
<polygon fill="white" stroke="#666666" points="455.5,-722 376.5,-722 376.5,-703 455.5,-703 455.5,-722"/>
<text text-anchor="middle" x="416" y="-710" font-family="Helvetica,sans-Serif" font-size="10.00">daLv1Cdl01_c</text>
</a>
</g>
</g>
<!-- Node1&#45;&gt;Node13 -->
<g id="edge12" class="edge">
<title>Node1&#45;&gt;Node13</title>
<path fill="none" stroke="#63b8ff" d="M280.89,-548.17C291.07,-583.22 316.4,-654.39 363,-694.5 366.84,-697.8 371.31,-700.51 376,-702.73"/>
<polygon fill="#63b8ff" stroke="#63b8ff" points="284.35,-547.56 278.32,-538.85 277.61,-549.42 284.35,-547.56"/>
</g>
<!-- Node14 -->
<g id="node14" class="node">
<title>Node14</title>
<g id="a_node14"><a xlink:href="classdaLv4Gate__c.html" target="_top" xlink:title=" ">
<polygon fill="white" stroke="#666666" points="453.5,-685 378.5,-685 378.5,-666 453.5,-666 453.5,-685"/>
<text text-anchor="middle" x="416" y="-673" font-family="Helvetica,sans-Serif" font-size="10.00">daLv4Gate_c</text>
</a>
</g>
</g>
<!-- Node1&#45;&gt;Node14 -->
<g id="edge13" class="edge">
<title>Node1&#45;&gt;Node14</title>
<path fill="none" stroke="#63b8ff" d="M283.95,-547.51C296.91,-575.91 324.34,-627.75 363,-657.5 367.54,-661 372.81,-663.84 378.22,-666.15"/>
<polygon fill="#63b8ff" stroke="#63b8ff" points="287.26,-546.35 280.03,-538.61 280.85,-549.17 287.26,-546.35"/>
</g>
<!-- Node15 -->
<g id="node15" class="node">
<title>Node15</title>
<g id="a_node15"><a xlink:href="classdaLv4HsTarget__c.html" target="_top" xlink:title=" ">
<polygon fill="white" stroke="#666666" points="463.5,-648 368.5,-648 368.5,-629 463.5,-629 463.5,-648"/>
<text text-anchor="middle" x="416" y="-636" font-family="Helvetica,sans-Serif" font-size="10.00">daLv4HsTarget_c</text>
</a>
</g>
</g>
<!-- Node1&#45;&gt;Node15 -->
<g id="edge14" class="edge">
<title>Node1&#45;&gt;Node15</title>
<path fill="none" stroke="#63b8ff" d="M288.93,-546.54C304.54,-567.39 332.13,-600.52 363,-620.5 367.89,-623.67 373.4,-626.35 378.97,-628.59"/>
<polygon fill="#63b8ff" stroke="#63b8ff" points="291.87,-544.64 283.16,-538.62 286.22,-548.77 291.87,-544.64"/>
</g>
<!-- Node16 -->
<g id="node16" class="node">
<title>Node16</title>
<g id="a_node16"><a xlink:href="classdaLv4PoGate__c.html" target="_top" xlink:title=" ">
<polygon fill="white" stroke="#666666" points="459.5,-611 372.5,-611 372.5,-592 459.5,-592 459.5,-611"/>
<text text-anchor="middle" x="416" y="-599" font-family="Helvetica,sans-Serif" font-size="10.00">daLv4PoGate_c</text>
</a>
</g>
</g>
<!-- Node1&#45;&gt;Node16 -->
<g id="edge15" class="edge">
<title>Node1&#45;&gt;Node16</title>
<path fill="none" stroke="#63b8ff" d="M298.05,-544.04C315.23,-556.11 339.8,-572.26 363,-583.5 369.1,-586.46 375.82,-589.16 382.34,-591.52"/>
<polygon fill="#63b8ff" stroke="#63b8ff" points="300.26,-541.32 290.09,-538.35 296.19,-547.01 300.26,-541.32"/>
</g>
<!-- Node17 -->
<g id="node17" class="node">
<title>Node17</title>
<g id="a_node17"><a xlink:href="classdaObjBBox__c.html" target="_top" xlink:title=" ">
<polygon fill="white" stroke="#666666" points="454,-574 378,-574 378,-555 454,-555 454,-574"/>
<text text-anchor="middle" x="416" y="-562" font-family="Helvetica,sans-Serif" font-size="10.00">daObjBBox_c</text>
</a>
</g>
</g>
<!-- Node1&#45;&gt;Node17 -->
<g id="edge16" class="edge">
<title>Node1&#45;&gt;Node17</title>
<path fill="none" stroke="#63b8ff" d="M323.81,-540.31C341.4,-544.98 361,-550.18 377.51,-554.56"/>
<polygon fill="#63b8ff" stroke="#63b8ff" points="324.91,-536.98 314.35,-537.8 323.11,-543.75 324.91,-536.98"/>
</g>
<!-- Node18 -->
<g id="node18" class="node">
<title>Node18</title>
<g id="a_node18"><a xlink:href="classdaObjBoard__c.html" target="_top" xlink:title=" ">
<polygon fill="white" stroke="#666666" points="455,-537 377,-537 377,-518 455,-518 455,-537"/>
<text text-anchor="middle" x="416" y="-525" font-family="Helvetica,sans-Serif" font-size="10.00">daObjBoard_c</text>
</a>
</g>
</g>
<!-- Node1&#45;&gt;Node18 -->
<g id="edge17" class="edge">
<title>Node1&#45;&gt;Node18</title>
<path fill="none" stroke="#63b8ff" d="M338.67,-527.5C351.58,-527.5 364.8,-527.5 376.53,-527.5"/>
<polygon fill="#63b8ff" stroke="#63b8ff" points="338.96,-524 328.96,-527.5 338.96,-531 338.96,-524"/>
</g>
<!-- Node19 -->
<g id="node19" class="node">
<title>Node19</title>
<g id="a_node19"><a xlink:href="classdaObjGake__c.html" target="_top" xlink:title=" ">
<polygon fill="white" stroke="#666666" points="454,-500 378,-500 378,-481 454,-481 454,-500"/>
<text text-anchor="middle" x="416" y="-488" font-family="Helvetica,sans-Serif" font-size="10.00">daObjGake_c</text>
</a>
</g>
</g>
<!-- Node1&#45;&gt;Node19 -->
<g id="edge18" class="edge">
<title>Node1&#45;&gt;Node19</title>
<path fill="none" stroke="#63b8ff" d="M323.81,-514.69C341.4,-510.02 361,-504.82 377.51,-500.44"/>
<polygon fill="#63b8ff" stroke="#63b8ff" points="323.11,-511.25 314.35,-517.2 324.91,-518.02 323.11,-511.25"/>
</g>
<!-- Node20 -->
<g id="node20" class="node">
<title>Node20</title>
<g id="a_node20"><a xlink:href="classdaObjHBombkoya__c.html" target="_top" xlink:title=" ">
<polygon fill="white" stroke="#666666" points="469,-463 363,-463 363,-444 469,-444 469,-463"/>
<text text-anchor="middle" x="416" y="-451" font-family="Helvetica,sans-Serif" font-size="10.00">daObjHBombkoya_c</text>
</a>
</g>
</g>
<!-- Node1&#45;&gt;Node20 -->
<g id="edge19" class="edge">
<title>Node1&#45;&gt;Node20</title>
<path fill="none" stroke="#63b8ff" d="M298.05,-510.96C315.23,-498.89 339.8,-482.74 363,-471.5 369.1,-468.54 375.82,-465.84 382.34,-463.48"/>
<polygon fill="#63b8ff" stroke="#63b8ff" points="296.19,-507.99 290.09,-516.65 300.26,-513.68 296.19,-507.99"/>
</g>
<!-- Node21 -->
<g id="node21" class="node">
<title>Node21</title>
<g id="a_node21"><a xlink:href="classdaObjKJgjs__c.html" target="_top" xlink:title=" ">
<polygon fill="white" stroke="#666666" points="454.5,-426 377.5,-426 377.5,-407 454.5,-407 454.5,-426"/>
<text text-anchor="middle" x="416" y="-414" font-family="Helvetica,sans-Serif" font-size="10.00">daObjKJgjs_c</text>
</a>
</g>
</g>
<!-- Node1&#45;&gt;Node21 -->
<g id="edge20" class="edge">
<title>Node1&#45;&gt;Node21</title>
<path fill="none" stroke="#63b8ff" d="M288.93,-508.46C304.54,-487.61 332.13,-454.48 363,-434.5 367.89,-431.33 373.4,-428.65 378.97,-426.41"/>
<polygon fill="#63b8ff" stroke="#63b8ff" points="286.22,-506.23 283.16,-516.38 291.87,-510.36 286.22,-506.23"/>
</g>
<!-- Node22 -->
<g id="node22" class="node">
<title>Node22</title>
<g id="a_node22"><a xlink:href="classdaObjKKanban__c.html" target="_top" xlink:title=" ">
<polygon fill="white" stroke="#666666" points="462,-389 370,-389 370,-370 462,-370 462,-389"/>
<text text-anchor="middle" x="416" y="-377" font-family="Helvetica,sans-Serif" font-size="10.00">daObjKKanban_c</text>
</a>
</g>
</g>
<!-- Node1&#45;&gt;Node22 -->
<g id="edge21" class="edge">
<title>Node1&#45;&gt;Node22</title>
<path fill="none" stroke="#63b8ff" d="M283.95,-507.49C296.91,-479.09 324.34,-427.25 363,-397.5 367.16,-394.3 371.94,-391.64 376.87,-389.44"/>
<polygon fill="#63b8ff" stroke="#63b8ff" points="280.85,-505.83 280.03,-516.39 287.26,-508.65 280.85,-505.83"/>
</g>
<!-- Node23 -->
<g id="node23" class="node">
<title>Node23</title>
<g id="a_node23"><a xlink:href="classdaObjLv3saka__c.html" target="_top" xlink:title=" ">
<polygon fill="white" stroke="#666666" points="461,-352 371,-352 371,-333 461,-333 461,-352"/>
<text text-anchor="middle" x="416" y="-340" font-family="Helvetica,sans-Serif" font-size="10.00">daObjLv3saka_c</text>
</a>
</g>
</g>
<!-- Node1&#45;&gt;Node23 -->
<g id="edge22" class="edge">
<title>Node1&#45;&gt;Node23</title>
<path fill="none" stroke="#63b8ff" d="M280.89,-506.83C291.07,-471.78 316.4,-400.61 363,-360.5 366.77,-357.26 371.15,-354.59 375.74,-352.4"/>
<polygon fill="#63b8ff" stroke="#63b8ff" points="277.61,-505.58 278.32,-516.15 284.35,-507.44 277.61,-505.58"/>
</g>
<!-- Node24 -->
<g id="node24" class="node">
<title>Node24</title>
<g id="a_node24"><a xlink:href="classdaObjLv4Floor__c.html" target="_top" xlink:title=" ">
<polygon fill="white" stroke="#666666" points="461.5,-315 370.5,-315 370.5,-296 461.5,-296 461.5,-315"/>
<text text-anchor="middle" x="416" y="-303" font-family="Helvetica,sans-Serif" font-size="10.00">daObjLv4Floor_c</text>
</a>
</g>
</g>
<!-- Node1&#45;&gt;Node24 -->
<g id="edge23" class="edge">
<title>Node1&#45;&gt;Node24</title>
<path fill="none" stroke="#63b8ff" d="M278.73,-506.63C286.14,-465.72 308.15,-374.54 363,-323.5 366.5,-320.25 370.61,-317.58 374.97,-315.39"/>
<polygon fill="#63b8ff" stroke="#63b8ff" points="275.31,-505.89 277.1,-516.33 282.21,-507.05 275.31,-505.89"/>
</g>
<!-- Node25 -->
<g id="node25" class="node">
<title>Node25</title>
<g id="a_node25"><a xlink:href="classdaObjMGate__c.html" target="_top" xlink:title=" ">
<polygon fill="white" stroke="#666666" points="457,-278 375,-278 375,-259 457,-259 457,-278"/>
<text text-anchor="middle" x="416" y="-266" font-family="Helvetica,sans-Serif" font-size="10.00">daObjMGate_c</text>
</a>
</g>
</g>
<!-- Node1&#45;&gt;Node25 -->
<g id="edge24" class="edge">
<title>Node1&#45;&gt;Node25</title>
<path fill="none" stroke="#63b8ff" d="M277.18,-506.41C281.98,-460.11 299.81,-348.75 363,-286.5 366.33,-283.21 370.3,-280.53 374.53,-278.33"/>
<polygon fill="#63b8ff" stroke="#63b8ff" points="273.71,-505.86 276.28,-516.14 280.68,-506.5 273.71,-505.86"/>
</g>
<!-- Node26 -->
<g id="node26" class="node">
<title>Node26</title>
<g id="a_node26"><a xlink:href="classdaObjOnsen__c.html" target="_top" xlink:title=" ">
<polygon fill="white" stroke="#666666" points="456.5,-241 375.5,-241 375.5,-222 456.5,-222 456.5,-241"/>
<text text-anchor="middle" x="416" y="-229" font-family="Helvetica,sans-Serif" font-size="10.00">daObjOnsen_c</text>
</a>
</g>
</g>
<!-- Node1&#45;&gt;Node26 -->
<g id="edge25" class="edge">
<title>Node1&#45;&gt;Node26</title>
<path fill="none" stroke="#63b8ff" d="M275.98,-506.36C278.3,-455.16 291.31,-323.25 363,-249.5 366.46,-245.94 370.66,-243.08 375.16,-240.79"/>
<polygon fill="#63b8ff" stroke="#63b8ff" points="272.5,-505.93 275.65,-516.05 279.49,-506.17 272.5,-505.93"/>
</g>
<!-- Node27 -->
<g id="node27" class="node">
<title>Node27</title>
<g id="a_node27"><a xlink:href="classdaObjSwHang__c.html" target="_top" xlink:title=" ">
<polygon fill="white" stroke="#666666" points="461,-204 371,-204 371,-185 461,-185 461,-204"/>
<text text-anchor="middle" x="416" y="-192" font-family="Helvetica,sans-Serif" font-size="10.00">daObjSwHang_c</text>
</a>
</g>
</g>
<!-- Node1&#45;&gt;Node27 -->
<g id="edge26" class="edge">
<title>Node1&#45;&gt;Node27</title>
<path fill="none" stroke="#63b8ff" d="M275.05,-506.26C275.03,-450.42 282.76,-297.9 363,-212.5 366.01,-209.3 369.62,-206.66 373.51,-204.5"/>
<polygon fill="#63b8ff" stroke="#63b8ff" points="271.55,-506.27 275.15,-516.23 278.55,-506.2 271.55,-506.27"/>
</g>
<!-- Node28 -->
<g id="node28" class="node">
<title>Node28</title>
<g id="a_node28"><a xlink:href="classdaObjSwSpinner__c.html" target="_top" xlink:title=" ">
<polygon fill="white" stroke="#666666" points="466,-167 366,-167 366,-148 466,-148 466,-167"/>
<text text-anchor="middle" x="416" y="-155" font-family="Helvetica,sans-Serif" font-size="10.00">daObjSwSpinner_c</text>
</a>
</g>
</g>
<!-- Node1&#45;&gt;Node28 -->
<g id="edge27" class="edge">
<title>Node1&#45;&gt;Node28</title>
<path fill="none" stroke="#63b8ff" d="M278.1,-506.39C286.88,-438.18 317.5,-225.28 363,-175.5 365.97,-172.26 369.54,-169.6 373.42,-167.42"/>
<polygon fill="#63b8ff" stroke="#63b8ff" points="274.64,-505.83 276.86,-516.19 281.59,-506.7 274.64,-505.83"/>
</g>
<!-- Node29 -->
<g id="node29" class="node">
<title>Node29</title>
<g id="a_node29"><a xlink:href="classdaObjZraRock__c.html" target="_top" xlink:title=" ">
<polygon fill="white" stroke="#666666" points="460.5,-130 371.5,-130 371.5,-111 460.5,-111 460.5,-130"/>
<text text-anchor="middle" x="416" y="-118" font-family="Helvetica,sans-Serif" font-size="10.00">daObjZraRock_c</text>
</a>
</g>
</g>
<!-- Node1&#45;&gt;Node29 -->
<g id="edge28" class="edge">
<title>Node1&#45;&gt;Node29</title>
<path fill="none" stroke="#63b8ff" d="M277.54,-506.57C285.01,-433.96 313.06,-194.37 363,-138.5 365.86,-135.29 369.33,-132.66 373.09,-130.49"/>
<polygon fill="#63b8ff" stroke="#63b8ff" points="274.08,-505.96 276.57,-516.26 281.05,-506.66 274.08,-505.96"/>
</g>
<!-- Node30 -->
<g id="node30" class="node">
<title>Node30</title>
<g id="a_node30"><a xlink:href="classdaTagHjump__c.html" target="_top" xlink:title=" ">
<polygon fill="white" stroke="#666666" points="457.5,-93 374.5,-93 374.5,-74 457.5,-74 457.5,-93"/>
<text text-anchor="middle" x="416" y="-81" font-family="Helvetica,sans-Serif" font-size="10.00">daTagHjump_c</text>
</a>
</g>
</g>
<!-- Node1&#45;&gt;Node30 -->
<g id="edge29" class="edge">
<title>Node1&#45;&gt;Node30</title>
<path fill="none" stroke="#63b8ff" d="M277.09,-506.58C283.36,-429.62 308.64,-163.47 363,-101.5 366.09,-97.98 369.9,-95.15 374.04,-92.87"/>
<polygon fill="#63b8ff" stroke="#63b8ff" points="273.64,-505.86 276.34,-516.1 280.62,-506.41 273.64,-505.86"/>
</g>
<!-- Node31 -->
<g id="node31" class="node">
<title>Node31</title>
<g id="a_node31"><a xlink:href="classdaTboxBase__c.html" target="_top" xlink:title=" ">
<polygon fill="white" stroke="#666666" points="456.5,-56 375.5,-56 375.5,-37 456.5,-37 456.5,-56"/>
<text text-anchor="middle" x="416" y="-44" font-family="Helvetica,sans-Serif" font-size="10.00">daTboxBase_c</text>
</a>
</g>
</g>
<!-- Node1&#45;&gt;Node31 -->
<g id="edge30" class="edge">
<title>Node1&#45;&gt;Node31</title>
<path fill="none" stroke="#63b8ff" d="M276.75,-506.11C281.94,-424.31 304.33,-132.46 363,-64.5 366.31,-60.67 370.48,-57.65 375.01,-55.28"/>
<polygon fill="#63b8ff" stroke="#63b8ff" points="273.26,-505.85 276.14,-516.05 280.25,-506.28 273.26,-505.85"/>
</g>
<!-- Node33 -->
<g id="node33" class="node">
<title>Node33</title>
<g id="a_node33"><a xlink:href="classdaZrTurara__c.html" target="_top" xlink:title=" ">
<polygon fill="white" stroke="#666666" points="453,-19 379,-19 379,0 453,0 453,-19"/>
<text text-anchor="middle" x="416" y="-7" font-family="Helvetica,sans-Serif" font-size="10.00">daZrTurara_c</text>
</a>
</g>
</g>
<!-- Node1&#45;&gt;Node33 -->
<g id="edge32" class="edge">
<title>Node1&#45;&gt;Node33</title>
<path fill="none" stroke="#63b8ff" d="M276.41,-506.35C280.5,-420.83 299.82,-101.69 363,-27.5 367.15,-22.63 372.69,-19.07 378.61,-16.48"/>
<polygon fill="#63b8ff" stroke="#63b8ff" points="272.93,-505.94 275.97,-516.09 279.92,-506.26 272.93,-505.94"/>
</g>
<!-- Node2 -->
<g id="node2" class="node">
<title>Node2</title>
<g id="a_node2"><a xlink:href="structfopAc__ac__c.html" target="_top" xlink:title=" ">
<polygon fill="white" stroke="#666666" points="186,-537 118,-537 118,-518 186,-518 186,-537"/>
<text text-anchor="middle" x="152" y="-525" font-family="Helvetica,sans-Serif" font-size="10.00">fopAc_ac_c</text>
</a>
</g>
</g>
<!-- Node2&#45;&gt;Node1 -->
<g id="edge1" class="edge">
<title>Node2&#45;&gt;Node1</title>
<path fill="none" stroke="#63b8ff" d="M197.5,-527.5C205.42,-527.5 213.73,-527.5 221.83,-527.5"/>
<polygon fill="#63b8ff" stroke="#63b8ff" points="197.76,-524 187.76,-527.5 197.76,-531 197.76,-524"/>
</g>
<!-- Node3 -->
<g id="node3" class="node">
<title>Node3</title>
<g id="a_node3"><a xlink:href="structleafdraw__class.html" target="_top" xlink:title=" ">
<polygon fill="white" stroke="#666666" points="82,-537 0,-537 0,-518 82,-518 82,-537"/>
<text text-anchor="middle" x="41" y="-525" font-family="Helvetica,sans-Serif" font-size="10.00">leafdraw_class</text>
</a>
</g>
</g>
<!-- Node3&#45;&gt;Node2 -->
<g id="edge2" class="edge">
<title>Node3&#45;&gt;Node2</title>
<path fill="none" stroke="#63b8ff" d="M93.68,-527.5C101.83,-527.5 110.07,-527.5 117.67,-527.5"/>
<polygon fill="#63b8ff" stroke="#63b8ff" points="93.79,-524 83.79,-527.5 93.79,-531 93.79,-524"/>
</g>
<!-- Node32 -->
<g id="node32" class="node">
<title>Node32</title>
<g id="a_node32"><a xlink:href="classdaTbox__c.html" target="_top" xlink:title=" ">
<polygon fill="white" stroke="#666666" points="564,-56 505,-56 505,-37 564,-37 564,-56"/>
<text text-anchor="middle" x="534.5" y="-44" font-family="Helvetica,sans-Serif" font-size="10.00">daTbox_c</text>
</a>
</g>
</g>
<!-- Node31&#45;&gt;Node32 -->
<g id="edge31" class="edge">
<title>Node31&#45;&gt;Node32</title>
<path fill="none" stroke="#63b8ff" d="M468.06,-46.5C480.57,-46.5 493.52,-46.5 504.57,-46.5"/>
<polygon fill="#63b8ff" stroke="#63b8ff" points="468.28,-43 458.28,-46.5 468.28,-50 468.28,-43"/>
</g>
</g>
</svg>
