<?xml version="1.0" encoding="UTF-8" standalone="no"?>
<!DOCTYPE svg PUBLIC "-//W3C//DTD SVG 1.1//EN"
 "http://www.w3.org/Graphics/SVG/1.1/DTD/svg11.dtd">
<!-- Generated by graphviz version 7.0.5 (20221223.1930)
 -->
<!-- Title: dBgS_MoveBgActor Pages: 1 -->
<!--zoomable 508 -->
<svg id="main" version="1.1" xmlns="http://www.w3.org/2000/svg" xmlns:xlink="http://www.w3.org/1999/xlink" xml:space="preserve" onload="init(evt)">
<style type="text/css"><![CDATA[
.edge:hover path { stroke: red; }
.edge:hover polygon { stroke: red; fill: red; }
]]></style>
<script type="text/javascript"><![CDATA[
var edges = document.getElementsByTagName('g');
if (edges && edges.length) {
  for (var i=0;i<edges.length;i++) {
    if (edges[i].id.substr(0,4)=='edge') {
      edges[i].setAttribute('class','edge');
    }
  }
}
]]></script>
        <defs>
                <circle id="rim" cx="0" cy="0" r="7"/>
                <circle id="rim2" cx="0" cy="0" r="3.5"/>
                <g id="zoomPlus">
                        <use xlink:href="#rim" fill="#404040">
                                <set attributeName="fill" to="#808080" begin="zoomplus.mouseover" end="zoomplus.mouseout"/>
                        </use>
                        <path d="M-4,0h8M0,-4v8" fill="none" stroke="white" stroke-width="1.5" pointer-events="none"/>
                </g>
                <g id="zoomMin">
                        <use xlink:href="#rim" fill="#404040">
                                <set attributeName="fill" to="#808080" begin="zoomminus.mouseover" end="zoomminus.mouseout"/>
                        </use>
                        <path d="M-4,0h8" fill="none" stroke="white" stroke-width="1.5" pointer-events="none"/>
                </g>
                <g id="dirArrow">
                        <path fill="none" stroke="white" stroke-width="1.5" d="M0,-3.0v7 M-2.5,-0.5L0,-3.0L2.5,-0.5"/>
                </g>
               <g id="resetDef">
                       <use xlink:href="#rim2" fill="#404040">
                               <set attributeName="fill" to="#808080" begin="reset.mouseover" end="reset.mouseout"/>
                       </use>
               </g>
        </defs>

<script type="text/javascript">
var viewWidth = 466;
var viewHeight = 508;
var sectionId = 'dynsection-0';
</script>
<script xlink:href="svgpan.js"/>
<svg id="graph" class="graph">
<g id="viewport">
<title>dBgS_MoveBgActor</title>
<!-- Node1 -->
<g id="node1" class="node">
<title>Node1</title>
<g id="a_node1"><a xlink:title=" ">
<polygon fill="#999999" stroke="#666666" points="327,-259 222,-259 222,-240 327,-240 327,-259"/>
<text text-anchor="middle" x="274.5" y="-247" font-family="Helvetica,sans-Serif" font-size="10.00">dBgS_MoveBgActor</text>
</a>
</g>
</g>
<!-- Node4 -->
<g id="node4" class="node">
<title>Node4</title>
<g id="a_node4"><a xlink:href="classdaCowdoor__c.html" target="_top" xlink:title=" ">
<polygon fill="white" stroke="#666666" points="448.5,-500 372.5,-500 372.5,-481 448.5,-481 448.5,-500"/>
<text text-anchor="middle" x="410.5" y="-488" font-family="Helvetica,sans-Serif" font-size="10.00">daCowdoor_c</text>
</a>
</g>
</g>
<!-- Node1&#45;&gt;Node4 -->
<g id="edge3" class="edge">
<title>Node1&#45;&gt;Node4</title>
<path fill="none" stroke="#63b8ff" d="M278.09,-270.63C284.5,-314.22 305.05,-414.82 363,-472.5 366.31,-475.8 370.3,-478.51 374.52,-480.72"/>
<polygon fill="#63b8ff" stroke="#63b8ff" points="281.59,-270.43 276.78,-260.99 274.66,-271.37 281.59,-270.43"/>
</g>
<!-- Node5 -->
<g id="node5" class="node">
<title>Node5</title>
<g id="a_node5"><a xlink:href="classdaCstaF__c.html" target="_top" xlink:title=" ">
<polygon fill="white" stroke="#666666" points="442.5,-463 378.5,-463 378.5,-444 442.5,-444 442.5,-463"/>
<text text-anchor="middle" x="410.5" y="-451" font-family="Helvetica,sans-Serif" font-size="10.00">daCstaF_c</text>
</a>
</g>
</g>
<!-- Node1&#45;&gt;Node5 -->
<g id="edge4" class="edge">
<title>Node1&#45;&gt;Node5</title>
<path fill="none" stroke="#63b8ff" d="M279.86,-270.18C288.88,-308.05 313.04,-388.94 363,-435.5 367.31,-439.51 372.61,-442.66 378.07,-445.13"/>
<polygon fill="#63b8ff" stroke="#63b8ff" points="283.31,-269.56 277.7,-260.57 276.48,-271.09 283.31,-269.56"/>
</g>
<!-- Node6 -->
<g id="node6" class="node">
<title>Node6</title>
<g id="a_node6"><a xlink:href="structdaDsh__c.html" target="_top" xlink:title=" ">
<polygon fill="white" stroke="#666666" points="438,-426 383,-426 383,-407 438,-407 438,-426"/>
<text text-anchor="middle" x="410.5" y="-414" font-family="Helvetica,sans-Serif" font-size="10.00">daDsh_c</text>
</a>
</g>
</g>
<!-- Node1&#45;&gt;Node6 -->
<g id="edge5" class="edge">
<title>Node1&#45;&gt;Node6</title>
<path fill="none" stroke="#63b8ff" d="M282.48,-269.98C294.27,-301.72 321.05,-362.84 363,-398.5 368.67,-403.32 375.78,-406.94 382.72,-409.61"/>
<polygon fill="#63b8ff" stroke="#63b8ff" points="285.86,-269.03 279.2,-260.79 279.26,-271.39 285.86,-269.03"/>
</g>
<!-- Node7 -->
<g id="node7" class="node">
<title>Node7</title>
<g id="a_node7"><a xlink:href="classdaHsTarget__c.html" target="_top" xlink:title=" ">
<polygon fill="white" stroke="#666666" points="449.5,-389 371.5,-389 371.5,-370 449.5,-370 449.5,-389"/>
<text text-anchor="middle" x="410.5" y="-377" font-family="Helvetica,sans-Serif" font-size="10.00">daHsTarget_c</text>
</a>
</g>
</g>
<!-- Node1&#45;&gt;Node7 -->
<g id="edge6" class="edge">
<title>Node1&#45;&gt;Node7</title>
<path fill="none" stroke="#63b8ff" d="M286.23,-269.01C300.7,-293.69 328.65,-336.01 363,-361.5 367.31,-364.7 372.26,-367.4 377.29,-369.67"/>
<polygon fill="#63b8ff" stroke="#63b8ff" points="289.46,-267.6 281.47,-260.65 283.37,-271.07 289.46,-267.6"/>
</g>
<!-- Node8 -->
<g id="node8" class="node">
<title>Node8</title>
<g id="a_node8"><a xlink:href="classdaLv4Gate__c.html" target="_top" xlink:title=" ">
<polygon fill="white" stroke="#666666" points="448,-352 373,-352 373,-333 448,-333 448,-352"/>
<text text-anchor="middle" x="410.5" y="-340" font-family="Helvetica,sans-Serif" font-size="10.00">daLv4Gate_c</text>
</a>
</g>
</g>
<!-- Node1&#45;&gt;Node8 -->
<g id="edge7" class="edge">
<title>Node1&#45;&gt;Node8</title>
<path fill="none" stroke="#63b8ff" d="M292.64,-267.34C309.35,-283.92 336.09,-308.41 363,-324.5 368.05,-327.52 373.7,-330.21 379.27,-332.52"/>
<polygon fill="#63b8ff" stroke="#63b8ff" points="295.45,-265.21 285.94,-260.55 290.47,-270.13 295.45,-265.21"/>
</g>
<!-- Node9 -->
<g id="node9" class="node">
<title>Node9</title>
<g id="a_node9"><a xlink:href="classdaLv4HsTarget__c.html" target="_top" xlink:title=" ">
<polygon fill="white" stroke="#666666" points="458,-315 363,-315 363,-296 458,-296 458,-315"/>
<text text-anchor="middle" x="410.5" y="-303" font-family="Helvetica,sans-Serif" font-size="10.00">daLv4HsTarget_c</text>
</a>
</g>
</g>
<!-- Node1&#45;&gt;Node9 -->
<g id="edge8" class="edge">
<title>Node1&#45;&gt;Node9</title>
<path fill="none" stroke="#63b8ff" d="M307.88,-263.93C324.32,-271.17 344.65,-279.97 363,-287.5 369.57,-290.2 376.7,-293.01 383.36,-295.59"/>
<polygon fill="#63b8ff" stroke="#63b8ff" points="309.64,-260.88 299.08,-260.04 306.81,-267.29 309.64,-260.88"/>
</g>
<!-- Node10 -->
<g id="node10" class="node">
<title>Node10</title>
<g id="a_node10"><a xlink:href="classdaLv4PoGate__c.html" target="_top" xlink:title=" ">
<polygon fill="white" stroke="#666666" points="454,-278 367,-278 367,-259 454,-259 454,-278"/>
<text text-anchor="middle" x="410.5" y="-266" font-family="Helvetica,sans-Serif" font-size="10.00">daLv4PoGate_c</text>
</a>
</g>
</g>
<!-- Node1&#45;&gt;Node10 -->
<g id="edge9" class="edge">
<title>Node1&#45;&gt;Node10</title>
<path fill="none" stroke="#63b8ff" d="M338.7,-258.46C348.12,-259.8 357.64,-261.15 366.51,-262.4"/>
<polygon fill="#63b8ff" stroke="#63b8ff" points="339.2,-255 328.81,-257.06 338.22,-261.93 339.2,-255"/>
</g>
<!-- Node11 -->
<g id="node11" class="node">
<title>Node11</title>
<g id="a_node11"><a xlink:href="classdaObjBoard__c.html" target="_top" xlink:title=" ">
<polygon fill="white" stroke="#666666" points="449.5,-241 371.5,-241 371.5,-222 449.5,-222 449.5,-241"/>
<text text-anchor="middle" x="410.5" y="-229" font-family="Helvetica,sans-Serif" font-size="10.00">daObjBoard_c</text>
</a>
</g>
</g>
<!-- Node1&#45;&gt;Node11 -->
<g id="edge10" class="edge">
<title>Node1&#45;&gt;Node11</title>
<path fill="none" stroke="#63b8ff" d="M338.39,-241.05C349.57,-239.55 360.9,-238.03 371.13,-236.65"/>
<polygon fill="#63b8ff" stroke="#63b8ff" points="338.25,-237.54 328.81,-242.34 339.18,-244.48 338.25,-237.54"/>
</g>
<!-- Node12 -->
<g id="node12" class="node">
<title>Node12</title>
<g id="a_node12"><a xlink:href="classdaObjKJgjs__c.html" target="_top" xlink:title=" ">
<polygon fill="white" stroke="#666666" points="449,-204 372,-204 372,-185 449,-185 449,-204"/>
<text text-anchor="middle" x="410.5" y="-192" font-family="Helvetica,sans-Serif" font-size="10.00">daObjKJgjs_c</text>
</a>
</g>
</g>
<!-- Node1&#45;&gt;Node12 -->
<g id="edge11" class="edge">
<title>Node1&#45;&gt;Node12</title>
<path fill="none" stroke="#63b8ff" d="M308.59,-235.23C324.92,-228.25 344.94,-219.81 363,-212.5 369.58,-209.84 376.72,-207.03 383.38,-204.45"/>
<polygon fill="#63b8ff" stroke="#63b8ff" points="307.65,-231.82 299.84,-238.97 310.41,-238.25 307.65,-231.82"/>
</g>
<!-- Node13 -->
<g id="node13" class="node">
<title>Node13</title>
<g id="a_node13"><a xlink:href="classdaObjLv4Floor__c.html" target="_top" xlink:title=" ">
<polygon fill="white" stroke="#666666" points="456,-167 365,-167 365,-148 456,-148 456,-167"/>
<text text-anchor="middle" x="410.5" y="-155" font-family="Helvetica,sans-Serif" font-size="10.00">daObjLv4Floor_c</text>
</a>
</g>
</g>
<!-- Node1&#45;&gt;Node13 -->
<g id="edge12" class="edge">
<title>Node1&#45;&gt;Node13</title>
<path fill="none" stroke="#63b8ff" d="M292.69,-231.91C309.42,-215.57 336.19,-191.41 363,-175.5 368.21,-172.41 374.05,-169.66 379.78,-167.3"/>
<polygon fill="#63b8ff" stroke="#63b8ff" points="290.59,-229.06 285.97,-238.6 295.53,-234.02 290.59,-229.06"/>
</g>
<!-- Node14 -->
<g id="node14" class="node">
<title>Node14</title>
<g id="a_node14"><a xlink:href="classdaObjMGate__c.html" target="_top" xlink:title=" ">
<polygon fill="white" stroke="#666666" points="451.5,-130 369.5,-130 369.5,-111 451.5,-111 451.5,-130"/>
<text text-anchor="middle" x="410.5" y="-118" font-family="Helvetica,sans-Serif" font-size="10.00">daObjMGate_c</text>
</a>
</g>
</g>
<!-- Node1&#45;&gt;Node14 -->
<g id="edge13" class="edge">
<title>Node1&#45;&gt;Node14</title>
<path fill="none" stroke="#63b8ff" d="M286.47,-229.83C301.04,-205.34 328.94,-163.66 363,-138.5 367.32,-135.31 372.27,-132.61 377.3,-130.35"/>
<polygon fill="#63b8ff" stroke="#63b8ff" points="283.47,-228.04 281.5,-238.45 289.53,-231.54 283.47,-228.04"/>
</g>
<!-- Node15 -->
<g id="node15" class="node">
<title>Node15</title>
<g id="a_node15"><a xlink:href="classdaObjOnsen__c.html" target="_top" xlink:title=" ">
<polygon fill="white" stroke="#666666" points="451,-93 370,-93 370,-74 451,-74 451,-93"/>
<text text-anchor="middle" x="410.5" y="-81" font-family="Helvetica,sans-Serif" font-size="10.00">daObjOnsen_c</text>
</a>
</g>
</g>
<!-- Node1&#45;&gt;Node15 -->
<g id="edge14" class="edge">
<title>Node1&#45;&gt;Node15</title>
<path fill="none" stroke="#63b8ff" d="M282.52,-229.16C294.36,-197.64 321.21,-136.93 363,-101.5 366.83,-98.25 371.31,-95.55 375.95,-93.32"/>
<polygon fill="#63b8ff" stroke="#63b8ff" points="279.33,-227.68 279.22,-238.28 285.91,-230.06 279.33,-227.68"/>
</g>
<!-- Node16 -->
<g id="node16" class="node">
<title>Node16</title>
<g id="a_node16"><a xlink:href="classdaObjSwHang__c.html" target="_top" xlink:title=" ">
<polygon fill="white" stroke="#666666" points="455.5,-56 365.5,-56 365.5,-37 455.5,-37 455.5,-56"/>
<text text-anchor="middle" x="410.5" y="-44" font-family="Helvetica,sans-Serif" font-size="10.00">daObjSwHang_c</text>
</a>
</g>
</g>
<!-- Node1&#45;&gt;Node16 -->
<g id="edge15" class="edge">
<title>Node1&#45;&gt;Node16</title>
<path fill="none" stroke="#63b8ff" d="M280.02,-228.4C289.19,-190.5 313.45,-110.59 363,-64.5 366.42,-61.32 370.47,-58.68 374.73,-56.49"/>
<polygon fill="#63b8ff" stroke="#63b8ff" points="276.63,-227.53 277.82,-238.05 283.46,-229.09 276.63,-227.53"/>
</g>
<!-- Node17 -->
<g id="node17" class="node">
<title>Node17</title>
<g id="a_node17"><a xlink:href="classdaTagHjump__c.html" target="_top" xlink:title=" ">
<polygon fill="white" stroke="#666666" points="452,-19 369,-19 369,0 452,0 452,-19"/>
<text text-anchor="middle" x="410.5" y="-7" font-family="Helvetica,sans-Serif" font-size="10.00">daTagHjump_c</text>
</a>
</g>
</g>
<!-- Node1&#45;&gt;Node17 -->
<g id="edge16" class="edge">
<title>Node1&#45;&gt;Node17</title>
<path fill="none" stroke="#63b8ff" d="M278.16,-228.18C284.68,-184.64 305.36,-84.79 363,-27.5 366.32,-24.2 370.3,-21.5 374.53,-19.28"/>
<polygon fill="#63b8ff" stroke="#63b8ff" points="274.7,-227.67 276.8,-238.05 281.63,-228.63 274.7,-227.67"/>
</g>
<!-- Node2 -->
<g id="node2" class="node">
<title>Node2</title>
<g id="a_node2"><a xlink:href="structfopAc__ac__c.html" target="_top" xlink:title=" ">
<polygon fill="white" stroke="#666666" points="186,-259 118,-259 118,-240 186,-240 186,-259"/>
<text text-anchor="middle" x="152" y="-247" font-family="Helvetica,sans-Serif" font-size="10.00">fopAc_ac_c</text>
</a>
</g>
</g>
<!-- Node2&#45;&gt;Node1 -->
<g id="edge1" class="edge">
<title>Node2&#45;&gt;Node1</title>
<path fill="none" stroke="#63b8ff" d="M197.5,-249.5C205.42,-249.5 213.73,-249.5 221.83,-249.5"/>
<polygon fill="#63b8ff" stroke="#63b8ff" points="197.76,-246 187.76,-249.5 197.76,-253 197.76,-246"/>
</g>
<!-- Node3 -->
<g id="node3" class="node">
<title>Node3</title>
<g id="a_node3"><a xlink:href="structleafdraw__class.html" target="_top" xlink:title=" ">
<polygon fill="white" stroke="#666666" points="82,-259 0,-259 0,-240 82,-240 82,-259"/>
<text text-anchor="middle" x="41" y="-247" font-family="Helvetica,sans-Serif" font-size="10.00">leafdraw_class</text>
</a>
</g>
</g>
<!-- Node3&#45;&gt;Node2 -->
<g id="edge2" class="edge">
<title>Node3&#45;&gt;Node2</title>
<path fill="none" stroke="#63b8ff" d="M93.68,-249.5C101.83,-249.5 110.07,-249.5 117.67,-249.5"/>
<polygon fill="#63b8ff" stroke="#63b8ff" points="93.79,-246 83.79,-249.5 93.79,-253 93.79,-246"/>
</g>
</g>
</svg>
        <g id="navigator" transform="translate(0 0)" fill="#404254">
                <rect fill="#f2f5e9" fill-opacity="0.5" stroke="#606060" stroke-width=".5" x="0" y="0" width="60" height="60"/>
                <use id="zoomplus" xlink:href="#zoomPlus" x="17" y="9" onmousedown="handleZoom(evt,'in')"/>
                <use id="zoomminus" xlink:href="#zoomMin" x="42" y="9" onmousedown="handleZoom(evt,'out')"/>
                <use id="reset" xlink:href="#resetDef" x="30" y="36" onmousedown="handleReset()"/>
                <g id="arrowUp" xlink:href="#dirArrow" transform="translate(30 24)" onmousedown="handlePan(0,-1)">
                  <use xlink:href="#rim" fill="#404040">
                        <set attributeName="fill" to="#808080" begin="arrowUp.mouseover" end="arrowUp.mouseout"/>
                  </use>
                  <path fill="none" stroke="white" stroke-width="1.5" d="M0,-3.0v7 M-2.5,-0.5L0,-3.0L2.5,-0.5"/>
                </g>
                <g id="arrowRight" xlink:href="#dirArrow" transform="rotate(90) translate(36 -43)" onmousedown="handlePan(1,0)">
                  <use xlink:href="#rim" fill="#404040">
                        <set attributeName="fill" to="#808080" begin="arrowRight.mouseover" end="arrowRight.mouseout"/>
                  </use>
                  <path fill="none" stroke="white" stroke-width="1.5" d="M0,-3.0v7 M-2.5,-0.5L0,-3.0L2.5,-0.5"/>
                </g>
                <g id="arrowDown" xlink:href="#dirArrow" transform="rotate(180) translate(-30 -48)" onmousedown="handlePan(0,1)">
                  <use xlink:href="#rim" fill="#404040">
                        <set attributeName="fill" to="#808080" begin="arrowDown.mouseover" end="arrowDown.mouseout"/>
                  </use>
                  <path fill="none" stroke="white" stroke-width="1.5" d="M0,-3.0v7 M-2.5,-0.5L0,-3.0L2.5,-0.5"/>
                </g>
                <g id="arrowLeft" xlink:href="#dirArrow" transform="rotate(270) translate(-36 17)" onmousedown="handlePan(-1,0)">
                  <use xlink:href="#rim" fill="#404040">
                        <set attributeName="fill" to="#808080" begin="arrowLeft.mouseover" end="arrowLeft.mouseout"/>
                  </use>
                  <path fill="none" stroke="white" stroke-width="1.5" d="M0,-3.0v7 M-2.5,-0.5L0,-3.0L2.5,-0.5"/>
                </g>
        </g>
        <svg viewBox="0 0 15 15" width="100%" height="30px" preserveAspectRatio="xMaxYMin meet">
         <g id="arrow_out" transform="scale(0.3 0.3)">
          <a xlink:href="classdBgS__MoveBgActor__inherit__graph_org.svg" target="_base">
           <rect id="button" ry="5" rx="5" y="6" x="6" height="38" width="38"
                fill="#f2f5e9" fill-opacity="0.5" stroke="#606060" stroke-width="1.0"/>
           <path id="arrow"
             d="M 11.500037,31.436501 C 11.940474,20.09759 22.043105,11.32322 32.158766,21.979434 L 37.068811,17.246167 C 37.068811,17.246167 37.088388,32 37.088388,32 L 22.160133,31.978069 C 22.160133,31.978069 26.997745,27.140456 26.997745,27.140456 C 18.528582,18.264221 13.291696,25.230495 11.500037,31.436501 z"
             style="fill:#404040;"/>
          </a>
         </g>
        </svg>
</svg>
