<?xml version="1.0" encoding="UTF-8" standalone="no"?>
<!DOCTYPE svg PUBLIC "-//W3C//DTD SVG 1.1//EN"
 "http://www.w3.org/Graphics/SVG/1.1/DTD/svg11.dtd">
<!-- Generated by graphviz version 7.0.5 (20221223.1930)
 -->
<!-- Title: include/d/d_attention.h Pages: 1 -->
<svg width="5528pt" height="291pt"
 viewBox="0.00 0.00 5527.83 291.00" xmlns="http://www.w3.org/2000/svg" xmlns:xlink="http://www.w3.org/1999/xlink">
<g id="graph0" class="graph" transform="scale(1 1) rotate(0) translate(4 287)">
<title>include/d/d_attention.h</title>
<!-- Node1 -->
<g id="node1" class="node">
<title>Node1</title>
<g id="a_node1"><a xlink:title=" ">
<polygon fill="#999999" stroke="#666666" points="3061.33,-283 2947.33,-283 2947.33,-264 3061.33,-264 3061.33,-283"/>
<text text-anchor="middle" x="3004.33" y="-271" font-family="Helvetica,sans-Serif" font-size="10.00">include/d/d_attention.h</text>
</a>
</g>
</g>
<!-- Node2 -->
<g id="node2" class="node">
<title>Node2</title>
<g id="a_node2"><a xlink:href="d__a__alink_8h.html" target="_top" xlink:title=" ">
<polygon fill="white" stroke="#666666" points="2957.33,-228 2841.33,-228 2841.33,-209 2957.33,-209 2957.33,-228"/>
<text text-anchor="middle" x="2899.33" y="-216" font-family="Helvetica,sans-Serif" font-size="10.00">include/d/a/d_a_alink.h</text>
</a>
</g>
</g>
<!-- Node1&#45;&gt;Node2 -->
<g id="edge1" class="edge">
<title>Node1&#45;&gt;Node2</title>
<path fill="none" stroke="#63b8ff" d="M2976.39,-258.4C2957.49,-248.86 2933.1,-236.55 2916.87,-228.36"/>
<polygon fill="#63b8ff" stroke="#63b8ff" points="2974.66,-261.45 2985.16,-262.83 2977.81,-255.2 2974.66,-261.45"/>
</g>
<!-- Node3 -->
<g id="node3" class="node">
<title>Node3</title>
<g id="a_node3"><a xlink:href="d__com__inf__game_8h.html" target="_top" xlink:title=" ">
<polygon fill="#fff0f0" stroke="red" points="2975.33,-173 2865.33,-173 2865.33,-143 2975.33,-143 2975.33,-173"/>
<text text-anchor="start" x="2873.33" y="-161" font-family="Helvetica,sans-Serif" font-size="10.00">include/d/com/d_com</text>
<text text-anchor="middle" x="2920.33" y="-150" font-family="Helvetica,sans-Serif" font-size="10.00">_inf_game.h</text>
</a>
</g>
</g>
<!-- Node1&#45;&gt;Node3 -->
<g id="edge59" class="edge">
<title>Node1&#45;&gt;Node3</title>
<path fill="none" stroke="#63b8ff" d="M2994.26,-253.42C2987.1,-240.46 2976.91,-223.17 2966.33,-209 2956.73,-196.15 2944.34,-182.84 2934.84,-173.19"/>
<polygon fill="#63b8ff" stroke="#63b8ff" points="2991.15,-255.04 2998.98,-262.18 2997.31,-251.72 2991.15,-255.04"/>
</g>
<!-- Node148 -->
<g id="node49" class="node">
<title>Node148</title>
<g id="a_node49"><a xlink:href="d__attention_8cpp.html" target="_top" xlink:title=" ">
<polygon fill="white" stroke="#666666" points="5519.83,-96 5412.83,-96 5412.83,-77 5519.83,-77 5519.83,-96"/>
<text text-anchor="middle" x="5466.33" y="-84" font-family="Helvetica,sans-Serif" font-size="10.00">src/d/d_attention.cpp</text>
</a>
</g>
</g>
<!-- Node1&#45;&gt;Node148 -->
<g id="edge61" class="edge">
<title>Node1&#45;&gt;Node148</title>
<path fill="none" stroke="#63b8ff" d="M3010.33,-252.95C3016.01,-238.11 3026.13,-218.65 3042.33,-209 3267.99,-74.54 5145.6,-152.46 5404.33,-107 5417.33,-104.72 5431.4,-100.45 5442.84,-96.48"/>
<polygon fill="#63b8ff" stroke="#63b8ff" points="3007.1,-251.57 3007.18,-262.16 3013.73,-253.83 3007.1,-251.57"/>
</g>
<!-- Node182 -->
<g id="node50" class="node">
<title>Node182</title>
<g id="a_node50"><a xlink:href="d__att__dist_8cpp.html" target="_top" xlink:title=" ">
<polygon fill="white" stroke="#666666" points="3153.33,-228 3051.33,-228 3051.33,-209 3153.33,-209 3153.33,-228"/>
<text text-anchor="middle" x="3102.33" y="-216" font-family="Helvetica,sans-Serif" font-size="10.00">src/d/d_att_dist.cpp</text>
</a>
</g>
</g>
<!-- Node1&#45;&gt;Node182 -->
<g id="edge60" class="edge">
<title>Node1&#45;&gt;Node182</title>
<path fill="none" stroke="#63b8ff" d="M3030.64,-258.27C3048.25,-248.74 3070.87,-236.51 3085.95,-228.36"/>
<polygon fill="#63b8ff" stroke="#63b8ff" points="3029.41,-254.95 3022.28,-262.79 3032.74,-261.11 3029.41,-254.95"/>
</g>
<!-- Node2&#45;&gt;Node3 -->
<g id="edge2" class="edge">
<title>Node2&#45;&gt;Node3</title>
<path fill="none" stroke="#63b8ff" d="M2906.29,-198.08C2909.22,-189.92 2912.57,-180.6 2915.26,-173.11"/>
<polygon fill="#63b8ff" stroke="#63b8ff" points="2903.02,-196.85 2902.94,-207.44 2909.61,-199.21 2903.02,-196.85"/>
</g>
<!-- Node15 -->
<g id="node11" class="node">
<title>Node15</title>
<g id="a_node11"><a xlink:href="d__a__alink_8cpp.html" target="_top" xlink:title=" ">
<polygon fill="white" stroke="#666666" points="511.83,-24.5 402.83,-24.5 402.83,-5.5 511.83,-5.5 511.83,-24.5"/>
<text text-anchor="middle" x="457.33" y="-12.5" font-family="Helvetica,sans-Serif" font-size="10.00">src/d/a/d_a_alink.cpp</text>
</a>
</g>
</g>
<!-- Node2&#45;&gt;Node15 -->
<g id="edge58" class="edge">
<title>Node2&#45;&gt;Node15</title>
<path fill="none" stroke="#63b8ff" d="M2829.57,-217.53C2398.31,-217.41 110.22,-211.83 9.33,-107 -3.31,-93.87 -2.82,-79.58 9.33,-66 35.15,-37.13 289.02,-23.01 402.73,-18.09"/>
<polygon fill="#63b8ff" stroke="#63b8ff" points="2829.38,-221.03 2839.39,-217.54 2829.39,-214.03 2829.38,-221.03"/>
</g>
<!-- Node4 -->
<g id="node4" class="node">
<title>Node4</title>
<g id="a_node4"><a xlink:href="d__a__npc_8h.html" target="_top" xlink:title=" ">
<polygon fill="#fff0f0" stroke="red" points="2780.83,-24.5 2669.83,-24.5 2669.83,-5.5 2780.83,-5.5 2780.83,-24.5"/>
<text text-anchor="middle" x="2725.33" y="-12.5" font-family="Helvetica,sans-Serif" font-size="10.00">include/d/a/d_a_npc.h</text>
</a>
</g>
</g>
<!-- Node3&#45;&gt;Node4 -->
<g id="edge3" class="edge">
<title>Node3&#45;&gt;Node4</title>
<path fill="none" stroke="#63b8ff" d="M2987.03,-145.5C2994.54,-144.51 3002.08,-143.64 3009.33,-143 3060.06,-138.53 4806.67,-143.36 4842.33,-107 4855.08,-93.99 4855.06,-79.04 4842.33,-66 4805.25,-28.04 3112.29,-17.88 2781.16,-16.25"/>
<polygon fill="#63b8ff" stroke="#63b8ff" points="2986.64,-142.02 2977.23,-146.88 2987.62,-148.95 2986.64,-142.02"/>
</g>
<!-- Node10 -->
<g id="node5" class="node">
<title>Node10</title>
<g id="a_node5"><a xlink:href="d__cc__uty_8h.html" target="_top" xlink:title=" ">
<polygon fill="#fff0f0" stroke="red" points="5046.83,-96 4927.83,-96 4927.83,-77 5046.83,-77 5046.83,-96"/>
<text text-anchor="middle" x="4987.33" y="-84" font-family="Helvetica,sans-Serif" font-size="10.00">include/d/cc/d_cc_uty.h</text>
</a>
</g>
</g>
<!-- Node3&#45;&gt;Node10 -->
<g id="edge4" class="edge">
<title>Node3&#45;&gt;Node10</title>
<path fill="none" stroke="#63b8ff" d="M2987.03,-145.49C2994.54,-144.5 3002.08,-143.64 3009.33,-143 3430.89,-106.03 4494.18,-165.33 4913.33,-107 4928.98,-104.82 4946.08,-100.45 4959.88,-96.4"/>
<polygon fill="#63b8ff" stroke="#63b8ff" points="2986.64,-142.01 2977.23,-146.87 2987.62,-148.95 2986.64,-142.01"/>
</g>
<!-- Node11 -->
<g id="node6" class="node">
<title>Node11</title>
<g id="a_node6"><a xlink:href="d__a__b__ob_8h.html" target="_top" xlink:title=" ">
<polygon fill="#fff0f0" stroke="red" points="4933.33,-30 4827.33,-30 4827.33,0 4933.33,0 4933.33,-30"/>
<text text-anchor="start" x="4835.33" y="-18" font-family="Helvetica,sans-Serif" font-size="10.00">include/rel/d/a/b/d</text>
<text text-anchor="middle" x="4880.33" y="-7" font-family="Helvetica,sans-Serif" font-size="10.00">_a_b_ob/d_a_b_ob.h</text>
</a>
</g>
</g>
<!-- Node3&#45;&gt;Node11 -->
<g id="edge27" class="edge">
<title>Node3&#45;&gt;Node11</title>
<path fill="none" stroke="#63b8ff" d="M2987.03,-145.5C2994.54,-144.5 3002.08,-143.64 3009.33,-143 3060.55,-138.49 4820.56,-139.61 4860.33,-107 4882.84,-88.53 4883.58,-51.05 4882.04,-30.42"/>
<polygon fill="#63b8ff" stroke="#63b8ff" points="2986.64,-142.02 2977.23,-146.88 2987.62,-148.95 2986.64,-142.02"/>
</g>
<!-- Node17 -->
<g id="node7" class="node">
<title>Node17</title>
<g id="a_node7"><a xlink:href="d__a__e__yk_8h.html" target="_top" xlink:title=" ">
<polygon fill="white" stroke="#666666" points="5055.33,-30 4951.33,-30 4951.33,0 5055.33,0 5055.33,-30"/>
<text text-anchor="start" x="4959.33" y="-18" font-family="Helvetica,sans-Serif" font-size="10.00">include/rel/d/a/e/d</text>
<text text-anchor="middle" x="5003.33" y="-7" font-family="Helvetica,sans-Serif" font-size="10.00">_a_e_yk/d_a_e_yk.h</text>
</a>
</g>
</g>
<!-- Node3&#45;&gt;Node17 -->
<g id="edge42" class="edge">
<title>Node3&#45;&gt;Node17</title>
<path fill="none" stroke="#63b8ff" d="M2987.03,-145.48C2994.53,-144.49 3002.08,-143.63 3009.33,-143 3065.98,-138.07 5016.47,-147.57 5056.33,-107 5069.1,-94 5063.54,-82.73 5056.33,-66 5050.06,-51.48 5037.28,-39.22 5025.84,-30.47"/>
<polygon fill="#63b8ff" stroke="#63b8ff" points="2986.64,-142 2977.23,-146.86 2987.62,-148.94 2986.64,-142"/>
</g>
<!-- Node18 -->
<g id="node8" class="node">
<title>Node18</title>
<g id="a_node8"><a xlink:href="d__a__e__ym_8h.html" target="_top" xlink:title=" ">
<polygon fill="#fff0f0" stroke="red" points="5183.33,-30 5073.33,-30 5073.33,0 5183.33,0 5183.33,-30"/>
<text text-anchor="start" x="5081.33" y="-18" font-family="Helvetica,sans-Serif" font-size="10.00">include/rel/d/a/e/d</text>
<text text-anchor="middle" x="5128.33" y="-7" font-family="Helvetica,sans-Serif" font-size="10.00">_a_e_ym/d_a_e_ym.h</text>
</a>
</g>
</g>
<!-- Node3&#45;&gt;Node18 -->
<g id="edge43" class="edge">
<title>Node3&#45;&gt;Node18</title>
<path fill="none" stroke="#63b8ff" d="M2987.03,-145.48C2994.53,-144.49 3002.08,-143.63 3009.33,-143 3123.58,-133.07 4973.93,-164.21 5073.33,-107 5102.44,-90.24 5117.96,-51.32 5124.49,-30.21"/>
<polygon fill="#63b8ff" stroke="#63b8ff" points="2986.64,-142 2977.23,-146.86 2987.62,-148.94 2986.64,-142"/>
</g>
<!-- Node21 -->
<g id="node9" class="node">
<title>Node21</title>
<g id="a_node9"><a xlink:href="d__error__msg_8h.html" target="_top" xlink:title=" ">
<polygon fill="#fff0f0" stroke="red" points="151.33,-96 31.33,-96 31.33,-77 151.33,-77 151.33,-96"/>
<text text-anchor="middle" x="91.33" y="-84" font-family="Helvetica,sans-Serif" font-size="10.00">include/d/d_error_msg.h</text>
</a>
</g>
</g>
<!-- Node3&#45;&gt;Node21 -->
<g id="edge8" class="edge">
<title>Node3&#45;&gt;Node21</title>
<path fill="none" stroke="#63b8ff" d="M2853.58,-156.82C2458.49,-155.61 433.94,-147.45 160.33,-107 145.67,-104.83 129.73,-100.47 116.87,-96.42"/>
<polygon fill="#63b8ff" stroke="#63b8ff" points="2853.54,-160.32 2863.55,-156.85 2853.56,-153.32 2853.54,-160.32"/>
</g>
<!-- Node24 -->
<g id="node10" class="node">
<title>Node24</title>
<g id="a_node10"><a xlink:href="d__item_8h.html" target="_top" xlink:title=" ">
<polygon fill="#fff0f0" stroke="red" points="504.83,-96 409.83,-96 409.83,-77 504.83,-77 504.83,-96"/>
<text text-anchor="middle" x="457.33" y="-84" font-family="Helvetica,sans-Serif" font-size="10.00">include/d/d_item.h</text>
</a>
</g>
</g>
<!-- Node3&#45;&gt;Node24 -->
<g id="edge9" class="edge">
<title>Node3&#45;&gt;Node24</title>
<path fill="none" stroke="#63b8ff" d="M2853.6,-156.84C2489.46,-155.8 749.87,-148.69 514.33,-107 502.07,-104.83 488.89,-100.46 478.3,-96.41"/>
<polygon fill="#63b8ff" stroke="#63b8ff" points="2853.45,-160.34 2863.46,-156.87 2853.47,-153.34 2853.45,-160.34"/>
</g>
<!-- Node3&#45;&gt;Node15 -->
<g id="edge56" class="edge">
<title>Node3&#45;&gt;Node15</title>
<path fill="none" stroke="#63b8ff" d="M2853.9,-157.13C2425.97,-157.81 73.62,-159.19 22.33,-107 9.55,-94 10.2,-79.6 22.33,-66 47.24,-38.06 291.41,-23.51 402.63,-18.29"/>
<polygon fill="#63b8ff" stroke="#63b8ff" points="2853.61,-160.63 2863.61,-157.11 2853.6,-153.63 2853.61,-160.63"/>
</g>
<!-- Node29 -->
<g id="node12" class="node">
<title>Node29</title>
<g id="a_node12"><a xlink:href="d__kantera__icon__meter_8h.html" target="_top" xlink:title=" ">
<polygon fill="#fff0f0" stroke="red" points="270.83,-101.5 169.83,-101.5 169.83,-71.5 270.83,-71.5 270.83,-101.5"/>
<text text-anchor="start" x="177.83" y="-89.5" font-family="Helvetica,sans-Serif" font-size="10.00">include/d/d_kantera</text>
<text text-anchor="middle" x="220.33" y="-78.5" font-family="Helvetica,sans-Serif" font-size="10.00">_icon_meter.h</text>
</a>
</g>
</g>
<!-- Node3&#45;&gt;Node29 -->
<g id="edge11" class="edge">
<title>Node3&#45;&gt;Node29</title>
<path fill="none" stroke="#63b8ff" d="M2853.39,-156.93C2467.93,-156.38 539.53,-151.42 279.33,-107 272.52,-105.84 265.43,-104.04 258.62,-101.99"/>
<polygon fill="#63b8ff" stroke="#63b8ff" points="2853.35,-160.43 2863.35,-156.95 2853.36,-153.43 2853.35,-160.43"/>
</g>
<!-- Node32 -->
<g id="node13" class="node">
<title>Node32</title>
<g id="a_node13"><a xlink:href="d__model_8h.html" target="_top" xlink:title=" ">
<polygon fill="#fff0f0" stroke="red" points="391.83,-96 288.83,-96 288.83,-77 391.83,-77 391.83,-96"/>
<text text-anchor="middle" x="340.33" y="-84" font-family="Helvetica,sans-Serif" font-size="10.00">include/d/d_model.h</text>
</a>
</g>
</g>
<!-- Node3&#45;&gt;Node32 -->
<g id="edge12" class="edge">
<title>Node3&#45;&gt;Node32</title>
<path fill="none" stroke="#63b8ff" d="M2853.48,-156.85C2478.88,-155.83 648.03,-148.76 400.33,-107 387.47,-104.83 373.6,-100.47 362.44,-96.41"/>
<polygon fill="#63b8ff" stroke="#63b8ff" points="2853.39,-160.35 2863.4,-156.87 2853.41,-153.35 2853.39,-160.35"/>
</g>
<!-- Node34 -->
<g id="node14" class="node">
<title>Node34</title>
<g id="a_node14"><a xlink:href="d__name_8h.html" target="_top" xlink:title=" ">
<polygon fill="#fff0f0" stroke="red" points="5394.83,-96 5293.83,-96 5293.83,-77 5394.83,-77 5394.83,-96"/>
<text text-anchor="middle" x="5344.33" y="-84" font-family="Helvetica,sans-Serif" font-size="10.00">include/d/d_name.h</text>
</a>
</g>
</g>
<!-- Node3&#45;&gt;Node34 -->
<g id="edge13" class="edge">
<title>Node3&#45;&gt;Node34</title>
<path fill="none" stroke="#63b8ff" d="M2987.03,-145.47C2994.53,-144.48 3002.08,-143.62 3009.33,-143 3511.97,-99.7 4780.76,-184.22 5279.33,-107 5293.18,-104.85 5308.2,-100.49 5320.31,-96.43"/>
<polygon fill="#63b8ff" stroke="#63b8ff" points="2986.64,-141.99 2977.22,-146.85 2987.61,-148.92 2986.64,-141.99"/>
</g>
<!-- Node35 -->
<g id="node15" class="node">
<title>Node35</title>
<g id="a_node15"><a xlink:href="d__file__select_8h.html" target="_top" xlink:title=" ">
<polygon fill="#fff0f0" stroke="red" points="5313.33,-30 5217.33,-30 5217.33,0 5313.33,0 5313.33,-30"/>
<text text-anchor="start" x="5225.33" y="-18" font-family="Helvetica,sans-Serif" font-size="10.00">include/d/file/d_file</text>
<text text-anchor="middle" x="5265.33" y="-7" font-family="Helvetica,sans-Serif" font-size="10.00">_select.h</text>
</a>
</g>
</g>
<!-- Node3&#45;&gt;Node35 -->
<g id="edge18" class="edge">
<title>Node3&#45;&gt;Node35</title>
<path fill="none" stroke="#63b8ff" d="M2987.03,-145.47C2994.53,-144.48 3002.08,-143.62 3009.33,-143 3071.24,-137.66 5198.42,-146.58 5246.33,-107 5268.72,-88.5 5269.02,-51.02 5267.22,-30.41"/>
<polygon fill="#63b8ff" stroke="#63b8ff" points="2986.64,-141.99 2977.22,-146.85 2987.61,-148.93 2986.64,-141.99"/>
</g>
<!-- Node38 -->
<g id="node16" class="node">
<title>Node38</title>
<g id="a_node16"><a xlink:href="d__file__sel__info_8h.html" target="_top" xlink:title=" ">
<polygon fill="#fff0f0" stroke="red" points="881.33,-101.5 785.33,-101.5 785.33,-71.5 881.33,-71.5 881.33,-101.5"/>
<text text-anchor="start" x="793.33" y="-89.5" font-family="Helvetica,sans-Serif" font-size="10.00">include/d/file/d_file</text>
<text text-anchor="middle" x="833.33" y="-78.5" font-family="Helvetica,sans-Serif" font-size="10.00">_sel_info.h</text>
</a>
</g>
</g>
<!-- Node3&#45;&gt;Node38 -->
<g id="edge15" class="edge">
<title>Node3&#45;&gt;Node38</title>
<path fill="none" stroke="#63b8ff" d="M2853.77,-156.56C2525.52,-154.25 1086.88,-142.18 890.33,-107 883.74,-105.82 876.88,-104.01 870.3,-101.96"/>
<polygon fill="#63b8ff" stroke="#63b8ff" points="2853.44,-160.06 2863.46,-156.63 2853.49,-153.06 2853.44,-160.06"/>
</g>
<!-- Node41 -->
<g id="node17" class="node">
<title>Node41</title>
<g id="a_node17"><a xlink:href="d__file__sel__warning_8h.html" target="_top" xlink:title=" ">
<polygon fill="#fff0f0" stroke="red" points="5237.33,-101.5 5141.33,-101.5 5141.33,-71.5 5237.33,-71.5 5237.33,-101.5"/>
<text text-anchor="start" x="5149.33" y="-89.5" font-family="Helvetica,sans-Serif" font-size="10.00">include/d/file/d_file</text>
<text text-anchor="middle" x="5189.33" y="-78.5" font-family="Helvetica,sans-Serif" font-size="10.00">_sel_warning.h</text>
</a>
</g>
</g>
<!-- Node3&#45;&gt;Node41 -->
<g id="edge16" class="edge">
<title>Node3&#45;&gt;Node41</title>
<path fill="none" stroke="#63b8ff" d="M2987.03,-145.48C2994.53,-144.49 3002.08,-143.63 3009.33,-143 3478.3,-102.33 4662.67,-182.4 5127.33,-107 5134.56,-105.83 5142.13,-103.99 5149.38,-101.91"/>
<polygon fill="#63b8ff" stroke="#63b8ff" points="2986.64,-142 2977.23,-146.86 2987.61,-148.93 2986.64,-142"/>
</g>
<!-- Node43 -->
<g id="node18" class="node">
<title>Node43</title>
<g id="a_node18"><a xlink:href="d__menu__calibration_8h.html" target="_top" xlink:title=" ">
<polygon fill="#fff0f0" stroke="red" points="1019.33,-101.5 899.33,-101.5 899.33,-71.5 1019.33,-71.5 1019.33,-101.5"/>
<text text-anchor="start" x="907.33" y="-89.5" font-family="Helvetica,sans-Serif" font-size="10.00">include/d/menu/d_menu</text>
<text text-anchor="middle" x="959.33" y="-78.5" font-family="Helvetica,sans-Serif" font-size="10.00">_calibration.h</text>
</a>
</g>
</g>
<!-- Node3&#45;&gt;Node43 -->
<g id="edge19" class="edge">
<title>Node3&#45;&gt;Node43</title>
<path fill="none" stroke="#63b8ff" d="M2853.8,-156.22C2539.56,-152.43 1211.43,-134.85 1028.33,-107 1020.45,-105.8 1012.2,-103.98 1004.25,-101.93"/>
<polygon fill="#63b8ff" stroke="#63b8ff" points="2853.43,-159.72 2863.47,-156.34 2853.51,-152.72 2853.43,-159.72"/>
</g>
<!-- Node45 -->
<g id="node19" class="node">
<title>Node45</title>
<g id="a_node19"><a xlink:href="d__meter2_8h.html" target="_top" xlink:title=" ">
<polygon fill="#fff0f0" stroke="red" points="1171.33,-96 1037.33,-96 1037.33,-77 1171.33,-77 1171.33,-96"/>
<text text-anchor="middle" x="1104.33" y="-84" font-family="Helvetica,sans-Serif" font-size="10.00">include/d/meter/d_meter2.h</text>
</a>
</g>
</g>
<!-- Node3&#45;&gt;Node45 -->
<g id="edge20" class="edge">
<title>Node3&#45;&gt;Node45</title>
<path fill="none" stroke="#63b8ff" d="M2853.74,-157.06C2576.46,-157.03 1512.4,-153.78 1180.33,-107 1164.41,-104.76 1147.02,-100.44 1132.89,-96.44"/>
<polygon fill="#63b8ff" stroke="#63b8ff" points="2853.69,-160.56 2863.69,-157.06 2853.69,-153.56 2853.69,-160.56"/>
</g>
<!-- Node55 -->
<g id="node20" class="node">
<title>Node55</title>
<g id="a_node20"><a xlink:href="d__msg__object_8h.html" target="_top" xlink:title=" ">
<polygon fill="#fff0f0" stroke="red" points="767.33,-101.5 657.33,-101.5 657.33,-71.5 767.33,-71.5 767.33,-101.5"/>
<text text-anchor="start" x="665.33" y="-89.5" font-family="Helvetica,sans-Serif" font-size="10.00">include/d/msg/d_msg</text>
<text text-anchor="middle" x="712.33" y="-78.5" font-family="Helvetica,sans-Serif" font-size="10.00">_object.h</text>
</a>
</g>
</g>
<!-- Node3&#45;&gt;Node55 -->
<g id="edge21" class="edge">
<title>Node3&#45;&gt;Node55</title>
<path fill="none" stroke="#63b8ff" d="M2853.68,-156.52C2514.2,-153.96 985.27,-140.62 776.33,-107 768.99,-105.82 761.32,-104.01 753.94,-101.96"/>
<polygon fill="#63b8ff" stroke="#63b8ff" points="2853.47,-160.02 2863.5,-156.6 2853.53,-153.02 2853.47,-160.02"/>
</g>
<!-- Node74 -->
<g id="node21" class="node">
<title>Node74</title>
<g id="a_node21"><a xlink:href="d__s__logo_8h.html" target="_top" xlink:title=" ">
<polygon fill="#fff0f0" stroke="red" points="1302.83,-96 1189.83,-96 1189.83,-77 1302.83,-77 1302.83,-96"/>
<text text-anchor="middle" x="1246.33" y="-84" font-family="Helvetica,sans-Serif" font-size="10.00">include/d/s/d_s_logo.h</text>
</a>
</g>
</g>
<!-- Node3&#45;&gt;Node74 -->
<g id="edge24" class="edge">
<title>Node3&#45;&gt;Node74</title>
<path fill="none" stroke="#63b8ff" d="M2853.53,-157.24C2589.12,-157.81 1615.41,-156.47 1311.33,-107 1297.6,-104.77 1282.72,-100.45 1270.66,-96.44"/>
<polygon fill="#63b8ff" stroke="#63b8ff" points="2853.34,-160.74 2863.33,-157.21 2853.32,-153.74 2853.34,-160.74"/>
</g>
<!-- Node76 -->
<g id="node22" class="node">
<title>Node76</title>
<g id="a_node22"><a xlink:href="d__s__play_8h.html" target="_top" xlink:title=" ">
<polygon fill="#fff0f0" stroke="red" points="1433.83,-96 1320.83,-96 1320.83,-77 1433.83,-77 1433.83,-96"/>
<text text-anchor="middle" x="1377.33" y="-84" font-family="Helvetica,sans-Serif" font-size="10.00">include/d/s/d_s_play.h</text>
</a>
</g>
</g>
<!-- Node3&#45;&gt;Node76 -->
<g id="edge25" class="edge">
<title>Node3&#45;&gt;Node76</title>
<path fill="none" stroke="#63b8ff" d="M2853.67,-157.02C2603.35,-156.75 1719.62,-152.5 1442.33,-107 1428.61,-104.75 1413.72,-100.43 1401.67,-96.43"/>
<polygon fill="#63b8ff" stroke="#63b8ff" points="2853.59,-160.52 2863.59,-157.03 2853.6,-153.52 2853.59,-160.52"/>
</g>
<!-- Node83 -->
<g id="node23" class="node">
<title>Node83</title>
<g id="a_node23"><a xlink:href="d__msg__scrn__base_8h.html" target="_top" xlink:title=" ">
<polygon fill="#fff0f0" stroke="red" points="1550.83,-101.5 1451.83,-101.5 1451.83,-71.5 1550.83,-71.5 1550.83,-101.5"/>
<text text-anchor="start" x="1459.83" y="-89.5" font-family="Helvetica,sans-Serif" font-size="10.00">include/msg/scrn/d</text>
<text text-anchor="middle" x="1501.33" y="-78.5" font-family="Helvetica,sans-Serif" font-size="10.00">_msg_scrn_base.h</text>
</a>
</g>
</g>
<!-- Node3&#45;&gt;Node83 -->
<g id="edge26" class="edge">
<title>Node3&#45;&gt;Node83</title>
<path fill="none" stroke="#63b8ff" d="M2853.8,-157.08C2616.47,-156.97 1812.07,-153.13 1559.33,-107 1552.74,-105.8 1545.89,-104.01 1539.29,-101.99"/>
<polygon fill="#63b8ff" stroke="#63b8ff" points="2853.48,-160.58 2863.48,-157.08 2853.49,-153.58 2853.48,-160.58"/>
</g>
<!-- Node87 -->
<g id="node24" class="node">
<title>Node87</title>
<g id="a_node24"><a xlink:href="d__a__b__zant_8h.html" target="_top" xlink:title=" ">
<polygon fill="white" stroke="#666666" points="1689.83,-101.5 1568.83,-101.5 1568.83,-71.5 1689.83,-71.5 1689.83,-101.5"/>
<text text-anchor="start" x="1576.83" y="-89.5" font-family="Helvetica,sans-Serif" font-size="10.00">include/rel/d/a/b/d</text>
<text text-anchor="middle" x="1629.33" y="-78.5" font-family="Helvetica,sans-Serif" font-size="10.00">_a_b_zant/d_a_b_zant.h</text>
</a>
</g>
</g>
<!-- Node3&#45;&gt;Node87 -->
<g id="edge28" class="edge">
<title>Node3&#45;&gt;Node87</title>
<path fill="none" stroke="#63b8ff" d="M2853.44,-156.29C2632.08,-153.63 1924.51,-142.49 1699.33,-107 1691.47,-105.76 1683.25,-103.95 1675.31,-101.93"/>
<polygon fill="#63b8ff" stroke="#63b8ff" points="2853.3,-159.79 2863.34,-156.41 2853.38,-152.79 2853.3,-159.79"/>
</g>
<!-- Node88 -->
<g id="node25" class="node">
<title>Node88</title>
<g id="a_node25"><a xlink:href="d__a__andsw_8h.html" target="_top" xlink:title=" ">
<polygon fill="white" stroke="#666666" points="1818.33,-101.5 1708.33,-101.5 1708.33,-71.5 1818.33,-71.5 1818.33,-101.5"/>
<text text-anchor="start" x="1716.33" y="-89.5" font-family="Helvetica,sans-Serif" font-size="10.00">include/rel/d/a/d_a</text>
<text text-anchor="middle" x="1763.33" y="-78.5" font-family="Helvetica,sans-Serif" font-size="10.00">_andsw/d_a_andsw.h</text>
</a>
</g>
</g>
<!-- Node3&#45;&gt;Node88 -->
<g id="edge29" class="edge">
<title>Node3&#45;&gt;Node88</title>
<path fill="none" stroke="#63b8ff" d="M2853.6,-156.13C2648.03,-153.11 2026.22,-141.29 1827.33,-107 1820.11,-105.76 1812.58,-103.94 1805.31,-101.92"/>
<polygon fill="#63b8ff" stroke="#63b8ff" points="2853.53,-159.63 2863.58,-156.27 2853.64,-152.63 2853.53,-159.63"/>
</g>
<!-- Node89 -->
<g id="node26" class="node">
<title>Node89</title>
<g id="a_node26"><a xlink:href="d__a__cstaF_8h.html" target="_top" xlink:title=" ">
<polygon fill="white" stroke="#666666" points="1939.83,-101.5 1836.83,-101.5 1836.83,-71.5 1939.83,-71.5 1939.83,-101.5"/>
<text text-anchor="start" x="1844.83" y="-89.5" font-family="Helvetica,sans-Serif" font-size="10.00">include/rel/d/a/d_a</text>
<text text-anchor="middle" x="1888.33" y="-78.5" font-family="Helvetica,sans-Serif" font-size="10.00">_cstaF/d_a_cstaF.h</text>
</a>
</g>
</g>
<!-- Node3&#45;&gt;Node89 -->
<g id="edge30" class="edge">
<title>Node3&#45;&gt;Node89</title>
<path fill="none" stroke="#63b8ff" d="M2853.37,-155.8C2663.38,-152.03 2123.37,-138.75 1949.33,-107 1942.54,-105.76 1935.47,-103.98 1928.64,-101.99"/>
<polygon fill="#63b8ff" stroke="#63b8ff" points="2853.26,-159.3 2863.33,-155.99 2853.4,-152.3 2853.26,-159.3"/>
</g>
<!-- Node90 -->
<g id="node27" class="node">
<title>Node90</title>
<g id="a_node27"><a xlink:href="d__a__dmidna_8h.html" target="_top" xlink:title=" ">
<polygon fill="white" stroke="#666666" points="2074.33,-101.5 1958.33,-101.5 1958.33,-71.5 2074.33,-71.5 2074.33,-101.5"/>
<text text-anchor="start" x="1966.33" y="-89.5" font-family="Helvetica,sans-Serif" font-size="10.00">include/rel/d/a/d_a</text>
<text text-anchor="middle" x="2016.33" y="-78.5" font-family="Helvetica,sans-Serif" font-size="10.00">_dmidna/d_a_dmidna.h</text>
</a>
</g>
</g>
<!-- Node3&#45;&gt;Node90 -->
<g id="edge31" class="edge">
<title>Node3&#45;&gt;Node90</title>
<path fill="none" stroke="#63b8ff" d="M2853.65,-154.94C2682.55,-149.35 2230.99,-132.57 2083.33,-107 2075.92,-105.72 2068.18,-103.91 2060.69,-101.92"/>
<polygon fill="#63b8ff" stroke="#63b8ff" points="2853.38,-158.43 2863.48,-155.26 2853.6,-151.44 2853.38,-158.43"/>
</g>
<!-- Node91 -->
<g id="node28" class="node">
<title>Node91</title>
<g id="a_node28"><a xlink:href="d__a__econt_8h.html" target="_top" xlink:title=" ">
<polygon fill="white" stroke="#666666" points="2193.83,-101.5 2092.83,-101.5 2092.83,-71.5 2193.83,-71.5 2193.83,-101.5"/>
<text text-anchor="start" x="2100.83" y="-89.5" font-family="Helvetica,sans-Serif" font-size="10.00">include/rel/d/a/d_a</text>
<text text-anchor="middle" x="2143.33" y="-78.5" font-family="Helvetica,sans-Serif" font-size="10.00">_econt/d_a_econt.h</text>
</a>
</g>
</g>
<!-- Node3&#45;&gt;Node91 -->
<g id="edge32" class="edge">
<title>Node3&#45;&gt;Node91</title>
<path fill="none" stroke="#63b8ff" d="M2853.74,-157.87C2726.08,-158.33 2438.62,-153.51 2202.33,-107 2195.87,-105.73 2189.14,-103.96 2182.63,-101.99"/>
<polygon fill="#63b8ff" stroke="#63b8ff" points="2853.72,-161.37 2863.71,-157.82 2853.69,-154.37 2853.72,-161.37"/>
</g>
<!-- Node92 -->
<g id="node29" class="node">
<title>Node92</title>
<g id="a_node29"><a xlink:href="d__a__guard__mng_8h.html" target="_top" xlink:title=" ">
<polygon fill="white" stroke="#666666" points="2360.83,-101.5 2211.83,-101.5 2211.83,-71.5 2360.83,-71.5 2360.83,-101.5"/>
<text text-anchor="start" x="2219.83" y="-89.5" font-family="Helvetica,sans-Serif" font-size="10.00">include/rel/d/a/d_a</text>
<text text-anchor="middle" x="2286.33" y="-78.5" font-family="Helvetica,sans-Serif" font-size="10.00">_guard_mng/d_a_guard_mng.h</text>
</a>
</g>
</g>
<!-- Node3&#45;&gt;Node92 -->
<g id="edge33" class="edge">
<title>Node3&#45;&gt;Node92</title>
<path fill="none" stroke="#63b8ff" d="M2853.74,-153.91C2749.94,-148.42 2543.46,-134.83 2370.33,-107 2361.75,-105.62 2352.75,-103.87 2343.96,-101.98"/>
<polygon fill="#63b8ff" stroke="#63b8ff" points="2853.3,-157.39 2863.46,-154.41 2853.66,-150.4 2853.3,-157.39"/>
</g>
<!-- Node93 -->
<g id="node30" class="node">
<title>Node93</title>
<g id="a_node30"><a xlink:href="d__a__hitobj_8h.html" target="_top" xlink:title=" ">
<polygon fill="white" stroke="#666666" points="2479.33,-101.5 2379.33,-101.5 2379.33,-71.5 2479.33,-71.5 2479.33,-101.5"/>
<text text-anchor="start" x="2387.33" y="-89.5" font-family="Helvetica,sans-Serif" font-size="10.00">include/rel/d/a/d_a</text>
<text text-anchor="middle" x="2429.33" y="-78.5" font-family="Helvetica,sans-Serif" font-size="10.00">_hitobj/d_a_hitobj.h</text>
</a>
</g>
</g>
<!-- Node3&#45;&gt;Node93 -->
<g id="edge34" class="edge">
<title>Node3&#45;&gt;Node93</title>
<path fill="none" stroke="#63b8ff" d="M2853.47,-153.5C2767.98,-148.06 2615.73,-135.12 2488.33,-107 2482.11,-105.63 2475.63,-103.85 2469.33,-101.93"/>
<polygon fill="#63b8ff" stroke="#63b8ff" points="2853.12,-156.98 2863.32,-154.11 2853.56,-150 2853.12,-156.98"/>
</g>
<!-- Node94 -->
<g id="node31" class="node">
<title>Node94</title>
<g id="a_node31"><a xlink:href="d__a__set__bgobj_8h.html" target="_top" xlink:title=" ">
<polygon fill="white" stroke="#666666" points="2634.83,-101.5 2497.83,-101.5 2497.83,-71.5 2634.83,-71.5 2634.83,-101.5"/>
<text text-anchor="start" x="2505.83" y="-89.5" font-family="Helvetica,sans-Serif" font-size="10.00">include/rel/d/a/d_a</text>
<text text-anchor="middle" x="2566.33" y="-78.5" font-family="Helvetica,sans-Serif" font-size="10.00">_set_bgobj/d_a_set_bgobj.h</text>
</a>
</g>
</g>
<!-- Node3&#45;&gt;Node94 -->
<g id="edge35" class="edge">
<title>Node3&#45;&gt;Node94</title>
<path fill="none" stroke="#63b8ff" d="M2853.67,-146.19C2797.62,-136.79 2715.47,-122.32 2644.33,-107 2637.09,-105.44 2629.51,-103.69 2622.04,-101.9"/>
<polygon fill="#63b8ff" stroke="#63b8ff" points="2852.94,-149.61 2863.38,-147.81 2854.09,-142.71 2852.94,-149.61"/>
</g>
<!-- Node95 -->
<g id="node32" class="node">
<title>Node95</title>
<g id="a_node32"><a xlink:href="d__a__skip__2D_8h.html" target="_top" xlink:title=" ">
<polygon fill="white" stroke="#666666" points="2777.33,-101.5 2653.33,-101.5 2653.33,-71.5 2777.33,-71.5 2777.33,-101.5"/>
<text text-anchor="start" x="2661.33" y="-89.5" font-family="Helvetica,sans-Serif" font-size="10.00">include/rel/d/a/d_a</text>
<text text-anchor="middle" x="2715.33" y="-78.5" font-family="Helvetica,sans-Serif" font-size="10.00">_skip_2D/d_a_skip_2D.h</text>
</a>
</g>
</g>
<!-- Node3&#45;&gt;Node95 -->
<g id="edge36" class="edge">
<title>Node3&#45;&gt;Node95</title>
<path fill="none" stroke="#63b8ff" d="M2867.15,-138.97C2833.09,-127.42 2789.48,-112.64 2757.75,-101.88"/>
<polygon fill="#63b8ff" stroke="#63b8ff" points="2865.82,-142.22 2876.42,-142.11 2868.07,-135.59 2865.82,-142.22"/>
</g>
<!-- Node96 -->
<g id="node33" class="node">
<title>Node96</title>
<g id="a_node33"><a xlink:href="d__a__spinner_8h.html" target="_top" xlink:title=" ">
<polygon fill="#fff0f0" stroke="red" points="639.33,-101.5 523.33,-101.5 523.33,-71.5 639.33,-71.5 639.33,-101.5"/>
<text text-anchor="start" x="531.33" y="-89.5" font-family="Helvetica,sans-Serif" font-size="10.00">include/rel/d/a/d_a</text>
<text text-anchor="middle" x="581.33" y="-78.5" font-family="Helvetica,sans-Serif" font-size="10.00">_spinner/d_a_spinner.h</text>
</a>
</g>
</g>
<!-- Node3&#45;&gt;Node96 -->
<g id="edge37" class="edge">
<title>Node3&#45;&gt;Node96</title>
<path fill="none" stroke="#63b8ff" d="M2853.44,-156.57C2501.39,-154.16 870.75,-141.21 648.33,-107 640.66,-105.82 632.64,-104.01 624.92,-101.96"/>
<polygon fill="#63b8ff" stroke="#63b8ff" points="2853.4,-160.07 2863.43,-156.64 2853.45,-153.07 2853.4,-160.07"/>
</g>
<!-- Node99 -->
<g id="node34" class="node">
<title>Node99</title>
<g id="a_node34"><a xlink:href="d__a__swTime_8h.html" target="_top" xlink:title=" ">
<polygon fill="white" stroke="#666666" points="2917.33,-101.5 2795.33,-101.5 2795.33,-71.5 2917.33,-71.5 2917.33,-101.5"/>
<text text-anchor="start" x="2803.33" y="-89.5" font-family="Helvetica,sans-Serif" font-size="10.00">include/rel/d/a/d_a</text>
<text text-anchor="middle" x="2856.33" y="-78.5" font-family="Helvetica,sans-Serif" font-size="10.00">_swTime/d_a_swTime.h</text>
</a>
</g>
</g>
<!-- Node3&#45;&gt;Node99 -->
<g id="edge39" class="edge">
<title>Node3&#45;&gt;Node99</title>
<path fill="none" stroke="#63b8ff" d="M2899.3,-134.17C2889.5,-123.53 2878.15,-111.2 2869.57,-101.88"/>
<polygon fill="#63b8ff" stroke="#63b8ff" points="2896.69,-136.5 2906.04,-141.49 2901.84,-131.76 2896.69,-136.5"/>
</g>
<!-- Node100 -->
<g id="node35" class="node">
<title>Node100</title>
<g id="a_node35"><a xlink:href="d__a__vrbox_8h.html" target="_top" xlink:title=" ">
<polygon fill="white" stroke="#666666" points="3035.33,-101.5 2935.33,-101.5 2935.33,-71.5 3035.33,-71.5 3035.33,-101.5"/>
<text text-anchor="start" x="2943.33" y="-89.5" font-family="Helvetica,sans-Serif" font-size="10.00">include/rel/d/a/d_a</text>
<text text-anchor="middle" x="2985.33" y="-78.5" font-family="Helvetica,sans-Serif" font-size="10.00">_vrbox/d_a_vrbox.h</text>
</a>
</g>
</g>
<!-- Node3&#45;&gt;Node100 -->
<g id="edge40" class="edge">
<title>Node3&#45;&gt;Node100</title>
<path fill="none" stroke="#63b8ff" d="M2941.38,-134.48C2951.4,-123.78 2963.08,-111.29 2971.87,-101.88"/>
<polygon fill="#63b8ff" stroke="#63b8ff" points="2939.1,-131.8 2934.83,-141.49 2944.21,-136.58 2939.1,-131.8"/>
</g>
<!-- Node101 -->
<g id="node36" class="node">
<title>Node101</title>
<g id="a_node36"><a xlink:href="d__a__e__db__leaf_8h.html" target="_top" xlink:title=" ">
<polygon fill="white" stroke="#666666" points="3172.83,-107 3053.83,-107 3053.83,-66 3172.83,-66 3172.83,-107"/>
<text text-anchor="start" x="3061.83" y="-95" font-family="Helvetica,sans-Serif" font-size="10.00">include/rel/d/a/e/d</text>
<text text-anchor="start" x="3061.83" y="-84" font-family="Helvetica,sans-Serif" font-size="10.00">_a_e_db_leaf/d_a_e_db</text>
<text text-anchor="middle" x="3113.33" y="-73" font-family="Helvetica,sans-Serif" font-size="10.00">_leaf.h</text>
</a>
</g>
</g>
<!-- Node3&#45;&gt;Node101 -->
<g id="edge41" class="edge">
<title>Node3&#45;&gt;Node101</title>
<path fill="none" stroke="#63b8ff" d="M2970.99,-138.75C2997.74,-129.12 3030.61,-117.29 3058.02,-107.42"/>
<polygon fill="#63b8ff" stroke="#63b8ff" points="2969.96,-135.41 2961.74,-142.09 2972.33,-141.99 2969.96,-135.41"/>
</g>
<!-- Node102 -->
<g id="node37" class="node">
<title>Node102</title>
<g id="a_node37"><a xlink:href="d__a__kytag02_8h.html" target="_top" xlink:title=" ">
<polygon fill="white" stroke="#666666" points="3331.33,-101.5 3191.33,-101.5 3191.33,-71.5 3331.33,-71.5 3331.33,-101.5"/>
<text text-anchor="start" x="3199.33" y="-89.5" font-family="Helvetica,sans-Serif" font-size="10.00">include/rel/d/a/kytag</text>
<text text-anchor="middle" x="3261.33" y="-78.5" font-family="Helvetica,sans-Serif" font-size="10.00">/d_a_kytag02/d_a_kytag02.h</text>
</a>
</g>
</g>
<!-- Node3&#45;&gt;Node102 -->
<g id="edge44" class="edge">
<title>Node3&#45;&gt;Node102</title>
<path fill="none" stroke="#63b8ff" d="M2987,-145.29C3040.07,-135.73 3116.16,-121.47 3182.33,-107 3189.5,-105.43 3197.02,-103.69 3204.45,-101.92"/>
<polygon fill="#63b8ff" stroke="#63b8ff" points="2986.42,-141.84 2977.19,-147.05 2987.65,-148.73 2986.42,-141.84"/>
</g>
<!-- Node103 -->
<g id="node38" class="node">
<title>Node103</title>
<g id="a_node38"><a xlink:href="d__a__obj__bombf_8h.html" target="_top" xlink:title=" ">
<polygon fill="white" stroke="#666666" points="3471.33,-107 3349.33,-107 3349.33,-66 3471.33,-66 3471.33,-107"/>
<text text-anchor="start" x="3357.33" y="-95" font-family="Helvetica,sans-Serif" font-size="10.00">include/rel/d/a/obj</text>
<text text-anchor="start" x="3357.33" y="-84" font-family="Helvetica,sans-Serif" font-size="10.00">/d_a_obj_bombf/d_a_obj</text>
<text text-anchor="middle" x="3410.33" y="-73" font-family="Helvetica,sans-Serif" font-size="10.00">_bombf.h</text>
</a>
</g>
</g>
<!-- Node3&#45;&gt;Node103 -->
<g id="edge45" class="edge">
<title>Node3&#45;&gt;Node103</title>
<path fill="none" stroke="#63b8ff" d="M2987.1,-146.14C2994.59,-145.03 3002.12,-143.96 3009.33,-143 3156.01,-123.5 3195.01,-134.95 3340.33,-107 3343.17,-106.45 3346.08,-105.85 3349,-105.19"/>
<polygon fill="#63b8ff" stroke="#63b8ff" points="2986.67,-142.67 2977.31,-147.63 2987.72,-149.59 2986.67,-142.67"/>
</g>
<!-- Node104 -->
<g id="node39" class="node">
<title>Node104</title>
<g id="a_node39"><a xlink:href="d__a__obj__cboard_8h.html" target="_top" xlink:title=" ">
<polygon fill="white" stroke="#666666" points="3596.83,-107 3489.83,-107 3489.83,-66 3596.83,-66 3596.83,-107"/>
<text text-anchor="start" x="3497.83" y="-95" font-family="Helvetica,sans-Serif" font-size="10.00">include/rel/d/a/obj</text>
<text text-anchor="start" x="3497.83" y="-84" font-family="Helvetica,sans-Serif" font-size="10.00">/d_a_obj_cboard/d_a</text>
<text text-anchor="middle" x="3543.33" y="-73" font-family="Helvetica,sans-Serif" font-size="10.00">_obj_cboard.h</text>
</a>
</g>
</g>
<!-- Node3&#45;&gt;Node104 -->
<g id="edge46" class="edge">
<title>Node3&#45;&gt;Node104</title>
<path fill="none" stroke="#63b8ff" d="M2987.08,-145.91C2994.57,-144.84 3002.1,-143.84 3009.33,-143 3217.85,-118.67 3274.09,-146.28 3480.33,-107 3483.36,-106.42 3486.46,-105.75 3489.57,-105.01"/>
<polygon fill="#63b8ff" stroke="#63b8ff" points="2986.66,-142.43 2977.28,-147.36 2987.68,-149.36 2986.66,-142.43"/>
</g>
<!-- Node105 -->
<g id="node40" class="node">
<title>Node105</title>
<g id="a_node40"><a xlink:href="d__a__obj__cowdoor_8h.html" target="_top" xlink:title=" ">
<polygon fill="white" stroke="#666666" points="3729.33,-107 3615.33,-107 3615.33,-66 3729.33,-66 3729.33,-107"/>
<text text-anchor="start" x="3623.33" y="-95" font-family="Helvetica,sans-Serif" font-size="10.00">include/rel/d/a/obj</text>
<text text-anchor="start" x="3623.33" y="-84" font-family="Helvetica,sans-Serif" font-size="10.00">/d_a_obj_cowdoor/d_a</text>
<text text-anchor="middle" x="3672.33" y="-73" font-family="Helvetica,sans-Serif" font-size="10.00">_obj_cowdoor.h</text>
</a>
</g>
</g>
<!-- Node3&#45;&gt;Node105 -->
<g id="edge47" class="edge">
<title>Node3&#45;&gt;Node105</title>
<path fill="none" stroke="#63b8ff" d="M2987.06,-145.79C2994.56,-144.75 3002.1,-143.78 3009.33,-143 3273.59,-114.31 3344.51,-152.95 3606.33,-107 3609.15,-106.5 3612.02,-105.93 3614.92,-105.3"/>
<polygon fill="#63b8ff" stroke="#63b8ff" points="2986.65,-142.32 2977.26,-147.22 2987.66,-149.24 2986.65,-142.32"/>
</g>
<!-- Node106 -->
<g id="node41" class="node">
<title>Node106</title>
<g id="a_node41"><a xlink:href="d__a__obj__enemy__create_8h.html" target="_top" xlink:title=" ">
<polygon fill="white" stroke="#666666" points="3874.83,-107 3747.83,-107 3747.83,-66 3874.83,-66 3874.83,-107"/>
<text text-anchor="start" x="3755.83" y="-95" font-family="Helvetica,sans-Serif" font-size="10.00">include/rel/d/a/obj</text>
<text text-anchor="start" x="3755.83" y="-84" font-family="Helvetica,sans-Serif" font-size="10.00">/d_a_obj_enemy_create</text>
<text text-anchor="middle" x="3811.33" y="-73" font-family="Helvetica,sans-Serif" font-size="10.00">/d_a_obj_enemy_create.h</text>
</a>
</g>
</g>
<!-- Node3&#45;&gt;Node106 -->
<g id="edge48" class="edge">
<title>Node3&#45;&gt;Node106</title>
<path fill="none" stroke="#63b8ff" d="M2987.05,-145.71C2994.55,-144.68 3002.09,-143.75 3009.33,-143 3332.01,-109.75 3417.83,-157.14 3738.33,-107 3741.31,-106.53 3744.34,-105.99 3747.39,-105.4"/>
<polygon fill="#63b8ff" stroke="#63b8ff" points="2986.65,-142.24 2977.25,-147.13 2987.65,-149.17 2986.65,-142.24"/>
</g>
<!-- Node107 -->
<g id="node42" class="node">
<title>Node107</title>
<g id="a_node42"><a xlink:href="d__a__obj__mgate_8h.html" target="_top" xlink:title=" ">
<polygon fill="white" stroke="#666666" points="4015.33,-107 3893.33,-107 3893.33,-66 4015.33,-66 4015.33,-107"/>
<text text-anchor="start" x="3901.33" y="-95" font-family="Helvetica,sans-Serif" font-size="10.00">include/rel/d/a/obj</text>
<text text-anchor="start" x="3901.33" y="-84" font-family="Helvetica,sans-Serif" font-size="10.00">/d_a_obj_mgate/d_a_obj</text>
<text text-anchor="middle" x="3954.33" y="-73" font-family="Helvetica,sans-Serif" font-size="10.00">_mgate.h</text>
</a>
</g>
</g>
<!-- Node3&#45;&gt;Node107 -->
<g id="edge49" class="edge">
<title>Node3&#45;&gt;Node107</title>
<path fill="none" stroke="#63b8ff" d="M2987.05,-145.65C2994.55,-144.63 3002.09,-143.72 3009.33,-143 3396.65,-104.7 3499.86,-167.63 3884.33,-107 3887.19,-106.55 3890.11,-106.02 3893.04,-105.43"/>
<polygon fill="#63b8ff" stroke="#63b8ff" points="2986.65,-142.18 2977.24,-147.06 2987.64,-149.11 2986.65,-142.18"/>
</g>
<!-- Node108 -->
<g id="node43" class="node">
<title>Node108</title>
<g id="a_node43"><a xlink:href="d__a__obj__onsenFire_8h.html" target="_top" xlink:title=" ">
<polygon fill="white" stroke="#666666" points="4143.33,-107 4033.33,-107 4033.33,-66 4143.33,-66 4143.33,-107"/>
<text text-anchor="start" x="4041.33" y="-95" font-family="Helvetica,sans-Serif" font-size="10.00">include/rel/d/a/obj</text>
<text text-anchor="start" x="4041.33" y="-84" font-family="Helvetica,sans-Serif" font-size="10.00">/d_a_obj_onsenFire/d</text>
<text text-anchor="middle" x="4088.33" y="-73" font-family="Helvetica,sans-Serif" font-size="10.00">_a_obj_onsenFire.h</text>
</a>
</g>
</g>
<!-- Node3&#45;&gt;Node108 -->
<g id="edge50" class="edge">
<title>Node3&#45;&gt;Node108</title>
<path fill="none" stroke="#63b8ff" d="M2987.04,-145.61C2994.54,-144.6 3002.09,-143.7 3009.33,-143 3458.65,-99.85 3579.11,-181.41 4024.33,-107 4027.19,-106.52 4030.1,-105.95 4033.03,-105.31"/>
<polygon fill="#63b8ff" stroke="#63b8ff" points="2986.65,-142.14 2977.24,-147.01 2987.63,-149.07 2986.65,-142.14"/>
</g>
<!-- Node109 -->
<g id="node44" class="node">
<title>Node109</title>
<g id="a_node44"><a xlink:href="d__a__obj__smoke_8h.html" target="_top" xlink:title=" ">
<polygon fill="white" stroke="#666666" points="4286.83,-107 4161.83,-107 4161.83,-66 4286.83,-66 4286.83,-107"/>
<text text-anchor="start" x="4169.83" y="-95" font-family="Helvetica,sans-Serif" font-size="10.00">include/rel/d/a/obj</text>
<text text-anchor="start" x="4169.83" y="-84" font-family="Helvetica,sans-Serif" font-size="10.00">/d_a_obj_smoke/d_a_obj</text>
<text text-anchor="middle" x="4224.33" y="-73" font-family="Helvetica,sans-Serif" font-size="10.00">_smoke.h</text>
</a>
</g>
</g>
<!-- Node3&#45;&gt;Node109 -->
<g id="edge51" class="edge">
<title>Node3&#45;&gt;Node109</title>
<path fill="none" stroke="#63b8ff" d="M2987.04,-145.58C2994.54,-144.58 3002.09,-143.68 3009.33,-143 3515.34,-95.42 3649.63,-181.94 4152.33,-107 4155.4,-106.54 4158.53,-106 4161.68,-105.39"/>
<polygon fill="#63b8ff" stroke="#63b8ff" points="2986.64,-142.11 2977.24,-146.98 2987.63,-149.04 2986.64,-142.11"/>
</g>
<!-- Node110 -->
<g id="node45" class="node">
<title>Node110</title>
<g id="a_node45"><a xlink:href="d__a__obj__stone_8h.html" target="_top" xlink:title=" ">
<polygon fill="white" stroke="#666666" points="4423.83,-107 4304.83,-107 4304.83,-66 4423.83,-66 4423.83,-107"/>
<text text-anchor="start" x="4312.83" y="-95" font-family="Helvetica,sans-Serif" font-size="10.00">include/rel/d/a/obj</text>
<text text-anchor="start" x="4312.83" y="-84" font-family="Helvetica,sans-Serif" font-size="10.00">/d_a_obj_stone/d_a_obj</text>
<text text-anchor="middle" x="4364.33" y="-73" font-family="Helvetica,sans-Serif" font-size="10.00">_stone.h</text>
</a>
</g>
</g>
<!-- Node3&#45;&gt;Node110 -->
<g id="edge52" class="edge">
<title>Node3&#45;&gt;Node110</title>
<path fill="none" stroke="#63b8ff" d="M2987.04,-145.56C2994.54,-144.55 3002.09,-143.67 3009.33,-143 3294.23,-116.72 4013.58,-150.78 4296.33,-107 4299,-106.59 4301.71,-106.1 4304.44,-105.56"/>
<polygon fill="#63b8ff" stroke="#63b8ff" points="2986.64,-142.08 2977.23,-146.95 2987.63,-149.01 2986.64,-142.08"/>
</g>
<!-- Node111 -->
<g id="node46" class="node">
<title>Node111</title>
<g id="a_node46"><a xlink:href="d__a__obj__stoneMark_8h.html" target="_top" xlink:title=" ">
<polygon fill="white" stroke="#666666" points="4554.83,-107 4441.83,-107 4441.83,-66 4554.83,-66 4554.83,-107"/>
<text text-anchor="start" x="4449.83" y="-95" font-family="Helvetica,sans-Serif" font-size="10.00">include/rel/d/a/obj</text>
<text text-anchor="start" x="4449.83" y="-84" font-family="Helvetica,sans-Serif" font-size="10.00">/d_a_obj_stoneMark/d</text>
<text text-anchor="middle" x="4498.33" y="-73" font-family="Helvetica,sans-Serif" font-size="10.00">_a_obj_stoneMark.h</text>
</a>
</g>
</g>
<!-- Node3&#45;&gt;Node111 -->
<g id="edge53" class="edge">
<title>Node3&#45;&gt;Node111</title>
<path fill="none" stroke="#63b8ff" d="M2987.04,-145.54C2994.54,-144.54 3002.08,-143.66 3009.33,-143 3324.57,-114.34 4120.74,-156.92 4433.33,-107 4436,-106.57 4438.72,-106.06 4441.45,-105.49"/>
<polygon fill="#63b8ff" stroke="#63b8ff" points="2986.64,-142.06 2977.23,-146.93 2987.62,-148.99 2986.64,-142.06"/>
</g>
<!-- Node112 -->
<g id="node47" class="node">
<title>Node112</title>
<g id="a_node47"><a xlink:href="d__a__obj__tmoon_8h.html" target="_top" xlink:title=" ">
<polygon fill="white" stroke="#666666" points="4695.33,-107 4573.33,-107 4573.33,-66 4695.33,-66 4695.33,-107"/>
<text text-anchor="start" x="4581.33" y="-95" font-family="Helvetica,sans-Serif" font-size="10.00">include/rel/d/a/obj</text>
<text text-anchor="start" x="4581.33" y="-84" font-family="Helvetica,sans-Serif" font-size="10.00">/d_a_obj_tmoon/d_a_obj</text>
<text text-anchor="middle" x="4634.33" y="-73" font-family="Helvetica,sans-Serif" font-size="10.00">_tmoon.h</text>
</a>
</g>
</g>
<!-- Node3&#45;&gt;Node112 -->
<g id="edge54" class="edge">
<title>Node3&#45;&gt;Node112</title>
<path fill="none" stroke="#63b8ff" d="M2987.04,-145.52C2994.54,-144.53 3002.08,-143.65 3009.33,-143 3353.59,-112.08 4222.43,-157.77 4564.33,-107 4567.2,-106.57 4570.11,-106.07 4573.05,-105.5"/>
<polygon fill="#63b8ff" stroke="#63b8ff" points="2986.64,-142.04 2977.23,-146.91 2987.62,-148.98 2986.64,-142.04"/>
</g>
<!-- Node113 -->
<g id="node48" class="node">
<title>Node113</title>
<g id="a_node48"><a xlink:href="d__a__obj__web0_8h.html" target="_top" xlink:title=" ">
<polygon fill="white" stroke="#666666" points="4832.83,-107 4713.83,-107 4713.83,-66 4832.83,-66 4832.83,-107"/>
<text text-anchor="start" x="4721.83" y="-95" font-family="Helvetica,sans-Serif" font-size="10.00">include/rel/d/a/obj</text>
<text text-anchor="start" x="4721.83" y="-84" font-family="Helvetica,sans-Serif" font-size="10.00">/d_a_obj_web0/d_a_obj</text>
<text text-anchor="middle" x="4773.33" y="-73" font-family="Helvetica,sans-Serif" font-size="10.00">_web0.h</text>
</a>
</g>
</g>
<!-- Node3&#45;&gt;Node113 -->
<g id="edge55" class="edge">
<title>Node3&#45;&gt;Node113</title>
<path fill="none" stroke="#63b8ff" d="M2987.03,-145.51C2994.54,-144.52 3002.08,-143.64 3009.33,-143 3384.6,-109.65 4331.71,-162.68 4704.33,-107 4707.4,-106.54 4710.54,-105.98 4713.69,-105.35"/>
<polygon fill="#63b8ff" stroke="#63b8ff" points="2986.64,-142.03 2977.23,-146.89 2987.62,-148.96 2986.64,-142.03"/>
</g>
<!-- Node3&#45;&gt;Node148 -->
<g id="edge57" class="edge">
<title>Node3&#45;&gt;Node148</title>
<path fill="none" stroke="#63b8ff" d="M2987.03,-145.47C2994.53,-144.48 3002.08,-143.62 3009.33,-143 3274.49,-120.27 5141.58,-149.37 5404.33,-107 5417.58,-104.86 5431.91,-100.5 5443.45,-96.44"/>
<polygon fill="#63b8ff" stroke="#63b8ff" points="2986.64,-141.99 2977.22,-146.84 2987.61,-148.92 2986.64,-141.99"/>
</g>
<!-- Node10&#45;&gt;Node11 -->
<g id="edge5" class="edge">
<title>Node10&#45;&gt;Node11</title>
<path fill="none" stroke="#63b8ff" d="M4964.15,-70.45C4945.8,-58.53 4920.33,-41.99 4902.3,-30.27"/>
<polygon fill="#63b8ff" stroke="#63b8ff" points="4962.21,-73.36 4972.5,-75.87 4966.02,-67.49 4962.21,-73.36"/>
</g>
<!-- Node10&#45;&gt;Node17 -->
<g id="edge6" class="edge">
<title>Node10&#45;&gt;Node17</title>
<path fill="none" stroke="#63b8ff" d="M4991.87,-65.76C4994.47,-54.45 4997.68,-40.52 5000.04,-30.27"/>
<polygon fill="#63b8ff" stroke="#63b8ff" points="4988.52,-64.69 4989.69,-75.22 4995.35,-66.26 4988.52,-64.69"/>
</g>
<!-- Node10&#45;&gt;Node18 -->
<g id="edge7" class="edge">
<title>Node10&#45;&gt;Node18</title>
<path fill="none" stroke="#63b8ff" d="M5015.77,-71.48C5039.95,-59.56 5074.53,-42.52 5098.96,-30.47"/>
<polygon fill="#63b8ff" stroke="#63b8ff" points="5014.25,-68.33 5006.83,-75.89 5017.34,-74.61 5014.25,-68.33"/>
</g>
<!-- Node24&#45;&gt;Node15 -->
<g id="edge10" class="edge">
<title>Node24&#45;&gt;Node15</title>
<path fill="none" stroke="#63b8ff" d="M457.33,-65.3C457.33,-51.94 457.33,-35.09 457.33,-24.95"/>
<polygon fill="#63b8ff" stroke="#63b8ff" points="453.83,-65.18 457.33,-75.18 460.83,-65.18 453.83,-65.18"/>
</g>
<!-- Node34&#45;&gt;Node35 -->
<g id="edge14" class="edge">
<title>Node34&#45;&gt;Node35</title>
<path fill="none" stroke="#63b8ff" d="M5325.87,-69.27C5312.45,-57.45 5294.43,-41.61 5281.55,-30.27"/>
<polygon fill="#63b8ff" stroke="#63b8ff" points="5323.36,-71.72 5333.18,-75.7 5327.99,-66.46 5323.36,-71.72"/>
</g>
<!-- Node41&#45;&gt;Node35 -->
<g id="edge17" class="edge">
<title>Node41&#45;&gt;Node35</title>
<path fill="none" stroke="#63b8ff" d="M5213.25,-63.62C5225.11,-52.77 5239.11,-39.98 5249.6,-30.38"/>
<polygon fill="#63b8ff" stroke="#63b8ff" points="5211.21,-60.75 5206.19,-70.08 5215.93,-65.91 5211.21,-60.75"/>
</g>
<!-- Node55&#45;&gt;Node4 -->
<g id="edge22" class="edge">
<title>Node55&#45;&gt;Node4</title>
<path fill="none" stroke="#63b8ff" d="M764.8,-68.28C768.67,-67.39 772.54,-66.61 776.33,-66 967.29,-35.04 2371.63,-19.5 2669.78,-16.53"/>
<polygon fill="#63b8ff" stroke="#63b8ff" points="764.23,-64.82 755.41,-70.68 765.96,-71.6 764.23,-64.82"/>
</g>
<!-- Node55&#45;&gt;Node15 -->
<g id="edge23" class="edge">
<title>Node55&#45;&gt;Node15</title>
<path fill="none" stroke="#63b8ff" d="M654.7,-67.83C652.55,-67.2 650.42,-66.59 648.33,-66 594.57,-50.78 531.83,-34.67 493.35,-24.98"/>
<polygon fill="#63b8ff" stroke="#63b8ff" points="653.52,-71.13 664.1,-70.59 655.49,-64.41 653.52,-71.13"/>
</g>
<!-- Node96&#45;&gt;Node15 -->
<g id="edge38" class="edge">
<title>Node96&#45;&gt;Node15</title>
<path fill="none" stroke="#63b8ff" d="M545.81,-65.6C521.85,-52.16 491.38,-35.09 473.17,-24.88"/>
<polygon fill="#63b8ff" stroke="#63b8ff" points="543.88,-68.52 554.31,-70.36 547.3,-62.42 543.88,-68.52"/>
</g>
</g>
</svg>
