<?xml version="1.0" encoding="UTF-8" standalone="no"?>
<!DOCTYPE svg PUBLIC "-//W3C//DTD SVG 1.1//EN"
 "http://www.w3.org/Graphics/SVG/1.1/DTD/svg11.dtd">
<!-- Generated by graphviz version 7.0.5 (20221223.1930)
 -->
<!-- Title: include/d/a/d_a_npc.h Pages: 1 -->
<svg width="890pt" height="159pt"
 viewBox="0.00 0.00 889.50 159.00" xmlns="http://www.w3.org/2000/svg" xmlns:xlink="http://www.w3.org/1999/xlink">
<g id="graph0" class="graph" transform="scale(1 1) rotate(0) translate(4 155)">
<title>include/d/a/d_a_npc.h</title>
<!-- Node1 -->
<g id="node1" class="node">
<title>Node1</title>
<g id="a_node1"><a xlink:title=" ">
<polygon fill="#999999" stroke="#666666" points="566,-151 455,-151 455,-132 566,-132 566,-151"/>
<text text-anchor="middle" x="510.5" y="-139" font-family="Helvetica,sans-Serif" font-size="10.00">include/d/a/d_a_npc.h</text>
</a>
</g>
</g>
<!-- Node2 -->
<g id="node2" class="node">
<title>Node2</title>
<g id="a_node2"><a xlink:href="d__shop__system_8h.html" target="_top" xlink:title=" ">
<polygon fill="white" stroke="#666666" points="203.5,-90.5 89.5,-90.5 89.5,-60.5 203.5,-60.5 203.5,-90.5"/>
<text text-anchor="start" x="97.5" y="-78.5" font-family="Helvetica,sans-Serif" font-size="10.00">include/d/shop/d_shop</text>
<text text-anchor="middle" x="146.5" y="-67.5" font-family="Helvetica,sans-Serif" font-size="10.00">_system.h</text>
</a>
</g>
</g>
<!-- Node1&#45;&gt;Node2 -->
<g id="edge1" class="edge">
<title>Node1&#45;&gt;Node2</title>
<path fill="none" stroke="#63b8ff" d="M443.26,-133.17C382.54,-125.91 290.95,-113.36 212.5,-96 205.97,-94.55 199.13,-92.81 192.45,-90.96"/>
<polygon fill="#63b8ff" stroke="#63b8ff" points="442.76,-136.63 453.1,-134.33 443.58,-129.68 442.76,-136.63"/>
</g>
<!-- Node5 -->
<g id="node5" class="node">
<title>Node5</title>
<g id="a_node5"><a xlink:href="d__a__npc__ash_8h.html" target="_top" xlink:title=" ">
<polygon fill="white" stroke="#666666" points="367.5,-90.5 221.5,-90.5 221.5,-60.5 367.5,-60.5 367.5,-90.5"/>
<text text-anchor="start" x="229.5" y="-78.5" font-family="Helvetica,sans-Serif" font-size="10.00">include/rel/d/a/npc</text>
<text text-anchor="middle" x="294.5" y="-67.5" font-family="Helvetica,sans-Serif" font-size="10.00">/d_a_npc_ash/d_a_npc_ash.h</text>
</a>
</g>
</g>
<!-- Node1&#45;&gt;Node5 -->
<g id="edge4" class="edge">
<title>Node1&#45;&gt;Node5</title>
<path fill="none" stroke="#63b8ff" d="M469.89,-128.47C433.99,-117.83 381.55,-102.29 343.36,-90.98"/>
<polygon fill="#63b8ff" stroke="#63b8ff" points="468.43,-131.69 479.01,-131.17 470.42,-124.97 468.43,-131.69"/>
</g>
<!-- Node6 -->
<g id="node6" class="node">
<title>Node6</title>
<g id="a_node6"><a xlink:href="d__a__tag__push_8h.html" target="_top" xlink:title=" ">
<polygon fill="white" stroke="#666666" points="503.5,-96 385.5,-96 385.5,-55 503.5,-55 503.5,-96"/>
<text text-anchor="start" x="393.5" y="-84" font-family="Helvetica,sans-Serif" font-size="10.00">include/rel/d/a/tag</text>
<text text-anchor="start" x="393.5" y="-73" font-family="Helvetica,sans-Serif" font-size="10.00">/d_a_tag_push/d_a_tag</text>
<text text-anchor="middle" x="444.5" y="-62" font-family="Helvetica,sans-Serif" font-size="10.00">_push.h</text>
</a>
</g>
</g>
<!-- Node1&#45;&gt;Node6 -->
<g id="edge5" class="edge">
<title>Node1&#45;&gt;Node6</title>
<path fill="none" stroke="#63b8ff" d="M493.14,-123.67C484.51,-115.3 474.02,-105.13 465,-96.38"/>
<polygon fill="#63b8ff" stroke="#63b8ff" points="490.62,-126.1 500.24,-130.55 495.49,-121.07 490.62,-126.1"/>
</g>
<!-- Node7 -->
<g id="node7" class="node">
<title>Node7</title>
<g id="a_node7"><a xlink:href="d__a__alink_8cpp.html" target="_top" xlink:title=" ">
<polygon fill="white" stroke="#666666" points="631,-85 522,-85 522,-66 631,-66 631,-85"/>
<text text-anchor="middle" x="576.5" y="-73" font-family="Helvetica,sans-Serif" font-size="10.00">src/d/a/d_a_alink.cpp</text>
</a>
</g>
</g>
<!-- Node1&#45;&gt;Node7 -->
<g id="edge6" class="edge">
<title>Node1&#45;&gt;Node7</title>
<path fill="none" stroke="#63b8ff" d="M527.69,-123.83C540.39,-111.52 557.19,-95.23 567.4,-85.32"/>
<polygon fill="#63b8ff" stroke="#63b8ff" points="525.51,-121.07 520.76,-130.55 530.38,-126.1 525.51,-121.07"/>
</g>
<!-- Node8 -->
<g id="node8" class="node">
<title>Node8</title>
<g id="a_node8"><a xlink:href="d__a__npc_8cpp.html" target="_top" xlink:title=" ">
<polygon fill="white" stroke="#666666" points="753.5,-85 649.5,-85 649.5,-66 753.5,-66 753.5,-85"/>
<text text-anchor="middle" x="701.5" y="-73" font-family="Helvetica,sans-Serif" font-size="10.00">src/d/a/d_a_npc.cpp</text>
</a>
</g>
</g>
<!-- Node1&#45;&gt;Node8 -->
<g id="edge7" class="edge">
<title>Node1&#45;&gt;Node8</title>
<path fill="none" stroke="#63b8ff" d="M547.52,-128.1C584.89,-115.57 641.7,-96.54 674.86,-85.43"/>
<polygon fill="#63b8ff" stroke="#63b8ff" points="546.86,-124.62 538.49,-131.12 549.09,-131.26 546.86,-124.62"/>
</g>
<!-- Node9 -->
<g id="node9" class="node">
<title>Node9</title>
<g id="a_node9"><a xlink:href="d__meter2__info_8cpp.html" target="_top" xlink:title=" ">
<polygon fill="white" stroke="#666666" points="881.5,-90.5 771.5,-90.5 771.5,-60.5 881.5,-60.5 881.5,-90.5"/>
<text text-anchor="start" x="779.5" y="-78.5" font-family="Helvetica,sans-Serif" font-size="10.00">src/d/meter/d_meter2</text>
<text text-anchor="middle" x="826.5" y="-67.5" font-family="Helvetica,sans-Serif" font-size="10.00">_info.cpp</text>
</a>
</g>
</g>
<!-- Node1&#45;&gt;Node9 -->
<g id="edge8" class="edge">
<title>Node1&#45;&gt;Node9</title>
<path fill="none" stroke="#63b8ff" d="M577.66,-130.9C628.69,-123.07 700.44,-110.88 762.5,-96 768.71,-94.51 775.21,-92.76 781.58,-90.93"/>
<polygon fill="#63b8ff" stroke="#63b8ff" points="577.31,-127.42 567.95,-132.38 578.36,-134.34 577.31,-127.42"/>
</g>
<!-- Node3 -->
<g id="node3" class="node">
<title>Node3</title>
<g id="a_node3"><a xlink:href="d__msg__flow_8cpp.html" target="_top" xlink:title=" ">
<polygon fill="white" stroke="#666666" points="133,-19 0,-19 0,0 133,0 133,-19"/>
<text text-anchor="middle" x="66.5" y="-7" font-family="Helvetica,sans-Serif" font-size="10.00">src/d/msg/d_msg_flow.cpp</text>
</a>
</g>
</g>
<!-- Node2&#45;&gt;Node3 -->
<g id="edge2" class="edge">
<title>Node2&#45;&gt;Node3</title>
<path fill="none" stroke="#63b8ff" d="M120.16,-53.43C105.69,-41.85 88.51,-28.11 77.56,-19.34"/>
<polygon fill="#63b8ff" stroke="#63b8ff" points="117.57,-55.84 127.56,-59.35 121.94,-50.37 117.57,-55.84"/>
</g>
<!-- Node4 -->
<g id="node4" class="node">
<title>Node4</title>
<g id="a_node4"><a xlink:href="d__shop__system_8cpp.html" target="_top" xlink:title=" ">
<polygon fill="white" stroke="#666666" points="303.5,-19 151.5,-19 151.5,0 303.5,0 303.5,-19"/>
<text text-anchor="middle" x="227.5" y="-7" font-family="Helvetica,sans-Serif" font-size="10.00">src/d/shop/d_shop_system.cpp</text>
</a>
</g>
</g>
<!-- Node2&#45;&gt;Node4 -->
<g id="edge3" class="edge">
<title>Node2&#45;&gt;Node4</title>
<path fill="none" stroke="#63b8ff" d="M173.16,-53.43C187.82,-41.85 205.22,-28.11 216.31,-19.34"/>
<polygon fill="#63b8ff" stroke="#63b8ff" points="171.34,-50.41 165.66,-59.36 175.68,-55.9 171.34,-50.41"/>
</g>
</g>
</svg>
