<?xml version="1.0" encoding="UTF-8" standalone="no"?>
<!DOCTYPE svg PUBLIC "-//W3C//DTD SVG 1.1//EN"
 "http://www.w3.org/Graphics/SVG/1.1/DTD/svg11.dtd">
<!-- Generated by graphviz version 7.0.5 (20221223.1930)
 -->
<!-- Title: include/d/a/d_a_alink.h Pages: 1 -->
<!--zoomable 236 -->
<svg id="main" version="1.1" xmlns="http://www.w3.org/2000/svg" xmlns:xlink="http://www.w3.org/1999/xlink" xml:space="preserve" onload="init(evt)">
<style type="text/css"><![CDATA[
.edge:hover path { stroke: red; }
.edge:hover polygon { stroke: red; fill: red; }
]]></style>
<script type="text/javascript"><![CDATA[
var edges = document.getElementsByTagName('g');
if (edges && edges.length) {
  for (var i=0;i<edges.length;i++) {
    if (edges[i].id.substr(0,4)=='edge') {
      edges[i].setAttribute('class','edge');
    }
  }
}
]]></script>
        <defs>
                <circle id="rim" cx="0" cy="0" r="7"/>
                <circle id="rim2" cx="0" cy="0" r="3.5"/>
                <g id="zoomPlus">
                        <use xlink:href="#rim" fill="#404040">
                                <set attributeName="fill" to="#808080" begin="zoomplus.mouseover" end="zoomplus.mouseout"/>
                        </use>
                        <path d="M-4,0h8M0,-4v8" fill="none" stroke="white" stroke-width="1.5" pointer-events="none"/>
                </g>
                <g id="zoomMin">
                        <use xlink:href="#rim" fill="#404040">
                                <set attributeName="fill" to="#808080" begin="zoomminus.mouseover" end="zoomminus.mouseout"/>
                        </use>
                        <path d="M-4,0h8" fill="none" stroke="white" stroke-width="1.5" pointer-events="none"/>
                </g>
                <g id="dirArrow">
                        <path fill="none" stroke="white" stroke-width="1.5" d="M0,-3.0v7 M-2.5,-0.5L0,-3.0L2.5,-0.5"/>
                </g>
               <g id="resetDef">
                       <use xlink:href="#rim2" fill="#404040">
                               <set attributeName="fill" to="#808080" begin="reset.mouseover" end="reset.mouseout"/>
                       </use>
               </g>
        </defs>

<script type="text/javascript">
var viewWidth = 5797;
var viewHeight = 236;
var sectionId = 'dynsection-1';
</script>
<script xlink:href="svgpan.js"/>
<svg id="graph" class="graph">
<g id="viewport">
<title>include/d/a/d_a_alink.h</title>
<!-- Node1 -->
<g id="node1" class="node">
<title>Node1</title>
<g id="a_node1"><a xlink:title=" ">
<polygon fill="#999999" stroke="#666666" points="1600.5,-228 1484.5,-228 1484.5,-209 1600.5,-209 1600.5,-228"/>
<text text-anchor="middle" x="1542.5" y="-216" font-family="Helvetica,sans-Serif" font-size="10.00">include/d/a/d_a_alink.h</text>
</a>
</g>
</g>
<!-- Node2 -->
<g id="node2" class="node">
<title>Node2</title>
<g id="a_node2"><a xlink:href="d__com__inf__game_8h.html" target="_top" xlink:title=" ">
<polygon fill="#fff0f0" stroke="red" points="2866.5,-173 2756.5,-173 2756.5,-143 2866.5,-143 2866.5,-173"/>
<text text-anchor="start" x="2764.5" y="-161" font-family="Helvetica,sans-Serif" font-size="10.00">include/d/com/d_com</text>
<text text-anchor="middle" x="2811.5" y="-150" font-family="Helvetica,sans-Serif" font-size="10.00">_inf_game.h</text>
</a>
</g>
</g>
<!-- Node1&#45;&gt;Node2 -->
<g id="edge1" class="edge">
<title>Node1&#45;&gt;Node2</title>
<path fill="none" stroke="#63b8ff" d="M1612.11,-214.29C1838.64,-203.85 2551.91,-170.97 2756.28,-161.55"/>
<polygon fill="#63b8ff" stroke="#63b8ff" points="1612.08,-210.79 1602.25,-214.75 1612.4,-217.78 1612.08,-210.79"/>
</g>
<!-- Node12 -->
<g id="node6" class="node">
<title>Node12</title>
<g id="a_node6"><a xlink:href="d__a__alink_8cpp.html" target="_top" xlink:title=" ">
<polygon fill="white" stroke="#666666" points="379,-24.5 270,-24.5 270,-5.5 379,-5.5 379,-24.5"/>
<text text-anchor="middle" x="324.5" y="-12.5" font-family="Helvetica,sans-Serif" font-size="10.00">src/d/a/d_a_alink.cpp</text>
</a>
</g>
</g>
<!-- Node1&#45;&gt;Node12 -->
<g id="edge58" class="edge">
<title>Node1&#45;&gt;Node12</title>
<path fill="none" stroke="#63b8ff" d="M1472.91,-216.59C1224.38,-212.65 391.18,-193.06 312.5,-107 291.43,-83.95 309.66,-42.85 319.36,-24.85"/>
<polygon fill="#63b8ff" stroke="#63b8ff" points="1472.73,-220.09 1482.78,-216.75 1472.84,-213.09 1472.73,-220.09"/>
</g>
<!-- Node3 -->
<g id="node3" class="node">
<title>Node3</title>
<g id="a_node3"><a xlink:href="d__a__npc_8h.html" target="_top" xlink:title=" ">
<polygon fill="#fff0f0" stroke="red" points="5789,-24.5 5678,-24.5 5678,-5.5 5789,-5.5 5789,-24.5"/>
<text text-anchor="middle" x="5733.5" y="-12.5" font-family="Helvetica,sans-Serif" font-size="10.00">include/d/a/d_a_npc.h</text>
</a>
</g>
</g>
<!-- Node2&#45;&gt;Node3 -->
<g id="edge2" class="edge">
<title>Node2&#45;&gt;Node3</title>
<path fill="none" stroke="#63b8ff" d="M2878.31,-156.83C3305.01,-155.64 5632.95,-147.28 5693.5,-107 5721.95,-88.07 5730.32,-43.99 5732.65,-24.98"/>
<polygon fill="#63b8ff" stroke="#63b8ff" points="2878.33,-153.33 2868.34,-156.86 2878.35,-160.33 2878.33,-153.33"/>
</g>
<!-- Node9 -->
<g id="node4" class="node">
<title>Node9</title>
<g id="a_node4"><a xlink:href="d__cc__uty_8h.html" target="_top" xlink:title=" ">
<polygon fill="#fff0f0" stroke="red" points="631,-96 512,-96 512,-77 631,-77 631,-96"/>
<text text-anchor="middle" x="571.5" y="-84" font-family="Helvetica,sans-Serif" font-size="10.00">include/d/cc/d_cc_uty.h</text>
</a>
</g>
</g>
<!-- Node2&#45;&gt;Node9 -->
<g id="edge3" class="edge">
<title>Node2&#45;&gt;Node9</title>
<path fill="none" stroke="#63b8ff" d="M2744.83,-156.48C2402.66,-153.68 851.62,-139.31 639.5,-107 625.17,-104.82 609.61,-100.5 596.99,-96.49"/>
<polygon fill="#63b8ff" stroke="#63b8ff" points="2744.71,-159.98 2754.74,-156.56 2744.77,-152.98 2744.71,-159.98"/>
</g>
<!-- Node15 -->
<g id="node5" class="node">
<title>Node15</title>
<g id="a_node5"><a xlink:href="d__item_8h.html" target="_top" xlink:title=" ">
<polygon fill="#fff0f0" stroke="red" points="245,-96 150,-96 150,-77 245,-77 245,-96"/>
<text text-anchor="middle" x="197.5" y="-84" font-family="Helvetica,sans-Serif" font-size="10.00">include/d/d_item.h</text>
</a>
</g>
</g>
<!-- Node2&#45;&gt;Node15 -->
<g id="edge4" class="edge">
<title>Node2&#45;&gt;Node15</title>
<path fill="none" stroke="#63b8ff" d="M2744.65,-157.23C2396.9,-158.21 791.89,-159.72 297.5,-107 276.75,-104.79 253.88,-100.47 235.25,-96.46"/>
<polygon fill="#63b8ff" stroke="#63b8ff" points="2744.5,-160.73 2754.49,-157.2 2744.48,-153.73 2744.5,-160.73"/>
</g>
<!-- Node2&#45;&gt;Node12 -->
<g id="edge35" class="edge">
<title>Node2&#45;&gt;Node12</title>
<path fill="none" stroke="#63b8ff" d="M2744.75,-156.89C2353.67,-156.09 375.41,-149.9 330.5,-107 307.95,-85.45 316.55,-43.18 321.72,-24.84"/>
<polygon fill="#63b8ff" stroke="#63b8ff" points="2744.6,-160.39 2754.6,-156.91 2744.61,-153.39 2744.6,-160.39"/>
</g>
<!-- Node16 -->
<g id="node7" class="node">
<title>Node16</title>
<g id="a_node7"><a xlink:href="d__a__obj__item_8cpp.html" target="_top" xlink:title=" ">
<polygon fill="white" stroke="#666666" points="125,-24.5 0,-24.5 0,-5.5 125,-5.5 125,-24.5"/>
<text text-anchor="middle" x="62.5" y="-12.5" font-family="Helvetica,sans-Serif" font-size="10.00">src/d/a/d_a_obj_item.cpp</text>
</a>
</g>
</g>
<!-- Node2&#45;&gt;Node16 -->
<g id="edge38" class="edge">
<title>Node2&#45;&gt;Node16</title>
<path fill="none" stroke="#63b8ff" d="M2744.94,-156.57C2336.91,-153.83 189.39,-137.98 129.5,-107 94.82,-89.06 73.57,-44.02 65.83,-24.86"/>
<polygon fill="#63b8ff" stroke="#63b8ff" points="2744.68,-160.07 2754.71,-156.63 2744.73,-153.07 2744.68,-160.07"/>
</g>
<!-- Node17 -->
<g id="node8" class="node">
<title>Node17</title>
<g id="a_node8"><a xlink:href="d__com__inf__game_8cpp.html" target="_top" xlink:title=" ">
<polygon fill="white" stroke="#666666" points="251.5,-30 143.5,-30 143.5,0 251.5,0 251.5,-30"/>
<text text-anchor="start" x="151.5" y="-18" font-family="Helvetica,sans-Serif" font-size="10.00">src/d/com/d_com_inf</text>
<text text-anchor="middle" x="197.5" y="-7" font-family="Helvetica,sans-Serif" font-size="10.00">_game.cpp</text>
</a>
</g>
</g>
<!-- Node2&#45;&gt;Node17 -->
<g id="edge44" class="edge">
<title>Node2&#45;&gt;Node17</title>
<path fill="none" stroke="#63b8ff" d="M2744.87,-157.03C2336.46,-157.06 187.53,-154.92 140.5,-107 127.74,-93.99 132.98,-82.6 140.5,-66 147.24,-51.13 160.82,-38.94 173.04,-30.31"/>
<polygon fill="#63b8ff" stroke="#63b8ff" points="2744.65,-160.53 2754.65,-157.03 2744.65,-153.53 2744.65,-160.53"/>
</g>
<!-- Node20 -->
<g id="node9" class="node">
<title>Node20</title>
<g id="a_node9"><a xlink:href="d__kantera__icon__meter_8h.html" target="_top" xlink:title=" ">
<polygon fill="#fff0f0" stroke="red" points="750,-101.5 649,-101.5 649,-71.5 750,-71.5 750,-101.5"/>
<text text-anchor="start" x="657" y="-89.5" font-family="Helvetica,sans-Serif" font-size="10.00">include/d/d_kantera</text>
<text text-anchor="middle" x="699.5" y="-78.5" font-family="Helvetica,sans-Serif" font-size="10.00">_icon_meter.h</text>
</a>
</g>
</g>
<!-- Node2&#45;&gt;Node20 -->
<g id="edge8" class="edge">
<title>Node2&#45;&gt;Node20</title>
<path fill="none" stroke="#63b8ff" d="M2744.74,-156.54C2413.85,-154.11 957.58,-141.54 758.5,-107 751.7,-105.82 744.61,-104.01 737.8,-101.96"/>
<polygon fill="#63b8ff" stroke="#63b8ff" points="2744.5,-160.04 2754.52,-156.61 2744.55,-153.04 2744.5,-160.04"/>
</g>
<!-- Node23 -->
<g id="node10" class="node">
<title>Node23</title>
<g id="a_node10"><a xlink:href="d__model_8h.html" target="_top" xlink:title=" ">
<polygon fill="#fff0f0" stroke="red" points="871,-96 768,-96 768,-77 871,-77 871,-96"/>
<text text-anchor="middle" x="819.5" y="-84" font-family="Helvetica,sans-Serif" font-size="10.00">include/d/d_model.h</text>
</a>
</g>
</g>
<!-- Node2&#45;&gt;Node23 -->
<g id="edge9" class="edge">
<title>Node2&#45;&gt;Node23</title>
<path fill="none" stroke="#63b8ff" d="M2745.12,-156.42C2427.01,-153.47 1066.2,-139.06 879.5,-107 866.76,-104.81 853.02,-100.5 841.9,-96.48"/>
<polygon fill="#63b8ff" stroke="#63b8ff" points="2744.89,-159.91 2754.92,-156.51 2744.95,-152.91 2744.89,-159.91"/>
</g>
<!-- Node25 -->
<g id="node11" class="node">
<title>Node25</title>
<g id="a_node11"><a xlink:href="d__name_8h.html" target="_top" xlink:title=" ">
<polygon fill="#fff0f0" stroke="red" points="990,-96 889,-96 889,-77 990,-77 990,-96"/>
<text text-anchor="middle" x="939.5" y="-84" font-family="Helvetica,sans-Serif" font-size="10.00">include/d/d_name.h</text>
</a>
</g>
</g>
<!-- Node2&#45;&gt;Node25 -->
<g id="edge10" class="edge">
<title>Node2&#45;&gt;Node25</title>
<path fill="none" stroke="#63b8ff" d="M2744.82,-156.29C2438.49,-152.88 1173.74,-137.07 999.5,-107 986.76,-104.8 973.02,-100.49 961.91,-96.47"/>
<polygon fill="#63b8ff" stroke="#63b8ff" points="2744.6,-159.79 2754.64,-156.4 2744.68,-152.79 2744.6,-159.79"/>
</g>
<!-- Node27 -->
<g id="node12" class="node">
<title>Node27</title>
<g id="a_node12"><a xlink:href="d__file__sel__info_8h.html" target="_top" xlink:title=" ">
<polygon fill="#fff0f0" stroke="red" points="1104.5,-101.5 1008.5,-101.5 1008.5,-71.5 1104.5,-71.5 1104.5,-101.5"/>
<text text-anchor="start" x="1016.5" y="-89.5" font-family="Helvetica,sans-Serif" font-size="10.00">include/d/file/d_file</text>
<text text-anchor="middle" x="1056.5" y="-78.5" font-family="Helvetica,sans-Serif" font-size="10.00">_sel_info.h</text>
</a>
</g>
</g>
<!-- Node2&#45;&gt;Node27 -->
<g id="edge11" class="edge">
<title>Node2&#45;&gt;Node27</title>
<path fill="none" stroke="#63b8ff" d="M2744.73,-156.22C2450.34,-152.6 1275.74,-136.44 1113.5,-107 1106.91,-105.8 1100.06,-103.99 1093.48,-101.94"/>
<polygon fill="#63b8ff" stroke="#63b8ff" points="2744.5,-159.71 2754.54,-156.34 2744.58,-152.71 2744.5,-159.71"/>
</g>
<!-- Node30 -->
<g id="node13" class="node">
<title>Node30</title>
<g id="a_node13"><a xlink:href="d__file__sel__warning_8h.html" target="_top" xlink:title=" ">
<polygon fill="#fff0f0" stroke="red" points="1218.5,-101.5 1122.5,-101.5 1122.5,-71.5 1218.5,-71.5 1218.5,-101.5"/>
<text text-anchor="start" x="1130.5" y="-89.5" font-family="Helvetica,sans-Serif" font-size="10.00">include/d/file/d_file</text>
<text text-anchor="middle" x="1170.5" y="-78.5" font-family="Helvetica,sans-Serif" font-size="10.00">_sel_warning.h</text>
</a>
</g>
</g>
<!-- Node2&#45;&gt;Node30 -->
<g id="edge12" class="edge">
<title>Node2&#45;&gt;Node30</title>
<path fill="none" stroke="#63b8ff" d="M2745.11,-156.07C2463.86,-151.97 1378.08,-134.49 1227.5,-107 1220.92,-105.8 1214.06,-103.98 1207.48,-101.92"/>
<polygon fill="#63b8ff" stroke="#63b8ff" points="2744.78,-159.57 2754.83,-156.21 2744.88,-152.57 2744.78,-159.57"/>
</g>
<!-- Node32 -->
<g id="node14" class="node">
<title>Node32</title>
<g id="a_node14"><a xlink:href="d__meter2_8h.html" target="_top" xlink:title=" ">
<polygon fill="#fff0f0" stroke="red" points="1370.5,-96 1236.5,-96 1236.5,-77 1370.5,-77 1370.5,-96"/>
<text text-anchor="middle" x="1303.5" y="-84" font-family="Helvetica,sans-Serif" font-size="10.00">include/d/meter/d_meter2.h</text>
</a>
</g>
</g>
<!-- Node2&#45;&gt;Node32 -->
<g id="edge13" class="edge">
<title>Node2&#45;&gt;Node32</title>
<path fill="none" stroke="#63b8ff" d="M2744.91,-156.58C2499.83,-154.76 1648.23,-145.7 1379.5,-107 1363.73,-104.73 1346.49,-100.46 1332.43,-96.49"/>
<polygon fill="#63b8ff" stroke="#63b8ff" points="2744.58,-160.08 2754.61,-156.65 2744.63,-153.08 2744.58,-160.08"/>
</g>
<!-- Node39 -->
<g id="node15" class="node">
<title>Node39</title>
<g id="a_node15"><a xlink:href="d__msg__object_8h.html" target="_top" xlink:title=" ">
<polygon fill="#fff0f0" stroke="red" points="5667.5,-101.5 5557.5,-101.5 5557.5,-71.5 5667.5,-71.5 5667.5,-101.5"/>
<text text-anchor="start" x="5565.5" y="-89.5" font-family="Helvetica,sans-Serif" font-size="10.00">include/d/msg/d_msg</text>
<text text-anchor="middle" x="5612.5" y="-78.5" font-family="Helvetica,sans-Serif" font-size="10.00">_object.h</text>
</a>
</g>
</g>
<!-- Node2&#45;&gt;Node39 -->
<g id="edge14" class="edge">
<title>Node2&#45;&gt;Node39</title>
<path fill="none" stroke="#63b8ff" d="M2878.33,-156.89C3271.73,-156.08 5277.73,-149.87 5548.5,-107 5555.84,-105.84 5563.51,-104.04 5570.89,-101.99"/>
<polygon fill="#63b8ff" stroke="#63b8ff" points="2878.4,-153.39 2868.41,-156.91 2878.41,-160.39 2878.4,-153.39"/>
</g>
<!-- Node46 -->
<g id="node16" class="node">
<title>Node46</title>
<g id="a_node16"><a xlink:href="d__demo_8cpp.html" target="_top" xlink:title=" ">
<polygon fill="white" stroke="#666666" points="5659.5,-24.5 5565.5,-24.5 5565.5,-5.5 5659.5,-5.5 5659.5,-24.5"/>
<text text-anchor="middle" x="5612.5" y="-12.5" font-family="Helvetica,sans-Serif" font-size="10.00">src/d/d_demo.cpp</text>
</a>
</g>
</g>
<!-- Node2&#45;&gt;Node46 -->
<g id="edge49" class="edge">
<title>Node2&#45;&gt;Node46</title>
<path fill="none" stroke="#63b8ff" d="M2878.16,-157.12C3303.85,-157.71 5625.83,-158.56 5676.5,-107 5689.27,-94 5684.49,-82.38 5676.5,-66 5667.23,-46.99 5646.85,-33.09 5631.56,-24.84"/>
<polygon fill="#63b8ff" stroke="#63b8ff" points="2878.22,-153.62 2868.21,-157.1 2878.21,-160.62 2878.22,-153.62"/>
</g>
<!-- Node55 -->
<g id="node17" class="node">
<title>Node55</title>
<g id="a_node17"><a xlink:href="d__s__logo_8h.html" target="_top" xlink:title=" ">
<polygon fill="#fff0f0" stroke="red" points="1502,-96 1389,-96 1389,-77 1502,-77 1502,-96"/>
<text text-anchor="middle" x="1445.5" y="-84" font-family="Helvetica,sans-Serif" font-size="10.00">include/d/s/d_s_logo.h</text>
</a>
</g>
</g>
<!-- Node2&#45;&gt;Node55 -->
<g id="edge18" class="edge">
<title>Node2&#45;&gt;Node55</title>
<path fill="none" stroke="#63b8ff" d="M2744.89,-156.66C2514.4,-155.15 1751.69,-147.15 1510.5,-107 1496.79,-104.72 1481.9,-100.4 1469.85,-96.4"/>
<polygon fill="#63b8ff" stroke="#63b8ff" points="2744.57,-160.16 2754.59,-156.72 2744.61,-153.16 2744.57,-160.16"/>
</g>
<!-- Node57 -->
<g id="node18" class="node">
<title>Node57</title>
<g id="a_node18"><a xlink:href="d__s__play_8h.html" target="_top" xlink:title=" ">
<polygon fill="#fff0f0" stroke="red" points="1633,-96 1520,-96 1520,-77 1633,-77 1633,-96"/>
<text text-anchor="middle" x="1576.5" y="-84" font-family="Helvetica,sans-Serif" font-size="10.00">include/d/s/d_s_play.h</text>
</a>
</g>
</g>
<!-- Node2&#45;&gt;Node57 -->
<g id="edge19" class="edge">
<title>Node2&#45;&gt;Node57</title>
<path fill="none" stroke="#63b8ff" d="M2744.86,-156.33C2529.86,-153.82 1856.07,-143.19 1641.5,-107 1627.91,-104.71 1613.16,-100.44 1601.16,-96.48"/>
<polygon fill="#63b8ff" stroke="#63b8ff" points="2744.71,-159.83 2754.75,-156.44 2744.79,-152.83 2744.71,-159.83"/>
</g>
<!-- Node63 -->
<g id="node19" class="node">
<title>Node63</title>
<g id="a_node19"><a xlink:href="d__msg__scrn__base_8h.html" target="_top" xlink:title=" ">
<polygon fill="#fff0f0" stroke="red" points="1750,-101.5 1651,-101.5 1651,-71.5 1750,-71.5 1750,-101.5"/>
<text text-anchor="start" x="1659" y="-89.5" font-family="Helvetica,sans-Serif" font-size="10.00">include/msg/scrn/d</text>
<text text-anchor="middle" x="1700.5" y="-78.5" font-family="Helvetica,sans-Serif" font-size="10.00">_msg_scrn_base.h</text>
</a>
</g>
</g>
<!-- Node2&#45;&gt;Node63 -->
<g id="edge20" class="edge">
<title>Node2&#45;&gt;Node63</title>
<path fill="none" stroke="#63b8ff" d="M2744.83,-156.19C2544.44,-153.4 1949.74,-142.28 1759.5,-107 1752.82,-105.76 1745.85,-103.95 1739.14,-101.93"/>
<polygon fill="#63b8ff" stroke="#63b8ff" points="2744.48,-159.69 2754.53,-156.33 2744.58,-152.69 2744.48,-159.69"/>
</g>
<!-- Node67 -->
<g id="node20" class="node">
<title>Node67</title>
<g id="a_node20"><a xlink:href="d__a__b__oh2_8h.html" target="_top" xlink:title=" ">
<polygon fill="white" stroke="#666666" points="1884.5,-101.5 1768.5,-101.5 1768.5,-71.5 1884.5,-71.5 1884.5,-101.5"/>
<text text-anchor="start" x="1776.5" y="-89.5" font-family="Helvetica,sans-Serif" font-size="10.00">include/rel/d/a/b/d</text>
<text text-anchor="middle" x="1826.5" y="-78.5" font-family="Helvetica,sans-Serif" font-size="10.00">_a_b_oh2/d_a_b_oh2.h</text>
</a>
</g>
</g>
<!-- Node2&#45;&gt;Node67 -->
<g id="edge21" class="edge">
<title>Node2&#45;&gt;Node67</title>
<path fill="none" stroke="#63b8ff" d="M2744.79,-155.35C2562.26,-150.51 2057.36,-134.93 1893.5,-107 1886.1,-105.74 1878.35,-103.94 1870.86,-101.95"/>
<polygon fill="#63b8ff" stroke="#63b8ff" points="2744.48,-158.84 2754.57,-155.6 2744.66,-151.84 2744.48,-158.84"/>
</g>
<!-- Node68 -->
<g id="node21" class="node">
<title>Node68</title>
<g id="a_node21"><a xlink:href="d__a__b__zant_8h.html" target="_top" xlink:title=" ">
<polygon fill="white" stroke="#666666" points="2024,-101.5 1903,-101.5 1903,-71.5 2024,-71.5 2024,-101.5"/>
<text text-anchor="start" x="1911" y="-89.5" font-family="Helvetica,sans-Serif" font-size="10.00">include/rel/d/a/b/d</text>
<text text-anchor="middle" x="1963.5" y="-78.5" font-family="Helvetica,sans-Serif" font-size="10.00">_a_b_zant/d_a_b_zant.h</text>
</a>
</g>
</g>
<!-- Node2&#45;&gt;Node68 -->
<g id="edge22" class="edge">
<title>Node2&#45;&gt;Node68</title>
<path fill="none" stroke="#63b8ff" d="M2744.9,-157.44C2609.61,-157.31 2293.38,-151.72 2032.5,-107 2025.02,-105.72 2017.18,-103.94 2009.59,-101.97"/>
<polygon fill="#63b8ff" stroke="#63b8ff" points="2744.74,-160.94 2754.74,-157.44 2744.74,-153.94 2744.74,-160.94"/>
</g>
<!-- Node69 -->
<g id="node22" class="node">
<title>Node69</title>
<g id="a_node22"><a xlink:href="d__a__set__bgobj_8h.html" target="_top" xlink:title=" ">
<polygon fill="white" stroke="#666666" points="2179,-101.5 2042,-101.5 2042,-71.5 2179,-71.5 2179,-101.5"/>
<text text-anchor="start" x="2050" y="-89.5" font-family="Helvetica,sans-Serif" font-size="10.00">include/rel/d/a/d_a</text>
<text text-anchor="middle" x="2110.5" y="-78.5" font-family="Helvetica,sans-Serif" font-size="10.00">_set_bgobj/d_a_set_bgobj.h</text>
</a>
</g>
</g>
<!-- Node2&#45;&gt;Node69 -->
<g id="edge23" class="edge">
<title>Node2&#45;&gt;Node69</title>
<path fill="none" stroke="#63b8ff" d="M2744.79,-155.25C2630.3,-151.45 2389.33,-139.93 2188.5,-107 2180.24,-105.64 2171.56,-103.85 2163.12,-101.91"/>
<polygon fill="#63b8ff" stroke="#63b8ff" points="2744.51,-158.74 2754.61,-155.57 2744.73,-151.75 2744.51,-158.74"/>
</g>
<!-- Node70 -->
<g id="node23" class="node">
<title>Node70</title>
<g id="a_node23"><a xlink:href="d__a__skip__2D_8h.html" target="_top" xlink:title=" ">
<polygon fill="white" stroke="#666666" points="2321.5,-101.5 2197.5,-101.5 2197.5,-71.5 2321.5,-71.5 2321.5,-101.5"/>
<text text-anchor="start" x="2205.5" y="-89.5" font-family="Helvetica,sans-Serif" font-size="10.00">include/rel/d/a/d_a</text>
<text text-anchor="middle" x="2259.5" y="-78.5" font-family="Helvetica,sans-Serif" font-size="10.00">_skip_2D/d_a_skip_2D.h</text>
</a>
</g>
</g>
<!-- Node2&#45;&gt;Node70 -->
<g id="edge24" class="edge">
<title>Node2&#45;&gt;Node70</title>
<path fill="none" stroke="#63b8ff" d="M2745.01,-153.55C2651.74,-147.94 2477.03,-134.55 2330.5,-107 2323.21,-105.63 2315.58,-103.88 2308.14,-101.99"/>
<polygon fill="#63b8ff" stroke="#63b8ff" points="2744.55,-157.03 2754.74,-154.13 2744.96,-150.04 2744.55,-157.03"/>
</g>
<!-- Node71 -->
<g id="node24" class="node">
<title>Node71</title>
<g id="a_node24"><a xlink:href="d__a__spinner_8h.html" target="_top" xlink:title=" ">
<polygon fill="white" stroke="#666666" points="455.5,-101.5 339.5,-101.5 339.5,-71.5 455.5,-71.5 455.5,-101.5"/>
<text text-anchor="start" x="347.5" y="-89.5" font-family="Helvetica,sans-Serif" font-size="10.00">include/rel/d/a/d_a</text>
<text text-anchor="middle" x="397.5" y="-78.5" font-family="Helvetica,sans-Serif" font-size="10.00">_spinner/d_a_spinner.h</text>
</a>
</g>
</g>
<!-- Node2&#45;&gt;Node71 -->
<g id="edge25" class="edge">
<title>Node2&#45;&gt;Node71</title>
<path fill="none" stroke="#63b8ff" d="M2744.59,-156.54C2386.03,-153.95 699.54,-140.1 469.5,-107 461.3,-105.82 452.69,-104.01 444.41,-101.96"/>
<polygon fill="#63b8ff" stroke="#63b8ff" points="2744.51,-160.04 2754.54,-156.61 2744.56,-153.04 2744.51,-160.04"/>
</g>
<!-- Node72 -->
<g id="node25" class="node">
<title>Node72</title>
<g id="a_node25"><a xlink:href="d__a__player_8cpp.html" target="_top" xlink:title=" ">
<polygon fill="white" stroke="#666666" points="526.5,-24.5 412.5,-24.5 412.5,-5.5 526.5,-5.5 526.5,-24.5"/>
<text text-anchor="middle" x="469.5" y="-12.5" font-family="Helvetica,sans-Serif" font-size="10.00">src/d/a/d_a_player.cpp</text>
</a>
</g>
</g>
<!-- Node2&#45;&gt;Node72 -->
<g id="edge39" class="edge">
<title>Node2&#45;&gt;Node72</title>
<path fill="none" stroke="#63b8ff" d="M2744.82,-156.59C2370.86,-154.15 549.27,-140.55 502.5,-107 475.46,-87.6 470.51,-43.77 469.65,-24.91"/>
<polygon fill="#63b8ff" stroke="#63b8ff" points="2744.69,-160.09 2754.72,-156.65 2744.74,-153.09 2744.69,-160.09"/>
</g>
<!-- Node73 -->
<g id="node26" class="node">
<title>Node73</title>
<g id="a_node26"><a xlink:href="d__a__obj__enemy__create_8h.html" target="_top" xlink:title=" ">
<polygon fill="white" stroke="#666666" points="2467,-107 2340,-107 2340,-66 2467,-66 2467,-107"/>
<text text-anchor="start" x="2348" y="-95" font-family="Helvetica,sans-Serif" font-size="10.00">include/rel/d/a/obj</text>
<text text-anchor="start" x="2348" y="-84" font-family="Helvetica,sans-Serif" font-size="10.00">/d_a_obj_enemy_create</text>
<text text-anchor="middle" x="2403.5" y="-73" font-family="Helvetica,sans-Serif" font-size="10.00">/d_a_obj_enemy_create.h</text>
</a>
</g>
</g>
<!-- Node2&#45;&gt;Node73 -->
<g id="edge28" class="edge">
<title>Node2&#45;&gt;Node73</title>
<path fill="none" stroke="#63b8ff" d="M2744.75,-149.4C2676.65,-141.1 2568.13,-126.37 2475.5,-107 2472.84,-106.44 2470.13,-105.85 2467.4,-105.22"/>
<polygon fill="#63b8ff" stroke="#63b8ff" points="2744.3,-152.87 2754.65,-150.59 2745.14,-145.92 2744.3,-152.87"/>
</g>
<!-- Node74 -->
<g id="node27" class="node">
<title>Node74</title>
<g id="a_node27"><a xlink:href="d__a__obj__web0_8h.html" target="_top" xlink:title=" ">
<polygon fill="white" stroke="#666666" points="2604,-107 2485,-107 2485,-66 2604,-66 2604,-107"/>
<text text-anchor="start" x="2493" y="-95" font-family="Helvetica,sans-Serif" font-size="10.00">include/rel/d/a/obj</text>
<text text-anchor="start" x="2493" y="-84" font-family="Helvetica,sans-Serif" font-size="10.00">/d_a_obj_web0/d_a_obj</text>
<text text-anchor="middle" x="2544.5" y="-73" font-family="Helvetica,sans-Serif" font-size="10.00">_web0.h</text>
</a>
</g>
</g>
<!-- Node2&#45;&gt;Node74 -->
<g id="edge29" class="edge">
<title>Node2&#45;&gt;Node74</title>
<path fill="none" stroke="#63b8ff" d="M2744.91,-140.85C2706.19,-131.32 2656.49,-118.83 2612.5,-107 2609.77,-106.27 2606.99,-105.51 2604.17,-104.73"/>
<polygon fill="#63b8ff" stroke="#63b8ff" points="2744.03,-144.24 2754.57,-143.23 2745.7,-137.44 2744.03,-144.24"/>
</g>
<!-- Node75 -->
<g id="node28" class="node">
<title>Node75</title>
<g id="a_node28"><a xlink:href="d__a__obj__web1_8h.html" target="_top" xlink:title=" ">
<polygon fill="white" stroke="#666666" points="2741,-107 2622,-107 2622,-66 2741,-66 2741,-107"/>
<text text-anchor="start" x="2630" y="-95" font-family="Helvetica,sans-Serif" font-size="10.00">include/rel/d/a/obj</text>
<text text-anchor="start" x="2630" y="-84" font-family="Helvetica,sans-Serif" font-size="10.00">/d_a_obj_web1/d_a_obj</text>
<text text-anchor="middle" x="2681.5" y="-73" font-family="Helvetica,sans-Serif" font-size="10.00">_web1.h</text>
</a>
</g>
</g>
<!-- Node2&#45;&gt;Node75 -->
<g id="edge30" class="edge">
<title>Node2&#45;&gt;Node75</title>
<path fill="none" stroke="#63b8ff" d="M2774.7,-137.33C2757.2,-127.97 2736.31,-116.8 2718.75,-107.42"/>
<polygon fill="#63b8ff" stroke="#63b8ff" points="2772.76,-140.26 2783.23,-141.89 2776.06,-134.08 2772.76,-140.26"/>
</g>
<!-- Node76 -->
<g id="node29" class="node">
<title>Node76</title>
<g id="a_node29"><a xlink:href="d__a__obj__yobikusa_8h.html" target="_top" xlink:title=" ">
<polygon fill="white" stroke="#666666" points="2864,-107 2759,-107 2759,-66 2864,-66 2864,-107"/>
<text text-anchor="start" x="2767" y="-95" font-family="Helvetica,sans-Serif" font-size="10.00">include/rel/d/a/obj</text>
<text text-anchor="start" x="2767" y="-84" font-family="Helvetica,sans-Serif" font-size="10.00">/d_a_obj_yobikusa/d</text>
<text text-anchor="middle" x="2811.5" y="-73" font-family="Helvetica,sans-Serif" font-size="10.00">_a_obj_yobikusa.h</text>
</a>
</g>
</g>
<!-- Node2&#45;&gt;Node76 -->
<g id="edge31" class="edge">
<title>Node2&#45;&gt;Node76</title>
<path fill="none" stroke="#63b8ff" d="M2811.5,-131.36C2811.5,-123.45 2811.5,-114.87 2811.5,-107.42"/>
<polygon fill="#63b8ff" stroke="#63b8ff" points="2808,-131.09 2811.5,-141.09 2815,-131.09 2808,-131.09"/>
</g>
<!-- Node77 -->
<g id="node30" class="node">
<title>Node77</title>
<g id="a_node30"><a xlink:href="d__a__tag__ajnot_8h.html" target="_top" xlink:title=" ">
<polygon fill="white" stroke="#666666" points="3000.5,-107 2882.5,-107 2882.5,-66 3000.5,-66 3000.5,-107"/>
<text text-anchor="start" x="2890.5" y="-95" font-family="Helvetica,sans-Serif" font-size="10.00">include/rel/d/a/tag</text>
<text text-anchor="start" x="2890.5" y="-84" font-family="Helvetica,sans-Serif" font-size="10.00">/d_a_tag_ajnot/d_a_tag</text>
<text text-anchor="middle" x="2941.5" y="-73" font-family="Helvetica,sans-Serif" font-size="10.00">_ajnot.h</text>
</a>
</g>
</g>
<!-- Node2&#45;&gt;Node77 -->
<g id="edge32" class="edge">
<title>Node2&#45;&gt;Node77</title>
<path fill="none" stroke="#63b8ff" d="M2848.3,-137.33C2865.8,-127.97 2886.69,-116.8 2904.25,-107.42"/>
<polygon fill="#63b8ff" stroke="#63b8ff" points="2846.94,-134.08 2839.77,-141.89 2850.24,-140.26 2846.94,-134.08"/>
</g>
<!-- Node78 -->
<g id="node31" class="node">
<title>Node78</title>
<g id="a_node31"><a xlink:href="d__a__tag__telop_8h.html" target="_top" xlink:title=" ">
<polygon fill="white" stroke="#666666" points="3136.5,-107 3018.5,-107 3018.5,-66 3136.5,-66 3136.5,-107"/>
<text text-anchor="start" x="3026.5" y="-95" font-family="Helvetica,sans-Serif" font-size="10.00">include/rel/d/a/tag</text>
<text text-anchor="start" x="3026.5" y="-84" font-family="Helvetica,sans-Serif" font-size="10.00">/d_a_tag_telop/d_a_tag</text>
<text text-anchor="middle" x="3077.5" y="-73" font-family="Helvetica,sans-Serif" font-size="10.00">_telop.h</text>
</a>
</g>
</g>
<!-- Node2&#45;&gt;Node78 -->
<g id="edge33" class="edge">
<title>Node2&#45;&gt;Node78</title>
<path fill="none" stroke="#63b8ff" d="M2877.75,-140.83C2916.28,-131.29 2965.73,-118.8 3009.5,-107 3012.35,-106.23 3015.26,-105.44 3018.19,-104.63"/>
<polygon fill="#63b8ff" stroke="#63b8ff" points="2877.01,-137.41 2868.14,-143.2 2878.69,-144.2 2877.01,-137.41"/>
</g>
<!-- Node79 -->
<g id="node32" class="node">
<title>Node79</title>
<g id="a_node32"><a xlink:href="c__dylink_8cpp.html" target="_top" xlink:title=" ">
<polygon fill="white" stroke="#666666" points="3250,-96 3155,-96 3155,-77 3250,-77 3250,-96"/>
<text text-anchor="middle" x="3202.5" y="-84" font-family="Helvetica,sans-Serif" font-size="10.00">src/c/c_dylink.cpp</text>
</a>
</g>
</g>
<!-- Node2&#45;&gt;Node79 -->
<g id="edge34" class="edge">
<title>Node2&#45;&gt;Node79</title>
<path fill="none" stroke="#63b8ff" d="M2878.14,-150.62C2946.05,-143.28 3054.09,-129.28 3145.5,-107 3156.88,-104.23 3169.21,-100.15 3179.49,-96.44"/>
<polygon fill="#63b8ff" stroke="#63b8ff" points="2877.84,-147.13 2868.27,-151.66 2878.58,-154.09 2877.84,-147.13"/>
</g>
<!-- Node80 -->
<g id="node33" class="node">
<title>Node80</title>
<g id="a_node33"><a xlink:href="d__a__itembase_8cpp.html" target="_top" xlink:title=" ">
<polygon fill="white" stroke="#666666" points="3396.5,-96 3268.5,-96 3268.5,-77 3396.5,-77 3396.5,-96"/>
<text text-anchor="middle" x="3332.5" y="-84" font-family="Helvetica,sans-Serif" font-size="10.00">src/d/a/d_a_itembase.cpp</text>
</a>
</g>
</g>
<!-- Node2&#45;&gt;Node80 -->
<g id="edge36" class="edge">
<title>Node2&#45;&gt;Node80</title>
<path fill="none" stroke="#63b8ff" d="M2878.32,-152.59C2966.1,-146.1 3124.8,-131.96 3258.5,-107 3273.13,-104.27 3289.12,-100.2 3302.48,-96.48"/>
<polygon fill="#63b8ff" stroke="#63b8ff" points="2878.17,-149.09 2868.45,-153.31 2878.67,-156.07 2878.17,-149.09"/>
</g>
<!-- Node81 -->
<g id="node34" class="node">
<title>Node81</title>
<g id="a_node34"><a xlink:href="d__a__obj_8cpp.html" target="_top" xlink:title=" ">
<polygon fill="white" stroke="#666666" points="3516,-96 3415,-96 3415,-77 3516,-77 3516,-96"/>
<text text-anchor="middle" x="3465.5" y="-84" font-family="Helvetica,sans-Serif" font-size="10.00">src/d/a/d_a_obj.cpp</text>
</a>
</g>
</g>
<!-- Node2&#45;&gt;Node81 -->
<g id="edge37" class="edge">
<title>Node2&#45;&gt;Node81</title>
<path fill="none" stroke="#63b8ff" d="M2878.27,-156.37C2988.94,-154.21 3216.89,-145.06 3405.5,-107 3417.85,-104.51 3431.21,-100.32 3442.18,-96.46"/>
<polygon fill="#63b8ff" stroke="#63b8ff" points="2878.41,-152.86 2868.48,-156.54 2878.54,-159.86 2878.41,-152.86"/>
</g>
<!-- Node82 -->
<g id="node35" class="node">
<title>Node82</title>
<g id="a_node35"><a xlink:href="d__bg__s_8cpp.html" target="_top" xlink:title=" ">
<polygon fill="white" stroke="#666666" points="3638.5,-96 3534.5,-96 3534.5,-77 3638.5,-77 3638.5,-96"/>
<text text-anchor="middle" x="3586.5" y="-84" font-family="Helvetica,sans-Serif" font-size="10.00">src/d/bg/d_bg_s.cpp</text>
</a>
</g>
</g>
<!-- Node2&#45;&gt;Node82 -->
<g id="edge40" class="edge">
<title>Node2&#45;&gt;Node82</title>
<path fill="none" stroke="#63b8ff" d="M2878.04,-157.51C3004.95,-157.34 3289.82,-151.49 3524.5,-107 3537.36,-104.56 3551.3,-100.33 3562.69,-96.43"/>
<polygon fill="#63b8ff" stroke="#63b8ff" points="2878.14,-154.01 2868.14,-157.51 2878.14,-161.01 2878.14,-154.01"/>
</g>
<!-- Node83 -->
<g id="node36" class="node">
<title>Node83</title>
<g id="a_node36"><a xlink:href="d__bg__s__movebg__actor_8cpp.html" target="_top" xlink:title=" ">
<polygon fill="white" stroke="#666666" points="3782.5,-101.5 3656.5,-101.5 3656.5,-71.5 3782.5,-71.5 3782.5,-101.5"/>
<text text-anchor="start" x="3664.5" y="-89.5" font-family="Helvetica,sans-Serif" font-size="10.00">src/d/bg/d_bg_s_movebg</text>
<text text-anchor="middle" x="3719.5" y="-78.5" font-family="Helvetica,sans-Serif" font-size="10.00">_actor.cpp</text>
</a>
</g>
</g>
<!-- Node2&#45;&gt;Node83 -->
<g id="edge41" class="edge">
<title>Node2&#45;&gt;Node83</title>
<path fill="none" stroke="#63b8ff" d="M2877.8,-157.62C3019.89,-157.95 3363.89,-153.38 3647.5,-107 3655.3,-105.72 3663.46,-103.95 3671.39,-101.99"/>
<polygon fill="#63b8ff" stroke="#63b8ff" points="2878.23,-154.12 2868.22,-157.59 2878.21,-161.12 2878.23,-154.12"/>
</g>
<!-- Node84 -->
<g id="node37" class="node">
<title>Node84</title>
<g id="a_node37"><a xlink:href="d__bg__w_8cpp.html" target="_top" xlink:title=" ">
<polygon fill="white" stroke="#666666" points="3908,-96 3801,-96 3801,-77 3908,-77 3908,-96"/>
<text text-anchor="middle" x="3854.5" y="-84" font-family="Helvetica,sans-Serif" font-size="10.00">src/d/bg/d_bg_w.cpp</text>
</a>
</g>
</g>
<!-- Node2&#45;&gt;Node84 -->
<g id="edge42" class="edge">
<title>Node2&#45;&gt;Node84</title>
<path fill="none" stroke="#63b8ff" d="M2878.1,-155.76C3068.95,-151.87 3615.4,-138.24 3791.5,-107 3804.69,-104.66 3818.98,-100.39 3830.62,-96.43"/>
<polygon fill="#63b8ff" stroke="#63b8ff" points="2878.3,-152.26 2868.37,-155.96 2878.44,-159.26 2878.3,-152.26"/>
</g>
<!-- Node85 -->
<g id="node38" class="node">
<title>Node85</title>
<g id="a_node38"><a xlink:href="d__cc__s_8cpp.html" target="_top" xlink:title=" ">
<polygon fill="white" stroke="#666666" points="4030.5,-96 3926.5,-96 3926.5,-77 4030.5,-77 4030.5,-96"/>
<text text-anchor="middle" x="3978.5" y="-84" font-family="Helvetica,sans-Serif" font-size="10.00">src/d/cc/d_cc_s.cpp</text>
</a>
</g>
</g>
<!-- Node2&#45;&gt;Node85 -->
<g id="edge43" class="edge">
<title>Node2&#45;&gt;Node85</title>
<path fill="none" stroke="#63b8ff" d="M2877.94,-156.25C3084.76,-153.56 3715.24,-142.58 3916.5,-107 3929.5,-104.7 3943.57,-100.43 3955.01,-96.47"/>
<polygon fill="#63b8ff" stroke="#63b8ff" points="2878.14,-152.75 2868.19,-156.37 2878.23,-159.75 2878.14,-152.75"/>
</g>
<!-- Node86 -->
<g id="node39" class="node">
<title>Node86</title>
<g id="a_node39"><a xlink:href="d__com__static_8cpp.html" target="_top" xlink:title=" ">
<polygon fill="white" stroke="#666666" points="4188.5,-96 4048.5,-96 4048.5,-77 4188.5,-77 4188.5,-96"/>
<text text-anchor="middle" x="4118.5" y="-84" font-family="Helvetica,sans-Serif" font-size="10.00">src/d/com/d_com_static.cpp</text>
</a>
</g>
</g>
<!-- Node2&#45;&gt;Node86 -->
<g id="edge45" class="edge">
<title>Node2&#45;&gt;Node86</title>
<path fill="none" stroke="#63b8ff" d="M2878.35,-156.05C3100.42,-152.62 3812.38,-139.32 4039.5,-107 4055.86,-104.67 4073.77,-100.4 4088.39,-96.44"/>
<polygon fill="#63b8ff" stroke="#63b8ff" points="2878.36,-152.55 2868.41,-156.2 2878.47,-159.55 2878.36,-152.55"/>
</g>
<!-- Node87 -->
<g id="node40" class="node">
<title>Node87</title>
<g id="a_node40"><a xlink:href="d__attention_8cpp.html" target="_top" xlink:title=" ">
<polygon fill="white" stroke="#666666" points="4314,-96 4207,-96 4207,-77 4314,-77 4314,-96"/>
<text text-anchor="middle" x="4260.5" y="-84" font-family="Helvetica,sans-Serif" font-size="10.00">src/d/d_attention.cpp</text>
</a>
</g>
</g>
<!-- Node2&#45;&gt;Node87 -->
<g id="edge46" class="edge">
<title>Node2&#45;&gt;Node87</title>
<path fill="none" stroke="#63b8ff" d="M2877.98,-156.92C3117.99,-156.28 3939.12,-150.85 4197.5,-107 4210.82,-104.74 4225.25,-100.42 4236.93,-96.42"/>
<polygon fill="#63b8ff" stroke="#63b8ff" points="2878.17,-153.42 2868.18,-156.95 2878.19,-160.42 2878.17,-153.42"/>
</g>
<!-- Node88 -->
<g id="node41" class="node">
<title>Node88</title>
<g id="a_node41"><a xlink:href="d__cam__param_8cpp.html" target="_top" xlink:title=" ">
<polygon fill="white" stroke="#666666" points="4453,-96 4332,-96 4332,-77 4453,-77 4453,-96"/>
<text text-anchor="middle" x="4392.5" y="-84" font-family="Helvetica,sans-Serif" font-size="10.00">src/d/d_cam_param.cpp</text>
</a>
</g>
</g>
<!-- Node2&#45;&gt;Node88 -->
<g id="edge47" class="edge">
<title>Node2&#45;&gt;Node88</title>
<path fill="none" stroke="#63b8ff" d="M2877.95,-156.91C3131.47,-156.22 4037.93,-150.7 4322.5,-107 4337.21,-104.74 4353.24,-100.42 4366.23,-96.42"/>
<polygon fill="#63b8ff" stroke="#63b8ff" points="2878.23,-153.41 2868.24,-156.93 2878.25,-160.41 2878.23,-153.41"/>
</g>
<!-- Node89 -->
<g id="node42" class="node">
<title>Node89</title>
<g id="a_node42"><a xlink:href="d__camera_8cpp.html" target="_top" xlink:title=" ">
<polygon fill="white" stroke="#666666" points="4573.5,-96 4471.5,-96 4471.5,-77 4573.5,-77 4573.5,-96"/>
<text text-anchor="middle" x="4522.5" y="-84" font-family="Helvetica,sans-Serif" font-size="10.00">src/d/d_camera.cpp</text>
</a>
</g>
</g>
<!-- Node2&#45;&gt;Node89 -->
<g id="edge48" class="edge">
<title>Node2&#45;&gt;Node89</title>
<path fill="none" stroke="#63b8ff" d="M2878.22,-157.45C3146.8,-158.9 4149.42,-160.52 4461.5,-107 4474.43,-104.78 4488.4,-100.47 4499.71,-96.46"/>
<polygon fill="#63b8ff" stroke="#63b8ff" points="2878.26,-153.95 2868.24,-157.4 2878.22,-160.95 2878.26,-153.95"/>
</g>
<!-- Node90 -->
<g id="node43" class="node">
<title>Node90</title>
<g id="a_node43"><a xlink:href="d__drawlist_8cpp.html" target="_top" xlink:title=" ">
<polygon fill="white" stroke="#666666" points="4695.5,-96 4591.5,-96 4591.5,-77 4695.5,-77 4695.5,-96"/>
<text text-anchor="middle" x="4643.5" y="-84" font-family="Helvetica,sans-Serif" font-size="10.00">src/d/d_drawlist.cpp</text>
</a>
</g>
</g>
<!-- Node2&#45;&gt;Node90 -->
<g id="edge50" class="edge">
<title>Node2&#45;&gt;Node90</title>
<path fill="none" stroke="#63b8ff" d="M2878.16,-156.23C3180.12,-152.57 4412.42,-135.99 4582.5,-107 4595.43,-104.8 4609.4,-100.48 4620.71,-96.47"/>
<polygon fill="#63b8ff" stroke="#63b8ff" points="2878.44,-152.72 2868.49,-156.34 2878.53,-159.72 2878.44,-152.72"/>
</g>
<!-- Node91 -->
<g id="node44" class="node">
<title>Node91</title>
<g id="a_node44"><a xlink:href="d__eye__hl_8cpp.html" target="_top" xlink:title=" ">
<polygon fill="white" stroke="#666666" points="4811.5,-96 4713.5,-96 4713.5,-77 4811.5,-77 4811.5,-96"/>
<text text-anchor="middle" x="4762.5" y="-84" font-family="Helvetica,sans-Serif" font-size="10.00">src/d/d_eye_hl.cpp</text>
</a>
</g>
</g>
<!-- Node2&#45;&gt;Node91 -->
<g id="edge51" class="edge">
<title>Node2&#45;&gt;Node91</title>
<path fill="none" stroke="#63b8ff" d="M2878.09,-156.42C3192.64,-153.5 4522.03,-139.33 4704.5,-107 4716.84,-104.81 4730.13,-100.5 4740.87,-96.48"/>
<polygon fill="#63b8ff" stroke="#63b8ff" points="2878.38,-152.91 2868.41,-156.5 2878.44,-159.91 2878.38,-152.91"/>
</g>
<!-- Node92 -->
<g id="node45" class="node">
<title>Node92</title>
<g id="a_node45"><a xlink:href="d__gameover_8cpp.html" target="_top" xlink:title=" ">
<polygon fill="white" stroke="#666666" points="4943,-96 4830,-96 4830,-77 4943,-77 4943,-96"/>
<text text-anchor="middle" x="4886.5" y="-84" font-family="Helvetica,sans-Serif" font-size="10.00">src/d/d_gameover.cpp</text>
</a>
</g>
</g>
<!-- Node2&#45;&gt;Node92 -->
<g id="edge52" class="edge">
<title>Node2&#45;&gt;Node92</title>
<path fill="none" stroke="#63b8ff" d="M2877.87,-156.38C3203.61,-153.21 4625.39,-137.7 4820.5,-107 4834.43,-104.81 4849.54,-100.49 4861.78,-96.48"/>
<polygon fill="#63b8ff" stroke="#63b8ff" points="2878.23,-152.88 2868.26,-156.48 2878.29,-159.88 2878.23,-152.88"/>
</g>
<!-- Node93 -->
<g id="node46" class="node">
<title>Node93</title>
<g id="a_node46"><a xlink:href="d__insect_8cpp.html" target="_top" xlink:title=" ">
<polygon fill="white" stroke="#666666" points="5057.5,-96 4961.5,-96 4961.5,-77 5057.5,-77 5057.5,-96"/>
<text text-anchor="middle" x="5009.5" y="-84" font-family="Helvetica,sans-Serif" font-size="10.00">src/d/d_insect.cpp</text>
</a>
</g>
</g>
<!-- Node2&#45;&gt;Node93 -->
<g id="edge53" class="edge">
<title>Node2&#45;&gt;Node93</title>
<path fill="none" stroke="#63b8ff" d="M2878.32,-156.63C3217.81,-154.61 4743.51,-143.53 4951.5,-107 4963.95,-104.81 4977.36,-100.45 4988.14,-96.4"/>
<polygon fill="#63b8ff" stroke="#63b8ff" points="2878.47,-153.13 2868.5,-156.69 2878.52,-160.13 2878.47,-153.13"/>
</g>
<!-- Node94 -->
<g id="node47" class="node">
<title>Node94</title>
<g id="a_node47"><a xlink:href="d__kyeff_8cpp.html" target="_top" xlink:title=" ">
<polygon fill="white" stroke="#666666" points="5165.5,-96 5075.5,-96 5075.5,-77 5165.5,-77 5165.5,-96"/>
<text text-anchor="middle" x="5120.5" y="-84" font-family="Helvetica,sans-Serif" font-size="10.00">src/d/d_kyeff.cpp</text>
</a>
</g>
</g>
<!-- Node2&#45;&gt;Node94 -->
<g id="edge54" class="edge">
<title>Node2&#45;&gt;Node94</title>
<path fill="none" stroke="#63b8ff" d="M2878.21,-156.81C3228.43,-155.62 4846.98,-147.93 5066.5,-107 5078.16,-104.83 5090.65,-100.46 5100.68,-96.41"/>
<polygon fill="#63b8ff" stroke="#63b8ff" points="2878.27,-153.31 2868.28,-156.84 2878.29,-160.31 2878.27,-153.31"/>
</g>
<!-- Node95 -->
<g id="node48" class="node">
<title>Node95</title>
<g id="a_node48"><a xlink:href="d__path_8cpp.html" target="_top" xlink:title=" ">
<polygon fill="white" stroke="#666666" points="5273,-96 5184,-96 5184,-77 5273,-77 5273,-96"/>
<text text-anchor="middle" x="5228.5" y="-84" font-family="Helvetica,sans-Serif" font-size="10.00">src/d/d_path.cpp</text>
</a>
</g>
</g>
<!-- Node2&#45;&gt;Node95 -->
<g id="edge55" class="edge">
<title>Node2&#45;&gt;Node95</title>
<path fill="none" stroke="#63b8ff" d="M2878.21,-156.88C3238.43,-156.06 4943.78,-149.9 5174.5,-107 5186.16,-104.83 5198.65,-100.47 5208.68,-96.41"/>
<polygon fill="#63b8ff" stroke="#63b8ff" points="2878.46,-153.38 2868.46,-156.9 2878.47,-160.38 2878.46,-153.38"/>
</g>
<!-- Node96 -->
<g id="node49" class="node">
<title>Node96</title>
<g id="a_node49"><a xlink:href="d__resorce_8cpp.html" target="_top" xlink:title=" ">
<polygon fill="white" stroke="#666666" points="5393.5,-96 5291.5,-96 5291.5,-77 5393.5,-77 5393.5,-96"/>
<text text-anchor="middle" x="5342.5" y="-84" font-family="Helvetica,sans-Serif" font-size="10.00">src/d/d_resorce.cpp</text>
</a>
</g>
</g>
<!-- Node2&#45;&gt;Node96 -->
<g id="edge56" class="edge">
<title>Node2&#45;&gt;Node96</title>
<path fill="none" stroke="#63b8ff" d="M2878.2,-156.8C3248.03,-155.53 5038.88,-147.36 5281.5,-107 5294.55,-104.83 5308.65,-100.46 5320,-96.41"/>
<polygon fill="#63b8ff" stroke="#63b8ff" points="2878.42,-153.3 2868.43,-156.83 2878.44,-160.3 2878.42,-153.3"/>
</g>
<!-- Node97 -->
<g id="node50" class="node">
<title>Node97</title>
<g id="a_node50"><a xlink:href="d__select__cursor_8cpp.html" target="_top" xlink:title=" ">
<polygon fill="white" stroke="#666666" points="5539.5,-96 5411.5,-96 5411.5,-77 5539.5,-77 5539.5,-96"/>
<text text-anchor="middle" x="5475.5" y="-84" font-family="Helvetica,sans-Serif" font-size="10.00">src/d/d_select_cursor.cpp</text>
</a>
</g>
</g>
<!-- Node2&#45;&gt;Node97 -->
<g id="edge57" class="edge">
<title>Node2&#45;&gt;Node97</title>
<path fill="none" stroke="#63b8ff" d="M2878.05,-156.68C3258.15,-154.71 5146.28,-143.15 5402.5,-107 5417.96,-104.82 5434.82,-100.45 5448.44,-96.4"/>
<polygon fill="#63b8ff" stroke="#63b8ff" points="2878.22,-153.18 2868.24,-156.73 2878.26,-160.18 2878.22,-153.18"/>
</g>
<!-- Node15&#45;&gt;Node12 -->
<g id="edge5" class="edge">
<title>Node15&#45;&gt;Node12</title>
<path fill="none" stroke="#63b8ff" d="M223.9,-71.05C249.31,-57.15 286.91,-36.57 308.22,-24.91"/>
<polygon fill="#63b8ff" stroke="#63b8ff" points="222.26,-67.96 215.17,-75.83 225.62,-74.1 222.26,-67.96"/>
</g>
<!-- Node15&#45;&gt;Node16 -->
<g id="edge6" class="edge">
<title>Node15&#45;&gt;Node16</title>
<path fill="none" stroke="#63b8ff" d="M170.16,-71.42C143.15,-57.52 102.66,-36.67 79.81,-24.91"/>
<polygon fill="#63b8ff" stroke="#63b8ff" points="168.29,-74.4 178.78,-75.86 171.49,-68.17 168.29,-74.4"/>
</g>
<!-- Node15&#45;&gt;Node17 -->
<g id="edge7" class="edge">
<title>Node15&#45;&gt;Node17</title>
<path fill="none" stroke="#63b8ff" d="M197.5,-65.39C197.5,-54.15 197.5,-40.41 197.5,-30.27"/>
<polygon fill="#63b8ff" stroke="#63b8ff" points="194,-65.18 197.5,-75.18 201,-65.18 194,-65.18"/>
</g>
<!-- Node39&#45;&gt;Node3 -->
<g id="edge15" class="edge">
<title>Node39&#45;&gt;Node3</title>
<path fill="none" stroke="#63b8ff" d="M5647.47,-65.42C5670.8,-52.01 5700.35,-35.04 5718.04,-24.88"/>
<polygon fill="#63b8ff" stroke="#63b8ff" points="5645.81,-62.33 5638.88,-70.35 5649.3,-68.4 5645.81,-62.33"/>
</g>
<!-- Node39&#45;&gt;Node12 -->
<g id="edge16" class="edge">
<title>Node39&#45;&gt;Node12</title>
<path fill="none" stroke="#63b8ff" d="M5560.22,-68.25C5556.29,-67.35 5552.35,-66.59 5548.5,-66 5265.93,-22.9 688.15,-56.03 403.5,-30 391.71,-28.92 379.04,-27.02 367.37,-24.95"/>
<polygon fill="#63b8ff" stroke="#63b8ff" points="5559.23,-71.6 5569.78,-70.66 5560.94,-64.82 5559.23,-71.6"/>
</g>
<!-- Node39&#45;&gt;Node46 -->
<g id="edge17" class="edge">
<title>Node39&#45;&gt;Node46</title>
<path fill="none" stroke="#63b8ff" d="M5612.5,-59.96C5612.5,-47.57 5612.5,-33.49 5612.5,-24.68"/>
<polygon fill="#63b8ff" stroke="#63b8ff" points="5609,-59.59 5612.5,-69.59 5616,-59.59 5609,-59.59"/>
</g>
<!-- Node71&#45;&gt;Node12 -->
<g id="edge26" class="edge">
<title>Node71&#45;&gt;Node12</title>
<path fill="none" stroke="#63b8ff" d="M374.25,-63.36C360.45,-50.23 343.73,-34.31 333.62,-24.68"/>
<polygon fill="#63b8ff" stroke="#63b8ff" points="371.62,-65.7 381.28,-70.06 376.45,-60.63 371.62,-65.7"/>
</g>
<!-- Node71&#45;&gt;Node72 -->
<g id="edge27" class="edge">
<title>Node71&#45;&gt;Node72</title>
<path fill="none" stroke="#63b8ff" d="M420.43,-63.36C434.04,-50.23 450.53,-34.31 460.51,-24.68"/>
<polygon fill="#63b8ff" stroke="#63b8ff" points="418.27,-60.59 413.51,-70.05 423.13,-65.62 418.27,-60.59"/>
</g>
</g>
</svg>
        <g id="navigator" transform="translate(0 0)" fill="#404254">
                <rect fill="#f2f5e9" fill-opacity="0.5" stroke="#606060" stroke-width=".5" x="0" y="0" width="60" height="60"/>
                <use id="zoomplus" xlink:href="#zoomPlus" x="17" y="9" onmousedown="handleZoom(evt,'in')"/>
                <use id="zoomminus" xlink:href="#zoomMin" x="42" y="9" onmousedown="handleZoom(evt,'out')"/>
                <use id="reset" xlink:href="#resetDef" x="30" y="36" onmousedown="handleReset()"/>
                <g id="arrowUp" xlink:href="#dirArrow" transform="translate(30 24)" onmousedown="handlePan(0,-1)">
                  <use xlink:href="#rim" fill="#404040">
                        <set attributeName="fill" to="#808080" begin="arrowUp.mouseover" end="arrowUp.mouseout"/>
                  </use>
                  <path fill="none" stroke="white" stroke-width="1.5" d="M0,-3.0v7 M-2.5,-0.5L0,-3.0L2.5,-0.5"/>
                </g>
                <g id="arrowRight" xlink:href="#dirArrow" transform="rotate(90) translate(36 -43)" onmousedown="handlePan(1,0)">
                  <use xlink:href="#rim" fill="#404040">
                        <set attributeName="fill" to="#808080" begin="arrowRight.mouseover" end="arrowRight.mouseout"/>
                  </use>
                  <path fill="none" stroke="white" stroke-width="1.5" d="M0,-3.0v7 M-2.5,-0.5L0,-3.0L2.5,-0.5"/>
                </g>
                <g id="arrowDown" xlink:href="#dirArrow" transform="rotate(180) translate(-30 -48)" onmousedown="handlePan(0,1)">
                  <use xlink:href="#rim" fill="#404040">
                        <set attributeName="fill" to="#808080" begin="arrowDown.mouseover" end="arrowDown.mouseout"/>
                  </use>
                  <path fill="none" stroke="white" stroke-width="1.5" d="M0,-3.0v7 M-2.5,-0.5L0,-3.0L2.5,-0.5"/>
                </g>
                <g id="arrowLeft" xlink:href="#dirArrow" transform="rotate(270) translate(-36 17)" onmousedown="handlePan(-1,0)">
                  <use xlink:href="#rim" fill="#404040">
                        <set attributeName="fill" to="#808080" begin="arrowLeft.mouseover" end="arrowLeft.mouseout"/>
                  </use>
                  <path fill="none" stroke="white" stroke-width="1.5" d="M0,-3.0v7 M-2.5,-0.5L0,-3.0L2.5,-0.5"/>
                </g>
        </g>
        <svg viewBox="0 0 15 15" width="100%" height="30px" preserveAspectRatio="xMaxYMin meet">
         <g id="arrow_out" transform="scale(0.3 0.3)">
          <a xlink:href="d__a__alink_8h__dep__incl_org.svg" target="_base">
           <rect id="button" ry="5" rx="5" y="6" x="6" height="38" width="38"
                fill="#f2f5e9" fill-opacity="0.5" stroke="#606060" stroke-width="1.0"/>
           <path id="arrow"
             d="M 11.500037,31.436501 C 11.940474,20.09759 22.043105,11.32322 32.158766,21.979434 L 37.068811,17.246167 C 37.068811,17.246167 37.088388,32 37.088388,32 L 22.160133,31.978069 C 22.160133,31.978069 26.997745,27.140456 26.997745,27.140456 C 18.528582,18.264221 13.291696,25.230495 11.500037,31.436501 z"
             style="fill:#404040;"/>
          </a>
         </g>
        </svg>
</svg>
