<?xml version="1.0" encoding="UTF-8" standalone="no"?>
<!DOCTYPE svg PUBLIC "-//W3C//DTD SVG 1.1//EN"
 "http://www.w3.org/Graphics/SVG/1.1/DTD/svg11.dtd">
<!-- Generated by graphviz version 7.0.5 (20221223.1930)
 -->
<!-- Title: include/rel/d/a/kytag/d_a_kytag03/d_a_kytag03.h Pages: 1 -->
<svg width="2771pt" height="467pt"
 viewBox="0.00 0.00 2771.00 467.00" xmlns="http://www.w3.org/2000/svg" xmlns:xlink="http://www.w3.org/1999/xlink">
<g id="graph0" class="graph" transform="scale(1 1) rotate(0) translate(4 463)">
<title>include/rel/d/a/kytag/d_a_kytag03/d_a_kytag03.h</title>
<!-- Node1 -->
<g id="node1" class="node">
<title>Node1</title>
<g id="a_node1"><a xlink:title=" ">
<polygon fill="#999999" stroke="#666666" points="908.5,-459 768.5,-459 768.5,-429 908.5,-429 908.5,-459"/>
<text text-anchor="start" x="776.5" y="-447" font-family="Helvetica,sans-Serif" font-size="10.00">include/rel/d/a/kytag</text>
<text text-anchor="middle" x="838.5" y="-436" font-family="Helvetica,sans-Serif" font-size="10.00">/d_a_kytag03/d_a_kytag03.h</text>
</a>
</g>
</g>
<!-- Node2 -->
<g id="node2" class="node">
<title>Node2</title>
<g id="a_node2"><a xlink:href="d__path_8h.html" target="_top" xlink:title=" ">
<polygon fill="white" stroke="#666666" points="816.5,-393 754.5,-393 754.5,-374 816.5,-374 816.5,-393"/>
<text text-anchor="middle" x="785.5" y="-381" font-family="Helvetica,sans-Serif" font-size="10.00">d/d_path.h</text>
</a>
</g>
</g>
<!-- Node1&#45;&gt;Node2 -->
<g id="edge1" class="edge">
<title>Node1&#45;&gt;Node2</title>
<path fill="none" stroke="#63b8ff" d="M825.4,-428.54C818.02,-420.39 808.75,-410.16 801,-401.61"/>
<polygon fill="#63b8ff" stroke="#63b8ff" points="803.68,-399.36 794.38,-394.3 798.5,-404.06 803.68,-399.36"/>
</g>
<!-- Node5 -->
<g id="node5" class="node">
<title>Node5</title>
<g id="a_node5"><a xlink:href="f__op__actor__mng_8h.html" target="_top" xlink:title=" ">
<polygon fill="white" stroke="#666666" points="1290.5,-393 1174.5,-393 1174.5,-374 1290.5,-374 1290.5,-393"/>
<text text-anchor="middle" x="1232.5" y="-381" font-family="Helvetica,sans-Serif" font-size="10.00">f_op/f_op_actor_mng.h</text>
</a>
</g>
</g>
<!-- Node1&#45;&gt;Node5 -->
<g id="edge4" class="edge">
<title>Node1&#45;&gt;Node5</title>
<path fill="none" stroke="#63b8ff" d="M908.94,-432.54C980.79,-421.87 1091.61,-405.42 1163.09,-394.81"/>
<polygon fill="#63b8ff" stroke="#63b8ff" points="1163.34,-398.31 1172.71,-393.38 1162.31,-391.38 1163.34,-398.31"/>
</g>
<!-- Node3 -->
<g id="node3" class="node">
<title>Node3</title>
<g id="a_node3"><a xlink:href="types_8h.html" target="_top" xlink:title=" ">
<polygon fill="white" stroke="#666666" points="1148,-79.5 1067,-79.5 1067,-60.5 1148,-60.5 1148,-79.5"/>
<text text-anchor="middle" x="1107.5" y="-67.5" font-family="Helvetica,sans-Serif" font-size="10.00">dolphin/types.h</text>
</a>
</g>
</g>
<!-- Node2&#45;&gt;Node3 -->
<g id="edge2" class="edge">
<title>Node2&#45;&gt;Node3</title>
<path fill="none" stroke="#63b8ff" d="M754.09,-380.69C659.12,-374.5 378.14,-350.66 323.5,-283 315.12,-272.63 319.44,-265.7 323.5,-253 345.43,-184.4 354.72,-156.3 417.5,-121 472.66,-89.99 904.67,-76.15 1055.64,-72.23"/>
<polygon fill="#63b8ff" stroke="#63b8ff" points="1055.43,-75.73 1065.34,-71.98 1055.25,-68.74 1055.43,-75.73"/>
</g>
<!-- Node4 -->
<g id="node4" class="node">
<title>Node4</title>
<g id="a_node4"><a xlink:href="stddef_8h.html" target="_top" xlink:title=" ">
<polygon fill="white" stroke="#666666" points="1133,-19 1082,-19 1082,0 1133,0 1133,-19"/>
<text text-anchor="middle" x="1107.5" y="-7" font-family="Helvetica,sans-Serif" font-size="10.00">stddef.h</text>
</a>
</g>
</g>
<!-- Node3&#45;&gt;Node4 -->
<g id="edge3" class="edge">
<title>Node3&#45;&gt;Node4</title>
<path fill="none" stroke="#63b8ff" d="M1107.5,-60.37C1107.5,-52.5 1107.5,-40.6 1107.5,-30.39"/>
<polygon fill="#63b8ff" stroke="#63b8ff" points="1111,-30.68 1107.5,-20.68 1104,-30.68 1111,-30.68"/>
</g>
<!-- Node6 -->
<g id="node6" class="node">
<title>Node6</title>
<g id="a_node6"><a xlink:href="f__op__actor_8h.html" target="_top" xlink:title=" ">
<polygon fill="white" stroke="#666666" points="1338.5,-338 1246.5,-338 1246.5,-319 1338.5,-319 1338.5,-338"/>
<text text-anchor="middle" x="1292.5" y="-326" font-family="Helvetica,sans-Serif" font-size="10.00">f_op/f_op_actor.h</text>
</a>
</g>
</g>
<!-- Node5&#45;&gt;Node6 -->
<g id="edge5" class="edge">
<title>Node5&#45;&gt;Node6</title>
<path fill="none" stroke="#63b8ff" d="M1242.68,-373.51C1251.26,-365.93 1263.77,-354.88 1274.1,-345.75"/>
<polygon fill="#63b8ff" stroke="#63b8ff" points="1276.16,-348.6 1281.34,-339.36 1271.53,-343.36 1276.16,-348.6"/>
</g>
<!-- Node151 -->
<g id="node26" class="node">
<title>Node151</title>
<g id="a_node26"><a xlink:href="f__op__actor__iter_8h.html" target="_top" xlink:title=" ">
<polygon fill="white" stroke="#666666" points="1944.5,-338 1834.5,-338 1834.5,-319 1944.5,-319 1944.5,-338"/>
<text text-anchor="middle" x="1889.5" y="-326" font-family="Helvetica,sans-Serif" font-size="10.00">f_op/f_op_actor_iter.h</text>
</a>
</g>
</g>
<!-- Node5&#45;&gt;Node151 -->
<g id="edge32" class="edge">
<title>Node5&#45;&gt;Node151</title>
<path fill="none" stroke="#63b8ff" d="M1290.68,-379.24C1395.05,-373.15 1621.28,-358.86 1822.63,-338.24"/>
<polygon fill="#63b8ff" stroke="#63b8ff" points="1822.93,-341.73 1832.51,-337.22 1822.21,-334.77 1822.93,-341.73"/>
</g>
<!-- Node152 -->
<g id="node27" class="node">
<title>Node152</title>
<g id="a_node27"><a xlink:href="f__pc__manager_8h.html" target="_top" xlink:title=" ">
<polygon fill="white" stroke="#666666" points="904,-338 797,-338 797,-319 904,-319 904,-338"/>
<text text-anchor="middle" x="850.5" y="-326" font-family="Helvetica,sans-Serif" font-size="10.00">f_pc/f_pc_manager.h</text>
</a>
</g>
</g>
<!-- Node5&#45;&gt;Node152 -->
<g id="edge33" class="edge">
<title>Node5&#45;&gt;Node152</title>
<path fill="none" stroke="#63b8ff" d="M1174.07,-374.39C1104.33,-364.72 988.08,-348.59 915.55,-338.52"/>
<polygon fill="#63b8ff" stroke="#63b8ff" points="916.18,-335.08 905.8,-337.17 915.22,-342.01 916.18,-335.08"/>
</g>
<!-- Node165 -->
<g id="node36" class="node">
<title>Node165</title>
<g id="a_node36"><a xlink:href="f__pc__searcher_8h.html" target="_top" xlink:title=" ">
<polygon fill="white" stroke="#666666" points="440,-277.5 333,-277.5 333,-258.5 440,-258.5 440,-277.5"/>
<text text-anchor="middle" x="386.5" y="-265.5" font-family="Helvetica,sans-Serif" font-size="10.00">f_pc/f_pc_searcher.h</text>
</a>
</g>
</g>
<!-- Node5&#45;&gt;Node165 -->
<g id="edge50" class="edge">
<title>Node5&#45;&gt;Node165</title>
<path fill="none" stroke="#63b8ff" d="M1174.18,-377.84C1089.18,-370.78 926.36,-356.24 788.5,-338 639.36,-318.27 602.43,-310.4 454.5,-283 449.83,-282.14 444.99,-281.21 440.14,-280.25"/>
<polygon fill="#63b8ff" stroke="#63b8ff" points="440.87,-276.83 430.37,-278.3 439.49,-283.69 440.87,-276.83"/>
</g>
<!-- Node166 -->
<g id="node37" class="node">
<title>Node166</title>
<g id="a_node37"><a xlink:href="d__bg__s_8h.html" target="_top" xlink:title=" ">
<polygon fill="white" stroke="#666666" points="1171,-338 1094,-338 1094,-319 1171,-319 1171,-338"/>
<text text-anchor="middle" x="1132.5" y="-326" font-family="Helvetica,sans-Serif" font-size="10.00">d/bg/d_bg_s.h</text>
</a>
</g>
</g>
<!-- Node5&#45;&gt;Node166 -->
<g id="edge53" class="edge">
<title>Node5&#45;&gt;Node166</title>
<path fill="none" stroke="#63b8ff" d="M1215.54,-373.51C1200.14,-365.35 1177.19,-353.19 1159.31,-343.71"/>
<polygon fill="#63b8ff" stroke="#63b8ff" points="1161.03,-340.66 1150.55,-339.07 1157.75,-346.84 1161.03,-340.66"/>
</g>
<!-- Node172 -->
<g id="node42" class="node">
<title>Node172</title>
<g id="a_node42"><a xlink:href="d__bg__s__lin__chk_8h.html" target="_top" xlink:title=" ">
<polygon fill="white" stroke="#666666" points="1816,-338 1703,-338 1703,-319 1816,-319 1816,-338"/>
<text text-anchor="middle" x="1759.5" y="-326" font-family="Helvetica,sans-Serif" font-size="10.00">d/bg/d_bg_s_lin_chk.h</text>
</a>
</g>
</g>
<!-- Node5&#45;&gt;Node172 -->
<g id="edge63" class="edge">
<title>Node5&#45;&gt;Node172</title>
<path fill="none" stroke="#63b8ff" d="M1290.91,-376.63C1389.2,-366.74 1587.11,-346.84 1691.49,-336.34"/>
<polygon fill="#63b8ff" stroke="#63b8ff" points="1691.72,-339.83 1701.32,-335.35 1691.02,-332.87 1691.72,-339.83"/>
</g>
<!-- Node179 -->
<g id="node49" class="node">
<title>Node179</title>
<g id="a_node49"><a xlink:href="d__bg__s__wtr__chk_8h.html" target="_top" xlink:title=" ">
<polygon fill="white" stroke="#666666" points="2253,-338 2136,-338 2136,-319 2253,-319 2253,-338"/>
<text text-anchor="middle" x="2194.5" y="-326" font-family="Helvetica,sans-Serif" font-size="10.00">d/bg/d_bg_s_wtr_chk.h</text>
</a>
</g>
</g>
<!-- Node5&#45;&gt;Node179 -->
<g id="edge76" class="edge">
<title>Node5&#45;&gt;Node179</title>
<path fill="none" stroke="#63b8ff" d="M1290.87,-379.28C1458.75,-370.03 1942.46,-343.39 2124.28,-333.37"/>
<polygon fill="#63b8ff" stroke="#63b8ff" points="2124.26,-336.88 2134.05,-332.83 2123.87,-329.89 2124.26,-336.88"/>
</g>
<!-- Node7 -->
<g id="node7" class="node">
<title>Node7</title>
<g id="a_node7"><a xlink:href="JKRHeap_8h.html" target="_top" xlink:title=" ">
<polygon fill="white" stroke="#666666" points="1935,-277.5 1792,-277.5 1792,-258.5 1935,-258.5 1935,-277.5"/>
<text text-anchor="middle" x="1863.5" y="-265.5" font-family="Helvetica,sans-Serif" font-size="10.00">JSystem/JKernel/JKRHeap.h</text>
</a>
</g>
</g>
<!-- Node6&#45;&gt;Node7 -->
<g id="edge6" class="edge">
<title>Node6&#45;&gt;Node7</title>
<path fill="none" stroke="#63b8ff" d="M1338.74,-322.76C1435.16,-312.88 1658.81,-289.97 1780.69,-277.48"/>
<polygon fill="#63b8ff" stroke="#63b8ff" points="1780.7,-281 1790.3,-276.5 1779.99,-274.04 1780.7,-281"/>
</g>
<!-- Node13 -->
<g id="node10" class="node">
<title>Node13</title>
<g id="a_node10"><a xlink:href="d__kankyo_8h.html" target="_top" xlink:title=" ">
<polygon fill="white" stroke="#666666" points="1470,-277.5 1363,-277.5 1363,-258.5 1470,-258.5 1470,-277.5"/>
<text text-anchor="middle" x="1416.5" y="-265.5" font-family="Helvetica,sans-Serif" font-size="10.00">d/kankyo/d_kankyo.h</text>
</a>
</g>
</g>
<!-- Node6&#45;&gt;Node13 -->
<g id="edge9" class="edge">
<title>Node6&#45;&gt;Node13</title>
<path fill="none" stroke="#63b8ff" d="M1311.33,-318.62C1331.45,-309.12 1363.61,-293.95 1387.08,-282.88"/>
<polygon fill="#63b8ff" stroke="#63b8ff" points="1388.57,-286.05 1396.12,-278.61 1385.58,-279.72 1388.57,-286.05"/>
</g>
<!-- Node16 -->
<g id="node14" class="node">
<title>Node16</title>
<g id="a_node14"><a xlink:href="global_8h.html" target="_top" xlink:title=" ">
<polygon fill="white" stroke="#666666" points="1340.5,-145.5 1290.5,-145.5 1290.5,-126.5 1340.5,-126.5 1340.5,-145.5"/>
<text text-anchor="middle" x="1315.5" y="-133.5" font-family="Helvetica,sans-Serif" font-size="10.00">global.h</text>
</a>
</g>
</g>
<!-- Node6&#45;&gt;Node16 -->
<g id="edge31" class="edge">
<title>Node6&#45;&gt;Node16</title>
<path fill="none" stroke="#63b8ff" d="M1293.29,-318.6C1295.29,-296.37 1300.89,-236.6 1307.5,-187 1308.83,-177.06 1310.56,-166.04 1312.07,-156.89"/>
<polygon fill="#63b8ff" stroke="#63b8ff" points="1315.47,-157.77 1313.69,-147.32 1308.57,-156.6 1315.47,-157.77"/>
</g>
<!-- Node138 -->
<g id="node16" class="node">
<title>Node138</title>
<g id="a_node16"><a xlink:href="f__pc__leaf_8h.html" target="_top" xlink:title=" ">
<polygon fill="white" stroke="#666666" points="820.5,-211.5 734.5,-211.5 734.5,-192.5 820.5,-192.5 820.5,-211.5"/>
<text text-anchor="middle" x="777.5" y="-199.5" font-family="Helvetica,sans-Serif" font-size="10.00">f_pc/f_pc_leaf.h</text>
</a>
</g>
</g>
<!-- Node6&#45;&gt;Node138 -->
<g id="edge18" class="edge">
<title>Node6&#45;&gt;Node138</title>
<path fill="none" stroke="#63b8ff" d="M1288.73,-318.69C1281.26,-302.45 1262.89,-268.08 1235.5,-253 1156.34,-209.43 919.5,-232.59 830.5,-217 826.68,-216.33 822.74,-215.52 818.8,-214.63"/>
<polygon fill="#63b8ff" stroke="#63b8ff" points="819.87,-211.29 809.32,-212.32 818.21,-218.09 819.87,-211.29"/>
</g>
<!-- Node8 -->
<g id="node8" class="node">
<title>Node8</title>
<g id="a_node8"><a xlink:href="JKRDisposer_8h.html" target="_top" xlink:title=" ">
<polygon fill="#fff0f0" stroke="red" points="1942.5,-211.5 1784.5,-211.5 1784.5,-192.5 1942.5,-192.5 1942.5,-211.5"/>
<text text-anchor="middle" x="1863.5" y="-199.5" font-family="Helvetica,sans-Serif" font-size="10.00">JSystem/JKernel/JKRDisposer.h</text>
</a>
</g>
</g>
<!-- Node7&#45;&gt;Node8 -->
<g id="edge7" class="edge">
<title>Node7&#45;&gt;Node8</title>
<path fill="none" stroke="#63b8ff" d="M1863.5,-258.1C1863.5,-249.12 1863.5,-234.95 1863.5,-223.22"/>
<polygon fill="#63b8ff" stroke="#63b8ff" points="1867,-223.34 1863.5,-213.34 1860,-223.34 1867,-223.34"/>
</g>
<!-- Node10 -->
<g id="node9" class="node">
<title>Node10</title>
<g id="a_node9"><a xlink:href="OSMutex_8h.html" target="_top" xlink:title=" ">
<polygon fill="#fff0f0" stroke="red" points="2072.5,-211.5 1960.5,-211.5 1960.5,-192.5 2072.5,-192.5 2072.5,-211.5"/>
<text text-anchor="middle" x="2016.5" y="-199.5" font-family="Helvetica,sans-Serif" font-size="10.00">dolphin/os/OSMutex.h</text>
</a>
</g>
</g>
<!-- Node7&#45;&gt;Node10 -->
<g id="edge8" class="edge">
<title>Node7&#45;&gt;Node10</title>
<path fill="none" stroke="#63b8ff" d="M1884.77,-258.1C1910.81,-247.21 1955.11,-228.68 1985.08,-216.14"/>
<polygon fill="#63b8ff" stroke="#63b8ff" points="1986.14,-219.5 1994.01,-212.41 1983.43,-213.04 1986.14,-219.5"/>
</g>
<!-- Node13&#45;&gt;Node3 -->
<g id="edge13" class="edge">
<title>Node13&#45;&gt;Node3</title>
<path fill="none" stroke="#63b8ff" d="M1422.32,-258.16C1431.56,-242.93 1447.37,-211.07 1435.5,-187 1414.19,-143.79 1393.31,-141.05 1349.5,-121 1287.79,-92.76 1209.95,-80.33 1159.47,-74.95"/>
<polygon fill="#63b8ff" stroke="#63b8ff" points="1160,-71.49 1149.7,-73.97 1159.3,-78.45 1160,-71.49"/>
</g>
<!-- Node14 -->
<g id="node11" class="node">
<title>Node14</title>
<g id="a_node11"><a xlink:href="J3DStruct_8h.html" target="_top" xlink:title=" ">
<polygon fill="#fff0f0" stroke="red" points="1606.5,-217 1482.5,-217 1482.5,-187 1606.5,-187 1606.5,-217"/>
<text text-anchor="start" x="1490.5" y="-205" font-family="Helvetica,sans-Serif" font-size="10.00">JSystem/J3DGraphBase</text>
<text text-anchor="middle" x="1544.5" y="-194" font-family="Helvetica,sans-Serif" font-size="10.00">/J3DStruct.h</text>
</a>
</g>
</g>
<!-- Node13&#45;&gt;Node14 -->
<g id="edge10" class="edge">
<title>Node13&#45;&gt;Node14</title>
<path fill="none" stroke="#63b8ff" d="M1434.3,-258.1C1452.61,-248.95 1481.72,-234.39 1505.43,-222.54"/>
<polygon fill="#63b8ff" stroke="#63b8ff" points="1506.81,-225.76 1514.19,-218.15 1503.68,-219.5 1506.81,-225.76"/>
</g>
<!-- Node23 -->
<g id="node12" class="node">
<title>Node23</title>
<g id="a_node12"><a xlink:href="d__kankyo__wether_8h.html" target="_top" xlink:title=" ">
<polygon fill="#fff0f0" stroke="red" points="1766.5,-211.5 1624.5,-211.5 1624.5,-192.5 1766.5,-192.5 1766.5,-211.5"/>
<text text-anchor="middle" x="1695.5" y="-199.5" font-family="Helvetica,sans-Serif" font-size="10.00">d/kankyo/d_kankyo_wether.h</text>
</a>
</g>
</g>
<!-- Node13&#45;&gt;Node23 -->
<g id="edge11" class="edge">
<title>Node13&#45;&gt;Node23</title>
<path fill="none" stroke="#63b8ff" d="M1455.59,-258.03C1505.29,-246.63 1591.17,-226.93 1645.57,-214.45"/>
<polygon fill="#63b8ff" stroke="#63b8ff" points="1646.24,-217.89 1655.2,-212.24 1644.67,-211.07 1646.24,-217.89"/>
</g>
<!-- Node13&#45;&gt;Node16 -->
<g id="edge14" class="edge">
<title>Node13&#45;&gt;Node16</title>
<path fill="none" stroke="#63b8ff" d="M1382.14,-258.15C1360.97,-250.79 1335.3,-238.04 1321.5,-217 1309.88,-199.28 1309.95,-174.37 1311.92,-157.07"/>
<polygon fill="#63b8ff" stroke="#63b8ff" points="1315.37,-157.7 1313.37,-147.3 1308.44,-156.67 1315.37,-157.7"/>
</g>
<!-- Node47 -->
<g id="node15" class="node">
<title>Node47</title>
<g id="a_node15"><a xlink:href="m__Do__ext_8h.html" target="_top" xlink:title=" ">
<polygon fill="#fff0f0" stroke="red" points="1426.5,-211.5 1330.5,-211.5 1330.5,-192.5 1426.5,-192.5 1426.5,-211.5"/>
<text text-anchor="middle" x="1378.5" y="-199.5" font-family="Helvetica,sans-Serif" font-size="10.00">m_Do/m_Do_ext.h</text>
</a>
</g>
</g>
<!-- Node13&#45;&gt;Node47 -->
<g id="edge16" class="edge">
<title>Node13&#45;&gt;Node47</title>
<path fill="none" stroke="#63b8ff" d="M1411.22,-258.1C1405.6,-248.64 1396.56,-233.42 1389.41,-221.37"/>
<polygon fill="#63b8ff" stroke="#63b8ff" points="1392.63,-219.94 1384.51,-213.12 1386.61,-223.51 1392.63,-219.94"/>
</g>
<!-- Node43 -->
<g id="node13" class="node">
<title>Node43</title>
<g id="a_node13"><a xlink:href="c__xyz_8h.html" target="_top" xlink:title=" ">
<polygon fill="#fff0f0" stroke="red" points="1980.5,-151 1864.5,-151 1864.5,-121 1980.5,-121 1980.5,-151"/>
<text text-anchor="start" x="1872.5" y="-139" font-family="Helvetica,sans-Serif" font-size="10.00">SSystem/SComponent</text>
<text text-anchor="middle" x="1922.5" y="-128" font-family="Helvetica,sans-Serif" font-size="10.00">/c_xyz.h</text>
</a>
</g>
</g>
<!-- Node23&#45;&gt;Node43 -->
<g id="edge12" class="edge">
<title>Node23&#45;&gt;Node43</title>
<path fill="none" stroke="#63b8ff" d="M1727.06,-192.1C1761.36,-182.43 1817.02,-166.74 1860.18,-154.57"/>
<polygon fill="#63b8ff" stroke="#63b8ff" points="1861.02,-157.97 1869.69,-151.89 1859.12,-151.23 1861.02,-157.97"/>
</g>
<!-- Node16&#45;&gt;Node3 -->
<g id="edge15" class="edge">
<title>Node16&#45;&gt;Node3</title>
<path fill="none" stroke="#63b8ff" d="M1294.78,-126.04C1290.43,-124.28 1285.84,-122.51 1281.5,-121 1238.78,-106.12 1189.1,-92.17 1153.79,-82.8"/>
<polygon fill="#63b8ff" stroke="#63b8ff" points="1154.88,-79.47 1144.32,-80.31 1153.1,-86.24 1154.88,-79.47"/>
</g>
<!-- Node47&#45;&gt;Node16 -->
<g id="edge17" class="edge">
<title>Node47&#45;&gt;Node16</title>
<path fill="none" stroke="#63b8ff" d="M1369.74,-192.1C1360.05,-182.26 1344.23,-166.18 1332.16,-153.93"/>
<polygon fill="#63b8ff" stroke="#63b8ff" points="1334.76,-151.57 1325.25,-146.9 1329.77,-156.48 1334.76,-151.57"/>
</g>
<!-- Node139 -->
<g id="node17" class="node">
<title>Node139</title>
<g id="a_node17"><a xlink:href="f__pc__base_8h.html" target="_top" xlink:title=" ">
<polygon fill="white" stroke="#666666" points="295,-145.5 204,-145.5 204,-126.5 295,-126.5 295,-145.5"/>
<text text-anchor="middle" x="249.5" y="-133.5" font-family="Helvetica,sans-Serif" font-size="10.00">f_pc/f_pc_base.h</text>
</a>
</g>
</g>
<!-- Node138&#45;&gt;Node139 -->
<g id="edge19" class="edge">
<title>Node138&#45;&gt;Node139</title>
<path fill="none" stroke="#63b8ff" d="M734.29,-195.76C639.36,-184.26 412.6,-156.77 306.31,-143.89"/>
<polygon fill="#63b8ff" stroke="#63b8ff" points="307.03,-140.45 296.68,-142.72 306.19,-147.4 307.03,-140.45"/>
</g>
<!-- Node147 -->
<g id="node22" class="node">
<title>Node147</title>
<g id="a_node22"><a xlink:href="f__pc__draw__priority_8h.html" target="_top" xlink:title=" ">
<polygon fill="white" stroke="#666666" points="826,-145.5 701,-145.5 701,-126.5 826,-126.5 826,-145.5"/>
<text text-anchor="middle" x="763.5" y="-133.5" font-family="Helvetica,sans-Serif" font-size="10.00">f_pc/f_pc_draw_priority.h</text>
</a>
</g>
</g>
<!-- Node138&#45;&gt;Node147 -->
<g id="edge24" class="edge">
<title>Node138&#45;&gt;Node147</title>
<path fill="none" stroke="#63b8ff" d="M775.55,-192.1C773.57,-183.03 770.42,-168.64 767.84,-156.85"/>
<polygon fill="#63b8ff" stroke="#63b8ff" points="771.31,-156.32 765.75,-147.3 764.47,-157.82 771.31,-156.32"/>
</g>
<!-- Node148 -->
<g id="node23" class="node">
<title>Node148</title>
<g id="a_node23"><a xlink:href="f__pc__method_8h.html" target="_top" xlink:title=" ">
<polygon fill="white" stroke="#666666" points="1272.5,-145.5 1170.5,-145.5 1170.5,-126.5 1272.5,-126.5 1272.5,-145.5"/>
<text text-anchor="middle" x="1221.5" y="-133.5" font-family="Helvetica,sans-Serif" font-size="10.00">f_pc/f_pc_method.h</text>
</a>
</g>
</g>
<!-- Node138&#45;&gt;Node148 -->
<g id="edge26" class="edge">
<title>Node138&#45;&gt;Node148</title>
<path fill="none" stroke="#63b8ff" d="M808.15,-192.07C815.43,-190.18 823.2,-188.35 830.5,-187 976,-160.03 1015.62,-175.86 1161.5,-151 1166.07,-150.22 1170.81,-149.31 1175.53,-148.32"/>
<polygon fill="#63b8ff" stroke="#63b8ff" points="1175.93,-151.82 1184.95,-146.26 1174.43,-144.98 1175.93,-151.82"/>
</g>
<!-- Node149 -->
<g id="node24" class="node">
<title>Node149</title>
<g id="a_node24"><a xlink:href="f__pc__profile_8h.html" target="_top" xlink:title=" ">
<polygon fill="white" stroke="#666666" points="1044,-145.5 949,-145.5 949,-126.5 1044,-126.5 1044,-145.5"/>
<text text-anchor="middle" x="996.5" y="-133.5" font-family="Helvetica,sans-Serif" font-size="10.00">f_pc/f_pc_profile.h</text>
</a>
</g>
</g>
<!-- Node138&#45;&gt;Node149 -->
<g id="edge28" class="edge">
<title>Node138&#45;&gt;Node149</title>
<path fill="none" stroke="#63b8ff" d="M807.95,-192.1C846.25,-180.91 912.18,-161.64 955.05,-149.11"/>
<polygon fill="#63b8ff" stroke="#63b8ff" points="955.89,-152.52 964.5,-146.35 953.92,-145.8 955.89,-152.52"/>
</g>
<!-- Node150 -->
<g id="node25" class="node">
<title>Node150</title>
<g id="a_node25"><a xlink:href="d__procname_8h.html" target="_top" xlink:title=" ">
<polygon fill="white" stroke="#666666" points="930.5,-145.5 844.5,-145.5 844.5,-126.5 930.5,-126.5 930.5,-145.5"/>
<text text-anchor="middle" x="887.5" y="-133.5" font-family="Helvetica,sans-Serif" font-size="10.00">d/d_procname.h</text>
</a>
</g>
</g>
<!-- Node138&#45;&gt;Node150 -->
<g id="edge30" class="edge">
<title>Node138&#45;&gt;Node150</title>
<path fill="none" stroke="#63b8ff" d="M792.8,-192.1C810.86,-181.59 841.15,-163.97 862.6,-151.49"/>
<polygon fill="#63b8ff" stroke="#63b8ff" points="864.14,-154.64 871.03,-146.58 860.62,-148.59 864.14,-154.64"/>
</g>
<!-- Node140 -->
<g id="node18" class="node">
<title>Node140</title>
<g id="a_node18"><a xlink:href="f__pc__delete__tag_8h.html" target="_top" xlink:title=" ">
<polygon fill="#fff0f0" stroke="red" points="115,-79.5 0,-79.5 0,-60.5 115,-60.5 115,-79.5"/>
<text text-anchor="middle" x="57.5" y="-67.5" font-family="Helvetica,sans-Serif" font-size="10.00">f_pc/f_pc_delete_tag.h</text>
</a>
</g>
</g>
<!-- Node139&#45;&gt;Node140 -->
<g id="edge20" class="edge">
<title>Node139&#45;&gt;Node140</title>
<path fill="none" stroke="#63b8ff" d="M222.8,-126.1C189.51,-115 132.41,-95.97 94.8,-83.43"/>
<polygon fill="#63b8ff" stroke="#63b8ff" points="96.31,-80.25 85.71,-80.4 94.09,-86.89 96.31,-80.25"/>
</g>
<!-- Node143 -->
<g id="node19" class="node">
<title>Node143</title>
<g id="a_node19"><a xlink:href="f__pc__layer__tag_8h.html" target="_top" xlink:title=" ">
<polygon fill="#fff0f0" stroke="red" points="242,-79.5 133,-79.5 133,-60.5 242,-60.5 242,-79.5"/>
<text text-anchor="middle" x="187.5" y="-67.5" font-family="Helvetica,sans-Serif" font-size="10.00">f_pc/f_pc_layer_tag.h</text>
</a>
</g>
</g>
<!-- Node139&#45;&gt;Node143 -->
<g id="edge21" class="edge">
<title>Node139&#45;&gt;Node143</title>
<path fill="none" stroke="#63b8ff" d="M240.88,-126.1C231.35,-116.26 215.77,-100.18 203.9,-87.93"/>
<polygon fill="#63b8ff" stroke="#63b8ff" points="206.57,-85.66 197.1,-80.91 201.54,-90.53 206.57,-85.66"/>
</g>
<!-- Node144 -->
<g id="node20" class="node">
<title>Node144</title>
<g id="a_node20"><a xlink:href="f__pc__line__tag_8h.html" target="_top" xlink:title=" ">
<polygon fill="#fff0f0" stroke="red" points="364.5,-79.5 260.5,-79.5 260.5,-60.5 364.5,-60.5 364.5,-79.5"/>
<text text-anchor="middle" x="312.5" y="-67.5" font-family="Helvetica,sans-Serif" font-size="10.00">f_pc/f_pc_line_tag.h</text>
</a>
</g>
</g>
<!-- Node139&#45;&gt;Node144 -->
<g id="edge22" class="edge">
<title>Node139&#45;&gt;Node144</title>
<path fill="none" stroke="#63b8ff" d="M258.26,-126.1C267.95,-116.26 283.77,-100.18 295.84,-87.93"/>
<polygon fill="#63b8ff" stroke="#63b8ff" points="298.23,-90.48 302.75,-80.9 293.24,-85.57 298.23,-90.48"/>
</g>
<!-- Node145 -->
<g id="node21" class="node">
<title>Node145</title>
<g id="a_node21"><a xlink:href="f__pc__priority_8h.html" target="_top" xlink:title=" ">
<polygon fill="#fff0f0" stroke="red" points="480.5,-79.5 382.5,-79.5 382.5,-60.5 480.5,-60.5 480.5,-79.5"/>
<text text-anchor="middle" x="431.5" y="-67.5" font-family="Helvetica,sans-Serif" font-size="10.00">f_pc/f_pc_priority.h</text>
</a>
</g>
</g>
<!-- Node139&#45;&gt;Node145 -->
<g id="edge23" class="edge">
<title>Node139&#45;&gt;Node145</title>
<path fill="none" stroke="#63b8ff" d="M274.81,-126.1C306.23,-115.05 360.03,-96.13 395.68,-83.6"/>
<polygon fill="#63b8ff" stroke="#63b8ff" points="396.42,-87.05 404.69,-80.43 394.09,-80.44 396.42,-87.05"/>
</g>
<!-- Node147&#45;&gt;Node3 -->
<g id="edge25" class="edge">
<title>Node147&#45;&gt;Node3</title>
<path fill="none" stroke="#63b8ff" d="M809.19,-126.04C817.92,-124.35 826.99,-122.61 835.5,-121 912.14,-106.51 1001.04,-90.27 1055.78,-80.34"/>
<polygon fill="#63b8ff" stroke="#63b8ff" points="1056.22,-83.82 1065.43,-78.59 1054.97,-76.93 1056.22,-83.82"/>
</g>
<!-- Node148&#45;&gt;Node3 -->
<g id="edge27" class="edge">
<title>Node148&#45;&gt;Node3</title>
<path fill="none" stroke="#63b8ff" d="M1205.65,-126.1C1186.85,-115.55 1155.25,-97.81 1133,-85.32"/>
<polygon fill="#63b8ff" stroke="#63b8ff" points="1134.97,-82.41 1124.54,-80.56 1131.54,-88.51 1134.97,-82.41"/>
</g>
<!-- Node149&#45;&gt;Node3 -->
<g id="edge29" class="edge">
<title>Node149&#45;&gt;Node3</title>
<path fill="none" stroke="#63b8ff" d="M1011.93,-126.1C1030.16,-115.59 1060.73,-97.97 1082.38,-85.49"/>
<polygon fill="#63b8ff" stroke="#63b8ff" points="1083.97,-88.61 1090.89,-80.58 1080.47,-82.54 1083.97,-88.61"/>
</g>
<!-- Node152&#45;&gt;Node138 -->
<g id="edge40" class="edge">
<title>Node152&#45;&gt;Node138</title>
<path fill="none" stroke="#63b8ff" d="M845.25,-318.55C833.41,-298.36 804.43,-248.93 788.48,-221.72"/>
<polygon fill="#63b8ff" stroke="#63b8ff" points="791.55,-220.03 783.47,-213.18 785.51,-223.58 791.55,-220.03"/>
</g>
<!-- Node153 -->
<g id="node28" class="node">
<title>Node153</title>
<g id="a_node28"><a xlink:href="f__pc__create__iter_8h.html" target="_top" xlink:title=" ">
<polygon fill="white" stroke="#666666" points="782.5,-277.5 666.5,-277.5 666.5,-258.5 782.5,-258.5 782.5,-277.5"/>
<text text-anchor="middle" x="724.5" y="-265.5" font-family="Helvetica,sans-Serif" font-size="10.00">f_pc/f_pc_create_iter.h</text>
</a>
</g>
</g>
<!-- Node152&#45;&gt;Node153 -->
<g id="edge34" class="edge">
<title>Node152&#45;&gt;Node153</title>
<path fill="none" stroke="#63b8ff" d="M831.36,-318.62C810.83,-309.08 777.94,-293.81 754.07,-282.73"/>
<polygon fill="#63b8ff" stroke="#63b8ff" points="755.73,-279.64 745.19,-278.61 752.79,-285.99 755.73,-279.64"/>
</g>
<!-- Node154 -->
<g id="node29" class="node">
<title>Node154</title>
<g id="a_node29"><a xlink:href="f__pc__executor_8h.html" target="_top" xlink:title=" ">
<polygon fill="white" stroke="#666666" points="642,-277.5 535,-277.5 535,-258.5 642,-258.5 642,-277.5"/>
<text text-anchor="middle" x="588.5" y="-265.5" font-family="Helvetica,sans-Serif" font-size="10.00">f_pc/f_pc_executor.h</text>
</a>
</g>
</g>
<!-- Node152&#45;&gt;Node154 -->
<g id="edge36" class="edge">
<title>Node152&#45;&gt;Node154</title>
<path fill="none" stroke="#63b8ff" d="M810.42,-318.55C764.67,-308.34 689.73,-291.6 639.77,-280.45"/>
<polygon fill="#63b8ff" stroke="#63b8ff" points="640.57,-277.04 630.05,-278.28 639.05,-283.87 640.57,-277.04"/>
</g>
<!-- Node157 -->
<g id="node32" class="node">
<title>Node157</title>
<g id="a_node32"><a xlink:href="f__pc__node_8h.html" target="_top" xlink:title=" ">
<polygon fill="white" stroke="#666666" points="930,-211.5 839,-211.5 839,-192.5 930,-192.5 930,-211.5"/>
<text text-anchor="middle" x="884.5" y="-199.5" font-family="Helvetica,sans-Serif" font-size="10.00">f_pc/f_pc_node.h</text>
</a>
</g>
</g>
<!-- Node152&#45;&gt;Node157 -->
<g id="edge41" class="edge">
<title>Node152&#45;&gt;Node157</title>
<path fill="none" stroke="#63b8ff" d="M852.95,-318.55C858.39,-298.63 871.6,-250.24 879.09,-222.82"/>
<polygon fill="#63b8ff" stroke="#63b8ff" points="882.42,-223.9 881.68,-213.33 875.67,-222.06 882.42,-223.9"/>
</g>
<!-- Node161 -->
<g id="node34" class="node">
<title>Node161</title>
<g id="a_node34"><a xlink:href="f__pc__stdcreate__req_8h.html" target="_top" xlink:title=" ">
<polygon fill="white" stroke="#666666" points="1035,-283 932,-283 932,-253 1035,-253 1035,-283"/>
<text text-anchor="start" x="940" y="-271" font-family="Helvetica,sans-Serif" font-size="10.00">f_pc/f_pc_stdcreate</text>
<text text-anchor="middle" x="983.5" y="-260" font-family="Helvetica,sans-Serif" font-size="10.00">_req.h</text>
</a>
</g>
</g>
<!-- Node152&#45;&gt;Node161 -->
<g id="edge47" class="edge">
<title>Node152&#45;&gt;Node161</title>
<path fill="none" stroke="#63b8ff" d="M870.7,-318.62C889.1,-310.52 916.89,-298.3 940.28,-288.01"/>
<polygon fill="#63b8ff" stroke="#63b8ff" points="941.54,-291.28 949.29,-284.05 938.72,-284.87 941.54,-291.28"/>
</g>
<!-- Node153&#45;&gt;Node3 -->
<g id="edge35" class="edge">
<title>Node153&#45;&gt;Node3</title>
<path fill="none" stroke="#63b8ff" d="M717.1,-258.17C701.44,-239.65 665.11,-197.57 649.5,-187 613.15,-162.38 582.25,-187.27 557.5,-151 549.98,-139.99 548.51,-130.85 557.5,-121 590.69,-84.66 924.38,-74.45 1055.24,-71.83"/>
<polygon fill="#63b8ff" stroke="#63b8ff" points="1055.08,-75.33 1065.01,-71.64 1054.94,-68.34 1055.08,-75.33"/>
</g>
<!-- Node155 -->
<g id="node30" class="node">
<title>Node155</title>
<g id="a_node30"><a xlink:href="f__pc__layer__iter_8h.html" target="_top" xlink:title=" ">
<polygon fill="white" stroke="#666666" points="518,-211.5 409,-211.5 409,-192.5 518,-192.5 518,-211.5"/>
<text text-anchor="middle" x="463.5" y="-199.5" font-family="Helvetica,sans-Serif" font-size="10.00">f_pc/f_pc_layer_iter.h</text>
</a>
</g>
</g>
<!-- Node154&#45;&gt;Node155 -->
<g id="edge37" class="edge">
<title>Node154&#45;&gt;Node155</title>
<path fill="none" stroke="#63b8ff" d="M571.12,-258.1C550.32,-247.45 515.23,-229.49 490.8,-216.98"/>
<polygon fill="#63b8ff" stroke="#63b8ff" points="492.58,-213.96 482.08,-212.51 489.39,-220.19 492.58,-213.96"/>
</g>
<!-- Node156 -->
<g id="node31" class="node">
<title>Node156</title>
<g id="a_node31"><a xlink:href="f__pc__line__iter_8h.html" target="_top" xlink:title=" ">
<polygon fill="white" stroke="#666666" points="640.5,-211.5 536.5,-211.5 536.5,-192.5 640.5,-192.5 640.5,-211.5"/>
<text text-anchor="middle" x="588.5" y="-199.5" font-family="Helvetica,sans-Serif" font-size="10.00">f_pc/f_pc_line_iter.h</text>
</a>
</g>
</g>
<!-- Node154&#45;&gt;Node156 -->
<g id="edge39" class="edge">
<title>Node154&#45;&gt;Node156</title>
<path fill="none" stroke="#63b8ff" d="M588.5,-258.1C588.5,-249.12 588.5,-234.95 588.5,-223.22"/>
<polygon fill="#63b8ff" stroke="#63b8ff" points="592,-223.34 588.5,-213.34 585,-223.34 592,-223.34"/>
</g>
<!-- Node155&#45;&gt;Node3 -->
<g id="edge38" class="edge">
<title>Node155&#45;&gt;Node3</title>
<path fill="none" stroke="#63b8ff" d="M467.28,-192.07C475.08,-174.85 494.8,-137.32 524.5,-121 570.46,-95.75 921.55,-78.7 1055.66,-73.05"/>
<polygon fill="#63b8ff" stroke="#63b8ff" points="1055.46,-76.57 1065.31,-72.65 1055.17,-69.57 1055.46,-76.57"/>
</g>
<!-- Node157&#45;&gt;Node139 -->
<g id="edge42" class="edge">
<title>Node157&#45;&gt;Node139</title>
<path fill="none" stroke="#63b8ff" d="M852.99,-192.04C845.35,-190.13 837.17,-188.3 829.5,-187 639.56,-154.86 410.93,-142.86 306.52,-138.83"/>
<polygon fill="#63b8ff" stroke="#63b8ff" points="306.95,-135.34 296.83,-138.47 306.69,-142.34 306.95,-135.34"/>
</g>
<!-- Node157&#45;&gt;Node148 -->
<g id="edge45" class="edge">
<title>Node157&#45;&gt;Node148</title>
<path fill="none" stroke="#63b8ff" d="M917.84,-192.01C924.96,-190.23 932.46,-188.46 939.5,-187 1037.36,-166.65 1063.44,-170.37 1161.5,-151 1165.51,-150.21 1169.67,-149.34 1173.83,-148.44"/>
<polygon fill="#63b8ff" stroke="#63b8ff" points="1174.31,-151.92 1183.3,-146.32 1172.78,-145.08 1174.31,-151.92"/>
</g>
<!-- Node157&#45;&gt;Node149 -->
<g id="edge46" class="edge">
<title>Node157&#45;&gt;Node149</title>
<path fill="none" stroke="#63b8ff" d="M900.07,-192.1C918.46,-181.59 949.3,-163.97 971.15,-151.49"/>
<polygon fill="#63b8ff" stroke="#63b8ff" points="972.8,-154.57 979.75,-146.57 969.33,-148.5 972.8,-154.57"/>
</g>
<!-- Node158 -->
<g id="node33" class="node">
<title>Node158</title>
<g id="a_node33"><a xlink:href="f__pc__layer_8h.html" target="_top" xlink:title=" ">
<polygon fill="#fff0f0" stroke="red" points="1152.5,-145.5 1062.5,-145.5 1062.5,-126.5 1152.5,-126.5 1152.5,-145.5"/>
<text text-anchor="middle" x="1107.5" y="-133.5" font-family="Helvetica,sans-Serif" font-size="10.00">f_pc/f_pc_layer.h</text>
</a>
</g>
</g>
<!-- Node157&#45;&gt;Node158 -->
<g id="edge43" class="edge">
<title>Node157&#45;&gt;Node158</title>
<path fill="none" stroke="#63b8ff" d="M915.51,-192.1C954.59,-180.88 1021.93,-161.56 1065.57,-149.03"/>
<polygon fill="#63b8ff" stroke="#63b8ff" points="1066.3,-152.47 1074.94,-146.34 1064.37,-145.74 1066.3,-152.47"/>
</g>
<!-- Node158&#45;&gt;Node3 -->
<g id="edge44" class="edge">
<title>Node158&#45;&gt;Node3</title>
<path fill="none" stroke="#63b8ff" d="M1107.5,-126.1C1107.5,-117.12 1107.5,-102.95 1107.5,-91.22"/>
<polygon fill="#63b8ff" stroke="#63b8ff" points="1111,-91.34 1107.5,-81.34 1104,-91.34 1111,-91.34"/>
</g>
<!-- Node162 -->
<g id="node35" class="node">
<title>Node162</title>
<g id="a_node35"><a xlink:href="f__pc__create__req_8h.html" target="_top" xlink:title=" ">
<polygon fill="#fff0f0" stroke="red" points="1064.5,-211.5 948.5,-211.5 948.5,-192.5 1064.5,-192.5 1064.5,-211.5"/>
<text text-anchor="middle" x="1006.5" y="-199.5" font-family="Helvetica,sans-Serif" font-size="10.00">f_pc/f_pc_create_req.h</text>
</a>
</g>
</g>
<!-- Node161&#45;&gt;Node162 -->
<g id="edge48" class="edge">
<title>Node161&#45;&gt;Node162</title>
<path fill="none" stroke="#63b8ff" d="M988.6,-252.8C991.8,-243.89 995.97,-232.3 999.48,-222.54"/>
<polygon fill="#63b8ff" stroke="#63b8ff" points="1002.72,-223.86 1002.81,-213.27 996.13,-221.5 1002.72,-223.86"/>
</g>
<!-- Node162&#45;&gt;Node148 -->
<g id="edge49" class="edge">
<title>Node162&#45;&gt;Node148</title>
<path fill="none" stroke="#63b8ff" d="M1036.39,-192.1C1073.92,-180.93 1138.44,-161.72 1180.54,-149.19"/>
<polygon fill="#63b8ff" stroke="#63b8ff" points="1181.48,-152.57 1190.06,-146.36 1179.48,-145.86 1181.48,-152.57"/>
</g>
<!-- Node165&#45;&gt;Node139 -->
<g id="edge51" class="edge">
<title>Node165&#45;&gt;Node139</title>
<path fill="none" stroke="#63b8ff" d="M377.08,-258.06C354.4,-236.54 296.45,-181.55 267.1,-153.7"/>
<polygon fill="#63b8ff" stroke="#63b8ff" points="269.74,-151.38 260.08,-147.04 264.93,-156.46 269.74,-151.38"/>
</g>
<!-- Node165&#45;&gt;Node155 -->
<g id="edge52" class="edge">
<title>Node165&#45;&gt;Node155</title>
<path fill="none" stroke="#63b8ff" d="M397.21,-258.1C409.39,-247.98 429.52,-231.24 444.41,-218.87"/>
<polygon fill="#63b8ff" stroke="#63b8ff" points="446.27,-221.87 451.72,-212.79 441.79,-216.49 446.27,-221.87"/>
</g>
<!-- Node166&#45;&gt;Node3 -->
<g id="edge61" class="edge">
<title>Node166&#45;&gt;Node3</title>
<path fill="none" stroke="#63b8ff" d="M1093.68,-325.57C968.41,-319.23 579.93,-298.52 525.5,-283 495.1,-274.33 415.86,-244.04 399.5,-217 361.82,-154.73 478.71,-124.68 488.5,-121 591.86,-82.17 926.06,-73.47 1055.56,-71.54"/>
<polygon fill="#63b8ff" stroke="#63b8ff" points="1055.25,-75.05 1065.2,-71.41 1055.15,-68.05 1055.25,-75.05"/>
</g>
<!-- Node166&#45;&gt;Node16 -->
<g id="edge62" class="edge">
<title>Node166&#45;&gt;Node16</title>
<path fill="none" stroke="#63b8ff" d="M1127.16,-318.74C1113.25,-294.7 1079.2,-226.86 1111.5,-187 1160.13,-127 1207.71,-173.8 1281.5,-151 1282.66,-150.64 1283.83,-150.26 1285.01,-149.86"/>
<polygon fill="#63b8ff" stroke="#63b8ff" points="1286.03,-153.22 1294.17,-146.44 1283.58,-146.66 1286.03,-153.22"/>
</g>
<!-- Node167 -->
<g id="node38" class="node">
<title>Node167</title>
<g id="a_node38"><a xlink:href="d__bg__w__base_8h.html" target="_top" xlink:title=" ">
<polygon fill="white" stroke="#666666" points="1226.5,-277.5 1120.5,-277.5 1120.5,-258.5 1226.5,-258.5 1226.5,-277.5"/>
<text text-anchor="middle" x="1173.5" y="-265.5" font-family="Helvetica,sans-Serif" font-size="10.00">d/bg/d_bg_w_base.h</text>
</a>
</g>
</g>
<!-- Node166&#45;&gt;Node167 -->
<g id="edge54" class="edge">
<title>Node166&#45;&gt;Node167</title>
<path fill="none" stroke="#63b8ff" d="M1138.55,-318.87C1144.42,-310.49 1153.52,-297.51 1160.96,-286.89"/>
<polygon fill="#63b8ff" stroke="#63b8ff" points="1163.68,-289.1 1166.56,-278.91 1157.95,-285.09 1163.68,-289.1"/>
</g>
<!-- Node168 -->
<g id="node39" class="node">
<title>Node168</title>
<g id="a_node39"><a xlink:href="c__bg__s__poly__info_8h.html" target="_top" xlink:title=" ">
<polygon fill="white" stroke="#666666" points="2340.5,-217 2224.5,-217 2224.5,-187 2340.5,-187 2340.5,-217"/>
<text text-anchor="start" x="2232.5" y="-205" font-family="Helvetica,sans-Serif" font-size="10.00">SSystem/SComponent</text>
<text text-anchor="middle" x="2282.5" y="-194" font-family="Helvetica,sans-Serif" font-size="10.00">/c_bg_s_poly_info.h</text>
</a>
</g>
</g>
<!-- Node167&#45;&gt;Node168 -->
<g id="edge55" class="edge">
<title>Node167&#45;&gt;Node168</title>
<path fill="none" stroke="#63b8ff" d="M1226.93,-262.37C1262.95,-259.37 1311.55,-255.56 1354.5,-253 1733.09,-230.45 1833.48,-263.67 2212.82,-217.18"/>
<polygon fill="#63b8ff" stroke="#63b8ff" points="2213.13,-220.67 2222.63,-215.97 2212.27,-213.73 2213.13,-220.67"/>
</g>
<!-- Node169 -->
<g id="node40" class="node">
<title>Node169</title>
<g id="a_node40"><a xlink:href="c__bg__w_8h.html" target="_top" xlink:title=" ">
<polygon fill="white" stroke="#666666" points="682.5,-151 566.5,-151 566.5,-121 682.5,-121 682.5,-151"/>
<text text-anchor="start" x="574.5" y="-139" font-family="Helvetica,sans-Serif" font-size="10.00">SSystem/SComponent</text>
<text text-anchor="middle" x="624.5" y="-128" font-family="Helvetica,sans-Serif" font-size="10.00">/c_bg_w.h</text>
</a>
</g>
</g>
<!-- Node167&#45;&gt;Node169 -->
<g id="edge57" class="edge">
<title>Node167&#45;&gt;Node169</title>
<path fill="none" stroke="#63b8ff" d="M1120.22,-261.15C1001.97,-248.15 727.77,-217.93 725.5,-217 716.95,-213.48 677.33,-181.15 650.33,-158.68"/>
<polygon fill="#63b8ff" stroke="#63b8ff" points="652.8,-156.19 642.88,-152.47 648.31,-161.56 652.8,-156.19"/>
</g>
<!-- Node170 -->
<g id="node41" class="node">
<title>Node170</title>
<g id="a_node41"><a xlink:href="c__m3d__g__pla_8h.html" target="_top" xlink:title=" ">
<polygon fill="#fff0f0" stroke="red" points="1236.5,-217 1120.5,-217 1120.5,-187 1236.5,-187 1236.5,-217"/>
<text text-anchor="start" x="1128.5" y="-205" font-family="Helvetica,sans-Serif" font-size="10.00">SSystem/SComponent</text>
<text text-anchor="middle" x="1178.5" y="-194" font-family="Helvetica,sans-Serif" font-size="10.00">/c_m3d_g_pla.h</text>
</a>
</g>
</g>
<!-- Node167&#45;&gt;Node170 -->
<g id="edge59" class="edge">
<title>Node167&#45;&gt;Node170</title>
<path fill="none" stroke="#63b8ff" d="M1174.2,-258.1C1174.8,-250.41 1175.69,-238.92 1176.51,-228.42"/>
<polygon fill="#63b8ff" stroke="#63b8ff" points="1179.98,-228.98 1177.27,-218.74 1173,-228.44 1179.98,-228.98"/>
</g>
<!-- Node168&#45;&gt;Node3 -->
<g id="edge56" class="edge">
<title>Node168&#45;&gt;Node3</title>
<path fill="none" stroke="#63b8ff" d="M2240.9,-186.66C2184.64,-167.96 2080.84,-135.89 1989.5,-121 1828.09,-94.69 1323.54,-77.52 1159.55,-72.52"/>
<polygon fill="#63b8ff" stroke="#63b8ff" points="1159.96,-69.03 1149.86,-72.22 1159.75,-76.02 1159.96,-69.03"/>
</g>
<!-- Node169&#45;&gt;Node3 -->
<g id="edge58" class="edge">
<title>Node169&#45;&gt;Node3</title>
<path fill="none" stroke="#63b8ff" d="M682.68,-122.69C686,-122.09 689.29,-121.52 692.5,-121 822.55,-99.82 976.89,-83.53 1055.64,-75.85"/>
<polygon fill="#63b8ff" stroke="#63b8ff" points="1055.57,-79.37 1065.19,-74.93 1054.9,-72.4 1055.57,-79.37"/>
</g>
<!-- Node170&#45;&gt;Node43 -->
<g id="edge60" class="edge">
<title>Node170&#45;&gt;Node43</title>
<path fill="none" stroke="#63b8ff" d="M1236.92,-195.09C1262.83,-192.51 1293.68,-189.52 1321.5,-187 1513.6,-169.61 1740.47,-151.35 1852.57,-142.48"/>
<polygon fill="#63b8ff" stroke="#63b8ff" points="1852.83,-145.98 1862.53,-141.7 1852.28,-139 1852.83,-145.98"/>
</g>
<!-- Node173 -->
<g id="node43" class="node">
<title>Node173</title>
<g id="a_node43"><a xlink:href="c__bg__s__lin__chk_8h.html" target="_top" xlink:title=" ">
<polygon fill="white" stroke="#666666" points="2318.5,-283 2202.5,-283 2202.5,-253 2318.5,-253 2318.5,-283"/>
<text text-anchor="start" x="2210.5" y="-271" font-family="Helvetica,sans-Serif" font-size="10.00">SSystem/SComponent</text>
<text text-anchor="middle" x="2260.5" y="-260" font-family="Helvetica,sans-Serif" font-size="10.00">/c_bg_s_lin_chk.h</text>
</a>
</g>
</g>
<!-- Node172&#45;&gt;Node173 -->
<g id="edge64" class="edge">
<title>Node172&#45;&gt;Node173</title>
<path fill="none" stroke="#63b8ff" d="M1816.38,-320.13C1819.46,-319.74 1822.52,-319.36 1825.5,-319 1954.28,-303.31 2104.67,-286.32 2190.63,-276.73"/>
<polygon fill="#63b8ff" stroke="#63b8ff" points="2191.02,-280.21 2200.57,-275.63 2190.24,-273.26 2191.02,-280.21"/>
</g>
<!-- Node176 -->
<g id="node46" class="node">
<title>Node176</title>
<g id="a_node46"><a xlink:href="d__bg__s__chk_8h.html" target="_top" xlink:title=" ">
<polygon fill="white" stroke="#666666" points="2614.5,-211.5 2516.5,-211.5 2516.5,-192.5 2614.5,-192.5 2614.5,-211.5"/>
<text text-anchor="middle" x="2565.5" y="-199.5" font-family="Helvetica,sans-Serif" font-size="10.00">d/bg/d_bg_s_chk.h</text>
</a>
</g>
</g>
<!-- Node172&#45;&gt;Node176 -->
<g id="edge71" class="edge">
<title>Node172&#45;&gt;Node176</title>
<path fill="none" stroke="#63b8ff" d="M1816.35,-319.92C1819.44,-319.59 1822.51,-319.28 1825.5,-319 1964.68,-306.06 2321.66,-329.45 2453.5,-283 2491.61,-269.57 2528.24,-238.98 2548.72,-219.75"/>
<polygon fill="#63b8ff" stroke="#63b8ff" points="2551.08,-222.34 2555.85,-212.88 2546.22,-217.3 2551.08,-222.34"/>
</g>
<!-- Node173&#45;&gt;Node3 -->
<g id="edge70" class="edge">
<title>Node173&#45;&gt;Node3</title>
<path fill="none" stroke="#63b8ff" d="M2297.68,-252.54C2330.47,-237.63 2370.09,-212.97 2349.5,-187 2274.4,-92.3 1385.79,-74.55 1159.61,-71.56"/>
<polygon fill="#63b8ff" stroke="#63b8ff" points="1159.98,-68.06 1149.94,-71.44 1159.89,-75.06 1159.98,-68.06"/>
</g>
<!-- Node173&#45;&gt;Node168 -->
<g id="edge66" class="edge">
<title>Node173&#45;&gt;Node168</title>
<path fill="none" stroke="#63b8ff" d="M2265.38,-252.8C2267.89,-245.5 2271.02,-236.41 2273.91,-227.99"/>
<polygon fill="#63b8ff" stroke="#63b8ff" points="2277.2,-229.19 2277.14,-218.6 2270.58,-226.91 2277.2,-229.19"/>
</g>
<!-- Node174 -->
<g id="node44" class="node">
<title>Node174</title>
<g id="a_node44"><a xlink:href="c__bg__s__chk_8h.html" target="_top" xlink:title=" ">
<polygon fill="#fff0f0" stroke="red" points="2632.5,-85 2516.5,-85 2516.5,-55 2632.5,-55 2632.5,-85"/>
<text text-anchor="start" x="2524.5" y="-73" font-family="Helvetica,sans-Serif" font-size="10.00">SSystem/SComponent</text>
<text text-anchor="middle" x="2574.5" y="-62" font-family="Helvetica,sans-Serif" font-size="10.00">/c_bg_s_chk.h</text>
</a>
</g>
</g>
<!-- Node173&#45;&gt;Node174 -->
<g id="edge65" class="edge">
<title>Node173&#45;&gt;Node174</title>
<path fill="none" stroke="#63b8ff" d="M2318.4,-252.53C2356.91,-242.22 2403.44,-228.26 2420.5,-217 2467.33,-186.09 2460.89,-158.65 2502.5,-121 2514.37,-110.26 2528.64,-99.9 2541.34,-91.43"/>
<polygon fill="#63b8ff" stroke="#63b8ff" points="2542.94,-94.56 2549.4,-86.17 2539.12,-88.7 2542.94,-94.56"/>
</g>
<!-- Node175 -->
<g id="node45" class="node">
<title>Node175</title>
<g id="a_node45"><a xlink:href="c__m3d__g__lin_8h.html" target="_top" xlink:title=" ">
<polygon fill="white" stroke="#666666" points="2206.5,-217 2090.5,-217 2090.5,-187 2206.5,-187 2206.5,-217"/>
<text text-anchor="start" x="2098.5" y="-205" font-family="Helvetica,sans-Serif" font-size="10.00">SSystem/SComponent</text>
<text text-anchor="middle" x="2148.5" y="-194" font-family="Helvetica,sans-Serif" font-size="10.00">/c_m3d_g_lin.h</text>
</a>
</g>
</g>
<!-- Node173&#45;&gt;Node175 -->
<g id="edge67" class="edge">
<title>Node173&#45;&gt;Node175</title>
<path fill="none" stroke="#63b8ff" d="M2235.37,-252.64C2219.95,-243.83 2199.99,-232.42 2183.09,-222.77"/>
<polygon fill="#63b8ff" stroke="#63b8ff" points="2185.28,-219.99 2174.87,-218.07 2181.81,-226.07 2185.28,-219.99"/>
</g>
<!-- Node175&#45;&gt;Node43 -->
<g id="edge68" class="edge">
<title>Node175&#45;&gt;Node43</title>
<path fill="none" stroke="#63b8ff" d="M2097.5,-186.56C2063.87,-177.04 2019.64,-164.51 1984.06,-154.43"/>
<polygon fill="#63b8ff" stroke="#63b8ff" points="1985.35,-151.16 1974.77,-151.8 1983.44,-157.89 1985.35,-151.16"/>
</g>
<!-- Node175&#45;&gt;Node16 -->
<g id="edge69" class="edge">
<title>Node175&#45;&gt;Node16</title>
<path fill="none" stroke="#63b8ff" d="M2090.12,-188.3C2087.21,-187.82 2084.33,-187.39 2081.5,-187 1802.77,-148.97 1462.9,-139.66 1352.22,-137.57"/>
<polygon fill="#63b8ff" stroke="#63b8ff" points="1352.33,-134.07 1342.27,-137.39 1352.2,-141.07 1352.33,-134.07"/>
</g>
<!-- Node177 -->
<g id="node47" class="node">
<title>Node177</title>
<g id="a_node47"><a xlink:href="d__bg__s__grp__pass__chk_8h.html" target="_top" xlink:title=" ">
<polygon fill="white" stroke="#666666" points="2763,-151 2648,-151 2648,-121 2763,-121 2763,-151"/>
<text text-anchor="start" x="2656" y="-139" font-family="Helvetica,sans-Serif" font-size="10.00">d/bg/d_bg_s_grp_pass</text>
<text text-anchor="middle" x="2705.5" y="-128" font-family="Helvetica,sans-Serif" font-size="10.00">_chk.h</text>
</a>
</g>
</g>
<!-- Node176&#45;&gt;Node177 -->
<g id="edge72" class="edge">
<title>Node176&#45;&gt;Node177</title>
<path fill="none" stroke="#63b8ff" d="M2584.97,-192.1C2605.17,-182.86 2637.41,-168.13 2663.46,-156.22"/>
<polygon fill="#63b8ff" stroke="#63b8ff" points="2664.81,-159.45 2672.45,-152.11 2661.9,-153.08 2664.81,-159.45"/>
</g>
<!-- Node178 -->
<g id="node48" class="node">
<title>Node178</title>
<g id="a_node48"><a xlink:href="d__bg__s__poly__pass__chk_8h.html" target="_top" xlink:title=" ">
<polygon fill="white" stroke="#666666" points="2630,-151 2511,-151 2511,-121 2630,-121 2630,-151"/>
<text text-anchor="start" x="2519" y="-139" font-family="Helvetica,sans-Serif" font-size="10.00">d/bg/d_bg_s_poly_pass</text>
<text text-anchor="middle" x="2570.5" y="-128" font-family="Helvetica,sans-Serif" font-size="10.00">_chk.h</text>
</a>
</g>
</g>
<!-- Node176&#45;&gt;Node178 -->
<g id="edge74" class="edge">
<title>Node176&#45;&gt;Node178</title>
<path fill="none" stroke="#63b8ff" d="M2566.2,-192.1C2566.8,-184.41 2567.69,-172.92 2568.51,-162.42"/>
<polygon fill="#63b8ff" stroke="#63b8ff" points="2571.98,-162.98 2569.27,-152.74 2565,-162.44 2571.98,-162.98"/>
</g>
<!-- Node177&#45;&gt;Node174 -->
<g id="edge73" class="edge">
<title>Node177&#45;&gt;Node174</title>
<path fill="none" stroke="#63b8ff" d="M2676.1,-120.64C2657.81,-111.7 2634.06,-100.1 2614.13,-90.36"/>
<polygon fill="#63b8ff" stroke="#63b8ff" points="2615.68,-87.22 2605.16,-85.98 2612.61,-93.51 2615.68,-87.22"/>
</g>
<!-- Node178&#45;&gt;Node3 -->
<g id="edge75" class="edge">
<title>Node178&#45;&gt;Node3</title>
<path fill="none" stroke="#63b8ff" d="M2510.84,-122.91C2506,-122.18 2501.18,-121.52 2496.5,-121 2230.12,-91.18 1380,-75.46 1159.92,-71.83"/>
<polygon fill="#63b8ff" stroke="#63b8ff" points="1159.99,-68.33 1149.94,-71.66 1159.88,-75.33 1159.99,-68.33"/>
</g>
<!-- Node180 -->
<g id="node50" class="node">
<title>Node180</title>
<g id="a_node50"><a xlink:href="d__bg__s__spl__grp__chk_8h.html" target="_top" xlink:title=" ">
<polygon fill="white" stroke="#666666" points="2444,-283 2337,-283 2337,-253 2444,-253 2444,-283"/>
<text text-anchor="start" x="2345" y="-271" font-family="Helvetica,sans-Serif" font-size="10.00">d/bg/d_bg_s_spl_grp</text>
<text text-anchor="middle" x="2390.5" y="-260" font-family="Helvetica,sans-Serif" font-size="10.00">_chk.h</text>
</a>
</g>
</g>
<!-- Node179&#45;&gt;Node180 -->
<g id="edge77" class="edge">
<title>Node179&#45;&gt;Node180</title>
<path fill="none" stroke="#63b8ff" d="M2224.27,-318.62C2252.61,-310.16 2296.06,-297.19 2331.43,-286.63"/>
<polygon fill="#63b8ff" stroke="#63b8ff" points="2332.09,-290.09 2340.67,-283.87 2330.09,-283.38 2332.09,-290.09"/>
</g>
<!-- Node180&#45;&gt;Node3 -->
<g id="edge81" class="edge">
<title>Node180&#45;&gt;Node3</title>
<path fill="none" stroke="#63b8ff" d="M2389.68,-252.75C2387.93,-235.18 2382.48,-205.39 2365.5,-187 2312.2,-129.27 2278.28,-137.7 2201.5,-121 1999.17,-77 1349.16,-71.68 1159.76,-71.07"/>
<polygon fill="#63b8ff" stroke="#63b8ff" points="1160,-67.57 1149.99,-71.04 1159.98,-74.57 1160,-67.57"/>
</g>
<!-- Node180&#45;&gt;Node43 -->
<g id="edge79" class="edge">
<title>Node180&#45;&gt;Node43</title>
<path fill="none" stroke="#63b8ff" d="M2387.52,-252.72C2382.86,-234.24 2371.93,-202.58 2349.5,-187 2293.23,-147.93 2098.12,-139.18 1992.2,-137.36"/>
<polygon fill="#63b8ff" stroke="#63b8ff" points="1992.56,-133.87 1982.5,-137.21 1992.45,-140.86 1992.56,-133.87"/>
</g>
<!-- Node180&#45;&gt;Node168 -->
<g id="edge78" class="edge">
<title>Node180&#45;&gt;Node168</title>
<path fill="none" stroke="#63b8ff" d="M2366.26,-252.64C2351.53,-243.91 2332.51,-232.63 2316.31,-223.04"/>
<polygon fill="#63b8ff" stroke="#63b8ff" points="2318.35,-220.17 2307.96,-218.09 2314.78,-226.2 2318.35,-220.17"/>
</g>
<!-- Node180&#45;&gt;Node176 -->
<g id="edge80" class="edge">
<title>Node180&#45;&gt;Node176</title>
<path fill="none" stroke="#63b8ff" d="M2429.77,-252.64C2459.98,-241.59 2501.33,-226.47 2530.43,-215.83"/>
<polygon fill="#63b8ff" stroke="#63b8ff" points="2531.32,-219.23 2539.51,-212.51 2528.91,-212.65 2531.32,-219.23"/>
</g>
</g>
</svg>
