<?xml version="1.0" encoding="UTF-8" standalone="no"?>
<!DOCTYPE svg PUBLIC "-//W3C//DTD SVG 1.1//EN"
 "http://www.w3.org/Graphics/SVG/1.1/DTD/svg11.dtd">
<!-- Generated by graphviz version 7.0.5 (20221223.1930)
 -->
<!-- Title: include/d/bg/d_bg_s_movebg_actor.h Pages: 1 -->
<svg width="5785pt" height="192pt"
 viewBox="0.00 0.00 5785.00 192.00" xmlns="http://www.w3.org/2000/svg" xmlns:xlink="http://www.w3.org/1999/xlink">
<g id="graph0" class="graph" transform="scale(1 1) rotate(0) translate(4 188)">
<title>include/d/bg/d_bg_s_movebg_actor.h</title>
<!-- Node1 -->
<g id="node1" class="node">
<title>Node1</title>
<g id="a_node1"><a xlink:title=" ">
<polygon fill="#999999" stroke="#666666" points="2933,-184 2829,-184 2829,-154 2933,-154 2933,-184"/>
<text text-anchor="start" x="2837" y="-172" font-family="Helvetica,sans-Serif" font-size="10.00">include/d/bg/d_bg_s</text>
<text text-anchor="middle" x="2881" y="-161" font-family="Helvetica,sans-Serif" font-size="10.00">_movebg_actor.h</text>
</a>
</g>
</g>
<!-- Node2 -->
<g id="node2" class="node">
<title>Node2</title>
<g id="a_node2"><a xlink:href="d__a__bg__obj_8h.html" target="_top" xlink:title=" ">
<polygon fill="white" stroke="#666666" points="110,-112.5 0,-112.5 0,-82.5 110,-82.5 110,-112.5"/>
<text text-anchor="start" x="8" y="-100.5" font-family="Helvetica,sans-Serif" font-size="10.00">include/rel/d/a/d_a</text>
<text text-anchor="middle" x="55" y="-89.5" font-family="Helvetica,sans-Serif" font-size="10.00">_bg_obj/d_a_bg_obj.h</text>
</a>
</g>
</g>
<!-- Node1&#45;&gt;Node2 -->
<g id="edge1" class="edge">
<title>Node1&#45;&gt;Node2</title>
<path fill="none" stroke="#63b8ff" d="M2817.34,-167.91C2429.62,-167.19 393.12,-161.37 119,-118 111.66,-116.84 103.99,-115.04 96.61,-112.99"/>
<polygon fill="#63b8ff" stroke="#63b8ff" points="2817.07,-171.4 2827.08,-167.92 2817.09,-164.4 2817.07,-171.4"/>
</g>
<!-- Node3 -->
<g id="node3" class="node">
<title>Node3</title>
<g id="a_node3"><a xlink:href="d__a__cstaF_8h.html" target="_top" xlink:title=" ">
<polygon fill="white" stroke="#666666" points="231.5,-112.5 128.5,-112.5 128.5,-82.5 231.5,-82.5 231.5,-112.5"/>
<text text-anchor="start" x="136.5" y="-100.5" font-family="Helvetica,sans-Serif" font-size="10.00">include/rel/d/a/d_a</text>
<text text-anchor="middle" x="180" y="-89.5" font-family="Helvetica,sans-Serif" font-size="10.00">_cstaF/d_a_cstaF.h</text>
</a>
</g>
</g>
<!-- Node1&#45;&gt;Node3 -->
<g id="edge2" class="edge">
<title>Node1&#45;&gt;Node3</title>
<path fill="none" stroke="#63b8ff" d="M2817.19,-167.9C2439.27,-167.15 502.02,-161.24 241,-118 233.98,-116.84 226.66,-115.04 219.62,-112.99"/>
<polygon fill="#63b8ff" stroke="#63b8ff" points="2817.17,-171.4 2827.17,-167.92 2817.18,-164.4 2817.17,-171.4"/>
</g>
<!-- Node4 -->
<g id="node4" class="node">
<title>Node4</title>
<g id="a_node4"><a xlink:href="d__a__dshutter_8h.html" target="_top" xlink:title=" ">
<polygon fill="white" stroke="#666666" points="374,-112.5 250,-112.5 250,-82.5 374,-82.5 374,-112.5"/>
<text text-anchor="start" x="258" y="-100.5" font-family="Helvetica,sans-Serif" font-size="10.00">include/rel/d/a/d_a</text>
<text text-anchor="middle" x="312" y="-89.5" font-family="Helvetica,sans-Serif" font-size="10.00">_dshutter/d_a_dshutter.h</text>
</a>
</g>
</g>
<!-- Node1&#45;&gt;Node4 -->
<g id="edge3" class="edge">
<title>Node1&#45;&gt;Node4</title>
<path fill="none" stroke="#63b8ff" d="M2817.17,-167.67C2451.49,-165.64 629.97,-153.82 383,-118 374.9,-116.83 366.42,-115.02 358.24,-112.97"/>
<polygon fill="#63b8ff" stroke="#63b8ff" points="2817.04,-171.17 2827.05,-167.72 2817.07,-164.17 2817.04,-171.17"/>
</g>
<!-- Node6 -->
<g id="node6" class="node">
<title>Node6</title>
<g id="a_node6"><a xlink:href="d__a__izumi__gate_8h.html" target="_top" xlink:title=" ">
<polygon fill="white" stroke="#666666" points="507.5,-118 392.5,-118 392.5,-77 507.5,-77 507.5,-118"/>
<text text-anchor="start" x="400.5" y="-106" font-family="Helvetica,sans-Serif" font-size="10.00">include/rel/d/a/d_a</text>
<text text-anchor="start" x="400.5" y="-95" font-family="Helvetica,sans-Serif" font-size="10.00">_izumi_gate/d_a_izumi</text>
<text text-anchor="middle" x="450" y="-84" font-family="Helvetica,sans-Serif" font-size="10.00">_gate.h</text>
</a>
</g>
</g>
<!-- Node1&#45;&gt;Node6 -->
<g id="edge5" class="edge">
<title>Node1&#45;&gt;Node6</title>
<path fill="none" stroke="#63b8ff" d="M2817.22,-167.65C2463.45,-165.56 749.69,-153.69 517,-118 514.01,-117.54 510.96,-116.99 507.9,-116.36"/>
<polygon fill="#63b8ff" stroke="#63b8ff" points="2816.97,-171.15 2826.99,-167.71 2817.01,-164.15 2816.97,-171.15"/>
</g>
<!-- Node7 -->
<g id="node7" class="node">
<title>Node7</title>
<g id="a_node7"><a xlink:href="d__a__tbox_8h.html" target="_top" xlink:title=" ">
<polygon fill="white" stroke="#666666" points="622,-112.5 526,-112.5 526,-82.5 622,-82.5 622,-112.5"/>
<text text-anchor="start" x="534" y="-100.5" font-family="Helvetica,sans-Serif" font-size="10.00">include/rel/d/a/d_a</text>
<text text-anchor="middle" x="574" y="-89.5" font-family="Helvetica,sans-Serif" font-size="10.00">_tbox/d_a_tbox.h</text>
</a>
</g>
</g>
<!-- Node1&#45;&gt;Node7 -->
<g id="edge6" class="edge">
<title>Node1&#45;&gt;Node7</title>
<path fill="none" stroke="#63b8ff" d="M2817.29,-167.75C2473.9,-166.24 850.97,-157.1 631,-118 624.41,-116.83 617.55,-115.02 610.97,-112.98"/>
<polygon fill="#63b8ff" stroke="#63b8ff" points="2817.2,-171.25 2827.21,-167.79 2817.23,-164.25 2817.2,-171.25"/>
</g>
<!-- Node9 -->
<g id="node9" class="node">
<title>Node9</title>
<g id="a_node9"><a xlink:href="d__a__door__push_8h.html" target="_top" xlink:title=" ">
<polygon fill="white" stroke="#666666" points="768,-118 640,-118 640,-77 768,-77 768,-118"/>
<text text-anchor="start" x="648" y="-106" font-family="Helvetica,sans-Serif" font-size="10.00">include/rel/d/a/door</text>
<text text-anchor="start" x="648" y="-95" font-family="Helvetica,sans-Serif" font-size="10.00">/d_a_door_push/d_a_door</text>
<text text-anchor="middle" x="704" y="-84" font-family="Helvetica,sans-Serif" font-size="10.00">_push.h</text>
</a>
</g>
</g>
<!-- Node1&#45;&gt;Node9 -->
<g id="edge8" class="edge">
<title>Node1&#45;&gt;Node9</title>
<path fill="none" stroke="#63b8ff" d="M2817.53,-167.39C2488.36,-164.1 982.98,-147.53 777,-118 774.14,-117.59 771.24,-117.11 768.31,-116.57"/>
<polygon fill="#63b8ff" stroke="#63b8ff" points="2817.19,-170.89 2827.22,-167.48 2817.26,-163.89 2817.19,-170.89"/>
</g>
<!-- Node10 -->
<g id="node10" class="node">
<title>Node10</title>
<g id="a_node10"><a xlink:href="d__a__obj__barDesk_8h.html" target="_top" xlink:title=" ">
<polygon fill="white" stroke="#666666" points="899.5,-118 786.5,-118 786.5,-77 899.5,-77 899.5,-118"/>
<text text-anchor="start" x="794.5" y="-106" font-family="Helvetica,sans-Serif" font-size="10.00">include/rel/d/a/obj</text>
<text text-anchor="start" x="794.5" y="-95" font-family="Helvetica,sans-Serif" font-size="10.00">/d_a_obj_barDesk/d_a</text>
<text text-anchor="middle" x="843" y="-84" font-family="Helvetica,sans-Serif" font-size="10.00">_obj_barDesk.h</text>
</a>
</g>
</g>
<!-- Node1&#45;&gt;Node10 -->
<g id="edge9" class="edge">
<title>Node1&#45;&gt;Node10</title>
<path fill="none" stroke="#63b8ff" d="M2817.46,-167.38C2500.82,-164.14 1100.83,-148.23 909,-118 905.93,-117.52 902.81,-116.93 899.67,-116.27"/>
<polygon fill="#63b8ff" stroke="#63b8ff" points="2817.15,-170.87 2827.19,-167.48 2817.22,-163.87 2817.15,-170.87"/>
</g>
<!-- Node11 -->
<g id="node11" class="node">
<title>Node11</title>
<g id="a_node11"><a xlink:href="d__a__obj__bbox_8h.html" target="_top" xlink:title=" ">
<polygon fill="white" stroke="#666666" points="1034,-118 918,-118 918,-77 1034,-77 1034,-118"/>
<text text-anchor="start" x="926" y="-106" font-family="Helvetica,sans-Serif" font-size="10.00">include/rel/d/a/obj</text>
<text text-anchor="start" x="926" y="-95" font-family="Helvetica,sans-Serif" font-size="10.00">/d_a_obj_bbox/d_a_obj</text>
<text text-anchor="middle" x="976" y="-84" font-family="Helvetica,sans-Serif" font-size="10.00">_bbox.h</text>
</a>
</g>
</g>
<!-- Node1&#45;&gt;Node11 -->
<g id="edge10" class="edge">
<title>Node1&#45;&gt;Node11</title>
<path fill="none" stroke="#63b8ff" d="M2817.42,-167.24C2514.04,-163.46 1220.97,-145.85 1043,-118 1040.13,-117.55 1037.2,-117.01 1034.27,-116.41"/>
<polygon fill="#63b8ff" stroke="#63b8ff" points="2817.07,-170.73 2827.11,-167.36 2817.16,-163.73 2817.07,-170.73"/>
</g>
<!-- Node12 -->
<g id="node12" class="node">
<title>Node12</title>
<g id="a_node12"><a xlink:href="d__a__obj__bsGate_8h.html" target="_top" xlink:title=" ">
<polygon fill="white" stroke="#666666" points="1161.5,-118 1052.5,-118 1052.5,-77 1161.5,-77 1161.5,-118"/>
<text text-anchor="start" x="1060.5" y="-106" font-family="Helvetica,sans-Serif" font-size="10.00">include/rel/d/a/obj</text>
<text text-anchor="start" x="1060.5" y="-95" font-family="Helvetica,sans-Serif" font-size="10.00">/d_a_obj_bsGate/d_a</text>
<text text-anchor="middle" x="1107" y="-84" font-family="Helvetica,sans-Serif" font-size="10.00">_obj_bsGate.h</text>
</a>
</g>
</g>
<!-- Node1&#45;&gt;Node12 -->
<g id="edge11" class="edge">
<title>Node1&#45;&gt;Node12</title>
<path fill="none" stroke="#63b8ff" d="M2817.72,-168.44C2548.36,-169.96 1496.21,-172.22 1170,-118 1167.29,-117.55 1164.53,-117.01 1161.76,-116.41"/>
<polygon fill="#63b8ff" stroke="#63b8ff" points="2817.34,-171.94 2827.32,-168.38 2817.3,-164.94 2817.34,-171.94"/>
</g>
<!-- Node13 -->
<g id="node13" class="node">
<title>Node13</title>
<g id="a_node13"><a xlink:href="d__a__obj__cboard_8h.html" target="_top" xlink:title=" ">
<polygon fill="white" stroke="#666666" points="1286.5,-118 1179.5,-118 1179.5,-77 1286.5,-77 1286.5,-118"/>
<text text-anchor="start" x="1187.5" y="-106" font-family="Helvetica,sans-Serif" font-size="10.00">include/rel/d/a/obj</text>
<text text-anchor="start" x="1187.5" y="-95" font-family="Helvetica,sans-Serif" font-size="10.00">/d_a_obj_cboard/d_a</text>
<text text-anchor="middle" x="1233" y="-84" font-family="Helvetica,sans-Serif" font-size="10.00">_obj_cboard.h</text>
</a>
</g>
</g>
<!-- Node1&#45;&gt;Node13 -->
<g id="edge12" class="edge">
<title>Node1&#45;&gt;Node13</title>
<path fill="none" stroke="#63b8ff" d="M2817.36,-168.31C2559.93,-169.19 1595.26,-168.96 1295,-118 1292.33,-117.55 1289.62,-117.01 1286.89,-116.4"/>
<polygon fill="#63b8ff" stroke="#63b8ff" points="2817.22,-171.81 2827.2,-168.27 2817.19,-164.81 2817.22,-171.81"/>
</g>
<!-- Node14 -->
<g id="node14" class="node">
<title>Node14</title>
<g id="a_node14"><a xlink:href="d__a__obj__cdoor_8h.html" target="_top" xlink:title=" ">
<polygon fill="white" stroke="#666666" points="1423.5,-118 1304.5,-118 1304.5,-77 1423.5,-77 1423.5,-118"/>
<text text-anchor="start" x="1312.5" y="-106" font-family="Helvetica,sans-Serif" font-size="10.00">include/rel/d/a/obj</text>
<text text-anchor="start" x="1312.5" y="-95" font-family="Helvetica,sans-Serif" font-size="10.00">/d_a_obj_cdoor/d_a_obj</text>
<text text-anchor="middle" x="1364" y="-84" font-family="Helvetica,sans-Serif" font-size="10.00">_cdoor.h</text>
</a>
</g>
</g>
<!-- Node1&#45;&gt;Node14 -->
<g id="edge13" class="edge">
<title>Node1&#45;&gt;Node14</title>
<path fill="none" stroke="#63b8ff" d="M2817.41,-167.84C2574.57,-166.9 1705.64,-160.59 1433,-118 1429.93,-117.52 1426.79,-116.95 1423.64,-116.31"/>
<polygon fill="#63b8ff" stroke="#63b8ff" points="2817.31,-171.34 2827.32,-167.87 2817.33,-164.34 2817.31,-171.34"/>
</g>
<!-- Node15 -->
<g id="node15" class="node">
<title>Node15</title>
<g id="a_node15"><a xlink:href="d__a__obj__chandelier_8h.html" target="_top" xlink:title=" ">
<polygon fill="white" stroke="#666666" points="1552,-118 1442,-118 1442,-77 1552,-77 1552,-118"/>
<text text-anchor="start" x="1450" y="-106" font-family="Helvetica,sans-Serif" font-size="10.00">include/rel/d/a/obj</text>
<text text-anchor="start" x="1450" y="-95" font-family="Helvetica,sans-Serif" font-size="10.00">/d_a_obj_chandelier</text>
<text text-anchor="middle" x="1497" y="-84" font-family="Helvetica,sans-Serif" font-size="10.00">/d_a_obj_chandelier.h</text>
</a>
</g>
</g>
<!-- Node1&#45;&gt;Node15 -->
<g id="edge14" class="edge">
<title>Node1&#45;&gt;Node15</title>
<path fill="none" stroke="#63b8ff" d="M2817.39,-167.76C2588.46,-166.55 1807.04,-159.43 1561,-118 1558.14,-117.52 1555.22,-116.94 1552.29,-116.3"/>
<polygon fill="#63b8ff" stroke="#63b8ff" points="2817.3,-171.26 2827.31,-167.81 2817.33,-164.26 2817.3,-171.26"/>
</g>
<!-- Node16 -->
<g id="node16" class="node">
<title>Node16</title>
<g id="a_node16"><a xlink:href="d__a__obj__cowdoor_8h.html" target="_top" xlink:title=" ">
<polygon fill="white" stroke="#666666" points="1684,-118 1570,-118 1570,-77 1684,-77 1684,-118"/>
<text text-anchor="start" x="1578" y="-106" font-family="Helvetica,sans-Serif" font-size="10.00">include/rel/d/a/obj</text>
<text text-anchor="start" x="1578" y="-95" font-family="Helvetica,sans-Serif" font-size="10.00">/d_a_obj_cowdoor/d_a</text>
<text text-anchor="middle" x="1627" y="-84" font-family="Helvetica,sans-Serif" font-size="10.00">_obj_cowdoor.h</text>
</a>
</g>
</g>
<!-- Node1&#45;&gt;Node16 -->
<g id="edge15" class="edge">
<title>Node1&#45;&gt;Node16</title>
<path fill="none" stroke="#63b8ff" d="M2817.42,-167.38C2603.7,-164.96 1912.33,-154.45 1693,-118 1690.17,-117.53 1687.29,-116.98 1684.4,-116.36"/>
<polygon fill="#63b8ff" stroke="#63b8ff" points="2817.17,-170.87 2827.21,-167.49 2817.25,-163.87 2817.17,-170.87"/>
</g>
<!-- Node17 -->
<g id="node17" class="node">
<title>Node17</title>
<g id="a_node17"><a xlink:href="d__a__obj__dmelevator_8h.html" target="_top" xlink:title=" ">
<polygon fill="white" stroke="#666666" points="1816,-118 1702,-118 1702,-77 1816,-77 1816,-118"/>
<text text-anchor="start" x="1710" y="-106" font-family="Helvetica,sans-Serif" font-size="10.00">include/rel/d/a/obj</text>
<text text-anchor="start" x="1710" y="-95" font-family="Helvetica,sans-Serif" font-size="10.00">/d_a_obj_dmelevator</text>
<text text-anchor="middle" x="1759" y="-84" font-family="Helvetica,sans-Serif" font-size="10.00">/d_a_obj_dmelevator.h</text>
</a>
</g>
</g>
<!-- Node1&#45;&gt;Node17 -->
<g id="edge16" class="edge">
<title>Node1&#45;&gt;Node17</title>
<path fill="none" stroke="#63b8ff" d="M2817.28,-166.99C2619.44,-163.52 2017.52,-150.51 1825,-118 1822.17,-117.52 1819.3,-116.96 1816.4,-116.34"/>
<polygon fill="#63b8ff" stroke="#63b8ff" points="2817.04,-170.48 2827.1,-167.15 2817.16,-163.48 2817.04,-170.48"/>
</g>
<!-- Node18 -->
<g id="node18" class="node">
<title>Node18</title>
<g id="a_node18"><a xlink:href="d__a__obj__fallobj_8h.html" target="_top" xlink:title=" ">
<polygon fill="white" stroke="#666666" points="1937.5,-118 1834.5,-118 1834.5,-77 1937.5,-77 1937.5,-118"/>
<text text-anchor="start" x="1842.5" y="-106" font-family="Helvetica,sans-Serif" font-size="10.00">include/rel/d/a/obj</text>
<text text-anchor="start" x="1842.5" y="-95" font-family="Helvetica,sans-Serif" font-size="10.00">/d_a_obj_fallobj/d_a</text>
<text text-anchor="middle" x="1886" y="-84" font-family="Helvetica,sans-Serif" font-size="10.00">_obj_fallobj.h</text>
</a>
</g>
</g>
<!-- Node1&#45;&gt;Node18 -->
<g id="edge17" class="edge">
<title>Node1&#45;&gt;Node18</title>
<path fill="none" stroke="#63b8ff" d="M2817.53,-166.76C2635.46,-162.86 2113.81,-149.2 1946,-118 1943.31,-117.5 1940.57,-116.91 1937.82,-116.26"/>
<polygon fill="#63b8ff" stroke="#63b8ff" points="2817.18,-170.25 2827.25,-166.96 2817.33,-163.25 2817.18,-170.25"/>
</g>
<!-- Node19 -->
<g id="node19" class="node">
<title>Node19</title>
<g id="a_node19"><a xlink:href="d__a__obj__grave__stone_8h.html" target="_top" xlink:title=" ">
<polygon fill="white" stroke="#666666" points="2074.5,-118 1955.5,-118 1955.5,-77 2074.5,-77 2074.5,-118"/>
<text text-anchor="start" x="1963.5" y="-106" font-family="Helvetica,sans-Serif" font-size="10.00">include/rel/d/a/obj</text>
<text text-anchor="start" x="1963.5" y="-95" font-family="Helvetica,sans-Serif" font-size="10.00">/d_a_obj_grave_stone</text>
<text text-anchor="middle" x="2015" y="-84" font-family="Helvetica,sans-Serif" font-size="10.00">/d_a_obj_grave_stone.h</text>
</a>
</g>
</g>
<!-- Node1&#45;&gt;Node19 -->
<g id="edge18" class="edge">
<title>Node1&#45;&gt;Node19</title>
<path fill="none" stroke="#63b8ff" d="M2817.44,-168.58C2681.7,-168.81 2353.9,-164.06 2084,-118 2080.93,-117.48 2077.81,-116.87 2074.66,-116.2"/>
<polygon fill="#63b8ff" stroke="#63b8ff" points="2817.3,-172.08 2827.29,-168.55 2817.28,-165.08 2817.3,-172.08"/>
</g>
<!-- Node20 -->
<g id="node20" class="node">
<title>Node20</title>
<g id="a_node20"><a xlink:href="d__a__obj__hbombkoya_8h.html" target="_top" xlink:title=" ">
<polygon fill="white" stroke="#666666" points="2209,-118 2093,-118 2093,-77 2209,-77 2209,-118"/>
<text text-anchor="start" x="2101" y="-106" font-family="Helvetica,sans-Serif" font-size="10.00">include/rel/d/a/obj</text>
<text text-anchor="start" x="2101" y="-95" font-family="Helvetica,sans-Serif" font-size="10.00">/d_a_obj_hbombkoya/d</text>
<text text-anchor="middle" x="2151" y="-84" font-family="Helvetica,sans-Serif" font-size="10.00">_a_obj_hbombkoya.h</text>
</a>
</g>
</g>
<!-- Node1&#45;&gt;Node20 -->
<g id="edge19" class="edge">
<title>Node1&#45;&gt;Node20</title>
<path fill="none" stroke="#63b8ff" d="M2817.14,-167.58C2698.26,-165.83 2435.37,-157.39 2218,-118 2215.14,-117.48 2212.23,-116.89 2209.29,-116.24"/>
<polygon fill="#63b8ff" stroke="#63b8ff" points="2816.97,-171.08 2827.02,-167.71 2817.06,-164.08 2816.97,-171.08"/>
</g>
<!-- Node21 -->
<g id="node21" class="node">
<title>Node21</title>
<g id="a_node21"><a xlink:href="d__a__obj__hsTarget_8h.html" target="_top" xlink:title=" ">
<polygon fill="white" stroke="#666666" points="2332.5,-118 2227.5,-118 2227.5,-77 2332.5,-77 2332.5,-118"/>
<text text-anchor="start" x="2235.5" y="-106" font-family="Helvetica,sans-Serif" font-size="10.00">include/rel/d/a/obj</text>
<text text-anchor="start" x="2235.5" y="-95" font-family="Helvetica,sans-Serif" font-size="10.00">/d_a_obj_hsTarget/d</text>
<text text-anchor="middle" x="2280" y="-84" font-family="Helvetica,sans-Serif" font-size="10.00">_a_obj_hsTarget.h</text>
</a>
</g>
</g>
<!-- Node1&#45;&gt;Node21 -->
<g id="edge20" class="edge">
<title>Node1&#45;&gt;Node21</title>
<path fill="none" stroke="#63b8ff" d="M2817.56,-166.46C2716.14,-163.04 2511.66,-152.15 2342,-118 2339.01,-117.4 2335.97,-116.71 2332.91,-115.95"/>
<polygon fill="#63b8ff" stroke="#63b8ff" points="2817.19,-169.95 2827.3,-166.78 2817.42,-162.96 2817.19,-169.95"/>
</g>
<!-- Node22 -->
<g id="node22" class="node">
<title>Node22</title>
<g id="a_node22"><a xlink:href="d__a__obj__ice__l_8h.html" target="_top" xlink:title=" ">
<polygon fill="white" stroke="#666666" points="2467,-118 2351,-118 2351,-77 2467,-77 2467,-118"/>
<text text-anchor="start" x="2359" y="-106" font-family="Helvetica,sans-Serif" font-size="10.00">include/rel/d/a/obj</text>
<text text-anchor="start" x="2359" y="-95" font-family="Helvetica,sans-Serif" font-size="10.00">/d_a_obj_ice_l/d_a_obj</text>
<text text-anchor="middle" x="2409" y="-84" font-family="Helvetica,sans-Serif" font-size="10.00">_ice_l.h</text>
</a>
</g>
</g>
<!-- Node1&#45;&gt;Node22 -->
<g id="edge21" class="edge">
<title>Node1&#45;&gt;Node22</title>
<path fill="none" stroke="#63b8ff" d="M2817.41,-163.32C2737.21,-156.7 2595.38,-142.58 2476,-118 2473.15,-117.41 2470.25,-116.77 2467.33,-116.07"/>
<polygon fill="#63b8ff" stroke="#63b8ff" points="2817.02,-166.8 2827.27,-164.12 2817.59,-159.83 2817.02,-166.8"/>
</g>
<!-- Node23 -->
<g id="node23" class="node">
<title>Node23</title>
<g id="a_node23"><a xlink:href="d__a__obj__kgate_8h.html" target="_top" xlink:title=" ">
<polygon fill="white" stroke="#666666" points="2604.5,-118 2485.5,-118 2485.5,-77 2604.5,-77 2604.5,-118"/>
<text text-anchor="start" x="2493.5" y="-106" font-family="Helvetica,sans-Serif" font-size="10.00">include/rel/d/a/obj</text>
<text text-anchor="start" x="2493.5" y="-95" font-family="Helvetica,sans-Serif" font-size="10.00">/d_a_obj_kgate/d_a_obj</text>
<text text-anchor="middle" x="2545" y="-84" font-family="Helvetica,sans-Serif" font-size="10.00">_kgate.h</text>
</a>
</g>
</g>
<!-- Node1&#45;&gt;Node23 -->
<g id="edge22" class="edge">
<title>Node1&#45;&gt;Node23</title>
<path fill="none" stroke="#63b8ff" d="M2817.34,-157.74C2763.03,-148.6 2683.01,-134.18 2614,-118 2610.97,-117.29 2607.87,-116.53 2604.75,-115.74"/>
<polygon fill="#63b8ff" stroke="#63b8ff" points="2816.59,-161.17 2827.03,-159.36 2817.74,-154.26 2816.59,-161.17"/>
</g>
<!-- Node24 -->
<g id="node24" class="node">
<title>Node24</title>
<g id="a_node24"><a xlink:href="d__a__obj__kjgjs_8h.html" target="_top" xlink:title=" ">
<polygon fill="white" stroke="#666666" points="2739,-118 2623,-118 2623,-77 2739,-77 2739,-118"/>
<text text-anchor="start" x="2631" y="-106" font-family="Helvetica,sans-Serif" font-size="10.00">include/rel/d/a/obj</text>
<text text-anchor="start" x="2631" y="-95" font-family="Helvetica,sans-Serif" font-size="10.00">/d_a_obj_kjgjs/d_a_obj</text>
<text text-anchor="middle" x="2681" y="-84" font-family="Helvetica,sans-Serif" font-size="10.00">_kjgjs.h</text>
</a>
</g>
</g>
<!-- Node1&#45;&gt;Node24 -->
<g id="edge23" class="edge">
<title>Node1&#45;&gt;Node24</title>
<path fill="none" stroke="#63b8ff" d="M2828.86,-149.88C2801.08,-140.23 2766.84,-128.33 2738.31,-118.42"/>
<polygon fill="#63b8ff" stroke="#63b8ff" points="2827.54,-153.13 2838.13,-153.1 2829.83,-146.51 2827.54,-153.13"/>
</g>
<!-- Node25 -->
<g id="node25" class="node">
<title>Node25</title>
<g id="a_node25"><a xlink:href="d__a__obj__kkanban_8h.html" target="_top" xlink:title=" ">
<polygon fill="white" stroke="#666666" points="2871,-118 2757,-118 2757,-77 2871,-77 2871,-118"/>
<text text-anchor="start" x="2765" y="-106" font-family="Helvetica,sans-Serif" font-size="10.00">include/rel/d/a/obj</text>
<text text-anchor="start" x="2765" y="-95" font-family="Helvetica,sans-Serif" font-size="10.00">/d_a_obj_kkanban/d_a</text>
<text text-anchor="middle" x="2814" y="-84" font-family="Helvetica,sans-Serif" font-size="10.00">_obj_kkanban.h</text>
</a>
</g>
</g>
<!-- Node1&#45;&gt;Node25 -->
<g id="edge24" class="edge">
<title>Node1&#45;&gt;Node25</title>
<path fill="none" stroke="#63b8ff" d="M2859.2,-145.39C2850.82,-136.69 2841.32,-126.84 2833.2,-118.42"/>
<polygon fill="#63b8ff" stroke="#63b8ff" points="2856.61,-147.74 2866.07,-152.51 2861.65,-142.88 2856.61,-147.74"/>
</g>
<!-- Node26 -->
<g id="node26" class="node">
<title>Node26</title>
<g id="a_node26"><a xlink:href="d__a__obj__lv1Candle01_8h.html" target="_top" xlink:title=" ">
<polygon fill="white" stroke="#666666" points="3008.5,-118 2889.5,-118 2889.5,-77 3008.5,-77 3008.5,-118"/>
<text text-anchor="start" x="2897.5" y="-106" font-family="Helvetica,sans-Serif" font-size="10.00">include/rel/d/a/obj</text>
<text text-anchor="start" x="2897.5" y="-95" font-family="Helvetica,sans-Serif" font-size="10.00">/d_a_obj_lv1Candle01</text>
<text text-anchor="middle" x="2949" y="-84" font-family="Helvetica,sans-Serif" font-size="10.00">/d_a_obj_lv1Candle01.h</text>
</a>
</g>
</g>
<!-- Node1&#45;&gt;Node26 -->
<g id="edge25" class="edge">
<title>Node1&#45;&gt;Node26</title>
<path fill="none" stroke="#63b8ff" d="M2903.12,-145.39C2911.63,-136.69 2921.27,-126.84 2929.51,-118.42"/>
<polygon fill="#63b8ff" stroke="#63b8ff" points="2900.64,-142.92 2896.15,-152.52 2905.64,-147.82 2900.64,-142.92"/>
</g>
<!-- Node27 -->
<g id="node27" class="node">
<title>Node27</title>
<g id="a_node27"><a xlink:href="d__a__obj__lv3saka00_8h.html" target="_top" xlink:title=" ">
<polygon fill="white" stroke="#666666" points="3137.5,-118 3026.5,-118 3026.5,-77 3137.5,-77 3137.5,-118"/>
<text text-anchor="start" x="3034.5" y="-106" font-family="Helvetica,sans-Serif" font-size="10.00">include/rel/d/a/obj</text>
<text text-anchor="start" x="3034.5" y="-95" font-family="Helvetica,sans-Serif" font-size="10.00">/d_a_obj_lv3saka00/d</text>
<text text-anchor="middle" x="3082" y="-84" font-family="Helvetica,sans-Serif" font-size="10.00">_a_obj_lv3saka00.h</text>
</a>
</g>
</g>
<!-- Node1&#45;&gt;Node27 -->
<g id="edge26" class="edge">
<title>Node1&#45;&gt;Node27</title>
<path fill="none" stroke="#63b8ff" d="M2933.24,-149.94C2961.81,-140.06 2997.2,-127.82 3026.3,-117.76"/>
<polygon fill="#63b8ff" stroke="#63b8ff" points="2932.38,-146.53 2924.08,-153.1 2934.67,-153.14 2932.38,-146.53"/>
</g>
<!-- Node28 -->
<g id="node28" class="node">
<title>Node28</title>
<g id="a_node28"><a xlink:href="d__a__obj__lv4Gate_8h.html" target="_top" xlink:title=" ">
<polygon fill="white" stroke="#666666" points="3266.5,-118 3155.5,-118 3155.5,-77 3266.5,-77 3266.5,-118"/>
<text text-anchor="start" x="3163.5" y="-106" font-family="Helvetica,sans-Serif" font-size="10.00">include/rel/d/a/obj</text>
<text text-anchor="start" x="3163.5" y="-95" font-family="Helvetica,sans-Serif" font-size="10.00">/d_a_obj_lv4Gate/d_a</text>
<text text-anchor="middle" x="3211" y="-84" font-family="Helvetica,sans-Serif" font-size="10.00">_obj_lv4Gate.h</text>
</a>
</g>
</g>
<!-- Node1&#45;&gt;Node28 -->
<g id="edge27" class="edge">
<title>Node1&#45;&gt;Node28</title>
<path fill="none" stroke="#63b8ff" d="M2944.5,-157.95C2998.44,-148.95 3077.73,-134.63 3146,-118 3148.98,-117.27 3152.02,-116.5 3155.08,-115.68"/>
<polygon fill="#63b8ff" stroke="#63b8ff" points="2944.18,-154.45 2934.88,-159.54 2945.32,-161.36 2944.18,-154.45"/>
</g>
<!-- Node29 -->
<g id="node29" class="node">
<title>Node29</title>
<g id="a_node29"><a xlink:href="d__a__obj__lv4HsTarget_8h.html" target="_top" xlink:title=" ">
<polygon fill="white" stroke="#666666" points="3403.5,-118 3284.5,-118 3284.5,-77 3403.5,-77 3403.5,-118"/>
<text text-anchor="start" x="3292.5" y="-106" font-family="Helvetica,sans-Serif" font-size="10.00">include/rel/d/a/obj</text>
<text text-anchor="start" x="3292.5" y="-95" font-family="Helvetica,sans-Serif" font-size="10.00">/d_a_obj_lv4HsTarget</text>
<text text-anchor="middle" x="3344" y="-84" font-family="Helvetica,sans-Serif" font-size="10.00">/d_a_obj_lv4HsTarget.h</text>
</a>
</g>
</g>
<!-- Node1&#45;&gt;Node29 -->
<g id="edge28" class="edge">
<title>Node1&#45;&gt;Node29</title>
<path fill="none" stroke="#63b8ff" d="M2944.46,-162.88C3022.72,-155.9 3159.57,-141.5 3275,-118 3278.05,-117.38 3281.16,-116.69 3284.29,-115.96"/>
<polygon fill="#63b8ff" stroke="#63b8ff" points="2944.51,-159.37 2934.86,-163.73 2945.13,-166.34 2944.51,-159.37"/>
</g>
<!-- Node30 -->
<g id="node30" class="node">
<title>Node30</title>
<g id="a_node30"><a xlink:href="d__a__obj__lv4PoGate_8h.html" target="_top" xlink:title=" ">
<polygon fill="white" stroke="#666666" points="3534.5,-118 3421.5,-118 3421.5,-77 3534.5,-77 3534.5,-118"/>
<text text-anchor="start" x="3429.5" y="-106" font-family="Helvetica,sans-Serif" font-size="10.00">include/rel/d/a/obj</text>
<text text-anchor="start" x="3429.5" y="-95" font-family="Helvetica,sans-Serif" font-size="10.00">/d_a_obj_lv4PoGate/d</text>
<text text-anchor="middle" x="3478" y="-84" font-family="Helvetica,sans-Serif" font-size="10.00">_a_obj_lv4PoGate.h</text>
</a>
</g>
</g>
<!-- Node1&#45;&gt;Node30 -->
<g id="edge29" class="edge">
<title>Node1&#45;&gt;Node30</title>
<path fill="none" stroke="#63b8ff" d="M2944.92,-165.97C3045.23,-161.89 3245.4,-150.14 3412,-118 3415.05,-117.41 3418.16,-116.74 3421.29,-116.01"/>
<polygon fill="#63b8ff" stroke="#63b8ff" points="2944.85,-162.47 2934.99,-166.36 2945.12,-169.46 2944.85,-162.47"/>
</g>
<!-- Node31 -->
<g id="node31" class="node">
<title>Node31</title>
<g id="a_node31"><a xlink:href="d__a__obj__lv4floor_8h.html" target="_top" xlink:title=" ">
<polygon fill="white" stroke="#666666" points="3651,-118 3553,-118 3553,-77 3651,-77 3651,-118"/>
<text text-anchor="start" x="3561" y="-106" font-family="Helvetica,sans-Serif" font-size="10.00">include/rel/d/a/obj</text>
<text text-anchor="start" x="3561" y="-95" font-family="Helvetica,sans-Serif" font-size="10.00">/d_a_obj_lv4floor/d</text>
<text text-anchor="middle" x="3602" y="-84" font-family="Helvetica,sans-Serif" font-size="10.00">_a_obj_lv4floor.h</text>
</a>
</g>
</g>
<!-- Node1&#45;&gt;Node31 -->
<g id="edge30" class="edge">
<title>Node1&#45;&gt;Node31</title>
<path fill="none" stroke="#63b8ff" d="M2944.46,-168.32C3063.17,-167.79 3326.43,-161.29 3543,-118 3546.17,-117.37 3549.41,-116.61 3552.66,-115.78"/>
<polygon fill="#63b8ff" stroke="#63b8ff" points="2944.59,-164.82 2934.6,-168.35 2944.61,-171.82 2944.59,-164.82"/>
</g>
<!-- Node32 -->
<g id="node32" class="node">
<title>Node32</title>
<g id="a_node32"><a xlink:href="d__a__obj__magLiftRot_8h.html" target="_top" xlink:title=" ">
<polygon fill="white" stroke="#666666" points="3783,-118 3669,-118 3669,-77 3783,-77 3783,-118"/>
<text text-anchor="start" x="3677" y="-106" font-family="Helvetica,sans-Serif" font-size="10.00">include/rel/d/a/obj</text>
<text text-anchor="start" x="3677" y="-95" font-family="Helvetica,sans-Serif" font-size="10.00">/d_a_obj_magLiftRot</text>
<text text-anchor="middle" x="3726" y="-84" font-family="Helvetica,sans-Serif" font-size="10.00">/d_a_obj_magLiftRot.h</text>
</a>
</g>
</g>
<!-- Node1&#45;&gt;Node32 -->
<g id="edge31" class="edge">
<title>Node1&#45;&gt;Node32</title>
<path fill="none" stroke="#63b8ff" d="M2944.65,-168.69C3078.29,-169.11 3397.45,-164.61 3660,-118 3662.82,-117.5 3665.7,-116.92 3668.59,-116.28"/>
<polygon fill="#63b8ff" stroke="#63b8ff" points="2944.97,-165.2 2934.96,-168.65 2944.94,-172.2 2944.97,-165.2"/>
</g>
<!-- Node33 -->
<g id="node33" class="node">
<title>Node33</title>
<g id="a_node33"><a xlink:href="d__a__obj__mgate_8h.html" target="_top" xlink:title=" ">
<polygon fill="white" stroke="#666666" points="3923,-118 3801,-118 3801,-77 3923,-77 3923,-118"/>
<text text-anchor="start" x="3809" y="-106" font-family="Helvetica,sans-Serif" font-size="10.00">include/rel/d/a/obj</text>
<text text-anchor="start" x="3809" y="-95" font-family="Helvetica,sans-Serif" font-size="10.00">/d_a_obj_mgate/d_a_obj</text>
<text text-anchor="middle" x="3862" y="-84" font-family="Helvetica,sans-Serif" font-size="10.00">_mgate.h</text>
</a>
</g>
</g>
<!-- Node1&#45;&gt;Node33 -->
<g id="edge32" class="edge">
<title>Node1&#45;&gt;Node33</title>
<path fill="none" stroke="#63b8ff" d="M2944.61,-166.3C3123.48,-161.25 3628.46,-144.94 3792,-118 3794.86,-117.53 3797.78,-116.98 3800.71,-116.38"/>
<polygon fill="#63b8ff" stroke="#63b8ff" points="2944.72,-162.8 2934.82,-166.58 2944.91,-169.8 2944.72,-162.8"/>
</g>
<!-- Node34 -->
<g id="node34" class="node">
<title>Node34</title>
<g id="a_node34"><a xlink:href="d__a__obj__onsen_8h.html" target="_top" xlink:title=" ">
<polygon fill="white" stroke="#666666" points="4063,-118 3941,-118 3941,-77 4063,-77 4063,-118"/>
<text text-anchor="start" x="3949" y="-106" font-family="Helvetica,sans-Serif" font-size="10.00">include/rel/d/a/obj</text>
<text text-anchor="start" x="3949" y="-95" font-family="Helvetica,sans-Serif" font-size="10.00">/d_a_obj_onsen/d_a_obj</text>
<text text-anchor="middle" x="4002" y="-84" font-family="Helvetica,sans-Serif" font-size="10.00">_onsen.h</text>
</a>
</g>
</g>
<!-- Node1&#45;&gt;Node34 -->
<g id="edge33" class="edge">
<title>Node1&#45;&gt;Node34</title>
<path fill="none" stroke="#63b8ff" d="M2944.74,-166.84C3141.93,-162.95 3740.25,-148.87 3932,-118 3934.86,-117.54 3937.78,-117 3940.71,-116.41"/>
<polygon fill="#63b8ff" stroke="#63b8ff" points="2944.88,-163.34 2934.95,-167.03 2945.02,-170.33 2944.88,-163.34"/>
</g>
<!-- Node35 -->
<g id="node35" class="node">
<title>Node35</title>
<g id="a_node35"><a xlink:href="d__a__obj__rgate_8h.html" target="_top" xlink:title=" ">
<polygon fill="white" stroke="#666666" points="4198.5,-118 4081.5,-118 4081.5,-77 4198.5,-77 4198.5,-118"/>
<text text-anchor="start" x="4089.5" y="-106" font-family="Helvetica,sans-Serif" font-size="10.00">include/rel/d/a/obj</text>
<text text-anchor="start" x="4089.5" y="-95" font-family="Helvetica,sans-Serif" font-size="10.00">/d_a_obj_rgate/d_a_obj</text>
<text text-anchor="middle" x="4140" y="-84" font-family="Helvetica,sans-Serif" font-size="10.00">_rgate.h</text>
</a>
</g>
</g>
<!-- Node1&#45;&gt;Node35 -->
<g id="edge34" class="edge">
<title>Node1&#45;&gt;Node35</title>
<path fill="none" stroke="#63b8ff" d="M2944.73,-167.32C3158.95,-164.71 3851.97,-153.65 4072,-118 4075.03,-117.51 4078.12,-116.93 4081.22,-116.28"/>
<polygon fill="#63b8ff" stroke="#63b8ff" points="2944.87,-163.81 2934.91,-167.43 2944.95,-170.81 2944.87,-163.81"/>
</g>
<!-- Node36 -->
<g id="node36" class="node">
<title>Node36</title>
<g id="a_node36"><a xlink:href="d__a__obj__sekizo_8h.html" target="_top" xlink:title=" ">
<polygon fill="white" stroke="#666666" points="4321.5,-118 4216.5,-118 4216.5,-77 4321.5,-77 4321.5,-118"/>
<text text-anchor="start" x="4224.5" y="-106" font-family="Helvetica,sans-Serif" font-size="10.00">include/rel/d/a/obj</text>
<text text-anchor="start" x="4224.5" y="-95" font-family="Helvetica,sans-Serif" font-size="10.00">/d_a_obj_sekizo/d_a</text>
<text text-anchor="middle" x="4269" y="-84" font-family="Helvetica,sans-Serif" font-size="10.00">_obj_sekizo.h</text>
</a>
</g>
</g>
<!-- Node1&#45;&gt;Node36 -->
<g id="edge35" class="edge">
<title>Node1&#45;&gt;Node36</title>
<path fill="none" stroke="#63b8ff" d="M2944.91,-167.84C3174.93,-166.94 3960.03,-160.7 4207,-118 4210,-117.48 4213.06,-116.85 4216.13,-116.15"/>
<polygon fill="#63b8ff" stroke="#63b8ff" points="2944.92,-164.34 2934.93,-167.88 2944.95,-171.34 2944.92,-164.34"/>
</g>
<!-- Node37 -->
<g id="node37" class="node">
<title>Node37</title>
<g id="a_node37"><a xlink:href="d__a__obj__swhang_8h.html" target="_top" xlink:title=" ">
<polygon fill="white" stroke="#666666" points="4450.5,-118 4339.5,-118 4339.5,-77 4450.5,-77 4450.5,-118"/>
<text text-anchor="start" x="4347.5" y="-106" font-family="Helvetica,sans-Serif" font-size="10.00">include/rel/d/a/obj</text>
<text text-anchor="start" x="4347.5" y="-95" font-family="Helvetica,sans-Serif" font-size="10.00">/d_a_obj_swhang/d_a</text>
<text text-anchor="middle" x="4395" y="-84" font-family="Helvetica,sans-Serif" font-size="10.00">_obj_swhang.h</text>
</a>
</g>
</g>
<!-- Node1&#45;&gt;Node37 -->
<g id="edge36" class="edge">
<title>Node1&#45;&gt;Node37</title>
<path fill="none" stroke="#63b8ff" d="M2944.65,-167.97C3187.74,-167.54 4057.52,-162.8 4330,-118 4333.02,-117.5 4336.1,-116.91 4339.19,-116.23"/>
<polygon fill="#63b8ff" stroke="#63b8ff" points="2944.73,-164.47 2934.73,-167.99 2944.74,-171.47 2944.73,-164.47"/>
</g>
<!-- Node38 -->
<g id="node38" class="node">
<title>Node38</title>
<g id="a_node38"><a xlink:href="d__a__obj__swspinner_8h.html" target="_top" xlink:title=" ">
<polygon fill="white" stroke="#666666" points="4579.5,-118 4468.5,-118 4468.5,-77 4579.5,-77 4579.5,-118"/>
<text text-anchor="start" x="4476.5" y="-106" font-family="Helvetica,sans-Serif" font-size="10.00">include/rel/d/a/obj</text>
<text text-anchor="start" x="4476.5" y="-95" font-family="Helvetica,sans-Serif" font-size="10.00">/d_a_obj_swspinner/d</text>
<text text-anchor="middle" x="4524" y="-84" font-family="Helvetica,sans-Serif" font-size="10.00">_a_obj_swspinner.h</text>
</a>
</g>
</g>
<!-- Node1&#45;&gt;Node38 -->
<g id="edge37" class="edge">
<title>Node1&#45;&gt;Node38</title>
<path fill="none" stroke="#63b8ff" d="M2944.78,-168.22C3201.67,-168.77 4161.01,-167.39 4460,-118 4462.64,-117.56 4465.31,-117.05 4468.01,-116.47"/>
<polygon fill="#63b8ff" stroke="#63b8ff" points="2944.96,-164.72 2934.95,-168.2 2944.94,-171.72 2944.96,-164.72"/>
</g>
<!-- Node40 -->
<g id="node40" class="node">
<title>Node40</title>
<g id="a_node40"><a xlink:href="d__a__obj__table_8h.html" target="_top" xlink:title=" ">
<polygon fill="white" stroke="#666666" points="4714,-118 4598,-118 4598,-77 4714,-77 4714,-118"/>
<text text-anchor="start" x="4606" y="-106" font-family="Helvetica,sans-Serif" font-size="10.00">include/rel/d/a/obj</text>
<text text-anchor="start" x="4606" y="-95" font-family="Helvetica,sans-Serif" font-size="10.00">/d_a_obj_table/d_a_obj</text>
<text text-anchor="middle" x="4656" y="-84" font-family="Helvetica,sans-Serif" font-size="10.00">_table.h</text>
</a>
</g>
</g>
<!-- Node1&#45;&gt;Node40 -->
<g id="edge39" class="edge">
<title>Node1&#45;&gt;Node40</title>
<path fill="none" stroke="#63b8ff" d="M2944.6,-168.29C3214.1,-169.21 4263.09,-169.34 4589,-118 4591.87,-117.55 4594.79,-117.01 4597.73,-116.4"/>
<polygon fill="#63b8ff" stroke="#63b8ff" points="2945,-164.8 2934.98,-168.26 2944.97,-171.8 2945,-164.8"/>
</g>
<!-- Node41 -->
<g id="node41" class="node">
<title>Node41</title>
<g id="a_node41"><a xlink:href="d__a__obj__tgake_8h.html" target="_top" xlink:title=" ">
<polygon fill="white" stroke="#666666" points="4851.5,-118 4732.5,-118 4732.5,-77 4851.5,-77 4851.5,-118"/>
<text text-anchor="start" x="4740.5" y="-106" font-family="Helvetica,sans-Serif" font-size="10.00">include/rel/d/a/obj</text>
<text text-anchor="start" x="4740.5" y="-95" font-family="Helvetica,sans-Serif" font-size="10.00">/d_a_obj_tgake/d_a_obj</text>
<text text-anchor="middle" x="4792" y="-84" font-family="Helvetica,sans-Serif" font-size="10.00">_tgake.h</text>
</a>
</g>
</g>
<!-- Node1&#45;&gt;Node41 -->
<g id="edge40" class="edge">
<title>Node1&#45;&gt;Node41</title>
<path fill="none" stroke="#63b8ff" d="M2944.4,-168.39C3226.48,-169.79 4369.15,-171.94 4723,-118 4726.08,-117.53 4729.21,-116.97 4732.36,-116.33"/>
<polygon fill="#63b8ff" stroke="#63b8ff" points="2944.7,-164.89 2934.68,-168.34 2944.67,-171.89 2944.7,-164.89"/>
</g>
<!-- Node42 -->
<g id="node42" class="node">
<title>Node42</title>
<g id="a_node42"><a xlink:href="d__a__obj__well__cover_8h.html" target="_top" xlink:title=" ">
<polygon fill="white" stroke="#666666" points="4982.5,-118 4869.5,-118 4869.5,-77 4982.5,-77 4982.5,-118"/>
<text text-anchor="start" x="4877.5" y="-106" font-family="Helvetica,sans-Serif" font-size="10.00">include/rel/d/a/obj</text>
<text text-anchor="start" x="4877.5" y="-95" font-family="Helvetica,sans-Serif" font-size="10.00">/d_a_obj_well_cover</text>
<text text-anchor="middle" x="4926" y="-84" font-family="Helvetica,sans-Serif" font-size="10.00">/d_a_obj_well_cover.h</text>
</a>
</g>
</g>
<!-- Node1&#45;&gt;Node42 -->
<g id="edge41" class="edge">
<title>Node1&#45;&gt;Node42</title>
<path fill="none" stroke="#63b8ff" d="M2944.28,-167.4C3261.2,-164.28 4668.35,-148.76 4861,-118 4863.68,-117.57 4866.4,-117.06 4869.13,-116.49"/>
<polygon fill="#63b8ff" stroke="#63b8ff" points="2944.51,-163.9 2934.55,-167.5 2944.58,-170.9 2944.51,-163.9"/>
</g>
<!-- Node43 -->
<g id="node43" class="node">
<title>Node43</title>
<g id="a_node43"><a xlink:href="d__a__obj__window_8h.html" target="_top" xlink:title=" ">
<polygon fill="white" stroke="#666666" points="5111,-118 5001,-118 5001,-77 5111,-77 5111,-118"/>
<text text-anchor="start" x="5009" y="-106" font-family="Helvetica,sans-Serif" font-size="10.00">include/rel/d/a/obj</text>
<text text-anchor="start" x="5009" y="-95" font-family="Helvetica,sans-Serif" font-size="10.00">/d_a_obj_window/d_a</text>
<text text-anchor="middle" x="5056" y="-84" font-family="Helvetica,sans-Serif" font-size="10.00">_obj_window.h</text>
</a>
</g>
</g>
<!-- Node1&#45;&gt;Node43 -->
<g id="edge42" class="edge">
<title>Node1&#45;&gt;Node43</title>
<path fill="none" stroke="#63b8ff" d="M2944.71,-167.52C3275.07,-164.91 4785.88,-151.2 4992,-118 4994.87,-117.54 4997.78,-116.98 5000.71,-116.35"/>
<polygon fill="#63b8ff" stroke="#63b8ff" points="2944.94,-164.02 2934.97,-167.6 2945,-171.02 2944.94,-164.02"/>
</g>
<!-- Node44 -->
<g id="node44" class="node">
<title>Node44</title>
<g id="a_node44"><a xlink:href="d__a__obj__zdoor_8h.html" target="_top" xlink:title=" ">
<polygon fill="white" stroke="#666666" points="5248.5,-118 5129.5,-118 5129.5,-77 5248.5,-77 5248.5,-118"/>
<text text-anchor="start" x="5137.5" y="-106" font-family="Helvetica,sans-Serif" font-size="10.00">include/rel/d/a/obj</text>
<text text-anchor="start" x="5137.5" y="-95" font-family="Helvetica,sans-Serif" font-size="10.00">/d_a_obj_zdoor/d_a_obj</text>
<text text-anchor="middle" x="5189" y="-84" font-family="Helvetica,sans-Serif" font-size="10.00">_zdoor.h</text>
</a>
</g>
</g>
<!-- Node1&#45;&gt;Node44 -->
<g id="edge43" class="edge">
<title>Node1&#45;&gt;Node44</title>
<path fill="none" stroke="#63b8ff" d="M2944.64,-167.54C3286.77,-164.93 4900.2,-150.97 5120,-118 5123.08,-117.54 5126.21,-116.98 5129.36,-116.35"/>
<polygon fill="#63b8ff" stroke="#63b8ff" points="2944.73,-164.04 2934.76,-167.61 2944.79,-171.04 2944.73,-164.04"/>
</g>
<!-- Node45 -->
<g id="node45" class="node">
<title>Node45</title>
<g id="a_node45"><a xlink:href="d__a__obj__zrTurara_8h.html" target="_top" xlink:title=" ">
<polygon fill="white" stroke="#666666" points="5369,-118 5267,-118 5267,-77 5369,-77 5369,-118"/>
<text text-anchor="start" x="5275" y="-106" font-family="Helvetica,sans-Serif" font-size="10.00">include/rel/d/a/obj</text>
<text text-anchor="start" x="5275" y="-95" font-family="Helvetica,sans-Serif" font-size="10.00">/d_a_obj_zrTurara/d</text>
<text text-anchor="middle" x="5318" y="-84" font-family="Helvetica,sans-Serif" font-size="10.00">_a_obj_zrTurara.h</text>
</a>
</g>
</g>
<!-- Node1&#45;&gt;Node45 -->
<g id="edge44" class="edge">
<title>Node1&#45;&gt;Node45</title>
<path fill="none" stroke="#63b8ff" d="M2944.57,-167.77C3299.1,-166.37 5024.48,-157.52 5258,-118 5260.81,-117.52 5263.66,-116.95 5266.53,-116.29"/>
<polygon fill="#63b8ff" stroke="#63b8ff" points="2944.77,-164.27 2934.78,-167.81 2944.8,-171.27 2944.77,-164.27"/>
</g>
<!-- Node46 -->
<g id="node46" class="node">
<title>Node46</title>
<g id="a_node46"><a xlink:href="d__a__obj__zra__rock_8h.html" target="_top" xlink:title=" ">
<polygon fill="white" stroke="#666666" points="5491,-118 5387,-118 5387,-77 5491,-77 5491,-118"/>
<text text-anchor="start" x="5395" y="-106" font-family="Helvetica,sans-Serif" font-size="10.00">include/rel/d/a/obj</text>
<text text-anchor="start" x="5395" y="-95" font-family="Helvetica,sans-Serif" font-size="10.00">/d_a_obj_zra_rock/d</text>
<text text-anchor="middle" x="5439" y="-84" font-family="Helvetica,sans-Serif" font-size="10.00">_a_obj_zra_rock.h</text>
</a>
</g>
</g>
<!-- Node1&#45;&gt;Node46 -->
<g id="edge45" class="edge">
<title>Node1&#45;&gt;Node46</title>
<path fill="none" stroke="#63b8ff" d="M2944.82,-167.82C3310.49,-166.67 5131.92,-158.9 5378,-118 5380.85,-117.53 5383.75,-116.95 5386.67,-116.29"/>
<polygon fill="#63b8ff" stroke="#63b8ff" points="2944.93,-164.32 2934.94,-167.86 2944.96,-171.32 2944.93,-164.32"/>
</g>
<!-- Node47 -->
<g id="node47" class="node">
<title>Node47</title>
<g id="a_node47"><a xlink:href="d__a__tag__hjump_8h.html" target="_top" xlink:title=" ">
<polygon fill="white" stroke="#666666" points="5632.5,-118 5509.5,-118 5509.5,-77 5632.5,-77 5632.5,-118"/>
<text text-anchor="start" x="5517.5" y="-106" font-family="Helvetica,sans-Serif" font-size="10.00">include/rel/d/a/tag</text>
<text text-anchor="start" x="5517.5" y="-95" font-family="Helvetica,sans-Serif" font-size="10.00">/d_a_tag_hjump/d_a_tag</text>
<text text-anchor="middle" x="5571" y="-84" font-family="Helvetica,sans-Serif" font-size="10.00">_hjump.h</text>
</a>
</g>
</g>
<!-- Node1&#45;&gt;Node47 -->
<g id="edge46" class="edge">
<title>Node1&#45;&gt;Node47</title>
<path fill="none" stroke="#63b8ff" d="M2944.88,-167.73C3321.12,-166.03 5240.37,-155.53 5500,-118 5503.04,-117.56 5506.13,-117.03 5509.24,-116.44"/>
<polygon fill="#63b8ff" stroke="#63b8ff" points="2944.93,-164.23 2934.95,-167.78 2944.96,-171.23 2944.93,-164.23"/>
</g>
<!-- Node48 -->
<g id="node48" class="node">
<title>Node48</title>
<g id="a_node48"><a xlink:href="d__bg__s__movebg__actor_8cpp.html" target="_top" xlink:title=" ">
<polygon fill="white" stroke="#666666" points="5777,-112.5 5651,-112.5 5651,-82.5 5777,-82.5 5777,-112.5"/>
<text text-anchor="start" x="5659" y="-100.5" font-family="Helvetica,sans-Serif" font-size="10.00">src/d/bg/d_bg_s_movebg</text>
<text text-anchor="middle" x="5714" y="-89.5" font-family="Helvetica,sans-Serif" font-size="10.00">_actor.cpp</text>
</a>
</g>
</g>
<!-- Node1&#45;&gt;Node48 -->
<g id="edge47" class="edge">
<title>Node1&#45;&gt;Node48</title>
<path fill="none" stroke="#63b8ff" d="M2944.62,-167.79C3332.1,-166.36 5367.33,-157.07 5642,-118 5650.21,-116.83 5658.81,-115.03 5667.1,-112.98"/>
<polygon fill="#63b8ff" stroke="#63b8ff" points="2944.87,-164.29 2934.89,-167.82 2944.9,-171.29 2944.87,-164.29"/>
</g>
<!-- Node5 -->
<g id="node5" class="node">
<title>Node5</title>
<g id="a_node5"><a xlink:href="d__com__static_8cpp.html" target="_top" xlink:title=" ">
<polygon fill="white" stroke="#666666" points="382,-30 242,-30 242,-11 382,-11 382,-30"/>
<text text-anchor="middle" x="312" y="-18" font-family="Helvetica,sans-Serif" font-size="10.00">src/d/com/d_com_static.cpp</text>
</a>
</g>
</g>
<!-- Node4&#45;&gt;Node5 -->
<g id="edge4" class="edge">
<title>Node4&#45;&gt;Node5</title>
<path fill="none" stroke="#63b8ff" d="M312,-70.56C312,-56.54 312,-40.13 312,-30.29"/>
<polygon fill="#63b8ff" stroke="#63b8ff" points="308.5,-70.53 312,-80.53 315.5,-70.53 308.5,-70.53"/>
</g>
<!-- Node8 -->
<g id="node8" class="node">
<title>Node8</title>
<g id="a_node8"><a xlink:href="d__a__alink_8cpp.html" target="_top" xlink:title=" ">
<polygon fill="white" stroke="#666666" points="628.5,-30 519.5,-30 519.5,-11 628.5,-11 628.5,-30"/>
<text text-anchor="middle" x="574" y="-18" font-family="Helvetica,sans-Serif" font-size="10.00">src/d/a/d_a_alink.cpp</text>
</a>
</g>
</g>
<!-- Node7&#45;&gt;Node8 -->
<g id="edge7" class="edge">
<title>Node7&#45;&gt;Node8</title>
<path fill="none" stroke="#63b8ff" d="M574,-70.56C574,-56.54 574,-40.13 574,-30.29"/>
<polygon fill="#63b8ff" stroke="#63b8ff" points="570.5,-70.53 574,-80.53 577.5,-70.53 570.5,-70.53"/>
</g>
<!-- Node39 -->
<g id="node39" class="node">
<title>Node39</title>
<g id="a_node39"><a xlink:href="d__a__obj__lv4gear_8h.html" target="_top" xlink:title=" ">
<polygon fill="white" stroke="#666666" points="4578.5,-41 4469.5,-41 4469.5,0 4578.5,0 4578.5,-41"/>
<text text-anchor="start" x="4477.5" y="-29" font-family="Helvetica,sans-Serif" font-size="10.00">include/rel/d/a/obj</text>
<text text-anchor="start" x="4477.5" y="-18" font-family="Helvetica,sans-Serif" font-size="10.00">/d_a_obj_lv4gear/d_a</text>
<text text-anchor="middle" x="4524" y="-7" font-family="Helvetica,sans-Serif" font-size="10.00">_obj_lv4gear.h</text>
</a>
</g>
</g>
<!-- Node38&#45;&gt;Node39 -->
<g id="edge38" class="edge">
<title>Node38&#45;&gt;Node39</title>
<path fill="none" stroke="#63b8ff" d="M4524,-65.36C4524,-57.24 4524,-48.7 4524,-41.33"/>
<polygon fill="#63b8ff" stroke="#63b8ff" points="4520.5,-65.28 4524,-75.28 4527.5,-65.28 4520.5,-65.28"/>
</g>
</g>
</svg>
