<?xml version="1.0" encoding="UTF-8" standalone="no"?>
<!DOCTYPE svg PUBLIC "-//W3C//DTD SVG 1.1//EN"
 "http://www.w3.org/Graphics/SVG/1.1/DTD/svg11.dtd">
<!-- Generated by graphviz version 7.0.5 (20221223.1930)
 -->
<!-- Title: include/d/bg/d_bg_s_roof_chk.h Pages: 1 -->
<svg width="3068pt" height="522pt"
 viewBox="0.00 0.00 3067.50 522.00" xmlns="http://www.w3.org/2000/svg" xmlns:xlink="http://www.w3.org/1999/xlink">
<g id="graph0" class="graph" transform="scale(1 1) rotate(0) translate(4 518)">
<title>include/d/bg/d_bg_s_roof_chk.h</title>
<!-- Node1 -->
<g id="node1" class="node">
<title>Node1</title>
<g id="a_node1"><a xlink:title=" ">
<polygon fill="#999999" stroke="#666666" points="2633,-514 2529,-514 2529,-484 2633,-484 2633,-514"/>
<text text-anchor="start" x="2537" y="-502" font-family="Helvetica,sans-Serif" font-size="10.00">include/d/bg/d_bg_s</text>
<text text-anchor="middle" x="2581" y="-491" font-family="Helvetica,sans-Serif" font-size="10.00">_roof_chk.h</text>
</a>
</g>
</g>
<!-- Node2 -->
<g id="node2" class="node">
<title>Node2</title>
<g id="a_node2"><a xlink:href="d__bg__s__acch_8h.html" target="_top" xlink:title=" ">
<polygon fill="white" stroke="#666666" points="2571,-448 2467,-448 2467,-418 2571,-418 2571,-448"/>
<text text-anchor="start" x="2475" y="-436" font-family="Helvetica,sans-Serif" font-size="10.00">include/d/bg/d_bg_s</text>
<text text-anchor="middle" x="2519" y="-425" font-family="Helvetica,sans-Serif" font-size="10.00">_acch.h</text>
</a>
</g>
</g>
<!-- Node1&#45;&gt;Node2 -->
<g id="edge1" class="edge">
<title>Node1&#45;&gt;Node2</title>
<path fill="none" stroke="#63b8ff" d="M2559.5,-475.81C2550.62,-466.64 2540.58,-456.28 2532.72,-448.16"/>
<polygon fill="#63b8ff" stroke="#63b8ff" points="2556.72,-477.96 2566.19,-482.71 2561.74,-473.09 2556.72,-477.96"/>
</g>
<!-- Node226 -->
<g id="node50" class="node">
<title>Node226</title>
<g id="a_node50"><a xlink:href="d__bg__s__roof__chk_8cpp.html" target="_top" xlink:title=" ">
<polygon fill="white" stroke="#666666" points="2697,-448 2589,-448 2589,-418 2697,-418 2697,-448"/>
<text text-anchor="start" x="2597" y="-436" font-family="Helvetica,sans-Serif" font-size="10.00">src/d/bg/d_bg_s_roof</text>
<text text-anchor="middle" x="2643" y="-425" font-family="Helvetica,sans-Serif" font-size="10.00">_chk.cpp</text>
</a>
</g>
</g>
<!-- Node1&#45;&gt;Node226 -->
<g id="edge65" class="edge">
<title>Node1&#45;&gt;Node226</title>
<path fill="none" stroke="#63b8ff" d="M2602.5,-475.81C2611.38,-466.64 2621.42,-456.28 2629.28,-448.16"/>
<polygon fill="#63b8ff" stroke="#63b8ff" points="2600.26,-473.09 2595.81,-482.71 2605.28,-477.96 2600.26,-473.09"/>
</g>
<!-- Node3 -->
<g id="node3" class="node">
<title>Node3</title>
<g id="a_node3"><a xlink:href="d__a__alink_8h.html" target="_top" xlink:title=" ">
<polygon fill="white" stroke="#666666" points="685,-222.5 569,-222.5 569,-203.5 685,-203.5 685,-222.5"/>
<text text-anchor="middle" x="627" y="-210.5" font-family="Helvetica,sans-Serif" font-size="10.00">include/d/a/d_a_alink.h</text>
</a>
</g>
</g>
<!-- Node2&#45;&gt;Node3 -->
<g id="edge2" class="edge">
<title>Node2&#45;&gt;Node3</title>
<path fill="none" stroke="#63b8ff" d="M2455.42,-428.13C2341.1,-420.91 2093.32,-404.11 1885,-382 1421.31,-332.79 864.57,-250.13 685.49,-222.96"/>
<polygon fill="#63b8ff" stroke="#63b8ff" points="2455.01,-431.61 2465.21,-428.74 2455.45,-424.62 2455.01,-431.61"/>
</g>
<!-- Node13 -->
<g id="node13" class="node">
<title>Node13</title>
<g id="a_node13"><a xlink:href="d__a__itembase_8h.html" target="_top" xlink:title=" ">
<polygon fill="white" stroke="#666666" points="2028.5,-371 1893.5,-371 1893.5,-352 2028.5,-352 2028.5,-371"/>
<text text-anchor="middle" x="1961" y="-359" font-family="Helvetica,sans-Serif" font-size="10.00">include/d/a/d_a_itembase.h</text>
</a>
</g>
</g>
<!-- Node2&#45;&gt;Node13 -->
<g id="edge12" class="edge">
<title>Node2&#45;&gt;Node13</title>
<path fill="none" stroke="#63b8ff" d="M2455.35,-424.07C2349.33,-410.87 2137.52,-384.49 2028.81,-370.95"/>
<polygon fill="#63b8ff" stroke="#63b8ff" points="2454.65,-427.51 2465,-425.27 2455.51,-420.57 2454.65,-427.51"/>
</g>
<!-- Node99 -->
<g id="node33" class="node">
<title>Node99</title>
<g id="a_node33"><a xlink:href="d__a__obj__carry_8h.html" target="_top" xlink:title=" ">
<polygon fill="white" stroke="#666666" points="2659,-162 2543,-162 2543,-121 2659,-121 2659,-162"/>
<text text-anchor="start" x="2551" y="-150" font-family="Helvetica,sans-Serif" font-size="10.00">include/rel/d/a/obj</text>
<text text-anchor="start" x="2551" y="-139" font-family="Helvetica,sans-Serif" font-size="10.00">/d_a_obj_carry/d_a_obj</text>
<text text-anchor="middle" x="2601" y="-128" font-family="Helvetica,sans-Serif" font-size="10.00">_carry.h</text>
</a>
</g>
</g>
<!-- Node2&#45;&gt;Node99 -->
<g id="edge62" class="edge">
<title>Node2&#45;&gt;Node99</title>
<path fill="none" stroke="#63b8ff" d="M2582.31,-417.81C2663.03,-404.51 2709.09,-441.79 2758,-382 2820.17,-306 2692.97,-204.72 2631.59,-162.4"/>
<polygon fill="#63b8ff" stroke="#63b8ff" points="2581.88,-414.33 2572.71,-419.64 2583.19,-421.21 2581.88,-414.33"/>
</g>
<!-- Node218 -->
<g id="node41" class="node">
<title>Node218</title>
<g id="a_node41"><a xlink:href="d__bomb_8h.html" target="_top" xlink:title=" ">
<polygon fill="white" stroke="#666666" points="2450.5,-371 2349.5,-371 2349.5,-352 2450.5,-352 2450.5,-371"/>
<text text-anchor="middle" x="2400" y="-359" font-family="Helvetica,sans-Serif" font-size="10.00">include/d/d_bomb.h</text>
</a>
</g>
</g>
<!-- Node2&#45;&gt;Node218 -->
<g id="edge49" class="edge">
<title>Node2&#45;&gt;Node218</title>
<path fill="none" stroke="#63b8ff" d="M2484.61,-411.92C2461.66,-398.51 2432.6,-381.54 2415.2,-371.38"/>
<polygon fill="#63b8ff" stroke="#63b8ff" points="2482.64,-414.82 2493.04,-416.84 2486.17,-408.77 2482.64,-414.82"/>
</g>
<!-- Node220 -->
<g id="node43" class="node">
<title>Node220</title>
<g id="a_node43"><a xlink:href="d__a__boomerang_8h.html" target="_top" xlink:title=" ">
<polygon fill="white" stroke="#666666" points="667.5,-376.5 518.5,-376.5 518.5,-346.5 667.5,-346.5 667.5,-376.5"/>
<text text-anchor="start" x="526.5" y="-364.5" font-family="Helvetica,sans-Serif" font-size="10.00">include/rel/d/a/d_a</text>
<text text-anchor="middle" x="593" y="-353.5" font-family="Helvetica,sans-Serif" font-size="10.00">_boomerang/d_a_boomerang.h</text>
</a>
</g>
</g>
<!-- Node2&#45;&gt;Node220 -->
<g id="edge52" class="edge">
<title>Node2&#45;&gt;Node220</title>
<path fill="none" stroke="#63b8ff" d="M2455.5,-430.18C2248.41,-424.18 1573.84,-404.14 1016,-382 894.06,-377.16 752.4,-370.4 667.87,-366.24"/>
<polygon fill="#63b8ff" stroke="#63b8ff" points="2455.13,-433.67 2465.23,-430.46 2455.34,-426.67 2455.13,-433.67"/>
</g>
<!-- Node221 -->
<g id="node44" class="node">
<title>Node221</title>
<g id="a_node44"><a xlink:href="d__a__canoe_8h.html" target="_top" xlink:title=" ">
<polygon fill="white" stroke="#666666" points="2613,-376.5 2507,-376.5 2507,-346.5 2613,-346.5 2613,-376.5"/>
<text text-anchor="start" x="2515" y="-364.5" font-family="Helvetica,sans-Serif" font-size="10.00">include/rel/d/a/d_a</text>
<text text-anchor="middle" x="2560" y="-353.5" font-family="Helvetica,sans-Serif" font-size="10.00">_canoe/d_a_canoe.h</text>
</a>
</g>
</g>
<!-- Node2&#45;&gt;Node221 -->
<g id="edge54" class="edge">
<title>Node2&#45;&gt;Node221</title>
<path fill="none" stroke="#63b8ff" d="M2533.23,-407.88C2539.32,-397.55 2546.24,-385.82 2551.52,-376.88"/>
<polygon fill="#63b8ff" stroke="#63b8ff" points="2530.33,-405.9 2528.26,-416.3 2536.36,-409.46 2530.33,-405.9"/>
</g>
<!-- Node222 -->
<g id="node45" class="node">
<title>Node222</title>
<g id="a_node45"><a xlink:href="d__a__cstatue_8h.html" target="_top" xlink:title=" ">
<polygon fill="white" stroke="#666666" points="2749,-376.5 2631,-376.5 2631,-346.5 2749,-346.5 2749,-376.5"/>
<text text-anchor="start" x="2639" y="-364.5" font-family="Helvetica,sans-Serif" font-size="10.00">include/rel/d/a/d_a</text>
<text text-anchor="middle" x="2690" y="-353.5" font-family="Helvetica,sans-Serif" font-size="10.00">_cstatue/d_a_cstatue.h</text>
</a>
</g>
</g>
<!-- Node2&#45;&gt;Node222 -->
<g id="edge55" class="edge">
<title>Node2&#45;&gt;Node222</title>
<path fill="none" stroke="#63b8ff" d="M2564.84,-413.37C2593.03,-401.91 2628.6,-387.45 2654.61,-376.88"/>
<polygon fill="#63b8ff" stroke="#63b8ff" points="2563.78,-410.02 2555.83,-417.03 2566.42,-416.51 2563.78,-410.02"/>
</g>
<!-- Node223 -->
<g id="node46" class="node">
<title>Node223</title>
<g id="a_node46"><a xlink:href="d__a__horse_8h.html" target="_top" xlink:title=" ">
<polygon fill="white" stroke="#666666" points="2565.5,-228 2464.5,-228 2464.5,-198 2565.5,-198 2565.5,-228"/>
<text text-anchor="start" x="2472.5" y="-216" font-family="Helvetica,sans-Serif" font-size="10.00">include/rel/d/a/d_a</text>
<text text-anchor="middle" x="2515" y="-205" font-family="Helvetica,sans-Serif" font-size="10.00">_horse/d_a_horse.h</text>
</a>
</g>
</g>
<!-- Node2&#45;&gt;Node223 -->
<g id="edge56" class="edge">
<title>Node2&#45;&gt;Node223</title>
<path fill="none" stroke="#63b8ff" d="M2506.34,-407.3C2502.93,-399.42 2499.72,-390.53 2498,-382 2492.09,-352.69 2506.4,-263.41 2512.45,-228.35"/>
<polygon fill="#63b8ff" stroke="#63b8ff" points="2503.11,-408.66 2510.51,-416.24 2509.46,-405.7 2503.11,-408.66"/>
</g>
<!-- Node224 -->
<g id="node48" class="node">
<title>Node224</title>
<g id="a_node48"><a xlink:href="d__a__obj__suisya_8h.html" target="_top" xlink:title=" ">
<polygon fill="white" stroke="#666666" points="2910.5,-382 2805.5,-382 2805.5,-341 2910.5,-341 2910.5,-382"/>
<text text-anchor="start" x="2813.5" y="-370" font-family="Helvetica,sans-Serif" font-size="10.00">include/rel/d/a/obj</text>
<text text-anchor="start" x="2813.5" y="-359" font-family="Helvetica,sans-Serif" font-size="10.00">/d_a_obj_suisya/d_a</text>
<text text-anchor="middle" x="2858" y="-348" font-family="Helvetica,sans-Serif" font-size="10.00">_obj_suisya.h</text>
</a>
</g>
</g>
<!-- Node2&#45;&gt;Node224 -->
<g id="edge63" class="edge">
<title>Node2&#45;&gt;Node224</title>
<path fill="none" stroke="#63b8ff" d="M2582.26,-417.64C2675.24,-399.61 2701.73,-402.54 2791,-382 2795.6,-380.94 2800.36,-379.75 2805.12,-378.5"/>
<polygon fill="#63b8ff" stroke="#63b8ff" points="2581.82,-414.15 2572.69,-419.52 2583.17,-421.02 2581.82,-414.15"/>
</g>
<!-- Node225 -->
<g id="node49" class="node">
<title>Node225</title>
<g id="a_node49"><a xlink:href="d__bg__s__acch_8cpp.html" target="_top" xlink:title=" ">
<polygon fill="white" stroke="#666666" points="3059.5,-371 2928.5,-371 2928.5,-352 3059.5,-352 3059.5,-371"/>
<text text-anchor="middle" x="2994" y="-359" font-family="Helvetica,sans-Serif" font-size="10.00">src/d/bg/d_bg_s_acch.cpp</text>
</a>
</g>
</g>
<!-- Node2&#45;&gt;Node225 -->
<g id="edge64" class="edge">
<title>Node2&#45;&gt;Node225</title>
<path fill="none" stroke="#63b8ff" d="M2582.44,-417.73C2731.84,-393.71 2774.05,-408.8 2920,-382 2934.77,-379.29 2950.91,-375.17 2964.35,-371.42"/>
<polygon fill="#63b8ff" stroke="#63b8ff" points="2582.29,-414.21 2572.99,-419.29 2583.42,-421.12 2582.29,-414.21"/>
</g>
<!-- Node4 -->
<g id="node4" class="node">
<title>Node4</title>
<g id="a_node4"><a xlink:href="d__a__alink_8cpp.html" target="_top" xlink:title=" ">
<polygon fill="white" stroke="#666666" points="2508.5,-19 2399.5,-19 2399.5,0 2508.5,0 2508.5,-19"/>
<text text-anchor="middle" x="2454" y="-7" font-family="Helvetica,sans-Serif" font-size="10.00">src/d/a/d_a_alink.cpp</text>
</a>
</g>
</g>
<!-- Node3&#45;&gt;Node4 -->
<g id="edge3" class="edge">
<title>Node3&#45;&gt;Node4</title>
<path fill="none" stroke="#63b8ff" d="M613.1,-194.13C599.11,-173.87 582.09,-141.04 601,-121 734.89,20.91 2159.39,-32.93 2354,-19 2368.6,-17.96 2384.38,-16.68 2399,-15.44"/>
<polygon fill="#63b8ff" stroke="#63b8ff" points="610.12,-195.99 618.85,-201.99 615.76,-191.85 610.12,-195.99"/>
</g>
<!-- Node5 -->
<g id="node5" class="node">
<title>Node5</title>
<g id="a_node5"><a xlink:href="d__a__player_8cpp.html" target="_top" xlink:title=" ">
<polygon fill="white" stroke="#666666" points="114,-151 0,-151 0,-132 114,-132 114,-151"/>
<text text-anchor="middle" x="57" y="-139" font-family="Helvetica,sans-Serif" font-size="10.00">src/d/a/d_a_player.cpp</text>
</a>
</g>
</g>
<!-- Node3&#45;&gt;Node5 -->
<g id="edge4" class="edge">
<title>Node3&#45;&gt;Node5</title>
<path fill="none" stroke="#63b8ff" d="M557.45,-209.24C459.68,-204.43 276.36,-191.98 123,-162 109.63,-159.39 95.08,-155.23 83.05,-151.43"/>
<polygon fill="#63b8ff" stroke="#63b8ff" points="556.99,-212.73 567.15,-209.71 557.33,-205.73 556.99,-212.73"/>
</g>
<!-- Node6 -->
<g id="node6" class="node">
<title>Node6</title>
<g id="a_node6"><a xlink:href="d__com__inf__game_8cpp.html" target="_top" xlink:title=" ">
<polygon fill="white" stroke="#666666" points="995,-156.5 887,-156.5 887,-126.5 995,-126.5 995,-156.5"/>
<text text-anchor="start" x="895" y="-144.5" font-family="Helvetica,sans-Serif" font-size="10.00">src/d/com/d_com_inf</text>
<text text-anchor="middle" x="941" y="-133.5" font-family="Helvetica,sans-Serif" font-size="10.00">_game.cpp</text>
</a>
</g>
</g>
<!-- Node3&#45;&gt;Node6 -->
<g id="edge5" class="edge">
<title>Node3&#45;&gt;Node6</title>
<path fill="none" stroke="#63b8ff" d="M690.65,-201.06C741.41,-191.9 814.15,-177.82 877,-162 883.08,-160.47 889.45,-158.72 895.7,-156.9"/>
<polygon fill="#63b8ff" stroke="#63b8ff" points="690.24,-197.57 681.02,-202.78 691.48,-204.46 690.24,-197.57"/>
</g>
<!-- Node7 -->
<g id="node7" class="node">
<title>Node7</title>
<g id="a_node7"><a xlink:href="d__camera_8cpp.html" target="_top" xlink:title=" ">
<polygon fill="white" stroke="#666666" points="1115,-151 1013,-151 1013,-132 1115,-132 1115,-151"/>
<text text-anchor="middle" x="1064" y="-139" font-family="Helvetica,sans-Serif" font-size="10.00">src/d/d_camera.cpp</text>
</a>
</g>
</g>
<!-- Node3&#45;&gt;Node7 -->
<g id="edge6" class="edge">
<title>Node3&#45;&gt;Node7</title>
<path fill="none" stroke="#63b8ff" d="M696.72,-206.59C772.9,-199.79 898.2,-186 1004,-162 1015.96,-159.29 1028.94,-155.21 1039.76,-151.49"/>
<polygon fill="#63b8ff" stroke="#63b8ff" points="696.55,-203.09 686.89,-207.45 697.16,-210.06 696.55,-203.09"/>
</g>
<!-- Node8 -->
<g id="node8" class="node">
<title>Node8</title>
<g id="a_node8"><a xlink:href="d__event_8cpp.html" target="_top" xlink:title=" ">
<polygon fill="white" stroke="#666666" points="731.5,-151 610.5,-151 610.5,-132 731.5,-132 731.5,-151"/>
<text text-anchor="middle" x="671" y="-139" font-family="Helvetica,sans-Serif" font-size="10.00">src/d/event/d_event.cpp</text>
</a>
</g>
</g>
<!-- Node3&#45;&gt;Node8 -->
<g id="edge7" class="edge">
<title>Node3&#45;&gt;Node8</title>
<path fill="none" stroke="#63b8ff" d="M638.5,-193.84C647.13,-180.2 658.58,-162.11 665.33,-151.45"/>
<polygon fill="#63b8ff" stroke="#63b8ff" points="635.77,-191.6 633.38,-201.92 641.69,-195.34 635.77,-191.6"/>
</g>
<!-- Node9 -->
<g id="node9" class="node">
<title>Node9</title>
<g id="a_node9"><a xlink:href="d__menu__ring_8cpp.html" target="_top" xlink:title=" ">
<polygon fill="white" stroke="#666666" points="274,-151 132,-151 132,-132 274,-132 274,-151"/>
<text text-anchor="middle" x="203" y="-139" font-family="Helvetica,sans-Serif" font-size="10.00">src/d/menu/d_menu_ring.cpp</text>
</a>
</g>
</g>
<!-- Node3&#45;&gt;Node9 -->
<g id="edge8" class="edge">
<title>Node3&#45;&gt;Node9</title>
<path fill="none" stroke="#63b8ff" d="M557.33,-203.84C487.61,-195.21 377.42,-180.33 283,-162 267.7,-159.03 250.93,-155.06 236.71,-151.47"/>
<polygon fill="#63b8ff" stroke="#63b8ff" points="556.74,-207.29 567.09,-205.04 557.59,-200.35 556.74,-207.29"/>
</g>
<!-- Node10 -->
<g id="node10" class="node">
<title>Node10</title>
<g id="a_node10"><a xlink:href="d__meter2__draw_8cpp.html" target="_top" xlink:title=" ">
<polygon fill="white" stroke="#666666" points="402,-156.5 292,-156.5 292,-126.5 402,-126.5 402,-156.5"/>
<text text-anchor="start" x="300" y="-144.5" font-family="Helvetica,sans-Serif" font-size="10.00">src/d/meter/d_meter2</text>
<text text-anchor="middle" x="347" y="-133.5" font-family="Helvetica,sans-Serif" font-size="10.00">_draw.cpp</text>
</a>
</g>
</g>
<!-- Node3&#45;&gt;Node10 -->
<g id="edge9" class="edge">
<title>Node3&#45;&gt;Node10</title>
<path fill="none" stroke="#63b8ff" d="M573.58,-200.7C529.72,-191.16 466.07,-176.74 411,-162 405.17,-160.44 399.06,-158.71 393.04,-156.94"/>
<polygon fill="#63b8ff" stroke="#63b8ff" points="572.58,-204.06 583.09,-202.76 574.06,-197.22 572.58,-204.06"/>
</g>
<!-- Node11 -->
<g id="node11" class="node">
<title>Node11</title>
<g id="a_node11"><a xlink:href="d__msg__flow_8cpp.html" target="_top" xlink:title=" ">
<polygon fill="white" stroke="#666666" points="553.5,-151 420.5,-151 420.5,-132 553.5,-132 553.5,-151"/>
<text text-anchor="middle" x="487" y="-139" font-family="Helvetica,sans-Serif" font-size="10.00">src/d/msg/d_msg_flow.cpp</text>
</a>
</g>
</g>
<!-- Node3&#45;&gt;Node11 -->
<g id="edge10" class="edge">
<title>Node3&#45;&gt;Node11</title>
<path fill="none" stroke="#63b8ff" d="M599.01,-198.11C571,-184.2 528.75,-163.22 504.95,-151.41"/>
<polygon fill="#63b8ff" stroke="#63b8ff" points="597.12,-201.07 607.63,-202.38 600.23,-194.8 597.12,-201.07"/>
</g>
<!-- Node12 -->
<g id="node12" class="node">
<title>Node12</title>
<g id="a_node12"><a xlink:href="f__op__actor_8cpp.html" target="_top" xlink:title=" ">
<polygon fill="white" stroke="#666666" points="868.5,-151 749.5,-151 749.5,-132 868.5,-132 868.5,-151"/>
<text text-anchor="middle" x="809" y="-139" font-family="Helvetica,sans-Serif" font-size="10.00">src/f_op/f_op_actor.cpp</text>
</a>
</g>
</g>
<!-- Node3&#45;&gt;Node12 -->
<g id="edge11" class="edge">
<title>Node3&#45;&gt;Node12</title>
<path fill="none" stroke="#63b8ff" d="M661,-199.02C697.36,-185.13 754.05,-163.49 785.67,-151.41"/>
<polygon fill="#63b8ff" stroke="#63b8ff" points="659.93,-195.68 651.83,-202.52 662.43,-202.22 659.93,-195.68"/>
</g>
<!-- Node14 -->
<g id="node14" class="node">
<title>Node14</title>
<g id="a_node14"><a xlink:href="d__a__item__static_8h.html" target="_top" xlink:title=" ">
<polygon fill="white" stroke="#666666" points="1731.5,-299.5 1624.5,-299.5 1624.5,-269.5 1731.5,-269.5 1731.5,-299.5"/>
<text text-anchor="start" x="1632.5" y="-287.5" font-family="Helvetica,sans-Serif" font-size="10.00">include/d/a/d_a_item</text>
<text text-anchor="middle" x="1678" y="-276.5" font-family="Helvetica,sans-Serif" font-size="10.00">_static.h</text>
</a>
</g>
</g>
<!-- Node13&#45;&gt;Node14 -->
<g id="edge13" class="edge">
<title>Node13&#45;&gt;Node14</title>
<path fill="none" stroke="#63b8ff" d="M1916.05,-348.59C1866.06,-335.34 1785.34,-313.95 1731.97,-299.8"/>
<polygon fill="#63b8ff" stroke="#63b8ff" points="1915.12,-351.96 1925.68,-351.14 1916.91,-345.19 1915.12,-351.96"/>
</g>
<!-- Node19 -->
<g id="node19" class="node">
<title>Node19</title>
<g id="a_node19"><a xlink:href="d__a__shop__item__static_8h.html" target="_top" xlink:title=" ">
<polygon fill="white" stroke="#666666" points="2143.5,-299.5 2034.5,-299.5 2034.5,-269.5 2143.5,-269.5 2143.5,-299.5"/>
<text text-anchor="start" x="2042.5" y="-287.5" font-family="Helvetica,sans-Serif" font-size="10.00">include/d/a/d_a_shop</text>
<text text-anchor="middle" x="2089" y="-276.5" font-family="Helvetica,sans-Serif" font-size="10.00">_item_static.h</text>
</a>
</g>
</g>
<!-- Node13&#45;&gt;Node19 -->
<g id="edge18" class="edge">
<title>Node13&#45;&gt;Node19</title>
<path fill="none" stroke="#63b8ff" d="M1986.11,-345.79C2008.86,-332.46 2042.15,-312.95 2064.65,-299.77"/>
<polygon fill="#63b8ff" stroke="#63b8ff" points="1984.35,-342.76 1977.49,-350.84 1987.89,-348.8 1984.35,-342.76"/>
</g>
<!-- Node23 -->
<g id="node23" class="node">
<title>Node23</title>
<g id="a_node23"><a xlink:href="d__event_8h.html" target="_top" xlink:title=" ">
<polygon fill="white" stroke="#666666" points="1476,-294 1348,-294 1348,-275 1476,-275 1476,-294"/>
<text text-anchor="middle" x="1412" y="-282" font-family="Helvetica,sans-Serif" font-size="10.00">include/d/event/d_event.h</text>
</a>
</g>
</g>
<!-- Node13&#45;&gt;Node23 -->
<g id="edge22" class="edge">
<title>Node13&#45;&gt;Node23</title>
<path fill="none" stroke="#63b8ff" d="M1884.1,-350C1775.23,-335.12 1578.12,-308.19 1476.48,-294.31"/>
<polygon fill="#63b8ff" stroke="#63b8ff" points="1883.44,-353.44 1893.82,-351.32 1884.39,-346.5 1883.44,-353.44"/>
</g>
<!-- Node151 -->
<g id="node37" class="node">
<title>Node151</title>
<g id="a_node37"><a xlink:href="d__a__itembase_8cpp.html" target="_top" xlink:title=" ">
<polygon fill="white" stroke="#666666" points="2088,-151 1960,-151 1960,-132 2088,-132 2088,-151"/>
<text text-anchor="middle" x="2024" y="-139" font-family="Helvetica,sans-Serif" font-size="10.00">src/d/a/d_a_itembase.cpp</text>
</a>
</g>
</g>
<!-- Node13&#45;&gt;Node151 -->
<g id="edge47" class="edge">
<title>Node13&#45;&gt;Node151</title>
<path fill="none" stroke="#63b8ff" d="M2040.24,-356.44C2124.12,-347.31 2251.97,-318.39 2308,-228 2382.85,-107.24 2336.57,-214.32 2097,-162 2083.16,-158.98 2068,-155.03 2055.11,-151.49"/>
<polygon fill="#63b8ff" stroke="#63b8ff" points="2040.07,-352.94 2030.47,-357.43 2040.77,-359.91 2040.07,-352.94"/>
</g>
<!-- Node216 -->
<g id="node39" class="node">
<title>Node216</title>
<g id="a_node39"><a xlink:href="d__a__obj__kantera_8h.html" target="_top" xlink:title=" ">
<polygon fill="white" stroke="#666666" points="1888,-305 1778,-305 1778,-264 1888,-264 1888,-305"/>
<text text-anchor="start" x="1786" y="-293" font-family="Helvetica,sans-Serif" font-size="10.00">include/rel/d/a/obj</text>
<text text-anchor="start" x="1786" y="-282" font-family="Helvetica,sans-Serif" font-size="10.00">/d_a_obj_kantera/d_a</text>
<text text-anchor="middle" x="1833" y="-271" font-family="Helvetica,sans-Serif" font-size="10.00">_obj_kantera.h</text>
</a>
</g>
</g>
<!-- Node13&#45;&gt;Node216 -->
<g id="edge46" class="edge">
<title>Node13&#45;&gt;Node216</title>
<path fill="none" stroke="#63b8ff" d="M1936.04,-345.87C1916.32,-334.32 1888.6,-318.08 1866.88,-305.35"/>
<polygon fill="#63b8ff" stroke="#63b8ff" points="1934.11,-348.8 1944.51,-350.84 1937.65,-342.76 1934.11,-348.8"/>
</g>
<!-- Node217 -->
<g id="node40" class="node">
<title>Node217</title>
<g id="a_node40"><a xlink:href="d__a__itembase__static_8cpp.html" target="_top" xlink:title=" ">
<polygon fill="white" stroke="#666666" points="2016,-299.5 1906,-299.5 1906,-269.5 2016,-269.5 2016,-299.5"/>
<text text-anchor="start" x="1914" y="-287.5" font-family="Helvetica,sans-Serif" font-size="10.00">src/d/a/d_a_itembase</text>
<text text-anchor="middle" x="1961" y="-276.5" font-family="Helvetica,sans-Serif" font-size="10.00">_static.cpp</text>
</a>
</g>
</g>
<!-- Node13&#45;&gt;Node217 -->
<g id="edge48" class="edge">
<title>Node13&#45;&gt;Node217</title>
<path fill="none" stroke="#63b8ff" d="M1961,-340.25C1961,-327.45 1961,-311.22 1961,-299.77"/>
<polygon fill="#63b8ff" stroke="#63b8ff" points="1957.5,-340.09 1961,-350.09 1964.5,-340.09 1957.5,-340.09"/>
</g>
<!-- Node15 -->
<g id="node15" class="node">
<title>Node15</title>
<g id="a_node15"><a xlink:href="d__a__obj__item_8h.html" target="_top" xlink:title=" ">
<polygon fill="white" stroke="#666666" points="1700.5,-228 1599.5,-228 1599.5,-198 1700.5,-198 1700.5,-228"/>
<text text-anchor="start" x="1607.5" y="-216" font-family="Helvetica,sans-Serif" font-size="10.00">include/d/a/d_a_obj</text>
<text text-anchor="middle" x="1650" y="-205" font-family="Helvetica,sans-Serif" font-size="10.00">_item.h</text>
</a>
</g>
</g>
<!-- Node14&#45;&gt;Node15 -->
<g id="edge14" class="edge">
<title>Node14&#45;&gt;Node15</title>
<path fill="none" stroke="#63b8ff" d="M1668.02,-258.73C1663.92,-248.56 1659.32,-237.14 1655.79,-228.38"/>
<polygon fill="#63b8ff" stroke="#63b8ff" points="1664.65,-259.73 1671.63,-267.7 1671.14,-257.11 1664.65,-259.73"/>
</g>
<!-- Node17 -->
<g id="node17" class="node">
<title>Node17</title>
<g id="a_node17"><a xlink:href="d__a__do_8h.html" target="_top" xlink:title=" ">
<polygon fill="white" stroke="#666666" points="1581,-228 1485,-228 1485,-198 1581,-198 1581,-228"/>
<text text-anchor="start" x="1493" y="-216" font-family="Helvetica,sans-Serif" font-size="10.00">include/rel/d/a/d_a</text>
<text text-anchor="middle" x="1533" y="-205" font-family="Helvetica,sans-Serif" font-size="10.00">_do/d_a_do.h</text>
</a>
</g>
</g>
<!-- Node14&#45;&gt;Node17 -->
<g id="edge16" class="edge">
<title>Node14&#45;&gt;Node17</title>
<path fill="none" stroke="#63b8ff" d="M1637.86,-264.26C1614.17,-252.91 1584.67,-238.77 1563.01,-228.38"/>
<polygon fill="#63b8ff" stroke="#63b8ff" points="1636.06,-267.28 1646.59,-268.45 1639.09,-260.97 1636.06,-267.28"/>
</g>
<!-- Node18 -->
<g id="node18" class="node">
<title>Node18</title>
<g id="a_node18"><a xlink:href="d__a__item__static_8cpp.html" target="_top" xlink:title=" ">
<polygon fill="white" stroke="#666666" points="1855.5,-222.5 1718.5,-222.5 1718.5,-203.5 1855.5,-203.5 1855.5,-222.5"/>
<text text-anchor="middle" x="1787" y="-210.5" font-family="Helvetica,sans-Serif" font-size="10.00">src/d/a/d_a_item_static.cpp</text>
</a>
</g>
</g>
<!-- Node14&#45;&gt;Node18 -->
<g id="edge17" class="edge">
<title>Node14&#45;&gt;Node18</title>
<path fill="none" stroke="#63b8ff" d="M1710.06,-263.06C1731,-249.71 1757.28,-232.95 1773.08,-222.88"/>
<polygon fill="#63b8ff" stroke="#63b8ff" points="1708.41,-259.96 1701.86,-268.29 1712.17,-265.86 1708.41,-259.96"/>
</g>
<!-- Node16 -->
<g id="node16" class="node">
<title>Node16</title>
<g id="a_node16"><a xlink:href="d__a__obj__item_8cpp.html" target="_top" xlink:title=" ">
<polygon fill="white" stroke="#666666" points="1941.5,-151 1816.5,-151 1816.5,-132 1941.5,-132 1941.5,-151"/>
<text text-anchor="middle" x="1879" y="-139" font-family="Helvetica,sans-Serif" font-size="10.00">src/d/a/d_a_obj_item.cpp</text>
</a>
</g>
</g>
<!-- Node15&#45;&gt;Node16 -->
<g id="edge15" class="edge">
<title>Node15&#45;&gt;Node16</title>
<path fill="none" stroke="#63b8ff" d="M1708.54,-194.23C1753.6,-180.56 1814.01,-162.23 1849.49,-151.46"/>
<polygon fill="#63b8ff" stroke="#63b8ff" points="1707.73,-190.82 1699.18,-197.08 1709.76,-197.52 1707.73,-190.82"/>
</g>
<!-- Node20 -->
<g id="node20" class="node">
<title>Node20</title>
<g id="a_node20"><a xlink:href="d__a__shop__item__static_8cpp.html" target="_top" xlink:title=" ">
<polygon fill="white" stroke="#666666" points="2299,-228 2183,-228 2183,-198 2299,-198 2299,-228"/>
<text text-anchor="start" x="2191" y="-216" font-family="Helvetica,sans-Serif" font-size="10.00">src/d/a/d_a_shop_item</text>
<text text-anchor="middle" x="2241" y="-205" font-family="Helvetica,sans-Serif" font-size="10.00">_static.cpp</text>
</a>
</g>
</g>
<!-- Node19&#45;&gt;Node20 -->
<g id="edge19" class="edge">
<title>Node19&#45;&gt;Node20</title>
<path fill="none" stroke="#63b8ff" d="M2130.74,-264.41C2155.63,-253.03 2186.73,-238.81 2209.55,-228.38"/>
<polygon fill="#63b8ff" stroke="#63b8ff" points="2129.51,-261.13 2121.87,-268.47 2132.42,-267.49 2129.51,-261.13"/>
</g>
<!-- Node21 -->
<g id="node21" class="node">
<title>Node21</title>
<g id="a_node21"><a xlink:href="d__shop__item__ctrl_8cpp.html" target="_top" xlink:title=" ">
<polygon fill="white" stroke="#666666" points="1994.5,-228 1873.5,-228 1873.5,-198 1994.5,-198 1994.5,-228"/>
<text text-anchor="start" x="1881.5" y="-216" font-family="Helvetica,sans-Serif" font-size="10.00">src/d/shop/d_shop_item</text>
<text text-anchor="middle" x="1934" y="-205" font-family="Helvetica,sans-Serif" font-size="10.00">_ctrl.cpp</text>
</a>
</g>
</g>
<!-- Node19&#45;&gt;Node21 -->
<g id="edge20" class="edge">
<title>Node19&#45;&gt;Node21</title>
<path fill="none" stroke="#63b8ff" d="M2046.43,-264.41C2021.05,-253.03 1989.34,-238.81 1966.07,-228.38"/>
<polygon fill="#63b8ff" stroke="#63b8ff" points="2044.95,-267.58 2055.5,-268.48 2047.81,-261.2 2044.95,-267.58"/>
</g>
<!-- Node22 -->
<g id="node22" class="node">
<title>Node22</title>
<g id="a_node22"><a xlink:href="d__shop__system_8cpp.html" target="_top" xlink:title=" ">
<polygon fill="white" stroke="#666666" points="2165,-222.5 2013,-222.5 2013,-203.5 2165,-203.5 2165,-222.5"/>
<text text-anchor="middle" x="2089" y="-210.5" font-family="Helvetica,sans-Serif" font-size="10.00">src/d/shop/d_shop_system.cpp</text>
</a>
</g>
</g>
<!-- Node19&#45;&gt;Node22 -->
<g id="edge21" class="edge">
<title>Node19&#45;&gt;Node22</title>
<path fill="none" stroke="#63b8ff" d="M2089,-257.96C2089,-245.57 2089,-231.49 2089,-222.68"/>
<polygon fill="#63b8ff" stroke="#63b8ff" points="2085.5,-257.59 2089,-267.59 2092.5,-257.59 2085.5,-257.59"/>
</g>
<!-- Node23&#45;&gt;Node8 -->
<g id="edge45" class="edge">
<title>Node23&#45;&gt;Node8</title>
<path fill="none" stroke="#63b8ff" d="M1340.21,-272.85C1216.79,-254.03 956.75,-212.1 740,-162 726.9,-158.97 712.57,-155.03 700.39,-151.48"/>
<polygon fill="#63b8ff" stroke="#63b8ff" points="1339.45,-276.28 1349.87,-274.32 1340.51,-269.36 1339.45,-276.28"/>
</g>
<!-- Node24 -->
<g id="node24" class="node">
<title>Node24</title>
<g id="a_node24"><a xlink:href="d__com__inf__game_8h.html" target="_top" xlink:title=" ">
<polygon fill="#fff0f0" stroke="red" points="1467,-228 1357,-228 1357,-198 1467,-198 1467,-228"/>
<text text-anchor="start" x="1365" y="-216" font-family="Helvetica,sans-Serif" font-size="10.00">include/d/com/d_com</text>
<text text-anchor="middle" x="1412" y="-205" font-family="Helvetica,sans-Serif" font-size="10.00">_inf_game.h</text>
</a>
</g>
</g>
<!-- Node23&#45;&gt;Node24 -->
<g id="edge23" class="edge">
<title>Node23&#45;&gt;Node24</title>
<path fill="none" stroke="#63b8ff" d="M1412,-263.39C1412,-252.15 1412,-238.41 1412,-228.27"/>
<polygon fill="#63b8ff" stroke="#63b8ff" points="1408.5,-263.18 1412,-273.18 1415.5,-263.18 1408.5,-263.18"/>
</g>
<!-- Node24&#45;&gt;Node6 -->
<g id="edge41" class="edge">
<title>Node24&#45;&gt;Node6</title>
<path fill="none" stroke="#63b8ff" d="M1345.65,-207.52C1264.42,-201.2 1122.96,-187.49 1004,-162 997.51,-160.61 990.72,-158.85 984.11,-156.95"/>
<polygon fill="#63b8ff" stroke="#63b8ff" points="1344.96,-210.98 1355.2,-208.25 1345.49,-204 1344.96,-210.98"/>
</g>
<!-- Node24&#45;&gt;Node7 -->
<g id="edge42" class="edge">
<title>Node24&#45;&gt;Node7</title>
<path fill="none" stroke="#63b8ff" d="M1345.21,-203.01C1286.69,-194.51 1199.59,-180.33 1125,-162 1113.12,-159.08 1100.19,-155.07 1089.3,-151.45"/>
<polygon fill="#63b8ff" stroke="#63b8ff" points="1344.62,-206.46 1355.02,-204.42 1345.62,-199.53 1344.62,-206.46"/>
</g>
<!-- Node24&#45;&gt;Node12 -->
<g id="edge44" class="edge">
<title>Node24&#45;&gt;Node12</title>
<path fill="none" stroke="#63b8ff" d="M1345.27,-209.65C1243.66,-205.2 1044.36,-193.03 878,-162 864.05,-159.4 848.84,-155.25 836.26,-151.44"/>
<polygon fill="#63b8ff" stroke="#63b8ff" points="1344.93,-213.14 1355.07,-210.07 1345.22,-206.15 1344.93,-213.14"/>
</g>
<!-- Node24&#45;&gt;Node16 -->
<g id="edge39" class="edge">
<title>Node24&#45;&gt;Node16</title>
<path fill="none" stroke="#63b8ff" d="M1478.4,-197.73C1621.8,-175.03 1662.06,-187.32 1802,-162 1817.2,-159.25 1833.84,-155.17 1847.75,-151.46"/>
<polygon fill="#63b8ff" stroke="#63b8ff" points="1478.24,-194.21 1468.93,-199.26 1479.36,-201.12 1478.24,-194.21"/>
</g>
<!-- Node25 -->
<g id="node25" class="node">
<title>Node25</title>
<g id="a_node25"><a xlink:href="d__a__npc_8h.html" target="_top" xlink:title=" ">
<polygon fill="#fff0f0" stroke="red" points="1492.5,-151 1381.5,-151 1381.5,-132 1492.5,-132 1492.5,-151"/>
<text text-anchor="middle" x="1437" y="-139" font-family="Helvetica,sans-Serif" font-size="10.00">include/d/a/d_a_npc.h</text>
</a>
</g>
</g>
<!-- Node24&#45;&gt;Node25 -->
<g id="edge24" class="edge">
<title>Node24&#45;&gt;Node25</title>
<path fill="none" stroke="#63b8ff" d="M1421.05,-186.84C1425.54,-174.36 1430.68,-160.08 1433.88,-151.18"/>
<polygon fill="#63b8ff" stroke="#63b8ff" points="1417.78,-185.58 1417.69,-196.18 1424.37,-187.95 1417.78,-185.58"/>
</g>
<!-- Node31 -->
<g id="node26" class="node">
<title>Node31</title>
<g id="a_node26"><a xlink:href="d__a__npc__cd_8h.html" target="_top" xlink:title=" ">
<polygon fill="#fff0f0" stroke="red" points="1637.5,-151 1510.5,-151 1510.5,-132 1637.5,-132 1637.5,-151"/>
<text text-anchor="middle" x="1574" y="-139" font-family="Helvetica,sans-Serif" font-size="10.00">include/d/a/d_a_npc_cd.h</text>
</a>
</g>
</g>
<!-- Node24&#45;&gt;Node31 -->
<g id="edge25" class="edge">
<title>Node24&#45;&gt;Node31</title>
<path fill="none" stroke="#63b8ff" d="M1455.9,-193.17C1487.56,-179.58 1528.87,-161.86 1553.31,-151.38"/>
<polygon fill="#63b8ff" stroke="#63b8ff" points="1454.77,-189.84 1446.96,-197 1457.53,-196.28 1454.77,-189.84"/>
</g>
<!-- Node33 -->
<g id="node27" class="node">
<title>Node33</title>
<g id="a_node27"><a xlink:href="d__a__npc__cd2_8h.html" target="_top" xlink:title=" ">
<polygon fill="#fff0f0" stroke="red" points="1760,-156.5 1656,-156.5 1656,-126.5 1760,-126.5 1760,-156.5"/>
<text text-anchor="start" x="1664" y="-144.5" font-family="Helvetica,sans-Serif" font-size="10.00">include/d/a/d_a_npc</text>
<text text-anchor="middle" x="1708" y="-133.5" font-family="Helvetica,sans-Serif" font-size="10.00">_cd2.h</text>
</a>
</g>
</g>
<!-- Node24&#45;&gt;Node33 -->
<g id="edge26" class="edge">
<title>Node24&#45;&gt;Node33</title>
<path fill="none" stroke="#63b8ff" d="M1478.5,-197.5C1553.84,-181.67 1575.29,-180.96 1647,-162 1652.7,-160.49 1658.65,-158.78 1664.51,-157"/>
<polygon fill="#63b8ff" stroke="#63b8ff" points="1478.03,-194.02 1468.98,-199.52 1479.49,-200.86 1478.03,-194.02"/>
</g>
<!-- Node35 -->
<g id="node28" class="node">
<title>Node35</title>
<g id="a_node28"><a xlink:href="d__cc__uty_8h.html" target="_top" xlink:title=" ">
<polygon fill="#fff0f0" stroke="red" points="1252.5,-151 1133.5,-151 1133.5,-132 1252.5,-132 1252.5,-151"/>
<text text-anchor="middle" x="1193" y="-139" font-family="Helvetica,sans-Serif" font-size="10.00">include/d/cc/d_cc_uty.h</text>
</a>
</g>
</g>
<!-- Node24&#45;&gt;Node35 -->
<g id="edge27" class="edge">
<title>Node24&#45;&gt;Node35</title>
<path fill="none" stroke="#63b8ff" d="M1355.47,-194.06C1312.43,-180.4 1255.01,-162.18 1221.22,-151.46"/>
<polygon fill="#63b8ff" stroke="#63b8ff" points="1354.32,-197.37 1364.91,-197.06 1356.44,-190.7 1354.32,-197.37"/>
</g>
<!-- Node45 -->
<g id="node31" class="node">
<title>Node45</title>
<g id="a_node31"><a xlink:href="d__bright__check_8h.html" target="_top" xlink:title=" ">
<polygon fill="#fff0f0" stroke="red" points="1363.5,-156.5 1270.5,-156.5 1270.5,-126.5 1363.5,-126.5 1363.5,-156.5"/>
<text text-anchor="start" x="1278.5" y="-144.5" font-family="Helvetica,sans-Serif" font-size="10.00">include/d/d_bright</text>
<text text-anchor="middle" x="1317" y="-133.5" font-family="Helvetica,sans-Serif" font-size="10.00">_check.h</text>
</a>
</g>
</g>
<!-- Node24&#45;&gt;Node45 -->
<g id="edge31" class="edge">
<title>Node24&#45;&gt;Node45</title>
<path fill="none" stroke="#63b8ff" d="M1383.38,-191.06C1368.29,-180.02 1350.16,-166.76 1336.66,-156.88"/>
<polygon fill="#63b8ff" stroke="#63b8ff" points="1380.96,-193.63 1391.09,-196.71 1385.09,-187.98 1380.96,-193.63"/>
</g>
<!-- Node98 -->
<g id="node32" class="node">
<title>Node98</title>
<g id="a_node32"><a xlink:href="d__a__obj__bombf_8h.html" target="_top" xlink:title=" ">
<polygon fill="white" stroke="#666666" points="2228,-162 2106,-162 2106,-121 2228,-121 2228,-162"/>
<text text-anchor="start" x="2114" y="-150" font-family="Helvetica,sans-Serif" font-size="10.00">include/rel/d/a/obj</text>
<text text-anchor="start" x="2114" y="-139" font-family="Helvetica,sans-Serif" font-size="10.00">/d_a_obj_bombf/d_a_obj</text>
<text text-anchor="middle" x="2167" y="-128" font-family="Helvetica,sans-Serif" font-size="10.00">_bombf.h</text>
</a>
</g>
</g>
<!-- Node24&#45;&gt;Node98 -->
<g id="edge32" class="edge">
<title>Node24&#45;&gt;Node98</title>
<path fill="none" stroke="#63b8ff" d="M1478.47,-197.82C1751.88,-161.57 1827.88,-206.76 2097,-162 2099.86,-161.52 2102.78,-160.98 2105.71,-160.37"/>
<polygon fill="#63b8ff" stroke="#63b8ff" points="1478.35,-194.31 1468.91,-199.12 1479.29,-201.25 1478.35,-194.31"/>
</g>
<!-- Node24&#45;&gt;Node99 -->
<g id="edge33" class="edge">
<title>Node24&#45;&gt;Node99</title>
<path fill="none" stroke="#63b8ff" d="M1478.75,-197.83C1928.06,-142.46 2048.84,-211.14 2496,-162 2511.2,-160.33 2527.51,-157.71 2542.64,-154.93"/>
<polygon fill="#63b8ff" stroke="#63b8ff" points="1478.39,-194.34 1468.9,-199.06 1479.26,-201.29 1478.39,-194.34"/>
</g>
<!-- Node100 -->
<g id="node35" class="node">
<title>Node100</title>
<g id="a_node35"><a xlink:href="d__save_8cpp.html" target="_top" xlink:title=" ">
<polygon fill="white" stroke="#666666" points="2462.5,-79.5 2347.5,-79.5 2347.5,-60.5 2462.5,-60.5 2462.5,-79.5"/>
<text text-anchor="middle" x="2405" y="-67.5" font-family="Helvetica,sans-Serif" font-size="10.00">src/d/save/d_save.cpp</text>
</a>
</g>
</g>
<!-- Node24&#45;&gt;Node100 -->
<g id="edge43" class="edge">
<title>Node24&#45;&gt;Node100</title>
<path fill="none" stroke="#63b8ff" d="M1478.55,-197.76C1607.93,-178.34 1655.01,-219.38 1769,-162 1791.46,-150.69 1785.24,-131.69 1808,-121 1914.85,-70.81 2221.06,-101.11 2338,-85 2347.3,-83.72 2357.24,-81.9 2366.54,-79.99"/>
<polygon fill="#63b8ff" stroke="#63b8ff" points="1478.25,-194.26 1468.94,-199.3 1479.36,-201.17 1478.25,-194.26"/>
</g>
<!-- Node129 -->
<g id="node36" class="node">
<title>Node129</title>
<g id="a_node36"><a xlink:href="d__a__tag__hinit_8h.html" target="_top" xlink:title=" ">
<polygon fill="white" stroke="#666666" points="2486.5,-162 2371.5,-162 2371.5,-121 2486.5,-121 2486.5,-162"/>
<text text-anchor="start" x="2379.5" y="-150" font-family="Helvetica,sans-Serif" font-size="10.00">include/rel/d/a/tag</text>
<text text-anchor="start" x="2379.5" y="-139" font-family="Helvetica,sans-Serif" font-size="10.00">/d_a_tag_hinit/d_a_tag</text>
<text text-anchor="middle" x="2429" y="-128" font-family="Helvetica,sans-Serif" font-size="10.00">_hinit.h</text>
</a>
</g>
</g>
<!-- Node24&#45;&gt;Node129 -->
<g id="edge37" class="edge">
<title>Node24&#45;&gt;Node129</title>
<path fill="none" stroke="#63b8ff" d="M1478.74,-197.82C1869.37,-149.14 1977.45,-225.77 2363,-162 2365.71,-161.55 2368.47,-161.03 2371.24,-160.44"/>
<polygon fill="#63b8ff" stroke="#63b8ff" points="1478.38,-194.34 1468.9,-199.07 1479.26,-201.28 1478.38,-194.34"/>
</g>
<!-- Node24&#45;&gt;Node151 -->
<g id="edge38" class="edge">
<title>Node24&#45;&gt;Node151</title>
<path fill="none" stroke="#63b8ff" d="M1478.77,-197.75C1687.52,-168.34 1745.95,-196.85 1951,-162 1965.87,-159.47 1982.11,-155.28 1995.49,-151.43"/>
<polygon fill="#63b8ff" stroke="#63b8ff" points="1478.31,-194.28 1468.91,-199.17 1479.31,-201.2 1478.31,-194.28"/>
</g>
<!-- Node155 -->
<g id="node38" class="node">
<title>Node155</title>
<g id="a_node38"><a xlink:href="d__bg__w_8cpp.html" target="_top" xlink:title=" ">
<polygon fill="white" stroke="#666666" points="2353.5,-151 2246.5,-151 2246.5,-132 2353.5,-132 2353.5,-151"/>
<text text-anchor="middle" x="2300" y="-139" font-family="Helvetica,sans-Serif" font-size="10.00">src/d/bg/d_bg_w.cpp</text>
</a>
</g>
</g>
<!-- Node24&#45;&gt;Node155 -->
<g id="edge40" class="edge">
<title>Node24&#45;&gt;Node155</title>
<path fill="none" stroke="#63b8ff" d="M1478.41,-197.85C1813.69,-155.09 1907.08,-219.9 2237,-162 2250.19,-159.68 2264.49,-155.41 2276.12,-151.46"/>
<polygon fill="#63b8ff" stroke="#63b8ff" points="1478.37,-194.33 1468.9,-199.09 1479.27,-201.27 1478.37,-194.33"/>
</g>
<!-- Node39 -->
<g id="node29" class="node">
<title>Node39</title>
<g id="a_node29"><a xlink:href="d__a__e__wb_8h.html" target="_top" xlink:title=" ">
<polygon fill="white" stroke="#666666" points="2329,-85 2219,-85 2219,-55 2329,-55 2329,-85"/>
<text text-anchor="start" x="2227" y="-73" font-family="Helvetica,sans-Serif" font-size="10.00">include/rel/d/a/e/d</text>
<text text-anchor="middle" x="2274" y="-62" font-family="Helvetica,sans-Serif" font-size="10.00">_a_e_wb/d_a_e_wb.h</text>
</a>
</g>
</g>
<!-- Node35&#45;&gt;Node39 -->
<g id="edge28" class="edge">
<title>Node35&#45;&gt;Node39</title>
<path fill="none" stroke="#63b8ff" d="M1230.25,-128.31C1240.44,-125.44 1251.56,-122.71 1262,-121 1448.61,-90.43 2035.58,-75.94 2218.8,-72.08"/>
<polygon fill="#63b8ff" stroke="#63b8ff" points="1229.27,-124.95 1220.68,-131.15 1231.26,-131.66 1229.27,-124.95"/>
</g>
<!-- Node39&#45;&gt;Node4 -->
<g id="edge29" class="edge">
<title>Node39&#45;&gt;Node4</title>
<path fill="none" stroke="#63b8ff" d="M2329.13,-51.08C2361.39,-40.6 2400.72,-27.81 2426.52,-19.43"/>
<polygon fill="#63b8ff" stroke="#63b8ff" points="2328.36,-47.65 2319.93,-54.07 2330.53,-54.31 2328.36,-47.65"/>
</g>
<!-- Node40 -->
<g id="node30" class="node">
<title>Node40</title>
<g id="a_node30"><a xlink:href="d__a__horse__static_8cpp.html" target="_top" xlink:title=" ">
<polygon fill="white" stroke="#666666" points="2345,-19 2203,-19 2203,0 2345,0 2345,-19"/>
<text text-anchor="middle" x="2274" y="-7" font-family="Helvetica,sans-Serif" font-size="10.00">src/d/a/d_a_horse_static.cpp</text>
</a>
</g>
</g>
<!-- Node39&#45;&gt;Node40 -->
<g id="edge30" class="edge">
<title>Node39&#45;&gt;Node40</title>
<path fill="none" stroke="#63b8ff" d="M2274,-43.3C2274,-34.65 2274,-25.58 2274,-19.18"/>
<polygon fill="#63b8ff" stroke="#63b8ff" points="2270.5,-43.03 2274,-53.03 2277.5,-43.03 2270.5,-43.03"/>
</g>
<!-- Node99&#45;&gt;Node4 -->
<g id="edge34" class="edge">
<title>Node99&#45;&gt;Node4</title>
<path fill="none" stroke="#63b8ff" d="M2551.48,-114.93C2537.3,-106.42 2522.36,-96.22 2510,-85 2487.47,-64.56 2467.83,-33.96 2458.99,-19.15"/>
<polygon fill="#63b8ff" stroke="#63b8ff" points="2549.42,-117.78 2559.82,-119.78 2552.94,-111.73 2549.42,-117.78"/>
</g>
<!-- Node83 -->
<g id="node34" class="node">
<title>Node83</title>
<g id="a_node34"><a xlink:href="d__com__static_8cpp.html" target="_top" xlink:title=" ">
<polygon fill="white" stroke="#666666" points="2659,-79.5 2519,-79.5 2519,-60.5 2659,-60.5 2659,-79.5"/>
<text text-anchor="middle" x="2589" y="-67.5" font-family="Helvetica,sans-Serif" font-size="10.00">src/d/com/d_com_static.cpp</text>
</a>
</g>
</g>
<!-- Node99&#45;&gt;Node83 -->
<g id="edge35" class="edge">
<title>Node99&#45;&gt;Node83</title>
<path fill="none" stroke="#63b8ff" d="M2595.64,-109.43C2593.77,-98.63 2591.82,-87.34 2590.52,-79.82"/>
<polygon fill="#63b8ff" stroke="#63b8ff" points="2592.19,-110.02 2597.34,-119.28 2599.08,-108.83 2592.19,-110.02"/>
</g>
<!-- Node99&#45;&gt;Node100 -->
<g id="edge36" class="edge">
<title>Node99&#45;&gt;Node100</title>
<path fill="none" stroke="#63b8ff" d="M2534.42,-116.89C2498.58,-104.18 2456.47,-89.25 2430.25,-79.95"/>
<polygon fill="#63b8ff" stroke="#63b8ff" points="2532.81,-120.03 2543.41,-120.08 2535.15,-113.44 2532.81,-120.03"/>
</g>
<!-- Node218&#45;&gt;Node98 -->
<g id="edge50" class="edge">
<title>Node218&#45;&gt;Node98</title>
<path fill="none" stroke="#63b8ff" d="M2394,-341.16C2381.71,-302.66 2353,-218.41 2331,-198 2323.01,-190.59 2271.46,-173.77 2228.25,-160.58"/>
<polygon fill="#63b8ff" stroke="#63b8ff" points="2390.59,-341.98 2396.93,-350.47 2397.26,-339.88 2390.59,-341.98"/>
</g>
<!-- Node219 -->
<g id="node42" class="node">
<title>Node219</title>
<g id="a_node42"><a xlink:href="d__bomb_8cpp.html" target="_top" xlink:title=" ">
<polygon fill="white" stroke="#666666" points="2487,-294 2393,-294 2393,-275 2487,-275 2487,-294"/>
<text text-anchor="middle" x="2440" y="-282" font-family="Helvetica,sans-Serif" font-size="10.00">src/d/d_bomb.cpp</text>
</a>
</g>
</g>
<!-- Node218&#45;&gt;Node219 -->
<g id="edge51" class="edge">
<title>Node218&#45;&gt;Node219</title>
<path fill="none" stroke="#63b8ff" d="M2410,-341.76C2418.07,-326.62 2429.07,-306 2435.26,-294.39"/>
<polygon fill="#63b8ff" stroke="#63b8ff" points="2407.08,-339.8 2405.46,-350.27 2413.25,-343.09 2407.08,-339.8"/>
</g>
<!-- Node220&#45;&gt;Node5 -->
<g id="edge53" class="edge">
<title>Node220&#45;&gt;Node5</title>
<path fill="none" stroke="#63b8ff" d="M546.93,-341.76C436.31,-296.77 158.93,-183.96 78.92,-151.42"/>
<polygon fill="#63b8ff" stroke="#63b8ff" points="545.43,-344.93 556.01,-345.46 548.07,-338.45 545.43,-344.93"/>
</g>
<!-- Node223&#45;&gt;Node4 -->
<g id="edge59" class="edge">
<title>Node223&#45;&gt;Node4</title>
<path fill="none" stroke="#63b8ff" d="M2577.2,-208.48C2609.86,-203.09 2647.31,-190.53 2668,-162 2695.92,-123.5 2698.01,-91.89 2668,-55 2648.3,-30.79 2565.56,-19.32 2508.92,-14.21"/>
<polygon fill="#63b8ff" stroke="#63b8ff" points="2576.78,-205.01 2567.38,-209.89 2577.78,-211.93 2576.78,-205.01"/>
</g>
<!-- Node223&#45;&gt;Node39 -->
<g id="edge57" class="edge">
<title>Node223&#45;&gt;Node39</title>
<path fill="none" stroke="#63b8ff" d="M2516.66,-186.21C2516.49,-165.82 2512.77,-138.03 2496,-121 2494.51,-119.48 2394.52,-97.37 2329.25,-83.07"/>
<polygon fill="#63b8ff" stroke="#63b8ff" points="2513.16,-185.91 2516.43,-195.99 2520.16,-186.08 2513.16,-185.91"/>
</g>
<!-- Node223&#45;&gt;Node129 -->
<g id="edge58" class="edge">
<title>Node223&#45;&gt;Node129</title>
<path fill="none" stroke="#63b8ff" d="M2488.36,-190.47C2477.28,-181.52 2464.5,-171.19 2453.64,-162.42"/>
<polygon fill="#63b8ff" stroke="#63b8ff" points="2486.03,-193.08 2496,-196.65 2490.43,-187.64 2486.03,-193.08"/>
</g>
<!-- Node223&#45;&gt;Node155 -->
<g id="edge60" class="edge">
<title>Node223&#45;&gt;Node155</title>
<path fill="none" stroke="#63b8ff" d="M2459.5,-194.06C2417.25,-180.4 2360.88,-162.18 2327.71,-151.46"/>
<polygon fill="#63b8ff" stroke="#63b8ff" points="2458.16,-197.3 2468.75,-197.05 2460.31,-190.64 2458.16,-197.3"/>
</g>
<!-- Node63 -->
<g id="node47" class="node">
<title>Node63</title>
<g id="a_node47"><a xlink:href="d__meter2_8cpp.html" target="_top" xlink:title=" ">
<polygon fill="white" stroke="#666666" points="2843,-151 2715,-151 2715,-132 2843,-132 2843,-151"/>
<text text-anchor="middle" x="2779" y="-139" font-family="Helvetica,sans-Serif" font-size="10.00">src/d/meter/d_meter2.cpp</text>
</a>
</g>
</g>
<!-- Node223&#45;&gt;Node63 -->
<g id="edge61" class="edge">
<title>Node223&#45;&gt;Node63</title>
<path fill="none" stroke="#63b8ff" d="M2576.76,-195.74C2629.24,-181.93 2702.61,-162.61 2745.03,-151.44"/>
<polygon fill="#63b8ff" stroke="#63b8ff" points="2576.14,-192.28 2567.37,-198.21 2577.93,-199.05 2576.14,-192.28"/>
</g>
</g>
</svg>
