<?xml version="1.0" encoding="UTF-8" standalone="no"?>
<!DOCTYPE svg PUBLIC "-//W3C//DTD SVG 1.1//EN"
 "http://www.w3.org/Graphics/SVG/1.1/DTD/svg11.dtd">
<!-- Generated by graphviz version 7.0.5 (20221223.1930)
 -->
<!-- Title: include/d/cc/d_cc_d.h Pages: 1 -->
<svg width="4266pt" height="302pt"
 viewBox="0.00 0.00 4265.50 302.00" xmlns="http://www.w3.org/2000/svg" xmlns:xlink="http://www.w3.org/1999/xlink">
<g id="graph0" class="graph" transform="scale(1 1) rotate(0) translate(4 298)">
<title>include/d/cc/d_cc_d.h</title>
<!-- Node1 -->
<g id="node1" class="node">
<title>Node1</title>
<g id="a_node1"><a xlink:title=" ">
<polygon fill="#999999" stroke="#666666" points="2843.5,-294 2732.5,-294 2732.5,-275 2843.5,-275 2843.5,-294"/>
<text text-anchor="middle" x="2788" y="-282" font-family="Helvetica,sans-Serif" font-size="10.00">include/d/cc/d_cc_d.h</text>
</a>
</g>
</g>
<!-- Node2 -->
<g id="node2" class="node">
<title>Node2</title>
<g id="a_node2"><a xlink:href="d__a__alink_8h.html" target="_top" xlink:title=" ">
<polygon fill="white" stroke="#666666" points="1572,-228 1456,-228 1456,-209 1572,-209 1572,-228"/>
<text text-anchor="middle" x="1514" y="-216" font-family="Helvetica,sans-Serif" font-size="10.00">include/d/a/d_a_alink.h</text>
</a>
</g>
</g>
<!-- Node1&#45;&gt;Node2 -->
<g id="edge1" class="edge">
<title>Node1&#45;&gt;Node2</title>
<path fill="none" stroke="#63b8ff" d="M2720.83,-280.13C2497.49,-268.91 1782.11,-232.97 1572.34,-222.43"/>
<polygon fill="#63b8ff" stroke="#63b8ff" points="2720.35,-283.61 2730.52,-280.61 2720.7,-276.61 2720.35,-283.61"/>
</g>
<!-- Node12 -->
<g id="node12" class="node">
<title>Node12</title>
<g id="a_node12"><a xlink:href="d__a__item__static_8h.html" target="_top" xlink:title=" ">
<polygon fill="white" stroke="#666666" points="2223.5,-156.5 2116.5,-156.5 2116.5,-126.5 2223.5,-126.5 2223.5,-156.5"/>
<text text-anchor="start" x="2124.5" y="-144.5" font-family="Helvetica,sans-Serif" font-size="10.00">include/d/a/d_a_item</text>
<text text-anchor="middle" x="2170" y="-133.5" font-family="Helvetica,sans-Serif" font-size="10.00">_static.h</text>
</a>
</g>
</g>
<!-- Node1&#45;&gt;Node12 -->
<g id="edge11" class="edge">
<title>Node1&#45;&gt;Node12</title>
<path fill="none" stroke="#63b8ff" d="M2720.84,-283.94C2563.22,-284.27 2179.96,-280.73 2141,-239 2119.51,-215.98 2142.58,-177.63 2158.17,-156.88"/>
<polygon fill="#63b8ff" stroke="#63b8ff" points="2720.73,-287.44 2730.72,-283.91 2720.71,-280.44 2720.73,-287.44"/>
</g>
<!-- Node17 -->
<g id="node17" class="node">
<title>Node17</title>
<g id="a_node17"><a xlink:href="d__a__itembase_8h.html" target="_top" xlink:title=" ">
<polygon fill="white" stroke="#666666" points="2285.5,-228 2150.5,-228 2150.5,-209 2285.5,-209 2285.5,-228"/>
<text text-anchor="middle" x="2218" y="-216" font-family="Helvetica,sans-Serif" font-size="10.00">include/d/a/d_a_itembase.h</text>
</a>
</g>
</g>
<!-- Node1&#45;&gt;Node17 -->
<g id="edge16" class="edge">
<title>Node1&#45;&gt;Node17</title>
<path fill="none" stroke="#63b8ff" d="M2720.84,-280.89C2625.39,-276.39 2445.27,-265.04 2294,-239 2278.7,-236.37 2261.95,-232.21 2248.08,-228.41"/>
<polygon fill="#63b8ff" stroke="#63b8ff" points="2720.39,-284.37 2730.54,-281.33 2720.72,-277.38 2720.39,-284.37"/>
</g>
<!-- Node220 -->
<g id="node24" class="node">
<title>Node220</title>
<g id="a_node24"><a xlink:href="d__bomb_8h.html" target="_top" xlink:title=" ">
<polygon fill="white" stroke="#666666" points="2404.5,-228 2303.5,-228 2303.5,-209 2404.5,-209 2404.5,-228"/>
<text text-anchor="middle" x="2354" y="-216" font-family="Helvetica,sans-Serif" font-size="10.00">include/d/d_bomb.h</text>
</a>
</g>
</g>
<!-- Node1&#45;&gt;Node220 -->
<g id="edge25" class="edge">
<title>Node1&#45;&gt;Node220</title>
<path fill="none" stroke="#63b8ff" d="M2721.11,-279.5C2645.77,-274.09 2520,-262.3 2414,-239 2401.91,-236.34 2388.8,-232.23 2377.93,-228.47"/>
<polygon fill="#63b8ff" stroke="#63b8ff" points="2720.57,-282.98 2730.79,-280.18 2721.06,-275.99 2720.57,-282.98"/>
</g>
<!-- Node222 -->
<g id="node27" class="node">
<title>Node222</title>
<g id="a_node27"><a xlink:href="d__a__arrow_8h.html" target="_top" xlink:title=" ">
<polygon fill="white" stroke="#666666" points="2523.5,-233.5 2422.5,-233.5 2422.5,-203.5 2523.5,-203.5 2523.5,-233.5"/>
<text text-anchor="start" x="2430.5" y="-221.5" font-family="Helvetica,sans-Serif" font-size="10.00">include/rel/d/a/d_a</text>
<text text-anchor="middle" x="2473" y="-210.5" font-family="Helvetica,sans-Serif" font-size="10.00">_arrow/d_a_arrow.h</text>
</a>
</g>
</g>
<!-- Node1&#45;&gt;Node222 -->
<g id="edge28" class="edge">
<title>Node1&#45;&gt;Node222</title>
<path fill="none" stroke="#63b8ff" d="M2720.7,-274.41C2668.98,-266.79 2595.95,-254.64 2533,-239 2527.05,-237.52 2520.83,-235.76 2514.74,-233.9"/>
<polygon fill="#63b8ff" stroke="#63b8ff" points="2720.17,-277.87 2730.56,-275.85 2721.17,-270.94 2720.17,-277.87"/>
</g>
<!-- Node223 -->
<g id="node28" class="node">
<title>Node223</title>
<g id="a_node28"><a xlink:href="d__a__bg__obj_8h.html" target="_top" xlink:title=" ">
<polygon fill="white" stroke="#666666" points="2652,-233.5 2542,-233.5 2542,-203.5 2652,-203.5 2652,-233.5"/>
<text text-anchor="start" x="2550" y="-221.5" font-family="Helvetica,sans-Serif" font-size="10.00">include/rel/d/a/d_a</text>
<text text-anchor="middle" x="2597" y="-210.5" font-family="Helvetica,sans-Serif" font-size="10.00">_bg_obj/d_a_bg_obj.h</text>
</a>
</g>
</g>
<!-- Node1&#45;&gt;Node223 -->
<g id="edge29" class="edge">
<title>Node1&#45;&gt;Node223</title>
<path fill="none" stroke="#63b8ff" d="M2750.85,-271.05C2719.15,-260.43 2673.54,-245.15 2640.21,-233.98"/>
<polygon fill="#63b8ff" stroke="#63b8ff" points="2749.41,-274.26 2760.01,-274.12 2751.64,-267.62 2749.41,-274.26"/>
</g>
<!-- Node224 -->
<g id="node29" class="node">
<title>Node224</title>
<g id="a_node29"><a xlink:href="d__a__boomerang_8h.html" target="_top" xlink:title=" ">
<polygon fill="white" stroke="#666666" points="1317.5,-233.5 1168.5,-233.5 1168.5,-203.5 1317.5,-203.5 1317.5,-233.5"/>
<text text-anchor="start" x="1176.5" y="-221.5" font-family="Helvetica,sans-Serif" font-size="10.00">include/rel/d/a/d_a</text>
<text text-anchor="middle" x="1243" y="-210.5" font-family="Helvetica,sans-Serif" font-size="10.00">_boomerang/d_a_boomerang.h</text>
</a>
</g>
</g>
<!-- Node1&#45;&gt;Node224 -->
<g id="edge30" class="edge">
<title>Node1&#45;&gt;Node224</title>
<path fill="none" stroke="#63b8ff" d="M2720.79,-282.75C2524.49,-280.22 1935.03,-270.39 1447,-239 1404.22,-236.25 1356.51,-231.77 1318,-227.79"/>
<polygon fill="#63b8ff" stroke="#63b8ff" points="2720.49,-286.24 2730.54,-282.87 2720.58,-279.24 2720.49,-286.24"/>
</g>
<!-- Node225 -->
<g id="node30" class="node">
<title>Node225</title>
<g id="a_node30"><a xlink:href="d__a__canoe_8h.html" target="_top" xlink:title=" ">
<polygon fill="white" stroke="#666666" points="2776,-233.5 2670,-233.5 2670,-203.5 2776,-203.5 2776,-233.5"/>
<text text-anchor="start" x="2678" y="-221.5" font-family="Helvetica,sans-Serif" font-size="10.00">include/rel/d/a/d_a</text>
<text text-anchor="middle" x="2723" y="-210.5" font-family="Helvetica,sans-Serif" font-size="10.00">_canoe/d_a_canoe.h</text>
</a>
</g>
</g>
<!-- Node1&#45;&gt;Node225 -->
<g id="edge32" class="edge">
<title>Node1&#45;&gt;Node225</title>
<path fill="none" stroke="#63b8ff" d="M2770.99,-266.75C2760.57,-256.49 2747.37,-243.5 2737.46,-233.73"/>
<polygon fill="#63b8ff" stroke="#63b8ff" points="2768.3,-269.02 2777.88,-273.54 2773.21,-264.03 2768.3,-269.02"/>
</g>
<!-- Node226 -->
<g id="node31" class="node">
<title>Node226</title>
<g id="a_node31"><a xlink:href="d__a__crod_8h.html" target="_top" xlink:title=" ">
<polygon fill="white" stroke="#666666" points="1054,-233.5 958,-233.5 958,-203.5 1054,-203.5 1054,-233.5"/>
<text text-anchor="start" x="966" y="-221.5" font-family="Helvetica,sans-Serif" font-size="10.00">include/rel/d/a/d_a</text>
<text text-anchor="middle" x="1006" y="-210.5" font-family="Helvetica,sans-Serif" font-size="10.00">_crod/d_a_crod.h</text>
</a>
</g>
</g>
<!-- Node1&#45;&gt;Node226 -->
<g id="edge33" class="edge">
<title>Node1&#45;&gt;Node226</title>
<path fill="none" stroke="#63b8ff" d="M2720.88,-284.05C2498.24,-285.38 1763.82,-285.69 1159,-239 1123.89,-236.29 1084.48,-231.22 1054.45,-226.93"/>
<polygon fill="#63b8ff" stroke="#63b8ff" points="2720.85,-287.56 2730.83,-283.99 2720.81,-280.56 2720.85,-287.56"/>
</g>
<!-- Node227 -->
<g id="node32" class="node">
<title>Node227</title>
<g id="a_node32"><a xlink:href="d__a__cstatue_8h.html" target="_top" xlink:title=" ">
<polygon fill="white" stroke="#666666" points="2912,-233.5 2794,-233.5 2794,-203.5 2912,-203.5 2912,-233.5"/>
<text text-anchor="start" x="2802" y="-221.5" font-family="Helvetica,sans-Serif" font-size="10.00">include/rel/d/a/d_a</text>
<text text-anchor="middle" x="2853" y="-210.5" font-family="Helvetica,sans-Serif" font-size="10.00">_cstatue/d_a_cstatue.h</text>
</a>
</g>
</g>
<!-- Node1&#45;&gt;Node227 -->
<g id="edge35" class="edge">
<title>Node1&#45;&gt;Node227</title>
<path fill="none" stroke="#63b8ff" d="M2805.01,-266.75C2815.43,-256.49 2828.63,-243.5 2838.54,-233.73"/>
<polygon fill="#63b8ff" stroke="#63b8ff" points="2802.79,-264.03 2798.12,-273.54 2807.7,-269.02 2802.79,-264.03"/>
</g>
<!-- Node228 -->
<g id="node33" class="node">
<title>Node228</title>
<g id="a_node33"><a xlink:href="d__a__horse_8h.html" target="_top" xlink:title=" ">
<polygon fill="white" stroke="#666666" points="339.5,-233.5 238.5,-233.5 238.5,-203.5 339.5,-203.5 339.5,-233.5"/>
<text text-anchor="start" x="246.5" y="-221.5" font-family="Helvetica,sans-Serif" font-size="10.00">include/rel/d/a/d_a</text>
<text text-anchor="middle" x="289" y="-210.5" font-family="Helvetica,sans-Serif" font-size="10.00">_horse/d_a_horse.h</text>
</a>
</g>
</g>
<!-- Node1&#45;&gt;Node228 -->
<g id="edge36" class="edge">
<title>Node1&#45;&gt;Node228</title>
<path fill="none" stroke="#63b8ff" d="M2720.8,-282.81C2458.6,-279.98 1479.04,-267.94 673,-239 553.59,-234.71 413.43,-226.89 339.91,-222.57"/>
<polygon fill="#63b8ff" stroke="#63b8ff" points="2720.47,-286.31 2730.5,-282.92 2720.54,-279.31 2720.47,-286.31"/>
</g>
<!-- Node229 -->
<g id="node38" class="node">
<title>Node229</title>
<g id="a_node38"><a xlink:href="d__a__myna_8h.html" target="_top" xlink:title=" ">
<polygon fill="white" stroke="#666666" points="3030,-233.5 2930,-233.5 2930,-203.5 3030,-203.5 3030,-233.5"/>
<text text-anchor="start" x="2938" y="-221.5" font-family="Helvetica,sans-Serif" font-size="10.00">include/rel/d/a/d_a</text>
<text text-anchor="middle" x="2980" y="-210.5" font-family="Helvetica,sans-Serif" font-size="10.00">_myna/d_a_myna.h</text>
</a>
</g>
</g>
<!-- Node1&#45;&gt;Node229 -->
<g id="edge43" class="edge">
<title>Node1&#45;&gt;Node229</title>
<path fill="none" stroke="#63b8ff" d="M2825.34,-271.05C2857.21,-260.43 2903.06,-245.15 2936.57,-233.98"/>
<polygon fill="#63b8ff" stroke="#63b8ff" points="2824.51,-267.64 2816.13,-274.12 2826.73,-274.28 2824.51,-267.64"/>
</g>
<!-- Node230 -->
<g id="node39" class="node">
<title>Node230</title>
<g id="a_node39"><a xlink:href="d__a__tbox_8h.html" target="_top" xlink:title=" ">
<polygon fill="white" stroke="#666666" points="3144,-233.5 3048,-233.5 3048,-203.5 3144,-203.5 3144,-233.5"/>
<text text-anchor="start" x="3056" y="-221.5" font-family="Helvetica,sans-Serif" font-size="10.00">include/rel/d/a/d_a</text>
<text text-anchor="middle" x="3096" y="-210.5" font-family="Helvetica,sans-Serif" font-size="10.00">_tbox/d_a_tbox.h</text>
</a>
</g>
</g>
<!-- Node1&#45;&gt;Node230 -->
<g id="edge44" class="edge">
<title>Node1&#45;&gt;Node230</title>
<path fill="none" stroke="#63b8ff" d="M2855.04,-274.49C2905.95,-266.95 2977.45,-254.88 3039,-239 3044.67,-237.54 3050.59,-235.78 3056.37,-233.93"/>
<polygon fill="#63b8ff" stroke="#63b8ff" points="2854.75,-270.99 2845.36,-275.9 2855.76,-277.92 2854.75,-270.99"/>
</g>
<!-- Node99 -->
<g id="node40" class="node">
<title>Node99</title>
<g id="a_node40"><a xlink:href="d__a__obj__bbox_8h.html" target="_top" xlink:title=" ">
<polygon fill="white" stroke="#666666" points="3278,-239 3162,-239 3162,-198 3278,-198 3278,-239"/>
<text text-anchor="start" x="3170" y="-227" font-family="Helvetica,sans-Serif" font-size="10.00">include/rel/d/a/obj</text>
<text text-anchor="start" x="3170" y="-216" font-family="Helvetica,sans-Serif" font-size="10.00">/d_a_obj_bbox/d_a_obj</text>
<text text-anchor="middle" x="3220" y="-205" font-family="Helvetica,sans-Serif" font-size="10.00">_bbox.h</text>
</a>
</g>
</g>
<!-- Node1&#45;&gt;Node99 -->
<g id="edge45" class="edge">
<title>Node1&#45;&gt;Node99</title>
<path fill="none" stroke="#63b8ff" d="M2855.19,-278.59C2928.82,-272.45 3050.16,-260.09 3153,-239 3155.85,-238.42 3158.75,-237.77 3161.67,-237.08"/>
<polygon fill="#63b8ff" stroke="#63b8ff" points="2854.99,-275.09 2845.3,-279.4 2855.56,-282.07 2854.99,-275.09"/>
</g>
<!-- Node101 -->
<g id="node41" class="node">
<title>Node101</title>
<g id="a_node41"><a xlink:href="d__a__obj__carry_8h.html" target="_top" xlink:title=" ">
<polygon fill="white" stroke="#666666" points="798,-239 682,-239 682,-198 798,-198 798,-239"/>
<text text-anchor="start" x="690" y="-227" font-family="Helvetica,sans-Serif" font-size="10.00">include/rel/d/a/obj</text>
<text text-anchor="start" x="690" y="-216" font-family="Helvetica,sans-Serif" font-size="10.00">/d_a_obj_carry/d_a_obj</text>
<text text-anchor="middle" x="740" y="-205" font-family="Helvetica,sans-Serif" font-size="10.00">_carry.h</text>
</a>
</g>
</g>
<!-- Node1&#45;&gt;Node101 -->
<g id="edge46" class="edge">
<title>Node1&#45;&gt;Node101</title>
<path fill="none" stroke="#63b8ff" d="M2720.96,-283.54C2480.74,-283.34 1640.66,-279.59 949,-239 898.07,-236.01 840.34,-230.46 798.48,-226.04"/>
<polygon fill="#63b8ff" stroke="#63b8ff" points="2720.76,-287.04 2730.76,-283.55 2720.76,-280.04 2720.76,-287.04"/>
</g>
<!-- Node231 -->
<g id="node44" class="node">
<title>Node231</title>
<g id="a_node44"><a xlink:href="d__a__obj__hbombkoya_8h.html" target="_top" xlink:title=" ">
<polygon fill="white" stroke="#666666" points="3412,-239 3296,-239 3296,-198 3412,-198 3412,-239"/>
<text text-anchor="start" x="3304" y="-227" font-family="Helvetica,sans-Serif" font-size="10.00">include/rel/d/a/obj</text>
<text text-anchor="start" x="3304" y="-216" font-family="Helvetica,sans-Serif" font-size="10.00">/d_a_obj_hbombkoya/d</text>
<text text-anchor="middle" x="3354" y="-205" font-family="Helvetica,sans-Serif" font-size="10.00">_a_obj_hbombkoya.h</text>
</a>
</g>
</g>
<!-- Node1&#45;&gt;Node231 -->
<g id="edge50" class="edge">
<title>Node1&#45;&gt;Node231</title>
<path fill="none" stroke="#63b8ff" d="M2855.18,-281.65C2951.54,-278.05 3134.23,-267.76 3287,-239 3289.86,-238.46 3292.77,-237.85 3295.7,-237.19"/>
<polygon fill="#63b8ff" stroke="#63b8ff" points="2855.24,-278.14 2845.38,-282 2855.5,-285.14 2855.24,-278.14"/>
</g>
<!-- Node232 -->
<g id="node45" class="node">
<title>Node232</title>
<g id="a_node45"><a xlink:href="d__a__obj__lv1Candle00_8h.html" target="_top" xlink:title=" ">
<polygon fill="white" stroke="#666666" points="3549.5,-239 3430.5,-239 3430.5,-198 3549.5,-198 3549.5,-239"/>
<text text-anchor="start" x="3438.5" y="-227" font-family="Helvetica,sans-Serif" font-size="10.00">include/rel/d/a/obj</text>
<text text-anchor="start" x="3438.5" y="-216" font-family="Helvetica,sans-Serif" font-size="10.00">/d_a_obj_lv1Candle00</text>
<text text-anchor="middle" x="3490" y="-205" font-family="Helvetica,sans-Serif" font-size="10.00">/d_a_obj_lv1Candle00.h</text>
</a>
</g>
</g>
<!-- Node1&#45;&gt;Node232 -->
<g id="edge51" class="edge">
<title>Node1&#45;&gt;Node232</title>
<path fill="none" stroke="#63b8ff" d="M2855.09,-283.29C2971.25,-281.92 3216.98,-274.61 3421,-239 3424.07,-238.46 3427.19,-237.85 3430.33,-237.17"/>
<polygon fill="#63b8ff" stroke="#63b8ff" points="2855.4,-279.78 2845.44,-283.39 2855.47,-286.78 2855.4,-279.78"/>
</g>
<!-- Node233 -->
<g id="node46" class="node">
<title>Node233</title>
<g id="a_node46"><a xlink:href="d__a__obj__swhang_8h.html" target="_top" xlink:title=" ">
<polygon fill="white" stroke="#666666" points="3678.5,-239 3567.5,-239 3567.5,-198 3678.5,-198 3678.5,-239"/>
<text text-anchor="start" x="3575.5" y="-227" font-family="Helvetica,sans-Serif" font-size="10.00">include/rel/d/a/obj</text>
<text text-anchor="start" x="3575.5" y="-216" font-family="Helvetica,sans-Serif" font-size="10.00">/d_a_obj_swhang/d_a</text>
<text text-anchor="middle" x="3623" y="-205" font-family="Helvetica,sans-Serif" font-size="10.00">_obj_swhang.h</text>
</a>
</g>
</g>
<!-- Node1&#45;&gt;Node233 -->
<g id="edge52" class="edge">
<title>Node1&#45;&gt;Node233</title>
<path fill="none" stroke="#63b8ff" d="M2855.05,-281.68C3016.76,-276.95 3424.71,-262.98 3559,-239 3561.74,-238.51 3564.54,-237.94 3567.34,-237.31"/>
<polygon fill="#63b8ff" stroke="#63b8ff" points="2855.25,-278.17 2845.36,-281.96 2855.45,-285.17 2855.25,-278.17"/>
</g>
<!-- Node234 -->
<g id="node47" class="node">
<title>Node234</title>
<g id="a_node47"><a xlink:href="d__a__obj__swpropeller_8h.html" target="_top" xlink:title=" ">
<polygon fill="white" stroke="#666666" points="3813,-239 3697,-239 3697,-198 3813,-198 3813,-239"/>
<text text-anchor="start" x="3705" y="-227" font-family="Helvetica,sans-Serif" font-size="10.00">include/rel/d/a/obj</text>
<text text-anchor="start" x="3705" y="-216" font-family="Helvetica,sans-Serif" font-size="10.00">/d_a_obj_swpropeller</text>
<text text-anchor="middle" x="3755" y="-205" font-family="Helvetica,sans-Serif" font-size="10.00">/d_a_obj_swpropeller.h</text>
</a>
</g>
</g>
<!-- Node1&#45;&gt;Node234 -->
<g id="edge53" class="edge">
<title>Node1&#45;&gt;Node234</title>
<path fill="none" stroke="#63b8ff" d="M2855.26,-282.21C3035.74,-278.43 3527.88,-265.88 3688,-239 3690.87,-238.52 3693.79,-237.96 3696.72,-237.33"/>
<polygon fill="#63b8ff" stroke="#63b8ff" points="2855.27,-278.71 2845.34,-282.42 2855.41,-285.71 2855.27,-278.71"/>
</g>
<!-- Node235 -->
<g id="node48" class="node">
<title>Node235</title>
<g id="a_node48"><a xlink:href="d__a__tag__pachi_8h.html" target="_top" xlink:title=" ">
<polygon fill="white" stroke="#666666" points="3951,-239 3831,-239 3831,-198 3951,-198 3951,-239"/>
<text text-anchor="start" x="3839" y="-227" font-family="Helvetica,sans-Serif" font-size="10.00">include/rel/d/a/tag</text>
<text text-anchor="start" x="3839" y="-216" font-family="Helvetica,sans-Serif" font-size="10.00">/d_a_tag_pachi/d_a_tag</text>
<text text-anchor="middle" x="3891" y="-205" font-family="Helvetica,sans-Serif" font-size="10.00">_pachi.h</text>
</a>
</g>
</g>
<!-- Node1&#45;&gt;Node235 -->
<g id="edge54" class="edge">
<title>Node1&#45;&gt;Node235</title>
<path fill="none" stroke="#63b8ff" d="M2855.14,-282.65C3053.51,-279.8 3634.79,-269.06 3822,-239 3824.83,-238.55 3827.7,-238.02 3830.6,-237.43"/>
<polygon fill="#63b8ff" stroke="#63b8ff" points="2855.21,-279.14 2845.26,-282.79 2855.31,-286.14 2855.21,-279.14"/>
</g>
<!-- Node236 -->
<g id="node49" class="node">
<title>Node236</title>
<g id="a_node49"><a xlink:href="d__cc__d__nonmatching_8cpp.html" target="_top" xlink:title=" ">
<polygon fill="white" stroke="#666666" points="4134.5,-228 3969.5,-228 3969.5,-209 4134.5,-209 4134.5,-228"/>
<text text-anchor="middle" x="4052" y="-216" font-family="Helvetica,sans-Serif" font-size="10.00">src/d/cc/d_cc_d_nonmatching.cpp</text>
</a>
</g>
</g>
<!-- Node1&#45;&gt;Node236 -->
<g id="edge55" class="edge">
<title>Node1&#45;&gt;Node236</title>
<path fill="none" stroke="#63b8ff" d="M2855.38,-282.46C3071.23,-278.87 3743.97,-265.8 3960,-239 3978.96,-236.65 3999.8,-232.37 4016.85,-228.42"/>
<polygon fill="#63b8ff" stroke="#63b8ff" points="2855.39,-278.96 2845.45,-282.62 2855.51,-285.95 2855.39,-278.96"/>
</g>
<!-- Node237 -->
<g id="node50" class="node">
<title>Node237</title>
<g id="a_node50"><a xlink:href="d__cc__mass__s_8cpp.html" target="_top" xlink:title=" ">
<polygon fill="white" stroke="#666666" points="4257.5,-233.5 4152.5,-233.5 4152.5,-203.5 4257.5,-203.5 4257.5,-233.5"/>
<text text-anchor="start" x="4160.5" y="-221.5" font-family="Helvetica,sans-Serif" font-size="10.00">src/d/cc/d_cc_mass</text>
<text text-anchor="middle" x="4205" y="-210.5" font-family="Helvetica,sans-Serif" font-size="10.00">_s.cpp</text>
</a>
</g>
</g>
<!-- Node1&#45;&gt;Node237 -->
<g id="edge56" class="edge">
<title>Node1&#45;&gt;Node237</title>
<path fill="none" stroke="#63b8ff" d="M2855.06,-283.75C3092.44,-284.23 3892.09,-282.53 4144,-239 4151.01,-237.79 4158.33,-235.96 4165.36,-233.91"/>
<polygon fill="#63b8ff" stroke="#63b8ff" points="2855.38,-280.25 2845.37,-283.72 2855.36,-287.25 2855.38,-280.25"/>
</g>
<!-- Node3 -->
<g id="node3" class="node">
<title>Node3</title>
<g id="a_node3"><a xlink:href="d__a__alink_8cpp.html" target="_top" xlink:title=" ">
<polygon fill="white" stroke="#666666" points="635.5,-79.5 526.5,-79.5 526.5,-60.5 635.5,-60.5 635.5,-79.5"/>
<text text-anchor="middle" x="581" y="-67.5" font-family="Helvetica,sans-Serif" font-size="10.00">src/d/a/d_a_alink.cpp</text>
</a>
</g>
</g>
<!-- Node2&#45;&gt;Node3 -->
<g id="edge2" class="edge">
<title>Node2&#45;&gt;Node3</title>
<path fill="none" stroke="#63b8ff" d="M1444.5,-209.47C1370.12,-200 1257.73,-182.85 1220,-162 1198.26,-149.98 1204.34,-131.88 1182,-121 1086.57,-74.53 765.32,-70.3 635.81,-70.56"/>
<polygon fill="#63b8ff" stroke="#63b8ff" points="1443.78,-212.91 1454.14,-210.68 1444.65,-205.97 1443.78,-212.91"/>
</g>
<!-- Node4 -->
<g id="node4" class="node">
<title>Node4</title>
<g id="a_node4"><a xlink:href="d__a__player_8cpp.html" target="_top" xlink:title=" ">
<polygon fill="white" stroke="#666666" points="1053,-151 939,-151 939,-132 1053,-132 1053,-151"/>
<text text-anchor="middle" x="996" y="-139" font-family="Helvetica,sans-Serif" font-size="10.00">src/d/a/d_a_player.cpp</text>
</a>
</g>
</g>
<!-- Node2&#45;&gt;Node4 -->
<g id="edge3" class="edge">
<title>Node2&#45;&gt;Node4</title>
<path fill="none" stroke="#63b8ff" d="M1444.25,-210.36C1336.19,-199.06 1133.33,-176.81 1062,-162 1048.9,-159.28 1034.63,-155.21 1022.72,-151.49"/>
<polygon fill="#63b8ff" stroke="#63b8ff" points="1443.86,-213.84 1454.17,-211.39 1444.59,-206.88 1443.86,-213.84"/>
</g>
<!-- Node5 -->
<g id="node5" class="node">
<title>Node5</title>
<g id="a_node5"><a xlink:href="d__com__inf__game_8cpp.html" target="_top" xlink:title=" ">
<polygon fill="white" stroke="#666666" points="1952,-156.5 1844,-156.5 1844,-126.5 1952,-126.5 1952,-156.5"/>
<text text-anchor="start" x="1852" y="-144.5" font-family="Helvetica,sans-Serif" font-size="10.00">src/d/com/d_com_inf</text>
<text text-anchor="middle" x="1898" y="-133.5" font-family="Helvetica,sans-Serif" font-size="10.00">_game.cpp</text>
</a>
</g>
</g>
<!-- Node2&#45;&gt;Node5 -->
<g id="edge4" class="edge">
<title>Node2&#45;&gt;Node5</title>
<path fill="none" stroke="#63b8ff" d="M1583.53,-207.45C1647.84,-197.64 1745.9,-181.39 1830,-162 1836.46,-160.51 1843.22,-158.78 1849.87,-156.98"/>
<polygon fill="#63b8ff" stroke="#63b8ff" points="1583.18,-203.96 1573.82,-208.92 1584.23,-210.88 1583.18,-203.96"/>
</g>
<!-- Node6 -->
<g id="node6" class="node">
<title>Node6</title>
<g id="a_node6"><a xlink:href="d__camera_8cpp.html" target="_top" xlink:title=" ">
<polygon fill="white" stroke="#666666" points="1173,-151 1071,-151 1071,-132 1173,-132 1173,-151"/>
<text text-anchor="middle" x="1122" y="-139" font-family="Helvetica,sans-Serif" font-size="10.00">src/d/d_camera.cpp</text>
</a>
</g>
</g>
<!-- Node2&#45;&gt;Node6 -->
<g id="edge5" class="edge">
<title>Node2&#45;&gt;Node6</title>
<path fill="none" stroke="#63b8ff" d="M1444.51,-208.24C1377.97,-198.78 1274.98,-182.58 1187,-162 1174.38,-159.05 1160.61,-155.03 1149,-151.41"/>
<polygon fill="#63b8ff" stroke="#63b8ff" points="1443.79,-211.68 1454.18,-209.61 1444.77,-204.75 1443.79,-211.68"/>
</g>
<!-- Node7 -->
<g id="node7" class="node">
<title>Node7</title>
<g id="a_node7"><a xlink:href="d__event_8cpp.html" target="_top" xlink:title=" ">
<polygon fill="white" stroke="#666666" points="1930.5,-79.5 1809.5,-79.5 1809.5,-60.5 1930.5,-60.5 1930.5,-79.5"/>
<text text-anchor="middle" x="1870" y="-67.5" font-family="Helvetica,sans-Serif" font-size="10.00">src/d/event/d_event.cpp</text>
</a>
</g>
</g>
<!-- Node2&#45;&gt;Node7 -->
<g id="edge6" class="edge">
<title>Node2&#45;&gt;Node7</title>
<path fill="none" stroke="#63b8ff" d="M1583.67,-216.81C1643.82,-213.3 1731.01,-201.06 1796,-162 1813.71,-151.35 1849.87,-100.37 1864.08,-79.72"/>
<polygon fill="#63b8ff" stroke="#63b8ff" points="1583.72,-213.3 1573.91,-217.3 1584.07,-220.29 1583.72,-213.3"/>
</g>
<!-- Node8 -->
<g id="node8" class="node">
<title>Node8</title>
<g id="a_node8"><a xlink:href="d__menu__ring_8cpp.html" target="_top" xlink:title=" ">
<polygon fill="white" stroke="#666666" points="1371,-151 1229,-151 1229,-132 1371,-132 1371,-151"/>
<text text-anchor="middle" x="1300" y="-139" font-family="Helvetica,sans-Serif" font-size="10.00">src/d/menu/d_menu_ring.cpp</text>
</a>
</g>
</g>
<!-- Node2&#45;&gt;Node8 -->
<g id="edge7" class="edge">
<title>Node2&#45;&gt;Node8</title>
<path fill="none" stroke="#63b8ff" d="M1477.99,-204.88C1434.72,-189.72 1363.22,-164.66 1325.36,-151.39"/>
<polygon fill="#63b8ff" stroke="#63b8ff" points="1476.59,-208.1 1487.18,-208.1 1478.9,-201.49 1476.59,-208.1"/>
</g>
<!-- Node9 -->
<g id="node9" class="node">
<title>Node9</title>
<g id="a_node9"><a xlink:href="d__meter2__draw_8cpp.html" target="_top" xlink:title=" ">
<polygon fill="white" stroke="#666666" points="1499,-156.5 1389,-156.5 1389,-126.5 1499,-126.5 1499,-156.5"/>
<text text-anchor="start" x="1397" y="-144.5" font-family="Helvetica,sans-Serif" font-size="10.00">src/d/meter/d_meter2</text>
<text text-anchor="middle" x="1444" y="-133.5" font-family="Helvetica,sans-Serif" font-size="10.00">_draw.cpp</text>
</a>
</g>
</g>
<!-- Node2&#45;&gt;Node9 -->
<g id="edge8" class="edge">
<title>Node2&#45;&gt;Node9</title>
<path fill="none" stroke="#63b8ff" d="M1498.01,-200.37C1485.71,-187.19 1468.9,-169.17 1457.31,-156.77"/>
<polygon fill="#63b8ff" stroke="#63b8ff" points="1495.28,-202.57 1504.66,-207.5 1500.4,-197.8 1495.28,-202.57"/>
</g>
<!-- Node10 -->
<g id="node10" class="node">
<title>Node10</title>
<g id="a_node10"><a xlink:href="d__msg__flow_8cpp.html" target="_top" xlink:title=" ">
<polygon fill="white" stroke="#666666" points="1650.5,-151 1517.5,-151 1517.5,-132 1650.5,-132 1650.5,-151"/>
<text text-anchor="middle" x="1584" y="-139" font-family="Helvetica,sans-Serif" font-size="10.00">src/d/msg/d_msg_flow.cpp</text>
</a>
</g>
</g>
<!-- Node2&#45;&gt;Node10 -->
<g id="edge9" class="edge">
<title>Node2&#45;&gt;Node10</title>
<path fill="none" stroke="#63b8ff" d="M1529.87,-200.5C1544.11,-185.24 1564.45,-163.45 1575.71,-151.39"/>
<polygon fill="#63b8ff" stroke="#63b8ff" points="1527.6,-197.8 1523.34,-207.5 1532.72,-202.57 1527.6,-197.8"/>
</g>
<!-- Node11 -->
<g id="node11" class="node">
<title>Node11</title>
<g id="a_node11"><a xlink:href="f__op__actor_8cpp.html" target="_top" xlink:title=" ">
<polygon fill="white" stroke="#666666" points="1787.5,-151 1668.5,-151 1668.5,-132 1787.5,-132 1787.5,-151"/>
<text text-anchor="middle" x="1728" y="-139" font-family="Helvetica,sans-Serif" font-size="10.00">src/f_op/f_op_actor.cpp</text>
</a>
</g>
</g>
<!-- Node2&#45;&gt;Node11 -->
<g id="edge10" class="edge">
<title>Node2&#45;&gt;Node11</title>
<path fill="none" stroke="#63b8ff" d="M1550.01,-204.88C1593.28,-189.72 1664.78,-164.66 1702.64,-151.39"/>
<polygon fill="#63b8ff" stroke="#63b8ff" points="1549.1,-201.49 1540.82,-208.1 1551.41,-208.1 1549.1,-201.49"/>
</g>
<!-- Node13 -->
<g id="node13" class="node">
<title>Node13</title>
<g id="a_node13"><a xlink:href="d__a__obj__item_8h.html" target="_top" xlink:title=" ">
<polygon fill="white" stroke="#666666" points="2103.5,-85 2002.5,-85 2002.5,-55 2103.5,-55 2103.5,-85"/>
<text text-anchor="start" x="2010.5" y="-73" font-family="Helvetica,sans-Serif" font-size="10.00">include/d/a/d_a_obj</text>
<text text-anchor="middle" x="2053" y="-62" font-family="Helvetica,sans-Serif" font-size="10.00">_item.h</text>
</a>
</g>
</g>
<!-- Node12&#45;&gt;Node13 -->
<g id="edge12" class="edge">
<title>Node12&#45;&gt;Node13</title>
<path fill="none" stroke="#63b8ff" d="M2136.06,-120.34C2117.22,-109.15 2094.23,-95.49 2077.21,-85.38"/>
<polygon fill="#63b8ff" stroke="#63b8ff" points="2134.07,-123.23 2144.46,-125.33 2137.65,-117.21 2134.07,-123.23"/>
</g>
<!-- Node15 -->
<g id="node15" class="node">
<title>Node15</title>
<g id="a_node15"><a xlink:href="d__a__do_8h.html" target="_top" xlink:title=" ">
<polygon fill="white" stroke="#666666" points="2218,-85 2122,-85 2122,-55 2218,-55 2218,-85"/>
<text text-anchor="start" x="2130" y="-73" font-family="Helvetica,sans-Serif" font-size="10.00">include/rel/d/a/d_a</text>
<text text-anchor="middle" x="2170" y="-62" font-family="Helvetica,sans-Serif" font-size="10.00">_do/d_a_do.h</text>
</a>
</g>
</g>
<!-- Node12&#45;&gt;Node15 -->
<g id="edge14" class="edge">
<title>Node12&#45;&gt;Node15</title>
<path fill="none" stroke="#63b8ff" d="M2170,-114.76C2170,-104.83 2170,-93.86 2170,-85.38"/>
<polygon fill="#63b8ff" stroke="#63b8ff" points="2166.5,-114.59 2170,-124.59 2173.5,-114.59 2166.5,-114.59"/>
</g>
<!-- Node16 -->
<g id="node16" class="node">
<title>Node16</title>
<g id="a_node16"><a xlink:href="d__a__item__static_8cpp.html" target="_top" xlink:title=" ">
<polygon fill="white" stroke="#666666" points="2373.5,-79.5 2236.5,-79.5 2236.5,-60.5 2373.5,-60.5 2373.5,-79.5"/>
<text text-anchor="middle" x="2305" y="-67.5" font-family="Helvetica,sans-Serif" font-size="10.00">src/d/a/d_a_item_static.cpp</text>
</a>
</g>
</g>
<!-- Node12&#45;&gt;Node16 -->
<g id="edge15" class="edge">
<title>Node12&#45;&gt;Node16</title>
<path fill="none" stroke="#63b8ff" d="M2207.96,-120.96C2234.16,-107.47 2267.75,-90.18 2287.75,-79.88"/>
<polygon fill="#63b8ff" stroke="#63b8ff" points="2206.61,-117.72 2199.32,-125.41 2209.81,-123.94 2206.61,-117.72"/>
</g>
<!-- Node14 -->
<g id="node14" class="node">
<title>Node14</title>
<g id="a_node14"><a xlink:href="d__a__obj__item_8cpp.html" target="_top" xlink:title=" ">
<polygon fill="white" stroke="#666666" points="2115.5,-19 1990.5,-19 1990.5,0 2115.5,0 2115.5,-19"/>
<text text-anchor="middle" x="2053" y="-7" font-family="Helvetica,sans-Serif" font-size="10.00">src/d/a/d_a_obj_item.cpp</text>
</a>
</g>
</g>
<!-- Node13&#45;&gt;Node14 -->
<g id="edge13" class="edge">
<title>Node13&#45;&gt;Node14</title>
<path fill="none" stroke="#63b8ff" d="M2053,-43.3C2053,-34.65 2053,-25.58 2053,-19.18"/>
<polygon fill="#63b8ff" stroke="#63b8ff" points="2049.5,-43.03 2053,-53.03 2056.5,-43.03 2049.5,-43.03"/>
</g>
<!-- Node17&#45;&gt;Node12 -->
<g id="edge17" class="edge">
<title>Node17&#45;&gt;Node12</title>
<path fill="none" stroke="#63b8ff" d="M2206.3,-199.22C2197.94,-186.15 2186.84,-168.82 2179.13,-156.77"/>
<polygon fill="#63b8ff" stroke="#63b8ff" points="2203.15,-200.79 2211.49,-207.33 2209.05,-197.02 2203.15,-200.79"/>
</g>
<!-- Node18 -->
<g id="node18" class="node">
<title>Node18</title>
<g id="a_node18"><a xlink:href="d__a__shop__item__static_8h.html" target="_top" xlink:title=" ">
<polygon fill="#fff0f0" stroke="red" points="2753.5,-156.5 2644.5,-156.5 2644.5,-126.5 2753.5,-126.5 2753.5,-156.5"/>
<text text-anchor="start" x="2652.5" y="-144.5" font-family="Helvetica,sans-Serif" font-size="10.00">include/d/a/d_a_shop</text>
<text text-anchor="middle" x="2699" y="-133.5" font-family="Helvetica,sans-Serif" font-size="10.00">_item_static.h</text>
</a>
</g>
</g>
<!-- Node17&#45;&gt;Node18 -->
<g id="edge18" class="edge">
<title>Node17&#45;&gt;Node18</title>
<path fill="none" stroke="#63b8ff" d="M2259.27,-205.74C2270.47,-202.87 2282.64,-200.05 2294,-198 2443.99,-170.99 2485.65,-192.35 2635,-162 2641.72,-160.64 2648.74,-158.86 2655.56,-156.95"/>
<polygon fill="#63b8ff" stroke="#63b8ff" points="2258.71,-202.27 2249.93,-208.21 2260.49,-209.04 2258.71,-202.27"/>
</g>
<!-- Node22 -->
<g id="node20" class="node">
<title>Node22</title>
<g id="a_node20"><a xlink:href="d__event_8h.html" target="_top" xlink:title=" ">
<polygon fill="#fff0f0" stroke="red" points="2098,-151 1970,-151 1970,-132 2098,-132 2098,-151"/>
<text text-anchor="middle" x="2034" y="-139" font-family="Helvetica,sans-Serif" font-size="10.00">include/d/event/d_event.h</text>
</a>
</g>
</g>
<!-- Node17&#45;&gt;Node22 -->
<g id="edge20" class="edge">
<title>Node17&#45;&gt;Node22</title>
<path fill="none" stroke="#63b8ff" d="M2185.85,-204.39C2148.53,-189.19 2088.02,-164.52 2055.8,-151.39"/>
<polygon fill="#63b8ff" stroke="#63b8ff" points="2184.19,-207.5 2194.77,-208.03 2186.83,-201.01 2184.19,-207.5"/>
</g>
<!-- Node218 -->
<g id="node21" class="node">
<title>Node218</title>
<g id="a_node21"><a xlink:href="d__a__obj__kantera_8h.html" target="_top" xlink:title=" ">
<polygon fill="white" stroke="#666666" points="2352,-162 2242,-162 2242,-121 2352,-121 2352,-162"/>
<text text-anchor="start" x="2250" y="-150" font-family="Helvetica,sans-Serif" font-size="10.00">include/rel/d/a/obj</text>
<text text-anchor="start" x="2250" y="-139" font-family="Helvetica,sans-Serif" font-size="10.00">/d_a_obj_kantera/d_a</text>
<text text-anchor="middle" x="2297" y="-128" font-family="Helvetica,sans-Serif" font-size="10.00">_obj_kantera.h</text>
</a>
</g>
</g>
<!-- Node17&#45;&gt;Node218 -->
<g id="edge22" class="edge">
<title>Node17&#45;&gt;Node218</title>
<path fill="none" stroke="#63b8ff" d="M2235.64,-200.75C2247.61,-189.39 2263.49,-174.31 2276.09,-162.35"/>
<polygon fill="#63b8ff" stroke="#63b8ff" points="2233.31,-198.14 2228.47,-207.56 2238.13,-203.21 2233.31,-198.14"/>
</g>
<!-- Node153 -->
<g id="node22" class="node">
<title>Node153</title>
<g id="a_node22"><a xlink:href="d__a__itembase_8cpp.html" target="_top" xlink:title=" ">
<polygon fill="white" stroke="#666666" points="2498,-151 2370,-151 2370,-132 2498,-132 2498,-151"/>
<text text-anchor="middle" x="2434" y="-139" font-family="Helvetica,sans-Serif" font-size="10.00">src/d/a/d_a_itembase.cpp</text>
</a>
</g>
</g>
<!-- Node17&#45;&gt;Node153 -->
<g id="edge23" class="edge">
<title>Node17&#45;&gt;Node153</title>
<path fill="none" stroke="#63b8ff" d="M2254.34,-204.88C2298.02,-189.72 2370.18,-164.66 2408.41,-151.39"/>
<polygon fill="#63b8ff" stroke="#63b8ff" points="2253.35,-201.52 2245.06,-208.11 2255.65,-208.13 2253.35,-201.52"/>
</g>
<!-- Node219 -->
<g id="node23" class="node">
<title>Node219</title>
<g id="a_node23"><a xlink:href="d__a__itembase__static_8cpp.html" target="_top" xlink:title=" ">
<polygon fill="white" stroke="#666666" points="2626,-156.5 2516,-156.5 2516,-126.5 2626,-126.5 2626,-156.5"/>
<text text-anchor="start" x="2524" y="-144.5" font-family="Helvetica,sans-Serif" font-size="10.00">src/d/a/d_a_itembase</text>
<text text-anchor="middle" x="2571" y="-133.5" font-family="Helvetica,sans-Serif" font-size="10.00">_static.cpp</text>
</a>
</g>
</g>
<!-- Node17&#45;&gt;Node219 -->
<g id="edge24" class="edge">
<title>Node17&#45;&gt;Node219</title>
<path fill="none" stroke="#63b8ff" d="M2261.53,-205.66C2272.12,-202.97 2283.43,-200.24 2294,-198 2387.91,-178.05 2413.55,-184.04 2507,-162 2513.22,-160.53 2519.72,-158.8 2526.09,-156.97"/>
<polygon fill="#63b8ff" stroke="#63b8ff" points="2260.67,-202.27 2251.87,-208.17 2262.43,-209.05 2260.67,-202.27"/>
</g>
<!-- Node19 -->
<g id="node19" class="node">
<title>Node19</title>
<g id="a_node19"><a xlink:href="d__a__shop__item__static_8cpp.html" target="_top" xlink:title=" ">
<polygon fill="white" stroke="#666666" points="2757,-85 2641,-85 2641,-55 2757,-55 2757,-85"/>
<text text-anchor="start" x="2649" y="-73" font-family="Helvetica,sans-Serif" font-size="10.00">src/d/a/d_a_shop_item</text>
<text text-anchor="middle" x="2699" y="-62" font-family="Helvetica,sans-Serif" font-size="10.00">_static.cpp</text>
</a>
</g>
</g>
<!-- Node18&#45;&gt;Node19 -->
<g id="edge19" class="edge">
<title>Node18&#45;&gt;Node19</title>
<path fill="none" stroke="#63b8ff" d="M2699,-114.76C2699,-104.83 2699,-93.86 2699,-85.38"/>
<polygon fill="#63b8ff" stroke="#63b8ff" points="2695.5,-114.59 2699,-124.59 2702.5,-114.59 2695.5,-114.59"/>
</g>
<!-- Node22&#45;&gt;Node7 -->
<g id="edge21" class="edge">
<title>Node22&#45;&gt;Node7</title>
<path fill="none" stroke="#63b8ff" d="M2002.51,-127.15C1969.72,-113.26 1919.27,-91.88 1891.02,-79.91"/>
<polygon fill="#63b8ff" stroke="#63b8ff" points="2000.93,-130.29 2011.5,-130.97 2003.66,-123.84 2000.93,-130.29"/>
</g>
<!-- Node100 -->
<g id="node25" class="node">
<title>Node100</title>
<g id="a_node25"><a xlink:href="d__a__obj__bombf_8h.html" target="_top" xlink:title=" ">
<polygon fill="white" stroke="#666666" points="2894,-162 2772,-162 2772,-121 2894,-121 2894,-162"/>
<text text-anchor="start" x="2780" y="-150" font-family="Helvetica,sans-Serif" font-size="10.00">include/rel/d/a/obj</text>
<text text-anchor="start" x="2780" y="-139" font-family="Helvetica,sans-Serif" font-size="10.00">/d_a_obj_bombf/d_a_obj</text>
<text text-anchor="middle" x="2833" y="-128" font-family="Helvetica,sans-Serif" font-size="10.00">_bombf.h</text>
</a>
</g>
</g>
<!-- Node220&#45;&gt;Node100 -->
<g id="edge26" class="edge">
<title>Node220&#45;&gt;Node100</title>
<path fill="none" stroke="#63b8ff" d="M2388.44,-204.93C2396.72,-202.29 2405.6,-199.78 2414,-198 2566.56,-165.72 2609.79,-191.03 2763,-162 2765.85,-161.46 2768.75,-160.86 2771.68,-160.21"/>
<polygon fill="#63b8ff" stroke="#63b8ff" points="2387.44,-201.58 2379.06,-208.06 2389.66,-208.22 2387.44,-201.58"/>
</g>
<!-- Node221 -->
<g id="node26" class="node">
<title>Node221</title>
<g id="a_node26"><a xlink:href="d__bomb_8cpp.html" target="_top" xlink:title=" ">
<polygon fill="white" stroke="#666666" points="3006,-151 2912,-151 2912,-132 3006,-132 3006,-151"/>
<text text-anchor="middle" x="2959" y="-139" font-family="Helvetica,sans-Serif" font-size="10.00">src/d/d_bomb.cpp</text>
</a>
</g>
</g>
<!-- Node220&#45;&gt;Node221 -->
<g id="edge27" class="edge">
<title>Node220&#45;&gt;Node221</title>
<path fill="none" stroke="#63b8ff" d="M2387.68,-204.98C2396.17,-202.27 2405.33,-199.7 2414,-198 2627.84,-156.02 2689.61,-206.21 2903,-162 2914.69,-159.58 2927.29,-155.35 2937.57,-151.44"/>
<polygon fill="#63b8ff" stroke="#63b8ff" points="2386.81,-201.58 2378.45,-208.1 2389.05,-208.22 2386.81,-201.58"/>
</g>
<!-- Node224&#45;&gt;Node4 -->
<g id="edge31" class="edge">
<title>Node224&#45;&gt;Node4</title>
<path fill="none" stroke="#63b8ff" d="M1184.38,-199.7C1134.29,-184.49 1064.32,-163.25 1025.29,-151.39"/>
<polygon fill="#63b8ff" stroke="#63b8ff" points="1183.34,-203.04 1193.93,-202.6 1185.38,-196.34 1183.34,-203.04"/>
</g>
<!-- Node226&#45;&gt;Node3 -->
<g id="edge34" class="edge">
<title>Node226&#45;&gt;Node3</title>
<path fill="none" stroke="#63b8ff" d="M974.54,-196.58C960.44,-186.69 943.89,-174.35 930,-162 911.44,-145.49 913.91,-132.72 892,-121 848.67,-97.81 712.86,-82.53 635.8,-75.49"/>
<polygon fill="#63b8ff" stroke="#63b8ff" points="972.39,-199.35 982.61,-202.15 976.37,-193.58 972.39,-199.35"/>
</g>
<!-- Node228&#45;&gt;Node3 -->
<g id="edge40" class="edge">
<title>Node228&#45;&gt;Node3</title>
<path fill="none" stroke="#63b8ff" d="M227.12,-207.13C200.88,-199.34 172.77,-185.74 157,-162 146.92,-146.82 144.89,-134.62 157,-121 181.13,-93.86 416.85,-78.97 526.02,-73.48"/>
<polygon fill="#63b8ff" stroke="#63b8ff" points="226.18,-210.5 236.75,-209.73 228.01,-203.75 226.18,-210.5"/>
</g>
<!-- Node38 -->
<g id="node34" class="node">
<title>Node38</title>
<g id="a_node34"><a xlink:href="d__a__e__wb_8h.html" target="_top" xlink:title=" ">
<polygon fill="#fff0f0" stroke="red" points="110,-156.5 0,-156.5 0,-126.5 110,-126.5 110,-156.5"/>
<text text-anchor="start" x="8" y="-144.5" font-family="Helvetica,sans-Serif" font-size="10.00">include/rel/d/a/e/d</text>
<text text-anchor="middle" x="55" y="-133.5" font-family="Helvetica,sans-Serif" font-size="10.00">_a_e_wb/d_a_e_wb.h</text>
</a>
</g>
</g>
<!-- Node228&#45;&gt;Node38 -->
<g id="edge37" class="edge">
<title>Node228&#45;&gt;Node38</title>
<path fill="none" stroke="#63b8ff" d="M233.05,-199.57C192.33,-186.51 137.89,-169.07 99.98,-156.92"/>
<polygon fill="#63b8ff" stroke="#63b8ff" points="231.85,-202.86 242.44,-202.58 233.99,-196.19 231.85,-202.86"/>
</g>
<!-- Node131 -->
<g id="node35" class="node">
<title>Node131</title>
<g id="a_node35"><a xlink:href="d__a__tag__hinit_8h.html" target="_top" xlink:title=" ">
<polygon fill="white" stroke="#666666" points="281.5,-162 166.5,-162 166.5,-121 281.5,-121 281.5,-162"/>
<text text-anchor="start" x="174.5" y="-150" font-family="Helvetica,sans-Serif" font-size="10.00">include/rel/d/a/tag</text>
<text text-anchor="start" x="174.5" y="-139" font-family="Helvetica,sans-Serif" font-size="10.00">/d_a_tag_hinit/d_a_tag</text>
<text text-anchor="middle" x="224" y="-128" font-family="Helvetica,sans-Serif" font-size="10.00">_hinit.h</text>
</a>
</g>
</g>
<!-- Node228&#45;&gt;Node131 -->
<g id="edge39" class="edge">
<title>Node228&#45;&gt;Node131</title>
<path fill="none" stroke="#63b8ff" d="M269.09,-194.53C260.17,-184.23 249.74,-172.2 241.16,-162.3"/>
<polygon fill="#63b8ff" stroke="#63b8ff" points="266.28,-196.63 275.48,-201.9 271.57,-192.05 266.28,-196.63"/>
</g>
<!-- Node157 -->
<g id="node36" class="node">
<title>Node157</title>
<g id="a_node36"><a xlink:href="d__bg__w_8cpp.html" target="_top" xlink:title=" ">
<polygon fill="white" stroke="#666666" points="406.5,-151 299.5,-151 299.5,-132 406.5,-132 406.5,-151"/>
<text text-anchor="middle" x="353" y="-139" font-family="Helvetica,sans-Serif" font-size="10.00">src/d/bg/d_bg_w.cpp</text>
</a>
</g>
</g>
<!-- Node228&#45;&gt;Node157 -->
<g id="edge41" class="edge">
<title>Node228&#45;&gt;Node157</title>
<path fill="none" stroke="#63b8ff" d="M308.63,-194.49C321.09,-179.89 336.51,-161.82 345.5,-151.29"/>
<polygon fill="#63b8ff" stroke="#63b8ff" points="306.15,-192.01 302.32,-201.89 311.48,-196.55 306.15,-192.01"/>
</g>
<!-- Node62 -->
<g id="node37" class="node">
<title>Node62</title>
<g id="a_node37"><a xlink:href="d__meter2_8cpp.html" target="_top" xlink:title=" ">
<polygon fill="white" stroke="#666666" points="553,-151 425,-151 425,-132 553,-132 553,-151"/>
<text text-anchor="middle" x="489" y="-139" font-family="Helvetica,sans-Serif" font-size="10.00">src/d/meter/d_meter2.cpp</text>
</a>
</g>
</g>
<!-- Node228&#45;&gt;Node62 -->
<g id="edge42" class="edge">
<title>Node228&#45;&gt;Node62</title>
<path fill="none" stroke="#63b8ff" d="M338.27,-199.02C378.69,-183.87 434.14,-163.07 465.28,-151.39"/>
<polygon fill="#63b8ff" stroke="#63b8ff" points="337.11,-195.72 328.98,-202.51 339.57,-202.27 337.11,-195.72"/>
</g>
<!-- Node38&#45;&gt;Node3 -->
<g id="edge38" class="edge">
<title>Node38&#45;&gt;Node3</title>
<path fill="none" stroke="#63b8ff" d="M113.19,-123.32C116.83,-122.47 120.46,-121.69 124,-121 267.57,-93.06 439.76,-79.5 526.04,-74.05"/>
<polygon fill="#63b8ff" stroke="#63b8ff" points="112.6,-119.86 103.73,-125.66 114.28,-126.66 112.6,-119.86"/>
</g>
<!-- Node101&#45;&gt;Node3 -->
<g id="edge47" class="edge">
<title>Node101&#45;&gt;Node3</title>
<path fill="none" stroke="#63b8ff" d="M670.74,-204.58C645.08,-196.44 617.9,-183.27 600,-162 579.73,-137.92 579.32,-97.73 580.27,-79.94"/>
<polygon fill="#63b8ff" stroke="#63b8ff" points="669.58,-207.89 680.16,-207.34 671.55,-201.17 669.58,-207.89"/>
</g>
<!-- Node82 -->
<g id="node42" class="node">
<title>Node82</title>
<g id="a_node42"><a xlink:href="d__com__static_8cpp.html" target="_top" xlink:title=" ">
<polygon fill="white" stroke="#666666" points="883,-151 743,-151 743,-132 883,-132 883,-151"/>
<text text-anchor="middle" x="813" y="-139" font-family="Helvetica,sans-Serif" font-size="10.00">src/d/com/d_com_static.cpp</text>
</a>
</g>
</g>
<!-- Node101&#45;&gt;Node82 -->
<g id="edge48" class="edge">
<title>Node101&#45;&gt;Node82</title>
<path fill="none" stroke="#63b8ff" d="M767.12,-189.63C780.36,-176.04 795.36,-160.63 804.5,-151.24"/>
<polygon fill="#63b8ff" stroke="#63b8ff" points="764.7,-187.1 760.24,-196.71 769.72,-191.99 764.7,-187.1"/>
</g>
<!-- Node102 -->
<g id="node43" class="node">
<title>Node102</title>
<g id="a_node43"><a xlink:href="d__save_8cpp.html" target="_top" xlink:title=" ">
<polygon fill="white" stroke="#666666" points="724.5,-151 609.5,-151 609.5,-132 724.5,-132 724.5,-151"/>
<text text-anchor="middle" x="667" y="-139" font-family="Helvetica,sans-Serif" font-size="10.00">src/d/save/d_save.cpp</text>
</a>
</g>
</g>
<!-- Node101&#45;&gt;Node102 -->
<g id="edge49" class="edge">
<title>Node101&#45;&gt;Node102</title>
<path fill="none" stroke="#63b8ff" d="M712.88,-189.63C699.64,-176.04 684.64,-160.63 675.5,-151.24"/>
<polygon fill="#63b8ff" stroke="#63b8ff" points="710.28,-191.99 719.76,-196.71 715.3,-187.1 710.28,-191.99"/>
</g>
</g>
</svg>
