<?xml version="1.0" encoding="UTF-8" standalone="no"?>
<!DOCTYPE svg PUBLIC "-//W3C//DTD SVG 1.1//EN"
 "http://www.w3.org/Graphics/SVG/1.1/DTD/svg11.dtd">
<!-- Generated by graphviz version 7.0.5 (20221223.1930)
 -->
<!-- Title: include/d/cc/d_cc_d.h Pages: 1 -->
<svg width="3998pt" height="368pt"
 viewBox="0.00 0.00 3998.00 368.00" xmlns="http://www.w3.org/2000/svg" xmlns:xlink="http://www.w3.org/1999/xlink">
<g id="graph0" class="graph" transform="scale(1 1) rotate(0) translate(4 364)">
<title>include/d/cc/d_cc_d.h</title>
<!-- Node1 -->
<g id="node1" class="node">
<title>Node1</title>
<g id="a_node1"><a xlink:title=" ">
<polygon fill="#999999" stroke="#666666" points="2232.5,-360 2121.5,-360 2121.5,-341 2232.5,-341 2232.5,-360"/>
<text text-anchor="middle" x="2177" y="-348" font-family="Helvetica,sans-Serif" font-size="10.00">include/d/cc/d_cc_d.h</text>
</a>
</g>
</g>
<!-- Node2 -->
<g id="node2" class="node">
<title>Node2</title>
<g id="a_node2"><a xlink:href="d__a__alink_8h.html" target="_top" xlink:title=" ">
<polygon fill="white" stroke="#666666" points="1996,-233.5 1880,-233.5 1880,-214.5 1996,-214.5 1996,-233.5"/>
<text text-anchor="middle" x="1938" y="-221.5" font-family="Helvetica,sans-Serif" font-size="10.00">include/d/a/d_a_alink.h</text>
</a>
</g>
</g>
<!-- Node1&#45;&gt;Node2 -->
<g id="edge1" class="edge">
<title>Node1&#45;&gt;Node2</title>
<path fill="none" stroke="#63b8ff" d="M2109.7,-343.8C2053.25,-337.64 1978.49,-325.78 1957,-305 1937.3,-285.95 1936.46,-250.47 1937.27,-233.93"/>
<polygon fill="#63b8ff" stroke="#63b8ff" points="2109.27,-347.27 2119.58,-344.84 2110,-340.31 2109.27,-347.27"/>
</g>
<!-- Node142 -->
<g id="node32" class="node">
<title>Node142</title>
<g id="a_node32"><a xlink:href="d__a__itembase_8h.html" target="_top" xlink:title=" ">
<polygon fill="white" stroke="#666666" points="382.5,-299.5 247.5,-299.5 247.5,-280.5 382.5,-280.5 382.5,-299.5"/>
<text text-anchor="middle" x="315" y="-287.5" font-family="Helvetica,sans-Serif" font-size="10.00">include/d/a/d_a_itembase.h</text>
</a>
</g>
</g>
<!-- Node1&#45;&gt;Node142 -->
<g id="edge35" class="edge">
<title>Node1&#45;&gt;Node142</title>
<path fill="none" stroke="#63b8ff" d="M2109.64,-348C1893.18,-343.07 1195.85,-326.52 619,-305 537.82,-301.97 444.5,-297.53 382.9,-294.47"/>
<polygon fill="#63b8ff" stroke="#63b8ff" points="2109.51,-351.49 2119.58,-348.22 2109.66,-344.5 2109.51,-351.49"/>
</g>
<!-- Node145 -->
<g id="node34" class="node">
<title>Node145</title>
<g id="a_node34"><a xlink:href="d__a__do_8h.html" target="_top" xlink:title=" ">
<polygon fill="white" stroke="#666666" points="96,-96 0,-96 0,-66 96,-66 96,-96"/>
<text text-anchor="start" x="8" y="-84" font-family="Helvetica,sans-Serif" font-size="10.00">include/rel/d/a/d_a</text>
<text text-anchor="middle" x="48" y="-73" font-family="Helvetica,sans-Serif" font-size="10.00">_do/d_a_do.h</text>
</a>
</g>
</g>
<!-- Node1&#45;&gt;Node145 -->
<g id="edge57" class="edge">
<title>Node1&#45;&gt;Node145</title>
<path fill="none" stroke="#63b8ff" d="M2109.84,-349.23C1789.52,-347.77 424.84,-339.54 238,-305 152.16,-289.13 116.12,-299.3 53,-239 17.54,-205.12 15.91,-180 26,-132 28.65,-119.38 34.7,-106.06 39.78,-96.34"/>
<polygon fill="#63b8ff" stroke="#63b8ff" points="2109.7,-352.73 2119.72,-349.27 2109.73,-345.73 2109.7,-352.73"/>
</g>
<!-- Node154 -->
<g id="node38" class="node">
<title>Node154</title>
<g id="a_node38"><a xlink:href="d__cc__s_8h.html" target="_top" xlink:title=" ">
<polygon fill="white" stroke="#666666" points="2151.5,-233.5 2040.5,-233.5 2040.5,-214.5 2151.5,-214.5 2151.5,-233.5"/>
<text text-anchor="middle" x="2096" y="-221.5" font-family="Helvetica,sans-Serif" font-size="10.00">include/d/cc/d_cc_s.h</text>
</a>
</g>
</g>
<!-- Node1&#45;&gt;Node154 -->
<g id="edge44" class="edge">
<title>Node1&#45;&gt;Node154</title>
<path fill="none" stroke="#63b8ff" d="M2148.47,-335.05C2136.46,-327.61 2123.36,-317.47 2115,-305 2099.89,-282.47 2096.74,-249.32 2096.13,-233.72"/>
<polygon fill="#63b8ff" stroke="#63b8ff" points="2146.45,-337.93 2156.86,-339.9 2149.95,-331.87 2146.45,-337.93"/>
</g>
<!-- Node155 -->
<g id="node39" class="node">
<title>Node155</title>
<g id="a_node39"><a xlink:href="d__bomb_8h.html" target="_top" xlink:title=" ">
<polygon fill="white" stroke="#666666" points="817.5,-299.5 716.5,-299.5 716.5,-280.5 817.5,-280.5 817.5,-299.5"/>
<text text-anchor="middle" x="767" y="-287.5" font-family="Helvetica,sans-Serif" font-size="10.00">include/d/d_bomb.h</text>
</a>
</g>
</g>
<!-- Node1&#45;&gt;Node155 -->
<g id="edge47" class="edge">
<title>Node1&#45;&gt;Node155</title>
<path fill="none" stroke="#63b8ff" d="M2109.8,-346.71C1866.18,-336.6 1032.38,-302.01 817.72,-293.1"/>
<polygon fill="#63b8ff" stroke="#63b8ff" points="2109.64,-350.21 2119.78,-347.13 2109.93,-343.21 2109.64,-350.21"/>
</g>
<!-- Node157 -->
<g id="node41" class="node">
<title>Node157</title>
<g id="a_node41"><a xlink:href="d__a__arrow_8h.html" target="_top" xlink:title=" ">
<polygon fill="white" stroke="#666666" points="2067.5,-305 1966.5,-305 1966.5,-275 2067.5,-275 2067.5,-305"/>
<text text-anchor="start" x="1974.5" y="-293" font-family="Helvetica,sans-Serif" font-size="10.00">include/rel/d/a/d_a</text>
<text text-anchor="middle" x="2017" y="-282" font-family="Helvetica,sans-Serif" font-size="10.00">_arrow/d_a_arrow.h</text>
</a>
</g>
</g>
<!-- Node1&#45;&gt;Node157 -->
<g id="edge50" class="edge">
<title>Node1&#45;&gt;Node157</title>
<path fill="none" stroke="#63b8ff" d="M2142.13,-336.75C2116.89,-327.52 2082.74,-315.04 2056.49,-305.44"/>
<polygon fill="#63b8ff" stroke="#63b8ff" points="2140.68,-339.95 2151.28,-340.1 2143.09,-333.37 2140.68,-339.95"/>
</g>
<!-- Node158 -->
<g id="node42" class="node">
<title>Node158</title>
<g id="a_node42"><a xlink:href="d__a__boomerang_8h.html" target="_top" xlink:title=" ">
<polygon fill="white" stroke="#666666" points="3163.5,-167.5 3014.5,-167.5 3014.5,-137.5 3163.5,-137.5 3163.5,-167.5"/>
<text text-anchor="start" x="3022.5" y="-155.5" font-family="Helvetica,sans-Serif" font-size="10.00">include/rel/d/a/d_a</text>
<text text-anchor="middle" x="3089" y="-144.5" font-family="Helvetica,sans-Serif" font-size="10.00">_boomerang/d_a_boomerang.h</text>
</a>
</g>
</g>
<!-- Node1&#45;&gt;Node158 -->
<g id="edge51" class="edge">
<title>Node1&#45;&gt;Node158</title>
<path fill="none" stroke="#63b8ff" d="M2198.7,-334.29C2210.68,-325.81 2225.77,-314.96 2239,-305 2256.19,-292.06 2258.69,-286.3 2277,-275 2335.88,-238.65 2351.14,-226.8 2418,-209 2474.41,-193.98 2851.31,-168.61 3014.22,-158.19"/>
<polygon fill="#63b8ff" stroke="#63b8ff" points="2196.86,-331.3 2190.71,-339.93 2200.9,-337.02 2196.86,-331.3"/>
</g>
<!-- Node159 -->
<g id="node43" class="node">
<title>Node159</title>
<g id="a_node43"><a xlink:href="d__a__canoe_8h.html" target="_top" xlink:title=" ">
<polygon fill="white" stroke="#666666" points="2230,-305 2124,-305 2124,-275 2230,-275 2230,-305"/>
<text text-anchor="start" x="2132" y="-293" font-family="Helvetica,sans-Serif" font-size="10.00">include/rel/d/a/d_a</text>
<text text-anchor="middle" x="2177" y="-282" font-family="Helvetica,sans-Serif" font-size="10.00">_canoe/d_a_canoe.h</text>
</a>
</g>
</g>
<!-- Node1&#45;&gt;Node159 -->
<g id="edge53" class="edge">
<title>Node1&#45;&gt;Node159</title>
<path fill="none" stroke="#63b8ff" d="M2177,-329.51C2177,-321.49 2177,-312.43 2177,-305.11"/>
<polygon fill="#63b8ff" stroke="#63b8ff" points="2173.5,-329.35 2177,-339.35 2180.5,-329.35 2173.5,-329.35"/>
</g>
<!-- Node160 -->
<g id="node44" class="node">
<title>Node160</title>
<g id="a_node44"><a xlink:href="d__a__crod_8h.html" target="_top" xlink:title=" ">
<polygon fill="white" stroke="#666666" points="627,-239 531,-239 531,-209 627,-209 627,-239"/>
<text text-anchor="start" x="539" y="-227" font-family="Helvetica,sans-Serif" font-size="10.00">include/rel/d/a/d_a</text>
<text text-anchor="middle" x="579" y="-216" font-family="Helvetica,sans-Serif" font-size="10.00">_crod/d_a_crod.h</text>
</a>
</g>
</g>
<!-- Node1&#45;&gt;Node160 -->
<g id="edge54" class="edge">
<title>Node1&#45;&gt;Node160</title>
<path fill="none" stroke="#63b8ff" d="M2109.92,-349.53C1840.11,-349.36 842.04,-345.95 707,-305 662.61,-291.54 618.41,-258.45 595.36,-239.31"/>
<polygon fill="#63b8ff" stroke="#63b8ff" points="2109.58,-353.03 2119.58,-349.53 2109.58,-346.03 2109.58,-353.03"/>
</g>
<!-- Node161 -->
<g id="node45" class="node">
<title>Node161</title>
<g id="a_node45"><a xlink:href="d__a__cstatue_8h.html" target="_top" xlink:title=" ">
<polygon fill="white" stroke="#666666" points="2404,-305 2286,-305 2286,-275 2404,-275 2404,-305"/>
<text text-anchor="start" x="2294" y="-293" font-family="Helvetica,sans-Serif" font-size="10.00">include/rel/d/a/d_a</text>
<text text-anchor="middle" x="2345" y="-282" font-family="Helvetica,sans-Serif" font-size="10.00">_cstatue/d_a_cstatue.h</text>
</a>
</g>
</g>
<!-- Node1&#45;&gt;Node161 -->
<g id="edge56" class="edge">
<title>Node1&#45;&gt;Node161</title>
<path fill="none" stroke="#63b8ff" d="M2213.25,-336.88C2239.79,-327.64 2275.85,-315.08 2303.53,-305.44"/>
<polygon fill="#63b8ff" stroke="#63b8ff" points="2212.24,-333.52 2203.94,-340.12 2214.54,-340.13 2212.24,-333.52"/>
</g>
<!-- Node162 -->
<g id="node46" class="node">
<title>Node162</title>
<g id="a_node46"><a xlink:href="d__a__horse_8h.html" target="_top" xlink:title=" ">
<polygon fill="white" stroke="#666666" points="3819.5,-167.5 3718.5,-167.5 3718.5,-137.5 3819.5,-137.5 3819.5,-167.5"/>
<text text-anchor="start" x="3726.5" y="-155.5" font-family="Helvetica,sans-Serif" font-size="10.00">include/rel/d/a/d_a</text>
<text text-anchor="middle" x="3769" y="-144.5" font-family="Helvetica,sans-Serif" font-size="10.00">_horse/d_a_horse.h</text>
</a>
</g>
</g>
<!-- Node1&#45;&gt;Node162 -->
<g id="edge58" class="edge">
<title>Node1&#45;&gt;Node162</title>
<path fill="none" stroke="#63b8ff" d="M2243.91,-344.32C2310,-338.1 2405.49,-325.81 2436,-305 2477.18,-276.91 2450.99,-234.19 2494,-209 2547.24,-177.82 3542.47,-177.62 3604,-173 3642.4,-170.11 3685.62,-164.93 3718.19,-160.64"/>
<polygon fill="#63b8ff" stroke="#63b8ff" points="2243.9,-340.8 2234.26,-345.2 2244.54,-347.78 2243.9,-340.8"/>
</g>
<!-- Node163 -->
<g id="node47" class="node">
<title>Node163</title>
<g id="a_node47"><a xlink:href="d__a__mg__rod_8h.html" target="_top" xlink:title=" ">
<polygon fill="white" stroke="#666666" points="3990,-167.5 3872,-167.5 3872,-137.5 3990,-137.5 3990,-167.5"/>
<text text-anchor="start" x="3880" y="-155.5" font-family="Helvetica,sans-Serif" font-size="10.00">include/rel/d/a/d_a</text>
<text text-anchor="middle" x="3931" y="-144.5" font-family="Helvetica,sans-Serif" font-size="10.00">_mg_rod/d_a_mg_rod.h</text>
</a>
</g>
</g>
<!-- Node1&#45;&gt;Node163 -->
<g id="edge62" class="edge">
<title>Node1&#45;&gt;Node163</title>
<path fill="none" stroke="#63b8ff" d="M2244.2,-344.04C2302.46,-338.12 2388.55,-326.48 2461,-305 2492.28,-295.73 2496.38,-283.06 2528,-275 3090.02,-131.72 3254.17,-250.24 3829,-173 3842.85,-171.14 3857.66,-168.62 3871.58,-166.01"/>
<polygon fill="#63b8ff" stroke="#63b8ff" points="2244.05,-340.54 2234.44,-345 2244.74,-347.5 2244.05,-340.54"/>
</g>
<!-- Node164 -->
<g id="node48" class="node">
<title>Node164</title>
<g id="a_node48"><a xlink:href="d__a__obj__carry_8h.html" target="_top" xlink:title=" ">
<polygon fill="white" stroke="#666666" points="3595,-173 3479,-173 3479,-132 3595,-132 3595,-173"/>
<text text-anchor="start" x="3487" y="-161" font-family="Helvetica,sans-Serif" font-size="10.00">include/rel/d/a/obj</text>
<text text-anchor="start" x="3487" y="-150" font-family="Helvetica,sans-Serif" font-size="10.00">/d_a_obj_carry/d_a_obj</text>
<text text-anchor="middle" x="3537" y="-139" font-family="Helvetica,sans-Serif" font-size="10.00">_carry.h</text>
</a>
</g>
</g>
<!-- Node1&#45;&gt;Node164 -->
<g id="edge64" class="edge">
<title>Node1&#45;&gt;Node164</title>
<path fill="none" stroke="#63b8ff" d="M2244.18,-343.76C2304.48,-337.4 2387.32,-325.26 2413,-305 2449.7,-276.04 2417.41,-235.39 2456,-209 2521.84,-163.97 3093.34,-177.13 3173,-173 3280.91,-167.4 3406.81,-160.6 3478.69,-156.68"/>
<polygon fill="#63b8ff" stroke="#63b8ff" points="2243.93,-340.27 2234.33,-344.77 2244.64,-347.24 2243.93,-340.27"/>
</g>
<!-- Node165 -->
<g id="node49" class="node">
<title>Node165</title>
<g id="a_node49"><a xlink:href="d__cc__d__nonmatching_8cpp.html" target="_top" xlink:title=" ">
<polygon fill="white" stroke="#666666" points="2701.5,-299.5 2536.5,-299.5 2536.5,-280.5 2701.5,-280.5 2701.5,-299.5"/>
<text text-anchor="middle" x="2619" y="-287.5" font-family="Helvetica,sans-Serif" font-size="10.00">src/d/cc/d_cc_d_nonmatching.cpp</text>
</a>
</g>
</g>
<!-- Node1&#45;&gt;Node165 -->
<g id="edge68" class="edge">
<title>Node1&#45;&gt;Node165</title>
<path fill="none" stroke="#63b8ff" d="M2244.12,-341.15C2313.67,-332.42 2425.5,-318.19 2522,-305 2533.55,-303.42 2545.86,-301.69 2557.7,-299.99"/>
<polygon fill="#63b8ff" stroke="#63b8ff" points="2243.89,-337.65 2234.41,-342.36 2244.76,-344.59 2243.89,-337.65"/>
</g>
<!-- Node166 -->
<g id="node50" class="node">
<title>Node166</title>
<g id="a_node50"><a xlink:href="d__cc__mass__s_8cpp.html" target="_top" xlink:title=" ">
<polygon fill="white" stroke="#666666" points="2824.5,-305 2719.5,-305 2719.5,-275 2824.5,-275 2824.5,-305"/>
<text text-anchor="start" x="2727.5" y="-293" font-family="Helvetica,sans-Serif" font-size="10.00">src/d/cc/d_cc_mass</text>
<text text-anchor="middle" x="2772" y="-282" font-family="Helvetica,sans-Serif" font-size="10.00">_s.cpp</text>
</a>
</g>
</g>
<!-- Node1&#45;&gt;Node166 -->
<g id="edge69" class="edge">
<title>Node1&#45;&gt;Node166</title>
<path fill="none" stroke="#63b8ff" d="M2243.95,-346.98C2345.46,-342.48 2544.15,-330.96 2711,-305 2713.68,-304.58 2716.43,-304.11 2719.19,-303.61"/>
<polygon fill="#63b8ff" stroke="#63b8ff" points="2244.01,-343.48 2234.17,-347.41 2244.31,-350.47 2244.01,-343.48"/>
</g>
<!-- Node3 -->
<g id="node3" class="node">
<title>Node3</title>
<g id="a_node3"><a xlink:href="d__com__inf__game_8h.html" target="_top" xlink:title=" ">
<polygon fill="#fff0f0" stroke="red" points="2072,-167.5 1962,-167.5 1962,-137.5 2072,-137.5 2072,-167.5"/>
<text text-anchor="start" x="1970" y="-155.5" font-family="Helvetica,sans-Serif" font-size="10.00">include/d/com/d_com</text>
<text text-anchor="middle" x="2017" y="-144.5" font-family="Helvetica,sans-Serif" font-size="10.00">_inf_game.h</text>
</a>
</g>
</g>
<!-- Node2&#45;&gt;Node3 -->
<g id="edge2" class="edge">
<title>Node2&#45;&gt;Node3</title>
<path fill="none" stroke="#63b8ff" d="M1956.45,-206.77C1969.88,-194.95 1987.89,-179.11 2000.77,-167.77"/>
<polygon fill="#63b8ff" stroke="#63b8ff" points="1954.34,-203.96 1949.14,-213.2 1958.96,-209.22 1954.34,-203.96"/>
</g>
<!-- Node13 -->
<g id="node8" class="node">
<title>Node13</title>
<g id="a_node8"><a xlink:href="d__a__alink_8cpp.html" target="_top" xlink:title=" ">
<polygon fill="white" stroke="#666666" points="1648.5,-24.5 1539.5,-24.5 1539.5,-5.5 1648.5,-5.5 1648.5,-24.5"/>
<text text-anchor="middle" x="1594" y="-12.5" font-family="Helvetica,sans-Serif" font-size="10.00">src/d/a/d_a_alink.cpp</text>
</a>
</g>
</g>
<!-- Node2&#45;&gt;Node13 -->
<g id="edge34" class="edge">
<title>Node2&#45;&gt;Node13</title>
<path fill="none" stroke="#63b8ff" d="M1868.23,-221.55C1610.05,-215.47 719.41,-187.94 636,-96 627.04,-86.12 626.77,-75.62 636,-66 669.69,-30.9 1462.61,-35.06 1511,-30 1522.77,-28.77 1535.4,-26.92 1547.17,-24.96"/>
<polygon fill="#63b8ff" stroke="#63b8ff" points="1868.09,-225.05 1878.17,-221.78 1868.25,-218.05 1868.09,-225.05"/>
</g>
<!-- Node4 -->
<g id="node4" class="node">
<title>Node4</title>
<g id="a_node4"><a xlink:href="d__a__npc_8h.html" target="_top" xlink:title=" ">
<polygon fill="#fff0f0" stroke="red" points="1502.5,-24.5 1391.5,-24.5 1391.5,-5.5 1502.5,-5.5 1502.5,-24.5"/>
<text text-anchor="middle" x="1447" y="-12.5" font-family="Helvetica,sans-Serif" font-size="10.00">include/d/a/d_a_npc.h</text>
</a>
</g>
</g>
<!-- Node3&#45;&gt;Node4 -->
<g id="edge3" class="edge">
<title>Node3&#45;&gt;Node4</title>
<path fill="none" stroke="#63b8ff" d="M1950.51,-149.94C1807.38,-145.9 1480.3,-132.7 1447,-96 1429.08,-76.25 1438.04,-41.13 1443.64,-24.8"/>
<polygon fill="#63b8ff" stroke="#63b8ff" points="1950.12,-153.43 1960.21,-150.21 1950.31,-146.43 1950.12,-153.43"/>
</g>
<!-- Node10 -->
<g id="node5" class="node">
<title>Node10</title>
<g id="a_node5"><a xlink:href="d__cc__uty_8h.html" target="_top" xlink:title=" ">
<polygon fill="#fff0f0" stroke="red" points="2149.5,-90.5 2030.5,-90.5 2030.5,-71.5 2149.5,-71.5 2149.5,-90.5"/>
<text text-anchor="middle" x="2090" y="-78.5" font-family="Helvetica,sans-Serif" font-size="10.00">include/d/cc/d_cc_uty.h</text>
</a>
</g>
</g>
<!-- Node3&#45;&gt;Node10 -->
<g id="edge4" class="edge">
<title>Node3&#45;&gt;Node10</title>
<path fill="none" stroke="#63b8ff" d="M2040.25,-129.36C2054.05,-116.23 2070.77,-100.31 2080.88,-90.68"/>
<polygon fill="#63b8ff" stroke="#63b8ff" points="2038.05,-126.63 2033.22,-136.06 2042.88,-131.7 2038.05,-126.63"/>
</g>
<!-- Node16 -->
<g id="node7" class="node">
<title>Node16</title>
<g id="a_node7"><a xlink:href="d__item_8h.html" target="_top" xlink:title=" ">
<polygon fill="#fff0f0" stroke="red" points="2621.5,-90.5 2526.5,-90.5 2526.5,-71.5 2621.5,-71.5 2621.5,-90.5"/>
<text text-anchor="middle" x="2574" y="-78.5" font-family="Helvetica,sans-Serif" font-size="10.00">include/d/d_item.h</text>
</a>
</g>
</g>
<!-- Node3&#45;&gt;Node16 -->
<g id="edge6" class="edge">
<title>Node3&#45;&gt;Node16</title>
<path fill="none" stroke="#63b8ff" d="M2083.52,-147C2179.87,-139.83 2363.64,-123.72 2518,-96 2525.6,-94.64 2533.69,-92.83 2541.29,-90.96"/>
<polygon fill="#63b8ff" stroke="#63b8ff" points="2083.43,-143.49 2073.72,-147.72 2083.95,-150.47 2083.43,-143.49"/>
</g>
<!-- Node3&#45;&gt;Node13 -->
<g id="edge27" class="edge">
<title>Node3&#45;&gt;Node13</title>
<path fill="none" stroke="#63b8ff" d="M1950.4,-151.19C1848.66,-149.29 1661.2,-139.76 1613,-96 1592.6,-77.48 1592.16,-41.42 1593.18,-24.79"/>
<polygon fill="#63b8ff" stroke="#63b8ff" points="1950.2,-154.68 1960.26,-151.35 1950.32,-147.68 1950.2,-154.68"/>
</g>
<!-- Node21 -->
<g id="node9" class="node">
<title>Node21</title>
<g id="a_node9"><a xlink:href="d__kantera__icon__meter_8h.html" target="_top" xlink:title=" ">
<polygon fill="#fff0f0" stroke="red" points="2268.5,-96 2167.5,-96 2167.5,-66 2268.5,-66 2268.5,-96"/>
<text text-anchor="start" x="2175.5" y="-84" font-family="Helvetica,sans-Serif" font-size="10.00">include/d/d_kantera</text>
<text text-anchor="middle" x="2218" y="-73" font-family="Helvetica,sans-Serif" font-size="10.00">_icon_meter.h</text>
</a>
</g>
</g>
<!-- Node3&#45;&gt;Node21 -->
<g id="edge8" class="edge">
<title>Node3&#45;&gt;Node21</title>
<path fill="none" stroke="#63b8ff" d="M2069.14,-133.47C2102.53,-121.92 2145.29,-107.14 2176.41,-96.38"/>
<polygon fill="#63b8ff" stroke="#63b8ff" points="2068.38,-130.03 2060.08,-136.6 2070.67,-136.64 2068.38,-130.03"/>
</g>
<!-- Node24 -->
<g id="node10" class="node">
<title>Node24</title>
<g id="a_node10"><a xlink:href="d__model_8h.html" target="_top" xlink:title=" ">
<polygon fill="#fff0f0" stroke="red" points="2389.5,-90.5 2286.5,-90.5 2286.5,-71.5 2389.5,-71.5 2389.5,-90.5"/>
<text text-anchor="middle" x="2338" y="-78.5" font-family="Helvetica,sans-Serif" font-size="10.00">include/d/d_model.h</text>
</a>
</g>
</g>
<!-- Node3&#45;&gt;Node24 -->
<g id="edge9" class="edge">
<title>Node3&#45;&gt;Node24</title>
<path fill="none" stroke="#63b8ff" d="M2083.55,-137.73C2136.34,-126.71 2211.97,-110.72 2278,-96 2285.2,-94.39 2292.88,-92.64 2300.26,-90.93"/>
<polygon fill="#63b8ff" stroke="#63b8ff" points="2082.87,-134.29 2073.79,-139.76 2084.3,-141.14 2082.87,-134.29"/>
</g>
<!-- Node26 -->
<g id="node11" class="node">
<title>Node26</title>
<g id="a_node11"><a xlink:href="d__name_8h.html" target="_top" xlink:title=" ">
<polygon fill="#fff0f0" stroke="red" points="2508.5,-90.5 2407.5,-90.5 2407.5,-71.5 2508.5,-71.5 2508.5,-90.5"/>
<text text-anchor="middle" x="2458" y="-78.5" font-family="Helvetica,sans-Serif" font-size="10.00">include/d/d_name.h</text>
</a>
</g>
</g>
<!-- Node3&#45;&gt;Node26 -->
<g id="edge10" class="edge">
<title>Node3&#45;&gt;Node26</title>
<path fill="none" stroke="#63b8ff" d="M2083.64,-143.64C2160.11,-134.2 2289.11,-116.98 2399,-96 2406.65,-94.54 2414.81,-92.75 2422.54,-90.95"/>
<polygon fill="#63b8ff" stroke="#63b8ff" points="2083.29,-140.15 2073.79,-144.85 2084.15,-147.1 2083.29,-140.15"/>
</g>
<!-- Node28 -->
<g id="node12" class="node">
<title>Node28</title>
<g id="a_node12"><a xlink:href="d__file__sel__info_8h.html" target="_top" xlink:title=" ">
<polygon fill="#fff0f0" stroke="red" points="2736,-96 2640,-96 2640,-66 2736,-66 2736,-96"/>
<text text-anchor="start" x="2648" y="-84" font-family="Helvetica,sans-Serif" font-size="10.00">include/d/file/d_file</text>
<text text-anchor="middle" x="2688" y="-73" font-family="Helvetica,sans-Serif" font-size="10.00">_sel_info.h</text>
</a>
</g>
</g>
<!-- Node3&#45;&gt;Node28 -->
<g id="edge11" class="edge">
<title>Node3&#45;&gt;Node28</title>
<path fill="none" stroke="#63b8ff" d="M2083.61,-148.77C2196.77,-143.4 2433.51,-128.99 2631,-96 2633.81,-95.53 2636.69,-95 2639.59,-94.42"/>
<polygon fill="#63b8ff" stroke="#63b8ff" points="2083.73,-145.26 2073.91,-149.22 2084.06,-152.25 2083.73,-145.26"/>
</g>
<!-- Node31 -->
<g id="node13" class="node">
<title>Node31</title>
<g id="a_node13"><a xlink:href="d__file__sel__warning_8h.html" target="_top" xlink:title=" ">
<polygon fill="#fff0f0" stroke="red" points="2850,-96 2754,-96 2754,-66 2850,-66 2850,-96"/>
<text text-anchor="start" x="2762" y="-84" font-family="Helvetica,sans-Serif" font-size="10.00">include/d/file/d_file</text>
<text text-anchor="middle" x="2802" y="-73" font-family="Helvetica,sans-Serif" font-size="10.00">_sel_warning.h</text>
</a>
</g>
</g>
<!-- Node3&#45;&gt;Node31 -->
<g id="edge12" class="edge">
<title>Node3&#45;&gt;Node31</title>
<path fill="none" stroke="#63b8ff" d="M2083.34,-150.09C2211.81,-146.57 2503.21,-134.64 2745,-96 2747.82,-95.55 2750.7,-95.03 2753.6,-94.46"/>
<polygon fill="#63b8ff" stroke="#63b8ff" points="2083.57,-146.59 2073.67,-150.35 2083.76,-153.58 2083.57,-146.59"/>
</g>
<!-- Node33 -->
<g id="node14" class="node">
<title>Node33</title>
<g id="a_node14"><a xlink:href="d__meter2_8h.html" target="_top" xlink:title=" ">
<polygon fill="#fff0f0" stroke="red" points="3002,-90.5 2868,-90.5 2868,-71.5 3002,-71.5 3002,-90.5"/>
<text text-anchor="middle" x="2935" y="-78.5" font-family="Helvetica,sans-Serif" font-size="10.00">include/d/meter/d_meter2.h</text>
</a>
</g>
</g>
<!-- Node3&#45;&gt;Node33 -->
<g id="edge13" class="edge">
<title>Node3&#45;&gt;Node33</title>
<path fill="none" stroke="#63b8ff" d="M2083.51,-149.75C2226.12,-145.41 2571.67,-131.81 2859,-96 2869.52,-94.69 2880.78,-92.85 2891.33,-90.94"/>
<polygon fill="#63b8ff" stroke="#63b8ff" points="2083.78,-146.24 2073.89,-150.03 2083.99,-153.23 2083.78,-146.24"/>
</g>
<!-- Node40 -->
<g id="node15" class="node">
<title>Node40</title>
<g id="a_node15"><a xlink:href="d__msg__object_8h.html" target="_top" xlink:title=" ">
<polygon fill="#fff0f0" stroke="red" points="1566,-96 1456,-96 1456,-66 1566,-66 1566,-96"/>
<text text-anchor="start" x="1464" y="-84" font-family="Helvetica,sans-Serif" font-size="10.00">include/d/msg/d_msg</text>
<text text-anchor="middle" x="1511" y="-73" font-family="Helvetica,sans-Serif" font-size="10.00">_object.h</text>
</a>
</g>
</g>
<!-- Node3&#45;&gt;Node40 -->
<g id="edge14" class="edge">
<title>Node3&#45;&gt;Node40</title>
<path fill="none" stroke="#63b8ff" d="M1950.21,-144.57C1864.3,-135.3 1710.58,-117.51 1580,-96 1575.54,-95.26 1570.92,-94.45 1566.3,-93.59"/>
<polygon fill="#63b8ff" stroke="#63b8ff" points="1949.8,-148.05 1960.12,-145.63 1950.55,-141.09 1949.8,-148.05"/>
</g>
<!-- Node56 -->
<g id="node16" class="node">
<title>Node56</title>
<g id="a_node16"><a xlink:href="d__s__logo_8h.html" target="_top" xlink:title=" ">
<polygon fill="#fff0f0" stroke="red" points="3133.5,-90.5 3020.5,-90.5 3020.5,-71.5 3133.5,-71.5 3133.5,-90.5"/>
<text text-anchor="middle" x="3077" y="-78.5" font-family="Helvetica,sans-Serif" font-size="10.00">include/d/s/d_s_logo.h</text>
</a>
</g>
</g>
<!-- Node3&#45;&gt;Node56 -->
<g id="edge17" class="edge">
<title>Node3&#45;&gt;Node56</title>
<path fill="none" stroke="#63b8ff" d="M2083.76,-149.11C2276.39,-142 2830.93,-119.98 3011,-96 3020.29,-94.76 3030.22,-92.93 3039.48,-91"/>
<polygon fill="#63b8ff" stroke="#63b8ff" points="2083.79,-145.61 2073.92,-149.47 2084.04,-152.6 2083.79,-145.61"/>
</g>
<!-- Node58 -->
<g id="node17" class="node">
<title>Node58</title>
<g id="a_node17"><a xlink:href="d__s__play_8h.html" target="_top" xlink:title=" ">
<polygon fill="#fff0f0" stroke="red" points="758.5,-90.5 645.5,-90.5 645.5,-71.5 758.5,-71.5 758.5,-90.5"/>
<text text-anchor="middle" x="702" y="-78.5" font-family="Helvetica,sans-Serif" font-size="10.00">include/d/s/d_s_play.h</text>
</a>
</g>
</g>
<!-- Node3&#45;&gt;Node58 -->
<g id="edge18" class="edge">
<title>Node3&#45;&gt;Node58</title>
<path fill="none" stroke="#63b8ff" d="M1950.48,-150.02C1726.25,-144.8 999.14,-125.94 767,-96 757.61,-94.79 747.57,-92.92 738.25,-90.93"/>
<polygon fill="#63b8ff" stroke="#63b8ff" points="1950.13,-153.51 1960.2,-150.25 1950.29,-146.51 1950.13,-153.51"/>
</g>
<!-- Node64 -->
<g id="node18" class="node">
<title>Node64</title>
<g id="a_node18"><a xlink:href="d__msg__scrn__base_8h.html" target="_top" xlink:title=" ">
<polygon fill="#fff0f0" stroke="red" points="875.5,-96 776.5,-96 776.5,-66 875.5,-66 875.5,-96"/>
<text text-anchor="start" x="784.5" y="-84" font-family="Helvetica,sans-Serif" font-size="10.00">include/msg/scrn/d</text>
<text text-anchor="middle" x="826" y="-73" font-family="Helvetica,sans-Serif" font-size="10.00">_msg_scrn_base.h</text>
</a>
</g>
</g>
<!-- Node3&#45;&gt;Node64 -->
<g id="edge19" class="edge">
<title>Node3&#45;&gt;Node64</title>
<path fill="none" stroke="#63b8ff" d="M1950.13,-149.84C1739.68,-144.35 1092.69,-125.48 885,-96 881.98,-95.57 878.88,-95.06 875.77,-94.49"/>
<polygon fill="#63b8ff" stroke="#63b8ff" points="1949.99,-153.34 1960.08,-150.1 1950.17,-146.34 1949.99,-153.34"/>
</g>
<!-- Node68 -->
<g id="node19" class="node">
<title>Node68</title>
<g id="a_node19"><a xlink:href="d__a__b__oh2_8h.html" target="_top" xlink:title=" ">
<polygon fill="white" stroke="#666666" points="1010,-96 894,-96 894,-66 1010,-66 1010,-96"/>
<text text-anchor="start" x="902" y="-84" font-family="Helvetica,sans-Serif" font-size="10.00">include/rel/d/a/b/d</text>
<text text-anchor="middle" x="952" y="-73" font-family="Helvetica,sans-Serif" font-size="10.00">_a_b_oh2/d_a_b_oh2.h</text>
</a>
</g>
</g>
<!-- Node3&#45;&gt;Node68 -->
<g id="edge20" class="edge">
<title>Node3&#45;&gt;Node68</title>
<path fill="none" stroke="#63b8ff" d="M1950.43,-151.25C1789.64,-149.89 1367.64,-141.85 1019,-96 1016.17,-95.63 1013.29,-95.2 1010.38,-94.74"/>
<polygon fill="#63b8ff" stroke="#63b8ff" points="1950.01,-154.74 1960.04,-151.32 1950.07,-147.74 1950.01,-154.74"/>
</g>
<!-- Node69 -->
<g id="node20" class="node">
<title>Node69</title>
<g id="a_node20"><a xlink:href="d__a__b__zant_8h.html" target="_top" xlink:title=" ">
<polygon fill="white" stroke="#666666" points="1149.5,-96 1028.5,-96 1028.5,-66 1149.5,-66 1149.5,-96"/>
<text text-anchor="start" x="1036.5" y="-84" font-family="Helvetica,sans-Serif" font-size="10.00">include/rel/d/a/b/d</text>
<text text-anchor="middle" x="1089" y="-73" font-family="Helvetica,sans-Serif" font-size="10.00">_a_b_zant/d_a_b_zant.h</text>
</a>
</g>
</g>
<!-- Node3&#45;&gt;Node69 -->
<g id="edge21" class="edge">
<title>Node3&#45;&gt;Node69</title>
<path fill="none" stroke="#63b8ff" d="M1950.25,-150.2C1805.51,-146.71 1452.22,-134.63 1159,-96 1155.93,-95.6 1152.79,-95.14 1149.62,-94.64"/>
<polygon fill="#63b8ff" stroke="#63b8ff" points="1949.95,-153.69 1960.03,-150.43 1950.12,-146.69 1949.95,-153.69"/>
</g>
<!-- Node70 -->
<g id="node21" class="node">
<title>Node70</title>
<g id="a_node21"><a xlink:href="d__a__andsw_8h.html" target="_top" xlink:title=" ">
<polygon fill="white" stroke="#666666" points="1278,-96 1168,-96 1168,-66 1278,-66 1278,-96"/>
<text text-anchor="start" x="1176" y="-84" font-family="Helvetica,sans-Serif" font-size="10.00">include/rel/d/a/d_a</text>
<text text-anchor="middle" x="1223" y="-73" font-family="Helvetica,sans-Serif" font-size="10.00">_andsw/d_a_andsw.h</text>
</a>
</g>
</g>
<!-- Node3&#45;&gt;Node70 -->
<g id="edge22" class="edge">
<title>Node3&#45;&gt;Node70</title>
<path fill="none" stroke="#63b8ff" d="M1950.57,-149.55C1821.89,-145.09 1529.92,-131.63 1287,-96 1284.19,-95.59 1281.31,-95.12 1278.42,-94.62"/>
<polygon fill="#63b8ff" stroke="#63b8ff" points="1950.14,-153.04 1960.25,-149.88 1950.38,-146.04 1950.14,-153.04"/>
</g>
<!-- Node71 -->
<g id="node22" class="node">
<title>Node71</title>
<g id="a_node22"><a xlink:href="d__a__cstaF_8h.html" target="_top" xlink:title=" ">
<polygon fill="white" stroke="#666666" points="1399.5,-96 1296.5,-96 1296.5,-66 1399.5,-66 1399.5,-96"/>
<text text-anchor="start" x="1304.5" y="-84" font-family="Helvetica,sans-Serif" font-size="10.00">include/rel/d/a/d_a</text>
<text text-anchor="middle" x="1348" y="-73" font-family="Helvetica,sans-Serif" font-size="10.00">_cstaF/d_a_cstaF.h</text>
</a>
</g>
</g>
<!-- Node3&#45;&gt;Node71 -->
<g id="edge23" class="edge">
<title>Node3&#45;&gt;Node71</title>
<path fill="none" stroke="#63b8ff" d="M1950.49,-147.93C1839.05,-141.39 1607.75,-125.36 1414,-96 1409.37,-95.3 1404.57,-94.47 1399.78,-93.58"/>
<polygon fill="#63b8ff" stroke="#63b8ff" points="1950.17,-151.42 1960.35,-148.51 1950.57,-144.43 1950.17,-151.42"/>
</g>
<!-- Node72 -->
<g id="node23" class="node">
<title>Node72</title>
<g id="a_node23"><a xlink:href="d__a__dmidna_8h.html" target="_top" xlink:title=" ">
<polygon fill="white" stroke="#666666" points="1738,-96 1622,-96 1622,-66 1738,-66 1738,-96"/>
<text text-anchor="start" x="1630" y="-84" font-family="Helvetica,sans-Serif" font-size="10.00">include/rel/d/a/d_a</text>
<text text-anchor="middle" x="1680" y="-73" font-family="Helvetica,sans-Serif" font-size="10.00">_dmidna/d_a_dmidna.h</text>
</a>
</g>
</g>
<!-- Node3&#45;&gt;Node72 -->
<g id="edge24" class="edge">
<title>Node3&#45;&gt;Node72</title>
<path fill="none" stroke="#63b8ff" d="M1950.38,-137.87C1895.73,-126.67 1816.34,-110.37 1747,-96 1744.21,-95.42 1741.35,-94.83 1738.46,-94.23"/>
<polygon fill="#63b8ff" stroke="#63b8ff" points="1949.68,-141.3 1960.18,-139.88 1951.08,-134.44 1949.68,-141.3"/>
</g>
<!-- Node73 -->
<g id="node24" class="node">
<title>Node73</title>
<g id="a_node24"><a xlink:href="d__a__econt_8h.html" target="_top" xlink:title=" ">
<polygon fill="white" stroke="#666666" points="1857.5,-96 1756.5,-96 1756.5,-66 1857.5,-66 1857.5,-96"/>
<text text-anchor="start" x="1764.5" y="-84" font-family="Helvetica,sans-Serif" font-size="10.00">include/rel/d/a/d_a</text>
<text text-anchor="middle" x="1807" y="-73" font-family="Helvetica,sans-Serif" font-size="10.00">_econt/d_a_econt.h</text>
</a>
</g>
</g>
<!-- Node3&#45;&gt;Node73 -->
<g id="edge25" class="edge">
<title>Node3&#45;&gt;Node73</title>
<path fill="none" stroke="#63b8ff" d="M1962.31,-133.4C1927.54,-121.89 1883.13,-107.19 1850.71,-96.47"/>
<polygon fill="#63b8ff" stroke="#63b8ff" points="1961.2,-136.72 1971.8,-136.54 1963.4,-130.07 1961.2,-136.72"/>
</g>
<!-- Node74 -->
<g id="node25" class="node">
<title>Node74</title>
<g id="a_node25"><a xlink:href="d__a__set__bgobj_8h.html" target="_top" xlink:title=" ">
<polygon fill="white" stroke="#666666" points="2012.5,-96 1875.5,-96 1875.5,-66 2012.5,-66 2012.5,-96"/>
<text text-anchor="start" x="1883.5" y="-84" font-family="Helvetica,sans-Serif" font-size="10.00">include/rel/d/a/d_a</text>
<text text-anchor="middle" x="1944" y="-73" font-family="Helvetica,sans-Serif" font-size="10.00">_set_bgobj/d_a_set_bgobj.h</text>
</a>
</g>
</g>
<!-- Node3&#45;&gt;Node74 -->
<g id="edge26" class="edge">
<title>Node3&#45;&gt;Node74</title>
<path fill="none" stroke="#63b8ff" d="M1993.68,-129.3C1982.36,-118.52 1969.09,-105.88 1959.11,-96.38"/>
<polygon fill="#63b8ff" stroke="#63b8ff" points="1991.12,-131.7 2000.78,-136.06 1995.95,-126.63 1991.12,-131.7"/>
</g>
<!-- Node99 -->
<g id="node26" class="node">
<title>Node99</title>
<g id="a_node26"><a xlink:href="d__a__itembase_8cpp.html" target="_top" xlink:title=" ">
<polygon fill="white" stroke="#666666" points="551,-90.5 423,-90.5 423,-71.5 551,-71.5 551,-90.5"/>
<text text-anchor="middle" x="487" y="-78.5" font-family="Helvetica,sans-Serif" font-size="10.00">src/d/a/d_a_itembase.cpp</text>
</a>
</g>
</g>
<!-- Node3&#45;&gt;Node99 -->
<g id="edge28" class="edge">
<title>Node3&#45;&gt;Node99</title>
<path fill="none" stroke="#63b8ff" d="M1950.25,-150.08C1750.61,-145.58 1140.69,-129.83 636,-96 608.26,-94.14 577.68,-91.39 551.48,-88.82"/>
<polygon fill="#63b8ff" stroke="#63b8ff" points="1950.1,-153.58 1960.17,-150.31 1950.26,-146.58 1950.1,-153.58"/>
</g>
<!-- Node78 -->
<g id="node27" class="node">
<title>Node78</title>
<g id="a_node27"><a xlink:href="d__a__player_8cpp.html" target="_top" xlink:title=" ">
<polygon fill="white" stroke="#666666" points="3388,-90.5 3274,-90.5 3274,-71.5 3388,-71.5 3388,-90.5"/>
<text text-anchor="middle" x="3331" y="-78.5" font-family="Helvetica,sans-Serif" font-size="10.00">src/d/a/d_a_player.cpp</text>
</a>
</g>
</g>
<!-- Node3&#45;&gt;Node78 -->
<g id="edge29" class="edge">
<title>Node3&#45;&gt;Node78</title>
<path fill="none" stroke="#63b8ff" d="M2083.41,-149.99C2307.27,-144.67 3033.18,-125.54 3265,-96 3274.53,-94.79 3284.72,-92.91 3294.18,-90.93"/>
<polygon fill="#63b8ff" stroke="#63b8ff" points="2083.62,-146.48 2073.7,-150.22 2083.78,-153.48 2083.62,-146.48"/>
</g>
<!-- Node103 -->
<g id="node28" class="node">
<title>Node103</title>
<g id="a_node28"><a xlink:href="d__bg__w_8cpp.html" target="_top" xlink:title=" ">
<polygon fill="white" stroke="#666666" points="3805.5,-90.5 3698.5,-90.5 3698.5,-71.5 3805.5,-71.5 3805.5,-90.5"/>
<text text-anchor="middle" x="3752" y="-78.5" font-family="Helvetica,sans-Serif" font-size="10.00">src/d/bg/d_bg_w.cpp</text>
</a>
</g>
</g>
<!-- Node3&#45;&gt;Node103 -->
<g id="edge30" class="edge">
<title>Node3&#45;&gt;Node103</title>
<path fill="none" stroke="#63b8ff" d="M2083.64,-150.02C2374.84,-143.45 3528.08,-116.37 3689,-96 3698.23,-94.83 3708.09,-92.95 3717.21,-90.94"/>
<polygon fill="#63b8ff" stroke="#63b8ff" points="2083.87,-146.51 2073.95,-150.24 2084.03,-153.51 2083.87,-146.51"/>
</g>
<!-- Node104 -->
<g id="node29" class="node">
<title>Node104</title>
<g id="a_node29"><a xlink:href="d__cc__s_8cpp.html" target="_top" xlink:title=" ">
<polygon fill="white" stroke="#666666" points="3256,-90.5 3152,-90.5 3152,-71.5 3256,-71.5 3256,-90.5"/>
<text text-anchor="middle" x="3204" y="-78.5" font-family="Helvetica,sans-Serif" font-size="10.00">src/d/cc/d_cc_s.cpp</text>
</a>
</g>
</g>
<!-- Node3&#45;&gt;Node104 -->
<g id="edge31" class="edge">
<title>Node3&#45;&gt;Node104</title>
<path fill="none" stroke="#63b8ff" d="M2083.87,-149.75C2293.55,-144.03 2936.43,-124.57 3143,-96 3151.72,-94.79 3161.03,-92.95 3169.68,-90.99"/>
<polygon fill="#63b8ff" stroke="#63b8ff" points="2083.86,-146.25 2073.96,-150.02 2084.05,-153.25 2083.86,-146.25"/>
</g>
<!-- Node105 -->
<g id="node30" class="node">
<title>Node105</title>
<g id="a_node30"><a xlink:href="d__com__static_8cpp.html" target="_top" xlink:title=" ">
<polygon fill="white" stroke="#666666" points="3680,-90.5 3540,-90.5 3540,-71.5 3680,-71.5 3680,-90.5"/>
<text text-anchor="middle" x="3610" y="-78.5" font-family="Helvetica,sans-Serif" font-size="10.00">src/d/com/d_com_static.cpp</text>
</a>
</g>
</g>
<!-- Node3&#45;&gt;Node105 -->
<g id="edge32" class="edge">
<title>Node3&#45;&gt;Node105</title>
<path fill="none" stroke="#63b8ff" d="M2083.47,-150.29C2337.1,-145.49 3244.11,-126.53 3531,-96 3542.36,-94.79 3554.54,-92.92 3565.86,-90.94"/>
<polygon fill="#63b8ff" stroke="#63b8ff" points="2083.69,-146.79 2073.76,-150.47 2083.82,-153.79 2083.69,-146.79"/>
</g>
<!-- Node38 -->
<g id="node31" class="node">
<title>Node38</title>
<g id="a_node31"><a xlink:href="d__save_8cpp.html" target="_top" xlink:title=" ">
<polygon fill="white" stroke="#666666" points="3521.5,-90.5 3406.5,-90.5 3406.5,-71.5 3521.5,-71.5 3521.5,-90.5"/>
<text text-anchor="middle" x="3464" y="-78.5" font-family="Helvetica,sans-Serif" font-size="10.00">src/d/save/d_save.cpp</text>
</a>
</g>
</g>
<!-- Node3&#45;&gt;Node38 -->
<g id="edge33" class="edge">
<title>Node3&#45;&gt;Node38</title>
<path fill="none" stroke="#63b8ff" d="M2083.48,-150.29C2322.56,-145.7 3138.14,-128.03 3397,-96 3406.67,-94.8 3417.02,-92.94 3426.62,-90.95"/>
<polygon fill="#63b8ff" stroke="#63b8ff" points="2083.65,-146.78 2073.72,-150.47 2083.79,-153.78 2083.65,-146.78"/>
</g>
<!-- Node11 -->
<g id="node6" class="node">
<title>Node11</title>
<g id="a_node6"><a xlink:href="d__a__e__wb_8h.html" target="_top" xlink:title=" ">
<polygon fill="#fff0f0" stroke="red" points="3055,-30 2945,-30 2945,0 3055,0 3055,-30"/>
<text text-anchor="start" x="2953" y="-18" font-family="Helvetica,sans-Serif" font-size="10.00">include/rel/d/a/e/d</text>
<text text-anchor="middle" x="3000" y="-7" font-family="Helvetica,sans-Serif" font-size="10.00">_a_e_wb/d_a_e_wb.h</text>
</a>
</g>
</g>
<!-- Node10&#45;&gt;Node11 -->
<g id="edge5" class="edge">
<title>Node10&#45;&gt;Node11</title>
<path fill="none" stroke="#63b8ff" d="M2140.36,-68.93C2146.61,-67.81 2152.94,-66.79 2159,-66 2453.42,-27.57 2809.73,-18.65 2944.64,-16.6"/>
<polygon fill="#63b8ff" stroke="#63b8ff" points="2139.91,-65.45 2130.73,-70.76 2141.21,-72.33 2139.91,-65.45"/>
</g>
<!-- Node16&#45;&gt;Node13 -->
<g id="edge7" class="edge">
<title>Node16&#45;&gt;Node13</title>
<path fill="none" stroke="#63b8ff" d="M2531.46,-68.47C2526.94,-67.51 2522.39,-66.66 2518,-66 2190.95,-16.73 1792.34,-14.37 1648.79,-15.33"/>
<polygon fill="#63b8ff" stroke="#63b8ff" points="2530.52,-71.85 2541.05,-70.67 2532.09,-65.02 2530.52,-71.85"/>
</g>
<!-- Node40&#45;&gt;Node4 -->
<g id="edge15" class="edge">
<title>Node40&#45;&gt;Node4</title>
<path fill="none" stroke="#63b8ff" d="M1488.94,-57.94C1477.58,-46.58 1464.36,-33.36 1455.84,-24.84"/>
<polygon fill="#63b8ff" stroke="#63b8ff" points="1486.18,-60.13 1495.73,-64.73 1491.13,-55.18 1486.18,-60.13"/>
</g>
<!-- Node40&#45;&gt;Node13 -->
<g id="edge16" class="edge">
<title>Node40&#45;&gt;Node13</title>
<path fill="none" stroke="#63b8ff" d="M1538.32,-58.93C1553.34,-47.35 1571.17,-33.61 1582.53,-24.84"/>
<polygon fill="#63b8ff" stroke="#63b8ff" points="1536.4,-55.99 1530.62,-64.87 1540.68,-61.54 1536.4,-55.99"/>
</g>
<!-- Node142&#45;&gt;Node99 -->
<g id="edge43" class="edge">
<title>Node142&#45;&gt;Node99</title>
<path fill="none" stroke="#63b8ff" d="M327.84,-271.48C339.96,-255.09 358.8,-230.06 376,-209 413.23,-163.41 460.43,-111.12 478.99,-90.75"/>
<polygon fill="#63b8ff" stroke="#63b8ff" points="325.24,-269.1 322.13,-279.23 330.87,-273.25 325.24,-269.1"/>
</g>
<!-- Node143 -->
<g id="node33" class="node">
<title>Node143</title>
<g id="a_node33"><a xlink:href="d__a__item__static_8h.html" target="_top" xlink:title=" ">
<polygon fill="#fff0f0" stroke="red" points="142.5,-167.5 35.5,-167.5 35.5,-137.5 142.5,-137.5 142.5,-167.5"/>
<text text-anchor="start" x="43.5" y="-155.5" font-family="Helvetica,sans-Serif" font-size="10.00">include/d/a/d_a_item</text>
<text text-anchor="middle" x="89" y="-144.5" font-family="Helvetica,sans-Serif" font-size="10.00">_static.h</text>
</a>
</g>
</g>
<!-- Node142&#45;&gt;Node143 -->
<g id="edge36" class="edge">
<title>Node142&#45;&gt;Node143</title>
<path fill="none" stroke="#63b8ff" d="M236.15,-283.98C170.9,-277.99 85.55,-265.26 64,-239 46.93,-218.2 64.61,-186.17 77.69,-167.79"/>
<polygon fill="#63b8ff" stroke="#63b8ff" points="235.48,-287.44 245.75,-284.82 236.09,-280.46 235.48,-287.44"/>
</g>
<!-- Node147 -->
<g id="node35" class="node">
<title>Node147</title>
<g id="a_node35"><a xlink:href="d__a__itembase__static_8h.html" target="_top" xlink:title=" ">
<polygon fill="#fff0f0" stroke="red" points="201,-239 73,-239 73,-209 201,-209 201,-239"/>
<text text-anchor="start" x="81" y="-227" font-family="Helvetica,sans-Serif" font-size="10.00">include/d/a/d_a_itembase</text>
<text text-anchor="middle" x="137" y="-216" font-family="Helvetica,sans-Serif" font-size="10.00">_static.h</text>
</a>
</g>
</g>
<!-- Node142&#45;&gt;Node147 -->
<g id="edge38" class="edge">
<title>Node142&#45;&gt;Node147</title>
<path fill="none" stroke="#63b8ff" d="M279.6,-276.27C250.09,-265.66 208.05,-250.55 177.27,-239.48"/>
<polygon fill="#63b8ff" stroke="#63b8ff" points="278.23,-279.5 288.83,-279.59 280.6,-272.91 278.23,-279.5"/>
</g>
<!-- Node149 -->
<g id="node36" class="node">
<title>Node149</title>
<g id="a_node36"><a xlink:href="d__a__shop__item__static_8h.html" target="_top" xlink:title=" ">
<polygon fill="#fff0f0" stroke="red" points="328.5,-239 219.5,-239 219.5,-209 328.5,-209 328.5,-239"/>
<text text-anchor="start" x="227.5" y="-227" font-family="Helvetica,sans-Serif" font-size="10.00">include/d/a/d_a_shop</text>
<text text-anchor="middle" x="274" y="-216" font-family="Helvetica,sans-Serif" font-size="10.00">_item_static.h</text>
</a>
</g>
</g>
<!-- Node142&#45;&gt;Node149 -->
<g id="edge40" class="edge">
<title>Node142&#45;&gt;Node149</title>
<path fill="none" stroke="#63b8ff" d="M303.27,-270.7C296.87,-260.7 289.06,-248.51 283.12,-239.23"/>
<polygon fill="#63b8ff" stroke="#63b8ff" points="300.14,-272.29 308.48,-278.83 306.04,-268.52 300.14,-272.29"/>
</g>
<!-- Node153 -->
<g id="node37" class="node">
<title>Node153</title>
<g id="a_node37"><a xlink:href="d__event_8h.html" target="_top" xlink:title=" ">
<polygon fill="#fff0f0" stroke="red" points="513,-233.5 385,-233.5 385,-214.5 513,-214.5 513,-233.5"/>
<text text-anchor="middle" x="449" y="-221.5" font-family="Helvetica,sans-Serif" font-size="10.00">include/d/event/d_event.h</text>
</a>
</g>
</g>
<!-- Node142&#45;&gt;Node153 -->
<g id="edge41" class="edge">
<title>Node142&#45;&gt;Node153</title>
<path fill="none" stroke="#63b8ff" d="M343.75,-275.27C370.02,-262.72 408.1,-244.54 430.53,-233.82"/>
<polygon fill="#63b8ff" stroke="#63b8ff" points="342.51,-271.98 335,-279.45 345.53,-278.3 342.51,-271.98"/>
</g>
<!-- Node143&#45;&gt;Node145 -->
<g id="edge37" class="edge">
<title>Node143&#45;&gt;Node145</title>
<path fill="none" stroke="#63b8ff" d="M74.77,-127.38C68.68,-117.05 61.76,-105.32 56.48,-96.38"/>
<polygon fill="#63b8ff" stroke="#63b8ff" points="71.64,-128.96 79.74,-135.8 77.67,-125.4 71.64,-128.96"/>
</g>
<!-- Node147&#45;&gt;Node143 -->
<g id="edge39" class="edge">
<title>Node147&#45;&gt;Node143</title>
<path fill="none" stroke="#63b8ff" d="M120.57,-199.2C113.37,-188.79 105.17,-176.92 98.93,-167.88"/>
<polygon fill="#63b8ff" stroke="#63b8ff" points="117.63,-201.11 126.19,-207.35 123.39,-197.14 117.63,-201.11"/>
</g>
<!-- Node153&#45;&gt;Node3 -->
<g id="edge42" class="edge">
<title>Node153&#45;&gt;Node3</title>
<path fill="none" stroke="#63b8ff" d="M501.02,-212.02C508.05,-210.83 515.18,-209.78 522,-209 809.09,-176.33 1726.47,-158.53 1961.65,-154.42"/>
<polygon fill="#63b8ff" stroke="#63b8ff" points="500.47,-208.56 491.25,-213.78 501.71,-215.45 500.47,-208.56"/>
</g>
<!-- Node154&#45;&gt;Node3 -->
<g id="edge45" class="edge">
<title>Node154&#45;&gt;Node3</title>
<path fill="none" stroke="#63b8ff" d="M2077.55,-206.77C2064.12,-194.95 2046.11,-179.11 2033.23,-167.77"/>
<polygon fill="#63b8ff" stroke="#63b8ff" points="2075.04,-209.22 2084.86,-213.2 2079.66,-203.96 2075.04,-209.22"/>
</g>
<!-- Node154&#45;&gt;Node104 -->
<g id="edge46" class="edge">
<title>Node154&#45;&gt;Node104</title>
<path fill="none" stroke="#63b8ff" d="M2162.91,-215.81C2362.63,-194.22 2952.36,-129.34 3143,-96 3151.03,-94.6 3159.59,-92.81 3167.68,-90.99"/>
<polygon fill="#63b8ff" stroke="#63b8ff" points="2162.8,-212.31 2153.23,-216.86 2163.55,-219.27 2162.8,-212.31"/>
</g>
<!-- Node155&#45;&gt;Node13 -->
<g id="edge48" class="edge">
<title>Node155&#45;&gt;Node13</title>
<path fill="none" stroke="#63b8ff" d="M765.53,-269.2C763.55,-252.24 758.9,-227.67 748,-209 705.88,-136.85 568.14,-126.26 626,-66 660.08,-30.51 1462.06,-35.1 1511,-30 1522.77,-28.77 1535.41,-26.92 1547.17,-24.96"/>
<polygon fill="#63b8ff" stroke="#63b8ff" points="762.03,-269.32 766.45,-278.95 769,-268.67 762.03,-269.32"/>
</g>
<!-- Node156 -->
<g id="node40" class="node">
<title>Node156</title>
<g id="a_node40"><a xlink:href="d__bomb_8cpp.html" target="_top" xlink:title=" ">
<polygon fill="white" stroke="#666666" points="739,-233.5 645,-233.5 645,-214.5 739,-214.5 739,-233.5"/>
<text text-anchor="middle" x="692" y="-221.5" font-family="Helvetica,sans-Serif" font-size="10.00">src/d/d_bomb.cpp</text>
</a>
</g>
</g>
<!-- Node155&#45;&gt;Node156 -->
<g id="edge49" class="edge">
<title>Node155&#45;&gt;Node156</title>
<path fill="none" stroke="#63b8ff" d="M747.88,-272.69C733.4,-260.33 714.06,-243.82 702.34,-233.82"/>
<polygon fill="#63b8ff" stroke="#63b8ff" points="745.54,-275.29 755.42,-279.12 750.09,-269.96 745.54,-275.29"/>
</g>
<!-- Node158&#45;&gt;Node78 -->
<g id="edge52" class="edge">
<title>Node158&#45;&gt;Node78</title>
<path fill="none" stroke="#63b8ff" d="M3150.26,-133.91C3197.95,-120.21 3262.16,-101.77 3299.82,-90.96"/>
<polygon fill="#63b8ff" stroke="#63b8ff" points="3149.54,-130.47 3140.89,-136.6 3151.47,-137.2 3149.54,-130.47"/>
</g>
<!-- Node160&#45;&gt;Node13 -->
<g id="edge55" class="edge">
<title>Node160&#45;&gt;Node13</title>
<path fill="none" stroke="#63b8ff" d="M532.93,-204.13C468.32,-175.17 363.99,-117.68 414,-66 456.4,-22.18 1450.33,-36.08 1511,-30 1522.92,-28.8 1535.72,-26.94 1547.62,-24.95"/>
<polygon fill="#63b8ff" stroke="#63b8ff" points="531.37,-207.27 541.93,-208.09 534.19,-200.86 531.37,-207.27"/>
</g>
<!-- Node162&#45;&gt;Node11 -->
<g id="edge59" class="edge">
<title>Node162&#45;&gt;Node11</title>
<path fill="none" stroke="#63b8ff" d="M3827.47,-133.17C3868.41,-117.44 3911.59,-93.08 3886,-66 3857.39,-35.73 3244.9,-20.92 3055.38,-17.05"/>
<polygon fill="#63b8ff" stroke="#63b8ff" points="3826.46,-129.81 3818.29,-136.55 3828.89,-136.38 3826.46,-129.81"/>
</g>
<!-- Node162&#45;&gt;Node13 -->
<g id="edge60" class="edge">
<title>Node162&#45;&gt;Node13</title>
<path fill="none" stroke="#63b8ff" d="M3801.2,-130.74C3825.53,-112.6 3851.66,-86.11 3832,-66 3812.3,-45.86 1990.26,-21.16 1648.8,-16.7"/>
<polygon fill="#63b8ff" stroke="#63b8ff" points="3799.41,-127.72 3793.29,-136.37 3803.47,-133.42 3799.41,-127.72"/>
</g>
<!-- Node162&#45;&gt;Node103 -->
<g id="edge61" class="edge">
<title>Node162&#45;&gt;Node103</title>
<path fill="none" stroke="#63b8ff" d="M3762.75,-125.96C3759.72,-113.57 3756.28,-99.49 3754.12,-90.68"/>
<polygon fill="#63b8ff" stroke="#63b8ff" points="3759.34,-126.75 3765.12,-135.63 3766.14,-125.08 3759.34,-126.75"/>
</g>
<!-- Node163&#45;&gt;Node13 -->
<g id="edge63" class="edge">
<title>Node163&#45;&gt;Node13</title>
<path fill="none" stroke="#63b8ff" d="M3916.32,-127.94C3901.99,-107.35 3878.12,-78.8 3849,-66 3797.05,-43.16 1989.2,-20.67 1648.92,-16.64"/>
<polygon fill="#63b8ff" stroke="#63b8ff" points="3913.27,-129.67 3921.73,-136.05 3919.09,-125.79 3913.27,-129.67"/>
</g>
<!-- Node164&#45;&gt;Node13 -->
<g id="edge65" class="edge">
<title>Node164&#45;&gt;Node13</title>
<path fill="none" stroke="#63b8ff" d="M3606.68,-142.23C3684.63,-131.16 3801.8,-112.1 3815,-96 3823.45,-85.69 3824.32,-75.53 3815,-66 3795.46,-46.02 1989.2,-21.21 1648.94,-16.72"/>
<polygon fill="#63b8ff" stroke="#63b8ff" points="3606.4,-138.74 3596.98,-143.6 3607.37,-145.67 3606.4,-138.74"/>
</g>
<!-- Node164&#45;&gt;Node105 -->
<g id="edge66" class="edge">
<title>Node164&#45;&gt;Node105</title>
<path fill="none" stroke="#63b8ff" d="M3566.03,-123.86C3578.41,-112.07 3591.99,-99.14 3600.74,-90.82"/>
<polygon fill="#63b8ff" stroke="#63b8ff" points="3563.65,-121.3 3558.82,-130.73 3568.48,-126.37 3563.65,-121.3"/>
</g>
<!-- Node164&#45;&gt;Node38 -->
<g id="edge67" class="edge">
<title>Node164&#45;&gt;Node38</title>
<path fill="none" stroke="#63b8ff" d="M3507.97,-123.86C3495.59,-112.07 3482.01,-99.14 3473.26,-90.82"/>
<polygon fill="#63b8ff" stroke="#63b8ff" points="3505.52,-126.37 3515.18,-130.73 3510.35,-121.3 3505.52,-126.37"/>
</g>
</g>
</svg>
