<?xml version="1.0" encoding="UTF-8" standalone="no"?>
<!DOCTYPE svg PUBLIC "-//W3C//DTD SVG 1.1//EN"
 "http://www.w3.org/Graphics/SVG/1.1/DTD/svg11.dtd">
<!-- Generated by graphviz version 7.0.5 (20221223.1930)
 -->
<!-- Title: include/d/d_cam_param.h Pages: 1 -->
<svg width="5505pt" height="357pt"
 viewBox="0.00 0.00 5505.41 357.00" xmlns="http://www.w3.org/2000/svg" xmlns:xlink="http://www.w3.org/1999/xlink">
<g id="graph0" class="graph" transform="scale(1 1) rotate(0) translate(4 353)">
<title>include/d/d_cam_param.h</title>
<!-- Node1 -->
<g id="node1" class="node">
<title>Node1</title>
<g id="a_node1"><a xlink:title=" ">
<polygon fill="#999999" stroke="#666666" points="1687.91,-349 1559.91,-349 1559.91,-330 1687.91,-330 1687.91,-349"/>
<text text-anchor="middle" x="1623.91" y="-337" font-family="Helvetica,sans-Serif" font-size="10.00">include/d/d_cam_param.h</text>
</a>
</g>
</g>
<!-- Node2 -->
<g id="node2" class="node">
<title>Node2</title>
<g id="a_node2"><a xlink:href="d__camera_8h.html" target="_top" xlink:title=" ">
<polygon fill="white" stroke="#666666" points="265.41,-294 156.41,-294 156.41,-275 265.41,-275 265.41,-294"/>
<text text-anchor="middle" x="210.91" y="-282" font-family="Helvetica,sans-Serif" font-size="10.00">include/d/d_camera.h</text>
</a>
</g>
</g>
<!-- Node1&#45;&gt;Node2 -->
<g id="edge1" class="edge">
<title>Node1&#45;&gt;Node2</title>
<path fill="none" stroke="#63b8ff" d="M1548.28,-335.66C1295.7,-326.19 484.91,-295.78 265.88,-287.56"/>
<polygon fill="#63b8ff" stroke="#63b8ff" points="1547.89,-339.15 1558.01,-336.03 1548.15,-332.16 1547.89,-339.15"/>
</g>
<!-- Node106 -->
<g id="node46" class="node">
<title>Node106</title>
<g id="a_node46"><a xlink:href="d__cam__param_8cpp.html" target="_top" xlink:title=" ">
<polygon fill="white" stroke="#666666" points="5497.41,-96 5376.41,-96 5376.41,-77 5497.41,-77 5497.41,-96"/>
<text text-anchor="middle" x="5436.91" y="-84" font-family="Helvetica,sans-Serif" font-size="10.00">src/d/d_cam_param.cpp</text>
</a>
</g>
</g>
<!-- Node1&#45;&gt;Node106 -->
<g id="edge59" class="edge">
<title>Node1&#45;&gt;Node106</title>
<path fill="none" stroke="#63b8ff" d="M1699.43,-337.61C2086.28,-332.26 3884.14,-297.77 5339.91,-107 5359.33,-104.46 5380.68,-100.31 5398.41,-96.49"/>
<polygon fill="#63b8ff" stroke="#63b8ff" points="1699.6,-334.11 1689.65,-337.74 1699.69,-341.11 1699.6,-334.11"/>
</g>
<!-- Node3 -->
<g id="node3" class="node">
<title>Node3</title>
<g id="a_node3"><a xlink:href="f__op__camera__mng_8h.html" target="_top" xlink:title=" ">
<polygon fill="white" stroke="#666666" points="2770.91,-239 2642.91,-239 2642.91,-209 2770.91,-209 2770.91,-239"/>
<text text-anchor="start" x="2650.91" y="-227" font-family="Helvetica,sans-Serif" font-size="10.00">include/f_op/f_op_camera</text>
<text text-anchor="middle" x="2706.91" y="-216" font-family="Helvetica,sans-Serif" font-size="10.00">_mng.h</text>
</a>
</g>
</g>
<!-- Node2&#45;&gt;Node3 -->
<g id="edge2" class="edge">
<title>Node2&#45;&gt;Node3</title>
<path fill="none" stroke="#63b8ff" d="M276.94,-281.95C630.21,-273.67 2293.87,-234.68 2642.67,-226.51"/>
<polygon fill="#63b8ff" stroke="#63b8ff" points="277.09,-278.45 267.17,-282.18 277.25,-285.45 277.09,-278.45"/>
</g>
<!-- Node30 -->
<g id="node12" class="node">
<title>Node30</title>
<g id="a_node12"><a xlink:href="d__event_8cpp.html" target="_top" xlink:title=" ">
<polygon fill="white" stroke="#666666" points="505.41,-24.5 384.41,-24.5 384.41,-5.5 505.41,-5.5 505.41,-24.5"/>
<text text-anchor="middle" x="444.91" y="-12.5" font-family="Helvetica,sans-Serif" font-size="10.00">src/d/event/d_event.cpp</text>
</a>
</g>
</g>
<!-- Node2&#45;&gt;Node30 -->
<g id="edge56" class="edge">
<title>Node2&#45;&gt;Node30</title>
<path fill="none" stroke="#63b8ff" d="M145.05,-275.1C101.62,-268.06 50.37,-256.33 36.91,-239 -10.24,-178.27 -14.05,-123.58 36.91,-66 59.52,-40.45 276.06,-25.17 384.15,-19.07"/>
<polygon fill="#63b8ff" stroke="#63b8ff" points="144.26,-278.52 154.68,-276.6 145.34,-271.61 144.26,-278.52"/>
</g>
<!-- Node31 -->
<g id="node13" class="node">
<title>Node31</title>
<g id="a_node13"><a xlink:href="d__event__data_8cpp.html" target="_top" xlink:title=" ">
<polygon fill="white" stroke="#666666" points="626.41,-30 523.41,-30 523.41,0 626.41,0 626.41,-30"/>
<text text-anchor="start" x="531.41" y="-18" font-family="Helvetica,sans-Serif" font-size="10.00">src/d/event/d_event</text>
<text text-anchor="middle" x="574.91" y="-7" font-family="Helvetica,sans-Serif" font-size="10.00">_data.cpp</text>
</a>
</g>
</g>
<!-- Node2&#45;&gt;Node31 -->
<g id="edge57" class="edge">
<title>Node2&#45;&gt;Node31</title>
<path fill="none" stroke="#63b8ff" d="M187.63,-268.24C133.41,-230.94 7.85,-133.28 69.91,-66 103.54,-29.54 465.9,-37.66 514.91,-30 517.55,-29.59 520.25,-29.12 522.97,-28.62"/>
<polygon fill="#63b8ff" stroke="#63b8ff" points="185.66,-271.13 195.9,-273.83 189.58,-265.33 185.66,-271.13"/>
</g>
<!-- Node107 -->
<g id="node47" class="node">
<title>Node107</title>
<g id="a_node47"><a xlink:href="d__camera_8cpp.html" target="_top" xlink:title=" ">
<polygon fill="white" stroke="#666666" points="180.91,-96 78.91,-96 78.91,-77 180.91,-77 180.91,-96"/>
<text text-anchor="middle" x="129.91" y="-84" font-family="Helvetica,sans-Serif" font-size="10.00">src/d/d_camera.cpp</text>
</a>
</g>
</g>
<!-- Node2&#45;&gt;Node107 -->
<g id="edge55" class="edge">
<title>Node2&#45;&gt;Node107</title>
<path fill="none" stroke="#63b8ff" d="M202.83,-263.95C185.62,-222.31 145.94,-126.28 133.62,-96.48"/>
<polygon fill="#63b8ff" stroke="#63b8ff" points="199.59,-265.27 206.64,-273.17 206.06,-262.59 199.59,-265.27"/>
</g>
<!-- Node127 -->
<g id="node48" class="node">
<title>Node127</title>
<g id="a_node48"><a xlink:href="d__event__manager_8cpp.html" target="_top" xlink:title=" ">
<polygon fill="white" stroke="#666666" points="302.41,-101.5 199.41,-101.5 199.41,-71.5 302.41,-71.5 302.41,-101.5"/>
<text text-anchor="start" x="207.41" y="-89.5" font-family="Helvetica,sans-Serif" font-size="10.00">src/d/event/d_event</text>
<text text-anchor="middle" x="250.91" y="-78.5" font-family="Helvetica,sans-Serif" font-size="10.00">_manager.cpp</text>
</a>
</g>
</g>
<!-- Node2&#45;&gt;Node127 -->
<g id="edge58" class="edge">
<title>Node2&#45;&gt;Node127</title>
<path fill="none" stroke="#63b8ff" d="M214.99,-263.52C223.08,-223.88 240.98,-136.17 248,-101.75"/>
<polygon fill="#63b8ff" stroke="#63b8ff" points="211.61,-262.59 213.04,-273.09 218.46,-263.99 211.61,-262.59"/>
</g>
<!-- Node4 -->
<g id="node4" class="node">
<title>Node4</title>
<g id="a_node4"><a xlink:href="d__com__inf__game_8h.html" target="_top" xlink:title=" ">
<polygon fill="#fff0f0" stroke="red" points="2826.91,-173 2716.91,-173 2716.91,-143 2826.91,-143 2826.91,-173"/>
<text text-anchor="start" x="2724.91" y="-161" font-family="Helvetica,sans-Serif" font-size="10.00">include/d/com/d_com</text>
<text text-anchor="middle" x="2771.91" y="-150" font-family="Helvetica,sans-Serif" font-size="10.00">_inf_game.h</text>
</a>
</g>
</g>
<!-- Node3&#45;&gt;Node4 -->
<g id="edge3" class="edge">
<title>Node3&#45;&gt;Node4</title>
<path fill="none" stroke="#63b8ff" d="M2729.45,-200.81C2738.76,-191.64 2749.28,-181.28 2757.52,-173.16"/>
<polygon fill="#63b8ff" stroke="#63b8ff" points="2727.08,-198.22 2722.41,-207.73 2732,-203.21 2727.08,-198.22"/>
</g>
<!-- Node159 -->
<g id="node49" class="node">
<title>Node159</title>
<g id="a_node49"><a xlink:href="f__ap__game_8cpp.html" target="_top" xlink:title=" ">
<polygon fill="white" stroke="#666666" points="2966.41,-167.5 2845.41,-167.5 2845.41,-148.5 2966.41,-148.5 2966.41,-167.5"/>
<text text-anchor="middle" x="2905.91" y="-155.5" font-family="Helvetica,sans-Serif" font-size="10.00">src/f_ap/f_ap_game.cpp</text>
</a>
</g>
</g>
<!-- Node3&#45;&gt;Node159 -->
<g id="edge53" class="edge">
<title>Node3&#45;&gt;Node159</title>
<path fill="none" stroke="#63b8ff" d="M2762.37,-205.16C2799.98,-193.07 2848.11,-177.59 2877.97,-167.99"/>
<polygon fill="#63b8ff" stroke="#63b8ff" points="2761.46,-201.78 2753.01,-208.17 2763.6,-208.44 2761.46,-201.78"/>
</g>
<!-- Node160 -->
<g id="node50" class="node">
<title>Node160</title>
<g id="a_node50"><a xlink:href="f__op__camera__mng_8cpp.html" target="_top" xlink:title=" ">
<polygon fill="white" stroke="#666666" points="2698.41,-173 2587.41,-173 2587.41,-143 2698.41,-143 2698.41,-173"/>
<text text-anchor="start" x="2595.41" y="-161" font-family="Helvetica,sans-Serif" font-size="10.00">src/f_op/f_op_camera</text>
<text text-anchor="middle" x="2642.91" y="-150" font-family="Helvetica,sans-Serif" font-size="10.00">_mng.cpp</text>
</a>
</g>
</g>
<!-- Node3&#45;&gt;Node160 -->
<g id="edge54" class="edge">
<title>Node3&#45;&gt;Node160</title>
<path fill="none" stroke="#63b8ff" d="M2684.72,-200.81C2675.55,-191.64 2665.19,-181.28 2657.07,-173.16"/>
<polygon fill="#63b8ff" stroke="#63b8ff" points="2682.09,-203.13 2691.64,-207.73 2687.04,-198.18 2682.09,-203.13"/>
</g>
<!-- Node5 -->
<g id="node5" class="node">
<title>Node5</title>
<g id="a_node5"><a xlink:href="d__a__npc_8h.html" target="_top" xlink:title=" ">
<polygon fill="#fff0f0" stroke="red" points="5105.41,-96 4994.41,-96 4994.41,-77 5105.41,-77 5105.41,-96"/>
<text text-anchor="middle" x="5049.91" y="-84" font-family="Helvetica,sans-Serif" font-size="10.00">include/d/a/d_a_npc.h</text>
</a>
</g>
</g>
<!-- Node4&#45;&gt;Node5 -->
<g id="edge4" class="edge">
<title>Node4&#45;&gt;Node5</title>
<path fill="none" stroke="#63b8ff" d="M2838.22,-143.1C3329.57,-89.85 4517.68,-180.76 4985.91,-107 4999.56,-104.85 5014.35,-100.48 5026.27,-96.43"/>
<polygon fill="#63b8ff" stroke="#63b8ff" points="2838.16,-139.59 2828.61,-144.18 2838.94,-146.54 2838.16,-139.59"/>
</g>
<!-- Node11 -->
<g id="node6" class="node">
<title>Node11</title>
<g id="a_node6"><a xlink:href="d__cc__uty_8h.html" target="_top" xlink:title=" ">
<polygon fill="#fff0f0" stroke="red" points="5281.41,-96 5162.41,-96 5162.41,-77 5281.41,-77 5281.41,-96"/>
<text text-anchor="middle" x="5221.91" y="-84" font-family="Helvetica,sans-Serif" font-size="10.00">include/d/cc/d_cc_uty.h</text>
</a>
</g>
</g>
<!-- Node4&#45;&gt;Node11 -->
<g id="edge5" class="edge">
<title>Node4&#45;&gt;Node11</title>
<path fill="none" stroke="#63b8ff" d="M2838.27,-143.09C3365.46,-85.94 4642.68,-176.46 5147.91,-107 5163.57,-104.85 5180.66,-100.48 5194.47,-96.43"/>
<polygon fill="#63b8ff" stroke="#63b8ff" points="2838.16,-139.58 2828.61,-144.17 2838.94,-146.54 2838.16,-139.58"/>
</g>
<!-- Node12 -->
<g id="node7" class="node">
<title>Node12</title>
<g id="a_node7"><a xlink:href="d__a__b__ob_8h.html" target="_top" xlink:title=" ">
<polygon fill="#fff0f0" stroke="red" points="5169.91,-30 5063.91,-30 5063.91,0 5169.91,0 5169.91,-30"/>
<text text-anchor="start" x="5071.91" y="-18" font-family="Helvetica,sans-Serif" font-size="10.00">include/rel/d/a/b/d</text>
<text text-anchor="middle" x="5116.91" y="-7" font-family="Helvetica,sans-Serif" font-size="10.00">_a_b_ob/d_a_b_ob.h</text>
</a>
</g>
</g>
<!-- Node4&#45;&gt;Node12 -->
<g id="edge13" class="edge">
<title>Node4&#45;&gt;Node12</title>
<path fill="none" stroke="#63b8ff" d="M2838.51,-143.66C3023.06,-136.66 5071.32,-150.33 5114.91,-107 5134.97,-87.06 5127.96,-50.51 5121.92,-30.33"/>
<polygon fill="#63b8ff" stroke="#63b8ff" points="2838.39,-140.16 2828.62,-144.25 2838.81,-147.15 2838.39,-140.16"/>
</g>
<!-- Node17 -->
<g id="node8" class="node">
<title>Node17</title>
<g id="a_node8"><a xlink:href="d__a__e__yk_8h.html" target="_top" xlink:title=" ">
<polygon fill="white" stroke="#666666" points="5291.91,-30 5187.91,-30 5187.91,0 5291.91,0 5291.91,-30"/>
<text text-anchor="start" x="5195.91" y="-18" font-family="Helvetica,sans-Serif" font-size="10.00">include/rel/d/a/e/d</text>
<text text-anchor="middle" x="5239.91" y="-7" font-family="Helvetica,sans-Serif" font-size="10.00">_a_e_yk/d_a_e_yk.h</text>
</a>
</g>
</g>
<!-- Node4&#45;&gt;Node17 -->
<g id="edge27" class="edge">
<title>Node4&#45;&gt;Node17</title>
<path fill="none" stroke="#63b8ff" d="M2838.44,-143.66C3030.82,-136.34 5244.37,-154.23 5290.91,-107 5303.7,-94.02 5297.97,-82.8 5290.91,-66 5284.86,-51.6 5272.41,-39.26 5261.33,-30.44"/>
<polygon fill="#63b8ff" stroke="#63b8ff" points="2838.39,-140.15 2828.62,-144.25 2838.81,-147.14 2838.39,-140.15"/>
</g>
<!-- Node18 -->
<g id="node9" class="node">
<title>Node18</title>
<g id="a_node9"><a xlink:href="d__a__e__ym_8h.html" target="_top" xlink:title=" ">
<polygon fill="#fff0f0" stroke="red" points="5419.91,-30 5309.91,-30 5309.91,0 5419.91,0 5419.91,-30"/>
<text text-anchor="start" x="5317.91" y="-18" font-family="Helvetica,sans-Serif" font-size="10.00">include/rel/d/a/e/d</text>
<text text-anchor="middle" x="5364.91" y="-7" font-family="Helvetica,sans-Serif" font-size="10.00">_a_e_ym/d_a_e_ym.h</text>
</a>
</g>
</g>
<!-- Node4&#45;&gt;Node18 -->
<g id="edge28" class="edge">
<title>Node4&#45;&gt;Node18</title>
<path fill="none" stroke="#63b8ff" d="M2838.49,-143.62C3031.54,-135.5 5249.73,-139.76 5307.91,-107 5337.47,-90.35 5353.81,-51.38 5360.79,-30.24"/>
<polygon fill="#63b8ff" stroke="#63b8ff" points="2838.38,-140.12 2828.62,-144.24 2838.82,-147.11 2838.38,-140.12"/>
</g>
<!-- Node21 -->
<g id="node10" class="node">
<title>Node21</title>
<g id="a_node10"><a xlink:href="d__error__msg_8h.html" target="_top" xlink:title=" ">
<polygon fill="#fff0f0" stroke="red" points="440.91,-96 320.91,-96 320.91,-77 440.91,-77 440.91,-96"/>
<text text-anchor="middle" x="380.91" y="-84" font-family="Helvetica,sans-Serif" font-size="10.00">include/d/d_error_msg.h</text>
</a>
</g>
</g>
<!-- Node4&#45;&gt;Node21 -->
<g id="edge9" class="edge">
<title>Node4&#45;&gt;Node21</title>
<path fill="none" stroke="#63b8ff" d="M2705.28,-142.9C2192.12,-86.52 947.33,-174.79 454.91,-107 439.25,-104.84 422.16,-100.48 408.35,-96.42"/>
<polygon fill="#63b8ff" stroke="#63b8ff" points="2704.69,-146.36 2715.02,-144.01 2705.47,-139.4 2704.69,-146.36"/>
</g>
<!-- Node24 -->
<g id="node11" class="node">
<title>Node24</title>
<g id="a_node11"><a xlink:href="d__msg__object_8h.html" target="_top" xlink:title=" ">
<polygon fill="#fff0f0" stroke="red" points="606.91,-101.5 496.91,-101.5 496.91,-71.5 606.91,-71.5 606.91,-101.5"/>
<text text-anchor="start" x="504.91" y="-89.5" font-family="Helvetica,sans-Serif" font-size="10.00">include/d/msg/d_msg</text>
<text text-anchor="middle" x="551.91" y="-78.5" font-family="Helvetica,sans-Serif" font-size="10.00">_object.h</text>
</a>
</g>
</g>
<!-- Node4&#45;&gt;Node24 -->
<g id="edge10" class="edge">
<title>Node4&#45;&gt;Node24</title>
<path fill="none" stroke="#63b8ff" d="M2705.39,-142.92C2229,-90.5 1076.21,-174.11 620.91,-107 613.03,-105.84 604.77,-104.04 596.83,-101.99"/>
<polygon fill="#63b8ff" stroke="#63b8ff" points="2704.69,-146.36 2715.02,-144.01 2705.48,-139.4 2704.69,-146.36"/>
</g>
<!-- Node4&#45;&gt;Node30 -->
<g id="edge50" class="edge">
<title>Node4&#45;&gt;Node30</title>
<path fill="none" stroke="#63b8ff" d="M2705.24,-143.48C2524.96,-136.11 538.22,-139.45 487.91,-107 458.69,-88.15 448.91,-43.62 446.01,-24.72"/>
<polygon fill="#63b8ff" stroke="#63b8ff" points="2704.81,-146.96 2715.01,-144.08 2705.25,-139.97 2704.81,-146.96"/>
</g>
<!-- Node4&#45;&gt;Node31 -->
<g id="edge51" class="edge">
<title>Node4&#45;&gt;Node31</title>
<path fill="none" stroke="#63b8ff" d="M2705.17,-143.23C2509.49,-130.89 756,-153.8 654.91,-107 645.84,-102.8 606.17,-54.71 586.31,-30.19"/>
<polygon fill="#63b8ff" stroke="#63b8ff" points="2704.75,-146.71 2715.01,-144.06 2705.34,-139.73 2704.75,-146.71"/>
</g>
<!-- Node43 -->
<g id="node14" class="node">
<title>Node43</title>
<g id="a_node14"><a xlink:href="d__a__b__zant_8h.html" target="_top" xlink:title=" ">
<polygon fill="white" stroke="#666666" points="784.41,-101.5 663.41,-101.5 663.41,-71.5 784.41,-71.5 784.41,-101.5"/>
<text text-anchor="start" x="671.41" y="-89.5" font-family="Helvetica,sans-Serif" font-size="10.00">include/rel/d/a/b/d</text>
<text text-anchor="middle" x="723.91" y="-78.5" font-family="Helvetica,sans-Serif" font-size="10.00">_a_b_zant/d_a_b_zant.h</text>
</a>
</g>
</g>
<!-- Node4&#45;&gt;Node43 -->
<g id="edge14" class="edge">
<title>Node4&#45;&gt;Node43</title>
<path fill="none" stroke="#63b8ff" d="M2705.33,-142.91C2267.17,-94.58 1211.24,-168.05 793.91,-107 785.92,-105.83 777.55,-104.03 769.49,-101.98"/>
<polygon fill="#63b8ff" stroke="#63b8ff" points="2704.68,-146.36 2715.02,-144.01 2705.48,-139.4 2704.68,-146.36"/>
</g>
<!-- Node44 -->
<g id="node15" class="node">
<title>Node44</title>
<g id="a_node15"><a xlink:href="d__a__andsw_8h.html" target="_top" xlink:title=" ">
<polygon fill="white" stroke="#666666" points="912.91,-101.5 802.91,-101.5 802.91,-71.5 912.91,-71.5 912.91,-101.5"/>
<text text-anchor="start" x="810.91" y="-89.5" font-family="Helvetica,sans-Serif" font-size="10.00">include/rel/d/a/d_a</text>
<text text-anchor="middle" x="857.91" y="-78.5" font-family="Helvetica,sans-Serif" font-size="10.00">_andsw/d_a_andsw.h</text>
</a>
</g>
</g>
<!-- Node4&#45;&gt;Node44 -->
<g id="edge15" class="edge">
<title>Node4&#45;&gt;Node44</title>
<path fill="none" stroke="#63b8ff" d="M2705.16,-142.89C2295.43,-97.71 1311.21,-168 922.91,-107 915.46,-105.83 907.67,-104.03 900.18,-101.98"/>
<polygon fill="#63b8ff" stroke="#63b8ff" points="2704.68,-146.36 2715.02,-144.02 2705.48,-139.4 2704.68,-146.36"/>
</g>
<!-- Node45 -->
<g id="node16" class="node">
<title>Node45</title>
<g id="a_node16"><a xlink:href="d__a__cstaF_8h.html" target="_top" xlink:title=" ">
<polygon fill="white" stroke="#666666" points="1034.41,-101.5 931.41,-101.5 931.41,-71.5 1034.41,-71.5 1034.41,-101.5"/>
<text text-anchor="start" x="939.41" y="-89.5" font-family="Helvetica,sans-Serif" font-size="10.00">include/rel/d/a/d_a</text>
<text text-anchor="middle" x="982.91" y="-78.5" font-family="Helvetica,sans-Serif" font-size="10.00">_cstaF/d_a_cstaF.h</text>
</a>
</g>
</g>
<!-- Node4&#45;&gt;Node45 -->
<g id="edge16" class="edge">
<title>Node4&#45;&gt;Node45</title>
<path fill="none" stroke="#63b8ff" d="M2705.35,-142.91C2322.49,-100.6 1405.16,-167.35 1043.91,-107 1036.89,-105.83 1029.57,-104.02 1022.53,-101.97"/>
<polygon fill="#63b8ff" stroke="#63b8ff" points="2704.68,-146.36 2715.01,-144.02 2705.48,-139.4 2704.68,-146.36"/>
</g>
<!-- Node46 -->
<g id="node17" class="node">
<title>Node46</title>
<g id="a_node17"><a xlink:href="d__a__dmidna_8h.html" target="_top" xlink:title=" ">
<polygon fill="white" stroke="#666666" points="1168.91,-101.5 1052.91,-101.5 1052.91,-71.5 1168.91,-71.5 1168.91,-101.5"/>
<text text-anchor="start" x="1060.91" y="-89.5" font-family="Helvetica,sans-Serif" font-size="10.00">include/rel/d/a/d_a</text>
<text text-anchor="middle" x="1110.91" y="-78.5" font-family="Helvetica,sans-Serif" font-size="10.00">_dmidna/d_a_dmidna.h</text>
</a>
</g>
</g>
<!-- Node4&#45;&gt;Node46 -->
<g id="edge17" class="edge">
<title>Node4&#45;&gt;Node46</title>
<path fill="none" stroke="#63b8ff" d="M2705.19,-142.89C2352.14,-103.68 1511.28,-157.71 1178.91,-107 1171.14,-105.81 1163,-104 1155.17,-101.95"/>
<polygon fill="#63b8ff" stroke="#63b8ff" points="2704.68,-146.36 2715.01,-144.03 2705.48,-139.4 2704.68,-146.36"/>
</g>
<!-- Node47 -->
<g id="node18" class="node">
<title>Node47</title>
<g id="a_node18"><a xlink:href="d__a__econt_8h.html" target="_top" xlink:title=" ">
<polygon fill="white" stroke="#666666" points="1288.41,-101.5 1187.41,-101.5 1187.41,-71.5 1288.41,-71.5 1288.41,-101.5"/>
<text text-anchor="start" x="1195.41" y="-89.5" font-family="Helvetica,sans-Serif" font-size="10.00">include/rel/d/a/d_a</text>
<text text-anchor="middle" x="1237.91" y="-78.5" font-family="Helvetica,sans-Serif" font-size="10.00">_econt/d_a_econt.h</text>
</a>
</g>
</g>
<!-- Node4&#45;&gt;Node47 -->
<g id="edge18" class="edge">
<title>Node4&#45;&gt;Node47</title>
<path fill="none" stroke="#63b8ff" d="M2705.08,-142.88C2378.3,-106.61 1603.21,-159.37 1297.91,-107 1291,-105.81 1283.8,-104 1276.88,-101.95"/>
<polygon fill="#63b8ff" stroke="#63b8ff" points="2704.68,-146.36 2715.01,-144.03 2705.48,-139.4 2704.68,-146.36"/>
</g>
<!-- Node48 -->
<g id="node19" class="node">
<title>Node48</title>
<g id="a_node19"><a xlink:href="d__a__guard__mng_8h.html" target="_top" xlink:title=" ">
<polygon fill="white" stroke="#666666" points="1455.41,-101.5 1306.41,-101.5 1306.41,-71.5 1455.41,-71.5 1455.41,-101.5"/>
<text text-anchor="start" x="1314.41" y="-89.5" font-family="Helvetica,sans-Serif" font-size="10.00">include/rel/d/a/d_a</text>
<text text-anchor="middle" x="1380.91" y="-78.5" font-family="Helvetica,sans-Serif" font-size="10.00">_guard_mng/d_a_guard_mng.h</text>
</a>
</g>
</g>
<!-- Node4&#45;&gt;Node48 -->
<g id="edge19" class="edge">
<title>Node4&#45;&gt;Node48</title>
<path fill="none" stroke="#63b8ff" d="M2705.15,-142.84C2157.33,-77.04 2009.28,-177.35 1464.91,-107 1455.56,-105.79 1445.72,-104 1436.2,-101.98"/>
<polygon fill="#63b8ff" stroke="#63b8ff" points="2704.66,-146.31 2715.01,-144.04 2705.51,-139.36 2704.66,-146.31"/>
</g>
<!-- Node49 -->
<g id="node20" class="node">
<title>Node49</title>
<g id="a_node20"><a xlink:href="d__a__hitobj_8h.html" target="_top" xlink:title=" ">
<polygon fill="white" stroke="#666666" points="1573.91,-101.5 1473.91,-101.5 1473.91,-71.5 1573.91,-71.5 1573.91,-101.5"/>
<text text-anchor="start" x="1481.91" y="-89.5" font-family="Helvetica,sans-Serif" font-size="10.00">include/rel/d/a/d_a</text>
<text text-anchor="middle" x="1523.91" y="-78.5" font-family="Helvetica,sans-Serif" font-size="10.00">_hitobj/d_a_hitobj.h</text>
</a>
</g>
</g>
<!-- Node4&#45;&gt;Node49 -->
<g id="edge20" class="edge">
<title>Node4&#45;&gt;Node49</title>
<path fill="none" stroke="#63b8ff" d="M2705.12,-142.83C2209.84,-83.02 2072.52,-192.45 1583.91,-107 1577,-105.79 1569.8,-103.97 1562.88,-101.92"/>
<polygon fill="#63b8ff" stroke="#63b8ff" points="2704.66,-146.3 2715.01,-144.05 2705.51,-139.35 2704.66,-146.3"/>
</g>
<!-- Node50 -->
<g id="node21" class="node">
<title>Node50</title>
<g id="a_node21"><a xlink:href="d__a__set__bgobj_8h.html" target="_top" xlink:title=" ">
<polygon fill="white" stroke="#666666" points="1729.41,-101.5 1592.41,-101.5 1592.41,-71.5 1729.41,-71.5 1729.41,-101.5"/>
<text text-anchor="start" x="1600.41" y="-89.5" font-family="Helvetica,sans-Serif" font-size="10.00">include/rel/d/a/d_a</text>
<text text-anchor="middle" x="1660.91" y="-78.5" font-family="Helvetica,sans-Serif" font-size="10.00">_set_bgobj/d_a_set_bgobj.h</text>
</a>
</g>
</g>
<!-- Node4&#45;&gt;Node50 -->
<g id="edge21" class="edge">
<title>Node4&#45;&gt;Node50</title>
<path fill="none" stroke="#63b8ff" d="M2705.4,-142.86C2278.39,-90.07 2161.95,-167.07 1738.91,-107 1730.2,-105.76 1721.06,-103.95 1712.22,-101.93"/>
<polygon fill="#63b8ff" stroke="#63b8ff" points="2704.65,-146.29 2715.01,-144.06 2705.52,-139.34 2704.65,-146.29"/>
</g>
<!-- Node51 -->
<g id="node22" class="node">
<title>Node51</title>
<g id="a_node22"><a xlink:href="d__a__skip__2D_8h.html" target="_top" xlink:title=" ">
<polygon fill="white" stroke="#666666" points="1871.91,-101.5 1747.91,-101.5 1747.91,-71.5 1871.91,-71.5 1871.91,-101.5"/>
<text text-anchor="start" x="1755.91" y="-89.5" font-family="Helvetica,sans-Serif" font-size="10.00">include/rel/d/a/d_a</text>
<text text-anchor="middle" x="1809.91" y="-78.5" font-family="Helvetica,sans-Serif" font-size="10.00">_skip_2D/d_a_skip_2D.h</text>
</a>
</g>
</g>
<!-- Node4&#45;&gt;Node51 -->
<g id="edge22" class="edge">
<title>Node4&#45;&gt;Node51</title>
<path fill="none" stroke="#63b8ff" d="M2705.11,-142.81C2341.03,-96.91 2240.63,-163.49 1880.91,-107 1872.95,-105.75 1864.61,-103.94 1856.56,-101.91"/>
<polygon fill="#63b8ff" stroke="#63b8ff" points="2704.64,-146.28 2715.01,-144.08 2705.53,-139.33 2704.64,-146.28"/>
</g>
<!-- Node52 -->
<g id="node23" class="node">
<title>Node52</title>
<g id="a_node23"><a xlink:href="d__a__spinner_8h.html" target="_top" xlink:title=" ">
<polygon fill="#fff0f0" stroke="red" points="2005.91,-101.5 1889.91,-101.5 1889.91,-71.5 2005.91,-71.5 2005.91,-101.5"/>
<text text-anchor="start" x="1897.91" y="-89.5" font-family="Helvetica,sans-Serif" font-size="10.00">include/rel/d/a/d_a</text>
<text text-anchor="middle" x="1947.91" y="-78.5" font-family="Helvetica,sans-Serif" font-size="10.00">_spinner/d_a_spinner.h</text>
</a>
</g>
</g>
<!-- Node4&#45;&gt;Node52 -->
<g id="edge23" class="edge">
<title>Node4&#45;&gt;Node52</title>
<path fill="none" stroke="#63b8ff" d="M2705.1,-142.79C2400.18,-103.27 2315.29,-157.81 2014.91,-107 2007.5,-105.75 1999.76,-103.96 1992.26,-101.96"/>
<polygon fill="#63b8ff" stroke="#63b8ff" points="2704.63,-146.26 2715,-144.1 2705.55,-139.32 2704.63,-146.26"/>
</g>
<!-- Node55 -->
<g id="node24" class="node">
<title>Node55</title>
<g id="a_node24"><a xlink:href="d__a__swTime_8h.html" target="_top" xlink:title=" ">
<polygon fill="white" stroke="#666666" points="2145.91,-101.5 2023.91,-101.5 2023.91,-71.5 2145.91,-71.5 2145.91,-101.5"/>
<text text-anchor="start" x="2031.91" y="-89.5" font-family="Helvetica,sans-Serif" font-size="10.00">include/rel/d/a/d_a</text>
<text text-anchor="middle" x="2084.91" y="-78.5" font-family="Helvetica,sans-Serif" font-size="10.00">_swTime/d_a_swTime.h</text>
</a>
</g>
</g>
<!-- Node4&#45;&gt;Node55 -->
<g id="edge24" class="edge">
<title>Node4&#45;&gt;Node55</title>
<path fill="none" stroke="#63b8ff" d="M2705.16,-142.77C2461.98,-109.77 2394.05,-147.64 2154.91,-107 2147.32,-105.71 2139.38,-103.93 2131.67,-101.96"/>
<polygon fill="#63b8ff" stroke="#63b8ff" points="2704.61,-146.23 2715,-144.14 2705.58,-139.3 2704.61,-146.23"/>
</g>
<!-- Node56 -->
<g id="node25" class="node">
<title>Node56</title>
<g id="a_node25"><a xlink:href="d__a__vrbox_8h.html" target="_top" xlink:title=" ">
<polygon fill="white" stroke="#666666" points="2263.91,-101.5 2163.91,-101.5 2163.91,-71.5 2263.91,-71.5 2263.91,-101.5"/>
<text text-anchor="start" x="2171.91" y="-89.5" font-family="Helvetica,sans-Serif" font-size="10.00">include/rel/d/a/d_a</text>
<text text-anchor="middle" x="2213.91" y="-78.5" font-family="Helvetica,sans-Serif" font-size="10.00">_vrbox/d_a_vrbox.h</text>
</a>
</g>
</g>
<!-- Node4&#45;&gt;Node56 -->
<g id="edge25" class="edge">
<title>Node4&#45;&gt;Node56</title>
<path fill="none" stroke="#63b8ff" d="M2705.22,-142.75C2514.44,-115.41 2460.05,-144.44 2273.91,-107 2267.36,-105.68 2260.52,-103.89 2253.91,-101.91"/>
<polygon fill="#63b8ff" stroke="#63b8ff" points="2704.59,-146.19 2714.99,-144.19 2705.61,-139.27 2704.59,-146.19"/>
</g>
<!-- Node57 -->
<g id="node26" class="node">
<title>Node57</title>
<g id="a_node26"><a xlink:href="d__a__e__db__leaf_8h.html" target="_top" xlink:title=" ">
<polygon fill="white" stroke="#666666" points="2401.41,-107 2282.41,-107 2282.41,-66 2401.41,-66 2401.41,-107"/>
<text text-anchor="start" x="2290.41" y="-95" font-family="Helvetica,sans-Serif" font-size="10.00">include/rel/d/a/e/d</text>
<text text-anchor="start" x="2290.41" y="-84" font-family="Helvetica,sans-Serif" font-size="10.00">_a_e_db_leaf/d_a_e_db</text>
<text text-anchor="middle" x="2341.91" y="-73" font-family="Helvetica,sans-Serif" font-size="10.00">_leaf.h</text>
</a>
</g>
</g>
<!-- Node4&#45;&gt;Node57 -->
<g id="edge26" class="edge">
<title>Node4&#45;&gt;Node57</title>
<path fill="none" stroke="#63b8ff" d="M2705.24,-142.67C2574.8,-121.42 2537.71,-132.44 2410.91,-107 2407.86,-106.39 2404.75,-105.71 2401.61,-104.98"/>
<polygon fill="#63b8ff" stroke="#63b8ff" points="2704.54,-146.1 2714.98,-144.29 2705.69,-139.19 2704.54,-146.1"/>
</g>
<!-- Node58 -->
<g id="node27" class="node">
<title>Node58</title>
<g id="a_node27"><a xlink:href="d__a__kytag02_8h.html" target="_top" xlink:title=" ">
<polygon fill="white" stroke="#666666" points="2559.91,-101.5 2419.91,-101.5 2419.91,-71.5 2559.91,-71.5 2559.91,-101.5"/>
<text text-anchor="start" x="2427.91" y="-89.5" font-family="Helvetica,sans-Serif" font-size="10.00">include/rel/d/a/kytag</text>
<text text-anchor="middle" x="2489.91" y="-78.5" font-family="Helvetica,sans-Serif" font-size="10.00">/d_a_kytag02/d_a_kytag02.h</text>
</a>
</g>
</g>
<!-- Node4&#45;&gt;Node58 -->
<g id="edge29" class="edge">
<title>Node4&#45;&gt;Node58</title>
<path fill="none" stroke="#63b8ff" d="M2705.64,-140.69C2665.97,-130.92 2614.55,-118.25 2568.91,-107 2562.33,-105.38 2555.43,-103.68 2548.58,-101.99"/>
<polygon fill="#63b8ff" stroke="#63b8ff" points="2704.75,-144.07 2715.3,-143.06 2706.42,-137.27 2704.75,-144.07"/>
</g>
<!-- Node59 -->
<g id="node28" class="node">
<title>Node59</title>
<g id="a_node28"><a xlink:href="d__a__obj__bombf_8h.html" target="_top" xlink:title=" ">
<polygon fill="white" stroke="#666666" points="2699.91,-107 2577.91,-107 2577.91,-66 2699.91,-66 2699.91,-107"/>
<text text-anchor="start" x="2585.91" y="-95" font-family="Helvetica,sans-Serif" font-size="10.00">include/rel/d/a/obj</text>
<text text-anchor="start" x="2585.91" y="-84" font-family="Helvetica,sans-Serif" font-size="10.00">/d_a_obj_bombf/d_a_obj</text>
<text text-anchor="middle" x="2638.91" y="-73" font-family="Helvetica,sans-Serif" font-size="10.00">_bombf.h</text>
</a>
</g>
</g>
<!-- Node4&#45;&gt;Node59 -->
<g id="edge30" class="edge">
<title>Node4&#45;&gt;Node59</title>
<path fill="none" stroke="#63b8ff" d="M2734.26,-137.33C2716.36,-127.97 2694.99,-116.8 2677.02,-107.42"/>
<polygon fill="#63b8ff" stroke="#63b8ff" points="2732.53,-140.37 2743.01,-141.9 2735.77,-134.17 2732.53,-140.37"/>
</g>
<!-- Node60 -->
<g id="node29" class="node">
<title>Node60</title>
<g id="a_node29"><a xlink:href="d__a__obj__cboard_8h.html" target="_top" xlink:title=" ">
<polygon fill="white" stroke="#666666" points="2825.41,-107 2718.41,-107 2718.41,-66 2825.41,-66 2825.41,-107"/>
<text text-anchor="start" x="2726.41" y="-95" font-family="Helvetica,sans-Serif" font-size="10.00">include/rel/d/a/obj</text>
<text text-anchor="start" x="2726.41" y="-84" font-family="Helvetica,sans-Serif" font-size="10.00">/d_a_obj_cboard/d_a</text>
<text text-anchor="middle" x="2771.91" y="-73" font-family="Helvetica,sans-Serif" font-size="10.00">_obj_cboard.h</text>
</a>
</g>
</g>
<!-- Node4&#45;&gt;Node60 -->
<g id="edge31" class="edge">
<title>Node4&#45;&gt;Node60</title>
<path fill="none" stroke="#63b8ff" d="M2771.91,-131.36C2771.91,-123.45 2771.91,-114.87 2771.91,-107.42"/>
<polygon fill="#63b8ff" stroke="#63b8ff" points="2768.41,-131.09 2771.91,-141.09 2775.41,-131.09 2768.41,-131.09"/>
</g>
<!-- Node61 -->
<g id="node30" class="node">
<title>Node61</title>
<g id="a_node30"><a xlink:href="d__a__obj__cowdoor_8h.html" target="_top" xlink:title=" ">
<polygon fill="white" stroke="#666666" points="2957.91,-107 2843.91,-107 2843.91,-66 2957.91,-66 2957.91,-107"/>
<text text-anchor="start" x="2851.91" y="-95" font-family="Helvetica,sans-Serif" font-size="10.00">include/rel/d/a/obj</text>
<text text-anchor="start" x="2851.91" y="-84" font-family="Helvetica,sans-Serif" font-size="10.00">/d_a_obj_cowdoor/d_a</text>
<text text-anchor="middle" x="2900.91" y="-73" font-family="Helvetica,sans-Serif" font-size="10.00">_obj_cowdoor.h</text>
</a>
</g>
</g>
<!-- Node4&#45;&gt;Node61 -->
<g id="edge32" class="edge">
<title>Node4&#45;&gt;Node61</title>
<path fill="none" stroke="#63b8ff" d="M2808.43,-137.33C2825.79,-127.97 2846.52,-116.8 2863.94,-107.42"/>
<polygon fill="#63b8ff" stroke="#63b8ff" points="2807.11,-134.06 2799.97,-141.88 2810.43,-140.22 2807.11,-134.06"/>
</g>
<!-- Node62 -->
<g id="node31" class="node">
<title>Node62</title>
<g id="a_node31"><a xlink:href="d__a__obj__enemy__create_8h.html" target="_top" xlink:title=" ">
<polygon fill="white" stroke="#666666" points="3103.41,-107 2976.41,-107 2976.41,-66 3103.41,-66 3103.41,-107"/>
<text text-anchor="start" x="2984.41" y="-95" font-family="Helvetica,sans-Serif" font-size="10.00">include/rel/d/a/obj</text>
<text text-anchor="start" x="2984.41" y="-84" font-family="Helvetica,sans-Serif" font-size="10.00">/d_a_obj_enemy_create</text>
<text text-anchor="middle" x="3039.91" y="-73" font-family="Helvetica,sans-Serif" font-size="10.00">/d_a_obj_enemy_create.h</text>
</a>
</g>
</g>
<!-- Node4&#45;&gt;Node62 -->
<g id="edge33" class="edge">
<title>Node4&#45;&gt;Node62</title>
<path fill="none" stroke="#63b8ff" d="M2837.87,-140.26C2875.67,-130.63 2923.98,-118.24 2966.91,-107 2969.96,-106.2 2973.07,-105.38 2976.22,-104.55"/>
<polygon fill="#63b8ff" stroke="#63b8ff" points="2837.3,-136.8 2828.47,-142.66 2839.02,-143.58 2837.3,-136.8"/>
</g>
<!-- Node63 -->
<g id="node32" class="node">
<title>Node63</title>
<g id="a_node32"><a xlink:href="d__a__obj__mgate_8h.html" target="_top" xlink:title=" ">
<polygon fill="white" stroke="#666666" points="3243.91,-107 3121.91,-107 3121.91,-66 3243.91,-66 3243.91,-107"/>
<text text-anchor="start" x="3129.91" y="-95" font-family="Helvetica,sans-Serif" font-size="10.00">include/rel/d/a/obj</text>
<text text-anchor="start" x="3129.91" y="-84" font-family="Helvetica,sans-Serif" font-size="10.00">/d_a_obj_mgate/d_a_obj</text>
<text text-anchor="middle" x="3182.91" y="-73" font-family="Helvetica,sans-Serif" font-size="10.00">_mgate.h</text>
</a>
</g>
</g>
<!-- Node4&#45;&gt;Node63 -->
<g id="edge34" class="edge">
<title>Node4&#45;&gt;Node63</title>
<path fill="none" stroke="#63b8ff" d="M2838.49,-142.85C2960.81,-122.5 2995.24,-130.94 3112.91,-107 3115.75,-106.42 3118.65,-105.79 3121.57,-105.12"/>
<polygon fill="#63b8ff" stroke="#63b8ff" points="2837.93,-139.4 2828.66,-144.52 2839.1,-146.3 2837.93,-139.4"/>
</g>
<!-- Node64 -->
<g id="node33" class="node">
<title>Node64</title>
<g id="a_node33"><a xlink:href="d__a__obj__onsenFire_8h.html" target="_top" xlink:title=" ">
<polygon fill="white" stroke="#666666" points="3371.91,-107 3261.91,-107 3261.91,-66 3371.91,-66 3371.91,-107"/>
<text text-anchor="start" x="3269.91" y="-95" font-family="Helvetica,sans-Serif" font-size="10.00">include/rel/d/a/obj</text>
<text text-anchor="start" x="3269.91" y="-84" font-family="Helvetica,sans-Serif" font-size="10.00">/d_a_obj_onsenFire/d</text>
<text text-anchor="middle" x="3316.91" y="-73" font-family="Helvetica,sans-Serif" font-size="10.00">_a_obj_onsenFire.h</text>
</a>
</g>
</g>
<!-- Node4&#45;&gt;Node64 -->
<g id="edge35" class="edge">
<title>Node4&#45;&gt;Node64</title>
<path fill="none" stroke="#63b8ff" d="M2838.3,-142.96C3022.44,-116.43 3074.26,-141.55 3252.91,-107 3255.76,-106.45 3258.67,-105.82 3261.59,-105.13"/>
<polygon fill="#63b8ff" stroke="#63b8ff" points="2838.02,-139.47 2828.64,-144.39 2839.04,-146.39 2838.02,-139.47"/>
</g>
<!-- Node65 -->
<g id="node34" class="node">
<title>Node65</title>
<g id="a_node34"><a xlink:href="d__a__obj__prop_8h.html" target="_top" xlink:title=" ">
<polygon fill="white" stroke="#666666" points="3503.91,-107 3389.91,-107 3389.91,-66 3503.91,-66 3503.91,-107"/>
<text text-anchor="start" x="3397.91" y="-95" font-family="Helvetica,sans-Serif" font-size="10.00">include/rel/d/a/obj</text>
<text text-anchor="start" x="3397.91" y="-84" font-family="Helvetica,sans-Serif" font-size="10.00">/d_a_obj_prop/d_a_obj</text>
<text text-anchor="middle" x="3446.91" y="-73" font-family="Helvetica,sans-Serif" font-size="10.00">_prop.h</text>
</a>
</g>
</g>
<!-- Node4&#45;&gt;Node65 -->
<g id="edge36" class="edge">
<title>Node4&#45;&gt;Node65</title>
<path fill="none" stroke="#63b8ff" d="M2838.35,-142.99C3078.9,-110.6 3145.99,-148.94 3380.91,-107 3383.73,-106.5 3386.61,-105.92 3389.5,-105.28"/>
<polygon fill="#63b8ff" stroke="#63b8ff" points="2838.06,-139.49 2828.63,-144.33 2839.01,-146.43 2838.06,-139.49"/>
</g>
<!-- Node66 -->
<g id="node35" class="node">
<title>Node66</title>
<g id="a_node35"><a xlink:href="d__a__obj__smoke_8h.html" target="_top" xlink:title=" ">
<polygon fill="white" stroke="#666666" points="3647.41,-107 3522.41,-107 3522.41,-66 3647.41,-66 3647.41,-107"/>
<text text-anchor="start" x="3530.41" y="-95" font-family="Helvetica,sans-Serif" font-size="10.00">include/rel/d/a/obj</text>
<text text-anchor="start" x="3530.41" y="-84" font-family="Helvetica,sans-Serif" font-size="10.00">/d_a_obj_smoke/d_a_obj</text>
<text text-anchor="middle" x="3584.91" y="-73" font-family="Helvetica,sans-Serif" font-size="10.00">_smoke.h</text>
</a>
</g>
</g>
<!-- Node4&#45;&gt;Node66 -->
<g id="edge37" class="edge">
<title>Node4&#45;&gt;Node66</title>
<path fill="none" stroke="#63b8ff" d="M2838.3,-143.01C3137.14,-104.44 3219.45,-154.01 3512.91,-107 3515.98,-106.51 3519.11,-105.94 3522.25,-105.31"/>
<polygon fill="#63b8ff" stroke="#63b8ff" points="2838.08,-139.51 2828.62,-144.29 2838.99,-146.45 2838.08,-139.51"/>
</g>
<!-- Node67 -->
<g id="node36" class="node">
<title>Node67</title>
<g id="a_node36"><a xlink:href="d__a__obj__stone_8h.html" target="_top" xlink:title=" ">
<polygon fill="white" stroke="#666666" points="3784.41,-107 3665.41,-107 3665.41,-66 3784.41,-66 3784.41,-107"/>
<text text-anchor="start" x="3673.41" y="-95" font-family="Helvetica,sans-Serif" font-size="10.00">include/rel/d/a/obj</text>
<text text-anchor="start" x="3673.41" y="-84" font-family="Helvetica,sans-Serif" font-size="10.00">/d_a_obj_stone/d_a_obj</text>
<text text-anchor="middle" x="3724.91" y="-73" font-family="Helvetica,sans-Serif" font-size="10.00">_stone.h</text>
</a>
</g>
</g>
<!-- Node4&#45;&gt;Node67 -->
<g id="edge38" class="edge">
<title>Node4&#45;&gt;Node67</title>
<path fill="none" stroke="#63b8ff" d="M2838.46,-143.01C3200.76,-97.84 3300.56,-165.08 3656.91,-107 3659.58,-106.57 3662.29,-106.06 3665.01,-105.5"/>
<polygon fill="#63b8ff" stroke="#63b8ff" points="2838.1,-139.53 2828.62,-144.26 2838.98,-146.47 2838.1,-139.53"/>
</g>
<!-- Node68 -->
<g id="node37" class="node">
<title>Node68</title>
<g id="a_node37"><a xlink:href="d__a__obj__stoneMark_8h.html" target="_top" xlink:title=" ">
<polygon fill="white" stroke="#666666" points="3915.41,-107 3802.41,-107 3802.41,-66 3915.41,-66 3915.41,-107"/>
<text text-anchor="start" x="3810.41" y="-95" font-family="Helvetica,sans-Serif" font-size="10.00">include/rel/d/a/obj</text>
<text text-anchor="start" x="3810.41" y="-84" font-family="Helvetica,sans-Serif" font-size="10.00">/d_a_obj_stoneMark/d</text>
<text text-anchor="middle" x="3858.91" y="-73" font-family="Helvetica,sans-Serif" font-size="10.00">_a_obj_stoneMark.h</text>
</a>
</g>
</g>
<!-- Node4&#45;&gt;Node68 -->
<g id="edge39" class="edge">
<title>Node4&#45;&gt;Node68</title>
<path fill="none" stroke="#63b8ff" d="M2838.44,-143.02C3261.27,-91.5 3377.71,-176.1 3793.91,-107 3796.58,-106.56 3799.3,-106.03 3802.03,-105.45"/>
<polygon fill="#63b8ff" stroke="#63b8ff" points="2838.11,-139.53 2828.62,-144.24 2838.97,-146.48 2838.11,-139.53"/>
</g>
<!-- Node69 -->
<g id="node38" class="node">
<title>Node69</title>
<g id="a_node38"><a xlink:href="d__a__obj__tmoon_8h.html" target="_top" xlink:title=" ">
<polygon fill="white" stroke="#666666" points="4055.91,-107 3933.91,-107 3933.91,-66 4055.91,-66 4055.91,-107"/>
<text text-anchor="start" x="3941.91" y="-95" font-family="Helvetica,sans-Serif" font-size="10.00">include/rel/d/a/obj</text>
<text text-anchor="start" x="3941.91" y="-84" font-family="Helvetica,sans-Serif" font-size="10.00">/d_a_obj_tmoon/d_a_obj</text>
<text text-anchor="middle" x="3994.91" y="-73" font-family="Helvetica,sans-Serif" font-size="10.00">_tmoon.h</text>
</a>
</g>
</g>
<!-- Node4&#45;&gt;Node69 -->
<g id="edge40" class="edge">
<title>Node4&#45;&gt;Node69</title>
<path fill="none" stroke="#63b8ff" d="M2838.53,-143.02C3319.14,-85.33 3450.43,-179.87 3924.91,-107 3927.78,-106.56 3930.7,-106.04 3933.63,-105.46"/>
<polygon fill="#63b8ff" stroke="#63b8ff" points="2838.12,-139.54 2828.62,-144.22 2838.97,-146.49 2838.12,-139.54"/>
</g>
<!-- Node70 -->
<g id="node39" class="node">
<title>Node70</title>
<g id="a_node39"><a xlink:href="d__a__obj__web0_8h.html" target="_top" xlink:title=" ">
<polygon fill="white" stroke="#666666" points="4193.41,-107 4074.41,-107 4074.41,-66 4193.41,-66 4193.41,-107"/>
<text text-anchor="start" x="4082.41" y="-95" font-family="Helvetica,sans-Serif" font-size="10.00">include/rel/d/a/obj</text>
<text text-anchor="start" x="4082.41" y="-84" font-family="Helvetica,sans-Serif" font-size="10.00">/d_a_obj_web0/d_a_obj</text>
<text text-anchor="middle" x="4133.91" y="-73" font-family="Helvetica,sans-Serif" font-size="10.00">_web0.h</text>
</a>
</g>
</g>
<!-- Node4&#45;&gt;Node70 -->
<g id="edge41" class="edge">
<title>Node4&#45;&gt;Node70</title>
<path fill="none" stroke="#63b8ff" d="M2838.37,-143.04C3380.97,-78.77 3528.91,-189.31 4064.91,-107 4067.99,-106.53 4071.12,-105.96 4074.27,-105.32"/>
<polygon fill="#63b8ff" stroke="#63b8ff" points="2838.13,-139.54 2828.61,-144.21 2838.96,-146.49 2838.13,-139.54"/>
</g>
<!-- Node71 -->
<g id="node40" class="node">
<title>Node71</title>
<g id="a_node40"><a xlink:href="d__a__obj__web1_8h.html" target="_top" xlink:title=" ">
<polygon fill="white" stroke="#666666" points="4330.41,-107 4211.41,-107 4211.41,-66 4330.41,-66 4330.41,-107"/>
<text text-anchor="start" x="4219.41" y="-95" font-family="Helvetica,sans-Serif" font-size="10.00">include/rel/d/a/obj</text>
<text text-anchor="start" x="4219.41" y="-84" font-family="Helvetica,sans-Serif" font-size="10.00">/d_a_obj_web1/d_a_obj</text>
<text text-anchor="middle" x="4270.91" y="-73" font-family="Helvetica,sans-Serif" font-size="10.00">_web1.h</text>
</a>
</g>
</g>
<!-- Node4&#45;&gt;Node71 -->
<g id="edge42" class="edge">
<title>Node4&#45;&gt;Node71</title>
<path fill="none" stroke="#63b8ff" d="M2838.28,-143.06C3441.92,-72.31 3606.33,-198.88 4202.91,-107 4205.58,-106.59 4208.29,-106.1 4211.02,-105.56"/>
<polygon fill="#63b8ff" stroke="#63b8ff" points="2838.13,-139.55 2828.61,-144.2 2838.96,-146.5 2838.13,-139.55"/>
</g>
<!-- Node72 -->
<g id="node41" class="node">
<title>Node72</title>
<g id="a_node41"><a xlink:href="d__a__obj__yobikusa_8h.html" target="_top" xlink:title=" ">
<polygon fill="white" stroke="#666666" points="4453.41,-107 4348.41,-107 4348.41,-66 4453.41,-66 4453.41,-107"/>
<text text-anchor="start" x="4356.41" y="-95" font-family="Helvetica,sans-Serif" font-size="10.00">include/rel/d/a/obj</text>
<text text-anchor="start" x="4356.41" y="-84" font-family="Helvetica,sans-Serif" font-size="10.00">/d_a_obj_yobikusa/d</text>
<text text-anchor="middle" x="4400.91" y="-73" font-family="Helvetica,sans-Serif" font-size="10.00">_a_obj_yobikusa.h</text>
</a>
</g>
</g>
<!-- Node4&#45;&gt;Node72 -->
<g id="edge43" class="edge">
<title>Node4&#45;&gt;Node72</title>
<path fill="none" stroke="#63b8ff" d="M2838.55,-143.07C3187.11,-104.93 4014.06,-161.82 4339.91,-107 4342.65,-106.54 4345.44,-105.98 4348.24,-105.35"/>
<polygon fill="#63b8ff" stroke="#63b8ff" points="2838.15,-139.59 2828.61,-144.2 2838.95,-146.54 2838.15,-139.59"/>
</g>
<!-- Node73 -->
<g id="node42" class="node">
<title>Node73</title>
<g id="a_node42"><a xlink:href="d__a__tag__CstaSw_8h.html" target="_top" xlink:title=" ">
<polygon fill="white" stroke="#666666" points="4584.41,-107 4471.41,-107 4471.41,-66 4584.41,-66 4584.41,-107"/>
<text text-anchor="start" x="4479.41" y="-95" font-family="Helvetica,sans-Serif" font-size="10.00">include/rel/d/a/tag</text>
<text text-anchor="start" x="4479.41" y="-84" font-family="Helvetica,sans-Serif" font-size="10.00">/d_a_tag_CstaSw/d_a</text>
<text text-anchor="middle" x="4527.91" y="-73" font-family="Helvetica,sans-Serif" font-size="10.00">_tag_CstaSw.h</text>
</a>
</g>
</g>
<!-- Node4&#45;&gt;Node73 -->
<g id="edge44" class="edge">
<title>Node4&#45;&gt;Node73</title>
<path fill="none" stroke="#63b8ff" d="M2838.34,-143.09C3214.02,-102 4109.49,-162.87 4462.91,-107 4465.59,-106.58 4468.31,-106.07 4471.04,-105.5"/>
<polygon fill="#63b8ff" stroke="#63b8ff" points="2838.15,-139.59 2828.61,-144.19 2838.94,-146.54 2838.15,-139.59"/>
</g>
<!-- Node74 -->
<g id="node43" class="node">
<title>Node74</title>
<g id="a_node43"><a xlink:href="d__a__tag__ajnot_8h.html" target="_top" xlink:title=" ">
<polygon fill="white" stroke="#666666" points="4720.91,-107 4602.91,-107 4602.91,-66 4720.91,-66 4720.91,-107"/>
<text text-anchor="start" x="4610.91" y="-95" font-family="Helvetica,sans-Serif" font-size="10.00">include/rel/d/a/tag</text>
<text text-anchor="start" x="4610.91" y="-84" font-family="Helvetica,sans-Serif" font-size="10.00">/d_a_tag_ajnot/d_a_tag</text>
<text text-anchor="middle" x="4661.91" y="-73" font-family="Helvetica,sans-Serif" font-size="10.00">_ajnot.h</text>
</a>
</g>
</g>
<!-- Node4&#45;&gt;Node74 -->
<g id="edge45" class="edge">
<title>Node4&#45;&gt;Node74</title>
<path fill="none" stroke="#63b8ff" d="M2838.33,-143.09C3242.98,-98.92 4211.34,-164.77 4593.91,-107 4596.82,-106.56 4599.79,-106.03 4602.77,-105.43"/>
<polygon fill="#63b8ff" stroke="#63b8ff" points="2838.15,-139.59 2828.61,-144.19 2838.94,-146.54 2838.15,-139.59"/>
</g>
<!-- Node75 -->
<g id="node44" class="node">
<title>Node75</title>
<g id="a_node44"><a xlink:href="d__a__tag__assistance_8h.html" target="_top" xlink:title=" ">
<polygon fill="white" stroke="#666666" points="4852.91,-107 4738.91,-107 4738.91,-66 4852.91,-66 4852.91,-107"/>
<text text-anchor="start" x="4746.91" y="-95" font-family="Helvetica,sans-Serif" font-size="10.00">include/rel/d/a/tag</text>
<text text-anchor="start" x="4746.91" y="-84" font-family="Helvetica,sans-Serif" font-size="10.00">/d_a_tag_assistance</text>
<text text-anchor="middle" x="4795.91" y="-73" font-family="Helvetica,sans-Serif" font-size="10.00">/d_a_tag_assistance.h</text>
</a>
</g>
</g>
<!-- Node4&#45;&gt;Node75 -->
<g id="edge46" class="edge">
<title>Node4&#45;&gt;Node75</title>
<path fill="none" stroke="#63b8ff" d="M2838.53,-143.07C3273.42,-95.82 4317.75,-170.62 4729.91,-107 4732.74,-106.56 4735.63,-106.04 4738.52,-105.44"/>
<polygon fill="#63b8ff" stroke="#63b8ff" points="2838.16,-139.59 2828.61,-144.18 2838.94,-146.54 2838.16,-139.59"/>
</g>
<!-- Node76 -->
<g id="node45" class="node">
<title>Node76</title>
<g id="a_node45"><a xlink:href="d__a__tag__attention_8h.html" target="_top" xlink:title=" ">
<polygon fill="white" stroke="#666666" points="4976.41,-107 4871.41,-107 4871.41,-66 4976.41,-66 4976.41,-107"/>
<text text-anchor="start" x="4879.41" y="-95" font-family="Helvetica,sans-Serif" font-size="10.00">include/rel/d/a/tag</text>
<text text-anchor="start" x="4879.41" y="-84" font-family="Helvetica,sans-Serif" font-size="10.00">/d_a_tag_attention/d</text>
<text text-anchor="middle" x="4923.91" y="-73" font-family="Helvetica,sans-Serif" font-size="10.00">_a_tag_attention.h</text>
</a>
</g>
</g>
<!-- Node4&#45;&gt;Node76 -->
<g id="edge47" class="edge">
<title>Node4&#45;&gt;Node76</title>
<path fill="none" stroke="#63b8ff" d="M2838.28,-143.09C3302.23,-92.78 4421.26,-178.68 4861.91,-107 4864.92,-106.51 4867.98,-105.91 4871.05,-105.22"/>
<polygon fill="#63b8ff" stroke="#63b8ff" points="2838.16,-139.59 2828.61,-144.18 2838.94,-146.54 2838.16,-139.59"/>
</g>
<!-- Node4&#45;&gt;Node106 -->
<g id="edge48" class="edge">
<title>Node4&#45;&gt;Node106</title>
<path fill="none" stroke="#63b8ff" d="M2838.43,-143.08C3413.06,-80.96 4809.46,-181.65 5361.91,-107 5377.78,-104.86 5395.1,-100.49 5409.09,-96.43"/>
<polygon fill="#63b8ff" stroke="#63b8ff" points="2838.16,-139.59 2828.61,-144.17 2838.93,-146.54 2838.16,-139.59"/>
</g>
<!-- Node4&#45;&gt;Node107 -->
<g id="edge49" class="edge">
<title>Node4&#45;&gt;Node107</title>
<path fill="none" stroke="#63b8ff" d="M2705.28,-142.99C2382.25,-111.95 462.58,-152.2 189.91,-107 177.05,-104.87 163.18,-100.51 152.02,-96.45"/>
<polygon fill="#63b8ff" stroke="#63b8ff" points="2704.7,-146.44 2715.02,-144.01 2705.44,-139.48 2704.7,-146.44"/>
</g>
<!-- Node4&#45;&gt;Node127 -->
<g id="edge52" class="edge">
<title>Node4&#45;&gt;Node127</title>
<path fill="none" stroke="#63b8ff" d="M2705.38,-142.92C2160.63,-83.31 833.83,-192.41 311.91,-107 304.78,-105.83 297.33,-104 290.2,-101.92"/>
<polygon fill="#63b8ff" stroke="#63b8ff" points="2704.69,-146.36 2715.02,-144 2705.47,-139.41 2704.69,-146.36"/>
</g>
<!-- Node11&#45;&gt;Node12 -->
<g id="edge6" class="edge">
<title>Node11&#45;&gt;Node12</title>
<path fill="none" stroke="#63b8ff" d="M5199.17,-70.45C5181.16,-58.53 5156.17,-41.99 5138.47,-30.27"/>
<polygon fill="#63b8ff" stroke="#63b8ff" points="5197.08,-73.26 5207.35,-75.86 5200.94,-67.42 5197.08,-73.26"/>
</g>
<!-- Node11&#45;&gt;Node17 -->
<g id="edge7" class="edge">
<title>Node11&#45;&gt;Node17</title>
<path fill="none" stroke="#63b8ff" d="M5227.02,-65.76C5229.95,-54.45 5233.56,-40.52 5236.21,-30.27"/>
<polygon fill="#63b8ff" stroke="#63b8ff" points="5223.69,-64.67 5224.57,-75.23 5230.46,-66.43 5223.69,-64.67"/>
</g>
<!-- Node11&#45;&gt;Node18 -->
<g id="edge8" class="edge">
<title>Node11&#45;&gt;Node18</title>
<path fill="none" stroke="#63b8ff" d="M5250.43,-71.64C5274.97,-59.71 5310.24,-42.57 5335.13,-30.47"/>
<polygon fill="#63b8ff" stroke="#63b8ff" points="5249.14,-68.38 5241.67,-75.89 5252.2,-74.67 5249.14,-68.38"/>
</g>
<!-- Node24&#45;&gt;Node30 -->
<g id="edge11" class="edge">
<title>Node24&#45;&gt;Node30</title>
<path fill="none" stroke="#63b8ff" d="M520.15,-64.87C499.65,-51.56 474.01,-34.9 458.58,-24.88"/>
<polygon fill="#63b8ff" stroke="#63b8ff" points="518.18,-67.76 528.47,-70.28 521.99,-61.89 518.18,-67.76"/>
</g>
<!-- Node24&#45;&gt;Node31 -->
<g id="edge12" class="edge">
<title>Node24&#45;&gt;Node31</title>
<path fill="none" stroke="#63b8ff" d="M560.21,-60.41C563.55,-50.32 567.28,-39.04 570.15,-30.38"/>
<polygon fill="#63b8ff" stroke="#63b8ff" points="556.97,-59.07 557.15,-69.66 563.62,-61.27 556.97,-59.07"/>
</g>
</g>
</svg>
