<?xml version="1.0" encoding="UTF-8" standalone="no"?>
<!DOCTYPE svg PUBLIC "-//W3C//DTD SVG 1.1//EN"
 "http://www.w3.org/Graphics/SVG/1.1/DTD/svg11.dtd">
<!-- Generated by graphviz version 7.0.5 (20221223.1930)
 -->
<!-- Title: include/d/event/d_event_manager.h Pages: 1 -->
<svg width="5822pt" height="302pt"
 viewBox="0.00 0.00 5822.00 302.00" xmlns="http://www.w3.org/2000/svg" xmlns:xlink="http://www.w3.org/1999/xlink">
<g id="graph0" class="graph" transform="scale(1 1) rotate(0) translate(4 298)">
<title>include/d/event/d_event_manager.h</title>
<!-- Node1 -->
<g id="node1" class="node">
<title>Node1</title>
<g id="a_node1"><a xlink:title=" ">
<polygon fill="#999999" stroke="#666666" points="5066.5,-294 4946.5,-294 4946.5,-264 5066.5,-264 5066.5,-294"/>
<text text-anchor="start" x="4954.5" y="-282" font-family="Helvetica,sans-Serif" font-size="10.00">include/d/event/d_event</text>
<text text-anchor="middle" x="5006.5" y="-271" font-family="Helvetica,sans-Serif" font-size="10.00">_manager.h</text>
</a>
</g>
</g>
<!-- Node2 -->
<g id="node2" class="node">
<title>Node2</title>
<g id="a_node2"><a xlink:href="d__com__inf__game_8h.html" target="_top" xlink:title=" ">
<polygon fill="#fff0f0" stroke="red" points="3157.5,-173 3047.5,-173 3047.5,-143 3157.5,-143 3157.5,-173"/>
<text text-anchor="start" x="3055.5" y="-161" font-family="Helvetica,sans-Serif" font-size="10.00">include/d/com/d_com</text>
<text text-anchor="middle" x="3102.5" y="-150" font-family="Helvetica,sans-Serif" font-size="10.00">_inf_game.h</text>
</a>
</g>
</g>
<!-- Node1&#45;&gt;Node2 -->
<g id="edge1" class="edge">
<title>Node1&#45;&gt;Node2</title>
<path fill="none" stroke="#63b8ff" d="M4934.72,-273.51C4628,-254.34 3430.6,-179.51 3157.96,-162.47"/>
<polygon fill="#63b8ff" stroke="#63b8ff" points="4934.4,-277 4944.6,-274.13 4934.83,-270.01 4934.4,-277"/>
</g>
<!-- Node151 -->
<g id="node48" class="node">
<title>Node151</title>
<g id="a_node48"><a xlink:href="d__event__lib_8cpp.html" target="_top" xlink:title=" ">
<polygon fill="white" stroke="#666666" points="5693,-101.5 5590,-101.5 5590,-71.5 5693,-71.5 5693,-101.5"/>
<text text-anchor="start" x="5598" y="-89.5" font-family="Helvetica,sans-Serif" font-size="10.00">src/d/event/d_event</text>
<text text-anchor="middle" x="5641.5" y="-78.5" font-family="Helvetica,sans-Serif" font-size="10.00">_lib.cpp</text>
</a>
</g>
</g>
<!-- Node1&#45;&gt;Node151 -->
<g id="edge56" class="edge">
<title>Node1&#45;&gt;Node151</title>
<path fill="none" stroke="#63b8ff" d="M5067.11,-260.37C5171.94,-229.79 5393.81,-164.64 5580.5,-107 5585.71,-105.39 5591.15,-103.69 5596.56,-101.98"/>
<polygon fill="#63b8ff" stroke="#63b8ff" points="5066.2,-256.99 5057.58,-263.15 5068.16,-263.71 5066.2,-256.99"/>
</g>
<!-- Node152 -->
<g id="node49" class="node">
<title>Node152</title>
<g id="a_node49"><a xlink:href="d__event__manager_8cpp.html" target="_top" xlink:title=" ">
<polygon fill="white" stroke="#666666" points="5814,-101.5 5711,-101.5 5711,-71.5 5814,-71.5 5814,-101.5"/>
<text text-anchor="start" x="5719" y="-89.5" font-family="Helvetica,sans-Serif" font-size="10.00">src/d/event/d_event</text>
<text text-anchor="middle" x="5762.5" y="-78.5" font-family="Helvetica,sans-Serif" font-size="10.00">_manager.cpp</text>
</a>
</g>
</g>
<!-- Node1&#45;&gt;Node152 -->
<g id="edge57" class="edge">
<title>Node1&#45;&gt;Node152</title>
<path fill="none" stroke="#63b8ff" d="M5078.01,-261.71C5119.87,-252.09 5173.73,-239.56 5221.5,-228 5435.75,-176.14 5490.67,-167.99 5702.5,-107 5707.97,-105.42 5713.7,-103.68 5719.35,-101.91"/>
<polygon fill="#63b8ff" stroke="#63b8ff" points="5077.25,-258.29 5068.28,-263.94 5078.81,-265.12 5077.25,-258.29"/>
</g>
<!-- Node171 -->
<g id="node50" class="node">
<title>Node171</title>
<g id="a_node50"><a xlink:href="d__event_8h.html" target="_top" xlink:title=" ">
<polygon fill="#fff0f0" stroke="red" points="5024.5,-228 4896.5,-228 4896.5,-209 5024.5,-209 5024.5,-228"/>
<text text-anchor="middle" x="4960.5" y="-216" font-family="Helvetica,sans-Serif" font-size="10.00">include/d/event/d_event.h</text>
</a>
</g>
</g>
<!-- Node1&#45;&gt;Node171 -->
<g id="edge54" class="edge">
<title>Node1&#45;&gt;Node171</title>
<path fill="none" stroke="#63b8ff" d="M4988.13,-254.64C4980.8,-245.32 4972.81,-235.16 4967.32,-228.18"/>
<polygon fill="#63b8ff" stroke="#63b8ff" points="4985.26,-256.65 4994.19,-262.35 4990.76,-252.33 4985.26,-256.65"/>
</g>
<!-- Node3 -->
<g id="node3" class="node">
<title>Node3</title>
<g id="a_node3"><a xlink:href="d__a__npc_8h.html" target="_top" xlink:title=" ">
<polygon fill="#fff0f0" stroke="red" points="5157,-24.5 5046,-24.5 5046,-5.5 5157,-5.5 5157,-24.5"/>
<text text-anchor="middle" x="5101.5" y="-12.5" font-family="Helvetica,sans-Serif" font-size="10.00">include/d/a/d_a_npc.h</text>
</a>
</g>
</g>
<!-- Node2&#45;&gt;Node3 -->
<g id="edge2" class="edge">
<title>Node2&#45;&gt;Node3</title>
<path fill="none" stroke="#63b8ff" d="M3169.2,-157.31C3503.35,-158.59 4982.55,-161.19 5062.5,-107 5090.67,-87.9 5098.59,-43.91 5100.74,-24.96"/>
<polygon fill="#63b8ff" stroke="#63b8ff" points="3169.33,-153.81 3159.31,-157.27 3169.3,-160.81 3169.33,-153.81"/>
</g>
<!-- Node9 -->
<g id="node4" class="node">
<title>Node9</title>
<g id="a_node4"><a xlink:href="d__cc__uty_8h.html" target="_top" xlink:title=" ">
<polygon fill="#fff0f0" stroke="red" points="5395,-96 5276,-96 5276,-77 5395,-77 5395,-96"/>
<text text-anchor="middle" x="5335.5" y="-84" font-family="Helvetica,sans-Serif" font-size="10.00">include/d/cc/d_cc_uty.h</text>
</a>
</g>
</g>
<!-- Node2&#45;&gt;Node9 -->
<g id="edge3" class="edge">
<title>Node2&#45;&gt;Node9</title>
<path fill="none" stroke="#63b8ff" d="M3169.31,-156.39C3510.49,-153.12 5050.43,-136.83 5261.5,-107 5277.02,-104.81 5293.96,-100.49 5307.71,-96.48"/>
<polygon fill="#63b8ff" stroke="#63b8ff" points="3169.4,-152.88 3159.44,-156.48 3169.47,-159.88 3169.4,-152.88"/>
</g>
<!-- Node10 -->
<g id="node5" class="node">
<title>Node10</title>
<g id="a_node5"><a xlink:href="d__a__b__ob_8h.html" target="_top" xlink:title=" ">
<polygon fill="#fff0f0" stroke="red" points="5462.5,-30 5356.5,-30 5356.5,0 5462.5,0 5462.5,-30"/>
<text text-anchor="start" x="5364.5" y="-18" font-family="Helvetica,sans-Serif" font-size="10.00">include/rel/d/a/b/d</text>
<text text-anchor="middle" x="5409.5" y="-7" font-family="Helvetica,sans-Serif" font-size="10.00">_a_b_ob/d_a_b_ob.h</text>
</a>
</g>
</g>
<!-- Node2&#45;&gt;Node10 -->
<g id="edge23" class="edge">
<title>Node2&#45;&gt;Node10</title>
<path fill="none" stroke="#63b8ff" d="M3169.15,-156.79C3542.91,-155.45 5363.25,-146.9 5404.5,-107 5424.86,-87.31 5419.19,-50.66 5413.94,-30.4"/>
<polygon fill="#63b8ff" stroke="#63b8ff" points="3169.25,-153.29 3159.26,-156.82 3169.27,-160.29 3169.25,-153.29"/>
</g>
<!-- Node16 -->
<g id="node6" class="node">
<title>Node16</title>
<g id="a_node6"><a xlink:href="d__a__e__yk_8h.html" target="_top" xlink:title=" ">
<polygon fill="white" stroke="#666666" points="5312.5,-30 5208.5,-30 5208.5,0 5312.5,0 5312.5,-30"/>
<text text-anchor="start" x="5216.5" y="-18" font-family="Helvetica,sans-Serif" font-size="10.00">include/rel/d/a/e/d</text>
<text text-anchor="middle" x="5260.5" y="-7" font-family="Helvetica,sans-Serif" font-size="10.00">_a_e_yk/d_a_e_yk.h</text>
</a>
</g>
</g>
<!-- Node2&#45;&gt;Node16 -->
<g id="edge35" class="edge">
<title>Node2&#45;&gt;Node16</title>
<path fill="none" stroke="#63b8ff" d="M3169.24,-156.47C3525.21,-153.49 5185.83,-137.98 5228.5,-107 5253.03,-89.19 5258.87,-51.07 5260.19,-30.27"/>
<polygon fill="#63b8ff" stroke="#63b8ff" points="3169.35,-152.97 3159.38,-156.55 3169.41,-159.97 3169.35,-152.97"/>
</g>
<!-- Node18 -->
<g id="node7" class="node">
<title>Node18</title>
<g id="a_node7"><a xlink:href="d__error__msg_8h.html" target="_top" xlink:title=" ">
<polygon fill="#fff0f0" stroke="red" points="5571.5,-96 5451.5,-96 5451.5,-77 5571.5,-77 5571.5,-96"/>
<text text-anchor="middle" x="5511.5" y="-84" font-family="Helvetica,sans-Serif" font-size="10.00">include/d/d_error_msg.h</text>
</a>
</g>
</g>
<!-- Node2&#45;&gt;Node18 -->
<g id="edge6" class="edge">
<title>Node2&#45;&gt;Node18</title>
<path fill="none" stroke="#63b8ff" d="M3169.2,-156.51C3526.67,-153.77 5208.04,-139.23 5437.5,-107 5453.02,-104.82 5469.96,-100.51 5483.71,-96.49"/>
<polygon fill="#63b8ff" stroke="#63b8ff" points="3169.27,-153.01 3159.3,-156.59 3169.32,-160.01 3169.27,-153.01"/>
</g>
<!-- Node21 -->
<g id="node8" class="node">
<title>Node21</title>
<g id="a_node8"><a xlink:href="d__item_8h.html" target="_top" xlink:title=" ">
<polygon fill="#fff0f0" stroke="red" points="95,-96 0,-96 0,-77 95,-77 95,-96"/>
<text text-anchor="middle" x="47.5" y="-84" font-family="Helvetica,sans-Serif" font-size="10.00">include/d/d_item.h</text>
</a>
</g>
</g>
<!-- Node2&#45;&gt;Node21 -->
<g id="edge7" class="edge">
<title>Node2&#45;&gt;Node21</title>
<path fill="none" stroke="#63b8ff" d="M3035.65,-157.16C2620.31,-157.97 400.73,-159.82 103.5,-107 91.44,-104.86 78.49,-100.49 68.09,-96.43"/>
<polygon fill="#63b8ff" stroke="#63b8ff" points="3035.62,-160.66 3045.61,-157.14 3035.6,-153.66 3035.62,-160.66"/>
</g>
<!-- Node26 -->
<g id="node9" class="node">
<title>Node26</title>
<g id="a_node9"><a xlink:href="d__kantera__icon__meter_8h.html" target="_top" xlink:title=" ">
<polygon fill="#fff0f0" stroke="red" points="214,-101.5 113,-101.5 113,-71.5 214,-71.5 214,-101.5"/>
<text text-anchor="start" x="121" y="-89.5" font-family="Helvetica,sans-Serif" font-size="10.00">include/d/d_kantera</text>
<text text-anchor="middle" x="163.5" y="-78.5" font-family="Helvetica,sans-Serif" font-size="10.00">_icon_meter.h</text>
</a>
</g>
</g>
<!-- Node2&#45;&gt;Node26 -->
<g id="edge8" class="edge">
<title>Node2&#45;&gt;Node26</title>
<path fill="none" stroke="#63b8ff" d="M3035.76,-157.05C2630.51,-157.16 507.71,-155.45 222.5,-107 215.59,-105.83 208.38,-103.99 201.48,-101.91"/>
<polygon fill="#63b8ff" stroke="#63b8ff" points="3035.73,-160.55 3045.73,-157.04 3035.73,-153.55 3035.73,-160.55"/>
</g>
<!-- Node29 -->
<g id="node10" class="node">
<title>Node29</title>
<g id="a_node10"><a xlink:href="d__model_8h.html" target="_top" xlink:title=" ">
<polygon fill="#fff0f0" stroke="red" points="335,-96 232,-96 232,-77 335,-77 335,-96"/>
<text text-anchor="middle" x="283.5" y="-84" font-family="Helvetica,sans-Serif" font-size="10.00">include/d/d_model.h</text>
</a>
</g>
</g>
<!-- Node2&#45;&gt;Node29 -->
<g id="edge9" class="edge">
<title>Node2&#45;&gt;Node29</title>
<path fill="none" stroke="#63b8ff" d="M3035.76,-156.97C2640.66,-156.64 616.18,-152.73 343.5,-107 330.65,-104.84 316.78,-100.48 305.61,-96.42"/>
<polygon fill="#63b8ff" stroke="#63b8ff" points="3035.72,-160.47 3045.73,-156.98 3035.73,-153.47 3035.72,-160.47"/>
</g>
<!-- Node31 -->
<g id="node11" class="node">
<title>Node31</title>
<g id="a_node11"><a xlink:href="d__name_8h.html" target="_top" xlink:title=" ">
<polygon fill="#fff0f0" stroke="red" points="454,-96 353,-96 353,-77 454,-77 454,-96"/>
<text text-anchor="middle" x="403.5" y="-84" font-family="Helvetica,sans-Serif" font-size="10.00">include/d/d_name.h</text>
</a>
</g>
</g>
<!-- Node2&#45;&gt;Node31 -->
<g id="edge10" class="edge">
<title>Node2&#45;&gt;Node31</title>
<path fill="none" stroke="#63b8ff" d="M3035.76,-156.82C2651.42,-155.63 728.6,-147.7 468.5,-107 454.65,-104.83 439.63,-100.47 427.52,-96.41"/>
<polygon fill="#63b8ff" stroke="#63b8ff" points="3035.68,-160.32 3045.69,-156.85 3035.7,-153.32 3035.68,-160.32"/>
</g>
<!-- Node32 -->
<g id="node12" class="node">
<title>Node32</title>
<g id="a_node12"><a xlink:href="d__file__select_8h.html" target="_top" xlink:title=" ">
<polygon fill="#fff0f0" stroke="red" points="530.5,-30 434.5,-30 434.5,0 530.5,0 530.5,-30"/>
<text text-anchor="start" x="442.5" y="-18" font-family="Helvetica,sans-Serif" font-size="10.00">include/d/file/d_file</text>
<text text-anchor="middle" x="482.5" y="-7" font-family="Helvetica,sans-Serif" font-size="10.00">_select.h</text>
</a>
</g>
</g>
<!-- Node2&#45;&gt;Node32 -->
<g id="edge15" class="edge">
<title>Node2&#45;&gt;Node32</title>
<path fill="none" stroke="#63b8ff" d="M3035.84,-156.86C2634.17,-155.86 551.76,-148.66 501.5,-107 479.13,-88.46 478.83,-51 480.62,-30.4"/>
<polygon fill="#63b8ff" stroke="#63b8ff" points="3035.71,-160.36 3045.72,-156.88 3035.73,-153.36 3035.71,-160.36"/>
</g>
<!-- Node35 -->
<g id="node13" class="node">
<title>Node35</title>
<g id="a_node13"><a xlink:href="d__file__sel__info_8h.html" target="_top" xlink:title=" ">
<polygon fill="#fff0f0" stroke="red" points="720.5,-101.5 624.5,-101.5 624.5,-71.5 720.5,-71.5 720.5,-101.5"/>
<text text-anchor="start" x="632.5" y="-89.5" font-family="Helvetica,sans-Serif" font-size="10.00">include/d/file/d_file</text>
<text text-anchor="middle" x="672.5" y="-78.5" font-family="Helvetica,sans-Serif" font-size="10.00">_sel_info.h</text>
</a>
</g>
</g>
<!-- Node2&#45;&gt;Node35 -->
<g id="edge12" class="edge">
<title>Node2&#45;&gt;Node35</title>
<path fill="none" stroke="#63b8ff" d="M3035.82,-156.82C2674.76,-155.68 961.62,-148.12 729.5,-107 722.91,-105.83 716.05,-104.03 709.47,-101.98"/>
<polygon fill="#63b8ff" stroke="#63b8ff" points="3035.57,-160.32 3045.58,-156.85 3035.59,-153.32 3035.57,-160.32"/>
</g>
<!-- Node38 -->
<g id="node14" class="node">
<title>Node38</title>
<g id="a_node14"><a xlink:href="d__file__sel__warning_8h.html" target="_top" xlink:title=" ">
<polygon fill="#fff0f0" stroke="red" points="606.5,-101.5 510.5,-101.5 510.5,-71.5 606.5,-71.5 606.5,-101.5"/>
<text text-anchor="start" x="518.5" y="-89.5" font-family="Helvetica,sans-Serif" font-size="10.00">include/d/file/d_file</text>
<text text-anchor="middle" x="558.5" y="-78.5" font-family="Helvetica,sans-Serif" font-size="10.00">_sel_warning.h</text>
</a>
</g>
</g>
<!-- Node2&#45;&gt;Node38 -->
<g id="edge13" class="edge">
<title>Node2&#45;&gt;Node38</title>
<path fill="none" stroke="#63b8ff" d="M3035.93,-156.89C2664.82,-156.11 859.5,-150.11 615.5,-107 608.91,-105.84 602.05,-104.03 595.47,-101.99"/>
<polygon fill="#63b8ff" stroke="#63b8ff" points="3035.73,-160.39 3045.74,-156.91 3035.74,-153.39 3035.73,-160.39"/>
</g>
<!-- Node40 -->
<g id="node15" class="node">
<title>Node40</title>
<g id="a_node15"><a xlink:href="d__menu__calibration_8h.html" target="_top" xlink:title=" ">
<polygon fill="#fff0f0" stroke="red" points="858.5,-101.5 738.5,-101.5 738.5,-71.5 858.5,-71.5 858.5,-101.5"/>
<text text-anchor="start" x="746.5" y="-89.5" font-family="Helvetica,sans-Serif" font-size="10.00">include/d/menu/d_menu</text>
<text text-anchor="middle" x="798.5" y="-78.5" font-family="Helvetica,sans-Serif" font-size="10.00">_calibration.h</text>
</a>
</g>
</g>
<!-- Node2&#45;&gt;Node40 -->
<g id="edge16" class="edge">
<title>Node2&#45;&gt;Node40</title>
<path fill="none" stroke="#63b8ff" d="M3035.87,-156.51C2687.81,-153.84 1086.25,-139.81 867.5,-107 859.62,-105.82 851.37,-104.01 843.42,-101.96"/>
<polygon fill="#63b8ff" stroke="#63b8ff" points="3035.7,-160.01 3045.72,-156.59 3035.75,-153.01 3035.7,-160.01"/>
</g>
<!-- Node42 -->
<g id="node16" class="node">
<title>Node42</title>
<g id="a_node16"><a xlink:href="d__meter2_8h.html" target="_top" xlink:title=" ">
<polygon fill="#fff0f0" stroke="red" points="1010.5,-96 876.5,-96 876.5,-77 1010.5,-77 1010.5,-96"/>
<text text-anchor="middle" x="943.5" y="-84" font-family="Helvetica,sans-Serif" font-size="10.00">include/d/meter/d_meter2.h</text>
</a>
</g>
</g>
<!-- Node2&#45;&gt;Node42 -->
<g id="edge17" class="edge">
<title>Node2&#45;&gt;Node42</title>
<path fill="none" stroke="#63b8ff" d="M3035.63,-156.3C2701.71,-152.67 1222.73,-135.14 1019.5,-107 1003.58,-104.8 986.19,-100.48 972.06,-96.47"/>
<polygon fill="#63b8ff" stroke="#63b8ff" points="3035.47,-159.8 3045.51,-156.4 3035.55,-152.8 3035.47,-159.8"/>
</g>
<!-- Node53 -->
<g id="node17" class="node">
<title>Node53</title>
<g id="a_node17"><a xlink:href="d__msg__object_8h.html" target="_top" xlink:title=" ">
<polygon fill="#fff0f0" stroke="red" points="5219.5,-101.5 5109.5,-101.5 5109.5,-71.5 5219.5,-71.5 5219.5,-101.5"/>
<text text-anchor="start" x="5117.5" y="-89.5" font-family="Helvetica,sans-Serif" font-size="10.00">include/d/msg/d_msg</text>
<text text-anchor="middle" x="5164.5" y="-78.5" font-family="Helvetica,sans-Serif" font-size="10.00">_object.h</text>
</a>
</g>
</g>
<!-- Node2&#45;&gt;Node53 -->
<g id="edge18" class="edge">
<title>Node2&#45;&gt;Node53</title>
<path fill="none" stroke="#63b8ff" d="M3168.86,-156.32C3492.99,-152.87 4901.88,-136.31 5095.5,-107 5103.38,-105.81 5111.63,-103.99 5119.57,-101.94"/>
<polygon fill="#63b8ff" stroke="#63b8ff" points="3169.27,-152.82 3159.31,-156.42 3169.34,-159.82 3169.27,-152.82"/>
</g>
<!-- Node72 -->
<g id="node18" class="node">
<title>Node72</title>
<g id="a_node18"><a xlink:href="d__s__logo_8h.html" target="_top" xlink:title=" ">
<polygon fill="#fff0f0" stroke="red" points="1142,-96 1029,-96 1029,-77 1142,-77 1142,-96"/>
<text text-anchor="middle" x="1085.5" y="-84" font-family="Helvetica,sans-Serif" font-size="10.00">include/d/s/d_s_logo.h</text>
</a>
</g>
</g>
<!-- Node2&#45;&gt;Node72 -->
<g id="edge20" class="edge">
<title>Node2&#45;&gt;Node72</title>
<path fill="none" stroke="#63b8ff" d="M3035.97,-156.34C2715.62,-153.05 1339.6,-137.23 1150.5,-107 1136.77,-104.81 1121.89,-100.49 1109.83,-96.48"/>
<polygon fill="#63b8ff" stroke="#63b8ff" points="3035.82,-159.84 3045.85,-156.45 3035.89,-152.84 3035.82,-159.84"/>
</g>
<!-- Node74 -->
<g id="node19" class="node">
<title>Node74</title>
<g id="a_node19"><a xlink:href="d__s__play_8h.html" target="_top" xlink:title=" ">
<polygon fill="#fff0f0" stroke="red" points="1273,-96 1160,-96 1160,-77 1273,-77 1273,-96"/>
<text text-anchor="middle" x="1216.5" y="-84" font-family="Helvetica,sans-Serif" font-size="10.00">include/d/s/d_s_play.h</text>
</a>
</g>
</g>
<!-- Node2&#45;&gt;Node74 -->
<g id="edge21" class="edge">
<title>Node2&#45;&gt;Node74</title>
<path fill="none" stroke="#63b8ff" d="M3036.01,-156.21C2729.12,-152.44 1457.03,-135.23 1281.5,-107 1267.77,-104.79 1252.89,-100.48 1240.84,-96.47"/>
<polygon fill="#63b8ff" stroke="#63b8ff" points="3035.81,-159.71 3045.85,-156.33 3035.89,-152.71 3035.81,-159.71"/>
</g>
<!-- Node81 -->
<g id="node20" class="node">
<title>Node81</title>
<g id="a_node20"><a xlink:href="d__msg__scrn__base_8h.html" target="_top" xlink:title=" ">
<polygon fill="#fff0f0" stroke="red" points="1390,-101.5 1291,-101.5 1291,-71.5 1390,-71.5 1390,-101.5"/>
<text text-anchor="start" x="1299" y="-89.5" font-family="Helvetica,sans-Serif" font-size="10.00">include/msg/scrn/d</text>
<text text-anchor="middle" x="1340.5" y="-78.5" font-family="Helvetica,sans-Serif" font-size="10.00">_msg_scrn_base.h</text>
</a>
</g>
</g>
<!-- Node2&#45;&gt;Node81 -->
<g id="edge22" class="edge">
<title>Node2&#45;&gt;Node81</title>
<path fill="none" stroke="#63b8ff" d="M3035.99,-156.21C2741.39,-152.54 1561.48,-136.12 1398.5,-107 1391.81,-105.8 1384.84,-103.99 1378.14,-101.93"/>
<polygon fill="#63b8ff" stroke="#63b8ff" points="3035.76,-159.7 3045.8,-156.33 3035.85,-152.7 3035.76,-159.7"/>
</g>
<!-- Node85 -->
<g id="node21" class="node">
<title>Node85</title>
<g id="a_node21"><a xlink:href="d__a__b__zant_8h.html" target="_top" xlink:title=" ">
<polygon fill="white" stroke="#666666" points="1529,-101.5 1408,-101.5 1408,-71.5 1529,-71.5 1529,-101.5"/>
<text text-anchor="start" x="1416" y="-89.5" font-family="Helvetica,sans-Serif" font-size="10.00">include/rel/d/a/b/d</text>
<text text-anchor="middle" x="1468.5" y="-78.5" font-family="Helvetica,sans-Serif" font-size="10.00">_a_b_zant/d_a_b_zant.h</text>
</a>
</g>
</g>
<!-- Node2&#45;&gt;Node85 -->
<g id="edge24" class="edge">
<title>Node2&#45;&gt;Node85</title>
<path fill="none" stroke="#63b8ff" d="M3035.92,-156.99C2776.58,-156.64 1833.89,-152.19 1538.5,-107 1530.64,-105.8 1522.41,-104.01 1514.47,-101.99"/>
<polygon fill="#63b8ff" stroke="#63b8ff" points="3035.87,-160.49 3045.87,-157 3035.87,-153.49 3035.87,-160.49"/>
</g>
<!-- Node86 -->
<g id="node22" class="node">
<title>Node86</title>
<g id="a_node22"><a xlink:href="d__a__andsw_8h.html" target="_top" xlink:title=" ">
<polygon fill="white" stroke="#666666" points="1657.5,-101.5 1547.5,-101.5 1547.5,-71.5 1657.5,-71.5 1657.5,-101.5"/>
<text text-anchor="start" x="1555.5" y="-89.5" font-family="Helvetica,sans-Serif" font-size="10.00">include/rel/d/a/d_a</text>
<text text-anchor="middle" x="1602.5" y="-78.5" font-family="Helvetica,sans-Serif" font-size="10.00">_andsw/d_a_andsw.h</text>
</a>
</g>
</g>
<!-- Node2&#45;&gt;Node86 -->
<g id="edge25" class="edge">
<title>Node2&#45;&gt;Node86</title>
<path fill="none" stroke="#63b8ff" d="M3036.08,-156.98C2790.65,-156.56 1935.2,-151.82 1666.5,-107 1659.28,-105.8 1651.74,-104 1644.47,-101.99"/>
<polygon fill="#63b8ff" stroke="#63b8ff" points="3035.79,-160.48 3045.79,-157 3035.8,-153.48 3035.79,-160.48"/>
</g>
<!-- Node87 -->
<g id="node23" class="node">
<title>Node87</title>
<g id="a_node23"><a xlink:href="d__a__cstaF_8h.html" target="_top" xlink:title=" ">
<polygon fill="white" stroke="#666666" points="1779,-101.5 1676,-101.5 1676,-71.5 1779,-71.5 1779,-101.5"/>
<text text-anchor="start" x="1684" y="-89.5" font-family="Helvetica,sans-Serif" font-size="10.00">include/rel/d/a/d_a</text>
<text text-anchor="middle" x="1727.5" y="-78.5" font-family="Helvetica,sans-Serif" font-size="10.00">_cstaF/d_a_cstaF.h</text>
</a>
</g>
</g>
<!-- Node2&#45;&gt;Node87 -->
<g id="edge26" class="edge">
<title>Node2&#45;&gt;Node87</title>
<path fill="none" stroke="#63b8ff" d="M3035.99,-156.85C2804.07,-155.95 2032.01,-149.73 1788.5,-107 1781.6,-105.79 1774.4,-103.99 1767.47,-101.97"/>
<polygon fill="#63b8ff" stroke="#63b8ff" points="3035.74,-160.35 3045.75,-156.88 3035.77,-153.35 3035.74,-160.35"/>
</g>
<!-- Node88 -->
<g id="node24" class="node">
<title>Node88</title>
<g id="a_node24"><a xlink:href="d__a__dmidna_8h.html" target="_top" xlink:title=" ">
<polygon fill="white" stroke="#666666" points="1913.5,-101.5 1797.5,-101.5 1797.5,-71.5 1913.5,-71.5 1913.5,-101.5"/>
<text text-anchor="start" x="1805.5" y="-89.5" font-family="Helvetica,sans-Serif" font-size="10.00">include/rel/d/a/d_a</text>
<text text-anchor="middle" x="1855.5" y="-78.5" font-family="Helvetica,sans-Serif" font-size="10.00">_dmidna/d_a_dmidna.h</text>
</a>
</g>
</g>
<!-- Node2&#45;&gt;Node88 -->
<g id="edge27" class="edge">
<title>Node2&#45;&gt;Node88</title>
<path fill="none" stroke="#63b8ff" d="M3035.68,-156.28C2819.28,-153.63 2139.18,-142.59 1922.5,-107 1914.97,-105.76 1907.09,-103.95 1899.48,-101.93"/>
<polygon fill="#63b8ff" stroke="#63b8ff" points="3035.59,-159.78 3045.63,-156.4 3035.68,-152.78 3035.59,-159.78"/>
</g>
<!-- Node89 -->
<g id="node25" class="node">
<title>Node89</title>
<g id="a_node25"><a xlink:href="d__a__econt_8h.html" target="_top" xlink:title=" ">
<polygon fill="white" stroke="#666666" points="2033,-101.5 1932,-101.5 1932,-71.5 2033,-71.5 2033,-101.5"/>
<text text-anchor="start" x="1940" y="-89.5" font-family="Helvetica,sans-Serif" font-size="10.00">include/rel/d/a/d_a</text>
<text text-anchor="middle" x="1982.5" y="-78.5" font-family="Helvetica,sans-Serif" font-size="10.00">_econt/d_a_econt.h</text>
</a>
</g>
</g>
<!-- Node2&#45;&gt;Node89 -->
<g id="edge28" class="edge">
<title>Node2&#45;&gt;Node89</title>
<path fill="none" stroke="#63b8ff" d="M3035.96,-156.23C2834.55,-153.52 2233.6,-142.58 2041.5,-107 2034.82,-105.76 2027.85,-103.95 2021.14,-101.93"/>
<polygon fill="#63b8ff" stroke="#63b8ff" points="3035.67,-159.72 3045.71,-156.36 3035.76,-152.72 3035.67,-159.72"/>
</g>
<!-- Node90 -->
<g id="node26" class="node">
<title>Node90</title>
<g id="a_node26"><a xlink:href="d__a__guard__mng_8h.html" target="_top" xlink:title=" ">
<polygon fill="white" stroke="#666666" points="2200,-101.5 2051,-101.5 2051,-71.5 2200,-71.5 2200,-101.5"/>
<text text-anchor="start" x="2059" y="-89.5" font-family="Helvetica,sans-Serif" font-size="10.00">include/rel/d/a/d_a</text>
<text text-anchor="middle" x="2125.5" y="-78.5" font-family="Helvetica,sans-Serif" font-size="10.00">_guard_mng/d_a_guard_mng.h</text>
</a>
</g>
</g>
<!-- Node2&#45;&gt;Node90 -->
<g id="edge29" class="edge">
<title>Node2&#45;&gt;Node90</title>
<path fill="none" stroke="#63b8ff" d="M3035.86,-157.18C2886.92,-156.72 2516.05,-150.83 2209.5,-107 2200.46,-105.71 2190.96,-103.92 2181.73,-101.96"/>
<polygon fill="#63b8ff" stroke="#63b8ff" points="3035.52,-160.67 3045.53,-157.2 3035.54,-153.67 3035.52,-160.67"/>
</g>
<!-- Node91 -->
<g id="node27" class="node">
<title>Node91</title>
<g id="a_node27"><a xlink:href="d__a__hitobj_8h.html" target="_top" xlink:title=" ">
<polygon fill="white" stroke="#666666" points="2318.5,-101.5 2218.5,-101.5 2218.5,-71.5 2318.5,-71.5 2318.5,-101.5"/>
<text text-anchor="start" x="2226.5" y="-89.5" font-family="Helvetica,sans-Serif" font-size="10.00">include/rel/d/a/d_a</text>
<text text-anchor="middle" x="2268.5" y="-78.5" font-family="Helvetica,sans-Serif" font-size="10.00">_hitobj/d_a_hitobj.h</text>
</a>
</g>
</g>
<!-- Node2&#45;&gt;Node91 -->
<g id="edge30" class="edge">
<title>Node2&#45;&gt;Node91</title>
<path fill="none" stroke="#63b8ff" d="M3035.93,-154.88C2873.9,-149.38 2462.41,-133.2 2327.5,-107 2320.93,-105.72 2314.09,-103.92 2307.48,-101.93"/>
<polygon fill="#63b8ff" stroke="#63b8ff" points="3035.54,-158.37 3045.65,-155.21 3035.77,-151.38 3035.54,-158.37"/>
</g>
<!-- Node92 -->
<g id="node28" class="node">
<title>Node92</title>
<g id="a_node28"><a xlink:href="d__a__set__bgobj_8h.html" target="_top" xlink:title=" ">
<polygon fill="white" stroke="#666666" points="2474,-101.5 2337,-101.5 2337,-71.5 2474,-71.5 2474,-101.5"/>
<text text-anchor="start" x="2345" y="-89.5" font-family="Helvetica,sans-Serif" font-size="10.00">include/rel/d/a/d_a</text>
<text text-anchor="middle" x="2405.5" y="-78.5" font-family="Helvetica,sans-Serif" font-size="10.00">_set_bgobj/d_a_set_bgobj.h</text>
</a>
</g>
</g>
<!-- Node2&#45;&gt;Node92 -->
<g id="edge31" class="edge">
<title>Node2&#45;&gt;Node92</title>
<path fill="none" stroke="#63b8ff" d="M3035.77,-155.2C2921.84,-151.33 2682.79,-139.73 2483.5,-107 2475.37,-105.67 2466.85,-103.91 2458.54,-102"/>
<polygon fill="#63b8ff" stroke="#63b8ff" points="3035.44,-158.69 3045.55,-155.52 3035.67,-151.7 3035.44,-158.69"/>
</g>
<!-- Node93 -->
<g id="node29" class="node">
<title>Node93</title>
<g id="a_node29"><a xlink:href="d__a__skip__2D_8h.html" target="_top" xlink:title=" ">
<polygon fill="white" stroke="#666666" points="2616.5,-101.5 2492.5,-101.5 2492.5,-71.5 2616.5,-71.5 2616.5,-101.5"/>
<text text-anchor="start" x="2500.5" y="-89.5" font-family="Helvetica,sans-Serif" font-size="10.00">include/rel/d/a/d_a</text>
<text text-anchor="middle" x="2554.5" y="-78.5" font-family="Helvetica,sans-Serif" font-size="10.00">_skip_2D/d_a_skip_2D.h</text>
</a>
</g>
</g>
<!-- Node2&#45;&gt;Node93 -->
<g id="edge32" class="edge">
<title>Node2&#45;&gt;Node93</title>
<path fill="none" stroke="#63b8ff" d="M3035.91,-153.47C2943.25,-147.77 2770.47,-134.32 2625.5,-107 2618.21,-105.63 2610.59,-103.88 2603.14,-101.99"/>
<polygon fill="#63b8ff" stroke="#63b8ff" points="3035.65,-156.96 3045.84,-154.07 3036.07,-149.97 3035.65,-156.96"/>
</g>
<!-- Node94 -->
<g id="node30" class="node">
<title>Node94</title>
<g id="a_node30"><a xlink:href="d__a__spinner_8h.html" target="_top" xlink:title=" ">
<polygon fill="#fff0f0" stroke="red" points="2750.5,-101.5 2634.5,-101.5 2634.5,-71.5 2750.5,-71.5 2750.5,-101.5"/>
<text text-anchor="start" x="2642.5" y="-89.5" font-family="Helvetica,sans-Serif" font-size="10.00">include/rel/d/a/d_a</text>
<text text-anchor="middle" x="2692.5" y="-78.5" font-family="Helvetica,sans-Serif" font-size="10.00">_spinner/d_a_spinner.h</text>
</a>
</g>
</g>
<!-- Node2&#45;&gt;Node94 -->
<g id="edge33" class="edge">
<title>Node2&#45;&gt;Node94</title>
<path fill="none" stroke="#63b8ff" d="M3035.93,-150.06C2966.46,-142.18 2854.62,-127.67 2759.5,-107 2752.87,-105.56 2745.94,-103.82 2739.15,-101.97"/>
<polygon fill="#63b8ff" stroke="#63b8ff" points="3035.3,-153.51 3045.62,-151.15 3036.08,-146.56 3035.3,-153.51"/>
</g>
<!-- Node97 -->
<g id="node31" class="node">
<title>Node97</title>
<g id="a_node31"><a xlink:href="d__a__swTime_8h.html" target="_top" xlink:title=" ">
<polygon fill="white" stroke="#666666" points="2890.5,-101.5 2768.5,-101.5 2768.5,-71.5 2890.5,-71.5 2890.5,-101.5"/>
<text text-anchor="start" x="2776.5" y="-89.5" font-family="Helvetica,sans-Serif" font-size="10.00">include/rel/d/a/d_a</text>
<text text-anchor="middle" x="2829.5" y="-78.5" font-family="Helvetica,sans-Serif" font-size="10.00">_swTime/d_a_swTime.h</text>
</a>
</g>
</g>
<!-- Node2&#45;&gt;Node97 -->
<g id="edge34" class="edge">
<title>Node2&#45;&gt;Node97</title>
<path fill="none" stroke="#63b8ff" d="M3036.11,-141.18C2996.39,-131.59 2944.97,-118.93 2899.5,-107 2893.4,-105.4 2887.01,-103.68 2880.68,-101.95"/>
<polygon fill="#63b8ff" stroke="#63b8ff" points="3035.23,-144.57 3045.77,-143.51 3036.87,-137.77 3035.23,-144.57"/>
</g>
<!-- Node98 -->
<g id="node32" class="node">
<title>Node98</title>
<g id="a_node32"><a xlink:href="d__a__obj__bombf_8h.html" target="_top" xlink:title=" ">
<polygon fill="white" stroke="#666666" points="3030.5,-107 2908.5,-107 2908.5,-66 3030.5,-66 3030.5,-107"/>
<text text-anchor="start" x="2916.5" y="-95" font-family="Helvetica,sans-Serif" font-size="10.00">include/rel/d/a/obj</text>
<text text-anchor="start" x="2916.5" y="-84" font-family="Helvetica,sans-Serif" font-size="10.00">/d_a_obj_bombf/d_a_obj</text>
<text text-anchor="middle" x="2969.5" y="-73" font-family="Helvetica,sans-Serif" font-size="10.00">_bombf.h</text>
</a>
</g>
</g>
<!-- Node2&#45;&gt;Node98 -->
<g id="edge36" class="edge">
<title>Node2&#45;&gt;Node98</title>
<path fill="none" stroke="#63b8ff" d="M3064.85,-137.33C3046.95,-127.97 3025.58,-116.8 3007.61,-107.42"/>
<polygon fill="#63b8ff" stroke="#63b8ff" points="3063.12,-140.37 3073.6,-141.9 3066.36,-134.17 3063.12,-140.37"/>
</g>
<!-- Node99 -->
<g id="node33" class="node">
<title>Node99</title>
<g id="a_node33"><a xlink:href="d__a__obj__cboard_8h.html" target="_top" xlink:title=" ">
<polygon fill="white" stroke="#666666" points="3156,-107 3049,-107 3049,-66 3156,-66 3156,-107"/>
<text text-anchor="start" x="3057" y="-95" font-family="Helvetica,sans-Serif" font-size="10.00">include/rel/d/a/obj</text>
<text text-anchor="start" x="3057" y="-84" font-family="Helvetica,sans-Serif" font-size="10.00">/d_a_obj_cboard/d_a</text>
<text text-anchor="middle" x="3102.5" y="-73" font-family="Helvetica,sans-Serif" font-size="10.00">_obj_cboard.h</text>
</a>
</g>
</g>
<!-- Node2&#45;&gt;Node99 -->
<g id="edge37" class="edge">
<title>Node2&#45;&gt;Node99</title>
<path fill="none" stroke="#63b8ff" d="M3102.5,-131.36C3102.5,-123.45 3102.5,-114.87 3102.5,-107.42"/>
<polygon fill="#63b8ff" stroke="#63b8ff" points="3099,-131.09 3102.5,-141.09 3106,-131.09 3099,-131.09"/>
</g>
<!-- Node100 -->
<g id="node34" class="node">
<title>Node100</title>
<g id="a_node34"><a xlink:href="d__a__obj__enemy__create_8h.html" target="_top" xlink:title=" ">
<polygon fill="white" stroke="#666666" points="3301,-107 3174,-107 3174,-66 3301,-66 3301,-107"/>
<text text-anchor="start" x="3182" y="-95" font-family="Helvetica,sans-Serif" font-size="10.00">include/rel/d/a/obj</text>
<text text-anchor="start" x="3182" y="-84" font-family="Helvetica,sans-Serif" font-size="10.00">/d_a_obj_enemy_create</text>
<text text-anchor="middle" x="3237.5" y="-73" font-family="Helvetica,sans-Serif" font-size="10.00">/d_a_obj_enemy_create.h</text>
</a>
</g>
</g>
<!-- Node2&#45;&gt;Node100 -->
<g id="edge38" class="edge">
<title>Node2&#45;&gt;Node100</title>
<path fill="none" stroke="#63b8ff" d="M3140.46,-137.46C3158.69,-128.07 3180.49,-116.85 3198.81,-107.42"/>
<polygon fill="#63b8ff" stroke="#63b8ff" points="3139.11,-134.22 3131.82,-141.91 3142.31,-140.44 3139.11,-134.22"/>
</g>
<!-- Node101 -->
<g id="node35" class="node">
<title>Node101</title>
<g id="a_node35"><a xlink:href="d__a__obj__onsenFire_8h.html" target="_top" xlink:title=" ">
<polygon fill="white" stroke="#666666" points="3429.5,-107 3319.5,-107 3319.5,-66 3429.5,-66 3429.5,-107"/>
<text text-anchor="start" x="3327.5" y="-95" font-family="Helvetica,sans-Serif" font-size="10.00">include/rel/d/a/obj</text>
<text text-anchor="start" x="3327.5" y="-84" font-family="Helvetica,sans-Serif" font-size="10.00">/d_a_obj_onsenFire/d</text>
<text text-anchor="middle" x="3374.5" y="-73" font-family="Helvetica,sans-Serif" font-size="10.00">_a_obj_onsenFire.h</text>
</a>
</g>
</g>
<!-- Node2&#45;&gt;Node101 -->
<g id="edge39" class="edge">
<title>Node2&#45;&gt;Node101</title>
<path fill="none" stroke="#63b8ff" d="M3169.11,-142.06C3210.05,-132.61 3263.5,-119.8 3310.5,-107 3313.3,-106.24 3316.17,-105.44 3319.06,-104.61"/>
<polygon fill="#63b8ff" stroke="#63b8ff" points="3168.35,-138.64 3159.38,-144.29 3169.91,-145.46 3168.35,-138.64"/>
</g>
<!-- Node102 -->
<g id="node36" class="node">
<title>Node102</title>
<g id="a_node36"><a xlink:href="d__a__obj__smoke_8h.html" target="_top" xlink:title=" ">
<polygon fill="white" stroke="#666666" points="3573,-107 3448,-107 3448,-66 3573,-66 3573,-107"/>
<text text-anchor="start" x="3456" y="-95" font-family="Helvetica,sans-Serif" font-size="10.00">include/rel/d/a/obj</text>
<text text-anchor="start" x="3456" y="-84" font-family="Helvetica,sans-Serif" font-size="10.00">/d_a_obj_smoke/d_a_obj</text>
<text text-anchor="middle" x="3510.5" y="-73" font-family="Helvetica,sans-Serif" font-size="10.00">_smoke.h</text>
</a>
</g>
</g>
<!-- Node2&#45;&gt;Node102 -->
<g id="edge40" class="edge">
<title>Node2&#45;&gt;Node102</title>
<path fill="none" stroke="#63b8ff" d="M3169.25,-149.4C3237.35,-141.1 3345.87,-126.37 3438.5,-107 3441.54,-106.36 3444.65,-105.68 3447.78,-104.95"/>
<polygon fill="#63b8ff" stroke="#63b8ff" points="3168.86,-145.92 3159.35,-150.59 3169.7,-152.87 3168.86,-145.92"/>
</g>
<!-- Node103 -->
<g id="node37" class="node">
<title>Node103</title>
<g id="a_node37"><a xlink:href="d__a__obj__stone_8h.html" target="_top" xlink:title=" ">
<polygon fill="white" stroke="#666666" points="3710,-107 3591,-107 3591,-66 3710,-66 3710,-107"/>
<text text-anchor="start" x="3599" y="-95" font-family="Helvetica,sans-Serif" font-size="10.00">include/rel/d/a/obj</text>
<text text-anchor="start" x="3599" y="-84" font-family="Helvetica,sans-Serif" font-size="10.00">/d_a_obj_stone/d_a_obj</text>
<text text-anchor="middle" x="3650.5" y="-73" font-family="Helvetica,sans-Serif" font-size="10.00">_stone.h</text>
</a>
</g>
</g>
<!-- Node2&#45;&gt;Node103 -->
<g id="edge41" class="edge">
<title>Node2&#45;&gt;Node103</title>
<path fill="none" stroke="#63b8ff" d="M3168.89,-153.77C3262.02,-148.41 3436.43,-135.32 3582.5,-107 3585.15,-106.49 3587.85,-105.92 3590.57,-105.3"/>
<polygon fill="#63b8ff" stroke="#63b8ff" points="3168.97,-150.26 3159.18,-154.32 3169.36,-157.25 3168.97,-150.26"/>
</g>
<!-- Node104 -->
<g id="node38" class="node">
<title>Node104</title>
<g id="a_node38"><a xlink:href="d__a__obj__stoneMark_8h.html" target="_top" xlink:title=" ">
<polygon fill="white" stroke="#666666" points="3841,-107 3728,-107 3728,-66 3841,-66 3841,-107"/>
<text text-anchor="start" x="3736" y="-95" font-family="Helvetica,sans-Serif" font-size="10.00">include/rel/d/a/obj</text>
<text text-anchor="start" x="3736" y="-84" font-family="Helvetica,sans-Serif" font-size="10.00">/d_a_obj_stoneMark/d</text>
<text text-anchor="middle" x="3784.5" y="-73" font-family="Helvetica,sans-Serif" font-size="10.00">_a_obj_stoneMark.h</text>
</a>
</g>
</g>
<!-- Node2&#45;&gt;Node104 -->
<g id="edge42" class="edge">
<title>Node2&#45;&gt;Node104</title>
<path fill="none" stroke="#63b8ff" d="M3169.19,-156.18C3283.01,-153.76 3521.67,-144.26 3719.5,-107 3722.16,-106.5 3724.87,-105.93 3727.6,-105.31"/>
<polygon fill="#63b8ff" stroke="#63b8ff" points="3169.35,-152.68 3159.42,-156.37 3169.49,-159.67 3169.35,-152.68"/>
</g>
<!-- Node105 -->
<g id="node39" class="node">
<title>Node105</title>
<g id="a_node39"><a xlink:href="d__a__obj__web0_8h.html" target="_top" xlink:title=" ">
<polygon fill="white" stroke="#666666" points="3978,-107 3859,-107 3859,-66 3978,-66 3978,-107"/>
<text text-anchor="start" x="3867" y="-95" font-family="Helvetica,sans-Serif" font-size="10.00">include/rel/d/a/obj</text>
<text text-anchor="start" x="3867" y="-84" font-family="Helvetica,sans-Serif" font-size="10.00">/d_a_obj_web0/d_a_obj</text>
<text text-anchor="middle" x="3918.5" y="-73" font-family="Helvetica,sans-Serif" font-size="10.00">_web0.h</text>
</a>
</g>
</g>
<!-- Node2&#45;&gt;Node105 -->
<g id="edge43" class="edge">
<title>Node2&#45;&gt;Node105</title>
<path fill="none" stroke="#63b8ff" d="M3169.31,-157.27C3300.78,-156.76 3601.91,-150.44 3850.5,-107 3853.16,-106.53 3855.87,-106.01 3858.59,-105.43"/>
<polygon fill="#63b8ff" stroke="#63b8ff" points="3169.38,-153.77 3159.39,-157.3 3169.4,-160.77 3169.38,-153.77"/>
</g>
<!-- Node106 -->
<g id="node40" class="node">
<title>Node106</title>
<g id="a_node40"><a xlink:href="d__a__obj__web1_8h.html" target="_top" xlink:title=" ">
<polygon fill="white" stroke="#666666" points="4115,-107 3996,-107 3996,-66 4115,-66 4115,-107"/>
<text text-anchor="start" x="4004" y="-95" font-family="Helvetica,sans-Serif" font-size="10.00">include/rel/d/a/obj</text>
<text text-anchor="start" x="4004" y="-84" font-family="Helvetica,sans-Serif" font-size="10.00">/d_a_obj_web1/d_a_obj</text>
<text text-anchor="middle" x="4055.5" y="-73" font-family="Helvetica,sans-Serif" font-size="10.00">_web1.h</text>
</a>
</g>
</g>
<!-- Node2&#45;&gt;Node106 -->
<g id="edge44" class="edge">
<title>Node2&#45;&gt;Node106</title>
<path fill="none" stroke="#63b8ff" d="M3169.26,-155.15C3347.25,-149.93 3830.22,-133.65 3987.5,-107 3990.16,-106.55 3992.87,-106.03 3995.6,-105.46"/>
<polygon fill="#63b8ff" stroke="#63b8ff" points="3169.39,-151.65 3159.5,-155.44 3169.6,-158.65 3169.39,-151.65"/>
</g>
<!-- Node107 -->
<g id="node41" class="node">
<title>Node107</title>
<g id="a_node41"><a xlink:href="d__a__obj__yobikusa_8h.html" target="_top" xlink:title=" ">
<polygon fill="white" stroke="#666666" points="4238,-107 4133,-107 4133,-66 4238,-66 4238,-107"/>
<text text-anchor="start" x="4141" y="-95" font-family="Helvetica,sans-Serif" font-size="10.00">include/rel/d/a/obj</text>
<text text-anchor="start" x="4141" y="-84" font-family="Helvetica,sans-Serif" font-size="10.00">/d_a_obj_yobikusa/d</text>
<text text-anchor="middle" x="4185.5" y="-73" font-family="Helvetica,sans-Serif" font-size="10.00">_a_obj_yobikusa.h</text>
</a>
</g>
</g>
<!-- Node2&#45;&gt;Node107 -->
<g id="edge45" class="edge">
<title>Node2&#45;&gt;Node107</title>
<path fill="none" stroke="#63b8ff" d="M3169.25,-156C3365.8,-152.7 3940.15,-140.38 4124.5,-107 4127.24,-106.5 4130.02,-105.92 4132.81,-105.27"/>
<polygon fill="#63b8ff" stroke="#63b8ff" points="3169.42,-152.5 3159.48,-156.16 3169.53,-159.5 3169.42,-152.5"/>
</g>
<!-- Node108 -->
<g id="node42" class="node">
<title>Node108</title>
<g id="a_node42"><a xlink:href="d__a__tag__ajnot_8h.html" target="_top" xlink:title=" ">
<polygon fill="white" stroke="#666666" points="4374.5,-107 4256.5,-107 4256.5,-66 4374.5,-66 4374.5,-107"/>
<text text-anchor="start" x="4264.5" y="-95" font-family="Helvetica,sans-Serif" font-size="10.00">include/rel/d/a/tag</text>
<text text-anchor="start" x="4264.5" y="-84" font-family="Helvetica,sans-Serif" font-size="10.00">/d_a_tag_ajnot/d_a_tag</text>
<text text-anchor="middle" x="4315.5" y="-73" font-family="Helvetica,sans-Serif" font-size="10.00">_ajnot.h</text>
</a>
</g>
</g>
<!-- Node2&#45;&gt;Node108 -->
<g id="edge46" class="edge">
<title>Node2&#45;&gt;Node108</title>
<path fill="none" stroke="#63b8ff" d="M3169.15,-156.15C3381.08,-153.12 4037.79,-141.16 4247.5,-107 4250.41,-106.53 4253.37,-105.97 4256.35,-105.35"/>
<polygon fill="#63b8ff" stroke="#63b8ff" points="3169.37,-152.65 3159.42,-156.29 3169.47,-159.65 3169.37,-152.65"/>
</g>
<!-- Node109 -->
<g id="node43" class="node">
<title>Node109</title>
<g id="a_node43"><a xlink:href="d__a__tag__assistance_8h.html" target="_top" xlink:title=" ">
<polygon fill="white" stroke="#666666" points="4506.5,-107 4392.5,-107 4392.5,-66 4506.5,-66 4506.5,-107"/>
<text text-anchor="start" x="4400.5" y="-95" font-family="Helvetica,sans-Serif" font-size="10.00">include/rel/d/a/tag</text>
<text text-anchor="start" x="4400.5" y="-84" font-family="Helvetica,sans-Serif" font-size="10.00">/d_a_tag_assistance</text>
<text text-anchor="middle" x="4449.5" y="-73" font-family="Helvetica,sans-Serif" font-size="10.00">/d_a_tag_assistance.h</text>
</a>
</g>
</g>
<!-- Node2&#45;&gt;Node109 -->
<g id="edge47" class="edge">
<title>Node2&#45;&gt;Node109</title>
<path fill="none" stroke="#63b8ff" d="M3169.2,-156.58C3397.46,-154.8 4146.33,-146.04 4383.5,-107 4386.33,-106.53 4389.21,-105.98 4392.1,-105.37"/>
<polygon fill="#63b8ff" stroke="#63b8ff" points="3169.25,-153.08 3159.28,-156.65 3169.31,-160.08 3169.25,-153.08"/>
</g>
<!-- Node110 -->
<g id="node44" class="node">
<title>Node110</title>
<g id="a_node44"><a xlink:href="d__a__tag__attention_8h.html" target="_top" xlink:title=" ">
<polygon fill="white" stroke="#666666" points="4630,-107 4525,-107 4525,-66 4630,-66 4630,-107"/>
<text text-anchor="start" x="4533" y="-95" font-family="Helvetica,sans-Serif" font-size="10.00">include/rel/d/a/tag</text>
<text text-anchor="start" x="4533" y="-84" font-family="Helvetica,sans-Serif" font-size="10.00">/d_a_tag_attention/d</text>
<text text-anchor="middle" x="4577.5" y="-73" font-family="Helvetica,sans-Serif" font-size="10.00">_a_tag_attention.h</text>
</a>
</g>
</g>
<!-- Node2&#45;&gt;Node110 -->
<g id="edge48" class="edge">
<title>Node2&#45;&gt;Node110</title>
<path fill="none" stroke="#63b8ff" d="M3169.46,-157.01C3413.1,-156.7 4251.88,-152.26 4515.5,-107 4518.5,-106.48 4521.56,-105.86 4524.63,-105.16"/>
<polygon fill="#63b8ff" stroke="#63b8ff" points="3169.48,-153.51 3159.49,-157.03 3169.49,-160.51 3169.48,-153.51"/>
</g>
<!-- Node111 -->
<g id="node45" class="node">
<title>Node111</title>
<g id="a_node45"><a xlink:href="d__a__tag__gra_8h.html" target="_top" xlink:title=" ">
<polygon fill="white" stroke="#666666" points="4785,-101.5 4648,-101.5 4648,-71.5 4785,-71.5 4785,-101.5"/>
<text text-anchor="start" x="4656" y="-89.5" font-family="Helvetica,sans-Serif" font-size="10.00">include/rel/d/a/tag</text>
<text text-anchor="middle" x="4716.5" y="-78.5" font-family="Helvetica,sans-Serif" font-size="10.00">/d_a_tag_gra/d_a_tag_gra.h</text>
</a>
</g>
</g>
<!-- Node2&#45;&gt;Node111 -->
<g id="edge49" class="edge">
<title>Node2&#45;&gt;Node111</title>
<path fill="none" stroke="#63b8ff" d="M3169.19,-156.74C3425.76,-155.45 4349.2,-147.99 4639.5,-107 4648.1,-105.79 4657.13,-103.99 4665.86,-101.97"/>
<polygon fill="#63b8ff" stroke="#63b8ff" points="3169.34,-153.24 3159.36,-156.79 3169.37,-160.24 3169.34,-153.24"/>
</g>
<!-- Node112 -->
<g id="node46" class="node">
<title>Node112</title>
<g id="a_node46"><a xlink:href="d__a__tag__hinit_8h.html" target="_top" xlink:title=" ">
<polygon fill="white" stroke="#666666" points="4918,-107 4803,-107 4803,-66 4918,-66 4918,-107"/>
<text text-anchor="start" x="4811" y="-95" font-family="Helvetica,sans-Serif" font-size="10.00">include/rel/d/a/tag</text>
<text text-anchor="start" x="4811" y="-84" font-family="Helvetica,sans-Serif" font-size="10.00">/d_a_tag_hinit/d_a_tag</text>
<text text-anchor="middle" x="4860.5" y="-73" font-family="Helvetica,sans-Serif" font-size="10.00">_hinit.h</text>
</a>
</g>
</g>
<!-- Node2&#45;&gt;Node112 -->
<g id="edge50" class="edge">
<title>Node2&#45;&gt;Node112</title>
<path fill="none" stroke="#63b8ff" d="M3169.1,-157.32C3441.71,-158.27 4473.19,-158.33 4794.5,-107 4797.21,-106.57 4799.97,-106.05 4802.75,-105.48"/>
<polygon fill="#63b8ff" stroke="#63b8ff" points="3169.35,-153.82 3159.34,-157.28 3169.33,-160.82 3169.35,-153.82"/>
</g>
<!-- Node113 -->
<g id="node47" class="node">
<title>Node113</title>
<g id="a_node47"><a xlink:href="d__a__tag__howl_8h.html" target="_top" xlink:title=" ">
<polygon fill="white" stroke="#666666" points="5053,-107 4936,-107 4936,-66 5053,-66 5053,-107"/>
<text text-anchor="start" x="4944" y="-95" font-family="Helvetica,sans-Serif" font-size="10.00">include/rel/d/a/tag</text>
<text text-anchor="start" x="4944" y="-84" font-family="Helvetica,sans-Serif" font-size="10.00">/d_a_tag_howl/d_a_tag</text>
<text text-anchor="middle" x="4994.5" y="-73" font-family="Helvetica,sans-Serif" font-size="10.00">_howl.h</text>
</a>
</g>
</g>
<!-- Node2&#45;&gt;Node113 -->
<g id="edge51" class="edge">
<title>Node2&#45;&gt;Node113</title>
<path fill="none" stroke="#63b8ff" d="M3169.13,-156.18C3476.67,-152.28 4751.47,-134.56 4927.5,-107 4930.25,-106.57 4933.05,-106.06 4935.87,-105.48"/>
<polygon fill="#63b8ff" stroke="#63b8ff" points="3169.22,-152.68 3159.27,-156.31 3169.31,-159.68 3169.22,-152.68"/>
</g>
<!-- Node2&#45;&gt;Node151 -->
<g id="edge52" class="edge">
<title>Node2&#45;&gt;Node151</title>
<path fill="none" stroke="#63b8ff" d="M3169.12,-156.8C3539.48,-155.56 5337.03,-147.49 5580.5,-107 5587.52,-105.83 5594.84,-104.03 5601.88,-101.98"/>
<polygon fill="#63b8ff" stroke="#63b8ff" points="3169.32,-153.3 3159.33,-156.84 3169.34,-160.3 3169.32,-153.3"/>
</g>
<!-- Node2&#45;&gt;Node152 -->
<g id="edge53" class="edge">
<title>Node2&#45;&gt;Node152</title>
<path fill="none" stroke="#63b8ff" d="M3169.32,-156.89C3550.92,-156.11 5446.44,-150.09 5702.5,-107 5709.41,-105.84 5716.62,-104.04 5723.54,-101.99"/>
<polygon fill="#63b8ff" stroke="#63b8ff" points="3169.46,-153.39 3159.46,-156.91 3169.47,-160.39 3169.46,-153.39"/>
</g>
<!-- Node9&#45;&gt;Node10 -->
<g id="edge4" class="edge">
<title>Node9&#45;&gt;Node10</title>
<path fill="none" stroke="#63b8ff" d="M5353.15,-68.93C5365.69,-57.15 5382.35,-41.5 5394.3,-30.27"/>
<polygon fill="#63b8ff" stroke="#63b8ff" points="5350.87,-66.26 5345.98,-75.66 5355.66,-71.37 5350.87,-66.26"/>
</g>
<!-- Node9&#45;&gt;Node16 -->
<g id="edge5" class="edge">
<title>Node9&#45;&gt;Node16</title>
<path fill="none" stroke="#63b8ff" d="M5317.61,-68.93C5304.91,-57.15 5288.02,-41.5 5275.9,-30.27"/>
<polygon fill="#63b8ff" stroke="#63b8ff" points="5315.18,-71.44 5324.89,-75.67 5319.94,-66.3 5315.18,-71.44"/>
</g>
<!-- Node31&#45;&gt;Node32 -->
<g id="edge11" class="edge">
<title>Node31&#45;&gt;Node32</title>
<path fill="none" stroke="#63b8ff" d="M421.95,-69.27C435.38,-57.45 453.39,-41.61 466.27,-30.27"/>
<polygon fill="#63b8ff" stroke="#63b8ff" points="419.84,-66.46 414.64,-75.7 424.46,-71.72 419.84,-66.46"/>
</g>
<!-- Node38&#45;&gt;Node32 -->
<g id="edge14" class="edge">
<title>Node38&#45;&gt;Node32</title>
<path fill="none" stroke="#63b8ff" d="M534.57,-63.62C522.71,-52.77 508.72,-39.98 498.23,-30.38"/>
<polygon fill="#63b8ff" stroke="#63b8ff" points="531.89,-65.91 541.64,-70.08 536.62,-60.75 531.89,-65.91"/>
</g>
<!-- Node53&#45;&gt;Node3 -->
<g id="edge19" class="edge">
<title>Node53&#45;&gt;Node3</title>
<path fill="none" stroke="#63b8ff" d="M5143.76,-62.62C5131.98,-49.63 5117.93,-34.13 5109.37,-24.68"/>
<polygon fill="#63b8ff" stroke="#63b8ff" points="5141.12,-64.92 5150.43,-69.98 5146.31,-60.22 5141.12,-64.92"/>
</g>
<!-- Node171&#45;&gt;Node2 -->
<g id="edge55" class="edge">
<title>Node171&#45;&gt;Node2</title>
<path fill="none" stroke="#63b8ff" d="M4884.54,-215.11C4576.54,-205.41 3424.37,-169.13 3157.8,-160.74"/>
<polygon fill="#63b8ff" stroke="#63b8ff" points="4884.39,-218.61 4894.49,-215.42 4884.61,-211.61 4884.39,-218.61"/>
</g>
</g>
</svg>
