<?xml version="1.0" encoding="UTF-8" standalone="no"?>
<!DOCTYPE svg PUBLIC "-//W3C//DTD SVG 1.1//EN"
 "http://www.w3.org/Graphics/SVG/1.1/DTD/svg11.dtd">
<!-- Generated by graphviz version 7.0.5 (20221223.1930)
 -->
<!-- Title: include/d/kankyo/d_kankyo_wether.h Pages: 1 -->
<!--zoomable 632 -->
<svg id="main" version="1.1" xmlns="http://www.w3.org/2000/svg" xmlns:xlink="http://www.w3.org/1999/xlink" xml:space="preserve" onload="init(evt)">
<style type="text/css"><![CDATA[
.edge:hover path { stroke: red; }
.edge:hover polygon { stroke: red; fill: red; }
]]></style>
<script type="text/javascript"><![CDATA[
var edges = document.getElementsByTagName('g');
if (edges && edges.length) {
  for (var i=0;i<edges.length;i++) {
    if (edges[i].id.substr(0,4)=='edge') {
      edges[i].setAttribute('class','edge');
    }
  }
}
]]></script>
        <defs>
                <circle id="rim" cx="0" cy="0" r="7"/>
                <circle id="rim2" cx="0" cy="0" r="3.5"/>
                <g id="zoomPlus">
                        <use xlink:href="#rim" fill="#404040">
                                <set attributeName="fill" to="#808080" begin="zoomplus.mouseover" end="zoomplus.mouseout"/>
                        </use>
                        <path d="M-4,0h8M0,-4v8" fill="none" stroke="white" stroke-width="1.5" pointer-events="none"/>
                </g>
                <g id="zoomMin">
                        <use xlink:href="#rim" fill="#404040">
                                <set attributeName="fill" to="#808080" begin="zoomminus.mouseover" end="zoomminus.mouseout"/>
                        </use>
                        <path d="M-4,0h8" fill="none" stroke="white" stroke-width="1.5" pointer-events="none"/>
                </g>
                <g id="dirArrow">
                        <path fill="none" stroke="white" stroke-width="1.5" d="M0,-3.0v7 M-2.5,-0.5L0,-3.0L2.5,-0.5"/>
                </g>
               <g id="resetDef">
                       <use xlink:href="#rim2" fill="#404040">
                               <set attributeName="fill" to="#808080" begin="reset.mouseover" end="reset.mouseout"/>
                       </use>
               </g>
        </defs>

<script type="text/javascript">
var viewWidth = 1754;
var viewHeight = 632;
var sectionId = 'dynsection-0';
</script>
<script xlink:href="svgpan.js"/>
<svg id="graph" class="graph">
<g id="viewport">
<title>include/d/kankyo/d_kankyo_wether.h</title>
<!-- Node1 -->
<g id="node1" class="node">
<title>Node1</title>
<g id="a_node1"><a xlink:title=" ">
<polygon fill="#999999" stroke="#666666" points="1545,-624 1447,-624 1447,-594 1545,-594 1545,-624"/>
<text text-anchor="start" x="1455" y="-612" font-family="Helvetica,sans-Serif" font-size="10.00">include/d/kankyo/d</text>
<text text-anchor="middle" x="1496" y="-601" font-family="Helvetica,sans-Serif" font-size="10.00">_kankyo_wether.h</text>
</a>
</g>
</g>
<!-- Node2 -->
<g id="node2" class="node">
<title>Node2</title>
<g id="a_node2"><a xlink:href="J3DPacket_8h.html" target="_top" xlink:title=" ">
<polygon fill="white" stroke="#666666" points="1413,-558 1289,-558 1289,-528 1413,-528 1413,-558"/>
<text text-anchor="start" x="1297" y="-546" font-family="Helvetica,sans-Serif" font-size="10.00">JSystem/J3DGraphBase</text>
<text text-anchor="middle" x="1351" y="-535" font-family="Helvetica,sans-Serif" font-size="10.00">/J3DPacket.h</text>
</a>
</g>
</g>
<!-- Node1&#45;&gt;Node2 -->
<g id="edge1" class="edge">
<title>Node1&#45;&gt;Node2</title>
<path fill="none" stroke="#63b8ff" d="M1463.46,-593.64C1443.01,-584.61 1416.39,-572.86 1394.18,-563.06"/>
<polygon fill="#63b8ff" stroke="#63b8ff" points="1395.63,-559.87 1385.07,-559.04 1392.8,-566.28 1395.63,-559.87"/>
</g>
<!-- Node31 -->
<g id="node31" class="node">
<title>Node31</title>
<g id="a_node31"><a xlink:href="c__sxyz_8h.html" target="_top" xlink:title=" ">
<polygon fill="white" stroke="#666666" points="1554,-426 1438,-426 1438,-396 1554,-396 1554,-426"/>
<text text-anchor="start" x="1446" y="-414" font-family="Helvetica,sans-Serif" font-size="10.00">SSystem/SComponent</text>
<text text-anchor="middle" x="1496" y="-403" font-family="Helvetica,sans-Serif" font-size="10.00">/c_sxyz.h</text>
</a>
</g>
</g>
<!-- Node1&#45;&gt;Node31 -->
<g id="edge56" class="edge">
<title>Node1&#45;&gt;Node31</title>
<path fill="none" stroke="#63b8ff" d="M1496,-593.59C1496,-560.67 1496,-479.59 1496,-437.81"/>
<polygon fill="#63b8ff" stroke="#63b8ff" points="1499.5,-437.95 1496,-427.95 1492.5,-437.95 1499.5,-437.95"/>
</g>
<!-- Node32 -->
<g id="node32" class="node">
<title>Node32</title>
<g id="a_node32"><a xlink:href="c__xyz_8h.html" target="_top" xlink:title=" ">
<polygon fill="white" stroke="#666666" points="1640,-558 1524,-558 1524,-528 1640,-528 1640,-558"/>
<text text-anchor="start" x="1532" y="-546" font-family="Helvetica,sans-Serif" font-size="10.00">SSystem/SComponent</text>
<text text-anchor="middle" x="1582" y="-535" font-family="Helvetica,sans-Serif" font-size="10.00">/c_xyz.h</text>
</a>
</g>
</g>
<!-- Node1&#45;&gt;Node32 -->
<g id="edge58" class="edge">
<title>Node1&#45;&gt;Node32</title>
<path fill="none" stroke="#63b8ff" d="M1515.09,-593.8C1526.36,-585.4 1540.86,-574.62 1553.47,-565.23"/>
<polygon fill="#63b8ff" stroke="#63b8ff" points="1555.52,-568.07 1561.46,-559.29 1551.34,-562.45 1555.52,-568.07"/>
</g>
<!-- Node3 -->
<g id="node3" class="node">
<title>Node3</title>
<g id="a_node3"><a xlink:href="J3DSys_8h.html" target="_top" xlink:title=" ">
<polygon fill="white" stroke="#666666" points="693,-492 569,-492 569,-462 693,-462 693,-492"/>
<text text-anchor="start" x="577" y="-480" font-family="Helvetica,sans-Serif" font-size="10.00">JSystem/J3DGraphBase</text>
<text text-anchor="middle" x="631" y="-469" font-family="Helvetica,sans-Serif" font-size="10.00">/J3DSys.h</text>
</a>
</g>
</g>
<!-- Node2&#45;&gt;Node3 -->
<g id="edge2" class="edge">
<title>Node2&#45;&gt;Node3</title>
<path fill="none" stroke="#63b8ff" d="M1288.68,-536.46C1156.05,-524.67 846.41,-497.15 704.46,-484.53"/>
<polygon fill="#63b8ff" stroke="#63b8ff" points="705.08,-481.07 694.81,-483.67 704.46,-488.04 705.08,-481.07"/>
</g>
<!-- Node7 -->
<g id="node7" class="node">
<title>Node7</title>
<g id="a_node7"><a xlink:href="types_8h.html" target="_top" xlink:title=" ">
<polygon fill="white" stroke="#666666" points="968.5,-85 887.5,-85 887.5,-66 968.5,-66 968.5,-85"/>
<text text-anchor="middle" x="928" y="-73" font-family="Helvetica,sans-Serif" font-size="10.00">dolphin/types.h</text>
</a>
</g>
</g>
<!-- Node2&#45;&gt;Node7 -->
<g id="edge55" class="edge">
<title>Node2&#45;&gt;Node7</title>
<path fill="none" stroke="#63b8ff" d="M1335.22,-527.7C1312.42,-505.4 1273,-459.9 1273,-412 1273,-412 1273,-412 1273,-184.5 1273,-138.05 1232.58,-139.54 1190,-121 1121.43,-91.14 1034.64,-81.25 980.21,-78.02"/>
<polygon fill="#63b8ff" stroke="#63b8ff" points="980.45,-74.53 970.28,-77.49 980.08,-81.52 980.45,-74.53"/>
</g>
<!-- Node30 -->
<g id="node30" class="node">
<title>Node30</title>
<g id="a_node30"><a xlink:href="GDBase_8h.html" target="_top" xlink:title=" ">
<polygon fill="white" stroke="#666666" points="1411,-140 1303,-140 1303,-121 1411,-121 1411,-140"/>
<text text-anchor="middle" x="1357" y="-128" font-family="Helvetica,sans-Serif" font-size="10.00">dolphin/gd/GDBase.h</text>
</a>
</g>
</g>
<!-- Node2&#45;&gt;Node30 -->
<g id="edge53" class="edge">
<title>Node2&#45;&gt;Node30</title>
<path fill="none" stroke="#63b8ff" d="M1354.13,-527.55C1364.2,-480.18 1395.75,-325.13 1406,-195 1406.66,-186.58 1409.42,-183.72 1406,-176 1400.84,-164.34 1390.94,-154.42 1381.38,-146.93"/>
<polygon fill="#63b8ff" stroke="#63b8ff" points="1383.52,-144.16 1373.36,-141.16 1379.43,-149.84 1383.52,-144.16"/>
</g>
<!-- Node4 -->
<g id="node4" class="node">
<title>Node4</title>
<g id="a_node4"><a xlink:href="GX_8h.html" target="_top" xlink:title=" ">
<polygon fill="white" stroke="#666666" points="673.5,-420.5 588.5,-420.5 588.5,-401.5 673.5,-401.5 673.5,-420.5"/>
<text text-anchor="middle" x="631" y="-408.5" font-family="Helvetica,sans-Serif" font-size="10.00">dolphin/gx/GX.h</text>
</a>
</g>
</g>
<!-- Node3&#45;&gt;Node4 -->
<g id="edge3" class="edge">
<title>Node3&#45;&gt;Node4</title>
<path fill="none" stroke="#63b8ff" d="M631,-461.8C631,-453.09 631,-441.81 631,-432.18"/>
<polygon fill="#63b8ff" stroke="#63b8ff" points="634.5,-432.36 631,-422.36 627.5,-432.36 634.5,-432.36"/>
</g>
<!-- Node3&#45;&gt;Node7 -->
<g id="edge52" class="edge">
<title>Node3&#45;&gt;Node7</title>
<path fill="none" stroke="#63b8ff" d="M568.77,-476.77C409.58,-477.07 0,-466.65 0,-351.5 0,-351.5 0,-351.5 0,-184.5 0,-95.64 680.05,-79.77 875.85,-77.05"/>
<polygon fill="#63b8ff" stroke="#63b8ff" points="875.76,-80.55 885.72,-76.91 875.67,-73.55 875.76,-80.55"/>
</g>
<!-- Node5 -->
<g id="node5" class="node">
<title>Node5</title>
<g id="a_node5"><a xlink:href="GXAttr_8h.html" target="_top" xlink:title=" ">
<polygon fill="white" stroke="#666666" points="1099.5,-360 998.5,-360 998.5,-341 1099.5,-341 1099.5,-360"/>
<text text-anchor="middle" x="1049" y="-348" font-family="Helvetica,sans-Serif" font-size="10.00">dolphin/gx/GXAttr.h</text>
</a>
</g>
</g>
<!-- Node4&#45;&gt;Node5 -->
<g id="edge4" class="edge">
<title>Node4&#45;&gt;Node5</title>
<path fill="none" stroke="#63b8ff" d="M673.77,-404.01C748.05,-393.62 901.15,-372.19 987.06,-360.17"/>
<polygon fill="#63b8ff" stroke="#63b8ff" points="987.29,-363.67 996.71,-358.82 986.32,-356.74 987.29,-363.67"/>
</g>
<!-- Node9 -->
<g id="node9" class="node">
<title>Node9</title>
<g id="a_node9"><a xlink:href="GXBump_8h.html" target="_top" xlink:title=" ">
<polygon fill="white" stroke="#666666" points="818,-360 708,-360 708,-341 818,-341 818,-360"/>
<text text-anchor="middle" x="763" y="-348" font-family="Helvetica,sans-Serif" font-size="10.00">dolphin/gx/GXBump.h</text>
</a>
</g>
</g>
<!-- Node4&#45;&gt;Node9 -->
<g id="edge8" class="edge">
<title>Node4&#45;&gt;Node9</title>
<path fill="none" stroke="#63b8ff" d="M651.05,-401.12C672.66,-391.54 707.32,-376.18 732.36,-365.08"/>
<polygon fill="#63b8ff" stroke="#63b8ff" points="733.66,-368.33 741.38,-361.08 730.82,-361.93 733.66,-368.33"/>
</g>
<!-- Node10 -->
<g id="node10" class="node">
<title>Node10</title>
<g id="a_node10"><a xlink:href="GXDisplayList_8h.html" target="_top" xlink:title=" ">
<polygon fill="white" stroke="#666666" points="1180.5,-140 1047.5,-140 1047.5,-121 1180.5,-121 1180.5,-140"/>
<text text-anchor="middle" x="1114" y="-128" font-family="Helvetica,sans-Serif" font-size="10.00">dolphin/gx/GXDisplayList.h</text>
</a>
</g>
</g>
<!-- Node4&#45;&gt;Node10 -->
<g id="edge10" class="edge">
<title>Node4&#45;&gt;Node10</title>
<path fill="none" stroke="#63b8ff" d="M673.68,-408.17C778.57,-403.29 1046.54,-388.36 1131,-360 1182.34,-342.76 1235,-350.66 1235,-296.5 1235,-296.5 1235,-296.5 1235,-239.5 1235,-192.73 1184.06,-161.18 1148.28,-144.8"/>
<polygon fill="#63b8ff" stroke="#63b8ff" points="1150.15,-141.79 1139.58,-140.99 1147.34,-148.21 1150.15,-141.79"/>
</g>
<!-- Node11 -->
<g id="node11" class="node">
<title>Node11</title>
<g id="a_node11"><a xlink:href="GXFifo_8h.html" target="_top" xlink:title=" ">
<polygon fill="white" stroke="#666666" points="167.5,-305 66.5,-305 66.5,-286 167.5,-286 167.5,-305"/>
<text text-anchor="middle" x="117" y="-293" font-family="Helvetica,sans-Serif" font-size="10.00">dolphin/gx/GXFifo.h</text>
</a>
</g>
</g>
<!-- Node4&#45;&gt;Node11 -->
<g id="edge12" class="edge">
<title>Node4&#45;&gt;Node11</title>
<path fill="none" stroke="#63b8ff" d="M588.08,-401.06C540.94,-391.19 463.01,-374.75 396,-360 315.44,-342.26 222,-320.82 166.28,-307.94"/>
<polygon fill="#63b8ff" stroke="#63b8ff" points="167.33,-304.59 156.8,-305.74 165.75,-311.41 167.33,-304.59"/>
</g>
<!-- Node16 -->
<g id="node16" class="node">
<title>Node16</title>
<g id="a_node16"><a xlink:href="GXFrameBuf_8h.html" target="_top" xlink:title=" ">
<polygon fill="white" stroke="#666666" points="439,-305 311,-305 311,-286 439,-286 439,-305"/>
<text text-anchor="middle" x="375" y="-293" font-family="Helvetica,sans-Serif" font-size="10.00">dolphin/gx/GXFrameBuf.h</text>
</a>
</g>
</g>
<!-- Node4&#45;&gt;Node16 -->
<g id="edge20" class="edge">
<title>Node4&#45;&gt;Node16</title>
<path fill="none" stroke="#63b8ff" d="M610.91,-401.09C566.23,-381.29 458.41,-333.48 405.43,-309.99"/>
<polygon fill="#63b8ff" stroke="#63b8ff" points="406.94,-306.83 396.38,-305.98 404.1,-313.23 406.94,-306.83"/>
</g>
<!-- Node17 -->
<g id="node17" class="node">
<title>Node17</title>
<g id="a_node17"><a xlink:href="GXGeometry_8h.html" target="_top" xlink:title=" ">
<polygon fill="white" stroke="#666666" points="1020.5,-305 893.5,-305 893.5,-286 1020.5,-286 1020.5,-305"/>
<text text-anchor="middle" x="957" y="-293" font-family="Helvetica,sans-Serif" font-size="10.00">dolphin/gx/GXGeometry.h</text>
</a>
</g>
</g>
<!-- Node4&#45;&gt;Node17 -->
<g id="edge23" class="edge">
<title>Node4&#45;&gt;Node17</title>
<path fill="none" stroke="#63b8ff" d="M673.76,-409.57C752.08,-407.8 913.96,-399.36 951,-360 961.69,-348.64 962.43,-330.55 960.94,-316.58"/>
<polygon fill="#63b8ff" stroke="#63b8ff" points="964.4,-316.05 959.39,-306.72 957.48,-317.14 964.4,-316.05"/>
</g>
<!-- Node18 -->
<g id="node18" class="node">
<title>Node18</title>
<g id="a_node18"><a xlink:href="GXLight_8h.html" target="_top" xlink:title=" ">
<polygon fill="white" stroke="#666666" points="292.5,-305 185.5,-305 185.5,-286 292.5,-286 292.5,-305"/>
<text text-anchor="middle" x="239" y="-293" font-family="Helvetica,sans-Serif" font-size="10.00">dolphin/gx/GXLight.h</text>
</a>
</g>
</g>
<!-- Node4&#45;&gt;Node18 -->
<g id="edge25" class="edge">
<title>Node4&#45;&gt;Node18</title>
<path fill="none" stroke="#63b8ff" d="M600.24,-401.09C530.48,-380.9 360.2,-331.59 280.9,-308.63"/>
<polygon fill="#63b8ff" stroke="#63b8ff" points="281.92,-305.28 271.34,-305.86 279.97,-312.01 281.92,-305.28"/>
</g>
<!-- Node19 -->
<g id="node19" class="node">
<title>Node19</title>
<g id="a_node19"><a xlink:href="GXMisc_8h.html" target="_top" xlink:title=" ">
<polygon fill="white" stroke="#666666" points="942,-360 836,-360 836,-341 942,-341 942,-360"/>
<text text-anchor="middle" x="889" y="-348" font-family="Helvetica,sans-Serif" font-size="10.00">dolphin/gx/GXMisc.h</text>
</a>
</g>
</g>
<!-- Node4&#45;&gt;Node19 -->
<g id="edge28" class="edge">
<title>Node4&#45;&gt;Node19</title>
<path fill="none" stroke="#63b8ff" d="M670.47,-401.05C715.52,-390.84 789.31,-374.1 838.51,-362.95"/>
<polygon fill="#63b8ff" stroke="#63b8ff" points="839.08,-366.41 848.06,-360.78 837.54,-359.58 839.08,-366.41"/>
</g>
<!-- Node20 -->
<g id="node20" class="node">
<title>Node20</title>
<g id="a_node20"><a xlink:href="GXPerf_8h.html" target="_top" xlink:title=" ">
<polygon fill="white" stroke="#666666" points="408.5,-140 305.5,-140 305.5,-121 408.5,-121 408.5,-140"/>
<text text-anchor="middle" x="357" y="-128" font-family="Helvetica,sans-Serif" font-size="10.00">dolphin/gx/GXPerf.h</text>
</a>
</g>
</g>
<!-- Node4&#45;&gt;Node20 -->
<g id="edge30" class="edge">
<title>Node4&#45;&gt;Node20</title>
<path fill="none" stroke="#63b8ff" d="M588.35,-406.37C452.38,-394.21 38,-352.58 38,-296.5 38,-296.5 38,-296.5 38,-239.5 38,-186.04 200.78,-153.85 293.78,-139.82"/>
<polygon fill="#63b8ff" stroke="#63b8ff" points="294.16,-143.3 303.54,-138.38 293.14,-136.37 294.16,-143.3"/>
</g>
<!-- Node21 -->
<g id="node21" class="node">
<title>Node21</title>
<g id="a_node21"><a xlink:href="GXPixel_8h.html" target="_top" xlink:title=" ">
<polygon fill="white" stroke="#666666" points="563,-305 457,-305 457,-286 563,-286 563,-305"/>
<text text-anchor="middle" x="510" y="-293" font-family="Helvetica,sans-Serif" font-size="10.00">dolphin/gx/GXPixel.h</text>
</a>
</g>
</g>
<!-- Node4&#45;&gt;Node21 -->
<g id="edge32" class="edge">
<title>Node4&#45;&gt;Node21</title>
<path fill="none" stroke="#63b8ff" d="M614.28,-401.16C598.21,-392.17 573.82,-377.14 556,-360 542.06,-346.6 529.43,-328.52 520.95,-315.08"/>
<polygon fill="#63b8ff" stroke="#63b8ff" points="524.07,-313.48 515.87,-306.77 518.1,-317.13 524.07,-313.48"/>
</g>
<!-- Node22 -->
<g id="node22" class="node">
<title>Node22</title>
<g id="a_node22"><a xlink:href="GXTev_8h.html" target="_top" xlink:title=" ">
<polygon fill="white" stroke="#666666" points="682.5,-305 581.5,-305 581.5,-286 682.5,-286 682.5,-305"/>
<text text-anchor="middle" x="632" y="-293" font-family="Helvetica,sans-Serif" font-size="10.00">dolphin/gx/GXTev.h</text>
</a>
</g>
</g>
<!-- Node4&#45;&gt;Node22 -->
<g id="edge35" class="edge">
<title>Node4&#45;&gt;Node22</title>
<path fill="none" stroke="#63b8ff" d="M609.8,-401C585.03,-389.08 549.08,-366.55 563,-341 570.32,-327.57 583.63,-317.58 596.62,-310.5"/>
<polygon fill="#63b8ff" stroke="#63b8ff" points="598.08,-313.69 605.49,-306.12 594.97,-307.41 598.08,-313.69"/>
</g>
<!-- Node23 -->
<g id="node23" class="node">
<title>Node23</title>
<g id="a_node23"><a xlink:href="GXTexture_8h.html" target="_top" xlink:title=" ">
<polygon fill="white" stroke="#666666" points="689.5,-360 572.5,-360 572.5,-341 689.5,-341 689.5,-360"/>
<text text-anchor="middle" x="631" y="-348" font-family="Helvetica,sans-Serif" font-size="10.00">dolphin/gx/GXTexture.h</text>
</a>
</g>
</g>
<!-- Node4&#45;&gt;Node23 -->
<g id="edge38" class="edge">
<title>Node4&#45;&gt;Node23</title>
<path fill="none" stroke="#63b8ff" d="M631,-401.37C631,-393.5 631,-381.6 631,-371.39"/>
<polygon fill="#63b8ff" stroke="#63b8ff" points="634.5,-371.68 631,-361.68 627.5,-371.68 634.5,-371.68"/>
</g>
<!-- Node29 -->
<g id="node29" class="node">
<title>Node29</title>
<g id="a_node29"><a xlink:href="GXTransform_8h.html" target="_top" xlink:title=" ">
<polygon fill="white" stroke="#666666" points="1206.5,-305 1077.5,-305 1077.5,-286 1206.5,-286 1206.5,-305"/>
<text text-anchor="middle" x="1142" y="-293" font-family="Helvetica,sans-Serif" font-size="10.00">dolphin/gx/GXTransform.h</text>
</a>
</g>
</g>
<!-- Node4&#45;&gt;Node29 -->
<g id="edge49" class="edge">
<title>Node4&#45;&gt;Node29</title>
<path fill="none" stroke="#63b8ff" d="M673.83,-410.58C777.53,-411.2 1038.74,-407.85 1109,-360 1123.92,-349.84 1132.54,-330.75 1137.2,-316.15"/>
<polygon fill="#63b8ff" stroke="#63b8ff" points="1140.52,-317.26 1139.83,-306.69 1133.78,-315.38 1140.52,-317.26"/>
</g>
<!-- Node6 -->
<g id="node6" class="node">
<title>Node6</title>
<g id="a_node6"><a xlink:href="GXEnum_8h.html" target="_top" xlink:title=" ">
<polygon fill="white" stroke="#666666" points="837,-250 727,-250 727,-231 837,-231 837,-250"/>
<text text-anchor="middle" x="782" y="-238" font-family="Helvetica,sans-Serif" font-size="10.00">dolphin/gx/GXEnum.h</text>
</a>
</g>
</g>
<!-- Node5&#45;&gt;Node6 -->
<g id="edge5" class="edge">
<title>Node5&#45;&gt;Node6</title>
<path fill="none" stroke="#63b8ff" d="M1049.08,-340.6C1048.7,-326.74 1045.79,-300.1 1030,-286 1003.8,-262.61 912.86,-251.05 848.73,-245.69"/>
<polygon fill="#63b8ff" stroke="#63b8ff" points="849.24,-242.22 838.99,-244.91 848.68,-249.19 849.24,-242.22"/>
</g>
<!-- Node6&#45;&gt;Node7 -->
<g id="edge6" class="edge">
<title>Node6&#45;&gt;Node7</title>
<path fill="none" stroke="#63b8ff" d="M789.85,-230.74C813.02,-204.87 881.44,-128.48 912.43,-93.88"/>
<polygon fill="#63b8ff" stroke="#63b8ff" points="915.04,-96.22 919.1,-86.43 909.82,-91.55 915.04,-96.22"/>
</g>
<!-- Node8 -->
<g id="node8" class="node">
<title>Node8</title>
<g id="a_node8"><a xlink:href="stddef_8h.html" target="_top" xlink:title=" ">
<polygon fill="white" stroke="#666666" points="996,-30 860,-30 860,0 996,0 996,-30"/>
<text text-anchor="start" x="868" y="-18" font-family="Helvetica,sans-Serif" font-size="10.00">MSL_C/MSL_Common/Src</text>
<text text-anchor="middle" x="928" y="-7" font-family="Helvetica,sans-Serif" font-size="10.00">/stddef.h</text>
</a>
</g>
</g>
<!-- Node7&#45;&gt;Node8 -->
<g id="edge7" class="edge">
<title>Node7&#45;&gt;Node8</title>
<path fill="none" stroke="#63b8ff" d="M928,-65.87C928,-59.4 928,-50.2 928,-41.45"/>
<polygon fill="#63b8ff" stroke="#63b8ff" points="931.5,-41.63 928,-31.63 924.5,-41.63 931.5,-41.63"/>
</g>
<!-- Node9&#45;&gt;Node6 -->
<g id="edge9" class="edge">
<title>Node9&#45;&gt;Node6</title>
<path fill="none" stroke="#63b8ff" d="M776.49,-340.75C787.29,-332.87 801.65,-320.21 808,-305 814.45,-289.56 805.99,-271.95 797.05,-259.19"/>
<polygon fill="#63b8ff" stroke="#63b8ff" points="799.86,-257.11 790.97,-251.34 794.32,-261.39 799.86,-257.11"/>
</g>
<!-- Node10&#45;&gt;Node7 -->
<g id="edge11" class="edge">
<title>Node10&#45;&gt;Node7</title>
<path fill="none" stroke="#63b8ff" d="M1082.45,-120.51C1051.63,-111.73 1004.5,-98.3 970.41,-88.59"/>
<polygon fill="#63b8ff" stroke="#63b8ff" points="971.43,-85.24 960.85,-85.86 969.51,-91.97 971.43,-85.24"/>
</g>
<!-- Node11&#45;&gt;Node6 -->
<g id="edge16" class="edge">
<title>Node11&#45;&gt;Node6</title>
<path fill="none" stroke="#63b8ff" d="M167.82,-286.95C170.58,-286.61 173.33,-286.29 176,-286 371.49,-264.77 603.58,-250.86 715.33,-244.87"/>
<polygon fill="#63b8ff" stroke="#63b8ff" points="715.43,-248.37 725.23,-244.34 715.05,-241.38 715.43,-248.37"/>
</g>
<!-- Node12 -->
<g id="node12" class="node">
<title>Node12</title>
<g id="a_node12"><a xlink:href="GXStruct_8h.html" target="_top" xlink:title=" ">
<polygon fill="white" stroke="#666666" points="565.5,-250 454.5,-250 454.5,-231 565.5,-231 565.5,-250"/>
<text text-anchor="middle" x="510" y="-238" font-family="Helvetica,sans-Serif" font-size="10.00">dolphin/gx/GXStruct.h</text>
</a>
</g>
</g>
<!-- Node11&#45;&gt;Node12 -->
<g id="edge13" class="edge">
<title>Node11&#45;&gt;Node12</title>
<path fill="none" stroke="#63b8ff" d="M167.84,-287.14C170.6,-286.75 173.33,-286.37 176,-286 268.43,-273.18 375.36,-259.06 442.83,-250.24"/>
<polygon fill="#63b8ff" stroke="#63b8ff" points="443.17,-253.72 452.63,-248.96 442.26,-246.78 443.17,-253.72"/>
</g>
<!-- Node14 -->
<g id="node14" class="node">
<title>Node14</title>
<g id="a_node14"><a xlink:href="OSThread_8h.html" target="_top" xlink:title=" ">
<polygon fill="white" stroke="#666666" points="309,-250 193,-250 193,-231 309,-231 309,-250"/>
<text text-anchor="middle" x="251" y="-238" font-family="Helvetica,sans-Serif" font-size="10.00">dolphin/os/OSThread.h</text>
</a>
</g>
</g>
<!-- Node11&#45;&gt;Node14 -->
<g id="edge17" class="edge">
<title>Node11&#45;&gt;Node14</title>
<path fill="none" stroke="#63b8ff" d="M139.73,-285.51C161.23,-277.01 193.73,-264.15 218.07,-254.53"/>
<polygon fill="#63b8ff" stroke="#63b8ff" points="219.19,-257.85 227.2,-250.91 216.61,-251.34 219.19,-257.85"/>
</g>
<!-- Node13 -->
<g id="node13" class="node">
<title>Node13</title>
<g id="a_node13"><a xlink:href="global_8h.html" target="_top" xlink:title=" ">
<polygon fill="white" stroke="#666666" points="599,-195 549,-195 549,-176 599,-176 599,-195"/>
<text text-anchor="middle" x="574" y="-183" font-family="Helvetica,sans-Serif" font-size="10.00">global.h</text>
</a>
</g>
</g>
<!-- Node12&#45;&gt;Node13 -->
<g id="edge14" class="edge">
<title>Node12&#45;&gt;Node13</title>
<path fill="none" stroke="#63b8ff" d="M520.86,-230.51C530.11,-222.85 543.62,-211.66 554.71,-202.47"/>
<polygon fill="#63b8ff" stroke="#63b8ff" points="556.67,-205.4 562.14,-196.32 552.2,-200.01 556.67,-205.4"/>
</g>
<!-- Node13&#45;&gt;Node7 -->
<g id="edge15" class="edge">
<title>Node13&#45;&gt;Node7</title>
<path fill="none" stroke="#63b8ff" d="M599.46,-176.73C660.3,-158.17 814.54,-111.12 887.96,-88.71"/>
<polygon fill="#63b8ff" stroke="#63b8ff" points="888.62,-92.17 897.16,-85.91 886.58,-85.48 888.62,-92.17"/>
</g>
<!-- Node15 -->
<g id="node15" class="node">
<title>Node15</title>
<g id="a_node15"><a xlink:href="OSContext_8h.html" target="_top" xlink:title=" ">
<polygon fill="white" stroke="#666666" points="452.5,-195 333.5,-195 333.5,-176 452.5,-176 452.5,-195"/>
<text text-anchor="middle" x="393" y="-183" font-family="Helvetica,sans-Serif" font-size="10.00">dolphin/os/OSContext.h</text>
</a>
</g>
</g>
<!-- Node14&#45;&gt;Node15 -->
<g id="edge18" class="edge">
<title>Node14&#45;&gt;Node15</title>
<path fill="none" stroke="#63b8ff" d="M275.09,-230.51C298.07,-221.93 332.94,-208.92 358.8,-199.27"/>
<polygon fill="#63b8ff" stroke="#63b8ff" points="359.7,-202.66 367.85,-195.89 357.26,-196.1 359.7,-202.66"/>
</g>
<!-- Node15&#45;&gt;Node7 -->
<g id="edge19" class="edge">
<title>Node15&#45;&gt;Node7</title>
<path fill="none" stroke="#63b8ff" d="M437.24,-175.57C535.33,-155.77 770.69,-108.26 875.78,-87.04"/>
<polygon fill="#63b8ff" stroke="#63b8ff" points="876.45,-90.48 885.55,-85.07 875.06,-83.62 876.45,-90.48"/>
</g>
<!-- Node16&#45;&gt;Node6 -->
<g id="edge22" class="edge">
<title>Node16&#45;&gt;Node6</title>
<path fill="none" stroke="#63b8ff" d="M439.49,-286.1C514.86,-276.29 638.95,-260.13 715.27,-250.19"/>
<polygon fill="#63b8ff" stroke="#63b8ff" points="715.67,-253.67 725.13,-248.91 714.76,-246.73 715.67,-253.67"/>
</g>
<!-- Node16&#45;&gt;Node12 -->
<g id="edge21" class="edge">
<title>Node16&#45;&gt;Node12</title>
<path fill="none" stroke="#63b8ff" d="M397.9,-285.51C419.56,-277.01 452.31,-264.15 476.82,-254.53"/>
<polygon fill="#63b8ff" stroke="#63b8ff" points="478,-257.82 486.03,-250.91 475.44,-251.31 478,-257.82"/>
</g>
<!-- Node17&#45;&gt;Node6 -->
<g id="edge24" class="edge">
<title>Node17&#45;&gt;Node6</title>
<path fill="none" stroke="#63b8ff" d="M927.31,-285.51C898.44,-276.76 854.36,-263.42 822.33,-253.71"/>
<polygon fill="#63b8ff" stroke="#63b8ff" points="823.57,-250.43 812.99,-250.88 821.54,-257.13 823.57,-250.43"/>
</g>
<!-- Node18&#45;&gt;Node6 -->
<g id="edge27" class="edge">
<title>Node18&#45;&gt;Node6</title>
<path fill="none" stroke="#63b8ff" d="M292.94,-287.07C296,-286.7 299.04,-286.34 302,-286 449.33,-269.24 622.64,-254.36 715.4,-246.79"/>
<polygon fill="#63b8ff" stroke="#63b8ff" points="715.66,-250.28 725.34,-245.98 715.09,-243.31 715.66,-250.28"/>
</g>
<!-- Node18&#45;&gt;Node12 -->
<g id="edge26" class="edge">
<title>Node18&#45;&gt;Node12</title>
<path fill="none" stroke="#63b8ff" d="M284.97,-285.51C331.34,-276.44 403.04,-262.42 453,-252.65"/>
<polygon fill="#63b8ff" stroke="#63b8ff" points="453.63,-256.09 462.77,-250.74 452.28,-249.22 453.63,-256.09"/>
</g>
<!-- Node19&#45;&gt;Node6 -->
<g id="edge29" class="edge">
<title>Node19&#45;&gt;Node6</title>
<path fill="none" stroke="#63b8ff" d="M880.24,-340.66C862.45,-322.7 821.81,-281.69 798.77,-258.42"/>
<polygon fill="#63b8ff" stroke="#63b8ff" points="801.47,-256.18 791.94,-251.54 796.49,-261.1 801.47,-256.18"/>
</g>
<!-- Node20&#45;&gt;Node7 -->
<g id="edge31" class="edge">
<title>Node20&#45;&gt;Node7</title>
<path fill="none" stroke="#63b8ff" d="M408.93,-124.68C517.42,-114.61 767.03,-91.44 875.77,-81.35"/>
<polygon fill="#63b8ff" stroke="#63b8ff" points="875.94,-84.85 885.58,-80.44 875.3,-77.88 875.94,-84.85"/>
</g>
<!-- Node21&#45;&gt;Node6 -->
<g id="edge34" class="edge">
<title>Node21&#45;&gt;Node6</title>
<path fill="none" stroke="#63b8ff" d="M556.14,-285.51C602.68,-276.44 674.64,-262.42 724.79,-252.65"/>
<polygon fill="#63b8ff" stroke="#63b8ff" points="725.46,-256.08 734.6,-250.74 724.12,-249.21 725.46,-256.08"/>
</g>
<!-- Node21&#45;&gt;Node12 -->
<g id="edge33" class="edge">
<title>Node21&#45;&gt;Node12</title>
<path fill="none" stroke="#63b8ff" d="M510,-285.75C510,-279.27 510,-270.16 510,-261.9"/>
<polygon fill="#63b8ff" stroke="#63b8ff" points="513.5,-261.96 510,-251.96 506.5,-261.96 513.5,-261.96"/>
</g>
<!-- Node22&#45;&gt;Node6 -->
<g id="edge36" class="edge">
<title>Node22&#45;&gt;Node6</title>
<path fill="none" stroke="#63b8ff" d="M657.45,-285.51C681.76,-276.92 718.66,-263.88 745.99,-254.22"/>
<polygon fill="#63b8ff" stroke="#63b8ff" points="746.99,-257.58 755.25,-250.95 744.66,-250.98 746.99,-257.58"/>
</g>
<!-- Node22&#45;&gt;Node12 -->
<g id="edge37" class="edge">
<title>Node22&#45;&gt;Node12</title>
<path fill="none" stroke="#63b8ff" d="M611.3,-285.51C592,-277.12 562.94,-264.5 540.89,-254.92"/>
<polygon fill="#63b8ff" stroke="#63b8ff" points="542.34,-251.74 531.78,-250.96 539.56,-258.16 542.34,-251.74"/>
</g>
<!-- Node24 -->
<g id="node24" class="node">
<title>Node24</title>
<g id="a_node24"><a xlink:href="GXInit_8h.html" target="_top" xlink:title=" ">
<polygon fill="white" stroke="#666666" points="799,-305 701,-305 701,-286 799,-286 799,-305"/>
<text text-anchor="middle" x="750" y="-293" font-family="Helvetica,sans-Serif" font-size="10.00">dolphin/gx/GXInit.h</text>
</a>
</g>
</g>
<!-- Node23&#45;&gt;Node24 -->
<g id="edge39" class="edge">
<title>Node23&#45;&gt;Node24</title>
<path fill="none" stroke="#63b8ff" d="M651.19,-340.51C670.02,-332.12 698.37,-319.5 719.87,-309.92"/>
<polygon fill="#63b8ff" stroke="#63b8ff" points="721.02,-313.24 728.73,-305.97 718.17,-306.85 721.02,-313.24"/>
</g>
<!-- Node24&#45;&gt;Node6 -->
<g id="edge40" class="edge">
<title>Node24&#45;&gt;Node6</title>
<path fill="none" stroke="#63b8ff" d="M755.28,-285.75C759.47,-278.81 765.48,-268.86 770.73,-260.16"/>
<polygon fill="#63b8ff" stroke="#63b8ff" points="773.65,-262.11 775.82,-251.74 767.65,-258.49 773.65,-262.11"/>
</g>
<!-- Node24&#45;&gt;Node12 -->
<g id="edge41" class="edge">
<title>Node24&#45;&gt;Node12</title>
<path fill="none" stroke="#63b8ff" d="M709.29,-285.51C668.57,-276.52 605.79,-262.65 561.6,-252.9"/>
<polygon fill="#63b8ff" stroke="#63b8ff" points="562.51,-249.51 551.99,-250.77 561,-256.35 562.51,-249.51"/>
</g>
<!-- Node25 -->
<g id="node25" class="node">
<title>Node25</title>
<g id="a_node25"><a xlink:href="mtx_8h.html" target="_top" xlink:title=" ">
<polygon fill="white" stroke="#666666" points="1054,-250 962,-250 962,-231 1054,-231 1054,-250"/>
<text text-anchor="middle" x="1008" y="-238" font-family="Helvetica,sans-Serif" font-size="10.00">dolphin/mtx/mtx.h</text>
</a>
</g>
</g>
<!-- Node24&#45;&gt;Node25 -->
<g id="edge42" class="edge">
<title>Node24&#45;&gt;Node25</title>
<path fill="none" stroke="#63b8ff" d="M793.77,-285.51C837.82,-276.46 905.88,-262.48 953.43,-252.71"/>
<polygon fill="#63b8ff" stroke="#63b8ff" points="953.88,-256.19 962.97,-250.75 952.47,-249.33 953.88,-256.19"/>
</g>
<!-- Node25&#45;&gt;Node7 -->
<g id="edge48" class="edge">
<title>Node25&#45;&gt;Node7</title>
<path fill="none" stroke="#63b8ff" d="M989.2,-230.54C975.52,-223.01 957.76,-210.92 948,-195 929.24,-164.4 926.66,-121.42 926.99,-96.51"/>
<polygon fill="#63b8ff" stroke="#63b8ff" points="930.48,-96.92 927.3,-86.81 923.48,-96.69 930.48,-96.92"/>
</g>
<!-- Node26 -->
<g id="node26" class="node">
<title>Node26</title>
<g id="a_node26"><a xlink:href="mtx44_8h.html" target="_top" xlink:title=" ">
<polygon fill="white" stroke="#666666" points="1059.5,-195 956.5,-195 956.5,-176 1059.5,-176 1059.5,-195"/>
<text text-anchor="middle" x="1008" y="-183" font-family="Helvetica,sans-Serif" font-size="10.00">dolphin/mtx/mtx44.h</text>
</a>
</g>
</g>
<!-- Node25&#45;&gt;Node26 -->
<g id="edge43" class="edge">
<title>Node25&#45;&gt;Node26</title>
<path fill="none" stroke="#63b8ff" d="M1008,-230.75C1008,-224.27 1008,-215.16 1008,-206.9"/>
<polygon fill="#63b8ff" stroke="#63b8ff" points="1011.5,-206.96 1008,-196.96 1004.5,-206.96 1011.5,-206.96"/>
</g>
<!-- Node27 -->
<g id="node27" class="node">
<title>Node27</title>
<g id="a_node27"><a xlink:href="quat_8h.html" target="_top" xlink:title=" ">
<polygon fill="white" stroke="#666666" points="1396.5,-195 1301.5,-195 1301.5,-176 1396.5,-176 1396.5,-195"/>
<text text-anchor="middle" x="1349" y="-183" font-family="Helvetica,sans-Serif" font-size="10.00">dolphin/mtx/quat.h</text>
</a>
</g>
</g>
<!-- Node25&#45;&gt;Node27 -->
<g id="edge45" class="edge">
<title>Node25&#45;&gt;Node27</title>
<path fill="none" stroke="#63b8ff" d="M1054.34,-232.3C1115.45,-222.8 1223.04,-206.08 1289.93,-195.68"/>
<polygon fill="#63b8ff" stroke="#63b8ff" points="1290.27,-199.17 1299.61,-194.18 1289.19,-192.25 1290.27,-199.17"/>
</g>
<!-- Node26&#45;&gt;Node7 -->
<g id="edge44" class="edge">
<title>Node26&#45;&gt;Node7</title>
<path fill="none" stroke="#63b8ff" d="M1001.45,-175.66C988.39,-158.02 958.83,-118.12 941.46,-94.67"/>
<polygon fill="#63b8ff" stroke="#63b8ff" points="944.3,-92.63 935.54,-86.68 938.68,-96.8 944.3,-92.63"/>
</g>
<!-- Node28 -->
<g id="node28" class="node">
<title>Node28</title>
<g id="a_node28"><a xlink:href="vec_8h.html" target="_top" xlink:title=" ">
<polygon fill="white" stroke="#666666" points="1522,-140 1430,-140 1430,-121 1522,-121 1522,-140"/>
<text text-anchor="middle" x="1476" y="-128" font-family="Helvetica,sans-Serif" font-size="10.00">dolphin/mtx/vec.h</text>
</a>
</g>
</g>
<!-- Node27&#45;&gt;Node28 -->
<g id="edge46" class="edge">
<title>Node27&#45;&gt;Node28</title>
<path fill="none" stroke="#63b8ff" d="M1370.54,-175.51C1390.74,-167.08 1421.17,-154.38 1444.16,-144.79"/>
<polygon fill="#63b8ff" stroke="#63b8ff" points="1445.5,-148.02 1453.38,-140.94 1442.8,-141.56 1445.5,-148.02"/>
</g>
<!-- Node28&#45;&gt;Node7 -->
<g id="edge47" class="edge">
<title>Node28&#45;&gt;Node7</title>
<path fill="none" stroke="#63b8ff" d="M1429.58,-122.23C1426.34,-121.79 1423.12,-121.38 1420,-121 1260.13,-101.65 1070.09,-86.75 980.15,-80.18"/>
<polygon fill="#63b8ff" stroke="#63b8ff" points="980.65,-76.7 970.42,-79.47 980.14,-83.68 980.65,-76.7"/>
</g>
<!-- Node29&#45;&gt;Node6 -->
<g id="edge50" class="edge">
<title>Node29&#45;&gt;Node6</title>
<path fill="none" stroke="#63b8ff" d="M1080.93,-285.51C1016.46,-276.02 915.13,-261.1 848.63,-251.31"/>
<polygon fill="#63b8ff" stroke="#63b8ff" points="849.35,-247.88 838.95,-249.88 848.33,-254.8 849.35,-247.88"/>
</g>
<!-- Node29&#45;&gt;Node25 -->
<g id="edge51" class="edge">
<title>Node29&#45;&gt;Node25</title>
<path fill="none" stroke="#63b8ff" d="M1119.27,-285.51C1097.77,-277.01 1065.27,-264.15 1040.93,-254.53"/>
<polygon fill="#63b8ff" stroke="#63b8ff" points="1042.39,-251.34 1031.8,-250.91 1039.81,-257.85 1042.39,-251.34"/>
</g>
<!-- Node30&#45;&gt;Node7 -->
<g id="edge54" class="edge">
<title>Node30&#45;&gt;Node7</title>
<path fill="none" stroke="#63b8ff" d="M1302.67,-122.79C1219.52,-112.52 1061.79,-93.03 980.04,-82.93"/>
<polygon fill="#63b8ff" stroke="#63b8ff" points="980.65,-79.48 970.29,-81.72 979.79,-86.42 980.65,-79.48"/>
</g>
<!-- Node31&#45;&gt;Node28 -->
<g id="edge57" class="edge">
<title>Node31&#45;&gt;Node28</title>
<path fill="none" stroke="#63b8ff" d="M1495.79,-395.67C1495.5,-374.14 1495,-332.17 1495,-296.5 1495,-296.5 1495,-296.5 1495,-239.5 1495,-208.31 1487.22,-172.8 1481.61,-151.28"/>
<polygon fill="#63b8ff" stroke="#63b8ff" points="1485.04,-150.56 1479.04,-141.83 1478.29,-152.4 1485.04,-150.56"/>
</g>
<!-- Node32&#45;&gt;Node28 -->
<g id="edge62" class="edge">
<title>Node32&#45;&gt;Node28</title>
<path fill="none" stroke="#63b8ff" d="M1582,-527.57C1582,-503.58 1582,-453.98 1582,-412 1582,-412 1582,-412 1582,-239.5 1582,-195.6 1536.83,-162.99 1505.47,-145.64"/>
<polygon fill="#63b8ff" stroke="#63b8ff" points="1507.26,-142.63 1496.78,-141.05 1503.99,-148.82 1507.26,-142.63"/>
</g>
<!-- Node33 -->
<g id="node33" class="node">
<title>Node33</title>
<g id="a_node33"><a xlink:href="math_8h.html" target="_top" xlink:title=" ">
<polygon fill="white" stroke="#666666" points="1705,-486.5 1623,-486.5 1623,-467.5 1705,-467.5 1705,-486.5"/>
<text text-anchor="middle" x="1664" y="-474.5" font-family="Helvetica,sans-Serif" font-size="10.00">MSL_C/math.h</text>
</a>
</g>
</g>
<!-- Node32&#45;&gt;Node33 -->
<g id="edge59" class="edge">
<title>Node32&#45;&gt;Node33</title>
<path fill="none" stroke="#63b8ff" d="M1600.2,-527.8C1613.11,-517.72 1630.44,-504.19 1643.78,-493.78"/>
<polygon fill="#63b8ff" stroke="#63b8ff" points="1645.75,-496.69 1651.48,-487.78 1641.44,-491.17 1645.75,-496.69"/>
</g>
<!-- Node34 -->
<g id="node34" class="node">
<title>Node34</title>
<g id="a_node34"><a xlink:href="MSL__Common_2Src_2float_8h.html" target="_top" xlink:title=" ">
<polygon fill="white" stroke="#666666" points="1746,-426 1610,-426 1610,-396 1746,-396 1746,-426"/>
<text text-anchor="start" x="1618" y="-414" font-family="Helvetica,sans-Serif" font-size="10.00">MSL_C/MSL_Common/Src</text>
<text text-anchor="middle" x="1678" y="-403" font-family="Helvetica,sans-Serif" font-size="10.00">/float.h</text>
</a>
</g>
</g>
<!-- Node33&#45;&gt;Node34 -->
<g id="edge60" class="edge">
<title>Node33&#45;&gt;Node34</title>
<path fill="none" stroke="#63b8ff" d="M1665.95,-467.1C1667.63,-459.41 1670.14,-447.92 1672.44,-437.42"/>
<polygon fill="#63b8ff" stroke="#63b8ff" points="1675.85,-438.23 1674.56,-427.71 1669.01,-436.73 1675.85,-438.23"/>
</g>
<!-- Node35 -->
<g id="node35" class="node">
<title>Node35</title>
<g id="a_node35"><a xlink:href="fdlibm_8h.html" target="_top" xlink:title=" ">
<polygon fill="white" stroke="#666666" points="1703,-360 1653,-360 1653,-341 1703,-341 1703,-360"/>
<text text-anchor="middle" x="1678" y="-348" font-family="Helvetica,sans-Serif" font-size="10.00">fdlibm.h</text>
</a>
</g>
</g>
<!-- Node34&#45;&gt;Node35 -->
<g id="edge61" class="edge">
<title>Node34&#45;&gt;Node35</title>
<path fill="none" stroke="#63b8ff" d="M1678,-395.54C1678,-388.34 1678,-379.53 1678,-371.68"/>
<polygon fill="#63b8ff" stroke="#63b8ff" points="1681.5,-371.69 1678,-361.69 1674.5,-371.69 1681.5,-371.69"/>
</g>
</g>
</svg>
        <g id="navigator" transform="translate(0 0)" fill="#404254">
                <rect fill="#f2f5e9" fill-opacity="0.5" stroke="#606060" stroke-width=".5" x="0" y="0" width="60" height="60"/>
                <use id="zoomplus" xlink:href="#zoomPlus" x="17" y="9" onmousedown="handleZoom(evt,'in')"/>
                <use id="zoomminus" xlink:href="#zoomMin" x="42" y="9" onmousedown="handleZoom(evt,'out')"/>
                <use id="reset" xlink:href="#resetDef" x="30" y="36" onmousedown="handleReset()"/>
                <g id="arrowUp" xlink:href="#dirArrow" transform="translate(30 24)" onmousedown="handlePan(0,-1)">
                  <use xlink:href="#rim" fill="#404040">
                        <set attributeName="fill" to="#808080" begin="arrowUp.mouseover" end="arrowUp.mouseout"/>
                  </use>
                  <path fill="none" stroke="white" stroke-width="1.5" d="M0,-3.0v7 M-2.5,-0.5L0,-3.0L2.5,-0.5"/>
                </g>
                <g id="arrowRight" xlink:href="#dirArrow" transform="rotate(90) translate(36 -43)" onmousedown="handlePan(1,0)">
                  <use xlink:href="#rim" fill="#404040">
                        <set attributeName="fill" to="#808080" begin="arrowRight.mouseover" end="arrowRight.mouseout"/>
                  </use>
                  <path fill="none" stroke="white" stroke-width="1.5" d="M0,-3.0v7 M-2.5,-0.5L0,-3.0L2.5,-0.5"/>
                </g>
                <g id="arrowDown" xlink:href="#dirArrow" transform="rotate(180) translate(-30 -48)" onmousedown="handlePan(0,1)">
                  <use xlink:href="#rim" fill="#404040">
                        <set attributeName="fill" to="#808080" begin="arrowDown.mouseover" end="arrowDown.mouseout"/>
                  </use>
                  <path fill="none" stroke="white" stroke-width="1.5" d="M0,-3.0v7 M-2.5,-0.5L0,-3.0L2.5,-0.5"/>
                </g>
                <g id="arrowLeft" xlink:href="#dirArrow" transform="rotate(270) translate(-36 17)" onmousedown="handlePan(-1,0)">
                  <use xlink:href="#rim" fill="#404040">
                        <set attributeName="fill" to="#808080" begin="arrowLeft.mouseover" end="arrowLeft.mouseout"/>
                  </use>
                  <path fill="none" stroke="white" stroke-width="1.5" d="M0,-3.0v7 M-2.5,-0.5L0,-3.0L2.5,-0.5"/>
                </g>
        </g>
        <svg viewBox="0 0 15 15" width="100%" height="30px" preserveAspectRatio="xMaxYMin meet">
         <g id="arrow_out" transform="scale(0.3 0.3)">
          <a xlink:href="d__kankyo__wether_8h__incl_org.svg" target="_base">
           <rect id="button" ry="5" rx="5" y="6" x="6" height="38" width="38"
                fill="#f2f5e9" fill-opacity="0.5" stroke="#606060" stroke-width="1.0"/>
           <path id="arrow"
             d="M 11.500037,31.436501 C 11.940474,20.09759 22.043105,11.32322 32.158766,21.979434 L 37.068811,17.246167 C 37.068811,17.246167 37.088388,32 37.088388,32 L 22.160133,31.978069 C 22.160133,31.978069 26.997745,27.140456 26.997745,27.140456 C 18.528582,18.264221 13.291696,25.230495 11.500037,31.436501 z"
             style="fill:#404040;"/>
          </a>
         </g>
        </svg>
</svg>
