<?xml version="1.0" encoding="UTF-8" standalone="no"?>
<!DOCTYPE svg PUBLIC "-//W3C//DTD SVG 1.1//EN"
 "http://www.w3.org/Graphics/SVG/1.1/DTD/svg11.dtd">
<!-- Generated by graphviz version 7.0.5 (20221223.1930)
 -->
<!-- Title: include/d/msg/d_msg_flow.h Pages: 1 -->
<!--zoomable 247 -->
<svg id="main" version="1.1" xmlns="http://www.w3.org/2000/svg" xmlns:xlink="http://www.w3.org/1999/xlink" xml:space="preserve" onload="init(evt)">
<style type="text/css"><![CDATA[
.edge:hover path { stroke: red; }
.edge:hover polygon { stroke: red; fill: red; }
]]></style>
<script type="text/javascript"><![CDATA[
var edges = document.getElementsByTagName('g');
if (edges && edges.length) {
  for (var i=0;i<edges.length;i++) {
    if (edges[i].id.substr(0,4)=='edge') {
      edges[i].setAttribute('class','edge');
    }
  }
}
]]></script>
        <defs>
                <circle id="rim" cx="0" cy="0" r="7"/>
                <circle id="rim2" cx="0" cy="0" r="3.5"/>
                <g id="zoomPlus">
                        <use xlink:href="#rim" fill="#404040">
                                <set attributeName="fill" to="#808080" begin="zoomplus.mouseover" end="zoomplus.mouseout"/>
                        </use>
                        <path d="M-4,0h8M0,-4v8" fill="none" stroke="white" stroke-width="1.5" pointer-events="none"/>
                </g>
                <g id="zoomMin">
                        <use xlink:href="#rim" fill="#404040">
                                <set attributeName="fill" to="#808080" begin="zoomminus.mouseover" end="zoomminus.mouseout"/>
                        </use>
                        <path d="M-4,0h8" fill="none" stroke="white" stroke-width="1.5" pointer-events="none"/>
                </g>
                <g id="dirArrow">
                        <path fill="none" stroke="white" stroke-width="1.5" d="M0,-3.0v7 M-2.5,-0.5L0,-3.0L2.5,-0.5"/>
                </g>
               <g id="resetDef">
                       <use xlink:href="#rim2" fill="#404040">
                               <set attributeName="fill" to="#808080" begin="reset.mouseover" end="reset.mouseout"/>
                       </use>
               </g>
        </defs>

<script type="text/javascript">
var viewWidth = 3474;
var viewHeight = 247;
var sectionId = 'dynsection-1';
</script>
<script xlink:href="svgpan.js"/>
<svg id="graph" class="graph">
<g id="viewport">
<title>include/d/msg/d_msg_flow.h</title>
<!-- Node1 -->
<g id="node1" class="node">
<title>Node1</title>
<g id="a_node1"><a xlink:title=" ">
<polygon fill="#999999" stroke="#666666" points="2239,-239 2129,-239 2129,-209 2239,-209 2239,-239"/>
<text text-anchor="start" x="2137" y="-227" font-family="Helvetica,sans-Serif" font-size="10.00">include/d/msg/d_msg</text>
<text text-anchor="middle" x="2184" y="-216" font-family="Helvetica,sans-Serif" font-size="10.00">_flow.h</text>
</a>
</g>
</g>
<!-- Node2 -->
<g id="node2" class="node">
<title>Node2</title>
<g id="a_node2"><a xlink:href="d__a__alink_8h.html" target="_top" xlink:title=" ">
<polygon fill="white" stroke="#666666" points="1908,-162 1792,-162 1792,-143 1908,-143 1908,-162"/>
<text text-anchor="middle" x="1850" y="-150" font-family="Helvetica,sans-Serif" font-size="10.00">include/d/a/d_a_alink.h</text>
</a>
</g>
</g>
<!-- Node1&#45;&gt;Node2 -->
<g id="edge1" class="edge">
<title>Node1&#45;&gt;Node2</title>
<path fill="none" stroke="#63b8ff" d="M2117.5,-212.41C2063.25,-203.33 1984.77,-189.17 1917,-173 1904.27,-169.96 1890.36,-166.02 1878.53,-162.47"/>
<polygon fill="#63b8ff" stroke="#63b8ff" points="2116.76,-215.84 2127.2,-214.02 2117.91,-208.93 2116.76,-215.84"/>
</g>
<!-- Node10 -->
<g id="node10" class="node">
<title>Node10</title>
<g id="a_node10"><a xlink:href="d__msg__flow_8cpp.html" target="_top" xlink:title=" ">
<polygon fill="white" stroke="#666666" points="1651.5,-19 1518.5,-19 1518.5,0 1651.5,0 1651.5,-19"/>
<text text-anchor="middle" x="1585" y="-7" font-family="Helvetica,sans-Serif" font-size="10.00">src/d/msg/d_msg_flow.cpp</text>
</a>
</g>
</g>
<!-- Node1&#45;&gt;Node10 -->
<g id="edge52" class="edge">
<title>Node1&#45;&gt;Node10</title>
<path fill="none" stroke="#63b8ff" d="M2117.58,-223.07C2017.06,-221.83 1832.71,-213.85 1783,-173 1740.32,-137.93 1783.95,-93.14 1744,-55 1719.33,-31.44 1683.24,-20.17 1651.67,-14.85"/>
<polygon fill="#63b8ff" stroke="#63b8ff" points="2117.27,-226.57 2127.31,-223.17 2117.34,-219.57 2117.27,-226.57"/>
</g>
<!-- Node12 -->
<g id="node12" class="node">
<title>Node12</title>
<g id="a_node12"><a xlink:href="d__a__npc_8h.html" target="_top" xlink:title=" ">
<polygon fill="white" stroke="#666666" points="1375.5,-162 1264.5,-162 1264.5,-143 1375.5,-143 1375.5,-162"/>
<text text-anchor="middle" x="1320" y="-150" font-family="Helvetica,sans-Serif" font-size="10.00">include/d/a/d_a_npc.h</text>
</a>
</g>
</g>
<!-- Node1&#45;&gt;Node12 -->
<g id="edge11" class="edge">
<title>Node1&#45;&gt;Node12</title>
<path fill="none" stroke="#63b8ff" d="M2117.22,-217.63C1952.35,-204.37 1528.31,-170.26 1375.74,-157.98"/>
<polygon fill="#63b8ff" stroke="#63b8ff" points="2116.88,-221.11 2127.13,-218.43 2117.44,-214.13 2116.88,-221.11"/>
</g>
<!-- Node19 -->
<g id="node19" class="node">
<title>Node19</title>
<g id="a_node19"><a xlink:href="d__menu__fmap_8h.html" target="_top" xlink:title=" ">
<polygon fill="white" stroke="#666666" points="2046,-167.5 1926,-167.5 1926,-137.5 2046,-137.5 2046,-167.5"/>
<text text-anchor="start" x="1934" y="-155.5" font-family="Helvetica,sans-Serif" font-size="10.00">include/d/menu/d_menu</text>
<text text-anchor="middle" x="1986" y="-144.5" font-family="Helvetica,sans-Serif" font-size="10.00">_fmap.h</text>
</a>
</g>
</g>
<!-- Node1&#45;&gt;Node19 -->
<g id="edge19" class="edge">
<title>Node1&#45;&gt;Node19</title>
<path fill="none" stroke="#63b8ff" d="M2132.21,-204.82C2099.38,-193.3 2057.49,-178.59 2026.97,-167.88"/>
<polygon fill="#63b8ff" stroke="#63b8ff" points="2130.95,-208.09 2141.55,-208.1 2133.27,-201.48 2130.95,-208.09"/>
</g>
<!-- Node22 -->
<g id="node22" class="node">
<title>Node22</title>
<g id="a_node22"><a xlink:href="d__a__b__gnd_8h.html" target="_top" xlink:title=" ">
<polygon fill="white" stroke="#666666" points="2180,-167.5 2064,-167.5 2064,-137.5 2180,-137.5 2180,-167.5"/>
<text text-anchor="start" x="2072" y="-155.5" font-family="Helvetica,sans-Serif" font-size="10.00">include/rel/d/a/b/d</text>
<text text-anchor="middle" x="2122" y="-144.5" font-family="Helvetica,sans-Serif" font-size="10.00">_a_b_gnd/d_a_b_gnd.h</text>
</a>
</g>
</g>
<!-- Node1&#45;&gt;Node22 -->
<g id="edge22" class="edge">
<title>Node1&#45;&gt;Node22</title>
<path fill="none" stroke="#63b8ff" d="M2163.63,-200.17C2154.14,-189.53 2143.14,-177.2 2134.83,-167.88"/>
<polygon fill="#63b8ff" stroke="#63b8ff" points="2160.88,-202.34 2170.15,-207.47 2166.1,-197.68 2160.88,-202.34"/>
</g>
<!-- Node23 -->
<g id="node23" class="node">
<title>Node23</title>
<g id="a_node23"><a xlink:href="d__a__do_8h.html" target="_top" xlink:title=" ">
<polygon fill="white" stroke="#666666" points="2294,-167.5 2198,-167.5 2198,-137.5 2294,-137.5 2294,-167.5"/>
<text text-anchor="start" x="2206" y="-155.5" font-family="Helvetica,sans-Serif" font-size="10.00">include/rel/d/a/d_a</text>
<text text-anchor="middle" x="2246" y="-144.5" font-family="Helvetica,sans-Serif" font-size="10.00">_do/d_a_do.h</text>
</a>
</g>
</g>
<!-- Node1&#45;&gt;Node23 -->
<g id="edge23" class="edge">
<title>Node1&#45;&gt;Node23</title>
<path fill="none" stroke="#63b8ff" d="M2204.37,-200.17C2213.86,-189.53 2224.86,-177.2 2233.17,-167.88"/>
<polygon fill="#63b8ff" stroke="#63b8ff" points="2201.9,-197.68 2197.85,-207.47 2207.12,-202.34 2201.9,-197.68"/>
</g>
<!-- Node24 -->
<g id="node24" class="node">
<title>Node24</title>
<g id="a_node24"><a xlink:href="d__a__horse_8h.html" target="_top" xlink:title=" ">
<polygon fill="white" stroke="#666666" points="463.5,-167.5 362.5,-167.5 362.5,-137.5 463.5,-137.5 463.5,-167.5"/>
<text text-anchor="start" x="370.5" y="-155.5" font-family="Helvetica,sans-Serif" font-size="10.00">include/rel/d/a/d_a</text>
<text text-anchor="middle" x="413" y="-144.5" font-family="Helvetica,sans-Serif" font-size="10.00">_horse/d_a_horse.h</text>
</a>
</g>
</g>
<!-- Node1&#45;&gt;Node24 -->
<g id="edge24" class="edge">
<title>Node1&#45;&gt;Node24</title>
<path fill="none" stroke="#63b8ff" d="M2117.53,-221.95C1904.71,-218.34 1220.98,-204.89 656,-173 589.45,-169.24 512.81,-162.73 463.68,-158.27"/>
<polygon fill="#63b8ff" stroke="#63b8ff" points="2117.23,-225.44 2127.29,-222.11 2117.35,-218.45 2117.23,-225.44"/>
</g>
<!-- Node30 -->
<g id="node30" class="node">
<title>Node30</title>
<g id="a_node30"><a xlink:href="d__a__mg__rod_8h.html" target="_top" xlink:title=" ">
<polygon fill="white" stroke="#666666" points="705,-90.5 587,-90.5 587,-60.5 705,-60.5 705,-90.5"/>
<text text-anchor="start" x="595" y="-78.5" font-family="Helvetica,sans-Serif" font-size="10.00">include/rel/d/a/d_a</text>
<text text-anchor="middle" x="646" y="-67.5" font-family="Helvetica,sans-Serif" font-size="10.00">_mg_rod/d_a_mg_rod.h</text>
</a>
</g>
</g>
<!-- Node1&#45;&gt;Node30 -->
<g id="edge32" class="edge">
<title>Node1&#45;&gt;Node30</title>
<path fill="none" stroke="#63b8ff" d="M2117.46,-222.39C1838.56,-219.65 775.35,-206.97 713,-173 680.05,-155.04 659.85,-113.05 651.1,-90.84"/>
<polygon fill="#63b8ff" stroke="#63b8ff" points="2117.05,-225.89 2127.08,-222.49 2117.12,-218.89 2117.05,-225.89"/>
</g>
<!-- Node31 -->
<g id="node31" class="node">
<title>Node31</title>
<g id="a_node31"><a xlink:href="d__a__midna_8h.html" target="_top" xlink:title=" ">
<polygon fill="white" stroke="#666666" points="1110,-167.5 1004,-167.5 1004,-137.5 1110,-137.5 1110,-167.5"/>
<text text-anchor="start" x="1012" y="-155.5" font-family="Helvetica,sans-Serif" font-size="10.00">include/rel/d/a/d_a</text>
<text text-anchor="middle" x="1057" y="-144.5" font-family="Helvetica,sans-Serif" font-size="10.00">_midna/d_a_midna.h</text>
</a>
</g>
</g>
<!-- Node1&#45;&gt;Node31 -->
<g id="edge34" class="edge">
<title>Node1&#45;&gt;Node31</title>
<path fill="none" stroke="#63b8ff" d="M2117.25,-220.43C1964.5,-214.31 1577.76,-197.57 1255,-173 1205.92,-169.26 1150.13,-163.65 1110.31,-159.4"/>
<polygon fill="#63b8ff" stroke="#63b8ff" points="2117.07,-223.92 2127.2,-220.82 2117.34,-216.93 2117.07,-223.92"/>
</g>
<!-- Node32 -->
<g id="node32" class="node">
<title>Node32</title>
<g id="a_node32"><a xlink:href="d__a__myna_8h.html" target="_top" xlink:title=" ">
<polygon fill="white" stroke="#666666" points="2412,-167.5 2312,-167.5 2312,-137.5 2412,-137.5 2412,-167.5"/>
<text text-anchor="start" x="2320" y="-155.5" font-family="Helvetica,sans-Serif" font-size="10.00">include/rel/d/a/d_a</text>
<text text-anchor="middle" x="2362" y="-144.5" font-family="Helvetica,sans-Serif" font-size="10.00">_myna/d_a_myna.h</text>
</a>
</g>
</g>
<!-- Node1&#45;&gt;Node32 -->
<g id="edge39" class="edge">
<title>Node1&#45;&gt;Node32</title>
<path fill="none" stroke="#63b8ff" d="M2231.33,-204.52C2260.73,-193.04 2297.97,-178.5 2325.17,-167.88"/>
<polygon fill="#63b8ff" stroke="#63b8ff" points="2230.33,-201.15 2222.29,-208.05 2232.88,-207.67 2230.33,-201.15"/>
</g>
<!-- Node33 -->
<g id="node33" class="node">
<title>Node33</title>
<g id="a_node33"><a xlink:href="d__a__talk_8h.html" target="_top" xlink:title=" ">
<polygon fill="white" stroke="#666666" points="2526,-167.5 2430,-167.5 2430,-137.5 2526,-137.5 2526,-167.5"/>
<text text-anchor="start" x="2438" y="-155.5" font-family="Helvetica,sans-Serif" font-size="10.00">include/rel/d/a/d_a</text>
<text text-anchor="middle" x="2478" y="-144.5" font-family="Helvetica,sans-Serif" font-size="10.00">_talk/d_a_talk.h</text>
</a>
</g>
</g>
<!-- Node1&#45;&gt;Node33 -->
<g id="edge40" class="edge">
<title>Node1&#45;&gt;Node33</title>
<path fill="none" stroke="#63b8ff" d="M2250.19,-211.27C2298.01,-202.26 2363.95,-188.71 2421,-173 2426.45,-171.5 2432.13,-169.77 2437.71,-167.96"/>
<polygon fill="#63b8ff" stroke="#63b8ff" points="2249.73,-207.8 2240.54,-213.07 2251.01,-214.68 2249.73,-207.8"/>
</g>
<!-- Node34 -->
<g id="node34" class="node">
<title>Node34</title>
<g id="a_node34"><a xlink:href="d__a__tag__evt_8h.html" target="_top" xlink:title=" ">
<polygon fill="white" stroke="#666666" points="2681.5,-167.5 2544.5,-167.5 2544.5,-137.5 2681.5,-137.5 2681.5,-167.5"/>
<text text-anchor="start" x="2552.5" y="-155.5" font-family="Helvetica,sans-Serif" font-size="10.00">include/rel/d/a/tag</text>
<text text-anchor="middle" x="2613" y="-144.5" font-family="Helvetica,sans-Serif" font-size="10.00">/d_a_tag_evt/d_a_tag_evt.h</text>
</a>
</g>
</g>
<!-- Node1&#45;&gt;Node34 -->
<g id="edge41" class="edge">
<title>Node1&#45;&gt;Node34</title>
<path fill="none" stroke="#63b8ff" d="M2250.73,-215.58C2321.6,-207.21 2436.72,-192.23 2535,-173 2542.53,-171.53 2550.43,-169.78 2558.19,-167.96"/>
<polygon fill="#63b8ff" stroke="#63b8ff" points="2250.34,-212.1 2240.82,-216.74 2251.16,-219.05 2250.34,-212.1"/>
</g>
<!-- Node35 -->
<g id="node35" class="node">
<title>Node35</title>
<g id="a_node35"><a xlink:href="d__a__tag__evtmsg_8h.html" target="_top" xlink:title=" ">
<polygon fill="white" stroke="#666666" points="2810,-173 2700,-173 2700,-132 2810,-132 2810,-173"/>
<text text-anchor="start" x="2708" y="-161" font-family="Helvetica,sans-Serif" font-size="10.00">include/rel/d/a/tag</text>
<text text-anchor="start" x="2708" y="-150" font-family="Helvetica,sans-Serif" font-size="10.00">/d_a_tag_evtmsg/d_a</text>
<text text-anchor="middle" x="2755" y="-139" font-family="Helvetica,sans-Serif" font-size="10.00">_tag_evtmsg.h</text>
</a>
</g>
</g>
<!-- Node1&#45;&gt;Node35 -->
<g id="edge42" class="edge">
<title>Node1&#45;&gt;Node35</title>
<path fill="none" stroke="#63b8ff" d="M2250.74,-220.61C2348.28,-216.18 2535.14,-204.11 2691,-173 2693.85,-172.43 2696.75,-171.79 2699.67,-171.09"/>
<polygon fill="#63b8ff" stroke="#63b8ff" points="2250.64,-217.11 2240.8,-221.05 2250.95,-224.11 2250.64,-217.11"/>
</g>
<!-- Node36 -->
<g id="node36" class="node">
<title>Node36</title>
<g id="a_node36"><a xlink:href="d__a__tag__hstop_8h.html" target="_top" xlink:title=" ">
<polygon fill="white" stroke="#666666" points="2949.5,-173 2828.5,-173 2828.5,-132 2949.5,-132 2949.5,-173"/>
<text text-anchor="start" x="2836.5" y="-161" font-family="Helvetica,sans-Serif" font-size="10.00">include/rel/d/a/tag</text>
<text text-anchor="start" x="2836.5" y="-150" font-family="Helvetica,sans-Serif" font-size="10.00">/d_a_tag_hstop/d_a_tag</text>
<text text-anchor="middle" x="2889" y="-139" font-family="Helvetica,sans-Serif" font-size="10.00">_hstop.h</text>
</a>
</g>
</g>
<!-- Node1&#45;&gt;Node36 -->
<g id="edge43" class="edge">
<title>Node1&#45;&gt;Node36</title>
<path fill="none" stroke="#63b8ff" d="M2250.4,-221.98C2366.54,-219.26 2613.77,-209.31 2819,-173 2821.98,-172.47 2825.02,-171.87 2828.08,-171.22"/>
<polygon fill="#63b8ff" stroke="#63b8ff" points="2250.67,-218.47 2240.75,-222.19 2250.83,-225.47 2250.67,-218.47"/>
</g>
<!-- Node37 -->
<g id="node37" class="node">
<title>Node37</title>
<g id="a_node37"><a xlink:href="d__a__tag__lantern_8h.html" target="_top" xlink:title=" ">
<polygon fill="white" stroke="#666666" points="3074.5,-173 2967.5,-173 2967.5,-132 3074.5,-132 3074.5,-173"/>
<text text-anchor="start" x="2975.5" y="-161" font-family="Helvetica,sans-Serif" font-size="10.00">include/rel/d/a/tag</text>
<text text-anchor="start" x="2975.5" y="-150" font-family="Helvetica,sans-Serif" font-size="10.00">/d_a_tag_lantern/d_a</text>
<text text-anchor="middle" x="3021" y="-139" font-family="Helvetica,sans-Serif" font-size="10.00">_tag_lantern.h</text>
</a>
</g>
</g>
<!-- Node1&#45;&gt;Node37 -->
<g id="edge44" class="edge">
<title>Node1&#45;&gt;Node37</title>
<path fill="none" stroke="#63b8ff" d="M2250.54,-220.76C2412.52,-214.98 2823.91,-198.22 2959,-173 2961.66,-172.5 2964.37,-171.93 2967.09,-171.29"/>
<polygon fill="#63b8ff" stroke="#63b8ff" points="2250.7,-217.25 2240.83,-221.1 2250.95,-224.25 2250.7,-217.25"/>
</g>
<!-- Node38 -->
<g id="node38" class="node">
<title>Node38</title>
<g id="a_node38"><a xlink:href="d__a__tag__mhint_8h.html" target="_top" xlink:title=" ">
<polygon fill="white" stroke="#666666" points="985.5,-173 864.5,-173 864.5,-132 985.5,-132 985.5,-173"/>
<text text-anchor="start" x="872.5" y="-161" font-family="Helvetica,sans-Serif" font-size="10.00">include/rel/d/a/tag</text>
<text text-anchor="start" x="872.5" y="-150" font-family="Helvetica,sans-Serif" font-size="10.00">/d_a_tag_mhint/d_a_tag</text>
<text text-anchor="middle" x="925" y="-139" font-family="Helvetica,sans-Serif" font-size="10.00">_mhint.h</text>
</a>
</g>
</g>
<!-- Node1&#45;&gt;Node38 -->
<g id="edge45" class="edge">
<title>Node1&#45;&gt;Node38</title>
<path fill="none" stroke="#63b8ff" d="M2117.38,-222.21C1900.16,-219.32 1213.78,-207.6 995,-173 992.01,-172.53 988.96,-171.97 985.9,-171.35"/>
<polygon fill="#63b8ff" stroke="#63b8ff" points="2117.03,-225.71 2127.08,-222.34 2117.12,-218.71 2117.03,-225.71"/>
</g>
<!-- Node39 -->
<g id="node39" class="node">
<title>Node39</title>
<g id="a_node39"><a xlink:href="d__a__tag__mstop_8h.html" target="_top" xlink:title=" ">
<polygon fill="white" stroke="#666666" points="846,-173 722,-173 722,-132 846,-132 846,-173"/>
<text text-anchor="start" x="730" y="-161" font-family="Helvetica,sans-Serif" font-size="10.00">include/rel/d/a/tag</text>
<text text-anchor="start" x="730" y="-150" font-family="Helvetica,sans-Serif" font-size="10.00">/d_a_tag_mstop/d_a_tag</text>
<text text-anchor="middle" x="784" y="-139" font-family="Helvetica,sans-Serif" font-size="10.00">_mstop.h</text>
</a>
</g>
</g>
<!-- Node1&#45;&gt;Node39 -->
<g id="edge47" class="edge">
<title>Node1&#45;&gt;Node39</title>
<path fill="none" stroke="#63b8ff" d="M2117.19,-222.52C1883.31,-220.52 1102.28,-211.09 855,-173 852.09,-172.55 849.14,-172.03 846.16,-171.44"/>
<polygon fill="#63b8ff" stroke="#63b8ff" points="2117.02,-226.02 2127.05,-222.6 2117.08,-219.02 2117.02,-226.02"/>
</g>
<!-- Node40 -->
<g id="node40" class="node">
<title>Node40</title>
<g id="a_node40"><a xlink:href="d__a__tag__mwait_8h.html" target="_top" xlink:title=" ">
<polygon fill="white" stroke="#666666" points="3215.5,-173 3092.5,-173 3092.5,-132 3215.5,-132 3215.5,-173"/>
<text text-anchor="start" x="3100.5" y="-161" font-family="Helvetica,sans-Serif" font-size="10.00">include/rel/d/a/tag</text>
<text text-anchor="start" x="3100.5" y="-150" font-family="Helvetica,sans-Serif" font-size="10.00">/d_a_tag_mwait/d_a_tag</text>
<text text-anchor="middle" x="3154" y="-139" font-family="Helvetica,sans-Serif" font-size="10.00">_mwait.h</text>
</a>
</g>
</g>
<!-- Node1&#45;&gt;Node40 -->
<g id="edge49" class="edge">
<title>Node1&#45;&gt;Node40</title>
<path fill="none" stroke="#63b8ff" d="M2250.61,-221.17C2430.53,-215.92 2923.57,-199.48 3084,-173 3086.74,-172.55 3089.52,-172.03 3092.33,-171.46"/>
<polygon fill="#63b8ff" stroke="#63b8ff" points="2250.62,-217.67 2240.73,-221.45 2250.83,-224.66 2250.62,-217.67"/>
</g>
<!-- Node41 -->
<g id="node41" class="node">
<title>Node41</title>
<g id="a_node41"><a xlink:href="d__a__tag__ss__drink_8h.html" target="_top" xlink:title=" ">
<polygon fill="white" stroke="#666666" points="3338,-173 3234,-173 3234,-132 3338,-132 3338,-173"/>
<text text-anchor="start" x="3242" y="-161" font-family="Helvetica,sans-Serif" font-size="10.00">include/rel/d/a/tag</text>
<text text-anchor="start" x="3242" y="-150" font-family="Helvetica,sans-Serif" font-size="10.00">/d_a_tag_ss_drink/d</text>
<text text-anchor="middle" x="3286" y="-139" font-family="Helvetica,sans-Serif" font-size="10.00">_a_tag_ss_drink.h</text>
</a>
</g>
</g>
<!-- Node1&#45;&gt;Node41 -->
<g id="edge50" class="edge">
<title>Node1&#45;&gt;Node41</title>
<path fill="none" stroke="#63b8ff" d="M2250.6,-222.07C2449.47,-218.94 3036.78,-207 3225,-173 3227.84,-172.49 3230.74,-171.88 3233.65,-171.19"/>
<polygon fill="#63b8ff" stroke="#63b8ff" points="2250.65,-218.57 2240.7,-222.23 2250.76,-225.57 2250.65,-218.57"/>
</g>
<!-- Node42 -->
<g id="node42" class="node">
<title>Node42</title>
<g id="a_node42"><a xlink:href="d__a__tag__wljump_8h.html" target="_top" xlink:title=" ">
<polygon fill="white" stroke="#666666" points="3465.5,-173 3356.5,-173 3356.5,-132 3465.5,-132 3465.5,-173"/>
<text text-anchor="start" x="3364.5" y="-161" font-family="Helvetica,sans-Serif" font-size="10.00">include/rel/d/a/tag</text>
<text text-anchor="start" x="3364.5" y="-150" font-family="Helvetica,sans-Serif" font-size="10.00">/d_a_tag_wljump/d_a</text>
<text text-anchor="middle" x="3411" y="-139" font-family="Helvetica,sans-Serif" font-size="10.00">_tag_wljump.h</text>
</a>
</g>
</g>
<!-- Node1&#45;&gt;Node42 -->
<g id="edge51" class="edge">
<title>Node1&#45;&gt;Node42</title>
<path fill="none" stroke="#63b8ff" d="M2250.61,-222.35C2464.75,-219.89 3133.91,-209.44 3347,-173 3349.98,-172.49 3353.01,-171.88 3356.05,-171.2"/>
<polygon fill="#63b8ff" stroke="#63b8ff" points="2250.73,-218.84 2240.77,-222.46 2250.81,-225.84 2250.73,-218.84"/>
</g>
<!-- Node3 -->
<g id="node3" class="node">
<title>Node3</title>
<g id="a_node3"><a xlink:href="d__a__alink_8cpp.html" target="_top" xlink:title=" ">
<polygon fill="white" stroke="#666666" points="700.5,-19 591.5,-19 591.5,0 700.5,0 700.5,-19"/>
<text text-anchor="middle" x="646" y="-7" font-family="Helvetica,sans-Serif" font-size="10.00">src/d/a/d_a_alink.cpp</text>
</a>
</g>
</g>
<!-- Node2&#45;&gt;Node3 -->
<g id="edge2" class="edge">
<title>Node2&#45;&gt;Node3</title>
<path fill="none" stroke="#63b8ff" d="M1888.41,-139.32C1897.71,-136.65 1907.66,-134.02 1917,-132 2030.21,-107.47 2246.7,-138.1 2166,-55 2152.97,-41.59 971.83,-17.05 700.93,-11.59"/>
<polygon fill="#63b8ff" stroke="#63b8ff" points="1887.53,-135.93 1878.94,-142.13 1889.52,-142.65 1887.53,-135.93"/>
</g>
<!-- Node4 -->
<g id="node4" class="node">
<title>Node4</title>
<g id="a_node4"><a xlink:href="d__a__player_8cpp.html" target="_top" xlink:title=" ">
<polygon fill="white" stroke="#666666" points="1735,-85 1621,-85 1621,-66 1735,-66 1735,-85"/>
<text text-anchor="middle" x="1678" y="-73" font-family="Helvetica,sans-Serif" font-size="10.00">src/d/a/d_a_player.cpp</text>
</a>
</g>
</g>
<!-- Node2&#45;&gt;Node4 -->
<g id="edge3" class="edge">
<title>Node2&#45;&gt;Node4</title>
<path fill="none" stroke="#63b8ff" d="M1819.04,-138C1784.1,-122.76 1728.23,-98.4 1698.38,-85.39"/>
<polygon fill="#63b8ff" stroke="#63b8ff" points="1817.64,-141.21 1828.21,-142 1820.44,-134.79 1817.64,-141.21"/>
</g>
<!-- Node5 -->
<g id="node5" class="node">
<title>Node5</title>
<g id="a_node5"><a xlink:href="d__com__inf__game_8cpp.html" target="_top" xlink:title=" ">
<polygon fill="white" stroke="#666666" points="2037,-90.5 1929,-90.5 1929,-60.5 2037,-60.5 2037,-90.5"/>
<text text-anchor="start" x="1937" y="-78.5" font-family="Helvetica,sans-Serif" font-size="10.00">src/d/com/d_com_inf</text>
<text text-anchor="middle" x="1983" y="-67.5" font-family="Helvetica,sans-Serif" font-size="10.00">_game.cpp</text>
</a>
</g>
</g>
<!-- Node2&#45;&gt;Node5 -->
<g id="edge4" class="edge">
<title>Node2&#45;&gt;Node5</title>
<path fill="none" stroke="#63b8ff" d="M1875.77,-136.97C1899.41,-123.64 1934.22,-104.01 1957.7,-90.77"/>
<polygon fill="#63b8ff" stroke="#63b8ff" points="1874.09,-133.9 1867.1,-141.86 1877.53,-140 1874.09,-133.9"/>
</g>
<!-- Node6 -->
<g id="node6" class="node">
<title>Node6</title>
<g id="a_node6"><a xlink:href="d__camera_8cpp.html" target="_top" xlink:title=" ">
<polygon fill="white" stroke="#666666" points="2157,-85 2055,-85 2055,-66 2157,-66 2157,-85"/>
<text text-anchor="middle" x="2106" y="-73" font-family="Helvetica,sans-Serif" font-size="10.00">src/d/d_camera.cpp</text>
</a>
</g>
</g>
<!-- Node2&#45;&gt;Node6 -->
<g id="edge5" class="edge">
<title>Node2&#45;&gt;Node6</title>
<path fill="none" stroke="#63b8ff" d="M1891.22,-139.43C1899.74,-136.95 1908.66,-134.38 1917,-132 1974.24,-115.68 1989.02,-113.2 2046,-96 2056.91,-92.71 2068.85,-88.87 2079.19,-85.48"/>
<polygon fill="#63b8ff" stroke="#63b8ff" points="1890.41,-136.02 1881.78,-142.17 1892.36,-142.74 1890.41,-136.02"/>
</g>
<!-- Node7 -->
<g id="node7" class="node">
<title>Node7</title>
<g id="a_node7"><a xlink:href="d__event_8cpp.html" target="_top" xlink:title=" ">
<polygon fill="white" stroke="#666666" points="844.5,-85 723.5,-85 723.5,-66 844.5,-66 844.5,-85"/>
<text text-anchor="middle" x="784" y="-73" font-family="Helvetica,sans-Serif" font-size="10.00">src/d/event/d_event.cpp</text>
</a>
</g>
</g>
<!-- Node2&#45;&gt;Node7 -->
<g id="edge6" class="edge">
<title>Node2&#45;&gt;Node7</title>
<path fill="none" stroke="#63b8ff" d="M1780.66,-149.04C1627.14,-143.2 1246.97,-126.69 930,-96 901.62,-93.25 870.26,-89.2 843.91,-85.5"/>
<polygon fill="#63b8ff" stroke="#63b8ff" points="1780.12,-152.52 1790.25,-149.4 1780.39,-145.52 1780.12,-152.52"/>
</g>
<!-- Node8 -->
<g id="node8" class="node">
<title>Node8</title>
<g id="a_node8"><a xlink:href="d__menu__ring_8cpp.html" target="_top" xlink:title=" ">
<polygon fill="white" stroke="#666666" points="2393,-85 2251,-85 2251,-66 2393,-66 2393,-85"/>
<text text-anchor="middle" x="2322" y="-73" font-family="Helvetica,sans-Serif" font-size="10.00">src/d/menu/d_menu_ring.cpp</text>
</a>
</g>
</g>
<!-- Node2&#45;&gt;Node8 -->
<g id="edge7" class="edge">
<title>Node2&#45;&gt;Node8</title>
<path fill="none" stroke="#63b8ff" d="M1887.56,-139.34C1897.08,-136.6 1907.35,-133.93 1917,-132 2057.33,-103.9 2095.91,-120.04 2237,-96 2253.57,-93.18 2271.75,-89.14 2287.03,-85.46"/>
<polygon fill="#63b8ff" stroke="#63b8ff" points="1886.83,-135.91 1878.25,-142.13 1888.83,-142.62 1886.83,-135.91"/>
</g>
<!-- Node9 -->
<g id="node9" class="node">
<title>Node9</title>
<g id="a_node9"><a xlink:href="d__meter2__draw_8cpp.html" target="_top" xlink:title=" ">
<polygon fill="white" stroke="#666666" points="2521,-90.5 2411,-90.5 2411,-60.5 2521,-60.5 2521,-90.5"/>
<text text-anchor="start" x="2419" y="-78.5" font-family="Helvetica,sans-Serif" font-size="10.00">src/d/meter/d_meter2</text>
<text text-anchor="middle" x="2466" y="-67.5" font-family="Helvetica,sans-Serif" font-size="10.00">_draw.cpp</text>
</a>
</g>
</g>
<!-- Node2&#45;&gt;Node9 -->
<g id="edge8" class="edge">
<title>Node2&#45;&gt;Node9</title>
<path fill="none" stroke="#63b8ff" d="M1887,-139.23C1896.67,-136.44 1907.15,-133.78 1917,-132 2129.71,-93.59 2189.54,-135.74 2402,-96 2408.96,-94.7 2416.24,-92.91 2423.29,-90.94"/>
<polygon fill="#63b8ff" stroke="#63b8ff" points="1886.12,-135.84 1877.56,-142.09 1888.14,-142.55 1886.12,-135.84"/>
</g>
<!-- Node2&#45;&gt;Node10 -->
<g id="edge9" class="edge">
<title>Node2&#45;&gt;Node10</title>
<path fill="none" stroke="#63b8ff" d="M1888.14,-139.28C1897.5,-136.59 1907.56,-133.96 1917,-132 2044.2,-105.54 2287.49,-150.13 2199,-55 2162.35,-15.6 1803.43,-10.65 1651.93,-10.33"/>
<polygon fill="#63b8ff" stroke="#63b8ff" points="1887.18,-135.92 1878.59,-142.12 1889.17,-142.63 1887.18,-135.92"/>
</g>
<!-- Node11 -->
<g id="node11" class="node">
<title>Node11</title>
<g id="a_node11"><a xlink:href="f__op__actor_8cpp.html" target="_top" xlink:title=" ">
<polygon fill="white" stroke="#666666" points="1910.5,-85 1791.5,-85 1791.5,-66 1910.5,-66 1910.5,-85"/>
<text text-anchor="middle" x="1851" y="-73" font-family="Helvetica,sans-Serif" font-size="10.00">src/f_op/f_op_actor.cpp</text>
</a>
</g>
</g>
<!-- Node2&#45;&gt;Node11 -->
<g id="edge10" class="edge">
<title>Node2&#45;&gt;Node11</title>
<path fill="none" stroke="#63b8ff" d="M1850.27,-131.42C1850.47,-116.43 1850.73,-96.66 1850.88,-85.39"/>
<polygon fill="#63b8ff" stroke="#63b8ff" points="1846.77,-131.04 1850.14,-141.09 1853.77,-131.14 1846.77,-131.04"/>
</g>
<!-- Node13 -->
<g id="node13" class="node">
<title>Node13</title>
<g id="a_node13"><a xlink:href="d__shop__system_8h.html" target="_top" xlink:title=" ">
<polygon fill="white" stroke="#666666" points="1303,-90.5 1189,-90.5 1189,-60.5 1303,-60.5 1303,-90.5"/>
<text text-anchor="start" x="1197" y="-78.5" font-family="Helvetica,sans-Serif" font-size="10.00">include/d/shop/d_shop</text>
<text text-anchor="middle" x="1246" y="-67.5" font-family="Helvetica,sans-Serif" font-size="10.00">_system.h</text>
</a>
</g>
</g>
<!-- Node12&#45;&gt;Node13 -->
<g id="edge12" class="edge">
<title>Node12&#45;&gt;Node13</title>
<path fill="none" stroke="#63b8ff" d="M1303.47,-134.75C1290.43,-121.53 1272.44,-103.29 1260.08,-90.77"/>
<polygon fill="#63b8ff" stroke="#63b8ff" points="1300.64,-136.86 1310.16,-141.52 1305.63,-131.95 1300.64,-136.86"/>
</g>
<!-- Node15 -->
<g id="node15" class="node">
<title>Node15</title>
<g id="a_node15"><a xlink:href="d__a__npc__ash_8h.html" target="_top" xlink:title=" ">
<polygon fill="white" stroke="#666666" points="1467,-90.5 1321,-90.5 1321,-60.5 1467,-60.5 1467,-90.5"/>
<text text-anchor="start" x="1329" y="-78.5" font-family="Helvetica,sans-Serif" font-size="10.00">include/rel/d/a/npc</text>
<text text-anchor="middle" x="1394" y="-67.5" font-family="Helvetica,sans-Serif" font-size="10.00">/d_a_npc_ash/d_a_npc_ash.h</text>
</a>
</g>
</g>
<!-- Node12&#45;&gt;Node15 -->
<g id="edge15" class="edge">
<title>Node12&#45;&gt;Node15</title>
<path fill="none" stroke="#63b8ff" d="M1336.53,-134.75C1349.57,-121.53 1367.56,-103.29 1379.92,-90.77"/>
<polygon fill="#63b8ff" stroke="#63b8ff" points="1334.37,-131.95 1329.84,-141.52 1339.36,-136.86 1334.37,-131.95"/>
</g>
<!-- Node16 -->
<g id="node16" class="node">
<title>Node16</title>
<g id="a_node16"><a xlink:href="d__a__tag__push_8h.html" target="_top" xlink:title=" ">
<polygon fill="white" stroke="#666666" points="1603,-96 1485,-96 1485,-55 1603,-55 1603,-96"/>
<text text-anchor="start" x="1493" y="-84" font-family="Helvetica,sans-Serif" font-size="10.00">include/rel/d/a/tag</text>
<text text-anchor="start" x="1493" y="-73" font-family="Helvetica,sans-Serif" font-size="10.00">/d_a_tag_push/d_a_tag</text>
<text text-anchor="middle" x="1544" y="-62" font-family="Helvetica,sans-Serif" font-size="10.00">_push.h</text>
</a>
</g>
</g>
<!-- Node12&#45;&gt;Node16 -->
<g id="edge16" class="edge">
<title>Node12&#45;&gt;Node16</title>
<path fill="none" stroke="#63b8ff" d="M1357.18,-139.05C1391.89,-127.43 1444.25,-109.9 1484.72,-96.35"/>
<polygon fill="#63b8ff" stroke="#63b8ff" points="1356.38,-135.63 1348.01,-142.12 1358.6,-142.27 1356.38,-135.63"/>
</g>
<!-- Node17 -->
<g id="node17" class="node">
<title>Node17</title>
<g id="a_node17"><a xlink:href="d__a__npc_8cpp.html" target="_top" xlink:title=" ">
<polygon fill="white" stroke="#666666" points="1043,-85 939,-85 939,-66 1043,-66 1043,-85"/>
<text text-anchor="middle" x="991" y="-73" font-family="Helvetica,sans-Serif" font-size="10.00">src/d/a/d_a_npc.cpp</text>
</a>
</g>
</g>
<!-- Node12&#45;&gt;Node17 -->
<g id="edge17" class="edge">
<title>Node12&#45;&gt;Node17</title>
<path fill="none" stroke="#63b8ff" d="M1257.52,-140.49C1202.93,-130.41 1121.72,-114.31 1052,-96 1040.39,-92.95 1027.71,-89 1016.95,-85.46"/>
<polygon fill="#63b8ff" stroke="#63b8ff" points="1256.79,-143.91 1267.26,-142.27 1258.06,-137.03 1256.79,-143.91"/>
</g>
<!-- Node18 -->
<g id="node18" class="node">
<title>Node18</title>
<g id="a_node18"><a xlink:href="d__meter2__info_8cpp.html" target="_top" xlink:title=" ">
<polygon fill="white" stroke="#666666" points="1171,-90.5 1061,-90.5 1061,-60.5 1171,-60.5 1171,-90.5"/>
<text text-anchor="start" x="1069" y="-78.5" font-family="Helvetica,sans-Serif" font-size="10.00">src/d/meter/d_meter2</text>
<text text-anchor="middle" x="1116" y="-67.5" font-family="Helvetica,sans-Serif" font-size="10.00">_info.cpp</text>
</a>
</g>
</g>
<!-- Node12&#45;&gt;Node18 -->
<g id="edge18" class="edge">
<title>Node12&#45;&gt;Node18</title>
<path fill="none" stroke="#63b8ff" d="M1285.29,-138.74C1249.21,-125.47 1192.84,-104.75 1155.18,-90.9"/>
<polygon fill="#63b8ff" stroke="#63b8ff" points="1283.78,-141.91 1294.38,-142.08 1286.2,-135.34 1283.78,-141.91"/>
</g>
<!-- Node13&#45;&gt;Node10 -->
<g id="edge13" class="edge">
<title>Node13&#45;&gt;Node10</title>
<path fill="none" stroke="#63b8ff" d="M1303.15,-57.14C1306.13,-56.38 1309.1,-55.66 1312,-55 1381.64,-39.1 1462.52,-26.66 1518.07,-19.02"/>
<polygon fill="#63b8ff" stroke="#63b8ff" points="1302.55,-53.68 1293.78,-59.63 1304.35,-60.44 1302.55,-53.68"/>
</g>
<!-- Node14 -->
<g id="node14" class="node">
<title>Node14</title>
<g id="a_node14"><a xlink:href="d__shop__system_8cpp.html" target="_top" xlink:title=" ">
<polygon fill="white" stroke="#666666" points="1322,-19 1170,-19 1170,0 1322,0 1322,-19"/>
<text text-anchor="middle" x="1246" y="-7" font-family="Helvetica,sans-Serif" font-size="10.00">src/d/shop/d_shop_system.cpp</text>
</a>
</g>
</g>
<!-- Node13&#45;&gt;Node14 -->
<g id="edge14" class="edge">
<title>Node13&#45;&gt;Node14</title>
<path fill="none" stroke="#63b8ff" d="M1246,-49.09C1246,-38.56 1246,-27.03 1246,-19.34"/>
<polygon fill="#63b8ff" stroke="#63b8ff" points="1242.5,-48.78 1246,-58.78 1249.5,-48.78 1242.5,-48.78"/>
</g>
<!-- Node20 -->
<g id="node20" class="node">
<title>Node20</title>
<g id="a_node20"><a xlink:href="d__menu__fmap_8cpp.html" target="_top" xlink:title=" ">
<polygon fill="white" stroke="#666666" points="2687,-85 2539,-85 2539,-66 2687,-66 2687,-85"/>
<text text-anchor="middle" x="2613" y="-73" font-family="Helvetica,sans-Serif" font-size="10.00">src/d/menu/d_menu_fmap.cpp</text>
</a>
</g>
</g>
<!-- Node19&#45;&gt;Node20 -->
<g id="edge20" class="edge">
<title>Node19&#45;&gt;Node20</title>
<path fill="none" stroke="#63b8ff" d="M2043.43,-134.35C2047.32,-133.47 2051.21,-132.67 2055,-132 2263.46,-95.03 2320.76,-128.31 2530,-96 2546.68,-93.42 2564.96,-89.28 2580.11,-85.47"/>
<polygon fill="#63b8ff" stroke="#63b8ff" points="2042.84,-130.89 2033.94,-136.65 2044.49,-137.69 2042.84,-130.89"/>
</g>
<!-- Node21 -->
<g id="node21" class="node">
<title>Node21</title>
<g id="a_node21"><a xlink:href="d__menu__window_8cpp.html" target="_top" xlink:title=" ">
<polygon fill="white" stroke="#666666" points="2864.5,-85 2705.5,-85 2705.5,-66 2864.5,-66 2864.5,-85"/>
<text text-anchor="middle" x="2785" y="-73" font-family="Helvetica,sans-Serif" font-size="10.00">src/d/menu/d_menu_window.cpp</text>
</a>
</g>
</g>
<!-- Node19&#45;&gt;Node21 -->
<g id="edge21" class="edge">
<title>Node19&#45;&gt;Node21</title>
<path fill="none" stroke="#63b8ff" d="M2042.66,-134.43C2046.81,-133.5 2050.96,-132.68 2055,-132 2336.43,-84.92 2413.29,-134.66 2696,-96 2714.02,-93.54 2733.81,-89.35 2750.15,-85.49"/>
<polygon fill="#63b8ff" stroke="#63b8ff" points="2042.07,-130.97 2033.18,-136.72 2043.72,-137.77 2042.07,-130.97"/>
</g>
<!-- Node24&#45;&gt;Node3 -->
<g id="edge29" class="edge">
<title>Node24&#45;&gt;Node3</title>
<path fill="none" stroke="#63b8ff" d="M467.63,-132.92C490.75,-123.7 517.31,-111.25 539,-96 559.58,-81.54 558.68,-71.1 578,-55 594.69,-41.09 615.91,-27.81 630.17,-19.44"/>
<polygon fill="#63b8ff" stroke="#63b8ff" points="466.41,-129.64 458.34,-136.51 468.93,-136.17 466.41,-129.64"/>
</g>
<!-- Node25 -->
<g id="node25" class="node">
<title>Node25</title>
<g id="a_node25"><a xlink:href="d__a__e__wb_8h.html" target="_top" xlink:title=" ">
<polygon fill="white" stroke="#666666" points="126,-90.5 16,-90.5 16,-60.5 126,-60.5 126,-90.5"/>
<text text-anchor="start" x="24" y="-78.5" font-family="Helvetica,sans-Serif" font-size="10.00">include/rel/d/a/e/d</text>
<text text-anchor="middle" x="71" y="-67.5" font-family="Helvetica,sans-Serif" font-size="10.00">_a_e_wb/d_a_e_wb.h</text>
</a>
</g>
</g>
<!-- Node24&#45;&gt;Node25 -->
<g id="edge25" class="edge">
<title>Node24&#45;&gt;Node25</title>
<path fill="none" stroke="#63b8ff" d="M350.92,-140.92C294.32,-130.84 208.57,-114.5 135,-96 128.92,-94.47 122.55,-92.72 116.3,-90.91"/>
<polygon fill="#63b8ff" stroke="#63b8ff" points="350.24,-144.35 360.7,-142.65 351.46,-137.46 350.24,-144.35"/>
</g>
<!-- Node27 -->
<g id="node27" class="node">
<title>Node27</title>
<g id="a_node27"><a xlink:href="d__a__tag__hinit_8h.html" target="_top" xlink:title=" ">
<polygon fill="white" stroke="#666666" points="405.5,-96 290.5,-96 290.5,-55 405.5,-55 405.5,-96"/>
<text text-anchor="start" x="298.5" y="-84" font-family="Helvetica,sans-Serif" font-size="10.00">include/rel/d/a/tag</text>
<text text-anchor="start" x="298.5" y="-73" font-family="Helvetica,sans-Serif" font-size="10.00">/d_a_tag_hinit/d_a_tag</text>
<text text-anchor="middle" x="348" y="-62" font-family="Helvetica,sans-Serif" font-size="10.00">_hinit.h</text>
</a>
</g>
</g>
<!-- Node24&#45;&gt;Node27 -->
<g id="edge28" class="edge">
<title>Node24&#45;&gt;Node27</title>
<path fill="none" stroke="#63b8ff" d="M393.09,-128.53C384.17,-118.23 373.74,-106.2 365.16,-96.3"/>
<polygon fill="#63b8ff" stroke="#63b8ff" points="390.28,-130.63 399.48,-135.9 395.57,-126.05 390.28,-130.63"/>
</g>
<!-- Node28 -->
<g id="node28" class="node">
<title>Node28</title>
<g id="a_node28"><a xlink:href="d__bg__w_8cpp.html" target="_top" xlink:title=" ">
<polygon fill="white" stroke="#666666" points="530.5,-85 423.5,-85 423.5,-66 530.5,-66 530.5,-85"/>
<text text-anchor="middle" x="477" y="-73" font-family="Helvetica,sans-Serif" font-size="10.00">src/d/bg/d_bg_w.cpp</text>
</a>
</g>
</g>
<!-- Node24&#45;&gt;Node28 -->
<g id="edge30" class="edge">
<title>Node24&#45;&gt;Node28</title>
<path fill="none" stroke="#63b8ff" d="M432.63,-128.49C445.09,-113.89 460.51,-95.82 469.5,-85.29"/>
<polygon fill="#63b8ff" stroke="#63b8ff" points="430.15,-126.01 426.32,-135.89 435.48,-130.55 430.15,-126.01"/>
</g>
<!-- Node29 -->
<g id="node29" class="node">
<title>Node29</title>
<g id="a_node29"><a xlink:href="d__meter2_8cpp.html" target="_top" xlink:title=" ">
<polygon fill="white" stroke="#666666" points="272,-85 144,-85 144,-66 272,-66 272,-85"/>
<text text-anchor="middle" x="208" y="-73" font-family="Helvetica,sans-Serif" font-size="10.00">src/d/meter/d_meter2.cpp</text>
</a>
</g>
</g>
<!-- Node24&#45;&gt;Node29 -->
<g id="edge31" class="edge">
<title>Node24&#45;&gt;Node29</title>
<path fill="none" stroke="#63b8ff" d="M362.76,-133.12C321.31,-117.96 264.3,-97.1 232.31,-85.39"/>
<polygon fill="#63b8ff" stroke="#63b8ff" points="361.46,-136.37 372.05,-136.52 363.86,-129.8 361.46,-136.37"/>
</g>
<!-- Node25&#45;&gt;Node3 -->
<g id="edge26" class="edge">
<title>Node25&#45;&gt;Node3</title>
<path fill="none" stroke="#63b8ff" d="M124.9,-57.21C128.3,-56.39 131.69,-55.64 135,-55 298.92,-23.25 496.85,-14.14 591.03,-11.53"/>
<polygon fill="#63b8ff" stroke="#63b8ff" points="124.32,-53.74 115.53,-59.66 126.09,-60.52 124.32,-53.74"/>
</g>
<!-- Node26 -->
<g id="node26" class="node">
<title>Node26</title>
<g id="a_node26"><a xlink:href="d__a__horse__static_8cpp.html" target="_top" xlink:title=" ">
<polygon fill="white" stroke="#666666" points="142,-19 0,-19 0,0 142,0 142,-19"/>
<text text-anchor="middle" x="71" y="-7" font-family="Helvetica,sans-Serif" font-size="10.00">src/d/a/d_a_horse_static.cpp</text>
</a>
</g>
</g>
<!-- Node25&#45;&gt;Node26 -->
<g id="edge27" class="edge">
<title>Node25&#45;&gt;Node26</title>
<path fill="none" stroke="#63b8ff" d="M71,-49.09C71,-38.56 71,-27.03 71,-19.34"/>
<polygon fill="#63b8ff" stroke="#63b8ff" points="67.5,-48.78 71,-58.78 74.5,-48.78 67.5,-48.78"/>
</g>
<!-- Node30&#45;&gt;Node3 -->
<g id="edge33" class="edge">
<title>Node30&#45;&gt;Node3</title>
<path fill="none" stroke="#63b8ff" d="M646,-49.09C646,-38.56 646,-27.03 646,-19.34"/>
<polygon fill="#63b8ff" stroke="#63b8ff" points="642.5,-48.78 646,-58.78 649.5,-48.78 642.5,-48.78"/>
</g>
<!-- Node31&#45;&gt;Node3 -->
<g id="edge35" class="edge">
<title>Node31&#45;&gt;Node3</title>
<path fill="none" stroke="#63b8ff" d="M1001.45,-133.49C959.06,-119.53 906.38,-101.65 897,-96 874.1,-82.21 876.7,-67.37 853,-55 805.09,-30 743.95,-19.04 700.57,-14.24"/>
<polygon fill="#63b8ff" stroke="#63b8ff" points="1000.22,-136.77 1010.81,-136.56 1002.4,-130.12 1000.22,-136.77"/>
</g>
<!-- Node31&#45;&gt;Node4 -->
<g id="edge36" class="edge">
<title>Node31&#45;&gt;Node4</title>
<path fill="none" stroke="#63b8ff" d="M1121.64,-145.12C1266.7,-130.78 1606.03,-97.17 1612,-96 1625.37,-93.38 1639.92,-89.23 1651.95,-85.43"/>
<polygon fill="#63b8ff" stroke="#63b8ff" points="1121.4,-141.62 1111.79,-146.09 1122.09,-148.59 1121.4,-141.62"/>
</g>
<!-- Node31&#45;&gt;Node7 -->
<g id="edge37" class="edge">
<title>Node31&#45;&gt;Node7</title>
<path fill="none" stroke="#63b8ff" d="M1000.02,-133.75C997.99,-133.15 995.98,-132.57 994,-132 977.1,-127.15 873.37,-99.91 818.29,-85.48"/>
<polygon fill="#63b8ff" stroke="#63b8ff" points="998.93,-137.07 1009.51,-136.57 1000.93,-130.36 998.93,-137.07"/>
</g>
<!-- Node31&#45;&gt;Node10 -->
<g id="edge38" class="edge">
<title>Node31&#45;&gt;Node10</title>
<path fill="none" stroke="#63b8ff" d="M999.38,-133.25C969.86,-122.62 938.39,-108.82 930,-96 920.02,-80.75 917.56,-68.31 930,-55 949.88,-33.72 1355.48,-18.06 1518.26,-12.6"/>
<polygon fill="#63b8ff" stroke="#63b8ff" points="998.09,-136.51 1008.69,-136.52 1000.41,-129.91 998.09,-136.51"/>
</g>
<!-- Node38&#45;&gt;Node7 -->
<g id="edge46" class="edge">
<title>Node38&#45;&gt;Node7</title>
<path fill="none" stroke="#63b8ff" d="M877.68,-126.33C851.09,-112.19 819.57,-95.42 800.7,-85.38"/>
<polygon fill="#63b8ff" stroke="#63b8ff" points="875.78,-129.28 886.25,-130.89 879.06,-123.1 875.78,-129.28"/>
</g>
<!-- Node39&#45;&gt;Node7 -->
<g id="edge48" class="edge">
<title>Node39&#45;&gt;Node7</title>
<path fill="none" stroke="#63b8ff" d="M784,-120.53C784,-107.74 784,-93.92 784,-85.24"/>
<polygon fill="#63b8ff" stroke="#63b8ff" points="780.5,-120.28 784,-130.28 787.5,-120.28 780.5,-120.28"/>
</g>
</g>
</svg>
        <g id="navigator" transform="translate(0 0)" fill="#404254">
                <rect fill="#f2f5e9" fill-opacity="0.5" stroke="#606060" stroke-width=".5" x="0" y="0" width="60" height="60"/>
                <use id="zoomplus" xlink:href="#zoomPlus" x="17" y="9" onmousedown="handleZoom(evt,'in')"/>
                <use id="zoomminus" xlink:href="#zoomMin" x="42" y="9" onmousedown="handleZoom(evt,'out')"/>
                <use id="reset" xlink:href="#resetDef" x="30" y="36" onmousedown="handleReset()"/>
                <g id="arrowUp" xlink:href="#dirArrow" transform="translate(30 24)" onmousedown="handlePan(0,-1)">
                  <use xlink:href="#rim" fill="#404040">
                        <set attributeName="fill" to="#808080" begin="arrowUp.mouseover" end="arrowUp.mouseout"/>
                  </use>
                  <path fill="none" stroke="white" stroke-width="1.5" d="M0,-3.0v7 M-2.5,-0.5L0,-3.0L2.5,-0.5"/>
                </g>
                <g id="arrowRight" xlink:href="#dirArrow" transform="rotate(90) translate(36 -43)" onmousedown="handlePan(1,0)">
                  <use xlink:href="#rim" fill="#404040">
                        <set attributeName="fill" to="#808080" begin="arrowRight.mouseover" end="arrowRight.mouseout"/>
                  </use>
                  <path fill="none" stroke="white" stroke-width="1.5" d="M0,-3.0v7 M-2.5,-0.5L0,-3.0L2.5,-0.5"/>
                </g>
                <g id="arrowDown" xlink:href="#dirArrow" transform="rotate(180) translate(-30 -48)" onmousedown="handlePan(0,1)">
                  <use xlink:href="#rim" fill="#404040">
                        <set attributeName="fill" to="#808080" begin="arrowDown.mouseover" end="arrowDown.mouseout"/>
                  </use>
                  <path fill="none" stroke="white" stroke-width="1.5" d="M0,-3.0v7 M-2.5,-0.5L0,-3.0L2.5,-0.5"/>
                </g>
                <g id="arrowLeft" xlink:href="#dirArrow" transform="rotate(270) translate(-36 17)" onmousedown="handlePan(-1,0)">
                  <use xlink:href="#rim" fill="#404040">
                        <set attributeName="fill" to="#808080" begin="arrowLeft.mouseover" end="arrowLeft.mouseout"/>
                  </use>
                  <path fill="none" stroke="white" stroke-width="1.5" d="M0,-3.0v7 M-2.5,-0.5L0,-3.0L2.5,-0.5"/>
                </g>
        </g>
        <svg viewBox="0 0 15 15" width="100%" height="30px" preserveAspectRatio="xMaxYMin meet">
         <g id="arrow_out" transform="scale(0.3 0.3)">
          <a xlink:href="d__msg__flow_8h__dep__incl_org.svg" target="_base">
           <rect id="button" ry="5" rx="5" y="6" x="6" height="38" width="38"
                fill="#f2f5e9" fill-opacity="0.5" stroke="#606060" stroke-width="1.0"/>
           <path id="arrow"
             d="M 11.500037,31.436501 C 11.940474,20.09759 22.043105,11.32322 32.158766,21.979434 L 37.068811,17.246167 C 37.068811,17.246167 37.088388,32 37.088388,32 L 22.160133,31.978069 C 22.160133,31.978069 26.997745,27.140456 26.997745,27.140456 C 18.528582,18.264221 13.291696,25.230495 11.500037,31.436501 z"
             style="fill:#404040;"/>
          </a>
         </g>
        </svg>
</svg>
