<?xml version="1.0" encoding="UTF-8" standalone="no"?>
<!DOCTYPE svg PUBLIC "-//W3C//DTD SVG 1.1//EN"
 "http://www.w3.org/Graphics/SVG/1.1/DTD/svg11.dtd">
<!-- Generated by graphviz version 7.0.5 (20221223.1930)
 -->
<!-- Title: include/d/msg/d_msg_object.h Pages: 1 -->
<!--zoomable 170 -->
<svg id="main" version="1.1" xmlns="http://www.w3.org/2000/svg" xmlns:xlink="http://www.w3.org/1999/xlink" xml:space="preserve" onload="init(evt)">
<style type="text/css"><![CDATA[
.edge:hover path { stroke: red; }
.edge:hover polygon { stroke: red; fill: red; }
]]></style>
<script type="text/javascript"><![CDATA[
var edges = document.getElementsByTagName('g');
if (edges && edges.length) {
  for (var i=0;i<edges.length;i++) {
    if (edges[i].id.substr(0,4)=='edge') {
      edges[i].setAttribute('class','edge');
    }
  }
}
]]></script>
        <defs>
                <circle id="rim" cx="0" cy="0" r="7"/>
                <circle id="rim2" cx="0" cy="0" r="3.5"/>
                <g id="zoomPlus">
                        <use xlink:href="#rim" fill="#404040">
                                <set attributeName="fill" to="#808080" begin="zoomplus.mouseover" end="zoomplus.mouseout"/>
                        </use>
                        <path d="M-4,0h8M0,-4v8" fill="none" stroke="white" stroke-width="1.5" pointer-events="none"/>
                </g>
                <g id="zoomMin">
                        <use xlink:href="#rim" fill="#404040">
                                <set attributeName="fill" to="#808080" begin="zoomminus.mouseover" end="zoomminus.mouseout"/>
                        </use>
                        <path d="M-4,0h8" fill="none" stroke="white" stroke-width="1.5" pointer-events="none"/>
                </g>
                <g id="dirArrow">
                        <path fill="none" stroke="white" stroke-width="1.5" d="M0,-3.0v7 M-2.5,-0.5L0,-3.0L2.5,-0.5"/>
                </g>
               <g id="resetDef">
                       <use xlink:href="#rim2" fill="#404040">
                               <set attributeName="fill" to="#808080" begin="reset.mouseover" end="reset.mouseout"/>
                       </use>
               </g>
        </defs>

<script type="text/javascript">
var viewWidth = 3914;
var viewHeight = 170;
var sectionId = 'dynsection-1';
</script>
<script xlink:href="svgpan.js"/>
<svg id="graph" class="graph">
<g id="viewport">
<title>include/d/msg/d_msg_object.h</title>
<!-- Node1 -->
<g id="node1" class="node">
<title>Node1</title>
<g id="a_node1"><a xlink:title=" ">
<polygon fill="#999999" stroke="#666666" points="2080,-162 1970,-162 1970,-132 2080,-132 2080,-162"/>
<text text-anchor="start" x="1978" y="-150" font-family="Helvetica,sans-Serif" font-size="10.00">include/d/msg/d_msg</text>
<text text-anchor="middle" x="2025" y="-139" font-family="Helvetica,sans-Serif" font-size="10.00">_object.h</text>
</a>
</g>
</g>
<!-- Node2 -->
<g id="node2" class="node">
<title>Node2</title>
<g id="a_node2"><a xlink:href="d__timer_8h.html" target="_top" xlink:title=" ">
<polygon fill="white" stroke="#666666" points="285,-90.5 187,-90.5 187,-71.5 285,-71.5 285,-90.5"/>
<text text-anchor="middle" x="236" y="-78.5" font-family="Helvetica,sans-Serif" font-size="10.00">include/d/d_timer.h</text>
</a>
</g>
</g>
<!-- Node1&#45;&gt;Node2 -->
<g id="edge1" class="edge">
<title>Node1&#45;&gt;Node2</title>
<path fill="none" stroke="#63b8ff" d="M1958.36,-145.89C1682.05,-145.16 625.39,-139.51 295,-96 286.34,-94.86 277.09,-92.99 268.55,-90.98"/>
<polygon fill="#63b8ff" stroke="#63b8ff" points="1958.26,-149.39 1968.27,-145.92 1958.28,-142.39 1958.26,-149.39"/>
</g>
<!-- Node7 -->
<g id="node7" class="node">
<title>Node7</title>
<g id="a_node7"><a xlink:href="d__a__alink_8cpp.html" target="_top" xlink:title=" ">
<polygon fill="white" stroke="#666666" points="412.5,-90.5 303.5,-90.5 303.5,-71.5 412.5,-71.5 412.5,-90.5"/>
<text text-anchor="middle" x="358" y="-78.5" font-family="Helvetica,sans-Serif" font-size="10.00">src/d/a/d_a_alink.cpp</text>
</a>
</g>
</g>
<!-- Node1&#45;&gt;Node7 -->
<g id="edge6" class="edge">
<title>Node1&#45;&gt;Node7</title>
<path fill="none" stroke="#63b8ff" d="M1958.55,-145.56C1695.49,-143.56 726.61,-133.74 422,-96 412.63,-94.84 402.61,-92.96 393.34,-90.95"/>
<polygon fill="#63b8ff" stroke="#63b8ff" points="1958.27,-149.06 1968.29,-145.63 1958.32,-142.06 1958.27,-149.06"/>
</g>
<!-- Node8 -->
<g id="node8" class="node">
<title>Node8</title>
<g id="a_node8"><a xlink:href="d__a__npc_8cpp.html" target="_top" xlink:title=" ">
<polygon fill="white" stroke="#666666" points="535,-90.5 431,-90.5 431,-71.5 535,-71.5 535,-90.5"/>
<text text-anchor="middle" x="483" y="-78.5" font-family="Helvetica,sans-Serif" font-size="10.00">src/d/a/d_a_npc.cpp</text>
</a>
</g>
</g>
<!-- Node1&#45;&gt;Node8 -->
<g id="edge7" class="edge">
<title>Node1&#45;&gt;Node8</title>
<path fill="none" stroke="#63b8ff" d="M1958.3,-145.45C1707.78,-143.11 823.21,-132.41 544,-96 535.06,-94.83 525.5,-92.95 516.67,-90.94"/>
<polygon fill="#63b8ff" stroke="#63b8ff" points="1958.2,-148.95 1968.23,-145.54 1958.26,-141.95 1958.2,-148.95"/>
</g>
<!-- Node9 -->
<g id="node9" class="node">
<title>Node9</title>
<g id="a_node9"><a xlink:href="d__demo_8cpp.html" target="_top" xlink:title=" ">
<polygon fill="white" stroke="#666666" points="647,-90.5 553,-90.5 553,-71.5 647,-71.5 647,-90.5"/>
<text text-anchor="middle" x="600" y="-78.5" font-family="Helvetica,sans-Serif" font-size="10.00">src/d/d_demo.cpp</text>
</a>
</g>
</g>
<!-- Node1&#45;&gt;Node9 -->
<g id="edge8" class="edge">
<title>Node1&#45;&gt;Node9</title>
<path fill="none" stroke="#63b8ff" d="M1958.65,-145.37C1721.01,-142.83 912.9,-131.72 657,-96 648.62,-94.83 639.69,-92.95 631.43,-90.94"/>
<polygon fill="#63b8ff" stroke="#63b8ff" points="1958.32,-148.87 1968.35,-145.47 1958.39,-141.87 1958.32,-148.87"/>
</g>
<!-- Node10 -->
<g id="node10" class="node">
<title>Node10</title>
<g id="a_node10"><a xlink:href="d__event_8cpp.html" target="_top" xlink:title=" ">
<polygon fill="white" stroke="#666666" points="786.5,-90.5 665.5,-90.5 665.5,-71.5 786.5,-71.5 786.5,-90.5"/>
<text text-anchor="middle" x="726" y="-78.5" font-family="Helvetica,sans-Serif" font-size="10.00">src/d/event/d_event.cpp</text>
</a>
</g>
</g>
<!-- Node1&#45;&gt;Node10 -->
<g id="edge9" class="edge">
<title>Node1&#45;&gt;Node10</title>
<path fill="none" stroke="#63b8ff" d="M1958.15,-144.66C1736.05,-140 1023.97,-123.26 796,-96 785.91,-94.79 775.1,-92.92 765.07,-90.94"/>
<polygon fill="#63b8ff" stroke="#63b8ff" points="1958.01,-148.16 1968.08,-144.87 1958.16,-141.16 1958.01,-148.16"/>
</g>
<!-- Node11 -->
<g id="node11" class="node">
<title>Node11</title>
<g id="a_node11"><a xlink:href="d__event__data_8cpp.html" target="_top" xlink:title=" ">
<polygon fill="white" stroke="#666666" points="907.5,-96 804.5,-96 804.5,-66 907.5,-66 907.5,-96"/>
<text text-anchor="start" x="812.5" y="-84" font-family="Helvetica,sans-Serif" font-size="10.00">src/d/event/d_event</text>
<text text-anchor="middle" x="856" y="-73" font-family="Helvetica,sans-Serif" font-size="10.00">_data.cpp</text>
</a>
</g>
</g>
<!-- Node1&#45;&gt;Node11 -->
<g id="edge10" class="edge">
<title>Node1&#45;&gt;Node11</title>
<path fill="none" stroke="#63b8ff" d="M1958.48,-144.57C1751.42,-139.89 1120.06,-123.65 917,-96 913.99,-95.59 910.9,-95.1 907.8,-94.56"/>
<polygon fill="#63b8ff" stroke="#63b8ff" points="1958.18,-148.07 1968.25,-144.79 1958.34,-141.07 1958.18,-148.07"/>
</g>
<!-- Node12 -->
<g id="node12" class="node">
<title>Node12</title>
<g id="a_node12"><a xlink:href="d__kankyo_8cpp.html" target="_top" xlink:title=" ">
<polygon fill="white" stroke="#666666" points="1060,-90.5 926,-90.5 926,-71.5 1060,-71.5 1060,-90.5"/>
<text text-anchor="middle" x="993" y="-78.5" font-family="Helvetica,sans-Serif" font-size="10.00">src/d/kankyo/d_kankyo.cpp</text>
</a>
</g>
</g>
<!-- Node1&#45;&gt;Node12 -->
<g id="edge11" class="edge">
<title>Node1&#45;&gt;Node12</title>
<path fill="none" stroke="#63b8ff" d="M1958.38,-145.43C1802.49,-143.46 1402.02,-134.72 1070,-96 1059.2,-94.74 1047.64,-92.9 1036.83,-90.97"/>
<polygon fill="#63b8ff" stroke="#63b8ff" points="1958.07,-148.93 1968.11,-145.55 1958.15,-141.93 1958.07,-148.93"/>
</g>
<!-- Node13 -->
<g id="node13" class="node">
<title>Node13</title>
<g id="a_node13"><a xlink:href="d__menu__collect_8cpp.html" target="_top" xlink:title=" ">
<polygon fill="white" stroke="#666666" points="1233.5,-90.5 1078.5,-90.5 1078.5,-71.5 1233.5,-71.5 1233.5,-90.5"/>
<text text-anchor="middle" x="1156" y="-78.5" font-family="Helvetica,sans-Serif" font-size="10.00">src/d/menu/d_menu_collect.cpp</text>
</a>
</g>
</g>
<!-- Node1&#45;&gt;Node13 -->
<g id="edge12" class="edge">
<title>Node1&#45;&gt;Node13</title>
<path fill="none" stroke="#63b8ff" d="M1958.5,-143.9C1823.36,-139.15 1507.04,-125.62 1243,-96 1231.14,-94.67 1218.43,-92.85 1206.49,-90.96"/>
<polygon fill="#63b8ff" stroke="#63b8ff" points="1958.22,-147.39 1968.34,-144.24 1958.47,-140.39 1958.22,-147.39"/>
</g>
<!-- Node14 -->
<g id="node14" class="node">
<title>Node14</title>
<g id="a_node14"><a xlink:href="d__menu__window_8cpp.html" target="_top" xlink:title=" ">
<polygon fill="white" stroke="#666666" points="1410.5,-90.5 1251.5,-90.5 1251.5,-71.5 1410.5,-71.5 1410.5,-90.5"/>
<text text-anchor="middle" x="1331" y="-78.5" font-family="Helvetica,sans-Serif" font-size="10.00">src/d/menu/d_menu_window.cpp</text>
</a>
</g>
</g>
<!-- Node1&#45;&gt;Node14 -->
<g id="edge13" class="edge">
<title>Node1&#45;&gt;Node14</title>
<path fill="none" stroke="#63b8ff" d="M1958.42,-142.1C1846.82,-135.22 1615.06,-119.37 1420,-96 1408.2,-94.59 1395.56,-92.78 1383.62,-90.93"/>
<polygon fill="#63b8ff" stroke="#63b8ff" points="1958.1,-145.59 1968.3,-142.71 1958.53,-138.6 1958.1,-145.59"/>
</g>
<!-- Node15 -->
<g id="node15" class="node">
<title>Node15</title>
<g id="a_node15"><a xlink:href="d__meter2__draw_8cpp.html" target="_top" xlink:title=" ">
<polygon fill="white" stroke="#666666" points="1539,-96 1429,-96 1429,-66 1539,-66 1539,-96"/>
<text text-anchor="start" x="1437" y="-84" font-family="Helvetica,sans-Serif" font-size="10.00">src/d/meter/d_meter2</text>
<text text-anchor="middle" x="1484" y="-73" font-family="Helvetica,sans-Serif" font-size="10.00">_draw.cpp</text>
</a>
</g>
</g>
<!-- Node1&#45;&gt;Node15 -->
<g id="edge14" class="edge">
<title>Node1&#45;&gt;Node15</title>
<path fill="none" stroke="#63b8ff" d="M1958.22,-141.35C1865.7,-134.37 1693.45,-119.46 1548,-96 1545.19,-95.55 1542.32,-95.05 1539.43,-94.52"/>
<polygon fill="#63b8ff" stroke="#63b8ff" points="1957.91,-144.84 1968.14,-142.09 1958.43,-137.86 1957.91,-144.84"/>
</g>
<!-- Node16 -->
<g id="node16" class="node">
<title>Node16</title>
<g id="a_node16"><a xlink:href="d__meter__button_8cpp.html" target="_top" xlink:title=" ">
<polygon fill="white" stroke="#666666" points="1661,-96 1557,-96 1557,-66 1661,-66 1661,-96"/>
<text text-anchor="start" x="1565" y="-84" font-family="Helvetica,sans-Serif" font-size="10.00">src/d/meter/d_meter</text>
<text text-anchor="middle" x="1609" y="-73" font-family="Helvetica,sans-Serif" font-size="10.00">_button.cpp</text>
</a>
</g>
</g>
<!-- Node1&#45;&gt;Node16 -->
<g id="edge15" class="edge">
<title>Node1&#45;&gt;Node16</title>
<path fill="none" stroke="#63b8ff" d="M1958.65,-138.38C1887.12,-129.76 1770.07,-114.5 1670,-96 1667.12,-95.47 1664.16,-94.89 1661.18,-94.29"/>
<polygon fill="#63b8ff" stroke="#63b8ff" points="1957.88,-141.81 1968.22,-139.52 1958.71,-134.86 1957.88,-141.81"/>
</g>
<!-- Node17 -->
<g id="node17" class="node">
<title>Node17</title>
<g id="a_node17"><a xlink:href="d__meter__map_8cpp.html" target="_top" xlink:title=" ">
<polygon fill="white" stroke="#666666" points="1783,-96 1679,-96 1679,-66 1783,-66 1783,-96"/>
<text text-anchor="start" x="1687" y="-84" font-family="Helvetica,sans-Serif" font-size="10.00">src/d/meter/d_meter</text>
<text text-anchor="middle" x="1731" y="-73" font-family="Helvetica,sans-Serif" font-size="10.00">_map.cpp</text>
</a>
</g>
</g>
<!-- Node1&#45;&gt;Node17 -->
<g id="edge16" class="edge">
<title>Node1&#45;&gt;Node17</title>
<path fill="none" stroke="#63b8ff" d="M1958.53,-131.86C1912.13,-121.94 1848.75,-108.3 1793,-96 1789.88,-95.31 1786.66,-94.6 1783.42,-93.88"/>
<polygon fill="#63b8ff" stroke="#63b8ff" points="1957.66,-135.25 1968.17,-133.92 1959.13,-128.4 1957.66,-135.25"/>
</g>
<!-- Node18 -->
<g id="node18" class="node">
<title>Node18</title>
<g id="a_node18"><a xlink:href="d__msg__class_8cpp.html" target="_top" xlink:title=" ">
<polygon fill="white" stroke="#666666" points="1940.5,-90.5 1801.5,-90.5 1801.5,-71.5 1940.5,-71.5 1940.5,-90.5"/>
<text text-anchor="middle" x="1871" y="-78.5" font-family="Helvetica,sans-Serif" font-size="10.00">src/d/msg/d_msg_class.cpp</text>
</a>
</g>
</g>
<!-- Node1&#45;&gt;Node18 -->
<g id="edge17" class="edge">
<title>Node1&#45;&gt;Node18</title>
<path fill="none" stroke="#63b8ff" d="M1979.82,-127.22C1951.07,-115.27 1915.14,-100.34 1892.62,-90.99"/>
<polygon fill="#63b8ff" stroke="#63b8ff" points="1978.46,-130.45 1989.04,-131.06 1981.15,-123.99 1978.46,-130.45"/>
</g>
<!-- Node19 -->
<g id="node19" class="node">
<title>Node19</title>
<g id="a_node19"><a xlink:href="d__msg__flow_8cpp.html" target="_top" xlink:title=" ">
<polygon fill="white" stroke="#666666" points="2091.5,-90.5 1958.5,-90.5 1958.5,-71.5 2091.5,-71.5 2091.5,-90.5"/>
<text text-anchor="middle" x="2025" y="-78.5" font-family="Helvetica,sans-Serif" font-size="10.00">src/d/msg/d_msg_flow.cpp</text>
</a>
</g>
</g>
<!-- Node1&#45;&gt;Node19 -->
<g id="edge18" class="edge">
<title>Node1&#45;&gt;Node19</title>
<path fill="none" stroke="#63b8ff" d="M2025,-120.59C2025,-110.06 2025,-98.53 2025,-90.84"/>
<polygon fill="#63b8ff" stroke="#63b8ff" points="2021.5,-120.28 2025,-130.28 2028.5,-120.28 2021.5,-120.28"/>
</g>
<!-- Node20 -->
<g id="node20" class="node">
<title>Node20</title>
<g id="a_node20"><a xlink:href="d__msg__object_8cpp.html" target="_top" xlink:title=" ">
<polygon fill="white" stroke="#666666" points="2252,-90.5 2110,-90.5 2110,-71.5 2252,-71.5 2252,-90.5"/>
<text text-anchor="middle" x="2181" y="-78.5" font-family="Helvetica,sans-Serif" font-size="10.00">src/d/msg/d_msg_object.cpp</text>
</a>
</g>
</g>
<!-- Node1&#45;&gt;Node20 -->
<g id="edge19" class="edge">
<title>Node1&#45;&gt;Node20</title>
<path fill="none" stroke="#63b8ff" d="M2070.39,-127.38C2099.57,-115.41 2136.19,-100.38 2159.1,-90.99"/>
<polygon fill="#63b8ff" stroke="#63b8ff" points="2069.33,-124.03 2061.41,-131.06 2071.99,-130.51 2069.33,-124.03"/>
</g>
<!-- Node21 -->
<g id="node21" class="node">
<title>Node21</title>
<g id="a_node21"><a xlink:href="d__msg__out__font_8cpp.html" target="_top" xlink:title=" ">
<polygon fill="white" stroke="#666666" points="2381.5,-96 2270.5,-96 2270.5,-66 2381.5,-66 2381.5,-96"/>
<text text-anchor="start" x="2278.5" y="-84" font-family="Helvetica,sans-Serif" font-size="10.00">src/d/msg/d_msg_out</text>
<text text-anchor="middle" x="2326" y="-73" font-family="Helvetica,sans-Serif" font-size="10.00">_font.cpp</text>
</a>
</g>
</g>
<!-- Node1&#45;&gt;Node21 -->
<g id="edge20" class="edge">
<title>Node1&#45;&gt;Node21</title>
<path fill="none" stroke="#63b8ff" d="M2091.35,-132.01C2138.65,-122.01 2203.74,-108.23 2261,-96 2264.05,-95.35 2267.18,-94.68 2270.33,-94"/>
<polygon fill="#63b8ff" stroke="#63b8ff" points="2090.87,-128.53 2081.81,-134.02 2092.31,-135.38 2090.87,-128.53"/>
</g>
<!-- Node22 -->
<g id="node22" class="node">
<title>Node22</title>
<g id="a_node22"><a xlink:href="d__msg__scrn__base_8cpp.html" target="_top" xlink:title=" ">
<polygon fill="white" stroke="#666666" points="2516,-96 2400,-96 2400,-66 2516,-66 2516,-96"/>
<text text-anchor="start" x="2408" y="-84" font-family="Helvetica,sans-Serif" font-size="10.00">src/d/msg/d_msg_scrn</text>
<text text-anchor="middle" x="2458" y="-73" font-family="Helvetica,sans-Serif" font-size="10.00">_base.cpp</text>
</a>
</g>
</g>
<!-- Node1&#45;&gt;Node22 -->
<g id="edge21" class="edge">
<title>Node1&#45;&gt;Node22</title>
<path fill="none" stroke="#63b8ff" d="M2091.75,-138.31C2165.28,-129.51 2286.92,-113.96 2391,-96 2393.81,-95.52 2396.68,-95 2399.58,-94.46"/>
<polygon fill="#63b8ff" stroke="#63b8ff" points="2091.39,-134.83 2081.87,-139.48 2092.22,-141.78 2091.39,-134.83"/>
</g>
<!-- Node23 -->
<g id="node23" class="node">
<title>Node23</title>
<g id="a_node23"><a xlink:href="d__msg__scrn__boss_8cpp.html" target="_top" xlink:title=" ">
<polygon fill="white" stroke="#666666" points="2650,-96 2534,-96 2534,-66 2650,-66 2650,-96"/>
<text text-anchor="start" x="2542" y="-84" font-family="Helvetica,sans-Serif" font-size="10.00">src/d/msg/d_msg_scrn</text>
<text text-anchor="middle" x="2592" y="-73" font-family="Helvetica,sans-Serif" font-size="10.00">_boss.cpp</text>
</a>
</g>
</g>
<!-- Node1&#45;&gt;Node23 -->
<g id="edge22" class="edge">
<title>Node1&#45;&gt;Node23</title>
<path fill="none" stroke="#63b8ff" d="M2091.65,-141.6C2187.76,-134.74 2370.69,-119.77 2525,-96 2527.82,-95.57 2530.7,-95.09 2533.6,-94.58"/>
<polygon fill="#63b8ff" stroke="#63b8ff" points="2091.6,-138.09 2081.87,-142.29 2092.09,-145.08 2091.6,-138.09"/>
</g>
<!-- Node24 -->
<g id="node24" class="node">
<title>Node24</title>
<g id="a_node24"><a xlink:href="d__msg__scrn__explain_8cpp.html" target="_top" xlink:title=" ">
<polygon fill="white" stroke="#666666" points="2784,-96 2668,-96 2668,-66 2784,-66 2784,-96"/>
<text text-anchor="start" x="2676" y="-84" font-family="Helvetica,sans-Serif" font-size="10.00">src/d/msg/d_msg_scrn</text>
<text text-anchor="middle" x="2726" y="-73" font-family="Helvetica,sans-Serif" font-size="10.00">_explain.cpp</text>
</a>
</g>
</g>
<!-- Node1&#45;&gt;Node24 -->
<g id="edge23" class="edge">
<title>Node1&#45;&gt;Node24</title>
<path fill="none" stroke="#63b8ff" d="M2091.86,-143.53C2207.81,-138.62 2453.48,-125.45 2659,-96 2661.82,-95.6 2664.71,-95.14 2667.61,-94.66"/>
<polygon fill="#63b8ff" stroke="#63b8ff" points="2091.74,-140.03 2081.9,-143.94 2092.03,-147.02 2091.74,-140.03"/>
</g>
<!-- Node25 -->
<g id="node25" class="node">
<title>Node25</title>
<g id="a_node25"><a xlink:href="d__msg__scrn__howl_8cpp.html" target="_top" xlink:title=" ">
<polygon fill="white" stroke="#666666" points="2918,-96 2802,-96 2802,-66 2918,-66 2918,-96"/>
<text text-anchor="start" x="2810" y="-84" font-family="Helvetica,sans-Serif" font-size="10.00">src/d/msg/d_msg_scrn</text>
<text text-anchor="middle" x="2860" y="-73" font-family="Helvetica,sans-Serif" font-size="10.00">_howl.cpp</text>
</a>
</g>
</g>
<!-- Node1&#45;&gt;Node25 -->
<g id="edge24" class="edge">
<title>Node1&#45;&gt;Node25</title>
<path fill="none" stroke="#63b8ff" d="M2091.43,-144.82C2224.93,-141.77 2535.07,-131.16 2793,-96 2795.83,-95.61 2798.71,-95.18 2801.62,-94.7"/>
<polygon fill="#63b8ff" stroke="#63b8ff" points="2091.64,-141.32 2081.72,-145.04 2091.8,-148.32 2091.64,-141.32"/>
</g>
<!-- Node26 -->
<g id="node26" class="node">
<title>Node26</title>
<g id="a_node26"><a xlink:href="d__msg__scrn__kanban_8cpp.html" target="_top" xlink:title=" ">
<polygon fill="white" stroke="#666666" points="3052,-96 2936,-96 2936,-66 3052,-66 3052,-96"/>
<text text-anchor="start" x="2944" y="-84" font-family="Helvetica,sans-Serif" font-size="10.00">src/d/msg/d_msg_scrn</text>
<text text-anchor="middle" x="2994" y="-73" font-family="Helvetica,sans-Serif" font-size="10.00">_kanban.cpp</text>
</a>
</g>
</g>
<!-- Node1&#45;&gt;Node26 -->
<g id="edge25" class="edge">
<title>Node1&#45;&gt;Node26</title>
<path fill="none" stroke="#63b8ff" d="M2091.69,-145.73C2241.63,-144.38 2616.51,-136.81 2927,-96 2929.83,-95.63 2932.71,-95.2 2935.62,-94.74"/>
<polygon fill="#63b8ff" stroke="#63b8ff" points="2091.92,-142.23 2081.95,-145.81 2091.98,-149.23 2091.92,-142.23"/>
</g>
<!-- Node27 -->
<g id="node27" class="node">
<title>Node27</title>
<g id="a_node27"><a xlink:href="d__msg__scrn__place_8cpp.html" target="_top" xlink:title=" ">
<polygon fill="white" stroke="#666666" points="3186,-96 3070,-96 3070,-66 3186,-66 3186,-96"/>
<text text-anchor="start" x="3078" y="-84" font-family="Helvetica,sans-Serif" font-size="10.00">src/d/msg/d_msg_scrn</text>
<text text-anchor="middle" x="3128" y="-73" font-family="Helvetica,sans-Serif" font-size="10.00">_place.cpp</text>
</a>
</g>
</g>
<!-- Node1&#45;&gt;Node27 -->
<g id="edge26" class="edge">
<title>Node1&#45;&gt;Node27</title>
<path fill="none" stroke="#63b8ff" d="M2091.7,-146.41C2256.77,-146.65 2697.31,-142.48 3061,-96 3063.83,-95.64 3066.72,-95.22 3069.63,-94.76"/>
<polygon fill="#63b8ff" stroke="#63b8ff" points="2091.82,-142.91 2081.81,-146.39 2091.81,-149.91 2091.82,-142.91"/>
</g>
<!-- Node28 -->
<g id="node28" class="node">
<title>Node28</title>
<g id="a_node28"><a xlink:href="d__msg__scrn__staff_8cpp.html" target="_top" xlink:title=" ">
<polygon fill="white" stroke="#666666" points="3320,-96 3204,-96 3204,-66 3320,-66 3320,-96"/>
<text text-anchor="start" x="3212" y="-84" font-family="Helvetica,sans-Serif" font-size="10.00">src/d/msg/d_msg_scrn</text>
<text text-anchor="middle" x="3262" y="-73" font-family="Helvetica,sans-Serif" font-size="10.00">_staff.cpp</text>
</a>
</g>
</g>
<!-- Node1&#45;&gt;Node28 -->
<g id="edge27" class="edge">
<title>Node1&#45;&gt;Node28</title>
<path fill="none" stroke="#63b8ff" d="M2091.9,-144.58C2306.97,-139.78 2979.2,-122.97 3195,-96 3197.83,-95.65 3200.72,-95.24 3203.63,-94.78"/>
<polygon fill="#63b8ff" stroke="#63b8ff" points="2091.93,-141.08 2082.01,-144.8 2092.08,-148.08 2091.93,-141.08"/>
</g>
<!-- Node29 -->
<g id="node29" class="node">
<title>Node29</title>
<g id="a_node29"><a xlink:href="d__msg__scrn__tree_8cpp.html" target="_top" xlink:title=" ">
<polygon fill="white" stroke="#666666" points="3454,-96 3338,-96 3338,-66 3454,-66 3454,-96"/>
<text text-anchor="start" x="3346" y="-84" font-family="Helvetica,sans-Serif" font-size="10.00">src/d/msg/d_msg_scrn</text>
<text text-anchor="middle" x="3396" y="-73" font-family="Helvetica,sans-Serif" font-size="10.00">_tree.cpp</text>
</a>
</g>
</g>
<!-- Node1&#45;&gt;Node29 -->
<g id="edge28" class="edge">
<title>Node1&#45;&gt;Node29</title>
<path fill="none" stroke="#63b8ff" d="M2091.66,-144.92C2322.32,-140.96 3085.75,-125.86 3329,-96 3331.83,-95.65 3334.72,-95.25 3337.63,-94.8"/>
<polygon fill="#63b8ff" stroke="#63b8ff" points="2091.89,-141.42 2081.95,-145.09 2092.01,-148.42 2091.89,-141.42"/>
</g>
<!-- Node30 -->
<g id="node30" class="node">
<title>Node30</title>
<g id="a_node30"><a xlink:href="d__s__play_8cpp.html" target="_top" xlink:title=" ">
<polygon fill="white" stroke="#666666" points="3578,-90.5 3472,-90.5 3472,-71.5 3578,-71.5 3578,-90.5"/>
<text text-anchor="middle" x="3525" y="-78.5" font-family="Helvetica,sans-Serif" font-size="10.00">src/d/s/d_s_play.cpp</text>
</a>
</g>
</g>
<!-- Node1&#45;&gt;Node30 -->
<g id="edge29" class="edge">
<title>Node1&#45;&gt;Node30</title>
<path fill="none" stroke="#63b8ff" d="M2091.41,-145.34C2336.86,-142.65 3192.45,-130.94 3463,-96 3472.08,-94.83 3481.79,-92.94 3490.77,-90.93"/>
<polygon fill="#63b8ff" stroke="#63b8ff" points="2091.67,-141.84 2081.71,-145.45 2091.74,-148.84 2091.67,-141.84"/>
</g>
<!-- Node31 -->
<g id="node31" class="node">
<title>Node31</title>
<g id="a_node31"><a xlink:href="d__shop__system_8cpp.html" target="_top" xlink:title=" ">
<polygon fill="white" stroke="#666666" points="3748,-90.5 3596,-90.5 3596,-71.5 3748,-71.5 3748,-90.5"/>
<text text-anchor="middle" x="3672" y="-78.5" font-family="Helvetica,sans-Serif" font-size="10.00">src/d/shop/d_shop_system.cpp</text>
</a>
</g>
</g>
<!-- Node1&#45;&gt;Node31 -->
<g id="edge30" class="edge">
<title>Node1&#45;&gt;Node31</title>
<path fill="none" stroke="#63b8ff" d="M2091.81,-145.03C2350.99,-141.09 3290.14,-125.07 3587,-96 3599.21,-94.8 3612.31,-92.94 3624.49,-90.95"/>
<polygon fill="#63b8ff" stroke="#63b8ff" points="2091.81,-141.53 2081.86,-145.18 2091.92,-148.53 2091.81,-141.53"/>
</g>
<!-- Node32 -->
<g id="node32" class="node">
<title>Node32</title>
<g id="a_node32"><a xlink:href="f__op__msg__mng_8cpp.html" target="_top" xlink:title=" ">
<polygon fill="white" stroke="#666666" points="3906,-90.5 3766,-90.5 3766,-71.5 3906,-71.5 3906,-90.5"/>
<text text-anchor="middle" x="3836" y="-78.5" font-family="Helvetica,sans-Serif" font-size="10.00">src/f_op/f_op_msg_mng.cpp</text>
</a>
</g>
</g>
<!-- Node1&#45;&gt;Node32 -->
<g id="edge31" class="edge">
<title>Node1&#45;&gt;Node32</title>
<path fill="none" stroke="#63b8ff" d="M2091.65,-145.38C2368.05,-142.62 3425.11,-130.01 3757,-96 3768.36,-94.84 3780.55,-92.98 3791.87,-91"/>
<polygon fill="#63b8ff" stroke="#63b8ff" points="2091.71,-141.88 2081.75,-145.48 2091.78,-148.88 2091.71,-141.88"/>
</g>
<!-- Node3 -->
<g id="node3" class="node">
<title>Node3</title>
<g id="a_node3"><a xlink:href="d__com__inf__game_8cpp.html" target="_top" xlink:title=" ">
<polygon fill="white" stroke="#666666" points="108,-30 0,-30 0,0 108,0 108,-30"/>
<text text-anchor="start" x="8" y="-18" font-family="Helvetica,sans-Serif" font-size="10.00">src/d/com/d_com_inf</text>
<text text-anchor="middle" x="54" y="-7" font-family="Helvetica,sans-Serif" font-size="10.00">_game.cpp</text>
</a>
</g>
</g>
<!-- Node2&#45;&gt;Node3 -->
<g id="edge2" class="edge">
<title>Node2&#45;&gt;Node3</title>
<path fill="none" stroke="#63b8ff" d="M200.21,-67.41C170.01,-56.8 126.79,-41.6 95.17,-30.48"/>
<polygon fill="#63b8ff" stroke="#63b8ff" points="198.67,-70.58 209.27,-70.6 200.99,-63.98 198.67,-70.58"/>
</g>
<!-- Node4 -->
<g id="node4" class="node">
<title>Node4</title>
<g id="a_node4"><a xlink:href="d__timer_8cpp.html" target="_top" xlink:title=" ">
<polygon fill="white" stroke="#666666" points="218,-24.5 126,-24.5 126,-5.5 218,-5.5 218,-24.5"/>
<text text-anchor="middle" x="172" y="-12.5" font-family="Helvetica,sans-Serif" font-size="10.00">src/d/d_timer.cpp</text>
</a>
</g>
</g>
<!-- Node2&#45;&gt;Node4 -->
<g id="edge3" class="edge">
<title>Node2&#45;&gt;Node4</title>
<path fill="none" stroke="#63b8ff" d="M218.98,-62.98C206.7,-50.7 190.63,-34.63 180.82,-24.82"/>
<polygon fill="#63b8ff" stroke="#63b8ff" points="216.48,-65.43 226.03,-70.03 221.43,-60.48 216.48,-65.43"/>
</g>
<!-- Node5 -->
<g id="node5" class="node">
<title>Node5</title>
<g id="a_node5"><a xlink:href="d__meter2_8cpp.html" target="_top" xlink:title=" ">
<polygon fill="white" stroke="#666666" points="364,-24.5 236,-24.5 236,-5.5 364,-5.5 364,-24.5"/>
<text text-anchor="middle" x="300" y="-12.5" font-family="Helvetica,sans-Serif" font-size="10.00">src/d/meter/d_meter2.cpp</text>
</a>
</g>
</g>
<!-- Node2&#45;&gt;Node5 -->
<g id="edge4" class="edge">
<title>Node2&#45;&gt;Node5</title>
<path fill="none" stroke="#63b8ff" d="M253.02,-62.98C265.3,-50.7 281.37,-34.63 291.18,-24.82"/>
<polygon fill="#63b8ff" stroke="#63b8ff" points="250.57,-60.48 245.97,-70.03 255.52,-65.43 250.57,-60.48"/>
</g>
<!-- Node6 -->
<g id="node6" class="node">
<title>Node6</title>
<g id="a_node6"><a xlink:href="d__meter__string_8cpp.html" target="_top" xlink:title=" ">
<polygon fill="white" stroke="#666666" points="486,-30 382,-30 382,0 486,0 486,-30"/>
<text text-anchor="start" x="390" y="-18" font-family="Helvetica,sans-Serif" font-size="10.00">src/d/meter/d_meter</text>
<text text-anchor="middle" x="434" y="-7" font-family="Helvetica,sans-Serif" font-size="10.00">_string.cpp</text>
</a>
</g>
</g>
<!-- Node2&#45;&gt;Node6 -->
<g id="edge5" class="edge">
<title>Node2&#45;&gt;Node6</title>
<path fill="none" stroke="#63b8ff" d="M274.08,-67.69C306.96,-57.06 354.51,-41.69 389.21,-30.48"/>
<polygon fill="#63b8ff" stroke="#63b8ff" points="273.41,-64.23 264.97,-70.64 275.56,-70.89 273.41,-64.23"/>
</g>
</g>
</svg>
        <g id="navigator" transform="translate(0 0)" fill="#404254">
                <rect fill="#f2f5e9" fill-opacity="0.5" stroke="#606060" stroke-width=".5" x="0" y="0" width="60" height="60"/>
                <use id="zoomplus" xlink:href="#zoomPlus" x="17" y="9" onmousedown="handleZoom(evt,'in')"/>
                <use id="zoomminus" xlink:href="#zoomMin" x="42" y="9" onmousedown="handleZoom(evt,'out')"/>
                <use id="reset" xlink:href="#resetDef" x="30" y="36" onmousedown="handleReset()"/>
                <g id="arrowUp" xlink:href="#dirArrow" transform="translate(30 24)" onmousedown="handlePan(0,-1)">
                  <use xlink:href="#rim" fill="#404040">
                        <set attributeName="fill" to="#808080" begin="arrowUp.mouseover" end="arrowUp.mouseout"/>
                  </use>
                  <path fill="none" stroke="white" stroke-width="1.5" d="M0,-3.0v7 M-2.5,-0.5L0,-3.0L2.5,-0.5"/>
                </g>
                <g id="arrowRight" xlink:href="#dirArrow" transform="rotate(90) translate(36 -43)" onmousedown="handlePan(1,0)">
                  <use xlink:href="#rim" fill="#404040">
                        <set attributeName="fill" to="#808080" begin="arrowRight.mouseover" end="arrowRight.mouseout"/>
                  </use>
                  <path fill="none" stroke="white" stroke-width="1.5" d="M0,-3.0v7 M-2.5,-0.5L0,-3.0L2.5,-0.5"/>
                </g>
                <g id="arrowDown" xlink:href="#dirArrow" transform="rotate(180) translate(-30 -48)" onmousedown="handlePan(0,1)">
                  <use xlink:href="#rim" fill="#404040">
                        <set attributeName="fill" to="#808080" begin="arrowDown.mouseover" end="arrowDown.mouseout"/>
                  </use>
                  <path fill="none" stroke="white" stroke-width="1.5" d="M0,-3.0v7 M-2.5,-0.5L0,-3.0L2.5,-0.5"/>
                </g>
                <g id="arrowLeft" xlink:href="#dirArrow" transform="rotate(270) translate(-36 17)" onmousedown="handlePan(-1,0)">
                  <use xlink:href="#rim" fill="#404040">
                        <set attributeName="fill" to="#808080" begin="arrowLeft.mouseover" end="arrowLeft.mouseout"/>
                  </use>
                  <path fill="none" stroke="white" stroke-width="1.5" d="M0,-3.0v7 M-2.5,-0.5L0,-3.0L2.5,-0.5"/>
                </g>
        </g>
        <svg viewBox="0 0 15 15" width="100%" height="30px" preserveAspectRatio="xMaxYMin meet">
         <g id="arrow_out" transform="scale(0.3 0.3)">
          <a xlink:href="d__msg__object_8h__dep__incl_org.svg" target="_base">
           <rect id="button" ry="5" rx="5" y="6" x="6" height="38" width="38"
                fill="#f2f5e9" fill-opacity="0.5" stroke="#606060" stroke-width="1.0"/>
           <path id="arrow"
             d="M 11.500037,31.436501 C 11.940474,20.09759 22.043105,11.32322 32.158766,21.979434 L 37.068811,17.246167 C 37.068811,17.246167 37.088388,32 37.088388,32 L 22.160133,31.978069 C 22.160133,31.978069 26.997745,27.140456 26.997745,27.140456 C 18.528582,18.264221 13.291696,25.230495 11.500037,31.436501 z"
             style="fill:#404040;"/>
          </a>
         </g>
        </svg>
</svg>
