<?xml version="1.0" encoding="UTF-8" standalone="no"?>
<!DOCTYPE svg PUBLIC "-//W3C//DTD SVG 1.1//EN"
 "http://www.w3.org/Graphics/SVG/1.1/DTD/svg11.dtd">
<!-- Generated by graphviz version 7.0.5 (20221223.1930)
 -->
<!-- Title: include/d/meter/d_meter2_draw.h Pages: 1 -->
<svg width="674pt" height="104pt"
 viewBox="0.00 0.00 673.50 104.00" xmlns="http://www.w3.org/2000/svg" xmlns:xlink="http://www.w3.org/1999/xlink">
<g id="graph0" class="graph" transform="scale(1 1) rotate(0) translate(4 100)">
<title>include/d/meter/d_meter2_draw.h</title>
<!-- Node1 -->
<g id="node1" class="node">
<title>Node1</title>
<g id="a_node1"><a xlink:title=" ">
<polygon fill="#999999" stroke="#666666" points="415,-96 288,-96 288,-66 415,-66 415,-96"/>
<text text-anchor="start" x="296" y="-84" font-family="Helvetica,sans-Serif" font-size="10.00">include/d/meter/d_meter2</text>
<text text-anchor="middle" x="351.5" y="-73" font-family="Helvetica,sans-Serif" font-size="10.00">_draw.h</text>
</a>
</g>
</g>
<!-- Node2 -->
<g id="node2" class="node">
<title>Node2</title>
<g id="a_node2"><a xlink:href="d__a__alink_8cpp.html" target="_top" xlink:title=" ">
<polygon fill="white" stroke="#666666" points="109,-24.5 0,-24.5 0,-5.5 109,-5.5 109,-24.5"/>
<text text-anchor="middle" x="54.5" y="-12.5" font-family="Helvetica,sans-Serif" font-size="10.00">src/d/a/d_a_alink.cpp</text>
</a>
</g>
</g>
<!-- Node1&#45;&gt;Node2 -->
<g id="edge1" class="edge">
<title>Node1&#45;&gt;Node2</title>
<path fill="none" stroke="#63b8ff" d="M276.69,-64.03C230.99,-54.25 171.36,-41.45 118.5,-30 111.05,-28.39 103.12,-26.66 95.47,-24.99"/>
<polygon fill="#63b8ff" stroke="#63b8ff" points="275.71,-67.39 286.22,-66.06 277.17,-60.55 275.71,-67.39"/>
</g>
<!-- Node3 -->
<g id="node3" class="node">
<title>Node3</title>
<g id="a_node3"><a xlink:href="d__menu__ring_8cpp.html" target="_top" xlink:title=" ">
<polygon fill="white" stroke="#666666" points="269.5,-24.5 127.5,-24.5 127.5,-5.5 269.5,-5.5 269.5,-24.5"/>
<text text-anchor="middle" x="198.5" y="-12.5" font-family="Helvetica,sans-Serif" font-size="10.00">src/d/menu/d_menu_ring.cpp</text>
</a>
</g>
</g>
<!-- Node1&#45;&gt;Node3 -->
<g id="edge2" class="edge">
<title>Node1&#45;&gt;Node3</title>
<path fill="none" stroke="#63b8ff" d="M306.61,-61.22C278.05,-49.27 242.35,-34.34 219.98,-24.99"/>
<polygon fill="#63b8ff" stroke="#63b8ff" points="305.19,-64.42 315.77,-65.05 307.89,-57.97 305.19,-64.42"/>
</g>
<!-- Node4 -->
<g id="node4" class="node">
<title>Node4</title>
<g id="a_node4"><a xlink:href="d__meter2_8cpp.html" target="_top" xlink:title=" ">
<polygon fill="white" stroke="#666666" points="415.5,-24.5 287.5,-24.5 287.5,-5.5 415.5,-5.5 415.5,-24.5"/>
<text text-anchor="middle" x="351.5" y="-12.5" font-family="Helvetica,sans-Serif" font-size="10.00">src/d/meter/d_meter2.cpp</text>
</a>
</g>
</g>
<!-- Node1&#45;&gt;Node4 -->
<g id="edge3" class="edge">
<title>Node1&#45;&gt;Node4</title>
<path fill="none" stroke="#63b8ff" d="M351.5,-54.59C351.5,-44.06 351.5,-32.53 351.5,-24.84"/>
<polygon fill="#63b8ff" stroke="#63b8ff" points="348,-54.28 351.5,-64.28 355,-54.28 348,-54.28"/>
</g>
<!-- Node5 -->
<g id="node5" class="node">
<title>Node5</title>
<g id="a_node5"><a xlink:href="d__meter2__draw_8cpp.html" target="_top" xlink:title=" ">
<polygon fill="white" stroke="#666666" points="543.5,-30 433.5,-30 433.5,0 543.5,0 543.5,-30"/>
<text text-anchor="start" x="441.5" y="-18" font-family="Helvetica,sans-Serif" font-size="10.00">src/d/meter/d_meter2</text>
<text text-anchor="middle" x="488.5" y="-7" font-family="Helvetica,sans-Serif" font-size="10.00">_draw.cpp</text>
</a>
</g>
</g>
<!-- Node1&#45;&gt;Node5 -->
<g id="edge4" class="edge">
<title>Node1&#45;&gt;Node5</title>
<path fill="none" stroke="#63b8ff" d="M392.48,-60.86C413.46,-51.05 438.58,-39.32 457.86,-30.31"/>
<polygon fill="#63b8ff" stroke="#63b8ff" points="391.2,-57.59 383.62,-65 394.16,-63.94 391.2,-57.59"/>
</g>
<!-- Node6 -->
<g id="node6" class="node">
<title>Node6</title>
<g id="a_node6"><a xlink:href="d__meter__button_8cpp.html" target="_top" xlink:title=" ">
<polygon fill="white" stroke="#666666" points="665.5,-30 561.5,-30 561.5,0 665.5,0 665.5,-30"/>
<text text-anchor="start" x="569.5" y="-18" font-family="Helvetica,sans-Serif" font-size="10.00">src/d/meter/d_meter</text>
<text text-anchor="middle" x="613.5" y="-7" font-family="Helvetica,sans-Serif" font-size="10.00">_button.cpp</text>
</a>
</g>
</g>
<!-- Node1&#45;&gt;Node6 -->
<g id="edge5" class="edge">
<title>Node1&#45;&gt;Node6</title>
<path fill="none" stroke="#63b8ff" d="M421.8,-62.83C465.69,-52.11 521.25,-38.53 561.25,-28.76"/>
<polygon fill="#63b8ff" stroke="#63b8ff" points="420.98,-59.43 412.09,-65.2 422.64,-66.23 420.98,-59.43"/>
</g>
</g>
</svg>
