<?xml version="1.0" encoding="UTF-8" standalone="no"?>
<!DOCTYPE svg PUBLIC "-//W3C//DTD SVG 1.1//EN"
 "http://www.w3.org/Graphics/SVG/1.1/DTD/svg11.dtd">
<!-- Generated by graphviz version 7.0.5 (20221223.1930)
 -->
<!-- Title: include/d/particle/d_particle.h Pages: 1 -->
<svg width="5227pt" height="247pt"
 viewBox="0.00 0.00 5227.00 247.00" xmlns="http://www.w3.org/2000/svg" xmlns:xlink="http://www.w3.org/1999/xlink">
<g id="graph0" class="graph" transform="scale(1 1) rotate(0) translate(4 243)">
<title>include/d/particle/d_particle.h</title>
<!-- Node1 -->
<g id="node1" class="node">
<title>Node1</title>
<g id="a_node1"><a xlink:title=" ">
<polygon fill="#999999" stroke="#666666" points="4806.5,-239 4716.5,-239 4716.5,-209 4806.5,-209 4806.5,-239"/>
<text text-anchor="start" x="4724.5" y="-227" font-family="Helvetica,sans-Serif" font-size="10.00">include/d/particle</text>
<text text-anchor="middle" x="4761.5" y="-216" font-family="Helvetica,sans-Serif" font-size="10.00">/d_particle.h</text>
</a>
</g>
</g>
<!-- Node2 -->
<g id="node2" class="node">
<title>Node2</title>
<g id="a_node2"><a xlink:href="d__a__alink_8h.html" target="_top" xlink:title=" ">
<polygon fill="white" stroke="#666666" points="746.5,-96 630.5,-96 630.5,-77 746.5,-77 746.5,-96"/>
<text text-anchor="middle" x="688.5" y="-84" font-family="Helvetica,sans-Serif" font-size="10.00">include/d/a/d_a_alink.h</text>
</a>
</g>
</g>
<!-- Node1&#45;&gt;Node2 -->
<g id="edge1" class="edge">
<title>Node1&#45;&gt;Node2</title>
<path fill="none" stroke="#63b8ff" d="M4704.78,-222.28C4438.28,-218.82 3283.71,-202.76 2337.5,-173 1643.45,-151.17 1465.02,-197.13 776.5,-107 758.35,-104.62 738.4,-100.35 722.1,-96.4"/>
<polygon fill="#63b8ff" stroke="#63b8ff" points="4704.52,-225.78 4714.56,-222.41 4704.61,-218.78 4704.52,-225.78"/>
</g>
<!-- Node12 -->
<g id="node12" class="node">
<title>Node12</title>
<g id="a_node12"><a xlink:href="d__a__item__static_8h.html" target="_top" xlink:title=" ">
<polygon fill="white" stroke="#666666" points="4952,-173 4845,-173 4845,-143 4952,-143 4952,-173"/>
<text text-anchor="start" x="4853" y="-161" font-family="Helvetica,sans-Serif" font-size="10.00">include/d/a/d_a_item</text>
<text text-anchor="middle" x="4898.5" y="-150" font-family="Helvetica,sans-Serif" font-size="10.00">_static.h</text>
</a>
</g>
</g>
<!-- Node1&#45;&gt;Node12 -->
<g id="edge11" class="edge">
<title>Node1&#45;&gt;Node12</title>
<path fill="none" stroke="#63b8ff" d="M4802.48,-203.86C4823.46,-194.05 4848.58,-182.32 4867.86,-173.31"/>
<polygon fill="#63b8ff" stroke="#63b8ff" points="4801.2,-200.59 4793.62,-208 4804.16,-206.94 4801.2,-200.59"/>
</g>
<!-- Node17 -->
<g id="node16" class="node">
<title>Node17</title>
<g id="a_node16"><a xlink:href="d__com__inf__game_8h.html" target="_top" xlink:title=" ">
<polygon fill="#fff0f0" stroke="red" points="2456.5,-173 2346.5,-173 2346.5,-143 2456.5,-143 2456.5,-173"/>
<text text-anchor="start" x="2354.5" y="-161" font-family="Helvetica,sans-Serif" font-size="10.00">include/d/com/d_com</text>
<text text-anchor="middle" x="2401.5" y="-150" font-family="Helvetica,sans-Serif" font-size="10.00">_inf_game.h</text>
</a>
</g>
</g>
<!-- Node1&#45;&gt;Node17 -->
<g id="edge15" class="edge">
<title>Node1&#45;&gt;Node17</title>
<path fill="none" stroke="#63b8ff" d="M4704.82,-221.46C4381.75,-212.7 2776.16,-169.16 2456.8,-160.5"/>
<polygon fill="#63b8ff" stroke="#63b8ff" points="4704.6,-224.96 4714.69,-221.73 4704.79,-217.96 4704.6,-224.96"/>
</g>
<!-- Node182 -->
<g id="node49" class="node">
<title>Node182</title>
<g id="a_node49"><a xlink:href="d__particle_8cpp.html" target="_top" xlink:title=" ">
<polygon fill="white" stroke="#666666" points="4829.5,-96 4693.5,-96 4693.5,-77 4829.5,-77 4829.5,-96"/>
<text text-anchor="middle" x="4761.5" y="-84" font-family="Helvetica,sans-Serif" font-size="10.00">src/d/particle/d_particle.cpp</text>
</a>
</g>
</g>
<!-- Node1&#45;&gt;Node182 -->
<g id="edge62" class="edge">
<title>Node1&#45;&gt;Node182</title>
<path fill="none" stroke="#63b8ff" d="M4761.5,-197.65C4761.5,-166.89 4761.5,-116.62 4761.5,-96.37"/>
<polygon fill="#63b8ff" stroke="#63b8ff" points="4758,-197.24 4761.5,-207.24 4765,-197.24 4758,-197.24"/>
</g>
<!-- Node198 -->
<g id="node50" class="node">
<title>Node198</title>
<g id="a_node50"><a xlink:href="d__a__arrow_8h.html" target="_top" xlink:title=" ">
<polygon fill="white" stroke="#666666" points="5071,-173 4970,-173 4970,-143 5071,-143 5071,-173"/>
<text text-anchor="start" x="4978" y="-161" font-family="Helvetica,sans-Serif" font-size="10.00">include/rel/d/a/d_a</text>
<text text-anchor="middle" x="5020.5" y="-150" font-family="Helvetica,sans-Serif" font-size="10.00">_arrow/d_a_arrow.h</text>
</a>
</g>
</g>
<!-- Node1&#45;&gt;Node198 -->
<g id="edge61" class="edge">
<title>Node1&#45;&gt;Node198</title>
<path fill="none" stroke="#63b8ff" d="M4818.01,-209.04C4863.27,-197.85 4926.18,-182.31 4969.82,-171.52"/>
<polygon fill="#63b8ff" stroke="#63b8ff" points="4817.25,-205.62 4808.38,-211.42 4818.93,-212.41 4817.25,-205.62"/>
</g>
<!-- Node3 -->
<g id="node3" class="node">
<title>Node3</title>
<g id="a_node3"><a xlink:href="d__a__alink_8cpp.html" target="_top" xlink:title=" ">
<polygon fill="white" stroke="#666666" points="528,-24.5 419,-24.5 419,-5.5 528,-5.5 528,-24.5"/>
<text text-anchor="middle" x="473.5" y="-12.5" font-family="Helvetica,sans-Serif" font-size="10.00">src/d/a/d_a_alink.cpp</text>
</a>
</g>
</g>
<!-- Node2&#45;&gt;Node3 -->
<g id="edge2" class="edge">
<title>Node2&#45;&gt;Node3</title>
<path fill="none" stroke="#63b8ff" d="M649.99,-73.05C607.12,-59.19 538.9,-37.14 501.06,-24.91"/>
<polygon fill="#63b8ff" stroke="#63b8ff" points="648.8,-76.35 659.39,-76.09 650.95,-69.68 648.8,-76.35"/>
</g>
<!-- Node4 -->
<g id="node4" class="node">
<title>Node4</title>
<g id="a_node4"><a xlink:href="d__a__player_8cpp.html" target="_top" xlink:title=" ">
<polygon fill="white" stroke="#666666" points="660.5,-24.5 546.5,-24.5 546.5,-5.5 660.5,-5.5 660.5,-24.5"/>
<text text-anchor="middle" x="603.5" y="-12.5" font-family="Helvetica,sans-Serif" font-size="10.00">src/d/a/d_a_player.cpp</text>
</a>
</g>
</g>
<!-- Node2&#45;&gt;Node4 -->
<g id="edge3" class="edge">
<title>Node2&#45;&gt;Node4</title>
<path fill="none" stroke="#63b8ff" d="M669.17,-69.69C652.24,-55.85 628.26,-36.24 614.45,-24.95"/>
<polygon fill="#63b8ff" stroke="#63b8ff" points="666.61,-72.12 676.56,-75.74 671.04,-66.7 666.61,-72.12"/>
</g>
<!-- Node5 -->
<g id="node5" class="node">
<title>Node5</title>
<g id="a_node5"><a xlink:href="d__com__inf__game_8cpp.html" target="_top" xlink:title=" ">
<polygon fill="white" stroke="#666666" points="786.5,-30 678.5,-30 678.5,0 786.5,0 786.5,-30"/>
<text text-anchor="start" x="686.5" y="-18" font-family="Helvetica,sans-Serif" font-size="10.00">src/d/com/d_com_inf</text>
<text text-anchor="middle" x="732.5" y="-7" font-family="Helvetica,sans-Serif" font-size="10.00">_game.cpp</text>
</a>
</g>
</g>
<!-- Node2&#45;&gt;Node5 -->
<g id="edge4" class="edge">
<title>Node2&#45;&gt;Node5</title>
<path fill="none" stroke="#63b8ff" d="M700.1,-67.19C707.4,-55.64 716.7,-40.95 723.46,-30.27"/>
<polygon fill="#63b8ff" stroke="#63b8ff" points="697.27,-65.1 694.88,-75.42 703.19,-68.84 697.27,-65.1"/>
</g>
<!-- Node6 -->
<g id="node6" class="node">
<title>Node6</title>
<g id="a_node6"><a xlink:href="d__camera_8cpp.html" target="_top" xlink:title=" ">
<polygon fill="white" stroke="#666666" points="906.5,-24.5 804.5,-24.5 804.5,-5.5 906.5,-5.5 906.5,-24.5"/>
<text text-anchor="middle" x="855.5" y="-12.5" font-family="Helvetica,sans-Serif" font-size="10.00">src/d/d_camera.cpp</text>
</a>
</g>
</g>
<!-- Node2&#45;&gt;Node6 -->
<g id="edge5" class="edge">
<title>Node2&#45;&gt;Node6</title>
<path fill="none" stroke="#63b8ff" d="M720.57,-72.15C753.96,-58.26 805.33,-36.88 834.09,-24.91"/>
<polygon fill="#63b8ff" stroke="#63b8ff" points="719.28,-68.9 711.39,-75.97 721.97,-75.36 719.28,-68.9"/>
</g>
<!-- Node7 -->
<g id="node7" class="node">
<title>Node7</title>
<g id="a_node7"><a xlink:href="d__event_8cpp.html" target="_top" xlink:title=" ">
<polygon fill="white" stroke="#666666" points="121,-24.5 0,-24.5 0,-5.5 121,-5.5 121,-24.5"/>
<text text-anchor="middle" x="60.5" y="-12.5" font-family="Helvetica,sans-Serif" font-size="10.00">src/d/event/d_event.cpp</text>
</a>
</g>
</g>
<!-- Node2&#45;&gt;Node7 -->
<g id="edge6" class="edge">
<title>Node2&#45;&gt;Node7</title>
<path fill="none" stroke="#63b8ff" d="M651.5,-73.23C641.83,-70.44 631.35,-67.78 621.5,-66 406.16,-27.21 347.31,-59.51 130.5,-30 120.8,-28.68 110.42,-26.84 100.7,-24.93"/>
<polygon fill="#63b8ff" stroke="#63b8ff" points="650.36,-76.54 660.94,-76.08 652.38,-69.84 650.36,-76.54"/>
</g>
<!-- Node8 -->
<g id="node8" class="node">
<title>Node8</title>
<g id="a_node8"><a xlink:href="d__menu__ring_8cpp.html" target="_top" xlink:title=" ">
<polygon fill="white" stroke="#666666" points="1661.5,-24.5 1519.5,-24.5 1519.5,-5.5 1661.5,-5.5 1661.5,-24.5"/>
<text text-anchor="middle" x="1590.5" y="-12.5" font-family="Helvetica,sans-Serif" font-size="10.00">src/d/menu/d_menu_ring.cpp</text>
</a>
</g>
</g>
<!-- Node2&#45;&gt;Node8 -->
<g id="edge7" class="edge">
<title>Node2&#45;&gt;Node8</title>
<path fill="none" stroke="#63b8ff" d="M757.85,-77.4C791.52,-73.63 832.59,-69.27 869.5,-66 1107.13,-44.97 1389.48,-27.6 1519.05,-20.05"/>
<polygon fill="#63b8ff" stroke="#63b8ff" points="757.78,-73.89 748.23,-78.49 758.56,-80.85 757.78,-73.89"/>
</g>
<!-- Node9 -->
<g id="node9" class="node">
<title>Node9</title>
<g id="a_node9"><a xlink:href="d__meter2__draw_8cpp.html" target="_top" xlink:title=" ">
<polygon fill="white" stroke="#666666" points="249.5,-30 139.5,-30 139.5,0 249.5,0 249.5,-30"/>
<text text-anchor="start" x="147.5" y="-18" font-family="Helvetica,sans-Serif" font-size="10.00">src/d/meter/d_meter2</text>
<text text-anchor="middle" x="194.5" y="-7" font-family="Helvetica,sans-Serif" font-size="10.00">_draw.cpp</text>
</a>
</g>
</g>
<!-- Node2&#45;&gt;Node9 -->
<g id="edge8" class="edge">
<title>Node2&#45;&gt;Node9</title>
<path fill="none" stroke="#63b8ff" d="M651.21,-73.33C641.62,-70.56 631.25,-67.88 621.5,-66 462.32,-35.22 418.63,-55.37 258.5,-30 255.69,-29.56 252.82,-29.06 249.93,-28.54"/>
<polygon fill="#63b8ff" stroke="#63b8ff" points="650.01,-76.62 660.59,-76.14 652.02,-69.92 650.01,-76.62"/>
</g>
<!-- Node10 -->
<g id="node10" class="node">
<title>Node10</title>
<g id="a_node10"><a xlink:href="d__msg__flow_8cpp.html" target="_top" xlink:title=" ">
<polygon fill="white" stroke="#666666" points="401,-24.5 268,-24.5 268,-5.5 401,-5.5 401,-24.5"/>
<text text-anchor="middle" x="334.5" y="-12.5" font-family="Helvetica,sans-Serif" font-size="10.00">src/d/msg/d_msg_flow.cpp</text>
</a>
</g>
</g>
<!-- Node2&#45;&gt;Node10 -->
<g id="edge9" class="edge">
<title>Node2&#45;&gt;Node10</title>
<path fill="none" stroke="#63b8ff" d="M649.55,-73.34C640.4,-70.72 630.65,-68.1 621.5,-66 528.35,-44.61 503.59,-46.77 409.5,-30 400.5,-28.4 390.91,-26.64 381.69,-24.93"/>
<polygon fill="#63b8ff" stroke="#63b8ff" points="648.29,-76.62 658.87,-76.09 650.27,-69.91 648.29,-76.62"/>
</g>
<!-- Node11 -->
<g id="node11" class="node">
<title>Node11</title>
<g id="a_node11"><a xlink:href="f__op__actor_8cpp.html" target="_top" xlink:title=" ">
<polygon fill="white" stroke="#666666" points="1044,-24.5 925,-24.5 925,-5.5 1044,-5.5 1044,-24.5"/>
<text text-anchor="middle" x="984.5" y="-12.5" font-family="Helvetica,sans-Serif" font-size="10.00">src/f_op/f_op_actor.cpp</text>
</a>
</g>
</g>
<!-- Node2&#45;&gt;Node11 -->
<g id="edge10" class="edge">
<title>Node2&#45;&gt;Node11</title>
<path fill="none" stroke="#63b8ff" d="M737.44,-74.01C796.13,-60.23 893.24,-37.43 946.56,-24.91"/>
<polygon fill="#63b8ff" stroke="#63b8ff" points="737,-70.52 728.06,-76.21 738.6,-77.33 737,-70.52"/>
</g>
<!-- Node13 -->
<g id="node13" class="node">
<title>Node13</title>
<g id="a_node13"><a xlink:href="d__a__obj__item_8h.html" target="_top" xlink:title=" ">
<polygon fill="#fff0f0" stroke="red" points="4949,-101.5 4848,-101.5 4848,-71.5 4949,-71.5 4949,-101.5"/>
<text text-anchor="start" x="4856" y="-89.5" font-family="Helvetica,sans-Serif" font-size="10.00">include/d/a/d_a_obj</text>
<text text-anchor="middle" x="4898.5" y="-78.5" font-family="Helvetica,sans-Serif" font-size="10.00">_item.h</text>
</a>
</g>
</g>
<!-- Node12&#45;&gt;Node13 -->
<g id="edge12" class="edge">
<title>Node12&#45;&gt;Node13</title>
<path fill="none" stroke="#63b8ff" d="M4898.5,-131.26C4898.5,-121.33 4898.5,-110.36 4898.5,-101.88"/>
<polygon fill="#63b8ff" stroke="#63b8ff" points="4895,-131.09 4898.5,-141.09 4902,-131.09 4895,-131.09"/>
</g>
<!-- Node15 -->
<g id="node14" class="node">
<title>Node15</title>
<g id="a_node14"><a xlink:href="d__a__do_8h.html" target="_top" xlink:title=" ">
<polygon fill="white" stroke="#666666" points="5063.5,-101.5 4967.5,-101.5 4967.5,-71.5 5063.5,-71.5 5063.5,-101.5"/>
<text text-anchor="start" x="4975.5" y="-89.5" font-family="Helvetica,sans-Serif" font-size="10.00">include/rel/d/a/d_a</text>
<text text-anchor="middle" x="5015.5" y="-78.5" font-family="Helvetica,sans-Serif" font-size="10.00">_do/d_a_do.h</text>
</a>
</g>
</g>
<!-- Node12&#45;&gt;Node15 -->
<g id="edge13" class="edge">
<title>Node12&#45;&gt;Node15</title>
<path fill="none" stroke="#63b8ff" d="M4932.44,-136.84C4951.28,-125.65 4974.27,-111.99 4991.29,-101.88"/>
<polygon fill="#63b8ff" stroke="#63b8ff" points="4930.85,-133.71 4924.04,-141.83 4934.43,-139.73 4930.85,-133.71"/>
</g>
<!-- Node16 -->
<g id="node15" class="node">
<title>Node16</title>
<g id="a_node15"><a xlink:href="d__a__item__static_8cpp.html" target="_top" xlink:title=" ">
<polygon fill="white" stroke="#666666" points="5219,-96 5082,-96 5082,-77 5219,-77 5219,-96"/>
<text text-anchor="middle" x="5150.5" y="-84" font-family="Helvetica,sans-Serif" font-size="10.00">src/d/a/d_a_item_static.cpp</text>
</a>
</g>
</g>
<!-- Node12&#45;&gt;Node16 -->
<g id="edge14" class="edge">
<title>Node12&#45;&gt;Node16</title>
<path fill="none" stroke="#63b8ff" d="M4961.98,-139.49C5011.67,-125.79 5078.73,-107.29 5118.03,-96.46"/>
<polygon fill="#63b8ff" stroke="#63b8ff" points="4961.19,-136.08 4952.48,-142.11 4963.05,-142.83 4961.19,-136.08"/>
</g>
<!-- Node17&#45;&gt;Node5 -->
<g id="edge57" class="edge">
<title>Node17&#45;&gt;Node5</title>
<path fill="none" stroke="#63b8ff" d="M2334.93,-156.09C2045.9,-151.96 911.16,-134.09 840.5,-107 798.83,-91.03 761.82,-51.77 743.91,-30.41"/>
<polygon fill="#63b8ff" stroke="#63b8ff" points="2334.49,-159.58 2344.54,-156.22 2334.59,-152.58 2334.49,-159.58"/>
</g>
<!-- Node17&#45;&gt;Node6 -->
<g id="edge58" class="edge">
<title>Node17&#45;&gt;Node6</title>
<path fill="none" stroke="#63b8ff" d="M2334.98,-156.08C2042.47,-151.89 883.87,-133.64 857.5,-107 835.6,-84.87 846.22,-42.91 852.28,-24.75"/>
<polygon fill="#63b8ff" stroke="#63b8ff" points="2334.67,-159.58 2344.72,-156.22 2334.77,-152.58 2334.67,-159.58"/>
</g>
<!-- Node17&#45;&gt;Node11 -->
<g id="edge60" class="edge">
<title>Node17&#45;&gt;Node11</title>
<path fill="none" stroke="#63b8ff" d="M2335,-156.08C2043.91,-151.89 895.35,-133.71 869.5,-107 856.83,-93.91 859.51,-81.24 869.5,-66 883.76,-44.24 909.77,-31.9 933.45,-24.93"/>
<polygon fill="#63b8ff" stroke="#63b8ff" points="2334.64,-159.57 2344.69,-156.22 2334.74,-152.58 2334.64,-159.57"/>
</g>
<!-- Node18 -->
<g id="node17" class="node">
<title>Node18</title>
<g id="a_node17"><a xlink:href="d__a__npc_8h.html" target="_top" xlink:title=" ">
<polygon fill="#fff0f0" stroke="red" points="990,-96 879,-96 879,-77 990,-77 990,-96"/>
<text text-anchor="middle" x="934.5" y="-84" font-family="Helvetica,sans-Serif" font-size="10.00">include/d/a/d_a_npc.h</text>
</a>
</g>
</g>
<!-- Node17&#45;&gt;Node18 -->
<g id="edge16" class="edge">
<title>Node17&#45;&gt;Node18</title>
<path fill="none" stroke="#63b8ff" d="M2335.16,-155.65C2074.83,-150.21 1130.93,-129.14 998.5,-107 984.98,-104.74 970.33,-100.42 958.46,-96.42"/>
<polygon fill="#63b8ff" stroke="#63b8ff" points="2334.72,-159.14 2344.79,-155.85 2334.87,-152.14 2334.72,-159.14"/>
</g>
<!-- Node24 -->
<g id="node18" class="node">
<title>Node24</title>
<g id="a_node18"><a xlink:href="d__a__npc__cd_8h.html" target="_top" xlink:title=" ">
<polygon fill="#fff0f0" stroke="red" points="1135,-96 1008,-96 1008,-77 1135,-77 1135,-96"/>
<text text-anchor="middle" x="1071.5" y="-84" font-family="Helvetica,sans-Serif" font-size="10.00">include/d/a/d_a_npc_cd.h</text>
</a>
</g>
</g>
<!-- Node17&#45;&gt;Node24 -->
<g id="edge17" class="edge">
<title>Node17&#45;&gt;Node24</title>
<path fill="none" stroke="#63b8ff" d="M2334.84,-156.14C2110.13,-152.96 1381.52,-140.28 1149.5,-107 1133.33,-104.68 1115.65,-100.41 1101.22,-96.45"/>
<polygon fill="#63b8ff" stroke="#63b8ff" points="2334.54,-159.64 2344.58,-156.28 2334.63,-152.64 2334.54,-159.64"/>
</g>
<!-- Node26 -->
<g id="node19" class="node">
<title>Node26</title>
<g id="a_node19"><a xlink:href="d__a__npc__cd2_8h.html" target="_top" xlink:title=" ">
<polygon fill="#fff0f0" stroke="red" points="1256.5,-30 1152.5,-30 1152.5,0 1256.5,0 1256.5,-30"/>
<text text-anchor="start" x="1160.5" y="-18" font-family="Helvetica,sans-Serif" font-size="10.00">include/d/a/d_a_npc</text>
<text text-anchor="middle" x="1204.5" y="-7" font-family="Helvetica,sans-Serif" font-size="10.00">_cd2.h</text>
</a>
</g>
</g>
<!-- Node17&#45;&gt;Node26 -->
<g id="edge18" class="edge">
<title>Node17&#45;&gt;Node26</title>
<path fill="none" stroke="#63b8ff" d="M2334.64,-156.79C2085.42,-155.68 1222.63,-148.81 1182.5,-107 1162.47,-86.13 1180.93,-50.29 1194.04,-30.38"/>
<polygon fill="#63b8ff" stroke="#63b8ff" points="2334.51,-160.29 2344.53,-156.83 2334.54,-153.29 2334.51,-160.29"/>
</g>
<!-- Node28 -->
<g id="node20" class="node">
<title>Node28</title>
<g id="a_node20"><a xlink:href="d__cc__uty_8h.html" target="_top" xlink:title=" ">
<polygon fill="#fff0f0" stroke="red" points="1436,-96 1317,-96 1317,-77 1436,-77 1436,-96"/>
<text text-anchor="middle" x="1376.5" y="-84" font-family="Helvetica,sans-Serif" font-size="10.00">include/d/cc/d_cc_uty.h</text>
</a>
</g>
</g>
<!-- Node17&#45;&gt;Node28 -->
<g id="edge19" class="edge">
<title>Node17&#45;&gt;Node28</title>
<path fill="none" stroke="#63b8ff" d="M2334.9,-155.49C2147.18,-150.91 1616.28,-135.73 1444.5,-107 1430.33,-104.63 1414.91,-100.35 1402.34,-96.41"/>
<polygon fill="#63b8ff" stroke="#63b8ff" points="2334.64,-158.98 2344.72,-155.72 2334.81,-151.98 2334.64,-158.98"/>
</g>
<!-- Node38 -->
<g id="node21" class="node">
<title>Node38</title>
<g id="a_node21"><a xlink:href="d__bright__check_8h.html" target="_top" xlink:title=" ">
<polygon fill="#fff0f0" stroke="red" points="1547,-101.5 1454,-101.5 1454,-71.5 1547,-71.5 1547,-101.5"/>
<text text-anchor="start" x="1462" y="-89.5" font-family="Helvetica,sans-Serif" font-size="10.00">include/d/d_bright</text>
<text text-anchor="middle" x="1500.5" y="-78.5" font-family="Helvetica,sans-Serif" font-size="10.00">_check.h</text>
</a>
</g>
</g>
<!-- Node17&#45;&gt;Node38 -->
<g id="edge20" class="edge">
<title>Node17&#45;&gt;Node38</title>
<path fill="none" stroke="#63b8ff" d="M2334.72,-155.42C2162.25,-150.97 1705.04,-136.66 1556.5,-107 1550.24,-105.75 1543.73,-103.96 1537.45,-101.97"/>
<polygon fill="#63b8ff" stroke="#63b8ff" points="2334.56,-158.92 2344.64,-155.68 2334.73,-151.92 2334.56,-158.92"/>
</g>
<!-- Node40 -->
<g id="node22" class="node">
<title>Node40</title>
<g id="a_node22"><a xlink:href="d__error__msg_8h.html" target="_top" xlink:title=" ">
<polygon fill="#fff0f0" stroke="red" points="1685.5,-96 1565.5,-96 1565.5,-77 1685.5,-77 1685.5,-96"/>
<text text-anchor="middle" x="1625.5" y="-84" font-family="Helvetica,sans-Serif" font-size="10.00">include/d/d_error_msg.h</text>
</a>
</g>
</g>
<!-- Node17&#45;&gt;Node40 -->
<g id="edge21" class="edge">
<title>Node17&#45;&gt;Node40</title>
<path fill="none" stroke="#63b8ff" d="M2334.68,-156.81C2208.57,-155.46 1927.24,-147.67 1694.5,-107 1680.4,-104.54 1665.04,-100.35 1652.4,-96.49"/>
<polygon fill="#63b8ff" stroke="#63b8ff" points="2334.48,-160.31 2344.52,-156.91 2334.55,-153.31 2334.48,-160.31"/>
</g>
<!-- Node43 -->
<g id="node23" class="node">
<title>Node43</title>
<g id="a_node23"><a xlink:href="d__npc__lib_8h.html" target="_top" xlink:title=" ">
<polygon fill="#fff0f0" stroke="red" points="1299,-96 1192,-96 1192,-77 1299,-77 1299,-96"/>
<text text-anchor="middle" x="1245.5" y="-84" font-family="Helvetica,sans-Serif" font-size="10.00">include/d/d_npc_lib.h</text>
</a>
</g>
</g>
<!-- Node17&#45;&gt;Node43 -->
<g id="edge22" class="edge">
<title>Node17&#45;&gt;Node43</title>
<path fill="none" stroke="#63b8ff" d="M2334.7,-156.21C2128.9,-153.42 1506.42,-142.21 1307.5,-107 1294.5,-104.7 1280.43,-100.43 1268.99,-96.47"/>
<polygon fill="#63b8ff" stroke="#63b8ff" points="2334.65,-159.71 2344.7,-156.34 2334.74,-152.71 2334.65,-159.71"/>
</g>
<!-- Node45 -->
<g id="node24" class="node">
<title>Node45</title>
<g id="a_node24"><a xlink:href="d__file__select_8h.html" target="_top" xlink:title=" ">
<polygon fill="#fff0f0" stroke="red" points="1799.5,-101.5 1703.5,-101.5 1703.5,-71.5 1799.5,-71.5 1799.5,-101.5"/>
<text text-anchor="start" x="1711.5" y="-89.5" font-family="Helvetica,sans-Serif" font-size="10.00">include/d/file/d_file</text>
<text text-anchor="middle" x="1751.5" y="-78.5" font-family="Helvetica,sans-Serif" font-size="10.00">_select.h</text>
</a>
</g>
</g>
<!-- Node17&#45;&gt;Node45 -->
<g id="edge24" class="edge">
<title>Node17&#45;&gt;Node45</title>
<path fill="none" stroke="#63b8ff" d="M2334.78,-156.68C2224.2,-154.97 1996.49,-146.45 1808.5,-107 1802.26,-105.69 1795.75,-103.9 1789.46,-101.93"/>
<polygon fill="#63b8ff" stroke="#63b8ff" points="2334.51,-160.18 2344.56,-156.82 2334.61,-153.18 2334.51,-160.18"/>
</g>
<!-- Node47 -->
<g id="node25" class="node">
<title>Node47</title>
<g id="a_node25"><a xlink:href="d__menu__ring_8h.html" target="_top" xlink:title=" ">
<polygon fill="#fff0f0" stroke="red" points="1937.5,-101.5 1817.5,-101.5 1817.5,-71.5 1937.5,-71.5 1937.5,-101.5"/>
<text text-anchor="start" x="1825.5" y="-89.5" font-family="Helvetica,sans-Serif" font-size="10.00">include/d/menu/d_menu</text>
<text text-anchor="middle" x="1877.5" y="-78.5" font-family="Helvetica,sans-Serif" font-size="10.00">_ring.h</text>
</a>
</g>
</g>
<!-- Node17&#45;&gt;Node47 -->
<g id="edge25" class="edge">
<title>Node17&#45;&gt;Node47</title>
<path fill="none" stroke="#63b8ff" d="M2334.78,-153.15C2245.64,-147.21 2083.06,-133.61 1946.5,-107 1939.41,-105.62 1932,-103.86 1924.76,-101.97"/>
<polygon fill="#63b8ff" stroke="#63b8ff" points="2334.36,-156.63 2344.56,-153.79 2334.81,-149.64 2334.36,-156.63"/>
</g>
<!-- Node49 -->
<g id="node26" class="node">
<title>Node49</title>
<g id="a_node26"><a xlink:href="d__msg__object_8h.html" target="_top" xlink:title=" ">
<polygon fill="#fff0f0" stroke="red" points="344.5,-101.5 234.5,-101.5 234.5,-71.5 344.5,-71.5 344.5,-101.5"/>
<text text-anchor="start" x="242.5" y="-89.5" font-family="Helvetica,sans-Serif" font-size="10.00">include/d/msg/d_msg</text>
<text text-anchor="middle" x="289.5" y="-78.5" font-family="Helvetica,sans-Serif" font-size="10.00">_object.h</text>
</a>
</g>
</g>
<!-- Node17&#45;&gt;Node49 -->
<g id="edge27" class="edge">
<title>Node17&#45;&gt;Node49</title>
<path fill="none" stroke="#63b8ff" d="M2334.92,-156.45C2004.91,-153.56 552.48,-139.13 353.5,-107 346.16,-105.82 338.49,-104 331.12,-101.95"/>
<polygon fill="#63b8ff" stroke="#63b8ff" points="2334.64,-159.94 2344.67,-156.53 2334.7,-152.95 2334.64,-159.94"/>
</g>
<!-- Node68 -->
<g id="node27" class="node">
<title>Node68</title>
<g id="a_node27"><a xlink:href="d__a__andsw_8h.html" target="_top" xlink:title=" ">
<polygon fill="white" stroke="#666666" points="2065.5,-101.5 1955.5,-101.5 1955.5,-71.5 2065.5,-71.5 2065.5,-101.5"/>
<text text-anchor="start" x="1963.5" y="-89.5" font-family="Helvetica,sans-Serif" font-size="10.00">include/rel/d/a/d_a</text>
<text text-anchor="middle" x="2010.5" y="-78.5" font-family="Helvetica,sans-Serif" font-size="10.00">_andsw/d_a_andsw.h</text>
</a>
</g>
</g>
<!-- Node17&#45;&gt;Node68 -->
<g id="edge32" class="edge">
<title>Node17&#45;&gt;Node68</title>
<path fill="none" stroke="#63b8ff" d="M2334.94,-149.67C2268.49,-141.69 2163.7,-127.3 2074.5,-107 2068.16,-105.56 2061.53,-103.81 2055.04,-101.97"/>
<polygon fill="#63b8ff" stroke="#63b8ff" points="2334.23,-153.11 2344.58,-150.82 2335.06,-146.16 2334.23,-153.11"/>
</g>
<!-- Node69 -->
<g id="node28" class="node">
<title>Node69</title>
<g id="a_node28"><a xlink:href="d__a__cstaF_8h.html" target="_top" xlink:title=" ">
<polygon fill="white" stroke="#666666" points="2187,-101.5 2084,-101.5 2084,-71.5 2187,-71.5 2187,-101.5"/>
<text text-anchor="start" x="2092" y="-89.5" font-family="Helvetica,sans-Serif" font-size="10.00">include/rel/d/a/d_a</text>
<text text-anchor="middle" x="2135.5" y="-78.5" font-family="Helvetica,sans-Serif" font-size="10.00">_cstaF/d_a_cstaF.h</text>
</a>
</g>
</g>
<!-- Node17&#45;&gt;Node69 -->
<g id="edge33" class="edge">
<title>Node17&#45;&gt;Node69</title>
<path fill="none" stroke="#63b8ff" d="M2335.38,-142.11C2295.06,-132.73 2242.59,-119.97 2196.5,-107 2190.93,-105.43 2185.11,-103.7 2179.37,-101.93"/>
<polygon fill="#63b8ff" stroke="#63b8ff" points="2334.4,-145.48 2344.94,-144.33 2335.98,-138.66 2334.4,-145.48"/>
</g>
<!-- Node70 -->
<g id="node29" class="node">
<title>Node70</title>
<g id="a_node29"><a xlink:href="d__a__dmidna_8h.html" target="_top" xlink:title=" ">
<polygon fill="white" stroke="#666666" points="2321.5,-101.5 2205.5,-101.5 2205.5,-71.5 2321.5,-71.5 2321.5,-101.5"/>
<text text-anchor="start" x="2213.5" y="-89.5" font-family="Helvetica,sans-Serif" font-size="10.00">include/rel/d/a/d_a</text>
<text text-anchor="middle" x="2263.5" y="-78.5" font-family="Helvetica,sans-Serif" font-size="10.00">_dmidna/d_a_dmidna.h</text>
</a>
</g>
</g>
<!-- Node17&#45;&gt;Node70 -->
<g id="edge34" class="edge">
<title>Node17&#45;&gt;Node70</title>
<path fill="none" stroke="#63b8ff" d="M2362.69,-137.46C2340.25,-126.15 2312.49,-112.17 2292.06,-101.88"/>
<polygon fill="#63b8ff" stroke="#63b8ff" points="2361.05,-140.55 2371.55,-141.92 2364.2,-134.29 2361.05,-140.55"/>
</g>
<!-- Node71 -->
<g id="node30" class="node">
<title>Node71</title>
<g id="a_node30"><a xlink:href="d__a__dshutter_8h.html" target="_top" xlink:title=" ">
<polygon fill="#fff0f0" stroke="red" points="2463.5,-101.5 2339.5,-101.5 2339.5,-71.5 2463.5,-71.5 2463.5,-101.5"/>
<text text-anchor="start" x="2347.5" y="-89.5" font-family="Helvetica,sans-Serif" font-size="10.00">include/rel/d/a/d_a</text>
<text text-anchor="middle" x="2401.5" y="-78.5" font-family="Helvetica,sans-Serif" font-size="10.00">_dshutter/d_a_dshutter.h</text>
</a>
</g>
</g>
<!-- Node17&#45;&gt;Node71 -->
<g id="edge35" class="edge">
<title>Node17&#45;&gt;Node71</title>
<path fill="none" stroke="#63b8ff" d="M2401.5,-131.26C2401.5,-121.33 2401.5,-110.36 2401.5,-101.88"/>
<polygon fill="#63b8ff" stroke="#63b8ff" points="2398,-131.09 2401.5,-141.09 2405,-131.09 2398,-131.09"/>
</g>
<!-- Node73 -->
<g id="node31" class="node">
<title>Node73</title>
<g id="a_node31"><a xlink:href="d__a__guard__mng_8h.html" target="_top" xlink:title=" ">
<polygon fill="white" stroke="#666666" points="2631,-101.5 2482,-101.5 2482,-71.5 2631,-71.5 2631,-101.5"/>
<text text-anchor="start" x="2490" y="-89.5" font-family="Helvetica,sans-Serif" font-size="10.00">include/rel/d/a/d_a</text>
<text text-anchor="middle" x="2556.5" y="-78.5" font-family="Helvetica,sans-Serif" font-size="10.00">_guard_mng/d_a_guard_mng.h</text>
</a>
</g>
</g>
<!-- Node17&#45;&gt;Node73 -->
<g id="edge36" class="edge">
<title>Node17&#45;&gt;Node73</title>
<path fill="none" stroke="#63b8ff" d="M2444.07,-137.91C2469.45,-126.53 2501.16,-112.31 2524.43,-101.88"/>
<polygon fill="#63b8ff" stroke="#63b8ff" points="2442.69,-134.7 2435,-141.98 2445.55,-141.08 2442.69,-134.7"/>
</g>
<!-- Node74 -->
<g id="node32" class="node">
<title>Node74</title>
<g id="a_node32"><a xlink:href="d__a__hitobj_8h.html" target="_top" xlink:title=" ">
<polygon fill="white" stroke="#666666" points="2749.5,-101.5 2649.5,-101.5 2649.5,-71.5 2749.5,-71.5 2749.5,-101.5"/>
<text text-anchor="start" x="2657.5" y="-89.5" font-family="Helvetica,sans-Serif" font-size="10.00">include/rel/d/a/d_a</text>
<text text-anchor="middle" x="2699.5" y="-78.5" font-family="Helvetica,sans-Serif" font-size="10.00">_hitobj/d_a_hitobj.h</text>
</a>
</g>
</g>
<!-- Node17&#45;&gt;Node74 -->
<g id="edge37" class="edge">
<title>Node17&#45;&gt;Node74</title>
<path fill="none" stroke="#63b8ff" d="M2467.9,-145.03C2515.89,-135.9 2582.09,-122.31 2639.5,-107 2645.21,-105.48 2651.19,-103.73 2657.06,-101.92"/>
<polygon fill="#63b8ff" stroke="#63b8ff" points="2467.39,-141.56 2458.21,-146.86 2468.68,-148.44 2467.39,-141.56"/>
</g>
<!-- Node75 -->
<g id="node33" class="node">
<title>Node75</title>
<g id="a_node33"><a xlink:href="d__a__izumi__gate_8h.html" target="_top" xlink:title=" ">
<polygon fill="white" stroke="#666666" points="2883,-107 2768,-107 2768,-66 2883,-66 2883,-107"/>
<text text-anchor="start" x="2776" y="-95" font-family="Helvetica,sans-Serif" font-size="10.00">include/rel/d/a/d_a</text>
<text text-anchor="start" x="2776" y="-84" font-family="Helvetica,sans-Serif" font-size="10.00">_izumi_gate/d_a_izumi</text>
<text text-anchor="middle" x="2825.5" y="-73" font-family="Helvetica,sans-Serif" font-size="10.00">_gate.h</text>
</a>
</g>
</g>
<!-- Node17&#45;&gt;Node75 -->
<g id="edge38" class="edge">
<title>Node17&#45;&gt;Node75</title>
<path fill="none" stroke="#63b8ff" d="M2468.14,-150.57C2540.23,-142.94 2658.3,-128.48 2758.5,-107 2761.46,-106.37 2764.48,-105.67 2767.53,-104.93"/>
<polygon fill="#63b8ff" stroke="#63b8ff" points="2468.06,-147.06 2458.48,-151.58 2468.79,-154.02 2468.06,-147.06"/>
</g>
<!-- Node76 -->
<g id="node34" class="node">
<title>Node76</title>
<g id="a_node34"><a xlink:href="d__a__set__bgobj_8h.html" target="_top" xlink:title=" ">
<polygon fill="#fff0f0" stroke="red" points="3038,-101.5 2901,-101.5 2901,-71.5 3038,-71.5 3038,-101.5"/>
<text text-anchor="start" x="2909" y="-89.5" font-family="Helvetica,sans-Serif" font-size="10.00">include/rel/d/a/d_a</text>
<text text-anchor="middle" x="2969.5" y="-78.5" font-family="Helvetica,sans-Serif" font-size="10.00">_set_bgobj/d_a_set_bgobj.h</text>
</a>
</g>
</g>
<!-- Node17&#45;&gt;Node76 -->
<g id="edge39" class="edge">
<title>Node17&#45;&gt;Node76</title>
<path fill="none" stroke="#63b8ff" d="M2468.37,-153.22C2563.1,-147.18 2741.51,-133.26 2891.5,-107 2899.47,-105.6 2907.84,-103.84 2916.01,-101.94"/>
<polygon fill="#63b8ff" stroke="#63b8ff" points="2468.24,-149.72 2458.48,-153.84 2468.68,-156.71 2468.24,-149.72"/>
</g>
<!-- Node77 -->
<g id="node35" class="node">
<title>Node77</title>
<g id="a_node35"><a xlink:href="d__a__skip__2D_8h.html" target="_top" xlink:title=" ">
<polygon fill="white" stroke="#666666" points="3180.5,-101.5 3056.5,-101.5 3056.5,-71.5 3180.5,-71.5 3180.5,-101.5"/>
<text text-anchor="start" x="3064.5" y="-89.5" font-family="Helvetica,sans-Serif" font-size="10.00">include/rel/d/a/d_a</text>
<text text-anchor="middle" x="3118.5" y="-78.5" font-family="Helvetica,sans-Serif" font-size="10.00">_skip_2D/d_a_skip_2D.h</text>
</a>
</g>
</g>
<!-- Node17&#45;&gt;Node77 -->
<g id="edge40" class="edge">
<title>Node17&#45;&gt;Node77</title>
<path fill="none" stroke="#63b8ff" d="M2468.01,-155.94C2585.56,-153.15 2837.36,-143.1 3046.5,-107 3054.16,-105.68 3062.18,-103.91 3069.98,-101.96"/>
<polygon fill="#63b8ff" stroke="#63b8ff" points="2468.15,-152.43 2458.23,-156.16 2468.31,-159.43 2468.15,-152.43"/>
</g>
<!-- Node78 -->
<g id="node36" class="node">
<title>Node78</title>
<g id="a_node36"><a xlink:href="d__a__spinner_8h.html" target="_top" xlink:title=" ">
<polygon fill="#fff0f0" stroke="red" points="612.5,-101.5 496.5,-101.5 496.5,-71.5 612.5,-71.5 612.5,-101.5"/>
<text text-anchor="start" x="504.5" y="-89.5" font-family="Helvetica,sans-Serif" font-size="10.00">include/rel/d/a/d_a</text>
<text text-anchor="middle" x="554.5" y="-78.5" font-family="Helvetica,sans-Serif" font-size="10.00">_spinner/d_a_spinner.h</text>
</a>
</g>
</g>
<!-- Node17&#45;&gt;Node78 -->
<g id="edge41" class="edge">
<title>Node17&#45;&gt;Node78</title>
<path fill="none" stroke="#63b8ff" d="M2335.18,-157.4C2054.23,-158.73 961.14,-160.3 621.5,-107 613.84,-105.8 605.82,-103.98 598.11,-101.92"/>
<polygon fill="#63b8ff" stroke="#63b8ff" points="2334.89,-160.9 2344.87,-157.35 2334.85,-153.9 2334.89,-160.9"/>
</g>
<!-- Node80 -->
<g id="node37" class="node">
<title>Node80</title>
<g id="a_node37"><a xlink:href="d__a__swTime_8h.html" target="_top" xlink:title=" ">
<polygon fill="white" stroke="#666666" points="3320.5,-101.5 3198.5,-101.5 3198.5,-71.5 3320.5,-71.5 3320.5,-101.5"/>
<text text-anchor="start" x="3206.5" y="-89.5" font-family="Helvetica,sans-Serif" font-size="10.00">include/rel/d/a/d_a</text>
<text text-anchor="middle" x="3259.5" y="-78.5" font-family="Helvetica,sans-Serif" font-size="10.00">_swTime/d_a_swTime.h</text>
</a>
</g>
</g>
<!-- Node17&#45;&gt;Node80 -->
<g id="edge44" class="edge">
<title>Node17&#45;&gt;Node80</title>
<path fill="none" stroke="#63b8ff" d="M2468.35,-157.43C2604.88,-157.28 2925.19,-151.7 3189.5,-107 3197.09,-105.72 3205.03,-103.94 3212.74,-101.97"/>
<polygon fill="#63b8ff" stroke="#63b8ff" points="2468.4,-153.93 2458.4,-157.43 2468.4,-160.93 2468.4,-153.93"/>
</g>
<!-- Node81 -->
<g id="node38" class="node">
<title>Node81</title>
<g id="a_node38"><a xlink:href="d__a__vrbox_8h.html" target="_top" xlink:title=" ">
<polygon fill="white" stroke="#666666" points="3438.5,-101.5 3338.5,-101.5 3338.5,-71.5 3438.5,-71.5 3438.5,-101.5"/>
<text text-anchor="start" x="3346.5" y="-89.5" font-family="Helvetica,sans-Serif" font-size="10.00">include/rel/d/a/d_a</text>
<text text-anchor="middle" x="3388.5" y="-78.5" font-family="Helvetica,sans-Serif" font-size="10.00">_vrbox/d_a_vrbox.h</text>
</a>
</g>
</g>
<!-- Node17&#45;&gt;Node81 -->
<g id="edge45" class="edge">
<title>Node17&#45;&gt;Node81</title>
<path fill="none" stroke="#63b8ff" d="M2468.35,-155.7C2652.45,-151.75 3164.19,-138.2 3329.5,-107 3336.07,-105.76 3342.92,-103.98 3349.53,-101.99"/>
<polygon fill="#63b8ff" stroke="#63b8ff" points="2468.4,-152.2 2458.47,-155.91 2468.54,-159.19 2468.4,-152.2"/>
</g>
<!-- Node82 -->
<g id="node39" class="node">
<title>Node82</title>
<g id="a_node39"><a xlink:href="d__a__e__db__leaf_8h.html" target="_top" xlink:title=" ">
<polygon fill="white" stroke="#666666" points="3576,-107 3457,-107 3457,-66 3576,-66 3576,-107"/>
<text text-anchor="start" x="3465" y="-95" font-family="Helvetica,sans-Serif" font-size="10.00">include/rel/d/a/e/d</text>
<text text-anchor="start" x="3465" y="-84" font-family="Helvetica,sans-Serif" font-size="10.00">_a_e_db_leaf/d_a_e_db</text>
<text text-anchor="middle" x="3516.5" y="-73" font-family="Helvetica,sans-Serif" font-size="10.00">_leaf.h</text>
</a>
</g>
</g>
<!-- Node17&#45;&gt;Node82 -->
<g id="edge46" class="edge">
<title>Node17&#45;&gt;Node82</title>
<path fill="none" stroke="#63b8ff" d="M2468.37,-155.79C2668.06,-151.87 3257.82,-137.92 3447.5,-107 3450.57,-106.5 3453.7,-105.91 3456.85,-105.26"/>
<polygon fill="#63b8ff" stroke="#63b8ff" points="2468.36,-152.29 2458.42,-155.99 2468.49,-159.29 2468.36,-152.29"/>
</g>
<!-- Node83 -->
<g id="node40" class="node">
<title>Node83</title>
<g id="a_node40"><a xlink:href="d__a__kytag02_8h.html" target="_top" xlink:title=" ">
<polygon fill="white" stroke="#666666" points="3734.5,-101.5 3594.5,-101.5 3594.5,-71.5 3734.5,-71.5 3734.5,-101.5"/>
<text text-anchor="start" x="3602.5" y="-89.5" font-family="Helvetica,sans-Serif" font-size="10.00">include/rel/d/a/kytag</text>
<text text-anchor="middle" x="3664.5" y="-78.5" font-family="Helvetica,sans-Serif" font-size="10.00">/d_a_kytag02/d_a_kytag02.h</text>
</a>
</g>
</g>
<!-- Node17&#45;&gt;Node83 -->
<g id="edge47" class="edge">
<title>Node17&#45;&gt;Node83</title>
<path fill="none" stroke="#63b8ff" d="M2468.43,-155.9C2685.2,-152.08 3366.53,-137.86 3584.5,-107 3593.28,-105.76 3602.49,-103.97 3611.42,-101.98"/>
<polygon fill="#63b8ff" stroke="#63b8ff" points="2468.4,-152.4 2458.46,-156.08 2468.52,-159.4 2468.4,-152.4"/>
</g>
<!-- Node84 -->
<g id="node41" class="node">
<title>Node84</title>
<g id="a_node41"><a xlink:href="d__a__obj__bombf_8h.html" target="_top" xlink:title=" ">
<polygon fill="white" stroke="#666666" points="3874.5,-107 3752.5,-107 3752.5,-66 3874.5,-66 3874.5,-107"/>
<text text-anchor="start" x="3760.5" y="-95" font-family="Helvetica,sans-Serif" font-size="10.00">include/rel/d/a/obj</text>
<text text-anchor="start" x="3760.5" y="-84" font-family="Helvetica,sans-Serif" font-size="10.00">/d_a_obj_bombf/d_a_obj</text>
<text text-anchor="middle" x="3813.5" y="-73" font-family="Helvetica,sans-Serif" font-size="10.00">_bombf.h</text>
</a>
</g>
</g>
<!-- Node17&#45;&gt;Node84 -->
<g id="edge48" class="edge">
<title>Node17&#45;&gt;Node84</title>
<path fill="none" stroke="#63b8ff" d="M2468.17,-156.58C2703.36,-154.78 3493.59,-145.91 3743.5,-107 3746.37,-106.55 3749.28,-106.03 3752.22,-105.45"/>
<polygon fill="#63b8ff" stroke="#63b8ff" points="2468.22,-153.08 2458.25,-156.65 2468.28,-160.08 2468.22,-153.08"/>
</g>
<!-- Node85 -->
<g id="node42" class="node">
<title>Node85</title>
<g id="a_node42"><a xlink:href="d__a__obj__carry_8h.html" target="_top" xlink:title=" ">
<polygon fill="#fff0f0" stroke="red" points="478.5,-107 362.5,-107 362.5,-66 478.5,-66 478.5,-107"/>
<text text-anchor="start" x="370.5" y="-95" font-family="Helvetica,sans-Serif" font-size="10.00">include/rel/d/a/obj</text>
<text text-anchor="start" x="370.5" y="-84" font-family="Helvetica,sans-Serif" font-size="10.00">/d_a_obj_carry/d_a_obj</text>
<text text-anchor="middle" x="420.5" y="-73" font-family="Helvetica,sans-Serif" font-size="10.00">_carry.h</text>
</a>
</g>
</g>
<!-- Node17&#45;&gt;Node85 -->
<g id="edge49" class="edge">
<title>Node17&#45;&gt;Node85</title>
<path fill="none" stroke="#63b8ff" d="M2335.24,-156.28C2019.23,-152.71 672.83,-135.9 487.5,-107 484.63,-106.55 481.7,-106.02 478.77,-105.41"/>
<polygon fill="#63b8ff" stroke="#63b8ff" points="2334.93,-159.78 2344.97,-156.39 2335.01,-152.78 2334.93,-159.78"/>
</g>
<!-- Node87 -->
<g id="node43" class="node">
<title>Node87</title>
<g id="a_node43"><a xlink:href="d__a__obj__cboard_8h.html" target="_top" xlink:title=" ">
<polygon fill="white" stroke="#666666" points="4000,-107 3893,-107 3893,-66 4000,-66 4000,-107"/>
<text text-anchor="start" x="3901" y="-95" font-family="Helvetica,sans-Serif" font-size="10.00">include/rel/d/a/obj</text>
<text text-anchor="start" x="3901" y="-84" font-family="Helvetica,sans-Serif" font-size="10.00">/d_a_obj_cboard/d_a</text>
<text text-anchor="middle" x="3946.5" y="-73" font-family="Helvetica,sans-Serif" font-size="10.00">_obj_cboard.h</text>
</a>
</g>
</g>
<!-- Node17&#45;&gt;Node87 -->
<g id="edge51" class="edge">
<title>Node17&#45;&gt;Node87</title>
<path fill="none" stroke="#63b8ff" d="M2468.35,-157.1C2719.39,-157.13 3605.65,-153.82 3883.5,-107 3886.55,-106.49 3889.65,-105.86 3892.77,-105.16"/>
<polygon fill="#63b8ff" stroke="#63b8ff" points="2468.39,-153.6 2458.39,-157.1 2468.39,-160.6 2468.39,-153.6"/>
</g>
<!-- Node88 -->
<g id="node44" class="node">
<title>Node88</title>
<g id="a_node44"><a xlink:href="d__a__obj__cowdoor_8h.html" target="_top" xlink:title=" ">
<polygon fill="white" stroke="#666666" points="4132.5,-107 4018.5,-107 4018.5,-66 4132.5,-66 4132.5,-107"/>
<text text-anchor="start" x="4026.5" y="-95" font-family="Helvetica,sans-Serif" font-size="10.00">include/rel/d/a/obj</text>
<text text-anchor="start" x="4026.5" y="-84" font-family="Helvetica,sans-Serif" font-size="10.00">/d_a_obj_cowdoor/d_a</text>
<text text-anchor="middle" x="4075.5" y="-73" font-family="Helvetica,sans-Serif" font-size="10.00">_obj_cowdoor.h</text>
</a>
</g>
</g>
<!-- Node17&#45;&gt;Node88 -->
<g id="edge52" class="edge">
<title>Node17&#45;&gt;Node88</title>
<path fill="none" stroke="#63b8ff" d="M2468.2,-157.16C2732.23,-157.45 3704.59,-155.16 4008.5,-107 4011.73,-106.49 4015.03,-105.87 4018.33,-105.17"/>
<polygon fill="#63b8ff" stroke="#63b8ff" points="2468.42,-153.66 2458.41,-157.15 2468.41,-160.66 2468.42,-153.66"/>
</g>
<!-- Node89 -->
<g id="node45" class="node">
<title>Node89</title>
<g id="a_node45"><a xlink:href="d__a__obj__digholl_8h.html" target="_top" xlink:title=" ">
<polygon fill="white" stroke="#666666" points="4256,-107 4151,-107 4151,-66 4256,-66 4256,-107"/>
<text text-anchor="start" x="4159" y="-95" font-family="Helvetica,sans-Serif" font-size="10.00">include/rel/d/a/obj</text>
<text text-anchor="start" x="4159" y="-84" font-family="Helvetica,sans-Serif" font-size="10.00">/d_a_obj_digholl/d_a</text>
<text text-anchor="middle" x="4203.5" y="-73" font-family="Helvetica,sans-Serif" font-size="10.00">_obj_digholl.h</text>
</a>
</g>
</g>
<!-- Node17&#45;&gt;Node89 -->
<g id="edge53" class="edge">
<title>Node17&#45;&gt;Node89</title>
<path fill="none" stroke="#63b8ff" d="M2468.41,-156.17C2767.51,-152.3 3974.6,-135.09 4141.5,-107 4144.5,-106.49 4147.56,-105.88 4150.64,-105.18"/>
<polygon fill="#63b8ff" stroke="#63b8ff" points="2468.38,-152.67 2458.43,-156.3 2468.47,-159.67 2468.38,-152.67"/>
</g>
<!-- Node90 -->
<g id="node46" class="node">
<title>Node90</title>
<g id="a_node46"><a xlink:href="d__a__obj__enemy__create_8h.html" target="_top" xlink:title=" ">
<polygon fill="white" stroke="#666666" points="4401,-107 4274,-107 4274,-66 4401,-66 4401,-107"/>
<text text-anchor="start" x="4282" y="-95" font-family="Helvetica,sans-Serif" font-size="10.00">include/rel/d/a/obj</text>
<text text-anchor="start" x="4282" y="-84" font-family="Helvetica,sans-Serif" font-size="10.00">/d_a_obj_enemy_create</text>
<text text-anchor="middle" x="4337.5" y="-73" font-family="Helvetica,sans-Serif" font-size="10.00">/d_a_obj_enemy_create.h</text>
</a>
</g>
</g>
<!-- Node17&#45;&gt;Node90 -->
<g id="edge54" class="edge">
<title>Node17&#45;&gt;Node90</title>
<path fill="none" stroke="#63b8ff" d="M2468.03,-157.3C2757.32,-158.28 3907.24,-158.78 4264.5,-107 4267.49,-106.57 4270.52,-106.05 4273.58,-105.48"/>
<polygon fill="#63b8ff" stroke="#63b8ff" points="2468.43,-153.8 2458.42,-157.27 2468.4,-160.8 2468.43,-153.8"/>
</g>
<!-- Node91 -->
<g id="node47" class="node">
<title>Node91</title>
<g id="a_node47"><a xlink:href="d__a__obj__kjgjs_8h.html" target="_top" xlink:title=" ">
<polygon fill="white" stroke="#666666" points="4535.5,-107 4419.5,-107 4419.5,-66 4535.5,-66 4535.5,-107"/>
<text text-anchor="start" x="4427.5" y="-95" font-family="Helvetica,sans-Serif" font-size="10.00">include/rel/d/a/obj</text>
<text text-anchor="start" x="4427.5" y="-84" font-family="Helvetica,sans-Serif" font-size="10.00">/d_a_obj_kjgjs/d_a_obj</text>
<text text-anchor="middle" x="4477.5" y="-73" font-family="Helvetica,sans-Serif" font-size="10.00">_kjgjs.h</text>
</a>
</g>
</g>
<!-- Node17&#45;&gt;Node91 -->
<g id="edge55" class="edge">
<title>Node17&#45;&gt;Node91</title>
<path fill="none" stroke="#63b8ff" d="M2467.83,-156.35C2793.39,-153.03 4214.37,-136.91 4409.5,-107 4412.66,-106.52 4415.87,-105.93 4419.1,-105.27"/>
<polygon fill="#63b8ff" stroke="#63b8ff" points="2468.19,-152.85 2458.23,-156.45 2468.26,-159.85 2468.19,-152.85"/>
</g>
<!-- Node92 -->
<g id="node48" class="node">
<title>Node92</title>
<g id="a_node48"><a xlink:href="d__a__obj__mgate_8h.html" target="_top" xlink:title=" ">
<polygon fill="white" stroke="#666666" points="4675.5,-107 4553.5,-107 4553.5,-66 4675.5,-66 4675.5,-107"/>
<text text-anchor="start" x="4561.5" y="-95" font-family="Helvetica,sans-Serif" font-size="10.00">include/rel/d/a/obj</text>
<text text-anchor="start" x="4561.5" y="-84" font-family="Helvetica,sans-Serif" font-size="10.00">/d_a_obj_mgate/d_a_obj</text>
<text text-anchor="middle" x="4614.5" y="-73" font-family="Helvetica,sans-Serif" font-size="10.00">_mgate.h</text>
</a>
</g>
</g>
<!-- Node17&#45;&gt;Node92 -->
<g id="edge56" class="edge">
<title>Node17&#45;&gt;Node92</title>
<path fill="none" stroke="#63b8ff" d="M2468.1,-156.43C2807.35,-153.39 4335.27,-138.09 4544.5,-107 4547.37,-106.57 4550.29,-106.07 4553.23,-105.5"/>
<polygon fill="#63b8ff" stroke="#63b8ff" points="2468.26,-152.93 2458.29,-156.52 2468.32,-159.93 2468.26,-152.93"/>
</g>
<!-- Node17&#45;&gt;Node182 -->
<g id="edge59" class="edge">
<title>Node17&#45;&gt;Node182</title>
<path fill="none" stroke="#63b8ff" d="M2468.14,-156.44C2820.64,-153.35 4460.31,-137.44 4684.5,-107 4700.62,-104.81 4718.24,-100.5 4732.55,-96.48"/>
<polygon fill="#63b8ff" stroke="#63b8ff" points="2468.35,-152.94 2458.38,-156.52 2468.41,-159.94 2468.35,-152.94"/>
</g>
<!-- Node43&#45;&gt;Node26 -->
<g id="edge23" class="edge">
<title>Node43&#45;&gt;Node26</title>
<path fill="none" stroke="#63b8ff" d="M1234.49,-66.83C1227.71,-55.34 1219.16,-40.84 1212.92,-30.27"/>
<polygon fill="#63b8ff" stroke="#63b8ff" points="1231.44,-68.56 1239.54,-75.39 1237.47,-65 1231.44,-68.56"/>
</g>
<!-- Node47&#45;&gt;Node8 -->
<g id="edge26" class="edge">
<title>Node47&#45;&gt;Node8</title>
<path fill="none" stroke="#63b8ff" d="M1816.41,-68.06C1813.74,-67.35 1811.09,-66.66 1808.5,-66 1747.56,-50.41 1676.45,-34.53 1632.44,-24.97"/>
<polygon fill="#63b8ff" stroke="#63b8ff" points="1815.43,-71.42 1826,-70.65 1817.25,-64.66 1815.43,-71.42"/>
</g>
<!-- Node49&#45;&gt;Node3 -->
<g id="edge28" class="edge">
<title>Node49&#45;&gt;Node3</title>
<path fill="none" stroke="#63b8ff" d="M338.39,-67.03C374.36,-53.45 421.69,-35.57 449.73,-24.98"/>
<polygon fill="#63b8ff" stroke="#63b8ff" points="337.16,-63.76 329.04,-70.56 339.63,-70.31 337.16,-63.76"/>
</g>
<!-- Node49&#45;&gt;Node7 -->
<g id="edge29" class="edge">
<title>Node49&#45;&gt;Node7</title>
<path fill="none" stroke="#63b8ff" d="M230.96,-67.73C185.9,-54.06 125.49,-35.73 90.01,-24.96"/>
<polygon fill="#63b8ff" stroke="#63b8ff" points="229.74,-71.02 240.32,-70.58 231.77,-64.32 229.74,-71.02"/>
</g>
<!-- Node49&#45;&gt;Node9 -->
<g id="edge30" class="edge">
<title>Node49&#45;&gt;Node9</title>
<path fill="none" stroke="#63b8ff" d="M260.88,-64.56C245.79,-53.52 227.66,-40.26 214.16,-30.38"/>
<polygon fill="#63b8ff" stroke="#63b8ff" points="258.46,-67.13 268.59,-70.21 262.59,-61.48 258.46,-67.13"/>
</g>
<!-- Node49&#45;&gt;Node10 -->
<g id="edge31" class="edge">
<title>Node49&#45;&gt;Node10</title>
<path fill="none" stroke="#63b8ff" d="M305.05,-61.49C313.3,-48.74 322.94,-33.86 328.88,-24.68"/>
<polygon fill="#63b8ff" stroke="#63b8ff" points="302.14,-59.53 299.65,-69.83 308.02,-63.34 302.14,-59.53"/>
</g>
<!-- Node78&#45;&gt;Node3 -->
<g id="edge42" class="edge">
<title>Node78&#45;&gt;Node3</title>
<path fill="none" stroke="#63b8ff" d="M529.13,-63.73C513.74,-50.53 494.95,-34.4 483.62,-24.68"/>
<polygon fill="#63b8ff" stroke="#63b8ff" points="526.7,-66.26 536.57,-70.11 531.26,-60.95 526.7,-66.26"/>
</g>
<!-- Node78&#45;&gt;Node4 -->
<g id="edge43" class="edge">
<title>Node78&#45;&gt;Node4</title>
<path fill="none" stroke="#63b8ff" d="M571.16,-61.86C580.21,-49.03 590.85,-33.95 597.38,-24.68"/>
<polygon fill="#63b8ff" stroke="#63b8ff" points="568.43,-59.67 565.52,-69.86 574.15,-63.71 568.43,-59.67"/>
</g>
<!-- Node85&#45;&gt;Node3 -->
<g id="edge50" class="edge">
<title>Node85&#45;&gt;Node3</title>
<path fill="none" stroke="#63b8ff" d="M442.36,-56.84C451.13,-45.33 460.61,-32.9 466.77,-24.82"/>
<polygon fill="#63b8ff" stroke="#63b8ff" points="439.74,-54.49 436.46,-64.57 445.31,-58.74 439.74,-54.49"/>
</g>
</g>
</svg>
