<?xml version="1.0" encoding="UTF-8" standalone="no"?>
<!DOCTYPE svg PUBLIC "-//W3C//DTD SVG 1.1//EN"
 "http://www.w3.org/Graphics/SVG/1.1/DTD/svg11.dtd">
<!-- Generated by graphviz version 7.0.5 (20221223.1930)
 -->
<!-- Title: include/d/particle/d_particle.h Pages: 1 -->
<svg width="5010pt" height="313pt"
 viewBox="0.00 0.00 5010.31 313.00" xmlns="http://www.w3.org/2000/svg" xmlns:xlink="http://www.w3.org/1999/xlink">
<g id="graph0" class="graph" transform="scale(1 1) rotate(0) translate(4 309)">
<title>include/d/particle/d_particle.h</title>
<!-- Node1 -->
<g id="node1" class="node">
<title>Node1</title>
<g id="a_node1"><a xlink:title=" ">
<polygon fill="#999999" stroke="#666666" points="2829.31,-305 2739.31,-305 2739.31,-275 2829.31,-275 2829.31,-305"/>
<text text-anchor="start" x="2747.31" y="-293" font-family="Helvetica,sans-Serif" font-size="10.00">include/d/particle</text>
<text text-anchor="middle" x="2784.31" y="-282" font-family="Helvetica,sans-Serif" font-size="10.00">/d_particle.h</text>
</a>
</g>
</g>
<!-- Node2 -->
<g id="node2" class="node">
<title>Node2</title>
<g id="a_node2"><a xlink:href="d__a__alink_8h.html" target="_top" xlink:title=" ">
<polygon fill="white" stroke="#666666" points="2677.31,-233.5 2561.31,-233.5 2561.31,-214.5 2677.31,-214.5 2677.31,-233.5"/>
<text text-anchor="middle" x="2619.31" y="-221.5" font-family="Helvetica,sans-Serif" font-size="10.00">include/d/a/d_a_alink.h</text>
</a>
</g>
</g>
<!-- Node1&#45;&gt;Node2 -->
<g id="edge1" class="edge">
<title>Node1&#45;&gt;Node2</title>
<path fill="none" stroke="#63b8ff" d="M2736.71,-270.54C2705.77,-258.54 2666.81,-243.43 2642.47,-233.99"/>
<polygon fill="#63b8ff" stroke="#63b8ff" points="2735.28,-273.74 2745.87,-274.09 2737.81,-267.21 2735.28,-273.74"/>
</g>
<!-- Node3 -->
<g id="node3" class="node">
<title>Node3</title>
<g id="a_node3"><a xlink:href="d__com__inf__game_8h.html" target="_top" xlink:title=" ">
<polygon fill="#fff0f0" stroke="red" points="2695.31,-173 2585.31,-173 2585.31,-143 2695.31,-143 2695.31,-173"/>
<text text-anchor="start" x="2593.31" y="-161" font-family="Helvetica,sans-Serif" font-size="10.00">include/d/com/d_com</text>
<text text-anchor="middle" x="2640.31" y="-150" font-family="Helvetica,sans-Serif" font-size="10.00">_inf_game.h</text>
</a>
</g>
</g>
<!-- Node1&#45;&gt;Node3 -->
<g id="edge59" class="edge">
<title>Node1&#45;&gt;Node3</title>
<path fill="none" stroke="#63b8ff" d="M2759.85,-266.92C2730.31,-240.25 2681.47,-196.16 2656.34,-173.47"/>
<polygon fill="#63b8ff" stroke="#63b8ff" points="2757.46,-269.47 2767.22,-273.58 2762.15,-264.28 2757.46,-269.47"/>
</g>
<!-- Node170 -->
<g id="node45" class="node">
<title>Node170</title>
<g id="a_node45"><a xlink:href="d__particle_8cpp.html" target="_top" xlink:title=" ">
<polygon fill="white" stroke="#666666" points="5002.31,-96 4866.31,-96 4866.31,-77 5002.31,-77 5002.31,-96"/>
<text text-anchor="middle" x="4934.31" y="-84" font-family="Helvetica,sans-Serif" font-size="10.00">src/d/particle/d_particle.cpp</text>
</a>
</g>
</g>
<!-- Node1&#45;&gt;Node170 -->
<g id="edge62" class="edge">
<title>Node1&#45;&gt;Node170</title>
<path fill="none" stroke="#63b8ff" d="M2769.97,-264.62C2752.97,-232.18 2730.67,-175.19 2762.31,-143 2802.7,-101.9 4779.02,-113.15 4836.31,-107 4856.66,-104.82 4879.07,-100.5 4897.32,-96.49"/>
<polygon fill="#63b8ff" stroke="#63b8ff" points="2766.84,-266.19 2774.72,-273.28 2772.98,-262.83 2766.84,-266.19"/>
</g>
<!-- Node181 -->
<g id="node46" class="node">
<title>Node181</title>
<g id="a_node46"><a xlink:href="d__a__item__static_8h.html" target="_top" xlink:title=" ">
<polygon fill="white" stroke="#666666" points="2878.81,-239 2771.81,-239 2771.81,-209 2878.81,-209 2878.81,-239"/>
<text text-anchor="start" x="2779.81" y="-227" font-family="Helvetica,sans-Serif" font-size="10.00">include/d/a/d_a_item</text>
<text text-anchor="middle" x="2825.31" y="-216" font-family="Helvetica,sans-Serif" font-size="10.00">_static.h</text>
</a>
</g>
</g>
<!-- Node1&#45;&gt;Node181 -->
<g id="edge55" class="edge">
<title>Node1&#45;&gt;Node181</title>
<path fill="none" stroke="#63b8ff" d="M2799.61,-265.11C2805.21,-256.38 2811.35,-246.78 2816.23,-239.16"/>
<polygon fill="#63b8ff" stroke="#63b8ff" points="2796.67,-263.21 2794.22,-273.52 2802.56,-266.99 2796.67,-263.21"/>
</g>
<!-- Node183 -->
<g id="node48" class="node">
<title>Node183</title>
<g id="a_node48"><a xlink:href="d__a__do_8h.html" target="_top" xlink:title=" ">
<polygon fill="white" stroke="#666666" points="3142.31,-173 3046.31,-173 3046.31,-143 3142.31,-143 3142.31,-173"/>
<text text-anchor="start" x="3054.31" y="-161" font-family="Helvetica,sans-Serif" font-size="10.00">include/rel/d/a/d_a</text>
<text text-anchor="middle" x="3094.31" y="-150" font-family="Helvetica,sans-Serif" font-size="10.00">_do/d_a_do.h</text>
</a>
</g>
</g>
<!-- Node1&#45;&gt;Node183 -->
<g id="edge61" class="edge">
<title>Node1&#45;&gt;Node183</title>
<path fill="none" stroke="#63b8ff" d="M2829.31,-269.84C2848.03,-261.25 2869.68,-250.47 2888.31,-239 2906.93,-227.53 2907.84,-218.97 2927.31,-209 2948.12,-198.34 3004.64,-182.34 3046.18,-171.32"/>
<polygon fill="#63b8ff" stroke="#63b8ff" points="2828.03,-266.58 2820.35,-273.89 2830.91,-272.96 2828.03,-266.58"/>
</g>
<!-- Node185 -->
<g id="node50" class="node">
<title>Node185</title>
<g id="a_node50"><a xlink:href="d__a__arrow_8h.html" target="_top" xlink:title=" ">
<polygon fill="white" stroke="#666666" points="3036.81,-239 2935.81,-239 2935.81,-209 3036.81,-209 3036.81,-239"/>
<text text-anchor="start" x="2943.81" y="-227" font-family="Helvetica,sans-Serif" font-size="10.00">include/rel/d/a/d_a</text>
<text text-anchor="middle" x="2986.31" y="-216" font-family="Helvetica,sans-Serif" font-size="10.00">_arrow/d_a_arrow.h</text>
</a>
</g>
</g>
<!-- Node1&#45;&gt;Node185 -->
<g id="edge60" class="edge">
<title>Node1&#45;&gt;Node185</title>
<path fill="none" stroke="#63b8ff" d="M2840.49,-271.2C2872.11,-261.18 2911.08,-248.83 2940.78,-239.43"/>
<polygon fill="#63b8ff" stroke="#63b8ff" points="2839.56,-267.82 2831.08,-274.18 2841.67,-274.5 2839.56,-267.82"/>
</g>
<!-- Node2&#45;&gt;Node3 -->
<g id="edge2" class="edge">
<title>Node2&#45;&gt;Node3</title>
<path fill="none" stroke="#63b8ff" d="M2625.73,-203.42C2628.93,-193.68 2632.72,-182.12 2635.64,-173.23"/>
<polygon fill="#63b8ff" stroke="#63b8ff" points="2622.49,-202.07 2622.7,-212.66 2629.14,-204.25 2622.49,-202.07"/>
</g>
<!-- Node15 -->
<g id="node11" class="node">
<title>Node15</title>
<g id="a_node11"><a xlink:href="d__a__alink_8cpp.html" target="_top" xlink:title=" ">
<polygon fill="white" stroke="#666666" points="511.81,-24.5 402.81,-24.5 402.81,-5.5 511.81,-5.5 511.81,-24.5"/>
<text text-anchor="middle" x="457.31" y="-12.5" font-family="Helvetica,sans-Serif" font-size="10.00">src/d/a/d_a_alink.cpp</text>
</a>
</g>
</g>
<!-- Node2&#45;&gt;Node15 -->
<g id="edge54" class="edge">
<title>Node2&#45;&gt;Node15</title>
<path fill="none" stroke="#63b8ff" d="M2549.64,-222.59C2143.84,-219.86 99.65,-201.45 9.31,-107 -3.29,-93.83 -2.84,-79.58 9.31,-66 35.14,-37.13 289.01,-23.01 402.72,-18.09"/>
<polygon fill="#63b8ff" stroke="#63b8ff" points="2549.35,-226.09 2559.38,-222.65 2549.4,-219.09 2549.35,-226.09"/>
</g>
<!-- Node4 -->
<g id="node4" class="node">
<title>Node4</title>
<g id="a_node4"><a xlink:href="d__a__npc_8h.html" target="_top" xlink:title=" ">
<polygon fill="#fff0f0" stroke="red" points="2506.81,-24.5 2395.81,-24.5 2395.81,-5.5 2506.81,-5.5 2506.81,-24.5"/>
<text text-anchor="middle" x="2451.31" y="-12.5" font-family="Helvetica,sans-Serif" font-size="10.00">include/d/a/d_a_npc.h</text>
</a>
</g>
</g>
<!-- Node3&#45;&gt;Node4 -->
<g id="edge3" class="edge">
<title>Node3&#45;&gt;Node4</title>
<path fill="none" stroke="#63b8ff" d="M2707.02,-145.52C2714.52,-144.53 2722.07,-143.65 2729.31,-143 2772.64,-139.11 4264.9,-138.12 4295.31,-107 4308.04,-93.97 4308.02,-79.06 4295.31,-66 4263.32,-33.13 2811.44,-19.05 2506.95,-16.45"/>
<polygon fill="#63b8ff" stroke="#63b8ff" points="2706.62,-142.04 2697.21,-146.91 2707.6,-148.98 2706.62,-142.04"/>
</g>
<!-- Node10 -->
<g id="node5" class="node">
<title>Node10</title>
<g id="a_node5"><a xlink:href="d__cc__uty_8h.html" target="_top" xlink:title=" ">
<polygon fill="#fff0f0" stroke="red" points="4499.81,-96 4380.81,-96 4380.81,-77 4499.81,-77 4499.81,-96"/>
<text text-anchor="middle" x="4440.31" y="-84" font-family="Helvetica,sans-Serif" font-size="10.00">include/d/cc/d_cc_uty.h</text>
</a>
</g>
</g>
<!-- Node3&#45;&gt;Node10 -->
<g id="edge4" class="edge">
<title>Node3&#45;&gt;Node10</title>
<path fill="none" stroke="#63b8ff" d="M2707.02,-145.52C2714.52,-144.52 2722.07,-143.65 2729.31,-143 3091.73,-110.66 4005.99,-157.71 4366.31,-107 4381.83,-104.82 4398.77,-100.5 4412.51,-96.49"/>
<polygon fill="#63b8ff" stroke="#63b8ff" points="2706.62,-142.04 2697.21,-146.9 2707.6,-148.97 2706.62,-142.04"/>
</g>
<!-- Node11 -->
<g id="node6" class="node">
<title>Node11</title>
<g id="a_node6"><a xlink:href="d__a__b__ob_8h.html" target="_top" xlink:title=" ">
<polygon fill="#fff0f0" stroke="red" points="4388.31,-30 4282.31,-30 4282.31,0 4388.31,0 4388.31,-30"/>
<text text-anchor="start" x="4290.31" y="-18" font-family="Helvetica,sans-Serif" font-size="10.00">include/rel/d/a/b/d</text>
<text text-anchor="middle" x="4335.31" y="-7" font-family="Helvetica,sans-Serif" font-size="10.00">_a_b_ob/d_a_b_ob.h</text>
</a>
</g>
</g>
<!-- Node3&#45;&gt;Node11 -->
<g id="edge27" class="edge">
<title>Node3&#45;&gt;Node11</title>
<path fill="none" stroke="#63b8ff" d="M2707.02,-145.52C2714.52,-144.52 2722.07,-143.65 2729.31,-143 2816.98,-135.14 4244.76,-162.22 4313.31,-107 4336.09,-88.65 4337.71,-51.11 4336.67,-30.45"/>
<polygon fill="#63b8ff" stroke="#63b8ff" points="2706.62,-142.04 2697.21,-146.9 2707.6,-148.97 2706.62,-142.04"/>
</g>
<!-- Node17 -->
<g id="node7" class="node">
<title>Node17</title>
<g id="a_node7"><a xlink:href="d__a__e__yk_8h.html" target="_top" xlink:title=" ">
<polygon fill="white" stroke="#666666" points="4510.31,-30 4406.31,-30 4406.31,0 4510.31,0 4510.31,-30"/>
<text text-anchor="start" x="4414.31" y="-18" font-family="Helvetica,sans-Serif" font-size="10.00">include/rel/d/a/e/d</text>
<text text-anchor="middle" x="4458.31" y="-7" font-family="Helvetica,sans-Serif" font-size="10.00">_a_e_yk/d_a_e_yk.h</text>
</a>
</g>
</g>
<!-- Node3&#45;&gt;Node17 -->
<g id="edge41" class="edge">
<title>Node3&#45;&gt;Node17</title>
<path fill="none" stroke="#63b8ff" d="M2707.02,-145.5C2714.52,-144.51 2722.06,-143.64 2729.31,-143 2778.57,-138.65 4474.69,-142.32 4509.31,-107 4522.06,-93.99 4516.36,-82.8 4509.31,-66 4503.26,-51.6 4490.81,-39.26 4479.72,-30.44"/>
<polygon fill="#63b8ff" stroke="#63b8ff" points="2706.62,-142.02 2697.21,-146.88 2707.6,-148.96 2706.62,-142.02"/>
</g>
<!-- Node18 -->
<g id="node8" class="node">
<title>Node18</title>
<g id="a_node8"><a xlink:href="d__a__e__ym_8h.html" target="_top" xlink:title=" ">
<polygon fill="#fff0f0" stroke="red" points="4638.31,-30 4528.31,-30 4528.31,0 4638.31,0 4638.31,-30"/>
<text text-anchor="start" x="4536.31" y="-18" font-family="Helvetica,sans-Serif" font-size="10.00">include/rel/d/a/e/d</text>
<text text-anchor="middle" x="4583.31" y="-7" font-family="Helvetica,sans-Serif" font-size="10.00">_a_e_ym/d_a_e_ym.h</text>
</a>
</g>
</g>
<!-- Node3&#45;&gt;Node18 -->
<g id="edge42" class="edge">
<title>Node3&#45;&gt;Node18</title>
<path fill="none" stroke="#63b8ff" d="M2707.02,-145.5C2714.52,-144.51 2722.06,-143.64 2729.31,-143 2828.77,-134.22 4439.44,-156.24 4526.31,-107 4555.82,-90.27 4572.18,-51.33 4579.17,-30.22"/>
<polygon fill="#63b8ff" stroke="#63b8ff" points="2706.62,-142.02 2697.21,-146.88 2707.6,-148.95 2706.62,-142.02"/>
</g>
<!-- Node21 -->
<g id="node9" class="node">
<title>Node21</title>
<g id="a_node9"><a xlink:href="d__error__msg_8h.html" target="_top" xlink:title=" ">
<polygon fill="#fff0f0" stroke="red" points="151.31,-96 31.31,-96 31.31,-77 151.31,-77 151.31,-96"/>
<text text-anchor="middle" x="91.31" y="-84" font-family="Helvetica,sans-Serif" font-size="10.00">include/d/d_error_msg.h</text>
</a>
</g>
</g>
<!-- Node3&#45;&gt;Node21 -->
<g id="edge8" class="edge">
<title>Node3&#45;&gt;Node21</title>
<path fill="none" stroke="#63b8ff" d="M2573.66,-156.67C2203.11,-154.71 404.63,-143.37 160.31,-107 145.66,-104.82 129.72,-100.45 116.85,-96.4"/>
<polygon fill="#63b8ff" stroke="#63b8ff" points="2573.43,-160.17 2583.45,-156.72 2573.47,-153.17 2573.43,-160.17"/>
</g>
<!-- Node24 -->
<g id="node10" class="node">
<title>Node24</title>
<g id="a_node10"><a xlink:href="d__item_8h.html" target="_top" xlink:title=" ">
<polygon fill="#fff0f0" stroke="red" points="504.81,-96 409.81,-96 409.81,-77 504.81,-77 504.81,-96"/>
<text text-anchor="middle" x="457.31" y="-84" font-family="Helvetica,sans-Serif" font-size="10.00">include/d/d_item.h</text>
</a>
</g>
</g>
<!-- Node3&#45;&gt;Node24 -->
<g id="edge9" class="edge">
<title>Node3&#45;&gt;Node24</title>
<path fill="none" stroke="#63b8ff" d="M2573.89,-156.64C2236.56,-154.68 720.84,-143.85 514.31,-107 502.05,-104.81 488.88,-100.45 478.28,-96.4"/>
<polygon fill="#63b8ff" stroke="#63b8ff" points="2573.4,-160.14 2583.42,-156.7 2573.44,-153.14 2573.4,-160.14"/>
</g>
<!-- Node3&#45;&gt;Node15 -->
<g id="edge52" class="edge">
<title>Node3&#45;&gt;Node15</title>
<path fill="none" stroke="#63b8ff" d="M2573.41,-157C2169.16,-156.87 68.34,-153.92 22.31,-107 9.55,-93.99 10.18,-79.6 22.31,-66 47.22,-38.06 291.39,-23.51 402.61,-18.29"/>
<polygon fill="#63b8ff" stroke="#63b8ff" points="2573.36,-160.5 2583.36,-157.01 2573.36,-153.5 2573.36,-160.5"/>
</g>
<!-- Node29 -->
<g id="node12" class="node">
<title>Node29</title>
<g id="a_node12"><a xlink:href="d__kantera__icon__meter_8h.html" target="_top" xlink:title=" ">
<polygon fill="#fff0f0" stroke="red" points="270.81,-101.5 169.81,-101.5 169.81,-71.5 270.81,-71.5 270.81,-101.5"/>
<text text-anchor="start" x="177.81" y="-89.5" font-family="Helvetica,sans-Serif" font-size="10.00">include/d/d_kantera</text>
<text text-anchor="middle" x="220.31" y="-78.5" font-family="Helvetica,sans-Serif" font-size="10.00">_icon_meter.h</text>
</a>
</g>
</g>
<!-- Node3&#45;&gt;Node29 -->
<g id="edge11" class="edge">
<title>Node3&#45;&gt;Node29</title>
<path fill="none" stroke="#63b8ff" d="M2573.41,-156.77C2213.01,-155.37 510.34,-146.7 279.31,-107 272.5,-105.83 265.41,-104.03 258.61,-101.98"/>
<polygon fill="#63b8ff" stroke="#63b8ff" points="2573.39,-160.27 2583.41,-156.81 2573.42,-153.27 2573.39,-160.27"/>
</g>
<!-- Node32 -->
<g id="node13" class="node">
<title>Node32</title>
<g id="a_node13"><a xlink:href="d__model_8h.html" target="_top" xlink:title=" ">
<polygon fill="#fff0f0" stroke="red" points="391.81,-96 288.81,-96 288.81,-77 391.81,-77 391.81,-96"/>
<text text-anchor="middle" x="340.31" y="-84" font-family="Helvetica,sans-Serif" font-size="10.00">include/d/d_model.h</text>
</a>
</g>
</g>
<!-- Node3&#45;&gt;Node32 -->
<g id="edge12" class="edge">
<title>Node3&#45;&gt;Node32</title>
<path fill="none" stroke="#63b8ff" d="M2573.5,-156.67C2224.54,-154.78 618.87,-144.13 400.31,-107 387.46,-104.82 373.59,-100.45 362.43,-96.4"/>
<polygon fill="#63b8ff" stroke="#63b8ff" points="2573.37,-160.17 2583.39,-156.72 2573.41,-153.17 2573.37,-160.17"/>
</g>
<!-- Node34 -->
<g id="node14" class="node">
<title>Node34</title>
<g id="a_node14"><a xlink:href="d__name_8h.html" target="_top" xlink:title=" ">
<polygon fill="#fff0f0" stroke="red" points="4695.81,-96 4594.81,-96 4594.81,-77 4695.81,-77 4695.81,-96"/>
<text text-anchor="middle" x="4645.31" y="-84" font-family="Helvetica,sans-Serif" font-size="10.00">include/d/d_name.h</text>
</a>
</g>
</g>
<!-- Node3&#45;&gt;Node34 -->
<g id="edge13" class="edge">
<title>Node3&#45;&gt;Node34</title>
<path fill="none" stroke="#63b8ff" d="M2707.02,-145.5C2714.52,-144.5 2722.06,-143.64 2729.31,-143 3139.14,-106.95 4173.86,-170.7 4580.31,-107 4594.16,-104.83 4609.18,-100.46 4621.29,-96.41"/>
<polygon fill="#63b8ff" stroke="#63b8ff" points="2706.62,-142.02 2697.21,-146.88 2707.6,-148.95 2706.62,-142.02"/>
</g>
<!-- Node35 -->
<g id="node15" class="node">
<title>Node35</title>
<g id="a_node15"><a xlink:href="d__file__select_8h.html" target="_top" xlink:title=" ">
<polygon fill="#fff0f0" stroke="red" points="4810.31,-30 4714.31,-30 4714.31,0 4810.31,0 4810.31,-30"/>
<text text-anchor="start" x="4722.31" y="-18" font-family="Helvetica,sans-Serif" font-size="10.00">include/d/file/d_file</text>
<text text-anchor="middle" x="4762.31" y="-7" font-family="Helvetica,sans-Serif" font-size="10.00">_select.h</text>
</a>
</g>
</g>
<!-- Node3&#45;&gt;Node35 -->
<g id="edge18" class="edge">
<title>Node3&#45;&gt;Node35</title>
<path fill="none" stroke="#63b8ff" d="M2707.01,-145.48C2714.52,-144.49 2722.06,-143.63 2729.31,-143 2787.15,-137.98 4778.6,-148.41 4819.31,-107 4832.08,-94 4826.83,-82.6 4819.31,-66 4812.57,-51.13 4798.99,-38.94 4786.77,-30.31"/>
<polygon fill="#63b8ff" stroke="#63b8ff" points="2706.62,-142 2697.21,-146.86 2707.6,-148.93 2706.62,-142"/>
</g>
<!-- Node38 -->
<g id="node16" class="node">
<title>Node38</title>
<g id="a_node16"><a xlink:href="d__file__sel__info_8h.html" target="_top" xlink:title=" ">
<polygon fill="#fff0f0" stroke="red" points="881.31,-101.5 785.31,-101.5 785.31,-71.5 881.31,-71.5 881.31,-101.5"/>
<text text-anchor="start" x="793.31" y="-89.5" font-family="Helvetica,sans-Serif" font-size="10.00">include/d/file/d_file</text>
<text text-anchor="middle" x="833.31" y="-78.5" font-family="Helvetica,sans-Serif" font-size="10.00">_sel_info.h</text>
</a>
</g>
</g>
<!-- Node3&#45;&gt;Node38 -->
<g id="edge15" class="edge">
<title>Node3&#45;&gt;Node38</title>
<path fill="none" stroke="#63b8ff" d="M2573.93,-156.28C2274.64,-152.89 1057.97,-137.35 890.31,-107 883.72,-105.81 876.86,-103.99 870.29,-101.94"/>
<polygon fill="#63b8ff" stroke="#63b8ff" points="2573.47,-159.78 2583.51,-156.39 2573.55,-152.78 2573.47,-159.78"/>
</g>
<!-- Node41 -->
<g id="node17" class="node">
<title>Node41</title>
<g id="a_node17"><a xlink:href="d__file__sel__warning_8h.html" target="_top" xlink:title=" ">
<polygon fill="#fff0f0" stroke="red" points="4810.31,-101.5 4714.31,-101.5 4714.31,-71.5 4810.31,-71.5 4810.31,-101.5"/>
<text text-anchor="start" x="4722.31" y="-89.5" font-family="Helvetica,sans-Serif" font-size="10.00">include/d/file/d_file</text>
<text text-anchor="middle" x="4762.31" y="-78.5" font-family="Helvetica,sans-Serif" font-size="10.00">_sel_warning.h</text>
</a>
</g>
</g>
<!-- Node3&#45;&gt;Node41 -->
<g id="edge16" class="edge">
<title>Node3&#45;&gt;Node41</title>
<path fill="none" stroke="#63b8ff" d="M2707.01,-145.49C2714.52,-144.5 2722.06,-143.63 2729.31,-143 3166.83,-104.79 4272.75,-183 4705.31,-107 4711.9,-105.84 4718.76,-104.04 4725.34,-102"/>
<polygon fill="#63b8ff" stroke="#63b8ff" points="2706.62,-142.01 2697.21,-146.87 2707.6,-148.94 2706.62,-142.01"/>
</g>
<!-- Node43 -->
<g id="node18" class="node">
<title>Node43</title>
<g id="a_node18"><a xlink:href="d__menu__calibration_8h.html" target="_top" xlink:title=" ">
<polygon fill="#fff0f0" stroke="red" points="1019.31,-101.5 899.31,-101.5 899.31,-71.5 1019.31,-71.5 1019.31,-101.5"/>
<text text-anchor="start" x="907.31" y="-89.5" font-family="Helvetica,sans-Serif" font-size="10.00">include/d/menu/d_menu</text>
<text text-anchor="middle" x="959.31" y="-78.5" font-family="Helvetica,sans-Serif" font-size="10.00">_calibration.h</text>
</a>
</g>
</g>
<!-- Node3&#45;&gt;Node43 -->
<g id="edge19" class="edge">
<title>Node3&#45;&gt;Node43</title>
<path fill="none" stroke="#63b8ff" d="M2573.85,-157.1C2309.69,-157.16 1333.52,-154.13 1028.31,-107 1020.56,-105.8 1012.44,-104.01 1004.61,-102"/>
<polygon fill="#63b8ff" stroke="#63b8ff" points="2573.65,-160.6 2583.64,-157.1 2573.64,-153.6 2573.65,-160.6"/>
</g>
<!-- Node45 -->
<g id="node19" class="node">
<title>Node45</title>
<g id="a_node19"><a xlink:href="d__meter2_8h.html" target="_top" xlink:title=" ">
<polygon fill="#fff0f0" stroke="red" points="1171.31,-96 1037.31,-96 1037.31,-77 1171.31,-77 1171.31,-96"/>
<text text-anchor="middle" x="1104.31" y="-84" font-family="Helvetica,sans-Serif" font-size="10.00">include/d/meter/d_meter2.h</text>
</a>
</g>
</g>
<!-- Node3&#45;&gt;Node45 -->
<g id="edge20" class="edge">
<title>Node3&#45;&gt;Node45</title>
<path fill="none" stroke="#63b8ff" d="M2573.68,-156.64C2325.48,-154.98 1454.77,-146.43 1180.31,-107 1164.53,-104.73 1147.3,-100.47 1133.24,-96.5"/>
<polygon fill="#63b8ff" stroke="#63b8ff" points="2573.49,-160.13 2583.51,-156.7 2573.54,-153.13 2573.49,-160.13"/>
</g>
<!-- Node55 -->
<g id="node20" class="node">
<title>Node55</title>
<g id="a_node20"><a xlink:href="d__msg__object_8h.html" target="_top" xlink:title=" ">
<polygon fill="#fff0f0" stroke="red" points="767.31,-101.5 657.31,-101.5 657.31,-71.5 767.31,-71.5 767.31,-101.5"/>
<text text-anchor="start" x="665.31" y="-89.5" font-family="Helvetica,sans-Serif" font-size="10.00">include/d/msg/d_msg</text>
<text text-anchor="middle" x="712.31" y="-78.5" font-family="Helvetica,sans-Serif" font-size="10.00">_object.h</text>
</a>
</g>
</g>
<!-- Node3&#45;&gt;Node55 -->
<g id="edge21" class="edge">
<title>Node3&#45;&gt;Node55</title>
<path fill="none" stroke="#63b8ff" d="M2573.74,-156.27C2262.25,-152.74 956.21,-136.27 776.31,-107 768.97,-105.81 761.3,-103.99 753.93,-101.94"/>
<polygon fill="#63b8ff" stroke="#63b8ff" points="2573.27,-159.77 2583.31,-156.38 2573.35,-152.77 2573.27,-159.77"/>
</g>
<!-- Node74 -->
<g id="node21" class="node">
<title>Node74</title>
<g id="a_node21"><a xlink:href="d__s__logo_8h.html" target="_top" xlink:title=" ">
<polygon fill="#fff0f0" stroke="red" points="1302.81,-96 1189.81,-96 1189.81,-77 1302.81,-77 1302.81,-96"/>
<text text-anchor="middle" x="1246.31" y="-84" font-family="Helvetica,sans-Serif" font-size="10.00">include/d/s/d_s_logo.h</text>
</a>
</g>
</g>
<!-- Node3&#45;&gt;Node74 -->
<g id="edge24" class="edge">
<title>Node3&#45;&gt;Node74</title>
<path fill="none" stroke="#63b8ff" d="M2573.46,-156.72C2339.48,-155.41 1558.12,-147.98 1311.31,-107 1297.59,-104.72 1282.71,-100.4 1270.65,-96.41"/>
<polygon fill="#63b8ff" stroke="#63b8ff" points="2573.31,-160.22 2583.33,-156.78 2573.35,-153.22 2573.31,-160.22"/>
</g>
<!-- Node76 -->
<g id="node22" class="node">
<title>Node76</title>
<g id="a_node22"><a xlink:href="d__s__play_8h.html" target="_top" xlink:title=" ">
<polygon fill="#fff0f0" stroke="red" points="1433.81,-96 1320.81,-96 1320.81,-77 1433.81,-77 1433.81,-96"/>
<text text-anchor="middle" x="1377.31" y="-84" font-family="Helvetica,sans-Serif" font-size="10.00">include/d/s/d_s_play.h</text>
</a>
</g>
</g>
<!-- Node3&#45;&gt;Node76 -->
<g id="edge25" class="edge">
<title>Node3&#45;&gt;Node76</title>
<path fill="none" stroke="#63b8ff" d="M2573.91,-156.41C2355.79,-154.12 1662.64,-144.05 1442.31,-107 1428.71,-104.71 1413.97,-100.44 1401.96,-96.48"/>
<polygon fill="#63b8ff" stroke="#63b8ff" points="2573.61,-159.9 2583.64,-156.51 2573.68,-152.91 2573.61,-159.9"/>
</g>
<!-- Node83 -->
<g id="node23" class="node">
<title>Node83</title>
<g id="a_node23"><a xlink:href="d__msg__scrn__base_8h.html" target="_top" xlink:title=" ">
<polygon fill="#fff0f0" stroke="red" points="1550.81,-101.5 1451.81,-101.5 1451.81,-71.5 1550.81,-71.5 1550.81,-101.5"/>
<text text-anchor="start" x="1459.81" y="-89.5" font-family="Helvetica,sans-Serif" font-size="10.00">include/msg/scrn/d</text>
<text text-anchor="middle" x="1501.31" y="-78.5" font-family="Helvetica,sans-Serif" font-size="10.00">_msg_scrn_base.h</text>
</a>
</g>
</g>
<!-- Node3&#45;&gt;Node83 -->
<g id="edge26" class="edge">
<title>Node3&#45;&gt;Node83</title>
<path fill="none" stroke="#63b8ff" d="M2573.57,-156.34C2369.41,-153.93 1755.28,-143.73 1559.31,-107 1552.73,-105.77 1545.88,-103.96 1539.28,-101.94"/>
<polygon fill="#63b8ff" stroke="#63b8ff" points="2573.43,-159.84 2583.47,-156.45 2573.51,-152.84 2573.43,-159.84"/>
</g>
<!-- Node87 -->
<g id="node24" class="node">
<title>Node87</title>
<g id="a_node24"><a xlink:href="d__a__b__zant_8h.html" target="_top" xlink:title=" ">
<polygon fill="white" stroke="#666666" points="1689.81,-101.5 1568.81,-101.5 1568.81,-71.5 1689.81,-71.5 1689.81,-101.5"/>
<text text-anchor="start" x="1576.81" y="-89.5" font-family="Helvetica,sans-Serif" font-size="10.00">include/rel/d/a/b/d</text>
<text text-anchor="middle" x="1629.31" y="-78.5" font-family="Helvetica,sans-Serif" font-size="10.00">_a_b_zant/d_a_b_zant.h</text>
</a>
</g>
</g>
<!-- Node3&#45;&gt;Node87 -->
<g id="edge28" class="edge">
<title>Node3&#45;&gt;Node87</title>
<path fill="none" stroke="#63b8ff" d="M2573.58,-155.35C2387.93,-150.46 1867.93,-134.63 1699.31,-107 1691.59,-105.74 1683.5,-103.94 1675.68,-101.94"/>
<polygon fill="#63b8ff" stroke="#63b8ff" points="2573.46,-158.85 2583.54,-155.61 2573.64,-151.85 2573.46,-158.85"/>
</g>
<!-- Node88 -->
<g id="node25" class="node">
<title>Node88</title>
<g id="a_node25"><a xlink:href="d__a__andsw_8h.html" target="_top" xlink:title=" ">
<polygon fill="white" stroke="#666666" points="1818.31,-101.5 1708.31,-101.5 1708.31,-71.5 1818.31,-71.5 1818.31,-101.5"/>
<text text-anchor="start" x="1716.31" y="-89.5" font-family="Helvetica,sans-Serif" font-size="10.00">include/rel/d/a/d_a</text>
<text text-anchor="middle" x="1763.31" y="-78.5" font-family="Helvetica,sans-Serif" font-size="10.00">_andsw/d_a_andsw.h</text>
</a>
</g>
</g>
<!-- Node3&#45;&gt;Node88 -->
<g id="edge29" class="edge">
<title>Node3&#45;&gt;Node88</title>
<path fill="none" stroke="#63b8ff" d="M2573.49,-154.91C2405.73,-149.33 1969.99,-132.76 1827.31,-107 1820.22,-105.72 1812.81,-103.92 1805.65,-101.92"/>
<polygon fill="#63b8ff" stroke="#63b8ff" points="2573.24,-158.4 2583.35,-155.23 2573.47,-151.41 2573.24,-158.4"/>
</g>
<!-- Node89 -->
<g id="node26" class="node">
<title>Node89</title>
<g id="a_node26"><a xlink:href="d__a__cstaF_8h.html" target="_top" xlink:title=" ">
<polygon fill="white" stroke="#666666" points="1939.81,-101.5 1836.81,-101.5 1836.81,-71.5 1939.81,-71.5 1939.81,-101.5"/>
<text text-anchor="start" x="1844.81" y="-89.5" font-family="Helvetica,sans-Serif" font-size="10.00">include/rel/d/a/d_a</text>
<text text-anchor="middle" x="1888.31" y="-78.5" font-family="Helvetica,sans-Serif" font-size="10.00">_cstaF/d_a_cstaF.h</text>
</a>
</g>
</g>
<!-- Node3&#45;&gt;Node89 -->
<g id="edge30" class="edge">
<title>Node3&#45;&gt;Node89</title>
<path fill="none" stroke="#63b8ff" d="M2573.93,-157.4C2449.99,-156.99 2175.49,-150.69 1949.31,-107 1942.65,-105.71 1935.7,-103.93 1928.98,-101.97"/>
<polygon fill="#63b8ff" stroke="#63b8ff" points="2573.57,-160.9 2583.57,-157.42 2573.58,-153.9 2573.57,-160.9"/>
</g>
<!-- Node90 -->
<g id="node27" class="node">
<title>Node90</title>
<g id="a_node27"><a xlink:href="d__a__dmidna_8h.html" target="_top" xlink:title=" ">
<polygon fill="white" stroke="#666666" points="2074.31,-101.5 1958.31,-101.5 1958.31,-71.5 2074.31,-71.5 2074.31,-101.5"/>
<text text-anchor="start" x="1966.31" y="-89.5" font-family="Helvetica,sans-Serif" font-size="10.00">include/rel/d/a/d_a</text>
<text text-anchor="middle" x="2016.31" y="-78.5" font-family="Helvetica,sans-Serif" font-size="10.00">_dmidna/d_a_dmidna.h</text>
</a>
</g>
</g>
<!-- Node3&#45;&gt;Node90 -->
<g id="edge31" class="edge">
<title>Node3&#45;&gt;Node90</title>
<path fill="none" stroke="#63b8ff" d="M2573.5,-155.18C2468.37,-151.37 2258.26,-139.99 2083.31,-107 2076.16,-105.65 2068.69,-103.87 2061.43,-101.92"/>
<polygon fill="#63b8ff" stroke="#63b8ff" points="2573.25,-158.67 2583.36,-155.52 2573.49,-151.67 2573.25,-158.67"/>
</g>
<!-- Node91 -->
<g id="node28" class="node">
<title>Node91</title>
<g id="a_node28"><a xlink:href="d__a__econt_8h.html" target="_top" xlink:title=" ">
<polygon fill="white" stroke="#666666" points="2193.81,-101.5 2092.81,-101.5 2092.81,-71.5 2193.81,-71.5 2193.81,-101.5"/>
<text text-anchor="start" x="2100.81" y="-89.5" font-family="Helvetica,sans-Serif" font-size="10.00">include/rel/d/a/d_a</text>
<text text-anchor="middle" x="2143.31" y="-78.5" font-family="Helvetica,sans-Serif" font-size="10.00">_econt/d_a_econt.h</text>
</a>
</g>
</g>
<!-- Node3&#45;&gt;Node91 -->
<g id="edge32" class="edge">
<title>Node3&#45;&gt;Node91</title>
<path fill="none" stroke="#63b8ff" d="M2573.6,-153.66C2487.12,-148.35 2332.02,-135.52 2202.31,-107 2196.09,-105.63 2189.61,-103.86 2183.31,-101.94"/>
<polygon fill="#63b8ff" stroke="#63b8ff" points="2573.38,-157.15 2583.57,-154.25 2573.8,-150.16 2573.38,-157.15"/>
</g>
<!-- Node92 -->
<g id="node29" class="node">
<title>Node92</title>
<g id="a_node29"><a xlink:href="d__a__guard__mng_8h.html" target="_top" xlink:title=" ">
<polygon fill="white" stroke="#666666" points="2360.81,-101.5 2211.81,-101.5 2211.81,-71.5 2360.81,-71.5 2360.81,-101.5"/>
<text text-anchor="start" x="2219.81" y="-89.5" font-family="Helvetica,sans-Serif" font-size="10.00">include/rel/d/a/d_a</text>
<text text-anchor="middle" x="2286.31" y="-78.5" font-family="Helvetica,sans-Serif" font-size="10.00">_guard_mng/d_a_guard_mng.h</text>
</a>
</g>
</g>
<!-- Node3&#45;&gt;Node92 -->
<g id="edge33" class="edge">
<title>Node3&#45;&gt;Node92</title>
<path fill="none" stroke="#63b8ff" d="M2573.54,-145.5C2518.8,-135.86 2439.36,-121.4 2370.31,-107 2362.83,-105.44 2355,-103.73 2347.26,-101.99"/>
<polygon fill="#63b8ff" stroke="#63b8ff" points="2572.89,-148.94 2583.34,-147.22 2574.1,-142.04 2572.89,-148.94"/>
</g>
<!-- Node93 -->
<g id="node30" class="node">
<title>Node93</title>
<g id="a_node30"><a xlink:href="d__a__hitobj_8h.html" target="_top" xlink:title=" ">
<polygon fill="white" stroke="#666666" points="2479.31,-101.5 2379.31,-101.5 2379.31,-71.5 2479.31,-71.5 2479.31,-101.5"/>
<text text-anchor="start" x="2387.31" y="-89.5" font-family="Helvetica,sans-Serif" font-size="10.00">include/rel/d/a/d_a</text>
<text text-anchor="middle" x="2429.31" y="-78.5" font-family="Helvetica,sans-Serif" font-size="10.00">_hitobj/d_a_hitobj.h</text>
</a>
</g>
</g>
<!-- Node3&#45;&gt;Node93 -->
<g id="edge34" class="edge">
<title>Node3&#45;&gt;Node93</title>
<path fill="none" stroke="#63b8ff" d="M2585.68,-139.05C2556.74,-129.54 2520.59,-117.64 2488.31,-107 2483.39,-105.38 2478.24,-103.68 2473.12,-101.99"/>
<polygon fill="#63b8ff" stroke="#63b8ff" points="2584.37,-142.3 2594.96,-142.1 2586.56,-135.66 2584.37,-142.3"/>
</g>
<!-- Node94 -->
<g id="node31" class="node">
<title>Node94</title>
<g id="a_node31"><a xlink:href="d__a__set__bgobj_8h.html" target="_top" xlink:title=" ">
<polygon fill="white" stroke="#666666" points="2634.81,-101.5 2497.81,-101.5 2497.81,-71.5 2634.81,-71.5 2634.81,-101.5"/>
<text text-anchor="start" x="2505.81" y="-89.5" font-family="Helvetica,sans-Serif" font-size="10.00">include/rel/d/a/d_a</text>
<text text-anchor="middle" x="2566.31" y="-78.5" font-family="Helvetica,sans-Serif" font-size="10.00">_set_bgobj/d_a_set_bgobj.h</text>
</a>
</g>
</g>
<!-- Node3&#45;&gt;Node94 -->
<g id="edge35" class="edge">
<title>Node3&#45;&gt;Node94</title>
<path fill="none" stroke="#63b8ff" d="M2616.67,-134.8C2605.2,-124.02 2591.74,-111.38 2581.62,-101.88"/>
<polygon fill="#63b8ff" stroke="#63b8ff" points="2614.19,-137.27 2623.87,-141.56 2618.98,-132.17 2614.19,-137.27"/>
</g>
<!-- Node95 -->
<g id="node32" class="node">
<title>Node95</title>
<g id="a_node32"><a xlink:href="d__a__skip__2D_8h.html" target="_top" xlink:title=" ">
<polygon fill="white" stroke="#666666" points="2777.31,-101.5 2653.31,-101.5 2653.31,-71.5 2777.31,-71.5 2777.31,-101.5"/>
<text text-anchor="start" x="2661.31" y="-89.5" font-family="Helvetica,sans-Serif" font-size="10.00">include/rel/d/a/d_a</text>
<text text-anchor="middle" x="2715.31" y="-78.5" font-family="Helvetica,sans-Serif" font-size="10.00">_skip_2D/d_a_skip_2D.h</text>
</a>
</g>
</g>
<!-- Node3&#45;&gt;Node95 -->
<g id="edge36" class="edge">
<title>Node3&#45;&gt;Node95</title>
<path fill="none" stroke="#63b8ff" d="M2664.26,-134.8C2675.89,-124.02 2689.53,-111.38 2699.79,-101.88"/>
<polygon fill="#63b8ff" stroke="#63b8ff" points="2661.91,-132.21 2656.96,-141.57 2666.67,-137.34 2661.91,-132.21"/>
</g>
<!-- Node96 -->
<g id="node33" class="node">
<title>Node96</title>
<g id="a_node33"><a xlink:href="d__a__spinner_8h.html" target="_top" xlink:title=" ">
<polygon fill="#fff0f0" stroke="red" points="639.31,-101.5 523.31,-101.5 523.31,-71.5 639.31,-71.5 639.31,-101.5"/>
<text text-anchor="start" x="531.31" y="-89.5" font-family="Helvetica,sans-Serif" font-size="10.00">include/rel/d/a/d_a</text>
<text text-anchor="middle" x="581.31" y="-78.5" font-family="Helvetica,sans-Serif" font-size="10.00">_spinner/d_a_spinner.h</text>
</a>
</g>
</g>
<!-- Node3&#45;&gt;Node96 -->
<g id="edge37" class="edge">
<title>Node3&#45;&gt;Node96</title>
<path fill="none" stroke="#63b8ff" d="M2573.97,-156.35C2249.99,-153.05 841.72,-137.05 648.31,-107 640.65,-105.81 632.63,-104 624.91,-101.94"/>
<polygon fill="#63b8ff" stroke="#63b8ff" points="2573.49,-159.85 2583.52,-156.45 2573.56,-152.85 2573.49,-159.85"/>
</g>
<!-- Node99 -->
<g id="node34" class="node">
<title>Node99</title>
<g id="a_node34"><a xlink:href="d__a__swTime_8h.html" target="_top" xlink:title=" ">
<polygon fill="white" stroke="#666666" points="2917.31,-101.5 2795.31,-101.5 2795.31,-71.5 2917.31,-71.5 2917.31,-101.5"/>
<text text-anchor="start" x="2803.31" y="-89.5" font-family="Helvetica,sans-Serif" font-size="10.00">include/rel/d/a/d_a</text>
<text text-anchor="middle" x="2856.31" y="-78.5" font-family="Helvetica,sans-Serif" font-size="10.00">_swTime/d_a_swTime.h</text>
</a>
</g>
</g>
<!-- Node3&#45;&gt;Node99 -->
<g id="edge39" class="edge">
<title>Node3&#45;&gt;Node99</title>
<path fill="none" stroke="#63b8ff" d="M2696.1,-139.05C2731.93,-127.52 2777.86,-112.74 2811.35,-101.97"/>
<polygon fill="#63b8ff" stroke="#63b8ff" points="2695.21,-135.66 2686.77,-142.05 2697.36,-142.32 2695.21,-135.66"/>
</g>
<!-- Node100 -->
<g id="node35" class="node">
<title>Node100</title>
<g id="a_node35"><a xlink:href="d__a__vrbox_8h.html" target="_top" xlink:title=" ">
<polygon fill="white" stroke="#666666" points="3035.31,-101.5 2935.31,-101.5 2935.31,-71.5 3035.31,-71.5 3035.31,-101.5"/>
<text text-anchor="start" x="2943.31" y="-89.5" font-family="Helvetica,sans-Serif" font-size="10.00">include/rel/d/a/d_a</text>
<text text-anchor="middle" x="2985.31" y="-78.5" font-family="Helvetica,sans-Serif" font-size="10.00">_vrbox/d_a_vrbox.h</text>
</a>
</g>
</g>
<!-- Node3&#45;&gt;Node100 -->
<g id="edge40" class="edge">
<title>Node3&#45;&gt;Node100</title>
<path fill="none" stroke="#63b8ff" d="M2706.61,-146.56C2777.68,-135.16 2885.76,-117.19 2926.31,-107 2932.17,-105.53 2938.29,-103.77 2944.27,-101.91"/>
<polygon fill="#63b8ff" stroke="#63b8ff" points="2706.36,-143.06 2697.03,-148.09 2707.46,-149.97 2706.36,-143.06"/>
</g>
<!-- Node101 -->
<g id="node36" class="node">
<title>Node101</title>
<g id="a_node36"><a xlink:href="d__a__kytag02_8h.html" target="_top" xlink:title=" ">
<polygon fill="white" stroke="#666666" points="3193.31,-101.5 3053.31,-101.5 3053.31,-71.5 3193.31,-71.5 3193.31,-101.5"/>
<text text-anchor="start" x="3061.31" y="-89.5" font-family="Helvetica,sans-Serif" font-size="10.00">include/rel/d/a/kytag</text>
<text text-anchor="middle" x="3123.31" y="-78.5" font-family="Helvetica,sans-Serif" font-size="10.00">/d_a_kytag02/d_a_kytag02.h</text>
</a>
</g>
</g>
<!-- Node3&#45;&gt;Node101 -->
<g id="edge43" class="edge">
<title>Node3&#45;&gt;Node101</title>
<path fill="none" stroke="#63b8ff" d="M2707.09,-146.18C2714.58,-145.06 2722.1,-143.98 2729.31,-143 2868.94,-124.05 2905.62,-131.94 3044.31,-107 3052.23,-105.58 3060.55,-103.82 3068.68,-101.95"/>
<polygon fill="#63b8ff" stroke="#63b8ff" points="2706.66,-142.71 2697.3,-147.67 2707.71,-149.63 2706.66,-142.71"/>
</g>
<!-- Node102 -->
<g id="node37" class="node">
<title>Node102</title>
<g id="a_node37"><a xlink:href="d__a__obj__bombf_8h.html" target="_top" xlink:title=" ">
<polygon fill="white" stroke="#666666" points="3333.31,-107 3211.31,-107 3211.31,-66 3333.31,-66 3333.31,-107"/>
<text text-anchor="start" x="3219.31" y="-95" font-family="Helvetica,sans-Serif" font-size="10.00">include/rel/d/a/obj</text>
<text text-anchor="start" x="3219.31" y="-84" font-family="Helvetica,sans-Serif" font-size="10.00">/d_a_obj_bombf/d_a_obj</text>
<text text-anchor="middle" x="3272.31" y="-73" font-family="Helvetica,sans-Serif" font-size="10.00">_bombf.h</text>
</a>
</g>
</g>
<!-- Node3&#45;&gt;Node102 -->
<g id="edge44" class="edge">
<title>Node3&#45;&gt;Node102</title>
<path fill="none" stroke="#63b8ff" d="M2707.06,-145.91C2714.55,-144.84 2722.09,-143.84 2729.31,-143 2938.72,-118.6 2994.65,-143.46 3202.31,-107 3205.17,-106.5 3208.07,-105.93 3211,-105.31"/>
<polygon fill="#63b8ff" stroke="#63b8ff" points="2706.64,-142.43 2697.26,-147.35 2707.66,-149.36 2706.64,-142.43"/>
</g>
<!-- Node103 -->
<g id="node38" class="node">
<title>Node103</title>
<g id="a_node38"><a xlink:href="d__a__obj__cboard_8h.html" target="_top" xlink:title=" ">
<polygon fill="white" stroke="#666666" points="3458.81,-107 3351.81,-107 3351.81,-66 3458.81,-66 3458.81,-107"/>
<text text-anchor="start" x="3359.81" y="-95" font-family="Helvetica,sans-Serif" font-size="10.00">include/rel/d/a/obj</text>
<text text-anchor="start" x="3359.81" y="-84" font-family="Helvetica,sans-Serif" font-size="10.00">/d_a_obj_cboard/d_a</text>
<text text-anchor="middle" x="3405.31" y="-73" font-family="Helvetica,sans-Serif" font-size="10.00">_obj_cboard.h</text>
</a>
</g>
</g>
<!-- Node3&#45;&gt;Node103 -->
<g id="edge45" class="edge">
<title>Node3&#45;&gt;Node103</title>
<path fill="none" stroke="#63b8ff" d="M2707.04,-145.78C2714.54,-144.74 2722.08,-143.78 2729.31,-143 3000.65,-113.76 3073.77,-155.7 3342.31,-107 3345.35,-106.45 3348.45,-105.8 3351.56,-105.07"/>
<polygon fill="#63b8ff" stroke="#63b8ff" points="2706.63,-142.31 2697.24,-147.21 2707.64,-149.23 2706.63,-142.31"/>
</g>
<!-- Node104 -->
<g id="node39" class="node">
<title>Node104</title>
<g id="a_node39"><a xlink:href="d__a__obj__cowdoor_8h.html" target="_top" xlink:title=" ">
<polygon fill="white" stroke="#666666" points="3591.31,-107 3477.31,-107 3477.31,-66 3591.31,-66 3591.31,-107"/>
<text text-anchor="start" x="3485.31" y="-95" font-family="Helvetica,sans-Serif" font-size="10.00">include/rel/d/a/obj</text>
<text text-anchor="start" x="3485.31" y="-84" font-family="Helvetica,sans-Serif" font-size="10.00">/d_a_obj_cowdoor/d_a</text>
<text text-anchor="middle" x="3534.31" y="-73" font-family="Helvetica,sans-Serif" font-size="10.00">_obj_cowdoor.h</text>
</a>
</g>
</g>
<!-- Node3&#45;&gt;Node104 -->
<g id="edge46" class="edge">
<title>Node3&#45;&gt;Node104</title>
<path fill="none" stroke="#63b8ff" d="M2707.04,-145.71C2714.53,-144.68 2722.07,-143.74 2729.31,-143 3056.42,-109.4 3144.1,-161.98 3468.31,-107 3471.13,-106.52 3474.01,-105.96 3476.9,-105.34"/>
<polygon fill="#63b8ff" stroke="#63b8ff" points="2706.63,-142.23 2697.23,-147.12 2707.63,-149.16 2706.63,-142.23"/>
</g>
<!-- Node105 -->
<g id="node40" class="node">
<title>Node105</title>
<g id="a_node40"><a xlink:href="d__a__obj__enemy__create_8h.html" target="_top" xlink:title=" ">
<polygon fill="white" stroke="#666666" points="3736.81,-107 3609.81,-107 3609.81,-66 3736.81,-66 3736.81,-107"/>
<text text-anchor="start" x="3617.81" y="-95" font-family="Helvetica,sans-Serif" font-size="10.00">include/rel/d/a/obj</text>
<text text-anchor="start" x="3617.81" y="-84" font-family="Helvetica,sans-Serif" font-size="10.00">/d_a_obj_enemy_create</text>
<text text-anchor="middle" x="3673.31" y="-73" font-family="Helvetica,sans-Serif" font-size="10.00">/d_a_obj_enemy_create.h</text>
</a>
</g>
</g>
<!-- Node3&#45;&gt;Node105 -->
<g id="edge47" class="edge">
<title>Node3&#45;&gt;Node105</title>
<path fill="none" stroke="#63b8ff" d="M2707.03,-145.66C2714.53,-144.63 2722.07,-143.72 2729.31,-143 3114.86,-104.83 3217.28,-165.35 3600.31,-107 3603.29,-106.55 3606.33,-106.02 3609.38,-105.43"/>
<polygon fill="#63b8ff" stroke="#63b8ff" points="2706.63,-142.18 2697.23,-147.06 2707.62,-149.11 2706.63,-142.18"/>
</g>
<!-- Node106 -->
<g id="node41" class="node">
<title>Node106</title>
<g id="a_node41"><a xlink:href="d__a__obj__mgate_8h.html" target="_top" xlink:title=" ">
<polygon fill="white" stroke="#666666" points="3877.31,-107 3755.31,-107 3755.31,-66 3877.31,-66 3877.31,-107"/>
<text text-anchor="start" x="3763.31" y="-95" font-family="Helvetica,sans-Serif" font-size="10.00">include/rel/d/a/obj</text>
<text text-anchor="start" x="3763.31" y="-84" font-family="Helvetica,sans-Serif" font-size="10.00">/d_a_obj_mgate/d_a_obj</text>
<text text-anchor="middle" x="3816.31" y="-73" font-family="Helvetica,sans-Serif" font-size="10.00">_mgate.h</text>
</a>
</g>
</g>
<!-- Node3&#45;&gt;Node106 -->
<g id="edge48" class="edge">
<title>Node3&#45;&gt;Node106</title>
<path fill="none" stroke="#63b8ff" d="M2707.03,-145.61C2714.53,-144.6 2722.07,-143.69 2729.31,-143 3179.52,-99.78 3299.34,-176.17 3746.31,-107 3749.17,-106.56 3752.09,-106.03 3755.03,-105.45"/>
<polygon fill="#63b8ff" stroke="#63b8ff" points="2706.63,-142.13 2697.22,-147.01 2707.62,-149.06 2706.63,-142.13"/>
</g>
<!-- Node107 -->
<g id="node42" class="node">
<title>Node107</title>
<g id="a_node42"><a xlink:href="d__a__obj__onsenFire_8h.html" target="_top" xlink:title=" ">
<polygon fill="white" stroke="#666666" points="4005.31,-107 3895.31,-107 3895.31,-66 4005.31,-66 4005.31,-107"/>
<text text-anchor="start" x="3903.31" y="-95" font-family="Helvetica,sans-Serif" font-size="10.00">include/rel/d/a/obj</text>
<text text-anchor="start" x="3903.31" y="-84" font-family="Helvetica,sans-Serif" font-size="10.00">/d_a_obj_onsenFire/d</text>
<text text-anchor="middle" x="3950.31" y="-73" font-family="Helvetica,sans-Serif" font-size="10.00">_a_obj_onsenFire.h</text>
</a>
</g>
</g>
<!-- Node3&#45;&gt;Node107 -->
<g id="edge49" class="edge">
<title>Node3&#45;&gt;Node107</title>
<path fill="none" stroke="#63b8ff" d="M2707.02,-145.58C2714.52,-144.57 2722.07,-143.68 2729.31,-143 3241.53,-94.93 3378.69,-190.71 3886.31,-107 3889.17,-106.53 3892.09,-105.96 3895.02,-105.32"/>
<polygon fill="#63b8ff" stroke="#63b8ff" points="2706.63,-142.1 2697.22,-146.97 2707.61,-149.03 2706.63,-142.1"/>
</g>
<!-- Node108 -->
<g id="node43" class="node">
<title>Node108</title>
<g id="a_node43"><a xlink:href="d__a__obj__smoke_8h.html" target="_top" xlink:title=" ">
<polygon fill="white" stroke="#666666" points="4148.81,-107 4023.81,-107 4023.81,-66 4148.81,-66 4148.81,-107"/>
<text text-anchor="start" x="4031.81" y="-95" font-family="Helvetica,sans-Serif" font-size="10.00">include/rel/d/a/obj</text>
<text text-anchor="start" x="4031.81" y="-84" font-family="Helvetica,sans-Serif" font-size="10.00">/d_a_obj_smoke/d_a_obj</text>
<text text-anchor="middle" x="4086.31" y="-73" font-family="Helvetica,sans-Serif" font-size="10.00">_smoke.h</text>
</a>
</g>
</g>
<!-- Node3&#45;&gt;Node108 -->
<g id="edge50" class="edge">
<title>Node3&#45;&gt;Node108</title>
<path fill="none" stroke="#63b8ff" d="M2707.02,-145.56C2714.52,-144.56 2722.07,-143.67 2729.31,-143 3298.23,-90.5 3449.07,-190.26 4014.31,-107 4017.38,-106.55 4020.51,-106.01 4023.66,-105.4"/>
<polygon fill="#63b8ff" stroke="#63b8ff" points="2706.63,-142.08 2697.22,-146.95 2707.61,-149.01 2706.63,-142.08"/>
</g>
<!-- Node109 -->
<g id="node44" class="node">
<title>Node109</title>
<g id="a_node44"><a xlink:href="d__a__obj__stone_8h.html" target="_top" xlink:title=" ">
<polygon fill="white" stroke="#666666" points="4285.81,-107 4166.81,-107 4166.81,-66 4285.81,-66 4285.81,-107"/>
<text text-anchor="start" x="4174.81" y="-95" font-family="Helvetica,sans-Serif" font-size="10.00">include/rel/d/a/obj</text>
<text text-anchor="start" x="4174.81" y="-84" font-family="Helvetica,sans-Serif" font-size="10.00">/d_a_obj_stone/d_a_obj</text>
<text text-anchor="middle" x="4226.31" y="-73" font-family="Helvetica,sans-Serif" font-size="10.00">_stone.h</text>
</a>
</g>
</g>
<!-- Node3&#45;&gt;Node109 -->
<g id="edge51" class="edge">
<title>Node3&#45;&gt;Node109</title>
<path fill="none" stroke="#63b8ff" d="M2707.02,-145.54C2714.52,-144.54 2722.07,-143.66 2729.31,-143 3045.66,-114.26 3844.32,-155.17 4158.31,-107 4160.98,-106.59 4163.69,-106.11 4166.42,-105.57"/>
<polygon fill="#63b8ff" stroke="#63b8ff" points="2706.63,-142.06 2697.21,-146.92 2707.6,-148.99 2706.63,-142.06"/>
</g>
<!-- Node3&#45;&gt;Node170 -->
<g id="edge53" class="edge">
<title>Node3&#45;&gt;Node170</title>
<path fill="none" stroke="#63b8ff" d="M2707.01,-145.48C2714.52,-144.49 2722.06,-143.63 2729.31,-143 3199.39,-102.24 4384.16,-165.93 4852.31,-107 4869.58,-104.83 4888.52,-100.46 4903.83,-96.41"/>
<polygon fill="#63b8ff" stroke="#63b8ff" points="2706.62,-142 2697.21,-146.86 2707.6,-148.93 2706.62,-142"/>
</g>
<!-- Node10&#45;&gt;Node11 -->
<g id="edge5" class="edge">
<title>Node10&#45;&gt;Node11</title>
<path fill="none" stroke="#63b8ff" d="M4417.57,-70.45C4399.56,-58.53 4374.57,-41.99 4356.87,-30.27"/>
<polygon fill="#63b8ff" stroke="#63b8ff" points="4415.48,-73.26 4425.75,-75.86 4419.34,-67.42 4415.48,-73.26"/>
</g>
<!-- Node10&#45;&gt;Node17 -->
<g id="edge6" class="edge">
<title>Node10&#45;&gt;Node17</title>
<path fill="none" stroke="#63b8ff" d="M4445.42,-65.76C4448.35,-54.45 4451.96,-40.52 4454.61,-30.27"/>
<polygon fill="#63b8ff" stroke="#63b8ff" points="4442.09,-64.67 4442.97,-75.23 4448.86,-66.43 4442.09,-64.67"/>
</g>
<!-- Node10&#45;&gt;Node18 -->
<g id="edge7" class="edge">
<title>Node10&#45;&gt;Node18</title>
<path fill="none" stroke="#63b8ff" d="M4468.83,-71.64C4493.36,-59.71 4528.64,-42.57 4553.53,-30.47"/>
<polygon fill="#63b8ff" stroke="#63b8ff" points="4467.53,-68.38 4460.07,-75.89 4470.59,-74.67 4467.53,-68.38"/>
</g>
<!-- Node24&#45;&gt;Node15 -->
<g id="edge10" class="edge">
<title>Node24&#45;&gt;Node15</title>
<path fill="none" stroke="#63b8ff" d="M457.31,-65.3C457.31,-51.94 457.31,-35.09 457.31,-24.95"/>
<polygon fill="#63b8ff" stroke="#63b8ff" points="453.81,-65.18 457.31,-75.18 460.81,-65.18 453.81,-65.18"/>
</g>
<!-- Node34&#45;&gt;Node35 -->
<g id="edge14" class="edge">
<title>Node34&#45;&gt;Node35</title>
<path fill="none" stroke="#63b8ff" d="M4669.81,-70.94C4689.94,-58.99 4718.28,-42.15 4738.28,-30.27"/>
<polygon fill="#63b8ff" stroke="#63b8ff" points="4668.24,-67.81 4661.43,-75.92 4671.81,-73.83 4668.24,-67.81"/>
</g>
<!-- Node41&#45;&gt;Node35 -->
<g id="edge17" class="edge">
<title>Node41&#45;&gt;Node35</title>
<path fill="none" stroke="#63b8ff" d="M4762.31,-59.76C4762.31,-49.83 4762.31,-38.86 4762.31,-30.38"/>
<polygon fill="#63b8ff" stroke="#63b8ff" points="4758.81,-59.59 4762.31,-69.59 4765.81,-59.59 4758.81,-59.59"/>
</g>
<!-- Node55&#45;&gt;Node4 -->
<g id="edge22" class="edge">
<title>Node55&#45;&gt;Node4</title>
<path fill="none" stroke="#63b8ff" d="M764.78,-68.3C768.65,-67.41 772.52,-66.62 776.31,-66 1098.38,-13.1 2142.6,-14.52 2395.68,-15.68"/>
<polygon fill="#63b8ff" stroke="#63b8ff" points="764.21,-64.83 755.39,-70.7 765.95,-71.62 764.21,-64.83"/>
</g>
<!-- Node55&#45;&gt;Node15 -->
<g id="edge23" class="edge">
<title>Node55&#45;&gt;Node15</title>
<path fill="none" stroke="#63b8ff" d="M654.69,-67.83C652.53,-67.2 650.4,-66.59 648.31,-66 594.55,-50.78 531.81,-34.67 493.33,-24.98"/>
<polygon fill="#63b8ff" stroke="#63b8ff" points="653.5,-71.13 664.08,-70.59 655.47,-64.41 653.5,-71.13"/>
</g>
<!-- Node96&#45;&gt;Node15 -->
<g id="edge38" class="edge">
<title>Node96&#45;&gt;Node15</title>
<path fill="none" stroke="#63b8ff" d="M545.8,-65.6C521.83,-52.16 491.36,-35.09 473.15,-24.88"/>
<polygon fill="#63b8ff" stroke="#63b8ff" points="543.86,-68.52 554.29,-70.36 547.28,-62.42 543.86,-68.52"/>
</g>
<!-- Node182 -->
<g id="node47" class="node">
<title>Node182</title>
<g id="a_node47"><a xlink:href="d__a__obj__item_8h.html" target="_top" xlink:title=" ">
<polygon fill="#fff0f0" stroke="red" points="2872.81,-173 2771.81,-173 2771.81,-143 2872.81,-143 2872.81,-173"/>
<text text-anchor="start" x="2779.81" y="-161" font-family="Helvetica,sans-Serif" font-size="10.00">include/d/a/d_a_obj</text>
<text text-anchor="middle" x="2822.31" y="-150" font-family="Helvetica,sans-Serif" font-size="10.00">_item.h</text>
</a>
</g>
</g>
<!-- Node181&#45;&gt;Node182 -->
<g id="edge56" class="edge">
<title>Node181&#45;&gt;Node182</title>
<path fill="none" stroke="#63b8ff" d="M2824.11,-197.39C2823.72,-189.13 2823.31,-180.28 2822.97,-173.16"/>
<polygon fill="#63b8ff" stroke="#63b8ff" points="2820.61,-197.46 2824.57,-207.28 2827.6,-197.13 2820.61,-197.46"/>
</g>
<!-- Node181&#45;&gt;Node183 -->
<g id="edge57" class="edge">
<title>Node181&#45;&gt;Node183</title>
<path fill="none" stroke="#63b8ff" d="M2890.11,-207.88C2932.1,-198.04 2987.97,-184.88 3037.31,-173 3040.18,-172.31 3043.13,-171.59 3046.11,-170.87"/>
<polygon fill="#63b8ff" stroke="#63b8ff" points="2889.34,-204.47 2880.4,-210.15 2890.93,-211.28 2889.34,-204.47"/>
</g>
<!-- Node184 -->
<g id="node49" class="node">
<title>Node184</title>
<g id="a_node49"><a xlink:href="d__a__item__static_8cpp.html" target="_top" xlink:title=" ">
<polygon fill="white" stroke="#666666" points="3027.81,-167.5 2890.81,-167.5 2890.81,-148.5 3027.81,-148.5 3027.81,-167.5"/>
<text text-anchor="middle" x="2959.31" y="-155.5" font-family="Helvetica,sans-Serif" font-size="10.00">src/d/a/d_a_item_static.cpp</text>
</a>
</g>
</g>
<!-- Node181&#45;&gt;Node184 -->
<g id="edge58" class="edge">
<title>Node181&#45;&gt;Node184</title>
<path fill="none" stroke="#63b8ff" d="M2865.62,-203.75C2890.46,-191.88 2921.16,-177.22 2940.49,-167.99"/>
<polygon fill="#63b8ff" stroke="#63b8ff" points="2864.26,-200.52 2856.75,-207.98 2867.28,-206.83 2864.26,-200.52"/>
</g>
</g>
</svg>
