<?xml version="1.0" encoding="UTF-8" standalone="no"?>
<!DOCTYPE svg PUBLIC "-//W3C//DTD SVG 1.1//EN"
 "http://www.w3.org/Graphics/SVG/1.1/DTD/svg11.dtd">
<!-- Generated by graphviz version 7.0.5 (20221223.1930)
 -->
<!-- Title: include/d/save/d_save.h Pages: 1 -->
<!--zoomable 401 -->
<svg id="main" version="1.1" xmlns="http://www.w3.org/2000/svg" xmlns:xlink="http://www.w3.org/1999/xlink" xml:space="preserve" onload="init(evt)">
<style type="text/css"><![CDATA[
.edge:hover path { stroke: red; }
.edge:hover polygon { stroke: red; fill: red; }
]]></style>
<script type="text/javascript"><![CDATA[
var edges = document.getElementsByTagName('g');
if (edges && edges.length) {
  for (var i=0;i<edges.length;i++) {
    if (edges[i].id.substr(0,4)=='edge') {
      edges[i].setAttribute('class','edge');
    }
  }
}
]]></script>
        <defs>
                <circle id="rim" cx="0" cy="0" r="7"/>
                <circle id="rim2" cx="0" cy="0" r="3.5"/>
                <g id="zoomPlus">
                        <use xlink:href="#rim" fill="#404040">
                                <set attributeName="fill" to="#808080" begin="zoomplus.mouseover" end="zoomplus.mouseout"/>
                        </use>
                        <path d="M-4,0h8M0,-4v8" fill="none" stroke="white" stroke-width="1.5" pointer-events="none"/>
                </g>
                <g id="zoomMin">
                        <use xlink:href="#rim" fill="#404040">
                                <set attributeName="fill" to="#808080" begin="zoomminus.mouseover" end="zoomminus.mouseout"/>
                        </use>
                        <path d="M-4,0h8" fill="none" stroke="white" stroke-width="1.5" pointer-events="none"/>
                </g>
                <g id="dirArrow">
                        <path fill="none" stroke="white" stroke-width="1.5" d="M0,-3.0v7 M-2.5,-0.5L0,-3.0L2.5,-0.5"/>
                </g>
               <g id="resetDef">
                       <use xlink:href="#rim2" fill="#404040">
                               <set attributeName="fill" to="#808080" begin="reset.mouseover" end="reset.mouseout"/>
                       </use>
               </g>
        </defs>

<script type="text/javascript">
var viewWidth = 2454;
var viewHeight = 401;
var sectionId = 'dynsection-0';
</script>
<script xlink:href="svgpan.js"/>
<svg id="graph" class="graph">
<g id="viewport">
<title>include/d/save/d_save.h</title>
<!-- Node1 -->
<g id="node1" class="node">
<title>Node1</title>
<g id="a_node1"><a xlink:title=" ">
<polygon fill="#999999" stroke="#666666" points="2168.5,-393 2046.5,-393 2046.5,-374 2168.5,-374 2168.5,-393"/>
<text text-anchor="middle" x="2107.5" y="-381" font-family="Helvetica,sans-Serif" font-size="10.00">include/d/save/d_save.h</text>
</a>
</g>
</g>
<!-- Node2 -->
<g id="node2" class="node">
<title>Node2</title>
<g id="a_node2"><a xlink:href="MSL__Common_2Src_2string_8h.html" target="_top" xlink:title=" ">
<polygon fill="white" stroke="#666666" points="2218.5,-96 2082.5,-96 2082.5,-66 2218.5,-66 2218.5,-96"/>
<text text-anchor="start" x="2090.5" y="-84" font-family="Helvetica,sans-Serif" font-size="10.00">MSL_C/MSL_Common/Src</text>
<text text-anchor="middle" x="2150.5" y="-73" font-family="Helvetica,sans-Serif" font-size="10.00">/string.h</text>
</a>
</g>
</g>
<!-- Node1&#45;&gt;Node2 -->
<g id="edge1" class="edge">
<title>Node1&#45;&gt;Node2</title>
<path fill="none" stroke="#63b8ff" d="M2113.12,-373.64C2124.78,-354.4 2150.5,-306.99 2150.5,-263.5 2150.5,-263.5 2150.5,-263.5 2150.5,-201 2150.5,-168.8 2150.5,-131.71 2150.5,-107.61"/>
<polygon fill="#63b8ff" stroke="#63b8ff" points="2154,-107.8 2150.5,-97.8 2147,-107.8 2154,-107.8"/>
</g>
<!-- Node4 -->
<g id="node4" class="node">
<title>Node4</title>
<g id="a_node4"><a xlink:href="c__xyz_8h.html" target="_top" xlink:title=" ">
<polygon fill="white" stroke="#666666" points="2089.5,-217 1973.5,-217 1973.5,-187 2089.5,-187 2089.5,-217"/>
<text text-anchor="start" x="1981.5" y="-205" font-family="Helvetica,sans-Serif" font-size="10.00">SSystem/SComponent</text>
<text text-anchor="middle" x="2031.5" y="-194" font-family="Helvetica,sans-Serif" font-size="10.00">/c_xyz.h</text>
</a>
</g>
</g>
<!-- Node1&#45;&gt;Node4 -->
<g id="edge3" class="edge">
<title>Node1&#45;&gt;Node4</title>
<path fill="none" stroke="#63b8ff" d="M2103.83,-373.84C2092.75,-347.66 2059.29,-268.63 2042.04,-227.88"/>
<polygon fill="#63b8ff" stroke="#63b8ff" points="2045.34,-226.72 2038.22,-218.88 2038.9,-229.45 2045.34,-226.72"/>
</g>
<!-- Node9 -->
<g id="node9" class="node">
<title>Node9</title>
<g id="a_node9"><a xlink:href="types_8h.html" target="_top" xlink:title=" ">
<polygon fill="white" stroke="#666666" points="1315,-90.5 1234,-90.5 1234,-71.5 1315,-71.5 1315,-90.5"/>
<text text-anchor="middle" x="1274.5" y="-78.5" font-family="Helvetica,sans-Serif" font-size="10.00">dolphin/types.h</text>
</a>
</g>
</g>
<!-- Node1&#45;&gt;Node9 -->
<g id="edge61" class="edge">
<title>Node1&#45;&gt;Node9</title>
<path fill="none" stroke="#63b8ff" d="M2046.23,-381.68C1965.74,-376.99 1834.5,-355.27 1834.5,-263.5 1834.5,-263.5 1834.5,-263.5 1834.5,-201 1834.5,-169.19 1839.89,-152.42 1815.5,-132 1778.51,-101.02 1455.04,-87.62 1326.67,-83.49"/>
<polygon fill="#63b8ff" stroke="#63b8ff" points="1326.85,-79.99 1316.75,-83.18 1326.63,-86.99 1326.85,-79.99"/>
</g>
<!-- Node11 -->
<g id="node11" class="node">
<title>Node11</title>
<g id="a_node11"><a xlink:href="OS_8h.html" target="_top" xlink:title=" ">
<polygon fill="white" stroke="#666666" points="1006.5,-332.5 920.5,-332.5 920.5,-313.5 1006.5,-313.5 1006.5,-332.5"/>
<text text-anchor="middle" x="963.5" y="-320.5" font-family="Helvetica,sans-Serif" font-size="10.00">dolphin/os/OS.h</text>
</a>
</g>
</g>
<!-- Node1&#45;&gt;Node11 -->
<g id="edge12" class="edge">
<title>Node1&#45;&gt;Node11</title>
<path fill="none" stroke="#63b8ff" d="M2046.4,-379.38C1845.83,-369.12 1209.5,-336.58 1018.33,-326.8"/>
<polygon fill="#63b8ff" stroke="#63b8ff" points="1018.59,-323.31 1008.43,-326.3 1018.23,-330.3 1018.59,-323.31"/>
</g>
<!-- Node35 -->
<g id="node35" class="node">
<title>Node35</title>
<g id="a_node35"><a xlink:href="d__save__bit__labels_8inc.html" target="_top" xlink:title=" ">
<polygon fill="white" stroke="#666666" points="2320.5,-332.5 2178.5,-332.5 2178.5,-313.5 2320.5,-313.5 2320.5,-332.5"/>
<text text-anchor="middle" x="2249.5" y="-320.5" font-family="Helvetica,sans-Serif" font-size="10.00">d/save/d_save_bit_labels.inc</text>
</a>
</g>
</g>
<!-- Node1&#45;&gt;Node35 -->
<g id="edge62" class="edge">
<title>Node1&#45;&gt;Node35</title>
<path fill="none" stroke="#63b8ff" d="M2129.07,-373.62C2152.52,-363.95 2190.27,-348.4 2217.26,-337.28"/>
<polygon fill="#63b8ff" stroke="#63b8ff" points="2218.42,-340.59 2226.33,-333.55 2215.75,-334.12 2218.42,-340.59"/>
</g>
<!-- Node36 -->
<g id="node36" class="node">
<title>Node36</title>
<g id="a_node36"><a xlink:href="d__save__temp__bit__labels_8inc.html" target="_top" xlink:title=" ">
<polygon fill="white" stroke="#666666" points="2446,-338 2339,-338 2339,-308 2446,-308 2446,-338"/>
<text text-anchor="start" x="2347" y="-326" font-family="Helvetica,sans-Serif" font-size="10.00">d/save/d_save_temp</text>
<text text-anchor="middle" x="2392.5" y="-315" font-family="Helvetica,sans-Serif" font-size="10.00">_bit_labels.inc</text>
</a>
</g>
</g>
<!-- Node1&#45;&gt;Node36 -->
<g id="edge63" class="edge">
<title>Node1&#45;&gt;Node36</title>
<path fill="none" stroke="#63b8ff" d="M2153.48,-373.57C2196.04,-365.25 2261.39,-352.3 2327.51,-338.39"/>
<polygon fill="#63b8ff" stroke="#63b8ff" points="2328.02,-341.87 2337.08,-336.38 2326.57,-335.02 2328.02,-341.87"/>
</g>
<!-- Node3 -->
<g id="node3" class="node">
<title>Node3</title>
<g id="a_node3"><a xlink:href="stddef_8h.html" target="_top" xlink:title=" ">
<polygon fill="white" stroke="#666666" points="2196.5,-30 2060.5,-30 2060.5,0 2196.5,0 2196.5,-30"/>
<text text-anchor="start" x="2068.5" y="-18" font-family="Helvetica,sans-Serif" font-size="10.00">MSL_C/MSL_Common/Src</text>
<text text-anchor="middle" x="2128.5" y="-7" font-family="Helvetica,sans-Serif" font-size="10.00">/stddef.h</text>
</a>
</g>
</g>
<!-- Node2&#45;&gt;Node3 -->
<g id="edge2" class="edge">
<title>Node2&#45;&gt;Node3</title>
<path fill="none" stroke="#63b8ff" d="M2145.62,-65.8C2143.11,-58.5 2139.98,-49.41 2137.09,-40.99"/>
<polygon fill="#63b8ff" stroke="#63b8ff" points="2140.42,-39.91 2133.86,-31.6 2133.8,-42.19 2140.42,-39.91"/>
</g>
<!-- Node5 -->
<g id="node5" class="node">
<title>Node5</title>
<g id="a_node5"><a xlink:href="math_8h.html" target="_top" xlink:title=" ">
<polygon fill="white" stroke="#666666" points="2122.5,-151 2040.5,-151 2040.5,-132 2122.5,-132 2122.5,-151"/>
<text text-anchor="middle" x="2081.5" y="-139" font-family="Helvetica,sans-Serif" font-size="10.00">MSL_C/math.h</text>
</a>
</g>
</g>
<!-- Node4&#45;&gt;Node5 -->
<g id="edge4" class="edge">
<title>Node4&#45;&gt;Node5</title>
<path fill="none" stroke="#63b8ff" d="M2043.86,-186.54C2050.75,-178.48 2059.38,-168.38 2066.64,-159.89"/>
<polygon fill="#63b8ff" stroke="#63b8ff" points="2069.27,-162.2 2073.1,-152.33 2063.94,-157.65 2069.27,-162.2"/>
</g>
<!-- Node8 -->
<g id="node8" class="node">
<title>Node8</title>
<g id="a_node8"><a xlink:href="vec_8h.html" target="_top" xlink:title=" ">
<polygon fill="white" stroke="#666666" points="1954.5,-151 1862.5,-151 1862.5,-132 1954.5,-132 1954.5,-151"/>
<text text-anchor="middle" x="1908.5" y="-139" font-family="Helvetica,sans-Serif" font-size="10.00">dolphin/mtx/vec.h</text>
</a>
</g>
</g>
<!-- Node4&#45;&gt;Node8 -->
<g id="edge7" class="edge">
<title>Node4&#45;&gt;Node8</title>
<path fill="none" stroke="#63b8ff" d="M2001.1,-186.54C1981.62,-177.28 1956.49,-165.33 1937.33,-156.21"/>
<polygon fill="#63b8ff" stroke="#63b8ff" points="1939,-153.13 1928.47,-152 1935.99,-159.45 1939,-153.13"/>
</g>
<!-- Node10 -->
<g id="node10" class="node">
<title>Node10</title>
<g id="a_node10"><a xlink:href="global_8h.html" target="_top" xlink:title=" ">
<polygon fill="white" stroke="#666666" points="2022.5,-151 1972.5,-151 1972.5,-132 2022.5,-132 2022.5,-151"/>
<text text-anchor="middle" x="1997.5" y="-139" font-family="Helvetica,sans-Serif" font-size="10.00">global.h</text>
</a>
</g>
</g>
<!-- Node4&#45;&gt;Node10 -->
<g id="edge10" class="edge">
<title>Node4&#45;&gt;Node10</title>
<path fill="none" stroke="#63b8ff" d="M2023.1,-186.54C2018.61,-178.82 2013.04,-169.24 2008.25,-160.99"/>
<polygon fill="#63b8ff" stroke="#63b8ff" points="2011.35,-159.37 2003.3,-152.48 2005.3,-162.89 2011.35,-159.37"/>
</g>
<!-- Node6 -->
<g id="node6" class="node">
<title>Node6</title>
<g id="a_node6"><a xlink:href="MSL__Common_2Src_2float_8h.html" target="_top" xlink:title=" ">
<polygon fill="white" stroke="#666666" points="2064.5,-96 1928.5,-96 1928.5,-66 2064.5,-66 2064.5,-96"/>
<text text-anchor="start" x="1936.5" y="-84" font-family="Helvetica,sans-Serif" font-size="10.00">MSL_C/MSL_Common/Src</text>
<text text-anchor="middle" x="1996.5" y="-73" font-family="Helvetica,sans-Serif" font-size="10.00">/float.h</text>
</a>
</g>
</g>
<!-- Node5&#45;&gt;Node6 -->
<g id="edge5" class="edge">
<title>Node5&#45;&gt;Node6</title>
<path fill="none" stroke="#63b8ff" d="M2068.59,-131.62C2057.47,-123.96 2040.97,-112.61 2026.57,-102.69"/>
<polygon fill="#63b8ff" stroke="#63b8ff" points="2028.95,-100.08 2018.73,-97.3 2024.98,-105.85 2028.95,-100.08"/>
</g>
<!-- Node7 -->
<g id="node7" class="node">
<title>Node7</title>
<g id="a_node7"><a xlink:href="fdlibm_8h.html" target="_top" xlink:title=" ">
<polygon fill="white" stroke="#666666" points="2021.5,-24.5 1971.5,-24.5 1971.5,-5.5 2021.5,-5.5 2021.5,-24.5"/>
<text text-anchor="middle" x="1996.5" y="-12.5" font-family="Helvetica,sans-Serif" font-size="10.00">fdlibm.h</text>
</a>
</g>
</g>
<!-- Node6&#45;&gt;Node7 -->
<g id="edge6" class="edge">
<title>Node6&#45;&gt;Node7</title>
<path fill="none" stroke="#63b8ff" d="M1996.5,-65.8C1996.5,-57.09 1996.5,-45.81 1996.5,-36.18"/>
<polygon fill="#63b8ff" stroke="#63b8ff" points="2000,-36.36 1996.5,-26.36 1993,-36.36 2000,-36.36"/>
</g>
<!-- Node8&#45;&gt;Node9 -->
<g id="edge8" class="edge">
<title>Node8&#45;&gt;Node9</title>
<path fill="none" stroke="#63b8ff" d="M1862.02,-133.66C1857.45,-133.07 1852.89,-132.5 1848.5,-132 1656.59,-110.06 1427.6,-92.77 1326.67,-85.6"/>
<polygon fill="#63b8ff" stroke="#63b8ff" points="1327.02,-82.12 1316.8,-84.9 1326.53,-89.1 1327.02,-82.12"/>
</g>
<!-- Node9&#45;&gt;Node3 -->
<g id="edge9" class="edge">
<title>Node9&#45;&gt;Node3</title>
<path fill="none" stroke="#63b8ff" d="M1315.16,-78.4C1428.59,-73.69 1758.05,-58.43 2030.5,-30 2036.48,-29.38 2042.66,-28.66 2048.87,-27.89"/>
<polygon fill="#63b8ff" stroke="#63b8ff" points="2049.07,-31.39 2058.54,-26.65 2048.18,-24.45 2049.07,-31.39"/>
</g>
<!-- Node10&#45;&gt;Node9 -->
<g id="edge11" class="edge">
<title>Node10&#45;&gt;Node9</title>
<path fill="none" stroke="#63b8ff" d="M1972.35,-133.7C1969.38,-133.05 1966.38,-132.46 1963.5,-132 1727.64,-94.25 1441.76,-84.97 1326.43,-82.72"/>
<polygon fill="#63b8ff" stroke="#63b8ff" points="1326.74,-79.22 1316.68,-82.54 1326.61,-86.22 1326.74,-79.22"/>
</g>
<!-- Node12 -->
<g id="node12" class="node">
<title>Node12</title>
<g id="a_node12"><a xlink:href="____va__arg_8h.html" target="_top" xlink:title=" ">
<polygon fill="white" stroke="#666666" points="1208.5,-217 1098.5,-217 1098.5,-187 1208.5,-187 1208.5,-217"/>
<text text-anchor="start" x="1106.5" y="-205" font-family="Helvetica,sans-Serif" font-size="10.00">Runtime.PPCEABI.H/</text>
<text text-anchor="middle" x="1153.5" y="-194" font-family="Helvetica,sans-Serif" font-size="10.00">__va_arg.h</text>
</a>
</g>
</g>
<!-- Node11&#45;&gt;Node12 -->
<g id="edge13" class="edge">
<title>Node11&#45;&gt;Node12</title>
<path fill="none" stroke="#63b8ff" d="M977.78,-313.06C1007.92,-294.18 1078.69,-249.86 1120.64,-223.58"/>
<polygon fill="#63b8ff" stroke="#63b8ff" points="1122.5,-226.55 1129.11,-218.27 1118.78,-220.62 1122.5,-226.55"/>
</g>
<!-- Node13 -->
<g id="node13" class="node">
<title>Node13</title>
<g id="a_node13"><a xlink:href="dvd_8h.html" target="_top" xlink:title=" ">
<polygon fill="white" stroke="#666666" points="1246.5,-151 1154.5,-151 1154.5,-132 1246.5,-132 1246.5,-151"/>
<text text-anchor="middle" x="1200.5" y="-139" font-family="Helvetica,sans-Serif" font-size="10.00">dolphin/dvd/dvd.h</text>
</a>
</g>
</g>
<!-- Node11&#45;&gt;Node13 -->
<g id="edge15" class="edge">
<title>Node11&#45;&gt;Node13</title>
<path fill="none" stroke="#63b8ff" d="M987.1,-313.06C1048.8,-289.58 1210.64,-227.26 1217.5,-217 1228.76,-200.15 1220.53,-176.89 1212.06,-160.86"/>
<polygon fill="#63b8ff" stroke="#63b8ff" points="1215.2,-159.29 1207.16,-152.4 1209.14,-162.8 1215.2,-159.29"/>
</g>
<!-- Node14 -->
<g id="node14" class="node">
<title>Node14</title>
<g id="a_node14"><a xlink:href="OSAlarm_8h.html" target="_top" xlink:title=" ">
<polygon fill="white" stroke="#666666" points="193,-272 82,-272 82,-253 193,-253 193,-272"/>
<text text-anchor="middle" x="137.5" y="-260" font-family="Helvetica,sans-Serif" font-size="10.00">dolphin/os/OSAlarm.h</text>
</a>
</g>
</g>
<!-- Node11&#45;&gt;Node14 -->
<g id="edge17" class="edge">
<title>Node11&#45;&gt;Node14</title>
<path fill="none" stroke="#63b8ff" d="M920.39,-319.98C804.78,-314.38 478.27,-297.37 207.5,-272 206.49,-271.91 205.47,-271.81 204.44,-271.71"/>
<polygon fill="#63b8ff" stroke="#63b8ff" points="205.07,-268.25 194.76,-270.71 204.35,-275.22 205.07,-268.25"/>
</g>
<!-- Node15 -->
<g id="node15" class="node">
<title>Node15</title>
<g id="a_node15"><a xlink:href="OSTime_8h.html" target="_top" xlink:title=" ">
<polygon fill="white" stroke="#666666" points="107,-211.5 0,-211.5 0,-192.5 107,-192.5 107,-211.5"/>
<text text-anchor="middle" x="53.5" y="-199.5" font-family="Helvetica,sans-Serif" font-size="10.00">dolphin/os/OSTime.h</text>
</a>
</g>
</g>
<!-- Node11&#45;&gt;Node15 -->
<g id="edge60" class="edge">
<title>Node11&#45;&gt;Node15</title>
<path fill="none" stroke="#63b8ff" d="M920.11,-322.48C750.56,-323.98 138.88,-325.58 72.5,-272 58.16,-260.42 54.06,-239.09 53.14,-223.2"/>
<polygon fill="#63b8ff" stroke="#63b8ff" points="56.65,-223.37 52.99,-213.43 49.65,-223.48 56.65,-223.37"/>
</g>
<!-- Node16 -->
<g id="node16" class="node">
<title>Node16</title>
<g id="a_node16"><a xlink:href="OSError_8h.html" target="_top" xlink:title=" ">
<polygon fill="white" stroke="#666666" points="403.5,-211.5 297.5,-211.5 297.5,-192.5 403.5,-192.5 403.5,-211.5"/>
<text text-anchor="middle" x="350.5" y="-199.5" font-family="Helvetica,sans-Serif" font-size="10.00">dolphin/os/OSError.h</text>
</a>
</g>
</g>
<!-- Node11&#45;&gt;Node16 -->
<g id="edge32" class="edge">
<title>Node11&#45;&gt;Node16</title>
<path fill="none" stroke="#63b8ff" d="M920.28,-321.98C782.05,-321.45 357.45,-316.23 316.5,-272 302.39,-256.76 317.97,-234.58 332.37,-219.51"/>
<polygon fill="#63b8ff" stroke="#63b8ff" points="334.7,-222.12 339.4,-212.63 329.8,-217.12 334.7,-222.12"/>
</g>
<!-- Node17 -->
<g id="node17" class="node">
<title>Node17</title>
<g id="a_node17"><a xlink:href="OSContext_8h.html" target="_top" xlink:title=" ">
<polygon fill="white" stroke="#666666" points="707,-151 588,-151 588,-132 707,-132 707,-151"/>
<text text-anchor="middle" x="647.5" y="-139" font-family="Helvetica,sans-Serif" font-size="10.00">dolphin/os/OSContext.h</text>
</a>
</g>
</g>
<!-- Node11&#45;&gt;Node17 -->
<g id="edge31" class="edge">
<title>Node11&#45;&gt;Node17</title>
<path fill="none" stroke="#63b8ff" d="M933.75,-313.08C903.42,-303.74 855.19,-288.2 814.5,-272 795.84,-264.57 792.16,-260.44 773.5,-253 726.89,-234.42 700.63,-253.78 666.5,-217 652.75,-202.18 648.62,-178.83 647.54,-162.23"/>
<polygon fill="#63b8ff" stroke="#63b8ff" points="651.05,-162.5 647.24,-152.61 644.05,-162.71 651.05,-162.5"/>
</g>
<!-- Node18 -->
<g id="node18" class="node">
<title>Node18</title>
<g id="a_node18"><a xlink:href="OSAlloc_8h.html" target="_top" xlink:title=" ">
<polygon fill="white" stroke="#666666" points="1257,-272 1150,-272 1150,-253 1257,-253 1257,-272"/>
<text text-anchor="middle" x="1203.5" y="-260" font-family="Helvetica,sans-Serif" font-size="10.00">dolphin/os/OSAlloc.h</text>
</a>
</g>
</g>
<!-- Node11&#45;&gt;Node18 -->
<g id="edge23" class="edge">
<title>Node11&#45;&gt;Node18</title>
<path fill="none" stroke="#63b8ff" d="M1000.21,-313.05C1041.85,-302.9 1109.9,-286.31 1155.67,-275.16"/>
<polygon fill="#63b8ff" stroke="#63b8ff" points="1156.43,-278.57 1165.32,-272.81 1154.78,-271.77 1156.43,-278.57"/>
</g>
<!-- Node19 -->
<g id="node19" class="node">
<title>Node19</title>
<g id="a_node19"><a xlink:href="OSArena_8h.html" target="_top" xlink:title=" ">
<polygon fill="white" stroke="#666666" points="1386,-272 1275,-272 1275,-253 1386,-253 1386,-272"/>
<text text-anchor="middle" x="1330.5" y="-260" font-family="Helvetica,sans-Serif" font-size="10.00">dolphin/os/OSArena.h</text>
</a>
</g>
</g>
<!-- Node11&#45;&gt;Node19 -->
<g id="edge25" class="edge">
<title>Node11&#45;&gt;Node19</title>
<path fill="none" stroke="#63b8ff" d="M1006.68,-315.12C1070.03,-305.02 1188.72,-286.1 1263.47,-274.18"/>
<polygon fill="#63b8ff" stroke="#63b8ff" points="1263.8,-277.68 1273.13,-272.65 1262.7,-270.76 1263.8,-277.68"/>
</g>
<!-- Node20 -->
<g id="node20" class="node">
<title>Node20</title>
<g id="a_node20"><a xlink:href="OSAudioSystem_8h.html" target="_top" xlink:title=" ">
<polygon fill="white" stroke="#666666" points="1484,-151 1341,-151 1341,-132 1484,-132 1484,-151"/>
<text text-anchor="middle" x="1412.5" y="-139" font-family="Helvetica,sans-Serif" font-size="10.00">dolphin/os/OSAudioSystem.h</text>
</a>
</g>
</g>
<!-- Node11&#45;&gt;Node20 -->
<g id="edge27" class="edge">
<title>Node11&#45;&gt;Node20</title>
<path fill="none" stroke="#63b8ff" d="M1006.99,-319.93C1110.91,-314.58 1367.1,-298.79 1394.5,-272 1423.64,-243.52 1420.76,-191.3 1416.44,-162.65"/>
<polygon fill="#63b8ff" stroke="#63b8ff" points="1419.89,-162.05 1414.73,-152.8 1413,-163.25 1419.89,-162.05"/>
</g>
<!-- Node21 -->
<g id="node21" class="node">
<title>Node21</title>
<g id="a_node21"><a xlink:href="OSCache_8h.html" target="_top" xlink:title=" ">
<polygon fill="white" stroke="#666666" points="1556,-272 1443,-272 1443,-253 1556,-253 1556,-272"/>
<text text-anchor="middle" x="1499.5" y="-260" font-family="Helvetica,sans-Serif" font-size="10.00">dolphin/os/OSCache.h</text>
</a>
</g>
</g>
<!-- Node11&#45;&gt;Node21 -->
<g id="edge29" class="edge">
<title>Node11&#45;&gt;Node21</title>
<path fill="none" stroke="#63b8ff" d="M1006.79,-317.52C1089.01,-308.97 1273.4,-289.62 1428.5,-272 1429.5,-271.89 1430.5,-271.77 1431.52,-271.66"/>
<polygon fill="#63b8ff" stroke="#63b8ff" points="1431.51,-275.18 1441.04,-270.55 1430.7,-268.23 1431.51,-275.18"/>
</g>
<!-- Node22 -->
<g id="node22" class="node">
<title>Node22</title>
<g id="a_node22"><a xlink:href="OSExec_8h.html" target="_top" xlink:title=" ">
<polygon fill="white" stroke="#666666" points="1681,-272 1574,-272 1574,-253 1681,-253 1681,-272"/>
<text text-anchor="middle" x="1627.5" y="-260" font-family="Helvetica,sans-Serif" font-size="10.00">dolphin/os/OSExec.h</text>
</a>
</g>
</g>
<!-- Node11&#45;&gt;Node22 -->
<g id="edge33" class="edge">
<title>Node11&#45;&gt;Node22</title>
<path fill="none" stroke="#63b8ff" d="M1006.64,-319.21C1103.91,-312.75 1347.96,-295.59 1562.59,-272.27"/>
<polygon fill="#63b8ff" stroke="#63b8ff" points="1562.69,-275.78 1572.25,-271.21 1561.93,-268.82 1562.69,-275.78"/>
</g>
<!-- Node23 -->
<g id="node23" class="node">
<title>Node23</title>
<g id="a_node23"><a xlink:href="OSFont_8h.html" target="_top" xlink:title=" ">
<polygon fill="white" stroke="#666666" points="1684,-151 1579,-151 1579,-132 1684,-132 1684,-151"/>
<text text-anchor="middle" x="1631.5" y="-139" font-family="Helvetica,sans-Serif" font-size="10.00">dolphin/os/OSFont.h</text>
</a>
</g>
</g>
<!-- Node11&#45;&gt;Node23 -->
<g id="edge35" class="edge">
<title>Node11&#45;&gt;Node23</title>
<path fill="none" stroke="#63b8ff" d="M1006.75,-322.37C1156.12,-323.21 1643.77,-322.05 1690.5,-272 1721.69,-238.59 1677,-185.85 1649.8,-159.16"/>
<polygon fill="#63b8ff" stroke="#63b8ff" points="1652.46,-156.86 1642.8,-152.51 1647.64,-161.93 1652.46,-156.86"/>
</g>
<!-- Node24 -->
<g id="node24" class="node">
<title>Node24</title>
<g id="a_node24"><a xlink:href="OSInterrupt_8h.html" target="_top" xlink:title=" ">
<polygon fill="white" stroke="#666666" points="797.5,-211.5 675.5,-211.5 675.5,-192.5 797.5,-192.5 797.5,-211.5"/>
<text text-anchor="middle" x="736.5" y="-199.5" font-family="Helvetica,sans-Serif" font-size="10.00">dolphin/os/OSInterrupt.h</text>
</a>
</g>
</g>
<!-- Node11&#45;&gt;Node24 -->
<g id="edge37" class="edge">
<title>Node11&#45;&gt;Node24</title>
<path fill="none" stroke="#63b8ff" d="M941.02,-313.05C917.93,-303.62 881.13,-287.96 850.5,-272 817.94,-255.03 781.94,-232.59 759.28,-217.97"/>
<polygon fill="#63b8ff" stroke="#63b8ff" points="761.43,-215.2 751.13,-212.68 757.61,-221.07 761.43,-215.2"/>
</g>
<!-- Node25 -->
<g id="node25" class="node">
<title>Node25</title>
<g id="a_node25"><a xlink:href="OSLink_8h.html" target="_top" xlink:title=" ">
<polygon fill="white" stroke="#666666" points="1806.5,-151 1702.5,-151 1702.5,-132 1806.5,-132 1806.5,-151"/>
<text text-anchor="middle" x="1754.5" y="-139" font-family="Helvetica,sans-Serif" font-size="10.00">dolphin/os/OSLink.h</text>
</a>
</g>
</g>
<!-- Node11&#45;&gt;Node25 -->
<g id="edge39" class="edge">
<title>Node11&#45;&gt;Node25</title>
<path fill="none" stroke="#63b8ff" d="M1006.98,-321.82C1157.84,-320.84 1652.54,-314.39 1708.5,-272 1742.96,-245.9 1751.68,-191.87 1753.84,-162.53"/>
<polygon fill="#63b8ff" stroke="#63b8ff" points="1757.32,-162.97 1754.35,-152.8 1750.33,-162.61 1757.32,-162.97"/>
</g>
<!-- Node26 -->
<g id="node26" class="node">
<title>Node26</title>
<g id="a_node26"><a xlink:href="OSMemory_8h.html" target="_top" xlink:title=" ">
<polygon fill="white" stroke="#666666" points="979.5,-272 859.5,-272 859.5,-253 979.5,-253 979.5,-272"/>
<text text-anchor="middle" x="919.5" y="-260" font-family="Helvetica,sans-Serif" font-size="10.00">dolphin/os/OSMemory.h</text>
</a>
</g>
</g>
<!-- Node11&#45;&gt;Node26 -->
<g id="edge41" class="edge">
<title>Node11&#45;&gt;Node26</title>
<path fill="none" stroke="#63b8ff" d="M957.01,-313.37C950.64,-304.9 940.74,-291.74 932.71,-281.07"/>
<polygon fill="#63b8ff" stroke="#63b8ff" points="935.74,-279.26 926.93,-273.38 930.14,-283.47 935.74,-279.26"/>
</g>
<!-- Node27 -->
<g id="node27" class="node">
<title>Node27</title>
<g id="a_node27"><a xlink:href="OSMessage_8h.html" target="_top" xlink:title=" ">
<polygon fill="white" stroke="#666666" points="765,-272 640,-272 640,-253 765,-253 765,-272"/>
<text text-anchor="middle" x="702.5" y="-260" font-family="Helvetica,sans-Serif" font-size="10.00">dolphin/os/OSMessage.h</text>
</a>
</g>
</g>
<!-- Node11&#45;&gt;Node27 -->
<g id="edge44" class="edge">
<title>Node11&#45;&gt;Node27</title>
<path fill="none" stroke="#63b8ff" d="M923.58,-313.05C878,-302.84 803.35,-286.1 753.57,-274.95"/>
<polygon fill="#63b8ff" stroke="#63b8ff" points="754.42,-271.55 743.9,-272.78 752.89,-278.38 754.42,-271.55"/>
</g>
<!-- Node28 -->
<g id="node28" class="node">
<title>Node28</title>
<g id="a_node28"><a xlink:href="OSThread_8h.html" target="_top" xlink:title=" ">
<polygon fill="white" stroke="#666666" points="619.5,-211.5 503.5,-211.5 503.5,-192.5 619.5,-192.5 619.5,-211.5"/>
<text text-anchor="middle" x="561.5" y="-199.5" font-family="Helvetica,sans-Serif" font-size="10.00">dolphin/os/OSThread.h</text>
</a>
</g>
</g>
<!-- Node11&#45;&gt;Node28 -->
<g id="edge59" class="edge">
<title>Node11&#45;&gt;Node28</title>
<path fill="none" stroke="#63b8ff" d="M920.25,-318.88C842.02,-312.68 680.48,-297.21 630.5,-272 606.95,-260.12 586.53,-237.17 574.13,-221.01"/>
<polygon fill="#63b8ff" stroke="#63b8ff" points="577.14,-219.19 568.4,-213.2 571.5,-223.33 577.14,-219.19"/>
</g>
<!-- Node29 -->
<g id="node29" class="node">
<title>Node29</title>
<g id="a_node29"><a xlink:href="OSMutex_8h.html" target="_top" xlink:title=" ">
<polygon fill="white" stroke="#666666" points="583.5,-272 471.5,-272 471.5,-253 583.5,-253 583.5,-272"/>
<text text-anchor="middle" x="527.5" y="-260" font-family="Helvetica,sans-Serif" font-size="10.00">dolphin/os/OSMutex.h</text>
</a>
</g>
</g>
<!-- Node11&#45;&gt;Node29 -->
<g id="edge47" class="edge">
<title>Node11&#45;&gt;Node29</title>
<path fill="none" stroke="#63b8ff" d="M920.1,-316.18C843.88,-305.95 685.48,-284.7 594.91,-272.54"/>
<polygon fill="#63b8ff" stroke="#63b8ff" points="595.55,-269.1 585.17,-271.24 594.62,-276.04 595.55,-269.1"/>
</g>
<!-- Node30 -->
<g id="node30" class="node">
<title>Node30</title>
<g id="a_node30"><a xlink:href="OSReboot_8h.html" target="_top" xlink:title=" ">
<polygon fill="white" stroke="#666666" points="241.5,-211.5 125.5,-211.5 125.5,-192.5 241.5,-192.5 241.5,-211.5"/>
<text text-anchor="middle" x="183.5" y="-199.5" font-family="Helvetica,sans-Serif" font-size="10.00">dolphin/os/OSReboot.h</text>
</a>
</g>
</g>
<!-- Node11&#45;&gt;Node30 -->
<g id="edge49" class="edge">
<title>Node11&#45;&gt;Node30</title>
<path fill="none" stroke="#63b8ff" d="M920.07,-320.87C773.97,-316.79 306.03,-301.55 245.5,-272 222.94,-260.99 204.87,-237.81 194.18,-221.36"/>
<polygon fill="#63b8ff" stroke="#63b8ff" points="197.27,-219.69 189.05,-213.01 191.3,-223.36 197.27,-219.69"/>
</g>
<!-- Node31 -->
<g id="node31" class="node">
<title>Node31</title>
<g id="a_node31"><a xlink:href="OSReset_8h.html" target="_top" xlink:title=" ">
<polygon fill="white" stroke="#666666" points="400,-151 289,-151 289,-132 400,-132 400,-151"/>
<text text-anchor="middle" x="344.5" y="-139" font-family="Helvetica,sans-Serif" font-size="10.00">dolphin/os/OSReset.h</text>
</a>
</g>
</g>
<!-- Node11&#45;&gt;Node31 -->
<g id="edge51" class="edge">
<title>Node11&#45;&gt;Node31</title>
<path fill="none" stroke="#63b8ff" d="M920.23,-321.42C781.78,-319.19 355.88,-309.33 307.5,-272 276.85,-248.35 271.67,-221.86 288.5,-187 294.45,-174.67 305.66,-164.71 316.5,-157.36"/>
<polygon fill="#63b8ff" stroke="#63b8ff" points="318.25,-160.39 324.9,-152.15 314.56,-154.45 318.25,-160.39"/>
</g>
<!-- Node32 -->
<g id="node32" class="node">
<title>Node32</title>
<g id="a_node32"><a xlink:href="OSResetSW_8h.html" target="_top" xlink:title=" ">
<polygon fill="white" stroke="#666666" points="453,-272 326,-272 326,-253 453,-253 453,-272"/>
<text text-anchor="middle" x="389.5" y="-260" font-family="Helvetica,sans-Serif" font-size="10.00">dolphin/os/OSResetSW.h</text>
</a>
</g>
</g>
<!-- Node11&#45;&gt;Node32 -->
<g id="edge53" class="edge">
<title>Node11&#45;&gt;Node32</title>
<path fill="none" stroke="#63b8ff" d="M920.25,-317.93C835.25,-309.87 640.17,-291.11 464.47,-272.2"/>
<polygon fill="#63b8ff" stroke="#63b8ff" points="465.02,-268.73 454.7,-271.14 464.27,-275.69 465.02,-268.73"/>
</g>
<!-- Node33 -->
<g id="node33" class="node">
<title>Node33</title>
<g id="a_node33"><a xlink:href="OSRtc_8h.html" target="_top" xlink:title=" ">
<polygon fill="white" stroke="#666666" points="955,-211.5 854,-211.5 854,-192.5 955,-192.5 955,-211.5"/>
<text text-anchor="middle" x="904.5" y="-199.5" font-family="Helvetica,sans-Serif" font-size="10.00">dolphin/os/OSRtc.h</text>
</a>
</g>
</g>
<!-- Node11&#45;&gt;Node33 -->
<g id="edge55" class="edge">
<title>Node11&#45;&gt;Node33</title>
<path fill="none" stroke="#63b8ff" d="M971.43,-313.09C982.49,-299.53 999.96,-273.16 988.5,-253 978.85,-236.02 960.89,-224.2 944.05,-216.33"/>
<polygon fill="#63b8ff" stroke="#63b8ff" points="945.75,-213.25 935.18,-212.53 943,-219.69 945.75,-213.25"/>
</g>
<!-- Node34 -->
<g id="node34" class="node">
<title>Node34</title>
<g id="a_node34"><a xlink:href="OSSync_8h.html" target="_top" xlink:title=" ">
<polygon fill="white" stroke="#666666" points="1080,-211.5 973,-211.5 973,-192.5 1080,-192.5 1080,-211.5"/>
<text text-anchor="middle" x="1026.5" y="-199.5" font-family="Helvetica,sans-Serif" font-size="10.00">dolphin/os/OSSync.h</text>
</a>
</g>
</g>
<!-- Node11&#45;&gt;Node34 -->
<g id="edge57" class="edge">
<title>Node11&#45;&gt;Node34</title>
<path fill="none" stroke="#63b8ff" d="M972.51,-313.19C981.71,-303.76 995.82,-287.98 1004.5,-272 1012.95,-256.45 1018.76,-237.14 1022.28,-222.9"/>
<polygon fill="#63b8ff" stroke="#63b8ff" points="1025.63,-223.93 1024.45,-213.4 1018.81,-222.37 1025.63,-223.93"/>
</g>
<!-- Node12&#45;&gt;Node9 -->
<g id="edge14" class="edge">
<title>Node12&#45;&gt;Node9</title>
<path fill="none" stroke="#63b8ff" d="M1146.7,-186.72C1140.67,-171.76 1134.39,-148.22 1145.5,-132 1162.74,-106.83 1194.62,-94.33 1222.38,-88.12"/>
<polygon fill="#63b8ff" stroke="#63b8ff" points="1222.95,-91.57 1232.08,-86.19 1221.59,-84.71 1222.95,-91.57"/>
</g>
<!-- Node13&#45;&gt;Node9 -->
<g id="edge16" class="edge">
<title>Node13&#45;&gt;Node9</title>
<path fill="none" stroke="#63b8ff" d="M1211.74,-131.62C1223.04,-122.68 1240.71,-108.72 1254.42,-97.87"/>
<polygon fill="#63b8ff" stroke="#63b8ff" points="1256.29,-100.85 1261.97,-91.91 1251.95,-95.36 1256.29,-100.85"/>
</g>
<!-- Node14&#45;&gt;Node15 -->
<g id="edge18" class="edge">
<title>Node14&#45;&gt;Node15</title>
<path fill="none" stroke="#63b8ff" d="M124.74,-252.62C111.67,-243.51 91.09,-229.18 75.4,-218.25"/>
<polygon fill="#63b8ff" stroke="#63b8ff" points="77.83,-215.68 67.62,-212.83 73.83,-221.42 77.83,-215.68"/>
</g>
<!-- Node14&#45;&gt;Node16 -->
<g id="edge20" class="edge">
<title>Node14&#45;&gt;Node16</title>
<path fill="none" stroke="#63b8ff" d="M169.85,-252.62C206.44,-242.56 266.23,-226.15 306.91,-214.97"/>
<polygon fill="#63b8ff" stroke="#63b8ff" points="307.67,-218.39 316.39,-212.37 305.82,-211.64 307.67,-218.39"/>
</g>
<!-- Node15&#45;&gt;Node9 -->
<g id="edge19" class="edge">
<title>Node15&#45;&gt;Node9</title>
<path fill="none" stroke="#63b8ff" d="M71.58,-192.1C104.07,-176.6 174.87,-145.07 238.5,-132 429.65,-92.73 1039.74,-84.12 1222.37,-82.4"/>
<polygon fill="#63b8ff" stroke="#63b8ff" points="1222.29,-85.9 1232.25,-82.31 1222.22,-78.9 1222.29,-85.9"/>
</g>
<!-- Node16&#45;&gt;Node17 -->
<g id="edge21" class="edge">
<title>Node16&#45;&gt;Node17</title>
<path fill="none" stroke="#63b8ff" d="M395.93,-192.05C448.23,-181.75 534.17,-164.82 590.81,-153.67"/>
<polygon fill="#63b8ff" stroke="#63b8ff" points="591.45,-157.11 600.59,-151.74 590.1,-150.24 591.45,-157.11"/>
</g>
<!-- Node17&#45;&gt;Node9 -->
<g id="edge22" class="edge">
<title>Node17&#45;&gt;Node9</title>
<path fill="none" stroke="#63b8ff" d="M707.34,-134.92C829.7,-123.5 1106.75,-97.65 1222.33,-86.87"/>
<polygon fill="#63b8ff" stroke="#63b8ff" points="1222.52,-90.37 1232.15,-85.95 1221.87,-83.4 1222.52,-90.37"/>
</g>
<!-- Node18&#45;&gt;Node9 -->
<g id="edge24" class="edge">
<title>Node18&#45;&gt;Node9</title>
<path fill="none" stroke="#63b8ff" d="M1216.89,-252.56C1227.74,-244.57 1242.5,-231.84 1250.5,-217 1270.49,-179.91 1274.31,-129.59 1274.76,-102.05"/>
<polygon fill="#63b8ff" stroke="#63b8ff" points="1278.26,-102.34 1274.78,-92.34 1271.26,-102.33 1278.26,-102.34"/>
</g>
<!-- Node19&#45;&gt;Node9 -->
<g id="edge26" class="edge">
<title>Node19&#45;&gt;Node9</title>
<path fill="none" stroke="#63b8ff" d="M1327.8,-252.84C1319.28,-225.54 1292.84,-140.78 1280.7,-101.88"/>
<polygon fill="#63b8ff" stroke="#63b8ff" points="1284.08,-100.94 1277.76,-92.44 1277.39,-103.03 1284.08,-100.94"/>
</g>
<!-- Node20&#45;&gt;Node9 -->
<g id="edge28" class="edge">
<title>Node20&#45;&gt;Node9</title>
<path fill="none" stroke="#63b8ff" d="M1391.54,-131.62C1368.85,-121.99 1332.38,-106.54 1306.19,-95.43"/>
<polygon fill="#63b8ff" stroke="#63b8ff" points="1307.62,-92.24 1297.05,-91.56 1304.89,-98.68 1307.62,-92.24"/>
</g>
<!-- Node21&#45;&gt;Node9 -->
<g id="edge30" class="edge">
<title>Node21&#45;&gt;Node9</title>
<path fill="none" stroke="#63b8ff" d="M1502.22,-252.67C1508.7,-229.72 1522.37,-167.48 1492.5,-132 1471.5,-107.06 1384.25,-93.32 1326.69,-86.82"/>
<polygon fill="#63b8ff" stroke="#63b8ff" points="1327.08,-83.35 1316.76,-85.75 1326.32,-90.31 1327.08,-83.35"/>
</g>
<!-- Node22&#45;&gt;Node9 -->
<g id="edge34" class="edge">
<title>Node22&#45;&gt;Node9</title>
<path fill="none" stroke="#63b8ff" d="M1622.39,-252.52C1608.3,-228.63 1566.33,-163.24 1512.5,-132 1454.57,-98.38 1377.04,-87.23 1326.45,-83.61"/>
<polygon fill="#63b8ff" stroke="#63b8ff" points="1326.85,-80.12 1316.65,-82.99 1326.41,-87.11 1326.85,-80.12"/>
</g>
<!-- Node23&#45;&gt;Node9 -->
<g id="edge36" class="edge">
<title>Node23&#45;&gt;Node9</title>
<path fill="none" stroke="#63b8ff" d="M1578.82,-131.87C1511.08,-120.77 1394.13,-101.6 1326.64,-90.54"/>
<polygon fill="#63b8ff" stroke="#63b8ff" points="1327.37,-87.12 1316.94,-88.95 1326.24,-94.03 1327.37,-87.12"/>
</g>
<!-- Node24&#45;&gt;Node17 -->
<g id="edge38" class="edge">
<title>Node24&#45;&gt;Node17</title>
<path fill="none" stroke="#63b8ff" d="M722.98,-192.12C709.13,-183.01 687.32,-168.68 670.7,-157.75"/>
<polygon fill="#63b8ff" stroke="#63b8ff" points="672.69,-154.87 662.41,-152.3 668.84,-160.72 672.69,-154.87"/>
</g>
<!-- Node25&#45;&gt;Node9 -->
<g id="edge40" class="edge">
<title>Node25&#45;&gt;Node9</title>
<path fill="none" stroke="#63b8ff" d="M1702.27,-133.15C1699.3,-132.76 1696.36,-132.37 1693.5,-132 1561.41,-114.92 1405.61,-96.88 1326.39,-87.86"/>
<polygon fill="#63b8ff" stroke="#63b8ff" points="1327.11,-84.42 1316.78,-86.77 1326.32,-91.37 1327.11,-84.42"/>
</g>
<!-- Node26&#45;&gt;Node9 -->
<g id="edge42" class="edge">
<title>Node26&#45;&gt;Node9</title>
<path fill="none" stroke="#63b8ff" d="M890.72,-252.52C874.02,-245.66 854.39,-234.37 844.5,-217 837.9,-205.41 836.45,-197.63 844.5,-187 890.03,-126.94 1118.22,-97.27 1222.44,-86.69"/>
<polygon fill="#63b8ff" stroke="#63b8ff" points="1222.51,-90.2 1232.12,-85.72 1221.82,-83.23 1222.51,-90.2"/>
</g>
<!-- Node26&#45;&gt;Node24 -->
<g id="edge43" class="edge">
<title>Node26&#45;&gt;Node24</title>
<path fill="none" stroke="#63b8ff" d="M891.71,-252.62C860.67,-242.69 810.22,-226.57 775.3,-215.4"/>
<polygon fill="#63b8ff" stroke="#63b8ff" points="776.59,-212.14 766,-212.43 774.46,-218.81 776.59,-212.14"/>
</g>
<!-- Node27&#45;&gt;Node28 -->
<g id="edge45" class="edge">
<title>Node27&#45;&gt;Node28</title>
<path fill="none" stroke="#63b8ff" d="M681.09,-252.62C657.79,-242.95 620.31,-227.4 593.52,-216.28"/>
<polygon fill="#63b8ff" stroke="#63b8ff" points="595.09,-213.15 584.51,-212.55 592.41,-219.61 595.09,-213.15"/>
</g>
<!-- Node28&#45;&gt;Node17 -->
<g id="edge46" class="edge">
<title>Node28&#45;&gt;Node17</title>
<path fill="none" stroke="#63b8ff" d="M574.56,-192.12C587.95,-183.01 609.02,-168.68 625.08,-157.75"/>
<polygon fill="#63b8ff" stroke="#63b8ff" points="626.76,-160.84 633.06,-152.32 622.83,-155.05 626.76,-160.84"/>
</g>
<!-- Node29&#45;&gt;Node28 -->
<g id="edge48" class="edge">
<title>Node29&#45;&gt;Node28</title>
<path fill="none" stroke="#63b8ff" d="M532.52,-252.87C537.29,-244.66 544.62,-232.04 550.72,-221.55"/>
<polygon fill="#63b8ff" stroke="#63b8ff" points="553.7,-223.38 555.7,-212.98 547.65,-219.86 553.7,-223.38"/>
</g>
<!-- Node30&#45;&gt;Node9 -->
<g id="edge50" class="edge">
<title>Node30&#45;&gt;Node9</title>
<path fill="none" stroke="#63b8ff" d="M192.01,-192.18C207.64,-176.65 242.69,-144.88 279.5,-132 368.64,-100.8 1030.03,-86.44 1222.25,-82.9"/>
<polygon fill="#63b8ff" stroke="#63b8ff" points="1222.25,-86.4 1232.19,-82.72 1222.12,-79.4 1222.25,-86.4"/>
</g>
<!-- Node31&#45;&gt;Node9 -->
<g id="edge52" class="edge">
<title>Node31&#45;&gt;Node9</title>
<path fill="none" stroke="#63b8ff" d="M400.15,-135.19C412.75,-134.06 426.08,-132.93 438.5,-132 734.76,-109.75 1090.69,-91.16 1222.29,-84.57"/>
<polygon fill="#63b8ff" stroke="#63b8ff" points="1222.26,-88.07 1232.07,-84.08 1221.91,-81.08 1222.26,-88.07"/>
</g>
<!-- Node32&#45;&gt;Node9 -->
<g id="edge54" class="edge">
<title>Node32&#45;&gt;Node9</title>
<path fill="none" stroke="#63b8ff" d="M398.31,-252.7C423.61,-228.08 499.74,-158.6 578.5,-132 697.81,-91.7 1082.38,-83.88 1222.67,-82.36"/>
<polygon fill="#63b8ff" stroke="#63b8ff" points="1222.43,-85.87 1232.39,-82.27 1222.36,-78.87 1222.43,-85.87"/>
</g>
<!-- Node33&#45;&gt;Node9 -->
<g id="edge56" class="edge">
<title>Node33&#45;&gt;Node9</title>
<path fill="none" stroke="#63b8ff" d="M927.8,-192.09C963.89,-178.42 1035.64,-151.77 1097.5,-132 1141.82,-117.83 1193.04,-103.59 1228.94,-93.95"/>
<polygon fill="#63b8ff" stroke="#63b8ff" points="1229.81,-97.34 1238.57,-91.38 1228,-90.58 1229.81,-97.34"/>
</g>
<!-- Node34&#45;&gt;Node9 -->
<g id="edge58" class="edge">
<title>Node34&#45;&gt;Node9</title>
<path fill="none" stroke="#63b8ff" d="M1038.41,-192.22C1057.93,-178.13 1098.28,-150.2 1135.5,-132 1167.13,-116.53 1204.8,-103.28 1232.95,-94.31"/>
<polygon fill="#63b8ff" stroke="#63b8ff" points="1233.68,-97.75 1242.17,-91.42 1231.58,-91.07 1233.68,-97.75"/>
</g>
</g>
</svg>
        <g id="navigator" transform="translate(0 0)" fill="#404254">
                <rect fill="#f2f5e9" fill-opacity="0.5" stroke="#606060" stroke-width=".5" x="0" y="0" width="60" height="60"/>
                <use id="zoomplus" xlink:href="#zoomPlus" x="17" y="9" onmousedown="handleZoom(evt,'in')"/>
                <use id="zoomminus" xlink:href="#zoomMin" x="42" y="9" onmousedown="handleZoom(evt,'out')"/>
                <use id="reset" xlink:href="#resetDef" x="30" y="36" onmousedown="handleReset()"/>
                <g id="arrowUp" xlink:href="#dirArrow" transform="translate(30 24)" onmousedown="handlePan(0,-1)">
                  <use xlink:href="#rim" fill="#404040">
                        <set attributeName="fill" to="#808080" begin="arrowUp.mouseover" end="arrowUp.mouseout"/>
                  </use>
                  <path fill="none" stroke="white" stroke-width="1.5" d="M0,-3.0v7 M-2.5,-0.5L0,-3.0L2.5,-0.5"/>
                </g>
                <g id="arrowRight" xlink:href="#dirArrow" transform="rotate(90) translate(36 -43)" onmousedown="handlePan(1,0)">
                  <use xlink:href="#rim" fill="#404040">
                        <set attributeName="fill" to="#808080" begin="arrowRight.mouseover" end="arrowRight.mouseout"/>
                  </use>
                  <path fill="none" stroke="white" stroke-width="1.5" d="M0,-3.0v7 M-2.5,-0.5L0,-3.0L2.5,-0.5"/>
                </g>
                <g id="arrowDown" xlink:href="#dirArrow" transform="rotate(180) translate(-30 -48)" onmousedown="handlePan(0,1)">
                  <use xlink:href="#rim" fill="#404040">
                        <set attributeName="fill" to="#808080" begin="arrowDown.mouseover" end="arrowDown.mouseout"/>
                  </use>
                  <path fill="none" stroke="white" stroke-width="1.5" d="M0,-3.0v7 M-2.5,-0.5L0,-3.0L2.5,-0.5"/>
                </g>
                <g id="arrowLeft" xlink:href="#dirArrow" transform="rotate(270) translate(-36 17)" onmousedown="handlePan(-1,0)">
                  <use xlink:href="#rim" fill="#404040">
                        <set attributeName="fill" to="#808080" begin="arrowLeft.mouseover" end="arrowLeft.mouseout"/>
                  </use>
                  <path fill="none" stroke="white" stroke-width="1.5" d="M0,-3.0v7 M-2.5,-0.5L0,-3.0L2.5,-0.5"/>
                </g>
        </g>
        <svg viewBox="0 0 15 15" width="100%" height="30px" preserveAspectRatio="xMaxYMin meet">
         <g id="arrow_out" transform="scale(0.3 0.3)">
          <a xlink:href="d__save_8h__incl_org.svg" target="_base">
           <rect id="button" ry="5" rx="5" y="6" x="6" height="38" width="38"
                fill="#f2f5e9" fill-opacity="0.5" stroke="#606060" stroke-width="1.0"/>
           <path id="arrow"
             d="M 11.500037,31.436501 C 11.940474,20.09759 22.043105,11.32322 32.158766,21.979434 L 37.068811,17.246167 C 37.068811,17.246167 37.088388,32 37.088388,32 L 22.160133,31.978069 C 22.160133,31.978069 26.997745,27.140456 26.997745,27.140456 C 18.528582,18.264221 13.291696,25.230495 11.500037,31.436501 z"
             style="fill:#404040;"/>
          </a>
         </g>
        </svg>
</svg>
