<?xml version="1.0" encoding="UTF-8" standalone="no"?>
<!DOCTYPE svg PUBLIC "-//W3C//DTD SVG 1.1//EN"
 "http://www.w3.org/Graphics/SVG/1.1/DTD/svg11.dtd">
<!-- Generated by graphviz version 7.0.5 (20221223.1930)
 -->
<!-- Title: include/d/s/d_s_play.h Pages: 1 -->
<svg width="1657pt" height="93pt"
 viewBox="0.00 0.00 1656.50 93.00" xmlns="http://www.w3.org/2000/svg" xmlns:xlink="http://www.w3.org/1999/xlink">
<g id="graph0" class="graph" transform="scale(1 1) rotate(0) translate(4 89)">
<title>include/d/s/d_s_play.h</title>
<!-- Node1 -->
<g id="node1" class="node">
<title>Node1</title>
<g id="a_node1"><a xlink:title=" ">
<polygon fill="#999999" stroke="#666666" points="889,-85 776,-85 776,-66 889,-66 889,-85"/>
<text text-anchor="middle" x="832.5" y="-73" font-family="Helvetica,sans-Serif" font-size="10.00">include/d/s/d_s_play.h</text>
</a>
</g>
</g>
<!-- Node2 -->
<g id="node2" class="node">
<title>Node2</title>
<g id="a_node2"><a xlink:href="Z2StatusMgr_8cpp.html" target="_top" xlink:title=" ">
<polygon fill="white" stroke="#666666" points="127,-30 0,-30 0,0 127,0 127,-30"/>
<text text-anchor="start" x="8" y="-18" font-family="Helvetica,sans-Serif" font-size="10.00">libs/Z2AudioLib/Z2Status</text>
<text text-anchor="middle" x="63.5" y="-7" font-family="Helvetica,sans-Serif" font-size="10.00">Mgr.cpp</text>
</a>
</g>
</g>
<!-- Node1&#45;&gt;Node2 -->
<g id="edge1" class="edge">
<title>Node1&#45;&gt;Node2</title>
<path fill="none" stroke="#63b8ff" d="M764.64,-72.99C639.84,-69.58 365.66,-59.18 136.5,-30 133.43,-29.61 130.29,-29.17 127.13,-28.69"/>
<polygon fill="#63b8ff" stroke="#63b8ff" points="764.28,-76.48 774.37,-73.25 764.47,-69.48 764.28,-76.48"/>
</g>
<!-- Node3 -->
<g id="node3" class="node">
<title>Node3</title>
<g id="a_node3"><a xlink:href="d__cc__uty_8cpp.html" target="_top" xlink:title=" ">
<polygon fill="white" stroke="#666666" points="257.5,-24.5 145.5,-24.5 145.5,-5.5 257.5,-5.5 257.5,-24.5"/>
<text text-anchor="middle" x="201.5" y="-12.5" font-family="Helvetica,sans-Serif" font-size="10.00">src/d/cc/d_cc_uty.cpp</text>
</a>
</g>
</g>
<!-- Node1&#45;&gt;Node3 -->
<g id="edge2" class="edge">
<title>Node1&#45;&gt;Node3</title>
<path fill="none" stroke="#63b8ff" d="M764.35,-72.09C657.7,-67.64 445.05,-56.13 266.5,-30 257.48,-28.68 247.83,-26.84 238.81,-24.93"/>
<polygon fill="#63b8ff" stroke="#63b8ff" points="763.94,-75.57 774.07,-72.48 764.22,-68.58 763.94,-75.57"/>
</g>
<!-- Node4 -->
<g id="node4" class="node">
<title>Node4</title>
<g id="a_node4"><a xlink:href="d__eye__hl_8cpp.html" target="_top" xlink:title=" ">
<polygon fill="white" stroke="#666666" points="373.5,-24.5 275.5,-24.5 275.5,-5.5 373.5,-5.5 373.5,-24.5"/>
<text text-anchor="middle" x="324.5" y="-12.5" font-family="Helvetica,sans-Serif" font-size="10.00">src/d/d_eye_hl.cpp</text>
</a>
</g>
</g>
<!-- Node1&#45;&gt;Node4 -->
<g id="edge3" class="edge">
<title>Node1&#45;&gt;Node4</title>
<path fill="none" stroke="#63b8ff" d="M764.2,-70.69C675.68,-65.09 516.77,-52.73 382.5,-30 374.53,-28.65 366.04,-26.82 358.07,-24.94"/>
<polygon fill="#63b8ff" stroke="#63b8ff" points="763.98,-74.19 774.18,-71.31 764.42,-67.2 763.98,-74.19"/>
</g>
<!-- Node5 -->
<g id="node5" class="node">
<title>Node5</title>
<g id="a_node5"><a xlink:href="d__file__select_8cpp.html" target="_top" xlink:title=" ">
<polygon fill="white" stroke="#666666" points="519.5,-24.5 391.5,-24.5 391.5,-5.5 519.5,-5.5 519.5,-24.5"/>
<text text-anchor="middle" x="455.5" y="-12.5" font-family="Helvetica,sans-Serif" font-size="10.00">src/d/file/d_file_select.cpp</text>
</a>
</g>
</g>
<!-- Node1&#45;&gt;Node5 -->
<g id="edge4" class="edge">
<title>Node1&#45;&gt;Node5</title>
<path fill="none" stroke="#63b8ff" d="M764.37,-65.4C702.67,-56.96 609.33,-43.66 528.5,-30 519.47,-28.47 509.83,-26.72 500.62,-24.97"/>
<polygon fill="#63b8ff" stroke="#63b8ff" points="763.63,-68.83 774.01,-66.72 764.58,-61.9 763.63,-68.83"/>
</g>
<!-- Node6 -->
<g id="node6" class="node">
<title>Node6</title>
<g id="a_node6"><a xlink:href="d__ovlp__fade2_8cpp.html" target="_top" xlink:title=" ">
<polygon fill="white" stroke="#666666" points="675.5,-24.5 537.5,-24.5 537.5,-5.5 675.5,-5.5 675.5,-24.5"/>
<text text-anchor="middle" x="606.5" y="-12.5" font-family="Helvetica,sans-Serif" font-size="10.00">src/d/ovlp/d_ovlp_fade2.cpp</text>
</a>
</g>
</g>
<!-- Node1&#45;&gt;Node6 -->
<g id="edge5" class="edge">
<title>Node1&#45;&gt;Node6</title>
<path fill="none" stroke="#63b8ff" d="M787.16,-62.76C744.09,-51.62 680.28,-35.1 641.15,-24.97"/>
<polygon fill="#63b8ff" stroke="#63b8ff" points="786.15,-66.12 796.71,-65.24 787.91,-59.34 786.15,-66.12"/>
</g>
<!-- Node7 -->
<g id="node7" class="node">
<title>Node7</title>
<g id="a_node7"><a xlink:href="d__ovlp__fade3_8cpp.html" target="_top" xlink:title=" ">
<polygon fill="white" stroke="#666666" points="831.5,-24.5 693.5,-24.5 693.5,-5.5 831.5,-5.5 831.5,-24.5"/>
<text text-anchor="middle" x="762.5" y="-12.5" font-family="Helvetica,sans-Serif" font-size="10.00">src/d/ovlp/d_ovlp_fade3.cpp</text>
</a>
</g>
</g>
<!-- Node1&#45;&gt;Node7 -->
<g id="edge6" class="edge">
<title>Node1&#45;&gt;Node7</title>
<path fill="none" stroke="#63b8ff" d="M813.25,-58.41C800.36,-47.64 783.86,-33.85 773.23,-24.97"/>
<polygon fill="#63b8ff" stroke="#63b8ff" points="810.79,-60.92 820.71,-64.64 815.28,-55.55 810.79,-60.92"/>
</g>
<!-- Node8 -->
<g id="node8" class="node">
<title>Node8</title>
<g id="a_node8"><a xlink:href="d__s__play_8cpp.html" target="_top" xlink:title=" ">
<polygon fill="white" stroke="#666666" points="955.5,-24.5 849.5,-24.5 849.5,-5.5 955.5,-5.5 955.5,-24.5"/>
<text text-anchor="middle" x="902.5" y="-12.5" font-family="Helvetica,sans-Serif" font-size="10.00">src/d/s/d_s_play.cpp</text>
</a>
</g>
</g>
<!-- Node1&#45;&gt;Node8 -->
<g id="edge7" class="edge">
<title>Node1&#45;&gt;Node8</title>
<path fill="none" stroke="#63b8ff" d="M851.75,-58.41C864.64,-47.64 881.14,-33.85 891.77,-24.97"/>
<polygon fill="#63b8ff" stroke="#63b8ff" points="849.72,-55.55 844.29,-64.64 854.21,-60.92 849.72,-55.55"/>
</g>
<!-- Node9 -->
<g id="node9" class="node">
<title>Node9</title>
<g id="a_node9"><a xlink:href="d__s__room_8cpp.html" target="_top" xlink:title=" ">
<polygon fill="white" stroke="#666666" points="1083.5,-24.5 973.5,-24.5 973.5,-5.5 1083.5,-5.5 1083.5,-24.5"/>
<text text-anchor="middle" x="1028.5" y="-12.5" font-family="Helvetica,sans-Serif" font-size="10.00">src/d/s/d_s_room.cpp</text>
</a>
</g>
</g>
<!-- Node1&#45;&gt;Node9 -->
<g id="edge8" class="edge">
<title>Node1&#45;&gt;Node9</title>
<path fill="none" stroke="#63b8ff" d="M873.26,-62.33C910.58,-51.2 964.95,-34.97 998.45,-24.97"/>
<polygon fill="#63b8ff" stroke="#63b8ff" points="872.3,-58.97 863.72,-65.18 874.3,-65.68 872.3,-58.97"/>
</g>
<!-- Node10 -->
<g id="node10" class="node">
<title>Node10</title>
<g id="a_node10"><a xlink:href="f__op__actor_8cpp.html" target="_top" xlink:title=" ">
<polygon fill="white" stroke="#666666" points="1221,-24.5 1102,-24.5 1102,-5.5 1221,-5.5 1221,-24.5"/>
<text text-anchor="middle" x="1161.5" y="-12.5" font-family="Helvetica,sans-Serif" font-size="10.00">src/f_op/f_op_actor.cpp</text>
</a>
</g>
</g>
<!-- Node1&#45;&gt;Node10 -->
<g id="edge9" class="edge">
<title>Node1&#45;&gt;Node10</title>
<path fill="none" stroke="#63b8ff" d="M899.07,-63.68C951.66,-55 1026.87,-42.27 1092.5,-30 1100.91,-28.43 1109.88,-26.67 1118.48,-24.94"/>
<polygon fill="#63b8ff" stroke="#63b8ff" points="898.66,-60.2 889.37,-65.28 899.8,-67.11 898.66,-60.2"/>
</g>
<!-- Node11 -->
<g id="node11" class="node">
<title>Node11</title>
<g id="a_node11"><a xlink:href="f__op__camera_8cpp.html" target="_top" xlink:title=" ">
<polygon fill="white" stroke="#666666" points="1368,-24.5 1239,-24.5 1239,-5.5 1368,-5.5 1368,-24.5"/>
<text text-anchor="middle" x="1303.5" y="-12.5" font-family="Helvetica,sans-Serif" font-size="10.00">src/f_op/f_op_camera.cpp</text>
</a>
</g>
</g>
<!-- Node1&#45;&gt;Node11 -->
<g id="edge10" class="edge">
<title>Node1&#45;&gt;Node11</title>
<path fill="none" stroke="#63b8ff" d="M900.67,-68.51C980.1,-61.16 1115.18,-47.48 1230.5,-30 1239.94,-28.57 1250.02,-26.8 1259.59,-25"/>
<polygon fill="#63b8ff" stroke="#63b8ff" points="900.51,-65.01 890.87,-69.41 901.15,-71.98 900.51,-65.01"/>
</g>
<!-- Node12 -->
<g id="node12" class="node">
<title>Node12</title>
<g id="a_node12"><a xlink:href="f__op__kankyo_8cpp.html" target="_top" xlink:title=" ">
<polygon fill="white" stroke="#666666" points="1514.5,-24.5 1386.5,-24.5 1386.5,-5.5 1514.5,-5.5 1514.5,-24.5"/>
<text text-anchor="middle" x="1450.5" y="-12.5" font-family="Helvetica,sans-Serif" font-size="10.00">src/f_op/f_op_kankyo.cpp</text>
</a>
</g>
</g>
<!-- Node1&#45;&gt;Node12 -->
<g id="edge11" class="edge">
<title>Node1&#45;&gt;Node12</title>
<path fill="none" stroke="#63b8ff" d="M900.41,-71.32C1003.76,-65.94 1206.6,-53.3 1377.5,-30 1387.35,-28.66 1397.87,-26.86 1407.78,-24.99"/>
<polygon fill="#63b8ff" stroke="#63b8ff" points="900.53,-67.81 890.72,-71.81 900.89,-74.8 900.53,-67.81"/>
</g>
<!-- Node13 -->
<g id="node13" class="node">
<title>Node13</title>
<g id="a_node13"><a xlink:href="f__op__msg_8cpp.html" target="_top" xlink:title=" ">
<polygon fill="white" stroke="#666666" points="1648.5,-24.5 1532.5,-24.5 1532.5,-5.5 1648.5,-5.5 1648.5,-24.5"/>
<text text-anchor="middle" x="1590.5" y="-12.5" font-family="Helvetica,sans-Serif" font-size="10.00">src/f_op/f_op_msg.cpp</text>
</a>
</g>
</g>
<!-- Node1&#45;&gt;Node13 -->
<g id="edge12" class="edge">
<title>Node1&#45;&gt;Node13</title>
<path fill="none" stroke="#63b8ff" d="M900.39,-73.31C1024.6,-70.44 1296.52,-60.86 1523.5,-30 1532.92,-28.72 1543,-26.87 1552.4,-24.94"/>
<polygon fill="#63b8ff" stroke="#63b8ff" points="900.63,-69.81 890.71,-73.53 900.79,-76.81 900.63,-69.81"/>
</g>
</g>
</svg>
