<?xml version="1.0" encoding="UTF-8" standalone="no"?>
<!DOCTYPE svg PUBLIC "-//W3C//DTD SVG 1.1//EN"
 "http://www.w3.org/Graphics/SVG/1.1/DTD/svg11.dtd">
<!-- Generated by graphviz version 7.0.5 (20221223.1930)
 -->
<!-- Title: include/d/d_timer.h Pages: 1 -->
<svg width="2446pt" height="489pt"
 viewBox="0.00 0.00 2446.00 489.00" xmlns="http://www.w3.org/2000/svg" xmlns:xlink="http://www.w3.org/1999/xlink">
<g id="graph0" class="graph" transform="scale(1 1) rotate(0) translate(4 485)">
<title>include/d/d_timer.h</title>
<!-- Node1 -->
<g id="node1" class="node">
<title>Node1</title>
<g id="a_node1"><a xlink:title=" ">
<polygon fill="#999999" stroke="#666666" points="1880,-481 1782,-481 1782,-462 1880,-462 1880,-481"/>
<text text-anchor="middle" x="1831" y="-469" font-family="Helvetica,sans-Serif" font-size="10.00">include/d/d_timer.h</text>
</a>
</g>
</g>
<!-- Node2 -->
<g id="node2" class="node">
<title>Node2</title>
<g id="a_node2"><a xlink:href="d__msg__object_8h.html" target="_top" xlink:title=" ">
<polygon fill="white" stroke="#666666" points="1802.5,-426 1687.5,-426 1687.5,-407 1802.5,-407 1802.5,-426"/>
<text text-anchor="middle" x="1745" y="-414" font-family="Helvetica,sans-Serif" font-size="10.00">d/msg/d_msg_object.h</text>
</a>
</g>
</g>
<!-- Node1&#45;&gt;Node2 -->
<g id="edge1" class="edge">
<title>Node1&#45;&gt;Node2</title>
<path fill="none" stroke="#63b8ff" d="M1816.41,-461.51C1803.48,-453.54 1784.36,-441.75 1769.15,-432.38"/>
<polygon fill="#63b8ff" stroke="#63b8ff" points="1771.01,-429.42 1760.66,-427.15 1767.34,-435.38 1771.01,-429.42"/>
</g>
<!-- Node232 -->
<g id="node49" class="node">
<title>Node232</title>
<g id="a_node49"><a xlink:href="f__op__msg_8h.html" target="_top" xlink:title=" ">
<polygon fill="white" stroke="#666666" points="1789.5,-371 1700.5,-371 1700.5,-352 1789.5,-352 1789.5,-371"/>
<text text-anchor="middle" x="1745" y="-359" font-family="Helvetica,sans-Serif" font-size="10.00">f_op/f_op_msg.h</text>
</a>
</g>
</g>
<!-- Node1&#45;&gt;Node232 -->
<g id="edge81" class="edge">
<title>Node1&#45;&gt;Node232</title>
<path fill="none" stroke="#63b8ff" d="M1830.11,-461.88C1828.38,-448.84 1823.59,-423.86 1811,-407 1801.61,-394.42 1787.55,-384.24 1774.82,-376.81"/>
<polygon fill="#63b8ff" stroke="#63b8ff" points="1776.79,-373.9 1766.34,-372.17 1773.43,-380.04 1776.79,-373.9"/>
</g>
<!-- Node98 -->
<g id="node50" class="node">
<title>Node98</title>
<g id="a_node50"><a xlink:href="OSTime_8h.html" target="_top" xlink:title=" ">
<polygon fill="white" stroke="#666666" points="2066.5,-426 1959.5,-426 1959.5,-407 2066.5,-407 2066.5,-426"/>
<text text-anchor="middle" x="2013" y="-414" font-family="Helvetica,sans-Serif" font-size="10.00">dolphin/os/OSTime.h</text>
</a>
</g>
</g>
<!-- Node1&#45;&gt;Node98 -->
<g id="edge79" class="edge">
<title>Node1&#45;&gt;Node98</title>
<path fill="none" stroke="#63b8ff" d="M1861.87,-461.51C1892.03,-452.73 1938.14,-439.3 1971.5,-429.59"/>
<polygon fill="#63b8ff" stroke="#63b8ff" points="1972.2,-433.03 1980.83,-426.87 1970.25,-426.31 1972.2,-433.03"/>
</g>
<!-- Node3 -->
<g id="node3" class="node">
<title>Node3</title>
<g id="a_node3"><a xlink:href="JMessage_2control_8h.html" target="_top" xlink:title=" ">
<polygon fill="white" stroke="#666666" points="1993.5,-316 1850.5,-316 1850.5,-297 1993.5,-297 1993.5,-316"/>
<text text-anchor="middle" x="1922" y="-304" font-family="Helvetica,sans-Serif" font-size="10.00">JSystem/JMessage/control.h</text>
</a>
</g>
</g>
<!-- Node2&#45;&gt;Node3 -->
<g id="edge2" class="edge">
<title>Node2&#45;&gt;Node3</title>
<path fill="none" stroke="#63b8ff" d="M1759.48,-406.66C1789.82,-388.15 1860.32,-345.13 1897.71,-322.32"/>
<polygon fill="#63b8ff" stroke="#63b8ff" points="1899.31,-325.44 1906.02,-317.25 1895.66,-319.47 1899.31,-325.44"/>
</g>
<!-- Node17 -->
<g id="node9" class="node">
<title>Node17</title>
<g id="a_node9"><a xlink:href="d__com__inf__game_8h.html" target="_top" xlink:title=" ">
<polygon fill="white" stroke="#666666" points="970,-371 842,-371 842,-352 970,-352 970,-371"/>
<text text-anchor="middle" x="906" y="-359" font-family="Helvetica,sans-Serif" font-size="10.00">d/com/d_com_inf_game.h</text>
</a>
</g>
</g>
<!-- Node2&#45;&gt;Node17 -->
<g id="edge9" class="edge">
<title>Node2&#45;&gt;Node17</title>
<path fill="none" stroke="#63b8ff" d="M1687,-411.84C1538.88,-402.48 1146.73,-377.71 981.3,-367.26"/>
<polygon fill="#63b8ff" stroke="#63b8ff" points="981.98,-363.79 971.78,-366.66 981.54,-370.78 981.98,-363.79"/>
</g>
<!-- Node2&#45;&gt;Node232 -->
<g id="edge76" class="edge">
<title>Node2&#45;&gt;Node232</title>
<path fill="none" stroke="#63b8ff" d="M1745,-406.75C1745,-400.27 1745,-391.16 1745,-382.9"/>
<polygon fill="#63b8ff" stroke="#63b8ff" points="1748.5,-382.96 1745,-372.96 1741.5,-382.96 1748.5,-382.96"/>
</g>
<!-- Node4 -->
<g id="node4" class="node">
<title>Node4</title>
<g id="a_node4"><a xlink:href="processor_8h.html" target="_top" xlink:title=" ">
<polygon fill="white" stroke="#666666" points="2106,-255.5 1950,-255.5 1950,-236.5 2106,-236.5 2106,-255.5"/>
<text text-anchor="middle" x="2028" y="-243.5" font-family="Helvetica,sans-Serif" font-size="10.00">JSystem/JMessage/processor.h</text>
</a>
</g>
</g>
<!-- Node3&#45;&gt;Node4 -->
<g id="edge3" class="edge">
<title>Node3&#45;&gt;Node4</title>
<path fill="none" stroke="#63b8ff" d="M1938.1,-296.62C1954.99,-287.29 1981.8,-272.5 2001.75,-261.49"/>
<polygon fill="#63b8ff" stroke="#63b8ff" points="2003.36,-264.6 2010.42,-256.7 1999.98,-258.47 2003.36,-264.6"/>
</g>
<!-- Node7 -->
<g id="node7" class="node">
<title>Node7</title>
<g id="a_node7"><a xlink:href="types_8h.html" target="_top" xlink:title=" ">
<polygon fill="white" stroke="#666666" points="1246.5,-74 1165.5,-74 1165.5,-55 1246.5,-55 1246.5,-74"/>
<text text-anchor="middle" x="1206" y="-62" font-family="Helvetica,sans-Serif" font-size="10.00">dolphin/types.h</text>
</a>
</g>
</g>
<!-- Node3&#45;&gt;Node7 -->
<g id="edge8" class="edge">
<title>Node3&#45;&gt;Node7</title>
<path fill="none" stroke="#63b8ff" d="M1923.12,-296.57C1927.26,-261.89 1940.13,-136.71 1914,-110 1891.12,-86.61 1418.14,-71.38 1258.27,-66.89"/>
<polygon fill="#63b8ff" stroke="#63b8ff" points="1258.48,-63.39 1248.38,-66.61 1258.28,-70.39 1258.48,-63.39"/>
</g>
<!-- Node5 -->
<g id="node5" class="node">
<title>Node5</title>
<g id="a_node5"><a xlink:href="resource_8h.html" target="_top" xlink:title=" ">
<polygon fill="#fff0f0" stroke="red" points="2103.5,-189.5 1952.5,-189.5 1952.5,-170.5 2103.5,-170.5 2103.5,-189.5"/>
<text text-anchor="middle" x="2028" y="-177.5" font-family="Helvetica,sans-Serif" font-size="10.00">JSystem/JMessage/resource.h</text>
</a>
</g>
</g>
<!-- Node4&#45;&gt;Node5 -->
<g id="edge4" class="edge">
<title>Node4&#45;&gt;Node5</title>
<path fill="none" stroke="#63b8ff" d="M2028,-236.1C2028,-227.12 2028,-212.95 2028,-201.22"/>
<polygon fill="#63b8ff" stroke="#63b8ff" points="2031.5,-201.34 2028,-191.34 2024.5,-201.34 2031.5,-201.34"/>
</g>
<!-- Node6 -->
<g id="node6" class="node">
<title>Node6</title>
<g id="a_node6"><a xlink:href="linklist_8h.html" target="_top" xlink:title=" ">
<polygon fill="white" stroke="#666666" points="2094.5,-129 1961.5,-129 1961.5,-110 2094.5,-110 2094.5,-129"/>
<text text-anchor="middle" x="2028" y="-117" font-family="Helvetica,sans-Serif" font-size="10.00">JSystem/JGadget/linklist.h</text>
</a>
</g>
</g>
<!-- Node5&#45;&gt;Node6 -->
<g id="edge5" class="edge">
<title>Node5&#45;&gt;Node6</title>
<path fill="none" stroke="#63b8ff" d="M2028,-170.37C2028,-162.5 2028,-150.6 2028,-140.39"/>
<polygon fill="#63b8ff" stroke="#63b8ff" points="2031.5,-140.68 2028,-130.68 2024.5,-140.68 2031.5,-140.68"/>
</g>
<!-- Node6&#45;&gt;Node7 -->
<g id="edge6" class="edge">
<title>Node6&#45;&gt;Node7</title>
<path fill="none" stroke="#63b8ff" d="M1961.28,-111.26C1956.45,-110.81 1951.65,-110.38 1947,-110 1688.76,-88.71 1379.09,-73.41 1258.06,-67.83"/>
<polygon fill="#63b8ff" stroke="#63b8ff" points="1258.27,-64.33 1248.12,-67.37 1257.95,-71.33 1258.27,-64.33"/>
</g>
<!-- Node8 -->
<g id="node8" class="node">
<title>Node8</title>
<g id="a_node8"><a xlink:href="stddef_8h.html" target="_top" xlink:title=" ">
<polygon fill="white" stroke="#666666" points="1231.5,-19 1180.5,-19 1180.5,0 1231.5,0 1231.5,-19"/>
<text text-anchor="middle" x="1206" y="-7" font-family="Helvetica,sans-Serif" font-size="10.00">stddef.h</text>
</a>
</g>
</g>
<!-- Node7&#45;&gt;Node8 -->
<g id="edge7" class="edge">
<title>Node7&#45;&gt;Node8</title>
<path fill="none" stroke="#63b8ff" d="M1206,-54.75C1206,-48.27 1206,-39.16 1206,-30.9"/>
<polygon fill="#63b8ff" stroke="#63b8ff" points="1209.5,-30.96 1206,-20.96 1202.5,-30.96 1209.5,-30.96"/>
</g>
<!-- Node18 -->
<g id="node10" class="node">
<title>Node18</title>
<g id="a_node10"><a xlink:href="d__bg__s_8h.html" target="_top" xlink:title=" ">
<polygon fill="white" stroke="#666666" points="91.5,-189.5 14.5,-189.5 14.5,-170.5 91.5,-170.5 91.5,-189.5"/>
<text text-anchor="middle" x="53" y="-177.5" font-family="Helvetica,sans-Serif" font-size="10.00">d/bg/d_bg_s.h</text>
</a>
</g>
</g>
<!-- Node17&#45;&gt;Node18 -->
<g id="edge10" class="edge">
<title>Node17&#45;&gt;Node18</title>
<path fill="none" stroke="#63b8ff" d="M841.77,-360.73C696.39,-360.52 346.2,-355.78 236,-316 165.33,-290.49 98.6,-228.3 69,-198.07"/>
<polygon fill="#63b8ff" stroke="#63b8ff" points="71.55,-195.66 62.1,-190.88 66.5,-200.51 71.55,-195.66"/>
</g>
<!-- Node15 -->
<g id="node12" class="node">
<title>Node15</title>
<g id="a_node12"><a xlink:href="global_8h.html" target="_top" xlink:title=" ">
<polygon fill="white" stroke="#666666" points="481,-129 431,-129 431,-110 481,-110 481,-129"/>
<text text-anchor="middle" x="456" y="-117" font-family="Helvetica,sans-Serif" font-size="10.00">global.h</text>
</a>
</g>
</g>
<!-- Node17&#45;&gt;Node15 -->
<g id="edge75" class="edge">
<title>Node17&#45;&gt;Node15</title>
<path fill="none" stroke="#63b8ff" d="M841.52,-361.28C696.51,-361.38 352.71,-351.87 294,-261 248.71,-190.91 380.37,-205.3 395,-195 416.3,-180 434.28,-155.65 445.08,-138.89"/>
<polygon fill="#63b8ff" stroke="#63b8ff" points="448.02,-140.79 450.31,-130.44 442.07,-137.1 448.02,-140.79"/>
</g>
<!-- Node29 -->
<g id="node13" class="node">
<title>Node29</title>
<g id="a_node13"><a xlink:href="d__cc__s_8h.html" target="_top" xlink:title=" ">
<polygon fill="white" stroke="#666666" points="246.5,-255.5 169.5,-255.5 169.5,-236.5 246.5,-236.5 246.5,-255.5"/>
<text text-anchor="middle" x="208" y="-243.5" font-family="Helvetica,sans-Serif" font-size="10.00">d/cc/d_cc_s.h</text>
</a>
</g>
</g>
<!-- Node17&#45;&gt;Node29 -->
<g id="edge15" class="edge">
<title>Node17&#45;&gt;Node29</title>
<path fill="none" stroke="#63b8ff" d="M841.53,-359.04C688.29,-355.16 311.26,-342.96 261,-316 240.45,-304.98 225.41,-282.16 216.71,-265.78"/>
<polygon fill="#63b8ff" stroke="#63b8ff" points="219.96,-264.45 212.38,-257.04 213.69,-267.56 219.96,-264.45"/>
</g>
<!-- Node39 -->
<g id="node16" class="node">
<title>Node39</title>
<g id="a_node16"><a xlink:href="d__attention_8h.html" target="_top" xlink:title=" ">
<polygon fill="white" stroke="#666666" points="946,-316 866,-316 866,-297 946,-297 946,-316"/>
<text text-anchor="middle" x="906" y="-304" font-family="Helvetica,sans-Serif" font-size="10.00">d/d_attention.h</text>
</a>
</g>
</g>
<!-- Node17&#45;&gt;Node39 -->
<g id="edge21" class="edge">
<title>Node17&#45;&gt;Node39</title>
<path fill="none" stroke="#63b8ff" d="M906,-351.75C906,-345.27 906,-336.16 906,-327.9"/>
<polygon fill="#63b8ff" stroke="#63b8ff" points="909.5,-327.96 906,-317.96 902.5,-327.96 909.5,-327.96"/>
</g>
<!-- Node161 -->
<g id="node23" class="node">
<title>Node161</title>
<g id="a_node23"><a xlink:href="d__resorce_8h.html" target="_top" xlink:title=" ">
<polygon fill="white" stroke="#666666" points="500.5,-316 425.5,-316 425.5,-297 500.5,-297 500.5,-316"/>
<text text-anchor="middle" x="463" y="-304" font-family="Helvetica,sans-Serif" font-size="10.00">d/d_resorce.h</text>
</a>
</g>
</g>
<!-- Node17&#45;&gt;Node161 -->
<g id="edge30" class="edge">
<title>Node17&#45;&gt;Node161</title>
<path fill="none" stroke="#63b8ff" d="M841.58,-352.79C752.15,-342.09 592.34,-322.97 511.98,-313.36"/>
<polygon fill="#63b8ff" stroke="#63b8ff" points="512.57,-309.91 502.22,-312.19 511.73,-316.86 512.57,-309.91"/>
</g>
<!-- Node181 -->
<g id="node25" class="node">
<title>Node181</title>
<g id="a_node25"><a xlink:href="d__vibration_8h.html" target="_top" xlink:title=" ">
<polygon fill="white" stroke="#666666" points="1547,-255.5 1467,-255.5 1467,-236.5 1547,-236.5 1547,-255.5"/>
<text text-anchor="middle" x="1507" y="-243.5" font-family="Helvetica,sans-Serif" font-size="10.00">d/d_vibration.h</text>
</a>
</g>
</g>
<!-- Node17&#45;&gt;Node181 -->
<g id="edge33" class="edge">
<title>Node17&#45;&gt;Node181</title>
<path fill="none" stroke="#63b8ff" d="M970.44,-359C1110.26,-355.24 1432.21,-343.65 1473,-316 1489.74,-304.66 1498.57,-282.59 1502.99,-266.46"/>
<polygon fill="#63b8ff" stroke="#63b8ff" points="1506.33,-267.57 1505.23,-257.03 1499.52,-265.95 1506.33,-267.57"/>
</g>
<!-- Node183 -->
<g id="node27" class="node">
<title>Node183</title>
<g id="a_node27"><a xlink:href="d__event_8h.html" target="_top" xlink:title=" ">
<polygon fill="white" stroke="#666666" points="1118,-316 1024,-316 1024,-297 1118,-297 1118,-316"/>
<text text-anchor="middle" x="1071" y="-304" font-family="Helvetica,sans-Serif" font-size="10.00">d/event/d_event.h</text>
</a>
</g>
</g>
<!-- Node17&#45;&gt;Node183 -->
<g id="edge37" class="edge">
<title>Node17&#45;&gt;Node183</title>
<path fill="none" stroke="#63b8ff" d="M933.99,-351.51C961.09,-342.8 1002.41,-329.53 1032.58,-319.84"/>
<polygon fill="#63b8ff" stroke="#63b8ff" points="1033.26,-323.3 1041.71,-316.91 1031.12,-316.64 1033.26,-323.3"/>
</g>
<!-- Node206 -->
<g id="node30" class="node">
<title>Node206</title>
<g id="a_node30"><a xlink:href="d__event__manager_8h.html" target="_top" xlink:title=" ">
<polygon fill="white" stroke="#666666" points="1042.5,-255.5 905.5,-255.5 905.5,-236.5 1042.5,-236.5 1042.5,-255.5"/>
<text text-anchor="middle" x="974" y="-243.5" font-family="Helvetica,sans-Serif" font-size="10.00">d/event/d_event_manager.h</text>
</a>
</g>
</g>
<!-- Node17&#45;&gt;Node206 -->
<g id="edge42" class="edge">
<title>Node17&#45;&gt;Node206</title>
<path fill="none" stroke="#63b8ff" d="M919.16,-351.8C930.29,-343.78 945.85,-330.88 955,-316 964.26,-300.94 969.1,-281.3 971.56,-266.82"/>
<polygon fill="#63b8ff" stroke="#63b8ff" points="974.99,-267.58 972.96,-257.18 968.06,-266.58 974.99,-267.58"/>
</g>
<!-- Node208 -->
<g id="node32" class="node">
<title>Node208</title>
<g id="a_node32"><a xlink:href="d__particle_8h.html" target="_top" xlink:title=" ">
<polygon fill="white" stroke="#666666" points="847.5,-316 738.5,-316 738.5,-297 847.5,-297 847.5,-316"/>
<text text-anchor="middle" x="793" y="-304" font-family="Helvetica,sans-Serif" font-size="10.00">d/particle/d_particle.h</text>
</a>
</g>
</g>
<!-- Node17&#45;&gt;Node208 -->
<g id="edge46" class="edge">
<title>Node17&#45;&gt;Node208</title>
<path fill="none" stroke="#63b8ff" d="M886.83,-351.51C869.11,-343.2 842.52,-330.73 822.17,-321.18"/>
<polygon fill="#63b8ff" stroke="#63b8ff" points="823.8,-318.08 813.26,-317 820.82,-324.42 823.8,-318.08"/>
</g>
<!-- Node216 -->
<g id="node36" class="node">
<title>Node216</title>
<g id="a_node36"><a xlink:href="f__op__camera__mng_8h.html" target="_top" xlink:title=" ">
<polygon fill="white" stroke="#666666" points="1464,-316 1338,-316 1338,-297 1464,-297 1464,-316"/>
<text text-anchor="middle" x="1401" y="-304" font-family="Helvetica,sans-Serif" font-size="10.00">f_op/f_op_camera_mng.h</text>
</a>
</g>
</g>
<!-- Node17&#45;&gt;Node216 -->
<g id="edge55" class="edge">
<title>Node17&#45;&gt;Node216</title>
<path fill="none" stroke="#63b8ff" d="M970.46,-353.6C1062.13,-343.78 1229.77,-325.83 1326.6,-315.47"/>
<polygon fill="#63b8ff" stroke="#63b8ff" points="1326.69,-318.98 1336.26,-314.43 1325.94,-312.02 1326.69,-318.98"/>
</g>
<!-- Node18&#45;&gt;Node7 -->
<g id="edge12" class="edge">
<title>Node18&#45;&gt;Node7</title>
<path fill="none" stroke="#63b8ff" d="M81.8,-170.02C88.09,-168.22 94.74,-166.44 101,-165 242.04,-132.46 278.18,-126.35 422,-110 696.54,-78.79 1027.77,-69.11 1153.85,-66.43"/>
<polygon fill="#63b8ff" stroke="#63b8ff" points="1153.61,-69.93 1163.54,-66.23 1153.47,-62.93 1153.61,-69.93"/>
</g>
<!-- Node19 -->
<g id="node11" class="node">
<title>Node19</title>
<g id="a_node11"><a xlink:href="d__bg__w__base_8h.html" target="_top" xlink:title=" ">
<polygon fill="#fff0f0" stroke="red" points="106,-129 0,-129 0,-110 106,-110 106,-129"/>
<text text-anchor="middle" x="53" y="-117" font-family="Helvetica,sans-Serif" font-size="10.00">d/bg/d_bg_w_base.h</text>
</a>
</g>
</g>
<!-- Node18&#45;&gt;Node19 -->
<g id="edge11" class="edge">
<title>Node18&#45;&gt;Node19</title>
<path fill="none" stroke="#63b8ff" d="M53,-170.37C53,-162.5 53,-150.6 53,-140.39"/>
<polygon fill="#63b8ff" stroke="#63b8ff" points="56.5,-140.68 53,-130.68 49.5,-140.68 56.5,-140.68"/>
</g>
<!-- Node18&#45;&gt;Node15 -->
<g id="edge13" class="edge">
<title>Node18&#45;&gt;Node15</title>
<path fill="none" stroke="#63b8ff" d="M80.98,-170.03C87.5,-168.16 94.45,-166.36 101,-165 216.09,-141.16 355,-128.25 419.63,-123.14"/>
<polygon fill="#63b8ff" stroke="#63b8ff" points="419.6,-126.65 429.3,-122.39 419.06,-119.67 419.6,-126.65"/>
</g>
<!-- Node15&#45;&gt;Node7 -->
<g id="edge14" class="edge">
<title>Node15&#45;&gt;Node7</title>
<path fill="none" stroke="#63b8ff" d="M481.38,-116.71C588.64,-109.13 1005.91,-79.64 1153.73,-69.19"/>
<polygon fill="#63b8ff" stroke="#63b8ff" points="1153.9,-72.69 1163.63,-68.49 1153.41,-65.71 1153.9,-72.69"/>
</g>
<!-- Node29&#45;&gt;Node15 -->
<g id="edge20" class="edge">
<title>Node29&#45;&gt;Node15</title>
<path fill="none" stroke="#63b8ff" d="M239.54,-236.01C277.54,-224.93 338.91,-206.22 360,-195 376.04,-186.47 413.96,-155.68 437.06,-136.46"/>
<polygon fill="#63b8ff" stroke="#63b8ff" points="439.08,-139.33 444.5,-130.23 434.58,-133.96 439.08,-139.33"/>
</g>
<!-- Node30 -->
<g id="node14" class="node">
<title>Node30</title>
<g id="a_node14"><a xlink:href="c__cc__s_8h.html" target="_top" xlink:title=" ">
<polygon fill="#fff0f0" stroke="red" points="226,-195 110,-195 110,-165 226,-165 226,-195"/>
<text text-anchor="start" x="118" y="-183" font-family="Helvetica,sans-Serif" font-size="10.00">SSystem/SComponent</text>
<text text-anchor="middle" x="168" y="-172" font-family="Helvetica,sans-Serif" font-size="10.00">/c_cc_s.h</text>
</a>
</g>
</g>
<!-- Node29&#45;&gt;Node30 -->
<g id="edge16" class="edge">
<title>Node29&#45;&gt;Node30</title>
<path fill="none" stroke="#63b8ff" d="M202.44,-236.1C197.38,-228 189.67,-215.67 182.83,-204.73"/>
<polygon fill="#63b8ff" stroke="#63b8ff" points="185.97,-203.14 177.7,-196.52 180.03,-206.85 185.97,-203.14"/>
</g>
<!-- Node38 -->
<g id="node15" class="node">
<title>Node38</title>
<g id="a_node15"><a xlink:href="d__cc__mass__s_8h.html" target="_top" xlink:title=" ">
<polygon fill="#fff0f0" stroke="red" points="351.5,-189.5 244.5,-189.5 244.5,-170.5 351.5,-170.5 351.5,-189.5"/>
<text text-anchor="middle" x="298" y="-177.5" font-family="Helvetica,sans-Serif" font-size="10.00">d/cc/d_cc_mass_s.h</text>
</a>
</g>
</g>
<!-- Node29&#45;&gt;Node38 -->
<g id="edge18" class="edge">
<title>Node29&#45;&gt;Node38</title>
<path fill="none" stroke="#63b8ff" d="M220.51,-236.1C235.02,-225.78 259.18,-208.61 276.67,-196.17"/>
<polygon fill="#63b8ff" stroke="#63b8ff" points="278.24,-199.35 284.36,-190.7 274.18,-193.64 278.24,-199.35"/>
</g>
<!-- Node30&#45;&gt;Node15 -->
<g id="edge17" class="edge">
<title>Node30&#45;&gt;Node15</title>
<path fill="none" stroke="#63b8ff" d="M226.46,-166.76C229.35,-166.16 232.21,-165.57 235,-165 299.97,-151.67 375.77,-136.49 419.59,-127.75"/>
<polygon fill="#63b8ff" stroke="#63b8ff" points="420.19,-131.2 429.31,-125.81 418.82,-124.33 420.19,-131.2"/>
</g>
<!-- Node38&#45;&gt;Node15 -->
<g id="edge19" class="edge">
<title>Node38&#45;&gt;Node15</title>
<path fill="none" stroke="#63b8ff" d="M322,-170.12C348.45,-160.32 391.22,-144.48 421.32,-133.34"/>
<polygon fill="#63b8ff" stroke="#63b8ff" points="422.2,-136.75 430.36,-129.99 419.76,-130.18 422.2,-136.75"/>
</g>
<!-- Node40 -->
<g id="node17" class="node">
<title>Node40</title>
<g id="a_node17"><a xlink:href="c__angle_8h.html" target="_top" xlink:title=" ">
<polygon fill="white" stroke="#666666" points="1373,-261 1257,-261 1257,-231 1373,-231 1373,-261"/>
<text text-anchor="start" x="1265" y="-249" font-family="Helvetica,sans-Serif" font-size="10.00">SSystem/SComponent</text>
<text text-anchor="middle" x="1315" y="-238" font-family="Helvetica,sans-Serif" font-size="10.00">/c_angle.h</text>
</a>
</g>
</g>
<!-- Node39&#45;&gt;Node40 -->
<g id="edge22" class="edge">
<title>Node39&#45;&gt;Node40</title>
<path fill="none" stroke="#63b8ff" d="M946.34,-299.73C1015.96,-289.77 1159.49,-269.24 1245.48,-256.94"/>
<polygon fill="#63b8ff" stroke="#63b8ff" points="1245.8,-260.43 1255.2,-255.55 1244.81,-253.5 1245.8,-260.43"/>
</g>
<!-- Node41 -->
<g id="node22" class="node">
<title>Node41</title>
<g id="a_node22"><a xlink:href="m__Do__ext_8h.html" target="_top" xlink:title=" ">
<polygon fill="#fff0f0" stroke="red" points="542,-189.5 446,-189.5 446,-170.5 542,-170.5 542,-189.5"/>
<text text-anchor="middle" x="494" y="-177.5" font-family="Helvetica,sans-Serif" font-size="10.00">m_Do/m_Do_ext.h</text>
</a>
</g>
</g>
<!-- Node39&#45;&gt;Node41 -->
<g id="edge28" class="edge">
<title>Node39&#45;&gt;Node41</title>
<path fill="none" stroke="#63b8ff" d="M894.44,-296.52C873.36,-280.62 826.72,-247.65 782,-231 741.09,-215.77 625.09,-198.43 553.41,-188.69"/>
<polygon fill="#63b8ff" stroke="#63b8ff" points="554.18,-185.26 543.8,-187.4 553.24,-192.2 554.18,-185.26"/>
</g>
<!-- Node23 -->
<g id="node18" class="node">
<title>Node23</title>
<g id="a_node18"><a xlink:href="c__xyz_8h.html" target="_top" xlink:title=" ">
<polygon fill="white" stroke="#666666" points="1664,-195 1548,-195 1548,-165 1664,-165 1664,-195"/>
<text text-anchor="start" x="1556" y="-183" font-family="Helvetica,sans-Serif" font-size="10.00">SSystem/SComponent</text>
<text text-anchor="middle" x="1606" y="-172" font-family="Helvetica,sans-Serif" font-size="10.00">/c_xyz.h</text>
</a>
</g>
</g>
<!-- Node40&#45;&gt;Node23 -->
<g id="edge23" class="edge">
<title>Node40&#45;&gt;Node23</title>
<path fill="none" stroke="#63b8ff" d="M1373.19,-232.2C1420.37,-221.82 1487,-207.17 1536.89,-196.2"/>
<polygon fill="#63b8ff" stroke="#63b8ff" points="1537.42,-199.67 1546.43,-194.1 1535.92,-192.83 1537.42,-199.67"/>
</g>
<!-- Node24 -->
<g id="node19" class="node">
<title>Node24</title>
<g id="a_node19"><a xlink:href="math_8h.html" target="_top" xlink:title=" ">
<polygon fill="white" stroke="#666666" points="1657,-129 1611,-129 1611,-110 1657,-110 1657,-129"/>
<text text-anchor="middle" x="1634" y="-117" font-family="Helvetica,sans-Serif" font-size="10.00">math.h</text>
</a>
</g>
</g>
<!-- Node23&#45;&gt;Node24 -->
<g id="edge24" class="edge">
<title>Node23&#45;&gt;Node24</title>
<path fill="none" stroke="#63b8ff" d="M1612.92,-164.54C1616.53,-157 1620.99,-147.67 1624.88,-139.55"/>
<polygon fill="#63b8ff" stroke="#63b8ff" points="1628.03,-141.07 1629.19,-130.54 1621.72,-138.05 1628.03,-141.07"/>
</g>
<!-- Node27 -->
<g id="node21" class="node">
<title>Node27</title>
<g id="a_node21"><a xlink:href="vec_8h.html" target="_top" xlink:title=" ">
<polygon fill="white" stroke="#666666" points="1359,-129 1267,-129 1267,-110 1359,-110 1359,-129"/>
<text text-anchor="middle" x="1313" y="-117" font-family="Helvetica,sans-Serif" font-size="10.00">dolphin/mtx/vec.h</text>
</a>
</g>
</g>
<!-- Node23&#45;&gt;Node27 -->
<g id="edge26" class="edge">
<title>Node23&#45;&gt;Node27</title>
<path fill="none" stroke="#63b8ff" d="M1547.77,-166.98C1544.46,-166.31 1541.19,-165.64 1538,-165 1480.79,-153.45 1415.33,-140.54 1369.82,-131.61"/>
<polygon fill="#63b8ff" stroke="#63b8ff" points="1370.67,-128.21 1360.18,-129.72 1369.32,-135.08 1370.67,-128.21"/>
</g>
<!-- Node25 -->
<g id="node20" class="node">
<title>Node25</title>
<g id="a_node20"><a xlink:href="float_8h.html" target="_top" xlink:title=" ">
<polygon fill="#fff0f0" stroke="red" points="1655,-74 1613,-74 1613,-55 1655,-55 1655,-74"/>
<text text-anchor="middle" x="1634" y="-62" font-family="Helvetica,sans-Serif" font-size="10.00">float.h</text>
</a>
</g>
</g>
<!-- Node24&#45;&gt;Node25 -->
<g id="edge25" class="edge">
<title>Node24&#45;&gt;Node25</title>
<path fill="none" stroke="#63b8ff" d="M1634,-109.75C1634,-103.27 1634,-94.16 1634,-85.9"/>
<polygon fill="#63b8ff" stroke="#63b8ff" points="1637.5,-85.96 1634,-75.96 1630.5,-85.96 1637.5,-85.96"/>
</g>
<!-- Node27&#45;&gt;Node7 -->
<g id="edge27" class="edge">
<title>Node27&#45;&gt;Node7</title>
<path fill="none" stroke="#63b8ff" d="M1294.85,-109.51C1278.22,-101.27 1253.36,-88.96 1234.15,-79.45"/>
<polygon fill="#63b8ff" stroke="#63b8ff" points="1235.75,-76.33 1225.24,-75.03 1232.65,-82.6 1235.75,-76.33"/>
</g>
<!-- Node41&#45;&gt;Node15 -->
<g id="edge29" class="edge">
<title>Node41&#45;&gt;Node15</title>
<path fill="none" stroke="#63b8ff" d="M488.39,-170.37C483,-162.07 474.69,-149.28 467.84,-138.72"/>
<polygon fill="#63b8ff" stroke="#63b8ff" points="470.84,-136.92 462.45,-130.44 464.97,-140.73 470.84,-136.92"/>
</g>
<!-- Node161&#45;&gt;Node41 -->
<g id="edge32" class="edge">
<title>Node161&#45;&gt;Node41</title>
<path fill="none" stroke="#63b8ff" d="M465.23,-296.55C470.19,-276.63 482.24,-228.24 489.06,-200.82"/>
<polygon fill="#63b8ff" stroke="#63b8ff" points="492.41,-201.89 491.43,-191.34 485.61,-200.2 492.41,-201.89"/>
</g>
<!-- Node162 -->
<g id="node24" class="node">
<title>Node162</title>
<g id="a_node24"><a xlink:href="m__Do__dvd__thread_8h.html" target="_top" xlink:title=" ">
<polygon fill="#fff0f0" stroke="red" points="434.5,-255.5 303.5,-255.5 303.5,-236.5 434.5,-236.5 434.5,-255.5"/>
<text text-anchor="middle" x="369" y="-243.5" font-family="Helvetica,sans-Serif" font-size="10.00">m_Do/m_Do_dvd_thread.h</text>
</a>
</g>
</g>
<!-- Node161&#45;&gt;Node162 -->
<g id="edge31" class="edge">
<title>Node161&#45;&gt;Node162</title>
<path fill="none" stroke="#63b8ff" d="M448.72,-296.62C433.95,-287.42 410.63,-272.91 393.01,-261.94"/>
<polygon fill="#63b8ff" stroke="#63b8ff" points="395.04,-259.08 384.7,-256.77 391.34,-265.02 395.04,-259.08"/>
</g>
<!-- Node181&#45;&gt;Node23 -->
<g id="edge34" class="edge">
<title>Node181&#45;&gt;Node23</title>
<path fill="none" stroke="#63b8ff" d="M1520.77,-236.1C1534.48,-227.23 1556.04,-213.3 1574.04,-201.66"/>
<polygon fill="#63b8ff" stroke="#63b8ff" points="1575.84,-204.67 1582.33,-196.3 1572.04,-198.79 1575.84,-204.67"/>
</g>
<!-- Node182 -->
<g id="node26" class="node">
<title>Node182</title>
<g id="a_node26"><a xlink:href="d__vib__pattern_8h.html" target="_top" xlink:title=" ">
<polygon fill="white" stroke="#666666" points="1529.5,-189.5 1438.5,-189.5 1438.5,-170.5 1529.5,-170.5 1529.5,-189.5"/>
<text text-anchor="middle" x="1484" y="-177.5" font-family="Helvetica,sans-Serif" font-size="10.00">d/d_vib_pattern.h</text>
</a>
</g>
</g>
<!-- Node181&#45;&gt;Node182 -->
<g id="edge35" class="edge">
<title>Node181&#45;&gt;Node182</title>
<path fill="none" stroke="#63b8ff" d="M1503.8,-236.1C1500.51,-226.93 1495.26,-212.34 1491,-200.48"/>
<polygon fill="#63b8ff" stroke="#63b8ff" points="1494.36,-199.47 1487.68,-191.25 1487.77,-201.84 1494.36,-199.47"/>
</g>
<!-- Node182&#45;&gt;Node7 -->
<g id="edge36" class="edge">
<title>Node182&#45;&gt;Node7</title>
<path fill="none" stroke="#63b8ff" d="M1445.93,-170.02C1438.66,-168.33 1431.1,-166.6 1424,-165 1350.35,-148.42 1322.39,-168.4 1258,-129 1240,-117.99 1225.43,-98.47 1216.34,-83.97"/>
<polygon fill="#63b8ff" stroke="#63b8ff" points="1219.6,-82.61 1211.49,-75.8 1213.58,-86.18 1219.6,-82.61"/>
</g>
<!-- Node183&#45;&gt;Node15 -->
<g id="edge41" class="edge">
<title>Node183&#45;&gt;Node15</title>
<path fill="none" stroke="#63b8ff" d="M1071.48,-296.58C1071.79,-280.79 1069.96,-247.97 1051,-231 972.28,-160.52 918.29,-221.49 816,-195 778.84,-185.38 772.13,-174.74 735,-165 649.65,-142.62 546.48,-129.72 492.68,-124.03"/>
<polygon fill="#63b8ff" stroke="#63b8ff" points="493.16,-120.56 482.86,-123.01 492.45,-127.52 493.16,-120.56"/>
</g>
<!-- Node184 -->
<g id="node28" class="node">
<title>Node184</title>
<g id="a_node28"><a xlink:href="d__a__itembase_8h.html" target="_top" xlink:title=" ">
<polygon fill="#fff0f0" stroke="red" points="1200.5,-255.5 1099.5,-255.5 1099.5,-236.5 1200.5,-236.5 1200.5,-255.5"/>
<text text-anchor="middle" x="1150" y="-243.5" font-family="Helvetica,sans-Serif" font-size="10.00">d/a/d_a_itembase.h</text>
</a>
</g>
</g>
<!-- Node183&#45;&gt;Node184 -->
<g id="edge38" class="edge">
<title>Node183&#45;&gt;Node184</title>
<path fill="none" stroke="#63b8ff" d="M1083,-296.62C1095.18,-287.6 1114.29,-273.45 1128.98,-262.56"/>
<polygon fill="#63b8ff" stroke="#63b8ff" points="1130.72,-265.63 1136.67,-256.87 1126.55,-260.01 1130.72,-265.63"/>
</g>
<!-- Node185 -->
<g id="node29" class="node">
<title>Node185</title>
<g id="a_node29"><a xlink:href="c__phase_8h.html" target="_top" xlink:title=" ">
<polygon fill="white" stroke="#666666" points="1208,-195 1092,-195 1092,-165 1208,-165 1208,-195"/>
<text text-anchor="start" x="1100" y="-183" font-family="Helvetica,sans-Serif" font-size="10.00">SSystem/SComponent</text>
<text text-anchor="middle" x="1150" y="-172" font-family="Helvetica,sans-Serif" font-size="10.00">/c_phase.h</text>
</a>
</g>
</g>
<!-- Node184&#45;&gt;Node185 -->
<g id="edge39" class="edge">
<title>Node184&#45;&gt;Node185</title>
<path fill="none" stroke="#63b8ff" d="M1150,-236.1C1150,-228.41 1150,-216.92 1150,-206.42"/>
<polygon fill="#63b8ff" stroke="#63b8ff" points="1153.5,-206.75 1150,-196.75 1146.5,-206.75 1153.5,-206.75"/>
</g>
<!-- Node185&#45;&gt;Node7 -->
<g id="edge40" class="edge">
<title>Node185&#45;&gt;Node7</title>
<path fill="none" stroke="#63b8ff" d="M1124.05,-164.55C1103.2,-151 1079.44,-129.91 1093,-110 1106.82,-89.71 1131.45,-78.67 1154.19,-72.66"/>
<polygon fill="#63b8ff" stroke="#63b8ff" points="1154.73,-76.13 1163.67,-70.45 1153.14,-69.31 1154.73,-76.13"/>
</g>
<!-- Node206&#45;&gt;Node23 -->
<g id="edge43" class="edge">
<title>Node206&#45;&gt;Node23</title>
<path fill="none" stroke="#63b8ff" d="M1042.96,-236.22C1058.42,-234.38 1074.76,-232.53 1090,-231 1285.06,-211.4 1338.29,-222.75 1536.45,-195.08"/>
<polygon fill="#63b8ff" stroke="#63b8ff" points="1536.93,-198.54 1546.35,-193.68 1535.95,-191.61 1536.93,-198.54"/>
</g>
<!-- Node207 -->
<g id="node31" class="node">
<title>Node207</title>
<g id="a_node31"><a xlink:href="d__event__data_8h.html" target="_top" xlink:title=" ">
<polygon fill="white" stroke="#666666" points="726,-189.5 608,-189.5 608,-170.5 726,-170.5 726,-189.5"/>
<text text-anchor="middle" x="667" y="-177.5" font-family="Helvetica,sans-Serif" font-size="10.00">d/event/d_event_data.h</text>
</a>
</g>
</g>
<!-- Node206&#45;&gt;Node207 -->
<g id="edge44" class="edge">
<title>Node206&#45;&gt;Node207</title>
<path fill="none" stroke="#63b8ff" d="M930.99,-236.03C875.95,-224.56 780.61,-204.68 720.82,-192.22"/>
<polygon fill="#63b8ff" stroke="#63b8ff" points="721.7,-188.83 711.2,-190.21 720.28,-195.68 721.7,-188.83"/>
</g>
<!-- Node207&#45;&gt;Node15 -->
<g id="edge45" class="edge">
<title>Node207&#45;&gt;Node15</title>
<path fill="none" stroke="#63b8ff" d="M634.95,-170.12C596.57,-159.47 532.44,-141.69 492.28,-130.56"/>
<polygon fill="#63b8ff" stroke="#63b8ff" points="493.41,-127.24 482.84,-127.94 491.54,-133.98 493.41,-127.24"/>
</g>
<!-- Node208&#45;&gt;Node7 -->
<g id="edge50" class="edge">
<title>Node208&#45;&gt;Node7</title>
<path fill="none" stroke="#63b8ff" d="M803.2,-296.68C821.03,-281.6 859.44,-250.62 896,-231 936.15,-209.45 953.08,-218.7 992,-195 1040.11,-165.71 1037.84,-139.21 1086,-110 1109.1,-95.99 1137.33,-85.25 1160.61,-77.83"/>
<polygon fill="#63b8ff" stroke="#63b8ff" points="1161.61,-81.19 1170.14,-74.9 1159.56,-74.49 1161.61,-81.19"/>
</g>
<!-- Node209 -->
<g id="node33" class="node">
<title>Node209</title>
<g id="a_node33"><a xlink:href="JPAParticle_8h.html" target="_top" xlink:title=" ">
<polygon fill="#fff0f0" stroke="red" points="983,-189.5 825,-189.5 825,-170.5 983,-170.5 983,-189.5"/>
<text text-anchor="middle" x="904" y="-177.5" font-family="Helvetica,sans-Serif" font-size="10.00">JSystem/JParticle/JPAParticle.h</text>
</a>
</g>
</g>
<!-- Node208&#45;&gt;Node209 -->
<g id="edge47" class="edge">
<title>Node208&#45;&gt;Node209</title>
<path fill="none" stroke="#63b8ff" d="M794.94,-296.79C798.62,-281.88 807.83,-251.14 825,-231 838.05,-215.7 856.96,-203.5 873.01,-194.98"/>
<polygon fill="#63b8ff" stroke="#63b8ff" points="874.35,-198.23 881.71,-190.6 871.2,-191.98 874.35,-198.23"/>
</g>
<!-- Node211 -->
<g id="node34" class="node">
<title>Node211</title>
<g id="a_node34"><a xlink:href="JPAEmitter_8h.html" target="_top" xlink:title=" ">
<polygon fill="#fff0f0" stroke="red" points="773,-255.5 617,-255.5 617,-236.5 773,-236.5 773,-255.5"/>
<text text-anchor="middle" x="695" y="-243.5" font-family="Helvetica,sans-Serif" font-size="10.00">JSystem/JParticle/JPAEmitter.h</text>
</a>
</g>
</g>
<!-- Node208&#45;&gt;Node211 -->
<g id="edge49" class="edge">
<title>Node208&#45;&gt;Node211</title>
<path fill="none" stroke="#63b8ff" d="M778.12,-296.62C762.65,-287.38 738.17,-272.77 719.78,-261.79"/>
<polygon fill="#63b8ff" stroke="#63b8ff" points="721.7,-258.86 711.32,-256.74 718.12,-264.88 721.7,-258.86"/>
</g>
<!-- Node200 -->
<g id="node35" class="node">
<title>Node200</title>
<g id="a_node35"><a xlink:href="d__kankyo_8h.html" target="_top" xlink:title=" ">
<polygon fill="#fff0f0" stroke="red" points="598.5,-255.5 491.5,-255.5 491.5,-236.5 598.5,-236.5 598.5,-255.5"/>
<text text-anchor="middle" x="545" y="-243.5" font-family="Helvetica,sans-Serif" font-size="10.00">d/kankyo/d_kankyo.h</text>
</a>
</g>
</g>
<!-- Node208&#45;&gt;Node200 -->
<g id="edge51" class="edge">
<title>Node208&#45;&gt;Node200</title>
<path fill="none" stroke="#63b8ff" d="M755.06,-296.55C711.94,-286.38 641.42,-269.74 594.13,-258.59"/>
<polygon fill="#63b8ff" stroke="#63b8ff" points="594.94,-255.18 584.4,-256.3 593.33,-262 594.94,-255.18"/>
</g>
<!-- Node209&#45;&gt;Node7 -->
<g id="edge48" class="edge">
<title>Node209&#45;&gt;Node7</title>
<path fill="none" stroke="#63b8ff" d="M913.16,-170.04C928.91,-155.16 962.73,-125.47 997,-110 1047.59,-87.16 1110.44,-75.82 1153.94,-70.33"/>
<polygon fill="#63b8ff" stroke="#63b8ff" points="1154.1,-73.84 1163.61,-69.18 1153.27,-66.89 1154.1,-73.84"/>
</g>
<!-- Node200&#45;&gt;Node7 -->
<g id="edge52" class="edge">
<title>Node200&#45;&gt;Node7</title>
<path fill="none" stroke="#63b8ff" d="M583.91,-236.01C622.56,-226.8 683.34,-211.51 735,-195 836.83,-162.46 856.98,-138.52 960,-110 1025.78,-91.79 1103.56,-79.16 1153.79,-72.13"/>
<polygon fill="#63b8ff" stroke="#63b8ff" points="1154.08,-75.62 1163.51,-70.79 1153.12,-68.69 1154.08,-75.62"/>
</g>
<!-- Node200&#45;&gt;Node15 -->
<g id="edge53" class="edge">
<title>Node200&#45;&gt;Node15</title>
<path fill="none" stroke="#63b8ff" d="M548.82,-236.24C555.02,-220.58 565.2,-187.33 551,-165 538.08,-144.68 513.16,-133.48 492.08,-127.4"/>
<polygon fill="#63b8ff" stroke="#63b8ff" points="493.21,-124.07 482.65,-124.97 491.46,-130.85 493.21,-124.07"/>
</g>
<!-- Node200&#45;&gt;Node41 -->
<g id="edge54" class="edge">
<title>Node200&#45;&gt;Node41</title>
<path fill="none" stroke="#63b8ff" d="M537.91,-236.1C530.22,-226.45 517.75,-210.81 508.06,-198.65"/>
<polygon fill="#63b8ff" stroke="#63b8ff" points="510.94,-196.65 501.97,-191.01 505.47,-201.01 510.94,-196.65"/>
</g>
<!-- Node216&#45;&gt;Node7 -->
<g id="edge59" class="edge">
<title>Node216&#45;&gt;Node7</title>
<path fill="none" stroke="#63b8ff" d="M1401.19,-296.52C1401.04,-281.2 1398.55,-249.87 1382,-231 1355.96,-201.31 1253.69,-179.6 1217,-165 1176.59,-148.92 1150.45,-164.97 1126,-129 1111.35,-107.44 1139.89,-89.71 1166.86,-78.51"/>
<polygon fill="#63b8ff" stroke="#63b8ff" points="1167.96,-81.84 1176.01,-74.95 1165.42,-75.32 1167.96,-81.84"/>
</g>
<!-- Node216&#45;&gt;Node185 -->
<g id="edge56" class="edge">
<title>Node216&#45;&gt;Node185</title>
<path fill="none" stroke="#63b8ff" d="M1352.23,-296.56C1321.2,-289.63 1280.81,-278.24 1248,-261 1240,-256.8 1201.78,-224.93 1175.5,-202.71"/>
<polygon fill="#63b8ff" stroke="#63b8ff" points="1177.82,-200.08 1167.93,-196.29 1173.29,-205.42 1177.82,-200.08"/>
</g>
<!-- Node217 -->
<g id="node37" class="node">
<title>Node217</title>
<g id="a_node37"><a xlink:href="d__camera_8h.html" target="_top" xlink:title=" ">
<polygon fill="#fff0f0" stroke="red" points="1210.5,-129 1135.5,-129 1135.5,-110 1210.5,-110 1210.5,-129"/>
<text text-anchor="middle" x="1173" y="-117" font-family="Helvetica,sans-Serif" font-size="10.00">d/d_camera.h</text>
</a>
</g>
</g>
<!-- Node216&#45;&gt;Node217 -->
<g id="edge57" class="edge">
<title>Node216&#45;&gt;Node217</title>
<path fill="none" stroke="#63b8ff" d="M1406.09,-296.71C1413.75,-282.22 1426.23,-252.75 1415,-231 1391.74,-185.97 1367.56,-187.21 1322,-165 1290.05,-149.42 1251.54,-138.09 1221.68,-130.77"/>
<polygon fill="#63b8ff" stroke="#63b8ff" points="1222.7,-127.41 1212.17,-128.5 1221.09,-134.22 1222.7,-127.41"/>
</g>
<!-- Node225 -->
<g id="node38" class="node">
<title>Node225</title>
<g id="a_node38"><a xlink:href="f__op__view_8h.html" target="_top" xlink:title=" ">
<polygon fill="#fff0f0" stroke="red" points="1717,-255.5 1627,-255.5 1627,-236.5 1717,-236.5 1717,-255.5"/>
<text text-anchor="middle" x="1672" y="-243.5" font-family="Helvetica,sans-Serif" font-size="10.00">f_op/f_op_view.h</text>
</a>
</g>
</g>
<!-- Node216&#45;&gt;Node225 -->
<g id="edge60" class="edge">
<title>Node216&#45;&gt;Node225</title>
<path fill="none" stroke="#63b8ff" d="M1442.45,-296.55C1489.97,-286.29 1567.94,-269.46 1619.62,-258.31"/>
<polygon fill="#63b8ff" stroke="#63b8ff" points="1620.03,-261.8 1629.07,-256.27 1618.56,-254.96 1620.03,-261.8"/>
</g>
<!-- Node217&#45;&gt;Node7 -->
<g id="edge58" class="edge">
<title>Node217&#45;&gt;Node7</title>
<path fill="none" stroke="#63b8ff" d="M1178.45,-109.75C1182.77,-102.81 1188.96,-92.86 1194.38,-84.16"/>
<polygon fill="#63b8ff" stroke="#63b8ff" points="1197.32,-86.07 1199.63,-75.73 1191.38,-82.37 1197.32,-86.07"/>
</g>
<!-- Node225&#45;&gt;Node23 -->
<g id="edge61" class="edge">
<title>Node225&#45;&gt;Node23</title>
<path fill="none" stroke="#63b8ff" d="M1662.82,-236.1C1654.04,-227.59 1640.45,-214.41 1628.76,-203.07"/>
<polygon fill="#63b8ff" stroke="#63b8ff" points="1631.38,-200.74 1621.76,-196.29 1626.51,-205.76 1631.38,-200.74"/>
</g>
<!-- Node203 -->
<g id="node39" class="node">
<title>Node203</title>
<g id="a_node39"><a xlink:href="f__pc__leaf_8h.html" target="_top" xlink:title=" ">
<polygon fill="white" stroke="#666666" points="1781,-189.5 1695,-189.5 1695,-170.5 1781,-170.5 1781,-189.5"/>
<text text-anchor="middle" x="1738" y="-177.5" font-family="Helvetica,sans-Serif" font-size="10.00">f_pc/f_pc_leaf.h</text>
</a>
</g>
</g>
<!-- Node225&#45;&gt;Node203 -->
<g id="edge62" class="edge">
<title>Node225&#45;&gt;Node203</title>
<path fill="none" stroke="#63b8ff" d="M1681.18,-236.1C1691.42,-226.17 1708.23,-209.87 1720.91,-197.57"/>
<polygon fill="#63b8ff" stroke="#63b8ff" points="1723.07,-200.35 1727.81,-190.88 1718.2,-195.33 1723.07,-200.35"/>
</g>
<!-- Node168 -->
<g id="node40" class="node">
<title>Node168</title>
<g id="a_node40"><a xlink:href="f__pc__base_8h.html" target="_top" xlink:title=" ">
<polygon fill="white" stroke="#666666" points="2253.5,-129 2162.5,-129 2162.5,-110 2253.5,-110 2253.5,-129"/>
<text text-anchor="middle" x="2208" y="-117" font-family="Helvetica,sans-Serif" font-size="10.00">f_pc/f_pc_base.h</text>
</a>
</g>
</g>
<!-- Node203&#45;&gt;Node168 -->
<g id="edge63" class="edge">
<title>Node203&#45;&gt;Node168</title>
<path fill="none" stroke="#63b8ff" d="M1781.37,-173.6C1866.56,-163 2055.7,-139.46 2150.91,-127.61"/>
<polygon fill="#63b8ff" stroke="#63b8ff" points="2151.33,-131.08 2160.82,-126.37 2150.46,-124.13 2151.33,-131.08"/>
</g>
<!-- Node204 -->
<g id="node45" class="node">
<title>Node204</title>
<g id="a_node45"><a xlink:href="f__pc__draw__priority_8h.html" target="_top" xlink:title=" ">
<polygon fill="white" stroke="#666666" points="1800.5,-129 1675.5,-129 1675.5,-110 1800.5,-110 1800.5,-129"/>
<text text-anchor="middle" x="1738" y="-117" font-family="Helvetica,sans-Serif" font-size="10.00">f_pc/f_pc_draw_priority.h</text>
</a>
</g>
</g>
<!-- Node203&#45;&gt;Node204 -->
<g id="edge68" class="edge">
<title>Node203&#45;&gt;Node204</title>
<path fill="none" stroke="#63b8ff" d="M1738,-170.37C1738,-162.5 1738,-150.6 1738,-140.39"/>
<polygon fill="#63b8ff" stroke="#63b8ff" points="1741.5,-140.68 1738,-130.68 1734.5,-140.68 1741.5,-140.68"/>
</g>
<!-- Node179 -->
<g id="node46" class="node">
<title>Node179</title>
<g id="a_node46"><a xlink:href="f__pc__method_8h.html" target="_top" xlink:title=" ">
<polygon fill="white" stroke="#666666" points="1479,-129 1377,-129 1377,-110 1479,-110 1479,-129"/>
<text text-anchor="middle" x="1428" y="-117" font-family="Helvetica,sans-Serif" font-size="10.00">f_pc/f_pc_method.h</text>
</a>
</g>
</g>
<!-- Node203&#45;&gt;Node179 -->
<g id="edge70" class="edge">
<title>Node203&#45;&gt;Node179</title>
<path fill="none" stroke="#63b8ff" d="M1697.47,-170.06C1689.38,-168.33 1680.93,-166.57 1673,-165 1611.04,-152.7 1539.99,-139.95 1490.42,-131.26"/>
<polygon fill="#63b8ff" stroke="#63b8ff" points="1491.18,-127.84 1480.73,-129.57 1489.98,-134.74 1491.18,-127.84"/>
</g>
<!-- Node180 -->
<g id="node47" class="node">
<title>Node180</title>
<g id="a_node47"><a xlink:href="f__pc__profile_8h.html" target="_top" xlink:title=" ">
<polygon fill="white" stroke="#666666" points="1592.5,-129 1497.5,-129 1497.5,-110 1592.5,-110 1592.5,-129"/>
<text text-anchor="middle" x="1545" y="-117" font-family="Helvetica,sans-Serif" font-size="10.00">f_pc/f_pc_profile.h</text>
</a>
</g>
</g>
<!-- Node203&#45;&gt;Node180 -->
<g id="edge72" class="edge">
<title>Node203&#45;&gt;Node180</title>
<path fill="none" stroke="#63b8ff" d="M1708.69,-170.12C1675.81,-160.15 1622.29,-143.93 1585.44,-132.76"/>
<polygon fill="#63b8ff" stroke="#63b8ff" points="1586.62,-129.46 1576.04,-129.91 1584.59,-136.16 1586.62,-129.46"/>
</g>
<!-- Node205 -->
<g id="node48" class="node">
<title>Node205</title>
<g id="a_node48"><a xlink:href="d__procname_8h.html" target="_top" xlink:title=" ">
<polygon fill="white" stroke="#666666" points="1905,-129 1819,-129 1819,-110 1905,-110 1905,-129"/>
<text text-anchor="middle" x="1862" y="-117" font-family="Helvetica,sans-Serif" font-size="10.00">d/d_procname.h</text>
</a>
</g>
</g>
<!-- Node203&#45;&gt;Node205 -->
<g id="edge74" class="edge">
<title>Node203&#45;&gt;Node205</title>
<path fill="none" stroke="#63b8ff" d="M1756.83,-170.12C1776.95,-160.62 1809.11,-145.45 1832.58,-134.38"/>
<polygon fill="#63b8ff" stroke="#63b8ff" points="1834.07,-137.55 1841.62,-130.11 1831.08,-131.22 1834.07,-137.55"/>
</g>
<!-- Node169 -->
<g id="node41" class="node">
<title>Node169</title>
<g id="a_node41"><a xlink:href="f__pc__delete__tag_8h.html" target="_top" xlink:title=" ">
<polygon fill="#fff0f0" stroke="red" points="2072.5,-74 1957.5,-74 1957.5,-55 2072.5,-55 2072.5,-74"/>
<text text-anchor="middle" x="2015" y="-62" font-family="Helvetica,sans-Serif" font-size="10.00">f_pc/f_pc_delete_tag.h</text>
</a>
</g>
</g>
<!-- Node168&#45;&gt;Node169 -->
<g id="edge64" class="edge">
<title>Node168&#45;&gt;Node169</title>
<path fill="none" stroke="#63b8ff" d="M2175.26,-109.51C2143.14,-100.69 2093.96,-87.18 2058.55,-77.46"/>
<polygon fill="#63b8ff" stroke="#63b8ff" points="2059.61,-74.12 2049.04,-74.85 2057.75,-80.87 2059.61,-74.12"/>
</g>
<!-- Node172 -->
<g id="node42" class="node">
<title>Node172</title>
<g id="a_node42"><a xlink:href="f__pc__layer__tag_8h.html" target="_top" xlink:title=" ">
<polygon fill="#fff0f0" stroke="red" points="2199.5,-74 2090.5,-74 2090.5,-55 2199.5,-55 2199.5,-74"/>
<text text-anchor="middle" x="2145" y="-62" font-family="Helvetica,sans-Serif" font-size="10.00">f_pc/f_pc_layer_tag.h</text>
</a>
</g>
</g>
<!-- Node168&#45;&gt;Node172 -->
<g id="edge65" class="edge">
<title>Node168&#45;&gt;Node172</title>
<path fill="none" stroke="#63b8ff" d="M2197.31,-109.51C2188.3,-101.93 2175.17,-90.88 2164.32,-81.75"/>
<polygon fill="#63b8ff" stroke="#63b8ff" points="2166.59,-79.09 2156.69,-75.33 2162.09,-84.45 2166.59,-79.09"/>
</g>
<!-- Node173 -->
<g id="node43" class="node">
<title>Node173</title>
<g id="a_node43"><a xlink:href="f__pc__line__tag_8h.html" target="_top" xlink:title=" ">
<polygon fill="#fff0f0" stroke="red" points="2322,-74 2218,-74 2218,-55 2322,-55 2322,-74"/>
<text text-anchor="middle" x="2270" y="-62" font-family="Helvetica,sans-Serif" font-size="10.00">f_pc/f_pc_line_tag.h</text>
</a>
</g>
</g>
<!-- Node168&#45;&gt;Node173 -->
<g id="edge66" class="edge">
<title>Node168&#45;&gt;Node173</title>
<path fill="none" stroke="#63b8ff" d="M2218.52,-109.51C2227.39,-101.93 2240.31,-90.88 2250.99,-81.75"/>
<polygon fill="#63b8ff" stroke="#63b8ff" points="2253.16,-84.5 2258.49,-75.34 2248.61,-79.18 2253.16,-84.5"/>
</g>
<!-- Node174 -->
<g id="node44" class="node">
<title>Node174</title>
<g id="a_node44"><a xlink:href="f__pc__priority_8h.html" target="_top" xlink:title=" ">
<polygon fill="#fff0f0" stroke="red" points="2438,-74 2340,-74 2340,-55 2438,-55 2438,-74"/>
<text text-anchor="middle" x="2389" y="-62" font-family="Helvetica,sans-Serif" font-size="10.00">f_pc/f_pc_priority.h</text>
</a>
</g>
</g>
<!-- Node168&#45;&gt;Node174 -->
<g id="edge67" class="edge">
<title>Node168&#45;&gt;Node174</title>
<path fill="none" stroke="#63b8ff" d="M2238.7,-109.51C2268.7,-100.73 2314.55,-87.3 2347.73,-77.59"/>
<polygon fill="#63b8ff" stroke="#63b8ff" points="2348.38,-81.04 2357,-74.87 2346.41,-74.32 2348.38,-81.04"/>
</g>
<!-- Node204&#45;&gt;Node7 -->
<g id="edge69" class="edge">
<title>Node204&#45;&gt;Node7</title>
<path fill="none" stroke="#63b8ff" d="M1675.18,-111C1672.08,-110.66 1669,-110.32 1666,-110 1518.38,-94.15 1343.82,-77.96 1258.4,-70.21"/>
<polygon fill="#63b8ff" stroke="#63b8ff" points="1258.73,-66.72 1248.46,-69.31 1258.1,-73.69 1258.73,-66.72"/>
</g>
<!-- Node179&#45;&gt;Node7 -->
<g id="edge71" class="edge">
<title>Node179&#45;&gt;Node7</title>
<path fill="none" stroke="#63b8ff" d="M1390.34,-109.51C1352.91,-100.57 1295.35,-86.83 1254.52,-77.08"/>
<polygon fill="#63b8ff" stroke="#63b8ff" points="1255.48,-73.72 1244.95,-74.8 1253.86,-80.52 1255.48,-73.72"/>
</g>
<!-- Node180&#45;&gt;Node7 -->
<g id="edge73" class="edge">
<title>Node180&#45;&gt;Node7</title>
<path fill="none" stroke="#63b8ff" d="M1497.15,-111.02C1434.05,-101.15 1323.4,-83.86 1258.2,-73.66"/>
<polygon fill="#63b8ff" stroke="#63b8ff" points="1258.88,-70.23 1248.46,-72.14 1257.8,-77.14 1258.88,-70.23"/>
</g>
<!-- Node232&#45;&gt;Node23 -->
<g id="edge77" class="edge">
<title>Node232&#45;&gt;Node23</title>
<path fill="none" stroke="#63b8ff" d="M1726.2,-351.65C1697.61,-337.1 1643.8,-305.29 1618,-261 1608.39,-244.5 1605.6,-222.95 1605.1,-206.38"/>
<polygon fill="#63b8ff" stroke="#63b8ff" points="1608.6,-206.84 1605.08,-196.85 1601.6,-206.85 1608.6,-206.84"/>
</g>
<!-- Node232&#45;&gt;Node203 -->
<g id="edge78" class="edge">
<title>Node232&#45;&gt;Node203</title>
<path fill="none" stroke="#63b8ff" d="M1744.66,-351.84C1743.6,-324.66 1740.32,-240.52 1738.8,-201.39"/>
<polygon fill="#63b8ff" stroke="#63b8ff" points="1742.3,-201.36 1738.41,-191.51 1735.3,-201.63 1742.3,-201.36"/>
</g>
<!-- Node98&#45;&gt;Node7 -->
<g id="edge80" class="edge">
<title>Node98&#45;&gt;Node7</title>
<path fill="none" stroke="#63b8ff" d="M2037.2,-406.61C2072.51,-391.89 2134,-358.89 2134,-307.5 2134,-307.5 2134,-307.5 2134,-179 2134,-145.56 2131.5,-129.02 2104,-110 2069.08,-85.85 1444.81,-70.61 1258.24,-66.57"/>
<polygon fill="#63b8ff" stroke="#63b8ff" points="1258.43,-63.08 1248.36,-66.36 1258.28,-70.08 1258.43,-63.08"/>
</g>
</g>
</svg>
