<?xml version="1.0" encoding="UTF-8" standalone="no"?>
<!DOCTYPE svg PUBLIC "-//W3C//DTD SVG 1.1//EN"
 "http://www.w3.org/Graphics/SVG/1.1/DTD/svg11.dtd">
<!-- Generated by graphviz version 9.0.0 (20230911.1827)
 -->
<!-- Title: include/rel/d/a/door Pages: 1 -->
<svg width="1073pt" height="126pt"
 viewBox="0.00 0.00 1073.00 125.75" xmlns="http://www.w3.org/2000/svg" xmlns:xlink="http://www.w3.org/1999/xlink">
<g id="graph0" class="graph" transform="scale(1 1) rotate(0) translate(4 121.75)">
<title>include/rel/d/a/door</title>
<g id="clust1" class="cluster">
<title>clusterdir_b81c1d082692bb1b2b34ed3bfe8a0f4a</title>
<g id="a_clust1"><a xlink:href="dir_b81c1d082692bb1b2b34ed3bfe8a0f4a.html" target="_top" xlink:title="a">
<polygon fill="#edf0f7" stroke="#7f7f7f" stroke-dasharray="5,2" points="8,-39.25 8,-109.75 1057,-109.75 1057,-39.25 8,-39.25"/>
<text text-anchor="middle" x="532.5" y="-96.25" font-family="Helvetica,sans-Serif" font-size="10.00">a</text>
</a>
</g>
</g>
<g id="clust2" class="cluster">
<title>clusterdir_525cfad2fbae9f4cf61b85ea6b4f4028</title>
<g id="a_clust2"><a xlink:href="dir_525cfad2fbae9f4cf61b85ea6b4f4028.html" target="_top">
<polygon fill="#edf0f7" stroke="#404040" stroke-width="2" points="16,-47.25 16,-82.5 1049,-82.5 1049,-47.25 16,-47.25"/>
</a>
</g>
</g>
<!-- dir_525cfad2fbae9f4cf61b85ea6b4f4028 -->
<g id="node1" class="node">
<title>dir_525cfad2fbae9f4cf61b85ea6b4f4028</title>
<text text-anchor="middle" x="1024" y="-61" font-family="Helvetica,sans-Serif" font-size="10.00">door</text>
</g>
<!-- dir_e89a64665f1d1516b922fc9e029dcb70 -->
<g id="node2" class="node">
<title>dir_e89a64665f1d1516b922fc9e029dcb70</title>
<g id="a_node2"><a xlink:href="dir_e89a64665f1d1516b922fc9e029dcb70.html" target="_top" xlink:title="d_a_door_boss">
<polygon fill="#a2b4d6" stroke="#404040" points="324,-74.5 242,-74.5 242,-55.25 324,-55.25 324,-74.5"/>
<text text-anchor="middle" x="283" y="-61" font-family="Helvetica,sans-Serif" font-size="10.00">d_a_door_boss</text>
</a>
</g>
</g>
<!-- dir_54283da8a0cf1311a88c964d76512876 -->
<g id="node11" class="node">
<title>dir_54283da8a0cf1311a88c964d76512876</title>
<g id="a_node11"><a xlink:href="dir_54283da8a0cf1311a88c964d76512876.html" target="_top" xlink:title="SSystem">
<polygon fill="#edf0f7" stroke="red" stroke-dasharray="5,2" points="393.88,-19.25 338.12,-19.25 338.12,0 393.88,0 393.88,-19.25"/>
<text text-anchor="middle" x="366" y="-5.75" font-family="Helvetica,sans-Serif" font-size="10.00">SSystem</text>
</a>
</g>
</g>
<!-- dir_e89a64665f1d1516b922fc9e029dcb70&#45;&gt;dir_54283da8a0cf1311a88c964d76512876 -->
<g id="edge1" class="edge">
<title>dir_e89a64665f1d1516b922fc9e029dcb70&#45;&gt;dir_54283da8a0cf1311a88c964d76512876</title>
<g id="a_edge1"><a xlink:href="dir_000068_001719.html" target="_top">
<path fill="none" stroke="#63b8ff" d="M297.08,-54.84C309.48,-46.89 327.79,-35.14 342.43,-25.75"/>
<polygon fill="#63b8ff" stroke="#63b8ff" points="344.05,-28.87 350.58,-20.52 340.27,-22.97 344.05,-28.87"/>
</a>
</g>
<g id="a_edge1&#45;headlabel"><a xlink:href="dir_000068_001719.html" target="_top" xlink:title="1">
<text text-anchor="middle" x="343.83" y="-28.5" font-family="Helvetica,sans-Serif" font-size="10.00" fill="#63b8ff">1</text>
</a>
</g>
</g>
<!-- dir_cc3ad1aed4be3f446fdd7af78322f5bf -->
<g id="node13" class="node">
<title>dir_cc3ad1aed4be3f446fdd7af78322f5bf</title>
<g id="a_node13"><a xlink:href="dir_cc3ad1aed4be3f446fdd7af78322f5bf.html" target="_top" xlink:title="d">
<polygon fill="#edf0f7" stroke="red" stroke-dasharray="5,2" points="282.4,-19.25 253.6,-19.25 253.6,0 282.4,0 282.4,-19.25"/>
<text text-anchor="middle" x="268" y="-5.75" font-family="Helvetica,sans-Serif" font-size="10.00">d</text>
</a>
</g>
</g>
<!-- dir_e89a64665f1d1516b922fc9e029dcb70&#45;&gt;dir_cc3ad1aed4be3f446fdd7af78322f5bf -->
<g id="edge2" class="edge">
<title>dir_e89a64665f1d1516b922fc9e029dcb70&#45;&gt;dir_cc3ad1aed4be3f446fdd7af78322f5bf</title>
<g id="a_edge2"><a xlink:href="dir_000068_000022.html" target="_top">
<path fill="none" stroke="#63b8ff" d="M280.52,-55.08C278.65,-48.42 275.99,-38.99 273.61,-30.53"/>
<polygon fill="#63b8ff" stroke="#63b8ff" points="277.02,-29.74 270.94,-21.07 270.28,-31.64 277.02,-29.74"/>
</a>
</g>
<g id="a_edge2&#45;headlabel"><a xlink:href="dir_000068_000022.html" target="_top" xlink:title="2">
<text text-anchor="middle" x="280.32" y="-27.1" font-family="Helvetica,sans-Serif" font-size="10.00" fill="#63b8ff">2</text>
</a>
</g>
</g>
<!-- dir_fbb29e8cafd745cbb7106b56de6b5377 -->
<g id="node14" class="node">
<title>dir_fbb29e8cafd745cbb7106b56de6b5377</title>
<g id="a_node14"><a xlink:href="dir_fbb29e8cafd745cbb7106b56de6b5377.html" target="_top" xlink:title="f_op">
<polygon fill="#edf0f7" stroke="#7f7f7f" points="206.38,-19.25 171.62,-19.25 171.62,0 206.38,0 206.38,-19.25"/>
<text text-anchor="middle" x="189" y="-5.75" font-family="Helvetica,sans-Serif" font-size="10.00">f_op</text>
</a>
</g>
</g>
<!-- dir_e89a64665f1d1516b922fc9e029dcb70&#45;&gt;dir_fbb29e8cafd745cbb7106b56de6b5377 -->
<g id="edge3" class="edge">
<title>dir_e89a64665f1d1516b922fc9e029dcb70&#45;&gt;dir_fbb29e8cafd745cbb7106b56de6b5377</title>
<g id="a_edge3"><a xlink:href="dir_000068_000808.html" target="_top">
<path fill="none" stroke="#63b8ff" d="M267.05,-54.84C252.74,-46.73 231.47,-34.68 214.75,-25.21"/>
<polygon fill="#63b8ff" stroke="#63b8ff" points="216.77,-22.33 206.34,-20.45 213.32,-28.42 216.77,-22.33"/>
</a>
</g>
<g id="a_edge3&#45;headlabel"><a xlink:href="dir_000068_000808.html" target="_top" xlink:title="1">
<text text-anchor="middle" x="219.98" y="-17.01" font-family="Helvetica,sans-Serif" font-size="10.00" fill="#63b8ff">1</text>
</a>
</g>
</g>
<!-- dir_1ccc2937777f373bf009683899c513d5 -->
<g id="node3" class="node">
<title>dir_1ccc2937777f373bf009683899c513d5</title>
<g id="a_node3"><a xlink:href="dir_1ccc2937777f373bf009683899c513d5.html" target="_top" xlink:title="d_a_door_bossL1">
<polygon fill="#a2b4d6" stroke="#404040" points="435.62,-74.5 342.38,-74.5 342.38,-55.25 435.62,-55.25 435.62,-74.5"/>
<text text-anchor="middle" x="389" y="-61" font-family="Helvetica,sans-Serif" font-size="10.00">d_a_door_bossL1</text>
</a>
</g>
</g>
<!-- dir_1ccc2937777f373bf009683899c513d5&#45;&gt;dir_54283da8a0cf1311a88c964d76512876 -->
<g id="edge4" class="edge">
<title>dir_1ccc2937777f373bf009683899c513d5&#45;&gt;dir_54283da8a0cf1311a88c964d76512876</title>
<g id="a_edge4"><a xlink:href="dir_000069_001719.html" target="_top">
<path fill="none" stroke="#63b8ff" d="M385.2,-55.08C382.26,-48.26 378.06,-38.56 374.35,-29.95"/>
<polygon fill="#63b8ff" stroke="#63b8ff" points="377.66,-28.79 370.48,-21 371.23,-31.57 377.66,-28.79"/>
</a>
</g>
<g id="a_edge4&#45;headlabel"><a xlink:href="dir_000069_001719.html" target="_top" xlink:title="1">
<text text-anchor="middle" x="381.09" y="-25.7" font-family="Helvetica,sans-Serif" font-size="10.00" fill="#63b8ff">1</text>
</a>
</g>
</g>
<!-- dir_b778c3f297ab88300258a2935792c8cc -->
<g id="node12" class="node">
<title>dir_b778c3f297ab88300258a2935792c8cc</title>
<g id="a_node12"><a xlink:href="dir_b778c3f297ab88300258a2935792c8cc.html" target="_top" xlink:title="dolphin">
<polygon fill="#edf0f7" stroke="red" stroke-dasharray="5,2" points="682.38,-19.25 635.62,-19.25 635.62,0 682.38,0 682.38,-19.25"/>
<text text-anchor="middle" x="659" y="-5.75" font-family="Helvetica,sans-Serif" font-size="10.00">dolphin</text>
</a>
</g>
</g>
<!-- dir_1ccc2937777f373bf009683899c513d5&#45;&gt;dir_b778c3f297ab88300258a2935792c8cc -->
<g id="edge5" class="edge">
<title>dir_1ccc2937777f373bf009683899c513d5&#45;&gt;dir_b778c3f297ab88300258a2935792c8cc</title>
<g id="a_edge5"><a xlink:href="dir_000069_000783.html" target="_top">
<path fill="none" stroke="#63b8ff" d="M406.19,-54.81C417.04,-49.47 431.5,-43.04 445,-39.25 506.52,-21.98 581,-15.02 623.9,-12.29"/>
<polygon fill="#63b8ff" stroke="#63b8ff" points="623.84,-15.8 633.62,-11.72 623.43,-8.82 623.84,-15.8"/>
</a>
</g>
<g id="a_edge5&#45;headlabel"><a xlink:href="dir_000069_000783.html" target="_top" xlink:title="1">
<text text-anchor="middle" x="621.93" y="-14.88" font-family="Helvetica,sans-Serif" font-size="10.00" fill="#63b8ff">1</text>
</a>
</g>
</g>
<!-- dir_1ccc2937777f373bf009683899c513d5&#45;&gt;dir_cc3ad1aed4be3f446fdd7af78322f5bf -->
<g id="edge6" class="edge">
<title>dir_1ccc2937777f373bf009683899c513d5&#45;&gt;dir_cc3ad1aed4be3f446fdd7af78322f5bf</title>
<g id="a_edge6"><a xlink:href="dir_000069_000022.html" target="_top">
<path fill="none" stroke="#63b8ff" d="M368.47,-54.84C347.71,-45.7 315.57,-31.56 293.26,-21.74"/>
<polygon fill="#63b8ff" stroke="#63b8ff" points="294.84,-18.61 284.28,-17.79 292.02,-25.02 294.84,-18.61"/>
</a>
</g>
<g id="a_edge6&#45;headlabel"><a xlink:href="dir_000069_000022.html" target="_top" xlink:title="2">
<text text-anchor="middle" x="297.89" y="-12.98" font-family="Helvetica,sans-Serif" font-size="10.00" fill="#63b8ff">2</text>
</a>
</g>
</g>
<!-- dir_1ccc2937777f373bf009683899c513d5&#45;&gt;dir_fbb29e8cafd745cbb7106b56de6b5377 -->
<g id="edge7" class="edge">
<title>dir_1ccc2937777f373bf009683899c513d5&#45;&gt;dir_fbb29e8cafd745cbb7106b56de6b5377</title>
<g id="a_edge7"><a xlink:href="dir_000069_000808.html" target="_top">
<path fill="none" stroke="#63b8ff" d="M371.23,-54.87C360.4,-49.68 346.17,-43.4 333,-39.25 311.98,-32.63 253.64,-21.89 218,-15.62"/>
<polygon fill="#63b8ff" stroke="#63b8ff" points="218.81,-12.21 208.36,-13.93 217.61,-19.1 218.81,-12.21"/>
</a>
</g>
<g id="a_edge7&#45;headlabel"><a xlink:href="dir_000069_000808.html" target="_top" xlink:title="1">
<text text-anchor="middle" x="221.35" y="-5.89" font-family="Helvetica,sans-Serif" font-size="10.00" fill="#63b8ff">1</text>
</a>
</g>
</g>
<!-- dir_729ad7059123df9274db7c829cf95620 -->
<g id="node4" class="node">
<title>dir_729ad7059123df9274db7c829cf95620</title>
<g id="a_node4"><a xlink:href="dir_729ad7059123df9274db7c829cf95620.html" target="_top" xlink:title="d_a_door_bossL5">
<polygon fill="#a2b4d6" stroke="#404040" points="988.62,-74.5 895.38,-74.5 895.38,-55.25 988.62,-55.25 988.62,-74.5"/>
<text text-anchor="middle" x="942" y="-61" font-family="Helvetica,sans-Serif" font-size="10.00">d_a_door_bossL5</text>
</a>
</g>
</g>
<!-- dir_729ad7059123df9274db7c829cf95620&#45;&gt;dir_b778c3f297ab88300258a2935792c8cc -->
<g id="edge8" class="edge">
<title>dir_729ad7059123df9274db7c829cf95620&#45;&gt;dir_b778c3f297ab88300258a2935792c8cc</title>
<g id="a_edge8"><a xlink:href="dir_000070_000783.html" target="_top">
<path fill="none" stroke="#63b8ff" d="M924.82,-54.77C913.98,-49.42 899.51,-42.99 886,-39.25 819.72,-20.92 739.27,-14.29 694.13,-11.92"/>
<polygon fill="#63b8ff" stroke="#63b8ff" points="694.31,-8.42 684.15,-11.44 693.97,-15.41 694.31,-8.42"/>
</a>
</g>
<g id="a_edge8&#45;headlabel"><a xlink:href="dir_000070_000783.html" target="_top" xlink:title="1">
<text text-anchor="middle" x="696.52" y="-1.81" font-family="Helvetica,sans-Serif" font-size="10.00" fill="#63b8ff">1</text>
</a>
</g>
</g>
<!-- dir_ac47173d2047cb2a58d29cdb966553ad -->
<g id="node5" class="node">
<title>dir_ac47173d2047cb2a58d29cdb966553ad</title>
<g id="a_node5"><a xlink:href="dir_ac47173d2047cb2a58d29cdb966553ad.html" target="_top" xlink:title="d_a_door_dbdoor00">
<polygon fill="#a2b4d6" stroke="#404040" points="224.38,-74.5 123.62,-74.5 123.62,-55.25 224.38,-55.25 224.38,-74.5"/>
<text text-anchor="middle" x="174" y="-61" font-family="Helvetica,sans-Serif" font-size="10.00">d_a_door_dbdoor00</text>
</a>
</g>
</g>
<!-- dir_ac47173d2047cb2a58d29cdb966553ad&#45;&gt;dir_cc3ad1aed4be3f446fdd7af78322f5bf -->
<g id="edge9" class="edge">
<title>dir_ac47173d2047cb2a58d29cdb966553ad&#45;&gt;dir_cc3ad1aed4be3f446fdd7af78322f5bf</title>
<g id="a_edge9"><a xlink:href="dir_000071_000022.html" target="_top">
<path fill="none" stroke="#63b8ff" d="M189.95,-54.84C204.61,-46.54 226.57,-34.1 243.46,-24.53"/>
<polygon fill="#63b8ff" stroke="#63b8ff" points="244.92,-27.72 251.9,-19.75 241.47,-21.63 244.92,-27.72"/>
</a>
</g>
<g id="a_edge9&#45;headlabel"><a xlink:href="dir_000071_000022.html" target="_top" xlink:title="2">
<text text-anchor="middle" x="244.51" y="-27.34" font-family="Helvetica,sans-Serif" font-size="10.00" fill="#63b8ff">2</text>
</a>
</g>
</g>
<!-- dir_ac47173d2047cb2a58d29cdb966553ad&#45;&gt;dir_fbb29e8cafd745cbb7106b56de6b5377 -->
<g id="edge10" class="edge">
<title>dir_ac47173d2047cb2a58d29cdb966553ad&#45;&gt;dir_fbb29e8cafd745cbb7106b56de6b5377</title>
<g id="a_edge10"><a xlink:href="dir_000071_000808.html" target="_top">
<path fill="none" stroke="#63b8ff" d="M176.48,-55.08C178.35,-48.42 181.01,-38.99 183.39,-30.53"/>
<polygon fill="#63b8ff" stroke="#63b8ff" points="186.72,-31.64 186.06,-21.07 179.98,-29.74 186.72,-31.64"/>
</a>
</g>
<g id="a_edge10&#45;headlabel"><a xlink:href="dir_000071_000808.html" target="_top" xlink:title="1">
<text text-anchor="middle" x="188.89" y="-30.54" font-family="Helvetica,sans-Serif" font-size="10.00" fill="#63b8ff">1</text>
</a>
</g>
</g>
<!-- dir_718b53c9f92d7ee983a82cd945b00575 -->
<g id="node6" class="node">
<title>dir_718b53c9f92d7ee983a82cd945b00575</title>
<g id="a_node6"><a xlink:href="dir_718b53c9f92d7ee983a82cd945b00575.html" target="_top" xlink:title="d_a_door_knob00">
<polygon fill="#a2b4d6" stroke="#404040" points="877.25,-74.5 784.75,-74.5 784.75,-55.25 877.25,-55.25 877.25,-74.5"/>
<text text-anchor="middle" x="831" y="-61" font-family="Helvetica,sans-Serif" font-size="10.00">d_a_door_knob00</text>
</a>
</g>
</g>
<!-- dir_718b53c9f92d7ee983a82cd945b00575&#45;&gt;dir_b778c3f297ab88300258a2935792c8cc -->
<g id="edge11" class="edge">
<title>dir_718b53c9f92d7ee983a82cd945b00575&#45;&gt;dir_b778c3f297ab88300258a2935792c8cc</title>
<g id="a_edge11"><a xlink:href="dir_000072_000783.html" target="_top">
<path fill="none" stroke="#63b8ff" d="M813,-54.82C802.42,-49.75 788.67,-43.6 776,-39.25 748.93,-29.96 717.36,-22.42 693.84,-17.42"/>
<polygon fill="#63b8ff" stroke="#63b8ff" points="694.65,-14.01 684.15,-15.41 693.23,-20.87 694.65,-14.01"/>
</a>
</g>
<g id="a_edge11&#45;headlabel"><a xlink:href="dir_000072_000783.html" target="_top" xlink:title="1">
<text text-anchor="middle" x="697.27" y="-7.78" font-family="Helvetica,sans-Serif" font-size="10.00" fill="#63b8ff">1</text>
</a>
</g>
</g>
<!-- dir_ddef3fee4cf0faa644b30bfe86b3f5ce -->
<g id="node7" class="node">
<title>dir_ddef3fee4cf0faa644b30bfe86b3f5ce</title>
<g id="a_node7"><a xlink:href="dir_ddef3fee4cf0faa644b30bfe86b3f5ce.html" target="_top" xlink:title="d_a_door_mbossL1">
<polygon fill="#a2b4d6" stroke="#404040" points="766.75,-74.5 665.25,-74.5 665.25,-55.25 766.75,-55.25 766.75,-74.5"/>
<text text-anchor="middle" x="716" y="-61" font-family="Helvetica,sans-Serif" font-size="10.00">d_a_door_mbossL1</text>
</a>
</g>
</g>
<!-- dir_ddef3fee4cf0faa644b30bfe86b3f5ce&#45;&gt;dir_b778c3f297ab88300258a2935792c8cc -->
<g id="edge12" class="edge">
<title>dir_ddef3fee4cf0faa644b30bfe86b3f5ce&#45;&gt;dir_b778c3f297ab88300258a2935792c8cc</title>
<g id="a_edge12"><a xlink:href="dir_000073_000783.html" target="_top">
<path fill="none" stroke="#63b8ff" d="M706.33,-54.84C698.26,-47.3 686.53,-36.35 676.78,-27.23"/>
<polygon fill="#63b8ff" stroke="#63b8ff" points="679.33,-24.83 669.63,-20.56 674.55,-29.94 679.33,-24.83"/>
</a>
</g>
<g id="a_edge12&#45;headlabel"><a xlink:href="dir_000073_000783.html" target="_top" xlink:title="1">
<text text-anchor="middle" x="682.79" y="-20.3" font-family="Helvetica,sans-Serif" font-size="10.00" fill="#63b8ff">1</text>
</a>
</g>
</g>
<!-- dir_2fe9406a7cee7d3af4d3b0793cbb9fbd -->
<g id="node8" class="node">
<title>dir_2fe9406a7cee7d3af4d3b0793cbb9fbd</title>
<g id="a_node8"><a xlink:href="dir_2fe9406a7cee7d3af4d3b0793cbb9fbd.html" target="_top" xlink:title="d_a_door_push">
<polygon fill="#a2b4d6" stroke="#404040" points="106,-74.5 24,-74.5 24,-55.25 106,-55.25 106,-74.5"/>
<text text-anchor="middle" x="65" y="-61" font-family="Helvetica,sans-Serif" font-size="10.00">d_a_door_push</text>
</a>
</g>
</g>
<!-- dir_2fe9406a7cee7d3af4d3b0793cbb9fbd&#45;&gt;dir_cc3ad1aed4be3f446fdd7af78322f5bf -->
<g id="edge13" class="edge">
<title>dir_2fe9406a7cee7d3af4d3b0793cbb9fbd&#45;&gt;dir_cc3ad1aed4be3f446fdd7af78322f5bf</title>
<g id="a_edge13"><a xlink:href="dir_000074_000022.html" target="_top">
<path fill="none" stroke="#63b8ff" d="M80.3,-54.98C89.97,-49.7 102.88,-43.28 115,-39.25 126.88,-35.3 201.7,-22.07 242.14,-15.07"/>
<polygon fill="#63b8ff" stroke="#63b8ff" points="242.49,-18.56 251.75,-13.41 241.3,-11.66 242.49,-18.56"/>
</a>
</g>
<g id="a_edge13&#45;headlabel"><a xlink:href="dir_000074_000022.html" target="_top" xlink:title="3">
<text text-anchor="middle" x="240.93" y="-17.83" font-family="Helvetica,sans-Serif" font-size="10.00" fill="#63b8ff">3</text>
</a>
</g>
</g>
<!-- dir_2fe9406a7cee7d3af4d3b0793cbb9fbd&#45;&gt;dir_fbb29e8cafd745cbb7106b56de6b5377 -->
<g id="edge14" class="edge">
<title>dir_2fe9406a7cee7d3af4d3b0793cbb9fbd&#45;&gt;dir_fbb29e8cafd745cbb7106b56de6b5377</title>
<g id="a_edge14"><a xlink:href="dir_000074_000808.html" target="_top">
<path fill="none" stroke="#63b8ff" d="M82.41,-54.83C91.94,-50 104.01,-44.07 115,-39.25 129.93,-32.7 146.87,-26.09 160.78,-20.87"/>
<polygon fill="#63b8ff" stroke="#63b8ff" points="161.6,-24.3 169.76,-17.54 159.17,-17.74 161.6,-24.3"/>
</a>
</g>
<g id="a_edge14&#45;headlabel"><a xlink:href="dir_000074_000808.html" target="_top" xlink:title="1">
<text text-anchor="middle" x="160.64" y="-23.81" font-family="Helvetica,sans-Serif" font-size="10.00" fill="#63b8ff">1</text>
</a>
</g>
</g>
<!-- dir_8ec234277d22f10bc764805d77c58e75 -->
<g id="node9" class="node">
<title>dir_8ec234277d22f10bc764805d77c58e75</title>
<g id="a_node9"><a xlink:href="dir_8ec234277d22f10bc764805d77c58e75.html" target="_top" xlink:title="d_a_door_shutter">
<polygon fill="#a2b4d6" stroke="#404040" points="647.5,-74.5 556.5,-74.5 556.5,-55.25 647.5,-55.25 647.5,-74.5"/>
<text text-anchor="middle" x="602" y="-61" font-family="Helvetica,sans-Serif" font-size="10.00">d_a_door_shutter</text>
</a>
</g>
</g>
<!-- dir_8ec234277d22f10bc764805d77c58e75&#45;&gt;dir_b778c3f297ab88300258a2935792c8cc -->
<g id="edge15" class="edge">
<title>dir_8ec234277d22f10bc764805d77c58e75&#45;&gt;dir_b778c3f297ab88300258a2935792c8cc</title>
<g id="a_edge15"><a xlink:href="dir_000075_000783.html" target="_top">
<path fill="none" stroke="#63b8ff" d="M611.67,-54.84C619.74,-47.3 631.47,-36.35 641.22,-27.23"/>
<polygon fill="#63b8ff" stroke="#63b8ff" points="643.45,-29.94 648.37,-20.56 638.67,-24.83 643.45,-29.94"/>
</a>
</g>
<g id="a_edge15&#45;headlabel"><a xlink:href="dir_000075_000783.html" target="_top" xlink:title="1">
<text text-anchor="middle" x="643.87" y="-29.56" font-family="Helvetica,sans-Serif" font-size="10.00" fill="#63b8ff">1</text>
</a>
</g>
</g>
<!-- dir_bddf41d05a108f4cceff7e444dd137fd -->
<g id="node10" class="node">
<title>dir_bddf41d05a108f4cceff7e444dd137fd</title>
<g id="a_node10"><a xlink:href="dir_bddf41d05a108f4cceff7e444dd137fd.html" target="_top" xlink:title="d_a_door_spiral">
<polygon fill="#a2b4d6" stroke="#404040" points="538.12,-74.5 453.88,-74.5 453.88,-55.25 538.12,-55.25 538.12,-74.5"/>
<text text-anchor="middle" x="496" y="-61" font-family="Helvetica,sans-Serif" font-size="10.00">d_a_door_spiral</text>
</a>
</g>
</g>
<!-- dir_bddf41d05a108f4cceff7e444dd137fd&#45;&gt;dir_b778c3f297ab88300258a2935792c8cc -->
<g id="edge16" class="edge">
<title>dir_bddf41d05a108f4cceff7e444dd137fd&#45;&gt;dir_b778c3f297ab88300258a2935792c8cc</title>
<g id="a_edge16"><a xlink:href="dir_000076_000783.html" target="_top">
<path fill="none" stroke="#63b8ff" d="M512.98,-54.83C522.98,-49.76 535.98,-43.6 548,-39.25 572.9,-30.23 601.91,-22.86 624.03,-17.85"/>
<polygon fill="#63b8ff" stroke="#63b8ff" points="624.73,-21.28 633.74,-15.71 623.22,-14.44 624.73,-21.28"/>
</a>
</g>
<g id="a_edge16&#45;headlabel"><a xlink:href="dir_000076_000783.html" target="_top" xlink:title="1">
<text text-anchor="middle" x="623.31" y="-20.63" font-family="Helvetica,sans-Serif" font-size="10.00" fill="#63b8ff">1</text>
</a>
</g>
</g>
</g>
</svg>
