<?xml version="1.0" encoding="UTF-8" standalone="no"?>
<!DOCTYPE svg PUBLIC "-//W3C//DTD SVG 1.1//EN"
 "http://www.w3.org/Graphics/SVG/1.1/DTD/svg11.dtd">
<!-- Generated by graphviz version 7.0.5 (20221223.1930)
 -->
<!-- Title: include/MSL_C/MSL_Common/Src/extras.h Pages: 1 -->
<!--zoomable 170 -->
<svg id="main" version="1.1" xmlns="http://www.w3.org/2000/svg" xmlns:xlink="http://www.w3.org/1999/xlink" xml:space="preserve" onload="init(evt)">
<style type="text/css"><![CDATA[
.edge:hover path { stroke: red; }
.edge:hover polygon { stroke: red; fill: red; }
]]></style>
<script type="text/javascript"><![CDATA[
var edges = document.getElementsByTagName('g');
if (edges && edges.length) {
  for (var i=0;i<edges.length;i++) {
    if (edges[i].id.substr(0,4)=='edge') {
      edges[i].setAttribute('class','edge');
    }
  }
}
]]></script>
        <defs>
                <circle id="rim" cx="0" cy="0" r="7"/>
                <circle id="rim2" cx="0" cy="0" r="3.5"/>
                <g id="zoomPlus">
                        <use xlink:href="#rim" fill="#404040">
                                <set attributeName="fill" to="#808080" begin="zoomplus.mouseover" end="zoomplus.mouseout"/>
                        </use>
                        <path d="M-4,0h8M0,-4v8" fill="none" stroke="white" stroke-width="1.5" pointer-events="none"/>
                </g>
                <g id="zoomMin">
                        <use xlink:href="#rim" fill="#404040">
                                <set attributeName="fill" to="#808080" begin="zoomminus.mouseover" end="zoomminus.mouseout"/>
                        </use>
                        <path d="M-4,0h8" fill="none" stroke="white" stroke-width="1.5" pointer-events="none"/>
                </g>
                <g id="dirArrow">
                        <path fill="none" stroke="white" stroke-width="1.5" d="M0,-3.0v7 M-2.5,-0.5L0,-3.0L2.5,-0.5"/>
                </g>
               <g id="resetDef">
                       <use xlink:href="#rim2" fill="#404040">
                               <set attributeName="fill" to="#808080" begin="reset.mouseover" end="reset.mouseout"/>
                       </use>
               </g>
        </defs>

<script type="text/javascript">
var viewWidth = 6811;
var viewHeight = 170;
var sectionId = 'dynsection-0';
</script>
<script xlink:href="svgpan.js"/>
<svg id="graph" class="graph">
<g id="viewport">
<title>include/MSL_C/MSL_Common/Src/extras.h</title>
<!-- Node1 -->
<g id="node1" class="node">
<title>Node1</title>
<g id="a_node1"><a xlink:title=" ">
<polygon fill="#999999" stroke="#666666" points="3380,-162 3228,-162 3228,-132 3380,-132 3380,-162"/>
<text text-anchor="start" x="3236" y="-150" font-family="Helvetica,sans-Serif" font-size="10.00">include/MSL_C/MSL_Common</text>
<text text-anchor="middle" x="3304" y="-139" font-family="Helvetica,sans-Serif" font-size="10.00">/Src/extras.h</text>
</a>
</g>
</g>
<!-- Node2 -->
<g id="node2" class="node">
<title>Node2</title>
<g id="a_node2"><a xlink:href="string_8h.html" target="_top" xlink:title=" ">
<polygon fill="#fff0f0" stroke="red" points="3291,-90.5 3173,-90.5 3173,-71.5 3291,-71.5 3291,-90.5"/>
<text text-anchor="middle" x="3232" y="-78.5" font-family="Helvetica,sans-Serif" font-size="10.00">include/MSL_C/string.h</text>
</a>
</g>
</g>
<!-- Node1&#45;&gt;Node2 -->
<g id="edge1" class="edge">
<title>Node1&#45;&gt;Node2</title>
<path fill="none" stroke="#63b8ff" d="M3279.56,-124.27C3266.69,-112.84 3251.62,-99.44 3241.95,-90.84"/>
<polygon fill="#63b8ff" stroke="#63b8ff" points="3277.09,-126.76 3286.89,-130.79 3281.74,-121.53 3277.09,-126.76"/>
</g>
<!-- Node359 -->
<g id="node50" class="node">
<title>Node359</title>
<g id="a_node50"><a xlink:href="extras_8c.html" target="_top" xlink:title=" ">
<polygon fill="white" stroke="#666666" points="3445,-96 3309,-96 3309,-66 3445,-66 3445,-96"/>
<text text-anchor="start" x="3317" y="-84" font-family="Helvetica,sans-Serif" font-size="10.00">libs/MSL_C/MSL_Common</text>
<text text-anchor="middle" x="3377" y="-73" font-family="Helvetica,sans-Serif" font-size="10.00">/Src/extras.c</text>
</a>
</g>
</g>
<!-- Node1&#45;&gt;Node359 -->
<g id="edge49" class="edge">
<title>Node1&#45;&gt;Node359</title>
<path fill="none" stroke="#63b8ff" d="M3328.61,-124.42C3339.15,-115.18 3351.17,-104.65 3360.59,-96.39"/>
<polygon fill="#63b8ff" stroke="#63b8ff" points="3326.55,-121.57 3321.34,-130.8 3331.17,-126.84 3326.55,-121.57"/>
</g>
<!-- Node3 -->
<g id="node3" class="node">
<title>Node3</title>
<g id="a_node3"><a xlink:href="JUTFont_8h.html" target="_top" xlink:title=" ">
<polygon fill="#fff0f0" stroke="red" points="122,-30 0,-30 0,0 122,0 122,-30"/>
<text text-anchor="start" x="8" y="-18" font-family="Helvetica,sans-Serif" font-size="10.00">include/JSystem/JUtility</text>
<text text-anchor="middle" x="61" y="-7" font-family="Helvetica,sans-Serif" font-size="10.00">/JUTFont.h</text>
</a>
</g>
</g>
<!-- Node2&#45;&gt;Node3 -->
<g id="edge2" class="edge">
<title>Node2&#45;&gt;Node3</title>
<path fill="none" stroke="#63b8ff" d="M3161.17,-79.63C2727.67,-77.25 440.95,-63.22 131,-30 128.17,-29.7 125.28,-29.33 122.36,-28.93"/>
<polygon fill="#63b8ff" stroke="#63b8ff" points="3161.03,-83.13 3171.05,-79.68 3161.07,-76.13 3161.03,-83.13"/>
</g>
<!-- Node314 -->
<g id="node4" class="node">
<title>Node314</title>
<g id="a_node4"><a xlink:href="d__save_8h.html" target="_top" xlink:title=" ">
<polygon fill="#fff0f0" stroke="red" points="262,-24.5 140,-24.5 140,-5.5 262,-5.5 262,-24.5"/>
<text text-anchor="middle" x="201" y="-12.5" font-family="Helvetica,sans-Serif" font-size="10.00">include/d/save/d_save.h</text>
</a>
</g>
</g>
<!-- Node2&#45;&gt;Node314 -->
<g id="edge3" class="edge">
<title>Node2&#45;&gt;Node314</title>
<path fill="none" stroke="#63b8ff" d="M3161.38,-79.57C2740.03,-76.92 566.24,-61.75 271,-30 260.65,-28.89 249.55,-27 239.32,-24.96"/>
<polygon fill="#63b8ff" stroke="#63b8ff" points="3161.22,-83.07 3171.24,-79.63 3161.26,-76.07 3161.22,-83.07"/>
</g>
<!-- Node326 -->
<g id="node5" class="node">
<title>Node326</title>
<g id="a_node5"><a xlink:href="J2DManage_8cpp.html" target="_top" xlink:title=" ">
<polygon fill="white" stroke="#666666" points="399.5,-30 280.5,-30 280.5,0 399.5,0 399.5,-30"/>
<text text-anchor="start" x="288.5" y="-18" font-family="Helvetica,sans-Serif" font-size="10.00">libs/JSystem/J2DGraph</text>
<text text-anchor="middle" x="340" y="-7" font-family="Helvetica,sans-Serif" font-size="10.00">/J2DManage.cpp</text>
</a>
</g>
</g>
<!-- Node2&#45;&gt;Node326 -->
<g id="edge4" class="edge">
<title>Node2&#45;&gt;Node326</title>
<path fill="none" stroke="#63b8ff" d="M3161.4,-79.53C2751.77,-76.72 688.74,-61.11 408,-30 405.36,-29.71 402.68,-29.36 399.97,-28.98"/>
<polygon fill="#63b8ff" stroke="#63b8ff" points="3161.22,-83.03 3171.24,-79.6 3161.27,-76.03 3161.22,-83.03"/>
</g>
<!-- Node274 -->
<g id="node6" class="node">
<title>Node274</title>
<g id="a_node6"><a xlink:href="J2DTextBox_8cpp.html" target="_top" xlink:title=" ">
<polygon fill="white" stroke="#666666" points="536.5,-30 417.5,-30 417.5,0 536.5,0 536.5,-30"/>
<text text-anchor="start" x="425.5" y="-18" font-family="Helvetica,sans-Serif" font-size="10.00">libs/JSystem/J2DGraph</text>
<text text-anchor="middle" x="477" y="-7" font-family="Helvetica,sans-Serif" font-size="10.00">/J2DTextBox.cpp</text>
</a>
</g>
</g>
<!-- Node2&#45;&gt;Node274 -->
<g id="edge5" class="edge">
<title>Node2&#45;&gt;Node274</title>
<path fill="none" stroke="#63b8ff" d="M3161.39,-79.45C2763.75,-76.27 812.27,-59.25 546,-30 542.96,-29.67 539.86,-29.26 536.73,-28.81"/>
<polygon fill="#63b8ff" stroke="#63b8ff" points="3161.15,-82.95 3171.18,-79.53 3161.21,-75.95 3161.15,-82.95"/>
</g>
<!-- Node327 -->
<g id="node7" class="node">
<title>Node327</title>
<g id="a_node7"><a xlink:href="J3DPacket_8cpp.html" target="_top" xlink:title=" ">
<polygon fill="white" stroke="#666666" points="697,-30 555,-30 555,0 697,0 697,-30"/>
<text text-anchor="start" x="563" y="-18" font-family="Helvetica,sans-Serif" font-size="10.00">libs/JSystem/J3DGraphBase</text>
<text text-anchor="middle" x="626" y="-7" font-family="Helvetica,sans-Serif" font-size="10.00">/J3DPacket.cpp</text>
</a>
</g>
</g>
<!-- Node2&#45;&gt;Node327 -->
<g id="edge6" class="edge">
<title>Node2&#45;&gt;Node327</title>
<path fill="none" stroke="#63b8ff" d="M3161.07,-80.07C2804.08,-80.18 1201.48,-77.97 706,-30 703.19,-29.73 700.34,-29.41 697.46,-29.06"/>
<polygon fill="#63b8ff" stroke="#63b8ff" points="3160.99,-83.57 3170.99,-80.06 3160.99,-76.57 3160.99,-83.57"/>
</g>
<!-- Node328 -->
<g id="node8" class="node">
<title>Node328</title>
<g id="a_node8"><a xlink:href="J3DShapeDraw_8cpp.html" target="_top" xlink:title=" ">
<polygon fill="white" stroke="#666666" points="857,-30 715,-30 715,0 857,0 857,-30"/>
<text text-anchor="start" x="723" y="-18" font-family="Helvetica,sans-Serif" font-size="10.00">libs/JSystem/J3DGraphBase</text>
<text text-anchor="middle" x="786" y="-7" font-family="Helvetica,sans-Serif" font-size="10.00">/J3DShapeDraw.cpp</text>
</a>
</g>
</g>
<!-- Node2&#45;&gt;Node328 -->
<g id="edge7" class="edge">
<title>Node2&#45;&gt;Node328</title>
<path fill="none" stroke="#63b8ff" d="M3161.18,-79.96C2818.28,-79.53 1328.08,-75.05 866,-30 863.19,-29.73 860.34,-29.41 857.46,-29.06"/>
<polygon fill="#63b8ff" stroke="#63b8ff" points="3161.14,-83.46 3171.14,-79.97 3161.15,-76.46 3161.14,-83.46"/>
</g>
<!-- Node329 -->
<g id="node9" class="node">
<title>Node329</title>
<g id="a_node9"><a xlink:href="J3DVertex_8cpp.html" target="_top" xlink:title=" ">
<polygon fill="white" stroke="#666666" points="1017,-30 875,-30 875,0 1017,0 1017,-30"/>
<text text-anchor="start" x="883" y="-18" font-family="Helvetica,sans-Serif" font-size="10.00">libs/JSystem/J3DGraphBase</text>
<text text-anchor="middle" x="946" y="-7" font-family="Helvetica,sans-Serif" font-size="10.00">/J3DVertex.cpp</text>
</a>
</g>
</g>
<!-- Node2&#45;&gt;Node329 -->
<g id="edge8" class="edge">
<title>Node2&#45;&gt;Node329</title>
<path fill="none" stroke="#63b8ff" d="M3161.47,-79.83C2833.44,-78.83 1454.82,-72.14 1026,-30 1023.19,-29.72 1020.34,-29.41 1017.46,-29.05"/>
<polygon fill="#63b8ff" stroke="#63b8ff" points="3161.17,-83.33 3171.18,-79.86 3161.19,-76.33 3161.17,-83.33"/>
</g>
<!-- Node330 -->
<g id="node10" class="node">
<title>Node330</title>
<g id="a_node10"><a xlink:href="JASWaveArcLoader_8cpp.html" target="_top" xlink:title=" ">
<polygon fill="white" stroke="#666666" points="1161,-30 1035,-30 1035,0 1161,0 1161,-30"/>
<text text-anchor="start" x="1043" y="-18" font-family="Helvetica,sans-Serif" font-size="10.00">libs/JSystem/JAudio2</text>
<text text-anchor="middle" x="1098" y="-7" font-family="Helvetica,sans-Serif" font-size="10.00">/JASWaveArcLoader.cpp</text>
</a>
</g>
</g>
<!-- Node2&#45;&gt;Node330 -->
<g id="edge9" class="edge">
<title>Node2&#45;&gt;Node330</title>
<path fill="none" stroke="#63b8ff" d="M3161.49,-79.88C2846.78,-79.1 1568.47,-73.26 1170,-30 1167.09,-29.68 1164.12,-29.31 1161.12,-28.9"/>
<polygon fill="#63b8ff" stroke="#63b8ff" points="3161.19,-83.38 3171.2,-79.9 3161.21,-76.38 3161.19,-83.38"/>
</g>
<!-- Node331 -->
<g id="node11" class="node">
<title>Node331</title>
<g id="a_node11"><a xlink:href="JKRAram_8cpp.html" target="_top" xlink:title=" ">
<polygon fill="white" stroke="#666666" points="1288.5,-30 1179.5,-30 1179.5,0 1288.5,0 1288.5,-30"/>
<text text-anchor="start" x="1187.5" y="-18" font-family="Helvetica,sans-Serif" font-size="10.00">libs/JSystem/JKernel</text>
<text text-anchor="middle" x="1234" y="-7" font-family="Helvetica,sans-Serif" font-size="10.00">/JKRAram.cpp</text>
</a>
</g>
</g>
<!-- Node2&#45;&gt;Node331 -->
<g id="edge10" class="edge">
<title>Node2&#45;&gt;Node331</title>
<path fill="none" stroke="#63b8ff" d="M3161.4,-80C2858.61,-79.71 1668.5,-75.64 1297,-30 1294.33,-29.67 1291.61,-29.28 1288.87,-28.85"/>
<polygon fill="#63b8ff" stroke="#63b8ff" points="3161.12,-83.5 3171.12,-80.01 3161.12,-76.5 3161.12,-83.5"/>
</g>
<!-- Node332 -->
<g id="node12" class="node">
<title>Node332</title>
<g id="a_node12"><a xlink:href="JKRAramArchive_8cpp.html" target="_top" xlink:title=" ">
<polygon fill="white" stroke="#666666" points="1419.5,-30 1306.5,-30 1306.5,0 1419.5,0 1419.5,-30"/>
<text text-anchor="start" x="1314.5" y="-18" font-family="Helvetica,sans-Serif" font-size="10.00">libs/JSystem/JKernel</text>
<text text-anchor="middle" x="1363" y="-7" font-family="Helvetica,sans-Serif" font-size="10.00">/JKRAramArchive.cpp</text>
</a>
</g>
</g>
<!-- Node2&#45;&gt;Node332 -->
<g id="edge11" class="edge">
<title>Node2&#45;&gt;Node332</title>
<path fill="none" stroke="#63b8ff" d="M3161.47,-79.78C2871.78,-78.62 1772.57,-71.52 1428,-30 1425.36,-29.68 1422.68,-29.31 1419.97,-28.89"/>
<polygon fill="#63b8ff" stroke="#63b8ff" points="3161.11,-83.28 3171.13,-79.82 3161.14,-76.28 3161.11,-83.28"/>
</g>
<!-- Node333 -->
<g id="node13" class="node">
<title>Node333</title>
<g id="a_node13"><a xlink:href="JKRArchivePri_8cpp.html" target="_top" xlink:title=" ">
<polygon fill="white" stroke="#666666" points="1546.5,-30 1437.5,-30 1437.5,0 1546.5,0 1546.5,-30"/>
<text text-anchor="start" x="1445.5" y="-18" font-family="Helvetica,sans-Serif" font-size="10.00">libs/JSystem/JKernel</text>
<text text-anchor="middle" x="1492" y="-7" font-family="Helvetica,sans-Serif" font-size="10.00">/JKRArchivePri.cpp</text>
</a>
</g>
</g>
<!-- Node2&#45;&gt;Node333 -->
<g id="edge12" class="edge">
<title>Node2&#45;&gt;Node333</title>
<path fill="none" stroke="#63b8ff" d="M3161.03,-79.67C2883.74,-78.1 1873.06,-69.72 1555,-30 1552.33,-29.67 1549.61,-29.27 1546.87,-28.83"/>
<polygon fill="#63b8ff" stroke="#63b8ff" points="3160.99,-83.17 3171.01,-79.72 3161.03,-76.17 3160.99,-83.17"/>
</g>
<!-- Node334 -->
<g id="node14" class="node">
<title>Node334</title>
<g id="a_node14"><a xlink:href="JKRCompArchive_8cpp.html" target="_top" xlink:title=" ">
<polygon fill="white" stroke="#666666" points="1679.5,-30 1564.5,-30 1564.5,0 1679.5,0 1679.5,-30"/>
<text text-anchor="start" x="1572.5" y="-18" font-family="Helvetica,sans-Serif" font-size="10.00">libs/JSystem/JKernel</text>
<text text-anchor="middle" x="1622" y="-7" font-family="Helvetica,sans-Serif" font-size="10.00">/JKRCompArchive.cpp</text>
</a>
</g>
</g>
<!-- Node2&#45;&gt;Node334 -->
<g id="edge13" class="edge">
<title>Node2&#45;&gt;Node334</title>
<path fill="none" stroke="#63b8ff" d="M3161.49,-79.37C2899.05,-76.77 1979.04,-65.3 1688,-30 1685.33,-29.68 1682.6,-29.3 1679.85,-28.88"/>
<polygon fill="#63b8ff" stroke="#63b8ff" points="3161.21,-82.87 3171.24,-79.47 3161.27,-75.87 3161.21,-82.87"/>
</g>
<!-- Node335 -->
<g id="node15" class="node">
<title>Node335</title>
<g id="a_node15"><a xlink:href="JKRDvdArchive_8cpp.html" target="_top" xlink:title=" ">
<polygon fill="white" stroke="#666666" points="1806.5,-30 1697.5,-30 1697.5,0 1806.5,0 1806.5,-30"/>
<text text-anchor="start" x="1705.5" y="-18" font-family="Helvetica,sans-Serif" font-size="10.00">libs/JSystem/JKernel</text>
<text text-anchor="middle" x="1752" y="-7" font-family="Helvetica,sans-Serif" font-size="10.00">/JKRDvdArchive.cpp</text>
</a>
</g>
</g>
<!-- Node2&#45;&gt;Node335 -->
<g id="edge14" class="edge">
<title>Node2&#45;&gt;Node335</title>
<path fill="none" stroke="#63b8ff" d="M3161.15,-79.22C2912.4,-76.21 2079.7,-63.79 1815,-30 1812.33,-29.66 1809.61,-29.26 1806.87,-28.81"/>
<polygon fill="#63b8ff" stroke="#63b8ff" points="3160.99,-82.72 3171.04,-79.34 3161.08,-75.72 3160.99,-82.72"/>
</g>
<!-- Node336 -->
<g id="node16" class="node">
<title>Node336</title>
<g id="a_node16"><a xlink:href="JKRDvdRipper_8cpp.html" target="_top" xlink:title=" ">
<polygon fill="white" stroke="#666666" points="1933.5,-30 1824.5,-30 1824.5,0 1933.5,0 1933.5,-30"/>
<text text-anchor="start" x="1832.5" y="-18" font-family="Helvetica,sans-Serif" font-size="10.00">libs/JSystem/JKernel</text>
<text text-anchor="middle" x="1879" y="-7" font-family="Helvetica,sans-Serif" font-size="10.00">/JKRDvdRipper.cpp</text>
</a>
</g>
</g>
<!-- Node2&#45;&gt;Node336 -->
<g id="edge15" class="edge">
<title>Node2&#45;&gt;Node336</title>
<path fill="none" stroke="#63b8ff" d="M3161.3,-78.94C2927.54,-75.16 2180.8,-60.91 1942,-30 1939.33,-29.65 1936.61,-29.25 1933.87,-28.8"/>
<polygon fill="#63b8ff" stroke="#63b8ff" points="3161.13,-82.43 3171.19,-79.09 3161.24,-75.43 3161.13,-82.43"/>
</g>
<!-- Node337 -->
<g id="node17" class="node">
<title>Node337</title>
<g id="a_node17"><a xlink:href="JKRFileCache_8cpp.html" target="_top" xlink:title=" ">
<polygon fill="white" stroke="#666666" points="2060.5,-30 1951.5,-30 1951.5,0 2060.5,0 2060.5,-30"/>
<text text-anchor="start" x="1959.5" y="-18" font-family="Helvetica,sans-Serif" font-size="10.00">libs/JSystem/JKernel</text>
<text text-anchor="middle" x="2006" y="-7" font-family="Helvetica,sans-Serif" font-size="10.00">/JKRFileCache.cpp</text>
</a>
</g>
</g>
<!-- Node2&#45;&gt;Node337 -->
<g id="edge16" class="edge">
<title>Node2&#45;&gt;Node337</title>
<path fill="none" stroke="#63b8ff" d="M3161.33,-78.59C2943.14,-73.98 2281.96,-58.02 2069,-30 2066.33,-29.65 2063.61,-29.24 2060.87,-28.79"/>
<polygon fill="#63b8ff" stroke="#63b8ff" points="3161.03,-82.08 3171.1,-78.8 3161.18,-75.09 3161.03,-82.08"/>
</g>
<!-- Node338 -->
<g id="node18" class="node">
<title>Node338</title>
<g id="a_node18"><a xlink:href="JKRFileLoader_8cpp.html" target="_top" xlink:title=" ">
<polygon fill="white" stroke="#666666" points="2187.5,-30 2078.5,-30 2078.5,0 2187.5,0 2187.5,-30"/>
<text text-anchor="start" x="2086.5" y="-18" font-family="Helvetica,sans-Serif" font-size="10.00">libs/JSystem/JKernel</text>
<text text-anchor="middle" x="2133" y="-7" font-family="Helvetica,sans-Serif" font-size="10.00">/JKRFileLoader.cpp</text>
</a>
</g>
</g>
<!-- Node2&#45;&gt;Node338 -->
<g id="edge17" class="edge">
<title>Node2&#45;&gt;Node338</title>
<path fill="none" stroke="#63b8ff" d="M3161.29,-80.72C2993.15,-81.55 2556.52,-78.4 2196,-30 2193.33,-29.64 2190.62,-29.23 2187.88,-28.77"/>
<polygon fill="#63b8ff" stroke="#63b8ff" points="3161.2,-84.23 3171.18,-80.67 3161.16,-77.23 3161.2,-84.23"/>
</g>
<!-- Node339 -->
<g id="node19" class="node">
<title>Node339</title>
<g id="a_node19"><a xlink:href="JKRMemArchive_8cpp.html" target="_top" xlink:title=" ">
<polygon fill="white" stroke="#666666" points="2316.5,-30 2205.5,-30 2205.5,0 2316.5,0 2316.5,-30"/>
<text text-anchor="start" x="2213.5" y="-18" font-family="Helvetica,sans-Serif" font-size="10.00">libs/JSystem/JKernel</text>
<text text-anchor="middle" x="2261" y="-7" font-family="Helvetica,sans-Serif" font-size="10.00">/JKRMemArchive.cpp</text>
</a>
</g>
</g>
<!-- Node2&#45;&gt;Node339 -->
<g id="edge18" class="edge">
<title>Node2&#45;&gt;Node339</title>
<path fill="none" stroke="#63b8ff" d="M3161.46,-79.95C3008.4,-79 2634.66,-72.13 2325,-30 2322.3,-29.63 2319.54,-29.21 2316.75,-28.75"/>
<polygon fill="#63b8ff" stroke="#63b8ff" points="3161,-83.45 3171.01,-80 3161.03,-76.45 3161,-83.45"/>
</g>
<!-- Node340 -->
<g id="node20" class="node">
<title>Node340</title>
<g id="a_node20"><a xlink:href="resource_8cpp.html" target="_top" xlink:title=" ">
<polygon fill="white" stroke="#666666" points="2455.5,-30 2334.5,-30 2334.5,0 2455.5,0 2455.5,-30"/>
<text text-anchor="start" x="2342.5" y="-18" font-family="Helvetica,sans-Serif" font-size="10.00">libs/JSystem/JMessage</text>
<text text-anchor="middle" x="2395" y="-7" font-family="Helvetica,sans-Serif" font-size="10.00">/resource.cpp</text>
</a>
</g>
</g>
<!-- Node2&#45;&gt;Node340 -->
<g id="edge19" class="edge">
<title>Node2&#45;&gt;Node340</title>
<path fill="none" stroke="#63b8ff" d="M3161.54,-78.59C3025.94,-75.19 2719.45,-64.07 2464,-30 2461.33,-29.64 2458.62,-29.25 2455.88,-28.82"/>
<polygon fill="#63b8ff" stroke="#63b8ff" points="3161.36,-82.09 3171.45,-78.84 3161.53,-75.09 3161.36,-82.09"/>
</g>
<!-- Node341 -->
<g id="node21" class="node">
<title>Node341</title>
<g id="a_node21"><a xlink:href="JPAResourceManager_8cpp.html" target="_top" xlink:title=" ">
<polygon fill="white" stroke="#666666" points="2608.5,-30 2473.5,-30 2473.5,0 2608.5,0 2608.5,-30"/>
<text text-anchor="start" x="2481.5" y="-18" font-family="Helvetica,sans-Serif" font-size="10.00">libs/JSystem/JParticle</text>
<text text-anchor="middle" x="2541" y="-7" font-family="Helvetica,sans-Serif" font-size="10.00">/JPAResourceManager.cpp</text>
</a>
</g>
</g>
<!-- Node2&#45;&gt;Node341 -->
<g id="edge20" class="edge">
<title>Node2&#45;&gt;Node341</title>
<path fill="none" stroke="#63b8ff" d="M3161.47,-76.59C3046.9,-70.53 2813.36,-56 2617,-30 2614.34,-29.65 2611.63,-29.27 2608.9,-28.86"/>
<polygon fill="#63b8ff" stroke="#63b8ff" points="3161.17,-80.08 3171.34,-77.1 3161.54,-73.09 3161.17,-80.08"/>
</g>
<!-- Node342 -->
<g id="node22" class="node">
<title>Node342</title>
<g id="a_node22"><a xlink:href="JSUMemoryStream_8cpp.html" target="_top" xlink:title=" ">
<polygon fill="white" stroke="#666666" points="2749.5,-30 2626.5,-30 2626.5,0 2749.5,0 2749.5,-30"/>
<text text-anchor="start" x="2634.5" y="-18" font-family="Helvetica,sans-Serif" font-size="10.00">libs/JSystem/JSupport</text>
<text text-anchor="middle" x="2688" y="-7" font-family="Helvetica,sans-Serif" font-size="10.00">/JSUMemoryStream.cpp</text>
</a>
</g>
</g>
<!-- Node2&#45;&gt;Node342 -->
<g id="edge21" class="edge">
<title>Node2&#45;&gt;Node342</title>
<path fill="none" stroke="#63b8ff" d="M3161.32,-74.51C3068.63,-66.86 2901.11,-51.48 2759,-30 2756.02,-29.55 2752.97,-29.06 2749.9,-28.54"/>
<polygon fill="#63b8ff" stroke="#63b8ff" points="3161.03,-78 3171.28,-75.33 3161.6,-71.02 3161.03,-78"/>
</g>
<!-- Node343 -->
<g id="node23" class="node">
<title>Node343</title>
<g id="a_node23"><a xlink:href="JUTNameTab_8cpp.html" target="_top" xlink:title=" ">
<polygon fill="white" stroke="#666666" points="2874,-30 2768,-30 2768,0 2874,0 2874,-30"/>
<text text-anchor="start" x="2776" y="-18" font-family="Helvetica,sans-Serif" font-size="10.00">libs/JSystem/JUtility</text>
<text text-anchor="middle" x="2821" y="-7" font-family="Helvetica,sans-Serif" font-size="10.00">/JUTNameTab.cpp</text>
</a>
</g>
</g>
<!-- Node2&#45;&gt;Node343 -->
<g id="edge22" class="edge">
<title>Node2&#45;&gt;Node343</title>
<path fill="none" stroke="#63b8ff" d="M3161.38,-71.56C3090.69,-62.72 2978.94,-47.68 2883,-30 2880.18,-29.48 2877.29,-28.92 2874.38,-28.34"/>
<polygon fill="#63b8ff" stroke="#63b8ff" points="3160.94,-75.03 3171.29,-72.79 3161.8,-68.09 3160.94,-75.03"/>
</g>
<!-- Node344 -->
<g id="node24" class="node">
<title>Node344</title>
<g id="a_node24"><a xlink:href="c__lib_8cpp.html" target="_top" xlink:title=" ">
<polygon fill="white" stroke="#666666" points="3026,-30 2892,-30 2892,0 3026,0 3026,-30"/>
<text text-anchor="start" x="2900" y="-18" font-family="Helvetica,sans-Serif" font-size="10.00">libs/SSystem/SComponent</text>
<text text-anchor="middle" x="2959" y="-7" font-family="Helvetica,sans-Serif" font-size="10.00">/c_lib.cpp</text>
</a>
</g>
</g>
<!-- Node2&#45;&gt;Node344 -->
<g id="edge23" class="edge">
<title>Node2&#45;&gt;Node344</title>
<path fill="none" stroke="#63b8ff" d="M3182.7,-68.44C3137.25,-57.79 3069.62,-41.93 3020.62,-30.45"/>
<polygon fill="#63b8ff" stroke="#63b8ff" points="3181.74,-71.81 3192.28,-70.69 3183.34,-65 3181.74,-71.81"/>
</g>
<!-- Node345 -->
<g id="node25" class="node">
<title>Node345</title>
<g id="a_node25"><a xlink:href="ar_8c.html" target="_top" xlink:title=" ">
<polygon fill="white" stroke="#666666" points="3139.5,-24.5 3044.5,-24.5 3044.5,-5.5 3139.5,-5.5 3139.5,-24.5"/>
<text text-anchor="middle" x="3092" y="-12.5" font-family="Helvetica,sans-Serif" font-size="10.00">libs/dolphin/ar/ar.c</text>
</a>
</g>
</g>
<!-- Node2&#45;&gt;Node345 -->
<g id="edge24" class="edge">
<title>Node2&#45;&gt;Node345</title>
<path fill="none" stroke="#63b8ff" d="M3202.33,-66.44C3174.87,-53.88 3134.84,-35.58 3111.3,-24.82"/>
<polygon fill="#63b8ff" stroke="#63b8ff" points="3200.61,-69.5 3211.16,-70.47 3203.52,-63.13 3200.61,-69.5"/>
</g>
<!-- Node346 -->
<g id="node26" class="node">
<title>Node346</title>
<g id="a_node26"><a xlink:href="CARDBlock_8c.html" target="_top" xlink:title=" ">
<polygon fill="white" stroke="#666666" points="3306.5,-24.5 3157.5,-24.5 3157.5,-5.5 3306.5,-5.5 3306.5,-24.5"/>
<text text-anchor="middle" x="3232" y="-12.5" font-family="Helvetica,sans-Serif" font-size="10.00">libs/dolphin/card/CARDBlock.c</text>
</a>
</g>
</g>
<!-- Node2&#45;&gt;Node346 -->
<g id="edge25" class="edge">
<title>Node2&#45;&gt;Node346</title>
<path fill="none" stroke="#63b8ff" d="M3232,-59.68C3232,-47.94 3232,-33.77 3232,-24.82"/>
<polygon fill="#63b8ff" stroke="#63b8ff" points="3228.5,-59.59 3232,-69.59 3235.5,-59.59 3228.5,-59.59"/>
</g>
<!-- Node347 -->
<g id="node27" class="node">
<title>Node347</title>
<g id="a_node27"><a xlink:href="CARDCheck_8c.html" target="_top" xlink:title=" ">
<polygon fill="white" stroke="#666666" points="3477,-24.5 3325,-24.5 3325,-5.5 3477,-5.5 3477,-24.5"/>
<text text-anchor="middle" x="3401" y="-12.5" font-family="Helvetica,sans-Serif" font-size="10.00">libs/dolphin/card/CARDCheck.c</text>
</a>
</g>
</g>
<!-- Node2&#45;&gt;Node347 -->
<g id="edge26" class="edge">
<title>Node2&#45;&gt;Node347</title>
<path fill="none" stroke="#63b8ff" d="M3266.04,-67.11C3299.11,-54.58 3348.47,-35.89 3377.43,-24.93"/>
<polygon fill="#63b8ff" stroke="#63b8ff" points="3265.03,-63.75 3256.91,-70.57 3267.51,-70.3 3265.03,-63.75"/>
</g>
<!-- Node348 -->
<g id="node28" class="node">
<title>Node348</title>
<g id="a_node28"><a xlink:href="CARDCreate_8c.html" target="_top" xlink:title=" ">
<polygon fill="white" stroke="#666666" points="3648.5,-24.5 3495.5,-24.5 3495.5,-5.5 3648.5,-5.5 3648.5,-24.5"/>
<text text-anchor="middle" x="3572" y="-12.5" font-family="Helvetica,sans-Serif" font-size="10.00">libs/dolphin/card/CARDCreate.c</text>
</a>
</g>
</g>
<!-- Node2&#45;&gt;Node348 -->
<g id="edge27" class="edge">
<title>Node2&#45;&gt;Node348</title>
<path fill="none" stroke="#63b8ff" d="M3285.87,-68.8C3290.65,-67.84 3295.41,-66.89 3300,-66 3377.05,-50.99 3466.63,-34.76 3521.31,-24.99"/>
<polygon fill="#63b8ff" stroke="#63b8ff" points="3285.36,-65.33 3276.26,-70.75 3286.76,-72.19 3285.36,-65.33"/>
</g>
<!-- Node349 -->
<g id="node29" class="node">
<title>Node349</title>
<g id="a_node29"><a xlink:href="CARDDir_8c.html" target="_top" xlink:title=" ">
<polygon fill="white" stroke="#666666" points="3803.5,-24.5 3666.5,-24.5 3666.5,-5.5 3803.5,-5.5 3803.5,-24.5"/>
<text text-anchor="middle" x="3735" y="-12.5" font-family="Helvetica,sans-Serif" font-size="10.00">libs/dolphin/card/CARDDir.c</text>
</a>
</g>
</g>
<!-- Node2&#45;&gt;Node349 -->
<g id="edge28" class="edge">
<title>Node2&#45;&gt;Node349</title>
<path fill="none" stroke="#63b8ff" d="M3283.02,-68.91C3288.73,-67.84 3294.48,-66.84 3300,-66 3458.08,-41.84 3499.65,-52.32 3658,-30 3668.09,-28.58 3678.88,-26.79 3689.09,-24.97"/>
<polygon fill="#63b8ff" stroke="#63b8ff" points="3282.78,-65.39 3273.63,-70.73 3284.12,-72.26 3282.78,-65.39"/>
</g>
<!-- Node350 -->
<g id="node30" class="node">
<title>Node350</title>
<g id="a_node30"><a xlink:href="CARDFormat_8c.html" target="_top" xlink:title=" ">
<polygon fill="white" stroke="#666666" points="3976.5,-24.5 3821.5,-24.5 3821.5,-5.5 3976.5,-5.5 3976.5,-24.5"/>
<text text-anchor="middle" x="3899" y="-12.5" font-family="Helvetica,sans-Serif" font-size="10.00">libs/dolphin/card/CARDFormat.c</text>
</a>
</g>
</g>
<!-- Node2&#45;&gt;Node350 -->
<g id="edge29" class="edge">
<title>Node2&#45;&gt;Node350</title>
<path fill="none" stroke="#63b8ff" d="M3282.32,-68.86C3288.26,-67.78 3294.25,-66.79 3300,-66 3526.43,-34.89 3585.97,-56.39 3813,-30 3824.57,-28.66 3836.96,-26.85 3848.63,-24.99"/>
<polygon fill="#63b8ff" stroke="#63b8ff" points="3281.68,-65.42 3272.53,-70.75 3283.01,-72.29 3281.68,-65.42"/>
</g>
<!-- Node351 -->
<g id="node31" class="node">
<title>Node351</title>
<g id="a_node31"><a xlink:href="CARDOpen_8c.html" target="_top" xlink:title=" ">
<polygon fill="white" stroke="#666666" points="4143,-24.5 3995,-24.5 3995,-5.5 4143,-5.5 4143,-24.5"/>
<text text-anchor="middle" x="4069" y="-12.5" font-family="Helvetica,sans-Serif" font-size="10.00">libs/dolphin/card/CARDOpen.c</text>
</a>
</g>
</g>
<!-- Node2&#45;&gt;Node351 -->
<g id="edge30" class="edge">
<title>Node2&#45;&gt;Node351</title>
<path fill="none" stroke="#63b8ff" d="M3281.39,-68.93C3287.63,-67.79 3293.95,-66.78 3300,-66 3602.82,-27.11 3682.53,-63.45 3986,-30 3997.62,-28.72 4010.08,-26.87 4021.73,-24.94"/>
<polygon fill="#63b8ff" stroke="#63b8ff" points="3280.95,-65.45 3271.8,-70.78 3282.28,-72.32 3280.95,-65.45"/>
</g>
<!-- Node352 -->
<g id="node32" class="node">
<title>Node352</title>
<g id="a_node32"><a xlink:href="dvd_8c.html" target="_top" xlink:title=" ">
<polygon fill="white" stroke="#666666" points="4271,-24.5 4161,-24.5 4161,-5.5 4271,-5.5 4271,-24.5"/>
<text text-anchor="middle" x="4216" y="-12.5" font-family="Helvetica,sans-Serif" font-size="10.00">libs/dolphin/dvd/dvd.c</text>
</a>
</g>
</g>
<!-- Node2&#45;&gt;Node352 -->
<g id="edge31" class="edge">
<title>Node2&#45;&gt;Node352</title>
<path fill="none" stroke="#63b8ff" d="M3281.15,-68.91C3287.47,-67.77 3293.87,-66.76 3300,-66 3676.16,-19.64 3776.13,-78.68 4152,-30 4161.25,-28.8 4171.14,-26.94 4180.31,-24.95"/>
<polygon fill="#63b8ff" stroke="#63b8ff" points="3280.59,-65.45 3271.43,-70.78 3281.91,-72.33 3280.59,-65.45"/>
</g>
<!-- Node353 -->
<g id="node33" class="node">
<title>Node353</title>
<g id="a_node33"><a xlink:href="dvdidutils_8c.html" target="_top" xlink:title=" ">
<polygon fill="white" stroke="#666666" points="4425,-24.5 4289,-24.5 4289,-5.5 4425,-5.5 4425,-24.5"/>
<text text-anchor="middle" x="4357" y="-12.5" font-family="Helvetica,sans-Serif" font-size="10.00">libs/dolphin/dvd/dvdidutils.c</text>
</a>
</g>
</g>
<!-- Node2&#45;&gt;Node353 -->
<g id="edge32" class="edge">
<title>Node2&#45;&gt;Node353</title>
<path fill="none" stroke="#63b8ff" d="M3281.15,-68.88C3287.46,-67.74 3293.87,-66.74 3300,-66 3732.72,-13.87 3846.7,-77.1 4280,-30 4291.08,-28.8 4302.96,-26.93 4313.99,-24.94"/>
<polygon fill="#63b8ff" stroke="#63b8ff" points="3280.59,-65.42 3271.43,-70.74 3281.91,-72.29 3280.59,-65.42"/>
</g>
<!-- Node354 -->
<g id="node34" class="node">
<title>Node354</title>
<g id="a_node34"><a xlink:href="fstload_8c.html" target="_top" xlink:title=" ">
<polygon fill="white" stroke="#666666" points="4567,-24.5 4443,-24.5 4443,-5.5 4567,-5.5 4567,-24.5"/>
<text text-anchor="middle" x="4505" y="-12.5" font-family="Helvetica,sans-Serif" font-size="10.00">libs/dolphin/dvd/fstload.c</text>
</a>
</g>
</g>
<!-- Node2&#45;&gt;Node354 -->
<g id="edge33" class="edge">
<title>Node2&#45;&gt;Node354</title>
<path fill="none" stroke="#63b8ff" d="M3280.43,-68.97C3286.98,-67.79 3293.64,-66.75 3300,-66 3800.78,-6.94 3932.97,-86.96 4434,-30 4444.24,-28.84 4455.2,-26.98 4465.37,-25"/>
<polygon fill="#63b8ff" stroke="#63b8ff" points="3280.22,-65.45 3271.07,-70.78 3281.55,-72.32 3280.22,-65.45"/>
</g>
<!-- Node355 -->
<g id="node35" class="node">
<title>Node355</title>
<g id="a_node35"><a xlink:href="Pad_8c.html" target="_top" xlink:title=" ">
<polygon fill="white" stroke="#666666" points="4697,-24.5 4585,-24.5 4585,-5.5 4697,-5.5 4697,-24.5"/>
<text text-anchor="middle" x="4641" y="-12.5" font-family="Helvetica,sans-Serif" font-size="10.00">libs/dolphin/pad/Pad.c</text>
</a>
</g>
</g>
<!-- Node2&#45;&gt;Node355 -->
<g id="edge34" class="edge">
<title>Node2&#45;&gt;Node355</title>
<path fill="none" stroke="#63b8ff" d="M3280.43,-68.95C3286.98,-67.78 3293.63,-66.74 3300,-66 3863.55,-0.55 4012.76,-98.02 4576,-30 4585.51,-28.85 4595.69,-26.98 4605.1,-24.97"/>
<polygon fill="#63b8ff" stroke="#63b8ff" points="3280.22,-65.43 3271.06,-70.76 3281.54,-72.3 3280.22,-65.43"/>
</g>
<!-- Node147 -->
<g id="node36" class="node">
<title>Node147</title>
<g id="a_node36"><a xlink:href="c__dylink_8cpp.html" target="_top" xlink:title=" ">
<polygon fill="white" stroke="#666666" points="4810.5,-24.5 4715.5,-24.5 4715.5,-5.5 4810.5,-5.5 4810.5,-24.5"/>
<text text-anchor="middle" x="4763" y="-12.5" font-family="Helvetica,sans-Serif" font-size="10.00">src/c/c_dylink.cpp</text>
</a>
</g>
</g>
<!-- Node2&#45;&gt;Node147 -->
<g id="edge35" class="edge">
<title>Node2&#45;&gt;Node147</title>
<path fill="none" stroke="#63b8ff" d="M3280.43,-68.94C3286.98,-67.76 3293.63,-66.73 3300,-66 3921.01,5.31 4086.45,-113.03 4706,-30 4714.48,-28.86 4723.54,-26.96 4731.87,-24.93"/>
<polygon fill="#63b8ff" stroke="#63b8ff" points="3280.22,-65.41 3271.06,-70.74 3281.54,-72.29 3280.22,-65.41"/>
</g>
<!-- Node85 -->
<g id="node37" class="node">
<title>Node85</title>
<g id="a_node37"><a xlink:href="d__eye__hl_8cpp.html" target="_top" xlink:title=" ">
<polygon fill="white" stroke="#666666" points="4927,-24.5 4829,-24.5 4829,-5.5 4927,-5.5 4927,-24.5"/>
<text text-anchor="middle" x="4878" y="-12.5" font-family="Helvetica,sans-Serif" font-size="10.00">src/d/d_eye_hl.cpp</text>
</a>
</g>
</g>
<!-- Node2&#45;&gt;Node85 -->
<g id="edge36" class="edge">
<title>Node2&#45;&gt;Node85</title>
<path fill="none" stroke="#63b8ff" d="M3280.43,-68.93C3286.98,-67.75 3293.63,-66.72 3300,-66 3971.41,10.44 4149.98,-117.78 4820,-30 4828.63,-28.87 4837.84,-26.97 4846.32,-24.94"/>
<polygon fill="#63b8ff" stroke="#63b8ff" points="3280.22,-65.4 3271.06,-70.73 3281.54,-72.28 3280.22,-65.4"/>
</g>
<!-- Node164 -->
<g id="node38" class="node">
<title>Node164</title>
<g id="a_node38"><a xlink:href="d__resorce_8cpp.html" target="_top" xlink:title=" ">
<polygon fill="white" stroke="#666666" points="5047,-24.5 4945,-24.5 4945,-5.5 5047,-5.5 5047,-24.5"/>
<text text-anchor="middle" x="4996" y="-12.5" font-family="Helvetica,sans-Serif" font-size="10.00">src/d/d_resorce.cpp</text>
</a>
</g>
</g>
<!-- Node2&#45;&gt;Node164 -->
<g id="edge37" class="edge">
<title>Node2&#45;&gt;Node164</title>
<path fill="none" stroke="#63b8ff" d="M3280.19,-68.96C3286.81,-67.77 3293.55,-66.73 3300,-66 4022.69,15.66 4214.44,-121.12 4936,-30 4944.91,-28.87 4954.44,-26.98 4963.21,-24.94"/>
<polygon fill="#63b8ff" stroke="#63b8ff" points="3279.86,-65.46 3270.7,-70.79 3281.18,-72.33 3279.86,-65.46"/>
</g>
<!-- Node75 -->
<g id="node39" class="node">
<title>Node75</title>
<g id="a_node39"><a xlink:href="d__kankyo_8cpp.html" target="_top" xlink:title=" ">
<polygon fill="white" stroke="#666666" points="5199,-24.5 5065,-24.5 5065,-5.5 5199,-5.5 5199,-24.5"/>
<text text-anchor="middle" x="5132" y="-12.5" font-family="Helvetica,sans-Serif" font-size="10.00">src/d/kankyo/d_kankyo.cpp</text>
</a>
</g>
</g>
<!-- Node2&#45;&gt;Node75 -->
<g id="edge38" class="edge">
<title>Node2&#45;&gt;Node75</title>
<path fill="none" stroke="#63b8ff" d="M3280.19,-68.95C3286.81,-67.76 3293.55,-66.72 3300,-66 4075.74,21.07 4279.4,-108.97 5056,-30 5067.08,-28.87 5078.96,-27.01 5089.96,-25"/>
<polygon fill="#63b8ff" stroke="#63b8ff" points="3279.86,-65.45 3270.7,-70.78 3281.18,-72.32 3279.86,-65.45"/>
</g>
<!-- Node172 -->
<g id="node40" class="node">
<title>Node172</title>
<g id="a_node40"><a xlink:href="d__kankyo__rain_8cpp.html" target="_top" xlink:title=" ">
<polygon fill="white" stroke="#666666" points="5333,-30 5217,-30 5217,0 5333,0 5333,-30"/>
<text text-anchor="start" x="5225" y="-18" font-family="Helvetica,sans-Serif" font-size="10.00">src/d/kankyo/d_kankyo</text>
<text text-anchor="middle" x="5275" y="-7" font-family="Helvetica,sans-Serif" font-size="10.00">_rain.cpp</text>
</a>
</g>
</g>
<!-- Node2&#45;&gt;Node172 -->
<g id="edge39" class="edge">
<title>Node2&#45;&gt;Node172</title>
<path fill="none" stroke="#63b8ff" d="M3280.19,-68.94C3286.81,-67.75 3293.55,-66.72 3300,-66 4142.94,27.91 4365.2,-125.16 5208,-30 5210.83,-29.68 5213.73,-29.3 5216.64,-28.87"/>
<polygon fill="#63b8ff" stroke="#63b8ff" points="3279.86,-65.44 3270.7,-70.77 3281.18,-72.31 3279.86,-65.44"/>
</g>
<!-- Node173 -->
<g id="node41" class="node">
<title>Node173</title>
<g id="a_node41"><a xlink:href="d__kankyo__wether_8cpp.html" target="_top" xlink:title=" ">
<polygon fill="white" stroke="#666666" points="5467,-30 5351,-30 5351,0 5467,0 5467,-30"/>
<text text-anchor="start" x="5359" y="-18" font-family="Helvetica,sans-Serif" font-size="10.00">src/d/kankyo/d_kankyo</text>
<text text-anchor="middle" x="5409" y="-7" font-family="Helvetica,sans-Serif" font-size="10.00">_wether.cpp</text>
</a>
</g>
</g>
<!-- Node2&#45;&gt;Node173 -->
<g id="edge40" class="edge">
<title>Node2&#45;&gt;Node173</title>
<path fill="none" stroke="#63b8ff" d="M3280.19,-68.93C3286.81,-67.75 3293.55,-66.71 3300,-66 4202.18,33.95 4439.97,-131.28 5342,-30 5344.83,-29.68 5347.73,-29.3 5350.64,-28.87"/>
<polygon fill="#63b8ff" stroke="#63b8ff" points="3279.86,-65.43 3270.7,-70.76 3281.18,-72.3 3279.86,-65.43"/>
</g>
<!-- Node236 -->
<g id="node42" class="node">
<title>Node236</title>
<g id="a_node42"><a xlink:href="d__menu__collect_8cpp.html" target="_top" xlink:title=" ">
<polygon fill="white" stroke="#666666" points="5640.5,-24.5 5485.5,-24.5 5485.5,-5.5 5640.5,-5.5 5640.5,-24.5"/>
<text text-anchor="middle" x="5563" y="-12.5" font-family="Helvetica,sans-Serif" font-size="10.00">src/d/menu/d_menu_collect.cpp</text>
</a>
</g>
</g>
<!-- Node2&#45;&gt;Node236 -->
<g id="edge41" class="edge">
<title>Node2&#45;&gt;Node236</title>
<path fill="none" stroke="#63b8ff" d="M3280.18,-68.93C3286.81,-67.74 3293.55,-66.71 3300,-66 3780.71,-13.01 4994.25,-72.53 5476,-30 5488.8,-28.87 5502.57,-26.97 5515.29,-24.94"/>
<polygon fill="#63b8ff" stroke="#63b8ff" points="3279.86,-65.42 3270.7,-70.75 3281.18,-72.3 3279.86,-65.42"/>
</g>
<!-- Node238 -->
<g id="node43" class="node">
<title>Node238</title>
<g id="a_node43"><a xlink:href="d__menu__dmap_8cpp.html" target="_top" xlink:title=" ">
<polygon fill="white" stroke="#666666" points="5809,-24.5 5659,-24.5 5659,-5.5 5809,-5.5 5809,-24.5"/>
<text text-anchor="middle" x="5734" y="-12.5" font-family="Helvetica,sans-Serif" font-size="10.00">src/d/menu/d_menu_dmap.cpp</text>
</a>
</g>
</g>
<!-- Node2&#45;&gt;Node238 -->
<g id="edge42" class="edge">
<title>Node2&#45;&gt;Node238</title>
<path fill="none" stroke="#63b8ff" d="M3280.18,-68.92C3286.81,-67.73 3293.55,-66.71 3300,-66 3819.17,-9.09 5129.84,-77.06 5650,-30 5662.37,-28.88 5675.66,-26.99 5687.95,-24.95"/>
<polygon fill="#63b8ff" stroke="#63b8ff" points="3279.86,-65.42 3270.7,-70.74 3281.18,-72.29 3279.86,-65.42"/>
</g>
<!-- Node255 -->
<g id="node44" class="node">
<title>Node255</title>
<g id="a_node44"><a xlink:href="d__menu__fmap_8cpp.html" target="_top" xlink:title=" ">
<polygon fill="white" stroke="#666666" points="5975,-24.5 5827,-24.5 5827,-5.5 5975,-5.5 5975,-24.5"/>
<text text-anchor="middle" x="5901" y="-12.5" font-family="Helvetica,sans-Serif" font-size="10.00">src/d/menu/d_menu_fmap.cpp</text>
</a>
</g>
</g>
<!-- Node2&#45;&gt;Node255 -->
<g id="edge43" class="edge">
<title>Node2&#45;&gt;Node255</title>
<path fill="none" stroke="#63b8ff" d="M3280.18,-68.91C3286.81,-67.73 3293.55,-66.7 3300,-66 3856.31,-5.31 5260.69,-80.69 5818,-30 5830.22,-28.89 5843.36,-27 5855.5,-24.96"/>
<polygon fill="#63b8ff" stroke="#63b8ff" points="3279.86,-65.41 3270.7,-70.73 3281.18,-72.29 3279.86,-65.41"/>
</g>
<!-- Node240 -->
<g id="node45" class="node">
<title>Node240</title>
<g id="a_node45"><a xlink:href="d__menu__insect_8cpp.html" target="_top" xlink:title=" ">
<polygon fill="white" stroke="#666666" points="6145,-24.5 5993,-24.5 5993,-5.5 6145,-5.5 6145,-24.5"/>
<text text-anchor="middle" x="6069" y="-12.5" font-family="Helvetica,sans-Serif" font-size="10.00">src/d/menu/d_menu_insect.cpp</text>
</a>
</g>
</g>
<!-- Node2&#45;&gt;Node240 -->
<g id="edge44" class="edge">
<title>Node2&#45;&gt;Node240</title>
<path fill="none" stroke="#63b8ff" d="M3280.18,-68.91C3286.81,-67.73 3293.55,-66.7 3300,-66 3893.01,-1.57 5389.83,-82.62 5984,-30 5996.51,-28.89 6009.97,-27 6022.4,-24.97"/>
<polygon fill="#63b8ff" stroke="#63b8ff" points="3279.86,-65.41 3270.7,-70.73 3281.18,-72.28 3279.86,-65.41"/>
</g>
<!-- Node242 -->
<g id="node46" class="node">
<title>Node242</title>
<g id="a_node46"><a xlink:href="d__menu__letter_8cpp.html" target="_top" xlink:title=" ">
<polygon fill="white" stroke="#666666" points="6311,-24.5 6163,-24.5 6163,-5.5 6311,-5.5 6311,-24.5"/>
<text text-anchor="middle" x="6237" y="-12.5" font-family="Helvetica,sans-Serif" font-size="10.00">src/d/menu/d_menu_letter.cpp</text>
</a>
</g>
</g>
<!-- Node2&#45;&gt;Node242 -->
<g id="edge45" class="edge">
<title>Node2&#45;&gt;Node242</title>
<path fill="none" stroke="#63b8ff" d="M3280.18,-68.9C3286.81,-67.72 3293.55,-66.7 3300,-66 3930.59,2.26 5522.29,-86.92 6154,-30 6166.23,-28.9 6179.36,-27.01 6191.5,-24.98"/>
<polygon fill="#63b8ff" stroke="#63b8ff" points="3279.86,-65.4 3270.7,-70.72 3281.18,-72.28 3279.86,-65.4"/>
</g>
<!-- Node244 -->
<g id="node47" class="node">
<title>Node244</title>
<g id="a_node47"><a xlink:href="d__menu__option_8cpp.html" target="_top" xlink:title=" ">
<polygon fill="white" stroke="#666666" points="6481,-24.5 6329,-24.5 6329,-5.5 6481,-5.5 6481,-24.5"/>
<text text-anchor="middle" x="6405" y="-12.5" font-family="Helvetica,sans-Serif" font-size="10.00">src/d/menu/d_menu_option.cpp</text>
</a>
</g>
</g>
<!-- Node2&#45;&gt;Node244 -->
<g id="edge46" class="edge">
<title>Node2&#45;&gt;Node244</title>
<path fill="none" stroke="#63b8ff" d="M3280.18,-68.9C3286.81,-67.72 3293.55,-66.7 3300,-66 3967.29,6 5651.41,-88.71 6320,-30 6332.51,-28.9 6345.97,-27.02 6358.4,-24.98"/>
<polygon fill="#63b8ff" stroke="#63b8ff" points="3279.86,-65.4 3270.69,-70.72 3281.18,-72.27 3279.86,-65.4"/>
</g>
<!-- Node246 -->
<g id="node48" class="node">
<title>Node246</title>
<g id="a_node48"><a xlink:href="d__menu__ring_8cpp.html" target="_top" xlink:title=" ">
<polygon fill="white" stroke="#666666" points="6641,-24.5 6499,-24.5 6499,-5.5 6641,-5.5 6641,-24.5"/>
<text text-anchor="middle" x="6570" y="-12.5" font-family="Helvetica,sans-Serif" font-size="10.00">src/d/menu/d_menu_ring.cpp</text>
</a>
</g>
</g>
<!-- Node2&#45;&gt;Node246 -->
<g id="edge47" class="edge">
<title>Node2&#45;&gt;Node246</title>
<path fill="none" stroke="#63b8ff" d="M3279.94,-68.94C3286.65,-67.74 3293.47,-66.7 3300,-66 4004.87,9.83 5784.08,-95.32 6490,-30 6501.79,-28.91 6514.46,-27.03 6526.16,-24.99"/>
<polygon fill="#63b8ff" stroke="#63b8ff" points="3279.5,-65.46 3270.34,-70.79 3280.82,-72.33 3279.5,-65.46"/>
</g>
<!-- Node250 -->
<g id="node49" class="node">
<title>Node250</title>
<g id="a_node49"><a xlink:href="d__menu__skill_8cpp.html" target="_top" xlink:title=" ">
<polygon fill="white" stroke="#666666" points="6802.5,-24.5 6659.5,-24.5 6659.5,-5.5 6802.5,-5.5 6802.5,-24.5"/>
<text text-anchor="middle" x="6731" y="-12.5" font-family="Helvetica,sans-Serif" font-size="10.00">src/d/menu/d_menu_skill.cpp</text>
</a>
</g>
</g>
<!-- Node2&#45;&gt;Node250 -->
<g id="edge48" class="edge">
<title>Node2&#45;&gt;Node250</title>
<path fill="none" stroke="#63b8ff" d="M3279.94,-68.93C3286.65,-67.74 3293.47,-66.7 3300,-66 4040.24,13.43 5908.59,-97.62 6650,-30 6661.94,-28.91 6674.76,-27.03 6686.61,-24.99"/>
<polygon fill="#63b8ff" stroke="#63b8ff" points="3279.5,-65.45 3270.34,-70.78 3280.82,-72.33 3279.5,-65.45"/>
</g>
</g>
</svg>
        <g id="navigator" transform="translate(0 0)" fill="#404254">
                <rect fill="#f2f5e9" fill-opacity="0.5" stroke="#606060" stroke-width=".5" x="0" y="0" width="60" height="60"/>
                <use id="zoomplus" xlink:href="#zoomPlus" x="17" y="9" onmousedown="handleZoom(evt,'in')"/>
                <use id="zoomminus" xlink:href="#zoomMin" x="42" y="9" onmousedown="handleZoom(evt,'out')"/>
                <use id="reset" xlink:href="#resetDef" x="30" y="36" onmousedown="handleReset()"/>
                <g id="arrowUp" xlink:href="#dirArrow" transform="translate(30 24)" onmousedown="handlePan(0,-1)">
                  <use xlink:href="#rim" fill="#404040">
                        <set attributeName="fill" to="#808080" begin="arrowUp.mouseover" end="arrowUp.mouseout"/>
                  </use>
                  <path fill="none" stroke="white" stroke-width="1.5" d="M0,-3.0v7 M-2.5,-0.5L0,-3.0L2.5,-0.5"/>
                </g>
                <g id="arrowRight" xlink:href="#dirArrow" transform="rotate(90) translate(36 -43)" onmousedown="handlePan(1,0)">
                  <use xlink:href="#rim" fill="#404040">
                        <set attributeName="fill" to="#808080" begin="arrowRight.mouseover" end="arrowRight.mouseout"/>
                  </use>
                  <path fill="none" stroke="white" stroke-width="1.5" d="M0,-3.0v7 M-2.5,-0.5L0,-3.0L2.5,-0.5"/>
                </g>
                <g id="arrowDown" xlink:href="#dirArrow" transform="rotate(180) translate(-30 -48)" onmousedown="handlePan(0,1)">
                  <use xlink:href="#rim" fill="#404040">
                        <set attributeName="fill" to="#808080" begin="arrowDown.mouseover" end="arrowDown.mouseout"/>
                  </use>
                  <path fill="none" stroke="white" stroke-width="1.5" d="M0,-3.0v7 M-2.5,-0.5L0,-3.0L2.5,-0.5"/>
                </g>
                <g id="arrowLeft" xlink:href="#dirArrow" transform="rotate(270) translate(-36 17)" onmousedown="handlePan(-1,0)">
                  <use xlink:href="#rim" fill="#404040">
                        <set attributeName="fill" to="#808080" begin="arrowLeft.mouseover" end="arrowLeft.mouseout"/>
                  </use>
                  <path fill="none" stroke="white" stroke-width="1.5" d="M0,-3.0v7 M-2.5,-0.5L0,-3.0L2.5,-0.5"/>
                </g>
        </g>
        <svg viewBox="0 0 15 15" width="100%" height="30px" preserveAspectRatio="xMaxYMin meet">
         <g id="arrow_out" transform="scale(0.3 0.3)">
          <a xlink:href="extras_8h__dep__incl_org.svg" target="_base">
           <rect id="button" ry="5" rx="5" y="6" x="6" height="38" width="38"
                fill="#f2f5e9" fill-opacity="0.5" stroke="#606060" stroke-width="1.0"/>
           <path id="arrow"
             d="M 11.500037,31.436501 C 11.940474,20.09759 22.043105,11.32322 32.158766,21.979434 L 37.068811,17.246167 C 37.068811,17.246167 37.088388,32 37.088388,32 L 22.160133,31.978069 C 22.160133,31.978069 26.997745,27.140456 26.997745,27.140456 C 18.528582,18.264221 13.291696,25.230495 11.500037,31.436501 z"
             style="fill:#404040;"/>
          </a>
         </g>
        </svg>
</svg>
