<?xml version="1.0" encoding="UTF-8" standalone="no"?>
<!DOCTYPE svg PUBLIC "-//W3C//DTD SVG 1.1//EN"
 "http://www.w3.org/Graphics/SVG/1.1/DTD/svg11.dtd">
<!-- Generated by graphviz version 7.0.5 (20221223.1930)
 -->
<!-- Title: include/f_op/f_op_scene_mng.h Pages: 1 -->
<svg width="5908pt" height="236pt"
 viewBox="0.00 0.00 5907.58 236.00" xmlns="http://www.w3.org/2000/svg" xmlns:xlink="http://www.w3.org/1999/xlink">
<g id="graph0" class="graph" transform="scale(1 1) rotate(0) translate(4 232)">
<title>include/f_op/f_op_scene_mng.h</title>
<!-- Node1 -->
<g id="node1" class="node">
<title>Node1</title>
<g id="a_node1"><a xlink:title=" ">
<polygon fill="#999999" stroke="#666666" points="5688.08,-228 5566.08,-228 5566.08,-198 5688.08,-198 5688.08,-228"/>
<text text-anchor="start" x="5574.08" y="-216" font-family="Helvetica,sans-Serif" font-size="10.00">include/f_op/f_op_scene</text>
<text text-anchor="middle" x="5627.08" y="-205" font-family="Helvetica,sans-Serif" font-size="10.00">_mng.h</text>
</a>
</g>
</g>
<!-- Node2 -->
<g id="node2" class="node">
<title>Node2</title>
<g id="a_node2"><a xlink:href="c__dylink_8h.html" target="_top" xlink:title=" ">
<polygon fill="white" stroke="#666666" points="199.58,-156.5 98.58,-156.5 98.58,-137.5 199.58,-137.5 199.58,-156.5"/>
<text text-anchor="middle" x="149.08" y="-144.5" font-family="Helvetica,sans-Serif" font-size="10.00">include/c/c_dylink.h</text>
</a>
</g>
</g>
<!-- Node1&#45;&gt;Node2 -->
<g id="edge1" class="edge">
<title>Node1&#45;&gt;Node2</title>
<path fill="none" stroke="#63b8ff" d="M5554.85,-211.16C4948.3,-204.07 713.67,-154.6 200.05,-148.6"/>
<polygon fill="#63b8ff" stroke="#63b8ff" points="5554.48,-214.65 5564.52,-211.27 5554.56,-207.65 5554.48,-214.65"/>
</g>
<!-- Node6 -->
<g id="node6" class="node">
<title>Node6</title>
<g id="a_node6"><a xlink:href="d__com__inf__game_8h.html" target="_top" xlink:title=" ">
<polygon fill="#fff0f0" stroke="red" points="2994.08,-162 2884.08,-162 2884.08,-132 2994.08,-132 2994.08,-162"/>
<text text-anchor="start" x="2892.08" y="-150" font-family="Helvetica,sans-Serif" font-size="10.00">include/d/com/d_com</text>
<text text-anchor="middle" x="2939.08" y="-139" font-family="Helvetica,sans-Serif" font-size="10.00">_inf_game.h</text>
</a>
</g>
</g>
<!-- Node1&#45;&gt;Node6 -->
<g id="edge5" class="edge">
<title>Node1&#45;&gt;Node6</title>
<path fill="none" stroke="#63b8ff" d="M5554.55,-210.27C5166.15,-201.03 3337.07,-157.48 2994.45,-149.32"/>
<polygon fill="#63b8ff" stroke="#63b8ff" points="5554.3,-213.77 5564.38,-210.51 5554.46,-206.77 5554.3,-213.77"/>
</g>
<!-- Node23 -->
<g id="node10" class="node">
<title>Node23</title>
<g id="a_node10"><a xlink:href="d__s__play_8cpp.html" target="_top" xlink:title=" ">
<polygon fill="white" stroke="#666666" points="4726.08,-19 4620.08,-19 4620.08,0 4726.08,0 4726.08,-19"/>
<text text-anchor="middle" x="4673.08" y="-7" font-family="Helvetica,sans-Serif" font-size="10.00">src/d/s/d_s_play.cpp</text>
</a>
</g>
</g>
<!-- Node1&#45;&gt;Node23 -->
<g id="edge55" class="edge">
<title>Node1&#45;&gt;Node23</title>
<path fill="none" stroke="#63b8ff" d="M5632.83,-186.43C5639.08,-151.19 5643.88,-88.28 5608.08,-55 5575.63,-24.83 4919.68,-13.77 4726.29,-11.15"/>
<polygon fill="#63b8ff" stroke="#63b8ff" points="5629.41,-185.68 5630.92,-196.16 5636.28,-187.03 5629.41,-185.68"/>
</g>
<!-- Node143 -->
<g id="node49" class="node">
<title>Node143</title>
<g id="a_node49"><a xlink:href="f__ap__game_8cpp.html" target="_top" xlink:title=" ">
<polygon fill="white" stroke="#666666" points="5776.58,-156.5 5655.58,-156.5 5655.58,-137.5 5776.58,-137.5 5776.58,-156.5"/>
<text text-anchor="middle" x="5716.08" y="-144.5" font-family="Helvetica,sans-Serif" font-size="10.00">src/f_ap/f_ap_game.cpp</text>
</a>
</g>
</g>
<!-- Node1&#45;&gt;Node143 -->
<g id="edge56" class="edge">
<title>Node1&#45;&gt;Node143</title>
<path fill="none" stroke="#63b8ff" d="M5655.93,-191.26C5672.12,-179.61 5691.48,-165.69 5703.78,-156.84"/>
<polygon fill="#63b8ff" stroke="#63b8ff" points="5654.14,-188.23 5648.06,-196.91 5658.23,-193.92 5654.14,-188.23"/>
</g>
<!-- Node144 -->
<g id="node50" class="node">
<title>Node144</title>
<g id="a_node50"><a xlink:href="f__op__scene__mng_8cpp.html" target="_top" xlink:title=" ">
<polygon fill="white" stroke="#666666" points="5899.58,-162 5794.58,-162 5794.58,-132 5899.58,-132 5899.58,-162"/>
<text text-anchor="start" x="5802.58" y="-150" font-family="Helvetica,sans-Serif" font-size="10.00">src/f_op/f_op_scene</text>
<text text-anchor="middle" x="5847.08" y="-139" font-family="Helvetica,sans-Serif" font-size="10.00">_mng.cpp</text>
</a>
</g>
</g>
<!-- Node1&#45;&gt;Node144 -->
<g id="edge57" class="edge">
<title>Node1&#45;&gt;Node144</title>
<path fill="none" stroke="#63b8ff" d="M5687.65,-194.38C5722.24,-184.32 5765.06,-171.86 5797.62,-162.39"/>
<polygon fill="#63b8ff" stroke="#63b8ff" points="5686.81,-190.98 5678.18,-197.13 5688.76,-197.7 5686.81,-190.98"/>
</g>
<!-- Node3 -->
<g id="node3" class="node">
<title>Node3</title>
<g id="a_node3"><a xlink:href="c__dylink_8cpp.html" target="_top" xlink:title=" ">
<polygon fill="white" stroke="#666666" points="261.58,-85 166.58,-85 166.58,-66 261.58,-66 261.58,-85"/>
<text text-anchor="middle" x="214.08" y="-73" font-family="Helvetica,sans-Serif" font-size="10.00">src/c/c_dylink.cpp</text>
</a>
</g>
</g>
<!-- Node2&#45;&gt;Node3 -->
<g id="edge2" class="edge">
<title>Node2&#45;&gt;Node3</title>
<path fill="none" stroke="#63b8ff" d="M164.96,-129.03C177.82,-115.27 195.44,-96.43 205.71,-85.45"/>
<polygon fill="#63b8ff" stroke="#63b8ff" points="162.62,-126.4 158.35,-136.09 167.74,-131.18 162.62,-126.4"/>
</g>
<!-- Node4 -->
<g id="node4" class="node">
<title>Node4</title>
<g id="a_node4"><a xlink:href="d__s__logo_8cpp.html" target="_top" xlink:title=" ">
<polygon fill="white" stroke="#666666" points="216.58,-19 109.58,-19 109.58,0 216.58,0 216.58,-19"/>
<text text-anchor="middle" x="163.08" y="-7" font-family="Helvetica,sans-Serif" font-size="10.00">src/d/s/d_s_logo.cpp</text>
</a>
</g>
</g>
<!-- Node2&#45;&gt;Node4 -->
<g id="edge3" class="edge">
<title>Node2&#45;&gt;Node4</title>
<path fill="none" stroke="#63b8ff" d="M87.32,-140.24C58.25,-134.07 26.09,-121.49 8.08,-96 -2.43,-81.12 -2.88,-69.55 8.08,-55 20.46,-38.56 69.73,-26.33 109.45,-18.89"/>
<polygon fill="#63b8ff" stroke="#63b8ff" points="86.31,-143.61 96.78,-142.02 87.6,-136.73 86.31,-143.61"/>
</g>
<!-- Node5 -->
<g id="node5" class="node">
<title>Node5</title>
<g id="a_node5"><a xlink:href="m__Do__main_8cpp.html" target="_top" xlink:title=" ">
<polygon fill="white" stroke="#666666" points="148.58,-85 17.58,-85 17.58,-66 148.58,-66 148.58,-85"/>
<text text-anchor="middle" x="83.08" y="-73" font-family="Helvetica,sans-Serif" font-size="10.00">src/m_Do/m_Do_main.cpp</text>
</a>
</g>
</g>
<!-- Node2&#45;&gt;Node5 -->
<g id="edge4" class="edge">
<title>Node2&#45;&gt;Node5</title>
<path fill="none" stroke="#63b8ff" d="M132.96,-129.03C119.9,-115.27 102.01,-96.43 91.58,-85.45"/>
<polygon fill="#63b8ff" stroke="#63b8ff" points="130.26,-131.26 139.68,-136.1 135.33,-126.44 130.26,-131.26"/>
</g>
<!-- Node6&#45;&gt;Node3 -->
<g id="edge53" class="edge">
<title>Node6&#45;&gt;Node3</title>
<path fill="none" stroke="#63b8ff" d="M2872.36,-145.99C2485.07,-145.75 533.91,-142.25 271.08,-96 258.82,-93.84 245.65,-89.48 235.05,-85.42"/>
<polygon fill="#63b8ff" stroke="#63b8ff" points="2872.11,-149.49 2882.12,-145.99 2872.12,-142.49 2872.11,-149.49"/>
</g>
<!-- Node6&#45;&gt;Node5 -->
<g id="edge54" class="edge">
<title>Node6&#45;&gt;Node5</title>
<path fill="none" stroke="#63b8ff" d="M2872.43,-145.76C2475.73,-144.19 433.37,-134.32 157.08,-96 141.42,-93.83 124.33,-89.46 110.52,-85.41"/>
<polygon fill="#63b8ff" stroke="#63b8ff" points="2872.16,-149.26 2882.17,-145.8 2872.19,-142.26 2872.16,-149.26"/>
</g>
<!-- Node7 -->
<g id="node7" class="node">
<title>Node7</title>
<g id="a_node7"><a xlink:href="d__a__npc_8h.html" target="_top" xlink:title=" ">
<polygon fill="#fff0f0" stroke="red" points="4435.58,-19 4324.58,-19 4324.58,0 4435.58,0 4435.58,-19"/>
<text text-anchor="middle" x="4380.08" y="-7" font-family="Helvetica,sans-Serif" font-size="10.00">include/d/a/d_a_npc.h</text>
</a>
</g>
</g>
<!-- Node6&#45;&gt;Node7 -->
<g id="edge6" class="edge">
<title>Node6&#45;&gt;Node7</title>
<path fill="none" stroke="#63b8ff" d="M3005.88,-145.23C3274.17,-141.92 4261.82,-127.64 4320.08,-96 4336.1,-87.3 4363.95,-39.55 4375.18,-19.44"/>
<polygon fill="#63b8ff" stroke="#63b8ff" points="3005.86,-141.73 2995.91,-145.35 3005.95,-148.73 3005.86,-141.73"/>
</g>
<!-- Node13 -->
<g id="node8" class="node">
<title>Node13</title>
<g id="a_node8"><a xlink:href="d__cc__uty_8h.html" target="_top" xlink:title=" ">
<polygon fill="#fff0f0" stroke="red" points="4866.58,-85 4747.58,-85 4747.58,-66 4866.58,-66 4866.58,-85"/>
<text text-anchor="middle" x="4807.08" y="-73" font-family="Helvetica,sans-Serif" font-size="10.00">include/d/cc/d_cc_uty.h</text>
</a>
</g>
</g>
<!-- Node6&#45;&gt;Node13 -->
<g id="edge7" class="edge">
<title>Node6&#45;&gt;Node13</title>
<path fill="none" stroke="#63b8ff" d="M3005.68,-146.39C3289,-147.69 4395.32,-149.19 4739.08,-96 4753.4,-93.78 4768.97,-89.47 4781.59,-85.46"/>
<polygon fill="#63b8ff" stroke="#63b8ff" points="3005.9,-142.89 2995.89,-146.34 3005.87,-149.89 3005.9,-142.89"/>
</g>
<!-- Node19 -->
<g id="node9" class="node">
<title>Node19</title>
<g id="a_node9"><a xlink:href="d__item_8h.html" target="_top" xlink:title=" ">
<polygon fill="#fff0f0" stroke="red" points="5598.58,-85 5503.58,-85 5503.58,-66 5598.58,-66 5598.58,-85"/>
<text text-anchor="middle" x="5551.08" y="-73" font-family="Helvetica,sans-Serif" font-size="10.00">include/d/d_item.h</text>
</a>
</g>
</g>
<!-- Node6&#45;&gt;Node19 -->
<g id="edge8" class="edge">
<title>Node6&#45;&gt;Node19</title>
<path fill="none" stroke="#63b8ff" d="M3005.66,-145.93C3382.81,-145.36 5243,-140.29 5494.08,-96 5506.34,-93.84 5519.52,-89.47 5530.11,-85.42"/>
<polygon fill="#63b8ff" stroke="#63b8ff" points="3005.93,-142.43 2995.94,-145.94 3005.94,-149.43 3005.93,-142.43"/>
</g>
<!-- Node24 -->
<g id="node11" class="node">
<title>Node24</title>
<g id="a_node11"><a xlink:href="d__kantera__icon__meter_8h.html" target="_top" xlink:title=" ">
<polygon fill="#fff0f0" stroke="red" points="4985.58,-90.5 4884.58,-90.5 4884.58,-60.5 4985.58,-60.5 4985.58,-90.5"/>
<text text-anchor="start" x="4892.58" y="-78.5" font-family="Helvetica,sans-Serif" font-size="10.00">include/d/d_kantera</text>
<text text-anchor="middle" x="4935.08" y="-67.5" font-family="Helvetica,sans-Serif" font-size="10.00">_icon_meter.h</text>
</a>
</g>
</g>
<!-- Node6&#45;&gt;Node24 -->
<g id="edge10" class="edge">
<title>Node6&#45;&gt;Node24</title>
<path fill="none" stroke="#63b8ff" d="M3005.64,-145.44C3324.59,-142.59 4688.98,-128.6 4876.08,-96 4882.88,-94.81 4889.97,-93 4896.78,-90.95"/>
<polygon fill="#63b8ff" stroke="#63b8ff" points="3005.78,-141.94 2995.81,-145.53 3005.84,-148.94 3005.78,-141.94"/>
</g>
<!-- Node27 -->
<g id="node12" class="node">
<title>Node27</title>
<g id="a_node12"><a xlink:href="d__model_8h.html" target="_top" xlink:title=" ">
<polygon fill="#fff0f0" stroke="red" points="4598.58,-85 4495.58,-85 4495.58,-66 4598.58,-66 4598.58,-85"/>
<text text-anchor="middle" x="4547.08" y="-73" font-family="Helvetica,sans-Serif" font-size="10.00">include/d/d_model.h</text>
</a>
</g>
</g>
<!-- Node6&#45;&gt;Node27 -->
<g id="edge11" class="edge">
<title>Node6&#45;&gt;Node27</title>
<path fill="none" stroke="#63b8ff" d="M3005.86,-146.3C3263.8,-147.06 4195.13,-146.2 4486.08,-96 4499.01,-93.77 4512.98,-89.45 4524.29,-85.45"/>
<polygon fill="#63b8ff" stroke="#63b8ff" points="3005.97,-142.8 2995.96,-146.26 3005.95,-149.8 3005.97,-142.8"/>
</g>
<!-- Node29 -->
<g id="node13" class="node">
<title>Node29</title>
<g id="a_node13"><a xlink:href="d__name_8h.html" target="_top" xlink:title=" ">
<polygon fill="#fff0f0" stroke="red" points="5104.58,-85 5003.58,-85 5003.58,-66 5104.58,-66 5104.58,-85"/>
<text text-anchor="middle" x="5054.08" y="-73" font-family="Helvetica,sans-Serif" font-size="10.00">include/d/d_name.h</text>
</a>
</g>
</g>
<!-- Node6&#45;&gt;Node29 -->
<g id="edge13" class="edge">
<title>Node6&#45;&gt;Node29</title>
<path fill="none" stroke="#63b8ff" d="M3005.67,-145.55C3336.51,-143.13 4795.66,-130.59 4995.08,-96 5007.62,-93.82 5021.14,-89.51 5032.07,-85.49"/>
<polygon fill="#63b8ff" stroke="#63b8ff" points="3005.86,-142.04 2995.89,-145.62 3005.92,-149.04 3005.86,-142.04"/>
</g>
<!-- Node31 -->
<g id="node14" class="node">
<title>Node31</title>
<g id="a_node14"><a xlink:href="d__file__sel__info_8h.html" target="_top" xlink:title=" ">
<polygon fill="#fff0f0" stroke="red" points="5219.08,-90.5 5123.08,-90.5 5123.08,-60.5 5219.08,-60.5 5219.08,-90.5"/>
<text text-anchor="start" x="5131.08" y="-78.5" font-family="Helvetica,sans-Serif" font-size="10.00">include/d/file/d_file</text>
<text text-anchor="middle" x="5171.08" y="-67.5" font-family="Helvetica,sans-Serif" font-size="10.00">_sel_info.h</text>
</a>
</g>
</g>
<!-- Node6&#45;&gt;Node31 -->
<g id="edge14" class="edge">
<title>Node6&#45;&gt;Node31</title>
<path fill="none" stroke="#63b8ff" d="M3005.88,-145.68C3348.68,-143.88 4902.55,-133.69 5114.08,-96 5120.67,-94.83 5127.53,-93.02 5134.11,-90.97"/>
<polygon fill="#63b8ff" stroke="#63b8ff" points="3005.93,-142.18 2995.95,-145.73 3005.97,-149.18 3005.93,-142.18"/>
</g>
<!-- Node34 -->
<g id="node15" class="node">
<title>Node34</title>
<g id="a_node15"><a xlink:href="d__file__sel__warning_8h.html" target="_top" xlink:title=" ">
<polygon fill="#fff0f0" stroke="red" points="5333.08,-90.5 5237.08,-90.5 5237.08,-60.5 5333.08,-60.5 5333.08,-90.5"/>
<text text-anchor="start" x="5245.08" y="-78.5" font-family="Helvetica,sans-Serif" font-size="10.00">include/d/file/d_file</text>
<text text-anchor="middle" x="5285.08" y="-67.5" font-family="Helvetica,sans-Serif" font-size="10.00">_sel_warning.h</text>
</a>
</g>
</g>
<!-- Node6&#45;&gt;Node34 -->
<g id="edge15" class="edge">
<title>Node6&#45;&gt;Node34</title>
<path fill="none" stroke="#63b8ff" d="M3005.66,-145.76C3358.74,-144.35 5004.67,-135.67 5228.08,-96 5234.67,-94.83 5241.53,-93.03 5248.11,-90.98"/>
<polygon fill="#63b8ff" stroke="#63b8ff" points="3005.87,-142.26 2995.89,-145.8 3005.9,-149.26 3005.87,-142.26"/>
</g>
<!-- Node36 -->
<g id="node16" class="node">
<title>Node36</title>
<g id="a_node16"><a xlink:href="d__meter2_8h.html" target="_top" xlink:title=" ">
<polygon fill="#fff0f0" stroke="red" points="5485.08,-85 5351.08,-85 5351.08,-66 5485.08,-66 5485.08,-85"/>
<text text-anchor="middle" x="5418.08" y="-73" font-family="Helvetica,sans-Serif" font-size="10.00">include/d/meter/d_meter2.h</text>
</a>
</g>
</g>
<!-- Node6&#45;&gt;Node36 -->
<g id="edge16" class="edge">
<title>Node6&#45;&gt;Node36</title>
<path fill="none" stroke="#63b8ff" d="M3005.67,-145.53C3369.11,-142.84 5105.38,-128.39 5342.08,-96 5358.01,-93.82 5375.4,-89.51 5389.52,-85.49"/>
<polygon fill="#63b8ff" stroke="#63b8ff" points="3005.81,-142.03 2995.84,-145.6 3005.86,-149.03 3005.81,-142.03"/>
</g>
<!-- Node44 -->
<g id="node17" class="node">
<title>Node44</title>
<g id="a_node17"><a xlink:href="d__msg__object_8h.html" target="_top" xlink:title=" ">
<polygon fill="#fff0f0" stroke="red" points="4477.08,-90.5 4367.08,-90.5 4367.08,-60.5 4477.08,-60.5 4477.08,-90.5"/>
<text text-anchor="start" x="4375.08" y="-78.5" font-family="Helvetica,sans-Serif" font-size="10.00">include/d/msg/d_msg</text>
<text text-anchor="middle" x="4422.08" y="-67.5" font-family="Helvetica,sans-Serif" font-size="10.00">_object.h</text>
</a>
</g>
</g>
<!-- Node6&#45;&gt;Node44 -->
<g id="edge17" class="edge">
<title>Node6&#45;&gt;Node44</title>
<path fill="none" stroke="#63b8ff" d="M3006.05,-145.76C3249.71,-144.56 4088.64,-137.42 4353.08,-96 4360.83,-94.79 4368.94,-92.99 4376.77,-90.97"/>
<polygon fill="#63b8ff" stroke="#63b8ff" points="3006.06,-142.26 2996.07,-145.81 3006.09,-149.26 3006.06,-142.26"/>
</g>
<!-- Node60 -->
<g id="node18" class="node">
<title>Node60</title>
<g id="a_node18"><a xlink:href="d__s__logo_8h.html" target="_top" xlink:title=" ">
<polygon fill="white" stroke="#666666" points="392.58,-85 279.58,-85 279.58,-66 392.58,-66 392.58,-85"/>
<text text-anchor="middle" x="336.08" y="-73" font-family="Helvetica,sans-Serif" font-size="10.00">include/d/s/d_s_logo.h</text>
</a>
</g>
</g>
<!-- Node6&#45;&gt;Node60 -->
<g id="edge20" class="edge">
<title>Node6&#45;&gt;Node60</title>
<path fill="none" stroke="#63b8ff" d="M2872.11,-145.75C2495.76,-144.2 652.07,-134.68 402.08,-96 388.03,-93.83 372.78,-89.46 360.48,-85.41"/>
<polygon fill="#63b8ff" stroke="#63b8ff" points="2872.06,-149.25 2882.08,-145.79 2872.09,-142.25 2872.06,-149.25"/>
</g>
<!-- Node61 -->
<g id="node19" class="node">
<title>Node61</title>
<g id="a_node19"><a xlink:href="d__s__play_8h.html" target="_top" xlink:title=" ">
<polygon fill="#fff0f0" stroke="red" points="4729.58,-85 4616.58,-85 4616.58,-66 4729.58,-66 4729.58,-85"/>
<text text-anchor="middle" x="4673.08" y="-73" font-family="Helvetica,sans-Serif" font-size="10.00">include/d/s/d_s_play.h</text>
</a>
</g>
</g>
<!-- Node6&#45;&gt;Node61 -->
<g id="edge22" class="edge">
<title>Node6&#45;&gt;Node61</title>
<path fill="none" stroke="#63b8ff" d="M3005.68,-146.32C3275.98,-147.28 4291.6,-147.3 4608.08,-96 4621.81,-93.78 4636.69,-89.46 4648.74,-85.45"/>
<polygon fill="#63b8ff" stroke="#63b8ff" points="3006.03,-142.82 2996.02,-146.29 3006,-149.82 3006.03,-142.82"/>
</g>
<!-- Node67 -->
<g id="node20" class="node">
<title>Node67</title>
<g id="a_node20"><a xlink:href="d__msg__scrn__base_8h.html" target="_top" xlink:title=" ">
<polygon fill="#fff0f0" stroke="red" points="509.58,-90.5 410.58,-90.5 410.58,-60.5 509.58,-60.5 509.58,-90.5"/>
<text text-anchor="start" x="418.58" y="-78.5" font-family="Helvetica,sans-Serif" font-size="10.00">include/msg/scrn/d</text>
<text text-anchor="middle" x="460.08" y="-67.5" font-family="Helvetica,sans-Serif" font-size="10.00">_msg_scrn_base.h</text>
</a>
</g>
</g>
<!-- Node6&#45;&gt;Node67 -->
<g id="edge24" class="edge">
<title>Node6&#45;&gt;Node67</title>
<path fill="none" stroke="#63b8ff" d="M2872.28,-145.81C2506.7,-144.6 756.28,-136.7 519.08,-96 512.28,-94.83 505.19,-93.03 498.38,-90.98"/>
<polygon fill="#63b8ff" stroke="#63b8ff" points="2872.17,-149.31 2882.18,-145.84 2872.19,-142.31 2872.17,-149.31"/>
</g>
<!-- Node71 -->
<g id="node21" class="node">
<title>Node71</title>
<g id="a_node21"><a xlink:href="d__a__b__oh2_8h.html" target="_top" xlink:title=" ">
<polygon fill="white" stroke="#666666" points="644.08,-90.5 528.08,-90.5 528.08,-60.5 644.08,-60.5 644.08,-90.5"/>
<text text-anchor="start" x="536.08" y="-78.5" font-family="Helvetica,sans-Serif" font-size="10.00">include/rel/d/a/b/d</text>
<text text-anchor="middle" x="586.08" y="-67.5" font-family="Helvetica,sans-Serif" font-size="10.00">_a_b_oh2/d_a_b_oh2.h</text>
</a>
</g>
</g>
<!-- Node6&#45;&gt;Node71 -->
<g id="edge25" class="edge">
<title>Node6&#45;&gt;Node71</title>
<path fill="none" stroke="#63b8ff" d="M2872.37,-145.56C2519.47,-143.11 877.97,-129.97 654.08,-96 646.31,-94.82 638.18,-93.01 630.34,-90.96"/>
<polygon fill="#63b8ff" stroke="#63b8ff" points="2872.11,-149.06 2882.14,-145.63 2872.16,-142.06 2872.11,-149.06"/>
</g>
<!-- Node72 -->
<g id="node22" class="node">
<title>Node72</title>
<g id="a_node22"><a xlink:href="d__a__b__zant_8h.html" target="_top" xlink:title=" ">
<polygon fill="white" stroke="#666666" points="783.58,-90.5 662.58,-90.5 662.58,-60.5 783.58,-60.5 783.58,-90.5"/>
<text text-anchor="start" x="670.58" y="-78.5" font-family="Helvetica,sans-Serif" font-size="10.00">include/rel/d/a/b/d</text>
<text text-anchor="middle" x="723.08" y="-67.5" font-family="Helvetica,sans-Serif" font-size="10.00">_a_b_zant/d_a_b_zant.h</text>
</a>
</g>
</g>
<!-- Node6&#45;&gt;Node72 -->
<g id="edge26" class="edge">
<title>Node6&#45;&gt;Node72</title>
<path fill="none" stroke="#63b8ff" d="M2872.39,-145.43C2532.67,-142.4 1002.61,-127.13 793.08,-96 785.1,-94.81 776.73,-93 768.67,-90.95"/>
<polygon fill="#63b8ff" stroke="#63b8ff" points="2872.19,-148.93 2882.22,-145.52 2872.25,-141.93 2872.19,-148.93"/>
</g>
<!-- Node73 -->
<g id="node23" class="node">
<title>Node73</title>
<g id="a_node23"><a xlink:href="d__a__andsw_8h.html" target="_top" xlink:title=" ">
<polygon fill="white" stroke="#666666" points="912.08,-90.5 802.08,-90.5 802.08,-60.5 912.08,-60.5 912.08,-90.5"/>
<text text-anchor="start" x="810.08" y="-78.5" font-family="Helvetica,sans-Serif" font-size="10.00">include/rel/d/a/d_a</text>
<text text-anchor="middle" x="857.08" y="-67.5" font-family="Helvetica,sans-Serif" font-size="10.00">_andsw/d_a_andsw.h</text>
</a>
</g>
</g>
<!-- Node6&#45;&gt;Node73 -->
<g id="edge27" class="edge">
<title>Node6&#45;&gt;Node73</title>
<path fill="none" stroke="#63b8ff" d="M2872.45,-145.4C2545.4,-142.33 1117.9,-127.22 922.08,-96 914.64,-94.81 906.85,-93 899.36,-90.95"/>
<polygon fill="#63b8ff" stroke="#63b8ff" points="2872.07,-148.9 2882.1,-145.49 2872.13,-141.9 2872.07,-148.9"/>
</g>
<!-- Node74 -->
<g id="node24" class="node">
<title>Node74</title>
<g id="a_node24"><a xlink:href="d__a__cstaF_8h.html" target="_top" xlink:title=" ">
<polygon fill="white" stroke="#666666" points="1033.58,-90.5 930.58,-90.5 930.58,-60.5 1033.58,-60.5 1033.58,-90.5"/>
<text text-anchor="start" x="938.58" y="-78.5" font-family="Helvetica,sans-Serif" font-size="10.00">include/rel/d/a/d_a</text>
<text text-anchor="middle" x="982.08" y="-67.5" font-family="Helvetica,sans-Serif" font-size="10.00">_cstaF/d_a_cstaF.h</text>
</a>
</g>
</g>
<!-- Node6&#45;&gt;Node74 -->
<g id="edge28" class="edge">
<title>Node6&#45;&gt;Node74</title>
<path fill="none" stroke="#63b8ff" d="M2872.4,-145.36C2557.4,-142.18 1226.08,-127.01 1043.08,-96 1036.07,-94.81 1028.75,-93 1021.71,-90.95"/>
<polygon fill="#63b8ff" stroke="#63b8ff" points="2872.06,-148.86 2882.09,-145.46 2872.13,-141.86 2872.06,-148.86"/>
</g>
<!-- Node75 -->
<g id="node25" class="node">
<title>Node75</title>
<g id="a_node25"><a xlink:href="d__a__dmidna_8h.html" target="_top" xlink:title=" ">
<polygon fill="white" stroke="#666666" points="1168.08,-90.5 1052.08,-90.5 1052.08,-60.5 1168.08,-60.5 1168.08,-90.5"/>
<text text-anchor="start" x="1060.08" y="-78.5" font-family="Helvetica,sans-Serif" font-size="10.00">include/rel/d/a/d_a</text>
<text text-anchor="middle" x="1110.08" y="-67.5" font-family="Helvetica,sans-Serif" font-size="10.00">_dmidna/d_a_dmidna.h</text>
</a>
</g>
</g>
<!-- Node6&#45;&gt;Node75 -->
<g id="edge29" class="edge">
<title>Node6&#45;&gt;Node75</title>
<path fill="none" stroke="#63b8ff" d="M2872.54,-146.34C2593.15,-147.42 1513.83,-148.06 1178.08,-96 1170.32,-94.8 1162.18,-92.97 1154.35,-90.92"/>
<polygon fill="#63b8ff" stroke="#63b8ff" points="2872.2,-149.84 2882.18,-146.3 2872.17,-142.84 2872.2,-149.84"/>
</g>
<!-- Node76 -->
<g id="node26" class="node">
<title>Node76</title>
<g id="a_node26"><a xlink:href="d__a__econt_8h.html" target="_top" xlink:title=" ">
<polygon fill="white" stroke="#666666" points="1287.58,-90.5 1186.58,-90.5 1186.58,-60.5 1287.58,-60.5 1287.58,-90.5"/>
<text text-anchor="start" x="1194.58" y="-78.5" font-family="Helvetica,sans-Serif" font-size="10.00">include/rel/d/a/d_a</text>
<text text-anchor="middle" x="1237.08" y="-67.5" font-family="Helvetica,sans-Serif" font-size="10.00">_econt/d_a_econt.h</text>
</a>
</g>
</g>
<!-- Node6&#45;&gt;Node76 -->
<g id="edge30" class="edge">
<title>Node6&#45;&gt;Node76</title>
<path fill="none" stroke="#63b8ff" d="M2872.2,-145.08C2583.76,-140.98 1453.75,-123.27 1297.08,-96 1290.18,-94.8 1282.97,-92.98 1276.05,-90.92"/>
<polygon fill="#63b8ff" stroke="#63b8ff" points="2872.14,-148.58 2882.19,-145.22 2872.24,-141.58 2872.14,-148.58"/>
</g>
<!-- Node77 -->
<g id="node27" class="node">
<title>Node77</title>
<g id="a_node27"><a xlink:href="d__a__set__bgobj_8h.html" target="_top" xlink:title=" ">
<polygon fill="white" stroke="#666666" points="1442.58,-90.5 1305.58,-90.5 1305.58,-60.5 1442.58,-60.5 1442.58,-90.5"/>
<text text-anchor="start" x="1313.58" y="-78.5" font-family="Helvetica,sans-Serif" font-size="10.00">include/rel/d/a/d_a</text>
<text text-anchor="middle" x="1374.08" y="-67.5" font-family="Helvetica,sans-Serif" font-size="10.00">_set_bgobj/d_a_set_bgobj.h</text>
</a>
</g>
</g>
<!-- Node6&#45;&gt;Node77 -->
<g id="edge31" class="edge">
<title>Node6&#45;&gt;Node77</title>
<path fill="none" stroke="#63b8ff" d="M2872.51,-145.63C2621.47,-143.95 1732.22,-135.28 1452.08,-96 1443.37,-94.78 1434.23,-92.98 1425.39,-90.96"/>
<polygon fill="#63b8ff" stroke="#63b8ff" points="2872.44,-149.13 2882.46,-145.7 2872.48,-142.13 2872.44,-149.13"/>
</g>
<!-- Node78 -->
<g id="node28" class="node">
<title>Node78</title>
<g id="a_node28"><a xlink:href="d__a__skip__2D_8h.html" target="_top" xlink:title=" ">
<polygon fill="white" stroke="#666666" points="1585.08,-90.5 1461.08,-90.5 1461.08,-60.5 1585.08,-60.5 1585.08,-90.5"/>
<text text-anchor="start" x="1469.08" y="-78.5" font-family="Helvetica,sans-Serif" font-size="10.00">include/rel/d/a/d_a</text>
<text text-anchor="middle" x="1523.08" y="-67.5" font-family="Helvetica,sans-Serif" font-size="10.00">_skip_2D/d_a_skip_2D.h</text>
</a>
</g>
</g>
<!-- Node6&#45;&gt;Node78 -->
<g id="edge32" class="edge">
<title>Node6&#45;&gt;Node78</title>
<path fill="none" stroke="#63b8ff" d="M2872.27,-145.55C2636.57,-143.67 1844.62,-134.53 1594.08,-96 1586.12,-94.78 1577.78,-92.97 1569.73,-90.95"/>
<polygon fill="#63b8ff" stroke="#63b8ff" points="2872.19,-149.05 2882.21,-145.63 2872.24,-142.05 2872.19,-149.05"/>
</g>
<!-- Node79 -->
<g id="node29" class="node">
<title>Node79</title>
<g id="a_node29"><a xlink:href="d__a__spinner_8h.html" target="_top" xlink:title=" ">
<polygon fill="#fff0f0" stroke="red" points="1719.08,-90.5 1603.08,-90.5 1603.08,-60.5 1719.08,-60.5 1719.08,-90.5"/>
<text text-anchor="start" x="1611.08" y="-78.5" font-family="Helvetica,sans-Serif" font-size="10.00">include/rel/d/a/d_a</text>
<text text-anchor="middle" x="1661.08" y="-67.5" font-family="Helvetica,sans-Serif" font-size="10.00">_spinner/d_a_spinner.h</text>
</a>
</g>
</g>
<!-- Node6&#45;&gt;Node79 -->
<g id="edge33" class="edge">
<title>Node6&#45;&gt;Node79</title>
<path fill="none" stroke="#63b8ff" d="M2872.35,-145.37C2652.33,-142.95 1951.09,-132.5 1728.08,-96 1720.55,-94.77 1712.67,-92.96 1705.06,-90.94"/>
<polygon fill="#63b8ff" stroke="#63b8ff" points="2872.15,-148.87 2882.18,-145.47 2872.22,-141.87 2872.15,-148.87"/>
</g>
<!-- Node82 -->
<g id="node30" class="node">
<title>Node82</title>
<g id="a_node30"><a xlink:href="d__a__swTime_8h.html" target="_top" xlink:title=" ">
<polygon fill="white" stroke="#666666" points="1859.08,-90.5 1737.08,-90.5 1737.08,-60.5 1859.08,-60.5 1859.08,-90.5"/>
<text text-anchor="start" x="1745.08" y="-78.5" font-family="Helvetica,sans-Serif" font-size="10.00">include/rel/d/a/d_a</text>
<text text-anchor="middle" x="1798.08" y="-67.5" font-family="Helvetica,sans-Serif" font-size="10.00">_swTime/d_a_swTime.h</text>
</a>
</g>
</g>
<!-- Node6&#45;&gt;Node82 -->
<g id="edge34" class="edge">
<title>Node6&#45;&gt;Node82</title>
<path fill="none" stroke="#63b8ff" d="M2872.4,-144.81C2669.86,-140.91 2063.78,-126.89 1869.08,-96 1861.25,-94.76 1853.05,-92.97 1845.12,-90.98"/>
<polygon fill="#63b8ff" stroke="#63b8ff" points="2872.16,-148.31 2882.22,-145 2872.29,-141.31 2872.16,-148.31"/>
</g>
<!-- Node83 -->
<g id="node31" class="node">
<title>Node83</title>
<g id="a_node31"><a xlink:href="d__a__obj__cboard_8h.html" target="_top" xlink:title=" ">
<polygon fill="white" stroke="#666666" points="1984.58,-96 1877.58,-96 1877.58,-55 1984.58,-55 1984.58,-96"/>
<text text-anchor="start" x="1885.58" y="-84" font-family="Helvetica,sans-Serif" font-size="10.00">include/rel/d/a/obj</text>
<text text-anchor="start" x="1885.58" y="-73" font-family="Helvetica,sans-Serif" font-size="10.00">/d_a_obj_cboard/d_a</text>
<text text-anchor="middle" x="1931.08" y="-62" font-family="Helvetica,sans-Serif" font-size="10.00">_obj_cboard.h</text>
</a>
</g>
</g>
<!-- Node6&#45;&gt;Node83 -->
<g id="edge35" class="edge">
<title>Node6&#45;&gt;Node83</title>
<path fill="none" stroke="#63b8ff" d="M2872.64,-144.62C2686.61,-140.41 2163.2,-126.17 1994.08,-96 1991.04,-95.46 1987.94,-94.81 1984.82,-94.09"/>
<polygon fill="#63b8ff" stroke="#63b8ff" points="2872.28,-148.11 2882.36,-144.84 2872.44,-141.11 2872.28,-148.11"/>
</g>
<!-- Node84 -->
<g id="node32" class="node">
<title>Node84</title>
<g id="a_node32"><a xlink:href="d__a__obj__enemy__create_8h.html" target="_top" xlink:title=" ">
<polygon fill="white" stroke="#666666" points="2129.58,-96 2002.58,-96 2002.58,-55 2129.58,-55 2129.58,-96"/>
<text text-anchor="start" x="2010.58" y="-84" font-family="Helvetica,sans-Serif" font-size="10.00">include/rel/d/a/obj</text>
<text text-anchor="start" x="2010.58" y="-73" font-family="Helvetica,sans-Serif" font-size="10.00">/d_a_obj_enemy_create</text>
<text text-anchor="middle" x="2066.08" y="-62" font-family="Helvetica,sans-Serif" font-size="10.00">/d_a_obj_enemy_create.h</text>
</a>
</g>
</g>
<!-- Node6&#45;&gt;Node84 -->
<g id="edge36" class="edge">
<title>Node6&#45;&gt;Node84</title>
<path fill="none" stroke="#63b8ff" d="M2872.7,-146.29C2734.99,-145.91 2408.6,-139.97 2139.08,-96 2136.1,-95.51 2133.07,-94.96 2130.02,-94.35"/>
<polygon fill="#63b8ff" stroke="#63b8ff" points="2872.34,-149.79 2882.35,-146.3 2872.35,-142.79 2872.34,-149.79"/>
</g>
<!-- Node85 -->
<g id="node33" class="node">
<title>Node85</title>
<g id="a_node33"><a xlink:href="d__a__obj__onsenFire_8h.html" target="_top" xlink:title=" ">
<polygon fill="white" stroke="#666666" points="2258.08,-96 2148.08,-96 2148.08,-55 2258.08,-55 2258.08,-96"/>
<text text-anchor="start" x="2156.08" y="-84" font-family="Helvetica,sans-Serif" font-size="10.00">include/rel/d/a/obj</text>
<text text-anchor="start" x="2156.08" y="-73" font-family="Helvetica,sans-Serif" font-size="10.00">/d_a_obj_onsenFire/d</text>
<text text-anchor="middle" x="2203.08" y="-62" font-family="Helvetica,sans-Serif" font-size="10.00">_a_obj_onsenFire.h</text>
</a>
</g>
</g>
<!-- Node6&#45;&gt;Node85 -->
<g id="edge37" class="edge">
<title>Node6&#45;&gt;Node85</title>
<path fill="none" stroke="#63b8ff" d="M2872.49,-145.8C2751.23,-144.39 2486.74,-136.45 2268.08,-96 2264.95,-95.42 2261.76,-94.75 2258.56,-94.01"/>
<polygon fill="#63b8ff" stroke="#63b8ff" points="2872.22,-149.3 2882.26,-145.9 2872.29,-142.3 2872.22,-149.3"/>
</g>
<!-- Node86 -->
<g id="node34" class="node">
<title>Node86</title>
<g id="a_node34"><a xlink:href="d__a__obj__web0_8h.html" target="_top" xlink:title=" ">
<polygon fill="white" stroke="#666666" points="2395.58,-96 2276.58,-96 2276.58,-55 2395.58,-55 2395.58,-96"/>
<text text-anchor="start" x="2284.58" y="-84" font-family="Helvetica,sans-Serif" font-size="10.00">include/rel/d/a/obj</text>
<text text-anchor="start" x="2284.58" y="-73" font-family="Helvetica,sans-Serif" font-size="10.00">/d_a_obj_web0/d_a_obj</text>
<text text-anchor="middle" x="2336.08" y="-62" font-family="Helvetica,sans-Serif" font-size="10.00">_web0.h</text>
</a>
</g>
</g>
<!-- Node6&#45;&gt;Node86 -->
<g id="edge38" class="edge">
<title>Node6&#45;&gt;Node86</title>
<path fill="none" stroke="#63b8ff" d="M2872.35,-143.65C2770.74,-139.2 2571.44,-127.03 2405.08,-96 2402.02,-95.43 2398.9,-94.78 2395.76,-94.08"/>
<polygon fill="#63b8ff" stroke="#63b8ff" points="2872.01,-147.14 2882.15,-144.07 2872.31,-140.15 2872.01,-147.14"/>
</g>
<!-- Node87 -->
<g id="node35" class="node">
<title>Node87</title>
<g id="a_node35"><a xlink:href="d__a__obj__web1_8h.html" target="_top" xlink:title=" ">
<polygon fill="white" stroke="#666666" points="2532.58,-96 2413.58,-96 2413.58,-55 2532.58,-55 2532.58,-96"/>
<text text-anchor="start" x="2421.58" y="-84" font-family="Helvetica,sans-Serif" font-size="10.00">include/rel/d/a/obj</text>
<text text-anchor="start" x="2421.58" y="-73" font-family="Helvetica,sans-Serif" font-size="10.00">/d_a_obj_web1/d_a_obj</text>
<text text-anchor="middle" x="2473.08" y="-62" font-family="Helvetica,sans-Serif" font-size="10.00">_web1.h</text>
</a>
</g>
</g>
<!-- Node6&#45;&gt;Node87 -->
<g id="edge39" class="edge">
<title>Node6&#45;&gt;Node87</title>
<path fill="none" stroke="#63b8ff" d="M2872.47,-140.69C2793.2,-133.66 2657.09,-119.36 2542.08,-96 2539.03,-95.38 2535.92,-94.7 2532.79,-93.97"/>
<polygon fill="#63b8ff" stroke="#63b8ff" points="2871.97,-144.16 2882.24,-141.54 2872.58,-137.19 2871.97,-144.16"/>
</g>
<!-- Node88 -->
<g id="node36" class="node">
<title>Node88</title>
<g id="a_node36"><a xlink:href="d__a__obj__yobikusa_8h.html" target="_top" xlink:title=" ">
<polygon fill="white" stroke="#666666" points="2655.58,-96 2550.58,-96 2550.58,-55 2655.58,-55 2655.58,-96"/>
<text text-anchor="start" x="2558.58" y="-84" font-family="Helvetica,sans-Serif" font-size="10.00">include/rel/d/a/obj</text>
<text text-anchor="start" x="2558.58" y="-73" font-family="Helvetica,sans-Serif" font-size="10.00">/d_a_obj_yobikusa/d</text>
<text text-anchor="middle" x="2603.08" y="-62" font-family="Helvetica,sans-Serif" font-size="10.00">_a_obj_yobikusa.h</text>
</a>
</g>
</g>
<!-- Node6&#45;&gt;Node88 -->
<g id="edge40" class="edge">
<title>Node6&#45;&gt;Node88</title>
<path fill="none" stroke="#63b8ff" d="M2872.66,-136.25C2816.86,-127.49 2735.23,-113.36 2665.08,-96 2662.12,-95.27 2659.1,-94.47 2656.06,-93.64"/>
<polygon fill="#63b8ff" stroke="#63b8ff" points="2871.9,-139.67 2882.31,-137.75 2872.97,-132.75 2871.9,-139.67"/>
</g>
<!-- Node89 -->
<g id="node37" class="node">
<title>Node89</title>
<g id="a_node37"><a xlink:href="d__a__tag__ajnot_8h.html" target="_top" xlink:title=" ">
<polygon fill="white" stroke="#666666" points="2792.08,-96 2674.08,-96 2674.08,-55 2792.08,-55 2792.08,-96"/>
<text text-anchor="start" x="2682.08" y="-84" font-family="Helvetica,sans-Serif" font-size="10.00">include/rel/d/a/tag</text>
<text text-anchor="start" x="2682.08" y="-73" font-family="Helvetica,sans-Serif" font-size="10.00">/d_a_tag_ajnot/d_a_tag</text>
<text text-anchor="middle" x="2733.08" y="-62" font-family="Helvetica,sans-Serif" font-size="10.00">_ajnot.h</text>
</a>
</g>
</g>
<!-- Node6&#45;&gt;Node89 -->
<g id="edge41" class="edge">
<title>Node6&#45;&gt;Node89</title>
<path fill="none" stroke="#63b8ff" d="M2885.51,-127.93C2856.82,-118.25 2821.43,-106.31 2791.98,-96.37"/>
<polygon fill="#63b8ff" stroke="#63b8ff" points="2884.12,-131.15 2894.71,-131.03 2886.36,-124.52 2884.12,-131.15"/>
</g>
<!-- Node90 -->
<g id="node38" class="node">
<title>Node90</title>
<g id="a_node38"><a xlink:href="d__a__tag__assistance_8h.html" target="_top" xlink:title=" ">
<polygon fill="white" stroke="#666666" points="2924.08,-96 2810.08,-96 2810.08,-55 2924.08,-55 2924.08,-96"/>
<text text-anchor="start" x="2818.08" y="-84" font-family="Helvetica,sans-Serif" font-size="10.00">include/rel/d/a/tag</text>
<text text-anchor="start" x="2818.08" y="-73" font-family="Helvetica,sans-Serif" font-size="10.00">/d_a_tag_assistance</text>
<text text-anchor="middle" x="2867.08" y="-62" font-family="Helvetica,sans-Serif" font-size="10.00">/d_a_tag_assistance.h</text>
</a>
</g>
</g>
<!-- Node6&#45;&gt;Node90 -->
<g id="edge42" class="edge">
<title>Node6&#45;&gt;Node90</title>
<path fill="none" stroke="#63b8ff" d="M2915.94,-123.66C2906.86,-114.9 2896.53,-104.93 2887.71,-96.42"/>
<polygon fill="#63b8ff" stroke="#63b8ff" points="2913.45,-126.12 2923.07,-130.55 2918.31,-121.09 2913.45,-126.12"/>
</g>
<!-- Node91 -->
<g id="node39" class="node">
<title>Node91</title>
<g id="a_node39"><a xlink:href="d__a__tag__gra_8h.html" target="_top" xlink:title=" ">
<polygon fill="white" stroke="#666666" points="3079.58,-90.5 2942.58,-90.5 2942.58,-60.5 3079.58,-60.5 3079.58,-90.5"/>
<text text-anchor="start" x="2950.58" y="-78.5" font-family="Helvetica,sans-Serif" font-size="10.00">include/rel/d/a/tag</text>
<text text-anchor="middle" x="3011.08" y="-67.5" font-family="Helvetica,sans-Serif" font-size="10.00">/d_a_tag_gra/d_a_tag_gra.h</text>
</a>
</g>
</g>
<!-- Node6&#45;&gt;Node91 -->
<g id="edge43" class="edge">
<title>Node6&#45;&gt;Node91</title>
<path fill="none" stroke="#63b8ff" d="M2962.08,-123.8C2973.25,-113.02 2986.34,-100.38 2996.18,-90.88"/>
<polygon fill="#63b8ff" stroke="#63b8ff" points="2959.85,-121.09 2955.09,-130.55 2964.72,-126.12 2959.85,-121.09"/>
</g>
<!-- Node92 -->
<g id="node40" class="node">
<title>Node92</title>
<g id="a_node40"><a xlink:href="d__a__tag__howl_8h.html" target="_top" xlink:title=" ">
<polygon fill="white" stroke="#666666" points="3214.58,-96 3097.58,-96 3097.58,-55 3214.58,-55 3214.58,-96"/>
<text text-anchor="start" x="3105.58" y="-84" font-family="Helvetica,sans-Serif" font-size="10.00">include/rel/d/a/tag</text>
<text text-anchor="start" x="3105.58" y="-73" font-family="Helvetica,sans-Serif" font-size="10.00">/d_a_tag_howl/d_a_tag</text>
<text text-anchor="middle" x="3156.08" y="-62" font-family="Helvetica,sans-Serif" font-size="10.00">_howl.h</text>
</a>
</g>
</g>
<!-- Node6&#45;&gt;Node92 -->
<g id="edge44" class="edge">
<title>Node6&#45;&gt;Node92</title>
<path fill="none" stroke="#63b8ff" d="M2995.05,-128.07C3026.42,-118.03 3065.5,-105.51 3097.3,-95.33"/>
<polygon fill="#63b8ff" stroke="#63b8ff" points="2994.21,-124.67 2985.75,-131.05 2996.34,-131.34 2994.21,-124.67"/>
</g>
<!-- Node93 -->
<g id="node41" class="node">
<title>Node93</title>
<g id="a_node41"><a xlink:href="d__a__tag__lv6CstaSw_8h.html" target="_top" xlink:title=" ">
<polygon fill="white" stroke="#666666" points="3347.58,-96 3232.58,-96 3232.58,-55 3347.58,-55 3347.58,-96"/>
<text text-anchor="start" x="3240.58" y="-84" font-family="Helvetica,sans-Serif" font-size="10.00">include/rel/d/a/tag</text>
<text text-anchor="start" x="3240.58" y="-73" font-family="Helvetica,sans-Serif" font-size="10.00">/d_a_tag_lv6CstaSw/d</text>
<text text-anchor="middle" x="3290.08" y="-62" font-family="Helvetica,sans-Serif" font-size="10.00">_a_tag_lv6CstaSw.h</text>
</a>
</g>
</g>
<!-- Node6&#45;&gt;Node93 -->
<g id="edge45" class="edge">
<title>Node6&#45;&gt;Node93</title>
<path fill="none" stroke="#63b8ff" d="M3005.58,-136.52C3063.62,-127.73 3149.92,-113.4 3224.08,-96 3226.76,-95.37 3229.49,-94.7 3232.23,-94"/>
<polygon fill="#63b8ff" stroke="#63b8ff" points="3005.23,-133.04 2995.86,-137.98 3006.27,-139.96 3005.23,-133.04"/>
</g>
<!-- Node94 -->
<g id="node42" class="node">
<title>Node94</title>
<g id="a_node42"><a xlink:href="d__a__tag__ret__room_8h.html" target="_top" xlink:title=" ">
<polygon fill="white" stroke="#666666" points="3472.08,-96 3366.08,-96 3366.08,-55 3472.08,-55 3472.08,-96"/>
<text text-anchor="start" x="3374.08" y="-84" font-family="Helvetica,sans-Serif" font-size="10.00">include/rel/d/a/tag</text>
<text text-anchor="start" x="3374.08" y="-73" font-family="Helvetica,sans-Serif" font-size="10.00">/d_a_tag_ret_room/d</text>
<text text-anchor="middle" x="3419.08" y="-62" font-family="Helvetica,sans-Serif" font-size="10.00">_a_tag_ret_room.h</text>
</a>
</g>
</g>
<!-- Node6&#45;&gt;Node94 -->
<g id="edge46" class="edge">
<title>Node6&#45;&gt;Node94</title>
<path fill="none" stroke="#63b8ff" d="M3005.68,-141.86C3088.7,-135.83 3234.59,-122.35 3357.08,-96 3359.95,-95.38 3362.88,-94.69 3365.82,-93.94"/>
<polygon fill="#63b8ff" stroke="#63b8ff" points="3005.63,-138.36 2995.9,-142.56 3006.13,-145.34 3005.63,-138.36"/>
</g>
<!-- Node95 -->
<g id="node43" class="node">
<title>Node95</title>
<g id="a_node43"><a xlink:href="d__a__tag__stream_8h.html" target="_top" xlink:title=" ">
<polygon fill="white" stroke="#666666" points="3598.08,-96 3490.08,-96 3490.08,-55 3598.08,-55 3598.08,-96"/>
<text text-anchor="start" x="3498.08" y="-84" font-family="Helvetica,sans-Serif" font-size="10.00">include/rel/d/a/tag</text>
<text text-anchor="start" x="3498.08" y="-73" font-family="Helvetica,sans-Serif" font-size="10.00">/d_a_tag_stream/d_a</text>
<text text-anchor="middle" x="3544.08" y="-62" font-family="Helvetica,sans-Serif" font-size="10.00">_tag_stream.h</text>
</a>
</g>
</g>
<!-- Node6&#45;&gt;Node95 -->
<g id="edge47" class="edge">
<title>Node6&#45;&gt;Node95</title>
<path fill="none" stroke="#63b8ff" d="M3005.69,-144.31C3108.57,-140.7 3311.96,-129.59 3481.08,-96 3483.89,-95.44 3486.75,-94.81 3489.63,-94.12"/>
<polygon fill="#63b8ff" stroke="#63b8ff" points="3005.63,-140.81 2995.76,-144.64 3005.87,-147.8 3005.63,-140.81"/>
</g>
<!-- Node96 -->
<g id="node44" class="node">
<title>Node96</title>
<g id="a_node44"><a xlink:href="d__a__tag__telop_8h.html" target="_top" xlink:title=" ">
<polygon fill="white" stroke="#666666" points="3734.08,-96 3616.08,-96 3616.08,-55 3734.08,-55 3734.08,-96"/>
<text text-anchor="start" x="3624.08" y="-84" font-family="Helvetica,sans-Serif" font-size="10.00">include/rel/d/a/tag</text>
<text text-anchor="start" x="3624.08" y="-73" font-family="Helvetica,sans-Serif" font-size="10.00">/d_a_tag_telop/d_a_tag</text>
<text text-anchor="middle" x="3675.08" y="-62" font-family="Helvetica,sans-Serif" font-size="10.00">_telop.h</text>
</a>
</g>
</g>
<!-- Node6&#45;&gt;Node96 -->
<g id="edge48" class="edge">
<title>Node6&#45;&gt;Node96</title>
<path fill="none" stroke="#63b8ff" d="M3005.79,-145.5C3126.64,-143.61 3389.44,-134.93 3607.08,-96 3609.98,-95.48 3612.94,-94.89 3615.91,-94.24"/>
<polygon fill="#63b8ff" stroke="#63b8ff" points="3006.01,-142 2996.06,-145.65 3006.11,-149 3006.01,-142"/>
</g>
<!-- Node97 -->
<g id="node45" class="node">
<title>Node97</title>
<g id="a_node45"><a xlink:href="d__a__tag__theB__hint_8h.html" target="_top" xlink:title=" ">
<polygon fill="white" stroke="#666666" points="3861.58,-96 3752.58,-96 3752.58,-55 3861.58,-55 3861.58,-96"/>
<text text-anchor="start" x="3760.58" y="-84" font-family="Helvetica,sans-Serif" font-size="10.00">include/rel/d/a/tag</text>
<text text-anchor="start" x="3760.58" y="-73" font-family="Helvetica,sans-Serif" font-size="10.00">/d_a_tag_theB_hint/d</text>
<text text-anchor="middle" x="3807.08" y="-62" font-family="Helvetica,sans-Serif" font-size="10.00">_a_tag_theB_hint.h</text>
</a>
</g>
</g>
<!-- Node6&#45;&gt;Node97 -->
<g id="edge49" class="edge">
<title>Node6&#45;&gt;Node97</title>
<path fill="none" stroke="#63b8ff" d="M3005.5,-143.87C3171.66,-138.21 3602.08,-121.5 3743.08,-96 3746.05,-95.46 3749.08,-94.83 3752.13,-94.14"/>
<polygon fill="#63b8ff" stroke="#63b8ff" points="3005.86,-140.35 2995.99,-144.19 3006.1,-147.35 3005.86,-140.35"/>
</g>
<!-- Node98 -->
<g id="node46" class="node">
<title>Node98</title>
<g id="a_node46"><a xlink:href="d__a__tag__watchge_8h.html" target="_top" xlink:title=" ">
<polygon fill="white" stroke="#666666" points="3994.58,-96 3879.58,-96 3879.58,-55 3994.58,-55 3994.58,-96"/>
<text text-anchor="start" x="3887.58" y="-84" font-family="Helvetica,sans-Serif" font-size="10.00">include/rel/d/a/tag</text>
<text text-anchor="start" x="3887.58" y="-73" font-family="Helvetica,sans-Serif" font-size="10.00">/d_a_tag_watchge/d_a</text>
<text text-anchor="middle" x="3937.08" y="-62" font-family="Helvetica,sans-Serif" font-size="10.00">_tag_watchge.h</text>
</a>
</g>
</g>
<!-- Node6&#45;&gt;Node98 -->
<g id="edge50" class="edge">
<title>Node6&#45;&gt;Node98</title>
<path fill="none" stroke="#63b8ff" d="M3005.84,-144.44C3190.34,-139.82 3704.49,-124.67 3871.08,-96 3873.79,-95.53 3876.54,-94.99 3879.32,-94.4"/>
<polygon fill="#63b8ff" stroke="#63b8ff" points="3005.86,-140.94 2995.95,-144.69 3006.03,-147.94 3005.86,-140.94"/>
</g>
<!-- Node99 -->
<g id="node47" class="node">
<title>Node99</title>
<g id="a_node47"><a xlink:href="Z2LinkMgr_8cpp.html" target="_top" xlink:title=" ">
<polygon fill="white" stroke="#666666" points="4165.08,-85 4013.08,-85 4013.08,-66 4165.08,-66 4165.08,-85"/>
<text text-anchor="middle" x="4089.08" y="-73" font-family="Helvetica,sans-Serif" font-size="10.00">libs/Z2AudioLib/Z2LinkMgr.cpp</text>
</a>
</g>
</g>
<!-- Node6&#45;&gt;Node99 -->
<g id="edge51" class="edge">
<title>Node6&#45;&gt;Node99</title>
<path fill="none" stroke="#63b8ff" d="M3005.75,-144.43C3207.54,-139.43 3809.8,-122.63 4004.08,-96 4021.48,-93.62 4040.57,-89.39 4056.23,-85.48"/>
<polygon fill="#63b8ff" stroke="#63b8ff" points="3005.88,-140.93 2995.97,-144.67 3006.05,-147.92 3005.88,-140.93"/>
</g>
<!-- Node100 -->
<g id="node48" class="node">
<title>Node100</title>
<g id="a_node48"><a xlink:href="Z2StatusMgr_8cpp.html" target="_top" xlink:title=" ">
<polygon fill="white" stroke="#666666" points="4310.58,-90.5 4183.58,-90.5 4183.58,-60.5 4310.58,-60.5 4310.58,-90.5"/>
<text text-anchor="start" x="4191.58" y="-78.5" font-family="Helvetica,sans-Serif" font-size="10.00">libs/Z2AudioLib/Z2Status</text>
<text text-anchor="middle" x="4247.08" y="-67.5" font-family="Helvetica,sans-Serif" font-size="10.00">Mgr.cpp</text>
</a>
</g>
</g>
<!-- Node6&#45;&gt;Node100 -->
<g id="edge52" class="edge">
<title>Node6&#45;&gt;Node100</title>
<path fill="none" stroke="#63b8ff" d="M3005.95,-145.24C3228.94,-142.38 3945.86,-130.67 4174.08,-96 4182.25,-94.76 4190.82,-92.95 4199.1,-90.92"/>
<polygon fill="#63b8ff" stroke="#63b8ff" points="3005.93,-141.73 2995.98,-145.36 3006.02,-148.73 3005.93,-141.73"/>
</g>
<!-- Node19&#45;&gt;Node23 -->
<g id="edge9" class="edge">
<title>Node19&#45;&gt;Node23</title>
<path fill="none" stroke="#63b8ff" d="M5518.81,-61.74C5510.84,-59.07 5502.25,-56.59 5494.08,-55 5346.25,-26.28 4884.38,-14.67 4726.56,-11.48"/>
<polygon fill="#63b8ff" stroke="#63b8ff" points="5517.52,-65 5528.12,-65.05 5519.87,-58.4 5517.52,-65"/>
</g>
<!-- Node27&#45;&gt;Node23 -->
<g id="edge12" class="edge">
<title>Node27&#45;&gt;Node23</title>
<path fill="none" stroke="#63b8ff" d="M4574.78,-60.43C4599.46,-47.9 4634.81,-29.94 4655.71,-19.32"/>
<polygon fill="#63b8ff" stroke="#63b8ff" points="4573.28,-57.27 4565.95,-64.92 4576.45,-63.51 4573.28,-57.27"/>
</g>
<!-- Node44&#45;&gt;Node7 -->
<g id="edge18" class="edge">
<title>Node44&#45;&gt;Node7</title>
<path fill="none" stroke="#63b8ff" d="M4406.51,-50.78C4399.32,-39.81 4391.2,-27.44 4385.89,-19.34"/>
<polygon fill="#63b8ff" stroke="#63b8ff" points="4403.52,-52.59 4411.93,-59.03 4409.37,-48.75 4403.52,-52.59"/>
</g>
<!-- Node44&#45;&gt;Node23 -->
<g id="edge19" class="edge">
<title>Node44&#45;&gt;Node23</title>
<path fill="none" stroke="#63b8ff" d="M4480.18,-56.89C4482.51,-56.24 4484.82,-55.61 4487.08,-55 4536.94,-41.57 4594.85,-28.04 4632.64,-19.48"/>
<polygon fill="#63b8ff" stroke="#63b8ff" points="4479.32,-53.5 4470.67,-59.61 4481.24,-60.23 4479.32,-53.5"/>
</g>
<!-- Node60&#45;&gt;Node4 -->
<g id="edge21" class="edge">
<title>Node60&#45;&gt;Node4</title>
<path fill="none" stroke="#63b8ff" d="M301.24,-61.61C267.38,-49.08 216.86,-30.39 187.21,-19.43"/>
<polygon fill="#63b8ff" stroke="#63b8ff" points="300.01,-64.89 310.61,-65.08 302.44,-58.32 300.01,-64.89"/>
</g>
<!-- Node61&#45;&gt;Node23 -->
<g id="edge23" class="edge">
<title>Node61&#45;&gt;Node23</title>
<path fill="none" stroke="#63b8ff" d="M4673.08,-54.18C4673.08,-42.44 4673.08,-28.27 4673.08,-19.32"/>
<polygon fill="#63b8ff" stroke="#63b8ff" points="4669.58,-54.09 4673.08,-64.09 4676.58,-54.09 4669.58,-54.09"/>
</g>
</g>
</svg>
