<?xml version="1.0" encoding="UTF-8" standalone="no"?>
<!DOCTYPE svg PUBLIC "-//W3C//DTD SVG 1.1//EN"
 "http://www.w3.org/Graphics/SVG/1.1/DTD/svg11.dtd">
<!-- Generated by graphviz version 7.0.5 (20221223.1930)
 -->
<!-- Title: include/f_op/f_op_kankyo_mng.h Pages: 1 -->
<!--zoomable 522 -->
<svg id="main" version="1.1" xmlns="http://www.w3.org/2000/svg" xmlns:xlink="http://www.w3.org/1999/xlink" xml:space="preserve" onload="init(evt)">
<style type="text/css"><![CDATA[
.edge:hover path { stroke: red; }
.edge:hover polygon { stroke: red; fill: red; }
]]></style>
<script type="text/javascript"><![CDATA[
var edges = document.getElementsByTagName('g');
if (edges && edges.length) {
  for (var i=0;i<edges.length;i++) {
    if (edges[i].id.substr(0,4)=='edge') {
      edges[i].setAttribute('class','edge');
    }
  }
}
]]></script>
        <defs>
                <circle id="rim" cx="0" cy="0" r="7"/>
                <circle id="rim2" cx="0" cy="0" r="3.5"/>
                <g id="zoomPlus">
                        <use xlink:href="#rim" fill="#404040">
                                <set attributeName="fill" to="#808080" begin="zoomplus.mouseover" end="zoomplus.mouseout"/>
                        </use>
                        <path d="M-4,0h8M0,-4v8" fill="none" stroke="white" stroke-width="1.5" pointer-events="none"/>
                </g>
                <g id="zoomMin">
                        <use xlink:href="#rim" fill="#404040">
                                <set attributeName="fill" to="#808080" begin="zoomminus.mouseover" end="zoomminus.mouseout"/>
                        </use>
                        <path d="M-4,0h8" fill="none" stroke="white" stroke-width="1.5" pointer-events="none"/>
                </g>
                <g id="dirArrow">
                        <path fill="none" stroke="white" stroke-width="1.5" d="M0,-3.0v7 M-2.5,-0.5L0,-3.0L2.5,-0.5"/>
                </g>
               <g id="resetDef">
                       <use xlink:href="#rim2" fill="#404040">
                               <set attributeName="fill" to="#808080" begin="reset.mouseover" end="reset.mouseout"/>
                       </use>
               </g>
        </defs>

<script type="text/javascript">
var viewWidth = 1357;
var viewHeight = 522;
var sectionId = 'dynsection-0';
</script>
<script xlink:href="svgpan.js"/>
<svg id="graph" class="graph">
<g id="viewport">
<title>include/f_op/f_op_kankyo_mng.h</title>
<!-- Node1 -->
<g id="node1" class="node">
<title>Node1</title>
<g id="a_node1"><a xlink:title=" ">
<polygon fill="#999999" stroke="#666666" points="424.5,-514 297.5,-514 297.5,-484 424.5,-484 424.5,-514"/>
<text text-anchor="start" x="305.5" y="-502" font-family="Helvetica,sans-Serif" font-size="10.00">include/f_op/f_op_kankyo</text>
<text text-anchor="middle" x="361" y="-491" font-family="Helvetica,sans-Serif" font-size="10.00">_mng.h</text>
</a>
</g>
</g>
<!-- Node2 -->
<g id="node2" class="node">
<title>Node2</title>
<g id="a_node2"><a xlink:href="c__xyz_8h.html" target="_top" xlink:title=" ">
<polygon fill="white" stroke="#666666" points="136,-393 20,-393 20,-363 136,-363 136,-393"/>
<text text-anchor="start" x="28" y="-381" font-family="Helvetica,sans-Serif" font-size="10.00">SSystem/SComponent</text>
<text text-anchor="middle" x="78" y="-370" font-family="Helvetica,sans-Serif" font-size="10.00">/c_xyz.h</text>
</a>
</g>
</g>
<!-- Node1&#45;&gt;Node2 -->
<g id="edge1" class="edge">
<title>Node1&#45;&gt;Node2</title>
<path fill="none" stroke="#63b8ff" d="M326.58,-483.53C275.38,-462 179.13,-421.52 122.59,-397.75"/>
<polygon fill="#63b8ff" stroke="#63b8ff" points="124.15,-394.61 113.57,-393.96 121.44,-401.06 124.15,-394.61"/>
</g>
<!-- Node9 -->
<g id="node9" class="node">
<title>Node9</title>
<g id="a_node9"><a xlink:href="f__op__kankyo_8h.html" target="_top" xlink:title=" ">
<polygon fill="white" stroke="#666666" points="411.5,-448 310.5,-448 310.5,-429 411.5,-429 411.5,-448"/>
<text text-anchor="middle" x="361" y="-436" font-family="Helvetica,sans-Serif" font-size="10.00">f_op/f_op_kankyo.h</text>
</a>
</g>
</g>
<!-- Node1&#45;&gt;Node9 -->
<g id="edge8" class="edge">
<title>Node1&#45;&gt;Node9</title>
<path fill="none" stroke="#63b8ff" d="M361,-483.54C361,-476.34 361,-467.53 361,-459.68"/>
<polygon fill="#63b8ff" stroke="#63b8ff" points="364.5,-459.69 361,-449.69 357.5,-459.69 364.5,-459.69"/>
</g>
<!-- Node23 -->
<g id="node23" class="node">
<title>Node23</title>
<g id="a_node23"><a xlink:href="f__pc__manager_8h.html" target="_top" xlink:title=" ">
<polygon fill="white" stroke="#666666" points="579.5,-448 472.5,-448 472.5,-429 579.5,-429 579.5,-448"/>
<text text-anchor="middle" x="526" y="-436" font-family="Helvetica,sans-Serif" font-size="10.00">f_pc/f_pc_manager.h</text>
</a>
</g>
</g>
<!-- Node1&#45;&gt;Node23 -->
<g id="edge30" class="edge">
<title>Node1&#45;&gt;Node23</title>
<path fill="none" stroke="#63b8ff" d="M401.79,-483.54C429.01,-473.89 464.45,-461.32 490.51,-452.08"/>
<polygon fill="#63b8ff" stroke="#63b8ff" points="491.37,-455.49 499.62,-448.85 489.03,-448.89 491.37,-455.49"/>
</g>
<!-- Node3 -->
<g id="node3" class="node">
<title>Node3</title>
<g id="a_node3"><a xlink:href="math_8h.html" target="_top" xlink:title=" ">
<polygon fill="white" stroke="#666666" points="49,-327 3,-327 3,-308 49,-308 49,-327"/>
<text text-anchor="middle" x="26" y="-315" font-family="Helvetica,sans-Serif" font-size="10.00">math.h</text>
</a>
</g>
</g>
<!-- Node2&#45;&gt;Node3 -->
<g id="edge2" class="edge">
<title>Node2&#45;&gt;Node3</title>
<path fill="none" stroke="#63b8ff" d="M65.15,-362.54C57.9,-354.39 48.81,-344.16 41.21,-335.61"/>
<polygon fill="#63b8ff" stroke="#63b8ff" points="43.98,-333.46 34.72,-328.31 38.74,-338.11 43.98,-333.46"/>
</g>
<!-- Node6 -->
<g id="node6" class="node">
<title>Node6</title>
<g id="a_node6"><a xlink:href="vec_8h.html" target="_top" xlink:title=" ">
<polygon fill="white" stroke="#666666" points="124,-145.5 32,-145.5 32,-126.5 124,-126.5 124,-145.5"/>
<text text-anchor="middle" x="78" y="-133.5" font-family="Helvetica,sans-Serif" font-size="10.00">dolphin/mtx/vec.h</text>
</a>
</g>
</g>
<!-- Node2&#45;&gt;Node6 -->
<g id="edge5" class="edge">
<title>Node2&#45;&gt;Node6</title>
<path fill="none" stroke="#63b8ff" d="M78,-362.71C78,-321.75 78,-203.91 78,-156.8"/>
<polygon fill="#63b8ff" stroke="#63b8ff" points="81.5,-157.03 78,-147.03 74.5,-157.03 81.5,-157.03"/>
</g>
<!-- Node4 -->
<g id="node4" class="node">
<title>Node4</title>
<g id="a_node4"><a xlink:href="float_8h.html" target="_top" xlink:title=" ">
<polygon fill="white" stroke="#666666" points="46,-272 4,-272 4,-253 46,-253 46,-272"/>
<text text-anchor="middle" x="25" y="-260" font-family="Helvetica,sans-Serif" font-size="10.00">float.h</text>
</a>
</g>
</g>
<!-- Node3&#45;&gt;Node4 -->
<g id="edge3" class="edge">
<title>Node3&#45;&gt;Node4</title>
<path fill="none" stroke="#63b8ff" d="M25.83,-307.75C25.71,-301.27 25.54,-292.16 25.38,-283.9"/>
<polygon fill="#63b8ff" stroke="#63b8ff" points="28.89,-283.89 25.2,-273.96 21.89,-284.02 28.89,-283.89"/>
</g>
<!-- Node5 -->
<g id="node5" class="node">
<title>Node5</title>
<g id="a_node5"><a xlink:href="fdlibm_8h.html" target="_top" xlink:title=" ">
<polygon fill="white" stroke="#666666" points="50,-211.5 0,-211.5 0,-192.5 50,-192.5 50,-211.5"/>
<text text-anchor="middle" x="25" y="-199.5" font-family="Helvetica,sans-Serif" font-size="10.00">fdlibm.h</text>
</a>
</g>
</g>
<!-- Node4&#45;&gt;Node5 -->
<g id="edge4" class="edge">
<title>Node4&#45;&gt;Node5</title>
<path fill="none" stroke="#63b8ff" d="M25,-252.87C25,-245 25,-233.1 25,-222.89"/>
<polygon fill="#63b8ff" stroke="#63b8ff" points="28.5,-223.18 25,-213.18 21.5,-223.18 28.5,-223.18"/>
</g>
<!-- Node7 -->
<g id="node7" class="node">
<title>Node7</title>
<g id="a_node7"><a xlink:href="types_8h.html" target="_top" xlink:title=" ">
<polygon fill="white" stroke="#666666" points="443.5,-79.5 362.5,-79.5 362.5,-60.5 443.5,-60.5 443.5,-79.5"/>
<text text-anchor="middle" x="403" y="-67.5" font-family="Helvetica,sans-Serif" font-size="10.00">dolphin/types.h</text>
</a>
</g>
</g>
<!-- Node6&#45;&gt;Node7 -->
<g id="edge6" class="edge">
<title>Node6&#45;&gt;Node7</title>
<path fill="none" stroke="#63b8ff" d="M111.66,-126.06C118.69,-124.29 126.07,-122.52 133,-121 208.42,-104.44 296.49,-88.82 351.01,-79.58"/>
<polygon fill="#63b8ff" stroke="#63b8ff" points="351.35,-83.07 360.63,-77.96 350.19,-76.17 351.35,-83.07"/>
</g>
<!-- Node8 -->
<g id="node8" class="node">
<title>Node8</title>
<g id="a_node8"><a xlink:href="stddef_8h.html" target="_top" xlink:title=" ">
<polygon fill="white" stroke="#666666" points="428.5,-19 377.5,-19 377.5,0 428.5,0 428.5,-19"/>
<text text-anchor="middle" x="403" y="-7" font-family="Helvetica,sans-Serif" font-size="10.00">stddef.h</text>
</a>
</g>
</g>
<!-- Node7&#45;&gt;Node8 -->
<g id="edge7" class="edge">
<title>Node7&#45;&gt;Node8</title>
<path fill="none" stroke="#63b8ff" d="M403,-60.37C403,-52.5 403,-40.6 403,-30.39"/>
<polygon fill="#63b8ff" stroke="#63b8ff" points="406.5,-30.68 403,-20.68 399.5,-30.68 406.5,-30.68"/>
</g>
<!-- Node9&#45;&gt;Node2 -->
<g id="edge9" class="edge">
<title>Node9&#45;&gt;Node2</title>
<path fill="none" stroke="#63b8ff" d="M317.71,-428.55C272.39,-419.18 200.55,-404.33 147.32,-393.33"/>
<polygon fill="#63b8ff" stroke="#63b8ff" points="148.25,-389.95 137.75,-391.35 146.83,-396.8 148.25,-389.95"/>
</g>
<!-- Node10 -->
<g id="node10" class="node">
<title>Node10</title>
<g id="a_node10"><a xlink:href="f__pc__leaf_8h.html" target="_top" xlink:title=" ">
<polygon fill="white" stroke="#666666" points="493,-387.5 407,-387.5 407,-368.5 493,-368.5 493,-387.5"/>
<text text-anchor="middle" x="450" y="-375.5" font-family="Helvetica,sans-Serif" font-size="10.00">f_pc/f_pc_leaf.h</text>
</a>
</g>
</g>
<!-- Node9&#45;&gt;Node10 -->
<g id="edge10" class="edge">
<title>Node9&#45;&gt;Node10</title>
<path fill="none" stroke="#63b8ff" d="M374.52,-428.62C388.37,-419.51 410.18,-405.18 426.8,-394.25"/>
<polygon fill="#63b8ff" stroke="#63b8ff" points="428.66,-397.22 435.09,-388.8 424.81,-391.37 428.66,-397.22"/>
</g>
<!-- Node11 -->
<g id="node11" class="node">
<title>Node11</title>
<g id="a_node11"><a xlink:href="f__pc__base_8h.html" target="_top" xlink:title=" ">
<polygon fill="white" stroke="#666666" points="962.5,-327 871.5,-327 871.5,-308 962.5,-308 962.5,-327"/>
<text text-anchor="middle" x="917" y="-315" font-family="Helvetica,sans-Serif" font-size="10.00">f_pc/f_pc_base.h</text>
</a>
</g>
</g>
<!-- Node10&#45;&gt;Node11 -->
<g id="edge11" class="edge">
<title>Node10&#45;&gt;Node11</title>
<path fill="none" stroke="#63b8ff" d="M493.43,-370.51C510.16,-368.07 529.46,-365.32 547,-363 657.66,-348.36 787.2,-333.24 859.93,-324.94"/>
<polygon fill="#63b8ff" stroke="#63b8ff" points="860.06,-328.45 869.59,-323.84 859.26,-321.49 860.06,-328.45"/>
</g>
<!-- Node19 -->
<g id="node19" class="node">
<title>Node19</title>
<g id="a_node19"><a xlink:href="f__pc__draw__priority_8h.html" target="_top" xlink:title=" ">
<polygon fill="white" stroke="#666666" points="421.5,-327 296.5,-327 296.5,-308 421.5,-308 421.5,-327"/>
<text text-anchor="middle" x="359" y="-315" font-family="Helvetica,sans-Serif" font-size="10.00">f_pc/f_pc_draw_priority.h</text>
</a>
</g>
</g>
<!-- Node10&#45;&gt;Node19 -->
<g id="edge23" class="edge">
<title>Node10&#45;&gt;Node19</title>
<path fill="none" stroke="#63b8ff" d="M436.18,-368.12C421.88,-358.92 399.3,-344.41 382.25,-333.44"/>
<polygon fill="#63b8ff" stroke="#63b8ff" points="384.53,-330.75 374.22,-328.29 380.74,-336.64 384.53,-330.75"/>
</g>
<!-- Node20 -->
<g id="node20" class="node">
<title>Node20</title>
<g id="a_node20"><a xlink:href="f__pc__method_8h.html" target="_top" xlink:title=" ">
<polygon fill="white" stroke="#666666" points="454,-211.5 352,-211.5 352,-192.5 454,-192.5 454,-211.5"/>
<text text-anchor="middle" x="403" y="-199.5" font-family="Helvetica,sans-Serif" font-size="10.00">f_pc/f_pc_method.h</text>
</a>
</g>
</g>
<!-- Node10&#45;&gt;Node20 -->
<g id="edge25" class="edge">
<title>Node10&#45;&gt;Node20</title>
<path fill="none" stroke="#63b8ff" d="M447.6,-368.13C440.34,-341.25 418.46,-260.23 408.29,-222.6"/>
<polygon fill="#63b8ff" stroke="#63b8ff" points="411.72,-221.85 405.73,-213.1 404.96,-223.67 411.72,-221.85"/>
</g>
<!-- Node21 -->
<g id="node21" class="node">
<title>Node21</title>
<g id="a_node21"><a xlink:href="f__pc__profile_8h.html" target="_top" xlink:title=" ">
<polygon fill="white" stroke="#666666" points="573.5,-327 478.5,-327 478.5,-308 573.5,-308 573.5,-327"/>
<text text-anchor="middle" x="526" y="-315" font-family="Helvetica,sans-Serif" font-size="10.00">f_pc/f_pc_profile.h</text>
</a>
</g>
</g>
<!-- Node10&#45;&gt;Node21 -->
<g id="edge27" class="edge">
<title>Node10&#45;&gt;Node21</title>
<path fill="none" stroke="#63b8ff" d="M461.54,-368.12C473.15,-359.18 491.29,-345.22 505.38,-334.37"/>
<polygon fill="#63b8ff" stroke="#63b8ff" points="507.36,-337.26 513.15,-328.39 503.09,-331.72 507.36,-337.26"/>
</g>
<!-- Node22 -->
<g id="node22" class="node">
<title>Node22</title>
<g id="a_node22"><a xlink:href="d__procname_8h.html" target="_top" xlink:title=" ">
<polygon fill="white" stroke="#666666" points="278,-327 192,-327 192,-308 278,-308 278,-327"/>
<text text-anchor="middle" x="235" y="-315" font-family="Helvetica,sans-Serif" font-size="10.00">d/d_procname.h</text>
</a>
</g>
</g>
<!-- Node10&#45;&gt;Node22 -->
<g id="edge29" class="edge">
<title>Node10&#45;&gt;Node22</title>
<path fill="none" stroke="#63b8ff" d="M417.35,-368.12C380.41,-358.06 320.07,-341.65 279,-330.47"/>
<polygon fill="#63b8ff" stroke="#63b8ff" points="279.99,-327.11 269.42,-327.87 278.15,-333.87 279.99,-327.11"/>
</g>
<!-- Node12 -->
<g id="node12" class="node">
<title>Node12</title>
<g id="a_node12"><a xlink:href="f__pc__delete__tag_8h.html" target="_top" xlink:title=" ">
<polygon fill="white" stroke="#666666" points="1221.5,-272 1106.5,-272 1106.5,-253 1221.5,-253 1221.5,-272"/>
<text text-anchor="middle" x="1164" y="-260" font-family="Helvetica,sans-Serif" font-size="10.00">f_pc/f_pc_delete_tag.h</text>
</a>
</g>
</g>
<!-- Node11&#45;&gt;Node12 -->
<g id="edge12" class="edge">
<title>Node11&#45;&gt;Node12</title>
<path fill="none" stroke="#63b8ff" d="M958.9,-307.51C1000.9,-298.5 1065.69,-284.6 1111.18,-274.83"/>
<polygon fill="#63b8ff" stroke="#63b8ff" points="1111.78,-278.28 1120.83,-272.76 1110.32,-271.44 1111.78,-278.28"/>
</g>
<!-- Node15 -->
<g id="node15" class="node">
<title>Node15</title>
<g id="a_node15"><a xlink:href="f__pc__layer__tag_8h.html" target="_top" xlink:title=" ">
<polygon fill="white" stroke="#666666" points="1348.5,-272 1239.5,-272 1239.5,-253 1348.5,-253 1348.5,-272"/>
<text text-anchor="middle" x="1294" y="-260" font-family="Helvetica,sans-Serif" font-size="10.00">f_pc/f_pc_layer_tag.h</text>
</a>
</g>
</g>
<!-- Node11&#45;&gt;Node15 -->
<g id="edge16" class="edge">
<title>Node11&#45;&gt;Node15</title>
<path fill="none" stroke="#63b8ff" d="M962.91,-309.35C965.98,-308.89 969.04,-308.43 972,-308 1019.97,-300.98 1148.57,-283.34 1227.98,-272.5"/>
<polygon fill="#63b8ff" stroke="#63b8ff" points="1228.39,-275.97 1237.82,-271.15 1227.44,-269.04 1228.39,-275.97"/>
</g>
<!-- Node16 -->
<g id="node16" class="node">
<title>Node16</title>
<g id="a_node16"><a xlink:href="f__pc__line__tag_8h.html" target="_top" xlink:title=" ">
<polygon fill="white" stroke="#666666" points="1088,-272 984,-272 984,-253 1088,-253 1088,-272"/>
<text text-anchor="middle" x="1036" y="-260" font-family="Helvetica,sans-Serif" font-size="10.00">f_pc/f_pc_line_tag.h</text>
</a>
</g>
</g>
<!-- Node11&#45;&gt;Node16 -->
<g id="edge18" class="edge">
<title>Node11&#45;&gt;Node16</title>
<path fill="none" stroke="#63b8ff" d="M937.19,-307.51C956.02,-299.12 984.37,-286.5 1005.87,-276.92"/>
<polygon fill="#63b8ff" stroke="#63b8ff" points="1007.02,-280.24 1014.73,-272.97 1004.17,-273.85 1007.02,-280.24"/>
</g>
<!-- Node17 -->
<g id="node17" class="node">
<title>Node17</title>
<g id="a_node17"><a xlink:href="f__pc__priority_8h.html" target="_top" xlink:title=" ">
<polygon fill="white" stroke="#666666" points="966,-272 868,-272 868,-253 966,-253 966,-272"/>
<text text-anchor="middle" x="917" y="-260" font-family="Helvetica,sans-Serif" font-size="10.00">f_pc/f_pc_priority.h</text>
</a>
</g>
</g>
<!-- Node11&#45;&gt;Node17 -->
<g id="edge20" class="edge">
<title>Node11&#45;&gt;Node17</title>
<path fill="none" stroke="#63b8ff" d="M917,-307.75C917,-301.27 917,-292.16 917,-283.9"/>
<polygon fill="#63b8ff" stroke="#63b8ff" points="920.5,-283.96 917,-273.96 913.5,-283.96 920.5,-283.96"/>
</g>
<!-- Node13 -->
<g id="node13" class="node">
<title>Node13</title>
<g id="a_node13"><a xlink:href="c__tag_8h.html" target="_top" xlink:title=" ">
<polygon fill="white" stroke="#666666" points="1057,-151 941,-151 941,-121 1057,-121 1057,-151"/>
<text text-anchor="start" x="949" y="-139" font-family="Helvetica,sans-Serif" font-size="10.00">SSystem/SComponent</text>
<text text-anchor="middle" x="999" y="-128" font-family="Helvetica,sans-Serif" font-size="10.00">/c_tag.h</text>
</a>
</g>
</g>
<!-- Node12&#45;&gt;Node13 -->
<g id="edge13" class="edge">
<title>Node12&#45;&gt;Node13</title>
<path fill="none" stroke="#63b8ff" d="M1152.13,-252.55C1126.22,-232.99 1063.97,-186.02 1027.31,-158.36"/>
<polygon fill="#63b8ff" stroke="#63b8ff" points="1029.44,-155.59 1019.35,-152.36 1025.23,-161.17 1029.44,-155.59"/>
</g>
<!-- Node13&#45;&gt;Node7 -->
<g id="edge15" class="edge">
<title>Node13&#45;&gt;Node7</title>
<path fill="none" stroke="#63b8ff" d="M940.6,-122.4C937.7,-121.9 934.82,-121.43 932,-121 758.19,-94.71 550.04,-79.86 454.97,-73.98"/>
<polygon fill="#63b8ff" stroke="#63b8ff" points="455.38,-70.5 445.18,-73.38 454.95,-77.48 455.38,-70.5"/>
</g>
<!-- Node14 -->
<g id="node14" class="node">
<title>Node14</title>
<g id="a_node14"><a xlink:href="c__node_8h.html" target="_top" xlink:title=" ">
<polygon fill="white" stroke="#666666" points="883,-85 767,-85 767,-55 883,-55 883,-85"/>
<text text-anchor="start" x="775" y="-73" font-family="Helvetica,sans-Serif" font-size="10.00">SSystem/SComponent</text>
<text text-anchor="middle" x="825" y="-62" font-family="Helvetica,sans-Serif" font-size="10.00">/c_node.h</text>
</a>
</g>
</g>
<!-- Node13&#45;&gt;Node14 -->
<g id="edge14" class="edge">
<title>Node13&#45;&gt;Node14</title>
<path fill="none" stroke="#63b8ff" d="M959.95,-120.64C934.85,-111.41 902.01,-99.33 875.01,-89.39"/>
<polygon fill="#63b8ff" stroke="#63b8ff" points="876.23,-86.12 865.64,-85.95 873.82,-92.68 876.23,-86.12"/>
</g>
<!-- Node15&#45;&gt;Node13 -->
<g id="edge17" class="edge">
<title>Node15&#45;&gt;Node13</title>
<path fill="none" stroke="#63b8ff" d="M1272.78,-252.55C1224.98,-232.37 1107.99,-183 1043.49,-155.78"/>
<polygon fill="#63b8ff" stroke="#63b8ff" points="1045.2,-152.7 1034.62,-152.03 1042.47,-159.15 1045.2,-152.7"/>
</g>
<!-- Node16&#45;&gt;Node13 -->
<g id="edge19" class="edge">
<title>Node16&#45;&gt;Node13</title>
<path fill="none" stroke="#63b8ff" d="M1034.05,-252.71C1030.87,-238.69 1024.2,-210.48 1017,-187 1014.49,-178.82 1011.44,-170.01 1008.57,-162.09"/>
<polygon fill="#63b8ff" stroke="#63b8ff" points="1011.85,-160.9 1005.09,-152.74 1005.29,-163.33 1011.85,-160.9"/>
</g>
<!-- Node18 -->
<g id="node18" class="node">
<title>Node18</title>
<g id="a_node18"><a xlink:href="f__pc__method__tag_8h.html" target="_top" xlink:title=" ">
<polygon fill="white" stroke="#666666" points="1007.5,-211.5 886.5,-211.5 886.5,-192.5 1007.5,-192.5 1007.5,-211.5"/>
<text text-anchor="middle" x="947" y="-199.5" font-family="Helvetica,sans-Serif" font-size="10.00">f_pc/f_pc_method_tag.h</text>
</a>
</g>
</g>
<!-- Node17&#45;&gt;Node18 -->
<g id="edge21" class="edge">
<title>Node17&#45;&gt;Node18</title>
<path fill="none" stroke="#63b8ff" d="M921.43,-252.87C925.59,-244.75 931.97,-232.31 937.32,-221.89"/>
<polygon fill="#63b8ff" stroke="#63b8ff" points="940.42,-223.51 941.86,-213.01 934.19,-220.32 940.42,-223.51"/>
</g>
<!-- Node18&#45;&gt;Node13 -->
<g id="edge22" class="edge">
<title>Node18&#45;&gt;Node13</title>
<path fill="none" stroke="#63b8ff" d="M954.23,-192.1C960.95,-183.84 971.24,-171.17 980.26,-160.06"/>
<polygon fill="#63b8ff" stroke="#63b8ff" points="982.89,-162.38 986.48,-152.41 977.46,-157.96 982.89,-162.38"/>
</g>
<!-- Node19&#45;&gt;Node7 -->
<g id="edge24" class="edge">
<title>Node19&#45;&gt;Node7</title>
<path fill="none" stroke="#63b8ff" d="M343.87,-307.73C332.19,-299.99 316.88,-287.55 310,-272 282.83,-210.63 275.57,-178.6 310,-121 320.54,-103.37 339.66,-91.6 357.83,-83.93"/>
<polygon fill="#63b8ff" stroke="#63b8ff" points="358.87,-87.28 366.94,-80.42 356.35,-80.75 358.87,-87.28"/>
</g>
<!-- Node20&#45;&gt;Node7 -->
<g id="edge26" class="edge">
<title>Node20&#45;&gt;Node7</title>
<path fill="none" stroke="#63b8ff" d="M403,-192.06C403,-171.47 403,-120.23 403,-91.45"/>
<polygon fill="#63b8ff" stroke="#63b8ff" points="406.5,-91.51 403,-81.51 399.5,-91.51 406.5,-91.51"/>
</g>
<!-- Node21&#45;&gt;Node7 -->
<g id="edge28" class="edge">
<title>Node21&#45;&gt;Node7</title>
<path fill="none" stroke="#63b8ff" d="M486.22,-307.61C442.34,-295.44 373.86,-268.91 343,-217 316.97,-173.21 360.37,-116.04 386.1,-88"/>
<polygon fill="#63b8ff" stroke="#63b8ff" points="388.33,-90.74 392.68,-81.08 383.26,-85.92 388.33,-90.74"/>
</g>
<!-- Node23&#45;&gt;Node10 -->
<g id="edge37" class="edge">
<title>Node23&#45;&gt;Node10</title>
<path fill="none" stroke="#63b8ff" d="M514.46,-428.62C502.85,-419.68 484.71,-405.72 470.62,-394.87"/>
<polygon fill="#63b8ff" stroke="#63b8ff" points="472.91,-392.22 462.85,-388.89 468.64,-397.76 472.91,-392.22"/>
</g>
<!-- Node24 -->
<g id="node24" class="node">
<title>Node24</title>
<g id="a_node24"><a xlink:href="f__pc__create__iter_8h.html" target="_top" xlink:title=" ">
<polygon fill="white" stroke="#666666" points="258,-145.5 142,-145.5 142,-126.5 258,-126.5 258,-145.5"/>
<text text-anchor="middle" x="200" y="-133.5" font-family="Helvetica,sans-Serif" font-size="10.00">f_pc/f_pc_create_iter.h</text>
</a>
</g>
</g>
<!-- Node23&#45;&gt;Node24 -->
<g id="edge31" class="edge">
<title>Node23&#45;&gt;Node24</title>
<path fill="none" stroke="#63b8ff" d="M472.2,-431.18C371.35,-417.83 164,-382.59 164,-318.5 164,-318.5 164,-318.5 164,-261.5 164,-222.83 180.23,-179.96 190.89,-155.97"/>
<polygon fill="#63b8ff" stroke="#63b8ff" points="193.94,-157.73 194.95,-147.18 187.58,-154.79 193.94,-157.73"/>
</g>
<!-- Node25 -->
<g id="node25" class="node">
<title>Node25</title>
<g id="a_node25"><a xlink:href="f__pc__executor_8h.html" target="_top" xlink:title=" ">
<polygon fill="white" stroke="#666666" points="893.5,-387.5 786.5,-387.5 786.5,-368.5 893.5,-368.5 893.5,-387.5"/>
<text text-anchor="middle" x="840" y="-375.5" font-family="Helvetica,sans-Serif" font-size="10.00">f_pc/f_pc_executor.h</text>
</a>
</g>
</g>
<!-- Node23&#45;&gt;Node25 -->
<g id="edge33" class="edge">
<title>Node23&#45;&gt;Node25</title>
<path fill="none" stroke="#63b8ff" d="M579.72,-428.77C630.84,-420.29 709.84,-406.71 778,-393 782.08,-392.18 786.3,-391.3 790.54,-390.39"/>
<polygon fill="#63b8ff" stroke="#63b8ff" points="791.2,-393.83 800.22,-388.27 789.7,-386.99 791.2,-393.83"/>
</g>
<!-- Node28 -->
<g id="node28" class="node">
<title>Node28</title>
<g id="a_node28"><a xlink:href="f__pc__node_8h.html" target="_top" xlink:title=" ">
<polygon fill="white" stroke="#666666" points="647.5,-387.5 556.5,-387.5 556.5,-368.5 647.5,-368.5 647.5,-387.5"/>
<text text-anchor="middle" x="602" y="-375.5" font-family="Helvetica,sans-Serif" font-size="10.00">f_pc/f_pc_node.h</text>
</a>
</g>
</g>
<!-- Node23&#45;&gt;Node28 -->
<g id="edge38" class="edge">
<title>Node23&#45;&gt;Node28</title>
<path fill="none" stroke="#63b8ff" d="M537.54,-428.62C549.15,-419.68 567.29,-405.72 581.38,-394.87"/>
<polygon fill="#63b8ff" stroke="#63b8ff" points="583.36,-397.76 589.15,-388.89 579.09,-392.22 583.36,-397.76"/>
</g>
<!-- Node32 -->
<g id="node32" class="node">
<title>Node32</title>
<g id="a_node32"><a xlink:href="f__pc__stdcreate__req_8h.html" target="_top" xlink:title=" ">
<polygon fill="white" stroke="#666666" points="768.5,-393 665.5,-393 665.5,-363 768.5,-363 768.5,-393"/>
<text text-anchor="start" x="673.5" y="-381" font-family="Helvetica,sans-Serif" font-size="10.00">f_pc/f_pc_stdcreate</text>
<text text-anchor="middle" x="717" y="-370" font-family="Helvetica,sans-Serif" font-size="10.00">_req.h</text>
</a>
</g>
</g>
<!-- Node23&#45;&gt;Node32 -->
<g id="edge47" class="edge">
<title>Node23&#45;&gt;Node32</title>
<path fill="none" stroke="#63b8ff" d="M555.01,-428.62C582.51,-420.19 624.6,-407.3 658.99,-396.77"/>
<polygon fill="#63b8ff" stroke="#63b8ff" points="659.87,-400.16 668.41,-393.88 657.82,-393.46 659.87,-400.16"/>
</g>
<!-- Node24&#45;&gt;Node7 -->
<g id="edge32" class="edge">
<title>Node24&#45;&gt;Node7</title>
<path fill="none" stroke="#63b8ff" d="M228.23,-126.1C263.5,-114.98 324.06,-95.89 363.82,-83.35"/>
<polygon fill="#63b8ff" stroke="#63b8ff" points="364.76,-86.73 373.24,-80.38 362.65,-80.05 364.76,-86.73"/>
</g>
<!-- Node26 -->
<g id="node26" class="node">
<title>Node26</title>
<g id="a_node26"><a xlink:href="f__pc__layer__iter_8h.html" target="_top" xlink:title=" ">
<polygon fill="white" stroke="#666666" points="922.5,-145.5 813.5,-145.5 813.5,-126.5 922.5,-126.5 922.5,-145.5"/>
<text text-anchor="middle" x="868" y="-133.5" font-family="Helvetica,sans-Serif" font-size="10.00">f_pc/f_pc_layer_iter.h</text>
</a>
</g>
</g>
<!-- Node25&#45;&gt;Node26 -->
<g id="edge34" class="edge">
<title>Node25&#45;&gt;Node26</title>
<path fill="none" stroke="#63b8ff" d="M841.03,-368.17C845.06,-333.63 859.83,-207.05 865.63,-157.29"/>
<polygon fill="#63b8ff" stroke="#63b8ff" points="869.1,-157.75 866.79,-147.41 862.15,-156.94 869.1,-157.75"/>
</g>
<!-- Node27 -->
<g id="node27" class="node">
<title>Node27</title>
<g id="a_node27"><a xlink:href="f__pc__line__iter_8h.html" target="_top" xlink:title=" ">
<polygon fill="white" stroke="#666666" points="1085,-327 981,-327 981,-308 1085,-308 1085,-327"/>
<text text-anchor="middle" x="1033" y="-315" font-family="Helvetica,sans-Serif" font-size="10.00">f_pc/f_pc_line_iter.h</text>
</a>
</g>
</g>
<!-- Node25&#45;&gt;Node27 -->
<g id="edge36" class="edge">
<title>Node25&#45;&gt;Node27</title>
<path fill="none" stroke="#63b8ff" d="M869.31,-368.12C902.19,-358.15 955.71,-341.93 992.56,-330.76"/>
<polygon fill="#63b8ff" stroke="#63b8ff" points="993.41,-334.16 1001.96,-327.91 991.38,-327.46 993.41,-334.16"/>
</g>
<!-- Node26&#45;&gt;Node7 -->
<g id="edge35" class="edge">
<title>Node26&#45;&gt;Node7</title>
<path fill="none" stroke="#63b8ff" d="M829.87,-126.06C821.38,-124.24 812.41,-122.44 804,-121 679.52,-99.67 531.83,-83.62 455.12,-75.96"/>
<polygon fill="#63b8ff" stroke="#63b8ff" points="455.68,-72.5 445.39,-75 454.99,-79.47 455.68,-72.5"/>
</g>
<!-- Node28&#45;&gt;Node11 -->
<g id="edge39" class="edge">
<title>Node28&#45;&gt;Node11</title>
<path fill="none" stroke="#63b8ff" d="M634.73,-368.04C641.73,-366.26 649.09,-364.48 656,-363 725.72,-348.05 806.77,-334.88 859.83,-326.82"/>
<polygon fill="#63b8ff" stroke="#63b8ff" points="860.18,-330.31 869.55,-325.35 859.14,-323.38 860.18,-330.31"/>
</g>
<!-- Node28&#45;&gt;Node20 -->
<g id="edge45" class="edge">
<title>Node28&#45;&gt;Node20</title>
<path fill="none" stroke="#63b8ff" d="M601.53,-368.45C600.35,-354.44 596.25,-326.31 582,-308 545.72,-261.38 482.49,-231.4 441.7,-215.88"/>
<polygon fill="#63b8ff" stroke="#63b8ff" points="443.11,-212.66 432.51,-212.49 440.69,-219.23 443.11,-212.66"/>
</g>
<!-- Node28&#45;&gt;Node21 -->
<g id="edge46" class="edge">
<title>Node28&#45;&gt;Node21</title>
<path fill="none" stroke="#63b8ff" d="M590.46,-368.12C578.85,-359.18 560.71,-345.22 546.62,-334.37"/>
<polygon fill="#63b8ff" stroke="#63b8ff" points="548.91,-331.72 538.85,-328.39 544.64,-337.26 548.91,-331.72"/>
</g>
<!-- Node29 -->
<g id="node29" class="node">
<title>Node29</title>
<g id="a_node29"><a xlink:href="f__pc__layer_8h.html" target="_top" xlink:title=" ">
<polygon fill="white" stroke="#666666" points="696,-211.5 606,-211.5 606,-192.5 696,-192.5 696,-211.5"/>
<text text-anchor="middle" x="651" y="-199.5" font-family="Helvetica,sans-Serif" font-size="10.00">f_pc/f_pc_layer.h</text>
</a>
</g>
</g>
<!-- Node28&#45;&gt;Node29 -->
<g id="edge40" class="edge">
<title>Node28&#45;&gt;Node29</title>
<path fill="none" stroke="#63b8ff" d="M604.5,-368.13C612.07,-341.25 634.88,-260.23 645.48,-222.6"/>
<polygon fill="#63b8ff" stroke="#63b8ff" points="648.81,-223.67 648.16,-213.1 642.08,-221.78 648.81,-223.67"/>
</g>
<!-- Node29&#45;&gt;Node7 -->
<g id="edge44" class="edge">
<title>Node29&#45;&gt;Node7</title>
<path fill="none" stroke="#63b8ff" d="M618.09,-192C579.62,-181.18 518.59,-162.98 498,-151 480.87,-141.03 480.05,-133.89 465,-121 451.24,-109.22 435.33,-96.4 423.07,-86.7"/>
<polygon fill="#63b8ff" stroke="#63b8ff" points="425.35,-84.03 415.33,-80.59 421.02,-89.53 425.35,-84.03"/>
</g>
<!-- Node29&#45;&gt;Node14 -->
<g id="edge42" class="edge">
<title>Node29&#45;&gt;Node14</title>
<path fill="none" stroke="#63b8ff" d="M650.47,-192.02C650.03,-175.7 651.5,-141.02 670,-121 692.05,-97.14 725.52,-84.63 755.73,-78.08"/>
<polygon fill="#63b8ff" stroke="#63b8ff" points="756.06,-81.58 765.2,-76.22 754.71,-74.71 756.06,-81.58"/>
</g>
<!-- Node30 -->
<g id="node30" class="node">
<title>Node30</title>
<g id="a_node30"><a xlink:href="c__list_8h.html" target="_top" xlink:title=" ">
<polygon fill="white" stroke="#666666" points="795,-151 679,-151 679,-121 795,-121 795,-151"/>
<text text-anchor="start" x="687" y="-139" font-family="Helvetica,sans-Serif" font-size="10.00">SSystem/SComponent</text>
<text text-anchor="middle" x="737" y="-128" font-family="Helvetica,sans-Serif" font-size="10.00">/c_list.h</text>
</a>
</g>
</g>
<!-- Node29&#45;&gt;Node30 -->
<g id="edge41" class="edge">
<title>Node29&#45;&gt;Node30</title>
<path fill="none" stroke="#63b8ff" d="M662.96,-192.1C674.65,-183.4 692.91,-169.81 708.37,-158.31"/>
<polygon fill="#63b8ff" stroke="#63b8ff" points="710.4,-161.16 716.33,-152.38 706.22,-155.54 710.4,-161.16"/>
</g>
<!-- Node31 -->
<g id="node31" class="node">
<title>Node31</title>
<g id="a_node31"><a xlink:href="c__tree_8h.html" target="_top" xlink:title=" ">
<polygon fill="white" stroke="#666666" points="623,-151 507,-151 507,-121 623,-121 623,-151"/>
<text text-anchor="start" x="515" y="-139" font-family="Helvetica,sans-Serif" font-size="10.00">SSystem/SComponent</text>
<text text-anchor="middle" x="565" y="-128" font-family="Helvetica,sans-Serif" font-size="10.00">/c_tree.h</text>
</a>
</g>
</g>
<!-- Node29&#45;&gt;Node31 -->
<g id="edge43" class="edge">
<title>Node29&#45;&gt;Node31</title>
<path fill="none" stroke="#63b8ff" d="M639.04,-192.1C627.35,-183.4 609.09,-169.81 593.63,-158.31"/>
<polygon fill="#63b8ff" stroke="#63b8ff" points="595.78,-155.54 585.67,-152.38 591.6,-161.16 595.78,-155.54"/>
</g>
<!-- Node33 -->
<g id="node33" class="node">
<title>Node33</title>
<g id="a_node33"><a xlink:href="f__pc__create__req_8h.html" target="_top" xlink:title=" ">
<polygon fill="white" stroke="#666666" points="784,-272 668,-272 668,-253 784,-253 784,-272"/>
<text text-anchor="middle" x="726" y="-260" font-family="Helvetica,sans-Serif" font-size="10.00">f_pc/f_pc_create_req.h</text>
</a>
</g>
</g>
<!-- Node32&#45;&gt;Node33 -->
<g id="edge48" class="edge">
<title>Node32&#45;&gt;Node33</title>
<path fill="none" stroke="#63b8ff" d="M718.14,-362.63C719.73,-342.59 722.62,-306.17 724.41,-283.49"/>
<polygon fill="#63b8ff" stroke="#63b8ff" points="727.89,-283.98 725.19,-273.74 720.91,-283.43 727.89,-283.98"/>
</g>
<!-- Node33&#45;&gt;Node18 -->
<g id="edge55" class="edge">
<title>Node33&#45;&gt;Node18</title>
<path fill="none" stroke="#63b8ff" d="M759.57,-252.62C797.61,-242.54 859.83,-226.08 902.04,-214.9"/>
<polygon fill="#63b8ff" stroke="#63b8ff" points="902.88,-218.3 911.66,-212.36 901.09,-211.53 902.88,-218.3"/>
</g>
<!-- Node33&#45;&gt;Node20 -->
<g id="edge54" class="edge">
<title>Node33&#45;&gt;Node20</title>
<path fill="none" stroke="#63b8ff" d="M667.57,-252.67C614.15,-244.35 533.03,-231.08 463,-217 458.99,-216.19 454.84,-215.32 450.68,-214.41"/>
<polygon fill="#63b8ff" stroke="#63b8ff" points="451.73,-211.05 441.21,-212.28 450.2,-217.88 451.73,-211.05"/>
</g>
<!-- Node34 -->
<g id="node34" class="node">
<title>Node34</title>
<g id="a_node34"><a xlink:href="c__phase_8h.html" target="_top" xlink:title=" ">
<polygon fill="white" stroke="#666666" points="588,-217 472,-217 472,-187 588,-187 588,-217"/>
<text text-anchor="start" x="480" y="-205" font-family="Helvetica,sans-Serif" font-size="10.00">SSystem/SComponent</text>
<text text-anchor="middle" x="530" y="-194" font-family="Helvetica,sans-Serif" font-size="10.00">/c_phase.h</text>
</a>
</g>
</g>
<!-- Node33&#45;&gt;Node34 -->
<g id="edge49" class="edge">
<title>Node33&#45;&gt;Node34</title>
<path fill="none" stroke="#63b8ff" d="M696.23,-252.62C667.89,-244.16 624.44,-231.19 589.07,-220.63"/>
<polygon fill="#63b8ff" stroke="#63b8ff" points="590.41,-217.38 579.83,-217.87 588.41,-224.09 590.41,-217.38"/>
</g>
<!-- Node35 -->
<g id="node35" class="node">
<title>Node35</title>
<g id="a_node35"><a xlink:href="f__pc__create__tag_8h.html" target="_top" xlink:title=" ">
<polygon fill="white" stroke="#666666" points="830,-211.5 714,-211.5 714,-192.5 830,-192.5 830,-211.5"/>
<text text-anchor="middle" x="772" y="-199.5" font-family="Helvetica,sans-Serif" font-size="10.00">f_pc/f_pc_create_tag.h</text>
</a>
</g>
</g>
<!-- Node33&#45;&gt;Node35 -->
<g id="edge51" class="edge">
<title>Node33&#45;&gt;Node35</title>
<path fill="none" stroke="#63b8ff" d="M732.79,-252.87C739.45,-244.4 749.79,-231.24 758.19,-220.57"/>
<polygon fill="#63b8ff" stroke="#63b8ff" points="760.82,-222.88 764.25,-212.86 755.32,-218.55 760.82,-222.88"/>
</g>
<!-- Node34&#45;&gt;Node7 -->
<g id="edge50" class="edge">
<title>Node34&#45;&gt;Node7</title>
<path fill="none" stroke="#63b8ff" d="M508.39,-186.51C495.18,-177.14 478.31,-164.26 465,-151 445.62,-131.69 426.88,-106.28 415.17,-89.33"/>
<polygon fill="#63b8ff" stroke="#63b8ff" points="418.2,-87.57 409.7,-81.25 412.41,-91.49 418.2,-87.57"/>
</g>
<!-- Node35&#45;&gt;Node13 -->
<g id="edge53" class="edge">
<title>Node35&#45;&gt;Node13</title>
<path fill="none" stroke="#63b8ff" d="M803.56,-192.1C837.86,-182.43 893.52,-166.74 936.68,-154.57"/>
<polygon fill="#63b8ff" stroke="#63b8ff" points="937.52,-157.97 946.19,-151.89 935.62,-151.23 937.52,-157.97"/>
</g>
<!-- Node35&#45;&gt;Node30 -->
<g id="edge52" class="edge">
<title>Node35&#45;&gt;Node30</title>
<path fill="none" stroke="#63b8ff" d="M767.13,-192.1C762.75,-184.08 756.1,-171.93 750.16,-161.07"/>
<polygon fill="#63b8ff" stroke="#63b8ff" points="753.38,-159.66 745.51,-152.56 747.24,-163.01 753.38,-159.66"/>
</g>
</g>
</svg>
        <g id="navigator" transform="translate(0 0)" fill="#404254">
                <rect fill="#f2f5e9" fill-opacity="0.5" stroke="#606060" stroke-width=".5" x="0" y="0" width="60" height="60"/>
                <use id="zoomplus" xlink:href="#zoomPlus" x="17" y="9" onmousedown="handleZoom(evt,'in')"/>
                <use id="zoomminus" xlink:href="#zoomMin" x="42" y="9" onmousedown="handleZoom(evt,'out')"/>
                <use id="reset" xlink:href="#resetDef" x="30" y="36" onmousedown="handleReset()"/>
                <g id="arrowUp" xlink:href="#dirArrow" transform="translate(30 24)" onmousedown="handlePan(0,-1)">
                  <use xlink:href="#rim" fill="#404040">
                        <set attributeName="fill" to="#808080" begin="arrowUp.mouseover" end="arrowUp.mouseout"/>
                  </use>
                  <path fill="none" stroke="white" stroke-width="1.5" d="M0,-3.0v7 M-2.5,-0.5L0,-3.0L2.5,-0.5"/>
                </g>
                <g id="arrowRight" xlink:href="#dirArrow" transform="rotate(90) translate(36 -43)" onmousedown="handlePan(1,0)">
                  <use xlink:href="#rim" fill="#404040">
                        <set attributeName="fill" to="#808080" begin="arrowRight.mouseover" end="arrowRight.mouseout"/>
                  </use>
                  <path fill="none" stroke="white" stroke-width="1.5" d="M0,-3.0v7 M-2.5,-0.5L0,-3.0L2.5,-0.5"/>
                </g>
                <g id="arrowDown" xlink:href="#dirArrow" transform="rotate(180) translate(-30 -48)" onmousedown="handlePan(0,1)">
                  <use xlink:href="#rim" fill="#404040">
                        <set attributeName="fill" to="#808080" begin="arrowDown.mouseover" end="arrowDown.mouseout"/>
                  </use>
                  <path fill="none" stroke="white" stroke-width="1.5" d="M0,-3.0v7 M-2.5,-0.5L0,-3.0L2.5,-0.5"/>
                </g>
                <g id="arrowLeft" xlink:href="#dirArrow" transform="rotate(270) translate(-36 17)" onmousedown="handlePan(-1,0)">
                  <use xlink:href="#rim" fill="#404040">
                        <set attributeName="fill" to="#808080" begin="arrowLeft.mouseover" end="arrowLeft.mouseout"/>
                  </use>
                  <path fill="none" stroke="white" stroke-width="1.5" d="M0,-3.0v7 M-2.5,-0.5L0,-3.0L2.5,-0.5"/>
                </g>
        </g>
        <svg viewBox="0 0 15 15" width="100%" height="30px" preserveAspectRatio="xMaxYMin meet">
         <g id="arrow_out" transform="scale(0.3 0.3)">
          <a xlink:href="f__op__kankyo__mng_8h__incl_org.svg" target="_base">
           <rect id="button" ry="5" rx="5" y="6" x="6" height="38" width="38"
                fill="#f2f5e9" fill-opacity="0.5" stroke="#606060" stroke-width="1.0"/>
           <path id="arrow"
             d="M 11.500037,31.436501 C 11.940474,20.09759 22.043105,11.32322 32.158766,21.979434 L 37.068811,17.246167 C 37.068811,17.246167 37.088388,32 37.088388,32 L 22.160133,31.978069 C 22.160133,31.978069 26.997745,27.140456 26.997745,27.140456 C 18.528582,18.264221 13.291696,25.230495 11.500037,31.436501 z"
             style="fill:#404040;"/>
          </a>
         </g>
        </svg>
</svg>
