<?xml version="1.0" encoding="UTF-8" standalone="no"?>
<!DOCTYPE svg PUBLIC "-//W3C//DTD SVG 1.1//EN"
 "http://www.w3.org/Graphics/SVG/1.1/DTD/svg11.dtd">
<!-- Generated by graphviz version 7.0.5 (20221223.1930)
 -->
<!-- Title: include/f_op/f_op_actor_iter.h Pages: 1 -->
<svg width="6015pt" height="258pt"
 viewBox="0.00 0.00 6014.50 258.00" xmlns="http://www.w3.org/2000/svg" xmlns:xlink="http://www.w3.org/1999/xlink">
<g id="graph0" class="graph" transform="scale(1 1) rotate(0) translate(4 254)">
<title>include/f_op/f_op_actor_iter.h</title>
<!-- Node1 -->
<g id="node1" class="node">
<title>Node1</title>
<g id="a_node1"><a xlink:title=" ">
<polygon fill="#999999" stroke="#666666" points="4592,-250 4474,-250 4474,-220 4592,-220 4592,-250"/>
<text text-anchor="start" x="4482" y="-238" font-family="Helvetica,sans-Serif" font-size="10.00">include/f_op/f_op_actor</text>
<text text-anchor="middle" x="4533" y="-227" font-family="Helvetica,sans-Serif" font-size="10.00">_iter.h</text>
</a>
</g>
</g>
<!-- Node2 -->
<g id="node2" class="node">
<title>Node2</title>
<g id="a_node2"><a xlink:href="f__op__actor__mng_8h.html" target="_top" xlink:title=" ">
<polygon fill="#fff0f0" stroke="red" points="3185,-184 3067,-184 3067,-154 3185,-154 3185,-184"/>
<text text-anchor="start" x="3075" y="-172" font-family="Helvetica,sans-Serif" font-size="10.00">include/f_op/f_op_actor</text>
<text text-anchor="middle" x="3126" y="-161" font-family="Helvetica,sans-Serif" font-size="10.00">_mng.h</text>
</a>
</g>
</g>
<!-- Node1&#45;&gt;Node2 -->
<g id="edge1" class="edge">
<title>Node1&#45;&gt;Node2</title>
<path fill="none" stroke="#63b8ff" d="M4462.7,-230.8C4218.75,-219.71 3411.25,-182.98 3185.24,-172.69"/>
<polygon fill="#63b8ff" stroke="#63b8ff" points="4462.23,-234.28 4472.38,-231.24 4462.55,-227.29 4462.23,-234.28"/>
</g>
<!-- Node97 -->
<g id="node12" class="node">
<title>Node97</title>
<g id="a_node12"><a xlink:href="d__a__player_8cpp.html" target="_top" xlink:title=" ">
<polygon fill="white" stroke="#666666" points="114,-30 0,-30 0,-11 114,-11 114,-30"/>
<text text-anchor="middle" x="57" y="-18" font-family="Helvetica,sans-Serif" font-size="10.00">src/d/a/d_a_player.cpp</text>
</a>
</g>
</g>
<!-- Node1&#45;&gt;Node97 -->
<g id="edge53" class="edge">
<title>Node1&#45;&gt;Node97</title>
<path fill="none" stroke="#63b8ff" d="M4462.57,-233.53C3898.35,-229.63 132.38,-200.49 52,-118 28.82,-94.21 44.49,-49.49 52.78,-30.45"/>
<polygon fill="#63b8ff" stroke="#63b8ff" points="4462.23,-237.03 4472.25,-233.6 4462.28,-230.03 4462.23,-237.03"/>
</g>
<!-- Node210 -->
<g id="node48" class="node">
<title>Node210</title>
<g id="a_node48"><a xlink:href="d__cc__d__nonmatching_8cpp.html" target="_top" xlink:title=" ">
<polygon fill="white" stroke="#666666" points="5867.5,-107 5702.5,-107 5702.5,-88 5867.5,-88 5867.5,-107"/>
<text text-anchor="middle" x="5785" y="-95" font-family="Helvetica,sans-Serif" font-size="10.00">src/d/cc/d_cc_d_nonmatching.cpp</text>
</a>
</g>
</g>
<!-- Node1&#45;&gt;Node210 -->
<g id="edge54" class="edge">
<title>Node1&#45;&gt;Node210</title>
<path fill="none" stroke="#63b8ff" d="M4533.3,-208.34C4535.01,-190.08 4540.58,-166.63 4557,-154 4607.1,-115.48 5631.27,-125.65 5694,-118 5712.76,-115.71 5733.39,-111.44 5750.25,-107.48"/>
<polygon fill="#63b8ff" stroke="#63b8ff" points="4529.81,-207.99 4532.73,-218.18 4536.8,-208.39 4529.81,-207.99"/>
</g>
<!-- Node64 -->
<g id="node49" class="node">
<title>Node64</title>
<g id="a_node49"><a xlink:href="d__event_8cpp.html" target="_top" xlink:title=" ">
<polygon fill="white" stroke="#666666" points="6006.5,-107 5885.5,-107 5885.5,-88 6006.5,-88 6006.5,-107"/>
<text text-anchor="middle" x="5946" y="-95" font-family="Helvetica,sans-Serif" font-size="10.00">src/d/event/d_event.cpp</text>
</a>
</g>
</g>
<!-- Node1&#45;&gt;Node64 -->
<g id="edge55" class="edge">
<title>Node1&#45;&gt;Node64</title>
<path fill="none" stroke="#63b8ff" d="M4543.44,-209.29C4552.86,-190.45 4568.68,-165.78 4591,-154 4717.41,-87.26 5735.7,-139.6 5877,-118 5891.52,-115.78 5907.31,-111.46 5920.12,-107.46"/>
<polygon fill="#63b8ff" stroke="#63b8ff" points="4540.34,-207.66 4539.27,-218.2 4546.68,-210.63 4540.34,-207.66"/>
</g>
<!-- Node213 -->
<g id="node50" class="node">
<title>Node213</title>
<g id="a_node50"><a xlink:href="f__op__actor__iter_8cpp.html" target="_top" xlink:title=" ">
<polygon fill="white" stroke="#666666" points="4700.5,-184 4599.5,-184 4599.5,-154 4700.5,-154 4700.5,-184"/>
<text text-anchor="start" x="4607.5" y="-172" font-family="Helvetica,sans-Serif" font-size="10.00">src/f_op/f_op_actor</text>
<text text-anchor="middle" x="4650" y="-161" font-family="Helvetica,sans-Serif" font-size="10.00">_iter.cpp</text>
</a>
</g>
</g>
<!-- Node1&#45;&gt;Node213 -->
<g id="edge56" class="edge">
<title>Node1&#45;&gt;Node213</title>
<path fill="none" stroke="#63b8ff" d="M4569.23,-214.18C4586.89,-204.52 4607.74,-193.12 4623.83,-184.31"/>
<polygon fill="#63b8ff" stroke="#63b8ff" points="4567.68,-211.04 4560.58,-218.91 4571.04,-217.18 4567.68,-211.04"/>
</g>
<!-- Node3 -->
<g id="node3" class="node">
<title>Node3</title>
<g id="a_node3"><a xlink:href="d__a__alink_8h.html" target="_top" xlink:title=" ">
<polygon fill="#fff0f0" stroke="red" points="4840,-30 4724,-30 4724,-11 4840,-11 4840,-30"/>
<text text-anchor="middle" x="4782" y="-18" font-family="Helvetica,sans-Serif" font-size="10.00">include/d/a/d_a_alink.h</text>
</a>
</g>
</g>
<!-- Node2&#45;&gt;Node3 -->
<g id="edge2" class="edge">
<title>Node2&#45;&gt;Node3</title>
<path fill="none" stroke="#63b8ff" d="M3196.15,-167.59C3495.11,-165.59 4650.74,-155.47 4718,-118 4736,-107.97 4766.21,-52.12 4777.54,-30.27"/>
<polygon fill="#63b8ff" stroke="#63b8ff" points="3196.53,-164.08 3186.56,-167.65 3196.58,-171.08 3196.53,-164.08"/>
</g>
<!-- Node175 -->
<g id="node4" class="node">
<title>Node175</title>
<g id="a_node4"><a xlink:href="d__a__obj__item_8h.html" target="_top" xlink:title=" ">
<polygon fill="#fff0f0" stroke="red" points="5008.5,-112.5 4907.5,-112.5 4907.5,-82.5 5008.5,-82.5 5008.5,-112.5"/>
<text text-anchor="start" x="4915.5" y="-100.5" font-family="Helvetica,sans-Serif" font-size="10.00">include/d/a/d_a_obj</text>
<text text-anchor="middle" x="4958" y="-89.5" font-family="Helvetica,sans-Serif" font-size="10.00">_item.h</text>
</a>
</g>
</g>
<!-- Node2&#45;&gt;Node175 -->
<g id="edge3" class="edge">
<title>Node2&#45;&gt;Node175</title>
<path fill="none" stroke="#63b8ff" d="M3196.74,-167.2C3505.68,-163.53 4728.65,-147.28 4898,-118 4904.91,-116.81 4912.11,-114.99 4919.03,-112.94"/>
<polygon fill="#63b8ff" stroke="#63b8ff" points="3196.75,-163.7 3186.79,-167.32 3196.83,-170.7 3196.75,-163.7"/>
</g>
<!-- Node176 -->
<g id="node5" class="node">
<title>Node176</title>
<g id="a_node5"><a xlink:href="d__a__obj__ss__base_8h.html" target="_top" xlink:title=" ">
<polygon fill="#fff0f0" stroke="red" points="5285.5,-112.5 5184.5,-112.5 5184.5,-82.5 5285.5,-82.5 5285.5,-112.5"/>
<text text-anchor="start" x="5192.5" y="-100.5" font-family="Helvetica,sans-Serif" font-size="10.00">include/d/a/d_a_obj</text>
<text text-anchor="middle" x="5235" y="-89.5" font-family="Helvetica,sans-Serif" font-size="10.00">_ss_base.h</text>
</a>
</g>
</g>
<!-- Node2&#45;&gt;Node176 -->
<g id="edge4" class="edge">
<title>Node2&#45;&gt;Node176</title>
<path fill="none" stroke="#63b8ff" d="M3196.32,-167.39C3532.99,-164.34 4972.11,-149.52 5170,-118 5177.45,-116.81 5185.23,-115 5192.72,-112.95"/>
<polygon fill="#63b8ff" stroke="#63b8ff" points="3196.76,-163.89 3186.79,-167.48 3196.82,-170.89 3196.76,-163.89"/>
</g>
<!-- Node178 -->
<g id="node6" class="node">
<title>Node178</title>
<g id="a_node6"><a xlink:href="d__bomb_8h.html" target="_top" xlink:title=" ">
<polygon fill="#fff0f0" stroke="red" points="5127.5,-107 5026.5,-107 5026.5,-88 5127.5,-88 5127.5,-107"/>
<text text-anchor="middle" x="5077" y="-95" font-family="Helvetica,sans-Serif" font-size="10.00">include/d/d_bomb.h</text>
</a>
</g>
</g>
<!-- Node2&#45;&gt;Node178 -->
<g id="edge5" class="edge">
<title>Node2&#45;&gt;Node178</title>
<path fill="none" stroke="#63b8ff" d="M3196.74,-167.35C3518.54,-164.25 4836.35,-149.71 5018,-118 5030.54,-115.81 5044.06,-111.5 5054.98,-107.48"/>
<polygon fill="#63b8ff" stroke="#63b8ff" points="3196.75,-163.85 3186.78,-167.45 3196.82,-170.85 3196.75,-163.85"/>
</g>
<!-- Node99 -->
<g id="node7" class="node">
<title>Node99</title>
<g id="a_node7"><a xlink:href="d__a__obj__bombf_8h.html" target="_top" xlink:title=" ">
<polygon fill="white" stroke="#666666" points="5177,-41 5055,-41 5055,0 5177,0 5177,-41"/>
<text text-anchor="start" x="5063" y="-29" font-family="Helvetica,sans-Serif" font-size="10.00">include/rel/d/a/obj</text>
<text text-anchor="start" x="5063" y="-18" font-family="Helvetica,sans-Serif" font-size="10.00">/d_a_obj_bombf/d_a_obj</text>
<text text-anchor="middle" x="5116" y="-7" font-family="Helvetica,sans-Serif" font-size="10.00">_bombf.h</text>
</a>
</g>
</g>
<!-- Node2&#45;&gt;Node99 -->
<g id="edge28" class="edge">
<title>Node2&#45;&gt;Node99</title>
<path fill="none" stroke="#63b8ff" d="M3196.63,-167.58C3549.11,-165.34 5102.41,-153.46 5137,-118 5156.87,-97.63 5142.14,-63.1 5129.33,-41.34"/>
<polygon fill="#63b8ff" stroke="#63b8ff" points="3196.82,-164.08 3186.84,-167.65 3196.86,-171.08 3196.82,-164.08"/>
</g>
<!-- Node180 -->
<g id="node8" class="node">
<title>Node180</title>
<g id="a_node8"><a xlink:href="d__door__param2_8h.html" target="_top" xlink:title=" ">
<polygon fill="#fff0f0" stroke="red" points="5436.5,-107 5303.5,-107 5303.5,-88 5436.5,-88 5436.5,-107"/>
<text text-anchor="middle" x="5370" y="-95" font-family="Helvetica,sans-Serif" font-size="10.00">include/d/d_door_param2.h</text>
</a>
</g>
</g>
<!-- Node2&#45;&gt;Node180 -->
<g id="edge7" class="edge">
<title>Node2&#45;&gt;Node180</title>
<path fill="none" stroke="#63b8ff" d="M3196.83,-167.34C3546.86,-163.95 5083.66,-147.5 5295,-118 5310.72,-115.81 5327.89,-111.49 5341.82,-107.48"/>
<polygon fill="#63b8ff" stroke="#63b8ff" points="3196.84,-163.84 3186.88,-167.44 3196.91,-170.84 3196.84,-163.84"/>
</g>
<!-- Node87 -->
<g id="node9" class="node">
<title>Node87</title>
<g id="a_node9"><a xlink:href="d__a__andsw_8h.html" target="_top" xlink:title=" ">
<polygon fill="white" stroke="#666666" points="5565,-112.5 5455,-112.5 5455,-82.5 5565,-82.5 5565,-112.5"/>
<text text-anchor="start" x="5463" y="-100.5" font-family="Helvetica,sans-Serif" font-size="10.00">include/rel/d/a/d_a</text>
<text text-anchor="middle" x="5510" y="-89.5" font-family="Helvetica,sans-Serif" font-size="10.00">_andsw/d_a_andsw.h</text>
</a>
</g>
</g>
<!-- Node2&#45;&gt;Node87 -->
<g id="edge8" class="edge">
<title>Node2&#45;&gt;Node87</title>
<path fill="none" stroke="#63b8ff" d="M3196.71,-167.63C3561.2,-165.56 5219.59,-154.22 5446,-118 5453.34,-116.83 5461.01,-115.02 5468.39,-112.97"/>
<polygon fill="#63b8ff" stroke="#63b8ff" points="3196.79,-164.13 3186.81,-167.68 3196.83,-171.13 3196.79,-164.13"/>
</g>
<!-- Node182 -->
<g id="node10" class="node">
<title>Node182</title>
<g id="a_node10"><a xlink:href="d__a__arrow_8h.html" target="_top" xlink:title=" ">
<polygon fill="white" stroke="#666666" points="5684.5,-112.5 5583.5,-112.5 5583.5,-82.5 5684.5,-82.5 5684.5,-112.5"/>
<text text-anchor="start" x="5591.5" y="-100.5" font-family="Helvetica,sans-Serif" font-size="10.00">include/rel/d/a/d_a</text>
<text text-anchor="middle" x="5634" y="-89.5" font-family="Helvetica,sans-Serif" font-size="10.00">_arrow/d_a_arrow.h</text>
</a>
</g>
</g>
<!-- Node2&#45;&gt;Node182 -->
<g id="edge9" class="edge">
<title>Node2&#45;&gt;Node182</title>
<path fill="none" stroke="#63b8ff" d="M3196.69,-167.14C3585.85,-162.34 5453.89,-138.29 5574,-118 5580.91,-116.83 5588.12,-115.03 5595.04,-112.98"/>
<polygon fill="#63b8ff" stroke="#63b8ff" points="3196.82,-163.64 3186.86,-167.26 3196.9,-170.64 3196.82,-163.64"/>
</g>
<!-- Node183 -->
<g id="node11" class="node">
<title>Node183</title>
<g id="a_node11"><a xlink:href="d__a__boomerang_8h.html" target="_top" xlink:title=" ">
<polygon fill="white" stroke="#666666" points="234.5,-112.5 85.5,-112.5 85.5,-82.5 234.5,-82.5 234.5,-112.5"/>
<text text-anchor="start" x="93.5" y="-100.5" font-family="Helvetica,sans-Serif" font-size="10.00">include/rel/d/a/d_a</text>
<text text-anchor="middle" x="160" y="-89.5" font-family="Helvetica,sans-Serif" font-size="10.00">_boomerang/d_a_boomerang.h</text>
</a>
</g>
</g>
<!-- Node2&#45;&gt;Node183 -->
<g id="edge10" class="edge">
<title>Node2&#45;&gt;Node183</title>
<path fill="none" stroke="#63b8ff" d="M3055.28,-167.67C2640.35,-165.58 530.4,-153.33 244,-118 234.49,-116.83 224.49,-115.02 214.83,-112.97"/>
<polygon fill="#63b8ff" stroke="#63b8ff" points="3055.25,-171.17 3065.26,-167.72 3055.28,-164.17 3055.25,-171.17"/>
</g>
<!-- Node2&#45;&gt;Node97 -->
<g id="edge50" class="edge">
<title>Node2&#45;&gt;Node97</title>
<path fill="none" stroke="#63b8ff" d="M3055.45,-168.06C2603.81,-168.3 135.05,-167.38 76,-118 49.93,-96.2 52.91,-49.98 55.53,-30.48"/>
<polygon fill="#63b8ff" stroke="#63b8ff" points="3055.16,-171.56 3065.16,-168.06 3055.16,-164.56 3055.16,-171.56"/>
</g>
<!-- Node184 -->
<g id="node13" class="node">
<title>Node184</title>
<g id="a_node13"><a xlink:href="d__a__canoe_8h.html" target="_top" xlink:title=" ">
<polygon fill="white" stroke="#666666" points="359,-112.5 253,-112.5 253,-82.5 359,-82.5 359,-112.5"/>
<text text-anchor="start" x="261" y="-100.5" font-family="Helvetica,sans-Serif" font-size="10.00">include/rel/d/a/d_a</text>
<text text-anchor="middle" x="306" y="-89.5" font-family="Helvetica,sans-Serif" font-size="10.00">_canoe/d_a_canoe.h</text>
</a>
</g>
</g>
<!-- Node2&#45;&gt;Node184 -->
<g id="edge12" class="edge">
<title>Node2&#45;&gt;Node184</title>
<path fill="none" stroke="#63b8ff" d="M3055.07,-167.93C2650.2,-167.35 639.84,-162.27 368,-118 360.87,-116.84 353.43,-115.04 346.28,-112.99"/>
<polygon fill="#63b8ff" stroke="#63b8ff" points="3055.06,-171.43 3065.07,-167.94 3055.07,-164.43 3055.06,-171.43"/>
</g>
<!-- Node185 -->
<g id="node14" class="node">
<title>Node185</title>
<g id="a_node14"><a xlink:href="d__a__crod_8h.html" target="_top" xlink:title=" ">
<polygon fill="#fff0f0" stroke="red" points="473,-112.5 377,-112.5 377,-82.5 473,-82.5 473,-112.5"/>
<text text-anchor="start" x="385" y="-100.5" font-family="Helvetica,sans-Serif" font-size="10.00">include/rel/d/a/d_a</text>
<text text-anchor="middle" x="425" y="-89.5" font-family="Helvetica,sans-Serif" font-size="10.00">_crod/d_a_crod.h</text>
</a>
</g>
</g>
<!-- Node2&#45;&gt;Node185 -->
<g id="edge13" class="edge">
<title>Node2&#45;&gt;Node185</title>
<path fill="none" stroke="#63b8ff" d="M3055.17,-167.97C2660.52,-167.64 741.42,-163.67 482,-118 475.41,-116.84 468.55,-115.04 461.97,-112.99"/>
<polygon fill="#63b8ff" stroke="#63b8ff" points="3055.15,-171.47 3065.16,-167.98 3055.16,-164.47 3055.15,-171.47"/>
</g>
<!-- Node90 -->
<g id="node15" class="node">
<title>Node90</title>
<g id="a_node15"><a xlink:href="d__a__econt_8h.html" target="_top" xlink:title=" ">
<polygon fill="white" stroke="#666666" points="592.5,-112.5 491.5,-112.5 491.5,-82.5 592.5,-82.5 592.5,-112.5"/>
<text text-anchor="start" x="499.5" y="-100.5" font-family="Helvetica,sans-Serif" font-size="10.00">include/rel/d/a/d_a</text>
<text text-anchor="middle" x="542" y="-89.5" font-family="Helvetica,sans-Serif" font-size="10.00">_econt/d_a_econt.h</text>
</a>
</g>
</g>
<!-- Node2&#45;&gt;Node90 -->
<g id="edge14" class="edge">
<title>Node2&#45;&gt;Node90</title>
<path fill="none" stroke="#63b8ff" d="M3055.19,-167.74C2671.94,-166.18 854.19,-156.79 607,-118 599.55,-116.83 591.76,-115.03 584.27,-112.98"/>
<polygon fill="#63b8ff" stroke="#63b8ff" points="3055.11,-171.24 3065.12,-167.78 3055.13,-164.24 3055.11,-171.24"/>
</g>
<!-- Node91 -->
<g id="node16" class="node">
<title>Node91</title>
<g id="a_node16"><a xlink:href="d__a__guard__mng_8h.html" target="_top" xlink:title=" ">
<polygon fill="white" stroke="#666666" points="739.5,-35.5 590.5,-35.5 590.5,-5.5 739.5,-5.5 739.5,-35.5"/>
<text text-anchor="start" x="598.5" y="-23.5" font-family="Helvetica,sans-Serif" font-size="10.00">include/rel/d/a/d_a</text>
<text text-anchor="middle" x="665" y="-12.5" font-family="Helvetica,sans-Serif" font-size="10.00">_guard_mng/d_a_guard_mng.h</text>
</a>
</g>
</g>
<!-- Node2&#45;&gt;Node91 -->
<g id="edge15" class="edge">
<title>Node2&#45;&gt;Node91</title>
<path fill="none" stroke="#63b8ff" d="M3055.21,-167.93C2654.13,-167.36 683.42,-162.3 640,-118 618.07,-95.63 639.65,-56.65 654.17,-35.73"/>
<polygon fill="#63b8ff" stroke="#63b8ff" points="3055.09,-171.43 3065.1,-167.94 3055.1,-164.43 3055.09,-171.43"/>
</g>
<!-- Node92 -->
<g id="node17" class="node">
<title>Node92</title>
<g id="a_node17"><a xlink:href="d__a__hitobj_8h.html" target="_top" xlink:title=" ">
<polygon fill="white" stroke="#666666" points="889,-112.5 789,-112.5 789,-82.5 889,-82.5 889,-112.5"/>
<text text-anchor="start" x="797" y="-100.5" font-family="Helvetica,sans-Serif" font-size="10.00">include/rel/d/a/d_a</text>
<text text-anchor="middle" x="839" y="-89.5" font-family="Helvetica,sans-Serif" font-size="10.00">_hitobj/d_a_hitobj.h</text>
</a>
</g>
</g>
<!-- Node2&#45;&gt;Node92 -->
<g id="edge16" class="edge">
<title>Node2&#45;&gt;Node92</title>
<path fill="none" stroke="#63b8ff" d="M3055.22,-167.66C2699.4,-165.77 1114.41,-155.33 898,-118 891.2,-116.83 884.11,-115.02 877.3,-112.97"/>
<polygon fill="#63b8ff" stroke="#63b8ff" points="3055.09,-171.16 3065.11,-167.71 3055.13,-164.16 3055.09,-171.16"/>
</g>
<!-- Node186 -->
<g id="node18" class="node">
<title>Node186</title>
<g id="a_node18"><a xlink:href="d__a__scene__exit_8h.html" target="_top" xlink:title=" ">
<polygon fill="#fff0f0" stroke="red" points="1026.5,-118 907.5,-118 907.5,-77 1026.5,-77 1026.5,-118"/>
<text text-anchor="start" x="915.5" y="-106" font-family="Helvetica,sans-Serif" font-size="10.00">include/rel/d/a/d_a</text>
<text text-anchor="start" x="915.5" y="-95" font-family="Helvetica,sans-Serif" font-size="10.00">_scene_exit/d_a_scene</text>
<text text-anchor="middle" x="967" y="-84" font-family="Helvetica,sans-Serif" font-size="10.00">_exit.h</text>
</a>
</g>
</g>
<!-- Node2&#45;&gt;Node186 -->
<g id="edge17" class="edge">
<title>Node2&#45;&gt;Node186</title>
<path fill="none" stroke="#63b8ff" d="M3055.23,-167.38C2713,-164.24 1237.87,-148.99 1035,-118 1032.33,-117.59 1029.62,-117.11 1026.88,-116.57"/>
<polygon fill="#63b8ff" stroke="#63b8ff" points="3055.14,-170.88 3065.17,-167.47 3055.2,-163.88 3055.14,-170.88"/>
</g>
<!-- Node187 -->
<g id="node19" class="node">
<title>Node187</title>
<g id="a_node19"><a xlink:href="d__a__suspend_8h.html" target="_top" xlink:title=" ">
<polygon fill="white" stroke="#666666" points="1171.5,-112.5 1044.5,-112.5 1044.5,-82.5 1171.5,-82.5 1171.5,-112.5"/>
<text text-anchor="start" x="1052.5" y="-100.5" font-family="Helvetica,sans-Serif" font-size="10.00">include/rel/d/a/d_a</text>
<text text-anchor="middle" x="1108" y="-89.5" font-family="Helvetica,sans-Serif" font-size="10.00">_suspend/d_a_suspend.h</text>
</a>
</g>
</g>
<!-- Node2&#45;&gt;Node187 -->
<g id="edge18" class="edge">
<title>Node2&#45;&gt;Node187</title>
<path fill="none" stroke="#63b8ff" d="M3055.48,-168.41C2751.73,-169.82 1553.57,-171.78 1181,-118 1172.69,-116.8 1163.97,-114.98 1155.57,-112.93"/>
<polygon fill="#63b8ff" stroke="#63b8ff" points="3055.26,-171.91 3065.24,-168.36 3055.22,-164.91 3055.26,-171.91"/>
</g>
<!-- Node98 -->
<g id="node20" class="node">
<title>Node98</title>
<g id="a_node20"><a xlink:href="d__a__swTime_8h.html" target="_top" xlink:title=" ">
<polygon fill="white" stroke="#666666" points="1312,-112.5 1190,-112.5 1190,-82.5 1312,-82.5 1312,-112.5"/>
<text text-anchor="start" x="1198" y="-100.5" font-family="Helvetica,sans-Serif" font-size="10.00">include/rel/d/a/d_a</text>
<text text-anchor="middle" x="1251" y="-89.5" font-family="Helvetica,sans-Serif" font-size="10.00">_swTime/d_a_swTime.h</text>
</a>
</g>
</g>
<!-- Node2&#45;&gt;Node98 -->
<g id="edge19" class="edge">
<title>Node2&#45;&gt;Node98</title>
<path fill="none" stroke="#63b8ff" d="M3055.35,-168.34C2765.21,-169.39 1664.37,-169.79 1321,-118 1313.02,-116.8 1304.65,-114.98 1296.59,-112.92"/>
<polygon fill="#63b8ff" stroke="#63b8ff" points="3055.04,-171.84 3065.03,-168.3 3055.02,-164.84 3055.04,-171.84"/>
</g>
<!-- Node188 -->
<g id="node21" class="node">
<title>Node188</title>
<g id="a_node21"><a xlink:href="d__a__tboxSw_8h.html" target="_top" xlink:title=" ">
<polygon fill="white" stroke="#666666" points="1448,-112.5 1330,-112.5 1330,-82.5 1448,-82.5 1448,-112.5"/>
<text text-anchor="start" x="1338" y="-100.5" font-family="Helvetica,sans-Serif" font-size="10.00">include/rel/d/a/d_a</text>
<text text-anchor="middle" x="1389" y="-89.5" font-family="Helvetica,sans-Serif" font-size="10.00">_tboxSw/d_a_tboxSw.h</text>
</a>
</g>
</g>
<!-- Node2&#45;&gt;Node188 -->
<g id="edge20" class="edge">
<title>Node2&#45;&gt;Node188</title>
<path fill="none" stroke="#63b8ff" d="M3055.29,-168.22C2779.02,-168.74 1772.2,-167.12 1457,-118 1449.23,-116.79 1441.1,-114.97 1433.27,-112.91"/>
<polygon fill="#63b8ff" stroke="#63b8ff" points="3055.24,-171.72 3065.23,-168.2 3055.22,-164.72 3055.24,-171.72"/>
</g>
<!-- Node189 -->
<g id="node22" class="node">
<title>Node189</title>
<g id="a_node22"><a xlink:href="d__a__e__ge_8h.html" target="_top" xlink:title=" ">
<polygon fill="#fff0f0" stroke="red" points="1572,-112.5 1466,-112.5 1466,-82.5 1572,-82.5 1572,-112.5"/>
<text text-anchor="start" x="1474" y="-100.5" font-family="Helvetica,sans-Serif" font-size="10.00">include/rel/d/a/e/d</text>
<text text-anchor="middle" x="1519" y="-89.5" font-family="Helvetica,sans-Serif" font-size="10.00">_a_e_ge/d_a_e_ge.h</text>
</a>
</g>
</g>
<!-- Node2&#45;&gt;Node189 -->
<g id="edge21" class="edge">
<title>Node2&#45;&gt;Node189</title>
<path fill="none" stroke="#63b8ff" d="M3055.31,-168.26C2792.25,-168.83 1870.2,-167.21 1581,-118 1573.88,-116.79 1566.45,-114.96 1559.3,-112.91"/>
<polygon fill="#63b8ff" stroke="#63b8ff" points="3055.1,-171.76 3065.09,-168.24 3055.08,-164.76 3055.1,-171.76"/>
</g>
<!-- Node18 -->
<g id="node23" class="node">
<title>Node18</title>
<g id="a_node23"><a xlink:href="d__a__e__yk_8h.html" target="_top" xlink:title=" ">
<polygon fill="white" stroke="#666666" points="1694,-112.5 1590,-112.5 1590,-82.5 1694,-82.5 1694,-112.5"/>
<text text-anchor="start" x="1598" y="-100.5" font-family="Helvetica,sans-Serif" font-size="10.00">include/rel/d/a/e/d</text>
<text text-anchor="middle" x="1642" y="-89.5" font-family="Helvetica,sans-Serif" font-size="10.00">_a_e_yk/d_a_e_yk.h</text>
</a>
</g>
</g>
<!-- Node2&#45;&gt;Node18 -->
<g id="edge22" class="edge">
<title>Node2&#45;&gt;Node18</title>
<path fill="none" stroke="#63b8ff" d="M3055.15,-168.07C2805.44,-167.93 1967.16,-163.96 1703,-118 1696.1,-116.8 1688.9,-115.01 1681.97,-112.99"/>
<polygon fill="#63b8ff" stroke="#63b8ff" points="3055.07,-171.57 3065.08,-168.08 3055.08,-164.57 3055.07,-171.57"/>
</g>
<!-- Node190 -->
<g id="node24" class="node">
<title>Node190</title>
<g id="a_node24"><a xlink:href="d__a__e__ym_8h.html" target="_top" xlink:title=" ">
<polygon fill="#fff0f0" stroke="red" points="1822,-112.5 1712,-112.5 1712,-82.5 1822,-82.5 1822,-112.5"/>
<text text-anchor="start" x="1720" y="-100.5" font-family="Helvetica,sans-Serif" font-size="10.00">include/rel/d/a/e/d</text>
<text text-anchor="middle" x="1767" y="-89.5" font-family="Helvetica,sans-Serif" font-size="10.00">_a_e_ym/d_a_e_ym.h</text>
</a>
</g>
</g>
<!-- Node2&#45;&gt;Node190 -->
<g id="edge23" class="edge">
<title>Node2&#45;&gt;Node190</title>
<path fill="none" stroke="#63b8ff" d="M3055.33,-167.66C2820.77,-166.16 2069.49,-158.24 1831,-118 1823.78,-116.78 1816.24,-114.98 1808.98,-112.96"/>
<polygon fill="#63b8ff" stroke="#63b8ff" points="3055.22,-171.16 3065.25,-167.72 3055.27,-164.16 3055.22,-171.16"/>
</g>
<!-- Node192 -->
<g id="node25" class="node">
<title>Node192</title>
<g id="a_node25"><a xlink:href="d__a__kytag06_8h.html" target="_top" xlink:title=" ">
<polygon fill="white" stroke="#666666" points="1980,-112.5 1840,-112.5 1840,-82.5 1980,-82.5 1980,-112.5"/>
<text text-anchor="start" x="1848" y="-100.5" font-family="Helvetica,sans-Serif" font-size="10.00">include/rel/d/a/kytag</text>
<text text-anchor="middle" x="1910" y="-89.5" font-family="Helvetica,sans-Serif" font-size="10.00">/d_a_kytag06/d_a_kytag06.h</text>
</a>
</g>
</g>
<!-- Node2&#45;&gt;Node192 -->
<g id="edge24" class="edge">
<title>Node2&#45;&gt;Node192</title>
<path fill="none" stroke="#63b8ff" d="M3055.08,-166.72C2839.85,-162.54 2196.28,-147.84 1989,-118 1980.33,-116.75 1971.23,-114.96 1962.41,-112.97"/>
<polygon fill="#63b8ff" stroke="#63b8ff" points="3054.94,-170.22 3065,-166.91 3055.07,-163.22 3054.94,-170.22"/>
</g>
<!-- Node193 -->
<g id="node26" class="node">
<title>Node193</title>
<g id="a_node26"><a xlink:href="d__a__kytag07_8h.html" target="_top" xlink:title=" ">
<polygon fill="white" stroke="#666666" points="2138,-112.5 1998,-112.5 1998,-82.5 2138,-82.5 2138,-112.5"/>
<text text-anchor="start" x="2006" y="-100.5" font-family="Helvetica,sans-Serif" font-size="10.00">include/rel/d/a/kytag</text>
<text text-anchor="middle" x="2068" y="-89.5" font-family="Helvetica,sans-Serif" font-size="10.00">/d_a_kytag07/d_a_kytag07.h</text>
</a>
</g>
</g>
<!-- Node2&#45;&gt;Node193 -->
<g id="edge25" class="edge">
<title>Node2&#45;&gt;Node193</title>
<path fill="none" stroke="#63b8ff" d="M3055.15,-166.14C2860.86,-160.76 2322.41,-143.89 2147,-118 2138.34,-116.72 2129.23,-114.92 2120.42,-112.92"/>
<polygon fill="#63b8ff" stroke="#63b8ff" points="3055.02,-169.64 3065.11,-166.41 3055.21,-162.64 3055.02,-169.64"/>
</g>
<!-- Node194 -->
<g id="node27" class="node">
<title>Node194</title>
<g id="a_node27"><a xlink:href="d__a__kytag17_8h.html" target="_top" xlink:title=" ">
<polygon fill="white" stroke="#666666" points="2296,-112.5 2156,-112.5 2156,-82.5 2296,-82.5 2296,-112.5"/>
<text text-anchor="start" x="2164" y="-100.5" font-family="Helvetica,sans-Serif" font-size="10.00">include/rel/d/a/kytag</text>
<text text-anchor="middle" x="2226" y="-89.5" font-family="Helvetica,sans-Serif" font-size="10.00">/d_a_kytag17/d_a_kytag17.h</text>
</a>
</g>
</g>
<!-- Node2&#45;&gt;Node194 -->
<g id="edge26" class="edge">
<title>Node2&#45;&gt;Node194</title>
<path fill="none" stroke="#63b8ff" d="M3055.46,-167.99C2912.85,-167.03 2580.4,-160.02 2305,-118 2296.48,-116.7 2287.54,-114.91 2278.85,-112.94"/>
<polygon fill="#63b8ff" stroke="#63b8ff" points="3055.09,-171.49 3065.11,-168.05 3055.13,-164.49 3055.09,-171.49"/>
</g>
<!-- Node195 -->
<g id="node28" class="node">
<title>Node195</title>
<g id="a_node28"><a xlink:href="d__a__npc__theB_8h.html" target="_top" xlink:title=" ">
<polygon fill="white" stroke="#666666" points="2436,-118 2314,-118 2314,-77 2436,-77 2436,-118"/>
<text text-anchor="start" x="2322" y="-106" font-family="Helvetica,sans-Serif" font-size="10.00">include/rel/d/a/npc</text>
<text text-anchor="start" x="2322" y="-95" font-family="Helvetica,sans-Serif" font-size="10.00">/d_a_npc_theB/d_a_npc</text>
<text text-anchor="middle" x="2375" y="-84" font-family="Helvetica,sans-Serif" font-size="10.00">_theB.h</text>
</a>
</g>
</g>
<!-- Node2&#45;&gt;Node195 -->
<g id="edge27" class="edge">
<title>Node2&#45;&gt;Node195</title>
<path fill="none" stroke="#63b8ff" d="M3055.55,-167.42C2931.31,-165.37 2665.56,-156.43 2445,-118 2442.14,-117.5 2439.23,-116.94 2436.3,-116.32"/>
<polygon fill="#63b8ff" stroke="#63b8ff" points="3055.2,-170.91 3065.25,-167.56 3055.31,-163.91 3055.2,-170.91"/>
</g>
<!-- Node101 -->
<g id="node29" class="node">
<title>Node101</title>
<g id="a_node29"><a xlink:href="d__a__obj__cowdoor_8h.html" target="_top" xlink:title=" ">
<polygon fill="white" stroke="#666666" points="2568,-118 2454,-118 2454,-77 2568,-77 2568,-118"/>
<text text-anchor="start" x="2462" y="-106" font-family="Helvetica,sans-Serif" font-size="10.00">include/rel/d/a/obj</text>
<text text-anchor="start" x="2462" y="-95" font-family="Helvetica,sans-Serif" font-size="10.00">/d_a_obj_cowdoor/d_a</text>
<text text-anchor="middle" x="2511" y="-84" font-family="Helvetica,sans-Serif" font-size="10.00">_obj_cowdoor.h</text>
</a>
</g>
</g>
<!-- Node2&#45;&gt;Node101 -->
<g id="edge29" class="edge">
<title>Node2&#45;&gt;Node101</title>
<path fill="none" stroke="#63b8ff" d="M3055.16,-165.99C2949.97,-162 2746.66,-150.46 2577,-118 2574.18,-117.46 2571.32,-116.85 2568.43,-116.19"/>
<polygon fill="#63b8ff" stroke="#63b8ff" points="3054.93,-169.48 3065.05,-166.35 3055.19,-162.49 3054.93,-169.48"/>
</g>
<!-- Node103 -->
<g id="node30" class="node">
<title>Node103</title>
<g id="a_node30"><a xlink:href="d__a__obj__onsenFire_8h.html" target="_top" xlink:title=" ">
<polygon fill="white" stroke="#666666" points="2696,-118 2586,-118 2586,-77 2696,-77 2696,-118"/>
<text text-anchor="start" x="2594" y="-106" font-family="Helvetica,sans-Serif" font-size="10.00">include/rel/d/a/obj</text>
<text text-anchor="start" x="2594" y="-95" font-family="Helvetica,sans-Serif" font-size="10.00">/d_a_obj_onsenFire/d</text>
<text text-anchor="middle" x="2641" y="-84" font-family="Helvetica,sans-Serif" font-size="10.00">_a_obj_onsenFire.h</text>
</a>
</g>
</g>
<!-- Node2&#45;&gt;Node103 -->
<g id="edge30" class="edge">
<title>Node2&#45;&gt;Node103</title>
<path fill="none" stroke="#63b8ff" d="M3055.07,-163.44C2970.89,-157.13 2826.6,-143.53 2705,-118 2702.16,-117.4 2699.26,-116.74 2696.35,-116.02"/>
<polygon fill="#63b8ff" stroke="#63b8ff" points="3054.81,-166.93 3065.04,-164.17 3055.32,-159.95 3054.81,-166.93"/>
</g>
<!-- Node104 -->
<g id="node31" class="node">
<title>Node104</title>
<g id="a_node31"><a xlink:href="d__a__obj__smoke_8h.html" target="_top" xlink:title=" ">
<polygon fill="white" stroke="#666666" points="2839.5,-118 2714.5,-118 2714.5,-77 2839.5,-77 2839.5,-118"/>
<text text-anchor="start" x="2722.5" y="-106" font-family="Helvetica,sans-Serif" font-size="10.00">include/rel/d/a/obj</text>
<text text-anchor="start" x="2722.5" y="-95" font-family="Helvetica,sans-Serif" font-size="10.00">/d_a_obj_smoke/d_a_obj</text>
<text text-anchor="middle" x="2777" y="-84" font-family="Helvetica,sans-Serif" font-size="10.00">_smoke.h</text>
</a>
</g>
</g>
<!-- Node2&#45;&gt;Node104 -->
<g id="edge31" class="edge">
<title>Node2&#45;&gt;Node104</title>
<path fill="none" stroke="#63b8ff" d="M3055.28,-156.96C2999.11,-147.77 2918.69,-133.7 2849,-118 2845.97,-117.32 2842.87,-116.59 2839.75,-115.84"/>
<polygon fill="#63b8ff" stroke="#63b8ff" points="3054.61,-160.39 3065.04,-158.54 3055.73,-153.48 3054.61,-160.39"/>
</g>
<!-- Node107 -->
<g id="node32" class="node">
<title>Node107</title>
<g id="a_node32"><a xlink:href="d__a__obj__tmoon_8h.html" target="_top" xlink:title=" ">
<polygon fill="white" stroke="#666666" points="2980,-118 2858,-118 2858,-77 2980,-77 2980,-118"/>
<text text-anchor="start" x="2866" y="-106" font-family="Helvetica,sans-Serif" font-size="10.00">include/rel/d/a/obj</text>
<text text-anchor="start" x="2866" y="-95" font-family="Helvetica,sans-Serif" font-size="10.00">/d_a_obj_tmoon/d_a_obj</text>
<text text-anchor="middle" x="2919" y="-84" font-family="Helvetica,sans-Serif" font-size="10.00">_tmoon.h</text>
</a>
</g>
</g>
<!-- Node2&#45;&gt;Node107 -->
<g id="edge32" class="edge">
<title>Node2&#45;&gt;Node107</title>
<path fill="none" stroke="#63b8ff" d="M3072.17,-149.93C3043.34,-140.25 3007.78,-128.31 2978.18,-118.37"/>
<polygon fill="#63b8ff" stroke="#63b8ff" points="3070.83,-153.17 3081.42,-153.03 3073.06,-146.53 3070.83,-153.17"/>
</g>
<!-- Node111 -->
<g id="node33" class="node">
<title>Node111</title>
<g id="a_node33"><a xlink:href="d__a__tag__ajnot_8h.html" target="_top" xlink:title=" ">
<polygon fill="white" stroke="#666666" points="3116,-118 2998,-118 2998,-77 3116,-77 3116,-118"/>
<text text-anchor="start" x="3006" y="-106" font-family="Helvetica,sans-Serif" font-size="10.00">include/rel/d/a/tag</text>
<text text-anchor="start" x="3006" y="-95" font-family="Helvetica,sans-Serif" font-size="10.00">/d_a_tag_ajnot/d_a_tag</text>
<text text-anchor="middle" x="3057" y="-84" font-family="Helvetica,sans-Serif" font-size="10.00">_ajnot.h</text>
</a>
</g>
</g>
<!-- Node2&#45;&gt;Node111 -->
<g id="edge33" class="edge">
<title>Node2&#45;&gt;Node111</title>
<path fill="none" stroke="#63b8ff" d="M3103.82,-145.66C3095.12,-136.9 3085.22,-126.93 3076.77,-118.42"/>
<polygon fill="#63b8ff" stroke="#63b8ff" points="3101.11,-147.89 3110.64,-152.53 3106.08,-142.96 3101.11,-147.89"/>
</g>
<!-- Node196 -->
<g id="node34" class="node">
<title>Node196</title>
<g id="a_node34"><a xlink:href="d__a__tag__arena_8h.html" target="_top" xlink:title=" ">
<polygon fill="white" stroke="#666666" points="3255.5,-118 3134.5,-118 3134.5,-77 3255.5,-77 3255.5,-118"/>
<text text-anchor="start" x="3142.5" y="-106" font-family="Helvetica,sans-Serif" font-size="10.00">include/rel/d/a/tag</text>
<text text-anchor="start" x="3142.5" y="-95" font-family="Helvetica,sans-Serif" font-size="10.00">/d_a_tag_arena/d_a_tag</text>
<text text-anchor="middle" x="3195" y="-84" font-family="Helvetica,sans-Serif" font-size="10.00">_arena.h</text>
</a>
</g>
</g>
<!-- Node2&#45;&gt;Node196 -->
<g id="edge34" class="edge">
<title>Node2&#45;&gt;Node196</title>
<path fill="none" stroke="#63b8ff" d="M3148.18,-145.66C3156.88,-136.9 3166.78,-126.93 3175.23,-118.42"/>
<polygon fill="#63b8ff" stroke="#63b8ff" points="3145.92,-142.96 3141.36,-152.53 3150.89,-147.89 3145.92,-142.96"/>
</g>
<!-- Node112 -->
<g id="node35" class="node">
<title>Node112</title>
<g id="a_node35"><a xlink:href="d__a__tag__assistance_8h.html" target="_top" xlink:title=" ">
<polygon fill="white" stroke="#666666" points="3388,-118 3274,-118 3274,-77 3388,-77 3388,-118"/>
<text text-anchor="start" x="3282" y="-106" font-family="Helvetica,sans-Serif" font-size="10.00">include/rel/d/a/tag</text>
<text text-anchor="start" x="3282" y="-95" font-family="Helvetica,sans-Serif" font-size="10.00">/d_a_tag_assistance</text>
<text text-anchor="middle" x="3331" y="-84" font-family="Helvetica,sans-Serif" font-size="10.00">/d_a_tag_assistance.h</text>
</a>
</g>
</g>
<!-- Node2&#45;&gt;Node112 -->
<g id="edge35" class="edge">
<title>Node2&#45;&gt;Node112</title>
<path fill="none" stroke="#63b8ff" d="M3179.23,-149.95C3208.25,-140.11 3244.19,-127.93 3273.8,-117.89"/>
<polygon fill="#63b8ff" stroke="#63b8ff" points="3178.26,-146.59 3169.91,-153.11 3180.5,-153.22 3178.26,-146.59"/>
</g>
<!-- Node113 -->
<g id="node36" class="node">
<title>Node113</title>
<g id="a_node36"><a xlink:href="d__a__tag__attention_8h.html" target="_top" xlink:title=" ">
<polygon fill="white" stroke="#666666" points="3511.5,-118 3406.5,-118 3406.5,-77 3511.5,-77 3511.5,-118"/>
<text text-anchor="start" x="3414.5" y="-106" font-family="Helvetica,sans-Serif" font-size="10.00">include/rel/d/a/tag</text>
<text text-anchor="start" x="3414.5" y="-95" font-family="Helvetica,sans-Serif" font-size="10.00">/d_a_tag_attention/d</text>
<text text-anchor="middle" x="3459" y="-84" font-family="Helvetica,sans-Serif" font-size="10.00">_a_tag_attention.h</text>
</a>
</g>
</g>
<!-- Node2&#45;&gt;Node113 -->
<g id="edge36" class="edge">
<title>Node2&#45;&gt;Node113</title>
<path fill="none" stroke="#63b8ff" d="M3196.42,-157.43C3251.41,-148.6 3329.56,-134.76 3397,-118 3399.96,-117.27 3402.98,-116.47 3406.02,-115.63"/>
<polygon fill="#63b8ff" stroke="#63b8ff" points="3196.21,-153.92 3186.88,-158.95 3197.31,-160.83 3196.21,-153.92"/>
</g>
<!-- Node197 -->
<g id="node37" class="node">
<title>Node197</title>
<g id="a_node37"><a xlink:href="d__a__tag__escape_8h.html" target="_top" xlink:title=" ">
<polygon fill="white" stroke="#666666" points="3640,-118 3530,-118 3530,-77 3640,-77 3640,-118"/>
<text text-anchor="start" x="3538" y="-106" font-family="Helvetica,sans-Serif" font-size="10.00">include/rel/d/a/tag</text>
<text text-anchor="start" x="3538" y="-95" font-family="Helvetica,sans-Serif" font-size="10.00">/d_a_tag_escape/d_a</text>
<text text-anchor="middle" x="3585" y="-84" font-family="Helvetica,sans-Serif" font-size="10.00">_tag_escape.h</text>
</a>
</g>
</g>
<!-- Node2&#45;&gt;Node197 -->
<g id="edge37" class="edge">
<title>Node2&#45;&gt;Node197</title>
<path fill="none" stroke="#63b8ff" d="M3196.56,-162.59C3275.85,-155.68 3408.13,-141.71 3520,-118 3523.23,-117.32 3526.53,-116.55 3529.84,-115.72"/>
<polygon fill="#63b8ff" stroke="#63b8ff" points="3196.42,-159.08 3186.76,-163.42 3197.02,-166.06 3196.42,-159.08"/>
</g>
<!-- Node114 -->
<g id="node38" class="node">
<title>Node114</title>
<g id="a_node38"><a xlink:href="d__a__tag__gra_8h.html" target="_top" xlink:title=" ">
<polygon fill="white" stroke="#666666" points="3795.5,-112.5 3658.5,-112.5 3658.5,-82.5 3795.5,-82.5 3795.5,-112.5"/>
<text text-anchor="start" x="3666.5" y="-100.5" font-family="Helvetica,sans-Serif" font-size="10.00">include/rel/d/a/tag</text>
<text text-anchor="middle" x="3727" y="-89.5" font-family="Helvetica,sans-Serif" font-size="10.00">/d_a_tag_gra/d_a_tag_gra.h</text>
</a>
</g>
</g>
<!-- Node2&#45;&gt;Node114 -->
<g id="edge38" class="edge">
<title>Node2&#45;&gt;Node114</title>
<path fill="none" stroke="#63b8ff" d="M3196.46,-164.62C3297.32,-159.02 3488.43,-145.59 3649,-118 3656.98,-116.63 3665.35,-114.88 3673.52,-112.99"/>
<polygon fill="#63b8ff" stroke="#63b8ff" points="3196.51,-161.11 3186.72,-165.15 3196.89,-168.1 3196.51,-161.11"/>
</g>
<!-- Node198 -->
<g id="node39" class="node">
<title>Node198</title>
<g id="a_node39"><a xlink:href="d__a__tag__guard_8h.html" target="_top" xlink:title=" ">
<polygon fill="white" stroke="#666666" points="770.5,-118 649.5,-118 649.5,-77 770.5,-77 770.5,-118"/>
<text text-anchor="start" x="657.5" y="-106" font-family="Helvetica,sans-Serif" font-size="10.00">include/rel/d/a/tag</text>
<text text-anchor="start" x="657.5" y="-95" font-family="Helvetica,sans-Serif" font-size="10.00">/d_a_tag_guard/d_a_tag</text>
<text text-anchor="middle" x="710" y="-84" font-family="Helvetica,sans-Serif" font-size="10.00">_guard.h</text>
</a>
</g>
</g>
<!-- Node2&#45;&gt;Node198 -->
<g id="edge39" class="edge">
<title>Node2&#45;&gt;Node198</title>
<path fill="none" stroke="#63b8ff" d="M3055.11,-167.55C2687.84,-165.05 1009.5,-151.86 780,-118 777,-117.56 773.96,-117.03 770.89,-116.43"/>
<polygon fill="#63b8ff" stroke="#63b8ff" points="3055.07,-171.05 3065.1,-167.61 3055.12,-164.05 3055.07,-171.05"/>
</g>
<!-- Node116 -->
<g id="node40" class="node">
<title>Node116</title>
<g id="a_node40"><a xlink:href="d__a__tag__howl_8h.html" target="_top" xlink:title=" ">
<polygon fill="white" stroke="#666666" points="3930.5,-118 3813.5,-118 3813.5,-77 3930.5,-77 3930.5,-118"/>
<text text-anchor="start" x="3821.5" y="-106" font-family="Helvetica,sans-Serif" font-size="10.00">include/rel/d/a/tag</text>
<text text-anchor="start" x="3821.5" y="-95" font-family="Helvetica,sans-Serif" font-size="10.00">/d_a_tag_howl/d_a_tag</text>
<text text-anchor="middle" x="3872" y="-84" font-family="Helvetica,sans-Serif" font-size="10.00">_howl.h</text>
</a>
</g>
</g>
<!-- Node2&#45;&gt;Node116 -->
<g id="edge41" class="edge">
<title>Node2&#45;&gt;Node116</title>
<path fill="none" stroke="#63b8ff" d="M3196.65,-167.55C3320.59,-165.71 3584.84,-157.08 3804,-118 3807.02,-117.46 3810.1,-116.84 3813.2,-116.16"/>
<polygon fill="#63b8ff" stroke="#63b8ff" points="3196.92,-164.05 3186.97,-167.69 3197.02,-171.05 3196.92,-164.05"/>
</g>
<!-- Node199 -->
<g id="node41" class="node">
<title>Node199</title>
<g id="a_node41"><a xlink:href="d__a__tag__instruction_8h.html" target="_top" xlink:title=" ">
<polygon fill="white" stroke="#666666" points="4061,-118 3949,-118 3949,-77 4061,-77 4061,-118"/>
<text text-anchor="start" x="3957" y="-106" font-family="Helvetica,sans-Serif" font-size="10.00">include/rel/d/a/tag</text>
<text text-anchor="start" x="3957" y="-95" font-family="Helvetica,sans-Serif" font-size="10.00">/d_a_tag_instruction</text>
<text text-anchor="middle" x="4005" y="-84" font-family="Helvetica,sans-Serif" font-size="10.00">/d_a_tag_instruction.h</text>
</a>
</g>
</g>
<!-- Node2&#45;&gt;Node199 -->
<g id="edge42" class="edge">
<title>Node2&#45;&gt;Node199</title>
<path fill="none" stroke="#63b8ff" d="M3196.8,-165.7C3367.35,-159.82 3797.33,-142.95 3939,-118 3942.18,-117.44 3945.42,-116.78 3948.67,-116.05"/>
<polygon fill="#63b8ff" stroke="#63b8ff" points="3196.85,-162.2 3186.97,-166.03 3197.09,-169.19 3196.85,-162.2"/>
</g>
<!-- Node117 -->
<g id="node42" class="node">
<title>Node117</title>
<g id="a_node42"><a xlink:href="d__a__tag__lantern_8h.html" target="_top" xlink:title=" ">
<polygon fill="white" stroke="#666666" points="4186.5,-118 4079.5,-118 4079.5,-77 4186.5,-77 4186.5,-118"/>
<text text-anchor="start" x="4087.5" y="-106" font-family="Helvetica,sans-Serif" font-size="10.00">include/rel/d/a/tag</text>
<text text-anchor="start" x="4087.5" y="-95" font-family="Helvetica,sans-Serif" font-size="10.00">/d_a_tag_lantern/d_a</text>
<text text-anchor="middle" x="4133" y="-84" font-family="Helvetica,sans-Serif" font-size="10.00">_tag_lantern.h</text>
</a>
</g>
</g>
<!-- Node2&#45;&gt;Node117 -->
<g id="edge43" class="edge">
<title>Node2&#45;&gt;Node117</title>
<path fill="none" stroke="#63b8ff" d="M3196.68,-166.52C3386.14,-162.18 3902.35,-147.91 4070,-118 4073.04,-117.46 4076.15,-116.81 4079.26,-116.09"/>
<polygon fill="#63b8ff" stroke="#63b8ff" points="3196.64,-163.02 3186.73,-166.74 3196.8,-170.02 3196.64,-163.02"/>
</g>
<!-- Node200 -->
<g id="node43" class="node">
<title>Node200</title>
<g id="a_node43"><a xlink:href="d__a__tag__lv5soup_8h.html" target="_top" xlink:title=" ">
<polygon fill="white" stroke="#666666" points="4317,-118 4205,-118 4205,-77 4317,-77 4317,-118"/>
<text text-anchor="start" x="4213" y="-106" font-family="Helvetica,sans-Serif" font-size="10.00">include/rel/d/a/tag</text>
<text text-anchor="start" x="4213" y="-95" font-family="Helvetica,sans-Serif" font-size="10.00">/d_a_tag_lv5soup/d_a</text>
<text text-anchor="middle" x="4261" y="-84" font-family="Helvetica,sans-Serif" font-size="10.00">_tag_lv5soup.h</text>
</a>
</g>
</g>
<!-- Node2&#45;&gt;Node200 -->
<g id="edge44" class="edge">
<title>Node2&#45;&gt;Node200</title>
<path fill="none" stroke="#63b8ff" d="M3196.61,-166.91C3402.87,-163.38 4002.04,-150.53 4195,-118 4198.18,-117.46 4201.43,-116.82 4204.68,-116.11"/>
<polygon fill="#63b8ff" stroke="#63b8ff" points="3196.79,-163.41 3186.85,-167.08 3196.91,-170.41 3196.79,-163.41"/>
</g>
<!-- Node201 -->
<g id="node44" class="node">
<title>Node201</title>
<g id="a_node44"><a xlink:href="d__a__tag__magne_8h.html" target="_top" xlink:title=" ">
<polygon fill="#fff0f0" stroke="red" points="4461,-118 4335,-118 4335,-77 4461,-77 4461,-118"/>
<text text-anchor="start" x="4343" y="-106" font-family="Helvetica,sans-Serif" font-size="10.00">include/rel/d/a/tag</text>
<text text-anchor="start" x="4343" y="-95" font-family="Helvetica,sans-Serif" font-size="10.00">/d_a_tag_magne/d_a_tag</text>
<text text-anchor="middle" x="4398" y="-84" font-family="Helvetica,sans-Serif" font-size="10.00">_magne.h</text>
</a>
</g>
</g>
<!-- Node2&#45;&gt;Node201 -->
<g id="edge45" class="edge">
<title>Node2&#45;&gt;Node201</title>
<path fill="none" stroke="#63b8ff" d="M3196.7,-167.12C3419.66,-164.02 4106.23,-151.9 4326,-118 4328.82,-117.57 4331.68,-117.06 4334.56,-116.5"/>
<polygon fill="#63b8ff" stroke="#63b8ff" points="3196.96,-163.62 3187.01,-167.25 3197.06,-170.62 3196.96,-163.62"/>
</g>
<!-- Node202 -->
<g id="node45" class="node">
<title>Node202</title>
<g id="a_node45"><a xlink:href="d__a__tag__mmsg_8h.html" target="_top" xlink:title=" ">
<polygon fill="white" stroke="#666666" points="4889,-118 4765,-118 4765,-77 4889,-77 4889,-118"/>
<text text-anchor="start" x="4773" y="-106" font-family="Helvetica,sans-Serif" font-size="10.00">include/rel/d/a/tag</text>
<text text-anchor="start" x="4773" y="-95" font-family="Helvetica,sans-Serif" font-size="10.00">/d_a_tag_mmsg/d_a_tag</text>
<text text-anchor="middle" x="4827" y="-84" font-family="Helvetica,sans-Serif" font-size="10.00">_mmsg.h</text>
</a>
</g>
</g>
<!-- Node2&#45;&gt;Node202 -->
<g id="edge46" class="edge">
<title>Node2&#45;&gt;Node202</title>
<path fill="none" stroke="#63b8ff" d="M3196.62,-167.9C3468.04,-167.17 4444.17,-161.54 4751,-118 4755.45,-117.37 4760.02,-116.58 4764.59,-115.67"/>
<polygon fill="#63b8ff" stroke="#63b8ff" points="3196.87,-164.39 3186.88,-167.92 3196.89,-171.39 3196.87,-164.39"/>
</g>
<!-- Node120 -->
<g id="node46" class="node">
<title>Node120</title>
<g id="a_node46"><a xlink:href="d__a__tag__poFire_8h.html" target="_top" xlink:title=" ">
<polygon fill="white" stroke="#666666" points="4584.5,-118 4479.5,-118 4479.5,-77 4584.5,-77 4584.5,-118"/>
<text text-anchor="start" x="4487.5" y="-106" font-family="Helvetica,sans-Serif" font-size="10.00">include/rel/d/a/tag</text>
<text text-anchor="start" x="4487.5" y="-95" font-family="Helvetica,sans-Serif" font-size="10.00">/d_a_tag_poFire/d_a</text>
<text text-anchor="middle" x="4532" y="-84" font-family="Helvetica,sans-Serif" font-size="10.00">_tag_poFire.h</text>
</a>
</g>
</g>
<!-- Node2&#45;&gt;Node120 -->
<g id="edge48" class="edge">
<title>Node2&#45;&gt;Node120</title>
<path fill="none" stroke="#63b8ff" d="M3196.52,-167.86C3436.69,-166.99 4221.69,-160.87 4470,-118 4473,-117.48 4476.06,-116.86 4479.13,-116.15"/>
<polygon fill="#63b8ff" stroke="#63b8ff" points="3196.66,-164.36 3186.67,-167.89 3196.68,-171.36 3196.66,-164.36"/>
</g>
<!-- Node121 -->
<g id="node47" class="node">
<title>Node121</title>
<g id="a_node47"><a xlink:href="d__a__tag__ret__room_8h.html" target="_top" xlink:title=" ">
<polygon fill="white" stroke="#666666" points="4709,-118 4603,-118 4603,-77 4709,-77 4709,-118"/>
<text text-anchor="start" x="4611" y="-106" font-family="Helvetica,sans-Serif" font-size="10.00">include/rel/d/a/tag</text>
<text text-anchor="start" x="4611" y="-95" font-family="Helvetica,sans-Serif" font-size="10.00">/d_a_tag_ret_room/d</text>
<text text-anchor="middle" x="4656" y="-84" font-family="Helvetica,sans-Serif" font-size="10.00">_a_tag_ret_room.h</text>
</a>
</g>
</g>
<!-- Node2&#45;&gt;Node121 -->
<g id="edge49" class="edge">
<title>Node2&#45;&gt;Node121</title>
<path fill="none" stroke="#63b8ff" d="M3196.53,-168.12C3450.89,-168.16 4320.45,-164.78 4594,-118 4596.89,-117.51 4599.84,-116.91 4602.79,-116.24"/>
<polygon fill="#63b8ff" stroke="#63b8ff" points="3196.76,-164.62 3186.75,-168.12 3196.75,-171.62 3196.76,-164.62"/>
</g>
<!-- Node2&#45;&gt;Node210 -->
<g id="edge51" class="edge">
<title>Node2&#45;&gt;Node210</title>
<path fill="none" stroke="#63b8ff" d="M3196.59,-167.43C3583.67,-164.22 5440.27,-147.38 5694,-118 5712.94,-115.81 5733.75,-111.49 5750.69,-107.48"/>
<polygon fill="#63b8ff" stroke="#63b8ff" points="3196.79,-163.93 3186.82,-167.51 3196.85,-170.93 3196.79,-163.93"/>
</g>
<!-- Node2&#45;&gt;Node64 -->
<g id="edge52" class="edge">
<title>Node2&#45;&gt;Node64</title>
<path fill="none" stroke="#63b8ff" d="M3196.55,-167.23C3613.4,-162.62 5740.65,-138.16 5877,-118 5891.65,-115.83 5907.59,-111.47 5920.46,-107.41"/>
<polygon fill="#63b8ff" stroke="#63b8ff" points="3196.77,-163.73 3186.81,-167.34 3196.85,-170.73 3196.77,-163.73"/>
</g>
<!-- Node178&#45;&gt;Node99 -->
<g id="edge6" class="edge">
<title>Node178&#45;&gt;Node99</title>
<path fill="none" stroke="#63b8ff" d="M5086.77,-77.71C5092.54,-66.62 5099.82,-52.61 5105.68,-41.35"/>
<polygon fill="#63b8ff" stroke="#63b8ff" points="5083.83,-75.77 5082.33,-86.26 5090.04,-79 5083.83,-75.77"/>
</g>
<!-- Node183&#45;&gt;Node97 -->
<g id="edge11" class="edge">
<title>Node183&#45;&gt;Node97</title>
<path fill="none" stroke="#63b8ff" d="M130.93,-75.33C110.48,-60.44 84.15,-41.27 69.07,-30.29"/>
<polygon fill="#63b8ff" stroke="#63b8ff" points="128.77,-78.09 138.92,-81.15 132.89,-72.43 128.77,-78.09"/>
</g>
<!-- Node198&#45;&gt;Node91 -->
<g id="edge40" class="edge">
<title>Node198&#45;&gt;Node91</title>
<path fill="none" stroke="#63b8ff" d="M692.27,-66.94C685.85,-56.25 678.9,-44.66 673.62,-35.86"/>
<polygon fill="#63b8ff" stroke="#63b8ff" points="689.25,-68.72 697.4,-75.5 695.25,-65.12 689.25,-68.72"/>
</g>
<!-- Node202&#45;&gt;Node3 -->
<g id="edge47" class="edge">
<title>Node202&#45;&gt;Node3</title>
<path fill="none" stroke="#63b8ff" d="M4809.35,-67.09C4801.43,-53.88 4792.66,-39.27 4787.24,-30.24"/>
<polygon fill="#63b8ff" stroke="#63b8ff" points="4806.25,-68.72 4814.4,-75.5 4812.25,-65.12 4806.25,-68.72"/>
</g>
</g>
</svg>
