<?xml version="1.0" encoding="UTF-8" standalone="no"?>
<!DOCTYPE svg PUBLIC "-//W3C//DTD SVG 1.1//EN"
 "http://www.w3.org/Graphics/SVG/1.1/DTD/svg11.dtd">
<!-- Generated by graphviz version 7.0.5 (20221223.1930)
 -->
<!-- Title: include/f_pc/f_pc_create_iter.h Pages: 1 -->
<svg width="5705pt" height="324pt"
 viewBox="0.00 0.00 5705.00 324.00" xmlns="http://www.w3.org/2000/svg" xmlns:xlink="http://www.w3.org/1999/xlink">
<g id="graph0" class="graph" transform="scale(1 1) rotate(0) translate(4 320)">
<title>include/f_pc/f_pc_create_iter.h</title>
<!-- Node1 -->
<g id="node1" class="node">
<title>Node1</title>
<g id="a_node1"><a xlink:title=" ">
<polygon fill="#999999" stroke="#666666" points="5442.5,-316 5319.5,-316 5319.5,-286 5442.5,-286 5442.5,-316"/>
<text text-anchor="start" x="5327.5" y="-304" font-family="Helvetica,sans-Serif" font-size="10.00">include/f_pc/f_pc_create</text>
<text text-anchor="middle" x="5381" y="-293" font-family="Helvetica,sans-Serif" font-size="10.00">_iter.h</text>
</a>
</g>
</g>
<!-- Node2 -->
<g id="node2" class="node">
<title>Node2</title>
<g id="a_node2"><a xlink:href="f__pc__manager_8h.html" target="_top" xlink:title=" ">
<polygon fill="white" stroke="#666666" points="5023.5,-244.5 4882.5,-244.5 4882.5,-225.5 5023.5,-225.5 5023.5,-244.5"/>
<text text-anchor="middle" x="4953" y="-232.5" font-family="Helvetica,sans-Serif" font-size="10.00">include/f_pc/f_pc_manager.h</text>
</a>
</g>
</g>
<!-- Node1&#45;&gt;Node2 -->
<g id="edge1" class="edge">
<title>Node1&#45;&gt;Node2</title>
<path fill="none" stroke="#63b8ff" d="M5308.09,-289.1C5224.9,-276.66 5090.42,-256.55 5013.03,-244.98"/>
<polygon fill="#63b8ff" stroke="#63b8ff" points="5307.32,-292.52 5317.73,-290.54 5308.35,-285.6 5307.32,-292.52"/>
</g>
<!-- Node25 -->
<g id="node48" class="node">
<title>Node25</title>
<g id="a_node48"><a xlink:href="f__pc__manager_8cpp.html" target="_top" xlink:title=" ">
<polygon fill="white" stroke="#666666" points="5697,-178.5 5563,-178.5 5563,-159.5 5697,-159.5 5697,-178.5"/>
<text text-anchor="middle" x="5630" y="-166.5" font-family="Helvetica,sans-Serif" font-size="10.00">src/f_pc/f_pc_manager.cpp</text>
</a>
</g>
</g>
<!-- Node1&#45;&gt;Node25 -->
<g id="edge54" class="edge">
<title>Node1&#45;&gt;Node25</title>
<path fill="none" stroke="#63b8ff" d="M5364.65,-276.21C5354.95,-258.88 5346.87,-235.78 5360,-220 5360.44,-219.47 5503.16,-193.24 5580.89,-178.99"/>
<polygon fill="#63b8ff" stroke="#63b8ff" points="5361.42,-277.63 5369.61,-284.35 5367.4,-273.99 5361.42,-277.63"/>
</g>
<!-- Node237 -->
<g id="node49" class="node">
<title>Node237</title>
<g id="a_node49"><a xlink:href="f__pc__create__iter_8cpp.html" target="_top" xlink:title=" ">
<polygon fill="white" stroke="#666666" points="5475,-250 5369,-250 5369,-220 5475,-220 5475,-250"/>
<text text-anchor="start" x="5377" y="-238" font-family="Helvetica,sans-Serif" font-size="10.00">src/f_pc/f_pc_create</text>
<text text-anchor="middle" x="5422" y="-227" font-family="Helvetica,sans-Serif" font-size="10.00">_iter.cpp</text>
</a>
</g>
</g>
<!-- Node1&#45;&gt;Node237 -->
<g id="edge52" class="edge">
<title>Node1&#45;&gt;Node237</title>
<path fill="none" stroke="#63b8ff" d="M5396.3,-276.11C5401.9,-267.38 5408.05,-257.78 5412.93,-250.16"/>
<polygon fill="#63b8ff" stroke="#63b8ff" points="5393.36,-274.21 5390.92,-284.52 5399.26,-277.99 5393.36,-274.21"/>
</g>
<!-- Node238 -->
<g id="node50" class="node">
<title>Node238</title>
<g id="a_node50"><a xlink:href="f__pc__create__req_8cpp.html" target="_top" xlink:title=" ">
<polygon fill="white" stroke="#666666" points="5599,-250 5493,-250 5493,-220 5599,-220 5599,-250"/>
<text text-anchor="start" x="5501" y="-238" font-family="Helvetica,sans-Serif" font-size="10.00">src/f_pc/f_pc_create</text>
<text text-anchor="middle" x="5546" y="-227" font-family="Helvetica,sans-Serif" font-size="10.00">_req.cpp</text>
</a>
</g>
</g>
<!-- Node1&#45;&gt;Node238 -->
<g id="edge53" class="edge">
<title>Node1&#45;&gt;Node238</title>
<path fill="none" stroke="#63b8ff" d="M5428.59,-281.54C5454.11,-271.64 5485.08,-259.63 5508.81,-250.43"/>
<polygon fill="#63b8ff" stroke="#63b8ff" points="5427.5,-278.21 5419.44,-285.09 5430.03,-284.74 5427.5,-278.21"/>
</g>
<!-- Node3 -->
<g id="node3" class="node">
<title>Node3</title>
<g id="a_node3"><a xlink:href="f__op__actor__mng_8h.html" target="_top" xlink:title=" ">
<polygon fill="#fff0f0" stroke="red" points="2281,-184 2163,-184 2163,-154 2281,-154 2281,-184"/>
<text text-anchor="start" x="2171" y="-172" font-family="Helvetica,sans-Serif" font-size="10.00">include/f_op/f_op_actor</text>
<text text-anchor="middle" x="2222" y="-161" font-family="Helvetica,sans-Serif" font-size="10.00">_mng.h</text>
</a>
</g>
</g>
<!-- Node2&#45;&gt;Node3 -->
<g id="edge2" class="edge">
<title>Node2&#45;&gt;Node3</title>
<path fill="none" stroke="#63b8ff" d="M4870.59,-232.07C4459.37,-222.43 2635.13,-179.68 2281.49,-171.39"/>
<polygon fill="#63b8ff" stroke="#63b8ff" points="4870.46,-235.57 4880.54,-232.3 4870.62,-228.57 4870.46,-235.57"/>
</g>
<!-- Node222 -->
<g id="node38" class="node">
<title>Node222</title>
<g id="a_node38"><a xlink:href="f__op__kankyo_8h.html" target="_top" xlink:title=" ">
<polygon fill="#fff0f0" stroke="red" points="4655,-107 4521,-107 4521,-88 4655,-88 4655,-107"/>
<text text-anchor="middle" x="4588" y="-95" font-family="Helvetica,sans-Serif" font-size="10.00">include/f_op/f_op_kankyo.h</text>
</a>
</g>
</g>
<!-- Node2&#45;&gt;Node222 -->
<g id="edge38" class="edge">
<title>Node2&#45;&gt;Node222</title>
<path fill="none" stroke="#63b8ff" d="M4870.99,-230.37C4751.46,-224.22 4541.03,-209.83 4518,-184 4493.87,-156.94 4543.52,-123.23 4571.17,-107.44"/>
<polygon fill="#63b8ff" stroke="#63b8ff" points="4870.59,-233.85 4880.75,-230.86 4870.94,-226.86 4870.59,-233.85"/>
</g>
<!-- Node83 -->
<g id="node39" class="node">
<title>Node83</title>
<g id="a_node39"><a xlink:href="f__op__kankyo_8cpp.html" target="_top" xlink:title=" ">
<polygon fill="white" stroke="#666666" points="4699,-30 4571,-30 4571,-11 4699,-11 4699,-30"/>
<text text-anchor="middle" x="4635" y="-18" font-family="Helvetica,sans-Serif" font-size="10.00">src/f_op/f_op_kankyo.cpp</text>
</a>
</g>
</g>
<!-- Node2&#45;&gt;Node83 -->
<g id="edge45" class="edge">
<title>Node2&#45;&gt;Node83</title>
<path fill="none" stroke="#63b8ff" d="M4870.99,-226.42C4807.76,-219.01 4727.01,-205.63 4702,-184 4663.83,-150.99 4684.18,-123.26 4664,-77 4656.61,-60.06 4646.25,-41.14 4640.12,-30.35"/>
<polygon fill="#63b8ff" stroke="#63b8ff" points="4870.34,-229.87 4880.67,-227.52 4871.13,-222.91 4870.34,-229.87"/>
</g>
<!-- Node227 -->
<g id="node40" class="node">
<title>Node227</title>
<g id="a_node40"><a xlink:href="f__op__kankyo__mng_8h.html" target="_top" xlink:title=" ">
<polygon fill="#fff0f0" stroke="red" points="4654.5,-184 4527.5,-184 4527.5,-154 4654.5,-154 4654.5,-184"/>
<text text-anchor="start" x="4535.5" y="-172" font-family="Helvetica,sans-Serif" font-size="10.00">include/f_op/f_op_kankyo</text>
<text text-anchor="middle" x="4591" y="-161" font-family="Helvetica,sans-Serif" font-size="10.00">_mng.h</text>
</a>
</g>
</g>
<!-- Node2&#45;&gt;Node227 -->
<g id="edge40" class="edge">
<title>Node2&#45;&gt;Node227</title>
<path fill="none" stroke="#63b8ff" d="M4890.59,-223.07C4833.04,-212.98 4745.25,-197.55 4669,-184 4664.39,-183.18 4659.64,-182.33 4654.85,-181.48"/>
<polygon fill="#63b8ff" stroke="#63b8ff" points="4889.74,-226.48 4900.19,-224.76 4890.95,-219.58 4889.74,-226.48"/>
</g>
<!-- Node228 -->
<g id="node41" class="node">
<title>Node228</title>
<g id="a_node41"><a xlink:href="f__op__scene__mng_8h.html" target="_top" xlink:title=" ">
<polygon fill="#fff0f0" stroke="red" points="4833,-184 4711,-184 4711,-154 4833,-154 4833,-184"/>
<text text-anchor="start" x="4719" y="-172" font-family="Helvetica,sans-Serif" font-size="10.00">include/f_op/f_op_scene</text>
<text text-anchor="middle" x="4772" y="-161" font-family="Helvetica,sans-Serif" font-size="10.00">_mng.h</text>
</a>
</g>
</g>
<!-- Node2&#45;&gt;Node228 -->
<g id="edge42" class="edge">
<title>Node2&#45;&gt;Node228</title>
<path fill="none" stroke="#63b8ff" d="M4917.01,-221.27C4887,-210.66 4844.25,-195.55 4812.94,-184.48"/>
<polygon fill="#63b8ff" stroke="#63b8ff" points="4915.81,-224.56 4926.41,-224.6 4918.14,-217.96 4915.81,-224.56"/>
</g>
<!-- Node230 -->
<g id="node42" class="node">
<title>Node230</title>
<g id="a_node42"><a xlink:href="f__ap__game_8cpp.html" target="_top" xlink:title=" ">
<polygon fill="white" stroke="#666666" points="4877.5,-107 4756.5,-107 4756.5,-88 4877.5,-88 4877.5,-107"/>
<text text-anchor="middle" x="4817" y="-95" font-family="Helvetica,sans-Serif" font-size="10.00">src/f_ap/f_ap_game.cpp</text>
</a>
</g>
</g>
<!-- Node2&#45;&gt;Node230 -->
<g id="edge44" class="edge">
<title>Node2&#45;&gt;Node230</title>
<path fill="none" stroke="#63b8ff" d="M4927.24,-219.33C4912.5,-210.23 4894.18,-197.7 4880,-184 4854.54,-159.4 4831.83,-123.61 4822.07,-107.25"/>
<polygon fill="#63b8ff" stroke="#63b8ff" points="4925.1,-222.12 4935.47,-224.26 4928.7,-216.12 4925.1,-222.12"/>
</g>
<!-- Node232 -->
<g id="node43" class="node">
<title>Node232</title>
<g id="a_node43"><a xlink:href="f__op__overlap_8cpp.html" target="_top" xlink:title=" ">
<polygon fill="white" stroke="#666666" points="5017,-178.5 4889,-178.5 4889,-159.5 5017,-159.5 5017,-178.5"/>
<text text-anchor="middle" x="4953" y="-166.5" font-family="Helvetica,sans-Serif" font-size="10.00">src/f_op/f_op_overlap.cpp</text>
</a>
</g>
</g>
<!-- Node2&#45;&gt;Node232 -->
<g id="edge46" class="edge">
<title>Node2&#45;&gt;Node232</title>
<path fill="none" stroke="#63b8ff" d="M4953,-213.68C4953,-201.94 4953,-187.77 4953,-178.82"/>
<polygon fill="#63b8ff" stroke="#63b8ff" points="4949.5,-213.59 4953,-223.59 4956.5,-213.59 4949.5,-213.59"/>
</g>
<!-- Node233 -->
<g id="node44" class="node">
<title>Node233</title>
<g id="a_node44"><a xlink:href="f__op__overlap__req_8cpp.html" target="_top" xlink:title=" ">
<polygon fill="white" stroke="#666666" points="5145,-184 5035,-184 5035,-154 5145,-154 5145,-184"/>
<text text-anchor="start" x="5043" y="-172" font-family="Helvetica,sans-Serif" font-size="10.00">src/f_op/f_op_overlap</text>
<text text-anchor="middle" x="5090" y="-161" font-family="Helvetica,sans-Serif" font-size="10.00">_req.cpp</text>
</a>
</g>
</g>
<!-- Node2&#45;&gt;Node233 -->
<g id="edge47" class="edge">
<title>Node2&#45;&gt;Node233</title>
<path fill="none" stroke="#63b8ff" d="M4982.37,-220.28C5004.94,-209.73 5036.04,-195.21 5059.01,-184.48"/>
<polygon fill="#63b8ff" stroke="#63b8ff" points="4981,-217.06 4973.42,-224.46 4983.96,-223.4 4981,-217.06"/>
</g>
<!-- Node234 -->
<g id="node45" class="node">
<title>Node234</title>
<g id="a_node45"><a xlink:href="f__op__scene_8cpp.html" target="_top" xlink:title=" ">
<polygon fill="white" stroke="#666666" points="5286.5,-178.5 5163.5,-178.5 5163.5,-159.5 5286.5,-159.5 5286.5,-178.5"/>
<text text-anchor="middle" x="5225" y="-166.5" font-family="Helvetica,sans-Serif" font-size="10.00">src/f_op/f_op_scene.cpp</text>
</a>
</g>
</g>
<!-- Node2&#45;&gt;Node234 -->
<g id="edge48" class="edge">
<title>Node2&#45;&gt;Node234</title>
<path fill="none" stroke="#63b8ff" d="M5002.29,-222.4C5055.45,-209.89 5138.92,-190.25 5187.15,-178.91"/>
<polygon fill="#63b8ff" stroke="#63b8ff" points="5001.51,-218.99 4992.58,-224.69 5003.12,-225.8 5001.51,-218.99"/>
</g>
<!-- Node235 -->
<g id="node46" class="node">
<title>Node235</title>
<g id="a_node46"><a xlink:href="f__op__scene__pause_8cpp.html" target="_top" xlink:title=" ">
<polygon fill="white" stroke="#666666" points="5409.5,-184 5304.5,-184 5304.5,-154 5409.5,-154 5409.5,-184"/>
<text text-anchor="start" x="5312.5" y="-172" font-family="Helvetica,sans-Serif" font-size="10.00">src/f_op/f_op_scene</text>
<text text-anchor="middle" x="5357" y="-161" font-family="Helvetica,sans-Serif" font-size="10.00">_pause.cpp</text>
</a>
</g>
</g>
<!-- Node2&#45;&gt;Node235 -->
<g id="edge49" class="edge">
<title>Node2&#45;&gt;Node235</title>
<path fill="none" stroke="#63b8ff" d="M5034.96,-223.82C5104.43,-214.76 5206.56,-200.42 5295,-184 5298.04,-183.44 5301.15,-182.83 5304.29,-182.19"/>
<polygon fill="#63b8ff" stroke="#63b8ff" points="5034.64,-220.33 5025.17,-225.09 5035.54,-227.27 5034.64,-220.33"/>
</g>
<!-- Node236 -->
<g id="node47" class="node">
<title>Node236</title>
<g id="a_node47"><a xlink:href="f__op__view_8cpp.html" target="_top" xlink:title=" ">
<polygon fill="white" stroke="#666666" points="5544.5,-178.5 5427.5,-178.5 5427.5,-159.5 5544.5,-159.5 5544.5,-178.5"/>
<text text-anchor="middle" x="5486" y="-166.5" font-family="Helvetica,sans-Serif" font-size="10.00">src/f_op/f_op_view.cpp</text>
</a>
</g>
</g>
<!-- Node2&#45;&gt;Node236 -->
<g id="edge50" class="edge">
<title>Node2&#45;&gt;Node236</title>
<path fill="none" stroke="#63b8ff" d="M5035.1,-227.57C5128.26,-219.72 5284.58,-204.86 5418,-184 5427.05,-182.59 5436.72,-180.78 5445.84,-178.93"/>
<polygon fill="#63b8ff" stroke="#63b8ff" points="5034.96,-224.07 5025.29,-228.39 5035.55,-231.04 5034.96,-224.07"/>
</g>
<!-- Node2&#45;&gt;Node25 -->
<g id="edge51" class="edge">
<title>Node2&#45;&gt;Node25</title>
<path fill="none" stroke="#63b8ff" d="M5035.12,-229.68C5150.94,-223.01 5368.72,-208.37 5553,-184 5563.37,-182.63 5574.47,-180.82 5584.92,-178.95"/>
<polygon fill="#63b8ff" stroke="#63b8ff" points="5035.19,-226.17 5025.41,-230.23 5035.59,-233.16 5035.19,-226.17"/>
</g>
<!-- Node4 -->
<g id="node4" class="node">
<title>Node4</title>
<g id="a_node4"><a xlink:href="d__a__alink_8h.html" target="_top" xlink:title=" ">
<polygon fill="#fff0f0" stroke="red" points="116,-107 0,-107 0,-88 116,-88 116,-107"/>
<text text-anchor="middle" x="58" y="-95" font-family="Helvetica,sans-Serif" font-size="10.00">include/d/a/d_a_alink.h</text>
</a>
</g>
</g>
<!-- Node3&#45;&gt;Node4 -->
<g id="edge3" class="edge">
<title>Node3&#45;&gt;Node4</title>
<path fill="none" stroke="#63b8ff" d="M2151.02,-167.4C1807.8,-164.35 328.39,-149.47 125,-118 110.87,-115.81 95.53,-111.5 83.1,-107.48"/>
<polygon fill="#63b8ff" stroke="#63b8ff" points="2150.97,-170.9 2161,-167.49 2151.03,-163.9 2150.97,-170.9"/>
</g>
<!-- Node184 -->
<g id="node5" class="node">
<title>Node184</title>
<g id="a_node5"><a xlink:href="d__a__obj__item_8h.html" target="_top" xlink:title=" ">
<polygon fill="#fff0f0" stroke="red" points="235.5,-112.5 134.5,-112.5 134.5,-82.5 235.5,-82.5 235.5,-112.5"/>
<text text-anchor="start" x="142.5" y="-100.5" font-family="Helvetica,sans-Serif" font-size="10.00">include/d/a/d_a_obj</text>
<text text-anchor="middle" x="185" y="-89.5" font-family="Helvetica,sans-Serif" font-size="10.00">_item.h</text>
</a>
</g>
</g>
<!-- Node3&#45;&gt;Node184 -->
<g id="edge4" class="edge">
<title>Node3&#45;&gt;Node184</title>
<path fill="none" stroke="#63b8ff" d="M2151.29,-167.44C1820.58,-164.67 434.54,-151.15 244,-118 237.2,-116.82 230.11,-115.01 223.3,-112.96"/>
<polygon fill="#63b8ff" stroke="#63b8ff" points="2151.06,-170.94 2161.09,-167.52 2151.12,-163.94 2151.06,-170.94"/>
</g>
<!-- Node185 -->
<g id="node6" class="node">
<title>Node185</title>
<g id="a_node6"><a xlink:href="d__a__obj__ss__base_8h.html" target="_top" xlink:title=" ">
<polygon fill="#fff0f0" stroke="red" points="354.5,-112.5 253.5,-112.5 253.5,-82.5 354.5,-82.5 354.5,-112.5"/>
<text text-anchor="start" x="261.5" y="-100.5" font-family="Helvetica,sans-Serif" font-size="10.00">include/d/a/d_a_obj</text>
<text text-anchor="middle" x="304" y="-89.5" font-family="Helvetica,sans-Serif" font-size="10.00">_ss_base.h</text>
</a>
</g>
</g>
<!-- Node3&#45;&gt;Node185 -->
<g id="edge5" class="edge">
<title>Node3&#45;&gt;Node185</title>
<path fill="none" stroke="#63b8ff" d="M2151.45,-167.32C1833.46,-164.09 541.28,-149.16 363,-118 356.2,-116.81 349.11,-115 342.3,-112.95"/>
<polygon fill="#63b8ff" stroke="#63b8ff" points="2151.24,-170.82 2161.27,-167.42 2151.31,-163.82 2151.24,-170.82"/>
</g>
<!-- Node187 -->
<g id="node7" class="node">
<title>Node187</title>
<g id="a_node7"><a xlink:href="d__bomb_8h.html" target="_top" xlink:title=" ">
<polygon fill="#fff0f0" stroke="red" points="473.5,-107 372.5,-107 372.5,-88 473.5,-88 473.5,-107"/>
<text text-anchor="middle" x="423" y="-95" font-family="Helvetica,sans-Serif" font-size="10.00">include/d/d_bomb.h</text>
</a>
</g>
</g>
<!-- Node3&#45;&gt;Node187 -->
<g id="edge6" class="edge">
<title>Node3&#45;&gt;Node187</title>
<path fill="none" stroke="#63b8ff" d="M2151.34,-168.43C1868.33,-169.78 816.25,-171.02 488,-118 474.28,-115.78 459.39,-111.47 447.34,-107.46"/>
<polygon fill="#63b8ff" stroke="#63b8ff" points="2151.16,-171.93 2161.14,-168.38 2151.13,-164.93 2151.16,-171.93"/>
</g>
<!-- Node105 -->
<g id="node8" class="node">
<title>Node105</title>
<g id="a_node8"><a xlink:href="d__a__obj__bombf_8h.html" target="_top" xlink:title=" ">
<polygon fill="white" stroke="#666666" points="524,-41 402,-41 402,0 524,0 524,-41"/>
<text text-anchor="start" x="410" y="-29" font-family="Helvetica,sans-Serif" font-size="10.00">include/rel/d/a/obj</text>
<text text-anchor="start" x="410" y="-18" font-family="Helvetica,sans-Serif" font-size="10.00">/d_a_obj_bombf/d_a_obj</text>
<text text-anchor="middle" x="463" y="-7" font-family="Helvetica,sans-Serif" font-size="10.00">_bombf.h</text>
</a>
</g>
</g>
<!-- Node3&#45;&gt;Node105 -->
<g id="edge28" class="edge">
<title>Node3&#45;&gt;Node105</title>
<path fill="none" stroke="#63b8ff" d="M2151.67,-167.81C1839.6,-166.72 592.35,-159.76 521,-118 492.32,-101.22 476.15,-64.17 468.53,-41.17"/>
<polygon fill="#63b8ff" stroke="#63b8ff" points="2151.28,-171.31 2161.29,-167.84 2151.3,-164.31 2151.28,-171.31"/>
</g>
<!-- Node189 -->
<g id="node9" class="node">
<title>Node189</title>
<g id="a_node9"><a xlink:href="d__door__param2_8h.html" target="_top" xlink:title=" ">
<polygon fill="#fff0f0" stroke="red" points="663.5,-107 530.5,-107 530.5,-88 663.5,-88 663.5,-107"/>
<text text-anchor="middle" x="597" y="-95" font-family="Helvetica,sans-Serif" font-size="10.00">include/d/d_door_param2.h</text>
</a>
</g>
</g>
<!-- Node3&#45;&gt;Node189 -->
<g id="edge8" class="edge">
<title>Node3&#45;&gt;Node189</title>
<path fill="none" stroke="#63b8ff" d="M2151.21,-167.77C1887.74,-166.6 964.17,-159.54 673,-118 657.09,-115.73 639.7,-111.41 625.57,-107.41"/>
<polygon fill="#63b8ff" stroke="#63b8ff" points="2150.99,-171.27 2161,-167.81 2151.02,-164.27 2150.99,-171.27"/>
</g>
<!-- Node90 -->
<g id="node10" class="node">
<title>Node90</title>
<g id="a_node10"><a xlink:href="d__a__andsw_8h.html" target="_top" xlink:title=" ">
<polygon fill="white" stroke="#666666" points="792,-112.5 682,-112.5 682,-82.5 792,-82.5 792,-112.5"/>
<text text-anchor="start" x="690" y="-100.5" font-family="Helvetica,sans-Serif" font-size="10.00">include/rel/d/a/d_a</text>
<text text-anchor="middle" x="737" y="-89.5" font-family="Helvetica,sans-Serif" font-size="10.00">_andsw/d_a_andsw.h</text>
</a>
</g>
</g>
<!-- Node3&#45;&gt;Node90 -->
<g id="edge9" class="edge">
<title>Node3&#45;&gt;Node90</title>
<path fill="none" stroke="#63b8ff" d="M2151.27,-167.94C1901.98,-167.36 1065.1,-162.1 801,-118 793.78,-116.79 786.24,-115 778.97,-112.98"/>
<polygon fill="#63b8ff" stroke="#63b8ff" points="2151.17,-171.44 2161.18,-167.96 2151.18,-164.44 2151.17,-171.44"/>
</g>
<!-- Node191 -->
<g id="node11" class="node">
<title>Node191</title>
<g id="a_node11"><a xlink:href="d__a__arrow_8h.html" target="_top" xlink:title=" ">
<polygon fill="white" stroke="#666666" points="911.5,-112.5 810.5,-112.5 810.5,-82.5 911.5,-82.5 911.5,-112.5"/>
<text text-anchor="start" x="818.5" y="-100.5" font-family="Helvetica,sans-Serif" font-size="10.00">include/rel/d/a/d_a</text>
<text text-anchor="middle" x="861" y="-89.5" font-family="Helvetica,sans-Serif" font-size="10.00">_arrow/d_a_arrow.h</text>
</a>
</g>
</g>
<!-- Node3&#45;&gt;Node191 -->
<g id="edge10" class="edge">
<title>Node3&#45;&gt;Node191</title>
<path fill="none" stroke="#63b8ff" d="M2151.31,-167.89C1915.83,-167.13 1159.43,-161.27 920,-118 913.31,-116.79 906.34,-115 899.64,-112.98"/>
<polygon fill="#63b8ff" stroke="#63b8ff" points="2151.26,-171.39 2161.27,-167.92 2151.28,-164.39 2151.26,-171.39"/>
</g>
<!-- Node192 -->
<g id="node12" class="node">
<title>Node192</title>
<g id="a_node12"><a xlink:href="d__a__boomerang_8h.html" target="_top" xlink:title=" ">
<polygon fill="#fff0f0" stroke="red" points="1078.5,-112.5 929.5,-112.5 929.5,-82.5 1078.5,-82.5 1078.5,-112.5"/>
<text text-anchor="start" x="937.5" y="-100.5" font-family="Helvetica,sans-Serif" font-size="10.00">include/rel/d/a/d_a</text>
<text text-anchor="middle" x="1004" y="-89.5" font-family="Helvetica,sans-Serif" font-size="10.00">_boomerang/d_a_boomerang.h</text>
</a>
</g>
</g>
<!-- Node3&#45;&gt;Node192 -->
<g id="edge11" class="edge">
<title>Node3&#45;&gt;Node192</title>
<path fill="none" stroke="#63b8ff" d="M2151.28,-166.59C1936.68,-162.03 1294.93,-146.34 1088,-118 1078.8,-116.74 1069.13,-114.95 1059.76,-112.95"/>
<polygon fill="#63b8ff" stroke="#63b8ff" points="2151.1,-170.08 2161.18,-166.79 2151.25,-163.08 2151.1,-170.08"/>
</g>
<!-- Node193 -->
<g id="node13" class="node">
<title>Node193</title>
<g id="a_node13"><a xlink:href="d__a__canoe_8h.html" target="_top" xlink:title=" ">
<polygon fill="white" stroke="#666666" points="1203,-112.5 1097,-112.5 1097,-82.5 1203,-82.5 1203,-112.5"/>
<text text-anchor="start" x="1105" y="-100.5" font-family="Helvetica,sans-Serif" font-size="10.00">include/rel/d/a/d_a</text>
<text text-anchor="middle" x="1150" y="-89.5" font-family="Helvetica,sans-Serif" font-size="10.00">_canoe/d_a_canoe.h</text>
</a>
</g>
</g>
<!-- Node3&#45;&gt;Node193 -->
<g id="edge12" class="edge">
<title>Node3&#45;&gt;Node193</title>
<path fill="none" stroke="#63b8ff" d="M2151.22,-166.84C1952.61,-163.22 1392.77,-150.35 1212,-118 1205.11,-116.77 1197.93,-114.99 1190.99,-113"/>
<polygon fill="#63b8ff" stroke="#63b8ff" points="2151.08,-170.34 2161.14,-167.02 2151.21,-163.34 2151.08,-170.34"/>
</g>
<!-- Node194 -->
<g id="node14" class="node">
<title>Node194</title>
<g id="a_node14"><a xlink:href="d__a__crod_8h.html" target="_top" xlink:title=" ">
<polygon fill="#fff0f0" stroke="red" points="1317,-112.5 1221,-112.5 1221,-82.5 1317,-82.5 1317,-112.5"/>
<text text-anchor="start" x="1229" y="-100.5" font-family="Helvetica,sans-Serif" font-size="10.00">include/rel/d/a/d_a</text>
<text text-anchor="middle" x="1269" y="-89.5" font-family="Helvetica,sans-Serif" font-size="10.00">_crod/d_a_crod.h</text>
</a>
</g>
</g>
<!-- Node3&#45;&gt;Node194 -->
<g id="edge13" class="edge">
<title>Node3&#45;&gt;Node194</title>
<path fill="none" stroke="#63b8ff" d="M2151.38,-166.55C1968.66,-162.41 1483.66,-148.76 1326,-118 1319.64,-116.76 1313.01,-114.97 1306.62,-112.98"/>
<polygon fill="#63b8ff" stroke="#63b8ff" points="2151.12,-170.05 2161.2,-166.77 2151.28,-163.05 2151.12,-170.05"/>
</g>
<!-- Node93 -->
<g id="node15" class="node">
<title>Node93</title>
<g id="a_node15"><a xlink:href="d__a__econt_8h.html" target="_top" xlink:title=" ">
<polygon fill="white" stroke="#666666" points="1436.5,-112.5 1335.5,-112.5 1335.5,-82.5 1436.5,-82.5 1436.5,-112.5"/>
<text text-anchor="start" x="1343.5" y="-100.5" font-family="Helvetica,sans-Serif" font-size="10.00">include/rel/d/a/d_a</text>
<text text-anchor="middle" x="1386" y="-89.5" font-family="Helvetica,sans-Serif" font-size="10.00">_econt/d_a_econt.h</text>
</a>
</g>
</g>
<!-- Node3&#45;&gt;Node93 -->
<g id="edge14" class="edge">
<title>Node3&#45;&gt;Node93</title>
<path fill="none" stroke="#63b8ff" d="M2151.12,-165.75C1985.91,-160.13 1579.12,-144.04 1445,-118 1438.43,-116.73 1431.59,-114.92 1424.98,-112.93"/>
<polygon fill="#63b8ff" stroke="#63b8ff" points="2150.97,-169.25 2161.08,-166.09 2151.2,-162.25 2150.97,-169.25"/>
</g>
<!-- Node94 -->
<g id="node16" class="node">
<title>Node94</title>
<g id="a_node16"><a xlink:href="d__a__guard__mng_8h.html" target="_top" xlink:title=" ">
<polygon fill="white" stroke="#666666" points="1603.5,-112.5 1454.5,-112.5 1454.5,-82.5 1603.5,-82.5 1603.5,-112.5"/>
<text text-anchor="start" x="1462.5" y="-100.5" font-family="Helvetica,sans-Serif" font-size="10.00">include/rel/d/a/d_a</text>
<text text-anchor="middle" x="1529" y="-89.5" font-family="Helvetica,sans-Serif" font-size="10.00">_guard_mng/d_a_guard_mng.h</text>
</a>
</g>
</g>
<!-- Node3&#45;&gt;Node94 -->
<g id="edge15" class="edge">
<title>Node3&#45;&gt;Node94</title>
<path fill="none" stroke="#63b8ff" d="M2151.57,-165.56C2037.74,-160.87 1806.55,-148.24 1613,-118 1604.27,-116.64 1595.11,-114.87 1586.17,-112.95"/>
<polygon fill="#63b8ff" stroke="#63b8ff" points="2151.23,-169.05 2161.36,-165.96 2151.51,-162.06 2151.23,-169.05"/>
</g>
<!-- Node95 -->
<g id="node17" class="node">
<title>Node95</title>
<g id="a_node17"><a xlink:href="d__a__hitobj_8h.html" target="_top" xlink:title=" ">
<polygon fill="white" stroke="#666666" points="1722,-112.5 1622,-112.5 1622,-82.5 1722,-82.5 1722,-112.5"/>
<text text-anchor="start" x="1630" y="-100.5" font-family="Helvetica,sans-Serif" font-size="10.00">include/rel/d/a/d_a</text>
<text text-anchor="middle" x="1672" y="-89.5" font-family="Helvetica,sans-Serif" font-size="10.00">_hitobj/d_a_hitobj.h</text>
</a>
</g>
</g>
<!-- Node3&#45;&gt;Node95 -->
<g id="edge16" class="edge">
<title>Node3&#45;&gt;Node95</title>
<path fill="none" stroke="#63b8ff" d="M2151.48,-165.63C2055.43,-161.32 1878.56,-149.5 1731,-118 1724.67,-116.65 1718.07,-114.86 1711.66,-112.91"/>
<polygon fill="#63b8ff" stroke="#63b8ff" points="2151.13,-169.12 2161.27,-166.06 2151.43,-162.13 2151.13,-169.12"/>
</g>
<!-- Node195 -->
<g id="node18" class="node">
<title>Node195</title>
<g id="a_node18"><a xlink:href="d__a__scene__exit_8h.html" target="_top" xlink:title=" ">
<polygon fill="#fff0f0" stroke="red" points="1859.5,-118 1740.5,-118 1740.5,-77 1859.5,-77 1859.5,-118"/>
<text text-anchor="start" x="1748.5" y="-106" font-family="Helvetica,sans-Serif" font-size="10.00">include/rel/d/a/d_a</text>
<text text-anchor="start" x="1748.5" y="-95" font-family="Helvetica,sans-Serif" font-size="10.00">_scene_exit/d_a_scene</text>
<text text-anchor="middle" x="1800" y="-84" font-family="Helvetica,sans-Serif" font-size="10.00">_exit.h</text>
</a>
</g>
</g>
<!-- Node3&#45;&gt;Node195 -->
<g id="edge17" class="edge">
<title>Node3&#45;&gt;Node195</title>
<path fill="none" stroke="#63b8ff" d="M2151.53,-160.97C2079.73,-153.12 1965.39,-138.74 1868,-118 1865.36,-117.44 1862.67,-116.83 1859.96,-116.18"/>
<polygon fill="#63b8ff" stroke="#63b8ff" points="2150.86,-164.41 2161.18,-162.01 2151.61,-157.45 2150.86,-164.41"/>
</g>
<!-- Node196 -->
<g id="node19" class="node">
<title>Node196</title>
<g id="a_node19"><a xlink:href="d__a__suspend_8h.html" target="_top" xlink:title=" ">
<polygon fill="#fff0f0" stroke="red" points="2004.5,-112.5 1877.5,-112.5 1877.5,-82.5 2004.5,-82.5 2004.5,-112.5"/>
<text text-anchor="start" x="1885.5" y="-100.5" font-family="Helvetica,sans-Serif" font-size="10.00">include/rel/d/a/d_a</text>
<text text-anchor="middle" x="1941" y="-89.5" font-family="Helvetica,sans-Serif" font-size="10.00">_suspend/d_a_suspend.h</text>
</a>
</g>
</g>
<!-- Node3&#45;&gt;Node196 -->
<g id="edge18" class="edge">
<title>Node3&#45;&gt;Node196</title>
<path fill="none" stroke="#63b8ff" d="M2151.66,-151.56C2111.31,-142.01 2059.74,-129.6 2014,-118 2007.64,-116.39 2000.98,-114.66 1994.38,-112.93"/>
<polygon fill="#63b8ff" stroke="#63b8ff" points="2150.72,-154.93 2161.26,-153.82 2152.33,-148.12 2150.72,-154.93"/>
</g>
<!-- Node101 -->
<g id="node20" class="node">
<title>Node101</title>
<g id="a_node20"><a xlink:href="d__a__swTime_8h.html" target="_top" xlink:title=" ">
<polygon fill="white" stroke="#666666" points="2145,-112.5 2023,-112.5 2023,-82.5 2145,-82.5 2145,-112.5"/>
<text text-anchor="start" x="2031" y="-100.5" font-family="Helvetica,sans-Serif" font-size="10.00">include/rel/d/a/d_a</text>
<text text-anchor="middle" x="2084" y="-89.5" font-family="Helvetica,sans-Serif" font-size="10.00">_swTime/d_a_swTime.h</text>
</a>
</g>
</g>
<!-- Node3&#45;&gt;Node101 -->
<g id="edge19" class="edge">
<title>Node3&#45;&gt;Node101</title>
<path fill="none" stroke="#63b8ff" d="M2183.19,-148.46C2160.75,-137.15 2132.99,-123.17 2112.56,-112.88"/>
<polygon fill="#63b8ff" stroke="#63b8ff" points="2181.55,-151.55 2192.05,-152.92 2184.7,-145.29 2181.55,-151.55"/>
</g>
<!-- Node198 -->
<g id="node21" class="node">
<title>Node198</title>
<g id="a_node21"><a xlink:href="d__a__tboxSw_8h.html" target="_top" xlink:title=" ">
<polygon fill="white" stroke="#666666" points="2281,-112.5 2163,-112.5 2163,-82.5 2281,-82.5 2281,-112.5"/>
<text text-anchor="start" x="2171" y="-100.5" font-family="Helvetica,sans-Serif" font-size="10.00">include/rel/d/a/d_a</text>
<text text-anchor="middle" x="2222" y="-89.5" font-family="Helvetica,sans-Serif" font-size="10.00">_tboxSw/d_a_tboxSw.h</text>
</a>
</g>
</g>
<!-- Node3&#45;&gt;Node198 -->
<g id="edge20" class="edge">
<title>Node3&#45;&gt;Node198</title>
<path fill="none" stroke="#63b8ff" d="M2222,-142.26C2222,-132.33 2222,-121.36 2222,-112.88"/>
<polygon fill="#63b8ff" stroke="#63b8ff" points="2218.5,-142.09 2222,-152.09 2225.5,-142.09 2218.5,-142.09"/>
</g>
<!-- Node103 -->
<g id="node22" class="node">
<title>Node103</title>
<g id="a_node22"><a xlink:href="d__a__e__db__leaf_8h.html" target="_top" xlink:title=" ">
<polygon fill="white" stroke="#666666" points="2418.5,-118 2299.5,-118 2299.5,-77 2418.5,-77 2418.5,-118"/>
<text text-anchor="start" x="2307.5" y="-106" font-family="Helvetica,sans-Serif" font-size="10.00">include/rel/d/a/e/d</text>
<text text-anchor="start" x="2307.5" y="-95" font-family="Helvetica,sans-Serif" font-size="10.00">_a_e_db_leaf/d_a_e_db</text>
<text text-anchor="middle" x="2359" y="-84" font-family="Helvetica,sans-Serif" font-size="10.00">_leaf.h</text>
</a>
</g>
</g>
<!-- Node3&#45;&gt;Node103 -->
<g id="edge21" class="edge">
<title>Node3&#45;&gt;Node103</title>
<path fill="none" stroke="#63b8ff" d="M2260.52,-148.46C2279.02,-139.07 2301.15,-127.85 2319.74,-118.42"/>
<polygon fill="#63b8ff" stroke="#63b8ff" points="2259.07,-145.27 2251.74,-152.91 2262.24,-151.51 2259.07,-145.27"/>
</g>
<!-- Node199 -->
<g id="node23" class="node">
<title>Node199</title>
<g id="a_node23"><a xlink:href="d__a__e__ge_8h.html" target="_top" xlink:title=" ">
<polygon fill="#fff0f0" stroke="red" points="2543,-112.5 2437,-112.5 2437,-82.5 2543,-82.5 2543,-112.5"/>
<text text-anchor="start" x="2445" y="-100.5" font-family="Helvetica,sans-Serif" font-size="10.00">include/rel/d/a/e/d</text>
<text text-anchor="middle" x="2490" y="-89.5" font-family="Helvetica,sans-Serif" font-size="10.00">_a_e_ge/d_a_e_ge.h</text>
</a>
</g>
</g>
<!-- Node3&#45;&gt;Node199 -->
<g id="edge22" class="edge">
<title>Node3&#45;&gt;Node199</title>
<path fill="none" stroke="#63b8ff" d="M2292.61,-151.9C2332.26,-142.58 2382.56,-130.29 2427,-118 2432.63,-116.44 2438.51,-114.73 2444.33,-112.99"/>
<polygon fill="#63b8ff" stroke="#63b8ff" points="2291.87,-148.48 2282.93,-154.16 2293.46,-155.29 2291.87,-148.48"/>
</g>
<!-- Node19 -->
<g id="node24" class="node">
<title>Node19</title>
<g id="a_node24"><a xlink:href="d__a__e__yk_8h.html" target="_top" xlink:title=" ">
<polygon fill="white" stroke="#666666" points="2665,-112.5 2561,-112.5 2561,-82.5 2665,-82.5 2665,-112.5"/>
<text text-anchor="start" x="2569" y="-100.5" font-family="Helvetica,sans-Serif" font-size="10.00">include/rel/d/a/e/d</text>
<text text-anchor="middle" x="2613" y="-89.5" font-family="Helvetica,sans-Serif" font-size="10.00">_a_e_yk/d_a_e_yk.h</text>
</a>
</g>
</g>
<!-- Node3&#45;&gt;Node19 -->
<g id="edge23" class="edge">
<title>Node3&#45;&gt;Node19</title>
<path fill="none" stroke="#63b8ff" d="M2292.55,-160.6C2359.79,-152.78 2463.6,-138.69 2552,-118 2558.17,-116.56 2564.62,-114.79 2570.91,-112.91"/>
<polygon fill="#63b8ff" stroke="#63b8ff" points="2292.29,-157.11 2282.76,-161.73 2293.09,-164.06 2292.29,-157.11"/>
</g>
<!-- Node200 -->
<g id="node25" class="node">
<title>Node200</title>
<g id="a_node25"><a xlink:href="d__a__kytag06_8h.html" target="_top" xlink:title=" ">
<polygon fill="white" stroke="#666666" points="2823,-112.5 2683,-112.5 2683,-82.5 2823,-82.5 2823,-112.5"/>
<text text-anchor="start" x="2691" y="-100.5" font-family="Helvetica,sans-Serif" font-size="10.00">include/rel/d/a/kytag</text>
<text text-anchor="middle" x="2753" y="-89.5" font-family="Helvetica,sans-Serif" font-size="10.00">/d_a_kytag06/d_a_kytag06.h</text>
</a>
</g>
</g>
<!-- Node3&#45;&gt;Node200 -->
<g id="edge24" class="edge">
<title>Node3&#45;&gt;Node200</title>
<path fill="none" stroke="#63b8ff" d="M2292.56,-163.09C2381.85,-156.22 2540.15,-141.82 2674,-118 2681.93,-116.59 2690.24,-114.84 2698.38,-112.97"/>
<polygon fill="#63b8ff" stroke="#63b8ff" points="2292.44,-159.59 2282.73,-163.84 2292.97,-166.57 2292.44,-159.59"/>
</g>
<!-- Node201 -->
<g id="node26" class="node">
<title>Node201</title>
<g id="a_node26"><a xlink:href="d__a__kytag07_8h.html" target="_top" xlink:title=" ">
<polygon fill="white" stroke="#666666" points="2981,-112.5 2841,-112.5 2841,-82.5 2981,-82.5 2981,-112.5"/>
<text text-anchor="start" x="2849" y="-100.5" font-family="Helvetica,sans-Serif" font-size="10.00">include/rel/d/a/kytag</text>
<text text-anchor="middle" x="2911" y="-89.5" font-family="Helvetica,sans-Serif" font-size="10.00">/d_a_kytag07/d_a_kytag07.h</text>
</a>
</g>
</g>
<!-- Node3&#45;&gt;Node201 -->
<g id="edge25" class="edge">
<title>Node3&#45;&gt;Node201</title>
<path fill="none" stroke="#63b8ff" d="M2292.6,-165.88C2406.68,-161.64 2638.35,-149.63 2832,-118 2840.23,-116.66 2848.86,-114.9 2857.27,-112.98"/>
<polygon fill="#63b8ff" stroke="#63b8ff" points="2292.65,-162.38 2282.78,-166.24 2292.9,-169.37 2292.65,-162.38"/>
</g>
<!-- Node202 -->
<g id="node27" class="node">
<title>Node202</title>
<g id="a_node27"><a xlink:href="d__a__kytag17_8h.html" target="_top" xlink:title=" ">
<polygon fill="white" stroke="#666666" points="3139,-112.5 2999,-112.5 2999,-82.5 3139,-82.5 3139,-112.5"/>
<text text-anchor="start" x="3007" y="-100.5" font-family="Helvetica,sans-Serif" font-size="10.00">include/rel/d/a/kytag</text>
<text text-anchor="middle" x="3069" y="-89.5" font-family="Helvetica,sans-Serif" font-size="10.00">/d_a_kytag17/d_a_kytag17.h</text>
</a>
</g>
</g>
<!-- Node3&#45;&gt;Node202 -->
<g id="edge26" class="edge">
<title>Node3&#45;&gt;Node202</title>
<path fill="none" stroke="#63b8ff" d="M2292.6,-167.57C2428.44,-165.82 2735.31,-157.41 2990,-118 2998.52,-116.68 3007.46,-114.89 3016.14,-112.91"/>
<polygon fill="#63b8ff" stroke="#63b8ff" points="2292.63,-164.07 2282.67,-167.69 2292.72,-171.07 2292.63,-164.07"/>
</g>
<!-- Node203 -->
<g id="node28" class="node">
<title>Node203</title>
<g id="a_node28"><a xlink:href="d__a__npc__theB_8h.html" target="_top" xlink:title=" ">
<polygon fill="white" stroke="#666666" points="3279,-118 3157,-118 3157,-77 3279,-77 3279,-118"/>
<text text-anchor="start" x="3165" y="-106" font-family="Helvetica,sans-Serif" font-size="10.00">include/rel/d/a/npc</text>
<text text-anchor="start" x="3165" y="-95" font-family="Helvetica,sans-Serif" font-size="10.00">/d_a_npc_theB/d_a_npc</text>
<text text-anchor="middle" x="3218" y="-84" font-family="Helvetica,sans-Serif" font-size="10.00">_theB.h</text>
</a>
</g>
</g>
<!-- Node3&#45;&gt;Node203 -->
<g id="edge27" class="edge">
<title>Node3&#45;&gt;Node203</title>
<path fill="none" stroke="#63b8ff" d="M2292.61,-166.18C2479.42,-161.04 2983.54,-145.02 3148,-118 3150.86,-117.53 3153.78,-116.99 3156.71,-116.39"/>
<polygon fill="#63b8ff" stroke="#63b8ff" points="2292.71,-162.67 2282.81,-166.44 2292.9,-169.67 2292.71,-162.67"/>
</g>
<!-- Node107 -->
<g id="node29" class="node">
<title>Node107</title>
<g id="a_node29"><a xlink:href="d__a__obj__cowdoor_8h.html" target="_top" xlink:title=" ">
<polygon fill="white" stroke="#666666" points="3411,-118 3297,-118 3297,-77 3411,-77 3411,-118"/>
<text text-anchor="start" x="3305" y="-106" font-family="Helvetica,sans-Serif" font-size="10.00">include/rel/d/a/obj</text>
<text text-anchor="start" x="3305" y="-95" font-family="Helvetica,sans-Serif" font-size="10.00">/d_a_obj_cowdoor/d_a</text>
<text text-anchor="middle" x="3354" y="-84" font-family="Helvetica,sans-Serif" font-size="10.00">_obj_cowdoor.h</text>
</a>
</g>
</g>
<!-- Node3&#45;&gt;Node107 -->
<g id="edge29" class="edge">
<title>Node3&#45;&gt;Node107</title>
<path fill="none" stroke="#63b8ff" d="M2292.41,-166.9C2498.09,-163.35 3095.59,-150.45 3288,-118 3290.83,-117.52 3293.71,-116.96 3296.6,-116.34"/>
<polygon fill="#63b8ff" stroke="#63b8ff" points="2292.62,-163.4 2282.69,-167.07 2292.74,-170.4 2292.62,-163.4"/>
</g>
<!-- Node204 -->
<g id="node30" class="node">
<title>Node204</title>
<g id="a_node30"><a xlink:href="d__a__obj__eff_8h.html" target="_top" xlink:title=" ">
<polygon fill="white" stroke="#666666" points="3558.5,-112.5 3429.5,-112.5 3429.5,-82.5 3558.5,-82.5 3558.5,-112.5"/>
<text text-anchor="start" x="3437.5" y="-100.5" font-family="Helvetica,sans-Serif" font-size="10.00">include/rel/d/a/obj</text>
<text text-anchor="middle" x="3494" y="-89.5" font-family="Helvetica,sans-Serif" font-size="10.00">/d_a_obj_eff/d_a_obj_eff.h</text>
</a>
</g>
</g>
<!-- Node3&#45;&gt;Node204 -->
<g id="edge30" class="edge">
<title>Node3&#45;&gt;Node204</title>
<path fill="none" stroke="#63b8ff" d="M2292.57,-167.05C2515.14,-163.75 3200.48,-151.11 3420,-118 3428.28,-116.75 3436.96,-114.94 3445.35,-112.91"/>
<polygon fill="#63b8ff" stroke="#63b8ff" points="2292.85,-163.55 2282.9,-167.2 2292.95,-170.55 2292.85,-163.55"/>
</g>
<!-- Node110 -->
<g id="node31" class="node">
<title>Node110</title>
<g id="a_node31"><a xlink:href="d__a__obj__onsenFire_8h.html" target="_top" xlink:title=" ">
<polygon fill="white" stroke="#666666" points="3687,-118 3577,-118 3577,-77 3687,-77 3687,-118"/>
<text text-anchor="start" x="3585" y="-106" font-family="Helvetica,sans-Serif" font-size="10.00">include/rel/d/a/obj</text>
<text text-anchor="start" x="3585" y="-95" font-family="Helvetica,sans-Serif" font-size="10.00">/d_a_obj_onsenFire/d</text>
<text text-anchor="middle" x="3632" y="-84" font-family="Helvetica,sans-Serif" font-size="10.00">_a_obj_onsenFire.h</text>
</a>
</g>
</g>
<!-- Node3&#45;&gt;Node110 -->
<g id="edge31" class="edge">
<title>Node3&#45;&gt;Node110</title>
<path fill="none" stroke="#63b8ff" d="M2292.55,-167.74C2532.84,-166.48 3318.22,-159.25 3567,-118 3570.14,-117.48 3573.34,-116.85 3576.55,-116.15"/>
<polygon fill="#63b8ff" stroke="#63b8ff" points="2292.68,-164.24 2282.7,-167.79 2292.72,-171.24 2292.68,-164.24"/>
</g>
<!-- Node111 -->
<g id="node32" class="node">
<title>Node111</title>
<g id="a_node32"><a xlink:href="d__a__obj__smoke_8h.html" target="_top" xlink:title=" ">
<polygon fill="white" stroke="#666666" points="3830.5,-118 3705.5,-118 3705.5,-77 3830.5,-77 3830.5,-118"/>
<text text-anchor="start" x="3713.5" y="-106" font-family="Helvetica,sans-Serif" font-size="10.00">include/rel/d/a/obj</text>
<text text-anchor="start" x="3713.5" y="-95" font-family="Helvetica,sans-Serif" font-size="10.00">/d_a_obj_smoke/d_a_obj</text>
<text text-anchor="middle" x="3768" y="-84" font-family="Helvetica,sans-Serif" font-size="10.00">_smoke.h</text>
</a>
</g>
</g>
<!-- Node3&#45;&gt;Node111 -->
<g id="edge32" class="edge">
<title>Node3&#45;&gt;Node111</title>
<path fill="none" stroke="#63b8ff" d="M2292.76,-167.76C2547.95,-166.55 3420.44,-159.42 3696,-118 3699.07,-117.54 3702.2,-116.99 3705.35,-116.38"/>
<polygon fill="#63b8ff" stroke="#63b8ff" points="2292.93,-164.26 2282.95,-167.8 2292.96,-171.26 2292.93,-164.26"/>
</g>
<!-- Node114 -->
<g id="node33" class="node">
<title>Node114</title>
<g id="a_node33"><a xlink:href="d__a__obj__tmoon_8h.html" target="_top" xlink:title=" ">
<polygon fill="white" stroke="#666666" points="3971,-118 3849,-118 3849,-77 3971,-77 3971,-118"/>
<text text-anchor="start" x="3857" y="-106" font-family="Helvetica,sans-Serif" font-size="10.00">include/rel/d/a/obj</text>
<text text-anchor="start" x="3857" y="-95" font-family="Helvetica,sans-Serif" font-size="10.00">/d_a_obj_tmoon/d_a_obj</text>
<text text-anchor="middle" x="3910" y="-84" font-family="Helvetica,sans-Serif" font-size="10.00">_tmoon.h</text>
</a>
</g>
</g>
<!-- Node3&#45;&gt;Node114 -->
<g id="edge33" class="edge">
<title>Node3&#45;&gt;Node114</title>
<path fill="none" stroke="#63b8ff" d="M2292.3,-168.04C2562.46,-167.85 3534.06,-163.92 3839,-118 3842.16,-117.52 3845.38,-116.96 3848.62,-116.32"/>
<polygon fill="#63b8ff" stroke="#63b8ff" points="2292.61,-164.54 2282.61,-168.05 2292.61,-171.54 2292.61,-164.54"/>
</g>
<!-- Node119 -->
<g id="node34" class="node">
<title>Node119</title>
<g id="a_node34"><a xlink:href="d__a__tag__ajnot_8h.html" target="_top" xlink:title=" ">
<polygon fill="white" stroke="#666666" points="4107,-118 3989,-118 3989,-77 4107,-77 4107,-118"/>
<text text-anchor="start" x="3997" y="-106" font-family="Helvetica,sans-Serif" font-size="10.00">include/rel/d/a/tag</text>
<text text-anchor="start" x="3997" y="-95" font-family="Helvetica,sans-Serif" font-size="10.00">/d_a_tag_ajnot/d_a_tag</text>
<text text-anchor="middle" x="4048" y="-84" font-family="Helvetica,sans-Serif" font-size="10.00">_ajnot.h</text>
</a>
</g>
</g>
<!-- Node3&#45;&gt;Node119 -->
<g id="edge34" class="edge">
<title>Node3&#45;&gt;Node119</title>
<path fill="none" stroke="#63b8ff" d="M2292.66,-168.35C2578.09,-169.4 3646.5,-169.72 3980,-118 3982.91,-117.55 3985.88,-117.01 3988.86,-116.41"/>
<polygon fill="#63b8ff" stroke="#63b8ff" points="2292.78,-164.85 2282.76,-168.31 2292.75,-171.85 2292.78,-164.85"/>
</g>
<!-- Node205 -->
<g id="node35" class="node">
<title>Node205</title>
<g id="a_node35"><a xlink:href="d__a__tag__arena_8h.html" target="_top" xlink:title=" ">
<polygon fill="white" stroke="#666666" points="4246.5,-118 4125.5,-118 4125.5,-77 4246.5,-77 4246.5,-118"/>
<text text-anchor="start" x="4133.5" y="-106" font-family="Helvetica,sans-Serif" font-size="10.00">include/rel/d/a/tag</text>
<text text-anchor="start" x="4133.5" y="-95" font-family="Helvetica,sans-Serif" font-size="10.00">/d_a_tag_arena/d_a_tag</text>
<text text-anchor="middle" x="4186" y="-84" font-family="Helvetica,sans-Serif" font-size="10.00">_arena.h</text>
</a>
</g>
</g>
<!-- Node3&#45;&gt;Node205 -->
<g id="edge35" class="edge">
<title>Node3&#45;&gt;Node205</title>
<path fill="none" stroke="#63b8ff" d="M2292.78,-167.16C2614.78,-163.19 3933.45,-145.41 4116,-118 4118.99,-117.55 4122.04,-117.01 4125.11,-116.41"/>
<polygon fill="#63b8ff" stroke="#63b8ff" points="2292.78,-163.66 2282.82,-167.28 2292.86,-170.66 2292.78,-163.66"/>
</g>
<!-- Node120 -->
<g id="node36" class="node">
<title>Node120</title>
<g id="a_node36"><a xlink:href="d__a__tag__assistance_8h.html" target="_top" xlink:title=" ">
<polygon fill="white" stroke="#666666" points="4379,-118 4265,-118 4265,-77 4379,-77 4379,-118"/>
<text text-anchor="start" x="4273" y="-106" font-family="Helvetica,sans-Serif" font-size="10.00">include/rel/d/a/tag</text>
<text text-anchor="start" x="4273" y="-95" font-family="Helvetica,sans-Serif" font-size="10.00">/d_a_tag_assistance</text>
<text text-anchor="middle" x="4322" y="-84" font-family="Helvetica,sans-Serif" font-size="10.00">/d_a_tag_assistance.h</text>
</a>
</g>
</g>
<!-- Node3&#45;&gt;Node120 -->
<g id="edge36" class="edge">
<title>Node3&#45;&gt;Node120</title>
<path fill="none" stroke="#63b8ff" d="M2292.49,-167.35C2628.34,-164.09 4058.15,-148.54 4255,-118 4258.23,-117.5 4261.53,-116.89 4264.84,-116.19"/>
<polygon fill="#63b8ff" stroke="#63b8ff" points="2292.95,-163.84 2282.98,-167.44 2293.01,-170.84 2292.95,-163.84"/>
</g>
<!-- Node121 -->
<g id="node37" class="node">
<title>Node121</title>
<g id="a_node37"><a xlink:href="d__a__tag__attention_8h.html" target="_top" xlink:title=" ">
<polygon fill="white" stroke="#666666" points="4502.5,-118 4397.5,-118 4397.5,-77 4502.5,-77 4502.5,-118"/>
<text text-anchor="start" x="4405.5" y="-106" font-family="Helvetica,sans-Serif" font-size="10.00">include/rel/d/a/tag</text>
<text text-anchor="start" x="4405.5" y="-95" font-family="Helvetica,sans-Serif" font-size="10.00">/d_a_tag_attention/d</text>
<text text-anchor="middle" x="4450" y="-84" font-family="Helvetica,sans-Serif" font-size="10.00">_a_tag_attention.h</text>
</a>
</g>
</g>
<!-- Node3&#45;&gt;Node121 -->
<g id="edge37" class="edge">
<title>Node3&#45;&gt;Node121</title>
<path fill="none" stroke="#63b8ff" d="M2292.76,-167.55C2642.46,-165.16 4177.76,-152.77 4388,-118 4391.01,-117.5 4394.07,-116.89 4397.14,-116.2"/>
<polygon fill="#63b8ff" stroke="#63b8ff" points="2292.8,-164.05 2282.82,-167.62 2292.84,-171.05 2292.8,-164.05"/>
</g>
<!-- Node187&#45;&gt;Node105 -->
<g id="edge7" class="edge">
<title>Node187&#45;&gt;Node105</title>
<path fill="none" stroke="#63b8ff" d="M433.02,-77.71C438.93,-66.62 446.41,-52.61 452.41,-41.35"/>
<polygon fill="#63b8ff" stroke="#63b8ff" points="430.08,-75.8 428.46,-86.27 436.25,-79.09 430.08,-75.8"/>
</g>
<!-- Node222&#45;&gt;Node83 -->
<g id="edge39" class="edge">
<title>Node222&#45;&gt;Node83</title>
<path fill="none" stroke="#63b8ff" d="M4599.47,-78.2C4608.98,-63.02 4622.09,-42.11 4629.43,-30.39"/>
<polygon fill="#63b8ff" stroke="#63b8ff" points="4596.72,-75.99 4594.38,-86.32 4602.66,-79.7 4596.72,-75.99"/>
</g>
<!-- Node227&#45;&gt;Node222 -->
<g id="edge41" class="edge">
<title>Node227&#45;&gt;Node222</title>
<path fill="none" stroke="#63b8ff" d="M4589.9,-142.46C4589.36,-130.07 4588.76,-115.99 4588.37,-107.18"/>
<polygon fill="#63b8ff" stroke="#63b8ff" points="4586.39,-142.25 4590.31,-152.09 4593.38,-141.95 4586.39,-142.25"/>
</g>
<!-- Node228&#45;&gt;Node230 -->
<g id="edge43" class="edge">
<title>Node228&#45;&gt;Node230</title>
<path fill="none" stroke="#63b8ff" d="M4787.55,-143.99C4795.8,-131.24 4805.44,-116.36 4811.38,-107.18"/>
<polygon fill="#63b8ff" stroke="#63b8ff" points="4784.64,-142.03 4782.15,-152.33 4790.52,-145.84 4784.64,-142.03"/>
</g>
</g>
</svg>
