<?xml version="1.0" encoding="UTF-8" standalone="no"?>
<!DOCTYPE svg PUBLIC "-//W3C//DTD SVG 1.1//EN"
 "http://www.w3.org/Graphics/SVG/1.1/DTD/svg11.dtd">
<!-- Generated by graphviz version 7.0.5 (20221223.1930)
 -->
<!-- Title: include/f_pc/f_pc_create_iter.h Pages: 1 -->
<svg width="5823pt" height="302pt"
 viewBox="0.00 0.00 5823.00 302.00" xmlns="http://www.w3.org/2000/svg" xmlns:xlink="http://www.w3.org/1999/xlink">
<g id="graph0" class="graph" transform="scale(1 1) rotate(0) translate(4 298)">
<title>include/f_pc/f_pc_create_iter.h</title>
<!-- Node1 -->
<g id="node1" class="node">
<title>Node1</title>
<g id="a_node1"><a xlink:title=" ">
<polygon fill="#999999" stroke="#666666" points="5134.5,-294 5011.5,-294 5011.5,-264 5134.5,-264 5134.5,-294"/>
<text text-anchor="start" x="5019.5" y="-282" font-family="Helvetica,sans-Serif" font-size="10.00">include/f_pc/f_pc_create</text>
<text text-anchor="middle" x="5073" y="-271" font-family="Helvetica,sans-Serif" font-size="10.00">_iter.h</text>
</a>
</g>
</g>
<!-- Node2 -->
<g id="node2" class="node">
<title>Node2</title>
<g id="a_node2"><a xlink:href="f__pc__manager_8h.html" target="_top" xlink:title=" ">
<polygon fill="white" stroke="#666666" points="5001.5,-222.5 4860.5,-222.5 4860.5,-203.5 5001.5,-203.5 5001.5,-222.5"/>
<text text-anchor="middle" x="4931" y="-210.5" font-family="Helvetica,sans-Serif" font-size="10.00">include/f_pc/f_pc_manager.h</text>
</a>
</g>
</g>
<!-- Node1&#45;&gt;Node2 -->
<g id="edge1" class="edge">
<title>Node1&#45;&gt;Node2</title>
<path fill="none" stroke="#63b8ff" d="M5030.99,-259.06C5004.54,-247.14 4971.61,-232.3 4950.94,-222.99"/>
<polygon fill="#63b8ff" stroke="#63b8ff" points="5029.2,-262.1 5039.75,-263.02 5032.07,-255.72 5029.2,-262.1"/>
</g>
<!-- Node278 -->
<g id="node49" class="node">
<title>Node278</title>
<g id="a_node49"><a xlink:href="f__pc__create__iter_8cpp.html" target="_top" xlink:title=" ">
<polygon fill="white" stroke="#666666" points="5126,-228 5020,-228 5020,-198 5126,-198 5126,-228"/>
<text text-anchor="start" x="5028" y="-216" font-family="Helvetica,sans-Serif" font-size="10.00">src/f_pc/f_pc_create</text>
<text text-anchor="middle" x="5073" y="-205" font-family="Helvetica,sans-Serif" font-size="10.00">_iter.cpp</text>
</a>
</g>
</g>
<!-- Node1&#45;&gt;Node278 -->
<g id="edge49" class="edge">
<title>Node1&#45;&gt;Node278</title>
<path fill="none" stroke="#63b8ff" d="M5073,-252.39C5073,-244.13 5073,-235.28 5073,-228.16"/>
<polygon fill="#63b8ff" stroke="#63b8ff" points="5069.5,-252.28 5073,-262.28 5076.5,-252.28 5069.5,-252.28"/>
</g>
<!-- Node279 -->
<g id="node50" class="node">
<title>Node279</title>
<g id="a_node50"><a xlink:href="f__pc__create__req_8cpp.html" target="_top" xlink:title=" ">
<polygon fill="white" stroke="#666666" points="5250,-228 5144,-228 5144,-198 5250,-198 5250,-228"/>
<text text-anchor="start" x="5152" y="-216" font-family="Helvetica,sans-Serif" font-size="10.00">src/f_pc/f_pc_create</text>
<text text-anchor="middle" x="5197" y="-205" font-family="Helvetica,sans-Serif" font-size="10.00">_req.cpp</text>
</a>
</g>
</g>
<!-- Node1&#45;&gt;Node279 -->
<g id="edge50" class="edge">
<title>Node1&#45;&gt;Node279</title>
<path fill="none" stroke="#63b8ff" d="M5110.87,-258.45C5129.7,-248.73 5152.05,-237.2 5169.26,-228.31"/>
<polygon fill="#63b8ff" stroke="#63b8ff" points="5109.45,-255.25 5102.17,-262.94 5112.66,-261.47 5109.45,-255.25"/>
</g>
<!-- Node3 -->
<g id="node3" class="node">
<title>Node3</title>
<g id="a_node3"><a xlink:href="f__op__actor__mng_8h.html" target="_top" xlink:title=" ">
<polygon fill="#fff0f0" stroke="red" points="2254,-162 2136,-162 2136,-132 2254,-132 2254,-162"/>
<text text-anchor="start" x="2144" y="-150" font-family="Helvetica,sans-Serif" font-size="10.00">include/f_op/f_op_actor</text>
<text text-anchor="middle" x="2195" y="-139" font-family="Helvetica,sans-Serif" font-size="10.00">_mng.h</text>
</a>
</g>
</g>
<!-- Node2&#45;&gt;Node3 -->
<g id="edge2" class="edge">
<title>Node2&#45;&gt;Node3</title>
<path fill="none" stroke="#63b8ff" d="M4848.8,-210.08C4437.45,-200.45 2608.1,-157.66 2254.34,-149.39"/>
<polygon fill="#63b8ff" stroke="#63b8ff" points="4848.68,-213.58 4858.76,-210.31 4848.84,-206.58 4848.68,-213.58"/>
</g>
<!-- Node16 -->
<g id="node5" class="node">
<title>Node16</title>
<g id="a_node5"><a xlink:href="f__op__actor_8cpp.html" target="_top" xlink:title=" ">
<polygon fill="white" stroke="#666666" points="2220.5,-19 2101.5,-19 2101.5,0 2220.5,0 2220.5,-19"/>
<text text-anchor="middle" x="2161" y="-7" font-family="Helvetica,sans-Serif" font-size="10.00">src/f_op/f_op_actor.cpp</text>
</a>
</g>
</g>
<!-- Node2&#45;&gt;Node16 -->
<g id="edge40" class="edge">
<title>Node2&#45;&gt;Node16</title>
<path fill="none" stroke="#63b8ff" d="M4848.52,-210.54C4684.42,-206.94 4328.91,-195.33 4285,-162 4244.68,-131.4 4287.16,-84.46 4246,-55 4203.73,-24.74 2558,-12.95 2220.94,-10.85"/>
<polygon fill="#63b8ff" stroke="#63b8ff" points="4848.42,-214.04 4858.49,-210.76 4848.57,-207.04 4848.42,-214.04"/>
</g>
<!-- Node245 -->
<g id="node38" class="node">
<title>Node245</title>
<g id="a_node38"><a xlink:href="f__op__kankyo__mng_8h.html" target="_top" xlink:title=" ">
<polygon fill="#fff0f0" stroke="red" points="4420.5,-162 4293.5,-162 4293.5,-132 4420.5,-132 4420.5,-162"/>
<text text-anchor="start" x="4301.5" y="-150" font-family="Helvetica,sans-Serif" font-size="10.00">include/f_op/f_op_kankyo</text>
<text text-anchor="middle" x="4357" y="-139" font-family="Helvetica,sans-Serif" font-size="10.00">_mng.h</text>
</a>
</g>
</g>
<!-- Node2&#45;&gt;Node245 -->
<g id="edge37" class="edge">
<title>Node2&#45;&gt;Node245</title>
<path fill="none" stroke="#63b8ff" d="M4848.76,-206.08C4749.28,-198.38 4576.86,-183.37 4430,-162 4426.94,-161.55 4423.8,-161.07 4420.64,-160.56"/>
<polygon fill="#63b8ff" stroke="#63b8ff" points="4848.48,-209.56 4858.72,-206.84 4849.02,-202.59 4848.48,-209.56"/>
</g>
<!-- Node252 -->
<g id="node39" class="node">
<title>Node252</title>
<g id="a_node39"><a xlink:href="f__op__overlap__mng_8h.html" target="_top" xlink:title=" ">
<polygon fill="#fff0f0" stroke="red" points="4567,-162 4439,-162 4439,-132 4567,-132 4567,-162"/>
<text text-anchor="start" x="4447" y="-150" font-family="Helvetica,sans-Serif" font-size="10.00">include/f_op/f_op_overlap</text>
<text text-anchor="middle" x="4503" y="-139" font-family="Helvetica,sans-Serif" font-size="10.00">_mng.h</text>
</a>
</g>
</g>
<!-- Node2&#45;&gt;Node252 -->
<g id="edge38" class="edge">
<title>Node2&#45;&gt;Node252</title>
<path fill="none" stroke="#63b8ff" d="M4848.87,-201.61C4776.8,-192.21 4669.25,-177.5 4576,-162 4573.2,-161.53 4570.34,-161.05 4567.46,-160.54"/>
<polygon fill="#63b8ff" stroke="#63b8ff" points="4848.25,-205.06 4858.62,-202.87 4849.15,-198.11 4848.25,-205.06"/>
</g>
<!-- Node263 -->
<g id="node40" class="node">
<title>Node263</title>
<g id="a_node40"><a xlink:href="f__op__scene__mng_8h.html" target="_top" xlink:title=" ">
<polygon fill="#fff0f0" stroke="red" points="4707,-162 4585,-162 4585,-132 4707,-132 4707,-162"/>
<text text-anchor="start" x="4593" y="-150" font-family="Helvetica,sans-Serif" font-size="10.00">include/f_op/f_op_scene</text>
<text text-anchor="middle" x="4646" y="-139" font-family="Helvetica,sans-Serif" font-size="10.00">_mng.h</text>
</a>
</g>
</g>
<!-- Node2&#45;&gt;Node263 -->
<g id="edge39" class="edge">
<title>Node2&#45;&gt;Node263</title>
<path fill="none" stroke="#63b8ff" d="M4879.93,-200.53C4831.56,-189.67 4758.86,-173.34 4707.36,-161.78"/>
<polygon fill="#63b8ff" stroke="#63b8ff" points="4879.07,-203.93 4889.6,-202.7 4880.6,-197.1 4879.07,-203.93"/>
</g>
<!-- Node270 -->
<g id="node41" class="node">
<title>Node270</title>
<g id="a_node41"><a xlink:href="f__op__camera_8cpp.html" target="_top" xlink:title=" ">
<polygon fill="white" stroke="#666666" points="4854.5,-156.5 4725.5,-156.5 4725.5,-137.5 4854.5,-137.5 4854.5,-156.5"/>
<text text-anchor="middle" x="4790" y="-144.5" font-family="Helvetica,sans-Serif" font-size="10.00">src/f_op/f_op_camera.cpp</text>
</a>
</g>
</g>
<!-- Node2&#45;&gt;Node270 -->
<g id="edge41" class="edge">
<title>Node2&#45;&gt;Node270</title>
<path fill="none" stroke="#63b8ff" d="M4901.12,-198.44C4873.46,-185.88 4833.14,-167.58 4809.44,-156.82"/>
<polygon fill="#63b8ff" stroke="#63b8ff" points="4899.46,-201.53 4910.02,-202.48 4902.36,-195.16 4899.46,-201.53"/>
</g>
<!-- Node271 -->
<g id="node42" class="node">
<title>Node271</title>
<g id="a_node42"><a xlink:href="f__op__msg_8cpp.html" target="_top" xlink:title=" ">
<polygon fill="white" stroke="#666666" points="4989,-156.5 4873,-156.5 4873,-137.5 4989,-137.5 4989,-156.5"/>
<text text-anchor="middle" x="4931" y="-144.5" font-family="Helvetica,sans-Serif" font-size="10.00">src/f_op/f_op_msg.cpp</text>
</a>
</g>
</g>
<!-- Node2&#45;&gt;Node271 -->
<g id="edge42" class="edge">
<title>Node2&#45;&gt;Node271</title>
<path fill="none" stroke="#63b8ff" d="M4931,-191.68C4931,-179.94 4931,-165.77 4931,-156.82"/>
<polygon fill="#63b8ff" stroke="#63b8ff" points="4927.5,-191.59 4931,-201.59 4934.5,-191.59 4927.5,-191.59"/>
</g>
<!-- Node272 -->
<g id="node43" class="node">
<title>Node272</title>
<g id="a_node43"><a xlink:href="f__op__overlap_8cpp.html" target="_top" xlink:title=" ">
<polygon fill="white" stroke="#666666" points="5135,-156.5 5007,-156.5 5007,-137.5 5135,-137.5 5135,-156.5"/>
<text text-anchor="middle" x="5071" y="-144.5" font-family="Helvetica,sans-Serif" font-size="10.00">src/f_op/f_op_overlap.cpp</text>
</a>
</g>
</g>
<!-- Node2&#45;&gt;Node272 -->
<g id="edge43" class="edge">
<title>Node2&#45;&gt;Node272</title>
<path fill="none" stroke="#63b8ff" d="M4960.67,-198.44C4988.13,-185.88 5028.16,-167.58 5051.7,-156.82"/>
<polygon fill="#63b8ff" stroke="#63b8ff" points="4959.48,-195.13 4951.84,-202.47 4962.39,-201.5 4959.48,-195.13"/>
</g>
<!-- Node273 -->
<g id="node44" class="node">
<title>Node273</title>
<g id="a_node44"><a xlink:href="f__op__overlap__req_8cpp.html" target="_top" xlink:title=" ">
<polygon fill="white" stroke="#666666" points="5263,-162 5153,-162 5153,-132 5263,-132 5263,-162"/>
<text text-anchor="start" x="5161" y="-150" font-family="Helvetica,sans-Serif" font-size="10.00">src/f_op/f_op_overlap</text>
<text text-anchor="middle" x="5208" y="-139" font-family="Helvetica,sans-Serif" font-size="10.00">_req.cpp</text>
</a>
</g>
</g>
<!-- Node2&#45;&gt;Node273 -->
<g id="edge44" class="edge">
<title>Node2&#45;&gt;Node273</title>
<path fill="none" stroke="#63b8ff" d="M4980.94,-200.46C5029.35,-189.28 5102.61,-172.35 5152.74,-160.77"/>
<polygon fill="#63b8ff" stroke="#63b8ff" points="4980.24,-197.03 4971.28,-202.69 4981.81,-203.85 4980.24,-197.03"/>
</g>
<!-- Node274 -->
<g id="node45" class="node">
<title>Node274</title>
<g id="a_node45"><a xlink:href="f__op__scene_8cpp.html" target="_top" xlink:title=" ">
<polygon fill="white" stroke="#666666" points="5404.5,-156.5 5281.5,-156.5 5281.5,-137.5 5404.5,-137.5 5404.5,-156.5"/>
<text text-anchor="middle" x="5343" y="-144.5" font-family="Helvetica,sans-Serif" font-size="10.00">src/f_op/f_op_scene.cpp</text>
</a>
</g>
</g>
<!-- Node2&#45;&gt;Node274 -->
<g id="edge45" class="edge">
<title>Node2&#45;&gt;Node274</title>
<path fill="none" stroke="#63b8ff" d="M4991.47,-201.18C4998.05,-200.07 5004.66,-198.99 5011,-198 5126.69,-179.9 5156.51,-181.33 5272,-162 5280.92,-160.51 5290.44,-158.75 5299.52,-156.99"/>
<polygon fill="#63b8ff" stroke="#63b8ff" points="4991.22,-197.67 4981.95,-202.8 4992.39,-204.57 4991.22,-197.67"/>
</g>
<!-- Node275 -->
<g id="node46" class="node">
<title>Node275</title>
<g id="a_node46"><a xlink:href="f__op__scene__pause_8cpp.html" target="_top" xlink:title=" ">
<polygon fill="white" stroke="#666666" points="5527.5,-162 5422.5,-162 5422.5,-132 5527.5,-132 5527.5,-162"/>
<text text-anchor="start" x="5430.5" y="-150" font-family="Helvetica,sans-Serif" font-size="10.00">src/f_op/f_op_scene</text>
<text text-anchor="middle" x="5475" y="-139" font-family="Helvetica,sans-Serif" font-size="10.00">_pause.cpp</text>
</a>
</g>
</g>
<!-- Node2&#45;&gt;Node275 -->
<g id="edge46" class="edge">
<title>Node2&#45;&gt;Node275</title>
<path fill="none" stroke="#63b8ff" d="M4989.51,-201.18C4996.74,-200.01 5004.03,-198.92 5011,-198 5189.28,-174.48 5236.4,-190.18 5414,-162 5416.68,-161.57 5419.42,-161.1 5422.18,-160.59"/>
<polygon fill="#63b8ff" stroke="#63b8ff" points="4989.06,-197.7 4979.77,-202.8 4990.21,-204.61 4989.06,-197.7"/>
</g>
<!-- Node276 -->
<g id="node47" class="node">
<title>Node276</title>
<g id="a_node47"><a xlink:href="f__op__view_8cpp.html" target="_top" xlink:title=" ">
<polygon fill="white" stroke="#666666" points="5662.5,-156.5 5545.5,-156.5 5545.5,-137.5 5662.5,-137.5 5662.5,-156.5"/>
<text text-anchor="middle" x="5604" y="-144.5" font-family="Helvetica,sans-Serif" font-size="10.00">src/f_op/f_op_view.cpp</text>
</a>
</g>
</g>
<!-- Node2&#45;&gt;Node276 -->
<g id="edge47" class="edge">
<title>Node2&#45;&gt;Node276</title>
<path fill="none" stroke="#63b8ff" d="M4988.66,-201.17C4996.16,-199.98 5003.75,-198.88 5011,-198 5243.62,-169.76 5304.88,-194.04 5537,-162 5546.3,-160.72 5556.24,-158.89 5565.54,-156.98"/>
<polygon fill="#63b8ff" stroke="#63b8ff" points="4988.2,-197.7 4978.9,-202.78 4989.34,-204.6 4988.2,-197.7"/>
</g>
<!-- Node277 -->
<g id="node48" class="node">
<title>Node277</title>
<g id="a_node48"><a xlink:href="f__pc__manager_8cpp.html" target="_top" xlink:title=" ">
<polygon fill="white" stroke="#666666" points="5815,-156.5 5681,-156.5 5681,-137.5 5815,-137.5 5815,-156.5"/>
<text text-anchor="middle" x="5748" y="-144.5" font-family="Helvetica,sans-Serif" font-size="10.00">src/f_pc/f_pc_manager.cpp</text>
</a>
</g>
</g>
<!-- Node2&#45;&gt;Node277 -->
<g id="edge48" class="edge">
<title>Node2&#45;&gt;Node277</title>
<path fill="none" stroke="#63b8ff" d="M4987.8,-201.2C4995.58,-199.98 5003.47,-198.86 5011,-198 5303.31,-164.58 5379.84,-196.72 5672,-162 5682.66,-160.73 5694.08,-158.89 5704.74,-156.96"/>
<polygon fill="#63b8ff" stroke="#63b8ff" points="4987.34,-197.73 4978.05,-202.82 4988.48,-204.64 4987.34,-197.73"/>
</g>
<!-- Node4 -->
<g id="node4" class="node">
<title>Node4</title>
<g id="a_node4"><a xlink:href="d__a__alink_8h.html" target="_top" xlink:title=" ">
<polygon fill="#fff0f0" stroke="red" points="116,-85 0,-85 0,-66 116,-66 116,-85"/>
<text text-anchor="middle" x="58" y="-73" font-family="Helvetica,sans-Serif" font-size="10.00">include/d/a/d_a_alink.h</text>
</a>
</g>
</g>
<!-- Node3&#45;&gt;Node4 -->
<g id="edge3" class="edge">
<title>Node3&#45;&gt;Node4</title>
<path fill="none" stroke="#63b8ff" d="M2124.38,-145.38C1784.54,-142.25 325.66,-127.08 125,-96 110.87,-93.81 95.53,-89.5 83.1,-85.48"/>
<polygon fill="#63b8ff" stroke="#63b8ff" points="2124.21,-148.88 2134.24,-145.47 2124.28,-141.88 2124.21,-148.88"/>
</g>
<!-- Node17 -->
<g id="node6" class="node">
<title>Node17</title>
<g id="a_node6"><a xlink:href="d__a__no__chg__room_8h.html" target="_top" xlink:title=" ">
<polygon fill="#fff0f0" stroke="red" points="232,-90.5 134,-90.5 134,-60.5 232,-60.5 232,-90.5"/>
<text text-anchor="start" x="142" y="-78.5" font-family="Helvetica,sans-Serif" font-size="10.00">include/d/a/d_a_no</text>
<text text-anchor="middle" x="183" y="-67.5" font-family="Helvetica,sans-Serif" font-size="10.00">_chg_room.h</text>
</a>
</g>
</g>
<!-- Node3&#45;&gt;Node17 -->
<g id="edge5" class="edge">
<title>Node3&#45;&gt;Node17</title>
<path fill="none" stroke="#63b8ff" d="M2124.33,-145.44C1796.18,-142.67 428.98,-129.23 241,-96 234.3,-94.82 227.33,-93.01 220.64,-90.96"/>
<polygon fill="#63b8ff" stroke="#63b8ff" points="2124.02,-148.94 2134.05,-145.52 2124.08,-141.94 2124.02,-148.94"/>
</g>
<!-- Node19 -->
<g id="node7" class="node">
<title>Node19</title>
<g id="a_node7"><a xlink:href="d__a__obj__item_8h.html" target="_top" xlink:title=" ">
<polygon fill="#fff0f0" stroke="red" points="351.5,-90.5 250.5,-90.5 250.5,-60.5 351.5,-60.5 351.5,-90.5"/>
<text text-anchor="start" x="258.5" y="-78.5" font-family="Helvetica,sans-Serif" font-size="10.00">include/d/a/d_a_obj</text>
<text text-anchor="middle" x="301" y="-67.5" font-family="Helvetica,sans-Serif" font-size="10.00">_item.h</text>
</a>
</g>
</g>
<!-- Node3&#45;&gt;Node19 -->
<g id="edge6" class="edge">
<title>Node3&#45;&gt;Node19</title>
<path fill="none" stroke="#63b8ff" d="M2124.32,-145.29C1808.67,-141.97 535.78,-126.76 360,-96 353.2,-94.81 346.11,-93 339.3,-90.94"/>
<polygon fill="#63b8ff" stroke="#63b8ff" points="2124.03,-148.79 2134.06,-145.39 2124.1,-141.79 2124.03,-148.79"/>
</g>
<!-- Node21 -->
<g id="node8" class="node">
<title>Node21</title>
<g id="a_node8"><a xlink:href="d__bomb_8h.html" target="_top" xlink:title=" ">
<polygon fill="#fff0f0" stroke="red" points="470.5,-85 369.5,-85 369.5,-66 470.5,-66 470.5,-85"/>
<text text-anchor="middle" x="420" y="-73" font-family="Helvetica,sans-Serif" font-size="10.00">include/d/d_bomb.h</text>
</a>
</g>
</g>
<!-- Node3&#45;&gt;Node21 -->
<g id="edge7" class="edge">
<title>Node3&#45;&gt;Node21</title>
<path fill="none" stroke="#63b8ff" d="M2124.49,-145.15C1822.07,-141.35 642.56,-124.78 479,-96 466.46,-93.79 452.95,-89.48 442.02,-85.47"/>
<polygon fill="#63b8ff" stroke="#63b8ff" points="2124.17,-148.65 2134.21,-145.27 2124.25,-141.65 2124.17,-148.65"/>
</g>
<!-- Node24 -->
<g id="node9" class="node">
<title>Node24</title>
<g id="a_node9"><a xlink:href="d__a__b__dr_8h.html" target="_top" xlink:title=" ">
<polygon fill="white" stroke="#666666" points="589.5,-90.5 488.5,-90.5 488.5,-60.5 589.5,-60.5 589.5,-90.5"/>
<text text-anchor="start" x="496.5" y="-78.5" font-family="Helvetica,sans-Serif" font-size="10.00">include/rel/d/a/b/d</text>
<text text-anchor="middle" x="539" y="-67.5" font-family="Helvetica,sans-Serif" font-size="10.00">_a_b_dr/d_a_b_dr.h</text>
</a>
</g>
</g>
<!-- Node3&#45;&gt;Node24 -->
<g id="edge8" class="edge">
<title>Node3&#45;&gt;Node24</title>
<path fill="none" stroke="#63b8ff" d="M2124.65,-146.43C1856.49,-147.67 898.51,-148.27 599,-96 592.09,-94.79 584.89,-92.97 577.97,-90.92"/>
<polygon fill="#63b8ff" stroke="#63b8ff" points="2124.27,-149.93 2134.26,-146.39 2124.24,-142.94 2124.27,-149.93"/>
</g>
<!-- Node25 -->
<g id="node10" class="node">
<title>Node25</title>
<g id="a_node10"><a xlink:href="d__a__b__gnd_8h.html" target="_top" xlink:title=" ">
<polygon fill="white" stroke="#666666" points="724,-90.5 608,-90.5 608,-60.5 724,-60.5 724,-90.5"/>
<text text-anchor="start" x="616" y="-78.5" font-family="Helvetica,sans-Serif" font-size="10.00">include/rel/d/a/b/d</text>
<text text-anchor="middle" x="666" y="-67.5" font-family="Helvetica,sans-Serif" font-size="10.00">_a_b_gnd/d_a_b_gnd.h</text>
</a>
</g>
</g>
<!-- Node3&#45;&gt;Node25 -->
<g id="edge9" class="edge">
<title>Node3&#45;&gt;Node25</title>
<path fill="none" stroke="#63b8ff" d="M2124.36,-145.91C1870.61,-145.22 1005.76,-139.65 733,-96 725.46,-94.79 717.58,-93 709.97,-90.98"/>
<polygon fill="#63b8ff" stroke="#63b8ff" points="2124.1,-149.41 2134.11,-145.93 2124.12,-142.41 2124.1,-149.41"/>
</g>
<!-- Node26 -->
<g id="node11" class="node">
<title>Node26</title>
<g id="a_node11"><a xlink:href="d__a__b__zant__sima_8h.html" target="_top" xlink:title=" ">
<polygon fill="white" stroke="#666666" points="858,-96 742,-96 742,-55 858,-55 858,-96"/>
<text text-anchor="start" x="750" y="-84" font-family="Helvetica,sans-Serif" font-size="10.00">include/rel/d/a/b/d</text>
<text text-anchor="start" x="750" y="-73" font-family="Helvetica,sans-Serif" font-size="10.00">_a_b_zant_sima/d_a_b</text>
<text text-anchor="middle" x="800" y="-62" font-family="Helvetica,sans-Serif" font-size="10.00">_zant_sima.h</text>
</a>
</g>
</g>
<!-- Node3&#45;&gt;Node26 -->
<g id="edge10" class="edge">
<title>Node3&#45;&gt;Node26</title>
<path fill="none" stroke="#63b8ff" d="M2124.54,-145.63C1886.37,-144 1112.51,-135.73 867,-96 864.13,-95.54 861.21,-94.99 858.27,-94.37"/>
<polygon fill="#63b8ff" stroke="#63b8ff" points="2124.27,-149.12 2134.3,-145.69 2124.32,-142.12 2124.27,-149.12"/>
</g>
<!-- Node27 -->
<g id="node12" class="node">
<title>Node27</title>
<g id="a_node12"><a xlink:href="d__a__andsw_8h.html" target="_top" xlink:title=" ">
<polygon fill="white" stroke="#666666" points="986,-90.5 876,-90.5 876,-60.5 986,-60.5 986,-90.5"/>
<text text-anchor="start" x="884" y="-78.5" font-family="Helvetica,sans-Serif" font-size="10.00">include/rel/d/a/d_a</text>
<text text-anchor="middle" x="931" y="-67.5" font-family="Helvetica,sans-Serif" font-size="10.00">_andsw/d_a_andsw.h</text>
</a>
</g>
</g>
<!-- Node3&#45;&gt;Node27 -->
<g id="edge11" class="edge">
<title>Node3&#45;&gt;Node27</title>
<path fill="none" stroke="#63b8ff" d="M2124.64,-145.41C1901.94,-143.18 1214.34,-133.36 995,-96 987.79,-94.77 980.25,-92.97 972.98,-90.94"/>
<polygon fill="#63b8ff" stroke="#63b8ff" points="2124.28,-148.91 2134.31,-145.51 2124.35,-141.91 2124.28,-148.91"/>
</g>
<!-- Node28 -->
<g id="node13" class="node">
<title>Node28</title>
<g id="a_node13"><a xlink:href="d__a__andsw2_8h.html" target="_top" xlink:title=" ">
<polygon fill="white" stroke="#666666" points="1125.5,-90.5 1004.5,-90.5 1004.5,-60.5 1125.5,-60.5 1125.5,-90.5"/>
<text text-anchor="start" x="1012.5" y="-78.5" font-family="Helvetica,sans-Serif" font-size="10.00">include/rel/d/a/d_a</text>
<text text-anchor="middle" x="1065" y="-67.5" font-family="Helvetica,sans-Serif" font-size="10.00">_andsw2/d_a_andsw2.h</text>
</a>
</g>
</g>
<!-- Node3&#45;&gt;Node28 -->
<g id="edge12" class="edge">
<title>Node3&#45;&gt;Node28</title>
<path fill="none" stroke="#63b8ff" d="M2124.27,-144.77C1918.98,-140.87 1325.49,-127.15 1134,-96 1126.38,-94.76 1118.41,-92.98 1110.69,-90.99"/>
<polygon fill="#63b8ff" stroke="#63b8ff" points="2124.21,-148.27 2134.27,-144.96 2124.34,-141.27 2124.21,-148.27"/>
</g>
<!-- Node29 -->
<g id="node14" class="node">
<title>Node29</title>
<g id="a_node14"><a xlink:href="d__a__arrow_8h.html" target="_top" xlink:title=" ">
<polygon fill="white" stroke="#666666" points="1244.5,-90.5 1143.5,-90.5 1143.5,-60.5 1244.5,-60.5 1244.5,-90.5"/>
<text text-anchor="start" x="1151.5" y="-78.5" font-family="Helvetica,sans-Serif" font-size="10.00">include/rel/d/a/d_a</text>
<text text-anchor="middle" x="1194" y="-67.5" font-family="Helvetica,sans-Serif" font-size="10.00">_arrow/d_a_arrow.h</text>
</a>
</g>
</g>
<!-- Node3&#45;&gt;Node29 -->
<g id="edge13" class="edge">
<title>Node3&#45;&gt;Node29</title>
<path fill="none" stroke="#63b8ff" d="M2124.19,-144.63C1935,-140.58 1420.8,-126.98 1254,-96 1247.32,-94.76 1240.36,-92.98 1233.64,-90.99"/>
<polygon fill="#63b8ff" stroke="#63b8ff" points="2124.05,-148.13 2134.13,-144.84 2124.2,-141.13 2124.05,-148.13"/>
</g>
<!-- Node30 -->
<g id="node15" class="node">
<title>Node30</title>
<g id="a_node15"><a xlink:href="d__a__bg__obj_8h.html" target="_top" xlink:title=" ">
<polygon fill="white" stroke="#666666" points="1373,-90.5 1263,-90.5 1263,-60.5 1373,-60.5 1373,-90.5"/>
<text text-anchor="start" x="1271" y="-78.5" font-family="Helvetica,sans-Serif" font-size="10.00">include/rel/d/a/d_a</text>
<text text-anchor="middle" x="1318" y="-67.5" font-family="Helvetica,sans-Serif" font-size="10.00">_bg_obj/d_a_bg_obj.h</text>
</a>
</g>
</g>
<!-- Node3&#45;&gt;Node30 -->
<g id="edge14" class="edge">
<title>Node3&#45;&gt;Node30</title>
<path fill="none" stroke="#63b8ff" d="M2124.19,-143.77C1953.6,-138.07 1523.56,-121.55 1382,-96 1374.91,-94.72 1367.5,-92.92 1360.35,-90.92"/>
<polygon fill="#63b8ff" stroke="#63b8ff" points="2123.91,-147.27 2134.02,-144.1 2124.14,-140.27 2123.91,-147.27"/>
</g>
<!-- Node31 -->
<g id="node16" class="node">
<title>Node31</title>
<g id="a_node16"><a xlink:href="d__a__boomerang_8h.html" target="_top" xlink:title=" ">
<polygon fill="#fff0f0" stroke="red" points="1540.5,-90.5 1391.5,-90.5 1391.5,-60.5 1540.5,-60.5 1540.5,-90.5"/>
<text text-anchor="start" x="1399.5" y="-78.5" font-family="Helvetica,sans-Serif" font-size="10.00">include/rel/d/a/d_a</text>
<text text-anchor="middle" x="1466" y="-67.5" font-family="Helvetica,sans-Serif" font-size="10.00">_boomerang/d_a_boomerang.h</text>
</a>
</g>
</g>
<!-- Node3&#45;&gt;Node31 -->
<g id="edge15" class="edge">
<title>Node3&#45;&gt;Node31</title>
<path fill="none" stroke="#63b8ff" d="M2124.05,-143.99C2004.84,-139.85 1757.07,-127.88 1550,-96 1541.27,-94.66 1532.1,-92.9 1523.16,-90.98"/>
<polygon fill="#63b8ff" stroke="#63b8ff" points="2123.89,-147.49 2134.01,-144.33 2124.13,-140.5 2123.89,-147.49"/>
</g>
<!-- Node32 -->
<g id="node17" class="node">
<title>Node32</title>
<g id="a_node17"><a xlink:href="d__a__canoe_8h.html" target="_top" xlink:title=" ">
<polygon fill="white" stroke="#666666" points="1665,-90.5 1559,-90.5 1559,-60.5 1665,-60.5 1665,-90.5"/>
<text text-anchor="start" x="1567" y="-78.5" font-family="Helvetica,sans-Serif" font-size="10.00">include/rel/d/a/d_a</text>
<text text-anchor="middle" x="1612" y="-67.5" font-family="Helvetica,sans-Serif" font-size="10.00">_canoe/d_a_canoe.h</text>
</a>
</g>
</g>
<!-- Node3&#45;&gt;Node32 -->
<g id="edge16" class="edge">
<title>Node3&#45;&gt;Node32</title>
<path fill="none" stroke="#63b8ff" d="M2124.57,-143.9C2023.79,-139.85 1833.06,-128.28 1674,-96 1667.36,-94.65 1660.43,-92.87 1653.71,-90.92"/>
<polygon fill="#63b8ff" stroke="#63b8ff" points="2124.17,-147.39 2134.3,-144.28 2124.44,-140.4 2124.17,-147.39"/>
</g>
<!-- Node33 -->
<g id="node18" class="node">
<title>Node33</title>
<g id="a_node18"><a xlink:href="d__a__cow_8h.html" target="_top" xlink:title=" ">
<polygon fill="white" stroke="#666666" points="1779,-90.5 1683,-90.5 1683,-60.5 1779,-60.5 1779,-90.5"/>
<text text-anchor="start" x="1691" y="-78.5" font-family="Helvetica,sans-Serif" font-size="10.00">include/rel/d/a/d_a</text>
<text text-anchor="middle" x="1731" y="-67.5" font-family="Helvetica,sans-Serif" font-size="10.00">_cow/d_a_cow.h</text>
</a>
</g>
</g>
<!-- Node3&#45;&gt;Node33 -->
<g id="edge17" class="edge">
<title>Node3&#45;&gt;Node33</title>
<path fill="none" stroke="#63b8ff" d="M2124.29,-141.78C2042.5,-135.87 1904.18,-122.7 1788,-96 1781.99,-94.62 1775.72,-92.84 1769.63,-90.91"/>
<polygon fill="#63b8ff" stroke="#63b8ff" points="2123.97,-145.26 2134.19,-142.47 2124.46,-138.28 2123.97,-145.26"/>
</g>
<!-- Node34 -->
<g id="node19" class="node">
<title>Node34</title>
<g id="a_node19"><a xlink:href="d__a__crod_8h.html" target="_top" xlink:title=" ">
<polygon fill="#fff0f0" stroke="red" points="1893,-90.5 1797,-90.5 1797,-60.5 1893,-60.5 1893,-90.5"/>
<text text-anchor="start" x="1805" y="-78.5" font-family="Helvetica,sans-Serif" font-size="10.00">include/rel/d/a/d_a</text>
<text text-anchor="middle" x="1845" y="-67.5" font-family="Helvetica,sans-Serif" font-size="10.00">_crod/d_a_crod.h</text>
</a>
</g>
</g>
<!-- Node3&#45;&gt;Node34 -->
<g id="edge18" class="edge">
<title>Node3&#45;&gt;Node34</title>
<path fill="none" stroke="#63b8ff" d="M2124.57,-137.22C2064.8,-129 1977.05,-115.11 1902,-96 1896.32,-94.55 1890.4,-92.81 1884.62,-90.96"/>
<polygon fill="#63b8ff" stroke="#63b8ff" points="2123.89,-140.66 2134.27,-138.53 2124.83,-133.72 2123.89,-140.66"/>
</g>
<!-- Node35 -->
<g id="node20" class="node">
<title>Node35</title>
<g id="a_node20"><a xlink:href="d__a__disappear_8h.html" target="_top" xlink:title=" ">
<polygon fill="white" stroke="#666666" points="2048.5,-90.5 1911.5,-90.5 1911.5,-60.5 2048.5,-60.5 2048.5,-90.5"/>
<text text-anchor="start" x="1919.5" y="-78.5" font-family="Helvetica,sans-Serif" font-size="10.00">include/rel/d/a/d_a</text>
<text text-anchor="middle" x="1980" y="-67.5" font-family="Helvetica,sans-Serif" font-size="10.00">_disappear/d_a_disappear.h</text>
</a>
</g>
</g>
<!-- Node3&#45;&gt;Node35 -->
<g id="edge19" class="edge">
<title>Node3&#45;&gt;Node35</title>
<path fill="none" stroke="#63b8ff" d="M2139.47,-128.05C2103.8,-116.52 2058.08,-101.74 2024.75,-90.97"/>
<polygon fill="#63b8ff" stroke="#63b8ff" points="2138.16,-131.3 2148.75,-131.05 2140.31,-124.64 2138.16,-131.3"/>
</g>
<!-- Node36 -->
<g id="node21" class="node">
<title>Node36</title>
<g id="a_node21"><a xlink:href="d__a__dshutter_8h.html" target="_top" xlink:title=" ">
<polygon fill="#fff0f0" stroke="red" points="2191,-90.5 2067,-90.5 2067,-60.5 2191,-60.5 2191,-90.5"/>
<text text-anchor="start" x="2075" y="-78.5" font-family="Helvetica,sans-Serif" font-size="10.00">include/rel/d/a/d_a</text>
<text text-anchor="middle" x="2129" y="-67.5" font-family="Helvetica,sans-Serif" font-size="10.00">_dshutter/d_a_dshutter.h</text>
</a>
</g>
</g>
<!-- Node3&#45;&gt;Node36 -->
<g id="edge20" class="edge">
<title>Node3&#45;&gt;Node36</title>
<path fill="none" stroke="#63b8ff" d="M2173.62,-123.48C2163.45,-112.78 2151.59,-100.29 2142.66,-90.88"/>
<polygon fill="#63b8ff" stroke="#63b8ff" points="2170.86,-125.66 2180.28,-130.5 2175.93,-120.84 2170.86,-125.66"/>
</g>
<!-- Node38 -->
<g id="node22" class="node">
<title>Node38</title>
<g id="a_node22"><a xlink:href="d__a__econt_8h.html" target="_top" xlink:title=" ">
<polygon fill="white" stroke="#666666" points="2310.5,-90.5 2209.5,-90.5 2209.5,-60.5 2310.5,-60.5 2310.5,-90.5"/>
<text text-anchor="start" x="2217.5" y="-78.5" font-family="Helvetica,sans-Serif" font-size="10.00">include/rel/d/a/d_a</text>
<text text-anchor="middle" x="2260" y="-67.5" font-family="Helvetica,sans-Serif" font-size="10.00">_econt/d_a_econt.h</text>
</a>
</g>
</g>
<!-- Node3&#45;&gt;Node38 -->
<g id="edge21" class="edge">
<title>Node3&#45;&gt;Node38</title>
<path fill="none" stroke="#63b8ff" d="M2216.06,-123.48C2226.07,-112.78 2237.75,-100.29 2246.55,-90.88"/>
<polygon fill="#63b8ff" stroke="#63b8ff" points="2213.78,-120.8 2209.5,-130.49 2218.89,-125.58 2213.78,-120.8"/>
</g>
<!-- Node39 -->
<g id="node23" class="node">
<title>Node39</title>
<g id="a_node23"><a xlink:href="d__a__grass_8h.html" target="_top" xlink:title=" ">
<polygon fill="#fff0f0" stroke="red" points="2429.5,-90.5 2328.5,-90.5 2328.5,-60.5 2429.5,-60.5 2429.5,-90.5"/>
<text text-anchor="start" x="2336.5" y="-78.5" font-family="Helvetica,sans-Serif" font-size="10.00">include/rel/d/a/d_a</text>
<text text-anchor="middle" x="2379" y="-67.5" font-family="Helvetica,sans-Serif" font-size="10.00">_grass/d_a_grass.h</text>
</a>
</g>
</g>
<!-- Node3&#45;&gt;Node39 -->
<g id="edge22" class="edge">
<title>Node3&#45;&gt;Node39</title>
<path fill="none" stroke="#63b8ff" d="M2243.52,-127.67C2273.98,-116.17 2312.69,-101.55 2340.92,-90.88"/>
<polygon fill="#63b8ff" stroke="#63b8ff" points="2242.66,-124.26 2234.54,-131.06 2245.13,-130.81 2242.66,-124.26"/>
</g>
<!-- Node40 -->
<g id="node24" class="node">
<title>Node40</title>
<g id="a_node24"><a xlink:href="d__a__hitobj_8h.html" target="_top" xlink:title=" ">
<polygon fill="white" stroke="#666666" points="2548,-90.5 2448,-90.5 2448,-60.5 2548,-60.5 2548,-90.5"/>
<text text-anchor="start" x="2456" y="-78.5" font-family="Helvetica,sans-Serif" font-size="10.00">include/rel/d/a/d_a</text>
<text text-anchor="middle" x="2498" y="-67.5" font-family="Helvetica,sans-Serif" font-size="10.00">_hitobj/d_a_hitobj.h</text>
</a>
</g>
</g>
<!-- Node3&#45;&gt;Node40 -->
<g id="edge23" class="edge">
<title>Node3&#45;&gt;Node40</title>
<path fill="none" stroke="#63b8ff" d="M2265.42,-133.66C2314.19,-124.59 2380.44,-111.22 2438,-96 2443.72,-94.49 2449.69,-92.75 2455.56,-90.94"/>
<polygon fill="#63b8ff" stroke="#63b8ff" points="2265.04,-130.17 2255.84,-135.42 2266.31,-137.05 2265.04,-130.17"/>
</g>
<!-- Node41 -->
<g id="node25" class="node">
<title>Node41</title>
<g id="a_node25"><a xlink:href="d__a__hozelda_8h.html" target="_top" xlink:title=" ">
<polygon fill="white" stroke="#666666" points="2685.5,-90.5 2566.5,-90.5 2566.5,-60.5 2685.5,-60.5 2685.5,-90.5"/>
<text text-anchor="start" x="2574.5" y="-78.5" font-family="Helvetica,sans-Serif" font-size="10.00">include/rel/d/a/d_a</text>
<text text-anchor="middle" x="2626" y="-67.5" font-family="Helvetica,sans-Serif" font-size="10.00">_hozelda/d_a_hozelda.h</text>
</a>
</g>
</g>
<!-- Node3&#45;&gt;Node41 -->
<g id="edge24" class="edge">
<title>Node3&#45;&gt;Node41</title>
<path fill="none" stroke="#63b8ff" d="M2265.75,-139.15C2339.08,-131.37 2456.79,-116.97 2557,-96 2563.82,-94.57 2570.96,-92.84 2577.95,-90.99"/>
<polygon fill="#63b8ff" stroke="#63b8ff" points="2265.46,-135.66 2255.88,-140.19 2266.19,-142.63 2265.46,-135.66"/>
</g>
<!-- Node42 -->
<g id="node26" class="node">
<title>Node42</title>
<g id="a_node26"><a xlink:href="d__a__izumi__gate_8h.html" target="_top" xlink:title=" ">
<polygon fill="white" stroke="#666666" points="2818.5,-96 2703.5,-96 2703.5,-55 2818.5,-55 2818.5,-96"/>
<text text-anchor="start" x="2711.5" y="-84" font-family="Helvetica,sans-Serif" font-size="10.00">include/rel/d/a/d_a</text>
<text text-anchor="start" x="2711.5" y="-73" font-family="Helvetica,sans-Serif" font-size="10.00">_izumi_gate/d_a_izumi</text>
<text text-anchor="middle" x="2761" y="-62" font-family="Helvetica,sans-Serif" font-size="10.00">_gate.h</text>
</a>
</g>
</g>
<!-- Node3&#45;&gt;Node42 -->
<g id="edge25" class="edge">
<title>Node3&#45;&gt;Node42</title>
<path fill="none" stroke="#63b8ff" d="M2265.71,-143C2362.96,-137.95 2543.08,-125.27 2694,-96 2696.97,-95.42 2700,-94.77 2703.05,-94.07"/>
<polygon fill="#63b8ff" stroke="#63b8ff" points="2265.6,-139.5 2255.79,-143.5 2265.95,-146.49 2265.6,-139.5"/>
</g>
<!-- Node43 -->
<g id="node27" class="node">
<title>Node43</title>
<g id="a_node27"><a xlink:href="d__a__kago_8h.html" target="_top" xlink:title=" ">
<polygon fill="white" stroke="#666666" points="2933,-90.5 2837,-90.5 2837,-60.5 2933,-60.5 2933,-90.5"/>
<text text-anchor="start" x="2845" y="-78.5" font-family="Helvetica,sans-Serif" font-size="10.00">include/rel/d/a/d_a</text>
<text text-anchor="middle" x="2885" y="-67.5" font-family="Helvetica,sans-Serif" font-size="10.00">_kago/d_a_kago.h</text>
</a>
</g>
</g>
<!-- Node3&#45;&gt;Node43 -->
<g id="edge26" class="edge">
<title>Node3&#45;&gt;Node43</title>
<path fill="none" stroke="#63b8ff" d="M2265.83,-146.03C2383.54,-144.82 2626.37,-137.01 2827,-96 2833.35,-94.7 2839.97,-92.92 2846.36,-90.95"/>
<polygon fill="#63b8ff" stroke="#63b8ff" points="2265.97,-142.53 2256,-146.11 2266.03,-149.53 2265.97,-142.53"/>
</g>
<!-- Node44 -->
<g id="node28" class="node">
<title>Node44</title>
<g id="a_node28"><a xlink:href="d__a__mirror_8h.html" target="_top" xlink:title=" ">
<polygon fill="#fff0f0" stroke="red" points="3054.5,-90.5 2951.5,-90.5 2951.5,-60.5 3054.5,-60.5 3054.5,-90.5"/>
<text text-anchor="start" x="2959.5" y="-78.5" font-family="Helvetica,sans-Serif" font-size="10.00">include/rel/d/a/d_a</text>
<text text-anchor="middle" x="3003" y="-67.5" font-family="Helvetica,sans-Serif" font-size="10.00">_mirror/d_a_mirror.h</text>
</a>
</g>
</g>
<!-- Node3&#45;&gt;Node44 -->
<g id="edge27" class="edge">
<title>Node3&#45;&gt;Node44</title>
<path fill="none" stroke="#63b8ff" d="M2265.44,-146.94C2398.77,-147.47 2696.65,-142.71 2942,-96 2948.66,-94.73 2955.61,-92.96 2962.34,-91"/>
<polygon fill="#63b8ff" stroke="#63b8ff" points="2265.74,-143.44 2255.72,-146.89 2265.7,-150.44 2265.74,-143.44"/>
</g>
<!-- Node45 -->
<g id="node29" class="node">
<title>Node45</title>
<g id="a_node29"><a xlink:href="d__a__myna_8h.html" target="_top" xlink:title=" ">
<polygon fill="white" stroke="#666666" points="3173,-90.5 3073,-90.5 3073,-60.5 3173,-60.5 3173,-90.5"/>
<text text-anchor="start" x="3081" y="-78.5" font-family="Helvetica,sans-Serif" font-size="10.00">include/rel/d/a/d_a</text>
<text text-anchor="middle" x="3123" y="-67.5" font-family="Helvetica,sans-Serif" font-size="10.00">_myna/d_a_myna.h</text>
</a>
</g>
</g>
<!-- Node3&#45;&gt;Node45 -->
<g id="edge28" class="edge">
<title>Node3&#45;&gt;Node45</title>
<path fill="none" stroke="#63b8ff" d="M2265.56,-144.27C2444.15,-139.51 2910.68,-124.65 3063,-96 3069.67,-94.74 3076.63,-92.95 3083.35,-90.96"/>
<polygon fill="#63b8ff" stroke="#63b8ff" points="2265.64,-140.76 2255.73,-144.53 2265.82,-147.76 2265.64,-140.76"/>
</g>
<!-- Node46 -->
<g id="node30" class="node">
<title>Node46</title>
<g id="a_node30"><a xlink:href="d__a__scene__exit_8h.html" target="_top" xlink:title=" ">
<polygon fill="#fff0f0" stroke="red" points="3310.5,-96 3191.5,-96 3191.5,-55 3310.5,-55 3310.5,-96"/>
<text text-anchor="start" x="3199.5" y="-84" font-family="Helvetica,sans-Serif" font-size="10.00">include/rel/d/a/d_a</text>
<text text-anchor="start" x="3199.5" y="-73" font-family="Helvetica,sans-Serif" font-size="10.00">_scene_exit/d_a_scene</text>
<text text-anchor="middle" x="3251" y="-62" font-family="Helvetica,sans-Serif" font-size="10.00">_exit.h</text>
</a>
</g>
</g>
<!-- Node3&#45;&gt;Node46 -->
<g id="edge29" class="edge">
<title>Node3&#45;&gt;Node46</title>
<path fill="none" stroke="#63b8ff" d="M2265.49,-144.49C2460.66,-139.97 3005.32,-125.06 3182,-96 3185.07,-95.49 3188.2,-94.9 3191.35,-94.24"/>
<polygon fill="#63b8ff" stroke="#63b8ff" points="2265.68,-140.98 2255.76,-144.71 2265.84,-147.98 2265.68,-140.98"/>
</g>
<!-- Node47 -->
<g id="node31" class="node">
<title>Node47</title>
<g id="a_node31"><a xlink:href="d__a__scene__exit2_8h.html" target="_top" xlink:title=" ">
<polygon fill="white" stroke="#666666" points="3453,-96 3329,-96 3329,-55 3453,-55 3453,-96"/>
<text text-anchor="start" x="3337" y="-84" font-family="Helvetica,sans-Serif" font-size="10.00">include/rel/d/a/d_a</text>
<text text-anchor="start" x="3337" y="-73" font-family="Helvetica,sans-Serif" font-size="10.00">_scene_exit2/d_a_scene</text>
<text text-anchor="middle" x="3391" y="-62" font-family="Helvetica,sans-Serif" font-size="10.00">_exit2.h</text>
</a>
</g>
</g>
<!-- Node3&#45;&gt;Node47 -->
<g id="edge30" class="edge">
<title>Node3&#45;&gt;Node47</title>
<path fill="none" stroke="#63b8ff" d="M2265.51,-144.89C2478.73,-141.22 3114.56,-127.83 3319,-96 3322.2,-95.5 3325.46,-94.92 3328.74,-94.26"/>
<polygon fill="#63b8ff" stroke="#63b8ff" points="2265.63,-141.39 2255.69,-145.06 2265.75,-148.39 2265.63,-141.39"/>
</g>
<!-- Node48 -->
<g id="node32" class="node">
<title>Node48</title>
<g id="a_node32"><a xlink:href="d__a__spinner_8h.html" target="_top" xlink:title=" ">
<polygon fill="#fff0f0" stroke="red" points="3587,-90.5 3471,-90.5 3471,-60.5 3587,-60.5 3587,-90.5"/>
<text text-anchor="start" x="3479" y="-78.5" font-family="Helvetica,sans-Serif" font-size="10.00">include/rel/d/a/d_a</text>
<text text-anchor="middle" x="3529" y="-67.5" font-family="Helvetica,sans-Serif" font-size="10.00">_spinner/d_a_spinner.h</text>
</a>
</g>
</g>
<!-- Node3&#45;&gt;Node48 -->
<g id="edge31" class="edge">
<title>Node3&#45;&gt;Node48</title>
<path fill="none" stroke="#63b8ff" d="M2265.71,-145.47C2496.91,-143.4 3228.97,-133.93 3462,-96 3469.53,-94.77 3477.42,-92.97 3485.02,-90.95"/>
<polygon fill="#63b8ff" stroke="#63b8ff" points="2265.92,-141.97 2255.95,-145.56 2265.98,-148.97 2265.92,-141.97"/>
</g>
<!-- Node52 -->
<g id="node33" class="node">
<title>Node52</title>
<g id="a_node33"><a xlink:href="d__a__suspend_8h.html" target="_top" xlink:title=" ">
<polygon fill="#fff0f0" stroke="red" points="3732.5,-90.5 3605.5,-90.5 3605.5,-60.5 3732.5,-60.5 3732.5,-90.5"/>
<text text-anchor="start" x="3613.5" y="-78.5" font-family="Helvetica,sans-Serif" font-size="10.00">include/rel/d/a/d_a</text>
<text text-anchor="middle" x="3669" y="-67.5" font-family="Helvetica,sans-Serif" font-size="10.00">_suspend/d_a_suspend.h</text>
</a>
</g>
</g>
<!-- Node3&#45;&gt;Node52 -->
<g id="edge32" class="edge">
<title>Node3&#45;&gt;Node52</title>
<path fill="none" stroke="#63b8ff" d="M2265.52,-145.58C2512.17,-143.79 3335.21,-134.98 3596,-96 3604.17,-94.78 3612.75,-92.98 3621.02,-90.96"/>
<polygon fill="#63b8ff" stroke="#63b8ff" points="2265.71,-142.08 2255.73,-145.65 2265.76,-149.08 2265.71,-142.08"/>
</g>
<!-- Node56 -->
<g id="node34" class="node">
<title>Node56</title>
<g id="a_node34"><a xlink:href="d__a__swTime_8h.html" target="_top" xlink:title=" ">
<polygon fill="white" stroke="#666666" points="3873,-90.5 3751,-90.5 3751,-60.5 3873,-60.5 3873,-90.5"/>
<text text-anchor="start" x="3759" y="-78.5" font-family="Helvetica,sans-Serif" font-size="10.00">include/rel/d/a/d_a</text>
<text text-anchor="middle" x="3812" y="-67.5" font-family="Helvetica,sans-Serif" font-size="10.00">_swTime/d_a_swTime.h</text>
</a>
</g>
</g>
<!-- Node3&#45;&gt;Node56 -->
<g id="edge33" class="edge">
<title>Node3&#45;&gt;Node56</title>
<path fill="none" stroke="#63b8ff" d="M2265.68,-145.92C2528.72,-145.29 3450.75,-139.92 3741,-96 3748.96,-94.8 3757.31,-93 3765.36,-90.98"/>
<polygon fill="#63b8ff" stroke="#63b8ff" points="2265.89,-142.42 2255.9,-145.94 2265.91,-149.42 2265.89,-142.42"/>
</g>
<!-- Node57 -->
<g id="node35" class="node">
<title>Node57</title>
<g id="a_node35"><a xlink:href="d__a__talk_8h.html" target="_top" xlink:title=" ">
<polygon fill="white" stroke="#666666" points="3987,-90.5 3891,-90.5 3891,-60.5 3987,-60.5 3987,-90.5"/>
<text text-anchor="start" x="3899" y="-78.5" font-family="Helvetica,sans-Serif" font-size="10.00">include/rel/d/a/d_a</text>
<text text-anchor="middle" x="3939" y="-67.5" font-family="Helvetica,sans-Serif" font-size="10.00">_talk/d_a_talk.h</text>
</a>
</g>
</g>
<!-- Node3&#45;&gt;Node57 -->
<g id="edge34" class="edge">
<title>Node3&#45;&gt;Node57</title>
<path fill="none" stroke="#63b8ff" d="M2265.31,-145.16C2564.23,-141.41 3721.54,-125.14 3882,-96 3888.59,-94.8 3895.44,-92.99 3902.02,-90.94"/>
<polygon fill="#63b8ff" stroke="#63b8ff" points="2265.68,-141.65 2255.72,-145.28 2265.77,-148.65 2265.68,-141.65"/>
</g>
<!-- Node58 -->
<g id="node36" class="node">
<title>Node58</title>
<g id="a_node36"><a xlink:href="d__a__tbox_8h.html" target="_top" xlink:title=" ">
<polygon fill="#fff0f0" stroke="red" points="4101,-90.5 4005,-90.5 4005,-60.5 4101,-60.5 4101,-90.5"/>
<text text-anchor="start" x="4013" y="-78.5" font-family="Helvetica,sans-Serif" font-size="10.00">include/rel/d/a/d_a</text>
<text text-anchor="middle" x="4053" y="-67.5" font-family="Helvetica,sans-Serif" font-size="10.00">_tbox/d_a_tbox.h</text>
</a>
</g>
</g>
<!-- Node3&#45;&gt;Node58 -->
<g id="edge35" class="edge">
<title>Node3&#45;&gt;Node58</title>
<path fill="none" stroke="#63b8ff" d="M2265.41,-145.3C2576.97,-142.03 3823.83,-127.1 3996,-96 4002.59,-94.81 4009.44,-93 4016.02,-90.95"/>
<polygon fill="#63b8ff" stroke="#63b8ff" points="2265.77,-141.8 2255.8,-145.4 2265.84,-148.79 2265.77,-141.8"/>
</g>
<!-- Node59 -->
<g id="node37" class="node">
<title>Node59</title>
<g id="a_node37"><a xlink:href="d__a__tboxSw_8h.html" target="_top" xlink:title=" ">
<polygon fill="white" stroke="#666666" points="4237,-90.5 4119,-90.5 4119,-60.5 4237,-60.5 4237,-90.5"/>
<text text-anchor="start" x="4127" y="-78.5" font-family="Helvetica,sans-Serif" font-size="10.00">include/rel/d/a/d_a</text>
<text text-anchor="middle" x="4178" y="-67.5" font-family="Helvetica,sans-Serif" font-size="10.00">_tboxSw/d_a_tboxSw.h</text>
</a>
</g>
</g>
<!-- Node3&#45;&gt;Node59 -->
<g id="edge36" class="edge">
<title>Node3&#45;&gt;Node59</title>
<path fill="none" stroke="#63b8ff" d="M2265.55,-145.22C2589.37,-141.47 3925.34,-124.42 4110,-96 4117.77,-94.8 4125.9,-92.99 4133.73,-90.94"/>
<polygon fill="#63b8ff" stroke="#63b8ff" points="2265.94,-141.71 2255.98,-145.33 2266.02,-148.71 2265.94,-141.71"/>
</g>
<!-- Node4&#45;&gt;Node16 -->
<g id="edge4" class="edge">
<title>Node4&#45;&gt;Node16</title>
<path fill="none" stroke="#63b8ff" d="M93.87,-62.19C103.83,-59.29 114.73,-56.58 125,-55 324.35,-24.35 1785.95,-12.98 2101.19,-10.88"/>
<polygon fill="#63b8ff" stroke="#63b8ff" points="93.08,-58.77 84.55,-65.06 95.13,-65.46 93.08,-58.77"/>
</g>
</g>
</svg>
