<?xml version="1.0" encoding="UTF-8" standalone="no"?>
<!DOCTYPE svg PUBLIC "-//W3C//DTD SVG 1.1//EN"
 "http://www.w3.org/Graphics/SVG/1.1/DTD/svg11.dtd">
<!-- Generated by graphviz version 7.0.5 (20221223.1930)
 -->
<!-- Title: include/f_pc/f_pc_line_iter.h Pages: 1 -->
<svg width="4446pt" height="445pt"
 viewBox="0.00 0.00 4446.00 445.00" xmlns="http://www.w3.org/2000/svg" xmlns:xlink="http://www.w3.org/1999/xlink">
<g id="graph0" class="graph" transform="scale(1 1) rotate(0) translate(4 441)">
<title>include/f_pc/f_pc_line_iter.h</title>
<!-- Node1 -->
<g id="node1" class="node">
<title>Node1</title>
<g id="a_node1"><a xlink:title=" ">
<polygon fill="#999999" stroke="#666666" points="1460.5,-437 1349.5,-437 1349.5,-407 1460.5,-407 1460.5,-437"/>
<text text-anchor="start" x="1357.5" y="-425" font-family="Helvetica,sans-Serif" font-size="10.00">include/f_pc/f_pc_line</text>
<text text-anchor="middle" x="1405" y="-414" font-family="Helvetica,sans-Serif" font-size="10.00">_iter.h</text>
</a>
</g>
</g>
<!-- Node2 -->
<g id="node2" class="node">
<title>Node2</title>
<g id="a_node2"><a xlink:href="f__pc__executor_8h.html" target="_top" xlink:title=" ">
<polygon fill="white" stroke="#666666" points="1475,-365.5 1335,-365.5 1335,-346.5 1475,-346.5 1475,-365.5"/>
<text text-anchor="middle" x="1405" y="-353.5" font-family="Helvetica,sans-Serif" font-size="10.00">include/f_pc/f_pc_executor.h</text>
</a>
</g>
</g>
<!-- Node1&#45;&gt;Node2 -->
<g id="edge1" class="edge">
<title>Node1&#45;&gt;Node2</title>
<path fill="none" stroke="#63b8ff" d="M1405,-395.59C1405,-385.06 1405,-373.53 1405,-365.84"/>
<polygon fill="#63b8ff" stroke="#63b8ff" points="1401.5,-395.28 1405,-405.28 1408.5,-395.28 1401.5,-395.28"/>
</g>
<!-- Node133 -->
<g id="node43" class="node">
<title>Node133</title>
<g id="a_node43"><a xlink:href="f__pc__manager_8cpp.html" target="_top" xlink:title=" ">
<polygon fill="white" stroke="#666666" points="1034,-233.5 900,-233.5 900,-214.5 1034,-214.5 1034,-233.5"/>
<text text-anchor="middle" x="967" y="-221.5" font-family="Helvetica,sans-Serif" font-size="10.00">src/f_pc/f_pc_manager.cpp</text>
</a>
</g>
</g>
<!-- Node1&#45;&gt;Node133 -->
<g id="edge61" class="edge">
<title>Node1&#45;&gt;Node133</title>
<path fill="none" stroke="#63b8ff" d="M1338.17,-411.16C1232.11,-394.19 1032.28,-356.24 984,-305 965.3,-285.16 965.09,-250.08 966.15,-233.78"/>
<polygon fill="#63b8ff" stroke="#63b8ff" points="1337.46,-414.59 1347.88,-412.7 1338.55,-407.68 1337.46,-414.59"/>
</g>
<!-- Node195 -->
<g id="node50" class="node">
<title>Node195</title>
<g id="a_node50"><a xlink:href="f__pc__line__iter_8cpp.html" target="_top" xlink:title=" ">
<polygon fill="white" stroke="#666666" points="1587,-371 1493,-371 1493,-341 1587,-341 1587,-371"/>
<text text-anchor="start" x="1501" y="-359" font-family="Helvetica,sans-Serif" font-size="10.00">src/f_pc/f_pc_line</text>
<text text-anchor="middle" x="1540" y="-348" font-family="Helvetica,sans-Serif" font-size="10.00">_iter.cpp</text>
</a>
</g>
</g>
<!-- Node1&#45;&gt;Node195 -->
<g id="edge60" class="edge">
<title>Node1&#45;&gt;Node195</title>
<path fill="none" stroke="#63b8ff" d="M1445.66,-401.72C1466.28,-391.95 1490.89,-380.28 1509.8,-371.31"/>
<polygon fill="#63b8ff" stroke="#63b8ff" points="1444.2,-398.54 1436.66,-405.99 1447.2,-404.87 1444.2,-398.54"/>
</g>
<!-- Node3 -->
<g id="node3" class="node">
<title>Node3</title>
<g id="a_node3"><a xlink:href="f__op__actor__mng_8h.html" target="_top" xlink:title=" ">
<polygon fill="#fff0f0" stroke="red" points="2088,-239 1970,-239 1970,-209 2088,-209 2088,-239"/>
<text text-anchor="start" x="1978" y="-227" font-family="Helvetica,sans-Serif" font-size="10.00">include/f_op/f_op_actor</text>
<text text-anchor="middle" x="2029" y="-216" font-family="Helvetica,sans-Serif" font-size="10.00">_mng.h</text>
</a>
</g>
</g>
<!-- Node2&#45;&gt;Node3 -->
<g id="edge2" class="edge">
<title>Node2&#45;&gt;Node3</title>
<path fill="none" stroke="#63b8ff" d="M1461.94,-344.18C1469.34,-342.99 1476.84,-341.89 1484,-341 1540.05,-334.06 1944.36,-336.85 1991,-305 2013.22,-289.83 2022.82,-258.01 2026.67,-239.4"/>
<polygon fill="#63b8ff" stroke="#63b8ff" points="1461.6,-340.69 1452.32,-345.79 1462.76,-347.59 1461.6,-340.69"/>
</g>
<!-- Node174 -->
<g id="node40" class="node">
<title>Node174</title>
<g id="a_node40"><a xlink:href="f__pc__manager_8h.html" target="_top" xlink:title=" ">
<polygon fill="#fff0f0" stroke="red" points="1964.5,-299.5 1823.5,-299.5 1823.5,-280.5 1964.5,-280.5 1964.5,-299.5"/>
<text text-anchor="middle" x="1894" y="-287.5" font-family="Helvetica,sans-Serif" font-size="10.00">include/f_pc/f_pc_manager.h</text>
</a>
</g>
</g>
<!-- Node2&#45;&gt;Node174 -->
<g id="edge46" class="edge">
<title>Node2&#45;&gt;Node174</title>
<path fill="none" stroke="#63b8ff" d="M1463.86,-344.12C1470.64,-343 1477.46,-341.93 1484,-341 1630.05,-320.12 1667.93,-325.73 1814,-305 1824.33,-303.53 1835.37,-301.75 1845.85,-299.94"/>
<polygon fill="#63b8ff" stroke="#63b8ff" points="1463.31,-340.67 1454.03,-345.79 1464.48,-347.57 1463.31,-340.67"/>
</g>
<!-- Node185 -->
<g id="node41" class="node">
<title>Node185</title>
<g id="a_node41"><a xlink:href="f__op__overlap__req_8cpp.html" target="_top" xlink:title=" ">
<polygon fill="white" stroke="#666666" points="1495,-239 1385,-239 1385,-209 1495,-209 1495,-239"/>
<text text-anchor="start" x="1393" y="-227" font-family="Helvetica,sans-Serif" font-size="10.00">src/f_op/f_op_overlap</text>
<text text-anchor="middle" x="1440" y="-216" font-family="Helvetica,sans-Serif" font-size="10.00">_req.cpp</text>
</a>
</g>
</g>
<!-- Node2&#45;&gt;Node185 -->
<g id="edge52" class="edge">
<title>Node2&#45;&gt;Node185</title>
<path fill="none" stroke="#63b8ff" d="M1323.33,-349.94C1217.3,-342.52 1043.42,-327.14 1024,-305 1015.21,-294.98 1015.15,-284.97 1024,-275 1047.56,-248.44 1277.17,-233.31 1384.82,-227.62"/>
<polygon fill="#63b8ff" stroke="#63b8ff" points="1322.91,-353.42 1333.13,-350.61 1323.39,-346.44 1322.91,-353.42"/>
</g>
<!-- Node187 -->
<g id="node42" class="node">
<title>Node187</title>
<g id="a_node42"><a xlink:href="f__op__scene__pause_8cpp.html" target="_top" xlink:title=" ">
<polygon fill="white" stroke="#666666" points="1948.5,-239 1843.5,-239 1843.5,-209 1948.5,-209 1948.5,-239"/>
<text text-anchor="start" x="1851.5" y="-227" font-family="Helvetica,sans-Serif" font-size="10.00">src/f_op/f_op_scene</text>
<text text-anchor="middle" x="1896" y="-216" font-family="Helvetica,sans-Serif" font-size="10.00">_pause.cpp</text>
</a>
</g>
</g>
<!-- Node2&#45;&gt;Node187 -->
<g id="edge53" class="edge">
<title>Node2&#45;&gt;Node187</title>
<path fill="none" stroke="#63b8ff" d="M1461.94,-344.2C1469.34,-343 1476.84,-341.89 1484,-341 1538.17,-334.23 1936.84,-344.99 1974,-305 1995.72,-281.62 1957.32,-255.26 1927.1,-239.4"/>
<polygon fill="#63b8ff" stroke="#63b8ff" points="1461.61,-340.7 1452.32,-345.81 1462.77,-347.61 1461.61,-340.7"/>
</g>
<!-- Node2&#45;&gt;Node133 -->
<g id="edge58" class="edge">
<title>Node2&#45;&gt;Node133</title>
<path fill="none" stroke="#63b8ff" d="M1323.35,-352.9C1223.97,-348.93 1063.31,-337.55 1014,-305 987.92,-287.79 974.38,-250.72 969.35,-233.78"/>
<polygon fill="#63b8ff" stroke="#63b8ff" points="1323.22,-356.4 1333.34,-353.28 1323.48,-349.4 1323.22,-356.4"/>
</g>
<!-- Node189 -->
<g id="node44" class="node">
<title>Node189</title>
<g id="a_node44"><a xlink:href="f__op__overlap__mng_8cpp.html" target="_top" xlink:title=" ">
<polygon fill="white" stroke="#666666" points="1143,-305 1033,-305 1033,-275 1143,-275 1143,-305"/>
<text text-anchor="start" x="1041" y="-293" font-family="Helvetica,sans-Serif" font-size="10.00">src/f_op/f_op_overlap</text>
<text text-anchor="middle" x="1088" y="-282" font-family="Helvetica,sans-Serif" font-size="10.00">_mng.cpp</text>
</a>
</g>
</g>
<!-- Node2&#45;&gt;Node189 -->
<g id="edge51" class="edge">
<title>Node2&#45;&gt;Node189</title>
<path fill="none" stroke="#63b8ff" d="M1347.12,-343.91C1295.8,-333.99 1218.83,-318.91 1152,-305 1149.22,-304.42 1146.37,-303.82 1143.49,-303.21"/>
<polygon fill="#63b8ff" stroke="#63b8ff" points="1346.34,-347.32 1356.83,-345.78 1347.67,-340.45 1346.34,-347.32"/>
</g>
<!-- Node190 -->
<g id="node45" class="node">
<title>Node190</title>
<g id="a_node45"><a xlink:href="f__op__scene__req_8cpp.html" target="_top" xlink:title=" ">
<polygon fill="white" stroke="#666666" points="1266.5,-305 1161.5,-305 1161.5,-275 1266.5,-275 1266.5,-305"/>
<text text-anchor="start" x="1169.5" y="-293" font-family="Helvetica,sans-Serif" font-size="10.00">src/f_op/f_op_scene</text>
<text text-anchor="middle" x="1214" y="-282" font-family="Helvetica,sans-Serif" font-size="10.00">_req.cpp</text>
</a>
</g>
</g>
<!-- Node2&#45;&gt;Node190 -->
<g id="edge54" class="edge">
<title>Node2&#45;&gt;Node190</title>
<path fill="none" stroke="#63b8ff" d="M1367.85,-342.55C1336.15,-331.93 1290.54,-316.65 1257.21,-305.48"/>
<polygon fill="#63b8ff" stroke="#63b8ff" points="1366.41,-345.76 1377.01,-345.62 1368.64,-339.12 1366.41,-345.76"/>
</g>
<!-- Node191 -->
<g id="node46" class="node">
<title>Node191</title>
<g id="a_node46"><a xlink:href="f__pc__create__req_8cpp.html" target="_top" xlink:title=" ">
<polygon fill="white" stroke="#666666" points="1391,-305 1285,-305 1285,-275 1391,-275 1391,-305"/>
<text text-anchor="start" x="1293" y="-293" font-family="Helvetica,sans-Serif" font-size="10.00">src/f_pc/f_pc_create</text>
<text text-anchor="middle" x="1338" y="-282" font-family="Helvetica,sans-Serif" font-size="10.00">_req.cpp</text>
</a>
</g>
</g>
<!-- Node2&#45;&gt;Node191 -->
<g id="edge55" class="edge">
<title>Node2&#45;&gt;Node191</title>
<path fill="none" stroke="#63b8ff" d="M1387.53,-338.31C1376.86,-328.12 1363.37,-315.23 1353.16,-305.48"/>
<polygon fill="#63b8ff" stroke="#63b8ff" points="1384.94,-340.68 1394.59,-345.06 1389.78,-335.62 1384.94,-340.68"/>
</g>
<!-- Node192 -->
<g id="node47" class="node">
<title>Node192</title>
<g id="a_node47"><a xlink:href="f__pc__deletor_8cpp.html" target="_top" xlink:title=" ">
<polygon fill="white" stroke="#666666" points="1535,-299.5 1409,-299.5 1409,-280.5 1535,-280.5 1535,-299.5"/>
<text text-anchor="middle" x="1472" y="-287.5" font-family="Helvetica,sans-Serif" font-size="10.00">src/f_pc/f_pc_deletor.cpp</text>
</a>
</g>
</g>
<!-- Node2&#45;&gt;Node192 -->
<g id="edge56" class="edge">
<title>Node2&#45;&gt;Node192</title>
<path fill="none" stroke="#63b8ff" d="M1422.45,-338.33C1435.34,-326.02 1452.4,-309.73 1462.76,-299.82"/>
<polygon fill="#63b8ff" stroke="#63b8ff" points="1420.22,-335.62 1415.41,-345.06 1425.06,-340.68 1420.22,-335.62"/>
</g>
<!-- Node193 -->
<g id="node48" class="node">
<title>Node193</title>
<g id="a_node48"><a xlink:href="f__pc__executor_8cpp.html" target="_top" xlink:title=" ">
<polygon fill="white" stroke="#666666" points="1687,-299.5 1553,-299.5 1553,-280.5 1687,-280.5 1687,-299.5"/>
<text text-anchor="middle" x="1620" y="-287.5" font-family="Helvetica,sans-Serif" font-size="10.00">src/f_pc/f_pc_executor.cpp</text>
</a>
</g>
</g>
<!-- Node2&#45;&gt;Node193 -->
<g id="edge57" class="edge">
<title>Node2&#45;&gt;Node193</title>
<path fill="none" stroke="#63b8ff" d="M1445.86,-342.84C1487.92,-330.32 1552.45,-311.11 1590.01,-299.93"/>
<polygon fill="#63b8ff" stroke="#63b8ff" points="1444.93,-339.46 1436.35,-345.67 1446.93,-346.17 1444.93,-339.46"/>
</g>
<!-- Node194 -->
<g id="node49" class="node">
<title>Node194</title>
<g id="a_node49"><a xlink:href="f__pc__node__req_8cpp.html" target="_top" xlink:title=" ">
<polygon fill="white" stroke="#666666" points="1805,-305 1705,-305 1705,-275 1805,-275 1805,-305"/>
<text text-anchor="start" x="1713" y="-293" font-family="Helvetica,sans-Serif" font-size="10.00">src/f_pc/f_pc_node</text>
<text text-anchor="middle" x="1755" y="-282" font-family="Helvetica,sans-Serif" font-size="10.00">_req.cpp</text>
</a>
</g>
</g>
<!-- Node2&#45;&gt;Node194 -->
<g id="edge59" class="edge">
<title>Node2&#45;&gt;Node194</title>
<path fill="none" stroke="#63b8ff" d="M1466.48,-344.06C1472.4,-343.02 1478.31,-341.99 1484,-341 1578.16,-324.66 1602.35,-324.04 1696,-305 1698.79,-304.43 1701.64,-303.83 1704.52,-303.21"/>
<polygon fill="#63b8ff" stroke="#63b8ff" points="1465.87,-340.61 1456.63,-345.8 1467.09,-347.51 1465.87,-340.61"/>
</g>
<!-- Node4 -->
<g id="node4" class="node">
<title>Node4</title>
<g id="a_node4"><a xlink:href="d__a__alink_8h.html" target="_top" xlink:title=" ">
<polygon fill="#fff0f0" stroke="red" points="550,-85 434,-85 434,-66 550,-66 550,-85"/>
<text text-anchor="middle" x="492" y="-73" font-family="Helvetica,sans-Serif" font-size="10.00">include/d/a/d_a_alink.h</text>
</a>
</g>
</g>
<!-- Node3&#45;&gt;Node4 -->
<g id="edge3" class="edge">
<title>Node3&#45;&gt;Node4</title>
<path fill="none" stroke="#63b8ff" d="M1958.73,-209.08C1958.48,-209.05 1958.24,-209.03 1958,-209 1916.65,-204.46 490.06,-202.76 461,-173 436.66,-148.07 468.52,-103.98 484.2,-85.28"/>
<polygon fill="#63b8ff" stroke="#63b8ff" points="1957.97,-212.51 1968.34,-210.35 1958.89,-205.57 1957.97,-212.51"/>
</g>
<!-- Node15 -->
<g id="node5" class="node">
<title>Node15</title>
<g id="a_node5"><a xlink:href="d__a__alink_8cpp.html" target="_top" xlink:title=" ">
<polygon fill="white" stroke="#666666" points="414.5,-19 305.5,-19 305.5,0 414.5,0 414.5,-19"/>
<text text-anchor="middle" x="360" y="-7" font-family="Helvetica,sans-Serif" font-size="10.00">src/d/a/d_a_alink.cpp</text>
</a>
</g>
</g>
<!-- Node3&#45;&gt;Node15 -->
<g id="edge44" class="edge">
<title>Node3&#45;&gt;Node15</title>
<path fill="none" stroke="#63b8ff" d="M1958.73,-209.08C1958.48,-209.05 1958.24,-209.03 1958,-209 1874.64,-199.86 520.25,-217.22 449,-173 398.66,-141.76 416.16,-106.57 387,-55 379.88,-42.41 371.12,-28.18 365.54,-19.27"/>
<polygon fill="#63b8ff" stroke="#63b8ff" points="1957.97,-212.51 1968.34,-210.35 1958.89,-205.57 1957.97,-212.51"/>
</g>
<!-- Node140 -->
<g id="node6" class="node">
<title>Node140</title>
<g id="a_node6"><a xlink:href="d__a__obj__item_8h.html" target="_top" xlink:title=" ">
<polygon fill="#fff0f0" stroke="red" points="751.5,-167.5 650.5,-167.5 650.5,-137.5 751.5,-137.5 751.5,-167.5"/>
<text text-anchor="start" x="658.5" y="-155.5" font-family="Helvetica,sans-Serif" font-size="10.00">include/d/a/d_a_obj</text>
<text text-anchor="middle" x="701" y="-144.5" font-family="Helvetica,sans-Serif" font-size="10.00">_item.h</text>
</a>
</g>
</g>
<!-- Node3&#45;&gt;Node140 -->
<g id="edge5" class="edge">
<title>Node3&#45;&gt;Node140</title>
<path fill="none" stroke="#63b8ff" d="M1958.73,-209.08C1958.48,-209.05 1958.24,-209.03 1958,-209 1693.34,-179.14 1022.29,-219.27 760,-173 753.2,-171.8 746.11,-169.98 739.31,-167.93"/>
<polygon fill="#63b8ff" stroke="#63b8ff" points="1957.96,-212.51 1968.34,-210.38 1958.9,-205.57 1957.96,-212.51"/>
</g>
<!-- Node141 -->
<g id="node7" class="node">
<title>Node141</title>
<g id="a_node7"><a xlink:href="d__a__obj__ss__base_8h.html" target="_top" xlink:title=" ">
<polygon fill="#fff0f0" stroke="red" points="870.5,-167.5 769.5,-167.5 769.5,-137.5 870.5,-137.5 870.5,-167.5"/>
<text text-anchor="start" x="777.5" y="-155.5" font-family="Helvetica,sans-Serif" font-size="10.00">include/d/a/d_a_obj</text>
<text text-anchor="middle" x="820" y="-144.5" font-family="Helvetica,sans-Serif" font-size="10.00">_ss_base.h</text>
</a>
</g>
</g>
<!-- Node3&#45;&gt;Node141 -->
<g id="edge6" class="edge">
<title>Node3&#45;&gt;Node141</title>
<path fill="none" stroke="#63b8ff" d="M1958.73,-209.08C1958.48,-209.06 1958.24,-209.03 1958,-209 1481.29,-154.41 1351.39,-257.15 879,-173 872.2,-171.79 865.12,-169.97 858.31,-167.91"/>
<polygon fill="#63b8ff" stroke="#63b8ff" points="1957.96,-212.51 1968.34,-210.39 1958.9,-205.58 1957.96,-212.51"/>
</g>
<!-- Node143 -->
<g id="node8" class="node">
<title>Node143</title>
<g id="a_node8"><a xlink:href="d__bomb_8h.html" target="_top" xlink:title=" ">
<polygon fill="#fff0f0" stroke="red" points="671.5,-85 570.5,-85 570.5,-66 671.5,-66 671.5,-85"/>
<text text-anchor="middle" x="621" y="-73" font-family="Helvetica,sans-Serif" font-size="10.00">include/d/d_bomb.h</text>
</a>
</g>
</g>
<!-- Node3&#45;&gt;Node143 -->
<g id="edge7" class="edge">
<title>Node3&#45;&gt;Node143</title>
<path fill="none" stroke="#63b8ff" d="M1958.73,-209.08C1958.48,-209.05 1958.24,-209.03 1958,-209 1885.26,-200.89 697.13,-219.98 641,-173 614.89,-151.15 617.29,-104.96 619.65,-85.47"/>
<polygon fill="#63b8ff" stroke="#63b8ff" points="1957.97,-212.51 1968.34,-210.37 1958.89,-205.57 1957.97,-212.51"/>
</g>
<!-- Node145 -->
<g id="node9" class="node">
<title>Node145</title>
<g id="a_node9"><a xlink:href="d__door__param2_8h.html" target="_top" xlink:title=" ">
<polygon fill="#fff0f0" stroke="red" points="1021.5,-162 888.5,-162 888.5,-143 1021.5,-143 1021.5,-162"/>
<text text-anchor="middle" x="955" y="-150" font-family="Helvetica,sans-Serif" font-size="10.00">include/d/d_door_param2.h</text>
</a>
</g>
</g>
<!-- Node3&#45;&gt;Node145 -->
<g id="edge9" class="edge">
<title>Node3&#45;&gt;Node145</title>
<path fill="none" stroke="#63b8ff" d="M1958.73,-209.09C1958.48,-209.06 1958.24,-209.03 1958,-209 1548.5,-160.97 1438.98,-232.57 1031,-173 1015.23,-170.7 998,-166.43 983.94,-162.47"/>
<polygon fill="#63b8ff" stroke="#63b8ff" points="1957.95,-212.51 1968.34,-210.41 1958.91,-205.58 1957.95,-212.51"/>
</g>
<!-- Node72 -->
<g id="node10" class="node">
<title>Node72</title>
<g id="a_node10"><a xlink:href="d__a__andsw_8h.html" target="_top" xlink:title=" ">
<polygon fill="white" stroke="#666666" points="1150,-167.5 1040,-167.5 1040,-137.5 1150,-137.5 1150,-167.5"/>
<text text-anchor="start" x="1048" y="-155.5" font-family="Helvetica,sans-Serif" font-size="10.00">include/rel/d/a/d_a</text>
<text text-anchor="middle" x="1095" y="-144.5" font-family="Helvetica,sans-Serif" font-size="10.00">_andsw/d_a_andsw.h</text>
</a>
</g>
</g>
<!-- Node3&#45;&gt;Node72 -->
<g id="edge10" class="edge">
<title>Node3&#45;&gt;Node72</title>
<path fill="none" stroke="#63b8ff" d="M1958.73,-209.09C1958.48,-209.06 1958.24,-209.03 1958,-209 1605.08,-166.5 1509.32,-233.28 1159,-173 1151.79,-171.76 1144.25,-169.95 1136.98,-167.92"/>
<polygon fill="#63b8ff" stroke="#63b8ff" points="1957.94,-212.51 1968.33,-210.44 1958.92,-205.58 1957.94,-212.51"/>
</g>
<!-- Node147 -->
<g id="node11" class="node">
<title>Node147</title>
<g id="a_node11"><a xlink:href="d__a__arrow_8h.html" target="_top" xlink:title=" ">
<polygon fill="white" stroke="#666666" points="1269.5,-167.5 1168.5,-167.5 1168.5,-137.5 1269.5,-137.5 1269.5,-167.5"/>
<text text-anchor="start" x="1176.5" y="-155.5" font-family="Helvetica,sans-Serif" font-size="10.00">include/rel/d/a/d_a</text>
<text text-anchor="middle" x="1219" y="-144.5" font-family="Helvetica,sans-Serif" font-size="10.00">_arrow/d_a_arrow.h</text>
</a>
</g>
</g>
<!-- Node3&#45;&gt;Node147 -->
<g id="edge11" class="edge">
<title>Node3&#45;&gt;Node147</title>
<path fill="none" stroke="#63b8ff" d="M1958.73,-209.09C1958.48,-209.06 1958.24,-209.03 1958,-209 1660.32,-171.89 1579.54,-224.46 1284,-173 1276.8,-171.75 1269.28,-169.96 1262.01,-167.96"/>
<polygon fill="#63b8ff" stroke="#63b8ff" points="1957.93,-212.51 1968.33,-210.47 1958.93,-205.58 1957.93,-212.51"/>
</g>
<!-- Node148 -->
<g id="node12" class="node">
<title>Node148</title>
<g id="a_node12"><a xlink:href="d__a__boomerang_8h.html" target="_top" xlink:title=" ">
<polygon fill="white" stroke="#666666" points="1475.5,-167.5 1326.5,-167.5 1326.5,-137.5 1475.5,-137.5 1475.5,-167.5"/>
<text text-anchor="start" x="1334.5" y="-155.5" font-family="Helvetica,sans-Serif" font-size="10.00">include/rel/d/a/d_a</text>
<text text-anchor="middle" x="1401" y="-144.5" font-family="Helvetica,sans-Serif" font-size="10.00">_boomerang/d_a_boomerang.h</text>
</a>
</g>
</g>
<!-- Node3&#45;&gt;Node148 -->
<g id="edge12" class="edge">
<title>Node3&#45;&gt;Node148</title>
<path fill="none" stroke="#63b8ff" d="M1958.72,-209.1C1958.48,-209.07 1958.24,-209.03 1958,-209 1749.1,-180.56 1693.4,-204.93 1485,-173 1476.27,-171.66 1467.1,-169.91 1458.16,-167.99"/>
<polygon fill="#63b8ff" stroke="#63b8ff" points="1957.91,-212.52 1968.32,-210.56 1958.96,-205.59 1957.91,-212.52"/>
</g>
<!-- Node79 -->
<g id="node13" class="node">
<title>Node79</title>
<g id="a_node13"><a xlink:href="d__a__player_8cpp.html" target="_top" xlink:title=" ">
<polygon fill="white" stroke="#666666" points="1406,-85 1292,-85 1292,-66 1406,-66 1406,-85"/>
<text text-anchor="middle" x="1349" y="-73" font-family="Helvetica,sans-Serif" font-size="10.00">src/d/a/d_a_player.cpp</text>
</a>
</g>
</g>
<!-- Node3&#45;&gt;Node79 -->
<g id="edge45" class="edge">
<title>Node3&#45;&gt;Node79</title>
<path fill="none" stroke="#63b8ff" d="M1958.73,-209.09C1958.48,-209.06 1958.24,-209.03 1958,-209 1887.34,-200.09 1366.93,-224.76 1318,-173 1294.07,-147.68 1325.7,-103.8 1341.26,-85.22"/>
<polygon fill="#63b8ff" stroke="#63b8ff" points="1957.93,-212.51 1968.33,-210.48 1958.93,-205.59 1957.93,-212.51"/>
</g>
<!-- Node149 -->
<g id="node14" class="node">
<title>Node149</title>
<g id="a_node14"><a xlink:href="d__a__canoe_8h.html" target="_top" xlink:title=" ">
<polygon fill="white" stroke="#666666" points="1600,-167.5 1494,-167.5 1494,-137.5 1600,-137.5 1600,-167.5"/>
<text text-anchor="start" x="1502" y="-155.5" font-family="Helvetica,sans-Serif" font-size="10.00">include/rel/d/a/d_a</text>
<text text-anchor="middle" x="1547" y="-144.5" font-family="Helvetica,sans-Serif" font-size="10.00">_canoe/d_a_canoe.h</text>
</a>
</g>
</g>
<!-- Node3&#45;&gt;Node149 -->
<g id="edge14" class="edge">
<title>Node3&#45;&gt;Node149</title>
<path fill="none" stroke="#63b8ff" d="M1958.72,-209.11C1958.48,-209.07 1958.24,-209.04 1958,-209 1804.23,-185.94 1762.34,-204.14 1610,-173 1603.38,-171.65 1596.47,-169.88 1589.75,-167.97"/>
<polygon fill="#63b8ff" stroke="#63b8ff" points="1957.87,-212.52 1968.3,-210.66 1958.99,-205.61 1957.87,-212.52"/>
</g>
<!-- Node150 -->
<g id="node15" class="node">
<title>Node150</title>
<g id="a_node15"><a xlink:href="d__a__crod_8h.html" target="_top" xlink:title=" ">
<polygon fill="white" stroke="#666666" points="96,-90.5 0,-90.5 0,-60.5 96,-60.5 96,-90.5"/>
<text text-anchor="start" x="8" y="-78.5" font-family="Helvetica,sans-Serif" font-size="10.00">include/rel/d/a/d_a</text>
<text text-anchor="middle" x="48" y="-67.5" font-family="Helvetica,sans-Serif" font-size="10.00">_crod/d_a_crod.h</text>
</a>
</g>
</g>
<!-- Node3&#45;&gt;Node150 -->
<g id="edge15" class="edge">
<title>Node3&#45;&gt;Node150</title>
<path fill="none" stroke="#63b8ff" d="M1958.73,-209.08C1958.48,-209.05 1958.24,-209.03 1958,-209 1769.62,-188.59 437.47,-216.3 253,-173 182.34,-156.42 107.05,-113.61 70.51,-91"/>
<polygon fill="#63b8ff" stroke="#63b8ff" points="1957.97,-212.51 1968.34,-210.34 1958.88,-205.57 1957.97,-212.51"/>
</g>
<!-- Node151 -->
<g id="node16" class="node">
<title>Node151</title>
<g id="a_node16"><a xlink:href="d__a__scene__exit_8h.html" target="_top" xlink:title=" ">
<polygon fill="white" stroke="#666666" points="233.5,-96 114.5,-96 114.5,-55 233.5,-55 233.5,-96"/>
<text text-anchor="start" x="122.5" y="-84" font-family="Helvetica,sans-Serif" font-size="10.00">include/rel/d/a/d_a</text>
<text text-anchor="start" x="122.5" y="-73" font-family="Helvetica,sans-Serif" font-size="10.00">_scene_exit/d_a_scene</text>
<text text-anchor="middle" x="174" y="-62" font-family="Helvetica,sans-Serif" font-size="10.00">_exit.h</text>
</a>
</g>
</g>
<!-- Node3&#45;&gt;Node151 -->
<g id="edge17" class="edge">
<title>Node3&#45;&gt;Node151</title>
<path fill="none" stroke="#63b8ff" d="M1958.73,-209.08C1958.48,-209.05 1958.24,-209.03 1958,-209 1779.57,-189.57 515.96,-220.97 343,-173 287.49,-157.6 230.96,-119.91 199.39,-96.45"/>
<polygon fill="#63b8ff" stroke="#63b8ff" points="1957.97,-212.51 1968.34,-210.35 1958.89,-205.57 1957.97,-212.51"/>
</g>
<!-- Node152 -->
<g id="node17" class="node">
<title>Node152</title>
<g id="a_node17"><a xlink:href="d__a__suspend_8h.html" target="_top" xlink:title=" ">
<polygon fill="white" stroke="#666666" points="1745.5,-167.5 1618.5,-167.5 1618.5,-137.5 1745.5,-137.5 1745.5,-167.5"/>
<text text-anchor="start" x="1626.5" y="-155.5" font-family="Helvetica,sans-Serif" font-size="10.00">include/rel/d/a/d_a</text>
<text text-anchor="middle" x="1682" y="-144.5" font-family="Helvetica,sans-Serif" font-size="10.00">_suspend/d_a_suspend.h</text>
</a>
</g>
</g>
<!-- Node3&#45;&gt;Node152 -->
<g id="edge19" class="edge">
<title>Node3&#45;&gt;Node152</title>
<path fill="none" stroke="#63b8ff" d="M1958.72,-209.13C1958.48,-209.09 1958.24,-209.04 1958,-209 1867.94,-192.14 1844.46,-192.84 1755,-173 1748.21,-171.49 1741.11,-169.78 1734.1,-168"/>
<polygon fill="#63b8ff" stroke="#63b8ff" points="1957.78,-212.52 1968.26,-210.95 1959.08,-205.64 1957.78,-212.52"/>
</g>
<!-- Node80 -->
<g id="node18" class="node">
<title>Node80</title>
<g id="a_node18"><a xlink:href="d__a__swTime_8h.html" target="_top" xlink:title=" ">
<polygon fill="white" stroke="#666666" points="1886,-167.5 1764,-167.5 1764,-137.5 1886,-137.5 1886,-167.5"/>
<text text-anchor="start" x="1772" y="-155.5" font-family="Helvetica,sans-Serif" font-size="10.00">include/rel/d/a/d_a</text>
<text text-anchor="middle" x="1825" y="-144.5" font-family="Helvetica,sans-Serif" font-size="10.00">_swTime/d_a_swTime.h</text>
</a>
</g>
</g>
<!-- Node3&#45;&gt;Node80 -->
<g id="edge20" class="edge">
<title>Node3&#45;&gt;Node80</title>
<path fill="none" stroke="#63b8ff" d="M1976.09,-204.97C1942.19,-193.42 1898.79,-178.64 1867.21,-167.88"/>
<polygon fill="#63b8ff" stroke="#63b8ff" points="1974.7,-208.2 1985.3,-208.11 1976.96,-201.57 1974.7,-208.2"/>
</g>
<!-- Node153 -->
<g id="node19" class="node">
<title>Node153</title>
<g id="a_node19"><a xlink:href="d__a__tboxSw_8h.html" target="_top" xlink:title=" ">
<polygon fill="white" stroke="#666666" points="2022,-167.5 1904,-167.5 1904,-137.5 2022,-137.5 2022,-167.5"/>
<text text-anchor="start" x="1912" y="-155.5" font-family="Helvetica,sans-Serif" font-size="10.00">include/rel/d/a/d_a</text>
<text text-anchor="middle" x="1963" y="-144.5" font-family="Helvetica,sans-Serif" font-size="10.00">_tboxSw/d_a_tboxSw.h</text>
</a>
</g>
</g>
<!-- Node3&#45;&gt;Node153 -->
<g id="edge21" class="edge">
<title>Node3&#45;&gt;Node153</title>
<path fill="none" stroke="#63b8ff" d="M2007.62,-200.48C1997.45,-189.78 1985.59,-177.29 1976.66,-167.88"/>
<polygon fill="#63b8ff" stroke="#63b8ff" points="2004.86,-202.66 2014.28,-207.5 2009.93,-197.84 2004.86,-202.66"/>
</g>
<!-- Node154 -->
<g id="node20" class="node">
<title>Node154</title>
<g id="a_node20"><a xlink:href="d__a__e__ym_8h.html" target="_top" xlink:title=" ">
<polygon fill="#fff0f0" stroke="red" points="2150,-167.5 2040,-167.5 2040,-137.5 2150,-137.5 2150,-167.5"/>
<text text-anchor="start" x="2048" y="-155.5" font-family="Helvetica,sans-Serif" font-size="10.00">include/rel/d/a/e/d</text>
<text text-anchor="middle" x="2095" y="-144.5" font-family="Helvetica,sans-Serif" font-size="10.00">_a_e_ym/d_a_e_ym.h</text>
</a>
</g>
</g>
<!-- Node3&#45;&gt;Node154 -->
<g id="edge22" class="edge">
<title>Node3&#45;&gt;Node154</title>
<path fill="none" stroke="#63b8ff" d="M2050.38,-200.48C2060.55,-189.78 2072.41,-177.29 2081.34,-167.88"/>
<polygon fill="#63b8ff" stroke="#63b8ff" points="2048.07,-197.84 2043.72,-207.5 2053.14,-202.66 2048.07,-197.84"/>
</g>
<!-- Node156 -->
<g id="node21" class="node">
<title>Node156</title>
<g id="a_node21"><a xlink:href="d__a__kytag17_8h.html" target="_top" xlink:title=" ">
<polygon fill="white" stroke="#666666" points="2308,-167.5 2168,-167.5 2168,-137.5 2308,-137.5 2308,-167.5"/>
<text text-anchor="start" x="2176" y="-155.5" font-family="Helvetica,sans-Serif" font-size="10.00">include/rel/d/a/kytag</text>
<text text-anchor="middle" x="2238" y="-144.5" font-family="Helvetica,sans-Serif" font-size="10.00">/d_a_kytag17/d_a_kytag17.h</text>
</a>
</g>
</g>
<!-- Node3&#45;&gt;Node156 -->
<g id="edge23" class="edge">
<title>Node3&#45;&gt;Node156</title>
<path fill="none" stroke="#63b8ff" d="M2083.43,-204.9C2118.04,-193.39 2162.23,-178.69 2194.5,-167.97"/>
<polygon fill="#63b8ff" stroke="#63b8ff" points="2082.38,-201.56 2074,-208.04 2084.59,-208.2 2082.38,-201.56"/>
</g>
<!-- Node157 -->
<g id="node22" class="node">
<title>Node157</title>
<g id="a_node22"><a xlink:href="d__a__npc__theB_8h.html" target="_top" xlink:title=" ">
<polygon fill="white" stroke="#666666" points="2448,-173 2326,-173 2326,-132 2448,-132 2448,-173"/>
<text text-anchor="start" x="2334" y="-161" font-family="Helvetica,sans-Serif" font-size="10.00">include/rel/d/a/npc</text>
<text text-anchor="start" x="2334" y="-150" font-family="Helvetica,sans-Serif" font-size="10.00">/d_a_npc_theB/d_a_npc</text>
<text text-anchor="middle" x="2387" y="-139" font-family="Helvetica,sans-Serif" font-size="10.00">_theB.h</text>
</a>
</g>
</g>
<!-- Node3&#45;&gt;Node157 -->
<g id="edge24" class="edge">
<title>Node3&#45;&gt;Node157</title>
<path fill="none" stroke="#63b8ff" d="M2099.7,-212.74C2158.24,-203.77 2243.44,-189.59 2317,-173 2319.83,-172.36 2322.72,-171.68 2325.63,-170.97"/>
<polygon fill="#63b8ff" stroke="#63b8ff" points="2099.22,-209.27 2089.86,-214.24 2100.27,-216.19 2099.22,-209.27"/>
</g>
<!-- Node86 -->
<g id="node23" class="node">
<title>Node86</title>
<g id="a_node23"><a xlink:href="d__a__tag__ajnot_8h.html" target="_top" xlink:title=" ">
<polygon fill="white" stroke="#666666" points="2584,-173 2466,-173 2466,-132 2584,-132 2584,-173"/>
<text text-anchor="start" x="2474" y="-161" font-family="Helvetica,sans-Serif" font-size="10.00">include/rel/d/a/tag</text>
<text text-anchor="start" x="2474" y="-150" font-family="Helvetica,sans-Serif" font-size="10.00">/d_a_tag_ajnot/d_a_tag</text>
<text text-anchor="middle" x="2525" y="-139" font-family="Helvetica,sans-Serif" font-size="10.00">_ajnot.h</text>
</a>
</g>
</g>
<!-- Node3&#45;&gt;Node86 -->
<g id="edge25" class="edge">
<title>Node3&#45;&gt;Node86</title>
<path fill="none" stroke="#63b8ff" d="M2099.69,-218.29C2185,-211.79 2332.52,-197.95 2457,-173 2459.89,-172.42 2462.84,-171.78 2465.8,-171.09"/>
<polygon fill="#63b8ff" stroke="#63b8ff" points="2099.54,-214.79 2089.83,-219.03 2100.07,-221.77 2099.54,-214.79"/>
</g>
<!-- Node158 -->
<g id="node24" class="node">
<title>Node158</title>
<g id="a_node24"><a xlink:href="d__a__tag__arena_8h.html" target="_top" xlink:title=" ">
<polygon fill="white" stroke="#666666" points="2723.5,-173 2602.5,-173 2602.5,-132 2723.5,-132 2723.5,-173"/>
<text text-anchor="start" x="2610.5" y="-161" font-family="Helvetica,sans-Serif" font-size="10.00">include/rel/d/a/tag</text>
<text text-anchor="start" x="2610.5" y="-150" font-family="Helvetica,sans-Serif" font-size="10.00">/d_a_tag_arena/d_a_tag</text>
<text text-anchor="middle" x="2663" y="-139" font-family="Helvetica,sans-Serif" font-size="10.00">_arena.h</text>
</a>
</g>
</g>
<!-- Node3&#45;&gt;Node158 -->
<g id="edge26" class="edge">
<title>Node3&#45;&gt;Node158</title>
<path fill="none" stroke="#63b8ff" d="M2099.66,-220.89C2207.03,-216.75 2417.34,-204.97 2593,-173 2595.98,-172.46 2599.01,-171.85 2602.07,-171.18"/>
<polygon fill="#63b8ff" stroke="#63b8ff" points="2099.72,-217.38 2089.86,-221.25 2099.98,-224.38 2099.72,-217.38"/>
</g>
<!-- Node87 -->
<g id="node25" class="node">
<title>Node87</title>
<g id="a_node25"><a xlink:href="d__a__tag__assistance_8h.html" target="_top" xlink:title=" ">
<polygon fill="white" stroke="#666666" points="2856,-173 2742,-173 2742,-132 2856,-132 2856,-173"/>
<text text-anchor="start" x="2750" y="-161" font-family="Helvetica,sans-Serif" font-size="10.00">include/rel/d/a/tag</text>
<text text-anchor="start" x="2750" y="-150" font-family="Helvetica,sans-Serif" font-size="10.00">/d_a_tag_assistance</text>
<text text-anchor="middle" x="2799" y="-139" font-family="Helvetica,sans-Serif" font-size="10.00">/d_a_tag_assistance.h</text>
</a>
</g>
</g>
<!-- Node3&#45;&gt;Node87 -->
<g id="edge27" class="edge">
<title>Node3&#45;&gt;Node87</title>
<path fill="none" stroke="#63b8ff" d="M2099.54,-223.01C2227.04,-221.93 2503.9,-214.47 2733,-173 2735.82,-172.49 2738.69,-171.9 2741.58,-171.26"/>
<polygon fill="#63b8ff" stroke="#63b8ff" points="2099.9,-219.51 2089.92,-223.08 2099.95,-226.51 2099.9,-219.51"/>
</g>
<!-- Node159 -->
<g id="node26" class="node">
<title>Node159</title>
<g id="a_node26"><a xlink:href="d__a__tag__escape_8h.html" target="_top" xlink:title=" ">
<polygon fill="white" stroke="#666666" points="2984,-173 2874,-173 2874,-132 2984,-132 2984,-173"/>
<text text-anchor="start" x="2882" y="-161" font-family="Helvetica,sans-Serif" font-size="10.00">include/rel/d/a/tag</text>
<text text-anchor="start" x="2882" y="-150" font-family="Helvetica,sans-Serif" font-size="10.00">/d_a_tag_escape/d_a</text>
<text text-anchor="middle" x="2929" y="-139" font-family="Helvetica,sans-Serif" font-size="10.00">_tag_escape.h</text>
</a>
</g>
</g>
<!-- Node3&#45;&gt;Node159 -->
<g id="edge28" class="edge">
<title>Node3&#45;&gt;Node159</title>
<path fill="none" stroke="#63b8ff" d="M2099.67,-220.92C2273.59,-215.45 2718.83,-199.26 2865,-173 2867.86,-172.49 2870.77,-171.89 2873.69,-171.22"/>
<polygon fill="#63b8ff" stroke="#63b8ff" points="2099.76,-217.41 2089.88,-221.22 2099.98,-224.41 2099.76,-217.41"/>
</g>
<!-- Node88 -->
<g id="node27" class="node">
<title>Node88</title>
<g id="a_node27"><a xlink:href="d__a__tag__gra_8h.html" target="_top" xlink:title=" ">
<polygon fill="white" stroke="#666666" points="3139.5,-167.5 3002.5,-167.5 3002.5,-137.5 3139.5,-137.5 3139.5,-167.5"/>
<text text-anchor="start" x="3010.5" y="-155.5" font-family="Helvetica,sans-Serif" font-size="10.00">include/rel/d/a/tag</text>
<text text-anchor="middle" x="3071" y="-144.5" font-family="Helvetica,sans-Serif" font-size="10.00">/d_a_tag_gra/d_a_tag_gra.h</text>
</a>
</g>
</g>
<!-- Node3&#45;&gt;Node88 -->
<g id="edge29" class="edge">
<title>Node3&#45;&gt;Node88</title>
<path fill="none" stroke="#63b8ff" d="M2099.78,-221.1C2291.96,-215.67 2820.63,-198.77 2993,-173 3001.56,-171.72 3010.55,-169.92 3019.26,-167.92"/>
<polygon fill="#63b8ff" stroke="#63b8ff" points="2099.84,-217.6 2089.94,-221.38 2100.04,-224.6 2099.84,-217.6"/>
</g>
<!-- Node160 -->
<g id="node28" class="node">
<title>Node160</title>
<g id="a_node28"><a xlink:href="d__a__tag__guard_8h.html" target="_top" xlink:title=" ">
<polygon fill="white" stroke="#666666" points="3278.5,-173 3157.5,-173 3157.5,-132 3278.5,-132 3278.5,-173"/>
<text text-anchor="start" x="3165.5" y="-161" font-family="Helvetica,sans-Serif" font-size="10.00">include/rel/d/a/tag</text>
<text text-anchor="start" x="3165.5" y="-150" font-family="Helvetica,sans-Serif" font-size="10.00">/d_a_tag_guard/d_a_tag</text>
<text text-anchor="middle" x="3218" y="-139" font-family="Helvetica,sans-Serif" font-size="10.00">_guard.h</text>
</a>
</g>
</g>
<!-- Node3&#45;&gt;Node160 -->
<g id="edge30" class="edge">
<title>Node3&#45;&gt;Node160</title>
<path fill="none" stroke="#63b8ff" d="M2099.65,-221.98C2312.52,-218.56 2945.58,-205.83 3149,-173 3151.7,-172.56 3154.45,-172.06 3157.22,-171.5"/>
<polygon fill="#63b8ff" stroke="#63b8ff" points="2099.79,-218.47 2089.84,-222.13 2099.9,-225.47 2099.79,-218.47"/>
</g>
<!-- Node89 -->
<g id="node29" class="node">
<title>Node89</title>
<g id="a_node29"><a xlink:href="d__a__tag__howl_8h.html" target="_top" xlink:title=" ">
<polygon fill="white" stroke="#666666" points="3413.5,-173 3296.5,-173 3296.5,-132 3413.5,-132 3413.5,-173"/>
<text text-anchor="start" x="3304.5" y="-161" font-family="Helvetica,sans-Serif" font-size="10.00">include/rel/d/a/tag</text>
<text text-anchor="start" x="3304.5" y="-150" font-family="Helvetica,sans-Serif" font-size="10.00">/d_a_tag_howl/d_a_tag</text>
<text text-anchor="middle" x="3355" y="-139" font-family="Helvetica,sans-Serif" font-size="10.00">_howl.h</text>
</a>
</g>
</g>
<!-- Node3&#45;&gt;Node89 -->
<g id="edge31" class="edge">
<title>Node3&#45;&gt;Node89</title>
<path fill="none" stroke="#63b8ff" d="M2099.66,-222.45C2329.84,-220.32 3056.57,-210.69 3288,-173 3290.75,-172.55 3293.55,-172.03 3296.36,-171.44"/>
<polygon fill="#63b8ff" stroke="#63b8ff" points="2099.91,-218.95 2089.94,-222.54 2099.97,-225.95 2099.91,-218.95"/>
</g>
<!-- Node161 -->
<g id="node30" class="node">
<title>Node161</title>
<g id="a_node30"><a xlink:href="d__a__tag__instruction_8h.html" target="_top" xlink:title=" ">
<polygon fill="white" stroke="#666666" points="3544,-173 3432,-173 3432,-132 3544,-132 3544,-173"/>
<text text-anchor="start" x="3440" y="-161" font-family="Helvetica,sans-Serif" font-size="10.00">include/rel/d/a/tag</text>
<text text-anchor="start" x="3440" y="-150" font-family="Helvetica,sans-Serif" font-size="10.00">/d_a_tag_instruction</text>
<text text-anchor="middle" x="3488" y="-139" font-family="Helvetica,sans-Serif" font-size="10.00">/d_a_tag_instruction.h</text>
</a>
</g>
</g>
<!-- Node3&#45;&gt;Node161 -->
<g id="edge32" class="edge">
<title>Node3&#45;&gt;Node161</title>
<path fill="none" stroke="#63b8ff" d="M2099.64,-222.85C2345.7,-221.94 3164.28,-215.72 3423,-173 3425.91,-172.52 3428.86,-171.95 3431.84,-171.31"/>
<polygon fill="#63b8ff" stroke="#63b8ff" points="2099.86,-219.35 2089.87,-222.88 2099.88,-226.35 2099.86,-219.35"/>
</g>
<!-- Node162 -->
<g id="node31" class="node">
<title>Node162</title>
<g id="a_node31"><a xlink:href="d__a__tag__lv5soup_8h.html" target="_top" xlink:title=" ">
<polygon fill="white" stroke="#666666" points="3674,-173 3562,-173 3562,-132 3674,-132 3674,-173"/>
<text text-anchor="start" x="3570" y="-161" font-family="Helvetica,sans-Serif" font-size="10.00">include/rel/d/a/tag</text>
<text text-anchor="start" x="3570" y="-150" font-family="Helvetica,sans-Serif" font-size="10.00">/d_a_tag_lv5soup/d_a</text>
<text text-anchor="middle" x="3618" y="-139" font-family="Helvetica,sans-Serif" font-size="10.00">_tag_lv5soup.h</text>
</a>
</g>
</g>
<!-- Node3&#45;&gt;Node162 -->
<g id="edge33" class="edge">
<title>Node3&#45;&gt;Node162</title>
<path fill="none" stroke="#63b8ff" d="M2099.58,-223.1C2360.17,-223.1 3267.74,-219.66 3553,-173 3555.91,-172.52 3558.87,-171.96 3561.84,-171.32"/>
<polygon fill="#63b8ff" stroke="#63b8ff" points="2099.91,-219.6 2089.91,-223.1 2099.91,-226.6 2099.91,-219.6"/>
</g>
<!-- Node163 -->
<g id="node32" class="node">
<title>Node163</title>
<g id="a_node32"><a xlink:href="d__a__tag__magne_8h.html" target="_top" xlink:title=" ">
<polygon fill="#fff0f0" stroke="red" points="378,-96 252,-96 252,-55 378,-55 378,-96"/>
<text text-anchor="start" x="260" y="-84" font-family="Helvetica,sans-Serif" font-size="10.00">include/rel/d/a/tag</text>
<text text-anchor="start" x="260" y="-73" font-family="Helvetica,sans-Serif" font-size="10.00">/d_a_tag_magne/d_a_tag</text>
<text text-anchor="middle" x="315" y="-62" font-family="Helvetica,sans-Serif" font-size="10.00">_magne.h</text>
</a>
</g>
</g>
<!-- Node3&#45;&gt;Node163 -->
<g id="edge34" class="edge">
<title>Node3&#45;&gt;Node163</title>
<path fill="none" stroke="#63b8ff" d="M1958.73,-209.08C1958.48,-209.05 1958.24,-209.03 1958,-209 1871.38,-199.54 467.82,-212.19 390,-173 357.78,-156.78 335.28,-119.54 323.8,-96.36"/>
<polygon fill="#63b8ff" stroke="#63b8ff" points="1957.97,-212.51 1968.34,-210.35 1958.89,-205.57 1957.97,-212.51"/>
</g>
<!-- Node164 -->
<g id="node33" class="node">
<title>Node164</title>
<g id="a_node33"><a xlink:href="d__a__tag__mmsg_8h.html" target="_top" xlink:title=" ">
<polygon fill="white" stroke="#666666" points="594,-173 470,-173 470,-132 594,-132 594,-173"/>
<text text-anchor="start" x="478" y="-161" font-family="Helvetica,sans-Serif" font-size="10.00">include/rel/d/a/tag</text>
<text text-anchor="start" x="478" y="-150" font-family="Helvetica,sans-Serif" font-size="10.00">/d_a_tag_mmsg/d_a_tag</text>
<text text-anchor="middle" x="532" y="-139" font-family="Helvetica,sans-Serif" font-size="10.00">_mmsg.h</text>
</a>
</g>
</g>
<!-- Node3&#45;&gt;Node164 -->
<g id="edge36" class="edge">
<title>Node3&#45;&gt;Node164</title>
<path fill="none" stroke="#63b8ff" d="M1958.73,-209.08C1958.48,-209.05 1958.24,-209.03 1958,-209 1361.46,-142.71 1202.43,-256.11 608,-173 603.55,-172.38 598.98,-171.59 594.4,-170.69"/>
<polygon fill="#63b8ff" stroke="#63b8ff" points="1957.97,-212.51 1968.34,-210.36 1958.89,-205.57 1957.97,-212.51"/>
</g>
<!-- Node165 -->
<g id="node34" class="node">
<title>Node165</title>
<g id="a_node34"><a xlink:href="d__a__tag__schedule_8h.html" target="_top" xlink:title=" ">
<polygon fill="white" stroke="#666666" points="3799.5,-173 3692.5,-173 3692.5,-132 3799.5,-132 3799.5,-173"/>
<text text-anchor="start" x="3700.5" y="-161" font-family="Helvetica,sans-Serif" font-size="10.00">include/rel/d/a/tag</text>
<text text-anchor="start" x="3700.5" y="-150" font-family="Helvetica,sans-Serif" font-size="10.00">/d_a_tag_schedule/d</text>
<text text-anchor="middle" x="3746" y="-139" font-family="Helvetica,sans-Serif" font-size="10.00">_a_tag_schedule.h</text>
</a>
</g>
</g>
<!-- Node3&#45;&gt;Node165 -->
<g id="edge38" class="edge">
<title>Node3&#45;&gt;Node165</title>
<path fill="none" stroke="#63b8ff" d="M2099.56,-223.4C2374.12,-224.54 3371.34,-224.96 3683,-173 3686.05,-172.49 3689.16,-171.87 3692.27,-171.17"/>
<polygon fill="#63b8ff" stroke="#63b8ff" points="2099.71,-219.9 2089.7,-223.35 2099.68,-226.9 2099.71,-219.9"/>
</g>
<!-- Node166 -->
<g id="node35" class="node">
<title>Node166</title>
<g id="a_node35"><a xlink:href="d__a__tag__setBall_8h.html" target="_top" xlink:title=" ">
<polygon fill="white" stroke="#666666" points="3926,-173 3818,-173 3818,-132 3926,-132 3926,-173"/>
<text text-anchor="start" x="3826" y="-161" font-family="Helvetica,sans-Serif" font-size="10.00">include/rel/d/a/tag</text>
<text text-anchor="start" x="3826" y="-150" font-family="Helvetica,sans-Serif" font-size="10.00">/d_a_tag_setBall/d_a</text>
<text text-anchor="middle" x="3872" y="-139" font-family="Helvetica,sans-Serif" font-size="10.00">_tag_setBall.h</text>
</a>
</g>
</g>
<!-- Node3&#45;&gt;Node166 -->
<g id="edge39" class="edge">
<title>Node3&#45;&gt;Node166</title>
<path fill="none" stroke="#63b8ff" d="M2099.54,-222.15C2408.98,-218.28 3638.58,-201.22 3809,-173 3811.82,-172.53 3814.7,-171.97 3817.58,-171.34"/>
<polygon fill="#63b8ff" stroke="#63b8ff" points="2099.53,-218.65 2089.57,-222.28 2099.62,-225.65 2099.53,-218.65"/>
</g>
<!-- Node167 -->
<g id="node36" class="node">
<title>Node167</title>
<g id="a_node36"><a xlink:href="d__a__tag__setrestart_8h.html" target="_top" xlink:title=" ">
<polygon fill="white" stroke="#666666" points="4052,-173 3944,-173 3944,-132 4052,-132 4052,-173"/>
<text text-anchor="start" x="3952" y="-161" font-family="Helvetica,sans-Serif" font-size="10.00">include/rel/d/a/tag</text>
<text text-anchor="start" x="3952" y="-150" font-family="Helvetica,sans-Serif" font-size="10.00">/d_a_tag_setrestart</text>
<text text-anchor="middle" x="3998" y="-139" font-family="Helvetica,sans-Serif" font-size="10.00">/d_a_tag_setrestart.h</text>
</a>
</g>
</g>
<!-- Node3&#45;&gt;Node167 -->
<g id="edge40" class="edge">
<title>Node3&#45;&gt;Node167</title>
<path fill="none" stroke="#63b8ff" d="M2099.24,-222.3C2421.59,-218.91 3751.51,-203.21 3935,-173 3937.82,-172.53 3940.7,-171.97 3943.58,-171.34"/>
<polygon fill="#63b8ff" stroke="#63b8ff" points="2099.67,-218.79 2089.71,-222.4 2099.75,-225.79 2099.67,-218.79"/>
</g>
<!-- Node78 -->
<g id="node37" class="node">
<title>Node78</title>
<g id="a_node37"><a xlink:href="d__a__tag__spinner_8h.html" target="_top" xlink:title=" ">
<polygon fill="white" stroke="#666666" points="4180,-173 4070,-173 4070,-132 4180,-132 4180,-173"/>
<text text-anchor="start" x="4078" y="-161" font-family="Helvetica,sans-Serif" font-size="10.00">include/rel/d/a/tag</text>
<text text-anchor="start" x="4078" y="-150" font-family="Helvetica,sans-Serif" font-size="10.00">/d_a_tag_spinner/d_a</text>
<text text-anchor="middle" x="4125" y="-139" font-family="Helvetica,sans-Serif" font-size="10.00">_tag_spinner.h</text>
</a>
</g>
</g>
<!-- Node3&#45;&gt;Node78 -->
<g id="edge41" class="edge">
<title>Node3&#45;&gt;Node78</title>
<path fill="none" stroke="#63b8ff" d="M2099.96,-222.39C2436.6,-219.37 3864.54,-204.74 4061,-173 4063.87,-172.54 4066.78,-171.98 4069.71,-171.35"/>
<polygon fill="#63b8ff" stroke="#63b8ff" points="2099.93,-218.89 2089.96,-222.48 2099.99,-225.89 2099.93,-218.89"/>
</g>
<!-- Node91 -->
<g id="node38" class="node">
<title>Node91</title>
<g id="a_node38"><a xlink:href="d__a__tag__stream_8h.html" target="_top" xlink:title=" ">
<polygon fill="white" stroke="#666666" points="4306,-173 4198,-173 4198,-132 4306,-132 4306,-173"/>
<text text-anchor="start" x="4206" y="-161" font-family="Helvetica,sans-Serif" font-size="10.00">include/rel/d/a/tag</text>
<text text-anchor="start" x="4206" y="-150" font-family="Helvetica,sans-Serif" font-size="10.00">/d_a_tag_stream/d_a</text>
<text text-anchor="middle" x="4252" y="-139" font-family="Helvetica,sans-Serif" font-size="10.00">_tag_stream.h</text>
</a>
</g>
</g>
<!-- Node3&#45;&gt;Node91 -->
<g id="edge42" class="edge">
<title>Node3&#45;&gt;Node91</title>
<path fill="none" stroke="#63b8ff" d="M2099.85,-222.52C2449.12,-220.03 3979.32,-207.19 4189,-173 4191.83,-172.54 4194.7,-171.98 4197.59,-171.35"/>
<polygon fill="#63b8ff" stroke="#63b8ff" points="2099.89,-219.02 2089.92,-222.6 2099.94,-226.02 2099.89,-219.02"/>
</g>
<!-- Node168 -->
<g id="node39" class="node">
<title>Node168</title>
<g id="a_node39"><a xlink:href="d__a__tag__wara__howl_8h.html" target="_top" xlink:title=" ">
<polygon fill="white" stroke="#666666" points="4438,-173 4324,-173 4324,-132 4438,-132 4438,-173"/>
<text text-anchor="start" x="4332" y="-161" font-family="Helvetica,sans-Serif" font-size="10.00">include/rel/d/a/tag</text>
<text text-anchor="start" x="4332" y="-150" font-family="Helvetica,sans-Serif" font-size="10.00">/d_a_tag_wara_howl/d</text>
<text text-anchor="middle" x="4381" y="-139" font-family="Helvetica,sans-Serif" font-size="10.00">_a_tag_wara_howl.h</text>
</a>
</g>
</g>
<!-- Node3&#45;&gt;Node168 -->
<g id="edge43" class="edge">
<title>Node3&#45;&gt;Node168</title>
<path fill="none" stroke="#63b8ff" d="M2099.55,-222.57C2460.46,-220.22 4091.95,-207.76 4315,-173 4317.83,-172.56 4320.72,-172.03 4323.61,-171.43"/>
<polygon fill="#63b8ff" stroke="#63b8ff" points="2099.74,-219.07 2089.76,-222.63 2099.78,-226.07 2099.74,-219.07"/>
</g>
<!-- Node4&#45;&gt;Node15 -->
<g id="edge4" class="edge">
<title>Node4&#45;&gt;Node15</title>
<path fill="none" stroke="#63b8ff" d="M463.34,-60.6C437.47,-48.06 400.19,-29.99 378.2,-19.32"/>
<polygon fill="#63b8ff" stroke="#63b8ff" points="461.76,-63.73 472.28,-64.94 464.81,-57.43 461.76,-63.73"/>
</g>
<!-- Node143&#45;&gt;Node15 -->
<g id="edge8" class="edge">
<title>Node143&#45;&gt;Node15</title>
<path fill="none" stroke="#63b8ff" d="M583.35,-62.1C575.35,-59.62 566.93,-57.13 559,-55 506.69,-40.95 445.82,-27.8 405.32,-19.49"/>
<polygon fill="#63b8ff" stroke="#63b8ff" points="582.26,-65.42 592.85,-65.1 584.37,-58.75 582.26,-65.42"/>
</g>
<!-- Node148&#45;&gt;Node79 -->
<g id="edge13" class="edge">
<title>Node148&#45;&gt;Node79</title>
<path fill="none" stroke="#63b8ff" d="M1384.47,-127.66C1374.45,-113.21 1362.26,-95.63 1355.09,-85.29"/>
<polygon fill="#63b8ff" stroke="#63b8ff" points="1381.54,-129.57 1390.11,-135.8 1387.29,-125.58 1381.54,-129.57"/>
</g>
<!-- Node150&#45;&gt;Node15 -->
<g id="edge16" class="edge">
<title>Node150&#45;&gt;Node15</title>
<path fill="none" stroke="#63b8ff" d="M98.53,-56.75C100.71,-56.13 102.87,-55.55 105,-55 173.12,-37.52 253.25,-24.78 305.25,-17.52"/>
<polygon fill="#63b8ff" stroke="#63b8ff" points="97.63,-53.37 89.07,-59.62 99.66,-60.07 97.63,-53.37"/>
</g>
<!-- Node151&#45;&gt;Node15 -->
<g id="edge18" class="edge">
<title>Node151&#45;&gt;Node15</title>
<path fill="none" stroke="#63b8ff" d="M242.68,-50.87C274.46,-39.93 310.3,-27.6 333.92,-19.47"/>
<polygon fill="#63b8ff" stroke="#63b8ff" points="241.83,-47.46 233.52,-54.02 244.11,-54.08 241.83,-47.46"/>
</g>
<!-- Node163&#45;&gt;Node15 -->
<g id="edge35" class="edge">
<title>Node163&#45;&gt;Node15</title>
<path fill="none" stroke="#63b8ff" d="M335.52,-45.32C342.21,-35.8 349.14,-25.95 353.91,-19.16"/>
<polygon fill="#63b8ff" stroke="#63b8ff" points="332.75,-43.17 329.86,-53.36 338.48,-47.2 332.75,-43.17"/>
</g>
<!-- Node164&#45;&gt;Node4 -->
<g id="edge37" class="edge">
<title>Node164&#45;&gt;Node4</title>
<path fill="none" stroke="#63b8ff" d="M516.11,-121.7C509.12,-108.59 501.43,-94.18 496.66,-85.24"/>
<polygon fill="#63b8ff" stroke="#63b8ff" points="512.98,-123.28 520.78,-130.46 519.16,-119.99 512.98,-123.28"/>
</g>
<!-- Node174&#45;&gt;Node3 -->
<g id="edge47" class="edge">
<title>Node174&#45;&gt;Node3</title>
<path fill="none" stroke="#63b8ff" d="M1922.94,-275.28C1945.18,-264.73 1975.83,-250.21 1998.46,-239.48"/>
<polygon fill="#63b8ff" stroke="#63b8ff" points="1921.68,-272.01 1914.14,-279.45 1924.67,-278.33 1921.68,-272.01"/>
</g>
<!-- Node174&#45;&gt;Node185 -->
<g id="edge48" class="edge">
<title>Node174&#45;&gt;Node185</title>
<path fill="none" stroke="#63b8ff" d="M1833.54,-278.15C1826.95,-277.05 1820.34,-275.98 1814,-275 1701.02,-257.57 1568.29,-240.67 1495.23,-231.68"/>
<polygon fill="#63b8ff" stroke="#63b8ff" points="1832.61,-281.55 1843.06,-279.77 1833.78,-274.64 1832.61,-281.55"/>
</g>
<!-- Node174&#45;&gt;Node187 -->
<g id="edge49" class="edge">
<title>Node174&#45;&gt;Node187</title>
<path fill="none" stroke="#63b8ff" d="M1894.63,-268.78C1894.93,-259.17 1895.28,-247.92 1895.56,-239.23"/>
<polygon fill="#63b8ff" stroke="#63b8ff" points="1891.14,-268.48 1894.33,-278.59 1898.14,-268.7 1891.14,-268.48"/>
</g>
<!-- Node174&#45;&gt;Node133 -->
<g id="edge50" class="edge">
<title>Node174&#45;&gt;Node133</title>
<path fill="none" stroke="#63b8ff" d="M1836.9,-278.19C1829.22,-276.98 1821.43,-275.87 1814,-275 1525.21,-241.32 1178.25,-229.85 1034.48,-226.37"/>
<polygon fill="#63b8ff" stroke="#63b8ff" points="1836.09,-281.6 1846.53,-279.78 1837.23,-274.7 1836.09,-281.6"/>
</g>
</g>
</svg>
