<?xml version="1.0" encoding="UTF-8" standalone="no"?>
<!DOCTYPE svg PUBLIC "-//W3C//DTD SVG 1.1//EN"
 "http://www.w3.org/Graphics/SVG/1.1/DTD/svg11.dtd">
<!-- Generated by graphviz version 7.0.5 (20221223.1930)
 -->
<!-- Title: include/f_pc/f_pc_searcher.h Pages: 1 -->
<svg width="5809pt" height="247pt"
 viewBox="0.00 0.00 5809.00 247.00" xmlns="http://www.w3.org/2000/svg" xmlns:xlink="http://www.w3.org/1999/xlink">
<g id="graph0" class="graph" transform="scale(1 1) rotate(0) translate(4 243)">
<title>include/f_pc/f_pc_searcher.h</title>
<!-- Node1 -->
<g id="node1" class="node">
<title>Node1</title>
<g id="a_node1"><a xlink:title=" ">
<polygon fill="#999999" stroke="#666666" points="4496,-239 4355,-239 4355,-220 4496,-220 4496,-239"/>
<text text-anchor="middle" x="4425.5" y="-227" font-family="Helvetica,sans-Serif" font-size="10.00">include/f_pc/f_pc_searcher.h</text>
</a>
</g>
</g>
<!-- Node2 -->
<g id="node2" class="node">
<title>Node2</title>
<g id="a_node2"><a xlink:href="f__op__actor__mng_8h.html" target="_top" xlink:title=" ">
<polygon fill="#fff0f0" stroke="red" points="2943.5,-184 2825.5,-184 2825.5,-154 2943.5,-154 2943.5,-184"/>
<text text-anchor="start" x="2833.5" y="-172" font-family="Helvetica,sans-Serif" font-size="10.00">include/f_op/f_op_actor</text>
<text text-anchor="middle" x="2884.5" y="-161" font-family="Helvetica,sans-Serif" font-size="10.00">_mng.h</text>
</a>
</g>
</g>
<!-- Node1&#45;&gt;Node2 -->
<g id="edge1" class="edge">
<title>Node1&#45;&gt;Node2</title>
<path fill="none" stroke="#63b8ff" d="M4343.02,-225.37C4067.37,-214.9 3182.06,-181.3 2943.95,-172.26"/>
<polygon fill="#63b8ff" stroke="#63b8ff" points="4342.88,-228.87 4353.01,-225.75 4343.15,-221.87 4342.88,-228.87"/>
</g>
<!-- Node217 -->
<g id="node47" class="node">
<title>Node217</title>
<g id="a_node47"><a xlink:href="d__cc__d__nonmatching_8cpp.html" target="_top" xlink:title=" ">
<polygon fill="white" stroke="#666666" points="5801,-107 5636,-107 5636,-88 5801,-88 5801,-107"/>
<text text-anchor="middle" x="5718.5" y="-95" font-family="Helvetica,sans-Serif" font-size="10.00">src/d/cc/d_cc_d_nonmatching.cpp</text>
</a>
</g>
</g>
<!-- Node1&#45;&gt;Node217 -->
<g id="edge50" class="edge">
<title>Node1&#45;&gt;Node217</title>
<path fill="none" stroke="#63b8ff" d="M4394.29,-214.12C4382.4,-206.89 4370.12,-196.89 4363.5,-184 4357.41,-172.14 4354.21,-163.56 4363.5,-154 4412.23,-103.86 5552.03,-125.92 5621.5,-118 5641.47,-115.72 5663.45,-111.46 5681.42,-107.49"/>
<polygon fill="#63b8ff" stroke="#63b8ff" points="4392.3,-217.01 4402.74,-218.8 4395.69,-210.89 4392.3,-217.01"/>
</g>
<!-- Node220 -->
<g id="node48" class="node">
<title>Node220</title>
<g id="a_node48"><a xlink:href="f__op__scene__mng_8cpp.html" target="_top" xlink:title=" ">
<polygon fill="white" stroke="#666666" points="4478,-184 4373,-184 4373,-154 4478,-154 4478,-184"/>
<text text-anchor="start" x="4381" y="-172" font-family="Helvetica,sans-Serif" font-size="10.00">src/f_op/f_op_scene</text>
<text text-anchor="middle" x="4425.5" y="-161" font-family="Helvetica,sans-Serif" font-size="10.00">_mng.cpp</text>
</a>
</g>
</g>
<!-- Node1&#45;&gt;Node220 -->
<g id="edge51" class="edge">
<title>Node1&#45;&gt;Node220</title>
<path fill="none" stroke="#63b8ff" d="M4425.5,-208.51C4425.5,-200.49 4425.5,-191.43 4425.5,-184.11"/>
<polygon fill="#63b8ff" stroke="#63b8ff" points="4422,-208.35 4425.5,-218.35 4429,-208.35 4422,-208.35"/>
</g>
<!-- Node221 -->
<g id="node49" class="node">
<title>Node221</title>
<g id="a_node49"><a xlink:href="f__pc__executor_8cpp.html" target="_top" xlink:title=" ">
<polygon fill="white" stroke="#666666" points="4630.5,-178.5 4496.5,-178.5 4496.5,-159.5 4630.5,-159.5 4630.5,-178.5"/>
<text text-anchor="middle" x="4563.5" y="-166.5" font-family="Helvetica,sans-Serif" font-size="10.00">src/f_pc/f_pc_executor.cpp</text>
</a>
</g>
</g>
<!-- Node1&#45;&gt;Node221 -->
<g id="edge52" class="edge">
<title>Node1&#45;&gt;Node221</title>
<path fill="none" stroke="#63b8ff" d="M4456.96,-215.16C4483.1,-204.08 4519.57,-188.62 4542.34,-178.97"/>
<polygon fill="#63b8ff" stroke="#63b8ff" points="4455.69,-211.9 4447.85,-219.02 4458.43,-218.34 4455.69,-211.9"/>
</g>
<!-- Node222 -->
<g id="node50" class="node">
<title>Node222</title>
<g id="a_node50"><a xlink:href="f__pc__searcher_8cpp.html" target="_top" xlink:title=" ">
<polygon fill="white" stroke="#666666" points="4782.5,-178.5 4648.5,-178.5 4648.5,-159.5 4782.5,-159.5 4782.5,-178.5"/>
<text text-anchor="middle" x="4715.5" y="-166.5" font-family="Helvetica,sans-Serif" font-size="10.00">src/f_pc/f_pc_searcher.cpp</text>
</a>
</g>
</g>
<!-- Node1&#45;&gt;Node222 -->
<g id="edge53" class="edge">
<title>Node1&#45;&gt;Node222</title>
<path fill="none" stroke="#63b8ff" d="M4480.86,-217.33C4536.16,-206.18 4620.08,-189.25 4671.14,-178.95"/>
<polygon fill="#63b8ff" stroke="#63b8ff" points="4480.45,-213.84 4471.34,-219.25 4481.84,-220.71 4480.45,-213.84"/>
</g>
<!-- Node3 -->
<g id="node3" class="node">
<title>Node3</title>
<g id="a_node3"><a xlink:href="d__a__alink_8h.html" target="_top" xlink:title=" ">
<polygon fill="#fff0f0" stroke="red" points="5496.5,-30 5380.5,-30 5380.5,-11 5496.5,-11 5496.5,-30"/>
<text text-anchor="middle" x="5438.5" y="-18" font-family="Helvetica,sans-Serif" font-size="10.00">include/d/a/d_a_alink.h</text>
</a>
</g>
</g>
<!-- Node2&#45;&gt;Node3 -->
<g id="edge2" class="edge">
<title>Node2&#45;&gt;Node3</title>
<path fill="none" stroke="#63b8ff" d="M2955.33,-167.36C3379.4,-163.46 5564.74,-142.2 5588.5,-118 5601.27,-105 5598.91,-91.95 5588.5,-77 5567.87,-47.38 5529.52,-33.53 5496.75,-27.07"/>
<polygon fill="#63b8ff" stroke="#63b8ff" points="2955.36,-163.86 2945.4,-167.45 2955.43,-170.86 2955.36,-163.86"/>
</g>
<!-- Node182 -->
<g id="node4" class="node">
<title>Node182</title>
<g id="a_node4"><a xlink:href="d__a__obj__item_8h.html" target="_top" xlink:title=" ">
<polygon fill="#fff0f0" stroke="red" points="101,-112.5 0,-112.5 0,-82.5 101,-82.5 101,-112.5"/>
<text text-anchor="start" x="8" y="-100.5" font-family="Helvetica,sans-Serif" font-size="10.00">include/d/a/d_a_obj</text>
<text text-anchor="middle" x="50.5" y="-89.5" font-family="Helvetica,sans-Serif" font-size="10.00">_item.h</text>
</a>
</g>
</g>
<!-- Node2&#45;&gt;Node182 -->
<g id="edge3" class="edge">
<title>Node2&#45;&gt;Node182</title>
<path fill="none" stroke="#63b8ff" d="M2813.76,-168C2407.79,-167.81 382.83,-164.53 109.5,-118 102.69,-116.84 95.6,-115.04 88.8,-113"/>
<polygon fill="#63b8ff" stroke="#63b8ff" points="2813.5,-171.5 2823.5,-168 2813.5,-164.5 2813.5,-171.5"/>
</g>
<!-- Node183 -->
<g id="node5" class="node">
<title>Node183</title>
<g id="a_node5"><a xlink:href="d__a__obj__ss__base_8h.html" target="_top" xlink:title=" ">
<polygon fill="#fff0f0" stroke="red" points="220,-112.5 119,-112.5 119,-82.5 220,-82.5 220,-112.5"/>
<text text-anchor="start" x="127" y="-100.5" font-family="Helvetica,sans-Serif" font-size="10.00">include/d/a/d_a_obj</text>
<text text-anchor="middle" x="169.5" y="-89.5" font-family="Helvetica,sans-Serif" font-size="10.00">_ss_base.h</text>
</a>
</g>
</g>
<!-- Node2&#45;&gt;Node183 -->
<g id="edge4" class="edge">
<title>Node2&#45;&gt;Node183</title>
<path fill="none" stroke="#63b8ff" d="M2813.97,-167.94C2418.95,-167.4 489.46,-162.53 228.5,-118 221.69,-116.84 214.6,-115.04 207.8,-112.99"/>
<polygon fill="#63b8ff" stroke="#63b8ff" points="2813.69,-171.43 2823.69,-167.95 2813.7,-164.43 2813.69,-171.43"/>
</g>
<!-- Node185 -->
<g id="node6" class="node">
<title>Node185</title>
<g id="a_node6"><a xlink:href="d__bomb_8h.html" target="_top" xlink:title=" ">
<polygon fill="#fff0f0" stroke="red" points="339,-107 238,-107 238,-88 339,-88 339,-107"/>
<text text-anchor="middle" x="288.5" y="-95" font-family="Helvetica,sans-Serif" font-size="10.00">include/d/d_bomb.h</text>
</a>
</g>
</g>
<!-- Node2&#45;&gt;Node185 -->
<g id="edge5" class="edge">
<title>Node2&#45;&gt;Node185</title>
<path fill="none" stroke="#63b8ff" d="M2813.66,-167.75C2429.27,-166.22 601.94,-156.97 353.5,-118 339.65,-115.83 324.63,-111.46 312.52,-107.41"/>
<polygon fill="#63b8ff" stroke="#63b8ff" points="2813.61,-171.25 2823.63,-167.79 2813.64,-164.25 2813.61,-171.25"/>
</g>
<!-- Node103 -->
<g id="node7" class="node">
<title>Node103</title>
<g id="a_node7"><a xlink:href="d__a__obj__bombf_8h.html" target="_top" xlink:title=" ">
<polygon fill="white" stroke="#666666" points="389.5,-41 267.5,-41 267.5,0 389.5,0 389.5,-41"/>
<text text-anchor="start" x="275.5" y="-29" font-family="Helvetica,sans-Serif" font-size="10.00">include/rel/d/a/obj</text>
<text text-anchor="start" x="275.5" y="-18" font-family="Helvetica,sans-Serif" font-size="10.00">/d_a_obj_bombf/d_a_obj</text>
<text text-anchor="middle" x="328.5" y="-7" font-family="Helvetica,sans-Serif" font-size="10.00">_bombf.h</text>
</a>
</g>
</g>
<!-- Node2&#45;&gt;Node103 -->
<g id="edge26" class="edge">
<title>Node2&#45;&gt;Node103</title>
<path fill="none" stroke="#63b8ff" d="M2813.69,-167.52C2412.45,-164.69 440.44,-149.23 386.5,-118 357.74,-101.35 341.6,-64.26 334,-41.22"/>
<polygon fill="#63b8ff" stroke="#63b8ff" points="2813.56,-171.02 2823.58,-167.59 2813.61,-164.02 2813.56,-171.02"/>
</g>
<!-- Node187 -->
<g id="node8" class="node">
<title>Node187</title>
<g id="a_node8"><a xlink:href="d__door__param2_8h.html" target="_top" xlink:title=" ">
<polygon fill="#fff0f0" stroke="red" points="529,-107 396,-107 396,-88 529,-88 529,-107"/>
<text text-anchor="middle" x="462.5" y="-95" font-family="Helvetica,sans-Serif" font-size="10.00">include/d/d_door_param2.h</text>
</a>
</g>
</g>
<!-- Node2&#45;&gt;Node187 -->
<g id="edge7" class="edge">
<title>Node2&#45;&gt;Node187</title>
<path fill="none" stroke="#63b8ff" d="M2813.62,-167.46C2446.41,-164.53 768.33,-149.51 538.5,-118 522.58,-115.82 505.18,-111.5 491.06,-107.49"/>
<polygon fill="#63b8ff" stroke="#63b8ff" points="2813.58,-170.96 2823.61,-167.54 2813.63,-163.96 2813.58,-170.96"/>
</g>
<!-- Node89 -->
<g id="node9" class="node">
<title>Node89</title>
<g id="a_node9"><a xlink:href="d__a__andsw_8h.html" target="_top" xlink:title=" ">
<polygon fill="white" stroke="#666666" points="657.5,-112.5 547.5,-112.5 547.5,-82.5 657.5,-82.5 657.5,-112.5"/>
<text text-anchor="start" x="555.5" y="-100.5" font-family="Helvetica,sans-Serif" font-size="10.00">include/rel/d/a/d_a</text>
<text text-anchor="middle" x="602.5" y="-89.5" font-family="Helvetica,sans-Serif" font-size="10.00">_andsw/d_a_andsw.h</text>
</a>
</g>
</g>
<!-- Node2&#45;&gt;Node89 -->
<g id="edge8" class="edge">
<title>Node2&#45;&gt;Node89</title>
<path fill="none" stroke="#63b8ff" d="M2813.77,-167.55C2459.05,-165.16 882.3,-152.64 666.5,-118 659.16,-116.82 651.49,-115.01 644.11,-112.97"/>
<polygon fill="#63b8ff" stroke="#63b8ff" points="2813.6,-171.05 2823.62,-167.62 2813.64,-164.05 2813.6,-171.05"/>
</g>
<!-- Node189 -->
<g id="node10" class="node">
<title>Node189</title>
<g id="a_node10"><a xlink:href="d__a__arrow_8h.html" target="_top" xlink:title=" ">
<polygon fill="white" stroke="#666666" points="777,-112.5 676,-112.5 676,-82.5 777,-82.5 777,-112.5"/>
<text text-anchor="start" x="684" y="-100.5" font-family="Helvetica,sans-Serif" font-size="10.00">include/rel/d/a/d_a</text>
<text text-anchor="middle" x="726.5" y="-89.5" font-family="Helvetica,sans-Serif" font-size="10.00">_arrow/d_a_arrow.h</text>
</a>
</g>
</g>
<!-- Node2&#45;&gt;Node189 -->
<g id="edge9" class="edge">
<title>Node2&#45;&gt;Node189</title>
<path fill="none" stroke="#63b8ff" d="M2813.71,-167.55C2470.57,-165.22 988.54,-153.17 785.5,-118 778.7,-116.82 771.61,-115.01 764.8,-112.96"/>
<polygon fill="#63b8ff" stroke="#63b8ff" points="2813.66,-171.05 2823.68,-167.62 2813.71,-164.05 2813.66,-171.05"/>
</g>
<!-- Node190 -->
<g id="node11" class="node">
<title>Node190</title>
<g id="a_node11"><a xlink:href="d__a__boomerang_8h.html" target="_top" xlink:title=" ">
<polygon fill="#fff0f0" stroke="red" points="944,-112.5 795,-112.5 795,-82.5 944,-82.5 944,-112.5"/>
<text text-anchor="start" x="803" y="-100.5" font-family="Helvetica,sans-Serif" font-size="10.00">include/rel/d/a/d_a</text>
<text text-anchor="middle" x="869.5" y="-89.5" font-family="Helvetica,sans-Serif" font-size="10.00">_boomerang/d_a_boomerang.h</text>
</a>
</g>
</g>
<!-- Node2&#45;&gt;Node190 -->
<g id="edge10" class="edge">
<title>Node2&#45;&gt;Node190</title>
<path fill="none" stroke="#63b8ff" d="M2814.03,-168.08C2511.82,-168.14 1324.01,-165.31 953.5,-118 944,-116.79 933.99,-114.96 924.34,-112.91"/>
<polygon fill="#63b8ff" stroke="#63b8ff" points="2813.73,-171.58 2823.73,-168.08 2813.73,-164.58 2813.73,-171.58"/>
</g>
<!-- Node191 -->
<g id="node12" class="node">
<title>Node191</title>
<g id="a_node12"><a xlink:href="d__a__canoe_8h.html" target="_top" xlink:title=" ">
<polygon fill="white" stroke="#666666" points="1068.5,-112.5 962.5,-112.5 962.5,-82.5 1068.5,-82.5 1068.5,-112.5"/>
<text text-anchor="start" x="970.5" y="-100.5" font-family="Helvetica,sans-Serif" font-size="10.00">include/rel/d/a/d_a</text>
<text text-anchor="middle" x="1015.5" y="-89.5" font-family="Helvetica,sans-Serif" font-size="10.00">_canoe/d_a_canoe.h</text>
</a>
</g>
</g>
<!-- Node2&#45;&gt;Node191 -->
<g id="edge11" class="edge">
<title>Node2&#45;&gt;Node191</title>
<path fill="none" stroke="#63b8ff" d="M2813.87,-167.2C2501.35,-163.51 1250.62,-147.04 1077.5,-118 1070.38,-116.81 1062.94,-114.99 1055.79,-112.94"/>
<polygon fill="#63b8ff" stroke="#63b8ff" points="2813.47,-170.7 2823.51,-167.31 2813.56,-163.7 2813.47,-170.7"/>
</g>
<!-- Node192 -->
<g id="node13" class="node">
<title>Node192</title>
<g id="a_node13"><a xlink:href="d__a__crod_8h.html" target="_top" xlink:title=" ">
<polygon fill="#fff0f0" stroke="red" points="1182.5,-112.5 1086.5,-112.5 1086.5,-82.5 1182.5,-82.5 1182.5,-112.5"/>
<text text-anchor="start" x="1094.5" y="-100.5" font-family="Helvetica,sans-Serif" font-size="10.00">include/rel/d/a/d_a</text>
<text text-anchor="middle" x="1134.5" y="-89.5" font-family="Helvetica,sans-Serif" font-size="10.00">_crod/d_a_crod.h</text>
</a>
</g>
</g>
<!-- Node2&#45;&gt;Node192 -->
<g id="edge12" class="edge">
<title>Node2&#45;&gt;Node192</title>
<path fill="none" stroke="#63b8ff" d="M2813.94,-167.16C2513.95,-163.44 1352.54,-147.23 1191.5,-118 1184.91,-116.8 1178.06,-114.99 1171.48,-112.94"/>
<polygon fill="#63b8ff" stroke="#63b8ff" points="2813.52,-170.66 2823.56,-167.28 2813.61,-163.66 2813.52,-170.66"/>
</g>
<!-- Node92 -->
<g id="node14" class="node">
<title>Node92</title>
<g id="a_node14"><a xlink:href="d__a__econt_8h.html" target="_top" xlink:title=" ">
<polygon fill="white" stroke="#666666" points="1302,-112.5 1201,-112.5 1201,-82.5 1302,-82.5 1302,-112.5"/>
<text text-anchor="start" x="1209" y="-100.5" font-family="Helvetica,sans-Serif" font-size="10.00">include/rel/d/a/d_a</text>
<text text-anchor="middle" x="1251.5" y="-89.5" font-family="Helvetica,sans-Serif" font-size="10.00">_econt/d_a_econt.h</text>
</a>
</g>
</g>
<!-- Node2&#45;&gt;Node92 -->
<g id="edge13" class="edge">
<title>Node2&#45;&gt;Node92</title>
<path fill="none" stroke="#63b8ff" d="M2813.68,-168.18C2547.99,-168.46 1610.67,-165.98 1316.5,-118 1309.06,-116.79 1301.27,-114.96 1293.79,-112.91"/>
<polygon fill="#63b8ff" stroke="#63b8ff" points="2813.57,-171.68 2823.57,-168.16 2813.56,-164.68 2813.57,-171.68"/>
</g>
<!-- Node93 -->
<g id="node15" class="node">
<title>Node93</title>
<g id="a_node15"><a xlink:href="d__a__guard__mng_8h.html" target="_top" xlink:title=" ">
<polygon fill="white" stroke="#666666" points="2971,-35.5 2822,-35.5 2822,-5.5 2971,-5.5 2971,-35.5"/>
<text text-anchor="start" x="2830" y="-23.5" font-family="Helvetica,sans-Serif" font-size="10.00">include/rel/d/a/d_a</text>
<text text-anchor="middle" x="2896.5" y="-12.5" font-family="Helvetica,sans-Serif" font-size="10.00">_guard_mng/d_a_guard_mng.h</text>
</a>
</g>
</g>
<!-- Node2&#45;&gt;Node93 -->
<g id="edge14" class="edge">
<title>Node2&#45;&gt;Node93</title>
<path fill="none" stroke="#63b8ff" d="M2813.81,-168.4C2519.09,-169.72 1401,-171.2 1349.5,-118 1336.83,-104.91 1336.85,-90.11 1349.5,-77 1401.11,-23.51 2519.03,-21.02 2821.58,-21.33"/>
<polygon fill="#63b8ff" stroke="#63b8ff" points="2813.68,-171.9 2823.67,-168.35 2813.65,-164.9 2813.68,-171.9"/>
</g>
<!-- Node94 -->
<g id="node16" class="node">
<title>Node94</title>
<g id="a_node16"><a xlink:href="d__a__hitobj_8h.html" target="_top" xlink:title=" ">
<polygon fill="white" stroke="#666666" points="1458.5,-112.5 1358.5,-112.5 1358.5,-82.5 1458.5,-82.5 1458.5,-112.5"/>
<text text-anchor="start" x="1366.5" y="-100.5" font-family="Helvetica,sans-Serif" font-size="10.00">include/rel/d/a/d_a</text>
<text text-anchor="middle" x="1408.5" y="-89.5" font-family="Helvetica,sans-Serif" font-size="10.00">_hitobj/d_a_hitobj.h</text>
</a>
</g>
</g>
<!-- Node2&#45;&gt;Node94 -->
<g id="edge15" class="edge">
<title>Node2&#45;&gt;Node94</title>
<path fill="none" stroke="#63b8ff" d="M2813.93,-168.15C2565.22,-168.27 1730.32,-165.08 1467.5,-118 1460.81,-116.8 1453.84,-115.01 1447.13,-113"/>
<polygon fill="#63b8ff" stroke="#63b8ff" points="2813.81,-171.65 2823.81,-168.14 2813.81,-164.65 2813.81,-171.65"/>
</g>
<!-- Node193 -->
<g id="node17" class="node">
<title>Node193</title>
<g id="a_node17"><a xlink:href="d__a__scene__exit_8h.html" target="_top" xlink:title=" ">
<polygon fill="#fff0f0" stroke="red" points="1596,-118 1477,-118 1477,-77 1596,-77 1596,-118"/>
<text text-anchor="start" x="1485" y="-106" font-family="Helvetica,sans-Serif" font-size="10.00">include/rel/d/a/d_a</text>
<text text-anchor="start" x="1485" y="-95" font-family="Helvetica,sans-Serif" font-size="10.00">_scene_exit/d_a_scene</text>
<text text-anchor="middle" x="1536.5" y="-84" font-family="Helvetica,sans-Serif" font-size="10.00">_exit.h</text>
</a>
</g>
</g>
<!-- Node2&#45;&gt;Node193 -->
<g id="edge16" class="edge">
<title>Node2&#45;&gt;Node193</title>
<path fill="none" stroke="#63b8ff" d="M2813.87,-167.47C2581.21,-165.38 1840.27,-155.85 1604.5,-118 1601.83,-117.57 1599.12,-117.07 1596.39,-116.52"/>
<polygon fill="#63b8ff" stroke="#63b8ff" points="2813.67,-170.97 2823.7,-167.56 2813.73,-163.97 2813.67,-170.97"/>
</g>
<!-- Node194 -->
<g id="node18" class="node">
<title>Node194</title>
<g id="a_node18"><a xlink:href="d__a__suspend_8h.html" target="_top" xlink:title=" ">
<polygon fill="#fff0f0" stroke="red" points="1741,-112.5 1614,-112.5 1614,-82.5 1741,-82.5 1741,-112.5"/>
<text text-anchor="start" x="1622" y="-100.5" font-family="Helvetica,sans-Serif" font-size="10.00">include/rel/d/a/d_a</text>
<text text-anchor="middle" x="1677.5" y="-89.5" font-family="Helvetica,sans-Serif" font-size="10.00">_suspend/d_a_suspend.h</text>
</a>
</g>
</g>
<!-- Node2&#45;&gt;Node194 -->
<g id="edge17" class="edge">
<title>Node2&#45;&gt;Node194</title>
<path fill="none" stroke="#63b8ff" d="M2813.74,-166.89C2599.01,-163.2 1956.94,-149.74 1750.5,-118 1742.46,-116.76 1734.03,-114.98 1725.88,-112.99"/>
<polygon fill="#63b8ff" stroke="#63b8ff" points="2813.58,-170.39 2823.64,-167.06 2813.7,-163.39 2813.58,-170.39"/>
</g>
<!-- Node100 -->
<g id="node19" class="node">
<title>Node100</title>
<g id="a_node19"><a xlink:href="d__a__swTime_8h.html" target="_top" xlink:title=" ">
<polygon fill="white" stroke="#666666" points="1881.5,-112.5 1759.5,-112.5 1759.5,-82.5 1881.5,-82.5 1881.5,-112.5"/>
<text text-anchor="start" x="1767.5" y="-100.5" font-family="Helvetica,sans-Serif" font-size="10.00">include/rel/d/a/d_a</text>
<text text-anchor="middle" x="1820.5" y="-89.5" font-family="Helvetica,sans-Serif" font-size="10.00">_swTime/d_a_swTime.h</text>
</a>
</g>
</g>
<!-- Node2&#45;&gt;Node100 -->
<g id="edge18" class="edge">
<title>Node2&#45;&gt;Node100</title>
<path fill="none" stroke="#63b8ff" d="M2813.86,-166.48C2617.62,-161.93 2068.59,-146.92 1890.5,-118 1882.78,-116.75 1874.69,-114.96 1866.87,-112.96"/>
<polygon fill="#63b8ff" stroke="#63b8ff" points="2813.57,-169.97 2823.65,-166.7 2813.73,-162.97 2813.57,-169.97"/>
</g>
<!-- Node196 -->
<g id="node20" class="node">
<title>Node196</title>
<g id="a_node20"><a xlink:href="d__a__tboxSw_8h.html" target="_top" xlink:title=" ">
<polygon fill="white" stroke="#666666" points="2017.5,-112.5 1899.5,-112.5 1899.5,-82.5 2017.5,-82.5 2017.5,-112.5"/>
<text text-anchor="start" x="1907.5" y="-100.5" font-family="Helvetica,sans-Serif" font-size="10.00">include/rel/d/a/d_a</text>
<text text-anchor="middle" x="1958.5" y="-89.5" font-family="Helvetica,sans-Serif" font-size="10.00">_tboxSw/d_a_tboxSw.h</text>
</a>
</g>
</g>
<!-- Node2&#45;&gt;Node196 -->
<g id="edge19" class="edge">
<title>Node2&#45;&gt;Node196</title>
<path fill="none" stroke="#63b8ff" d="M2813.86,-165.9C2636.76,-160.3 2177.27,-143.68 2026.5,-118 2018.99,-116.72 2011.13,-114.92 2003.53,-112.92"/>
<polygon fill="#63b8ff" stroke="#63b8ff" points="2813.49,-169.39 2823.6,-166.2 2813.71,-162.39 2813.49,-169.39"/>
</g>
<!-- Node197 -->
<g id="node21" class="node">
<title>Node197</title>
<g id="a_node21"><a xlink:href="d__a__e__ge_8h.html" target="_top" xlink:title=" ">
<polygon fill="#fff0f0" stroke="red" points="2141.5,-112.5 2035.5,-112.5 2035.5,-82.5 2141.5,-82.5 2141.5,-112.5"/>
<text text-anchor="start" x="2043.5" y="-100.5" font-family="Helvetica,sans-Serif" font-size="10.00">include/rel/d/a/e/d</text>
<text text-anchor="middle" x="2088.5" y="-89.5" font-family="Helvetica,sans-Serif" font-size="10.00">_a_e_ge/d_a_e_ge.h</text>
</a>
</g>
</g>
<!-- Node2&#45;&gt;Node197 -->
<g id="edge20" class="edge">
<title>Node2&#45;&gt;Node197</title>
<path fill="none" stroke="#63b8ff" d="M2813.91,-168.71C2682.26,-168.81 2390.82,-163.31 2150.5,-118 2143.74,-116.72 2136.68,-114.95 2129.84,-112.99"/>
<polygon fill="#63b8ff" stroke="#63b8ff" points="2813.88,-172.21 2823.87,-168.69 2813.87,-165.21 2813.88,-172.21"/>
</g>
<!-- Node18 -->
<g id="node22" class="node">
<title>Node18</title>
<g id="a_node22"><a xlink:href="d__a__e__yk_8h.html" target="_top" xlink:title=" ">
<polygon fill="white" stroke="#666666" points="2263.5,-112.5 2159.5,-112.5 2159.5,-82.5 2263.5,-82.5 2263.5,-112.5"/>
<text text-anchor="start" x="2167.5" y="-100.5" font-family="Helvetica,sans-Serif" font-size="10.00">include/rel/d/a/e/d</text>
<text text-anchor="middle" x="2211.5" y="-89.5" font-family="Helvetica,sans-Serif" font-size="10.00">_a_e_yk/d_a_e_yk.h</text>
</a>
</g>
</g>
<!-- Node2&#45;&gt;Node18 -->
<g id="edge21" class="edge">
<title>Node2&#45;&gt;Node18</title>
<path fill="none" stroke="#63b8ff" d="M2813.84,-167.43C2699.16,-165.35 2465.86,-156.28 2272.5,-118 2265.85,-116.68 2258.9,-114.89 2252.18,-112.91"/>
<polygon fill="#63b8ff" stroke="#63b8ff" points="2813.66,-170.93 2823.72,-167.6 2813.78,-163.93 2813.66,-170.93"/>
</g>
<!-- Node198 -->
<g id="node23" class="node">
<title>Node198</title>
<g id="a_node23"><a xlink:href="d__a__kytag06_8h.html" target="_top" xlink:title=" ">
<polygon fill="white" stroke="#666666" points="2421.5,-112.5 2281.5,-112.5 2281.5,-82.5 2421.5,-82.5 2421.5,-112.5"/>
<text text-anchor="start" x="2289.5" y="-100.5" font-family="Helvetica,sans-Serif" font-size="10.00">include/rel/d/a/kytag</text>
<text text-anchor="middle" x="2351.5" y="-89.5" font-family="Helvetica,sans-Serif" font-size="10.00">/d_a_kytag06/d_a_kytag06.h</text>
</a>
</g>
</g>
<!-- Node2&#45;&gt;Node198 -->
<g id="edge22" class="edge">
<title>Node2&#45;&gt;Node198</title>
<path fill="none" stroke="#63b8ff" d="M2813.63,-163.11C2723.94,-156.26 2564.94,-141.89 2430.5,-118 2422.57,-116.59 2414.26,-114.84 2406.12,-112.98"/>
<polygon fill="#63b8ff" stroke="#63b8ff" points="2813.27,-166.6 2823.5,-163.86 2813.79,-159.62 2813.27,-166.6"/>
</g>
<!-- Node199 -->
<g id="node24" class="node">
<title>Node199</title>
<g id="a_node24"><a xlink:href="d__a__kytag07_8h.html" target="_top" xlink:title=" ">
<polygon fill="white" stroke="#666666" points="2579.5,-112.5 2439.5,-112.5 2439.5,-82.5 2579.5,-82.5 2579.5,-112.5"/>
<text text-anchor="start" x="2447.5" y="-100.5" font-family="Helvetica,sans-Serif" font-size="10.00">include/rel/d/a/kytag</text>
<text text-anchor="middle" x="2509.5" y="-89.5" font-family="Helvetica,sans-Serif" font-size="10.00">/d_a_kytag07/d_a_kytag07.h</text>
</a>
</g>
</g>
<!-- Node2&#45;&gt;Node199 -->
<g id="edge23" class="edge">
<title>Node2&#45;&gt;Node199</title>
<path fill="none" stroke="#63b8ff" d="M2813.74,-157.57C2753.6,-148.34 2665.08,-133.9 2588.5,-118 2581.17,-116.48 2573.49,-114.75 2565.91,-112.97"/>
<polygon fill="#63b8ff" stroke="#63b8ff" points="2813.1,-161.01 2823.51,-159.06 2814.15,-154.09 2813.1,-161.01"/>
</g>
<!-- Node200 -->
<g id="node25" class="node">
<title>Node200</title>
<g id="a_node25"><a xlink:href="d__a__kytag17_8h.html" target="_top" xlink:title=" ">
<polygon fill="white" stroke="#666666" points="2737.5,-112.5 2597.5,-112.5 2597.5,-82.5 2737.5,-82.5 2737.5,-112.5"/>
<text text-anchor="start" x="2605.5" y="-100.5" font-family="Helvetica,sans-Serif" font-size="10.00">include/rel/d/a/kytag</text>
<text text-anchor="middle" x="2667.5" y="-89.5" font-family="Helvetica,sans-Serif" font-size="10.00">/d_a_kytag17/d_a_kytag17.h</text>
</a>
</g>
</g>
<!-- Node2&#45;&gt;Node200 -->
<g id="edge24" class="edge">
<title>Node2&#45;&gt;Node200</title>
<path fill="none" stroke="#63b8ff" d="M2828.45,-150.05C2792.45,-138.52 2746.31,-123.74 2712.67,-112.97"/>
<polygon fill="#63b8ff" stroke="#63b8ff" points="2827.24,-153.34 2837.83,-153.05 2829.38,-146.67 2827.24,-153.34"/>
</g>
<!-- Node201 -->
<g id="node26" class="node">
<title>Node201</title>
<g id="a_node26"><a xlink:href="d__a__npc__theB_8h.html" target="_top" xlink:title=" ">
<polygon fill="white" stroke="#666666" points="2877.5,-118 2755.5,-118 2755.5,-77 2877.5,-77 2877.5,-118"/>
<text text-anchor="start" x="2763.5" y="-106" font-family="Helvetica,sans-Serif" font-size="10.00">include/rel/d/a/npc</text>
<text text-anchor="start" x="2763.5" y="-95" font-family="Helvetica,sans-Serif" font-size="10.00">/d_a_npc_theB/d_a_npc</text>
<text text-anchor="middle" x="2816.5" y="-84" font-family="Helvetica,sans-Serif" font-size="10.00">_theB.h</text>
</a>
</g>
</g>
<!-- Node2&#45;&gt;Node201 -->
<g id="edge25" class="edge">
<title>Node2&#45;&gt;Node201</title>
<path fill="none" stroke="#63b8ff" d="M2862.38,-145.39C2853.87,-136.69 2844.23,-126.84 2835.99,-118.42"/>
<polygon fill="#63b8ff" stroke="#63b8ff" points="2859.86,-147.82 2869.35,-152.52 2864.86,-142.92 2859.86,-147.82"/>
</g>
<!-- Node105 -->
<g id="node27" class="node">
<title>Node105</title>
<g id="a_node27"><a xlink:href="d__a__obj__cowdoor_8h.html" target="_top" xlink:title=" ">
<polygon fill="white" stroke="#666666" points="3009.5,-118 2895.5,-118 2895.5,-77 3009.5,-77 3009.5,-118"/>
<text text-anchor="start" x="2903.5" y="-106" font-family="Helvetica,sans-Serif" font-size="10.00">include/rel/d/a/obj</text>
<text text-anchor="start" x="2903.5" y="-95" font-family="Helvetica,sans-Serif" font-size="10.00">/d_a_obj_cowdoor/d_a</text>
<text text-anchor="middle" x="2952.5" y="-84" font-family="Helvetica,sans-Serif" font-size="10.00">_obj_cowdoor.h</text>
</a>
</g>
</g>
<!-- Node2&#45;&gt;Node105 -->
<g id="edge27" class="edge">
<title>Node2&#45;&gt;Node105</title>
<path fill="none" stroke="#63b8ff" d="M2906.62,-145.39C2915.13,-136.69 2924.77,-126.84 2933.01,-118.42"/>
<polygon fill="#63b8ff" stroke="#63b8ff" points="2904.14,-142.92 2899.65,-152.52 2909.14,-147.82 2904.14,-142.92"/>
</g>
<!-- Node202 -->
<g id="node28" class="node">
<title>Node202</title>
<g id="a_node28"><a xlink:href="d__a__obj__eff_8h.html" target="_top" xlink:title=" ">
<polygon fill="white" stroke="#666666" points="3157,-112.5 3028,-112.5 3028,-82.5 3157,-82.5 3157,-112.5"/>
<text text-anchor="start" x="3036" y="-100.5" font-family="Helvetica,sans-Serif" font-size="10.00">include/rel/d/a/obj</text>
<text text-anchor="middle" x="3092.5" y="-89.5" font-family="Helvetica,sans-Serif" font-size="10.00">/d_a_obj_eff/d_a_obj_eff.h</text>
</a>
</g>
</g>
<!-- Node2&#45;&gt;Node202 -->
<g id="edge28" class="edge">
<title>Node2&#45;&gt;Node202</title>
<path fill="none" stroke="#63b8ff" d="M2938.67,-149.9C2973.11,-138.39 3017.1,-123.69 3049.21,-112.97"/>
<polygon fill="#63b8ff" stroke="#63b8ff" points="2937.66,-146.55 2929.29,-153.04 2939.88,-153.19 2937.66,-146.55"/>
</g>
<!-- Node108 -->
<g id="node29" class="node">
<title>Node108</title>
<g id="a_node29"><a xlink:href="d__a__obj__onsenFire_8h.html" target="_top" xlink:title=" ">
<polygon fill="white" stroke="#666666" points="3285.5,-118 3175.5,-118 3175.5,-77 3285.5,-77 3285.5,-118"/>
<text text-anchor="start" x="3183.5" y="-106" font-family="Helvetica,sans-Serif" font-size="10.00">include/rel/d/a/obj</text>
<text text-anchor="start" x="3183.5" y="-95" font-family="Helvetica,sans-Serif" font-size="10.00">/d_a_obj_onsenFire/d</text>
<text text-anchor="middle" x="3230.5" y="-84" font-family="Helvetica,sans-Serif" font-size="10.00">_a_obj_onsenFire.h</text>
</a>
</g>
</g>
<!-- Node2&#45;&gt;Node108 -->
<g id="edge29" class="edge">
<title>Node2&#45;&gt;Node108</title>
<path fill="none" stroke="#63b8ff" d="M2954.92,-157.78C3012.03,-148.94 3094.44,-134.92 3165.5,-118 3168.71,-117.24 3171.99,-116.41 3175.3,-115.53"/>
<polygon fill="#63b8ff" stroke="#63b8ff" points="2954.69,-154.27 2945.34,-159.25 2955.75,-161.19 2954.69,-154.27"/>
</g>
<!-- Node109 -->
<g id="node30" class="node">
<title>Node109</title>
<g id="a_node30"><a xlink:href="d__a__obj__smoke_8h.html" target="_top" xlink:title=" ">
<polygon fill="white" stroke="#666666" points="3429,-118 3304,-118 3304,-77 3429,-77 3429,-118"/>
<text text-anchor="start" x="3312" y="-106" font-family="Helvetica,sans-Serif" font-size="10.00">include/rel/d/a/obj</text>
<text text-anchor="start" x="3312" y="-95" font-family="Helvetica,sans-Serif" font-size="10.00">/d_a_obj_smoke/d_a_obj</text>
<text text-anchor="middle" x="3366.5" y="-84" font-family="Helvetica,sans-Serif" font-size="10.00">_smoke.h</text>
</a>
</g>
</g>
<!-- Node2&#45;&gt;Node109 -->
<g id="edge30" class="edge">
<title>Node2&#45;&gt;Node109</title>
<path fill="none" stroke="#63b8ff" d="M2955.44,-162.45C3037.56,-155.32 3176.66,-141.02 3294.5,-118 3297.55,-117.4 3300.66,-116.75 3303.8,-116.05"/>
<polygon fill="#63b8ff" stroke="#63b8ff" points="2955.16,-158.96 2945.5,-163.31 2955.76,-165.94 2955.16,-158.96"/>
</g>
<!-- Node112 -->
<g id="node31" class="node">
<title>Node112</title>
<g id="a_node31"><a xlink:href="d__a__obj__tmoon_8h.html" target="_top" xlink:title=" ">
<polygon fill="white" stroke="#666666" points="3569.5,-118 3447.5,-118 3447.5,-77 3569.5,-77 3569.5,-118"/>
<text text-anchor="start" x="3455.5" y="-106" font-family="Helvetica,sans-Serif" font-size="10.00">include/rel/d/a/obj</text>
<text text-anchor="start" x="3455.5" y="-95" font-family="Helvetica,sans-Serif" font-size="10.00">/d_a_obj_tmoon/d_a_obj</text>
<text text-anchor="middle" x="3508.5" y="-84" font-family="Helvetica,sans-Serif" font-size="10.00">_tmoon.h</text>
</a>
</g>
</g>
<!-- Node2&#45;&gt;Node112 -->
<g id="edge31" class="edge">
<title>Node2&#45;&gt;Node112</title>
<path fill="none" stroke="#63b8ff" d="M2955.35,-165.62C3061.08,-161.17 3266.07,-149.04 3437.5,-118 3440.64,-117.43 3443.85,-116.79 3447.08,-116.09"/>
<polygon fill="#63b8ff" stroke="#63b8ff" points="2955.25,-162.12 2945.4,-166.03 2955.54,-169.12 2955.25,-162.12"/>
</g>
<!-- Node117 -->
<g id="node32" class="node">
<title>Node117</title>
<g id="a_node32"><a xlink:href="d__a__tag__ajnot_8h.html" target="_top" xlink:title=" ">
<polygon fill="white" stroke="#666666" points="3705.5,-118 3587.5,-118 3587.5,-77 3705.5,-77 3705.5,-118"/>
<text text-anchor="start" x="3595.5" y="-106" font-family="Helvetica,sans-Serif" font-size="10.00">include/rel/d/a/tag</text>
<text text-anchor="start" x="3595.5" y="-95" font-family="Helvetica,sans-Serif" font-size="10.00">/d_a_tag_ajnot/d_a_tag</text>
<text text-anchor="middle" x="3646.5" y="-84" font-family="Helvetica,sans-Serif" font-size="10.00">_ajnot.h</text>
</a>
</g>
</g>
<!-- Node2&#45;&gt;Node117 -->
<g id="edge32" class="edge">
<title>Node2&#45;&gt;Node117</title>
<path fill="none" stroke="#63b8ff" d="M2955.35,-167.72C3081.59,-166.16 3353.3,-157.96 3578.5,-118 3581.4,-117.49 3584.36,-116.9 3587.33,-116.25"/>
<polygon fill="#63b8ff" stroke="#63b8ff" points="2955.44,-164.22 2945.48,-167.83 2955.51,-171.22 2955.44,-164.22"/>
</g>
<!-- Node203 -->
<g id="node33" class="node">
<title>Node203</title>
<g id="a_node33"><a xlink:href="d__a__tag__arena_8h.html" target="_top" xlink:title=" ">
<polygon fill="white" stroke="#666666" points="3845,-118 3724,-118 3724,-77 3845,-77 3845,-118"/>
<text text-anchor="start" x="3732" y="-106" font-family="Helvetica,sans-Serif" font-size="10.00">include/rel/d/a/tag</text>
<text text-anchor="start" x="3732" y="-95" font-family="Helvetica,sans-Serif" font-size="10.00">/d_a_tag_arena/d_a_tag</text>
<text text-anchor="middle" x="3784.5" y="-84" font-family="Helvetica,sans-Serif" font-size="10.00">_arena.h</text>
</a>
</g>
</g>
<!-- Node2&#45;&gt;Node203 -->
<g id="edge33" class="edge">
<title>Node2&#45;&gt;Node203</title>
<path fill="none" stroke="#63b8ff" d="M2955.12,-168.75C3099.04,-169.19 3436.22,-164.6 3714.5,-118 3717.49,-117.5 3720.53,-116.92 3723.59,-116.29"/>
<polygon fill="#63b8ff" stroke="#63b8ff" points="2955.38,-165.25 2945.37,-168.71 2955.35,-172.25 2955.38,-165.25"/>
</g>
<!-- Node118 -->
<g id="node34" class="node">
<title>Node118</title>
<g id="a_node34"><a xlink:href="d__a__tag__assistance_8h.html" target="_top" xlink:title=" ">
<polygon fill="white" stroke="#666666" points="3977.5,-118 3863.5,-118 3863.5,-77 3977.5,-77 3977.5,-118"/>
<text text-anchor="start" x="3871.5" y="-106" font-family="Helvetica,sans-Serif" font-size="10.00">include/rel/d/a/tag</text>
<text text-anchor="start" x="3871.5" y="-95" font-family="Helvetica,sans-Serif" font-size="10.00">/d_a_tag_assistance</text>
<text text-anchor="middle" x="3920.5" y="-84" font-family="Helvetica,sans-Serif" font-size="10.00">/d_a_tag_assistance.h</text>
</a>
</g>
</g>
<!-- Node2&#45;&gt;Node118 -->
<g id="edge34" class="edge">
<title>Node2&#45;&gt;Node118</title>
<path fill="none" stroke="#63b8ff" d="M2955.36,-166.47C3148.4,-161.97 3680.66,-147.21 3853.5,-118 3856.73,-117.46 3860.02,-116.81 3863.32,-116.09"/>
<polygon fill="#63b8ff" stroke="#63b8ff" points="2955.39,-162.97 2945.48,-166.7 2955.55,-169.97 2955.39,-162.97"/>
</g>
<!-- Node119 -->
<g id="node35" class="node">
<title>Node119</title>
<g id="a_node35"><a xlink:href="d__a__tag__attention_8h.html" target="_top" xlink:title=" ">
<polygon fill="white" stroke="#666666" points="4101,-118 3996,-118 3996,-77 4101,-77 4101,-118"/>
<text text-anchor="start" x="4004" y="-106" font-family="Helvetica,sans-Serif" font-size="10.00">include/rel/d/a/tag</text>
<text text-anchor="start" x="4004" y="-95" font-family="Helvetica,sans-Serif" font-size="10.00">/d_a_tag_attention/d</text>
<text text-anchor="middle" x="4048.5" y="-84" font-family="Helvetica,sans-Serif" font-size="10.00">_a_tag_attention.h</text>
</a>
</g>
</g>
<!-- Node2&#45;&gt;Node119 -->
<g id="edge35" class="edge">
<title>Node2&#45;&gt;Node119</title>
<path fill="none" stroke="#63b8ff" d="M2955.15,-167.18C3165.8,-164.37 3787.2,-153.24 3986.5,-118 3989.5,-117.47 3992.56,-116.83 3995.63,-116.12"/>
<polygon fill="#63b8ff" stroke="#63b8ff" points="2955.42,-163.68 2945.46,-167.31 2955.51,-170.68 2955.42,-163.68"/>
</g>
<!-- Node204 -->
<g id="node36" class="node">
<title>Node204</title>
<g id="a_node36"><a xlink:href="d__a__tag__escape_8h.html" target="_top" xlink:title=" ">
<polygon fill="white" stroke="#666666" points="4229.5,-118 4119.5,-118 4119.5,-77 4229.5,-77 4229.5,-118"/>
<text text-anchor="start" x="4127.5" y="-106" font-family="Helvetica,sans-Serif" font-size="10.00">include/rel/d/a/tag</text>
<text text-anchor="start" x="4127.5" y="-95" font-family="Helvetica,sans-Serif" font-size="10.00">/d_a_tag_escape/d_a</text>
<text text-anchor="middle" x="4174.5" y="-84" font-family="Helvetica,sans-Serif" font-size="10.00">_tag_escape.h</text>
</a>
</g>
</g>
<!-- Node2&#45;&gt;Node204 -->
<g id="edge36" class="edge">
<title>Node2&#45;&gt;Node204</title>
<path fill="none" stroke="#63b8ff" d="M2955.15,-167.44C3181.21,-165.28 3885.11,-155.62 4109.5,-118 4112.64,-117.47 4115.84,-116.84 4119.05,-116.13"/>
<polygon fill="#63b8ff" stroke="#63b8ff" points="2955.28,-163.94 2945.31,-167.53 2955.34,-170.94 2955.28,-163.94"/>
</g>
<!-- Node120 -->
<g id="node37" class="node">
<title>Node120</title>
<g id="a_node37"><a xlink:href="d__a__tag__gra_8h.html" target="_top" xlink:title=" ">
<polygon fill="white" stroke="#666666" points="4385,-112.5 4248,-112.5 4248,-82.5 4385,-82.5 4385,-112.5"/>
<text text-anchor="start" x="4256" y="-100.5" font-family="Helvetica,sans-Serif" font-size="10.00">include/rel/d/a/tag</text>
<text text-anchor="middle" x="4316.5" y="-89.5" font-family="Helvetica,sans-Serif" font-size="10.00">/d_a_tag_gra/d_a_tag_gra.h</text>
</a>
</g>
</g>
<!-- Node2&#45;&gt;Node120 -->
<g id="edge37" class="edge">
<title>Node2&#45;&gt;Node120</title>
<path fill="none" stroke="#63b8ff" d="M2955.04,-167.33C3196.24,-164.74 3987.01,-153.68 4238.5,-118 4247.21,-116.76 4256.35,-114.96 4265.19,-112.93"/>
<polygon fill="#63b8ff" stroke="#63b8ff" points="2955.11,-163.83 2945.15,-167.44 2955.19,-170.83 2955.11,-163.83"/>
</g>
<!-- Node205 -->
<g id="node38" class="node">
<title>Node205</title>
<g id="a_node38"><a xlink:href="d__a__tag__guard_8h.html" target="_top" xlink:title=" ">
<polygon fill="white" stroke="#666666" points="4524,-118 4403,-118 4403,-77 4524,-77 4524,-118"/>
<text text-anchor="start" x="4411" y="-106" font-family="Helvetica,sans-Serif" font-size="10.00">include/rel/d/a/tag</text>
<text text-anchor="start" x="4411" y="-95" font-family="Helvetica,sans-Serif" font-size="10.00">/d_a_tag_guard/d_a_tag</text>
<text text-anchor="middle" x="4463.5" y="-84" font-family="Helvetica,sans-Serif" font-size="10.00">_guard.h</text>
</a>
</g>
</g>
<!-- Node2&#45;&gt;Node205 -->
<g id="edge38" class="edge">
<title>Node2&#45;&gt;Node205</title>
<path fill="none" stroke="#63b8ff" d="M2955.18,-167.89C3214.19,-167.14 4110.91,-161.4 4393.5,-118 4396.49,-117.54 4399.54,-117 4402.6,-116.39"/>
<polygon fill="#63b8ff" stroke="#63b8ff" points="2955.2,-164.39 2945.21,-167.92 2955.22,-171.39 2955.2,-164.39"/>
</g>
<!-- Node122 -->
<g id="node39" class="node">
<title>Node122</title>
<g id="a_node39"><a xlink:href="d__a__tag__howl_8h.html" target="_top" xlink:title=" ">
<polygon fill="white" stroke="#666666" points="4659,-118 4542,-118 4542,-77 4659,-77 4659,-118"/>
<text text-anchor="start" x="4550" y="-106" font-family="Helvetica,sans-Serif" font-size="10.00">include/rel/d/a/tag</text>
<text text-anchor="start" x="4550" y="-95" font-family="Helvetica,sans-Serif" font-size="10.00">/d_a_tag_howl/d_a_tag</text>
<text text-anchor="middle" x="4600.5" y="-84" font-family="Helvetica,sans-Serif" font-size="10.00">_howl.h</text>
</a>
</g>
</g>
<!-- Node2&#45;&gt;Node122 -->
<g id="edge40" class="edge">
<title>Node2&#45;&gt;Node122</title>
<path fill="none" stroke="#63b8ff" d="M2955.24,-168.19C3229.34,-168.58 4221.62,-166.51 4532.5,-118 4535.53,-117.53 4538.62,-116.96 4541.73,-116.32"/>
<polygon fill="#63b8ff" stroke="#63b8ff" points="2955.39,-164.69 2945.39,-168.18 2955.38,-171.69 2955.39,-164.69"/>
</g>
<!-- Node206 -->
<g id="node40" class="node">
<title>Node206</title>
<g id="a_node40"><a xlink:href="d__a__tag__instruction_8h.html" target="_top" xlink:title=" ">
<polygon fill="white" stroke="#666666" points="4789.5,-118 4677.5,-118 4677.5,-77 4789.5,-77 4789.5,-118"/>
<text text-anchor="start" x="4685.5" y="-106" font-family="Helvetica,sans-Serif" font-size="10.00">include/rel/d/a/tag</text>
<text text-anchor="start" x="4685.5" y="-95" font-family="Helvetica,sans-Serif" font-size="10.00">/d_a_tag_instruction</text>
<text text-anchor="middle" x="4733.5" y="-84" font-family="Helvetica,sans-Serif" font-size="10.00">/d_a_tag_instruction.h</text>
</a>
</g>
</g>
<!-- Node2&#45;&gt;Node206 -->
<g id="edge41" class="edge">
<title>Node2&#45;&gt;Node206</title>
<path fill="none" stroke="#63b8ff" d="M2955.19,-167.12C3265.31,-163.1 4497.58,-145.54 4668.5,-118 4671.41,-117.53 4674.37,-116.97 4677.34,-116.33"/>
<polygon fill="#63b8ff" stroke="#63b8ff" points="2955.16,-163.62 2945.2,-167.25 2955.25,-170.62 2955.16,-163.62"/>
</g>
<!-- Node123 -->
<g id="node41" class="node">
<title>Node123</title>
<g id="a_node41"><a xlink:href="d__a__tag__lantern_8h.html" target="_top" xlink:title=" ">
<polygon fill="white" stroke="#666666" points="4915,-118 4808,-118 4808,-77 4915,-77 4915,-118"/>
<text text-anchor="start" x="4816" y="-106" font-family="Helvetica,sans-Serif" font-size="10.00">include/rel/d/a/tag</text>
<text text-anchor="start" x="4816" y="-95" font-family="Helvetica,sans-Serif" font-size="10.00">/d_a_tag_lantern/d_a</text>
<text text-anchor="middle" x="4861.5" y="-84" font-family="Helvetica,sans-Serif" font-size="10.00">_tag_lantern.h</text>
</a>
</g>
</g>
<!-- Node2&#45;&gt;Node123 -->
<g id="edge42" class="edge">
<title>Node2&#45;&gt;Node123</title>
<path fill="none" stroke="#63b8ff" d="M2955.03,-167.3C3278.74,-163.94 4614.24,-148.33 4798.5,-118 4801.55,-117.5 4804.66,-116.88 4807.78,-116.19"/>
<polygon fill="#63b8ff" stroke="#63b8ff" points="2955.42,-163.8 2945.46,-167.4 2955.5,-170.8 2955.42,-163.8"/>
</g>
<!-- Node207 -->
<g id="node42" class="node">
<title>Node207</title>
<g id="a_node42"><a xlink:href="d__a__tag__lv5soup_8h.html" target="_top" xlink:title=" ">
<polygon fill="white" stroke="#666666" points="5045.5,-118 4933.5,-118 4933.5,-77 5045.5,-77 5045.5,-118"/>
<text text-anchor="start" x="4941.5" y="-106" font-family="Helvetica,sans-Serif" font-size="10.00">include/rel/d/a/tag</text>
<text text-anchor="start" x="4941.5" y="-95" font-family="Helvetica,sans-Serif" font-size="10.00">/d_a_tag_lv5soup/d_a</text>
<text text-anchor="middle" x="4989.5" y="-84" font-family="Helvetica,sans-Serif" font-size="10.00">_tag_lv5soup.h</text>
</a>
</g>
</g>
<!-- Node2&#45;&gt;Node207 -->
<g id="edge43" class="edge">
<title>Node2&#45;&gt;Node207</title>
<path fill="none" stroke="#63b8ff" d="M2954.96,-167.39C3291.48,-164.32 4727.05,-149.46 4924.5,-118 4927.41,-117.54 4930.37,-116.98 4933.34,-116.35"/>
<polygon fill="#63b8ff" stroke="#63b8ff" points="2955.4,-163.88 2945.43,-167.47 2955.46,-170.88 2955.4,-163.88"/>
</g>
<!-- Node208 -->
<g id="node43" class="node">
<title>Node208</title>
<g id="a_node43"><a xlink:href="d__a__tag__magne_8h.html" target="_top" xlink:title=" ">
<polygon fill="#fff0f0" stroke="red" points="5189.5,-118 5063.5,-118 5063.5,-77 5189.5,-77 5189.5,-118"/>
<text text-anchor="start" x="5071.5" y="-106" font-family="Helvetica,sans-Serif" font-size="10.00">include/rel/d/a/tag</text>
<text text-anchor="start" x="5071.5" y="-95" font-family="Helvetica,sans-Serif" font-size="10.00">/d_a_tag_magne/d_a_tag</text>
<text text-anchor="middle" x="5126.5" y="-84" font-family="Helvetica,sans-Serif" font-size="10.00">_magne.h</text>
</a>
</g>
</g>
<!-- Node2&#45;&gt;Node208 -->
<g id="edge44" class="edge">
<title>Node2&#45;&gt;Node208</title>
<path fill="none" stroke="#63b8ff" d="M2955.36,-167.38C3305.59,-164.2 4843.21,-148.59 5054.5,-118 5057.32,-117.59 5060.19,-117.11 5063.07,-116.57"/>
<polygon fill="#63b8ff" stroke="#63b8ff" points="2955.38,-163.88 2945.41,-167.47 2955.44,-170.88 2955.38,-163.88"/>
</g>
<!-- Node209 -->
<g id="node44" class="node">
<title>Node209</title>
<g id="a_node44"><a xlink:href="d__a__tag__mmsg_8h.html" target="_top" xlink:title=" ">
<polygon fill="white" stroke="#666666" points="5331.5,-118 5207.5,-118 5207.5,-77 5331.5,-77 5331.5,-118"/>
<text text-anchor="start" x="5215.5" y="-106" font-family="Helvetica,sans-Serif" font-size="10.00">include/rel/d/a/tag</text>
<text text-anchor="start" x="5215.5" y="-95" font-family="Helvetica,sans-Serif" font-size="10.00">/d_a_tag_mmsg/d_a_tag</text>
<text text-anchor="middle" x="5269.5" y="-84" font-family="Helvetica,sans-Serif" font-size="10.00">_mmsg.h</text>
</a>
</g>
</g>
<!-- Node2&#45;&gt;Node209 -->
<g id="edge45" class="edge">
<title>Node2&#45;&gt;Node209</title>
<path fill="none" stroke="#63b8ff" d="M2955.31,-167.51C3319.37,-164.84 4972.26,-151 5198.5,-118 5201.41,-117.58 5204.37,-117.07 5207.35,-116.5"/>
<polygon fill="#63b8ff" stroke="#63b8ff" points="2955.39,-164.01 2945.42,-167.58 2955.44,-171.01 2955.39,-164.01"/>
</g>
<!-- Node126 -->
<g id="node45" class="node">
<title>Node126</title>
<g id="a_node45"><a xlink:href="d__a__tag__poFire_8h.html" target="_top" xlink:title=" ">
<polygon fill="white" stroke="#666666" points="5455,-118 5350,-118 5350,-77 5455,-77 5455,-118"/>
<text text-anchor="start" x="5358" y="-106" font-family="Helvetica,sans-Serif" font-size="10.00">include/rel/d/a/tag</text>
<text text-anchor="start" x="5358" y="-95" font-family="Helvetica,sans-Serif" font-size="10.00">/d_a_tag_poFire/d_a</text>
<text text-anchor="middle" x="5402.5" y="-84" font-family="Helvetica,sans-Serif" font-size="10.00">_tag_poFire.h</text>
</a>
</g>
</g>
<!-- Node2&#45;&gt;Node126 -->
<g id="edge47" class="edge">
<title>Node2&#45;&gt;Node126</title>
<path fill="none" stroke="#63b8ff" d="M2955.11,-167.13C3344.82,-162.24 5219.87,-137.78 5340.5,-118 5343.51,-117.51 5346.57,-116.9 5349.64,-116.21"/>
<polygon fill="#63b8ff" stroke="#63b8ff" points="2955.21,-163.63 2945.26,-167.25 2955.3,-170.63 2955.21,-163.63"/>
</g>
<!-- Node127 -->
<g id="node46" class="node">
<title>Node127</title>
<g id="a_node46"><a xlink:href="d__a__tag__ret__room_8h.html" target="_top" xlink:title=" ">
<polygon fill="white" stroke="#666666" points="5579.5,-118 5473.5,-118 5473.5,-77 5579.5,-77 5579.5,-118"/>
<text text-anchor="start" x="5481.5" y="-106" font-family="Helvetica,sans-Serif" font-size="10.00">include/rel/d/a/tag</text>
<text text-anchor="start" x="5481.5" y="-95" font-family="Helvetica,sans-Serif" font-size="10.00">/d_a_tag_ret_room/d</text>
<text text-anchor="middle" x="5526.5" y="-84" font-family="Helvetica,sans-Serif" font-size="10.00">_a_tag_ret_room.h</text>
</a>
</g>
</g>
<!-- Node2&#45;&gt;Node127 -->
<g id="edge48" class="edge">
<title>Node2&#45;&gt;Node127</title>
<path fill="none" stroke="#63b8ff" d="M2955.42,-167.2C3357.51,-162.56 5337.43,-138.77 5464.5,-118 5467.4,-117.53 5470.34,-116.95 5473.3,-116.29"/>
<polygon fill="#63b8ff" stroke="#63b8ff" points="2955.46,-163.69 2945.5,-167.31 2955.54,-170.69 2955.46,-163.69"/>
</g>
<!-- Node2&#45;&gt;Node217 -->
<g id="edge49" class="edge">
<title>Node2&#45;&gt;Node217</title>
<path fill="none" stroke="#63b8ff" d="M2955.15,-167.47C3357.35,-164.36 5349.85,-147.54 5621.5,-118 5641.65,-115.81 5663.83,-111.49 5681.89,-107.48"/>
<polygon fill="#63b8ff" stroke="#63b8ff" points="2955.2,-163.97 2945.23,-167.55 2955.26,-170.97 2955.2,-163.97"/>
</g>
<!-- Node185&#45;&gt;Node103 -->
<g id="edge6" class="edge">
<title>Node185&#45;&gt;Node103</title>
<path fill="none" stroke="#63b8ff" d="M298.52,-77.71C304.43,-66.62 311.91,-52.61 317.91,-41.35"/>
<polygon fill="#63b8ff" stroke="#63b8ff" points="295.58,-75.8 293.96,-86.27 301.75,-79.09 295.58,-75.8"/>
</g>
<!-- Node205&#45;&gt;Node93 -->
<g id="edge39" class="edge">
<title>Node205&#45;&gt;Node93</title>
<path fill="none" stroke="#63b8ff" d="M4391.36,-76.93C4092.57,-33.39 3230.6,-23.89 2971.18,-21.95"/>
<polygon fill="#63b8ff" stroke="#63b8ff" points="4390.69,-80.37 4401.1,-78.4 4391.74,-73.45 4390.69,-80.37"/>
</g>
<!-- Node209&#45;&gt;Node3 -->
<g id="edge46" class="edge">
<title>Node209&#45;&gt;Node3</title>
<path fill="none" stroke="#63b8ff" d="M5324.54,-72.07C5356.75,-57.78 5395.47,-40.59 5418.48,-30.38"/>
<polygon fill="#63b8ff" stroke="#63b8ff" points="5323.45,-68.73 5315.73,-75.98 5326.29,-75.13 5323.45,-68.73"/>
</g>
</g>
</svg>
