<?xml version="1.0" encoding="UTF-8" standalone="no"?>
<!DOCTYPE svg PUBLIC "-//W3C//DTD SVG 1.1//EN"
 "http://www.w3.org/Graphics/SVG/1.1/DTD/svg11.dtd">
<!-- Generated by graphviz version 7.0.5 (20221223.1930)
 -->
<!-- Title: include/f_pc/f_pc_create_iter.h Pages: 1 -->
<svg width="5641pt" height="302pt"
 viewBox="0.00 0.00 5640.56 302.00" xmlns="http://www.w3.org/2000/svg" xmlns:xlink="http://www.w3.org/1999/xlink">
<g id="graph0" class="graph" transform="scale(1 1) rotate(0) translate(4 298)">
<title>include/f_pc/f_pc_create_iter.h</title>
<!-- Node1 -->
<g id="node1" class="node">
<title>Node1</title>
<g id="a_node1"><a xlink:title=" ">
<polygon fill="#999999" stroke="#666666" points="5378.06,-294 5255.06,-294 5255.06,-264 5378.06,-264 5378.06,-294"/>
<text text-anchor="start" x="5263.06" y="-282" font-family="Helvetica,sans-Serif" font-size="10.00">include/f_pc/f_pc_create</text>
<text text-anchor="middle" x="5316.56" y="-271" font-family="Helvetica,sans-Serif" font-size="10.00">_iter.h</text>
</a>
</g>
</g>
<!-- Node2 -->
<g id="node2" class="node">
<title>Node2</title>
<g id="a_node2"><a xlink:href="f__pc__manager_8h.html" target="_top" xlink:title=" ">
<polygon fill="white" stroke="#666666" points="4959.06,-222.5 4818.06,-222.5 4818.06,-203.5 4959.06,-203.5 4959.06,-222.5"/>
<text text-anchor="middle" x="4888.56" y="-210.5" font-family="Helvetica,sans-Serif" font-size="10.00">include/f_pc/f_pc_manager.h</text>
</a>
</g>
</g>
<!-- Node1&#45;&gt;Node2 -->
<g id="edge1" class="edge">
<title>Node1&#45;&gt;Node2</title>
<path fill="none" stroke="#63b8ff" d="M5243.64,-267.1C5160.46,-254.66 5025.98,-234.55 4948.59,-222.98"/>
<polygon fill="#63b8ff" stroke="#63b8ff" points="5242.87,-270.52 5253.28,-268.54 5243.91,-263.6 5242.87,-270.52"/>
</g>
<!-- Node137 -->
<g id="node48" class="node">
<title>Node137</title>
<g id="a_node48"><a xlink:href="f__pc__manager_8cpp.html" target="_top" xlink:title=" ">
<polygon fill="white" stroke="#666666" points="5632.56,-156.5 5498.56,-156.5 5498.56,-137.5 5632.56,-137.5 5632.56,-156.5"/>
<text text-anchor="middle" x="5565.56" y="-144.5" font-family="Helvetica,sans-Serif" font-size="10.00">src/f_pc/f_pc_manager.cpp</text>
</a>
</g>
</g>
<!-- Node1&#45;&gt;Node137 -->
<g id="edge54" class="edge">
<title>Node1&#45;&gt;Node137</title>
<path fill="none" stroke="#63b8ff" d="M5300.21,-254.21C5290.51,-236.88 5282.43,-213.78 5295.56,-198 5296,-197.47 5438.71,-171.24 5516.45,-156.99"/>
<polygon fill="#63b8ff" stroke="#63b8ff" points="5296.97,-255.63 5305.17,-262.35 5302.95,-251.99 5296.97,-255.63"/>
</g>
<!-- Node195 -->
<g id="node49" class="node">
<title>Node195</title>
<g id="a_node49"><a xlink:href="f__pc__create__iter_8cpp.html" target="_top" xlink:title=" ">
<polygon fill="white" stroke="#666666" points="5410.56,-228 5304.56,-228 5304.56,-198 5410.56,-198 5410.56,-228"/>
<text text-anchor="start" x="5312.56" y="-216" font-family="Helvetica,sans-Serif" font-size="10.00">src/f_pc/f_pc_create</text>
<text text-anchor="middle" x="5357.56" y="-205" font-family="Helvetica,sans-Serif" font-size="10.00">_iter.cpp</text>
</a>
</g>
</g>
<!-- Node1&#45;&gt;Node195 -->
<g id="edge52" class="edge">
<title>Node1&#45;&gt;Node195</title>
<path fill="none" stroke="#63b8ff" d="M5331.86,-254.11C5337.45,-245.38 5343.6,-235.78 5348.48,-228.16"/>
<polygon fill="#63b8ff" stroke="#63b8ff" points="5328.92,-252.21 5326.47,-262.52 5334.81,-255.99 5328.92,-252.21"/>
</g>
<!-- Node196 -->
<g id="node50" class="node">
<title>Node196</title>
<g id="a_node50"><a xlink:href="f__pc__create__req_8cpp.html" target="_top" xlink:title=" ">
<polygon fill="white" stroke="#666666" points="5534.56,-228 5428.56,-228 5428.56,-198 5534.56,-198 5534.56,-228"/>
<text text-anchor="start" x="5436.56" y="-216" font-family="Helvetica,sans-Serif" font-size="10.00">src/f_pc/f_pc_create</text>
<text text-anchor="middle" x="5481.56" y="-205" font-family="Helvetica,sans-Serif" font-size="10.00">_req.cpp</text>
</a>
</g>
</g>
<!-- Node1&#45;&gt;Node196 -->
<g id="edge53" class="edge">
<title>Node1&#45;&gt;Node196</title>
<path fill="none" stroke="#63b8ff" d="M5364.15,-259.54C5389.66,-249.64 5420.64,-237.63 5444.36,-228.43"/>
<polygon fill="#63b8ff" stroke="#63b8ff" points="5363.05,-256.21 5355,-263.09 5365.58,-262.74 5363.05,-256.21"/>
</g>
<!-- Node3 -->
<g id="node3" class="node">
<title>Node3</title>
<g id="a_node3"><a xlink:href="f__op__actor__mng_8h.html" target="_top" xlink:title=" ">
<polygon fill="#fff0f0" stroke="red" points="2239.56,-162 2121.56,-162 2121.56,-132 2239.56,-132 2239.56,-162"/>
<text text-anchor="start" x="2129.56" y="-150" font-family="Helvetica,sans-Serif" font-size="10.00">include/f_op/f_op_actor</text>
<text text-anchor="middle" x="2180.56" y="-139" font-family="Helvetica,sans-Serif" font-size="10.00">_mng.h</text>
</a>
</g>
</g>
<!-- Node2&#45;&gt;Node3 -->
<g id="edge2" class="edge">
<title>Node2&#45;&gt;Node3</title>
<path fill="none" stroke="#63b8ff" d="M4806.47,-210.06C4398.1,-200.41 2590.98,-157.7 2239.8,-149.4"/>
<polygon fill="#63b8ff" stroke="#63b8ff" points="4806.27,-213.56 4816.35,-210.29 4806.43,-206.56 4806.27,-213.56"/>
</g>
<!-- Node181 -->
<g id="node38" class="node">
<title>Node181</title>
<g id="a_node38"><a xlink:href="f__op__kankyo_8h.html" target="_top" xlink:title=" ">
<polygon fill="#fff0f0" stroke="red" points="4590.56,-85 4456.56,-85 4456.56,-66 4590.56,-66 4590.56,-85"/>
<text text-anchor="middle" x="4523.56" y="-73" font-family="Helvetica,sans-Serif" font-size="10.00">include/f_op/f_op_kankyo.h</text>
</a>
</g>
</g>
<!-- Node2&#45;&gt;Node181 -->
<g id="edge38" class="edge">
<title>Node2&#45;&gt;Node181</title>
<path fill="none" stroke="#63b8ff" d="M4806.54,-208.37C4687.02,-202.22 4476.59,-187.83 4453.56,-162 4429.43,-134.94 4479.08,-101.23 4506.72,-85.44"/>
<polygon fill="#63b8ff" stroke="#63b8ff" points="4806.14,-211.85 4816.31,-208.86 4806.5,-204.86 4806.14,-211.85"/>
</g>
<!-- Node64 -->
<g id="node39" class="node">
<title>Node64</title>
<g id="a_node39"><a xlink:href="f__op__kankyo_8cpp.html" target="_top" xlink:title=" ">
<polygon fill="white" stroke="#666666" points="4634.56,-19 4506.56,-19 4506.56,0 4634.56,0 4634.56,-19"/>
<text text-anchor="middle" x="4570.56" y="-7" font-family="Helvetica,sans-Serif" font-size="10.00">src/f_op/f_op_kankyo.cpp</text>
</a>
</g>
</g>
<!-- Node2&#45;&gt;Node64 -->
<g id="edge45" class="edge">
<title>Node2&#45;&gt;Node64</title>
<path fill="none" stroke="#63b8ff" d="M4806.55,-204.42C4743.31,-197.01 4662.56,-183.63 4637.56,-162 4599.39,-128.99 4621.93,-100.23 4599.56,-55 4593.1,-41.94 4583.56,-28.05 4577.21,-19.33"/>
<polygon fill="#63b8ff" stroke="#63b8ff" points="4805.9,-207.87 4816.23,-205.52 4806.69,-200.91 4805.9,-207.87"/>
</g>
<!-- Node185 -->
<g id="node40" class="node">
<title>Node185</title>
<g id="a_node40"><a xlink:href="f__op__kankyo__mng_8h.html" target="_top" xlink:title=" ">
<polygon fill="#fff0f0" stroke="red" points="4590.06,-162 4463.06,-162 4463.06,-132 4590.06,-132 4590.06,-162"/>
<text text-anchor="start" x="4471.06" y="-150" font-family="Helvetica,sans-Serif" font-size="10.00">include/f_op/f_op_kankyo</text>
<text text-anchor="middle" x="4526.56" y="-139" font-family="Helvetica,sans-Serif" font-size="10.00">_mng.h</text>
</a>
</g>
</g>
<!-- Node2&#45;&gt;Node185 -->
<g id="edge40" class="edge">
<title>Node2&#45;&gt;Node185</title>
<path fill="none" stroke="#63b8ff" d="M4826.15,-201.07C4768.6,-190.98 4680.8,-175.55 4604.56,-162 4599.95,-161.18 4595.19,-160.33 4590.4,-159.48"/>
<polygon fill="#63b8ff" stroke="#63b8ff" points="4825.3,-204.48 4835.75,-202.76 4826.5,-197.58 4825.3,-204.48"/>
</g>
<!-- Node186 -->
<g id="node41" class="node">
<title>Node186</title>
<g id="a_node41"><a xlink:href="f__op__scene__mng_8h.html" target="_top" xlink:title=" ">
<polygon fill="#fff0f0" stroke="red" points="4768.56,-162 4646.56,-162 4646.56,-132 4768.56,-132 4768.56,-162"/>
<text text-anchor="start" x="4654.56" y="-150" font-family="Helvetica,sans-Serif" font-size="10.00">include/f_op/f_op_scene</text>
<text text-anchor="middle" x="4707.56" y="-139" font-family="Helvetica,sans-Serif" font-size="10.00">_mng.h</text>
</a>
</g>
</g>
<!-- Node2&#45;&gt;Node186 -->
<g id="edge42" class="edge">
<title>Node2&#45;&gt;Node186</title>
<path fill="none" stroke="#63b8ff" d="M4852.56,-199.27C4822.56,-188.66 4779.81,-173.55 4748.5,-162.48"/>
<polygon fill="#63b8ff" stroke="#63b8ff" points="4851.37,-202.56 4861.96,-202.6 4853.7,-195.96 4851.37,-202.56"/>
</g>
<!-- Node188 -->
<g id="node42" class="node">
<title>Node188</title>
<g id="a_node42"><a xlink:href="f__ap__game_8cpp.html" target="_top" xlink:title=" ">
<polygon fill="white" stroke="#666666" points="4813.06,-85 4692.06,-85 4692.06,-66 4813.06,-66 4813.06,-85"/>
<text text-anchor="middle" x="4752.56" y="-73" font-family="Helvetica,sans-Serif" font-size="10.00">src/f_ap/f_ap_game.cpp</text>
</a>
</g>
</g>
<!-- Node2&#45;&gt;Node188 -->
<g id="edge44" class="edge">
<title>Node2&#45;&gt;Node188</title>
<path fill="none" stroke="#63b8ff" d="M4862.79,-197.33C4848.05,-188.23 4829.74,-175.7 4815.56,-162 4790.1,-137.4 4767.39,-101.61 4757.63,-85.25"/>
<polygon fill="#63b8ff" stroke="#63b8ff" points="4860.65,-200.12 4871.03,-202.26 4864.25,-194.12 4860.65,-200.12"/>
</g>
<!-- Node190 -->
<g id="node43" class="node">
<title>Node190</title>
<g id="a_node43"><a xlink:href="f__op__overlap_8cpp.html" target="_top" xlink:title=" ">
<polygon fill="white" stroke="#666666" points="4952.56,-156.5 4824.56,-156.5 4824.56,-137.5 4952.56,-137.5 4952.56,-156.5"/>
<text text-anchor="middle" x="4888.56" y="-144.5" font-family="Helvetica,sans-Serif" font-size="10.00">src/f_op/f_op_overlap.cpp</text>
</a>
</g>
</g>
<!-- Node2&#45;&gt;Node190 -->
<g id="edge46" class="edge">
<title>Node2&#45;&gt;Node190</title>
<path fill="none" stroke="#63b8ff" d="M4888.56,-191.68C4888.56,-179.94 4888.56,-165.77 4888.56,-156.82"/>
<polygon fill="#63b8ff" stroke="#63b8ff" points="4885.06,-191.59 4888.56,-201.59 4892.06,-191.59 4885.06,-191.59"/>
</g>
<!-- Node191 -->
<g id="node44" class="node">
<title>Node191</title>
<g id="a_node44"><a xlink:href="f__op__overlap__req_8cpp.html" target="_top" xlink:title=" ">
<polygon fill="white" stroke="#666666" points="5080.56,-162 4970.56,-162 4970.56,-132 5080.56,-132 5080.56,-162"/>
<text text-anchor="start" x="4978.56" y="-150" font-family="Helvetica,sans-Serif" font-size="10.00">src/f_op/f_op_overlap</text>
<text text-anchor="middle" x="5025.56" y="-139" font-family="Helvetica,sans-Serif" font-size="10.00">_req.cpp</text>
</a>
</g>
</g>
<!-- Node2&#45;&gt;Node191 -->
<g id="edge47" class="edge">
<title>Node2&#45;&gt;Node191</title>
<path fill="none" stroke="#63b8ff" d="M4917.93,-198.28C4940.5,-187.73 4971.6,-173.21 4994.56,-162.48"/>
<polygon fill="#63b8ff" stroke="#63b8ff" points="4916.55,-195.06 4908.98,-202.46 4919.52,-201.4 4916.55,-195.06"/>
</g>
<!-- Node192 -->
<g id="node45" class="node">
<title>Node192</title>
<g id="a_node45"><a xlink:href="f__op__scene_8cpp.html" target="_top" xlink:title=" ">
<polygon fill="white" stroke="#666666" points="5222.06,-156.5 5099.06,-156.5 5099.06,-137.5 5222.06,-137.5 5222.06,-156.5"/>
<text text-anchor="middle" x="5160.56" y="-144.5" font-family="Helvetica,sans-Serif" font-size="10.00">src/f_op/f_op_scene.cpp</text>
</a>
</g>
</g>
<!-- Node2&#45;&gt;Node192 -->
<g id="edge48" class="edge">
<title>Node2&#45;&gt;Node192</title>
<path fill="none" stroke="#63b8ff" d="M4937.85,-200.4C4991.01,-187.89 5074.48,-168.25 5122.71,-156.91"/>
<polygon fill="#63b8ff" stroke="#63b8ff" points="4937.07,-196.99 4928.14,-202.69 4938.67,-203.8 4937.07,-196.99"/>
</g>
<!-- Node193 -->
<g id="node46" class="node">
<title>Node193</title>
<g id="a_node46"><a xlink:href="f__op__scene__pause_8cpp.html" target="_top" xlink:title=" ">
<polygon fill="white" stroke="#666666" points="5345.06,-162 5240.06,-162 5240.06,-132 5345.06,-132 5345.06,-162"/>
<text text-anchor="start" x="5248.06" y="-150" font-family="Helvetica,sans-Serif" font-size="10.00">src/f_op/f_op_scene</text>
<text text-anchor="middle" x="5292.56" y="-139" font-family="Helvetica,sans-Serif" font-size="10.00">_pause.cpp</text>
</a>
</g>
</g>
<!-- Node2&#45;&gt;Node193 -->
<g id="edge49" class="edge">
<title>Node2&#45;&gt;Node193</title>
<path fill="none" stroke="#63b8ff" d="M4970.52,-201.82C5039.98,-192.76 5142.12,-178.42 5230.56,-162 5233.59,-161.44 5236.71,-160.83 5239.85,-160.19"/>
<polygon fill="#63b8ff" stroke="#63b8ff" points="4970.2,-198.33 4960.73,-203.09 4971.1,-205.27 4970.2,-198.33"/>
</g>
<!-- Node194 -->
<g id="node47" class="node">
<title>Node194</title>
<g id="a_node47"><a xlink:href="f__op__view_8cpp.html" target="_top" xlink:title=" ">
<polygon fill="white" stroke="#666666" points="5480.06,-156.5 5363.06,-156.5 5363.06,-137.5 5480.06,-137.5 5480.06,-156.5"/>
<text text-anchor="middle" x="5421.56" y="-144.5" font-family="Helvetica,sans-Serif" font-size="10.00">src/f_op/f_op_view.cpp</text>
</a>
</g>
</g>
<!-- Node2&#45;&gt;Node194 -->
<g id="edge50" class="edge">
<title>Node2&#45;&gt;Node194</title>
<path fill="none" stroke="#63b8ff" d="M4970.66,-205.57C5063.82,-197.72 5220.14,-182.86 5353.56,-162 5362.61,-160.59 5372.28,-158.78 5381.4,-156.93"/>
<polygon fill="#63b8ff" stroke="#63b8ff" points="4970.52,-202.07 4960.85,-206.39 4971.1,-209.04 4970.52,-202.07"/>
</g>
<!-- Node2&#45;&gt;Node137 -->
<g id="edge51" class="edge">
<title>Node2&#45;&gt;Node137</title>
<path fill="none" stroke="#63b8ff" d="M4970.68,-207.68C5086.5,-201.01 5304.28,-186.37 5488.56,-162 5498.93,-160.63 5510.03,-158.82 5520.48,-156.95"/>
<polygon fill="#63b8ff" stroke="#63b8ff" points="4970.75,-204.17 4960.96,-208.23 4971.15,-211.16 4970.75,-204.17"/>
</g>
<!-- Node4 -->
<g id="node4" class="node">
<title>Node4</title>
<g id="a_node4"><a xlink:href="d__a__alink_8h.html" target="_top" xlink:title=" ">
<polygon fill="#fff0f0" stroke="red" points="2116.56,-19 2000.56,-19 2000.56,0 2116.56,0 2116.56,-19"/>
<text text-anchor="middle" x="2058.56" y="-7" font-family="Helvetica,sans-Serif" font-size="10.00">include/d/a/d_a_alink.h</text>
</a>
</g>
</g>
<!-- Node3&#45;&gt;Node4 -->
<g id="edge3" class="edge">
<title>Node3&#45;&gt;Node4</title>
<path fill="none" stroke="#63b8ff" d="M2109.76,-145.72C1740.11,-144.07 47.11,-134.43 9.56,-96 -3.18,-82.97 -3.19,-68.02 9.56,-55 45.32,-18.45 1669.87,-11.66 2000.28,-10.65"/>
<polygon fill="#63b8ff" stroke="#63b8ff" points="2109.55,-149.21 2119.56,-145.76 2109.58,-142.21 2109.55,-149.21"/>
</g>
<!-- Node144 -->
<g id="node5" class="node">
<title>Node144</title>
<g id="a_node5"><a xlink:href="d__a__obj__item_8h.html" target="_top" xlink:title=" ">
<polygon fill="#fff0f0" stroke="red" points="120.06,-90.5 19.06,-90.5 19.06,-60.5 120.06,-60.5 120.06,-90.5"/>
<text text-anchor="start" x="27.06" y="-78.5" font-family="Helvetica,sans-Serif" font-size="10.00">include/d/a/d_a_obj</text>
<text text-anchor="middle" x="69.56" y="-67.5" font-family="Helvetica,sans-Serif" font-size="10.00">_item.h</text>
</a>
</g>
</g>
<!-- Node3&#45;&gt;Node144 -->
<g id="edge4" class="edge">
<title>Node3&#45;&gt;Node144</title>
<path fill="none" stroke="#63b8ff" d="M2110.22,-145.51C1772.65,-143.02 326.82,-130.4 128.56,-96 121.75,-94.82 114.66,-93.01 107.86,-90.96"/>
<polygon fill="#63b8ff" stroke="#63b8ff" points="2109.75,-149.01 2119.78,-145.58 2109.8,-142.01 2109.75,-149.01"/>
</g>
<!-- Node145 -->
<g id="node6" class="node">
<title>Node145</title>
<g id="a_node6"><a xlink:href="d__a__obj__ss__base_8h.html" target="_top" xlink:title=" ">
<polygon fill="#fff0f0" stroke="red" points="239.06,-90.5 138.06,-90.5 138.06,-60.5 239.06,-60.5 239.06,-90.5"/>
<text text-anchor="start" x="146.06" y="-78.5" font-family="Helvetica,sans-Serif" font-size="10.00">include/d/a/d_a_obj</text>
<text text-anchor="middle" x="188.56" y="-67.5" font-family="Helvetica,sans-Serif" font-size="10.00">_ss_base.h</text>
</a>
</g>
</g>
<!-- Node3&#45;&gt;Node145 -->
<g id="edge5" class="edge">
<title>Node3&#45;&gt;Node145</title>
<path fill="none" stroke="#63b8ff" d="M2110.39,-145.4C1785.3,-142.47 433.55,-128.41 247.56,-96 240.75,-94.81 233.67,-93 226.86,-90.95"/>
<polygon fill="#63b8ff" stroke="#63b8ff" points="2109.97,-148.9 2120,-145.49 2110.03,-141.9 2109.97,-148.9"/>
</g>
<!-- Node147 -->
<g id="node7" class="node">
<title>Node147</title>
<g id="a_node7"><a xlink:href="d__bomb_8h.html" target="_top" xlink:title=" ">
<polygon fill="#fff0f0" stroke="red" points="358.06,-85 257.06,-85 257.06,-66 358.06,-66 358.06,-85"/>
<text text-anchor="middle" x="307.56" y="-73" font-family="Helvetica,sans-Serif" font-size="10.00">include/d/d_bomb.h</text>
</a>
</g>
</g>
<!-- Node3&#45;&gt;Node147 -->
<g id="edge6" class="edge">
<title>Node3&#45;&gt;Node147</title>
<path fill="none" stroke="#63b8ff" d="M2110.16,-145.27C1797.26,-141.87 540.23,-126.42 366.56,-96 354.02,-93.8 340.5,-89.49 329.57,-85.48"/>
<polygon fill="#63b8ff" stroke="#63b8ff" points="2109.78,-148.77 2119.82,-145.38 2109.85,-141.77 2109.78,-148.77"/>
</g>
<!-- Node149 -->
<g id="node8" class="node">
<title>Node149</title>
<g id="a_node8"><a xlink:href="d__door__param2_8h.html" target="_top" xlink:title=" ">
<polygon fill="#fff0f0" stroke="red" points="509.06,-85 376.06,-85 376.06,-66 509.06,-66 509.06,-85"/>
<text text-anchor="middle" x="442.56" y="-73" font-family="Helvetica,sans-Serif" font-size="10.00">include/d/d_door_param2.h</text>
</a>
</g>
</g>
<!-- Node3&#45;&gt;Node149 -->
<g id="edge7" class="edge">
<title>Node3&#45;&gt;Node149</title>
<path fill="none" stroke="#63b8ff" d="M2109.72,-145.95C1834.1,-145.44 832.91,-140.5 518.56,-96 502.64,-93.75 485.25,-89.43 471.13,-85.43"/>
<polygon fill="#63b8ff" stroke="#63b8ff" points="2109.63,-149.45 2119.63,-145.97 2109.64,-142.45 2109.63,-149.45"/>
</g>
<!-- Node72 -->
<g id="node9" class="node">
<title>Node72</title>
<g id="a_node9"><a xlink:href="d__a__andsw_8h.html" target="_top" xlink:title=" ">
<polygon fill="white" stroke="#666666" points="637.56,-90.5 527.56,-90.5 527.56,-60.5 637.56,-60.5 637.56,-90.5"/>
<text text-anchor="start" x="535.56" y="-78.5" font-family="Helvetica,sans-Serif" font-size="10.00">include/rel/d/a/d_a</text>
<text text-anchor="middle" x="582.56" y="-67.5" font-family="Helvetica,sans-Serif" font-size="10.00">_andsw/d_a_andsw.h</text>
</a>
</g>
</g>
<!-- Node3&#45;&gt;Node72 -->
<g id="edge8" class="edge">
<title>Node3&#45;&gt;Node72</title>
<path fill="none" stroke="#63b8ff" d="M2109.94,-146.16C1848.21,-146.36 933.75,-143.58 646.56,-96 639.34,-94.8 631.79,-93.02 624.53,-91"/>
<polygon fill="#63b8ff" stroke="#63b8ff" points="2109.67,-149.66 2119.67,-146.15 2109.66,-142.66 2109.67,-149.66"/>
</g>
<!-- Node151 -->
<g id="node10" class="node">
<title>Node151</title>
<g id="a_node10"><a xlink:href="d__a__arrow_8h.html" target="_top" xlink:title=" ">
<polygon fill="white" stroke="#666666" points="757.06,-90.5 656.06,-90.5 656.06,-60.5 757.06,-60.5 757.06,-90.5"/>
<text text-anchor="start" x="664.06" y="-78.5" font-family="Helvetica,sans-Serif" font-size="10.00">include/rel/d/a/d_a</text>
<text text-anchor="middle" x="706.56" y="-67.5" font-family="Helvetica,sans-Serif" font-size="10.00">_arrow/d_a_arrow.h</text>
</a>
</g>
</g>
<!-- Node3&#45;&gt;Node151 -->
<g id="edge9" class="edge">
<title>Node3&#45;&gt;Node151</title>
<path fill="none" stroke="#63b8ff" d="M2109.66,-146.15C1860.78,-146.25 1027.85,-142.99 765.56,-96 758.87,-94.8 751.9,-93.01 745.19,-90.99"/>
<polygon fill="#63b8ff" stroke="#63b8ff" points="2109.56,-149.65 2119.55,-146.14 2109.55,-142.65 2109.56,-149.65"/>
</g>
<!-- Node152 -->
<g id="node11" class="node">
<title>Node152</title>
<g id="a_node11"><a xlink:href="d__a__boomerang_8h.html" target="_top" xlink:title=" ">
<polygon fill="#fff0f0" stroke="red" points="924.06,-90.5 775.06,-90.5 775.06,-60.5 924.06,-60.5 924.06,-90.5"/>
<text text-anchor="start" x="783.06" y="-78.5" font-family="Helvetica,sans-Serif" font-size="10.00">include/rel/d/a/d_a</text>
<text text-anchor="middle" x="849.56" y="-67.5" font-family="Helvetica,sans-Serif" font-size="10.00">_boomerang/d_a_boomerang.h</text>
</a>
</g>
</g>
<!-- Node3&#45;&gt;Node152 -->
<g id="edge10" class="edge">
<title>Node3&#45;&gt;Node152</title>
<path fill="none" stroke="#63b8ff" d="M2109.91,-144.91C1881.35,-141.13 1163.47,-127.02 933.56,-96 924.36,-94.76 914.69,-92.98 905.31,-90.98"/>
<polygon fill="#63b8ff" stroke="#63b8ff" points="2109.82,-148.41 2119.87,-145.08 2109.93,-141.41 2109.82,-148.41"/>
</g>
<!-- Node153 -->
<g id="node12" class="node">
<title>Node153</title>
<g id="a_node12"><a xlink:href="d__a__canoe_8h.html" target="_top" xlink:title=" ">
<polygon fill="white" stroke="#666666" points="1048.56,-90.5 942.56,-90.5 942.56,-60.5 1048.56,-60.5 1048.56,-90.5"/>
<text text-anchor="start" x="950.56" y="-78.5" font-family="Helvetica,sans-Serif" font-size="10.00">include/rel/d/a/d_a</text>
<text text-anchor="middle" x="995.56" y="-67.5" font-family="Helvetica,sans-Serif" font-size="10.00">_canoe/d_a_canoe.h</text>
</a>
</g>
</g>
<!-- Node3&#45;&gt;Node153 -->
<g id="edge11" class="edge">
<title>Node3&#45;&gt;Node153</title>
<path fill="none" stroke="#63b8ff" d="M2110.04,-145.26C1896.84,-142.63 1261.14,-131.91 1057.56,-96 1050.55,-94.77 1043.25,-92.96 1036.2,-90.93"/>
<polygon fill="#63b8ff" stroke="#63b8ff" points="2109.82,-148.75 2119.86,-145.37 2109.91,-141.75 2109.82,-148.75"/>
</g>
<!-- Node154 -->
<g id="node13" class="node">
<title>Node154</title>
<g id="a_node13"><a xlink:href="d__a__crod_8h.html" target="_top" xlink:title=" ">
<polygon fill="#fff0f0" stroke="red" points="1162.56,-90.5 1066.56,-90.5 1066.56,-60.5 1162.56,-60.5 1162.56,-90.5"/>
<text text-anchor="start" x="1074.56" y="-78.5" font-family="Helvetica,sans-Serif" font-size="10.00">include/rel/d/a/d_a</text>
<text text-anchor="middle" x="1114.56" y="-67.5" font-family="Helvetica,sans-Serif" font-size="10.00">_crod/d_a_crod.h</text>
</a>
</g>
</g>
<!-- Node3&#45;&gt;Node154 -->
<g id="edge12" class="edge">
<title>Node3&#45;&gt;Node154</title>
<path fill="none" stroke="#63b8ff" d="M2109.81,-145.06C1911.28,-142.03 1351.73,-130.57 1171.56,-96 1165.08,-94.76 1158.35,-92.95 1151.86,-90.92"/>
<polygon fill="#63b8ff" stroke="#63b8ff" points="2109.67,-148.56 2119.72,-145.21 2109.78,-141.56 2109.67,-148.56"/>
</g>
<!-- Node75 -->
<g id="node14" class="node">
<title>Node75</title>
<g id="a_node14"><a xlink:href="d__a__econt_8h.html" target="_top" xlink:title=" ">
<polygon fill="white" stroke="#666666" points="1282.06,-90.5 1181.06,-90.5 1181.06,-60.5 1282.06,-60.5 1282.06,-90.5"/>
<text text-anchor="start" x="1189.06" y="-78.5" font-family="Helvetica,sans-Serif" font-size="10.00">include/rel/d/a/d_a</text>
<text text-anchor="middle" x="1231.56" y="-67.5" font-family="Helvetica,sans-Serif" font-size="10.00">_econt/d_a_econt.h</text>
</a>
</g>
</g>
<!-- Node3&#45;&gt;Node75 -->
<g id="edge13" class="edge">
<title>Node3&#45;&gt;Node75</title>
<path fill="none" stroke="#63b8ff" d="M2109.78,-144.42C1927.83,-139.99 1447.13,-125.73 1290.56,-96 1283.98,-94.75 1277.14,-92.96 1270.53,-90.97"/>
<polygon fill="#63b8ff" stroke="#63b8ff" points="2109.47,-147.92 2119.55,-144.66 2109.64,-140.92 2109.47,-147.92"/>
</g>
<!-- Node155 -->
<g id="node15" class="node">
<title>Node155</title>
<g id="a_node15"><a xlink:href="d__a__scene__exit_8h.html" target="_top" xlink:title=" ">
<polygon fill="#fff0f0" stroke="red" points="1419.06,-96 1300.06,-96 1300.06,-55 1419.06,-55 1419.06,-96"/>
<text text-anchor="start" x="1308.06" y="-84" font-family="Helvetica,sans-Serif" font-size="10.00">include/rel/d/a/d_a</text>
<text text-anchor="start" x="1308.06" y="-73" font-family="Helvetica,sans-Serif" font-size="10.00">_scene_exit/d_a_scene</text>
<text text-anchor="middle" x="1359.56" y="-62" font-family="Helvetica,sans-Serif" font-size="10.00">_exit.h</text>
</a>
</g>
</g>
<!-- Node3&#45;&gt;Node155 -->
<g id="edge14" class="edge">
<title>Node3&#45;&gt;Node155</title>
<path fill="none" stroke="#63b8ff" d="M2110.19,-146.3C1976.25,-145.78 1675.87,-139.34 1427.56,-96 1424.89,-95.54 1422.19,-95.01 1419.46,-94.43"/>
<polygon fill="#63b8ff" stroke="#63b8ff" points="2109.94,-149.8 2119.95,-146.33 2109.96,-142.8 2109.94,-149.8"/>
</g>
<!-- Node156 -->
<g id="node16" class="node">
<title>Node156</title>
<g id="a_node16"><a xlink:href="d__a__suspend_8h.html" target="_top" xlink:title=" ">
<polygon fill="white" stroke="#666666" points="1564.06,-90.5 1437.06,-90.5 1437.06,-60.5 1564.06,-60.5 1564.06,-90.5"/>
<text text-anchor="start" x="1445.06" y="-78.5" font-family="Helvetica,sans-Serif" font-size="10.00">include/rel/d/a/d_a</text>
<text text-anchor="middle" x="1500.56" y="-67.5" font-family="Helvetica,sans-Serif" font-size="10.00">_suspend/d_a_suspend.h</text>
</a>
</g>
</g>
<!-- Node3&#45;&gt;Node156 -->
<g id="edge15" class="edge">
<title>Node3&#45;&gt;Node156</title>
<path fill="none" stroke="#63b8ff" d="M2109.78,-144.27C1996.01,-140.57 1765.69,-129.3 1573.56,-96 1565.8,-94.66 1557.67,-92.87 1549.77,-90.93"/>
<polygon fill="#63b8ff" stroke="#63b8ff" points="2109.47,-147.76 2119.58,-144.58 2109.69,-140.76 2109.47,-147.76"/>
</g>
<!-- Node81 -->
<g id="node17" class="node">
<title>Node81</title>
<g id="a_node17"><a xlink:href="d__a__swTime_8h.html" target="_top" xlink:title=" ">
<polygon fill="white" stroke="#666666" points="1704.56,-90.5 1582.56,-90.5 1582.56,-60.5 1704.56,-60.5 1704.56,-90.5"/>
<text text-anchor="start" x="1590.56" y="-78.5" font-family="Helvetica,sans-Serif" font-size="10.00">include/rel/d/a/d_a</text>
<text text-anchor="middle" x="1643.56" y="-67.5" font-family="Helvetica,sans-Serif" font-size="10.00">_swTime/d_a_swTime.h</text>
</a>
</g>
</g>
<!-- Node3&#45;&gt;Node81 -->
<g id="edge16" class="edge">
<title>Node3&#45;&gt;Node81</title>
<path fill="none" stroke="#63b8ff" d="M2109.73,-142.07C2017.76,-136.12 1852.56,-122.61 1713.56,-96 1706.37,-94.62 1698.85,-92.87 1691.51,-90.98"/>
<polygon fill="#63b8ff" stroke="#63b8ff" points="2109.41,-145.55 2119.61,-142.69 2109.85,-138.57 2109.41,-145.55"/>
</g>
<!-- Node157 -->
<g id="node18" class="node">
<title>Node157</title>
<g id="a_node18"><a xlink:href="d__a__tboxSw_8h.html" target="_top" xlink:title=" ">
<polygon fill="white" stroke="#666666" points="1840.56,-90.5 1722.56,-90.5 1722.56,-60.5 1840.56,-60.5 1840.56,-90.5"/>
<text text-anchor="start" x="1730.56" y="-78.5" font-family="Helvetica,sans-Serif" font-size="10.00">include/rel/d/a/d_a</text>
<text text-anchor="middle" x="1781.56" y="-67.5" font-family="Helvetica,sans-Serif" font-size="10.00">_tboxSw/d_a_tboxSw.h</text>
</a>
</g>
</g>
<!-- Node3&#45;&gt;Node157 -->
<g id="edge17" class="edge">
<title>Node3&#45;&gt;Node157</title>
<path fill="none" stroke="#63b8ff" d="M2109.93,-138.02C2042.58,-129.78 1938.53,-115.39 1849.56,-96 1842.84,-94.54 1835.8,-92.78 1828.91,-90.93"/>
<polygon fill="#63b8ff" stroke="#63b8ff" points="2109.39,-141.48 2119.74,-139.21 2110.23,-134.53 2109.39,-141.48"/>
</g>
<!-- Node158 -->
<g id="node19" class="node">
<title>Node158</title>
<g id="a_node19"><a xlink:href="d__a__e__ge_8h.html" target="_top" xlink:title=" ">
<polygon fill="#fff0f0" stroke="red" points="1964.56,-90.5 1858.56,-90.5 1858.56,-60.5 1964.56,-60.5 1964.56,-90.5"/>
<text text-anchor="start" x="1866.56" y="-78.5" font-family="Helvetica,sans-Serif" font-size="10.00">include/rel/d/a/e/d</text>
<text text-anchor="middle" x="1911.56" y="-67.5" font-family="Helvetica,sans-Serif" font-size="10.00">_a_e_ge/d_a_e_ge.h</text>
</a>
</g>
</g>
<!-- Node3&#45;&gt;Node158 -->
<g id="edge18" class="edge">
<title>Node3&#45;&gt;Node158</title>
<path fill="none" stroke="#63b8ff" d="M2110.36,-130.29C2070.14,-120.98 2018.82,-108.57 1973.56,-96 1967.9,-94.43 1961.99,-92.69 1956.15,-90.92"/>
<polygon fill="#63b8ff" stroke="#63b8ff" points="2109.39,-133.66 2119.92,-132.49 2110.96,-126.84 2109.39,-133.66"/>
</g>
<!-- Node159 -->
<g id="node20" class="node">
<title>Node159</title>
<g id="a_node20"><a xlink:href="d__a__e__ym_8h.html" target="_top" xlink:title=" ">
<polygon fill="#fff0f0" stroke="red" points="2092.56,-90.5 1982.56,-90.5 1982.56,-60.5 2092.56,-60.5 2092.56,-90.5"/>
<text text-anchor="start" x="1990.56" y="-78.5" font-family="Helvetica,sans-Serif" font-size="10.00">include/rel/d/a/e/d</text>
<text text-anchor="middle" x="2037.56" y="-67.5" font-family="Helvetica,sans-Serif" font-size="10.00">_a_e_ym/d_a_e_ym.h</text>
</a>
</g>
</g>
<!-- Node3&#45;&gt;Node159 -->
<g id="edge19" class="edge">
<title>Node3&#45;&gt;Node159</title>
<path fill="none" stroke="#63b8ff" d="M2140.66,-126.61C2117.34,-115.28 2088.42,-101.22 2067.15,-90.88"/>
<polygon fill="#63b8ff" stroke="#63b8ff" points="2139.04,-129.71 2149.56,-130.94 2142.1,-123.42 2139.04,-129.71"/>
</g>
<!-- Node161 -->
<g id="node21" class="node">
<title>Node161</title>
<g id="a_node21"><a xlink:href="d__a__kytag07_8h.html" target="_top" xlink:title=" ">
<polygon fill="white" stroke="#666666" points="2250.56,-90.5 2110.56,-90.5 2110.56,-60.5 2250.56,-60.5 2250.56,-90.5"/>
<text text-anchor="start" x="2118.56" y="-78.5" font-family="Helvetica,sans-Serif" font-size="10.00">include/rel/d/a/kytag</text>
<text text-anchor="middle" x="2180.56" y="-67.5" font-family="Helvetica,sans-Serif" font-size="10.00">/d_a_kytag07/d_a_kytag07.h</text>
</a>
</g>
</g>
<!-- Node3&#45;&gt;Node161 -->
<g id="edge20" class="edge">
<title>Node3&#45;&gt;Node161</title>
<path fill="none" stroke="#63b8ff" d="M2180.56,-120.26C2180.56,-110.33 2180.56,-99.36 2180.56,-90.88"/>
<polygon fill="#63b8ff" stroke="#63b8ff" points="2177.06,-120.09 2180.56,-130.09 2184.06,-120.09 2177.06,-120.09"/>
</g>
<!-- Node162 -->
<g id="node22" class="node">
<title>Node162</title>
<g id="a_node22"><a xlink:href="d__a__kytag17_8h.html" target="_top" xlink:title=" ">
<polygon fill="white" stroke="#666666" points="2408.56,-90.5 2268.56,-90.5 2268.56,-60.5 2408.56,-60.5 2408.56,-90.5"/>
<text text-anchor="start" x="2276.56" y="-78.5" font-family="Helvetica,sans-Serif" font-size="10.00">include/rel/d/a/kytag</text>
<text text-anchor="middle" x="2338.56" y="-67.5" font-family="Helvetica,sans-Serif" font-size="10.00">/d_a_kytag17/d_a_kytag17.h</text>
</a>
</g>
</g>
<!-- Node3&#45;&gt;Node162 -->
<g id="edge21" class="edge">
<title>Node3&#45;&gt;Node162</title>
<path fill="none" stroke="#63b8ff" d="M2223.6,-127.07C2249.53,-115.66 2282.04,-101.36 2305.86,-90.88"/>
<polygon fill="#63b8ff" stroke="#63b8ff" points="2222.42,-123.76 2214.68,-130.99 2225.24,-130.17 2222.42,-123.76"/>
</g>
<!-- Node163 -->
<g id="node23" class="node">
<title>Node163</title>
<g id="a_node23"><a xlink:href="d__a__npc__theB_8h.html" target="_top" xlink:title=" ">
<polygon fill="white" stroke="#666666" points="2548.56,-96 2426.56,-96 2426.56,-55 2548.56,-55 2548.56,-96"/>
<text text-anchor="start" x="2434.56" y="-84" font-family="Helvetica,sans-Serif" font-size="10.00">include/rel/d/a/npc</text>
<text text-anchor="start" x="2434.56" y="-73" font-family="Helvetica,sans-Serif" font-size="10.00">/d_a_npc_theB/d_a_npc</text>
<text text-anchor="middle" x="2487.56" y="-62" font-family="Helvetica,sans-Serif" font-size="10.00">_theB.h</text>
</a>
</g>
</g>
<!-- Node3&#45;&gt;Node163 -->
<g id="edge22" class="edge">
<title>Node3&#45;&gt;Node163</title>
<path fill="none" stroke="#63b8ff" d="M2250.77,-132.41C2298.07,-122.95 2361.78,-109.64 2417.56,-96 2420.37,-95.31 2423.25,-94.59 2426.15,-93.84"/>
<polygon fill="#63b8ff" stroke="#63b8ff" points="2250.33,-128.93 2241.2,-134.31 2251.69,-135.79 2250.33,-128.93"/>
</g>
<!-- Node84 -->
<g id="node24" class="node">
<title>Node84</title>
<g id="a_node24"><a xlink:href="d__a__obj__onsenFire_8h.html" target="_top" xlink:title=" ">
<polygon fill="white" stroke="#666666" points="2676.56,-96 2566.56,-96 2566.56,-55 2676.56,-55 2676.56,-96"/>
<text text-anchor="start" x="2574.56" y="-84" font-family="Helvetica,sans-Serif" font-size="10.00">include/rel/d/a/obj</text>
<text text-anchor="start" x="2574.56" y="-73" font-family="Helvetica,sans-Serif" font-size="10.00">/d_a_obj_onsenFire/d</text>
<text text-anchor="middle" x="2621.56" y="-62" font-family="Helvetica,sans-Serif" font-size="10.00">_a_obj_onsenFire.h</text>
</a>
</g>
</g>
<!-- Node3&#45;&gt;Node84 -->
<g id="edge23" class="edge">
<title>Node3&#45;&gt;Node84</title>
<path fill="none" stroke="#63b8ff" d="M2251.19,-140.12C2327.39,-132.96 2452,-118.92 2557.56,-96 2560.39,-95.38 2563.29,-94.7 2566.2,-93.97"/>
<polygon fill="#63b8ff" stroke="#63b8ff" points="2250.99,-136.62 2241.35,-141.03 2251.63,-143.59 2250.99,-136.62"/>
</g>
<!-- Node88 -->
<g id="node25" class="node">
<title>Node88</title>
<g id="a_node25"><a xlink:href="d__a__tag__ajnot_8h.html" target="_top" xlink:title=" ">
<polygon fill="white" stroke="#666666" points="2812.56,-96 2694.56,-96 2694.56,-55 2812.56,-55 2812.56,-96"/>
<text text-anchor="start" x="2702.56" y="-84" font-family="Helvetica,sans-Serif" font-size="10.00">include/rel/d/a/tag</text>
<text text-anchor="start" x="2702.56" y="-73" font-family="Helvetica,sans-Serif" font-size="10.00">/d_a_tag_ajnot/d_a_tag</text>
<text text-anchor="middle" x="2753.56" y="-62" font-family="Helvetica,sans-Serif" font-size="10.00">_ajnot.h</text>
</a>
</g>
</g>
<!-- Node3&#45;&gt;Node88 -->
<g id="edge24" class="edge">
<title>Node3&#45;&gt;Node88</title>
<path fill="none" stroke="#63b8ff" d="M2251,-143.04C2349.13,-138.02 2532.19,-125.33 2685.56,-96 2688.45,-95.45 2691.4,-94.83 2694.37,-94.15"/>
<polygon fill="#63b8ff" stroke="#63b8ff" points="2251.08,-139.54 2241.27,-143.53 2251.43,-146.53 2251.08,-139.54"/>
</g>
<!-- Node164 -->
<g id="node26" class="node">
<title>Node164</title>
<g id="a_node26"><a xlink:href="d__a__tag__arena_8h.html" target="_top" xlink:title=" ">
<polygon fill="white" stroke="#666666" points="2952.06,-96 2831.06,-96 2831.06,-55 2952.06,-55 2952.06,-96"/>
<text text-anchor="start" x="2839.06" y="-84" font-family="Helvetica,sans-Serif" font-size="10.00">include/rel/d/a/tag</text>
<text text-anchor="start" x="2839.06" y="-73" font-family="Helvetica,sans-Serif" font-size="10.00">/d_a_tag_arena/d_a_tag</text>
<text text-anchor="middle" x="2891.56" y="-62" font-family="Helvetica,sans-Serif" font-size="10.00">_arena.h</text>
</a>
</g>
</g>
<!-- Node3&#45;&gt;Node164 -->
<g id="edge25" class="edge">
<title>Node3&#45;&gt;Node164</title>
<path fill="none" stroke="#63b8ff" d="M2251.23,-144.95C2369.94,-142.19 2616.51,-132.2 2821.56,-96 2824.54,-95.47 2827.58,-94.87 2830.63,-94.22"/>
<polygon fill="#63b8ff" stroke="#63b8ff" points="2251.24,-141.45 2241.32,-145.17 2251.39,-148.45 2251.24,-141.45"/>
</g>
<!-- Node89 -->
<g id="node27" class="node">
<title>Node89</title>
<g id="a_node27"><a xlink:href="d__a__tag__assistance_8h.html" target="_top" xlink:title=" ">
<polygon fill="white" stroke="#666666" points="3084.56,-96 2970.56,-96 2970.56,-55 3084.56,-55 3084.56,-96"/>
<text text-anchor="start" x="2978.56" y="-84" font-family="Helvetica,sans-Serif" font-size="10.00">include/rel/d/a/tag</text>
<text text-anchor="start" x="2978.56" y="-73" font-family="Helvetica,sans-Serif" font-size="10.00">/d_a_tag_assistance</text>
<text text-anchor="middle" x="3027.56" y="-62" font-family="Helvetica,sans-Serif" font-size="10.00">/d_a_tag_assistance.h</text>
</a>
</g>
</g>
<!-- Node3&#45;&gt;Node89 -->
<g id="edge26" class="edge">
<title>Node3&#45;&gt;Node89</title>
<path fill="none" stroke="#63b8ff" d="M2250.96,-146.63C2388.45,-146.72 2701.86,-141.37 2960.56,-96 2963.78,-95.43 2967.06,-94.77 2970.37,-94.04"/>
<polygon fill="#63b8ff" stroke="#63b8ff" points="2251.31,-143.13 2241.3,-146.61 2251.29,-150.13 2251.31,-143.13"/>
</g>
<!-- Node165 -->
<g id="node28" class="node">
<title>Node165</title>
<g id="a_node28"><a xlink:href="d__a__tag__escape_8h.html" target="_top" xlink:title=" ">
<polygon fill="white" stroke="#666666" points="3212.56,-96 3102.56,-96 3102.56,-55 3212.56,-55 3212.56,-96"/>
<text text-anchor="start" x="3110.56" y="-84" font-family="Helvetica,sans-Serif" font-size="10.00">include/rel/d/a/tag</text>
<text text-anchor="start" x="3110.56" y="-73" font-family="Helvetica,sans-Serif" font-size="10.00">/d_a_tag_escape/d_a</text>
<text text-anchor="middle" x="3157.56" y="-62" font-family="Helvetica,sans-Serif" font-size="10.00">_tag_escape.h</text>
</a>
</g>
</g>
<!-- Node3&#45;&gt;Node165 -->
<g id="edge27" class="edge">
<title>Node3&#45;&gt;Node165</title>
<path fill="none" stroke="#63b8ff" d="M2251.47,-144.32C2436.75,-139.59 2932.11,-124.58 3093.56,-96 3096.42,-95.49 3099.33,-94.9 3102.25,-94.24"/>
<polygon fill="#63b8ff" stroke="#63b8ff" points="2251.4,-140.82 2241.5,-144.58 2251.58,-147.82 2251.4,-140.82"/>
</g>
<!-- Node90 -->
<g id="node29" class="node">
<title>Node90</title>
<g id="a_node29"><a xlink:href="d__a__tag__gra_8h.html" target="_top" xlink:title=" ">
<polygon fill="white" stroke="#666666" points="3368.06,-90.5 3231.06,-90.5 3231.06,-60.5 3368.06,-60.5 3368.06,-90.5"/>
<text text-anchor="start" x="3239.06" y="-78.5" font-family="Helvetica,sans-Serif" font-size="10.00">include/rel/d/a/tag</text>
<text text-anchor="middle" x="3299.56" y="-67.5" font-family="Helvetica,sans-Serif" font-size="10.00">/d_a_tag_gra/d_a_tag_gra.h</text>
</a>
</g>
</g>
<!-- Node3&#45;&gt;Node90 -->
<g id="edge28" class="edge">
<title>Node3&#45;&gt;Node90</title>
<path fill="none" stroke="#63b8ff" d="M2251.32,-144.42C2453.92,-139.6 3033.67,-123.72 3221.56,-96 3230.12,-94.74 3239.11,-92.94 3247.81,-90.95"/>
<polygon fill="#63b8ff" stroke="#63b8ff" points="2251.38,-140.92 2241.47,-144.65 2251.55,-147.91 2251.38,-140.92"/>
</g>
<!-- Node166 -->
<g id="node30" class="node">
<title>Node166</title>
<g id="a_node30"><a xlink:href="d__a__tag__guard_8h.html" target="_top" xlink:title=" ">
<polygon fill="white" stroke="#666666" points="3507.06,-96 3386.06,-96 3386.06,-55 3507.06,-55 3507.06,-96"/>
<text text-anchor="start" x="3394.06" y="-84" font-family="Helvetica,sans-Serif" font-size="10.00">include/rel/d/a/tag</text>
<text text-anchor="start" x="3394.06" y="-73" font-family="Helvetica,sans-Serif" font-size="10.00">/d_a_tag_guard/d_a_tag</text>
<text text-anchor="middle" x="3446.56" y="-62" font-family="Helvetica,sans-Serif" font-size="10.00">_guard.h</text>
</a>
</g>
</g>
<!-- Node3&#45;&gt;Node166 -->
<g id="edge29" class="edge">
<title>Node3&#45;&gt;Node166</title>
<path fill="none" stroke="#63b8ff" d="M2251.36,-145.17C2473.96,-142.24 3157.75,-130.58 3376.56,-96 3379.55,-95.53 3382.59,-94.97 3385.65,-94.35"/>
<polygon fill="#63b8ff" stroke="#63b8ff" points="2251.33,-141.67 2241.38,-145.3 2251.42,-148.67 2251.33,-141.67"/>
</g>
<!-- Node91 -->
<g id="node31" class="node">
<title>Node91</title>
<g id="a_node31"><a xlink:href="d__a__tag__howl_8h.html" target="_top" xlink:title=" ">
<polygon fill="white" stroke="#666666" points="3642.06,-96 3525.06,-96 3525.06,-55 3642.06,-55 3642.06,-96"/>
<text text-anchor="start" x="3533.06" y="-84" font-family="Helvetica,sans-Serif" font-size="10.00">include/rel/d/a/tag</text>
<text text-anchor="start" x="3533.06" y="-73" font-family="Helvetica,sans-Serif" font-size="10.00">/d_a_tag_howl/d_a_tag</text>
<text text-anchor="middle" x="3583.56" y="-62" font-family="Helvetica,sans-Serif" font-size="10.00">_howl.h</text>
</a>
</g>
</g>
<!-- Node3&#45;&gt;Node91 -->
<g id="edge30" class="edge">
<title>Node3&#45;&gt;Node91</title>
<path fill="none" stroke="#63b8ff" d="M2251.38,-145.6C2490.78,-143.91 3268.67,-135.43 3515.56,-96 3518.59,-95.52 3521.68,-94.94 3524.78,-94.3"/>
<polygon fill="#63b8ff" stroke="#63b8ff" points="2251.54,-142.1 2241.57,-145.67 2251.59,-149.1 2251.54,-142.1"/>
</g>
<!-- Node167 -->
<g id="node32" class="node">
<title>Node167</title>
<g id="a_node32"><a xlink:href="d__a__tag__instruction_8h.html" target="_top" xlink:title=" ">
<polygon fill="white" stroke="#666666" points="3772.56,-96 3660.56,-96 3660.56,-55 3772.56,-55 3772.56,-96"/>
<text text-anchor="start" x="3668.56" y="-84" font-family="Helvetica,sans-Serif" font-size="10.00">include/rel/d/a/tag</text>
<text text-anchor="start" x="3668.56" y="-73" font-family="Helvetica,sans-Serif" font-size="10.00">/d_a_tag_instruction</text>
<text text-anchor="middle" x="3716.56" y="-62" font-family="Helvetica,sans-Serif" font-size="10.00">/d_a_tag_instruction.h</text>
</a>
</g>
</g>
<!-- Node3&#45;&gt;Node167 -->
<g id="edge31" class="edge">
<title>Node3&#45;&gt;Node167</title>
<path fill="none" stroke="#63b8ff" d="M2251.15,-145.96C2505.77,-145.46 3376.24,-140.45 3650.56,-96 3653.74,-95.48 3656.99,-94.86 3660.25,-94.16"/>
<polygon fill="#63b8ff" stroke="#63b8ff" points="2251.36,-142.46 2241.37,-145.98 2251.37,-149.46 2251.36,-142.46"/>
</g>
<!-- Node168 -->
<g id="node33" class="node">
<title>Node168</title>
<g id="a_node33"><a xlink:href="d__a__tag__lv5soup_8h.html" target="_top" xlink:title=" ">
<polygon fill="white" stroke="#666666" points="3902.56,-96 3790.56,-96 3790.56,-55 3902.56,-55 3902.56,-96"/>
<text text-anchor="start" x="3798.56" y="-84" font-family="Helvetica,sans-Serif" font-size="10.00">include/rel/d/a/tag</text>
<text text-anchor="start" x="3798.56" y="-73" font-family="Helvetica,sans-Serif" font-size="10.00">/d_a_tag_lv5soup/d_a</text>
<text text-anchor="middle" x="3846.56" y="-62" font-family="Helvetica,sans-Serif" font-size="10.00">_tag_lv5soup.h</text>
</a>
</g>
</g>
<!-- Node3&#45;&gt;Node168 -->
<g id="edge32" class="edge">
<title>Node3&#45;&gt;Node168</title>
<path fill="none" stroke="#63b8ff" d="M2251.09,-146.23C2519.96,-146.74 3480.53,-144.99 3781.56,-96 3784.46,-95.53 3787.42,-94.96 3790.4,-94.32"/>
<polygon fill="#63b8ff" stroke="#63b8ff" points="2251.46,-142.73 2241.45,-146.21 2251.45,-149.73 2251.46,-142.73"/>
</g>
<!-- Node169 -->
<g id="node34" class="node">
<title>Node169</title>
<g id="a_node34"><a xlink:href="d__a__tag__magne_8h.html" target="_top" xlink:title=" ">
<polygon fill="#fff0f0" stroke="red" points="4046.56,-96 3920.56,-96 3920.56,-55 4046.56,-55 4046.56,-96"/>
<text text-anchor="start" x="3928.56" y="-84" font-family="Helvetica,sans-Serif" font-size="10.00">include/rel/d/a/tag</text>
<text text-anchor="start" x="3928.56" y="-73" font-family="Helvetica,sans-Serif" font-size="10.00">/d_a_tag_magne/d_a_tag</text>
<text text-anchor="middle" x="3983.56" y="-62" font-family="Helvetica,sans-Serif" font-size="10.00">_magne.h</text>
</a>
</g>
</g>
<!-- Node3&#45;&gt;Node169 -->
<g id="edge33" class="edge">
<title>Node3&#45;&gt;Node169</title>
<path fill="none" stroke="#63b8ff" d="M2251.06,-146.18C2533.42,-146.54 3583.19,-144.51 3911.56,-96 3914.37,-95.58 3917.24,-95.09 3920.12,-94.55"/>
<polygon fill="#63b8ff" stroke="#63b8ff" points="2251.28,-142.68 2241.28,-146.16 2251.27,-149.68 2251.28,-142.68"/>
</g>
<!-- Node170 -->
<g id="node35" class="node">
<title>Node170</title>
<g id="a_node35"><a xlink:href="d__a__tag__mmsg_8h.html" target="_top" xlink:title=" ">
<polygon fill="white" stroke="#666666" points="4188.56,-96 4064.56,-96 4064.56,-55 4188.56,-55 4188.56,-96"/>
<text text-anchor="start" x="4072.56" y="-84" font-family="Helvetica,sans-Serif" font-size="10.00">include/rel/d/a/tag</text>
<text text-anchor="start" x="4072.56" y="-73" font-family="Helvetica,sans-Serif" font-size="10.00">/d_a_tag_mmsg/d_a_tag</text>
<text text-anchor="middle" x="4126.56" y="-62" font-family="Helvetica,sans-Serif" font-size="10.00">_mmsg.h</text>
</a>
</g>
</g>
<!-- Node3&#45;&gt;Node170 -->
<g id="edge34" class="edge">
<title>Node3&#45;&gt;Node170</title>
<path fill="none" stroke="#63b8ff" d="M2251.44,-146.39C2548.93,-147.69 3697.76,-149.11 4055.56,-96 4058.46,-95.57 4061.42,-95.06 4064.4,-94.48"/>
<polygon fill="#63b8ff" stroke="#63b8ff" points="2251.5,-142.89 2241.49,-146.35 2251.47,-149.89 2251.5,-142.89"/>
</g>
<!-- Node93 -->
<g id="node36" class="node">
<title>Node93</title>
<g id="a_node36"><a xlink:href="d__a__tag__ret__room_8h.html" target="_top" xlink:title=" ">
<polygon fill="white" stroke="#666666" points="4312.56,-96 4206.56,-96 4206.56,-55 4312.56,-55 4312.56,-96"/>
<text text-anchor="start" x="4214.56" y="-84" font-family="Helvetica,sans-Serif" font-size="10.00">include/rel/d/a/tag</text>
<text text-anchor="start" x="4214.56" y="-73" font-family="Helvetica,sans-Serif" font-size="10.00">/d_a_tag_ret_room/d</text>
<text text-anchor="middle" x="4259.56" y="-62" font-family="Helvetica,sans-Serif" font-size="10.00">_a_tag_ret_room.h</text>
</a>
</g>
</g>
<!-- Node3&#45;&gt;Node93 -->
<g id="edge36" class="edge">
<title>Node3&#45;&gt;Node93</title>
<path fill="none" stroke="#63b8ff" d="M2251.27,-145.42C2585.95,-142.51 4002.75,-128.39 4197.56,-96 4200.45,-95.52 4203.4,-94.93 4206.35,-94.27"/>
<polygon fill="#63b8ff" stroke="#63b8ff" points="2251.31,-141.92 2241.34,-145.51 2251.37,-148.92 2251.31,-141.92"/>
</g>
<!-- Node171 -->
<g id="node37" class="node">
<title>Node171</title>
<g id="a_node37"><a xlink:href="d__a__tag__schedule_8h.html" target="_top" xlink:title=" ">
<polygon fill="white" stroke="#666666" points="4438.06,-96 4331.06,-96 4331.06,-55 4438.06,-55 4438.06,-96"/>
<text text-anchor="start" x="4339.06" y="-84" font-family="Helvetica,sans-Serif" font-size="10.00">include/rel/d/a/tag</text>
<text text-anchor="start" x="4339.06" y="-73" font-family="Helvetica,sans-Serif" font-size="10.00">/d_a_tag_schedule/d</text>
<text text-anchor="middle" x="4384.56" y="-62" font-family="Helvetica,sans-Serif" font-size="10.00">_a_tag_schedule.h</text>
</a>
</g>
</g>
<!-- Node3&#45;&gt;Node171 -->
<g id="edge37" class="edge">
<title>Node3&#45;&gt;Node171</title>
<path fill="none" stroke="#63b8ff" d="M2251.35,-145.51C2598.63,-142.95 4113.84,-129.9 4321.56,-96 4324.61,-95.5 4327.71,-94.89 4330.83,-94.2"/>
<polygon fill="#63b8ff" stroke="#63b8ff" points="2251.46,-142.01 2241.48,-145.58 2251.51,-149.01 2251.46,-142.01"/>
</g>
<!-- Node170&#45;&gt;Node4 -->
<g id="edge35" class="edge">
<title>Node170&#45;&gt;Node4</title>
<path fill="none" stroke="#63b8ff" d="M4053.2,-55.01C3812.44,-25.95 2420.46,-13.38 2116.96,-10.95"/>
<polygon fill="#63b8ff" stroke="#63b8ff" points="4052.53,-58.46 4062.9,-56.3 4053.45,-51.52 4052.53,-58.46"/>
</g>
<!-- Node181&#45;&gt;Node64 -->
<g id="edge39" class="edge">
<title>Node181&#45;&gt;Node64</title>
<path fill="none" stroke="#63b8ff" d="M4536.85,-56.4C4545.75,-44.27 4557.08,-28.84 4564.08,-19.32"/>
<polygon fill="#63b8ff" stroke="#63b8ff" points="4534.08,-54.25 4530.99,-64.38 4539.73,-58.39 4534.08,-54.25"/>
</g>
<!-- Node185&#45;&gt;Node181 -->
<g id="edge41" class="edge">
<title>Node185&#45;&gt;Node181</title>
<path fill="none" stroke="#63b8ff" d="M4525.45,-120.46C4524.92,-108.07 4524.31,-93.99 4523.93,-85.18"/>
<polygon fill="#63b8ff" stroke="#63b8ff" points="4521.94,-120.25 4525.87,-130.09 4528.93,-119.95 4521.94,-120.25"/>
</g>
<!-- Node186&#45;&gt;Node188 -->
<g id="edge43" class="edge">
<title>Node186&#45;&gt;Node188</title>
<path fill="none" stroke="#63b8ff" d="M4723.1,-121.99C4731.36,-109.24 4740.99,-94.36 4746.94,-85.18"/>
<polygon fill="#63b8ff" stroke="#63b8ff" points="4720.2,-120.03 4717.7,-130.33 4726.08,-123.84 4720.2,-120.03"/>
</g>
</g>
</svg>
