<?xml version="1.0" encoding="UTF-8" standalone="no"?>
<!DOCTYPE svg PUBLIC "-//W3C//DTD SVG 1.1//EN"
 "http://www.w3.org/Graphics/SVG/1.1/DTD/svg11.dtd">
<!-- Generated by graphviz version 7.0.5 (20221223.1930)
 -->
<!-- Title: include/f_pc/f_pc_create_req.h Pages: 1 -->
<svg width="3849pt" height="390pt"
 viewBox="0.00 0.00 3849.00 390.00" xmlns="http://www.w3.org/2000/svg" xmlns:xlink="http://www.w3.org/1999/xlink">
<g id="graph0" class="graph" transform="scale(1 1) rotate(0) translate(4 386)">
<title>include/f_pc/f_pc_create_req.h</title>
<!-- Node1 -->
<g id="node1" class="node">
<title>Node1</title>
<g id="a_node1"><a xlink:title=" ">
<polygon fill="#999999" stroke="#666666" points="1055.5,-382 932.5,-382 932.5,-352 1055.5,-352 1055.5,-382"/>
<text text-anchor="start" x="940.5" y="-370" font-family="Helvetica,sans-Serif" font-size="10.00">include/f_pc/f_pc_create</text>
<text text-anchor="middle" x="994" y="-359" font-family="Helvetica,sans-Serif" font-size="10.00">_req.h</text>
</a>
</g>
</g>
<!-- Node2 -->
<g id="node2" class="node">
<title>Node2</title>
<g id="a_node2"><a xlink:href="f__pc__fstcreate__req_8h.html" target="_top" xlink:title=" ">
<polygon fill="white" stroke="#666666" points="461,-316 327,-316 327,-286 461,-286 461,-316"/>
<text text-anchor="start" x="335" y="-304" font-family="Helvetica,sans-Serif" font-size="10.00">include/f_pc/f_pc_fstcreate</text>
<text text-anchor="middle" x="394" y="-293" font-family="Helvetica,sans-Serif" font-size="10.00">_req.h</text>
</a>
</g>
</g>
<!-- Node1&#45;&gt;Node2 -->
<g id="edge1" class="edge">
<title>Node1&#45;&gt;Node2</title>
<path fill="none" stroke="#63b8ff" d="M920.69,-358.18C803.21,-345.65 574.5,-321.25 461.09,-309.16"/>
<polygon fill="#63b8ff" stroke="#63b8ff" points="920.23,-361.65 930.54,-359.23 920.97,-354.69 920.23,-361.65"/>
</g>
<!-- Node5 -->
<g id="node5" class="node">
<title>Node5</title>
<g id="a_node5"><a xlink:href="f__pc__stdcreate__req_8h.html" target="_top" xlink:title=" ">
<polygon fill="white" stroke="#666666" points="925.5,-316 788.5,-316 788.5,-286 925.5,-286 925.5,-316"/>
<text text-anchor="start" x="796.5" y="-304" font-family="Helvetica,sans-Serif" font-size="10.00">include/f_pc/f_pc_stdcreate</text>
<text text-anchor="middle" x="857" y="-293" font-family="Helvetica,sans-Serif" font-size="10.00">_req.h</text>
</a>
</g>
</g>
<!-- Node1&#45;&gt;Node5 -->
<g id="edge4" class="edge">
<title>Node1&#45;&gt;Node5</title>
<path fill="none" stroke="#63b8ff" d="M953.02,-346.86C932.04,-337.05 906.92,-325.32 887.64,-316.31"/>
<polygon fill="#63b8ff" stroke="#63b8ff" points="951.34,-349.94 961.88,-351 954.3,-343.59 951.34,-349.94"/>
</g>
<!-- Node133 -->
<g id="node46" class="node">
<title>Node133</title>
<g id="a_node46"><a xlink:href="f__pc__node__req_8cpp.html" target="_top" xlink:title=" ">
<polygon fill="white" stroke="#666666" points="1115,-250 1015,-250 1015,-220 1115,-220 1115,-250"/>
<text text-anchor="start" x="1023" y="-238" font-family="Helvetica,sans-Serif" font-size="10.00">src/f_pc/f_pc_node</text>
<text text-anchor="middle" x="1065" y="-227" font-family="Helvetica,sans-Serif" font-size="10.00">_req.cpp</text>
</a>
</g>
</g>
<!-- Node1&#45;&gt;Node133 -->
<g id="edge58" class="edge">
<title>Node1&#45;&gt;Node133</title>
<path fill="none" stroke="#63b8ff" d="M978.63,-342.24C969.96,-325.57 962.73,-303.27 973,-286 982.85,-269.44 1000.31,-258.02 1017.4,-250.32"/>
<polygon fill="#63b8ff" stroke="#63b8ff" points="975.34,-343.52 983.33,-350.47 981.42,-340.05 975.34,-343.52"/>
</g>
<!-- Node135 -->
<g id="node48" class="node">
<title>Node135</title>
<g id="a_node48"><a xlink:href="f__pc__create__iter_8cpp.html" target="_top" xlink:title=" ">
<polygon fill="white" stroke="#666666" points="1088,-316 982,-316 982,-286 1088,-286 1088,-316"/>
<text text-anchor="start" x="990" y="-304" font-family="Helvetica,sans-Serif" font-size="10.00">src/f_pc/f_pc_create</text>
<text text-anchor="middle" x="1035" y="-293" font-family="Helvetica,sans-Serif" font-size="10.00">_iter.cpp</text>
</a>
</g>
</g>
<!-- Node1&#45;&gt;Node135 -->
<g id="edge55" class="edge">
<title>Node1&#45;&gt;Node135</title>
<path fill="none" stroke="#63b8ff" d="M1009.3,-342.11C1014.9,-333.38 1021.05,-323.78 1025.93,-316.16"/>
<polygon fill="#63b8ff" stroke="#63b8ff" points="1006.36,-340.21 1003.92,-350.52 1012.26,-343.99 1006.36,-340.21"/>
</g>
<!-- Node136 -->
<g id="node49" class="node">
<title>Node136</title>
<g id="a_node49"><a xlink:href="f__pc__create__req_8cpp.html" target="_top" xlink:title=" ">
<polygon fill="white" stroke="#666666" points="1212,-316 1106,-316 1106,-286 1212,-286 1212,-316"/>
<text text-anchor="start" x="1114" y="-304" font-family="Helvetica,sans-Serif" font-size="10.00">src/f_pc/f_pc_create</text>
<text text-anchor="middle" x="1159" y="-293" font-family="Helvetica,sans-Serif" font-size="10.00">_req.cpp</text>
</a>
</g>
</g>
<!-- Node1&#45;&gt;Node136 -->
<g id="edge56" class="edge">
<title>Node1&#45;&gt;Node136</title>
<path fill="none" stroke="#63b8ff" d="M1041.59,-347.54C1067.11,-337.64 1098.08,-325.63 1121.81,-316.43"/>
<polygon fill="#63b8ff" stroke="#63b8ff" points="1040.5,-344.21 1032.44,-351.09 1043.03,-350.74 1040.5,-344.21"/>
</g>
<!-- Node137 -->
<g id="node50" class="node">
<title>Node137</title>
<g id="a_node50"><a xlink:href="f__pc__creator_8cpp.html" target="_top" xlink:title=" ">
<polygon fill="white" stroke="#666666" points="1357.5,-310.5 1230.5,-310.5 1230.5,-291.5 1357.5,-291.5 1357.5,-310.5"/>
<text text-anchor="middle" x="1294" y="-298.5" font-family="Helvetica,sans-Serif" font-size="10.00">src/f_pc/f_pc_creator.cpp</text>
</a>
</g>
</g>
<!-- Node1&#45;&gt;Node137 -->
<g id="edge57" class="edge">
<title>Node1&#45;&gt;Node137</title>
<path fill="none" stroke="#63b8ff" d="M1066.74,-350.48C1124.81,-338.09 1204.12,-321.17 1252.06,-310.95"/>
<polygon fill="#63b8ff" stroke="#63b8ff" points="1066.33,-346.99 1057.28,-352.5 1067.79,-353.84 1066.33,-346.99"/>
</g>
<!-- Node3 -->
<g id="node3" class="node">
<title>Node3</title>
<g id="a_node3"><a xlink:href="f__pc__fstcreate__req_8cpp.html" target="_top" xlink:title=" ">
<polygon fill="white" stroke="#666666" points="452.5,-250 335.5,-250 335.5,-220 452.5,-220 452.5,-250"/>
<text text-anchor="start" x="343.5" y="-238" font-family="Helvetica,sans-Serif" font-size="10.00">src/f_pc/f_pc_fstcreate</text>
<text text-anchor="middle" x="394" y="-227" font-family="Helvetica,sans-Serif" font-size="10.00">_req.cpp</text>
</a>
</g>
</g>
<!-- Node2&#45;&gt;Node3 -->
<g id="edge2" class="edge">
<title>Node2&#45;&gt;Node3</title>
<path fill="none" stroke="#63b8ff" d="M394,-274.39C394,-266.13 394,-257.28 394,-250.16"/>
<polygon fill="#63b8ff" stroke="#63b8ff" points="390.5,-274.28 394,-284.28 397.5,-274.28 390.5,-274.28"/>
</g>
<!-- Node4 -->
<g id="node4" class="node">
<title>Node4</title>
<g id="a_node4"><a xlink:href="f__pc__manager_8cpp.html" target="_top" xlink:title=" ">
<polygon fill="white" stroke="#666666" points="134,-178.5 0,-178.5 0,-159.5 134,-159.5 134,-178.5"/>
<text text-anchor="middle" x="67" y="-166.5" font-family="Helvetica,sans-Serif" font-size="10.00">src/f_pc/f_pc_manager.cpp</text>
</a>
</g>
</g>
<!-- Node2&#45;&gt;Node4 -->
<g id="edge3" class="edge">
<title>Node2&#45;&gt;Node4</title>
<path fill="none" stroke="#63b8ff" d="M347.26,-281.42C275.81,-253.01 142.14,-199.87 89.31,-178.87"/>
<polygon fill="#63b8ff" stroke="#63b8ff" points="345.76,-284.59 356.35,-285.03 348.35,-278.09 345.76,-284.59"/>
</g>
<!-- Node6 -->
<g id="node6" class="node">
<title>Node6</title>
<g id="a_node6"><a xlink:href="f__pc__manager_8h.html" target="_top" xlink:title=" ">
<polygon fill="white" stroke="#666666" points="828.5,-244.5 687.5,-244.5 687.5,-225.5 828.5,-225.5 828.5,-244.5"/>
<text text-anchor="middle" x="758" y="-232.5" font-family="Helvetica,sans-Serif" font-size="10.00">include/f_pc/f_pc_manager.h</text>
</a>
</g>
</g>
<!-- Node5&#45;&gt;Node6 -->
<g id="edge5" class="edge">
<title>Node5&#45;&gt;Node6</title>
<path fill="none" stroke="#63b8ff" d="M825.42,-279.58C807.31,-267.87 785.49,-253.77 771.68,-244.84"/>
<polygon fill="#63b8ff" stroke="#63b8ff" points="823.46,-282.48 833.76,-284.97 827.26,-276.61 823.46,-282.48"/>
</g>
<!-- Node128 -->
<g id="node41" class="node">
<title>Node128</title>
<g id="a_node41"><a xlink:href="f__op__overlap__req_8cpp.html" target="_top" xlink:title=" ">
<polygon fill="white" stroke="#666666" points="3841,-184 3731,-184 3731,-154 3841,-154 3841,-184"/>
<text text-anchor="start" x="3739" y="-172" font-family="Helvetica,sans-Serif" font-size="10.00">src/f_op/f_op_overlap</text>
<text text-anchor="middle" x="3786" y="-161" font-family="Helvetica,sans-Serif" font-size="10.00">_req.cpp</text>
</a>
</g>
</g>
<!-- Node5&#45;&gt;Node128 -->
<g id="edge52" class="edge">
<title>Node5&#45;&gt;Node128</title>
<path fill="none" stroke="#63b8ff" d="M855.87,-274.37C856.59,-256.13 860.96,-232.69 877,-220 938.88,-171.05 3638.55,-192.38 3717,-184 3721.5,-183.52 3726.14,-182.89 3730.78,-182.15"/>
<polygon fill="#63b8ff" stroke="#63b8ff" points="852.37,-274.19 855.84,-284.2 859.37,-274.2 852.37,-274.19"/>
</g>
<!-- Node132 -->
<g id="node45" class="node">
<title>Node132</title>
<g id="a_node45"><a xlink:href="f__op__camera__mng_8cpp.html" target="_top" xlink:title=" ">
<polygon fill="white" stroke="#666666" points="996.5,-250 885.5,-250 885.5,-220 996.5,-220 996.5,-250"/>
<text text-anchor="start" x="893.5" y="-238" font-family="Helvetica,sans-Serif" font-size="10.00">src/f_op/f_op_camera</text>
<text text-anchor="middle" x="941" y="-227" font-family="Helvetica,sans-Serif" font-size="10.00">_mng.cpp</text>
</a>
</g>
</g>
<!-- Node5&#45;&gt;Node132 -->
<g id="edge51" class="edge">
<title>Node5&#45;&gt;Node132</title>
<path fill="none" stroke="#63b8ff" d="M884.6,-278.97C896.89,-269.61 911.06,-258.81 922.12,-250.39"/>
<polygon fill="#63b8ff" stroke="#63b8ff" points="882.68,-276.03 876.85,-284.88 886.92,-281.6 882.68,-276.03"/>
</g>
<!-- Node5&#45;&gt;Node133 -->
<g id="edge53" class="edge">
<title>Node5&#45;&gt;Node133</title>
<path fill="none" stroke="#63b8ff" d="M914.69,-282.25C947.32,-272.21 987.59,-259.82 1018.23,-250.39"/>
<polygon fill="#63b8ff" stroke="#63b8ff" points="913.91,-278.83 905.39,-285.11 915.97,-285.52 913.91,-278.83"/>
</g>
<!-- Node134 -->
<g id="node47" class="node">
<title>Node134</title>
<g id="a_node47"><a xlink:href="f__pc__stdcreate__req_8cpp.html" target="_top" xlink:title=" ">
<polygon fill="white" stroke="#666666" points="669.5,-250 550.5,-250 550.5,-220 669.5,-220 669.5,-250"/>
<text text-anchor="start" x="558.5" y="-238" font-family="Helvetica,sans-Serif" font-size="10.00">src/f_pc/f_pc_stdcreate</text>
<text text-anchor="middle" x="610" y="-227" font-family="Helvetica,sans-Serif" font-size="10.00">_req.cpp</text>
</a>
</g>
</g>
<!-- Node5&#45;&gt;Node134 -->
<g id="edge54" class="edge">
<title>Node5&#45;&gt;Node134</title>
<path fill="none" stroke="#63b8ff" d="M790.26,-282.71C751.21,-272.59 702.48,-259.96 665.54,-250.39"/>
<polygon fill="#63b8ff" stroke="#63b8ff" points="789.24,-286.06 799.8,-285.18 790.99,-279.28 789.24,-286.06"/>
</g>
<!-- Node6&#45;&gt;Node4 -->
<g id="edge50" class="edge">
<title>Node6&#45;&gt;Node4</title>
<path fill="none" stroke="#63b8ff" d="M700.34,-223.16C692.84,-221.97 685.25,-220.88 678,-220 443.61,-191.61 382.41,-212.14 148,-184 136.95,-182.67 125.11,-180.86 113.99,-178.97"/>
<polygon fill="#63b8ff" stroke="#63b8ff" points="699.66,-226.6 710.1,-224.78 700.8,-219.69 699.66,-226.6"/>
</g>
<!-- Node7 -->
<g id="node7" class="node">
<title>Node7</title>
<g id="a_node7"><a xlink:href="f__op__actor__mng_8h.html" target="_top" xlink:title=" ">
<polygon fill="#fff0f0" stroke="red" points="2158,-184 2040,-184 2040,-154 2158,-154 2158,-184"/>
<text text-anchor="start" x="2048" y="-172" font-family="Helvetica,sans-Serif" font-size="10.00">include/f_op/f_op_actor</text>
<text text-anchor="middle" x="2099" y="-161" font-family="Helvetica,sans-Serif" font-size="10.00">_mng.h</text>
</a>
</g>
</g>
<!-- Node6&#45;&gt;Node7 -->
<g id="edge6" class="edge">
<title>Node6&#45;&gt;Node7</title>
<path fill="none" stroke="#63b8ff" d="M817.17,-223.29C825.81,-222.01 834.62,-220.85 843,-220 1079.64,-195.89 1824.05,-176.59 2039.84,-171.38"/>
<polygon fill="#63b8ff" stroke="#63b8ff" points="816.8,-219.81 807.46,-224.81 817.88,-226.73 816.8,-219.81"/>
</g>
<!-- Node16 -->
<g id="node9" class="node">
<title>Node16</title>
<g id="a_node9"><a xlink:href="f__op__actor_8cpp.html" target="_top" xlink:title=" ">
<polygon fill="white" stroke="#666666" points="3724.5,-30 3605.5,-30 3605.5,-11 3724.5,-11 3724.5,-30"/>
<text text-anchor="middle" x="3665" y="-18" font-family="Helvetica,sans-Serif" font-size="10.00">src/f_op/f_op_actor.cpp</text>
</a>
</g>
</g>
<!-- Node6&#45;&gt;Node16 -->
<g id="edge41" class="edge">
<title>Node6&#45;&gt;Node16</title>
<path fill="none" stroke="#63b8ff" d="M823.7,-223.47C834.15,-222.1 844.85,-220.87 855,-220 1436.21,-170.25 1584.04,-204.8 2167,-184 2333.94,-178.04 3553.5,-238.69 3669,-118 3691.96,-94.01 3677.01,-49.4 3669.06,-30.42"/>
<polygon fill="#63b8ff" stroke="#63b8ff" points="823.44,-219.97 814.01,-224.8 824.39,-226.91 823.44,-219.97"/>
</g>
<!-- Node113 -->
<g id="node33" class="node">
<title>Node113</title>
<g id="a_node33"><a xlink:href="f__op__kankyo__mng_8h.html" target="_top" xlink:title=" ">
<polygon fill="#fff0f0" stroke="red" points="317.5,-184 190.5,-184 190.5,-154 317.5,-154 317.5,-184"/>
<text text-anchor="start" x="198.5" y="-172" font-family="Helvetica,sans-Serif" font-size="10.00">include/f_op/f_op_kankyo</text>
<text text-anchor="middle" x="254" y="-161" font-family="Helvetica,sans-Serif" font-size="10.00">_mng.h</text>
</a>
</g>
</g>
<!-- Node6&#45;&gt;Node113 -->
<g id="edge34" class="edge">
<title>Node6&#45;&gt;Node113</title>
<path fill="none" stroke="#63b8ff" d="M698.65,-223.14C691.7,-222.01 684.7,-220.93 678,-220 524.87,-198.66 485.08,-205.67 332,-184 327.37,-183.34 322.59,-182.62 317.79,-181.85"/>
<polygon fill="#63b8ff" stroke="#63b8ff" points="697.93,-226.57 708.37,-224.77 699.08,-219.66 697.93,-226.57"/>
</g>
<!-- Node115 -->
<g id="node34" class="node">
<title>Node115</title>
<g id="a_node34"><a xlink:href="f__op__kankyo_8cpp.html" target="_top" xlink:title=" ">
<polygon fill="white" stroke="#666666" points="226,-107 98,-107 98,-88 226,-88 226,-107"/>
<text text-anchor="middle" x="162" y="-95" font-family="Helvetica,sans-Serif" font-size="10.00">src/f_op/f_op_kankyo.cpp</text>
</a>
</g>
</g>
<!-- Node6&#45;&gt;Node115 -->
<g id="edge43" class="edge">
<title>Node6&#45;&gt;Node115</title>
<path fill="none" stroke="#63b8ff" d="M700.34,-223.19C692.84,-222 685.25,-220.89 678,-220 623.05,-213.22 222.91,-220.18 181,-184 158.56,-164.62 159.28,-125.16 160.9,-107.45"/>
<polygon fill="#63b8ff" stroke="#63b8ff" points="699.65,-226.63 710.09,-224.81 700.8,-219.72 699.65,-226.63"/>
</g>
<!-- Node117 -->
<g id="node35" class="node">
<title>Node117</title>
<g id="a_node35"><a xlink:href="f__op__scene__mng_8h.html" target="_top" xlink:title=" ">
<polygon fill="#fff0f0" stroke="red" points="496,-184 374,-184 374,-154 496,-154 496,-184"/>
<text text-anchor="start" x="382" y="-172" font-family="Helvetica,sans-Serif" font-size="10.00">include/f_op/f_op_scene</text>
<text text-anchor="middle" x="435" y="-161" font-family="Helvetica,sans-Serif" font-size="10.00">_mng.h</text>
</a>
</g>
</g>
<!-- Node6&#45;&gt;Node117 -->
<g id="edge36" class="edge">
<title>Node6&#45;&gt;Node117</title>
<path fill="none" stroke="#63b8ff" d="M701.7,-222.84C644.25,-211.46 555.38,-193.85 496.21,-182.13"/>
<polygon fill="#63b8ff" stroke="#63b8ff" points="700.77,-226.23 711.26,-224.74 702.13,-219.36 700.77,-226.23"/>
</g>
<!-- Node121 -->
<g id="node36" class="node">
<title>Node121</title>
<g id="a_node36"><a xlink:href="d__s__name_8cpp.html" target="_top" xlink:title=" ">
<polygon fill="white" stroke="#666666" points="357.5,-107 244.5,-107 244.5,-88 357.5,-88 357.5,-107"/>
<text text-anchor="middle" x="301" y="-95" font-family="Helvetica,sans-Serif" font-size="10.00">src/d/s/d_s_name.cpp</text>
</a>
</g>
</g>
<!-- Node6&#45;&gt;Node121 -->
<g id="edge39" class="edge">
<title>Node6&#45;&gt;Node121</title>
<path fill="none" stroke="#63b8ff" d="M698.11,-223.13C691.34,-222.01 684.53,-220.95 678,-220 608.71,-209.96 425.71,-218.87 365,-184 333.49,-165.9 312.71,-125.4 304.71,-107.41"/>
<polygon fill="#63b8ff" stroke="#63b8ff" points="697.49,-226.57 707.93,-224.78 698.65,-219.67 697.49,-226.57"/>
</g>
<!-- Node122 -->
<g id="node37" class="node">
<title>Node122</title>
<g id="a_node37"><a xlink:href="f__ap__game_8cpp.html" target="_top" xlink:title=" ">
<polygon fill="white" stroke="#666666" points="496.5,-107 375.5,-107 375.5,-88 496.5,-88 496.5,-107"/>
<text text-anchor="middle" x="436" y="-95" font-family="Helvetica,sans-Serif" font-size="10.00">src/f_ap/f_ap_game.cpp</text>
</a>
</g>
</g>
<!-- Node6&#45;&gt;Node122 -->
<g id="edge40" class="edge">
<title>Node6&#45;&gt;Node122</title>
<path fill="none" stroke="#63b8ff" d="M696.95,-222.93C643.32,-212.64 569.8,-196.99 543,-184 541.63,-183.34 473.84,-128.91 446.88,-107.25"/>
<polygon fill="#63b8ff" stroke="#63b8ff" points="696.1,-226.33 706.58,-224.76 697.41,-219.45 696.1,-226.33"/>
</g>
<!-- Node125 -->
<g id="node38" class="node">
<title>Node125</title>
<g id="a_node38"><a xlink:href="f__op__camera_8cpp.html" target="_top" xlink:title=" ">
<polygon fill="white" stroke="#666666" points="681.5,-178.5 552.5,-178.5 552.5,-159.5 681.5,-159.5 681.5,-178.5"/>
<text text-anchor="middle" x="617" y="-166.5" font-family="Helvetica,sans-Serif" font-size="10.00">src/f_op/f_op_camera.cpp</text>
</a>
</g>
</g>
<!-- Node6&#45;&gt;Node125 -->
<g id="edge42" class="edge">
<title>Node6&#45;&gt;Node125</title>
<path fill="none" stroke="#63b8ff" d="M728.12,-220.44C700.46,-207.88 660.14,-189.58 636.44,-178.82"/>
<polygon fill="#63b8ff" stroke="#63b8ff" points="726.46,-223.53 737.02,-224.48 729.36,-217.16 726.46,-223.53"/>
</g>
<!-- Node126 -->
<g id="node39" class="node">
<title>Node126</title>
<g id="a_node39"><a xlink:href="f__op__msg_8cpp.html" target="_top" xlink:title=" ">
<polygon fill="white" stroke="#666666" points="816,-178.5 700,-178.5 700,-159.5 816,-159.5 816,-178.5"/>
<text text-anchor="middle" x="758" y="-166.5" font-family="Helvetica,sans-Serif" font-size="10.00">src/f_op/f_op_msg.cpp</text>
</a>
</g>
</g>
<!-- Node6&#45;&gt;Node126 -->
<g id="edge44" class="edge">
<title>Node6&#45;&gt;Node126</title>
<path fill="none" stroke="#63b8ff" d="M758,-213.68C758,-201.94 758,-187.77 758,-178.82"/>
<polygon fill="#63b8ff" stroke="#63b8ff" points="754.5,-213.59 758,-223.59 761.5,-213.59 754.5,-213.59"/>
</g>
<!-- Node127 -->
<g id="node40" class="node">
<title>Node127</title>
<g id="a_node40"><a xlink:href="f__op__overlap_8cpp.html" target="_top" xlink:title=" ">
<polygon fill="white" stroke="#666666" points="962,-178.5 834,-178.5 834,-159.5 962,-159.5 962,-178.5"/>
<text text-anchor="middle" x="898" y="-166.5" font-family="Helvetica,sans-Serif" font-size="10.00">src/f_op/f_op_overlap.cpp</text>
</a>
</g>
</g>
<!-- Node6&#45;&gt;Node127 -->
<g id="edge45" class="edge">
<title>Node6&#45;&gt;Node127</title>
<path fill="none" stroke="#63b8ff" d="M787.67,-220.44C815.13,-207.88 855.16,-189.58 878.7,-178.82"/>
<polygon fill="#63b8ff" stroke="#63b8ff" points="786.48,-217.13 778.84,-224.47 789.39,-223.5 786.48,-217.13"/>
</g>
<!-- Node6&#45;&gt;Node128 -->
<g id="edge46" class="edge">
<title>Node6&#45;&gt;Node128</title>
<path fill="none" stroke="#63b8ff" d="M815.89,-223.27C824.94,-221.94 834.2,-220.78 843,-220 1479.25,-163.94 3081.89,-251.8 3717,-184 3721.5,-183.52 3726.14,-182.89 3730.78,-182.15"/>
<polygon fill="#63b8ff" stroke="#63b8ff" points="815.44,-219.8 806.1,-224.79 816.52,-226.71 815.44,-219.8"/>
</g>
<!-- Node129 -->
<g id="node42" class="node">
<title>Node129</title>
<g id="a_node42"><a xlink:href="f__op__scene_8cpp.html" target="_top" xlink:title=" ">
<polygon fill="white" stroke="#666666" points="1103.5,-178.5 980.5,-178.5 980.5,-159.5 1103.5,-159.5 1103.5,-178.5"/>
<text text-anchor="middle" x="1042" y="-166.5" font-family="Helvetica,sans-Serif" font-size="10.00">src/f_op/f_op_scene.cpp</text>
</a>
</g>
</g>
<!-- Node6&#45;&gt;Node129 -->
<g id="edge47" class="edge">
<title>Node6&#45;&gt;Node129</title>
<path fill="none" stroke="#63b8ff" d="M808.77,-222.56C864.24,-210.06 951.91,-190.3 1002.48,-178.91"/>
<polygon fill="#63b8ff" stroke="#63b8ff" points="808.25,-219.09 799.26,-224.7 809.79,-225.92 808.25,-219.09"/>
</g>
<!-- Node130 -->
<g id="node43" class="node">
<title>Node130</title>
<g id="a_node43"><a xlink:href="f__op__scene__pause_8cpp.html" target="_top" xlink:title=" ">
<polygon fill="white" stroke="#666666" points="1226.5,-184 1121.5,-184 1121.5,-154 1226.5,-154 1226.5,-184"/>
<text text-anchor="start" x="1129.5" y="-172" font-family="Helvetica,sans-Serif" font-size="10.00">src/f_op/f_op_scene</text>
<text text-anchor="middle" x="1174" y="-161" font-family="Helvetica,sans-Serif" font-size="10.00">_pause.cpp</text>
</a>
</g>
</g>
<!-- Node6&#45;&gt;Node130 -->
<g id="edge48" class="edge">
<title>Node6&#45;&gt;Node130</title>
<path fill="none" stroke="#63b8ff" d="M822.3,-223.2C829.28,-222.09 836.29,-221 843,-220 962.74,-202.16 993.87,-205.56 1113,-184 1115.67,-183.52 1118.41,-182.99 1121.16,-182.44"/>
<polygon fill="#63b8ff" stroke="#63b8ff" points="821.82,-219.73 812.51,-224.77 822.93,-226.64 821.82,-219.73"/>
</g>
<!-- Node131 -->
<g id="node44" class="node">
<title>Node131</title>
<g id="a_node44"><a xlink:href="f__op__view_8cpp.html" target="_top" xlink:title=" ">
<polygon fill="white" stroke="#666666" points="1361.5,-178.5 1244.5,-178.5 1244.5,-159.5 1361.5,-159.5 1361.5,-178.5"/>
<text text-anchor="middle" x="1303" y="-166.5" font-family="Helvetica,sans-Serif" font-size="10.00">src/f_op/f_op_view.cpp</text>
</a>
</g>
</g>
<!-- Node6&#45;&gt;Node131 -->
<g id="edge49" class="edge">
<title>Node6&#45;&gt;Node131</title>
<path fill="none" stroke="#63b8ff" d="M819.95,-223.27C827.7,-222.08 835.52,-220.96 843,-220 1016.98,-197.73 1062.54,-209.98 1236,-184 1245.05,-182.64 1254.72,-180.84 1263.81,-178.97"/>
<polygon fill="#63b8ff" stroke="#63b8ff" points="819.53,-219.79 810.2,-224.8 820.62,-226.7 819.53,-219.79"/>
</g>
<!-- Node8 -->
<g id="node8" class="node">
<title>Node8</title>
<g id="a_node8"><a xlink:href="d__a__alink_8h.html" target="_top" xlink:title=" ">
<polygon fill="#fff0f0" stroke="red" points="3637,-107 3521,-107 3521,-88 3637,-88 3637,-107"/>
<text text-anchor="middle" x="3579" y="-95" font-family="Helvetica,sans-Serif" font-size="10.00">include/d/a/d_a_alink.h</text>
</a>
</g>
</g>
<!-- Node7&#45;&gt;Node8 -->
<g id="edge7" class="edge">
<title>Node7&#45;&gt;Node8</title>
<path fill="none" stroke="#63b8ff" d="M2169.74,-167.81C2418.08,-166.79 3249.27,-160.21 3512,-118 3526.11,-115.73 3541.45,-111.41 3553.89,-107.41"/>
<polygon fill="#63b8ff" stroke="#63b8ff" points="2169.86,-164.31 2159.87,-167.85 2169.88,-171.31 2169.86,-164.31"/>
</g>
<!-- Node7&#45;&gt;Node16 -->
<g id="edge33" class="edge">
<title>Node7&#45;&gt;Node16</title>
<path fill="none" stroke="#63b8ff" d="M2169.49,-168.14C2464.71,-168.43 3589.1,-166.35 3646,-118 3671.89,-96 3669.01,-49.89 3666.44,-30.45"/>
<polygon fill="#63b8ff" stroke="#63b8ff" points="2169.62,-164.64 2159.62,-168.13 2169.61,-171.64 2169.62,-164.64"/>
</g>
<!-- Node17 -->
<g id="node10" class="node">
<title>Node17</title>
<g id="a_node10"><a xlink:href="d__a__obj__item_8h.html" target="_top" xlink:title=" ">
<polygon fill="#fff0f0" stroke="red" points="3502.5,-112.5 3401.5,-112.5 3401.5,-82.5 3502.5,-82.5 3502.5,-112.5"/>
<text text-anchor="start" x="3409.5" y="-100.5" font-family="Helvetica,sans-Serif" font-size="10.00">include/d/a/d_a_obj</text>
<text text-anchor="middle" x="3452" y="-89.5" font-family="Helvetica,sans-Serif" font-size="10.00">_item.h</text>
</a>
</g>
</g>
<!-- Node7&#45;&gt;Node17 -->
<g id="edge9" class="edge">
<title>Node7&#45;&gt;Node17</title>
<path fill="none" stroke="#63b8ff" d="M2169.69,-167.6C2403.4,-165.92 3149.85,-157.52 3387,-118 3394.32,-116.78 3401.98,-114.98 3409.36,-112.96"/>
<polygon fill="#63b8ff" stroke="#63b8ff" points="2169.78,-164.1 2159.81,-167.67 2169.83,-171.1 2169.78,-164.1"/>
</g>
<!-- Node19 -->
<g id="node11" class="node">
<title>Node19</title>
<g id="a_node11"><a xlink:href="d__bomb_8h.html" target="_top" xlink:title=" ">
<polygon fill="#fff0f0" stroke="red" points="615.5,-107 514.5,-107 514.5,-88 615.5,-88 615.5,-107"/>
<text text-anchor="middle" x="565" y="-95" font-family="Helvetica,sans-Serif" font-size="10.00">include/d/d_bomb.h</text>
</a>
</g>
</g>
<!-- Node7&#45;&gt;Node19 -->
<g id="edge10" class="edge">
<title>Node7&#45;&gt;Node19</title>
<path fill="none" stroke="#63b8ff" d="M2028.31,-166.76C1753.39,-161.8 763.76,-142.4 625,-118 612.27,-115.76 598.53,-111.44 587.41,-107.44"/>
<polygon fill="#63b8ff" stroke="#63b8ff" points="2028.14,-170.26 2038.2,-166.94 2028.26,-163.26 2028.14,-170.26"/>
</g>
<!-- Node20 -->
<g id="node12" class="node">
<title>Node20</title>
<g id="a_node12"><a xlink:href="d__a__obj__bombf_8h.html" target="_top" xlink:title=" ">
<polygon fill="white" stroke="#666666" points="2030,-41 1908,-41 1908,0 2030,0 2030,-41"/>
<text text-anchor="start" x="1916" y="-29" font-family="Helvetica,sans-Serif" font-size="10.00">include/rel/d/a/obj</text>
<text text-anchor="start" x="1916" y="-18" font-family="Helvetica,sans-Serif" font-size="10.00">/d_a_obj_bombf/d_a_obj</text>
<text text-anchor="middle" x="1969" y="-7" font-family="Helvetica,sans-Serif" font-size="10.00">_bombf.h</text>
</a>
</g>
</g>
<!-- Node7&#45;&gt;Node20 -->
<g id="edge32" class="edge">
<title>Node7&#45;&gt;Node20</title>
<path fill="none" stroke="#63b8ff" d="M2169.62,-167.86C2428.52,-167 3312.75,-160.92 3354,-118 3366.63,-104.86 3366.62,-90.14 3354,-77 3307.55,-28.65 2292.21,-22.42 2030.23,-21.62"/>
<polygon fill="#63b8ff" stroke="#63b8ff" points="2169.63,-164.36 2159.65,-167.89 2169.66,-171.36 2169.63,-164.36"/>
</g>
<!-- Node22 -->
<g id="node13" class="node">
<title>Node22</title>
<g id="a_node13"><a xlink:href="d__a__andsw_8h.html" target="_top" xlink:title=" ">
<polygon fill="white" stroke="#666666" points="744,-112.5 634,-112.5 634,-82.5 744,-82.5 744,-112.5"/>
<text text-anchor="start" x="642" y="-100.5" font-family="Helvetica,sans-Serif" font-size="10.00">include/rel/d/a/d_a</text>
<text text-anchor="middle" x="689" y="-89.5" font-family="Helvetica,sans-Serif" font-size="10.00">_andsw/d_a_andsw.h</text>
</a>
</g>
</g>
<!-- Node7&#45;&gt;Node22 -->
<g id="edge12" class="edge">
<title>Node7&#45;&gt;Node22</title>
<path fill="none" stroke="#63b8ff" d="M2028.49,-166.45C1769.46,-160.6 878.9,-139.15 753,-118 745.78,-116.79 738.24,-114.99 730.97,-112.97"/>
<polygon fill="#63b8ff" stroke="#63b8ff" points="2028.03,-169.94 2038.11,-166.66 2028.19,-162.94 2028.03,-169.94"/>
</g>
<!-- Node23 -->
<g id="node14" class="node">
<title>Node23</title>
<g id="a_node14"><a xlink:href="d__a__arrow_8h.html" target="_top" xlink:title=" ">
<polygon fill="white" stroke="#666666" points="863.5,-112.5 762.5,-112.5 762.5,-82.5 863.5,-82.5 863.5,-112.5"/>
<text text-anchor="start" x="770.5" y="-100.5" font-family="Helvetica,sans-Serif" font-size="10.00">include/rel/d/a/d_a</text>
<text text-anchor="middle" x="813" y="-89.5" font-family="Helvetica,sans-Serif" font-size="10.00">_arrow/d_a_arrow.h</text>
</a>
</g>
</g>
<!-- Node7&#45;&gt;Node23 -->
<g id="edge13" class="edge">
<title>Node7&#45;&gt;Node23</title>
<path fill="none" stroke="#63b8ff" d="M2028.34,-166.25C1784.43,-160.03 986.46,-138.35 873,-118 866.21,-116.78 859.13,-114.98 852.31,-112.96"/>
<polygon fill="#63b8ff" stroke="#63b8ff" points="2027.94,-169.74 2038.02,-166.49 2028.11,-162.74 2027.94,-169.74"/>
</g>
<!-- Node24 -->
<g id="node15" class="node">
<title>Node24</title>
<g id="a_node15"><a xlink:href="d__a__boomerang_8h.html" target="_top" xlink:title=" ">
<polygon fill="#fff0f0" stroke="red" points="1030.5,-112.5 881.5,-112.5 881.5,-82.5 1030.5,-82.5 1030.5,-112.5"/>
<text text-anchor="start" x="889.5" y="-100.5" font-family="Helvetica,sans-Serif" font-size="10.00">include/rel/d/a/d_a</text>
<text text-anchor="middle" x="956" y="-89.5" font-family="Helvetica,sans-Serif" font-size="10.00">_boomerang/d_a_boomerang.h</text>
</a>
</g>
</g>
<!-- Node7&#45;&gt;Node24 -->
<g id="edge14" class="edge">
<title>Node7&#45;&gt;Node24</title>
<path fill="none" stroke="#63b8ff" d="M2028.11,-166.33C1823.06,-161.22 1231.7,-144.55 1040,-118 1030.81,-116.73 1021.14,-114.93 1011.77,-112.93"/>
<polygon fill="#63b8ff" stroke="#63b8ff" points="2028.01,-169.83 2038.1,-166.57 2028.19,-162.83 2028.01,-169.83"/>
</g>
<!-- Node25 -->
<g id="node16" class="node">
<title>Node25</title>
<g id="a_node16"><a xlink:href="d__a__canoe_8h.html" target="_top" xlink:title=" ">
<polygon fill="white" stroke="#666666" points="1155,-112.5 1049,-112.5 1049,-82.5 1155,-82.5 1155,-112.5"/>
<text text-anchor="start" x="1057" y="-100.5" font-family="Helvetica,sans-Serif" font-size="10.00">include/rel/d/a/d_a</text>
<text text-anchor="middle" x="1102" y="-89.5" font-family="Helvetica,sans-Serif" font-size="10.00">_canoe/d_a_canoe.h</text>
</a>
</g>
</g>
<!-- Node7&#45;&gt;Node25 -->
<g id="edge15" class="edge">
<title>Node7&#45;&gt;Node25</title>
<path fill="none" stroke="#63b8ff" d="M2028.32,-166.52C1840.11,-162.2 1329.79,-148.01 1164,-118 1157.12,-116.75 1149.93,-114.97 1142.99,-112.98"/>
<polygon fill="#63b8ff" stroke="#63b8ff" points="2028.13,-170.01 2038.2,-166.74 2028.28,-163.02 2028.13,-170.01"/>
</g>
<!-- Node26 -->
<g id="node17" class="node">
<title>Node26</title>
<g id="a_node17"><a xlink:href="d__a__crod_8h.html" target="_top" xlink:title=" ">
<polygon fill="#fff0f0" stroke="red" points="1269,-112.5 1173,-112.5 1173,-82.5 1269,-82.5 1269,-112.5"/>
<text text-anchor="start" x="1181" y="-100.5" font-family="Helvetica,sans-Serif" font-size="10.00">include/rel/d/a/d_a</text>
<text text-anchor="middle" x="1221" y="-89.5" font-family="Helvetica,sans-Serif" font-size="10.00">_crod/d_a_crod.h</text>
</a>
</g>
</g>
<!-- Node7&#45;&gt;Node26 -->
<g id="edge16" class="edge">
<title>Node7&#45;&gt;Node26</title>
<path fill="none" stroke="#63b8ff" d="M2028.15,-166.07C1856.41,-161.02 1421.57,-145.81 1279,-118 1272.54,-116.74 1265.8,-114.95 1259.3,-112.95"/>
<polygon fill="#63b8ff" stroke="#63b8ff" points="2027.95,-169.57 2038.05,-166.36 2028.16,-162.57 2027.95,-169.57"/>
</g>
<!-- Node27 -->
<g id="node18" class="node">
<title>Node27</title>
<g id="a_node18"><a xlink:href="d__a__econt_8h.html" target="_top" xlink:title=" ">
<polygon fill="white" stroke="#666666" points="1388.5,-112.5 1287.5,-112.5 1287.5,-82.5 1388.5,-82.5 1388.5,-112.5"/>
<text text-anchor="start" x="1295.5" y="-100.5" font-family="Helvetica,sans-Serif" font-size="10.00">include/rel/d/a/d_a</text>
<text text-anchor="middle" x="1338" y="-89.5" font-family="Helvetica,sans-Serif" font-size="10.00">_econt/d_a_econt.h</text>
</a>
</g>
</g>
<!-- Node7&#45;&gt;Node27 -->
<g id="edge17" class="edge">
<title>Node7&#45;&gt;Node27</title>
<path fill="none" stroke="#63b8ff" d="M2028.26,-168.6C1900.95,-168.42 1625.32,-162.36 1398,-118 1391.44,-116.72 1384.6,-114.94 1377.99,-112.98"/>
<polygon fill="#63b8ff" stroke="#63b8ff" points="2028.23,-172.1 2038.23,-168.6 2028.23,-165.1 2028.23,-172.1"/>
</g>
<!-- Node28 -->
<g id="node19" class="node">
<title>Node28</title>
<g id="a_node19"><a xlink:href="d__a__guard__mng_8h.html" target="_top" xlink:title=" ">
<polygon fill="white" stroke="#666666" points="1555.5,-112.5 1406.5,-112.5 1406.5,-82.5 1555.5,-82.5 1555.5,-112.5"/>
<text text-anchor="start" x="1414.5" y="-100.5" font-family="Helvetica,sans-Serif" font-size="10.00">include/rel/d/a/d_a</text>
<text text-anchor="middle" x="1481" y="-89.5" font-family="Helvetica,sans-Serif" font-size="10.00">_guard_mng/d_a_guard_mng.h</text>
</a>
</g>
</g>
<!-- Node7&#45;&gt;Node28 -->
<g id="edge18" class="edge">
<title>Node7&#45;&gt;Node28</title>
<path fill="none" stroke="#63b8ff" d="M2028.37,-164.42C1925.79,-158.54 1729.84,-144.72 1565,-118 1556.43,-116.61 1547.43,-114.85 1538.64,-112.96"/>
<polygon fill="#63b8ff" stroke="#63b8ff" points="2028.11,-167.91 2038.29,-164.98 2028.5,-160.93 2028.11,-167.91"/>
</g>
<!-- Node29 -->
<g id="node20" class="node">
<title>Node29</title>
<g id="a_node20"><a xlink:href="d__a__hitobj_8h.html" target="_top" xlink:title=" ">
<polygon fill="white" stroke="#666666" points="1674,-112.5 1574,-112.5 1574,-82.5 1674,-82.5 1674,-112.5"/>
<text text-anchor="start" x="1582" y="-100.5" font-family="Helvetica,sans-Serif" font-size="10.00">include/rel/d/a/d_a</text>
<text text-anchor="middle" x="1624" y="-89.5" font-family="Helvetica,sans-Serif" font-size="10.00">_hitobj/d_a_hitobj.h</text>
</a>
</g>
</g>
<!-- Node7&#45;&gt;Node29 -->
<g id="edge19" class="edge">
<title>Node7&#45;&gt;Node29</title>
<path fill="none" stroke="#63b8ff" d="M2028.3,-163.68C1945.14,-157.64 1803.29,-144.31 1684,-118 1677.8,-116.63 1671.32,-114.88 1665.02,-113"/>
<polygon fill="#63b8ff" stroke="#63b8ff" points="2027.9,-167.16 2038.12,-164.38 2028.4,-160.18 2027.9,-167.16"/>
</g>
<!-- Node30 -->
<g id="node21" class="node">
<title>Node30</title>
<g id="a_node21"><a xlink:href="d__a__scene__exit_8h.html" target="_top" xlink:title=" ">
<polygon fill="#fff0f0" stroke="red" points="1811.5,-118 1692.5,-118 1692.5,-77 1811.5,-77 1811.5,-118"/>
<text text-anchor="start" x="1700.5" y="-106" font-family="Helvetica,sans-Serif" font-size="10.00">include/rel/d/a/d_a</text>
<text text-anchor="start" x="1700.5" y="-95" font-family="Helvetica,sans-Serif" font-size="10.00">_scene_exit/d_a_scene</text>
<text text-anchor="middle" x="1752" y="-84" font-family="Helvetica,sans-Serif" font-size="10.00">_exit.h</text>
</a>
</g>
</g>
<!-- Node7&#45;&gt;Node30 -->
<g id="edge20" class="edge">
<title>Node7&#45;&gt;Node30</title>
<path fill="none" stroke="#63b8ff" d="M2028.25,-157.23C1971.83,-148.17 1890.96,-134.14 1821,-118 1817.97,-117.3 1814.87,-116.55 1811.75,-115.77"/>
<polygon fill="#63b8ff" stroke="#63b8ff" points="2027.63,-160.67 2038.05,-158.79 2028.73,-153.76 2027.63,-160.67"/>
</g>
<!-- Node31 -->
<g id="node22" class="node">
<title>Node31</title>
<g id="a_node22"><a xlink:href="d__a__suspend_8h.html" target="_top" xlink:title=" ">
<polygon fill="#fff0f0" stroke="red" points="1956.5,-112.5 1829.5,-112.5 1829.5,-82.5 1956.5,-82.5 1956.5,-112.5"/>
<text text-anchor="start" x="1837.5" y="-100.5" font-family="Helvetica,sans-Serif" font-size="10.00">include/rel/d/a/d_a</text>
<text text-anchor="middle" x="1893" y="-89.5" font-family="Helvetica,sans-Serif" font-size="10.00">_suspend/d_a_suspend.h</text>
</a>
</g>
</g>
<!-- Node7&#45;&gt;Node31 -->
<g id="edge21" class="edge">
<title>Node7&#45;&gt;Node31</title>
<path fill="none" stroke="#63b8ff" d="M2045.35,-149.9C2011.24,-138.39 1967.68,-123.69 1935.88,-112.97"/>
<polygon fill="#63b8ff" stroke="#63b8ff" points="2044.04,-153.15 2054.63,-153.03 2046.28,-146.52 2044.04,-153.15"/>
</g>
<!-- Node35 -->
<g id="node23" class="node">
<title>Node35</title>
<g id="a_node23"><a xlink:href="d__a__swTime_8h.html" target="_top" xlink:title=" ">
<polygon fill="white" stroke="#666666" points="2097,-112.5 1975,-112.5 1975,-82.5 2097,-82.5 2097,-112.5"/>
<text text-anchor="start" x="1983" y="-100.5" font-family="Helvetica,sans-Serif" font-size="10.00">include/rel/d/a/d_a</text>
<text text-anchor="middle" x="2036" y="-89.5" font-family="Helvetica,sans-Serif" font-size="10.00">_swTime/d_a_swTime.h</text>
</a>
</g>
</g>
<!-- Node7&#45;&gt;Node35 -->
<g id="edge22" class="edge">
<title>Node7&#45;&gt;Node35</title>
<path fill="none" stroke="#63b8ff" d="M2078.3,-145.17C2068.66,-134.53 2057.48,-122.2 2049.04,-112.88"/>
<polygon fill="#63b8ff" stroke="#63b8ff" points="2075.62,-147.42 2084.93,-152.48 2080.81,-142.72 2075.62,-147.42"/>
</g>
<!-- Node36 -->
<g id="node24" class="node">
<title>Node36</title>
<g id="a_node24"><a xlink:href="d__a__talk_8h.html" target="_top" xlink:title=" ">
<polygon fill="white" stroke="#666666" points="2211,-112.5 2115,-112.5 2115,-82.5 2211,-82.5 2211,-112.5"/>
<text text-anchor="start" x="2123" y="-100.5" font-family="Helvetica,sans-Serif" font-size="10.00">include/rel/d/a/d_a</text>
<text text-anchor="middle" x="2163" y="-89.5" font-family="Helvetica,sans-Serif" font-size="10.00">_talk/d_a_talk.h</text>
</a>
</g>
</g>
<!-- Node7&#45;&gt;Node36 -->
<g id="edge23" class="edge">
<title>Node7&#45;&gt;Node36</title>
<path fill="none" stroke="#63b8ff" d="M2120.03,-145.17C2129.82,-134.53 2141.18,-122.2 2149.76,-112.88"/>
<polygon fill="#63b8ff" stroke="#63b8ff" points="2117.49,-142.76 2113.29,-152.49 2122.63,-147.5 2117.49,-142.76"/>
</g>
<!-- Node37 -->
<g id="node25" class="node">
<title>Node37</title>
<g id="a_node25"><a xlink:href="d__a__tboxSw_8h.html" target="_top" xlink:title=" ">
<polygon fill="white" stroke="#666666" points="2347,-112.5 2229,-112.5 2229,-82.5 2347,-82.5 2347,-112.5"/>
<text text-anchor="start" x="2237" y="-100.5" font-family="Helvetica,sans-Serif" font-size="10.00">include/rel/d/a/d_a</text>
<text text-anchor="middle" x="2288" y="-89.5" font-family="Helvetica,sans-Serif" font-size="10.00">_tboxSw/d_a_tboxSw.h</text>
</a>
</g>
</g>
<!-- Node7&#45;&gt;Node37 -->
<g id="edge24" class="edge">
<title>Node7&#45;&gt;Node37</title>
<path fill="none" stroke="#63b8ff" d="M2148.84,-149.67C2180.12,-138.17 2219.89,-123.55 2248.89,-112.88"/>
<polygon fill="#63b8ff" stroke="#63b8ff" points="2147.76,-146.34 2139.58,-153.08 2150.17,-152.91 2147.76,-146.34"/>
</g>
<!-- Node38 -->
<g id="node26" class="node">
<title>Node38</title>
<g id="a_node26"><a xlink:href="d__a__e__db__leaf_8h.html" target="_top" xlink:title=" ">
<polygon fill="white" stroke="#666666" points="2484.5,-118 2365.5,-118 2365.5,-77 2484.5,-77 2484.5,-118"/>
<text text-anchor="start" x="2373.5" y="-106" font-family="Helvetica,sans-Serif" font-size="10.00">include/rel/d/a/e/d</text>
<text text-anchor="start" x="2373.5" y="-95" font-family="Helvetica,sans-Serif" font-size="10.00">_a_e_db_leaf/d_a_e_db</text>
<text text-anchor="middle" x="2425" y="-84" font-family="Helvetica,sans-Serif" font-size="10.00">_leaf.h</text>
</a>
</g>
</g>
<!-- Node7&#45;&gt;Node38 -->
<g id="edge25" class="edge">
<title>Node7&#45;&gt;Node38</title>
<path fill="none" stroke="#63b8ff" d="M2169.32,-155.95C2221.17,-146.67 2293.28,-132.94 2356,-118 2359.03,-117.28 2362.12,-116.51 2365.24,-115.72"/>
<polygon fill="#63b8ff" stroke="#63b8ff" points="2168.97,-152.46 2159.74,-157.65 2170.2,-159.35 2168.97,-152.46"/>
</g>
<!-- Node39 -->
<g id="node27" class="node">
<title>Node39</title>
<g id="a_node27"><a xlink:href="d__a__e__ge_8h.html" target="_top" xlink:title=" ">
<polygon fill="#fff0f0" stroke="red" points="2609,-112.5 2503,-112.5 2503,-82.5 2609,-82.5 2609,-112.5"/>
<text text-anchor="start" x="2511" y="-100.5" font-family="Helvetica,sans-Serif" font-size="10.00">include/rel/d/a/e/d</text>
<text text-anchor="middle" x="2556" y="-89.5" font-family="Helvetica,sans-Serif" font-size="10.00">_a_e_ge/d_a_e_ge.h</text>
</a>
</g>
</g>
<!-- Node7&#45;&gt;Node39 -->
<g id="edge26" class="edge">
<title>Node7&#45;&gt;Node39</title>
<path fill="none" stroke="#63b8ff" d="M2169.8,-162.88C2249.35,-156.24 2382.01,-142.49 2494,-118 2500.39,-116.6 2507.07,-114.84 2513.58,-112.94"/>
<polygon fill="#63b8ff" stroke="#63b8ff" points="2169.64,-159.38 2159.96,-163.68 2170.21,-166.35 2169.64,-159.38"/>
</g>
<!-- Node41 -->
<g id="node28" class="node">
<title>Node41</title>
<g id="a_node28"><a xlink:href="d__a__e__yk_8h.html" target="_top" xlink:title=" ">
<polygon fill="white" stroke="#666666" points="2731,-112.5 2627,-112.5 2627,-82.5 2731,-82.5 2731,-112.5"/>
<text text-anchor="start" x="2635" y="-100.5" font-family="Helvetica,sans-Serif" font-size="10.00">include/rel/d/a/e/d</text>
<text text-anchor="middle" x="2679" y="-89.5" font-family="Helvetica,sans-Serif" font-size="10.00">_a_e_yk/d_a_e_yk.h</text>
</a>
</g>
</g>
<!-- Node7&#45;&gt;Node41 -->
<g id="edge27" class="edge">
<title>Node7&#45;&gt;Node41</title>
<path fill="none" stroke="#63b8ff" d="M2169.59,-165.96C2270.11,-161.99 2459.84,-150.51 2618,-118 2624.53,-116.66 2631.36,-114.87 2637.97,-112.93"/>
<polygon fill="#63b8ff" stroke="#63b8ff" points="2169.75,-162.46 2159.89,-166.33 2170.01,-169.45 2169.75,-162.46"/>
</g>
<!-- Node42 -->
<g id="node29" class="node">
<title>Node42</title>
<g id="a_node29"><a xlink:href="d__a__kytag06_8h.html" target="_top" xlink:title=" ">
<polygon fill="white" stroke="#666666" points="2889,-112.5 2749,-112.5 2749,-82.5 2889,-82.5 2889,-112.5"/>
<text text-anchor="start" x="2757" y="-100.5" font-family="Helvetica,sans-Serif" font-size="10.00">include/rel/d/a/kytag</text>
<text text-anchor="middle" x="2819" y="-89.5" font-family="Helvetica,sans-Serif" font-size="10.00">/d_a_kytag06/d_a_kytag06.h</text>
</a>
</g>
</g>
<!-- Node7&#45;&gt;Node42 -->
<g id="edge28" class="edge">
<title>Node7&#45;&gt;Node42</title>
<path fill="none" stroke="#63b8ff" d="M2169.56,-166.28C2288.11,-162.54 2534.44,-151.16 2740,-118 2748.37,-116.65 2757.15,-114.86 2765.7,-112.92"/>
<polygon fill="#63b8ff" stroke="#63b8ff" points="2169.55,-162.78 2159.67,-166.58 2169.77,-169.77 2169.55,-162.78"/>
</g>
<!-- Node43 -->
<g id="node30" class="node">
<title>Node43</title>
<g id="a_node30"><a xlink:href="d__a__kytag07_8h.html" target="_top" xlink:title=" ">
<polygon fill="white" stroke="#666666" points="3047,-112.5 2907,-112.5 2907,-82.5 3047,-82.5 3047,-112.5"/>
<text text-anchor="start" x="2915" y="-100.5" font-family="Helvetica,sans-Serif" font-size="10.00">include/rel/d/a/kytag</text>
<text text-anchor="middle" x="2977" y="-89.5" font-family="Helvetica,sans-Serif" font-size="10.00">/d_a_kytag07/d_a_kytag07.h</text>
</a>
</g>
</g>
<!-- Node7&#45;&gt;Node43 -->
<g id="edge29" class="edge">
<title>Node7&#45;&gt;Node43</title>
<path fill="none" stroke="#63b8ff" d="M2169.64,-167.82C2309.51,-166.53 2631.26,-158.93 2898,-118 2906.52,-116.69 2915.46,-114.9 2924.15,-112.93"/>
<polygon fill="#63b8ff" stroke="#63b8ff" points="2169.76,-164.32 2159.79,-167.9 2169.82,-171.32 2169.76,-164.32"/>
</g>
<!-- Node44 -->
<g id="node31" class="node">
<title>Node44</title>
<g id="a_node31"><a xlink:href="d__a__kytag17_8h.html" target="_top" xlink:title=" ">
<polygon fill="white" stroke="#666666" points="3205,-112.5 3065,-112.5 3065,-82.5 3205,-82.5 3205,-112.5"/>
<text text-anchor="start" x="3073" y="-100.5" font-family="Helvetica,sans-Serif" font-size="10.00">include/rel/d/a/kytag</text>
<text text-anchor="middle" x="3135" y="-89.5" font-family="Helvetica,sans-Serif" font-size="10.00">/d_a_kytag17/d_a_kytag17.h</text>
</a>
</g>
</g>
<!-- Node7&#45;&gt;Node44 -->
<g id="edge30" class="edge">
<title>Node7&#45;&gt;Node44</title>
<path fill="none" stroke="#63b8ff" d="M2169.6,-166.05C2360.66,-160.5 2884.94,-143.35 3056,-118 3064.66,-116.72 3073.77,-114.91 3082.58,-112.91"/>
<polygon fill="#63b8ff" stroke="#63b8ff" points="2169.72,-162.55 2159.83,-166.33 2169.92,-169.54 2169.72,-162.55"/>
</g>
<!-- Node45 -->
<g id="node32" class="node">
<title>Node45</title>
<g id="a_node32"><a xlink:href="d__a__npc__theB_8h.html" target="_top" xlink:title=" ">
<polygon fill="white" stroke="#666666" points="3345,-118 3223,-118 3223,-77 3345,-77 3345,-118"/>
<text text-anchor="start" x="3231" y="-106" font-family="Helvetica,sans-Serif" font-size="10.00">include/rel/d/a/npc</text>
<text text-anchor="start" x="3231" y="-95" font-family="Helvetica,sans-Serif" font-size="10.00">/d_a_npc_theB/d_a_npc</text>
<text text-anchor="middle" x="3284" y="-84" font-family="Helvetica,sans-Serif" font-size="10.00">_theB.h</text>
</a>
</g>
</g>
<!-- Node7&#45;&gt;Node45 -->
<g id="edge31" class="edge">
<title>Node7&#45;&gt;Node45</title>
<path fill="none" stroke="#63b8ff" d="M2169.7,-166.93C2381.96,-163.37 3011.55,-150.31 3214,-118 3216.87,-117.54 3219.78,-117.01 3222.71,-116.42"/>
<polygon fill="#63b8ff" stroke="#63b8ff" points="2169.86,-163.42 2159.92,-167.09 2169.98,-170.42 2169.86,-163.42"/>
</g>
<!-- Node8&#45;&gt;Node16 -->
<g id="edge8" class="edge">
<title>Node8&#45;&gt;Node16</title>
<path fill="none" stroke="#63b8ff" d="M3597.52,-80.35C3615.05,-65.06 3640.72,-42.67 3654.81,-30.39"/>
<polygon fill="#63b8ff" stroke="#63b8ff" points="3595.58,-77.4 3590.34,-86.61 3600.18,-82.67 3595.58,-77.4"/>
</g>
<!-- Node19&#45;&gt;Node20 -->
<g id="edge11" class="edge">
<title>Node19&#45;&gt;Node20</title>
<path fill="none" stroke="#63b8ff" d="M598.43,-83.86C606.97,-81.12 616.23,-78.58 625,-77 876.4,-31.84 1679.49,-23.33 1907.88,-21.81"/>
<polygon fill="#63b8ff" stroke="#63b8ff" points="597.48,-80.48 589.14,-87.01 599.73,-87.11 597.48,-80.48"/>
</g>
<!-- Node113&#45;&gt;Node115 -->
<g id="edge35" class="edge">
<title>Node113&#45;&gt;Node115</title>
<path fill="none" stroke="#63b8ff" d="M226.21,-147.01C208.67,-133.75 186.9,-117.31 173.75,-107.38"/>
<polygon fill="#63b8ff" stroke="#63b8ff" points="223.64,-149.45 233.73,-152.69 227.86,-143.87 223.64,-149.45"/>
</g>
<!-- Node117&#45;&gt;Node121 -->
<g id="edge37" class="edge">
<title>Node117&#45;&gt;Node121</title>
<path fill="none" stroke="#63b8ff" d="M397.32,-148.46C371.32,-134.97 337.98,-117.68 318.12,-107.38"/>
<polygon fill="#63b8ff" stroke="#63b8ff" points="395.4,-151.41 405.89,-152.9 398.63,-145.19 395.4,-151.41"/>
</g>
<!-- Node117&#45;&gt;Node122 -->
<g id="edge38" class="edge">
<title>Node117&#45;&gt;Node122</title>
<path fill="none" stroke="#63b8ff" d="M435.37,-142.46C435.55,-130.07 435.75,-115.99 435.88,-107.18"/>
<polygon fill="#63b8ff" stroke="#63b8ff" points="431.87,-142.04 435.23,-152.09 438.87,-142.14 431.87,-142.04"/>
</g>
</g>
</svg>
