<?xml version="1.0" encoding="UTF-8" standalone="no"?>
<!DOCTYPE svg PUBLIC "-//W3C//DTD SVG 1.1//EN"
 "http://www.w3.org/Graphics/SVG/1.1/DTD/svg11.dtd">
<!-- Generated by graphviz version 7.0.5 (20221223.1930)
 -->
<!-- Title: include/JSystem/JStudio/JStudio/functionvalue.h Pages: 1 -->
<svg width="4101pt" height="445pt"
 viewBox="0.00 0.00 4101.00 445.00" xmlns="http://www.w3.org/2000/svg" xmlns:xlink="http://www.w3.org/1999/xlink">
<g id="graph0" class="graph" transform="scale(1 1) rotate(0) translate(4 441)">
<title>include/JSystem/JStudio/JStudio/functionvalue.h</title>
<!-- Node1 -->
<g id="node1" class="node">
<title>Node1</title>
<g id="a_node1"><a xlink:title=" ">
<polygon fill="#999999" stroke="#666666" points="3308,-437 3183,-437 3183,-407 3308,-407 3308,-437"/>
<text text-anchor="start" x="3191" y="-425" font-family="Helvetica,sans-Serif" font-size="10.00">include/JSystem/JStudio</text>
<text text-anchor="middle" x="3245.5" y="-414" font-family="Helvetica,sans-Serif" font-size="10.00">/JStudio/functionvalue.h</text>
</a>
</g>
</g>
<!-- Node2 -->
<g id="node2" class="node">
<title>Node2</title>
<g id="a_node2"><a xlink:href="fvb-data_8h.html" target="_top" xlink:title=" ">
<polygon fill="white" stroke="#666666" points="3171,-365.5 3046,-365.5 3046,-335.5 3171,-335.5 3171,-365.5"/>
<text text-anchor="start" x="3054" y="-353.5" font-family="Helvetica,sans-Serif" font-size="10.00">include/JSystem/JStudio</text>
<text text-anchor="middle" x="3108.5" y="-342.5" font-family="Helvetica,sans-Serif" font-size="10.00">/JStudio/fvb&#45;data.h</text>
</a>
</g>
</g>
<!-- Node1&#45;&gt;Node2 -->
<g id="edge1" class="edge">
<title>Node1&#45;&gt;Node2</title>
<path fill="none" stroke="#63b8ff" d="M3206.97,-401.46C3184.69,-390.15 3157.14,-376.17 3136.85,-365.88"/>
<polygon fill="#63b8ff" stroke="#63b8ff" points="3205.26,-404.51 3215.76,-405.91 3208.43,-398.27 3205.26,-404.51"/>
</g>
<!-- Node91 -->
<g id="node49" class="node">
<title>Node91</title>
<g id="a_node49"><a xlink:href="functionvalue-inline_8cpp.html" target="_top" xlink:title=" ">
<polygon fill="white" stroke="#666666" points="3302,-371 3189,-371 3189,-330 3302,-330 3302,-371"/>
<text text-anchor="start" x="3197" y="-359" font-family="Helvetica,sans-Serif" font-size="10.00">libs/JSystem/JStudio</text>
<text text-anchor="start" x="3197" y="-348" font-family="Helvetica,sans-Serif" font-size="10.00">/JStudio/functionvalue</text>
<text text-anchor="middle" x="3245.5" y="-337" font-family="Helvetica,sans-Serif" font-size="10.00">&#45;inline.cpp</text>
</a>
</g>
</g>
<!-- Node1&#45;&gt;Node91 -->
<g id="edge60" class="edge">
<title>Node1&#45;&gt;Node91</title>
<path fill="none" stroke="#63b8ff" d="M3245.5,-395.36C3245.5,-387.45 3245.5,-378.87 3245.5,-371.42"/>
<polygon fill="#63b8ff" stroke="#63b8ff" points="3242,-395.09 3245.5,-405.09 3249,-395.09 3242,-395.09"/>
</g>
<!-- Node92 -->
<g id="node50" class="node">
<title>Node92</title>
<g id="a_node50"><a xlink:href="functionvalue_8cpp.html" target="_top" xlink:title=" ">
<polygon fill="white" stroke="#666666" points="3451,-365.5 3320,-365.5 3320,-335.5 3451,-335.5 3451,-365.5"/>
<text text-anchor="start" x="3328" y="-353.5" font-family="Helvetica,sans-Serif" font-size="10.00">libs/JSystem/JStudio</text>
<text text-anchor="middle" x="3385.5" y="-342.5" font-family="Helvetica,sans-Serif" font-size="10.00">/JStudio/functionvalue.cpp</text>
</a>
</g>
</g>
<!-- Node1&#45;&gt;Node92 -->
<g id="edge61" class="edge">
<title>Node1&#45;&gt;Node92</title>
<path fill="none" stroke="#63b8ff" d="M3284.56,-401.61C3307.38,-390.28 3335.7,-376.22 3356.53,-365.88"/>
<polygon fill="#63b8ff" stroke="#63b8ff" points="3283.26,-398.35 3275.86,-405.93 3286.38,-404.61 3283.26,-398.35"/>
</g>
<!-- Node3 -->
<g id="node3" class="node">
<title>Node3</title>
<g id="a_node3"><a xlink:href="resource_8h.html" target="_top" xlink:title=" ">
<polygon fill="white" stroke="#666666" points="2290,-294 2153,-294 2153,-264 2290,-264 2290,-294"/>
<text text-anchor="start" x="2161" y="-282" font-family="Helvetica,sans-Serif" font-size="10.00">include/JSystem/JMessage</text>
<text text-anchor="middle" x="2221.5" y="-271" font-family="Helvetica,sans-Serif" font-size="10.00">/resource.h</text>
</a>
</g>
</g>
<!-- Node2&#45;&gt;Node3 -->
<g id="edge2" class="edge">
<title>Node2&#45;&gt;Node3</title>
<path fill="none" stroke="#63b8ff" d="M3034.53,-343.7C2865.74,-330.48 2454.16,-298.23 2290.38,-285.4"/>
<polygon fill="#63b8ff" stroke="#63b8ff" points="3034.02,-347.18 3044.27,-344.47 3034.57,-340.2 3034.02,-347.18"/>
</g>
<!-- Node56 -->
<g id="node41" class="node">
<title>Node56</title>
<g id="a_node41"><a xlink:href="fvb-data-parse_8h.html" target="_top" xlink:title=" ">
<polygon fill="white" stroke="#666666" points="3171,-294 3046,-294 3046,-264 3171,-264 3171,-294"/>
<text text-anchor="start" x="3054" y="-282" font-family="Helvetica,sans-Serif" font-size="10.00">include/JSystem/JStudio</text>
<text text-anchor="middle" x="3108.5" y="-271" font-family="Helvetica,sans-Serif" font-size="10.00">/JStudio/fvb&#45;data&#45;parse.h</text>
</a>
</g>
</g>
<!-- Node2&#45;&gt;Node56 -->
<g id="edge52" class="edge">
<title>Node2&#45;&gt;Node56</title>
<path fill="none" stroke="#63b8ff" d="M3108.5,-323.76C3108.5,-313.83 3108.5,-302.86 3108.5,-294.38"/>
<polygon fill="#63b8ff" stroke="#63b8ff" points="3105,-323.59 3108.5,-333.59 3112,-323.59 3105,-323.59"/>
</g>
<!-- Node90 -->
<g id="node48" class="node">
<title>Node90</title>
<g id="a_node48"><a xlink:href="fvb-data_8cpp.html" target="_top" xlink:title=" ">
<polygon fill="white" stroke="#666666" points="3298,-294 3189,-294 3189,-264 3298,-264 3298,-294"/>
<text text-anchor="start" x="3197" y="-282" font-family="Helvetica,sans-Serif" font-size="10.00">libs/JSystem/JStudio</text>
<text text-anchor="middle" x="3243.5" y="-271" font-family="Helvetica,sans-Serif" font-size="10.00">/JStudio/fvb&#45;data.cpp</text>
</a>
</g>
</g>
<!-- Node2&#45;&gt;Node90 -->
<g id="edge59" class="edge">
<title>Node2&#45;&gt;Node90</title>
<path fill="none" stroke="#63b8ff" d="M3146.46,-329.96C3168.42,-318.65 3195.57,-304.67 3215.56,-294.38"/>
<polygon fill="#63b8ff" stroke="#63b8ff" points="3145.11,-326.72 3137.82,-334.41 3148.31,-332.94 3145.11,-326.72"/>
</g>
<!-- Node4 -->
<g id="node4" class="node">
<title>Node4</title>
<g id="a_node4"><a xlink:href="processor_8h.html" target="_top" xlink:title=" ">
<polygon fill="white" stroke="#666666" points="2363,-228 2226,-228 2226,-198 2363,-198 2363,-228"/>
<text text-anchor="start" x="2234" y="-216" font-family="Helvetica,sans-Serif" font-size="10.00">include/JSystem/JMessage</text>
<text text-anchor="middle" x="2294.5" y="-205" font-family="Helvetica,sans-Serif" font-size="10.00">/processor.h</text>
</a>
</g>
</g>
<!-- Node3&#45;&gt;Node4 -->
<g id="edge3" class="edge">
<title>Node3&#45;&gt;Node4</title>
<path fill="none" stroke="#63b8ff" d="M2246.11,-256.42C2256.65,-247.18 2268.67,-236.65 2278.09,-228.39"/>
<polygon fill="#63b8ff" stroke="#63b8ff" points="2244.05,-253.57 2238.84,-262.8 2248.67,-258.84 2244.05,-253.57"/>
</g>
<!-- Node43 -->
<g id="node29" class="node">
<title>Node43</title>
<g id="a_node29"><a xlink:href="d__msg__string__base_8h.html" target="_top" xlink:title=" ">
<polygon fill="white" stroke="#666666" points="2113.5,-162 2003.5,-162 2003.5,-132 2113.5,-132 2113.5,-162"/>
<text text-anchor="start" x="2011.5" y="-150" font-family="Helvetica,sans-Serif" font-size="10.00">include/d/msg/d_msg</text>
<text text-anchor="middle" x="2058.5" y="-139" font-family="Helvetica,sans-Serif" font-size="10.00">_string_base.h</text>
</a>
</g>
</g>
<!-- Node3&#45;&gt;Node43 -->
<g id="edge33" class="edge">
<title>Node3&#45;&gt;Node43</title>
<path fill="none" stroke="#63b8ff" d="M2141.92,-265.57C2118.29,-258.23 2094.27,-246.56 2077.5,-228 2061.04,-209.78 2058.12,-179.93 2057.98,-162.3"/>
<polygon fill="#63b8ff" stroke="#63b8ff" points="2140.69,-268.86 2151.26,-268.23 2142.6,-262.12 2140.69,-268.86"/>
</g>
<!-- Node55 -->
<g id="node40" class="node">
<title>Node55</title>
<g id="a_node40"><a xlink:href="resource_8cpp.html" target="_top" xlink:title=" ">
<polygon fill="white" stroke="#666666" points="2208,-228 2087,-228 2087,-198 2208,-198 2208,-228"/>
<text text-anchor="start" x="2095" y="-216" font-family="Helvetica,sans-Serif" font-size="10.00">libs/JSystem/JMessage</text>
<text text-anchor="middle" x="2147.5" y="-205" font-family="Helvetica,sans-Serif" font-size="10.00">/resource.cpp</text>
</a>
</g>
</g>
<!-- Node3&#45;&gt;Node55 -->
<g id="edge51" class="edge">
<title>Node3&#45;&gt;Node55</title>
<path fill="none" stroke="#63b8ff" d="M2196.55,-256.42C2185.87,-247.18 2173.69,-236.65 2164.13,-228.39"/>
<polygon fill="#63b8ff" stroke="#63b8ff" points="2194.08,-258.91 2203.93,-262.81 2198.66,-253.62 2194.08,-258.91"/>
</g>
<!-- Node5 -->
<g id="node5" class="node">
<title>Node5</title>
<g id="a_node5"><a xlink:href="JMessage_2control_8h.html" target="_top" xlink:title=" ">
<polygon fill="white" stroke="#666666" points="2363,-162 2226,-162 2226,-132 2363,-132 2363,-162"/>
<text text-anchor="start" x="2234" y="-150" font-family="Helvetica,sans-Serif" font-size="10.00">include/JSystem/JMessage</text>
<text text-anchor="middle" x="2294.5" y="-139" font-family="Helvetica,sans-Serif" font-size="10.00">/control.h</text>
</a>
</g>
</g>
<!-- Node4&#45;&gt;Node5 -->
<g id="edge4" class="edge">
<title>Node4&#45;&gt;Node5</title>
<path fill="none" stroke="#63b8ff" d="M2294.5,-186.39C2294.5,-178.13 2294.5,-169.28 2294.5,-162.16"/>
<polygon fill="#63b8ff" stroke="#63b8ff" points="2291,-186.28 2294.5,-196.28 2298,-186.28 2291,-186.28"/>
</g>
<!-- Node42 -->
<g id="node28" class="node">
<title>Node42</title>
<g id="a_node28"><a xlink:href="processor_8cpp.html" target="_top" xlink:title=" ">
<polygon fill="white" stroke="#666666" points="2218,-96 2097,-96 2097,-66 2218,-66 2218,-96"/>
<text text-anchor="start" x="2105" y="-84" font-family="Helvetica,sans-Serif" font-size="10.00">libs/JSystem/JMessage</text>
<text text-anchor="middle" x="2157.5" y="-73" font-family="Helvetica,sans-Serif" font-size="10.00">/processor.cpp</text>
</a>
</g>
</g>
<!-- Node4&#45;&gt;Node42 -->
<g id="edge32" class="edge">
<title>Node4&#45;&gt;Node42</title>
<path fill="none" stroke="#63b8ff" d="M2257.18,-191.91C2243.58,-183.63 2228.59,-173.33 2216.5,-162 2195.09,-141.94 2176.1,-113.25 2165.75,-96.23"/>
<polygon fill="#63b8ff" stroke="#63b8ff" points="2255.07,-194.73 2265.47,-196.79 2258.63,-188.7 2255.07,-194.73"/>
</g>
<!-- Node6 -->
<g id="node6" class="node">
<title>Node6</title>
<g id="a_node6"><a xlink:href="d__msg__class_8h.html" target="_top" xlink:title=" ">
<polygon fill="white" stroke="#666666" points="2346.5,-96 2236.5,-96 2236.5,-66 2346.5,-66 2346.5,-96"/>
<text text-anchor="start" x="2244.5" y="-84" font-family="Helvetica,sans-Serif" font-size="10.00">include/d/msg/d_msg</text>
<text text-anchor="middle" x="2291.5" y="-73" font-family="Helvetica,sans-Serif" font-size="10.00">_class.h</text>
</a>
</g>
</g>
<!-- Node5&#45;&gt;Node6 -->
<g id="edge5" class="edge">
<title>Node5&#45;&gt;Node6</title>
<path fill="none" stroke="#63b8ff" d="M2293.3,-120.39C2292.91,-112.13 2292.5,-103.28 2292.16,-96.16"/>
<polygon fill="#63b8ff" stroke="#63b8ff" points="2289.8,-120.46 2293.76,-130.28 2296.79,-120.13 2289.8,-120.46"/>
</g>
<!-- Node15 -->
<g id="node15" class="node">
<title>Node15</title>
<g id="a_node15"><a xlink:href="d__msg__object_8h.html" target="_top" xlink:title=" ">
<polygon fill="#fff0f0" stroke="red" points="3027.5,-96 2917.5,-96 2917.5,-66 3027.5,-66 3027.5,-96"/>
<text text-anchor="start" x="2925.5" y="-84" font-family="Helvetica,sans-Serif" font-size="10.00">include/d/msg/d_msg</text>
<text text-anchor="middle" x="2972.5" y="-73" font-family="Helvetica,sans-Serif" font-size="10.00">_object.h</text>
</a>
</g>
</g>
<!-- Node5&#45;&gt;Node15 -->
<g id="edge14" class="edge">
<title>Node5&#45;&gt;Node15</title>
<path fill="none" stroke="#63b8ff" d="M2374.64,-138.43C2513.97,-125.28 2797.38,-98.53 2917.12,-87.23"/>
<polygon fill="#63b8ff" stroke="#63b8ff" points="2374.38,-134.94 2364.75,-139.37 2375.03,-141.91 2374.38,-134.94"/>
</g>
<!-- Node41 -->
<g id="node27" class="node">
<title>Node41</title>
<g id="a_node27"><a xlink:href="JMessage_2control_8cpp.html" target="_top" xlink:title=" ">
<polygon fill="white" stroke="#666666" points="2486,-96 2365,-96 2365,-66 2486,-66 2486,-96"/>
<text text-anchor="start" x="2373" y="-84" font-family="Helvetica,sans-Serif" font-size="10.00">libs/JSystem/JMessage</text>
<text text-anchor="middle" x="2425.5" y="-73" font-family="Helvetica,sans-Serif" font-size="10.00">/control.cpp</text>
</a>
</g>
</g>
<!-- Node5&#45;&gt;Node41 -->
<g id="edge30" class="edge">
<title>Node5&#45;&gt;Node41</title>
<path fill="none" stroke="#63b8ff" d="M2334.23,-126.59C2354.19,-116.84 2377.93,-105.24 2396.2,-96.31"/>
<polygon fill="#63b8ff" stroke="#63b8ff" points="2332.71,-123.44 2325.26,-130.97 2335.78,-129.73 2332.71,-123.44"/>
</g>
<!-- Node5&#45;&gt;Node42 -->
<g id="edge31" class="edge">
<title>Node5&#45;&gt;Node42</title>
<path fill="none" stroke="#63b8ff" d="M2253.52,-126.86C2232.54,-117.05 2207.42,-105.32 2188.14,-96.31"/>
<polygon fill="#63b8ff" stroke="#63b8ff" points="2251.84,-129.94 2262.38,-131 2254.8,-123.59 2251.84,-129.94"/>
</g>
<!-- Node7 -->
<g id="node7" class="node">
<title>Node7</title>
<g id="a_node7"><a xlink:href="d__menu__collect_8cpp.html" target="_top" xlink:title=" ">
<polygon fill="white" stroke="#666666" points="2334,-24.5 2179,-24.5 2179,-5.5 2334,-5.5 2334,-24.5"/>
<text text-anchor="middle" x="2256.5" y="-12.5" font-family="Helvetica,sans-Serif" font-size="10.00">src/d/menu/d_menu_collect.cpp</text>
</a>
</g>
</g>
<!-- Node6&#45;&gt;Node7 -->
<g id="edge6" class="edge">
<title>Node6&#45;&gt;Node7</title>
<path fill="none" stroke="#63b8ff" d="M2278.34,-55.94C2272.39,-45.06 2265.72,-32.86 2261.34,-24.84"/>
<polygon fill="#63b8ff" stroke="#63b8ff" points="2275.14,-57.37 2283.01,-64.47 2281.28,-54.02 2275.14,-57.37"/>
</g>
<!-- Node8 -->
<g id="node8" class="node">
<title>Node8</title>
<g id="a_node8"><a xlink:href="d__menu__item__explain_8cpp.html" target="_top" xlink:title=" ">
<polygon fill="white" stroke="#666666" points="1560,-30 1433,-30 1433,0 1560,0 1560,-30"/>
<text text-anchor="start" x="1441" y="-18" font-family="Helvetica,sans-Serif" font-size="10.00">src/d/menu/d_menu_item</text>
<text text-anchor="middle" x="1496.5" y="-7" font-family="Helvetica,sans-Serif" font-size="10.00">_explain.cpp</text>
</a>
</g>
</g>
<!-- Node6&#45;&gt;Node8 -->
<g id="edge7" class="edge">
<title>Node6&#45;&gt;Node8</title>
<path fill="none" stroke="#63b8ff" d="M2224.98,-65.99C1934.67,-28.06 1856.08,-65.17 1569.5,-30 1566.43,-29.62 1563.29,-29.19 1560.12,-28.72"/>
<polygon fill="#63b8ff" stroke="#63b8ff" points="2224.41,-69.44 2234.79,-67.29 2225.33,-62.5 2224.41,-69.44"/>
</g>
<!-- Node9 -->
<g id="node9" class="node">
<title>Node9</title>
<g id="a_node9"><a xlink:href="d__menu__letter_8cpp.html" target="_top" xlink:title=" ">
<polygon fill="white" stroke="#666666" points="1726.5,-24.5 1578.5,-24.5 1578.5,-5.5 1726.5,-5.5 1726.5,-24.5"/>
<text text-anchor="middle" x="1652.5" y="-12.5" font-family="Helvetica,sans-Serif" font-size="10.00">src/d/menu/d_menu_letter.cpp</text>
</a>
</g>
</g>
<!-- Node6&#45;&gt;Node9 -->
<g id="edge8" class="edge">
<title>Node6&#45;&gt;Node9</title>
<path fill="none" stroke="#63b8ff" d="M2225.14,-65.98C2007.97,-35.58 1949.12,-55.79 1735.5,-30 1724.33,-28.65 1712.37,-26.85 1701.11,-24.98"/>
<polygon fill="#63b8ff" stroke="#63b8ff" points="2224.38,-69.4 2234.78,-67.35 2225.37,-62.47 2224.38,-69.4"/>
</g>
<!-- Node10 -->
<g id="node10" class="node">
<title>Node10</title>
<g id="a_node10"><a xlink:href="d__menu__option_8cpp.html" target="_top" xlink:title=" ">
<polygon fill="white" stroke="#666666" points="1896.5,-24.5 1744.5,-24.5 1744.5,-5.5 1896.5,-5.5 1896.5,-24.5"/>
<text text-anchor="middle" x="1820.5" y="-12.5" font-family="Helvetica,sans-Serif" font-size="10.00">src/d/menu/d_menu_option.cpp</text>
</a>
</g>
</g>
<!-- Node6&#45;&gt;Node10 -->
<g id="edge9" class="edge">
<title>Node6&#45;&gt;Node10</title>
<path fill="none" stroke="#63b8ff" d="M2224.94,-65.87C2082.86,-43.19 2044.1,-49.17 1905.5,-30 1894.69,-28.5 1883.13,-26.72 1872.13,-24.94"/>
<polygon fill="#63b8ff" stroke="#63b8ff" points="2224.33,-69.32 2234.76,-67.46 2225.45,-62.41 2224.33,-69.32"/>
</g>
<!-- Node11 -->
<g id="node11" class="node">
<title>Node11</title>
<g id="a_node11"><a xlink:href="d__meter2__draw_8cpp.html" target="_top" xlink:title=" ">
<polygon fill="white" stroke="#666666" points="2584.5,-30 2474.5,-30 2474.5,0 2584.5,0 2584.5,-30"/>
<text text-anchor="start" x="2482.5" y="-18" font-family="Helvetica,sans-Serif" font-size="10.00">src/d/meter/d_meter2</text>
<text text-anchor="middle" x="2529.5" y="-7" font-family="Helvetica,sans-Serif" font-size="10.00">_draw.cpp</text>
</a>
</g>
</g>
<!-- Node6&#45;&gt;Node11 -->
<g id="edge10" class="edge">
<title>Node6&#45;&gt;Node11</title>
<path fill="none" stroke="#63b8ff" d="M2356.05,-62.64C2393.64,-52.53 2440.46,-39.94 2475.99,-30.39"/>
<polygon fill="#63b8ff" stroke="#63b8ff" points="2355.42,-59.19 2346.67,-65.16 2357.24,-65.95 2355.42,-59.19"/>
</g>
<!-- Node12 -->
<g id="node12" class="node">
<title>Node12</title>
<g id="a_node12"><a xlink:href="d__msg__class_8cpp.html" target="_top" xlink:title=" ">
<polygon fill="white" stroke="#666666" points="2742,-24.5 2603,-24.5 2603,-5.5 2742,-5.5 2742,-24.5"/>
<text text-anchor="middle" x="2672.5" y="-12.5" font-family="Helvetica,sans-Serif" font-size="10.00">src/d/msg/d_msg_class.cpp</text>
</a>
</g>
</g>
<!-- Node6&#45;&gt;Node12 -->
<g id="edge11" class="edge">
<title>Node6&#45;&gt;Node12</title>
<path fill="none" stroke="#63b8ff" d="M2358.01,-65.61C2462.59,-46.59 2491.44,-46.76 2593.5,-30 2603.12,-28.42 2613.39,-26.66 2623.23,-24.93"/>
<polygon fill="#63b8ff" stroke="#63b8ff" points="2357.65,-62.11 2348.45,-67.36 2358.91,-69 2357.65,-62.11"/>
</g>
<!-- Node13 -->
<g id="node13" class="node">
<title>Node13</title>
<g id="a_node13"><a xlink:href="d__msg__object_8cpp.html" target="_top" xlink:title=" ">
<polygon fill="white" stroke="#666666" points="2902.5,-24.5 2760.5,-24.5 2760.5,-5.5 2902.5,-5.5 2902.5,-24.5"/>
<text text-anchor="middle" x="2831.5" y="-12.5" font-family="Helvetica,sans-Serif" font-size="10.00">src/d/msg/d_msg_object.cpp</text>
</a>
</g>
</g>
<!-- Node6&#45;&gt;Node13 -->
<g id="edge12" class="edge">
<title>Node6&#45;&gt;Node13</title>
<path fill="none" stroke="#63b8ff" d="M2358.26,-65.71C2531.71,-39.68 2579.4,-52.55 2750.5,-30 2761.25,-28.58 2772.76,-26.77 2783.63,-24.93"/>
<polygon fill="#63b8ff" stroke="#63b8ff" points="2357.78,-62.24 2348.42,-67.21 2358.83,-69.16 2357.78,-62.24"/>
</g>
<!-- Node14 -->
<g id="node14" class="node">
<title>Node14</title>
<g id="a_node14"><a xlink:href="d__msg__string__base_8cpp.html" target="_top" xlink:title=" ">
<polygon fill="white" stroke="#666666" points="2160.5,-30 2038.5,-30 2038.5,0 2160.5,0 2160.5,-30"/>
<text text-anchor="start" x="2046.5" y="-18" font-family="Helvetica,sans-Serif" font-size="10.00">src/d/msg/d_msg_string</text>
<text text-anchor="middle" x="2099.5" y="-7" font-family="Helvetica,sans-Serif" font-size="10.00">_base.cpp</text>
</a>
</g>
</g>
<!-- Node6&#45;&gt;Node14 -->
<g id="edge13" class="edge">
<title>Node6&#45;&gt;Node14</title>
<path fill="none" stroke="#63b8ff" d="M2237.7,-62.07C2207.72,-52.07 2170.88,-39.79 2142.78,-30.43"/>
<polygon fill="#63b8ff" stroke="#63b8ff" points="2236.38,-65.32 2246.98,-65.16 2238.6,-58.68 2236.38,-65.32"/>
</g>
<!-- Node15&#45;&gt;Node7 -->
<g id="edge22" class="edge">
<title>Node15&#45;&gt;Node7</title>
<path fill="none" stroke="#63b8ff" d="M2905.85,-76.46C2790.84,-69.97 2547.76,-54.51 2343.5,-30 2331.96,-28.61 2319.6,-26.82 2307.93,-24.98"/>
<polygon fill="#63b8ff" stroke="#63b8ff" points="2905.55,-79.95 2915.73,-77.02 2905.94,-72.96 2905.55,-79.95"/>
</g>
<!-- Node15&#45;&gt;Node11 -->
<g id="edge24" class="edge">
<title>Node15&#45;&gt;Node11</title>
<path fill="none" stroke="#63b8ff" d="M2905.77,-72.92C2829.86,-64.46 2702.32,-49.05 2593.5,-30 2590.7,-29.51 2587.83,-28.98 2584.95,-28.43"/>
<polygon fill="#63b8ff" stroke="#63b8ff" points="2905.21,-76.38 2915.54,-74 2905.98,-69.42 2905.21,-76.38"/>
</g>
<!-- Node15&#45;&gt;Node12 -->
<g id="edge27" class="edge">
<title>Node15&#45;&gt;Node12</title>
<path fill="none" stroke="#63b8ff" d="M2906.14,-65.84C2847.65,-53.37 2764.22,-35.57 2714.5,-24.96"/>
<polygon fill="#63b8ff" stroke="#63b8ff" points="2905.14,-69.21 2915.65,-67.87 2906.6,-62.36 2905.14,-69.21"/>
</g>
<!-- Node15&#45;&gt;Node13 -->
<g id="edge28" class="edge">
<title>Node15&#45;&gt;Node13</title>
<path fill="none" stroke="#63b8ff" d="M2930.43,-60.91C2904.23,-49.01 2871.73,-34.26 2851.3,-24.99"/>
<polygon fill="#63b8ff" stroke="#63b8ff" points="2928.93,-64.07 2939.48,-65.01 2931.82,-57.69 2928.93,-64.07"/>
</g>
<!-- Node16 -->
<g id="node16" class="node">
<title>Node16</title>
<g id="a_node16"><a xlink:href="d__timer_8h.html" target="_top" xlink:title=" ">
<polygon fill="#fff0f0" stroke="red" points="3965.5,-24.5 3867.5,-24.5 3867.5,-5.5 3965.5,-5.5 3965.5,-24.5"/>
<text text-anchor="middle" x="3916.5" y="-12.5" font-family="Helvetica,sans-Serif" font-size="10.00">include/d/d_timer.h</text>
</a>
</g>
</g>
<!-- Node15&#45;&gt;Node16 -->
<g id="edge15" class="edge">
<title>Node15&#45;&gt;Node16</title>
<path fill="none" stroke="#63b8ff" d="M3039.23,-65.81C3401.14,-20.02 3500.12,-80.62 3858.5,-30 3866.91,-28.81 3875.88,-26.95 3884.2,-24.96"/>
<polygon fill="#63b8ff" stroke="#63b8ff" points="3038.87,-62.33 3029.4,-67.08 3039.77,-69.27 3038.87,-62.33"/>
</g>
<!-- Node21 -->
<g id="node17" class="node">
<title>Node21</title>
<g id="a_node17"><a xlink:href="d__a__alink_8cpp.html" target="_top" xlink:title=" ">
<polygon fill="white" stroke="#666666" points="4093,-24.5 3984,-24.5 3984,-5.5 4093,-5.5 4093,-24.5"/>
<text text-anchor="middle" x="4038.5" y="-12.5" font-family="Helvetica,sans-Serif" font-size="10.00">src/d/a/d_a_alink.cpp</text>
</a>
</g>
</g>
<!-- Node15&#45;&gt;Node21 -->
<g id="edge16" class="edge">
<title>Node15&#45;&gt;Node21</title>
<path fill="none" stroke="#63b8ff" d="M3039.27,-65.82C3452.36,-14.46 3564.4,-82.31 3974.5,-30 3983.75,-28.82 3993.64,-26.96 4002.81,-24.98"/>
<polygon fill="#63b8ff" stroke="#63b8ff" points="3038.88,-62.34 3029.4,-67.06 3039.76,-69.28 3038.88,-62.34"/>
</g>
<!-- Node22 -->
<g id="node18" class="node">
<title>Node22</title>
<g id="a_node18"><a xlink:href="d__a__npc_8cpp.html" target="_top" xlink:title=" ">
<polygon fill="white" stroke="#666666" points="3024.5,-24.5 2920.5,-24.5 2920.5,-5.5 3024.5,-5.5 3024.5,-24.5"/>
<text text-anchor="middle" x="2972.5" y="-12.5" font-family="Helvetica,sans-Serif" font-size="10.00">src/d/a/d_a_npc.cpp</text>
</a>
</g>
</g>
<!-- Node15&#45;&gt;Node22 -->
<g id="edge17" class="edge">
<title>Node15&#45;&gt;Node22</title>
<path fill="none" stroke="#63b8ff" d="M2972.5,-54.59C2972.5,-44.06 2972.5,-32.53 2972.5,-24.84"/>
<polygon fill="#63b8ff" stroke="#63b8ff" points="2969,-54.28 2972.5,-64.28 2976,-54.28 2969,-54.28"/>
</g>
<!-- Node23 -->
<g id="node19" class="node">
<title>Node23</title>
<g id="a_node19"><a xlink:href="d__demo_8cpp.html" target="_top" xlink:title=" ">
<polygon fill="white" stroke="#666666" points="3136.5,-24.5 3042.5,-24.5 3042.5,-5.5 3136.5,-5.5 3136.5,-24.5"/>
<text text-anchor="middle" x="3089.5" y="-12.5" font-family="Helvetica,sans-Serif" font-size="10.00">src/d/d_demo.cpp</text>
</a>
</g>
</g>
<!-- Node15&#45;&gt;Node23 -->
<g id="edge18" class="edge">
<title>Node15&#45;&gt;Node23</title>
<path fill="none" stroke="#63b8ff" d="M3008.57,-60.27C3030.11,-48.49 3056.42,-34.1 3073.07,-24.99"/>
<polygon fill="#63b8ff" stroke="#63b8ff" points="3007.18,-57.04 3000.08,-64.91 3010.54,-63.18 3007.18,-57.04"/>
</g>
<!-- Node24 -->
<g id="node20" class="node">
<title>Node24</title>
<g id="a_node20"><a xlink:href="d__event_8cpp.html" target="_top" xlink:title=" ">
<polygon fill="white" stroke="#666666" points="3276,-24.5 3155,-24.5 3155,-5.5 3276,-5.5 3276,-24.5"/>
<text text-anchor="middle" x="3215.5" y="-12.5" font-family="Helvetica,sans-Serif" font-size="10.00">src/d/event/d_event.cpp</text>
</a>
</g>
</g>
<!-- Node15&#45;&gt;Node24 -->
<g id="edge19" class="edge">
<title>Node15&#45;&gt;Node24</title>
<path fill="none" stroke="#63b8ff" d="M3038.47,-62.63C3084.68,-50.46 3144.54,-34.69 3181.47,-24.96"/>
<polygon fill="#63b8ff" stroke="#63b8ff" points="3037.58,-59.24 3028.8,-65.17 3039.36,-66.01 3037.58,-59.24"/>
</g>
<!-- Node25 -->
<g id="node21" class="node">
<title>Node25</title>
<g id="a_node21"><a xlink:href="d__event__data_8cpp.html" target="_top" xlink:title=" ">
<polygon fill="white" stroke="#666666" points="3397,-30 3294,-30 3294,0 3397,0 3397,-30"/>
<text text-anchor="start" x="3302" y="-18" font-family="Helvetica,sans-Serif" font-size="10.00">src/d/event/d_event</text>
<text text-anchor="middle" x="3345.5" y="-7" font-family="Helvetica,sans-Serif" font-size="10.00">_data.cpp</text>
</a>
</g>
</g>
<!-- Node15&#45;&gt;Node25 -->
<g id="edge20" class="edge">
<title>Node15&#45;&gt;Node25</title>
<path fill="none" stroke="#63b8ff" d="M3039.14,-65.61C3148.48,-46.32 3179.16,-50.06 3285.5,-30 3288.13,-29.5 3290.81,-28.97 3293.52,-28.41"/>
<polygon fill="#63b8ff" stroke="#63b8ff" points="3038.67,-62.14 3029.44,-67.35 3039.9,-69.03 3038.67,-62.14"/>
</g>
<!-- Node26 -->
<g id="node22" class="node">
<title>Node26</title>
<g id="a_node22"><a xlink:href="d__kankyo_8cpp.html" target="_top" xlink:title=" ">
<polygon fill="white" stroke="#666666" points="3549.5,-24.5 3415.5,-24.5 3415.5,-5.5 3549.5,-5.5 3549.5,-24.5"/>
<text text-anchor="middle" x="3482.5" y="-12.5" font-family="Helvetica,sans-Serif" font-size="10.00">src/d/kankyo/d_kankyo.cpp</text>
</a>
</g>
</g>
<!-- Node15&#45;&gt;Node26 -->
<g id="edge21" class="edge">
<title>Node15&#45;&gt;Node26</title>
<path fill="none" stroke="#63b8ff" d="M3038.82,-65.76C3201.62,-40.83 3246.4,-52.49 3406.5,-30 3416.46,-28.6 3427.11,-26.82 3437.19,-25"/>
<polygon fill="#63b8ff" stroke="#63b8ff" points="3038.77,-62.23 3029.42,-67.22 3039.84,-69.14 3038.77,-62.23"/>
</g>
<!-- Node27 -->
<g id="node23" class="node">
<title>Node27</title>
<g id="a_node23"><a xlink:href="d__menu__window_8cpp.html" target="_top" xlink:title=" ">
<polygon fill="white" stroke="#666666" points="3727,-24.5 3568,-24.5 3568,-5.5 3727,-5.5 3727,-24.5"/>
<text text-anchor="middle" x="3647.5" y="-12.5" font-family="Helvetica,sans-Serif" font-size="10.00">src/d/menu/d_menu_window.cpp</text>
</a>
</g>
</g>
<!-- Node15&#45;&gt;Node27 -->
<g id="edge23" class="edge">
<title>Node15&#45;&gt;Node27</title>
<path fill="none" stroke="#63b8ff" d="M3038.98,-65.79C3268.65,-33.77 3331.03,-55.69 3558.5,-30 3570.47,-28.65 3583.29,-26.84 3595.37,-24.98"/>
<polygon fill="#63b8ff" stroke="#63b8ff" points="3038.82,-62.28 3029.41,-67.15 3039.8,-69.21 3038.82,-62.28"/>
</g>
<!-- Node28 -->
<g id="node24" class="node">
<title>Node28</title>
<g id="a_node24"><a xlink:href="d__meter__button_8cpp.html" target="_top" xlink:title=" ">
<polygon fill="white" stroke="#666666" points="2456.5,-30 2352.5,-30 2352.5,0 2456.5,0 2456.5,-30"/>
<text text-anchor="start" x="2360.5" y="-18" font-family="Helvetica,sans-Serif" font-size="10.00">src/d/meter/d_meter</text>
<text text-anchor="middle" x="2404.5" y="-7" font-family="Helvetica,sans-Serif" font-size="10.00">_button.cpp</text>
</a>
</g>
</g>
<!-- Node15&#45;&gt;Node28 -->
<g id="edge25" class="edge">
<title>Node15&#45;&gt;Node28</title>
<path fill="none" stroke="#63b8ff" d="M2905.64,-76.13C2808.31,-69.87 2622.15,-55.59 2465.5,-30 2462.71,-29.54 2459.86,-29.04 2456.99,-28.49"/>
<polygon fill="#63b8ff" stroke="#63b8ff" points="2905.35,-79.62 2915.55,-76.75 2905.79,-72.63 2905.35,-79.62"/>
</g>
<!-- Node29 -->
<g id="node25" class="node">
<title>Node29</title>
<g id="a_node25"><a xlink:href="d__meter__map_8cpp.html" target="_top" xlink:title=" ">
<polygon fill="white" stroke="#666666" points="3849.5,-30 3745.5,-30 3745.5,0 3849.5,0 3849.5,-30"/>
<text text-anchor="start" x="3753.5" y="-18" font-family="Helvetica,sans-Serif" font-size="10.00">src/d/meter/d_meter</text>
<text text-anchor="middle" x="3797.5" y="-7" font-family="Helvetica,sans-Serif" font-size="10.00">_map.cpp</text>
</a>
</g>
</g>
<!-- Node15&#45;&gt;Node29 -->
<g id="edge26" class="edge">
<title>Node15&#45;&gt;Node29</title>
<path fill="none" stroke="#63b8ff" d="M3038.97,-65.83C3347.23,-25.7 3431.58,-72.5 3736.5,-30 3739.3,-29.61 3742.16,-29.15 3745.04,-28.65"/>
<polygon fill="#63b8ff" stroke="#63b8ff" points="3038.86,-62.32 3029.4,-67.1 3039.78,-69.26 3038.86,-62.32"/>
</g>
<!-- Node37 -->
<g id="node26" class="node">
<title>Node37</title>
<g id="a_node26"><a xlink:href="d__msg__scrn__explain_8cpp.html" target="_top" xlink:title=" ">
<polygon fill="white" stroke="#666666" points="2020.5,-30 1914.5,-30 1914.5,0 2020.5,0 2020.5,-30"/>
<text text-anchor="start" x="1922.5" y="-18" font-family="Helvetica,sans-Serif" font-size="10.00">src/msg/scrn/d_msg</text>
<text text-anchor="middle" x="1967.5" y="-7" font-family="Helvetica,sans-Serif" font-size="10.00">_scrn_explain.cpp</text>
</a>
</g>
</g>
<!-- Node15&#45;&gt;Node37 -->
<g id="edge29" class="edge">
<title>Node15&#45;&gt;Node37</title>
<path fill="none" stroke="#63b8ff" d="M2905.7,-77.93C2719.82,-71.93 2199.12,-53.48 2029.5,-30 2026.66,-29.61 2023.75,-29.15 2020.83,-28.64"/>
<polygon fill="#63b8ff" stroke="#63b8ff" points="2905.57,-81.43 2915.67,-78.25 2905.79,-74.43 2905.57,-81.43"/>
</g>
<!-- Node43&#45;&gt;Node14 -->
<g id="edge50" class="edge">
<title>Node43&#45;&gt;Node14</title>
<path fill="none" stroke="#63b8ff" d="M2066.47,-120.74C2074.94,-93.86 2088.06,-52.28 2094.94,-30.47"/>
<polygon fill="#63b8ff" stroke="#63b8ff" points="2063.17,-119.56 2063.5,-130.15 2069.85,-121.66 2063.17,-119.56"/>
</g>
<!-- Node44 -->
<g id="node30" class="node">
<title>Node44</title>
<g id="a_node30"><a xlink:href="d__msg__string_8h.html" target="_top" xlink:title=" ">
<polygon fill="white" stroke="#666666" points="1353.5,-96 1243.5,-96 1243.5,-66 1353.5,-66 1353.5,-96"/>
<text text-anchor="start" x="1251.5" y="-84" font-family="Helvetica,sans-Serif" font-size="10.00">include/d/msg/d_msg</text>
<text text-anchor="middle" x="1298.5" y="-73" font-family="Helvetica,sans-Serif" font-size="10.00">_string.h</text>
</a>
</g>
</g>
<!-- Node43&#45;&gt;Node44 -->
<g id="edge34" class="edge">
<title>Node43&#45;&gt;Node44</title>
<path fill="none" stroke="#63b8ff" d="M1992.11,-140.41C1844.35,-127.97 1490.61,-98.18 1353.82,-86.66"/>
<polygon fill="#63b8ff" stroke="#63b8ff" points="1991.46,-143.87 2001.72,-141.22 1992.05,-136.89 1991.46,-143.87"/>
</g>
<!-- Node44&#45;&gt;Node7 -->
<g id="edge38" class="edge">
<title>Node44&#45;&gt;Node7</title>
<path fill="none" stroke="#63b8ff" d="M1365.35,-78.49C1511.56,-74.68 1870.61,-62.54 2169.5,-30 2181.51,-28.69 2194.4,-26.86 2206.47,-24.95"/>
<polygon fill="#63b8ff" stroke="#63b8ff" points="1365.36,-74.99 1355.46,-78.74 1365.54,-81.99 1365.36,-74.99"/>
</g>
<!-- Node44&#45;&gt;Node8 -->
<g id="edge41" class="edge">
<title>Node44&#45;&gt;Node8</title>
<path fill="none" stroke="#63b8ff" d="M1353.57,-62.2C1384.56,-52.18 1422.76,-39.83 1451.87,-30.43"/>
<polygon fill="#63b8ff" stroke="#63b8ff" points="1352.81,-58.77 1344.38,-65.17 1354.97,-65.43 1352.81,-58.77"/>
</g>
<!-- Node44&#45;&gt;Node9 -->
<g id="edge42" class="edge">
<title>Node44&#45;&gt;Node9</title>
<path fill="none" stroke="#63b8ff" d="M1365,-67.98C1434.18,-55.47 1540.9,-36.18 1603,-24.95"/>
<polygon fill="#63b8ff" stroke="#63b8ff" points="1364.52,-64.51 1355.3,-69.73 1365.77,-71.4 1364.52,-64.51"/>
</g>
<!-- Node44&#45;&gt;Node10 -->
<g id="edge43" class="edge">
<title>Node44&#45;&gt;Node10</title>
<path fill="none" stroke="#63b8ff" d="M1365.19,-73.4C1451.01,-64.68 1604.62,-48.25 1735.5,-30 1746.16,-28.51 1757.55,-26.75 1768.42,-25"/>
<polygon fill="#63b8ff" stroke="#63b8ff" points="1364.9,-69.91 1355.3,-74.4 1365.61,-76.88 1364.9,-69.91"/>
</g>
<!-- Node44&#45;&gt;Node28 -->
<g id="edge47" class="edge">
<title>Node44&#45;&gt;Node28</title>
<path fill="none" stroke="#63b8ff" d="M1365.18,-78.33C1564.28,-73.09 2152.43,-55.81 2342.5,-30 2345.67,-29.57 2348.92,-29.06 2352.19,-28.49"/>
<polygon fill="#63b8ff" stroke="#63b8ff" points="1365.17,-74.83 1355.26,-78.59 1365.35,-81.82 1365.17,-74.83"/>
</g>
<!-- Node44&#45;&gt;Node37 -->
<g id="edge49" class="edge">
<title>Node44&#45;&gt;Node37</title>
<path fill="none" stroke="#63b8ff" d="M1365.06,-77.56C1477.14,-72.78 1710.42,-59.91 1905.5,-30 1908.34,-29.57 1911.24,-29.07 1914.16,-28.54"/>
<polygon fill="#63b8ff" stroke="#63b8ff" points="1364.98,-74.06 1355.14,-77.98 1365.27,-81.06 1364.98,-74.06"/>
</g>
<!-- Node45 -->
<g id="node31" class="node">
<title>Node45</title>
<g id="a_node31"><a xlink:href="d__file__select_8h.html" target="_top" xlink:title=" ">
<polygon fill="#fff0f0" stroke="red" points="1414.5,-30 1318.5,-30 1318.5,0 1414.5,0 1414.5,-30"/>
<text text-anchor="start" x="1326.5" y="-18" font-family="Helvetica,sans-Serif" font-size="10.00">include/d/file/d_file</text>
<text text-anchor="middle" x="1366.5" y="-7" font-family="Helvetica,sans-Serif" font-size="10.00">_select.h</text>
</a>
</g>
</g>
<!-- Node44&#45;&gt;Node45 -->
<g id="edge35" class="edge">
<title>Node44&#45;&gt;Node45</title>
<path fill="none" stroke="#63b8ff" d="M1321.78,-58.09C1331.6,-48.85 1342.74,-38.36 1351.45,-30.16"/>
<polygon fill="#63b8ff" stroke="#63b8ff" points="1319.58,-55.36 1314.69,-64.76 1324.37,-60.45 1319.58,-55.36"/>
</g>
<!-- Node47 -->
<g id="node32" class="node">
<title>Node47</title>
<g id="a_node32"><a xlink:href="d__bright__check_8cpp.html" target="_top" xlink:title=" ">
<polygon fill="white" stroke="#666666" points="125,-24.5 0,-24.5 0,-5.5 125,-5.5 125,-24.5"/>
<text text-anchor="middle" x="62.5" y="-12.5" font-family="Helvetica,sans-Serif" font-size="10.00">src/d/d_bright_check.cpp</text>
</a>
</g>
</g>
<!-- Node44&#45;&gt;Node47 -->
<g id="edge36" class="edge">
<title>Node44&#45;&gt;Node47</title>
<path fill="none" stroke="#63b8ff" d="M1231.85,-80.6C1053.32,-81.47 549.73,-79.01 134.5,-30 124.26,-28.79 113.29,-26.95 103.08,-24.99"/>
<polygon fill="#63b8ff" stroke="#63b8ff" points="1231.64,-84.1 1241.62,-80.55 1231.6,-77.11 1231.64,-84.1"/>
</g>
<!-- Node48 -->
<g id="node33" class="node">
<title>Node48</title>
<g id="a_node33"><a xlink:href="d__menu__calibration_8cpp.html" target="_top" xlink:title=" ">
<polygon fill="white" stroke="#666666" points="313.5,-24.5 143.5,-24.5 143.5,-5.5 313.5,-5.5 313.5,-24.5"/>
<text text-anchor="middle" x="228.5" y="-12.5" font-family="Helvetica,sans-Serif" font-size="10.00">src/d/menu/d_menu_calibration.cpp</text>
</a>
</g>
</g>
<!-- Node44&#45;&gt;Node48 -->
<g id="edge37" class="edge">
<title>Node44&#45;&gt;Node48</title>
<path fill="none" stroke="#63b8ff" d="M1231.65,-78.8C1073.34,-75.48 663.23,-64.02 322.5,-30 309.53,-28.7 295.61,-26.88 282.57,-24.97"/>
<polygon fill="#63b8ff" stroke="#63b8ff" points="1231.47,-82.3 1241.54,-79 1231.62,-75.3 1231.47,-82.3"/>
</g>
<!-- Node49 -->
<g id="node34" class="node">
<title>Node49</title>
<g id="a_node34"><a xlink:href="d__menu__fishing_8cpp.html" target="_top" xlink:title=" ">
<polygon fill="white" stroke="#666666" points="485.5,-24.5 331.5,-24.5 331.5,-5.5 485.5,-5.5 485.5,-24.5"/>
<text text-anchor="middle" x="408.5" y="-12.5" font-family="Helvetica,sans-Serif" font-size="10.00">src/d/menu/d_menu_fishing.cpp</text>
</a>
</g>
</g>
<!-- Node44&#45;&gt;Node49 -->
<g id="edge39" class="edge">
<title>Node44&#45;&gt;Node49</title>
<path fill="none" stroke="#63b8ff" d="M1232.09,-78.1C1094.26,-73.67 767.23,-60.6 494.5,-30 482.77,-28.68 470.21,-26.87 458.41,-24.98"/>
<polygon fill="#63b8ff" stroke="#63b8ff" points="1231.64,-81.59 1241.75,-78.41 1231.86,-74.59 1231.64,-81.59"/>
</g>
<!-- Node50 -->
<g id="node35" class="node">
<title>Node50</title>
<g id="a_node35"><a xlink:href="d__menu__insect_8cpp.html" target="_top" xlink:title=" ">
<polygon fill="white" stroke="#666666" points="655.5,-24.5 503.5,-24.5 503.5,-5.5 655.5,-5.5 655.5,-24.5"/>
<text text-anchor="middle" x="579.5" y="-12.5" font-family="Helvetica,sans-Serif" font-size="10.00">src/d/menu/d_menu_insect.cpp</text>
</a>
</g>
</g>
<!-- Node44&#45;&gt;Node50 -->
<g id="edge40" class="edge">
<title>Node44&#45;&gt;Node50</title>
<path fill="none" stroke="#63b8ff" d="M1231.76,-76.6C1116,-70.28 870.6,-55.05 664.5,-30 653.22,-28.63 641.14,-26.84 629.74,-25"/>
<polygon fill="#63b8ff" stroke="#63b8ff" points="1231.53,-80.09 1241.71,-77.13 1231.91,-73.1 1231.53,-80.09"/>
</g>
<!-- Node51 -->
<g id="node36" class="node">
<title>Node51</title>
<g id="a_node36"><a xlink:href="d__menu__ring_8cpp.html" target="_top" xlink:title=" ">
<polygon fill="white" stroke="#666666" points="815.5,-24.5 673.5,-24.5 673.5,-5.5 815.5,-5.5 815.5,-24.5"/>
<text text-anchor="middle" x="744.5" y="-12.5" font-family="Helvetica,sans-Serif" font-size="10.00">src/d/menu/d_menu_ring.cpp</text>
</a>
</g>
</g>
<!-- Node44&#45;&gt;Node51 -->
<g id="edge44" class="edge">
<title>Node44&#45;&gt;Node51</title>
<path fill="none" stroke="#63b8ff" d="M1231.9,-74.42C1140.02,-66.39 969.3,-50.28 824.5,-30 814.17,-28.55 803.12,-26.77 792.64,-24.97"/>
<polygon fill="#63b8ff" stroke="#63b8ff" points="1231.48,-77.89 1241.74,-75.27 1232.08,-70.92 1231.48,-77.89"/>
</g>
<!-- Node52 -->
<g id="node37" class="node">
<title>Node52</title>
<g id="a_node37"><a xlink:href="d__menu__save_8cpp.html" target="_top" xlink:title=" ">
<polygon fill="white" stroke="#666666" points="981,-24.5 834,-24.5 834,-5.5 981,-5.5 981,-24.5"/>
<text text-anchor="middle" x="907.5" y="-12.5" font-family="Helvetica,sans-Serif" font-size="10.00">src/d/menu/d_menu_save.cpp</text>
</a>
</g>
</g>
<!-- Node44&#45;&gt;Node52 -->
<g id="edge45" class="edge">
<title>Node44&#45;&gt;Node52</title>
<path fill="none" stroke="#63b8ff" d="M1231.93,-69.4C1169.33,-59.39 1073.02,-43.89 989.5,-30 979.81,-28.39 969.49,-26.65 959.54,-24.96"/>
<polygon fill="#63b8ff" stroke="#63b8ff" points="1231.29,-72.84 1241.72,-70.96 1232.4,-65.93 1231.29,-72.84"/>
</g>
<!-- Node53 -->
<g id="node38" class="node">
<title>Node53</title>
<g id="a_node38"><a xlink:href="d__menu__skill_8cpp.html" target="_top" xlink:title=" ">
<polygon fill="white" stroke="#666666" points="1142,-24.5 999,-24.5 999,-5.5 1142,-5.5 1142,-24.5"/>
<text text-anchor="middle" x="1070.5" y="-12.5" font-family="Helvetica,sans-Serif" font-size="10.00">src/d/menu/d_menu_skill.cpp</text>
</a>
</g>
</g>
<!-- Node44&#45;&gt;Node53 -->
<g id="edge46" class="edge">
<title>Node44&#45;&gt;Node53</title>
<path fill="none" stroke="#63b8ff" d="M1236.05,-62.47C1192.77,-50.32 1136.93,-34.65 1102.43,-24.96"/>
<polygon fill="#63b8ff" stroke="#63b8ff" points="1235.02,-65.82 1245.59,-65.15 1236.91,-59.08 1235.02,-65.82"/>
</g>
<!-- Node54 -->
<g id="node39" class="node">
<title>Node54</title>
<g id="a_node39"><a xlink:href="d__msg__string_8cpp.html" target="_top" xlink:title=" ">
<polygon fill="white" stroke="#666666" points="1300.5,-24.5 1160.5,-24.5 1160.5,-5.5 1300.5,-5.5 1300.5,-24.5"/>
<text text-anchor="middle" x="1230.5" y="-12.5" font-family="Helvetica,sans-Serif" font-size="10.00">src/d/msg/d_msg_string.cpp</text>
</a>
</g>
</g>
<!-- Node44&#45;&gt;Node54 -->
<g id="edge48" class="edge">
<title>Node44&#45;&gt;Node54</title>
<path fill="none" stroke="#63b8ff" d="M1275.07,-57.94C1262.99,-46.58 1248.94,-33.36 1239.9,-24.84"/>
<polygon fill="#63b8ff" stroke="#63b8ff" points="1272.63,-60.45 1282.31,-64.76 1277.42,-55.36 1272.63,-60.45"/>
</g>
<!-- Node57 -->
<g id="node42" class="node">
<title>Node57</title>
<g id="a_node42"><a xlink:href="fvb_8h.html" target="_top" xlink:title=" ">
<polygon fill="white" stroke="#666666" points="3171,-228 3046,-228 3046,-198 3171,-198 3171,-228"/>
<text text-anchor="start" x="3054" y="-216" font-family="Helvetica,sans-Serif" font-size="10.00">include/JSystem/JStudio</text>
<text text-anchor="middle" x="3108.5" y="-205" font-family="Helvetica,sans-Serif" font-size="10.00">/JStudio/fvb.h</text>
</a>
</g>
</g>
<!-- Node56&#45;&gt;Node57 -->
<g id="edge53" class="edge">
<title>Node56&#45;&gt;Node57</title>
<path fill="none" stroke="#63b8ff" d="M3108.5,-252.39C3108.5,-244.13 3108.5,-235.28 3108.5,-228.16"/>
<polygon fill="#63b8ff" stroke="#63b8ff" points="3105,-252.28 3108.5,-262.28 3112,-252.28 3105,-252.28"/>
</g>
<!-- Node89 -->
<g id="node47" class="node">
<title>Node89</title>
<g id="a_node47"><a xlink:href="fvb-data-parse_8cpp.html" target="_top" xlink:title=" ">
<polygon fill="white" stroke="#666666" points="3325.5,-228 3189.5,-228 3189.5,-198 3325.5,-198 3325.5,-228"/>
<text text-anchor="start" x="3197.5" y="-216" font-family="Helvetica,sans-Serif" font-size="10.00">libs/JSystem/JStudio</text>
<text text-anchor="middle" x="3257.5" y="-205" font-family="Helvetica,sans-Serif" font-size="10.00">/JStudio/fvb&#45;data&#45;parse.cpp</text>
</a>
</g>
</g>
<!-- Node56&#45;&gt;Node89 -->
<g id="edge58" class="edge">
<title>Node56&#45;&gt;Node89</title>
<path fill="none" stroke="#63b8ff" d="M3152.41,-259.14C3175.27,-249.32 3202.78,-237.51 3223.92,-228.43"/>
<polygon fill="#63b8ff" stroke="#63b8ff" points="3151.14,-255.88 3143.33,-263.04 3153.9,-262.31 3151.14,-255.88"/>
</g>
<!-- Node58 -->
<g id="node43" class="node">
<title>Node58</title>
<g id="a_node43"><a xlink:href="jstudio-control_8h.html" target="_top" xlink:title=" ">
<polygon fill="white" stroke="#666666" points="3171,-162 3046,-162 3046,-132 3171,-132 3171,-162"/>
<text text-anchor="start" x="3054" y="-150" font-family="Helvetica,sans-Serif" font-size="10.00">include/JSystem/JStudio</text>
<text text-anchor="middle" x="3108.5" y="-139" font-family="Helvetica,sans-Serif" font-size="10.00">/JStudio/jstudio&#45;control.h</text>
</a>
</g>
</g>
<!-- Node57&#45;&gt;Node58 -->
<g id="edge54" class="edge">
<title>Node57&#45;&gt;Node58</title>
<path fill="none" stroke="#63b8ff" d="M3108.5,-186.39C3108.5,-178.13 3108.5,-169.28 3108.5,-162.16"/>
<polygon fill="#63b8ff" stroke="#63b8ff" points="3105,-186.28 3108.5,-196.28 3112,-186.28 3105,-186.28"/>
</g>
<!-- Node88 -->
<g id="node46" class="node">
<title>Node88</title>
<g id="a_node46"><a xlink:href="fvb_8cpp.html" target="_top" xlink:title=" ">
<polygon fill="white" stroke="#666666" points="3298,-162 3189,-162 3189,-132 3298,-132 3298,-162"/>
<text text-anchor="start" x="3197" y="-150" font-family="Helvetica,sans-Serif" font-size="10.00">libs/JSystem/JStudio</text>
<text text-anchor="middle" x="3243.5" y="-139" font-family="Helvetica,sans-Serif" font-size="10.00">/JStudio/fvb.cpp</text>
</a>
</g>
</g>
<!-- Node57&#45;&gt;Node88 -->
<g id="edge57" class="edge">
<title>Node57&#45;&gt;Node88</title>
<path fill="none" stroke="#63b8ff" d="M3149.16,-192.72C3169.78,-182.95 3194.39,-171.28 3213.3,-162.31"/>
<polygon fill="#63b8ff" stroke="#63b8ff" points="3147.7,-189.54 3140.16,-196.99 3150.7,-195.87 3147.7,-189.54"/>
</g>
<!-- Node59 -->
<g id="node44" class="node">
<title>Node59</title>
<g id="a_node44"><a xlink:href="jstudio-object_8h.html" target="_top" xlink:title=" ">
<polygon fill="#fff0f0" stroke="red" points="3171,-96 3046,-96 3046,-66 3171,-66 3171,-96"/>
<text text-anchor="start" x="3054" y="-84" font-family="Helvetica,sans-Serif" font-size="10.00">include/JSystem/JStudio</text>
<text text-anchor="middle" x="3108.5" y="-73" font-family="Helvetica,sans-Serif" font-size="10.00">/JStudio/jstudio&#45;object.h</text>
</a>
</g>
</g>
<!-- Node58&#45;&gt;Node59 -->
<g id="edge55" class="edge">
<title>Node58&#45;&gt;Node59</title>
<path fill="none" stroke="#63b8ff" d="M3108.5,-120.39C3108.5,-112.13 3108.5,-103.28 3108.5,-96.16"/>
<polygon fill="#63b8ff" stroke="#63b8ff" points="3105,-120.28 3108.5,-130.28 3112,-120.28 3105,-120.28"/>
</g>
<!-- Node87 -->
<g id="node45" class="node">
<title>Node87</title>
<g id="a_node45"><a xlink:href="jstudio-control_8cpp.html" target="_top" xlink:title=" ">
<polygon fill="white" stroke="#666666" points="3323.5,-96 3189.5,-96 3189.5,-66 3323.5,-66 3323.5,-96"/>
<text text-anchor="start" x="3197.5" y="-84" font-family="Helvetica,sans-Serif" font-size="10.00">libs/JSystem/JStudio</text>
<text text-anchor="middle" x="3256.5" y="-73" font-family="Helvetica,sans-Serif" font-size="10.00">/JStudio/jstudio&#45;control.cpp</text>
</a>
</g>
</g>
<!-- Node58&#45;&gt;Node87 -->
<g id="edge56" class="edge">
<title>Node58&#45;&gt;Node87</title>
<path fill="none" stroke="#63b8ff" d="M3152.11,-127.14C3174.82,-117.32 3202.14,-105.51 3223.14,-96.43"/>
<polygon fill="#63b8ff" stroke="#63b8ff" points="3150.89,-123.85 3143.1,-131.04 3153.67,-130.28 3150.89,-123.85"/>
</g>
</g>
</svg>
