<?xml version="1.0" encoding="UTF-8" standalone="no"?>
<!DOCTYPE svg PUBLIC "-//W3C//DTD SVG 1.1//EN"
 "http://www.w3.org/Graphics/SVG/1.1/DTD/svg11.dtd">
<!-- Generated by graphviz version 7.0.5 (20221223.1930)
 -->
<!-- Title: Graphical Class Hierarchy Pages: 1 -->
<svg width="263pt" height="582pt"
 viewBox="0.00 0.00 263.00 582.00" xmlns="http://www.w3.org/2000/svg" xmlns:xlink="http://www.w3.org/1999/xlink">
<g id="graph0" class="graph" transform="scale(1 1) rotate(0) translate(4 578)">
<title>Graphical Class Hierarchy</title>
<!-- Node0 -->
<g id="node1" class="node">
<title>Node0</title>
<g id="a_node1"><a xlink:href="structmDoHIO__entry__c.html" target="_top" xlink:title=" ">
<polygon fill="white" stroke="#666666" points="92,-296 0,-296 0,-277 92,-277 92,-296"/>
<text text-anchor="middle" x="46" y="-284" font-family="Helvetica,sans-Serif" font-size="10.00">mDoHIO_entry_c</text>
</a>
</g>
</g>
<!-- Node1 -->
<g id="node2" class="node">
<title>Node1</title>
<g id="a_node2"><a xlink:href="classdGov__HIO__c.html" target="_top" xlink:title=" ">
<polygon fill="white" stroke="#666666" points="228.5,-574 154.5,-574 154.5,-555 228.5,-555 228.5,-574"/>
<text text-anchor="middle" x="191.5" y="-562" font-family="Helvetica,sans-Serif" font-size="10.00">dGov_HIO_c</text>
</a>
</g>
</g>
<!-- Node0&#45;&gt;Node1 -->
<g id="edge1" class="edge">
<title>Node0&#45;&gt;Node1</title>
<path fill="none" stroke="#63b8ff" d="M47.19,-307.78C48.83,-357.06 59.91,-479.87 128,-546.5 135.1,-553.45 144.71,-557.75 154.25,-560.4"/>
<polygon fill="#63b8ff" stroke="#63b8ff" points="50.7,-307.86 46.98,-297.94 43.7,-308.01 50.7,-307.86"/>
</g>
<!-- Node2 -->
<g id="node3" class="node">
<title>Node2</title>
<g id="a_node3"><a xlink:href="classdScnPly__preLoad__HIO__c.html" target="_top" xlink:title=" ">
<polygon fill="white" stroke="#666666" points="255,-537 128,-537 128,-518 255,-518 255,-537"/>
<text text-anchor="middle" x="191.5" y="-525" font-family="Helvetica,sans-Serif" font-size="10.00">dScnPly_preLoad_HIO_c</text>
</a>
</g>
</g>
<!-- Node0&#45;&gt;Node2 -->
<g id="edge2" class="edge">
<title>Node0&#45;&gt;Node2</title>
<path fill="none" stroke="#63b8ff" d="M48.44,-307.41C52.62,-351.39 68.55,-453.96 128,-509.5 131.47,-512.74 135.48,-515.4 139.76,-517.58"/>
<polygon fill="#63b8ff" stroke="#63b8ff" points="51.95,-307.39 47.64,-297.71 44.98,-307.96 51.95,-307.39"/>
</g>
<!-- Node3 -->
<g id="node4" class="node">
<title>Node3</title>
<g id="a_node4"><a xlink:href="classdaHsTarget__HIO__c.html" target="_top" xlink:title=" ">
<polygon fill="white" stroke="#666666" points="242,-500 141,-500 141,-481 242,-481 242,-500"/>
<text text-anchor="middle" x="191.5" y="-488" font-family="Helvetica,sans-Serif" font-size="10.00">daHsTarget_HIO_c</text>
</a>
</g>
</g>
<!-- Node0&#45;&gt;Node3 -->
<g id="edge3" class="edge">
<title>Node0&#45;&gt;Node3</title>
<path fill="none" stroke="#8b1a1a" d="M50.19,-307.58C57.16,-346.12 77.34,-428.04 128,-472.5 131.73,-475.78 136.03,-478.46 140.59,-480.65"/>
<polygon fill="#8b1a1a" stroke="#8b1a1a" points="53.66,-307.07 48.56,-297.79 46.75,-308.22 53.66,-307.07"/>
</g>
<!-- Node4 -->
<g id="node5" class="node">
<title>Node4</title>
<g id="a_node5"><a xlink:href="classdaLv1Cdl00__HIO__c.html" target="_top" xlink:title=" ">
<polygon fill="white" stroke="#666666" points="242.5,-463 140.5,-463 140.5,-444 242.5,-444 242.5,-463"/>
<text text-anchor="middle" x="191.5" y="-451" font-family="Helvetica,sans-Serif" font-size="10.00">daLv1Cdl00_HIO_c</text>
</a>
</g>
</g>
<!-- Node0&#45;&gt;Node4 -->
<g id="edge4" class="edge">
<title>Node0&#45;&gt;Node4</title>
<path fill="none" stroke="#63b8ff" d="M52.52,-306.95C62.28,-339.15 85.66,-401.5 128,-435.5 132.05,-438.75 136.66,-441.42 141.5,-443.6"/>
<polygon fill="#63b8ff" stroke="#63b8ff" points="55.98,-306.31 49.86,-297.66 49.25,-308.24 55.98,-306.31"/>
</g>
<!-- Node5 -->
<g id="node6" class="node">
<title>Node5</title>
<g id="a_node6"><a xlink:href="classdaLv1Cdl01__HIO__c.html" target="_top" xlink:title=" ">
<polygon fill="white" stroke="#666666" points="242.5,-426 140.5,-426 140.5,-407 242.5,-407 242.5,-426"/>
<text text-anchor="middle" x="191.5" y="-414" font-family="Helvetica,sans-Serif" font-size="10.00">daLv1Cdl01_HIO_c</text>
</a>
</g>
</g>
<!-- Node0&#45;&gt;Node5 -->
<g id="edge5" class="edge">
<title>Node0&#45;&gt;Node5</title>
<path fill="none" stroke="#63b8ff" d="M56.22,-306.47C68.86,-331.66 93.95,-374.57 128,-398.5 132.62,-401.75 137.82,-404.41 143.19,-406.6"/>
<polygon fill="#63b8ff" stroke="#63b8ff" points="59.45,-305.12 51.95,-297.64 53.15,-308.16 59.45,-305.12"/>
</g>
<!-- Node6 -->
<g id="node7" class="node">
<title>Node6</title>
<g id="a_node7"><a xlink:href="classdaLv2Candle__HIO__c.html" target="_top" xlink:title=" ">
<polygon fill="white" stroke="#666666" points="245,-389 138,-389 138,-370 245,-370 245,-389"/>
<text text-anchor="middle" x="191.5" y="-377" font-family="Helvetica,sans-Serif" font-size="10.00">daLv2Candle_HIO_c</text>
</a>
</g>
</g>
<!-- Node0&#45;&gt;Node6 -->
<g id="edge6" class="edge">
<title>Node0&#45;&gt;Node6</title>
<path fill="none" stroke="#63b8ff" d="M62.23,-304.86C77.29,-321.88 101.8,-346.72 128,-361.5 133.61,-364.66 139.81,-367.31 146.08,-369.51"/>
<polygon fill="#63b8ff" stroke="#63b8ff" points="65.05,-302.77 55.88,-297.47 59.75,-307.34 65.05,-302.77"/>
</g>
<!-- Node7 -->
<g id="node8" class="node">
<title>Node7</title>
<g id="a_node8"><a xlink:href="classdaLv4Gate__HIO__c.html" target="_top" xlink:title=" ">
<polygon fill="white" stroke="#666666" points="240.5,-352 142.5,-352 142.5,-333 240.5,-333 240.5,-352"/>
<text text-anchor="middle" x="191.5" y="-340" font-family="Helvetica,sans-Serif" font-size="10.00">daLv4Gate_HIO_c</text>
</a>
</g>
</g>
<!-- Node0&#45;&gt;Node7 -->
<g id="edge7" class="edge">
<title>Node0&#45;&gt;Node7</title>
<path fill="none" stroke="#63b8ff" d="M75.81,-301.38C91.07,-308.91 110.28,-317.84 128,-324.5 135.72,-327.4 144.11,-330.11 152.18,-332.5"/>
<polygon fill="#63b8ff" stroke="#63b8ff" points="77.81,-298.46 67.3,-297.11 74.67,-304.72 77.81,-298.46"/>
</g>
<!-- Node8 -->
<g id="node9" class="node">
<title>Node8</title>
<g id="a_node9"><a xlink:href="classdaLv4HsTarget__HIO__c.html" target="_top" xlink:title=" ">
<polygon fill="white" stroke="#666666" points="250.5,-315 132.5,-315 132.5,-296 250.5,-296 250.5,-315"/>
<text text-anchor="middle" x="191.5" y="-303" font-family="Helvetica,sans-Serif" font-size="10.00">daLv4HsTarget_HIO_c</text>
</a>
</g>
</g>
<!-- Node0&#45;&gt;Node8 -->
<g id="edge8" class="edge">
<title>Node0&#45;&gt;Node8</title>
<path fill="none" stroke="#63b8ff" d="M103.64,-294C113.04,-295.24 122.8,-296.54 132.24,-297.79"/>
<polygon fill="#63b8ff" stroke="#63b8ff" points="104.28,-290.55 93.9,-292.71 103.36,-297.49 104.28,-290.55"/>
</g>
<!-- Node9 -->
<g id="node10" class="node">
<title>Node9</title>
<g id="a_node10"><a xlink:href="classdaLv4PoGate__HIO__c.html" target="_top" xlink:title=" ">
<polygon fill="white" stroke="#666666" points="246.5,-278 136.5,-278 136.5,-259 246.5,-259 246.5,-278"/>
<text text-anchor="middle" x="191.5" y="-266" font-family="Helvetica,sans-Serif" font-size="10.00">daLv4PoGate_HIO_c</text>
</a>
</g>
</g>
<!-- Node0&#45;&gt;Node9 -->
<g id="edge9" class="edge">
<title>Node0&#45;&gt;Node9</title>
<path fill="none" stroke="#63b8ff" d="M103.74,-279.38C114.39,-278.05 125.51,-276.65 136.1,-275.32"/>
<polygon fill="#63b8ff" stroke="#63b8ff" points="103.39,-275.9 93.91,-280.62 104.26,-282.84 103.39,-275.9"/>
</g>
<!-- Node10 -->
<g id="node11" class="node">
<title>Node10</title>
<g id="a_node11"><a xlink:href="classdaLv6CstaSw__HIO__c.html" target="_top" xlink:title=" ">
<polygon fill="white" stroke="#666666" points="247.5,-241 135.5,-241 135.5,-222 247.5,-222 247.5,-241"/>
<text text-anchor="middle" x="191.5" y="-229" font-family="Helvetica,sans-Serif" font-size="10.00">daLv6CstaSw_HIO_c</text>
</a>
</g>
</g>
<!-- Node0&#45;&gt;Node10 -->
<g id="edge10" class="edge">
<title>Node0&#45;&gt;Node10</title>
<path fill="none" stroke="#63b8ff" d="M77.6,-271.83C92.61,-264.91 111.06,-256.81 128,-250.5 136.71,-247.25 146.26,-244.14 155.21,-241.4"/>
<polygon fill="#63b8ff" stroke="#63b8ff" points="76.3,-268.57 68.72,-275.98 79.26,-274.92 76.3,-268.57"/>
</g>
<!-- Node11 -->
<g id="node12" class="node">
<title>Node11</title>
<g id="a_node12"><a xlink:href="classdaMyna__HIO__c.html" target="_top" xlink:title=" ">
<polygon fill="white" stroke="#666666" points="233.5,-204 149.5,-204 149.5,-185 233.5,-185 233.5,-204"/>
<text text-anchor="middle" x="191.5" y="-192" font-family="Helvetica,sans-Serif" font-size="10.00">daMyna_HIO_c</text>
</a>
</g>
</g>
<!-- Node0&#45;&gt;Node11 -->
<g id="edge11" class="edge">
<title>Node0&#45;&gt;Node11</title>
<path fill="none" stroke="#63b8ff" d="M62.38,-268.73C77.54,-252.25 102.13,-228.12 128,-213.5 134.52,-209.82 141.83,-206.77 149.09,-204.28"/>
<polygon fill="#63b8ff" stroke="#63b8ff" points="60.05,-266.08 55.99,-275.87 65.27,-270.75 60.05,-266.08"/>
</g>
<!-- Node12 -->
<g id="node13" class="node">
<title>Node12</title>
<g id="a_node13"><a xlink:href="classdaSnowEffTag__HIO__c.html" target="_top" xlink:title=" ">
<polygon fill="white" stroke="#666666" points="248,-167 135,-167 135,-148 248,-148 248,-167"/>
<text text-anchor="middle" x="191.5" y="-155" font-family="Helvetica,sans-Serif" font-size="10.00">daSnowEffTag_HIO_c</text>
</a>
</g>
</g>
<!-- Node0&#45;&gt;Node12 -->
<g id="edge12" class="edge">
<title>Node0&#45;&gt;Node12</title>
<path fill="none" stroke="#63b8ff" d="M56.55,-266.6C69.41,-241.89 94.59,-200.13 128,-176.5 133.19,-172.83 139.09,-169.86 145.16,-167.46"/>
<polygon fill="#63b8ff" stroke="#63b8ff" points="53.56,-264.76 52.21,-275.27 59.82,-267.9 53.56,-264.76"/>
</g>
<!-- Node13 -->
<g id="node14" class="node">
<title>Node13</title>
<g id="a_node14"><a xlink:href="classdaTagCstaSw__HIO__c.html" target="_top" xlink:title=" ">
<polygon fill="white" stroke="#666666" points="247.5,-130 135.5,-130 135.5,-111 247.5,-111 247.5,-130"/>
<text text-anchor="middle" x="191.5" y="-118" font-family="Helvetica,sans-Serif" font-size="10.00">daTagCstaSw_HIO_c</text>
</a>
</g>
</g>
<!-- Node0&#45;&gt;Node13 -->
<g id="edge13" class="edge">
<title>Node0&#45;&gt;Node13</title>
<path fill="none" stroke="#63b8ff" d="M52.81,-265.94C62.84,-234.13 86.45,-173.18 128,-139.5 132.58,-135.79 137.88,-132.8 143.42,-130.39"/>
<polygon fill="#63b8ff" stroke="#63b8ff" points="49.57,-264.55 50.05,-275.13 56.28,-266.56 49.57,-264.55"/>
</g>
<!-- Node14 -->
<g id="node15" class="node">
<title>Node14</title>
<g id="a_node15"><a xlink:href="classdaTagPoFire__HIO__c.html" target="_top" xlink:title=" ">
<polygon fill="white" stroke="#666666" points="244.5,-93 138.5,-93 138.5,-74 244.5,-74 244.5,-93"/>
<text text-anchor="middle" x="191.5" y="-81" font-family="Helvetica,sans-Serif" font-size="10.00">daTagPoFire_HIO_c</text>
</a>
</g>
</g>
<!-- Node0&#45;&gt;Node14 -->
<g id="edge14" class="edge">
<title>Node0&#45;&gt;Node14</title>
<path fill="none" stroke="#63b8ff" d="M50.33,-265.71C57.51,-227.7 78.03,-146.82 128,-102.5 132.16,-98.81 137.01,-95.84 142.15,-93.44"/>
<polygon fill="#63b8ff" stroke="#63b8ff" points="46.92,-264.9 48.64,-275.35 53.81,-266.11 46.92,-264.9"/>
</g>
<!-- Node15 -->
<g id="node16" class="node">
<title>Node15</title>
<g id="a_node16"><a xlink:href="classdaTbox__HIO__c.html" target="_top" xlink:title=" ">
<polygon fill="white" stroke="#666666" points="232.5,-56 150.5,-56 150.5,-37 232.5,-37 232.5,-56"/>
<text text-anchor="middle" x="191.5" y="-44" font-family="Helvetica,sans-Serif" font-size="10.00">daTbox_HIO_c</text>
</a>
</g>
</g>
<!-- Node0&#45;&gt;Node15 -->
<g id="edge15" class="edge">
<title>Node0&#45;&gt;Node15</title>
<path fill="none" stroke="#8b1a1a" d="M48.6,-265.56C53.06,-221.94 69.48,-120.82 128,-65.5 134.18,-59.66 142.1,-55.61 150.22,-52.8"/>
<polygon fill="#8b1a1a" stroke="#8b1a1a" points="45.12,-265.14 47.72,-275.41 52.09,-265.76 45.12,-265.14"/>
</g>
<!-- Node16 -->
<g id="node17" class="node">
<title>Node16</title>
<g id="a_node17"><a xlink:href="classdalv4CandleTag__HIO__c.html" target="_top" xlink:title=" ">
<polygon fill="white" stroke="#666666" points="251.5,-19 131.5,-19 131.5,0 251.5,0 251.5,-19"/>
<text text-anchor="middle" x="191.5" y="-7" font-family="Helvetica,sans-Serif" font-size="10.00">dalv4CandleTag_HIO_c</text>
</a>
</g>
</g>
<!-- Node0&#45;&gt;Node16 -->
<g id="edge16" class="edge">
<title>Node0&#45;&gt;Node16</title>
<path fill="none" stroke="#63b8ff" d="M47.31,-265.45C49.21,-216.69 60.81,-95.08 128,-28.5 131.71,-24.83 136.1,-21.86 140.81,-19.47"/>
<polygon fill="#63b8ff" stroke="#63b8ff" points="43.82,-265.08 47.05,-275.17 50.82,-265.27 43.82,-265.08"/>
</g>
</g>
</svg>
