<?xml version="1.0" encoding="UTF-8" standalone="no"?>
<!DOCTYPE svg PUBLIC "-//W3C//DTD SVG 1.1//EN"
 "http://www.w3.org/Graphics/SVG/1.1/DTD/svg11.dtd">
<!-- Generated by graphviz version 7.0.5 (20221223.1930)
 -->
<!-- Title: include/JSystem/J2DGraph/J2DAnimation.h Pages: 1 -->
<svg width="4928pt" height="302pt"
 viewBox="0.00 0.00 4927.50 302.00" xmlns="http://www.w3.org/2000/svg" xmlns:xlink="http://www.w3.org/1999/xlink">
<g id="graph0" class="graph" transform="scale(1 1) rotate(0) translate(4 298)">
<title>include/JSystem/J2DGraph/J2DAnimation.h</title>
<!-- Node1 -->
<g id="node1" class="node">
<title>Node1</title>
<g id="a_node1"><a xlink:title=" ">
<polygon fill="#999999" stroke="#666666" points="2679.5,-294 2544.5,-294 2544.5,-264 2679.5,-264 2679.5,-294"/>
<text text-anchor="start" x="2552.5" y="-282" font-family="Helvetica,sans-Serif" font-size="10.00">include/JSystem/J2DGraph</text>
<text text-anchor="middle" x="2612" y="-271" font-family="Helvetica,sans-Serif" font-size="10.00">/J2DAnimation.h</text>
</a>
</g>
</g>
<!-- Node2 -->
<g id="node2" class="node">
<title>Node2</title>
<g id="a_node2"><a xlink:href="J2DAnmLoader_8h.html" target="_top" xlink:title=" ">
<polygon fill="white" stroke="#666666" points="883.5,-162 748.5,-162 748.5,-132 883.5,-132 883.5,-162"/>
<text text-anchor="start" x="756.5" y="-150" font-family="Helvetica,sans-Serif" font-size="10.00">include/JSystem/J2DGraph</text>
<text text-anchor="middle" x="816" y="-139" font-family="Helvetica,sans-Serif" font-size="10.00">/J2DAnmLoader.h</text>
</a>
</g>
</g>
<!-- Node1&#45;&gt;Node2 -->
<g id="edge1" class="edge">
<title>Node1&#45;&gt;Node2</title>
<path fill="none" stroke="#63b8ff" d="M2532.85,-272.27C2232.25,-250.51 1164.25,-173.21 883.84,-152.91"/>
<polygon fill="#63b8ff" stroke="#63b8ff" points="2532.32,-275.74 2542.55,-272.97 2532.83,-268.76 2532.32,-275.74"/>
</g>
<!-- Node15 -->
<g id="node15" class="node">
<title>Node15</title>
<g id="a_node15"><a xlink:href="J2DMaterial_8h.html" target="_top" xlink:title=" ">
<polygon fill="white" stroke="#666666" points="2397.5,-228 2262.5,-228 2262.5,-198 2397.5,-198 2397.5,-228"/>
<text text-anchor="start" x="2270.5" y="-216" font-family="Helvetica,sans-Serif" font-size="10.00">include/JSystem/J2DGraph</text>
<text text-anchor="middle" x="2330" y="-205" font-family="Helvetica,sans-Serif" font-size="10.00">/J2DMaterial.h</text>
</a>
</g>
</g>
<!-- Node1&#45;&gt;Node15 -->
<g id="edge14" class="edge">
<title>Node1&#45;&gt;Node15</title>
<path fill="none" stroke="#63b8ff" d="M2537.23,-261.03C2492.41,-250.86 2436.04,-238.07 2393.41,-228.39"/>
<polygon fill="#63b8ff" stroke="#63b8ff" points="2536.36,-264.42 2546.89,-263.22 2537.91,-257.6 2536.36,-264.42"/>
</g>
<!-- Node70 -->
<g id="node46" class="node">
<title>Node70</title>
<g id="a_node46"><a xlink:href="J2DAnimation_8cpp.html" target="_top" xlink:title=" ">
<polygon fill="white" stroke="#666666" points="2534.5,-228 2415.5,-228 2415.5,-198 2534.5,-198 2534.5,-228"/>
<text text-anchor="start" x="2423.5" y="-216" font-family="Helvetica,sans-Serif" font-size="10.00">libs/JSystem/J2DGraph</text>
<text text-anchor="middle" x="2475" y="-205" font-family="Helvetica,sans-Serif" font-size="10.00">/J2DAnimation.cpp</text>
</a>
</g>
</g>
<!-- Node1&#45;&gt;Node70 -->
<g id="edge54" class="edge">
<title>Node1&#45;&gt;Node70</title>
<path fill="none" stroke="#63b8ff" d="M2571.02,-258.86C2550.04,-249.05 2524.92,-237.32 2505.64,-228.31"/>
<polygon fill="#63b8ff" stroke="#63b8ff" points="2569.34,-261.94 2579.88,-263 2572.3,-255.59 2569.34,-261.94"/>
</g>
<!-- Node71 -->
<g id="node47" class="node">
<title>Node71</title>
<g id="a_node47"><a xlink:href="J2DPane_8cpp.html" target="_top" xlink:title=" ">
<polygon fill="white" stroke="#666666" points="2671.5,-228 2552.5,-228 2552.5,-198 2671.5,-198 2671.5,-228"/>
<text text-anchor="start" x="2560.5" y="-216" font-family="Helvetica,sans-Serif" font-size="10.00">libs/JSystem/J2DGraph</text>
<text text-anchor="middle" x="2612" y="-205" font-family="Helvetica,sans-Serif" font-size="10.00">/J2DPane.cpp</text>
</a>
</g>
</g>
<!-- Node1&#45;&gt;Node71 -->
<g id="edge55" class="edge">
<title>Node1&#45;&gt;Node71</title>
<path fill="none" stroke="#63b8ff" d="M2612,-252.39C2612,-244.13 2612,-235.28 2612,-228.16"/>
<polygon fill="#63b8ff" stroke="#63b8ff" points="2608.5,-252.28 2612,-262.28 2615.5,-252.28 2608.5,-252.28"/>
</g>
<!-- Node72 -->
<g id="node48" class="node">
<title>Node72</title>
<g id="a_node48"><a xlink:href="JPAMath_8cpp.html" target="_top" xlink:title=" ">
<polygon fill="white" stroke="#666666" points="2804,-228 2690,-228 2690,-198 2804,-198 2804,-228"/>
<text text-anchor="start" x="2698" y="-216" font-family="Helvetica,sans-Serif" font-size="10.00">libs/JSystem/JParticle</text>
<text text-anchor="middle" x="2747" y="-205" font-family="Helvetica,sans-Serif" font-size="10.00">/JPAMath.cpp</text>
</a>
</g>
</g>
<!-- Node1&#45;&gt;Node72 -->
<g id="edge56" class="edge">
<title>Node1&#45;&gt;Node72</title>
<path fill="none" stroke="#63b8ff" d="M2652.66,-258.72C2673.28,-248.95 2697.89,-237.28 2716.8,-228.31"/>
<polygon fill="#63b8ff" stroke="#63b8ff" points="2651.2,-255.54 2643.66,-262.99 2654.2,-261.87 2651.2,-255.54"/>
</g>
<!-- Node73 -->
<g id="node49" class="node">
<title>Node73</title>
<g id="a_node49"><a xlink:href="d__select__cursor_8cpp.html" target="_top" xlink:title=" ">
<polygon fill="white" stroke="#666666" points="2950,-222.5 2822,-222.5 2822,-203.5 2950,-203.5 2950,-222.5"/>
<text text-anchor="middle" x="2886" y="-210.5" font-family="Helvetica,sans-Serif" font-size="10.00">src/d/d_select_cursor.cpp</text>
</a>
</g>
</g>
<!-- Node1&#45;&gt;Node73 -->
<g id="edge57" class="edge">
<title>Node1&#45;&gt;Node73</title>
<path fill="none" stroke="#63b8ff" d="M2684.74,-261.01C2737.06,-248.79 2805.55,-232.79 2847.63,-222.96"/>
<polygon fill="#63b8ff" stroke="#63b8ff" points="2684.25,-257.53 2675.31,-263.21 2685.84,-264.35 2684.25,-257.53"/>
</g>
<!-- Node74 -->
<g id="node50" class="node">
<title>Node74</title>
<g id="a_node50"><a xlink:href="d__select__icon_8cpp.html" target="_top" xlink:title=" ">
<polygon fill="white" stroke="#666666" points="3087.5,-222.5 2968.5,-222.5 2968.5,-203.5 3087.5,-203.5 3087.5,-222.5"/>
<text text-anchor="middle" x="3028" y="-210.5" font-family="Helvetica,sans-Serif" font-size="10.00">src/d/d_select_icon.cpp</text>
</a>
</g>
</g>
<!-- Node1&#45;&gt;Node74 -->
<g id="edge58" class="edge">
<title>Node1&#45;&gt;Node74</title>
<path fill="none" stroke="#63b8ff" d="M2690.67,-267.97C2761.13,-258.67 2867.21,-243.91 2959,-228 2967.67,-226.5 2976.92,-224.73 2985.74,-222.97"/>
<polygon fill="#63b8ff" stroke="#63b8ff" points="2690.64,-264.44 2681.18,-269.21 2691.55,-271.38 2690.64,-264.44"/>
</g>
<!-- Node3 -->
<g id="node3" class="node">
<title>Node3</title>
<g id="a_node3"><a xlink:href="J2DAnmLoader__nonmatching_8cpp.html" target="_top" xlink:title=" ">
<polygon fill="white" stroke="#666666" points="414,-96 248,-96 248,-66 414,-66 414,-96"/>
<text text-anchor="start" x="256" y="-84" font-family="Helvetica,sans-Serif" font-size="10.00">libs/JSystem/J2DGraph</text>
<text text-anchor="middle" x="331" y="-73" font-family="Helvetica,sans-Serif" font-size="10.00">/J2DAnmLoader_nonmatching.cpp</text>
</a>
</g>
</g>
<!-- Node2&#45;&gt;Node3 -->
<g id="edge2" class="edge">
<title>Node2&#45;&gt;Node3</title>
<path fill="none" stroke="#63b8ff" d="M736.75,-136.5C657.33,-126.83 531.59,-111.17 423,-96 420.12,-95.6 417.19,-95.18 414.23,-94.76"/>
<polygon fill="#63b8ff" stroke="#63b8ff" points="736.28,-139.96 746.62,-137.69 737.12,-133.01 736.28,-139.96"/>
</g>
<!-- Node4 -->
<g id="node4" class="node">
<title>Node4</title>
<g id="a_node4"><a xlink:href="d__a__alink_8cpp.html" target="_top" xlink:title=" ">
<polygon fill="white" stroke="#666666" points="541.5,-90.5 432.5,-90.5 432.5,-71.5 541.5,-71.5 541.5,-90.5"/>
<text text-anchor="middle" x="487" y="-78.5" font-family="Helvetica,sans-Serif" font-size="10.00">src/d/a/d_a_alink.cpp</text>
</a>
</g>
</g>
<!-- Node2&#45;&gt;Node4 -->
<g id="edge3" class="edge">
<title>Node2&#45;&gt;Node4</title>
<path fill="none" stroke="#63b8ff" d="M736.79,-131.67C684.06,-121.98 613.29,-108.69 551,-96 543.31,-94.43 535.12,-92.69 527.25,-90.99"/>
<polygon fill="#63b8ff" stroke="#63b8ff" points="736.13,-135.11 746.6,-133.47 737.4,-128.23 736.13,-135.11"/>
</g>
<!-- Node5 -->
<g id="node5" class="node">
<title>Node5</title>
<g id="a_node5"><a xlink:href="d__timer_8cpp.html" target="_top" xlink:title=" ">
<polygon fill="white" stroke="#666666" points="1182,-90.5 1090,-90.5 1090,-71.5 1182,-71.5 1182,-90.5"/>
<text text-anchor="middle" x="1136" y="-78.5" font-family="Helvetica,sans-Serif" font-size="10.00">src/d/d_timer.cpp</text>
</a>
</g>
</g>
<!-- Node2&#45;&gt;Node5 -->
<g id="edge4" class="edge">
<title>Node2&#45;&gt;Node5</title>
<path fill="none" stroke="#63b8ff" d="M895.09,-132.42C947.91,-123.02 1018.82,-109.76 1081,-96 1087.83,-94.49 1095.1,-92.74 1102.05,-91"/>
<polygon fill="#63b8ff" stroke="#63b8ff" points="894.5,-128.97 885.26,-134.16 895.72,-135.86 894.5,-128.97"/>
</g>
<!-- Node6 -->
<g id="node6" class="node">
<title>Node6</title>
<g id="a_node6"><a xlink:href="d__file__sel__warning__NONMATCHING_8cpp.html" target="_top" xlink:title=" ">
<polygon fill="white" stroke="#666666" points="1355.5,-96 1200.5,-96 1200.5,-66 1355.5,-66 1355.5,-96"/>
<text text-anchor="start" x="1208.5" y="-84" font-family="Helvetica,sans-Serif" font-size="10.00">src/d/file/d_file_sel</text>
<text text-anchor="middle" x="1278" y="-73" font-family="Helvetica,sans-Serif" font-size="10.00">_warning_NONMATCHING.cpp</text>
</a>
</g>
</g>
<!-- Node2&#45;&gt;Node6 -->
<g id="edge5" class="edge">
<title>Node2&#45;&gt;Node6</title>
<path fill="none" stroke="#63b8ff" d="M895.18,-136.07C971.14,-126.4 1089.02,-111 1191,-96 1194.03,-95.55 1197.11,-95.09 1200.23,-94.62"/>
<polygon fill="#63b8ff" stroke="#63b8ff" points="894.8,-132.59 885.32,-137.33 895.68,-139.54 894.8,-132.59"/>
</g>
<!-- Node7 -->
<g id="node7" class="node">
<title>Node7</title>
<g id="a_node7"><a xlink:href="d__menu__option_8cpp.html" target="_top" xlink:title=" ">
<polygon fill="white" stroke="#666666" points="1588,-24.5 1436,-24.5 1436,-5.5 1588,-5.5 1588,-24.5"/>
<text text-anchor="middle" x="1512" y="-12.5" font-family="Helvetica,sans-Serif" font-size="10.00">src/d/menu/d_menu_option.cpp</text>
</a>
</g>
</g>
<!-- Node2&#45;&gt;Node7 -->
<g id="edge6" class="edge">
<title>Node2&#45;&gt;Node7</title>
<path fill="none" stroke="#63b8ff" d="M814.78,-120.12C815.45,-102.12 819.64,-79.09 835,-66 879.88,-27.76 1268.32,-18.75 1435.74,-16.64"/>
<polygon fill="#63b8ff" stroke="#63b8ff" points="811.28,-120.08 814.78,-130.08 818.28,-120.08 811.28,-120.08"/>
</g>
<!-- Node8 -->
<g id="node8" class="node">
<title>Node8</title>
<g id="a_node8"><a xlink:href="d__meter2__draw_8cpp.html" target="_top" xlink:title=" ">
<polygon fill="white" stroke="#666666" points="1484,-96 1374,-96 1374,-66 1484,-66 1484,-96"/>
<text text-anchor="start" x="1382" y="-84" font-family="Helvetica,sans-Serif" font-size="10.00">src/d/meter/d_meter2</text>
<text text-anchor="middle" x="1429" y="-73" font-family="Helvetica,sans-Serif" font-size="10.00">_draw.cpp</text>
</a>
</g>
</g>
<!-- Node2&#45;&gt;Node8 -->
<g id="edge7" class="edge">
<title>Node2&#45;&gt;Node8</title>
<path fill="none" stroke="#63b8ff" d="M895.13,-141.8C1001.99,-135.44 1198.16,-121.33 1364,-96 1367.2,-95.51 1370.47,-94.96 1373.77,-94.37"/>
<polygon fill="#63b8ff" stroke="#63b8ff" points="895.1,-138.29 885.32,-142.37 895.51,-145.28 895.1,-138.29"/>
</g>
<!-- Node9 -->
<g id="node9" class="node">
<title>Node9</title>
<g id="a_node9"><a xlink:href="d__meter__haihai_8cpp.html" target="_top" xlink:title=" ">
<polygon fill="white" stroke="#666666" points="664,-96 560,-96 560,-66 664,-66 664,-96"/>
<text text-anchor="start" x="568" y="-84" font-family="Helvetica,sans-Serif" font-size="10.00">src/d/meter/d_meter</text>
<text text-anchor="middle" x="612" y="-73" font-family="Helvetica,sans-Serif" font-size="10.00">_haihai.cpp</text>
</a>
</g>
</g>
<!-- Node2&#45;&gt;Node9 -->
<g id="edge8" class="edge">
<title>Node2&#45;&gt;Node9</title>
<path fill="none" stroke="#63b8ff" d="M759.01,-128.12C727.08,-118.1 687.79,-105.78 657.87,-96.39"/>
<polygon fill="#63b8ff" stroke="#63b8ff" points="757.93,-131.45 768.52,-131.1 760.03,-124.77 757.93,-131.45"/>
</g>
<!-- Node10 -->
<g id="node10" class="node">
<title>Node10</title>
<g id="a_node10"><a xlink:href="d__meter__string_8cpp.html" target="_top" xlink:title=" ">
<polygon fill="white" stroke="#666666" points="948,-96 844,-96 844,-66 948,-66 948,-96"/>
<text text-anchor="start" x="852" y="-84" font-family="Helvetica,sans-Serif" font-size="10.00">src/d/meter/d_meter</text>
<text text-anchor="middle" x="896" y="-73" font-family="Helvetica,sans-Serif" font-size="10.00">_string.cpp</text>
</a>
</g>
</g>
<!-- Node2&#45;&gt;Node10 -->
<g id="edge9" class="edge">
<title>Node2&#45;&gt;Node10</title>
<path fill="none" stroke="#63b8ff" d="M842.63,-124.7C854.26,-115.4 867.59,-104.73 878.02,-96.39"/>
<polygon fill="#63b8ff" stroke="#63b8ff" points="840.56,-121.87 834.94,-130.85 844.93,-127.34 840.56,-121.87"/>
</g>
<!-- Node11 -->
<g id="node11" class="node">
<title>Node11</title>
<g id="a_node11"><a xlink:href="d__msg__scrn__arrow_8cpp.html" target="_top" xlink:title=" ">
<polygon fill="white" stroke="#666666" points="788,-96 682,-96 682,-66 788,-66 788,-96"/>
<text text-anchor="start" x="690" y="-84" font-family="Helvetica,sans-Serif" font-size="10.00">src/msg/scrn/d_msg</text>
<text text-anchor="middle" x="735" y="-73" font-family="Helvetica,sans-Serif" font-size="10.00">_scrn_arrow.cpp</text>
</a>
</g>
</g>
<!-- Node2&#45;&gt;Node11 -->
<g id="edge10" class="edge">
<title>Node2&#45;&gt;Node11</title>
<path fill="none" stroke="#63b8ff" d="M789.04,-124.7C777.27,-115.4 763.77,-104.73 753.21,-96.39"/>
<polygon fill="#63b8ff" stroke="#63b8ff" points="786.82,-127.4 796.84,-130.86 791.16,-121.91 786.82,-127.4"/>
</g>
<!-- Node12 -->
<g id="node12" class="node">
<title>Node12</title>
<g id="a_node12"><a xlink:href="d__msg__scrn__kanban_8cpp.html" target="_top" xlink:title=" ">
<polygon fill="white" stroke="#666666" points="1072,-96 966,-96 966,-66 1072,-66 1072,-96"/>
<text text-anchor="start" x="974" y="-84" font-family="Helvetica,sans-Serif" font-size="10.00">src/msg/scrn/d_msg</text>
<text text-anchor="middle" x="1019" y="-73" font-family="Helvetica,sans-Serif" font-size="10.00">_scrn_kanban.cpp</text>
</a>
</g>
</g>
<!-- Node2&#45;&gt;Node12 -->
<g id="edge11" class="edge">
<title>Node2&#45;&gt;Node12</title>
<path fill="none" stroke="#63b8ff" d="M872.72,-128.12C904.49,-118.1 943.58,-105.78 973.36,-96.39"/>
<polygon fill="#63b8ff" stroke="#63b8ff" points="871.74,-124.76 863.25,-131.1 873.84,-131.43 871.74,-124.76"/>
</g>
<!-- Node13 -->
<g id="node13" class="node">
<title>Node13</title>
<g id="a_node13"><a xlink:href="d__msg__scrn__light_8cpp.html" target="_top" xlink:title=" ">
<polygon fill="white" stroke="#666666" points="106,-96 0,-96 0,-66 106,-66 106,-96"/>
<text text-anchor="start" x="8" y="-84" font-family="Helvetica,sans-Serif" font-size="10.00">src/msg/scrn/d_msg</text>
<text text-anchor="middle" x="53" y="-73" font-family="Helvetica,sans-Serif" font-size="10.00">_scrn_light.cpp</text>
</a>
</g>
</g>
<!-- Node2&#45;&gt;Node13 -->
<g id="edge12" class="edge">
<title>Node2&#45;&gt;Node13</title>
<path fill="none" stroke="#63b8ff" d="M737.04,-144.25C606.81,-140.49 339.08,-129.1 115,-96 112.16,-95.58 109.26,-95.1 106.34,-94.58"/>
<polygon fill="#63b8ff" stroke="#63b8ff" points="736.85,-147.74 746.94,-144.52 737.04,-140.74 736.85,-147.74"/>
</g>
<!-- Node14 -->
<g id="node14" class="node">
<title>Node14</title>
<g id="a_node14"><a xlink:href="d__msg__scrn__tree_8cpp.html" target="_top" xlink:title=" ">
<polygon fill="white" stroke="#666666" points="230,-96 124,-96 124,-66 230,-66 230,-96"/>
<text text-anchor="start" x="132" y="-84" font-family="Helvetica,sans-Serif" font-size="10.00">src/msg/scrn/d_msg</text>
<text text-anchor="middle" x="177" y="-73" font-family="Helvetica,sans-Serif" font-size="10.00">_scrn_tree.cpp</text>
</a>
</g>
</g>
<!-- Node2&#45;&gt;Node14 -->
<g id="edge13" class="edge">
<title>Node2&#45;&gt;Node14</title>
<path fill="none" stroke="#63b8ff" d="M736.66,-142.53C625.04,-136.89 415.56,-123.46 239,-96 236.16,-95.56 233.27,-95.06 230.35,-94.53"/>
<polygon fill="#63b8ff" stroke="#63b8ff" points="736.46,-146.03 746.62,-143.03 736.81,-139.04 736.46,-146.03"/>
</g>
<!-- Node16 -->
<g id="node16" class="node">
<title>Node16</title>
<g id="a_node16"><a xlink:href="J2DTextBox_8h.html" target="_top" xlink:title=" ">
<polygon fill="white" stroke="#666666" points="2679.5,-162 2544.5,-162 2544.5,-132 2679.5,-132 2679.5,-162"/>
<text text-anchor="start" x="2552.5" y="-150" font-family="Helvetica,sans-Serif" font-size="10.00">include/JSystem/J2DGraph</text>
<text text-anchor="middle" x="2612" y="-139" font-family="Helvetica,sans-Serif" font-size="10.00">/J2DTextBox.h</text>
</a>
</g>
</g>
<!-- Node15&#45;&gt;Node16 -->
<g id="edge15" class="edge">
<title>Node15&#45;&gt;Node16</title>
<path fill="none" stroke="#63b8ff" d="M2404.77,-195.03C2449.59,-184.86 2505.96,-172.07 2548.59,-162.39"/>
<polygon fill="#63b8ff" stroke="#63b8ff" points="2404.09,-191.6 2395.11,-197.22 2405.64,-198.42 2404.09,-191.6"/>
</g>
<!-- Node62 -->
<g id="node41" class="node">
<title>Node62</title>
<g id="a_node41"><a xlink:href="J2DWindow_8h.html" target="_top" xlink:title=" ">
<polygon fill="#fff0f0" stroke="red" points="3906.5,-162 3771.5,-162 3771.5,-132 3906.5,-132 3906.5,-162"/>
<text text-anchor="start" x="3779.5" y="-150" font-family="Helvetica,sans-Serif" font-size="10.00">include/JSystem/J2DGraph</text>
<text text-anchor="middle" x="3839" y="-139" font-family="Helvetica,sans-Serif" font-size="10.00">/J2DWindow.h</text>
</a>
</g>
</g>
<!-- Node15&#45;&gt;Node62 -->
<g id="edge48" class="edge">
<title>Node15&#45;&gt;Node62</title>
<path fill="none" stroke="#63b8ff" d="M2409.25,-197.91C2698.69,-168.54 3527.74,-153.08 3771.11,-149.06"/>
<polygon fill="#63b8ff" stroke="#63b8ff" points="2409.03,-194.41 2399.45,-198.94 2409.76,-201.38 2409.03,-194.41"/>
</g>
<!-- Node66 -->
<g id="node42" class="node">
<title>Node66</title>
<g id="a_node42"><a xlink:href="J2DMaterial_8cpp.html" target="_top" xlink:title=" ">
<polygon fill="white" stroke="#666666" points="2111.5,-162 1992.5,-162 1992.5,-132 2111.5,-132 2111.5,-162"/>
<text text-anchor="start" x="2000.5" y="-150" font-family="Helvetica,sans-Serif" font-size="10.00">libs/JSystem/J2DGraph</text>
<text text-anchor="middle" x="2052" y="-139" font-family="Helvetica,sans-Serif" font-size="10.00">/J2DMaterial.cpp</text>
</a>
</g>
</g>
<!-- Node15&#45;&gt;Node66 -->
<g id="edge50" class="edge">
<title>Node15&#45;&gt;Node66</title>
<path fill="none" stroke="#63b8ff" d="M2256.06,-194.98C2210.9,-184.58 2153.92,-171.46 2111.65,-161.73"/>
<polygon fill="#63b8ff" stroke="#63b8ff" points="2255.26,-198.39 2265.79,-197.22 2256.83,-191.56 2255.26,-198.39"/>
</g>
<!-- Node67 -->
<g id="node43" class="node">
<title>Node67</title>
<g id="a_node43"><a xlink:href="J2DMaterialFactory_8cpp.html" target="_top" xlink:title=" ">
<polygon fill="white" stroke="#666666" points="2252,-162 2130,-162 2130,-132 2252,-132 2252,-162"/>
<text text-anchor="start" x="2138" y="-150" font-family="Helvetica,sans-Serif" font-size="10.00">libs/JSystem/J2DGraph</text>
<text text-anchor="middle" x="2191" y="-139" font-family="Helvetica,sans-Serif" font-size="10.00">/J2DMaterialFactory.cpp</text>
</a>
</g>
</g>
<!-- Node15&#45;&gt;Node67 -->
<g id="edge51" class="edge">
<title>Node15&#45;&gt;Node67</title>
<path fill="none" stroke="#63b8ff" d="M2288.42,-192.86C2267.13,-183.05 2241.65,-171.32 2222.09,-162.31"/>
<polygon fill="#63b8ff" stroke="#63b8ff" points="2286.88,-196 2297.43,-197 2289.81,-189.64 2286.88,-196"/>
</g>
<!-- Node68 -->
<g id="node44" class="node">
<title>Node68</title>
<g id="a_node44"><a xlink:href="J2DPicture_8cpp.html" target="_top" xlink:title=" ">
<polygon fill="white" stroke="#666666" points="2389.5,-162 2270.5,-162 2270.5,-132 2389.5,-132 2389.5,-162"/>
<text text-anchor="start" x="2278.5" y="-150" font-family="Helvetica,sans-Serif" font-size="10.00">libs/JSystem/J2DGraph</text>
<text text-anchor="middle" x="2330" y="-139" font-family="Helvetica,sans-Serif" font-size="10.00">/J2DPicture.cpp</text>
</a>
</g>
</g>
<!-- Node15&#45;&gt;Node68 -->
<g id="edge52" class="edge">
<title>Node15&#45;&gt;Node68</title>
<path fill="none" stroke="#63b8ff" d="M2330,-186.39C2330,-178.13 2330,-169.28 2330,-162.16"/>
<polygon fill="#63b8ff" stroke="#63b8ff" points="2326.5,-186.28 2330,-196.28 2333.5,-186.28 2326.5,-186.28"/>
</g>
<!-- Node69 -->
<g id="node45" class="node">
<title>Node69</title>
<g id="a_node45"><a xlink:href="J2DPictureEx_8cpp.html" target="_top" xlink:title=" ">
<polygon fill="white" stroke="#666666" points="2526.5,-162 2407.5,-162 2407.5,-132 2526.5,-132 2526.5,-162"/>
<text text-anchor="start" x="2415.5" y="-150" font-family="Helvetica,sans-Serif" font-size="10.00">libs/JSystem/J2DGraph</text>
<text text-anchor="middle" x="2467" y="-139" font-family="Helvetica,sans-Serif" font-size="10.00">/J2DPictureEx.cpp</text>
</a>
</g>
</g>
<!-- Node15&#45;&gt;Node69 -->
<g id="edge53" class="edge">
<title>Node15&#45;&gt;Node69</title>
<path fill="none" stroke="#63b8ff" d="M2370.98,-192.86C2391.96,-183.05 2417.08,-171.32 2436.36,-162.31"/>
<polygon fill="#63b8ff" stroke="#63b8ff" points="2369.7,-189.59 2362.12,-197 2372.66,-195.94 2369.7,-189.59"/>
</g>
<!-- Node16&#45;&gt;Node5 -->
<g id="edge26" class="edge">
<title>Node16&#45;&gt;Node5</title>
<path fill="none" stroke="#63b8ff" d="M2532.7,-131.77C1939.25,-71.02 1779.55,-177.74 1191,-96 1182.9,-94.87 1174.27,-93.01 1166.31,-91"/>
<polygon fill="#63b8ff" stroke="#63b8ff" points="2532.31,-135.25 2542.62,-132.8 2533.03,-128.29 2532.31,-135.25"/>
</g>
<!-- Node16&#45;&gt;Node6 -->
<g id="edge29" class="edge">
<title>Node16&#45;&gt;Node6</title>
<path fill="none" stroke="#63b8ff" d="M2533.01,-131.79C2016.33,-77.64 1879.67,-145.11 1365,-96 1361.95,-95.71 1358.85,-95.38 1355.72,-95.02"/>
<polygon fill="#63b8ff" stroke="#63b8ff" points="2532.3,-135.24 2542.62,-132.81 2533.04,-128.28 2532.3,-135.24"/>
</g>
<!-- Node16&#45;&gt;Node7 -->
<g id="edge36" class="edge">
<title>Node16&#45;&gt;Node7</title>
<path fill="none" stroke="#63b8ff" d="M2532.9,-132.21C2410.98,-126.29 1572.52,-130.04 1531,-96 1509.69,-78.53 1509.71,-41.93 1511.01,-24.98"/>
<polygon fill="#63b8ff" stroke="#63b8ff" points="2532.39,-135.69 2542.61,-132.88 2532.87,-128.7 2532.39,-135.69"/>
</g>
<!-- Node16&#45;&gt;Node8 -->
<g id="edge39" class="edge">
<title>Node16&#45;&gt;Node8</title>
<path fill="none" stroke="#63b8ff" d="M2532.9,-131.78C2075.13,-83.14 1952.74,-149.64 1498,-96 1493.51,-95.47 1488.87,-94.8 1484.23,-94.04"/>
<polygon fill="#63b8ff" stroke="#63b8ff" points="2532.3,-135.23 2542.62,-132.82 2533.05,-128.27 2532.3,-135.23"/>
</g>
<!-- Node16&#45;&gt;Node10 -->
<g id="edge41" class="edge">
<title>Node16&#45;&gt;Node10</title>
<path fill="none" stroke="#63b8ff" d="M2532.79,-131.79C1835.73,-61.5 1649.81,-182.49 957,-96 954.2,-95.65 951.33,-95.23 948.45,-94.75"/>
<polygon fill="#63b8ff" stroke="#63b8ff" points="2532.32,-135.26 2542.62,-132.79 2533.03,-128.29 2532.32,-135.26"/>
</g>
<!-- Node16&#45;&gt;Node12 -->
<g id="edge47" class="edge">
<title>Node16&#45;&gt;Node12</title>
<path fill="none" stroke="#63b8ff" d="M2532.72,-131.78C1890.59,-66.49 1719.18,-175.16 1081,-96 1078.15,-95.65 1075.24,-95.22 1072.32,-94.74"/>
<polygon fill="#63b8ff" stroke="#63b8ff" points="2532.31,-135.25 2542.62,-132.79 2533.03,-128.29 2532.31,-135.25"/>
</g>
<!-- Node17 -->
<g id="node17" class="node">
<title>Node17</title>
<g id="a_node17"><a xlink:href="J2DPrint_8h.html" target="_top" xlink:title=" ">
<polygon fill="#fff0f0" stroke="red" points="3068.5,-96 2933.5,-96 2933.5,-66 3068.5,-66 3068.5,-96"/>
<text text-anchor="start" x="2941.5" y="-84" font-family="Helvetica,sans-Serif" font-size="10.00">include/JSystem/J2DGraph</text>
<text text-anchor="middle" x="3001" y="-73" font-family="Helvetica,sans-Serif" font-size="10.00">/J2DPrint.h</text>
</a>
</g>
</g>
<!-- Node16&#45;&gt;Node17 -->
<g id="edge16" class="edge">
<title>Node16&#45;&gt;Node17</title>
<path fill="none" stroke="#63b8ff" d="M2690.95,-133.92C2754.29,-124.1 2845.44,-109.68 2925,-96 2927.64,-95.55 2930.34,-95.08 2933.06,-94.6"/>
<polygon fill="#63b8ff" stroke="#63b8ff" points="2690.69,-130.42 2681.35,-135.41 2691.76,-137.34 2690.69,-130.42"/>
</g>
<!-- Node19 -->
<g id="node18" class="node">
<title>Node19</title>
<g id="a_node18"><a xlink:href="J2DTextBox_8cpp.html" target="_top" xlink:title=" ">
<polygon fill="white" stroke="#666666" points="2403.5,-30 2284.5,-30 2284.5,0 2403.5,0 2403.5,-30"/>
<text text-anchor="start" x="2292.5" y="-18" font-family="Helvetica,sans-Serif" font-size="10.00">libs/JSystem/J2DGraph</text>
<text text-anchor="middle" x="2344" y="-7" font-family="Helvetica,sans-Serif" font-size="10.00">/J2DTextBox.cpp</text>
</a>
</g>
</g>
<!-- Node16&#45;&gt;Node19 -->
<g id="edge23" class="edge">
<title>Node16&#45;&gt;Node19</title>
<path fill="none" stroke="#63b8ff" d="M2532.76,-132.23C2424.15,-126.96 1737.45,-127.8 1707,-96 1697.78,-86.37 1697.95,-75.79 1707,-66 1745.71,-24.13 2133.21,-17.26 2284.21,-16.18"/>
<polygon fill="#63b8ff" stroke="#63b8ff" points="2532.39,-135.71 2542.61,-132.91 2532.87,-128.73 2532.39,-135.71"/>
</g>
<!-- Node22 -->
<g id="node19" class="node">
<title>Node22</title>
<g id="a_node19"><a xlink:href="J2DTextBoxEx_8h.html" target="_top" xlink:title=" ">
<polygon fill="#fff0f0" stroke="red" points="1851.5,-96 1716.5,-96 1716.5,-66 1851.5,-66 1851.5,-96"/>
<text text-anchor="start" x="1724.5" y="-84" font-family="Helvetica,sans-Serif" font-size="10.00">include/JSystem/J2DGraph</text>
<text text-anchor="middle" x="1784" y="-73" font-family="Helvetica,sans-Serif" font-size="10.00">/J2DTextBoxEx.h</text>
</a>
</g>
</g>
<!-- Node16&#45;&gt;Node22 -->
<g id="edge18" class="edge">
<title>Node16&#45;&gt;Node22</title>
<path fill="none" stroke="#63b8ff" d="M2532.99,-131.75C2235.71,-97.54 2155.75,-130.51 1861,-96 1858.03,-95.65 1855,-95.26 1851.95,-94.84"/>
<polygon fill="#63b8ff" stroke="#63b8ff" points="2532.27,-135.19 2542.61,-132.87 2533.08,-128.23 2532.27,-135.19"/>
</g>
<!-- Node24 -->
<g id="node20" class="node">
<title>Node24</title>
<g id="a_node20"><a xlink:href="d__menu__calibration_8h.html" target="_top" xlink:title=" ">
<polygon fill="#fff0f0" stroke="red" points="1660,-96 1540,-96 1540,-66 1660,-66 1660,-96"/>
<text text-anchor="start" x="1548" y="-84" font-family="Helvetica,sans-Serif" font-size="10.00">include/d/menu/d_menu</text>
<text text-anchor="middle" x="1600" y="-73" font-family="Helvetica,sans-Serif" font-size="10.00">_calibration.h</text>
</a>
</g>
</g>
<!-- Node16&#45;&gt;Node24 -->
<g id="edge19" class="edge">
<title>Node16&#45;&gt;Node24</title>
<path fill="none" stroke="#63b8ff" d="M2532.8,-131.75C2152.98,-90.14 2051.22,-139.33 1674,-96 1669.58,-95.49 1665.03,-94.87 1660.47,-94.18"/>
<polygon fill="#63b8ff" stroke="#63b8ff" points="2532.29,-135.21 2542.61,-132.84 2533.06,-128.26 2532.29,-135.21"/>
</g>
<!-- Node26 -->
<g id="node21" class="node">
<title>Node26</title>
<g id="a_node21"><a xlink:href="d__meter__button_8h.html" target="_top" xlink:title=" ">
<polygon fill="#fff0f0" stroke="red" points="1992,-96 1870,-96 1870,-66 1992,-66 1992,-96"/>
<text text-anchor="start" x="1878" y="-84" font-family="Helvetica,sans-Serif" font-size="10.00">include/d/meter/d_meter</text>
<text text-anchor="middle" x="1931" y="-73" font-family="Helvetica,sans-Serif" font-size="10.00">_button.h</text>
</a>
</g>
</g>
<!-- Node16&#45;&gt;Node26 -->
<g id="edge21" class="edge">
<title>Node16&#45;&gt;Node26</title>
<path fill="none" stroke="#63b8ff" d="M2532.78,-131.69C2297.55,-103.13 2233.54,-126.94 2001,-96 1998.17,-95.62 1995.29,-95.2 1992.38,-94.75"/>
<polygon fill="#63b8ff" stroke="#63b8ff" points="2532.25,-135.16 2542.61,-132.91 2533.11,-128.21 2532.25,-135.16"/>
</g>
<!-- Node29 -->
<g id="node22" class="node">
<title>Node29</title>
<g id="a_node22"><a xlink:href="d__msg__scrn__base_8h.html" target="_top" xlink:title=" ">
<polygon fill="#fff0f0" stroke="red" points="2109.5,-96 2010.5,-96 2010.5,-66 2109.5,-66 2109.5,-96"/>
<text text-anchor="start" x="2018.5" y="-84" font-family="Helvetica,sans-Serif" font-size="10.00">include/msg/scrn/d</text>
<text text-anchor="middle" x="2060" y="-73" font-family="Helvetica,sans-Serif" font-size="10.00">_msg_scrn_base.h</text>
</a>
</g>
</g>
<!-- Node16&#45;&gt;Node29 -->
<g id="edge22" class="edge">
<title>Node16&#45;&gt;Node29</title>
<path fill="none" stroke="#63b8ff" d="M2532.96,-131.68C2349.24,-107.8 2298.45,-125.38 2118,-96 2115.34,-95.57 2112.63,-95.08 2109.89,-94.55"/>
<polygon fill="#63b8ff" stroke="#63b8ff" points="2532.23,-135.11 2542.6,-132.96 2533.15,-128.17 2532.23,-135.11"/>
</g>
<!-- Node44 -->
<g id="node23" class="node">
<title>Node44</title>
<g id="a_node23"><a xlink:href="d__bright__check_8cpp.html" target="_top" xlink:title=" ">
<polygon fill="white" stroke="#666666" points="2252.5,-90.5 2127.5,-90.5 2127.5,-71.5 2252.5,-71.5 2252.5,-90.5"/>
<text text-anchor="middle" x="2190" y="-78.5" font-family="Helvetica,sans-Serif" font-size="10.00">src/d/d_bright_check.cpp</text>
</a>
</g>
</g>
<!-- Node16&#45;&gt;Node44 -->
<g id="edge24" class="edge">
<title>Node16&#45;&gt;Node44</title>
<path fill="none" stroke="#63b8ff" d="M2532.95,-131.57C2412.76,-113.02 2379.68,-115.15 2262,-96 2252.82,-94.51 2243.03,-92.73 2233.71,-90.94"/>
<polygon fill="#63b8ff" stroke="#63b8ff" points="2532.16,-134.99 2542.58,-133.08 2533.24,-128.07 2532.16,-134.99"/>
</g>
<!-- Node45 -->
<g id="node24" class="node">
<title>Node45</title>
<g id="a_node24"><a xlink:href="d__name_8cpp.html" target="_top" xlink:title=" ">
<polygon fill="white" stroke="#666666" points="2365,-90.5 2271,-90.5 2271,-71.5 2365,-71.5 2365,-90.5"/>
<text text-anchor="middle" x="2318" y="-78.5" font-family="Helvetica,sans-Serif" font-size="10.00">src/d/d_name.cpp</text>
</a>
</g>
</g>
<!-- Node16&#45;&gt;Node45 -->
<g id="edge25" class="edge">
<title>Node16&#45;&gt;Node45</title>
<path fill="none" stroke="#63b8ff" d="M2533.05,-130.02C2486.89,-120.51 2427.55,-107.99 2375,-96 2368.15,-94.44 2360.84,-92.7 2353.84,-90.99"/>
<polygon fill="#63b8ff" stroke="#63b8ff" points="2532.21,-133.42 2542.71,-132.01 2533.62,-126.57 2532.21,-133.42"/>
</g>
<!-- Node46 -->
<g id="node25" class="node">
<title>Node46</title>
<g id="a_node25"><a xlink:href="d__file__sel__info_8cpp.html" target="_top" xlink:title=" ">
<polygon fill="white" stroke="#666666" points="2480.5,-96 2383.5,-96 2383.5,-66 2480.5,-66 2480.5,-96"/>
<text text-anchor="start" x="2391.5" y="-84" font-family="Helvetica,sans-Serif" font-size="10.00">src/d/file/d_file_sel</text>
<text text-anchor="middle" x="2432" y="-73" font-family="Helvetica,sans-Serif" font-size="10.00">_info.cpp</text>
</a>
</g>
</g>
<!-- Node16&#45;&gt;Node46 -->
<g id="edge27" class="edge">
<title>Node16&#45;&gt;Node46</title>
<path fill="none" stroke="#63b8ff" d="M2560.83,-127.8C2532.85,-117.86 2498.69,-105.71 2472.57,-96.43"/>
<polygon fill="#63b8ff" stroke="#63b8ff" points="2559.58,-131.08 2570.18,-131.13 2561.93,-124.48 2559.58,-131.08"/>
</g>
<!-- Node47 -->
<g id="node26" class="node">
<title>Node47</title>
<g id="a_node26"><a xlink:href="d__file__sel__warning_8cpp.html" target="_top" xlink:title=" ">
<polygon fill="white" stroke="#666666" points="2595.5,-96 2498.5,-96 2498.5,-66 2595.5,-66 2595.5,-96"/>
<text text-anchor="start" x="2506.5" y="-84" font-family="Helvetica,sans-Serif" font-size="10.00">src/d/file/d_file_sel</text>
<text text-anchor="middle" x="2547" y="-73" font-family="Helvetica,sans-Serif" font-size="10.00">_warning.cpp</text>
</a>
</g>
</g>
<!-- Node16&#45;&gt;Node47 -->
<g id="edge28" class="edge">
<title>Node16&#45;&gt;Node47</title>
<path fill="none" stroke="#63b8ff" d="M2589.46,-123.81C2580.15,-114.64 2569.62,-104.28 2561.39,-96.16"/>
<polygon fill="#63b8ff" stroke="#63b8ff" points="2586.91,-126.21 2596.5,-130.73 2591.83,-121.22 2586.91,-126.21"/>
</g>
<!-- Node48 -->
<g id="node27" class="node">
<title>Node48</title>
<g id="a_node27"><a xlink:href="d__file__select_8cpp.html" target="_top" xlink:title=" ">
<polygon fill="white" stroke="#666666" points="2742,-90.5 2614,-90.5 2614,-71.5 2742,-71.5 2742,-90.5"/>
<text text-anchor="middle" x="2678" y="-78.5" font-family="Helvetica,sans-Serif" font-size="10.00">src/d/file/d_file_select.cpp</text>
</a>
</g>
</g>
<!-- Node16&#45;&gt;Node48 -->
<g id="edge30" class="edge">
<title>Node16&#45;&gt;Node48</title>
<path fill="none" stroke="#63b8ff" d="M2634.75,-123.94C2646.46,-112.58 2660.1,-99.36 2668.88,-90.84"/>
<polygon fill="#63b8ff" stroke="#63b8ff" points="2632.48,-121.27 2627.73,-130.74 2637.35,-126.29 2632.48,-121.27"/>
</g>
<!-- Node49 -->
<g id="node28" class="node">
<title>Node49</title>
<g id="a_node28"><a xlink:href="d__menu__collect_8cpp.html" target="_top" xlink:title=" ">
<polygon fill="white" stroke="#666666" points="2915.5,-90.5 2760.5,-90.5 2760.5,-71.5 2915.5,-71.5 2915.5,-90.5"/>
<text text-anchor="middle" x="2838" y="-78.5" font-family="Helvetica,sans-Serif" font-size="10.00">src/d/menu/d_menu_collect.cpp</text>
</a>
</g>
</g>
<!-- Node16&#45;&gt;Node49 -->
<g id="edge31" class="edge">
<title>Node16&#45;&gt;Node49</title>
<path fill="none" stroke="#63b8ff" d="M2673.9,-128.47C2716.8,-116.32 2772.15,-100.65 2806.35,-90.96"/>
<polygon fill="#63b8ff" stroke="#63b8ff" points="2673.12,-125.05 2664.46,-131.14 2675.03,-131.79 2673.12,-125.05"/>
</g>
<!-- Node50 -->
<g id="node29" class="node">
<title>Node50</title>
<g id="a_node29"><a xlink:href="d__menu__fishing_8cpp.html" target="_top" xlink:title=" ">
<polygon fill="white" stroke="#666666" points="3241,-90.5 3087,-90.5 3087,-71.5 3241,-71.5 3241,-90.5"/>
<text text-anchor="middle" x="3164" y="-78.5" font-family="Helvetica,sans-Serif" font-size="10.00">src/d/menu/d_menu_fishing.cpp</text>
</a>
</g>
</g>
<!-- Node16&#45;&gt;Node50 -->
<g id="edge32" class="edge">
<title>Node16&#45;&gt;Node50</title>
<path fill="none" stroke="#63b8ff" d="M2690.93,-138.85C2783.74,-130.14 2942.34,-114.31 3078,-96 3088.94,-94.52 3100.64,-92.75 3111.77,-90.97"/>
<polygon fill="#63b8ff" stroke="#63b8ff" points="2690.8,-135.35 2681.17,-139.77 2691.45,-142.32 2690.8,-135.35"/>
</g>
<!-- Node51 -->
<g id="node30" class="node">
<title>Node51</title>
<g id="a_node30"><a xlink:href="d__menu__insect_8cpp.html" target="_top" xlink:title=" ">
<polygon fill="white" stroke="#666666" points="3411,-90.5 3259,-90.5 3259,-71.5 3411,-71.5 3411,-90.5"/>
<text text-anchor="middle" x="3335" y="-78.5" font-family="Helvetica,sans-Serif" font-size="10.00">src/d/menu/d_menu_insect.cpp</text>
</a>
</g>
</g>
<!-- Node16&#45;&gt;Node51 -->
<g id="edge33" class="edge">
<title>Node16&#45;&gt;Node51</title>
<path fill="none" stroke="#63b8ff" d="M2691.02,-141.97C2811.79,-135.33 3049.39,-120.34 3250,-96 3261.43,-94.61 3273.68,-92.79 3285.21,-90.93"/>
<polygon fill="#63b8ff" stroke="#63b8ff" points="2691.01,-138.47 2681.22,-142.51 2691.39,-145.46 2691.01,-138.47"/>
</g>
<!-- Node52 -->
<g id="node31" class="node">
<title>Node52</title>
<g id="a_node31"><a xlink:href="d__menu__item__explain_8cpp.html" target="_top" xlink:title=" ">
<polygon fill="white" stroke="#666666" points="3556.5,-96 3429.5,-96 3429.5,-66 3556.5,-66 3556.5,-96"/>
<text text-anchor="start" x="3437.5" y="-84" font-family="Helvetica,sans-Serif" font-size="10.00">src/d/menu/d_menu_item</text>
<text text-anchor="middle" x="3493" y="-73" font-family="Helvetica,sans-Serif" font-size="10.00">_explain.cpp</text>
</a>
</g>
</g>
<!-- Node16&#45;&gt;Node52 -->
<g id="edge34" class="edge">
<title>Node16&#45;&gt;Node52</title>
<path fill="none" stroke="#63b8ff" d="M2691.25,-144.45C2836.35,-140.87 3154.25,-129.57 3420,-96 3423.07,-95.61 3426.21,-95.17 3429.38,-94.7"/>
<polygon fill="#63b8ff" stroke="#63b8ff" points="2691.27,-140.95 2681.36,-144.69 2691.44,-147.95 2691.27,-140.95"/>
</g>
<!-- Node53 -->
<g id="node32" class="node">
<title>Node53</title>
<g id="a_node32"><a xlink:href="d__menu__letter_8cpp.html" target="_top" xlink:title=" ">
<polygon fill="white" stroke="#666666" points="3723,-90.5 3575,-90.5 3575,-71.5 3723,-71.5 3723,-90.5"/>
<text text-anchor="middle" x="3649" y="-78.5" font-family="Helvetica,sans-Serif" font-size="10.00">src/d/menu/d_menu_letter.cpp</text>
</a>
</g>
</g>
<!-- Node16&#45;&gt;Node53 -->
<g id="edge35" class="edge">
<title>Node16&#45;&gt;Node53</title>
<path fill="none" stroke="#63b8ff" d="M2691.29,-144.92C2855.14,-142 3242.81,-131.61 3566,-96 3577.62,-94.72 3590.08,-92.87 3601.73,-90.94"/>
<polygon fill="#63b8ff" stroke="#63b8ff" points="2691.33,-141.41 2681.4,-145.09 2691.45,-148.41 2691.33,-141.41"/>
</g>
<!-- Node54 -->
<g id="node33" class="node">
<title>Node54</title>
<g id="a_node33"><a xlink:href="d__menu__ring_8cpp.html" target="_top" xlink:title=" ">
<polygon fill="white" stroke="#666666" points="3883,-90.5 3741,-90.5 3741,-71.5 3883,-71.5 3883,-90.5"/>
<text text-anchor="middle" x="3812" y="-78.5" font-family="Helvetica,sans-Serif" font-size="10.00">src/d/menu/d_menu_ring.cpp</text>
</a>
</g>
</g>
<!-- Node16&#45;&gt;Node54 -->
<g id="edge37" class="edge">
<title>Node16&#45;&gt;Node54</title>
<path fill="none" stroke="#63b8ff" d="M2691.19,-145.96C2874.72,-145.09 3343.21,-138.52 3732,-96 3743.35,-94.76 3755.53,-92.9 3766.88,-90.94"/>
<polygon fill="#63b8ff" stroke="#63b8ff" points="2691.27,-142.46 2681.29,-146 2691.3,-149.46 2691.27,-142.46"/>
</g>
<!-- Node55 -->
<g id="node34" class="node">
<title>Node55</title>
<g id="a_node34"><a xlink:href="d__menu__skill_8cpp.html" target="_top" xlink:title=" ">
<polygon fill="white" stroke="#666666" points="4044.5,-90.5 3901.5,-90.5 3901.5,-71.5 4044.5,-71.5 4044.5,-90.5"/>
<text text-anchor="middle" x="3973" y="-78.5" font-family="Helvetica,sans-Serif" font-size="10.00">src/d/menu/d_menu_skill.cpp</text>
</a>
</g>
</g>
<!-- Node16&#45;&gt;Node55 -->
<g id="edge38" class="edge">
<title>Node16&#45;&gt;Node55</title>
<path fill="none" stroke="#63b8ff" d="M2691.2,-146.53C2892.41,-147.11 3439.38,-143.74 3892,-96 3903.5,-94.79 3915.83,-92.94 3927.31,-90.98"/>
<polygon fill="#63b8ff" stroke="#63b8ff" points="2691.4,-143.04 2681.39,-146.5 2691.38,-150.04 2691.4,-143.04"/>
</g>
<!-- Node56 -->
<g id="node35" class="node">
<title>Node56</title>
<g id="a_node35"><a xlink:href="d__meter2__info_8cpp.html" target="_top" xlink:title=" ">
<polygon fill="white" stroke="#666666" points="4173,-96 4063,-96 4063,-66 4173,-66 4173,-96"/>
<text text-anchor="start" x="4071" y="-84" font-family="Helvetica,sans-Serif" font-size="10.00">src/d/meter/d_meter2</text>
<text text-anchor="middle" x="4118" y="-73" font-family="Helvetica,sans-Serif" font-size="10.00">_info.cpp</text>
</a>
</g>
</g>
<!-- Node16&#45;&gt;Node56 -->
<g id="edge40" class="edge">
<title>Node16&#45;&gt;Node56</title>
<path fill="none" stroke="#63b8ff" d="M2691.26,-145.14C2952.82,-142 3787.06,-129.55 4054,-96 4056.82,-95.65 4059.7,-95.23 4062.6,-94.76"/>
<polygon fill="#63b8ff" stroke="#63b8ff" points="2691.45,-141.64 2681.49,-145.25 2691.53,-148.64 2691.45,-141.64"/>
</g>
<!-- Node57 -->
<g id="node36" class="node">
<title>Node57</title>
<g id="a_node36"><a xlink:href="d__msg__class_8cpp.html" target="_top" xlink:title=" ">
<polygon fill="white" stroke="#666666" points="4330.5,-90.5 4191.5,-90.5 4191.5,-71.5 4330.5,-71.5 4330.5,-90.5"/>
<text text-anchor="middle" x="4261" y="-78.5" font-family="Helvetica,sans-Serif" font-size="10.00">src/d/msg/d_msg_class.cpp</text>
</a>
</g>
</g>
<!-- Node16&#45;&gt;Node57 -->
<g id="edge42" class="edge">
<title>Node16&#45;&gt;Node57</title>
<path fill="none" stroke="#63b8ff" d="M2691.1,-144.98C2967.33,-141.2 3888.19,-126.55 4182,-96 4193.36,-94.82 4205.55,-92.96 4216.87,-90.97"/>
<polygon fill="#63b8ff" stroke="#63b8ff" points="2691.06,-141.48 2681.11,-145.12 2691.16,-148.48 2691.06,-141.48"/>
</g>
<!-- Node58 -->
<g id="node37" class="node">
<title>Node58</title>
<g id="a_node37"><a xlink:href="d__msg__out__font_8cpp.html" target="_top" xlink:title=" ">
<polygon fill="white" stroke="#666666" points="4459.5,-96 4348.5,-96 4348.5,-66 4459.5,-66 4459.5,-96"/>
<text text-anchor="start" x="4356.5" y="-84" font-family="Helvetica,sans-Serif" font-size="10.00">src/d/msg/d_msg_out</text>
<text text-anchor="middle" x="4404" y="-73" font-family="Helvetica,sans-Serif" font-size="10.00">_font.cpp</text>
</a>
</g>
</g>
<!-- Node16&#45;&gt;Node58 -->
<g id="edge43" class="edge">
<title>Node16&#45;&gt;Node58</title>
<path fill="none" stroke="#63b8ff" d="M2691.1,-145.67C2985.07,-144.13 4014.44,-135.96 4340,-96 4342.71,-95.67 4345.47,-95.27 4348.26,-94.83"/>
<polygon fill="#63b8ff" stroke="#63b8ff" points="2691.21,-142.17 2681.23,-145.72 2691.25,-149.17 2691.21,-142.17"/>
</g>
<!-- Node59 -->
<g id="node38" class="node">
<title>Node59</title>
<g id="a_node38"><a xlink:href="d__msg__string_8cpp.html" target="_top" xlink:title=" ">
<polygon fill="white" stroke="#666666" points="4618,-90.5 4478,-90.5 4478,-71.5 4618,-71.5 4618,-90.5"/>
<text text-anchor="middle" x="4548" y="-78.5" font-family="Helvetica,sans-Serif" font-size="10.00">src/d/msg/d_msg_string.cpp</text>
</a>
</g>
</g>
<!-- Node16&#45;&gt;Node59 -->
<g id="edge44" class="edge">
<title>Node16&#45;&gt;Node59</title>
<path fill="none" stroke="#63b8ff" d="M2691.23,-145.43C2999.08,-142.99 4116.17,-131.81 4469,-96 4480.5,-94.83 4492.85,-92.95 4504.29,-90.94"/>
<polygon fill="#63b8ff" stroke="#63b8ff" points="2691.24,-141.93 2681.27,-145.51 2691.3,-148.93 2691.24,-141.93"/>
</g>
<!-- Node60 -->
<g id="node39" class="node">
<title>Node60</title>
<g id="a_node39"><a xlink:href="d__msg__string__base_8cpp.html" target="_top" xlink:title=" ">
<polygon fill="white" stroke="#666666" points="4758,-96 4636,-96 4636,-66 4758,-66 4758,-96"/>
<text text-anchor="start" x="4644" y="-84" font-family="Helvetica,sans-Serif" font-size="10.00">src/d/msg/d_msg_string</text>
<text text-anchor="middle" x="4697" y="-73" font-family="Helvetica,sans-Serif" font-size="10.00">_base.cpp</text>
</a>
</g>
</g>
<!-- Node16&#45;&gt;Node60 -->
<g id="edge45" class="edge">
<title>Node16&#45;&gt;Node60</title>
<path fill="none" stroke="#63b8ff" d="M2691.39,-144.84C3040.74,-139.63 4432.61,-117.69 4627,-96 4629.83,-95.68 4632.72,-95.31 4635.63,-94.9"/>
<polygon fill="#63b8ff" stroke="#63b8ff" points="2691.35,-141.34 2681.4,-144.99 2691.45,-148.34 2691.35,-141.34"/>
</g>
<!-- Node61 -->
<g id="node40" class="node">
<title>Node61</title>
<g id="a_node40"><a xlink:href="d__pane__class_8cpp.html" target="_top" xlink:title=" ">
<polygon fill="white" stroke="#666666" points="4919.5,-90.5 4776.5,-90.5 4776.5,-71.5 4919.5,-71.5 4919.5,-90.5"/>
<text text-anchor="middle" x="4848" y="-78.5" font-family="Helvetica,sans-Serif" font-size="10.00">src/d/pane/d_pane_class.cpp</text>
</a>
</g>
</g>
<!-- Node16&#45;&gt;Node61 -->
<g id="edge46" class="edge">
<title>Node16&#45;&gt;Node61</title>
<path fill="none" stroke="#63b8ff" d="M2691.46,-144.85C3055.78,-139.51 4557.78,-116.39 4767,-96 4778.79,-94.85 4791.45,-92.98 4803.17,-90.96"/>
<polygon fill="#63b8ff" stroke="#63b8ff" points="2691.45,-141.35 2681.51,-145 2691.56,-148.35 2691.45,-141.35"/>
</g>
<!-- Node17&#45;&gt;Node19 -->
<g id="edge17" class="edge">
<title>Node17&#45;&gt;Node19</title>
<path fill="none" stroke="#63b8ff" d="M2921.77,-65.64C2726.79,-39.86 2507.05,-25.25 2403.59,-19.23"/>
<polygon fill="#63b8ff" stroke="#63b8ff" points="2921.22,-69.1 2931.6,-66.96 2922.15,-62.16 2921.22,-69.1"/>
</g>
<!-- Node24&#45;&gt;Node7 -->
<g id="edge20" class="edge">
<title>Node24&#45;&gt;Node7</title>
<path fill="none" stroke="#63b8ff" d="M1571.48,-59.26C1555.47,-47.61 1536.32,-33.69 1524.16,-24.84"/>
<polygon fill="#63b8ff" stroke="#63b8ff" points="1569.1,-61.85 1579.25,-64.91 1573.22,-56.19 1569.1,-61.85"/>
</g>
<!-- Node62&#45;&gt;Node61 -->
<g id="edge49" class="edge">
<title>Node62&#45;&gt;Node61</title>
<path fill="none" stroke="#63b8ff" d="M3917.94,-144.87C4078.37,-141.88 4453.87,-131.37 4767,-96 4778.34,-94.72 4790.51,-92.87 4801.87,-90.94"/>
<polygon fill="#63b8ff" stroke="#63b8ff" points="3918.21,-141.36 3908.27,-145.04 3918.34,-148.36 3918.21,-141.36"/>
</g>
</g>
</svg>
