<?xml version="1.0" encoding="UTF-8" standalone="no"?>
<!DOCTYPE svg PUBLIC "-//W3C//DTD SVG 1.1//EN"
 "http://www.w3.org/Graphics/SVG/1.1/DTD/svg11.dtd">
<!-- Generated by graphviz version 7.0.5 (20221223.1930)
 -->
<!-- Title: include/JSystem/J2DGraph/J2DGrafContext.h Pages: 1 -->
<svg width="1473pt" height="170pt"
 viewBox="0.00 0.00 1472.50 170.00" xmlns="http://www.w3.org/2000/svg" xmlns:xlink="http://www.w3.org/1999/xlink">
<g id="graph0" class="graph" transform="scale(1 1) rotate(0) translate(4 166)">
<title>include/JSystem/J2DGraph/J2DGrafContext.h</title>
<!-- Node1 -->
<g id="node1" class="node">
<title>Node1</title>
<g id="a_node1"><a xlink:title=" ">
<polygon fill="#999999" stroke="#666666" points="1025,-162 890,-162 890,-132 1025,-132 1025,-162"/>
<text text-anchor="start" x="898" y="-150" font-family="Helvetica,sans-Serif" font-size="10.00">include/JSystem/J2DGraph</text>
<text text-anchor="middle" x="957.5" y="-139" font-family="Helvetica,sans-Serif" font-size="10.00">/J2DGrafContext.h</text>
</a>
</g>
</g>
<!-- Node2 -->
<g id="node2" class="node">
<title>Node2</title>
<g id="a_node2"><a xlink:href="J2DOrthoGraph_8h.html" target="_top" xlink:title=" ">
<polygon fill="white" stroke="#666666" points="680,-96 545,-96 545,-66 680,-66 680,-96"/>
<text text-anchor="start" x="553" y="-84" font-family="Helvetica,sans-Serif" font-size="10.00">include/JSystem/J2DGraph</text>
<text text-anchor="middle" x="612.5" y="-73" font-family="Helvetica,sans-Serif" font-size="10.00">/J2DOrthoGraph.h</text>
</a>
</g>
</g>
<!-- Node1&#45;&gt;Node2 -->
<g id="edge1" class="edge">
<title>Node1&#45;&gt;Node2</title>
<path fill="none" stroke="#63b8ff" d="M878.46,-131.34C818.63,-120.24 737.3,-105.15 680.39,-94.59"/>
<polygon fill="#63b8ff" stroke="#63b8ff" points="877.79,-134.77 888.26,-133.16 879.07,-127.89 877.79,-134.77"/>
</g>
<!-- Node4 -->
<g id="node4" class="node">
<title>Node4</title>
<g id="a_node4"><a xlink:href="J2DPane_8cpp.html" target="_top" xlink:title=" ">
<polygon fill="white" stroke="#666666" points="119,-30 0,-30 0,0 119,0 119,-30"/>
<text text-anchor="start" x="8" y="-18" font-family="Helvetica,sans-Serif" font-size="10.00">libs/JSystem/J2DGraph</text>
<text text-anchor="middle" x="59.5" y="-7" font-family="Helvetica,sans-Serif" font-size="10.00">/J2DPane.cpp</text>
</a>
</g>
</g>
<!-- Node1&#45;&gt;Node4 -->
<g id="edge13" class="edge">
<title>Node1&#45;&gt;Node4</title>
<path fill="none" stroke="#63b8ff" d="M878.24,-137.59C793.52,-128.36 655.32,-112.64 536.5,-96 354.15,-70.47 308.6,-63.24 127.5,-30 124.77,-29.5 121.99,-28.98 119.18,-28.44"/>
<polygon fill="#63b8ff" stroke="#63b8ff" points="877.75,-141.05 888.07,-138.65 878.51,-134.09 877.75,-141.05"/>
</g>
<!-- Node13 -->
<g id="node13" class="node">
<title>Node13</title>
<g id="a_node13"><a xlink:href="J2DGrafContext_8cpp.html" target="_top" xlink:title=" ">
<polygon fill="white" stroke="#666666" points="817,-96 698,-96 698,-66 817,-66 817,-96"/>
<text text-anchor="start" x="706" y="-84" font-family="Helvetica,sans-Serif" font-size="10.00">libs/JSystem/J2DGraph</text>
<text text-anchor="middle" x="757.5" y="-73" font-family="Helvetica,sans-Serif" font-size="10.00">/J2DGrafContext.cpp</text>
</a>
</g>
</g>
<!-- Node1&#45;&gt;Node13 -->
<g id="edge12" class="edge">
<title>Node1&#45;&gt;Node13</title>
<path fill="none" stroke="#63b8ff" d="M901.87,-128.2C870.57,-118.18 831.98,-105.83 802.58,-96.43"/>
<polygon fill="#63b8ff" stroke="#63b8ff" points="900.58,-131.46 911.17,-131.18 902.72,-124.79 900.58,-131.46"/>
</g>
<!-- Node14 -->
<g id="node14" class="node">
<title>Node14</title>
<g id="a_node14"><a xlink:href="d__kantera__icon__meter_8cpp.html" target="_top" xlink:title=" ">
<polygon fill="white" stroke="#666666" points="942,-96 835,-96 835,-66 942,-66 942,-96"/>
<text text-anchor="start" x="843" y="-84" font-family="Helvetica,sans-Serif" font-size="10.00">src/d/d_kantera_icon</text>
<text text-anchor="middle" x="888.5" y="-73" font-family="Helvetica,sans-Serif" font-size="10.00">_meter.cpp</text>
</a>
</g>
</g>
<!-- Node1&#45;&gt;Node14 -->
<g id="edge14" class="edge">
<title>Node1&#45;&gt;Node14</title>
<path fill="none" stroke="#63b8ff" d="M933.88,-124.09C923.91,-114.85 912.61,-104.36 903.77,-96.16"/>
<polygon fill="#63b8ff" stroke="#63b8ff" points="931.37,-126.53 941.08,-130.77 936.13,-121.4 931.37,-126.53"/>
</g>
<!-- Node15 -->
<g id="node15" class="node">
<title>Node15</title>
<g id="a_node15"><a xlink:href="d__map__path_8cpp.html" target="_top" xlink:title=" ">
<polygon fill="white" stroke="#666666" points="1094.5,-90.5 960.5,-90.5 960.5,-71.5 1094.5,-71.5 1094.5,-90.5"/>
<text text-anchor="middle" x="1027.5" y="-78.5" font-family="Helvetica,sans-Serif" font-size="10.00">src/d/map/d_map_path.cpp</text>
</a>
</g>
</g>
<!-- Node1&#45;&gt;Node15 -->
<g id="edge15" class="edge">
<title>Node1&#45;&gt;Node15</title>
<path fill="none" stroke="#63b8ff" d="M981.26,-124.27C993.77,-112.84 1008.42,-99.44 1017.83,-90.84"/>
<polygon fill="#63b8ff" stroke="#63b8ff" points="979.17,-121.44 974.15,-130.78 983.89,-126.61 979.17,-121.44"/>
</g>
<!-- Node16 -->
<g id="node16" class="node">
<title>Node16</title>
<g id="a_node16"><a xlink:href="d__meter__map_8cpp.html" target="_top" xlink:title=" ">
<polygon fill="white" stroke="#666666" points="1216.5,-96 1112.5,-96 1112.5,-66 1216.5,-66 1216.5,-96"/>
<text text-anchor="start" x="1120.5" y="-84" font-family="Helvetica,sans-Serif" font-size="10.00">src/d/meter/d_meter</text>
<text text-anchor="middle" x="1164.5" y="-73" font-family="Helvetica,sans-Serif" font-size="10.00">_map.cpp</text>
</a>
</g>
</g>
<!-- Node1&#45;&gt;Node16 -->
<g id="edge16" class="edge">
<title>Node1&#45;&gt;Node16</title>
<path fill="none" stroke="#63b8ff" d="M1014.91,-128.25C1047.38,-118.21 1087.46,-105.82 1117.96,-96.39"/>
<polygon fill="#63b8ff" stroke="#63b8ff" points="1014.18,-124.81 1005.66,-131.11 1016.25,-131.5 1014.18,-124.81"/>
</g>
<!-- Node17 -->
<g id="node17" class="node">
<title>Node17</title>
<g id="a_node17"><a xlink:href="d__msg__scrn__base_8cpp.html" target="_top" xlink:title=" ">
<polygon fill="white" stroke="#666666" points="1340.5,-96 1234.5,-96 1234.5,-66 1340.5,-66 1340.5,-96"/>
<text text-anchor="start" x="1242.5" y="-84" font-family="Helvetica,sans-Serif" font-size="10.00">src/msg/scrn/d_msg</text>
<text text-anchor="middle" x="1287.5" y="-73" font-family="Helvetica,sans-Serif" font-size="10.00">_scrn_base.cpp</text>
</a>
</g>
</g>
<!-- Node1&#45;&gt;Node17 -->
<g id="edge17" class="edge">
<title>Node1&#45;&gt;Node17</title>
<path fill="none" stroke="#63b8ff" d="M1036.49,-132.07C1089.95,-122.44 1162.1,-109.07 1225.5,-96 1228.31,-95.42 1231.19,-94.81 1234.09,-94.19"/>
<polygon fill="#63b8ff" stroke="#63b8ff" points="1036.09,-128.59 1026.87,-133.8 1037.33,-135.47 1036.09,-128.59"/>
</g>
<!-- Node18 -->
<g id="node18" class="node">
<title>Node18</title>
<g id="a_node18"><a xlink:href="d__msg__scrn__boss_8cpp.html" target="_top" xlink:title=" ">
<polygon fill="white" stroke="#666666" points="1464.5,-96 1358.5,-96 1358.5,-66 1464.5,-66 1464.5,-96"/>
<text text-anchor="start" x="1366.5" y="-84" font-family="Helvetica,sans-Serif" font-size="10.00">src/msg/scrn/d_msg</text>
<text text-anchor="middle" x="1411.5" y="-73" font-family="Helvetica,sans-Serif" font-size="10.00">_scrn_boss.cpp</text>
</a>
</g>
</g>
<!-- Node1&#45;&gt;Node18 -->
<g id="edge18" class="edge">
<title>Node1&#45;&gt;Node18</title>
<path fill="none" stroke="#63b8ff" d="M1036.8,-138.13C1116.23,-129.71 1241.79,-114.98 1349.5,-96 1352.33,-95.5 1355.22,-94.96 1358.13,-94.39"/>
<polygon fill="#63b8ff" stroke="#63b8ff" points="1036.51,-134.64 1026.93,-139.16 1037.25,-141.6 1036.51,-134.64"/>
</g>
<!-- Node3 -->
<g id="node3" class="node">
<title>Node3</title>
<g id="a_node3"><a xlink:href="J2DOrthoGraph_8cpp.html" target="_top" xlink:title=" ">
<polygon fill="white" stroke="#666666" points="256,-30 137,-30 137,0 256,0 256,-30"/>
<text text-anchor="start" x="145" y="-18" font-family="Helvetica,sans-Serif" font-size="10.00">libs/JSystem/J2DGraph</text>
<text text-anchor="middle" x="196.5" y="-7" font-family="Helvetica,sans-Serif" font-size="10.00">/J2DOrthoGraph.cpp</text>
</a>
</g>
</g>
<!-- Node2&#45;&gt;Node3 -->
<g id="edge2" class="edge">
<title>Node2&#45;&gt;Node3</title>
<path fill="none" stroke="#63b8ff" d="M533.83,-69.97C463.37,-60.67 357.29,-45.91 265.5,-30 262.49,-29.48 259.41,-28.92 256.3,-28.35"/>
<polygon fill="#63b8ff" stroke="#63b8ff" points="532.95,-73.38 543.32,-71.21 533.86,-66.44 532.95,-73.38"/>
</g>
<!-- Node2&#45;&gt;Node4 -->
<g id="edge3" class="edge">
<title>Node2&#45;&gt;Node4</title>
<path fill="none" stroke="#63b8ff" d="M533.37,-74.29C437.1,-66.79 269.79,-51.93 127.5,-30 124.76,-29.58 121.96,-29.12 119.14,-28.63"/>
<polygon fill="#63b8ff" stroke="#63b8ff" points="533,-77.78 543.24,-75.06 533.54,-70.8 533,-77.78"/>
</g>
<!-- Node5 -->
<g id="node5" class="node">
<title>Node5</title>
<g id="a_node5"><a xlink:href="J2DScreen_8cpp.html" target="_top" xlink:title=" ">
<polygon fill="white" stroke="#666666" points="393,-30 274,-30 274,0 393,0 393,-30"/>
<text text-anchor="start" x="282" y="-18" font-family="Helvetica,sans-Serif" font-size="10.00">libs/JSystem/J2DGraph</text>
<text text-anchor="middle" x="333.5" y="-7" font-family="Helvetica,sans-Serif" font-size="10.00">/J2DScreen.cpp</text>
</a>
</g>
</g>
<!-- Node2&#45;&gt;Node5 -->
<g id="edge4" class="edge">
<title>Node2&#45;&gt;Node5</title>
<path fill="none" stroke="#63b8ff" d="M538.58,-63.04C493.21,-52.64 435.87,-39.48 393.36,-29.73"/>
<polygon fill="#63b8ff" stroke="#63b8ff" points="537.53,-66.39 548.06,-65.22 539.1,-59.57 537.53,-66.39"/>
</g>
<!-- Node6 -->
<g id="node6" class="node">
<title>Node6</title>
<g id="a_node6"><a xlink:href="JFWDisplay_8cpp.html" target="_top" xlink:title=" ">
<polygon fill="white" stroke="#666666" points="541.5,-30 411.5,-30 411.5,0 541.5,0 541.5,-30"/>
<text text-anchor="start" x="419.5" y="-18" font-family="Helvetica,sans-Serif" font-size="10.00">libs/JSystem/JFramework</text>
<text text-anchor="middle" x="476.5" y="-7" font-family="Helvetica,sans-Serif" font-size="10.00">/JFWDisplay.cpp</text>
</a>
</g>
</g>
<!-- Node2&#45;&gt;Node6 -->
<g id="edge5" class="edge">
<title>Node2&#45;&gt;Node6</title>
<path fill="none" stroke="#63b8ff" d="M571.82,-60.86C550.99,-51.05 526.06,-39.32 506.92,-30.31"/>
<polygon fill="#63b8ff" stroke="#63b8ff" points="570.07,-63.9 580.61,-64.99 573.05,-57.57 570.07,-63.9"/>
</g>
<!-- Node7 -->
<g id="node7" class="node">
<title>Node7</title>
<g id="a_node7"><a xlink:href="JUTConsole_8cpp.html" target="_top" xlink:title=" ">
<polygon fill="white" stroke="#666666" points="665.5,-30 559.5,-30 559.5,0 665.5,0 665.5,-30"/>
<text text-anchor="start" x="567.5" y="-18" font-family="Helvetica,sans-Serif" font-size="10.00">libs/JSystem/JUtility</text>
<text text-anchor="middle" x="612.5" y="-7" font-family="Helvetica,sans-Serif" font-size="10.00">/JUTConsole.cpp</text>
</a>
</g>
</g>
<!-- Node2&#45;&gt;Node7 -->
<g id="edge6" class="edge">
<title>Node2&#45;&gt;Node7</title>
<path fill="none" stroke="#63b8ff" d="M612.5,-54.39C612.5,-46.13 612.5,-37.28 612.5,-30.16"/>
<polygon fill="#63b8ff" stroke="#63b8ff" points="609,-54.28 612.5,-64.28 616,-54.28 609,-54.28"/>
</g>
<!-- Node8 -->
<g id="node8" class="node">
<title>Node8</title>
<g id="a_node8"><a xlink:href="JUTDbPrint_8cpp.html" target="_top" xlink:title=" ">
<polygon fill="white" stroke="#666666" points="789.5,-30 683.5,-30 683.5,0 789.5,0 789.5,-30"/>
<text text-anchor="start" x="691.5" y="-18" font-family="Helvetica,sans-Serif" font-size="10.00">libs/JSystem/JUtility</text>
<text text-anchor="middle" x="736.5" y="-7" font-family="Helvetica,sans-Serif" font-size="10.00">/JUTDbPrint.cpp</text>
</a>
</g>
</g>
<!-- Node2&#45;&gt;Node8 -->
<g id="edge7" class="edge">
<title>Node2&#45;&gt;Node8</title>
<path fill="none" stroke="#63b8ff" d="M650.37,-60.45C669.2,-50.73 691.55,-39.2 708.76,-30.31"/>
<polygon fill="#63b8ff" stroke="#63b8ff" points="648.95,-57.25 641.67,-64.94 652.16,-63.47 648.95,-57.25"/>
</g>
<!-- Node9 -->
<g id="node9" class="node">
<title>Node9</title>
<g id="a_node9"><a xlink:href="JUTFader_8cpp.html" target="_top" xlink:title=" ">
<polygon fill="white" stroke="#666666" points="913.5,-30 807.5,-30 807.5,0 913.5,0 913.5,-30"/>
<text text-anchor="start" x="815.5" y="-18" font-family="Helvetica,sans-Serif" font-size="10.00">libs/JSystem/JUtility</text>
<text text-anchor="middle" x="860.5" y="-7" font-family="Helvetica,sans-Serif" font-size="10.00">/JUTFader.cpp</text>
</a>
</g>
</g>
<!-- Node2&#45;&gt;Node9 -->
<g id="edge8" class="edge">
<title>Node2&#45;&gt;Node9</title>
<path fill="none" stroke="#63b8ff" d="M679.49,-62.71C719.61,-52.36 769.9,-39.38 807.29,-29.73"/>
<polygon fill="#63b8ff" stroke="#63b8ff" points="678.74,-59.29 669.93,-65.18 680.49,-66.07 678.74,-59.29"/>
</g>
<!-- Node10 -->
<g id="node10" class="node">
<title>Node10</title>
<g id="a_node10"><a xlink:href="JUTProcBar_8cpp.html" target="_top" xlink:title=" ">
<polygon fill="white" stroke="#666666" points="1037.5,-30 931.5,-30 931.5,0 1037.5,0 1037.5,-30"/>
<text text-anchor="start" x="939.5" y="-18" font-family="Helvetica,sans-Serif" font-size="10.00">libs/JSystem/JUtility</text>
<text text-anchor="middle" x="984.5" y="-7" font-family="Helvetica,sans-Serif" font-size="10.00">/JUTProcBar.cpp</text>
</a>
</g>
</g>
<!-- Node2&#45;&gt;Node10 -->
<g id="edge9" class="edge">
<title>Node2&#45;&gt;Node10</title>
<path fill="none" stroke="#63b8ff" d="M691.35,-65.73C794.75,-48.67 823.07,-48.88 922.5,-30 925.32,-29.46 928.2,-28.89 931.11,-28.3"/>
<polygon fill="#63b8ff" stroke="#63b8ff" points="690.87,-62.26 681.58,-67.36 692.02,-69.17 690.87,-62.26"/>
</g>
<!-- Node11 -->
<g id="node11" class="node">
<title>Node11</title>
<g id="a_node11"><a xlink:href="d__scope_8cpp.html" target="_top" xlink:title=" ">
<polygon fill="white" stroke="#666666" points="1151.5,-24.5 1055.5,-24.5 1055.5,-5.5 1151.5,-5.5 1151.5,-24.5"/>
<text text-anchor="middle" x="1103.5" y="-12.5" font-family="Helvetica,sans-Serif" font-size="10.00">src/d/d_scope.cpp</text>
</a>
</g>
</g>
<!-- Node2&#45;&gt;Node11 -->
<g id="edge10" class="edge">
<title>Node2&#45;&gt;Node11</title>
<path fill="none" stroke="#63b8ff" d="M691.53,-65.8C849.35,-44.3 892.88,-56.48 1046.5,-30 1054.33,-28.65 1062.68,-26.82 1070.51,-24.93"/>
<polygon fill="#63b8ff" stroke="#63b8ff" points="691.4,-62.29 681.97,-67.13 692.36,-69.22 691.4,-62.29"/>
</g>
<!-- Node12 -->
<g id="node12" class="node">
<title>Node12</title>
<g id="a_node12"><a xlink:href="d__pane__class_8cpp.html" target="_top" xlink:title=" ">
<polygon fill="white" stroke="#666666" points="1313,-24.5 1170,-24.5 1170,-5.5 1313,-5.5 1313,-24.5"/>
<text text-anchor="middle" x="1241.5" y="-12.5" font-family="Helvetica,sans-Serif" font-size="10.00">src/d/pane/d_pane_class.cpp</text>
</a>
</g>
</g>
<!-- Node2&#45;&gt;Node12 -->
<g id="edge11" class="edge">
<title>Node2&#45;&gt;Node12</title>
<path fill="none" stroke="#63b8ff" d="M691.77,-65.81C899.69,-39.76 955.82,-55.45 1160.5,-30 1171.4,-28.64 1183.08,-26.84 1194.07,-24.97"/>
<polygon fill="#63b8ff" stroke="#63b8ff" points="691.44,-62.32 681.96,-67.06 692.32,-69.27 691.44,-62.32"/>
</g>
</g>
</svg>
