<?xml version="1.0" encoding="UTF-8" standalone="no"?>
<!DOCTYPE svg PUBLIC "-//W3C//DTD SVG 1.1//EN"
 "http://www.w3.org/Graphics/SVG/1.1/DTD/svg11.dtd">
<!-- Generated by graphviz version 7.0.5 (20221223.1930)
 -->
<!-- Title: include/JSystem/J2DGraph/J2DMatBlock.h Pages: 1 -->
<svg width="4435pt" height="302pt"
 viewBox="0.00 0.00 4434.50 302.00" xmlns="http://www.w3.org/2000/svg" xmlns:xlink="http://www.w3.org/1999/xlink">
<g id="graph0" class="graph" transform="scale(1 1) rotate(0) translate(4 298)">
<title>include/JSystem/J2DGraph/J2DMatBlock.h</title>
<!-- Node1 -->
<g id="node1" class="node">
<title>Node1</title>
<g id="a_node1"><a xlink:title=" ">
<polygon fill="#999999" stroke="#666666" points="3206.5,-294 3071.5,-294 3071.5,-264 3206.5,-264 3206.5,-294"/>
<text text-anchor="start" x="3079.5" y="-282" font-family="Helvetica,sans-Serif" font-size="10.00">include/JSystem/J2DGraph</text>
<text text-anchor="middle" x="3139" y="-271" font-family="Helvetica,sans-Serif" font-size="10.00">/J2DMatBlock.h</text>
</a>
</g>
</g>
<!-- Node2 -->
<g id="node2" class="node">
<title>Node2</title>
<g id="a_node2"><a xlink:href="J2DMaterial_8h.html" target="_top" xlink:title=" ">
<polygon fill="white" stroke="#666666" points="2575.5,-228 2440.5,-228 2440.5,-198 2575.5,-198 2575.5,-228"/>
<text text-anchor="start" x="2448.5" y="-216" font-family="Helvetica,sans-Serif" font-size="10.00">include/JSystem/J2DGraph</text>
<text text-anchor="middle" x="2508" y="-205" font-family="Helvetica,sans-Serif" font-size="10.00">/J2DMaterial.h</text>
</a>
</g>
</g>
<!-- Node1&#45;&gt;Node2 -->
<g id="edge1" class="edge">
<title>Node1&#45;&gt;Node2</title>
<path fill="none" stroke="#63b8ff" d="M3059.8,-269.97C2934.72,-257.28 2693.59,-232.82 2575.92,-220.89"/>
<polygon fill="#63b8ff" stroke="#63b8ff" points="3059.36,-273.44 3069.67,-270.97 3060.07,-266.48 3059.36,-273.44"/>
</g>
<!-- Node58 -->
<g id="node48" class="node">
<title>Node58</title>
<g id="a_node48"><a xlink:href="J2DMaterialFactory_8h.html" target="_top" xlink:title=" ">
<polygon fill="white" stroke="#666666" points="3134.5,-228 2999.5,-228 2999.5,-198 3134.5,-198 3134.5,-228"/>
<text text-anchor="start" x="3007.5" y="-216" font-family="Helvetica,sans-Serif" font-size="10.00">include/JSystem/J2DGraph</text>
<text text-anchor="middle" x="3067" y="-205" font-family="Helvetica,sans-Serif" font-size="10.00">/J2DMaterialFactory.h</text>
</a>
</g>
</g>
<!-- Node1&#45;&gt;Node58 -->
<g id="edge52" class="edge">
<title>Node1&#45;&gt;Node58</title>
<path fill="none" stroke="#63b8ff" d="M3114.72,-256.42C3104.33,-247.18 3092.48,-236.65 3083.18,-228.39"/>
<polygon fill="#63b8ff" stroke="#63b8ff" points="3112.09,-258.76 3121.89,-262.79 3116.74,-253.53 3112.09,-258.76"/>
</g>
<!-- Node59 -->
<g id="node49" class="node">
<title>Node59</title>
<g id="a_node49"><a xlink:href="J2DMatBlock_8cpp.html" target="_top" xlink:title=" ">
<polygon fill="white" stroke="#666666" points="3271.5,-228 3152.5,-228 3152.5,-198 3271.5,-198 3271.5,-228"/>
<text text-anchor="start" x="3160.5" y="-216" font-family="Helvetica,sans-Serif" font-size="10.00">libs/JSystem/J2DGraph</text>
<text text-anchor="middle" x="3212" y="-205" font-family="Helvetica,sans-Serif" font-size="10.00">/J2DMatBlock.cpp</text>
</a>
</g>
</g>
<!-- Node1&#45;&gt;Node59 -->
<g id="edge54" class="edge">
<title>Node1&#45;&gt;Node59</title>
<path fill="none" stroke="#63b8ff" d="M3163.61,-256.42C3174.15,-247.18 3186.17,-236.65 3195.59,-228.39"/>
<polygon fill="#63b8ff" stroke="#63b8ff" points="3161.55,-253.57 3156.34,-262.8 3166.17,-258.84 3161.55,-253.57"/>
</g>
<!-- Node60 -->
<g id="node50" class="node">
<title>Node60</title>
<g id="a_node50"><a xlink:href="J2DTevs_8cpp.html" target="_top" xlink:title=" ">
<polygon fill="white" stroke="#666666" points="3408.5,-228 3289.5,-228 3289.5,-198 3408.5,-198 3408.5,-228"/>
<text text-anchor="start" x="3297.5" y="-216" font-family="Helvetica,sans-Serif" font-size="10.00">libs/JSystem/J2DGraph</text>
<text text-anchor="middle" x="3349" y="-205" font-family="Helvetica,sans-Serif" font-size="10.00">/J2DTevs.cpp</text>
</a>
</g>
</g>
<!-- Node1&#45;&gt;Node60 -->
<g id="edge55" class="edge">
<title>Node1&#45;&gt;Node60</title>
<path fill="none" stroke="#63b8ff" d="M3197.24,-260.25C3230.18,-250.21 3270.84,-237.82 3301.78,-228.39"/>
<polygon fill="#63b8ff" stroke="#63b8ff" points="3196.38,-256.85 3187.84,-263.12 3198.42,-263.55 3196.38,-256.85"/>
</g>
<!-- Node3 -->
<g id="node3" class="node">
<title>Node3</title>
<g id="a_node3"><a xlink:href="J2DTextBox_8h.html" target="_top" xlink:title=" ">
<polygon fill="white" stroke="#666666" points="2502.5,-162 2367.5,-162 2367.5,-132 2502.5,-132 2502.5,-162"/>
<text text-anchor="start" x="2375.5" y="-150" font-family="Helvetica,sans-Serif" font-size="10.00">include/JSystem/J2DGraph</text>
<text text-anchor="middle" x="2435" y="-139" font-family="Helvetica,sans-Serif" font-size="10.00">/J2DTextBox.h</text>
</a>
</g>
</g>
<!-- Node2&#45;&gt;Node3 -->
<g id="edge2" class="edge">
<title>Node2&#45;&gt;Node3</title>
<path fill="none" stroke="#63b8ff" d="M2483.39,-190.42C2472.85,-181.18 2460.83,-170.65 2451.41,-162.39"/>
<polygon fill="#63b8ff" stroke="#63b8ff" points="2480.83,-192.84 2490.66,-196.8 2485.45,-187.57 2480.83,-192.84"/>
</g>
<!-- Node51 -->
<g id="node42" class="node">
<title>Node51</title>
<g id="a_node42"><a xlink:href="J2DWindow_8h.html" target="_top" xlink:title=" ">
<polygon fill="white" stroke="#666666" points="3393.5,-162 3258.5,-162 3258.5,-132 3393.5,-132 3393.5,-162"/>
<text text-anchor="start" x="3266.5" y="-150" font-family="Helvetica,sans-Serif" font-size="10.00">include/JSystem/J2DGraph</text>
<text text-anchor="middle" x="3326" y="-139" font-family="Helvetica,sans-Serif" font-size="10.00">/J2DWindow.h</text>
</a>
</g>
</g>
<!-- Node2&#45;&gt;Node51 -->
<g id="edge44" class="edge">
<title>Node2&#45;&gt;Node51</title>
<path fill="none" stroke="#63b8ff" d="M2587.17,-205.81C2747.42,-193.27 3107.71,-165.08 3258.07,-153.31"/>
<polygon fill="#63b8ff" stroke="#63b8ff" points="2587.19,-202.29 2577.49,-206.56 2587.74,-209.27 2587.19,-202.29"/>
</g>
<!-- Node55 -->
<g id="node45" class="node">
<title>Node55</title>
<g id="a_node45"><a xlink:href="J2DMaterial_8cpp.html" target="_top" xlink:title=" ">
<polygon fill="white" stroke="#666666" points="2212.5,-162 2093.5,-162 2093.5,-132 2212.5,-132 2212.5,-162"/>
<text text-anchor="start" x="2101.5" y="-150" font-family="Helvetica,sans-Serif" font-size="10.00">libs/JSystem/J2DGraph</text>
<text text-anchor="middle" x="2153" y="-139" font-family="Helvetica,sans-Serif" font-size="10.00">/J2DMaterial.cpp</text>
</a>
</g>
</g>
<!-- Node2&#45;&gt;Node55 -->
<g id="edge49" class="edge">
<title>Node2&#45;&gt;Node55</title>
<path fill="none" stroke="#63b8ff" d="M2428.81,-198.87C2371.12,-189.15 2291.11,-175.32 2221,-162 2218.28,-161.48 2215.49,-160.95 2212.68,-160.4"/>
<polygon fill="#63b8ff" stroke="#63b8ff" points="2428.11,-202.3 2438.56,-200.51 2429.27,-195.4 2428.11,-202.3"/>
</g>
<!-- Node56 -->
<g id="node46" class="node">
<title>Node56</title>
<g id="a_node46"><a xlink:href="J2DMaterialFactory_8cpp.html" target="_top" xlink:title=" ">
<polygon fill="white" stroke="#666666" points="3534,-162 3412,-162 3412,-132 3534,-132 3534,-162"/>
<text text-anchor="start" x="3420" y="-150" font-family="Helvetica,sans-Serif" font-size="10.00">libs/JSystem/J2DGraph</text>
<text text-anchor="middle" x="3473" y="-139" font-family="Helvetica,sans-Serif" font-size="10.00">/J2DMaterialFactory.cpp</text>
</a>
</g>
</g>
<!-- Node2&#45;&gt;Node56 -->
<g id="edge50" class="edge">
<title>Node2&#45;&gt;Node56</title>
<path fill="none" stroke="#63b8ff" d="M2587.21,-211.25C2743.59,-208.97 3102.76,-199.69 3402,-162 3405.12,-161.61 3408.3,-161.16 3411.51,-160.67"/>
<polygon fill="#63b8ff" stroke="#63b8ff" points="2587.32,-207.75 2577.37,-211.39 2587.42,-214.75 2587.32,-207.75"/>
</g>
<!-- Node57 -->
<g id="node47" class="node">
<title>Node57</title>
<g id="a_node47"><a xlink:href="J2DPictureEx_8cpp.html" target="_top" xlink:title=" ">
<polygon fill="white" stroke="#666666" points="2349.5,-162 2230.5,-162 2230.5,-132 2349.5,-132 2349.5,-162"/>
<text text-anchor="start" x="2238.5" y="-150" font-family="Helvetica,sans-Serif" font-size="10.00">libs/JSystem/J2DGraph</text>
<text text-anchor="middle" x="2290" y="-139" font-family="Helvetica,sans-Serif" font-size="10.00">/J2DPictureEx.cpp</text>
</a>
</g>
</g>
<!-- Node2&#45;&gt;Node57 -->
<g id="edge51" class="edge">
<title>Node2&#45;&gt;Node57</title>
<path fill="none" stroke="#63b8ff" d="M2447.99,-194.38C2413.71,-184.32 2371.27,-171.86 2339.02,-162.39"/>
<polygon fill="#63b8ff" stroke="#63b8ff" points="2446.77,-197.67 2457.35,-197.13 2448.74,-190.96 2446.77,-197.67"/>
</g>
<!-- Node4 -->
<g id="node4" class="node">
<title>Node4</title>
<g id="a_node4"><a xlink:href="J2DPrint_8h.html" target="_top" xlink:title=" ">
<polygon fill="white" stroke="#666666" points="3822.5,-96 3687.5,-96 3687.5,-66 3822.5,-66 3822.5,-96"/>
<text text-anchor="start" x="3695.5" y="-84" font-family="Helvetica,sans-Serif" font-size="10.00">include/JSystem/J2DGraph</text>
<text text-anchor="middle" x="3755" y="-73" font-family="Helvetica,sans-Serif" font-size="10.00">/J2DPrint.h</text>
</a>
</g>
</g>
<!-- Node3&#45;&gt;Node4 -->
<g id="edge3" class="edge">
<title>Node3&#45;&gt;Node4</title>
<path fill="none" stroke="#63b8ff" d="M2514.36,-146.33C2711.16,-146.37 3237.25,-141.81 3673,-96 3677.6,-95.52 3682.32,-94.94 3687.08,-94.29"/>
<polygon fill="#63b8ff" stroke="#63b8ff" points="2514.51,-142.83 2504.51,-146.32 2514.5,-149.83 2514.51,-142.83"/>
</g>
<!-- Node6 -->
<g id="node6" class="node">
<title>Node6</title>
<g id="a_node6"><a xlink:href="J2DTextBox_8cpp.html" target="_top" xlink:title=" ">
<polygon fill="white" stroke="#666666" points="3598.5,-30 3479.5,-30 3479.5,0 3598.5,0 3598.5,-30"/>
<text text-anchor="start" x="3487.5" y="-18" font-family="Helvetica,sans-Serif" font-size="10.00">libs/JSystem/J2DGraph</text>
<text text-anchor="middle" x="3539" y="-7" font-family="Helvetica,sans-Serif" font-size="10.00">/J2DTextBox.cpp</text>
</a>
</g>
</g>
<!-- Node3&#45;&gt;Node6 -->
<g id="edge21" class="edge">
<title>Node3&#45;&gt;Node6</title>
<path fill="none" stroke="#63b8ff" d="M2514.3,-144.17C2779.58,-137.88 3620.47,-116.35 3640,-96 3664.78,-70.17 3619.13,-45.38 3581.41,-30.42"/>
<polygon fill="#63b8ff" stroke="#63b8ff" points="2514.28,-140.67 2504.37,-144.41 2514.45,-147.67 2514.28,-140.67"/>
</g>
<!-- Node9 -->
<g id="node9" class="node">
<title>Node9</title>
<g id="a_node9"><a xlink:href="J2DTextBoxEx_8h.html" target="_top" xlink:title=" ">
<polygon fill="white" stroke="#666666" points="3975.5,-96 3840.5,-96 3840.5,-66 3975.5,-66 3975.5,-96"/>
<text text-anchor="start" x="3848.5" y="-84" font-family="Helvetica,sans-Serif" font-size="10.00">include/JSystem/J2DGraph</text>
<text text-anchor="middle" x="3908" y="-73" font-family="Helvetica,sans-Serif" font-size="10.00">/J2DTextBoxEx.h</text>
</a>
</g>
</g>
<!-- Node3&#45;&gt;Node9 -->
<g id="edge8" class="edge">
<title>Node3&#45;&gt;Node9</title>
<path fill="none" stroke="#63b8ff" d="M2514.32,-144.69C2770.45,-140.22 3573.76,-124.25 3832,-96 3834.67,-95.71 3837.38,-95.38 3840.12,-95.01"/>
<polygon fill="#63b8ff" stroke="#63b8ff" points="2514.35,-141.19 2504.42,-144.86 2514.47,-148.19 2514.35,-141.19"/>
</g>
<!-- Node11 -->
<g id="node11" class="node">
<title>Node11</title>
<g id="a_node11"><a xlink:href="d__menu__calibration_8h.html" target="_top" xlink:title=" ">
<polygon fill="white" stroke="#666666" points="583,-96 463,-96 463,-66 583,-66 583,-96"/>
<text text-anchor="start" x="471" y="-84" font-family="Helvetica,sans-Serif" font-size="10.00">include/d/menu/d_menu</text>
<text text-anchor="middle" x="523" y="-73" font-family="Helvetica,sans-Serif" font-size="10.00">_calibration.h</text>
</a>
</g>
</g>
<!-- Node3&#45;&gt;Node11 -->
<g id="edge11" class="edge">
<title>Node3&#45;&gt;Node11</title>
<path fill="none" stroke="#63b8ff" d="M2355.61,-131.9C1580.2,-55.15 1376.35,-170.25 604,-96 597.32,-95.36 590.37,-94.48 583.46,-93.47"/>
<polygon fill="#63b8ff" stroke="#63b8ff" points="2355.26,-135.38 2365.56,-132.89 2355.95,-128.42 2355.26,-135.38"/>
</g>
<!-- Node13 -->
<g id="node13" class="node">
<title>Node13</title>
<g id="a_node13"><a xlink:href="d__menu__option_8cpp.html" target="_top" xlink:title=" ">
<polygon fill="white" stroke="#666666" points="420,-24.5 268,-24.5 268,-5.5 420,-5.5 420,-24.5"/>
<text text-anchor="middle" x="344" y="-12.5" font-family="Helvetica,sans-Serif" font-size="10.00">src/d/menu/d_menu_option.cpp</text>
</a>
</g>
</g>
<!-- Node3&#45;&gt;Node13 -->
<g id="edge33" class="edge">
<title>Node3&#45;&gt;Node13</title>
<path fill="none" stroke="#63b8ff" d="M2355.85,-132.06C2101.11,-112.61 651.46,-162.28 454,-96 410.35,-81.35 369.37,-42.6 352.32,-24.97"/>
<polygon fill="#63b8ff" stroke="#63b8ff" points="2355.29,-135.52 2365.56,-132.9 2355.9,-128.55 2355.29,-135.52"/>
</g>
<!-- Node14 -->
<g id="node14" class="node">
<title>Node14</title>
<g id="a_node14"><a xlink:href="d__meter__button_8h.html" target="_top" xlink:title=" ">
<polygon fill="white" stroke="#666666" points="247,-96 125,-96 125,-66 247,-66 247,-96"/>
<text text-anchor="start" x="133" y="-84" font-family="Helvetica,sans-Serif" font-size="10.00">include/d/meter/d_meter</text>
<text text-anchor="middle" x="186" y="-73" font-family="Helvetica,sans-Serif" font-size="10.00">_button.h</text>
</a>
</g>
</g>
<!-- Node3&#45;&gt;Node14 -->
<g id="edge14" class="edge">
<title>Node3&#45;&gt;Node14</title>
<path fill="none" stroke="#63b8ff" d="M2355.78,-131.94C1901.13,-88.9 811.62,-116.12 375,-96 332.27,-94.03 284.2,-90.45 247.23,-87.41"/>
<polygon fill="#63b8ff" stroke="#63b8ff" points="2355.27,-135.4 2365.56,-132.89 2355.94,-128.44 2355.27,-135.4"/>
</g>
<!-- Node17 -->
<g id="node17" class="node">
<title>Node17</title>
<g id="a_node17"><a xlink:href="d__msg__scrn__base_8h.html" target="_top" xlink:title=" ">
<polygon fill="#fff0f0" stroke="red" points="712.5,-96 613.5,-96 613.5,-66 712.5,-66 712.5,-96"/>
<text text-anchor="start" x="621.5" y="-84" font-family="Helvetica,sans-Serif" font-size="10.00">include/msg/scrn/d</text>
<text text-anchor="middle" x="663" y="-73" font-family="Helvetica,sans-Serif" font-size="10.00">_msg_scrn_base.h</text>
</a>
</g>
</g>
<!-- Node3&#45;&gt;Node17 -->
<g id="edge17" class="edge">
<title>Node3&#45;&gt;Node17</title>
<path fill="none" stroke="#63b8ff" d="M2355.83,-131.92C1632,-60.02 1438.95,-189.44 721,-96 718.33,-95.65 715.6,-95.23 712.86,-94.75"/>
<polygon fill="#63b8ff" stroke="#63b8ff" points="2355.26,-135.38 2365.56,-132.9 2355.96,-128.41 2355.26,-135.38"/>
</g>
<!-- Node30 -->
<g id="node21" class="node">
<title>Node30</title>
<g id="a_node21"><a xlink:href="d__bright__check_8cpp.html" target="_top" xlink:title=" ">
<polygon fill="white" stroke="#666666" points="855.5,-90.5 730.5,-90.5 730.5,-71.5 855.5,-71.5 855.5,-90.5"/>
<text text-anchor="middle" x="793" y="-78.5" font-family="Helvetica,sans-Serif" font-size="10.00">src/d/d_bright_check.cpp</text>
</a>
</g>
</g>
<!-- Node3&#45;&gt;Node30 -->
<g id="edge22" class="edge">
<title>Node3&#45;&gt;Node30</title>
<path fill="none" stroke="#63b8ff" d="M2355.83,-131.92C1695.74,-65.58 1521.17,-167.19 865,-96 854.49,-94.86 843.23,-92.99 832.81,-90.98"/>
<polygon fill="#63b8ff" stroke="#63b8ff" points="2355.25,-135.37 2365.56,-132.9 2355.96,-128.41 2355.25,-135.37"/>
</g>
<!-- Node31 -->
<g id="node22" class="node">
<title>Node31</title>
<g id="a_node22"><a xlink:href="d__name_8cpp.html" target="_top" xlink:title=" ">
<polygon fill="white" stroke="#666666" points="968,-90.5 874,-90.5 874,-71.5 968,-71.5 968,-90.5"/>
<text text-anchor="middle" x="921" y="-78.5" font-family="Helvetica,sans-Serif" font-size="10.00">src/d/d_name.cpp</text>
</a>
</g>
</g>
<!-- Node3&#45;&gt;Node31 -->
<g id="edge23" class="edge">
<title>Node3&#45;&gt;Node31</title>
<path fill="none" stroke="#63b8ff" d="M2355.76,-131.91C1745.27,-70.23 1581.64,-178.45 977,-96 968.76,-94.88 959.97,-93.01 951.87,-91"/>
<polygon fill="#63b8ff" stroke="#63b8ff" points="2355.25,-135.37 2365.56,-132.91 2355.96,-128.41 2355.25,-135.37"/>
</g>
<!-- Node32 -->
<g id="node23" class="node">
<title>Node32</title>
<g id="a_node23"><a xlink:href="d__file__sel__info_8cpp.html" target="_top" xlink:title=" ">
<polygon fill="white" stroke="#666666" points="1083.5,-96 986.5,-96 986.5,-66 1083.5,-66 1083.5,-96"/>
<text text-anchor="start" x="994.5" y="-84" font-family="Helvetica,sans-Serif" font-size="10.00">src/d/file/d_file_sel</text>
<text text-anchor="middle" x="1035" y="-73" font-family="Helvetica,sans-Serif" font-size="10.00">_info.cpp</text>
</a>
</g>
</g>
<!-- Node3&#45;&gt;Node32 -->
<g id="edge24" class="edge">
<title>Node3&#45;&gt;Node32</title>
<path fill="none" stroke="#63b8ff" d="M2355.86,-131.91C1796.18,-74.77 1646.12,-171.06 1092,-96 1089.37,-95.64 1086.69,-95.22 1084,-94.73"/>
<polygon fill="#63b8ff" stroke="#63b8ff" points="2355.25,-135.37 2365.55,-132.92 2355.97,-128.41 2355.25,-135.37"/>
</g>
<!-- Node33 -->
<g id="node24" class="node">
<title>Node33</title>
<g id="a_node24"><a xlink:href="d__file__sel__warning_8cpp.html" target="_top" xlink:title=" ">
<polygon fill="white" stroke="#666666" points="1198.5,-96 1101.5,-96 1101.5,-66 1198.5,-66 1198.5,-96"/>
<text text-anchor="start" x="1109.5" y="-84" font-family="Helvetica,sans-Serif" font-size="10.00">src/d/file/d_file_sel</text>
<text text-anchor="middle" x="1150" y="-73" font-family="Helvetica,sans-Serif" font-size="10.00">_warning.cpp</text>
</a>
</g>
</g>
<!-- Node3&#45;&gt;Node33 -->
<g id="edge25" class="edge">
<title>Node3&#45;&gt;Node33</title>
<path fill="none" stroke="#63b8ff" d="M2355.74,-131.9C1847.05,-79.35 1710.36,-164.91 1207,-96 1204.38,-95.64 1201.7,-95.21 1199,-94.73"/>
<polygon fill="#63b8ff" stroke="#63b8ff" points="2355.24,-135.36 2365.55,-132.92 2355.97,-128.4 2355.24,-135.36"/>
</g>
<!-- Node34 -->
<g id="node25" class="node">
<title>Node34</title>
<g id="a_node25"><a xlink:href="d__file__sel__warning__NONMATCHING_8cpp.html" target="_top" xlink:title=" ">
<polygon fill="white" stroke="#666666" points="1371.5,-96 1216.5,-96 1216.5,-66 1371.5,-66 1371.5,-96"/>
<text text-anchor="start" x="1224.5" y="-84" font-family="Helvetica,sans-Serif" font-size="10.00">src/d/file/d_file_sel</text>
<text text-anchor="middle" x="1294" y="-73" font-family="Helvetica,sans-Serif" font-size="10.00">_warning_NONMATCHING.cpp</text>
</a>
</g>
</g>
<!-- Node3&#45;&gt;Node34 -->
<g id="edge26" class="edge">
<title>Node3&#45;&gt;Node34</title>
<path fill="none" stroke="#63b8ff" d="M2355.82,-131.89C1924.08,-85.92 1809.73,-138.23 1381,-96 1377.96,-95.7 1374.85,-95.36 1371.73,-94.99"/>
<polygon fill="#63b8ff" stroke="#63b8ff" points="2355.23,-135.35 2365.55,-132.94 2355.98,-128.39 2355.23,-135.35"/>
</g>
<!-- Node35 -->
<g id="node26" class="node">
<title>Node35</title>
<g id="a_node26"><a xlink:href="d__file__select_8cpp.html" target="_top" xlink:title=" ">
<polygon fill="white" stroke="#666666" points="1518,-90.5 1390,-90.5 1390,-71.5 1518,-71.5 1518,-90.5"/>
<text text-anchor="middle" x="1454" y="-78.5" font-family="Helvetica,sans-Serif" font-size="10.00">src/d/file/d_file_select.cpp</text>
</a>
</g>
</g>
<!-- Node3&#45;&gt;Node35 -->
<g id="edge27" class="edge">
<title>Node3&#45;&gt;Node35</title>
<path fill="none" stroke="#63b8ff" d="M2355.83,-131.88C1988.66,-91.79 1890.5,-138.5 1527,-96 1516.62,-94.79 1505.5,-92.94 1495.15,-90.98"/>
<polygon fill="#63b8ff" stroke="#63b8ff" points="2355.23,-135.34 2365.55,-132.96 2356,-128.38 2355.23,-135.34"/>
</g>
<!-- Node36 -->
<g id="node27" class="node">
<title>Node36</title>
<g id="a_node27"><a xlink:href="d__menu__collect_8cpp.html" target="_top" xlink:title=" ">
<polygon fill="white" stroke="#666666" points="1691.5,-90.5 1536.5,-90.5 1536.5,-71.5 1691.5,-71.5 1691.5,-90.5"/>
<text text-anchor="middle" x="1614" y="-78.5" font-family="Helvetica,sans-Serif" font-size="10.00">src/d/menu/d_menu_collect.cpp</text>
</a>
</g>
</g>
<!-- Node3&#45;&gt;Node36 -->
<g id="edge28" class="edge">
<title>Node3&#45;&gt;Node36</title>
<path fill="none" stroke="#63b8ff" d="M2355.75,-131.85C2065.61,-98.52 1988.07,-126.88 1701,-96 1688.98,-94.71 1676.1,-92.88 1664.03,-90.97"/>
<polygon fill="#63b8ff" stroke="#63b8ff" points="2355.21,-135.31 2365.55,-132.99 2356.02,-128.36 2355.21,-135.31"/>
</g>
<!-- Node37 -->
<g id="node28" class="node">
<title>Node37</title>
<g id="a_node28"><a xlink:href="d__menu__fishing_8cpp.html" target="_top" xlink:title=" ">
<polygon fill="white" stroke="#666666" points="1864,-90.5 1710,-90.5 1710,-71.5 1864,-71.5 1864,-90.5"/>
<text text-anchor="middle" x="1787" y="-78.5" font-family="Helvetica,sans-Serif" font-size="10.00">src/d/menu/d_menu_fishing.cpp</text>
</a>
</g>
</g>
<!-- Node3&#45;&gt;Node37 -->
<g id="edge29" class="edge">
<title>Node3&#45;&gt;Node37</title>
<path fill="none" stroke="#63b8ff" d="M2355.73,-131.81C2141.63,-105.19 2083.98,-120.96 1873,-96 1861.43,-94.63 1849.04,-92.82 1837.37,-90.96"/>
<polygon fill="#63b8ff" stroke="#63b8ff" points="2355.18,-135.27 2365.54,-133.05 2356.06,-128.33 2355.18,-135.27"/>
</g>
<!-- Node38 -->
<g id="node29" class="node">
<title>Node38</title>
<g id="a_node29"><a xlink:href="d__menu__insect_8cpp.html" target="_top" xlink:title=" ">
<polygon fill="white" stroke="#666666" points="2034,-90.5 1882,-90.5 1882,-71.5 2034,-71.5 2034,-90.5"/>
<text text-anchor="middle" x="1958" y="-78.5" font-family="Helvetica,sans-Serif" font-size="10.00">src/d/menu/d_menu_insect.cpp</text>
</a>
</g>
</g>
<!-- Node3&#45;&gt;Node38 -->
<g id="edge30" class="edge">
<title>Node3&#45;&gt;Node38</title>
<path fill="none" stroke="#63b8ff" d="M2355.93,-131.76C2216.71,-111.58 2179.02,-114.96 2043,-96 2032.33,-94.51 2020.95,-92.76 2010.08,-91"/>
<polygon fill="#63b8ff" stroke="#63b8ff" points="2355.12,-135.18 2365.52,-133.17 2356.14,-128.26 2355.12,-135.18"/>
</g>
<!-- Node39 -->
<g id="node30" class="node">
<title>Node39</title>
<g id="a_node30"><a xlink:href="d__menu__item__explain_8cpp.html" target="_top" xlink:title=" ">
<polygon fill="white" stroke="#666666" points="2179.5,-96 2052.5,-96 2052.5,-66 2179.5,-66 2179.5,-96"/>
<text text-anchor="start" x="2060.5" y="-84" font-family="Helvetica,sans-Serif" font-size="10.00">src/d/menu/d_menu_item</text>
<text text-anchor="middle" x="2116" y="-73" font-family="Helvetica,sans-Serif" font-size="10.00">_explain.cpp</text>
</a>
</g>
</g>
<!-- Node3&#45;&gt;Node39 -->
<g id="edge31" class="edge">
<title>Node3&#45;&gt;Node39</title>
<path fill="none" stroke="#63b8ff" d="M2356.37,-130.22C2301.99,-119.32 2230.58,-104.99 2179.75,-94.79"/>
<polygon fill="#63b8ff" stroke="#63b8ff" points="2355.37,-133.59 2365.86,-132.13 2356.75,-126.73 2355.37,-133.59"/>
</g>
<!-- Node40 -->
<g id="node31" class="node">
<title>Node40</title>
<g id="a_node31"><a xlink:href="d__menu__letter_8cpp.html" target="_top" xlink:title=" ">
<polygon fill="white" stroke="#666666" points="2346,-90.5 2198,-90.5 2198,-71.5 2346,-71.5 2346,-90.5"/>
<text text-anchor="middle" x="2272" y="-78.5" font-family="Helvetica,sans-Serif" font-size="10.00">src/d/menu/d_menu_letter.cpp</text>
</a>
</g>
</g>
<!-- Node3&#45;&gt;Node40 -->
<g id="edge32" class="edge">
<title>Node3&#45;&gt;Node40</title>
<path fill="none" stroke="#63b8ff" d="M2387.98,-127.54C2357.42,-115.54 2318.93,-100.43 2294.89,-90.99"/>
<polygon fill="#63b8ff" stroke="#63b8ff" points="2386.42,-130.69 2397.01,-131.08 2388.98,-124.17 2386.42,-130.69"/>
</g>
<!-- Node41 -->
<g id="node32" class="node">
<title>Node41</title>
<g id="a_node32"><a xlink:href="d__menu__ring_8cpp.html" target="_top" xlink:title=" ">
<polygon fill="white" stroke="#666666" points="2506,-90.5 2364,-90.5 2364,-71.5 2506,-71.5 2506,-90.5"/>
<text text-anchor="middle" x="2435" y="-78.5" font-family="Helvetica,sans-Serif" font-size="10.00">src/d/menu/d_menu_ring.cpp</text>
</a>
</g>
</g>
<!-- Node3&#45;&gt;Node41 -->
<g id="edge34" class="edge">
<title>Node3&#45;&gt;Node41</title>
<path fill="none" stroke="#63b8ff" d="M2435,-120.59C2435,-110.06 2435,-98.53 2435,-90.84"/>
<polygon fill="#63b8ff" stroke="#63b8ff" points="2431.5,-120.28 2435,-130.28 2438.5,-120.28 2431.5,-120.28"/>
</g>
<!-- Node42 -->
<g id="node33" class="node">
<title>Node42</title>
<g id="a_node33"><a xlink:href="d__menu__skill_8cpp.html" target="_top" xlink:title=" ">
<polygon fill="white" stroke="#666666" points="2667.5,-90.5 2524.5,-90.5 2524.5,-71.5 2667.5,-71.5 2667.5,-90.5"/>
<text text-anchor="middle" x="2596" y="-78.5" font-family="Helvetica,sans-Serif" font-size="10.00">src/d/menu/d_menu_skill.cpp</text>
</a>
</g>
</g>
<!-- Node3&#45;&gt;Node42 -->
<g id="edge35" class="edge">
<title>Node3&#45;&gt;Node42</title>
<path fill="none" stroke="#63b8ff" d="M2481.45,-127.54C2511.63,-115.54 2549.65,-100.43 2573.4,-90.99"/>
<polygon fill="#63b8ff" stroke="#63b8ff" points="2480.54,-124.13 2472.54,-131.08 2483.12,-130.64 2480.54,-124.13"/>
</g>
<!-- Node43 -->
<g id="node34" class="node">
<title>Node43</title>
<g id="a_node34"><a xlink:href="d__meter2__draw_8cpp.html" target="_top" xlink:title=" ">
<polygon fill="white" stroke="#666666" points="2796,-96 2686,-96 2686,-66 2796,-66 2796,-96"/>
<text text-anchor="start" x="2694" y="-84" font-family="Helvetica,sans-Serif" font-size="10.00">src/d/meter/d_meter2</text>
<text text-anchor="middle" x="2741" y="-73" font-family="Helvetica,sans-Serif" font-size="10.00">_draw.cpp</text>
</a>
</g>
</g>
<!-- Node3&#45;&gt;Node43 -->
<g id="edge36" class="edge">
<title>Node3&#45;&gt;Node43</title>
<path fill="none" stroke="#63b8ff" d="M2513.86,-129.8C2560.94,-120.08 2621.91,-107.44 2676,-96 2679.16,-95.33 2682.41,-94.64 2685.69,-93.94"/>
<polygon fill="#63b8ff" stroke="#63b8ff" points="2513.38,-126.32 2504.29,-131.77 2514.79,-133.18 2513.38,-126.32"/>
</g>
<!-- Node44 -->
<g id="node35" class="node">
<title>Node44</title>
<g id="a_node35"><a xlink:href="d__meter2__info_8cpp.html" target="_top" xlink:title=" ">
<polygon fill="white" stroke="#666666" points="2924,-96 2814,-96 2814,-66 2924,-66 2924,-96"/>
<text text-anchor="start" x="2822" y="-84" font-family="Helvetica,sans-Serif" font-size="10.00">src/d/meter/d_meter2</text>
<text text-anchor="middle" x="2869" y="-73" font-family="Helvetica,sans-Serif" font-size="10.00">_info.cpp</text>
</a>
</g>
</g>
<!-- Node3&#45;&gt;Node44 -->
<g id="edge37" class="edge">
<title>Node3&#45;&gt;Node44</title>
<path fill="none" stroke="#63b8ff" d="M2514.01,-137.2C2589.12,-128.4 2705.12,-113.64 2805,-96 2807.8,-95.51 2810.66,-94.97 2813.55,-94.42"/>
<polygon fill="#63b8ff" stroke="#63b8ff" points="2513.8,-133.7 2504.27,-138.34 2514.61,-140.66 2513.8,-133.7"/>
</g>
<!-- Node45 -->
<g id="node36" class="node">
<title>Node45</title>
<g id="a_node36"><a xlink:href="d__meter__string_8cpp.html" target="_top" xlink:title=" ">
<polygon fill="white" stroke="#666666" points="3046,-96 2942,-96 2942,-66 3046,-66 3046,-96"/>
<text text-anchor="start" x="2950" y="-84" font-family="Helvetica,sans-Serif" font-size="10.00">src/d/meter/d_meter</text>
<text text-anchor="middle" x="2994" y="-73" font-family="Helvetica,sans-Serif" font-size="10.00">_string.cpp</text>
</a>
</g>
</g>
<!-- Node3&#45;&gt;Node45 -->
<g id="edge38" class="edge">
<title>Node3&#45;&gt;Node45</title>
<path fill="none" stroke="#63b8ff" d="M2513.96,-141.15C2612.5,-134.38 2785.98,-120.15 2933,-96 2935.79,-95.54 2938.64,-95.03 2941.51,-94.49"/>
<polygon fill="#63b8ff" stroke="#63b8ff" points="2513.86,-137.64 2504.12,-141.81 2514.34,-144.63 2513.86,-137.64"/>
</g>
<!-- Node46 -->
<g id="node37" class="node">
<title>Node46</title>
<g id="a_node37"><a xlink:href="d__msg__class_8cpp.html" target="_top" xlink:title=" ">
<polygon fill="white" stroke="#666666" points="3203.5,-90.5 3064.5,-90.5 3064.5,-71.5 3203.5,-71.5 3203.5,-90.5"/>
<text text-anchor="middle" x="3134" y="-78.5" font-family="Helvetica,sans-Serif" font-size="10.00">src/d/msg/d_msg_class.cpp</text>
</a>
</g>
</g>
<!-- Node3&#45;&gt;Node46 -->
<g id="edge39" class="edge">
<title>Node3&#45;&gt;Node46</title>
<path fill="none" stroke="#63b8ff" d="M2514.07,-142.03C2632.16,-135.56 2861.43,-120.9 3055,-96 3065.64,-94.63 3077.02,-92.82 3087.74,-90.96"/>
<polygon fill="#63b8ff" stroke="#63b8ff" points="2513.96,-138.53 2504.16,-142.57 2514.34,-145.52 2513.96,-138.53"/>
</g>
<!-- Node47 -->
<g id="node38" class="node">
<title>Node47</title>
<g id="a_node38"><a xlink:href="d__msg__out__font_8cpp.html" target="_top" xlink:title=" ">
<polygon fill="white" stroke="#666666" points="3332.5,-96 3221.5,-96 3221.5,-66 3332.5,-66 3332.5,-96"/>
<text text-anchor="start" x="3229.5" y="-84" font-family="Helvetica,sans-Serif" font-size="10.00">src/d/msg/d_msg_out</text>
<text text-anchor="middle" x="3277" y="-73" font-family="Helvetica,sans-Serif" font-size="10.00">_font.cpp</text>
</a>
</g>
</g>
<!-- Node3&#45;&gt;Node47 -->
<g id="edge40" class="edge">
<title>Node3&#45;&gt;Node47</title>
<path fill="none" stroke="#63b8ff" d="M2514.4,-144.76C2655.45,-141.7 2958.71,-131.23 3212,-96 3214.97,-95.59 3218.01,-95.11 3221.07,-94.59"/>
<polygon fill="#63b8ff" stroke="#63b8ff" points="2514.33,-141.26 2504.41,-144.97 2514.48,-148.26 2514.33,-141.26"/>
</g>
<!-- Node48 -->
<g id="node39" class="node">
<title>Node48</title>
<g id="a_node39"><a xlink:href="d__msg__string_8cpp.html" target="_top" xlink:title=" ">
<polygon fill="white" stroke="#666666" points="3491,-90.5 3351,-90.5 3351,-71.5 3491,-71.5 3491,-90.5"/>
<text text-anchor="middle" x="3421" y="-78.5" font-family="Helvetica,sans-Serif" font-size="10.00">src/d/msg/d_msg_string.cpp</text>
</a>
</g>
</g>
<!-- Node3&#45;&gt;Node48 -->
<g id="edge41" class="edge">
<title>Node3&#45;&gt;Node48</title>
<path fill="none" stroke="#63b8ff" d="M2514.32,-144.77C2672.19,-141.62 3036.78,-130.89 3341,-96 3352.21,-94.71 3364.22,-92.87 3375.45,-90.93"/>
<polygon fill="#63b8ff" stroke="#63b8ff" points="2514.3,-141.27 2504.37,-144.96 2514.43,-148.27 2514.3,-141.27"/>
</g>
<!-- Node49 -->
<g id="node40" class="node">
<title>Node49</title>
<g id="a_node40"><a xlink:href="d__msg__string__base_8cpp.html" target="_top" xlink:title=" ">
<polygon fill="white" stroke="#666666" points="3631,-96 3509,-96 3509,-66 3631,-66 3631,-96"/>
<text text-anchor="start" x="3517" y="-84" font-family="Helvetica,sans-Serif" font-size="10.00">src/d/msg/d_msg_string</text>
<text text-anchor="middle" x="3570" y="-73" font-family="Helvetica,sans-Serif" font-size="10.00">_base.cpp</text>
</a>
</g>
</g>
<!-- Node3&#45;&gt;Node49 -->
<g id="edge42" class="edge">
<title>Node3&#45;&gt;Node49</title>
<path fill="none" stroke="#63b8ff" d="M2514.18,-146.34C2691.46,-146.23 3133.49,-141 3500,-96 3502.83,-95.65 3505.72,-95.25 3508.62,-94.82"/>
<polygon fill="#63b8ff" stroke="#63b8ff" points="2514.41,-142.84 2504.41,-146.34 2514.41,-149.84 2514.41,-142.84"/>
</g>
<!-- Node50 -->
<g id="node41" class="node">
<title>Node50</title>
<g id="a_node41"><a xlink:href="d__pane__class_8cpp.html" target="_top" xlink:title=" ">
<polygon fill="white" stroke="#666666" points="4136.5,-90.5 3993.5,-90.5 3993.5,-71.5 4136.5,-71.5 4136.5,-90.5"/>
<text text-anchor="middle" x="4065" y="-78.5" font-family="Helvetica,sans-Serif" font-size="10.00">src/d/pane/d_pane_class.cpp</text>
</a>
</g>
</g>
<!-- Node3&#45;&gt;Node50 -->
<g id="edge43" class="edge">
<title>Node3&#45;&gt;Node50</title>
<path fill="none" stroke="#63b8ff" d="M2514.02,-144.93C2787.86,-140.97 3695.23,-125.88 3985,-96 3996.5,-94.81 4008.84,-92.95 4020.31,-90.97"/>
<polygon fill="#63b8ff" stroke="#63b8ff" points="2514.08,-141.42 2504.13,-145.07 2514.18,-148.42 2514.08,-141.42"/>
</g>
<!-- Node5 -->
<g id="node5" class="node">
<title>Node5</title>
<g id="a_node5"><a xlink:href="J2DPrint_8cpp.html" target="_top" xlink:title=" ">
<polygon fill="white" stroke="#666666" points="3896.5,-30 3777.5,-30 3777.5,0 3896.5,0 3896.5,-30"/>
<text text-anchor="start" x="3785.5" y="-18" font-family="Helvetica,sans-Serif" font-size="10.00">libs/JSystem/J2DGraph</text>
<text text-anchor="middle" x="3837" y="-7" font-family="Helvetica,sans-Serif" font-size="10.00">/J2DPrint.cpp</text>
</a>
</g>
</g>
<!-- Node4&#45;&gt;Node5 -->
<g id="edge4" class="edge">
<title>Node4&#45;&gt;Node5</title>
<path fill="none" stroke="#63b8ff" d="M3781.94,-58.97C3793.94,-49.61 3807.77,-38.81 3818.57,-30.39"/>
<polygon fill="#63b8ff" stroke="#63b8ff" points="3780.12,-55.95 3774.39,-64.87 3784.43,-61.47 3780.12,-55.95"/>
</g>
<!-- Node4&#45;&gt;Node6 -->
<g id="edge5" class="edge">
<title>Node4&#45;&gt;Node6</title>
<path fill="none" stroke="#63b8ff" d="M3695.54,-62.38C3661.58,-52.32 3619.53,-39.86 3587.57,-30.39"/>
<polygon fill="#63b8ff" stroke="#63b8ff" points="3694.22,-65.64 3704.8,-65.13 3696.21,-58.93 3694.22,-65.64"/>
</g>
<!-- Node7 -->
<g id="node7" class="node">
<title>Node7</title>
<g id="a_node7"><a xlink:href="J2DTextBoxEx_8cpp.html" target="_top" xlink:title=" ">
<polygon fill="white" stroke="#666666" points="4033.5,-30 3914.5,-30 3914.5,0 4033.5,0 4033.5,-30"/>
<text text-anchor="start" x="3922.5" y="-18" font-family="Helvetica,sans-Serif" font-size="10.00">libs/JSystem/J2DGraph</text>
<text text-anchor="middle" x="3974" y="-7" font-family="Helvetica,sans-Serif" font-size="10.00">/J2DTextBoxEx.cpp</text>
</a>
</g>
</g>
<!-- Node4&#45;&gt;Node7 -->
<g id="edge6" class="edge">
<title>Node4&#45;&gt;Node7</title>
<path fill="none" stroke="#63b8ff" d="M3815.29,-62.38C3849.72,-52.32 3892.35,-39.86 3924.76,-30.39"/>
<polygon fill="#63b8ff" stroke="#63b8ff" points="3814.49,-58.97 3805.87,-65.13 3816.45,-65.69 3814.49,-58.97"/>
</g>
<!-- Node8 -->
<g id="node8" class="node">
<title>Node8</title>
<g id="a_node8"><a xlink:href="m__Do__graphic_8cpp.html" target="_top" xlink:title=" ">
<polygon fill="white" stroke="#666666" points="3759,-24.5 3617,-24.5 3617,-5.5 3759,-5.5 3759,-24.5"/>
<text text-anchor="middle" x="3688" y="-12.5" font-family="Helvetica,sans-Serif" font-size="10.00">src/m_Do/m_Do_graphic.cpp</text>
</a>
</g>
</g>
<!-- Node4&#45;&gt;Node8 -->
<g id="edge7" class="edge">
<title>Node4&#45;&gt;Node8</title>
<path fill="none" stroke="#63b8ff" d="M3731.91,-57.94C3720.01,-46.58 3706.17,-33.36 3697.26,-24.84"/>
<polygon fill="#63b8ff" stroke="#63b8ff" points="3729.39,-60.37 3739.04,-64.75 3734.22,-55.31 3729.39,-60.37"/>
</g>
<!-- Node9&#45;&gt;Node7 -->
<g id="edge10" class="edge">
<title>Node9&#45;&gt;Node7</title>
<path fill="none" stroke="#63b8ff" d="M3930.89,-57.81C3940.34,-48.64 3951.03,-38.28 3959.39,-30.16"/>
<polygon fill="#63b8ff" stroke="#63b8ff" points="3928.48,-55.27 3923.73,-64.74 3933.35,-60.29 3928.48,-55.27"/>
</g>
<!-- Node10 -->
<g id="node10" class="node">
<title>Node10</title>
<g id="a_node10"><a xlink:href="J2DScreen_8cpp.html" target="_top" xlink:title=" ">
<polygon fill="white" stroke="#666666" points="4327.5,-30 4208.5,-30 4208.5,0 4327.5,0 4327.5,-30"/>
<text text-anchor="start" x="4216.5" y="-18" font-family="Helvetica,sans-Serif" font-size="10.00">libs/JSystem/J2DGraph</text>
<text text-anchor="middle" x="4268" y="-7" font-family="Helvetica,sans-Serif" font-size="10.00">/J2DScreen.cpp</text>
</a>
</g>
</g>
<!-- Node9&#45;&gt;Node10 -->
<g id="edge9" class="edge">
<title>Node9&#45;&gt;Node10</title>
<path fill="none" stroke="#63b8ff" d="M3986.75,-65.69C4069.55,-50.87 4153.25,-36.12 4208.08,-26.5"/>
<polygon fill="#63b8ff" stroke="#63b8ff" points="3986.32,-62.21 3977.09,-67.42 3987.55,-69.1 3986.32,-62.21"/>
</g>
<!-- Node12 -->
<g id="node12" class="node">
<title>Node12</title>
<g id="a_node12"><a xlink:href="d__menu__calibration_8cpp.html" target="_top" xlink:title=" ">
<polygon fill="white" stroke="#666666" points="608,-24.5 438,-24.5 438,-5.5 608,-5.5 608,-24.5"/>
<text text-anchor="middle" x="523" y="-12.5" font-family="Helvetica,sans-Serif" font-size="10.00">src/d/menu/d_menu_calibration.cpp</text>
</a>
</g>
</g>
<!-- Node11&#45;&gt;Node12 -->
<g id="edge12" class="edge">
<title>Node11&#45;&gt;Node12</title>
<path fill="none" stroke="#63b8ff" d="M523,-54.59C523,-44.06 523,-32.53 523,-24.84"/>
<polygon fill="#63b8ff" stroke="#63b8ff" points="519.5,-54.28 523,-64.28 526.5,-54.28 519.5,-54.28"/>
</g>
<!-- Node11&#45;&gt;Node13 -->
<g id="edge13" class="edge">
<title>Node11&#45;&gt;Node13</title>
<path fill="none" stroke="#63b8ff" d="M472.24,-61.85C438.54,-49.8 395.76,-34.51 369.13,-24.99"/>
<polygon fill="#63b8ff" stroke="#63b8ff" points="470.81,-65.06 481.4,-65.13 473.17,-58.47 470.81,-65.06"/>
</g>
<!-- Node15 -->
<g id="node15" class="node">
<title>Node15</title>
<g id="a_node15"><a xlink:href="d__meter2_8cpp.html" target="_top" xlink:title=" ">
<polygon fill="white" stroke="#666666" points="250,-24.5 122,-24.5 122,-5.5 250,-5.5 250,-24.5"/>
<text text-anchor="middle" x="186" y="-12.5" font-family="Helvetica,sans-Serif" font-size="10.00">src/d/meter/d_meter2.cpp</text>
</a>
</g>
</g>
<!-- Node14&#45;&gt;Node15 -->
<g id="edge15" class="edge">
<title>Node14&#45;&gt;Node15</title>
<path fill="none" stroke="#63b8ff" d="M186,-54.59C186,-44.06 186,-32.53 186,-24.84"/>
<polygon fill="#63b8ff" stroke="#63b8ff" points="182.5,-54.28 186,-64.28 189.5,-54.28 182.5,-54.28"/>
</g>
<!-- Node16 -->
<g id="node16" class="node">
<title>Node16</title>
<g id="a_node16"><a xlink:href="d__meter__button_8cpp.html" target="_top" xlink:title=" ">
<polygon fill="white" stroke="#666666" points="104,-30 0,-30 0,0 104,0 104,-30"/>
<text text-anchor="start" x="8" y="-18" font-family="Helvetica,sans-Serif" font-size="10.00">src/d/meter/d_meter</text>
<text text-anchor="middle" x="52" y="-7" font-family="Helvetica,sans-Serif" font-size="10.00">_button.cpp</text>
</a>
</g>
</g>
<!-- Node14&#45;&gt;Node16 -->
<g id="edge16" class="edge">
<title>Node14&#45;&gt;Node16</title>
<path fill="none" stroke="#63b8ff" d="M145.64,-60.72C125.17,-50.95 100.74,-39.28 81.97,-30.31"/>
<polygon fill="#63b8ff" stroke="#63b8ff" points="144.03,-63.83 154.56,-64.98 147.05,-57.52 144.03,-63.83"/>
</g>
<!-- Node18 -->
<g id="node18" class="node">
<title>Node18</title>
<g id="a_node18"><a xlink:href="d__msg__scrn__boss_8h.html" target="_top" xlink:title=" ">
<polygon fill="#fff0f0" stroke="red" points="725.5,-30 626.5,-30 626.5,0 725.5,0 725.5,-30"/>
<text text-anchor="start" x="634.5" y="-18" font-family="Helvetica,sans-Serif" font-size="10.00">include/msg/scrn/d</text>
<text text-anchor="middle" x="676" y="-7" font-family="Helvetica,sans-Serif" font-size="10.00">_msg_scrn_boss.h</text>
</a>
</g>
</g>
<!-- Node17&#45;&gt;Node18 -->
<g id="edge18" class="edge">
<title>Node17&#45;&gt;Node18</title>
<path fill="none" stroke="#63b8ff" d="M668.14,-54.68C669.84,-46.34 671.66,-37.37 673.12,-30.16"/>
<polygon fill="#63b8ff" stroke="#63b8ff" points="664.75,-53.82 666.19,-64.31 671.61,-55.21 664.75,-53.82"/>
</g>
<!-- Node20 -->
<g id="node19" class="node">
<title>Node20</title>
<g id="a_node19"><a xlink:href="d__msg__scrn__explain_8h.html" target="_top" xlink:title=" ">
<polygon fill="#fff0f0" stroke="red" points="850.5,-30 743.5,-30 743.5,0 850.5,0 850.5,-30"/>
<text text-anchor="start" x="751.5" y="-18" font-family="Helvetica,sans-Serif" font-size="10.00">include/msg/scrn/d</text>
<text text-anchor="middle" x="797" y="-7" font-family="Helvetica,sans-Serif" font-size="10.00">_msg_scrn_explain.h</text>
</a>
</g>
</g>
<!-- Node17&#45;&gt;Node20 -->
<g id="edge19" class="edge">
<title>Node17&#45;&gt;Node20</title>
<path fill="none" stroke="#63b8ff" d="M703.36,-60.72C723.83,-50.95 748.26,-39.28 767.03,-30.31"/>
<polygon fill="#63b8ff" stroke="#63b8ff" points="701.95,-57.52 694.44,-64.98 704.97,-63.83 701.95,-57.52"/>
</g>
<!-- Node23 -->
<g id="node20" class="node">
<title>Node23</title>
<g id="a_node20"><a xlink:href="d__msg__scrn__place_8h.html" target="_top" xlink:title=" ">
<polygon fill="#fff0f0" stroke="red" points="969.5,-30 868.5,-30 868.5,0 969.5,0 969.5,-30"/>
<text text-anchor="start" x="876.5" y="-18" font-family="Helvetica,sans-Serif" font-size="10.00">include/msg/scrn/d</text>
<text text-anchor="middle" x="919" y="-7" font-family="Helvetica,sans-Serif" font-size="10.00">_msg_scrn_place.h</text>
</a>
</g>
</g>
<!-- Node17&#45;&gt;Node23 -->
<g id="edge20" class="edge">
<title>Node17&#45;&gt;Node23</title>
<path fill="none" stroke="#63b8ff" d="M724.11,-64.72C768.14,-53.72 826.85,-39.04 868.28,-28.68"/>
<polygon fill="#63b8ff" stroke="#63b8ff" points="723.29,-61.32 714.44,-67.14 724.99,-68.11 723.29,-61.32"/>
</g>
<!-- Node51&#45;&gt;Node50 -->
<g id="edge48" class="edge">
<title>Node51&#45;&gt;Node50</title>
<path fill="none" stroke="#63b8ff" d="M3405.15,-131.85C3662.22,-101.48 3731.27,-125.95 3985,-96 3996.06,-94.69 4007.92,-92.86 4019.02,-90.95"/>
<polygon fill="#63b8ff" stroke="#63b8ff" points="3404.97,-128.35 3395.46,-133.02 3405.8,-135.3 3404.97,-128.35"/>
</g>
<!-- Node52 -->
<g id="node43" class="node">
<title>Node52</title>
<g id="a_node43"><a xlink:href="J2DWindowEx_8h.html" target="_top" xlink:title=" ">
<polygon fill="#fff0f0" stroke="red" points="4426.5,-96 4291.5,-96 4291.5,-66 4426.5,-66 4426.5,-96"/>
<text text-anchor="start" x="4299.5" y="-84" font-family="Helvetica,sans-Serif" font-size="10.00">include/JSystem/J2DGraph</text>
<text text-anchor="middle" x="4359" y="-73" font-family="Helvetica,sans-Serif" font-size="10.00">/J2DWindowEx.h</text>
</a>
</g>
</g>
<!-- Node51&#45;&gt;Node52 -->
<g id="edge45" class="edge">
<title>Node51&#45;&gt;Node52</title>
<path fill="none" stroke="#63b8ff" d="M3405.24,-131.88C3794.02,-89.84 3897.7,-139.15 4283,-96 4285.67,-95.7 4288.38,-95.36 4291.12,-95"/>
<polygon fill="#63b8ff" stroke="#63b8ff" points="3405.01,-128.38 3395.45,-132.95 3405.77,-135.34 3405.01,-128.38"/>
</g>
<!-- Node54 -->
<g id="node44" class="node">
<title>Node54</title>
<g id="a_node44"><a xlink:href="J2DWindow_8cpp.html" target="_top" xlink:title=" ">
<polygon fill="white" stroke="#666666" points="4273.5,-96 4154.5,-96 4154.5,-66 4273.5,-66 4273.5,-96"/>
<text text-anchor="start" x="4162.5" y="-84" font-family="Helvetica,sans-Serif" font-size="10.00">libs/JSystem/J2DGraph</text>
<text text-anchor="middle" x="4214" y="-73" font-family="Helvetica,sans-Serif" font-size="10.00">/J2DWindow.cpp</text>
</a>
</g>
</g>
<!-- Node51&#45;&gt;Node54 -->
<g id="edge47" class="edge">
<title>Node51&#45;&gt;Node54</title>
<path fill="none" stroke="#63b8ff" d="M3405.22,-131.87C3733.43,-95.31 3821.68,-136.99 4146,-96 4148.63,-95.67 4151.31,-95.29 4154.01,-94.87"/>
<polygon fill="#63b8ff" stroke="#63b8ff" points="3404.99,-128.37 3395.45,-132.98 3405.78,-135.33 3404.99,-128.37"/>
</g>
<!-- Node52&#45;&gt;Node10 -->
<g id="edge46" class="edge">
<title>Node52&#45;&gt;Node10</title>
<path fill="none" stroke="#63b8ff" d="M4329.5,-59.25C4316.09,-49.82 4300.55,-38.9 4288.45,-30.39"/>
<polygon fill="#63b8ff" stroke="#63b8ff" points="4327.37,-62.04 4337.57,-64.93 4331.4,-56.31 4327.37,-62.04"/>
</g>
<!-- Node58&#45;&gt;Node56 -->
<g id="edge53" class="edge">
<title>Node58&#45;&gt;Node56</title>
<path fill="none" stroke="#63b8ff" d="M3146.17,-197.53C3259.67,-179.56 3290.97,-180.65 3402,-162 3405.22,-161.46 3408.52,-160.88 3411.85,-160.29"/>
<polygon fill="#63b8ff" stroke="#63b8ff" points="3145.74,-194.06 3136.42,-199.09 3146.85,-200.97 3145.74,-194.06"/>
</g>
</g>
</svg>
