<?xml version="1.0" encoding="UTF-8" standalone="no"?>
<!DOCTYPE svg PUBLIC "-//W3C//DTD SVG 1.1//EN"
 "http://www.w3.org/Graphics/SVG/1.1/DTD/svg11.dtd">
<!-- Generated by graphviz version 7.0.5 (20221223.1930)
 -->
<!-- Title: include/JSystem/J2DGraph/J2DMaterial.h Pages: 1 -->
<svg width="4771pt" height="236pt"
 viewBox="0.00 0.00 4770.50 236.00" xmlns="http://www.w3.org/2000/svg" xmlns:xlink="http://www.w3.org/1999/xlink">
<g id="graph0" class="graph" transform="scale(1 1) rotate(0) translate(4 232)">
<title>include/JSystem/J2DGraph/J2DMaterial.h</title>
<!-- Node1 -->
<g id="node1" class="node">
<title>Node1</title>
<g id="a_node1"><a xlink:title=" ">
<polygon fill="#999999" stroke="#666666" points="4492.5,-228 4357.5,-228 4357.5,-198 4492.5,-198 4492.5,-228"/>
<text text-anchor="start" x="4365.5" y="-216" font-family="Helvetica,sans-Serif" font-size="10.00">include/JSystem/J2DGraph</text>
<text text-anchor="middle" x="4425" y="-205" font-family="Helvetica,sans-Serif" font-size="10.00">/J2DMaterial.h</text>
</a>
</g>
</g>
<!-- Node2 -->
<g id="node2" class="node">
<title>Node2</title>
<g id="a_node2"><a xlink:href="J2DTextBox_8h.html" target="_top" xlink:title=" ">
<polygon fill="white" stroke="#666666" points="2476.5,-162 2341.5,-162 2341.5,-132 2476.5,-132 2476.5,-162"/>
<text text-anchor="start" x="2349.5" y="-150" font-family="Helvetica,sans-Serif" font-size="10.00">include/JSystem/J2DGraph</text>
<text text-anchor="middle" x="2409" y="-139" font-family="Helvetica,sans-Serif" font-size="10.00">/J2DTextBox.h</text>
</a>
</g>
</g>
<!-- Node1&#45;&gt;Node2 -->
<g id="edge1" class="edge">
<title>Node1&#45;&gt;Node2</title>
<path fill="none" stroke="#63b8ff" d="M4345.84,-209.49C4019.51,-199.13 2781.54,-159.83 2476.99,-150.16"/>
<polygon fill="#63b8ff" stroke="#63b8ff" points="4345.44,-212.98 4355.55,-209.8 4345.66,-205.98 4345.44,-212.98"/>
</g>
<!-- Node50 -->
<g id="node44" class="node">
<title>Node50</title>
<g id="a_node44"><a xlink:href="J2DWindow_8h.html" target="_top" xlink:title=" ">
<polygon fill="white" stroke="#666666" points="4347.5,-162 4212.5,-162 4212.5,-132 4347.5,-132 4347.5,-162"/>
<text text-anchor="start" x="4220.5" y="-150" font-family="Helvetica,sans-Serif" font-size="10.00">include/JSystem/J2DGraph</text>
<text text-anchor="middle" x="4280" y="-139" font-family="Helvetica,sans-Serif" font-size="10.00">/J2DWindow.h</text>
</a>
</g>
</g>
<!-- Node1&#45;&gt;Node50 -->
<g id="edge46" class="edge">
<title>Node1&#45;&gt;Node50</title>
<path fill="none" stroke="#63b8ff" d="M4381.97,-193.01C4359.78,-183.22 4333.16,-171.46 4312.68,-162.43"/>
<polygon fill="#63b8ff" stroke="#63b8ff" points="4380.51,-196.19 4391.07,-197.03 4383.34,-189.79 4380.51,-196.19"/>
</g>
<!-- Node54 -->
<g id="node48" class="node">
<title>Node54</title>
<g id="a_node48"><a xlink:href="J2DMaterial_8cpp.html" target="_top" xlink:title=" ">
<polygon fill="white" stroke="#666666" points="4484.5,-162 4365.5,-162 4365.5,-132 4484.5,-132 4484.5,-162"/>
<text text-anchor="start" x="4373.5" y="-150" font-family="Helvetica,sans-Serif" font-size="10.00">libs/JSystem/J2DGraph</text>
<text text-anchor="middle" x="4425" y="-139" font-family="Helvetica,sans-Serif" font-size="10.00">/J2DMaterial.cpp</text>
</a>
</g>
</g>
<!-- Node1&#45;&gt;Node54 -->
<g id="edge52" class="edge">
<title>Node1&#45;&gt;Node54</title>
<path fill="none" stroke="#63b8ff" d="M4425,-186.39C4425,-178.13 4425,-169.28 4425,-162.16"/>
<polygon fill="#63b8ff" stroke="#63b8ff" points="4421.5,-186.28 4425,-196.28 4428.5,-186.28 4421.5,-186.28"/>
</g>
<!-- Node55 -->
<g id="node49" class="node">
<title>Node55</title>
<g id="a_node49"><a xlink:href="J2DMaterialFactory_8cpp.html" target="_top" xlink:title=" ">
<polygon fill="white" stroke="#666666" points="4625,-162 4503,-162 4503,-132 4625,-132 4625,-162"/>
<text text-anchor="start" x="4511" y="-150" font-family="Helvetica,sans-Serif" font-size="10.00">libs/JSystem/J2DGraph</text>
<text text-anchor="middle" x="4564" y="-139" font-family="Helvetica,sans-Serif" font-size="10.00">/J2DMaterialFactory.cpp</text>
</a>
</g>
</g>
<!-- Node1&#45;&gt;Node55 -->
<g id="edge53" class="edge">
<title>Node1&#45;&gt;Node55</title>
<path fill="none" stroke="#63b8ff" d="M4466.58,-192.86C4487.87,-183.05 4513.35,-171.32 4532.91,-162.31"/>
<polygon fill="#63b8ff" stroke="#63b8ff" points="4465.19,-189.64 4457.57,-197 4468.12,-196 4465.19,-189.64"/>
</g>
<!-- Node56 -->
<g id="node50" class="node">
<title>Node56</title>
<g id="a_node50"><a xlink:href="J2DPictureEx_8cpp.html" target="_top" xlink:title=" ">
<polygon fill="white" stroke="#666666" points="4762.5,-162 4643.5,-162 4643.5,-132 4762.5,-132 4762.5,-162"/>
<text text-anchor="start" x="4651.5" y="-150" font-family="Helvetica,sans-Serif" font-size="10.00">libs/JSystem/J2DGraph</text>
<text text-anchor="middle" x="4703" y="-139" font-family="Helvetica,sans-Serif" font-size="10.00">/J2DPictureEx.cpp</text>
</a>
</g>
</g>
<!-- Node1&#45;&gt;Node56 -->
<g id="edge54" class="edge">
<title>Node1&#45;&gt;Node56</title>
<path fill="none" stroke="#63b8ff" d="M4498.94,-194.98C4544.1,-184.58 4601.08,-171.46 4643.35,-161.73"/>
<polygon fill="#63b8ff" stroke="#63b8ff" points="4498.17,-191.56 4489.21,-197.22 4499.74,-198.39 4498.17,-191.56"/>
</g>
<!-- Node3 -->
<g id="node3" class="node">
<title>Node3</title>
<g id="a_node3"><a xlink:href="J2DPrint_8h.html" target="_top" xlink:title=" ">
<polygon fill="white" stroke="#666666" points="3959.5,-96 3824.5,-96 3824.5,-66 3959.5,-66 3959.5,-96"/>
<text text-anchor="start" x="3832.5" y="-84" font-family="Helvetica,sans-Serif" font-size="10.00">include/JSystem/J2DGraph</text>
<text text-anchor="middle" x="3892" y="-73" font-family="Helvetica,sans-Serif" font-size="10.00">/J2DPrint.h</text>
</a>
</g>
</g>
<!-- Node2&#45;&gt;Node3 -->
<g id="edge2" class="edge">
<title>Node2&#45;&gt;Node3</title>
<path fill="none" stroke="#63b8ff" d="M2488.09,-144.57C2744.43,-139.71 3550.69,-122.64 3810,-96 3814.6,-95.53 3819.33,-94.95 3824.08,-94.31"/>
<polygon fill="#63b8ff" stroke="#63b8ff" points="2488.11,-141.07 2478.18,-144.75 2488.24,-148.07 2488.11,-141.07"/>
</g>
<!-- Node5 -->
<g id="node5" class="node">
<title>Node5</title>
<g id="a_node5"><a xlink:href="J2DTextBox_8cpp.html" target="_top" xlink:title=" ">
<polygon fill="white" stroke="#666666" points="3679.5,-30 3560.5,-30 3560.5,0 3679.5,0 3679.5,-30"/>
<text text-anchor="start" x="3568.5" y="-18" font-family="Helvetica,sans-Serif" font-size="10.00">libs/JSystem/J2DGraph</text>
<text text-anchor="middle" x="3620" y="-7" font-family="Helvetica,sans-Serif" font-size="10.00">/J2DTextBox.cpp</text>
</a>
</g>
</g>
<!-- Node2&#45;&gt;Node5 -->
<g id="edge23" class="edge">
<title>Node2&#45;&gt;Node5</title>
<path fill="none" stroke="#63b8ff" d="M2488.07,-146.1C2772.91,-146.09 3732.08,-142.59 3777,-96 3786.25,-86.4 3784.87,-76.76 3777,-66 3770.71,-57.4 3718.56,-41.87 3676.06,-30.39"/>
<polygon fill="#63b8ff" stroke="#63b8ff" points="2488.14,-142.6 2478.14,-146.1 2488.13,-149.6 2488.14,-142.6"/>
</g>
<!-- Node8 -->
<g id="node8" class="node">
<title>Node8</title>
<g id="a_node8"><a xlink:href="J2DTextBoxEx_8h.html" target="_top" xlink:title=" ">
<polygon fill="white" stroke="#666666" points="4112.5,-96 3977.5,-96 3977.5,-66 4112.5,-66 4112.5,-96"/>
<text text-anchor="start" x="3985.5" y="-84" font-family="Helvetica,sans-Serif" font-size="10.00">include/JSystem/J2DGraph</text>
<text text-anchor="middle" x="4045" y="-73" font-family="Helvetica,sans-Serif" font-size="10.00">/J2DTextBoxEx.h</text>
</a>
</g>
</g>
<!-- Node2&#45;&gt;Node8 -->
<g id="edge7" class="edge">
<title>Node2&#45;&gt;Node8</title>
<path fill="none" stroke="#63b8ff" d="M2488.07,-145.04C2763.14,-141.44 3677.33,-127.36 3969,-96 3971.67,-95.71 3974.38,-95.39 3977.12,-95.03"/>
<polygon fill="#63b8ff" stroke="#63b8ff" points="2488.08,-141.54 2478.13,-145.17 2488.17,-148.54 2488.08,-141.54"/>
</g>
<!-- Node10 -->
<g id="node10" class="node">
<title>Node10</title>
<g id="a_node10"><a xlink:href="d__menu__calibration_8h.html" target="_top" xlink:title=" ">
<polygon fill="white" stroke="#666666" points="324,-96 204,-96 204,-66 324,-66 324,-96"/>
<text text-anchor="start" x="212" y="-84" font-family="Helvetica,sans-Serif" font-size="10.00">include/d/menu/d_menu</text>
<text text-anchor="middle" x="264" y="-73" font-family="Helvetica,sans-Serif" font-size="10.00">_calibration.h</text>
</a>
</g>
</g>
<!-- Node2&#45;&gt;Node10 -->
<g id="edge10" class="edge">
<title>Node2&#45;&gt;Node10</title>
<path fill="none" stroke="#63b8ff" d="M2330.11,-146.48C2059.49,-147.61 1143.97,-147.13 390,-96 368.59,-94.55 345.21,-92.17 324.47,-89.78"/>
<polygon fill="#63b8ff" stroke="#63b8ff" points="2329.87,-149.98 2339.85,-146.44 2329.84,-142.98 2329.87,-149.98"/>
</g>
<!-- Node12 -->
<g id="node12" class="node">
<title>Node12</title>
<g id="a_node12"><a xlink:href="d__menu__option_8cpp.html" target="_top" xlink:title=" ">
<polygon fill="white" stroke="#666666" points="340,-24.5 188,-24.5 188,-5.5 340,-5.5 340,-24.5"/>
<text text-anchor="middle" x="264" y="-12.5" font-family="Helvetica,sans-Serif" font-size="10.00">src/d/menu/d_menu_option.cpp</text>
</a>
</g>
</g>
<!-- Node2&#45;&gt;Node12 -->
<g id="edge35" class="edge">
<title>Node2&#45;&gt;Node12</title>
<path fill="none" stroke="#63b8ff" d="M2329.59,-145.53C1988.63,-143.29 657.73,-132.27 474,-96 399.36,-81.27 316.59,-42.56 281.37,-24.95"/>
<polygon fill="#63b8ff" stroke="#63b8ff" points="2329.52,-149.03 2339.55,-145.59 2329.57,-142.03 2329.52,-149.03"/>
</g>
<!-- Node13 -->
<g id="node13" class="node">
<title>Node13</title>
<g id="a_node13"><a xlink:href="d__meter__button_8h.html" target="_top" xlink:title=" ">
<polygon fill="white" stroke="#666666" points="605,-96 483,-96 483,-66 605,-66 605,-96"/>
<text text-anchor="start" x="491" y="-84" font-family="Helvetica,sans-Serif" font-size="10.00">include/d/meter/d_meter</text>
<text text-anchor="middle" x="544" y="-73" font-family="Helvetica,sans-Serif" font-size="10.00">_button.h</text>
</a>
</g>
</g>
<!-- Node2&#45;&gt;Node13 -->
<g id="edge13" class="edge">
<title>Node2&#45;&gt;Node13</title>
<path fill="none" stroke="#63b8ff" d="M2329.71,-144.76C2090.13,-140.79 1352.64,-126.73 742,-96 696.05,-93.69 644.18,-89.98 605.06,-86.96"/>
<polygon fill="#63b8ff" stroke="#63b8ff" points="2329.51,-148.26 2339.56,-144.93 2329.62,-141.26 2329.51,-148.26"/>
</g>
<!-- Node16 -->
<g id="node16" class="node">
<title>Node16</title>
<g id="a_node16"><a xlink:href="d__msg__scrn__base_8h.html" target="_top" xlink:title=" ">
<polygon fill="white" stroke="#666666" points="849.5,-96 750.5,-96 750.5,-66 849.5,-66 849.5,-96"/>
<text text-anchor="start" x="758.5" y="-84" font-family="Helvetica,sans-Serif" font-size="10.00">include/msg/scrn/d</text>
<text text-anchor="middle" x="800" y="-73" font-family="Helvetica,sans-Serif" font-size="10.00">_msg_scrn_base.h</text>
</a>
</g>
</g>
<!-- Node2&#45;&gt;Node16 -->
<g id="edge16" class="edge">
<title>Node2&#45;&gt;Node16</title>
<path fill="none" stroke="#63b8ff" d="M2329.91,-145.55C2055.82,-143.64 1147.75,-134.52 859,-96 855.97,-95.6 852.88,-95.1 849.76,-94.55"/>
<polygon fill="#63b8ff" stroke="#63b8ff" points="2329.78,-149.04 2339.81,-145.61 2329.83,-142.05 2329.78,-149.04"/>
</g>
<!-- Node29 -->
<g id="node23" class="node">
<title>Node29</title>
<g id="a_node23"><a xlink:href="d__bright__check_8cpp.html" target="_top" xlink:title=" ">
<polygon fill="white" stroke="#666666" points="992.5,-90.5 867.5,-90.5 867.5,-71.5 992.5,-71.5 992.5,-90.5"/>
<text text-anchor="middle" x="930" y="-78.5" font-family="Helvetica,sans-Serif" font-size="10.00">src/d/d_bright_check.cpp</text>
</a>
</g>
</g>
<!-- Node2&#45;&gt;Node29 -->
<g id="edge24" class="edge">
<title>Node2&#45;&gt;Node29</title>
<path fill="none" stroke="#63b8ff" d="M2329.55,-144.81C2072.03,-140.71 1262.1,-125.72 1002,-96 991.63,-94.81 980.51,-92.95 970.19,-90.97"/>
<polygon fill="#63b8ff" stroke="#63b8ff" points="2329.46,-148.31 2339.51,-144.97 2329.57,-141.31 2329.46,-148.31"/>
</g>
<!-- Node30 -->
<g id="node24" class="node">
<title>Node30</title>
<g id="a_node24"><a xlink:href="d__name_8cpp.html" target="_top" xlink:title=" ">
<polygon fill="white" stroke="#666666" points="1105,-90.5 1011,-90.5 1011,-71.5 1105,-71.5 1105,-90.5"/>
<text text-anchor="middle" x="1058" y="-78.5" font-family="Helvetica,sans-Serif" font-size="10.00">src/d/d_name.cpp</text>
</a>
</g>
</g>
<!-- Node2&#45;&gt;Node30 -->
<g id="edge25" class="edge">
<title>Node2&#45;&gt;Node30</title>
<path fill="none" stroke="#63b8ff" d="M2330.11,-145.04C2087.01,-141.76 1351.55,-129.27 1115,-96 1106.73,-94.84 1097.9,-92.98 1089.73,-91"/>
<polygon fill="#63b8ff" stroke="#63b8ff" points="2329.75,-148.54 2339.79,-145.17 2329.84,-141.54 2329.75,-148.54"/>
</g>
<!-- Node31 -->
<g id="node25" class="node">
<title>Node31</title>
<g id="a_node25"><a xlink:href="d__file__sel__info_8cpp.html" target="_top" xlink:title=" ">
<polygon fill="white" stroke="#666666" points="1220.5,-96 1123.5,-96 1123.5,-66 1220.5,-66 1220.5,-96"/>
<text text-anchor="start" x="1131.5" y="-84" font-family="Helvetica,sans-Serif" font-size="10.00">src/d/file/d_file_sel</text>
<text text-anchor="middle" x="1172" y="-73" font-family="Helvetica,sans-Serif" font-size="10.00">_info.cpp</text>
</a>
</g>
</g>
<!-- Node2&#45;&gt;Node31 -->
<g id="edge26" class="edge">
<title>Node2&#45;&gt;Node31</title>
<path fill="none" stroke="#63b8ff" d="M2330.17,-144.66C2101.95,-140.45 1443.35,-125.98 1230,-96 1227.03,-95.58 1223.98,-95.08 1220.92,-94.52"/>
<polygon fill="#63b8ff" stroke="#63b8ff" points="2329.78,-148.15 2339.84,-144.83 2329.91,-141.15 2329.78,-148.15"/>
</g>
<!-- Node32 -->
<g id="node26" class="node">
<title>Node32</title>
<g id="a_node26"><a xlink:href="d__file__sel__warning_8cpp.html" target="_top" xlink:title=" ">
<polygon fill="white" stroke="#666666" points="1335.5,-96 1238.5,-96 1238.5,-66 1335.5,-66 1335.5,-96"/>
<text text-anchor="start" x="1246.5" y="-84" font-family="Helvetica,sans-Serif" font-size="10.00">src/d/file/d_file_sel</text>
<text text-anchor="middle" x="1287" y="-73" font-family="Helvetica,sans-Serif" font-size="10.00">_warning.cpp</text>
</a>
</g>
</g>
<!-- Node2&#45;&gt;Node32 -->
<g id="edge27" class="edge">
<title>Node2&#45;&gt;Node32</title>
<path fill="none" stroke="#63b8ff" d="M2329.9,-144.23C2117,-139.16 1535.1,-123.16 1345,-96 1342.03,-95.58 1338.98,-95.07 1335.92,-94.5"/>
<polygon fill="#63b8ff" stroke="#63b8ff" points="2329.68,-147.73 2339.76,-144.46 2329.85,-140.73 2329.68,-147.73"/>
</g>
<!-- Node33 -->
<g id="node27" class="node">
<title>Node33</title>
<g id="a_node27"><a xlink:href="d__file__sel__warning__NONMATCHING_8cpp.html" target="_top" xlink:title=" ">
<polygon fill="white" stroke="#666666" points="1508.5,-96 1353.5,-96 1353.5,-66 1508.5,-66 1508.5,-96"/>
<text text-anchor="start" x="1361.5" y="-84" font-family="Helvetica,sans-Serif" font-size="10.00">src/d/file/d_file_sel</text>
<text text-anchor="middle" x="1431" y="-73" font-family="Helvetica,sans-Serif" font-size="10.00">_warning_NONMATCHING.cpp</text>
</a>
</g>
</g>
<!-- Node2&#45;&gt;Node33 -->
<g id="edge28" class="edge">
<title>Node2&#45;&gt;Node33</title>
<path fill="none" stroke="#63b8ff" d="M2329.87,-144.31C2174.05,-140.37 1816.66,-128.32 1518,-96 1514.96,-95.67 1511.86,-95.31 1508.73,-94.92"/>
<polygon fill="#63b8ff" stroke="#63b8ff" points="2329.58,-147.8 2339.67,-144.55 2329.76,-140.8 2329.58,-147.8"/>
</g>
<!-- Node34 -->
<g id="node28" class="node">
<title>Node34</title>
<g id="a_node28"><a xlink:href="d__file__select_8cpp.html" target="_top" xlink:title=" ">
<polygon fill="white" stroke="#666666" points="1655,-90.5 1527,-90.5 1527,-71.5 1655,-71.5 1655,-90.5"/>
<text text-anchor="middle" x="1591" y="-78.5" font-family="Helvetica,sans-Serif" font-size="10.00">src/d/file/d_file_select.cpp</text>
</a>
</g>
</g>
<!-- Node2&#45;&gt;Node34 -->
<g id="edge29" class="edge">
<title>Node2&#45;&gt;Node34</title>
<path fill="none" stroke="#63b8ff" d="M2329.9,-143.8C2193.65,-139.31 1906.06,-126.79 1665,-96 1654.75,-94.69 1643.78,-92.86 1633.51,-90.95"/>
<polygon fill="#63b8ff" stroke="#63b8ff" points="2329.41,-147.28 2339.52,-144.11 2329.64,-140.29 2329.41,-147.28"/>
</g>
<!-- Node35 -->
<g id="node29" class="node">
<title>Node35</title>
<g id="a_node29"><a xlink:href="d__menu__collect_8cpp.html" target="_top" xlink:title=" ">
<polygon fill="white" stroke="#666666" points="1828.5,-90.5 1673.5,-90.5 1673.5,-71.5 1828.5,-71.5 1828.5,-90.5"/>
<text text-anchor="middle" x="1751" y="-78.5" font-family="Helvetica,sans-Serif" font-size="10.00">src/d/menu/d_menu_collect.cpp</text>
</a>
</g>
</g>
<!-- Node2&#45;&gt;Node35 -->
<g id="edge30" class="edge">
<title>Node2&#45;&gt;Node35</title>
<path fill="none" stroke="#63b8ff" d="M2329.8,-140.88C2219.37,-133.33 2013.02,-117.72 1838,-96 1826.61,-94.59 1814.43,-92.8 1802.9,-90.98"/>
<polygon fill="#63b8ff" stroke="#63b8ff" points="2329.43,-144.36 2339.64,-141.55 2329.9,-137.38 2329.43,-144.36"/>
</g>
<!-- Node36 -->
<g id="node30" class="node">
<title>Node36</title>
<g id="a_node30"><a xlink:href="d__menu__fishing_8cpp.html" target="_top" xlink:title=" ">
<polygon fill="white" stroke="#666666" points="2001,-90.5 1847,-90.5 1847,-71.5 2001,-71.5 2001,-90.5"/>
<text text-anchor="middle" x="1924" y="-78.5" font-family="Helvetica,sans-Serif" font-size="10.00">src/d/menu/d_menu_fishing.cpp</text>
</a>
</g>
</g>
<!-- Node2&#45;&gt;Node36 -->
<g id="edge31" class="edge">
<title>Node2&#45;&gt;Node36</title>
<path fill="none" stroke="#63b8ff" d="M2330.08,-136.98C2249.51,-127.56 2120.87,-111.97 2010,-96 1999.37,-94.47 1988.02,-92.71 1977.17,-90.97"/>
<polygon fill="#63b8ff" stroke="#63b8ff" points="2329.28,-140.41 2339.62,-138.09 2330.09,-133.45 2329.28,-140.41"/>
</g>
<!-- Node37 -->
<g id="node31" class="node">
<title>Node37</title>
<g id="a_node31"><a xlink:href="d__menu__insect_8cpp.html" target="_top" xlink:title=" ">
<polygon fill="white" stroke="#666666" points="2171,-90.5 2019,-90.5 2019,-71.5 2171,-71.5 2171,-90.5"/>
<text text-anchor="middle" x="2095" y="-78.5" font-family="Helvetica,sans-Serif" font-size="10.00">src/d/menu/d_menu_insect.cpp</text>
</a>
</g>
</g>
<!-- Node2&#45;&gt;Node37 -->
<g id="edge32" class="edge">
<title>Node2&#45;&gt;Node37</title>
<path fill="none" stroke="#63b8ff" d="M2330.21,-129.94C2269.71,-117.61 2188.4,-101.04 2138.95,-90.96"/>
<polygon fill="#63b8ff" stroke="#63b8ff" points="2329.27,-133.32 2339.77,-131.89 2330.67,-126.46 2329.27,-133.32"/>
</g>
<!-- Node38 -->
<g id="node32" class="node">
<title>Node38</title>
<g id="a_node32"><a xlink:href="d__menu__item__explain_8cpp.html" target="_top" xlink:title=" ">
<polygon fill="white" stroke="#666666" points="2316.5,-96 2189.5,-96 2189.5,-66 2316.5,-66 2316.5,-96"/>
<text text-anchor="start" x="2197.5" y="-84" font-family="Helvetica,sans-Serif" font-size="10.00">src/d/menu/d_menu_item</text>
<text text-anchor="middle" x="2253" y="-73" font-family="Helvetica,sans-Serif" font-size="10.00">_explain.cpp</text>
</a>
</g>
</g>
<!-- Node2&#45;&gt;Node38 -->
<g id="edge33" class="edge">
<title>Node2&#45;&gt;Node38</title>
<path fill="none" stroke="#63b8ff" d="M2363.36,-127.27C2339.36,-117.43 2310.39,-105.55 2288.16,-96.43"/>
<polygon fill="#63b8ff" stroke="#63b8ff" points="2362.01,-130.51 2372.59,-131.06 2364.67,-124.03 2362.01,-130.51"/>
</g>
<!-- Node39 -->
<g id="node33" class="node">
<title>Node39</title>
<g id="a_node33"><a xlink:href="d__menu__letter_8cpp.html" target="_top" xlink:title=" ">
<polygon fill="white" stroke="#666666" points="2483,-90.5 2335,-90.5 2335,-71.5 2483,-71.5 2483,-90.5"/>
<text text-anchor="middle" x="2409" y="-78.5" font-family="Helvetica,sans-Serif" font-size="10.00">src/d/menu/d_menu_letter.cpp</text>
</a>
</g>
</g>
<!-- Node2&#45;&gt;Node39 -->
<g id="edge34" class="edge">
<title>Node2&#45;&gt;Node39</title>
<path fill="none" stroke="#63b8ff" d="M2409,-120.59C2409,-110.06 2409,-98.53 2409,-90.84"/>
<polygon fill="#63b8ff" stroke="#63b8ff" points="2405.5,-120.28 2409,-130.28 2412.5,-120.28 2405.5,-120.28"/>
</g>
<!-- Node40 -->
<g id="node34" class="node">
<title>Node40</title>
<g id="a_node34"><a xlink:href="d__menu__ring_8cpp.html" target="_top" xlink:title=" ">
<polygon fill="white" stroke="#666666" points="2643,-90.5 2501,-90.5 2501,-71.5 2643,-71.5 2643,-90.5"/>
<text text-anchor="middle" x="2572" y="-78.5" font-family="Helvetica,sans-Serif" font-size="10.00">src/d/menu/d_menu_ring.cpp</text>
</a>
</g>
</g>
<!-- Node2&#45;&gt;Node40 -->
<g id="edge36" class="edge">
<title>Node2&#45;&gt;Node40</title>
<path fill="none" stroke="#63b8ff" d="M2456.02,-127.54C2486.58,-115.54 2525.07,-100.43 2549.11,-90.99"/>
<polygon fill="#63b8ff" stroke="#63b8ff" points="2455.02,-124.17 2446.99,-131.08 2457.58,-130.69 2455.02,-124.17"/>
</g>
<!-- Node41 -->
<g id="node35" class="node">
<title>Node41</title>
<g id="a_node35"><a xlink:href="d__menu__skill_8cpp.html" target="_top" xlink:title=" ">
<polygon fill="white" stroke="#666666" points="2804.5,-90.5 2661.5,-90.5 2661.5,-71.5 2804.5,-71.5 2804.5,-90.5"/>
<text text-anchor="middle" x="2733" y="-78.5" font-family="Helvetica,sans-Serif" font-size="10.00">src/d/menu/d_menu_skill.cpp</text>
</a>
</g>
</g>
<!-- Node2&#45;&gt;Node41 -->
<g id="edge37" class="edge">
<title>Node2&#45;&gt;Node41</title>
<path fill="none" stroke="#63b8ff" d="M2487.94,-130.41C2550.56,-118.04 2635.88,-101.18 2687.56,-90.98"/>
<polygon fill="#63b8ff" stroke="#63b8ff" points="2487.54,-126.92 2478.41,-132.29 2488.89,-133.79 2487.54,-126.92"/>
</g>
<!-- Node42 -->
<g id="node36" class="node">
<title>Node42</title>
<g id="a_node36"><a xlink:href="d__meter2__draw_8cpp.html" target="_top" xlink:title=" ">
<polygon fill="white" stroke="#666666" points="2933,-96 2823,-96 2823,-66 2933,-66 2933,-96"/>
<text text-anchor="start" x="2831" y="-84" font-family="Helvetica,sans-Serif" font-size="10.00">src/d/meter/d_meter2</text>
<text text-anchor="middle" x="2878" y="-73" font-family="Helvetica,sans-Serif" font-size="10.00">_draw.cpp</text>
</a>
</g>
</g>
<!-- Node2&#45;&gt;Node42 -->
<g id="edge38" class="edge">
<title>Node2&#45;&gt;Node42</title>
<path fill="none" stroke="#63b8ff" d="M2488.22,-138.41C2570.09,-130.05 2701.45,-115.22 2814,-96 2816.8,-95.52 2819.67,-95 2822.56,-94.46"/>
<polygon fill="#63b8ff" stroke="#63b8ff" points="2488.1,-134.9 2478.5,-139.39 2488.81,-141.87 2488.1,-134.9"/>
</g>
<!-- Node43 -->
<g id="node37" class="node">
<title>Node43</title>
<g id="a_node37"><a xlink:href="d__meter2__info_8cpp.html" target="_top" xlink:title=" ">
<polygon fill="white" stroke="#666666" points="3061,-96 2951,-96 2951,-66 3061,-66 3061,-96"/>
<text text-anchor="start" x="2959" y="-84" font-family="Helvetica,sans-Serif" font-size="10.00">src/d/meter/d_meter2</text>
<text text-anchor="middle" x="3006" y="-73" font-family="Helvetica,sans-Serif" font-size="10.00">_info.cpp</text>
</a>
</g>
</g>
<!-- Node2&#45;&gt;Node43 -->
<g id="edge39" class="edge">
<title>Node2&#45;&gt;Node43</title>
<path fill="none" stroke="#63b8ff" d="M2488.01,-141.61C2592.4,-135.11 2781.79,-120.94 2942,-96 2944.81,-95.56 2947.68,-95.08 2950.57,-94.56"/>
<polygon fill="#63b8ff" stroke="#63b8ff" points="2487.91,-138.1 2478.15,-142.21 2488.34,-145.09 2487.91,-138.1"/>
</g>
<!-- Node44 -->
<g id="node38" class="node">
<title>Node44</title>
<g id="a_node38"><a xlink:href="d__meter__string_8cpp.html" target="_top" xlink:title=" ">
<polygon fill="white" stroke="#666666" points="3183,-96 3079,-96 3079,-66 3183,-66 3183,-96"/>
<text text-anchor="start" x="3087" y="-84" font-family="Helvetica,sans-Serif" font-size="10.00">src/d/meter/d_meter</text>
<text text-anchor="middle" x="3131" y="-73" font-family="Helvetica,sans-Serif" font-size="10.00">_string.cpp</text>
</a>
</g>
</g>
<!-- Node2&#45;&gt;Node44 -->
<g id="edge40" class="edge">
<title>Node2&#45;&gt;Node44</title>
<path fill="none" stroke="#63b8ff" d="M2488.23,-143.85C2612.72,-139.6 2861.46,-127.64 3070,-96 3072.79,-95.58 3075.65,-95.09 3078.52,-94.57"/>
<polygon fill="#63b8ff" stroke="#63b8ff" points="2488.33,-140.34 2478.45,-144.17 2488.56,-147.34 2488.33,-140.34"/>
</g>
<!-- Node45 -->
<g id="node39" class="node">
<title>Node45</title>
<g id="a_node39"><a xlink:href="d__msg__class_8cpp.html" target="_top" xlink:title=" ">
<polygon fill="white" stroke="#666666" points="3340.5,-90.5 3201.5,-90.5 3201.5,-71.5 3340.5,-71.5 3340.5,-90.5"/>
<text text-anchor="middle" x="3271" y="-78.5" font-family="Helvetica,sans-Serif" font-size="10.00">src/d/msg/d_msg_class.cpp</text>
</a>
</g>
</g>
<!-- Node2&#45;&gt;Node45 -->
<g id="edge41" class="edge">
<title>Node2&#45;&gt;Node45</title>
<path fill="none" stroke="#63b8ff" d="M2487.92,-143.87C2629.44,-139.41 2935.56,-126.81 3192,-96 3202.93,-94.69 3214.63,-92.85 3225.59,-90.94"/>
<polygon fill="#63b8ff" stroke="#63b8ff" points="2488.19,-140.36 2478.3,-144.17 2488.4,-147.36 2488.19,-140.36"/>
</g>
<!-- Node46 -->
<g id="node40" class="node">
<title>Node46</title>
<g id="a_node40"><a xlink:href="d__msg__out__font_8cpp.html" target="_top" xlink:title=" ">
<polygon fill="white" stroke="#666666" points="3469.5,-96 3358.5,-96 3358.5,-66 3469.5,-66 3469.5,-96"/>
<text text-anchor="start" x="3366.5" y="-84" font-family="Helvetica,sans-Serif" font-size="10.00">src/d/msg/d_msg_out</text>
<text text-anchor="middle" x="3414" y="-73" font-family="Helvetica,sans-Serif" font-size="10.00">_font.cpp</text>
</a>
</g>
</g>
<!-- Node2&#45;&gt;Node46 -->
<g id="edge42" class="edge">
<title>Node2&#45;&gt;Node46</title>
<path fill="none" stroke="#63b8ff" d="M2488.27,-146.12C2650.7,-145.4 3032.75,-138.84 3350,-96 3352.71,-95.63 3355.47,-95.21 3358.25,-94.75"/>
<polygon fill="#63b8ff" stroke="#63b8ff" points="2488.46,-142.61 2478.48,-146.15 2488.49,-149.61 2488.46,-142.61"/>
</g>
<!-- Node47 -->
<g id="node41" class="node">
<title>Node47</title>
<g id="a_node41"><a xlink:href="d__msg__string_8cpp.html" target="_top" xlink:title=" ">
<polygon fill="white" stroke="#666666" points="3628,-90.5 3488,-90.5 3488,-71.5 3628,-71.5 3628,-90.5"/>
<text text-anchor="middle" x="3558" y="-78.5" font-family="Helvetica,sans-Serif" font-size="10.00">src/d/msg/d_msg_string.cpp</text>
</a>
</g>
</g>
<!-- Node2&#45;&gt;Node47 -->
<g id="edge43" class="edge">
<title>Node2&#45;&gt;Node47</title>
<path fill="none" stroke="#63b8ff" d="M2488.16,-145.78C2665.91,-144.52 3110.07,-137.14 3479,-96 3490.21,-94.75 3502.24,-92.89 3513.44,-90.93"/>
<polygon fill="#63b8ff" stroke="#63b8ff" points="2488.33,-142.28 2478.35,-145.84 2488.38,-149.28 2488.33,-142.28"/>
</g>
<!-- Node48 -->
<g id="node42" class="node">
<title>Node48</title>
<g id="a_node42"><a xlink:href="d__msg__string__base_8cpp.html" target="_top" xlink:title=" ">
<polygon fill="white" stroke="#666666" points="3768,-96 3646,-96 3646,-66 3768,-66 3768,-96"/>
<text text-anchor="start" x="3654" y="-84" font-family="Helvetica,sans-Serif" font-size="10.00">src/d/msg/d_msg_string</text>
<text text-anchor="middle" x="3707" y="-73" font-family="Helvetica,sans-Serif" font-size="10.00">_base.cpp</text>
</a>
</g>
</g>
<!-- Node2&#45;&gt;Node48 -->
<g id="edge44" class="edge">
<title>Node2&#45;&gt;Node48</title>
<path fill="none" stroke="#63b8ff" d="M2488.16,-144.4C2722.99,-139.39 3413.29,-122.76 3637,-96 3639.83,-95.66 3642.72,-95.27 3645.63,-94.84"/>
<polygon fill="#63b8ff" stroke="#63b8ff" points="2488.09,-140.9 2478.17,-144.61 2488.24,-147.9 2488.09,-140.9"/>
</g>
<!-- Node49 -->
<g id="node43" class="node">
<title>Node49</title>
<g id="a_node43"><a xlink:href="d__pane__class_8cpp.html" target="_top" xlink:title=" ">
<polygon fill="white" stroke="#666666" points="4273.5,-90.5 4130.5,-90.5 4130.5,-71.5 4273.5,-71.5 4273.5,-90.5"/>
<text text-anchor="middle" x="4202" y="-78.5" font-family="Helvetica,sans-Serif" font-size="10.00">src/d/pane/d_pane_class.cpp</text>
</a>
</g>
</g>
<!-- Node2&#45;&gt;Node49 -->
<g id="edge45" class="edge">
<title>Node2&#45;&gt;Node49</title>
<path fill="none" stroke="#63b8ff" d="M2487.86,-145.21C2779.76,-142.04 3798.68,-128.84 4122,-96 4133.5,-94.83 4145.84,-92.98 4157.31,-90.99"/>
<polygon fill="#63b8ff" stroke="#63b8ff" points="2488.03,-141.71 2478.07,-145.31 2488.1,-148.71 2488.03,-141.71"/>
</g>
<!-- Node4 -->
<g id="node4" class="node">
<title>Node4</title>
<g id="a_node4"><a xlink:href="J2DPrint_8cpp.html" target="_top" xlink:title=" ">
<polygon fill="white" stroke="#666666" points="3816.5,-30 3697.5,-30 3697.5,0 3816.5,0 3816.5,-30"/>
<text text-anchor="start" x="3705.5" y="-18" font-family="Helvetica,sans-Serif" font-size="10.00">libs/JSystem/J2DGraph</text>
<text text-anchor="middle" x="3757" y="-7" font-family="Helvetica,sans-Serif" font-size="10.00">/J2DPrint.cpp</text>
</a>
</g>
</g>
<!-- Node3&#45;&gt;Node4 -->
<g id="edge3" class="edge">
<title>Node3&#45;&gt;Node4</title>
<path fill="none" stroke="#63b8ff" d="M3851.34,-60.72C3830.72,-50.95 3806.11,-39.28 3787.2,-30.31"/>
<polygon fill="#63b8ff" stroke="#63b8ff" points="3849.8,-63.87 3860.34,-64.99 3852.8,-57.54 3849.8,-63.87"/>
</g>
<!-- Node3&#45;&gt;Node5 -->
<g id="edge4" class="edge">
<title>Node3&#45;&gt;Node5</title>
<path fill="none" stroke="#63b8ff" d="M3819.49,-62.94C3775.83,-52.67 3720.91,-39.74 3679.75,-30.06"/>
<polygon fill="#63b8ff" stroke="#63b8ff" points="3818.61,-66.33 3829.15,-65.21 3820.21,-59.51 3818.61,-66.33"/>
</g>
<!-- Node6 -->
<g id="node6" class="node">
<title>Node6</title>
<g id="a_node6"><a xlink:href="J2DTextBoxEx_8cpp.html" target="_top" xlink:title=" ">
<polygon fill="white" stroke="#666666" points="4114.5,-30 3995.5,-30 3995.5,0 4114.5,0 4114.5,-30"/>
<text text-anchor="start" x="4003.5" y="-18" font-family="Helvetica,sans-Serif" font-size="10.00">libs/JSystem/J2DGraph</text>
<text text-anchor="middle" x="4055" y="-7" font-family="Helvetica,sans-Serif" font-size="10.00">/J2DTextBoxEx.cpp</text>
</a>
</g>
</g>
<!-- Node3&#45;&gt;Node6 -->
<g id="edge5" class="edge">
<title>Node3&#45;&gt;Node6</title>
<path fill="none" stroke="#63b8ff" d="M3939.02,-61.54C3964.22,-51.64 3994.82,-39.63 4018.26,-30.43"/>
<polygon fill="#63b8ff" stroke="#63b8ff" points="3938.02,-58.17 3929.99,-65.08 3940.58,-64.69 3938.02,-58.17"/>
</g>
<!-- Node7 -->
<g id="node7" class="node">
<title>Node7</title>
<g id="a_node7"><a xlink:href="m__Do__graphic_8cpp.html" target="_top" xlink:title=" ">
<polygon fill="white" stroke="#666666" points="3977,-24.5 3835,-24.5 3835,-5.5 3977,-5.5 3977,-24.5"/>
<text text-anchor="middle" x="3906" y="-12.5" font-family="Helvetica,sans-Serif" font-size="10.00">src/m_Do/m_Do_graphic.cpp</text>
</a>
</g>
</g>
<!-- Node3&#45;&gt;Node7 -->
<g id="edge6" class="edge">
<title>Node3&#45;&gt;Node7</title>
<path fill="none" stroke="#63b8ff" d="M3897.56,-54.59C3899.86,-44.06 3902.38,-32.53 3904.07,-24.84"/>
<polygon fill="#63b8ff" stroke="#63b8ff" points="3894.15,-53.8 3895.43,-64.32 3900.99,-55.3 3894.15,-53.8"/>
</g>
<!-- Node8&#45;&gt;Node6 -->
<g id="edge9" class="edge">
<title>Node8&#45;&gt;Node6</title>
<path fill="none" stroke="#63b8ff" d="M4048.96,-54.68C4050.26,-46.34 4051.66,-37.37 4052.79,-30.16"/>
<polygon fill="#63b8ff" stroke="#63b8ff" points="4045.54,-53.88 4047.45,-64.3 4052.45,-54.96 4045.54,-53.88"/>
</g>
<!-- Node9 -->
<g id="node9" class="node">
<title>Node9</title>
<g id="a_node9"><a xlink:href="J2DScreen_8cpp.html" target="_top" xlink:title=" ">
<polygon fill="white" stroke="#666666" points="4261.5,-30 4142.5,-30 4142.5,0 4261.5,0 4261.5,-30"/>
<text text-anchor="start" x="4150.5" y="-18" font-family="Helvetica,sans-Serif" font-size="10.00">libs/JSystem/J2DGraph</text>
<text text-anchor="middle" x="4202" y="-7" font-family="Helvetica,sans-Serif" font-size="10.00">/J2DScreen.cpp</text>
</a>
</g>
</g>
<!-- Node8&#45;&gt;Node9 -->
<g id="edge8" class="edge">
<title>Node8&#45;&gt;Node9</title>
<path fill="none" stroke="#63b8ff" d="M4090.61,-61.41C4114.82,-51.54 4144.14,-39.59 4166.61,-30.43"/>
<polygon fill="#63b8ff" stroke="#63b8ff" points="4089.57,-58.05 4081.64,-65.07 4092.22,-64.53 4089.57,-58.05"/>
</g>
<!-- Node11 -->
<g id="node11" class="node">
<title>Node11</title>
<g id="a_node11"><a xlink:href="d__menu__calibration_8cpp.html" target="_top" xlink:title=" ">
<polygon fill="white" stroke="#666666" points="170,-24.5 0,-24.5 0,-5.5 170,-5.5 170,-24.5"/>
<text text-anchor="middle" x="85" y="-12.5" font-family="Helvetica,sans-Serif" font-size="10.00">src/d/menu/d_menu_calibration.cpp</text>
</a>
</g>
</g>
<!-- Node10&#45;&gt;Node11 -->
<g id="edge11" class="edge">
<title>Node10&#45;&gt;Node11</title>
<path fill="none" stroke="#63b8ff" d="M213.24,-61.85C179.54,-49.8 136.76,-34.51 110.13,-24.99"/>
<polygon fill="#63b8ff" stroke="#63b8ff" points="211.81,-65.06 222.4,-65.13 214.17,-58.47 211.81,-65.06"/>
</g>
<!-- Node10&#45;&gt;Node12 -->
<g id="edge12" class="edge">
<title>Node10&#45;&gt;Node12</title>
<path fill="none" stroke="#63b8ff" d="M264,-54.59C264,-44.06 264,-32.53 264,-24.84"/>
<polygon fill="#63b8ff" stroke="#63b8ff" points="260.5,-54.28 264,-64.28 267.5,-54.28 260.5,-54.28"/>
</g>
<!-- Node14 -->
<g id="node14" class="node">
<title>Node14</title>
<g id="a_node14"><a xlink:href="d__meter2_8cpp.html" target="_top" xlink:title=" ">
<polygon fill="white" stroke="#666666" points="608,-24.5 480,-24.5 480,-5.5 608,-5.5 608,-24.5"/>
<text text-anchor="middle" x="544" y="-12.5" font-family="Helvetica,sans-Serif" font-size="10.00">src/d/meter/d_meter2.cpp</text>
</a>
</g>
</g>
<!-- Node13&#45;&gt;Node14 -->
<g id="edge14" class="edge">
<title>Node13&#45;&gt;Node14</title>
<path fill="none" stroke="#63b8ff" d="M544,-54.59C544,-44.06 544,-32.53 544,-24.84"/>
<polygon fill="#63b8ff" stroke="#63b8ff" points="540.5,-54.28 544,-64.28 547.5,-54.28 540.5,-54.28"/>
</g>
<!-- Node15 -->
<g id="node15" class="node">
<title>Node15</title>
<g id="a_node15"><a xlink:href="d__meter__button_8cpp.html" target="_top" xlink:title=" ">
<polygon fill="white" stroke="#666666" points="462,-30 358,-30 358,0 462,0 462,-30"/>
<text text-anchor="start" x="366" y="-18" font-family="Helvetica,sans-Serif" font-size="10.00">src/d/meter/d_meter</text>
<text text-anchor="middle" x="410" y="-7" font-family="Helvetica,sans-Serif" font-size="10.00">_button.cpp</text>
</a>
</g>
</g>
<!-- Node13&#45;&gt;Node15 -->
<g id="edge15" class="edge">
<title>Node13&#45;&gt;Node15</title>
<path fill="none" stroke="#63b8ff" d="M503.64,-60.72C483.17,-50.95 458.74,-39.28 439.97,-30.31"/>
<polygon fill="#63b8ff" stroke="#63b8ff" points="502.03,-63.83 512.56,-64.98 505.05,-57.52 502.03,-63.83"/>
</g>
<!-- Node17 -->
<g id="node17" class="node">
<title>Node17</title>
<g id="a_node17"><a xlink:href="d__msg__scrn__boss_8h.html" target="_top" xlink:title=" ">
<polygon fill="#fff0f0" stroke="red" points="849.5,-30 750.5,-30 750.5,0 849.5,0 849.5,-30"/>
<text text-anchor="start" x="758.5" y="-18" font-family="Helvetica,sans-Serif" font-size="10.00">include/msg/scrn/d</text>
<text text-anchor="middle" x="800" y="-7" font-family="Helvetica,sans-Serif" font-size="10.00">_msg_scrn_boss.h</text>
</a>
</g>
</g>
<!-- Node16&#45;&gt;Node17 -->
<g id="edge17" class="edge">
<title>Node16&#45;&gt;Node17</title>
<path fill="none" stroke="#63b8ff" d="M800,-54.39C800,-46.13 800,-37.28 800,-30.16"/>
<polygon fill="#63b8ff" stroke="#63b8ff" points="796.5,-54.28 800,-64.28 803.5,-54.28 796.5,-54.28"/>
</g>
<!-- Node19 -->
<g id="node18" class="node">
<title>Node19</title>
<g id="a_node18"><a xlink:href="d__msg__scrn__explain_8h.html" target="_top" xlink:title=" ">
<polygon fill="#fff0f0" stroke="red" points="974.5,-30 867.5,-30 867.5,0 974.5,0 974.5,-30"/>
<text text-anchor="start" x="875.5" y="-18" font-family="Helvetica,sans-Serif" font-size="10.00">include/msg/scrn/d</text>
<text text-anchor="middle" x="921" y="-7" font-family="Helvetica,sans-Serif" font-size="10.00">_msg_scrn_explain.h</text>
</a>
</g>
</g>
<!-- Node16&#45;&gt;Node19 -->
<g id="edge18" class="edge">
<title>Node16&#45;&gt;Node19</title>
<path fill="none" stroke="#63b8ff" d="M837.21,-60.32C855.53,-50.63 877.22,-39.16 893.94,-30.31"/>
<polygon fill="#63b8ff" stroke="#63b8ff" points="835.7,-57.16 828.49,-64.93 838.97,-63.35 835.7,-57.16"/>
</g>
<!-- Node22 -->
<g id="node19" class="node">
<title>Node22</title>
<g id="a_node19"><a xlink:href="d__msg__scrn__place_8h.html" target="_top" xlink:title=" ">
<polygon fill="#fff0f0" stroke="red" points="1093.5,-30 992.5,-30 992.5,0 1093.5,0 1093.5,-30"/>
<text text-anchor="start" x="1000.5" y="-18" font-family="Helvetica,sans-Serif" font-size="10.00">include/msg/scrn/d</text>
<text text-anchor="middle" x="1043" y="-7" font-family="Helvetica,sans-Serif" font-size="10.00">_msg_scrn_place.h</text>
</a>
</g>
</g>
<!-- Node16&#45;&gt;Node22 -->
<g id="edge19" class="edge">
<title>Node16&#45;&gt;Node22</title>
<path fill="none" stroke="#63b8ff" d="M860.83,-63.98C901.28,-53.33 953.8,-39.49 992.05,-29.42"/>
<polygon fill="#63b8ff" stroke="#63b8ff" points="860,-60.58 851.22,-66.51 861.79,-67.35 860,-60.58"/>
</g>
<!-- Node24 -->
<g id="node20" class="node">
<title>Node24</title>
<g id="a_node20"><a xlink:href="d__msg__scrn__staff_8h.html" target="_top" xlink:title=" ">
<polygon fill="#fff0f0" stroke="red" points="1210.5,-30 1111.5,-30 1111.5,0 1210.5,0 1210.5,-30"/>
<text text-anchor="start" x="1119.5" y="-18" font-family="Helvetica,sans-Serif" font-size="10.00">include/msg/scrn/d</text>
<text text-anchor="middle" x="1161" y="-7" font-family="Helvetica,sans-Serif" font-size="10.00">_msg_scrn_staff.h</text>
</a>
</g>
</g>
<!-- Node16&#45;&gt;Node24 -->
<g id="edge20" class="edge">
<title>Node16&#45;&gt;Node24</title>
<path fill="none" stroke="#63b8ff" d="M860.85,-65.76C968.59,-45.66 998.86,-50.21 1103,-30 1105.64,-29.49 1108.35,-28.93 1111.08,-28.35"/>
<polygon fill="#63b8ff" stroke="#63b8ff" points="860.49,-62.27 851.32,-67.57 861.79,-69.15 860.49,-62.27"/>
</g>
<!-- Node26 -->
<g id="node21" class="node">
<title>Node26</title>
<g id="a_node21"><a xlink:href="d__msg__scrn__tree_8h.html" target="_top" xlink:title=" ">
<polygon fill="#fff0f0" stroke="red" points="1327.5,-30 1228.5,-30 1228.5,0 1327.5,0 1327.5,-30"/>
<text text-anchor="start" x="1236.5" y="-18" font-family="Helvetica,sans-Serif" font-size="10.00">include/msg/scrn/d</text>
<text text-anchor="middle" x="1278" y="-7" font-family="Helvetica,sans-Serif" font-size="10.00">_msg_scrn_tree.h</text>
</a>
</g>
</g>
<!-- Node16&#45;&gt;Node26 -->
<g id="edge21" class="edge">
<title>Node16&#45;&gt;Node26</title>
<path fill="none" stroke="#63b8ff" d="M860.95,-65.85C1020.01,-40.1 1064.6,-56.37 1220,-30 1222.66,-29.55 1225.37,-29.05 1228.1,-28.5"/>
<polygon fill="#63b8ff" stroke="#63b8ff" points="860.59,-62.36 851.29,-67.44 861.73,-69.27 860.59,-62.36"/>
</g>
<!-- Node28 -->
<g id="node22" class="node">
<title>Node28</title>
<g id="a_node22"><a xlink:href="d__msg__scrn__base_8cpp.html" target="_top" xlink:title=" ">
<polygon fill="white" stroke="#666666" points="732,-30 626,-30 626,0 732,0 732,-30"/>
<text text-anchor="start" x="634" y="-18" font-family="Helvetica,sans-Serif" font-size="10.00">src/msg/scrn/d_msg</text>
<text text-anchor="middle" x="679" y="-7" font-family="Helvetica,sans-Serif" font-size="10.00">_scrn_base.cpp</text>
</a>
</g>
</g>
<!-- Node16&#45;&gt;Node28 -->
<g id="edge22" class="edge">
<title>Node16&#45;&gt;Node28</title>
<path fill="none" stroke="#63b8ff" d="M762.79,-60.32C744.47,-50.63 722.78,-39.16 706.06,-30.31"/>
<polygon fill="#63b8ff" stroke="#63b8ff" points="761.03,-63.35 771.51,-64.93 764.3,-57.16 761.03,-63.35"/>
</g>
<!-- Node50&#45;&gt;Node49 -->
<g id="edge51" class="edge">
<title>Node50&#45;&gt;Node49</title>
<path fill="none" stroke="#63b8ff" d="M4253.92,-124.6C4239.9,-113.1 4223.36,-99.52 4212.78,-90.84"/>
<polygon fill="#63b8ff" stroke="#63b8ff" points="4251.57,-127.2 4261.52,-130.84 4256.01,-121.79 4251.57,-127.2"/>
</g>
<!-- Node51 -->
<g id="node45" class="node">
<title>Node51</title>
<g id="a_node45"><a xlink:href="J2DWindowEx_8h.html" target="_top" xlink:title=" ">
<polygon fill="white" stroke="#666666" points="4426.5,-96 4291.5,-96 4291.5,-66 4426.5,-66 4426.5,-96"/>
<text text-anchor="start" x="4299.5" y="-84" font-family="Helvetica,sans-Serif" font-size="10.00">include/JSystem/J2DGraph</text>
<text text-anchor="middle" x="4359" y="-73" font-family="Helvetica,sans-Serif" font-size="10.00">/J2DWindowEx.h</text>
</a>
</g>
</g>
<!-- Node50&#45;&gt;Node51 -->
<g id="edge47" class="edge">
<title>Node50&#45;&gt;Node51</title>
<path fill="none" stroke="#63b8ff" d="M4306.29,-124.7C4317.78,-115.4 4330.94,-104.73 4341.24,-96.39"/>
<polygon fill="#63b8ff" stroke="#63b8ff" points="4304.28,-121.83 4298.71,-130.84 4308.68,-127.27 4304.28,-121.83"/>
</g>
<!-- Node53 -->
<g id="node47" class="node">
<title>Node53</title>
<g id="a_node47"><a xlink:href="J2DWindow_8cpp.html" target="_top" xlink:title=" ">
<polygon fill="white" stroke="#666666" points="4563.5,-96 4444.5,-96 4444.5,-66 4563.5,-66 4563.5,-96"/>
<text text-anchor="start" x="4452.5" y="-84" font-family="Helvetica,sans-Serif" font-size="10.00">libs/JSystem/J2DGraph</text>
<text text-anchor="middle" x="4504" y="-73" font-family="Helvetica,sans-Serif" font-size="10.00">/J2DWindow.cpp</text>
</a>
</g>
</g>
<!-- Node50&#45;&gt;Node53 -->
<g id="edge50" class="edge">
<title>Node50&#45;&gt;Node53</title>
<path fill="none" stroke="#63b8ff" d="M4341.21,-128.51C4376.51,-118.43 4420.35,-105.9 4453.63,-96.39"/>
<polygon fill="#63b8ff" stroke="#63b8ff" points="4340.66,-125.03 4332,-131.14 4342.58,-131.76 4340.66,-125.03"/>
</g>
<!-- Node51&#45;&gt;Node9 -->
<g id="edge48" class="edge">
<title>Node51&#45;&gt;Node9</title>
<path fill="none" stroke="#63b8ff" d="M4313.39,-61.41C4289.18,-51.54 4259.86,-39.59 4237.39,-30.43"/>
<polygon fill="#63b8ff" stroke="#63b8ff" points="4311.78,-64.53 4322.36,-65.07 4314.43,-58.05 4311.78,-64.53"/>
</g>
<!-- Node52 -->
<g id="node46" class="node">
<title>Node52</title>
<g id="a_node46"><a xlink:href="J2DWindowEx_8cpp.html" target="_top" xlink:title=" ">
<polygon fill="white" stroke="#666666" points="4418.5,-30 4299.5,-30 4299.5,0 4418.5,0 4418.5,-30"/>
<text text-anchor="start" x="4307.5" y="-18" font-family="Helvetica,sans-Serif" font-size="10.00">libs/JSystem/J2DGraph</text>
<text text-anchor="middle" x="4359" y="-7" font-family="Helvetica,sans-Serif" font-size="10.00">/J2DWindowEx.cpp</text>
</a>
</g>
</g>
<!-- Node51&#45;&gt;Node52 -->
<g id="edge49" class="edge">
<title>Node51&#45;&gt;Node52</title>
<path fill="none" stroke="#63b8ff" d="M4359,-54.39C4359,-46.13 4359,-37.28 4359,-30.16"/>
<polygon fill="#63b8ff" stroke="#63b8ff" points="4355.5,-54.28 4359,-64.28 4362.5,-54.28 4355.5,-54.28"/>
</g>
</g>
</svg>
