<?xml version="1.0" encoding="UTF-8" standalone="no"?>
<!DOCTYPE svg PUBLIC "-//W3C//DTD SVG 1.1//EN"
 "http://www.w3.org/Graphics/SVG/1.1/DTD/svg11.dtd">
<!-- Generated by graphviz version 7.0.5 (20221223.1930)
 -->
<!-- Title: include/JSystem/J2DGraph/J2DPicture.h Pages: 1 -->
<svg width="4097pt" height="313pt"
 viewBox="0.00 0.00 4097.00 313.00" xmlns="http://www.w3.org/2000/svg" xmlns:xlink="http://www.w3.org/1999/xlink">
<g id="graph0" class="graph" transform="scale(1 1) rotate(0) translate(4 309)">
<title>include/JSystem/J2DGraph/J2DPicture.h</title>
<!-- Node1 -->
<g id="node1" class="node">
<title>Node1</title>
<g id="a_node1"><a xlink:title=" ">
<polygon fill="#999999" stroke="#666666" points="2587.5,-305 2452.5,-305 2452.5,-275 2587.5,-275 2587.5,-305"/>
<text text-anchor="start" x="2460.5" y="-293" font-family="Helvetica,sans-Serif" font-size="10.00">include/JSystem/J2DGraph</text>
<text text-anchor="middle" x="2520" y="-282" font-family="Helvetica,sans-Serif" font-size="10.00">/J2DPicture.h</text>
</a>
</g>
</g>
<!-- Node2 -->
<g id="node2" class="node">
<title>Node2</title>
<g id="a_node2"><a xlink:href="J2DPictureEx_8h.html" target="_top" xlink:title=" ">
<polygon fill="white" stroke="#666666" points="1046.5,-239 911.5,-239 911.5,-209 1046.5,-209 1046.5,-239"/>
<text text-anchor="start" x="919.5" y="-227" font-family="Helvetica,sans-Serif" font-size="10.00">include/JSystem/J2DGraph</text>
<text text-anchor="middle" x="979" y="-216" font-family="Helvetica,sans-Serif" font-size="10.00">/J2DPictureEx.h</text>
</a>
</g>
</g>
<!-- Node1&#45;&gt;Node2 -->
<g id="edge1" class="edge">
<title>Node1&#45;&gt;Node2</title>
<path fill="none" stroke="#63b8ff" d="M2441.11,-285.72C2172.75,-274.58 1297.97,-238.25 1046.92,-227.82"/>
<polygon fill="#63b8ff" stroke="#63b8ff" points="2440.65,-289.21 2450.78,-286.13 2440.94,-282.21 2440.65,-289.21"/>
</g>
<!-- Node5 -->
<g id="node5" class="node">
<title>Node5</title>
<g id="a_node5"><a xlink:href="d__drawlist_8h.html" target="_top" xlink:title=" ">
<polygon fill="white" stroke="#666666" points="2509,-233.5 2399,-233.5 2399,-214.5 2509,-214.5 2509,-233.5"/>
<text text-anchor="middle" x="2454" y="-221.5" font-family="Helvetica,sans-Serif" font-size="10.00">include/d/d_drawlist.h</text>
</a>
</g>
</g>
<!-- Node1&#45;&gt;Node5 -->
<g id="edge4" class="edge">
<title>Node1&#45;&gt;Node5</title>
<path fill="none" stroke="#63b8ff" d="M2497.25,-266.94C2485.54,-255.58 2471.9,-242.36 2463.12,-233.84"/>
<polygon fill="#63b8ff" stroke="#63b8ff" points="2494.65,-269.29 2504.27,-273.74 2499.52,-264.27 2494.65,-269.29"/>
</g>
<!-- Node304 -->
<g id="node49" class="node">
<title>Node304</title>
<g id="a_node49"><a xlink:href="J2DPicture_8cpp.html" target="_top" xlink:title=" ">
<polygon fill="white" stroke="#666666" points="2646.5,-239 2527.5,-239 2527.5,-209 2646.5,-209 2646.5,-239"/>
<text text-anchor="start" x="2535.5" y="-227" font-family="Helvetica,sans-Serif" font-size="10.00">libs/JSystem/J2DGraph</text>
<text text-anchor="middle" x="2587" y="-216" font-family="Helvetica,sans-Serif" font-size="10.00">/J2DPicture.cpp</text>
</a>
</g>
</g>
<!-- Node1&#45;&gt;Node304 -->
<g id="edge51" class="edge">
<title>Node1&#45;&gt;Node304</title>
<path fill="none" stroke="#63b8ff" d="M2542.94,-267.09C2552.61,-257.85 2563.59,-247.36 2572.17,-239.16"/>
<polygon fill="#63b8ff" stroke="#63b8ff" points="2540.78,-264.31 2535.96,-273.75 2545.61,-269.37 2540.78,-264.31"/>
</g>
<!-- Node305 -->
<g id="node50" class="node">
<title>Node305</title>
<g id="a_node50"><a xlink:href="d__pane__class_8cpp.html" target="_top" xlink:title=" ">
<polygon fill="white" stroke="#666666" points="2807.5,-233.5 2664.5,-233.5 2664.5,-214.5 2807.5,-214.5 2807.5,-233.5"/>
<text text-anchor="middle" x="2736" y="-221.5" font-family="Helvetica,sans-Serif" font-size="10.00">src/d/pane/d_pane_class.cpp</text>
</a>
</g>
</g>
<!-- Node1&#45;&gt;Node305 -->
<g id="edge52" class="edge">
<title>Node1&#45;&gt;Node305</title>
<path fill="none" stroke="#63b8ff" d="M2579.68,-271.32C2620.61,-259.19 2673.2,-243.61 2705.75,-233.96"/>
<polygon fill="#63b8ff" stroke="#63b8ff" points="2578.79,-267.93 2570.2,-274.13 2580.78,-274.64 2578.79,-267.93"/>
</g>
<!-- Node3 -->
<g id="node3" class="node">
<title>Node3</title>
<g id="a_node3"><a xlink:href="J2DPictureEx_8cpp.html" target="_top" xlink:title=" ">
<polygon fill="white" stroke="#666666" points="901.5,-173 782.5,-173 782.5,-143 901.5,-143 901.5,-173"/>
<text text-anchor="start" x="790.5" y="-161" font-family="Helvetica,sans-Serif" font-size="10.00">libs/JSystem/J2DGraph</text>
<text text-anchor="middle" x="842" y="-150" font-family="Helvetica,sans-Serif" font-size="10.00">/J2DPictureEx.cpp</text>
</a>
</g>
</g>
<!-- Node2&#45;&gt;Node3 -->
<g id="edge2" class="edge">
<title>Node2&#45;&gt;Node3</title>
<path fill="none" stroke="#63b8ff" d="M938.02,-203.86C917.04,-194.05 891.92,-182.32 872.64,-173.31"/>
<polygon fill="#63b8ff" stroke="#63b8ff" points="936.34,-206.94 946.88,-208 939.3,-200.59 936.34,-206.94"/>
</g>
<!-- Node4 -->
<g id="node4" class="node">
<title>Node4</title>
<g id="a_node4"><a xlink:href="J2DScreen_8cpp.html" target="_top" xlink:title=" ">
<polygon fill="white" stroke="#666666" points="1038.5,-173 919.5,-173 919.5,-143 1038.5,-143 1038.5,-173"/>
<text text-anchor="start" x="927.5" y="-161" font-family="Helvetica,sans-Serif" font-size="10.00">libs/JSystem/J2DGraph</text>
<text text-anchor="middle" x="979" y="-150" font-family="Helvetica,sans-Serif" font-size="10.00">/J2DScreen.cpp</text>
</a>
</g>
</g>
<!-- Node2&#45;&gt;Node4 -->
<g id="edge3" class="edge">
<title>Node2&#45;&gt;Node4</title>
<path fill="none" stroke="#63b8ff" d="M979,-197.39C979,-189.13 979,-180.28 979,-173.16"/>
<polygon fill="#63b8ff" stroke="#63b8ff" points="975.5,-197.28 979,-207.28 982.5,-197.28 975.5,-197.28"/>
</g>
<!-- Node6 -->
<g id="node6" class="node">
<title>Node6</title>
<g id="a_node6"><a xlink:href="d__a__player_8h.html" target="_top" xlink:title=" ">
<polygon fill="#fff0f0" stroke="red" points="1177.5,-167.5 1056.5,-167.5 1056.5,-148.5 1177.5,-148.5 1177.5,-167.5"/>
<text text-anchor="middle" x="1117" y="-155.5" font-family="Helvetica,sans-Serif" font-size="10.00">include/d/a/d_a_player.h</text>
</a>
</g>
</g>
<!-- Node5&#45;&gt;Node6 -->
<g id="edge5" class="edge">
<title>Node5&#45;&gt;Node6</title>
<path fill="none" stroke="#63b8ff" d="M2387.37,-221.76C2161.05,-217.34 1422.81,-201.06 1187,-173 1176.91,-171.8 1166.1,-169.93 1156.07,-167.95"/>
<polygon fill="#63b8ff" stroke="#63b8ff" points="2387.13,-225.26 2397.19,-221.95 2387.26,-218.26 2387.13,-225.26"/>
</g>
<!-- Node66 -->
<g id="node27" class="node">
<title>Node66</title>
<g id="a_node27"><a xlink:href="d__camera_8h.html" target="_top" xlink:title=" ">
<polygon fill="#fff0f0" stroke="red" points="1304.5,-167.5 1195.5,-167.5 1195.5,-148.5 1304.5,-148.5 1304.5,-167.5"/>
<text text-anchor="middle" x="1250" y="-155.5" font-family="Helvetica,sans-Serif" font-size="10.00">include/d/d_camera.h</text>
</a>
</g>
</g>
<!-- Node5&#45;&gt;Node66 -->
<g id="edge29" class="edge">
<title>Node5&#45;&gt;Node66</title>
<path fill="none" stroke="#63b8ff" d="M2387.36,-221.58C2176.21,-216.84 1523.65,-200.32 1314,-173 1304.75,-171.79 1294.86,-169.93 1285.69,-167.94"/>
<polygon fill="#63b8ff" stroke="#63b8ff" points="2386.97,-225.07 2397.04,-221.8 2387.13,-218.07 2386.97,-225.07"/>
</g>
<!-- Node267 -->
<g id="node28" class="node">
<title>Node267</title>
<g id="a_node28"><a xlink:href="d__kantera__icon__meter_8h.html" target="_top" xlink:title=" ">
<polygon fill="#fff0f0" stroke="red" points="1423.5,-173 1322.5,-173 1322.5,-143 1423.5,-143 1423.5,-173"/>
<text text-anchor="start" x="1330.5" y="-161" font-family="Helvetica,sans-Serif" font-size="10.00">include/d/d_kantera</text>
<text text-anchor="middle" x="1373" y="-150" font-family="Helvetica,sans-Serif" font-size="10.00">_icon_meter.h</text>
</a>
</g>
</g>
<!-- Node5&#45;&gt;Node267 -->
<g id="edge30" class="edge">
<title>Node5&#45;&gt;Node267</title>
<path fill="none" stroke="#63b8ff" d="M2387.42,-221.31C2191.37,-216.08 1618.35,-198.95 1433,-173 1430.03,-172.58 1427,-172.09 1423.95,-171.55"/>
<polygon fill="#63b8ff" stroke="#63b8ff" points="2387.08,-224.8 2397.17,-221.57 2387.27,-217.8 2387.08,-224.8"/>
</g>
<!-- Node268 -->
<g id="node29" class="node">
<title>Node268</title>
<g id="a_node29"><a xlink:href="d__select__cursor_8h.html" target="_top" xlink:title=" ">
<polygon fill="#fff0f0" stroke="red" points="1536.5,-173 1441.5,-173 1441.5,-143 1536.5,-143 1536.5,-173"/>
<text text-anchor="start" x="1449.5" y="-161" font-family="Helvetica,sans-Serif" font-size="10.00">include/d/d_select</text>
<text text-anchor="middle" x="1489" y="-150" font-family="Helvetica,sans-Serif" font-size="10.00">_cursor.h</text>
</a>
</g>
</g>
<!-- Node5&#45;&gt;Node268 -->
<g id="edge31" class="edge">
<title>Node5&#45;&gt;Node268</title>
<path fill="none" stroke="#63b8ff" d="M2387.31,-223.55C2236.52,-223.87 1858.18,-219.52 1546,-173 1542.98,-172.55 1539.88,-172.01 1536.77,-171.41"/>
<polygon fill="#63b8ff" stroke="#63b8ff" points="2387.12,-227.05 2397.11,-223.52 2387.1,-220.05 2387.12,-227.05"/>
</g>
<!-- Node272 -->
<g id="node30" class="node">
<title>Node272</title>
<g id="a_node30"><a xlink:href="d__file__sel__info_8h.html" target="_top" xlink:title=" ">
<polygon fill="#fff0f0" stroke="red" points="1651,-173 1555,-173 1555,-143 1651,-143 1651,-173"/>
<text text-anchor="start" x="1563" y="-161" font-family="Helvetica,sans-Serif" font-size="10.00">include/d/file/d_file</text>
<text text-anchor="middle" x="1603" y="-150" font-family="Helvetica,sans-Serif" font-size="10.00">_sel_info.h</text>
</a>
</g>
</g>
<!-- Node5&#45;&gt;Node272 -->
<g id="edge32" class="edge">
<title>Node5&#45;&gt;Node272</title>
<path fill="none" stroke="#63b8ff" d="M2387.26,-222.79C2250.18,-221.49 1927.32,-213.91 1660,-173 1657.18,-172.57 1654.29,-172.06 1651.39,-171.51"/>
<polygon fill="#63b8ff" stroke="#63b8ff" points="2387.23,-226.29 2397.26,-222.88 2387.29,-219.29 2387.23,-226.29"/>
</g>
<!-- Node273 -->
<g id="node31" class="node">
<title>Node273</title>
<g id="a_node31"><a xlink:href="d__file__sel__warning_8h.html" target="_top" xlink:title=" ">
<polygon fill="#fff0f0" stroke="red" points="1765,-173 1669,-173 1669,-143 1765,-143 1765,-173"/>
<text text-anchor="start" x="1677" y="-161" font-family="Helvetica,sans-Serif" font-size="10.00">include/d/file/d_file</text>
<text text-anchor="middle" x="1717" y="-150" font-family="Helvetica,sans-Serif" font-size="10.00">_sel_warning.h</text>
</a>
</g>
</g>
<!-- Node5&#45;&gt;Node273 -->
<g id="edge33" class="edge">
<title>Node5&#45;&gt;Node273</title>
<path fill="none" stroke="#63b8ff" d="M2387.17,-221.79C2264.8,-218.75 1996.84,-208.3 1774,-173 1771.18,-172.55 1768.3,-172.04 1765.4,-171.47"/>
<polygon fill="#63b8ff" stroke="#63b8ff" points="2386.96,-225.29 2397.04,-222.03 2387.12,-218.29 2386.96,-225.29"/>
</g>
<!-- Node274 -->
<g id="node32" class="node">
<title>Node274</title>
<g id="a_node32"><a xlink:href="d__map__path_8h.html" target="_top" xlink:title=" ">
<polygon fill="#fff0f0" stroke="red" points="1893,-173 1783,-173 1783,-143 1893,-143 1893,-173"/>
<text text-anchor="start" x="1791" y="-161" font-family="Helvetica,sans-Serif" font-size="10.00">include/d/map/d_map</text>
<text text-anchor="middle" x="1838" y="-150" font-family="Helvetica,sans-Serif" font-size="10.00">_path.h</text>
</a>
</g>
</g>
<!-- Node5&#45;&gt;Node274 -->
<g id="edge34" class="edge">
<title>Node5&#45;&gt;Node274</title>
<path fill="none" stroke="#63b8ff" d="M2387.63,-219.67C2283.64,-213.86 2076.17,-199.83 1902,-173 1899.19,-172.57 1896.32,-172.09 1893.42,-171.57"/>
<polygon fill="#63b8ff" stroke="#63b8ff" points="2387.19,-223.16 2397.37,-220.21 2387.58,-216.17 2387.19,-223.16"/>
</g>
<!-- Node278 -->
<g id="node33" class="node">
<title>Node278</title>
<g id="a_node33"><a xlink:href="d__menu__collect_8h.html" target="_top" xlink:title=" ">
<polygon fill="#fff0f0" stroke="red" points="2031,-173 1911,-173 1911,-143 2031,-143 2031,-173"/>
<text text-anchor="start" x="1919" y="-161" font-family="Helvetica,sans-Serif" font-size="10.00">include/d/menu/d_menu</text>
<text text-anchor="middle" x="1971" y="-150" font-family="Helvetica,sans-Serif" font-size="10.00">_collect.h</text>
</a>
</g>
</g>
<!-- Node5&#45;&gt;Node278 -->
<g id="edge35" class="edge">
<title>Node5&#45;&gt;Node278</title>
<path fill="none" stroke="#63b8ff" d="M2387.15,-216.59C2305.11,-208.34 2161.89,-192.69 2040,-173 2037.1,-172.53 2034.14,-172.03 2031.16,-171.5"/>
<polygon fill="#63b8ff" stroke="#63b8ff" points="2386.75,-220.07 2397.05,-217.58 2387.45,-213.1 2386.75,-220.07"/>
</g>
<!-- Node279 -->
<g id="node34" class="node">
<title>Node279</title>
<g id="a_node34"><a xlink:href="d__menu__fishing_8h.html" target="_top" xlink:title=" ">
<polygon fill="#fff0f0" stroke="red" points="2169,-173 2049,-173 2049,-143 2169,-143 2169,-173"/>
<text text-anchor="start" x="2057" y="-161" font-family="Helvetica,sans-Serif" font-size="10.00">include/d/menu/d_menu</text>
<text text-anchor="middle" x="2109" y="-150" font-family="Helvetica,sans-Serif" font-size="10.00">_fishing.h</text>
</a>
</g>
</g>
<!-- Node5&#45;&gt;Node279 -->
<g id="edge36" class="edge">
<title>Node5&#45;&gt;Node279</title>
<path fill="none" stroke="#63b8ff" d="M2391.41,-212.05C2335.42,-202.16 2251.15,-187.05 2178,-173 2175.12,-172.45 2172.17,-171.87 2169.2,-171.29"/>
<polygon fill="#63b8ff" stroke="#63b8ff" points="2390.62,-215.46 2401.07,-213.75 2391.83,-208.57 2390.62,-215.46"/>
</g>
<!-- Node90 -->
<g id="node35" class="node">
<title>Node90</title>
<g id="a_node35"><a xlink:href="d__menu__insect_8h.html" target="_top" xlink:title=" ">
<polygon fill="#fff0f0" stroke="red" points="2307,-173 2187,-173 2187,-143 2307,-143 2307,-173"/>
<text text-anchor="start" x="2195" y="-161" font-family="Helvetica,sans-Serif" font-size="10.00">include/d/menu/d_menu</text>
<text text-anchor="middle" x="2247" y="-150" font-family="Helvetica,sans-Serif" font-size="10.00">_insect.h</text>
</a>
</g>
</g>
<!-- Node5&#45;&gt;Node90 -->
<g id="edge37" class="edge">
<title>Node5&#45;&gt;Node90</title>
<path fill="none" stroke="#63b8ff" d="M2414.64,-210.83C2380.25,-200.2 2330.26,-184.74 2293.83,-173.48"/>
<polygon fill="#63b8ff" stroke="#63b8ff" points="2413.18,-214.04 2423.77,-213.65 2415.25,-207.36 2413.18,-214.04"/>
</g>
<!-- Node280 -->
<g id="node36" class="node">
<title>Node280</title>
<g id="a_node36"><a xlink:href="d__menu__item__explain_8h.html" target="_top" xlink:title=" ">
<polygon fill="#fff0f0" stroke="red" points="2445,-173 2325,-173 2325,-143 2445,-143 2445,-173"/>
<text text-anchor="start" x="2333" y="-161" font-family="Helvetica,sans-Serif" font-size="10.00">include/d/menu/d_menu</text>
<text text-anchor="middle" x="2385" y="-150" font-family="Helvetica,sans-Serif" font-size="10.00">_item_explain.h</text>
</a>
</g>
</g>
<!-- Node5&#45;&gt;Node280 -->
<g id="edge38" class="edge">
<title>Node5&#45;&gt;Node280</title>
<path fill="none" stroke="#63b8ff" d="M2436.01,-206.31C2425.02,-196.12 2411.12,-183.23 2400.61,-173.48"/>
<polygon fill="#63b8ff" stroke="#63b8ff" points="2433.58,-208.84 2443.3,-213.07 2438.34,-203.71 2433.58,-208.84"/>
</g>
<!-- Node281 -->
<g id="node37" class="node">
<title>Node281</title>
<g id="a_node37"><a xlink:href="d__menu__letter_8h.html" target="_top" xlink:title=" ">
<polygon fill="#fff0f0" stroke="red" points="2583,-173 2463,-173 2463,-143 2583,-143 2583,-173"/>
<text text-anchor="start" x="2471" y="-161" font-family="Helvetica,sans-Serif" font-size="10.00">include/d/menu/d_menu</text>
<text text-anchor="middle" x="2523" y="-150" font-family="Helvetica,sans-Serif" font-size="10.00">_letter.h</text>
</a>
</g>
</g>
<!-- Node5&#45;&gt;Node281 -->
<g id="edge39" class="edge">
<title>Node5&#45;&gt;Node281</title>
<path fill="none" stroke="#63b8ff" d="M2471.99,-206.31C2482.98,-196.12 2496.88,-183.23 2507.39,-173.48"/>
<polygon fill="#63b8ff" stroke="#63b8ff" points="2469.66,-203.71 2464.7,-213.07 2474.42,-208.84 2469.66,-203.71"/>
</g>
<!-- Node282 -->
<g id="node38" class="node">
<title>Node282</title>
<g id="a_node38"><a xlink:href="d__menu__option_8h.html" target="_top" xlink:title=" ">
<polygon fill="#fff0f0" stroke="red" points="2721,-173 2601,-173 2601,-143 2721,-143 2721,-173"/>
<text text-anchor="start" x="2609" y="-161" font-family="Helvetica,sans-Serif" font-size="10.00">include/d/menu/d_menu</text>
<text text-anchor="middle" x="2661" y="-150" font-family="Helvetica,sans-Serif" font-size="10.00">_option.h</text>
</a>
</g>
</g>
<!-- Node5&#45;&gt;Node282 -->
<g id="edge40" class="edge">
<title>Node5&#45;&gt;Node282</title>
<path fill="none" stroke="#63b8ff" d="M2493.36,-210.83C2527.75,-200.2 2577.74,-184.74 2614.17,-173.48"/>
<polygon fill="#63b8ff" stroke="#63b8ff" points="2492.75,-207.36 2484.23,-213.65 2494.82,-214.04 2492.75,-207.36"/>
</g>
<!-- Node93 -->
<g id="node39" class="node">
<title>Node93</title>
<g id="a_node39"><a xlink:href="d__menu__ring_8h.html" target="_top" xlink:title=" ">
<polygon fill="#fff0f0" stroke="red" points="2859,-173 2739,-173 2739,-143 2859,-143 2859,-173"/>
<text text-anchor="start" x="2747" y="-161" font-family="Helvetica,sans-Serif" font-size="10.00">include/d/menu/d_menu</text>
<text text-anchor="middle" x="2799" y="-150" font-family="Helvetica,sans-Serif" font-size="10.00">_ring.h</text>
</a>
</g>
</g>
<!-- Node5&#45;&gt;Node93 -->
<g id="edge41" class="edge">
<title>Node5&#45;&gt;Node93</title>
<path fill="none" stroke="#63b8ff" d="M2505.07,-211.78C2509.78,-210.81 2514.47,-209.87 2519,-209 2612.41,-190.98 2636.48,-190.46 2730,-173 2732.88,-172.46 2735.83,-171.9 2738.81,-171.33"/>
<polygon fill="#63b8ff" stroke="#63b8ff" points="2504.72,-208.28 2495.65,-213.76 2506.15,-215.13 2504.72,-208.28"/>
</g>
<!-- Node283 -->
<g id="node40" class="node">
<title>Node283</title>
<g id="a_node40"><a xlink:href="d__menu__save_8h.html" target="_top" xlink:title=" ">
<polygon fill="#fff0f0" stroke="red" points="2997,-173 2877,-173 2877,-143 2997,-143 2997,-173"/>
<text text-anchor="start" x="2885" y="-161" font-family="Helvetica,sans-Serif" font-size="10.00">include/d/menu/d_menu</text>
<text text-anchor="middle" x="2937" y="-150" font-family="Helvetica,sans-Serif" font-size="10.00">_save.h</text>
</a>
</g>
</g>
<!-- Node5&#45;&gt;Node283 -->
<g id="edge42" class="edge">
<title>Node5&#45;&gt;Node283</title>
<path fill="none" stroke="#63b8ff" d="M2503.6,-211.73C2508.79,-210.73 2513.99,-209.8 2519,-209 2673,-184.55 2713.85,-196.53 2868,-173 2870.9,-172.56 2873.86,-172.07 2876.85,-171.56"/>
<polygon fill="#63b8ff" stroke="#63b8ff" points="2502.95,-208.29 2493.85,-213.71 2504.34,-215.15 2502.95,-208.29"/>
</g>
<!-- Node285 -->
<g id="node41" class="node">
<title>Node285</title>
<g id="a_node41"><a xlink:href="d__menu__skill_8h.html" target="_top" xlink:title=" ">
<polygon fill="#fff0f0" stroke="red" points="3135,-173 3015,-173 3015,-143 3135,-143 3135,-173"/>
<text text-anchor="start" x="3023" y="-161" font-family="Helvetica,sans-Serif" font-size="10.00">include/d/menu/d_menu</text>
<text text-anchor="middle" x="3075" y="-150" font-family="Helvetica,sans-Serif" font-size="10.00">_skill.h</text>
</a>
</g>
</g>
<!-- Node5&#45;&gt;Node285 -->
<g id="edge43" class="edge">
<title>Node5&#45;&gt;Node285</title>
<path fill="none" stroke="#63b8ff" d="M2502.53,-211.78C2508.06,-210.73 2513.64,-209.77 2519,-209 2733.82,-178.08 2791,-202.64 3006,-173 3008.91,-172.6 3011.87,-172.15 3014.87,-171.67"/>
<polygon fill="#63b8ff" stroke="#63b8ff" points="2501.9,-208.34 2492.79,-213.74 2503.28,-215.2 2501.9,-208.34"/>
</g>
<!-- Node286 -->
<g id="node42" class="node">
<title>Node286</title>
<g id="a_node42"><a xlink:href="d__menu__window_8h.html" target="_top" xlink:title=" ">
<polygon fill="#fff0f0" stroke="red" points="3273,-173 3153,-173 3153,-143 3273,-143 3273,-173"/>
<text text-anchor="start" x="3161" y="-161" font-family="Helvetica,sans-Serif" font-size="10.00">include/d/menu/d_menu</text>
<text text-anchor="middle" x="3213" y="-150" font-family="Helvetica,sans-Serif" font-size="10.00">_window.h</text>
</a>
</g>
</g>
<!-- Node5&#45;&gt;Node286 -->
<g id="edge44" class="edge">
<title>Node5&#45;&gt;Node286</title>
<path fill="none" stroke="#63b8ff" d="M2501.86,-211.82C2507.61,-210.73 2513.42,-209.76 2519,-209 2794.71,-171.6 2868.07,-208.75 3144,-173 3146.91,-172.62 3149.88,-172.19 3152.87,-171.73"/>
<polygon fill="#63b8ff" stroke="#63b8ff" points="2501.55,-208.31 2492.43,-213.71 2502.93,-215.17 2501.55,-208.31"/>
</g>
<!-- Node287 -->
<g id="node43" class="node">
<title>Node287</title>
<g id="a_node43"><a xlink:href="d__meter2_8h.html" target="_top" xlink:title=" ">
<polygon fill="#fff0f0" stroke="red" points="3425,-167.5 3291,-167.5 3291,-148.5 3425,-148.5 3425,-167.5"/>
<text text-anchor="middle" x="3358" y="-155.5" font-family="Helvetica,sans-Serif" font-size="10.00">include/d/meter/d_meter2.h</text>
</a>
</g>
</g>
<!-- Node5&#45;&gt;Node287 -->
<g id="edge45" class="edge">
<title>Node5&#45;&gt;Node287</title>
<path fill="none" stroke="#63b8ff" d="M2501.64,-211.8C2507.46,-210.71 2513.35,-209.74 2519,-209 2855.64,-165.11 2944.74,-211.84 3282,-173 3292.8,-171.76 3304.37,-169.9 3315.15,-167.94"/>
<polygon fill="#63b8ff" stroke="#63b8ff" points="2501.2,-208.32 2492.08,-213.72 2502.57,-215.18 2501.2,-208.32"/>
</g>
<!-- Node292 -->
<g id="node44" class="node">
<title>Node292</title>
<g id="a_node44"><a xlink:href="d__meter2__draw_8h.html" target="_top" xlink:title=" ">
<polygon fill="#fff0f0" stroke="red" points="3570.5,-173 3443.5,-173 3443.5,-143 3570.5,-143 3570.5,-173"/>
<text text-anchor="start" x="3451.5" y="-161" font-family="Helvetica,sans-Serif" font-size="10.00">include/d/meter/d_meter2</text>
<text text-anchor="middle" x="3507" y="-150" font-family="Helvetica,sans-Serif" font-size="10.00">_draw.h</text>
</a>
</g>
</g>
<!-- Node5&#45;&gt;Node292 -->
<g id="edge46" class="edge">
<title>Node5&#45;&gt;Node292</title>
<path fill="none" stroke="#63b8ff" d="M2501.42,-211.8C2507.31,-210.7 2513.28,-209.72 2519,-209 2922.77,-157.96 3029.68,-219.46 3434,-173 3437.08,-172.65 3440.22,-172.24 3443.39,-171.78"/>
<polygon fill="#63b8ff" stroke="#63b8ff" points="2500.85,-208.34 2491.73,-213.74 2502.23,-215.2 2500.85,-208.34"/>
</g>
<!-- Node293 -->
<g id="node45" class="node">
<title>Node293</title>
<g id="a_node45"><a xlink:href="d__meter__button_8h.html" target="_top" xlink:title=" ">
<polygon fill="#fff0f0" stroke="red" points="3711,-173 3589,-173 3589,-143 3711,-143 3711,-173"/>
<text text-anchor="start" x="3597" y="-161" font-family="Helvetica,sans-Serif" font-size="10.00">include/d/meter/d_meter</text>
<text text-anchor="middle" x="3650" y="-150" font-family="Helvetica,sans-Serif" font-size="10.00">_button.h</text>
</a>
</g>
</g>
<!-- Node5&#45;&gt;Node293 -->
<g id="edge47" class="edge">
<title>Node5&#45;&gt;Node293</title>
<path fill="none" stroke="#63b8ff" d="M2500.74,-211.89C2506.85,-210.75 2513.06,-209.73 2519,-209 2987.26,-151.1 3111.33,-227.45 3580,-173 3582.83,-172.67 3585.72,-172.29 3588.63,-171.86"/>
<polygon fill="#63b8ff" stroke="#63b8ff" points="2500.5,-208.37 2491.39,-213.77 2501.88,-215.23 2500.5,-208.37"/>
</g>
<!-- Node294 -->
<g id="node46" class="node">
<title>Node294</title>
<g id="a_node46"><a xlink:href="d__msg__scrn__3select_8h.html" target="_top" xlink:title=" ">
<polygon fill="#fff0f0" stroke="red" points="3839,-173 3729,-173 3729,-143 3839,-143 3839,-173"/>
<text text-anchor="start" x="3737" y="-161" font-family="Helvetica,sans-Serif" font-size="10.00">include/d/msg/d_msg</text>
<text text-anchor="middle" x="3784" y="-150" font-family="Helvetica,sans-Serif" font-size="10.00">_scrn_3select.h</text>
</a>
</g>
</g>
<!-- Node5&#45;&gt;Node294 -->
<g id="edge48" class="edge">
<title>Node5&#45;&gt;Node294</title>
<path fill="none" stroke="#63b8ff" d="M2500.74,-211.87C2506.85,-210.73 2513.06,-209.72 2519,-209 3049.11,-144.51 3189.99,-238.34 3720,-173 3722.82,-172.65 3725.7,-172.24 3728.61,-171.78"/>
<polygon fill="#63b8ff" stroke="#63b8ff" points="2500.5,-208.35 2491.39,-213.75 2501.88,-215.21 2500.5,-208.35"/>
</g>
<!-- Node296 -->
<g id="node47" class="node">
<title>Node296</title>
<g id="a_node47"><a xlink:href="d__msg__scrn__base_8h.html" target="_top" xlink:title=" ">
<polygon fill="#fff0f0" stroke="red" points="3967,-173 3857,-173 3857,-143 3967,-143 3967,-173"/>
<text text-anchor="start" x="3865" y="-161" font-family="Helvetica,sans-Serif" font-size="10.00">include/d/msg/d_msg</text>
<text text-anchor="middle" x="3912" y="-150" font-family="Helvetica,sans-Serif" font-size="10.00">_scrn_base.h</text>
</a>
</g>
</g>
<!-- Node5&#45;&gt;Node296 -->
<g id="edge49" class="edge">
<title>Node5&#45;&gt;Node296</title>
<path fill="none" stroke="#63b8ff" d="M2500.73,-211.85C2506.85,-210.71 2513.05,-209.71 2519,-209 3105.66,-138.49 3261.45,-244.45 3848,-173 3850.82,-172.66 3853.7,-172.25 3856.61,-171.79"/>
<polygon fill="#63b8ff" stroke="#63b8ff" points="2500.5,-208.33 2491.38,-213.73 2501.88,-215.2 2500.5,-208.33"/>
</g>
<!-- Node211 -->
<g id="node48" class="node">
<title>Node211</title>
<g id="a_node48"><a xlink:href="d__drawlist_8cpp.html" target="_top" xlink:title=" ">
<polygon fill="white" stroke="#666666" points="4089,-167.5 3985,-167.5 3985,-148.5 4089,-148.5 4089,-167.5"/>
<text text-anchor="middle" x="4037" y="-155.5" font-family="Helvetica,sans-Serif" font-size="10.00">src/d/d_drawlist.cpp</text>
</a>
</g>
</g>
<!-- Node5&#45;&gt;Node211 -->
<g id="edge50" class="edge">
<title>Node5&#45;&gt;Node211</title>
<path fill="none" stroke="#63b8ff" d="M2500.73,-211.84C2506.85,-210.7 2513.05,-209.71 2519,-209 3162.22,-132.47 3333.31,-253.86 3976,-173 3984.95,-171.87 3994.51,-170.01 4003.34,-168"/>
<polygon fill="#63b8ff" stroke="#63b8ff" points="2500.5,-208.32 2491.38,-213.71 2501.87,-215.18 2500.5,-208.32"/>
</g>
<!-- Node7 -->
<g id="node7" class="node">
<title>Node7</title>
<g id="a_node7"><a xlink:href="d__a__alink_8h.html" target="_top" xlink:title=" ">
<polygon fill="#fff0f0" stroke="red" points="116,-96 0,-96 0,-77 116,-77 116,-96"/>
<text text-anchor="middle" x="58" y="-84" font-family="Helvetica,sans-Serif" font-size="10.00">include/d/a/d_a_alink.h</text>
</a>
</g>
</g>
<!-- Node6&#45;&gt;Node7 -->
<g id="edge6" class="edge">
<title>Node6&#45;&gt;Node7</title>
<path fill="none" stroke="#63b8ff" d="M1067.61,-145.98C1061.04,-144.81 1054.38,-143.77 1048,-143 642.61,-94.25 533.62,-168.76 130,-107 115.02,-104.71 98.7,-100.44 85.38,-96.48"/>
<polygon fill="#63b8ff" stroke="#63b8ff" points="1066.53,-149.34 1077.01,-147.77 1067.84,-142.46 1066.53,-149.34"/>
</g>
<!-- Node9 -->
<g id="node8" class="node">
<title>Node9</title>
<g id="a_node8"><a xlink:href="d__a__player_8cpp.html" target="_top" xlink:title=" ">
<polygon fill="white" stroke="#666666" points="201,-24.5 87,-24.5 87,-5.5 201,-5.5 201,-24.5"/>
<text text-anchor="middle" x="144" y="-12.5" font-family="Helvetica,sans-Serif" font-size="10.00">src/d/a/d_a_player.cpp</text>
</a>
</g>
</g>
<!-- Node6&#45;&gt;Node9 -->
<g id="edge23" class="edge">
<title>Node6&#45;&gt;Node9</title>
<path fill="none" stroke="#63b8ff" d="M1067.6,-145.99C1061.04,-144.82 1054.37,-143.77 1048,-143 999.15,-137.09 200.55,-138.81 163,-107 138.74,-86.45 140.57,-43.64 142.7,-25"/>
<polygon fill="#63b8ff" stroke="#63b8ff" points="1066.53,-149.35 1077.01,-147.78 1067.84,-142.47 1066.53,-149.35"/>
</g>
<!-- Node20 -->
<g id="node9" class="node">
<title>Node20</title>
<g id="a_node9"><a xlink:href="d__a__npc_8h.html" target="_top" xlink:title=" ">
<polygon fill="#fff0f0" stroke="red" points="283.5,-96 172.5,-96 172.5,-77 283.5,-77 283.5,-96"/>
<text text-anchor="middle" x="228" y="-84" font-family="Helvetica,sans-Serif" font-size="10.00">include/d/a/d_a_npc.h</text>
</a>
</g>
</g>
<!-- Node6&#45;&gt;Node20 -->
<g id="edge8" class="edge">
<title>Node6&#45;&gt;Node20</title>
<path fill="none" stroke="#63b8ff" d="M1066.88,-145.9C1060.55,-144.77 1054.14,-143.76 1048,-143 714.2,-101.43 623.44,-164.46 292,-107 278.61,-104.68 264.09,-100.41 252.27,-96.45"/>
<polygon fill="#63b8ff" stroke="#63b8ff" points="1066.16,-149.33 1076.64,-147.75 1067.47,-142.45 1066.16,-149.33"/>
</g>
<!-- Node30 -->
<g id="node10" class="node">
<title>Node30</title>
<g id="a_node10"><a xlink:href="d__a__arrow_8h.html" target="_top" xlink:title=" ">
<polygon fill="white" stroke="#666666" points="402.5,-101.5 301.5,-101.5 301.5,-71.5 402.5,-71.5 402.5,-101.5"/>
<text text-anchor="start" x="309.5" y="-89.5" font-family="Helvetica,sans-Serif" font-size="10.00">include/rel/d/a/d_a</text>
<text text-anchor="middle" x="352" y="-78.5" font-family="Helvetica,sans-Serif" font-size="10.00">_arrow/d_a_arrow.h</text>
</a>
</g>
</g>
<!-- Node6&#45;&gt;Node30 -->
<g id="edge9" class="edge">
<title>Node6&#45;&gt;Node30</title>
<path fill="none" stroke="#63b8ff" d="M1066.64,-145.91C1060.39,-144.79 1054.06,-143.78 1048,-143 767.21,-106.76 690.27,-159.19 412,-107 405.33,-105.75 398.36,-103.96 391.65,-101.97"/>
<polygon fill="#63b8ff" stroke="#63b8ff" points="1065.79,-149.31 1076.27,-147.74 1067.1,-142.44 1065.79,-149.31"/>
</g>
<!-- Node31 -->
<g id="node11" class="node">
<title>Node31</title>
<g id="a_node11"><a xlink:href="d__a__crod_8h.html" target="_top" xlink:title=" ">
<polygon fill="#fff0f0" stroke="red" points="517,-101.5 421,-101.5 421,-71.5 517,-71.5 517,-101.5"/>
<text text-anchor="start" x="429" y="-89.5" font-family="Helvetica,sans-Serif" font-size="10.00">include/rel/d/a/d_a</text>
<text text-anchor="middle" x="469" y="-78.5" font-family="Helvetica,sans-Serif" font-size="10.00">_crod/d_a_crod.h</text>
</a>
</g>
</g>
<!-- Node6&#45;&gt;Node31 -->
<g id="edge10" class="edge">
<title>Node6&#45;&gt;Node31</title>
<path fill="none" stroke="#63b8ff" d="M1066.4,-145.94C1060.22,-144.83 1053.98,-143.81 1048,-143 817.55,-111.81 753.95,-153.03 526,-107 519.64,-105.72 513.02,-103.91 506.64,-101.91"/>
<polygon fill="#63b8ff" stroke="#63b8ff" points="1065.42,-149.32 1075.89,-147.75 1066.72,-142.44 1065.42,-149.32"/>
</g>
<!-- Node32 -->
<g id="node12" class="node">
<title>Node32</title>
<g id="a_node12"><a xlink:href="d__a__do_8h.html" target="_top" xlink:title=" ">
<polygon fill="white" stroke="#666666" points="631,-101.5 535,-101.5 535,-71.5 631,-71.5 631,-101.5"/>
<text text-anchor="start" x="543" y="-89.5" font-family="Helvetica,sans-Serif" font-size="10.00">include/rel/d/a/d_a</text>
<text text-anchor="middle" x="583" y="-78.5" font-family="Helvetica,sans-Serif" font-size="10.00">_do/d_a_do.h</text>
</a>
</g>
</g>
<!-- Node6&#45;&gt;Node32 -->
<g id="edge11" class="edge">
<title>Node6&#45;&gt;Node32</title>
<path fill="none" stroke="#63b8ff" d="M1065.46,-145.89C1059.59,-144.82 1053.68,-143.82 1048,-143 867.85,-116.86 818.08,-144.74 640,-107 633.76,-105.68 627.26,-103.88 620.97,-101.9"/>
<polygon fill="#63b8ff" stroke="#63b8ff" points="1064.67,-149.3 1075.15,-147.74 1065.98,-142.42 1064.67,-149.3"/>
</g>
<!-- Node33 -->
<g id="node13" class="node">
<title>Node33</title>
<g id="a_node13"><a xlink:href="d__a__guard__mng_8h.html" target="_top" xlink:title=" ">
<polygon fill="white" stroke="#666666" points="798.5,-101.5 649.5,-101.5 649.5,-71.5 798.5,-71.5 798.5,-101.5"/>
<text text-anchor="start" x="657.5" y="-89.5" font-family="Helvetica,sans-Serif" font-size="10.00">include/rel/d/a/d_a</text>
<text text-anchor="middle" x="724" y="-78.5" font-family="Helvetica,sans-Serif" font-size="10.00">_guard_mng/d_a_guard_mng.h</text>
</a>
</g>
</g>
<!-- Node6&#45;&gt;Node33 -->
<g id="edge12" class="edge">
<title>Node6&#45;&gt;Node33</title>
<path fill="none" stroke="#63b8ff" d="M1063.84,-145.93C1058.5,-144.9 1053.15,-143.91 1048,-143 941.78,-124.27 913.95,-127.21 808,-107 800.06,-105.49 791.73,-103.74 783.53,-101.93"/>
<polygon fill="#63b8ff" stroke="#63b8ff" points="1062.76,-149.28 1073.25,-147.78 1064.11,-142.42 1062.76,-149.28"/>
</g>
<!-- Node34 -->
<g id="node14" class="node">
<title>Node34</title>
<g id="a_node14"><a xlink:href="d__a__horse_8h.html" target="_top" xlink:title=" ">
<polygon fill="#fff0f0" stroke="red" points="1042.5,-101.5 941.5,-101.5 941.5,-71.5 1042.5,-71.5 1042.5,-101.5"/>
<text text-anchor="start" x="949.5" y="-89.5" font-family="Helvetica,sans-Serif" font-size="10.00">include/rel/d/a/d_a</text>
<text text-anchor="middle" x="992" y="-78.5" font-family="Helvetica,sans-Serif" font-size="10.00">_horse/d_a_horse.h</text>
</a>
</g>
</g>
<!-- Node6&#45;&gt;Node34 -->
<g id="edge13" class="edge">
<title>Node6&#45;&gt;Node34</title>
<path fill="none" stroke="#63b8ff" d="M1090.91,-142.49C1069.52,-130.6 1039.4,-113.85 1018.03,-101.97"/>
<polygon fill="#63b8ff" stroke="#63b8ff" points="1089.15,-145.52 1099.59,-147.32 1092.55,-139.4 1089.15,-145.52"/>
</g>
<!-- Node38 -->
<g id="node15" class="node">
<title>Node38</title>
<g id="a_node15"><a xlink:href="d__a__no__chg__room_8cpp.html" target="_top" xlink:title=" ">
<polygon fill="white" stroke="#666666" points="1082,-30 980,-30 980,0 1082,0 1082,-30"/>
<text text-anchor="start" x="988" y="-18" font-family="Helvetica,sans-Serif" font-size="10.00">src/d/a/d_a_no_chg</text>
<text text-anchor="middle" x="1031" y="-7" font-family="Helvetica,sans-Serif" font-size="10.00">_room.cpp</text>
</a>
</g>
</g>
<!-- Node6&#45;&gt;Node38 -->
<g id="edge20" class="edge">
<title>Node6&#45;&gt;Node38</title>
<path fill="none" stroke="#63b8ff" d="M1105.82,-138.67C1088.51,-110.3 1055.59,-56.32 1039.83,-30.48"/>
<polygon fill="#63b8ff" stroke="#63b8ff" points="1102.64,-140.17 1110.83,-146.89 1108.61,-136.53 1102.64,-140.17"/>
</g>
<!-- Node42 -->
<g id="node16" class="node">
<title>Node42</title>
<g id="a_node16"><a xlink:href="d__a__midna_8h.html" target="_top" xlink:title=" ">
<polygon fill="#fff0f0" stroke="red" points="923,-101.5 817,-101.5 817,-71.5 923,-71.5 923,-101.5"/>
<text text-anchor="start" x="825" y="-89.5" font-family="Helvetica,sans-Serif" font-size="10.00">include/rel/d/a/d_a</text>
<text text-anchor="middle" x="870" y="-78.5" font-family="Helvetica,sans-Serif" font-size="10.00">_midna/d_a_midna.h</text>
</a>
</g>
</g>
<!-- Node6&#45;&gt;Node42 -->
<g id="edge15" class="edge">
<title>Node6&#45;&gt;Node42</title>
<path fill="none" stroke="#63b8ff" d="M1071.02,-145.13C1033.5,-135.31 979.17,-120.79 932,-107 926.58,-105.42 920.92,-103.71 915.31,-101.98"/>
<polygon fill="#63b8ff" stroke="#63b8ff" points="1070.08,-148.5 1080.64,-147.64 1071.85,-141.73 1070.08,-148.5"/>
</g>
<!-- Node43 -->
<g id="node17" class="node">
<title>Node43</title>
<g id="a_node17"><a xlink:href="d__a__door__push_8h.html" target="_top" xlink:title=" ">
<polygon fill="white" stroke="#666666" points="1227,-107 1099,-107 1099,-66 1227,-66 1227,-107"/>
<text text-anchor="start" x="1107" y="-95" font-family="Helvetica,sans-Serif" font-size="10.00">include/rel/d/a/door</text>
<text text-anchor="start" x="1107" y="-84" font-family="Helvetica,sans-Serif" font-size="10.00">/d_a_door_push/d_a_door</text>
<text text-anchor="middle" x="1163" y="-73" font-family="Helvetica,sans-Serif" font-size="10.00">_push.h</text>
</a>
</g>
</g>
<!-- Node6&#45;&gt;Node43 -->
<g id="edge17" class="edge">
<title>Node6&#45;&gt;Node43</title>
<path fill="none" stroke="#63b8ff" d="M1129.06,-138.77C1135.47,-129.1 1143.35,-117.19 1149.9,-107.29"/>
<polygon fill="#63b8ff" stroke="#63b8ff" points="1126.26,-136.66 1123.66,-146.94 1132.1,-140.53 1126.26,-136.66"/>
</g>
<!-- Node44 -->
<g id="node18" class="node">
<title>Node44</title>
<g id="a_node18"><a xlink:href="d__a__tag__river__back_8h.html" target="_top" xlink:title=" ">
<polygon fill="white" stroke="#666666" points="1357,-107 1245,-107 1245,-66 1357,-66 1357,-107"/>
<text text-anchor="start" x="1253" y="-95" font-family="Helvetica,sans-Serif" font-size="10.00">include/rel/d/a/tag</text>
<text text-anchor="start" x="1253" y="-84" font-family="Helvetica,sans-Serif" font-size="10.00">/d_a_tag_river_back</text>
<text text-anchor="middle" x="1301" y="-73" font-family="Helvetica,sans-Serif" font-size="10.00">/d_a_tag_river_back.h</text>
</a>
</g>
</g>
<!-- Node6&#45;&gt;Node44 -->
<g id="edge18" class="edge">
<title>Node6&#45;&gt;Node44</title>
<path fill="none" stroke="#63b8ff" d="M1151.22,-144.07C1178.41,-133.81 1216.9,-119.27 1248.06,-107.5"/>
<polygon fill="#63b8ff" stroke="#63b8ff" points="1150.21,-140.71 1142.09,-147.52 1152.69,-147.26 1150.21,-140.71"/>
</g>
<!-- Node45 -->
<g id="node19" class="node">
<title>Node45</title>
<g id="a_node19"><a xlink:href="c__damagereaction_8cpp.html" target="_top" xlink:title=" ">
<polygon fill="white" stroke="#666666" points="1514.5,-96 1375.5,-96 1375.5,-77 1514.5,-77 1514.5,-96"/>
<text text-anchor="middle" x="1445" y="-84" font-family="Helvetica,sans-Serif" font-size="10.00">src/c/c_damagereaction.cpp</text>
</a>
</g>
</g>
<!-- Node6&#45;&gt;Node45 -->
<g id="edge19" class="edge">
<title>Node6&#45;&gt;Node45</title>
<path fill="none" stroke="#63b8ff" d="M1172.98,-145.79C1244.93,-131.38 1361.26,-108.06 1366,-107 1380.48,-103.76 1396.37,-99.9 1410.08,-96.47"/>
<polygon fill="#63b8ff" stroke="#63b8ff" points="1172.43,-142.33 1163.32,-147.73 1173.81,-149.19 1172.43,-142.33"/>
</g>
<!-- Node46 -->
<g id="node20" class="node">
<title>Node46</title>
<g id="a_node20"><a xlink:href="d__a__npc__cd2_8cpp.html" target="_top" xlink:title=" ">
<polygon fill="white" stroke="#666666" points="1657.5,-96 1532.5,-96 1532.5,-77 1657.5,-77 1657.5,-96"/>
<text text-anchor="middle" x="1595" y="-84" font-family="Helvetica,sans-Serif" font-size="10.00">src/d/a/d_a_npc_cd2.cpp</text>
</a>
</g>
</g>
<!-- Node6&#45;&gt;Node46 -->
<g id="edge21" class="edge">
<title>Node6&#45;&gt;Node46</title>
<path fill="none" stroke="#63b8ff" d="M1169.77,-145.91C1175.57,-144.85 1181.4,-143.86 1187,-143 1335.9,-120.21 1376,-135.04 1524,-107 1538.19,-104.31 1553.69,-100.2 1566.57,-96.44"/>
<polygon fill="#63b8ff" stroke="#63b8ff" points="1169.38,-142.43 1160.2,-147.73 1170.68,-149.3 1169.38,-142.43"/>
</g>
<!-- Node47 -->
<g id="node21" class="node">
<title>Node47</title>
<g id="a_node21"><a xlink:href="d__a__obj__item_8cpp.html" target="_top" xlink:title=" ">
<polygon fill="white" stroke="#666666" points="1800.5,-96 1675.5,-96 1675.5,-77 1800.5,-77 1800.5,-96"/>
<text text-anchor="middle" x="1738" y="-84" font-family="Helvetica,sans-Serif" font-size="10.00">src/d/a/d_a_obj_item.cpp</text>
</a>
</g>
</g>
<!-- Node6&#45;&gt;Node47 -->
<g id="edge22" class="edge">
<title>Node6&#45;&gt;Node47</title>
<path fill="none" stroke="#63b8ff" d="M1168.58,-145.94C1174.77,-144.84 1181.01,-143.82 1187,-143 1398.95,-113.97 1456.2,-143.5 1667,-107 1681.48,-104.49 1697.28,-100.3 1710.29,-96.45"/>
<polygon fill="#63b8ff" stroke="#63b8ff" points="1168.24,-142.44 1159.06,-147.73 1169.54,-149.32 1168.24,-142.44"/>
</g>
<!-- Node48 -->
<g id="node22" class="node">
<title>Node48</title>
<g id="a_node22"><a xlink:href="d__bg__s__acch_8cpp.html" target="_top" xlink:title=" ">
<polygon fill="white" stroke="#666666" points="1949.5,-96 1818.5,-96 1818.5,-77 1949.5,-77 1949.5,-96"/>
<text text-anchor="middle" x="1884" y="-84" font-family="Helvetica,sans-Serif" font-size="10.00">src/d/bg/d_bg_s_acch.cpp</text>
</a>
</g>
</g>
<!-- Node6&#45;&gt;Node48 -->
<g id="edge24" class="edge">
<title>Node6&#45;&gt;Node48</title>
<path fill="none" stroke="#63b8ff" d="M1168.09,-145.92C1174.44,-144.8 1180.85,-143.79 1187,-143 1462.1,-107.72 1536.09,-150.55 1810,-107 1825.22,-104.58 1841.84,-100.35 1855.47,-96.45"/>
<polygon fill="#63b8ff" stroke="#63b8ff" points="1167.49,-142.48 1158.31,-147.76 1168.78,-149.36 1167.49,-142.48"/>
</g>
<!-- Node49 -->
<g id="node23" class="node">
<title>Node49</title>
<g id="a_node23"><a xlink:href="d__cc__uty_8cpp.html" target="_top" xlink:title=" ">
<polygon fill="white" stroke="#666666" points="2080,-96 1968,-96 1968,-77 2080,-77 2080,-96"/>
<text text-anchor="middle" x="2024" y="-84" font-family="Helvetica,sans-Serif" font-size="10.00">src/d/cc/d_cc_uty.cpp</text>
</a>
</g>
</g>
<!-- Node6&#45;&gt;Node49 -->
<g id="edge25" class="edge">
<title>Node6&#45;&gt;Node49</title>
<path fill="none" stroke="#63b8ff" d="M1167.36,-145.98C1173.95,-144.82 1180.62,-143.78 1187,-143 1527.93,-101.2 1620.41,-164.78 1959,-107 1972.59,-104.68 1987.33,-100.41 1999.34,-96.45"/>
<polygon fill="#63b8ff" stroke="#63b8ff" points="1167.11,-142.47 1157.93,-147.75 1168.4,-149.35 1167.11,-142.47"/>
</g>
<!-- Node50 -->
<g id="node24" class="node">
<title>Node50</title>
<g id="a_node24"><a xlink:href="d__attention_8cpp.html" target="_top" xlink:title=" ">
<polygon fill="white" stroke="#666666" points="2205.5,-96 2098.5,-96 2098.5,-77 2205.5,-77 2205.5,-96"/>
<text text-anchor="middle" x="2152" y="-84" font-family="Helvetica,sans-Serif" font-size="10.00">src/d/d_attention.cpp</text>
</a>
</g>
</g>
<!-- Node6&#45;&gt;Node50 -->
<g id="edge26" class="edge">
<title>Node6&#45;&gt;Node50</title>
<path fill="none" stroke="#63b8ff" d="M1167.12,-145.99C1173.78,-144.81 1180.54,-143.77 1187,-143 1585.39,-95.51 1693.58,-174.89 2089,-107 2102.2,-104.73 2116.5,-100.47 2128.13,-96.5"/>
<polygon fill="#63b8ff" stroke="#63b8ff" points="1166.74,-142.5 1157.56,-147.78 1168.03,-149.38 1166.74,-142.5"/>
</g>
<!-- Node51 -->
<g id="node25" class="node">
<title>Node51</title>
<g id="a_node25"><a xlink:href="d__cam__param_8cpp.html" target="_top" xlink:title=" ">
<polygon fill="white" stroke="#666666" points="2344.5,-96 2223.5,-96 2223.5,-77 2344.5,-77 2344.5,-96"/>
<text text-anchor="middle" x="2284" y="-84" font-family="Helvetica,sans-Serif" font-size="10.00">src/d/d_cam_param.cpp</text>
</a>
</g>
</g>
<!-- Node6&#45;&gt;Node51 -->
<g id="edge27" class="edge">
<title>Node6&#45;&gt;Node51</title>
<path fill="none" stroke="#63b8ff" d="M1167.11,-145.96C1173.77,-144.79 1180.53,-143.75 1187,-143 1641.09,-90 1763.33,-177.68 2215,-107 2229.51,-104.73 2245.31,-100.41 2258.12,-96.41"/>
<polygon fill="#63b8ff" stroke="#63b8ff" points="1166.74,-142.47 1157.55,-147.74 1168.03,-149.35 1166.74,-142.47"/>
</g>
<!-- Node52 -->
<g id="node26" class="node">
<title>Node52</title>
<g id="a_node26"><a xlink:href="d__k__wmark_8cpp.html" target="_top" xlink:title=" ">
<polygon fill="white" stroke="#666666" points="2473,-96 2363,-96 2363,-77 2473,-77 2473,-96"/>
<text text-anchor="middle" x="2418" y="-84" font-family="Helvetica,sans-Serif" font-size="10.00">src/d/d_k_wmark.cpp</text>
</a>
</g>
</g>
<!-- Node6&#45;&gt;Node52 -->
<g id="edge28" class="edge">
<title>Node6&#45;&gt;Node52</title>
<path fill="none" stroke="#63b8ff" d="M1166.87,-145.97C1173.61,-144.79 1180.45,-143.75 1187,-143 1702.54,-83.91 1841.99,-191.36 2354,-107 2367.52,-104.77 2382.18,-100.45 2394.05,-96.45"/>
<polygon fill="#63b8ff" stroke="#63b8ff" points="1166.37,-142.51 1157.18,-147.79 1167.66,-149.39 1166.37,-142.51"/>
</g>
<!-- Node7&#45;&gt;Node9 -->
<g id="edge7" class="edge">
<title>Node7&#45;&gt;Node9</title>
<path fill="none" stroke="#63b8ff" d="M77.56,-69.69C94.69,-55.85 118.95,-36.24 132.92,-24.95"/>
<polygon fill="#63b8ff" stroke="#63b8ff" points="75.65,-66.74 70.07,-75.75 80.05,-72.18 75.65,-66.74"/>
</g>
<!-- Node34&#45;&gt;Node38 -->
<g id="edge14" class="edge">
<title>Node34&#45;&gt;Node38</title>
<path fill="none" stroke="#63b8ff" d="M1005.53,-61.38C1011.33,-51.05 1017.91,-39.32 1022.93,-30.38"/>
<polygon fill="#63b8ff" stroke="#63b8ff" points="1002.66,-59.35 1000.82,-69.78 1008.77,-62.77 1002.66,-59.35"/>
</g>
<!-- Node42&#45;&gt;Node9 -->
<g id="edge16" class="edge">
<title>Node42&#45;&gt;Node9</title>
<path fill="none" stroke="#63b8ff" d="M817.13,-68.2C813.72,-67.38 810.32,-66.63 807,-66 585.86,-23.99 316.93,-16.97 201.32,-16.01"/>
<polygon fill="#63b8ff" stroke="#63b8ff" points="815.94,-71.51 826.51,-70.68 817.73,-64.74 815.94,-71.51"/>
</g>
</g>
</svg>
