<?xml version="1.0" encoding="UTF-8" standalone="no"?>
<!DOCTYPE svg PUBLIC "-//W3C//DTD SVG 1.1//EN"
 "http://www.w3.org/Graphics/SVG/1.1/DTD/svg11.dtd">
<!-- Generated by graphviz version 7.0.5 (20221223.1930)
 -->
<!-- Title: include/JSystem/J2DGraph/J2DTextBox.h Pages: 1 -->
<!--zoomable 236 -->
<svg id="main" version="1.1" xmlns="http://www.w3.org/2000/svg" xmlns:xlink="http://www.w3.org/1999/xlink" xml:space="preserve" onload="init(evt)">
<style type="text/css"><![CDATA[
.edge:hover path { stroke: red; }
.edge:hover polygon { stroke: red; fill: red; }
]]></style>
<script type="text/javascript"><![CDATA[
var edges = document.getElementsByTagName('g');
if (edges && edges.length) {
  for (var i=0;i<edges.length;i++) {
    if (edges[i].id.substr(0,4)=='edge') {
      edges[i].setAttribute('class','edge');
    }
  }
}
]]></script>
        <defs>
                <circle id="rim" cx="0" cy="0" r="7"/>
                <circle id="rim2" cx="0" cy="0" r="3.5"/>
                <g id="zoomPlus">
                        <use xlink:href="#rim" fill="#404040">
                                <set attributeName="fill" to="#808080" begin="zoomplus.mouseover" end="zoomplus.mouseout"/>
                        </use>
                        <path d="M-4,0h8M0,-4v8" fill="none" stroke="white" stroke-width="1.5" pointer-events="none"/>
                </g>
                <g id="zoomMin">
                        <use xlink:href="#rim" fill="#404040">
                                <set attributeName="fill" to="#808080" begin="zoomminus.mouseover" end="zoomminus.mouseout"/>
                        </use>
                        <path d="M-4,0h8" fill="none" stroke="white" stroke-width="1.5" pointer-events="none"/>
                </g>
                <g id="dirArrow">
                        <path fill="none" stroke="white" stroke-width="1.5" d="M0,-3.0v7 M-2.5,-0.5L0,-3.0L2.5,-0.5"/>
                </g>
               <g id="resetDef">
                       <use xlink:href="#rim2" fill="#404040">
                               <set attributeName="fill" to="#808080" begin="reset.mouseover" end="reset.mouseout"/>
                       </use>
               </g>
        </defs>

<script type="text/javascript">
var viewWidth = 4633;
var viewHeight = 236;
var sectionId = 'dynsection-1';
</script>
<script xlink:href="svgpan.js"/>
<svg id="graph" class="graph">
<g id="viewport">
<title>include/JSystem/J2DGraph/J2DTextBox.h</title>
<!-- Node1 -->
<g id="node1" class="node">
<title>Node1</title>
<g id="a_node1"><a xlink:title=" ">
<polygon fill="#999999" stroke="#666666" points="2514,-228 2379,-228 2379,-198 2514,-198 2514,-228"/>
<text text-anchor="start" x="2387" y="-216" font-family="Helvetica,sans-Serif" font-size="10.00">include/JSystem/J2DGraph</text>
<text text-anchor="middle" x="2446.5" y="-205" font-family="Helvetica,sans-Serif" font-size="10.00">/J2DTextBox.h</text>
</a>
</g>
</g>
<!-- Node2 -->
<g id="node2" class="node">
<title>Node2</title>
<g id="a_node2"><a xlink:href="J2DPrint_8h.html" target="_top" xlink:title=" ">
<polygon fill="white" stroke="#666666" points="413,-162 278,-162 278,-132 413,-132 413,-162"/>
<text text-anchor="start" x="286" y="-150" font-family="Helvetica,sans-Serif" font-size="10.00">include/JSystem/J2DGraph</text>
<text text-anchor="middle" x="345.5" y="-139" font-family="Helvetica,sans-Serif" font-size="10.00">/J2DPrint.h</text>
</a>
</g>
</g>
<!-- Node1&#45;&gt;Node2 -->
<g id="edge1" class="edge">
<title>Node1&#45;&gt;Node2</title>
<path fill="none" stroke="#63b8ff" d="M2367.4,-211.06C2107.63,-207.71 1257.13,-194.8 554.5,-162 507.28,-159.8 454.12,-156.22 413.23,-153.23"/>
<polygon fill="#63b8ff" stroke="#63b8ff" points="2367.03,-214.55 2377.08,-211.18 2367.12,-207.55 2367.03,-214.55"/>
</g>
<!-- Node4 -->
<g id="node4" class="node">
<title>Node4</title>
<g id="a_node4"><a xlink:href="J2DTextBox_8cpp.html" target="_top" xlink:title=" ">
<polygon fill="white" stroke="#666666" points="119,-96 0,-96 0,-66 119,-66 119,-96"/>
<text text-anchor="start" x="8" y="-84" font-family="Helvetica,sans-Serif" font-size="10.00">libs/JSystem/J2DGraph</text>
<text text-anchor="middle" x="59.5" y="-73" font-family="Helvetica,sans-Serif" font-size="10.00">/J2DTextBox.cpp</text>
</a>
</g>
</g>
<!-- Node1&#45;&gt;Node4 -->
<g id="edge28" class="edge">
<title>Node1&#45;&gt;Node4</title>
<path fill="none" stroke="#63b8ff" d="M2367.24,-211.78C2000.51,-210.57 477.18,-203.06 268.5,-162 201.03,-148.72 126.94,-115.56 87.65,-96.36"/>
<polygon fill="#63b8ff" stroke="#63b8ff" points="2367,-215.28 2377.01,-211.82 2367.02,-208.28 2367,-215.28"/>
</g>
<!-- Node7 -->
<g id="node7" class="node">
<title>Node7</title>
<g id="a_node7"><a xlink:href="J2DTextBoxEx_8h.html" target="_top" xlink:title=" ">
<polygon fill="white" stroke="#666666" points="699,-162 564,-162 564,-132 699,-132 699,-162"/>
<text text-anchor="start" x="572" y="-150" font-family="Helvetica,sans-Serif" font-size="10.00">include/JSystem/J2DGraph</text>
<text text-anchor="middle" x="631.5" y="-139" font-family="Helvetica,sans-Serif" font-size="10.00">/J2DTextBoxEx.h</text>
</a>
</g>
</g>
<!-- Node1&#45;&gt;Node7 -->
<g id="edge6" class="edge">
<title>Node1&#45;&gt;Node7</title>
<path fill="none" stroke="#63b8ff" d="M2367.39,-209.96C2139.97,-203.98 1464.78,-185.45 904.5,-162 834.56,-159.07 754.59,-154.87 699.36,-151.84"/>
<polygon fill="#63b8ff" stroke="#63b8ff" points="2367.24,-213.46 2377.33,-210.22 2367.43,-206.46 2367.24,-213.46"/>
</g>
<!-- Node9 -->
<g id="node9" class="node">
<title>Node9</title>
<g id="a_node9"><a xlink:href="d__menu__calibration_8h.html" target="_top" xlink:title=" ">
<polygon fill="white" stroke="#666666" points="1033.5,-162 913.5,-162 913.5,-132 1033.5,-132 1033.5,-162"/>
<text text-anchor="start" x="921.5" y="-150" font-family="Helvetica,sans-Serif" font-size="10.00">include/d/menu/d_menu</text>
<text text-anchor="middle" x="973.5" y="-139" font-family="Helvetica,sans-Serif" font-size="10.00">_calibration.h</text>
</a>
</g>
</g>
<!-- Node1&#45;&gt;Node9 -->
<g id="edge9" class="edge">
<title>Node1&#45;&gt;Node9</title>
<path fill="none" stroke="#63b8ff" d="M2367.44,-211.07C2159.62,-208.18 1580.87,-197.35 1100.5,-162 1078.71,-160.4 1054.89,-157.95 1033.82,-155.56"/>
<polygon fill="#63b8ff" stroke="#63b8ff" points="2367.27,-214.57 2377.31,-211.2 2367.36,-207.57 2367.27,-214.57"/>
</g>
<!-- Node11 -->
<g id="node11" class="node">
<title>Node11</title>
<g id="a_node11"><a xlink:href="d__menu__option_8cpp.html" target="_top" xlink:title=" ">
<polygon fill="white" stroke="#666666" points="1049.5,-90.5 897.5,-90.5 897.5,-71.5 1049.5,-71.5 1049.5,-90.5"/>
<text text-anchor="middle" x="973.5" y="-78.5" font-family="Helvetica,sans-Serif" font-size="10.00">src/d/menu/d_menu_option.cpp</text>
</a>
</g>
</g>
<!-- Node1&#45;&gt;Node11 -->
<g id="edge41" class="edge">
<title>Node1&#45;&gt;Node11</title>
<path fill="none" stroke="#63b8ff" d="M2367.46,-212.15C2128.14,-212.09 1413.85,-207.96 1186.5,-162 1111.19,-146.78 1027.36,-108.51 991.43,-91"/>
<polygon fill="#63b8ff" stroke="#63b8ff" points="2367.32,-215.65 2377.32,-212.15 2367.32,-208.65 2367.32,-215.65"/>
</g>
<!-- Node12 -->
<g id="node12" class="node">
<title>Node12</title>
<g id="a_node12"><a xlink:href="d__meter__button_8h.html" target="_top" xlink:title=" ">
<polygon fill="white" stroke="#666666" points="1317.5,-162 1195.5,-162 1195.5,-132 1317.5,-132 1317.5,-162"/>
<text text-anchor="start" x="1203.5" y="-150" font-family="Helvetica,sans-Serif" font-size="10.00">include/d/meter/d_meter</text>
<text text-anchor="middle" x="1256.5" y="-139" font-family="Helvetica,sans-Serif" font-size="10.00">_button.h</text>
</a>
</g>
</g>
<!-- Node1&#45;&gt;Node12 -->
<g id="edge12" class="edge">
<title>Node1&#45;&gt;Node12</title>
<path fill="none" stroke="#63b8ff" d="M2367.24,-212.61C2183.54,-213.11 1714.75,-209.21 1326.5,-162 1323.67,-161.66 1320.78,-161.26 1317.87,-160.83"/>
<polygon fill="#63b8ff" stroke="#63b8ff" points="2367.16,-216.11 2377.15,-212.57 2367.13,-209.11 2367.16,-216.11"/>
</g>
<!-- Node15 -->
<g id="node15" class="node">
<title>Node15</title>
<g id="a_node15"><a xlink:href="d__msg__scrn__base_8h.html" target="_top" xlink:title=" ">
<polygon fill="white" stroke="#666666" points="1435,-162 1336,-162 1336,-132 1435,-132 1435,-162"/>
<text text-anchor="start" x="1344" y="-150" font-family="Helvetica,sans-Serif" font-size="10.00">include/msg/scrn/d</text>
<text text-anchor="middle" x="1385.5" y="-139" font-family="Helvetica,sans-Serif" font-size="10.00">_msg_scrn_base.h</text>
</a>
</g>
</g>
<!-- Node1&#45;&gt;Node15 -->
<g id="edge15" class="edge">
<title>Node1&#45;&gt;Node15</title>
<path fill="none" stroke="#63b8ff" d="M2367.31,-209.97C2162.94,-204.41 1621.33,-187.66 1443.5,-162 1440.83,-161.62 1438.11,-161.16 1435.37,-160.66"/>
<polygon fill="#63b8ff" stroke="#63b8ff" points="2366.93,-213.46 2377.02,-210.23 2367.12,-206.46 2366.93,-213.46"/>
</g>
<!-- Node28 -->
<g id="node28" class="node">
<title>Node28</title>
<g id="a_node28"><a xlink:href="d__bright__check_8cpp.html" target="_top" xlink:title=" ">
<polygon fill="white" stroke="#666666" points="1578,-156.5 1453,-156.5 1453,-137.5 1578,-137.5 1578,-156.5"/>
<text text-anchor="middle" x="1515.5" y="-144.5" font-family="Helvetica,sans-Serif" font-size="10.00">src/d/d_bright_check.cpp</text>
</a>
</g>
</g>
<!-- Node1&#45;&gt;Node28 -->
<g id="edge29" class="edge">
<title>Node1&#45;&gt;Node28</title>
<path fill="none" stroke="#63b8ff" d="M2367.08,-210.92C2215.13,-208.08 1872.98,-197.9 1587.5,-162 1577.39,-160.73 1566.57,-158.89 1556.47,-156.95"/>
<polygon fill="#63b8ff" stroke="#63b8ff" points="2366.99,-214.42 2377.05,-211.1 2367.12,-207.42 2366.99,-214.42"/>
</g>
<!-- Node29 -->
<g id="node29" class="node">
<title>Node29</title>
<g id="a_node29"><a xlink:href="d__name_8cpp.html" target="_top" xlink:title=" ">
<polygon fill="white" stroke="#666666" points="1690.5,-156.5 1596.5,-156.5 1596.5,-137.5 1690.5,-137.5 1690.5,-156.5"/>
<text text-anchor="middle" x="1643.5" y="-144.5" font-family="Helvetica,sans-Serif" font-size="10.00">src/d/d_name.cpp</text>
</a>
</g>
</g>
<!-- Node1&#45;&gt;Node29 -->
<g id="edge30" class="edge">
<title>Node1&#45;&gt;Node29</title>
<path fill="none" stroke="#63b8ff" d="M2367.4,-211.32C2230.5,-209.12 1940.85,-199.94 1699.5,-162 1691.58,-160.76 1683.14,-158.92 1675.28,-156.99"/>
<polygon fill="#63b8ff" stroke="#63b8ff" points="2367.02,-214.82 2377.07,-211.47 2367.12,-207.82 2367.02,-214.82"/>
</g>
<!-- Node30 -->
<g id="node30" class="node">
<title>Node30</title>
<g id="a_node30"><a xlink:href="d__timer_8cpp.html" target="_top" xlink:title=" ">
<polygon fill="white" stroke="#666666" points="1800.5,-156.5 1708.5,-156.5 1708.5,-137.5 1800.5,-137.5 1800.5,-156.5"/>
<text text-anchor="middle" x="1754.5" y="-144.5" font-family="Helvetica,sans-Serif" font-size="10.00">src/d/d_timer.cpp</text>
</a>
</g>
</g>
<!-- Node1&#45;&gt;Node30 -->
<g id="edge31" class="edge">
<title>Node1&#45;&gt;Node30</title>
<path fill="none" stroke="#63b8ff" d="M2367.43,-210.01C2246.67,-206.02 2009.32,-194.44 1810.5,-162 1802.69,-160.73 1794.36,-158.9 1786.59,-157"/>
<polygon fill="#63b8ff" stroke="#63b8ff" points="2367.13,-213.5 2377.24,-210.32 2367.36,-206.51 2367.13,-213.5"/>
</g>
<!-- Node31 -->
<g id="node31" class="node">
<title>Node31</title>
<g id="a_node31"><a xlink:href="d__file__sel__info_8cpp.html" target="_top" xlink:title=" ">
<polygon fill="white" stroke="#666666" points="1916,-162 1819,-162 1819,-132 1916,-132 1916,-162"/>
<text text-anchor="start" x="1827" y="-150" font-family="Helvetica,sans-Serif" font-size="10.00">src/d/file/d_file_sel</text>
<text text-anchor="middle" x="1867.5" y="-139" font-family="Helvetica,sans-Serif" font-size="10.00">_info.cpp</text>
</a>
</g>
</g>
<!-- Node1&#45;&gt;Node31 -->
<g id="edge32" class="edge">
<title>Node1&#45;&gt;Node31</title>
<path fill="none" stroke="#63b8ff" d="M2367.17,-207.88C2264.64,-201.75 2080.82,-188.06 1925.5,-162 1922.54,-161.5 1919.5,-160.94 1916.45,-160.33"/>
<polygon fill="#63b8ff" stroke="#63b8ff" points="2366.96,-211.37 2377.15,-208.46 2367.37,-204.38 2366.96,-211.37"/>
</g>
<!-- Node32 -->
<g id="node32" class="node">
<title>Node32</title>
<g id="a_node32"><a xlink:href="d__file__sel__warning_8cpp.html" target="_top" xlink:title=" ">
<polygon fill="white" stroke="#666666" points="2031,-162 1934,-162 1934,-132 2031,-132 2031,-162"/>
<text text-anchor="start" x="1942" y="-150" font-family="Helvetica,sans-Serif" font-size="10.00">src/d/file/d_file_sel</text>
<text text-anchor="middle" x="1982.5" y="-139" font-family="Helvetica,sans-Serif" font-size="10.00">_warning.cpp</text>
</a>
</g>
</g>
<!-- Node1&#45;&gt;Node32 -->
<g id="edge33" class="edge">
<title>Node1&#45;&gt;Node32</title>
<path fill="none" stroke="#63b8ff" d="M2367.37,-204.96C2285.25,-197.02 2153.28,-182.49 2040.5,-162 2037.54,-161.46 2034.51,-160.87 2031.46,-160.24"/>
<polygon fill="#63b8ff" stroke="#63b8ff" points="2366.82,-208.42 2377.11,-205.89 2367.49,-201.45 2366.82,-208.42"/>
</g>
<!-- Node33 -->
<g id="node33" class="node">
<title>Node33</title>
<g id="a_node33"><a xlink:href="d__file__sel__warning__NONMATCHING_8cpp.html" target="_top" xlink:title=" ">
<polygon fill="white" stroke="#666666" points="2204,-162 2049,-162 2049,-132 2204,-132 2204,-162"/>
<text text-anchor="start" x="2057" y="-150" font-family="Helvetica,sans-Serif" font-size="10.00">src/d/file/d_file_sel</text>
<text text-anchor="middle" x="2126.5" y="-139" font-family="Helvetica,sans-Serif" font-size="10.00">_warning_NONMATCHING.cpp</text>
</a>
</g>
</g>
<!-- Node1&#45;&gt;Node33 -->
<g id="edge34" class="edge">
<title>Node1&#45;&gt;Node33</title>
<path fill="none" stroke="#63b8ff" d="M2367.55,-196.21C2316,-185.9 2249.2,-172.54 2198.99,-162.5"/>
<polygon fill="#63b8ff" stroke="#63b8ff" points="2366.66,-199.6 2377.15,-198.13 2368.03,-192.74 2366.66,-199.6"/>
</g>
<!-- Node34 -->
<g id="node34" class="node">
<title>Node34</title>
<g id="a_node34"><a xlink:href="d__file__select_8cpp.html" target="_top" xlink:title=" ">
<polygon fill="white" stroke="#666666" points="2350.5,-156.5 2222.5,-156.5 2222.5,-137.5 2350.5,-137.5 2350.5,-156.5"/>
<text text-anchor="middle" x="2286.5" y="-144.5" font-family="Helvetica,sans-Serif" font-size="10.00">src/d/file/d_file_select.cpp</text>
</a>
</g>
</g>
<!-- Node1&#45;&gt;Node34 -->
<g id="edge35" class="edge">
<title>Node1&#45;&gt;Node34</title>
<path fill="none" stroke="#63b8ff" d="M2399.95,-193.38C2370.02,-181.41 2332.46,-166.38 2308.96,-156.99"/>
<polygon fill="#63b8ff" stroke="#63b8ff" points="2398.6,-196.61 2409.19,-197.08 2401.2,-190.11 2398.6,-196.61"/>
</g>
<!-- Node35 -->
<g id="node35" class="node">
<title>Node35</title>
<g id="a_node35"><a xlink:href="d__menu__collect_8cpp.html" target="_top" xlink:title=" ">
<polygon fill="white" stroke="#666666" points="2524,-156.5 2369,-156.5 2369,-137.5 2524,-137.5 2524,-156.5"/>
<text text-anchor="middle" x="2446.5" y="-144.5" font-family="Helvetica,sans-Serif" font-size="10.00">src/d/menu/d_menu_collect.cpp</text>
</a>
</g>
</g>
<!-- Node1&#45;&gt;Node35 -->
<g id="edge36" class="edge">
<title>Node1&#45;&gt;Node35</title>
<path fill="none" stroke="#63b8ff" d="M2446.5,-186.59C2446.5,-176.06 2446.5,-164.53 2446.5,-156.84"/>
<polygon fill="#63b8ff" stroke="#63b8ff" points="2443,-186.28 2446.5,-196.28 2450,-186.28 2443,-186.28"/>
</g>
<!-- Node36 -->
<g id="node36" class="node">
<title>Node36</title>
<g id="a_node36"><a xlink:href="d__menu__fishing_8cpp.html" target="_top" xlink:title=" ">
<polygon fill="white" stroke="#666666" points="2696.5,-156.5 2542.5,-156.5 2542.5,-137.5 2696.5,-137.5 2696.5,-156.5"/>
<text text-anchor="middle" x="2619.5" y="-144.5" font-family="Helvetica,sans-Serif" font-size="10.00">src/d/menu/d_menu_fishing.cpp</text>
</a>
</g>
</g>
<!-- Node1&#45;&gt;Node36 -->
<g id="edge37" class="edge">
<title>Node1&#45;&gt;Node36</title>
<path fill="none" stroke="#63b8ff" d="M2495.98,-193.69C2528.49,-181.67 2569.58,-166.47 2595.21,-156.99"/>
<polygon fill="#63b8ff" stroke="#63b8ff" points="2494.91,-190.36 2486.74,-197.11 2497.34,-196.92 2494.91,-190.36"/>
</g>
<!-- Node37 -->
<g id="node37" class="node">
<title>Node37</title>
<g id="a_node37"><a xlink:href="d__menu__insect_8cpp.html" target="_top" xlink:title=" ">
<polygon fill="white" stroke="#666666" points="2866.5,-156.5 2714.5,-156.5 2714.5,-137.5 2866.5,-137.5 2866.5,-156.5"/>
<text text-anchor="middle" x="2790.5" y="-144.5" font-family="Helvetica,sans-Serif" font-size="10.00">src/d/menu/d_menu_insect.cpp</text>
</a>
</g>
</g>
<!-- Node1&#45;&gt;Node37 -->
<g id="edge38" class="edge">
<title>Node1&#45;&gt;Node37</title>
<path fill="none" stroke="#63b8ff" d="M2525.38,-197.33C2592.29,-184.88 2686.11,-167.42 2742.34,-156.96"/>
<polygon fill="#63b8ff" stroke="#63b8ff" points="2525.14,-193.81 2515.95,-199.08 2526.42,-200.69 2525.14,-193.81"/>
</g>
<!-- Node38 -->
<g id="node38" class="node">
<title>Node38</title>
<g id="a_node38"><a xlink:href="d__menu__item__explain_8cpp.html" target="_top" xlink:title=" ">
<polygon fill="white" stroke="#666666" points="3012,-162 2885,-162 2885,-132 3012,-132 3012,-162"/>
<text text-anchor="start" x="2893" y="-150" font-family="Helvetica,sans-Serif" font-size="10.00">src/d/menu/d_menu_item</text>
<text text-anchor="middle" x="2948.5" y="-139" font-family="Helvetica,sans-Serif" font-size="10.00">_explain.cpp</text>
</a>
</g>
</g>
<!-- Node1&#45;&gt;Node38 -->
<g id="edge39" class="edge">
<title>Node1&#45;&gt;Node38</title>
<path fill="none" stroke="#63b8ff" d="M2525.6,-204.54C2611.85,-195.99 2753.86,-180.73 2875.5,-162 2878.56,-161.53 2881.69,-161.02 2884.85,-160.49"/>
<polygon fill="#63b8ff" stroke="#63b8ff" points="2525.44,-201.04 2515.83,-205.5 2526.12,-208 2525.44,-201.04"/>
</g>
<!-- Node39 -->
<g id="node39" class="node">
<title>Node39</title>
<g id="a_node39"><a xlink:href="d__menu__letter_8cpp.html" target="_top" xlink:title=" ">
<polygon fill="white" stroke="#666666" points="3178.5,-156.5 3030.5,-156.5 3030.5,-137.5 3178.5,-137.5 3178.5,-156.5"/>
<text text-anchor="middle" x="3104.5" y="-144.5" font-family="Helvetica,sans-Serif" font-size="10.00">src/d/menu/d_menu_letter.cpp</text>
</a>
</g>
</g>
<!-- Node1&#45;&gt;Node39 -->
<g id="edge40" class="edge">
<title>Node1&#45;&gt;Node39</title>
<path fill="none" stroke="#63b8ff" d="M2525.83,-207.13C2636.94,-199.84 2845.1,-184.51 3021.5,-162 3032.52,-160.59 3044.31,-158.79 3055.44,-156.95"/>
<polygon fill="#63b8ff" stroke="#63b8ff" points="2525.67,-203.63 2515.91,-207.77 2526.12,-210.61 2525.67,-203.63"/>
</g>
<!-- Node40 -->
<g id="node40" class="node">
<title>Node40</title>
<g id="a_node40"><a xlink:href="d__menu__ring_8cpp.html" target="_top" xlink:title=" ">
<polygon fill="white" stroke="#666666" points="3338.5,-156.5 3196.5,-156.5 3196.5,-137.5 3338.5,-137.5 3338.5,-156.5"/>
<text text-anchor="middle" x="3267.5" y="-144.5" font-family="Helvetica,sans-Serif" font-size="10.00">src/d/menu/d_menu_ring.cpp</text>
</a>
</g>
</g>
<!-- Node1&#45;&gt;Node40 -->
<g id="edge42" class="edge">
<title>Node1&#45;&gt;Node40</title>
<path fill="none" stroke="#63b8ff" d="M2525.91,-209.4C2661.82,-204.34 2947.6,-191 3187.5,-162 3198.42,-160.68 3210.11,-158.86 3221.09,-156.98"/>
<polygon fill="#63b8ff" stroke="#63b8ff" points="2525.79,-205.9 2515.92,-209.77 2526.04,-212.9 2525.79,-205.9"/>
</g>
<!-- Node41 -->
<g id="node41" class="node">
<title>Node41</title>
<g id="a_node41"><a xlink:href="d__menu__skill_8cpp.html" target="_top" xlink:title=" ">
<polygon fill="white" stroke="#666666" points="3500,-156.5 3357,-156.5 3357,-137.5 3500,-137.5 3500,-156.5"/>
<text text-anchor="middle" x="3428.5" y="-144.5" font-family="Helvetica,sans-Serif" font-size="10.00">src/d/menu/d_menu_skill.cpp</text>
</a>
</g>
</g>
<!-- Node1&#45;&gt;Node41 -->
<g id="edge43" class="edge">
<title>Node1&#45;&gt;Node41</title>
<path fill="none" stroke="#63b8ff" d="M2525.67,-210.68C2682.82,-207.39 3045.11,-196.41 3347.5,-162 3358.7,-160.73 3370.7,-158.9 3381.94,-157"/>
<polygon fill="#63b8ff" stroke="#63b8ff" points="2525.7,-207.18 2515.77,-210.88 2525.84,-214.18 2525.7,-207.18"/>
</g>
<!-- Node42 -->
<g id="node42" class="node">
<title>Node42</title>
<g id="a_node42"><a xlink:href="d__meter2__draw_8cpp.html" target="_top" xlink:title=" ">
<polygon fill="white" stroke="#666666" points="3628.5,-162 3518.5,-162 3518.5,-132 3628.5,-132 3628.5,-162"/>
<text text-anchor="start" x="3526.5" y="-150" font-family="Helvetica,sans-Serif" font-size="10.00">src/d/meter/d_meter2</text>
<text text-anchor="middle" x="3573.5" y="-139" font-family="Helvetica,sans-Serif" font-size="10.00">_draw.cpp</text>
</a>
</g>
</g>
<!-- Node1&#45;&gt;Node42 -->
<g id="edge44" class="edge">
<title>Node1&#45;&gt;Node42</title>
<path fill="none" stroke="#63b8ff" d="M2525.6,-212.81C2702.66,-213.65 3144.09,-210.21 3509.5,-162 3512.32,-161.63 3515.2,-161.2 3518.1,-160.72"/>
<polygon fill="#63b8ff" stroke="#63b8ff" points="2525.85,-209.32 2515.83,-212.76 2525.81,-216.32 2525.85,-209.32"/>
</g>
<!-- Node43 -->
<g id="node43" class="node">
<title>Node43</title>
<g id="a_node43"><a xlink:href="d__meter2__info_8cpp.html" target="_top" xlink:title=" ">
<polygon fill="white" stroke="#666666" points="3756.5,-162 3646.5,-162 3646.5,-132 3756.5,-132 3756.5,-162"/>
<text text-anchor="start" x="3654.5" y="-150" font-family="Helvetica,sans-Serif" font-size="10.00">src/d/meter/d_meter2</text>
<text text-anchor="middle" x="3701.5" y="-139" font-family="Helvetica,sans-Serif" font-size="10.00">_info.cpp</text>
</a>
</g>
</g>
<!-- Node1&#45;&gt;Node43 -->
<g id="edge45" class="edge">
<title>Node1&#45;&gt;Node43</title>
<path fill="none" stroke="#63b8ff" d="M2525.7,-210.47C2755.79,-205.73 3421.54,-189.94 3637.5,-162 3640.32,-161.64 3643.2,-161.21 3646.1,-160.73"/>
<polygon fill="#63b8ff" stroke="#63b8ff" points="2525.86,-206.96 2515.93,-210.67 2526,-213.96 2525.86,-206.96"/>
</g>
<!-- Node44 -->
<g id="node44" class="node">
<title>Node44</title>
<g id="a_node44"><a xlink:href="d__meter__string_8cpp.html" target="_top" xlink:title=" ">
<polygon fill="white" stroke="#666666" points="3878.5,-162 3774.5,-162 3774.5,-132 3878.5,-132 3878.5,-162"/>
<text text-anchor="start" x="3782.5" y="-150" font-family="Helvetica,sans-Serif" font-size="10.00">src/d/meter/d_meter</text>
<text text-anchor="middle" x="3826.5" y="-139" font-family="Helvetica,sans-Serif" font-size="10.00">_string.cpp</text>
</a>
</g>
</g>
<!-- Node1&#45;&gt;Node44 -->
<g id="edge46" class="edge">
<title>Node1&#45;&gt;Node44</title>
<path fill="none" stroke="#63b8ff" d="M2525.61,-210.95C2772.02,-207.37 3523.71,-194.04 3765.5,-162 3768.3,-161.63 3771.16,-161.19 3774.04,-160.7"/>
<polygon fill="#63b8ff" stroke="#63b8ff" points="2525.72,-207.45 2515.77,-211.09 2525.82,-214.45 2525.72,-207.45"/>
</g>
<!-- Node45 -->
<g id="node45" class="node">
<title>Node45</title>
<g id="a_node45"><a xlink:href="d__msg__class_8cpp.html" target="_top" xlink:title=" ">
<polygon fill="white" stroke="#666666" points="4036,-156.5 3897,-156.5 3897,-137.5 4036,-137.5 4036,-156.5"/>
<text text-anchor="middle" x="3966.5" y="-144.5" font-family="Helvetica,sans-Serif" font-size="10.00">src/d/msg/d_msg_class.cpp</text>
</a>
</g>
</g>
<!-- Node1&#45;&gt;Node45 -->
<g id="edge47" class="edge">
<title>Node1&#45;&gt;Node45</title>
<path fill="none" stroke="#63b8ff" d="M2525.66,-210.72C2786.89,-206.28 3620.13,-190.19 3887.5,-162 3898.86,-160.8 3911.05,-158.94 3922.37,-156.95"/>
<polygon fill="#63b8ff" stroke="#63b8ff" points="2525.84,-207.22 2515.9,-210.89 2525.96,-214.22 2525.84,-207.22"/>
</g>
<!-- Node46 -->
<g id="node46" class="node">
<title>Node46</title>
<g id="a_node46"><a xlink:href="d__msg__out__font_8cpp.html" target="_top" xlink:title=" ">
<polygon fill="white" stroke="#666666" points="4165,-162 4054,-162 4054,-132 4165,-132 4165,-162"/>
<text text-anchor="start" x="4062" y="-150" font-family="Helvetica,sans-Serif" font-size="10.00">src/d/msg/d_msg_out</text>
<text text-anchor="middle" x="4109.5" y="-139" font-family="Helvetica,sans-Serif" font-size="10.00">_font.cpp</text>
</a>
</g>
</g>
<!-- Node1&#45;&gt;Node46 -->
<g id="edge48" class="edge">
<title>Node1&#45;&gt;Node46</title>
<path fill="none" stroke="#63b8ff" d="M2525.73,-211.45C2805.53,-209.22 3746.45,-199.06 4045.5,-162 4048.21,-161.66 4050.97,-161.27 4053.76,-160.83"/>
<polygon fill="#63b8ff" stroke="#63b8ff" points="2525.97,-207.95 2516,-211.53 2526.02,-214.95 2525.97,-207.95"/>
</g>
<!-- Node47 -->
<g id="node47" class="node">
<title>Node47</title>
<g id="a_node47"><a xlink:href="d__msg__string_8cpp.html" target="_top" xlink:title=" ">
<polygon fill="white" stroke="#666666" points="4323.5,-156.5 4183.5,-156.5 4183.5,-137.5 4323.5,-137.5 4323.5,-156.5"/>
<text text-anchor="middle" x="4253.5" y="-144.5" font-family="Helvetica,sans-Serif" font-size="10.00">src/d/msg/d_msg_string.cpp</text>
</a>
</g>
</g>
<!-- Node1&#45;&gt;Node47 -->
<g id="edge49" class="edge">
<title>Node1&#45;&gt;Node47</title>
<path fill="none" stroke="#63b8ff" d="M2525.55,-211.25C2819.36,-208.23 3848.2,-195.45 4174.5,-162 4185.86,-160.84 4198.05,-158.98 4209.37,-157"/>
<polygon fill="#63b8ff" stroke="#63b8ff" points="2525.65,-207.75 2515.69,-211.35 2525.72,-214.75 2525.65,-207.75"/>
</g>
<!-- Node48 -->
<g id="node48" class="node">
<title>Node48</title>
<g id="a_node48"><a xlink:href="d__msg__string__base_8cpp.html" target="_top" xlink:title=" ">
<polygon fill="white" stroke="#666666" points="4463.5,-162 4341.5,-162 4341.5,-132 4463.5,-132 4463.5,-162"/>
<text text-anchor="start" x="4349.5" y="-150" font-family="Helvetica,sans-Serif" font-size="10.00">src/d/msg/d_msg_string</text>
<text text-anchor="middle" x="4402.5" y="-139" font-family="Helvetica,sans-Serif" font-size="10.00">_base.cpp</text>
</a>
</g>
</g>
<!-- Node1&#45;&gt;Node48 -->
<g id="edge50" class="edge">
<title>Node1&#45;&gt;Node48</title>
<path fill="none" stroke="#63b8ff" d="M2525.48,-211.71C2836.07,-210.27 3974,-202.3 4332.5,-162 4335.33,-161.68 4338.22,-161.31 4341.13,-160.89"/>
<polygon fill="#63b8ff" stroke="#63b8ff" points="2525.84,-208.2 2515.86,-211.75 2525.88,-215.2 2525.84,-208.2"/>
</g>
<!-- Node49 -->
<g id="node49" class="node">
<title>Node49</title>
<g id="a_node49"><a xlink:href="d__pane__class_8cpp.html" target="_top" xlink:title=" ">
<polygon fill="white" stroke="#666666" points="4625,-156.5 4482,-156.5 4482,-137.5 4625,-137.5 4625,-156.5"/>
<text text-anchor="middle" x="4553.5" y="-144.5" font-family="Helvetica,sans-Serif" font-size="10.00">src/d/pane/d_pane_class.cpp</text>
</a>
</g>
</g>
<!-- Node1&#45;&gt;Node49 -->
<g id="edge51" class="edge">
<title>Node1&#45;&gt;Node49</title>
<path fill="none" stroke="#63b8ff" d="M2525.57,-211.6C2850.58,-209.7 4084.59,-200.1 4472.5,-162 4484.29,-160.84 4496.95,-158.96 4508.67,-156.95"/>
<polygon fill="#63b8ff" stroke="#63b8ff" points="2525.89,-208.1 2515.91,-211.65 2525.93,-215.1 2525.89,-208.1"/>
</g>
<!-- Node3 -->
<g id="node3" class="node">
<title>Node3</title>
<g id="a_node3"><a xlink:href="J2DPrint_8cpp.html" target="_top" xlink:title=" ">
<polygon fill="white" stroke="#666666" points="256,-96 137,-96 137,-66 256,-66 256,-96"/>
<text text-anchor="start" x="145" y="-84" font-family="Helvetica,sans-Serif" font-size="10.00">libs/JSystem/J2DGraph</text>
<text text-anchor="middle" x="196.5" y="-73" font-family="Helvetica,sans-Serif" font-size="10.00">/J2DPrint.cpp</text>
</a>
</g>
</g>
<!-- Node2&#45;&gt;Node3 -->
<g id="edge2" class="edge">
<title>Node2&#45;&gt;Node3</title>
<path fill="none" stroke="#63b8ff" d="M301.59,-127.14C278.73,-117.32 251.22,-105.51 230.08,-96.43"/>
<polygon fill="#63b8ff" stroke="#63b8ff" points="300.1,-130.31 310.67,-131.04 302.86,-123.88 300.1,-130.31"/>
</g>
<!-- Node2&#45;&gt;Node4 -->
<g id="edge3" class="edge">
<title>Node2&#45;&gt;Node4</title>
<path fill="none" stroke="#63b8ff" d="M269.9,-129.08C222.85,-118.55 163.18,-105.2 119.41,-95.41"/>
<polygon fill="#63b8ff" stroke="#63b8ff" points="268.96,-132.46 279.48,-131.23 270.49,-125.63 268.96,-132.46"/>
</g>
<!-- Node5 -->
<g id="node5" class="node">
<title>Node5</title>
<g id="a_node5"><a xlink:href="J2DTextBoxEx_8cpp.html" target="_top" xlink:title=" ">
<polygon fill="white" stroke="#666666" points="554,-96 435,-96 435,-66 554,-66 554,-96"/>
<text text-anchor="start" x="443" y="-84" font-family="Helvetica,sans-Serif" font-size="10.00">libs/JSystem/J2DGraph</text>
<text text-anchor="middle" x="494.5" y="-73" font-family="Helvetica,sans-Serif" font-size="10.00">/J2DTextBoxEx.cpp</text>
</a>
</g>
</g>
<!-- Node2&#45;&gt;Node5 -->
<g id="edge4" class="edge">
<title>Node2&#45;&gt;Node5</title>
<path fill="none" stroke="#63b8ff" d="M389.41,-127.14C412.27,-117.32 439.78,-105.51 460.92,-96.43"/>
<polygon fill="#63b8ff" stroke="#63b8ff" points="388.14,-123.88 380.33,-131.04 390.9,-130.31 388.14,-123.88"/>
</g>
<!-- Node6 -->
<g id="node6" class="node">
<title>Node6</title>
<g id="a_node6"><a xlink:href="m__Do__graphic_8cpp.html" target="_top" xlink:title=" ">
<polygon fill="white" stroke="#666666" points="416.5,-90.5 274.5,-90.5 274.5,-71.5 416.5,-71.5 416.5,-90.5"/>
<text text-anchor="middle" x="345.5" y="-78.5" font-family="Helvetica,sans-Serif" font-size="10.00">src/m_Do/m_Do_graphic.cpp</text>
</a>
</g>
</g>
<!-- Node2&#45;&gt;Node6 -->
<g id="edge5" class="edge">
<title>Node2&#45;&gt;Node6</title>
<path fill="none" stroke="#63b8ff" d="M345.5,-120.59C345.5,-110.06 345.5,-98.53 345.5,-90.84"/>
<polygon fill="#63b8ff" stroke="#63b8ff" points="342,-120.28 345.5,-130.28 349,-120.28 342,-120.28"/>
</g>
<!-- Node7&#45;&gt;Node5 -->
<g id="edge8" class="edge">
<title>Node7&#45;&gt;Node5</title>
<path fill="none" stroke="#63b8ff" d="M590.52,-126.86C569.54,-117.05 544.42,-105.32 525.14,-96.31"/>
<polygon fill="#63b8ff" stroke="#63b8ff" points="588.84,-129.94 599.38,-131 591.8,-123.59 588.84,-129.94"/>
</g>
<!-- Node8 -->
<g id="node8" class="node">
<title>Node8</title>
<g id="a_node8"><a xlink:href="J2DScreen_8cpp.html" target="_top" xlink:title=" ">
<polygon fill="white" stroke="#666666" points="691,-96 572,-96 572,-66 691,-66 691,-96"/>
<text text-anchor="start" x="580" y="-84" font-family="Helvetica,sans-Serif" font-size="10.00">libs/JSystem/J2DGraph</text>
<text text-anchor="middle" x="631.5" y="-73" font-family="Helvetica,sans-Serif" font-size="10.00">/J2DScreen.cpp</text>
</a>
</g>
</g>
<!-- Node7&#45;&gt;Node8 -->
<g id="edge7" class="edge">
<title>Node7&#45;&gt;Node8</title>
<path fill="none" stroke="#63b8ff" d="M631.5,-120.39C631.5,-112.13 631.5,-103.28 631.5,-96.16"/>
<polygon fill="#63b8ff" stroke="#63b8ff" points="628,-120.28 631.5,-130.28 635,-120.28 628,-120.28"/>
</g>
<!-- Node10 -->
<g id="node10" class="node">
<title>Node10</title>
<g id="a_node10"><a xlink:href="d__menu__calibration_8cpp.html" target="_top" xlink:title=" ">
<polygon fill="white" stroke="#666666" points="879.5,-90.5 709.5,-90.5 709.5,-71.5 879.5,-71.5 879.5,-90.5"/>
<text text-anchor="middle" x="794.5" y="-78.5" font-family="Helvetica,sans-Serif" font-size="10.00">src/d/menu/d_menu_calibration.cpp</text>
</a>
</g>
</g>
<!-- Node9&#45;&gt;Node10 -->
<g id="edge10" class="edge">
<title>Node9&#45;&gt;Node10</title>
<path fill="none" stroke="#63b8ff" d="M922.74,-127.85C889.04,-115.8 846.26,-100.51 819.63,-90.99"/>
<polygon fill="#63b8ff" stroke="#63b8ff" points="921.31,-131.06 931.9,-131.13 923.67,-124.47 921.31,-131.06"/>
</g>
<!-- Node9&#45;&gt;Node11 -->
<g id="edge11" class="edge">
<title>Node9&#45;&gt;Node11</title>
<path fill="none" stroke="#63b8ff" d="M973.5,-120.59C973.5,-110.06 973.5,-98.53 973.5,-90.84"/>
<polygon fill="#63b8ff" stroke="#63b8ff" points="970,-120.28 973.5,-130.28 977,-120.28 970,-120.28"/>
</g>
<!-- Node13 -->
<g id="node13" class="node">
<title>Node13</title>
<g id="a_node13"><a xlink:href="d__meter2_8cpp.html" target="_top" xlink:title=" ">
<polygon fill="white" stroke="#666666" points="1195.5,-90.5 1067.5,-90.5 1067.5,-71.5 1195.5,-71.5 1195.5,-90.5"/>
<text text-anchor="middle" x="1131.5" y="-78.5" font-family="Helvetica,sans-Serif" font-size="10.00">src/d/meter/d_meter2.cpp</text>
</a>
</g>
</g>
<!-- Node12&#45;&gt;Node13 -->
<g id="edge13" class="edge">
<title>Node12&#45;&gt;Node13</title>
<path fill="none" stroke="#63b8ff" d="M1218.27,-126.43C1195.21,-114.62 1166.92,-100.14 1149.05,-90.99"/>
<polygon fill="#63b8ff" stroke="#63b8ff" points="1216.6,-129.51 1227.1,-130.95 1219.79,-123.27 1216.6,-129.51"/>
</g>
<!-- Node14 -->
<g id="node14" class="node">
<title>Node14</title>
<g id="a_node14"><a xlink:href="d__meter__button_8cpp.html" target="_top" xlink:title=" ">
<polygon fill="white" stroke="#666666" points="1317.5,-96 1213.5,-96 1213.5,-66 1317.5,-66 1317.5,-96"/>
<text text-anchor="start" x="1221.5" y="-84" font-family="Helvetica,sans-Serif" font-size="10.00">src/d/meter/d_meter</text>
<text text-anchor="middle" x="1265.5" y="-73" font-family="Helvetica,sans-Serif" font-size="10.00">_button.cpp</text>
</a>
</g>
</g>
<!-- Node12&#45;&gt;Node14 -->
<g id="edge14" class="edge">
<title>Node12&#45;&gt;Node14</title>
<path fill="none" stroke="#63b8ff" d="M1260.06,-120.68C1261.23,-112.34 1262.5,-103.37 1263.51,-96.16"/>
<polygon fill="#63b8ff" stroke="#63b8ff" points="1256.63,-119.91 1258.71,-130.3 1263.57,-120.88 1256.63,-119.91"/>
</g>
<!-- Node16 -->
<g id="node16" class="node">
<title>Node16</title>
<g id="a_node16"><a xlink:href="d__msg__scrn__boss_8h.html" target="_top" xlink:title=" ">
<polygon fill="white" stroke="#666666" points="1435,-96 1336,-96 1336,-66 1435,-66 1435,-96"/>
<text text-anchor="start" x="1344" y="-84" font-family="Helvetica,sans-Serif" font-size="10.00">include/msg/scrn/d</text>
<text text-anchor="middle" x="1385.5" y="-73" font-family="Helvetica,sans-Serif" font-size="10.00">_msg_scrn_boss.h</text>
</a>
</g>
</g>
<!-- Node15&#45;&gt;Node16 -->
<g id="edge16" class="edge">
<title>Node15&#45;&gt;Node16</title>
<path fill="none" stroke="#63b8ff" d="M1385.5,-120.39C1385.5,-112.13 1385.5,-103.28 1385.5,-96.16"/>
<polygon fill="#63b8ff" stroke="#63b8ff" points="1382,-120.28 1385.5,-130.28 1389,-120.28 1382,-120.28"/>
</g>
<!-- Node18 -->
<g id="node18" class="node">
<title>Node18</title>
<g id="a_node18"><a xlink:href="d__msg__scrn__explain_8h.html" target="_top" xlink:title=" ">
<polygon fill="white" stroke="#666666" points="1560,-96 1453,-96 1453,-66 1560,-66 1560,-96"/>
<text text-anchor="start" x="1461" y="-84" font-family="Helvetica,sans-Serif" font-size="10.00">include/msg/scrn/d</text>
<text text-anchor="middle" x="1506.5" y="-73" font-family="Helvetica,sans-Serif" font-size="10.00">_msg_scrn_explain.h</text>
</a>
</g>
</g>
<!-- Node15&#45;&gt;Node18 -->
<g id="edge18" class="edge">
<title>Node15&#45;&gt;Node18</title>
<path fill="none" stroke="#63b8ff" d="M1422.71,-126.32C1441.03,-116.63 1462.72,-105.16 1479.44,-96.31"/>
<polygon fill="#63b8ff" stroke="#63b8ff" points="1421.2,-123.16 1413.99,-130.93 1424.47,-129.35 1421.2,-123.16"/>
</g>
<!-- Node21 -->
<g id="node21" class="node">
<title>Node21</title>
<g id="a_node21"><a xlink:href="d__msg__scrn__place_8h.html" target="_top" xlink:title=" ">
<polygon fill="white" stroke="#666666" points="1679,-96 1578,-96 1578,-66 1679,-66 1679,-96"/>
<text text-anchor="start" x="1586" y="-84" font-family="Helvetica,sans-Serif" font-size="10.00">include/msg/scrn/d</text>
<text text-anchor="middle" x="1628.5" y="-73" font-family="Helvetica,sans-Serif" font-size="10.00">_msg_scrn_place.h</text>
</a>
</g>
</g>
<!-- Node15&#45;&gt;Node21 -->
<g id="edge21" class="edge">
<title>Node15&#45;&gt;Node21</title>
<path fill="none" stroke="#63b8ff" d="M1446.33,-129.98C1486.78,-119.33 1539.3,-105.49 1577.55,-95.42"/>
<polygon fill="#63b8ff" stroke="#63b8ff" points="1445.5,-126.58 1436.72,-132.51 1447.29,-133.35 1445.5,-126.58"/>
</g>
<!-- Node23 -->
<g id="node23" class="node">
<title>Node23</title>
<g id="a_node23"><a xlink:href="d__msg__scrn__staff_8h.html" target="_top" xlink:title=" ">
<polygon fill="white" stroke="#666666" points="1796,-96 1697,-96 1697,-66 1796,-66 1796,-96"/>
<text text-anchor="start" x="1705" y="-84" font-family="Helvetica,sans-Serif" font-size="10.00">include/msg/scrn/d</text>
<text text-anchor="middle" x="1746.5" y="-73" font-family="Helvetica,sans-Serif" font-size="10.00">_msg_scrn_staff.h</text>
</a>
</g>
</g>
<!-- Node15&#45;&gt;Node23 -->
<g id="edge23" class="edge">
<title>Node15&#45;&gt;Node23</title>
<path fill="none" stroke="#63b8ff" d="M1446.67,-131.49C1553.11,-111.46 1583.42,-115.99 1687.5,-96 1690.5,-95.42 1693.57,-94.8 1696.67,-94.14"/>
<polygon fill="#63b8ff" stroke="#63b8ff" points="1446.07,-128.04 1436.91,-133.36 1447.39,-134.92 1446.07,-128.04"/>
</g>
<!-- Node25 -->
<g id="node25" class="node">
<title>Node25</title>
<g id="a_node25"><a xlink:href="d__msg__scrn__tree_8h.html" target="_top" xlink:title=" ">
<polygon fill="white" stroke="#666666" points="1913,-96 1814,-96 1814,-66 1913,-66 1913,-96"/>
<text text-anchor="start" x="1822" y="-84" font-family="Helvetica,sans-Serif" font-size="10.00">include/msg/scrn/d</text>
<text text-anchor="middle" x="1863.5" y="-73" font-family="Helvetica,sans-Serif" font-size="10.00">_msg_scrn_tree.h</text>
</a>
</g>
</g>
<!-- Node15&#45;&gt;Node25 -->
<g id="edge25" class="edge">
<title>Node15&#45;&gt;Node25</title>
<path fill="none" stroke="#63b8ff" d="M1446.5,-131.64C1604.91,-105.76 1649.67,-122.43 1805.5,-96 1808.16,-95.55 1810.87,-95.05 1813.6,-94.51"/>
<polygon fill="#63b8ff" stroke="#63b8ff" points="1446.18,-128.15 1436.89,-133.25 1447.33,-135.05 1446.18,-128.15"/>
</g>
<!-- Node27 -->
<g id="node27" class="node">
<title>Node27</title>
<g id="a_node27"><a xlink:href="d__msg__scrn__base_8cpp.html" target="_top" xlink:title=" ">
<polygon fill="white" stroke="#666666" points="2037.5,-96 1931.5,-96 1931.5,-66 2037.5,-66 2037.5,-96"/>
<text text-anchor="start" x="1939.5" y="-84" font-family="Helvetica,sans-Serif" font-size="10.00">src/msg/scrn/d_msg</text>
<text text-anchor="middle" x="1984.5" y="-73" font-family="Helvetica,sans-Serif" font-size="10.00">_scrn_base.cpp</text>
</a>
</g>
</g>
<!-- Node15&#45;&gt;Node27 -->
<g id="edge27" class="edge">
<title>Node15&#45;&gt;Node27</title>
<path fill="none" stroke="#63b8ff" d="M1446.47,-131.7C1656.39,-99.81 1714.97,-127.06 1922.5,-96 1925.34,-95.58 1928.24,-95.09 1931.16,-94.57"/>
<polygon fill="#63b8ff" stroke="#63b8ff" points="1446.23,-128.2 1436.88,-133.19 1447.3,-135.11 1446.23,-128.2"/>
</g>
<!-- Node17 -->
<g id="node17" class="node">
<title>Node17</title>
<g id="a_node17"><a xlink:href="d__msg__scrn__boss_8cpp.html" target="_top" xlink:title=" ">
<polygon fill="white" stroke="#666666" points="1268.5,-30 1162.5,-30 1162.5,0 1268.5,0 1268.5,-30"/>
<text text-anchor="start" x="1170.5" y="-18" font-family="Helvetica,sans-Serif" font-size="10.00">src/msg/scrn/d_msg</text>
<text text-anchor="middle" x="1215.5" y="-7" font-family="Helvetica,sans-Serif" font-size="10.00">_scrn_boss.cpp</text>
</a>
</g>
</g>
<!-- Node16&#45;&gt;Node17 -->
<g id="edge17" class="edge">
<title>Node16&#45;&gt;Node17</title>
<path fill="none" stroke="#63b8ff" d="M1336.82,-61.67C1310.46,-51.75 1278.37,-39.67 1253.82,-30.43"/>
<polygon fill="#63b8ff" stroke="#63b8ff" points="1335.34,-64.86 1345.93,-65.1 1337.81,-58.3 1335.34,-64.86"/>
</g>
<!-- Node19 -->
<g id="node19" class="node">
<title>Node19</title>
<g id="a_node19"><a xlink:href="d__menu__save_8cpp.html" target="_top" xlink:title=" ">
<polygon fill="white" stroke="#666666" points="1434,-24.5 1287,-24.5 1287,-5.5 1434,-5.5 1434,-24.5"/>
<text text-anchor="middle" x="1360.5" y="-12.5" font-family="Helvetica,sans-Serif" font-size="10.00">src/d/menu/d_menu_save.cpp</text>
</a>
</g>
</g>
<!-- Node18&#45;&gt;Node19 -->
<g id="edge19" class="edge">
<title>Node18&#45;&gt;Node19</title>
<path fill="none" stroke="#63b8ff" d="M1463.3,-61.06C1436.11,-49.14 1402.25,-34.3 1381,-24.99"/>
<polygon fill="#63b8ff" stroke="#63b8ff" points="1461.78,-64.22 1472.35,-65.03 1464.6,-57.81 1461.78,-64.22"/>
</g>
<!-- Node20 -->
<g id="node20" class="node">
<title>Node20</title>
<g id="a_node20"><a xlink:href="d__msg__scrn__explain_8cpp.html" target="_top" xlink:title=" ">
<polygon fill="white" stroke="#666666" points="1558.5,-30 1452.5,-30 1452.5,0 1558.5,0 1558.5,-30"/>
<text text-anchor="start" x="1460.5" y="-18" font-family="Helvetica,sans-Serif" font-size="10.00">src/msg/scrn/d_msg</text>
<text text-anchor="middle" x="1505.5" y="-7" font-family="Helvetica,sans-Serif" font-size="10.00">_scrn_explain.cpp</text>
</a>
</g>
</g>
<!-- Node18&#45;&gt;Node20 -->
<g id="edge20" class="edge">
<title>Node18&#45;&gt;Node20</title>
<path fill="none" stroke="#63b8ff" d="M1506.1,-54.39C1505.97,-46.13 1505.83,-37.28 1505.72,-30.16"/>
<polygon fill="#63b8ff" stroke="#63b8ff" points="1502.6,-54.34 1506.25,-64.28 1509.6,-54.23 1502.6,-54.34"/>
</g>
<!-- Node22 -->
<g id="node22" class="node">
<title>Node22</title>
<g id="a_node22"><a xlink:href="d__msg__scrn__place_8cpp.html" target="_top" xlink:title=" ">
<polygon fill="white" stroke="#666666" points="1682.5,-30 1576.5,-30 1576.5,0 1682.5,0 1682.5,-30"/>
<text text-anchor="start" x="1584.5" y="-18" font-family="Helvetica,sans-Serif" font-size="10.00">src/msg/scrn/d_msg</text>
<text text-anchor="middle" x="1629.5" y="-7" font-family="Helvetica,sans-Serif" font-size="10.00">_scrn_place.cpp</text>
</a>
</g>
</g>
<!-- Node21&#45;&gt;Node22 -->
<g id="edge22" class="edge">
<title>Node21&#45;&gt;Node22</title>
<path fill="none" stroke="#63b8ff" d="M1628.9,-54.39C1629.03,-46.13 1629.17,-37.28 1629.28,-30.16"/>
<polygon fill="#63b8ff" stroke="#63b8ff" points="1625.4,-54.23 1628.75,-64.28 1632.4,-54.34 1625.4,-54.23"/>
</g>
<!-- Node24 -->
<g id="node24" class="node">
<title>Node24</title>
<g id="a_node24"><a xlink:href="d__msg__scrn__staff_8cpp.html" target="_top" xlink:title=" ">
<polygon fill="white" stroke="#666666" points="1806.5,-30 1700.5,-30 1700.5,0 1806.5,0 1806.5,-30"/>
<text text-anchor="start" x="1708.5" y="-18" font-family="Helvetica,sans-Serif" font-size="10.00">src/msg/scrn/d_msg</text>
<text text-anchor="middle" x="1753.5" y="-7" font-family="Helvetica,sans-Serif" font-size="10.00">_scrn_staff.cpp</text>
</a>
</g>
</g>
<!-- Node23&#45;&gt;Node24 -->
<g id="edge24" class="edge">
<title>Node23&#45;&gt;Node24</title>
<path fill="none" stroke="#63b8ff" d="M1749.3,-54.39C1750.2,-46.13 1751.17,-37.28 1751.95,-30.16"/>
<polygon fill="#63b8ff" stroke="#63b8ff" points="1745.83,-53.97 1748.22,-64.29 1752.78,-54.73 1745.83,-53.97"/>
</g>
<!-- Node26 -->
<g id="node26" class="node">
<title>Node26</title>
<g id="a_node26"><a xlink:href="d__msg__scrn__tree_8cpp.html" target="_top" xlink:title=" ">
<polygon fill="white" stroke="#666666" points="1930.5,-30 1824.5,-30 1824.5,0 1930.5,0 1930.5,-30"/>
<text text-anchor="start" x="1832.5" y="-18" font-family="Helvetica,sans-Serif" font-size="10.00">src/msg/scrn/d_msg</text>
<text text-anchor="middle" x="1877.5" y="-7" font-family="Helvetica,sans-Serif" font-size="10.00">_scrn_tree.cpp</text>
</a>
</g>
</g>
<!-- Node25&#45;&gt;Node26 -->
<g id="edge26" class="edge">
<title>Node25&#45;&gt;Node26</title>
<path fill="none" stroke="#63b8ff" d="M1869.04,-54.68C1870.86,-46.34 1872.83,-37.37 1874.4,-30.16"/>
<polygon fill="#63b8ff" stroke="#63b8ff" points="1865.65,-53.8 1866.93,-64.32 1872.49,-55.3 1865.65,-53.8"/>
</g>
</g>
</svg>
        <g id="navigator" transform="translate(0 0)" fill="#404254">
                <rect fill="#f2f5e9" fill-opacity="0.5" stroke="#606060" stroke-width=".5" x="0" y="0" width="60" height="60"/>
                <use id="zoomplus" xlink:href="#zoomPlus" x="17" y="9" onmousedown="handleZoom(evt,'in')"/>
                <use id="zoomminus" xlink:href="#zoomMin" x="42" y="9" onmousedown="handleZoom(evt,'out')"/>
                <use id="reset" xlink:href="#resetDef" x="30" y="36" onmousedown="handleReset()"/>
                <g id="arrowUp" xlink:href="#dirArrow" transform="translate(30 24)" onmousedown="handlePan(0,-1)">
                  <use xlink:href="#rim" fill="#404040">
                        <set attributeName="fill" to="#808080" begin="arrowUp.mouseover" end="arrowUp.mouseout"/>
                  </use>
                  <path fill="none" stroke="white" stroke-width="1.5" d="M0,-3.0v7 M-2.5,-0.5L0,-3.0L2.5,-0.5"/>
                </g>
                <g id="arrowRight" xlink:href="#dirArrow" transform="rotate(90) translate(36 -43)" onmousedown="handlePan(1,0)">
                  <use xlink:href="#rim" fill="#404040">
                        <set attributeName="fill" to="#808080" begin="arrowRight.mouseover" end="arrowRight.mouseout"/>
                  </use>
                  <path fill="none" stroke="white" stroke-width="1.5" d="M0,-3.0v7 M-2.5,-0.5L0,-3.0L2.5,-0.5"/>
                </g>
                <g id="arrowDown" xlink:href="#dirArrow" transform="rotate(180) translate(-30 -48)" onmousedown="handlePan(0,1)">
                  <use xlink:href="#rim" fill="#404040">
                        <set attributeName="fill" to="#808080" begin="arrowDown.mouseover" end="arrowDown.mouseout"/>
                  </use>
                  <path fill="none" stroke="white" stroke-width="1.5" d="M0,-3.0v7 M-2.5,-0.5L0,-3.0L2.5,-0.5"/>
                </g>
                <g id="arrowLeft" xlink:href="#dirArrow" transform="rotate(270) translate(-36 17)" onmousedown="handlePan(-1,0)">
                  <use xlink:href="#rim" fill="#404040">
                        <set attributeName="fill" to="#808080" begin="arrowLeft.mouseover" end="arrowLeft.mouseout"/>
                  </use>
                  <path fill="none" stroke="white" stroke-width="1.5" d="M0,-3.0v7 M-2.5,-0.5L0,-3.0L2.5,-0.5"/>
                </g>
        </g>
        <svg viewBox="0 0 15 15" width="100%" height="30px" preserveAspectRatio="xMaxYMin meet">
         <g id="arrow_out" transform="scale(0.3 0.3)">
          <a xlink:href="J2DTextBox_8h__dep__incl_org.svg" target="_base">
           <rect id="button" ry="5" rx="5" y="6" x="6" height="38" width="38"
                fill="#f2f5e9" fill-opacity="0.5" stroke="#606060" stroke-width="1.0"/>
           <path id="arrow"
             d="M 11.500037,31.436501 C 11.940474,20.09759 22.043105,11.32322 32.158766,21.979434 L 37.068811,17.246167 C 37.068811,17.246167 37.088388,32 37.088388,32 L 22.160133,31.978069 C 22.160133,31.978069 26.997745,27.140456 26.997745,27.140456 C 18.528582,18.264221 13.291696,25.230495 11.500037,31.436501 z"
             style="fill:#404040;"/>
          </a>
         </g>
        </svg>
</svg>
