<?xml version="1.0" encoding="UTF-8" standalone="no"?>
<!DOCTYPE svg PUBLIC "-//W3C//DTD SVG 1.1//EN"
 "http://www.w3.org/Graphics/SVG/1.1/DTD/svg11.dtd">
<!-- Generated by graphviz version 7.0.5 (20221223.1930)
 -->
<!-- Title: include/JSystem/J3DGraphAnimator/J3DMtxBuffer.h Pages: 1 -->
<!--zoomable 445 -->
<svg id="main" version="1.1" xmlns="http://www.w3.org/2000/svg" xmlns:xlink="http://www.w3.org/1999/xlink" xml:space="preserve" onload="init(evt)">
<style type="text/css"><![CDATA[
.edge:hover path { stroke: red; }
.edge:hover polygon { stroke: red; fill: red; }
]]></style>
<script type="text/javascript"><![CDATA[
var edges = document.getElementsByTagName('g');
if (edges && edges.length) {
  for (var i=0;i<edges.length;i++) {
    if (edges[i].id.substr(0,4)=='edge') {
      edges[i].setAttribute('class','edge');
    }
  }
}
]]></script>
        <defs>
                <circle id="rim" cx="0" cy="0" r="7"/>
                <circle id="rim2" cx="0" cy="0" r="3.5"/>
                <g id="zoomPlus">
                        <use xlink:href="#rim" fill="#404040">
                                <set attributeName="fill" to="#808080" begin="zoomplus.mouseover" end="zoomplus.mouseout"/>
                        </use>
                        <path d="M-4,0h8M0,-4v8" fill="none" stroke="white" stroke-width="1.5" pointer-events="none"/>
                </g>
                <g id="zoomMin">
                        <use xlink:href="#rim" fill="#404040">
                                <set attributeName="fill" to="#808080" begin="zoomminus.mouseover" end="zoomminus.mouseout"/>
                        </use>
                        <path d="M-4,0h8" fill="none" stroke="white" stroke-width="1.5" pointer-events="none"/>
                </g>
                <g id="dirArrow">
                        <path fill="none" stroke="white" stroke-width="1.5" d="M0,-3.0v7 M-2.5,-0.5L0,-3.0L2.5,-0.5"/>
                </g>
               <g id="resetDef">
                       <use xlink:href="#rim2" fill="#404040">
                               <set attributeName="fill" to="#808080" begin="reset.mouseover" end="reset.mouseout"/>
                       </use>
               </g>
        </defs>

<script type="text/javascript">
var viewWidth = 3245;
var viewHeight = 445;
var sectionId = 'dynsection-1';
</script>
<script xlink:href="svgpan.js"/>
<svg id="graph" class="graph">
<g id="viewport">
<title>include/JSystem/J3DGraphAnimator/J3DMtxBuffer.h</title>
<!-- Node1 -->
<g id="node1" class="node">
<title>Node1</title>
<g id="a_node1"><a xlink:title=" ">
<polygon fill="#999999" stroke="#666666" points="2622.5,-437 2487.5,-437 2487.5,-407 2622.5,-407 2622.5,-437"/>
<text text-anchor="start" x="2495.5" y="-425" font-family="Helvetica,sans-Serif" font-size="10.00">include/JSystem/J3DGraph</text>
<text text-anchor="middle" x="2555" y="-414" font-family="Helvetica,sans-Serif" font-size="10.00">Animator/J3DMtxBuffer.h</text>
</a>
</g>
</g>
<!-- Node2 -->
<g id="node2" class="node">
<title>Node2</title>
<g id="a_node2"><a xlink:href="J3DSkinDeform_8h.html" target="_top" xlink:title=" ">
<polygon fill="white" stroke="#666666" points="2540.5,-371 2405.5,-371 2405.5,-341 2540.5,-341 2540.5,-371"/>
<text text-anchor="start" x="2413.5" y="-359" font-family="Helvetica,sans-Serif" font-size="10.00">include/JSystem/J3DGraph</text>
<text text-anchor="middle" x="2473" y="-348" font-family="Helvetica,sans-Serif" font-size="10.00">Animator/J3DSkinDeform.h</text>
</a>
</g>
</g>
<!-- Node1&#45;&gt;Node2 -->
<g id="edge1" class="edge">
<title>Node1&#45;&gt;Node2</title>
<path fill="none" stroke="#63b8ff" d="M2528.06,-399.97C2516.06,-390.61 2502.23,-379.81 2491.43,-371.39"/>
<polygon fill="#63b8ff" stroke="#63b8ff" points="2525.57,-402.47 2535.61,-405.87 2529.88,-396.95 2525.57,-402.47"/>
</g>
<!-- Node494 -->
<g id="node50" class="node">
<title>Node494</title>
<g id="a_node50"><a xlink:href="J3DMtxBuffer_8cpp.html" target="_top" xlink:title=" ">
<polygon fill="white" stroke="#666666" points="2717,-371 2559,-371 2559,-341 2717,-341 2717,-371"/>
<text text-anchor="start" x="2567" y="-359" font-family="Helvetica,sans-Serif" font-size="10.00">libs/JSystem/J3DGraphAnimator</text>
<text text-anchor="middle" x="2638" y="-348" font-family="Helvetica,sans-Serif" font-size="10.00">/J3DMtxBuffer.cpp</text>
</a>
</g>
</g>
<!-- Node1&#45;&gt;Node494 -->
<g id="edge54" class="edge">
<title>Node1&#45;&gt;Node494</title>
<path fill="none" stroke="#63b8ff" d="M2582.27,-399.97C2594.42,-390.61 2608.42,-379.81 2619.34,-371.39"/>
<polygon fill="#63b8ff" stroke="#63b8ff" points="2580.4,-396.99 2574.62,-405.87 2584.68,-402.54 2580.4,-396.99"/>
</g>
<!-- Node3 -->
<g id="node3" class="node">
<title>Node3</title>
<g id="a_node3"><a xlink:href="J3DModel_8h.html" target="_top" xlink:title=" ">
<polygon fill="white" stroke="#666666" points="2492.5,-305 2357.5,-305 2357.5,-275 2492.5,-275 2492.5,-305"/>
<text text-anchor="start" x="2365.5" y="-293" font-family="Helvetica,sans-Serif" font-size="10.00">include/JSystem/J3DGraph</text>
<text text-anchor="middle" x="2425" y="-282" font-family="Helvetica,sans-Serif" font-size="10.00">Animator/J3DModel.h</text>
</a>
</g>
</g>
<!-- Node2&#45;&gt;Node3 -->
<g id="edge2" class="edge">
<title>Node2&#45;&gt;Node3</title>
<path fill="none" stroke="#63b8ff" d="M2455.51,-331.68C2448.85,-322.79 2441.46,-312.95 2435.62,-305.16"/>
<polygon fill="#63b8ff" stroke="#63b8ff" points="2452.64,-333.69 2461.44,-339.59 2458.24,-329.49 2452.64,-333.69"/>
</g>
<!-- Node487 -->
<g id="node43" class="node">
<title>Node487</title>
<g id="a_node43"><a xlink:href="J3DCluster_8cpp.html" target="_top" xlink:title=" ">
<polygon fill="white" stroke="#666666" points="1462,-239 1304,-239 1304,-209 1462,-209 1462,-239"/>
<text text-anchor="start" x="1312" y="-227" font-family="Helvetica,sans-Serif" font-size="10.00">libs/JSystem/J3DGraphAnimator</text>
<text text-anchor="middle" x="1383" y="-216" font-family="Helvetica,sans-Serif" font-size="10.00">/J3DCluster.cpp</text>
</a>
</g>
</g>
<!-- Node2&#45;&gt;Node487 -->
<g id="edge51" class="edge">
<title>Node2&#45;&gt;Node487</title>
<path fill="none" stroke="#63b8ff" d="M2393.84,-346.99C2224.33,-329.59 1813.79,-286.09 1471,-239 1468.09,-238.6 1465.12,-238.18 1462.13,-237.75"/>
<polygon fill="#63b8ff" stroke="#63b8ff" points="2393.33,-350.46 2403.63,-348 2394.04,-343.49 2393.33,-350.46"/>
</g>
<!-- Node490 -->
<g id="node46" class="node">
<title>Node490</title>
<g id="a_node46"><a xlink:href="J3DSkinDeform_8cpp.html" target="_top" xlink:title=" ">
<polygon fill="white" stroke="#666666" points="3070,-239 2912,-239 2912,-209 3070,-209 3070,-239"/>
<text text-anchor="start" x="2920" y="-227" font-family="Helvetica,sans-Serif" font-size="10.00">libs/JSystem/J3DGraphAnimator</text>
<text text-anchor="middle" x="2991" y="-216" font-family="Helvetica,sans-Serif" font-size="10.00">/J3DSkinDeform.cpp</text>
</a>
</g>
</g>
<!-- Node2&#45;&gt;Node490 -->
<g id="edge52" class="edge">
<title>Node2&#45;&gt;Node490</title>
<path fill="none" stroke="#63b8ff" d="M2486.22,-331.17C2497.98,-312.47 2517.02,-287.57 2541,-275 2612.6,-237.47 2822.82,-249.36 2903,-239 2905.92,-238.62 2908.88,-238.23 2911.88,-237.81"/>
<polygon fill="#63b8ff" stroke="#63b8ff" points="2483.36,-329.13 2481.22,-339.51 2489.37,-332.73 2483.36,-329.13"/>
</g>
<!-- Node493 -->
<g id="node49" class="node">
<title>Node493</title>
<g id="a_node49"><a xlink:href="J3DClusterLoader_8cpp.html" target="_top" xlink:title=" ">
<polygon fill="white" stroke="#666666" points="2698.5,-305 2549.5,-305 2549.5,-275 2698.5,-275 2698.5,-305"/>
<text text-anchor="start" x="2557.5" y="-293" font-family="Helvetica,sans-Serif" font-size="10.00">libs/JSystem/J3DGraphLoader</text>
<text text-anchor="middle" x="2624" y="-282" font-family="Helvetica,sans-Serif" font-size="10.00">/J3DClusterLoader.cpp</text>
</a>
</g>
</g>
<!-- Node2&#45;&gt;Node493 -->
<g id="edge53" class="edge">
<title>Node2&#45;&gt;Node493</title>
<path fill="none" stroke="#63b8ff" d="M2517.18,-336.27C2540.41,-326.43 2568.44,-314.55 2589.96,-305.43"/>
<polygon fill="#63b8ff" stroke="#63b8ff" points="2516.12,-332.92 2508.28,-340.05 2518.85,-339.37 2516.12,-332.92"/>
</g>
<!-- Node4 -->
<g id="node4" class="node">
<title>Node4</title>
<g id="a_node4"><a xlink:href="d__jnt__col_8h.html" target="_top" xlink:title=" ">
<polygon fill="white" stroke="#666666" points="3045.5,-167.5 2940.5,-167.5 2940.5,-148.5 3045.5,-148.5 3045.5,-167.5"/>
<text text-anchor="middle" x="2993" y="-155.5" font-family="Helvetica,sans-Serif" font-size="10.00">include/d/d_jnt_col.h</text>
</a>
</g>
</g>
<!-- Node3&#45;&gt;Node4 -->
<g id="edge3" class="edge">
<title>Node3&#45;&gt;Node4</title>
<path fill="none" stroke="#63b8ff" d="M2504.2,-274.76C2613.84,-258.66 2650.39,-281.45 2749,-239 2768.76,-230.49 2767.65,-218.42 2787,-209 2794.57,-205.31 2896.58,-181.35 2954.15,-167.98"/>
<polygon fill="#63b8ff" stroke="#63b8ff" points="2503.84,-271.28 2494.49,-276.27 2504.91,-278.19 2503.84,-271.28"/>
</g>
<!-- Node23 -->
<g id="node18" class="node">
<title>Node23</title>
<g id="a_node18"><a xlink:href="d__simple__model_8h.html" target="_top" xlink:title=" ">
<polygon fill="white" stroke="#666666" points="2894,-239 2796,-239 2796,-209 2894,-209 2894,-239"/>
<text text-anchor="start" x="2804" y="-227" font-family="Helvetica,sans-Serif" font-size="10.00">include/d/d_simple</text>
<text text-anchor="middle" x="2845" y="-216" font-family="Helvetica,sans-Serif" font-size="10.00">_model.h</text>
</a>
</g>
</g>
<!-- Node3&#45;&gt;Node23 -->
<g id="edge18" class="edge">
<title>Node3&#45;&gt;Node23</title>
<path fill="none" stroke="#63b8ff" d="M2503.98,-275.46C2504.99,-275.3 2506,-275.15 2507,-275 2628.89,-256.62 2660.61,-260.39 2782,-239 2786.41,-238.22 2790.99,-237.35 2795.56,-236.42"/>
<polygon fill="#63b8ff" stroke="#63b8ff" points="2503.81,-271.94 2494.48,-276.95 2504.9,-278.86 2503.81,-271.94"/>
</g>
<!-- Node25 -->
<g id="node20" class="node">
<title>Node25</title>
<g id="a_node20"><a xlink:href="m__Do__ext_8h.html" target="_top" xlink:title=" ">
<polygon fill="white" stroke="#666666" points="1610,-233.5 1480,-233.5 1480,-214.5 1610,-214.5 1610,-233.5"/>
<text text-anchor="middle" x="1545" y="-221.5" font-family="Helvetica,sans-Serif" font-size="10.00">include/m_Do/m_Do_ext.h</text>
</a>
</g>
</g>
<!-- Node3&#45;&gt;Node25 -->
<g id="edge21" class="edge">
<title>Node3&#45;&gt;Node25</title>
<path fill="none" stroke="#63b8ff" d="M2345.81,-283.24C2173.84,-270.73 1768.95,-241.29 1610.35,-229.75"/>
<polygon fill="#63b8ff" stroke="#63b8ff" points="2345.31,-286.71 2355.54,-283.95 2345.82,-279.73 2345.31,-286.71"/>
</g>
<!-- Node463 -->
<g id="node42" class="node">
<title>Node463</title>
<g id="a_node42"><a xlink:href="d__a__obj__bed_8h.html" target="_top" xlink:title=" ">
<polygon fill="white" stroke="#666666" points="2068,-239 1928,-239 1928,-209 2068,-209 2068,-239"/>
<text text-anchor="start" x="1936" y="-227" font-family="Helvetica,sans-Serif" font-size="10.00">include/rel/d/a/obj</text>
<text text-anchor="middle" x="1998" y="-216" font-family="Helvetica,sans-Serif" font-size="10.00">/d_a_obj_bed/d_a_obj_bed.h</text>
</a>
</g>
</g>
<!-- Node3&#45;&gt;Node463 -->
<g id="edge44" class="edge">
<title>Node3&#45;&gt;Node463</title>
<path fill="none" stroke="#63b8ff" d="M2346.19,-278.43C2275.59,-268.77 2169.25,-253.8 2077,-239 2074.11,-238.54 2071.17,-238.06 2068.19,-237.56"/>
<polygon fill="#63b8ff" stroke="#63b8ff" points="2345.33,-281.84 2355.71,-279.72 2346.28,-274.9 2345.33,-281.84"/>
</g>
<!-- Node3&#45;&gt;Node487 -->
<g id="edge45" class="edge">
<title>Node3&#45;&gt;Node487</title>
<path fill="none" stroke="#63b8ff" d="M2345.68,-285.92C2148.49,-278.1 1639.79,-256.8 1471,-239 1468.08,-238.69 1465.1,-238.35 1462.1,-237.99"/>
<polygon fill="#63b8ff" stroke="#63b8ff" points="2345.45,-289.42 2355.58,-286.31 2345.73,-282.42 2345.45,-289.42"/>
</g>
<!-- Node488 -->
<g id="node44" class="node">
<title>Node488</title>
<g id="a_node44"><a xlink:href="J3DJoint_8cpp.html" target="_top" xlink:title=" ">
<polygon fill="white" stroke="#666666" points="2244,-239 2086,-239 2086,-209 2244,-209 2244,-239"/>
<text text-anchor="start" x="2094" y="-227" font-family="Helvetica,sans-Serif" font-size="10.00">libs/JSystem/J3DGraphAnimator</text>
<text text-anchor="middle" x="2165" y="-216" font-family="Helvetica,sans-Serif" font-size="10.00">/J3DJoint.cpp</text>
</a>
</g>
</g>
<!-- Node3&#45;&gt;Node488 -->
<g id="edge46" class="edge">
<title>Node3&#45;&gt;Node488</title>
<path fill="none" stroke="#63b8ff" d="M2355.28,-271.84C2314.08,-261.7 2262.52,-249 2223.46,-239.39"/>
<polygon fill="#63b8ff" stroke="#63b8ff" points="2354.31,-275.2 2364.86,-274.2 2355.98,-268.41 2354.31,-275.2"/>
</g>
<!-- Node489 -->
<g id="node45" class="node">
<title>Node489</title>
<g id="a_node45"><a xlink:href="J3DModel_8cpp.html" target="_top" xlink:title=" ">
<polygon fill="white" stroke="#666666" points="2420,-239 2262,-239 2262,-209 2420,-209 2420,-239"/>
<text text-anchor="start" x="2270" y="-227" font-family="Helvetica,sans-Serif" font-size="10.00">libs/JSystem/J3DGraphAnimator</text>
<text text-anchor="middle" x="2341" y="-216" font-family="Helvetica,sans-Serif" font-size="10.00">/J3DModel.cpp</text>
</a>
</g>
</g>
<!-- Node3&#45;&gt;Node489 -->
<g id="edge47" class="edge">
<title>Node3&#45;&gt;Node489</title>
<path fill="none" stroke="#63b8ff" d="M2397.4,-267.97C2385.11,-258.61 2370.94,-247.81 2359.88,-239.39"/>
<polygon fill="#63b8ff" stroke="#63b8ff" points="2395.08,-270.6 2405.15,-273.88 2399.32,-265.03 2395.08,-270.6"/>
</g>
<!-- Node3&#45;&gt;Node490 -->
<g id="edge48" class="edge">
<title>Node3&#45;&gt;Node490</title>
<path fill="none" stroke="#63b8ff" d="M2503.97,-275.4C2504.99,-275.27 2506,-275.13 2507,-275 2682.24,-252.11 2727.64,-260.9 2903,-239 2905.92,-238.64 2908.89,-238.25 2911.88,-237.84"/>
<polygon fill="#63b8ff" stroke="#63b8ff" points="2503.85,-271.88 2494.45,-276.76 2504.84,-278.81 2503.85,-271.88"/>
</g>
<!-- Node491 -->
<g id="node47" class="node">
<title>Node491</title>
<g id="a_node47"><a xlink:href="J3DPacket_8cpp.html" target="_top" xlink:title=" ">
<polygon fill="white" stroke="#666666" points="2580,-239 2438,-239 2438,-209 2580,-209 2580,-239"/>
<text text-anchor="start" x="2446" y="-227" font-family="Helvetica,sans-Serif" font-size="10.00">libs/JSystem/J3DGraphBase</text>
<text text-anchor="middle" x="2509" y="-216" font-family="Helvetica,sans-Serif" font-size="10.00">/J3DPacket.cpp</text>
</a>
</g>
</g>
<!-- Node3&#45;&gt;Node491 -->
<g id="edge49" class="edge">
<title>Node3&#45;&gt;Node491</title>
<path fill="none" stroke="#63b8ff" d="M2452.6,-267.97C2464.89,-258.61 2479.06,-247.81 2490.12,-239.39"/>
<polygon fill="#63b8ff" stroke="#63b8ff" points="2450.68,-265.03 2444.85,-273.88 2454.92,-270.6 2450.68,-265.03"/>
</g>
<!-- Node492 -->
<g id="node48" class="node">
<title>Node492</title>
<g id="a_node48"><a xlink:href="J3DShapeMtx_8cpp.html" target="_top" xlink:title=" ">
<polygon fill="white" stroke="#666666" points="2740,-239 2598,-239 2598,-209 2740,-209 2740,-239"/>
<text text-anchor="start" x="2606" y="-227" font-family="Helvetica,sans-Serif" font-size="10.00">libs/JSystem/J3DGraphBase</text>
<text text-anchor="middle" x="2669" y="-216" font-family="Helvetica,sans-Serif" font-size="10.00">/J3DShapeMtx.cpp</text>
</a>
</g>
</g>
<!-- Node3&#45;&gt;Node492 -->
<g id="edge50" class="edge">
<title>Node3&#45;&gt;Node492</title>
<path fill="none" stroke="#63b8ff" d="M2491.18,-271.64C2529.71,-261.53 2577.72,-248.94 2614.14,-239.39"/>
<polygon fill="#63b8ff" stroke="#63b8ff" points="2490.31,-268.25 2481.53,-274.17 2492.09,-275.02 2490.31,-268.25"/>
</g>
<!-- Node5 -->
<g id="node5" class="node">
<title>Node5</title>
<g id="a_node5"><a xlink:href="d__a__alink_8h.html" target="_top" xlink:title=" ">
<polygon fill="#fff0f0" stroke="red" points="2592,-96 2476,-96 2476,-77 2592,-77 2592,-96"/>
<text text-anchor="middle" x="2534" y="-84" font-family="Helvetica,sans-Serif" font-size="10.00">include/d/a/d_a_alink.h</text>
</a>
</g>
</g>
<!-- Node4&#45;&gt;Node5 -->
<g id="edge4" class="edge">
<title>Node4&#45;&gt;Node5</title>
<path fill="none" stroke="#63b8ff" d="M2944.5,-145.64C2939.95,-144.7 2935.39,-143.8 2931,-143 2867.24,-131.37 2686.12,-107.28 2592.16,-95.02"/>
<polygon fill="#63b8ff" stroke="#63b8ff" points="2943.74,-149.06 2954.25,-147.74 2945.21,-142.22 2943.74,-149.06"/>
</g>
<!-- Node18 -->
<g id="node15" class="node">
<title>Node18</title>
<g id="a_node15"><a xlink:href="d__a__obj__carry_8h.html" target="_top" xlink:title=" ">
<polygon fill="#fff0f0" stroke="red" points="3051,-107 2935,-107 2935,-66 3051,-66 3051,-107"/>
<text text-anchor="start" x="2943" y="-95" font-family="Helvetica,sans-Serif" font-size="10.00">include/rel/d/a/obj</text>
<text text-anchor="start" x="2943" y="-84" font-family="Helvetica,sans-Serif" font-size="10.00">/d_a_obj_carry/d_a_obj</text>
<text text-anchor="middle" x="2993" y="-73" font-family="Helvetica,sans-Serif" font-size="10.00">_carry.h</text>
</a>
</g>
</g>
<!-- Node4&#45;&gt;Node18 -->
<g id="edge14" class="edge">
<title>Node4&#45;&gt;Node18</title>
<path fill="none" stroke="#63b8ff" d="M2993,-136.89C2993,-127.59 2993,-116.56 2993,-107.29"/>
<polygon fill="#63b8ff" stroke="#63b8ff" points="2989.5,-136.68 2993,-146.68 2996.5,-136.68 2989.5,-136.68"/>
</g>
<!-- Node21 -->
<g id="node16" class="node">
<title>Node21</title>
<g id="a_node16"><a xlink:href="d__cc__s_8cpp.html" target="_top" xlink:title=" ">
<polygon fill="white" stroke="#666666" points="2801,-96 2697,-96 2697,-77 2801,-77 2801,-96"/>
<text text-anchor="middle" x="2749" y="-84" font-family="Helvetica,sans-Serif" font-size="10.00">src/d/cc/d_cc_s.cpp</text>
</a>
</g>
</g>
<!-- Node4&#45;&gt;Node21 -->
<g id="edge16" class="edge">
<title>Node4&#45;&gt;Node21</title>
<path fill="none" stroke="#63b8ff" d="M2947.51,-145.15C2910.39,-135.34 2856.65,-120.82 2810,-107 2798.91,-103.72 2786.77,-99.88 2776.25,-96.49"/>
<polygon fill="#63b8ff" stroke="#63b8ff" points="2946.45,-148.49 2957.01,-147.65 2948.23,-141.72 2946.45,-148.49"/>
</g>
<!-- Node22 -->
<g id="node17" class="node">
<title>Node22</title>
<g id="a_node17"><a xlink:href="d__jnt__col_8cpp.html" target="_top" xlink:title=" ">
<polygon fill="white" stroke="#666666" points="2917,-96 2819,-96 2819,-77 2917,-77 2917,-96"/>
<text text-anchor="middle" x="2868" y="-84" font-family="Helvetica,sans-Serif" font-size="10.00">src/d/d_jnt_col.cpp</text>
</a>
</g>
</g>
<!-- Node4&#45;&gt;Node22 -->
<g id="edge17" class="edge">
<title>Node4&#45;&gt;Node22</title>
<path fill="none" stroke="#63b8ff" d="M2967.01,-142.55C2942.01,-128.65 2904.99,-108.07 2884.02,-96.41"/>
<polygon fill="#63b8ff" stroke="#63b8ff" points="2965.15,-145.52 2975.59,-147.32 2968.55,-139.4 2965.15,-145.52"/>
</g>
<!-- Node6 -->
<g id="node6" class="node">
<title>Node6</title>
<g id="a_node6"><a xlink:href="d__a__alink_8cpp.html" target="_top" xlink:title=" ">
<polygon fill="white" stroke="#666666" points="3027.5,-24.5 2918.5,-24.5 2918.5,-5.5 3027.5,-5.5 3027.5,-24.5"/>
<text text-anchor="middle" x="2973" y="-12.5" font-family="Helvetica,sans-Serif" font-size="10.00">src/d/a/d_a_alink.cpp</text>
</a>
</g>
</g>
<!-- Node5&#45;&gt;Node6 -->
<g id="edge5" class="edge">
<title>Node5&#45;&gt;Node6</title>
<path fill="none" stroke="#63b8ff" d="M2603.57,-76.65C2679.03,-66.72 2802.94,-49.43 2909,-30 2917.17,-28.5 2925.88,-26.72 2934.16,-24.94"/>
<polygon fill="#63b8ff" stroke="#63b8ff" points="2603.3,-73.16 2593.84,-77.93 2604.21,-80.1 2603.3,-73.16"/>
</g>
<!-- Node7 -->
<g id="node7" class="node">
<title>Node7</title>
<g id="a_node7"><a xlink:href="d__a__player_8cpp.html" target="_top" xlink:title=" ">
<polygon fill="white" stroke="#666666" points="2043,-24.5 1929,-24.5 1929,-5.5 2043,-5.5 2043,-24.5"/>
<text text-anchor="middle" x="1986" y="-12.5" font-family="Helvetica,sans-Serif" font-size="10.00">src/d/a/d_a_player.cpp</text>
</a>
</g>
</g>
<!-- Node5&#45;&gt;Node7 -->
<g id="edge6" class="edge">
<title>Node5&#45;&gt;Node7</title>
<path fill="none" stroke="#63b8ff" d="M2464.16,-79.54C2370.15,-71.05 2197.84,-53.81 2052,-30 2043.33,-28.58 2034.08,-26.8 2025.32,-24.98"/>
<polygon fill="#63b8ff" stroke="#63b8ff" points="2463.73,-83.02 2474,-80.43 2464.36,-76.05 2463.73,-83.02"/>
</g>
<!-- Node8 -->
<g id="node8" class="node">
<title>Node8</title>
<g id="a_node8"><a xlink:href="d__com__inf__game_8cpp.html" target="_top" xlink:title=" ">
<polygon fill="white" stroke="#666666" points="3154,-30 3046,-30 3046,0 3154,0 3154,-30"/>
<text text-anchor="start" x="3054" y="-18" font-family="Helvetica,sans-Serif" font-size="10.00">src/d/com/d_com_inf</text>
<text text-anchor="middle" x="3100" y="-7" font-family="Helvetica,sans-Serif" font-size="10.00">_game.cpp</text>
</a>
</g>
</g>
<!-- Node5&#45;&gt;Node8 -->
<g id="edge7" class="edge">
<title>Node5&#45;&gt;Node8</title>
<path fill="none" stroke="#63b8ff" d="M2603.53,-76.35C2629.96,-72.96 2660.36,-69.18 2688,-66 2842.92,-48.2 2883.08,-54.96 3037,-30 3039.88,-29.53 3042.82,-29.02 3045.78,-28.47"/>
<polygon fill="#63b8ff" stroke="#63b8ff" points="2603.44,-72.83 2593.96,-77.58 2604.33,-79.77 2603.44,-72.83"/>
</g>
<!-- Node9 -->
<g id="node9" class="node">
<title>Node9</title>
<g id="a_node9"><a xlink:href="d__camera_8cpp.html" target="_top" xlink:title=" ">
<polygon fill="white" stroke="#666666" points="2163,-24.5 2061,-24.5 2061,-5.5 2163,-5.5 2163,-24.5"/>
<text text-anchor="middle" x="2112" y="-12.5" font-family="Helvetica,sans-Serif" font-size="10.00">src/d/d_camera.cpp</text>
</a>
</g>
</g>
<!-- Node5&#45;&gt;Node9 -->
<g id="edge8" class="edge">
<title>Node5&#45;&gt;Node9</title>
<path fill="none" stroke="#63b8ff" d="M2464.44,-76.46C2391.35,-66.58 2273.18,-49.53 2172,-30 2164.33,-28.52 2156.16,-26.75 2148.39,-24.97"/>
<polygon fill="#63b8ff" stroke="#63b8ff" points="2463.89,-79.92 2474.27,-77.78 2464.82,-72.98 2463.89,-79.92"/>
</g>
<!-- Node10 -->
<g id="node10" class="node">
<title>Node10</title>
<g id="a_node10"><a xlink:href="d__ev__camera_8cpp.html" target="_top" xlink:title=" ">
<polygon fill="white" stroke="#666666" points="2299,-24.5 2181,-24.5 2181,-5.5 2299,-5.5 2299,-24.5"/>
<text text-anchor="middle" x="2240" y="-12.5" font-family="Helvetica,sans-Serif" font-size="10.00">src/d/d_ev_camera.cpp</text>
</a>
</g>
</g>
<!-- Node5&#45;&gt;Node10 -->
<g id="edge9" class="edge">
<title>Node5&#45;&gt;Node10</title>
<path fill="none" stroke="#63b8ff" d="M2485.03,-73.92C2426.7,-60.13 2330.53,-37.4 2277.69,-24.91"/>
<polygon fill="#63b8ff" stroke="#63b8ff" points="2484.16,-77.31 2494.69,-76.21 2485.77,-70.5 2484.16,-77.31"/>
</g>
<!-- Node11 -->
<g id="node11" class="node">
<title>Node11</title>
<g id="a_node11"><a xlink:href="d__event_8cpp.html" target="_top" xlink:title=" ">
<polygon fill="white" stroke="#666666" points="2438.5,-24.5 2317.5,-24.5 2317.5,-5.5 2438.5,-5.5 2438.5,-24.5"/>
<text text-anchor="middle" x="2378" y="-12.5" font-family="Helvetica,sans-Serif" font-size="10.00">src/d/event/d_event.cpp</text>
</a>
</g>
</g>
<!-- Node5&#45;&gt;Node11 -->
<g id="edge10" class="edge">
<title>Node5&#45;&gt;Node11</title>
<path fill="none" stroke="#63b8ff" d="M2503.64,-71.97C2472.44,-58.07 2424.75,-36.83 2398,-24.91"/>
<polygon fill="#63b8ff" stroke="#63b8ff" points="2501.98,-75.07 2512.54,-75.94 2504.83,-68.67 2501.98,-75.07"/>
</g>
<!-- Node12 -->
<g id="node12" class="node">
<title>Node12</title>
<g id="a_node12"><a xlink:href="d__menu__collect_8cpp.html" target="_top" xlink:title=" ">
<polygon fill="white" stroke="#666666" points="2611.5,-24.5 2456.5,-24.5 2456.5,-5.5 2611.5,-5.5 2611.5,-24.5"/>
<text text-anchor="middle" x="2534" y="-12.5" font-family="Helvetica,sans-Serif" font-size="10.00">src/d/menu/d_menu_collect.cpp</text>
</a>
</g>
</g>
<!-- Node5&#45;&gt;Node12 -->
<g id="edge11" class="edge">
<title>Node5&#45;&gt;Node12</title>
<path fill="none" stroke="#63b8ff" d="M2534,-65.3C2534,-51.94 2534,-35.09 2534,-24.95"/>
<polygon fill="#63b8ff" stroke="#63b8ff" points="2530.5,-65.18 2534,-75.18 2537.5,-65.18 2530.5,-65.18"/>
</g>
<!-- Node13 -->
<g id="node13" class="node">
<title>Node13</title>
<g id="a_node13"><a xlink:href="d__menu__ring_8cpp.html" target="_top" xlink:title=" ">
<polygon fill="white" stroke="#666666" points="2772,-24.5 2630,-24.5 2630,-5.5 2772,-5.5 2772,-24.5"/>
<text text-anchor="middle" x="2701" y="-12.5" font-family="Helvetica,sans-Serif" font-size="10.00">src/d/menu/d_menu_ring.cpp</text>
</a>
</g>
</g>
<!-- Node5&#45;&gt;Node13 -->
<g id="edge12" class="edge">
<title>Node5&#45;&gt;Node13</title>
<path fill="none" stroke="#63b8ff" d="M2566.07,-72.15C2599.46,-58.26 2650.83,-36.88 2679.59,-24.91"/>
<polygon fill="#63b8ff" stroke="#63b8ff" points="2564.78,-68.9 2556.89,-75.97 2567.47,-75.36 2564.78,-68.9"/>
</g>
<!-- Node14 -->
<g id="node14" class="node">
<title>Node14</title>
<g id="a_node14"><a xlink:href="d__meter2__draw_8cpp.html" target="_top" xlink:title=" ">
<polygon fill="white" stroke="#666666" points="2900,-30 2790,-30 2790,0 2900,0 2900,-30"/>
<text text-anchor="start" x="2798" y="-18" font-family="Helvetica,sans-Serif" font-size="10.00">src/d/meter/d_meter2</text>
<text text-anchor="middle" x="2845" y="-7" font-family="Helvetica,sans-Serif" font-size="10.00">_draw.cpp</text>
</a>
</g>
</g>
<!-- Node5&#45;&gt;Node14 -->
<g id="edge13" class="edge">
<title>Node5&#45;&gt;Node14</title>
<path fill="none" stroke="#63b8ff" d="M2585.16,-74.07C2641.48,-61.48 2731.72,-41.31 2789.66,-28.37"/>
<polygon fill="#63b8ff" stroke="#63b8ff" points="2584.49,-70.63 2575.5,-76.23 2586.02,-77.46 2584.49,-70.63"/>
</g>
<!-- Node18&#45;&gt;Node6 -->
<g id="edge15" class="edge">
<title>Node18&#45;&gt;Node6</title>
<path fill="none" stroke="#63b8ff" d="M2984.16,-54.78C2981.02,-43.87 2977.73,-32.42 2975.54,-24.82"/>
<polygon fill="#63b8ff" stroke="#63b8ff" points="2980.77,-55.67 2986.9,-64.32 2987.5,-53.74 2980.77,-55.67"/>
</g>
<!-- Node23&#45;&gt;Node8 -->
<g id="edge19" class="edge">
<title>Node23&#45;&gt;Node8</title>
<path fill="none" stroke="#63b8ff" d="M2905.22,-208.72C2973.9,-195.42 3007.23,-218.59 3055,-173 3095.82,-134.04 3100.37,-60.78 3100.37,-30.09"/>
<polygon fill="#63b8ff" stroke="#63b8ff" points="2904.87,-205.21 2895.84,-210.75 2906.35,-212.06 2904.87,-205.21"/>
</g>
<!-- Node24 -->
<g id="node19" class="node">
<title>Node24</title>
<g id="a_node19"><a xlink:href="d__simple__model_8cpp.html" target="_top" xlink:title=" ">
<polygon fill="white" stroke="#666666" points="3237,-167.5 3107,-167.5 3107,-148.5 3237,-148.5 3237,-167.5"/>
<text text-anchor="middle" x="3172" y="-155.5" font-family="Helvetica,sans-Serif" font-size="10.00">src/d/d_simple_model.cpp</text>
</a>
</g>
</g>
<!-- Node23&#45;&gt;Node24 -->
<g id="edge20" class="edge">
<title>Node23&#45;&gt;Node24</title>
<path fill="none" stroke="#63b8ff" d="M2905.34,-208.59C2959.04,-197.51 3060.51,-179.04 3121.87,-167.99"/>
<polygon fill="#63b8ff" stroke="#63b8ff" points="2904.87,-205.11 2895.8,-210.6 2906.31,-211.96 2904.87,-205.11"/>
</g>
<!-- Node26 -->
<g id="node21" class="node">
<title>Node26</title>
<g id="a_node21"><a xlink:href="d__attention_8h.html" target="_top" xlink:title=" ">
<polygon fill="#fff0f0" stroke="red" points="114,-167.5 0,-167.5 0,-148.5 114,-148.5 114,-167.5"/>
<text text-anchor="middle" x="57" y="-155.5" font-family="Helvetica,sans-Serif" font-size="10.00">include/d/d_attention.h</text>
</a>
</g>
</g>
<!-- Node25&#45;&gt;Node26 -->
<g id="edge22" class="edge">
<title>Node25&#45;&gt;Node26</title>
<path fill="none" stroke="#63b8ff" d="M1492.79,-212.04C1485.5,-210.83 1478.08,-209.76 1471,-209 875.09,-145.09 718.17,-243.47 123,-173 113.35,-171.86 103.01,-169.98 93.46,-167.97"/>
<polygon fill="#63b8ff" stroke="#63b8ff" points="1492.13,-215.48 1502.59,-213.78 1493.35,-208.59 1492.13,-215.48"/>
</g>
<!-- Node258 -->
<g id="node22" class="node">
<title>Node258</title>
<g id="a_node22"><a xlink:href="d__drawlist_8h.html" target="_top" xlink:title=" ">
<polygon fill="#fff0f0" stroke="red" points="242,-167.5 132,-167.5 132,-148.5 242,-148.5 242,-167.5"/>
<text text-anchor="middle" x="187" y="-155.5" font-family="Helvetica,sans-Serif" font-size="10.00">include/d/d_drawlist.h</text>
</a>
</g>
</g>
<!-- Node25&#45;&gt;Node258 -->
<g id="edge24" class="edge">
<title>Node25&#45;&gt;Node258</title>
<path fill="none" stroke="#63b8ff" d="M1492.79,-212.06C1485.5,-210.85 1478.08,-209.77 1471,-209 931.72,-150.4 789.4,-239.25 251,-173 241.63,-171.85 231.61,-169.97 222.34,-167.96"/>
<polygon fill="#63b8ff" stroke="#63b8ff" points="1492.13,-215.5 1502.58,-213.8 1493.35,-208.61 1492.13,-215.5"/>
</g>
<!-- Node307 -->
<g id="node23" class="node">
<title>Node307</title>
<g id="a_node23"><a xlink:href="d__ky__thunder_8h.html" target="_top" xlink:title=" ">
<polygon fill="#fff0f0" stroke="red" points="384,-167.5 260,-167.5 260,-148.5 384,-148.5 384,-167.5"/>
<text text-anchor="middle" x="322" y="-155.5" font-family="Helvetica,sans-Serif" font-size="10.00">include/d/d_ky_thunder.h</text>
</a>
</g>
</g>
<!-- Node25&#45;&gt;Node307 -->
<g id="edge25" class="edge">
<title>Node25&#45;&gt;Node307</title>
<path fill="none" stroke="#63b8ff" d="M1492.52,-212.04C1485.32,-210.84 1477.99,-209.77 1471,-209 994.53,-156.29 869.26,-227.55 393,-173 382.76,-171.83 371.8,-169.97 361.63,-167.99"/>
<polygon fill="#63b8ff" stroke="#63b8ff" points="1491.73,-215.46 1502.19,-213.76 1492.96,-208.57 1491.73,-215.46"/>
</g>
<!-- Node308 -->
<g id="node24" class="node">
<title>Node308</title>
<g id="a_node24"><a xlink:href="d__resorce_8h.html" target="_top" xlink:title=" ">
<polygon fill="#fff0f0" stroke="red" points="511.5,-167.5 402.5,-167.5 402.5,-148.5 511.5,-148.5 511.5,-167.5"/>
<text text-anchor="middle" x="457" y="-155.5" font-family="Helvetica,sans-Serif" font-size="10.00">include/d/d_resorce.h</text>
</a>
</g>
</g>
<!-- Node25&#45;&gt;Node308 -->
<g id="edge26" class="edge">
<title>Node25&#45;&gt;Node308</title>
<path fill="none" stroke="#63b8ff" d="M1492.52,-212.07C1485.31,-210.87 1477.99,-209.79 1471,-209 1051.14,-161.6 940.14,-226.36 521,-173 511.75,-171.82 501.86,-169.96 492.68,-167.98"/>
<polygon fill="#63b8ff" stroke="#63b8ff" points="1491.73,-215.49 1502.19,-213.79 1492.96,-208.6 1491.73,-215.49"/>
</g>
<!-- Node309 -->
<g id="node25" class="node">
<title>Node309</title>
<g id="a_node25"><a xlink:href="d__kankyo_8h.html" target="_top" xlink:title=" ">
<polygon fill="#fff0f0" stroke="red" points="628,-173 530,-173 530,-143 628,-143 628,-173"/>
<text text-anchor="start" x="538" y="-161" font-family="Helvetica,sans-Serif" font-size="10.00">include/d/kankyo/d</text>
<text text-anchor="middle" x="579" y="-150" font-family="Helvetica,sans-Serif" font-size="10.00">_kankyo.h</text>
</a>
</g>
</g>
<!-- Node25&#45;&gt;Node309 -->
<g id="edge27" class="edge">
<title>Node25&#45;&gt;Node309</title>
<path fill="none" stroke="#63b8ff" d="M1492,-212.02C1484.96,-210.84 1477.82,-209.79 1471,-209 1102.44,-166.41 1004.38,-224.77 637,-173 634.13,-172.6 631.19,-172.11 628.24,-171.57"/>
<polygon fill="#63b8ff" stroke="#63b8ff" points="1491.34,-215.46 1501.8,-213.76 1492.56,-208.57 1491.34,-215.46"/>
</g>
<!-- Node262 -->
<g id="node26" class="node">
<title>Node262</title>
<g id="a_node26"><a xlink:href="d__a__do_8h.html" target="_top" xlink:title=" ">
<polygon fill="white" stroke="#666666" points="742,-173 646,-173 646,-143 742,-143 742,-173"/>
<text text-anchor="start" x="654" y="-161" font-family="Helvetica,sans-Serif" font-size="10.00">include/rel/d/a/d_a</text>
<text text-anchor="middle" x="694" y="-150" font-family="Helvetica,sans-Serif" font-size="10.00">_do/d_a_do.h</text>
</a>
</g>
</g>
<!-- Node25&#45;&gt;Node262 -->
<g id="edge28" class="edge">
<title>Node25&#45;&gt;Node262</title>
<path fill="none" stroke="#63b8ff" d="M1491.73,-212.02C1484.78,-210.85 1477.74,-209.8 1471,-209 1152.85,-171.13 1068.02,-219.42 751,-173 748.18,-172.59 745.29,-172.1 742.39,-171.55"/>
<polygon fill="#63b8ff" stroke="#63b8ff" points="1490.94,-215.44 1501.4,-213.74 1492.17,-208.54 1490.94,-215.44"/>
</g>
<!-- Node457 -->
<g id="node27" class="node">
<title>Node457</title>
<g id="a_node27"><a xlink:href="d__a__mg__fshop_8h.html" target="_top" xlink:title=" ">
<polygon fill="white" stroke="#666666" points="899.5,-173 760.5,-173 760.5,-143 899.5,-143 899.5,-173"/>
<text text-anchor="start" x="768.5" y="-161" font-family="Helvetica,sans-Serif" font-size="10.00">include/rel/d/a/d_a</text>
<text text-anchor="middle" x="830" y="-150" font-family="Helvetica,sans-Serif" font-size="10.00">_mg_fshop/d_a_mg_fshop.h</text>
</a>
</g>
</g>
<!-- Node25&#45;&gt;Node457 -->
<g id="edge29" class="edge">
<title>Node25&#45;&gt;Node457</title>
<path fill="none" stroke="#63b8ff" d="M1491.21,-212.02C1484.43,-210.88 1477.57,-209.83 1471,-209 1222.68,-177.68 1157.5,-202.88 909,-173 905.96,-172.63 902.85,-172.23 899.72,-171.79"/>
<polygon fill="#63b8ff" stroke="#63b8ff" points="1490.54,-215.46 1501,-213.77 1491.77,-208.57 1490.54,-215.46"/>
</g>
<!-- Node375 -->
<g id="node28" class="node">
<title>Node375</title>
<g id="a_node28"><a xlink:href="d__a__myna_8h.html" target="_top" xlink:title=" ">
<polygon fill="white" stroke="#666666" points="1018,-173 918,-173 918,-143 1018,-143 1018,-173"/>
<text text-anchor="start" x="926" y="-161" font-family="Helvetica,sans-Serif" font-size="10.00">include/rel/d/a/d_a</text>
<text text-anchor="middle" x="968" y="-150" font-family="Helvetica,sans-Serif" font-size="10.00">_myna/d_a_myna.h</text>
</a>
</g>
</g>
<!-- Node25&#45;&gt;Node375 -->
<g id="edge30" class="edge">
<title>Node25&#45;&gt;Node375</title>
<path fill="none" stroke="#63b8ff" d="M1490.68,-212.04C1484.07,-210.91 1477.39,-209.86 1471,-209 1274.79,-182.56 1222.55,-203.94 1027,-173 1024.19,-172.56 1021.32,-172.05 1018.43,-171.5"/>
<polygon fill="#63b8ff" stroke="#63b8ff" points="1489.74,-215.43 1500.2,-213.74 1490.97,-208.54 1489.74,-215.43"/>
</g>
<!-- Node478 -->
<g id="node29" class="node">
<title>Node478</title>
<g id="a_node29"><a xlink:href="DynamicLink_8cpp.html" target="_top" xlink:title=" ">
<polygon fill="white" stroke="#666666" points="1143.5,-167.5 1036.5,-167.5 1036.5,-148.5 1143.5,-148.5 1143.5,-167.5"/>
<text text-anchor="middle" x="1090" y="-155.5" font-family="Helvetica,sans-Serif" font-size="10.00">src/DynamicLink.cpp</text>
</a>
</g>
</g>
<!-- Node25&#45;&gt;Node478 -->
<g id="edge31" class="edge">
<title>Node25&#45;&gt;Node478</title>
<path fill="none" stroke="#63b8ff" d="M1489.42,-212.02C1483.21,-210.93 1476.98,-209.9 1471,-209 1329.92,-187.72 1292.69,-196.75 1152,-173 1143.73,-171.6 1134.91,-169.8 1126.59,-167.96"/>
<polygon fill="#63b8ff" stroke="#63b8ff" points="1488.53,-215.42 1498.99,-213.75 1489.77,-208.53 1488.53,-215.42"/>
</g>
<!-- Node186 -->
<g id="node30" class="node">
<title>Node186</title>
<g id="a_node30"><a xlink:href="c__dylink_8cpp.html" target="_top" xlink:title=" ">
<polygon fill="white" stroke="#666666" points="1256.5,-167.5 1161.5,-167.5 1161.5,-148.5 1256.5,-148.5 1256.5,-167.5"/>
<text text-anchor="middle" x="1209" y="-155.5" font-family="Helvetica,sans-Serif" font-size="10.00">src/c/c_dylink.cpp</text>
</a>
</g>
</g>
<!-- Node25&#45;&gt;Node186 -->
<g id="edge32" class="edge">
<title>Node25&#45;&gt;Node186</title>
<path fill="none" stroke="#63b8ff" d="M1486.99,-211.95C1481.59,-210.94 1476.19,-209.95 1471,-209 1380,-192.4 1356.52,-192.04 1266,-173 1258.82,-171.49 1251.17,-169.72 1243.88,-167.96"/>
<polygon fill="#63b8ff" stroke="#63b8ff" points="1486.08,-215.34 1496.55,-213.74 1487.37,-208.46 1486.08,-215.34"/>
</g>
<!-- Node479 -->
<g id="node31" class="node">
<title>Node479</title>
<g id="a_node31"><a xlink:href="d__meter__HIO_8cpp.html" target="_top" xlink:title=" ">
<polygon fill="white" stroke="#666666" points="1379,-173 1275,-173 1275,-143 1379,-143 1379,-173"/>
<text text-anchor="start" x="1283" y="-161" font-family="Helvetica,sans-Serif" font-size="10.00">src/d/meter/d_meter</text>
<text text-anchor="middle" x="1327" y="-150" font-family="Helvetica,sans-Serif" font-size="10.00">_HIO.cpp</text>
</a>
</g>
</g>
<!-- Node25&#45;&gt;Node479 -->
<g id="edge33" class="edge">
<title>Node25&#45;&gt;Node479</title>
<path fill="none" stroke="#63b8ff" d="M1504.01,-210.97C1467.78,-200.33 1414.85,-184.79 1376.31,-173.48"/>
<polygon fill="#63b8ff" stroke="#63b8ff" points="1502.65,-214.22 1513.24,-213.67 1504.63,-207.5 1502.65,-214.22"/>
</g>
<!-- Node480 -->
<g id="node32" class="node">
<title>Node480</title>
<g id="a_node32"><a xlink:href="d__pane__class_8cpp.html" target="_top" xlink:title=" ">
<polygon fill="white" stroke="#666666" points="1540.5,-167.5 1397.5,-167.5 1397.5,-148.5 1540.5,-148.5 1540.5,-167.5"/>
<text text-anchor="middle" x="1469" y="-155.5" font-family="Helvetica,sans-Serif" font-size="10.00">src/d/pane/d_pane_class.cpp</text>
</a>
</g>
</g>
<!-- Node25&#45;&gt;Node480 -->
<g id="edge34" class="edge">
<title>Node25&#45;&gt;Node480</title>
<path fill="none" stroke="#63b8ff" d="M1525.63,-206.69C1510.95,-194.33 1491.35,-177.82 1479.48,-167.82"/>
<polygon fill="#63b8ff" stroke="#63b8ff" points="1523.37,-209.36 1533.27,-213.13 1527.88,-204.01 1523.37,-209.36"/>
</g>
<!-- Node481 -->
<g id="node33" class="node">
<title>Node481</title>
<g id="a_node33"><a xlink:href="d__pane__class__alpha_8cpp.html" target="_top" xlink:title=" ">
<polygon fill="white" stroke="#666666" points="1683.5,-173 1558.5,-173 1558.5,-143 1683.5,-143 1683.5,-173"/>
<text text-anchor="start" x="1566.5" y="-161" font-family="Helvetica,sans-Serif" font-size="10.00">src/d/pane/d_pane_class</text>
<text text-anchor="middle" x="1621" y="-150" font-family="Helvetica,sans-Serif" font-size="10.00">_alpha.cpp</text>
</a>
</g>
</g>
<!-- Node25&#45;&gt;Node481 -->
<g id="edge35" class="edge">
<title>Node25&#45;&gt;Node481</title>
<path fill="none" stroke="#63b8ff" d="M1564.1,-206.92C1576.3,-196.64 1591.99,-183.43 1603.81,-173.48"/>
<polygon fill="#63b8ff" stroke="#63b8ff" points="1562.12,-204.01 1556.73,-213.13 1566.63,-209.36 1562.12,-204.01"/>
</g>
<!-- Node178 -->
<g id="node34" class="node">
<title>Node178</title>
<g id="a_node34"><a xlink:href="f__op__actor__mng_8cpp.html" target="_top" xlink:title=" ">
<polygon fill="white" stroke="#666666" points="1802.5,-173 1701.5,-173 1701.5,-143 1802.5,-143 1802.5,-173"/>
<text text-anchor="start" x="1709.5" y="-161" font-family="Helvetica,sans-Serif" font-size="10.00">src/f_op/f_op_actor</text>
<text text-anchor="middle" x="1752" y="-150" font-family="Helvetica,sans-Serif" font-size="10.00">_mng.cpp</text>
</a>
</g>
</g>
<!-- Node25&#45;&gt;Node178 -->
<g id="edge36" class="edge">
<title>Node25&#45;&gt;Node178</title>
<path fill="none" stroke="#63b8ff" d="M1584.36,-210.83C1618.75,-200.2 1668.74,-184.74 1705.17,-173.48"/>
<polygon fill="#63b8ff" stroke="#63b8ff" points="1583.75,-207.36 1575.23,-213.65 1585.82,-214.04 1583.75,-207.36"/>
</g>
<!-- Node482 -->
<g id="node35" class="node">
<title>Node482</title>
<g id="a_node35"><a xlink:href="m__Do__DVDError_8cpp.html" target="_top" xlink:title=" ">
<polygon fill="white" stroke="#666666" points="1971.5,-167.5 1820.5,-167.5 1820.5,-148.5 1971.5,-148.5 1971.5,-167.5"/>
<text text-anchor="middle" x="1896" y="-155.5" font-family="Helvetica,sans-Serif" font-size="10.00">src/m_Do/m_Do_DVDError.cpp</text>
</a>
</g>
</g>
<!-- Node25&#45;&gt;Node482 -->
<g id="edge37" class="edge">
<title>Node25&#45;&gt;Node482</title>
<path fill="none" stroke="#63b8ff" d="M1605.18,-212.03C1673.46,-199.58 1783.54,-179.5 1846.88,-167.96"/>
<polygon fill="#63b8ff" stroke="#63b8ff" points="1604.87,-208.53 1595.66,-213.76 1606.13,-215.41 1604.87,-208.53"/>
</g>
<!-- Node483 -->
<g id="node36" class="node">
<title>Node483</title>
<g id="a_node36"><a xlink:href="m__Do__MemCard_8cpp.html" target="_top" xlink:title=" ">
<polygon fill="white" stroke="#666666" points="2142,-167.5 1990,-167.5 1990,-148.5 2142,-148.5 2142,-167.5"/>
<text text-anchor="middle" x="2066" y="-155.5" font-family="Helvetica,sans-Serif" font-size="10.00">src/m_Do/m_Do_MemCard.cpp</text>
</a>
</g>
</g>
<!-- Node25&#45;&gt;Node483 -->
<g id="edge38" class="edge">
<title>Node25&#45;&gt;Node483</title>
<path fill="none" stroke="#63b8ff" d="M1621.7,-215.28C1708.71,-206.28 1854.79,-190.38 1980,-173 1990.79,-171.5 2002.31,-169.74 2013.3,-167.98"/>
<polygon fill="#63b8ff" stroke="#63b8ff" points="1621.44,-211.79 1611.85,-216.3 1622.15,-218.76 1621.44,-211.79"/>
</g>
<!-- Node484 -->
<g id="node37" class="node">
<title>Node484</title>
<g id="a_node37"><a xlink:href="m__Do__dvd__thread_8cpp.html" target="_top" xlink:title=" ">
<polygon fill="white" stroke="#666666" points="2318,-167.5 2160,-167.5 2160,-148.5 2318,-148.5 2318,-167.5"/>
<text text-anchor="middle" x="2239" y="-155.5" font-family="Helvetica,sans-Serif" font-size="10.00">src/m_Do/m_Do_dvd_thread.cpp</text>
</a>
</g>
</g>
<!-- Node25&#45;&gt;Node484 -->
<g id="edge39" class="edge">
<title>Node25&#45;&gt;Node484</title>
<path fill="none" stroke="#63b8ff" d="M1621.66,-218.54C1736.83,-211.41 1961.27,-195.89 2151,-173 2162.67,-171.59 2175.17,-169.79 2186.97,-167.94"/>
<polygon fill="#63b8ff" stroke="#63b8ff" points="1621.46,-215.04 1611.69,-219.15 1621.89,-222.03 1621.46,-215.04"/>
</g>
<!-- Node252 -->
<g id="node38" class="node">
<title>Node252</title>
<g id="a_node38"><a xlink:href="m__Do__ext_8cpp.html" target="_top" xlink:title=" ">
<polygon fill="white" stroke="#666666" points="2459.5,-167.5 2336.5,-167.5 2336.5,-148.5 2459.5,-148.5 2459.5,-167.5"/>
<text text-anchor="middle" x="2398" y="-155.5" font-family="Helvetica,sans-Serif" font-size="10.00">src/m_Do/m_Do_ext.cpp</text>
</a>
</g>
</g>
<!-- Node25&#45;&gt;Node252 -->
<g id="edge40" class="edge">
<title>Node25&#45;&gt;Node252</title>
<path fill="none" stroke="#63b8ff" d="M1621.76,-219.38C1791.06,-211.17 2192.16,-190.53 2327,-173 2336.84,-171.72 2347.37,-169.9 2357.23,-167.99"/>
<polygon fill="#63b8ff" stroke="#63b8ff" points="1621.79,-215.87 1611.97,-219.85 1622.13,-222.86 1621.79,-215.87"/>
</g>
<!-- Node485 -->
<g id="node39" class="node">
<title>Node485</title>
<g id="a_node39"><a xlink:href="m__Do__machine_8cpp.html" target="_top" xlink:title=" ">
<polygon fill="white" stroke="#666666" points="2624.5,-167.5 2477.5,-167.5 2477.5,-148.5 2624.5,-148.5 2624.5,-167.5"/>
<text text-anchor="middle" x="2551" y="-155.5" font-family="Helvetica,sans-Serif" font-size="10.00">src/m_Do/m_Do_machine.cpp</text>
</a>
</g>
</g>
<!-- Node25&#45;&gt;Node485 -->
<g id="edge41" class="edge">
<title>Node25&#45;&gt;Node485</title>
<path fill="none" stroke="#63b8ff" d="M1621.78,-219.99C1812.76,-212.31 2305.6,-191.31 2469,-173 2480.48,-171.71 2492.8,-169.86 2504.3,-167.93"/>
<polygon fill="#63b8ff" stroke="#63b8ff" points="1621.82,-216.48 1611.97,-220.38 1622.1,-223.48 1621.82,-216.48"/>
</g>
<!-- Node255 -->
<g id="node40" class="node">
<title>Node255</title>
<g id="a_node40"><a xlink:href="m__Do__machine__exception_8cpp.html" target="_top" xlink:title=" ">
<polygon fill="white" stroke="#666666" points="2771.5,-173 2642.5,-173 2642.5,-143 2771.5,-143 2771.5,-173"/>
<text text-anchor="start" x="2650.5" y="-161" font-family="Helvetica,sans-Serif" font-size="10.00">src/m_Do/m_Do_machine</text>
<text text-anchor="middle" x="2707" y="-150" font-family="Helvetica,sans-Serif" font-size="10.00">_exception.cpp</text>
</a>
</g>
</g>
<!-- Node25&#45;&gt;Node255 -->
<g id="edge42" class="edge">
<title>Node25&#45;&gt;Node255</title>
<path fill="none" stroke="#63b8ff" d="M1621.48,-220.13C1852.64,-211.35 2534.36,-184.78 2634,-173 2636.69,-172.68 2639.43,-172.32 2642.2,-171.93"/>
<polygon fill="#63b8ff" stroke="#63b8ff" points="1621.53,-216.62 1611.67,-220.5 1621.8,-223.62 1621.53,-216.62"/>
</g>
<!-- Node486 -->
<g id="node41" class="node">
<title>Node486</title>
<g id="a_node41"><a xlink:href="m__Do__printf_8cpp.html" target="_top" xlink:title=" ">
<polygon fill="white" stroke="#666666" points="2922,-167.5 2790,-167.5 2790,-148.5 2922,-148.5 2922,-167.5"/>
<text text-anchor="middle" x="2856" y="-155.5" font-family="Helvetica,sans-Serif" font-size="10.00">src/m_Do/m_Do_printf.cpp</text>
</a>
</g>
</g>
<!-- Node25&#45;&gt;Node486 -->
<g id="edge43" class="edge">
<title>Node25&#45;&gt;Node486</title>
<path fill="none" stroke="#63b8ff" d="M1621.57,-220.05C1886.85,-209.82 2752.1,-176.26 2781,-173 2791.66,-171.8 2803.08,-169.95 2813.72,-167.99"/>
<polygon fill="#63b8ff" stroke="#63b8ff" points="1621.51,-216.55 1611.65,-220.43 1621.78,-223.55 1621.51,-216.55"/>
</g>
<!-- Node26&#45;&gt;Node5 -->
<g id="edge23" class="edge">
<title>Node26&#45;&gt;Node5</title>
<path fill="none" stroke="#63b8ff" d="M104.46,-145.83C110.67,-144.7 116.96,-143.7 123,-143 599.43,-87.48 2154.39,-86.88 2475.62,-87.37"/>
<polygon fill="#63b8ff" stroke="#63b8ff" points="104.07,-142.34 94.94,-147.71 105.43,-149.21 104.07,-142.34"/>
</g>
</g>
</svg>
        <g id="navigator" transform="translate(0 0)" fill="#404254">
                <rect fill="#f2f5e9" fill-opacity="0.5" stroke="#606060" stroke-width=".5" x="0" y="0" width="60" height="60"/>
                <use id="zoomplus" xlink:href="#zoomPlus" x="17" y="9" onmousedown="handleZoom(evt,'in')"/>
                <use id="zoomminus" xlink:href="#zoomMin" x="42" y="9" onmousedown="handleZoom(evt,'out')"/>
                <use id="reset" xlink:href="#resetDef" x="30" y="36" onmousedown="handleReset()"/>
                <g id="arrowUp" xlink:href="#dirArrow" transform="translate(30 24)" onmousedown="handlePan(0,-1)">
                  <use xlink:href="#rim" fill="#404040">
                        <set attributeName="fill" to="#808080" begin="arrowUp.mouseover" end="arrowUp.mouseout"/>
                  </use>
                  <path fill="none" stroke="white" stroke-width="1.5" d="M0,-3.0v7 M-2.5,-0.5L0,-3.0L2.5,-0.5"/>
                </g>
                <g id="arrowRight" xlink:href="#dirArrow" transform="rotate(90) translate(36 -43)" onmousedown="handlePan(1,0)">
                  <use xlink:href="#rim" fill="#404040">
                        <set attributeName="fill" to="#808080" begin="arrowRight.mouseover" end="arrowRight.mouseout"/>
                  </use>
                  <path fill="none" stroke="white" stroke-width="1.5" d="M0,-3.0v7 M-2.5,-0.5L0,-3.0L2.5,-0.5"/>
                </g>
                <g id="arrowDown" xlink:href="#dirArrow" transform="rotate(180) translate(-30 -48)" onmousedown="handlePan(0,1)">
                  <use xlink:href="#rim" fill="#404040">
                        <set attributeName="fill" to="#808080" begin="arrowDown.mouseover" end="arrowDown.mouseout"/>
                  </use>
                  <path fill="none" stroke="white" stroke-width="1.5" d="M0,-3.0v7 M-2.5,-0.5L0,-3.0L2.5,-0.5"/>
                </g>
                <g id="arrowLeft" xlink:href="#dirArrow" transform="rotate(270) translate(-36 17)" onmousedown="handlePan(-1,0)">
                  <use xlink:href="#rim" fill="#404040">
                        <set attributeName="fill" to="#808080" begin="arrowLeft.mouseover" end="arrowLeft.mouseout"/>
                  </use>
                  <path fill="none" stroke="white" stroke-width="1.5" d="M0,-3.0v7 M-2.5,-0.5L0,-3.0L2.5,-0.5"/>
                </g>
        </g>
        <svg viewBox="0 0 15 15" width="100%" height="30px" preserveAspectRatio="xMaxYMin meet">
         <g id="arrow_out" transform="scale(0.3 0.3)">
          <a xlink:href="J3DMtxBuffer_8h__dep__incl_org.svg" target="_base">
           <rect id="button" ry="5" rx="5" y="6" x="6" height="38" width="38"
                fill="#f2f5e9" fill-opacity="0.5" stroke="#606060" stroke-width="1.0"/>
           <path id="arrow"
             d="M 11.500037,31.436501 C 11.940474,20.09759 22.043105,11.32322 32.158766,21.979434 L 37.068811,17.246167 C 37.068811,17.246167 37.088388,32 37.088388,32 L 22.160133,31.978069 C 22.160133,31.978069 26.997745,27.140456 26.997745,27.140456 C 18.528582,18.264221 13.291696,25.230495 11.500037,31.436501 z"
             style="fill:#404040;"/>
          </a>
         </g>
        </svg>
</svg>
