<?xml version="1.0" encoding="UTF-8" standalone="no"?>
<!DOCTYPE svg PUBLIC "-//W3C//DTD SVG 1.1//EN"
 "http://www.w3.org/Graphics/SVG/1.1/DTD/svg11.dtd">
<!-- Generated by graphviz version 7.0.5 (20221223.1930)
 -->
<!-- Title: include/JSystem/J3DGraphBase/J3DTevs.h Pages: 1 -->
<svg width="4249pt" height="368pt"
 viewBox="0.00 0.00 4248.90 368.00" xmlns="http://www.w3.org/2000/svg" xmlns:xlink="http://www.w3.org/1999/xlink">
<g id="graph0" class="graph" transform="scale(1 1) rotate(0) translate(4 364)">
<title>include/JSystem/J3DGraphBase/J3DTevs.h</title>
<!-- Node1 -->
<g id="node1" class="node">
<title>Node1</title>
<g id="a_node1"><a xlink:title=" ">
<polygon fill="#999999" stroke="#666666" points="1213.5,-360 1078.5,-360 1078.5,-330 1213.5,-330 1213.5,-360"/>
<text text-anchor="start" x="1086.5" y="-348" font-family="Helvetica,sans-Serif" font-size="10.00">include/JSystem/J3DGraph</text>
<text text-anchor="middle" x="1146" y="-337" font-family="Helvetica,sans-Serif" font-size="10.00">Base/J3DTevs.h</text>
</a>
</g>
</g>
<!-- Node2 -->
<g id="node2" class="node">
<title>Node2</title>
<g id="a_node2"><a xlink:href="J3DMatBlock_8h.html" target="_top" xlink:title=" ">
<polygon fill="white" stroke="#666666" points="1048.5,-294 913.5,-294 913.5,-264 1048.5,-264 1048.5,-294"/>
<text text-anchor="start" x="921.5" y="-282" font-family="Helvetica,sans-Serif" font-size="10.00">include/JSystem/J3DGraph</text>
<text text-anchor="middle" x="981" y="-271" font-family="Helvetica,sans-Serif" font-size="10.00">Base/J3DMatBlock.h</text>
</a>
</g>
</g>
<!-- Node1&#45;&gt;Node2 -->
<g id="edge1" class="edge">
<title>Node1&#45;&gt;Node2</title>
<path fill="none" stroke="#63b8ff" d="M1098.41,-325.54C1072.89,-315.64 1041.92,-303.63 1018.19,-294.43"/>
<polygon fill="#63b8ff" stroke="#63b8ff" points="1096.97,-328.74 1107.56,-329.09 1099.5,-322.21 1096.97,-328.74"/>
</g>
<!-- Node3 -->
<g id="node3" class="node">
<title>Node3</title>
<g id="a_node3"><a xlink:href="J3DMaterial_8h.html" target="_top" xlink:title=" ">
<polygon fill="white" stroke="#666666" points="693.5,-228 558.5,-228 558.5,-198 693.5,-198 693.5,-228"/>
<text text-anchor="start" x="566.5" y="-216" font-family="Helvetica,sans-Serif" font-size="10.00">include/JSystem/J3DGraph</text>
<text text-anchor="middle" x="626" y="-205" font-family="Helvetica,sans-Serif" font-size="10.00">Base/J3DMaterial.h</text>
</a>
</g>
</g>
<!-- Node1&#45;&gt;Node3 -->
<g id="edge57" class="edge">
<title>Node1&#45;&gt;Node3</title>
<path fill="none" stroke="#63b8ff" d="M1067.07,-332.57C1011.77,-323.85 936.36,-310.53 871,-294 796.82,-275.24 712.43,-245.85 664.56,-228.4"/>
<polygon fill="#63b8ff" stroke="#63b8ff" points="1066.29,-335.99 1076.71,-334.07 1067.37,-329.07 1066.29,-335.99"/>
</g>
<!-- Node174 -->
<g id="node11" class="node">
<title>Node174</title>
<g id="a_node11"><a xlink:href="d__resorce_8cpp.html" target="_top" xlink:title=" ">
<polygon fill="white" stroke="#666666" points="599,-90.5 497,-90.5 497,-71.5 599,-71.5 599,-90.5"/>
<text text-anchor="middle" x="548" y="-78.5" font-family="Helvetica,sans-Serif" font-size="10.00">src/d/d_resorce.cpp</text>
</a>
</g>
</g>
<!-- Node1&#45;&gt;Node174 -->
<g id="edge61" class="edge">
<title>Node1&#45;&gt;Node174</title>
<path fill="none" stroke="#63b8ff" d="M1066.77,-336.81C1005.35,-329.61 926.93,-316.33 904,-294 851.01,-242.41 920.48,-182.01 866,-132 825.13,-94.49 673.67,-105.37 619,-96 610.08,-94.47 600.57,-92.7 591.49,-90.93"/>
<polygon fill="#63b8ff" stroke="#63b8ff" points="1066.2,-340.27 1076.53,-337.92 1066.98,-333.31 1066.2,-340.27"/>
</g>
<!-- Node292 -->
<g id="node47" class="node">
<title>Node292</title>
<g id="a_node47"><a xlink:href="J3DMaterialAttach_8cpp.html" target="_top" xlink:title=" ">
<polygon fill="white" stroke="#666666" points="1225,-294 1067,-294 1067,-264 1225,-264 1225,-294"/>
<text text-anchor="start" x="1075" y="-282" font-family="Helvetica,sans-Serif" font-size="10.00">libs/JSystem/J3DGraphAnimator</text>
<text text-anchor="middle" x="1146" y="-271" font-family="Helvetica,sans-Serif" font-size="10.00">/J3DMaterialAttach.cpp</text>
</a>
</g>
</g>
<!-- Node1&#45;&gt;Node292 -->
<g id="edge58" class="edge">
<title>Node1&#45;&gt;Node292</title>
<path fill="none" stroke="#63b8ff" d="M1146,-318.39C1146,-310.13 1146,-301.28 1146,-294.16"/>
<polygon fill="#63b8ff" stroke="#63b8ff" points="1142.5,-318.28 1146,-328.28 1149.5,-318.28 1142.5,-318.28"/>
</g>
<!-- Node388 -->
<g id="node48" class="node">
<title>Node388</title>
<g id="a_node48"><a xlink:href="J3DSys_8cpp.html" target="_top" xlink:title=" ">
<polygon fill="white" stroke="#666666" points="1385,-294 1243,-294 1243,-264 1385,-264 1385,-294"/>
<text text-anchor="start" x="1251" y="-282" font-family="Helvetica,sans-Serif" font-size="10.00">libs/JSystem/J3DGraphBase</text>
<text text-anchor="middle" x="1314" y="-271" font-family="Helvetica,sans-Serif" font-size="10.00">/J3DSys.cpp</text>
</a>
</g>
</g>
<!-- Node1&#45;&gt;Node388 -->
<g id="edge59" class="edge">
<title>Node1&#45;&gt;Node388</title>
<path fill="none" stroke="#63b8ff" d="M1194.46,-325.54C1220.44,-315.64 1251.97,-303.63 1276.13,-294.43"/>
<polygon fill="#63b8ff" stroke="#63b8ff" points="1193.22,-322.27 1185.12,-329.1 1195.71,-328.81 1193.22,-322.27"/>
</g>
<!-- Node389 -->
<g id="node49" class="node">
<title>Node389</title>
<g id="a_node49"><a xlink:href="J3DTevs_8cpp.html" target="_top" xlink:title=" ">
<polygon fill="white" stroke="#666666" points="1545,-294 1403,-294 1403,-264 1545,-264 1545,-294"/>
<text text-anchor="start" x="1411" y="-282" font-family="Helvetica,sans-Serif" font-size="10.00">libs/JSystem/J3DGraphBase</text>
<text text-anchor="middle" x="1474" y="-271" font-family="Helvetica,sans-Serif" font-size="10.00">/J3DTevs.cpp</text>
</a>
</g>
</g>
<!-- Node1&#45;&gt;Node389 -->
<g id="edge60" class="edge">
<title>Node1&#45;&gt;Node389</title>
<path fill="none" stroke="#63b8ff" d="M1225.24,-328.54C1279.33,-317.98 1350.4,-304.12 1402.72,-293.91"/>
<polygon fill="#63b8ff" stroke="#63b8ff" points="1224.59,-325.1 1215.45,-330.45 1225.93,-331.97 1224.59,-325.1"/>
</g>
<!-- Node295 -->
<g id="node50" class="node">
<title>Node295</title>
<g id="a_node50"><a xlink:href="m__Do__ext_8cpp.html" target="_top" xlink:title=" ">
<polygon fill="white" stroke="#666666" points="1686.5,-288.5 1563.5,-288.5 1563.5,-269.5 1686.5,-269.5 1686.5,-288.5"/>
<text text-anchor="middle" x="1625" y="-276.5" font-family="Helvetica,sans-Serif" font-size="10.00">src/m_Do/m_Do_ext.cpp</text>
</a>
</g>
</g>
<!-- Node1&#45;&gt;Node295 -->
<g id="edge62" class="edge">
<title>Node1&#45;&gt;Node295</title>
<path fill="none" stroke="#63b8ff" d="M1224.99,-336.04C1307.36,-327.34 1440.09,-312.19 1554,-294 1563.18,-292.53 1572.99,-290.75 1582.29,-288.94"/>
<polygon fill="#63b8ff" stroke="#63b8ff" points="1224.8,-332.54 1215.22,-337.07 1225.53,-339.5 1224.8,-332.54"/>
</g>
<!-- Node2&#45;&gt;Node3 -->
<g id="edge2" class="edge">
<title>Node2&#45;&gt;Node3</title>
<path fill="none" stroke="#63b8ff" d="M902.41,-263.83C839.94,-252.57 753.47,-236.98 693.96,-226.25"/>
<polygon fill="#63b8ff" stroke="#63b8ff" points="901.44,-267.21 911.9,-265.54 902.68,-260.32 901.44,-267.21"/>
</g>
<!-- Node24 -->
<g id="node12" class="node">
<title>Node24</title>
<g id="a_node12"><a xlink:href="d__a__alink_8h.html" target="_top" xlink:title=" ">
<polygon fill="white" stroke="#666666" points="1567,-222.5 1451,-222.5 1451,-203.5 1567,-203.5 1567,-222.5"/>
<text text-anchor="middle" x="1509" y="-210.5" font-family="Helvetica,sans-Serif" font-size="10.00">include/d/a/d_a_alink.h</text>
</a>
</g>
</g>
<!-- Node2&#45;&gt;Node24 -->
<g id="edge11" class="edge">
<title>Node2&#45;&gt;Node24</title>
<path fill="none" stroke="#63b8ff" d="M1059.96,-263.78C1206.57,-242.67 1366.84,-226.87 1450.81,-219.15"/>
<polygon fill="#63b8ff" stroke="#63b8ff" points="1059.87,-260.26 1050.48,-265.16 1060.88,-267.18 1059.87,-260.26"/>
</g>
<!-- Node387 -->
<g id="node46" class="node">
<title>Node387</title>
<g id="a_node46"><a xlink:href="J3DMatBlock_8cpp.html" target="_top" xlink:title=" ">
<polygon fill="white" stroke="#666666" points="1727,-228 1585,-228 1585,-198 1727,-198 1727,-228"/>
<text text-anchor="start" x="1593" y="-216" font-family="Helvetica,sans-Serif" font-size="10.00">libs/JSystem/J3DGraphBase</text>
<text text-anchor="middle" x="1656" y="-205" font-family="Helvetica,sans-Serif" font-size="10.00">/J3DMatBlock.cpp</text>
</a>
</g>
</g>
<!-- Node2&#45;&gt;Node387 -->
<g id="edge56" class="edge">
<title>Node2&#45;&gt;Node387</title>
<path fill="none" stroke="#63b8ff" d="M1060.33,-263.82C1288.96,-235.97 1350.61,-255.48 1576,-228 1578.8,-227.66 1581.65,-227.29 1584.53,-226.89"/>
<polygon fill="#63b8ff" stroke="#63b8ff" points="1059.95,-260.34 1050.46,-265.04 1060.81,-267.28 1059.95,-260.34"/>
</g>
<!-- Node4 -->
<g id="node4" class="node">
<title>Node4</title>
<g id="a_node4"><a xlink:href="J3DJoint_8h.html" target="_top" xlink:title=" ">
<polygon fill="white" stroke="#666666" points="478.5,-162 343.5,-162 343.5,-132 478.5,-132 478.5,-162"/>
<text text-anchor="start" x="351.5" y="-150" font-family="Helvetica,sans-Serif" font-size="10.00">include/JSystem/J3DGraph</text>
<text text-anchor="middle" x="411" y="-139" font-family="Helvetica,sans-Serif" font-size="10.00">Animator/J3DJoint.h</text>
</a>
</g>
</g>
<!-- Node3&#45;&gt;Node4 -->
<g id="edge3" class="edge">
<title>Node3&#45;&gt;Node4</title>
<path fill="none" stroke="#63b8ff" d="M566.81,-194.38C533.01,-184.32 491.16,-171.86 459.34,-162.39"/>
<polygon fill="#63b8ff" stroke="#63b8ff" points="565.45,-197.63 576.03,-197.13 567.45,-190.92 565.45,-197.63"/>
</g>
<!-- Node385 -->
<g id="node8" class="node">
<title>Node385</title>
<g id="a_node8"><a xlink:href="J3DDrawBuffer_8cpp.html" target="_top" xlink:title=" ">
<polygon fill="white" stroke="#666666" points="697,-162 555,-162 555,-132 697,-132 697,-162"/>
<text text-anchor="start" x="563" y="-150" font-family="Helvetica,sans-Serif" font-size="10.00">libs/JSystem/J3DGraphBase</text>
<text text-anchor="middle" x="626" y="-139" font-family="Helvetica,sans-Serif" font-size="10.00">/J3DDrawBuffer.cpp</text>
</a>
</g>
</g>
<!-- Node3&#45;&gt;Node385 -->
<g id="edge7" class="edge">
<title>Node3&#45;&gt;Node385</title>
<path fill="none" stroke="#63b8ff" d="M626,-186.39C626,-178.13 626,-169.28 626,-162.16"/>
<polygon fill="#63b8ff" stroke="#63b8ff" points="622.5,-186.28 626,-196.28 629.5,-186.28 622.5,-186.28"/>
</g>
<!-- Node386 -->
<g id="node9" class="node">
<title>Node386</title>
<g id="a_node9"><a xlink:href="J3DMaterial_8cpp.html" target="_top" xlink:title=" ">
<polygon fill="white" stroke="#666666" points="857,-162 715,-162 715,-132 857,-132 857,-162"/>
<text text-anchor="start" x="723" y="-150" font-family="Helvetica,sans-Serif" font-size="10.00">libs/JSystem/J3DGraphBase</text>
<text text-anchor="middle" x="786" y="-139" font-family="Helvetica,sans-Serif" font-size="10.00">/J3DMaterial.cpp</text>
</a>
</g>
</g>
<!-- Node3&#45;&gt;Node386 -->
<g id="edge8" class="edge">
<title>Node3&#45;&gt;Node386</title>
<path fill="none" stroke="#63b8ff" d="M672.48,-193.41C697.16,-183.54 727.03,-171.59 749.94,-162.43"/>
<polygon fill="#63b8ff" stroke="#63b8ff" points="671.3,-190.11 663.31,-197.08 673.9,-196.61 671.3,-190.11"/>
</g>
<!-- Node374 -->
<g id="node10" class="node">
<title>Node374</title>
<g id="a_node10"><a xlink:href="J3DPacket_8cpp.html" target="_top" xlink:title=" ">
<polygon fill="white" stroke="#666666" points="325,-162 183,-162 183,-132 325,-132 325,-162"/>
<text text-anchor="start" x="191" y="-150" font-family="Helvetica,sans-Serif" font-size="10.00">libs/JSystem/J3DGraphBase</text>
<text text-anchor="middle" x="254" y="-139" font-family="Helvetica,sans-Serif" font-size="10.00">/J3DPacket.cpp</text>
</a>
</g>
</g>
<!-- Node3&#45;&gt;Node374 -->
<g id="edge9" class="edge">
<title>Node3&#45;&gt;Node374</title>
<path fill="none" stroke="#63b8ff" d="M547.07,-198.57C488.31,-188.54 406.13,-174.49 334,-162 331.08,-161.49 328.11,-160.98 325.1,-160.46"/>
<polygon fill="#63b8ff" stroke="#63b8ff" points="546.2,-201.97 556.64,-200.2 547.37,-195.07 546.2,-201.97"/>
</g>
<!-- Node3&#45;&gt;Node174 -->
<g id="edge10" class="edge">
<title>Node3&#45;&gt;Node174</title>
<path fill="none" stroke="#63b8ff" d="M577.04,-192.05C564.72,-184.54 553.02,-174.66 546,-162 533.2,-138.91 540.5,-106.03 545.12,-90.61"/>
<polygon fill="#63b8ff" stroke="#63b8ff" points="575.22,-195.03 585.66,-196.83 578.62,-188.91 575.22,-195.03"/>
</g>
<!-- Node5 -->
<g id="node5" class="node">
<title>Node5</title>
<g id="a_node5"><a xlink:href="J3DJointTree_8h.html" target="_top" xlink:title=" ">
<polygon fill="#fff0f0" stroke="red" points="478.5,-96 343.5,-96 343.5,-66 478.5,-66 478.5,-96"/>
<text text-anchor="start" x="351.5" y="-84" font-family="Helvetica,sans-Serif" font-size="10.00">include/JSystem/J3DGraph</text>
<text text-anchor="middle" x="411" y="-73" font-family="Helvetica,sans-Serif" font-size="10.00">Animator/J3DJointTree.h</text>
</a>
</g>
</g>
<!-- Node4&#45;&gt;Node5 -->
<g id="edge4" class="edge">
<title>Node4&#45;&gt;Node5</title>
<path fill="none" stroke="#63b8ff" d="M411,-120.39C411,-112.13 411,-103.28 411,-96.16"/>
<polygon fill="#63b8ff" stroke="#63b8ff" points="407.5,-120.28 411,-130.28 414.5,-120.28 407.5,-120.28"/>
</g>
<!-- Node379 -->
<g id="node6" class="node">
<title>Node379</title>
<g id="a_node6"><a xlink:href="J3DJoint_8cpp.html" target="_top" xlink:title=" ">
<polygon fill="white" stroke="#666666" points="158,-96 0,-96 0,-66 158,-66 158,-96"/>
<text text-anchor="start" x="8" y="-84" font-family="Helvetica,sans-Serif" font-size="10.00">libs/JSystem/J3DGraphAnimator</text>
<text text-anchor="middle" x="79" y="-73" font-family="Helvetica,sans-Serif" font-size="10.00">/J3DJoint.cpp</text>
</a>
</g>
</g>
<!-- Node4&#45;&gt;Node379 -->
<g id="edge5" class="edge">
<title>Node4&#45;&gt;Node379</title>
<path fill="none" stroke="#63b8ff" d="M331.79,-130.73C277.93,-120.35 207.1,-106.69 154.13,-96.48"/>
<polygon fill="#63b8ff" stroke="#63b8ff" points="331.05,-134.15 341.53,-132.61 332.37,-127.28 331.05,-134.15"/>
</g>
<!-- Node384 -->
<g id="node7" class="node">
<title>Node384</title>
<g id="a_node7"><a xlink:href="J3DJointFactory_8cpp.html" target="_top" xlink:title=" ">
<polygon fill="white" stroke="#666666" points="325.5,-96 176.5,-96 176.5,-66 325.5,-66 325.5,-96"/>
<text text-anchor="start" x="184.5" y="-84" font-family="Helvetica,sans-Serif" font-size="10.00">libs/JSystem/J3DGraphLoader</text>
<text text-anchor="middle" x="251" y="-73" font-family="Helvetica,sans-Serif" font-size="10.00">/J3DJointFactory.cpp</text>
</a>
</g>
</g>
<!-- Node4&#45;&gt;Node384 -->
<g id="edge6" class="edge">
<title>Node4&#45;&gt;Node384</title>
<path fill="none" stroke="#63b8ff" d="M364.52,-127.41C339.84,-117.54 309.97,-105.59 287.06,-96.43"/>
<polygon fill="#63b8ff" stroke="#63b8ff" points="363.1,-130.61 373.69,-131.08 365.7,-124.11 363.1,-130.61"/>
</g>
<!-- Node25 -->
<g id="node13" class="node">
<title>Node25</title>
<g id="a_node13"><a xlink:href="d__com__inf__game_8h.html" target="_top" xlink:title=" ">
<polygon fill="#fff0f0" stroke="red" points="2138,-162 2028,-162 2028,-132 2138,-132 2138,-162"/>
<text text-anchor="start" x="2036" y="-150" font-family="Helvetica,sans-Serif" font-size="10.00">include/d/com/d_com</text>
<text text-anchor="middle" x="2083" y="-139" font-family="Helvetica,sans-Serif" font-size="10.00">_inf_game.h</text>
</a>
</g>
</g>
<!-- Node24&#45;&gt;Node25 -->
<g id="edge12" class="edge">
<title>Node24&#45;&gt;Node25</title>
<path fill="none" stroke="#63b8ff" d="M1559.48,-200.85C1565.04,-199.8 1570.63,-198.82 1576,-198 1739.27,-172.97 1934.14,-157.85 2027.61,-151.5"/>
<polygon fill="#63b8ff" stroke="#63b8ff" points="1558.82,-197.41 1549.68,-202.78 1560.17,-204.28 1558.82,-197.41"/>
</g>
<!-- Node11 -->
<g id="node21" class="node">
<title>Node11</title>
<g id="a_node21"><a xlink:href="d__a__alink_8cpp.html" target="_top" xlink:title=" ">
<polygon fill="white" stroke="#666666" points="4093.5,-24.5 3984.5,-24.5 3984.5,-5.5 4093.5,-5.5 4093.5,-24.5"/>
<text text-anchor="middle" x="4039" y="-12.5" font-family="Helvetica,sans-Serif" font-size="10.00">src/d/a/d_a_alink.cpp</text>
</a>
</g>
</g>
<!-- Node24&#45;&gt;Node11 -->
<g id="edge55" class="edge">
<title>Node24&#45;&gt;Node11</title>
<path fill="none" stroke="#63b8ff" d="M1557.42,-200.88C1563.65,-199.75 1569.96,-198.74 1576,-198 1722.45,-180.01 4127.69,-202.32 4230,-96 4274.37,-49.89 4164.7,-29.22 4093.75,-20.91"/>
<polygon fill="#63b8ff" stroke="#63b8ff" points="1557.01,-197.4 1547.86,-202.75 1558.35,-204.27 1557.01,-197.4"/>
</g>
<!-- Node25&#45;&gt;Node174 -->
<g id="edge54" class="edge">
<title>Node25&#45;&gt;Node174</title>
<path fill="none" stroke="#63b8ff" d="M2016.39,-145.31C1767.21,-142.49 890.22,-130.29 613,-96 603.49,-94.82 593.32,-92.94 583.91,-90.93"/>
<polygon fill="#63b8ff" stroke="#63b8ff" points="2016.22,-148.81 2026.26,-145.42 2016.3,-141.81 2016.22,-148.81"/>
</g>
<!-- Node26 -->
<g id="node14" class="node">
<title>Node26</title>
<g id="a_node14"><a xlink:href="d__a__npc_8h.html" target="_top" xlink:title=" ">
<polygon fill="#fff0f0" stroke="red" points="2759.5,-24.5 2648.5,-24.5 2648.5,-5.5 2759.5,-5.5 2759.5,-24.5"/>
<text text-anchor="middle" x="2704" y="-12.5" font-family="Helvetica,sans-Serif" font-size="10.00">include/d/a/d_a_npc.h</text>
</a>
</g>
</g>
<!-- Node25&#45;&gt;Node26 -->
<g id="edge13" class="edge">
<title>Node25&#45;&gt;Node26</title>
<path fill="none" stroke="#63b8ff" d="M2016.3,-144.68C1879.84,-141.29 1578.98,-130.01 1548,-96 1539.02,-86.14 1538.78,-75.63 1548,-66 1586.43,-25.88 2421.9,-17.76 2648.01,-16.3"/>
<polygon fill="#63b8ff" stroke="#63b8ff" points="2016.21,-148.18 2026.29,-144.92 2016.37,-141.18 2016.21,-148.18"/>
</g>
<!-- Node32 -->
<g id="node15" class="node">
<title>Node32</title>
<g id="a_node15"><a xlink:href="d__cc__uty_8h.html" target="_top" xlink:title=" ">
<polygon fill="#fff0f0" stroke="red" points="774.5,-90.5 655.5,-90.5 655.5,-71.5 774.5,-71.5 774.5,-90.5"/>
<text text-anchor="middle" x="715" y="-78.5" font-family="Helvetica,sans-Serif" font-size="10.00">include/d/cc/d_cc_uty.h</text>
</a>
</g>
</g>
<!-- Node25&#45;&gt;Node32 -->
<g id="edge14" class="edge">
<title>Node25&#45;&gt;Node32</title>
<path fill="none" stroke="#63b8ff" d="M2016.14,-144.73C1786.43,-140.15 1030.39,-123.35 789,-96 778.35,-94.79 766.93,-92.92 756.32,-90.94"/>
<polygon fill="#63b8ff" stroke="#63b8ff" points="2016.06,-148.23 2026.13,-144.93 2016.2,-141.23 2016.06,-148.23"/>
</g>
<!-- Node33 -->
<g id="node16" class="node">
<title>Node33</title>
<g id="a_node16"><a xlink:href="d__a__b__ob_8h.html" target="_top" xlink:title=" ">
<polygon fill="#fff0f0" stroke="red" points="663,-30 557,-30 557,0 663,0 663,-30"/>
<text text-anchor="start" x="565" y="-18" font-family="Helvetica,sans-Serif" font-size="10.00">include/rel/d/a/b/d</text>
<text text-anchor="middle" x="610" y="-7" font-family="Helvetica,sans-Serif" font-size="10.00">_a_b_ob/d_a_b_ob.h</text>
</a>
</g>
</g>
<!-- Node25&#45;&gt;Node33 -->
<g id="edge37" class="edge">
<title>Node25&#45;&gt;Node33</title>
<path fill="none" stroke="#63b8ff" d="M2016.5,-145.63C1741.33,-143.85 703.49,-134.61 646,-96 623.87,-81.14 615.17,-49.21 611.89,-30.5"/>
<polygon fill="#63b8ff" stroke="#63b8ff" points="2016.34,-149.13 2026.37,-145.69 2016.39,-142.13 2016.34,-149.13"/>
</g>
<!-- Node38 -->
<g id="node17" class="node">
<title>Node38</title>
<g id="a_node17"><a xlink:href="d__a__e__yk_8h.html" target="_top" xlink:title=" ">
<polygon fill="white" stroke="#666666" points="785,-30 681,-30 681,0 785,0 785,-30"/>
<text text-anchor="start" x="689" y="-18" font-family="Helvetica,sans-Serif" font-size="10.00">include/rel/d/a/e/d</text>
<text text-anchor="middle" x="733" y="-7" font-family="Helvetica,sans-Serif" font-size="10.00">_a_e_yk/d_a_e_yk.h</text>
</a>
</g>
</g>
<!-- Node25&#45;&gt;Node38 -->
<g id="edge51" class="edge">
<title>Node25&#45;&gt;Node38</title>
<path fill="none" stroke="#63b8ff" d="M2016.26,-145.22C1777.52,-142.16 974.24,-129.45 864,-96 818.86,-82.3 773.52,-49.3 749.83,-30.24"/>
<polygon fill="#63b8ff" stroke="#63b8ff" points="2015.98,-148.72 2026.02,-145.34 2016.06,-141.72 2015.98,-148.72"/>
</g>
<!-- Node39 -->
<g id="node18" class="node">
<title>Node39</title>
<g id="a_node18"><a xlink:href="d__a__e__ym_8h.html" target="_top" xlink:title=" ">
<polygon fill="#fff0f0" stroke="red" points="913,-30 803,-30 803,0 913,0 913,-30"/>
<text text-anchor="start" x="811" y="-18" font-family="Helvetica,sans-Serif" font-size="10.00">include/rel/d/a/e/d</text>
<text text-anchor="middle" x="858" y="-7" font-family="Helvetica,sans-Serif" font-size="10.00">_a_e_ym/d_a_e_ym.h</text>
</a>
</g>
</g>
<!-- Node25&#45;&gt;Node39 -->
<g id="edge52" class="edge">
<title>Node25&#45;&gt;Node39</title>
<path fill="none" stroke="#63b8ff" d="M2016.65,-145.24C1772.24,-142.18 933.94,-129.28 888,-96 866.98,-80.77 860.68,-48.98 858.8,-30.39"/>
<polygon fill="#63b8ff" stroke="#63b8ff" points="2016.28,-148.73 2026.32,-145.36 2016.36,-141.73 2016.28,-148.73"/>
</g>
<!-- Node42 -->
<g id="node19" class="node">
<title>Node42</title>
<g id="a_node19"><a xlink:href="d__error__msg_8h.html" target="_top" xlink:title=" ">
<polygon fill="#fff0f0" stroke="red" points="1027,-90.5 907,-90.5 907,-71.5 1027,-71.5 1027,-90.5"/>
<text text-anchor="middle" x="967" y="-78.5" font-family="Helvetica,sans-Serif" font-size="10.00">include/d/d_error_msg.h</text>
</a>
</g>
</g>
<!-- Node25&#45;&gt;Node42 -->
<g id="edge18" class="edge">
<title>Node25&#45;&gt;Node42</title>
<path fill="none" stroke="#63b8ff" d="M2016.2,-146.33C1849.89,-146.39 1404.13,-141.86 1036,-96 1026.18,-94.78 1015.66,-92.92 1005.87,-90.97"/>
<polygon fill="#63b8ff" stroke="#63b8ff" points="2016.18,-149.83 2026.18,-146.32 2016.17,-142.83 2016.18,-149.83"/>
</g>
<!-- Node45 -->
<g id="node20" class="node">
<title>Node45</title>
<g id="a_node20"><a xlink:href="d__item_8h.html" target="_top" xlink:title=" ">
<polygon fill="#fff0f0" stroke="red" points="4086.5,-90.5 3991.5,-90.5 3991.5,-71.5 4086.5,-71.5 4086.5,-90.5"/>
<text text-anchor="middle" x="4039" y="-78.5" font-family="Helvetica,sans-Serif" font-size="10.00">include/d/d_item.h</text>
</a>
</g>
</g>
<!-- Node25&#45;&gt;Node45 -->
<g id="edge19" class="edge">
<title>Node25&#45;&gt;Node45</title>
<path fill="none" stroke="#63b8ff" d="M2149.62,-145.99C2441.91,-145.67 3612.43,-141.53 3977,-96 3986.09,-94.87 3995.8,-92.99 4004.78,-90.98"/>
<polygon fill="#63b8ff" stroke="#63b8ff" points="2149.89,-142.49 2139.89,-146 2149.9,-149.49 2149.89,-142.49"/>
</g>
<!-- Node25&#45;&gt;Node11 -->
<g id="edge53" class="edge">
<title>Node25&#45;&gt;Node11</title>
<path fill="none" stroke="#63b8ff" d="M2149.82,-145.44C2472.62,-142.58 3858.63,-128.46 3944,-96 3954.13,-92.15 4006.92,-45.03 4029.13,-24.96"/>
<polygon fill="#63b8ff" stroke="#63b8ff" points="2149.82,-141.94 2139.85,-145.53 2149.89,-148.94 2149.82,-141.94"/>
</g>
<!-- Node50 -->
<g id="node22" class="node">
<title>Node50</title>
<g id="a_node22"><a xlink:href="d__kantera__icon__meter_8h.html" target="_top" xlink:title=" ">
<polygon fill="#fff0f0" stroke="red" points="1146.5,-96 1045.5,-96 1045.5,-66 1146.5,-66 1146.5,-96"/>
<text text-anchor="start" x="1053.5" y="-84" font-family="Helvetica,sans-Serif" font-size="10.00">include/d/d_kantera</text>
<text text-anchor="middle" x="1096" y="-73" font-family="Helvetica,sans-Serif" font-size="10.00">_icon_meter.h</text>
</a>
</g>
</g>
<!-- Node25&#45;&gt;Node50 -->
<g id="edge21" class="edge">
<title>Node25&#45;&gt;Node50</title>
<path fill="none" stroke="#63b8ff" d="M2016.27,-146.49C1863.17,-146.72 1475.22,-142.24 1155,-96 1152.29,-95.61 1149.52,-95.15 1146.74,-94.65"/>
<polygon fill="#63b8ff" stroke="#63b8ff" points="2016.24,-149.99 2026.23,-146.46 2016.23,-142.99 2016.24,-149.99"/>
</g>
<!-- Node52 -->
<g id="node23" class="node">
<title>Node52</title>
<g id="a_node23"><a xlink:href="d__model_8h.html" target="_top" xlink:title=" ">
<polygon fill="#fff0f0" stroke="red" points="1267.5,-90.5 1164.5,-90.5 1164.5,-71.5 1267.5,-71.5 1267.5,-90.5"/>
<text text-anchor="middle" x="1216" y="-78.5" font-family="Helvetica,sans-Serif" font-size="10.00">include/d/d_model.h</text>
</a>
</g>
</g>
<!-- Node25&#45;&gt;Node52 -->
<g id="edge22" class="edge">
<title>Node25&#45;&gt;Node52</title>
<path fill="none" stroke="#63b8ff" d="M2016.66,-145.64C1878.25,-144.05 1548.88,-136 1276,-96 1267.53,-94.76 1258.5,-92.93 1250.08,-90.99"/>
<polygon fill="#63b8ff" stroke="#63b8ff" points="2016.33,-149.13 2026.36,-145.74 2016.4,-142.13 2016.33,-149.13"/>
</g>
<!-- Node54 -->
<g id="node24" class="node">
<title>Node54</title>
<g id="a_node24"><a xlink:href="d__name_8h.html" target="_top" xlink:title=" ">
<polygon fill="#fff0f0" stroke="red" points="1386.5,-90.5 1285.5,-90.5 1285.5,-71.5 1386.5,-71.5 1386.5,-90.5"/>
<text text-anchor="middle" x="1336" y="-78.5" font-family="Helvetica,sans-Serif" font-size="10.00">include/d/d_name.h</text>
</a>
</g>
</g>
<!-- Node25&#45;&gt;Node54 -->
<g id="edge23" class="edge">
<title>Node25&#45;&gt;Node54</title>
<path fill="none" stroke="#63b8ff" d="M2016.46,-144.61C1893.34,-141.28 1621.91,-130.36 1396,-96 1387.54,-94.71 1378.51,-92.86 1370.09,-90.93"/>
<polygon fill="#63b8ff" stroke="#63b8ff" points="2016.31,-148.11 2026.39,-144.87 2016.49,-141.11 2016.31,-148.11"/>
</g>
<!-- Node55 -->
<g id="node25" class="node">
<title>Node55</title>
<g id="a_node25"><a xlink:href="d__file__select_8h.html" target="_top" xlink:title=" ">
<polygon fill="#fff0f0" stroke="red" points="1384,-30 1288,-30 1288,0 1384,0 1384,-30"/>
<text text-anchor="start" x="1296" y="-18" font-family="Helvetica,sans-Serif" font-size="10.00">include/d/file/d_file</text>
<text text-anchor="middle" x="1336" y="-7" font-family="Helvetica,sans-Serif" font-size="10.00">_select.h</text>
</a>
</g>
</g>
<!-- Node25&#45;&gt;Node55 -->
<g id="edge28" class="edge">
<title>Node25&#45;&gt;Node55</title>
<path fill="none" stroke="#63b8ff" d="M2016.36,-145.71C1771.96,-144.31 936.9,-136.58 898,-96 888.77,-86.38 889.12,-75.95 898,-66 923.61,-37.3 1179.02,-22.85 1287.58,-17.96"/>
<polygon fill="#63b8ff" stroke="#63b8ff" points="2016.02,-149.21 2026.04,-145.76 2016.06,-142.21 2016.02,-149.21"/>
</g>
<!-- Node57 -->
<g id="node26" class="node">
<title>Node57</title>
<g id="a_node26"><a xlink:href="d__file__sel__info_8h.html" target="_top" xlink:title=" ">
<polygon fill="#fff0f0" stroke="red" points="1653,-96 1557,-96 1557,-66 1653,-66 1653,-96"/>
<text text-anchor="start" x="1565" y="-84" font-family="Helvetica,sans-Serif" font-size="10.00">include/d/file/d_file</text>
<text text-anchor="middle" x="1605" y="-73" font-family="Helvetica,sans-Serif" font-size="10.00">_sel_info.h</text>
</a>
</g>
</g>
<!-- Node25&#45;&gt;Node57 -->
<g id="edge25" class="edge">
<title>Node25&#45;&gt;Node57</title>
<path fill="none" stroke="#63b8ff" d="M2016.18,-140.61C1932.83,-133.31 1786.16,-118.53 1662,-96 1659.19,-95.49 1656.32,-94.93 1653.42,-94.32"/>
<polygon fill="#63b8ff" stroke="#63b8ff" points="2015.74,-144.09 2026,-141.46 2016.34,-137.11 2015.74,-144.09"/>
</g>
<!-- Node59 -->
<g id="node27" class="node">
<title>Node59</title>
<g id="a_node27"><a xlink:href="d__file__sel__warning_8h.html" target="_top" xlink:title=" ">
<polygon fill="#fff0f0" stroke="red" points="1501,-96 1405,-96 1405,-66 1501,-66 1501,-96"/>
<text text-anchor="start" x="1413" y="-84" font-family="Helvetica,sans-Serif" font-size="10.00">include/d/file/d_file</text>
<text text-anchor="middle" x="1453" y="-73" font-family="Helvetica,sans-Serif" font-size="10.00">_sel_warning.h</text>
</a>
</g>
</g>
<!-- Node25&#45;&gt;Node59 -->
<g id="edge26" class="edge">
<title>Node25&#45;&gt;Node59</title>
<path fill="none" stroke="#63b8ff" d="M2016.68,-143.05C1910.33,-137.68 1695.24,-124.15 1515,-96 1510.53,-95.3 1505.9,-94.47 1501.28,-93.56"/>
<polygon fill="#63b8ff" stroke="#63b8ff" points="2016.2,-146.54 2026.36,-143.53 2016.55,-139.54 2016.2,-146.54"/>
</g>
<!-- Node61 -->
<g id="node28" class="node">
<title>Node61</title>
<g id="a_node28"><a xlink:href="d__menu__calibration_8h.html" target="_top" xlink:title=" ">
<polygon fill="#fff0f0" stroke="red" points="1791,-96 1671,-96 1671,-66 1791,-66 1791,-96"/>
<text text-anchor="start" x="1679" y="-84" font-family="Helvetica,sans-Serif" font-size="10.00">include/d/menu/d_menu</text>
<text text-anchor="middle" x="1731" y="-73" font-family="Helvetica,sans-Serif" font-size="10.00">_calibration.h</text>
</a>
</g>
</g>
<!-- Node25&#45;&gt;Node61 -->
<g id="edge29" class="edge">
<title>Node25&#45;&gt;Node61</title>
<path fill="none" stroke="#63b8ff" d="M2016.51,-134.74C1959.11,-124.91 1873.99,-110.04 1800,-96 1797.12,-95.45 1794.17,-94.89 1791.19,-94.31"/>
<polygon fill="#63b8ff" stroke="#63b8ff" points="2015.67,-138.15 2026.12,-136.39 2016.85,-131.25 2015.67,-138.15"/>
</g>
<!-- Node63 -->
<g id="node29" class="node">
<title>Node63</title>
<g id="a_node29"><a xlink:href="d__meter2_8h.html" target="_top" xlink:title=" ">
<polygon fill="#fff0f0" stroke="red" points="1943,-90.5 1809,-90.5 1809,-71.5 1943,-71.5 1943,-90.5"/>
<text text-anchor="middle" x="1876" y="-78.5" font-family="Helvetica,sans-Serif" font-size="10.00">include/d/meter/d_meter2.h</text>
</a>
</g>
</g>
<!-- Node25&#45;&gt;Node63 -->
<g id="edge30" class="edge">
<title>Node25&#45;&gt;Node63</title>
<path fill="none" stroke="#63b8ff" d="M2025.3,-128.16C1986.15,-116.06 1936.05,-100.56 1904.99,-90.96"/>
<polygon fill="#63b8ff" stroke="#63b8ff" points="2024.25,-131.5 2034.84,-131.11 2026.32,-124.81 2024.25,-131.5"/>
</g>
<!-- Node73 -->
<g id="node30" class="node">
<title>Node73</title>
<g id="a_node30"><a xlink:href="d__msg__object_8h.html" target="_top" xlink:title=" ">
<polygon fill="#fff0f0" stroke="red" points="3935,-96 3825,-96 3825,-66 3935,-66 3935,-96"/>
<text text-anchor="start" x="3833" y="-84" font-family="Helvetica,sans-Serif" font-size="10.00">include/d/msg/d_msg</text>
<text text-anchor="middle" x="3880" y="-73" font-family="Helvetica,sans-Serif" font-size="10.00">_object.h</text>
</a>
</g>
</g>
<!-- Node25&#45;&gt;Node73 -->
<g id="edge31" class="edge">
<title>Node25&#45;&gt;Node73</title>
<path fill="none" stroke="#63b8ff" d="M2149.73,-145.74C2426.45,-144.4 3484.66,-136.66 3816,-96 3818.82,-95.65 3821.7,-95.24 3824.61,-94.78"/>
<polygon fill="#63b8ff" stroke="#63b8ff" points="2149.79,-142.24 2139.81,-145.79 2149.83,-149.24 2149.79,-142.24"/>
</g>
<!-- Node92 -->
<g id="node31" class="node">
<title>Node92</title>
<g id="a_node31"><a xlink:href="d__s__logo_8h.html" target="_top" xlink:title=" ">
<polygon fill="#fff0f0" stroke="red" points="2074.5,-90.5 1961.5,-90.5 1961.5,-71.5 2074.5,-71.5 2074.5,-90.5"/>
<text text-anchor="middle" x="2018" y="-78.5" font-family="Helvetica,sans-Serif" font-size="10.00">include/d/s/d_s_logo.h</text>
</a>
</g>
</g>
<!-- Node25&#45;&gt;Node92 -->
<g id="edge34" class="edge">
<title>Node25&#45;&gt;Node92</title>
<path fill="none" stroke="#63b8ff" d="M2060.6,-123.94C2049.06,-112.58 2035.63,-99.36 2026.98,-90.84"/>
<polygon fill="#63b8ff" stroke="#63b8ff" points="2057.91,-126.21 2067.5,-130.73 2062.83,-121.22 2057.91,-126.21"/>
</g>
<!-- Node94 -->
<g id="node32" class="node">
<title>Node94</title>
<g id="a_node32"><a xlink:href="d__s__play_8h.html" target="_top" xlink:title=" ">
<polygon fill="#fff0f0" stroke="red" points="2205.5,-90.5 2092.5,-90.5 2092.5,-71.5 2205.5,-71.5 2205.5,-90.5"/>
<text text-anchor="middle" x="2149" y="-78.5" font-family="Helvetica,sans-Serif" font-size="10.00">include/d/s/d_s_play.h</text>
</a>
</g>
</g>
<!-- Node25&#45;&gt;Node94 -->
<g id="edge35" class="edge">
<title>Node25&#45;&gt;Node94</title>
<path fill="none" stroke="#63b8ff" d="M2105.75,-123.94C2117.46,-112.58 2131.1,-99.36 2139.88,-90.84"/>
<polygon fill="#63b8ff" stroke="#63b8ff" points="2103.48,-121.27 2098.73,-130.74 2108.35,-126.29 2103.48,-121.27"/>
</g>
<!-- Node101 -->
<g id="node33" class="node">
<title>Node101</title>
<g id="a_node33"><a xlink:href="d__msg__scrn__base_8h.html" target="_top" xlink:title=" ">
<polygon fill="#fff0f0" stroke="red" points="2322.5,-96 2223.5,-96 2223.5,-66 2322.5,-66 2322.5,-96"/>
<text text-anchor="start" x="2231.5" y="-84" font-family="Helvetica,sans-Serif" font-size="10.00">include/msg/scrn/d</text>
<text text-anchor="middle" x="2273" y="-73" font-family="Helvetica,sans-Serif" font-size="10.00">_msg_scrn_base.h</text>
</a>
</g>
</g>
<!-- Node25&#45;&gt;Node101 -->
<g id="edge36" class="edge">
<title>Node25&#45;&gt;Node101</title>
<path fill="none" stroke="#63b8ff" d="M2136.24,-128.07C2165.91,-118.07 2202.36,-105.79 2230.17,-96.43"/>
<polygon fill="#63b8ff" stroke="#63b8ff" points="2135.43,-124.64 2127.07,-131.15 2137.67,-131.28 2135.43,-124.64"/>
</g>
<!-- Node105 -->
<g id="node34" class="node">
<title>Node105</title>
<g id="a_node34"><a xlink:href="d__a__b__zant_8h.html" target="_top" xlink:title=" ">
<polygon fill="white" stroke="#666666" points="2461.5,-96 2340.5,-96 2340.5,-66 2461.5,-66 2461.5,-96"/>
<text text-anchor="start" x="2348.5" y="-84" font-family="Helvetica,sans-Serif" font-size="10.00">include/rel/d/a/b/d</text>
<text text-anchor="middle" x="2401" y="-73" font-family="Helvetica,sans-Serif" font-size="10.00">_a_b_zant/d_a_b_zant.h</text>
</a>
</g>
</g>
<!-- Node25&#45;&gt;Node105 -->
<g id="edge38" class="edge">
<title>Node25&#45;&gt;Node105</title>
<path fill="none" stroke="#63b8ff" d="M2149.41,-132.7C2199.57,-122.65 2270.12,-108.49 2332,-96 2334.64,-95.47 2337.33,-94.92 2340.05,-94.37"/>
<polygon fill="#63b8ff" stroke="#63b8ff" points="2148.99,-129.22 2139.87,-134.61 2150.37,-136.08 2148.99,-129.22"/>
</g>
<!-- Node106 -->
<g id="node35" class="node">
<title>Node106</title>
<g id="a_node35"><a xlink:href="d__a__andsw_8h.html" target="_top" xlink:title=" ">
<polygon fill="white" stroke="#666666" points="2590,-96 2480,-96 2480,-66 2590,-66 2590,-96"/>
<text text-anchor="start" x="2488" y="-84" font-family="Helvetica,sans-Serif" font-size="10.00">include/rel/d/a/d_a</text>
<text text-anchor="middle" x="2535" y="-73" font-family="Helvetica,sans-Serif" font-size="10.00">_andsw/d_a_andsw.h</text>
</a>
</g>
</g>
<!-- Node25&#45;&gt;Node106 -->
<g id="edge39" class="edge">
<title>Node25&#45;&gt;Node106</title>
<path fill="none" stroke="#63b8ff" d="M2149.52,-139.21C2227,-130.89 2358.74,-115.47 2471,-96 2473.8,-95.51 2476.67,-94.99 2479.56,-94.44"/>
<polygon fill="#63b8ff" stroke="#63b8ff" points="2149.56,-135.69 2139.99,-140.23 2150.3,-142.65 2149.56,-135.69"/>
</g>
<!-- Node107 -->
<g id="node36" class="node">
<title>Node107</title>
<g id="a_node36"><a xlink:href="d__a__cstaF_8h.html" target="_top" xlink:title=" ">
<polygon fill="white" stroke="#666666" points="2711.5,-96 2608.5,-96 2608.5,-66 2711.5,-66 2711.5,-96"/>
<text text-anchor="start" x="2616.5" y="-84" font-family="Helvetica,sans-Serif" font-size="10.00">include/rel/d/a/d_a</text>
<text text-anchor="middle" x="2660" y="-73" font-family="Helvetica,sans-Serif" font-size="10.00">_cstaF/d_a_cstaF.h</text>
</a>
</g>
</g>
<!-- Node25&#45;&gt;Node107 -->
<g id="edge40" class="edge">
<title>Node25&#45;&gt;Node107</title>
<path fill="none" stroke="#63b8ff" d="M2149.56,-142.3C2248.19,-136.2 2438.77,-122.04 2599,-96 2602,-95.51 2605.08,-94.96 2608.18,-94.37"/>
<polygon fill="#63b8ff" stroke="#63b8ff" points="2149.56,-138.8 2139.8,-142.9 2149.99,-145.78 2149.56,-138.8"/>
</g>
<!-- Node108 -->
<g id="node37" class="node">
<title>Node108</title>
<g id="a_node37"><a xlink:href="d__a__dmidna_8h.html" target="_top" xlink:title=" ">
<polygon fill="white" stroke="#666666" points="2846,-96 2730,-96 2730,-66 2846,-66 2846,-96"/>
<text text-anchor="start" x="2738" y="-84" font-family="Helvetica,sans-Serif" font-size="10.00">include/rel/d/a/d_a</text>
<text text-anchor="middle" x="2788" y="-73" font-family="Helvetica,sans-Serif" font-size="10.00">_dmidna/d_a_dmidna.h</text>
</a>
</g>
</g>
<!-- Node25&#45;&gt;Node108 -->
<g id="edge41" class="edge">
<title>Node25&#45;&gt;Node108</title>
<path fill="none" stroke="#63b8ff" d="M2149.48,-143.59C2265.83,-138.75 2513.71,-125.66 2721,-96 2723.82,-95.6 2726.71,-95.14 2729.61,-94.66"/>
<polygon fill="#63b8ff" stroke="#63b8ff" points="2149.67,-140.08 2139.82,-143.98 2149.95,-147.07 2149.67,-140.08"/>
</g>
<!-- Node109 -->
<g id="node38" class="node">
<title>Node109</title>
<g id="a_node38"><a xlink:href="d__a__econt_8h.html" target="_top" xlink:title=" ">
<polygon fill="white" stroke="#666666" points="2965.5,-96 2864.5,-96 2864.5,-66 2965.5,-66 2965.5,-96"/>
<text text-anchor="start" x="2872.5" y="-84" font-family="Helvetica,sans-Serif" font-size="10.00">include/rel/d/a/d_a</text>
<text text-anchor="middle" x="2915" y="-73" font-family="Helvetica,sans-Serif" font-size="10.00">_econt/d_a_econt.h</text>
</a>
</g>
</g>
<!-- Node25&#45;&gt;Node109 -->
<g id="edge42" class="edge">
<title>Node25&#45;&gt;Node109</title>
<path fill="none" stroke="#63b8ff" d="M2149.35,-145.37C2283.4,-143.29 2595.84,-134.36 2855,-96 2857.96,-95.56 2861,-95.05 2864.05,-94.49"/>
<polygon fill="#63b8ff" stroke="#63b8ff" points="2149.55,-141.87 2139.6,-145.51 2149.65,-148.87 2149.55,-141.87"/>
</g>
<!-- Node110 -->
<g id="node39" class="node">
<title>Node110</title>
<g id="a_node39"><a xlink:href="d__a__guard__mng_8h.html" target="_top" xlink:title=" ">
<polygon fill="white" stroke="#666666" points="3132.5,-96 2983.5,-96 2983.5,-66 3132.5,-66 3132.5,-96"/>
<text text-anchor="start" x="2991.5" y="-84" font-family="Helvetica,sans-Serif" font-size="10.00">include/rel/d/a/d_a</text>
<text text-anchor="middle" x="3058" y="-73" font-family="Helvetica,sans-Serif" font-size="10.00">_guard_mng/d_a_guard_mng.h</text>
</a>
</g>
</g>
<!-- Node25&#45;&gt;Node110 -->
<g id="edge43" class="edge">
<title>Node25&#45;&gt;Node110</title>
<path fill="none" stroke="#63b8ff" d="M2149.39,-144.8C2297.81,-141.56 2667.6,-130.43 2975,-96 2977.76,-95.69 2980.57,-95.35 2983.4,-94.99"/>
<polygon fill="#63b8ff" stroke="#63b8ff" points="2149.68,-141.29 2139.76,-145 2149.83,-148.29 2149.68,-141.29"/>
</g>
<!-- Node111 -->
<g id="node40" class="node">
<title>Node111</title>
<g id="a_node40"><a xlink:href="d__a__hitobj_8h.html" target="_top" xlink:title=" ">
<polygon fill="white" stroke="#666666" points="3251,-96 3151,-96 3151,-66 3251,-66 3251,-96"/>
<text text-anchor="start" x="3159" y="-84" font-family="Helvetica,sans-Serif" font-size="10.00">include/rel/d/a/d_a</text>
<text text-anchor="middle" x="3201" y="-73" font-family="Helvetica,sans-Serif" font-size="10.00">_hitobj/d_a_hitobj.h</text>
</a>
</g>
</g>
<!-- Node25&#45;&gt;Node111 -->
<g id="edge44" class="edge">
<title>Node25&#45;&gt;Node111</title>
<path fill="none" stroke="#63b8ff" d="M2149.65,-144.47C2350.67,-139.62 2949.02,-123.21 3142,-96 3144.81,-95.6 3147.69,-95.13 3150.59,-94.61"/>
<polygon fill="#63b8ff" stroke="#63b8ff" points="2149.82,-140.97 2139.91,-144.71 2149.99,-147.97 2149.82,-140.97"/>
</g>
<!-- Node112 -->
<g id="node41" class="node">
<title>Node112</title>
<g id="a_node41"><a xlink:href="d__a__set__bgobj_8h.html" target="_top" xlink:title=" ">
<polygon fill="white" stroke="#666666" points="3406.5,-96 3269.5,-96 3269.5,-66 3406.5,-66 3406.5,-96"/>
<text text-anchor="start" x="3277.5" y="-84" font-family="Helvetica,sans-Serif" font-size="10.00">include/rel/d/a/d_a</text>
<text text-anchor="middle" x="3338" y="-73" font-family="Helvetica,sans-Serif" font-size="10.00">_set_bgobj/d_a_set_bgobj.h</text>
</a>
</g>
</g>
<!-- Node25&#45;&gt;Node112 -->
<g id="edge45" class="edge">
<title>Node25&#45;&gt;Node112</title>
<path fill="none" stroke="#63b8ff" d="M2149.72,-146.32C2329.58,-146.49 2839.28,-142.48 3260,-96 3263.01,-95.67 3266.08,-95.29 3269.17,-94.87"/>
<polygon fill="#63b8ff" stroke="#63b8ff" points="2149.87,-142.82 2139.87,-146.3 2149.86,-149.82 2149.87,-142.82"/>
</g>
<!-- Node113 -->
<g id="node42" class="node">
<title>Node113</title>
<g id="a_node42"><a xlink:href="d__a__skip__2D_8h.html" target="_top" xlink:title=" ">
<polygon fill="white" stroke="#666666" points="3549,-96 3425,-96 3425,-66 3549,-66 3549,-96"/>
<text text-anchor="start" x="3433" y="-84" font-family="Helvetica,sans-Serif" font-size="10.00">include/rel/d/a/d_a</text>
<text text-anchor="middle" x="3487" y="-73" font-family="Helvetica,sans-Serif" font-size="10.00">_skip_2D/d_a_skip_2D.h</text>
</a>
</g>
</g>
<!-- Node25&#45;&gt;Node113 -->
<g id="edge46" class="edge">
<title>Node25&#45;&gt;Node113</title>
<path fill="none" stroke="#63b8ff" d="M2149.53,-144.89C2383.33,-140.77 3166.6,-125.08 3416,-96 3418.87,-95.67 3421.8,-95.28 3424.75,-94.85"/>
<polygon fill="#63b8ff" stroke="#63b8ff" points="2149.61,-141.39 2139.67,-145.06 2149.73,-148.39 2149.61,-141.39"/>
</g>
<!-- Node114 -->
<g id="node43" class="node">
<title>Node114</title>
<g id="a_node43"><a xlink:href="d__a__spinner_8h.html" target="_top" xlink:title=" ">
<polygon fill="#fff0f0" stroke="red" points="4221,-96 4105,-96 4105,-66 4221,-66 4221,-96"/>
<text text-anchor="start" x="4113" y="-84" font-family="Helvetica,sans-Serif" font-size="10.00">include/rel/d/a/d_a</text>
<text text-anchor="middle" x="4163" y="-73" font-family="Helvetica,sans-Serif" font-size="10.00">_spinner/d_a_spinner.h</text>
</a>
</g>
</g>
<!-- Node25&#45;&gt;Node114 -->
<g id="edge47" class="edge">
<title>Node25&#45;&gt;Node114</title>
<path fill="none" stroke="#63b8ff" d="M2149.27,-145.97C2452.11,-145.57 3706.22,-141.19 4096,-96 4098.83,-95.67 4101.72,-95.28 4104.64,-94.84"/>
<polygon fill="#63b8ff" stroke="#63b8ff" points="2149.58,-142.47 2139.58,-145.98 2149.59,-149.47 2149.58,-142.47"/>
</g>
<!-- Node117 -->
<g id="node44" class="node">
<title>Node117</title>
<g id="a_node44"><a xlink:href="d__a__swTime_8h.html" target="_top" xlink:title=" ">
<polygon fill="white" stroke="#666666" points="3689,-96 3567,-96 3567,-66 3689,-66 3689,-96"/>
<text text-anchor="start" x="3575" y="-84" font-family="Helvetica,sans-Serif" font-size="10.00">include/rel/d/a/d_a</text>
<text text-anchor="middle" x="3628" y="-73" font-family="Helvetica,sans-Serif" font-size="10.00">_swTime/d_a_swTime.h</text>
</a>
</g>
</g>
<!-- Node25&#45;&gt;Node117 -->
<g id="edge49" class="edge">
<title>Node25&#45;&gt;Node117</title>
<path fill="none" stroke="#63b8ff" d="M2149.82,-145.19C2399.79,-141.92 3279.59,-128.34 3558,-96 3560.83,-95.67 3563.72,-95.29 3566.63,-94.86"/>
<polygon fill="#63b8ff" stroke="#63b8ff" points="2149.87,-141.69 2139.92,-145.32 2149.96,-148.69 2149.87,-141.69"/>
</g>
<!-- Node118 -->
<g id="node45" class="node">
<title>Node118</title>
<g id="a_node45"><a xlink:href="d__a__vrbox_8h.html" target="_top" xlink:title=" ">
<polygon fill="white" stroke="#666666" points="3807,-96 3707,-96 3707,-66 3807,-66 3807,-96"/>
<text text-anchor="start" x="3715" y="-84" font-family="Helvetica,sans-Serif" font-size="10.00">include/rel/d/a/d_a</text>
<text text-anchor="middle" x="3757" y="-73" font-family="Helvetica,sans-Serif" font-size="10.00">_vrbox/d_a_vrbox.h</text>
</a>
</g>
</g>
<!-- Node25&#45;&gt;Node118 -->
<g id="edge50" class="edge">
<title>Node25&#45;&gt;Node118</title>
<path fill="none" stroke="#63b8ff" d="M2149.52,-145.73C2413.98,-144.39 3391.29,-136.71 3698,-96 3700.82,-95.63 3703.7,-95.18 3706.59,-94.67"/>
<polygon fill="#63b8ff" stroke="#63b8ff" points="2149.7,-142.23 2139.72,-145.78 2149.74,-149.23 2149.7,-142.23"/>
</g>
<!-- Node32&#45;&gt;Node33 -->
<g id="edge15" class="edge">
<title>Node32&#45;&gt;Node33</title>
<path fill="none" stroke="#63b8ff" d="M690.58,-65.11C673.46,-54.68 650.71,-40.82 633.75,-30.48"/>
<polygon fill="#63b8ff" stroke="#63b8ff" points="688.75,-68.1 699.11,-70.31 692.39,-62.12 688.75,-68.1"/>
</g>
<!-- Node32&#45;&gt;Node38 -->
<g id="edge16" class="edge">
<title>Node32&#45;&gt;Node38</title>
<path fill="none" stroke="#63b8ff" d="M720.6,-60.1C723.32,-50.43 726.53,-39.02 729,-30.23"/>
<polygon fill="#63b8ff" stroke="#63b8ff" points="717.25,-59.07 717.91,-69.64 723.99,-60.97 717.25,-59.07"/>
</g>
<!-- Node32&#45;&gt;Node39 -->
<g id="edge17" class="edge">
<title>Node32&#45;&gt;Node39</title>
<path fill="none" stroke="#63b8ff" d="M745.34,-66.42C768.92,-55.87 801.57,-41.26 825.65,-30.48"/>
<polygon fill="#63b8ff" stroke="#63b8ff" points="743.96,-63.2 736.27,-70.48 746.82,-69.59 743.96,-63.2"/>
</g>
<!-- Node45&#45;&gt;Node11 -->
<g id="edge20" class="edge">
<title>Node45&#45;&gt;Node11</title>
<path fill="none" stroke="#63b8ff" d="M4039,-59.68C4039,-47.94 4039,-33.77 4039,-24.82"/>
<polygon fill="#63b8ff" stroke="#63b8ff" points="4035.5,-59.59 4039,-69.59 4042.5,-59.59 4035.5,-59.59"/>
</g>
<!-- Node54&#45;&gt;Node55 -->
<g id="edge24" class="edge">
<title>Node54&#45;&gt;Node55</title>
<path fill="none" stroke="#63b8ff" d="M1336,-59.78C1336,-50.17 1336,-38.92 1336,-30.23"/>
<polygon fill="#63b8ff" stroke="#63b8ff" points="1332.5,-59.59 1336,-69.59 1339.5,-59.59 1332.5,-59.59"/>
</g>
<!-- Node59&#45;&gt;Node55 -->
<g id="edge27" class="edge">
<title>Node59&#45;&gt;Node55</title>
<path fill="none" stroke="#63b8ff" d="M1416.77,-60.18C1399.11,-50.52 1378.26,-39.12 1362.17,-30.31"/>
<polygon fill="#63b8ff" stroke="#63b8ff" points="1414.96,-63.18 1425.42,-64.91 1418.32,-57.04 1414.96,-63.18"/>
</g>
<!-- Node73&#45;&gt;Node26 -->
<g id="edge32" class="edge">
<title>Node73&#45;&gt;Node26</title>
<path fill="none" stroke="#63b8ff" d="M3813.47,-65.87C3586.77,-38.26 2951.92,-21.75 2759.76,-17.25"/>
<polygon fill="#63b8ff" stroke="#63b8ff" points="3812.74,-69.3 3823.1,-67.09 3813.62,-62.36 3812.74,-69.3"/>
</g>
<!-- Node73&#45;&gt;Node11 -->
<g id="edge33" class="edge">
<title>Node73&#45;&gt;Node11</title>
<path fill="none" stroke="#63b8ff" d="M3926.26,-61.38C3956.01,-49.41 3993.33,-34.38 4016.68,-24.99"/>
<polygon fill="#63b8ff" stroke="#63b8ff" points="3925.06,-58.09 3917.09,-65.07 3927.67,-64.58 3925.06,-58.09"/>
</g>
<!-- Node114&#45;&gt;Node11 -->
<g id="edge48" class="edge">
<title>Node114&#45;&gt;Node11</title>
<path fill="none" stroke="#63b8ff" d="M4125.08,-60.43C4102.2,-48.62 4074.14,-34.14 4056.41,-24.99"/>
<polygon fill="#63b8ff" stroke="#63b8ff" points="4123.34,-63.47 4133.83,-64.94 4126.55,-57.25 4123.34,-63.47"/>
</g>
</g>
</svg>
