<?xml version="1.0" encoding="UTF-8" standalone="no"?>
<!DOCTYPE svg PUBLIC "-//W3C//DTD SVG 1.1//EN"
 "http://www.w3.org/Graphics/SVG/1.1/DTD/svg11.dtd">
<!-- Generated by graphviz version 7.0.5 (20221223.1930)
 -->
<!-- Title: include/JSystem/J3DGraphBase/J3DTevs.h Pages: 1 -->
<svg width="4269pt" height="379pt"
 viewBox="0.00 0.00 4269.01 379.00" xmlns="http://www.w3.org/2000/svg" xmlns:xlink="http://www.w3.org/1999/xlink">
<g id="graph0" class="graph" transform="scale(1 1) rotate(0) translate(4 375)">
<title>include/JSystem/J3DGraphBase/J3DTevs.h</title>
<!-- Node1 -->
<g id="node1" class="node">
<title>Node1</title>
<g id="a_node1"><a xlink:title=" ">
<polygon fill="#999999" stroke="#666666" points="1213.5,-371 1078.5,-371 1078.5,-341 1213.5,-341 1213.5,-371"/>
<text text-anchor="start" x="1086.5" y="-359" font-family="Helvetica,sans-Serif" font-size="10.00">include/JSystem/J3DGraph</text>
<text text-anchor="middle" x="1146" y="-348" font-family="Helvetica,sans-Serif" font-size="10.00">Base/J3DTevs.h</text>
</a>
</g>
</g>
<!-- Node2 -->
<g id="node2" class="node">
<title>Node2</title>
<g id="a_node2"><a xlink:href="J3DMatBlock_8h.html" target="_top" xlink:title=" ">
<polygon fill="white" stroke="#666666" points="1048.5,-305 913.5,-305 913.5,-275 1048.5,-275 1048.5,-305"/>
<text text-anchor="start" x="921.5" y="-293" font-family="Helvetica,sans-Serif" font-size="10.00">include/JSystem/J3DGraph</text>
<text text-anchor="middle" x="981" y="-282" font-family="Helvetica,sans-Serif" font-size="10.00">Base/J3DMatBlock.h</text>
</a>
</g>
</g>
<!-- Node1&#45;&gt;Node2 -->
<g id="edge1" class="edge">
<title>Node1&#45;&gt;Node2</title>
<path fill="none" stroke="#63b8ff" d="M1098.41,-336.54C1072.89,-326.64 1041.92,-314.63 1018.19,-305.43"/>
<polygon fill="#63b8ff" stroke="#63b8ff" points="1096.97,-339.74 1107.56,-340.09 1099.5,-333.21 1096.97,-339.74"/>
</g>
<!-- Node3 -->
<g id="node3" class="node">
<title>Node3</title>
<g id="a_node3"><a xlink:href="J3DMaterial_8h.html" target="_top" xlink:title=" ">
<polygon fill="white" stroke="#666666" points="693.5,-239 558.5,-239 558.5,-209 693.5,-209 693.5,-239"/>
<text text-anchor="start" x="566.5" y="-227" font-family="Helvetica,sans-Serif" font-size="10.00">include/JSystem/J3DGraph</text>
<text text-anchor="middle" x="626" y="-216" font-family="Helvetica,sans-Serif" font-size="10.00">Base/J3DMaterial.h</text>
</a>
</g>
</g>
<!-- Node1&#45;&gt;Node3 -->
<g id="edge57" class="edge">
<title>Node1&#45;&gt;Node3</title>
<path fill="none" stroke="#63b8ff" d="M1067.07,-343.57C1011.77,-334.85 936.36,-321.53 871,-305 796.82,-286.24 712.43,-256.85 664.56,-239.4"/>
<polygon fill="#63b8ff" stroke="#63b8ff" points="1066.29,-346.99 1076.71,-345.07 1067.37,-340.07 1066.29,-346.99"/>
</g>
<!-- Node169 -->
<g id="node11" class="node">
<title>Node169</title>
<g id="a_node11"><a xlink:href="d__resorce_8cpp.html" target="_top" xlink:title=" ">
<polygon fill="white" stroke="#666666" points="599,-96 497,-96 497,-77 599,-77 599,-96"/>
<text text-anchor="middle" x="548" y="-84" font-family="Helvetica,sans-Serif" font-size="10.00">src/d/d_resorce.cpp</text>
</a>
</g>
</g>
<!-- Node1&#45;&gt;Node169 -->
<g id="edge61" class="edge">
<title>Node1&#45;&gt;Node169</title>
<path fill="none" stroke="#63b8ff" d="M1066.77,-347.81C1005.35,-340.61 926.93,-327.33 904,-305 851.01,-253.41 920.54,-192.94 866,-143 824.44,-104.95 670.08,-118.9 615,-107 601.86,-104.16 587.51,-100.12 575.48,-96.45"/>
<polygon fill="#63b8ff" stroke="#63b8ff" points="1066.2,-351.27 1076.53,-348.92 1066.98,-344.31 1066.2,-351.27"/>
</g>
<!-- Node288 -->
<g id="node47" class="node">
<title>Node288</title>
<g id="a_node47"><a xlink:href="J3DMaterialAttach_8cpp.html" target="_top" xlink:title=" ">
<polygon fill="white" stroke="#666666" points="1225,-305 1067,-305 1067,-275 1225,-275 1225,-305"/>
<text text-anchor="start" x="1075" y="-293" font-family="Helvetica,sans-Serif" font-size="10.00">libs/JSystem/J3DGraphAnimator</text>
<text text-anchor="middle" x="1146" y="-282" font-family="Helvetica,sans-Serif" font-size="10.00">/J3DMaterialAttach.cpp</text>
</a>
</g>
</g>
<!-- Node1&#45;&gt;Node288 -->
<g id="edge58" class="edge">
<title>Node1&#45;&gt;Node288</title>
<path fill="none" stroke="#63b8ff" d="M1146,-329.39C1146,-321.13 1146,-312.28 1146,-305.16"/>
<polygon fill="#63b8ff" stroke="#63b8ff" points="1142.5,-329.28 1146,-339.28 1149.5,-329.28 1142.5,-329.28"/>
</g>
<!-- Node383 -->
<g id="node48" class="node">
<title>Node383</title>
<g id="a_node48"><a xlink:href="J3DSys_8cpp.html" target="_top" xlink:title=" ">
<polygon fill="white" stroke="#666666" points="1385,-305 1243,-305 1243,-275 1385,-275 1385,-305"/>
<text text-anchor="start" x="1251" y="-293" font-family="Helvetica,sans-Serif" font-size="10.00">libs/JSystem/J3DGraphBase</text>
<text text-anchor="middle" x="1314" y="-282" font-family="Helvetica,sans-Serif" font-size="10.00">/J3DSys.cpp</text>
</a>
</g>
</g>
<!-- Node1&#45;&gt;Node383 -->
<g id="edge59" class="edge">
<title>Node1&#45;&gt;Node383</title>
<path fill="none" stroke="#63b8ff" d="M1194.46,-336.54C1220.44,-326.64 1251.97,-314.63 1276.13,-305.43"/>
<polygon fill="#63b8ff" stroke="#63b8ff" points="1193.22,-333.27 1185.12,-340.1 1195.71,-339.81 1193.22,-333.27"/>
</g>
<!-- Node384 -->
<g id="node49" class="node">
<title>Node384</title>
<g id="a_node49"><a xlink:href="J3DTevs_8cpp.html" target="_top" xlink:title=" ">
<polygon fill="white" stroke="#666666" points="1545,-305 1403,-305 1403,-275 1545,-275 1545,-305"/>
<text text-anchor="start" x="1411" y="-293" font-family="Helvetica,sans-Serif" font-size="10.00">libs/JSystem/J3DGraphBase</text>
<text text-anchor="middle" x="1474" y="-282" font-family="Helvetica,sans-Serif" font-size="10.00">/J3DTevs.cpp</text>
</a>
</g>
</g>
<!-- Node1&#45;&gt;Node384 -->
<g id="edge60" class="edge">
<title>Node1&#45;&gt;Node384</title>
<path fill="none" stroke="#63b8ff" d="M1225.24,-339.54C1279.33,-328.98 1350.4,-315.12 1402.72,-304.91"/>
<polygon fill="#63b8ff" stroke="#63b8ff" points="1224.59,-336.1 1215.45,-341.45 1225.93,-342.97 1224.59,-336.1"/>
</g>
<!-- Node291 -->
<g id="node50" class="node">
<title>Node291</title>
<g id="a_node50"><a xlink:href="m__Do__ext_8cpp.html" target="_top" xlink:title=" ">
<polygon fill="white" stroke="#666666" points="1686.5,-299.5 1563.5,-299.5 1563.5,-280.5 1686.5,-280.5 1686.5,-299.5"/>
<text text-anchor="middle" x="1625" y="-287.5" font-family="Helvetica,sans-Serif" font-size="10.00">src/m_Do/m_Do_ext.cpp</text>
</a>
</g>
</g>
<!-- Node1&#45;&gt;Node291 -->
<g id="edge62" class="edge">
<title>Node1&#45;&gt;Node291</title>
<path fill="none" stroke="#63b8ff" d="M1224.99,-347.04C1307.36,-338.34 1440.09,-323.19 1554,-305 1563.18,-303.53 1572.99,-301.75 1582.29,-299.94"/>
<polygon fill="#63b8ff" stroke="#63b8ff" points="1224.8,-343.54 1215.22,-348.07 1225.53,-350.5 1224.8,-343.54"/>
</g>
<!-- Node2&#45;&gt;Node3 -->
<g id="edge2" class="edge">
<title>Node2&#45;&gt;Node3</title>
<path fill="none" stroke="#63b8ff" d="M902.41,-274.83C839.94,-263.57 753.47,-247.98 693.96,-237.25"/>
<polygon fill="#63b8ff" stroke="#63b8ff" points="901.44,-278.21 911.9,-276.54 902.68,-271.32 901.44,-278.21"/>
</g>
<!-- Node24 -->
<g id="node12" class="node">
<title>Node24</title>
<g id="a_node12"><a xlink:href="d__a__alink_8h.html" target="_top" xlink:title=" ">
<polygon fill="white" stroke="#666666" points="1567,-233.5 1451,-233.5 1451,-214.5 1567,-214.5 1567,-233.5"/>
<text text-anchor="middle" x="1509" y="-221.5" font-family="Helvetica,sans-Serif" font-size="10.00">include/d/a/d_a_alink.h</text>
</a>
</g>
</g>
<!-- Node2&#45;&gt;Node24 -->
<g id="edge11" class="edge">
<title>Node2&#45;&gt;Node24</title>
<path fill="none" stroke="#63b8ff" d="M1059.96,-274.78C1206.57,-253.67 1366.84,-237.87 1450.81,-230.15"/>
<polygon fill="#63b8ff" stroke="#63b8ff" points="1059.87,-271.26 1050.48,-276.16 1060.88,-278.18 1059.87,-271.26"/>
</g>
<!-- Node382 -->
<g id="node46" class="node">
<title>Node382</title>
<g id="a_node46"><a xlink:href="J3DMatBlock_8cpp.html" target="_top" xlink:title=" ">
<polygon fill="white" stroke="#666666" points="1727,-239 1585,-239 1585,-209 1727,-209 1727,-239"/>
<text text-anchor="start" x="1593" y="-227" font-family="Helvetica,sans-Serif" font-size="10.00">libs/JSystem/J3DGraphBase</text>
<text text-anchor="middle" x="1656" y="-216" font-family="Helvetica,sans-Serif" font-size="10.00">/J3DMatBlock.cpp</text>
</a>
</g>
</g>
<!-- Node2&#45;&gt;Node382 -->
<g id="edge56" class="edge">
<title>Node2&#45;&gt;Node382</title>
<path fill="none" stroke="#63b8ff" d="M1060.33,-274.82C1288.96,-246.97 1350.61,-266.48 1576,-239 1578.8,-238.66 1581.65,-238.29 1584.53,-237.89"/>
<polygon fill="#63b8ff" stroke="#63b8ff" points="1059.95,-271.34 1050.46,-276.04 1060.81,-278.28 1059.95,-271.34"/>
</g>
<!-- Node4 -->
<g id="node4" class="node">
<title>Node4</title>
<g id="a_node4"><a xlink:href="J3DJoint_8h.html" target="_top" xlink:title=" ">
<polygon fill="white" stroke="#666666" points="478.5,-173 343.5,-173 343.5,-143 478.5,-143 478.5,-173"/>
<text text-anchor="start" x="351.5" y="-161" font-family="Helvetica,sans-Serif" font-size="10.00">include/JSystem/J3DGraph</text>
<text text-anchor="middle" x="411" y="-150" font-family="Helvetica,sans-Serif" font-size="10.00">Animator/J3DJoint.h</text>
</a>
</g>
</g>
<!-- Node3&#45;&gt;Node4 -->
<g id="edge3" class="edge">
<title>Node3&#45;&gt;Node4</title>
<path fill="none" stroke="#63b8ff" d="M566.81,-205.38C533.01,-195.32 491.16,-182.86 459.34,-173.39"/>
<polygon fill="#63b8ff" stroke="#63b8ff" points="565.45,-208.63 576.03,-208.13 567.45,-201.92 565.45,-208.63"/>
</g>
<!-- Node380 -->
<g id="node8" class="node">
<title>Node380</title>
<g id="a_node8"><a xlink:href="J3DDrawBuffer_8cpp.html" target="_top" xlink:title=" ">
<polygon fill="white" stroke="#666666" points="697,-173 555,-173 555,-143 697,-143 697,-173"/>
<text text-anchor="start" x="563" y="-161" font-family="Helvetica,sans-Serif" font-size="10.00">libs/JSystem/J3DGraphBase</text>
<text text-anchor="middle" x="626" y="-150" font-family="Helvetica,sans-Serif" font-size="10.00">/J3DDrawBuffer.cpp</text>
</a>
</g>
</g>
<!-- Node3&#45;&gt;Node380 -->
<g id="edge7" class="edge">
<title>Node3&#45;&gt;Node380</title>
<path fill="none" stroke="#63b8ff" d="M626,-197.39C626,-189.13 626,-180.28 626,-173.16"/>
<polygon fill="#63b8ff" stroke="#63b8ff" points="622.5,-197.28 626,-207.28 629.5,-197.28 622.5,-197.28"/>
</g>
<!-- Node381 -->
<g id="node9" class="node">
<title>Node381</title>
<g id="a_node9"><a xlink:href="J3DMaterial_8cpp.html" target="_top" xlink:title=" ">
<polygon fill="white" stroke="#666666" points="857,-173 715,-173 715,-143 857,-143 857,-173"/>
<text text-anchor="start" x="723" y="-161" font-family="Helvetica,sans-Serif" font-size="10.00">libs/JSystem/J3DGraphBase</text>
<text text-anchor="middle" x="786" y="-150" font-family="Helvetica,sans-Serif" font-size="10.00">/J3DMaterial.cpp</text>
</a>
</g>
</g>
<!-- Node3&#45;&gt;Node381 -->
<g id="edge8" class="edge">
<title>Node3&#45;&gt;Node381</title>
<path fill="none" stroke="#63b8ff" d="M672.48,-204.41C697.16,-194.54 727.03,-182.59 749.94,-173.43"/>
<polygon fill="#63b8ff" stroke="#63b8ff" points="671.3,-201.11 663.31,-208.08 673.9,-207.61 671.3,-201.11"/>
</g>
<!-- Node369 -->
<g id="node10" class="node">
<title>Node369</title>
<g id="a_node10"><a xlink:href="J3DPacket_8cpp.html" target="_top" xlink:title=" ">
<polygon fill="white" stroke="#666666" points="325,-173 183,-173 183,-143 325,-143 325,-173"/>
<text text-anchor="start" x="191" y="-161" font-family="Helvetica,sans-Serif" font-size="10.00">libs/JSystem/J3DGraphBase</text>
<text text-anchor="middle" x="254" y="-150" font-family="Helvetica,sans-Serif" font-size="10.00">/J3DPacket.cpp</text>
</a>
</g>
</g>
<!-- Node3&#45;&gt;Node369 -->
<g id="edge9" class="edge">
<title>Node3&#45;&gt;Node369</title>
<path fill="none" stroke="#63b8ff" d="M547.07,-209.57C488.31,-199.54 406.13,-185.49 334,-173 331.08,-172.49 328.11,-171.98 325.1,-171.46"/>
<polygon fill="#63b8ff" stroke="#63b8ff" points="546.2,-212.97 556.64,-211.2 547.37,-206.07 546.2,-212.97"/>
</g>
<!-- Node3&#45;&gt;Node169 -->
<g id="edge10" class="edge">
<title>Node3&#45;&gt;Node169</title>
<path fill="none" stroke="#63b8ff" d="M577.04,-203.05C564.72,-195.54 553.02,-185.66 546,-173 532.25,-148.2 540.13,-112.81 545.02,-96.44"/>
<polygon fill="#63b8ff" stroke="#63b8ff" points="575.22,-206.03 585.66,-207.83 578.62,-199.91 575.22,-206.03"/>
</g>
<!-- Node5 -->
<g id="node5" class="node">
<title>Node5</title>
<g id="a_node5"><a xlink:href="J3DJointTree_8h.html" target="_top" xlink:title=" ">
<polygon fill="#fff0f0" stroke="red" points="478.5,-101.5 343.5,-101.5 343.5,-71.5 478.5,-71.5 478.5,-101.5"/>
<text text-anchor="start" x="351.5" y="-89.5" font-family="Helvetica,sans-Serif" font-size="10.00">include/JSystem/J3DGraph</text>
<text text-anchor="middle" x="411" y="-78.5" font-family="Helvetica,sans-Serif" font-size="10.00">Animator/J3DJointTree.h</text>
</a>
</g>
</g>
<!-- Node4&#45;&gt;Node5 -->
<g id="edge4" class="edge">
<title>Node4&#45;&gt;Node5</title>
<path fill="none" stroke="#63b8ff" d="M411,-131.26C411,-121.33 411,-110.36 411,-101.88"/>
<polygon fill="#63b8ff" stroke="#63b8ff" points="407.5,-131.09 411,-141.09 414.5,-131.09 407.5,-131.09"/>
</g>
<!-- Node374 -->
<g id="node6" class="node">
<title>Node374</title>
<g id="a_node6"><a xlink:href="J3DJoint_8cpp.html" target="_top" xlink:title=" ">
<polygon fill="white" stroke="#666666" points="158,-101.5 0,-101.5 0,-71.5 158,-71.5 158,-101.5"/>
<text text-anchor="start" x="8" y="-89.5" font-family="Helvetica,sans-Serif" font-size="10.00">libs/JSystem/J3DGraphAnimator</text>
<text text-anchor="middle" x="79" y="-78.5" font-family="Helvetica,sans-Serif" font-size="10.00">/J3DJoint.cpp</text>
</a>
</g>
</g>
<!-- Node4&#45;&gt;Node374 -->
<g id="edge5" class="edge">
<title>Node4&#45;&gt;Node374</title>
<path fill="none" stroke="#63b8ff" d="M331.89,-141.12C284.11,-131.45 222.01,-118.73 167,-107 159.5,-105.4 151.65,-103.7 143.85,-101.99"/>
<polygon fill="#63b8ff" stroke="#63b8ff" points="331.12,-144.54 341.62,-143.09 332.51,-137.68 331.12,-144.54"/>
</g>
<!-- Node379 -->
<g id="node7" class="node">
<title>Node379</title>
<g id="a_node7"><a xlink:href="J3DJointFactory_8cpp.html" target="_top" xlink:title=" ">
<polygon fill="white" stroke="#666666" points="325.5,-101.5 176.5,-101.5 176.5,-71.5 325.5,-71.5 325.5,-101.5"/>
<text text-anchor="start" x="184.5" y="-89.5" font-family="Helvetica,sans-Serif" font-size="10.00">libs/JSystem/J3DGraphLoader</text>
<text text-anchor="middle" x="251" y="-78.5" font-family="Helvetica,sans-Serif" font-size="10.00">/J3DJointFactory.cpp</text>
</a>
</g>
</g>
<!-- Node4&#45;&gt;Node379 -->
<g id="edge6" class="edge">
<title>Node4&#45;&gt;Node379</title>
<path fill="none" stroke="#63b8ff" d="M367.41,-138.07C341.15,-126.66 308.23,-112.36 284.11,-101.88"/>
<polygon fill="#63b8ff" stroke="#63b8ff" points="365.89,-141.22 376.46,-142 368.68,-134.8 365.89,-141.22"/>
</g>
<!-- Node25 -->
<g id="node13" class="node">
<title>Node25</title>
<g id="a_node13"><a xlink:href="d__com__inf__game_8h.html" target="_top" xlink:title=" ">
<polygon fill="#fff0f0" stroke="red" points="2138,-173 2028,-173 2028,-143 2138,-143 2138,-173"/>
<text text-anchor="start" x="2036" y="-161" font-family="Helvetica,sans-Serif" font-size="10.00">include/d/com/d_com</text>
<text text-anchor="middle" x="2083" y="-150" font-family="Helvetica,sans-Serif" font-size="10.00">_inf_game.h</text>
</a>
</g>
</g>
<!-- Node24&#45;&gt;Node25 -->
<g id="edge12" class="edge">
<title>Node24&#45;&gt;Node25</title>
<path fill="none" stroke="#63b8ff" d="M1559.48,-211.85C1565.04,-210.8 1570.63,-209.82 1576,-209 1739.27,-183.97 1934.14,-168.85 2027.61,-162.5"/>
<polygon fill="#63b8ff" stroke="#63b8ff" points="1558.82,-208.41 1549.68,-213.78 1560.17,-215.28 1558.82,-208.41"/>
</g>
<!-- Node11 -->
<g id="node21" class="node">
<title>Node11</title>
<g id="a_node21"><a xlink:href="d__a__alink_8cpp.html" target="_top" xlink:title=" ">
<polygon fill="white" stroke="#666666" points="4115.5,-24.5 4006.5,-24.5 4006.5,-5.5 4115.5,-5.5 4115.5,-24.5"/>
<text text-anchor="middle" x="4061" y="-12.5" font-family="Helvetica,sans-Serif" font-size="10.00">src/d/a/d_a_alink.cpp</text>
</a>
</g>
</g>
<!-- Node24&#45;&gt;Node11 -->
<g id="edge55" class="edge">
<title>Node24&#45;&gt;Node11</title>
<path fill="none" stroke="#63b8ff" d="M1557.42,-211.88C1563.65,-210.75 1569.96,-209.74 1576,-209 1723.67,-190.89 4148.82,-214.18 4252,-107 4264.64,-93.87 4263.13,-80.42 4252,-66 4235.4,-44.5 4166.14,-30.45 4115.79,-22.88"/>
<polygon fill="#63b8ff" stroke="#63b8ff" points="1557.01,-208.4 1547.86,-213.74 1558.35,-215.27 1557.01,-208.4"/>
</g>
<!-- Node25&#45;&gt;Node169 -->
<g id="edge54" class="edge">
<title>Node25&#45;&gt;Node169</title>
<path fill="none" stroke="#63b8ff" d="M2016.29,-157.01C1766.76,-156.68 888.64,-152.25 613,-107 599.28,-104.75 584.4,-100.43 572.34,-96.43"/>
<polygon fill="#63b8ff" stroke="#63b8ff" points="2016.17,-160.51 2026.17,-157.02 2016.18,-153.51 2016.17,-160.51"/>
</g>
<!-- Node26 -->
<g id="node14" class="node">
<title>Node26</title>
<g id="a_node14"><a xlink:href="d__a__npc_8h.html" target="_top" xlink:title=" ">
<polygon fill="#fff0f0" stroke="red" points="2770.5,-24.5 2659.5,-24.5 2659.5,-5.5 2770.5,-5.5 2770.5,-24.5"/>
<text text-anchor="middle" x="2715" y="-12.5" font-family="Helvetica,sans-Serif" font-size="10.00">include/d/a/d_a_npc.h</text>
</a>
</g>
</g>
<!-- Node25&#45;&gt;Node26 -->
<g id="edge13" class="edge">
<title>Node25&#45;&gt;Node26</title>
<path fill="none" stroke="#63b8ff" d="M2016.3,-155.68C1879.84,-152.29 1578.98,-141.01 1548,-107 1535.73,-93.53 1535.39,-79.16 1548,-66 1586.84,-25.46 2432.12,-17.64 2659.24,-16.27"/>
<polygon fill="#63b8ff" stroke="#63b8ff" points="2016.21,-159.18 2026.29,-155.92 2016.37,-152.18 2016.21,-159.18"/>
</g>
<!-- Node32 -->
<g id="node15" class="node">
<title>Node32</title>
<g id="a_node15"><a xlink:href="d__cc__uty_8h.html" target="_top" xlink:title=" ">
<polygon fill="#fff0f0" stroke="red" points="774.5,-96 655.5,-96 655.5,-77 774.5,-77 774.5,-96"/>
<text text-anchor="middle" x="715" y="-84" font-family="Helvetica,sans-Serif" font-size="10.00">include/d/cc/d_cc_uty.h</text>
</a>
</g>
</g>
<!-- Node25&#45;&gt;Node32 -->
<g id="edge14" class="edge">
<title>Node25&#45;&gt;Node32</title>
<path fill="none" stroke="#63b8ff" d="M2016.06,-156.35C1786.08,-153.81 1029.28,-142.86 789,-107 773.63,-104.71 756.85,-100.44 743.16,-96.47"/>
<polygon fill="#63b8ff" stroke="#63b8ff" points="2016.02,-159.85 2026.06,-156.46 2016.1,-152.85 2016.02,-159.85"/>
</g>
<!-- Node33 -->
<g id="node16" class="node">
<title>Node33</title>
<g id="a_node16"><a xlink:href="d__a__b__ob_8h.html" target="_top" xlink:title=" ">
<polygon fill="#fff0f0" stroke="red" points="663,-30 557,-30 557,0 663,0 663,-30"/>
<text text-anchor="start" x="565" y="-18" font-family="Helvetica,sans-Serif" font-size="10.00">include/rel/d/a/b/d</text>
<text text-anchor="middle" x="610" y="-7" font-family="Helvetica,sans-Serif" font-size="10.00">_a_b_ob/d_a_b_ob.h</text>
</a>
</g>
</g>
<!-- Node25&#45;&gt;Node33 -->
<g id="edge37" class="edge">
<title>Node25&#45;&gt;Node33</title>
<path fill="none" stroke="#63b8ff" d="M2016.45,-156.7C1741.09,-155.2 702.59,-146.92 646,-107 620.87,-89.27 613.28,-51.12 610.99,-30.29"/>
<polygon fill="#63b8ff" stroke="#63b8ff" points="2016.31,-160.2 2026.33,-156.75 2016.35,-153.2 2016.31,-160.2"/>
</g>
<!-- Node38 -->
<g id="node17" class="node">
<title>Node38</title>
<g id="a_node17"><a xlink:href="d__a__e__yk_8h.html" target="_top" xlink:title=" ">
<polygon fill="white" stroke="#666666" points="785,-30 681,-30 681,0 785,0 785,-30"/>
<text text-anchor="start" x="689" y="-18" font-family="Helvetica,sans-Serif" font-size="10.00">include/rel/d/a/e/d</text>
<text text-anchor="middle" x="733" y="-7" font-family="Helvetica,sans-Serif" font-size="10.00">_a_e_yk/d_a_e_yk.h</text>
</a>
</g>
</g>
<!-- Node25&#45;&gt;Node38 -->
<g id="edge50" class="edge">
<title>Node25&#45;&gt;Node38</title>
<path fill="none" stroke="#63b8ff" d="M2016.24,-156.53C1776.5,-154.55 967.4,-145.09 858,-107 811.86,-90.94 768.15,-51.72 746.73,-30.39"/>
<polygon fill="#63b8ff" stroke="#63b8ff" points="2016.02,-160.03 2026.05,-156.61 2016.07,-153.03 2016.02,-160.03"/>
</g>
<!-- Node39 -->
<g id="node18" class="node">
<title>Node39</title>
<g id="a_node18"><a xlink:href="d__a__e__ym_8h.html" target="_top" xlink:title=" ">
<polygon fill="#fff0f0" stroke="red" points="913,-30 803,-30 803,0 913,0 913,-30"/>
<text text-anchor="start" x="811" y="-18" font-family="Helvetica,sans-Serif" font-size="10.00">include/rel/d/a/e/d</text>
<text text-anchor="middle" x="858" y="-7" font-family="Helvetica,sans-Serif" font-size="10.00">_a_e_ym/d_a_e_ym.h</text>
</a>
</g>
</g>
<!-- Node25&#45;&gt;Node39 -->
<g id="edge51" class="edge">
<title>Node25&#45;&gt;Node39</title>
<path fill="none" stroke="#63b8ff" d="M2016.4,-156.35C1771.11,-153.67 929.85,-141.96 885,-107 861.6,-88.77 857.76,-51.18 857.54,-30.48"/>
<polygon fill="#63b8ff" stroke="#63b8ff" points="2016.08,-159.84 2026.12,-156.45 2016.15,-152.84 2016.08,-159.84"/>
</g>
<!-- Node42 -->
<g id="node19" class="node">
<title>Node42</title>
<g id="a_node19"><a xlink:href="d__error__msg_8h.html" target="_top" xlink:title=" ">
<polygon fill="#fff0f0" stroke="red" points="1027,-96 907,-96 907,-77 1027,-77 1027,-96"/>
<text text-anchor="middle" x="967" y="-84" font-family="Helvetica,sans-Serif" font-size="10.00">include/d/d_error_msg.h</text>
</a>
</g>
</g>
<!-- Node25&#45;&gt;Node42 -->
<g id="edge18" class="edge">
<title>Node25&#45;&gt;Node42</title>
<path fill="none" stroke="#63b8ff" d="M2016.06,-155.79C1816.19,-151.88 1225.86,-137.95 1036,-107 1021.63,-104.66 1005.98,-100.38 993.22,-96.43"/>
<polygon fill="#63b8ff" stroke="#63b8ff" points="2015.96,-159.29 2026.02,-155.99 2016.09,-152.29 2015.96,-159.29"/>
</g>
<!-- Node45 -->
<g id="node20" class="node">
<title>Node45</title>
<g id="a_node20"><a xlink:href="d__item_8h.html" target="_top" xlink:title=" ">
<polygon fill="#fff0f0" stroke="red" points="4108.5,-96 4013.5,-96 4013.5,-77 4108.5,-77 4108.5,-96"/>
<text text-anchor="middle" x="4061" y="-84" font-family="Helvetica,sans-Serif" font-size="10.00">include/d/d_item.h</text>
</a>
</g>
</g>
<!-- Node25&#45;&gt;Node45 -->
<g id="edge19" class="edge">
<title>Node25&#45;&gt;Node45</title>
<path fill="none" stroke="#63b8ff" d="M2149.34,-156.36C2465.75,-153.18 3813.8,-137.92 3999,-107 4012.13,-104.81 4026.33,-100.49 4037.82,-96.48"/>
<polygon fill="#63b8ff" stroke="#63b8ff" points="2149.57,-152.86 2139.6,-156.46 2149.64,-159.86 2149.57,-152.86"/>
</g>
<!-- Node25&#45;&gt;Node11 -->
<g id="edge53" class="edge">
<title>Node25&#45;&gt;Node11</title>
<path fill="none" stroke="#63b8ff" d="M2149.14,-156.66C2473.22,-154.81 3881.42,-144.61 3966,-107 3988.98,-96.78 3986.94,-83.5 4005,-66 4020.35,-51.13 4039.02,-34.79 4050.45,-24.97"/>
<polygon fill="#63b8ff" stroke="#63b8ff" points="2149.56,-153.16 2139.58,-156.71 2149.6,-160.16 2149.56,-153.16"/>
</g>
<!-- Node50 -->
<g id="node22" class="node">
<title>Node50</title>
<g id="a_node22"><a xlink:href="d__kantera__icon__meter_8h.html" target="_top" xlink:title=" ">
<polygon fill="#fff0f0" stroke="red" points="1146.5,-101.5 1045.5,-101.5 1045.5,-71.5 1146.5,-71.5 1146.5,-101.5"/>
<text text-anchor="start" x="1053.5" y="-89.5" font-family="Helvetica,sans-Serif" font-size="10.00">include/d/d_kantera</text>
<text text-anchor="middle" x="1096" y="-78.5" font-family="Helvetica,sans-Serif" font-size="10.00">_icon_meter.h</text>
</a>
</g>
</g>
<!-- Node25&#45;&gt;Node50 -->
<g id="edge21" class="edge">
<title>Node25&#45;&gt;Node50</title>
<path fill="none" stroke="#63b8ff" d="M2016.15,-155.7C1832.05,-151.75 1320.31,-138.2 1155,-107 1148.43,-105.76 1141.58,-103.98 1134.97,-101.99"/>
<polygon fill="#63b8ff" stroke="#63b8ff" points="2015.96,-159.19 2026.03,-155.91 2016.1,-152.2 2015.96,-159.19"/>
</g>
<!-- Node52 -->
<g id="node23" class="node">
<title>Node52</title>
<g id="a_node23"><a xlink:href="d__model_8h.html" target="_top" xlink:title=" ">
<polygon fill="#fff0f0" stroke="red" points="1267.5,-96 1164.5,-96 1164.5,-77 1267.5,-77 1267.5,-96"/>
<text text-anchor="middle" x="1216" y="-84" font-family="Helvetica,sans-Serif" font-size="10.00">include/d/d_model.h</text>
</a>
</g>
</g>
<!-- Node25&#45;&gt;Node52 -->
<g id="edge22" class="edge">
<title>Node25&#45;&gt;Node52</title>
<path fill="none" stroke="#63b8ff" d="M2016.6,-155.04C1849.97,-149.79 1417.37,-133.9 1276,-107 1263.52,-104.62 1250.03,-100.4 1239.01,-96.49"/>
<polygon fill="#63b8ff" stroke="#63b8ff" points="2016.04,-158.53 2026.15,-155.34 2016.26,-151.53 2016.04,-158.53"/>
</g>
<!-- Node54 -->
<g id="node24" class="node">
<title>Node54</title>
<g id="a_node24"><a xlink:href="d__name_8h.html" target="_top" xlink:title=" ">
<polygon fill="#fff0f0" stroke="red" points="1386.5,-96 1285.5,-96 1285.5,-77 1386.5,-77 1386.5,-96"/>
<text text-anchor="middle" x="1336" y="-84" font-family="Helvetica,sans-Serif" font-size="10.00">include/d/d_name.h</text>
</a>
</g>
</g>
<!-- Node25&#45;&gt;Node54 -->
<g id="edge23" class="edge">
<title>Node25&#45;&gt;Node54</title>
<path fill="none" stroke="#63b8ff" d="M2016.14,-157.46C1892.49,-157.14 1620.25,-150.93 1396,-107 1383.53,-104.56 1370.04,-100.32 1359.02,-96.43"/>
<polygon fill="#63b8ff" stroke="#63b8ff" points="2016.12,-160.96 2026.12,-157.47 2016.13,-153.96 2016.12,-160.96"/>
</g>
<!-- Node55 -->
<g id="node25" class="node">
<title>Node55</title>
<g id="a_node25"><a xlink:href="d__file__select_8h.html" target="_top" xlink:title=" ">
<polygon fill="#fff0f0" stroke="red" points="1384,-30 1288,-30 1288,0 1384,0 1384,-30"/>
<text text-anchor="start" x="1296" y="-18" font-family="Helvetica,sans-Serif" font-size="10.00">include/d/file/d_file</text>
<text text-anchor="middle" x="1336" y="-7" font-family="Helvetica,sans-Serif" font-size="10.00">_select.h</text>
</a>
</g>
</g>
<!-- Node25&#45;&gt;Node55 -->
<g id="edge28" class="edge">
<title>Node25&#45;&gt;Node55</title>
<path fill="none" stroke="#63b8ff" d="M2016.36,-156.71C1771.96,-155.31 936.9,-147.58 898,-107 885.39,-93.85 885.87,-79.6 898,-66 923.61,-37.3 1179.02,-22.85 1287.58,-17.96"/>
<polygon fill="#63b8ff" stroke="#63b8ff" points="2016.02,-160.21 2026.04,-156.76 2016.06,-153.21 2016.02,-160.21"/>
</g>
<!-- Node57 -->
<g id="node26" class="node">
<title>Node57</title>
<g id="a_node26"><a xlink:href="d__file__sel__info_8h.html" target="_top" xlink:title=" ">
<polygon fill="#fff0f0" stroke="red" points="1653,-101.5 1557,-101.5 1557,-71.5 1653,-71.5 1653,-101.5"/>
<text text-anchor="start" x="1565" y="-89.5" font-family="Helvetica,sans-Serif" font-size="10.00">include/d/file/d_file</text>
<text text-anchor="middle" x="1605" y="-78.5" font-family="Helvetica,sans-Serif" font-size="10.00">_sel_info.h</text>
</a>
</g>
</g>
<!-- Node25&#45;&gt;Node57 -->
<g id="edge25" class="edge">
<title>Node25&#45;&gt;Node57</title>
<path fill="none" stroke="#63b8ff" d="M2016.16,-153.43C1932.5,-147.97 1785.21,-135.06 1662,-107 1655.98,-105.63 1649.71,-103.86 1643.62,-101.94"/>
<polygon fill="#63b8ff" stroke="#63b8ff" points="2015.82,-156.92 2026.02,-154.06 2016.27,-149.93 2015.82,-156.92"/>
</g>
<!-- Node59 -->
<g id="node27" class="node">
<title>Node59</title>
<g id="a_node27"><a xlink:href="d__file__sel__warning_8h.html" target="_top" xlink:title=" ">
<polygon fill="#fff0f0" stroke="red" points="1501,-101.5 1405,-101.5 1405,-71.5 1501,-71.5 1501,-101.5"/>
<text text-anchor="start" x="1413" y="-89.5" font-family="Helvetica,sans-Serif" font-size="10.00">include/d/file/d_file</text>
<text text-anchor="middle" x="1453" y="-78.5" font-family="Helvetica,sans-Serif" font-size="10.00">_sel_warning.h</text>
</a>
</g>
</g>
<!-- Node25&#45;&gt;Node59 -->
<g id="edge26" class="edge">
<title>Node25&#45;&gt;Node59</title>
<path fill="none" stroke="#63b8ff" d="M2016.37,-155.8C1909.59,-152.84 1693.93,-142.57 1515,-107 1508.36,-105.68 1501.43,-103.91 1494.7,-101.97"/>
<polygon fill="#63b8ff" stroke="#63b8ff" points="2016.01,-159.29 2026.09,-156.06 2016.19,-152.3 2016.01,-159.29"/>
</g>
<!-- Node61 -->
<g id="node28" class="node">
<title>Node61</title>
<g id="a_node28"><a xlink:href="d__menu__calibration_8h.html" target="_top" xlink:title=" ">
<polygon fill="#fff0f0" stroke="red" points="1791,-101.5 1671,-101.5 1671,-71.5 1791,-71.5 1791,-101.5"/>
<text text-anchor="start" x="1679" y="-89.5" font-family="Helvetica,sans-Serif" font-size="10.00">include/d/menu/d_menu</text>
<text text-anchor="middle" x="1731" y="-78.5" font-family="Helvetica,sans-Serif" font-size="10.00">_calibration.h</text>
</a>
</g>
</g>
<!-- Node25&#45;&gt;Node61 -->
<g id="edge29" class="edge">
<title>Node25&#45;&gt;Node61</title>
<path fill="none" stroke="#63b8ff" d="M2016.49,-147.18C1958.9,-138.23 1873.52,-123.84 1800,-107 1793.45,-105.5 1786.59,-103.76 1779.85,-101.96"/>
<polygon fill="#63b8ff" stroke="#63b8ff" points="2015.71,-150.61 2026.13,-148.67 2016.78,-143.69 2015.71,-150.61"/>
</g>
<!-- Node63 -->
<g id="node29" class="node">
<title>Node63</title>
<g id="a_node29"><a xlink:href="d__meter2_8h.html" target="_top" xlink:title=" ">
<polygon fill="#fff0f0" stroke="red" points="1943,-96 1809,-96 1809,-77 1943,-77 1943,-96"/>
<text text-anchor="middle" x="1876" y="-84" font-family="Helvetica,sans-Serif" font-size="10.00">include/d/meter/d_meter2.h</text>
</a>
</g>
</g>
<!-- Node25&#45;&gt;Node63 -->
<g id="edge30" class="edge">
<title>Node25&#45;&gt;Node63</title>
<path fill="none" stroke="#63b8ff" d="M2029.05,-138.89C1988.43,-125.25 1934.48,-107.13 1902.67,-96.46"/>
<polygon fill="#63b8ff" stroke="#63b8ff" points="2027.83,-142.17 2038.42,-142.03 2030.06,-135.53 2027.83,-142.17"/>
</g>
<!-- Node73 -->
<g id="node30" class="node">
<title>Node73</title>
<g id="a_node30"><a xlink:href="d__msg__object_8h.html" target="_top" xlink:title=" ">
<polygon fill="#fff0f0" stroke="red" points="3957,-101.5 3847,-101.5 3847,-71.5 3957,-71.5 3957,-101.5"/>
<text text-anchor="start" x="3855" y="-89.5" font-family="Helvetica,sans-Serif" font-size="10.00">include/d/msg/d_msg</text>
<text text-anchor="middle" x="3902" y="-78.5" font-family="Helvetica,sans-Serif" font-size="10.00">_object.h</text>
</a>
</g>
</g>
<!-- Node25&#45;&gt;Node73 -->
<g id="edge31" class="edge">
<title>Node25&#45;&gt;Node73</title>
<path fill="none" stroke="#63b8ff" d="M2149.54,-156.16C2449.59,-152.21 3669.36,-134.58 3838,-107 3845.34,-105.8 3853,-103.98 3860.38,-101.93"/>
<polygon fill="#63b8ff" stroke="#63b8ff" points="2149.89,-152.65 2139.94,-156.28 2149.99,-159.65 2149.89,-152.65"/>
</g>
<!-- Node92 -->
<g id="node31" class="node">
<title>Node92</title>
<g id="a_node31"><a xlink:href="d__s__logo_8h.html" target="_top" xlink:title=" ">
<polygon fill="#fff0f0" stroke="red" points="2074.5,-96 1961.5,-96 1961.5,-77 2074.5,-77 2074.5,-96"/>
<text text-anchor="middle" x="2018" y="-84" font-family="Helvetica,sans-Serif" font-size="10.00">include/d/s/d_s_logo.h</text>
</a>
</g>
</g>
<!-- Node25&#45;&gt;Node92 -->
<g id="edge34" class="edge">
<title>Node25&#45;&gt;Node92</title>
<path fill="none" stroke="#63b8ff" d="M2061.95,-134.49C2049.73,-121.43 2035.04,-105.72 2026.12,-96.18"/>
<polygon fill="#63b8ff" stroke="#63b8ff" points="2059.11,-136.58 2068.5,-141.49 2064.22,-131.8 2059.11,-136.58"/>
</g>
<!-- Node94 -->
<g id="node32" class="node">
<title>Node94</title>
<g id="a_node32"><a xlink:href="d__s__play_8h.html" target="_top" xlink:title=" ">
<polygon fill="#fff0f0" stroke="red" points="2205.5,-96 2092.5,-96 2092.5,-77 2205.5,-77 2205.5,-96"/>
<text text-anchor="middle" x="2149" y="-84" font-family="Helvetica,sans-Serif" font-size="10.00">include/d/s/d_s_play.h</text>
</a>
</g>
</g>
<!-- Node25&#45;&gt;Node94 -->
<g id="edge35" class="edge">
<title>Node25&#45;&gt;Node94</title>
<path fill="none" stroke="#63b8ff" d="M2104.38,-134.49C2116.78,-121.43 2131.7,-105.72 2140.76,-96.18"/>
<polygon fill="#63b8ff" stroke="#63b8ff" points="2102.07,-131.84 2097.72,-141.5 2107.14,-136.66 2102.07,-131.84"/>
</g>
<!-- Node101 -->
<g id="node33" class="node">
<title>Node101</title>
<g id="a_node33"><a xlink:href="d__msg__scrn__base_8h.html" target="_top" xlink:title=" ">
<polygon fill="#fff0f0" stroke="red" points="2322.5,-101.5 2223.5,-101.5 2223.5,-71.5 2322.5,-71.5 2322.5,-101.5"/>
<text text-anchor="start" x="2231.5" y="-89.5" font-family="Helvetica,sans-Serif" font-size="10.00">include/msg/scrn/d</text>
<text text-anchor="middle" x="2273" y="-78.5" font-family="Helvetica,sans-Serif" font-size="10.00">_msg_scrn_base.h</text>
</a>
</g>
</g>
<!-- Node25&#45;&gt;Node101 -->
<g id="edge36" class="edge">
<title>Node25&#45;&gt;Node101</title>
<path fill="none" stroke="#63b8ff" d="M2133.1,-138.67C2164.55,-127.17 2204.53,-112.55 2233.68,-101.88"/>
<polygon fill="#63b8ff" stroke="#63b8ff" points="2131.98,-135.36 2123.79,-142.08 2134.38,-141.93 2131.98,-135.36"/>
</g>
<!-- Node105 -->
<g id="node34" class="node">
<title>Node105</title>
<g id="a_node34"><a xlink:href="d__a__b__zant_8h.html" target="_top" xlink:title=" ">
<polygon fill="white" stroke="#666666" points="2461.5,-101.5 2340.5,-101.5 2340.5,-71.5 2461.5,-71.5 2461.5,-101.5"/>
<text text-anchor="start" x="2348.5" y="-89.5" font-family="Helvetica,sans-Serif" font-size="10.00">include/rel/d/a/b/d</text>
<text text-anchor="middle" x="2401" y="-78.5" font-family="Helvetica,sans-Serif" font-size="10.00">_a_b_zant/d_a_b_zant.h</text>
</a>
</g>
</g>
<!-- Node25&#45;&gt;Node105 -->
<g id="edge38" class="edge">
<title>Node25&#45;&gt;Node105</title>
<path fill="none" stroke="#63b8ff" d="M2149.22,-145.14C2199.57,-135.78 2270.43,-121.86 2332,-107 2338.41,-105.45 2345.13,-103.71 2351.75,-101.92"/>
<polygon fill="#63b8ff" stroke="#63b8ff" points="2148.84,-141.65 2139.65,-146.91 2150.12,-148.54 2148.84,-141.65"/>
</g>
<!-- Node106 -->
<g id="node35" class="node">
<title>Node106</title>
<g id="a_node35"><a xlink:href="d__a__andsw_8h.html" target="_top" xlink:title=" ">
<polygon fill="white" stroke="#666666" points="2590,-101.5 2480,-101.5 2480,-71.5 2590,-71.5 2590,-101.5"/>
<text text-anchor="start" x="2488" y="-89.5" font-family="Helvetica,sans-Serif" font-size="10.00">include/rel/d/a/d_a</text>
<text text-anchor="middle" x="2535" y="-78.5" font-family="Helvetica,sans-Serif" font-size="10.00">_andsw/d_a_andsw.h</text>
</a>
</g>
</g>
<!-- Node25&#45;&gt;Node106 -->
<g id="edge39" class="edge">
<title>Node25&#45;&gt;Node106</title>
<path fill="none" stroke="#63b8ff" d="M2149.5,-151.85C2227.23,-145.03 2359.46,-131 2471,-107 2477.59,-105.58 2484.47,-103.81 2491.19,-101.91"/>
<polygon fill="#63b8ff" stroke="#63b8ff" points="2149.6,-148.32 2139.94,-152.67 2150.2,-155.3 2149.6,-148.32"/>
</g>
<!-- Node107 -->
<g id="node36" class="node">
<title>Node107</title>
<g id="a_node36"><a xlink:href="d__a__cstaF_8h.html" target="_top" xlink:title=" ">
<polygon fill="white" stroke="#666666" points="2711.5,-101.5 2608.5,-101.5 2608.5,-71.5 2711.5,-71.5 2711.5,-101.5"/>
<text text-anchor="start" x="2616.5" y="-89.5" font-family="Helvetica,sans-Serif" font-size="10.00">include/rel/d/a/d_a</text>
<text text-anchor="middle" x="2660" y="-78.5" font-family="Helvetica,sans-Serif" font-size="10.00">_cstaF/d_a_cstaF.h</text>
</a>
</g>
</g>
<!-- Node25&#45;&gt;Node107 -->
<g id="edge40" class="edge">
<title>Node25&#45;&gt;Node107</title>
<path fill="none" stroke="#63b8ff" d="M2149.49,-155.07C2248.41,-151.19 2439.79,-139.77 2599,-107 2605.53,-105.66 2612.36,-103.87 2618.97,-101.92"/>
<polygon fill="#63b8ff" stroke="#63b8ff" points="2149.55,-151.57 2139.69,-155.44 2149.82,-158.56 2149.55,-151.57"/>
</g>
<!-- Node108 -->
<g id="node37" class="node">
<title>Node108</title>
<g id="a_node37"><a xlink:href="d__a__dmidna_8h.html" target="_top" xlink:title=" ">
<polygon fill="white" stroke="#666666" points="2846,-101.5 2730,-101.5 2730,-71.5 2846,-71.5 2846,-101.5"/>
<text text-anchor="start" x="2738" y="-89.5" font-family="Helvetica,sans-Serif" font-size="10.00">include/rel/d/a/d_a</text>
<text text-anchor="middle" x="2788" y="-78.5" font-family="Helvetica,sans-Serif" font-size="10.00">_dmidna/d_a_dmidna.h</text>
</a>
</g>
</g>
<!-- Node25&#45;&gt;Node108 -->
<g id="edge41" class="edge">
<title>Node25&#45;&gt;Node108</title>
<path fill="none" stroke="#63b8ff" d="M2149.31,-156.26C2265.88,-153.98 2514.74,-144.68 2721,-107 2728.15,-105.69 2735.63,-103.93 2742.89,-101.99"/>
<polygon fill="#63b8ff" stroke="#63b8ff" points="2149.55,-152.76 2139.62,-156.44 2149.68,-159.76 2149.55,-152.76"/>
</g>
<!-- Node109 -->
<g id="node38" class="node">
<title>Node109</title>
<g id="a_node38"><a xlink:href="d__a__econt_8h.html" target="_top" xlink:title=" ">
<polygon fill="white" stroke="#666666" points="2965.5,-101.5 2864.5,-101.5 2864.5,-71.5 2965.5,-71.5 2965.5,-101.5"/>
<text text-anchor="start" x="2872.5" y="-89.5" font-family="Helvetica,sans-Serif" font-size="10.00">include/rel/d/a/d_a</text>
<text text-anchor="middle" x="2915" y="-78.5" font-family="Helvetica,sans-Serif" font-size="10.00">_econt/d_a_econt.h</text>
</a>
</g>
</g>
<!-- Node25&#45;&gt;Node109 -->
<g id="edge42" class="edge">
<title>Node25&#45;&gt;Node109</title>
<path fill="none" stroke="#63b8ff" d="M2149.59,-154.82C2311.18,-149.19 2720.63,-132.77 2855,-107 2861.67,-105.72 2868.63,-103.92 2875.34,-101.92"/>
<polygon fill="#63b8ff" stroke="#63b8ff" points="2149.78,-151.31 2139.91,-155.16 2150.02,-158.31 2149.78,-151.31"/>
</g>
<!-- Node110 -->
<g id="node39" class="node">
<title>Node110</title>
<g id="a_node39"><a xlink:href="d__a__guard__mng_8h.html" target="_top" xlink:title=" ">
<polygon fill="white" stroke="#666666" points="3132.5,-101.5 2983.5,-101.5 2983.5,-71.5 3132.5,-71.5 3132.5,-101.5"/>
<text text-anchor="start" x="2991.5" y="-89.5" font-family="Helvetica,sans-Serif" font-size="10.00">include/rel/d/a/d_a</text>
<text text-anchor="middle" x="3058" y="-78.5" font-family="Helvetica,sans-Serif" font-size="10.00">_guard_mng/d_a_guard_mng.h</text>
</a>
</g>
</g>
<!-- Node25&#45;&gt;Node110 -->
<g id="edge43" class="edge">
<title>Node25&#45;&gt;Node110</title>
<path fill="none" stroke="#63b8ff" d="M2149.57,-157.23C2298.36,-156.88 2668.85,-151.2 2975,-107 2983.94,-105.71 2993.33,-103.93 3002.45,-101.96"/>
<polygon fill="#63b8ff" stroke="#63b8ff" points="2149.91,-153.73 2139.91,-157.24 2149.92,-160.73 2149.91,-153.73"/>
</g>
<!-- Node111 -->
<g id="node40" class="node">
<title>Node111</title>
<g id="a_node40"><a xlink:href="d__a__hitobj_8h.html" target="_top" xlink:title=" ">
<polygon fill="white" stroke="#666666" points="3251,-101.5 3151,-101.5 3151,-71.5 3251,-71.5 3251,-101.5"/>
<text text-anchor="start" x="3159" y="-89.5" font-family="Helvetica,sans-Serif" font-size="10.00">include/rel/d/a/d_a</text>
<text text-anchor="middle" x="3201" y="-78.5" font-family="Helvetica,sans-Serif" font-size="10.00">_hitobj/d_a_hitobj.h</text>
</a>
</g>
</g>
<!-- Node25&#45;&gt;Node111 -->
<g id="edge44" class="edge">
<title>Node25&#45;&gt;Node111</title>
<path fill="none" stroke="#63b8ff" d="M2149.77,-156.22C2351.14,-153.48 2950.38,-142.5 3142,-107 3148.68,-105.76 3155.65,-103.95 3162.36,-101.93"/>
<polygon fill="#63b8ff" stroke="#63b8ff" points="2149.96,-152.71 2140.01,-156.35 2150.06,-159.71 2149.96,-152.71"/>
</g>
<!-- Node112 -->
<g id="node41" class="node">
<title>Node112</title>
<g id="a_node41"><a xlink:href="d__a__set__bgobj_8h.html" target="_top" xlink:title=" ">
<polygon fill="white" stroke="#666666" points="3406.5,-101.5 3269.5,-101.5 3269.5,-71.5 3406.5,-71.5 3406.5,-101.5"/>
<text text-anchor="start" x="3277.5" y="-89.5" font-family="Helvetica,sans-Serif" font-size="10.00">include/rel/d/a/d_a</text>
<text text-anchor="middle" x="3338" y="-78.5" font-family="Helvetica,sans-Serif" font-size="10.00">_set_bgobj/d_a_set_bgobj.h</text>
</a>
</g>
</g>
<!-- Node25&#45;&gt;Node112 -->
<g id="edge45" class="edge">
<title>Node25&#45;&gt;Node112</title>
<path fill="none" stroke="#63b8ff" d="M2149.6,-155.94C2365.29,-152.25 3043.23,-138.37 3260,-107 3268.57,-105.76 3277.56,-103.98 3286.27,-101.99"/>
<polygon fill="#63b8ff" stroke="#63b8ff" points="2149.62,-152.44 2139.68,-156.11 2149.74,-159.44 2149.62,-152.44"/>
</g>
<!-- Node113 -->
<g id="node42" class="node">
<title>Node113</title>
<g id="a_node42"><a xlink:href="d__a__skip__2D_8h.html" target="_top" xlink:title=" ">
<polygon fill="white" stroke="#666666" points="3549,-101.5 3425,-101.5 3425,-71.5 3549,-71.5 3549,-101.5"/>
<text text-anchor="start" x="3433" y="-89.5" font-family="Helvetica,sans-Serif" font-size="10.00">include/rel/d/a/d_a</text>
<text text-anchor="middle" x="3487" y="-78.5" font-family="Helvetica,sans-Serif" font-size="10.00">_skip_2D/d_a_skip_2D.h</text>
</a>
</g>
</g>
<!-- Node25&#45;&gt;Node113 -->
<g id="edge46" class="edge">
<title>Node25&#45;&gt;Node113</title>
<path fill="none" stroke="#63b8ff" d="M2149.61,-156.53C2383.71,-154.56 3167.84,-145.21 3416,-107 3423.96,-105.77 3432.3,-103.97 3440.36,-101.95"/>
<polygon fill="#63b8ff" stroke="#63b8ff" points="2149.72,-153.03 2139.75,-156.61 2149.77,-160.03 2149.72,-153.03"/>
</g>
<!-- Node114 -->
<g id="node43" class="node">
<title>Node114</title>
<g id="a_node43"><a xlink:href="d__a__spinner_8h.html" target="_top" xlink:title=" ">
<polygon fill="#fff0f0" stroke="red" points="4243,-101.5 4127,-101.5 4127,-71.5 4243,-71.5 4243,-101.5"/>
<text text-anchor="start" x="4135" y="-89.5" font-family="Helvetica,sans-Serif" font-size="10.00">include/rel/d/a/d_a</text>
<text text-anchor="middle" x="4185" y="-78.5" font-family="Helvetica,sans-Serif" font-size="10.00">_spinner/d_a_spinner.h</text>
</a>
</g>
</g>
<!-- Node25&#45;&gt;Node114 -->
<g id="edge47" class="edge">
<title>Node25&#45;&gt;Node114</title>
<path fill="none" stroke="#63b8ff" d="M2149.69,-156.39C2478.6,-153.22 3920.19,-137.68 4118,-107 4125.66,-105.81 4133.68,-104 4141.4,-101.95"/>
<polygon fill="#63b8ff" stroke="#63b8ff" points="2149.94,-152.88 2139.97,-156.48 2150.01,-159.88 2149.94,-152.88"/>
</g>
<!-- Node117 -->
<g id="node44" class="node">
<title>Node117</title>
<g id="a_node44"><a xlink:href="d__a__swTime_8h.html" target="_top" xlink:title=" ">
<polygon fill="white" stroke="#666666" points="3689,-101.5 3567,-101.5 3567,-71.5 3689,-71.5 3689,-101.5"/>
<text text-anchor="start" x="3575" y="-89.5" font-family="Helvetica,sans-Serif" font-size="10.00">include/rel/d/a/d_a</text>
<text text-anchor="middle" x="3628" y="-78.5" font-family="Helvetica,sans-Serif" font-size="10.00">_swTime/d_a_swTime.h</text>
</a>
</g>
</g>
<!-- Node25&#45;&gt;Node117 -->
<g id="edge49" class="edge">
<title>Node25&#45;&gt;Node117</title>
<path fill="none" stroke="#63b8ff" d="M2149.91,-156.84C2400.19,-155.92 3280.99,-149.66 3558,-107 3565.86,-105.79 3574.08,-104 3582.03,-101.98"/>
<polygon fill="#63b8ff" stroke="#63b8ff" points="2149.98,-153.34 2139.99,-156.88 2150,-160.34 2149.98,-153.34"/>
</g>
<!-- Node118 -->
<g id="node45" class="node">
<title>Node118</title>
<g id="a_node45"><a xlink:href="d__a__obj__bombf_8h.html" target="_top" xlink:title=" ">
<polygon fill="white" stroke="#666666" points="3829,-107 3707,-107 3707,-66 3829,-66 3829,-107"/>
<text text-anchor="start" x="3715" y="-95" font-family="Helvetica,sans-Serif" font-size="10.00">include/rel/d/a/obj</text>
<text text-anchor="start" x="3715" y="-84" font-family="Helvetica,sans-Serif" font-size="10.00">/d_a_obj_bombf/d_a_obj</text>
<text text-anchor="middle" x="3768" y="-73" font-family="Helvetica,sans-Serif" font-size="10.00">_bombf.h</text>
</a>
</g>
</g>
<!-- Node25&#45;&gt;Node118 -->
<g id="edge52" class="edge">
<title>Node25&#45;&gt;Node118</title>
<path fill="none" stroke="#63b8ff" d="M2149.57,-157.07C2414.21,-157.03 3392.13,-153.64 3698,-107 3700.87,-106.56 3703.79,-106.05 3706.72,-105.47"/>
<polygon fill="#63b8ff" stroke="#63b8ff" points="2149.76,-153.57 2139.76,-157.07 2149.76,-160.57 2149.76,-153.57"/>
</g>
<!-- Node32&#45;&gt;Node33 -->
<g id="edge15" class="edge">
<title>Node32&#45;&gt;Node33</title>
<path fill="none" stroke="#63b8ff" d="M692.26,-70.45C674.25,-58.53 649.26,-41.99 631.57,-30.27"/>
<polygon fill="#63b8ff" stroke="#63b8ff" points="690.17,-73.26 700.44,-75.86 694.03,-67.42 690.17,-73.26"/>
</g>
<!-- Node32&#45;&gt;Node38 -->
<g id="edge16" class="edge">
<title>Node32&#45;&gt;Node38</title>
<path fill="none" stroke="#63b8ff" d="M720.11,-65.76C723.04,-54.45 726.65,-40.52 729.3,-30.27"/>
<polygon fill="#63b8ff" stroke="#63b8ff" points="716.78,-64.67 717.66,-75.23 723.55,-66.43 716.78,-64.67"/>
</g>
<!-- Node32&#45;&gt;Node39 -->
<g id="edge17" class="edge">
<title>Node32&#45;&gt;Node39</title>
<path fill="none" stroke="#63b8ff" d="M743.52,-71.64C768.06,-59.71 803.33,-42.57 828.22,-30.47"/>
<polygon fill="#63b8ff" stroke="#63b8ff" points="742.23,-68.38 734.76,-75.89 745.29,-74.67 742.23,-68.38"/>
</g>
<!-- Node45&#45;&gt;Node11 -->
<g id="edge20" class="edge">
<title>Node45&#45;&gt;Node11</title>
<path fill="none" stroke="#63b8ff" d="M4061,-65.3C4061,-51.94 4061,-35.09 4061,-24.95"/>
<polygon fill="#63b8ff" stroke="#63b8ff" points="4057.5,-65.18 4061,-75.18 4064.5,-65.18 4057.5,-65.18"/>
</g>
<!-- Node54&#45;&gt;Node55 -->
<g id="edge24" class="edge">
<title>Node54&#45;&gt;Node55</title>
<path fill="none" stroke="#63b8ff" d="M1336,-65.39C1336,-54.15 1336,-40.41 1336,-30.27"/>
<polygon fill="#63b8ff" stroke="#63b8ff" points="1332.5,-65.18 1336,-75.18 1339.5,-65.18 1332.5,-65.18"/>
</g>
<!-- Node59&#45;&gt;Node55 -->
<g id="edge27" class="edge">
<title>Node59&#45;&gt;Node55</title>
<path fill="none" stroke="#63b8ff" d="M1419.06,-65.34C1400.22,-54.15 1377.23,-40.49 1360.21,-30.38"/>
<polygon fill="#63b8ff" stroke="#63b8ff" points="1417.07,-68.23 1427.46,-70.33 1420.65,-62.21 1417.07,-68.23"/>
</g>
<!-- Node73&#45;&gt;Node26 -->
<g id="edge32" class="edge">
<title>Node73&#45;&gt;Node26</title>
<path fill="none" stroke="#63b8ff" d="M3848.99,-68.24C3845.29,-67.38 3841.61,-66.62 3838,-66 3629.31,-30.15 2967.52,-19.15 2770.72,-16.63"/>
<polygon fill="#63b8ff" stroke="#63b8ff" points="3848,-71.6 3858.55,-70.7 3849.74,-64.82 3848,-71.6"/>
</g>
<!-- Node73&#45;&gt;Node11 -->
<g id="edge33" class="edge">
<title>Node73&#45;&gt;Node11</title>
<path fill="none" stroke="#63b8ff" d="M3945.49,-66.49C3976.51,-52.93 4016.81,-35.31 4040.69,-24.88"/>
<polygon fill="#63b8ff" stroke="#63b8ff" points="3944.09,-63.28 3936.33,-70.49 3946.9,-69.7 3944.09,-63.28"/>
</g>
<!-- Node114&#45;&gt;Node11 -->
<g id="edge48" class="edge">
<title>Node114&#45;&gt;Node11</title>
<path fill="none" stroke="#63b8ff" d="M4149.49,-65.6C4125.52,-52.16 4095.05,-35.09 4076.84,-24.88"/>
<polygon fill="#63b8ff" stroke="#63b8ff" points="4147.55,-68.52 4157.99,-70.36 4150.97,-62.42 4147.55,-68.52"/>
</g>
</g>
</svg>
