<?xml version="1.0" encoding="UTF-8" standalone="no"?>
<!DOCTYPE svg PUBLIC "-//W3C//DTD SVG 1.1//EN"
 "http://www.w3.org/Graphics/SVG/1.1/DTD/svg11.dtd">
<!-- Generated by graphviz version 7.0.5 (20221223.1930)
 -->
<!-- Title: include/JSystem/J3DGraphBase/J3DTevs.h Pages: 1 -->
<!--zoomable 236 -->
<svg id="main" version="1.1" xmlns="http://www.w3.org/2000/svg" xmlns:xlink="http://www.w3.org/1999/xlink" xml:space="preserve" onload="init(evt)">
<style type="text/css"><![CDATA[
.edge:hover path { stroke: red; }
.edge:hover polygon { stroke: red; fill: red; }
]]></style>
<script type="text/javascript"><![CDATA[
var edges = document.getElementsByTagName('g');
if (edges && edges.length) {
  for (var i=0;i<edges.length;i++) {
    if (edges[i].id.substr(0,4)=='edge') {
      edges[i].setAttribute('class','edge');
    }
  }
}
]]></script>
        <defs>
                <circle id="rim" cx="0" cy="0" r="7"/>
                <circle id="rim2" cx="0" cy="0" r="3.5"/>
                <g id="zoomPlus">
                        <use xlink:href="#rim" fill="#404040">
                                <set attributeName="fill" to="#808080" begin="zoomplus.mouseover" end="zoomplus.mouseout"/>
                        </use>
                        <path d="M-4,0h8M0,-4v8" fill="none" stroke="white" stroke-width="1.5" pointer-events="none"/>
                </g>
                <g id="zoomMin">
                        <use xlink:href="#rim" fill="#404040">
                                <set attributeName="fill" to="#808080" begin="zoomminus.mouseover" end="zoomminus.mouseout"/>
                        </use>
                        <path d="M-4,0h8" fill="none" stroke="white" stroke-width="1.5" pointer-events="none"/>
                </g>
                <g id="dirArrow">
                        <path fill="none" stroke="white" stroke-width="1.5" d="M0,-3.0v7 M-2.5,-0.5L0,-3.0L2.5,-0.5"/>
                </g>
               <g id="resetDef">
                       <use xlink:href="#rim2" fill="#404040">
                               <set attributeName="fill" to="#808080" begin="reset.mouseover" end="reset.mouseout"/>
                       </use>
               </g>
        </defs>

<script type="text/javascript">
var viewWidth = 3698;
var viewHeight = 236;
var sectionId = 'dynsection-1';
</script>
<script xlink:href="svgpan.js"/>
<svg id="graph" class="graph">
<g id="viewport">
<title>include/JSystem/J3DGraphBase/J3DTevs.h</title>
<!-- Node1 -->
<g id="node1" class="node">
<title>Node1</title>
<g id="a_node1"><a xlink:title=" ">
<polygon fill="#999999" stroke="#666666" points="3284.5,-228 3149.5,-228 3149.5,-198 3284.5,-198 3284.5,-228"/>
<text text-anchor="start" x="3157.5" y="-216" font-family="Helvetica,sans-Serif" font-size="10.00">include/JSystem/J3DGraph</text>
<text text-anchor="middle" x="3217" y="-205" font-family="Helvetica,sans-Serif" font-size="10.00">Base/J3DTevs.h</text>
</a>
</g>
</g>
<!-- Node2 -->
<g id="node2" class="node">
<title>Node2</title>
<g id="a_node2"><a xlink:href="J3DMatBlock_8h.html" target="_top" xlink:title=" ">
<polygon fill="white" stroke="#666666" points="3127.5,-162 2992.5,-162 2992.5,-132 3127.5,-132 3127.5,-162"/>
<text text-anchor="start" x="3000.5" y="-150" font-family="Helvetica,sans-Serif" font-size="10.00">include/JSystem/J3DGraph</text>
<text text-anchor="middle" x="3060" y="-139" font-family="Helvetica,sans-Serif" font-size="10.00">Base/J3DMatBlock.h</text>
</a>
</g>
</g>
<!-- Node1&#45;&gt;Node2 -->
<g id="edge1" class="edge">
<title>Node1&#45;&gt;Node2</title>
<path fill="none" stroke="#63b8ff" d="M3171.39,-193.41C3147.18,-183.54 3117.86,-171.59 3095.39,-162.43"/>
<polygon fill="#63b8ff" stroke="#63b8ff" points="3169.78,-196.53 3180.36,-197.07 3172.43,-190.05 3169.78,-196.53"/>
</g>
<!-- Node32 -->
<g id="node32" class="node">
<title>Node32</title>
<g id="a_node32"><a xlink:href="J3DSys_8cpp.html" target="_top" xlink:title=" ">
<polygon fill="white" stroke="#666666" points="3288,-162 3146,-162 3146,-132 3288,-132 3288,-162"/>
<text text-anchor="start" x="3154" y="-150" font-family="Helvetica,sans-Serif" font-size="10.00">libs/JSystem/J3DGraphBase</text>
<text text-anchor="middle" x="3217" y="-139" font-family="Helvetica,sans-Serif" font-size="10.00">/J3DSys.cpp</text>
</a>
</g>
</g>
<!-- Node1&#45;&gt;Node32 -->
<g id="edge32" class="edge">
<title>Node1&#45;&gt;Node32</title>
<path fill="none" stroke="#63b8ff" d="M3217,-186.39C3217,-178.13 3217,-169.28 3217,-162.16"/>
<polygon fill="#63b8ff" stroke="#63b8ff" points="3213.5,-186.28 3217,-196.28 3220.5,-186.28 3213.5,-186.28"/>
</g>
<!-- Node33 -->
<g id="node33" class="node">
<title>Node33</title>
<g id="a_node33"><a xlink:href="J3DTevs_8cpp.html" target="_top" xlink:title=" ">
<polygon fill="white" stroke="#666666" points="3448,-162 3306,-162 3306,-132 3448,-132 3448,-162"/>
<text text-anchor="start" x="3314" y="-150" font-family="Helvetica,sans-Serif" font-size="10.00">libs/JSystem/J3DGraphBase</text>
<text text-anchor="middle" x="3377" y="-139" font-family="Helvetica,sans-Serif" font-size="10.00">/J3DTevs.cpp</text>
</a>
</g>
</g>
<!-- Node1&#45;&gt;Node33 -->
<g id="edge33" class="edge">
<title>Node1&#45;&gt;Node33</title>
<path fill="none" stroke="#63b8ff" d="M3263.48,-193.41C3288.16,-183.54 3318.03,-171.59 3340.94,-162.43"/>
<polygon fill="#63b8ff" stroke="#63b8ff" points="3262.3,-190.11 3254.31,-197.08 3264.9,-196.61 3262.3,-190.11"/>
</g>
<!-- Node3 -->
<g id="node3" class="node">
<title>Node3</title>
<g id="a_node3"><a xlink:href="J3DMaterial_8h.html" target="_top" xlink:title=" ">
<polygon fill="white" stroke="#666666" points="1585.5,-96 1450.5,-96 1450.5,-66 1585.5,-66 1585.5,-96"/>
<text text-anchor="start" x="1458.5" y="-84" font-family="Helvetica,sans-Serif" font-size="10.00">include/JSystem/J3DGraph</text>
<text text-anchor="middle" x="1518" y="-73" font-family="Helvetica,sans-Serif" font-size="10.00">Base/J3DMaterial.h</text>
</a>
</g>
</g>
<!-- Node2&#45;&gt;Node3 -->
<g id="edge2" class="edge">
<title>Node2&#45;&gt;Node3</title>
<path fill="none" stroke="#63b8ff" d="M2981.06,-142.72C2712.53,-131.58 1837.18,-95.25 1585.97,-84.82"/>
<polygon fill="#63b8ff" stroke="#63b8ff" points="2980.6,-146.21 2990.74,-143.13 2980.89,-139.21 2980.6,-146.21"/>
</g>
<!-- Node21 -->
<g id="node21" class="node">
<title>Node21</title>
<g id="a_node21"><a xlink:href="d__a__alink_8h.html" target="_top" xlink:title=" ">
<polygon fill="white" stroke="#666666" points="3045,-90.5 2929,-90.5 2929,-71.5 3045,-71.5 3045,-90.5"/>
<text text-anchor="middle" x="2987" y="-78.5" font-family="Helvetica,sans-Serif" font-size="10.00">include/d/a/d_a_alink.h</text>
</a>
</g>
</g>
<!-- Node2&#45;&gt;Node21 -->
<g id="edge20" class="edge">
<title>Node2&#45;&gt;Node21</title>
<path fill="none" stroke="#63b8ff" d="M3035.22,-124.27C3022.17,-112.84 3006.89,-99.44 2997.09,-90.84"/>
<polygon fill="#63b8ff" stroke="#63b8ff" points="3032.83,-126.84 3042.66,-130.8 3037.45,-121.57 3032.83,-126.84"/>
</g>
<!-- Node30 -->
<g id="node30" class="node">
<title>Node30</title>
<g id="a_node30"><a xlink:href="J3DMatBlock_8cpp.html" target="_top" xlink:title=" ">
<polygon fill="white" stroke="#666666" points="3205,-96 3063,-96 3063,-66 3205,-66 3205,-96"/>
<text text-anchor="start" x="3071" y="-84" font-family="Helvetica,sans-Serif" font-size="10.00">libs/JSystem/J3DGraphBase</text>
<text text-anchor="middle" x="3134" y="-73" font-family="Helvetica,sans-Serif" font-size="10.00">/J3DMatBlock.cpp</text>
</a>
</g>
</g>
<!-- Node2&#45;&gt;Node30 -->
<g id="edge30" class="edge">
<title>Node2&#45;&gt;Node30</title>
<path fill="none" stroke="#63b8ff" d="M3084.95,-124.42C3095.63,-115.18 3107.81,-104.65 3117.37,-96.39"/>
<polygon fill="#63b8ff" stroke="#63b8ff" points="3082.84,-121.62 3077.57,-130.81 3087.42,-126.91 3082.84,-121.62"/>
</g>
<!-- Node31 -->
<g id="node31" class="node">
<title>Node31</title>
<g id="a_node31"><a xlink:href="d__attention_8cpp.html" target="_top" xlink:title=" ">
<polygon fill="white" stroke="#666666" points="3330.5,-90.5 3223.5,-90.5 3223.5,-71.5 3330.5,-71.5 3330.5,-90.5"/>
<text text-anchor="middle" x="3277" y="-78.5" font-family="Helvetica,sans-Serif" font-size="10.00">src/d/d_attention.cpp</text>
</a>
</g>
</g>
<!-- Node2&#45;&gt;Node31 -->
<g id="edge31" class="edge">
<title>Node2&#45;&gt;Node31</title>
<path fill="none" stroke="#63b8ff" d="M3119.96,-128.32C3161.08,-116.19 3213.91,-100.61 3246.61,-90.96"/>
<polygon fill="#63b8ff" stroke="#63b8ff" points="3119.02,-124.94 3110.42,-131.13 3121,-131.66 3119.02,-124.94"/>
</g>
<!-- Node4 -->
<g id="node4" class="node">
<title>Node4</title>
<g id="a_node4"><a xlink:href="J3DJoint_8cpp.html" target="_top" xlink:title=" ">
<polygon fill="white" stroke="#666666" points="158,-30 0,-30 0,0 158,0 158,-30"/>
<text text-anchor="start" x="8" y="-18" font-family="Helvetica,sans-Serif" font-size="10.00">libs/JSystem/J3DGraphAnimator</text>
<text text-anchor="middle" x="79" y="-7" font-family="Helvetica,sans-Serif" font-size="10.00">/J3DJoint.cpp</text>
</a>
</g>
</g>
<!-- Node3&#45;&gt;Node4 -->
<g id="edge3" class="edge">
<title>Node3&#45;&gt;Node4</title>
<path fill="none" stroke="#63b8ff" d="M1438.91,-80.4C1230.36,-80.74 648.45,-77.03 167,-30 164.07,-29.71 161.1,-29.39 158.1,-29.05"/>
<polygon fill="#63b8ff" stroke="#63b8ff" points="1438.82,-83.9 1448.82,-80.38 1438.81,-76.9 1438.82,-83.9"/>
</g>
<!-- Node5 -->
<g id="node5" class="node">
<title>Node5</title>
<g id="a_node5"><a xlink:href="J3DJointTree_8cpp.html" target="_top" xlink:title=" ">
<polygon fill="white" stroke="#666666" points="334,-30 176,-30 176,0 334,0 334,-30"/>
<text text-anchor="start" x="184" y="-18" font-family="Helvetica,sans-Serif" font-size="10.00">libs/JSystem/J3DGraphAnimator</text>
<text text-anchor="middle" x="255" y="-7" font-family="Helvetica,sans-Serif" font-size="10.00">/J3DJointTree.cpp</text>
</a>
</g>
</g>
<!-- Node3&#45;&gt;Node5 -->
<g id="edge4" class="edge">
<title>Node3&#45;&gt;Node5</title>
<path fill="none" stroke="#63b8ff" d="M1438.74,-79.77C1249,-78.55 753.91,-71.29 343,-30 340.08,-29.71 337.1,-29.38 334.1,-29.02"/>
<polygon fill="#63b8ff" stroke="#63b8ff" points="1438.72,-83.27 1448.74,-79.83 1438.76,-76.27 1438.72,-83.27"/>
</g>
<!-- Node6 -->
<g id="node6" class="node">
<title>Node6</title>
<g id="a_node6"><a xlink:href="J3DMaterialAnm_8cpp.html" target="_top" xlink:title=" ">
<polygon fill="white" stroke="#666666" points="510,-30 352,-30 352,0 510,0 510,-30"/>
<text text-anchor="start" x="360" y="-18" font-family="Helvetica,sans-Serif" font-size="10.00">libs/JSystem/J3DGraphAnimator</text>
<text text-anchor="middle" x="431" y="-7" font-family="Helvetica,sans-Serif" font-size="10.00">/J3DMaterialAnm.cpp</text>
</a>
</g>
</g>
<!-- Node3&#45;&gt;Node6 -->
<g id="edge5" class="edge">
<title>Node3&#45;&gt;Node6</title>
<path fill="none" stroke="#63b8ff" d="M1439,-78.94C1269.85,-76.02 860.27,-65.58 519,-30 516.08,-29.7 513.1,-29.36 510.1,-29"/>
<polygon fill="#63b8ff" stroke="#63b8ff" points="1438.7,-82.43 1448.76,-79.1 1438.82,-75.43 1438.7,-82.43"/>
</g>
<!-- Node7 -->
<g id="node7" class="node">
<title>Node7</title>
<g id="a_node7"><a xlink:href="J3DMaterialAttach_8cpp.html" target="_top" xlink:title=" ">
<polygon fill="white" stroke="#666666" points="686,-30 528,-30 528,0 686,0 686,-30"/>
<text text-anchor="start" x="536" y="-18" font-family="Helvetica,sans-Serif" font-size="10.00">libs/JSystem/J3DGraphAnimator</text>
<text text-anchor="middle" x="607" y="-7" font-family="Helvetica,sans-Serif" font-size="10.00">/J3DMaterialAttach.cpp</text>
</a>
</g>
</g>
<!-- Node3&#45;&gt;Node7 -->
<g id="edge6" class="edge">
<title>Node3&#45;&gt;Node7</title>
<path fill="none" stroke="#63b8ff" d="M1438.95,-77.75C1292.05,-73 967.16,-59.84 695,-30 692.08,-29.68 689.11,-29.33 686.11,-28.96"/>
<polygon fill="#63b8ff" stroke="#63b8ff" points="1438.45,-81.24 1448.55,-78.06 1438.67,-74.24 1438.45,-81.24"/>
</g>
<!-- Node8 -->
<g id="node8" class="node">
<title>Node8</title>
<g id="a_node8"><a xlink:href="J3DModel_8cpp.html" target="_top" xlink:title=" ">
<polygon fill="white" stroke="#666666" points="862,-30 704,-30 704,0 862,0 862,-30"/>
<text text-anchor="start" x="712" y="-18" font-family="Helvetica,sans-Serif" font-size="10.00">libs/JSystem/J3DGraphAnimator</text>
<text text-anchor="middle" x="783" y="-7" font-family="Helvetica,sans-Serif" font-size="10.00">/J3DModel.cpp</text>
</a>
</g>
</g>
<!-- Node3&#45;&gt;Node8 -->
<g id="edge7" class="edge">
<title>Node3&#45;&gt;Node8</title>
<path fill="none" stroke="#63b8ff" d="M1438.85,-75.95C1316.71,-69.22 1075.04,-54.08 871,-30 868.08,-29.66 865.11,-29.29 862.11,-28.89"/>
<polygon fill="#63b8ff" stroke="#63b8ff" points="1438.61,-79.44 1448.78,-76.49 1438.99,-72.45 1438.61,-79.44"/>
</g>
<!-- Node9 -->
<g id="node9" class="node">
<title>Node9</title>
<g id="a_node9"><a xlink:href="J3DModelData_8cpp.html" target="_top" xlink:title=" ">
<polygon fill="white" stroke="#666666" points="1038,-30 880,-30 880,0 1038,0 1038,-30"/>
<text text-anchor="start" x="888" y="-18" font-family="Helvetica,sans-Serif" font-size="10.00">libs/JSystem/J3DGraphAnimator</text>
<text text-anchor="middle" x="959" y="-7" font-family="Helvetica,sans-Serif" font-size="10.00">/J3DModelData.cpp</text>
</a>
</g>
</g>
<!-- Node3&#45;&gt;Node9 -->
<g id="edge8" class="edge">
<title>Node3&#45;&gt;Node9</title>
<path fill="none" stroke="#63b8ff" d="M1438.64,-72.85C1344.9,-64.1 1184.34,-48.2 1047,-30 1044.09,-29.61 1041.12,-29.21 1038.13,-28.79"/>
<polygon fill="#63b8ff" stroke="#63b8ff" points="1438.22,-76.32 1448.5,-73.76 1438.87,-69.35 1438.22,-76.32"/>
</g>
<!-- Node10 -->
<g id="node10" class="node">
<title>Node10</title>
<g id="a_node10"><a xlink:href="J3DDrawBuffer_8cpp.html" target="_top" xlink:title=" ">
<polygon fill="white" stroke="#666666" points="1198,-30 1056,-30 1056,0 1198,0 1198,-30"/>
<text text-anchor="start" x="1064" y="-18" font-family="Helvetica,sans-Serif" font-size="10.00">libs/JSystem/J3DGraphBase</text>
<text text-anchor="middle" x="1127" y="-7" font-family="Helvetica,sans-Serif" font-size="10.00">/J3DDrawBuffer.cpp</text>
</a>
</g>
</g>
<!-- Node3&#45;&gt;Node10 -->
<g id="edge9" class="edge">
<title>Node3&#45;&gt;Node10</title>
<path fill="none" stroke="#63b8ff" d="M1438.98,-67.61C1376.09,-57.67 1285.86,-43.24 1207,-30 1204.08,-29.51 1201.1,-29.01 1198.09,-28.49"/>
<polygon fill="#63b8ff" stroke="#63b8ff" points="1438.09,-71.01 1448.51,-69.11 1439.18,-64.09 1438.09,-71.01"/>
</g>
<!-- Node11 -->
<g id="node11" class="node">
<title>Node11</title>
<g id="a_node11"><a xlink:href="J3DMaterial_8cpp.html" target="_top" xlink:title=" ">
<polygon fill="white" stroke="#666666" points="1358,-30 1216,-30 1216,0 1358,0 1358,-30"/>
<text text-anchor="start" x="1224" y="-18" font-family="Helvetica,sans-Serif" font-size="10.00">libs/JSystem/J3DGraphBase</text>
<text text-anchor="middle" x="1287" y="-7" font-family="Helvetica,sans-Serif" font-size="10.00">/J3DMaterial.cpp</text>
</a>
</g>
</g>
<!-- Node3&#45;&gt;Node11 -->
<g id="edge10" class="edge">
<title>Node3&#45;&gt;Node11</title>
<path fill="none" stroke="#63b8ff" d="M1454.88,-62.51C1418.48,-52.43 1373.27,-39.9 1338.94,-30.39"/>
<polygon fill="#63b8ff" stroke="#63b8ff" points="1453.84,-65.86 1464.41,-65.15 1455.71,-59.11 1453.84,-65.86"/>
</g>
<!-- Node12 -->
<g id="node12" class="node">
<title>Node12</title>
<g id="a_node12"><a xlink:href="J3DPacket_8cpp.html" target="_top" xlink:title=" ">
<polygon fill="white" stroke="#666666" points="1518,-30 1376,-30 1376,0 1518,0 1518,-30"/>
<text text-anchor="start" x="1384" y="-18" font-family="Helvetica,sans-Serif" font-size="10.00">libs/JSystem/J3DGraphBase</text>
<text text-anchor="middle" x="1447" y="-7" font-family="Helvetica,sans-Serif" font-size="10.00">/J3DPacket.cpp</text>
</a>
</g>
</g>
<!-- Node3&#45;&gt;Node12 -->
<g id="edge11" class="edge">
<title>Node3&#45;&gt;Node12</title>
<path fill="none" stroke="#63b8ff" d="M1493.69,-58.09C1483.44,-48.85 1471.81,-38.36 1462.71,-30.16"/>
<polygon fill="#63b8ff" stroke="#63b8ff" points="1491.35,-60.69 1501.12,-64.78 1496.03,-55.49 1491.35,-60.69"/>
</g>
<!-- Node13 -->
<g id="node13" class="node">
<title>Node13</title>
<g id="a_node13"><a xlink:href="d__a__alink_8cpp.html" target="_top" xlink:title=" ">
<polygon fill="white" stroke="#666666" points="2594.5,-24.5 2485.5,-24.5 2485.5,-5.5 2594.5,-5.5 2594.5,-24.5"/>
<text text-anchor="middle" x="2540" y="-12.5" font-family="Helvetica,sans-Serif" font-size="10.00">src/d/a/d_a_alink.cpp</text>
</a>
</g>
</g>
<!-- Node3&#45;&gt;Node13 -->
<g id="edge12" class="edge">
<title>Node3&#45;&gt;Node13</title>
<path fill="none" stroke="#63b8ff" d="M1597.16,-80.22C1761.64,-79.73 2152.01,-73.59 2476,-30 2485.13,-28.77 2494.89,-26.92 2503.97,-24.96"/>
<polygon fill="#63b8ff" stroke="#63b8ff" points="1597.22,-76.72 1587.23,-80.25 1597.24,-83.72 1597.22,-76.72"/>
</g>
<!-- Node14 -->
<g id="node14" class="node">
<title>Node14</title>
<g id="a_node14"><a xlink:href="d__a__npc_8cpp.html" target="_top" xlink:title=" ">
<polygon fill="white" stroke="#666666" points="1640,-24.5 1536,-24.5 1536,-5.5 1640,-5.5 1640,-24.5"/>
<text text-anchor="middle" x="1588" y="-12.5" font-family="Helvetica,sans-Serif" font-size="10.00">src/d/a/d_a_npc.cpp</text>
</a>
</g>
</g>
<!-- Node3&#45;&gt;Node14 -->
<g id="edge13" class="edge">
<title>Node3&#45;&gt;Node14</title>
<path fill="none" stroke="#63b8ff" d="M1541.76,-58.27C1554.27,-46.84 1568.92,-33.44 1578.33,-24.84"/>
<polygon fill="#63b8ff" stroke="#63b8ff" points="1539.67,-55.44 1534.65,-64.78 1544.39,-60.61 1539.67,-55.44"/>
</g>
<!-- Node15 -->
<g id="node15" class="node">
<title>Node15</title>
<g id="a_node15"><a xlink:href="d__model_8cpp.html" target="_top" xlink:title=" ">
<polygon fill="white" stroke="#666666" points="1754,-24.5 1658,-24.5 1658,-5.5 1754,-5.5 1754,-24.5"/>
<text text-anchor="middle" x="1706" y="-12.5" font-family="Helvetica,sans-Serif" font-size="10.00">src/d/d_model.cpp</text>
</a>
</g>
</g>
<!-- Node3&#45;&gt;Node15 -->
<g id="edge14" class="edge">
<title>Node3&#45;&gt;Node15</title>
<path fill="none" stroke="#63b8ff" d="M1570.85,-62.01C1606.32,-49.93 1651.51,-34.55 1679.6,-24.99"/>
<polygon fill="#63b8ff" stroke="#63b8ff" points="1569.96,-58.61 1561.62,-65.15 1572.22,-65.24 1569.96,-58.61"/>
</g>
<!-- Node16 -->
<g id="node16" class="node">
<title>Node16</title>
<g id="a_node16"><a xlink:href="d__resorce_8cpp.html" target="_top" xlink:title=" ">
<polygon fill="white" stroke="#666666" points="1874,-24.5 1772,-24.5 1772,-5.5 1874,-5.5 1874,-24.5"/>
<text text-anchor="middle" x="1823" y="-12.5" font-family="Helvetica,sans-Serif" font-size="10.00">src/d/d_resorce.cpp</text>
</a>
</g>
</g>
<!-- Node3&#45;&gt;Node16 -->
<g id="edge15" class="edge">
<title>Node3&#45;&gt;Node16</title>
<path fill="none" stroke="#63b8ff" d="M1597.23,-64.41C1645.26,-54.82 1707.74,-42.08 1763,-30 1770.21,-28.42 1777.89,-26.68 1785.27,-24.97"/>
<polygon fill="#63b8ff" stroke="#63b8ff" points="1596.57,-60.98 1587.45,-66.36 1597.94,-67.84 1596.57,-60.98"/>
</g>
<!-- Node17 -->
<g id="node17" class="node">
<title>Node17</title>
<g id="a_node17"><a xlink:href="d__file__select_8cpp.html" target="_top" xlink:title=" ">
<polygon fill="white" stroke="#666666" points="2020,-24.5 1892,-24.5 1892,-5.5 2020,-5.5 2020,-24.5"/>
<text text-anchor="middle" x="1956" y="-12.5" font-family="Helvetica,sans-Serif" font-size="10.00">src/d/file/d_file_select.cpp</text>
</a>
</g>
</g>
<!-- Node3&#45;&gt;Node17 -->
<g id="edge16" class="edge">
<title>Node3&#45;&gt;Node17</title>
<path fill="none" stroke="#63b8ff" d="M1596.85,-70.43C1670.9,-61.15 1784.7,-46.15 1883,-30 1892.17,-28.49 1901.95,-26.73 1911.28,-24.97"/>
<polygon fill="#63b8ff" stroke="#63b8ff" points="1596.76,-66.92 1587.27,-71.63 1597.63,-73.86 1596.76,-66.92"/>
</g>
<!-- Node18 -->
<g id="node18" class="node">
<title>Node18</title>
<g id="a_node18"><a xlink:href="d__kankyo_8cpp.html" target="_top" xlink:title=" ">
<polygon fill="white" stroke="#666666" points="2172,-24.5 2038,-24.5 2038,-5.5 2172,-5.5 2172,-24.5"/>
<text text-anchor="middle" x="2105" y="-12.5" font-family="Helvetica,sans-Serif" font-size="10.00">src/d/kankyo/d_kankyo.cpp</text>
</a>
</g>
</g>
<!-- Node3&#45;&gt;Node18 -->
<g id="edge17" class="edge">
<title>Node3&#45;&gt;Node18</title>
<path fill="none" stroke="#63b8ff" d="M1597.28,-74.33C1697.95,-66.66 1876.86,-51.42 2029,-30 2038.96,-28.6 2049.61,-26.81 2059.69,-25"/>
<polygon fill="#63b8ff" stroke="#63b8ff" points="1597.21,-70.83 1587.51,-75.07 1597.74,-77.81 1597.21,-70.83"/>
</g>
<!-- Node19 -->
<g id="node19" class="node">
<title>Node19</title>
<g id="a_node19"><a xlink:href="d__particle_8cpp.html" target="_top" xlink:title=" ">
<polygon fill="white" stroke="#666666" points="2326,-24.5 2190,-24.5 2190,-5.5 2326,-5.5 2326,-24.5"/>
<text text-anchor="middle" x="2258" y="-12.5" font-family="Helvetica,sans-Serif" font-size="10.00">src/d/particle/d_particle.cpp</text>
</a>
</g>
</g>
<!-- Node3&#45;&gt;Node19 -->
<g id="edge18" class="edge">
<title>Node3&#45;&gt;Node19</title>
<path fill="none" stroke="#63b8ff" d="M1596.81,-76.73C1721.3,-70.96 1970.88,-56.95 2181,-30 2191.51,-28.65 2202.77,-26.83 2213.34,-24.94"/>
<polygon fill="#63b8ff" stroke="#63b8ff" points="1596.87,-73.22 1587.04,-77.17 1597.19,-80.21 1596.87,-73.22"/>
</g>
<!-- Node20 -->
<g id="node20" class="node">
<title>Node20</title>
<g id="a_node20"><a xlink:href="m__Do__ext_8cpp.html" target="_top" xlink:title=" ">
<polygon fill="white" stroke="#666666" points="2467.5,-24.5 2344.5,-24.5 2344.5,-5.5 2467.5,-5.5 2467.5,-24.5"/>
<text text-anchor="middle" x="2406" y="-12.5" font-family="Helvetica,sans-Serif" font-size="10.00">src/m_Do/m_Do_ext.cpp</text>
</a>
</g>
</g>
<!-- Node3&#45;&gt;Node20 -->
<g id="edge19" class="edge">
<title>Node3&#45;&gt;Node20</title>
<path fill="none" stroke="#63b8ff" d="M1597.31,-78.66C1743.66,-75.41 2065.86,-64.61 2335,-30 2344.97,-28.72 2355.64,-26.87 2365.6,-24.94"/>
<polygon fill="#63b8ff" stroke="#63b8ff" points="1597.24,-75.16 1587.32,-78.88 1597.39,-82.16 1597.24,-75.16"/>
</g>
<!-- Node21&#45;&gt;Node13 -->
<g id="edge21" class="edge">
<title>Node21&#45;&gt;Node13</title>
<path fill="none" stroke="#63b8ff" d="M2917.72,-72.76C2840.8,-64.3 2713.09,-49.02 2604,-30 2595.71,-28.55 2586.86,-26.78 2578.48,-24.98"/>
<polygon fill="#63b8ff" stroke="#63b8ff" points="2916.87,-76.19 2927.19,-73.79 2917.63,-69.23 2916.87,-76.19"/>
</g>
<!-- Node22 -->
<g id="node22" class="node">
<title>Node22</title>
<g id="a_node22"><a xlink:href="d__a__player_8cpp.html" target="_top" xlink:title=" ">
<polygon fill="white" stroke="#666666" points="2727,-24.5 2613,-24.5 2613,-5.5 2727,-5.5 2727,-24.5"/>
<text text-anchor="middle" x="2670" y="-12.5" font-family="Helvetica,sans-Serif" font-size="10.00">src/d/a/d_a_player.cpp</text>
</a>
</g>
</g>
<!-- Node21&#45;&gt;Node22 -->
<g id="edge22" class="edge">
<title>Node21&#45;&gt;Node22</title>
<path fill="none" stroke="#63b8ff" d="M2930.07,-68.87C2879.17,-58.87 2802.56,-43.69 2736,-30 2728.2,-28.4 2719.88,-26.66 2711.88,-24.97"/>
<polygon fill="#63b8ff" stroke="#63b8ff" points="2929.19,-72.26 2939.68,-70.75 2930.54,-65.39 2929.19,-72.26"/>
</g>
<!-- Node23 -->
<g id="node23" class="node">
<title>Node23</title>
<g id="a_node23"><a xlink:href="d__com__inf__game_8cpp.html" target="_top" xlink:title=" ">
<polygon fill="white" stroke="#666666" points="2853,-30 2745,-30 2745,0 2853,0 2853,-30"/>
<text text-anchor="start" x="2753" y="-18" font-family="Helvetica,sans-Serif" font-size="10.00">src/d/com/d_com_inf</text>
<text text-anchor="middle" x="2799" y="-7" font-family="Helvetica,sans-Serif" font-size="10.00">_game.cpp</text>
</a>
</g>
</g>
<!-- Node21&#45;&gt;Node23 -->
<g id="edge23" class="edge">
<title>Node21&#45;&gt;Node23</title>
<path fill="none" stroke="#63b8ff" d="M2950.03,-67.41C2918.84,-56.8 2874.19,-41.6 2841.53,-30.48"/>
<polygon fill="#63b8ff" stroke="#63b8ff" points="2948.83,-70.7 2959.43,-70.61 2951.09,-64.08 2948.83,-70.7"/>
</g>
<!-- Node24 -->
<g id="node24" class="node">
<title>Node24</title>
<g id="a_node24"><a xlink:href="d__camera_8cpp.html" target="_top" xlink:title=" ">
<polygon fill="white" stroke="#666666" points="2973,-24.5 2871,-24.5 2871,-5.5 2973,-5.5 2973,-24.5"/>
<text text-anchor="middle" x="2922" y="-12.5" font-family="Helvetica,sans-Serif" font-size="10.00">src/d/d_camera.cpp</text>
</a>
</g>
</g>
<!-- Node21&#45;&gt;Node24 -->
<g id="edge24" class="edge">
<title>Node21&#45;&gt;Node24</title>
<path fill="none" stroke="#63b8ff" d="M2970.07,-63.33C2957.56,-51.02 2941.02,-34.73 2930.96,-24.82"/>
<polygon fill="#63b8ff" stroke="#63b8ff" points="2967.3,-65.52 2976.88,-70.04 2972.21,-60.53 2967.3,-65.52"/>
</g>
<!-- Node25 -->
<g id="node25" class="node">
<title>Node25</title>
<g id="a_node25"><a xlink:href="d__event_8cpp.html" target="_top" xlink:title=" ">
<polygon fill="white" stroke="#666666" points="3112.5,-24.5 2991.5,-24.5 2991.5,-5.5 3112.5,-5.5 3112.5,-24.5"/>
<text text-anchor="middle" x="3052" y="-12.5" font-family="Helvetica,sans-Serif" font-size="10.00">src/d/event/d_event.cpp</text>
</a>
</g>
</g>
<!-- Node21&#45;&gt;Node25 -->
<g id="edge25" class="edge">
<title>Node21&#45;&gt;Node25</title>
<path fill="none" stroke="#63b8ff" d="M3003.93,-63.33C3016.44,-51.02 3032.98,-34.73 3043.04,-24.82"/>
<polygon fill="#63b8ff" stroke="#63b8ff" points="3001.79,-60.53 2997.12,-70.04 3006.7,-65.52 3001.79,-60.53"/>
</g>
<!-- Node26 -->
<g id="node26" class="node">
<title>Node26</title>
<g id="a_node26"><a xlink:href="d__menu__ring_8cpp.html" target="_top" xlink:title=" ">
<polygon fill="white" stroke="#666666" points="3273,-24.5 3131,-24.5 3131,-5.5 3273,-5.5 3273,-24.5"/>
<text text-anchor="middle" x="3202" y="-12.5" font-family="Helvetica,sans-Serif" font-size="10.00">src/d/menu/d_menu_ring.cpp</text>
</a>
</g>
</g>
<!-- Node21&#45;&gt;Node26 -->
<g id="edge26" class="edge">
<title>Node21&#45;&gt;Node26</title>
<path fill="none" stroke="#63b8ff" d="M3027.86,-67.84C3069.92,-55.32 3134.45,-36.11 3172.01,-24.93"/>
<polygon fill="#63b8ff" stroke="#63b8ff" points="3026.93,-64.46 3018.35,-70.67 3028.93,-71.17 3026.93,-64.46"/>
</g>
<!-- Node27 -->
<g id="node27" class="node">
<title>Node27</title>
<g id="a_node27"><a xlink:href="d__meter2__draw_8cpp.html" target="_top" xlink:title=" ">
<polygon fill="white" stroke="#666666" points="3401,-30 3291,-30 3291,0 3401,0 3401,-30"/>
<text text-anchor="start" x="3299" y="-18" font-family="Helvetica,sans-Serif" font-size="10.00">src/d/meter/d_meter2</text>
<text text-anchor="middle" x="3346" y="-7" font-family="Helvetica,sans-Serif" font-size="10.00">_draw.cpp</text>
</a>
</g>
</g>
<!-- Node21&#45;&gt;Node27 -->
<g id="edge27" class="edge">
<title>Node21&#45;&gt;Node27</title>
<path fill="none" stroke="#63b8ff" d="M3039.64,-68.74C3044.49,-67.79 3049.33,-66.86 3054,-66 3154.91,-47.5 3181.18,-48.97 3282,-30 3284.79,-29.47 3287.65,-28.92 3290.54,-28.34"/>
<polygon fill="#63b8ff" stroke="#63b8ff" points="3038.99,-65.31 3029.88,-70.72 3040.37,-72.17 3038.99,-65.31"/>
</g>
<!-- Node28 -->
<g id="node28" class="node">
<title>Node28</title>
<g id="a_node28"><a xlink:href="d__msg__flow_8cpp.html" target="_top" xlink:title=" ">
<polygon fill="white" stroke="#666666" points="3552.5,-24.5 3419.5,-24.5 3419.5,-5.5 3552.5,-5.5 3552.5,-24.5"/>
<text text-anchor="middle" x="3486" y="-12.5" font-family="Helvetica,sans-Serif" font-size="10.00">src/d/msg/d_msg_flow.cpp</text>
</a>
</g>
</g>
<!-- Node21&#45;&gt;Node28 -->
<g id="edge28" class="edge">
<title>Node21&#45;&gt;Node28</title>
<path fill="none" stroke="#63b8ff" d="M3037.7,-68.82C3043.19,-67.78 3048.7,-66.82 3054,-66 3211.16,-41.7 3252.56,-52.42 3410,-30 3419.96,-28.58 3430.61,-26.79 3440.69,-24.97"/>
<polygon fill="#63b8ff" stroke="#63b8ff" points="3037.17,-65.36 3028.04,-70.72 3038.53,-72.22 3037.17,-65.36"/>
</g>
<!-- Node29 -->
<g id="node29" class="node">
<title>Node29</title>
<g id="a_node29"><a xlink:href="f__op__actor_8cpp.html" target="_top" xlink:title=" ">
<polygon fill="white" stroke="#666666" points="3689.5,-24.5 3570.5,-24.5 3570.5,-5.5 3689.5,-5.5 3689.5,-24.5"/>
<text text-anchor="middle" x="3630" y="-12.5" font-family="Helvetica,sans-Serif" font-size="10.00">src/f_op/f_op_actor.cpp</text>
</a>
</g>
</g>
<!-- Node21&#45;&gt;Node29 -->
<g id="edge29" class="edge">
<title>Node21&#45;&gt;Node29</title>
<path fill="none" stroke="#63b8ff" d="M3036.58,-68.86C3042.43,-67.78 3048.33,-66.79 3054,-66 3278.18,-34.78 3337.77,-60.89 3562,-30 3571.43,-28.7 3581.52,-26.87 3590.96,-24.96"/>
<polygon fill="#63b8ff" stroke="#63b8ff" points="3036.09,-65.39 3026.95,-70.74 3037.43,-72.26 3036.09,-65.39"/>
</g>
</g>
</svg>
        <g id="navigator" transform="translate(0 0)" fill="#404254">
                <rect fill="#f2f5e9" fill-opacity="0.5" stroke="#606060" stroke-width=".5" x="0" y="0" width="60" height="60"/>
                <use id="zoomplus" xlink:href="#zoomPlus" x="17" y="9" onmousedown="handleZoom(evt,'in')"/>
                <use id="zoomminus" xlink:href="#zoomMin" x="42" y="9" onmousedown="handleZoom(evt,'out')"/>
                <use id="reset" xlink:href="#resetDef" x="30" y="36" onmousedown="handleReset()"/>
                <g id="arrowUp" xlink:href="#dirArrow" transform="translate(30 24)" onmousedown="handlePan(0,-1)">
                  <use xlink:href="#rim" fill="#404040">
                        <set attributeName="fill" to="#808080" begin="arrowUp.mouseover" end="arrowUp.mouseout"/>
                  </use>
                  <path fill="none" stroke="white" stroke-width="1.5" d="M0,-3.0v7 M-2.5,-0.5L0,-3.0L2.5,-0.5"/>
                </g>
                <g id="arrowRight" xlink:href="#dirArrow" transform="rotate(90) translate(36 -43)" onmousedown="handlePan(1,0)">
                  <use xlink:href="#rim" fill="#404040">
                        <set attributeName="fill" to="#808080" begin="arrowRight.mouseover" end="arrowRight.mouseout"/>
                  </use>
                  <path fill="none" stroke="white" stroke-width="1.5" d="M0,-3.0v7 M-2.5,-0.5L0,-3.0L2.5,-0.5"/>
                </g>
                <g id="arrowDown" xlink:href="#dirArrow" transform="rotate(180) translate(-30 -48)" onmousedown="handlePan(0,1)">
                  <use xlink:href="#rim" fill="#404040">
                        <set attributeName="fill" to="#808080" begin="arrowDown.mouseover" end="arrowDown.mouseout"/>
                  </use>
                  <path fill="none" stroke="white" stroke-width="1.5" d="M0,-3.0v7 M-2.5,-0.5L0,-3.0L2.5,-0.5"/>
                </g>
                <g id="arrowLeft" xlink:href="#dirArrow" transform="rotate(270) translate(-36 17)" onmousedown="handlePan(-1,0)">
                  <use xlink:href="#rim" fill="#404040">
                        <set attributeName="fill" to="#808080" begin="arrowLeft.mouseover" end="arrowLeft.mouseout"/>
                  </use>
                  <path fill="none" stroke="white" stroke-width="1.5" d="M0,-3.0v7 M-2.5,-0.5L0,-3.0L2.5,-0.5"/>
                </g>
        </g>
        <svg viewBox="0 0 15 15" width="100%" height="30px" preserveAspectRatio="xMaxYMin meet">
         <g id="arrow_out" transform="scale(0.3 0.3)">
          <a xlink:href="J3DTevs_8h__dep__incl_org.svg" target="_base">
           <rect id="button" ry="5" rx="5" y="6" x="6" height="38" width="38"
                fill="#f2f5e9" fill-opacity="0.5" stroke="#606060" stroke-width="1.0"/>
           <path id="arrow"
             d="M 11.500037,31.436501 C 11.940474,20.09759 22.043105,11.32322 32.158766,21.979434 L 37.068811,17.246167 C 37.068811,17.246167 37.088388,32 37.088388,32 L 22.160133,31.978069 C 22.160133,31.978069 26.997745,27.140456 26.997745,27.140456 C 18.528582,18.264221 13.291696,25.230495 11.500037,31.436501 z"
             style="fill:#404040;"/>
          </a>
         </g>
        </svg>
</svg>
