<?xml version="1.0" encoding="UTF-8" standalone="no"?>
<!DOCTYPE svg PUBLIC "-//W3C//DTD SVG 1.1//EN"
 "http://www.w3.org/Graphics/SVG/1.1/DTD/svg11.dtd">
<!-- Generated by graphviz version 7.0.5 (20221223.1930)
 -->
<!-- Title: include/JSystem/JAudio2/JAIStreamMgr.h Pages: 1 -->
<svg width="4892pt" height="434pt"
 viewBox="0.00 0.00 4891.91 434.00" xmlns="http://www.w3.org/2000/svg" xmlns:xlink="http://www.w3.org/1999/xlink">
<g id="graph0" class="graph" transform="scale(1 1) rotate(0) translate(4 430)">
<title>include/JSystem/JAudio2/JAIStreamMgr.h</title>
<!-- Node1 -->
<g id="node1" class="node">
<title>Node1</title>
<g id="a_node1"><a xlink:title=" ">
<polygon fill="#999999" stroke="#666666" points="4322.41,-426 4195.41,-426 4195.41,-396 4322.41,-396 4322.41,-426"/>
<text text-anchor="start" x="4203.41" y="-414" font-family="Helvetica,sans-Serif" font-size="10.00">include/JSystem/JAudio2</text>
<text text-anchor="middle" x="4258.91" y="-403" font-family="Helvetica,sans-Serif" font-size="10.00">/JAIStreamMgr.h</text>
</a>
</g>
</g>
<!-- Node2 -->
<g id="node2" class="node">
<title>Node2</title>
<g id="a_node2"><a xlink:href="Z2SoundMgr_8h.html" target="_top" xlink:title=" ">
<polygon fill="white" stroke="#666666" points="4246.91,-360 4146.91,-360 4146.91,-330 4246.91,-330 4246.91,-360"/>
<text text-anchor="start" x="4154.91" y="-348" font-family="Helvetica,sans-Serif" font-size="10.00">include/Z2AudioLib</text>
<text text-anchor="middle" x="4196.91" y="-337" font-family="Helvetica,sans-Serif" font-size="10.00">/Z2SoundMgr.h</text>
</a>
</g>
</g>
<!-- Node1&#45;&gt;Node2 -->
<g id="edge1" class="edge">
<title>Node1&#45;&gt;Node2</title>
<path fill="none" stroke="#63b8ff" d="M4237.41,-387.81C4228.53,-378.64 4218.49,-368.28 4210.63,-360.16"/>
<polygon fill="#63b8ff" stroke="#63b8ff" points="4234.62,-389.96 4244.1,-394.71 4239.65,-385.09 4234.62,-389.96"/>
</g>
<!-- Node504 -->
<g id="node50" class="node">
<title>Node504</title>
<g id="a_node50"><a xlink:href="JAIStreamMgr_8cpp.html" target="_top" xlink:title=" ">
<polygon fill="white" stroke="#666666" points="4376.41,-360 4265.41,-360 4265.41,-330 4376.41,-330 4376.41,-360"/>
<text text-anchor="start" x="4273.41" y="-348" font-family="Helvetica,sans-Serif" font-size="10.00">libs/JSystem/JAudio2</text>
<text text-anchor="middle" x="4320.91" y="-337" font-family="Helvetica,sans-Serif" font-size="10.00">/JAIStreamMgr.cpp</text>
</a>
</g>
</g>
<!-- Node1&#45;&gt;Node504 -->
<g id="edge51" class="edge">
<title>Node1&#45;&gt;Node504</title>
<path fill="none" stroke="#63b8ff" d="M4280.41,-387.81C4289.29,-378.64 4299.33,-368.28 4307.19,-360.16"/>
<polygon fill="#63b8ff" stroke="#63b8ff" points="4278.17,-385.09 4273.72,-394.71 4283.19,-389.96 4278.17,-385.09"/>
</g>
<!-- Node3 -->
<g id="node3" class="node">
<title>Node3</title>
<g id="a_node3"><a xlink:href="Z2AudioMgr_8h.html" target="_top" xlink:title=" ">
<polygon fill="white" stroke="#666666" points="3664.91,-294 3564.91,-294 3564.91,-264 3664.91,-264 3664.91,-294"/>
<text text-anchor="start" x="3572.91" y="-282" font-family="Helvetica,sans-Serif" font-size="10.00">include/Z2AudioLib</text>
<text text-anchor="middle" x="3614.91" y="-271" font-family="Helvetica,sans-Serif" font-size="10.00">/Z2AudioMgr.h</text>
</a>
</g>
</g>
<!-- Node2&#45;&gt;Node3 -->
<g id="edge2" class="edge">
<title>Node2&#45;&gt;Node3</title>
<path fill="none" stroke="#63b8ff" d="M4135.14,-340.76C4037.09,-335.03 3840.02,-321.05 3674.91,-294 3671.74,-293.48 3668.49,-292.89 3665.23,-292.26"/>
<polygon fill="#63b8ff" stroke="#63b8ff" points="4134.9,-344.26 4145.08,-341.34 4135.3,-337.27 4134.9,-344.26"/>
</g>
<!-- Node180 -->
<g id="node43" class="node">
<title>Node180</title>
<g id="a_node43"><a xlink:href="Z2EnvSeMgr_8cpp.html" target="_top" xlink:title=" ">
<polygon fill="white" stroke="#666666" points="3844.41,-288.5 3683.41,-288.5 3683.41,-269.5 3844.41,-269.5 3844.41,-288.5"/>
<text text-anchor="middle" x="3763.91" y="-276.5" font-family="Helvetica,sans-Serif" font-size="10.00">libs/Z2AudioLib/Z2EnvSeMgr.cpp</text>
</a>
</g>
</g>
<!-- Node2&#45;&gt;Node180 -->
<g id="edge44" class="edge">
<title>Node2&#45;&gt;Node180</title>
<path fill="none" stroke="#63b8ff" d="M4135.59,-335.24C4066.94,-325.39 3952.41,-308.84 3853.91,-294 3843.28,-292.4 3831.94,-290.66 3821.03,-288.97"/>
<polygon fill="#63b8ff" stroke="#63b8ff" points="4134.72,-338.65 4145.11,-336.61 4135.71,-331.72 4134.72,-338.65"/>
</g>
<!-- Node498 -->
<g id="node44" class="node">
<title>Node498</title>
<g id="a_node44"><a xlink:href="Z2SceneMgr_8cpp.html" target="_top" xlink:title=" ">
<polygon fill="white" stroke="#666666" points="4023.41,-288.5 3862.41,-288.5 3862.41,-269.5 4023.41,-269.5 4023.41,-288.5"/>
<text text-anchor="middle" x="3942.91" y="-276.5" font-family="Helvetica,sans-Serif" font-size="10.00">libs/Z2AudioLib/Z2SceneMgr.cpp</text>
</a>
</g>
</g>
<!-- Node2&#45;&gt;Node498 -->
<g id="edge45" class="edge">
<title>Node2&#45;&gt;Node498</title>
<path fill="none" stroke="#63b8ff" d="M4135.3,-328.48C4086.2,-316.1 4019.17,-299.21 3978.57,-288.99"/>
<polygon fill="#63b8ff" stroke="#63b8ff" points="4134.4,-331.86 4144.96,-330.91 4136.11,-325.07 4134.4,-331.86"/>
</g>
<!-- Node499 -->
<g id="node45" class="node">
<title>Node499</title>
<g id="a_node45"><a xlink:href="Z2SeMgr_8cpp.html" target="_top" xlink:title=" ">
<polygon fill="white" stroke="#666666" points="4186.41,-288.5 4041.41,-288.5 4041.41,-269.5 4186.41,-269.5 4186.41,-288.5"/>
<text text-anchor="middle" x="4113.91" y="-276.5" font-family="Helvetica,sans-Serif" font-size="10.00">libs/Z2AudioLib/Z2SeMgr.cpp</text>
</a>
</g>
</g>
<!-- Node2&#45;&gt;Node499 -->
<g id="edge46" class="edge">
<title>Node2&#45;&gt;Node499</title>
<path fill="none" stroke="#63b8ff" d="M4169.59,-322.93C4154.57,-311.35 4136.74,-297.61 4125.38,-288.84"/>
<polygon fill="#63b8ff" stroke="#63b8ff" points="4167.23,-325.54 4177.29,-328.87 4171.51,-319.99 4167.23,-325.54"/>
</g>
<!-- Node500 -->
<g id="node46" class="node">
<title>Node500</title>
<g id="a_node46"><a xlink:href="Z2SeqMgr_8cpp.html" target="_top" xlink:title=" ">
<polygon fill="white" stroke="#666666" points="4354.91,-288.5 4204.91,-288.5 4204.91,-269.5 4354.91,-269.5 4354.91,-288.5"/>
<text text-anchor="middle" x="4279.91" y="-276.5" font-family="Helvetica,sans-Serif" font-size="10.00">libs/Z2AudioLib/Z2SeqMgr.cpp</text>
</a>
</g>
</g>
<!-- Node2&#45;&gt;Node500 -->
<g id="edge47" class="edge">
<title>Node2&#45;&gt;Node500</title>
<path fill="none" stroke="#63b8ff" d="M4224.23,-322.93C4239.25,-311.35 4257.08,-297.61 4268.44,-288.84"/>
<polygon fill="#63b8ff" stroke="#63b8ff" points="4222.31,-319.99 4216.53,-328.87 4226.58,-325.54 4222.31,-319.99"/>
</g>
<!-- Node501 -->
<g id="node47" class="node">
<title>Node501</title>
<g id="a_node47"><a xlink:href="Z2SoundMgr_8cpp.html" target="_top" xlink:title=" ">
<polygon fill="white" stroke="#666666" points="4534.41,-288.5 4373.41,-288.5 4373.41,-269.5 4534.41,-269.5 4534.41,-288.5"/>
<text text-anchor="middle" x="4453.91" y="-276.5" font-family="Helvetica,sans-Serif" font-size="10.00">libs/Z2AudioLib/Z2SoundMgr.cpp</text>
</a>
</g>
</g>
<!-- Node2&#45;&gt;Node501 -->
<g id="edge48" class="edge">
<title>Node2&#45;&gt;Node501</title>
<path fill="none" stroke="#63b8ff" d="M4258.35,-328.7C4308.19,-316.29 4376.73,-299.22 4418.03,-288.93"/>
<polygon fill="#63b8ff" stroke="#63b8ff" points="4257.7,-325.25 4248.85,-331.07 4259.4,-332.05 4257.7,-325.25"/>
</g>
<!-- Node502 -->
<g id="node48" class="node">
<title>Node502</title>
<g id="a_node48"><a xlink:href="Z2SoundObject_8cpp.html" target="_top" xlink:title=" ">
<polygon fill="white" stroke="#666666" points="4725.41,-288.5 4552.41,-288.5 4552.41,-269.5 4725.41,-269.5 4725.41,-288.5"/>
<text text-anchor="middle" x="4638.91" y="-276.5" font-family="Helvetica,sans-Serif" font-size="10.00">libs/Z2AudioLib/Z2SoundObject.cpp</text>
</a>
</g>
</g>
<!-- Node2&#45;&gt;Node502 -->
<g id="edge49" class="edge">
<title>Node2&#45;&gt;Node502</title>
<path fill="none" stroke="#63b8ff" d="M4258.57,-329.84C4385.4,-307.57 4420.14,-310.88 4543.91,-294 4555.39,-292.43 4567.64,-290.69 4579.39,-288.97"/>
<polygon fill="#63b8ff" stroke="#63b8ff" points="4257.97,-326.39 4248.73,-331.59 4259.19,-333.28 4257.97,-326.39"/>
</g>
<!-- Node503 -->
<g id="node49" class="node">
<title>Node503</title>
<g id="a_node49"><a xlink:href="Z2WolfHowlMgr_8cpp.html" target="_top" xlink:title=" ">
<polygon fill="white" stroke="#666666" points="4883.91,-294 4743.91,-294 4743.91,-264 4883.91,-264 4883.91,-294"/>
<text text-anchor="start" x="4751.91" y="-282" font-family="Helvetica,sans-Serif" font-size="10.00">libs/Z2AudioLib/Z2WolfHowl</text>
<text text-anchor="middle" x="4813.91" y="-271" font-family="Helvetica,sans-Serif" font-size="10.00">Mgr.cpp</text>
</a>
</g>
</g>
<!-- Node2&#45;&gt;Node503 -->
<g id="edge50" class="edge">
<title>Node2&#45;&gt;Node503</title>
<path fill="none" stroke="#63b8ff" d="M4258.37,-329.98C4469.45,-298.47 4527.14,-320.17 4734.91,-294 4737.81,-293.63 4740.77,-293.23 4743.75,-292.81"/>
<polygon fill="#63b8ff" stroke="#63b8ff" points="4258.07,-326.48 4248.71,-331.44 4259.12,-333.4 4258.07,-326.48"/>
</g>
<!-- Node4 -->
<g id="node4" class="node">
<title>Node4</title>
<g id="a_node4"><a xlink:href="m__Do__audio_8h.html" target="_top" xlink:title=" ">
<polygon fill="white" stroke="#666666" points="3343.91,-222.5 3203.91,-222.5 3203.91,-203.5 3343.91,-203.5 3343.91,-222.5"/>
<text text-anchor="middle" x="3273.91" y="-210.5" font-family="Helvetica,sans-Serif" font-size="10.00">include/m_Do/m_Do_audio.h</text>
</a>
</g>
</g>
<!-- Node3&#45;&gt;Node4 -->
<g id="edge3" class="edge">
<title>Node3&#45;&gt;Node4</title>
<path fill="none" stroke="#63b8ff" d="M3553.45,-266.47C3486.94,-253.98 3382.29,-234.34 3321.68,-222.97"/>
<polygon fill="#63b8ff" stroke="#63b8ff" points="3552.63,-269.87 3563.11,-268.28 3553.92,-262.99 3552.63,-269.87"/>
</g>
<!-- Node494 -->
<g id="node39" class="node">
<title>Node494</title>
<g id="a_node39"><a xlink:href="Z2AudioMgr_8cpp.html" target="_top" xlink:title=" ">
<polygon fill="white" stroke="#666666" points="3519.91,-222.5 3361.91,-222.5 3361.91,-203.5 3519.91,-203.5 3519.91,-222.5"/>
<text text-anchor="middle" x="3440.91" y="-210.5" font-family="Helvetica,sans-Serif" font-size="10.00">libs/Z2AudioLib/Z2AudioMgr.cpp</text>
</a>
</g>
</g>
<!-- Node3&#45;&gt;Node494 -->
<g id="edge40" class="edge">
<title>Node3&#45;&gt;Node494</title>
<path fill="none" stroke="#63b8ff" d="M3565.14,-259.69C3532.45,-247.67 3491.11,-232.47 3465.34,-222.99"/>
<polygon fill="#63b8ff" stroke="#63b8ff" points="3563.85,-262.95 3574.44,-263.11 3566.26,-256.38 3563.85,-262.95"/>
</g>
<!-- Node495 -->
<g id="node40" class="node">
<title>Node495</title>
<g id="a_node40"><a xlink:href="Z2Creature_8cpp.html" target="_top" xlink:title=" ">
<polygon fill="white" stroke="#666666" points="3691.41,-222.5 3538.41,-222.5 3538.41,-203.5 3691.41,-203.5 3691.41,-222.5"/>
<text text-anchor="middle" x="3614.91" y="-210.5" font-family="Helvetica,sans-Serif" font-size="10.00">libs/Z2AudioLib/Z2Creature.cpp</text>
</a>
</g>
</g>
<!-- Node3&#45;&gt;Node495 -->
<g id="edge41" class="edge">
<title>Node3&#45;&gt;Node495</title>
<path fill="none" stroke="#63b8ff" d="M3614.91,-252.59C3614.91,-242.06 3614.91,-230.53 3614.91,-222.84"/>
<polygon fill="#63b8ff" stroke="#63b8ff" points="3611.41,-252.28 3614.91,-262.28 3618.41,-252.28 3611.41,-252.28"/>
</g>
<!-- Node496 -->
<g id="node41" class="node">
<title>Node496</title>
<g id="a_node41"><a xlink:href="Z2SoundStarter_8cpp.html" target="_top" xlink:title=" ">
<polygon fill="white" stroke="#666666" points="3882.41,-222.5 3709.41,-222.5 3709.41,-203.5 3882.41,-203.5 3882.41,-222.5"/>
<text text-anchor="middle" x="3795.91" y="-210.5" font-family="Helvetica,sans-Serif" font-size="10.00">libs/Z2AudioLib/Z2SoundStarter.cpp</text>
</a>
</g>
</g>
<!-- Node3&#45;&gt;Node496 -->
<g id="edge42" class="edge">
<title>Node3&#45;&gt;Node496</title>
<path fill="none" stroke="#63b8ff" d="M3666.24,-259.85C3700.31,-247.8 3743.57,-232.51 3770.5,-222.99"/>
<polygon fill="#63b8ff" stroke="#63b8ff" points="3665.22,-256.5 3656.96,-263.13 3667.55,-263.1 3665.22,-256.5"/>
</g>
<!-- Node497 -->
<g id="node42" class="node">
<title>Node497</title>
<g id="a_node42"><a xlink:href="Z2SpeechMgr2_8cpp.html" target="_top" xlink:title=" ">
<polygon fill="white" stroke="#666666" points="4031.41,-228 3900.41,-228 3900.41,-198 4031.41,-198 4031.41,-228"/>
<text text-anchor="start" x="3908.41" y="-216" font-family="Helvetica,sans-Serif" font-size="10.00">libs/Z2AudioLib/Z2Speech</text>
<text text-anchor="middle" x="3965.91" y="-205" font-family="Helvetica,sans-Serif" font-size="10.00">Mgr2.cpp</text>
</a>
</g>
</g>
<!-- Node3&#45;&gt;Node497 -->
<g id="edge43" class="edge">
<title>Node3&#45;&gt;Node497</title>
<path fill="none" stroke="#63b8ff" d="M3676.4,-263.79C3772.67,-244.87 3799.13,-244.47 3891.91,-228 3894.61,-227.52 3897.37,-227.02 3900.16,-226.52"/>
<polygon fill="#63b8ff" stroke="#63b8ff" points="3675.88,-260.33 3666.76,-265.7 3677.25,-267.19 3675.88,-260.33"/>
</g>
<!-- Node5 -->
<g id="node5" class="node">
<title>Node5</title>
<g id="a_node5"><a xlink:href="m__Do__ext_8h.html" target="_top" xlink:title=" ">
<polygon fill="#fff0f0" stroke="red" points="1390.91,-156.5 1260.91,-156.5 1260.91,-137.5 1390.91,-137.5 1390.91,-156.5"/>
<text text-anchor="middle" x="1325.91" y="-144.5" font-family="Helvetica,sans-Serif" font-size="10.00">include/m_Do/m_Do_ext.h</text>
</a>
</g>
</g>
<!-- Node4&#45;&gt;Node5 -->
<g id="edge4" class="edge">
<title>Node4&#45;&gt;Node5</title>
<path fill="none" stroke="#63b8ff" d="M3192.3,-209.32C2869.26,-198.71 1683.39,-159.74 1391.27,-150.15"/>
<polygon fill="#63b8ff" stroke="#63b8ff" points="3191.81,-212.8 3201.91,-209.63 3192.04,-205.81 3191.81,-212.8"/>
</g>
<!-- Node56 -->
<g id="node11" class="node">
<title>Node56</title>
<g id="a_node11"><a xlink:href="d__kankyo_8cpp.html" target="_top" xlink:title=" ">
<polygon fill="white" stroke="#666666" points="1323.91,-24.5 1189.91,-24.5 1189.91,-5.5 1323.91,-5.5 1323.91,-24.5"/>
<text text-anchor="middle" x="1256.91" y="-12.5" font-family="Helvetica,sans-Serif" font-size="10.00">src/d/kankyo/d_kankyo.cpp</text>
</a>
</g>
</g>
<!-- Node4&#45;&gt;Node56 -->
<g id="edge29" class="edge">
<title>Node4&#45;&gt;Node56</title>
<path fill="none" stroke="#63b8ff" d="M3192.11,-212.29C2697.15,-213.67 119.86,-215.1 6.91,-96 -2.27,-86.33 -2.33,-75.61 6.91,-66 48.15,-23.08 935.62,-17 1189.57,-16.14"/>
<polygon fill="#63b8ff" stroke="#63b8ff" points="3191.91,-215.79 3201.9,-212.26 3191.89,-208.79 3191.91,-215.79"/>
</g>
<!-- Node222 -->
<g id="node12" class="node">
<title>Node222</title>
<g id="a_node12"><a xlink:href="d__kankyo__wether_8cpp.html" target="_top" xlink:title=" ">
<polygon fill="white" stroke="#666666" points="2687.91,-30 2571.91,-30 2571.91,0 2687.91,0 2687.91,-30"/>
<text text-anchor="start" x="2579.91" y="-18" font-family="Helvetica,sans-Serif" font-size="10.00">src/d/kankyo/d_kankyo</text>
<text text-anchor="middle" x="2629.91" y="-7" font-family="Helvetica,sans-Serif" font-size="10.00">_wether.cpp</text>
</a>
</g>
</g>
<!-- Node4&#45;&gt;Node222 -->
<g id="edge30" class="edge">
<title>Node4&#45;&gt;Node222</title>
<path fill="none" stroke="#63b8ff" d="M3192.48,-209.76C3040.97,-204.91 2727.47,-191.43 2687.91,-162 2651.09,-134.61 2666.87,-108.64 2649.91,-66 2645.14,-54.01 2639.7,-40.42 2635.7,-30.44"/>
<polygon fill="#63b8ff" stroke="#63b8ff" points="3191.93,-213.24 3202.03,-210.06 3192.15,-206.25 3191.93,-213.24"/>
</g>
<!-- Node10 -->
<g id="node27" class="node">
<title>Node10</title>
<g id="a_node27"><a xlink:href="d__com__inf__game_8cpp.html" target="_top" xlink:title=" ">
<polygon fill="white" stroke="#666666" points="2804.91,-162 2696.91,-162 2696.91,-132 2804.91,-132 2804.91,-162"/>
<text text-anchor="start" x="2704.91" y="-150" font-family="Helvetica,sans-Serif" font-size="10.00">src/d/com/d_com_inf</text>
<text text-anchor="middle" x="2750.91" y="-139" font-family="Helvetica,sans-Serif" font-size="10.00">_game.cpp</text>
</a>
</g>
</g>
<!-- Node4&#45;&gt;Node10 -->
<g id="edge26" class="edge">
<title>Node4&#45;&gt;Node10</title>
<path fill="none" stroke="#63b8ff" d="M3192.23,-205.86C3099.97,-198.3 2945.54,-183.71 2813.91,-162 2811.03,-161.53 2808.09,-161 2805.13,-160.45"/>
<polygon fill="#63b8ff" stroke="#63b8ff" points="3191.68,-209.33 3201.93,-206.65 3192.25,-202.35 3191.68,-209.33"/>
</g>
<!-- Node207 -->
<g id="node28" class="node">
<title>Node207</title>
<g id="a_node28"><a xlink:href="d__name_8cpp.html" target="_top" xlink:title=" ">
<polygon fill="white" stroke="#666666" points="2916.91,-156.5 2822.91,-156.5 2822.91,-137.5 2916.91,-137.5 2916.91,-156.5"/>
<text text-anchor="middle" x="2869.91" y="-144.5" font-family="Helvetica,sans-Serif" font-size="10.00">src/d/d_name.cpp</text>
</a>
</g>
</g>
<!-- Node4&#45;&gt;Node207 -->
<g id="edge27" class="edge">
<title>Node4&#45;&gt;Node207</title>
<path fill="none" stroke="#63b8ff" d="M3192.43,-202.54C3121.87,-193.81 3017.22,-179.55 2926.91,-162 2919.51,-160.56 2911.62,-158.78 2904.15,-156.99"/>
<polygon fill="#63b8ff" stroke="#63b8ff" points="3191.6,-205.97 3201.95,-203.71 3192.45,-199.02 3191.6,-205.97"/>
</g>
<!-- Node217 -->
<g id="node29" class="node">
<title>Node217</title>
<g id="a_node29"><a xlink:href="d__event__manager_8cpp.html" target="_top" xlink:title=" ">
<polygon fill="white" stroke="#666666" points="3038.41,-162 2935.41,-162 2935.41,-132 3038.41,-132 3038.41,-162"/>
<text text-anchor="start" x="2943.41" y="-150" font-family="Helvetica,sans-Serif" font-size="10.00">src/d/event/d_event</text>
<text text-anchor="middle" x="2986.91" y="-139" font-family="Helvetica,sans-Serif" font-size="10.00">_manager.cpp</text>
</a>
</g>
</g>
<!-- Node4&#45;&gt;Node217 -->
<g id="edge28" class="edge">
<title>Node4&#45;&gt;Node217</title>
<path fill="none" stroke="#63b8ff" d="M3221.92,-200.62C3176.1,-190.56 3107.54,-175.44 3047.91,-162 3044.94,-161.33 3041.89,-160.64 3038.82,-159.94"/>
<polygon fill="#63b8ff" stroke="#63b8ff" points="3221.06,-204.02 3231.58,-202.74 3222.56,-197.18 3221.06,-204.02"/>
</g>
<!-- Node17 -->
<g id="node30" class="node">
<title>Node17</title>
<g id="a_node30"><a xlink:href="d__msg__flow_8cpp.html" target="_top" xlink:title=" ">
<polygon fill="white" stroke="#666666" points="3189.41,-156.5 3056.41,-156.5 3056.41,-137.5 3189.41,-137.5 3189.41,-156.5"/>
<text text-anchor="middle" x="3122.91" y="-144.5" font-family="Helvetica,sans-Serif" font-size="10.00">src/d/msg/d_msg_flow.cpp</text>
</a>
</g>
</g>
<!-- Node4&#45;&gt;Node17 -->
<g id="edge31" class="edge">
<title>Node4&#45;&gt;Node17</title>
<path fill="none" stroke="#63b8ff" d="M3242.69,-198.77C3213.05,-186.21 3169.34,-167.68 3143.73,-156.82"/>
<polygon fill="#63b8ff" stroke="#63b8ff" points="3240.95,-201.83 3251.52,-202.51 3243.68,-195.39 3240.95,-201.83"/>
</g>
<!-- Node240 -->
<g id="node31" class="node">
<title>Node240</title>
<g id="a_node31"><a xlink:href="d__ovlp__fade_8cpp.html" target="_top" xlink:title=" ">
<polygon fill="white" stroke="#666666" points="3340.41,-156.5 3207.41,-156.5 3207.41,-137.5 3340.41,-137.5 3340.41,-156.5"/>
<text text-anchor="middle" x="3273.91" y="-144.5" font-family="Helvetica,sans-Serif" font-size="10.00">src/d/ovlp/d_ovlp_fade.cpp</text>
</a>
</g>
</g>
<!-- Node4&#45;&gt;Node240 -->
<g id="edge32" class="edge">
<title>Node4&#45;&gt;Node240</title>
<path fill="none" stroke="#63b8ff" d="M3273.91,-191.68C3273.91,-179.94 3273.91,-165.77 3273.91,-156.82"/>
<polygon fill="#63b8ff" stroke="#63b8ff" points="3270.41,-191.59 3273.91,-201.59 3277.41,-191.59 3270.41,-191.59"/>
</g>
<!-- Node84 -->
<g id="node32" class="node">
<title>Node84</title>
<g id="a_node32"><a xlink:href="d__ovlp__fade2_8cpp.html" target="_top" xlink:title=" ">
<polygon fill="white" stroke="#666666" points="3496.91,-156.5 3358.91,-156.5 3358.91,-137.5 3496.91,-137.5 3496.91,-156.5"/>
<text text-anchor="middle" x="3427.91" y="-144.5" font-family="Helvetica,sans-Serif" font-size="10.00">src/d/ovlp/d_ovlp_fade2.cpp</text>
</a>
</g>
</g>
<!-- Node4&#45;&gt;Node84 -->
<g id="edge33" class="edge">
<title>Node4&#45;&gt;Node84</title>
<path fill="none" stroke="#63b8ff" d="M3305.75,-198.77C3335.97,-186.21 3380.56,-167.68 3406.68,-156.82"/>
<polygon fill="#63b8ff" stroke="#63b8ff" points="3304.61,-195.45 3296.72,-202.52 3307.3,-201.91 3304.61,-195.45"/>
</g>
<!-- Node86 -->
<g id="node33" class="node">
<title>Node86</title>
<g id="a_node33"><a xlink:href="d__ovlp__fade3_8cpp.html" target="_top" xlink:title=" ">
<polygon fill="white" stroke="#666666" points="3652.91,-156.5 3514.91,-156.5 3514.91,-137.5 3652.91,-137.5 3652.91,-156.5"/>
<text text-anchor="middle" x="3583.91" y="-144.5" font-family="Helvetica,sans-Serif" font-size="10.00">src/d/ovlp/d_ovlp_fade3.cpp</text>
</a>
</g>
</g>
<!-- Node4&#45;&gt;Node86 -->
<g id="edge34" class="edge">
<title>Node4&#45;&gt;Node86</title>
<path fill="none" stroke="#63b8ff" d="M3328.57,-200.71C3389.07,-188.22 3485.34,-168.35 3540.77,-156.91"/>
<polygon fill="#63b8ff" stroke="#63b8ff" points="3327.91,-197.28 3318.82,-202.73 3329.32,-204.13 3327.91,-197.28"/>
</g>
<!-- Node243 -->
<g id="node34" class="node">
<title>Node243</title>
<g id="a_node34"><a xlink:href="d__s__name_8cpp.html" target="_top" xlink:title=" ">
<polygon fill="white" stroke="#666666" points="3784.41,-156.5 3671.41,-156.5 3671.41,-137.5 3784.41,-137.5 3784.41,-156.5"/>
<text text-anchor="middle" x="3727.91" y="-144.5" font-family="Helvetica,sans-Serif" font-size="10.00">src/d/s/d_s_name.cpp</text>
</a>
</g>
</g>
<!-- Node4&#45;&gt;Node243 -->
<g id="edge35" class="edge">
<title>Node4&#45;&gt;Node243</title>
<path fill="none" stroke="#63b8ff" d="M3333.05,-201.13C3339.74,-200.01 3346.46,-198.95 3352.91,-198 3489.71,-177.93 3525.47,-184.37 3661.91,-162 3670.58,-160.58 3679.83,-158.79 3688.59,-156.97"/>
<polygon fill="#63b8ff" stroke="#63b8ff" points="3332.64,-197.64 3323.37,-202.77 3333.82,-204.55 3332.64,-197.64"/>
</g>
<!-- Node81 -->
<g id="node35" class="node">
<title>Node81</title>
<g id="a_node35"><a xlink:href="d__s__play_8cpp.html" target="_top" xlink:title=" ">
<polygon fill="white" stroke="#666666" points="3908.91,-156.5 3802.91,-156.5 3802.91,-137.5 3908.91,-137.5 3908.91,-156.5"/>
<text text-anchor="middle" x="3855.91" y="-144.5" font-family="Helvetica,sans-Serif" font-size="10.00">src/d/s/d_s_play.cpp</text>
</a>
</g>
</g>
<!-- Node4&#45;&gt;Node81 -->
<g id="edge36" class="edge">
<title>Node4&#45;&gt;Node81</title>
<path fill="none" stroke="#63b8ff" d="M3331.4,-201.16C3338.63,-199.99 3345.93,-198.9 3352.91,-198 3547.94,-172.81 3599.52,-191.73 3793.91,-162 3802.53,-160.68 3811.73,-158.84 3820.34,-156.93"/>
<polygon fill="#63b8ff" stroke="#63b8ff" points="3330.94,-197.69 3321.66,-202.8 3332.1,-204.59 3330.94,-197.69"/>
</g>
<!-- Node23 -->
<g id="node36" class="node">
<title>Node23</title>
<g id="a_node36"><a xlink:href="d__shop__system_8cpp.html" target="_top" xlink:title=" ">
<polygon fill="white" stroke="#666666" points="4078.91,-156.5 3926.91,-156.5 3926.91,-137.5 4078.91,-137.5 4078.91,-156.5"/>
<text text-anchor="middle" x="4002.91" y="-144.5" font-family="Helvetica,sans-Serif" font-size="10.00">src/d/shop/d_shop_system.cpp</text>
</a>
</g>
</g>
<!-- Node4&#45;&gt;Node23 -->
<g id="edge37" class="edge">
<title>Node4&#45;&gt;Node23</title>
<path fill="none" stroke="#63b8ff" d="M3330.56,-201.18C3338.05,-199.97 3345.65,-198.87 3352.91,-198 3602.73,-168 3667.91,-190.48 3917.91,-162 3929.5,-160.68 3941.92,-158.86 3953.58,-156.98"/>
<polygon fill="#63b8ff" stroke="#63b8ff" points="3330.09,-197.7 3320.81,-202.81 3331.25,-204.61 3330.09,-197.7"/>
</g>
<!-- Node493 -->
<g id="node37" class="node">
<title>Node493</title>
<g id="a_node37"><a xlink:href="m__Do__Reset_8cpp.html" target="_top" xlink:title=" ">
<polygon fill="white" stroke="#666666" points="4232.91,-156.5 4096.91,-156.5 4096.91,-137.5 4232.91,-137.5 4232.91,-156.5"/>
<text text-anchor="middle" x="4164.91" y="-144.5" font-family="Helvetica,sans-Serif" font-size="10.00">src/m_Do/m_Do_Reset.cpp</text>
</a>
</g>
</g>
<!-- Node4&#45;&gt;Node493 -->
<g id="edge38" class="edge">
<title>Node4&#45;&gt;Node493</title>
<path fill="none" stroke="#63b8ff" d="M3329.99,-201.16C3337.67,-199.94 3345.47,-198.84 3352.91,-198 3677.91,-161.39 3762.99,-199.33 4087.91,-162 4098.71,-160.76 4110.28,-158.93 4121.08,-156.99"/>
<polygon fill="#63b8ff" stroke="#63b8ff" points="3329.66,-197.67 3320.38,-202.77 3330.82,-204.57 3329.66,-197.67"/>
</g>
<!-- Node251 -->
<g id="node38" class="node">
<title>Node251</title>
<g id="a_node38"><a xlink:href="m__Do__audio_8cpp.html" target="_top" xlink:title=" ">
<polygon fill="white" stroke="#666666" points="4384.91,-156.5 4250.91,-156.5 4250.91,-137.5 4384.91,-137.5 4384.91,-156.5"/>
<text text-anchor="middle" x="4317.91" y="-144.5" font-family="Helvetica,sans-Serif" font-size="10.00">src/m_Do/m_Do_audio.cpp</text>
</a>
</g>
</g>
<!-- Node4&#45;&gt;Node251 -->
<g id="edge39" class="edge">
<title>Node4&#45;&gt;Node251</title>
<path fill="none" stroke="#63b8ff" d="M3329.7,-201.15C3337.47,-199.92 3345.37,-198.82 3352.91,-198 3746.04,-155.4 3848.92,-205.93 4241.91,-162 4252.71,-160.79 4264.28,-158.95 4275.06,-156.99"/>
<polygon fill="#63b8ff" stroke="#63b8ff" points="3329.24,-197.68 3319.95,-202.77 3330.39,-204.58 3329.24,-197.68"/>
</g>
<!-- Node6 -->
<g id="node6" class="node">
<title>Node6</title>
<g id="a_node6"><a xlink:href="d__attention_8h.html" target="_top" xlink:title=" ">
<polygon fill="#fff0f0" stroke="red" points="2396.91,-90.5 2282.91,-90.5 2282.91,-71.5 2396.91,-71.5 2396.91,-90.5"/>
<text text-anchor="middle" x="2339.91" y="-78.5" font-family="Helvetica,sans-Serif" font-size="10.00">include/d/d_attention.h</text>
</a>
</g>
</g>
<!-- Node5&#45;&gt;Node6 -->
<g id="edge5" class="edge">
<title>Node5&#45;&gt;Node6</title>
<path fill="none" stroke="#63b8ff" d="M1402.62,-145.92C1564.26,-144.89 1951.45,-137.82 2272.91,-96 2282.45,-94.76 2292.67,-92.9 2302.17,-90.94"/>
<polygon fill="#63b8ff" stroke="#63b8ff" points="1402.87,-142.42 1392.89,-145.98 1402.91,-149.42 1402.87,-142.42"/>
</g>
<!-- Node258 -->
<g id="node7" class="node">
<title>Node258</title>
<g id="a_node7"><a xlink:href="d__drawlist_8h.html" target="_top" xlink:title=" ">
<polygon fill="#fff0f0" stroke="red" points="2524.91,-90.5 2414.91,-90.5 2414.91,-71.5 2524.91,-71.5 2524.91,-90.5"/>
<text text-anchor="middle" x="2469.91" y="-78.5" font-family="Helvetica,sans-Serif" font-size="10.00">include/d/d_drawlist.h</text>
</a>
</g>
</g>
<!-- Node5&#45;&gt;Node258 -->
<g id="edge6" class="edge">
<title>Node5&#45;&gt;Node258</title>
<path fill="none" stroke="#63b8ff" d="M1402.75,-144.13C1615.9,-138.68 2211.64,-121.56 2405.91,-96 2415.04,-94.8 2424.8,-92.96 2433.88,-91"/>
<polygon fill="#63b8ff" stroke="#63b8ff" points="1402.8,-140.63 1392.89,-144.38 1402.98,-147.63 1402.8,-140.63"/>
</g>
<!-- Node307 -->
<g id="node8" class="node">
<title>Node307</title>
<g id="a_node8"><a xlink:href="d__ky__thunder_8h.html" target="_top" xlink:title=" ">
<polygon fill="#fff0f0" stroke="red" points="139.91,-90.5 15.91,-90.5 15.91,-71.5 139.91,-71.5 139.91,-90.5"/>
<text text-anchor="middle" x="77.91" y="-78.5" font-family="Helvetica,sans-Serif" font-size="10.00">include/d/d_ky_thunder.h</text>
</a>
</g>
</g>
<!-- Node5&#45;&gt;Node307 -->
<g id="edge7" class="edge">
<title>Node5&#45;&gt;Node307</title>
<path fill="none" stroke="#63b8ff" d="M1249.15,-146.77C1060.91,-147.78 561.68,-145.17 148.91,-96 138.8,-94.8 127.99,-92.95 117.92,-90.99"/>
<polygon fill="#63b8ff" stroke="#63b8ff" points="1249.06,-150.27 1259.04,-146.71 1249.02,-143.27 1249.06,-150.27"/>
</g>
<!-- Node308 -->
<g id="node9" class="node">
<title>Node308</title>
<g id="a_node9"><a xlink:href="d__resorce_8h.html" target="_top" xlink:title=" ">
<polygon fill="#fff0f0" stroke="red" points="267.41,-90.5 158.41,-90.5 158.41,-71.5 267.41,-71.5 267.41,-90.5"/>
<text text-anchor="middle" x="212.91" y="-78.5" font-family="Helvetica,sans-Serif" font-size="10.00">include/d/d_resorce.h</text>
</a>
</g>
</g>
<!-- Node5&#45;&gt;Node308 -->
<g id="edge8" class="edge">
<title>Node5&#45;&gt;Node308</title>
<path fill="none" stroke="#63b8ff" d="M1249.19,-146.73C1075.35,-147.44 638.42,-143.81 276.91,-96 267.78,-94.79 258.01,-92.95 248.94,-90.99"/>
<polygon fill="#63b8ff" stroke="#63b8ff" points="1249.01,-150.23 1258.99,-146.69 1248.98,-143.23 1249.01,-150.23"/>
</g>
<!-- Node309 -->
<g id="node10" class="node">
<title>Node309</title>
<g id="a_node10"><a xlink:href="d__kankyo_8h.html" target="_top" xlink:title=" ">
<polygon fill="#fff0f0" stroke="red" points="2640.91,-96 2542.91,-96 2542.91,-66 2640.91,-66 2640.91,-96"/>
<text text-anchor="start" x="2550.91" y="-84" font-family="Helvetica,sans-Serif" font-size="10.00">include/d/kankyo/d</text>
<text text-anchor="middle" x="2591.91" y="-73" font-family="Helvetica,sans-Serif" font-size="10.00">_kankyo.h</text>
</a>
</g>
</g>
<!-- Node5&#45;&gt;Node309 -->
<g id="edge9" class="edge">
<title>Node5&#45;&gt;Node309</title>
<path fill="none" stroke="#63b8ff" d="M1402.62,-144.79C1632.61,-140.84 2314.03,-126.79 2533.91,-96 2536.78,-95.6 2539.72,-95.12 2542.67,-94.58"/>
<polygon fill="#63b8ff" stroke="#63b8ff" points="1402.82,-141.28 1392.88,-144.95 1402.93,-148.28 1402.82,-141.28"/>
</g>
<!-- Node262 -->
<g id="node13" class="node">
<title>Node262</title>
<g id="a_node13"><a xlink:href="d__a__do_8h.html" target="_top" xlink:title=" ">
<polygon fill="white" stroke="#666666" points="381.91,-96 285.91,-96 285.91,-66 381.91,-66 381.91,-96"/>
<text text-anchor="start" x="293.91" y="-84" font-family="Helvetica,sans-Serif" font-size="10.00">include/rel/d/a/d_a</text>
<text text-anchor="middle" x="333.91" y="-73" font-family="Helvetica,sans-Serif" font-size="10.00">_do/d_a_do.h</text>
</a>
</g>
</g>
<!-- Node5&#45;&gt;Node262 -->
<g id="edge12" class="edge">
<title>Node5&#45;&gt;Node262</title>
<path fill="none" stroke="#63b8ff" d="M1249.45,-146.74C1089.27,-147.23 707.13,-142.87 390.91,-96 388.09,-95.58 385.2,-95.09 382.3,-94.54"/>
<polygon fill="#63b8ff" stroke="#63b8ff" points="1249.09,-150.24 1259.08,-146.7 1249.07,-143.24 1249.09,-150.24"/>
</g>
<!-- Node461 -->
<g id="node14" class="node">
<title>Node461</title>
<g id="a_node14"><a xlink:href="d__a__mg__fshop_8h.html" target="_top" xlink:title=" ">
<polygon fill="white" stroke="#666666" points="539.41,-96 400.41,-96 400.41,-66 539.41,-66 539.41,-96"/>
<text text-anchor="start" x="408.41" y="-84" font-family="Helvetica,sans-Serif" font-size="10.00">include/rel/d/a/d_a</text>
<text text-anchor="middle" x="469.91" y="-73" font-family="Helvetica,sans-Serif" font-size="10.00">_mg_fshop/d_a_mg_fshop.h</text>
</a>
</g>
</g>
<!-- Node5&#45;&gt;Node461 -->
<g id="edge13" class="edge">
<title>Node5&#45;&gt;Node461</title>
<path fill="none" stroke="#63b8ff" d="M1249.06,-143.89C1109.28,-139.41 804.27,-126.75 548.91,-96 545.87,-95.63 542.76,-95.23 539.63,-94.79"/>
<polygon fill="#63b8ff" stroke="#63b8ff" points="1248.83,-147.38 1258.94,-144.2 1249.05,-140.38 1248.83,-147.38"/>
</g>
<!-- Node375 -->
<g id="node15" class="node">
<title>Node375</title>
<g id="a_node15"><a xlink:href="d__a__myna_8h.html" target="_top" xlink:title=" ">
<polygon fill="white" stroke="#666666" points="657.91,-96 557.91,-96 557.91,-66 657.91,-66 657.91,-96"/>
<text text-anchor="start" x="565.91" y="-84" font-family="Helvetica,sans-Serif" font-size="10.00">include/rel/d/a/d_a</text>
<text text-anchor="middle" x="607.91" y="-73" font-family="Helvetica,sans-Serif" font-size="10.00">_myna/d_a_myna.h</text>
</a>
</g>
</g>
<!-- Node5&#45;&gt;Node375 -->
<g id="edge14" class="edge">
<title>Node5&#45;&gt;Node375</title>
<path fill="none" stroke="#63b8ff" d="M1249.34,-144.09C1126.02,-140.15 876.07,-128.54 666.91,-96 664.1,-95.56 661.23,-95.06 658.34,-94.52"/>
<polygon fill="#63b8ff" stroke="#63b8ff" points="1248.89,-147.58 1259,-144.39 1249.11,-140.58 1248.89,-147.58"/>
</g>
<!-- Node484 -->
<g id="node16" class="node">
<title>Node484</title>
<g id="a_node16"><a xlink:href="DynamicLink_8cpp.html" target="_top" xlink:title=" ">
<polygon fill="white" stroke="#666666" points="783.41,-90.5 676.41,-90.5 676.41,-71.5 783.41,-71.5 783.41,-90.5"/>
<text text-anchor="middle" x="729.91" y="-78.5" font-family="Helvetica,sans-Serif" font-size="10.00">src/DynamicLink.cpp</text>
</a>
</g>
</g>
<!-- Node5&#45;&gt;Node484 -->
<g id="edge15" class="edge">
<title>Node5&#45;&gt;Node484</title>
<path fill="none" stroke="#63b8ff" d="M1249.3,-141.93C1145.26,-135.71 953.67,-121.73 791.91,-96 783.41,-94.65 774.33,-92.82 765.82,-90.93"/>
<polygon fill="#63b8ff" stroke="#63b8ff" points="1248.93,-145.42 1259.12,-142.51 1249.34,-138.43 1248.93,-145.42"/>
</g>
<!-- Node184 -->
<g id="node17" class="node">
<title>Node184</title>
<g id="a_node17"><a xlink:href="c__dylink_8cpp.html" target="_top" xlink:title=" ">
<polygon fill="white" stroke="#666666" points="896.41,-90.5 801.41,-90.5 801.41,-71.5 896.41,-71.5 896.41,-90.5"/>
<text text-anchor="middle" x="848.91" y="-78.5" font-family="Helvetica,sans-Serif" font-size="10.00">src/c/c_dylink.cpp</text>
</a>
</g>
</g>
<!-- Node5&#45;&gt;Node184 -->
<g id="edge16" class="edge">
<title>Node5&#45;&gt;Node184</title>
<path fill="none" stroke="#63b8ff" d="M1249.13,-139.7C1164.6,-132.11 1024.89,-117.61 905.91,-96 898.29,-94.62 890.17,-92.82 882.52,-90.98"/>
<polygon fill="#63b8ff" stroke="#63b8ff" points="1248.65,-143.17 1258.92,-140.57 1249.27,-136.2 1248.65,-143.17"/>
</g>
<!-- Node485 -->
<g id="node18" class="node">
<title>Node485</title>
<g id="a_node18"><a xlink:href="d__meter__HIO_8cpp.html" target="_top" xlink:title=" ">
<polygon fill="white" stroke="#666666" points="1018.91,-96 914.91,-96 914.91,-66 1018.91,-66 1018.91,-96"/>
<text text-anchor="start" x="922.91" y="-84" font-family="Helvetica,sans-Serif" font-size="10.00">src/d/meter/d_meter</text>
<text text-anchor="middle" x="966.91" y="-73" font-family="Helvetica,sans-Serif" font-size="10.00">_HIO.cpp</text>
</a>
</g>
</g>
<!-- Node5&#45;&gt;Node485 -->
<g id="edge17" class="edge">
<title>Node5&#45;&gt;Node485</title>
<path fill="none" stroke="#63b8ff" d="M1254.74,-135.28C1194.23,-125.87 1105.13,-111.33 1027.91,-96 1025.03,-95.43 1022.08,-94.82 1019.11,-94.19"/>
<polygon fill="#63b8ff" stroke="#63b8ff" points="1254.16,-138.73 1264.57,-136.8 1255.23,-131.81 1254.16,-138.73"/>
</g>
<!-- Node486 -->
<g id="node19" class="node">
<title>Node486</title>
<g id="a_node19"><a xlink:href="d__pane__class_8cpp.html" target="_top" xlink:title=" ">
<polygon fill="white" stroke="#666666" points="1180.41,-90.5 1037.41,-90.5 1037.41,-71.5 1180.41,-71.5 1180.41,-90.5"/>
<text text-anchor="middle" x="1108.91" y="-78.5" font-family="Helvetica,sans-Serif" font-size="10.00">src/d/pane/d_pane_class.cpp</text>
</a>
</g>
</g>
<!-- Node5&#45;&gt;Node486 -->
<g id="edge18" class="edge">
<title>Node5&#45;&gt;Node486</title>
<path fill="none" stroke="#63b8ff" d="M1284.94,-133.92C1242.5,-121.4 1177.17,-102.13 1139.17,-90.93"/>
<polygon fill="#63b8ff" stroke="#63b8ff" points="1283.7,-137.2 1294.28,-136.67 1285.68,-130.49 1283.7,-137.2"/>
</g>
<!-- Node487 -->
<g id="node20" class="node">
<title>Node487</title>
<g id="a_node20"><a xlink:href="d__pane__class__alpha_8cpp.html" target="_top" xlink:title=" ">
<polygon fill="white" stroke="#666666" points="1323.41,-96 1198.41,-96 1198.41,-66 1323.41,-66 1323.41,-96"/>
<text text-anchor="start" x="1206.41" y="-84" font-family="Helvetica,sans-Serif" font-size="10.00">src/d/pane/d_pane_class</text>
<text text-anchor="middle" x="1260.91" y="-73" font-family="Helvetica,sans-Serif" font-size="10.00">_alpha.cpp</text>
</a>
</g>
</g>
<!-- Node5&#45;&gt;Node487 -->
<g id="edge19" class="edge">
<title>Node5&#45;&gt;Node487</title>
<path fill="none" stroke="#63b8ff" d="M1308.9,-129.25C1298.48,-118.99 1285.28,-106 1275.36,-96.23"/>
<polygon fill="#63b8ff" stroke="#63b8ff" points="1306.21,-131.52 1315.79,-136.04 1311.12,-126.53 1306.21,-131.52"/>
</g>
<!-- Node175 -->
<g id="node21" class="node">
<title>Node175</title>
<g id="a_node21"><a xlink:href="f__op__actor__mng_8cpp.html" target="_top" xlink:title=" ">
<polygon fill="white" stroke="#666666" points="1442.41,-96 1341.41,-96 1341.41,-66 1442.41,-66 1442.41,-96"/>
<text text-anchor="start" x="1349.41" y="-84" font-family="Helvetica,sans-Serif" font-size="10.00">src/f_op/f_op_actor</text>
<text text-anchor="middle" x="1391.91" y="-73" font-family="Helvetica,sans-Serif" font-size="10.00">_mng.cpp</text>
</a>
</g>
</g>
<!-- Node5&#45;&gt;Node175 -->
<g id="edge20" class="edge">
<title>Node5&#45;&gt;Node175</title>
<path fill="none" stroke="#63b8ff" d="M1343.18,-129.25C1353.76,-118.99 1367.16,-106 1377.23,-96.23"/>
<polygon fill="#63b8ff" stroke="#63b8ff" points="1340.91,-126.57 1336.17,-136.05 1345.79,-131.6 1340.91,-126.57"/>
</g>
<!-- Node488 -->
<g id="node22" class="node">
<title>Node488</title>
<g id="a_node22"><a xlink:href="m__Do__DVDError_8cpp.html" target="_top" xlink:title=" ">
<polygon fill="white" stroke="#666666" points="1611.41,-90.5 1460.41,-90.5 1460.41,-71.5 1611.41,-71.5 1611.41,-90.5"/>
<text text-anchor="middle" x="1535.91" y="-78.5" font-family="Helvetica,sans-Serif" font-size="10.00">src/m_Do/m_Do_DVDError.cpp</text>
</a>
</g>
</g>
<!-- Node5&#45;&gt;Node488 -->
<g id="edge21" class="edge">
<title>Node5&#45;&gt;Node488</title>
<path fill="none" stroke="#63b8ff" d="M1366.08,-133.76C1407.16,-121.24 1470.01,-102.08 1506.62,-90.93"/>
<polygon fill="#63b8ff" stroke="#63b8ff" points="1365.1,-130.4 1356.56,-136.66 1367.14,-137.09 1365.1,-130.4"/>
</g>
<!-- Node489 -->
<g id="node23" class="node">
<title>Node489</title>
<g id="a_node23"><a xlink:href="m__Do__MemCard_8cpp.html" target="_top" xlink:title=" ">
<polygon fill="white" stroke="#666666" points="1781.91,-90.5 1629.91,-90.5 1629.91,-71.5 1781.91,-71.5 1781.91,-90.5"/>
<text text-anchor="middle" x="1705.91" y="-78.5" font-family="Helvetica,sans-Serif" font-size="10.00">src/m_Do/m_Do_MemCard.cpp</text>
</a>
</g>
</g>
<!-- Node5&#45;&gt;Node489 -->
<g id="edge22" class="edge">
<title>Node5&#45;&gt;Node489</title>
<path fill="none" stroke="#63b8ff" d="M1390.14,-135.18C1464,-122.74 1583.88,-102.55 1652.73,-90.96"/>
<polygon fill="#63b8ff" stroke="#63b8ff" points="1389.92,-131.67 1380.64,-136.78 1391.08,-138.57 1389.92,-131.67"/>
</g>
<!-- Node490 -->
<g id="node24" class="node">
<title>Node490</title>
<g id="a_node24"><a xlink:href="m__Do__dvd__thread_8cpp.html" target="_top" xlink:title=" ">
<polygon fill="white" stroke="#666666" points="1957.91,-90.5 1799.91,-90.5 1799.91,-71.5 1957.91,-71.5 1957.91,-90.5"/>
<text text-anchor="middle" x="1878.91" y="-78.5" font-family="Helvetica,sans-Serif" font-size="10.00">src/m_Do/m_Do_dvd_thread.cpp</text>
</a>
</g>
</g>
<!-- Node5&#45;&gt;Node490 -->
<g id="edge23" class="edge">
<title>Node5&#45;&gt;Node490</title>
<path fill="none" stroke="#63b8ff" d="M1402.29,-138.98C1494.54,-130.23 1654.35,-114.19 1790.91,-96 1802.1,-94.51 1814.07,-92.73 1825.46,-90.95"/>
<polygon fill="#63b8ff" stroke="#63b8ff" points="1402.24,-135.47 1392.61,-139.9 1402.9,-142.44 1402.24,-135.47"/>
</g>
<!-- Node252 -->
<g id="node25" class="node">
<title>Node252</title>
<g id="a_node25"><a xlink:href="m__Do__ext_8cpp.html" target="_top" xlink:title=" ">
<polygon fill="white" stroke="#666666" points="2099.41,-90.5 1976.41,-90.5 1976.41,-71.5 2099.41,-71.5 2099.41,-90.5"/>
<text text-anchor="middle" x="2037.91" y="-78.5" font-family="Helvetica,sans-Serif" font-size="10.00">src/m_Do/m_Do_ext.cpp</text>
</a>
</g>
</g>
<!-- Node5&#45;&gt;Node252 -->
<g id="edge24" class="edge">
<title>Node5&#45;&gt;Node252</title>
<path fill="none" stroke="#63b8ff" d="M1402.52,-142.92C1523.06,-137.43 1764.16,-123.8 1966.91,-96 1976.62,-94.67 1987,-92.85 1996.75,-90.96"/>
<polygon fill="#63b8ff" stroke="#63b8ff" points="1402.58,-139.41 1392.75,-143.36 1402.89,-146.41 1402.58,-139.41"/>
</g>
<!-- Node491 -->
<g id="node26" class="node">
<title>Node491</title>
<g id="a_node26"><a xlink:href="m__Do__machine_8cpp.html" target="_top" xlink:title=" ">
<polygon fill="white" stroke="#666666" points="2264.41,-90.5 2117.41,-90.5 2117.41,-71.5 2264.41,-71.5 2264.41,-90.5"/>
<text text-anchor="middle" x="2190.91" y="-78.5" font-family="Helvetica,sans-Serif" font-size="10.00">src/m_Do/m_Do_machine.cpp</text>
</a>
</g>
</g>
<!-- Node5&#45;&gt;Node491 -->
<g id="edge25" class="edge">
<title>Node5&#45;&gt;Node491</title>
<path fill="none" stroke="#63b8ff" d="M1402.69,-143.72C1543.09,-138.97 1850.45,-125.86 2107.91,-96 2119.23,-94.69 2131.36,-92.87 2142.75,-90.99"/>
<polygon fill="#63b8ff" stroke="#63b8ff" points="1402.64,-140.22 1392.76,-144.05 1402.88,-147.22 1402.64,-140.22"/>
</g>
<!-- Node309&#45;&gt;Node56 -->
<g id="edge10" class="edge">
<title>Node309&#45;&gt;Node56</title>
<path fill="none" stroke="#63b8ff" d="M2531.55,-65.92C2275.14,-32.7 1549.01,-20.09 1324.1,-16.88"/>
<polygon fill="#63b8ff" stroke="#63b8ff" points="2530.8,-69.35 2541.17,-67.21 2531.73,-62.41 2530.8,-69.35"/>
</g>
<!-- Node309&#45;&gt;Node222 -->
<g id="edge11" class="edge">
<title>Node309&#45;&gt;Node222</title>
<path fill="none" stroke="#63b8ff" d="M2606.09,-56.11C2611.28,-47.38 2616.98,-37.78 2621.5,-30.16"/>
<polygon fill="#63b8ff" stroke="#63b8ff" points="2603.21,-54.11 2601.11,-64.49 2609.23,-57.68 2603.21,-54.11"/>
</g>
</g>
</svg>
