<?xml version="1.0" encoding="UTF-8" standalone="no"?>
<!DOCTYPE svg PUBLIC "-//W3C//DTD SVG 1.1//EN"
 "http://www.w3.org/Graphics/SVG/1.1/DTD/svg11.dtd">
<!-- Generated by graphviz version 7.0.5 (20221223.1930)
 -->
<!-- Title: include/JSystem/JAudio2/JAISe.h Pages: 1 -->
<!--zoomable 500 -->
<svg id="main" version="1.1" xmlns="http://www.w3.org/2000/svg" xmlns:xlink="http://www.w3.org/1999/xlink" xml:space="preserve" onload="init(evt)">
<style type="text/css"><![CDATA[
.edge:hover path { stroke: red; }
.edge:hover polygon { stroke: red; fill: red; }
]]></style>
<script type="text/javascript"><![CDATA[
var edges = document.getElementsByTagName('g');
if (edges && edges.length) {
  for (var i=0;i<edges.length;i++) {
    if (edges[i].id.substr(0,4)=='edge') {
      edges[i].setAttribute('class','edge');
    }
  }
}
]]></script>
        <defs>
                <circle id="rim" cx="0" cy="0" r="7"/>
                <circle id="rim2" cx="0" cy="0" r="3.5"/>
                <g id="zoomPlus">
                        <use xlink:href="#rim" fill="#404040">
                                <set attributeName="fill" to="#808080" begin="zoomplus.mouseover" end="zoomplus.mouseout"/>
                        </use>
                        <path d="M-4,0h8M0,-4v8" fill="none" stroke="white" stroke-width="1.5" pointer-events="none"/>
                </g>
                <g id="zoomMin">
                        <use xlink:href="#rim" fill="#404040">
                                <set attributeName="fill" to="#808080" begin="zoomminus.mouseover" end="zoomminus.mouseout"/>
                        </use>
                        <path d="M-4,0h8" fill="none" stroke="white" stroke-width="1.5" pointer-events="none"/>
                </g>
                <g id="dirArrow">
                        <path fill="none" stroke="white" stroke-width="1.5" d="M0,-3.0v7 M-2.5,-0.5L0,-3.0L2.5,-0.5"/>
                </g>
               <g id="resetDef">
                       <use xlink:href="#rim2" fill="#404040">
                               <set attributeName="fill" to="#808080" begin="reset.mouseover" end="reset.mouseout"/>
                       </use>
               </g>
        </defs>

<script type="text/javascript">
var viewWidth = 4067;
var viewHeight = 500;
var sectionId = 'dynsection-1';
</script>
<script xlink:href="svgpan.js"/>
<svg id="graph" class="graph">
<g id="viewport">
<title>include/JSystem/JAudio2/JAISe.h</title>
<!-- Node1 -->
<g id="node1" class="node">
<title>Node1</title>
<g id="a_node1"><a xlink:title=" ">
<polygon fill="#999999" stroke="#666666" points="3404.37,-492 3277.37,-492 3277.37,-462 3404.37,-462 3404.37,-492"/>
<text text-anchor="start" x="3285.37" y="-480" font-family="Helvetica,sans-Serif" font-size="10.00">include/JSystem/JAudio2</text>
<text text-anchor="middle" x="3340.87" y="-469" font-family="Helvetica,sans-Serif" font-size="10.00">/JAISe.h</text>
</a>
</g>
</g>
<!-- Node2 -->
<g id="node2" class="node">
<title>Node2</title>
<g id="a_node2"><a xlink:href="JAISeMgr_8h.html" target="_top" xlink:title=" ">
<polygon fill="white" stroke="#666666" points="3336.37,-426 3209.37,-426 3209.37,-396 3336.37,-396 3336.37,-426"/>
<text text-anchor="start" x="3217.37" y="-414" font-family="Helvetica,sans-Serif" font-size="10.00">include/JSystem/JAudio2</text>
<text text-anchor="middle" x="3272.87" y="-403" font-family="Helvetica,sans-Serif" font-size="10.00">/JAISeMgr.h</text>
</a>
</g>
</g>
<!-- Node1&#45;&gt;Node2 -->
<g id="edge1" class="edge">
<title>Node1&#45;&gt;Node2</title>
<path fill="none" stroke="#63b8ff" d="M3317.59,-454.09C3307.77,-444.85 3296.63,-434.36 3287.92,-426.16"/>
<polygon fill="#63b8ff" stroke="#63b8ff" points="3315,-456.45 3324.68,-460.76 3319.79,-451.36 3315,-456.45"/>
</g>
<!-- Node492 -->
<g id="node46" class="node">
<title>Node492</title>
<g id="a_node46"><a xlink:href="JAISe_8cpp.html" target="_top" xlink:title=" ">
<polygon fill="white" stroke="#666666" points="3199.37,-360 3088.37,-360 3088.37,-330 3199.37,-330 3199.37,-360"/>
<text text-anchor="start" x="3096.37" y="-348" font-family="Helvetica,sans-Serif" font-size="10.00">libs/JSystem/JAudio2</text>
<text text-anchor="middle" x="3143.87" y="-337" font-family="Helvetica,sans-Serif" font-size="10.00">/JAISe.cpp</text>
</a>
</g>
</g>
<!-- Node1&#45;&gt;Node492 -->
<g id="edge50" class="edge">
<title>Node1&#45;&gt;Node492</title>
<path fill="none" stroke="#63b8ff" d="M3266.36,-459.06C3243.52,-451.47 3219.32,-440.8 3199.87,-426 3176.67,-408.34 3159.36,-378.3 3150.51,-360.48"/>
<polygon fill="#63b8ff" stroke="#63b8ff" points="3265.04,-462.31 3275.63,-461.98 3267.14,-455.64 3265.04,-462.31"/>
</g>
<!-- Node495 -->
<g id="node49" class="node">
<title>Node495</title>
<g id="a_node49"><a xlink:href="JAUInitializer_8cpp.html" target="_top" xlink:title=" ">
<polygon fill="white" stroke="#666666" points="3465.37,-426 3354.37,-426 3354.37,-396 3465.37,-396 3465.37,-426"/>
<text text-anchor="start" x="3362.37" y="-414" font-family="Helvetica,sans-Serif" font-size="10.00">libs/JSystem/JAudio2</text>
<text text-anchor="middle" x="3409.87" y="-403" font-family="Helvetica,sans-Serif" font-size="10.00">/JAUInitializer.cpp</text>
</a>
</g>
</g>
<!-- Node1&#45;&gt;Node495 -->
<g id="edge51" class="edge">
<title>Node1&#45;&gt;Node495</title>
<path fill="none" stroke="#63b8ff" d="M3364.5,-454.09C3374.46,-444.85 3385.77,-434.36 3394.6,-426.16"/>
<polygon fill="#63b8ff" stroke="#63b8ff" points="3362.25,-451.4 3357.29,-460.77 3367.01,-456.53 3362.25,-451.4"/>
</g>
<!-- Node496 -->
<g id="node50" class="node">
<title>Node496</title>
<g id="a_node50"><a xlink:href="Z2SoundInfo_8cpp.html" target="_top" xlink:title=" ">
<polygon fill="white" stroke="#666666" points="3644.37,-420.5 3483.37,-420.5 3483.37,-401.5 3644.37,-401.5 3644.37,-420.5"/>
<text text-anchor="middle" x="3563.87" y="-408.5" font-family="Helvetica,sans-Serif" font-size="10.00">libs/Z2AudioLib/Z2SoundInfo.cpp</text>
</a>
</g>
</g>
<!-- Node1&#45;&gt;Node496 -->
<g id="edge52" class="edge">
<title>Node1&#45;&gt;Node496</title>
<path fill="none" stroke="#63b8ff" d="M3402.22,-458.39C3444.51,-446.26 3498.97,-430.63 3532.64,-420.96"/>
<polygon fill="#63b8ff" stroke="#63b8ff" points="3401.3,-455.02 3392.65,-461.14 3403.23,-461.75 3401.3,-455.02"/>
</g>
<!-- Node3 -->
<g id="node3" class="node">
<title>Node3</title>
<g id="a_node3"><a xlink:href="Z2SoundMgr_8h.html" target="_top" xlink:title=" ">
<polygon fill="white" stroke="#666666" points="3591.87,-360 3491.87,-360 3491.87,-330 3591.87,-330 3591.87,-360"/>
<text text-anchor="start" x="3499.87" y="-348" font-family="Helvetica,sans-Serif" font-size="10.00">include/Z2AudioLib</text>
<text text-anchor="middle" x="3541.87" y="-337" font-family="Helvetica,sans-Serif" font-size="10.00">/Z2SoundMgr.h</text>
</a>
</g>
</g>
<!-- Node2&#45;&gt;Node3 -->
<g id="edge2" class="edge">
<title>Node2&#45;&gt;Node3</title>
<path fill="none" stroke="#63b8ff" d="M3344.48,-392.96C3390.94,-381.91 3450.31,-367.78 3491.75,-357.92"/>
<polygon fill="#63b8ff" stroke="#63b8ff" points="3343.97,-389.49 3335.05,-395.21 3345.59,-396.3 3343.97,-389.49"/>
</g>
<!-- Node2&#45;&gt;Node492 -->
<g id="edge47" class="edge">
<title>Node2&#45;&gt;Node492</title>
<path fill="none" stroke="#63b8ff" d="M3233.74,-390.59C3214.1,-380.84 3190.71,-369.24 3172.73,-360.31"/>
<polygon fill="#63b8ff" stroke="#63b8ff" points="3232.05,-393.66 3242.57,-394.96 3235.16,-387.38 3232.05,-393.66"/>
</g>
<!-- Node493 -->
<g id="node47" class="node">
<title>Node493</title>
<g id="a_node47"><a xlink:href="JAISeMgr_8cpp.html" target="_top" xlink:title=" ">
<polygon fill="white" stroke="#666666" points="3328.37,-360 3217.37,-360 3217.37,-330 3328.37,-330 3328.37,-360"/>
<text text-anchor="start" x="3225.37" y="-348" font-family="Helvetica,sans-Serif" font-size="10.00">libs/JSystem/JAudio2</text>
<text text-anchor="middle" x="3272.87" y="-337" font-family="Helvetica,sans-Serif" font-size="10.00">/JAISeMgr.cpp</text>
</a>
</g>
</g>
<!-- Node2&#45;&gt;Node493 -->
<g id="edge48" class="edge">
<title>Node2&#45;&gt;Node493</title>
<path fill="none" stroke="#63b8ff" d="M3272.87,-384.39C3272.87,-376.13 3272.87,-367.28 3272.87,-360.16"/>
<polygon fill="#63b8ff" stroke="#63b8ff" points="3269.37,-384.28 3272.87,-394.28 3276.37,-384.28 3269.37,-384.28"/>
</g>
<!-- Node494 -->
<g id="node48" class="node">
<title>Node494</title>
<g id="a_node48"><a xlink:href="JAUAudioArcLoader_8cpp.html" target="_top" xlink:title=" ">
<polygon fill="white" stroke="#666666" points="3473.37,-360 3346.37,-360 3346.37,-330 3473.37,-330 3473.37,-360"/>
<text text-anchor="start" x="3354.37" y="-348" font-family="Helvetica,sans-Serif" font-size="10.00">libs/JSystem/JAudio2</text>
<text text-anchor="middle" x="3409.87" y="-337" font-family="Helvetica,sans-Serif" font-size="10.00">/JAUAudioArcLoader.cpp</text>
</a>
</g>
</g>
<!-- Node2&#45;&gt;Node494 -->
<g id="edge49" class="edge">
<title>Node2&#45;&gt;Node494</title>
<path fill="none" stroke="#63b8ff" d="M3313.85,-390.86C3334.83,-381.05 3359.95,-369.32 3379.23,-360.31"/>
<polygon fill="#63b8ff" stroke="#63b8ff" points="3312.57,-387.59 3304.99,-395 3315.53,-393.94 3312.57,-387.59"/>
</g>
<!-- Node4 -->
<g id="node4" class="node">
<title>Node4</title>
<g id="a_node4"><a xlink:href="Z2AudioMgr_8h.html" target="_top" xlink:title=" ">
<polygon fill="white" stroke="#666666" points="3181.87,-294 3081.87,-294 3081.87,-264 3181.87,-264 3181.87,-294"/>
<text text-anchor="start" x="3089.87" y="-282" font-family="Helvetica,sans-Serif" font-size="10.00">include/Z2AudioLib</text>
<text text-anchor="middle" x="3131.87" y="-271" font-family="Helvetica,sans-Serif" font-size="10.00">/Z2AudioMgr.h</text>
</a>
</g>
</g>
<!-- Node3&#45;&gt;Node4 -->
<g id="edge3" class="edge">
<title>Node3&#45;&gt;Node4</title>
<path fill="none" stroke="#63b8ff" d="M3480.45,-329.9C3351.62,-307.68 3315.62,-316.45 3190.87,-294 3188.07,-293.5 3185.21,-292.94 3182.33,-292.36"/>
<polygon fill="#63b8ff" stroke="#63b8ff" points="3479.59,-333.3 3490.05,-331.58 3480.8,-326.41 3479.59,-333.3"/>
</g>
<!-- Node487 -->
<g id="node41" class="node">
<title>Node487</title>
<g id="a_node41"><a xlink:href="Z2SceneMgr_8cpp.html" target="_top" xlink:title=" ">
<polygon fill="white" stroke="#666666" points="3361.37,-288.5 3200.37,-288.5 3200.37,-269.5 3361.37,-269.5 3361.37,-288.5"/>
<text text-anchor="middle" x="3280.87" y="-276.5" font-family="Helvetica,sans-Serif" font-size="10.00">libs/Z2AudioLib/Z2SceneMgr.cpp</text>
</a>
</g>
</g>
<!-- Node3&#45;&gt;Node487 -->
<g id="edge42" class="edge">
<title>Node3&#45;&gt;Node487</title>
<path fill="none" stroke="#63b8ff" d="M3480.39,-328.92C3429.65,-316.48 3359.36,-299.25 3317.18,-288.9"/>
<polygon fill="#63b8ff" stroke="#63b8ff" points="3479.53,-332.32 3490.08,-331.3 3481.2,-325.52 3479.53,-332.32"/>
</g>
<!-- Node488 -->
<g id="node42" class="node">
<title>Node488</title>
<g id="a_node42"><a xlink:href="Z2SeqMgr_8cpp.html" target="_top" xlink:title=" ">
<polygon fill="white" stroke="#666666" points="3529.87,-288.5 3379.87,-288.5 3379.87,-269.5 3529.87,-269.5 3529.87,-288.5"/>
<text text-anchor="middle" x="3454.87" y="-276.5" font-family="Helvetica,sans-Serif" font-size="10.00">libs/Z2AudioLib/Z2SeqMgr.cpp</text>
</a>
</g>
</g>
<!-- Node3&#45;&gt;Node488 -->
<g id="edge43" class="edge">
<title>Node3&#45;&gt;Node488</title>
<path fill="none" stroke="#63b8ff" d="M3513.68,-323.26C3497.85,-311.61 3478.92,-297.69 3466.89,-288.84"/>
<polygon fill="#63b8ff" stroke="#63b8ff" points="3511.22,-325.79 3521.34,-328.9 3515.36,-320.15 3511.22,-325.79"/>
</g>
<!-- Node489 -->
<g id="node43" class="node">
<title>Node489</title>
<g id="a_node43"><a xlink:href="Z2SoundMgr_8cpp.html" target="_top" xlink:title=" ">
<polygon fill="white" stroke="#666666" points="3709.37,-288.5 3548.37,-288.5 3548.37,-269.5 3709.37,-269.5 3709.37,-288.5"/>
<text text-anchor="middle" x="3628.87" y="-276.5" font-family="Helvetica,sans-Serif" font-size="10.00">libs/Z2AudioLib/Z2SoundMgr.cpp</text>
</a>
</g>
</g>
<!-- Node3&#45;&gt;Node489 -->
<g id="edge44" class="edge">
<title>Node3&#45;&gt;Node489</title>
<path fill="none" stroke="#63b8ff" d="M3570.07,-323.26C3585.9,-311.61 3604.83,-297.69 3616.85,-288.84"/>
<polygon fill="#63b8ff" stroke="#63b8ff" points="3568.38,-320.15 3562.4,-328.9 3572.53,-325.79 3568.38,-320.15"/>
</g>
<!-- Node490 -->
<g id="node44" class="node">
<title>Node490</title>
<g id="a_node44"><a xlink:href="Z2SoundObject_8cpp.html" target="_top" xlink:title=" ">
<polygon fill="white" stroke="#666666" points="3900.37,-288.5 3727.37,-288.5 3727.37,-269.5 3900.37,-269.5 3900.37,-288.5"/>
<text text-anchor="middle" x="3813.87" y="-276.5" font-family="Helvetica,sans-Serif" font-size="10.00">libs/Z2AudioLib/Z2SoundObject.cpp</text>
</a>
</g>
</g>
<!-- Node3&#45;&gt;Node490 -->
<g id="edge45" class="edge">
<title>Node3&#45;&gt;Node490</title>
<path fill="none" stroke="#63b8ff" d="M3603.03,-329.61C3656.01,-317.14 3730.99,-299.5 3775.8,-288.96"/>
<polygon fill="#63b8ff" stroke="#63b8ff" points="3602.48,-326.14 3593.55,-331.84 3604.09,-332.96 3602.48,-326.14"/>
</g>
<!-- Node491 -->
<g id="node45" class="node">
<title>Node491</title>
<g id="a_node45"><a xlink:href="Z2WolfHowlMgr_8cpp.html" target="_top" xlink:title=" ">
<polygon fill="white" stroke="#666666" points="4058.87,-294 3918.87,-294 3918.87,-264 4058.87,-264 4058.87,-294"/>
<text text-anchor="start" x="3926.87" y="-282" font-family="Helvetica,sans-Serif" font-size="10.00">libs/Z2AudioLib/Z2WolfHowl</text>
<text text-anchor="middle" x="3988.87" y="-271" font-family="Helvetica,sans-Serif" font-size="10.00">Mgr.cpp</text>
</a>
</g>
</g>
<!-- Node3&#45;&gt;Node491 -->
<g id="edge46" class="edge">
<title>Node3&#45;&gt;Node491</title>
<path fill="none" stroke="#63b8ff" d="M3603.55,-336.39C3676.74,-327.19 3802.39,-310.82 3909.87,-294 3912.76,-293.55 3915.71,-293.08 3918.68,-292.59"/>
<polygon fill="#63b8ff" stroke="#63b8ff" points="3603.25,-332.9 3593.76,-337.62 3604.12,-339.85 3603.25,-332.9"/>
</g>
<!-- Node5 -->
<g id="node5" class="node">
<title>Node5</title>
<g id="a_node5"><a xlink:href="m__Do__audio_8h.html" target="_top" xlink:title=" ">
<polygon fill="white" stroke="#666666" points="2860.87,-222.5 2720.87,-222.5 2720.87,-203.5 2860.87,-203.5 2860.87,-222.5"/>
<text text-anchor="middle" x="2790.87" y="-210.5" font-family="Helvetica,sans-Serif" font-size="10.00">include/m_Do/m_Do_audio.h</text>
</a>
</g>
</g>
<!-- Node4&#45;&gt;Node5 -->
<g id="edge4" class="edge">
<title>Node4&#45;&gt;Node5</title>
<path fill="none" stroke="#63b8ff" d="M3070.41,-266.47C3003.9,-253.98 2899.26,-234.34 2838.64,-222.97"/>
<polygon fill="#63b8ff" stroke="#63b8ff" points="3069.59,-269.87 3080.07,-268.28 3070.89,-262.99 3069.59,-269.87"/>
</g>
<!-- Node483 -->
<g id="node37" class="node">
<title>Node483</title>
<g id="a_node37"><a xlink:href="Z2AudioMgr_8cpp.html" target="_top" xlink:title=" ">
<polygon fill="white" stroke="#666666" points="3036.87,-222.5 2878.87,-222.5 2878.87,-203.5 3036.87,-203.5 3036.87,-222.5"/>
<text text-anchor="middle" x="2957.87" y="-210.5" font-family="Helvetica,sans-Serif" font-size="10.00">libs/Z2AudioLib/Z2AudioMgr.cpp</text>
</a>
</g>
</g>
<!-- Node4&#45;&gt;Node483 -->
<g id="edge38" class="edge">
<title>Node4&#45;&gt;Node483</title>
<path fill="none" stroke="#63b8ff" d="M3082.1,-259.69C3049.41,-247.67 3008.08,-232.47 2982.3,-222.99"/>
<polygon fill="#63b8ff" stroke="#63b8ff" points="3080.81,-262.95 3091.4,-263.11 3083.23,-256.38 3080.81,-262.95"/>
</g>
<!-- Node484 -->
<g id="node38" class="node">
<title>Node484</title>
<g id="a_node38"><a xlink:href="Z2Creature_8cpp.html" target="_top" xlink:title=" ">
<polygon fill="white" stroke="#666666" points="3208.37,-222.5 3055.37,-222.5 3055.37,-203.5 3208.37,-203.5 3208.37,-222.5"/>
<text text-anchor="middle" x="3131.87" y="-210.5" font-family="Helvetica,sans-Serif" font-size="10.00">libs/Z2AudioLib/Z2Creature.cpp</text>
</a>
</g>
</g>
<!-- Node4&#45;&gt;Node484 -->
<g id="edge39" class="edge">
<title>Node4&#45;&gt;Node484</title>
<path fill="none" stroke="#63b8ff" d="M3131.87,-252.59C3131.87,-242.06 3131.87,-230.53 3131.87,-222.84"/>
<polygon fill="#63b8ff" stroke="#63b8ff" points="3128.37,-252.28 3131.87,-262.28 3135.37,-252.28 3128.37,-252.28"/>
</g>
<!-- Node485 -->
<g id="node39" class="node">
<title>Node485</title>
<g id="a_node39"><a xlink:href="Z2SoundStarter_8cpp.html" target="_top" xlink:title=" ">
<polygon fill="white" stroke="#666666" points="3399.37,-222.5 3226.37,-222.5 3226.37,-203.5 3399.37,-203.5 3399.37,-222.5"/>
<text text-anchor="middle" x="3312.87" y="-210.5" font-family="Helvetica,sans-Serif" font-size="10.00">libs/Z2AudioLib/Z2SoundStarter.cpp</text>
</a>
</g>
</g>
<!-- Node4&#45;&gt;Node485 -->
<g id="edge40" class="edge">
<title>Node4&#45;&gt;Node485</title>
<path fill="none" stroke="#63b8ff" d="M3183.2,-259.85C3217.27,-247.8 3260.53,-232.51 3287.46,-222.99"/>
<polygon fill="#63b8ff" stroke="#63b8ff" points="3182.18,-256.5 3173.92,-263.13 3184.51,-263.1 3182.18,-256.5"/>
</g>
<!-- Node486 -->
<g id="node40" class="node">
<title>Node486</title>
<g id="a_node40"><a xlink:href="Z2SpeechMgr2_8cpp.html" target="_top" xlink:title=" ">
<polygon fill="white" stroke="#666666" points="3548.37,-228 3417.37,-228 3417.37,-198 3548.37,-198 3548.37,-228"/>
<text text-anchor="start" x="3425.37" y="-216" font-family="Helvetica,sans-Serif" font-size="10.00">libs/Z2AudioLib/Z2Speech</text>
<text text-anchor="middle" x="3482.87" y="-205" font-family="Helvetica,sans-Serif" font-size="10.00">Mgr2.cpp</text>
</a>
</g>
</g>
<!-- Node4&#45;&gt;Node486 -->
<g id="edge41" class="edge">
<title>Node4&#45;&gt;Node486</title>
<path fill="none" stroke="#63b8ff" d="M3193.36,-263.58C3288.6,-244.7 3315.07,-244.36 3407.87,-228 3410.87,-227.47 3413.94,-226.92 3417.04,-226.37"/>
<polygon fill="#63b8ff" stroke="#63b8ff" points="3192.95,-260.09 3183.84,-265.48 3194.33,-266.95 3192.95,-260.09"/>
</g>
<!-- Node6 -->
<g id="node6" class="node">
<title>Node6</title>
<g id="a_node6"><a xlink:href="m__Do__ext_8h.html" target="_top" xlink:title=" ">
<polygon fill="#fff0f0" stroke="red" points="1173.87,-156.5 1043.87,-156.5 1043.87,-137.5 1173.87,-137.5 1173.87,-156.5"/>
<text text-anchor="middle" x="1108.87" y="-144.5" font-family="Helvetica,sans-Serif" font-size="10.00">include/m_Do/m_Do_ext.h</text>
</a>
</g>
</g>
<!-- Node5&#45;&gt;Node6 -->
<g id="edge5" class="edge">
<title>Node5&#45;&gt;Node6</title>
<path fill="none" stroke="#63b8ff" d="M2709.19,-208.89C2418.46,-197.83 1437.26,-160.5 1174.21,-150.49"/>
<polygon fill="#63b8ff" stroke="#63b8ff" points="2708.84,-212.38 2718.96,-209.26 2709.1,-205.39 2708.84,-212.38"/>
</g>
<!-- Node57 -->
<g id="node12" class="node">
<title>Node57</title>
<g id="a_node12"><a xlink:href="d__kankyo_8cpp.html" target="_top" xlink:title=" ">
<polygon fill="white" stroke="#666666" points="1081.87,-24.5 947.87,-24.5 947.87,-5.5 1081.87,-5.5 1081.87,-24.5"/>
<text text-anchor="middle" x="1014.87" y="-12.5" font-family="Helvetica,sans-Serif" font-size="10.00">src/d/kankyo/d_kankyo.cpp</text>
</a>
</g>
</g>
<!-- Node5&#45;&gt;Node57 -->
<g id="edge27" class="edge">
<title>Node5&#45;&gt;Node57</title>
<path fill="none" stroke="#63b8ff" d="M2709.28,-211.78C2259.73,-210.16 101.71,-197.12 6.87,-96 -2.25,-86.27 -2.32,-75.66 6.87,-66 39.31,-31.91 727.45,-19.82 947.7,-16.82"/>
<polygon fill="#63b8ff" stroke="#63b8ff" points="2708.99,-215.28 2719.01,-211.81 2709.02,-208.28 2708.99,-215.28"/>
</g>
<!-- Node220 -->
<g id="node13" class="node">
<title>Node220</title>
<g id="a_node13"><a xlink:href="d__kankyo__wether_8cpp.html" target="_top" xlink:title=" ">
<polygon fill="white" stroke="#666666" points="2204.87,-30 2088.87,-30 2088.87,0 2204.87,0 2204.87,-30"/>
<text text-anchor="start" x="2096.87" y="-18" font-family="Helvetica,sans-Serif" font-size="10.00">src/d/kankyo/d_kankyo</text>
<text text-anchor="middle" x="2146.87" y="-7" font-family="Helvetica,sans-Serif" font-size="10.00">_wether.cpp</text>
</a>
</g>
</g>
<!-- Node5&#45;&gt;Node220 -->
<g id="edge28" class="edge">
<title>Node5&#45;&gt;Node220</title>
<path fill="none" stroke="#63b8ff" d="M2709.44,-209.76C2557.93,-204.91 2244.44,-191.43 2204.87,-162 2168.05,-134.61 2183.84,-108.64 2166.87,-66 2162.1,-54.01 2156.66,-40.42 2152.66,-30.44"/>
<polygon fill="#63b8ff" stroke="#63b8ff" points="2708.89,-213.24 2718.99,-210.06 2709.11,-206.25 2708.89,-213.24"/>
</g>
<!-- Node11 -->
<g id="node25" class="node">
<title>Node11</title>
<g id="a_node25"><a xlink:href="d__com__inf__game_8cpp.html" target="_top" xlink:title=" ">
<polygon fill="white" stroke="#666666" points="2321.87,-162 2213.87,-162 2213.87,-132 2321.87,-132 2321.87,-162"/>
<text text-anchor="start" x="2221.87" y="-150" font-family="Helvetica,sans-Serif" font-size="10.00">src/d/com/d_com_inf</text>
<text text-anchor="middle" x="2267.87" y="-139" font-family="Helvetica,sans-Serif" font-size="10.00">_game.cpp</text>
</a>
</g>
</g>
<!-- Node5&#45;&gt;Node11 -->
<g id="edge24" class="edge">
<title>Node5&#45;&gt;Node11</title>
<path fill="none" stroke="#63b8ff" d="M2709.19,-205.86C2616.94,-198.3 2462.5,-183.71 2330.87,-162 2328,-161.53 2325.06,-161 2322.09,-160.45"/>
<polygon fill="#63b8ff" stroke="#63b8ff" points="2708.65,-209.33 2718.9,-206.65 2709.21,-202.35 2708.65,-209.33"/>
</g>
<!-- Node205 -->
<g id="node26" class="node">
<title>Node205</title>
<g id="a_node26"><a xlink:href="d__name_8cpp.html" target="_top" xlink:title=" ">
<polygon fill="white" stroke="#666666" points="2433.87,-156.5 2339.87,-156.5 2339.87,-137.5 2433.87,-137.5 2433.87,-156.5"/>
<text text-anchor="middle" x="2386.87" y="-144.5" font-family="Helvetica,sans-Serif" font-size="10.00">src/d/d_name.cpp</text>
</a>
</g>
</g>
<!-- Node5&#45;&gt;Node205 -->
<g id="edge25" class="edge">
<title>Node5&#45;&gt;Node205</title>
<path fill="none" stroke="#63b8ff" d="M2709.47,-202.69C2638.69,-194.03 2533.55,-179.8 2442.87,-162 2435.5,-160.55 2427.64,-158.75 2420.21,-156.93"/>
<polygon fill="#63b8ff" stroke="#63b8ff" points="2708.68,-206.12 2719.03,-203.85 2709.52,-199.17 2708.68,-206.12"/>
</g>
<!-- Node215 -->
<g id="node27" class="node">
<title>Node215</title>
<g id="a_node27"><a xlink:href="d__event__manager_8cpp.html" target="_top" xlink:title=" ">
<polygon fill="white" stroke="#666666" points="2555.37,-162 2452.37,-162 2452.37,-132 2555.37,-132 2555.37,-162"/>
<text text-anchor="start" x="2460.37" y="-150" font-family="Helvetica,sans-Serif" font-size="10.00">src/d/event/d_event</text>
<text text-anchor="middle" x="2503.87" y="-139" font-family="Helvetica,sans-Serif" font-size="10.00">_manager.cpp</text>
</a>
</g>
</g>
<!-- Node5&#45;&gt;Node215 -->
<g id="edge26" class="edge">
<title>Node5&#45;&gt;Node215</title>
<path fill="none" stroke="#63b8ff" d="M2738.22,-200.6C2692.18,-190.58 2623.55,-175.54 2563.87,-162 2561.16,-161.38 2558.38,-160.75 2555.57,-160.11"/>
<polygon fill="#63b8ff" stroke="#63b8ff" points="2737.42,-204 2747.94,-202.71 2738.91,-197.16 2737.42,-204"/>
</g>
<!-- Node18 -->
<g id="node28" class="node">
<title>Node18</title>
<g id="a_node28"><a xlink:href="d__msg__flow_8cpp.html" target="_top" xlink:title=" ">
<polygon fill="white" stroke="#666666" points="2706.37,-156.5 2573.37,-156.5 2573.37,-137.5 2706.37,-137.5 2706.37,-156.5"/>
<text text-anchor="middle" x="2639.87" y="-144.5" font-family="Helvetica,sans-Serif" font-size="10.00">src/d/msg/d_msg_flow.cpp</text>
</a>
</g>
</g>
<!-- Node5&#45;&gt;Node18 -->
<g id="edge29" class="edge">
<title>Node5&#45;&gt;Node18</title>
<path fill="none" stroke="#63b8ff" d="M2759.65,-198.77C2730.02,-186.21 2686.3,-167.68 2660.69,-156.82"/>
<polygon fill="#63b8ff" stroke="#63b8ff" points="2757.91,-201.83 2768.48,-202.51 2760.64,-195.39 2757.91,-201.83"/>
</g>
<!-- Node238 -->
<g id="node29" class="node">
<title>Node238</title>
<g id="a_node29"><a xlink:href="d__ovlp__fade_8cpp.html" target="_top" xlink:title=" ">
<polygon fill="white" stroke="#666666" points="2857.37,-156.5 2724.37,-156.5 2724.37,-137.5 2857.37,-137.5 2857.37,-156.5"/>
<text text-anchor="middle" x="2790.87" y="-144.5" font-family="Helvetica,sans-Serif" font-size="10.00">src/d/ovlp/d_ovlp_fade.cpp</text>
</a>
</g>
</g>
<!-- Node5&#45;&gt;Node238 -->
<g id="edge30" class="edge">
<title>Node5&#45;&gt;Node238</title>
<path fill="none" stroke="#63b8ff" d="M2790.87,-191.68C2790.87,-179.94 2790.87,-165.77 2790.87,-156.82"/>
<polygon fill="#63b8ff" stroke="#63b8ff" points="2787.37,-191.59 2790.87,-201.59 2794.37,-191.59 2787.37,-191.59"/>
</g>
<!-- Node85 -->
<g id="node30" class="node">
<title>Node85</title>
<g id="a_node30"><a xlink:href="d__ovlp__fade2_8cpp.html" target="_top" xlink:title=" ">
<polygon fill="white" stroke="#666666" points="3013.87,-156.5 2875.87,-156.5 2875.87,-137.5 3013.87,-137.5 3013.87,-156.5"/>
<text text-anchor="middle" x="2944.87" y="-144.5" font-family="Helvetica,sans-Serif" font-size="10.00">src/d/ovlp/d_ovlp_fade2.cpp</text>
</a>
</g>
</g>
<!-- Node5&#45;&gt;Node85 -->
<g id="edge31" class="edge">
<title>Node5&#45;&gt;Node85</title>
<path fill="none" stroke="#63b8ff" d="M2822.71,-198.77C2852.94,-186.21 2897.52,-167.68 2923.64,-156.82"/>
<polygon fill="#63b8ff" stroke="#63b8ff" points="2821.57,-195.45 2813.68,-202.52 2824.26,-201.91 2821.57,-195.45"/>
</g>
<!-- Node87 -->
<g id="node31" class="node">
<title>Node87</title>
<g id="a_node31"><a xlink:href="d__ovlp__fade3_8cpp.html" target="_top" xlink:title=" ">
<polygon fill="white" stroke="#666666" points="3169.87,-156.5 3031.87,-156.5 3031.87,-137.5 3169.87,-137.5 3169.87,-156.5"/>
<text text-anchor="middle" x="3100.87" y="-144.5" font-family="Helvetica,sans-Serif" font-size="10.00">src/d/ovlp/d_ovlp_fade3.cpp</text>
</a>
</g>
</g>
<!-- Node5&#45;&gt;Node87 -->
<g id="edge32" class="edge">
<title>Node5&#45;&gt;Node87</title>
<path fill="none" stroke="#63b8ff" d="M2845.53,-200.71C2906.04,-188.22 3002.31,-168.35 3057.74,-156.91"/>
<polygon fill="#63b8ff" stroke="#63b8ff" points="2844.87,-197.28 2835.78,-202.73 2846.29,-204.13 2844.87,-197.28"/>
</g>
<!-- Node241 -->
<g id="node32" class="node">
<title>Node241</title>
<g id="a_node32"><a xlink:href="d__s__name_8cpp.html" target="_top" xlink:title=" ">
<polygon fill="white" stroke="#666666" points="3301.37,-156.5 3188.37,-156.5 3188.37,-137.5 3301.37,-137.5 3301.37,-156.5"/>
<text text-anchor="middle" x="3244.87" y="-144.5" font-family="Helvetica,sans-Serif" font-size="10.00">src/d/s/d_s_name.cpp</text>
</a>
</g>
</g>
<!-- Node5&#45;&gt;Node241 -->
<g id="edge33" class="edge">
<title>Node5&#45;&gt;Node241</title>
<path fill="none" stroke="#63b8ff" d="M2850.01,-201.13C2856.7,-200.01 2863.43,-198.95 2869.87,-198 3006.67,-177.93 3042.43,-184.37 3178.87,-162 3187.54,-160.58 3196.8,-158.79 3205.55,-156.97"/>
<polygon fill="#63b8ff" stroke="#63b8ff" points="2849.6,-197.64 2840.33,-202.77 2850.78,-204.55 2849.6,-197.64"/>
</g>
<!-- Node82 -->
<g id="node33" class="node">
<title>Node82</title>
<g id="a_node33"><a xlink:href="d__s__play_8cpp.html" target="_top" xlink:title=" ">
<polygon fill="white" stroke="#666666" points="3425.87,-156.5 3319.87,-156.5 3319.87,-137.5 3425.87,-137.5 3425.87,-156.5"/>
<text text-anchor="middle" x="3372.87" y="-144.5" font-family="Helvetica,sans-Serif" font-size="10.00">src/d/s/d_s_play.cpp</text>
</a>
</g>
</g>
<!-- Node5&#45;&gt;Node82 -->
<g id="edge34" class="edge">
<title>Node5&#45;&gt;Node82</title>
<path fill="none" stroke="#63b8ff" d="M2848.36,-201.16C2855.59,-199.99 2862.89,-198.9 2869.87,-198 3064.46,-172.85 3115.87,-191.35 3309.87,-162 3318.51,-160.69 3327.74,-158.88 3336.39,-157"/>
<polygon fill="#63b8ff" stroke="#63b8ff" points="2847.9,-197.69 2838.62,-202.8 2849.06,-204.6 2847.9,-197.69"/>
</g>
<!-- Node24 -->
<g id="node34" class="node">
<title>Node24</title>
<g id="a_node34"><a xlink:href="d__shop__system_8cpp.html" target="_top" xlink:title=" ">
<polygon fill="white" stroke="#666666" points="3595.87,-156.5 3443.87,-156.5 3443.87,-137.5 3595.87,-137.5 3595.87,-156.5"/>
<text text-anchor="middle" x="3519.87" y="-144.5" font-family="Helvetica,sans-Serif" font-size="10.00">src/d/shop/d_shop_system.cpp</text>
</a>
</g>
</g>
<!-- Node5&#45;&gt;Node24 -->
<g id="edge35" class="edge">
<title>Node5&#45;&gt;Node24</title>
<path fill="none" stroke="#63b8ff" d="M2847.52,-201.18C2855.02,-199.97 2862.62,-198.87 2869.87,-198 3119.7,-168 3184.87,-190.48 3434.87,-162 3446.46,-160.68 3458.88,-158.86 3470.55,-156.98"/>
<polygon fill="#63b8ff" stroke="#63b8ff" points="2847.05,-197.7 2837.77,-202.81 2848.21,-204.61 2847.05,-197.7"/>
</g>
<!-- Node482 -->
<g id="node35" class="node">
<title>Node482</title>
<g id="a_node35"><a xlink:href="m__Do__Reset_8cpp.html" target="_top" xlink:title=" ">
<polygon fill="white" stroke="#666666" points="3749.87,-156.5 3613.87,-156.5 3613.87,-137.5 3749.87,-137.5 3749.87,-156.5"/>
<text text-anchor="middle" x="3681.87" y="-144.5" font-family="Helvetica,sans-Serif" font-size="10.00">src/m_Do/m_Do_Reset.cpp</text>
</a>
</g>
</g>
<!-- Node5&#45;&gt;Node482 -->
<g id="edge36" class="edge">
<title>Node5&#45;&gt;Node482</title>
<path fill="none" stroke="#63b8ff" d="M2846.96,-201.16C2854.63,-199.94 2862.43,-198.84 2869.87,-198 3194.87,-161.39 3279.95,-199.33 3604.87,-162 3615.67,-160.76 3627.24,-158.93 3638.04,-156.99"/>
<polygon fill="#63b8ff" stroke="#63b8ff" points="2846.63,-197.67 2837.34,-202.77 2847.78,-204.57 2846.63,-197.67"/>
</g>
<!-- Node249 -->
<g id="node36" class="node">
<title>Node249</title>
<g id="a_node36"><a xlink:href="m__Do__audio_8cpp.html" target="_top" xlink:title=" ">
<polygon fill="white" stroke="#666666" points="3901.87,-156.5 3767.87,-156.5 3767.87,-137.5 3901.87,-137.5 3901.87,-156.5"/>
<text text-anchor="middle" x="3834.87" y="-144.5" font-family="Helvetica,sans-Serif" font-size="10.00">src/m_Do/m_Do_audio.cpp</text>
</a>
</g>
</g>
<!-- Node5&#45;&gt;Node249 -->
<g id="edge37" class="edge">
<title>Node5&#45;&gt;Node249</title>
<path fill="none" stroke="#63b8ff" d="M2846.66,-201.15C2854.43,-199.92 2862.34,-198.82 2869.87,-198 3263.01,-155.4 3365.88,-205.93 3758.87,-162 3769.67,-160.79 3781.25,-158.95 3792.02,-156.99"/>
<polygon fill="#63b8ff" stroke="#63b8ff" points="2846.21,-197.68 2836.92,-202.77 2847.36,-204.58 2846.21,-197.68"/>
</g>
<!-- Node7 -->
<g id="node7" class="node">
<title>Node7</title>
<g id="a_node7"><a xlink:href="d__attention_8h.html" target="_top" xlink:title=" ">
<polygon fill="#fff0f0" stroke="red" points="1913.87,-90.5 1799.87,-90.5 1799.87,-71.5 1913.87,-71.5 1913.87,-90.5"/>
<text text-anchor="middle" x="1856.87" y="-78.5" font-family="Helvetica,sans-Serif" font-size="10.00">include/d/d_attention.h</text>
</a>
</g>
</g>
<!-- Node6&#45;&gt;Node7 -->
<g id="edge6" class="edge">
<title>Node6&#45;&gt;Node7</title>
<path fill="none" stroke="#63b8ff" d="M1185.53,-143.77C1312.12,-139.34 1572.6,-127.01 1790.87,-96 1800.03,-94.7 1809.83,-92.87 1818.99,-90.96"/>
<polygon fill="#63b8ff" stroke="#63b8ff" points="1185.46,-140.27 1175.58,-144.11 1185.7,-147.27 1185.46,-140.27"/>
</g>
<!-- Node256 -->
<g id="node8" class="node">
<title>Node256</title>
<g id="a_node8"><a xlink:href="d__drawlist_8h.html" target="_top" xlink:title=" ">
<polygon fill="#fff0f0" stroke="red" points="2041.87,-90.5 1931.87,-90.5 1931.87,-71.5 2041.87,-71.5 2041.87,-90.5"/>
<text text-anchor="middle" x="1986.87" y="-78.5" font-family="Helvetica,sans-Serif" font-size="10.00">include/d/d_drawlist.h</text>
</a>
</g>
</g>
<!-- Node6&#45;&gt;Node256 -->
<g id="edge7" class="edge">
<title>Node6&#45;&gt;Node256</title>
<path fill="none" stroke="#63b8ff" d="M1185.74,-145.21C1330.62,-142.86 1653.73,-133.48 1922.87,-96 1931.88,-94.75 1941.51,-92.91 1950.49,-90.97"/>
<polygon fill="#63b8ff" stroke="#63b8ff" points="1185.82,-141.71 1175.88,-145.37 1185.93,-148.71 1185.82,-141.71"/>
</g>
<!-- Node305 -->
<g id="node9" class="node">
<title>Node305</title>
<g id="a_node9"><a xlink:href="d__ky__thunder_8h.html" target="_top" xlink:title=" ">
<polygon fill="#fff0f0" stroke="red" points="139.87,-90.5 15.87,-90.5 15.87,-71.5 139.87,-71.5 139.87,-90.5"/>
<text text-anchor="middle" x="77.87" y="-78.5" font-family="Helvetica,sans-Serif" font-size="10.00">include/d/d_ky_thunder.h</text>
</a>
</g>
</g>
<!-- Node6&#45;&gt;Node305 -->
<g id="edge8" class="edge">
<title>Node6&#45;&gt;Node305</title>
<path fill="none" stroke="#63b8ff" d="M1032.05,-145.71C868.82,-144.28 475.59,-136.51 148.87,-96 138.9,-94.76 128.22,-92.93 118.26,-91"/>
<polygon fill="#63b8ff" stroke="#63b8ff" points="1031.86,-149.21 1041.89,-145.79 1031.92,-142.21 1031.86,-149.21"/>
</g>
<!-- Node306 -->
<g id="node10" class="node">
<title>Node306</title>
<g id="a_node10"><a xlink:href="d__resorce_8h.html" target="_top" xlink:title=" ">
<polygon fill="#fff0f0" stroke="red" points="267.37,-90.5 158.37,-90.5 158.37,-71.5 267.37,-71.5 267.37,-90.5"/>
<text text-anchor="middle" x="212.87" y="-78.5" font-family="Helvetica,sans-Serif" font-size="10.00">include/d/d_resorce.h</text>
</a>
</g>
</g>
<!-- Node6&#45;&gt;Node306 -->
<g id="edge9" class="edge">
<title>Node6&#45;&gt;Node306</title>
<path fill="none" stroke="#63b8ff" d="M1032.43,-145.37C885.4,-143.27 553.3,-134.3 276.87,-96 267.86,-94.75 258.23,-92.92 249.25,-90.98"/>
<polygon fill="#63b8ff" stroke="#63b8ff" points="1031.98,-148.86 1042.03,-145.5 1032.07,-141.86 1031.98,-148.86"/>
</g>
<!-- Node307 -->
<g id="node11" class="node">
<title>Node307</title>
<g id="a_node11"><a xlink:href="d__kankyo_8h.html" target="_top" xlink:title=" ">
<polygon fill="#fff0f0" stroke="red" points="2157.87,-96 2059.87,-96 2059.87,-66 2157.87,-66 2157.87,-96"/>
<text text-anchor="start" x="2067.87" y="-84" font-family="Helvetica,sans-Serif" font-size="10.00">include/d/kankyo/d</text>
<text text-anchor="middle" x="2108.87" y="-73" font-family="Helvetica,sans-Serif" font-size="10.00">_kankyo.h</text>
</a>
</g>
</g>
<!-- Node6&#45;&gt;Node307 -->
<g id="edge10" class="edge">
<title>Node6&#45;&gt;Node307</title>
<path fill="none" stroke="#63b8ff" d="M1185.29,-146.68C1346.28,-147.08 1731.79,-142.57 2050.87,-96 2053.74,-95.58 2056.68,-95.09 2059.63,-94.54"/>
<polygon fill="#63b8ff" stroke="#63b8ff" points="1185.61,-143.18 1175.6,-146.65 1185.59,-150.18 1185.61,-143.18"/>
</g>
<!-- Node260 -->
<g id="node14" class="node">
<title>Node260</title>
<g id="a_node14"><a xlink:href="d__a__do_8h.html" target="_top" xlink:title=" ">
<polygon fill="white" stroke="#666666" points="381.87,-96 285.87,-96 285.87,-66 381.87,-66 381.87,-96"/>
<text text-anchor="start" x="293.87" y="-84" font-family="Helvetica,sans-Serif" font-size="10.00">include/rel/d/a/d_a</text>
<text text-anchor="middle" x="333.87" y="-73" font-family="Helvetica,sans-Serif" font-size="10.00">_do/d_a_do.h</text>
</a>
</g>
</g>
<!-- Node6&#45;&gt;Node260 -->
<g id="edge13" class="edge">
<title>Node6&#45;&gt;Node260</title>
<path fill="none" stroke="#63b8ff" d="M1032.46,-144.97C900.73,-142.23 622.69,-132.27 390.87,-96 388.05,-95.56 385.17,-95.05 382.27,-94.48"/>
<polygon fill="#63b8ff" stroke="#63b8ff" points="1032.02,-148.46 1042.09,-145.16 1032.16,-141.46 1032.02,-148.46"/>
</g>
<!-- Node452 -->
<g id="node15" class="node">
<title>Node452</title>
<g id="a_node15"><a xlink:href="d__a__mg__fshop_8h.html" target="_top" xlink:title=" ">
<polygon fill="white" stroke="#666666" points="539.37,-96 400.37,-96 400.37,-66 539.37,-66 539.37,-96"/>
<text text-anchor="start" x="408.37" y="-84" font-family="Helvetica,sans-Serif" font-size="10.00">include/rel/d/a/d_a</text>
<text text-anchor="middle" x="469.87" y="-73" font-family="Helvetica,sans-Serif" font-size="10.00">_mg_fshop/d_a_mg_fshop.h</text>
</a>
</g>
</g>
<!-- Node6&#45;&gt;Node452 -->
<g id="edge14" class="edge">
<title>Node6&#45;&gt;Node452</title>
<path fill="none" stroke="#63b8ff" d="M1032.14,-141.26C924.04,-134.09 720.88,-118.88 548.87,-96 545.83,-95.6 542.74,-95.16 539.61,-94.69"/>
<polygon fill="#63b8ff" stroke="#63b8ff" points="1031.85,-144.74 1042.06,-141.91 1032.31,-137.76 1031.85,-144.74"/>
</g>
<!-- Node372 -->
<g id="node16" class="node">
<title>Node372</title>
<g id="a_node16"><a xlink:href="d__a__myna_8h.html" target="_top" xlink:title=" ">
<polygon fill="white" stroke="#666666" points="657.87,-96 557.87,-96 557.87,-66 657.87,-66 657.87,-96"/>
<text text-anchor="start" x="565.87" y="-84" font-family="Helvetica,sans-Serif" font-size="10.00">include/rel/d/a/d_a</text>
<text text-anchor="middle" x="607.87" y="-73" font-family="Helvetica,sans-Serif" font-size="10.00">_myna/d_a_myna.h</text>
</a>
</g>
</g>
<!-- Node6&#45;&gt;Node372 -->
<g id="edge15" class="edge">
<title>Node6&#45;&gt;Node372</title>
<path fill="none" stroke="#63b8ff" d="M1032.47,-140.17C944.04,-132.77 794.23,-118.23 666.87,-96 664.07,-95.51 661.21,-94.97 658.32,-94.39"/>
<polygon fill="#63b8ff" stroke="#63b8ff" points="1031.97,-143.64 1042.23,-140.98 1032.55,-136.66 1031.97,-143.64"/>
</g>
<!-- Node473 -->
<g id="node17" class="node">
<title>Node473</title>
<g id="a_node17"><a xlink:href="DynamicLink_8cpp.html" target="_top" xlink:title=" ">
<polygon fill="white" stroke="#666666" points="783.37,-90.5 676.37,-90.5 676.37,-71.5 783.37,-71.5 783.37,-90.5"/>
<text text-anchor="middle" x="729.87" y="-78.5" font-family="Helvetica,sans-Serif" font-size="10.00">src/DynamicLink.cpp</text>
</a>
</g>
</g>
<!-- Node6&#45;&gt;Node473 -->
<g id="edge16" class="edge">
<title>Node6&#45;&gt;Node473</title>
<path fill="none" stroke="#63b8ff" d="M1032.74,-135.42C968.37,-126.14 873.82,-111.7 791.87,-96 784.07,-94.51 775.75,-92.74 767.82,-90.98"/>
<polygon fill="#63b8ff" stroke="#63b8ff" points="1032.1,-138.87 1042.5,-136.82 1033.1,-131.94 1032.1,-138.87"/>
</g>
<!-- Node183 -->
<g id="node18" class="node">
<title>Node183</title>
<g id="a_node18"><a xlink:href="c__dylink_8cpp.html" target="_top" xlink:title=" ">
<polygon fill="white" stroke="#666666" points="896.37,-90.5 801.37,-90.5 801.37,-71.5 896.37,-71.5 896.37,-90.5"/>
<text text-anchor="middle" x="848.87" y="-78.5" font-family="Helvetica,sans-Serif" font-size="10.00">src/c/c_dylink.cpp</text>
</a>
</g>
</g>
<!-- Node6&#45;&gt;Node183 -->
<g id="edge17" class="edge">
<title>Node6&#45;&gt;Node183</title>
<path fill="none" stroke="#63b8ff" d="M1061.43,-134.32C1010.61,-121.81 931.06,-102.23 885.05,-90.91"/>
<polygon fill="#63b8ff" stroke="#63b8ff" points="1060.43,-137.68 1070.98,-136.67 1062.1,-130.88 1060.43,-137.68"/>
</g>
<!-- Node474 -->
<g id="node19" class="node">
<title>Node474</title>
<g id="a_node19"><a xlink:href="d__meter__HIO_8cpp.html" target="_top" xlink:title=" ">
<polygon fill="white" stroke="#666666" points="1018.87,-96 914.87,-96 914.87,-66 1018.87,-66 1018.87,-96"/>
<text text-anchor="start" x="922.87" y="-84" font-family="Helvetica,sans-Serif" font-size="10.00">src/d/meter/d_meter</text>
<text text-anchor="middle" x="966.87" y="-73" font-family="Helvetica,sans-Serif" font-size="10.00">_HIO.cpp</text>
</a>
</g>
</g>
<!-- Node6&#45;&gt;Node474 -->
<g id="edge18" class="edge">
<title>Node6&#45;&gt;Node474</title>
<path fill="none" stroke="#63b8ff" d="M1078.75,-132.42C1055.33,-121.87 1022.91,-107.26 998.99,-96.48"/>
<polygon fill="#63b8ff" stroke="#63b8ff" points="1077.19,-135.56 1087.75,-136.48 1080.07,-129.18 1077.19,-135.56"/>
</g>
<!-- Node475 -->
<g id="node20" class="node">
<title>Node475</title>
<g id="a_node20"><a xlink:href="d__pane__class_8cpp.html" target="_top" xlink:title=" ">
<polygon fill="white" stroke="#666666" points="1180.37,-90.5 1037.37,-90.5 1037.37,-71.5 1180.37,-71.5 1180.37,-90.5"/>
<text text-anchor="middle" x="1108.87" y="-78.5" font-family="Helvetica,sans-Serif" font-size="10.00">src/d/pane/d_pane_class.cpp</text>
</a>
</g>
</g>
<!-- Node6&#45;&gt;Node475 -->
<g id="edge19" class="edge">
<title>Node6&#45;&gt;Node475</title>
<path fill="none" stroke="#63b8ff" d="M1108.87,-125.68C1108.87,-113.94 1108.87,-99.77 1108.87,-90.82"/>
<polygon fill="#63b8ff" stroke="#63b8ff" points="1105.37,-125.59 1108.87,-135.59 1112.37,-125.59 1105.37,-125.59"/>
</g>
<!-- Node476 -->
<g id="node21" class="node">
<title>Node476</title>
<g id="a_node21"><a xlink:href="d__pane__class__alpha_8cpp.html" target="_top" xlink:title=" ">
<polygon fill="white" stroke="#666666" points="1323.37,-96 1198.37,-96 1198.37,-66 1323.37,-66 1323.37,-96"/>
<text text-anchor="start" x="1206.37" y="-84" font-family="Helvetica,sans-Serif" font-size="10.00">src/d/pane/d_pane_class</text>
<text text-anchor="middle" x="1260.87" y="-73" font-family="Helvetica,sans-Serif" font-size="10.00">_alpha.cpp</text>
</a>
</g>
</g>
<!-- Node6&#45;&gt;Node476 -->
<g id="edge20" class="edge">
<title>Node6&#45;&gt;Node476</title>
<path fill="none" stroke="#63b8ff" d="M1140.44,-132.71C1165.56,-122.13 1200.66,-107.35 1226.49,-96.48"/>
<polygon fill="#63b8ff" stroke="#63b8ff" points="1139.26,-129.41 1131.4,-136.51 1141.98,-135.86 1139.26,-129.41"/>
</g>
<!-- Node175 -->
<g id="node22" class="node">
<title>Node175</title>
<g id="a_node22"><a xlink:href="f__op__actor__mng_8cpp.html" target="_top" xlink:title=" ">
<polygon fill="white" stroke="#666666" points="1442.37,-96 1341.37,-96 1341.37,-66 1442.37,-66 1442.37,-96"/>
<text text-anchor="start" x="1349.37" y="-84" font-family="Helvetica,sans-Serif" font-size="10.00">src/f_op/f_op_actor</text>
<text text-anchor="middle" x="1391.87" y="-73" font-family="Helvetica,sans-Serif" font-size="10.00">_mng.cpp</text>
</a>
</g>
</g>
<!-- Node6&#45;&gt;Node175 -->
<g id="edge21" class="edge">
<title>Node6&#45;&gt;Node175</title>
<path fill="none" stroke="#63b8ff" d="M1160.17,-134.63C1205.39,-124.58 1273.04,-109.46 1331.87,-96 1334.9,-95.31 1338,-94.59 1341.14,-93.87"/>
<polygon fill="#63b8ff" stroke="#63b8ff" points="1159.66,-131.16 1150.66,-136.74 1161.18,-137.99 1159.66,-131.16"/>
</g>
<!-- Node477 -->
<g id="node23" class="node">
<title>Node477</title>
<g id="a_node23"><a xlink:href="m__Do__DVDError_8cpp.html" target="_top" xlink:title=" ">
<polygon fill="white" stroke="#666666" points="1611.37,-90.5 1460.37,-90.5 1460.37,-71.5 1611.37,-71.5 1611.37,-90.5"/>
<text text-anchor="middle" x="1535.87" y="-78.5" font-family="Helvetica,sans-Serif" font-size="10.00">src/m_Do/m_Do_DVDError.cpp</text>
</a>
</g>
</g>
<!-- Node6&#45;&gt;Node477 -->
<g id="edge22" class="edge">
<title>Node6&#45;&gt;Node477</title>
<path fill="none" stroke="#63b8ff" d="M1183.82,-135.44C1253.14,-125.58 1359.04,-110.27 1450.87,-96 1461.07,-94.41 1471.94,-92.67 1482.39,-90.96"/>
<polygon fill="#63b8ff" stroke="#63b8ff" points="1183.49,-131.95 1174.08,-136.82 1184.48,-138.88 1183.49,-131.95"/>
</g>
<!-- Node478 -->
<g id="node24" class="node">
<title>Node478</title>
<g id="a_node24"><a xlink:href="m__Do__MemCard_8cpp.html" target="_top" xlink:title=" ">
<polygon fill="white" stroke="#666666" points="1781.87,-90.5 1629.87,-90.5 1629.87,-71.5 1781.87,-71.5 1781.87,-90.5"/>
<text text-anchor="middle" x="1705.87" y="-78.5" font-family="Helvetica,sans-Serif" font-size="10.00">src/m_Do/m_Do_MemCard.cpp</text>
</a>
</g>
</g>
<!-- Node6&#45;&gt;Node478 -->
<g id="edge23" class="edge">
<title>Node6&#45;&gt;Node478</title>
<path fill="none" stroke="#63b8ff" d="M1185.57,-140.03C1285.68,-131.89 1466.24,-116 1619.87,-96 1630.97,-94.55 1642.84,-92.78 1654.11,-90.98"/>
<polygon fill="#63b8ff" stroke="#63b8ff" points="1185.56,-136.52 1175.87,-140.82 1186.12,-143.5 1185.56,-136.52"/>
</g>
<!-- Node307&#45;&gt;Node57 -->
<g id="edge11" class="edge">
<title>Node307&#45;&gt;Node57</title>
<path fill="none" stroke="#63b8ff" d="M2048.29,-65.88C1841.36,-38.41 1277.28,-22.45 1082.22,-17.59"/>
<polygon fill="#63b8ff" stroke="#63b8ff" points="2047.75,-69.33 2058.13,-67.24 2048.71,-62.4 2047.75,-69.33"/>
</g>
<!-- Node307&#45;&gt;Node220 -->
<g id="edge12" class="edge">
<title>Node307&#45;&gt;Node220</title>
<path fill="none" stroke="#63b8ff" d="M2123.06,-56.11C2128.24,-47.38 2133.94,-37.78 2138.46,-30.16"/>
<polygon fill="#63b8ff" stroke="#63b8ff" points="2120.17,-54.11 2118.08,-64.49 2126.19,-57.68 2120.17,-54.11"/>
</g>
</g>
</svg>
        <g id="navigator" transform="translate(0 0)" fill="#404254">
                <rect fill="#f2f5e9" fill-opacity="0.5" stroke="#606060" stroke-width=".5" x="0" y="0" width="60" height="60"/>
                <use id="zoomplus" xlink:href="#zoomPlus" x="17" y="9" onmousedown="handleZoom(evt,'in')"/>
                <use id="zoomminus" xlink:href="#zoomMin" x="42" y="9" onmousedown="handleZoom(evt,'out')"/>
                <use id="reset" xlink:href="#resetDef" x="30" y="36" onmousedown="handleReset()"/>
                <g id="arrowUp" xlink:href="#dirArrow" transform="translate(30 24)" onmousedown="handlePan(0,-1)">
                  <use xlink:href="#rim" fill="#404040">
                        <set attributeName="fill" to="#808080" begin="arrowUp.mouseover" end="arrowUp.mouseout"/>
                  </use>
                  <path fill="none" stroke="white" stroke-width="1.5" d="M0,-3.0v7 M-2.5,-0.5L0,-3.0L2.5,-0.5"/>
                </g>
                <g id="arrowRight" xlink:href="#dirArrow" transform="rotate(90) translate(36 -43)" onmousedown="handlePan(1,0)">
                  <use xlink:href="#rim" fill="#404040">
                        <set attributeName="fill" to="#808080" begin="arrowRight.mouseover" end="arrowRight.mouseout"/>
                  </use>
                  <path fill="none" stroke="white" stroke-width="1.5" d="M0,-3.0v7 M-2.5,-0.5L0,-3.0L2.5,-0.5"/>
                </g>
                <g id="arrowDown" xlink:href="#dirArrow" transform="rotate(180) translate(-30 -48)" onmousedown="handlePan(0,1)">
                  <use xlink:href="#rim" fill="#404040">
                        <set attributeName="fill" to="#808080" begin="arrowDown.mouseover" end="arrowDown.mouseout"/>
                  </use>
                  <path fill="none" stroke="white" stroke-width="1.5" d="M0,-3.0v7 M-2.5,-0.5L0,-3.0L2.5,-0.5"/>
                </g>
                <g id="arrowLeft" xlink:href="#dirArrow" transform="rotate(270) translate(-36 17)" onmousedown="handlePan(-1,0)">
                  <use xlink:href="#rim" fill="#404040">
                        <set attributeName="fill" to="#808080" begin="arrowLeft.mouseover" end="arrowLeft.mouseout"/>
                  </use>
                  <path fill="none" stroke="white" stroke-width="1.5" d="M0,-3.0v7 M-2.5,-0.5L0,-3.0L2.5,-0.5"/>
                </g>
        </g>
        <svg viewBox="0 0 15 15" width="100%" height="30px" preserveAspectRatio="xMaxYMin meet">
         <g id="arrow_out" transform="scale(0.3 0.3)">
          <a xlink:href="JAISe_8h__dep__incl_org.svg" target="_base">
           <rect id="button" ry="5" rx="5" y="6" x="6" height="38" width="38"
                fill="#f2f5e9" fill-opacity="0.5" stroke="#606060" stroke-width="1.0"/>
           <path id="arrow"
             d="M 11.500037,31.436501 C 11.940474,20.09759 22.043105,11.32322 32.158766,21.979434 L 37.068811,17.246167 C 37.068811,17.246167 37.088388,32 37.088388,32 L 22.160133,31.978069 C 22.160133,31.978069 26.997745,27.140456 26.997745,27.140456 C 18.528582,18.264221 13.291696,25.230495 11.500037,31.436501 z"
             style="fill:#404040;"/>
          </a>
         </g>
        </svg>
</svg>
