<?xml version="1.0" encoding="UTF-8" standalone="no"?>
<!DOCTYPE svg PUBLIC "-//W3C//DTD SVG 1.1//EN"
 "http://www.w3.org/Graphics/SVG/1.1/DTD/svg11.dtd">
<!-- Generated by graphviz version 7.0.5 (20221223.1930)
 -->
<!-- Title: include/JSystem/JAudio2/JAISeMgr.h Pages: 1 -->
<svg width="3672pt" height="478pt"
 viewBox="0.00 0.00 3672.12 478.00" xmlns="http://www.w3.org/2000/svg" xmlns:xlink="http://www.w3.org/1999/xlink">
<g id="graph0" class="graph" transform="scale(1 1) rotate(0) translate(4 474)">
<title>include/JSystem/JAudio2/JAISeMgr.h</title>
<!-- Node1 -->
<g id="node1" class="node">
<title>Node1</title>
<g id="a_node1"><a xlink:title=" ">
<polygon fill="#999999" stroke="#666666" points="3462.12,-470 3335.12,-470 3335.12,-440 3462.12,-440 3462.12,-470"/>
<text text-anchor="start" x="3343.12" y="-458" font-family="Helvetica,sans-Serif" font-size="10.00">include/JSystem/JAudio2</text>
<text text-anchor="middle" x="3398.62" y="-447" font-family="Helvetica,sans-Serif" font-size="10.00">/JAISeMgr.h</text>
</a>
</g>
</g>
<!-- Node2 -->
<g id="node2" class="node">
<title>Node2</title>
<g id="a_node2"><a xlink:href="Z2SoundMgr_8h.html" target="_top" xlink:title=" ">
<polygon fill="white" stroke="#666666" points="3260.62,-404 3160.62,-404 3160.62,-374 3260.62,-374 3260.62,-404"/>
<text text-anchor="start" x="3168.62" y="-392" font-family="Helvetica,sans-Serif" font-size="10.00">include/Z2AudioLib</text>
<text text-anchor="middle" x="3210.62" y="-381" font-family="Helvetica,sans-Serif" font-size="10.00">/Z2SoundMgr.h</text>
</a>
</g>
</g>
<!-- Node1&#45;&gt;Node2 -->
<g id="edge1" class="edge">
<title>Node1&#45;&gt;Node2</title>
<path fill="none" stroke="#63b8ff" d="M3345.56,-435.94C3316.27,-425.97 3280.39,-413.75 3253,-404.43"/>
<polygon fill="#63b8ff" stroke="#63b8ff" points="3344.4,-439.24 3355,-439.15 3346.66,-432.61 3344.4,-439.24"/>
</g>
<!-- Node472 -->
<g id="node48" class="node">
<title>Node472</title>
<g id="a_node48"><a xlink:href="JAISe_8cpp.html" target="_top" xlink:title=" ">
<polygon fill="white" stroke="#666666" points="3390.12,-404 3279.12,-404 3279.12,-374 3390.12,-374 3390.12,-404"/>
<text text-anchor="start" x="3287.12" y="-392" font-family="Helvetica,sans-Serif" font-size="10.00">libs/JSystem/JAudio2</text>
<text text-anchor="middle" x="3334.62" y="-381" font-family="Helvetica,sans-Serif" font-size="10.00">/JAISe.cpp</text>
</a>
</g>
</g>
<!-- Node1&#45;&gt;Node472 -->
<g id="edge62" class="edge">
<title>Node1&#45;&gt;Node472</title>
<path fill="none" stroke="#63b8ff" d="M3376.43,-431.81C3367.26,-422.64 3356.9,-412.28 3348.78,-404.16"/>
<polygon fill="#63b8ff" stroke="#63b8ff" points="3373.8,-434.13 3383.35,-438.73 3378.75,-429.18 3373.8,-434.13"/>
</g>
<!-- Node473 -->
<g id="node49" class="node">
<title>Node473</title>
<g id="a_node49"><a xlink:href="JAISeMgr_8cpp.html" target="_top" xlink:title=" ">
<polygon fill="white" stroke="#666666" points="3519.12,-404 3408.12,-404 3408.12,-374 3519.12,-374 3519.12,-404"/>
<text text-anchor="start" x="3416.12" y="-392" font-family="Helvetica,sans-Serif" font-size="10.00">libs/JSystem/JAudio2</text>
<text text-anchor="middle" x="3463.62" y="-381" font-family="Helvetica,sans-Serif" font-size="10.00">/JAISeMgr.cpp</text>
</a>
</g>
</g>
<!-- Node1&#45;&gt;Node473 -->
<g id="edge63" class="edge">
<title>Node1&#45;&gt;Node473</title>
<path fill="none" stroke="#63b8ff" d="M3421.16,-431.81C3430.47,-422.64 3441,-412.28 3449.24,-404.16"/>
<polygon fill="#63b8ff" stroke="#63b8ff" points="3418.79,-429.22 3414.12,-438.73 3423.71,-434.21 3418.79,-429.22"/>
</g>
<!-- Node474 -->
<g id="node50" class="node">
<title>Node474</title>
<g id="a_node50"><a xlink:href="JAUAudioArcLoader_8cpp.html" target="_top" xlink:title=" ">
<polygon fill="white" stroke="#666666" points="3664.12,-404 3537.12,-404 3537.12,-374 3664.12,-374 3664.12,-404"/>
<text text-anchor="start" x="3545.12" y="-392" font-family="Helvetica,sans-Serif" font-size="10.00">libs/JSystem/JAudio2</text>
<text text-anchor="middle" x="3600.62" y="-381" font-family="Helvetica,sans-Serif" font-size="10.00">/JAUAudioArcLoader.cpp</text>
</a>
</g>
</g>
<!-- Node1&#45;&gt;Node474 -->
<g id="edge64" class="edge">
<title>Node1&#45;&gt;Node474</title>
<path fill="none" stroke="#63b8ff" d="M3455.06,-436.12C3486.67,-426.1 3525.57,-413.78 3555.2,-404.39"/>
<polygon fill="#63b8ff" stroke="#63b8ff" points="3454.12,-432.74 3445.65,-439.1 3456.24,-439.42 3454.12,-432.74"/>
</g>
<!-- Node3 -->
<g id="node3" class="node">
<title>Node3</title>
<g id="a_node3"><a xlink:href="Z2AudioMgr_8h.html" target="_top" xlink:title=" ">
<polygon fill="white" stroke="#666666" points="2932.62,-338 2832.62,-338 2832.62,-308 2932.62,-308 2932.62,-338"/>
<text text-anchor="start" x="2840.62" y="-326" font-family="Helvetica,sans-Serif" font-size="10.00">include/Z2AudioLib</text>
<text text-anchor="middle" x="2882.62" y="-315" font-family="Helvetica,sans-Serif" font-size="10.00">/Z2AudioMgr.h</text>
</a>
</g>
</g>
<!-- Node2&#45;&gt;Node3 -->
<g id="edge2" class="edge">
<title>Node2&#45;&gt;Node3</title>
<path fill="none" stroke="#63b8ff" d="M3149.17,-377.47C3094.54,-367.89 3012.56,-353 2941.62,-338 2938.84,-337.41 2935.99,-336.79 2933.11,-336.15"/>
<polygon fill="#63b8ff" stroke="#63b8ff" points="3148.46,-380.89 3158.91,-379.17 3149.66,-374 3148.46,-380.89"/>
</g>
<!-- Node468 -->
<g id="node44" class="node">
<title>Node468</title>
<g id="a_node44"><a xlink:href="Z2SceneMgr_8cpp.html" target="_top" xlink:title=" ">
<polygon fill="white" stroke="#666666" points="3112.12,-332.5 2951.12,-332.5 2951.12,-313.5 3112.12,-313.5 3112.12,-332.5"/>
<text text-anchor="middle" x="3031.62" y="-320.5" font-family="Helvetica,sans-Serif" font-size="10.00">libs/Z2AudioLib/Z2SceneMgr.cpp</text>
</a>
</g>
</g>
<!-- Node2&#45;&gt;Node468 -->
<g id="edge58" class="edge">
<title>Node2&#45;&gt;Node468</title>
<path fill="none" stroke="#63b8ff" d="M3159.86,-369.85C3126.16,-357.8 3083.38,-342.51 3056.75,-332.99"/>
<polygon fill="#63b8ff" stroke="#63b8ff" points="3158.43,-373.06 3169.02,-373.13 3160.79,-366.47 3158.43,-373.06"/>
</g>
<!-- Node469 -->
<g id="node45" class="node">
<title>Node469</title>
<g id="a_node45"><a xlink:href="Z2SoundMgr_8cpp.html" target="_top" xlink:title=" ">
<polygon fill="white" stroke="#666666" points="3291.12,-332.5 3130.12,-332.5 3130.12,-313.5 3291.12,-313.5 3291.12,-332.5"/>
<text text-anchor="middle" x="3210.62" y="-320.5" font-family="Helvetica,sans-Serif" font-size="10.00">libs/Z2AudioLib/Z2SoundMgr.cpp</text>
</a>
</g>
</g>
<!-- Node2&#45;&gt;Node469 -->
<g id="edge59" class="edge">
<title>Node2&#45;&gt;Node469</title>
<path fill="none" stroke="#63b8ff" d="M3210.62,-362.59C3210.62,-352.06 3210.62,-340.53 3210.62,-332.84"/>
<polygon fill="#63b8ff" stroke="#63b8ff" points="3207.12,-362.28 3210.62,-372.28 3214.12,-362.28 3207.12,-362.28"/>
</g>
<!-- Node470 -->
<g id="node46" class="node">
<title>Node470</title>
<g id="a_node46"><a xlink:href="Z2SoundObject_8cpp.html" target="_top" xlink:title=" ">
<polygon fill="white" stroke="#666666" points="3482.12,-332.5 3309.12,-332.5 3309.12,-313.5 3482.12,-313.5 3482.12,-332.5"/>
<text text-anchor="middle" x="3395.62" y="-320.5" font-family="Helvetica,sans-Serif" font-size="10.00">libs/Z2AudioLib/Z2SoundObject.cpp</text>
</a>
</g>
</g>
<!-- Node2&#45;&gt;Node470 -->
<g id="edge60" class="edge">
<title>Node2&#45;&gt;Node470</title>
<path fill="none" stroke="#63b8ff" d="M3262.63,-370.01C3297.53,-357.93 3342,-342.55 3369.65,-332.99"/>
<polygon fill="#63b8ff" stroke="#63b8ff" points="3261.87,-366.57 3253.57,-373.14 3264.16,-373.18 3261.87,-366.57"/>
</g>
<!-- Node471 -->
<g id="node47" class="node">
<title>Node471</title>
<g id="a_node47"><a xlink:href="Z2WolfHowlMgr_8cpp.html" target="_top" xlink:title=" ">
<polygon fill="white" stroke="#666666" points="3640.62,-338 3500.62,-338 3500.62,-308 3640.62,-308 3640.62,-338"/>
<text text-anchor="start" x="3508.62" y="-326" font-family="Helvetica,sans-Serif" font-size="10.00">libs/Z2AudioLib/Z2WolfHowl</text>
<text text-anchor="middle" x="3570.62" y="-315" font-family="Helvetica,sans-Serif" font-size="10.00">Mgr.cpp</text>
</a>
</g>
</g>
<!-- Node2&#45;&gt;Node471 -->
<g id="edge61" class="edge">
<title>Node2&#45;&gt;Node471</title>
<path fill="none" stroke="#63b8ff" d="M3272,-373.82C3370.11,-354.66 3396.96,-354.1 3491.62,-338 3494.5,-337.51 3497.45,-337.01 3500.42,-336.49"/>
<polygon fill="#63b8ff" stroke="#63b8ff" points="3271.6,-370.33 3262.47,-375.7 3272.95,-377.2 3271.6,-370.33"/>
</g>
<!-- Node4 -->
<g id="node4" class="node">
<title>Node4</title>
<g id="a_node4"><a xlink:href="m__Do__audio_8h.html" target="_top" xlink:title=" ">
<polygon fill="white" stroke="#666666" points="2869.62,-272 2729.62,-272 2729.62,-253 2869.62,-253 2869.62,-272"/>
<text text-anchor="middle" x="2799.62" y="-260" font-family="Helvetica,sans-Serif" font-size="10.00">include/m_Do/m_Do_audio.h</text>
</a>
</g>
</g>
<!-- Node3&#45;&gt;Node4 -->
<g id="edge3" class="edge">
<title>Node3&#45;&gt;Node4</title>
<path fill="none" stroke="#63b8ff" d="M2852.76,-300.95C2838.68,-291.03 2822.67,-279.74 2811.93,-272.18"/>
<polygon fill="#63b8ff" stroke="#63b8ff" points="2850.68,-303.77 2860.87,-306.67 2854.71,-298.05 2850.68,-303.77"/>
</g>
<!-- Node467 -->
<g id="node43" class="node">
<title>Node467</title>
<g id="a_node43"><a xlink:href="Z2AudioMgr_8cpp.html" target="_top" xlink:title=" ">
<polygon fill="white" stroke="#666666" points="3045.62,-272 2887.62,-272 2887.62,-253 3045.62,-253 3045.62,-272"/>
<text text-anchor="middle" x="2966.62" y="-260" font-family="Helvetica,sans-Serif" font-size="10.00">libs/Z2AudioLib/Z2AudioMgr.cpp</text>
</a>
</g>
</g>
<!-- Node3&#45;&gt;Node467 -->
<g id="edge57" class="edge">
<title>Node3&#45;&gt;Node467</title>
<path fill="none" stroke="#63b8ff" d="M2912.43,-301.24C2926.77,-291.25 2943.19,-279.82 2954.16,-272.18"/>
<polygon fill="#63b8ff" stroke="#63b8ff" points="2910.83,-298.09 2904.63,-306.67 2914.83,-303.83 2910.83,-298.09"/>
</g>
<!-- Node5 -->
<g id="node5" class="node">
<title>Node5</title>
<g id="a_node5"><a xlink:href="m__Do__ext_8h.html" target="_top" xlink:title=" ">
<polygon fill="white" stroke="#666666" points="1749.62,-217 1619.62,-217 1619.62,-198 1749.62,-198 1749.62,-217"/>
<text text-anchor="middle" x="1684.62" y="-205" font-family="Helvetica,sans-Serif" font-size="10.00">include/m_Do/m_Do_ext.h</text>
</a>
</g>
</g>
<!-- Node4&#45;&gt;Node5 -->
<g id="edge4" class="edge">
<title>Node4&#45;&gt;Node5</title>
<path fill="none" stroke="#63b8ff" d="M2718.13,-257.63C2506.49,-247.57 1942.5,-220.76 1750.04,-211.61"/>
<polygon fill="#63b8ff" stroke="#63b8ff" points="2717.78,-261.11 2727.94,-258.09 2718.12,-254.12 2717.78,-261.11"/>
</g>
<!-- Node10 -->
<g id="node8" class="node">
<title>Node10</title>
<g id="a_node8"><a xlink:href="d__com__inf__game_8cpp.html" target="_top" xlink:title=" ">
<polygon fill="white" stroke="#666666" points="2529.62,-30 2421.62,-30 2421.62,0 2529.62,0 2529.62,-30"/>
<text text-anchor="start" x="2429.62" y="-18" font-family="Helvetica,sans-Serif" font-size="10.00">src/d/com/d_com_inf</text>
<text text-anchor="middle" x="2475.62" y="-7" font-family="Helvetica,sans-Serif" font-size="10.00">_game.cpp</text>
</a>
</g>
</g>
<!-- Node4&#45;&gt;Node10 -->
<g id="edge43" class="edge">
<title>Node4&#45;&gt;Node10</title>
<path fill="none" stroke="#63b8ff" d="M2778.07,-245.83C2751.34,-226.34 2704.43,-191.97 2664.62,-162 2647.15,-148.85 2645.2,-141.75 2625.62,-132 2571.57,-105.09 2536.56,-139.44 2494.62,-96 2477.57,-78.34 2474.85,-48.3 2474.91,-30.48"/>
<polygon fill="#63b8ff" stroke="#63b8ff" points="2775.91,-248.58 2786.05,-251.64 2780.03,-242.92 2775.91,-248.58"/>
</g>
<!-- Node17 -->
<g id="node9" class="node">
<title>Node17</title>
<g id="a_node9"><a xlink:href="d__msg__flow_8cpp.html" target="_top" xlink:title=" ">
<polygon fill="white" stroke="#666666" points="2900.12,-24.5 2767.12,-24.5 2767.12,-5.5 2900.12,-5.5 2900.12,-24.5"/>
<text text-anchor="middle" x="2833.62" y="-12.5" font-family="Helvetica,sans-Serif" font-size="10.00">src/d/msg/d_msg_flow.cpp</text>
</a>
</g>
</g>
<!-- Node4&#45;&gt;Node17 -->
<g id="edge48" class="edge">
<title>Node4&#45;&gt;Node17</title>
<path fill="none" stroke="#63b8ff" d="M2825.56,-246.3C2835.66,-238.87 2846.12,-228.94 2851.62,-217 2879.69,-156.04 2863.16,-132.11 2851.62,-66 2849.02,-51.09 2842.36,-34.77 2837.92,-24.96"/>
<polygon fill="#63b8ff" stroke="#63b8ff" points="2823.75,-243.3 2817.41,-251.79 2827.66,-249.11 2823.75,-243.3"/>
</g>
<!-- Node201 -->
<g id="node12" class="node">
<title>Node201</title>
<g id="a_node12"><a xlink:href="d__name_8cpp.html" target="_top" xlink:title=" ">
<polygon fill="white" stroke="#666666" points="129.62,-24.5 35.62,-24.5 35.62,-5.5 129.62,-5.5 129.62,-24.5"/>
<text text-anchor="middle" x="82.62" y="-12.5" font-family="Helvetica,sans-Serif" font-size="10.00">src/d/d_name.cpp</text>
</a>
</g>
</g>
<!-- Node4&#45;&gt;Node201 -->
<g id="edge44" class="edge">
<title>Node4&#45;&gt;Node201</title>
<path fill="none" stroke="#63b8ff" d="M2717.94,-261.24C2268.06,-259.67 110.31,-250.4 50.62,-217 -9.09,-183.59 -11.21,-126.57 20.62,-66 30.4,-47.39 50.42,-33.26 65.08,-24.84"/>
<polygon fill="#63b8ff" stroke="#63b8ff" points="2717.67,-264.74 2727.68,-261.27 2717.69,-257.74 2717.67,-264.74"/>
</g>
<!-- Node211 -->
<g id="node13" class="node">
<title>Node211</title>
<g id="a_node13"><a xlink:href="d__event__manager_8cpp.html" target="_top" xlink:title=" ">
<polygon fill="white" stroke="#666666" points="267.12,-30 164.12,-30 164.12,0 267.12,0 267.12,-30"/>
<text text-anchor="start" x="172.12" y="-18" font-family="Helvetica,sans-Serif" font-size="10.00">src/d/event/d_event</text>
<text text-anchor="middle" x="215.62" y="-7" font-family="Helvetica,sans-Serif" font-size="10.00">_manager.cpp</text>
</a>
</g>
</g>
<!-- Node4&#45;&gt;Node211 -->
<g id="edge45" class="edge">
<title>Node4&#45;&gt;Node211</title>
<path fill="none" stroke="#63b8ff" d="M2717.86,-261.13C2271.02,-258.97 142.12,-247.11 81.62,-217 19.47,-186.07 -1.39,-120.49 41.62,-66 49.41,-56.13 115.43,-39.07 163.85,-27.66"/>
<polygon fill="#63b8ff" stroke="#63b8ff" points="2717.82,-264.63 2727.84,-261.17 2717.85,-257.63 2717.82,-264.63"/>
</g>
<!-- Node216 -->
<g id="node14" class="node">
<title>Node216</title>
<g id="a_node14"><a xlink:href="d__kankyo__wether_8cpp.html" target="_top" xlink:title=" ">
<polygon fill="white" stroke="#666666" points="2705.62,-30 2589.62,-30 2589.62,0 2705.62,0 2705.62,-30"/>
<text text-anchor="start" x="2597.62" y="-18" font-family="Helvetica,sans-Serif" font-size="10.00">src/d/kankyo/d_kankyo</text>
<text text-anchor="middle" x="2647.62" y="-7" font-family="Helvetica,sans-Serif" font-size="10.00">_wether.cpp</text>
</a>
</g>
</g>
<!-- Node4&#45;&gt;Node216 -->
<g id="edge47" class="edge">
<title>Node4&#45;&gt;Node216</title>
<path fill="none" stroke="#63b8ff" d="M2809.18,-242.46C2826.65,-204.65 2858.47,-119.17 2818.62,-66 2804.89,-47.68 2749.89,-33.83 2705.92,-25.41"/>
<polygon fill="#63b8ff" stroke="#63b8ff" points="2806.15,-240.68 2804.97,-251.21 2812.46,-243.72 2806.15,-240.68"/>
</g>
<!-- Node232 -->
<g id="node15" class="node">
<title>Node232</title>
<g id="a_node15"><a xlink:href="d__ovlp__fade_8cpp.html" target="_top" xlink:title=" ">
<polygon fill="white" stroke="#666666" points="426.12,-24.5 293.12,-24.5 293.12,-5.5 426.12,-5.5 426.12,-24.5"/>
<text text-anchor="middle" x="359.62" y="-12.5" font-family="Helvetica,sans-Serif" font-size="10.00">src/d/ovlp/d_ovlp_fade.cpp</text>
</a>
</g>
</g>
<!-- Node4&#45;&gt;Node232 -->
<g id="edge49" class="edge">
<title>Node4&#45;&gt;Node232</title>
<path fill="none" stroke="#63b8ff" d="M2717.9,-260.98C2274.8,-258.03 178.1,-242.74 116.62,-217 50.88,-189.48 15.78,-119.72 62.62,-66 62.87,-65.71 220.38,-39.31 305.89,-24.99"/>
<polygon fill="#63b8ff" stroke="#63b8ff" points="2717.76,-264.47 2727.78,-261.04 2717.8,-257.47 2717.76,-264.47"/>
</g>
<!-- Node235 -->
<g id="node16" class="node">
<title>Node235</title>
<g id="a_node16"><a xlink:href="d__s__name_8cpp.html" target="_top" xlink:title=" ">
<polygon fill="white" stroke="#666666" points="561.12,-24.5 448.12,-24.5 448.12,-5.5 561.12,-5.5 561.12,-24.5"/>
<text text-anchor="middle" x="504.62" y="-12.5" font-family="Helvetica,sans-Serif" font-size="10.00">src/d/s/d_s_name.cpp</text>
</a>
</g>
</g>
<!-- Node4&#45;&gt;Node235 -->
<g id="edge52" class="edge">
<title>Node4&#45;&gt;Node235</title>
<path fill="none" stroke="#63b8ff" d="M2717.8,-261.51C2309.06,-261.34 498.25,-258.28 250.62,-217 172.29,-203.94 127.34,-226.22 80.62,-162 -18.16,-26.22 269.8,-62.1 434.62,-30 442.89,-28.39 451.71,-26.65 460.2,-24.96"/>
<polygon fill="#63b8ff" stroke="#63b8ff" points="2717.68,-265.01 2727.68,-261.51 2717.68,-258.01 2717.68,-265.01"/>
</g>
<!-- Node242 -->
<g id="node17" class="node">
<title>Node242</title>
<g id="a_node17"><a xlink:href="m__Do__audio_8cpp.html" target="_top" xlink:title=" ">
<polygon fill="white" stroke="#666666" points="715.62,-24.5 581.62,-24.5 581.62,-5.5 715.62,-5.5 715.62,-24.5"/>
<text text-anchor="middle" x="648.62" y="-12.5" font-family="Helvetica,sans-Serif" font-size="10.00">src/m_Do/m_Do_audio.cpp</text>
</a>
</g>
</g>
<!-- Node4&#45;&gt;Node242 -->
<g id="edge56" class="edge">
<title>Node4&#45;&gt;Node242</title>
<path fill="none" stroke="#63b8ff" d="M2717.8,-261.65C2275.23,-262.07 184.05,-258.93 90.62,-162 81.37,-152.4 82.21,-142.34 90.62,-132 98.82,-121.93 469.05,-50.32 601.84,-24.91"/>
<polygon fill="#63b8ff" stroke="#63b8ff" points="2717.67,-265.15 2727.67,-261.64 2717.67,-258.15 2717.67,-265.15"/>
</g>
<!-- Node66 -->
<g id="node24" class="node">
<title>Node66</title>
<g id="a_node24"><a xlink:href="d__kankyo_8cpp.html" target="_top" xlink:title=" ">
<polygon fill="white" stroke="#666666" points="2809.62,-90.5 2675.62,-90.5 2675.62,-71.5 2809.62,-71.5 2809.62,-90.5"/>
<text text-anchor="middle" x="2742.62" y="-78.5" font-family="Helvetica,sans-Serif" font-size="10.00">src/d/kankyo/d_kankyo.cpp</text>
</a>
</g>
</g>
<!-- Node4&#45;&gt;Node66 -->
<g id="edge46" class="edge">
<title>Node4&#45;&gt;Node66</title>
<path fill="none" stroke="#63b8ff" d="M2799.73,-241.22C2799.2,-215 2795.91,-168.38 2780.62,-132 2773.78,-115.72 2760.38,-100.02 2751.46,-90.69"/>
<polygon fill="#63b8ff" stroke="#63b8ff" points="2796.23,-241.13 2799.8,-251.1 2803.23,-241.08 2796.23,-241.13"/>
</g>
<!-- Node81 -->
<g id="node38" class="node">
<title>Node81</title>
<g id="a_node38"><a xlink:href="d__ovlp__fade2_8cpp.html" target="_top" xlink:title=" ">
<polygon fill="white" stroke="#666666" points="3041.62,-217 2903.62,-217 2903.62,-198 3041.62,-198 3041.62,-217"/>
<text text-anchor="middle" x="2972.62" y="-205" font-family="Helvetica,sans-Serif" font-size="10.00">src/d/ovlp/d_ovlp_fade2.cpp</text>
</a>
</g>
</g>
<!-- Node4&#45;&gt;Node81 -->
<g id="edge50" class="edge">
<title>Node4&#45;&gt;Node81</title>
<path fill="none" stroke="#63b8ff" d="M2839.65,-249.24C2871.36,-239.52 2914.93,-226.18 2943.42,-217.45"/>
<polygon fill="#63b8ff" stroke="#63b8ff" points="2838.95,-245.79 2830.41,-252.07 2841,-252.48 2838.95,-245.79"/>
</g>
<!-- Node83 -->
<g id="node39" class="node">
<title>Node83</title>
<g id="a_node39"><a xlink:href="d__ovlp__fade3_8cpp.html" target="_top" xlink:title=" ">
<polygon fill="white" stroke="#666666" points="3197.62,-217 3059.62,-217 3059.62,-198 3197.62,-198 3197.62,-217"/>
<text text-anchor="middle" x="3128.62" y="-205" font-family="Helvetica,sans-Serif" font-size="10.00">src/d/ovlp/d_ovlp_fade3.cpp</text>
</a>
</g>
</g>
<!-- Node4&#45;&gt;Node83 -->
<g id="edge51" class="edge">
<title>Node4&#45;&gt;Node83</title>
<path fill="none" stroke="#63b8ff" d="M2866.43,-250.74C2927.17,-240.95 3015.77,-226.68 3072.81,-217.49"/>
<polygon fill="#63b8ff" stroke="#63b8ff" points="2866.24,-247.22 2856.93,-252.27 2867.35,-254.13 2866.24,-247.22"/>
</g>
<!-- Node72 -->
<g id="node40" class="node">
<title>Node72</title>
<g id="a_node40"><a xlink:href="d__s__play_8cpp.html" target="_top" xlink:title=" ">
<polygon fill="white" stroke="#666666" points="3321.62,-217 3215.62,-217 3215.62,-198 3321.62,-198 3321.62,-217"/>
<text text-anchor="middle" x="3268.62" y="-205" font-family="Helvetica,sans-Serif" font-size="10.00">src/d/s/d_s_play.cpp</text>
</a>
</g>
</g>
<!-- Node4&#45;&gt;Node72 -->
<g id="edge53" class="edge">
<title>Node4&#45;&gt;Node72</title>
<path fill="none" stroke="#63b8ff" d="M2881.29,-252.69C2990.82,-240.86 3175.24,-220.87 3206.62,-217 3209.42,-216.65 3212.3,-216.29 3215.2,-215.92"/>
<polygon fill="#63b8ff" stroke="#63b8ff" points="2881.03,-249.2 2871.46,-253.75 2881.78,-256.16 2881.03,-249.2"/>
</g>
<!-- Node22 -->
<g id="node41" class="node">
<title>Node22</title>
<g id="a_node41"><a xlink:href="d__shop__system_8cpp.html" target="_top" xlink:title=" ">
<polygon fill="white" stroke="#666666" points="3491.62,-217 3339.62,-217 3339.62,-198 3491.62,-198 3491.62,-217"/>
<text text-anchor="middle" x="3415.62" y="-205" font-family="Helvetica,sans-Serif" font-size="10.00">src/d/shop/d_shop_system.cpp</text>
</a>
</g>
</g>
<!-- Node4&#45;&gt;Node22 -->
<g id="edge54" class="edge">
<title>Node4&#45;&gt;Node22</title>
<path fill="none" stroke="#63b8ff" d="M2881.02,-252.8C3081.15,-234.24 3133.53,-234.7 3330.62,-217 3333.43,-216.75 3336.29,-216.49 3339.17,-216.22"/>
<polygon fill="#63b8ff" stroke="#63b8ff" points="2880.96,-249.29 2871.33,-253.7 2881.61,-256.26 2880.96,-249.29"/>
</g>
<!-- Node466 -->
<g id="node42" class="node">
<title>Node466</title>
<g id="a_node42"><a xlink:href="m__Do__Reset_8cpp.html" target="_top" xlink:title=" ">
<polygon fill="white" stroke="#666666" points="3645.62,-217 3509.62,-217 3509.62,-198 3645.62,-198 3645.62,-217"/>
<text text-anchor="middle" x="3577.62" y="-205" font-family="Helvetica,sans-Serif" font-size="10.00">src/m_Do/m_Do_Reset.cpp</text>
</a>
</g>
</g>
<!-- Node4&#45;&gt;Node466 -->
<g id="edge55" class="edge">
<title>Node4&#45;&gt;Node466</title>
<path fill="none" stroke="#63b8ff" d="M2880.97,-252.85C3156.47,-230.44 3228.32,-239.89 3500.62,-217 3503.44,-216.76 3506.31,-216.51 3509.2,-216.24"/>
<polygon fill="#63b8ff" stroke="#63b8ff" points="2881,-249.34 2871.32,-253.64 2881.58,-256.31 2881,-249.34"/>
</g>
<!-- Node6 -->
<g id="node6" class="node">
<title>Node6</title>
<g id="a_node6"><a xlink:href="d__attention_8h.html" target="_top" xlink:title=" ">
<polygon fill="#fff0f0" stroke="red" points="1961.62,-156.5 1847.62,-156.5 1847.62,-137.5 1961.62,-137.5 1961.62,-156.5"/>
<text text-anchor="middle" x="1904.62" y="-144.5" font-family="Helvetica,sans-Serif" font-size="10.00">include/d/d_attention.h</text>
</a>
</g>
</g>
<!-- Node5&#45;&gt;Node6 -->
<g id="edge5" class="edge">
<title>Node5&#45;&gt;Node6</title>
<path fill="none" stroke="#63b8ff" d="M1729.02,-194.69C1770.94,-183.55 1832.88,-167.08 1870.89,-156.97"/>
<polygon fill="#63b8ff" stroke="#63b8ff" points="1728.26,-191.27 1719.5,-197.23 1730.06,-198.04 1728.26,-191.27"/>
</g>
<!-- Node179 -->
<g id="node11" class="node">
<title>Node179</title>
<g id="a_node11"><a xlink:href="c__dylink_8cpp.html" target="_top" xlink:title=" ">
<polygon fill="white" stroke="#666666" points="989.12,-24.5 894.12,-24.5 894.12,-5.5 989.12,-5.5 989.12,-24.5"/>
<text text-anchor="middle" x="941.62" y="-12.5" font-family="Helvetica,sans-Serif" font-size="10.00">src/c/c_dylink.cpp</text>
</a>
</g>
</g>
<!-- Node5&#45;&gt;Node179 -->
<g id="edge31" class="edge">
<title>Node5&#45;&gt;Node179</title>
<path fill="none" stroke="#63b8ff" d="M1761.36,-205.41C1836.73,-202.52 1944.15,-192.9 1970.62,-162 1979.29,-151.87 1979.51,-141.94 1970.62,-132 1904.32,-57.81 1183.22,-25.19 989.36,-17.72"/>
<polygon fill="#63b8ff" stroke="#63b8ff" points="1761.41,-201.9 1751.54,-205.75 1761.65,-208.9 1761.41,-201.9"/>
</g>
<!-- Node243 -->
<g id="node18" class="node">
<title>Node243</title>
<g id="a_node18"><a xlink:href="m__Do__ext_8cpp.html" target="_top" xlink:title=" ">
<polygon fill="white" stroke="#666666" points="1769.12,-24.5 1646.12,-24.5 1646.12,-5.5 1769.12,-5.5 1769.12,-24.5"/>
<text text-anchor="middle" x="1707.62" y="-12.5" font-family="Helvetica,sans-Serif" font-size="10.00">src/m_Do/m_Do_ext.cpp</text>
</a>
</g>
</g>
<!-- Node5&#45;&gt;Node243 -->
<g id="edge39" class="edge">
<title>Node5&#45;&gt;Node243</title>
<path fill="none" stroke="#63b8ff" d="M1761.18,-206.9C1845.36,-205.5 1972.83,-197.39 2003.62,-162 2031.63,-129.81 2031.16,-98.59 2003.62,-66 1974.27,-31.27 1847.4,-20.66 1769.59,-17.42"/>
<polygon fill="#63b8ff" stroke="#63b8ff" points="1761.32,-203.39 1751.37,-207.03 1761.42,-210.39 1761.32,-203.39"/>
</g>
<!-- Node246 -->
<g id="node19" class="node">
<title>Node246</title>
<g id="a_node19"><a xlink:href="m__Do__machine__exception_8cpp.html" target="_top" xlink:title=" ">
<polygon fill="white" stroke="#666666" points="2320.12,-30 2191.12,-30 2191.12,0 2320.12,0 2320.12,-30"/>
<text text-anchor="start" x="2199.12" y="-18" font-family="Helvetica,sans-Serif" font-size="10.00">src/m_Do/m_Do_machine</text>
<text text-anchor="middle" x="2255.62" y="-7" font-family="Helvetica,sans-Serif" font-size="10.00">_exception.cpp</text>
</a>
</g>
</g>
<!-- Node5&#45;&gt;Node246 -->
<g id="edge41" class="edge">
<title>Node5&#45;&gt;Node246</title>
<path fill="none" stroke="#63b8ff" d="M1761.37,-204.73C1947.23,-200.05 2407.92,-186.09 2430.62,-162 2481.29,-108.22 2364.91,-55.21 2298.23,-30.46"/>
<polygon fill="#63b8ff" stroke="#63b8ff" points="1761.49,-201.22 1751.58,-204.97 1761.66,-208.22 1761.49,-201.22"/>
</g>
<!-- Node250 -->
<g id="node20" class="node">
<title>Node250</title>
<g id="a_node20"><a xlink:href="d__drawlist_8h.html" target="_top" xlink:title=" ">
<polygon fill="#fff0f0" stroke="red" points="2165.62,-156.5 2055.62,-156.5 2055.62,-137.5 2165.62,-137.5 2165.62,-156.5"/>
<text text-anchor="middle" x="2110.62" y="-144.5" font-family="Helvetica,sans-Serif" font-size="10.00">include/d/d_drawlist.h</text>
</a>
</g>
</g>
<!-- Node5&#45;&gt;Node250 -->
<g id="edge20" class="edge">
<title>Node5&#45;&gt;Node250</title>
<path fill="none" stroke="#63b8ff" d="M1761.26,-198.65C1833.72,-190.83 1945.37,-177.74 2041.62,-162 2050.55,-160.54 2060.08,-158.75 2069.12,-156.95"/>
<polygon fill="#63b8ff" stroke="#63b8ff" points="1761.05,-195.16 1751.48,-199.7 1761.8,-202.12 1761.05,-195.16"/>
</g>
<!-- Node297 -->
<g id="node21" class="node">
<title>Node297</title>
<g id="a_node21"><a xlink:href="d__ky__thunder_8h.html" target="_top" xlink:title=" ">
<polygon fill="#fff0f0" stroke="red" points="2307.62,-156.5 2183.62,-156.5 2183.62,-137.5 2307.62,-137.5 2307.62,-156.5"/>
<text text-anchor="middle" x="2245.62" y="-144.5" font-family="Helvetica,sans-Serif" font-size="10.00">include/d/d_ky_thunder.h</text>
</a>
</g>
</g>
<!-- Node5&#45;&gt;Node297 -->
<g id="edge21" class="edge">
<title>Node5&#45;&gt;Node297</title>
<path fill="none" stroke="#63b8ff" d="M1761.28,-202.02C1857.97,-195.79 2029.18,-182.88 2174.62,-162 2184.2,-160.62 2194.44,-158.81 2204.07,-156.95"/>
<polygon fill="#63b8ff" stroke="#63b8ff" points="1761.13,-198.52 1751.38,-202.65 1761.58,-205.51 1761.13,-198.52"/>
</g>
<!-- Node298 -->
<g id="node22" class="node">
<title>Node298</title>
<g id="a_node22"><a xlink:href="d__resorce_8h.html" target="_top" xlink:title=" ">
<polygon fill="#fff0f0" stroke="red" points="575.12,-156.5 466.12,-156.5 466.12,-137.5 575.12,-137.5 575.12,-156.5"/>
<text text-anchor="middle" x="520.62" y="-144.5" font-family="Helvetica,sans-Serif" font-size="10.00">include/d/d_resorce.h</text>
</a>
</g>
</g>
<!-- Node5&#45;&gt;Node298 -->
<g id="edge22" class="edge">
<title>Node5&#45;&gt;Node298</title>
<path fill="none" stroke="#63b8ff" d="M1608.13,-205.18C1392.45,-201.19 782.22,-187.87 583.62,-162 574.51,-160.81 564.77,-158.95 555.74,-156.97"/>
<polygon fill="#63b8ff" stroke="#63b8ff" points="1607.75,-208.68 1617.81,-205.36 1607.88,-201.68 1607.75,-208.68"/>
</g>
<!-- Node299 -->
<g id="node23" class="node">
<title>Node299</title>
<g id="a_node23"><a xlink:href="d__kankyo_8h.html" target="_top" xlink:title=" ">
<polygon fill="#fff0f0" stroke="red" points="2771.62,-162 2673.62,-162 2673.62,-132 2771.62,-132 2771.62,-162"/>
<text text-anchor="start" x="2681.62" y="-150" font-family="Helvetica,sans-Serif" font-size="10.00">include/d/kankyo/d</text>
<text text-anchor="middle" x="2722.62" y="-139" font-family="Helvetica,sans-Serif" font-size="10.00">_kankyo.h</text>
</a>
</g>
</g>
<!-- Node5&#45;&gt;Node299 -->
<g id="edge24" class="edge">
<title>Node5&#45;&gt;Node299</title>
<path fill="none" stroke="#63b8ff" d="M1761.26,-205.37C1921.89,-202.45 2305.45,-192.6 2625.62,-162 2641.2,-160.51 2658.11,-158.28 2673.38,-156.04"/>
<polygon fill="#63b8ff" stroke="#63b8ff" points="1761.54,-201.86 1751.6,-205.54 1761.66,-208.86 1761.54,-201.86"/>
</g>
<!-- Node254 -->
<g id="node25" class="node">
<title>Node254</title>
<g id="a_node25"><a xlink:href="d__a__do_8h.html" target="_top" xlink:title=" ">
<polygon fill="white" stroke="#666666" points="2421.62,-162 2325.62,-162 2325.62,-132 2421.62,-132 2421.62,-162"/>
<text text-anchor="start" x="2333.62" y="-150" font-family="Helvetica,sans-Serif" font-size="10.00">include/rel/d/a/d_a</text>
<text text-anchor="middle" x="2373.62" y="-139" font-family="Helvetica,sans-Serif" font-size="10.00">_do/d_a_do.h</text>
</a>
</g>
</g>
<!-- Node5&#45;&gt;Node254 -->
<g id="edge27" class="edge">
<title>Node5&#45;&gt;Node254</title>
<path fill="none" stroke="#63b8ff" d="M1761.26,-205.31C1880.64,-202.51 2117.92,-193.16 2316.62,-162 2319.44,-161.56 2322.32,-161.05 2325.22,-160.48"/>
<polygon fill="#63b8ff" stroke="#63b8ff" points="1761.52,-201.8 1751.6,-205.53 1761.67,-208.8 1761.52,-201.8"/>
</g>
<!-- Node438 -->
<g id="node26" class="node">
<title>Node438</title>
<g id="a_node26"><a xlink:href="d__a__mg__fshop_8h.html" target="_top" xlink:title=" ">
<polygon fill="white" stroke="#666666" points="2617.12,-162 2478.12,-162 2478.12,-132 2617.12,-132 2617.12,-162"/>
<text text-anchor="start" x="2486.12" y="-150" font-family="Helvetica,sans-Serif" font-size="10.00">include/rel/d/a/d_a</text>
<text text-anchor="middle" x="2547.62" y="-139" font-family="Helvetica,sans-Serif" font-size="10.00">_mg_fshop/d_a_mg_fshop.h</text>
</a>
</g>
</g>
<!-- Node5&#45;&gt;Node438 -->
<g id="edge28" class="edge">
<title>Node5&#45;&gt;Node438</title>
<path fill="none" stroke="#63b8ff" d="M1761.37,-204.86C1901.34,-201.27 2207.29,-190.6 2463.62,-162 2468.32,-161.48 2473.16,-160.86 2478.03,-160.19"/>
<polygon fill="#63b8ff" stroke="#63b8ff" points="1761.39,-201.36 1751.48,-205.11 1761.56,-208.36 1761.39,-201.36"/>
</g>
<!-- Node359 -->
<g id="node27" class="node">
<title>Node359</title>
<g id="a_node27"><a xlink:href="d__a__myna_8h.html" target="_top" xlink:title=" ">
<polygon fill="white" stroke="#666666" points="199.62,-162 99.62,-162 99.62,-132 199.62,-132 199.62,-162"/>
<text text-anchor="start" x="107.62" y="-150" font-family="Helvetica,sans-Serif" font-size="10.00">include/rel/d/a/d_a</text>
<text text-anchor="middle" x="149.62" y="-139" font-family="Helvetica,sans-Serif" font-size="10.00">_myna/d_a_myna.h</text>
</a>
</g>
</g>
<!-- Node5&#45;&gt;Node359 -->
<g id="edge29" class="edge">
<title>Node5&#45;&gt;Node359</title>
<path fill="none" stroke="#63b8ff" d="M1608.02,-206.24C1345.49,-205.03 483.15,-198.33 208.62,-162 205.8,-161.63 202.92,-161.18 200.03,-160.67"/>
<polygon fill="#63b8ff" stroke="#63b8ff" points="1607.8,-209.74 1617.81,-206.28 1607.83,-202.74 1607.8,-209.74"/>
</g>
<!-- Node457 -->
<g id="node28" class="node">
<title>Node457</title>
<g id="a_node28"><a xlink:href="DynamicLink_8cpp.html" target="_top" xlink:title=" ">
<polygon fill="white" stroke="#666666" points="325.12,-156.5 218.12,-156.5 218.12,-137.5 325.12,-137.5 325.12,-156.5"/>
<text text-anchor="middle" x="271.62" y="-144.5" font-family="Helvetica,sans-Serif" font-size="10.00">src/DynamicLink.cpp</text>
</a>
</g>
</g>
<!-- Node5&#45;&gt;Node457 -->
<g id="edge30" class="edge">
<title>Node5&#45;&gt;Node457</title>
<path fill="none" stroke="#63b8ff" d="M1607.99,-205.85C1360.41,-203.44 583.67,-193.5 334.62,-162 325.39,-160.83 315.53,-158.95 306.41,-156.94"/>
<polygon fill="#63b8ff" stroke="#63b8ff" points="1607.82,-209.34 1617.86,-205.94 1607.89,-202.34 1607.82,-209.34"/>
</g>
<!-- Node458 -->
<g id="node29" class="node">
<title>Node458</title>
<g id="a_node29"><a xlink:href="d__meter__HIO_8cpp.html" target="_top" xlink:title=" ">
<polygon fill="white" stroke="#666666" points="447.62,-162 343.62,-162 343.62,-132 447.62,-132 447.62,-162"/>
<text text-anchor="start" x="351.62" y="-150" font-family="Helvetica,sans-Serif" font-size="10.00">src/d/meter/d_meter</text>
<text text-anchor="middle" x="395.62" y="-139" font-family="Helvetica,sans-Serif" font-size="10.00">_HIO.cpp</text>
</a>
</g>
</g>
<!-- Node5&#45;&gt;Node458 -->
<g id="edge32" class="edge">
<title>Node5&#45;&gt;Node458</title>
<path fill="none" stroke="#63b8ff" d="M1607.88,-205.62C1375.33,-202.66 680.74,-191.51 456.62,-162 453.82,-161.63 450.96,-161.19 448.08,-160.7"/>
<polygon fill="#63b8ff" stroke="#63b8ff" points="1607.7,-209.12 1617.74,-205.75 1607.78,-202.12 1607.7,-209.12"/>
</g>
<!-- Node459 -->
<g id="node30" class="node">
<title>Node459</title>
<g id="a_node30"><a xlink:href="d__pane__class_8cpp.html" target="_top" xlink:title=" ">
<polygon fill="white" stroke="#666666" points="736.12,-156.5 593.12,-156.5 593.12,-137.5 736.12,-137.5 736.12,-156.5"/>
<text text-anchor="middle" x="664.62" y="-144.5" font-family="Helvetica,sans-Serif" font-size="10.00">src/d/pane/d_pane_class.cpp</text>
</a>
</g>
</g>
<!-- Node5&#45;&gt;Node459 -->
<g id="edge33" class="edge">
<title>Node5&#45;&gt;Node459</title>
<path fill="none" stroke="#63b8ff" d="M1607.98,-206.13C1447.38,-204.65 1063.96,-197.36 744.62,-162 733.41,-160.76 721.39,-158.93 710.17,-156.99"/>
<polygon fill="#63b8ff" stroke="#63b8ff" points="1607.61,-209.63 1617.64,-206.22 1607.67,-202.63 1607.61,-209.63"/>
</g>
<!-- Node460 -->
<g id="node31" class="node">
<title>Node460</title>
<g id="a_node31"><a xlink:href="d__pane__class__alpha_8cpp.html" target="_top" xlink:title=" ">
<polygon fill="white" stroke="#666666" points="879.12,-162 754.12,-162 754.12,-132 879.12,-132 879.12,-162"/>
<text text-anchor="start" x="762.12" y="-150" font-family="Helvetica,sans-Serif" font-size="10.00">src/d/pane/d_pane_class</text>
<text text-anchor="middle" x="816.62" y="-139" font-family="Helvetica,sans-Serif" font-size="10.00">_alpha.cpp</text>
</a>
</g>
</g>
<!-- Node5&#45;&gt;Node460 -->
<g id="edge34" class="edge">
<title>Node5&#45;&gt;Node460</title>
<path fill="none" stroke="#63b8ff" d="M1608.07,-205.76C1465.69,-203.59 1150.68,-195.12 887.62,-162 884.88,-161.65 882.08,-161.27 879.26,-160.84"/>
<polygon fill="#63b8ff" stroke="#63b8ff" points="1607.7,-209.25 1617.75,-205.9 1607.8,-202.25 1607.7,-209.25"/>
</g>
<!-- Node171 -->
<g id="node32" class="node">
<title>Node171</title>
<g id="a_node32"><a xlink:href="f__op__actor__mng_8cpp.html" target="_top" xlink:title=" ">
<polygon fill="white" stroke="#666666" points="998.12,-162 897.12,-162 897.12,-132 998.12,-132 998.12,-162"/>
<text text-anchor="start" x="905.12" y="-150" font-family="Helvetica,sans-Serif" font-size="10.00">src/f_op/f_op_actor</text>
<text text-anchor="middle" x="947.62" y="-139" font-family="Helvetica,sans-Serif" font-size="10.00">_mng.cpp</text>
</a>
</g>
</g>
<!-- Node5&#45;&gt;Node171 -->
<g id="edge35" class="edge">
<title>Node5&#45;&gt;Node171</title>
<path fill="none" stroke="#63b8ff" d="M1607.83,-205.64C1481.68,-203.28 1222.96,-194.53 1006.62,-162 1003.91,-161.59 1001.15,-161.12 998.36,-160.61"/>
<polygon fill="#63b8ff" stroke="#63b8ff" points="1607.68,-209.13 1617.74,-205.81 1607.81,-202.13 1607.68,-209.13"/>
</g>
<!-- Node461 -->
<g id="node33" class="node">
<title>Node461</title>
<g id="a_node33"><a xlink:href="m__Do__DVDError_8cpp.html" target="_top" xlink:title=" ">
<polygon fill="white" stroke="#666666" points="1167.12,-156.5 1016.12,-156.5 1016.12,-137.5 1167.12,-137.5 1167.12,-156.5"/>
<text text-anchor="middle" x="1091.62" y="-144.5" font-family="Helvetica,sans-Serif" font-size="10.00">src/m_Do/m_Do_DVDError.cpp</text>
</a>
</g>
</g>
<!-- Node5&#45;&gt;Node461 -->
<g id="edge36" class="edge">
<title>Node5&#45;&gt;Node461</title>
<path fill="none" stroke="#63b8ff" d="M1608.05,-201.61C1508.44,-194.83 1329.13,-181.21 1176.62,-162 1165.49,-160.6 1153.59,-158.82 1142.32,-157"/>
<polygon fill="#63b8ff" stroke="#63b8ff" points="1607.78,-205.1 1617.99,-202.28 1608.25,-198.12 1607.78,-205.1"/>
</g>
<!-- Node462 -->
<g id="node34" class="node">
<title>Node462</title>
<g id="a_node34"><a xlink:href="m__Do__MemCard_8cpp.html" target="_top" xlink:title=" ">
<polygon fill="white" stroke="#666666" points="1337.62,-156.5 1185.62,-156.5 1185.62,-137.5 1337.62,-137.5 1337.62,-156.5"/>
<text text-anchor="middle" x="1261.62" y="-144.5" font-family="Helvetica,sans-Serif" font-size="10.00">src/m_Do/m_Do_MemCard.cpp</text>
</a>
</g>
</g>
<!-- Node5&#45;&gt;Node462 -->
<g id="edge37" class="edge">
<title>Node5&#45;&gt;Node462</title>
<path fill="none" stroke="#63b8ff" d="M1608.3,-197.17C1539.73,-188.61 1436.33,-175.29 1346.62,-162 1336.12,-160.44 1324.9,-158.67 1314.18,-156.93"/>
<polygon fill="#63b8ff" stroke="#63b8ff" points="1607.56,-200.6 1617.92,-198.36 1608.43,-193.66 1607.56,-200.6"/>
</g>
<!-- Node463 -->
<g id="node35" class="node">
<title>Node463</title>
<g id="a_node35"><a xlink:href="m__Do__dvd__thread_8cpp.html" target="_top" xlink:title=" ">
<polygon fill="white" stroke="#666666" points="1513.62,-156.5 1355.62,-156.5 1355.62,-137.5 1513.62,-137.5 1513.62,-156.5"/>
<text text-anchor="middle" x="1434.62" y="-144.5" font-family="Helvetica,sans-Serif" font-size="10.00">src/m_Do/m_Do_dvd_thread.cpp</text>
</a>
</g>
</g>
<!-- Node5&#45;&gt;Node463 -->
<g id="edge38" class="edge">
<title>Node5&#45;&gt;Node463</title>
<path fill="none" stroke="#63b8ff" d="M1635.39,-194.98C1587.72,-183.82 1516.42,-167.14 1472.86,-156.95"/>
<polygon fill="#63b8ff" stroke="#63b8ff" points="1634.37,-198.34 1644.91,-197.21 1635.97,-191.52 1634.37,-198.34"/>
</g>
<!-- Node464 -->
<g id="node36" class="node">
<title>Node464</title>
<g id="a_node36"><a xlink:href="m__Do__machine_8cpp.html" target="_top" xlink:title=" ">
<polygon fill="white" stroke="#666666" points="1679.12,-156.5 1532.12,-156.5 1532.12,-137.5 1679.12,-137.5 1679.12,-156.5"/>
<text text-anchor="middle" x="1605.62" y="-144.5" font-family="Helvetica,sans-Serif" font-size="10.00">src/m_Do/m_Do_machine.cpp</text>
</a>
</g>
</g>
<!-- Node5&#45;&gt;Node464 -->
<g id="edge40" class="edge">
<title>Node5&#45;&gt;Node464</title>
<path fill="none" stroke="#63b8ff" d="M1663.74,-191.04C1649.07,-180.17 1629.96,-166.02 1617.73,-156.97"/>
<polygon fill="#63b8ff" stroke="#63b8ff" points="1661.29,-193.58 1671.41,-196.71 1665.45,-187.95 1661.29,-193.58"/>
</g>
<!-- Node465 -->
<g id="node37" class="node">
<title>Node465</title>
<g id="a_node37"><a xlink:href="m__Do__printf_8cpp.html" target="_top" xlink:title=" ">
<polygon fill="white" stroke="#666666" points="1829.62,-156.5 1697.62,-156.5 1697.62,-137.5 1829.62,-137.5 1829.62,-156.5"/>
<text text-anchor="middle" x="1763.62" y="-144.5" font-family="Helvetica,sans-Serif" font-size="10.00">src/m_Do/m_Do_printf.cpp</text>
</a>
</g>
</g>
<!-- Node5&#45;&gt;Node465 -->
<g id="edge42" class="edge">
<title>Node5&#45;&gt;Node465</title>
<path fill="none" stroke="#63b8ff" d="M1705.5,-191.04C1720.17,-180.17 1739.29,-166.02 1751.51,-156.97"/>
<polygon fill="#63b8ff" stroke="#63b8ff" points="1703.79,-187.95 1697.84,-196.71 1707.95,-193.58 1703.79,-187.95"/>
</g>
<!-- Node7 -->
<g id="node7" class="node">
<title>Node7</title>
<g id="a_node7"><a xlink:href="d__a__alink_8h.html" target="_top" xlink:title=" ">
<polygon fill="#fff0f0" stroke="red" points="2619.62,-90.5 2503.62,-90.5 2503.62,-71.5 2619.62,-71.5 2619.62,-90.5"/>
<text text-anchor="middle" x="2561.62" y="-78.5" font-family="Helvetica,sans-Serif" font-size="10.00">include/d/a/d_a_alink.h</text>
</a>
</g>
</g>
<!-- Node6&#45;&gt;Node7 -->
<g id="edge6" class="edge">
<title>Node6&#45;&gt;Node7</title>
<path fill="none" stroke="#63b8ff" d="M1973.15,-139.22C1996.47,-136.92 2022.68,-134.34 2046.62,-132 2212.24,-115.8 2407.84,-96.86 2503.31,-87.63"/>
<polygon fill="#63b8ff" stroke="#63b8ff" points="1973.08,-135.71 1963.47,-140.18 1973.77,-142.68 1973.08,-135.71"/>
</g>
<!-- Node19 -->
<g id="node10" class="node">
<title>Node19</title>
<g id="a_node10"><a xlink:href="d__com__inf__game_8h.html" target="_top" xlink:title=" ">
<polygon fill="#fff0f0" stroke="red" points="735.62,-96 625.62,-96 625.62,-66 735.62,-66 735.62,-96"/>
<text text-anchor="start" x="633.62" y="-84" font-family="Helvetica,sans-Serif" font-size="10.00">include/d/com/d_com</text>
<text text-anchor="middle" x="680.62" y="-73" font-family="Helvetica,sans-Serif" font-size="10.00">_inf_game.h</text>
</a>
</g>
</g>
<!-- Node6&#45;&gt;Node19 -->
<g id="edge9" class="edge">
<title>Node6&#45;&gt;Node19</title>
<path fill="none" stroke="#63b8ff" d="M1856.93,-134.91C1850.79,-133.77 1844.58,-132.75 1838.62,-132 1621.27,-104.45 935.86,-87.59 735.89,-83.17"/>
<polygon fill="#63b8ff" stroke="#63b8ff" points="1855.83,-138.26 1866.32,-136.77 1857.19,-131.39 1855.83,-138.26"/>
</g>
<!-- Node7&#45;&gt;Node10 -->
<g id="edge7" class="edge">
<title>Node7&#45;&gt;Node10</title>
<path fill="none" stroke="#63b8ff" d="M2540.82,-64.52C2526.9,-54.16 2508.71,-40.62 2495.08,-30.48"/>
<polygon fill="#63b8ff" stroke="#63b8ff" points="2538.34,-67.04 2548.45,-70.2 2542.52,-61.42 2538.34,-67.04"/>
</g>
<!-- Node7&#45;&gt;Node17 -->
<g id="edge8" class="edge">
<title>Node7&#45;&gt;Node17</title>
<path fill="none" stroke="#63b8ff" d="M2610.91,-68.4C2664.07,-55.89 2747.54,-36.25 2795.77,-24.91"/>
<polygon fill="#63b8ff" stroke="#63b8ff" points="2610.13,-64.99 2601.2,-70.69 2611.74,-71.8 2610.13,-64.99"/>
</g>
<!-- Node19&#45;&gt;Node10 -->
<g id="edge11" class="edge">
<title>Node19&#45;&gt;Node10</title>
<path fill="none" stroke="#63b8ff" d="M747.31,-79.52C970.99,-77.59 1715.03,-68.49 2328.62,-30 2359.32,-28.07 2393.54,-24.88 2421.23,-22.02"/>
<polygon fill="#63b8ff" stroke="#63b8ff" points="747.29,-76.02 737.32,-79.61 747.35,-83.02 747.29,-76.02"/>
</g>
<!-- Node19&#45;&gt;Node179 -->
<g id="edge10" class="edge">
<title>Node19&#45;&gt;Node179</title>
<path fill="none" stroke="#63b8ff" d="M747.06,-63.71C797.29,-51.39 864.37,-34.94 905.2,-24.93"/>
<polygon fill="#63b8ff" stroke="#63b8ff" points="746.32,-60.29 737.44,-66.07 747.99,-67.08 746.32,-60.29"/>
</g>
<!-- Node19&#45;&gt;Node201 -->
<g id="edge12" class="edge">
<title>Node19&#45;&gt;Node201</title>
<path fill="none" stroke="#63b8ff" d="M613.68,-75.73C513.51,-68.87 318.8,-53.71 154.62,-30 145.04,-28.62 134.81,-26.82 125.14,-24.98"/>
<polygon fill="#63b8ff" stroke="#63b8ff" points="613.4,-79.22 623.62,-76.41 613.88,-72.24 613.4,-79.22"/>
</g>
<!-- Node19&#45;&gt;Node211 -->
<g id="edge13" class="edge">
<title>Node19&#45;&gt;Node211</title>
<path fill="none" stroke="#63b8ff" d="M613.95,-73.2C534.88,-64.78 399.24,-49.15 283.62,-30 278.39,-29.13 272.95,-28.15 267.52,-27.12"/>
<polygon fill="#63b8ff" stroke="#63b8ff" points="613.37,-76.66 623.69,-74.24 614.11,-69.7 613.37,-76.66"/>
</g>
<!-- Node19&#45;&gt;Node216 -->
<g id="edge14" class="edge">
<title>Node19&#45;&gt;Node216</title>
<path fill="none" stroke="#63b8ff" d="M747.27,-79.11C1035.94,-75.11 2179.85,-57.8 2538.62,-30 2555.07,-28.73 2572.85,-26.71 2589.18,-24.61"/>
<polygon fill="#63b8ff" stroke="#63b8ff" points="747.23,-75.61 737.28,-79.25 747.33,-82.61 747.23,-75.61"/>
</g>
<!-- Node19&#45;&gt;Node232 -->
<g id="edge15" class="edge">
<title>Node19&#45;&gt;Node232</title>
<path fill="none" stroke="#63b8ff" d="M614.46,-66.81C551.6,-54.28 458.82,-35.78 404.27,-24.9"/>
<polygon fill="#63b8ff" stroke="#63b8ff" points="613.46,-70.18 623.95,-68.7 614.83,-63.31 613.46,-70.18"/>
</g>
<!-- Node19&#45;&gt;Node235 -->
<g id="edge16" class="edge">
<title>Node19&#45;&gt;Node235</title>
<path fill="none" stroke="#63b8ff" d="M630.71,-61.85C597.58,-49.8 555.52,-34.51 529.33,-24.99"/>
<polygon fill="#63b8ff" stroke="#63b8ff" points="629.11,-64.99 639.7,-65.12 631.5,-58.41 629.11,-64.99"/>
</g>
<!-- Node19&#45;&gt;Node242 -->
<g id="edge17" class="edge">
<title>Node19&#45;&gt;Node242</title>
<path fill="none" stroke="#63b8ff" d="M668.42,-55.6C663.02,-44.8 657.01,-32.78 653.04,-24.84"/>
<polygon fill="#63b8ff" stroke="#63b8ff" points="665.24,-57.06 672.84,-64.44 671.5,-53.93 665.24,-57.06"/>
</g>
<!-- Node19&#45;&gt;Node243 -->
<g id="edge18" class="edge">
<title>Node19&#45;&gt;Node243</title>
<path fill="none" stroke="#63b8ff" d="M747.14,-75.85C934.41,-64.18 1464.21,-31.17 1645.71,-19.86"/>
<polygon fill="#63b8ff" stroke="#63b8ff" points="747.11,-72.35 737.35,-76.46 747.55,-79.34 747.11,-72.35"/>
</g>
<!-- Node19&#45;&gt;Node246 -->
<g id="edge19" class="edge">
<title>Node19&#45;&gt;Node246</title>
<path fill="none" stroke="#63b8ff" d="M747.15,-77.3C1004.91,-66.82 1935.99,-28.99 2190.78,-18.63"/>
<polygon fill="#63b8ff" stroke="#63b8ff" points="747.11,-73.8 737.26,-77.7 747.4,-80.79 747.11,-73.8"/>
</g>
<!-- Node298&#45;&gt;Node19 -->
<g id="edge23" class="edge">
<title>Node298&#45;&gt;Node19</title>
<path fill="none" stroke="#63b8ff" d="M553.5,-132.85C579.96,-122.26 617.12,-107.4 644.43,-96.48"/>
<polygon fill="#63b8ff" stroke="#63b8ff" points="552.26,-129.58 544.27,-136.54 554.86,-136.07 552.26,-129.58"/>
</g>
<!-- Node299&#45;&gt;Node216 -->
<g id="edge26" class="edge">
<title>Node299&#45;&gt;Node216</title>
<path fill="none" stroke="#63b8ff" d="M2691.92,-124.48C2682.55,-116.51 2673.04,-106.77 2666.62,-96 2654.27,-75.28 2649.94,-47.05 2648.43,-30.26"/>
<polygon fill="#63b8ff" stroke="#63b8ff" points="2689.57,-127.08 2699.57,-130.59 2693.94,-121.61 2689.57,-127.08"/>
</g>
<!-- Node299&#45;&gt;Node66 -->
<g id="edge25" class="edge">
<title>Node299&#45;&gt;Node66</title>
<path fill="none" stroke="#63b8ff" d="M2730.46,-120.93C2733.78,-110.31 2737.43,-98.61 2739.86,-90.84"/>
<polygon fill="#63b8ff" stroke="#63b8ff" points="2727.15,-119.76 2727.51,-130.35 2733.83,-121.85 2727.15,-119.76"/>
</g>
</g>
</svg>
