<?xml version="1.0" encoding="UTF-8" standalone="no"?>
<!DOCTYPE svg PUBLIC "-//W3C//DTD SVG 1.1//EN"
 "http://www.w3.org/Graphics/SVG/1.1/DTD/svg11.dtd">
<!-- Generated by graphviz version 7.0.5 (20221223.1930)
 -->
<!-- Title: include/JSystem/JAudio2/JAISeqMgr.h Pages: 1 -->
<svg width="2884pt" height="544pt"
 viewBox="0.00 0.00 2884.20 544.00" xmlns="http://www.w3.org/2000/svg" xmlns:xlink="http://www.w3.org/1999/xlink">
<g id="graph0" class="graph" transform="scale(1 1) rotate(0) translate(4 540)">
<title>include/JSystem/JAudio2/JAISeqMgr.h</title>
<!-- Node1 -->
<g id="node1" class="node">
<title>Node1</title>
<g id="a_node1"><a xlink:title=" ">
<polygon fill="#999999" stroke="#666666" points="1149.7,-536 1022.7,-536 1022.7,-506 1149.7,-506 1149.7,-536"/>
<text text-anchor="start" x="1030.7" y="-524" font-family="Helvetica,sans-Serif" font-size="10.00">include/JSystem/JAudio2</text>
<text text-anchor="middle" x="1086.2" y="-513" font-family="Helvetica,sans-Serif" font-size="10.00">/JAISeqMgr.h</text>
</a>
</g>
</g>
<!-- Node2 -->
<g id="node2" class="node">
<title>Node2</title>
<g id="a_node2"><a xlink:href="Z2SoundMgr_8h.html" target="_top" xlink:title=" ">
<polygon fill="white" stroke="#666666" points="1012.2,-470 912.2,-470 912.2,-440 1012.2,-440 1012.2,-470"/>
<text text-anchor="start" x="920.2" y="-458" font-family="Helvetica,sans-Serif" font-size="10.00">include/Z2AudioLib</text>
<text text-anchor="middle" x="962.2" y="-447" font-family="Helvetica,sans-Serif" font-size="10.00">/Z2SoundMgr.h</text>
</a>
</g>
</g>
<!-- Node1&#45;&gt;Node2 -->
<g id="edge1" class="edge">
<title>Node1&#45;&gt;Node2</title>
<path fill="none" stroke="#63b8ff" d="M1048.33,-500.45C1029.5,-490.73 1007.15,-479.2 989.94,-470.31"/>
<polygon fill="#63b8ff" stroke="#63b8ff" points="1046.54,-503.47 1057.03,-504.94 1049.75,-497.25 1046.54,-503.47"/>
</g>
<!-- Node384 -->
<g id="node49" class="node">
<title>Node384</title>
<g id="a_node49"><a xlink:href="JAISeq_8cpp.html" target="_top" xlink:title=" ">
<polygon fill="white" stroke="#666666" points="1141.7,-470 1030.7,-470 1030.7,-440 1141.7,-440 1141.7,-470"/>
<text text-anchor="start" x="1038.7" y="-458" font-family="Helvetica,sans-Serif" font-size="10.00">libs/JSystem/JAudio2</text>
<text text-anchor="middle" x="1086.2" y="-447" font-family="Helvetica,sans-Serif" font-size="10.00">/JAISeq.cpp</text>
</a>
</g>
</g>
<!-- Node1&#45;&gt;Node384 -->
<g id="edge71" class="edge">
<title>Node1&#45;&gt;Node384</title>
<path fill="none" stroke="#63b8ff" d="M1086.2,-494.39C1086.2,-486.13 1086.2,-477.28 1086.2,-470.16"/>
<polygon fill="#63b8ff" stroke="#63b8ff" points="1082.7,-494.28 1086.2,-504.28 1089.7,-494.28 1082.7,-494.28"/>
</g>
<!-- Node385 -->
<g id="node50" class="node">
<title>Node385</title>
<g id="a_node50"><a xlink:href="JAISeqMgr_8cpp.html" target="_top" xlink:title=" ">
<polygon fill="white" stroke="#666666" points="1270.7,-470 1159.7,-470 1159.7,-440 1270.7,-440 1270.7,-470"/>
<text text-anchor="start" x="1167.7" y="-458" font-family="Helvetica,sans-Serif" font-size="10.00">libs/JSystem/JAudio2</text>
<text text-anchor="middle" x="1215.2" y="-447" font-family="Helvetica,sans-Serif" font-size="10.00">/JAISeqMgr.cpp</text>
</a>
</g>
</g>
<!-- Node1&#45;&gt;Node385 -->
<g id="edge72" class="edge">
<title>Node1&#45;&gt;Node385</title>
<path fill="none" stroke="#63b8ff" d="M1125.33,-500.59C1144.98,-490.84 1168.36,-479.24 1186.35,-470.31"/>
<polygon fill="#63b8ff" stroke="#63b8ff" points="1123.91,-497.38 1116.51,-504.96 1127.02,-503.66 1123.91,-497.38"/>
</g>
<!-- Node3 -->
<g id="node3" class="node">
<title>Node3</title>
<g id="a_node3"><a xlink:href="Z2AudioMgr_8h.html" target="_top" xlink:title=" ">
<polygon fill="white" stroke="#666666" points="774.2,-404 674.2,-404 674.2,-374 774.2,-374 774.2,-404"/>
<text text-anchor="start" x="682.2" y="-392" font-family="Helvetica,sans-Serif" font-size="10.00">include/Z2AudioLib</text>
<text text-anchor="middle" x="724.2" y="-381" font-family="Helvetica,sans-Serif" font-size="10.00">/Z2AudioMgr.h</text>
</a>
</g>
</g>
<!-- Node2&#45;&gt;Node3 -->
<g id="edge2" class="edge">
<title>Node2&#45;&gt;Node3</title>
<path fill="none" stroke="#63b8ff" d="M900.73,-437.47C861.55,-426.94 811.42,-413.45 774.6,-403.55"/>
<polygon fill="#63b8ff" stroke="#63b8ff" points="899.7,-440.82 910.27,-440.03 901.52,-434.06 899.7,-440.82"/>
</g>
<!-- Node381 -->
<g id="node46" class="node">
<title>Node381</title>
<g id="a_node46"><a xlink:href="Z2SceneMgr_8cpp.html" target="_top" xlink:title=" ">
<polygon fill="white" stroke="#666666" points="953.7,-398.5 792.7,-398.5 792.7,-379.5 953.7,-379.5 953.7,-398.5"/>
<text text-anchor="middle" x="873.2" y="-386.5" font-family="Helvetica,sans-Serif" font-size="10.00">libs/Z2AudioLib/Z2SceneMgr.cpp</text>
</a>
</g>
</g>
<!-- Node2&#45;&gt;Node381 -->
<g id="edge68" class="edge">
<title>Node2&#45;&gt;Node381</title>
<path fill="none" stroke="#63b8ff" d="M933.36,-433.26C917.17,-421.61 897.8,-407.69 885.5,-398.84"/>
<polygon fill="#63b8ff" stroke="#63b8ff" points="931.06,-435.92 941.22,-438.91 935.15,-430.23 931.06,-435.92"/>
</g>
<!-- Node382 -->
<g id="node47" class="node">
<title>Node382</title>
<g id="a_node47"><a xlink:href="Z2SoundMgr_8cpp.html" target="_top" xlink:title=" ">
<polygon fill="white" stroke="#666666" points="1132.7,-398.5 971.7,-398.5 971.7,-379.5 1132.7,-379.5 1132.7,-398.5"/>
<text text-anchor="middle" x="1052.2" y="-386.5" font-family="Helvetica,sans-Serif" font-size="10.00">libs/Z2AudioLib/Z2SoundMgr.cpp</text>
</a>
</g>
</g>
<!-- Node2&#45;&gt;Node382 -->
<g id="edge69" class="edge">
<title>Node2&#45;&gt;Node382</title>
<path fill="none" stroke="#63b8ff" d="M991.37,-433.26C1007.74,-421.61 1027.33,-407.69 1039.76,-398.84"/>
<polygon fill="#63b8ff" stroke="#63b8ff" points="989.53,-430.27 983.41,-438.92 993.59,-435.98 989.53,-430.27"/>
</g>
<!-- Node383 -->
<g id="node48" class="node">
<title>Node383</title>
<g id="a_node48"><a xlink:href="Z2WolfHowlMgr_8cpp.html" target="_top" xlink:title=" ">
<polygon fill="white" stroke="#666666" points="1291.2,-404 1151.2,-404 1151.2,-374 1291.2,-374 1291.2,-404"/>
<text text-anchor="start" x="1159.2" y="-392" font-family="Helvetica,sans-Serif" font-size="10.00">libs/Z2AudioLib/Z2WolfHowl</text>
<text text-anchor="middle" x="1221.2" y="-381" font-family="Helvetica,sans-Serif" font-size="10.00">Mgr.cpp</text>
</a>
</g>
</g>
<!-- Node2&#45;&gt;Node383 -->
<g id="edge70" class="edge">
<title>Node2&#45;&gt;Node383</title>
<path fill="none" stroke="#63b8ff" d="M1023.42,-438.87C1065.63,-428.44 1121.4,-414.66 1162.95,-404.39"/>
<polygon fill="#63b8ff" stroke="#63b8ff" points="1022.78,-435.42 1013.92,-441.22 1024.46,-442.22 1022.78,-435.42"/>
</g>
<!-- Node4 -->
<g id="node4" class="node">
<title>Node4</title>
<g id="a_node4"><a xlink:href="m__Do__audio_8h.html" target="_top" xlink:title=" ">
<polygon fill="white" stroke="#666666" points="711.2,-338 571.2,-338 571.2,-319 711.2,-319 711.2,-338"/>
<text text-anchor="middle" x="641.2" y="-326" font-family="Helvetica,sans-Serif" font-size="10.00">include/m_Do/m_Do_audio.h</text>
</a>
</g>
</g>
<!-- Node3&#45;&gt;Node4 -->
<g id="edge3" class="edge">
<title>Node3&#45;&gt;Node4</title>
<path fill="none" stroke="#63b8ff" d="M694.34,-366.95C680.27,-357.03 664.25,-345.74 653.51,-338.18"/>
<polygon fill="#63b8ff" stroke="#63b8ff" points="692.26,-369.77 702.45,-372.67 696.29,-364.05 692.26,-369.77"/>
</g>
<!-- Node380 -->
<g id="node45" class="node">
<title>Node380</title>
<g id="a_node45"><a xlink:href="Z2AudioMgr_8cpp.html" target="_top" xlink:title=" ">
<polygon fill="white" stroke="#666666" points="887.2,-338 729.2,-338 729.2,-319 887.2,-319 887.2,-338"/>
<text text-anchor="middle" x="808.2" y="-326" font-family="Helvetica,sans-Serif" font-size="10.00">libs/Z2AudioLib/Z2AudioMgr.cpp</text>
</a>
</g>
</g>
<!-- Node3&#45;&gt;Node380 -->
<g id="edge67" class="edge">
<title>Node3&#45;&gt;Node380</title>
<path fill="none" stroke="#63b8ff" d="M754.01,-367.24C768.36,-357.25 784.77,-345.82 795.75,-338.18"/>
<polygon fill="#63b8ff" stroke="#63b8ff" points="752.41,-364.09 746.21,-372.67 756.41,-369.83 752.41,-364.09"/>
</g>
<!-- Node5 -->
<g id="node5" class="node">
<title>Node5</title>
<g id="a_node5"><a xlink:href="m__Do__ext_8h.html" target="_top" xlink:title=" ">
<polygon fill="white" stroke="#666666" points="1387.2,-283 1257.2,-283 1257.2,-264 1387.2,-264 1387.2,-283"/>
<text text-anchor="middle" x="1322.2" y="-271" font-family="Helvetica,sans-Serif" font-size="10.00">include/m_Do/m_Do_ext.h</text>
</a>
</g>
</g>
<!-- Node4&#45;&gt;Node5 -->
<g id="edge4" class="edge">
<title>Node4&#45;&gt;Node5</title>
<path fill="none" stroke="#63b8ff" d="M722.78,-318.8C923.91,-300.72 1148.68,-285.58 1257.11,-278.6"/>
<polygon fill="#63b8ff" stroke="#63b8ff" points="722.55,-315.3 712.91,-319.69 723.18,-322.27 722.55,-315.3"/>
</g>
<!-- Node10 -->
<g id="node8" class="node">
<title>Node10</title>
<g id="a_node8"><a xlink:href="d__com__inf__game_8cpp.html" target="_top" xlink:title=" ">
<polygon fill="white" stroke="#666666" points="745.2,-30 637.2,-30 637.2,0 745.2,0 745.2,-30"/>
<text text-anchor="start" x="645.2" y="-18" font-family="Helvetica,sans-Serif" font-size="10.00">src/d/com/d_com_inf</text>
<text text-anchor="middle" x="691.2" y="-7" font-family="Helvetica,sans-Serif" font-size="10.00">_game.cpp</text>
</a>
</g>
</g>
<!-- Node4&#45;&gt;Node10 -->
<g id="edge56" class="edge">
<title>Node4&#45;&gt;Node10</title>
<path fill="none" stroke="#63b8ff" d="M559.71,-321.42C387.49,-307.46 2.2,-269.99 2.2,-214 2.2,-214 2.2,-214 2.2,-146 2.2,-109.46 -6.61,-89.71 21.2,-66 67.61,-26.43 485.3,-18.14 636.71,-16.44"/>
<polygon fill="#63b8ff" stroke="#63b8ff" points="559.23,-324.89 569.48,-322.2 559.79,-317.91 559.23,-324.89"/>
</g>
<!-- Node15 -->
<g id="node9" class="node">
<title>Node15</title>
<g id="a_node9"><a xlink:href="d__msg__flow_8cpp.html" target="_top" xlink:title=" ">
<polygon fill="white" stroke="#666666" points="2175.7,-24.5 2042.7,-24.5 2042.7,-5.5 2175.7,-5.5 2175.7,-24.5"/>
<text text-anchor="middle" x="2109.2" y="-12.5" font-family="Helvetica,sans-Serif" font-size="10.00">src/d/msg/d_msg_flow.cpp</text>
</a>
</g>
</g>
<!-- Node4&#45;&gt;Node15 -->
<g id="edge61" class="edge">
<title>Node4&#45;&gt;Node15</title>
<path fill="none" stroke="#63b8ff" d="M722.59,-318.94C1116.45,-295.4 2052.93,-331.11 2425.2,-283 2555.31,-266.19 2712.2,-345.19 2712.2,-214 2712.2,-214 2712.2,-214 2712.2,-146 2712.2,-37.3 2333.04,-19.25 2176.04,-16.43"/>
<polygon fill="#63b8ff" stroke="#63b8ff" points="722.66,-315.43 712.9,-319.54 723.09,-322.41 722.66,-315.43"/>
</g>
<!-- Node162 -->
<g id="node13" class="node">
<title>Node162</title>
<g id="a_node13"><a xlink:href="d__name_8cpp.html" target="_top" xlink:title=" ">
<polygon fill="white" stroke="#666666" points="124.2,-90.5 30.2,-90.5 30.2,-71.5 124.2,-71.5 124.2,-90.5"/>
<text text-anchor="middle" x="77.2" y="-78.5" font-family="Helvetica,sans-Serif" font-size="10.00">src/d/d_name.cpp</text>
</a>
</g>
</g>
<!-- Node4&#45;&gt;Node162 -->
<g id="edge57" class="edge">
<title>Node4&#45;&gt;Node162</title>
<path fill="none" stroke="#63b8ff" d="M559.45,-318.62C514.88,-312.06 459.35,-301.04 412.2,-283 274.74,-230.41 129.61,-122.55 88.59,-90.91"/>
<polygon fill="#63b8ff" stroke="#63b8ff" points="558.93,-322.08 569.32,-320.02 559.92,-315.15 558.93,-322.08"/>
</g>
<!-- Node172 -->
<g id="node14" class="node">
<title>Node172</title>
<g id="a_node14"><a xlink:href="d__event__manager_8cpp.html" target="_top" xlink:title=" ">
<polygon fill="white" stroke="#666666" points="1805.7,-96 1702.7,-96 1702.7,-66 1805.7,-66 1805.7,-96"/>
<text text-anchor="start" x="1710.7" y="-84" font-family="Helvetica,sans-Serif" font-size="10.00">src/d/event/d_event</text>
<text text-anchor="middle" x="1754.2" y="-73" font-family="Helvetica,sans-Serif" font-size="10.00">_manager.cpp</text>
</a>
</g>
</g>
<!-- Node4&#45;&gt;Node172 -->
<g id="edge58" class="edge">
<title>Node4&#45;&gt;Node172</title>
<path fill="none" stroke="#63b8ff" d="M722.63,-319.08C906.19,-310.5 2509.67,-301.02 2579.2,-228 2745.67,-53.18 2648.02,-137.39 1975.2,-96 1917.26,-92.44 1850.78,-88.2 1806,-85.33"/>
<polygon fill="#63b8ff" stroke="#63b8ff" points="722.68,-315.57 712.9,-319.64 723.09,-322.56 722.68,-315.57"/>
</g>
<!-- Node176 -->
<g id="node15" class="node">
<title>Node176</title>
<g id="a_node15"><a xlink:href="d__kankyo__wether_8cpp.html" target="_top" xlink:title=" ">
<polygon fill="white" stroke="#666666" points="835.2,-96 719.2,-96 719.2,-66 835.2,-66 835.2,-96"/>
<text text-anchor="start" x="727.2" y="-84" font-family="Helvetica,sans-Serif" font-size="10.00">src/d/kankyo/d_kankyo</text>
<text text-anchor="middle" x="777.2" y="-73" font-family="Helvetica,sans-Serif" font-size="10.00">_wether.cpp</text>
</a>
</g>
</g>
<!-- Node4&#45;&gt;Node176 -->
<g id="edge60" class="edge">
<title>Node4&#45;&gt;Node176</title>
<path fill="none" stroke="#63b8ff" d="M624.39,-310.28C618.02,-302.58 611.5,-293 608.2,-283 596.35,-247.13 590.6,-231.43 608.2,-198 635.23,-146.67 696.35,-113.68 737.2,-96.48"/>
<polygon fill="#63b8ff" stroke="#63b8ff" points="621.58,-312.39 630.86,-317.51 626.8,-307.72 621.58,-312.39"/>
</g>
<!-- Node193 -->
<g id="node16" class="node">
<title>Node193</title>
<g id="a_node16"><a xlink:href="d__s__name_8cpp.html" target="_top" xlink:title=" ">
<polygon fill="white" stroke="#666666" points="255.7,-90.5 142.7,-90.5 142.7,-71.5 255.7,-71.5 255.7,-90.5"/>
<text text-anchor="middle" x="199.2" y="-78.5" font-family="Helvetica,sans-Serif" font-size="10.00">src/d/s/d_s_name.cpp</text>
</a>
</g>
</g>
<!-- Node4&#45;&gt;Node193 -->
<g id="edge62" class="edge">
<title>Node4&#45;&gt;Node193</title>
<path fill="none" stroke="#63b8ff" d="M560.53,-316.52C525.48,-309.79 484.66,-299.25 450.2,-283 340.63,-231.33 236.47,-122.83 207.27,-90.98"/>
<polygon fill="#63b8ff" stroke="#63b8ff" points="559.73,-319.93 570.2,-318.3 560.99,-313.05 559.73,-319.93"/>
</g>
<!-- Node200 -->
<g id="node17" class="node">
<title>Node200</title>
<g id="a_node17"><a xlink:href="m__Do__audio_8cpp.html" target="_top" xlink:title=" ">
<polygon fill="white" stroke="#666666" points="408.2,-90.5 274.2,-90.5 274.2,-71.5 408.2,-71.5 408.2,-90.5"/>
<text text-anchor="middle" x="341.2" y="-78.5" font-family="Helvetica,sans-Serif" font-size="10.00">src/m_Do/m_Do_audio.cpp</text>
</a>
</g>
</g>
<!-- Node4&#45;&gt;Node200 -->
<g id="edge66" class="edge">
<title>Node4&#45;&gt;Node200</title>
<path fill="none" stroke="#63b8ff" d="M582.57,-315.98C529.84,-302.87 453.35,-276.66 404.2,-228 363.2,-187.4 347.16,-115.78 342.65,-90.85"/>
<polygon fill="#63b8ff" stroke="#63b8ff" points="581.43,-319.3 591.97,-318.23 583.06,-312.5 581.43,-319.3"/>
</g>
<!-- Node59 -->
<g id="node24" class="node">
<title>Node59</title>
<g id="a_node24"><a xlink:href="d__kankyo_8cpp.html" target="_top" xlink:title=" ">
<polygon fill="white" stroke="#666666" points="1135.2,-90.5 1001.2,-90.5 1001.2,-71.5 1135.2,-71.5 1135.2,-90.5"/>
<text text-anchor="middle" x="1068.2" y="-78.5" font-family="Helvetica,sans-Serif" font-size="10.00">src/d/kankyo/d_kankyo.cpp</text>
</a>
</g>
</g>
<!-- Node4&#45;&gt;Node59 -->
<g id="edge59" class="edge">
<title>Node4&#45;&gt;Node59</title>
<path fill="none" stroke="#63b8ff" d="M635.1,-307.8C627.75,-279.72 619.46,-228.25 646.2,-198 679.16,-160.72 819.25,-175.28 867.2,-162 885.35,-156.98 998.36,-110.75 1046.51,-90.94"/>
<polygon fill="#63b8ff" stroke="#63b8ff" points="631.65,-308.48 637.77,-317.13 638.39,-306.55 631.65,-308.48"/>
</g>
<!-- Node64 -->
<g id="node25" class="node">
<title>Node64</title>
<g id="a_node25"><a xlink:href="d__s__play_8cpp.html" target="_top" xlink:title=" ">
<polygon fill="white" stroke="#666666" points="2524.2,-90.5 2418.2,-90.5 2418.2,-71.5 2524.2,-71.5 2524.2,-90.5"/>
<text text-anchor="middle" x="2471.2" y="-78.5" font-family="Helvetica,sans-Serif" font-size="10.00">src/d/s/d_s_play.cpp</text>
</a>
</g>
</g>
<!-- Node4&#45;&gt;Node64 -->
<g id="edge63" class="edge">
<title>Node4&#45;&gt;Node64</title>
<path fill="none" stroke="#63b8ff" d="M722.71,-318.91C1403.53,-275.2 1579.83,-343.8 2256.2,-283 2413.03,-268.9 2503.86,-347.67 2606.2,-228 2618.34,-213.81 2615.31,-153.1 2599.2,-132 2581.4,-108.68 2551.15,-96.22 2524.53,-89.58"/>
<polygon fill="#63b8ff" stroke="#63b8ff" points="722.65,-315.4 712.9,-319.54 723.1,-322.39 722.65,-315.4"/>
</g>
<!-- Node20 -->
<g id="node30" class="node">
<title>Node20</title>
<g id="a_node30"><a xlink:href="d__shop__system_8cpp.html" target="_top" xlink:title=" ">
<polygon fill="white" stroke="#666666" points="1431.2,-90.5 1279.2,-90.5 1279.2,-71.5 1431.2,-71.5 1431.2,-90.5"/>
<text text-anchor="middle" x="1355.2" y="-78.5" font-family="Helvetica,sans-Serif" font-size="10.00">src/d/shop/d_shop_system.cpp</text>
</a>
</g>
</g>
<!-- Node4&#45;&gt;Node20 -->
<g id="edge64" class="edge">
<title>Node4&#45;&gt;Node20</title>
<path fill="none" stroke="#63b8ff" d="M644.38,-307.57C650,-274.96 662.67,-212.41 679.2,-198 720.03,-162.42 866.79,-170.9 920.2,-162 1062.41,-138.31 1230,-106.34 1309.26,-90.97"/>
<polygon fill="#63b8ff" stroke="#63b8ff" points="640.95,-306.85 642.77,-317.29 647.86,-308 640.95,-306.85"/>
</g>
<!-- Node379 -->
<g id="node44" class="node">
<title>Node379</title>
<g id="a_node44"><a xlink:href="m__Do__Reset_8cpp.html" target="_top" xlink:title=" ">
<polygon fill="white" stroke="#666666" points="2876.2,-283 2740.2,-283 2740.2,-264 2876.2,-264 2876.2,-283"/>
<text text-anchor="middle" x="2808.2" y="-271" font-family="Helvetica,sans-Serif" font-size="10.00">src/m_Do/m_Do_Reset.cpp</text>
</a>
</g>
</g>
<!-- Node4&#45;&gt;Node379 -->
<g id="edge65" class="edge">
<title>Node4&#45;&gt;Node379</title>
<path fill="none" stroke="#63b8ff" d="M722.87,-318.9C1612.1,-263.88 1839.94,-336.79 2726.2,-283 2730.63,-282.73 2735.19,-282.4 2739.78,-282.03"/>
<polygon fill="#63b8ff" stroke="#63b8ff" points="722.66,-315.41 712.9,-319.53 723.09,-322.4 722.66,-315.41"/>
</g>
<!-- Node6 -->
<g id="node6" class="node">
<title>Node6</title>
<g id="a_node6"><a xlink:href="d__attention_8h.html" target="_top" xlink:title=" ">
<polygon fill="white" stroke="#666666" points="1336.2,-222.5 1222.2,-222.5 1222.2,-203.5 1336.2,-203.5 1336.2,-222.5"/>
<text text-anchor="middle" x="1279.2" y="-210.5" font-family="Helvetica,sans-Serif" font-size="10.00">include/d/d_attention.h</text>
</a>
</g>
</g>
<!-- Node5&#45;&gt;Node6 -->
<g id="edge5" class="edge">
<title>Node5&#45;&gt;Node6</title>
<path fill="none" stroke="#63b8ff" d="M1309.08,-254.65C1301.28,-244.04 1291.74,-231.06 1285.57,-222.67"/>
<polygon fill="#63b8ff" stroke="#63b8ff" points="1306.22,-256.66 1314.96,-262.65 1311.86,-252.52 1306.22,-256.66"/>
</g>
<!-- Node142 -->
<g id="node11" class="node">
<title>Node142</title>
<g id="a_node11"><a xlink:href="c__dylink_8cpp.html" target="_top" xlink:title=" ">
<polygon fill="white" stroke="#666666" points="521.7,-90.5 426.7,-90.5 426.7,-71.5 521.7,-71.5 521.7,-90.5"/>
<text text-anchor="middle" x="474.2" y="-78.5" font-family="Helvetica,sans-Serif" font-size="10.00">src/c/c_dylink.cpp</text>
</a>
</g>
</g>
<!-- Node5&#45;&gt;Node142 -->
<g id="edge44" class="edge">
<title>Node5&#45;&gt;Node142</title>
<path fill="none" stroke="#63b8ff" d="M1245.43,-271.58C1031.71,-268.64 443.64,-257.87 415.2,-228 406.92,-219.3 402.04,-164.16 417.2,-132 425.79,-113.78 444.47,-99.48 458.12,-90.92"/>
<polygon fill="#63b8ff" stroke="#63b8ff" points="1245.28,-275.08 1255.32,-271.71 1245.37,-268.08 1245.28,-275.08"/>
</g>
<!-- Node201 -->
<g id="node18" class="node">
<title>Node201</title>
<g id="a_node18"><a xlink:href="m__Do__ext_8cpp.html" target="_top" xlink:title=" ">
<polygon fill="white" stroke="#666666" points="662.7,-90.5 539.7,-90.5 539.7,-71.5 662.7,-71.5 662.7,-90.5"/>
<text text-anchor="middle" x="601.2" y="-78.5" font-family="Helvetica,sans-Serif" font-size="10.00">src/m_Do/m_Do_ext.cpp</text>
</a>
</g>
</g>
<!-- Node5&#45;&gt;Node201 -->
<g id="edge52" class="edge">
<title>Node5&#45;&gt;Node201</title>
<path fill="none" stroke="#63b8ff" d="M1245.81,-271.49C1036.06,-268.33 464.87,-257.09 437.2,-228 407.8,-197.08 411.81,-166.29 437.2,-132 444.89,-121.62 517.48,-102.35 563.48,-91"/>
<polygon fill="#63b8ff" stroke="#63b8ff" points="1245.45,-274.98 1255.51,-271.63 1245.56,-267.98 1245.45,-274.98"/>
</g>
<!-- Node204 -->
<g id="node19" class="node">
<title>Node204</title>
<g id="a_node19"><a xlink:href="m__Do__machine__exception_8cpp.html" target="_top" xlink:title=" ">
<polygon fill="white" stroke="#666666" points="982.7,-96 853.7,-96 853.7,-66 982.7,-66 982.7,-96"/>
<text text-anchor="start" x="861.7" y="-84" font-family="Helvetica,sans-Serif" font-size="10.00">src/m_Do/m_Do_machine</text>
<text text-anchor="middle" x="918.2" y="-73" font-family="Helvetica,sans-Serif" font-size="10.00">_exception.cpp</text>
</a>
</g>
</g>
<!-- Node5&#45;&gt;Node204 -->
<g id="edge54" class="edge">
<title>Node5&#45;&gt;Node204</title>
<path fill="none" stroke="#63b8ff" d="M1245.39,-270.38C1193.73,-266.27 1125.44,-255.46 1071.2,-228 1037.95,-211.16 961.23,-129.22 930.89,-96.02"/>
<polygon fill="#63b8ff" stroke="#63b8ff" points="1245.07,-273.87 1255.3,-271.1 1245.58,-266.89 1245.07,-273.87"/>
</g>
<!-- Node208 -->
<g id="node21" class="node">
<title>Node208</title>
<g id="a_node21"><a xlink:href="d__drawlist_8h.html" target="_top" xlink:title=" ">
<polygon fill="#fff0f0" stroke="red" points="2570.2,-222.5 2460.2,-222.5 2460.2,-203.5 2570.2,-203.5 2570.2,-222.5"/>
<text text-anchor="middle" x="2515.2" y="-210.5" font-family="Helvetica,sans-Serif" font-size="10.00">include/d/d_drawlist.h</text>
</a>
</g>
</g>
<!-- Node5&#45;&gt;Node208 -->
<g id="edge22" class="edge">
<title>Node5&#45;&gt;Node208</title>
<path fill="none" stroke="#63b8ff" d="M1399.08,-271.23C1618.84,-267.33 2247.03,-254.15 2451.2,-228 2460.45,-226.82 2470.34,-224.95 2479.52,-222.97"/>
<polygon fill="#63b8ff" stroke="#63b8ff" points="1399.13,-267.73 1389.19,-271.41 1399.25,-274.73 1399.13,-267.73"/>
</g>
<!-- Node212 -->
<g id="node23" class="node">
<title>Node212</title>
<g id="a_node23"><a xlink:href="d__a__do_8h.html" target="_top" xlink:title=" ">
<polygon fill="white" stroke="#666666" points="2080.2,-96 1984.2,-96 1984.2,-66 2080.2,-66 2080.2,-96"/>
<text text-anchor="start" x="1992.2" y="-84" font-family="Helvetica,sans-Serif" font-size="10.00">include/rel/d/a/d_a</text>
<text text-anchor="middle" x="2032.2" y="-73" font-family="Helvetica,sans-Serif" font-size="10.00">_do/d_a_do.h</text>
</a>
</g>
</g>
<!-- Node5&#45;&gt;Node212 -->
<g id="edge42" class="edge">
<title>Node5&#45;&gt;Node212</title>
<path fill="none" stroke="#63b8ff" d="M1398.79,-272.68C1665.28,-272.95 2538.11,-270.57 2579.2,-228 2590.56,-216.23 2601.67,-157.32 2578.2,-132 2544.68,-95.82 2207.58,-85.45 2080.41,-82.81"/>
<polygon fill="#63b8ff" stroke="#63b8ff" points="1398.83,-269.18 1388.82,-272.67 1398.82,-276.18 1398.83,-269.18"/>
</g>
<!-- Node134 -->
<g id="node26" class="node">
<title>Node134</title>
<g id="a_node26"><a xlink:href="f__op__actor__mng_8cpp.html" target="_top" xlink:title=" ">
<polygon fill="white" stroke="#666666" points="1684.7,-96 1583.7,-96 1583.7,-66 1684.7,-66 1684.7,-96"/>
<text text-anchor="start" x="1591.7" y="-84" font-family="Helvetica,sans-Serif" font-size="10.00">src/f_op/f_op_actor</text>
<text text-anchor="middle" x="1634.2" y="-73" font-family="Helvetica,sans-Serif" font-size="10.00">_mng.cpp</text>
</a>
</g>
</g>
<!-- Node5&#45;&gt;Node134 -->
<g id="edge48" class="edge">
<title>Node5&#45;&gt;Node134</title>
<path fill="none" stroke="#63b8ff" d="M1333.8,-254.02C1344.86,-237.59 1362.82,-213.78 1383.2,-198 1446.78,-148.78 1534.62,-114.31 1587.75,-96.36"/>
<polygon fill="#63b8ff" stroke="#63b8ff" points="1330.91,-252.04 1328.39,-262.33 1336.78,-255.85 1330.91,-252.04"/>
</g>
<!-- Node250 -->
<g id="node32" class="node">
<title>Node250</title>
<g id="a_node32"><a xlink:href="d__ky__thunder_8h.html" target="_top" xlink:title=" ">
<polygon fill="#fff0f0" stroke="red" points="1204.2,-222.5 1080.2,-222.5 1080.2,-203.5 1204.2,-203.5 1204.2,-222.5"/>
<text text-anchor="middle" x="1142.2" y="-210.5" font-family="Helvetica,sans-Serif" font-size="10.00">include/d/d_ky_thunder.h</text>
</a>
</g>
</g>
<!-- Node5&#45;&gt;Node250 -->
<g id="edge36" class="edge">
<title>Node5&#45;&gt;Node250</title>
<path fill="none" stroke="#63b8ff" d="M1284.32,-260.19C1250.07,-249.06 1200.43,-232.92 1169.8,-222.97"/>
<polygon fill="#63b8ff" stroke="#63b8ff" points="1282.83,-263.38 1293.42,-263.15 1285,-256.73 1282.83,-263.38"/>
</g>
<!-- Node251 -->
<g id="node33" class="node">
<title>Node251</title>
<g id="a_node33"><a xlink:href="d__resorce_8h.html" target="_top" xlink:title=" ">
<polygon fill="#fff0f0" stroke="red" points="555.7,-222.5 446.7,-222.5 446.7,-203.5 555.7,-203.5 555.7,-222.5"/>
<text text-anchor="middle" x="501.2" y="-210.5" font-family="Helvetica,sans-Serif" font-size="10.00">include/d/d_resorce.h</text>
</a>
</g>
</g>
<!-- Node5&#45;&gt;Node251 -->
<g id="edge37" class="edge">
<title>Node5&#45;&gt;Node251</title>
<path fill="none" stroke="#63b8ff" d="M1245.65,-267.44C1125.13,-259.41 883.79,-243.13 679.2,-228 637.93,-224.95 591.3,-221.27 556.12,-218.45"/>
<polygon fill="#63b8ff" stroke="#63b8ff" points="1245.21,-270.91 1255.42,-268.09 1245.67,-263.93 1245.21,-270.91"/>
</g>
<!-- Node252 -->
<g id="node34" class="node">
<title>Node252</title>
<g id="a_node34"><a xlink:href="d__kankyo_8h.html" target="_top" xlink:title=" ">
<polygon fill="#fff0f0" stroke="red" points="858.2,-162 760.2,-162 760.2,-132 858.2,-132 858.2,-162"/>
<text text-anchor="start" x="768.2" y="-150" font-family="Helvetica,sans-Serif" font-size="10.00">include/d/kankyo/d</text>
<text text-anchor="middle" x="809.2" y="-139" font-family="Helvetica,sans-Serif" font-size="10.00">_kankyo.h</text>
</a>
</g>
</g>
<!-- Node5&#45;&gt;Node252 -->
<g id="edge39" class="edge">
<title>Node5&#45;&gt;Node252</title>
<path fill="none" stroke="#63b8ff" d="M1245.43,-269.83C1186.83,-265.59 1105.05,-254.88 1038.2,-228 1016.58,-219.31 1016.33,-207.84 995.2,-198 971.1,-186.78 905.19,-170.21 858.7,-159.26"/>
<polygon fill="#63b8ff" stroke="#63b8ff" points="1245.11,-273.31 1255.32,-270.49 1245.58,-266.33 1245.11,-273.31"/>
</g>
<!-- Node370 -->
<g id="node35" class="node">
<title>Node370</title>
<g id="a_node35"><a xlink:href="DynamicLink_8cpp.html" target="_top" xlink:title=" ">
<polygon fill="white" stroke="#666666" points="1499.7,-222.5 1392.7,-222.5 1392.7,-203.5 1499.7,-203.5 1499.7,-222.5"/>
<text text-anchor="middle" x="1446.2" y="-210.5" font-family="Helvetica,sans-Serif" font-size="10.00">src/DynamicLink.cpp</text>
</a>
</g>
</g>
<!-- Node5&#45;&gt;Node370 -->
<g id="edge43" class="edge">
<title>Node5&#45;&gt;Node370</title>
<path fill="none" stroke="#63b8ff" d="M1351.42,-258.72C1374.83,-247.67 1407,-232.49 1427.19,-222.97"/>
<polygon fill="#63b8ff" stroke="#63b8ff" points="1349.95,-255.54 1342.4,-262.97 1352.94,-261.87 1349.95,-255.54"/>
</g>
<!-- Node371 -->
<g id="node36" class="node">
<title>Node371</title>
<g id="a_node36"><a xlink:href="d__meter__HIO_8cpp.html" target="_top" xlink:title=" ">
<polygon fill="white" stroke="#666666" points="1622.2,-228 1518.2,-228 1518.2,-198 1622.2,-198 1622.2,-228"/>
<text text-anchor="start" x="1526.2" y="-216" font-family="Helvetica,sans-Serif" font-size="10.00">src/d/meter/d_meter</text>
<text text-anchor="middle" x="1570.2" y="-205" font-family="Helvetica,sans-Serif" font-size="10.00">_HIO.cpp</text>
</a>
</g>
</g>
<!-- Node5&#45;&gt;Node371 -->
<g id="edge45" class="edge">
<title>Node5&#45;&gt;Node371</title>
<path fill="none" stroke="#63b8ff" d="M1371.3,-260.92C1413.68,-250.92 1474.74,-236.52 1518.01,-226.31"/>
<polygon fill="#63b8ff" stroke="#63b8ff" points="1370.54,-257.5 1361.61,-263.2 1372.15,-264.31 1370.54,-257.5"/>
</g>
<!-- Node372 -->
<g id="node37" class="node">
<title>Node372</title>
<g id="a_node37"><a xlink:href="d__pane__class_8cpp.html" target="_top" xlink:title=" ">
<polygon fill="white" stroke="#666666" points="1783.7,-222.5 1640.7,-222.5 1640.7,-203.5 1783.7,-203.5 1783.7,-222.5"/>
<text text-anchor="middle" x="1712.2" y="-210.5" font-family="Helvetica,sans-Serif" font-size="10.00">src/d/pane/d_pane_class.cpp</text>
</a>
</g>
</g>
<!-- Node5&#45;&gt;Node372 -->
<g id="edge46" class="edge">
<title>Node5&#45;&gt;Node372</title>
<path fill="none" stroke="#63b8ff" d="M1399.04,-262.05C1461.61,-253.39 1552.21,-240.51 1631.2,-228 1641.07,-226.44 1651.6,-224.68 1661.68,-222.96"/>
<polygon fill="#63b8ff" stroke="#63b8ff" points="1398.61,-258.57 1389.19,-263.41 1399.57,-265.51 1398.61,-258.57"/>
</g>
<!-- Node373 -->
<g id="node38" class="node">
<title>Node373</title>
<g id="a_node38"><a xlink:href="d__pane__class__alpha_8cpp.html" target="_top" xlink:title=" ">
<polygon fill="white" stroke="#666666" points="1926.7,-228 1801.7,-228 1801.7,-198 1926.7,-198 1926.7,-228"/>
<text text-anchor="start" x="1809.7" y="-216" font-family="Helvetica,sans-Serif" font-size="10.00">src/d/pane/d_pane_class</text>
<text text-anchor="middle" x="1864.2" y="-205" font-family="Helvetica,sans-Serif" font-size="10.00">_alpha.cpp</text>
</a>
</g>
</g>
<!-- Node5&#45;&gt;Node373 -->
<g id="edge47" class="edge">
<title>Node5&#45;&gt;Node373</title>
<path fill="none" stroke="#63b8ff" d="M1398.75,-267.56C1491.99,-261.01 1654.17,-247.91 1792.2,-228 1795.23,-227.56 1798.32,-227.09 1801.43,-226.58"/>
<polygon fill="#63b8ff" stroke="#63b8ff" points="1398.69,-264.05 1388.96,-268.24 1399.17,-271.04 1398.69,-264.05"/>
</g>
<!-- Node374 -->
<g id="node39" class="node">
<title>Node374</title>
<g id="a_node39"><a xlink:href="m__Do__DVDError_8cpp.html" target="_top" xlink:title=" ">
<polygon fill="white" stroke="#666666" points="2095.7,-222.5 1944.7,-222.5 1944.7,-203.5 2095.7,-203.5 2095.7,-222.5"/>
<text text-anchor="middle" x="2020.2" y="-210.5" font-family="Helvetica,sans-Serif" font-size="10.00">src/m_Do/m_Do_DVDError.cpp</text>
</a>
</g>
</g>
<!-- Node5&#45;&gt;Node374 -->
<g id="edge49" class="edge">
<title>Node5&#45;&gt;Node374</title>
<path fill="none" stroke="#63b8ff" d="M1398.48,-269.19C1514.63,-263.65 1742.67,-250.8 1935.2,-228 1946.64,-226.65 1958.88,-224.84 1970.42,-222.98"/>
<polygon fill="#63b8ff" stroke="#63b8ff" points="1398.59,-265.68 1388.77,-269.65 1398.92,-272.67 1398.59,-265.68"/>
</g>
<!-- Node375 -->
<g id="node40" class="node">
<title>Node375</title>
<g id="a_node40"><a xlink:href="m__Do__MemCard_8cpp.html" target="_top" xlink:title=" ">
<polygon fill="white" stroke="#666666" points="2266.2,-222.5 2114.2,-222.5 2114.2,-203.5 2266.2,-203.5 2266.2,-222.5"/>
<text text-anchor="middle" x="2190.2" y="-210.5" font-family="Helvetica,sans-Serif" font-size="10.00">src/m_Do/m_Do_MemCard.cpp</text>
</a>
</g>
</g>
<!-- Node5&#45;&gt;Node375 -->
<g id="edge50" class="edge">
<title>Node5&#45;&gt;Node375</title>
<path fill="none" stroke="#63b8ff" d="M1398.97,-270.79C1539.34,-267.08 1846.67,-256.21 2104.2,-228 2116.08,-226.7 2128.82,-224.87 2140.75,-222.96"/>
<polygon fill="#63b8ff" stroke="#63b8ff" points="1398.95,-267.29 1389.04,-271.05 1399.13,-274.29 1398.95,-267.29"/>
</g>
<!-- Node376 -->
<g id="node41" class="node">
<title>Node376</title>
<g id="a_node41"><a xlink:href="m__Do__dvd__thread_8cpp.html" target="_top" xlink:title=" ">
<polygon fill="white" stroke="#666666" points="2442.2,-222.5 2284.2,-222.5 2284.2,-203.5 2442.2,-203.5 2442.2,-222.5"/>
<text text-anchor="middle" x="2363.2" y="-210.5" font-family="Helvetica,sans-Serif" font-size="10.00">src/m_Do/m_Do_dvd_thread.cpp</text>
</a>
</g>
</g>
<!-- Node5&#45;&gt;Node376 -->
<g id="edge51" class="edge">
<title>Node5&#45;&gt;Node376</title>
<path fill="none" stroke="#63b8ff" d="M1398.95,-271.8C1561.15,-269.7 1950.58,-261.3 2275.2,-228 2287.51,-226.74 2300.72,-224.9 2313.07,-222.96"/>
<polygon fill="#63b8ff" stroke="#63b8ff" points="1399.14,-268.3 1389.18,-271.93 1399.23,-275.3 1399.14,-268.3"/>
</g>
<!-- Node377 -->
<g id="node42" class="node">
<title>Node377</title>
<g id="a_node42"><a xlink:href="m__Do__machine_8cpp.html" target="_top" xlink:title=" ">
<polygon fill="white" stroke="#666666" points="835.7,-222.5 688.7,-222.5 688.7,-203.5 835.7,-203.5 835.7,-222.5"/>
<text text-anchor="middle" x="762.2" y="-210.5" font-family="Helvetica,sans-Serif" font-size="10.00">src/m_Do/m_Do_machine.cpp</text>
</a>
</g>
</g>
<!-- Node5&#45;&gt;Node377 -->
<g id="edge53" class="edge">
<title>Node5&#45;&gt;Node377</title>
<path fill="none" stroke="#63b8ff" d="M1245.4,-267.1C1150.97,-260.05 985.92,-246.41 845.2,-228 834.33,-226.58 822.71,-224.79 811.71,-222.97"/>
<polygon fill="#63b8ff" stroke="#63b8ff" points="1245.09,-270.58 1255.33,-267.83 1245.61,-263.6 1245.09,-270.58"/>
</g>
<!-- Node378 -->
<g id="node43" class="node">
<title>Node378</title>
<g id="a_node43"><a xlink:href="m__Do__printf_8cpp.html" target="_top" xlink:title=" ">
<polygon fill="white" stroke="#666666" points="986.2,-222.5 854.2,-222.5 854.2,-203.5 986.2,-203.5 986.2,-222.5"/>
<text text-anchor="middle" x="920.2" y="-210.5" font-family="Helvetica,sans-Serif" font-size="10.00">src/m_Do/m_Do_printf.cpp</text>
</a>
</g>
</g>
<!-- Node5&#45;&gt;Node378 -->
<g id="edge55" class="edge">
<title>Node5&#45;&gt;Node378</title>
<path fill="none" stroke="#63b8ff" d="M1245.71,-262.72C1180.4,-254.17 1084,-241.12 1000.2,-228 990.31,-226.45 979.75,-224.69 969.66,-222.94"/>
<polygon fill="#63b8ff" stroke="#63b8ff" points="1244.86,-266.13 1255.23,-263.96 1245.77,-259.19 1244.86,-266.13"/>
</g>
<!-- Node7 -->
<g id="node7" class="node">
<title>Node7</title>
<g id="a_node7"><a xlink:href="d__a__alink_8h.html" target="_top" xlink:title=" ">
<polygon fill="#fff0f0" stroke="red" points="1565.2,-90.5 1449.2,-90.5 1449.2,-71.5 1565.2,-71.5 1565.2,-90.5"/>
<text text-anchor="middle" x="1507.2" y="-78.5" font-family="Helvetica,sans-Serif" font-size="10.00">include/d/a/d_a_alink.h</text>
</a>
</g>
</g>
<!-- Node6&#45;&gt;Node7 -->
<g id="edge6" class="edge">
<title>Node6&#45;&gt;Node7</title>
<path fill="none" stroke="#63b8ff" d="M1278.44,-191.87C1278.89,-173.77 1282.54,-147.68 1298.2,-132 1304.15,-126.04 1405.61,-103.63 1464.94,-90.93"/>
<polygon fill="#63b8ff" stroke="#63b8ff" points="1274.94,-191.66 1278.53,-201.62 1281.94,-191.59 1274.94,-191.66"/>
</g>
<!-- Node17 -->
<g id="node10" class="node">
<title>Node17</title>
<g id="a_node10"><a xlink:href="d__com__inf__game_8h.html" target="_top" xlink:title=" ">
<polygon fill="#fff0f0" stroke="red" points="556.2,-162 446.2,-162 446.2,-132 556.2,-132 556.2,-162"/>
<text text-anchor="start" x="454.2" y="-150" font-family="Helvetica,sans-Serif" font-size="10.00">include/d/com/d_com</text>
<text text-anchor="middle" x="501.2" y="-139" font-family="Helvetica,sans-Serif" font-size="10.00">_inf_game.h</text>
</a>
</g>
</g>
<!-- Node6&#45;&gt;Node17 -->
<g id="edge9" class="edge">
<title>Node6&#45;&gt;Node17</title>
<path fill="none" stroke="#63b8ff" d="M1230.37,-200.85C1224.6,-199.77 1218.79,-198.78 1213.2,-198 1148.89,-188.97 712.5,-161.2 556.5,-151.44"/>
<polygon fill="#63b8ff" stroke="#63b8ff" points="1229.35,-204.22 1239.84,-202.73 1230.71,-197.35 1229.35,-204.22"/>
</g>
<!-- Node150 -->
<g id="node12" class="node">
<title>Node150</title>
<g id="a_node12"><a xlink:href="d__attention_8cpp.html" target="_top" xlink:title=" ">
<polygon fill="white" stroke="#666666" points="1260.7,-90.5 1153.7,-90.5 1153.7,-71.5 1260.7,-71.5 1260.7,-90.5"/>
<text text-anchor="middle" x="1207.2" y="-78.5" font-family="Helvetica,sans-Serif" font-size="10.00">src/d/d_attention.cpp</text>
</a>
</g>
</g>
<!-- Node6&#45;&gt;Node150 -->
<g id="edge21" class="edge">
<title>Node6&#45;&gt;Node150</title>
<path fill="none" stroke="#63b8ff" d="M1268.77,-193.17C1253.04,-164.76 1223.83,-112.03 1212.19,-91"/>
<polygon fill="#63b8ff" stroke="#63b8ff" points="1265.61,-194.69 1273.52,-201.74 1271.74,-191.3 1265.61,-194.69"/>
</g>
<!-- Node207 -->
<g id="node20" class="node">
<title>Node207</title>
<g id="a_node20"><a xlink:href="d__att__dist_8cpp.html" target="_top" xlink:title=" ">
<polygon fill="white" stroke="#666666" points="1213.2,-156.5 1111.2,-156.5 1111.2,-137.5 1213.2,-137.5 1213.2,-156.5"/>
<text text-anchor="middle" x="1162.2" y="-144.5" font-family="Helvetica,sans-Serif" font-size="10.00">src/d/d_att_dist.cpp</text>
</a>
</g>
</g>
<!-- Node6&#45;&gt;Node207 -->
<g id="edge20" class="edge">
<title>Node6&#45;&gt;Node207</title>
<path fill="none" stroke="#63b8ff" d="M1252.87,-197.59C1229.98,-185.08 1197.57,-167.34 1178.33,-156.82"/>
<polygon fill="#63b8ff" stroke="#63b8ff" points="1251.15,-200.65 1261.61,-202.37 1254.51,-194.51 1251.15,-200.65"/>
</g>
<!-- Node7&#45;&gt;Node10 -->
<g id="edge7" class="edge">
<title>Node7&#45;&gt;Node10</title>
<path fill="none" stroke="#63b8ff" d="M1457.63,-68.84C1451.77,-67.76 1445.87,-66.78 1440.2,-66 1181.65,-30.53 869.29,-19.96 745.51,-17.03"/>
<polygon fill="#63b8ff" stroke="#63b8ff" points="1456.77,-72.24 1467.26,-70.72 1458.11,-65.37 1456.77,-72.24"/>
</g>
<!-- Node7&#45;&gt;Node15 -->
<g id="edge8" class="edge">
<title>Node7&#45;&gt;Node15</title>
<path fill="none" stroke="#63b8ff" d="M1557.68,-68.82C1563.24,-67.78 1568.83,-66.81 1574.2,-66 1741.86,-40.73 1941.12,-26.14 2042.6,-19.8"/>
<polygon fill="#63b8ff" stroke="#63b8ff" points="1557.02,-65.38 1547.88,-70.75 1558.37,-72.25 1557.02,-65.38"/>
</g>
<!-- Node17&#45;&gt;Node10 -->
<g id="edge11" class="edge">
<title>Node17&#45;&gt;Node10</title>
<path fill="none" stroke="#63b8ff" d="M567.41,-129.88C611.85,-118.49 663.62,-103.9 671.2,-96 688.25,-78.23 691.42,-48.23 691.66,-30.45"/>
<polygon fill="#63b8ff" stroke="#63b8ff" points="566.6,-126.47 557.77,-132.32 568.32,-133.26 566.6,-126.47"/>
</g>
<!-- Node17&#45;&gt;Node142 -->
<g id="edge10" class="edge">
<title>Node17&#45;&gt;Node142</title>
<path fill="none" stroke="#63b8ff" d="M490.77,-121.27C486.25,-110.55 481.25,-98.7 477.93,-90.84"/>
<polygon fill="#63b8ff" stroke="#63b8ff" points="487.51,-122.55 494.62,-130.4 493.96,-119.83 487.51,-122.55"/>
</g>
<!-- Node17&#45;&gt;Node150 -->
<g id="edge12" class="edge">
<title>Node17&#45;&gt;Node150</title>
<path fill="none" stroke="#63b8ff" d="M568,-142.01C709.29,-133.36 1034.47,-112.38 1144.2,-96 1152.96,-94.69 1162.31,-92.86 1171.05,-90.95"/>
<polygon fill="#63b8ff" stroke="#63b8ff" points="567.81,-138.51 558.04,-142.61 568.23,-145.5 567.81,-138.51"/>
</g>
<!-- Node17&#45;&gt;Node162 -->
<g id="edge13" class="edge">
<title>Node17&#45;&gt;Node162</title>
<path fill="none" stroke="#63b8ff" d="M434.72,-139.19C360.74,-131.1 237.84,-116.13 133.2,-96 125.82,-94.58 117.96,-92.79 110.53,-90.97"/>
<polygon fill="#63b8ff" stroke="#63b8ff" points="433.89,-142.62 444.21,-140.22 434.65,-135.67 433.89,-142.62"/>
</g>
<!-- Node17&#45;&gt;Node172 -->
<g id="edge14" class="edge">
<title>Node17&#45;&gt;Node172</title>
<path fill="none" stroke="#63b8ff" d="M567.68,-141.96C618.05,-138.97 688.96,-134.93 751.2,-132 1169.71,-112.29 1277.87,-151.1 1693.2,-96 1696.22,-95.6 1699.3,-95.12 1702.41,-94.58"/>
<polygon fill="#63b8ff" stroke="#63b8ff" points="567.58,-138.45 557.81,-142.54 568,-145.44 567.58,-138.45"/>
</g>
<!-- Node17&#45;&gt;Node176 -->
<g id="edge15" class="edge">
<title>Node17&#45;&gt;Node176</title>
<path fill="none" stroke="#63b8ff" d="M567.48,-130.63C613.58,-119.94 674.48,-105.82 718.77,-95.55"/>
<polygon fill="#63b8ff" stroke="#63b8ff" points="566.82,-127.19 557.87,-132.86 568.4,-134.01 566.82,-127.19"/>
</g>
<!-- Node17&#45;&gt;Node193 -->
<g id="edge16" class="edge">
<title>Node17&#45;&gt;Node193</title>
<path fill="none" stroke="#63b8ff" d="M434.87,-131.95C387.57,-121.93 322.48,-108.14 265.2,-96 257.52,-94.37 249.35,-92.64 241.45,-90.96"/>
<polygon fill="#63b8ff" stroke="#63b8ff" points="433.9,-135.32 444.41,-133.97 435.35,-128.47 433.9,-135.32"/>
</g>
<!-- Node17&#45;&gt;Node200 -->
<g id="edge17" class="edge">
<title>Node17&#45;&gt;Node200</title>
<path fill="none" stroke="#63b8ff" d="M454.65,-127.38C424.72,-115.41 387.16,-100.38 363.67,-90.99"/>
<polygon fill="#63b8ff" stroke="#63b8ff" points="453.3,-130.61 463.89,-131.08 455.9,-124.11 453.3,-130.61"/>
</g>
<!-- Node17&#45;&gt;Node201 -->
<g id="edge18" class="edge">
<title>Node17&#45;&gt;Node201</title>
<path fill="none" stroke="#63b8ff" d="M532.85,-125.75C551.19,-114.01 573.37,-99.81 587.38,-90.84"/>
<polygon fill="#63b8ff" stroke="#63b8ff" points="531.21,-122.64 524.67,-130.98 534.98,-128.54 531.21,-122.64"/>
</g>
<!-- Node17&#45;&gt;Node204 -->
<g id="edge19" class="edge">
<title>Node17&#45;&gt;Node204</title>
<path fill="none" stroke="#63b8ff" d="M567.72,-137.15C636.91,-127.75 748.34,-112.05 844.2,-96 847.17,-95.5 850.2,-94.98 853.26,-94.45"/>
<polygon fill="#63b8ff" stroke="#63b8ff" points="567.5,-133.65 558.06,-138.46 568.44,-140.59 567.5,-133.65"/>
</g>
<!-- Node209 -->
<g id="node22" class="node">
<title>Node209</title>
<g id="a_node22"><a xlink:href="d__a__player_8h.html" target="_top" xlink:title=" ">
<polygon fill="#fff0f0" stroke="red" points="1754.7,-156.5 1633.7,-156.5 1633.7,-137.5 1754.7,-137.5 1754.7,-156.5"/>
<text text-anchor="middle" x="1694.2" y="-144.5" font-family="Helvetica,sans-Serif" font-size="10.00">include/d/a/d_a_player.h</text>
</a>
</g>
</g>
<!-- Node208&#45;&gt;Node209 -->
<g id="edge23" class="edge">
<title>Node208&#45;&gt;Node209</title>
<path fill="none" stroke="#63b8ff" d="M2467.64,-200.77C2462.12,-199.72 2456.55,-198.76 2451.2,-198 2193.97,-161.58 1883.72,-151.6 1754.87,-148.94"/>
<polygon fill="#63b8ff" stroke="#63b8ff" points="2466.84,-204.18 2477.34,-202.75 2468.24,-197.32 2466.84,-204.18"/>
</g>
<!-- Node215 -->
<g id="node27" class="node">
<title>Node215</title>
<g id="a_node27"><a xlink:href="d__camera_8h.html" target="_top" xlink:title=" ">
<polygon fill="#fff0f0" stroke="red" points="2569.7,-156.5 2460.7,-156.5 2460.7,-137.5 2569.7,-137.5 2569.7,-156.5"/>
<text text-anchor="middle" x="2515.2" y="-144.5" font-family="Helvetica,sans-Serif" font-size="10.00">include/d/d_camera.h</text>
</a>
</g>
</g>
<!-- Node208&#45;&gt;Node215 -->
<g id="edge31" class="edge">
<title>Node208&#45;&gt;Node215</title>
<path fill="none" stroke="#63b8ff" d="M2515.2,-191.68C2515.2,-179.94 2515.2,-165.77 2515.2,-156.82"/>
<polygon fill="#63b8ff" stroke="#63b8ff" points="2511.7,-191.59 2515.2,-201.59 2518.7,-191.59 2511.7,-191.59"/>
</g>
<!-- Node220 -->
<g id="node28" class="node">
<title>Node220</title>
<g id="a_node28"><a xlink:href="d__kantera__icon__meter_8h.html" target="_top" xlink:title=" ">
<polygon fill="#fff0f0" stroke="red" points="2327.7,-162 2226.7,-162 2226.7,-132 2327.7,-132 2327.7,-162"/>
<text text-anchor="start" x="2234.7" y="-150" font-family="Helvetica,sans-Serif" font-size="10.00">include/d/d_kantera</text>
<text text-anchor="middle" x="2277.2" y="-139" font-family="Helvetica,sans-Serif" font-size="10.00">_icon_meter.h</text>
</a>
</g>
</g>
<!-- Node208&#45;&gt;Node220 -->
<g id="edge32" class="edge">
<title>Node208&#45;&gt;Node220</title>
<path fill="none" stroke="#63b8ff" d="M2470.96,-200.1C2430.36,-189.18 2370.25,-173.02 2327.77,-161.6"/>
<polygon fill="#63b8ff" stroke="#63b8ff" points="2469.83,-203.42 2480.4,-202.64 2471.65,-196.66 2469.83,-203.42"/>
</g>
<!-- Node221 -->
<g id="node29" class="node">
<title>Node221</title>
<g id="a_node29"><a xlink:href="d__select__cursor_8h.html" target="_top" xlink:title=" ">
<polygon fill="#fff0f0" stroke="red" points="1402.7,-162 1307.7,-162 1307.7,-132 1402.7,-132 1402.7,-162"/>
<text text-anchor="start" x="1315.7" y="-150" font-family="Helvetica,sans-Serif" font-size="10.00">include/d/d_select</text>
<text text-anchor="middle" x="1355.2" y="-139" font-family="Helvetica,sans-Serif" font-size="10.00">_cursor.h</text>
</a>
</g>
</g>
<!-- Node208&#45;&gt;Node221 -->
<g id="edge33" class="edge">
<title>Node208&#45;&gt;Node221</title>
<path fill="none" stroke="#63b8ff" d="M2468.52,-200.82C2462.71,-199.71 2456.84,-198.73 2451.2,-198 2086.38,-150.51 1991.69,-179.56 1624.2,-162 1546.66,-158.29 1456.57,-153.51 1402.82,-150.6"/>
<polygon fill="#63b8ff" stroke="#63b8ff" points="2467.53,-204.19 2478.03,-202.76 2468.93,-197.33 2467.53,-204.19"/>
</g>
<!-- Node225 -->
<g id="node31" class="node">
<title>Node225</title>
<g id="a_node31"><a xlink:href="d__file__sel__info_8h.html" target="_top" xlink:title=" ">
<polygon fill="#fff0f0" stroke="red" points="2442.2,-162 2346.2,-162 2346.2,-132 2442.2,-132 2442.2,-162"/>
<text text-anchor="start" x="2354.2" y="-150" font-family="Helvetica,sans-Serif" font-size="10.00">include/d/file/d_file</text>
<text text-anchor="middle" x="2394.2" y="-139" font-family="Helvetica,sans-Serif" font-size="10.00">_sel_info.h</text>
</a>
</g>
</g>
<!-- Node208&#45;&gt;Node225 -->
<g id="edge35" class="edge">
<title>Node208&#45;&gt;Node225</title>
<path fill="none" stroke="#63b8ff" d="M2488.44,-197.85C2468.58,-187.34 2441.58,-173.06 2421.57,-162.48"/>
<polygon fill="#63b8ff" stroke="#63b8ff" points="2486.56,-200.81 2497.04,-202.39 2489.84,-194.62 2486.56,-200.81"/>
</g>
<!-- Node209&#45;&gt;Node7 -->
<g id="edge24" class="edge">
<title>Node209&#45;&gt;Node7</title>
<path fill="none" stroke="#63b8ff" d="M1657.49,-133.43C1620.89,-120.91 1565.61,-101.99 1533.28,-90.93"/>
<polygon fill="#63b8ff" stroke="#63b8ff" points="1656.17,-136.68 1666.77,-136.61 1658.44,-130.06 1656.17,-136.68"/>
</g>
<!-- Node209&#45;&gt;Node150 -->
<g id="edge26" class="edge">
<title>Node209&#45;&gt;Node150</title>
<path fill="none" stroke="#63b8ff" d="M1622.26,-139.76C1537.66,-131.9 1393.17,-116.86 1270.2,-96 1261.92,-94.59 1253.08,-92.81 1244.72,-90.99"/>
<polygon fill="#63b8ff" stroke="#63b8ff" points="1621.76,-143.22 1632.04,-140.66 1622.4,-136.25 1621.76,-143.22"/>
</g>
<!-- Node209&#45;&gt;Node172 -->
<g id="edge27" class="edge">
<title>Node209&#45;&gt;Node172</title>
<path fill="none" stroke="#63b8ff" d="M1710.19,-128.95C1719.77,-118.73 1731.8,-105.9 1740.86,-96.23"/>
<polygon fill="#63b8ff" stroke="#63b8ff" points="1707.87,-126.31 1703.58,-136 1712.97,-131.1 1707.87,-126.31"/>
</g>
<!-- Node209&#45;&gt;Node212 -->
<g id="edge25" class="edge">
<title>Node209&#45;&gt;Node212</title>
<path fill="none" stroke="#63b8ff" d="M1752.49,-134.96C1817.88,-122.58 1922.76,-102.72 1983.8,-91.16"/>
<polygon fill="#63b8ff" stroke="#63b8ff" points="1752.22,-131.45 1743.04,-136.75 1753.52,-138.33 1752.22,-131.45"/>
</g>
<!-- Node209&#45;&gt;Node59 -->
<g id="edge28" class="edge">
<title>Node209&#45;&gt;Node59</title>
<path fill="none" stroke="#63b8ff" d="M1621.93,-141.55C1516.55,-134.57 1314.73,-119.41 1144.2,-96 1134.1,-94.61 1123.3,-92.82 1113.1,-90.97"/>
<polygon fill="#63b8ff" stroke="#63b8ff" points="1621.65,-145.04 1631.85,-142.2 1622.1,-138.05 1621.65,-145.04"/>
</g>
<!-- Node209&#45;&gt;Node64 -->
<g id="edge29" class="edge">
<title>Node209&#45;&gt;Node64</title>
<path fill="none" stroke="#63b8ff" d="M1766.39,-140.05C1921.11,-127.31 2281.62,-97.62 2417.81,-86.4"/>
<polygon fill="#63b8ff" stroke="#63b8ff" points="1766.36,-136.54 1756.68,-140.85 1766.93,-143.52 1766.36,-136.54"/>
</g>
<!-- Node209&#45;&gt;Node134 -->
<g id="edge30" class="edge">
<title>Node209&#45;&gt;Node134</title>
<path fill="none" stroke="#63b8ff" d="M1678.21,-128.95C1668.64,-118.73 1656.61,-105.9 1647.55,-96.23"/>
<polygon fill="#63b8ff" stroke="#63b8ff" points="1675.43,-131.1 1684.82,-136 1680.54,-126.31 1675.43,-131.1"/>
</g>
<!-- Node221&#45;&gt;Node20 -->
<g id="edge34" class="edge">
<title>Node221&#45;&gt;Node20</title>
<path fill="none" stroke="#63b8ff" d="M1355.2,-120.59C1355.2,-110.06 1355.2,-98.53 1355.2,-90.84"/>
<polygon fill="#63b8ff" stroke="#63b8ff" points="1351.7,-120.28 1355.2,-130.28 1358.7,-120.28 1351.7,-120.28"/>
</g>
<!-- Node251&#45;&gt;Node17 -->
<g id="edge38" class="edge">
<title>Node251&#45;&gt;Node17</title>
<path fill="none" stroke="#63b8ff" d="M501.2,-191.78C501.2,-182.17 501.2,-170.92 501.2,-162.23"/>
<polygon fill="#63b8ff" stroke="#63b8ff" points="497.7,-191.59 501.2,-201.59 504.7,-191.59 497.7,-191.59"/>
</g>
<!-- Node252&#45;&gt;Node176 -->
<g id="edge41" class="edge">
<title>Node252&#45;&gt;Node176</title>
<path fill="none" stroke="#63b8ff" d="M796.97,-121.54C792.68,-112.96 788.01,-103.61 784.28,-96.16"/>
<polygon fill="#63b8ff" stroke="#63b8ff" points="793.82,-123.06 801.42,-130.44 800.08,-119.93 793.82,-123.06"/>
</g>
<!-- Node252&#45;&gt;Node59 -->
<g id="edge40" class="edge">
<title>Node252&#45;&gt;Node59</title>
<path fill="none" stroke="#63b8ff" d="M869.59,-131.08C919.92,-118.64 989.94,-101.34 1031.99,-90.95"/>
<polygon fill="#63b8ff" stroke="#63b8ff" points="868.87,-127.65 860,-133.45 870.54,-134.45 868.87,-127.65"/>
</g>
</g>
</svg>
