<?xml version="1.0" encoding="UTF-8" standalone="no"?>
<!DOCTYPE svg PUBLIC "-//W3C//DTD SVG 1.1//EN"
 "http://www.w3.org/Graphics/SVG/1.1/DTD/svg11.dtd">
<!-- Generated by graphviz version 7.0.5 (20221223.1930)
 -->
<!-- Title: include/JSystem/JAudio2/JASAudioThread.h Pages: 1 -->
<!--zoomable 445 -->
<svg id="main" version="1.1" xmlns="http://www.w3.org/2000/svg" xmlns:xlink="http://www.w3.org/1999/xlink" xml:space="preserve" onload="init(evt)">
<style type="text/css"><![CDATA[
.edge:hover path { stroke: red; }
.edge:hover polygon { stroke: red; fill: red; }
]]></style>
<script type="text/javascript"><![CDATA[
var edges = document.getElementsByTagName('g');
if (edges && edges.length) {
  for (var i=0;i<edges.length;i++) {
    if (edges[i].id.substr(0,4)=='edge') {
      edges[i].setAttribute('class','edge');
    }
  }
}
]]></script>
        <defs>
                <circle id="rim" cx="0" cy="0" r="7"/>
                <circle id="rim2" cx="0" cy="0" r="3.5"/>
                <g id="zoomPlus">
                        <use xlink:href="#rim" fill="#404040">
                                <set attributeName="fill" to="#808080" begin="zoomplus.mouseover" end="zoomplus.mouseout"/>
                        </use>
                        <path d="M-4,0h8M0,-4v8" fill="none" stroke="white" stroke-width="1.5" pointer-events="none"/>
                </g>
                <g id="zoomMin">
                        <use xlink:href="#rim" fill="#404040">
                                <set attributeName="fill" to="#808080" begin="zoomminus.mouseover" end="zoomminus.mouseout"/>
                        </use>
                        <path d="M-4,0h8" fill="none" stroke="white" stroke-width="1.5" pointer-events="none"/>
                </g>
                <g id="dirArrow">
                        <path fill="none" stroke="white" stroke-width="1.5" d="M0,-3.0v7 M-2.5,-0.5L0,-3.0L2.5,-0.5"/>
                </g>
               <g id="resetDef">
                       <use xlink:href="#rim2" fill="#404040">
                               <set attributeName="fill" to="#808080" begin="reset.mouseover" end="reset.mouseout"/>
                       </use>
               </g>
        </defs>

<script type="text/javascript">
var viewWidth = 723;
var viewHeight = 445;
var sectionId = 'dynsection-0';
</script>
<script xlink:href="svgpan.js"/>
<svg id="graph" class="graph">
<g id="viewport">
<title>include/JSystem/JAudio2/JASAudioThread.h</title>
<!-- Node1 -->
<g id="node1" class="node">
<title>Node1</title>
<g id="a_node1"><a xlink:title=" ">
<polygon fill="#999999" stroke="#666666" points="437.5,-437 310.5,-437 310.5,-407 437.5,-407 437.5,-437"/>
<text text-anchor="start" x="318.5" y="-425" font-family="Helvetica,sans-Serif" font-size="10.00">include/JSystem/JAudio2</text>
<text text-anchor="middle" x="374" y="-414" font-family="Helvetica,sans-Serif" font-size="10.00">/JASAudioThread.h</text>
</a>
</g>
</g>
<!-- Node2 -->
<g id="node2" class="node">
<title>Node2</title>
<g id="a_node2"><a xlink:href="JASGadget_8h.html" target="_top" xlink:title=" ">
<polygon fill="white" stroke="#666666" points="288,-206 134,-206 134,-187 288,-187 288,-206"/>
<text text-anchor="middle" x="211" y="-194" font-family="Helvetica,sans-Serif" font-size="10.00">JSystem/JAudio2/JASGadget.h</text>
</a>
</g>
</g>
<!-- Node1&#45;&gt;Node2 -->
<g id="edge1" class="edge">
<title>Node1&#45;&gt;Node2</title>
<path fill="none" stroke="#63b8ff" d="M355.8,-406.83C324.26,-381.25 259.61,-324.13 226,-261 218.81,-247.5 215.04,-230.58 213.07,-217.6"/>
<polygon fill="#63b8ff" stroke="#63b8ff" points="216.55,-217.2 211.84,-207.71 209.6,-218.07 216.55,-217.2"/>
</g>
<!-- Node10 -->
<g id="node10" class="node">
<title>Node10</title>
<g id="a_node10"><a xlink:href="JKRThread_8h.html" target="_top" xlink:title=" ">
<polygon fill="white" stroke="#666666" points="621,-371 471,-371 471,-352 621,-352 621,-371"/>
<text text-anchor="middle" x="546" y="-359" font-family="Helvetica,sans-Serif" font-size="10.00">JSystem/JKernel/JKRThread.h</text>
</a>
</g>
</g>
<!-- Node1&#45;&gt;Node10 -->
<g id="edge11" class="edge">
<title>Node1&#45;&gt;Node10</title>
<path fill="none" stroke="#63b8ff" d="M416.52,-406.54C444.93,-396.87 481.94,-384.29 509.12,-375.04"/>
<polygon fill="#63b8ff" stroke="#63b8ff" points="509.96,-378.45 518.31,-371.92 507.71,-371.83 509.96,-378.45"/>
</g>
<!-- Node3 -->
<g id="node3" class="node">
<title>Node3</title>
<g id="a_node3"><a xlink:href="JUTAssert_8h.html" target="_top" xlink:title=" ">
<polygon fill="white" stroke="#666666" points="417,-151 271,-151 271,-132 417,-132 417,-151"/>
<text text-anchor="middle" x="344" y="-139" font-family="Helvetica,sans-Serif" font-size="10.00">JSystem/JUtility/JUTAssert.h</text>
</a>
</g>
</g>
<!-- Node2&#45;&gt;Node3 -->
<g id="edge2" class="edge">
<title>Node2&#45;&gt;Node3</title>
<path fill="none" stroke="#63b8ff" d="M233.56,-186.51C254.9,-178.01 287.16,-165.15 311.31,-155.53"/>
<polygon fill="#63b8ff" stroke="#63b8ff" points="312.37,-158.87 320.37,-151.92 309.78,-152.37 312.37,-158.87"/>
</g>
<!-- Node6 -->
<g id="node6" class="node">
<title>Node6</title>
<g id="a_node6"><a xlink:href="string_8h.html" target="_top" xlink:title=" ">
<polygon fill="white" stroke="#666666" points="253,-151 169,-151 169,-132 253,-132 253,-151"/>
<text text-anchor="middle" x="211" y="-139" font-family="Helvetica,sans-Serif" font-size="10.00">MSL_C/string.h</text>
</a>
</g>
</g>
<!-- Node2&#45;&gt;Node6 -->
<g id="edge5" class="edge">
<title>Node2&#45;&gt;Node6</title>
<path fill="none" stroke="#63b8ff" d="M211,-186.75C211,-180.27 211,-171.16 211,-162.9"/>
<polygon fill="#63b8ff" stroke="#63b8ff" points="214.5,-162.96 211,-152.96 207.5,-162.96 214.5,-162.96"/>
</g>
<!-- Node4 -->
<g id="node4" class="node">
<title>Node4</title>
<g id="a_node4"><a xlink:href="types_8h.html" target="_top" xlink:title=" ">
<polygon fill="white" stroke="#666666" points="563.5,-90.5 482.5,-90.5 482.5,-71.5 563.5,-71.5 563.5,-90.5"/>
<text text-anchor="middle" x="523" y="-78.5" font-family="Helvetica,sans-Serif" font-size="10.00">dolphin/types.h</text>
</a>
</g>
</g>
<!-- Node3&#45;&gt;Node4 -->
<g id="edge3" class="edge">
<title>Node3&#45;&gt;Node4</title>
<path fill="none" stroke="#63b8ff" d="M371.19,-131.62C401.54,-121.69 450.89,-105.57 485.05,-94.4"/>
<polygon fill="#63b8ff" stroke="#63b8ff" points="485.7,-97.87 494.12,-91.44 483.53,-91.22 485.7,-97.87"/>
</g>
<!-- Node5 -->
<g id="node5" class="node">
<title>Node5</title>
<g id="a_node5"><a xlink:href="stddef_8h.html" target="_top" xlink:title=" ">
<polygon fill="white" stroke="#666666" points="444,-30 308,-30 308,0 444,0 444,-30"/>
<text text-anchor="start" x="316" y="-18" font-family="Helvetica,sans-Serif" font-size="10.00">MSL_C/MSL_Common/Src</text>
<text text-anchor="middle" x="376" y="-7" font-family="Helvetica,sans-Serif" font-size="10.00">/stddef.h</text>
</a>
</g>
</g>
<!-- Node4&#45;&gt;Node5 -->
<g id="edge4" class="edge">
<title>Node4&#45;&gt;Node5</title>
<path fill="none" stroke="#63b8ff" d="M502.56,-71.1C481.25,-61.82 447.19,-47 419.78,-35.06"/>
<polygon fill="#63b8ff" stroke="#63b8ff" points="421.21,-31.86 410.64,-31.08 418.41,-38.28 421.21,-31.86"/>
</g>
<!-- Node7 -->
<g id="node7" class="node">
<title>Node7</title>
<g id="a_node7"><a xlink:href="extras_8h.html" target="_top" xlink:title=" ">
<polygon fill="white" stroke="#666666" points="136,-96 0,-96 0,-66 136,-66 136,-96"/>
<text text-anchor="start" x="8" y="-84" font-family="Helvetica,sans-Serif" font-size="10.00">MSL_C/MSL_Common/Src</text>
<text text-anchor="middle" x="68" y="-73" font-family="Helvetica,sans-Serif" font-size="10.00">/extras.h</text>
</a>
</g>
</g>
<!-- Node6&#45;&gt;Node7 -->
<g id="edge6" class="edge">
<title>Node6&#45;&gt;Node7</title>
<path fill="none" stroke="#63b8ff" d="M189.28,-131.62C169.32,-123.45 139.08,-111.08 113.79,-100.73"/>
<polygon fill="#63b8ff" stroke="#63b8ff" points="115.28,-97.56 104.7,-97.01 112.63,-104.04 115.28,-97.56"/>
</g>
<!-- Node8 -->
<g id="node8" class="node">
<title>Node8</title>
<g id="a_node8"><a xlink:href="mem_8h.html" target="_top" xlink:title=" ">
<polygon fill="white" stroke="#666666" points="290,-96 154,-96 154,-66 290,-66 290,-96"/>
<text text-anchor="start" x="162" y="-84" font-family="Helvetica,sans-Serif" font-size="10.00">MSL_C/MSL_Common/Src</text>
<text text-anchor="middle" x="222" y="-73" font-family="Helvetica,sans-Serif" font-size="10.00">/mem.h</text>
</a>
</g>
</g>
<!-- Node6&#45;&gt;Node8 -->
<g id="edge7" class="edge">
<title>Node6&#45;&gt;Node8</title>
<path fill="none" stroke="#63b8ff" d="M212.62,-131.87C213.85,-125.33 215.61,-115.99 217.27,-107.15"/>
<polygon fill="#63b8ff" stroke="#63b8ff" points="220.66,-108.08 219.07,-97.6 213.78,-106.78 220.66,-108.08"/>
</g>
<!-- Node9 -->
<g id="node9" class="node">
<title>Node9</title>
<g id="a_node9"><a xlink:href="MSL__Common_2Src_2string_8h.html" target="_top" xlink:title=" ">
<polygon fill="white" stroke="#666666" points="444,-96 308,-96 308,-66 444,-66 444,-96"/>
<text text-anchor="start" x="316" y="-84" font-family="Helvetica,sans-Serif" font-size="10.00">MSL_C/MSL_Common/Src</text>
<text text-anchor="middle" x="376" y="-73" font-family="Helvetica,sans-Serif" font-size="10.00">/string.h</text>
</a>
</g>
</g>
<!-- Node6&#45;&gt;Node9 -->
<g id="edge9" class="edge">
<title>Node6&#45;&gt;Node9</title>
<path fill="none" stroke="#63b8ff" d="M236.06,-131.62C259.51,-123.3 295.24,-110.63 324.73,-100.18"/>
<polygon fill="#63b8ff" stroke="#63b8ff" points="325.59,-103.59 333.85,-96.95 323.25,-96.99 325.59,-103.59"/>
</g>
<!-- Node8&#45;&gt;Node5 -->
<g id="edge8" class="edge">
<title>Node8&#45;&gt;Node5</title>
<path fill="none" stroke="#63b8ff" d="M256.56,-65.64C278.48,-56.53 307.07,-44.65 330.78,-34.79"/>
<polygon fill="#63b8ff" stroke="#63b8ff" points="332,-38.08 339.89,-31.01 329.31,-31.61 332,-38.08"/>
</g>
<!-- Node9&#45;&gt;Node5 -->
<g id="edge10" class="edge">
<title>Node9&#45;&gt;Node5</title>
<path fill="none" stroke="#63b8ff" d="M376,-65.8C376,-58.67 376,-49.82 376,-41.56"/>
<polygon fill="#63b8ff" stroke="#63b8ff" points="379.5,-41.68 376,-31.68 372.5,-41.68 379.5,-41.68"/>
</g>
<!-- Node10&#45;&gt;Node4 -->
<g id="edge24" class="edge">
<title>Node10&#45;&gt;Node4</title>
<path fill="none" stroke="#63b8ff" d="M593.08,-351.5C643.08,-338.89 715,-310.65 715,-252.5 715,-252.5 715,-252.5 715,-195.5 715,-130.16 631.57,-101.64 574.71,-89.79"/>
<polygon fill="#63b8ff" stroke="#63b8ff" points="575.69,-86.42 565.2,-87.93 574.34,-93.29 575.69,-86.42"/>
</g>
<!-- Node11 -->
<g id="node11" class="node">
<title>Node11</title>
<g id="a_node11"><a xlink:href="JKRHeap_8h.html" target="_top" xlink:title=" ">
<polygon fill="white" stroke="#666666" points="465.5,-316 322.5,-316 322.5,-297 465.5,-297 465.5,-316"/>
<text text-anchor="middle" x="394" y="-304" font-family="Helvetica,sans-Serif" font-size="10.00">JSystem/JKernel/JKRHeap.h</text>
</a>
</g>
</g>
<!-- Node10&#45;&gt;Node11 -->
<g id="edge12" class="edge">
<title>Node10&#45;&gt;Node11</title>
<path fill="none" stroke="#63b8ff" d="M520.22,-351.51C495.57,-342.92 458.19,-329.88 430.49,-320.22"/>
<polygon fill="#63b8ff" stroke="#63b8ff" points="431.68,-316.93 421.09,-316.94 429.38,-323.54 431.68,-316.93"/>
</g>
<!-- Node17 -->
<g id="node17" class="node">
<title>Node17</title>
<g id="a_node17"><a xlink:href="OSMessage_8h.html" target="_top" xlink:title=" ">
<polygon fill="white" stroke="#666666" points="608.5,-316 483.5,-316 483.5,-297 608.5,-297 608.5,-316"/>
<text text-anchor="middle" x="546" y="-304" font-family="Helvetica,sans-Serif" font-size="10.00">dolphin/os/OSMessage.h</text>
</a>
</g>
</g>
<!-- Node10&#45;&gt;Node17 -->
<g id="edge20" class="edge">
<title>Node10&#45;&gt;Node17</title>
<path fill="none" stroke="#63b8ff" d="M546,-351.75C546,-345.27 546,-336.16 546,-327.9"/>
<polygon fill="#63b8ff" stroke="#63b8ff" points="549.5,-327.96 546,-317.96 542.5,-327.96 549.5,-327.96"/>
</g>
<!-- Node18 -->
<g id="node18" class="node">
<title>Node18</title>
<g id="a_node18"><a xlink:href="OSTime_8h.html" target="_top" xlink:title=" ">
<polygon fill="white" stroke="#666666" points="686.5,-261 579.5,-261 579.5,-242 686.5,-242 686.5,-261"/>
<text text-anchor="middle" x="633" y="-249" font-family="Helvetica,sans-Serif" font-size="10.00">dolphin/os/OSTime.h</text>
</a>
</g>
</g>
<!-- Node10&#45;&gt;Node18 -->
<g id="edge22" class="edge">
<title>Node10&#45;&gt;Node18</title>
<path fill="none" stroke="#63b8ff" d="M569.54,-351.65C585.56,-344.43 605.97,-332.69 618,-316 627.14,-303.33 630.78,-285.88 632.2,-272.48"/>
<polygon fill="#63b8ff" stroke="#63b8ff" points="635.68,-272.89 632.88,-262.67 628.7,-272.4 635.68,-272.89"/>
</g>
<!-- Node12 -->
<g id="node12" class="node">
<title>Node12</title>
<g id="a_node12"><a xlink:href="JKRDisposer_8h.html" target="_top" xlink:title=" ">
<polygon fill="white" stroke="#666666" points="393,-261 235,-261 235,-242 393,-242 393,-261"/>
<text text-anchor="middle" x="314" y="-249" font-family="Helvetica,sans-Serif" font-size="10.00">JSystem/JKernel/JKRDisposer.h</text>
</a>
</g>
</g>
<!-- Node11&#45;&gt;Node12 -->
<g id="edge13" class="edge">
<title>Node11&#45;&gt;Node12</title>
<path fill="none" stroke="#63b8ff" d="M380.43,-296.51C368.52,-288.62 350.95,-276.98 336.87,-267.65"/>
<polygon fill="#63b8ff" stroke="#63b8ff" points="338.9,-264.8 328.63,-262.19 335.04,-270.63 338.9,-264.8"/>
</g>
<!-- Node14 -->
<g id="node14" class="node">
<title>Node14</title>
<g id="a_node14"><a xlink:href="OSMutex_8h.html" target="_top" xlink:title=" ">
<polygon fill="white" stroke="#666666" points="523,-261 411,-261 411,-242 523,-242 523,-261"/>
<text text-anchor="middle" x="467" y="-249" font-family="Helvetica,sans-Serif" font-size="10.00">dolphin/os/OSMutex.h</text>
</a>
</g>
</g>
<!-- Node11&#45;&gt;Node14 -->
<g id="edge16" class="edge">
<title>Node11&#45;&gt;Node14</title>
<path fill="none" stroke="#63b8ff" d="M406.38,-296.51C417.15,-288.7 432.97,-277.21 445.75,-267.93"/>
<polygon fill="#63b8ff" stroke="#63b8ff" points="447.54,-270.95 453.57,-262.25 443.43,-265.29 447.54,-270.95"/>
</g>
<!-- Node13 -->
<g id="node13" class="node">
<title>Node13</title>
<g id="a_node13"><a xlink:href="JSUList_8h.html" target="_top" xlink:title=" ">
<polygon fill="white" stroke="#666666" points="453.5,-206 310.5,-206 310.5,-187 453.5,-187 453.5,-206"/>
<text text-anchor="middle" x="382" y="-194" font-family="Helvetica,sans-Serif" font-size="10.00">JSystem/JSupport/JSUList.h</text>
</a>
</g>
</g>
<!-- Node12&#45;&gt;Node13 -->
<g id="edge14" class="edge">
<title>Node12&#45;&gt;Node13</title>
<path fill="none" stroke="#63b8ff" d="M325.54,-241.51C335.46,-233.77 350.01,-222.43 361.86,-213.2"/>
<polygon fill="#63b8ff" stroke="#63b8ff" points="363.71,-216.2 369.44,-207.29 359.4,-210.68 363.71,-216.2"/>
</g>
<!-- Node13&#45;&gt;Node4 -->
<g id="edge15" class="edge">
<title>Node13&#45;&gt;Node4</title>
<path fill="none" stroke="#63b8ff" d="M393.06,-186.59C416.85,-167.45 473.12,-122.15 503.21,-97.93"/>
<polygon fill="#63b8ff" stroke="#63b8ff" points="505.21,-100.81 510.81,-91.81 500.82,-95.36 505.21,-100.81"/>
</g>
<!-- Node15 -->
<g id="node15" class="node">
<title>Node15</title>
<g id="a_node15"><a xlink:href="OSThread_8h.html" target="_top" xlink:title=" ">
<polygon fill="white" stroke="#666666" points="591,-206 475,-206 475,-187 591,-187 591,-206"/>
<text text-anchor="middle" x="533" y="-194" font-family="Helvetica,sans-Serif" font-size="10.00">dolphin/os/OSThread.h</text>
</a>
</g>
</g>
<!-- Node14&#45;&gt;Node15 -->
<g id="edge17" class="edge">
<title>Node14&#45;&gt;Node15</title>
<path fill="none" stroke="#63b8ff" d="M478.2,-241.51C487.74,-233.85 501.67,-222.66 513.11,-213.47"/>
<polygon fill="#63b8ff" stroke="#63b8ff" points="515.18,-216.3 520.79,-207.31 510.8,-210.84 515.18,-216.3"/>
</g>
<!-- Node16 -->
<g id="node16" class="node">
<title>Node16</title>
<g id="a_node16"><a xlink:href="OSContext_8h.html" target="_top" xlink:title=" ">
<polygon fill="white" stroke="#666666" points="592.5,-151 473.5,-151 473.5,-132 592.5,-132 592.5,-151"/>
<text text-anchor="middle" x="533" y="-139" font-family="Helvetica,sans-Serif" font-size="10.00">dolphin/os/OSContext.h</text>
</a>
</g>
</g>
<!-- Node15&#45;&gt;Node16 -->
<g id="edge18" class="edge">
<title>Node15&#45;&gt;Node16</title>
<path fill="none" stroke="#63b8ff" d="M533,-186.75C533,-180.27 533,-171.16 533,-162.9"/>
<polygon fill="#63b8ff" stroke="#63b8ff" points="536.5,-162.96 533,-152.96 529.5,-162.96 536.5,-162.96"/>
</g>
<!-- Node16&#45;&gt;Node4 -->
<g id="edge19" class="edge">
<title>Node16&#45;&gt;Node4</title>
<path fill="none" stroke="#63b8ff" d="M531.52,-131.87C530.18,-124 528.14,-112.1 526.4,-101.89"/>
<polygon fill="#63b8ff" stroke="#63b8ff" points="529.87,-101.43 524.74,-92.16 522.97,-102.61 529.87,-101.43"/>
</g>
<!-- Node17&#45;&gt;Node15 -->
<g id="edge21" class="edge">
<title>Node17&#45;&gt;Node15</title>
<path fill="none" stroke="#63b8ff" d="M544.94,-296.66C542.87,-279.5 538.27,-241.26 535.42,-217.6"/>
<polygon fill="#63b8ff" stroke="#63b8ff" points="538.93,-217.47 534.26,-207.96 531.98,-218.31 538.93,-217.47"/>
</g>
<!-- Node18&#45;&gt;Node4 -->
<g id="edge23" class="edge">
<title>Node18&#45;&gt;Node4</title>
<path fill="none" stroke="#63b8ff" d="M632.83,-241.54C632,-220.41 627.35,-166.68 602,-132 590.45,-116.2 572.25,-104.19 556.23,-95.91"/>
<polygon fill="#63b8ff" stroke="#63b8ff" points="558,-92.87 547.47,-91.66 554.94,-99.17 558,-92.87"/>
</g>
</g>
</svg>
        <g id="navigator" transform="translate(0 0)" fill="#404254">
                <rect fill="#f2f5e9" fill-opacity="0.5" stroke="#606060" stroke-width=".5" x="0" y="0" width="60" height="60"/>
                <use id="zoomplus" xlink:href="#zoomPlus" x="17" y="9" onmousedown="handleZoom(evt,'in')"/>
                <use id="zoomminus" xlink:href="#zoomMin" x="42" y="9" onmousedown="handleZoom(evt,'out')"/>
                <use id="reset" xlink:href="#resetDef" x="30" y="36" onmousedown="handleReset()"/>
                <g id="arrowUp" xlink:href="#dirArrow" transform="translate(30 24)" onmousedown="handlePan(0,-1)">
                  <use xlink:href="#rim" fill="#404040">
                        <set attributeName="fill" to="#808080" begin="arrowUp.mouseover" end="arrowUp.mouseout"/>
                  </use>
                  <path fill="none" stroke="white" stroke-width="1.5" d="M0,-3.0v7 M-2.5,-0.5L0,-3.0L2.5,-0.5"/>
                </g>
                <g id="arrowRight" xlink:href="#dirArrow" transform="rotate(90) translate(36 -43)" onmousedown="handlePan(1,0)">
                  <use xlink:href="#rim" fill="#404040">
                        <set attributeName="fill" to="#808080" begin="arrowRight.mouseover" end="arrowRight.mouseout"/>
                  </use>
                  <path fill="none" stroke="white" stroke-width="1.5" d="M0,-3.0v7 M-2.5,-0.5L0,-3.0L2.5,-0.5"/>
                </g>
                <g id="arrowDown" xlink:href="#dirArrow" transform="rotate(180) translate(-30 -48)" onmousedown="handlePan(0,1)">
                  <use xlink:href="#rim" fill="#404040">
                        <set attributeName="fill" to="#808080" begin="arrowDown.mouseover" end="arrowDown.mouseout"/>
                  </use>
                  <path fill="none" stroke="white" stroke-width="1.5" d="M0,-3.0v7 M-2.5,-0.5L0,-3.0L2.5,-0.5"/>
                </g>
                <g id="arrowLeft" xlink:href="#dirArrow" transform="rotate(270) translate(-36 17)" onmousedown="handlePan(-1,0)">
                  <use xlink:href="#rim" fill="#404040">
                        <set attributeName="fill" to="#808080" begin="arrowLeft.mouseover" end="arrowLeft.mouseout"/>
                  </use>
                  <path fill="none" stroke="white" stroke-width="1.5" d="M0,-3.0v7 M-2.5,-0.5L0,-3.0L2.5,-0.5"/>
                </g>
        </g>
        <svg viewBox="0 0 15 15" width="100%" height="30px" preserveAspectRatio="xMaxYMin meet">
         <g id="arrow_out" transform="scale(0.3 0.3)">
          <a xlink:href="JASAudioThread_8h__incl_org.svg" target="_base">
           <rect id="button" ry="5" rx="5" y="6" x="6" height="38" width="38"
                fill="#f2f5e9" fill-opacity="0.5" stroke="#606060" stroke-width="1.0"/>
           <path id="arrow"
             d="M 11.500037,31.436501 C 11.940474,20.09759 22.043105,11.32322 32.158766,21.979434 L 37.068811,17.246167 C 37.068811,17.246167 37.088388,32 37.088388,32 L 22.160133,31.978069 C 22.160133,31.978069 26.997745,27.140456 26.997745,27.140456 C 18.528582,18.264221 13.291696,25.230495 11.500037,31.436501 z"
             style="fill:#404040;"/>
          </a>
         </g>
        </svg>
</svg>
