<?xml version="1.0" encoding="UTF-8" standalone="no"?>
<!DOCTYPE svg PUBLIC "-//W3C//DTD SVG 1.1//EN"
 "http://www.w3.org/Graphics/SVG/1.1/DTD/svg11.dtd">
<!-- Generated by graphviz version 7.0.5 (20221223.1930)
 -->
<!-- Title: include/JSystem/JAudio2/JASAramStream.h Pages: 1 -->
<svg width="3452pt" height="566pt"
 viewBox="0.00 0.00 3451.82 566.00" xmlns="http://www.w3.org/2000/svg" xmlns:xlink="http://www.w3.org/1999/xlink">
<g id="graph0" class="graph" transform="scale(1 1) rotate(0) translate(4 562)">
<title>include/JSystem/JAudio2/JASAramStream.h</title>
<!-- Node1 -->
<g id="node1" class="node">
<title>Node1</title>
<g id="a_node1"><a xlink:title=" ">
<polygon fill="#999999" stroke="#666666" points="2229.32,-558 2102.32,-558 2102.32,-528 2229.32,-528 2229.32,-558"/>
<text text-anchor="start" x="2110.32" y="-546" font-family="Helvetica,sans-Serif" font-size="10.00">include/JSystem/JAudio2</text>
<text text-anchor="middle" x="2165.82" y="-535" font-family="Helvetica,sans-Serif" font-size="10.00">/JASAramStream.h</text>
</a>
</g>
</g>
<!-- Node2 -->
<g id="node2" class="node">
<title>Node2</title>
<g id="a_node2"><a xlink:href="JAIStream_8h.html" target="_top" xlink:title=" ">
<polygon fill="white" stroke="#666666" points="2037.32,-492 1910.32,-492 1910.32,-462 2037.32,-462 2037.32,-492"/>
<text text-anchor="start" x="1918.32" y="-480" font-family="Helvetica,sans-Serif" font-size="10.00">include/JSystem/JAudio2</text>
<text text-anchor="middle" x="1973.82" y="-469" font-family="Helvetica,sans-Serif" font-size="10.00">/JAIStream.h</text>
</a>
</g>
</g>
<!-- Node1&#45;&gt;Node2 -->
<g id="edge1" class="edge">
<title>Node1&#45;&gt;Node2</title>
<path fill="none" stroke="#63b8ff" d="M2112.02,-524.07C2082.04,-514.07 2045.2,-501.79 2017.09,-492.43"/>
<polygon fill="#63b8ff" stroke="#63b8ff" points="2110.7,-527.32 2121.29,-527.16 2112.91,-520.68 2110.7,-527.32"/>
</g>
<!-- Node507 -->
<g id="node47" class="node">
<title>Node507</title>
<g id="a_node47"><a xlink:href="JAUInitializer_8cpp.html" target="_top" xlink:title=" ">
<polygon fill="white" stroke="#666666" points="2158.32,-426 2047.32,-426 2047.32,-396 2158.32,-396 2158.32,-426"/>
<text text-anchor="start" x="2055.32" y="-414" font-family="Helvetica,sans-Serif" font-size="10.00">libs/JSystem/JAudio2</text>
<text text-anchor="middle" x="2102.82" y="-403" font-family="Helvetica,sans-Serif" font-size="10.00">/JAUInitializer.cpp</text>
</a>
</g>
</g>
<!-- Node1&#45;&gt;Node507 -->
<g id="edge53" class="edge">
<title>Node1&#45;&gt;Node507</title>
<path fill="none" stroke="#63b8ff" d="M2153.92,-517.46C2140.91,-490.61 2120.49,-448.48 2109.83,-426.47"/>
<polygon fill="#63b8ff" stroke="#63b8ff" points="2150.66,-518.76 2158.17,-526.23 2156.96,-515.7 2150.66,-518.76"/>
</g>
<!-- Node509 -->
<g id="node49" class="node">
<title>Node509</title>
<g id="a_node49"><a xlink:href="JAUStreamAramMgr_8h.html" target="_top" xlink:title=" ">
<polygon fill="white" stroke="#666666" points="2407.32,-360 2280.32,-360 2280.32,-330 2407.32,-330 2407.32,-360"/>
<text text-anchor="start" x="2288.32" y="-348" font-family="Helvetica,sans-Serif" font-size="10.00">include/JSystem/JAudio2</text>
<text text-anchor="middle" x="2343.82" y="-337" font-family="Helvetica,sans-Serif" font-size="10.00">/JAUStreamAramMgr.h</text>
</a>
</g>
</g>
<!-- Node1&#45;&gt;Node509 -->
<g id="edge50" class="edge">
<title>Node1&#45;&gt;Node509</title>
<path fill="none" stroke="#63b8ff" d="M2175.49,-517.18C2182.67,-500.58 2193.49,-478.79 2206.82,-462 2240.82,-419.16 2292.59,-380.54 2321.78,-360.49"/>
<polygon fill="#63b8ff" stroke="#63b8ff" points="2172.3,-515.74 2171.7,-526.32 2178.77,-518.42 2172.3,-515.74"/>
</g>
<!-- Node510 -->
<g id="node50" class="node">
<title>Node510</title>
<g id="a_node50"><a xlink:href="JASAramStream_8cpp.html" target="_top" xlink:title=" ">
<polygon fill="white" stroke="#666666" points="2326.32,-492 2215.32,-492 2215.32,-462 2326.32,-462 2326.32,-492"/>
<text text-anchor="start" x="2223.32" y="-480" font-family="Helvetica,sans-Serif" font-size="10.00">libs/JSystem/JAudio2</text>
<text text-anchor="middle" x="2270.82" y="-469" font-family="Helvetica,sans-Serif" font-size="10.00">/JASAramStream.cpp</text>
</a>
</g>
</g>
<!-- Node1&#45;&gt;Node510 -->
<g id="edge52" class="edge">
<title>Node1&#45;&gt;Node510</title>
<path fill="none" stroke="#63b8ff" d="M2198.78,-521.91C2214.53,-512.31 2233.03,-501.03 2247.33,-492.31"/>
<polygon fill="#63b8ff" stroke="#63b8ff" points="2197.39,-518.66 2190.67,-526.85 2201.03,-524.63 2197.39,-518.66"/>
</g>
<!-- Node3 -->
<g id="node3" class="node">
<title>Node3</title>
<g id="a_node3"><a xlink:href="JAIStreamMgr_8h.html" target="_top" xlink:title=" ">
<polygon fill="white" stroke="#666666" points="1900.32,-426 1773.32,-426 1773.32,-396 1900.32,-396 1900.32,-426"/>
<text text-anchor="start" x="1781.32" y="-414" font-family="Helvetica,sans-Serif" font-size="10.00">include/JSystem/JAudio2</text>
<text text-anchor="middle" x="1836.82" y="-403" font-family="Helvetica,sans-Serif" font-size="10.00">/JAIStreamMgr.h</text>
</a>
</g>
</g>
<!-- Node2&#45;&gt;Node3 -->
<g id="edge2" class="edge">
<title>Node2&#45;&gt;Node3</title>
<path fill="none" stroke="#63b8ff" d="M1932.84,-456.86C1911.86,-447.05 1886.74,-435.32 1867.46,-426.31"/>
<polygon fill="#63b8ff" stroke="#63b8ff" points="1931.16,-459.94 1941.7,-461 1934.12,-453.59 1931.16,-459.94"/>
</g>
<!-- Node506 -->
<g id="node46" class="node">
<title>Node506</title>
<g id="a_node46"><a xlink:href="JAIStream_8cpp.html" target="_top" xlink:title=" ">
<polygon fill="white" stroke="#666666" points="2029.32,-426 1918.32,-426 1918.32,-396 2029.32,-396 2029.32,-426"/>
<text text-anchor="start" x="1926.32" y="-414" font-family="Helvetica,sans-Serif" font-size="10.00">libs/JSystem/JAudio2</text>
<text text-anchor="middle" x="1973.82" y="-403" font-family="Helvetica,sans-Serif" font-size="10.00">/JAIStream.cpp</text>
</a>
</g>
</g>
<!-- Node2&#45;&gt;Node506 -->
<g id="edge47" class="edge">
<title>Node2&#45;&gt;Node506</title>
<path fill="none" stroke="#63b8ff" d="M1973.82,-450.39C1973.82,-442.13 1973.82,-433.28 1973.82,-426.16"/>
<polygon fill="#63b8ff" stroke="#63b8ff" points="1970.32,-450.28 1973.82,-460.28 1977.32,-450.28 1970.32,-450.28"/>
</g>
<!-- Node2&#45;&gt;Node507 -->
<g id="edge48" class="edge">
<title>Node2&#45;&gt;Node507</title>
<path fill="none" stroke="#63b8ff" d="M2012.95,-456.59C2032.59,-446.84 2055.97,-435.24 2073.96,-426.31"/>
<polygon fill="#63b8ff" stroke="#63b8ff" points="2011.53,-453.38 2004.12,-460.96 2014.64,-459.66 2011.53,-453.38"/>
</g>
<!-- Node508 -->
<g id="node48" class="node">
<title>Node508</title>
<g id="a_node48"><a xlink:href="Z2SoundInfo_8cpp.html" target="_top" xlink:title=" ">
<polygon fill="white" stroke="#666666" points="1755.32,-420.5 1594.32,-420.5 1594.32,-401.5 1755.32,-401.5 1755.32,-420.5"/>
<text text-anchor="middle" x="1674.82" y="-408.5" font-family="Helvetica,sans-Serif" font-size="10.00">libs/Z2AudioLib/Z2SoundInfo.cpp</text>
</a>
</g>
</g>
<!-- Node2&#45;&gt;Node508 -->
<g id="edge49" class="edge">
<title>Node2&#45;&gt;Node508</title>
<path fill="none" stroke="#63b8ff" d="M1899.14,-460.02C1841.4,-447.66 1763.6,-431 1716.43,-420.91"/>
<polygon fill="#63b8ff" stroke="#63b8ff" points="1898.05,-463.36 1908.56,-462.03 1899.51,-456.52 1898.05,-463.36"/>
</g>
<!-- Node4 -->
<g id="node4" class="node">
<title>Node4</title>
<g id="a_node4"><a xlink:href="Z2SoundMgr_8h.html" target="_top" xlink:title=" ">
<polygon fill="white" stroke="#666666" points="1886.82,-360 1786.82,-360 1786.82,-330 1886.82,-330 1886.82,-360"/>
<text text-anchor="start" x="1794.82" y="-348" font-family="Helvetica,sans-Serif" font-size="10.00">include/Z2AudioLib</text>
<text text-anchor="middle" x="1836.82" y="-337" font-family="Helvetica,sans-Serif" font-size="10.00">/Z2SoundMgr.h</text>
</a>
</g>
</g>
<!-- Node3&#45;&gt;Node4 -->
<g id="edge3" class="edge">
<title>Node3&#45;&gt;Node4</title>
<path fill="none" stroke="#63b8ff" d="M1836.82,-384.39C1836.82,-376.13 1836.82,-367.28 1836.82,-360.16"/>
<polygon fill="#63b8ff" stroke="#63b8ff" points="1833.32,-384.28 1836.82,-394.28 1840.32,-384.28 1833.32,-384.28"/>
</g>
<!-- Node505 -->
<g id="node45" class="node">
<title>Node505</title>
<g id="a_node45"><a xlink:href="JAIStreamMgr_8cpp.html" target="_top" xlink:title=" ">
<polygon fill="white" stroke="#666666" points="1768.32,-360 1657.32,-360 1657.32,-330 1768.32,-330 1768.32,-360"/>
<text text-anchor="start" x="1665.32" y="-348" font-family="Helvetica,sans-Serif" font-size="10.00">libs/JSystem/JAudio2</text>
<text text-anchor="middle" x="1712.82" y="-337" font-family="Helvetica,sans-Serif" font-size="10.00">/JAIStreamMgr.cpp</text>
</a>
</g>
</g>
<!-- Node3&#45;&gt;Node505 -->
<g id="edge46" class="edge">
<title>Node3&#45;&gt;Node505</title>
<path fill="none" stroke="#63b8ff" d="M1798.94,-390.45C1780.11,-380.73 1757.76,-369.2 1740.55,-360.31"/>
<polygon fill="#63b8ff" stroke="#63b8ff" points="1797.15,-393.47 1807.64,-394.94 1800.36,-387.25 1797.15,-393.47"/>
</g>
<!-- Node5 -->
<g id="node5" class="node">
<title>Node5</title>
<g id="a_node5"><a xlink:href="Z2AudioMgr_8h.html" target="_top" xlink:title=" ">
<polygon fill="white" stroke="#666666" points="2305.82,-294 2205.82,-294 2205.82,-264 2305.82,-264 2305.82,-294"/>
<text text-anchor="start" x="2213.82" y="-282" font-family="Helvetica,sans-Serif" font-size="10.00">include/Z2AudioLib</text>
<text text-anchor="middle" x="2255.82" y="-271" font-family="Helvetica,sans-Serif" font-size="10.00">/Z2AudioMgr.h</text>
</a>
</g>
</g>
<!-- Node4&#45;&gt;Node5 -->
<g id="edge4" class="edge">
<title>Node4&#45;&gt;Node5</title>
<path fill="none" stroke="#63b8ff" d="M1898.24,-337.27C1970.13,-328.98 2092.62,-313.55 2196.82,-294 2199.61,-293.48 2202.47,-292.91 2205.35,-292.31"/>
<polygon fill="#63b8ff" stroke="#63b8ff" points="1898.19,-333.75 1888.65,-338.37 1898.98,-340.71 1898.19,-333.75"/>
</g>
<!-- Node499 -->
<g id="node39" class="node">
<title>Node499</title>
<g id="a_node39"><a xlink:href="Z2SceneMgr_8cpp.html" target="_top" xlink:title=" ">
<polygon fill="white" stroke="#666666" points="1327.32,-288.5 1166.32,-288.5 1166.32,-269.5 1327.32,-269.5 1327.32,-288.5"/>
<text text-anchor="middle" x="1246.82" y="-276.5" font-family="Helvetica,sans-Serif" font-size="10.00">libs/Z2AudioLib/Z2SceneMgr.cpp</text>
</a>
</g>
</g>
<!-- Node4&#45;&gt;Node499 -->
<g id="edge40" class="edge">
<title>Node4&#45;&gt;Node499</title>
<path fill="none" stroke="#63b8ff" d="M1775.31,-329.96C1580.57,-300.22 1527.46,-316.86 1335.82,-294 1324.01,-292.59 1311.37,-290.79 1299.44,-288.94"/>
<polygon fill="#63b8ff" stroke="#63b8ff" points="1774.59,-333.39 1785.01,-331.46 1775.67,-326.47 1774.59,-333.39"/>
</g>
<!-- Node500 -->
<g id="node40" class="node">
<title>Node500</title>
<g id="a_node40"><a xlink:href="Z2SeMgr_8cpp.html" target="_top" xlink:title=" ">
<polygon fill="white" stroke="#666666" points="1490.32,-288.5 1345.32,-288.5 1345.32,-269.5 1490.32,-269.5 1490.32,-288.5"/>
<text text-anchor="middle" x="1417.82" y="-276.5" font-family="Helvetica,sans-Serif" font-size="10.00">libs/Z2AudioLib/Z2SeMgr.cpp</text>
</a>
</g>
</g>
<!-- Node4&#45;&gt;Node500 -->
<g id="edge41" class="edge">
<title>Node4&#45;&gt;Node500</title>
<path fill="none" stroke="#63b8ff" d="M1775.51,-329.9C1652.77,-308.11 1619.11,-311.93 1499.82,-294 1489.68,-292.48 1478.85,-290.72 1468.51,-288.98"/>
<polygon fill="#63b8ff" stroke="#63b8ff" points="1774.53,-333.28 1784.99,-331.6 1775.77,-326.39 1774.53,-333.28"/>
</g>
<!-- Node501 -->
<g id="node41" class="node">
<title>Node501</title>
<g id="a_node41"><a xlink:href="Z2SeqMgr_8cpp.html" target="_top" xlink:title=" ">
<polygon fill="white" stroke="#666666" points="1658.82,-288.5 1508.82,-288.5 1508.82,-269.5 1658.82,-269.5 1658.82,-288.5"/>
<text text-anchor="middle" x="1583.82" y="-276.5" font-family="Helvetica,sans-Serif" font-size="10.00">libs/Z2AudioLib/Z2SeqMgr.cpp</text>
</a>
</g>
</g>
<!-- Node4&#45;&gt;Node501 -->
<g id="edge42" class="edge">
<title>Node4&#45;&gt;Node501</title>
<path fill="none" stroke="#63b8ff" d="M1775.45,-328.48C1726.54,-316.1 1659.77,-299.21 1619.34,-288.99"/>
<polygon fill="#63b8ff" stroke="#63b8ff" points="1774.51,-331.85 1785.06,-330.91 1776.23,-325.06 1774.51,-331.85"/>
</g>
<!-- Node502 -->
<g id="node42" class="node">
<title>Node502</title>
<g id="a_node42"><a xlink:href="Z2SoundMgr_8cpp.html" target="_top" xlink:title=" ">
<polygon fill="white" stroke="#666666" points="1838.32,-288.5 1677.32,-288.5 1677.32,-269.5 1838.32,-269.5 1838.32,-288.5"/>
<text text-anchor="middle" x="1757.82" y="-276.5" font-family="Helvetica,sans-Serif" font-size="10.00">libs/Z2AudioLib/Z2SoundMgr.cpp</text>
</a>
</g>
</g>
<!-- Node4&#45;&gt;Node502 -->
<g id="edge43" class="edge">
<title>Node4&#45;&gt;Node502</title>
<path fill="none" stroke="#63b8ff" d="M1810.41,-322.6C1796.2,-311.1 1779.45,-297.52 1768.73,-288.84"/>
<polygon fill="#63b8ff" stroke="#63b8ff" points="1808.14,-325.27 1818.11,-328.84 1812.54,-319.83 1808.14,-325.27"/>
</g>
<!-- Node503 -->
<g id="node43" class="node">
<title>Node503</title>
<g id="a_node43"><a xlink:href="Z2SoundObject_8cpp.html" target="_top" xlink:title=" ">
<polygon fill="white" stroke="#666666" points="2029.32,-288.5 1856.32,-288.5 1856.32,-269.5 2029.32,-269.5 2029.32,-288.5"/>
<text text-anchor="middle" x="1942.82" y="-276.5" font-family="Helvetica,sans-Serif" font-size="10.00">libs/Z2AudioLib/Z2SoundObject.cpp</text>
</a>
</g>
</g>
<!-- Node4&#45;&gt;Node503 -->
<g id="edge44" class="edge">
<title>Node4&#45;&gt;Node503</title>
<path fill="none" stroke="#63b8ff" d="M1870.29,-323.79C1889.65,-312.1 1913.05,-297.97 1927.93,-288.99"/>
<polygon fill="#63b8ff" stroke="#63b8ff" points="1868.65,-320.69 1861.9,-328.85 1872.27,-326.68 1868.65,-320.69"/>
</g>
<!-- Node504 -->
<g id="node44" class="node">
<title>Node504</title>
<g id="a_node44"><a xlink:href="Z2WolfHowlMgr_8cpp.html" target="_top" xlink:title=" ">
<polygon fill="white" stroke="#666666" points="2187.82,-294 2047.82,-294 2047.82,-264 2187.82,-264 2187.82,-294"/>
<text text-anchor="start" x="2055.82" y="-282" font-family="Helvetica,sans-Serif" font-size="10.00">libs/Z2AudioLib/Z2WolfHowl</text>
<text text-anchor="middle" x="2117.82" y="-271" font-family="Helvetica,sans-Serif" font-size="10.00">Mgr.cpp</text>
</a>
</g>
</g>
<!-- Node4&#45;&gt;Node504 -->
<g id="edge45" class="edge">
<title>Node4&#45;&gt;Node504</title>
<path fill="none" stroke="#63b8ff" d="M1898.12,-330.04C1944.31,-319.52 2007.46,-305.13 2054.21,-294.49"/>
<polygon fill="#63b8ff" stroke="#63b8ff" points="1897.5,-326.59 1888.53,-332.22 1899.06,-333.41 1897.5,-326.59"/>
</g>
<!-- Node6 -->
<g id="node6" class="node">
<title>Node6</title>
<g id="a_node6"><a xlink:href="m__Do__audio_8h.html" target="_top" xlink:title=" ">
<polygon fill="white" stroke="#666666" points="2402.82,-222.5 2262.82,-222.5 2262.82,-203.5 2402.82,-203.5 2402.82,-222.5"/>
<text text-anchor="middle" x="2332.82" y="-210.5" font-family="Helvetica,sans-Serif" font-size="10.00">include/m_Do/m_Do_audio.h</text>
</a>
</g>
</g>
<!-- Node5&#45;&gt;Node6 -->
<g id="edge5" class="edge">
<title>Node5&#45;&gt;Node6</title>
<path fill="none" stroke="#63b8ff" d="M2281.56,-256.6C2295.41,-245.1 2311.73,-231.52 2322.18,-222.84"/>
<polygon fill="#63b8ff" stroke="#63b8ff" points="2279.52,-253.75 2274.07,-262.83 2284,-259.13 2279.52,-253.75"/>
</g>
<!-- Node495 -->
<g id="node35" class="node">
<title>Node495</title>
<g id="a_node35"><a xlink:href="Z2AudioMgr_8cpp.html" target="_top" xlink:title=" ">
<polygon fill="white" stroke="#666666" points="2578.82,-222.5 2420.82,-222.5 2420.82,-203.5 2578.82,-203.5 2578.82,-222.5"/>
<text text-anchor="middle" x="2499.82" y="-210.5" font-family="Helvetica,sans-Serif" font-size="10.00">libs/Z2AudioLib/Z2AudioMgr.cpp</text>
</a>
</g>
</g>
<!-- Node5&#45;&gt;Node495 -->
<g id="edge36" class="edge">
<title>Node5&#45;&gt;Node495</title>
<path fill="none" stroke="#63b8ff" d="M2317.06,-261.94C2364.08,-249.6 2427.28,-233.02 2465.7,-222.95"/>
<polygon fill="#63b8ff" stroke="#63b8ff" points="2316.33,-258.51 2307.54,-264.43 2318.1,-265.28 2316.33,-258.51"/>
</g>
<!-- Node496 -->
<g id="node36" class="node">
<title>Node496</title>
<g id="a_node36"><a xlink:href="Z2Creature_8cpp.html" target="_top" xlink:title=" ">
<polygon fill="white" stroke="#666666" points="1904.32,-222.5 1751.32,-222.5 1751.32,-203.5 1904.32,-203.5 1904.32,-222.5"/>
<text text-anchor="middle" x="1827.82" y="-210.5" font-family="Helvetica,sans-Serif" font-size="10.00">libs/Z2AudioLib/Z2Creature.cpp</text>
</a>
</g>
</g>
<!-- Node5&#45;&gt;Node496 -->
<g id="edge37" class="edge">
<title>Node5&#45;&gt;Node496</title>
<path fill="none" stroke="#63b8ff" d="M2194.24,-263.65C2069.69,-241.55 2035.15,-245.82 1912.82,-228 1902.31,-226.47 1891.09,-224.71 1880.37,-222.97"/>
<polygon fill="#63b8ff" stroke="#63b8ff" points="2193.41,-267.06 2203.87,-265.38 2194.65,-260.17 2193.41,-267.06"/>
</g>
<!-- Node497 -->
<g id="node37" class="node">
<title>Node497</title>
<g id="a_node37"><a xlink:href="Z2SoundStarter_8cpp.html" target="_top" xlink:title=" ">
<polygon fill="white" stroke="#666666" points="2095.32,-222.5 1922.32,-222.5 1922.32,-203.5 2095.32,-203.5 2095.32,-222.5"/>
<text text-anchor="middle" x="2008.82" y="-210.5" font-family="Helvetica,sans-Serif" font-size="10.00">libs/Z2AudioLib/Z2SoundStarter.cpp</text>
</a>
</g>
</g>
<!-- Node5&#45;&gt;Node497 -->
<g id="edge38" class="edge">
<title>Node5&#45;&gt;Node497</title>
<path fill="none" stroke="#63b8ff" d="M2194.43,-262.09C2146.83,-249.76 2082.6,-233.12 2043.52,-222.99"/>
<polygon fill="#63b8ff" stroke="#63b8ff" points="2193.51,-265.47 2204.07,-264.59 2195.27,-258.7 2193.51,-265.47"/>
</g>
<!-- Node498 -->
<g id="node38" class="node">
<title>Node498</title>
<g id="a_node38"><a xlink:href="Z2SpeechMgr2_8cpp.html" target="_top" xlink:title=" ">
<polygon fill="white" stroke="#666666" points="2244.32,-228 2113.32,-228 2113.32,-198 2244.32,-198 2244.32,-228"/>
<text text-anchor="start" x="2121.32" y="-216" font-family="Helvetica,sans-Serif" font-size="10.00">libs/Z2AudioLib/Z2Speech</text>
<text text-anchor="middle" x="2178.82" y="-205" font-family="Helvetica,sans-Serif" font-size="10.00">Mgr2.cpp</text>
</a>
</g>
</g>
<!-- Node5&#45;&gt;Node498 -->
<g id="edge39" class="edge">
<title>Node5&#45;&gt;Node498</title>
<path fill="none" stroke="#63b8ff" d="M2230.19,-256.7C2219,-247.4 2206.16,-236.73 2196.12,-228.39"/>
<polygon fill="#63b8ff" stroke="#63b8ff" points="2227.64,-259.13 2237.56,-262.83 2232.11,-253.75 2227.64,-259.13"/>
</g>
<!-- Node7 -->
<g id="node7" class="node">
<title>Node7</title>
<g id="a_node7"><a xlink:href="m__Do__ext_8h.html" target="_top" xlink:title=" ">
<polygon fill="#fff0f0" stroke="red" points="972.82,-156.5 842.82,-156.5 842.82,-137.5 972.82,-137.5 972.82,-156.5"/>
<text text-anchor="middle" x="907.82" y="-144.5" font-family="Helvetica,sans-Serif" font-size="10.00">include/m_Do/m_Do_ext.h</text>
</a>
</g>
</g>
<!-- Node6&#45;&gt;Node7 -->
<g id="edge6" class="edge">
<title>Node6&#45;&gt;Node7</title>
<path fill="none" stroke="#63b8ff" d="M2277.59,-201.21C2269.64,-199.95 2261.54,-198.82 2253.82,-198 2001.09,-171.04 1207.08,-153.82 973.23,-149.23"/>
<polygon fill="#63b8ff" stroke="#63b8ff" points="2276.75,-204.62 2287.19,-202.82 2277.9,-197.72 2276.75,-204.62"/>
</g>
<!-- Node58 -->
<g id="node13" class="node">
<title>Node58</title>
<g id="a_node13"><a xlink:href="d__kankyo_8cpp.html" target="_top" xlink:title=" ">
<polygon fill="white" stroke="#666666" points="852.82,-24.5 718.82,-24.5 718.82,-5.5 852.82,-5.5 852.82,-24.5"/>
<text text-anchor="middle" x="785.82" y="-12.5" font-family="Helvetica,sans-Serif" font-size="10.00">src/d/kankyo/d_kankyo.cpp</text>
</a>
</g>
</g>
<!-- Node6&#45;&gt;Node58 -->
<g id="edge25" class="edge">
<title>Node6&#45;&gt;Node58</title>
<path fill="none" stroke="#63b8ff" d="M2277.89,-201.18C2269.84,-199.91 2261.64,-198.79 2253.82,-198 1625.68,-134.74 1464.26,-195.12 833.82,-162 649.71,-152.33 131.89,-231.45 6.82,-96 -2.23,-86.2 -2.3,-75.73 6.82,-66 31.01,-40.21 533.72,-23.23 718.47,-17.85"/>
<polygon fill="#63b8ff" stroke="#63b8ff" points="2277.17,-204.6 2287.61,-202.8 2278.32,-197.7 2277.17,-204.6"/>
</g>
<!-- Node223 -->
<g id="node14" class="node">
<title>Node223</title>
<g id="a_node14"><a xlink:href="d__kankyo__wether_8cpp.html" target="_top" xlink:title=" ">
<polygon fill="white" stroke="#666666" points="1746.82,-30 1630.82,-30 1630.82,0 1746.82,0 1746.82,-30"/>
<text text-anchor="start" x="1638.82" y="-18" font-family="Helvetica,sans-Serif" font-size="10.00">src/d/kankyo/d_kankyo</text>
<text text-anchor="middle" x="1688.82" y="-7" font-family="Helvetica,sans-Serif" font-size="10.00">_wether.cpp</text>
</a>
</g>
</g>
<!-- Node6&#45;&gt;Node223 -->
<g id="edge26" class="edge">
<title>Node6&#45;&gt;Node223</title>
<path fill="none" stroke="#63b8ff" d="M2275.88,-201.18C2268.47,-199.99 2260.98,-198.89 2253.82,-198 2197.77,-191.06 1792.37,-195.38 1746.82,-162 1709.8,-134.88 1725.78,-108.64 1708.82,-66 1704.05,-54.01 1698.61,-40.42 1694.61,-30.44"/>
<polygon fill="#63b8ff" stroke="#63b8ff" points="2275.05,-204.59 2285.5,-202.79 2276.21,-197.69 2275.05,-204.59"/>
</g>
<!-- Node12 -->
<g id="node23" class="node">
<title>Node12</title>
<g id="a_node23"><a xlink:href="d__com__inf__game_8cpp.html" target="_top" xlink:title=" ">
<polygon fill="white" stroke="#666666" points="1863.82,-162 1755.82,-162 1755.82,-132 1863.82,-132 1863.82,-162"/>
<text text-anchor="start" x="1763.82" y="-150" font-family="Helvetica,sans-Serif" font-size="10.00">src/d/com/d_com_inf</text>
<text text-anchor="middle" x="1809.82" y="-139" font-family="Helvetica,sans-Serif" font-size="10.00">_game.cpp</text>
</a>
</g>
</g>
<!-- Node6&#45;&gt;Node12 -->
<g id="edge22" class="edge">
<title>Node6&#45;&gt;Node12</title>
<path fill="none" stroke="#63b8ff" d="M2274.5,-201.12C2267.54,-199.98 2260.53,-198.91 2253.82,-198 2085.27,-175.14 2040.83,-188.5 1872.82,-162 1869.94,-161.55 1867,-161.04 1864.03,-160.5"/>
<polygon fill="#63b8ff" stroke="#63b8ff" points="2273.78,-204.54 2284.22,-202.75 2274.94,-197.64 2273.78,-204.54"/>
</g>
<!-- Node208 -->
<g id="node24" class="node">
<title>Node208</title>
<g id="a_node24"><a xlink:href="d__name_8cpp.html" target="_top" xlink:title=" ">
<polygon fill="white" stroke="#666666" points="1975.82,-156.5 1881.82,-156.5 1881.82,-137.5 1975.82,-137.5 1975.82,-156.5"/>
<text text-anchor="middle" x="1928.82" y="-144.5" font-family="Helvetica,sans-Serif" font-size="10.00">src/d/d_name.cpp</text>
</a>
</g>
</g>
<!-- Node6&#45;&gt;Node208 -->
<g id="edge23" class="edge">
<title>Node6&#45;&gt;Node208</title>
<path fill="none" stroke="#63b8ff" d="M2273.11,-201.14C2266.61,-200.04 2260.08,-198.97 2253.82,-198 2134.63,-179.47 2103.29,-184.66 1984.82,-162 1977.43,-160.59 1969.57,-158.8 1962.14,-156.98"/>
<polygon fill="#63b8ff" stroke="#63b8ff" points="2272.05,-204.51 2282.49,-202.76 2273.23,-197.61 2272.05,-204.51"/>
</g>
<!-- Node218 -->
<g id="node25" class="node">
<title>Node218</title>
<g id="a_node25"><a xlink:href="d__event__manager_8cpp.html" target="_top" xlink:title=" ">
<polygon fill="white" stroke="#666666" points="2097.32,-162 1994.32,-162 1994.32,-132 2097.32,-132 2097.32,-162"/>
<text text-anchor="start" x="2002.32" y="-150" font-family="Helvetica,sans-Serif" font-size="10.00">src/d/event/d_event</text>
<text text-anchor="middle" x="2045.82" y="-139" font-family="Helvetica,sans-Serif" font-size="10.00">_manager.cpp</text>
</a>
</g>
</g>
<!-- Node6&#45;&gt;Node218 -->
<g id="edge24" class="edge">
<title>Node6&#45;&gt;Node218</title>
<path fill="none" stroke="#63b8ff" d="M2280.16,-200.6C2234.13,-190.58 2165.5,-175.54 2105.82,-162 2103.1,-161.38 2100.32,-160.75 2097.52,-160.11"/>
<polygon fill="#63b8ff" stroke="#63b8ff" points="2279.37,-204 2289.88,-202.71 2280.85,-197.16 2279.37,-204"/>
</g>
<!-- Node19 -->
<g id="node26" class="node">
<title>Node19</title>
<g id="a_node26"><a xlink:href="d__msg__flow_8cpp.html" target="_top" xlink:title=" ">
<polygon fill="white" stroke="#666666" points="2248.32,-156.5 2115.32,-156.5 2115.32,-137.5 2248.32,-137.5 2248.32,-156.5"/>
<text text-anchor="middle" x="2181.82" y="-144.5" font-family="Helvetica,sans-Serif" font-size="10.00">src/d/msg/d_msg_flow.cpp</text>
</a>
</g>
</g>
<!-- Node6&#45;&gt;Node19 -->
<g id="edge27" class="edge">
<title>Node6&#45;&gt;Node19</title>
<path fill="none" stroke="#63b8ff" d="M2301.6,-198.77C2271.96,-186.21 2228.24,-167.68 2202.63,-156.82"/>
<polygon fill="#63b8ff" stroke="#63b8ff" points="2299.85,-201.83 2310.43,-202.51 2302.59,-195.39 2299.85,-201.83"/>
</g>
<!-- Node241 -->
<g id="node27" class="node">
<title>Node241</title>
<g id="a_node27"><a xlink:href="d__ovlp__fade_8cpp.html" target="_top" xlink:title=" ">
<polygon fill="white" stroke="#666666" points="2399.32,-156.5 2266.32,-156.5 2266.32,-137.5 2399.32,-137.5 2399.32,-156.5"/>
<text text-anchor="middle" x="2332.82" y="-144.5" font-family="Helvetica,sans-Serif" font-size="10.00">src/d/ovlp/d_ovlp_fade.cpp</text>
</a>
</g>
</g>
<!-- Node6&#45;&gt;Node241 -->
<g id="edge28" class="edge">
<title>Node6&#45;&gt;Node241</title>
<path fill="none" stroke="#63b8ff" d="M2332.82,-191.68C2332.82,-179.94 2332.82,-165.77 2332.82,-156.82"/>
<polygon fill="#63b8ff" stroke="#63b8ff" points="2329.32,-191.59 2332.82,-201.59 2336.32,-191.59 2329.32,-191.59"/>
</g>
<!-- Node86 -->
<g id="node28" class="node">
<title>Node86</title>
<g id="a_node28"><a xlink:href="d__ovlp__fade2_8cpp.html" target="_top" xlink:title=" ">
<polygon fill="white" stroke="#666666" points="2555.82,-156.5 2417.82,-156.5 2417.82,-137.5 2555.82,-137.5 2555.82,-156.5"/>
<text text-anchor="middle" x="2486.82" y="-144.5" font-family="Helvetica,sans-Serif" font-size="10.00">src/d/ovlp/d_ovlp_fade2.cpp</text>
</a>
</g>
</g>
<!-- Node6&#45;&gt;Node86 -->
<g id="edge29" class="edge">
<title>Node6&#45;&gt;Node86</title>
<path fill="none" stroke="#63b8ff" d="M2364.66,-198.77C2394.88,-186.21 2439.47,-167.68 2465.59,-156.82"/>
<polygon fill="#63b8ff" stroke="#63b8ff" points="2363.52,-195.45 2355.63,-202.52 2366.21,-201.91 2363.52,-195.45"/>
</g>
<!-- Node88 -->
<g id="node29" class="node">
<title>Node88</title>
<g id="a_node29"><a xlink:href="d__ovlp__fade3_8cpp.html" target="_top" xlink:title=" ">
<polygon fill="white" stroke="#666666" points="2711.82,-156.5 2573.82,-156.5 2573.82,-137.5 2711.82,-137.5 2711.82,-156.5"/>
<text text-anchor="middle" x="2642.82" y="-144.5" font-family="Helvetica,sans-Serif" font-size="10.00">src/d/ovlp/d_ovlp_fade3.cpp</text>
</a>
</g>
</g>
<!-- Node6&#45;&gt;Node88 -->
<g id="edge30" class="edge">
<title>Node6&#45;&gt;Node88</title>
<path fill="none" stroke="#63b8ff" d="M2387.48,-200.71C2447.98,-188.22 2544.25,-168.35 2599.68,-156.91"/>
<polygon fill="#63b8ff" stroke="#63b8ff" points="2386.82,-197.28 2377.73,-202.73 2388.23,-204.13 2386.82,-197.28"/>
</g>
<!-- Node244 -->
<g id="node30" class="node">
<title>Node244</title>
<g id="a_node30"><a xlink:href="d__s__name_8cpp.html" target="_top" xlink:title=" ">
<polygon fill="white" stroke="#666666" points="2843.32,-156.5 2730.32,-156.5 2730.32,-137.5 2843.32,-137.5 2843.32,-156.5"/>
<text text-anchor="middle" x="2786.82" y="-144.5" font-family="Helvetica,sans-Serif" font-size="10.00">src/d/s/d_s_name.cpp</text>
</a>
</g>
</g>
<!-- Node6&#45;&gt;Node244 -->
<g id="edge31" class="edge">
<title>Node6&#45;&gt;Node244</title>
<path fill="none" stroke="#63b8ff" d="M2391.96,-201.13C2398.65,-200.01 2405.37,-198.95 2411.82,-198 2548.61,-177.93 2584.38,-184.37 2720.82,-162 2729.49,-160.58 2738.74,-158.79 2747.49,-156.97"/>
<polygon fill="#63b8ff" stroke="#63b8ff" points="2391.55,-197.64 2382.28,-202.77 2392.72,-204.55 2391.55,-197.64"/>
</g>
<!-- Node83 -->
<g id="node31" class="node">
<title>Node83</title>
<g id="a_node31"><a xlink:href="d__s__play_8cpp.html" target="_top" xlink:title=" ">
<polygon fill="white" stroke="#666666" points="2967.82,-156.5 2861.82,-156.5 2861.82,-137.5 2967.82,-137.5 2967.82,-156.5"/>
<text text-anchor="middle" x="2914.82" y="-144.5" font-family="Helvetica,sans-Serif" font-size="10.00">src/d/s/d_s_play.cpp</text>
</a>
</g>
</g>
<!-- Node6&#45;&gt;Node83 -->
<g id="edge32" class="edge">
<title>Node6&#45;&gt;Node83</title>
<path fill="none" stroke="#63b8ff" d="M2390.31,-201.16C2397.53,-199.99 2404.84,-198.9 2411.82,-198 2606.85,-172.81 2658.43,-191.73 2852.82,-162 2861.43,-160.68 2870.64,-158.84 2879.24,-156.93"/>
<polygon fill="#63b8ff" stroke="#63b8ff" points="2389.85,-197.69 2380.57,-202.8 2391.01,-204.59 2389.85,-197.69"/>
</g>
<!-- Node25 -->
<g id="node32" class="node">
<title>Node25</title>
<g id="a_node32"><a xlink:href="d__shop__system_8cpp.html" target="_top" xlink:title=" ">
<polygon fill="white" stroke="#666666" points="3137.82,-156.5 2985.82,-156.5 2985.82,-137.5 3137.82,-137.5 3137.82,-156.5"/>
<text text-anchor="middle" x="3061.82" y="-144.5" font-family="Helvetica,sans-Serif" font-size="10.00">src/d/shop/d_shop_system.cpp</text>
</a>
</g>
</g>
<!-- Node6&#45;&gt;Node25 -->
<g id="edge33" class="edge">
<title>Node6&#45;&gt;Node25</title>
<path fill="none" stroke="#63b8ff" d="M2389.47,-201.18C2396.96,-199.97 2404.56,-198.87 2411.82,-198 2661.64,-168 2726.81,-190.48 2976.82,-162 2988.41,-160.68 3000.83,-158.86 3012.49,-156.98"/>
<polygon fill="#63b8ff" stroke="#63b8ff" points="2389,-197.7 2379.72,-202.81 2390.16,-204.61 2389,-197.7"/>
</g>
<!-- Node494 -->
<g id="node33" class="node">
<title>Node494</title>
<g id="a_node33"><a xlink:href="m__Do__Reset_8cpp.html" target="_top" xlink:title=" ">
<polygon fill="white" stroke="#666666" points="3291.82,-156.5 3155.82,-156.5 3155.82,-137.5 3291.82,-137.5 3291.82,-156.5"/>
<text text-anchor="middle" x="3223.82" y="-144.5" font-family="Helvetica,sans-Serif" font-size="10.00">src/m_Do/m_Do_Reset.cpp</text>
</a>
</g>
</g>
<!-- Node6&#45;&gt;Node494 -->
<g id="edge34" class="edge">
<title>Node6&#45;&gt;Node494</title>
<path fill="none" stroke="#63b8ff" d="M2388.9,-201.16C2396.58,-199.94 2404.38,-198.84 2411.82,-198 2736.82,-161.39 2821.9,-199.33 3146.82,-162 3157.62,-160.76 3169.18,-158.93 3179.99,-156.99"/>
<polygon fill="#63b8ff" stroke="#63b8ff" points="2388.57,-197.67 2379.29,-202.77 2389.73,-204.57 2388.57,-197.67"/>
</g>
<!-- Node252 -->
<g id="node34" class="node">
<title>Node252</title>
<g id="a_node34"><a xlink:href="m__Do__audio_8cpp.html" target="_top" xlink:title=" ">
<polygon fill="white" stroke="#666666" points="3443.82,-156.5 3309.82,-156.5 3309.82,-137.5 3443.82,-137.5 3443.82,-156.5"/>
<text text-anchor="middle" x="3376.82" y="-144.5" font-family="Helvetica,sans-Serif" font-size="10.00">src/m_Do/m_Do_audio.cpp</text>
</a>
</g>
</g>
<!-- Node6&#45;&gt;Node252 -->
<g id="edge35" class="edge">
<title>Node6&#45;&gt;Node252</title>
<path fill="none" stroke="#63b8ff" d="M2388.61,-201.15C2396.38,-199.92 2404.28,-198.82 2411.82,-198 2804.95,-155.4 2907.83,-205.93 3300.82,-162 3311.62,-160.79 3323.19,-158.95 3333.97,-156.99"/>
<polygon fill="#63b8ff" stroke="#63b8ff" points="2388.15,-197.68 2378.86,-202.77 2389.3,-204.58 2388.15,-197.68"/>
</g>
<!-- Node8 -->
<g id="node8" class="node">
<title>Node8</title>
<g id="a_node8"><a xlink:href="d__attention_8h.html" target="_top" xlink:title=" ">
<polygon fill="#fff0f0" stroke="red" points="1455.82,-90.5 1341.82,-90.5 1341.82,-71.5 1455.82,-71.5 1455.82,-90.5"/>
<text text-anchor="middle" x="1398.82" y="-78.5" font-family="Helvetica,sans-Serif" font-size="10.00">include/d/d_attention.h</text>
</a>
</g>
</g>
<!-- Node7&#45;&gt;Node8 -->
<g id="edge7" class="edge">
<title>Node7&#45;&gt;Node8</title>
<path fill="none" stroke="#63b8ff" d="M984.45,-139.02C1069.59,-130.8 1211,-115.71 1331.82,-96 1340.61,-94.57 1350.01,-92.77 1358.89,-90.95"/>
<polygon fill="#63b8ff" stroke="#63b8ff" points="984.2,-135.53 974.58,-139.97 984.87,-142.5 984.2,-135.53"/>
</g>
<!-- Node259 -->
<g id="node9" class="node">
<title>Node259</title>
<g id="a_node9"><a xlink:href="d__drawlist_8h.html" target="_top" xlink:title=" ">
<polygon fill="#fff0f0" stroke="red" points="1583.82,-90.5 1473.82,-90.5 1473.82,-71.5 1583.82,-71.5 1583.82,-90.5"/>
<text text-anchor="middle" x="1528.82" y="-78.5" font-family="Helvetica,sans-Serif" font-size="10.00">include/d/d_drawlist.h</text>
</a>
</g>
</g>
<!-- Node7&#45;&gt;Node259 -->
<g id="edge8" class="edge">
<title>Node7&#45;&gt;Node259</title>
<path fill="none" stroke="#63b8ff" d="M984.71,-142.16C1092.51,-136.09 1294.45,-122.17 1464.82,-96 1473.59,-94.65 1482.95,-92.83 1491.74,-90.94"/>
<polygon fill="#63b8ff" stroke="#63b8ff" points="984.61,-138.66 974.82,-142.71 985,-145.65 984.61,-138.66"/>
</g>
<!-- Node308 -->
<g id="node10" class="node">
<title>Node308</title>
<g id="a_node10"><a xlink:href="d__ky__thunder_8h.html" target="_top" xlink:title=" ">
<polygon fill="#fff0f0" stroke="red" points="139.82,-90.5 15.82,-90.5 15.82,-71.5 139.82,-71.5 139.82,-90.5"/>
<text text-anchor="middle" x="77.82" y="-78.5" font-family="Helvetica,sans-Serif" font-size="10.00">include/d/d_ky_thunder.h</text>
</a>
</g>
</g>
<!-- Node7&#45;&gt;Node308 -->
<g id="edge9" class="edge">
<title>Node7&#45;&gt;Node308</title>
<path fill="none" stroke="#63b8ff" d="M831.37,-144.22C694.14,-140.3 397.16,-128.53 148.82,-96 138.98,-94.71 128.45,-92.88 118.59,-90.97"/>
<polygon fill="#63b8ff" stroke="#63b8ff" points="830.96,-147.71 841.05,-144.49 831.15,-140.71 830.96,-147.71"/>
</g>
<!-- Node309 -->
<g id="node11" class="node">
<title>Node309</title>
<g id="a_node11"><a xlink:href="d__resorce_8h.html" target="_top" xlink:title=" ">
<polygon fill="#fff0f0" stroke="red" points="267.32,-90.5 158.32,-90.5 158.32,-71.5 267.32,-71.5 267.32,-90.5"/>
<text text-anchor="middle" x="212.82" y="-78.5" font-family="Helvetica,sans-Serif" font-size="10.00">include/d/d_resorce.h</text>
</a>
</g>
</g>
<!-- Node7&#45;&gt;Node309 -->
<g id="edge10" class="edge">
<title>Node7&#45;&gt;Node309</title>
<path fill="none" stroke="#63b8ff" d="M831.39,-143.31C712.33,-138.35 475.58,-125.47 276.82,-96 267.93,-94.68 258.43,-92.84 249.55,-90.93"/>
<polygon fill="#63b8ff" stroke="#63b8ff" points="830.89,-146.79 841.03,-143.7 831.18,-139.79 830.89,-146.79"/>
</g>
<!-- Node310 -->
<g id="node12" class="node">
<title>Node310</title>
<g id="a_node12"><a xlink:href="d__kankyo_8h.html" target="_top" xlink:title=" ">
<polygon fill="#fff0f0" stroke="red" points="1699.82,-96 1601.82,-96 1601.82,-66 1699.82,-66 1699.82,-96"/>
<text text-anchor="start" x="1609.82" y="-84" font-family="Helvetica,sans-Serif" font-size="10.00">include/d/kankyo/d</text>
<text text-anchor="middle" x="1650.82" y="-73" font-family="Helvetica,sans-Serif" font-size="10.00">_kankyo.h</text>
</a>
</g>
</g>
<!-- Node7&#45;&gt;Node310 -->
<g id="edge11" class="edge">
<title>Node7&#45;&gt;Node310</title>
<path fill="none" stroke="#63b8ff" d="M984.42,-144.5C1111.53,-141.1 1373.75,-130.2 1592.82,-96 1595.68,-95.55 1598.62,-95.04 1601.57,-94.47"/>
<polygon fill="#63b8ff" stroke="#63b8ff" points="984.33,-141 974.43,-144.76 984.51,-148 984.33,-141"/>
</g>
<!-- Node263 -->
<g id="node15" class="node">
<title>Node263</title>
<g id="a_node15"><a xlink:href="d__a__do_8h.html" target="_top" xlink:title=" ">
<polygon fill="white" stroke="#666666" points="381.82,-96 285.82,-96 285.82,-66 381.82,-66 381.82,-96"/>
<text text-anchor="start" x="293.82" y="-84" font-family="Helvetica,sans-Serif" font-size="10.00">include/rel/d/a/d_a</text>
<text text-anchor="middle" x="333.82" y="-73" font-family="Helvetica,sans-Serif" font-size="10.00">_do/d_a_do.h</text>
</a>
</g>
</g>
<!-- Node7&#45;&gt;Node263 -->
<g id="edge14" class="edge">
<title>Node7&#45;&gt;Node263</title>
<path fill="none" stroke="#63b8ff" d="M831.19,-142.06C729.85,-136.05 545.96,-122.41 390.82,-96 388,-95.52 385.13,-94.98 382.23,-94.39"/>
<polygon fill="#63b8ff" stroke="#63b8ff" points="830.84,-145.54 841.02,-142.63 831.24,-138.55 830.84,-145.54"/>
</g>
<!-- Node462 -->
<g id="node16" class="node">
<title>Node462</title>
<g id="a_node16"><a xlink:href="d__a__mg__fshop_8h.html" target="_top" xlink:title=" ">
<polygon fill="white" stroke="#666666" points="539.32,-96 400.32,-96 400.32,-66 539.32,-66 539.32,-96"/>
<text text-anchor="start" x="408.32" y="-84" font-family="Helvetica,sans-Serif" font-size="10.00">include/rel/d/a/d_a</text>
<text text-anchor="middle" x="469.82" y="-73" font-family="Helvetica,sans-Serif" font-size="10.00">_mg_fshop/d_a_mg_fshop.h</text>
</a>
</g>
</g>
<!-- Node7&#45;&gt;Node462 -->
<g id="edge15" class="edge">
<title>Node7&#45;&gt;Node462</title>
<path fill="none" stroke="#63b8ff" d="M831.2,-136.16C758.43,-126.62 646.02,-111.38 548.82,-96 545.79,-95.52 542.7,-95.02 539.58,-94.51"/>
<polygon fill="#63b8ff" stroke="#63b8ff" points="830.66,-139.62 841.03,-137.45 831.57,-132.68 830.66,-139.62"/>
</g>
<!-- Node376 -->
<g id="node17" class="node">
<title>Node376</title>
<g id="a_node17"><a xlink:href="d__a__myna_8h.html" target="_top" xlink:title=" ">
<polygon fill="white" stroke="#666666" points="657.82,-96 557.82,-96 557.82,-66 657.82,-66 657.82,-96"/>
<text text-anchor="start" x="565.82" y="-84" font-family="Helvetica,sans-Serif" font-size="10.00">include/rel/d/a/d_a</text>
<text text-anchor="middle" x="607.82" y="-73" font-family="Helvetica,sans-Serif" font-size="10.00">_myna/d_a_myna.h</text>
</a>
</g>
</g>
<!-- Node7&#45;&gt;Node376 -->
<g id="edge16" class="edge">
<title>Node7&#45;&gt;Node376</title>
<path fill="none" stroke="#63b8ff" d="M851.59,-134.8C802.68,-124.96 729.96,-110.04 666.82,-96 663.94,-95.36 660.99,-94.69 658.01,-94.01"/>
<polygon fill="#63b8ff" stroke="#63b8ff" points="850.9,-138.24 861.39,-136.77 852.28,-131.37 850.9,-138.24"/>
</g>
<!-- Node485 -->
<g id="node18" class="node">
<title>Node485</title>
<g id="a_node18"><a xlink:href="DynamicLink_8cpp.html" target="_top" xlink:title=" ">
<polygon fill="white" stroke="#666666" points="783.32,-90.5 676.32,-90.5 676.32,-71.5 783.32,-71.5 783.32,-90.5"/>
<text text-anchor="middle" x="729.82" y="-78.5" font-family="Helvetica,sans-Serif" font-size="10.00">src/DynamicLink.cpp</text>
</a>
</g>
</g>
<!-- Node7&#45;&gt;Node485 -->
<g id="edge17" class="edge">
<title>Node7&#45;&gt;Node485</title>
<path fill="none" stroke="#63b8ff" d="M872.42,-133.27C837.58,-120.75 785.28,-101.94 754.64,-90.93"/>
<polygon fill="#63b8ff" stroke="#63b8ff" points="871.05,-136.5 881.64,-136.59 873.42,-129.91 871.05,-136.5"/>
</g>
<!-- Node185 -->
<g id="node19" class="node">
<title>Node185</title>
<g id="a_node19"><a xlink:href="c__dylink_8cpp.html" target="_top" xlink:title=" ">
<polygon fill="white" stroke="#666666" points="896.32,-90.5 801.32,-90.5 801.32,-71.5 896.32,-71.5 896.32,-90.5"/>
<text text-anchor="middle" x="848.82" y="-78.5" font-family="Helvetica,sans-Serif" font-size="10.00">src/c/c_dylink.cpp</text>
</a>
</g>
</g>
<!-- Node7&#45;&gt;Node185 -->
<g id="edge18" class="edge">
<title>Node7&#45;&gt;Node185</title>
<path fill="none" stroke="#63b8ff" d="M892.12,-128.98C880.81,-116.7 865.99,-100.63 856.95,-90.82"/>
<polygon fill="#63b8ff" stroke="#63b8ff" points="889.24,-131.01 898.59,-135.99 894.38,-126.26 889.24,-131.01"/>
</g>
<!-- Node486 -->
<g id="node20" class="node">
<title>Node486</title>
<g id="a_node20"><a xlink:href="d__meter__HIO_8cpp.html" target="_top" xlink:title=" ">
<polygon fill="white" stroke="#666666" points="1018.82,-96 914.82,-96 914.82,-66 1018.82,-66 1018.82,-96"/>
<text text-anchor="start" x="922.82" y="-84" font-family="Helvetica,sans-Serif" font-size="10.00">src/d/meter/d_meter</text>
<text text-anchor="middle" x="966.82" y="-73" font-family="Helvetica,sans-Serif" font-size="10.00">_HIO.cpp</text>
</a>
</g>
</g>
<!-- Node7&#45;&gt;Node486 -->
<g id="edge19" class="edge">
<title>Node7&#45;&gt;Node486</title>
<path fill="none" stroke="#63b8ff" d="M923.54,-128.95C932.95,-118.73 944.78,-105.9 953.7,-96.23"/>
<polygon fill="#63b8ff" stroke="#63b8ff" points="921.25,-126.26 917.05,-135.99 926.4,-131.01 921.25,-126.26"/>
</g>
<!-- Node487 -->
<g id="node21" class="node">
<title>Node487</title>
<g id="a_node21"><a xlink:href="d__pane__class_8cpp.html" target="_top" xlink:title=" ">
<polygon fill="white" stroke="#666666" points="1180.32,-90.5 1037.32,-90.5 1037.32,-71.5 1180.32,-71.5 1180.32,-90.5"/>
<text text-anchor="middle" x="1108.82" y="-78.5" font-family="Helvetica,sans-Serif" font-size="10.00">src/d/pane/d_pane_class.cpp</text>
</a>
</g>
</g>
<!-- Node7&#45;&gt;Node487 -->
<g id="edge20" class="edge">
<title>Node7&#45;&gt;Node487</title>
<path fill="none" stroke="#63b8ff" d="M946.52,-133.68C985.85,-121.15 1045.81,-102.06 1080.78,-90.93"/>
<polygon fill="#63b8ff" stroke="#63b8ff" points="945.67,-130.27 937.21,-136.64 947.8,-136.94 945.67,-130.27"/>
</g>
<!-- Node488 -->
<g id="node22" class="node">
<title>Node488</title>
<g id="a_node22"><a xlink:href="d__pane__class__alpha_8cpp.html" target="_top" xlink:title=" ">
<polygon fill="white" stroke="#666666" points="1323.32,-96 1198.32,-96 1198.32,-66 1323.32,-66 1323.32,-96"/>
<text text-anchor="start" x="1206.32" y="-84" font-family="Helvetica,sans-Serif" font-size="10.00">src/d/pane/d_pane_class</text>
<text text-anchor="middle" x="1260.82" y="-73" font-family="Helvetica,sans-Serif" font-size="10.00">_alpha.cpp</text>
</a>
</g>
</g>
<!-- Node7&#45;&gt;Node488 -->
<g id="edge21" class="edge">
<title>Node7&#45;&gt;Node488</title>
<path fill="none" stroke="#63b8ff" d="M970.65,-135.12C1027.63,-125.17 1113.92,-109.94 1188.82,-96 1191.82,-95.44 1194.9,-94.86 1198,-94.28"/>
<polygon fill="#63b8ff" stroke="#63b8ff" points="970.39,-131.61 961.14,-136.77 971.6,-138.5 970.39,-131.61"/>
</g>
<!-- Node310&#45;&gt;Node58 -->
<g id="edge12" class="edge">
<title>Node310&#45;&gt;Node58</title>
<path fill="none" stroke="#63b8ff" d="M1590.44,-65.83C1312.12,-24.86 990.4,-17.48 853.19,-16.21"/>
<polygon fill="#63b8ff" stroke="#63b8ff" points="1589.67,-69.26 1600.08,-67.27 1590.7,-62.33 1589.67,-69.26"/>
</g>
<!-- Node310&#45;&gt;Node223 -->
<g id="edge13" class="edge">
<title>Node310&#45;&gt;Node223</title>
<path fill="none" stroke="#63b8ff" d="M1665,-56.11C1670.19,-47.38 1675.89,-37.78 1680.41,-30.16"/>
<polygon fill="#63b8ff" stroke="#63b8ff" points="1662.12,-54.11 1660.02,-64.49 1668.14,-57.68 1662.12,-54.11"/>
</g>
<!-- Node509&#45;&gt;Node495 -->
<g id="edge51" class="edge">
<title>Node509&#45;&gt;Node495</title>
<path fill="none" stroke="#63b8ff" d="M2369.81,-322.34C2404.73,-293.24 2465.18,-242.87 2489.37,-222.71"/>
<polygon fill="#63b8ff" stroke="#63b8ff" points="2367.71,-319.53 2362.27,-328.62 2372.19,-324.91 2367.71,-319.53"/>
</g>
</g>
</svg>
