<?xml version="1.0" encoding="UTF-8" standalone="no"?>
<!DOCTYPE svg PUBLIC "-//W3C//DTD SVG 1.1//EN"
 "http://www.w3.org/Graphics/SVG/1.1/DTD/svg11.dtd">
<!-- Generated by graphviz version 7.0.5 (20221223.1930)
 -->
<!-- Title: include/JSystem/JAudio2/JASAudioReseter.h Pages: 1 -->
<svg width="3651pt" height="489pt"
 viewBox="0.00 0.00 3651.17 489.00" xmlns="http://www.w3.org/2000/svg" xmlns:xlink="http://www.w3.org/1999/xlink">
<g id="graph0" class="graph" transform="scale(1 1) rotate(0) translate(4 485)">
<title>include/JSystem/JAudio2/JASAudioReseter.h</title>
<!-- Node1 -->
<g id="node1" class="node">
<title>Node1</title>
<g id="a_node1"><a xlink:title=" ">
<polygon fill="#999999" stroke="#666666" points="3184.67,-481 3057.67,-481 3057.67,-451 3184.67,-451 3184.67,-481"/>
<text text-anchor="start" x="3065.67" y="-469" font-family="Helvetica,sans-Serif" font-size="10.00">include/JSystem/JAudio2</text>
<text text-anchor="middle" x="3121.17" y="-458" font-family="Helvetica,sans-Serif" font-size="10.00">/JASAudioReseter.h</text>
</a>
</g>
</g>
<!-- Node2 -->
<g id="node2" class="node">
<title>Node2</title>
<g id="a_node2"><a xlink:href="Z2AudioMgr_8h.html" target="_top" xlink:title=" ">
<polygon fill="white" stroke="#666666" points="3108.17,-415 3008.17,-415 3008.17,-385 3108.17,-385 3108.17,-415"/>
<text text-anchor="start" x="3016.17" y="-403" font-family="Helvetica,sans-Serif" font-size="10.00">include/Z2AudioLib</text>
<text text-anchor="middle" x="3058.17" y="-392" font-family="Helvetica,sans-Serif" font-size="10.00">/Z2AudioMgr.h</text>
</a>
</g>
</g>
<!-- Node1&#45;&gt;Node2 -->
<g id="edge1" class="edge">
<title>Node1&#45;&gt;Node2</title>
<path fill="none" stroke="#63b8ff" d="M3099.32,-442.81C3090.29,-433.64 3080.1,-423.28 3072.11,-415.16"/>
<polygon fill="#63b8ff" stroke="#63b8ff" points="3096.61,-445.05 3106.12,-449.72 3101.6,-440.14 3096.61,-445.05"/>
</g>
<!-- Node494 -->
<g id="node50" class="node">
<title>Node494</title>
<g id="a_node50"><a xlink:href="JASAudioReseter_8cpp.html" target="_top" xlink:title=" ">
<polygon fill="white" stroke="#666666" points="3241.67,-415 3126.67,-415 3126.67,-385 3241.67,-385 3241.67,-415"/>
<text text-anchor="start" x="3134.67" y="-403" font-family="Helvetica,sans-Serif" font-size="10.00">libs/JSystem/JAudio2</text>
<text text-anchor="middle" x="3184.17" y="-392" font-family="Helvetica,sans-Serif" font-size="10.00">/JASAudioReseter.cpp</text>
</a>
</g>
</g>
<!-- Node1&#45;&gt;Node494 -->
<g id="edge72" class="edge">
<title>Node1&#45;&gt;Node494</title>
<path fill="none" stroke="#63b8ff" d="M3143.01,-442.81C3152.04,-433.64 3162.24,-423.28 3170.22,-415.16"/>
<polygon fill="#63b8ff" stroke="#63b8ff" points="3140.73,-440.14 3136.21,-449.72 3145.72,-445.05 3140.73,-440.14"/>
</g>
<!-- Node3 -->
<g id="node3" class="node">
<title>Node3</title>
<g id="a_node3"><a xlink:href="m__Do__audio_8h.html" target="_top" xlink:title=" ">
<polygon fill="white" stroke="#666666" points="2787.17,-343.5 2647.17,-343.5 2647.17,-324.5 2787.17,-324.5 2787.17,-343.5"/>
<text text-anchor="middle" x="2717.17" y="-331.5" font-family="Helvetica,sans-Serif" font-size="10.00">include/m_Do/m_Do_audio.h</text>
</a>
</g>
</g>
<!-- Node2&#45;&gt;Node3 -->
<g id="edge2" class="edge">
<title>Node2&#45;&gt;Node3</title>
<path fill="none" stroke="#63b8ff" d="M2996.71,-387.47C2930.2,-374.98 2825.55,-355.34 2764.94,-343.97"/>
<polygon fill="#63b8ff" stroke="#63b8ff" points="2995.89,-390.87 3006.36,-389.28 2997.18,-383.99 2995.89,-390.87"/>
</g>
<!-- Node490 -->
<g id="node46" class="node">
<title>Node490</title>
<g id="a_node46"><a xlink:href="Z2AudioMgr_8cpp.html" target="_top" xlink:title=" ">
<polygon fill="white" stroke="#666666" points="2963.17,-343.5 2805.17,-343.5 2805.17,-324.5 2963.17,-324.5 2963.17,-343.5"/>
<text text-anchor="middle" x="2884.17" y="-331.5" font-family="Helvetica,sans-Serif" font-size="10.00">libs/Z2AudioLib/Z2AudioMgr.cpp</text>
</a>
</g>
</g>
<!-- Node2&#45;&gt;Node490 -->
<g id="edge68" class="edge">
<title>Node2&#45;&gt;Node490</title>
<path fill="none" stroke="#63b8ff" d="M3008.4,-380.69C2975.71,-368.67 2934.37,-353.47 2908.6,-343.99"/>
<polygon fill="#63b8ff" stroke="#63b8ff" points="3007.1,-383.95 3017.7,-384.11 3009.52,-377.38 3007.1,-383.95"/>
</g>
<!-- Node491 -->
<g id="node47" class="node">
<title>Node491</title>
<g id="a_node47"><a xlink:href="Z2Creature_8cpp.html" target="_top" xlink:title=" ">
<polygon fill="white" stroke="#666666" points="3134.67,-343.5 2981.67,-343.5 2981.67,-324.5 3134.67,-324.5 3134.67,-343.5"/>
<text text-anchor="middle" x="3058.17" y="-331.5" font-family="Helvetica,sans-Serif" font-size="10.00">libs/Z2AudioLib/Z2Creature.cpp</text>
</a>
</g>
</g>
<!-- Node2&#45;&gt;Node491 -->
<g id="edge69" class="edge">
<title>Node2&#45;&gt;Node491</title>
<path fill="none" stroke="#63b8ff" d="M3058.17,-373.59C3058.17,-363.06 3058.17,-351.53 3058.17,-343.84"/>
<polygon fill="#63b8ff" stroke="#63b8ff" points="3054.67,-373.28 3058.17,-383.28 3061.67,-373.28 3054.67,-373.28"/>
</g>
<!-- Node492 -->
<g id="node48" class="node">
<title>Node492</title>
<g id="a_node48"><a xlink:href="Z2SoundStarter_8cpp.html" target="_top" xlink:title=" ">
<polygon fill="white" stroke="#666666" points="3325.67,-343.5 3152.67,-343.5 3152.67,-324.5 3325.67,-324.5 3325.67,-343.5"/>
<text text-anchor="middle" x="3239.17" y="-331.5" font-family="Helvetica,sans-Serif" font-size="10.00">libs/Z2AudioLib/Z2SoundStarter.cpp</text>
</a>
</g>
</g>
<!-- Node2&#45;&gt;Node492 -->
<g id="edge70" class="edge">
<title>Node2&#45;&gt;Node492</title>
<path fill="none" stroke="#63b8ff" d="M3109.5,-380.85C3143.57,-368.8 3186.82,-353.51 3213.75,-343.99"/>
<polygon fill="#63b8ff" stroke="#63b8ff" points="3108.48,-377.5 3100.21,-384.13 3110.81,-384.1 3108.48,-377.5"/>
</g>
<!-- Node493 -->
<g id="node49" class="node">
<title>Node493</title>
<g id="a_node49"><a xlink:href="Z2SpeechMgr2_8cpp.html" target="_top" xlink:title=" ">
<polygon fill="white" stroke="#666666" points="3474.67,-349 3343.67,-349 3343.67,-319 3474.67,-319 3474.67,-349"/>
<text text-anchor="start" x="3351.67" y="-337" font-family="Helvetica,sans-Serif" font-size="10.00">libs/Z2AudioLib/Z2Speech</text>
<text text-anchor="middle" x="3409.17" y="-326" font-family="Helvetica,sans-Serif" font-size="10.00">Mgr2.cpp</text>
</a>
</g>
</g>
<!-- Node2&#45;&gt;Node493 -->
<g id="edge71" class="edge">
<title>Node2&#45;&gt;Node493</title>
<path fill="none" stroke="#63b8ff" d="M3119.66,-384.79C3215.93,-365.87 3242.39,-365.47 3335.17,-349 3337.87,-348.52 3340.63,-348.02 3343.41,-347.52"/>
<polygon fill="#63b8ff" stroke="#63b8ff" points="3119.14,-381.33 3110.02,-386.7 3120.51,-388.19 3119.14,-381.33"/>
</g>
<!-- Node4 -->
<g id="node4" class="node">
<title>Node4</title>
<g id="a_node4"><a xlink:href="m__Do__ext_8h.html" target="_top" xlink:title=" ">
<polygon fill="white" stroke="#666666" points="1649.17,-283 1519.17,-283 1519.17,-264 1649.17,-264 1649.17,-283"/>
<text text-anchor="middle" x="1584.17" y="-271" font-family="Helvetica,sans-Serif" font-size="10.00">include/m_Do/m_Do_ext.h</text>
</a>
</g>
</g>
<!-- Node3&#45;&gt;Node4 -->
<g id="edge3" class="edge">
<title>Node3&#45;&gt;Node4</title>
<path fill="none" stroke="#63b8ff" d="M2635.23,-328.77C2420.39,-317.68 1843.99,-287.92 1649.38,-277.87"/>
<polygon fill="#63b8ff" stroke="#63b8ff" points="2635.04,-332.26 2645.21,-329.28 2635.4,-325.27 2635.04,-332.26"/>
</g>
<!-- Node9 -->
<g id="node7" class="node">
<title>Node9</title>
<g id="a_node7"><a xlink:href="d__com__inf__game_8cpp.html" target="_top" xlink:title=" ">
<polygon fill="white" stroke="#666666" points="1390.17,-30 1282.17,-30 1282.17,0 1390.17,0 1390.17,-30"/>
<text text-anchor="start" x="1290.17" y="-18" font-family="Helvetica,sans-Serif" font-size="10.00">src/d/com/d_com_inf</text>
<text text-anchor="middle" x="1336.17" y="-7" font-family="Helvetica,sans-Serif" font-size="10.00">_game.cpp</text>
</a>
</g>
</g>
<!-- Node3&#45;&gt;Node9 -->
<g id="edge54" class="edge">
<title>Node3&#45;&gt;Node9</title>
<path fill="none" stroke="#63b8ff" d="M2775.76,-321.9C2843.82,-308.82 2947.79,-288.22 2955.17,-283 2984.48,-262.27 2997.17,-249.9 2997.17,-214 2997.17,-214 2997.17,-214 2997.17,-146 2997.17,-109.46 3006.49,-89.09 2978.17,-66 2915.31,-14.75 1667.42,-15.1 1390.35,-15.82"/>
<polygon fill="#63b8ff" stroke="#63b8ff" points="2775.4,-318.4 2766.24,-323.72 2776.72,-325.28 2775.4,-318.4"/>
</g>
<!-- Node16 -->
<g id="node8" class="node">
<title>Node16</title>
<g id="a_node8"><a xlink:href="d__msg__flow_8cpp.html" target="_top" xlink:title=" ">
<polygon fill="white" stroke="#666666" points="666.67,-24.5 533.67,-24.5 533.67,-5.5 666.67,-5.5 666.67,-24.5"/>
<text text-anchor="middle" x="600.17" y="-12.5" font-family="Helvetica,sans-Serif" font-size="10.00">src/d/msg/d_msg_flow.cpp</text>
</a>
</g>
</g>
<!-- Node3&#45;&gt;Node16 -->
<g id="edge59" class="edge">
<title>Node3&#45;&gt;Node16</title>
<path fill="none" stroke="#63b8ff" d="M2635.44,-332.97C2276.12,-332.59 834.53,-328.22 384.17,-283 212.51,-265.77 2.17,-386.53 2.17,-214 2.17,-214 2.17,-214 2.17,-146 2.17,-109.46 -6.5,-89.87 21.17,-66 59.24,-33.15 389.2,-21.14 533.3,-17.43"/>
<polygon fill="#63b8ff" stroke="#63b8ff" points="2635.25,-336.47 2645.25,-332.98 2635.25,-329.47 2635.25,-336.47"/>
</g>
<!-- Node205 -->
<g id="node12" class="node">
<title>Node205</title>
<g id="a_node12"><a xlink:href="d__name_8cpp.html" target="_top" xlink:title=" ">
<polygon fill="white" stroke="#666666" points="124.17,-90.5 30.17,-90.5 30.17,-71.5 124.17,-71.5 124.17,-90.5"/>
<text text-anchor="middle" x="77.17" y="-78.5" font-family="Helvetica,sans-Serif" font-size="10.00">src/d/d_name.cpp</text>
</a>
</g>
</g>
<!-- Node3&#45;&gt;Node205 -->
<g id="edge55" class="edge">
<title>Node3&#45;&gt;Node205</title>
<path fill="none" stroke="#63b8ff" d="M2635.45,-333.3C2254.73,-334.43 664.4,-335.91 449.17,-283 293.05,-244.62 131.8,-124.81 88.45,-90.98"/>
<polygon fill="#63b8ff" stroke="#63b8ff" points="2635.39,-336.8 2645.38,-333.27 2635.37,-329.8 2635.39,-336.8"/>
</g>
<!-- Node215 -->
<g id="node13" class="node">
<title>Node215</title>
<g id="a_node13"><a xlink:href="d__event__manager_8cpp.html" target="_top" xlink:title=" ">
<polygon fill="white" stroke="#666666" points="2696.67,-96 2593.67,-96 2593.67,-66 2696.67,-66 2696.67,-96"/>
<text text-anchor="start" x="2601.67" y="-84" font-family="Helvetica,sans-Serif" font-size="10.00">src/d/event/d_event</text>
<text text-anchor="middle" x="2645.17" y="-73" font-family="Helvetica,sans-Serif" font-size="10.00">_manager.cpp</text>
</a>
</g>
</g>
<!-- Node3&#45;&gt;Node215 -->
<g id="edge56" class="edge">
<title>Node3&#45;&gt;Node215</title>
<path fill="none" stroke="#63b8ff" d="M2751.93,-319.53C2787.49,-303.64 2840.76,-273.49 2864.17,-228 2883.69,-190.06 2890.78,-165.35 2864.17,-132 2819.25,-75.7 2776.38,-112.06 2706.17,-96 2703.2,-95.32 2700.15,-94.62 2697.08,-93.92"/>
<polygon fill="#63b8ff" stroke="#63b8ff" points="2750.71,-316.24 2742.9,-323.41 2753.47,-322.68 2750.71,-316.24"/>
</g>
<!-- Node220 -->
<g id="node14" class="node">
<title>Node220</title>
<g id="a_node14"><a xlink:href="d__kankyo__wether_8cpp.html" target="_top" xlink:title=" ">
<polygon fill="white" stroke="#666666" points="1134.17,-96 1018.17,-96 1018.17,-66 1134.17,-66 1134.17,-96"/>
<text text-anchor="start" x="1026.17" y="-84" font-family="Helvetica,sans-Serif" font-size="10.00">src/d/kankyo/d_kankyo</text>
<text text-anchor="middle" x="1076.17" y="-73" font-family="Helvetica,sans-Serif" font-size="10.00">_wether.cpp</text>
</a>
</g>
</g>
<!-- Node3&#45;&gt;Node220 -->
<g id="edge58" class="edge">
<title>Node3&#45;&gt;Node220</title>
<path fill="none" stroke="#63b8ff" d="M2715.15,-312.86C2710.9,-282.32 2698.05,-225 2660.17,-198 2522.69,-100.01 1311.45,-118.74 1144.17,-96 1140.94,-95.56 1137.64,-95.06 1134.32,-94.51"/>
<polygon fill="#63b8ff" stroke="#63b8ff" points="2711.65,-313.12 2716.31,-322.64 2718.6,-312.29 2711.65,-313.12"/>
</g>
<!-- Node238 -->
<g id="node15" class="node">
<title>Node238</title>
<g id="a_node15"><a xlink:href="d__ovlp__fade_8cpp.html" target="_top" xlink:title=" ">
<polygon fill="white" stroke="#666666" points="275.67,-90.5 142.67,-90.5 142.67,-71.5 275.67,-71.5 275.67,-90.5"/>
<text text-anchor="middle" x="209.17" y="-78.5" font-family="Helvetica,sans-Serif" font-size="10.00">src/d/ovlp/d_ovlp_fade.cpp</text>
</a>
</g>
</g>
<!-- Node3&#45;&gt;Node238 -->
<g id="edge60" class="edge">
<title>Node3&#45;&gt;Node238</title>
<path fill="none" stroke="#63b8ff" d="M2635.34,-332.28C2247.5,-328.73 608.57,-312.05 504.17,-283 372.82,-246.45 249.36,-124.28 217.24,-90.64"/>
<polygon fill="#63b8ff" stroke="#63b8ff" points="2635.18,-335.78 2645.21,-332.37 2635.24,-328.78 2635.18,-335.78"/>
</g>
<!-- Node241 -->
<g id="node16" class="node">
<title>Node241</title>
<g id="a_node16"><a xlink:href="d__s__name_8cpp.html" target="_top" xlink:title=" ">
<polygon fill="white" stroke="#666666" points="406.67,-90.5 293.67,-90.5 293.67,-71.5 406.67,-71.5 406.67,-90.5"/>
<text text-anchor="middle" x="350.17" y="-78.5" font-family="Helvetica,sans-Serif" font-size="10.00">src/d/s/d_s_name.cpp</text>
</a>
</g>
</g>
<!-- Node3&#45;&gt;Node241 -->
<g id="edge63" class="edge">
<title>Node3&#45;&gt;Node241</title>
<path fill="none" stroke="#63b8ff" d="M2635.47,-332.29C2274.45,-329 831.37,-313.99 631.17,-283 544.71,-269.62 512.03,-280.65 442.17,-228 391.92,-190.13 362.2,-116.15 353.14,-90.78"/>
<polygon fill="#63b8ff" stroke="#63b8ff" points="2635.3,-335.79 2645.33,-332.38 2635.36,-328.79 2635.3,-335.79"/>
</g>
<!-- Node249 -->
<g id="node17" class="node">
<title>Node249</title>
<g id="a_node17"><a xlink:href="m__Do__audio_8cpp.html" target="_top" xlink:title=" ">
<polygon fill="white" stroke="#666666" points="559.17,-90.5 425.17,-90.5 425.17,-71.5 559.17,-71.5 559.17,-90.5"/>
<text text-anchor="middle" x="492.17" y="-78.5" font-family="Helvetica,sans-Serif" font-size="10.00">src/m_Do/m_Do_audio.cpp</text>
</a>
</g>
</g>
<!-- Node3&#45;&gt;Node249 -->
<g id="edge67" class="edge">
<title>Node3&#45;&gt;Node249</title>
<path fill="none" stroke="#63b8ff" d="M2635.35,-332.33C2239.24,-328.7 536.5,-308.43 460.17,-228 422.84,-188.66 467.79,-116.24 485.55,-90.98"/>
<polygon fill="#63b8ff" stroke="#63b8ff" points="2635.14,-335.83 2645.17,-332.42 2635.21,-328.83 2635.14,-335.83"/>
</g>
<!-- Node55 -->
<g id="node24" class="node">
<title>Node55</title>
<g id="a_node24"><a xlink:href="d__kankyo_8cpp.html" target="_top" xlink:title=" ">
<polygon fill="white" stroke="#666666" points="2849.17,-90.5 2715.17,-90.5 2715.17,-71.5 2849.17,-71.5 2849.17,-90.5"/>
<text text-anchor="middle" x="2782.17" y="-78.5" font-family="Helvetica,sans-Serif" font-size="10.00">src/d/kankyo/d_kankyo.cpp</text>
</a>
</g>
</g>
<!-- Node3&#45;&gt;Node55 -->
<g id="edge57" class="edge">
<title>Node3&#45;&gt;Node55</title>
<path fill="none" stroke="#63b8ff" d="M2773.71,-321.85C2836.58,-309.17 2930.05,-289.42 2935.17,-283 2976.98,-230.51 2974.57,-186.33 2935.17,-132 2922.41,-114.41 2868.7,-99.74 2828.5,-90.94"/>
<polygon fill="#63b8ff" stroke="#63b8ff" points="2773.34,-318.35 2764.22,-323.75 2774.72,-325.21 2773.34,-318.35"/>
</g>
<!-- Node80 -->
<g id="node25" class="node">
<title>Node80</title>
<g id="a_node25"><a xlink:href="d__s__play_8cpp.html" target="_top" xlink:title=" ">
<polygon fill="white" stroke="#666666" points="2575.17,-90.5 2469.17,-90.5 2469.17,-71.5 2575.17,-71.5 2575.17,-90.5"/>
<text text-anchor="middle" x="2522.17" y="-78.5" font-family="Helvetica,sans-Serif" font-size="10.00">src/d/s/d_s_play.cpp</text>
</a>
</g>
</g>
<!-- Node3&#45;&gt;Node80 -->
<g id="edge64" class="edge">
<title>Node3&#45;&gt;Node80</title>
<path fill="none" stroke="#63b8ff" d="M2719.32,-312.85C2721.27,-284.04 2720.44,-230.9 2693.17,-198 2664.35,-163.24 2635.77,-186.99 2598.17,-162 2567.69,-141.75 2540.39,-107.18 2528.48,-90.94"/>
<polygon fill="#63b8ff" stroke="#63b8ff" points="2715.85,-312.45 2718.46,-322.72 2722.82,-313.06 2715.85,-312.45"/>
</g>
<!-- Node83 -->
<g id="node42" class="node">
<title>Node83</title>
<g id="a_node42"><a xlink:href="d__ovlp__fade2_8cpp.html" target="_top" xlink:title=" ">
<polygon fill="white" stroke="#666666" points="3163.17,-283 3025.17,-283 3025.17,-264 3163.17,-264 3163.17,-283"/>
<text text-anchor="middle" x="3094.17" y="-271" font-family="Helvetica,sans-Serif" font-size="10.00">src/d/ovlp/d_ovlp_fade2.cpp</text>
</a>
</g>
</g>
<!-- Node3&#45;&gt;Node83 -->
<g id="edge61" class="edge">
<title>Node3&#45;&gt;Node83</title>
<path fill="none" stroke="#63b8ff" d="M2777.63,-322.11C2783.89,-321.04 2790.15,-319.98 2796.17,-319 2876.96,-305.81 2970.34,-292.12 3030.72,-283.46"/>
<polygon fill="#63b8ff" stroke="#63b8ff" points="2777.18,-318.64 2767.93,-323.8 2778.38,-325.53 2777.18,-318.64"/>
</g>
<!-- Node85 -->
<g id="node43" class="node">
<title>Node85</title>
<g id="a_node43"><a xlink:href="d__ovlp__fade3_8cpp.html" target="_top" xlink:title=" ">
<polygon fill="white" stroke="#666666" points="3319.17,-283 3181.17,-283 3181.17,-264 3319.17,-264 3319.17,-283"/>
<text text-anchor="middle" x="3250.17" y="-271" font-family="Helvetica,sans-Serif" font-size="10.00">src/d/ovlp/d_ovlp_fade3.cpp</text>
</a>
</g>
</g>
<!-- Node3&#45;&gt;Node85 -->
<g id="edge62" class="edge">
<title>Node3&#45;&gt;Node85</title>
<path fill="none" stroke="#63b8ff" d="M2775.49,-322.12C2782.44,-320.99 2789.46,-319.91 2796.17,-319 2962.51,-296.34 3005.16,-300.09 3172.17,-283 3175.01,-282.71 3177.92,-282.41 3180.85,-282.1"/>
<polygon fill="#63b8ff" stroke="#63b8ff" points="2775.05,-318.65 2765.77,-323.76 2776.21,-325.55 2775.05,-318.65"/>
</g>
<!-- Node22 -->
<g id="node44" class="node">
<title>Node22</title>
<g id="a_node44"><a xlink:href="d__shop__system_8cpp.html" target="_top" xlink:title=" ">
<polygon fill="white" stroke="#666666" points="3489.17,-283 3337.17,-283 3337.17,-264 3489.17,-264 3489.17,-283"/>
<text text-anchor="middle" x="3413.17" y="-271" font-family="Helvetica,sans-Serif" font-size="10.00">src/d/shop/d_shop_system.cpp</text>
</a>
</g>
</g>
<!-- Node3&#45;&gt;Node22 -->
<g id="edge65" class="edge">
<title>Node3&#45;&gt;Node22</title>
<path fill="none" stroke="#63b8ff" d="M2774.1,-322.16C2781.51,-320.97 2789.01,-319.87 2796.17,-319 3031.41,-290.28 3092.01,-302.79 3328.17,-283 3330.98,-282.76 3333.83,-282.52 3336.72,-282.26"/>
<polygon fill="#63b8ff" stroke="#63b8ff" points="2773.77,-318.66 2764.49,-323.77 2774.93,-325.57 2773.77,-318.66"/>
</g>
<!-- Node489 -->
<g id="node45" class="node">
<title>Node489</title>
<g id="a_node45"><a xlink:href="m__Do__Reset_8cpp.html" target="_top" xlink:title=" ">
<polygon fill="white" stroke="#666666" points="3643.17,-283 3507.17,-283 3507.17,-264 3643.17,-264 3643.17,-283"/>
<text text-anchor="middle" x="3575.17" y="-271" font-family="Helvetica,sans-Serif" font-size="10.00">src/m_Do/m_Do_Reset.cpp</text>
</a>
</g>
</g>
<!-- Node3&#45;&gt;Node489 -->
<g id="edge66" class="edge">
<title>Node3&#45;&gt;Node489</title>
<path fill="none" stroke="#63b8ff" d="M2773.25,-322.18C2780.93,-320.95 2788.73,-319.85 2796.17,-319 3106.57,-283.67 3186.77,-308.15 3498.17,-283 3500.98,-282.77 3503.85,-282.53 3506.75,-282.26"/>
<polygon fill="#63b8ff" stroke="#63b8ff" points="2772.92,-318.68 2763.64,-323.78 2774.08,-325.59 2772.92,-318.68"/>
</g>
<!-- Node5 -->
<g id="node5" class="node">
<title>Node5</title>
<g id="a_node5"><a xlink:href="d__attention_8h.html" target="_top" xlink:title=" ">
<polygon fill="white" stroke="#666666" points="772.17,-222.5 658.17,-222.5 658.17,-203.5 772.17,-203.5 772.17,-222.5"/>
<text text-anchor="middle" x="715.17" y="-210.5" font-family="Helvetica,sans-Serif" font-size="10.00">include/d/d_attention.h</text>
</a>
</g>
</g>
<!-- Node4&#45;&gt;Node5 -->
<g id="edge4" class="edge">
<title>Node4&#45;&gt;Node5</title>
<path fill="none" stroke="#63b8ff" d="M1507.65,-272.08C1364.57,-270.45 1047.02,-262.82 782.17,-228 772.74,-226.76 762.66,-224.93 753.26,-223"/>
<polygon fill="#63b8ff" stroke="#63b8ff" points="1507.34,-275.58 1517.37,-272.18 1507.41,-268.58 1507.34,-275.58"/>
</g>
<!-- Node182 -->
<g id="node10" class="node">
<title>Node182</title>
<g id="a_node10"><a xlink:href="c__dylink_8cpp.html" target="_top" xlink:title=" ">
<polygon fill="white" stroke="#666666" points="819.67,-90.5 724.67,-90.5 724.67,-71.5 819.67,-71.5 819.67,-90.5"/>
<text text-anchor="middle" x="772.17" y="-78.5" font-family="Helvetica,sans-Serif" font-size="10.00">src/c/c_dylink.cpp</text>
</a>
</g>
</g>
<!-- Node4&#45;&gt;Node182 -->
<g id="edge42" class="edge">
<title>Node4&#45;&gt;Node182</title>
<path fill="none" stroke="#63b8ff" d="M1507.84,-272.28C1264.31,-271.19 519.58,-264.87 484.17,-228 463.14,-206.11 490.97,-145.05 506.17,-132 578.02,-70.32 623.5,-115.5 716.17,-96 723.23,-94.51 730.75,-92.76 737.91,-91"/>
<polygon fill="#63b8ff" stroke="#63b8ff" points="1507.53,-275.78 1517.54,-272.32 1507.56,-268.78 1507.53,-275.78"/>
</g>
<!-- Node250 -->
<g id="node18" class="node">
<title>Node250</title>
<g id="a_node18"><a xlink:href="m__Do__ext_8cpp.html" target="_top" xlink:title=" ">
<polygon fill="white" stroke="#666666" points="999.67,-90.5 876.67,-90.5 876.67,-71.5 999.67,-71.5 999.67,-90.5"/>
<text text-anchor="middle" x="938.17" y="-78.5" font-family="Helvetica,sans-Serif" font-size="10.00">src/m_Do/m_Do_ext.cpp</text>
</a>
</g>
</g>
<!-- Node4&#45;&gt;Node250 -->
<g id="edge50" class="edge">
<title>Node4&#45;&gt;Node250</title>
<path fill="none" stroke="#63b8ff" d="M1507.66,-271.7C1289.59,-269.05 678.62,-258.89 649.17,-228 607.94,-184.77 681.45,-149.73 713.17,-132 728.58,-123.38 829.69,-102.88 891.01,-90.98"/>
<polygon fill="#63b8ff" stroke="#63b8ff" points="1507.43,-275.2 1517.47,-271.82 1507.51,-268.2 1507.43,-275.2"/>
</g>
<!-- Node253 -->
<g id="node19" class="node">
<title>Node253</title>
<g id="a_node19"><a xlink:href="m__Do__machine__exception_8cpp.html" target="_top" xlink:title=" ">
<polygon fill="white" stroke="#666666" points="706.67,-96 577.67,-96 577.67,-66 706.67,-66 706.67,-96"/>
<text text-anchor="start" x="585.67" y="-84" font-family="Helvetica,sans-Serif" font-size="10.00">src/m_Do/m_Do_machine</text>
<text text-anchor="middle" x="642.17" y="-73" font-family="Helvetica,sans-Serif" font-size="10.00">_exception.cpp</text>
</a>
</g>
</g>
<!-- Node4&#45;&gt;Node253 -->
<g id="edge52" class="edge">
<title>Node4&#45;&gt;Node253</title>
<path fill="none" stroke="#63b8ff" d="M1507.44,-272.31C1261.69,-271.33 507.99,-265.29 472.17,-228 457.56,-212.8 465,-152.01 482.17,-132 494.96,-117.09 538.75,-104 577.3,-94.96"/>
<polygon fill="#63b8ff" stroke="#63b8ff" points="1507.22,-275.81 1517.24,-272.35 1507.25,-268.81 1507.22,-275.81"/>
</g>
<!-- Node256 -->
<g id="node21" class="node">
<title>Node256</title>
<g id="a_node21"><a xlink:href="d__drawlist_8h.html" target="_top" xlink:title=" ">
<polygon fill="#fff0f0" stroke="red" points="2855.17,-222.5 2745.17,-222.5 2745.17,-203.5 2855.17,-203.5 2855.17,-222.5"/>
<text text-anchor="middle" x="2800.17" y="-210.5" font-family="Helvetica,sans-Serif" font-size="10.00">include/d/d_drawlist.h</text>
</a>
</g>
</g>
<!-- Node4&#45;&gt;Node256 -->
<g id="edge22" class="edge">
<title>Node4&#45;&gt;Node256</title>
<path fill="none" stroke="#63b8ff" d="M1660.92,-270.86C1837.48,-266.76 2286.01,-254.42 2660.17,-228 2688.07,-226.03 2719.02,-223.02 2744.71,-220.3"/>
<polygon fill="#63b8ff" stroke="#63b8ff" points="1660.87,-267.36 1650.95,-271.09 1661.03,-274.36 1660.87,-267.36"/>
</g>
<!-- Node260 -->
<g id="node23" class="node">
<title>Node260</title>
<g id="a_node23"><a xlink:href="d__a__do_8h.html" target="_top" xlink:title=" ">
<polygon fill="white" stroke="#666666" points="2083.17,-96 1987.17,-96 1987.17,-66 2083.17,-66 2083.17,-96"/>
<text text-anchor="start" x="1995.17" y="-84" font-family="Helvetica,sans-Serif" font-size="10.00">include/rel/d/a/d_a</text>
<text text-anchor="middle" x="2035.17" y="-73" font-family="Helvetica,sans-Serif" font-size="10.00">_do/d_a_do.h</text>
</a>
</g>
</g>
<!-- Node4&#45;&gt;Node260 -->
<g id="edge38" class="edge">
<title>Node4&#45;&gt;Node260</title>
<path fill="none" stroke="#63b8ff" d="M1602.92,-256.21C1622.74,-239.68 1655.44,-214.27 1687.17,-198 1788.45,-146.04 1917.96,-110.09 1986.9,-93.12"/>
<polygon fill="#63b8ff" stroke="#63b8ff" points="1600.81,-253.41 1595.45,-262.55 1605.34,-258.75 1600.81,-253.41"/>
</g>
<!-- Node174 -->
<g id="node26" class="node">
<title>Node174</title>
<g id="a_node26"><a xlink:href="f__op__actor__mng_8cpp.html" target="_top" xlink:title=" ">
<polygon fill="white" stroke="#666666" points="2968.67,-96 2867.67,-96 2867.67,-66 2968.67,-66 2968.67,-96"/>
<text text-anchor="start" x="2875.67" y="-84" font-family="Helvetica,sans-Serif" font-size="10.00">src/f_op/f_op_actor</text>
<text text-anchor="middle" x="2918.17" y="-73" font-family="Helvetica,sans-Serif" font-size="10.00">_mng.cpp</text>
</a>
</g>
</g>
<!-- Node4&#45;&gt;Node174 -->
<g id="edge46" class="edge">
<title>Node4&#45;&gt;Node174</title>
<path fill="none" stroke="#63b8ff" d="M1660.8,-272.18C1929.5,-270.74 2815.28,-263.32 2864.17,-228 2907.54,-196.66 2916.12,-126.46 2917.79,-96.26"/>
<polygon fill="#63b8ff" stroke="#63b8ff" points="1661.11,-268.67 1651.12,-272.23 1661.14,-275.67 1661.11,-268.67"/>
</g>
<!-- Node305 -->
<g id="node28" class="node">
<title>Node305</title>
<g id="a_node28"><a xlink:href="d__ky__thunder_8h.html" target="_top" xlink:title=" ">
<polygon fill="#fff0f0" stroke="red" points="2651.17,-222.5 2527.17,-222.5 2527.17,-203.5 2651.17,-203.5 2651.17,-222.5"/>
<text text-anchor="middle" x="2589.17" y="-210.5" font-family="Helvetica,sans-Serif" font-size="10.00">include/d/d_ky_thunder.h</text>
</a>
</g>
</g>
<!-- Node4&#45;&gt;Node305 -->
<g id="edge32" class="edge">
<title>Node4&#45;&gt;Node305</title>
<path fill="none" stroke="#63b8ff" d="M1660.68,-272.65C1820.55,-272.14 2201.46,-266.56 2518.17,-228 2528.27,-226.77 2539.09,-224.92 2549.16,-222.96"/>
<polygon fill="#63b8ff" stroke="#63b8ff" points="1661.06,-269.15 1651.07,-272.68 1661.08,-276.15 1661.06,-269.15"/>
</g>
<!-- Node306 -->
<g id="node29" class="node">
<title>Node306</title>
<g id="a_node29"><a xlink:href="d__resorce_8h.html" target="_top" xlink:title=" ">
<polygon fill="#fff0f0" stroke="red" points="601.67,-222.5 492.67,-222.5 492.67,-203.5 601.67,-203.5 601.67,-222.5"/>
<text text-anchor="middle" x="547.17" y="-210.5" font-family="Helvetica,sans-Serif" font-size="10.00">include/d/d_resorce.h</text>
</a>
</g>
</g>
<!-- Node4&#45;&gt;Node306 -->
<g id="edge33" class="edge">
<title>Node4&#45;&gt;Node306</title>
<path fill="none" stroke="#63b8ff" d="M1507.31,-272.98C1343.05,-273.13 945.93,-268.79 616.17,-228 606.34,-226.78 595.83,-224.94 586.04,-222.98"/>
<polygon fill="#63b8ff" stroke="#63b8ff" points="1507.22,-276.48 1517.21,-272.96 1507.21,-269.48 1507.22,-276.48"/>
</g>
<!-- Node307 -->
<g id="node30" class="node">
<title>Node307</title>
<g id="a_node30"><a xlink:href="d__kankyo_8h.html" target="_top" xlink:title=" ">
<polygon fill="#fff0f0" stroke="red" points="1639.17,-162 1541.17,-162 1541.17,-132 1639.17,-132 1639.17,-162"/>
<text text-anchor="start" x="1549.17" y="-150" font-family="Helvetica,sans-Serif" font-size="10.00">include/d/kankyo/d</text>
<text text-anchor="middle" x="1590.17" y="-139" font-family="Helvetica,sans-Serif" font-size="10.00">_kankyo.h</text>
</a>
</g>
</g>
<!-- Node4&#45;&gt;Node307 -->
<g id="edge35" class="edge">
<title>Node4&#45;&gt;Node307</title>
<path fill="none" stroke="#63b8ff" d="M1597.76,-254.27C1602.69,-246.58 1607.66,-237.26 1610.17,-228 1616.34,-205.2 1606.25,-178.56 1598.29,-162.5"/>
<polygon fill="#63b8ff" stroke="#63b8ff" points="1594.98,-252.14 1592.16,-262.36 1600.73,-256.13 1594.98,-252.14"/>
</g>
<!-- Node458 -->
<g id="node31" class="node">
<title>Node458</title>
<g id="a_node31"><a xlink:href="d__a__mg__fshop_8h.html" target="_top" xlink:title=" ">
<polygon fill="white" stroke="#666666" points="929.67,-228 790.67,-228 790.67,-198 929.67,-198 929.67,-228"/>
<text text-anchor="start" x="798.67" y="-216" font-family="Helvetica,sans-Serif" font-size="10.00">include/rel/d/a/d_a</text>
<text text-anchor="middle" x="860.17" y="-205" font-family="Helvetica,sans-Serif" font-size="10.00">_mg_fshop/d_a_mg_fshop.h</text>
</a>
</g>
</g>
<!-- Node4&#45;&gt;Node458 -->
<g id="edge39" class="edge">
<title>Node4&#45;&gt;Node458</title>
<path fill="none" stroke="#63b8ff" d="M1507.62,-269.86C1386.57,-265.09 1143.69,-253.11 939.17,-228 936.13,-227.63 933.02,-227.21 929.89,-226.77"/>
<polygon fill="#63b8ff" stroke="#63b8ff" points="1507.31,-273.35 1517.43,-270.24 1507.58,-266.35 1507.31,-273.35"/>
</g>
<!-- Node373 -->
<g id="node32" class="node">
<title>Node373</title>
<g id="a_node32"><a xlink:href="d__a__myna_8h.html" target="_top" xlink:title=" ">
<polygon fill="white" stroke="#666666" points="1048.17,-228 948.17,-228 948.17,-198 1048.17,-198 1048.17,-228"/>
<text text-anchor="start" x="956.17" y="-216" font-family="Helvetica,sans-Serif" font-size="10.00">include/rel/d/a/d_a</text>
<text text-anchor="middle" x="998.17" y="-205" font-family="Helvetica,sans-Serif" font-size="10.00">_myna/d_a_myna.h</text>
</a>
</g>
</g>
<!-- Node4&#45;&gt;Node373 -->
<g id="edge40" class="edge">
<title>Node4&#45;&gt;Node373</title>
<path fill="none" stroke="#63b8ff" d="M1507.52,-269.5C1404.74,-264.68 1216.8,-253.08 1058.17,-228 1055,-227.5 1051.75,-226.92 1048.48,-226.3"/>
<polygon fill="#63b8ff" stroke="#63b8ff" points="1507.36,-272.99 1517.51,-269.96 1507.68,-266 1507.36,-272.99"/>
</g>
<!-- Node480 -->
<g id="node33" class="node">
<title>Node480</title>
<g id="a_node33"><a xlink:href="DynamicLink_8cpp.html" target="_top" xlink:title=" ">
<polygon fill="white" stroke="#666666" points="1173.67,-222.5 1066.67,-222.5 1066.67,-203.5 1173.67,-203.5 1173.67,-222.5"/>
<text text-anchor="middle" x="1120.17" y="-210.5" font-family="Helvetica,sans-Serif" font-size="10.00">src/DynamicLink.cpp</text>
</a>
</g>
</g>
<!-- Node4&#45;&gt;Node480 -->
<g id="edge41" class="edge">
<title>Node4&#45;&gt;Node480</title>
<path fill="none" stroke="#63b8ff" d="M1507.85,-266.5C1426.93,-259.57 1295.52,-246.66 1183.17,-228 1174.77,-226.6 1165.8,-224.8 1157.35,-222.96"/>
<polygon fill="#63b8ff" stroke="#63b8ff" points="1507.16,-269.96 1517.42,-267.32 1507.75,-262.98 1507.16,-269.96"/>
</g>
<!-- Node481 -->
<g id="node34" class="node">
<title>Node481</title>
<g id="a_node34"><a xlink:href="d__meter__HIO_8cpp.html" target="_top" xlink:title=" ">
<polygon fill="white" stroke="#666666" points="1296.17,-228 1192.17,-228 1192.17,-198 1296.17,-198 1296.17,-228"/>
<text text-anchor="start" x="1200.17" y="-216" font-family="Helvetica,sans-Serif" font-size="10.00">src/d/meter/d_meter</text>
<text text-anchor="middle" x="1244.17" y="-205" font-family="Helvetica,sans-Serif" font-size="10.00">_HIO.cpp</text>
</a>
</g>
</g>
<!-- Node4&#45;&gt;Node481 -->
<g id="edge43" class="edge">
<title>Node4&#45;&gt;Node481</title>
<path fill="none" stroke="#63b8ff" d="M1509.49,-261.86C1453.4,-253.55 1374.75,-241.22 1306.17,-228 1303.03,-227.39 1299.8,-226.75 1296.55,-226.07"/>
<polygon fill="#63b8ff" stroke="#63b8ff" points="1508.86,-265.3 1519.26,-263.3 1509.88,-258.38 1508.86,-265.3"/>
</g>
<!-- Node482 -->
<g id="node35" class="node">
<title>Node482</title>
<g id="a_node35"><a xlink:href="d__pane__class_8cpp.html" target="_top" xlink:title=" ">
<polygon fill="white" stroke="#666666" points="1457.67,-222.5 1314.67,-222.5 1314.67,-203.5 1457.67,-203.5 1457.67,-222.5"/>
<text text-anchor="middle" x="1386.17" y="-210.5" font-family="Helvetica,sans-Serif" font-size="10.00">src/d/pane/d_pane_class.cpp</text>
</a>
</g>
</g>
<!-- Node4&#45;&gt;Node482 -->
<g id="edge44" class="edge">
<title>Node4&#45;&gt;Node482</title>
<path fill="none" stroke="#63b8ff" d="M1543.48,-260.48C1505.76,-249.34 1450.51,-233.01 1416.52,-222.97"/>
<polygon fill="#63b8ff" stroke="#63b8ff" points="1542.06,-263.71 1552.64,-263.19 1544.05,-257 1542.06,-263.71"/>
</g>
<!-- Node483 -->
<g id="node36" class="node">
<title>Node483</title>
<g id="a_node36"><a xlink:href="d__pane__class__alpha_8cpp.html" target="_top" xlink:title=" ">
<polygon fill="white" stroke="#666666" points="1600.67,-228 1475.67,-228 1475.67,-198 1600.67,-198 1600.67,-228"/>
<text text-anchor="start" x="1483.67" y="-216" font-family="Helvetica,sans-Serif" font-size="10.00">src/d/pane/d_pane_class</text>
<text text-anchor="middle" x="1538.17" y="-205" font-family="Helvetica,sans-Serif" font-size="10.00">_alpha.cpp</text>
</a>
</g>
</g>
<!-- Node4&#45;&gt;Node483 -->
<g id="edge45" class="edge">
<title>Node4&#45;&gt;Node483</title>
<path fill="none" stroke="#63b8ff" d="M1570.45,-255.05C1563.69,-246.45 1555.64,-236.21 1549.27,-228.11"/>
<polygon fill="#63b8ff" stroke="#63b8ff" points="1567.51,-256.98 1576.44,-262.68 1573.01,-252.65 1567.51,-256.98"/>
</g>
<!-- Node484 -->
<g id="node37" class="node">
<title>Node484</title>
<g id="a_node37"><a xlink:href="m__Do__DVDError_8cpp.html" target="_top" xlink:title=" ">
<polygon fill="white" stroke="#666666" points="1846.67,-222.5 1695.67,-222.5 1695.67,-203.5 1846.67,-203.5 1846.67,-222.5"/>
<text text-anchor="middle" x="1771.17" y="-210.5" font-family="Helvetica,sans-Serif" font-size="10.00">src/m_Do/m_Do_DVDError.cpp</text>
</a>
</g>
</g>
<!-- Node4&#45;&gt;Node484 -->
<g id="edge47" class="edge">
<title>Node4&#45;&gt;Node484</title>
<path fill="none" stroke="#63b8ff" d="M1623.52,-260.19C1659.11,-249.06 1710.67,-232.92 1742.5,-222.97"/>
<polygon fill="#63b8ff" stroke="#63b8ff" points="1622.51,-256.84 1614.01,-263.16 1624.6,-263.52 1622.51,-256.84"/>
</g>
<!-- Node485 -->
<g id="node38" class="node">
<title>Node485</title>
<g id="a_node38"><a xlink:href="m__Do__MemCard_8cpp.html" target="_top" xlink:title=" ">
<polygon fill="white" stroke="#666666" points="2017.17,-222.5 1865.17,-222.5 1865.17,-203.5 2017.17,-203.5 2017.17,-222.5"/>
<text text-anchor="middle" x="1941.17" y="-210.5" font-family="Helvetica,sans-Serif" font-size="10.00">src/m_Do/m_Do_MemCard.cpp</text>
</a>
</g>
</g>
<!-- Node4&#45;&gt;Node485 -->
<g id="edge48" class="edge">
<title>Node4&#45;&gt;Node485</title>
<path fill="none" stroke="#63b8ff" d="M1650.49,-261.67C1705.56,-252.67 1785.97,-239.52 1856.17,-228 1866.06,-226.38 1876.59,-224.64 1886.76,-222.97"/>
<polygon fill="#63b8ff" stroke="#63b8ff" points="1649.93,-258.21 1640.63,-263.28 1651.06,-265.12 1649.93,-258.21"/>
</g>
<!-- Node486 -->
<g id="node39" class="node">
<title>Node486</title>
<g id="a_node39"><a xlink:href="m__Do__dvd__thread_8cpp.html" target="_top" xlink:title=" ">
<polygon fill="white" stroke="#666666" points="2193.17,-222.5 2035.17,-222.5 2035.17,-203.5 2193.17,-203.5 2193.17,-222.5"/>
<text text-anchor="middle" x="2114.17" y="-210.5" font-family="Helvetica,sans-Serif" font-size="10.00">src/m_Do/m_Do_dvd_thread.cpp</text>
</a>
</g>
</g>
<!-- Node4&#45;&gt;Node486 -->
<g id="edge49" class="edge">
<title>Node4&#45;&gt;Node486</title>
<path fill="none" stroke="#63b8ff" d="M1660.7,-266.14C1748.96,-258.49 1898.31,-244.59 2026.17,-228 2037.52,-226.53 2049.66,-224.74 2061.19,-222.93"/>
<polygon fill="#63b8ff" stroke="#63b8ff" points="1660.63,-262.63 1650.96,-266.98 1661.23,-269.61 1660.63,-262.63"/>
</g>
<!-- Node487 -->
<g id="node40" class="node">
<title>Node487</title>
<g id="a_node40"><a xlink:href="m__Do__machine_8cpp.html" target="_top" xlink:title=" ">
<polygon fill="white" stroke="#666666" points="2358.67,-222.5 2211.67,-222.5 2211.67,-203.5 2358.67,-203.5 2358.67,-222.5"/>
<text text-anchor="middle" x="2285.17" y="-210.5" font-family="Helvetica,sans-Serif" font-size="10.00">src/m_Do/m_Do_machine.cpp</text>
</a>
</g>
</g>
<!-- Node4&#45;&gt;Node487 -->
<g id="edge51" class="edge">
<title>Node4&#45;&gt;Node487</title>
<path fill="none" stroke="#63b8ff" d="M1660.62,-269.34C1777.58,-263.98 2007.85,-251.33 2202.17,-228 2213.34,-226.66 2225.3,-224.86 2236.56,-222.99"/>
<polygon fill="#63b8ff" stroke="#63b8ff" points="1660.66,-265.83 1650.83,-269.78 1660.97,-272.83 1660.66,-265.83"/>
</g>
<!-- Node488 -->
<g id="node41" class="node">
<title>Node488</title>
<g id="a_node41"><a xlink:href="m__Do__printf_8cpp.html" target="_top" xlink:title=" ">
<polygon fill="white" stroke="#666666" points="2509.17,-222.5 2377.17,-222.5 2377.17,-203.5 2509.17,-203.5 2509.17,-222.5"/>
<text text-anchor="middle" x="2443.17" y="-210.5" font-family="Helvetica,sans-Serif" font-size="10.00">src/m_Do/m_Do_printf.cpp</text>
</a>
</g>
</g>
<!-- Node4&#45;&gt;Node488 -->
<g id="edge53" class="edge">
<title>Node4&#45;&gt;Node488</title>
<path fill="none" stroke="#63b8ff" d="M1660.93,-271.39C1801.64,-268.65 2110.15,-259.27 2368.17,-228 2378.69,-226.72 2389.96,-224.88 2400.48,-222.94"/>
<polygon fill="#63b8ff" stroke="#63b8ff" points="1660.91,-267.89 1650.98,-271.58 1661.04,-274.89 1660.91,-267.89"/>
</g>
<!-- Node6 -->
<g id="node6" class="node">
<title>Node6</title>
<g id="a_node6"><a xlink:href="d__a__alink_8h.html" target="_top" xlink:title=" ">
<polygon fill="#fff0f0" stroke="red" points="1394.17,-90.5 1278.17,-90.5 1278.17,-71.5 1394.17,-71.5 1394.17,-90.5"/>
<text text-anchor="middle" x="1336.17" y="-78.5" font-family="Helvetica,sans-Serif" font-size="10.00">include/d/a/d_a_alink.h</text>
</a>
</g>
</g>
<!-- Node5&#45;&gt;Node6 -->
<g id="edge5" class="edge">
<title>Node5&#45;&gt;Node6</title>
<path fill="none" stroke="#63b8ff" d="M713.82,-191.79C713.8,-173.22 717.08,-146.46 734.17,-132 779.64,-93.51 1210.14,-104.11 1269.17,-96 1278.47,-94.72 1288.41,-92.9 1297.71,-90.99"/>
<polygon fill="#63b8ff" stroke="#63b8ff" points="710.31,-191.71 714.18,-201.57 717.31,-191.45 710.31,-191.71"/>
</g>
<!-- Node19 -->
<g id="node9" class="node">
<title>Node19</title>
<g id="a_node9"><a xlink:href="d__com__inf__game_8h.html" target="_top" xlink:title=" ">
<polygon fill="#fff0f0" stroke="red" points="625.17,-162 515.17,-162 515.17,-132 625.17,-132 625.17,-162"/>
<text text-anchor="start" x="523.17" y="-150" font-family="Helvetica,sans-Serif" font-size="10.00">include/d/com/d_com</text>
<text text-anchor="middle" x="570.17" y="-139" font-family="Helvetica,sans-Serif" font-size="10.00">_inf_game.h</text>
</a>
</g>
</g>
<!-- Node5&#45;&gt;Node19 -->
<g id="edge8" class="edge">
<title>Node5&#45;&gt;Node19</title>
<path fill="none" stroke="#63b8ff" d="M684.73,-198.57C660.79,-188 627.5,-173.3 602.97,-162.48"/>
<polygon fill="#63b8ff" stroke="#63b8ff" points="683.06,-201.65 693.62,-202.49 685.89,-195.25 683.06,-201.65"/>
</g>
<!-- Node192 -->
<g id="node11" class="node">
<title>Node192</title>
<g id="a_node11"><a xlink:href="d__attention_8cpp.html" target="_top" xlink:title=" ">
<polygon fill="white" stroke="#666666" points="1259.67,-90.5 1152.67,-90.5 1152.67,-71.5 1259.67,-71.5 1259.67,-90.5"/>
<text text-anchor="middle" x="1206.17" y="-78.5" font-family="Helvetica,sans-Serif" font-size="10.00">src/d/d_attention.cpp</text>
</a>
</g>
</g>
<!-- Node5&#45;&gt;Node192 -->
<g id="edge21" class="edge">
<title>Node5&#45;&gt;Node192</title>
<path fill="none" stroke="#63b8ff" d="M759.82,-200.18C856.95,-174.46 1085.64,-113.91 1172.18,-91"/>
<polygon fill="#63b8ff" stroke="#63b8ff" points="759.15,-196.73 750.38,-202.68 760.94,-203.5 759.15,-196.73"/>
</g>
<!-- Node255 -->
<g id="node20" class="node">
<title>Node255</title>
<g id="a_node20"><a xlink:href="d__att__dist_8cpp.html" target="_top" xlink:title=" ">
<polygon fill="white" stroke="#666666" points="845.17,-156.5 743.17,-156.5 743.17,-137.5 845.17,-137.5 845.17,-156.5"/>
<text text-anchor="middle" x="794.17" y="-144.5" font-family="Helvetica,sans-Serif" font-size="10.00">src/d/d_att_dist.cpp</text>
</a>
</g>
</g>
<!-- Node5&#45;&gt;Node255 -->
<g id="edge20" class="edge">
<title>Node5&#45;&gt;Node255</title>
<path fill="none" stroke="#63b8ff" d="M734.87,-196.04C750.17,-183.64 770.82,-166.92 783.28,-156.82"/>
<polygon fill="#63b8ff" stroke="#63b8ff" points="732.89,-193.13 727.33,-202.15 737.3,-198.57 732.89,-193.13"/>
</g>
<!-- Node6&#45;&gt;Node9 -->
<g id="edge6" class="edge">
<title>Node6&#45;&gt;Node9</title>
<path fill="none" stroke="#63b8ff" d="M1336.17,-59.78C1336.17,-50.17 1336.17,-38.92 1336.17,-30.23"/>
<polygon fill="#63b8ff" stroke="#63b8ff" points="1332.67,-59.59 1336.17,-69.59 1339.67,-59.59 1332.67,-59.59"/>
</g>
<!-- Node6&#45;&gt;Node16 -->
<g id="edge7" class="edge">
<title>Node6&#45;&gt;Node16</title>
<path fill="none" stroke="#63b8ff" d="M1286.59,-68.88C1280.74,-67.79 1274.83,-66.8 1269.17,-66 1050.05,-35.06 787.67,-22.5 666.95,-18.09"/>
<polygon fill="#63b8ff" stroke="#63b8ff" points="1285.73,-72.28 1296.22,-70.77 1287.08,-65.41 1285.73,-72.28"/>
</g>
<!-- Node19&#45;&gt;Node9 -->
<g id="edge10" class="edge">
<title>Node19&#45;&gt;Node9</title>
<path fill="none" stroke="#63b8ff" d="M636.66,-132.49C637.5,-132.33 638.34,-132.16 639.17,-132 723.51,-115.45 750.74,-131.16 829.17,-96 849.12,-87.05 847.87,-74.13 868.17,-66 942.12,-36.37 1174.95,-22.87 1281.71,-18.12"/>
<polygon fill="#63b8ff" stroke="#63b8ff" points="636.13,-129.03 627,-134.41 637.49,-135.9 636.13,-129.03"/>
</g>
<!-- Node19&#45;&gt;Node182 -->
<g id="edge9" class="edge">
<title>Node19&#45;&gt;Node182</title>
<path fill="none" stroke="#63b8ff" d="M626.72,-128.08C664.89,-115.99 713.64,-100.54 743.88,-90.96"/>
<polygon fill="#63b8ff" stroke="#63b8ff" points="625.67,-124.74 617.19,-131.1 627.78,-131.42 625.67,-124.74"/>
</g>
<!-- Node19&#45;&gt;Node192 -->
<g id="edge11" class="edge">
<title>Node19&#45;&gt;Node192</title>
<path fill="none" stroke="#63b8ff" d="M636.8,-138.55C657.42,-136.33 680.22,-133.97 701.17,-132 897.39,-113.53 948.28,-125.45 1143.17,-96 1151.81,-94.69 1161.03,-92.88 1169.68,-91"/>
<polygon fill="#63b8ff" stroke="#63b8ff" points="636.66,-135.05 627.1,-139.6 637.41,-142 636.66,-135.05"/>
</g>
<!-- Node19&#45;&gt;Node205 -->
<g id="edge12" class="edge">
<title>Node19&#45;&gt;Node205</title>
<path fill="none" stroke="#63b8ff" d="M503.56,-141.11C417.53,-134.17 263.37,-119.62 133.17,-96 125.57,-94.62 117.48,-92.81 109.88,-90.94"/>
<polygon fill="#63b8ff" stroke="#63b8ff" points="503.23,-144.6 513.47,-141.9 503.78,-137.62 503.23,-144.6"/>
</g>
<!-- Node19&#45;&gt;Node215 -->
<g id="edge13" class="edge">
<title>Node19&#45;&gt;Node215</title>
<path fill="none" stroke="#63b8ff" d="M636.64,-139.33C666.43,-136.59 702.03,-133.68 734.17,-132 1144.79,-110.5 2176.06,-146.26 2584.17,-96 2587.19,-95.63 2590.28,-95.17 2593.38,-94.65"/>
<polygon fill="#63b8ff" stroke="#63b8ff" points="636.66,-135.81 627.03,-140.22 637.31,-142.78 636.66,-135.81"/>
</g>
<!-- Node19&#45;&gt;Node220 -->
<g id="edge14" class="edge">
<title>Node19&#45;&gt;Node220</title>
<path fill="none" stroke="#63b8ff" d="M636.83,-138.75C750.57,-126.33 973.34,-101.77 1009.17,-96 1011.98,-95.55 1014.86,-95.05 1017.76,-94.54"/>
<polygon fill="#63b8ff" stroke="#63b8ff" points="636.58,-135.26 627.02,-139.82 637.34,-142.22 636.58,-135.26"/>
</g>
<!-- Node19&#45;&gt;Node238 -->
<g id="edge15" class="edge">
<title>Node19&#45;&gt;Node238</title>
<path fill="none" stroke="#63b8ff" d="M503.56,-134.58C445.58,-124.58 359.27,-109.57 284.17,-96 275.3,-94.4 265.86,-92.66 256.76,-90.97"/>
<polygon fill="#63b8ff" stroke="#63b8ff" points="502.83,-138 513.28,-136.25 504.02,-131.11 502.83,-138"/>
</g>
<!-- Node19&#45;&gt;Node241 -->
<g id="edge16" class="edge">
<title>Node19&#45;&gt;Node241</title>
<path fill="none" stroke="#63b8ff" d="M509.65,-128.39C467.92,-116.26 414.2,-100.63 380.98,-90.96"/>
<polygon fill="#63b8ff" stroke="#63b8ff" points="508.49,-131.7 519.07,-131.13 510.44,-124.98 508.49,-131.7"/>
</g>
<!-- Node19&#45;&gt;Node249 -->
<g id="edge17" class="edge">
<title>Node19&#45;&gt;Node249</title>
<path fill="none" stroke="#63b8ff" d="M544.09,-124.6C530.06,-113.1 513.52,-99.52 502.95,-90.84"/>
<polygon fill="#63b8ff" stroke="#63b8ff" points="541.74,-127.2 551.69,-130.84 546.18,-121.79 541.74,-127.2"/>
</g>
<!-- Node19&#45;&gt;Node250 -->
<g id="edge18" class="edge">
<title>Node19&#45;&gt;Node250</title>
<path fill="none" stroke="#63b8ff" d="M636.65,-132.46C637.49,-132.31 638.33,-132.15 639.17,-132 737.94,-114.01 763.24,-113.09 862.17,-96 871.29,-94.42 881.02,-92.68 890.36,-90.97"/>
<polygon fill="#63b8ff" stroke="#63b8ff" points="636.15,-128.99 626.98,-134.29 637.45,-135.87 636.15,-128.99"/>
</g>
<!-- Node19&#45;&gt;Node253 -->
<g id="edge19" class="edge">
<title>Node19&#45;&gt;Node253</title>
<path fill="none" stroke="#63b8ff" d="M594.44,-124.42C604.83,-115.18 616.69,-104.65 625.98,-96.39"/>
<polygon fill="#63b8ff" stroke="#63b8ff" points="592.43,-121.53 587.28,-130.79 597.08,-126.76 592.43,-121.53"/>
</g>
<!-- Node257 -->
<g id="node22" class="node">
<title>Node257</title>
<g id="a_node22"><a xlink:href="d__a__player_8h.html" target="_top" xlink:title=" ">
<polygon fill="#fff0f0" stroke="red" points="2854.67,-156.5 2733.67,-156.5 2733.67,-137.5 2854.67,-137.5 2854.67,-156.5"/>
<text text-anchor="middle" x="2794.17" y="-144.5" font-family="Helvetica,sans-Serif" font-size="10.00">include/d/a/d_a_player.h</text>
</a>
</g>
</g>
<!-- Node256&#45;&gt;Node257 -->
<g id="edge23" class="edge">
<title>Node256&#45;&gt;Node257</title>
<path fill="none" stroke="#63b8ff" d="M2798.26,-191.68C2797.16,-179.94 2795.83,-165.77 2794.99,-156.82"/>
<polygon fill="#63b8ff" stroke="#63b8ff" points="2794.77,-191.96 2799.19,-201.59 2801.74,-191.31 2794.77,-191.96"/>
</g>
<!-- Node263 -->
<g id="node27" class="node">
<title>Node263</title>
<g id="a_node27"><a xlink:href="d__camera_8h.html" target="_top" xlink:title=" ">
<polygon fill="#fff0f0" stroke="red" points="2715.67,-156.5 2606.67,-156.5 2606.67,-137.5 2715.67,-137.5 2715.67,-156.5"/>
<text text-anchor="middle" x="2661.17" y="-144.5" font-family="Helvetica,sans-Serif" font-size="10.00">include/d/d_camera.h</text>
</a>
</g>
</g>
<!-- Node256&#45;&gt;Node263 -->
<g id="edge31" class="edge">
<title>Node256&#45;&gt;Node263</title>
<path fill="none" stroke="#63b8ff" d="M2770.71,-198.44C2743.44,-185.88 2703.7,-167.58 2680.33,-156.82"/>
<polygon fill="#63b8ff" stroke="#63b8ff" points="2768.92,-201.46 2779.47,-202.47 2771.85,-195.11 2768.92,-201.46"/>
</g>
<!-- Node257&#45;&gt;Node6 -->
<g id="edge24" class="edge">
<title>Node257&#45;&gt;Node6</title>
<path fill="none" stroke="#63b8ff" d="M2744.77,-134.96C2738.21,-133.79 2731.54,-132.76 2725.17,-132 2591.88,-116.19 1641.02,-90.09 1394.45,-83.53"/>
<polygon fill="#63b8ff" stroke="#63b8ff" points="2743.7,-138.32 2754.18,-136.74 2745.01,-131.44 2743.7,-138.32"/>
</g>
<!-- Node257&#45;&gt;Node192 -->
<g id="edge26" class="edge">
<title>Node257&#45;&gt;Node192</title>
<path fill="none" stroke="#63b8ff" d="M2745.02,-134.93C2738.38,-133.76 2731.63,-132.73 2725.17,-132 2081.95,-59.36 1911.69,-174.58 1269.17,-96 1259.94,-94.87 1250.07,-93 1240.95,-90.99"/>
<polygon fill="#63b8ff" stroke="#63b8ff" points="2744.07,-138.32 2754.55,-136.74 2745.37,-131.44 2744.07,-138.32"/>
</g>
<!-- Node257&#45;&gt;Node215 -->
<g id="edge27" class="edge">
<title>Node257&#45;&gt;Node215</title>
<path fill="none" stroke="#63b8ff" d="M2762.89,-132.57C2738.29,-122 2704.08,-107.3 2678.87,-96.48"/>
<polygon fill="#63b8ff" stroke="#63b8ff" points="2761.49,-135.77 2772.06,-136.5 2764.25,-129.34 2761.49,-135.77"/>
</g>
<!-- Node257&#45;&gt;Node260 -->
<g id="edge25" class="edge">
<title>Node257&#45;&gt;Node260</title>
<path fill="none" stroke="#63b8ff" d="M2743.56,-134.96C2737.39,-133.84 2731.15,-132.82 2725.17,-132 2485.69,-99.17 2196.31,-87.06 2083.49,-83.38"/>
<polygon fill="#63b8ff" stroke="#63b8ff" points="2742.58,-138.34 2753.06,-136.77 2743.89,-131.46 2742.58,-138.34"/>
</g>
<!-- Node257&#45;&gt;Node55 -->
<g id="edge28" class="edge">
<title>Node257&#45;&gt;Node55</title>
<path fill="none" stroke="#63b8ff" d="M2790.43,-126.05C2788.21,-114.24 2785.52,-99.87 2783.82,-90.82"/>
<polygon fill="#63b8ff" stroke="#63b8ff" points="2786.94,-126.43 2792.22,-135.61 2793.82,-125.14 2786.94,-126.43"/>
</g>
<!-- Node257&#45;&gt;Node80 -->
<g id="edge29" class="edge">
<title>Node257&#45;&gt;Node80</title>
<path fill="none" stroke="#63b8ff" d="M2744.87,-134.4C2691.72,-121.89 2608.25,-102.25 2560.02,-90.91"/>
<polygon fill="#63b8ff" stroke="#63b8ff" points="2744.05,-137.8 2754.59,-136.69 2745.65,-130.99 2744.05,-137.8"/>
</g>
<!-- Node257&#45;&gt;Node174 -->
<g id="edge30" class="edge">
<title>Node257&#45;&gt;Node174</title>
<path fill="none" stroke="#63b8ff" d="M2821.59,-131.85C2841.95,-121.34 2869.61,-107.06 2890.12,-96.48"/>
<polygon fill="#63b8ff" stroke="#63b8ff" points="2820.03,-128.71 2812.75,-136.41 2823.25,-134.93 2820.03,-128.71"/>
</g>
<!-- Node306&#45;&gt;Node19 -->
<g id="edge34" class="edge">
<title>Node306&#45;&gt;Node19</title>
<path fill="none" stroke="#63b8ff" d="M554.2,-192.42C557.7,-182.68 561.86,-171.12 565.05,-162.23"/>
<polygon fill="#63b8ff" stroke="#63b8ff" points="550.97,-191.08 550.88,-201.68 557.55,-193.45 550.97,-191.08"/>
</g>
<!-- Node307&#45;&gt;Node220 -->
<g id="edge37" class="edge">
<title>Node307&#45;&gt;Node220</title>
<path fill="none" stroke="#63b8ff" d="M1529.43,-140.96C1443.38,-133.43 1281.19,-117.74 1144.17,-96 1140.95,-95.49 1137.66,-94.93 1134.34,-94.34"/>
<polygon fill="#63b8ff" stroke="#63b8ff" points="1529.03,-144.44 1539.29,-141.82 1529.63,-137.47 1529.03,-144.44"/>
</g>
<!-- Node307&#45;&gt;Node55 -->
<g id="edge36" class="edge">
<title>Node307&#45;&gt;Node55</title>
<path fill="none" stroke="#63b8ff" d="M1650.91,-146.2C1819.18,-146.14 2305.38,-141.67 2706.17,-96 2716.96,-94.77 2728.54,-92.92 2739.32,-90.96"/>
<polygon fill="#63b8ff" stroke="#63b8ff" points="1651.1,-142.7 1641.1,-146.2 1651.1,-149.7 1651.1,-142.7"/>
</g>
</g>
</svg>
