<?xml version="1.0" encoding="UTF-8" standalone="no"?>
<!DOCTYPE svg PUBLIC "-//W3C//DTD SVG 1.1//EN"
 "http://www.w3.org/Graphics/SVG/1.1/DTD/svg11.dtd">
<!-- Generated by graphviz version 7.0.5 (20221223.1930)
 -->
<!-- Title: include/JSystem/JAudio2/JASAramStream.h Pages: 1 -->
<!--zoomable 566 -->
<svg id="main" version="1.1" xmlns="http://www.w3.org/2000/svg" xmlns:xlink="http://www.w3.org/1999/xlink" xml:space="preserve" onload="init(evt)">
<style type="text/css"><![CDATA[
.edge:hover path { stroke: red; }
.edge:hover polygon { stroke: red; fill: red; }
]]></style>
<script type="text/javascript"><![CDATA[
var edges = document.getElementsByTagName('g');
if (edges && edges.length) {
  for (var i=0;i<edges.length;i++) {
    if (edges[i].id.substr(0,4)=='edge') {
      edges[i].setAttribute('class','edge');
    }
  }
}
]]></script>
        <defs>
                <circle id="rim" cx="0" cy="0" r="7"/>
                <circle id="rim2" cx="0" cy="0" r="3.5"/>
                <g id="zoomPlus">
                        <use xlink:href="#rim" fill="#404040">
                                <set attributeName="fill" to="#808080" begin="zoomplus.mouseover" end="zoomplus.mouseout"/>
                        </use>
                        <path d="M-4,0h8M0,-4v8" fill="none" stroke="white" stroke-width="1.5" pointer-events="none"/>
                </g>
                <g id="zoomMin">
                        <use xlink:href="#rim" fill="#404040">
                                <set attributeName="fill" to="#808080" begin="zoomminus.mouseover" end="zoomminus.mouseout"/>
                        </use>
                        <path d="M-4,0h8" fill="none" stroke="white" stroke-width="1.5" pointer-events="none"/>
                </g>
                <g id="dirArrow">
                        <path fill="none" stroke="white" stroke-width="1.5" d="M0,-3.0v7 M-2.5,-0.5L0,-3.0L2.5,-0.5"/>
                </g>
               <g id="resetDef">
                       <use xlink:href="#rim2" fill="#404040">
                               <set attributeName="fill" to="#808080" begin="reset.mouseover" end="reset.mouseout"/>
                       </use>
               </g>
        </defs>

<script type="text/javascript">
var viewWidth = 3309;
var viewHeight = 566;
var sectionId = 'dynsection-1';
</script>
<script xlink:href="svgpan.js"/>
<svg id="graph" class="graph">
<g id="viewport">
<title>include/JSystem/JAudio2/JASAramStream.h</title>
<!-- Node1 -->
<g id="node1" class="node">
<title>Node1</title>
<g id="a_node1"><a xlink:title=" ">
<polygon fill="#999999" stroke="#666666" points="2007.29,-558 1880.29,-558 1880.29,-528 2007.29,-528 2007.29,-558"/>
<text text-anchor="start" x="1888.29" y="-546" font-family="Helvetica,sans-Serif" font-size="10.00">include/JSystem/JAudio2</text>
<text text-anchor="middle" x="1943.79" y="-535" font-family="Helvetica,sans-Serif" font-size="10.00">/JASAramStream.h</text>
</a>
</g>
</g>
<!-- Node2 -->
<g id="node2" class="node">
<title>Node2</title>
<g id="a_node2"><a xlink:href="JAIStream_8h.html" target="_top" xlink:title=" ">
<polygon fill="white" stroke="#666666" points="1815.29,-492 1688.29,-492 1688.29,-462 1815.29,-462 1815.29,-492"/>
<text text-anchor="start" x="1696.29" y="-480" font-family="Helvetica,sans-Serif" font-size="10.00">include/JSystem/JAudio2</text>
<text text-anchor="middle" x="1751.79" y="-469" font-family="Helvetica,sans-Serif" font-size="10.00">/JAIStream.h</text>
</a>
</g>
</g>
<!-- Node1&#45;&gt;Node2 -->
<g id="edge1" class="edge">
<title>Node1&#45;&gt;Node2</title>
<path fill="none" stroke="#63b8ff" d="M1890,-524.07C1860.01,-514.07 1823.17,-501.79 1795.07,-492.43"/>
<polygon fill="#63b8ff" stroke="#63b8ff" points="1888.68,-527.32 1899.27,-527.16 1890.89,-520.68 1888.68,-527.32"/>
</g>
<!-- Node508 -->
<g id="node47" class="node">
<title>Node508</title>
<g id="a_node47"><a xlink:href="JAUInitializer_8cpp.html" target="_top" xlink:title=" ">
<polygon fill="white" stroke="#666666" points="1936.29,-426 1825.29,-426 1825.29,-396 1936.29,-396 1936.29,-426"/>
<text text-anchor="start" x="1833.29" y="-414" font-family="Helvetica,sans-Serif" font-size="10.00">libs/JSystem/JAudio2</text>
<text text-anchor="middle" x="1880.79" y="-403" font-family="Helvetica,sans-Serif" font-size="10.00">/JAUInitializer.cpp</text>
</a>
</g>
</g>
<!-- Node1&#45;&gt;Node508 -->
<g id="edge53" class="edge">
<title>Node1&#45;&gt;Node508</title>
<path fill="none" stroke="#63b8ff" d="M1931.9,-517.46C1918.89,-490.61 1898.47,-448.48 1887.81,-426.47"/>
<polygon fill="#63b8ff" stroke="#63b8ff" points="1928.64,-518.76 1936.15,-526.23 1934.94,-515.7 1928.64,-518.76"/>
</g>
<!-- Node510 -->
<g id="node49" class="node">
<title>Node510</title>
<g id="a_node49"><a xlink:href="JAUStreamAramMgr_8h.html" target="_top" xlink:title=" ">
<polygon fill="white" stroke="#666666" points="2185.29,-360 2058.29,-360 2058.29,-330 2185.29,-330 2185.29,-360"/>
<text text-anchor="start" x="2066.29" y="-348" font-family="Helvetica,sans-Serif" font-size="10.00">include/JSystem/JAudio2</text>
<text text-anchor="middle" x="2121.79" y="-337" font-family="Helvetica,sans-Serif" font-size="10.00">/JAUStreamAramMgr.h</text>
</a>
</g>
</g>
<!-- Node1&#45;&gt;Node510 -->
<g id="edge50" class="edge">
<title>Node1&#45;&gt;Node510</title>
<path fill="none" stroke="#63b8ff" d="M1953.47,-517.18C1960.64,-500.58 1971.47,-478.79 1984.79,-462 2018.8,-419.16 2070.57,-380.54 2099.76,-360.49"/>
<polygon fill="#63b8ff" stroke="#63b8ff" points="1950.28,-515.74 1949.68,-526.32 1956.74,-518.42 1950.28,-515.74"/>
</g>
<!-- Node511 -->
<g id="node50" class="node">
<title>Node511</title>
<g id="a_node50"><a xlink:href="JASAramStream_8cpp.html" target="_top" xlink:title=" ">
<polygon fill="white" stroke="#666666" points="2104.29,-492 1993.29,-492 1993.29,-462 2104.29,-462 2104.29,-492"/>
<text text-anchor="start" x="2001.29" y="-480" font-family="Helvetica,sans-Serif" font-size="10.00">libs/JSystem/JAudio2</text>
<text text-anchor="middle" x="2048.79" y="-469" font-family="Helvetica,sans-Serif" font-size="10.00">/JASAramStream.cpp</text>
</a>
</g>
</g>
<!-- Node1&#45;&gt;Node511 -->
<g id="edge52" class="edge">
<title>Node1&#45;&gt;Node511</title>
<path fill="none" stroke="#63b8ff" d="M1976.75,-521.91C1992.51,-512.31 2011,-501.03 2025.31,-492.31"/>
<polygon fill="#63b8ff" stroke="#63b8ff" points="1975.37,-518.66 1968.65,-526.85 1979.01,-524.63 1975.37,-518.66"/>
</g>
<!-- Node3 -->
<g id="node3" class="node">
<title>Node3</title>
<g id="a_node3"><a xlink:href="JAIStreamMgr_8h.html" target="_top" xlink:title=" ">
<polygon fill="white" stroke="#666666" points="1678.29,-426 1551.29,-426 1551.29,-396 1678.29,-396 1678.29,-426"/>
<text text-anchor="start" x="1559.29" y="-414" font-family="Helvetica,sans-Serif" font-size="10.00">include/JSystem/JAudio2</text>
<text text-anchor="middle" x="1614.79" y="-403" font-family="Helvetica,sans-Serif" font-size="10.00">/JAIStreamMgr.h</text>
</a>
</g>
</g>
<!-- Node2&#45;&gt;Node3 -->
<g id="edge2" class="edge">
<title>Node2&#45;&gt;Node3</title>
<path fill="none" stroke="#63b8ff" d="M1710.82,-456.86C1689.83,-447.05 1664.72,-435.32 1645.44,-426.31"/>
<polygon fill="#63b8ff" stroke="#63b8ff" points="1709.14,-459.94 1719.68,-461 1712.1,-453.59 1709.14,-459.94"/>
</g>
<!-- Node507 -->
<g id="node46" class="node">
<title>Node507</title>
<g id="a_node46"><a xlink:href="JAIStream_8cpp.html" target="_top" xlink:title=" ">
<polygon fill="white" stroke="#666666" points="1807.29,-426 1696.29,-426 1696.29,-396 1807.29,-396 1807.29,-426"/>
<text text-anchor="start" x="1704.29" y="-414" font-family="Helvetica,sans-Serif" font-size="10.00">libs/JSystem/JAudio2</text>
<text text-anchor="middle" x="1751.79" y="-403" font-family="Helvetica,sans-Serif" font-size="10.00">/JAIStream.cpp</text>
</a>
</g>
</g>
<!-- Node2&#45;&gt;Node507 -->
<g id="edge47" class="edge">
<title>Node2&#45;&gt;Node507</title>
<path fill="none" stroke="#63b8ff" d="M1751.79,-450.39C1751.79,-442.13 1751.79,-433.28 1751.79,-426.16"/>
<polygon fill="#63b8ff" stroke="#63b8ff" points="1748.29,-450.28 1751.79,-460.28 1755.29,-450.28 1748.29,-450.28"/>
</g>
<!-- Node2&#45;&gt;Node508 -->
<g id="edge48" class="edge">
<title>Node2&#45;&gt;Node508</title>
<path fill="none" stroke="#63b8ff" d="M1790.92,-456.59C1810.57,-446.84 1833.95,-435.24 1851.94,-426.31"/>
<polygon fill="#63b8ff" stroke="#63b8ff" points="1789.5,-453.38 1782.1,-460.96 1792.61,-459.66 1789.5,-453.38"/>
</g>
<!-- Node509 -->
<g id="node48" class="node">
<title>Node509</title>
<g id="a_node48"><a xlink:href="Z2SoundInfo_8cpp.html" target="_top" xlink:title=" ">
<polygon fill="white" stroke="#666666" points="1533.29,-420.5 1372.29,-420.5 1372.29,-401.5 1533.29,-401.5 1533.29,-420.5"/>
<text text-anchor="middle" x="1452.79" y="-408.5" font-family="Helvetica,sans-Serif" font-size="10.00">libs/Z2AudioLib/Z2SoundInfo.cpp</text>
</a>
</g>
</g>
<!-- Node2&#45;&gt;Node509 -->
<g id="edge49" class="edge">
<title>Node2&#45;&gt;Node509</title>
<path fill="none" stroke="#63b8ff" d="M1677.12,-460.02C1619.38,-447.66 1541.57,-431 1494.41,-420.91"/>
<polygon fill="#63b8ff" stroke="#63b8ff" points="1676.03,-463.36 1686.54,-462.03 1677.49,-456.52 1676.03,-463.36"/>
</g>
<!-- Node4 -->
<g id="node4" class="node">
<title>Node4</title>
<g id="a_node4"><a xlink:href="Z2SoundMgr_8h.html" target="_top" xlink:title=" ">
<polygon fill="white" stroke="#666666" points="1664.79,-360 1564.79,-360 1564.79,-330 1664.79,-330 1664.79,-360"/>
<text text-anchor="start" x="1572.79" y="-348" font-family="Helvetica,sans-Serif" font-size="10.00">include/Z2AudioLib</text>
<text text-anchor="middle" x="1614.79" y="-337" font-family="Helvetica,sans-Serif" font-size="10.00">/Z2SoundMgr.h</text>
</a>
</g>
</g>
<!-- Node3&#45;&gt;Node4 -->
<g id="edge3" class="edge">
<title>Node3&#45;&gt;Node4</title>
<path fill="none" stroke="#63b8ff" d="M1614.79,-384.39C1614.79,-376.13 1614.79,-367.28 1614.79,-360.16"/>
<polygon fill="#63b8ff" stroke="#63b8ff" points="1611.29,-384.28 1614.79,-394.28 1618.29,-384.28 1611.29,-384.28"/>
</g>
<!-- Node506 -->
<g id="node45" class="node">
<title>Node506</title>
<g id="a_node45"><a xlink:href="JAIStreamMgr_8cpp.html" target="_top" xlink:title=" ">
<polygon fill="white" stroke="#666666" points="1546.29,-360 1435.29,-360 1435.29,-330 1546.29,-330 1546.29,-360"/>
<text text-anchor="start" x="1443.29" y="-348" font-family="Helvetica,sans-Serif" font-size="10.00">libs/JSystem/JAudio2</text>
<text text-anchor="middle" x="1490.79" y="-337" font-family="Helvetica,sans-Serif" font-size="10.00">/JAIStreamMgr.cpp</text>
</a>
</g>
</g>
<!-- Node3&#45;&gt;Node506 -->
<g id="edge46" class="edge">
<title>Node3&#45;&gt;Node506</title>
<path fill="none" stroke="#63b8ff" d="M1576.92,-390.45C1558.09,-380.73 1535.74,-369.2 1518.53,-360.31"/>
<polygon fill="#63b8ff" stroke="#63b8ff" points="1575.13,-393.47 1585.62,-394.94 1578.34,-387.25 1575.13,-393.47"/>
</g>
<!-- Node5 -->
<g id="node5" class="node">
<title>Node5</title>
<g id="a_node5"><a xlink:href="Z2AudioMgr_8h.html" target="_top" xlink:title=" ">
<polygon fill="white" stroke="#666666" points="2162.79,-294 2062.79,-294 2062.79,-264 2162.79,-264 2162.79,-294"/>
<text text-anchor="start" x="2070.79" y="-282" font-family="Helvetica,sans-Serif" font-size="10.00">include/Z2AudioLib</text>
<text text-anchor="middle" x="2112.79" y="-271" font-family="Helvetica,sans-Serif" font-size="10.00">/Z2AudioMgr.h</text>
</a>
</g>
</g>
<!-- Node4&#45;&gt;Node5 -->
<g id="edge4" class="edge">
<title>Node4&#45;&gt;Node5</title>
<path fill="none" stroke="#63b8ff" d="M1676.39,-339.32C1761.62,-332.32 1920.15,-317.38 2053.79,-294 2056.59,-293.51 2059.46,-292.97 2062.35,-292.39"/>
<polygon fill="#63b8ff" stroke="#63b8ff" points="1676.3,-335.82 1666.62,-340.12 1676.87,-342.8 1676.3,-335.82"/>
</g>
<!-- Node182 -->
<g id="node38" class="node">
<title>Node182</title>
<g id="a_node38"><a xlink:href="Z2EnvSeMgr_8cpp.html" target="_top" xlink:title=" ">
<polygon fill="white" stroke="#666666" points="1005.29,-288.5 844.29,-288.5 844.29,-269.5 1005.29,-269.5 1005.29,-288.5"/>
<text text-anchor="middle" x="924.79" y="-276.5" font-family="Helvetica,sans-Serif" font-size="10.00">libs/Z2AudioLib/Z2EnvSeMgr.cpp</text>
</a>
</g>
</g>
<!-- Node4&#45;&gt;Node182 -->
<g id="edge39" class="edge">
<title>Node4&#45;&gt;Node182</title>
<path fill="none" stroke="#63b8ff" d="M1553.36,-329.99C1314.49,-295.29 1249.66,-320.34 1013.79,-294 1001.67,-292.65 988.67,-290.82 976.46,-288.93"/>
<polygon fill="#63b8ff" stroke="#63b8ff" points="1552.59,-333.42 1563,-331.42 1553.61,-326.49 1552.59,-333.42"/>
</g>
<!-- Node500 -->
<g id="node39" class="node">
<title>Node500</title>
<g id="a_node39"><a xlink:href="Z2SceneMgr_8cpp.html" target="_top" xlink:title=" ">
<polygon fill="white" stroke="#666666" points="1184.29,-288.5 1023.29,-288.5 1023.29,-269.5 1184.29,-269.5 1184.29,-288.5"/>
<text text-anchor="middle" x="1103.79" y="-276.5" font-family="Helvetica,sans-Serif" font-size="10.00">libs/Z2AudioLib/Z2SceneMgr.cpp</text>
</a>
</g>
</g>
<!-- Node4&#45;&gt;Node500 -->
<g id="edge40" class="edge">
<title>Node4&#45;&gt;Node500</title>
<path fill="none" stroke="#63b8ff" d="M1553.26,-329.92C1393.33,-304.05 1349.56,-314.11 1192.79,-294 1181.31,-292.53 1169.03,-290.74 1157.38,-288.93"/>
<polygon fill="#63b8ff" stroke="#63b8ff" points="1552.55,-333.35 1562.98,-331.51 1553.68,-326.44 1552.55,-333.35"/>
</g>
<!-- Node501 -->
<g id="node40" class="node">
<title>Node501</title>
<g id="a_node40"><a xlink:href="Z2SeMgr_8cpp.html" target="_top" xlink:title=" ">
<polygon fill="white" stroke="#666666" points="1347.29,-288.5 1202.29,-288.5 1202.29,-269.5 1347.29,-269.5 1347.29,-288.5"/>
<text text-anchor="middle" x="1274.79" y="-276.5" font-family="Helvetica,sans-Serif" font-size="10.00">libs/Z2AudioLib/Z2SeMgr.cpp</text>
</a>
</g>
</g>
<!-- Node4&#45;&gt;Node501 -->
<g id="edge41" class="edge">
<title>Node4&#45;&gt;Node501</title>
<path fill="none" stroke="#63b8ff" d="M1553.19,-329.77C1496.89,-318.56 1390.97,-300.05 1326.97,-288.98"/>
<polygon fill="#63b8ff" stroke="#63b8ff" points="1552.44,-333.19 1562.94,-331.74 1553.83,-326.33 1552.44,-333.19"/>
</g>
<!-- Node502 -->
<g id="node41" class="node">
<title>Node502</title>
<g id="a_node41"><a xlink:href="Z2SeqMgr_8cpp.html" target="_top" xlink:title=" ">
<polygon fill="white" stroke="#666666" points="1515.79,-288.5 1365.79,-288.5 1365.79,-269.5 1515.79,-269.5 1515.79,-288.5"/>
<text text-anchor="middle" x="1440.79" y="-276.5" font-family="Helvetica,sans-Serif" font-size="10.00">libs/Z2AudioLib/Z2SeqMgr.cpp</text>
</a>
</g>
</g>
<!-- Node4&#45;&gt;Node502 -->
<g id="edge42" class="edge">
<title>Node4&#45;&gt;Node502</title>
<path fill="none" stroke="#63b8ff" d="M1565.03,-325.69C1532.33,-313.67 1491,-298.47 1465.22,-288.99"/>
<polygon fill="#63b8ff" stroke="#63b8ff" points="1563.73,-328.95 1574.32,-329.11 1566.15,-322.38 1563.73,-328.95"/>
</g>
<!-- Node503 -->
<g id="node42" class="node">
<title>Node503</title>
<g id="a_node42"><a xlink:href="Z2SoundMgr_8cpp.html" target="_top" xlink:title=" ">
<polygon fill="white" stroke="#666666" points="1695.29,-288.5 1534.29,-288.5 1534.29,-269.5 1695.29,-269.5 1695.29,-288.5"/>
<text text-anchor="middle" x="1614.79" y="-276.5" font-family="Helvetica,sans-Serif" font-size="10.00">libs/Z2AudioLib/Z2SoundMgr.cpp</text>
</a>
</g>
</g>
<!-- Node4&#45;&gt;Node503 -->
<g id="edge43" class="edge">
<title>Node4&#45;&gt;Node503</title>
<path fill="none" stroke="#63b8ff" d="M1614.79,-318.59C1614.79,-308.06 1614.79,-296.53 1614.79,-288.84"/>
<polygon fill="#63b8ff" stroke="#63b8ff" points="1611.29,-318.28 1614.79,-328.28 1618.29,-318.28 1611.29,-318.28"/>
</g>
<!-- Node504 -->
<g id="node43" class="node">
<title>Node504</title>
<g id="a_node43"><a xlink:href="Z2SoundObject_8cpp.html" target="_top" xlink:title=" ">
<polygon fill="white" stroke="#666666" points="1886.29,-288.5 1713.29,-288.5 1713.29,-269.5 1886.29,-269.5 1886.29,-288.5"/>
<text text-anchor="middle" x="1799.79" y="-276.5" font-family="Helvetica,sans-Serif" font-size="10.00">libs/Z2AudioLib/Z2SoundObject.cpp</text>
</a>
</g>
</g>
<!-- Node4&#45;&gt;Node504 -->
<g id="edge44" class="edge">
<title>Node4&#45;&gt;Node504</title>
<path fill="none" stroke="#63b8ff" d="M1666.8,-326.01C1701.7,-313.93 1746.18,-298.55 1773.82,-288.99"/>
<polygon fill="#63b8ff" stroke="#63b8ff" points="1666.05,-322.57 1657.74,-329.14 1668.34,-329.18 1666.05,-322.57"/>
</g>
<!-- Node505 -->
<g id="node44" class="node">
<title>Node505</title>
<g id="a_node44"><a xlink:href="Z2WolfHowlMgr_8cpp.html" target="_top" xlink:title=" ">
<polygon fill="white" stroke="#666666" points="2044.79,-294 1904.79,-294 1904.79,-264 2044.79,-264 2044.79,-294"/>
<text text-anchor="start" x="1912.79" y="-282" font-family="Helvetica,sans-Serif" font-size="10.00">libs/Z2AudioLib/Z2WolfHowl</text>
<text text-anchor="middle" x="1974.79" y="-271" font-family="Helvetica,sans-Serif" font-size="10.00">Mgr.cpp</text>
</a>
</g>
</g>
<!-- Node4&#45;&gt;Node505 -->
<g id="edge45" class="edge">
<title>Node4&#45;&gt;Node505</title>
<path fill="none" stroke="#63b8ff" d="M1676.24,-333.08C1739.6,-321.81 1838.23,-304.28 1904.61,-292.48"/>
<polygon fill="#63b8ff" stroke="#63b8ff" points="1675.95,-329.57 1666.72,-334.77 1677.18,-336.46 1675.95,-329.57"/>
</g>
<!-- Node6 -->
<g id="node6" class="node">
<title>Node6</title>
<g id="a_node6"><a xlink:href="m__Do__audio_8h.html" target="_top" xlink:title=" ">
<polygon fill="white" stroke="#666666" points="2259.79,-222.5 2119.79,-222.5 2119.79,-203.5 2259.79,-203.5 2259.79,-222.5"/>
<text text-anchor="middle" x="2189.79" y="-210.5" font-family="Helvetica,sans-Serif" font-size="10.00">include/m_Do/m_Do_audio.h</text>
</a>
</g>
</g>
<!-- Node5&#45;&gt;Node6 -->
<g id="edge5" class="edge">
<title>Node5&#45;&gt;Node6</title>
<path fill="none" stroke="#63b8ff" d="M2138.54,-256.6C2152.38,-245.1 2168.71,-231.52 2179.15,-222.84"/>
<polygon fill="#63b8ff" stroke="#63b8ff" points="2136.5,-253.75 2131.05,-262.83 2140.97,-259.13 2136.5,-253.75"/>
</g>
<!-- Node496 -->
<g id="node34" class="node">
<title>Node496</title>
<g id="a_node34"><a xlink:href="Z2AudioMgr_8cpp.html" target="_top" xlink:title=" ">
<polygon fill="white" stroke="#666666" points="2435.79,-222.5 2277.79,-222.5 2277.79,-203.5 2435.79,-203.5 2435.79,-222.5"/>
<text text-anchor="middle" x="2356.79" y="-210.5" font-family="Helvetica,sans-Serif" font-size="10.00">libs/Z2AudioLib/Z2AudioMgr.cpp</text>
</a>
</g>
</g>
<!-- Node5&#45;&gt;Node496 -->
<g id="edge35" class="edge">
<title>Node5&#45;&gt;Node496</title>
<path fill="none" stroke="#63b8ff" d="M2174.03,-261.94C2221.06,-249.6 2284.26,-233.02 2322.68,-222.95"/>
<polygon fill="#63b8ff" stroke="#63b8ff" points="2173.3,-258.51 2164.52,-264.43 2175.08,-265.28 2173.3,-258.51"/>
</g>
<!-- Node497 -->
<g id="node35" class="node">
<title>Node497</title>
<g id="a_node35"><a xlink:href="Z2Creature_8cpp.html" target="_top" xlink:title=" ">
<polygon fill="white" stroke="#666666" points="1761.29,-222.5 1608.29,-222.5 1608.29,-203.5 1761.29,-203.5 1761.29,-222.5"/>
<text text-anchor="middle" x="1684.79" y="-210.5" font-family="Helvetica,sans-Serif" font-size="10.00">libs/Z2AudioLib/Z2Creature.cpp</text>
</a>
</g>
</g>
<!-- Node5&#45;&gt;Node497 -->
<g id="edge36" class="edge">
<title>Node5&#45;&gt;Node497</title>
<path fill="none" stroke="#63b8ff" d="M2051.21,-263.65C1926.67,-241.55 1892.13,-245.82 1769.79,-228 1759.29,-226.47 1748.07,-224.71 1737.34,-222.97"/>
<polygon fill="#63b8ff" stroke="#63b8ff" points="2050.39,-267.06 2060.85,-265.38 2051.63,-260.17 2050.39,-267.06"/>
</g>
<!-- Node498 -->
<g id="node36" class="node">
<title>Node498</title>
<g id="a_node36"><a xlink:href="Z2SoundStarter_8cpp.html" target="_top" xlink:title=" ">
<polygon fill="white" stroke="#666666" points="1952.29,-222.5 1779.29,-222.5 1779.29,-203.5 1952.29,-203.5 1952.29,-222.5"/>
<text text-anchor="middle" x="1865.79" y="-210.5" font-family="Helvetica,sans-Serif" font-size="10.00">libs/Z2AudioLib/Z2SoundStarter.cpp</text>
</a>
</g>
</g>
<!-- Node5&#45;&gt;Node498 -->
<g id="edge37" class="edge">
<title>Node5&#45;&gt;Node498</title>
<path fill="none" stroke="#63b8ff" d="M2051.41,-262.09C2003.81,-249.76 1939.57,-233.12 1900.5,-222.99"/>
<polygon fill="#63b8ff" stroke="#63b8ff" points="2050.49,-265.47 2061.05,-264.59 2052.24,-258.7 2050.49,-265.47"/>
</g>
<!-- Node499 -->
<g id="node37" class="node">
<title>Node499</title>
<g id="a_node37"><a xlink:href="Z2SpeechMgr2_8cpp.html" target="_top" xlink:title=" ">
<polygon fill="white" stroke="#666666" points="2101.29,-228 1970.29,-228 1970.29,-198 2101.29,-198 2101.29,-228"/>
<text text-anchor="start" x="1978.29" y="-216" font-family="Helvetica,sans-Serif" font-size="10.00">libs/Z2AudioLib/Z2Speech</text>
<text text-anchor="middle" x="2035.79" y="-205" font-family="Helvetica,sans-Serif" font-size="10.00">Mgr2.cpp</text>
</a>
</g>
</g>
<!-- Node5&#45;&gt;Node499 -->
<g id="edge38" class="edge">
<title>Node5&#45;&gt;Node499</title>
<path fill="none" stroke="#63b8ff" d="M2087.17,-256.7C2075.97,-247.4 2063.14,-236.73 2053.1,-228.39"/>
<polygon fill="#63b8ff" stroke="#63b8ff" points="2084.61,-259.13 2094.54,-262.83 2089.09,-253.75 2084.61,-259.13"/>
</g>
<!-- Node7 -->
<g id="node7" class="node">
<title>Node7</title>
<g id="a_node7"><a xlink:href="m__Do__ext_8h.html" target="_top" xlink:title=" ">
<polygon fill="#fff0f0" stroke="red" points="913.79,-156.5 783.79,-156.5 783.79,-137.5 913.79,-137.5 913.79,-156.5"/>
<text text-anchor="middle" x="848.79" y="-144.5" font-family="Helvetica,sans-Serif" font-size="10.00">include/m_Do/m_Do_ext.h</text>
</a>
</g>
</g>
<!-- Node6&#45;&gt;Node7 -->
<g id="edge6" class="edge">
<title>Node6&#45;&gt;Node7</title>
<path fill="none" stroke="#63b8ff" d="M2134.01,-201.14C2126.23,-199.91 2118.33,-198.81 2110.79,-198 1875.21,-172.58 1137.93,-154.44 913.96,-149.41"/>
<polygon fill="#63b8ff" stroke="#63b8ff" points="2133.31,-204.57 2143.75,-202.77 2134.46,-197.67 2133.31,-204.57"/>
</g>
<!-- Node58 -->
<g id="node13" class="node">
<title>Node58</title>
<g id="a_node13"><a xlink:href="d__kankyo_8cpp.html" target="_top" xlink:title=" ">
<polygon fill="white" stroke="#666666" points="781.79,-24.5 647.79,-24.5 647.79,-5.5 781.79,-5.5 781.79,-24.5"/>
<text text-anchor="middle" x="714.79" y="-12.5" font-family="Helvetica,sans-Serif" font-size="10.00">src/d/kankyo/d_kankyo.cpp</text>
</a>
</g>
</g>
<!-- Node6&#45;&gt;Node58 -->
<g id="edge24" class="edge">
<title>Node6&#45;&gt;Node58</title>
<path fill="none" stroke="#63b8ff" d="M2134.87,-201.19C2126.82,-199.92 2118.61,-198.79 2110.79,-198 1519.84,-138.01 1367.85,-195.44 774.79,-162 603.77,-152.36 122.62,-222.2 6.79,-96 -2.22,-86.18 -2.3,-75.75 6.79,-66 49.9,-19.74 479,-15.52 647.44,-15.66"/>
<polygon fill="#63b8ff" stroke="#63b8ff" points="2134.15,-204.62 2144.59,-202.81 2135.3,-197.71 2134.15,-204.62"/>
</g>
<!-- Node224 -->
<g id="node14" class="node">
<title>Node224</title>
<g id="a_node14"><a xlink:href="d__kankyo__wether_8cpp.html" target="_top" xlink:title=" ">
<polygon fill="white" stroke="#666666" points="1603.79,-30 1487.79,-30 1487.79,0 1603.79,0 1603.79,-30"/>
<text text-anchor="start" x="1495.79" y="-18" font-family="Helvetica,sans-Serif" font-size="10.00">src/d/kankyo/d_kankyo</text>
<text text-anchor="middle" x="1545.79" y="-7" font-family="Helvetica,sans-Serif" font-size="10.00">_wether.cpp</text>
</a>
</g>
</g>
<!-- Node6&#45;&gt;Node224 -->
<g id="edge25" class="edge">
<title>Node6&#45;&gt;Node224</title>
<path fill="none" stroke="#63b8ff" d="M2132.86,-201.18C2125.45,-199.99 2117.95,-198.89 2110.79,-198 2054.75,-191.06 1649.35,-195.38 1603.79,-162 1566.78,-134.88 1582.76,-108.64 1565.79,-66 1561.02,-54.01 1555.58,-40.42 1551.58,-30.44"/>
<polygon fill="#63b8ff" stroke="#63b8ff" points="2132.03,-204.59 2142.47,-202.79 2133.19,-197.69 2132.03,-204.59"/>
</g>
<!-- Node12 -->
<g id="node22" class="node">
<title>Node12</title>
<g id="a_node22"><a xlink:href="d__com__inf__game_8cpp.html" target="_top" xlink:title=" ">
<polygon fill="white" stroke="#666666" points="1720.79,-162 1612.79,-162 1612.79,-132 1720.79,-132 1720.79,-162"/>
<text text-anchor="start" x="1620.79" y="-150" font-family="Helvetica,sans-Serif" font-size="10.00">src/d/com/d_com_inf</text>
<text text-anchor="middle" x="1666.79" y="-139" font-family="Helvetica,sans-Serif" font-size="10.00">_game.cpp</text>
</a>
</g>
</g>
<!-- Node6&#45;&gt;Node12 -->
<g id="edge21" class="edge">
<title>Node6&#45;&gt;Node12</title>
<path fill="none" stroke="#63b8ff" d="M2131.48,-201.12C2124.52,-199.98 2117.51,-198.91 2110.79,-198 1942.25,-175.14 1897.8,-188.5 1729.79,-162 1726.92,-161.55 1723.97,-161.04 1721.01,-160.5"/>
<polygon fill="#63b8ff" stroke="#63b8ff" points="2130.75,-204.54 2141.2,-202.75 2131.92,-197.64 2130.75,-204.54"/>
</g>
<!-- Node209 -->
<g id="node23" class="node">
<title>Node209</title>
<g id="a_node23"><a xlink:href="d__name_8cpp.html" target="_top" xlink:title=" ">
<polygon fill="white" stroke="#666666" points="1832.79,-156.5 1738.79,-156.5 1738.79,-137.5 1832.79,-137.5 1832.79,-156.5"/>
<text text-anchor="middle" x="1785.79" y="-144.5" font-family="Helvetica,sans-Serif" font-size="10.00">src/d/d_name.cpp</text>
</a>
</g>
</g>
<!-- Node6&#45;&gt;Node209 -->
<g id="edge22" class="edge">
<title>Node6&#45;&gt;Node209</title>
<path fill="none" stroke="#63b8ff" d="M2130.09,-201.14C2123.58,-200.04 2117.05,-198.97 2110.79,-198 1991.6,-179.47 1960.27,-184.66 1841.79,-162 1834.41,-160.59 1826.55,-158.8 1819.12,-156.98"/>
<polygon fill="#63b8ff" stroke="#63b8ff" points="2129.02,-204.51 2139.47,-202.76 2130.21,-197.61 2129.02,-204.51"/>
</g>
<!-- Node219 -->
<g id="node24" class="node">
<title>Node219</title>
<g id="a_node24"><a xlink:href="d__event__manager_8cpp.html" target="_top" xlink:title=" ">
<polygon fill="white" stroke="#666666" points="1954.29,-162 1851.29,-162 1851.29,-132 1954.29,-132 1954.29,-162"/>
<text text-anchor="start" x="1859.29" y="-150" font-family="Helvetica,sans-Serif" font-size="10.00">src/d/event/d_event</text>
<text text-anchor="middle" x="1902.79" y="-139" font-family="Helvetica,sans-Serif" font-size="10.00">_manager.cpp</text>
</a>
</g>
</g>
<!-- Node6&#45;&gt;Node219 -->
<g id="edge23" class="edge">
<title>Node6&#45;&gt;Node219</title>
<path fill="none" stroke="#63b8ff" d="M2137.8,-200.62C2091.98,-190.56 2023.42,-175.44 1963.79,-162 1960.83,-161.33 1957.78,-160.64 1954.7,-159.94"/>
<polygon fill="#63b8ff" stroke="#63b8ff" points="2136.95,-204.02 2147.47,-202.74 2138.45,-197.18 2136.95,-204.02"/>
</g>
<!-- Node19 -->
<g id="node25" class="node">
<title>Node19</title>
<g id="a_node25"><a xlink:href="d__msg__flow_8cpp.html" target="_top" xlink:title=" ">
<polygon fill="white" stroke="#666666" points="2105.29,-156.5 1972.29,-156.5 1972.29,-137.5 2105.29,-137.5 2105.29,-156.5"/>
<text text-anchor="middle" x="2038.79" y="-144.5" font-family="Helvetica,sans-Serif" font-size="10.00">src/d/msg/d_msg_flow.cpp</text>
</a>
</g>
</g>
<!-- Node6&#45;&gt;Node19 -->
<g id="edge26" class="edge">
<title>Node6&#45;&gt;Node19</title>
<path fill="none" stroke="#63b8ff" d="M2158.58,-198.77C2128.94,-186.21 2085.22,-167.68 2059.61,-156.82"/>
<polygon fill="#63b8ff" stroke="#63b8ff" points="2156.83,-201.83 2167.4,-202.51 2159.56,-195.39 2156.83,-201.83"/>
</g>
<!-- Node242 -->
<g id="node26" class="node">
<title>Node242</title>
<g id="a_node26"><a xlink:href="d__ovlp__fade_8cpp.html" target="_top" xlink:title=" ">
<polygon fill="white" stroke="#666666" points="2256.29,-156.5 2123.29,-156.5 2123.29,-137.5 2256.29,-137.5 2256.29,-156.5"/>
<text text-anchor="middle" x="2189.79" y="-144.5" font-family="Helvetica,sans-Serif" font-size="10.00">src/d/ovlp/d_ovlp_fade.cpp</text>
</a>
</g>
</g>
<!-- Node6&#45;&gt;Node242 -->
<g id="edge27" class="edge">
<title>Node6&#45;&gt;Node242</title>
<path fill="none" stroke="#63b8ff" d="M2189.79,-191.68C2189.79,-179.94 2189.79,-165.77 2189.79,-156.82"/>
<polygon fill="#63b8ff" stroke="#63b8ff" points="2186.29,-191.59 2189.79,-201.59 2193.29,-191.59 2186.29,-191.59"/>
</g>
<!-- Node86 -->
<g id="node27" class="node">
<title>Node86</title>
<g id="a_node27"><a xlink:href="d__ovlp__fade2_8cpp.html" target="_top" xlink:title=" ">
<polygon fill="white" stroke="#666666" points="2412.79,-156.5 2274.79,-156.5 2274.79,-137.5 2412.79,-137.5 2412.79,-156.5"/>
<text text-anchor="middle" x="2343.79" y="-144.5" font-family="Helvetica,sans-Serif" font-size="10.00">src/d/ovlp/d_ovlp_fade2.cpp</text>
</a>
</g>
</g>
<!-- Node6&#45;&gt;Node86 -->
<g id="edge28" class="edge">
<title>Node6&#45;&gt;Node86</title>
<path fill="none" stroke="#63b8ff" d="M2221.63,-198.77C2251.86,-186.21 2296.44,-167.68 2322.56,-156.82"/>
<polygon fill="#63b8ff" stroke="#63b8ff" points="2220.5,-195.45 2212.6,-202.52 2223.18,-201.91 2220.5,-195.45"/>
</g>
<!-- Node88 -->
<g id="node28" class="node">
<title>Node88</title>
<g id="a_node28"><a xlink:href="d__ovlp__fade3_8cpp.html" target="_top" xlink:title=" ">
<polygon fill="white" stroke="#666666" points="2568.79,-156.5 2430.79,-156.5 2430.79,-137.5 2568.79,-137.5 2568.79,-156.5"/>
<text text-anchor="middle" x="2499.79" y="-144.5" font-family="Helvetica,sans-Serif" font-size="10.00">src/d/ovlp/d_ovlp_fade3.cpp</text>
</a>
</g>
</g>
<!-- Node6&#45;&gt;Node88 -->
<g id="edge29" class="edge">
<title>Node6&#45;&gt;Node88</title>
<path fill="none" stroke="#63b8ff" d="M2244.46,-200.71C2304.96,-188.22 2401.23,-168.35 2456.66,-156.91"/>
<polygon fill="#63b8ff" stroke="#63b8ff" points="2243.79,-197.28 2234.71,-202.73 2245.21,-204.13 2243.79,-197.28"/>
</g>
<!-- Node245 -->
<g id="node29" class="node">
<title>Node245</title>
<g id="a_node29"><a xlink:href="d__s__name_8cpp.html" target="_top" xlink:title=" ">
<polygon fill="white" stroke="#666666" points="2700.29,-156.5 2587.29,-156.5 2587.29,-137.5 2700.29,-137.5 2700.29,-156.5"/>
<text text-anchor="middle" x="2643.79" y="-144.5" font-family="Helvetica,sans-Serif" font-size="10.00">src/d/s/d_s_name.cpp</text>
</a>
</g>
</g>
<!-- Node6&#45;&gt;Node245 -->
<g id="edge30" class="edge">
<title>Node6&#45;&gt;Node245</title>
<path fill="none" stroke="#63b8ff" d="M2248.93,-201.13C2255.62,-200.01 2262.35,-198.95 2268.79,-198 2405.59,-177.93 2441.35,-184.37 2577.79,-162 2586.46,-160.58 2595.72,-158.79 2604.47,-156.97"/>
<polygon fill="#63b8ff" stroke="#63b8ff" points="2248.53,-197.64 2239.26,-202.77 2249.7,-204.55 2248.53,-197.64"/>
</g>
<!-- Node83 -->
<g id="node30" class="node">
<title>Node83</title>
<g id="a_node30"><a xlink:href="d__s__play_8cpp.html" target="_top" xlink:title=" ">
<polygon fill="white" stroke="#666666" points="2824.79,-156.5 2718.79,-156.5 2718.79,-137.5 2824.79,-137.5 2824.79,-156.5"/>
<text text-anchor="middle" x="2771.79" y="-144.5" font-family="Helvetica,sans-Serif" font-size="10.00">src/d/s/d_s_play.cpp</text>
</a>
</g>
</g>
<!-- Node6&#45;&gt;Node83 -->
<g id="edge31" class="edge">
<title>Node6&#45;&gt;Node83</title>
<path fill="none" stroke="#63b8ff" d="M2247.29,-201.16C2254.51,-199.99 2261.81,-198.9 2268.79,-198 2463.83,-172.81 2515.4,-191.73 2709.79,-162 2718.41,-160.68 2727.61,-158.84 2736.22,-156.93"/>
<polygon fill="#63b8ff" stroke="#63b8ff" points="2246.82,-197.69 2237.54,-202.8 2247.99,-204.59 2246.82,-197.69"/>
</g>
<!-- Node25 -->
<g id="node31" class="node">
<title>Node25</title>
<g id="a_node31"><a xlink:href="d__shop__system_8cpp.html" target="_top" xlink:title=" ">
<polygon fill="white" stroke="#666666" points="2994.79,-156.5 2842.79,-156.5 2842.79,-137.5 2994.79,-137.5 2994.79,-156.5"/>
<text text-anchor="middle" x="2918.79" y="-144.5" font-family="Helvetica,sans-Serif" font-size="10.00">src/d/shop/d_shop_system.cpp</text>
</a>
</g>
</g>
<!-- Node6&#45;&gt;Node25 -->
<g id="edge32" class="edge">
<title>Node6&#45;&gt;Node25</title>
<path fill="none" stroke="#63b8ff" d="M2246.44,-201.18C2253.94,-199.97 2261.54,-198.87 2268.79,-198 2518.62,-168 2583.79,-190.48 2833.79,-162 2845.38,-160.68 2857.8,-158.86 2869.47,-156.98"/>
<polygon fill="#63b8ff" stroke="#63b8ff" points="2245.98,-197.7 2236.69,-202.81 2247.13,-204.61 2245.98,-197.7"/>
</g>
<!-- Node495 -->
<g id="node32" class="node">
<title>Node495</title>
<g id="a_node32"><a xlink:href="m__Do__Reset_8cpp.html" target="_top" xlink:title=" ">
<polygon fill="white" stroke="#666666" points="3148.79,-156.5 3012.79,-156.5 3012.79,-137.5 3148.79,-137.5 3148.79,-156.5"/>
<text text-anchor="middle" x="3080.79" y="-144.5" font-family="Helvetica,sans-Serif" font-size="10.00">src/m_Do/m_Do_Reset.cpp</text>
</a>
</g>
</g>
<!-- Node6&#45;&gt;Node495 -->
<g id="edge33" class="edge">
<title>Node6&#45;&gt;Node495</title>
<path fill="none" stroke="#63b8ff" d="M2245.88,-201.16C2253.56,-199.94 2261.35,-198.84 2268.79,-198 2593.8,-161.39 2678.87,-199.33 3003.79,-162 3014.59,-160.76 3026.16,-158.93 3036.97,-156.99"/>
<polygon fill="#63b8ff" stroke="#63b8ff" points="2245.55,-197.67 2236.26,-202.77 2246.7,-204.57 2245.55,-197.67"/>
</g>
<!-- Node253 -->
<g id="node33" class="node">
<title>Node253</title>
<g id="a_node33"><a xlink:href="m__Do__audio_8cpp.html" target="_top" xlink:title=" ">
<polygon fill="white" stroke="#666666" points="3300.79,-156.5 3166.79,-156.5 3166.79,-137.5 3300.79,-137.5 3300.79,-156.5"/>
<text text-anchor="middle" x="3233.79" y="-144.5" font-family="Helvetica,sans-Serif" font-size="10.00">src/m_Do/m_Do_audio.cpp</text>
</a>
</g>
</g>
<!-- Node6&#45;&gt;Node253 -->
<g id="edge34" class="edge">
<title>Node6&#45;&gt;Node253</title>
<path fill="none" stroke="#63b8ff" d="M2245.58,-201.15C2253.36,-199.92 2261.26,-198.82 2268.79,-198 2661.93,-155.4 2764.81,-205.93 3157.79,-162 3168.59,-160.79 3180.17,-158.95 3190.95,-156.99"/>
<polygon fill="#63b8ff" stroke="#63b8ff" points="2245.13,-197.68 2235.84,-202.77 2246.28,-204.58 2245.13,-197.68"/>
</g>
<!-- Node8 -->
<g id="node8" class="node">
<title>Node8</title>
<g id="a_node8"><a xlink:href="d__attention_8h.html" target="_top" xlink:title=" ">
<polygon fill="#fff0f0" stroke="red" points="1312.79,-90.5 1198.79,-90.5 1198.79,-71.5 1312.79,-71.5 1312.79,-90.5"/>
<text text-anchor="middle" x="1255.79" y="-78.5" font-family="Helvetica,sans-Serif" font-size="10.00">include/d/d_attention.h</text>
</a>
</g>
</g>
<!-- Node7&#45;&gt;Node8 -->
<g id="edge7" class="edge">
<title>Node7&#45;&gt;Node8</title>
<path fill="none" stroke="#63b8ff" d="M925.36,-136.08C994.41,-126.81 1098.65,-112.03 1188.79,-96 1197.22,-94.5 1206.2,-92.74 1214.77,-90.98"/>
<polygon fill="#63b8ff" stroke="#63b8ff" points="925.11,-132.58 915.66,-137.37 926.04,-139.52 925.11,-132.58"/>
</g>
<!-- Node260 -->
<g id="node9" class="node">
<title>Node260</title>
<g id="a_node9"><a xlink:href="d__drawlist_8h.html" target="_top" xlink:title=" ">
<polygon fill="#fff0f0" stroke="red" points="1440.79,-90.5 1330.79,-90.5 1330.79,-71.5 1440.79,-71.5 1440.79,-90.5"/>
<text text-anchor="middle" x="1385.79" y="-78.5" font-family="Helvetica,sans-Serif" font-size="10.00">include/d/d_drawlist.h</text>
</a>
</g>
</g>
<!-- Node7&#45;&gt;Node260 -->
<g id="edge8" class="edge">
<title>Node7&#45;&gt;Node260</title>
<path fill="none" stroke="#63b8ff" d="M925.5,-140.5C1019.35,-133.17 1182.9,-118.46 1321.79,-96 1330.33,-94.62 1339.43,-92.83 1348.02,-90.98"/>
<polygon fill="#63b8ff" stroke="#63b8ff" points="925.34,-137 915.64,-141.26 925.88,-143.98 925.34,-137"/>
</g>
<!-- Node309 -->
<g id="node10" class="node">
<title>Node309</title>
<g id="a_node10"><a xlink:href="d__ky__thunder_8h.html" target="_top" xlink:title=" ">
<polygon fill="#fff0f0" stroke="red" points="139.79,-90.5 15.79,-90.5 15.79,-71.5 139.79,-71.5 139.79,-90.5"/>
<text text-anchor="middle" x="77.79" y="-78.5" font-family="Helvetica,sans-Serif" font-size="10.00">include/d/d_ky_thunder.h</text>
</a>
</g>
</g>
<!-- Node7&#45;&gt;Node309 -->
<g id="edge9" class="edge">
<title>Node7&#45;&gt;Node309</title>
<path fill="none" stroke="#63b8ff" d="M772.07,-143.62C642.94,-138.91 374.16,-126.15 148.79,-96 138.96,-94.68 128.43,-92.85 118.57,-90.94"/>
<polygon fill="#63b8ff" stroke="#63b8ff" points="771.75,-147.11 781.87,-143.97 772,-140.11 771.75,-147.11"/>
</g>
<!-- Node310 -->
<g id="node11" class="node">
<title>Node310</title>
<g id="a_node11"><a xlink:href="d__resorce_8h.html" target="_top" xlink:title=" ">
<polygon fill="#fff0f0" stroke="red" points="267.29,-90.5 158.29,-90.5 158.29,-71.5 267.29,-71.5 267.29,-90.5"/>
<text text-anchor="middle" x="212.79" y="-78.5" font-family="Helvetica,sans-Serif" font-size="10.00">include/d/d_resorce.h</text>
</a>
</g>
</g>
<!-- Node7&#45;&gt;Node310 -->
<g id="edge10" class="edge">
<title>Node7&#45;&gt;Node310</title>
<path fill="none" stroke="#63b8ff" d="M772.4,-142.44C662.37,-136.61 453.11,-122.88 276.79,-96 268.02,-94.66 258.66,-92.84 249.87,-90.95"/>
<polygon fill="#63b8ff" stroke="#63b8ff" points="772.03,-145.93 782.2,-142.95 772.39,-138.94 772.03,-145.93"/>
</g>
<!-- Node311 -->
<g id="node12" class="node">
<title>Node311</title>
<g id="a_node12"><a xlink:href="d__kankyo_8h.html" target="_top" xlink:title=" ">
<polygon fill="#fff0f0" stroke="red" points="1556.79,-96 1458.79,-96 1458.79,-66 1556.79,-66 1556.79,-96"/>
<text text-anchor="start" x="1466.79" y="-84" font-family="Helvetica,sans-Serif" font-size="10.00">include/d/kankyo/d</text>
<text text-anchor="middle" x="1507.79" y="-73" font-family="Helvetica,sans-Serif" font-size="10.00">_kankyo.h</text>
</a>
</g>
</g>
<!-- Node7&#45;&gt;Node311 -->
<g id="edge11" class="edge">
<title>Node7&#45;&gt;Node311</title>
<path fill="none" stroke="#63b8ff" d="M925.54,-143.39C1040.25,-138.65 1262.92,-126.14 1449.79,-96 1452.66,-95.54 1455.59,-95.01 1458.54,-94.44"/>
<polygon fill="#63b8ff" stroke="#63b8ff" points="925.48,-139.89 915.63,-143.8 925.76,-146.89 925.48,-139.89"/>
</g>
<!-- Node264 -->
<g id="node15" class="node">
<title>Node264</title>
<g id="a_node15"><a xlink:href="d__a__do_8h.html" target="_top" xlink:title=" ">
<polygon fill="white" stroke="#666666" points="381.79,-96 285.79,-96 285.79,-66 381.79,-66 381.79,-96"/>
<text text-anchor="start" x="293.79" y="-84" font-family="Helvetica,sans-Serif" font-size="10.00">include/rel/d/a/d_a</text>
<text text-anchor="middle" x="333.79" y="-73" font-family="Helvetica,sans-Serif" font-size="10.00">_do/d_a_do.h</text>
</a>
</g>
</g>
<!-- Node7&#45;&gt;Node264 -->
<g id="edge14" class="edge">
<title>Node7&#45;&gt;Node264</title>
<path fill="none" stroke="#63b8ff" d="M772.22,-140.75C680.91,-133.77 523.93,-119.51 390.79,-96 387.98,-95.5 385.11,-94.95 382.21,-94.35"/>
<polygon fill="#63b8ff" stroke="#63b8ff" points="771.82,-144.23 782.05,-141.49 772.35,-137.25 771.82,-144.23"/>
</g>
<!-- Node463 -->
<g id="node16" class="node">
<title>Node463</title>
<g id="a_node16"><a xlink:href="d__a__mg__fshop_8h.html" target="_top" xlink:title=" ">
<polygon fill="white" stroke="#666666" points="539.29,-96 400.29,-96 400.29,-66 539.29,-66 539.29,-96"/>
<text text-anchor="start" x="408.29" y="-84" font-family="Helvetica,sans-Serif" font-size="10.00">include/rel/d/a/d_a</text>
<text text-anchor="middle" x="469.79" y="-73" font-family="Helvetica,sans-Serif" font-size="10.00">_mg_fshop/d_a_mg_fshop.h</text>
</a>
</g>
</g>
<!-- Node7&#45;&gt;Node463 -->
<g id="edge15" class="edge">
<title>Node7&#45;&gt;Node463</title>
<path fill="none" stroke="#63b8ff" d="M782.67,-135.18C721.87,-125.18 629.21,-109.83 548.79,-96 545.77,-95.48 542.69,-94.95 539.57,-94.41"/>
<polygon fill="#63b8ff" stroke="#63b8ff" points="782.09,-138.63 792.53,-136.8 783.23,-131.72 782.09,-138.63"/>
</g>
<!-- Node377 -->
<g id="node17" class="node">
<title>Node377</title>
<g id="a_node17"><a xlink:href="d__a__myna_8h.html" target="_top" xlink:title=" ">
<polygon fill="white" stroke="#666666" points="657.79,-96 557.79,-96 557.79,-66 657.79,-66 657.79,-96"/>
<text text-anchor="start" x="565.79" y="-84" font-family="Helvetica,sans-Serif" font-size="10.00">include/rel/d/a/d_a</text>
<text text-anchor="middle" x="607.79" y="-73" font-family="Helvetica,sans-Serif" font-size="10.00">_myna/d_a_myna.h</text>
</a>
</g>
</g>
<!-- Node7&#45;&gt;Node377 -->
<g id="edge16" class="edge">
<title>Node7&#45;&gt;Node377</title>
<path fill="none" stroke="#63b8ff" d="M803.92,-134.08C762.52,-123.09 701.14,-106.79 658.1,-95.36"/>
<polygon fill="#63b8ff" stroke="#63b8ff" points="803,-137.46 813.57,-136.65 804.8,-130.7 803,-137.46"/>
</g>
<!-- Node486 -->
<g id="node18" class="node">
<title>Node486</title>
<g id="a_node18"><a xlink:href="DynamicLink_8cpp.html" target="_top" xlink:title=" ">
<polygon fill="white" stroke="#666666" points="783.29,-90.5 676.29,-90.5 676.29,-71.5 783.29,-71.5 783.29,-90.5"/>
<text text-anchor="middle" x="729.79" y="-78.5" font-family="Helvetica,sans-Serif" font-size="10.00">src/DynamicLink.cpp</text>
</a>
</g>
</g>
<!-- Node7&#45;&gt;Node486 -->
<g id="edge17" class="edge">
<title>Node7&#45;&gt;Node486</title>
<path fill="none" stroke="#63b8ff" d="M822.33,-131.76C799.03,-119.24 765.85,-101.39 746.2,-90.82"/>
<polygon fill="#63b8ff" stroke="#63b8ff" points="820.45,-134.73 830.91,-136.38 823.77,-128.57 820.45,-134.73"/>
</g>
<!-- Node186 -->
<g id="node19" class="node">
<title>Node186</title>
<g id="a_node19"><a xlink:href="c__dylink_8cpp.html" target="_top" xlink:title=" ">
<polygon fill="white" stroke="#666666" points="896.29,-90.5 801.29,-90.5 801.29,-71.5 896.29,-71.5 896.29,-90.5"/>
<text text-anchor="middle" x="848.79" y="-78.5" font-family="Helvetica,sans-Serif" font-size="10.00">src/c/c_dylink.cpp</text>
</a>
</g>
</g>
<!-- Node7&#45;&gt;Node186 -->
<g id="edge18" class="edge">
<title>Node7&#45;&gt;Node186</title>
<path fill="none" stroke="#63b8ff" d="M848.79,-125.68C848.79,-113.94 848.79,-99.77 848.79,-90.82"/>
<polygon fill="#63b8ff" stroke="#63b8ff" points="845.29,-125.59 848.79,-135.59 852.29,-125.59 845.29,-125.59"/>
</g>
<!-- Node487 -->
<g id="node20" class="node">
<title>Node487</title>
<g id="a_node20"><a xlink:href="d__meter__HIO_8cpp.html" target="_top" xlink:title=" ">
<polygon fill="white" stroke="#666666" points="1018.79,-96 914.79,-96 914.79,-66 1018.79,-66 1018.79,-96"/>
<text text-anchor="start" x="922.79" y="-84" font-family="Helvetica,sans-Serif" font-size="10.00">src/d/meter/d_meter</text>
<text text-anchor="middle" x="966.79" y="-73" font-family="Helvetica,sans-Serif" font-size="10.00">_HIO.cpp</text>
</a>
</g>
</g>
<!-- Node7&#45;&gt;Node487 -->
<g id="edge19" class="edge">
<title>Node7&#45;&gt;Node487</title>
<path fill="none" stroke="#63b8ff" d="M875.16,-131.7C894.51,-121.21 920.68,-107.01 940.1,-96.48"/>
<polygon fill="#63b8ff" stroke="#63b8ff" points="873.65,-128.54 866.53,-136.38 876.99,-134.69 873.65,-128.54"/>
</g>
<!-- Node488 -->
<g id="node21" class="node">
<title>Node488</title>
<g id="a_node21"><a xlink:href="d__pane__class_8cpp.html" target="_top" xlink:title=" ">
<polygon fill="white" stroke="#666666" points="1180.29,-90.5 1037.29,-90.5 1037.29,-71.5 1180.29,-71.5 1180.29,-90.5"/>
<text text-anchor="middle" x="1108.79" y="-78.5" font-family="Helvetica,sans-Serif" font-size="10.00">src/d/pane/d_pane_class.cpp</text>
</a>
</g>
</g>
<!-- Node7&#45;&gt;Node488 -->
<g id="edge20" class="edge">
<title>Node7&#45;&gt;Node488</title>
<path fill="none" stroke="#63b8ff" d="M896.23,-134.32C947.06,-121.81 1026.61,-102.23 1072.62,-90.91"/>
<polygon fill="#63b8ff" stroke="#63b8ff" points="895.56,-130.88 886.69,-136.67 897.24,-137.68 895.56,-130.88"/>
</g>
<!-- Node311&#45;&gt;Node58 -->
<g id="edge12" class="edge">
<title>Node311&#45;&gt;Node58</title>
<path fill="none" stroke="#63b8ff" d="M1447.41,-65.82C1197.24,-28.26 910.05,-19.1 782.1,-16.79"/>
<polygon fill="#63b8ff" stroke="#63b8ff" points="1446.64,-69.24 1457.05,-67.29 1447.69,-62.32 1446.64,-69.24"/>
</g>
<!-- Node311&#45;&gt;Node224 -->
<g id="edge13" class="edge">
<title>Node311&#45;&gt;Node224</title>
<path fill="none" stroke="#63b8ff" d="M1521.98,-56.11C1527.16,-47.38 1532.86,-37.78 1537.38,-30.16"/>
<polygon fill="#63b8ff" stroke="#63b8ff" points="1519.1,-54.11 1517,-64.49 1525.12,-57.68 1519.1,-54.11"/>
</g>
<!-- Node510&#45;&gt;Node496 -->
<g id="edge51" class="edge">
<title>Node510&#45;&gt;Node496</title>
<path fill="none" stroke="#63b8ff" d="M2157.62,-324.18C2209.48,-295.49 2303.34,-243.57 2340.76,-222.87"/>
<polygon fill="#63b8ff" stroke="#63b8ff" points="2156.22,-320.96 2149.17,-328.86 2159.61,-327.08 2156.22,-320.96"/>
</g>
</g>
</svg>
        <g id="navigator" transform="translate(0 0)" fill="#404254">
                <rect fill="#f2f5e9" fill-opacity="0.5" stroke="#606060" stroke-width=".5" x="0" y="0" width="60" height="60"/>
                <use id="zoomplus" xlink:href="#zoomPlus" x="17" y="9" onmousedown="handleZoom(evt,'in')"/>
                <use id="zoomminus" xlink:href="#zoomMin" x="42" y="9" onmousedown="handleZoom(evt,'out')"/>
                <use id="reset" xlink:href="#resetDef" x="30" y="36" onmousedown="handleReset()"/>
                <g id="arrowUp" xlink:href="#dirArrow" transform="translate(30 24)" onmousedown="handlePan(0,-1)">
                  <use xlink:href="#rim" fill="#404040">
                        <set attributeName="fill" to="#808080" begin="arrowUp.mouseover" end="arrowUp.mouseout"/>
                  </use>
                  <path fill="none" stroke="white" stroke-width="1.5" d="M0,-3.0v7 M-2.5,-0.5L0,-3.0L2.5,-0.5"/>
                </g>
                <g id="arrowRight" xlink:href="#dirArrow" transform="rotate(90) translate(36 -43)" onmousedown="handlePan(1,0)">
                  <use xlink:href="#rim" fill="#404040">
                        <set attributeName="fill" to="#808080" begin="arrowRight.mouseover" end="arrowRight.mouseout"/>
                  </use>
                  <path fill="none" stroke="white" stroke-width="1.5" d="M0,-3.0v7 M-2.5,-0.5L0,-3.0L2.5,-0.5"/>
                </g>
                <g id="arrowDown" xlink:href="#dirArrow" transform="rotate(180) translate(-30 -48)" onmousedown="handlePan(0,1)">
                  <use xlink:href="#rim" fill="#404040">
                        <set attributeName="fill" to="#808080" begin="arrowDown.mouseover" end="arrowDown.mouseout"/>
                  </use>
                  <path fill="none" stroke="white" stroke-width="1.5" d="M0,-3.0v7 M-2.5,-0.5L0,-3.0L2.5,-0.5"/>
                </g>
                <g id="arrowLeft" xlink:href="#dirArrow" transform="rotate(270) translate(-36 17)" onmousedown="handlePan(-1,0)">
                  <use xlink:href="#rim" fill="#404040">
                        <set attributeName="fill" to="#808080" begin="arrowLeft.mouseover" end="arrowLeft.mouseout"/>
                  </use>
                  <path fill="none" stroke="white" stroke-width="1.5" d="M0,-3.0v7 M-2.5,-0.5L0,-3.0L2.5,-0.5"/>
                </g>
        </g>
        <svg viewBox="0 0 15 15" width="100%" height="30px" preserveAspectRatio="xMaxYMin meet">
         <g id="arrow_out" transform="scale(0.3 0.3)">
          <a xlink:href="JASAramStream_8h__dep__incl_org.svg" target="_base">
           <rect id="button" ry="5" rx="5" y="6" x="6" height="38" width="38"
                fill="#f2f5e9" fill-opacity="0.5" stroke="#606060" stroke-width="1.0"/>
           <path id="arrow"
             d="M 11.500037,31.436501 C 11.940474,20.09759 22.043105,11.32322 32.158766,21.979434 L 37.068811,17.246167 C 37.068811,17.246167 37.088388,32 37.088388,32 L 22.160133,31.978069 C 22.160133,31.978069 26.997745,27.140456 26.997745,27.140456 C 18.528582,18.264221 13.291696,25.230495 11.500037,31.436501 z"
             style="fill:#404040;"/>
          </a>
         </g>
        </svg>
</svg>
