<?xml version="1.0" encoding="UTF-8" standalone="no"?>
<!DOCTYPE svg PUBLIC "-//W3C//DTD SVG 1.1//EN"
 "http://www.w3.org/Graphics/SVG/1.1/DTD/svg11.dtd">
<!-- Generated by graphviz version 7.0.5 (20221223.1930)
 -->
<!-- Title: include/JSystem/JAudio2/JASOscillator.h Pages: 1 -->
<svg width="2519pt" height="621pt"
 viewBox="0.00 0.00 2518.50 621.00" xmlns="http://www.w3.org/2000/svg" xmlns:xlink="http://www.w3.org/1999/xlink">
<g id="graph0" class="graph" transform="scale(1 1) rotate(0) translate(4 617)">
<title>include/JSystem/JAudio2/JASOscillator.h</title>
<!-- Node1 -->
<g id="node1" class="node">
<title>Node1</title>
<g id="a_node1"><a xlink:title=" ">
<polygon fill="#999999" stroke="#666666" points="1548.5,-613 1421.5,-613 1421.5,-583 1548.5,-583 1548.5,-613"/>
<text text-anchor="start" x="1429.5" y="-601" font-family="Helvetica,sans-Serif" font-size="10.00">include/JSystem/JAudio2</text>
<text text-anchor="middle" x="1485" y="-590" font-family="Helvetica,sans-Serif" font-size="10.00">/JASOscillator.h</text>
</a>
</g>
</g>
<!-- Node2 -->
<g id="node2" class="node">
<title>Node2</title>
<g id="a_node2"><a xlink:href="JASBasicInst_8h.html" target="_top" xlink:title=" ">
<polygon fill="white" stroke="#666666" points="1403.5,-547 1276.5,-547 1276.5,-517 1403.5,-517 1403.5,-547"/>
<text text-anchor="start" x="1284.5" y="-535" font-family="Helvetica,sans-Serif" font-size="10.00">include/JSystem/JAudio2</text>
<text text-anchor="middle" x="1340" y="-524" font-family="Helvetica,sans-Serif" font-size="10.00">/JASBasicInst.h</text>
</a>
</g>
</g>
<!-- Node1&#45;&gt;Node2 -->
<g id="edge1" class="edge">
<title>Node1&#45;&gt;Node2</title>
<path fill="none" stroke="#63b8ff" d="M1441.97,-578.01C1419.78,-568.22 1393.16,-556.46 1372.68,-547.43"/>
<polygon fill="#63b8ff" stroke="#63b8ff" points="1440.51,-581.19 1451.07,-582.03 1443.34,-574.79 1440.51,-581.19"/>
</g>
<!-- Node8 -->
<g id="node8" class="node">
<title>Node8</title>
<g id="a_node8"><a xlink:href="JASChannel_8h.html" target="_top" xlink:title=" ">
<polygon fill="white" stroke="#666666" points="1141.5,-547 1014.5,-547 1014.5,-517 1141.5,-517 1141.5,-547"/>
<text text-anchor="start" x="1022.5" y="-535" font-family="Helvetica,sans-Serif" font-size="10.00">include/JSystem/JAudio2</text>
<text text-anchor="middle" x="1078" y="-524" font-family="Helvetica,sans-Serif" font-size="10.00">/JASChannel.h</text>
</a>
</g>
</g>
<!-- Node1&#45;&gt;Node8 -->
<g id="edge7" class="edge">
<title>Node1&#45;&gt;Node8</title>
<path fill="none" stroke="#63b8ff" d="M1410.36,-585.26C1333.37,-573.16 1214.58,-554.48 1141.82,-543.04"/>
<polygon fill="#63b8ff" stroke="#63b8ff" points="1409.49,-588.67 1419.91,-586.76 1410.58,-581.75 1409.49,-588.67"/>
</g>
<!-- Node10 -->
<g id="node10" class="node">
<title>Node10</title>
<g id="a_node10"><a xlink:href="JASTrack_8h.html" target="_top" xlink:title=" ">
<polygon fill="white" stroke="#666666" points="1948.5,-547 1821.5,-547 1821.5,-517 1948.5,-517 1948.5,-547"/>
<text text-anchor="start" x="1829.5" y="-535" font-family="Helvetica,sans-Serif" font-size="10.00">include/JSystem/JAudio2</text>
<text text-anchor="middle" x="1885" y="-524" font-family="Helvetica,sans-Serif" font-size="10.00">/JASTrack.h</text>
</a>
</g>
</g>
<!-- Node1&#45;&gt;Node10 -->
<g id="edge10" class="edge">
<title>Node1&#45;&gt;Node10</title>
<path fill="none" stroke="#63b8ff" d="M1560.09,-584.98C1635.37,-572.94 1750.01,-554.6 1821.07,-543.23"/>
<polygon fill="#63b8ff" stroke="#63b8ff" points="1559.64,-581.51 1550.32,-586.55 1560.75,-588.43 1559.64,-581.51"/>
</g>
<!-- Node389 -->
<g id="node49" class="node">
<title>Node389</title>
<g id="a_node49"><a xlink:href="JASVoiceBank_8h.html" target="_top" xlink:title=" ">
<polygon fill="white" stroke="#666666" points="1548.5,-547 1421.5,-547 1421.5,-517 1548.5,-517 1548.5,-547"/>
<text text-anchor="start" x="1429.5" y="-535" font-family="Helvetica,sans-Serif" font-size="10.00">include/JSystem/JAudio2</text>
<text text-anchor="middle" x="1485" y="-524" font-family="Helvetica,sans-Serif" font-size="10.00">/JASVoiceBank.h</text>
</a>
</g>
</g>
<!-- Node1&#45;&gt;Node389 -->
<g id="edge54" class="edge">
<title>Node1&#45;&gt;Node389</title>
<path fill="none" stroke="#63b8ff" d="M1485,-571.39C1485,-563.13 1485,-554.28 1485,-547.16"/>
<polygon fill="#63b8ff" stroke="#63b8ff" points="1481.5,-571.28 1485,-581.28 1488.5,-571.28 1481.5,-571.28"/>
</g>
<!-- Node390 -->
<g id="node50" class="node">
<title>Node390</title>
<g id="a_node50"><a xlink:href="JASOscillator_8cpp.html" target="_top" xlink:title=" ">
<polygon fill="white" stroke="#666666" points="2077.5,-547 1966.5,-547 1966.5,-517 2077.5,-517 2077.5,-547"/>
<text text-anchor="start" x="1974.5" y="-535" font-family="Helvetica,sans-Serif" font-size="10.00">libs/JSystem/JAudio2</text>
<text text-anchor="middle" x="2022" y="-524" font-family="Helvetica,sans-Serif" font-size="10.00">/JASOscillator.cpp</text>
</a>
</g>
</g>
<!-- Node1&#45;&gt;Node390 -->
<g id="edge56" class="edge">
<title>Node1&#45;&gt;Node390</title>
<path fill="none" stroke="#63b8ff" d="M1560.13,-591.62C1653.71,-584.34 1818.32,-569.59 1958,-547 1960.69,-546.56 1963.45,-546.09 1966.22,-545.58"/>
<polygon fill="#63b8ff" stroke="#63b8ff" points="1560.01,-588.12 1550.3,-592.38 1560.54,-595.1 1560.01,-588.12"/>
</g>
<!-- Node3 -->
<g id="node3" class="node">
<title>Node3</title>
<g id="a_node3"><a xlink:href="JASDrumSet_8h.html" target="_top" xlink:title=" ">
<polygon fill="white" stroke="#666666" points="1407.5,-481 1280.5,-481 1280.5,-451 1407.5,-451 1407.5,-481"/>
<text text-anchor="start" x="1288.5" y="-469" font-family="Helvetica,sans-Serif" font-size="10.00">include/JSystem/JAudio2</text>
<text text-anchor="middle" x="1344" y="-458" font-family="Helvetica,sans-Serif" font-size="10.00">/JASDrumSet.h</text>
</a>
</g>
</g>
<!-- Node2&#45;&gt;Node3 -->
<g id="edge2" class="edge">
<title>Node2&#45;&gt;Node3</title>
<path fill="none" stroke="#63b8ff" d="M1341.6,-505.39C1342.12,-497.13 1342.67,-488.28 1343.11,-481.16"/>
<polygon fill="#63b8ff" stroke="#63b8ff" points="1338.11,-505.09 1340.98,-515.29 1345.1,-505.52 1338.11,-505.09"/>
</g>
<!-- Node5 -->
<g id="node5" class="node">
<title>Node5</title>
<g id="a_node5"><a xlink:href="JASBank_8cpp.html" target="_top" xlink:title=" ">
<polygon fill="white" stroke="#666666" points="1133.5,-481 1022.5,-481 1022.5,-451 1133.5,-451 1133.5,-481"/>
<text text-anchor="start" x="1030.5" y="-469" font-family="Helvetica,sans-Serif" font-size="10.00">libs/JSystem/JAudio2</text>
<text text-anchor="middle" x="1078" y="-458" font-family="Helvetica,sans-Serif" font-size="10.00">/JASBank.cpp</text>
</a>
</g>
</g>
<!-- Node2&#45;&gt;Node5 -->
<g id="edge4" class="edge">
<title>Node2&#45;&gt;Node5</title>
<path fill="none" stroke="#63b8ff" d="M1269.73,-513.83C1227.11,-503.42 1173.47,-490.32 1133.77,-480.62"/>
<polygon fill="#63b8ff" stroke="#63b8ff" points="1268.86,-517.23 1279.41,-516.2 1270.52,-510.43 1268.86,-517.23"/>
</g>
<!-- Node6 -->
<g id="node6" class="node">
<title>Node6</title>
<g id="a_node6"><a xlink:href="JASBasicInst_8cpp.html" target="_top" xlink:title=" ">
<polygon fill="white" stroke="#666666" points="1262.5,-481 1151.5,-481 1151.5,-451 1262.5,-451 1262.5,-481"/>
<text text-anchor="start" x="1159.5" y="-469" font-family="Helvetica,sans-Serif" font-size="10.00">libs/JSystem/JAudio2</text>
<text text-anchor="middle" x="1207" y="-458" font-family="Helvetica,sans-Serif" font-size="10.00">/JASBasicInst.cpp</text>
</a>
</g>
</g>
<!-- Node2&#45;&gt;Node6 -->
<g id="edge5" class="edge">
<title>Node2&#45;&gt;Node6</title>
<path fill="none" stroke="#63b8ff" d="M1299.94,-511.72C1279.63,-501.95 1255.38,-490.28 1236.75,-481.31"/>
<polygon fill="#63b8ff" stroke="#63b8ff" points="1298.26,-514.8 1308.79,-515.98 1301.3,-508.49 1298.26,-514.8"/>
</g>
<!-- Node7 -->
<g id="node7" class="node">
<title>Node7</title>
<g id="a_node7"><a xlink:href="JASVoiceBank_8cpp.html" target="_top" xlink:title=" ">
<polygon fill="white" stroke="#666666" points="1536.5,-481 1425.5,-481 1425.5,-451 1536.5,-451 1536.5,-481"/>
<text text-anchor="start" x="1433.5" y="-469" font-family="Helvetica,sans-Serif" font-size="10.00">libs/JSystem/JAudio2</text>
<text text-anchor="middle" x="1481" y="-458" font-family="Helvetica,sans-Serif" font-size="10.00">/JASVoiceBank.cpp</text>
</a>
</g>
</g>
<!-- Node2&#45;&gt;Node7 -->
<g id="edge6" class="edge">
<title>Node2&#45;&gt;Node7</title>
<path fill="none" stroke="#63b8ff" d="M1381.88,-511.99C1403.53,-502.16 1429.53,-490.36 1449.46,-481.31"/>
<polygon fill="#63b8ff" stroke="#63b8ff" points="1380.68,-508.69 1373.02,-516.01 1383.57,-515.07 1380.68,-508.69"/>
</g>
<!-- Node4 -->
<g id="node4" class="node">
<title>Node4</title>
<g id="a_node4"><a xlink:href="JASDrumSet_8cpp.html" target="_top" xlink:title=" ">
<polygon fill="white" stroke="#666666" points="1399.5,-415 1288.5,-415 1288.5,-385 1399.5,-385 1399.5,-415"/>
<text text-anchor="start" x="1296.5" y="-403" font-family="Helvetica,sans-Serif" font-size="10.00">libs/JSystem/JAudio2</text>
<text text-anchor="middle" x="1344" y="-392" font-family="Helvetica,sans-Serif" font-size="10.00">/JASDrumSet.cpp</text>
</a>
</g>
</g>
<!-- Node3&#45;&gt;Node4 -->
<g id="edge3" class="edge">
<title>Node3&#45;&gt;Node4</title>
<path fill="none" stroke="#63b8ff" d="M1344,-439.39C1344,-431.13 1344,-422.28 1344,-415.16"/>
<polygon fill="#63b8ff" stroke="#63b8ff" points="1340.5,-439.28 1344,-449.28 1347.5,-439.28 1340.5,-439.28"/>
</g>
<!-- Node8&#45;&gt;Node5 -->
<g id="edge8" class="edge">
<title>Node8&#45;&gt;Node5</title>
<path fill="none" stroke="#63b8ff" d="M1078,-505.39C1078,-497.13 1078,-488.28 1078,-481.16"/>
<polygon fill="#63b8ff" stroke="#63b8ff" points="1074.5,-505.28 1078,-515.28 1081.5,-505.28 1074.5,-505.28"/>
</g>
<!-- Node9 -->
<g id="node9" class="node">
<title>Node9</title>
<g id="a_node9"><a xlink:href="JASChannel_8cpp.html" target="_top" xlink:title=" ">
<polygon fill="white" stroke="#666666" points="1004.5,-481 893.5,-481 893.5,-451 1004.5,-451 1004.5,-481"/>
<text text-anchor="start" x="901.5" y="-469" font-family="Helvetica,sans-Serif" font-size="10.00">libs/JSystem/JAudio2</text>
<text text-anchor="middle" x="949" y="-458" font-family="Helvetica,sans-Serif" font-size="10.00">/JASChannel.cpp</text>
</a>
</g>
</g>
<!-- Node8&#45;&gt;Node9 -->
<g id="edge9" class="edge">
<title>Node8&#45;&gt;Node9</title>
<path fill="none" stroke="#63b8ff" d="M1038.87,-511.59C1019.23,-501.84 995.84,-490.24 977.85,-481.31"/>
<polygon fill="#63b8ff" stroke="#63b8ff" points="1037.18,-514.66 1047.69,-515.96 1040.29,-508.38 1037.18,-514.66"/>
</g>
<!-- Node11 -->
<g id="node11" class="node">
<title>Node11</title>
<g id="a_node11"><a xlink:href="JAISe_8h.html" target="_top" xlink:title=" ">
<polygon fill="white" stroke="#666666" points="1810.5,-481 1683.5,-481 1683.5,-451 1810.5,-451 1810.5,-481"/>
<text text-anchor="start" x="1691.5" y="-469" font-family="Helvetica,sans-Serif" font-size="10.00">include/JSystem/JAudio2</text>
<text text-anchor="middle" x="1747" y="-458" font-family="Helvetica,sans-Serif" font-size="10.00">/JAISe.h</text>
</a>
</g>
</g>
<!-- Node10&#45;&gt;Node11 -->
<g id="edge11" class="edge">
<title>Node10&#45;&gt;Node11</title>
<path fill="none" stroke="#63b8ff" d="M1843.72,-511.86C1822.59,-502.05 1797.29,-490.32 1777.87,-481.31"/>
<polygon fill="#63b8ff" stroke="#63b8ff" points="1842.11,-514.97 1852.66,-516 1845.06,-508.62 1842.11,-514.97"/>
</g>
<!-- Node381 -->
<g id="node41" class="node">
<title>Node381</title>
<g id="a_node41"><a xlink:href="JAUInitializer_8cpp.html" target="_top" xlink:title=" ">
<polygon fill="white" stroke="#666666" points="1892.5,-415 1781.5,-415 1781.5,-385 1892.5,-385 1892.5,-415"/>
<text text-anchor="start" x="1789.5" y="-403" font-family="Helvetica,sans-Serif" font-size="10.00">libs/JSystem/JAudio2</text>
<text text-anchor="middle" x="1837" y="-392" font-family="Helvetica,sans-Serif" font-size="10.00">/JAUInitializer.cpp</text>
</a>
</g>
</g>
<!-- Node10&#45;&gt;Node381 -->
<g id="edge53" class="edge">
<title>Node10&#45;&gt;Node381</title>
<path fill="none" stroke="#63b8ff" d="M1870.91,-506.43C1866.71,-498.48 1862.34,-489.52 1859,-481 1850.27,-458.74 1843.61,-431.71 1840.01,-415.46"/>
<polygon fill="#63b8ff" stroke="#63b8ff" points="1867.83,-508.08 1875.69,-515.18 1873.97,-504.72 1867.83,-508.08"/>
</g>
<!-- Node382 -->
<g id="node42" class="node">
<title>Node382</title>
<g id="a_node42"><a xlink:href="JAISeq_8h.html" target="_top" xlink:title=" ">
<polygon fill="white" stroke="#666666" points="1994.5,-481 1867.5,-481 1867.5,-451 1994.5,-451 1994.5,-481"/>
<text text-anchor="start" x="1875.5" y="-469" font-family="Helvetica,sans-Serif" font-size="10.00">include/JSystem/JAudio2</text>
<text text-anchor="middle" x="1931" y="-458" font-family="Helvetica,sans-Serif" font-size="10.00">/JAISeq.h</text>
</a>
</g>
</g>
<!-- Node10&#45;&gt;Node382 -->
<g id="edge45" class="edge">
<title>Node10&#45;&gt;Node382</title>
<path fill="none" stroke="#63b8ff" d="M1901.76,-507.68C1908.15,-498.79 1915.23,-488.95 1920.82,-481.16"/>
<polygon fill="#63b8ff" stroke="#63b8ff" points="1899.09,-505.4 1896.09,-515.57 1904.77,-509.49 1899.09,-505.4"/>
</g>
<!-- Node384 -->
<g id="node44" class="node">
<title>Node384</title>
<g id="a_node44"><a xlink:href="JAISound_8cpp.html" target="_top" xlink:title=" ">
<polygon fill="white" stroke="#666666" points="2123.5,-481 2012.5,-481 2012.5,-451 2123.5,-451 2123.5,-481"/>
<text text-anchor="start" x="2020.5" y="-469" font-family="Helvetica,sans-Serif" font-size="10.00">libs/JSystem/JAudio2</text>
<text text-anchor="middle" x="2068" y="-458" font-family="Helvetica,sans-Serif" font-size="10.00">/JAISound.cpp</text>
</a>
</g>
</g>
<!-- Node10&#45;&gt;Node384 -->
<g id="edge48" class="edge">
<title>Node10&#45;&gt;Node384</title>
<path fill="none" stroke="#63b8ff" d="M1936.65,-512.94C1965.16,-502.97 2000.08,-490.75 2026.75,-481.43"/>
<polygon fill="#63b8ff" stroke="#63b8ff" points="1935.78,-509.53 1927.5,-516.14 1938.09,-516.14 1935.78,-509.53"/>
</g>
<!-- Node385 -->
<g id="node45" class="node">
<title>Node385</title>
<g id="a_node45"><a xlink:href="JAISoundChild_8cpp.html" target="_top" xlink:title=" ">
<polygon fill="white" stroke="#666666" points="2252.5,-481 2141.5,-481 2141.5,-451 2252.5,-451 2252.5,-481"/>
<text text-anchor="start" x="2149.5" y="-469" font-family="Helvetica,sans-Serif" font-size="10.00">libs/JSystem/JAudio2</text>
<text text-anchor="middle" x="2197" y="-458" font-family="Helvetica,sans-Serif" font-size="10.00">/JAISoundChild.cpp</text>
</a>
</g>
</g>
<!-- Node10&#45;&gt;Node385 -->
<g id="edge49" class="edge">
<title>Node10&#45;&gt;Node385</title>
<path fill="none" stroke="#63b8ff" d="M1959.96,-516.22C2009.19,-506.43 2074.98,-493.19 2133,-481 2135.67,-480.44 2138.4,-479.86 2141.16,-479.27"/>
<polygon fill="#63b8ff" stroke="#63b8ff" points="1959.38,-512.77 1950.26,-518.15 1960.75,-519.63 1959.38,-512.77"/>
</g>
<!-- Node386 -->
<g id="node46" class="node">
<title>Node386</title>
<g id="a_node46"><a xlink:href="JASSeqCtrl_8cpp.html" target="_top" xlink:title=" ">
<polygon fill="white" stroke="#666666" points="2381.5,-481 2270.5,-481 2270.5,-451 2381.5,-451 2381.5,-481"/>
<text text-anchor="start" x="2278.5" y="-469" font-family="Helvetica,sans-Serif" font-size="10.00">libs/JSystem/JAudio2</text>
<text text-anchor="middle" x="2326" y="-458" font-family="Helvetica,sans-Serif" font-size="10.00">/JASSeqCtrl.cpp</text>
</a>
</g>
</g>
<!-- Node10&#45;&gt;Node386 -->
<g id="edge50" class="edge">
<title>Node10&#45;&gt;Node386</title>
<path fill="none" stroke="#63b8ff" d="M1959.81,-516.81C2094.39,-496.54 2131.37,-502.97 2262,-481 2264.69,-480.55 2267.44,-480.06 2270.21,-479.54"/>
<polygon fill="#63b8ff" stroke="#63b8ff" points="1959.51,-513.31 1950.15,-518.29 1960.57,-520.23 1959.51,-513.31"/>
</g>
<!-- Node387 -->
<g id="node47" class="node">
<title>Node387</title>
<g id="a_node47"><a xlink:href="JASSeqParser_8cpp.html" target="_top" xlink:title=" ">
<polygon fill="white" stroke="#666666" points="2510.5,-481 2399.5,-481 2399.5,-451 2510.5,-451 2510.5,-481"/>
<text text-anchor="start" x="2407.5" y="-469" font-family="Helvetica,sans-Serif" font-size="10.00">libs/JSystem/JAudio2</text>
<text text-anchor="middle" x="2455" y="-458" font-family="Helvetica,sans-Serif" font-size="10.00">/JASSeqParser.cpp</text>
</a>
</g>
</g>
<!-- Node10&#45;&gt;Node387 -->
<g id="edge51" class="edge">
<title>Node10&#45;&gt;Node387</title>
<path fill="none" stroke="#63b8ff" d="M1959.94,-516.86C2151.3,-491.48 2203.67,-509.15 2391,-481 2393.7,-480.59 2396.46,-480.14 2399.23,-479.65"/>
<polygon fill="#63b8ff" stroke="#63b8ff" points="1959.58,-513.37 1950.14,-518.18 1960.51,-520.31 1959.58,-513.37"/>
</g>
<!-- Node388 -->
<g id="node48" class="node">
<title>Node388</title>
<g id="a_node48"><a xlink:href="JASTrack_8cpp.html" target="_top" xlink:title=" ">
<polygon fill="white" stroke="#666666" points="1665.5,-481 1554.5,-481 1554.5,-451 1665.5,-451 1665.5,-481"/>
<text text-anchor="start" x="1562.5" y="-469" font-family="Helvetica,sans-Serif" font-size="10.00">libs/JSystem/JAudio2</text>
<text text-anchor="middle" x="1610" y="-458" font-family="Helvetica,sans-Serif" font-size="10.00">/JASTrack.cpp</text>
</a>
</g>
</g>
<!-- Node10&#45;&gt;Node388 -->
<g id="edge52" class="edge">
<title>Node10&#45;&gt;Node388</title>
<path fill="none" stroke="#63b8ff" d="M1811.87,-513.98C1766.03,-503.31 1707.87,-489.78 1665.76,-479.98"/>
<polygon fill="#63b8ff" stroke="#63b8ff" points="1810.93,-517.36 1821.47,-516.21 1812.52,-510.54 1810.93,-517.36"/>
</g>
<!-- Node12 -->
<g id="node12" class="node">
<title>Node12</title>
<g id="a_node12"><a xlink:href="JAISeMgr_8h.html" target="_top" xlink:title=" ">
<polygon fill="white" stroke="#666666" points="1702.5,-415 1575.5,-415 1575.5,-385 1702.5,-385 1702.5,-415"/>
<text text-anchor="start" x="1583.5" y="-403" font-family="Helvetica,sans-Serif" font-size="10.00">include/JSystem/JAudio2</text>
<text text-anchor="middle" x="1639" y="-392" font-family="Helvetica,sans-Serif" font-size="10.00">/JAISeMgr.h</text>
</a>
</g>
</g>
<!-- Node11&#45;&gt;Node12 -->
<g id="edge12" class="edge">
<title>Node11&#45;&gt;Node12</title>
<path fill="none" stroke="#63b8ff" d="M1713.1,-444.91C1696.89,-435.31 1677.87,-424.03 1663.16,-415.31"/>
<polygon fill="#63b8ff" stroke="#63b8ff" points="1711.07,-447.78 1721.46,-449.87 1714.64,-441.76 1711.07,-447.78"/>
</g>
<!-- Node378 -->
<g id="node38" class="node">
<title>Node378</title>
<g id="a_node38"><a xlink:href="JAISe_8cpp.html" target="_top" xlink:title=" ">
<polygon fill="white" stroke="#666666" points="1823.5,-349 1712.5,-349 1712.5,-319 1823.5,-319 1823.5,-349"/>
<text text-anchor="start" x="1720.5" y="-337" font-family="Helvetica,sans-Serif" font-size="10.00">libs/JSystem/JAudio2</text>
<text text-anchor="middle" x="1768" y="-326" font-family="Helvetica,sans-Serif" font-size="10.00">/JAISe.cpp</text>
</a>
</g>
</g>
<!-- Node11&#45;&gt;Node378 -->
<g id="edge43" class="edge">
<title>Node11&#45;&gt;Node378</title>
<path fill="none" stroke="#63b8ff" d="M1751.14,-439.38C1755.48,-412.49 1762.16,-371.18 1765.66,-349.47"/>
<polygon fill="#63b8ff" stroke="#63b8ff" points="1747.71,-438.67 1749.57,-449.1 1754.62,-439.78 1747.71,-438.67"/>
</g>
<!-- Node11&#45;&gt;Node381 -->
<g id="edge44" class="edge">
<title>Node11&#45;&gt;Node381</title>
<path fill="none" stroke="#63b8ff" d="M1776.18,-444.25C1789.44,-434.82 1804.8,-423.9 1816.77,-415.39"/>
<polygon fill="#63b8ff" stroke="#63b8ff" points="1774.33,-441.27 1768.21,-449.92 1778.39,-446.98 1774.33,-441.27"/>
</g>
<!-- Node13 -->
<g id="node13" class="node">
<title>Node13</title>
<g id="a_node13"><a xlink:href="Z2SoundMgr_8h.html" target="_top" xlink:title=" ">
<polygon fill="white" stroke="#666666" points="1565,-349 1465,-349 1465,-319 1565,-319 1565,-349"/>
<text text-anchor="start" x="1473" y="-337" font-family="Helvetica,sans-Serif" font-size="10.00">include/Z2AudioLib</text>
<text text-anchor="middle" x="1515" y="-326" font-family="Helvetica,sans-Serif" font-size="10.00">/Z2SoundMgr.h</text>
</a>
</g>
</g>
<!-- Node12&#45;&gt;Node13 -->
<g id="edge13" class="edge">
<title>Node12&#45;&gt;Node13</title>
<path fill="none" stroke="#63b8ff" d="M1601.13,-379.45C1582.3,-369.73 1559.95,-358.2 1542.74,-349.31"/>
<polygon fill="#63b8ff" stroke="#63b8ff" points="1599.34,-382.47 1609.83,-383.94 1602.55,-376.25 1599.34,-382.47"/>
</g>
<!-- Node12&#45;&gt;Node378 -->
<g id="edge40" class="edge">
<title>Node12&#45;&gt;Node378</title>
<path fill="none" stroke="#63b8ff" d="M1678.13,-379.59C1697.77,-369.84 1721.16,-358.24 1739.15,-349.31"/>
<polygon fill="#63b8ff" stroke="#63b8ff" points="1676.71,-376.38 1669.31,-383.96 1679.82,-382.66 1676.71,-376.38"/>
</g>
<!-- Node379 -->
<g id="node39" class="node">
<title>Node379</title>
<g id="a_node39"><a xlink:href="JAISeMgr_8cpp.html" target="_top" xlink:title=" ">
<polygon fill="white" stroke="#666666" points="1694.5,-349 1583.5,-349 1583.5,-319 1694.5,-319 1694.5,-349"/>
<text text-anchor="start" x="1591.5" y="-337" font-family="Helvetica,sans-Serif" font-size="10.00">libs/JSystem/JAudio2</text>
<text text-anchor="middle" x="1639" y="-326" font-family="Helvetica,sans-Serif" font-size="10.00">/JAISeMgr.cpp</text>
</a>
</g>
</g>
<!-- Node12&#45;&gt;Node379 -->
<g id="edge41" class="edge">
<title>Node12&#45;&gt;Node379</title>
<path fill="none" stroke="#63b8ff" d="M1639,-373.39C1639,-365.13 1639,-356.28 1639,-349.16"/>
<polygon fill="#63b8ff" stroke="#63b8ff" points="1635.5,-373.28 1639,-383.28 1642.5,-373.28 1635.5,-373.28"/>
</g>
<!-- Node380 -->
<g id="node40" class="node">
<title>Node380</title>
<g id="a_node40"><a xlink:href="JAUAudioArcLoader_8cpp.html" target="_top" xlink:title=" ">
<polygon fill="white" stroke="#666666" points="1446.5,-349 1319.5,-349 1319.5,-319 1446.5,-319 1446.5,-349"/>
<text text-anchor="start" x="1327.5" y="-337" font-family="Helvetica,sans-Serif" font-size="10.00">libs/JSystem/JAudio2</text>
<text text-anchor="middle" x="1383" y="-326" font-family="Helvetica,sans-Serif" font-size="10.00">/JAUAudioArcLoader.cpp</text>
</a>
</g>
</g>
<!-- Node12&#45;&gt;Node380 -->
<g id="edge42" class="edge">
<title>Node12&#45;&gt;Node380</title>
<path fill="none" stroke="#63b8ff" d="M1570.09,-381.77C1529.57,-371.64 1478.93,-358.98 1440.56,-349.39"/>
<polygon fill="#63b8ff" stroke="#63b8ff" points="1569.21,-385.16 1579.76,-384.19 1570.91,-378.37 1569.21,-385.16"/>
</g>
<!-- Node14 -->
<g id="node14" class="node">
<title>Node14</title>
<g id="a_node14"><a xlink:href="Z2AudioMgr_8h.html" target="_top" xlink:title=" ">
<polygon fill="white" stroke="#666666" points="1327,-283 1227,-283 1227,-253 1327,-253 1327,-283"/>
<text text-anchor="start" x="1235" y="-271" font-family="Helvetica,sans-Serif" font-size="10.00">include/Z2AudioLib</text>
<text text-anchor="middle" x="1277" y="-260" font-family="Helvetica,sans-Serif" font-size="10.00">/Z2AudioMgr.h</text>
</a>
</g>
</g>
<!-- Node13&#45;&gt;Node14 -->
<g id="edge14" class="edge">
<title>Node13&#45;&gt;Node14</title>
<path fill="none" stroke="#63b8ff" d="M1453.53,-316.47C1414.35,-305.94 1364.22,-292.45 1327.4,-282.55"/>
<polygon fill="#63b8ff" stroke="#63b8ff" points="1452.5,-319.82 1463.06,-319.03 1454.32,-313.06 1452.5,-319.82"/>
</g>
<!-- Node375 -->
<g id="node35" class="node">
<title>Node375</title>
<g id="a_node35"><a xlink:href="Z2SceneMgr_8cpp.html" target="_top" xlink:title=" ">
<polygon fill="white" stroke="#666666" points="1506.5,-277.5 1345.5,-277.5 1345.5,-258.5 1506.5,-258.5 1506.5,-277.5"/>
<text text-anchor="middle" x="1426" y="-265.5" font-family="Helvetica,sans-Serif" font-size="10.00">libs/Z2AudioLib/Z2SceneMgr.cpp</text>
</a>
</g>
</g>
<!-- Node13&#45;&gt;Node375 -->
<g id="edge37" class="edge">
<title>Node13&#45;&gt;Node375</title>
<path fill="none" stroke="#63b8ff" d="M1486.16,-312.26C1469.96,-300.61 1450.6,-286.69 1438.3,-277.84"/>
<polygon fill="#63b8ff" stroke="#63b8ff" points="1483.86,-314.92 1494.02,-317.91 1487.94,-309.23 1483.86,-314.92"/>
</g>
<!-- Node376 -->
<g id="node36" class="node">
<title>Node376</title>
<g id="a_node36"><a xlink:href="Z2SoundMgr_8cpp.html" target="_top" xlink:title=" ">
<polygon fill="white" stroke="#666666" points="1685.5,-277.5 1524.5,-277.5 1524.5,-258.5 1685.5,-258.5 1685.5,-277.5"/>
<text text-anchor="middle" x="1605" y="-265.5" font-family="Helvetica,sans-Serif" font-size="10.00">libs/Z2AudioLib/Z2SoundMgr.cpp</text>
</a>
</g>
</g>
<!-- Node13&#45;&gt;Node376 -->
<g id="edge38" class="edge">
<title>Node13&#45;&gt;Node376</title>
<path fill="none" stroke="#63b8ff" d="M1544.17,-312.26C1560.54,-300.61 1580.12,-286.69 1592.56,-277.84"/>
<polygon fill="#63b8ff" stroke="#63b8ff" points="1542.33,-309.27 1536.21,-317.92 1546.39,-314.98 1542.33,-309.27"/>
</g>
<!-- Node377 -->
<g id="node37" class="node">
<title>Node377</title>
<g id="a_node37"><a xlink:href="Z2WolfHowlMgr_8cpp.html" target="_top" xlink:title=" ">
<polygon fill="white" stroke="#666666" points="1844,-283 1704,-283 1704,-253 1844,-253 1844,-283"/>
<text text-anchor="start" x="1712" y="-271" font-family="Helvetica,sans-Serif" font-size="10.00">libs/Z2AudioLib/Z2WolfHowl</text>
<text text-anchor="middle" x="1774" y="-260" font-family="Helvetica,sans-Serif" font-size="10.00">Mgr.cpp</text>
</a>
</g>
</g>
<!-- Node13&#45;&gt;Node377 -->
<g id="edge39" class="edge">
<title>Node13&#45;&gt;Node377</title>
<path fill="none" stroke="#63b8ff" d="M1576.22,-317.87C1618.43,-307.44 1674.2,-293.66 1715.75,-283.39"/>
<polygon fill="#63b8ff" stroke="#63b8ff" points="1575.58,-314.42 1566.71,-320.22 1577.26,-321.22 1575.58,-314.42"/>
</g>
<!-- Node15 -->
<g id="node15" class="node">
<title>Node15</title>
<g id="a_node15"><a xlink:href="m__Do__audio_8h.html" target="_top" xlink:title=" ">
<polygon fill="white" stroke="#666666" points="1264,-217 1124,-217 1124,-198 1264,-198 1264,-217"/>
<text text-anchor="middle" x="1194" y="-205" font-family="Helvetica,sans-Serif" font-size="10.00">include/m_Do/m_Do_audio.h</text>
</a>
</g>
</g>
<!-- Node14&#45;&gt;Node15 -->
<g id="edge15" class="edge">
<title>Node14&#45;&gt;Node15</title>
<path fill="none" stroke="#63b8ff" d="M1247.14,-245.95C1233.06,-236.03 1217.05,-224.74 1206.31,-217.18"/>
<polygon fill="#63b8ff" stroke="#63b8ff" points="1245.06,-248.77 1255.25,-251.67 1249.09,-243.05 1245.06,-248.77"/>
</g>
<!-- Node374 -->
<g id="node34" class="node">
<title>Node374</title>
<g id="a_node34"><a xlink:href="Z2AudioMgr_8cpp.html" target="_top" xlink:title=" ">
<polygon fill="white" stroke="#666666" points="1440,-217 1282,-217 1282,-198 1440,-198 1440,-217"/>
<text text-anchor="middle" x="1361" y="-205" font-family="Helvetica,sans-Serif" font-size="10.00">libs/Z2AudioLib/Z2AudioMgr.cpp</text>
</a>
</g>
</g>
<!-- Node14&#45;&gt;Node374 -->
<g id="edge36" class="edge">
<title>Node14&#45;&gt;Node374</title>
<path fill="none" stroke="#63b8ff" d="M1306.81,-246.24C1321.15,-236.25 1337.57,-224.82 1348.54,-217.18"/>
<polygon fill="#63b8ff" stroke="#63b8ff" points="1305.21,-243.09 1299.01,-251.67 1309.21,-248.83 1305.21,-243.09"/>
</g>
<!-- Node16 -->
<g id="node16" class="node">
<title>Node16</title>
<g id="a_node16"><a xlink:href="m__Do__ext_8h.html" target="_top" xlink:title=" ">
<polygon fill="#fff0f0" stroke="red" points="520,-156.5 390,-156.5 390,-137.5 520,-137.5 520,-156.5"/>
<text text-anchor="middle" x="455" y="-144.5" font-family="Helvetica,sans-Serif" font-size="10.00">include/m_Do/m_Do_ext.h</text>
</a>
</g>
</g>
<!-- Node15&#45;&gt;Node16 -->
<g id="edge16" class="edge">
<title>Node15&#45;&gt;Node16</title>
<path fill="none" stroke="#63b8ff" d="M1112.6,-200.06C964.9,-188.36 655.56,-163.88 520.46,-153.18"/>
<polygon fill="#63b8ff" stroke="#63b8ff" points="1112.06,-203.52 1122.3,-200.82 1112.61,-196.55 1112.06,-203.52"/>
</g>
<!-- Node63 -->
<g id="node22" class="node">
<title>Node63</title>
<g id="a_node22"><a xlink:href="d__kankyo_8cpp.html" target="_top" xlink:title=" ">
<polygon fill="white" stroke="#666666" points="746,-24.5 612,-24.5 612,-5.5 746,-5.5 746,-24.5"/>
<text text-anchor="middle" x="679" y="-12.5" font-family="Helvetica,sans-Serif" font-size="10.00">src/d/kankyo/d_kankyo.cpp</text>
</a>
</g>
</g>
<!-- Node15&#45;&gt;Node63 -->
<g id="edge28" class="edge">
<title>Node15&#45;&gt;Node63</title>
<path fill="none" stroke="#63b8ff" d="M1112.22,-205.46C1014.09,-202.78 856.67,-193.53 808,-162 766.36,-135.02 784.82,-102.31 751,-66 734.82,-48.63 711.62,-33.86 695.97,-24.97"/>
<polygon fill="#63b8ff" stroke="#63b8ff" points="1111.99,-208.95 1122.08,-205.71 1112.17,-201.95 1111.99,-208.95"/>
</g>
<!-- Node177 -->
<g id="node23" class="node">
<title>Node177</title>
<g id="a_node23"><a xlink:href="d__kankyo__wether_8cpp.html" target="_top" xlink:title=" ">
<polygon fill="white" stroke="#666666" points="880,-30 764,-30 764,0 880,0 880,-30"/>
<text text-anchor="start" x="772" y="-18" font-family="Helvetica,sans-Serif" font-size="10.00">src/d/kankyo/d_kankyo</text>
<text text-anchor="middle" x="822" y="-7" font-family="Helvetica,sans-Serif" font-size="10.00">_wether.cpp</text>
</a>
</g>
</g>
<!-- Node15&#45;&gt;Node177 -->
<g id="edge29" class="edge">
<title>Node15&#45;&gt;Node177</title>
<path fill="none" stroke="#63b8ff" d="M1112.62,-202.16C1010.4,-195.88 845.97,-182.69 827,-162 793.4,-125.36 808.32,-59.24 817.16,-30.26"/>
<polygon fill="#63b8ff" stroke="#63b8ff" points="1112.14,-205.64 1122.34,-202.75 1112.57,-198.65 1112.14,-205.64"/>
</g>
<!-- Node21 -->
<g id="node25" class="node">
<title>Node21</title>
<g id="a_node25"><a xlink:href="d__com__inf__game_8cpp.html" target="_top" xlink:title=" ">
<polygon fill="white" stroke="#666666" points="944,-162 836,-162 836,-132 944,-132 944,-162"/>
<text text-anchor="start" x="844" y="-150" font-family="Helvetica,sans-Serif" font-size="10.00">src/d/com/d_com_inf</text>
<text text-anchor="middle" x="890" y="-139" font-family="Helvetica,sans-Serif" font-size="10.00">_game.cpp</text>
</a>
</g>
</g>
<!-- Node15&#45;&gt;Node21 -->
<g id="edge25" class="edge">
<title>Node15&#45;&gt;Node21</title>
<path fill="none" stroke="#63b8ff" d="M1131.35,-195.57C1082.63,-186.92 1013.41,-174.29 953,-162 950.15,-161.42 947.22,-160.81 944.27,-160.19"/>
<polygon fill="#63b8ff" stroke="#63b8ff" points="1130.7,-199.01 1141.16,-197.31 1131.92,-192.12 1130.7,-199.01"/>
</g>
<!-- Node163 -->
<g id="node26" class="node">
<title>Node163</title>
<g id="a_node26"><a xlink:href="d__name_8cpp.html" target="_top" xlink:title=" ">
<polygon fill="white" stroke="#666666" points="1056,-156.5 962,-156.5 962,-137.5 1056,-137.5 1056,-156.5"/>
<text text-anchor="middle" x="1009" y="-144.5" font-family="Helvetica,sans-Serif" font-size="10.00">src/d/d_name.cpp</text>
</a>
</g>
</g>
<!-- Node15&#45;&gt;Node163 -->
<g id="edge26" class="edge">
<title>Node15&#45;&gt;Node163</title>
<path fill="none" stroke="#63b8ff" d="M1155.07,-194.19C1119.86,-183.06 1068.85,-166.92 1037.36,-156.97"/>
<polygon fill="#63b8ff" stroke="#63b8ff" points="1153.87,-197.48 1164.46,-197.16 1155.98,-190.81 1153.87,-197.48"/>
</g>
<!-- Node173 -->
<g id="node27" class="node">
<title>Node173</title>
<g id="a_node27"><a xlink:href="d__event__manager_8cpp.html" target="_top" xlink:title=" ">
<polygon fill="white" stroke="#666666" points="1177.5,-162 1074.5,-162 1074.5,-132 1177.5,-132 1177.5,-162"/>
<text text-anchor="start" x="1082.5" y="-150" font-family="Helvetica,sans-Serif" font-size="10.00">src/d/event/d_event</text>
<text text-anchor="middle" x="1126" y="-139" font-family="Helvetica,sans-Serif" font-size="10.00">_manager.cpp</text>
</a>
</g>
</g>
<!-- Node15&#45;&gt;Node173 -->
<g id="edge27" class="edge">
<title>Node15&#45;&gt;Node173</title>
<path fill="none" stroke="#63b8ff" d="M1175.13,-190.27C1164.99,-181.54 1152.59,-170.87 1142.78,-162.44"/>
<polygon fill="#63b8ff" stroke="#63b8ff" points="1172.66,-192.76 1182.52,-196.63 1177.23,-187.45 1172.66,-192.76"/>
</g>
<!-- Node25 -->
<g id="node28" class="node">
<title>Node25</title>
<g id="a_node28"><a xlink:href="d__msg__flow_8cpp.html" target="_top" xlink:title=" ">
<polygon fill="white" stroke="#666666" points="1328.5,-156.5 1195.5,-156.5 1195.5,-137.5 1328.5,-137.5 1328.5,-156.5"/>
<text text-anchor="middle" x="1262" y="-144.5" font-family="Helvetica,sans-Serif" font-size="10.00">src/d/msg/d_msg_flow.cpp</text>
</a>
</g>
</g>
<!-- Node15&#45;&gt;Node25 -->
<g id="edge30" class="edge">
<title>Node15&#45;&gt;Node25</title>
<path fill="none" stroke="#63b8ff" d="M1212.7,-190.41C1225.23,-179.64 1241.25,-165.85 1251.58,-156.97"/>
<polygon fill="#63b8ff" stroke="#63b8ff" points="1210.77,-187.45 1205.48,-196.63 1215.34,-192.76 1210.77,-187.45"/>
</g>
<!-- Node193 -->
<g id="node29" class="node">
<title>Node193</title>
<g id="a_node29"><a xlink:href="d__s__name_8cpp.html" target="_top" xlink:title=" ">
<polygon fill="white" stroke="#666666" points="1459.5,-156.5 1346.5,-156.5 1346.5,-137.5 1459.5,-137.5 1459.5,-156.5"/>
<text text-anchor="middle" x="1403" y="-144.5" font-family="Helvetica,sans-Serif" font-size="10.00">src/d/s/d_s_name.cpp</text>
</a>
</g>
</g>
<!-- Node15&#45;&gt;Node193 -->
<g id="edge31" class="edge">
<title>Node15&#45;&gt;Node193</title>
<path fill="none" stroke="#63b8ff" d="M1236.69,-194.55C1276.51,-183.41 1335,-167.03 1370.96,-156.97"/>
<polygon fill="#63b8ff" stroke="#63b8ff" points="1235.89,-191.14 1227.2,-197.21 1237.77,-197.88 1235.89,-191.14"/>
</g>
<!-- Node69 -->
<g id="node30" class="node">
<title>Node69</title>
<g id="a_node30"><a xlink:href="d__s__play_8cpp.html" target="_top" xlink:title=" ">
<polygon fill="white" stroke="#666666" points="1584,-156.5 1478,-156.5 1478,-137.5 1584,-137.5 1584,-156.5"/>
<text text-anchor="middle" x="1531" y="-144.5" font-family="Helvetica,sans-Serif" font-size="10.00">src/d/s/d_s_play.cpp</text>
</a>
</g>
</g>
<!-- Node15&#45;&gt;Node69 -->
<g id="edge32" class="edge">
<title>Node15&#45;&gt;Node69</title>
<path fill="none" stroke="#63b8ff" d="M1266.77,-195.85C1322.1,-187.47 1400.04,-175.06 1468,-162 1475.92,-160.48 1484.37,-158.7 1492.42,-156.94"/>
<polygon fill="#63b8ff" stroke="#63b8ff" points="1266.53,-192.35 1257.16,-197.3 1267.57,-199.27 1266.53,-192.35"/>
</g>
<!-- Node30 -->
<g id="node31" class="node">
<title>Node30</title>
<g id="a_node31"><a xlink:href="d__shop__system_8cpp.html" target="_top" xlink:title=" ">
<polygon fill="white" stroke="#666666" points="1754,-156.5 1602,-156.5 1602,-137.5 1754,-137.5 1754,-156.5"/>
<text text-anchor="middle" x="1678" y="-144.5" font-family="Helvetica,sans-Serif" font-size="10.00">src/d/shop/d_shop_system.cpp</text>
</a>
</g>
</g>
<!-- Node15&#45;&gt;Node30 -->
<g id="edge33" class="edge">
<title>Node15&#45;&gt;Node30</title>
<path fill="none" stroke="#63b8ff" d="M1275.4,-197.65C1382.94,-185.93 1562.41,-166.22 1593,-162 1603.82,-160.51 1615.37,-158.73 1626.37,-156.95"/>
<polygon fill="#63b8ff" stroke="#63b8ff" points="1275.32,-194.14 1265.76,-198.7 1276.08,-201.1 1275.32,-194.14"/>
</g>
<!-- Node373 -->
<g id="node32" class="node">
<title>Node373</title>
<g id="a_node32"><a xlink:href="m__Do__Reset_8cpp.html" target="_top" xlink:title=" ">
<polygon fill="white" stroke="#666666" points="1908,-156.5 1772,-156.5 1772,-137.5 1908,-137.5 1908,-156.5"/>
<text text-anchor="middle" x="1840" y="-144.5" font-family="Helvetica,sans-Serif" font-size="10.00">src/m_Do/m_Do_Reset.cpp</text>
</a>
</g>
</g>
<!-- Node15&#45;&gt;Node373 -->
<g id="edge34" class="edge">
<title>Node15&#45;&gt;Node373</title>
<path fill="none" stroke="#63b8ff" d="M1275.65,-197.8C1492.43,-178.69 1550.08,-189.1 1763,-162 1773.51,-160.66 1784.77,-158.84 1795.34,-156.95"/>
<polygon fill="#63b8ff" stroke="#63b8ff" points="1275.36,-194.31 1265.71,-198.69 1275.98,-201.28 1275.36,-194.31"/>
</g>
<!-- Node200 -->
<g id="node33" class="node">
<title>Node200</title>
<g id="a_node33"><a xlink:href="m__Do__audio_8cpp.html" target="_top" xlink:title=" ">
<polygon fill="white" stroke="#666666" points="2060,-156.5 1926,-156.5 1926,-137.5 2060,-137.5 2060,-156.5"/>
<text text-anchor="middle" x="1993" y="-144.5" font-family="Helvetica,sans-Serif" font-size="10.00">src/m_Do/m_Do_audio.cpp</text>
</a>
</g>
</g>
<!-- Node15&#45;&gt;Node200 -->
<g id="edge35" class="edge">
<title>Node15&#45;&gt;Node200</title>
<path fill="none" stroke="#63b8ff" d="M1275.3,-197.86C1560.62,-175.19 1635.97,-195.6 1917,-162 1927.66,-160.73 1939.08,-158.88 1949.74,-156.95"/>
<polygon fill="#63b8ff" stroke="#63b8ff" points="1275.39,-194.34 1265.7,-198.64 1275.95,-201.32 1275.39,-194.34"/>
</g>
<!-- Node17 -->
<g id="node17" class="node">
<title>Node17</title>
<g id="a_node17"><a xlink:href="d__attention_8h.html" target="_top" xlink:title=" ">
<polygon fill="#fff0f0" stroke="red" points="512,-90.5 398,-90.5 398,-71.5 512,-71.5 512,-90.5"/>
<text text-anchor="middle" x="455" y="-78.5" font-family="Helvetica,sans-Serif" font-size="10.00">include/d/d_attention.h</text>
</a>
</g>
</g>
<!-- Node16&#45;&gt;Node17 -->
<g id="edge17" class="edge">
<title>Node16&#45;&gt;Node17</title>
<path fill="none" stroke="#63b8ff" d="M455,-125.68C455,-113.94 455,-99.77 455,-90.82"/>
<polygon fill="#63b8ff" stroke="#63b8ff" points="451.5,-125.59 455,-135.59 458.5,-125.59 451.5,-125.59"/>
</g>
<!-- Node208 -->
<g id="node18" class="node">
<title>Node208</title>
<g id="a_node18"><a xlink:href="d__drawlist_8h.html" target="_top" xlink:title=" ">
<polygon fill="#fff0f0" stroke="red" points="110,-90.5 0,-90.5 0,-71.5 110,-71.5 110,-90.5"/>
<text text-anchor="middle" x="55" y="-78.5" font-family="Helvetica,sans-Serif" font-size="10.00">include/d/d_drawlist.h</text>
</a>
</g>
</g>
<!-- Node16&#45;&gt;Node208 -->
<g id="edge18" class="edge">
<title>Node16&#45;&gt;Node208</title>
<path fill="none" stroke="#63b8ff" d="M378.67,-136.14C310.41,-126.97 207.74,-112.29 119,-96 110.83,-94.5 102.12,-92.72 93.84,-90.94"/>
<polygon fill="#63b8ff" stroke="#63b8ff" points="377.87,-139.56 388.24,-137.42 378.8,-132.63 377.87,-139.56"/>
</g>
<!-- Node251 -->
<g id="node19" class="node">
<title>Node251</title>
<g id="a_node19"><a xlink:href="d__ky__thunder_8h.html" target="_top" xlink:title=" ">
<polygon fill="#fff0f0" stroke="red" points="252,-90.5 128,-90.5 128,-71.5 252,-71.5 252,-90.5"/>
<text text-anchor="middle" x="190" y="-78.5" font-family="Helvetica,sans-Serif" font-size="10.00">include/d/d_ky_thunder.h</text>
</a>
</g>
</g>
<!-- Node16&#45;&gt;Node251 -->
<g id="edge19" class="edge">
<title>Node16&#45;&gt;Node251</title>
<path fill="none" stroke="#63b8ff" d="M406.98,-134.4C355.19,-121.89 273.86,-102.25 226.87,-90.91"/>
<polygon fill="#63b8ff" stroke="#63b8ff" points="405.86,-137.73 416.4,-136.68 407.5,-130.93 405.86,-137.73"/>
</g>
<!-- Node252 -->
<g id="node20" class="node">
<title>Node252</title>
<g id="a_node20"><a xlink:href="d__resorce_8h.html" target="_top" xlink:title=" ">
<polygon fill="#fff0f0" stroke="red" points="379.5,-90.5 270.5,-90.5 270.5,-71.5 379.5,-71.5 379.5,-90.5"/>
<text text-anchor="middle" x="325" y="-78.5" font-family="Helvetica,sans-Serif" font-size="10.00">include/d/d_resorce.h</text>
</a>
</g>
</g>
<!-- Node16&#45;&gt;Node252 -->
<g id="edge20" class="edge">
<title>Node16&#45;&gt;Node252</title>
<path fill="none" stroke="#63b8ff" d="M426.77,-132.1C401.29,-119.56 364.58,-101.49 342.92,-90.82"/>
<polygon fill="#63b8ff" stroke="#63b8ff" points="425.05,-135.16 435.57,-136.43 428.14,-128.88 425.05,-135.16"/>
</g>
<!-- Node253 -->
<g id="node21" class="node">
<title>Node253</title>
<g id="a_node21"><a xlink:href="d__kankyo_8h.html" target="_top" xlink:title=" ">
<polygon fill="#fff0f0" stroke="red" points="742,-96 644,-96 644,-66 742,-66 742,-96"/>
<text text-anchor="start" x="652" y="-84" font-family="Helvetica,sans-Serif" font-size="10.00">include/d/kankyo/d</text>
<text text-anchor="middle" x="693" y="-73" font-family="Helvetica,sans-Serif" font-size="10.00">_kankyo.h</text>
</a>
</g>
</g>
<!-- Node16&#45;&gt;Node253 -->
<g id="edge21" class="edge">
<title>Node16&#45;&gt;Node253</title>
<path fill="none" stroke="#63b8ff" d="M499.36,-134.07C540.38,-123.04 601.25,-106.67 643.76,-95.24"/>
<polygon fill="#63b8ff" stroke="#63b8ff" points="498.55,-130.66 489.81,-136.64 500.37,-137.42 498.55,-130.66"/>
</g>
<!-- Node212 -->
<g id="node24" class="node">
<title>Node212</title>
<g id="a_node24"><a xlink:href="d__a__do_8h.html" target="_top" xlink:title=" ">
<polygon fill="white" stroke="#666666" points="626,-96 530,-96 530,-66 626,-66 626,-96"/>
<text text-anchor="start" x="538" y="-84" font-family="Helvetica,sans-Serif" font-size="10.00">include/rel/d/a/d_a</text>
<text text-anchor="middle" x="578" y="-73" font-family="Helvetica,sans-Serif" font-size="10.00">_do/d_a_do.h</text>
</a>
</g>
</g>
<!-- Node16&#45;&gt;Node212 -->
<g id="edge24" class="edge">
<title>Node16&#45;&gt;Node212</title>
<path fill="none" stroke="#63b8ff" d="M482.2,-131.85C502.4,-121.34 529.84,-107.06 550.18,-96.48"/>
<polygon fill="#63b8ff" stroke="#63b8ff" points="480.7,-128.68 473.45,-136.4 483.93,-134.89 480.7,-128.68"/>
</g>
<!-- Node253&#45;&gt;Node63 -->
<g id="edge22" class="edge">
<title>Node253&#45;&gt;Node63</title>
<path fill="none" stroke="#63b8ff" d="M687.44,-54.59C685.14,-44.06 682.62,-32.53 680.93,-24.84"/>
<polygon fill="#63b8ff" stroke="#63b8ff" points="684.01,-55.3 689.57,-64.32 690.85,-53.8 684.01,-55.3"/>
</g>
<!-- Node253&#45;&gt;Node177 -->
<g id="edge23" class="edge">
<title>Node253&#45;&gt;Node177</title>
<path fill="none" stroke="#63b8ff" d="M732.13,-60.59C751.77,-50.84 775.16,-39.24 793.15,-30.31"/>
<polygon fill="#63b8ff" stroke="#63b8ff" points="730.71,-57.38 723.31,-64.96 733.82,-63.66 730.71,-57.38"/>
</g>
<!-- Node382&#45;&gt;Node381 -->
<g id="edge47" class="edge">
<title>Node382&#45;&gt;Node381</title>
<path fill="none" stroke="#63b8ff" d="M1900.93,-444.52C1886.98,-435.03 1870.75,-423.98 1858.13,-415.39"/>
<polygon fill="#63b8ff" stroke="#63b8ff" points="1898.65,-447.21 1908.89,-449.94 1902.59,-441.42 1898.65,-447.21"/>
</g>
<!-- Node383 -->
<g id="node43" class="node">
<title>Node383</title>
<g id="a_node43"><a xlink:href="JAISeq_8cpp.html" target="_top" xlink:title=" ">
<polygon fill="white" stroke="#666666" points="2021.5,-415 1910.5,-415 1910.5,-385 2021.5,-385 2021.5,-415"/>
<text text-anchor="start" x="1918.5" y="-403" font-family="Helvetica,sans-Serif" font-size="10.00">libs/JSystem/JAudio2</text>
<text text-anchor="middle" x="1966" y="-392" font-family="Helvetica,sans-Serif" font-size="10.00">/JAISeq.cpp</text>
</a>
</g>
</g>
<!-- Node382&#45;&gt;Node383 -->
<g id="edge46" class="edge">
<title>Node382&#45;&gt;Node383</title>
<path fill="none" stroke="#63b8ff" d="M1944.22,-440.83C1948.95,-432.17 1954.13,-422.7 1958.25,-415.16"/>
<polygon fill="#63b8ff" stroke="#63b8ff" points="1941.22,-439.02 1939.49,-449.47 1947.36,-442.37 1941.22,-439.02"/>
</g>
<!-- Node389&#45;&gt;Node7 -->
<g id="edge55" class="edge">
<title>Node389&#45;&gt;Node7</title>
<path fill="none" stroke="#63b8ff" d="M1483.4,-505.39C1482.88,-497.13 1482.33,-488.28 1481.89,-481.16"/>
<polygon fill="#63b8ff" stroke="#63b8ff" points="1479.9,-505.52 1484.02,-515.29 1486.89,-505.09 1479.9,-505.52"/>
</g>
</g>
</svg>
