<?xml version="1.0" encoding="UTF-8" standalone="no"?>
<!DOCTYPE svg PUBLIC "-//W3C//DTD SVG 1.1//EN"
 "http://www.w3.org/Graphics/SVG/1.1/DTD/svg11.dtd">
<!-- Generated by graphviz version 7.0.5 (20221223.1930)
 -->
<!-- Title: include/JSystem/JAudio2/JASOscillator.h Pages: 1 -->
<svg width="2218pt" height="489pt"
 viewBox="0.00 0.00 2217.50 489.00" xmlns="http://www.w3.org/2000/svg" xmlns:xlink="http://www.w3.org/1999/xlink">
<g id="graph0" class="graph" transform="scale(1 1) rotate(0) translate(4 485)">
<title>include/JSystem/JAudio2/JASOscillator.h</title>
<!-- Node1 -->
<g id="node1" class="node">
<title>Node1</title>
<g id="a_node1"><a xlink:title=" ">
<polygon fill="#999999" stroke="#666666" points="1049.5,-481 922.5,-481 922.5,-451 1049.5,-451 1049.5,-481"/>
<text text-anchor="start" x="930.5" y="-469" font-family="Helvetica,sans-Serif" font-size="10.00">include/JSystem/JAudio2</text>
<text text-anchor="middle" x="986" y="-458" font-family="Helvetica,sans-Serif" font-size="10.00">/JASOscillator.h</text>
</a>
</g>
</g>
<!-- Node2 -->
<g id="node2" class="node">
<title>Node2</title>
<g id="a_node2"><a xlink:href="JASBNKParser_8h.html" target="_top" xlink:title=" ">
<polygon fill="white" stroke="#666666" points="574.5,-415 447.5,-415 447.5,-385 574.5,-385 574.5,-415"/>
<text text-anchor="start" x="455.5" y="-403" font-family="Helvetica,sans-Serif" font-size="10.00">include/JSystem/JAudio2</text>
<text text-anchor="middle" x="511" y="-392" font-family="Helvetica,sans-Serif" font-size="10.00">/JASBNKParser.h</text>
</a>
</g>
</g>
<!-- Node1&#45;&gt;Node2 -->
<g id="edge1" class="edge">
<title>Node1&#45;&gt;Node2</title>
<path fill="none" stroke="#63b8ff" d="M911.21,-457.27C830.13,-448.54 697.05,-433.14 583,-415 580.36,-414.58 577.67,-414.13 574.95,-413.67"/>
<polygon fill="#63b8ff" stroke="#63b8ff" points="910.47,-460.71 920.79,-458.3 911.22,-453.75 910.47,-460.71"/>
</g>
<!-- Node5 -->
<g id="node5" class="node">
<title>Node5</title>
<g id="a_node5"><a xlink:href="JASBasicInst_8h.html" target="_top" xlink:title=" ">
<polygon fill="white" stroke="#666666" points="977.5,-415 850.5,-415 850.5,-385 977.5,-385 977.5,-415"/>
<text text-anchor="start" x="858.5" y="-403" font-family="Helvetica,sans-Serif" font-size="10.00">include/JSystem/JAudio2</text>
<text text-anchor="middle" x="914" y="-392" font-family="Helvetica,sans-Serif" font-size="10.00">/JASBasicInst.h</text>
</a>
</g>
</g>
<!-- Node1&#45;&gt;Node5 -->
<g id="edge4" class="edge">
<title>Node1&#45;&gt;Node5</title>
<path fill="none" stroke="#63b8ff" d="M961.72,-443.42C951.33,-434.18 939.48,-423.65 930.18,-415.39"/>
<polygon fill="#63b8ff" stroke="#63b8ff" points="959.09,-445.76 968.89,-449.79 963.74,-440.53 959.09,-445.76"/>
</g>
<!-- Node11 -->
<g id="node11" class="node">
<title>Node11</title>
<g id="a_node11"><a xlink:href="JASChannel_8h.html" target="_top" xlink:title=" ">
<polygon fill="white" stroke="#666666" points="1122.5,-415 995.5,-415 995.5,-385 1122.5,-385 1122.5,-415"/>
<text text-anchor="start" x="1003.5" y="-403" font-family="Helvetica,sans-Serif" font-size="10.00">include/JSystem/JAudio2</text>
<text text-anchor="middle" x="1059" y="-392" font-family="Helvetica,sans-Serif" font-size="10.00">/JASChannel.h</text>
</a>
</g>
</g>
<!-- Node1&#45;&gt;Node11 -->
<g id="edge10" class="edge">
<title>Node1&#45;&gt;Node11</title>
<path fill="none" stroke="#63b8ff" d="M1010.61,-443.42C1021.15,-434.18 1033.17,-423.65 1042.59,-415.39"/>
<polygon fill="#63b8ff" stroke="#63b8ff" points="1008.55,-440.57 1003.34,-449.8 1013.17,-445.84 1008.55,-440.57"/>
</g>
<!-- Node13 -->
<g id="node13" class="node">
<title>Node13</title>
<g id="a_node13"><a xlink:href="JASTrack_8h.html" target="_top" xlink:title=" ">
<polygon fill="white" stroke="#666666" points="1632.5,-415 1505.5,-415 1505.5,-385 1632.5,-385 1632.5,-415"/>
<text text-anchor="start" x="1513.5" y="-403" font-family="Helvetica,sans-Serif" font-size="10.00">include/JSystem/JAudio2</text>
<text text-anchor="middle" x="1569" y="-392" font-family="Helvetica,sans-Serif" font-size="10.00">/JASTrack.h</text>
</a>
</g>
</g>
<!-- Node1&#45;&gt;Node13 -->
<g id="edge13" class="edge">
<title>Node1&#45;&gt;Node13</title>
<path fill="none" stroke="#63b8ff" d="M1060.98,-456.77C1176.68,-444.07 1396.68,-419.92 1505.21,-408"/>
<polygon fill="#63b8ff" stroke="#63b8ff" points="1060.84,-453.26 1051.28,-457.83 1061.61,-460.22 1060.84,-453.26"/>
</g>
<!-- Node498 -->
<g id="node49" class="node">
<title>Node498</title>
<g id="a_node49"><a xlink:href="JASVoiceBank_8h.html" target="_top" xlink:title=" ">
<polygon fill="white" stroke="#666666" points="719.5,-415 592.5,-415 592.5,-385 719.5,-385 719.5,-415"/>
<text text-anchor="start" x="600.5" y="-403" font-family="Helvetica,sans-Serif" font-size="10.00">include/JSystem/JAudio2</text>
<text text-anchor="middle" x="656" y="-392" font-family="Helvetica,sans-Serif" font-size="10.00">/JASVoiceBank.h</text>
</a>
</g>
</g>
<!-- Node1&#45;&gt;Node498 -->
<g id="edge52" class="edge">
<title>Node1&#45;&gt;Node498</title>
<path fill="none" stroke="#63b8ff" d="M911.14,-450.48C853.51,-439.31 774.71,-424.02 719.99,-413.41"/>
<polygon fill="#63b8ff" stroke="#63b8ff" points="910.4,-453.9 920.89,-452.37 911.74,-447.03 910.4,-453.9"/>
</g>
<!-- Node499 -->
<g id="node50" class="node">
<title>Node499</title>
<g id="a_node50"><a xlink:href="JASOscillator_8cpp.html" target="_top" xlink:title=" ">
<polygon fill="white" stroke="#666666" points="1761.5,-415 1650.5,-415 1650.5,-385 1761.5,-385 1761.5,-415"/>
<text text-anchor="start" x="1658.5" y="-403" font-family="Helvetica,sans-Serif" font-size="10.00">libs/JSystem/JAudio2</text>
<text text-anchor="middle" x="1706" y="-392" font-family="Helvetica,sans-Serif" font-size="10.00">/JASOscillator.cpp</text>
</a>
</g>
</g>
<!-- Node1&#45;&gt;Node499 -->
<g id="edge55" class="edge">
<title>Node1&#45;&gt;Node499</title>
<path fill="none" stroke="#63b8ff" d="M1061.08,-462.68C1183.37,-458.13 1432.9,-445.69 1642,-415 1644.7,-414.6 1647.46,-414.16 1650.24,-413.68"/>
<polygon fill="#63b8ff" stroke="#63b8ff" points="1061.03,-459.18 1051.16,-463.04 1061.28,-466.17 1061.03,-459.18"/>
</g>
<!-- Node3 -->
<g id="node3" class="node">
<title>Node3</title>
<g id="a_node3"><a xlink:href="JASBNKParser_8cpp.html" target="_top" xlink:title=" ">
<polygon fill="white" stroke="#666666" points="443.5,-349 332.5,-349 332.5,-319 443.5,-319 443.5,-349"/>
<text text-anchor="start" x="340.5" y="-337" font-family="Helvetica,sans-Serif" font-size="10.00">libs/JSystem/JAudio2</text>
<text text-anchor="middle" x="388" y="-326" font-family="Helvetica,sans-Serif" font-size="10.00">/JASBNKParser.cpp</text>
</a>
</g>
</g>
<!-- Node2&#45;&gt;Node3 -->
<g id="edge2" class="edge">
<title>Node2&#45;&gt;Node3</title>
<path fill="none" stroke="#63b8ff" d="M473.43,-379.45C454.75,-369.73 432.59,-358.2 415.51,-349.31"/>
<polygon fill="#63b8ff" stroke="#63b8ff" points="471.57,-382.43 482.05,-383.94 474.8,-376.22 471.57,-382.43"/>
</g>
<!-- Node4 -->
<g id="node4" class="node">
<title>Node4</title>
<g id="a_node4"><a xlink:href="JAUSectionHeap_8cpp.html" target="_top" xlink:title=" ">
<polygon fill="white" stroke="#666666" points="574.5,-349 461.5,-349 461.5,-319 574.5,-319 574.5,-349"/>
<text text-anchor="start" x="469.5" y="-337" font-family="Helvetica,sans-Serif" font-size="10.00">libs/JSystem/JAudio2</text>
<text text-anchor="middle" x="518" y="-326" font-family="Helvetica,sans-Serif" font-size="10.00">/JAUSectionHeap.cpp</text>
</a>
</g>
</g>
<!-- Node2&#45;&gt;Node4 -->
<g id="edge3" class="edge">
<title>Node2&#45;&gt;Node4</title>
<path fill="none" stroke="#63b8ff" d="M513.8,-373.39C514.7,-365.13 515.67,-356.28 516.45,-349.16"/>
<polygon fill="#63b8ff" stroke="#63b8ff" points="510.33,-372.97 512.72,-383.29 517.28,-373.73 510.33,-372.97"/>
</g>
<!-- Node6 -->
<g id="node6" class="node">
<title>Node6</title>
<g id="a_node6"><a xlink:href="JASDrumSet_8h.html" target="_top" xlink:title=" ">
<polygon fill="white" stroke="#666666" points="848.5,-349 721.5,-349 721.5,-319 848.5,-319 848.5,-349"/>
<text text-anchor="start" x="729.5" y="-337" font-family="Helvetica,sans-Serif" font-size="10.00">include/JSystem/JAudio2</text>
<text text-anchor="middle" x="785" y="-326" font-family="Helvetica,sans-Serif" font-size="10.00">/JASDrumSet.h</text>
</a>
</g>
</g>
<!-- Node5&#45;&gt;Node6 -->
<g id="edge5" class="edge">
<title>Node5&#45;&gt;Node6</title>
<path fill="none" stroke="#63b8ff" d="M874.87,-379.59C855.23,-369.84 831.84,-358.24 813.85,-349.31"/>
<polygon fill="#63b8ff" stroke="#63b8ff" points="873.18,-382.66 883.69,-383.96 876.29,-376.38 873.18,-382.66"/>
</g>
<!-- Node8 -->
<g id="node8" class="node">
<title>Node8</title>
<g id="a_node8"><a xlink:href="JASBank_8cpp.html" target="_top" xlink:title=" ">
<polygon fill="white" stroke="#666666" points="1106.5,-349 995.5,-349 995.5,-319 1106.5,-319 1106.5,-349"/>
<text text-anchor="start" x="1003.5" y="-337" font-family="Helvetica,sans-Serif" font-size="10.00">libs/JSystem/JAudio2</text>
<text text-anchor="middle" x="1051" y="-326" font-family="Helvetica,sans-Serif" font-size="10.00">/JASBank.cpp</text>
</a>
</g>
</g>
<!-- Node5&#45;&gt;Node8 -->
<g id="edge7" class="edge">
<title>Node5&#45;&gt;Node8</title>
<path fill="none" stroke="#63b8ff" d="M954.98,-379.86C975.96,-370.05 1001.08,-358.32 1020.36,-349.31"/>
<polygon fill="#63b8ff" stroke="#63b8ff" points="953.7,-376.59 946.12,-384 956.66,-382.94 953.7,-376.59"/>
</g>
<!-- Node9 -->
<g id="node9" class="node">
<title>Node9</title>
<g id="a_node9"><a xlink:href="JASBasicInst_8cpp.html" target="_top" xlink:title=" ">
<polygon fill="white" stroke="#666666" points="977.5,-349 866.5,-349 866.5,-319 977.5,-319 977.5,-349"/>
<text text-anchor="start" x="874.5" y="-337" font-family="Helvetica,sans-Serif" font-size="10.00">libs/JSystem/JAudio2</text>
<text text-anchor="middle" x="922" y="-326" font-family="Helvetica,sans-Serif" font-size="10.00">/JASBasicInst.cpp</text>
</a>
</g>
</g>
<!-- Node5&#45;&gt;Node9 -->
<g id="edge8" class="edge">
<title>Node5&#45;&gt;Node9</title>
<path fill="none" stroke="#63b8ff" d="M917.2,-373.39C918.23,-365.13 919.34,-356.28 920.23,-349.16"/>
<polygon fill="#63b8ff" stroke="#63b8ff" points="913.73,-372.94 915.96,-383.29 920.68,-373.81 913.73,-372.94"/>
</g>
<!-- Node10 -->
<g id="node10" class="node">
<title>Node10</title>
<g id="a_node10"><a xlink:href="JASVoiceBank_8cpp.html" target="_top" xlink:title=" ">
<polygon fill="white" stroke="#666666" points="703.5,-349 592.5,-349 592.5,-319 703.5,-319 703.5,-349"/>
<text text-anchor="start" x="600.5" y="-337" font-family="Helvetica,sans-Serif" font-size="10.00">libs/JSystem/JAudio2</text>
<text text-anchor="middle" x="648" y="-326" font-family="Helvetica,sans-Serif" font-size="10.00">/JASVoiceBank.cpp</text>
</a>
</g>
</g>
<!-- Node5&#45;&gt;Node10 -->
<g id="edge9" class="edge">
<title>Node5&#45;&gt;Node10</title>
<path fill="none" stroke="#63b8ff" d="M842.86,-381.88C799.23,-371.39 744.17,-358.14 703.72,-348.41"/>
<polygon fill="#63b8ff" stroke="#63b8ff" points="841.96,-385.27 852.5,-384.2 843.6,-378.46 841.96,-385.27"/>
</g>
<!-- Node7 -->
<g id="node7" class="node">
<title>Node7</title>
<g id="a_node7"><a xlink:href="JASDrumSet_8cpp.html" target="_top" xlink:title=" ">
<polygon fill="white" stroke="#666666" points="840.5,-283 729.5,-283 729.5,-253 840.5,-253 840.5,-283"/>
<text text-anchor="start" x="737.5" y="-271" font-family="Helvetica,sans-Serif" font-size="10.00">libs/JSystem/JAudio2</text>
<text text-anchor="middle" x="785" y="-260" font-family="Helvetica,sans-Serif" font-size="10.00">/JASDrumSet.cpp</text>
</a>
</g>
</g>
<!-- Node6&#45;&gt;Node7 -->
<g id="edge6" class="edge">
<title>Node6&#45;&gt;Node7</title>
<path fill="none" stroke="#63b8ff" d="M785,-307.39C785,-299.13 785,-290.28 785,-283.16"/>
<polygon fill="#63b8ff" stroke="#63b8ff" points="781.5,-307.28 785,-317.28 788.5,-307.28 781.5,-307.28"/>
</g>
<!-- Node11&#45;&gt;Node8 -->
<g id="edge11" class="edge">
<title>Node11&#45;&gt;Node8</title>
<path fill="none" stroke="#63b8ff" d="M1055.8,-373.39C1054.77,-365.13 1053.66,-356.28 1052.77,-349.16"/>
<polygon fill="#63b8ff" stroke="#63b8ff" points="1052.32,-373.81 1057.04,-383.29 1059.27,-372.94 1052.32,-373.81"/>
</g>
<!-- Node12 -->
<g id="node12" class="node">
<title>Node12</title>
<g id="a_node12"><a xlink:href="JASChannel_8cpp.html" target="_top" xlink:title=" ">
<polygon fill="white" stroke="#666666" points="1235.5,-349 1124.5,-349 1124.5,-319 1235.5,-319 1235.5,-349"/>
<text text-anchor="start" x="1132.5" y="-337" font-family="Helvetica,sans-Serif" font-size="10.00">libs/JSystem/JAudio2</text>
<text text-anchor="middle" x="1180" y="-326" font-family="Helvetica,sans-Serif" font-size="10.00">/JASChannel.cpp</text>
</a>
</g>
</g>
<!-- Node11&#45;&gt;Node12 -->
<g id="edge12" class="edge">
<title>Node11&#45;&gt;Node12</title>
<path fill="none" stroke="#63b8ff" d="M1096.21,-379.32C1114.53,-369.63 1136.22,-358.16 1152.94,-349.31"/>
<polygon fill="#63b8ff" stroke="#63b8ff" points="1094.7,-376.16 1087.49,-383.93 1097.97,-382.35 1094.7,-376.16"/>
</g>
<!-- Node14 -->
<g id="node14" class="node">
<title>Node14</title>
<g id="a_node14"><a xlink:href="JAISe_8h.html" target="_top" xlink:title=" ">
<polygon fill="white" stroke="#666666" points="1380.5,-349 1253.5,-349 1253.5,-319 1380.5,-319 1380.5,-349"/>
<text text-anchor="start" x="1261.5" y="-337" font-family="Helvetica,sans-Serif" font-size="10.00">include/JSystem/JAudio2</text>
<text text-anchor="middle" x="1317" y="-326" font-family="Helvetica,sans-Serif" font-size="10.00">/JAISe.h</text>
</a>
</g>
</g>
<!-- Node13&#45;&gt;Node14 -->
<g id="edge14" class="edge">
<title>Node13&#45;&gt;Node14</title>
<path fill="none" stroke="#63b8ff" d="M1501.17,-381.77C1461.28,-371.64 1411.43,-358.98 1373.66,-349.39"/>
<polygon fill="#63b8ff" stroke="#63b8ff" points="1500.11,-385.12 1510.67,-384.18 1501.83,-378.33 1500.11,-385.12"/>
</g>
<!-- Node489 -->
<g id="node40" class="node">
<title>Node489</title>
<g id="a_node40"><a xlink:href="JAUInitializer_8cpp.html" target="_top" xlink:title=" ">
<polygon fill="white" stroke="#666666" points="1464.5,-283 1353.5,-283 1353.5,-253 1464.5,-253 1464.5,-283"/>
<text text-anchor="start" x="1361.5" y="-271" font-family="Helvetica,sans-Serif" font-size="10.00">libs/JSystem/JAudio2</text>
<text text-anchor="middle" x="1409" y="-260" font-family="Helvetica,sans-Serif" font-size="10.00">/JAUInitializer.cpp</text>
</a>
</g>
</g>
<!-- Node13&#45;&gt;Node489 -->
<g id="edge51" class="edge">
<title>Node13&#45;&gt;Node489</title>
<path fill="none" stroke="#63b8ff" d="M1494.25,-386.79C1470.48,-379.46 1445.99,-367.74 1429,-349 1412.46,-330.76 1409.12,-300.91 1408.71,-283.29"/>
<polygon fill="#63b8ff" stroke="#63b8ff" points="1493.06,-390.09 1503.63,-389.44 1494.96,-383.35 1493.06,-390.09"/>
</g>
<!-- Node490 -->
<g id="node41" class="node">
<title>Node490</title>
<g id="a_node41"><a xlink:href="JAISeq_8h.html" target="_top" xlink:title=" ">
<polygon fill="white" stroke="#666666" points="1564.5,-349 1437.5,-349 1437.5,-319 1564.5,-319 1564.5,-349"/>
<text text-anchor="start" x="1445.5" y="-337" font-family="Helvetica,sans-Serif" font-size="10.00">include/JSystem/JAudio2</text>
<text text-anchor="middle" x="1501" y="-326" font-family="Helvetica,sans-Serif" font-size="10.00">/JAISeq.h</text>
</a>
</g>
</g>
<!-- Node13&#45;&gt;Node490 -->
<g id="edge42" class="edge">
<title>Node13&#45;&gt;Node490</title>
<path fill="none" stroke="#63b8ff" d="M1545.72,-377.09C1535.9,-367.85 1524.76,-357.36 1516.05,-349.16"/>
<polygon fill="#63b8ff" stroke="#63b8ff" points="1543.13,-379.45 1552.81,-383.76 1547.92,-374.36 1543.13,-379.45"/>
</g>
<!-- Node493 -->
<g id="node44" class="node">
<title>Node493</title>
<g id="a_node44"><a xlink:href="JAISound_8cpp.html" target="_top" xlink:title=" ">
<polygon fill="white" stroke="#666666" points="1693.5,-349 1582.5,-349 1582.5,-319 1693.5,-319 1693.5,-349"/>
<text text-anchor="start" x="1590.5" y="-337" font-family="Helvetica,sans-Serif" font-size="10.00">libs/JSystem/JAudio2</text>
<text text-anchor="middle" x="1638" y="-326" font-family="Helvetica,sans-Serif" font-size="10.00">/JAISound.cpp</text>
</a>
</g>
</g>
<!-- Node13&#45;&gt;Node493 -->
<g id="edge46" class="edge">
<title>Node13&#45;&gt;Node493</title>
<path fill="none" stroke="#63b8ff" d="M1592.62,-377.09C1602.59,-367.85 1613.89,-357.36 1622.73,-349.16"/>
<polygon fill="#63b8ff" stroke="#63b8ff" points="1590.37,-374.4 1585.42,-383.77 1595.13,-379.53 1590.37,-374.4"/>
</g>
<!-- Node494 -->
<g id="node45" class="node">
<title>Node494</title>
<g id="a_node45"><a xlink:href="JAISoundChild_8cpp.html" target="_top" xlink:title=" ">
<polygon fill="white" stroke="#666666" points="1822.5,-349 1711.5,-349 1711.5,-319 1822.5,-319 1822.5,-349"/>
<text text-anchor="start" x="1719.5" y="-337" font-family="Helvetica,sans-Serif" font-size="10.00">libs/JSystem/JAudio2</text>
<text text-anchor="middle" x="1767" y="-326" font-family="Helvetica,sans-Serif" font-size="10.00">/JAISoundChild.cpp</text>
</a>
</g>
</g>
<!-- Node13&#45;&gt;Node494 -->
<g id="edge47" class="edge">
<title>Node13&#45;&gt;Node494</title>
<path fill="none" stroke="#63b8ff" d="M1624.07,-381.2C1655.06,-371.18 1693.26,-358.83 1722.37,-349.43"/>
<polygon fill="#63b8ff" stroke="#63b8ff" points="1623.31,-377.77 1614.88,-384.17 1625.47,-384.43 1623.31,-377.77"/>
</g>
<!-- Node495 -->
<g id="node46" class="node">
<title>Node495</title>
<g id="a_node46"><a xlink:href="JASSeqCtrl_8cpp.html" target="_top" xlink:title=" ">
<polygon fill="white" stroke="#666666" points="1951.5,-349 1840.5,-349 1840.5,-319 1951.5,-319 1951.5,-349"/>
<text text-anchor="start" x="1848.5" y="-337" font-family="Helvetica,sans-Serif" font-size="10.00">libs/JSystem/JAudio2</text>
<text text-anchor="middle" x="1896" y="-326" font-family="Helvetica,sans-Serif" font-size="10.00">/JASSeqCtrl.cpp</text>
</a>
</g>
</g>
<!-- Node13&#45;&gt;Node495 -->
<g id="edge48" class="edge">
<title>Node13&#45;&gt;Node495</title>
<path fill="none" stroke="#63b8ff" d="M1643.88,-384.65C1728.28,-368.66 1751.24,-365.48 1832,-349 1834.67,-348.45 1837.41,-347.89 1840.17,-347.31"/>
<polygon fill="#63b8ff" stroke="#63b8ff" points="1643.36,-381.19 1634.19,-386.49 1644.66,-388.06 1643.36,-381.19"/>
</g>
<!-- Node496 -->
<g id="node47" class="node">
<title>Node496</title>
<g id="a_node47"><a xlink:href="JASSeqParser_8cpp.html" target="_top" xlink:title=" ">
<polygon fill="white" stroke="#666666" points="2080.5,-349 1969.5,-349 1969.5,-319 2080.5,-319 2080.5,-349"/>
<text text-anchor="start" x="1977.5" y="-337" font-family="Helvetica,sans-Serif" font-size="10.00">libs/JSystem/JAudio2</text>
<text text-anchor="middle" x="2025" y="-326" font-family="Helvetica,sans-Serif" font-size="10.00">/JASSeqParser.cpp</text>
</a>
</g>
</g>
<!-- Node13&#45;&gt;Node496 -->
<g id="edge49" class="edge">
<title>Node13&#45;&gt;Node496</title>
<path fill="none" stroke="#63b8ff" d="M1643.89,-384.81C1785.01,-363.97 1823.81,-371.68 1961,-349 1963.69,-348.55 1966.44,-348.07 1969.22,-347.56"/>
<polygon fill="#63b8ff" stroke="#63b8ff" points="1643.52,-381.32 1634.15,-386.27 1644.56,-388.25 1643.52,-381.32"/>
</g>
<!-- Node497 -->
<g id="node48" class="node">
<title>Node497</title>
<g id="a_node48"><a xlink:href="JASTrack_8cpp.html" target="_top" xlink:title=" ">
<polygon fill="white" stroke="#666666" points="2209.5,-349 2098.5,-349 2098.5,-319 2209.5,-319 2209.5,-349"/>
<text text-anchor="start" x="2106.5" y="-337" font-family="Helvetica,sans-Serif" font-size="10.00">libs/JSystem/JAudio2</text>
<text text-anchor="middle" x="2154" y="-326" font-family="Helvetica,sans-Serif" font-size="10.00">/JASTrack.cpp</text>
</a>
</g>
</g>
<!-- Node13&#45;&gt;Node497 -->
<g id="edge50" class="edge">
<title>Node13&#45;&gt;Node497</title>
<path fill="none" stroke="#63b8ff" d="M1644.02,-384.85C1841.94,-358.88 1896.09,-377.86 2090,-349 2092.7,-348.6 2095.46,-348.15 2098.23,-347.66"/>
<polygon fill="#63b8ff" stroke="#63b8ff" points="1643.58,-381.38 1634.13,-386.17 1644.51,-388.32 1643.58,-381.38"/>
</g>
<!-- Node15 -->
<g id="node15" class="node">
<title>Node15</title>
<g id="a_node15"><a xlink:href="JAISeMgr_8h.html" target="_top" xlink:title=" ">
<polygon fill="white" stroke="#666666" points="1335.5,-283 1208.5,-283 1208.5,-253 1335.5,-253 1335.5,-283"/>
<text text-anchor="start" x="1216.5" y="-271" font-family="Helvetica,sans-Serif" font-size="10.00">include/JSystem/JAudio2</text>
<text text-anchor="middle" x="1272" y="-260" font-family="Helvetica,sans-Serif" font-size="10.00">/JAISeMgr.h</text>
</a>
</g>
</g>
<!-- Node14&#45;&gt;Node15 -->
<g id="edge15" class="edge">
<title>Node14&#45;&gt;Node15</title>
<path fill="none" stroke="#63b8ff" d="M1300.4,-309.39C1294.21,-300.59 1287.37,-290.86 1281.96,-283.16"/>
<polygon fill="#63b8ff" stroke="#63b8ff" points="1297.53,-311.39 1306.14,-317.56 1303.25,-307.36 1297.53,-311.39"/>
</g>
<!-- Node486 -->
<g id="node37" class="node">
<title>Node486</title>
<g id="a_node37"><a xlink:href="JAISe_8cpp.html" target="_top" xlink:title=" ">
<polygon fill="white" stroke="#666666" points="1203.5,-217 1092.5,-217 1092.5,-187 1203.5,-187 1203.5,-217"/>
<text text-anchor="start" x="1100.5" y="-205" font-family="Helvetica,sans-Serif" font-size="10.00">libs/JSystem/JAudio2</text>
<text text-anchor="middle" x="1148" y="-194" font-family="Helvetica,sans-Serif" font-size="10.00">/JAISe.cpp</text>
</a>
</g>
</g>
<!-- Node14&#45;&gt;Node486 -->
<g id="edge40" class="edge">
<title>Node14&#45;&gt;Node486</title>
<path fill="none" stroke="#63b8ff" d="M1254.01,-314.41C1234.97,-306.76 1214.91,-296.45 1199,-283 1177.37,-264.71 1161.78,-234.88 1153.88,-217.28"/>
<polygon fill="#63b8ff" stroke="#63b8ff" points="1252.75,-317.68 1263.35,-317.97 1255.25,-311.14 1252.75,-317.68"/>
</g>
<!-- Node14&#45;&gt;Node489 -->
<g id="edge41" class="edge">
<title>Node14&#45;&gt;Node489</title>
<path fill="none" stroke="#63b8ff" d="M1346.83,-312.25C1360.39,-302.82 1376.09,-291.9 1388.32,-283.39"/>
<polygon fill="#63b8ff" stroke="#63b8ff" points="1344.87,-309.35 1338.66,-317.93 1348.87,-315.09 1344.87,-309.35"/>
</g>
<!-- Node16 -->
<g id="node16" class="node">
<title>Node16</title>
<g id="a_node16"><a xlink:href="Z2SoundMgr_8h.html" target="_top" xlink:title=" ">
<polygon fill="white" stroke="#666666" points="1322,-217 1222,-217 1222,-187 1322,-187 1322,-217"/>
<text text-anchor="start" x="1230" y="-205" font-family="Helvetica,sans-Serif" font-size="10.00">include/Z2AudioLib</text>
<text text-anchor="middle" x="1272" y="-194" font-family="Helvetica,sans-Serif" font-size="10.00">/Z2SoundMgr.h</text>
</a>
</g>
</g>
<!-- Node15&#45;&gt;Node16 -->
<g id="edge16" class="edge">
<title>Node15&#45;&gt;Node16</title>
<path fill="none" stroke="#63b8ff" d="M1272,-241.39C1272,-233.13 1272,-224.28 1272,-217.16"/>
<polygon fill="#63b8ff" stroke="#63b8ff" points="1268.5,-241.28 1272,-251.28 1275.5,-241.28 1268.5,-241.28"/>
</g>
<!-- Node15&#45;&gt;Node486 -->
<g id="edge37" class="edge">
<title>Node15&#45;&gt;Node486</title>
<path fill="none" stroke="#63b8ff" d="M1234.13,-247.45C1215.3,-237.73 1192.95,-226.2 1175.74,-217.31"/>
<polygon fill="#63b8ff" stroke="#63b8ff" points="1232.34,-250.47 1242.83,-251.94 1235.55,-244.25 1232.34,-250.47"/>
</g>
<!-- Node487 -->
<g id="node38" class="node">
<title>Node487</title>
<g id="a_node38"><a xlink:href="JAISeMgr_8cpp.html" target="_top" xlink:title=" ">
<polygon fill="white" stroke="#666666" points="1451.5,-217 1340.5,-217 1340.5,-187 1451.5,-187 1451.5,-217"/>
<text text-anchor="start" x="1348.5" y="-205" font-family="Helvetica,sans-Serif" font-size="10.00">libs/JSystem/JAudio2</text>
<text text-anchor="middle" x="1396" y="-194" font-family="Helvetica,sans-Serif" font-size="10.00">/JAISeMgr.cpp</text>
</a>
</g>
</g>
<!-- Node15&#45;&gt;Node487 -->
<g id="edge38" class="edge">
<title>Node15&#45;&gt;Node487</title>
<path fill="none" stroke="#63b8ff" d="M1309.87,-247.45C1328.7,-237.73 1351.05,-226.2 1368.26,-217.31"/>
<polygon fill="#63b8ff" stroke="#63b8ff" points="1308.45,-244.25 1301.17,-251.94 1311.66,-250.47 1308.45,-244.25"/>
</g>
<!-- Node488 -->
<g id="node39" class="node">
<title>Node488</title>
<g id="a_node39"><a xlink:href="JAUAudioArcLoader_8cpp.html" target="_top" xlink:title=" ">
<polygon fill="white" stroke="#666666" points="1596.5,-217 1469.5,-217 1469.5,-187 1596.5,-187 1596.5,-217"/>
<text text-anchor="start" x="1477.5" y="-205" font-family="Helvetica,sans-Serif" font-size="10.00">libs/JSystem/JAudio2</text>
<text text-anchor="middle" x="1533" y="-194" font-family="Helvetica,sans-Serif" font-size="10.00">/JAUAudioArcLoader.cpp</text>
</a>
</g>
</g>
<!-- Node15&#45;&gt;Node488 -->
<g id="edge39" class="edge">
<title>Node15&#45;&gt;Node488</title>
<path fill="none" stroke="#63b8ff" d="M1341.99,-249.84C1383.35,-239.7 1435.11,-227 1474.32,-217.39"/>
<polygon fill="#63b8ff" stroke="#63b8ff" points="1341.25,-246.42 1332.37,-252.2 1342.91,-253.21 1341.25,-246.42"/>
</g>
<!-- Node17 -->
<g id="node17" class="node">
<title>Node17</title>
<g id="a_node17"><a xlink:href="Z2AudioMgr_8h.html" target="_top" xlink:title=" ">
<polygon fill="white" stroke="#666666" points="994,-151 894,-151 894,-121 994,-121 994,-151"/>
<text text-anchor="start" x="902" y="-139" font-family="Helvetica,sans-Serif" font-size="10.00">include/Z2AudioLib</text>
<text text-anchor="middle" x="944" y="-128" font-family="Helvetica,sans-Serif" font-size="10.00">/Z2AudioMgr.h</text>
</a>
</g>
</g>
<!-- Node16&#45;&gt;Node17 -->
<g id="edge17" class="edge">
<title>Node16&#45;&gt;Node17</title>
<path fill="none" stroke="#63b8ff" d="M1210.59,-186.8C1117.72,-168.37 1091.92,-169.19 1003,-151 1000.22,-150.43 997.36,-149.83 994.48,-149.2"/>
<polygon fill="#63b8ff" stroke="#63b8ff" points="1209.65,-190.19 1220.15,-188.72 1211.03,-183.32 1209.65,-190.19"/>
</g>
<!-- Node482 -->
<g id="node33" class="node">
<title>Node482</title>
<g id="a_node33"><a xlink:href="Z2SceneMgr_8cpp.html" target="_top" xlink:title=" ">
<polygon fill="white" stroke="#666666" points="1173.5,-145.5 1012.5,-145.5 1012.5,-126.5 1173.5,-126.5 1173.5,-145.5"/>
<text text-anchor="middle" x="1093" y="-133.5" font-family="Helvetica,sans-Serif" font-size="10.00">libs/Z2AudioLib/Z2SceneMgr.cpp</text>
</a>
</g>
</g>
<!-- Node16&#45;&gt;Node482 -->
<g id="edge33" class="edge">
<title>Node16&#45;&gt;Node482</title>
<path fill="none" stroke="#63b8ff" d="M1221.24,-182.85C1187.54,-170.8 1144.76,-155.51 1118.13,-145.99"/>
<polygon fill="#63b8ff" stroke="#63b8ff" points="1219.81,-186.06 1230.4,-186.13 1222.17,-179.47 1219.81,-186.06"/>
</g>
<!-- Node483 -->
<g id="node34" class="node">
<title>Node483</title>
<g id="a_node34"><a xlink:href="Z2SoundMgr_8cpp.html" target="_top" xlink:title=" ">
<polygon fill="white" stroke="#666666" points="1352.5,-145.5 1191.5,-145.5 1191.5,-126.5 1352.5,-126.5 1352.5,-145.5"/>
<text text-anchor="middle" x="1272" y="-133.5" font-family="Helvetica,sans-Serif" font-size="10.00">libs/Z2AudioLib/Z2SoundMgr.cpp</text>
</a>
</g>
</g>
<!-- Node16&#45;&gt;Node483 -->
<g id="edge34" class="edge">
<title>Node16&#45;&gt;Node483</title>
<path fill="none" stroke="#63b8ff" d="M1272,-175.59C1272,-165.06 1272,-153.53 1272,-145.84"/>
<polygon fill="#63b8ff" stroke="#63b8ff" points="1268.5,-175.28 1272,-185.28 1275.5,-175.28 1268.5,-175.28"/>
</g>
<!-- Node484 -->
<g id="node35" class="node">
<title>Node484</title>
<g id="a_node35"><a xlink:href="Z2SoundObject_8cpp.html" target="_top" xlink:title=" ">
<polygon fill="white" stroke="#666666" points="1543.5,-145.5 1370.5,-145.5 1370.5,-126.5 1543.5,-126.5 1543.5,-145.5"/>
<text text-anchor="middle" x="1457" y="-133.5" font-family="Helvetica,sans-Serif" font-size="10.00">libs/Z2AudioLib/Z2SoundObject.cpp</text>
</a>
</g>
</g>
<!-- Node16&#45;&gt;Node484 -->
<g id="edge35" class="edge">
<title>Node16&#45;&gt;Node484</title>
<path fill="none" stroke="#63b8ff" d="M1324.01,-183.01C1358.91,-170.93 1403.38,-155.55 1431.03,-145.99"/>
<polygon fill="#63b8ff" stroke="#63b8ff" points="1323.25,-179.57 1314.95,-186.14 1325.54,-186.18 1323.25,-179.57"/>
</g>
<!-- Node485 -->
<g id="node36" class="node">
<title>Node485</title>
<g id="a_node36"><a xlink:href="Z2WolfHowlMgr_8cpp.html" target="_top" xlink:title=" ">
<polygon fill="white" stroke="#666666" points="1702,-151 1562,-151 1562,-121 1702,-121 1702,-151"/>
<text text-anchor="start" x="1570" y="-139" font-family="Helvetica,sans-Serif" font-size="10.00">libs/Z2AudioLib/Z2WolfHowl</text>
<text text-anchor="middle" x="1632" y="-128" font-family="Helvetica,sans-Serif" font-size="10.00">Mgr.cpp</text>
</a>
</g>
</g>
<!-- Node16&#45;&gt;Node485 -->
<g id="edge36" class="edge">
<title>Node16&#45;&gt;Node485</title>
<path fill="none" stroke="#63b8ff" d="M1333.72,-186.54C1430.96,-167.45 1458.01,-167.12 1553,-151 1555.88,-150.51 1558.83,-150.01 1561.8,-149.5"/>
<polygon fill="#63b8ff" stroke="#63b8ff" points="1333.09,-183.1 1323.96,-188.47 1334.45,-189.96 1333.09,-183.1"/>
</g>
<!-- Node18 -->
<g id="node18" class="node">
<title>Node18</title>
<g id="a_node18"><a xlink:href="m__Do__audio_8h.html" target="_top" xlink:title=" ">
<polygon fill="#fff0f0" stroke="red" points="931,-85 791,-85 791,-66 931,-66 931,-85"/>
<text text-anchor="middle" x="861" y="-73" font-family="Helvetica,sans-Serif" font-size="10.00">include/m_Do/m_Do_audio.h</text>
</a>
</g>
</g>
<!-- Node17&#45;&gt;Node18 -->
<g id="edge18" class="edge">
<title>Node17&#45;&gt;Node18</title>
<path fill="none" stroke="#63b8ff" d="M914.14,-113.95C900.06,-104.03 884.05,-92.74 873.31,-85.18"/>
<polygon fill="#63b8ff" stroke="#63b8ff" points="912.06,-116.77 922.25,-119.67 916.09,-111.05 912.06,-116.77"/>
</g>
<!-- Node481 -->
<g id="node32" class="node">
<title>Node481</title>
<g id="a_node32"><a xlink:href="Z2AudioMgr_8cpp.html" target="_top" xlink:title=" ">
<polygon fill="white" stroke="#666666" points="1107,-85 949,-85 949,-66 1107,-66 1107,-85"/>
<text text-anchor="middle" x="1028" y="-73" font-family="Helvetica,sans-Serif" font-size="10.00">libs/Z2AudioLib/Z2AudioMgr.cpp</text>
</a>
</g>
</g>
<!-- Node17&#45;&gt;Node481 -->
<g id="edge32" class="edge">
<title>Node17&#45;&gt;Node481</title>
<path fill="none" stroke="#63b8ff" d="M973.81,-114.24C988.15,-104.25 1004.57,-92.82 1015.54,-85.18"/>
<polygon fill="#63b8ff" stroke="#63b8ff" points="972.21,-111.09 966.01,-119.67 976.21,-116.83 972.21,-111.09"/>
</g>
<!-- Node19 -->
<g id="node19" class="node">
<title>Node19</title>
<g id="a_node19"><a xlink:href="m__Do__ext_8h.html" target="_top" xlink:title=" ">
<polygon fill="#fff0f0" stroke="red" points="130,-24.5 0,-24.5 0,-5.5 130,-5.5 130,-24.5"/>
<text text-anchor="middle" x="65" y="-12.5" font-family="Helvetica,sans-Serif" font-size="10.00">include/m_Do/m_Do_ext.h</text>
</a>
</g>
</g>
<!-- Node18&#45;&gt;Node19 -->
<g id="edge19" class="edge">
<title>Node18&#45;&gt;Node19</title>
<path fill="none" stroke="#63b8ff" d="M779.15,-72.8C644.96,-69.25 369.97,-58.85 139,-30 128.75,-28.72 117.78,-26.9 107.51,-24.99"/>
<polygon fill="#63b8ff" stroke="#63b8ff" points="778.92,-76.29 789.01,-73.05 779.1,-69.29 778.92,-76.29"/>
</g>
<!-- Node24 -->
<g id="node20" class="node">
<title>Node24</title>
<g id="a_node20"><a xlink:href="d__com__inf__game_8cpp.html" target="_top" xlink:title=" ">
<polygon fill="white" stroke="#666666" points="256,-30 148,-30 148,0 256,0 256,-30"/>
<text text-anchor="start" x="156" y="-18" font-family="Helvetica,sans-Serif" font-size="10.00">src/d/com/d_com_inf</text>
<text text-anchor="middle" x="202" y="-7" font-family="Helvetica,sans-Serif" font-size="10.00">_game.cpp</text>
</a>
</g>
</g>
<!-- Node18&#45;&gt;Node24 -->
<g id="edge20" class="edge">
<title>Node18&#45;&gt;Node24</title>
<path fill="none" stroke="#63b8ff" d="M779.4,-72.13C664.22,-67.94 447.6,-56.96 265,-30 262.12,-29.57 259.17,-29.09 256.2,-28.57"/>
<polygon fill="#63b8ff" stroke="#63b8ff" points="779.27,-75.63 789.39,-72.48 779.52,-68.63 779.27,-75.63"/>
</g>
<!-- Node215 -->
<g id="node21" class="node">
<title>Node215</title>
<g id="a_node21"><a xlink:href="d__name_8cpp.html" target="_top" xlink:title=" ">
<polygon fill="white" stroke="#666666" points="368,-24.5 274,-24.5 274,-5.5 368,-5.5 368,-24.5"/>
<text text-anchor="middle" x="321" y="-12.5" font-family="Helvetica,sans-Serif" font-size="10.00">src/d/d_name.cpp</text>
</a>
</g>
</g>
<!-- Node18&#45;&gt;Node215 -->
<g id="edge21" class="edge">
<title>Node18&#45;&gt;Node215</title>
<path fill="none" stroke="#63b8ff" d="M779.4,-70.82C682.79,-65.58 517.29,-53.84 377,-30 369.29,-28.69 361.08,-26.88 353.39,-24.99"/>
<polygon fill="#63b8ff" stroke="#63b8ff" points="779.15,-74.31 789.32,-71.35 779.52,-67.32 779.15,-74.31"/>
</g>
<!-- Node225 -->
<g id="node22" class="node">
<title>Node225</title>
<g id="a_node22"><a xlink:href="d__event__manager_8cpp.html" target="_top" xlink:title=" ">
<polygon fill="white" stroke="#666666" points="489.5,-30 386.5,-30 386.5,0 489.5,0 489.5,-30"/>
<text text-anchor="start" x="394.5" y="-18" font-family="Helvetica,sans-Serif" font-size="10.00">src/d/event/d_event</text>
<text text-anchor="middle" x="438" y="-7" font-family="Helvetica,sans-Serif" font-size="10.00">_manager.cpp</text>
</a>
</g>
</g>
<!-- Node18&#45;&gt;Node225 -->
<g id="edge22" class="edge">
<title>Node18&#45;&gt;Node225</title>
<path fill="none" stroke="#63b8ff" d="M779.58,-66.92C705.97,-59.49 594.8,-46.84 499,-30 496,-29.47 492.93,-28.89 489.84,-28.28"/>
<polygon fill="#63b8ff" stroke="#63b8ff" points="778.8,-70.36 789.1,-67.87 779.5,-63.39 778.8,-70.36"/>
</g>
<!-- Node80 -->
<g id="node23" class="node">
<title>Node80</title>
<g id="a_node23"><a xlink:href="d__kankyo_8cpp.html" target="_top" xlink:title=" ">
<polygon fill="white" stroke="#666666" points="642,-24.5 508,-24.5 508,-5.5 642,-5.5 642,-24.5"/>
<text text-anchor="middle" x="575" y="-12.5" font-family="Helvetica,sans-Serif" font-size="10.00">src/d/kankyo/d_kankyo.cpp</text>
</a>
</g>
</g>
<!-- Node18&#45;&gt;Node80 -->
<g id="edge23" class="edge">
<title>Node18&#45;&gt;Node80</title>
<path fill="none" stroke="#63b8ff" d="M806.06,-63.26C751.52,-52.11 669,-35.23 618.74,-24.95"/>
<polygon fill="#63b8ff" stroke="#63b8ff" points="805.27,-66.67 815.77,-65.25 806.67,-59.82 805.27,-66.67"/>
</g>
<!-- Node230 -->
<g id="node24" class="node">
<title>Node230</title>
<g id="a_node24"><a xlink:href="d__kankyo__wether_8cpp.html" target="_top" xlink:title=" ">
<polygon fill="white" stroke="#666666" points="776,-30 660,-30 660,0 776,0 776,-30"/>
<text text-anchor="start" x="668" y="-18" font-family="Helvetica,sans-Serif" font-size="10.00">src/d/kankyo/d_kankyo</text>
<text text-anchor="middle" x="718" y="-7" font-family="Helvetica,sans-Serif" font-size="10.00">_wether.cpp</text>
</a>
</g>
</g>
<!-- Node18&#45;&gt;Node230 -->
<g id="edge24" class="edge">
<title>Node18&#45;&gt;Node230</title>
<path fill="none" stroke="#63b8ff" d="M828.92,-61.38C806.46,-52.19 776.44,-39.91 753.3,-30.44"/>
<polygon fill="#63b8ff" stroke="#63b8ff" points="827.3,-64.5 837.88,-65.04 829.95,-58.02 827.3,-64.5"/>
</g>
<!-- Node31 -->
<g id="node25" class="node">
<title>Node31</title>
<g id="a_node25"><a xlink:href="d__msg__flow_8cpp.html" target="_top" xlink:title=" ">
<polygon fill="white" stroke="#666666" points="927.5,-24.5 794.5,-24.5 794.5,-5.5 927.5,-5.5 927.5,-24.5"/>
<text text-anchor="middle" x="861" y="-12.5" font-family="Helvetica,sans-Serif" font-size="10.00">src/d/msg/d_msg_flow.cpp</text>
</a>
</g>
</g>
<!-- Node18&#45;&gt;Node31 -->
<g id="edge25" class="edge">
<title>Node18&#45;&gt;Node31</title>
<path fill="none" stroke="#63b8ff" d="M861,-54.66C861,-44.45 861,-32.54 861,-24.67"/>
<polygon fill="#63b8ff" stroke="#63b8ff" points="857.5,-54.35 861,-64.35 864.5,-54.35 857.5,-54.35"/>
</g>
<!-- Node246 -->
<g id="node26" class="node">
<title>Node246</title>
<g id="a_node26"><a xlink:href="d__ovlp__fade_8cpp.html" target="_top" xlink:title=" ">
<polygon fill="white" stroke="#666666" points="1078.5,-24.5 945.5,-24.5 945.5,-5.5 1078.5,-5.5 1078.5,-24.5"/>
<text text-anchor="middle" x="1012" y="-12.5" font-family="Helvetica,sans-Serif" font-size="10.00">src/d/ovlp/d_ovlp_fade.cpp</text>
</a>
</g>
</g>
<!-- Node18&#45;&gt;Node246 -->
<g id="edge26" class="edge">
<title>Node18&#45;&gt;Node246</title>
<path fill="none" stroke="#63b8ff" d="M894.66,-61.46C923.31,-50.36 963.71,-34.71 988.85,-24.97"/>
<polygon fill="#63b8ff" stroke="#63b8ff" points="893.41,-58.19 885.34,-65.07 895.93,-64.72 893.41,-58.19"/>
</g>
<!-- Node95 -->
<g id="node27" class="node">
<title>Node95</title>
<g id="a_node27"><a xlink:href="d__ovlp__fade2_8cpp.html" target="_top" xlink:title=" ">
<polygon fill="white" stroke="#666666" points="1235,-24.5 1097,-24.5 1097,-5.5 1235,-5.5 1235,-24.5"/>
<text text-anchor="middle" x="1166" y="-12.5" font-family="Helvetica,sans-Serif" font-size="10.00">src/d/ovlp/d_ovlp_fade2.cpp</text>
</a>
</g>
</g>
<!-- Node18&#45;&gt;Node95 -->
<g id="edge27" class="edge">
<title>Node18&#45;&gt;Node95</title>
<path fill="none" stroke="#63b8ff" d="M918.84,-63.41C976.91,-52.27 1065.26,-35.32 1119.1,-25"/>
<polygon fill="#63b8ff" stroke="#63b8ff" points="918.3,-59.95 909.14,-65.27 919.62,-66.82 918.3,-59.95"/>
</g>
<!-- Node97 -->
<g id="node28" class="node">
<title>Node97</title>
<g id="a_node28"><a xlink:href="d__ovlp__fade3_8cpp.html" target="_top" xlink:title=" ">
<polygon fill="white" stroke="#666666" points="1391,-24.5 1253,-24.5 1253,-5.5 1391,-5.5 1391,-24.5"/>
<text text-anchor="middle" x="1322" y="-12.5" font-family="Helvetica,sans-Serif" font-size="10.00">src/d/ovlp/d_ovlp_fade3.cpp</text>
</a>
</g>
</g>
<!-- Node18&#45;&gt;Node97 -->
<g id="edge28" class="edge">
<title>Node18&#45;&gt;Node97</title>
<path fill="none" stroke="#63b8ff" d="M942.43,-65.64C1037.13,-55.23 1187.68,-38.32 1244,-30 1253.94,-28.53 1264.55,-26.76 1274.64,-24.98"/>
<polygon fill="#63b8ff" stroke="#63b8ff" points="942.23,-62.14 932.67,-66.71 942.99,-69.1 942.23,-62.14"/>
</g>
<!-- Node249 -->
<g id="node29" class="node">
<title>Node249</title>
<g id="a_node29"><a xlink:href="d__s__name_8cpp.html" target="_top" xlink:title=" ">
<polygon fill="white" stroke="#666666" points="1522.5,-24.5 1409.5,-24.5 1409.5,-5.5 1522.5,-5.5 1522.5,-24.5"/>
<text text-anchor="middle" x="1466" y="-12.5" font-family="Helvetica,sans-Serif" font-size="10.00">src/d/s/d_s_name.cpp</text>
</a>
</g>
</g>
<!-- Node18&#45;&gt;Node249 -->
<g id="edge29" class="edge">
<title>Node18&#45;&gt;Node249</title>
<path fill="none" stroke="#63b8ff" d="M942.59,-65.8C1146.15,-47.46 1200.71,-58.81 1400,-30 1409.04,-28.69 1418.7,-26.88 1427.76,-25"/>
<polygon fill="#63b8ff" stroke="#63b8ff" points="942.35,-62.3 932.71,-66.7 942.99,-69.28 942.35,-62.3"/>
</g>
<!-- Node86 -->
<g id="node30" class="node">
<title>Node86</title>
<g id="a_node30"><a xlink:href="d__s__play_8cpp.html" target="_top" xlink:title=" ">
<polygon fill="white" stroke="#666666" points="1647,-24.5 1541,-24.5 1541,-5.5 1647,-5.5 1647,-24.5"/>
<text text-anchor="middle" x="1594" y="-12.5" font-family="Helvetica,sans-Serif" font-size="10.00">src/d/s/d_s_play.cpp</text>
</a>
</g>
</g>
<!-- Node18&#45;&gt;Node86 -->
<g id="edge30" class="edge">
<title>Node18&#45;&gt;Node86</title>
<path fill="none" stroke="#63b8ff" d="M942.61,-65.83C1204.64,-44.54 1274.73,-66.62 1532,-30 1540.74,-28.76 1550.07,-26.92 1558.77,-24.99"/>
<polygon fill="#63b8ff" stroke="#63b8ff" points="942.38,-62.34 932.7,-66.65 942.96,-69.31 942.38,-62.34"/>
</g>
<!-- Node36 -->
<g id="node31" class="node">
<title>Node36</title>
<g id="a_node31"><a xlink:href="d__shop__system_8cpp.html" target="_top" xlink:title=" ">
<polygon fill="white" stroke="#666666" points="1817,-24.5 1665,-24.5 1665,-5.5 1817,-5.5 1817,-24.5"/>
<text text-anchor="middle" x="1741" y="-12.5" font-family="Helvetica,sans-Serif" font-size="10.00">src/d/shop/d_shop_system.cpp</text>
</a>
</g>
</g>
<!-- Node18&#45;&gt;Node36 -->
<g id="edge31" class="edge">
<title>Node18&#45;&gt;Node36</title>
<path fill="none" stroke="#63b8ff" d="M942.57,-65.85C1259.58,-41.48 1342.9,-63.55 1656,-30 1667.9,-28.73 1680.66,-26.88 1692.58,-24.95"/>
<polygon fill="#63b8ff" stroke="#63b8ff" points="942.4,-62.35 932.7,-66.62 942.94,-69.33 942.4,-62.35"/>
</g>
<!-- Node490&#45;&gt;Node489 -->
<g id="edge44" class="edge">
<title>Node490&#45;&gt;Node489</title>
<path fill="none" stroke="#63b8ff" d="M1471.17,-312.25C1457.61,-302.82 1441.91,-291.9 1429.68,-283.39"/>
<polygon fill="#63b8ff" stroke="#63b8ff" points="1469.13,-315.09 1479.34,-317.93 1473.13,-309.35 1469.13,-315.09"/>
</g>
<!-- Node491 -->
<g id="node42" class="node">
<title>Node491</title>
<g id="a_node42"><a xlink:href="JAISeq_8cpp.html" target="_top" xlink:title=" ">
<polygon fill="white" stroke="#666666" points="1593.5,-283 1482.5,-283 1482.5,-253 1593.5,-253 1593.5,-283"/>
<text text-anchor="start" x="1490.5" y="-271" font-family="Helvetica,sans-Serif" font-size="10.00">libs/JSystem/JAudio2</text>
<text text-anchor="middle" x="1538" y="-260" font-family="Helvetica,sans-Serif" font-size="10.00">/JAISeq.cpp</text>
</a>
</g>
</g>
<!-- Node490&#45;&gt;Node491 -->
<g id="edge43" class="edge">
<title>Node490&#45;&gt;Node491</title>
<path fill="none" stroke="#63b8ff" d="M1514.81,-309.11C1519.86,-300.38 1525.41,-290.78 1529.81,-283.16"/>
<polygon fill="#63b8ff" stroke="#63b8ff" points="1511.94,-307.08 1509.97,-317.49 1518,-310.58 1511.94,-307.08"/>
</g>
<!-- Node492 -->
<g id="node43" class="node">
<title>Node492</title>
<g id="a_node43"><a xlink:href="Z2SoundInfo_8cpp.html" target="_top" xlink:title=" ">
<polygon fill="white" stroke="#666666" points="1772.5,-277.5 1611.5,-277.5 1611.5,-258.5 1772.5,-258.5 1772.5,-277.5"/>
<text text-anchor="middle" x="1692" y="-265.5" font-family="Helvetica,sans-Serif" font-size="10.00">libs/Z2AudioLib/Z2SoundInfo.cpp</text>
</a>
</g>
</g>
<!-- Node490&#45;&gt;Node492 -->
<g id="edge45" class="edge">
<title>Node490&#45;&gt;Node492</title>
<path fill="none" stroke="#63b8ff" d="M1554.7,-315.01C1590.73,-302.93 1636.64,-287.55 1665.18,-277.99"/>
<polygon fill="#63b8ff" stroke="#63b8ff" points="1553.67,-311.66 1545.3,-318.16 1555.89,-318.3 1553.67,-311.66"/>
</g>
<!-- Node498&#45;&gt;Node4 -->
<g id="edge54" class="edge">
<title>Node498&#45;&gt;Node4</title>
<path fill="none" stroke="#63b8ff" d="M614.72,-379.86C593.59,-370.05 568.29,-358.32 548.87,-349.31"/>
<polygon fill="#63b8ff" stroke="#63b8ff" points="613.11,-382.97 623.66,-384 616.06,-376.62 613.11,-382.97"/>
</g>
<!-- Node498&#45;&gt;Node10 -->
<g id="edge53" class="edge">
<title>Node498&#45;&gt;Node10</title>
<path fill="none" stroke="#63b8ff" d="M652.8,-373.39C651.77,-365.13 650.66,-356.28 649.77,-349.16"/>
<polygon fill="#63b8ff" stroke="#63b8ff" points="649.32,-373.81 654.04,-383.29 656.27,-372.94 649.32,-373.81"/>
</g>
</g>
</svg>
