<?xml version="1.0" encoding="UTF-8" standalone="no"?>
<!DOCTYPE svg PUBLIC "-//W3C//DTD SVG 1.1//EN"
 "http://www.w3.org/Graphics/SVG/1.1/DTD/svg11.dtd">
<!-- Generated by graphviz version 7.0.5 (20221223.1930)
 -->
<!-- Title: include/JSystem/JAudio2/JASTrack.h Pages: 1 -->
<!--zoomable 555 -->
<svg id="main" version="1.1" xmlns="http://www.w3.org/2000/svg" xmlns:xlink="http://www.w3.org/1999/xlink" xml:space="preserve" onload="init(evt)">
<style type="text/css"><![CDATA[
.edge:hover path { stroke: red; }
.edge:hover polygon { stroke: red; fill: red; }
]]></style>
<script type="text/javascript"><![CDATA[
var edges = document.getElementsByTagName('g');
if (edges && edges.length) {
  for (var i=0;i<edges.length;i++) {
    if (edges[i].id.substr(0,4)=='edge') {
      edges[i].setAttribute('class','edge');
    }
  }
}
]]></script>
        <defs>
                <circle id="rim" cx="0" cy="0" r="7"/>
                <circle id="rim2" cx="0" cy="0" r="3.5"/>
                <g id="zoomPlus">
                        <use xlink:href="#rim" fill="#404040">
                                <set attributeName="fill" to="#808080" begin="zoomplus.mouseover" end="zoomplus.mouseout"/>
                        </use>
                        <path d="M-4,0h8M0,-4v8" fill="none" stroke="white" stroke-width="1.5" pointer-events="none"/>
                </g>
                <g id="zoomMin">
                        <use xlink:href="#rim" fill="#404040">
                                <set attributeName="fill" to="#808080" begin="zoomminus.mouseover" end="zoomminus.mouseout"/>
                        </use>
                        <path d="M-4,0h8" fill="none" stroke="white" stroke-width="1.5" pointer-events="none"/>
                </g>
                <g id="dirArrow">
                        <path fill="none" stroke="white" stroke-width="1.5" d="M0,-3.0v7 M-2.5,-0.5L0,-3.0L2.5,-0.5"/>
                </g>
               <g id="resetDef">
                       <use xlink:href="#rim2" fill="#404040">
                               <set attributeName="fill" to="#808080" begin="reset.mouseover" end="reset.mouseout"/>
                       </use>
               </g>
        </defs>

<script type="text/javascript">
var viewWidth = 4288;
var viewHeight = 555;
var sectionId = 'dynsection-1';
</script>
<script xlink:href="svgpan.js"/>
<svg id="graph" class="graph">
<g id="viewport">
<title>include/JSystem/JAudio2/JASTrack.h</title>
<!-- Node1 -->
<g id="node1" class="node">
<title>Node1</title>
<g id="a_node1"><a xlink:title=" ">
<polygon fill="#999999" stroke="#666666" points="3836.4,-547 3709.4,-547 3709.4,-517 3836.4,-517 3836.4,-547"/>
<text text-anchor="start" x="3717.4" y="-535" font-family="Helvetica,sans-Serif" font-size="10.00">include/JSystem/JAudio2</text>
<text text-anchor="middle" x="3772.9" y="-524" font-family="Helvetica,sans-Serif" font-size="10.00">/JASTrack.h</text>
</a>
</g>
</g>
<!-- Node2 -->
<g id="node2" class="node">
<title>Node2</title>
<g id="a_node2"><a xlink:href="JAISe_8h.html" target="_top" xlink:title=" ">
<polygon fill="white" stroke="#666666" points="3451.4,-481 3324.4,-481 3324.4,-451 3451.4,-451 3451.4,-481"/>
<text text-anchor="start" x="3332.4" y="-469" font-family="Helvetica,sans-Serif" font-size="10.00">include/JSystem/JAudio2</text>
<text text-anchor="middle" x="3387.9" y="-458" font-family="Helvetica,sans-Serif" font-size="10.00">/JAISe.h</text>
</a>
</g>
</g>
<!-- Node1&#45;&gt;Node2 -->
<g id="edge1" class="edge">
<title>Node1&#45;&gt;Node2</title>
<path fill="none" stroke="#63b8ff" d="M3697.79,-519.11C3635.6,-509.19 3544.95,-494.53 3465.9,-481 3461.29,-480.21 3456.53,-479.38 3451.74,-478.54"/>
<polygon fill="#63b8ff" stroke="#63b8ff" points="3697.14,-522.55 3707.56,-520.67 3698.24,-515.64 3697.14,-522.55"/>
</g>
<!-- Node370 -->
<g id="node43" class="node">
<title>Node370</title>
<g id="a_node43"><a xlink:href="JAUInitializer_8cpp.html" target="_top" xlink:title=" ">
<polygon fill="white" stroke="#666666" points="3533.4,-415 3422.4,-415 3422.4,-385 3533.4,-385 3533.4,-415"/>
<text text-anchor="start" x="3430.4" y="-403" font-family="Helvetica,sans-Serif" font-size="10.00">libs/JSystem/JAudio2</text>
<text text-anchor="middle" x="3477.9" y="-392" font-family="Helvetica,sans-Serif" font-size="10.00">/JAUInitializer.cpp</text>
</a>
</g>
</g>
<!-- Node1&#45;&gt;Node370 -->
<g id="edge54" class="edge">
<title>Node1&#45;&gt;Node370</title>
<path fill="none" stroke="#63b8ff" d="M3697.79,-526.24C3626.85,-520.2 3527.23,-507.24 3498.9,-481 3480.68,-464.12 3477.5,-433.52 3477.35,-415.45"/>
<polygon fill="#63b8ff" stroke="#63b8ff" points="3697.15,-529.7 3707.4,-527.03 3697.72,-522.72 3697.15,-529.7"/>
</g>
<!-- Node371 -->
<g id="node44" class="node">
<title>Node371</title>
<g id="a_node44"><a xlink:href="JAISeq_8h.html" target="_top" xlink:title=" ">
<polygon fill="white" stroke="#666666" points="3635.4,-481 3508.4,-481 3508.4,-451 3635.4,-451 3635.4,-481"/>
<text text-anchor="start" x="3516.4" y="-469" font-family="Helvetica,sans-Serif" font-size="10.00">include/JSystem/JAudio2</text>
<text text-anchor="middle" x="3571.9" y="-458" font-family="Helvetica,sans-Serif" font-size="10.00">/JAISeq.h</text>
</a>
</g>
</g>
<!-- Node1&#45;&gt;Node371 -->
<g id="edge46" class="edge">
<title>Node1&#45;&gt;Node371</title>
<path fill="none" stroke="#63b8ff" d="M3716.75,-513.12C3685.29,-503.1 3646.58,-490.78 3617.1,-481.39"/>
<polygon fill="#63b8ff" stroke="#63b8ff" points="3715.51,-516.4 3726.1,-516.1 3717.64,-509.73 3715.51,-516.4"/>
</g>
<!-- Node373 -->
<g id="node46" class="node">
<title>Node373</title>
<g id="a_node46"><a xlink:href="JAISound_8cpp.html" target="_top" xlink:title=" ">
<polygon fill="white" stroke="#666666" points="3764.4,-481 3653.4,-481 3653.4,-451 3764.4,-451 3764.4,-481"/>
<text text-anchor="start" x="3661.4" y="-469" font-family="Helvetica,sans-Serif" font-size="10.00">libs/JSystem/JAudio2</text>
<text text-anchor="middle" x="3708.9" y="-458" font-family="Helvetica,sans-Serif" font-size="10.00">/JAISound.cpp</text>
</a>
</g>
</g>
<!-- Node1&#45;&gt;Node373 -->
<g id="edge49" class="edge">
<title>Node1&#45;&gt;Node373</title>
<path fill="none" stroke="#63b8ff" d="M3750.71,-508.81C3741.54,-499.64 3731.18,-489.28 3723.07,-481.16"/>
<polygon fill="#63b8ff" stroke="#63b8ff" points="3748.08,-511.13 3757.63,-515.73 3753.03,-506.18 3748.08,-511.13"/>
</g>
<!-- Node374 -->
<g id="node47" class="node">
<title>Node374</title>
<g id="a_node47"><a xlink:href="JAISoundChild_8cpp.html" target="_top" xlink:title=" ">
<polygon fill="white" stroke="#666666" points="3893.4,-481 3782.4,-481 3782.4,-451 3893.4,-451 3893.4,-481"/>
<text text-anchor="start" x="3790.4" y="-469" font-family="Helvetica,sans-Serif" font-size="10.00">libs/JSystem/JAudio2</text>
<text text-anchor="middle" x="3837.9" y="-458" font-family="Helvetica,sans-Serif" font-size="10.00">/JAISoundChild.cpp</text>
</a>
</g>
</g>
<!-- Node1&#45;&gt;Node374 -->
<g id="edge50" class="edge">
<title>Node1&#45;&gt;Node374</title>
<path fill="none" stroke="#63b8ff" d="M3795.44,-508.81C3804.76,-499.64 3815.28,-489.28 3823.52,-481.16"/>
<polygon fill="#63b8ff" stroke="#63b8ff" points="3793.08,-506.22 3788.41,-515.73 3797.99,-511.21 3793.08,-506.22"/>
</g>
<!-- Node375 -->
<g id="node48" class="node">
<title>Node375</title>
<g id="a_node48"><a xlink:href="JASSeqCtrl_8cpp.html" target="_top" xlink:title=" ">
<polygon fill="white" stroke="#666666" points="4022.4,-481 3911.4,-481 3911.4,-451 4022.4,-451 4022.4,-481"/>
<text text-anchor="start" x="3919.4" y="-469" font-family="Helvetica,sans-Serif" font-size="10.00">libs/JSystem/JAudio2</text>
<text text-anchor="middle" x="3966.9" y="-458" font-family="Helvetica,sans-Serif" font-size="10.00">/JASSeqCtrl.cpp</text>
</a>
</g>
</g>
<!-- Node1&#45;&gt;Node375 -->
<g id="edge51" class="edge">
<title>Node1&#45;&gt;Node375</title>
<path fill="none" stroke="#63b8ff" d="M3827.26,-513.07C3857.56,-503.07 3894.78,-490.79 3923.18,-481.43"/>
<polygon fill="#63b8ff" stroke="#63b8ff" points="3826.28,-509.71 3817.88,-516.16 3828.47,-516.35 3826.28,-509.71"/>
</g>
<!-- Node376 -->
<g id="node49" class="node">
<title>Node376</title>
<g id="a_node49"><a xlink:href="JASSeqParser_8cpp.html" target="_top" xlink:title=" ">
<polygon fill="white" stroke="#666666" points="4151.4,-481 4040.4,-481 4040.4,-451 4151.4,-451 4151.4,-481"/>
<text text-anchor="start" x="4048.4" y="-469" font-family="Helvetica,sans-Serif" font-size="10.00">libs/JSystem/JAudio2</text>
<text text-anchor="middle" x="4095.9" y="-458" font-family="Helvetica,sans-Serif" font-size="10.00">/JASSeqParser.cpp</text>
</a>
</g>
</g>
<!-- Node1&#45;&gt;Node376 -->
<g id="edge52" class="edge">
<title>Node1&#45;&gt;Node376</title>
<path fill="none" stroke="#63b8ff" d="M3847.94,-517.02C3899.7,-507.25 3970.06,-493.73 4031.9,-481 4034.58,-480.45 4037.31,-479.88 4040.07,-479.3"/>
<polygon fill="#63b8ff" stroke="#63b8ff" points="3847.52,-513.54 3838.34,-518.83 3848.82,-520.42 3847.52,-513.54"/>
</g>
<!-- Node377 -->
<g id="node50" class="node">
<title>Node377</title>
<g id="a_node50"><a xlink:href="JASTrack_8cpp.html" target="_top" xlink:title=" ">
<polygon fill="white" stroke="#666666" points="4280.4,-481 4169.4,-481 4169.4,-451 4280.4,-451 4280.4,-481"/>
<text text-anchor="start" x="4177.4" y="-469" font-family="Helvetica,sans-Serif" font-size="10.00">libs/JSystem/JAudio2</text>
<text text-anchor="middle" x="4224.9" y="-458" font-family="Helvetica,sans-Serif" font-size="10.00">/JASTrack.cpp</text>
</a>
</g>
</g>
<!-- Node1&#45;&gt;Node377 -->
<g id="edge53" class="edge">
<title>Node1&#45;&gt;Node377</title>
<path fill="none" stroke="#63b8ff" d="M3847.88,-523.3C3926.24,-514.79 4052.63,-499.78 4160.9,-481 4163.59,-480.53 4166.34,-480.03 4169.11,-479.5"/>
<polygon fill="#63b8ff" stroke="#63b8ff" points="3847.74,-519.79 3838.18,-524.35 3848.49,-526.75 3847.74,-519.79"/>
</g>
<!-- Node3 -->
<g id="node3" class="node">
<title>Node3</title>
<g id="a_node3"><a xlink:href="JAISeMgr_8h.html" target="_top" xlink:title=" ">
<polygon fill="white" stroke="#666666" points="3353.4,-415 3226.4,-415 3226.4,-385 3353.4,-385 3353.4,-415"/>
<text text-anchor="start" x="3234.4" y="-403" font-family="Helvetica,sans-Serif" font-size="10.00">include/JSystem/JAudio2</text>
<text text-anchor="middle" x="3289.9" y="-392" font-family="Helvetica,sans-Serif" font-size="10.00">/JAISeMgr.h</text>
</a>
</g>
</g>
<!-- Node2&#45;&gt;Node3 -->
<g id="edge2" class="edge">
<title>Node2&#45;&gt;Node3</title>
<path fill="none" stroke="#63b8ff" d="M3356.55,-444.52C3342.01,-435.03 3325.09,-423.98 3311.93,-415.39"/>
<polygon fill="#63b8ff" stroke="#63b8ff" points="3354.6,-447.43 3364.89,-449.97 3358.43,-441.57 3354.6,-447.43"/>
</g>
<!-- Node368 -->
<g id="node41" class="node">
<title>Node368</title>
<g id="a_node41"><a xlink:href="JAISe_8cpp.html" target="_top" xlink:title=" ">
<polygon fill="white" stroke="#666666" points="3453.4,-349 3342.4,-349 3342.4,-319 3453.4,-319 3453.4,-349"/>
<text text-anchor="start" x="3350.4" y="-337" font-family="Helvetica,sans-Serif" font-size="10.00">libs/JSystem/JAudio2</text>
<text text-anchor="middle" x="3397.9" y="-326" font-family="Helvetica,sans-Serif" font-size="10.00">/JAISe.cpp</text>
</a>
</g>
</g>
<!-- Node2&#45;&gt;Node368 -->
<g id="edge44" class="edge">
<title>Node2&#45;&gt;Node368</title>
<path fill="none" stroke="#63b8ff" d="M3389.88,-439.38C3391.94,-412.49 3395.12,-371.18 3396.79,-349.47"/>
<polygon fill="#63b8ff" stroke="#63b8ff" points="3386.41,-438.84 3389.13,-449.08 3393.39,-439.38 3386.41,-438.84"/>
</g>
<!-- Node2&#45;&gt;Node370 -->
<g id="edge45" class="edge">
<title>Node2&#45;&gt;Node370</title>
<path fill="none" stroke="#63b8ff" d="M3417.08,-444.25C3430.35,-434.82 3445.71,-423.9 3457.67,-415.39"/>
<polygon fill="#63b8ff" stroke="#63b8ff" points="3415.23,-441.27 3409.11,-449.92 3419.29,-446.98 3415.23,-441.27"/>
</g>
<!-- Node4 -->
<g id="node4" class="node">
<title>Node4</title>
<g id="a_node4"><a xlink:href="Z2SoundMgr_8h.html" target="_top" xlink:title=" ">
<polygon fill="white" stroke="#666666" points="3323.9,-349 3223.9,-349 3223.9,-319 3323.9,-319 3323.9,-349"/>
<text text-anchor="start" x="3231.9" y="-337" font-family="Helvetica,sans-Serif" font-size="10.00">include/Z2AudioLib</text>
<text text-anchor="middle" x="3273.9" y="-326" font-family="Helvetica,sans-Serif" font-size="10.00">/Z2SoundMgr.h</text>
</a>
</g>
</g>
<!-- Node3&#45;&gt;Node4 -->
<g id="edge3" class="edge">
<title>Node3&#45;&gt;Node4</title>
<path fill="none" stroke="#63b8ff" d="M3283.57,-373.68C3281.49,-365.34 3279.25,-356.37 3277.44,-349.16"/>
<polygon fill="#63b8ff" stroke="#63b8ff" points="3280.17,-374.48 3285.99,-383.33 3286.96,-372.78 3280.17,-374.48"/>
</g>
<!-- Node3&#45;&gt;Node368 -->
<g id="edge42" class="edge">
<title>Node3&#45;&gt;Node368</title>
<path fill="none" stroke="#63b8ff" d="M3323.8,-378.91C3340.01,-369.31 3359.03,-358.03 3373.75,-349.31"/>
<polygon fill="#63b8ff" stroke="#63b8ff" points="3322.26,-375.76 3315.44,-383.87 3325.83,-381.78 3322.26,-375.76"/>
</g>
<!-- Node369 -->
<g id="node42" class="node">
<title>Node369</title>
<g id="a_node42"><a xlink:href="JAISeMgr_8cpp.html" target="_top" xlink:title=" ">
<polygon fill="white" stroke="#666666" points="3205.4,-349 3094.4,-349 3094.4,-319 3205.4,-319 3205.4,-349"/>
<text text-anchor="start" x="3102.4" y="-337" font-family="Helvetica,sans-Serif" font-size="10.00">libs/JSystem/JAudio2</text>
<text text-anchor="middle" x="3149.9" y="-326" font-family="Helvetica,sans-Serif" font-size="10.00">/JAISeMgr.cpp</text>
</a>
</g>
</g>
<!-- Node3&#45;&gt;Node369 -->
<g id="edge43" class="edge">
<title>Node3&#45;&gt;Node369</title>
<path fill="none" stroke="#63b8ff" d="M3248.03,-379.86C3226.59,-370.05 3200.92,-358.32 3181.22,-349.31"/>
<polygon fill="#63b8ff" stroke="#63b8ff" points="3246.56,-383.03 3257.11,-384.01 3249.47,-376.67 3246.56,-383.03"/>
</g>
<!-- Node5 -->
<g id="node5" class="node">
<title>Node5</title>
<g id="a_node5"><a xlink:href="Z2AudioMgr_8h.html" target="_top" xlink:title=" ">
<polygon fill="white" stroke="#666666" points="3085.9,-283 2985.9,-283 2985.9,-253 3085.9,-253 3085.9,-283"/>
<text text-anchor="start" x="2993.9" y="-271" font-family="Helvetica,sans-Serif" font-size="10.00">include/Z2AudioLib</text>
<text text-anchor="middle" x="3035.9" y="-260" font-family="Helvetica,sans-Serif" font-size="10.00">/Z2AudioMgr.h</text>
</a>
</g>
</g>
<!-- Node4&#45;&gt;Node5 -->
<g id="edge4" class="edge">
<title>Node4&#45;&gt;Node5</title>
<path fill="none" stroke="#63b8ff" d="M3212.43,-316.47C3173.26,-305.94 3123.13,-292.45 3086.3,-282.55"/>
<polygon fill="#63b8ff" stroke="#63b8ff" points="3211.4,-319.82 3221.97,-319.03 3213.22,-313.06 3211.4,-319.82"/>
</g>
<!-- Node365 -->
<g id="node38" class="node">
<title>Node365</title>
<g id="a_node38"><a xlink:href="Z2SceneMgr_8cpp.html" target="_top" xlink:title=" ">
<polygon fill="white" stroke="#666666" points="3265.4,-277.5 3104.4,-277.5 3104.4,-258.5 3265.4,-258.5 3265.4,-277.5"/>
<text text-anchor="middle" x="3184.9" y="-265.5" font-family="Helvetica,sans-Serif" font-size="10.00">libs/Z2AudioLib/Z2SceneMgr.cpp</text>
</a>
</g>
</g>
<!-- Node4&#45;&gt;Node365 -->
<g id="edge39" class="edge">
<title>Node4&#45;&gt;Node365</title>
<path fill="none" stroke="#63b8ff" d="M3245.06,-312.26C3228.87,-300.61 3209.5,-286.69 3197.2,-277.84"/>
<polygon fill="#63b8ff" stroke="#63b8ff" points="3242.76,-314.92 3252.92,-317.91 3246.85,-309.23 3242.76,-314.92"/>
</g>
<!-- Node366 -->
<g id="node39" class="node">
<title>Node366</title>
<g id="a_node39"><a xlink:href="Z2SoundMgr_8cpp.html" target="_top" xlink:title=" ">
<polygon fill="white" stroke="#666666" points="3444.4,-277.5 3283.4,-277.5 3283.4,-258.5 3444.4,-258.5 3444.4,-277.5"/>
<text text-anchor="middle" x="3363.9" y="-265.5" font-family="Helvetica,sans-Serif" font-size="10.00">libs/Z2AudioLib/Z2SoundMgr.cpp</text>
</a>
</g>
</g>
<!-- Node4&#45;&gt;Node366 -->
<g id="edge40" class="edge">
<title>Node4&#45;&gt;Node366</title>
<path fill="none" stroke="#63b8ff" d="M3303.07,-312.26C3319.45,-300.61 3339.03,-286.69 3351.47,-277.84"/>
<polygon fill="#63b8ff" stroke="#63b8ff" points="3301.23,-309.27 3295.11,-317.92 3305.29,-314.98 3301.23,-309.27"/>
</g>
<!-- Node367 -->
<g id="node40" class="node">
<title>Node367</title>
<g id="a_node40"><a xlink:href="Z2WolfHowlMgr_8cpp.html" target="_top" xlink:title=" ">
<polygon fill="white" stroke="#666666" points="3602.9,-283 3462.9,-283 3462.9,-253 3602.9,-253 3602.9,-283"/>
<text text-anchor="start" x="3470.9" y="-271" font-family="Helvetica,sans-Serif" font-size="10.00">libs/Z2AudioLib/Z2WolfHowl</text>
<text text-anchor="middle" x="3532.9" y="-260" font-family="Helvetica,sans-Serif" font-size="10.00">Mgr.cpp</text>
</a>
</g>
</g>
<!-- Node4&#45;&gt;Node367 -->
<g id="edge41" class="edge">
<title>Node4&#45;&gt;Node367</title>
<path fill="none" stroke="#63b8ff" d="M3335.12,-317.87C3377.33,-307.44 3433.1,-293.66 3474.66,-283.39"/>
<polygon fill="#63b8ff" stroke="#63b8ff" points="3334.49,-314.42 3325.62,-320.22 3336.17,-321.22 3334.49,-314.42"/>
</g>
<!-- Node6 -->
<g id="node6" class="node">
<title>Node6</title>
<g id="a_node6"><a xlink:href="m__Do__audio_8h.html" target="_top" xlink:title=" ">
<polygon fill="white" stroke="#666666" points="3022.9,-217 2882.9,-217 2882.9,-198 3022.9,-198 3022.9,-217"/>
<text text-anchor="middle" x="2952.9" y="-205" font-family="Helvetica,sans-Serif" font-size="10.00">include/m_Do/m_Do_audio.h</text>
</a>
</g>
</g>
<!-- Node5&#45;&gt;Node6 -->
<g id="edge5" class="edge">
<title>Node5&#45;&gt;Node6</title>
<path fill="none" stroke="#63b8ff" d="M3006.04,-245.95C2991.97,-236.03 2975.95,-224.74 2965.21,-217.18"/>
<polygon fill="#63b8ff" stroke="#63b8ff" points="3003.96,-248.77 3014.15,-251.67 3007.99,-243.05 3003.96,-248.77"/>
</g>
<!-- Node364 -->
<g id="node37" class="node">
<title>Node364</title>
<g id="a_node37"><a xlink:href="Z2AudioMgr_8cpp.html" target="_top" xlink:title=" ">
<polygon fill="white" stroke="#666666" points="3198.9,-217 3040.9,-217 3040.9,-198 3198.9,-198 3198.9,-217"/>
<text text-anchor="middle" x="3119.9" y="-205" font-family="Helvetica,sans-Serif" font-size="10.00">libs/Z2AudioLib/Z2AudioMgr.cpp</text>
</a>
</g>
</g>
<!-- Node5&#45;&gt;Node364 -->
<g id="edge38" class="edge">
<title>Node5&#45;&gt;Node364</title>
<path fill="none" stroke="#63b8ff" d="M3065.72,-246.24C3080.06,-236.25 3096.48,-224.82 3107.45,-217.18"/>
<polygon fill="#63b8ff" stroke="#63b8ff" points="3064.12,-243.09 3057.91,-251.67 3068.12,-248.83 3064.12,-243.09"/>
</g>
<!-- Node7 -->
<g id="node7" class="node">
<title>Node7</title>
<g id="a_node7"><a xlink:href="m__Do__ext_8h.html" target="_top" xlink:title=" ">
<polygon fill="white" stroke="#666666" points="1371.9,-156.5 1241.9,-156.5 1241.9,-137.5 1371.9,-137.5 1371.9,-156.5"/>
<text text-anchor="middle" x="1306.9" y="-144.5" font-family="Helvetica,sans-Serif" font-size="10.00">include/m_Do/m_Do_ext.h</text>
</a>
</g>
</g>
<!-- Node6&#45;&gt;Node7 -->
<g id="edge6" class="edge">
<title>Node6&#45;&gt;Node7</title>
<path fill="none" stroke="#63b8ff" d="M2871.33,-203.6C2585.21,-193.43 1630.54,-159.5 1371.97,-150.31"/>
<polygon fill="#63b8ff" stroke="#63b8ff" points="2870.81,-207.08 2880.93,-203.94 2871.06,-200.09 2870.81,-207.08"/>
</g>
<!-- Node54 -->
<g id="node13" class="node">
<title>Node54</title>
<g id="a_node13"><a xlink:href="d__kankyo_8cpp.html" target="_top" xlink:title=" ">
<polygon fill="white" stroke="#666666" points="1272.9,-24.5 1138.9,-24.5 1138.9,-5.5 1272.9,-5.5 1272.9,-24.5"/>
<text text-anchor="middle" x="1205.9" y="-12.5" font-family="Helvetica,sans-Serif" font-size="10.00">src/d/kankyo/d_kankyo.cpp</text>
</a>
</g>
</g>
<!-- Node6&#45;&gt;Node54 -->
<g id="edge30" class="edge">
<title>Node6&#45;&gt;Node54</title>
<path fill="none" stroke="#63b8ff" d="M2871.12,-206.62C2405.69,-206.89 108.12,-202.81 6.9,-96 -2.27,-86.32 -2.33,-75.62 6.9,-66 46.29,-24.93 891.9,-17.54 1138.79,-16.26"/>
<polygon fill="#63b8ff" stroke="#63b8ff" points="2870.91,-210.12 2880.91,-206.61 2870.9,-203.12 2870.91,-210.12"/>
</g>
<!-- Node167 -->
<g id="node14" class="node">
<title>Node167</title>
<g id="a_node14"><a xlink:href="d__kankyo__wether_8cpp.html" target="_top" xlink:title=" ">
<polygon fill="white" stroke="#666666" points="2585.9,-30 2469.9,-30 2469.9,0 2585.9,0 2585.9,-30"/>
<text text-anchor="start" x="2477.9" y="-18" font-family="Helvetica,sans-Serif" font-size="10.00">src/d/kankyo/d_kankyo</text>
<text text-anchor="middle" x="2527.9" y="-7" font-family="Helvetica,sans-Serif" font-size="10.00">_wether.cpp</text>
</a>
</g>
</g>
<!-- Node6&#45;&gt;Node167 -->
<g id="edge31" class="edge">
<title>Node6&#45;&gt;Node167</title>
<path fill="none" stroke="#63b8ff" d="M2871.24,-206.1C2776.91,-204.03 2629.11,-195.35 2585.9,-162 2549.58,-133.96 2564.87,-108.64 2547.9,-66 2543.13,-54.01 2537.69,-40.42 2533.69,-30.44"/>
<polygon fill="#63b8ff" stroke="#63b8ff" points="2870.89,-209.59 2880.96,-206.29 2871.03,-202.59 2870.89,-209.59"/>
</g>
<!-- Node12 -->
<g id="node28" class="node">
<title>Node12</title>
<g id="a_node28"><a xlink:href="d__com__inf__game_8cpp.html" target="_top" xlink:title=" ">
<polygon fill="white" stroke="#666666" points="2702.9,-162 2594.9,-162 2594.9,-132 2702.9,-132 2702.9,-162"/>
<text text-anchor="start" x="2602.9" y="-150" font-family="Helvetica,sans-Serif" font-size="10.00">src/d/com/d_com_inf</text>
<text text-anchor="middle" x="2648.9" y="-139" font-family="Helvetica,sans-Serif" font-size="10.00">_game.cpp</text>
</a>
</g>
</g>
<!-- Node6&#45;&gt;Node12 -->
<g id="edge27" class="edge">
<title>Node6&#45;&gt;Node12</title>
<path fill="none" stroke="#63b8ff" d="M2890.25,-195.57C2841.54,-186.92 2772.31,-174.29 2711.9,-162 2709.05,-161.42 2706.12,-160.81 2703.17,-160.19"/>
<polygon fill="#63b8ff" stroke="#63b8ff" points="2889.61,-199.01 2900.07,-197.31 2890.83,-192.12 2889.61,-199.01"/>
</g>
<!-- Node153 -->
<g id="node29" class="node">
<title>Node153</title>
<g id="a_node29"><a xlink:href="d__name_8cpp.html" target="_top" xlink:title=" ">
<polygon fill="white" stroke="#666666" points="2814.9,-156.5 2720.9,-156.5 2720.9,-137.5 2814.9,-137.5 2814.9,-156.5"/>
<text text-anchor="middle" x="2767.9" y="-144.5" font-family="Helvetica,sans-Serif" font-size="10.00">src/d/d_name.cpp</text>
</a>
</g>
</g>
<!-- Node6&#45;&gt;Node153 -->
<g id="edge28" class="edge">
<title>Node6&#45;&gt;Node153</title>
<path fill="none" stroke="#63b8ff" d="M2913.97,-194.19C2878.76,-183.06 2827.75,-166.92 2796.27,-156.97"/>
<polygon fill="#63b8ff" stroke="#63b8ff" points="2912.77,-197.48 2923.36,-197.16 2914.88,-190.81 2912.77,-197.48"/>
</g>
<!-- Node163 -->
<g id="node30" class="node">
<title>Node163</title>
<g id="a_node30"><a xlink:href="d__event__manager_8cpp.html" target="_top" xlink:title=" ">
<polygon fill="white" stroke="#666666" points="2936.4,-162 2833.4,-162 2833.4,-132 2936.4,-132 2936.4,-162"/>
<text text-anchor="start" x="2841.4" y="-150" font-family="Helvetica,sans-Serif" font-size="10.00">src/d/event/d_event</text>
<text text-anchor="middle" x="2884.9" y="-139" font-family="Helvetica,sans-Serif" font-size="10.00">_manager.cpp</text>
</a>
</g>
</g>
<!-- Node6&#45;&gt;Node163 -->
<g id="edge29" class="edge">
<title>Node6&#45;&gt;Node163</title>
<path fill="none" stroke="#63b8ff" d="M2934.04,-190.27C2923.89,-181.54 2911.49,-170.87 2901.69,-162.44"/>
<polygon fill="#63b8ff" stroke="#63b8ff" points="2931.57,-192.76 2941.43,-196.63 2936.13,-187.45 2931.57,-192.76"/>
</g>
<!-- Node16 -->
<g id="node31" class="node">
<title>Node16</title>
<g id="a_node31"><a xlink:href="d__msg__flow_8cpp.html" target="_top" xlink:title=" ">
<polygon fill="white" stroke="#666666" points="3087.4,-156.5 2954.4,-156.5 2954.4,-137.5 3087.4,-137.5 3087.4,-156.5"/>
<text text-anchor="middle" x="3020.9" y="-144.5" font-family="Helvetica,sans-Serif" font-size="10.00">src/d/msg/d_msg_flow.cpp</text>
</a>
</g>
</g>
<!-- Node6&#45;&gt;Node16 -->
<g id="edge32" class="edge">
<title>Node6&#45;&gt;Node16</title>
<path fill="none" stroke="#63b8ff" d="M2971.6,-190.41C2984.13,-179.64 3000.16,-165.85 3010.48,-156.97"/>
<polygon fill="#63b8ff" stroke="#63b8ff" points="2969.68,-187.45 2964.38,-196.63 2974.24,-192.76 2969.68,-187.45"/>
</g>
<!-- Node183 -->
<g id="node32" class="node">
<title>Node183</title>
<g id="a_node32"><a xlink:href="d__s__name_8cpp.html" target="_top" xlink:title=" ">
<polygon fill="white" stroke="#666666" points="3218.4,-156.5 3105.4,-156.5 3105.4,-137.5 3218.4,-137.5 3218.4,-156.5"/>
<text text-anchor="middle" x="3161.9" y="-144.5" font-family="Helvetica,sans-Serif" font-size="10.00">src/d/s/d_s_name.cpp</text>
</a>
</g>
</g>
<!-- Node6&#45;&gt;Node183 -->
<g id="edge33" class="edge">
<title>Node6&#45;&gt;Node183</title>
<path fill="none" stroke="#63b8ff" d="M2995.6,-194.55C3035.41,-183.41 3093.91,-167.03 3129.86,-156.97"/>
<polygon fill="#63b8ff" stroke="#63b8ff" points="2994.79,-191.14 2986.1,-197.21 2996.68,-197.88 2994.79,-191.14"/>
</g>
<!-- Node60 -->
<g id="node33" class="node">
<title>Node60</title>
<g id="a_node33"><a xlink:href="d__s__play_8cpp.html" target="_top" xlink:title=" ">
<polygon fill="white" stroke="#666666" points="3342.9,-156.5 3236.9,-156.5 3236.9,-137.5 3342.9,-137.5 3342.9,-156.5"/>
<text text-anchor="middle" x="3289.9" y="-144.5" font-family="Helvetica,sans-Serif" font-size="10.00">src/d/s/d_s_play.cpp</text>
</a>
</g>
</g>
<!-- Node6&#45;&gt;Node60 -->
<g id="edge34" class="edge">
<title>Node6&#45;&gt;Node60</title>
<path fill="none" stroke="#63b8ff" d="M3025.67,-195.85C3081,-187.47 3158.94,-175.06 3226.9,-162 3234.83,-160.48 3243.28,-158.7 3251.33,-156.94"/>
<polygon fill="#63b8ff" stroke="#63b8ff" points="3025.43,-192.35 3016.06,-197.3 3026.47,-199.27 3025.43,-192.35"/>
</g>
<!-- Node21 -->
<g id="node34" class="node">
<title>Node21</title>
<g id="a_node34"><a xlink:href="d__shop__system_8cpp.html" target="_top" xlink:title=" ">
<polygon fill="white" stroke="#666666" points="3512.9,-156.5 3360.9,-156.5 3360.9,-137.5 3512.9,-137.5 3512.9,-156.5"/>
<text text-anchor="middle" x="3436.9" y="-144.5" font-family="Helvetica,sans-Serif" font-size="10.00">src/d/shop/d_shop_system.cpp</text>
</a>
</g>
</g>
<!-- Node6&#45;&gt;Node21 -->
<g id="edge35" class="edge">
<title>Node6&#45;&gt;Node21</title>
<path fill="none" stroke="#63b8ff" d="M3034.3,-197.65C3141.85,-185.93 3321.31,-166.22 3351.9,-162 3362.72,-160.51 3374.28,-158.73 3385.28,-156.95"/>
<polygon fill="#63b8ff" stroke="#63b8ff" points="3034.23,-194.14 3024.67,-198.7 3034.99,-201.1 3034.23,-194.14"/>
</g>
<!-- Node363 -->
<g id="node35" class="node">
<title>Node363</title>
<g id="a_node35"><a xlink:href="m__Do__Reset_8cpp.html" target="_top" xlink:title=" ">
<polygon fill="white" stroke="#666666" points="3666.9,-156.5 3530.9,-156.5 3530.9,-137.5 3666.9,-137.5 3666.9,-156.5"/>
<text text-anchor="middle" x="3598.9" y="-144.5" font-family="Helvetica,sans-Serif" font-size="10.00">src/m_Do/m_Do_Reset.cpp</text>
</a>
</g>
</g>
<!-- Node6&#45;&gt;Node363 -->
<g id="edge36" class="edge">
<title>Node6&#45;&gt;Node363</title>
<path fill="none" stroke="#63b8ff" d="M3034.56,-197.8C3251.34,-178.69 3308.99,-189.1 3521.9,-162 3532.42,-160.66 3543.67,-158.84 3554.24,-156.95"/>
<polygon fill="#63b8ff" stroke="#63b8ff" points="3034.26,-194.31 3024.61,-198.69 3034.88,-201.28 3034.26,-194.31"/>
</g>
<!-- Node190 -->
<g id="node36" class="node">
<title>Node190</title>
<g id="a_node36"><a xlink:href="m__Do__audio_8cpp.html" target="_top" xlink:title=" ">
<polygon fill="white" stroke="#666666" points="3818.9,-156.5 3684.9,-156.5 3684.9,-137.5 3818.9,-137.5 3818.9,-156.5"/>
<text text-anchor="middle" x="3751.9" y="-144.5" font-family="Helvetica,sans-Serif" font-size="10.00">src/m_Do/m_Do_audio.cpp</text>
</a>
</g>
</g>
<!-- Node6&#45;&gt;Node190 -->
<g id="edge37" class="edge">
<title>Node6&#45;&gt;Node190</title>
<path fill="none" stroke="#63b8ff" d="M3034.21,-197.86C3319.52,-175.19 3394.88,-195.6 3675.9,-162 3686.56,-160.73 3697.98,-158.88 3708.64,-156.95"/>
<polygon fill="#63b8ff" stroke="#63b8ff" points="3034.29,-194.34 3024.61,-198.64 3034.86,-201.32 3034.29,-194.34"/>
</g>
<!-- Node8 -->
<g id="node8" class="node">
<title>Node8</title>
<g id="a_node8"><a xlink:href="d__attention_8h.html" target="_top" xlink:title=" ">
<polygon fill="#fff0f0" stroke="red" points="2294.9,-90.5 2180.9,-90.5 2180.9,-71.5 2294.9,-71.5 2294.9,-90.5"/>
<text text-anchor="middle" x="2237.9" y="-78.5" font-family="Helvetica,sans-Serif" font-size="10.00">include/d/d_attention.h</text>
</a>
</g>
</g>
<!-- Node7&#45;&gt;Node8 -->
<g id="edge7" class="edge">
<title>Node7&#45;&gt;Node8</title>
<path fill="none" stroke="#63b8ff" d="M1383.77,-145.45C1535.24,-143.51 1882.75,-134.8 2171.9,-96 2181.19,-94.75 2191.12,-92.92 2200.38,-90.99"/>
<polygon fill="#63b8ff" stroke="#63b8ff" points="1383.8,-141.95 1373.84,-145.57 1383.89,-148.95 1383.8,-141.95"/>
</g>
<!-- Node198 -->
<g id="node9" class="node">
<title>Node198</title>
<g id="a_node9"><a xlink:href="d__drawlist_8h.html" target="_top" xlink:title=" ">
<polygon fill="#fff0f0" stroke="red" points="2422.9,-90.5 2312.9,-90.5 2312.9,-71.5 2422.9,-71.5 2422.9,-90.5"/>
<text text-anchor="middle" x="2367.9" y="-78.5" font-family="Helvetica,sans-Serif" font-size="10.00">include/d/d_drawlist.h</text>
</a>
</g>
</g>
<!-- Node7&#45;&gt;Node198 -->
<g id="edge8" class="edge">
<title>Node7&#45;&gt;Node198</title>
<path fill="none" stroke="#63b8ff" d="M1383.69,-146.46C1551.45,-146.51 1962.98,-141.52 2303.9,-96 2313.04,-94.78 2322.8,-92.93 2331.87,-90.97"/>
<polygon fill="#63b8ff" stroke="#63b8ff" points="1383.79,-142.96 1373.79,-146.45 1383.78,-149.96 1383.79,-142.96"/>
</g>
<!-- Node241 -->
<g id="node10" class="node">
<title>Node241</title>
<g id="a_node10"><a xlink:href="d__ky__thunder_8h.html" target="_top" xlink:title=" ">
<polygon fill="#fff0f0" stroke="red" points="139.9,-90.5 15.9,-90.5 15.9,-71.5 139.9,-71.5 139.9,-90.5"/>
<text text-anchor="middle" x="77.9" y="-78.5" font-family="Helvetica,sans-Serif" font-size="10.00">include/d/d_ky_thunder.h</text>
</a>
</g>
</g>
<!-- Node7&#45;&gt;Node241 -->
<g id="edge9" class="edge">
<title>Node7&#45;&gt;Node241</title>
<path fill="none" stroke="#63b8ff" d="M1230.37,-146.69C1044.41,-147.5 554.27,-144.43 148.9,-96 138.8,-94.79 127.98,-92.95 117.91,-90.99"/>
<polygon fill="#63b8ff" stroke="#63b8ff" points="1230.15,-150.19 1240.14,-146.64 1230.12,-143.19 1230.15,-150.19"/>
</g>
<!-- Node242 -->
<g id="node11" class="node">
<title>Node242</title>
<g id="a_node11"><a xlink:href="d__resorce_8h.html" target="_top" xlink:title=" ">
<polygon fill="#fff0f0" stroke="red" points="267.4,-90.5 158.4,-90.5 158.4,-71.5 267.4,-71.5 267.4,-90.5"/>
<text text-anchor="middle" x="212.9" y="-78.5" font-family="Helvetica,sans-Serif" font-size="10.00">include/d/d_resorce.h</text>
</a>
</g>
</g>
<!-- Node7&#45;&gt;Node242 -->
<g id="edge10" class="edge">
<title>Node7&#45;&gt;Node242</title>
<path fill="none" stroke="#63b8ff" d="M1230.06,-146.64C1058.36,-147.1 630.82,-142.97 276.9,-96 267.77,-94.79 258.01,-92.94 248.93,-90.98"/>
<polygon fill="#63b8ff" stroke="#63b8ff" points="1229.99,-150.14 1239.98,-146.6 1229.96,-143.14 1229.99,-150.14"/>
</g>
<!-- Node243 -->
<g id="node12" class="node">
<title>Node243</title>
<g id="a_node12"><a xlink:href="d__kankyo_8h.html" target="_top" xlink:title=" ">
<polygon fill="#fff0f0" stroke="red" points="2538.9,-96 2440.9,-96 2440.9,-66 2538.9,-66 2538.9,-96"/>
<text text-anchor="start" x="2448.9" y="-84" font-family="Helvetica,sans-Serif" font-size="10.00">include/d/kankyo/d</text>
<text text-anchor="middle" x="2489.9" y="-73" font-family="Helvetica,sans-Serif" font-size="10.00">_kankyo.h</text>
</a>
</g>
</g>
<!-- Node7&#45;&gt;Node243 -->
<g id="edge11" class="edge">
<title>Node7&#45;&gt;Node243</title>
<path fill="none" stroke="#63b8ff" d="M1383.54,-144.52C1602.61,-139.97 2228.78,-124.76 2431.9,-96 2434.78,-95.59 2437.71,-95.11 2440.67,-94.57"/>
<polygon fill="#63b8ff" stroke="#63b8ff" points="1383.62,-141.01 1373.69,-144.72 1383.76,-148.01 1383.62,-141.01"/>
</g>
<!-- Node202 -->
<g id="node15" class="node">
<title>Node202</title>
<g id="a_node15"><a xlink:href="d__a__do_8h.html" target="_top" xlink:title=" ">
<polygon fill="white" stroke="#666666" points="381.9,-96 285.9,-96 285.9,-66 381.9,-66 381.9,-96"/>
<text text-anchor="start" x="293.9" y="-84" font-family="Helvetica,sans-Serif" font-size="10.00">include/rel/d/a/d_a</text>
<text text-anchor="middle" x="333.9" y="-73" font-family="Helvetica,sans-Serif" font-size="10.00">_do/d_a_do.h</text>
</a>
</g>
</g>
<!-- Node7&#45;&gt;Node202 -->
<g id="edge14" class="edge">
<title>Node7&#45;&gt;Node202</title>
<path fill="none" stroke="#63b8ff" d="M1230.05,-146.62C1072,-146.83 699.43,-141.9 390.9,-96 388.08,-95.58 385.2,-95.08 382.29,-94.54"/>
<polygon fill="#63b8ff" stroke="#63b8ff" points="1230.01,-150.12 1240,-146.6 1229.99,-143.12 1230.01,-150.12"/>
</g>
<!-- Node355 -->
<g id="node16" class="node">
<title>Node355</title>
<g id="a_node16"><a xlink:href="DynamicLink_8cpp.html" target="_top" xlink:title=" ">
<polygon fill="white" stroke="#666666" points="507.4,-90.5 400.4,-90.5 400.4,-71.5 507.4,-71.5 507.4,-90.5"/>
<text text-anchor="middle" x="453.9" y="-78.5" font-family="Helvetica,sans-Serif" font-size="10.00">src/DynamicLink.cpp</text>
</a>
</g>
</g>
<!-- Node7&#45;&gt;Node355 -->
<g id="edge15" class="edge">
<title>Node7&#45;&gt;Node355</title>
<path fill="none" stroke="#63b8ff" d="M1230.3,-145.19C1088.57,-142.81 776.16,-133.37 515.9,-96 507.17,-94.75 497.83,-92.91 489.13,-90.97"/>
<polygon fill="#63b8ff" stroke="#63b8ff" points="1229.86,-148.69 1239.92,-145.35 1229.98,-141.69 1229.86,-148.69"/>
</g>
<!-- Node134 -->
<g id="node17" class="node">
<title>Node134</title>
<g id="a_node17"><a xlink:href="c__dylink_8cpp.html" target="_top" xlink:title=" ">
<polygon fill="white" stroke="#666666" points="620.4,-90.5 525.4,-90.5 525.4,-71.5 620.4,-71.5 620.4,-90.5"/>
<text text-anchor="middle" x="572.9" y="-78.5" font-family="Helvetica,sans-Serif" font-size="10.00">src/c/c_dylink.cpp</text>
</a>
</g>
</g>
<!-- Node7&#45;&gt;Node134 -->
<g id="edge16" class="edge">
<title>Node7&#45;&gt;Node134</title>
<path fill="none" stroke="#63b8ff" d="M1230.07,-144.61C1103.85,-141.38 845.03,-130.72 628.9,-96 620.99,-94.73 612.55,-92.88 604.69,-90.95"/>
<polygon fill="#63b8ff" stroke="#63b8ff" points="1229.9,-148.11 1239.98,-144.86 1230.07,-141.11 1229.9,-148.11"/>
</g>
<!-- Node356 -->
<g id="node18" class="node">
<title>Node356</title>
<g id="a_node18"><a xlink:href="d__pane__class_8cpp.html" target="_top" xlink:title=" ">
<polygon fill="white" stroke="#666666" points="781.4,-90.5 638.4,-90.5 638.4,-71.5 781.4,-71.5 781.4,-90.5"/>
<text text-anchor="middle" x="709.9" y="-78.5" font-family="Helvetica,sans-Serif" font-size="10.00">src/d/pane/d_pane_class.cpp</text>
</a>
</g>
</g>
<!-- Node7&#45;&gt;Node356 -->
<g id="edge17" class="edge">
<title>Node7&#45;&gt;Node356</title>
<path fill="none" stroke="#63b8ff" d="M1230.1,-140.43C1128.95,-132.66 945.64,-117.13 789.9,-96 779.42,-94.58 768.22,-92.79 757.61,-90.97"/>
<polygon fill="#63b8ff" stroke="#63b8ff" points="1229.68,-143.9 1239.92,-141.17 1230.21,-136.92 1229.68,-143.9"/>
</g>
<!-- Node357 -->
<g id="node19" class="node">
<title>Node357</title>
<g id="a_node19"><a xlink:href="d__pane__class__alpha_8cpp.html" target="_top" xlink:title=" ">
<polygon fill="white" stroke="#666666" points="924.4,-96 799.4,-96 799.4,-66 924.4,-66 924.4,-96"/>
<text text-anchor="start" x="807.4" y="-84" font-family="Helvetica,sans-Serif" font-size="10.00">src/d/pane/d_pane_class</text>
<text text-anchor="middle" x="861.9" y="-73" font-family="Helvetica,sans-Serif" font-size="10.00">_alpha.cpp</text>
</a>
</g>
</g>
<!-- Node7&#45;&gt;Node357 -->
<g id="edge18" class="edge">
<title>Node7&#45;&gt;Node357</title>
<path fill="none" stroke="#63b8ff" d="M1230.21,-137.15C1154.46,-128.08 1035.41,-112.94 932.9,-96 930.18,-95.55 927.39,-95.07 924.59,-94.58"/>
<polygon fill="#63b8ff" stroke="#63b8ff" points="1229.68,-140.61 1240.02,-138.32 1230.51,-133.66 1229.68,-140.61"/>
</g>
<!-- Node126 -->
<g id="node20" class="node">
<title>Node126</title>
<g id="a_node20"><a xlink:href="f__op__actor__mng_8cpp.html" target="_top" xlink:title=" ">
<polygon fill="white" stroke="#666666" points="1043.4,-96 942.4,-96 942.4,-66 1043.4,-66 1043.4,-96"/>
<text text-anchor="start" x="950.4" y="-84" font-family="Helvetica,sans-Serif" font-size="10.00">src/f_op/f_op_actor</text>
<text text-anchor="middle" x="992.9" y="-73" font-family="Helvetica,sans-Serif" font-size="10.00">_mng.cpp</text>
</a>
</g>
</g>
<!-- Node7&#45;&gt;Node126 -->
<g id="edge19" class="edge">
<title>Node7&#45;&gt;Node126</title>
<path fill="none" stroke="#63b8ff" d="M1247.08,-134.96C1195.31,-125.24 1118.51,-110.43 1051.9,-96 1049.23,-95.42 1046.49,-94.81 1043.72,-94.19"/>
<polygon fill="#63b8ff" stroke="#63b8ff" points="1246.42,-138.39 1256.89,-136.79 1247.7,-131.51 1246.42,-138.39"/>
</g>
<!-- Node358 -->
<g id="node21" class="node">
<title>Node358</title>
<g id="a_node21"><a xlink:href="m__Do__DVDError_8cpp.html" target="_top" xlink:title=" ">
<polygon fill="white" stroke="#666666" points="1212.4,-90.5 1061.4,-90.5 1061.4,-71.5 1212.4,-71.5 1212.4,-90.5"/>
<text text-anchor="middle" x="1136.9" y="-78.5" font-family="Helvetica,sans-Serif" font-size="10.00">src/m_Do/m_Do_DVDError.cpp</text>
</a>
</g>
</g>
<!-- Node7&#45;&gt;Node358 -->
<g id="edge20" class="edge">
<title>Node7&#45;&gt;Node358</title>
<path fill="none" stroke="#63b8ff" d="M1272.66,-133.11C1239.39,-120.58 1189.75,-101.89 1160.61,-90.93"/>
<polygon fill="#63b8ff" stroke="#63b8ff" points="1271.26,-136.32 1281.85,-136.57 1273.72,-129.77 1271.26,-136.32"/>
</g>
<!-- Node359 -->
<g id="node22" class="node">
<title>Node359</title>
<g id="a_node22"><a xlink:href="m__Do__MemCard_8cpp.html" target="_top" xlink:title=" ">
<polygon fill="white" stroke="#666666" points="1382.9,-90.5 1230.9,-90.5 1230.9,-71.5 1382.9,-71.5 1382.9,-90.5"/>
<text text-anchor="middle" x="1306.9" y="-78.5" font-family="Helvetica,sans-Serif" font-size="10.00">src/m_Do/m_Do_MemCard.cpp</text>
</a>
</g>
</g>
<!-- Node7&#45;&gt;Node359 -->
<g id="edge21" class="edge">
<title>Node7&#45;&gt;Node359</title>
<path fill="none" stroke="#63b8ff" d="M1306.9,-125.68C1306.9,-113.94 1306.9,-99.77 1306.9,-90.82"/>
<polygon fill="#63b8ff" stroke="#63b8ff" points="1303.4,-125.59 1306.9,-135.59 1310.4,-125.59 1303.4,-125.59"/>
</g>
<!-- Node360 -->
<g id="node23" class="node">
<title>Node360</title>
<g id="a_node23"><a xlink:href="m__Do__dvd__thread_8cpp.html" target="_top" xlink:title=" ">
<polygon fill="white" stroke="#666666" points="1558.9,-90.5 1400.9,-90.5 1400.9,-71.5 1558.9,-71.5 1558.9,-90.5"/>
<text text-anchor="middle" x="1479.9" y="-78.5" font-family="Helvetica,sans-Serif" font-size="10.00">src/m_Do/m_Do_dvd_thread.cpp</text>
</a>
</g>
</g>
<!-- Node7&#45;&gt;Node360 -->
<g id="edge22" class="edge">
<title>Node7&#45;&gt;Node360</title>
<path fill="none" stroke="#63b8ff" d="M1341.75,-133.11C1375.61,-120.58 1426.13,-101.89 1455.78,-90.93"/>
<polygon fill="#63b8ff" stroke="#63b8ff" points="1340.54,-129.82 1332.38,-136.58 1342.97,-136.39 1340.54,-129.82"/>
</g>
<!-- Node191 -->
<g id="node24" class="node">
<title>Node191</title>
<g id="a_node24"><a xlink:href="m__Do__ext_8cpp.html" target="_top" xlink:title=" ">
<polygon fill="white" stroke="#666666" points="1700.4,-90.5 1577.4,-90.5 1577.4,-71.5 1700.4,-71.5 1700.4,-90.5"/>
<text text-anchor="middle" x="1638.9" y="-78.5" font-family="Helvetica,sans-Serif" font-size="10.00">src/m_Do/m_Do_ext.cpp</text>
</a>
</g>
</g>
<!-- Node7&#45;&gt;Node191 -->
<g id="edge23" class="edge">
<title>Node7&#45;&gt;Node191</title>
<path fill="none" stroke="#63b8ff" d="M1365.26,-134.91C1418.17,-124.84 1498.29,-109.53 1567.9,-96 1576.17,-94.39 1584.97,-92.67 1593.46,-91"/>
<polygon fill="#63b8ff" stroke="#63b8ff" points="1364.73,-131.45 1355.56,-136.76 1366.03,-138.33 1364.73,-131.45"/>
</g>
<!-- Node361 -->
<g id="node25" class="node">
<title>Node361</title>
<g id="a_node25"><a xlink:href="m__Do__machine_8cpp.html" target="_top" xlink:title=" ">
<polygon fill="white" stroke="#666666" points="1865.4,-90.5 1718.4,-90.5 1718.4,-71.5 1865.4,-71.5 1865.4,-90.5"/>
<text text-anchor="middle" x="1791.9" y="-78.5" font-family="Helvetica,sans-Serif" font-size="10.00">src/m_Do/m_Do_machine.cpp</text>
</a>
</g>
</g>
<!-- Node7&#45;&gt;Node361 -->
<g id="edge24" class="edge">
<title>Node7&#45;&gt;Node361</title>
<path fill="none" stroke="#63b8ff" d="M1383.2,-137.51C1464.16,-128.26 1595.75,-112.57 1708.9,-96 1719.31,-94.48 1730.43,-92.7 1741.04,-90.94"/>
<polygon fill="#63b8ff" stroke="#63b8ff" points="1383.17,-133.99 1373.63,-138.6 1383.96,-140.94 1383.17,-133.99"/>
</g>
<!-- Node194 -->
<g id="node26" class="node">
<title>Node194</title>
<g id="a_node26"><a xlink:href="m__Do__machine__exception_8cpp.html" target="_top" xlink:title=" ">
<polygon fill="white" stroke="#666666" points="2012.4,-96 1883.4,-96 1883.4,-66 2012.4,-66 2012.4,-96"/>
<text text-anchor="start" x="1891.4" y="-84" font-family="Helvetica,sans-Serif" font-size="10.00">src/m_Do/m_Do_machine</text>
<text text-anchor="middle" x="1947.9" y="-73" font-family="Helvetica,sans-Serif" font-size="10.00">_exception.cpp</text>
</a>
</g>
</g>
<!-- Node7&#45;&gt;Node194 -->
<g id="edge25" class="edge">
<title>Node7&#45;&gt;Node194</title>
<path fill="none" stroke="#63b8ff" d="M1383.41,-141.67C1492.6,-134.93 1699.24,-120.16 1873.9,-96 1876.88,-95.59 1879.92,-95.14 1882.99,-94.66"/>
<polygon fill="#63b8ff" stroke="#63b8ff" points="1383.47,-138.16 1373.7,-142.26 1383.9,-145.14 1383.47,-138.16"/>
</g>
<!-- Node362 -->
<g id="node27" class="node">
<title>Node362</title>
<g id="a_node27"><a xlink:href="m__Do__printf_8cpp.html" target="_top" xlink:title=" ">
<polygon fill="white" stroke="#666666" points="2162.9,-90.5 2030.9,-90.5 2030.9,-71.5 2162.9,-71.5 2162.9,-90.5"/>
<text text-anchor="middle" x="2096.9" y="-78.5" font-family="Helvetica,sans-Serif" font-size="10.00">src/m_Do/m_Do_printf.cpp</text>
</a>
</g>
</g>
<!-- Node7&#45;&gt;Node362 -->
<g id="edge26" class="edge">
<title>Node7&#45;&gt;Node362</title>
<path fill="none" stroke="#63b8ff" d="M1383.58,-143.45C1514.64,-138.47 1789.95,-125.26 2020.9,-96 2031.29,-94.68 2042.4,-92.87 2052.83,-90.98"/>
<polygon fill="#63b8ff" stroke="#63b8ff" points="1383.49,-139.96 1373.63,-143.83 1383.75,-146.95 1383.49,-139.96"/>
</g>
<!-- Node243&#45;&gt;Node54 -->
<g id="edge12" class="edge">
<title>Node243&#45;&gt;Node54</title>
<path fill="none" stroke="#63b8ff" d="M2429.29,-65.88C2183.17,-33.91 1491.87,-20.54 1273.11,-17"/>
<polygon fill="#63b8ff" stroke="#63b8ff" points="2428.79,-69.35 2439.17,-67.22 2429.73,-62.41 2428.79,-69.35"/>
</g>
<!-- Node243&#45;&gt;Node167 -->
<g id="edge13" class="edge">
<title>Node243&#45;&gt;Node167</title>
<path fill="none" stroke="#63b8ff" d="M2504.09,-56.11C2509.27,-47.38 2514.97,-37.78 2519.49,-30.16"/>
<polygon fill="#63b8ff" stroke="#63b8ff" points="2501.21,-54.11 2499.11,-64.49 2507.23,-57.68 2501.21,-54.11"/>
</g>
<!-- Node371&#45;&gt;Node370 -->
<g id="edge48" class="edge">
<title>Node371&#45;&gt;Node370</title>
<path fill="none" stroke="#63b8ff" d="M3541.83,-444.52C3527.89,-435.03 3511.65,-423.98 3499.03,-415.39"/>
<polygon fill="#63b8ff" stroke="#63b8ff" points="3539.56,-447.21 3549.79,-449.94 3543.49,-441.42 3539.56,-447.21"/>
</g>
<!-- Node372 -->
<g id="node45" class="node">
<title>Node372</title>
<g id="a_node45"><a xlink:href="JAISeq_8cpp.html" target="_top" xlink:title=" ">
<polygon fill="white" stroke="#666666" points="3662.4,-415 3551.4,-415 3551.4,-385 3662.4,-385 3662.4,-415"/>
<text text-anchor="start" x="3559.4" y="-403" font-family="Helvetica,sans-Serif" font-size="10.00">libs/JSystem/JAudio2</text>
<text text-anchor="middle" x="3606.9" y="-392" font-family="Helvetica,sans-Serif" font-size="10.00">/JAISeq.cpp</text>
</a>
</g>
</g>
<!-- Node371&#45;&gt;Node372 -->
<g id="edge47" class="edge">
<title>Node371&#45;&gt;Node372</title>
<path fill="none" stroke="#63b8ff" d="M3585.12,-440.83C3589.86,-432.17 3595.04,-422.7 3599.16,-415.16"/>
<polygon fill="#63b8ff" stroke="#63b8ff" points="3582.13,-439.02 3580.4,-449.47 3588.27,-442.37 3582.13,-439.02"/>
</g>
</g>
</svg>
        <g id="navigator" transform="translate(0 0)" fill="#404254">
                <rect fill="#f2f5e9" fill-opacity="0.5" stroke="#606060" stroke-width=".5" x="0" y="0" width="60" height="60"/>
                <use id="zoomplus" xlink:href="#zoomPlus" x="17" y="9" onmousedown="handleZoom(evt,'in')"/>
                <use id="zoomminus" xlink:href="#zoomMin" x="42" y="9" onmousedown="handleZoom(evt,'out')"/>
                <use id="reset" xlink:href="#resetDef" x="30" y="36" onmousedown="handleReset()"/>
                <g id="arrowUp" xlink:href="#dirArrow" transform="translate(30 24)" onmousedown="handlePan(0,-1)">
                  <use xlink:href="#rim" fill="#404040">
                        <set attributeName="fill" to="#808080" begin="arrowUp.mouseover" end="arrowUp.mouseout"/>
                  </use>
                  <path fill="none" stroke="white" stroke-width="1.5" d="M0,-3.0v7 M-2.5,-0.5L0,-3.0L2.5,-0.5"/>
                </g>
                <g id="arrowRight" xlink:href="#dirArrow" transform="rotate(90) translate(36 -43)" onmousedown="handlePan(1,0)">
                  <use xlink:href="#rim" fill="#404040">
                        <set attributeName="fill" to="#808080" begin="arrowRight.mouseover" end="arrowRight.mouseout"/>
                  </use>
                  <path fill="none" stroke="white" stroke-width="1.5" d="M0,-3.0v7 M-2.5,-0.5L0,-3.0L2.5,-0.5"/>
                </g>
                <g id="arrowDown" xlink:href="#dirArrow" transform="rotate(180) translate(-30 -48)" onmousedown="handlePan(0,1)">
                  <use xlink:href="#rim" fill="#404040">
                        <set attributeName="fill" to="#808080" begin="arrowDown.mouseover" end="arrowDown.mouseout"/>
                  </use>
                  <path fill="none" stroke="white" stroke-width="1.5" d="M0,-3.0v7 M-2.5,-0.5L0,-3.0L2.5,-0.5"/>
                </g>
                <g id="arrowLeft" xlink:href="#dirArrow" transform="rotate(270) translate(-36 17)" onmousedown="handlePan(-1,0)">
                  <use xlink:href="#rim" fill="#404040">
                        <set attributeName="fill" to="#808080" begin="arrowLeft.mouseover" end="arrowLeft.mouseout"/>
                  </use>
                  <path fill="none" stroke="white" stroke-width="1.5" d="M0,-3.0v7 M-2.5,-0.5L0,-3.0L2.5,-0.5"/>
                </g>
        </g>
        <svg viewBox="0 0 15 15" width="100%" height="30px" preserveAspectRatio="xMaxYMin meet">
         <g id="arrow_out" transform="scale(0.3 0.3)">
          <a xlink:href="JASTrack_8h__dep__incl_org.svg" target="_base">
           <rect id="button" ry="5" rx="5" y="6" x="6" height="38" width="38"
                fill="#f2f5e9" fill-opacity="0.5" stroke="#606060" stroke-width="1.0"/>
           <path id="arrow"
             d="M 11.500037,31.436501 C 11.940474,20.09759 22.043105,11.32322 32.158766,21.979434 L 37.068811,17.246167 C 37.068811,17.246167 37.088388,32 37.088388,32 L 22.160133,31.978069 C 22.160133,31.978069 26.997745,27.140456 26.997745,27.140456 C 18.528582,18.264221 13.291696,25.230495 11.500037,31.436501 z"
             style="fill:#404040;"/>
          </a>
         </g>
        </svg>
</svg>
