<?xml version="1.0" encoding="UTF-8" standalone="no"?>
<!DOCTYPE svg PUBLIC "-//W3C//DTD SVG 1.1//EN"
 "http://www.w3.org/Graphics/SVG/1.1/DTD/svg11.dtd">
<!-- Generated by graphviz version 7.0.5 (20221223.1930)
 -->
<!-- Title: include/JSystem/JAudio2/JASTrack.h Pages: 1 -->
<svg width="4186pt" height="555pt"
 viewBox="0.00 0.00 4186.37 555.00" xmlns="http://www.w3.org/2000/svg" xmlns:xlink="http://www.w3.org/1999/xlink">
<g id="graph0" class="graph" transform="scale(1 1) rotate(0) translate(4 551)">
<title>include/JSystem/JAudio2/JASTrack.h</title>
<!-- Node1 -->
<g id="node1" class="node">
<title>Node1</title>
<g id="a_node1"><a xlink:title=" ">
<polygon fill="#999999" stroke="#666666" points="3734.37,-547 3607.37,-547 3607.37,-517 3734.37,-517 3734.37,-547"/>
<text text-anchor="start" x="3615.37" y="-535" font-family="Helvetica,sans-Serif" font-size="10.00">include/JSystem/JAudio2</text>
<text text-anchor="middle" x="3670.87" y="-524" font-family="Helvetica,sans-Serif" font-size="10.00">/JASTrack.h</text>
</a>
</g>
</g>
<!-- Node2 -->
<g id="node2" class="node">
<title>Node2</title>
<g id="a_node2"><a xlink:href="JAISe_8h.html" target="_top" xlink:title=" ">
<polygon fill="white" stroke="#666666" points="3349.37,-481 3222.37,-481 3222.37,-451 3349.37,-451 3349.37,-481"/>
<text text-anchor="start" x="3230.37" y="-469" font-family="Helvetica,sans-Serif" font-size="10.00">include/JSystem/JAudio2</text>
<text text-anchor="middle" x="3285.87" y="-458" font-family="Helvetica,sans-Serif" font-size="10.00">/JAISe.h</text>
</a>
</g>
</g>
<!-- Node1&#45;&gt;Node2 -->
<g id="edge1" class="edge">
<title>Node1&#45;&gt;Node2</title>
<path fill="none" stroke="#63b8ff" d="M3595.75,-519.11C3533.57,-509.19 3442.92,-494.53 3363.87,-481 3359.26,-480.21 3354.5,-479.38 3349.71,-478.54"/>
<polygon fill="#63b8ff" stroke="#63b8ff" points="3595.11,-522.55 3605.53,-520.67 3596.21,-515.64 3595.11,-522.55"/>
</g>
<!-- Node395 -->
<g id="node42" class="node">
<title>Node395</title>
<g id="a_node42"><a xlink:href="JAUInitializer_8cpp.html" target="_top" xlink:title=" ">
<polygon fill="white" stroke="#666666" points="3425.37,-415 3314.37,-415 3314.37,-385 3425.37,-385 3425.37,-415"/>
<text text-anchor="start" x="3322.37" y="-403" font-family="Helvetica,sans-Serif" font-size="10.00">libs/JSystem/JAudio2</text>
<text text-anchor="middle" x="3369.87" y="-392" font-family="Helvetica,sans-Serif" font-size="10.00">/JAUInitializer.cpp</text>
</a>
</g>
</g>
<!-- Node1&#45;&gt;Node395 -->
<g id="edge54" class="edge">
<title>Node1&#45;&gt;Node395</title>
<path fill="none" stroke="#63b8ff" d="M3595.82,-525.79C3525.19,-519.42 3426.04,-506.22 3396.87,-481 3377.58,-464.32 3372.04,-433.36 3370.47,-415.23"/>
<polygon fill="#63b8ff" stroke="#63b8ff" points="3595.12,-529.24 3605.38,-526.62 3595.73,-522.27 3595.12,-529.24"/>
</g>
<!-- Node396 -->
<g id="node43" class="node">
<title>Node396</title>
<g id="a_node43"><a xlink:href="JAISeq_8h.html" target="_top" xlink:title=" ">
<polygon fill="white" stroke="#666666" points="3533.37,-481 3406.37,-481 3406.37,-451 3533.37,-451 3533.37,-481"/>
<text text-anchor="start" x="3414.37" y="-469" font-family="Helvetica,sans-Serif" font-size="10.00">include/JSystem/JAudio2</text>
<text text-anchor="middle" x="3469.87" y="-458" font-family="Helvetica,sans-Serif" font-size="10.00">/JAISeq.h</text>
</a>
</g>
</g>
<!-- Node1&#45;&gt;Node396 -->
<g id="edge45" class="edge">
<title>Node1&#45;&gt;Node396</title>
<path fill="none" stroke="#63b8ff" d="M3614.72,-513.12C3583.26,-503.1 3544.55,-490.78 3515.07,-481.39"/>
<polygon fill="#63b8ff" stroke="#63b8ff" points="3613.48,-516.4 3624.07,-516.1 3615.6,-509.73 3613.48,-516.4"/>
</g>
<!-- Node399 -->
<g id="node46" class="node">
<title>Node399</title>
<g id="a_node46"><a xlink:href="JAISound_8cpp.html" target="_top" xlink:title=" ">
<polygon fill="white" stroke="#666666" points="3662.37,-481 3551.37,-481 3551.37,-451 3662.37,-451 3662.37,-481"/>
<text text-anchor="start" x="3559.37" y="-469" font-family="Helvetica,sans-Serif" font-size="10.00">libs/JSystem/JAudio2</text>
<text text-anchor="middle" x="3606.87" y="-458" font-family="Helvetica,sans-Serif" font-size="10.00">/JAISound.cpp</text>
</a>
</g>
</g>
<!-- Node1&#45;&gt;Node399 -->
<g id="edge49" class="edge">
<title>Node1&#45;&gt;Node399</title>
<path fill="none" stroke="#63b8ff" d="M3648.68,-508.81C3639.51,-499.64 3629.15,-489.28 3621.04,-481.16"/>
<polygon fill="#63b8ff" stroke="#63b8ff" points="3646.05,-511.13 3655.6,-515.73 3651,-506.18 3646.05,-511.13"/>
</g>
<!-- Node400 -->
<g id="node47" class="node">
<title>Node400</title>
<g id="a_node47"><a xlink:href="JAISoundChild_8cpp.html" target="_top" xlink:title=" ">
<polygon fill="white" stroke="#666666" points="3791.37,-481 3680.37,-481 3680.37,-451 3791.37,-451 3791.37,-481"/>
<text text-anchor="start" x="3688.37" y="-469" font-family="Helvetica,sans-Serif" font-size="10.00">libs/JSystem/JAudio2</text>
<text text-anchor="middle" x="3735.87" y="-458" font-family="Helvetica,sans-Serif" font-size="10.00">/JAISoundChild.cpp</text>
</a>
</g>
</g>
<!-- Node1&#45;&gt;Node400 -->
<g id="edge50" class="edge">
<title>Node1&#45;&gt;Node400</title>
<path fill="none" stroke="#63b8ff" d="M3693.41,-508.81C3702.73,-499.64 3713.25,-489.28 3721.49,-481.16"/>
<polygon fill="#63b8ff" stroke="#63b8ff" points="3691.05,-506.22 3686.38,-515.73 3695.96,-511.21 3691.05,-506.22"/>
</g>
<!-- Node401 -->
<g id="node48" class="node">
<title>Node401</title>
<g id="a_node48"><a xlink:href="JASSeqCtrl_8cpp.html" target="_top" xlink:title=" ">
<polygon fill="white" stroke="#666666" points="3920.37,-481 3809.37,-481 3809.37,-451 3920.37,-451 3920.37,-481"/>
<text text-anchor="start" x="3817.37" y="-469" font-family="Helvetica,sans-Serif" font-size="10.00">libs/JSystem/JAudio2</text>
<text text-anchor="middle" x="3864.87" y="-458" font-family="Helvetica,sans-Serif" font-size="10.00">/JASSeqCtrl.cpp</text>
</a>
</g>
</g>
<!-- Node1&#45;&gt;Node401 -->
<g id="edge51" class="edge">
<title>Node1&#45;&gt;Node401</title>
<path fill="none" stroke="#63b8ff" d="M3725.23,-513.07C3755.52,-503.07 3792.75,-490.79 3821.14,-481.43"/>
<polygon fill="#63b8ff" stroke="#63b8ff" points="3724.25,-509.71 3715.85,-516.16 3726.44,-516.35 3724.25,-509.71"/>
</g>
<!-- Node402 -->
<g id="node49" class="node">
<title>Node402</title>
<g id="a_node49"><a xlink:href="JASSeqParser_8cpp.html" target="_top" xlink:title=" ">
<polygon fill="white" stroke="#666666" points="4049.37,-481 3938.37,-481 3938.37,-451 4049.37,-451 4049.37,-481"/>
<text text-anchor="start" x="3946.37" y="-469" font-family="Helvetica,sans-Serif" font-size="10.00">libs/JSystem/JAudio2</text>
<text text-anchor="middle" x="3993.87" y="-458" font-family="Helvetica,sans-Serif" font-size="10.00">/JASSeqParser.cpp</text>
</a>
</g>
</g>
<!-- Node1&#45;&gt;Node402 -->
<g id="edge52" class="edge">
<title>Node1&#45;&gt;Node402</title>
<path fill="none" stroke="#63b8ff" d="M3745.9,-517.02C3797.67,-507.25 3868.02,-493.73 3929.87,-481 3932.55,-480.45 3935.28,-479.88 3938.04,-479.3"/>
<polygon fill="#63b8ff" stroke="#63b8ff" points="3745.49,-513.54 3736.31,-518.83 3746.78,-520.42 3745.49,-513.54"/>
</g>
<!-- Node403 -->
<g id="node50" class="node">
<title>Node403</title>
<g id="a_node50"><a xlink:href="JASTrack_8cpp.html" target="_top" xlink:title=" ">
<polygon fill="white" stroke="#666666" points="4178.37,-481 4067.37,-481 4067.37,-451 4178.37,-451 4178.37,-481"/>
<text text-anchor="start" x="4075.37" y="-469" font-family="Helvetica,sans-Serif" font-size="10.00">libs/JSystem/JAudio2</text>
<text text-anchor="middle" x="4122.87" y="-458" font-family="Helvetica,sans-Serif" font-size="10.00">/JASTrack.cpp</text>
</a>
</g>
</g>
<!-- Node1&#45;&gt;Node403 -->
<g id="edge53" class="edge">
<title>Node1&#45;&gt;Node403</title>
<path fill="none" stroke="#63b8ff" d="M3745.84,-523.3C3824.21,-514.79 3950.6,-499.78 4058.87,-481 4061.56,-480.53 4064.31,-480.03 4067.08,-479.5"/>
<polygon fill="#63b8ff" stroke="#63b8ff" points="3745.71,-519.79 3736.14,-524.35 3746.46,-526.75 3745.71,-519.79"/>
</g>
<!-- Node3 -->
<g id="node3" class="node">
<title>Node3</title>
<g id="a_node3"><a xlink:href="JAISeMgr_8h.html" target="_top" xlink:title=" ">
<polygon fill="white" stroke="#666666" points="3235.37,-415 3108.37,-415 3108.37,-385 3235.37,-385 3235.37,-415"/>
<text text-anchor="start" x="3116.37" y="-403" font-family="Helvetica,sans-Serif" font-size="10.00">include/JSystem/JAudio2</text>
<text text-anchor="middle" x="3171.87" y="-392" font-family="Helvetica,sans-Serif" font-size="10.00">/JAISeMgr.h</text>
</a>
</g>
</g>
<!-- Node2&#45;&gt;Node3 -->
<g id="edge2" class="edge">
<title>Node2&#45;&gt;Node3</title>
<path fill="none" stroke="#63b8ff" d="M3250.57,-445.18C3233.36,-435.52 3213.05,-424.12 3197.37,-415.31"/>
<polygon fill="#63b8ff" stroke="#63b8ff" points="3248.54,-448.05 3258.97,-449.9 3251.96,-441.95 3248.54,-448.05"/>
</g>
<!-- Node392 -->
<g id="node39" class="node">
<title>Node392</title>
<g id="a_node39"><a xlink:href="JAISe_8cpp.html" target="_top" xlink:title=" ">
<polygon fill="white" stroke="#666666" points="3364.37,-349 3253.37,-349 3253.37,-319 3364.37,-319 3364.37,-349"/>
<text text-anchor="start" x="3261.37" y="-337" font-family="Helvetica,sans-Serif" font-size="10.00">libs/JSystem/JAudio2</text>
<text text-anchor="middle" x="3308.87" y="-326" font-family="Helvetica,sans-Serif" font-size="10.00">/JAISe.cpp</text>
</a>
</g>
</g>
<!-- Node2&#45;&gt;Node392 -->
<g id="edge43" class="edge">
<title>Node2&#45;&gt;Node392</title>
<path fill="none" stroke="#63b8ff" d="M3290.41,-439.38C3295.16,-412.49 3302.47,-371.18 3306.31,-349.47"/>
<polygon fill="#63b8ff" stroke="#63b8ff" points="3286.98,-438.64 3288.68,-449.1 3293.87,-439.86 3286.98,-438.64"/>
</g>
<!-- Node2&#45;&gt;Node395 -->
<g id="edge44" class="edge">
<title>Node2&#45;&gt;Node395</title>
<path fill="none" stroke="#63b8ff" d="M3313.47,-443.97C3325.76,-434.61 3339.93,-423.81 3350.99,-415.39"/>
<polygon fill="#63b8ff" stroke="#63b8ff" points="3311.55,-441.03 3305.72,-449.88 3315.79,-446.6 3311.55,-441.03"/>
</g>
<!-- Node4 -->
<g id="node4" class="node">
<title>Node4</title>
<g id="a_node4"><a xlink:href="Z2SoundMgr_8h.html" target="_top" xlink:title=" ">
<polygon fill="white" stroke="#666666" points="2960.87,-349 2860.87,-349 2860.87,-319 2960.87,-319 2960.87,-349"/>
<text text-anchor="start" x="2868.87" y="-337" font-family="Helvetica,sans-Serif" font-size="10.00">include/Z2AudioLib</text>
<text text-anchor="middle" x="2910.87" y="-326" font-family="Helvetica,sans-Serif" font-size="10.00">/Z2SoundMgr.h</text>
</a>
</g>
</g>
<!-- Node3&#45;&gt;Node4 -->
<g id="edge3" class="edge">
<title>Node3&#45;&gt;Node4</title>
<path fill="none" stroke="#63b8ff" d="M3101.97,-381.86C3057.59,-370.98 3001.2,-357.15 2961.21,-347.34"/>
<polygon fill="#63b8ff" stroke="#63b8ff" points="3100.96,-385.21 3111.5,-384.2 3102.62,-378.42 3100.96,-385.21"/>
</g>
<!-- Node3&#45;&gt;Node392 -->
<g id="edge40" class="edge">
<title>Node3&#45;&gt;Node392</title>
<path fill="none" stroke="#63b8ff" d="M3212.85,-379.86C3233.83,-370.05 3258.95,-358.32 3278.23,-349.31"/>
<polygon fill="#63b8ff" stroke="#63b8ff" points="3211.57,-376.59 3203.99,-384 3214.53,-382.94 3211.57,-376.59"/>
</g>
<!-- Node393 -->
<g id="node40" class="node">
<title>Node393</title>
<g id="a_node40"><a xlink:href="JAISeMgr_8cpp.html" target="_top" xlink:title=" ">
<polygon fill="white" stroke="#666666" points="3090.37,-349 2979.37,-349 2979.37,-319 3090.37,-319 3090.37,-349"/>
<text text-anchor="start" x="2987.37" y="-337" font-family="Helvetica,sans-Serif" font-size="10.00">libs/JSystem/JAudio2</text>
<text text-anchor="middle" x="3034.87" y="-326" font-family="Helvetica,sans-Serif" font-size="10.00">/JAISeMgr.cpp</text>
</a>
</g>
</g>
<!-- Node3&#45;&gt;Node393 -->
<g id="edge41" class="edge">
<title>Node3&#45;&gt;Node393</title>
<path fill="none" stroke="#63b8ff" d="M3130.89,-379.86C3109.91,-370.05 3084.8,-358.32 3065.51,-349.31"/>
<polygon fill="#63b8ff" stroke="#63b8ff" points="3129.21,-382.94 3139.76,-384 3132.18,-376.59 3129.21,-382.94"/>
</g>
<!-- Node394 -->
<g id="node41" class="node">
<title>Node394</title>
<g id="a_node41"><a xlink:href="JAUAudioArcLoader_8cpp.html" target="_top" xlink:title=" ">
<polygon fill="white" stroke="#666666" points="3235.37,-349 3108.37,-349 3108.37,-319 3235.37,-319 3235.37,-349"/>
<text text-anchor="start" x="3116.37" y="-337" font-family="Helvetica,sans-Serif" font-size="10.00">libs/JSystem/JAudio2</text>
<text text-anchor="middle" x="3171.87" y="-326" font-family="Helvetica,sans-Serif" font-size="10.00">/JAUAudioArcLoader.cpp</text>
</a>
</g>
</g>
<!-- Node3&#45;&gt;Node394 -->
<g id="edge42" class="edge">
<title>Node3&#45;&gt;Node394</title>
<path fill="none" stroke="#63b8ff" d="M3171.87,-373.39C3171.87,-365.13 3171.87,-356.28 3171.87,-349.16"/>
<polygon fill="#63b8ff" stroke="#63b8ff" points="3168.37,-373.28 3171.87,-383.28 3175.37,-373.28 3168.37,-373.28"/>
</g>
<!-- Node5 -->
<g id="node5" class="node">
<title>Node5</title>
<g id="a_node5"><a xlink:href="Z2AudioMgr_8h.html" target="_top" xlink:title=" ">
<polygon fill="white" stroke="#666666" points="2722.87,-283 2622.87,-283 2622.87,-253 2722.87,-253 2722.87,-283"/>
<text text-anchor="start" x="2630.87" y="-271" font-family="Helvetica,sans-Serif" font-size="10.00">include/Z2AudioLib</text>
<text text-anchor="middle" x="2672.87" y="-260" font-family="Helvetica,sans-Serif" font-size="10.00">/Z2AudioMgr.h</text>
</a>
</g>
</g>
<!-- Node4&#45;&gt;Node5 -->
<g id="edge4" class="edge">
<title>Node4&#45;&gt;Node5</title>
<path fill="none" stroke="#63b8ff" d="M2849.4,-316.47C2810.22,-305.94 2760.09,-292.45 2723.27,-282.55"/>
<polygon fill="#63b8ff" stroke="#63b8ff" points="2848.37,-319.82 2858.94,-319.03 2850.19,-313.06 2848.37,-319.82"/>
</g>
<!-- Node389 -->
<g id="node36" class="node">
<title>Node389</title>
<g id="a_node36"><a xlink:href="Z2SceneMgr_8cpp.html" target="_top" xlink:title=" ">
<polygon fill="white" stroke="#666666" points="2902.37,-277.5 2741.37,-277.5 2741.37,-258.5 2902.37,-258.5 2902.37,-277.5"/>
<text text-anchor="middle" x="2821.87" y="-265.5" font-family="Helvetica,sans-Serif" font-size="10.00">libs/Z2AudioLib/Z2SceneMgr.cpp</text>
</a>
</g>
</g>
<!-- Node4&#45;&gt;Node389 -->
<g id="edge37" class="edge">
<title>Node4&#45;&gt;Node389</title>
<path fill="none" stroke="#63b8ff" d="M2882.03,-312.26C2865.84,-300.61 2846.47,-286.69 2834.17,-277.84"/>
<polygon fill="#63b8ff" stroke="#63b8ff" points="2879.73,-314.92 2889.89,-317.91 2883.82,-309.23 2879.73,-314.92"/>
</g>
<!-- Node390 -->
<g id="node37" class="node">
<title>Node390</title>
<g id="a_node37"><a xlink:href="Z2SoundMgr_8cpp.html" target="_top" xlink:title=" ">
<polygon fill="white" stroke="#666666" points="3081.37,-277.5 2920.37,-277.5 2920.37,-258.5 3081.37,-258.5 3081.37,-277.5"/>
<text text-anchor="middle" x="3000.87" y="-265.5" font-family="Helvetica,sans-Serif" font-size="10.00">libs/Z2AudioLib/Z2SoundMgr.cpp</text>
</a>
</g>
</g>
<!-- Node4&#45;&gt;Node390 -->
<g id="edge38" class="edge">
<title>Node4&#45;&gt;Node390</title>
<path fill="none" stroke="#63b8ff" d="M2940.04,-312.26C2956.41,-300.61 2976,-286.69 2988.43,-277.84"/>
<polygon fill="#63b8ff" stroke="#63b8ff" points="2938.2,-309.27 2932.08,-317.92 2942.26,-314.98 2938.2,-309.27"/>
</g>
<!-- Node391 -->
<g id="node38" class="node">
<title>Node391</title>
<g id="a_node38"><a xlink:href="Z2WolfHowlMgr_8cpp.html" target="_top" xlink:title=" ">
<polygon fill="white" stroke="#666666" points="3239.87,-283 3099.87,-283 3099.87,-253 3239.87,-253 3239.87,-283"/>
<text text-anchor="start" x="3107.87" y="-271" font-family="Helvetica,sans-Serif" font-size="10.00">libs/Z2AudioLib/Z2WolfHowl</text>
<text text-anchor="middle" x="3169.87" y="-260" font-family="Helvetica,sans-Serif" font-size="10.00">Mgr.cpp</text>
</a>
</g>
</g>
<!-- Node4&#45;&gt;Node391 -->
<g id="edge39" class="edge">
<title>Node4&#45;&gt;Node391</title>
<path fill="none" stroke="#63b8ff" d="M2972.09,-317.87C3014.3,-307.44 3070.07,-293.66 3111.62,-283.39"/>
<polygon fill="#63b8ff" stroke="#63b8ff" points="2971.45,-314.42 2962.59,-320.22 2973.13,-321.22 2971.45,-314.42"/>
</g>
<!-- Node6 -->
<g id="node6" class="node">
<title>Node6</title>
<g id="a_node6"><a xlink:href="m__Do__audio_8h.html" target="_top" xlink:title=" ">
<polygon fill="white" stroke="#666666" points="2659.87,-217 2519.87,-217 2519.87,-198 2659.87,-198 2659.87,-217"/>
<text text-anchor="middle" x="2589.87" y="-205" font-family="Helvetica,sans-Serif" font-size="10.00">include/m_Do/m_Do_audio.h</text>
</a>
</g>
</g>
<!-- Node5&#45;&gt;Node6 -->
<g id="edge5" class="edge">
<title>Node5&#45;&gt;Node6</title>
<path fill="none" stroke="#63b8ff" d="M2643.01,-245.95C2628.94,-236.03 2612.92,-224.74 2602.18,-217.18"/>
<polygon fill="#63b8ff" stroke="#63b8ff" points="2640.93,-248.77 2651.12,-251.67 2644.96,-243.05 2640.93,-248.77"/>
</g>
<!-- Node388 -->
<g id="node35" class="node">
<title>Node388</title>
<g id="a_node35"><a xlink:href="Z2AudioMgr_8cpp.html" target="_top" xlink:title=" ">
<polygon fill="white" stroke="#666666" points="2835.87,-217 2677.87,-217 2677.87,-198 2835.87,-198 2835.87,-217"/>
<text text-anchor="middle" x="2756.87" y="-205" font-family="Helvetica,sans-Serif" font-size="10.00">libs/Z2AudioLib/Z2AudioMgr.cpp</text>
</a>
</g>
</g>
<!-- Node5&#45;&gt;Node388 -->
<g id="edge36" class="edge">
<title>Node5&#45;&gt;Node388</title>
<path fill="none" stroke="#63b8ff" d="M2702.68,-246.24C2717.03,-236.25 2733.44,-224.82 2744.42,-217.18"/>
<polygon fill="#63b8ff" stroke="#63b8ff" points="2701.08,-243.09 2694.88,-251.67 2705.08,-248.83 2701.08,-243.09"/>
</g>
<!-- Node7 -->
<g id="node7" class="node">
<title>Node7</title>
<g id="a_node7"><a xlink:href="m__Do__ext_8h.html" target="_top" xlink:title=" ">
<polygon fill="#fff0f0" stroke="red" points="1167.87,-156.5 1037.87,-156.5 1037.87,-137.5 1167.87,-137.5 1167.87,-156.5"/>
<text text-anchor="middle" x="1102.87" y="-144.5" font-family="Helvetica,sans-Serif" font-size="10.00">include/m_Do/m_Do_ext.h</text>
</a>
</g>
</g>
<!-- Node6&#45;&gt;Node7 -->
<g id="edge6" class="edge">
<title>Node6&#45;&gt;Node7</title>
<path fill="none" stroke="#63b8ff" d="M2508.2,-203.29C2242.84,-192.85 1408.31,-160.02 1168.14,-150.57"/>
<polygon fill="#63b8ff" stroke="#63b8ff" points="2508.01,-206.78 2518.14,-203.68 2508.28,-199.79 2508.01,-206.78"/>
</g>
<!-- Node62 -->
<g id="node13" class="node">
<title>Node62</title>
<g id="a_node13"><a xlink:href="d__kankyo_8cpp.html" target="_top" xlink:title=" ">
<polygon fill="white" stroke="#666666" points="1090.87,-24.5 956.87,-24.5 956.87,-5.5 1090.87,-5.5 1090.87,-24.5"/>
<text text-anchor="middle" x="1023.87" y="-12.5" font-family="Helvetica,sans-Serif" font-size="10.00">src/d/kankyo/d_kankyo.cpp</text>
</a>
</g>
</g>
<!-- Node6&#45;&gt;Node62 -->
<g id="edge28" class="edge">
<title>Node6&#45;&gt;Node62</title>
<path fill="none" stroke="#63b8ff" d="M2508.04,-206.18C2077.84,-204.09 94.43,-189.39 6.87,-96 -2.25,-86.27 -2.32,-75.66 6.87,-66 39.63,-31.59 734.69,-19.71 956.49,-16.79"/>
<polygon fill="#63b8ff" stroke="#63b8ff" points="2507.88,-209.68 2517.9,-206.22 2507.91,-202.68 2507.88,-209.68"/>
</g>
<!-- Node182 -->
<g id="node14" class="node">
<title>Node182</title>
<g id="a_node14"><a xlink:href="d__kankyo__wether_8cpp.html" target="_top" xlink:title=" ">
<polygon fill="white" stroke="#666666" points="2222.87,-30 2106.87,-30 2106.87,0 2222.87,0 2222.87,-30"/>
<text text-anchor="start" x="2114.87" y="-18" font-family="Helvetica,sans-Serif" font-size="10.00">src/d/kankyo/d_kankyo</text>
<text text-anchor="middle" x="2164.87" y="-7" font-family="Helvetica,sans-Serif" font-size="10.00">_wether.cpp</text>
</a>
</g>
</g>
<!-- Node6&#45;&gt;Node182 -->
<g id="edge29" class="edge">
<title>Node6&#45;&gt;Node182</title>
<path fill="none" stroke="#63b8ff" d="M2508.21,-206.1C2413.88,-204.03 2266.08,-195.35 2222.87,-162 2186.54,-133.96 2201.84,-108.64 2184.87,-66 2180.1,-54.01 2174.66,-40.42 2170.66,-30.44"/>
<polygon fill="#63b8ff" stroke="#63b8ff" points="2507.86,-209.59 2517.93,-206.29 2508,-202.59 2507.86,-209.59"/>
</g>
<!-- Node12 -->
<g id="node26" class="node">
<title>Node12</title>
<g id="a_node26"><a xlink:href="d__com__inf__game_8cpp.html" target="_top" xlink:title=" ">
<polygon fill="white" stroke="#666666" points="2339.87,-162 2231.87,-162 2231.87,-132 2339.87,-132 2339.87,-162"/>
<text text-anchor="start" x="2239.87" y="-150" font-family="Helvetica,sans-Serif" font-size="10.00">src/d/com/d_com_inf</text>
<text text-anchor="middle" x="2285.87" y="-139" font-family="Helvetica,sans-Serif" font-size="10.00">_game.cpp</text>
</a>
</g>
</g>
<!-- Node6&#45;&gt;Node12 -->
<g id="edge25" class="edge">
<title>Node6&#45;&gt;Node12</title>
<path fill="none" stroke="#63b8ff" d="M2527.22,-195.57C2478.51,-186.92 2409.28,-174.29 2348.87,-162 2346.02,-161.42 2343.09,-160.81 2340.14,-160.19"/>
<polygon fill="#63b8ff" stroke="#63b8ff" points="2526.58,-199.01 2537.03,-197.31 2527.8,-192.12 2526.58,-199.01"/>
</g>
<!-- Node168 -->
<g id="node27" class="node">
<title>Node168</title>
<g id="a_node27"><a xlink:href="d__name_8cpp.html" target="_top" xlink:title=" ">
<polygon fill="white" stroke="#666666" points="2451.87,-156.5 2357.87,-156.5 2357.87,-137.5 2451.87,-137.5 2451.87,-156.5"/>
<text text-anchor="middle" x="2404.87" y="-144.5" font-family="Helvetica,sans-Serif" font-size="10.00">src/d/d_name.cpp</text>
</a>
</g>
</g>
<!-- Node6&#45;&gt;Node168 -->
<g id="edge26" class="edge">
<title>Node6&#45;&gt;Node168</title>
<path fill="none" stroke="#63b8ff" d="M2550.94,-194.19C2515.73,-183.06 2464.72,-166.92 2433.23,-156.97"/>
<polygon fill="#63b8ff" stroke="#63b8ff" points="2549.74,-197.48 2560.33,-197.16 2551.85,-190.81 2549.74,-197.48"/>
</g>
<!-- Node178 -->
<g id="node28" class="node">
<title>Node178</title>
<g id="a_node28"><a xlink:href="d__event__manager_8cpp.html" target="_top" xlink:title=" ">
<polygon fill="white" stroke="#666666" points="2573.37,-162 2470.37,-162 2470.37,-132 2573.37,-132 2573.37,-162"/>
<text text-anchor="start" x="2478.37" y="-150" font-family="Helvetica,sans-Serif" font-size="10.00">src/d/event/d_event</text>
<text text-anchor="middle" x="2521.87" y="-139" font-family="Helvetica,sans-Serif" font-size="10.00">_manager.cpp</text>
</a>
</g>
</g>
<!-- Node6&#45;&gt;Node178 -->
<g id="edge27" class="edge">
<title>Node6&#45;&gt;Node178</title>
<path fill="none" stroke="#63b8ff" d="M2571,-190.27C2560.86,-181.54 2548.46,-170.87 2538.66,-162.44"/>
<polygon fill="#63b8ff" stroke="#63b8ff" points="2568.53,-192.76 2578.4,-196.63 2573.1,-187.45 2568.53,-192.76"/>
</g>
<!-- Node17 -->
<g id="node29" class="node">
<title>Node17</title>
<g id="a_node29"><a xlink:href="d__msg__flow_8cpp.html" target="_top" xlink:title=" ">
<polygon fill="white" stroke="#666666" points="2724.37,-156.5 2591.37,-156.5 2591.37,-137.5 2724.37,-137.5 2724.37,-156.5"/>
<text text-anchor="middle" x="2657.87" y="-144.5" font-family="Helvetica,sans-Serif" font-size="10.00">src/d/msg/d_msg_flow.cpp</text>
</a>
</g>
</g>
<!-- Node6&#45;&gt;Node17 -->
<g id="edge30" class="edge">
<title>Node6&#45;&gt;Node17</title>
<path fill="none" stroke="#63b8ff" d="M2608.57,-190.41C2621.1,-179.64 2637.13,-165.85 2647.45,-156.97"/>
<polygon fill="#63b8ff" stroke="#63b8ff" points="2606.65,-187.45 2601.35,-196.63 2611.21,-192.76 2606.65,-187.45"/>
</g>
<!-- Node199 -->
<g id="node30" class="node">
<title>Node199</title>
<g id="a_node30"><a xlink:href="d__s__name_8cpp.html" target="_top" xlink:title=" ">
<polygon fill="white" stroke="#666666" points="2855.37,-156.5 2742.37,-156.5 2742.37,-137.5 2855.37,-137.5 2855.37,-156.5"/>
<text text-anchor="middle" x="2798.87" y="-144.5" font-family="Helvetica,sans-Serif" font-size="10.00">src/d/s/d_s_name.cpp</text>
</a>
</g>
</g>
<!-- Node6&#45;&gt;Node199 -->
<g id="edge31" class="edge">
<title>Node6&#45;&gt;Node199</title>
<path fill="none" stroke="#63b8ff" d="M2632.57,-194.55C2672.38,-183.41 2730.88,-167.03 2766.83,-156.97"/>
<polygon fill="#63b8ff" stroke="#63b8ff" points="2631.76,-191.14 2623.07,-197.21 2633.65,-197.88 2631.76,-191.14"/>
</g>
<!-- Node67 -->
<g id="node31" class="node">
<title>Node67</title>
<g id="a_node31"><a xlink:href="d__s__play_8cpp.html" target="_top" xlink:title=" ">
<polygon fill="white" stroke="#666666" points="2979.87,-156.5 2873.87,-156.5 2873.87,-137.5 2979.87,-137.5 2979.87,-156.5"/>
<text text-anchor="middle" x="2926.87" y="-144.5" font-family="Helvetica,sans-Serif" font-size="10.00">src/d/s/d_s_play.cpp</text>
</a>
</g>
</g>
<!-- Node6&#45;&gt;Node67 -->
<g id="edge32" class="edge">
<title>Node6&#45;&gt;Node67</title>
<path fill="none" stroke="#63b8ff" d="M2662.64,-195.85C2717.97,-187.47 2795.91,-175.06 2863.87,-162 2871.79,-160.48 2880.24,-158.7 2888.3,-156.94"/>
<polygon fill="#63b8ff" stroke="#63b8ff" points="2662.4,-192.35 2653.03,-197.3 2663.44,-199.27 2662.4,-192.35"/>
</g>
<!-- Node22 -->
<g id="node32" class="node">
<title>Node22</title>
<g id="a_node32"><a xlink:href="d__shop__system_8cpp.html" target="_top" xlink:title=" ">
<polygon fill="white" stroke="#666666" points="3149.87,-156.5 2997.87,-156.5 2997.87,-137.5 3149.87,-137.5 3149.87,-156.5"/>
<text text-anchor="middle" x="3073.87" y="-144.5" font-family="Helvetica,sans-Serif" font-size="10.00">src/d/shop/d_shop_system.cpp</text>
</a>
</g>
</g>
<!-- Node6&#45;&gt;Node22 -->
<g id="edge33" class="edge">
<title>Node6&#45;&gt;Node22</title>
<path fill="none" stroke="#63b8ff" d="M2671.27,-197.65C2778.81,-185.93 2958.28,-166.22 2988.87,-162 2999.69,-160.51 3011.25,-158.73 3022.24,-156.95"/>
<polygon fill="#63b8ff" stroke="#63b8ff" points="2671.2,-194.14 2661.63,-198.7 2671.95,-201.1 2671.2,-194.14"/>
</g>
<!-- Node387 -->
<g id="node33" class="node">
<title>Node387</title>
<g id="a_node33"><a xlink:href="m__Do__Reset_8cpp.html" target="_top" xlink:title=" ">
<polygon fill="white" stroke="#666666" points="3303.87,-156.5 3167.87,-156.5 3167.87,-137.5 3303.87,-137.5 3303.87,-156.5"/>
<text text-anchor="middle" x="3235.87" y="-144.5" font-family="Helvetica,sans-Serif" font-size="10.00">src/m_Do/m_Do_Reset.cpp</text>
</a>
</g>
</g>
<!-- Node6&#45;&gt;Node387 -->
<g id="edge34" class="edge">
<title>Node6&#45;&gt;Node387</title>
<path fill="none" stroke="#63b8ff" d="M2671.52,-197.8C2888.31,-178.69 2945.96,-189.1 3158.87,-162 3169.39,-160.66 3180.64,-158.84 3191.21,-156.95"/>
<polygon fill="#63b8ff" stroke="#63b8ff" points="2671.23,-194.31 2661.58,-198.69 2671.85,-201.28 2671.23,-194.31"/>
</g>
<!-- Node206 -->
<g id="node34" class="node">
<title>Node206</title>
<g id="a_node34"><a xlink:href="m__Do__audio_8cpp.html" target="_top" xlink:title=" ">
<polygon fill="white" stroke="#666666" points="3455.87,-156.5 3321.87,-156.5 3321.87,-137.5 3455.87,-137.5 3455.87,-156.5"/>
<text text-anchor="middle" x="3388.87" y="-144.5" font-family="Helvetica,sans-Serif" font-size="10.00">src/m_Do/m_Do_audio.cpp</text>
</a>
</g>
</g>
<!-- Node6&#45;&gt;Node206 -->
<g id="edge35" class="edge">
<title>Node6&#45;&gt;Node206</title>
<path fill="none" stroke="#63b8ff" d="M2671.18,-197.86C2956.49,-175.19 3031.84,-195.6 3312.87,-162 3323.53,-160.73 3334.95,-158.88 3345.61,-156.95"/>
<polygon fill="#63b8ff" stroke="#63b8ff" points="2671.26,-194.34 2661.57,-198.64 2671.82,-201.32 2671.26,-194.34"/>
</g>
<!-- Node8 -->
<g id="node8" class="node">
<title>Node8</title>
<g id="a_node8"><a xlink:href="d__attention_8h.html" target="_top" xlink:title=" ">
<polygon fill="#fff0f0" stroke="red" points="1931.87,-90.5 1817.87,-90.5 1817.87,-71.5 1931.87,-71.5 1931.87,-90.5"/>
<text text-anchor="middle" x="1874.87" y="-78.5" font-family="Helvetica,sans-Serif" font-size="10.00">include/d/d_attention.h</text>
</a>
</g>
</g>
<!-- Node7&#45;&gt;Node8 -->
<g id="edge7" class="edge">
<title>Node7&#45;&gt;Node8</title>
<path fill="none" stroke="#63b8ff" d="M1179.29,-144.05C1309.21,-139.96 1581.21,-128.05 1808.87,-96 1818.04,-94.71 1827.83,-92.88 1836.99,-90.97"/>
<polygon fill="#63b8ff" stroke="#63b8ff" points="1179.32,-140.55 1169.43,-144.35 1179.53,-147.54 1179.32,-140.55"/>
</g>
<!-- Node214 -->
<g id="node9" class="node">
<title>Node214</title>
<g id="a_node9"><a xlink:href="d__drawlist_8h.html" target="_top" xlink:title=" ">
<polygon fill="#fff0f0" stroke="red" points="2059.87,-90.5 1949.87,-90.5 1949.87,-71.5 2059.87,-71.5 2059.87,-90.5"/>
<text text-anchor="middle" x="2004.87" y="-78.5" font-family="Helvetica,sans-Serif" font-size="10.00">include/d/d_drawlist.h</text>
</a>
</g>
</g>
<!-- Node7&#45;&gt;Node214 -->
<g id="edge8" class="edge">
<title>Node7&#45;&gt;Node214</title>
<path fill="none" stroke="#63b8ff" d="M1179.31,-145.41C1327.11,-143.4 1662.1,-134.57 1940.87,-96 1949.89,-94.75 1959.52,-92.92 1968.5,-90.98"/>
<polygon fill="#63b8ff" stroke="#63b8ff" points="1179.61,-141.91 1169.65,-145.54 1179.7,-148.91 1179.61,-141.91"/>
</g>
<!-- Node256 -->
<g id="node10" class="node">
<title>Node256</title>
<g id="a_node10"><a xlink:href="d__ky__thunder_8h.html" target="_top" xlink:title=" ">
<polygon fill="#fff0f0" stroke="red" points="139.87,-90.5 15.87,-90.5 15.87,-71.5 139.87,-71.5 139.87,-90.5"/>
<text text-anchor="middle" x="77.87" y="-78.5" font-family="Helvetica,sans-Serif" font-size="10.00">include/d/d_ky_thunder.h</text>
</a>
</g>
</g>
<!-- Node7&#45;&gt;Node256 -->
<g id="edge9" class="edge">
<title>Node7&#45;&gt;Node256</title>
<path fill="none" stroke="#63b8ff" d="M1026.23,-145.67C863.83,-144.18 473.35,-136.29 148.87,-96 138.9,-94.76 128.22,-92.93 118.26,-91"/>
<polygon fill="#63b8ff" stroke="#63b8ff" points="1025.98,-149.17 1036.01,-145.76 1026.04,-142.17 1025.98,-149.17"/>
</g>
<!-- Node257 -->
<g id="node11" class="node">
<title>Node257</title>
<g id="a_node11"><a xlink:href="d__resorce_8h.html" target="_top" xlink:title=" ">
<polygon fill="#fff0f0" stroke="red" points="267.37,-90.5 158.37,-90.5 158.37,-71.5 267.37,-71.5 267.37,-90.5"/>
<text text-anchor="middle" x="212.87" y="-78.5" font-family="Helvetica,sans-Serif" font-size="10.00">include/d/d_resorce.h</text>
</a>
</g>
</g>
<!-- Node7&#45;&gt;Node257 -->
<g id="edge10" class="edge">
<title>Node7&#45;&gt;Node257</title>
<path fill="none" stroke="#63b8ff" d="M1025.99,-145.31C879.52,-143.12 550.68,-134 276.87,-96 267.86,-94.75 258.23,-92.91 249.25,-90.98"/>
<polygon fill="#63b8ff" stroke="#63b8ff" points="1025.92,-148.81 1035.97,-145.45 1026.02,-141.81 1025.92,-148.81"/>
</g>
<!-- Node258 -->
<g id="node12" class="node">
<title>Node258</title>
<g id="a_node12"><a xlink:href="d__kankyo_8h.html" target="_top" xlink:title=" ">
<polygon fill="#fff0f0" stroke="red" points="2175.87,-96 2077.87,-96 2077.87,-66 2175.87,-66 2175.87,-96"/>
<text text-anchor="start" x="2085.87" y="-84" font-family="Helvetica,sans-Serif" font-size="10.00">include/d/kankyo/d</text>
<text text-anchor="middle" x="2126.87" y="-73" font-family="Helvetica,sans-Serif" font-size="10.00">_kankyo.h</text>
</a>
</g>
</g>
<!-- Node7&#45;&gt;Node258 -->
<g id="edge11" class="edge">
<title>Node7&#45;&gt;Node258</title>
<path fill="none" stroke="#63b8ff" d="M1179.71,-146.83C1343.87,-147.55 1740.63,-143.69 2068.87,-96 2071.74,-95.58 2074.68,-95.09 2077.63,-94.54"/>
<polygon fill="#63b8ff" stroke="#63b8ff" points="1179.82,-143.33 1169.81,-146.78 1179.79,-150.33 1179.82,-143.33"/>
</g>
<!-- Node218 -->
<g id="node15" class="node">
<title>Node218</title>
<g id="a_node15"><a xlink:href="d__a__do_8h.html" target="_top" xlink:title=" ">
<polygon fill="white" stroke="#666666" points="381.87,-96 285.87,-96 285.87,-66 381.87,-66 381.87,-96"/>
<text text-anchor="start" x="293.87" y="-84" font-family="Helvetica,sans-Serif" font-size="10.00">include/rel/d/a/d_a</text>
<text text-anchor="middle" x="333.87" y="-73" font-family="Helvetica,sans-Serif" font-size="10.00">_do/d_a_do.h</text>
</a>
</g>
</g>
<!-- Node7&#45;&gt;Node218 -->
<g id="edge14" class="edge">
<title>Node7&#45;&gt;Node218</title>
<path fill="none" stroke="#63b8ff" d="M1026.2,-144.9C895.2,-142.06 620.22,-131.95 390.87,-96 388.05,-95.56 385.17,-95.05 382.27,-94.48"/>
<polygon fill="#63b8ff" stroke="#63b8ff" points="1026.08,-148.4 1036.15,-145.1 1026.22,-141.4 1026.08,-148.4"/>
</g>
<!-- Node303 -->
<g id="node16" class="node">
<title>Node303</title>
<g id="a_node16"><a xlink:href="d__a__myna_8h.html" target="_top" xlink:title=" ">
<polygon fill="white" stroke="#666666" points="499.87,-96 399.87,-96 399.87,-66 499.87,-66 499.87,-96"/>
<text text-anchor="start" x="407.87" y="-84" font-family="Helvetica,sans-Serif" font-size="10.00">include/rel/d/a/d_a</text>
<text text-anchor="middle" x="449.87" y="-73" font-family="Helvetica,sans-Serif" font-size="10.00">_myna/d_a_myna.h</text>
</a>
</g>
</g>
<!-- Node7&#45;&gt;Node303 -->
<g id="edge15" class="edge">
<title>Node7&#45;&gt;Node303</title>
<path fill="none" stroke="#63b8ff" d="M1026.12,-143.19C912.5,-138.22 693.13,-125.45 508.87,-96 506.07,-95.55 503.19,-95.04 500.3,-94.49"/>
<polygon fill="#63b8ff" stroke="#63b8ff" points="1025.79,-146.68 1035.93,-143.62 1026.09,-139.69 1025.79,-146.68"/>
</g>
<!-- Node378 -->
<g id="node17" class="node">
<title>Node378</title>
<g id="a_node17"><a xlink:href="DynamicLink_8cpp.html" target="_top" xlink:title=" ">
<polygon fill="white" stroke="#666666" points="625.37,-90.5 518.37,-90.5 518.37,-71.5 625.37,-71.5 625.37,-90.5"/>
<text text-anchor="middle" x="571.87" y="-78.5" font-family="Helvetica,sans-Serif" font-size="10.00">src/DynamicLink.cpp</text>
</a>
</g>
</g>
<!-- Node7&#45;&gt;Node378 -->
<g id="edge16" class="edge">
<title>Node7&#45;&gt;Node378</title>
<path fill="none" stroke="#63b8ff" d="M1026.4,-140.58C933.25,-133.36 771.33,-118.77 633.87,-96 625.6,-94.63 616.77,-92.84 608.45,-91"/>
<polygon fill="#63b8ff" stroke="#63b8ff" points="1025.94,-144.06 1036.17,-141.33 1026.47,-137.08 1025.94,-144.06"/>
</g>
<!-- Node146 -->
<g id="node18" class="node">
<title>Node146</title>
<g id="a_node18"><a xlink:href="c__dylink_8cpp.html" target="_top" xlink:title=" ">
<polygon fill="white" stroke="#666666" points="738.37,-90.5 643.37,-90.5 643.37,-71.5 738.37,-71.5 738.37,-90.5"/>
<text text-anchor="middle" x="690.87" y="-78.5" font-family="Helvetica,sans-Serif" font-size="10.00">src/c/c_dylink.cpp</text>
</a>
</g>
</g>
<!-- Node7&#45;&gt;Node146 -->
<g id="edge17" class="edge">
<title>Node7&#45;&gt;Node146</title>
<path fill="none" stroke="#63b8ff" d="M1026.2,-137.47C954.05,-128.9 843.16,-114.36 747.87,-96 740.37,-94.55 732.37,-92.75 724.81,-90.93"/>
<polygon fill="#63b8ff" stroke="#63b8ff" points="1025.6,-140.92 1035.94,-138.61 1026.42,-133.97 1025.6,-140.92"/>
</g>
<!-- Node379 -->
<g id="node19" class="node">
<title>Node379</title>
<g id="a_node19"><a xlink:href="d__meter__HIO_8cpp.html" target="_top" xlink:title=" ">
<polygon fill="white" stroke="#666666" points="860.87,-96 756.87,-96 756.87,-66 860.87,-66 860.87,-96"/>
<text text-anchor="start" x="764.87" y="-84" font-family="Helvetica,sans-Serif" font-size="10.00">src/d/meter/d_meter</text>
<text text-anchor="middle" x="808.87" y="-73" font-family="Helvetica,sans-Serif" font-size="10.00">_HIO.cpp</text>
</a>
</g>
</g>
<!-- Node7&#45;&gt;Node379 -->
<g id="edge18" class="edge">
<title>Node7&#45;&gt;Node379</title>
<path fill="none" stroke="#63b8ff" d="M1049.12,-134.69C1001.87,-124.7 931.25,-109.63 869.87,-96 867.01,-95.36 864.07,-94.71 861.1,-94.04"/>
<polygon fill="#63b8ff" stroke="#63b8ff" points="1048.33,-138.1 1058.83,-136.74 1049.77,-131.25 1048.33,-138.1"/>
</g>
<!-- Node380 -->
<g id="node20" class="node">
<title>Node380</title>
<g id="a_node20"><a xlink:href="d__pane__class_8cpp.html" target="_top" xlink:title=" ">
<polygon fill="white" stroke="#666666" points="1022.37,-90.5 879.37,-90.5 879.37,-71.5 1022.37,-71.5 1022.37,-90.5"/>
<text text-anchor="middle" x="950.87" y="-78.5" font-family="Helvetica,sans-Serif" font-size="10.00">src/d/pane/d_pane_class.cpp</text>
</a>
</g>
</g>
<!-- Node7&#45;&gt;Node380 -->
<g id="edge19" class="edge">
<title>Node7&#45;&gt;Node380</title>
<path fill="none" stroke="#63b8ff" d="M1071.45,-132.77C1041.61,-120.21 997.61,-101.68 971.83,-90.82"/>
<polygon fill="#63b8ff" stroke="#63b8ff" points="1069.77,-135.86 1080.34,-136.51 1072.48,-129.41 1069.77,-135.86"/>
</g>
<!-- Node381 -->
<g id="node21" class="node">
<title>Node381</title>
<g id="a_node21"><a xlink:href="d__pane__class__alpha_8cpp.html" target="_top" xlink:title=" ">
<polygon fill="white" stroke="#666666" points="1165.37,-96 1040.37,-96 1040.37,-66 1165.37,-66 1165.37,-96"/>
<text text-anchor="start" x="1048.37" y="-84" font-family="Helvetica,sans-Serif" font-size="10.00">src/d/pane/d_pane_class</text>
<text text-anchor="middle" x="1102.87" y="-73" font-family="Helvetica,sans-Serif" font-size="10.00">_alpha.cpp</text>
</a>
</g>
</g>
<!-- Node7&#45;&gt;Node381 -->
<g id="edge20" class="edge">
<title>Node7&#45;&gt;Node381</title>
<path fill="none" stroke="#63b8ff" d="M1102.87,-125.78C1102.87,-116.17 1102.87,-104.92 1102.87,-96.23"/>
<polygon fill="#63b8ff" stroke="#63b8ff" points="1099.37,-125.59 1102.87,-135.59 1106.37,-125.59 1099.37,-125.59"/>
</g>
<!-- Node138 -->
<g id="node22" class="node">
<title>Node138</title>
<g id="a_node22"><a xlink:href="f__op__actor__mng_8cpp.html" target="_top" xlink:title=" ">
<polygon fill="white" stroke="#666666" points="1284.37,-96 1183.37,-96 1183.37,-66 1284.37,-66 1284.37,-96"/>
<text text-anchor="start" x="1191.37" y="-84" font-family="Helvetica,sans-Serif" font-size="10.00">src/f_op/f_op_actor</text>
<text text-anchor="middle" x="1233.87" y="-73" font-family="Helvetica,sans-Serif" font-size="10.00">_mng.cpp</text>
</a>
</g>
</g>
<!-- Node7&#45;&gt;Node138 -->
<g id="edge21" class="edge">
<title>Node7&#45;&gt;Node138</title>
<path fill="none" stroke="#63b8ff" d="M1131.25,-132.13C1152.81,-121.6 1182.38,-107.16 1204.24,-96.48"/>
<polygon fill="#63b8ff" stroke="#63b8ff" points="1129.9,-128.9 1122.45,-136.44 1132.97,-135.19 1129.9,-128.9"/>
</g>
<!-- Node382 -->
<g id="node23" class="node">
<title>Node382</title>
<g id="a_node23"><a xlink:href="m__Do__DVDError_8cpp.html" target="_top" xlink:title=" ">
<polygon fill="white" stroke="#666666" points="1453.37,-90.5 1302.37,-90.5 1302.37,-71.5 1453.37,-71.5 1453.37,-90.5"/>
<text text-anchor="middle" x="1377.87" y="-78.5" font-family="Helvetica,sans-Serif" font-size="10.00">src/m_Do/m_Do_DVDError.cpp</text>
</a>
</g>
</g>
<!-- Node7&#45;&gt;Node382 -->
<g id="edge22" class="edge">
<title>Node7&#45;&gt;Node382</title>
<path fill="none" stroke="#63b8ff" d="M1152.37,-134.48C1206.1,-121.98 1290.74,-102.28 1339.61,-90.91"/>
<polygon fill="#63b8ff" stroke="#63b8ff" points="1151.82,-131.01 1142.87,-136.69 1153.41,-137.83 1151.82,-131.01"/>
</g>
<!-- Node383 -->
<g id="node24" class="node">
<title>Node383</title>
<g id="a_node24"><a xlink:href="m__Do__MemCard_8cpp.html" target="_top" xlink:title=" ">
<polygon fill="white" stroke="#666666" points="1623.87,-90.5 1471.87,-90.5 1471.87,-71.5 1623.87,-71.5 1623.87,-90.5"/>
<text text-anchor="middle" x="1547.87" y="-78.5" font-family="Helvetica,sans-Serif" font-size="10.00">src/m_Do/m_Do_MemCard.cpp</text>
</a>
</g>
</g>
<!-- Node7&#45;&gt;Node383 -->
<g id="edge23" class="edge">
<title>Node7&#45;&gt;Node383</title>
<path fill="none" stroke="#63b8ff" d="M1179.44,-135.85C1252.18,-126.09 1364.57,-110.69 1461.87,-96 1472.34,-94.42 1483.52,-92.66 1494.23,-90.93"/>
<polygon fill="#63b8ff" stroke="#63b8ff" points="1179.07,-132.37 1169.62,-137.17 1179.99,-139.31 1179.07,-132.37"/>
</g>
<!-- Node384 -->
<g id="node25" class="node">
<title>Node384</title>
<g id="a_node25"><a xlink:href="m__Do__dvd__thread_8cpp.html" target="_top" xlink:title=" ">
<polygon fill="white" stroke="#666666" points="1799.87,-90.5 1641.87,-90.5 1641.87,-71.5 1799.87,-71.5 1799.87,-90.5"/>
<text text-anchor="middle" x="1720.87" y="-78.5" font-family="Helvetica,sans-Serif" font-size="10.00">src/m_Do/m_Do_dvd_thread.cpp</text>
</a>
</g>
</g>
<!-- Node7&#45;&gt;Node384 -->
<g id="edge24" class="edge">
<title>Node7&#45;&gt;Node384</title>
<path fill="none" stroke="#63b8ff" d="M1179.53,-140.31C1282.75,-132.3 1472.02,-116.36 1632.87,-96 1644.23,-94.56 1656.37,-92.79 1667.9,-90.99"/>
<polygon fill="#63b8ff" stroke="#63b8ff" points="1179.5,-136.8 1169.8,-141.06 1180.04,-143.78 1179.5,-136.8"/>
</g>
<!-- Node258&#45;&gt;Node62 -->
<g id="edge12" class="edge">
<title>Node258&#45;&gt;Node62</title>
<path fill="none" stroke="#63b8ff" d="M2066.49,-65.9C1857.84,-38.2 1287.28,-22.35 1091.09,-17.55"/>
<polygon fill="#63b8ff" stroke="#63b8ff" points="2065.75,-69.33 2076.13,-67.24 2066.71,-62.4 2065.75,-69.33"/>
</g>
<!-- Node258&#45;&gt;Node182 -->
<g id="edge13" class="edge">
<title>Node258&#45;&gt;Node182</title>
<path fill="none" stroke="#63b8ff" d="M2141.06,-56.11C2146.24,-47.38 2151.94,-37.78 2156.46,-30.16"/>
<polygon fill="#63b8ff" stroke="#63b8ff" points="2138.17,-54.11 2136.08,-64.49 2144.19,-57.68 2138.17,-54.11"/>
</g>
<!-- Node396&#45;&gt;Node395 -->
<g id="edge47" class="edge">
<title>Node396&#45;&gt;Node395</title>
<path fill="none" stroke="#63b8ff" d="M3438.3,-444.8C3423.38,-435.24 3405.9,-424.06 3392.35,-415.39"/>
<polygon fill="#63b8ff" stroke="#63b8ff" points="3436.09,-447.54 3446.4,-449.98 3439.87,-441.64 3436.09,-447.54"/>
</g>
<!-- Node397 -->
<g id="node44" class="node">
<title>Node397</title>
<g id="a_node44"><a xlink:href="JAISeq_8cpp.html" target="_top" xlink:title=" ">
<polygon fill="white" stroke="#666666" points="3733.37,-415 3622.37,-415 3622.37,-385 3733.37,-385 3733.37,-415"/>
<text text-anchor="start" x="3630.37" y="-403" font-family="Helvetica,sans-Serif" font-size="10.00">libs/JSystem/JAudio2</text>
<text text-anchor="middle" x="3677.87" y="-392" font-family="Helvetica,sans-Serif" font-size="10.00">/JAISeq.cpp</text>
</a>
</g>
</g>
<!-- Node396&#45;&gt;Node397 -->
<g id="edge46" class="edge">
<title>Node396&#45;&gt;Node397</title>
<path fill="none" stroke="#63b8ff" d="M3527.56,-447.25C3560.19,-437.21 3600.46,-424.82 3631.1,-415.39"/>
<polygon fill="#63b8ff" stroke="#63b8ff" points="3526.79,-443.83 3518.26,-450.11 3528.84,-450.52 3526.79,-443.83"/>
</g>
<!-- Node398 -->
<g id="node45" class="node">
<title>Node398</title>
<g id="a_node45"><a xlink:href="Z2SoundInfo_8cpp.html" target="_top" xlink:title=" ">
<polygon fill="white" stroke="#666666" points="3604.37,-409.5 3443.37,-409.5 3443.37,-390.5 3604.37,-390.5 3604.37,-409.5"/>
<text text-anchor="middle" x="3523.87" y="-397.5" font-family="Helvetica,sans-Serif" font-size="10.00">libs/Z2AudioLib/Z2SoundInfo.cpp</text>
</a>
</g>
</g>
<!-- Node396&#45;&gt;Node398 -->
<g id="edge48" class="edge">
<title>Node396&#45;&gt;Node398</title>
<path fill="none" stroke="#63b8ff" d="M3489.04,-442.28C3498.5,-431.07 3509.37,-418.19 3516.41,-409.84"/>
<polygon fill="#63b8ff" stroke="#63b8ff" points="3486.61,-439.74 3482.83,-449.64 3491.96,-444.25 3486.61,-439.74"/>
</g>
</g>
</svg>
