<?xml version="1.0" encoding="UTF-8" standalone="no"?>
<!DOCTYPE svg PUBLIC "-//W3C//DTD SVG 1.1//EN"
 "http://www.w3.org/Graphics/SVG/1.1/DTD/svg11.dtd">
<!-- Generated by graphviz version 9.0.0 (20230911.1827)
 -->
<!-- Title: include/JSystem/JAudio2/JASTrackPort.h Pages: 1 -->
<svg width="2271pt" height="559pt"
 viewBox="0.00 0.00 2270.75 559.25" xmlns="http://www.w3.org/2000/svg" xmlns:xlink="http://www.w3.org/1999/xlink">
<g id="graph0" class="graph" transform="scale(1 1) rotate(0) translate(4 555.25)">
<title>include/JSystem/JAudio2/JASTrackPort.h</title>
<!-- Node1 -->
<g id="Node000001" class="node">
<title>Node1</title>
<g id="a_Node000001"><a xlink:title=" ">
<polygon fill="#999999" stroke="#666666" points="845.38,-551.25 719.12,-551.25 719.12,-520.75 845.38,-520.75 845.38,-551.25"/>
<text text-anchor="start" x="727.12" y="-537.75" font-family="Helvetica,sans-Serif" font-size="10.00">include/JSystem/JAudio2</text>
<text text-anchor="middle" x="782.25" y="-526.5" font-family="Helvetica,sans-Serif" font-size="10.00">/JASTrackPort.h</text>
</a>
</g>
</g>
<!-- Node2 -->
<g id="Node000002" class="node">
<title>Node2</title>
<g id="a_Node000002"><a xlink:href="JASTrack_8h.html" target="_top" xlink:title=" ">
<polygon fill="white" stroke="#666666" points="641.38,-484.75 515.12,-484.75 515.12,-454.25 641.38,-454.25 641.38,-484.75"/>
<text text-anchor="start" x="523.12" y="-471.25" font-family="Helvetica,sans-Serif" font-size="10.00">include/JSystem/JAudio2</text>
<text text-anchor="middle" x="578.25" y="-460" font-family="Helvetica,sans-Serif" font-size="10.00">/JASTrack.h</text>
</a>
</g>
</g>
<!-- Node1&#45;&gt;Node2 -->
<g id="edge1_Node000001_Node000002" class="edge">
<title>Node1&#45;&gt;Node2</title>
<g id="a_edge1_Node000001_Node000002"><a xlink:title=" ">
<path fill="none" stroke="#63b8ff" d="M724.82,-516.84C693.14,-506.83 654.32,-494.55 624.6,-485.15"/>
<polygon fill="#63b8ff" stroke="#63b8ff" points="723.67,-520.15 734.26,-519.83 725.78,-513.48 723.67,-520.15"/>
</a>
</g>
</g>
<!-- Node521 -->
<g id="Node000521" class="node">
<title>Node521</title>
<g id="a_Node000521"><a xlink:href="JASSeqParser_8cpp.html" target="_top" xlink:title=" ">
<polygon fill="white" stroke="#666666" points="951.5,-418.25 841,-418.25 841,-387.75 951.5,-387.75 951.5,-418.25"/>
<text text-anchor="start" x="849" y="-404.75" font-family="Helvetica,sans-Serif" font-size="10.00">libs/JSystem/JAudio2</text>
<text text-anchor="middle" x="896.25" y="-393.5" font-family="Helvetica,sans-Serif" font-size="10.00">/JASSeqParser.cpp</text>
</a>
</g>
</g>
<!-- Node1&#45;&gt;Node521 -->
<g id="edge54_Node000001_Node000521" class="edge">
<title>Node1&#45;&gt;Node521</title>
<g id="a_edge54_Node000001_Node000521"><a xlink:title=" ">
<path fill="none" stroke="#63b8ff" d="M782.94,-508.92C784.61,-491.83 789.21,-469.84 801.25,-454.25 813.8,-438.01 833.1,-426.45 851.04,-418.54"/>
<polygon fill="#63b8ff" stroke="#63b8ff" points="779.45,-508.62 782.28,-518.83 786.44,-509.09 779.45,-508.62"/>
</a>
</g>
</g>
<!-- Node523 -->
<g id="Node000523" class="node">
<title>Node523</title>
<g id="a_Node000523"><a xlink:href="JASTrackPort_8cpp.html" target="_top" xlink:title=" ">
<polygon fill="white" stroke="#666666" points="920.5,-484.75 810,-484.75 810,-454.25 920.5,-454.25 920.5,-484.75"/>
<text text-anchor="start" x="818" y="-471.25" font-family="Helvetica,sans-Serif" font-size="10.00">libs/JSystem/JAudio2</text>
<text text-anchor="middle" x="865.25" y="-460" font-family="Helvetica,sans-Serif" font-size="10.00">/JASTrackPort.cpp</text>
</a>
</g>
</g>
<!-- Node1&#45;&gt;Node523 -->
<g id="edge55_Node000001_Node000523" class="edge">
<title>Node1&#45;&gt;Node523</title>
<g id="a_edge55_Node000001_Node000523"><a xlink:title=" ">
<path fill="none" stroke="#63b8ff" d="M809.86,-513.54C821.89,-504.19 835.68,-493.48 846.49,-485.08"/>
<polygon fill="#63b8ff" stroke="#63b8ff" points="808.03,-510.54 802.28,-519.44 812.32,-516.06 808.03,-510.54"/>
</a>
</g>
</g>
<!-- Node3 -->
<g id="Node000003" class="node">
<title>Node3</title>
<g id="a_Node000003"><a xlink:href="JAISe_8h.html" target="_top" xlink:title=" ">
<polygon fill="white" stroke="#666666" points="823.38,-418.25 697.12,-418.25 697.12,-387.75 823.38,-387.75 823.38,-418.25"/>
<text text-anchor="start" x="705.12" y="-404.75" font-family="Helvetica,sans-Serif" font-size="10.00">include/JSystem/JAudio2</text>
<text text-anchor="middle" x="760.25" y="-393.5" font-family="Helvetica,sans-Serif" font-size="10.00">/JAISe.h</text>
</a>
</g>
</g>
<!-- Node2&#45;&gt;Node3 -->
<g id="edge2_Node000002_Node000003" class="edge">
<title>Node2&#45;&gt;Node3</title>
<g id="a_edge2_Node000002_Node000003"><a xlink:title=" ">
<path fill="none" stroke="#63b8ff" d="M630.37,-450.03C658.43,-440.08 692.57,-427.99 718.8,-418.69"/>
<polygon fill="#63b8ff" stroke="#63b8ff" points="629.23,-446.72 620.98,-453.36 631.57,-453.32 629.23,-446.72"/>
</a>
</g>
</g>
<!-- Node514 -->
<g id="Node000514" class="node">
<title>Node514</title>
<g id="a_Node000514"><a xlink:href="JAUInitializer_8cpp.html" target="_top" xlink:title=" ">
<polygon fill="white" stroke="#666666" points="801.5,-351.75 691,-351.75 691,-321.25 801.5,-321.25 801.5,-351.75"/>
<text text-anchor="start" x="699" y="-338.25" font-family="Helvetica,sans-Serif" font-size="10.00">libs/JSystem/JAudio2</text>
<text text-anchor="middle" x="746.25" y="-327" font-family="Helvetica,sans-Serif" font-size="10.00">/JAUInitializer.cpp</text>
</a>
</g>
</g>
<!-- Node2&#45;&gt;Node514 -->
<g id="edge53_Node000002_Node000514" class="edge">
<title>Node2&#45;&gt;Node514</title>
<g id="a_edge53_Node000002_Node000514"><a xlink:title=" ">
<path fill="none" stroke="#63b8ff" d="M609.67,-447.48C622.45,-438.7 637.24,-428.23 650.25,-418.25 679.11,-396.11 711.17,-368.5 729.97,-351.97"/>
<polygon fill="#63b8ff" stroke="#63b8ff" points="607.9,-444.45 601.61,-452.98 611.84,-450.23 607.9,-444.45"/>
</a>
</g>
</g>
<!-- Node516 -->
<g id="Node000516" class="node">
<title>Node516</title>
<g id="a_Node000516"><a xlink:href="JAISeq_8h.html" target="_top" xlink:title=" ">
<polygon fill="white" stroke="#666666" points="641.38,-418.25 515.12,-418.25 515.12,-387.75 641.38,-387.75 641.38,-418.25"/>
<text text-anchor="start" x="523.12" y="-404.75" font-family="Helvetica,sans-Serif" font-size="10.00">include/JSystem/JAudio2</text>
<text text-anchor="middle" x="578.25" y="-393.5" font-family="Helvetica,sans-Serif" font-size="10.00">/JAISeq.h</text>
</a>
</g>
</g>
<!-- Node2&#45;&gt;Node516 -->
<g id="edge42_Node000002_Node000516" class="edge">
<title>Node2&#45;&gt;Node516</title>
<g id="a_edge42_Node000002_Node000516"><a xlink:title=" ">
<path fill="none" stroke="#63b8ff" d="M578.25,-442.56C578.25,-434.39 578.25,-425.66 578.25,-418.58"/>
<polygon fill="#63b8ff" stroke="#63b8ff" points="574.75,-442.35 578.25,-452.35 581.75,-442.35 574.75,-442.35"/>
</a>
</g>
</g>
<!-- Node518 -->
<g id="Node000518" class="node">
<title>Node518</title>
<g id="a_Node000518"><a xlink:href="JAISound_8cpp.html" target="_top" xlink:title=" ">
<polygon fill="white" stroke="#666666" points="110.5,-418.25 0,-418.25 0,-387.75 110.5,-387.75 110.5,-418.25"/>
<text text-anchor="start" x="8" y="-404.75" font-family="Helvetica,sans-Serif" font-size="10.00">libs/JSystem/JAudio2</text>
<text text-anchor="middle" x="55.25" y="-393.5" font-family="Helvetica,sans-Serif" font-size="10.00">/JAISound.cpp</text>
</a>
</g>
</g>
<!-- Node2&#45;&gt;Node518 -->
<g id="edge48_Node000002_Node000518" class="edge">
<title>Node2&#45;&gt;Node518</title>
<g id="a_edge48_Node000002_Node000518"><a xlink:title=" ">
<path fill="none" stroke="#63b8ff" d="M503.7,-462.78C412.79,-455.23 254.62,-440.29 120.25,-418.25 117.17,-417.75 114.02,-417.19 110.84,-416.6"/>
<polygon fill="#63b8ff" stroke="#63b8ff" points="503.23,-466.25 513.48,-463.58 503.8,-459.27 503.23,-466.25"/>
</a>
</g>
</g>
<!-- Node519 -->
<g id="Node000519" class="node">
<title>Node519</title>
<g id="a_Node000519"><a xlink:href="JAISoundChild_8cpp.html" target="_top" xlink:title=" ">
<polygon fill="white" stroke="#666666" points="239.5,-418.25 129,-418.25 129,-387.75 239.5,-387.75 239.5,-418.25"/>
<text text-anchor="start" x="137" y="-404.75" font-family="Helvetica,sans-Serif" font-size="10.00">libs/JSystem/JAudio2</text>
<text text-anchor="middle" x="184.25" y="-393.5" font-family="Helvetica,sans-Serif" font-size="10.00">/JAISoundChild.cpp</text>
</a>
</g>
</g>
<!-- Node2&#45;&gt;Node519 -->
<g id="edge49_Node000002_Node000519" class="edge">
<title>Node2&#45;&gt;Node519</title>
<g id="a_edge49_Node000002_Node000519"><a xlink:title=" ">
<path fill="none" stroke="#63b8ff" d="M503.42,-458.47C436.58,-449.17 336.11,-434.39 249.25,-418.25 246.18,-417.68 243.04,-417.07 239.87,-416.44"/>
<polygon fill="#63b8ff" stroke="#63b8ff" points="502.78,-461.91 513.17,-459.82 503.74,-454.98 502.78,-461.91"/>
</a>
</g>
</g>
<!-- Node520 -->
<g id="Node000520" class="node">
<title>Node520</title>
<g id="a_Node000520"><a xlink:href="JASSeqCtrl_8cpp.html" target="_top" xlink:title=" ">
<polygon fill="white" stroke="#666666" points="368.5,-418.25 258,-418.25 258,-387.75 368.5,-387.75 368.5,-418.25"/>
<text text-anchor="start" x="266" y="-404.75" font-family="Helvetica,sans-Serif" font-size="10.00">libs/JSystem/JAudio2</text>
<text text-anchor="middle" x="313.25" y="-393.5" font-family="Helvetica,sans-Serif" font-size="10.00">/JASSeqCtrl.cpp</text>
</a>
</g>
</g>
<!-- Node2&#45;&gt;Node520 -->
<g id="edge50_Node000002_Node000520" class="edge">
<title>Node2&#45;&gt;Node520</title>
<g id="a_edge50_Node000002_Node000520"><a xlink:title=" ">
<path fill="none" stroke="#63b8ff" d="M506.75,-451.1C463.44,-440.56 409.02,-427.31 368.93,-417.55"/>
<polygon fill="#63b8ff" stroke="#63b8ff" points="505.77,-454.46 516.32,-453.43 507.43,-447.66 505.77,-454.46"/>
</a>
</g>
</g>
<!-- Node2&#45;&gt;Node521 -->
<g id="edge51_Node000002_Node000521" class="edge">
<title>Node2&#45;&gt;Node521</title>
<g id="a_edge51_Node000002_Node000521"><a xlink:title=" ">
<path fill="none" stroke="#63b8ff" d="M652.93,-454.21C703.58,-444.4 772.03,-430.91 832.25,-418.25 835.03,-417.66 837.89,-417.06 840.76,-416.44"/>
<polygon fill="#63b8ff" stroke="#63b8ff" points="652.39,-450.75 643.23,-456.08 653.72,-457.62 652.39,-450.75"/>
</a>
</g>
</g>
<!-- Node522 -->
<g id="Node000522" class="node">
<title>Node522</title>
<g id="a_Node000522"><a xlink:href="JASTrack_8cpp.html" target="_top" xlink:title=" ">
<polygon fill="white" stroke="#666666" points="497.5,-418.25 387,-418.25 387,-387.75 497.5,-387.75 497.5,-418.25"/>
<text text-anchor="start" x="395" y="-404.75" font-family="Helvetica,sans-Serif" font-size="10.00">libs/JSystem/JAudio2</text>
<text text-anchor="middle" x="442.25" y="-393.5" font-family="Helvetica,sans-Serif" font-size="10.00">/JASTrack.cpp</text>
</a>
</g>
</g>
<!-- Node2&#45;&gt;Node522 -->
<g id="edge52_Node000002_Node000522" class="edge">
<title>Node2&#45;&gt;Node522</title>
<g id="a_edge52_Node000002_Node000522"><a xlink:title=" ">
<path fill="none" stroke="#63b8ff" d="M537.02,-448.95C516.42,-439.18 491.92,-427.56 472.99,-418.58"/>
<polygon fill="#63b8ff" stroke="#63b8ff" points="535.49,-452.09 546.02,-453.22 538.49,-445.77 535.49,-452.09"/>
</a>
</g>
</g>
<!-- Node4 -->
<g id="Node000004" class="node">
<title>Node4</title>
<g id="a_Node000004"><a xlink:href="JAISeMgr_8h.html" target="_top" xlink:title=" ">
<polygon fill="white" stroke="#666666" points="983.38,-351.75 857.12,-351.75 857.12,-321.25 983.38,-321.25 983.38,-351.75"/>
<text text-anchor="start" x="865.12" y="-338.25" font-family="Helvetica,sans-Serif" font-size="10.00">include/JSystem/JAudio2</text>
<text text-anchor="middle" x="920.25" y="-327" font-family="Helvetica,sans-Serif" font-size="10.00">/JAISeMgr.h</text>
</a>
</g>
</g>
<!-- Node3&#45;&gt;Node4 -->
<g id="edge3_Node000003_Node000004" class="edge">
<title>Node3&#45;&gt;Node4</title>
<g id="a_edge3_Node000003_Node000004"><a xlink:title=" ">
<path fill="none" stroke="#63b8ff" d="M807.05,-383.13C831.53,-373.26 861.05,-361.36 883.81,-352.19"/>
<polygon fill="#63b8ff" stroke="#63b8ff" points="805.93,-379.81 797.96,-386.8 808.54,-386.31 805.93,-379.81"/>
</a>
</g>
</g>
<!-- Node511 -->
<g id="Node000511" class="node">
<title>Node511</title>
<g id="a_Node000511"><a xlink:href="JAISe_8cpp.html" target="_top" xlink:title=" ">
<polygon fill="white" stroke="#666666" points="844.5,-285.25 734,-285.25 734,-254.75 844.5,-254.75 844.5,-285.25"/>
<text text-anchor="start" x="742" y="-271.75" font-family="Helvetica,sans-Serif" font-size="10.00">libs/JSystem/JAudio2</text>
<text text-anchor="middle" x="789.25" y="-260.5" font-family="Helvetica,sans-Serif" font-size="10.00">/JAISe.cpp</text>
</a>
</g>
</g>
<!-- Node3&#45;&gt;Node511 -->
<g id="edge39_Node000003_Node000511" class="edge">
<title>Node3&#45;&gt;Node511</title>
<g id="a_edge39_Node000003_Node000511"><a xlink:title=" ">
<path fill="none" stroke="#63b8ff" d="M789.8,-379.82C798,-371.96 805.86,-362.39 810.25,-351.75 819.42,-329.52 807.87,-302.17 798.61,-285.68"/>
<polygon fill="#63b8ff" stroke="#63b8ff" points="787.57,-377.13 782.39,-386.37 792.2,-382.37 787.57,-377.13"/>
</a>
</g>
</g>
<!-- Node3&#45;&gt;Node514 -->
<g id="edge40_Node000003_Node000514" class="edge">
<title>Node3&#45;&gt;Node514</title>
<g id="a_edge40_Node000003_Node000514"><a xlink:title=" ">
<path fill="none" stroke="#63b8ff" d="M754.68,-376.34C752.89,-368.09 750.97,-359.24 749.41,-352.08"/>
<polygon fill="#63b8ff" stroke="#63b8ff" points="751.21,-376.85 756.75,-385.88 758.05,-375.37 751.21,-376.85"/>
</a>
</g>
</g>
<!-- Node515 -->
<g id="Node000515" class="node">
<title>Node515</title>
<g id="a_Node000515"><a xlink:href="Z2SoundInfo_8cpp.html" target="_top" xlink:title=" ">
<polygon fill="white" stroke="#666666" points="673.25,-346.12 513.25,-346.12 513.25,-326.88 673.25,-326.88 673.25,-346.12"/>
<text text-anchor="middle" x="593.25" y="-332.62" font-family="Helvetica,sans-Serif" font-size="10.00">libs/Z2AudioLib/Z2SoundInfo.cpp</text>
</a>
</g>
</g>
<!-- Node3&#45;&gt;Node515 -->
<g id="edge41_Node000003_Node000515" class="edge">
<title>Node3&#45;&gt;Node515</title>
<g id="a_edge41_Node000003_Node000515"><a xlink:title=" ">
<path fill="none" stroke="#63b8ff" d="M711.66,-383.23C680.36,-371.15 641.09,-355.98 616.58,-346.51"/>
<polygon fill="#63b8ff" stroke="#63b8ff" points="710.35,-386.48 720.94,-386.82 712.88,-379.95 710.35,-386.48"/>
</a>
</g>
</g>
<!-- Node5 -->
<g id="Node000005" class="node">
<title>Node5</title>
<g id="a_Node000005"><a xlink:href="Z2SoundMgr_8h.html" target="_top" xlink:title=" ">
<polygon fill="white" stroke="#666666" points="1234.88,-285.25 1135.62,-285.25 1135.62,-254.75 1234.88,-254.75 1234.88,-285.25"/>
<text text-anchor="start" x="1143.62" y="-271.75" font-family="Helvetica,sans-Serif" font-size="10.00">include/Z2AudioLib</text>
<text text-anchor="middle" x="1185.25" y="-260.5" font-family="Helvetica,sans-Serif" font-size="10.00">/Z2SoundMgr.h</text>
</a>
</g>
</g>
<!-- Node4&#45;&gt;Node5 -->
<g id="edge4_Node000004_Node000005" class="edge">
<title>Node4&#45;&gt;Node5</title>
<g id="a_edge4_Node000004_Node000005"><a xlink:title=" ">
<path fill="none" stroke="#63b8ff" d="M991.68,-318.11C1037.08,-307.06 1094.73,-293.03 1135.26,-283.17"/>
<polygon fill="#63b8ff" stroke="#63b8ff" points="991.07,-314.66 982.18,-320.43 992.73,-321.46 991.07,-314.66"/>
</a>
</g>
</g>
<!-- Node4&#45;&gt;Node511 -->
<g id="edge36_Node000004_Node000511" class="edge">
<title>Node4&#45;&gt;Node511</title>
<g id="a_edge36_Node000004_Node000511"><a xlink:title=" ">
<path fill="none" stroke="#63b8ff" d="M880.26,-315.81C860.48,-306.07 837.01,-294.51 818.86,-285.58"/>
<polygon fill="#63b8ff" stroke="#63b8ff" points="878.65,-318.92 889.17,-320.2 881.74,-312.64 878.65,-318.92"/>
</a>
</g>
</g>
<!-- Node512 -->
<g id="Node000512" class="node">
<title>Node512</title>
<g id="a_Node000512"><a xlink:href="JAISeMgr_8cpp.html" target="_top" xlink:title=" ">
<polygon fill="white" stroke="#666666" points="973.5,-285.25 863,-285.25 863,-254.75 973.5,-254.75 973.5,-285.25"/>
<text text-anchor="start" x="871" y="-271.75" font-family="Helvetica,sans-Serif" font-size="10.00">libs/JSystem/JAudio2</text>
<text text-anchor="middle" x="918.25" y="-260.5" font-family="Helvetica,sans-Serif" font-size="10.00">/JAISeMgr.cpp</text>
</a>
</g>
</g>
<!-- Node4&#45;&gt;Node512 -->
<g id="edge37_Node000004_Node000512" class="edge">
<title>Node4&#45;&gt;Node512</title>
<g id="a_edge37_Node000004_Node000512"><a xlink:title=" ">
<path fill="none" stroke="#63b8ff" d="M919.45,-309.56C919.19,-301.39 918.92,-292.66 918.7,-285.58"/>
<polygon fill="#63b8ff" stroke="#63b8ff" points="915.94,-309.46 919.75,-319.35 922.94,-309.25 915.94,-309.46"/>
</a>
</g>
</g>
<!-- Node513 -->
<g id="Node000513" class="node">
<title>Node513</title>
<g id="a_Node000513"><a xlink:href="JAUAudioArcLoader_8cpp.html" target="_top" xlink:title=" ">
<polygon fill="white" stroke="#666666" points="1117.38,-285.25 991.12,-285.25 991.12,-254.75 1117.38,-254.75 1117.38,-285.25"/>
<text text-anchor="start" x="999.12" y="-271.75" font-family="Helvetica,sans-Serif" font-size="10.00">libs/JSystem/JAudio2</text>
<text text-anchor="middle" x="1054.25" y="-260.5" font-family="Helvetica,sans-Serif" font-size="10.00">/JAUAudioArcLoader.cpp</text>
</a>
</g>
</g>
<!-- Node4&#45;&gt;Node513 -->
<g id="edge38_Node000004_Node000513" class="edge">
<title>Node4&#45;&gt;Node513</title>
<g id="a_edge38_Node000004_Node000513"><a xlink:title=" ">
<path fill="none" stroke="#63b8ff" d="M960.87,-315.95C981.17,-306.18 1005.31,-294.56 1023.96,-285.58"/>
<polygon fill="#63b8ff" stroke="#63b8ff" points="959.51,-312.72 952.02,-320.21 962.55,-319.02 959.51,-312.72"/>
</a>
</g>
</g>
<!-- Node6 -->
<g id="Node000006" class="node">
<title>Node6</title>
<g id="a_Node000006"><a xlink:href="Z2AudioMgr_8h.html" target="_top" xlink:title=" ">
<polygon fill="white" stroke="#666666" points="1546.88,-218.75 1447.62,-218.75 1447.62,-188.25 1546.88,-188.25 1546.88,-218.75"/>
<text text-anchor="start" x="1455.62" y="-205.25" font-family="Helvetica,sans-Serif" font-size="10.00">include/Z2AudioLib</text>
<text text-anchor="middle" x="1497.25" y="-194" font-family="Helvetica,sans-Serif" font-size="10.00">/Z2AudioMgr.h</text>
</a>
</g>
</g>
<!-- Node5&#45;&gt;Node6 -->
<g id="edge5_Node000005_Node000006" class="edge">
<title>Node5&#45;&gt;Node6</title>
<g id="a_edge5_Node000005_Node000006"><a xlink:title=" ">
<path fill="none" stroke="#63b8ff" d="M1246.52,-257.56C1297.85,-247.8 1372.99,-233.11 1438.25,-218.75 1441.23,-218.09 1444.3,-217.4 1447.39,-216.69"/>
<polygon fill="#63b8ff" stroke="#63b8ff" points="1245.96,-254.1 1236.79,-259.4 1247.26,-260.98 1245.96,-254.1"/>
</a>
</g>
</g>
<!-- Node187 -->
<g id="Node000187" class="node">
<title>Node187</title>
<g id="a_Node000187"><a xlink:href="Z2EnvSeMgr_8cpp.html" target="_top" xlink:title=" ">
<polygon fill="white" stroke="#666666" points="1725.62,-213.12 1564.88,-213.12 1564.88,-193.88 1725.62,-193.88 1725.62,-213.12"/>
<text text-anchor="middle" x="1645.25" y="-199.62" font-family="Helvetica,sans-Serif" font-size="10.00">libs/Z2AudioLib/Z2EnvSeMgr.cpp</text>
</a>
</g>
</g>
<!-- Node5&#45;&gt;Node187 -->
<g id="edge29_Node000005_Node000187" class="edge">
<title>Node5&#45;&gt;Node187</title>
<g id="a_edge29_Node000005_Node000187"><a xlink:title=" ">
<path fill="none" stroke="#63b8ff" d="M1246.45,-261.17C1320.05,-251.65 1447.3,-234.85 1556.25,-218.75 1567.09,-217.15 1578.65,-215.36 1589.73,-213.6"/>
<polygon fill="#63b8ff" stroke="#63b8ff" points="1246.08,-257.69 1236.61,-262.44 1246.98,-264.63 1246.08,-257.69"/>
</a>
</g>
</g>
<!-- Node505 -->
<g id="Node000505" class="node">
<title>Node505</title>
<g id="a_Node000505"><a xlink:href="Z2SceneMgr_8cpp.html" target="_top" xlink:title=" ">
<polygon fill="white" stroke="#666666" points="741.25,-213.12 581.25,-213.12 581.25,-193.88 741.25,-193.88 741.25,-213.12"/>
<text text-anchor="middle" x="661.25" y="-199.62" font-family="Helvetica,sans-Serif" font-size="10.00">libs/Z2AudioLib/Z2SceneMgr.cpp</text>
</a>
</g>
</g>
<!-- Node5&#45;&gt;Node505 -->
<g id="edge30_Node000005_Node000505" class="edge">
<title>Node5&#45;&gt;Node505</title>
<g id="a_edge30_Node000005_Node000505"><a xlink:title=" ">
<path fill="none" stroke="#63b8ff" d="M1124.07,-254.55C958.74,-227.52 913.19,-239.57 750.25,-218.75 738.61,-217.26 726.15,-215.42 714.35,-213.57"/>
<polygon fill="#63b8ff" stroke="#63b8ff" points="1123.21,-257.95 1133.64,-256.14 1124.35,-251.05 1123.21,-257.95"/>
</a>
</g>
</g>
<!-- Node506 -->
<g id="Node000506" class="node">
<title>Node506</title>
<g id="a_Node000506"><a xlink:href="Z2SeMgr_8cpp.html" target="_top" xlink:title=" ">
<polygon fill="white" stroke="#666666" points="903.38,-213.12 759.12,-213.12 759.12,-193.88 903.38,-193.88 903.38,-213.12"/>
<text text-anchor="middle" x="831.25" y="-199.62" font-family="Helvetica,sans-Serif" font-size="10.00">libs/Z2AudioLib/Z2SeMgr.cpp</text>
</a>
</g>
</g>
<!-- Node5&#45;&gt;Node506 -->
<g id="edge31_Node000005_Node000506" class="edge">
<title>Node5&#45;&gt;Node506</title>
<g id="a_edge31_Node000005_Node000506"><a xlink:title=" ">
<path fill="none" stroke="#63b8ff" d="M1124.19,-254.42C1029.85,-235.37 1003.77,-234.5 912.25,-218.75 902.68,-217.1 892.48,-215.33 882.66,-213.6"/>
<polygon fill="#63b8ff" stroke="#63b8ff" points="1123.43,-257.83 1133.93,-256.4 1124.83,-250.97 1123.43,-257.83"/>
</a>
</g>
</g>
<!-- Node507 -->
<g id="Node000507" class="node">
<title>Node507</title>
<g id="a_Node000507"><a xlink:href="Z2SeqMgr_8cpp.html" target="_top" xlink:title=" ">
<polygon fill="white" stroke="#666666" points="562,-213.12 412.5,-213.12 412.5,-193.88 562,-193.88 562,-213.12"/>
<text text-anchor="middle" x="487.25" y="-199.62" font-family="Helvetica,sans-Serif" font-size="10.00">libs/Z2AudioLib/Z2SeqMgr.cpp</text>
</a>
</g>
</g>
<!-- Node5&#45;&gt;Node507 -->
<g id="edge32_Node000005_Node000507" class="edge">
<title>Node5&#45;&gt;Node507</title>
<g id="a_edge32_Node000005_Node000507"><a xlink:title=" ">
<path fill="none" stroke="#63b8ff" d="M1123.8,-254.57C880.31,-218.53 813.64,-246.75 572.25,-218.75 560.51,-217.39 547.92,-215.51 536.12,-213.56"/>
<polygon fill="#63b8ff" stroke="#63b8ff" points="1123.25,-258.03 1133.66,-256.05 1124.29,-251.11 1123.25,-258.03"/>
</a>
</g>
</g>
<!-- Node508 -->
<g id="Node000508" class="node">
<title>Node508</title>
<g id="a_Node000508"><a xlink:href="Z2SoundMgr_8cpp.html" target="_top" xlink:title=" ">
<polygon fill="white" stroke="#666666" points="1081.25,-213.12 921.25,-213.12 921.25,-193.88 1081.25,-193.88 1081.25,-213.12"/>
<text text-anchor="middle" x="1001.25" y="-199.62" font-family="Helvetica,sans-Serif" font-size="10.00">libs/Z2AudioLib/Z2SoundMgr.cpp</text>
</a>
</g>
</g>
<!-- Node5&#45;&gt;Node508 -->
<g id="edge33_Node000005_Node000508" class="edge">
<title>Node5&#45;&gt;Node508</title>
<g id="a_edge33_Node000005_Node000508"><a xlink:title=" ">
<path fill="none" stroke="#63b8ff" d="M1132.64,-250.56C1098.13,-238.46 1054.49,-223.16 1027.22,-213.6"/>
<polygon fill="#63b8ff" stroke="#63b8ff" points="1131.47,-253.86 1142.07,-253.86 1133.79,-247.25 1131.47,-253.86"/>
</a>
</g>
</g>
<!-- Node509 -->
<g id="Node000509" class="node">
<title>Node509</title>
<g id="a_Node000509"><a xlink:href="Z2SoundObject_8cpp.html" target="_top" xlink:title=" ">
<polygon fill="white" stroke="#666666" points="1271.25,-213.12 1099.25,-213.12 1099.25,-193.88 1271.25,-193.88 1271.25,-213.12"/>
<text text-anchor="middle" x="1185.25" y="-199.62" font-family="Helvetica,sans-Serif" font-size="10.00">libs/Z2AudioLib/Z2SoundObject.cpp</text>
</a>
</g>
</g>
<!-- Node5&#45;&gt;Node509 -->
<g id="edge34_Node000005_Node000509" class="edge">
<title>Node5&#45;&gt;Node509</title>
<g id="a_edge34_Node000005_Node000509"><a xlink:title=" ">
<path fill="none" stroke="#63b8ff" d="M1185.25,-243.09C1185.25,-232.51 1185.25,-221 1185.25,-213.32"/>
<polygon fill="#63b8ff" stroke="#63b8ff" points="1181.75,-242.85 1185.25,-252.85 1188.75,-242.85 1181.75,-242.85"/>
</a>
</g>
</g>
<!-- Node510 -->
<g id="Node000510" class="node">
<title>Node510</title>
<g id="a_Node000510"><a xlink:href="Z2WolfHowlMgr_8cpp.html" target="_top" xlink:title=" ">
<polygon fill="white" stroke="#666666" points="1429.12,-218.75 1289.38,-218.75 1289.38,-188.25 1429.12,-188.25 1429.12,-218.75"/>
<text text-anchor="start" x="1297.38" y="-205.25" font-family="Helvetica,sans-Serif" font-size="10.00">libs/Z2AudioLib/Z2WolfHowl</text>
<text text-anchor="middle" x="1359.25" y="-194" font-family="Helvetica,sans-Serif" font-size="10.00">Mgr.cpp</text>
</a>
</g>
</g>
<!-- Node5&#45;&gt;Node510 -->
<g id="edge35_Node000005_Node000510" class="edge">
<title>Node5&#45;&gt;Node510</title>
<g id="a_edge35_Node000005_Node000510"><a xlink:title=" ">
<path fill="none" stroke="#63b8ff" d="M1235.44,-250.4C1262.2,-240.48 1294.65,-228.45 1319.62,-219.19"/>
<polygon fill="#63b8ff" stroke="#63b8ff" points="1234.31,-247.08 1226.15,-253.84 1236.75,-253.64 1234.31,-247.08"/>
</a>
</g>
</g>
<!-- Node7 -->
<g id="Node000007" class="node">
<title>Node7</title>
<g id="a_Node000007"><a xlink:href="m__Do__audio_8h.html" target="_top" xlink:title=" ">
<polygon fill="white" stroke="#666666" points="1228.12,-146.62 1088.38,-146.62 1088.38,-127.38 1228.12,-127.38 1228.12,-146.62"/>
<text text-anchor="middle" x="1158.25" y="-133.12" font-family="Helvetica,sans-Serif" font-size="10.00">include/m_Do/m_Do_audio.h</text>
</a>
</g>
</g>
<!-- Node6&#45;&gt;Node7 -->
<g id="edge6_Node000006_Node000007" class="edge">
<title>Node6&#45;&gt;Node7</title>
<g id="a_edge6_Node000006_Node000007"><a xlink:title=" ">
<path fill="none" stroke="#63b8ff" d="M1436.21,-187.9C1347.1,-169.43 1322.49,-167.81 1236.25,-152.25 1227.04,-150.59 1217.22,-148.8 1207.76,-147.08"/>
<polygon fill="#63b8ff" stroke="#63b8ff" points="1435.42,-191.31 1445.92,-189.93 1436.85,-184.46 1435.42,-191.31"/>
</a>
</g>
</g>
<!-- Node501 -->
<g id="Node000501" class="node">
<title>Node501</title>
<g id="a_Node000501"><a xlink:href="Z2AudioMgr_8cpp.html" target="_top" xlink:title=" ">
<polygon fill="white" stroke="#666666" points="1402.75,-146.62 1245.75,-146.62 1245.75,-127.38 1402.75,-127.38 1402.75,-146.62"/>
<text text-anchor="middle" x="1324.25" y="-133.12" font-family="Helvetica,sans-Serif" font-size="10.00">libs/Z2AudioLib/Z2AudioMgr.cpp</text>
</a>
</g>
</g>
<!-- Node6&#45;&gt;Node501 -->
<g id="edge25_Node000006_Node000501" class="edge">
<title>Node6&#45;&gt;Node501</title>
<g id="a_edge25_Node000006_Node000501"><a xlink:title=" ">
<path fill="none" stroke="#63b8ff" d="M1447.37,-183.9C1414.98,-171.83 1374.2,-156.62 1348.67,-147.1"/>
<polygon fill="#63b8ff" stroke="#63b8ff" points="1445.98,-187.12 1456.58,-187.34 1448.43,-180.56 1445.98,-187.12"/>
</a>
</g>
</g>
<!-- Node502 -->
<g id="Node000502" class="node">
<title>Node502</title>
<g id="a_Node000502"><a xlink:href="Z2Creature_8cpp.html" target="_top" xlink:title=" ">
<polygon fill="white" stroke="#666666" points="1573.5,-146.62 1421,-146.62 1421,-127.38 1573.5,-127.38 1573.5,-146.62"/>
<text text-anchor="middle" x="1497.25" y="-133.12" font-family="Helvetica,sans-Serif" font-size="10.00">libs/Z2AudioLib/Z2Creature.cpp</text>
</a>
</g>
</g>
<!-- Node6&#45;&gt;Node502 -->
<g id="edge26_Node000006_Node000502" class="edge">
<title>Node6&#45;&gt;Node502</title>
<g id="a_edge26_Node000006_Node000502"><a xlink:title=" ">
<path fill="none" stroke="#63b8ff" d="M1497.25,-176.59C1497.25,-166.01 1497.25,-154.5 1497.25,-146.82"/>
<polygon fill="#63b8ff" stroke="#63b8ff" points="1493.75,-176.35 1497.25,-186.35 1500.75,-176.35 1493.75,-176.35"/>
</a>
</g>
</g>
<!-- Node503 -->
<g id="Node000503" class="node">
<title>Node503</title>
<g id="a_Node000503"><a xlink:href="Z2SoundStarter_8cpp.html" target="_top" xlink:title=" ">
<polygon fill="white" stroke="#666666" points="1764.62,-146.62 1591.88,-146.62 1591.88,-127.38 1764.62,-127.38 1764.62,-146.62"/>
<text text-anchor="middle" x="1678.25" y="-133.12" font-family="Helvetica,sans-Serif" font-size="10.00">libs/Z2AudioLib/Z2SoundStarter.cpp</text>
</a>
</g>
</g>
<!-- Node6&#45;&gt;Node503 -->
<g id="edge27_Node000006_Node000503" class="edge">
<title>Node6&#45;&gt;Node503</title>
<g id="a_edge27_Node000006_Node000503"><a xlink:title=" ">
<path fill="none" stroke="#63b8ff" d="M1549,-184.06C1582.95,-171.96 1625.87,-156.66 1652.7,-147.1"/>
<polygon fill="#63b8ff" stroke="#63b8ff" points="1547.99,-180.7 1539.75,-187.36 1550.34,-187.3 1547.99,-180.7"/>
</a>
</g>
</g>
<!-- Node504 -->
<g id="Node000504" class="node">
<title>Node504</title>
<g id="a_Node000504"><a xlink:href="Z2SpeechMgr2_8cpp.html" target="_top" xlink:title=" ">
<polygon fill="white" stroke="#666666" points="1913.62,-152.25 1782.88,-152.25 1782.88,-121.75 1913.62,-121.75 1913.62,-152.25"/>
<text text-anchor="start" x="1790.88" y="-138.75" font-family="Helvetica,sans-Serif" font-size="10.00">libs/Z2AudioLib/Z2Speech</text>
<text text-anchor="middle" x="1848.25" y="-127.5" font-family="Helvetica,sans-Serif" font-size="10.00">Mgr2.cpp</text>
</a>
</g>
</g>
<!-- Node6&#45;&gt;Node504 -->
<g id="edge28_Node000006_Node000504" class="edge">
<title>Node6&#45;&gt;Node504</title>
<g id="a_edge28_Node000006_Node000504"><a xlink:title=" ">
<path fill="none" stroke="#63b8ff" d="M1558.16,-187.96C1653.95,-168.78 1680.48,-168.76 1773.25,-152.25 1776.25,-151.72 1779.32,-151.16 1782.42,-150.6"/>
<polygon fill="#63b8ff" stroke="#63b8ff" points="1557.68,-184.48 1548.57,-189.89 1559.07,-191.34 1557.68,-184.48"/>
</a>
</g>
</g>
<!-- Node8 -->
<g id="Node000008" class="node">
<title>Node8</title>
<g id="a_Node000008"><a xlink:href="m__Do__ext_8h.html" target="_top" xlink:title=" ">
<polygon fill="#fff0f0" stroke="red" points="281.88,-80.12 152.62,-80.12 152.62,-60.88 281.88,-60.88 281.88,-80.12"/>
<text text-anchor="middle" x="217.25" y="-66.62" font-family="Helvetica,sans-Serif" font-size="10.00">include/m_Do/m_Do_ext.h</text>
</a>
</g>
</g>
<!-- Node7&#45;&gt;Node8 -->
<g id="edge7_Node000007_Node000008" class="edge">
<title>Node7&#45;&gt;Node8</title>
<g id="a_edge7_Node000007_Node000008"><a xlink:title=" ">
<path fill="none" stroke="#63b8ff" d="M1076.7,-134.94C922.52,-132.13 577.9,-121.98 290.25,-85.75 280,-84.46 269.03,-82.58 258.79,-80.61"/>
<polygon fill="#63b8ff" stroke="#63b8ff" points="1076.35,-138.44 1086.41,-135.11 1076.47,-131.44 1076.35,-138.44"/>
</a>
</g>
</g>
<!-- Node13 -->
<g id="Node000013" class="node">
<title>Node13</title>
<g id="a_Node000013"><a xlink:href="d__com__inf__game_8cpp.html" target="_top" xlink:title=" ">
<polygon fill="white" stroke="#666666" points="407,-85.75 299.5,-85.75 299.5,-55.25 407,-55.25 407,-85.75"/>
<text text-anchor="start" x="307.5" y="-72.25" font-family="Helvetica,sans-Serif" font-size="10.00">src/d/com/d_com_inf</text>
<text text-anchor="middle" x="353.25" y="-61" font-family="Helvetica,sans-Serif" font-size="10.00">_game.cpp</text>
</a>
</g>
</g>
<!-- Node7&#45;&gt;Node13 -->
<g id="edge11_Node000007_Node000013" class="edge">
<title>Node7&#45;&gt;Node13</title>
<g id="a_edge11_Node000007_Node000013"><a xlink:title=" ">
<path fill="none" stroke="#63b8ff" d="M1076.72,-134.7C939.49,-131.57 653.95,-121.03 415.25,-85.75 412.63,-85.36 409.95,-84.92 407.26,-84.44"/>
<polygon fill="#63b8ff" stroke="#63b8ff" points="1076.35,-138.19 1086.43,-134.91 1076.51,-131.2 1076.35,-138.19"/>
</a>
</g>
</g>
<!-- Node213 -->
<g id="Node000213" class="node">
<title>Node213</title>
<g id="a_Node000213"><a xlink:href="d__name_8cpp.html" target="_top" xlink:title=" ">
<polygon fill="white" stroke="#666666" points="517.88,-80.12 424.62,-80.12 424.62,-60.88 517.88,-60.88 517.88,-80.12"/>
<text text-anchor="middle" x="471.25" y="-66.62" font-family="Helvetica,sans-Serif" font-size="10.00">src/d/d_name.cpp</text>
</a>
</g>
</g>
<!-- Node7&#45;&gt;Node213 -->
<g id="edge12_Node000007_Node000213" class="edge">
<title>Node7&#45;&gt;Node213</title>
<g id="a_edge12_Node000007_Node000213"><a xlink:title=" ">
<path fill="none" stroke="#63b8ff" d="M1076.89,-133.93C956.19,-129.86 722.86,-118.19 527.25,-85.75 519.33,-84.44 510.89,-82.55 503.03,-80.58"/>
<polygon fill="#63b8ff" stroke="#63b8ff" points="1076.6,-137.42 1086.71,-134.25 1076.82,-130.42 1076.6,-137.42"/>
</a>
</g>
</g>
<!-- Node223 -->
<g id="Node000223" class="node">
<title>Node223</title>
<g id="a_Node000223"><a xlink:href="d__event__manager_8cpp.html" target="_top" xlink:title=" ">
<polygon fill="white" stroke="#666666" points="638.38,-85.75 536.12,-85.75 536.12,-55.25 638.38,-55.25 638.38,-85.75"/>
<text text-anchor="start" x="544.12" y="-72.25" font-family="Helvetica,sans-Serif" font-size="10.00">src/d/event/d_event</text>
<text text-anchor="middle" x="587.25" y="-61" font-family="Helvetica,sans-Serif" font-size="10.00">_manager.cpp</text>
</a>
</g>
</g>
<!-- Node7&#45;&gt;Node223 -->
<g id="edge13_Node000007_Node000223" class="edge">
<title>Node7&#45;&gt;Node223</title>
<g id="a_edge13_Node000007_Node000223"><a xlink:title=" ">
<path fill="none" stroke="#63b8ff" d="M1076.65,-131.39C975.41,-124.88 797.73,-110.9 647.25,-85.75 644.5,-85.29 641.7,-84.78 638.87,-84.23"/>
<polygon fill="#63b8ff" stroke="#63b8ff" points="1076.3,-134.87 1086.5,-132.01 1076.74,-127.89 1076.3,-134.87"/>
</a>
</g>
</g>
<!-- Node61 -->
<g id="Node000061" class="node">
<title>Node61</title>
<g id="a_Node000061"><a xlink:href="d__kankyo_8cpp.html" target="_top" xlink:title=" ">
<polygon fill="white" stroke="#666666" points="790.12,-80.12 656.38,-80.12 656.38,-60.88 790.12,-60.88 790.12,-80.12"/>
<text text-anchor="middle" x="723.25" y="-66.62" font-family="Helvetica,sans-Serif" font-size="10.00">src/d/kankyo/d_kankyo.cpp</text>
</a>
</g>
</g>
<!-- Node7&#45;&gt;Node61 -->
<g id="edge14_Node000007_Node000061" class="edge">
<title>Node7&#45;&gt;Node61</title>
<g id="a_edge14_Node000007_Node000061"><a xlink:title=" ">
<path fill="none" stroke="#63b8ff" d="M1076.57,-125.66C1003.7,-116.18 894.17,-101.28 799.25,-85.75 789.71,-84.19 779.53,-82.38 769.81,-80.58"/>
<polygon fill="#63b8ff" stroke="#63b8ff" points="1076.07,-129.13 1086.44,-126.94 1076.97,-122.18 1076.07,-129.13"/>
</a>
</g>
</g>
<!-- Node228 -->
<g id="Node000228" class="node">
<title>Node228</title>
<g id="a_Node000228"><a xlink:href="d__kankyo__wether_8cpp.html" target="_top" xlink:title=" ">
<polygon fill="white" stroke="#666666" points="924.12,-85.75 808.38,-85.75 808.38,-55.25 924.12,-55.25 924.12,-85.75"/>
<text text-anchor="start" x="816.38" y="-72.25" font-family="Helvetica,sans-Serif" font-size="10.00">src/d/kankyo/d_kankyo</text>
<text text-anchor="middle" x="866.25" y="-61" font-family="Helvetica,sans-Serif" font-size="10.00">_wether.cpp</text>
</a>
</g>
</g>
<!-- Node7&#45;&gt;Node228 -->
<g id="edge15_Node000007_Node000228" class="edge">
<title>Node7&#45;&gt;Node228</title>
<g id="a_edge15_Node000007_Node000228"><a xlink:title=" ">
<path fill="none" stroke="#63b8ff" d="M1105.92,-124.44C1054.86,-113.16 977.34,-96.04 924.38,-84.34"/>
<polygon fill="#63b8ff" stroke="#63b8ff" points="1105.04,-127.83 1115.55,-126.57 1106.55,-120.99 1105.04,-127.83"/>
</a>
</g>
</g>
<!-- Node20 -->
<g id="Node000020" class="node">
<title>Node20</title>
<g id="a_Node000020"><a xlink:href="d__msg__flow_8cpp.html" target="_top" xlink:title=" ">
<polygon fill="white" stroke="#666666" points="1074.38,-80.12 942.12,-80.12 942.12,-60.88 1074.38,-60.88 1074.38,-80.12"/>
<text text-anchor="middle" x="1008.25" y="-66.62" font-family="Helvetica,sans-Serif" font-size="10.00">src/d/msg/d_msg_flow.cpp</text>
</a>
</g>
</g>
<!-- Node7&#45;&gt;Node20 -->
<g id="edge16_Node000007_Node000020" class="edge">
<title>Node7&#45;&gt;Node20</title>
<g id="a_edge16_Node000007_Node000020"><a xlink:title=" ">
<path fill="none" stroke="#63b8ff" d="M1126.58,-122.38C1097.3,-109.79 1054.62,-91.44 1029.32,-80.56"/>
<polygon fill="#63b8ff" stroke="#63b8ff" points="1125.12,-125.56 1135.69,-126.3 1127.88,-119.13 1125.12,-125.56"/>
</a>
</g>
</g>
<!-- Node246 -->
<g id="Node000246" class="node">
<title>Node246</title>
<g id="a_Node000246"><a xlink:href="d__ovlp__fade_8cpp.html" target="_top" xlink:title=" ">
<polygon fill="white" stroke="#666666" points="1224.38,-80.12 1092.12,-80.12 1092.12,-60.88 1224.38,-60.88 1224.38,-80.12"/>
<text text-anchor="middle" x="1158.25" y="-66.62" font-family="Helvetica,sans-Serif" font-size="10.00">src/d/ovlp/d_ovlp_fade.cpp</text>
</a>
</g>
</g>
<!-- Node7&#45;&gt;Node246 -->
<g id="edge17_Node000007_Node000246" class="edge">
<title>Node7&#45;&gt;Node246</title>
<g id="a_edge17_Node000007_Node000246"><a xlink:title=" ">
<path fill="none" stroke="#63b8ff" d="M1158.25,-115.52C1158.25,-103.69 1158.25,-89.41 1158.25,-80.39"/>
<polygon fill="#63b8ff" stroke="#63b8ff" points="1154.75,-115.52 1158.25,-125.52 1161.75,-115.52 1154.75,-115.52"/>
</a>
</g>
</g>
<!-- Node89 -->
<g id="Node000089" class="node">
<title>Node89</title>
<g id="a_Node000089"><a xlink:href="d__ovlp__fade2_8cpp.html" target="_top" xlink:title=" ">
<polygon fill="white" stroke="#666666" points="1380,-80.12 1242.5,-80.12 1242.5,-60.88 1380,-60.88 1380,-80.12"/>
<text text-anchor="middle" x="1311.25" y="-66.62" font-family="Helvetica,sans-Serif" font-size="10.00">src/d/ovlp/d_ovlp_fade2.cpp</text>
</a>
</g>
</g>
<!-- Node7&#45;&gt;Node89 -->
<g id="edge18_Node000007_Node000089" class="edge">
<title>Node7&#45;&gt;Node89</title>
<g id="a_edge18_Node000007_Node000089"><a xlink:title=" ">
<path fill="none" stroke="#63b8ff" d="M1190.16,-122.55C1220.04,-109.95 1263.84,-91.49 1289.76,-80.56"/>
<polygon fill="#63b8ff" stroke="#63b8ff" points="1189.1,-119.2 1181.24,-126.31 1191.82,-125.65 1189.1,-119.2"/>
</a>
</g>
</g>
<!-- Node91 -->
<g id="Node000091" class="node">
<title>Node91</title>
<g id="a_Node000091"><a xlink:href="d__ovlp__fade3_8cpp.html" target="_top" xlink:title=" ">
<polygon fill="white" stroke="#666666" points="1536,-80.12 1398.5,-80.12 1398.5,-60.88 1536,-60.88 1536,-80.12"/>
<text text-anchor="middle" x="1467.25" y="-66.62" font-family="Helvetica,sans-Serif" font-size="10.00">src/d/ovlp/d_ovlp_fade3.cpp</text>
</a>
</g>
</g>
<!-- Node7&#45;&gt;Node91 -->
<g id="edge19_Node000007_Node000091" class="edge">
<title>Node7&#45;&gt;Node91</title>
<g id="a_edge19_Node000007_Node000091"><a xlink:title=" ">
<path fill="none" stroke="#63b8ff" d="M1213.04,-124.56C1273.22,-112 1368.64,-92.08 1423.86,-80.56"/>
<polygon fill="#63b8ff" stroke="#63b8ff" points="1212.42,-121.12 1203.35,-126.59 1213.85,-127.97 1212.42,-121.12"/>
</a>
</g>
</g>
<!-- Node249 -->
<g id="Node000249" class="node">
<title>Node249</title>
<g id="a_Node000249"><a xlink:href="d__s__name_8cpp.html" target="_top" xlink:title=" ">
<polygon fill="white" stroke="#666666" points="1666.25,-80.12 1554.25,-80.12 1554.25,-60.88 1666.25,-60.88 1666.25,-80.12"/>
<text text-anchor="middle" x="1610.25" y="-66.62" font-family="Helvetica,sans-Serif" font-size="10.00">src/d/s/d_s_name.cpp</text>
</a>
</g>
</g>
<!-- Node7&#45;&gt;Node249 -->
<g id="edge20_Node000007_Node000249" class="edge">
<title>Node7&#45;&gt;Node249</title>
<g id="a_edge20_Node000007_Node000249"><a xlink:title=" ">
<path fill="none" stroke="#63b8ff" d="M1216.36,-124.96C1223.06,-123.81 1229.8,-122.71 1236.25,-121.75 1372.99,-101.32 1408.89,-108.58 1545.25,-85.75 1553.91,-84.3 1563.16,-82.46 1571.88,-80.58"/>
<polygon fill="#63b8ff" stroke="#63b8ff" points="1215.92,-121.48 1206.68,-126.65 1217.13,-128.37 1215.92,-121.48"/>
</a>
</g>
</g>
<!-- Node86 -->
<g id="Node000086" class="node">
<title>Node86</title>
<g id="a_Node000086"><a xlink:href="d__s__play_8cpp.html" target="_top" xlink:title=" ">
<polygon fill="white" stroke="#666666" points="1789.88,-80.12 1684.62,-80.12 1684.62,-60.88 1789.88,-60.88 1789.88,-80.12"/>
<text text-anchor="middle" x="1737.25" y="-66.62" font-family="Helvetica,sans-Serif" font-size="10.00">src/d/s/d_s_play.cpp</text>
</a>
</g>
</g>
<!-- Node7&#45;&gt;Node86 -->
<g id="edge21_Node000007_Node000086" class="edge">
<title>Node7&#45;&gt;Node86</title>
<g id="a_edge21_Node000007_Node000086"><a xlink:title=" ">
<path fill="none" stroke="#63b8ff" d="M1215.01,-124.96C1222.14,-123.77 1229.35,-122.66 1236.25,-121.75 1430.33,-96.13 1481.8,-115.75 1675.25,-85.75 1683.87,-84.41 1693.08,-82.54 1701.68,-80.6"/>
<polygon fill="#63b8ff" stroke="#63b8ff" points="1214.66,-121.46 1205.4,-126.62 1215.85,-128.36 1214.66,-121.46"/>
</a>
</g>
</g>
<!-- Node26 -->
<g id="Node000026" class="node">
<title>Node26</title>
<g id="a_Node000026"><a xlink:href="d__shop__system_8cpp.html" target="_top" xlink:title=" ">
<polygon fill="white" stroke="#666666" points="1958.75,-80.12 1807.75,-80.12 1807.75,-60.88 1958.75,-60.88 1958.75,-80.12"/>
<text text-anchor="middle" x="1883.25" y="-66.62" font-family="Helvetica,sans-Serif" font-size="10.00">src/d/shop/d_shop_system.cpp</text>
</a>
</g>
</g>
<!-- Node7&#45;&gt;Node26 -->
<g id="edge22_Node000007_Node000026" class="edge">
<title>Node7&#45;&gt;Node26</title>
<g id="a_edge22_Node000007_Node000026"><a xlink:title=" ">
<path fill="none" stroke="#63b8ff" d="M1214.17,-124.97C1221.58,-123.75 1229.08,-122.63 1236.25,-121.75 1485.11,-91.17 1550.2,-114.76 1799.25,-85.75 1810.86,-84.4 1823.3,-82.52 1834.96,-80.58"/>
<polygon fill="#63b8ff" stroke="#63b8ff" points="1213.82,-121.48 1204.56,-126.63 1215.01,-128.38 1213.82,-121.48"/>
</a>
</g>
</g>
<!-- Node500 -->
<g id="Node000500" class="node">
<title>Node500</title>
<g id="a_Node000500"><a xlink:href="m__Do__Reset_8cpp.html" target="_top" xlink:title=" ">
<polygon fill="white" stroke="#666666" points="2111.88,-80.12 1976.62,-80.12 1976.62,-60.88 2111.88,-60.88 2111.88,-80.12"/>
<text text-anchor="middle" x="2044.25" y="-66.62" font-family="Helvetica,sans-Serif" font-size="10.00">src/m_Do/m_Do_Reset.cpp</text>
</a>
</g>
</g>
<!-- Node7&#45;&gt;Node500 -->
<g id="edge23_Node000007_Node000500" class="edge">
<title>Node7&#45;&gt;Node500</title>
<g id="a_edge23_Node000007_Node000500"><a xlink:title=" ">
<path fill="none" stroke="#63b8ff" d="M1213.33,-125.01C1221,-123.75 1228.81,-122.61 1236.25,-121.75 1559.83,-84.4 1644.76,-123.85 1968.25,-85.75 1979.05,-84.48 1990.62,-82.58 2001.4,-80.59"/>
<polygon fill="#63b8ff" stroke="#63b8ff" points="1212.99,-121.51 1203.73,-126.66 1214.18,-128.41 1212.99,-121.51"/>
</a>
</g>
</g>
<!-- Node257 -->
<g id="Node000257" class="node">
<title>Node257</title>
<g id="a_Node000257"><a xlink:href="m__Do__audio_8cpp.html" target="_top" xlink:title=" ">
<polygon fill="white" stroke="#666666" points="2262.75,-80.12 2129.75,-80.12 2129.75,-60.88 2262.75,-60.88 2262.75,-80.12"/>
<text text-anchor="middle" x="2196.25" y="-66.62" font-family="Helvetica,sans-Serif" font-size="10.00">src/m_Do/m_Do_audio.cpp</text>
</a>
</g>
</g>
<!-- Node7&#45;&gt;Node257 -->
<g id="edge24_Node000007_Node000257" class="edge">
<title>Node7&#45;&gt;Node257</title>
<g id="a_edge24_Node000007_Node000257"><a xlink:title=" ">
<path fill="none" stroke="#63b8ff" d="M1213.04,-124.99C1220.81,-123.72 1228.71,-122.59 1236.25,-121.75 1627.5,-78.27 1730.16,-130.61 2121.25,-85.75 2132.05,-84.51 2143.62,-82.6 2154.37,-80.58"/>
<polygon fill="#63b8ff" stroke="#63b8ff" points="1212.57,-121.52 1203.31,-126.67 1213.76,-128.42 1212.57,-121.52"/>
</a>
</g>
</g>
<!-- Node9 -->
<g id="Node000009" class="node">
<title>Node9</title>
<g id="a_Node000009"><a xlink:href="d__attention_8h.html" target="_top" xlink:title=" ">
<polygon fill="#fff0f0" stroke="red" points="144,-19.25 30.5,-19.25 30.5,0 144,0 144,-19.25"/>
<text text-anchor="middle" x="87.25" y="-5.75" font-family="Helvetica,sans-Serif" font-size="10.00">include/d/d_attention.h</text>
</a>
</g>
</g>
<!-- Node8&#45;&gt;Node9 -->
<g id="edge8_Node000008_Node000009" class="edge">
<title>Node8&#45;&gt;Node9</title>
<g id="a_edge8_Node000008_Node000009"><a xlink:title=" ">
<path fill="none" stroke="#63b8ff" d="M186.99,-55.79C162.37,-44.65 128.35,-29.24 107.09,-19.61"/>
<polygon fill="#63b8ff" stroke="#63b8ff" points="185.29,-58.87 195.84,-59.81 188.18,-52.49 185.29,-58.87"/>
</a>
</g>
</g>
<!-- Node264 -->
<g id="Node000264" class="node">
<title>Node264</title>
<g id="a_Node000264"><a xlink:href="d__drawlist_8h.html" target="_top" xlink:title=" ">
<polygon fill="#fff0f0" stroke="red" points="272.12,-19.25 162.38,-19.25 162.38,0 272.12,0 272.12,-19.25"/>
<text text-anchor="middle" x="217.25" y="-5.75" font-family="Helvetica,sans-Serif" font-size="10.00">include/d/d_drawlist.h</text>
</a>
</g>
</g>
<!-- Node8&#45;&gt;Node264 -->
<g id="edge9_Node000008_Node000264" class="edge">
<title>Node8&#45;&gt;Node264</title>
<g id="a_edge9_Node000008_Node000264"><a xlink:title=" ">
<path fill="none" stroke="#63b8ff" d="M217.25,-49.07C217.25,-39.04 217.25,-27.46 217.25,-19.65"/>
<polygon fill="#63b8ff" stroke="#63b8ff" points="213.75,-49.04 217.25,-59.04 220.75,-49.04 213.75,-49.04"/>
</a>
</g>
</g>
<!-- Node313 -->
<g id="Node000313" class="node">
<title>Node313</title>
<g id="a_Node000313"><a xlink:href="d__ky__thunder_8h.html" target="_top" xlink:title=" ">
<polygon fill="#fff0f0" stroke="red" points="413.88,-19.25 290.62,-19.25 290.62,0 413.88,0 413.88,-19.25"/>
<text text-anchor="middle" x="352.25" y="-5.75" font-family="Helvetica,sans-Serif" font-size="10.00">include/d/d_ky_thunder.h</text>
</a>
</g>
</g>
<!-- Node8&#45;&gt;Node313 -->
<g id="edge10_Node000008_Node000313" class="edge">
<title>Node8&#45;&gt;Node313</title>
<g id="a_edge10_Node000008_Node000313"><a xlink:title=" ">
<path fill="none" stroke="#63b8ff" d="M248.33,-55.94C273.92,-44.79 309.47,-29.28 331.65,-19.61"/>
<polygon fill="#63b8ff" stroke="#63b8ff" points="247.2,-52.62 239.44,-59.82 250,-59.04 247.2,-52.62"/>
</a>
</g>
</g>
<!-- Node516&#45;&gt;Node507 -->
<g id="edge45_Node000516_Node000507" class="edge">
<title>Node516&#45;&gt;Node507</title>
<g id="a_edge45_Node000516_Node000507"><a xlink:title=" ">
<path fill="none" stroke="#63b8ff" d="M535.29,-381.68C523.37,-373.97 511.68,-364.01 504.25,-351.75 476.65,-306.19 482.57,-238.03 485.85,-213.61"/>
<polygon fill="#63b8ff" stroke="#63b8ff" points="533.14,-384.47 543.52,-386.61 536.74,-378.47 533.14,-384.47"/>
</a>
</g>
</g>
<!-- Node516&#45;&gt;Node514 -->
<g id="edge44_Node000516_Node000514" class="edge">
<title>Node516&#45;&gt;Node514</title>
<g id="a_edge44_Node000516_Node000514"><a xlink:title=" ">
<path fill="none" stroke="#63b8ff" d="M627.05,-383.26C652.82,-373.37 683.99,-361.4 707.99,-352.19"/>
<polygon fill="#63b8ff" stroke="#63b8ff" points="625.87,-379.97 617.78,-386.82 628.37,-386.5 625.87,-379.97"/>
</a>
</g>
</g>
<!-- Node516&#45;&gt;Node515 -->
<g id="edge46_Node000516_Node000515" class="edge">
<title>Node516&#45;&gt;Node515</title>
<g id="a_edge46_Node000516_Node000515"><a xlink:title=" ">
<path fill="none" stroke="#63b8ff" d="M584.2,-376.43C586.68,-365.76 589.39,-354.08 591.2,-346.32"/>
<polygon fill="#63b8ff" stroke="#63b8ff" points="580.85,-375.36 582,-385.89 587.67,-376.94 580.85,-375.36"/>
</a>
</g>
</g>
<!-- Node517 -->
<g id="Node000517" class="node">
<title>Node517</title>
<g id="a_Node000517"><a xlink:href="JAISeq_8cpp.html" target="_top" xlink:title=" ">
<polygon fill="white" stroke="#666666" points="331.5,-351.75 221,-351.75 221,-321.25 331.5,-321.25 331.5,-351.75"/>
<text text-anchor="start" x="229" y="-338.25" font-family="Helvetica,sans-Serif" font-size="10.00">libs/JSystem/JAudio2</text>
<text text-anchor="middle" x="276.25" y="-327" font-family="Helvetica,sans-Serif" font-size="10.00">/JAISeq.cpp</text>
</a>
</g>
</g>
<!-- Node516&#45;&gt;Node517 -->
<g id="edge43_Node000516_Node000517" class="edge">
<title>Node516&#45;&gt;Node517</title>
<g id="a_edge43_Node000516_Node000517"><a xlink:title=" ">
<path fill="none" stroke="#63b8ff" d="M503.83,-386.51C456.88,-376.68 394.98,-363.62 340.25,-351.75 337.47,-351.15 334.62,-350.53 331.74,-349.9"/>
<polygon fill="#63b8ff" stroke="#63b8ff" points="502.83,-389.87 513.34,-388.5 504.27,-383.02 502.83,-389.87"/>
</a>
</g>
</g>
<!-- Node11 -->
<g id="Node000011" class="node">
<title>Node11</title>
<g id="a_Node000011"><a xlink:href="d__a__alink_8cpp.html" target="_top" xlink:title=" ">
<polygon fill="white" stroke="#666666" points="457.38,-346.12 349.12,-346.12 349.12,-326.88 457.38,-326.88 457.38,-346.12"/>
<text text-anchor="middle" x="403.25" y="-332.62" font-family="Helvetica,sans-Serif" font-size="10.00">src/d/a/d_a_alink.cpp</text>
</a>
</g>
</g>
<!-- Node516&#45;&gt;Node11 -->
<g id="edge47_Node000516_Node000011" class="edge">
<title>Node516&#45;&gt;Node11</title>
<g id="a_edge47_Node000516_Node000011"><a xlink:title=" ">
<path fill="none" stroke="#63b8ff" d="M527.79,-383.4C495.03,-371.33 453.78,-356.12 427.95,-346.6"/>
<polygon fill="#63b8ff" stroke="#63b8ff" points="526.53,-386.67 537.12,-386.84 528.95,-380.1 526.53,-386.67"/>
</a>
</g>
</g>
</g>
</svg>
