<?xml version="1.0" encoding="UTF-8" standalone="no"?>
<!DOCTYPE svg PUBLIC "-//W3C//DTD SVG 1.1//EN"
 "http://www.w3.org/Graphics/SVG/1.1/DTD/svg11.dtd">
<!-- Generated by graphviz version 7.0.5 (20221223.1930)
 -->
<!-- Title: include/JSystem/JAudio2/JAUStreamAramMgr.h Pages: 1 -->
<svg width="1680pt" height="489pt"
 viewBox="0.00 0.00 1680.00 489.00" xmlns="http://www.w3.org/2000/svg" xmlns:xlink="http://www.w3.org/1999/xlink">
<g id="graph0" class="graph" transform="scale(1 1) rotate(0) translate(4 485)">
<title>include/JSystem/JAudio2/JAUStreamAramMgr.h</title>
<!-- Node1 -->
<g id="node1" class="node">
<title>Node1</title>
<g id="a_node1"><a xlink:title=" ">
<polygon fill="#999999" stroke="#666666" points="719.5,-481 592.5,-481 592.5,-451 719.5,-451 719.5,-481"/>
<text text-anchor="start" x="600.5" y="-469" font-family="Helvetica,sans-Serif" font-size="10.00">include/JSystem/JAudio2</text>
<text text-anchor="middle" x="656" y="-458" font-family="Helvetica,sans-Serif" font-size="10.00">/JAUStreamAramMgr.h</text>
</a>
</g>
</g>
<!-- Node2 -->
<g id="node2" class="node">
<title>Node2</title>
<g id="a_node2"><a xlink:href="JAIStreamDataMgr_8h.html" target="_top" xlink:title=" ">
<polygon fill="white" stroke="#666666" points="411.5,-415 268.5,-415 268.5,-385 411.5,-385 411.5,-415"/>
<text text-anchor="start" x="276.5" y="-403" font-family="Helvetica,sans-Serif" font-size="10.00">JSystem/JAudio2/JAIStream</text>
<text text-anchor="middle" x="340" y="-392" font-family="Helvetica,sans-Serif" font-size="10.00">DataMgr.h</text>
</a>
</g>
</g>
<!-- Node1&#45;&gt;Node2 -->
<g id="edge1" class="edge">
<title>Node1&#45;&gt;Node2</title>
<path fill="none" stroke="#63b8ff" d="M592.05,-452.05C543.23,-442.16 475.56,-428.45 422.63,-417.73"/>
<polygon fill="#63b8ff" stroke="#63b8ff" points="423.55,-414.35 413.05,-415.8 422.16,-421.21 423.55,-414.35"/>
</g>
<!-- Node16 -->
<g id="node16" class="node">
<title>Node16</title>
<g id="a_node16"><a xlink:href="JASAramStream_8h.html" target="_top" xlink:title=" ">
<polygon fill="white" stroke="#666666" points="620.5,-409.5 443.5,-409.5 443.5,-390.5 620.5,-390.5 620.5,-409.5"/>
<text text-anchor="middle" x="532" y="-397.5" font-family="Helvetica,sans-Serif" font-size="10.00">JSystem/JAudio2/JASAramStream.h</text>
</a>
</g>
</g>
<!-- Node1&#45;&gt;Node16 -->
<g id="edge18" class="edge">
<title>Node1&#45;&gt;Node16</title>
<path fill="none" stroke="#63b8ff" d="M628.17,-450.64C607.71,-440.08 580.04,-425.79 559.63,-415.26"/>
<polygon fill="#63b8ff" stroke="#63b8ff" points="561.25,-412.16 550.76,-410.68 558.04,-418.38 561.25,-412.16"/>
</g>
<!-- Node20 -->
<g id="node20" class="node">
<title>Node20</title>
<g id="a_node20"><a xlink:href="JASHeapCtrl_8h.html" target="_top" xlink:title=" ">
<polygon fill="white" stroke="#666666" points="736.5,-349 575.5,-349 575.5,-330 736.5,-330 736.5,-349"/>
<text text-anchor="middle" x="656" y="-337" font-family="Helvetica,sans-Serif" font-size="10.00">JSystem/JAudio2/JASHeapCtrl.h</text>
</a>
</g>
</g>
<!-- Node1&#45;&gt;Node20 -->
<g id="edge23" class="edge">
<title>Node1&#45;&gt;Node20</title>
<path fill="none" stroke="#63b8ff" d="M656,-450.72C656,-428.64 656,-386.12 656,-360.83"/>
<polygon fill="#63b8ff" stroke="#63b8ff" points="659.5,-360.9 656,-350.9 652.5,-360.9 659.5,-360.9"/>
</g>
<!-- Node24 -->
<g id="node24" class="node">
<title>Node24</title>
<g id="a_node24"><a xlink:href="JUTAssert_8h.html" target="_top" xlink:title=" ">
<polygon fill="white" stroke="#666666" points="834,-409.5 688,-409.5 688,-390.5 834,-390.5 834,-409.5"/>
<text text-anchor="middle" x="761" y="-397.5" font-family="Helvetica,sans-Serif" font-size="10.00">JSystem/JUtility/JUTAssert.h</text>
</a>
</g>
</g>
<!-- Node1&#45;&gt;Node24 -->
<g id="edge30" class="edge">
<title>Node1&#45;&gt;Node24</title>
<path fill="none" stroke="#63b8ff" d="M679.56,-450.64C696.65,-440.22 719.68,-426.19 736.89,-415.7"/>
<polygon fill="#63b8ff" stroke="#63b8ff" points="738.25,-418.97 744.97,-410.77 734.6,-412.99 738.25,-418.97"/>
</g>
<!-- Node25 -->
<g id="node25" class="node">
<title>Node25</title>
<g id="a_node25"><a xlink:href="bitset_8h.html" target="_top" xlink:title=" ">
<polygon fill="white" stroke="#666666" points="1148,-409.5 1064,-409.5 1064,-390.5 1148,-390.5 1148,-409.5"/>
<text text-anchor="middle" x="1106" y="-397.5" font-family="Helvetica,sans-Serif" font-size="10.00">MSL_C/bitset.h</text>
</a>
</g>
</g>
<!-- Node1&#45;&gt;Node25 -->
<g id="edge32" class="edge">
<title>Node1&#45;&gt;Node25</title>
<path fill="none" stroke="#63b8ff" d="M720,-455.9C809.22,-443.21 969.38,-420.43 1052.56,-408.6"/>
<polygon fill="#63b8ff" stroke="#63b8ff" points="1052.87,-412.09 1062.28,-407.22 1051.88,-405.16 1052.87,-412.09"/>
</g>
<!-- Node3 -->
<g id="node3" class="node">
<title>Node3</title>
<g id="a_node3"><a xlink:href="JAISound_8h.html" target="_top" xlink:title=" ">
<polygon fill="white" stroke="#666666" points="355,-349 209,-349 209,-330 355,-330 355,-349"/>
<text text-anchor="middle" x="282" y="-337" font-family="Helvetica,sans-Serif" font-size="10.00">JSystem/JAudio2/JAISound.h</text>
</a>
</g>
</g>
<!-- Node2&#45;&gt;Node3 -->
<g id="edge2" class="edge">
<title>Node2&#45;&gt;Node3</title>
<path fill="none" stroke="#63b8ff" d="M325.66,-384.54C317.5,-376.3 307.23,-365.94 298.7,-357.34"/>
<polygon fill="#63b8ff" stroke="#63b8ff" points="301.19,-354.89 291.67,-350.25 296.22,-359.82 301.19,-354.89"/>
</g>
<!-- Node4 -->
<g id="node4" class="node">
<title>Node4</title>
<g id="a_node4"><a xlink:href="JAISoundParams_8h.html" target="_top" xlink:title=" ">
<polygon fill="white" stroke="#666666" points="400.5,-294 261.5,-294 261.5,-264 400.5,-264 400.5,-294"/>
<text text-anchor="start" x="269.5" y="-282" font-family="Helvetica,sans-Serif" font-size="10.00">JSystem/JAudio2/JAISound</text>
<text text-anchor="middle" x="331" y="-271" font-family="Helvetica,sans-Serif" font-size="10.00">Params.h</text>
</a>
</g>
</g>
<!-- Node3&#45;&gt;Node4 -->
<g id="edge3" class="edge">
<title>Node3&#45;&gt;Node4</title>
<path fill="none" stroke="#63b8ff" d="M289.23,-329.87C295.2,-322.74 303.96,-312.28 311.91,-302.79"/>
<polygon fill="#63b8ff" stroke="#63b8ff" points="314.47,-305.19 318.21,-295.27 309.1,-300.69 314.47,-305.19"/>
</g>
<!-- Node8 -->
<g id="node8" class="node">
<title>Node8</title>
<g id="a_node8"><a xlink:href="JAIAudible_8h.html" target="_top" xlink:title=" ">
<polygon fill="white" stroke="#666666" points="203.5,-288.5 52.5,-288.5 52.5,-269.5 203.5,-269.5 203.5,-288.5"/>
<text text-anchor="middle" x="128" y="-276.5" font-family="Helvetica,sans-Serif" font-size="10.00">JSystem/JAudio2/JAIAudible.h</text>
</a>
</g>
</g>
<!-- Node3&#45;&gt;Node8 -->
<g id="edge7" class="edge">
<title>Node3&#45;&gt;Node8</title>
<path fill="none" stroke="#63b8ff" d="M258.61,-329.62C232.94,-319.87 191.5,-304.12 162.19,-292.99"/>
<polygon fill="#63b8ff" stroke="#63b8ff" points="163.62,-289.79 153.02,-289.51 161.13,-296.33 163.62,-289.79"/>
</g>
<!-- Node15 -->
<g id="node15" class="node">
<title>Node15</title>
<g id="a_node15"><a xlink:href="global_8h.html" target="_top" xlink:title=" ">
<polygon fill="white" stroke="#666666" points="377,-156.5 327,-156.5 327,-137.5 377,-137.5 377,-156.5"/>
<text text-anchor="middle" x="352" y="-144.5" font-family="Helvetica,sans-Serif" font-size="10.00">global.h</text>
</a>
</g>
</g>
<!-- Node3&#45;&gt;Node15 -->
<g id="edge16" class="edge">
<title>Node3&#45;&gt;Node15</title>
<path fill="none" stroke="#63b8ff" d="M273.84,-329.78C266.54,-321.36 256.35,-307.87 252,-294 239.22,-253.29 228.5,-234.25 251,-198 258.54,-185.85 290.38,-171.28 316.32,-161.01"/>
<polygon fill="#63b8ff" stroke="#63b8ff" points="317.51,-164.31 325.58,-157.44 314.99,-157.78 317.51,-164.31"/>
</g>
<!-- Node5 -->
<g id="node5" class="node">
<title>Node5</title>
<g id="a_node5"><a xlink:href="JASSoundParams_8h.html" target="_top" xlink:title=" ">
<polygon fill="white" stroke="#666666" points="403.5,-228 260.5,-228 260.5,-198 403.5,-198 403.5,-228"/>
<text text-anchor="start" x="268.5" y="-216" font-family="Helvetica,sans-Serif" font-size="10.00">JSystem/JAudio2/JASSound</text>
<text text-anchor="middle" x="332" y="-205" font-family="Helvetica,sans-Serif" font-size="10.00">Params.h</text>
</a>
</g>
</g>
<!-- Node4&#45;&gt;Node5 -->
<g id="edge4" class="edge">
<title>Node4&#45;&gt;Node5</title>
<path fill="none" stroke="#63b8ff" d="M331.22,-263.8C331.33,-256.67 331.47,-247.82 331.6,-239.56"/>
<polygon fill="#63b8ff" stroke="#63b8ff" points="335.1,-239.73 331.76,-229.68 328.1,-239.62 335.1,-239.73"/>
</g>
<!-- Node6 -->
<g id="node6" class="node">
<title>Node6</title>
<g id="a_node6"><a xlink:href="types_8h.html" target="_top" xlink:title=" ">
<polygon fill="white" stroke="#666666" points="577.5,-90.5 496.5,-90.5 496.5,-71.5 577.5,-71.5 577.5,-90.5"/>
<text text-anchor="middle" x="537" y="-78.5" font-family="Helvetica,sans-Serif" font-size="10.00">dolphin/types.h</text>
</a>
</g>
</g>
<!-- Node5&#45;&gt;Node6 -->
<g id="edge5" class="edge">
<title>Node5&#45;&gt;Node6</title>
<path fill="none" stroke="#63b8ff" d="M354.72,-197.59C393.86,-172.77 473.61,-122.2 513.37,-96.98"/>
<polygon fill="#63b8ff" stroke="#63b8ff" points="515.17,-99.99 521.74,-91.68 511.42,-94.08 515.17,-99.99"/>
</g>
<!-- Node7 -->
<g id="node7" class="node">
<title>Node7</title>
<g id="a_node7"><a xlink:href="stddef_8h.html" target="_top" xlink:title=" ">
<polygon fill="white" stroke="#666666" points="741,-30 605,-30 605,0 741,0 741,-30"/>
<text text-anchor="start" x="613" y="-18" font-family="Helvetica,sans-Serif" font-size="10.00">MSL_C/MSL_Common/Src</text>
<text text-anchor="middle" x="673" y="-7" font-family="Helvetica,sans-Serif" font-size="10.00">/stddef.h</text>
</a>
</g>
</g>
<!-- Node6&#45;&gt;Node7 -->
<g id="edge6" class="edge">
<title>Node6&#45;&gt;Node7</title>
<path fill="none" stroke="#63b8ff" d="M555.91,-71.1C575.45,-61.9 606.58,-47.26 631.83,-35.38"/>
<polygon fill="#63b8ff" stroke="#63b8ff" points="633.31,-38.55 640.87,-31.12 630.33,-32.21 633.31,-38.55"/>
</g>
<!-- Node9 -->
<g id="node9" class="node">
<title>Node9</title>
<g id="a_node9"><a xlink:href="JGeometry_8h.html" target="_top" xlink:title=" ">
<polygon fill="white" stroke="#666666" points="193.5,-222.5 80.5,-222.5 80.5,-203.5 193.5,-203.5 193.5,-222.5"/>
<text text-anchor="middle" x="137" y="-210.5" font-family="Helvetica,sans-Serif" font-size="10.00">JSystem/JGeometry.h</text>
</a>
</g>
</g>
<!-- Node8&#45;&gt;Node9 -->
<g id="edge8" class="edge">
<title>Node8&#45;&gt;Node9</title>
<path fill="none" stroke="#63b8ff" d="M129.25,-269.1C130.51,-260.12 132.51,-245.95 134.16,-234.22"/>
<polygon fill="#63b8ff" stroke="#63b8ff" points="137.62,-234.71 135.55,-224.32 130.69,-233.74 137.62,-234.71"/>
</g>
<!-- Node10 -->
<g id="node10" class="node">
<title>Node10</title>
<g id="a_node10"><a xlink:href="vec_8h.html" target="_top" xlink:title=" ">
<polygon fill="white" stroke="#666666" points="302,-156.5 210,-156.5 210,-137.5 302,-137.5 302,-156.5"/>
<text text-anchor="middle" x="256" y="-144.5" font-family="Helvetica,sans-Serif" font-size="10.00">dolphin/mtx/vec.h</text>
</a>
</g>
</g>
<!-- Node9&#45;&gt;Node10 -->
<g id="edge9" class="edge">
<title>Node9&#45;&gt;Node10</title>
<path fill="none" stroke="#63b8ff" d="M153.55,-203.1C173.26,-192.5 206.45,-174.65 229.7,-162.15"/>
<polygon fill="#63b8ff" stroke="#63b8ff" points="231.11,-165.36 238.26,-157.54 227.8,-159.19 231.11,-165.36"/>
</g>
<!-- Node11 -->
<g id="node11" class="node">
<title>Node11</title>
<g id="a_node11"><a xlink:href="float_8h.html" target="_top" xlink:title=" ">
<polygon fill="white" stroke="#666666" points="178,-156.5 100,-156.5 100,-137.5 178,-137.5 178,-156.5"/>
<text text-anchor="middle" x="139" y="-144.5" font-family="Helvetica,sans-Serif" font-size="10.00">MSL_C/float.h</text>
</a>
</g>
</g>
<!-- Node9&#45;&gt;Node11 -->
<g id="edge11" class="edge">
<title>Node9&#45;&gt;Node11</title>
<path fill="none" stroke="#63b8ff" d="M137.28,-203.1C137.56,-194.12 138,-179.95 138.37,-168.22"/>
<polygon fill="#63b8ff" stroke="#63b8ff" points="141.86,-168.44 138.68,-158.34 134.87,-168.22 141.86,-168.44"/>
</g>
<!-- Node14 -->
<g id="node14" class="node">
<title>Node14</title>
<g id="a_node14"><a xlink:href="math_8h.html" target="_top" xlink:title=" ">
<polygon fill="white" stroke="#666666" points="82,-156.5 0,-156.5 0,-137.5 82,-137.5 82,-156.5"/>
<text text-anchor="middle" x="41" y="-144.5" font-family="Helvetica,sans-Serif" font-size="10.00">MSL_C/math.h</text>
</a>
</g>
</g>
<!-- Node9&#45;&gt;Node14 -->
<g id="edge14" class="edge">
<title>Node9&#45;&gt;Node14</title>
<path fill="none" stroke="#63b8ff" d="M123.65,-203.1C108.18,-192.78 82.41,-175.61 63.76,-163.17"/>
<polygon fill="#63b8ff" stroke="#63b8ff" points="65.76,-160.3 55.49,-157.66 61.87,-166.12 65.76,-160.3"/>
</g>
<!-- Node10&#45;&gt;Node6 -->
<g id="edge10" class="edge">
<title>Node10&#45;&gt;Node6</title>
<path fill="none" stroke="#63b8ff" d="M295.37,-137.03C345.43,-125.63 431.93,-105.93 486.71,-93.45"/>
<polygon fill="#63b8ff" stroke="#63b8ff" points="487.45,-96.88 496.42,-91.24 485.9,-90.05 487.45,-96.88"/>
</g>
<!-- Node12 -->
<g id="node12" class="node">
<title>Node12</title>
<g id="a_node12"><a xlink:href="MSL__Common_2Src_2float_8h.html" target="_top" xlink:title=" ">
<polygon fill="white" stroke="#666666" points="158,-96 22,-96 22,-66 158,-66 158,-96"/>
<text text-anchor="start" x="30" y="-84" font-family="Helvetica,sans-Serif" font-size="10.00">MSL_C/MSL_Common/Src</text>
<text text-anchor="middle" x="90" y="-73" font-family="Helvetica,sans-Serif" font-size="10.00">/float.h</text>
</a>
</g>
</g>
<!-- Node11&#45;&gt;Node12 -->
<g id="edge12" class="edge">
<title>Node11&#45;&gt;Node12</title>
<path fill="none" stroke="#63b8ff" d="M132.19,-137.1C125.86,-128.84 116.16,-116.17 107.66,-105.06"/>
<polygon fill="#63b8ff" stroke="#63b8ff" points="110.68,-103.25 101.82,-97.44 105.12,-107.5 110.68,-103.25"/>
</g>
<!-- Node13 -->
<g id="node13" class="node">
<title>Node13</title>
<g id="a_node13"><a xlink:href="fdlibm_8h.html" target="_top" xlink:title=" ">
<polygon fill="white" stroke="#666666" points="115,-24.5 65,-24.5 65,-5.5 115,-5.5 115,-24.5"/>
<text text-anchor="middle" x="90" y="-12.5" font-family="Helvetica,sans-Serif" font-size="10.00">fdlibm.h</text>
</a>
</g>
</g>
<!-- Node12&#45;&gt;Node13 -->
<g id="edge13" class="edge">
<title>Node12&#45;&gt;Node13</title>
<path fill="none" stroke="#63b8ff" d="M90,-65.8C90,-57.09 90,-45.81 90,-36.18"/>
<polygon fill="#63b8ff" stroke="#63b8ff" points="93.5,-36.36 90,-26.36 86.5,-36.36 93.5,-36.36"/>
</g>
<!-- Node14&#45;&gt;Node12 -->
<g id="edge15" class="edge">
<title>Node14&#45;&gt;Node12</title>
<path fill="none" stroke="#63b8ff" d="M47.81,-137.1C54.14,-128.84 63.84,-116.17 72.34,-105.06"/>
<polygon fill="#63b8ff" stroke="#63b8ff" points="74.88,-107.5 78.18,-97.44 69.32,-103.25 74.88,-107.5"/>
</g>
<!-- Node15&#45;&gt;Node6 -->
<g id="edge17" class="edge">
<title>Node15&#45;&gt;Node6</title>
<path fill="none" stroke="#63b8ff" d="M377.34,-137.24C409.17,-126.22 464.04,-107.24 500.43,-94.65"/>
<polygon fill="#63b8ff" stroke="#63b8ff" points="501.34,-98.04 509.65,-91.46 499.05,-91.42 501.34,-98.04"/>
</g>
<!-- Node17 -->
<g id="node17" class="node">
<title>Node17</title>
<g id="a_node17"><a xlink:href="OSMessage_8h.html" target="_top" xlink:title=" ">
<polygon fill="white" stroke="#666666" points="557.5,-349 432.5,-349 432.5,-330 557.5,-330 557.5,-349"/>
<text text-anchor="middle" x="495" y="-337" font-family="Helvetica,sans-Serif" font-size="10.00">dolphin/os/OSMessage.h</text>
</a>
</g>
</g>
<!-- Node16&#45;&gt;Node17 -->
<g id="edge19" class="edge">
<title>Node16&#45;&gt;Node17</title>
<path fill="none" stroke="#63b8ff" d="M526.54,-390.37C521.29,-382.07 513.2,-369.28 506.53,-358.72"/>
<polygon fill="#63b8ff" stroke="#63b8ff" points="509.59,-357.03 501.29,-350.45 503.68,-360.77 509.59,-357.03"/>
</g>
<!-- Node18 -->
<g id="node18" class="node">
<title>Node18</title>
<g id="a_node18"><a xlink:href="OSThread_8h.html" target="_top" xlink:title=" ">
<polygon fill="white" stroke="#666666" points="699,-222.5 583,-222.5 583,-203.5 699,-203.5 699,-222.5"/>
<text text-anchor="middle" x="641" y="-210.5" font-family="Helvetica,sans-Serif" font-size="10.00">dolphin/os/OSThread.h</text>
</a>
</g>
</g>
<!-- Node17&#45;&gt;Node18 -->
<g id="edge20" class="edge">
<title>Node17&#45;&gt;Node18</title>
<path fill="none" stroke="#63b8ff" d="M504.39,-329.55C519.42,-315.32 549.94,-286.81 577,-264 591.09,-252.12 607.47,-239.34 620.14,-229.68"/>
<polygon fill="#63b8ff" stroke="#63b8ff" points="621.94,-232.7 627.79,-223.87 617.71,-227.13 621.94,-232.7"/>
</g>
<!-- Node19 -->
<g id="node19" class="node">
<title>Node19</title>
<g id="a_node19"><a xlink:href="OSContext_8h.html" target="_top" xlink:title=" ">
<polygon fill="white" stroke="#666666" points="596.5,-156.5 477.5,-156.5 477.5,-137.5 596.5,-137.5 596.5,-156.5"/>
<text text-anchor="middle" x="537" y="-144.5" font-family="Helvetica,sans-Serif" font-size="10.00">dolphin/os/OSContext.h</text>
</a>
</g>
</g>
<!-- Node18&#45;&gt;Node19 -->
<g id="edge21" class="edge">
<title>Node18&#45;&gt;Node19</title>
<path fill="none" stroke="#63b8ff" d="M626.54,-203.1C609.62,-192.69 581.34,-175.29 561.09,-162.83"/>
<polygon fill="#63b8ff" stroke="#63b8ff" points="562.98,-159.88 552.63,-157.62 559.31,-165.84 562.98,-159.88"/>
</g>
<!-- Node19&#45;&gt;Node6 -->
<g id="edge22" class="edge">
<title>Node19&#45;&gt;Node6</title>
<path fill="none" stroke="#63b8ff" d="M537,-137.1C537,-128.12 537,-113.95 537,-102.22"/>
<polygon fill="#63b8ff" stroke="#63b8ff" points="540.5,-102.34 537,-92.34 533.5,-102.34 540.5,-102.34"/>
</g>
<!-- Node21 -->
<g id="node21" class="node">
<title>Node21</title>
<g id="a_node21"><a xlink:href="JSUList_8h.html" target="_top" xlink:title=" ">
<polygon fill="white" stroke="#666666" points="564.5,-222.5 421.5,-222.5 421.5,-203.5 564.5,-203.5 564.5,-222.5"/>
<text text-anchor="middle" x="493" y="-210.5" font-family="Helvetica,sans-Serif" font-size="10.00">JSystem/JSupport/JSUList.h</text>
</a>
</g>
</g>
<!-- Node20&#45;&gt;Node21 -->
<g id="edge24" class="edge">
<title>Node20&#45;&gt;Node21</title>
<path fill="none" stroke="#63b8ff" d="M637.33,-329.64C620.8,-321.42 596.36,-308.33 577,-294 550.81,-274.62 524.17,-247.78 508.11,-230.65"/>
<polygon fill="#63b8ff" stroke="#63b8ff" points="511.12,-228.75 501.76,-223.78 505.98,-233.5 511.12,-228.75"/>
</g>
<!-- Node22 -->
<g id="node22" class="node">
<title>Node22</title>
<g id="a_node22"><a xlink:href="OSInterrupt_8h.html" target="_top" xlink:title=" ">
<polygon fill="white" stroke="#666666" points="737,-156.5 615,-156.5 615,-137.5 737,-137.5 737,-156.5"/>
<text text-anchor="middle" x="676" y="-144.5" font-family="Helvetica,sans-Serif" font-size="10.00">dolphin/os/OSInterrupt.h</text>
</a>
</g>
</g>
<!-- Node20&#45;&gt;Node22 -->
<g id="edge26" class="edge">
<title>Node20&#45;&gt;Node22</title>
<path fill="none" stroke="#63b8ff" d="M672.16,-329.53C684.21,-321.85 699.78,-309.56 707,-294 724.95,-255.29 719.98,-238.95 708,-198 704.59,-186.36 697.55,-174.85 690.94,-165.82"/>
<polygon fill="#63b8ff" stroke="#63b8ff" points="693.73,-163.7 684.81,-157.98 688.22,-168.02 693.73,-163.7"/>
</g>
<!-- Node23 -->
<g id="node23" class="node">
<title>Node23</title>
<g id="a_node23"><a xlink:href="OSMutex_8h.html" target="_top" xlink:title=" ">
<polygon fill="white" stroke="#666666" points="698,-288.5 586,-288.5 586,-269.5 698,-269.5 698,-288.5"/>
<text text-anchor="middle" x="642" y="-276.5" font-family="Helvetica,sans-Serif" font-size="10.00">dolphin/os/OSMutex.h</text>
</a>
</g>
</g>
<!-- Node20&#45;&gt;Node23 -->
<g id="edge28" class="edge">
<title>Node20&#45;&gt;Node23</title>
<path fill="none" stroke="#63b8ff" d="M653.93,-329.87C652.03,-321.92 649.14,-309.83 646.68,-299.55"/>
<polygon fill="#63b8ff" stroke="#63b8ff" points="650.16,-299.05 644.43,-290.14 643.35,-300.68 650.16,-299.05"/>
</g>
<!-- Node21&#45;&gt;Node6 -->
<g id="edge25" class="edge">
<title>Node21&#45;&gt;Node6</title>
<path fill="none" stroke="#63b8ff" d="M486.01,-203.22C474.88,-188.09 455.57,-156.37 468,-132 475.95,-116.41 491.29,-104.56 505.49,-96.31"/>
<polygon fill="#63b8ff" stroke="#63b8ff" points="507.01,-99.46 514.17,-91.65 503.7,-93.29 507.01,-99.46"/>
</g>
<!-- Node22&#45;&gt;Node6 -->
<g id="edge27" class="edge">
<title>Node22&#45;&gt;Node6</title>
<path fill="none" stroke="#63b8ff" d="M656.67,-137.1C633.23,-126.31 593.47,-108 566.27,-95.48"/>
<polygon fill="#63b8ff" stroke="#63b8ff" points="568.09,-92.46 557.54,-91.46 565.16,-98.82 568.09,-92.46"/>
</g>
<!-- Node23&#45;&gt;Node18 -->
<g id="edge29" class="edge">
<title>Node23&#45;&gt;Node18</title>
<path fill="none" stroke="#63b8ff" d="M641.86,-269.1C641.72,-260.12 641.5,-245.95 641.32,-234.22"/>
<polygon fill="#63b8ff" stroke="#63b8ff" points="644.82,-234.28 641.16,-224.34 637.82,-234.39 644.82,-234.28"/>
</g>
<!-- Node24&#45;&gt;Node6 -->
<g id="edge31" class="edge">
<title>Node24&#45;&gt;Node6</title>
<path fill="none" stroke="#63b8ff" d="M761.51,-390.05C762.58,-370.23 765,-321.14 765,-280 765,-280 765,-280 765,-212 765,-175.46 771.82,-157.86 746,-132 724.22,-110.19 643.48,-95.7 588.96,-88.17"/>
<polygon fill="#63b8ff" stroke="#63b8ff" points="589.64,-84.73 579.26,-86.87 588.71,-91.67 589.64,-84.73"/>
</g>
<!-- Node26 -->
<g id="node26" class="node">
<title>Node26</title>
<g id="a_node26"><a xlink:href="algorithm_8h.html" target="_top" xlink:title=" ">
<polygon fill="white" stroke="#666666" points="1379,-349 1279,-349 1279,-330 1379,-330 1379,-349"/>
<text text-anchor="middle" x="1329" y="-337" font-family="Helvetica,sans-Serif" font-size="10.00">MSL_C/algorithm.h</text>
</a>
</g>
</g>
<!-- Node25&#45;&gt;Node26 -->
<g id="edge33" class="edge">
<title>Node25&#45;&gt;Node26</title>
<path fill="none" stroke="#63b8ff" d="M1139.87,-390.12C1178.34,-380.02 1241.3,-363.51 1283.91,-352.33"/>
<polygon fill="#63b8ff" stroke="#63b8ff" points="1284.56,-355.78 1293.35,-349.85 1282.79,-349 1284.56,-355.78"/>
</g>
<!-- Node27 -->
<g id="node27" class="node">
<title>Node27</title>
<g id="a_node27"><a xlink:href="stdio_8h.html" target="_top" xlink:title=" ">
<polygon fill="white" stroke="#666666" points="1055.5,-288.5 974.5,-288.5 974.5,-269.5 1055.5,-269.5 1055.5,-288.5"/>
<text text-anchor="middle" x="1015" y="-276.5" font-family="Helvetica,sans-Serif" font-size="10.00">MSL_C/stdio.h</text>
</a>
</g>
</g>
<!-- Node25&#45;&gt;Node27 -->
<g id="edge34" class="edge">
<title>Node25&#45;&gt;Node27</title>
<path fill="none" stroke="#63b8ff" d="M1099.16,-390.06C1084.2,-370.49 1048.33,-323.59 1028.59,-297.78"/>
<polygon fill="#63b8ff" stroke="#63b8ff" points="1031.45,-295.74 1022.59,-289.93 1025.89,-300 1031.45,-295.74"/>
</g>
<!-- Node33 -->
<g id="node33" class="node">
<title>Node33</title>
<g id="a_node33"><a xlink:href="stdlib_8h.html" target="_top" xlink:title=" ">
<polygon fill="white" stroke="#666666" points="1260.5,-349 1177.5,-349 1177.5,-330 1260.5,-330 1260.5,-349"/>
<text text-anchor="middle" x="1219" y="-337" font-family="Helvetica,sans-Serif" font-size="10.00">MSL_C/stdlib.h</text>
</a>
</g>
</g>
<!-- Node25&#45;&gt;Node33 -->
<g id="edge44" class="edge">
<title>Node25&#45;&gt;Node33</title>
<path fill="none" stroke="#63b8ff" d="M1123.16,-390.12C1141.33,-380.71 1170.28,-365.72 1191.61,-354.68"/>
<polygon fill="#63b8ff" stroke="#63b8ff" points="1193.06,-357.87 1200.33,-350.16 1189.84,-351.65 1193.06,-357.87"/>
</g>
<!-- Node28 -->
<g id="node28" class="node">
<title>Node28</title>
<g id="a_node28"><a xlink:href="char__io_8h.html" target="_top" xlink:title=" ">
<polygon fill="white" stroke="#666666" points="1083,-228 947,-228 947,-198 1083,-198 1083,-228"/>
<text text-anchor="start" x="955" y="-216" font-family="Helvetica,sans-Serif" font-size="10.00">MSL_C/MSL_Common/Src</text>
<text text-anchor="middle" x="1015" y="-205" font-family="Helvetica,sans-Serif" font-size="10.00">/char_io.h</text>
</a>
</g>
</g>
<!-- Node27&#45;&gt;Node28 -->
<g id="edge35" class="edge">
<title>Node27&#45;&gt;Node28</title>
<path fill="none" stroke="#63b8ff" d="M1015,-269.1C1015,-261.41 1015,-249.92 1015,-239.42"/>
<polygon fill="#63b8ff" stroke="#63b8ff" points="1018.5,-239.75 1015,-229.75 1011.5,-239.75 1018.5,-239.75"/>
</g>
<!-- Node30 -->
<g id="node30" class="node">
<title>Node30</title>
<g id="a_node30"><a xlink:href="file__io_8h.html" target="_top" xlink:title=" ">
<polygon fill="white" stroke="#666666" points="1237,-228 1101,-228 1101,-198 1237,-198 1237,-228"/>
<text text-anchor="start" x="1109" y="-216" font-family="Helvetica,sans-Serif" font-size="10.00">MSL_C/MSL_Common/Src</text>
<text text-anchor="middle" x="1169" y="-205" font-family="Helvetica,sans-Serif" font-size="10.00">/file_io.h</text>
</a>
</g>
</g>
<!-- Node27&#45;&gt;Node30 -->
<g id="edge38" class="edge">
<title>Node27&#45;&gt;Node30</title>
<path fill="none" stroke="#63b8ff" d="M1036.41,-269.1C1058.94,-259.74 1095.05,-244.73 1123.9,-232.74"/>
<polygon fill="#63b8ff" stroke="#63b8ff" points="1124.87,-236.13 1132.77,-229.06 1122.19,-229.66 1124.87,-236.13"/>
</g>
<!-- Node31 -->
<g id="node31" class="node">
<title>Node31</title>
<g id="a_node31"><a xlink:href="printf_8h.html" target="_top" xlink:title=" ">
<polygon fill="white" stroke="#666666" points="929,-228 793,-228 793,-198 929,-198 929,-228"/>
<text text-anchor="start" x="801" y="-216" font-family="Helvetica,sans-Serif" font-size="10.00">MSL_C/MSL_Common/Src</text>
<text text-anchor="middle" x="861" y="-205" font-family="Helvetica,sans-Serif" font-size="10.00">/printf.h</text>
</a>
</g>
</g>
<!-- Node27&#45;&gt;Node31 -->
<g id="edge40" class="edge">
<title>Node27&#45;&gt;Node31</title>
<path fill="none" stroke="#63b8ff" d="M993.59,-269.1C971.06,-259.74 934.95,-244.73 906.1,-232.74"/>
<polygon fill="#63b8ff" stroke="#63b8ff" points="907.81,-229.66 897.23,-229.06 905.13,-236.13 907.81,-229.66"/>
</g>
<!-- Node29 -->
<g id="node29" class="node">
<title>Node29</title>
<g id="a_node29"><a xlink:href="ansi__files_8h.html" target="_top" xlink:title=" ">
<polygon fill="white" stroke="#666666" points="1083,-162 947,-162 947,-132 1083,-132 1083,-162"/>
<text text-anchor="start" x="955" y="-150" font-family="Helvetica,sans-Serif" font-size="10.00">MSL_C/MSL_Common/Src</text>
<text text-anchor="middle" x="1015" y="-139" font-family="Helvetica,sans-Serif" font-size="10.00">/ansi_files.h</text>
</a>
</g>
</g>
<!-- Node28&#45;&gt;Node29 -->
<g id="edge36" class="edge">
<title>Node28&#45;&gt;Node29</title>
<path fill="none" stroke="#63b8ff" d="M1015,-197.8C1015,-190.67 1015,-181.82 1015,-173.56"/>
<polygon fill="#63b8ff" stroke="#63b8ff" points="1018.5,-173.68 1015,-163.68 1011.5,-173.68 1018.5,-173.68"/>
</g>
<!-- Node29&#45;&gt;Node7 -->
<g id="edge37" class="edge">
<title>Node29&#45;&gt;Node7</title>
<path fill="none" stroke="#63b8ff" d="M977.09,-131.59C914.69,-107.87 790.41,-60.63 721.62,-34.48"/>
<polygon fill="#63b8ff" stroke="#63b8ff" points="723.08,-31.29 712.49,-31.01 720.6,-37.84 723.08,-31.29"/>
</g>
<!-- Node30&#45;&gt;Node29 -->
<g id="edge39" class="edge">
<title>Node30&#45;&gt;Node29</title>
<path fill="none" stroke="#63b8ff" d="M1134.44,-197.64C1112.52,-188.53 1083.93,-176.65 1060.22,-166.79"/>
<polygon fill="#63b8ff" stroke="#63b8ff" points="1061.69,-163.61 1051.11,-163.01 1059,-170.08 1061.69,-163.61"/>
</g>
<!-- Node31&#45;&gt;Node29 -->
<g id="edge41" class="edge">
<title>Node31&#45;&gt;Node29</title>
<path fill="none" stroke="#63b8ff" d="M895.56,-197.64C917.48,-188.53 946.07,-176.65 969.78,-166.79"/>
<polygon fill="#63b8ff" stroke="#63b8ff" points="971,-170.08 978.89,-163.01 968.31,-163.61 971,-170.08"/>
</g>
<!-- Node32 -->
<g id="node32" class="node">
<title>Node32</title>
<g id="a_node32"><a xlink:href="____va__arg_8h.html" target="_top" xlink:title=" ">
<polygon fill="white" stroke="#666666" points="910,-162 800,-162 800,-132 910,-132 910,-162"/>
<text text-anchor="start" x="808" y="-150" font-family="Helvetica,sans-Serif" font-size="10.00">Runtime.PPCEABI.H/</text>
<text text-anchor="middle" x="855" y="-139" font-family="Helvetica,sans-Serif" font-size="10.00">__va_arg.h</text>
</a>
</g>
</g>
<!-- Node31&#45;&gt;Node32 -->
<g id="edge42" class="edge">
<title>Node31&#45;&gt;Node32</title>
<path fill="none" stroke="#63b8ff" d="M859.67,-197.8C859,-190.67 858.17,-181.82 857.4,-173.56"/>
<polygon fill="#63b8ff" stroke="#63b8ff" points="860.89,-173.3 856.47,-163.67 853.92,-173.95 860.89,-173.3"/>
</g>
<!-- Node32&#45;&gt;Node6 -->
<g id="edge43" class="edge">
<title>Node32&#45;&gt;Node6</title>
<path fill="none" stroke="#63b8ff" d="M799.61,-134.85C740.22,-122.9 646.67,-104.07 588.73,-92.41"/>
<polygon fill="#63b8ff" stroke="#63b8ff" points="589.62,-89.02 579.12,-90.48 588.24,-95.88 589.62,-89.02"/>
</g>
<!-- Node34 -->
<g id="node34" class="node">
<title>Node34</title>
<g id="a_node34"><a xlink:href="abort__exit_8h.html" target="_top" xlink:title=" ">
<polygon fill="white" stroke="#666666" points="1672,-294 1536,-294 1536,-264 1672,-264 1672,-294"/>
<text text-anchor="start" x="1544" y="-282" font-family="Helvetica,sans-Serif" font-size="10.00">MSL_C/MSL_Common/Src</text>
<text text-anchor="middle" x="1604" y="-271" font-family="Helvetica,sans-Serif" font-size="10.00">/abort_exit.h</text>
</a>
</g>
</g>
<!-- Node33&#45;&gt;Node34 -->
<g id="edge45" class="edge">
<title>Node33&#45;&gt;Node34</title>
<path fill="none" stroke="#63b8ff" d="M1260.73,-331.45C1263.87,-330.95 1266.98,-330.46 1270,-330 1380.44,-313.06 1411.22,-312.35 1524.38,-294.38"/>
<polygon fill="#63b8ff" stroke="#63b8ff" points="1524.77,-297.86 1534.1,-292.83 1523.67,-290.95 1524.77,-297.86"/>
</g>
<!-- Node35 -->
<g id="node35" class="node">
<title>Node35</title>
<g id="a_node35"><a xlink:href="arith_8h.html" target="_top" xlink:title=" ">
<polygon fill="white" stroke="#666666" points="1210,-294 1074,-294 1074,-264 1210,-264 1210,-294"/>
<text text-anchor="start" x="1082" y="-282" font-family="Helvetica,sans-Serif" font-size="10.00">MSL_C/MSL_Common/Src</text>
<text text-anchor="middle" x="1142" y="-271" font-family="Helvetica,sans-Serif" font-size="10.00">/arith.h</text>
</a>
</g>
</g>
<!-- Node33&#45;&gt;Node35 -->
<g id="edge46" class="edge">
<title>Node33&#45;&gt;Node35</title>
<path fill="none" stroke="#63b8ff" d="M1207.31,-329.62C1197.42,-322.1 1182.85,-311.04 1169.99,-301.26"/>
<polygon fill="#63b8ff" stroke="#63b8ff" points="1172.29,-298.62 1162.21,-295.36 1168.06,-304.19 1172.29,-298.62"/>
</g>
<!-- Node36 -->
<g id="node36" class="node">
<title>Node36</title>
<g id="a_node36"><a xlink:href="mbstring_8h.html" target="_top" xlink:title=" ">
<polygon fill="white" stroke="#666666" points="1364,-294 1228,-294 1228,-264 1364,-264 1364,-294"/>
<text text-anchor="start" x="1236" y="-282" font-family="Helvetica,sans-Serif" font-size="10.00">MSL_C/MSL_Common/Src</text>
<text text-anchor="middle" x="1296" y="-271" font-family="Helvetica,sans-Serif" font-size="10.00">/mbstring.h</text>
</a>
</g>
</g>
<!-- Node33&#45;&gt;Node36 -->
<g id="edge47" class="edge">
<title>Node33&#45;&gt;Node36</title>
<path fill="none" stroke="#63b8ff" d="M1230.69,-329.62C1240.58,-322.1 1255.15,-311.04 1268.01,-301.26"/>
<polygon fill="#63b8ff" stroke="#63b8ff" points="1269.94,-304.19 1275.79,-295.36 1265.71,-298.62 1269.94,-304.19"/>
</g>
<!-- Node38 -->
<g id="node38" class="node">
<title>Node38</title>
<g id="a_node38"><a xlink:href="strtoul_8h.html" target="_top" xlink:title=" ">
<polygon fill="white" stroke="#666666" points="1518,-294 1382,-294 1382,-264 1518,-264 1518,-294"/>
<text text-anchor="start" x="1390" y="-282" font-family="Helvetica,sans-Serif" font-size="10.00">MSL_C/MSL_Common/Src</text>
<text text-anchor="middle" x="1450" y="-271" font-family="Helvetica,sans-Serif" font-size="10.00">/strtoul.h</text>
</a>
</g>
</g>
<!-- Node33&#45;&gt;Node38 -->
<g id="edge50" class="edge">
<title>Node33&#45;&gt;Node38</title>
<path fill="none" stroke="#63b8ff" d="M1254.34,-329.55C1288.21,-320.97 1340.25,-307.79 1382.14,-297.18"/>
<polygon fill="#63b8ff" stroke="#63b8ff" points="1382.81,-300.63 1391.64,-294.78 1381.09,-293.84 1382.81,-300.63"/>
</g>
<!-- Node37 -->
<g id="node37" class="node">
<title>Node37</title>
<g id="a_node37"><a xlink:href="wchar__io_8h.html" target="_top" xlink:title=" ">
<polygon fill="white" stroke="#666666" points="1391,-228 1255,-228 1255,-198 1391,-198 1391,-228"/>
<text text-anchor="start" x="1263" y="-216" font-family="Helvetica,sans-Serif" font-size="10.00">MSL_C/MSL_Common/Src</text>
<text text-anchor="middle" x="1323" y="-205" font-family="Helvetica,sans-Serif" font-size="10.00">/wchar_io.h</text>
</a>
</g>
</g>
<!-- Node36&#45;&gt;Node37 -->
<g id="edge48" class="edge">
<title>Node36&#45;&gt;Node37</title>
<path fill="none" stroke="#63b8ff" d="M1301.99,-263.8C1305.1,-256.42 1308.99,-247.2 1312.58,-238.7"/>
<polygon fill="#63b8ff" stroke="#63b8ff" points="1315.77,-240.13 1316.44,-229.56 1309.32,-237.41 1315.77,-240.13"/>
</g>
<!-- Node37&#45;&gt;Node29 -->
<g id="edge49" class="edge">
<title>Node37&#45;&gt;Node29</title>
<path fill="none" stroke="#63b8ff" d="M1254.64,-197.8C1207.28,-187.95 1144.05,-174.82 1094.44,-164.51"/>
<polygon fill="#63b8ff" stroke="#63b8ff" points="1095.41,-161.13 1084.91,-162.53 1093.99,-167.99 1095.41,-161.13"/>
</g>
</g>
</svg>
