<?xml version="1.0" encoding="UTF-8" standalone="no"?>
<!DOCTYPE svg PUBLIC "-//W3C//DTD SVG 1.1//EN"
 "http://www.w3.org/Graphics/SVG/1.1/DTD/svg11.dtd">
<!-- Generated by graphviz version 7.0.5 (20221223.1930)
 -->
<!-- Title: include/JSystem/JKernel/JKRDisposer.h Pages: 1 -->
<svg width="5109pt" height="247pt"
 viewBox="0.00 0.00 5109.00 247.00" xmlns="http://www.w3.org/2000/svg" xmlns:xlink="http://www.w3.org/1999/xlink">
<g id="graph0" class="graph" transform="scale(1 1) rotate(0) translate(4 243)">
<title>include/JSystem/JKernel/JKRDisposer.h</title>
<!-- Node1 -->
<g id="node1" class="node">
<title>Node1</title>
<g id="a_node1"><a xlink:title=" ">
<polygon fill="#999999" stroke="#666666" points="4604,-239 4479,-239 4479,-209 4604,-209 4604,-239"/>
<text text-anchor="start" x="4487" y="-227" font-family="Helvetica,sans-Serif" font-size="10.00">include/JSystem/JKernel</text>
<text text-anchor="middle" x="4541.5" y="-216" font-family="Helvetica,sans-Serif" font-size="10.00">/JKRDisposer.h</text>
</a>
</g>
</g>
<!-- Node2 -->
<g id="node2" class="node">
<title>Node2</title>
<g id="a_node2"><a xlink:href="JAUSectionHeap_8h.html" target="_top" xlink:title=" ">
<polygon fill="white" stroke="#666666" points="4698,-101.5 4571,-101.5 4571,-71.5 4698,-71.5 4698,-101.5"/>
<text text-anchor="start" x="4579" y="-89.5" font-family="Helvetica,sans-Serif" font-size="10.00">include/JSystem/JAudio2</text>
<text text-anchor="middle" x="4634.5" y="-78.5" font-family="Helvetica,sans-Serif" font-size="10.00">/JAUSectionHeap.h</text>
</a>
</g>
</g>
<!-- Node1&#45;&gt;Node2 -->
<g id="edge1" class="edge">
<title>Node1&#45;&gt;Node2</title>
<path fill="none" stroke="#63b8ff" d="M4557.78,-199.28C4577.07,-171.17 4608.61,-125.22 4624.57,-101.96"/>
<polygon fill="#63b8ff" stroke="#63b8ff" points="4554.91,-197.28 4552.13,-207.51 4560.68,-201.24 4554.91,-197.28"/>
</g>
<!-- Node7 -->
<g id="node7" class="node">
<title>Node7</title>
<g id="a_node7"><a xlink:href="JKRAramHeap_8h.html" target="_top" xlink:title=" ">
<polygon fill="white" stroke="#666666" points="672,-173 547,-173 547,-143 672,-143 672,-173"/>
<text text-anchor="start" x="555" y="-161" font-family="Helvetica,sans-Serif" font-size="10.00">include/JSystem/JKernel</text>
<text text-anchor="middle" x="609.5" y="-150" font-family="Helvetica,sans-Serif" font-size="10.00">/JKRAramHeap.h</text>
</a>
</g>
</g>
<!-- Node1&#45;&gt;Node7 -->
<g id="edge6" class="edge">
<title>Node1&#45;&gt;Node7</title>
<path fill="none" stroke="#63b8ff" d="M4467.24,-221.79C3970.07,-213.7 1131.01,-167.49 672.13,-160.02"/>
<polygon fill="#63b8ff" stroke="#63b8ff" points="4466.98,-225.29 4477.03,-221.95 4467.09,-218.29 4466.98,-225.29"/>
</g>
<!-- Node23 -->
<g id="node11" class="node">
<title>Node23</title>
<g id="a_node11"><a xlink:href="JKRFile_8h.html" target="_top" xlink:title=" ">
<polygon fill="white" stroke="#666666" points="4814,-173 4689,-173 4689,-143 4814,-143 4814,-173"/>
<text text-anchor="start" x="4697" y="-161" font-family="Helvetica,sans-Serif" font-size="10.00">include/JSystem/JKernel</text>
<text text-anchor="middle" x="4751.5" y="-150" font-family="Helvetica,sans-Serif" font-size="10.00">/JKRFile.h</text>
</a>
</g>
</g>
<!-- Node1&#45;&gt;Node23 -->
<g id="edge10" class="edge">
<title>Node1&#45;&gt;Node23</title>
<path fill="none" stroke="#63b8ff" d="M4599.74,-205.25C4632.68,-195.21 4673.34,-182.82 4704.28,-173.39"/>
<polygon fill="#63b8ff" stroke="#63b8ff" points="4598.88,-201.85 4590.34,-208.12 4600.92,-208.55 4598.88,-201.85"/>
</g>
<!-- Node31 -->
<g id="node15" class="node">
<title>Node31</title>
<g id="a_node15"><a xlink:href="JKRFileLoader_8h.html" target="_top" xlink:title=" ">
<polygon fill="white" stroke="#666666" points="291,-173 166,-173 166,-143 291,-143 291,-173"/>
<text text-anchor="start" x="174" y="-161" font-family="Helvetica,sans-Serif" font-size="10.00">include/JSystem/JKernel</text>
<text text-anchor="middle" x="228.5" y="-150" font-family="Helvetica,sans-Serif" font-size="10.00">/JKRFileLoader.h</text>
</a>
</g>
</g>
<!-- Node1&#45;&gt;Node31 -->
<g id="edge14" class="edge">
<title>Node1&#45;&gt;Node31</title>
<path fill="none" stroke="#63b8ff" d="M4467.12,-222.98C4066.45,-222.69 2124.47,-218.85 537.5,-173 452.15,-170.53 353.62,-165.73 291.21,-162.44"/>
<polygon fill="#63b8ff" stroke="#63b8ff" points="4467,-226.48 4477,-222.99 4467.01,-219.48 4467,-226.48"/>
</g>
<!-- Node300 -->
<g id="node22" class="node">
<title>Node300</title>
<g id="a_node22"><a xlink:href="JKRHeap_8h.html" target="_top" xlink:title=" ">
<polygon fill="#fff0f0" stroke="red" points="2519,-173 2394,-173 2394,-143 2519,-143 2519,-173"/>
<text text-anchor="start" x="2402" y="-161" font-family="Helvetica,sans-Serif" font-size="10.00">include/JSystem/JKernel</text>
<text text-anchor="middle" x="2456.5" y="-150" font-family="Helvetica,sans-Serif" font-size="10.00">/JKRHeap.h</text>
</a>
</g>
</g>
<!-- Node1&#45;&gt;Node300 -->
<g id="edge23" class="edge">
<title>Node1&#45;&gt;Node300</title>
<path fill="none" stroke="#63b8ff" d="M4467.29,-220.72C4139.38,-210.66 2823.29,-170.26 2519.35,-160.93"/>
<polygon fill="#63b8ff" stroke="#63b8ff" points="4466.92,-224.21 4477.02,-221.02 4467.13,-217.22 4466.92,-224.21"/>
</g>
<!-- Node353 -->
<g id="node48" class="node">
<title>Node353</title>
<g id="a_node48"><a xlink:href="JKRDisposer_8cpp.html" target="_top" xlink:title=" ">
<polygon fill="white" stroke="#666666" points="4553,-101.5 4444,-101.5 4444,-71.5 4553,-71.5 4553,-101.5"/>
<text text-anchor="start" x="4452" y="-89.5" font-family="Helvetica,sans-Serif" font-size="10.00">libs/JSystem/JKernel</text>
<text text-anchor="middle" x="4498.5" y="-78.5" font-family="Helvetica,sans-Serif" font-size="10.00">/JKRDisposer.cpp</text>
</a>
</g>
</g>
<!-- Node1&#45;&gt;Node353 -->
<g id="edge61" class="edge">
<title>Node1&#45;&gt;Node353</title>
<path fill="none" stroke="#63b8ff" d="M4533.5,-197.79C4524.54,-169.57 4510.34,-124.81 4503.09,-101.96"/>
<polygon fill="#63b8ff" stroke="#63b8ff" points="4530.16,-198.84 4536.52,-207.31 4536.83,-196.72 4530.16,-198.84"/>
</g>
<!-- Node362 -->
<g id="node49" class="node">
<title>Node362</title>
<g id="a_node49"><a xlink:href="JUTConsole_8h.html" target="_top" xlink:title=" ">
<polygon fill="#fff0f0" stroke="red" points="4954.5,-173 4832.5,-173 4832.5,-143 4954.5,-143 4954.5,-173"/>
<text text-anchor="start" x="4840.5" y="-161" font-family="Helvetica,sans-Serif" font-size="10.00">include/JSystem/JUtility</text>
<text text-anchor="middle" x="4893.5" y="-150" font-family="Helvetica,sans-Serif" font-size="10.00">/JUTConsole.h</text>
</a>
</g>
</g>
<!-- Node1&#45;&gt;Node362 -->
<g id="edge59" class="edge">
<title>Node1&#45;&gt;Node362</title>
<path fill="none" stroke="#63b8ff" d="M4615.35,-210.36C4672.29,-200.51 4752.96,-186.31 4823.5,-173 4826.3,-172.47 4829.16,-171.93 4832.05,-171.37"/>
<polygon fill="#63b8ff" stroke="#63b8ff" points="4615.04,-206.86 4605.79,-212.01 4616.24,-213.76 4615.04,-206.86"/>
</g>
<!-- Node365 -->
<g id="node50" class="node">
<title>Node365</title>
<g id="a_node50"><a xlink:href="JUTGamePad_8h.html" target="_top" xlink:title=" ">
<polygon fill="#fff0f0" stroke="red" points="5094.5,-173 4972.5,-173 4972.5,-143 5094.5,-143 5094.5,-173"/>
<text text-anchor="start" x="4980.5" y="-161" font-family="Helvetica,sans-Serif" font-size="10.00">include/JSystem/JUtility</text>
<text text-anchor="middle" x="5033.5" y="-150" font-family="Helvetica,sans-Serif" font-size="10.00">/JUTGamePad.h</text>
</a>
</g>
</g>
<!-- Node1&#45;&gt;Node365 -->
<g id="edge60" class="edge">
<title>Node1&#45;&gt;Node365</title>
<path fill="none" stroke="#63b8ff" d="M4615.55,-216.03C4700.01,-207.65 4842.12,-192.3 4963.5,-173 4966.32,-172.55 4969.19,-172.07 4972.09,-171.57"/>
<polygon fill="#63b8ff" stroke="#63b8ff" points="4615.39,-212.52 4605.78,-216.99 4616.08,-219.49 4615.39,-212.52"/>
</g>
<!-- Node3 -->
<g id="node3" class="node">
<title>Node3</title>
<g id="a_node3"><a xlink:href="JAUAudioArcLoader_8cpp.html" target="_top" xlink:title=" ">
<polygon fill="white" stroke="#666666" points="4698,-30 4571,-30 4571,0 4698,0 4698,-30"/>
<text text-anchor="start" x="4579" y="-18" font-family="Helvetica,sans-Serif" font-size="10.00">libs/JSystem/JAudio2</text>
<text text-anchor="middle" x="4634.5" y="-7" font-family="Helvetica,sans-Serif" font-size="10.00">/JAUAudioArcLoader.cpp</text>
</a>
</g>
</g>
<!-- Node2&#45;&gt;Node3 -->
<g id="edge2" class="edge">
<title>Node2&#45;&gt;Node3</title>
<path fill="none" stroke="#63b8ff" d="M4634.5,-59.76C4634.5,-49.83 4634.5,-38.86 4634.5,-30.38"/>
<polygon fill="#63b8ff" stroke="#63b8ff" points="4631,-59.59 4634.5,-69.59 4638,-59.59 4631,-59.59"/>
</g>
<!-- Node4 -->
<g id="node4" class="node">
<title>Node4</title>
<g id="a_node4"><a xlink:href="JAUSectionHeap_8cpp.html" target="_top" xlink:title=" ">
<polygon fill="white" stroke="#666666" points="3948,-30 3835,-30 3835,0 3948,0 3948,-30"/>
<text text-anchor="start" x="3843" y="-18" font-family="Helvetica,sans-Serif" font-size="10.00">libs/JSystem/JAudio2</text>
<text text-anchor="middle" x="3891.5" y="-7" font-family="Helvetica,sans-Serif" font-size="10.00">/JAUSectionHeap.cpp</text>
</a>
</g>
</g>
<!-- Node2&#45;&gt;Node4 -->
<g id="edge3" class="edge">
<title>Node2&#45;&gt;Node4</title>
<path fill="none" stroke="#63b8ff" d="M4574.09,-68.44C4569.85,-67.52 4565.62,-66.7 4561.5,-66 4336.66,-27.92 4064.49,-18.84 3948.4,-16.68"/>
<polygon fill="#63b8ff" stroke="#63b8ff" points="4573.29,-71.84 4583.82,-70.68 4574.87,-65.02 4573.29,-71.84"/>
</g>
<!-- Node5 -->
<g id="node5" class="node">
<title>Node5</title>
<g id="a_node5"><a xlink:href="Z2AudioArcLoader_8cpp.html" target="_top" xlink:title=" ">
<polygon fill="white" stroke="#666666" points="1573.5,-30 1435.5,-30 1435.5,0 1573.5,0 1573.5,-30"/>
<text text-anchor="start" x="1443.5" y="-18" font-family="Helvetica,sans-Serif" font-size="10.00">libs/Z2AudioLib/Z2AudioArc</text>
<text text-anchor="middle" x="1504.5" y="-7" font-family="Helvetica,sans-Serif" font-size="10.00">Loader.cpp</text>
</a>
</g>
</g>
<!-- Node2&#45;&gt;Node5 -->
<g id="edge4" class="edge">
<title>Node2&#45;&gt;Node5</title>
<path fill="none" stroke="#63b8ff" d="M4575.79,-68.49C4570.98,-67.51 4566.18,-66.65 4561.5,-66 4485.03,-55.33 2020.67,-22.73 1573.67,-16.9"/>
<polygon fill="#63b8ff" stroke="#63b8ff" points="4574.94,-71.89 4585.46,-70.67 4576.47,-65.06 4574.94,-71.89"/>
</g>
<!-- Node6 -->
<g id="node6" class="node">
<title>Node6</title>
<g id="a_node6"><a xlink:href="Z2AudioMgr_8cpp.html" target="_top" xlink:title=" ">
<polygon fill="white" stroke="#666666" points="3513.5,-24.5 3355.5,-24.5 3355.5,-5.5 3513.5,-5.5 3513.5,-24.5"/>
<text text-anchor="middle" x="3434.5" y="-12.5" font-family="Helvetica,sans-Serif" font-size="10.00">libs/Z2AudioLib/Z2AudioMgr.cpp</text>
</a>
</g>
</g>
<!-- Node2&#45;&gt;Node6 -->
<g id="edge5" class="edge">
<title>Node2&#45;&gt;Node6</title>
<path fill="none" stroke="#63b8ff" d="M4574.93,-68.46C4570.41,-67.52 4565.9,-66.68 4561.5,-66 4509.9,-58.06 3762.24,-28.65 3513.97,-19.05"/>
<polygon fill="#63b8ff" stroke="#63b8ff" points="4574.12,-71.87 4584.64,-70.67 4575.67,-65.04 4574.12,-71.87"/>
</g>
<!-- Node8 -->
<g id="node8" class="node">
<title>Node8</title>
<g id="a_node8"><a xlink:href="JKRAram_8h.html" target="_top" xlink:title=" ">
<polygon fill="#fff0f0" stroke="red" points="2678,-30 2553,-30 2553,0 2678,0 2678,-30"/>
<text text-anchor="start" x="2561" y="-18" font-family="Helvetica,sans-Serif" font-size="10.00">include/JSystem/JKernel</text>
<text text-anchor="middle" x="2615.5" y="-7" font-family="Helvetica,sans-Serif" font-size="10.00">/JKRAram.h</text>
</a>
</g>
</g>
<!-- Node7&#45;&gt;Node8 -->
<g id="edge7" class="edge">
<title>Node7&#45;&gt;Node8</title>
<path fill="none" stroke="#63b8ff" d="M535.57,-144.44C514.62,-137.1 494.1,-125.45 481.5,-107 471.22,-91.95 468.77,-79.04 481.5,-66 500.08,-46.98 2201.33,-21.87 2552.52,-16.88"/>
<polygon fill="#63b8ff" stroke="#63b8ff" points="534.5,-147.77 545.09,-147.45 536.61,-141.1 534.5,-147.77"/>
</g>
<!-- Node21 -->
<g id="node9" class="node">
<title>Node21</title>
<g id="a_node9"><a xlink:href="JKRAramBlock_8cpp.html" target="_top" xlink:title=" ">
<polygon fill="white" stroke="#666666" points="727,-101.5 618,-101.5 618,-71.5 727,-71.5 727,-101.5"/>
<text text-anchor="start" x="626" y="-89.5" font-family="Helvetica,sans-Serif" font-size="10.00">libs/JSystem/JKernel</text>
<text text-anchor="middle" x="672.5" y="-78.5" font-family="Helvetica,sans-Serif" font-size="10.00">/JKRAramBlock.cpp</text>
</a>
</g>
</g>
<!-- Node7&#45;&gt;Node21 -->
<g id="edge8" class="edge">
<title>Node7&#45;&gt;Node21</title>
<path fill="none" stroke="#63b8ff" d="M630.2,-134.17C639.84,-123.53 651.02,-111.2 659.46,-101.88"/>
<polygon fill="#63b8ff" stroke="#63b8ff" points="627.69,-131.72 623.57,-141.48 632.88,-136.42 627.69,-131.72"/>
</g>
<!-- Node22 -->
<g id="node10" class="node">
<title>Node22</title>
<g id="a_node10"><a xlink:href="JKRAramHeap_8cpp.html" target="_top" xlink:title=" ">
<polygon fill="white" stroke="#666666" points="600,-101.5 491,-101.5 491,-71.5 600,-71.5 600,-101.5"/>
<text text-anchor="start" x="499" y="-89.5" font-family="Helvetica,sans-Serif" font-size="10.00">libs/JSystem/JKernel</text>
<text text-anchor="middle" x="545.5" y="-78.5" font-family="Helvetica,sans-Serif" font-size="10.00">/JKRAramHeap.cpp</text>
</a>
</g>
</g>
<!-- Node7&#45;&gt;Node22 -->
<g id="edge9" class="edge">
<title>Node7&#45;&gt;Node22</title>
<path fill="none" stroke="#63b8ff" d="M588.47,-134.17C578.68,-123.53 567.32,-111.2 558.74,-101.88"/>
<polygon fill="#63b8ff" stroke="#63b8ff" points="585.87,-136.5 595.21,-141.49 591.01,-131.76 585.87,-136.5"/>
</g>
<!-- Node24 -->
<g id="node12" class="node">
<title>Node24</title>
<g id="a_node12"><a xlink:href="JKRDvdFile_8h.html" target="_top" xlink:title=" ">
<polygon fill="#fff0f0" stroke="red" points="4841,-101.5 4716,-101.5 4716,-71.5 4841,-71.5 4841,-101.5"/>
<text text-anchor="start" x="4724" y="-89.5" font-family="Helvetica,sans-Serif" font-size="10.00">include/JSystem/JKernel</text>
<text text-anchor="middle" x="4778.5" y="-78.5" font-family="Helvetica,sans-Serif" font-size="10.00">/JKRDvdFile.h</text>
</a>
</g>
</g>
<!-- Node23&#45;&gt;Node24 -->
<g id="edge11" class="edge">
<title>Node23&#45;&gt;Node24</title>
<path fill="none" stroke="#63b8ff" d="M4761.25,-131.91C4765.17,-121.82 4769.55,-110.54 4772.91,-101.88"/>
<polygon fill="#63b8ff" stroke="#63b8ff" points="4758,-130.6 4757.64,-141.19 4764.53,-133.13 4758,-130.6"/>
</g>
<!-- Node29 -->
<g id="node13" class="node">
<title>Node29</title>
<g id="a_node13"><a xlink:href="JKRFile_8cpp.html" target="_top" xlink:title=" ">
<polygon fill="white" stroke="#666666" points="4968,-101.5 4859,-101.5 4859,-71.5 4968,-71.5 4968,-101.5"/>
<text text-anchor="start" x="4867" y="-89.5" font-family="Helvetica,sans-Serif" font-size="10.00">libs/JSystem/JKernel</text>
<text text-anchor="middle" x="4913.5" y="-78.5" font-family="Helvetica,sans-Serif" font-size="10.00">/JKRFile.cpp</text>
</a>
</g>
</g>
<!-- Node23&#45;&gt;Node29 -->
<g id="edge12" class="edge">
<title>Node23&#45;&gt;Node29</title>
<path fill="none" stroke="#63b8ff" d="M4795.63,-138.07C4822.22,-126.66 4855.55,-112.36 4879.98,-101.88"/>
<polygon fill="#63b8ff" stroke="#63b8ff" points="4794.27,-134.84 4786.46,-142 4797.03,-141.28 4794.27,-134.84"/>
</g>
<!-- Node30 -->
<g id="node14" class="node">
<title>Node30</title>
<g id="a_node14"><a xlink:href="JSUFileStream_8cpp.html" target="_top" xlink:title=" ">
<polygon fill="white" stroke="#666666" points="5101,-101.5 4986,-101.5 4986,-71.5 5101,-71.5 5101,-101.5"/>
<text text-anchor="start" x="4994" y="-89.5" font-family="Helvetica,sans-Serif" font-size="10.00">libs/JSystem/JSupport</text>
<text text-anchor="middle" x="5043.5" y="-78.5" font-family="Helvetica,sans-Serif" font-size="10.00">/JSUFileStream.cpp</text>
</a>
</g>
</g>
<!-- Node23&#45;&gt;Node30 -->
<g id="edge13" class="edge">
<title>Node23&#45;&gt;Node30</title>
<path fill="none" stroke="#63b8ff" d="M4825.39,-142.01C4869.68,-132.68 4927.03,-120.02 4977.5,-107 4983.52,-105.45 4989.81,-103.72 4996.02,-101.96"/>
<polygon fill="#63b8ff" stroke="#63b8ff" points="4824.68,-138.58 4815.61,-144.06 4826.12,-145.43 4824.68,-138.58"/>
</g>
<!-- Node32 -->
<g id="node16" class="node">
<title>Node32</title>
<g id="a_node16"><a xlink:href="JKRArchive_8h.html" target="_top" xlink:title=" ">
<polygon fill="#fff0f0" stroke="red" points="434,-101.5 309,-101.5 309,-71.5 434,-71.5 434,-101.5"/>
<text text-anchor="start" x="317" y="-89.5" font-family="Helvetica,sans-Serif" font-size="10.00">include/JSystem/JKernel</text>
<text text-anchor="middle" x="371.5" y="-78.5" font-family="Helvetica,sans-Serif" font-size="10.00">/JKRArchive.h</text>
</a>
</g>
</g>
<!-- Node31&#45;&gt;Node32 -->
<g id="edge15" class="edge">
<title>Node31&#45;&gt;Node32</title>
<path fill="none" stroke="#63b8ff" d="M268.4,-137.61C291.71,-126.28 320.63,-112.22 341.91,-101.88"/>
<polygon fill="#63b8ff" stroke="#63b8ff" points="266.96,-134.42 259.49,-141.94 270.01,-140.71 266.96,-134.42"/>
</g>
<!-- Node118 -->
<g id="node19" class="node">
<title>Node118</title>
<g id="a_node19"><a xlink:href="d__msg__scrn__kanban_8cpp.html" target="_top" xlink:title=" ">
<polygon fill="white" stroke="#666666" points="429.5,-30 313.5,-30 313.5,0 429.5,0 429.5,-30"/>
<text text-anchor="start" x="321.5" y="-18" font-family="Helvetica,sans-Serif" font-size="10.00">src/d/msg/d_msg_scrn</text>
<text text-anchor="middle" x="371.5" y="-7" font-family="Helvetica,sans-Serif" font-size="10.00">_kanban.cpp</text>
</a>
</g>
</g>
<!-- Node31&#45;&gt;Node118 -->
<g id="edge22" class="edge">
<title>Node31&#45;&gt;Node118</title>
<path fill="none" stroke="#63b8ff" d="M185.18,-136.66C173.78,-129.06 162.89,-119.22 156.5,-107 148.05,-90.85 145.17,-80.27 156.5,-66 175.74,-41.77 256.27,-28.21 313.11,-21.5"/>
<polygon fill="#63b8ff" stroke="#63b8ff" points="183.14,-139.52 193.5,-141.74 186.79,-133.54 183.14,-139.52"/>
</g>
<!-- Node298 -->
<g id="node20" class="node">
<title>Node298</title>
<g id="a_node20"><a xlink:href="JKRFileCache_8h.html" target="_top" xlink:title=" ">
<polygon fill="#fff0f0" stroke="red" points="291,-101.5 166,-101.5 166,-71.5 291,-71.5 291,-101.5"/>
<text text-anchor="start" x="174" y="-89.5" font-family="Helvetica,sans-Serif" font-size="10.00">include/JSystem/JKernel</text>
<text text-anchor="middle" x="228.5" y="-78.5" font-family="Helvetica,sans-Serif" font-size="10.00">/JKRFileCache.h</text>
</a>
</g>
</g>
<!-- Node31&#45;&gt;Node298 -->
<g id="edge20" class="edge">
<title>Node31&#45;&gt;Node298</title>
<path fill="none" stroke="#63b8ff" d="M228.5,-131.26C228.5,-121.33 228.5,-110.36 228.5,-101.88"/>
<polygon fill="#63b8ff" stroke="#63b8ff" points="225,-131.09 228.5,-141.09 232,-131.09 225,-131.09"/>
</g>
<!-- Node299 -->
<g id="node21" class="node">
<title>Node299</title>
<g id="a_node21"><a xlink:href="JKRFileLoader_8cpp.html" target="_top" xlink:title=" ">
<polygon fill="white" stroke="#666666" points="109,-101.5 0,-101.5 0,-71.5 109,-71.5 109,-101.5"/>
<text text-anchor="start" x="8" y="-89.5" font-family="Helvetica,sans-Serif" font-size="10.00">libs/JSystem/JKernel</text>
<text text-anchor="middle" x="54.5" y="-78.5" font-family="Helvetica,sans-Serif" font-size="10.00">/JKRFileLoader.cpp</text>
</a>
</g>
</g>
<!-- Node31&#45;&gt;Node299 -->
<g id="edge21" class="edge">
<title>Node31&#45;&gt;Node299</title>
<path fill="none" stroke="#63b8ff" d="M181.86,-138.37C153.18,-126.91 116.98,-112.45 90.51,-101.88"/>
<polygon fill="#63b8ff" stroke="#63b8ff" points="180.46,-141.58 191.04,-142.04 183.05,-135.08 180.46,-141.58"/>
</g>
<!-- Node32&#45;&gt;Node5 -->
<g id="edge18" class="edge">
<title>Node32&#45;&gt;Node5</title>
<path fill="none" stroke="#63b8ff" d="M433.55,-68.65C438.58,-67.63 443.61,-66.73 448.5,-66 497.26,-58.75 1208.14,-28.44 1435.28,-18.89"/>
<polygon fill="#63b8ff" stroke="#63b8ff" points="433.07,-65.17 424.05,-70.72 434.56,-72.01 433.07,-65.17"/>
</g>
<!-- Node291 -->
<g id="node17" class="node">
<title>Node291</title>
<g id="a_node17"><a xlink:href="J2DScreen_8cpp.html" target="_top" xlink:title=" ">
<polygon fill="white" stroke="#666666" points="763,-30 644,-30 644,0 763,0 763,-30"/>
<text text-anchor="start" x="652" y="-18" font-family="Helvetica,sans-Serif" font-size="10.00">libs/JSystem/J2DGraph</text>
<text text-anchor="middle" x="703.5" y="-7" font-family="Helvetica,sans-Serif" font-size="10.00">/J2DScreen.cpp</text>
</a>
</g>
</g>
<!-- Node32&#45;&gt;Node291 -->
<g id="edge16" class="edge">
<title>Node32&#45;&gt;Node291</title>
<path fill="none" stroke="#63b8ff" d="M437.81,-68.46C441.42,-67.61 445,-66.79 448.5,-66 514.97,-51.08 591.74,-36.36 643.54,-26.8"/>
<polygon fill="#63b8ff" stroke="#63b8ff" points="437.31,-64.98 428.4,-70.73 438.94,-71.79 437.31,-64.98"/>
</g>
<!-- Node292 -->
<g id="node18" class="node">
<title>Node292</title>
<g id="a_node18"><a xlink:href="JKRArchivePri_8cpp.html" target="_top" xlink:title=" ">
<polygon fill="white" stroke="#666666" points="1154,-30 1045,-30 1045,0 1154,0 1154,-30"/>
<text text-anchor="start" x="1053" y="-18" font-family="Helvetica,sans-Serif" font-size="10.00">libs/JSystem/JKernel</text>
<text text-anchor="middle" x="1099.5" y="-7" font-family="Helvetica,sans-Serif" font-size="10.00">/JKRArchivePri.cpp</text>
</a>
</g>
</g>
<!-- Node32&#45;&gt;Node292 -->
<g id="edge17" class="edge">
<title>Node32&#45;&gt;Node292</title>
<path fill="none" stroke="#63b8ff" d="M434.45,-68.63C439.19,-67.65 443.91,-66.75 448.5,-66 667.47,-30.14 932.2,-19.88 1044.68,-17.05"/>
<polygon fill="#63b8ff" stroke="#63b8ff" points="433.92,-65.16 424.91,-70.74 435.43,-72 433.92,-65.16"/>
</g>
<!-- Node32&#45;&gt;Node118 -->
<g id="edge19" class="edge">
<title>Node32&#45;&gt;Node118</title>
<path fill="none" stroke="#63b8ff" d="M371.5,-59.76C371.5,-49.83 371.5,-38.86 371.5,-30.38"/>
<polygon fill="#63b8ff" stroke="#63b8ff" points="368,-59.59 371.5,-69.59 375,-59.59 368,-59.59"/>
</g>
<!-- Node300&#45;&gt;Node5 -->
<g id="edge58" class="edge">
<title>Node300&#45;&gt;Node5</title>
<path fill="none" stroke="#63b8ff" d="M2382.39,-155.47C2167.27,-150.72 1555.93,-134.83 1523.5,-107 1501.45,-88.08 1501.02,-50.78 1502.7,-30.3"/>
<polygon fill="#63b8ff" stroke="#63b8ff" points="2382.26,-158.97 2392.34,-155.69 2382.42,-151.97 2382.26,-158.97"/>
</g>
<!-- Node300&#45;&gt;Node21 -->
<g id="edge54" class="edge">
<title>Node300&#45;&gt;Node21</title>
<path fill="none" stroke="#63b8ff" d="M2382.24,-156.03C2073.4,-151.82 899.17,-134.19 735.5,-107 728.27,-105.8 720.72,-103.98 713.46,-101.93"/>
<polygon fill="#63b8ff" stroke="#63b8ff" points="2382.16,-159.53 2392.2,-156.16 2382.25,-152.53 2382.16,-159.53"/>
</g>
<!-- Node300&#45;&gt;Node22 -->
<g id="edge55" class="edge">
<title>Node300&#45;&gt;Node22</title>
<path fill="none" stroke="#63b8ff" d="M2382.62,-156.19C2060.3,-152.51 785.32,-136.19 608.5,-107 601.27,-105.81 593.72,-103.99 586.46,-101.94"/>
<polygon fill="#63b8ff" stroke="#63b8ff" points="2382.13,-159.69 2392.17,-156.3 2382.21,-152.69 2382.13,-159.69"/>
</g>
<!-- Node300&#45;&gt;Node291 -->
<g id="edge42" class="edge">
<title>Node300&#45;&gt;Node291</title>
<path fill="none" stroke="#63b8ff" d="M2382.48,-156.15C2084.43,-152.54 984.94,-137.23 917.5,-107 894.55,-96.71 900.01,-79.02 878.5,-66 843.36,-44.73 798.78,-32.17 763.41,-24.95"/>
<polygon fill="#63b8ff" stroke="#63b8ff" points="2382.02,-159.65 2392.06,-156.27 2382.1,-152.65 2382.02,-159.65"/>
</g>
<!-- Node300&#45;&gt;Node292 -->
<g id="edge56" class="edge">
<title>Node300&#45;&gt;Node292</title>
<path fill="none" stroke="#63b8ff" d="M2382.59,-155.63C2172.62,-151.41 1582.4,-136.97 1500.5,-107 1472.2,-96.64 1474.3,-77.63 1446.5,-66 1349.22,-25.3 1224.68,-16.79 1154.34,-15.54"/>
<polygon fill="#63b8ff" stroke="#63b8ff" points="2382.21,-159.13 2392.28,-155.83 2382.35,-152.13 2382.21,-159.13"/>
</g>
<!-- Node301 -->
<g id="node23" class="node">
<title>Node301</title>
<g id="a_node23"><a xlink:href="JKRAssertHeap_8h.html" target="_top" xlink:title=" ">
<polygon fill="#fff0f0" stroke="red" points="3872,-101.5 3747,-101.5 3747,-71.5 3872,-71.5 3872,-101.5"/>
<text text-anchor="start" x="3755" y="-89.5" font-family="Helvetica,sans-Serif" font-size="10.00">include/JSystem/JKernel</text>
<text text-anchor="middle" x="3809.5" y="-78.5" font-family="Helvetica,sans-Serif" font-size="10.00">/JKRAssertHeap.h</text>
</a>
</g>
</g>
<!-- Node300&#45;&gt;Node301 -->
<g id="edge24" class="edge">
<title>Node300&#45;&gt;Node301</title>
<path fill="none" stroke="#63b8ff" d="M2530.45,-156.3C2766.83,-153.73 3502.37,-142.96 3737.5,-107 3745.56,-105.77 3754.02,-103.96 3762.19,-101.94"/>
<polygon fill="#63b8ff" stroke="#63b8ff" points="2530.71,-152.8 2520.75,-156.41 2530.79,-159.8 2530.71,-152.8"/>
</g>
<!-- Node304 -->
<g id="node24" class="node">
<title>Node304</title>
<g id="a_node24"><a xlink:href="JKRExpHeap_8h.html" target="_top" xlink:title=" ">
<polygon fill="#fff0f0" stroke="red" points="870,-101.5 745,-101.5 745,-71.5 870,-71.5 870,-101.5"/>
<text text-anchor="start" x="753" y="-89.5" font-family="Helvetica,sans-Serif" font-size="10.00">include/JSystem/JKernel</text>
<text text-anchor="middle" x="807.5" y="-78.5" font-family="Helvetica,sans-Serif" font-size="10.00">/JKRExpHeap.h</text>
</a>
</g>
</g>
<!-- Node300&#45;&gt;Node304 -->
<g id="edge25" class="edge">
<title>Node300&#45;&gt;Node304</title>
<path fill="none" stroke="#63b8ff" d="M2382.33,-156.77C2111.89,-155.58 1179.21,-148.51 884.5,-107 875.9,-105.79 866.87,-103.99 858.14,-101.97"/>
<polygon fill="#63b8ff" stroke="#63b8ff" points="2382.04,-160.26 2392.06,-156.81 2382.07,-153.26 2382.04,-160.26"/>
</g>
<!-- Node314 -->
<g id="node25" class="node">
<title>Node314</title>
<g id="a_node25"><a xlink:href="JKRSolidHeap_8h.html" target="_top" xlink:title=" ">
<polygon fill="#fff0f0" stroke="red" points="3195,-101.5 3070,-101.5 3070,-71.5 3195,-71.5 3195,-101.5"/>
<text text-anchor="start" x="3078" y="-89.5" font-family="Helvetica,sans-Serif" font-size="10.00">include/JSystem/JKernel</text>
<text text-anchor="middle" x="3132.5" y="-78.5" font-family="Helvetica,sans-Serif" font-size="10.00">/JKRSolidHeap.h</text>
</a>
</g>
</g>
<!-- Node300&#45;&gt;Node314 -->
<g id="edge27" class="edge">
<title>Node300&#45;&gt;Node314</title>
<path fill="none" stroke="#63b8ff" d="M2530.54,-155.2C2644.97,-151.45 2871.38,-140.15 3060.5,-107 3068.15,-105.66 3076.17,-103.87 3083.97,-101.93"/>
<polygon fill="#63b8ff" stroke="#63b8ff" points="2530.54,-151.7 2520.66,-155.51 2530.77,-158.69 2530.54,-151.7"/>
</g>
<!-- Node321 -->
<g id="node26" class="node">
<title>Node321</title>
<g id="a_node26"><a xlink:href="JKRThread_8h.html" target="_top" xlink:title=" ">
<polygon fill="#fff0f0" stroke="red" points="3052,-101.5 2927,-101.5 2927,-71.5 3052,-71.5 3052,-101.5"/>
<text text-anchor="start" x="2935" y="-89.5" font-family="Helvetica,sans-Serif" font-size="10.00">include/JSystem/JKernel</text>
<text text-anchor="middle" x="2989.5" y="-78.5" font-family="Helvetica,sans-Serif" font-size="10.00">/JKRThread.h</text>
</a>
</g>
</g>
<!-- Node300&#45;&gt;Node321 -->
<g id="edge30" class="edge">
<title>Node300&#45;&gt;Node321</title>
<path fill="none" stroke="#63b8ff" d="M2530.57,-152.55C2622.09,-146.23 2782.27,-132.48 2917.5,-107 2924.88,-105.61 2932.61,-103.85 2940.16,-101.95"/>
<polygon fill="#63b8ff" stroke="#63b8ff" points="2530.47,-149.05 2520.73,-153.22 2530.94,-156.03 2530.47,-149.05"/>
</g>
<!-- Node147 -->
<g id="node27" class="node">
<title>Node147</title>
<g id="a_node27"><a xlink:href="d__a__guard__mng_8h.html" target="_top" xlink:title=" ">
<polygon fill="white" stroke="#666666" points="4039,-101.5 3890,-101.5 3890,-71.5 4039,-71.5 4039,-101.5"/>
<text text-anchor="start" x="3898" y="-89.5" font-family="Helvetica,sans-Serif" font-size="10.00">include/rel/d/a/d_a</text>
<text text-anchor="middle" x="3964.5" y="-78.5" font-family="Helvetica,sans-Serif" font-size="10.00">_guard_mng/d_a_guard_mng.h</text>
</a>
</g>
</g>
<!-- Node300&#45;&gt;Node147 -->
<g id="edge32" class="edge">
<title>Node300&#45;&gt;Node147</title>
<path fill="none" stroke="#63b8ff" d="M2530.78,-156.28C2784.5,-153.54 3615.73,-142.05 3880.5,-107 3889.85,-105.76 3899.69,-103.95 3909.2,-101.93"/>
<polygon fill="#63b8ff" stroke="#63b8ff" points="2530.97,-152.78 2521,-156.39 2531.04,-159.78 2530.97,-152.78"/>
</g>
<!-- Node155 -->
<g id="node28" class="node">
<title>Node155</title>
<g id="a_node28"><a xlink:href="d__a__ykgr_8h.html" target="_top" xlink:title=" ">
<polygon fill="#fff0f0" stroke="red" points="4153.5,-101.5 4057.5,-101.5 4057.5,-71.5 4153.5,-71.5 4153.5,-101.5"/>
<text text-anchor="start" x="4065.5" y="-89.5" font-family="Helvetica,sans-Serif" font-size="10.00">include/rel/d/a/d_a</text>
<text text-anchor="middle" x="4105.5" y="-78.5" font-family="Helvetica,sans-Serif" font-size="10.00">_ykgr/d_a_ykgr.h</text>
</a>
</g>
</g>
<!-- Node300&#45;&gt;Node155 -->
<g id="edge33" class="edge">
<title>Node300&#45;&gt;Node155</title>
<path fill="none" stroke="#63b8ff" d="M2530.44,-155.95C2823.86,-151.6 3897.44,-133.98 4047.5,-107 4054.19,-105.8 4061.16,-103.98 4067.85,-101.92"/>
<polygon fill="#63b8ff" stroke="#63b8ff" points="2530.57,-152.45 2520.62,-156.09 2530.67,-159.44 2530.57,-152.45"/>
</g>
<!-- Node338 -->
<g id="node29" class="node">
<title>Node338</title>
<g id="a_node29"><a xlink:href="d__a__tag__arena_8h.html" target="_top" xlink:title=" ">
<polygon fill="white" stroke="#666666" points="4293,-107 4172,-107 4172,-66 4293,-66 4293,-107"/>
<text text-anchor="start" x="4180" y="-95" font-family="Helvetica,sans-Serif" font-size="10.00">include/rel/d/a/tag</text>
<text text-anchor="start" x="4180" y="-84" font-family="Helvetica,sans-Serif" font-size="10.00">/d_a_tag_arena/d_a_tag</text>
<text text-anchor="middle" x="4232.5" y="-73" font-family="Helvetica,sans-Serif" font-size="10.00">_arena.h</text>
</a>
</g>
</g>
<!-- Node300&#45;&gt;Node338 -->
<g id="edge34" class="edge">
<title>Node300&#45;&gt;Node338</title>
<path fill="none" stroke="#63b8ff" d="M2530.73,-157.21C2815.85,-157.66 3840.86,-155.77 4162.5,-107 4165.49,-106.55 4168.54,-106.01 4171.61,-105.4"/>
<polygon fill="#63b8ff" stroke="#63b8ff" points="2530.82,-153.71 2520.81,-157.2 2530.81,-160.71 2530.82,-153.71"/>
</g>
<!-- Node201 -->
<g id="node30" class="node">
<title>Node201</title>
<g id="a_node30"><a xlink:href="d__a__tag__assistance_8h.html" target="_top" xlink:title=" ">
<polygon fill="white" stroke="#666666" points="4425.5,-107 4311.5,-107 4311.5,-66 4425.5,-66 4425.5,-107"/>
<text text-anchor="start" x="4319.5" y="-95" font-family="Helvetica,sans-Serif" font-size="10.00">include/rel/d/a/tag</text>
<text text-anchor="start" x="4319.5" y="-84" font-family="Helvetica,sans-Serif" font-size="10.00">/d_a_tag_assistance</text>
<text text-anchor="middle" x="4368.5" y="-73" font-family="Helvetica,sans-Serif" font-size="10.00">/d_a_tag_assistance.h</text>
</a>
</g>
</g>
<!-- Node300&#45;&gt;Node201 -->
<g id="edge35" class="edge">
<title>Node300&#45;&gt;Node201</title>
<path fill="none" stroke="#63b8ff" d="M2530.51,-156.11C2852.7,-152.1 4124.78,-134.64 4301.5,-107 4304.73,-106.49 4308.03,-105.88 4311.34,-105.18"/>
<polygon fill="#63b8ff" stroke="#63b8ff" points="2530.92,-152.61 2520.97,-156.23 2531.01,-159.61 2530.92,-152.61"/>
</g>
<!-- Node205 -->
<g id="node31" class="node">
<title>Node205</title>
<g id="a_node31"><a xlink:href="d__a__tag__chkpoint_8h.html" target="_top" xlink:title=" ">
<polygon fill="white" stroke="#666666" points="1030.5,-107 926.5,-107 926.5,-66 1030.5,-66 1030.5,-107"/>
<text text-anchor="start" x="934.5" y="-95" font-family="Helvetica,sans-Serif" font-size="10.00">include/rel/d/a/tag</text>
<text text-anchor="start" x="934.5" y="-84" font-family="Helvetica,sans-Serif" font-size="10.00">/d_a_tag_chkpoint/d</text>
<text text-anchor="middle" x="978.5" y="-73" font-family="Helvetica,sans-Serif" font-size="10.00">_a_tag_chkpoint.h</text>
</a>
</g>
</g>
<!-- Node300&#45;&gt;Node205 -->
<g id="edge36" class="edge">
<title>Node300&#45;&gt;Node205</title>
<path fill="none" stroke="#63b8ff" d="M2382.47,-157.06C2129.6,-156.84 1301.33,-152.58 1039.5,-107 1036.65,-106.5 1033.75,-105.91 1030.84,-105.24"/>
<polygon fill="#63b8ff" stroke="#63b8ff" points="2382.2,-160.56 2392.2,-157.06 2382.2,-153.56 2382.2,-160.56"/>
</g>
<!-- Node206 -->
<g id="node32" class="node">
<title>Node206</title>
<g id="a_node32"><a xlink:href="d__a__tag__gra_8h.html" target="_top" xlink:title=" ">
<polygon fill="white" stroke="#666666" points="1186,-101.5 1049,-101.5 1049,-71.5 1186,-71.5 1186,-101.5"/>
<text text-anchor="start" x="1057" y="-89.5" font-family="Helvetica,sans-Serif" font-size="10.00">include/rel/d/a/tag</text>
<text text-anchor="middle" x="1117.5" y="-78.5" font-family="Helvetica,sans-Serif" font-size="10.00">/d_a_tag_gra/d_a_tag_gra.h</text>
</a>
</g>
</g>
<!-- Node300&#45;&gt;Node206 -->
<g id="edge37" class="edge">
<title>Node300&#45;&gt;Node206</title>
<path fill="none" stroke="#63b8ff" d="M2382.11,-156.09C2147.65,-152.89 1425.91,-140.51 1194.5,-107 1185.9,-105.75 1176.87,-103.94 1168.14,-101.92"/>
<polygon fill="#63b8ff" stroke="#63b8ff" points="2382.01,-159.59 2392.05,-156.22 2382.1,-152.59 2382.01,-159.59"/>
</g>
<!-- Node339 -->
<g id="node33" class="node">
<title>Node339</title>
<g id="a_node33"><a xlink:href="d__a__tag__schedule_8h.html" target="_top" xlink:title=" ">
<polygon fill="white" stroke="#666666" points="1311,-107 1204,-107 1204,-66 1311,-66 1311,-107"/>
<text text-anchor="start" x="1212" y="-95" font-family="Helvetica,sans-Serif" font-size="10.00">include/rel/d/a/tag</text>
<text text-anchor="start" x="1212" y="-84" font-family="Helvetica,sans-Serif" font-size="10.00">/d_a_tag_schedule/d</text>
<text text-anchor="middle" x="1257.5" y="-73" font-family="Helvetica,sans-Serif" font-size="10.00">_a_tag_schedule.h</text>
</a>
</g>
</g>
<!-- Node300&#45;&gt;Node339 -->
<g id="edge38" class="edge">
<title>Node300&#45;&gt;Node339</title>
<path fill="none" stroke="#63b8ff" d="M2382.41,-156.26C2163.93,-153.68 1524.77,-143.15 1319.5,-107 1316.83,-106.53 1314.12,-105.98 1311.4,-105.36"/>
<polygon fill="#63b8ff" stroke="#63b8ff" points="2382.17,-159.76 2392.21,-156.37 2382.25,-152.76 2382.17,-159.76"/>
</g>
<!-- Node222 -->
<g id="node34" class="node">
<title>Node222</title>
<g id="a_node34"><a xlink:href="d__a__tag__theB__hint_8h.html" target="_top" xlink:title=" ">
<polygon fill="white" stroke="#666666" points="1438,-107 1329,-107 1329,-66 1438,-66 1438,-107"/>
<text text-anchor="start" x="1337" y="-95" font-family="Helvetica,sans-Serif" font-size="10.00">include/rel/d/a/tag</text>
<text text-anchor="start" x="1337" y="-84" font-family="Helvetica,sans-Serif" font-size="10.00">/d_a_tag_theB_hint/d</text>
<text text-anchor="middle" x="1383.5" y="-73" font-family="Helvetica,sans-Serif" font-size="10.00">_a_tag_theB_hint.h</text>
</a>
</g>
</g>
<!-- Node300&#45;&gt;Node222 -->
<g id="edge39" class="edge">
<title>Node300&#45;&gt;Node222</title>
<path fill="none" stroke="#63b8ff" d="M2382.27,-155.47C2181.62,-151 1631.47,-136.36 1452.5,-107 1447.83,-106.23 1443.03,-105.27 1438.24,-104.17"/>
<polygon fill="#63b8ff" stroke="#63b8ff" points="2381.97,-158.97 2392.05,-155.69 2382.13,-151.97 2381.97,-158.97"/>
</g>
<!-- Node340 -->
<g id="node35" class="node">
<title>Node340</title>
<g id="a_node35"><a xlink:href="J2DMaterial_8cpp.html" target="_top" xlink:title=" ">
<polygon fill="white" stroke="#666666" points="1652,-101.5 1533,-101.5 1533,-71.5 1652,-71.5 1652,-101.5"/>
<text text-anchor="start" x="1541" y="-89.5" font-family="Helvetica,sans-Serif" font-size="10.00">libs/JSystem/J2DGraph</text>
<text text-anchor="middle" x="1592.5" y="-78.5" font-family="Helvetica,sans-Serif" font-size="10.00">/J2DMaterial.cpp</text>
</a>
</g>
</g>
<!-- Node300&#45;&gt;Node340 -->
<g id="edge40" class="edge">
<title>Node300&#45;&gt;Node340</title>
<path fill="none" stroke="#63b8ff" d="M2382.43,-157.67C2241.01,-157.78 1923.21,-152.37 1660.5,-107 1653.12,-105.73 1645.39,-103.95 1637.91,-101.99"/>
<polygon fill="#63b8ff" stroke="#63b8ff" points="2382.02,-161.17 2392.01,-157.65 2382.01,-154.17 2382.02,-161.17"/>
</g>
<!-- Node341 -->
<g id="node36" class="node">
<title>Node341</title>
<g id="a_node36"><a xlink:href="J2DPrint_8cpp.html" target="_top" xlink:title=" ">
<polygon fill="white" stroke="#666666" points="1789,-101.5 1670,-101.5 1670,-71.5 1789,-71.5 1789,-101.5"/>
<text text-anchor="start" x="1678" y="-89.5" font-family="Helvetica,sans-Serif" font-size="10.00">libs/JSystem/J2DGraph</text>
<text text-anchor="middle" x="1729.5" y="-78.5" font-family="Helvetica,sans-Serif" font-size="10.00">/J2DPrint.cpp</text>
</a>
</g>
</g>
<!-- Node300&#45;&gt;Node341 -->
<g id="edge41" class="edge">
<title>Node300&#45;&gt;Node341</title>
<path fill="none" stroke="#63b8ff" d="M2382.4,-156.17C2259.94,-153.73 2008.04,-144.19 1798.5,-107 1791.15,-105.69 1783.45,-103.93 1775.97,-101.99"/>
<polygon fill="#63b8ff" stroke="#63b8ff" points="2382.26,-159.67 2392.32,-156.36 2382.39,-152.67 2382.26,-159.67"/>
</g>
<!-- Node342 -->
<g id="node37" class="node">
<title>Node342</title>
<g id="a_node37"><a xlink:href="J3DMtxBuffer_8cpp.html" target="_top" xlink:title=" ">
<polygon fill="white" stroke="#666666" points="1965.5,-101.5 1807.5,-101.5 1807.5,-71.5 1965.5,-71.5 1965.5,-101.5"/>
<text text-anchor="start" x="1815.5" y="-89.5" font-family="Helvetica,sans-Serif" font-size="10.00">libs/JSystem/J3DGraphAnimator</text>
<text text-anchor="middle" x="1886.5" y="-78.5" font-family="Helvetica,sans-Serif" font-size="10.00">/J3DMtxBuffer.cpp</text>
</a>
</g>
</g>
<!-- Node300&#45;&gt;Node342 -->
<g id="edge43" class="edge">
<title>Node300&#45;&gt;Node342</title>
<path fill="none" stroke="#63b8ff" d="M2382.61,-151.98C2287.72,-144.93 2118.14,-130.29 1974.5,-107 1965.7,-105.57 1956.45,-103.81 1947.39,-101.94"/>
<polygon fill="#63b8ff" stroke="#63b8ff" points="2382.06,-155.45 2392.29,-152.69 2382.58,-148.47 2382.06,-155.45"/>
</g>
<!-- Node343 -->
<g id="node38" class="node">
<title>Node343</title>
<g id="a_node38"><a xlink:href="J3DDrawBuffer_8cpp.html" target="_top" xlink:title=" ">
<polygon fill="white" stroke="#666666" points="2125.5,-101.5 1983.5,-101.5 1983.5,-71.5 2125.5,-71.5 2125.5,-101.5"/>
<text text-anchor="start" x="1991.5" y="-89.5" font-family="Helvetica,sans-Serif" font-size="10.00">libs/JSystem/J3DGraphBase</text>
<text text-anchor="middle" x="2054.5" y="-78.5" font-family="Helvetica,sans-Serif" font-size="10.00">/J3DDrawBuffer.cpp</text>
</a>
</g>
</g>
<!-- Node300&#45;&gt;Node343 -->
<g id="edge44" class="edge">
<title>Node300&#45;&gt;Node343</title>
<path fill="none" stroke="#63b8ff" d="M2382.56,-147.34C2317.09,-138.35 2219.07,-123.84 2134.5,-107 2126.93,-105.49 2118.99,-103.75 2111.18,-101.95"/>
<polygon fill="#63b8ff" stroke="#63b8ff" points="2381.71,-150.76 2392.09,-148.64 2382.65,-143.82 2381.71,-150.76"/>
</g>
<!-- Node344 -->
<g id="node39" class="node">
<title>Node344</title>
<g id="a_node39"><a xlink:href="J3DPacket_8cpp.html" target="_top" xlink:title=" ">
<polygon fill="white" stroke="#666666" points="2285.5,-101.5 2143.5,-101.5 2143.5,-71.5 2285.5,-71.5 2285.5,-101.5"/>
<text text-anchor="start" x="2151.5" y="-89.5" font-family="Helvetica,sans-Serif" font-size="10.00">libs/JSystem/J3DGraphBase</text>
<text text-anchor="middle" x="2214.5" y="-78.5" font-family="Helvetica,sans-Serif" font-size="10.00">/J3DPacket.cpp</text>
</a>
</g>
</g>
<!-- Node300&#45;&gt;Node344 -->
<g id="edge45" class="edge">
<title>Node300&#45;&gt;Node344</title>
<path fill="none" stroke="#63b8ff" d="M2395.03,-139.35C2354.74,-127.77 2302.71,-112.83 2264.87,-101.97"/>
<polygon fill="#63b8ff" stroke="#63b8ff" points="2394.03,-142.7 2404.61,-142.1 2395.96,-135.97 2394.03,-142.7"/>
</g>
<!-- Node345 -->
<g id="node40" class="node">
<title>Node345</title>
<g id="a_node40"><a xlink:href="J3DVertex_8cpp.html" target="_top" xlink:title=" ">
<polygon fill="white" stroke="#666666" points="2445.5,-101.5 2303.5,-101.5 2303.5,-71.5 2445.5,-71.5 2445.5,-101.5"/>
<text text-anchor="start" x="2311.5" y="-89.5" font-family="Helvetica,sans-Serif" font-size="10.00">libs/JSystem/J3DGraphBase</text>
<text text-anchor="middle" x="2374.5" y="-78.5" font-family="Helvetica,sans-Serif" font-size="10.00">/J3DVertex.cpp</text>
</a>
</g>
</g>
<!-- Node300&#45;&gt;Node345 -->
<g id="edge46" class="edge">
<title>Node300&#45;&gt;Node345</title>
<path fill="none" stroke="#63b8ff" d="M2431.06,-135.43C2418.18,-124.52 2402.9,-111.57 2391.47,-101.88"/>
<polygon fill="#63b8ff" stroke="#63b8ff" points="2428.46,-137.83 2438.35,-141.62 2432.99,-132.49 2428.46,-137.83"/>
</g>
<!-- Node346 -->
<g id="node41" class="node">
<title>Node346</title>
<g id="a_node41"><a xlink:href="J3DModelLoader_8cpp.html" target="_top" xlink:title=" ">
<polygon fill="white" stroke="#666666" points="2613,-101.5 2464,-101.5 2464,-71.5 2613,-71.5 2613,-101.5"/>
<text text-anchor="start" x="2472" y="-89.5" font-family="Helvetica,sans-Serif" font-size="10.00">libs/JSystem/J3DGraphLoader</text>
<text text-anchor="middle" x="2538.5" y="-78.5" font-family="Helvetica,sans-Serif" font-size="10.00">/J3DModelLoader.cpp</text>
</a>
</g>
</g>
<!-- Node300&#45;&gt;Node346 -->
<g id="edge47" class="edge">
<title>Node300&#45;&gt;Node346</title>
<path fill="none" stroke="#63b8ff" d="M2481.94,-135.43C2494.82,-124.52 2510.1,-111.57 2521.53,-101.88"/>
<polygon fill="#63b8ff" stroke="#63b8ff" points="2480.01,-132.49 2474.65,-141.62 2484.54,-137.83 2480.01,-132.49"/>
</g>
<!-- Node347 -->
<g id="node42" class="node">
<title>Node347</title>
<g id="a_node42"><a xlink:href="J3DShapeFactory_8cpp.html" target="_top" xlink:title=" ">
<polygon fill="white" stroke="#666666" points="2780,-101.5 2631,-101.5 2631,-71.5 2780,-71.5 2780,-101.5"/>
<text text-anchor="start" x="2639" y="-89.5" font-family="Helvetica,sans-Serif" font-size="10.00">libs/JSystem/J3DGraphLoader</text>
<text text-anchor="middle" x="2705.5" y="-78.5" font-family="Helvetica,sans-Serif" font-size="10.00">/J3DShapeFactory.cpp</text>
</a>
</g>
</g>
<!-- Node300&#45;&gt;Node347 -->
<g id="edge48" class="edge">
<title>Node300&#45;&gt;Node347</title>
<path fill="none" stroke="#63b8ff" d="M2519.48,-139.42C2560.98,-127.84 2614.65,-112.86 2653.67,-101.97"/>
<polygon fill="#63b8ff" stroke="#63b8ff" points="2518.54,-136.05 2509.85,-142.11 2520.43,-142.79 2518.54,-136.05"/>
</g>
<!-- Node348 -->
<g id="node43" class="node">
<title>Node348</title>
<g id="a_node43"><a xlink:href="JAISeq_8cpp.html" target="_top" xlink:title=" ">
<polygon fill="white" stroke="#666666" points="2909,-101.5 2798,-101.5 2798,-71.5 2909,-71.5 2909,-101.5"/>
<text text-anchor="start" x="2806" y="-89.5" font-family="Helvetica,sans-Serif" font-size="10.00">libs/JSystem/JAudio2</text>
<text text-anchor="middle" x="2853.5" y="-78.5" font-family="Helvetica,sans-Serif" font-size="10.00">/JAISeq.cpp</text>
</a>
</g>
</g>
<!-- Node300&#45;&gt;Node348 -->
<g id="edge49" class="edge">
<title>Node300&#45;&gt;Node348</title>
<path fill="none" stroke="#63b8ff" d="M2530.79,-148.88C2598.44,-140.75 2700.86,-126.64 2788.5,-107 2794.94,-105.56 2801.67,-103.81 2808.26,-101.97"/>
<polygon fill="#63b8ff" stroke="#63b8ff" points="2530.43,-145.39 2520.91,-150.05 2531.25,-152.34 2530.43,-145.39"/>
</g>
<!-- Node349 -->
<g id="node44" class="node">
<title>Node349</title>
<g id="a_node44"><a xlink:href="JASBasicInst_8cpp.html" target="_top" xlink:title=" ">
<polygon fill="white" stroke="#666666" points="3324,-101.5 3213,-101.5 3213,-71.5 3324,-71.5 3324,-101.5"/>
<text text-anchor="start" x="3221" y="-89.5" font-family="Helvetica,sans-Serif" font-size="10.00">libs/JSystem/JAudio2</text>
<text text-anchor="middle" x="3268.5" y="-78.5" font-family="Helvetica,sans-Serif" font-size="10.00">/JASBasicInst.cpp</text>
</a>
</g>
</g>
<!-- Node300&#45;&gt;Node349 -->
<g id="edge50" class="edge">
<title>Node300&#45;&gt;Node349</title>
<path fill="none" stroke="#63b8ff" d="M2530.44,-157.52C2665.33,-157.26 2959.92,-151.11 3203.5,-107 3210.57,-105.72 3217.96,-103.94 3225.12,-101.98"/>
<polygon fill="#63b8ff" stroke="#63b8ff" points="2530.57,-154.02 2520.57,-157.53 2530.57,-161.02 2530.57,-154.02"/>
</g>
<!-- Node350 -->
<g id="node45" class="node">
<title>Node350</title>
<g id="a_node45"><a xlink:href="JASBasicWaveBank_8cpp.html" target="_top" xlink:title=" ">
<polygon fill="white" stroke="#666666" points="3470.5,-101.5 3342.5,-101.5 3342.5,-71.5 3470.5,-71.5 3470.5,-101.5"/>
<text text-anchor="start" x="3350.5" y="-89.5" font-family="Helvetica,sans-Serif" font-size="10.00">libs/JSystem/JAudio2</text>
<text text-anchor="middle" x="3406.5" y="-78.5" font-family="Helvetica,sans-Serif" font-size="10.00">/JASBasicWaveBank.cpp</text>
</a>
</g>
</g>
<!-- Node300&#45;&gt;Node350 -->
<g id="edge51" class="edge">
<title>Node300&#45;&gt;Node350</title>
<path fill="none" stroke="#63b8ff" d="M2530.8,-157.76C2682.49,-158.22 3038.32,-153.67 3332.5,-107 3340.5,-105.73 3348.9,-103.96 3357.03,-102"/>
<polygon fill="#63b8ff" stroke="#63b8ff" points="2530.89,-154.26 2520.88,-157.72 2530.86,-161.26 2530.89,-154.26"/>
</g>
<!-- Node351 -->
<g id="node46" class="node">
<title>Node351</title>
<g id="a_node46"><a xlink:href="JASDrumSet_8cpp.html" target="_top" xlink:title=" ">
<polygon fill="white" stroke="#666666" points="3600,-101.5 3489,-101.5 3489,-71.5 3600,-71.5 3600,-101.5"/>
<text text-anchor="start" x="3497" y="-89.5" font-family="Helvetica,sans-Serif" font-size="10.00">libs/JSystem/JAudio2</text>
<text text-anchor="middle" x="3544.5" y="-78.5" font-family="Helvetica,sans-Serif" font-size="10.00">/JASDrumSet.cpp</text>
</a>
</g>
</g>
<!-- Node300&#45;&gt;Node351 -->
<g id="edge52" class="edge">
<title>Node300&#45;&gt;Node351</title>
<path fill="none" stroke="#63b8ff" d="M2530.71,-155.71C2734.03,-151.79 3296.95,-138.36 3479.5,-107 3486.7,-105.76 3494.22,-103.98 3501.49,-101.99"/>
<polygon fill="#63b8ff" stroke="#63b8ff" points="2530.73,-152.21 2520.8,-155.9 2530.86,-159.2 2530.73,-152.21"/>
</g>
<!-- Node352 -->
<g id="node47" class="node">
<title>Node352</title>
<g id="a_node47"><a xlink:href="JASWSParser_8cpp.html" target="_top" xlink:title=" ">
<polygon fill="white" stroke="#666666" points="3729,-101.5 3618,-101.5 3618,-71.5 3729,-71.5 3729,-101.5"/>
<text text-anchor="start" x="3626" y="-89.5" font-family="Helvetica,sans-Serif" font-size="10.00">libs/JSystem/JAudio2</text>
<text text-anchor="middle" x="3673.5" y="-78.5" font-family="Helvetica,sans-Serif" font-size="10.00">/JASWSParser.cpp</text>
</a>
</g>
</g>
<!-- Node300&#45;&gt;Node352 -->
<g id="edge53" class="edge">
<title>Node300&#45;&gt;Node352</title>
<path fill="none" stroke="#63b8ff" d="M2530.78,-156.18C2751.34,-153.36 3400.04,-142.23 3608.5,-107 3615.82,-105.76 3623.47,-103.95 3630.85,-101.93"/>
<polygon fill="#63b8ff" stroke="#63b8ff" points="2530.82,-152.68 2520.87,-156.3 2530.91,-159.68 2530.82,-152.68"/>
</g>
<!-- Node300&#45;&gt;Node353 -->
<g id="edge57" class="edge">
<title>Node300&#45;&gt;Node353</title>
<path fill="none" stroke="#63b8ff" d="M2530.55,-156.31C2867.09,-153.03 4244.22,-137.81 4434.5,-107 4441.84,-105.81 4449.51,-104 4456.88,-101.95"/>
<polygon fill="#63b8ff" stroke="#63b8ff" points="2530.97,-152.81 2521,-156.41 2531.04,-159.81 2530.97,-152.81"/>
</g>
<!-- Node304&#45;&gt;Node118 -->
<g id="edge26" class="edge">
<title>Node304&#45;&gt;Node118</title>
<path fill="none" stroke="#63b8ff" d="M746.35,-68.37C742.69,-67.52 739.05,-66.72 735.5,-66 628.61,-44.28 502.11,-29.27 429.89,-21.69"/>
<polygon fill="#63b8ff" stroke="#63b8ff" points="745.33,-71.72 755.87,-70.68 746.98,-64.92 745.33,-71.72"/>
</g>
<!-- Node314&#45;&gt;Node4 -->
<g id="edge28" class="edge">
<title>Node314&#45;&gt;Node4</title>
<path fill="none" stroke="#63b8ff" d="M3191.03,-68.46C3195.23,-67.54 3199.42,-66.7 3203.5,-66 3324.4,-45.21 3692.43,-25.67 3834.61,-18.7"/>
<polygon fill="#63b8ff" stroke="#63b8ff" points="3190.35,-65.03 3181.42,-70.74 3191.96,-71.84 3190.35,-65.03"/>
</g>
<!-- Node314&#45;&gt;Node6 -->
<g id="edge29" class="edge">
<title>Node314&#45;&gt;Node6</title>
<path fill="none" stroke="#63b8ff" d="M3195.05,-68.12C3197.9,-67.39 3200.73,-66.68 3203.5,-66 3267.86,-50.21 3342.95,-34.44 3389.62,-24.95"/>
<polygon fill="#63b8ff" stroke="#63b8ff" points="3194.25,-64.71 3185.45,-70.62 3196.01,-71.48 3194.25,-64.71"/>
</g>
<!-- Node321&#45;&gt;Node8 -->
<g id="edge31" class="edge">
<title>Node321&#45;&gt;Node8</title>
<path fill="none" stroke="#63b8ff" d="M2927.61,-68.31C2924.19,-67.5 2920.81,-66.72 2917.5,-66 2835.45,-48.14 2739.64,-33.28 2678.32,-24.52"/>
<polygon fill="#63b8ff" stroke="#63b8ff" points="2926.51,-71.64 2937.05,-70.65 2928.19,-64.85 2926.51,-71.64"/>
</g>
</g>
</svg>
