<?xml version="1.0" encoding="UTF-8" standalone="no"?>
<!DOCTYPE svg PUBLIC "-//W3C//DTD SVG 1.1//EN"
 "http://www.w3.org/Graphics/SVG/1.1/DTD/svg11.dtd">
<!-- Generated by graphviz version 7.0.5 (20221223.1930)
 -->
<!-- Title: include/JSystem/JKernel/JKRFileLoader.h Pages: 1 -->
<svg width="3350pt" height="423pt"
 viewBox="0.00 0.00 3350.00 423.00" xmlns="http://www.w3.org/2000/svg" xmlns:xlink="http://www.w3.org/1999/xlink">
<g id="graph0" class="graph" transform="scale(1 1) rotate(0) translate(4 419)">
<title>include/JSystem/JKernel/JKRFileLoader.h</title>
<!-- Node1 -->
<g id="node1" class="node">
<title>Node1</title>
<g id="a_node1"><a xlink:title=" ">
<polygon fill="#999999" stroke="#666666" points="2820,-415 2695,-415 2695,-385 2820,-385 2820,-415"/>
<text text-anchor="start" x="2703" y="-403" font-family="Helvetica,sans-Serif" font-size="10.00">include/JSystem/JKernel</text>
<text text-anchor="middle" x="2757.5" y="-392" font-family="Helvetica,sans-Serif" font-size="10.00">/JKRFileLoader.h</text>
</a>
</g>
</g>
<!-- Node2 -->
<g id="node2" class="node">
<title>Node2</title>
<g id="a_node2"><a xlink:href="JKRArchive_8h.html" target="_top" xlink:title=" ">
<polygon fill="white" stroke="#666666" points="2225,-349 2100,-349 2100,-319 2225,-319 2225,-349"/>
<text text-anchor="start" x="2108" y="-337" font-family="Helvetica,sans-Serif" font-size="10.00">include/JSystem/JKernel</text>
<text text-anchor="middle" x="2162.5" y="-326" font-family="Helvetica,sans-Serif" font-size="10.00">/JKRArchive.h</text>
</a>
</g>
</g>
<!-- Node1&#45;&gt;Node2 -->
<g id="edge1" class="edge">
<title>Node1&#45;&gt;Node2</title>
<path fill="none" stroke="#63b8ff" d="M2683.24,-391.01C2565.03,-378.3 2336.17,-353.68 2225.48,-341.77"/>
<polygon fill="#63b8ff" stroke="#63b8ff" points="2682.85,-394.49 2693.16,-392.08 2683.6,-387.53 2682.85,-394.49"/>
</g>
<!-- Node221 -->
<g id="node48" class="node">
<title>Node221</title>
<g id="a_node48"><a xlink:href="JKRFileCache_8h.html" target="_top" xlink:title=" ">
<polygon fill="white" stroke="#666666" points="3325,-283 3200,-283 3200,-253 3325,-253 3325,-283"/>
<text text-anchor="start" x="3208" y="-271" font-family="Helvetica,sans-Serif" font-size="10.00">include/JSystem/JKernel</text>
<text text-anchor="middle" x="3262.5" y="-260" font-family="Helvetica,sans-Serif" font-size="10.00">/JKRFileCache.h</text>
</a>
</g>
</g>
<!-- Node1&#45;&gt;Node221 -->
<g id="edge67" class="edge">
<title>Node1&#45;&gt;Node221</title>
<path fill="none" stroke="#63b8ff" d="M2756.68,-373.15C2757.61,-355.16 2762.1,-332.14 2777.5,-319 2847.76,-259.07 3100.07,-295.95 3191.5,-283 3194.24,-282.61 3197.03,-282.19 3199.84,-281.74"/>
<polygon fill="#63b8ff" stroke="#63b8ff" points="2753.18,-373.05 2756.53,-383.1 2760.18,-373.15 2753.18,-373.05"/>
</g>
<!-- Node223 -->
<g id="node50" class="node">
<title>Node223</title>
<g id="a_node50"><a xlink:href="JKRFileLoader_8cpp.html" target="_top" xlink:title=" ">
<polygon fill="white" stroke="#666666" points="2895,-349 2786,-349 2786,-319 2895,-319 2895,-349"/>
<text text-anchor="start" x="2794" y="-337" font-family="Helvetica,sans-Serif" font-size="10.00">libs/JSystem/JKernel</text>
<text text-anchor="middle" x="2840.5" y="-326" font-family="Helvetica,sans-Serif" font-size="10.00">/JKRFileLoader.cpp</text>
</a>
</g>
</g>
<!-- Node1&#45;&gt;Node223 -->
<g id="edge71" class="edge">
<title>Node1&#45;&gt;Node223</title>
<path fill="none" stroke="#63b8ff" d="M2784.77,-377.97C2796.92,-368.61 2810.92,-357.81 2821.84,-349.39"/>
<polygon fill="#63b8ff" stroke="#63b8ff" points="2782.9,-374.99 2777.12,-383.87 2787.18,-380.54 2782.9,-374.99"/>
</g>
<!-- Node3 -->
<g id="node3" class="node">
<title>Node3</title>
<g id="a_node3"><a xlink:href="JASResArcLoader_8h.html" target="_top" xlink:title=" ">
<polygon fill="white" stroke="#666666" points="334,-283 207,-283 207,-253 334,-253 334,-283"/>
<text text-anchor="start" x="215" y="-271" font-family="Helvetica,sans-Serif" font-size="10.00">include/JSystem/JAudio2</text>
<text text-anchor="middle" x="270.5" y="-260" font-family="Helvetica,sans-Serif" font-size="10.00">/JASResArcLoader.h</text>
</a>
</g>
</g>
<!-- Node2&#45;&gt;Node3 -->
<g id="edge2" class="edge">
<title>Node2&#45;&gt;Node3</title>
<path fill="none" stroke="#63b8ff" d="M2088.19,-332.25C1849.03,-329.55 1077.7,-318.46 440.5,-283 405.31,-281.04 366.11,-277.88 334.22,-275.05"/>
<polygon fill="#63b8ff" stroke="#63b8ff" points="2087.96,-335.75 2098,-332.36 2088.04,-328.75 2087.96,-335.75"/>
</g>
<!-- Node7 -->
<g id="node7" class="node">
<title>Node7</title>
<g id="a_node7"><a xlink:href="JKRAramArchive_8h.html" target="_top" xlink:title=" ">
<polygon fill="white" stroke="#666666" points="464,-151 339,-151 339,-121 464,-121 464,-151"/>
<text text-anchor="start" x="347" y="-139" font-family="Helvetica,sans-Serif" font-size="10.00">include/JSystem/JKernel</text>
<text text-anchor="middle" x="401.5" y="-128" font-family="Helvetica,sans-Serif" font-size="10.00">/JKRAramArchive.h</text>
</a>
</g>
</g>
<!-- Node2&#45;&gt;Node7 -->
<g id="edge6" class="edge">
<title>Node2&#45;&gt;Node7</title>
<path fill="none" stroke="#63b8ff" d="M2088.6,-332.98C1772.37,-332.62 546.22,-328.31 478.5,-283 439.64,-257 458.29,-227.82 435.5,-187 428.54,-174.53 419.38,-161.2 412.32,-151.44"/>
<polygon fill="#63b8ff" stroke="#63b8ff" points="2088.38,-336.48 2098.38,-332.99 2088.39,-329.48 2088.38,-336.48"/>
</g>
<!-- Node9 -->
<g id="node9" class="node">
<title>Node9</title>
<g id="a_node9"><a xlink:href="JKRArchivePub_8cpp.html" target="_top" xlink:title=" ">
<polygon fill="white" stroke="#666666" points="408,-85 299,-85 299,-55 408,-55 408,-85"/>
<text text-anchor="start" x="307" y="-73" font-family="Helvetica,sans-Serif" font-size="10.00">libs/JSystem/JKernel</text>
<text text-anchor="middle" x="353.5" y="-62" font-family="Helvetica,sans-Serif" font-size="10.00">/JKRArchivePub.cpp</text>
</a>
</g>
</g>
<!-- Node2&#45;&gt;Node9 -->
<g id="edge60" class="edge">
<title>Node2&#45;&gt;Node9</title>
<path fill="none" stroke="#63b8ff" d="M2088.31,-330.54C1943.87,-325.29 1614.89,-311.12 1339.5,-283 1134.47,-262.07 1083.97,-249.82 880.5,-217 716.02,-190.47 663.87,-218.38 511.5,-151 491.5,-142.16 491.4,-131.99 472.5,-121 447.99,-106.75 418.65,-94.37 395.23,-85.5"/>
<polygon fill="#63b8ff" stroke="#63b8ff" points="2088,-334.03 2098.12,-330.89 2088.25,-327.03 2088,-334.03"/>
</g>
<!-- Node12 -->
<g id="node12" class="node">
<title>Node12</title>
<g id="a_node12"><a xlink:href="JKRCompArchive_8h.html" target="_top" xlink:title=" ">
<polygon fill="white" stroke="#666666" points="646,-151 521,-151 521,-121 646,-121 646,-151"/>
<text text-anchor="start" x="529" y="-139" font-family="Helvetica,sans-Serif" font-size="10.00">include/JSystem/JKernel</text>
<text text-anchor="middle" x="583.5" y="-128" font-family="Helvetica,sans-Serif" font-size="10.00">/JKRCompArchive.h</text>
</a>
</g>
</g>
<!-- Node2&#45;&gt;Node12 -->
<g id="edge11" class="edge">
<title>Node2&#45;&gt;Node12</title>
<path fill="none" stroke="#63b8ff" d="M2088.3,-327.79C1977.72,-319.75 1763.24,-303.15 1581.5,-283 1364.84,-258.98 1311.3,-247.8 1095.5,-217 899.31,-189 849.77,-184.85 654.5,-151 651.78,-150.53 649,-150.03 646.19,-149.52"/>
<polygon fill="#63b8ff" stroke="#63b8ff" points="2087.9,-331.27 2098.13,-328.5 2088.41,-324.29 2087.9,-331.27"/>
</g>
<!-- Node13 -->
<g id="node13" class="node">
<title>Node13</title>
<g id="a_node13"><a xlink:href="JKRDvdArchive_8h.html" target="_top" xlink:title=" ">
<polygon fill="white" stroke="#666666" points="789,-151 664,-151 664,-121 789,-121 789,-151"/>
<text text-anchor="start" x="672" y="-139" font-family="Helvetica,sans-Serif" font-size="10.00">include/JSystem/JKernel</text>
<text text-anchor="middle" x="726.5" y="-128" font-family="Helvetica,sans-Serif" font-size="10.00">/JKRDvdArchive.h</text>
</a>
</g>
</g>
<!-- Node2&#45;&gt;Node13 -->
<g id="edge14" class="edge">
<title>Node2&#45;&gt;Node13</title>
<path fill="none" stroke="#63b8ff" d="M2088.57,-322.97C2014.26,-312.89 1896.43,-296.89 1794.5,-283 1412.75,-230.97 954.29,-168.2 789.39,-145.62"/>
<polygon fill="#63b8ff" stroke="#63b8ff" points="2087.78,-326.4 2098.16,-324.27 2088.72,-319.46 2087.78,-326.4"/>
</g>
<!-- Node15 -->
<g id="node15" class="node">
<title>Node15</title>
<g id="a_node15"><a xlink:href="JKRMemArchive_8h.html" target="_top" xlink:title=" ">
<polygon fill="white" stroke="#666666" points="1450,-151 1325,-151 1325,-121 1450,-121 1450,-151"/>
<text text-anchor="start" x="1333" y="-139" font-family="Helvetica,sans-Serif" font-size="10.00">include/JSystem/JKernel</text>
<text text-anchor="middle" x="1387.5" y="-128" font-family="Helvetica,sans-Serif" font-size="10.00">/JKRMemArchive.h</text>
</a>
</g>
</g>
<!-- Node2&#45;&gt;Node15 -->
<g id="edge18" class="edge">
<title>Node2&#45;&gt;Node15</title>
<path fill="none" stroke="#63b8ff" d="M2088.53,-319.69C2038.6,-310.34 1971.34,-297.04 1912.5,-283 1734.9,-240.61 1526.69,-179.15 1434.97,-151.47"/>
<polygon fill="#63b8ff" stroke="#63b8ff" points="2087.59,-323.08 2098.06,-321.46 2088.87,-316.19 2087.59,-323.08"/>
</g>
<!-- Node25 -->
<g id="node25" class="node">
<title>Node25</title>
<g id="a_node25"><a xlink:href="m__Do__dvd__thread_8h.html" target="_top" xlink:title=" ">
<polygon fill="white" stroke="#666666" points="2046,-283 1921,-283 1921,-253 2046,-253 2046,-283"/>
<text text-anchor="start" x="1929" y="-271" font-family="Helvetica,sans-Serif" font-size="10.00">include/m_Do/m_Do_dvd</text>
<text text-anchor="middle" x="1983.5" y="-260" font-family="Helvetica,sans-Serif" font-size="10.00">_thread.h</text>
</a>
</g>
</g>
<!-- Node2&#45;&gt;Node25 -->
<g id="edge30" class="edge">
<title>Node2&#45;&gt;Node25</title>
<path fill="none" stroke="#63b8ff" d="M2111.61,-314.8C2083.79,-304.86 2049.82,-292.71 2023.85,-283.43"/>
<polygon fill="#63b8ff" stroke="#63b8ff" points="2110.31,-318.06 2120.9,-318.13 2112.67,-311.47 2110.31,-318.06"/>
</g>
<!-- Node51 -->
<g id="node33" class="node">
<title>Node51</title>
<g id="a_node33"><a xlink:href="d__bright__check_8cpp.html" target="_top" xlink:title=" ">
<polygon fill="white" stroke="#666666" points="3098,-19 2973,-19 2973,0 3098,0 3098,-19"/>
<text text-anchor="middle" x="3035.5" y="-7" font-family="Helvetica,sans-Serif" font-size="10.00">src/d/d_bright_check.cpp</text>
</a>
</g>
</g>
<!-- Node2&#45;&gt;Node51 -->
<g id="edge64" class="edge">
<title>Node2&#45;&gt;Node51</title>
<path fill="none" stroke="#63b8ff" d="M2126.51,-312.75C2101.55,-296.24 2075.88,-272.54 2094.5,-253 2151.67,-193 2757.9,-231.49 2839.5,-217 3032.99,-182.65 3145.12,-243.35 3261.5,-85 3304.93,-25.91 3179.48,-12.95 3098.47,-10.55"/>
<polygon fill="#63b8ff" stroke="#63b8ff" points="2124.34,-315.52 2134.66,-317.9 2128.07,-309.6 2124.34,-315.52"/>
</g>
<!-- Node213 -->
<g id="node40" class="node">
<title>Node213</title>
<g id="a_node40"><a xlink:href="J2DScreen_8cpp.html" target="_top" xlink:title=" ">
<polygon fill="white" stroke="#666666" points="2222,-283 2103,-283 2103,-253 2222,-253 2222,-283"/>
<text text-anchor="start" x="2111" y="-271" font-family="Helvetica,sans-Serif" font-size="10.00">libs/JSystem/J2DGraph</text>
<text text-anchor="middle" x="2162.5" y="-260" font-family="Helvetica,sans-Serif" font-size="10.00">/J2DScreen.cpp</text>
</a>
</g>
</g>
<!-- Node2&#45;&gt;Node213 -->
<g id="edge57" class="edge">
<title>Node2&#45;&gt;Node213</title>
<path fill="none" stroke="#63b8ff" d="M2162.5,-307.39C2162.5,-299.13 2162.5,-290.28 2162.5,-283.16"/>
<polygon fill="#63b8ff" stroke="#63b8ff" points="2159,-307.28 2162.5,-317.28 2166,-307.28 2159,-307.28"/>
</g>
<!-- Node214 -->
<g id="node41" class="node">
<title>Node214</title>
<g id="a_node41"><a xlink:href="JKRAram_8cpp.html" target="_top" xlink:title=" ">
<polygon fill="white" stroke="#666666" points="2349,-283 2240,-283 2240,-253 2349,-253 2349,-283"/>
<text text-anchor="start" x="2248" y="-271" font-family="Helvetica,sans-Serif" font-size="10.00">libs/JSystem/JKernel</text>
<text text-anchor="middle" x="2294.5" y="-260" font-family="Helvetica,sans-Serif" font-size="10.00">/JKRAram.cpp</text>
</a>
</g>
</g>
<!-- Node2&#45;&gt;Node214 -->
<g id="edge58" class="edge">
<title>Node2&#45;&gt;Node214</title>
<path fill="none" stroke="#63b8ff" d="M2202.26,-313.72C2222.42,-303.95 2246.48,-292.28 2264.98,-283.31"/>
<polygon fill="#63b8ff" stroke="#63b8ff" points="2200.96,-310.46 2193.49,-317.98 2204.01,-316.76 2200.96,-310.46"/>
</g>
<!-- Node215 -->
<g id="node42" class="node">
<title>Node215</title>
<g id="a_node42"><a xlink:href="JKRArchivePri_8cpp.html" target="_top" xlink:title=" ">
<polygon fill="white" stroke="#666666" points="2476,-283 2367,-283 2367,-253 2476,-253 2476,-283"/>
<text text-anchor="start" x="2375" y="-271" font-family="Helvetica,sans-Serif" font-size="10.00">libs/JSystem/JKernel</text>
<text text-anchor="middle" x="2421.5" y="-260" font-family="Helvetica,sans-Serif" font-size="10.00">/JKRArchivePri.cpp</text>
</a>
</g>
</g>
<!-- Node2&#45;&gt;Node215 -->
<g id="edge59" class="edge">
<title>Node2&#45;&gt;Node215</title>
<path fill="none" stroke="#63b8ff" d="M2232,-315.83C2274.29,-305.38 2327.53,-292.22 2366.81,-282.52"/>
<polygon fill="#63b8ff" stroke="#63b8ff" points="2231.29,-312.4 2222.42,-318.19 2232.96,-319.19 2231.29,-312.4"/>
</g>
<!-- Node216 -->
<g id="node43" class="node">
<title>Node216</title>
<g id="a_node43"><a xlink:href="JKRDvdRipper_8cpp.html" target="_top" xlink:title=" ">
<polygon fill="white" stroke="#666666" points="2603,-283 2494,-283 2494,-253 2603,-253 2603,-283"/>
<text text-anchor="start" x="2502" y="-271" font-family="Helvetica,sans-Serif" font-size="10.00">libs/JSystem/JKernel</text>
<text text-anchor="middle" x="2548.5" y="-260" font-family="Helvetica,sans-Serif" font-size="10.00">/JKRDvdRipper.cpp</text>
</a>
</g>
</g>
<!-- Node2&#45;&gt;Node216 -->
<g id="edge61" class="edge">
<title>Node2&#45;&gt;Node216</title>
<path fill="none" stroke="#63b8ff" d="M2236.28,-322.97C2301.9,-313.72 2400.37,-299.03 2485.5,-283 2488.14,-282.5 2490.84,-281.98 2493.57,-281.43"/>
<polygon fill="#63b8ff" stroke="#63b8ff" points="2236.15,-319.46 2226.73,-324.31 2237.12,-326.39 2236.15,-319.46"/>
</g>
<!-- Node217 -->
<g id="node44" class="node">
<title>Node217</title>
<g id="a_node44"><a xlink:href="JKRFileFinder_8cpp.html" target="_top" xlink:title=" ">
<polygon fill="white" stroke="#666666" points="2730,-283 2621,-283 2621,-253 2730,-253 2730,-283"/>
<text text-anchor="start" x="2629" y="-271" font-family="Helvetica,sans-Serif" font-size="10.00">libs/JSystem/JKernel</text>
<text text-anchor="middle" x="2675.5" y="-260" font-family="Helvetica,sans-Serif" font-size="10.00">/JKRFileFinder.cpp</text>
</a>
</g>
</g>
<!-- Node2&#45;&gt;Node217 -->
<g id="edge62" class="edge">
<title>Node2&#45;&gt;Node217</title>
<path fill="none" stroke="#63b8ff" d="M2236.79,-327.22C2326.28,-319.69 2481.01,-304.85 2612.5,-283 2615.15,-282.56 2617.86,-282.08 2620.59,-281.57"/>
<polygon fill="#63b8ff" stroke="#63b8ff" points="2236.58,-323.73 2226.91,-328.04 2237.17,-330.7 2236.58,-323.73"/>
</g>
<!-- Node218 -->
<g id="node45" class="node">
<title>Node218</title>
<g id="a_node45"><a xlink:href="JUTResource_8cpp.html" target="_top" xlink:title=" ">
<polygon fill="white" stroke="#666666" points="2854.5,-283 2748.5,-283 2748.5,-253 2854.5,-253 2854.5,-283"/>
<text text-anchor="start" x="2756.5" y="-271" font-family="Helvetica,sans-Serif" font-size="10.00">libs/JSystem/JUtility</text>
<text text-anchor="middle" x="2801.5" y="-260" font-family="Helvetica,sans-Serif" font-size="10.00">/JUTResource.cpp</text>
</a>
</g>
</g>
<!-- Node2&#45;&gt;Node218 -->
<g id="edge63" class="edge">
<title>Node2&#45;&gt;Node218</title>
<path fill="none" stroke="#63b8ff" d="M2236.46,-329.8C2346.62,-324.32 2560.06,-310.9 2739.5,-283 2742.34,-282.56 2745.23,-282.06 2748.15,-281.53"/>
<polygon fill="#63b8ff" stroke="#63b8ff" points="2236.49,-326.3 2226.68,-330.28 2236.83,-333.29 2236.49,-326.3"/>
</g>
<!-- Node219 -->
<g id="node46" class="node">
<title>Node219</title>
<g id="a_node46"><a xlink:href="d__menu__fmap_8cpp.html" target="_top" xlink:title=" ">
<polygon fill="white" stroke="#666666" points="3020.5,-277.5 2872.5,-277.5 2872.5,-258.5 3020.5,-258.5 3020.5,-277.5"/>
<text text-anchor="middle" x="2946.5" y="-265.5" font-family="Helvetica,sans-Serif" font-size="10.00">src/d/menu/d_menu_fmap.cpp</text>
</a>
</g>
</g>
<!-- Node2&#45;&gt;Node219 -->
<g id="edge65" class="edge">
<title>Node2&#45;&gt;Node219</title>
<path fill="none" stroke="#63b8ff" d="M2236.25,-330.07C2364.24,-324.46 2635.66,-310.28 2863.5,-283 2874.82,-281.65 2886.94,-279.82 2898.34,-277.93"/>
<polygon fill="#63b8ff" stroke="#63b8ff" points="2236.41,-326.56 2226.57,-330.49 2236.71,-333.55 2236.41,-326.56"/>
</g>
<!-- Node220 -->
<g id="node47" class="node">
<title>Node220</title>
<g id="a_node47"><a xlink:href="d__pane__class_8cpp.html" target="_top" xlink:title=" ">
<polygon fill="white" stroke="#666666" points="3182,-277.5 3039,-277.5 3039,-258.5 3182,-258.5 3182,-277.5"/>
<text text-anchor="middle" x="3110.5" y="-265.5" font-family="Helvetica,sans-Serif" font-size="10.00">src/d/pane/d_pane_class.cpp</text>
</a>
</g>
</g>
<!-- Node2&#45;&gt;Node220 -->
<g id="edge66" class="edge">
<title>Node2&#45;&gt;Node220</title>
<path fill="none" stroke="#63b8ff" d="M2236.59,-331.56C2386.66,-328.02 2737.17,-316.58 3029.5,-283 3040.7,-281.71 3052.7,-279.89 3063.94,-277.98"/>
<polygon fill="#63b8ff" stroke="#63b8ff" points="2236.7,-328.06 2226.78,-331.79 2236.86,-335.06 2236.7,-328.06"/>
</g>
<!-- Node4 -->
<g id="node4" class="node">
<title>Node4</title>
<g id="a_node4"><a xlink:href="JASResArcLoader_8cpp.html" target="_top" xlink:title=" ">
<polygon fill="white" stroke="#666666" points="119,-217 0,-217 0,-187 119,-187 119,-217"/>
<text text-anchor="start" x="8" y="-205" font-family="Helvetica,sans-Serif" font-size="10.00">libs/JSystem/JAudio2</text>
<text text-anchor="middle" x="59.5" y="-194" font-family="Helvetica,sans-Serif" font-size="10.00">/JASResArcLoader.cpp</text>
</a>
</g>
</g>
<!-- Node3&#45;&gt;Node4 -->
<g id="edge3" class="edge">
<title>Node3&#45;&gt;Node4</title>
<path fill="none" stroke="#63b8ff" d="M211.98,-249.25C178.88,-239.21 138.03,-226.82 106.94,-217.39"/>
<polygon fill="#63b8ff" stroke="#63b8ff" points="210.85,-252.56 221.44,-252.12 212.88,-245.87 210.85,-252.56"/>
</g>
<!-- Node5 -->
<g id="node5" class="node">
<title>Node5</title>
<g id="a_node5"><a xlink:href="JAUSectionHeap_8cpp.html" target="_top" xlink:title=" ">
<polygon fill="white" stroke="#666666" points="250,-217 137,-217 137,-187 250,-187 250,-217"/>
<text text-anchor="start" x="145" y="-205" font-family="Helvetica,sans-Serif" font-size="10.00">libs/JSystem/JAudio2</text>
<text text-anchor="middle" x="193.5" y="-194" font-family="Helvetica,sans-Serif" font-size="10.00">/JAUSectionHeap.cpp</text>
</a>
</g>
</g>
<!-- Node3&#45;&gt;Node5 -->
<g id="edge4" class="edge">
<title>Node3&#45;&gt;Node5</title>
<path fill="none" stroke="#63b8ff" d="M244.87,-245.7C233.68,-236.4 220.85,-225.73 210.81,-217.39"/>
<polygon fill="#63b8ff" stroke="#63b8ff" points="242.32,-248.13 252.25,-251.83 246.79,-242.75 242.32,-248.13"/>
</g>
<!-- Node6 -->
<g id="node6" class="node">
<title>Node6</title>
<g id="a_node6"><a xlink:href="Z2AudioMgr_8cpp.html" target="_top" xlink:title=" ">
<polygon fill="white" stroke="#666666" points="426.5,-211.5 268.5,-211.5 268.5,-192.5 426.5,-192.5 426.5,-211.5"/>
<text text-anchor="middle" x="347.5" y="-199.5" font-family="Helvetica,sans-Serif" font-size="10.00">libs/Z2AudioLib/Z2AudioMgr.cpp</text>
</a>
</g>
</g>
<!-- Node3&#45;&gt;Node6 -->
<g id="edge5" class="edge">
<title>Node3&#45;&gt;Node6</title>
<path fill="none" stroke="#63b8ff" d="M296.24,-245.6C310.09,-234.1 326.42,-220.52 336.86,-211.84"/>
<polygon fill="#63b8ff" stroke="#63b8ff" points="294.21,-242.75 288.75,-251.83 298.68,-248.13 294.21,-242.75"/>
</g>
<!-- Node8 -->
<g id="node8" class="node">
<title>Node8</title>
<g id="a_node8"><a xlink:href="JKRAramArchive_8cpp.html" target="_top" xlink:title=" ">
<polygon fill="white" stroke="#666666" points="281,-85 168,-85 168,-55 281,-55 281,-85"/>
<text text-anchor="start" x="176" y="-73" font-family="Helvetica,sans-Serif" font-size="10.00">libs/JSystem/JKernel</text>
<text text-anchor="middle" x="224.5" y="-62" font-family="Helvetica,sans-Serif" font-size="10.00">/JKRAramArchive.cpp</text>
</a>
</g>
</g>
<!-- Node7&#45;&gt;Node8 -->
<g id="edge7" class="edge">
<title>Node7&#45;&gt;Node8</title>
<path fill="none" stroke="#63b8ff" d="M351.18,-116.8C323.67,-106.86 290.08,-94.71 264.4,-85.43"/>
<polygon fill="#63b8ff" stroke="#63b8ff" points="349.76,-120.01 360.35,-120.12 352.14,-113.43 349.76,-120.01"/>
</g>
<!-- Node7&#45;&gt;Node9 -->
<g id="edge8" class="edge">
<title>Node7&#45;&gt;Node9</title>
<path fill="none" stroke="#63b8ff" d="M384.01,-111.68C377.35,-102.79 369.96,-92.95 364.12,-85.16"/>
<polygon fill="#63b8ff" stroke="#63b8ff" points="381.14,-113.69 389.94,-119.59 386.74,-109.49 381.14,-113.69"/>
</g>
<!-- Node10 -->
<g id="node10" class="node">
<title>Node10</title>
<g id="a_node10"><a xlink:href="JKRCompArchive_8cpp.html" target="_top" xlink:title=" ">
<polygon fill="white" stroke="#666666" points="541,-85 426,-85 426,-55 541,-55 541,-85"/>
<text text-anchor="start" x="434" y="-73" font-family="Helvetica,sans-Serif" font-size="10.00">libs/JSystem/JKernel</text>
<text text-anchor="middle" x="483.5" y="-62" font-family="Helvetica,sans-Serif" font-size="10.00">/JKRCompArchive.cpp</text>
</a>
</g>
</g>
<!-- Node7&#45;&gt;Node10 -->
<g id="edge9" class="edge">
<title>Node7&#45;&gt;Node10</title>
<path fill="none" stroke="#63b8ff" d="M428.44,-113.97C440.44,-104.61 454.27,-93.81 465.07,-85.39"/>
<polygon fill="#63b8ff" stroke="#63b8ff" points="426.62,-110.95 420.89,-119.87 430.93,-116.47 426.62,-110.95"/>
</g>
<!-- Node11 -->
<g id="node11" class="node">
<title>Node11</title>
<g id="a_node11"><a xlink:href="d__stage_8cpp.html" target="_top" xlink:title=" ">
<polygon fill="white" stroke="#666666" points="653.5,-79.5 559.5,-79.5 559.5,-60.5 653.5,-60.5 653.5,-79.5"/>
<text text-anchor="middle" x="606.5" y="-67.5" font-family="Helvetica,sans-Serif" font-size="10.00">src/d/d_stage.cpp</text>
</a>
</g>
</g>
<!-- Node7&#45;&gt;Node11 -->
<g id="edge10" class="edge">
<title>Node7&#45;&gt;Node11</title>
<path fill="none" stroke="#63b8ff" d="M458.39,-117.24C497.2,-105.12 546.97,-89.59 577.79,-79.96"/>
<polygon fill="#63b8ff" stroke="#63b8ff" points="457.71,-113.79 449.21,-120.11 459.8,-120.47 457.71,-113.79"/>
</g>
<!-- Node12&#45;&gt;Node9 -->
<g id="edge12" class="edge">
<title>Node12&#45;&gt;Node9</title>
<path fill="none" stroke="#63b8ff" d="M520.65,-117.51C484.41,-107.43 439.39,-94.9 405.21,-85.39"/>
<polygon fill="#63b8ff" stroke="#63b8ff" points="519.57,-120.84 530.14,-120.15 521.44,-114.1 519.57,-120.84"/>
</g>
<!-- Node12&#45;&gt;Node10 -->
<g id="edge13" class="edge">
<title>Node12&#45;&gt;Node10</title>
<path fill="none" stroke="#63b8ff" d="M551.93,-114.8C537.01,-105.24 519.53,-94.06 505.98,-85.39"/>
<polygon fill="#63b8ff" stroke="#63b8ff" points="549.72,-117.54 560.03,-119.98 553.5,-111.64 549.72,-117.54"/>
</g>
<!-- Node13&#45;&gt;Node9 -->
<g id="edge15" class="edge">
<title>Node13&#45;&gt;Node9</title>
<path fill="none" stroke="#63b8ff" d="M652.57,-120.72C547.17,-102.88 518.18,-103.96 416.5,-85 413.86,-84.51 411.16,-83.98 408.43,-83.44"/>
<polygon fill="#63b8ff" stroke="#63b8ff" points="651.76,-124.13 662.21,-122.37 652.94,-117.24 651.76,-124.13"/>
</g>
<!-- Node13&#45;&gt;Node10 -->
<g id="edge16" class="edge">
<title>Node13&#45;&gt;Node10</title>
<path fill="none" stroke="#63b8ff" d="M660.59,-117.64C622.22,-107.53 574.41,-94.94 538.14,-85.39"/>
<polygon fill="#63b8ff" stroke="#63b8ff" points="659.64,-121.01 670.2,-120.17 661.42,-114.24 659.64,-121.01"/>
</g>
<!-- Node14 -->
<g id="node14" class="node">
<title>Node14</title>
<g id="a_node14"><a xlink:href="JKRDvdArchive_8cpp.html" target="_top" xlink:title=" ">
<polygon fill="white" stroke="#666666" points="781,-85 672,-85 672,-55 781,-55 781,-85"/>
<text text-anchor="start" x="680" y="-73" font-family="Helvetica,sans-Serif" font-size="10.00">libs/JSystem/JKernel</text>
<text text-anchor="middle" x="726.5" y="-62" font-family="Helvetica,sans-Serif" font-size="10.00">/JKRDvdArchive.cpp</text>
</a>
</g>
</g>
<!-- Node13&#45;&gt;Node14 -->
<g id="edge17" class="edge">
<title>Node13&#45;&gt;Node14</title>
<path fill="none" stroke="#63b8ff" d="M726.5,-109.39C726.5,-101.13 726.5,-92.28 726.5,-85.16"/>
<polygon fill="#63b8ff" stroke="#63b8ff" points="723,-109.28 726.5,-119.28 730,-109.28 723,-109.28"/>
</g>
<!-- Node15&#45;&gt;Node9 -->
<g id="edge19" class="edge">
<title>Node15&#45;&gt;Node9</title>
<path fill="none" stroke="#63b8ff" d="M1313.36,-135.39C1150.37,-135.34 748.9,-130.17 416.5,-85 413.84,-84.64 411.12,-84.22 408.38,-83.76"/>
<polygon fill="#63b8ff" stroke="#63b8ff" points="1313.17,-138.89 1323.17,-135.39 1313.17,-131.89 1313.17,-138.89"/>
</g>
<!-- Node15&#45;&gt;Node10 -->
<g id="edge20" class="edge">
<title>Node15&#45;&gt;Node10</title>
<path fill="none" stroke="#63b8ff" d="M1313.25,-134.2C1166.75,-131.83 830.42,-122.4 550.5,-85 547.44,-84.59 544.31,-84.12 541.15,-83.61"/>
<polygon fill="#63b8ff" stroke="#63b8ff" points="1313.16,-137.7 1323.21,-134.36 1313.27,-130.7 1313.16,-137.7"/>
</g>
<!-- Node16 -->
<g id="node16" class="node">
<title>Node16</title>
<g id="a_node16"><a xlink:href="JKRMemArchive_8cpp.html" target="_top" xlink:title=" ">
<polygon fill="white" stroke="#666666" points="1087,-85 976,-85 976,-55 1087,-55 1087,-85"/>
<text text-anchor="start" x="984" y="-73" font-family="Helvetica,sans-Serif" font-size="10.00">libs/JSystem/JKernel</text>
<text text-anchor="middle" x="1031.5" y="-62" font-family="Helvetica,sans-Serif" font-size="10.00">/JKRMemArchive.cpp</text>
</a>
</g>
</g>
<!-- Node15&#45;&gt;Node16 -->
<g id="edge21" class="edge">
<title>Node15&#45;&gt;Node16</title>
<path fill="none" stroke="#63b8ff" d="M1313.57,-123.18C1254.66,-113.54 1170.14,-99.25 1096.5,-85 1093.55,-84.43 1090.53,-83.83 1087.49,-83.22"/>
<polygon fill="#63b8ff" stroke="#63b8ff" points="1312.71,-126.58 1323.14,-124.74 1313.84,-119.67 1312.71,-126.58"/>
</g>
<!-- Node17 -->
<g id="node17" class="node">
<title>Node17</title>
<g id="a_node17"><a xlink:href="d__resorce_8cpp.html" target="_top" xlink:title=" ">
<polygon fill="white" stroke="#666666" points="1207.5,-79.5 1105.5,-79.5 1105.5,-60.5 1207.5,-60.5 1207.5,-79.5"/>
<text text-anchor="middle" x="1156.5" y="-67.5" font-family="Helvetica,sans-Serif" font-size="10.00">src/d/d_resorce.cpp</text>
</a>
</g>
</g>
<!-- Node15&#45;&gt;Node17 -->
<g id="edge22" class="edge">
<title>Node15&#45;&gt;Node17</title>
<path fill="none" stroke="#63b8ff" d="M1324.51,-117.55C1280.62,-105.39 1223.88,-89.67 1188.85,-79.96"/>
<polygon fill="#63b8ff" stroke="#63b8ff" points="1323.34,-120.86 1333.91,-120.15 1325.21,-114.11 1323.34,-120.86"/>
</g>
<!-- Node18 -->
<g id="node18" class="node">
<title>Node18</title>
<g id="a_node18"><a xlink:href="d__menu__fishing_8cpp.html" target="_top" xlink:title=" ">
<polygon fill="white" stroke="#666666" points="1379.5,-79.5 1225.5,-79.5 1225.5,-60.5 1379.5,-60.5 1379.5,-79.5"/>
<text text-anchor="middle" x="1302.5" y="-67.5" font-family="Helvetica,sans-Serif" font-size="10.00">src/d/menu/d_menu_fishing.cpp</text>
</a>
</g>
</g>
<!-- Node15&#45;&gt;Node18 -->
<g id="edge23" class="edge">
<title>Node15&#45;&gt;Node18</title>
<path fill="none" stroke="#63b8ff" d="M1359.52,-113.93C1344.14,-102.35 1325.88,-88.61 1314.25,-79.84"/>
<polygon fill="#63b8ff" stroke="#63b8ff" points="1357.33,-116.67 1367.43,-119.89 1361.54,-111.07 1357.33,-116.67"/>
</g>
<!-- Node19 -->
<g id="node19" class="node">
<title>Node19</title>
<g id="a_node19"><a xlink:href="d__menu__insect_8cpp.html" target="_top" xlink:title=" ">
<polygon fill="white" stroke="#666666" points="1549.5,-79.5 1397.5,-79.5 1397.5,-60.5 1549.5,-60.5 1549.5,-79.5"/>
<text text-anchor="middle" x="1473.5" y="-67.5" font-family="Helvetica,sans-Serif" font-size="10.00">src/d/menu/d_menu_insect.cpp</text>
</a>
</g>
</g>
<!-- Node15&#45;&gt;Node19 -->
<g id="edge24" class="edge">
<title>Node15&#45;&gt;Node19</title>
<path fill="none" stroke="#63b8ff" d="M1415.81,-113.93C1431.37,-102.35 1449.84,-88.61 1461.62,-79.84"/>
<polygon fill="#63b8ff" stroke="#63b8ff" points="1413.73,-111.11 1407.8,-119.89 1417.91,-116.73 1413.73,-111.11"/>
</g>
<!-- Node20 -->
<g id="node20" class="node">
<title>Node20</title>
<g id="a_node20"><a xlink:href="d__menu__item__explain_8cpp.html" target="_top" xlink:title=" ">
<polygon fill="white" stroke="#666666" points="1695,-85 1568,-85 1568,-55 1695,-55 1695,-85"/>
<text text-anchor="start" x="1576" y="-73" font-family="Helvetica,sans-Serif" font-size="10.00">src/d/menu/d_menu_item</text>
<text text-anchor="middle" x="1631.5" y="-62" font-family="Helvetica,sans-Serif" font-size="10.00">_explain.cpp</text>
</a>
</g>
</g>
<!-- Node15&#45;&gt;Node20 -->
<g id="edge25" class="edge">
<title>Node15&#45;&gt;Node20</title>
<path fill="none" stroke="#63b8ff" d="M1453.68,-117.64C1492.21,-107.53 1540.22,-94.94 1576.64,-85.39"/>
<polygon fill="#63b8ff" stroke="#63b8ff" points="1452.81,-114.25 1444.03,-120.17 1454.59,-121.02 1452.81,-114.25"/>
</g>
<!-- Node21 -->
<g id="node21" class="node">
<title>Node21</title>
<g id="a_node21"><a xlink:href="d__menu__option_8cpp.html" target="_top" xlink:title=" ">
<polygon fill="white" stroke="#666666" points="1865.5,-79.5 1713.5,-79.5 1713.5,-60.5 1865.5,-60.5 1865.5,-79.5"/>
<text text-anchor="middle" x="1789.5" y="-67.5" font-family="Helvetica,sans-Serif" font-size="10.00">src/d/menu/d_menu_option.cpp</text>
</a>
</g>
</g>
<!-- Node15&#45;&gt;Node21 -->
<g id="edge26" class="edge">
<title>Node15&#45;&gt;Node21</title>
<path fill="none" stroke="#63b8ff" d="M1461.6,-123.46C1525.86,-113.41 1621.35,-98.41 1704.5,-85 1714.54,-83.38 1725.24,-81.63 1735.55,-79.94"/>
<polygon fill="#63b8ff" stroke="#63b8ff" points="1461.21,-119.98 1451.87,-124.98 1462.29,-126.89 1461.21,-119.98"/>
</g>
<!-- Node22 -->
<g id="node22" class="node">
<title>Node22</title>
<g id="a_node22"><a xlink:href="d__menu__save_8cpp.html" target="_top" xlink:title=" ">
<polygon fill="white" stroke="#666666" points="2031,-79.5 1884,-79.5 1884,-60.5 2031,-60.5 2031,-79.5"/>
<text text-anchor="middle" x="1957.5" y="-67.5" font-family="Helvetica,sans-Serif" font-size="10.00">src/d/menu/d_menu_save.cpp</text>
</a>
</g>
</g>
<!-- Node15&#45;&gt;Node22 -->
<g id="edge27" class="edge">
<title>Node15&#45;&gt;Node22</title>
<path fill="none" stroke="#63b8ff" d="M1461.59,-128.9C1557.2,-120.68 1728.62,-104.77 1874.5,-85 1885.22,-83.55 1896.67,-81.77 1907.54,-79.96"/>
<polygon fill="#63b8ff" stroke="#63b8ff" points="1461.48,-125.39 1451.82,-129.73 1462.08,-132.37 1461.48,-125.39"/>
</g>
<!-- Node23 -->
<g id="node23" class="node">
<title>Node23</title>
<g id="a_node23"><a xlink:href="d__menu__skill_8cpp.html" target="_top" xlink:title=" ">
<polygon fill="white" stroke="#666666" points="2192,-79.5 2049,-79.5 2049,-60.5 2192,-60.5 2192,-79.5"/>
<text text-anchor="middle" x="2120.5" y="-67.5" font-family="Helvetica,sans-Serif" font-size="10.00">src/d/menu/d_menu_skill.cpp</text>
</a>
</g>
</g>
<!-- Node15&#45;&gt;Node23 -->
<g id="edge28" class="edge">
<title>Node15&#45;&gt;Node23</title>
<path fill="none" stroke="#63b8ff" d="M1461.62,-131.67C1582.98,-125.68 1831.48,-111.23 2040.5,-85 2051.27,-83.65 2062.8,-81.84 2073.66,-79.98"/>
<polygon fill="#63b8ff" stroke="#63b8ff" points="1461.61,-128.16 1451.8,-132.14 1461.95,-135.15 1461.61,-128.16"/>
</g>
<!-- Node24 -->
<g id="node24" class="node">
<title>Node24</title>
<g id="a_node24"><a xlink:href="m__Do__dvd__thread_8cpp.html" target="_top" xlink:title=" ">
<polygon fill="white" stroke="#666666" points="957.5,-79.5 799.5,-79.5 799.5,-60.5 957.5,-60.5 957.5,-79.5"/>
<text text-anchor="middle" x="878.5" y="-67.5" font-family="Helvetica,sans-Serif" font-size="10.00">src/m_Do/m_Do_dvd_thread.cpp</text>
</a>
</g>
</g>
<!-- Node15&#45;&gt;Node24 -->
<g id="edge29" class="edge">
<title>Node15&#45;&gt;Node24</title>
<path fill="none" stroke="#63b8ff" d="M1313.28,-125.92C1299.71,-124.28 1285.68,-122.58 1272.5,-121 1136.97,-104.75 1102.72,-103.61 967.5,-85 956.5,-83.49 944.75,-81.73 933.52,-79.99"/>
<polygon fill="#63b8ff" stroke="#63b8ff" points="1312.68,-129.38 1323.03,-127.11 1313.53,-122.43 1312.68,-129.38"/>
</g>
<!-- Node25&#45;&gt;Node24 -->
<g id="edge54" class="edge">
<title>Node25&#45;&gt;Node24</title>
<path fill="none" stroke="#63b8ff" d="M1909.26,-255.85C1779.75,-236.19 1504.18,-193.4 1272.5,-151 1143.59,-127.41 991.85,-95.39 920.09,-80"/>
<polygon fill="#63b8ff" stroke="#63b8ff" points="1908.68,-259.31 1919.09,-257.34 1909.73,-252.38 1908.68,-259.31"/>
</g>
<!-- Node26 -->
<g id="node26" class="node">
<title>Node26</title>
<g id="a_node26"><a xlink:href="d__resorce_8h.html" target="_top" xlink:title=" ">
<polygon fill="white" stroke="#666666" points="2025,-211.5 1916,-211.5 1916,-192.5 2025,-192.5 2025,-211.5"/>
<text text-anchor="middle" x="1970.5" y="-199.5" font-family="Helvetica,sans-Serif" font-size="10.00">include/d/d_resorce.h</text>
</a>
</g>
</g>
<!-- Node25&#45;&gt;Node26 -->
<g id="edge31" class="edge">
<title>Node25&#45;&gt;Node26</title>
<path fill="none" stroke="#63b8ff" d="M1978.34,-241.59C1976.2,-231.06 1973.86,-219.53 1972.3,-211.84"/>
<polygon fill="#63b8ff" stroke="#63b8ff" points="1974.89,-242.21 1980.31,-251.31 1981.75,-240.82 1974.89,-242.21"/>
</g>
<!-- Node203 -->
<g id="node35" class="node">
<title>Node203</title>
<g id="a_node35"><a xlink:href="m__Do__audio_8cpp.html" target="_top" xlink:title=" ">
<polygon fill="white" stroke="#666666" points="2989.5,-79.5 2855.5,-79.5 2855.5,-60.5 2989.5,-60.5 2989.5,-79.5"/>
<text text-anchor="middle" x="2922.5" y="-67.5" font-family="Helvetica,sans-Serif" font-size="10.00">src/m_Do/m_Do_audio.cpp</text>
</a>
</g>
</g>
<!-- Node25&#45;&gt;Node203 -->
<g id="edge53" class="edge">
<title>Node25&#45;&gt;Node203</title>
<path fill="none" stroke="#63b8ff" d="M2009.6,-245.02C2018.27,-236.83 2027.49,-227.07 2034.5,-217 2061.21,-178.63 2038.87,-147.33 2077.5,-121 2148.18,-72.83 2761.52,-94.77 2846.5,-85 2857.3,-83.76 2868.87,-81.9 2879.65,-79.94"/>
<polygon fill="#63b8ff" stroke="#63b8ff" points="2007.39,-242.3 2002.34,-251.61 2012.1,-247.48 2007.39,-242.3"/>
</g>
<!-- Node208 -->
<g id="node36" class="node">
<title>Node208</title>
<g id="a_node36"><a xlink:href="m__Do__main_8cpp.html" target="_top" xlink:title=" ">
<polygon fill="white" stroke="#666666" points="3139,-79.5 3008,-79.5 3008,-60.5 3139,-60.5 3139,-79.5"/>
<text text-anchor="middle" x="3073.5" y="-67.5" font-family="Helvetica,sans-Serif" font-size="10.00">src/m_Do/m_Do_main.cpp</text>
</a>
</g>
</g>
<!-- Node25&#45;&gt;Node208 -->
<g id="edge56" class="edge">
<title>Node25&#45;&gt;Node208</title>
<path fill="none" stroke="#63b8ff" d="M2013.22,-246.27C2044.26,-225.02 2091.19,-194.11 2111.5,-187 2486.06,-55.96 2606.11,-144.11 2998.5,-85 3008.19,-83.54 3018.55,-81.75 3028.37,-79.95"/>
<polygon fill="#63b8ff" stroke="#63b8ff" points="2011.26,-243.37 2005.01,-251.93 2015.23,-249.14 2011.26,-243.37"/>
</g>
<!-- Node210 -->
<g id="node37" class="node">
<title>Node210</title>
<g id="a_node37"><a xlink:href="DynamicLink_8cpp.html" target="_top" xlink:title=" ">
<polygon fill="white" stroke="#666666" points="2830,-211.5 2723,-211.5 2723,-192.5 2830,-192.5 2830,-211.5"/>
<text text-anchor="middle" x="2776.5" y="-199.5" font-family="Helvetica,sans-Serif" font-size="10.00">src/DynamicLink.cpp</text>
</a>
</g>
</g>
<!-- Node25&#45;&gt;Node210 -->
<g id="edge51" class="edge">
<title>Node25&#45;&gt;Node210</title>
<path fill="none" stroke="#63b8ff" d="M2057.47,-253.39C2058.49,-253.26 2059.5,-253.13 2060.5,-253 2306.85,-222.1 2603.46,-209.01 2722.86,-204.73"/>
<polygon fill="#63b8ff" stroke="#63b8ff" points="2057.34,-249.87 2047.94,-254.76 2058.34,-256.8 2057.34,-249.87"/>
</g>
<!-- Node211 -->
<g id="node38" class="node">
<title>Node211</title>
<g id="a_node38"><a xlink:href="m__Do__DVDError_8cpp.html" target="_top" xlink:title=" ">
<polygon fill="white" stroke="#666666" points="2271,-211.5 2120,-211.5 2120,-192.5 2271,-192.5 2271,-211.5"/>
<text text-anchor="middle" x="2195.5" y="-199.5" font-family="Helvetica,sans-Serif" font-size="10.00">src/m_Do/m_Do_DVDError.cpp</text>
</a>
</g>
</g>
<!-- Node25&#45;&gt;Node211 -->
<g id="edge52" class="edge">
<title>Node25&#45;&gt;Node211</title>
<path fill="none" stroke="#63b8ff" d="M2042.34,-249.24C2082.47,-237.12 2133.94,-221.59 2165.81,-211.96"/>
<polygon fill="#63b8ff" stroke="#63b8ff" points="2041.35,-245.88 2032.79,-252.12 2043.38,-252.58 2041.35,-245.88"/>
</g>
<!-- Node212 -->
<g id="node39" class="node">
<title>Node212</title>
<g id="a_node39"><a xlink:href="m__Do__machine_8cpp.html" target="_top" xlink:title=" ">
<polygon fill="white" stroke="#666666" points="2436,-211.5 2289,-211.5 2289,-192.5 2436,-192.5 2436,-211.5"/>
<text text-anchor="middle" x="2362.5" y="-199.5" font-family="Helvetica,sans-Serif" font-size="10.00">src/m_Do/m_Do_machine.cpp</text>
</a>
</g>
</g>
<!-- Node25&#45;&gt;Node212 -->
<g id="edge55" class="edge">
<title>Node25&#45;&gt;Node212</title>
<path fill="none" stroke="#63b8ff" d="M2057.4,-253.54C2058.44,-253.36 2059.47,-253.18 2060.5,-253 2158.13,-236.14 2182.78,-233.34 2280.5,-217 2290.19,-215.38 2300.51,-213.63 2310.45,-211.94"/>
<polygon fill="#63b8ff" stroke="#63b8ff" points="2056.83,-250.08 2047.59,-255.26 2058.04,-256.98 2056.83,-250.08"/>
</g>
<!-- Node26&#45;&gt;Node17 -->
<g id="edge50" class="edge">
<title>Node26&#45;&gt;Node17</title>
<path fill="none" stroke="#63b8ff" d="M1904.33,-200.26C1760.49,-197.95 1423.61,-188.57 1316.5,-151 1294.17,-143.17 1293.24,-132.4 1272.5,-121 1241.94,-104.2 1204.6,-88.98 1180.68,-79.86"/>
<polygon fill="#63b8ff" stroke="#63b8ff" points="1904.02,-203.75 1914.07,-200.41 1904.13,-196.75 1904.02,-203.75"/>
</g>
<!-- Node27 -->
<g id="node27" class="node">
<title>Node27</title>
<g id="a_node27"><a xlink:href="d__com__inf__game_8h.html" target="_top" xlink:title=" ">
<polygon fill="#fff0f0" stroke="red" points="2025.5,-151 1915.5,-151 1915.5,-121 2025.5,-121 2025.5,-151"/>
<text text-anchor="start" x="1923.5" y="-139" font-family="Helvetica,sans-Serif" font-size="10.00">include/d/com/d_com</text>
<text text-anchor="middle" x="1970.5" y="-128" font-family="Helvetica,sans-Serif" font-size="10.00">_inf_game.h</text>
</a>
</g>
</g>
<!-- Node26&#45;&gt;Node27 -->
<g id="edge32" class="edge">
<title>Node26&#45;&gt;Node27</title>
<path fill="none" stroke="#63b8ff" d="M1970.5,-180.78C1970.5,-171.17 1970.5,-159.92 1970.5,-151.23"/>
<polygon fill="#63b8ff" stroke="#63b8ff" points="1967,-180.59 1970.5,-190.59 1974,-180.59 1967,-180.59"/>
</g>
<!-- Node27&#45;&gt;Node11 -->
<g id="edge41" class="edge">
<title>Node27&#45;&gt;Node11</title>
<path fill="none" stroke="#63b8ff" d="M1903.81,-133.26C1654.54,-126.64 785.62,-102.55 662.5,-85 654.27,-83.83 645.48,-81.94 637.38,-79.93"/>
<polygon fill="#63b8ff" stroke="#63b8ff" points="1903.6,-136.76 1913.69,-133.52 1903.79,-129.76 1903.6,-136.76"/>
</g>
<!-- Node27&#45;&gt;Node17 -->
<g id="edge40" class="edge">
<title>Node27&#45;&gt;Node17</title>
<path fill="none" stroke="#63b8ff" d="M1903.83,-134.22C1771.88,-131.87 1468.42,-122.49 1216.5,-85 1208.04,-83.74 1199,-81.9 1190.58,-79.97"/>
<polygon fill="#63b8ff" stroke="#63b8ff" points="1903.73,-137.72 1913.79,-134.39 1903.85,-130.72 1903.73,-137.72"/>
</g>
<!-- Node27&#45;&gt;Node18 -->
<g id="edge42" class="edge">
<title>Node27&#45;&gt;Node18</title>
<path fill="none" stroke="#63b8ff" d="M1904.01,-130.93C1795.73,-123.94 1574.69,-108.12 1388.5,-85 1377.09,-83.58 1364.88,-81.77 1353.34,-79.93"/>
<polygon fill="#63b8ff" stroke="#63b8ff" points="1903.68,-134.42 1913.88,-131.56 1904.12,-127.43 1903.68,-134.42"/>
</g>
<!-- Node27&#45;&gt;Node19 -->
<g id="edge43" class="edge">
<title>Node27&#45;&gt;Node19</title>
<path fill="none" stroke="#63b8ff" d="M1904.16,-127.76C1822.83,-118.7 1680.82,-102.25 1559.5,-85 1548.87,-83.49 1537.52,-81.74 1526.66,-80"/>
<polygon fill="#63b8ff" stroke="#63b8ff" points="1903.4,-131.2 1913.73,-128.83 1904.17,-124.24 1903.4,-131.2"/>
</g>
<!-- Node27&#45;&gt;Node20 -->
<g id="edge44" class="edge">
<title>Node27&#45;&gt;Node20</title>
<path fill="none" stroke="#63b8ff" d="M1904.1,-122.59C1850.29,-112.51 1772.49,-97.91 1704.5,-85 1701.46,-84.42 1698.34,-83.83 1695.2,-83.23"/>
<polygon fill="#63b8ff" stroke="#63b8ff" points="1903.25,-125.99 1913.73,-124.39 1904.54,-119.11 1903.25,-125.99"/>
</g>
<!-- Node27&#45;&gt;Node21 -->
<g id="edge45" class="edge">
<title>Node27&#45;&gt;Node21</title>
<path fill="none" stroke="#63b8ff" d="M1919.17,-116.85C1885.1,-104.8 1841.84,-89.51 1814.91,-79.99"/>
<polygon fill="#63b8ff" stroke="#63b8ff" points="1917.86,-120.1 1928.45,-120.13 1920.19,-113.5 1917.86,-120.1"/>
</g>
<!-- Node27&#45;&gt;Node22 -->
<g id="edge46" class="edge">
<title>Node27&#45;&gt;Node22</title>
<path fill="none" stroke="#63b8ff" d="M1965.34,-109.59C1963.2,-99.06 1960.86,-87.53 1959.3,-79.84"/>
<polygon fill="#63b8ff" stroke="#63b8ff" points="1961.89,-110.21 1967.31,-119.31 1968.75,-108.82 1961.89,-110.21"/>
</g>
<!-- Node27&#45;&gt;Node23 -->
<g id="edge47" class="edge">
<title>Node27&#45;&gt;Node23</title>
<path fill="none" stroke="#63b8ff" d="M2014.51,-116.22C2042.51,-104.27 2077.51,-89.34 2099.44,-79.99"/>
<polygon fill="#63b8ff" stroke="#63b8ff" points="2013.38,-112.9 2005.56,-120.04 2016.13,-119.34 2013.38,-112.9"/>
</g>
<!-- Node28 -->
<g id="node28" class="node">
<title>Node28</title>
<g id="a_node28"><a xlink:href="d__a__npc_8h.html" target="_top" xlink:title=" ">
<polygon fill="#fff0f0" stroke="red" points="2321,-79.5 2210,-79.5 2210,-60.5 2321,-60.5 2321,-79.5"/>
<text text-anchor="middle" x="2265.5" y="-67.5" font-family="Helvetica,sans-Serif" font-size="10.00">include/d/a/d_a_npc.h</text>
</a>
</g>
</g>
<!-- Node27&#45;&gt;Node28 -->
<g id="edge33" class="edge">
<title>Node27&#45;&gt;Node28</title>
<path fill="none" stroke="#63b8ff" d="M2036.65,-120.72C2082.84,-110.74 2145.94,-97.09 2201.5,-85 2208.95,-83.38 2216.88,-81.65 2224.53,-79.98"/>
<polygon fill="#63b8ff" stroke="#63b8ff" points="2036.1,-117.26 2027.06,-122.79 2037.58,-124.1 2036.1,-117.26"/>
</g>
<!-- Node35 -->
<g id="node29" class="node">
<title>Node35</title>
<g id="a_node29"><a xlink:href="d__a__npc__cd_8h.html" target="_top" xlink:title=" ">
<polygon fill="#fff0f0" stroke="red" points="2466,-79.5 2339,-79.5 2339,-60.5 2466,-60.5 2466,-79.5"/>
<text text-anchor="middle" x="2402.5" y="-67.5" font-family="Helvetica,sans-Serif" font-size="10.00">include/d/a/d_a_npc_cd.h</text>
</a>
</g>
</g>
<!-- Node27&#45;&gt;Node35 -->
<g id="edge34" class="edge">
<title>Node27&#45;&gt;Node35</title>
<path fill="none" stroke="#63b8ff" d="M2036.97,-121.42C2037.82,-121.28 2038.66,-121.14 2039.5,-121 2168.12,-100.03 2201.8,-105.45 2330.5,-85 2339.68,-83.54 2349.48,-81.78 2358.8,-80"/>
<polygon fill="#63b8ff" stroke="#63b8ff" points="2036.52,-117.94 2027.28,-123.13 2037.74,-124.84 2036.52,-117.94"/>
</g>
<!-- Node37 -->
<g id="node30" class="node">
<title>Node37</title>
<g id="a_node30"><a xlink:href="d__a__npc__cd2_8h.html" target="_top" xlink:title=" ">
<polygon fill="#fff0f0" stroke="red" points="2588.5,-85 2484.5,-85 2484.5,-55 2588.5,-55 2588.5,-85"/>
<text text-anchor="start" x="2492.5" y="-73" font-family="Helvetica,sans-Serif" font-size="10.00">include/d/a/d_a_npc</text>
<text text-anchor="middle" x="2536.5" y="-62" font-family="Helvetica,sans-Serif" font-size="10.00">_cd2.h</text>
</a>
</g>
</g>
<!-- Node27&#45;&gt;Node37 -->
<g id="edge35" class="edge">
<title>Node27&#45;&gt;Node37</title>
<path fill="none" stroke="#63b8ff" d="M2036.97,-121.37C2037.82,-121.24 2038.66,-121.12 2039.5,-121 2232,-93.62 2283.36,-114.82 2475.5,-85 2478.29,-84.57 2481.15,-84.08 2484.02,-83.55"/>
<polygon fill="#63b8ff" stroke="#63b8ff" points="2036.56,-117.89 2027.26,-122.95 2037.69,-124.8 2036.56,-117.89"/>
</g>
<!-- Node39 -->
<g id="node31" class="node">
<title>Node39</title>
<g id="a_node31"><a xlink:href="d__cc__uty_8h.html" target="_top" xlink:title=" ">
<polygon fill="#fff0f0" stroke="red" points="2726,-79.5 2607,-79.5 2607,-60.5 2726,-60.5 2726,-79.5"/>
<text text-anchor="middle" x="2666.5" y="-67.5" font-family="Helvetica,sans-Serif" font-size="10.00">include/d/cc/d_cc_uty.h</text>
</a>
</g>
</g>
<!-- Node27&#45;&gt;Node39 -->
<g id="edge36" class="edge">
<title>Node27&#45;&gt;Node39</title>
<path fill="none" stroke="#63b8ff" d="M2036.96,-121.35C2037.81,-121.23 2038.66,-121.11 2039.5,-121 2285.84,-88.22 2351.16,-117.78 2597.5,-85 2607.07,-83.73 2617.31,-81.91 2626.88,-80"/>
<polygon fill="#63b8ff" stroke="#63b8ff" points="2036.58,-117.86 2027.25,-122.87 2037.67,-124.78 2036.58,-117.86"/>
</g>
<!-- Node50 -->
<g id="node32" class="node">
<title>Node50</title>
<g id="a_node32"><a xlink:href="d__bright__check_8h.html" target="_top" xlink:title=" ">
<polygon fill="white" stroke="#666666" points="2837,-85 2744,-85 2744,-55 2837,-55 2837,-85"/>
<text text-anchor="start" x="2752" y="-73" font-family="Helvetica,sans-Serif" font-size="10.00">include/d/d_bright</text>
<text text-anchor="middle" x="2790.5" y="-62" font-family="Helvetica,sans-Serif" font-size="10.00">_check.h</text>
</a>
</g>
</g>
<!-- Node27&#45;&gt;Node50 -->
<g id="edge37" class="edge">
<title>Node27&#45;&gt;Node50</title>
<path fill="none" stroke="#63b8ff" d="M2036.96,-121.33C2037.81,-121.22 2038.66,-121.11 2039.5,-121 2346.79,-82.1 2429.25,-131.43 2735.5,-85 2738.13,-84.6 2740.82,-84.13 2743.52,-83.61"/>
<polygon fill="#63b8ff" stroke="#63b8ff" points="2036.6,-117.85 2027.24,-122.81 2037.65,-124.77 2036.6,-117.85"/>
</g>
<!-- Node152 -->
<g id="node34" class="node">
<title>Node152</title>
<g id="a_node34"><a xlink:href="c__dylink_8cpp.html" target="_top" xlink:title=" ">
<polygon fill="white" stroke="#666666" points="3252,-79.5 3157,-79.5 3157,-60.5 3252,-60.5 3252,-79.5"/>
<text text-anchor="middle" x="3204.5" y="-67.5" font-family="Helvetica,sans-Serif" font-size="10.00">src/c/c_dylink.cpp</text>
</a>
</g>
</g>
<!-- Node27&#45;&gt;Node152 -->
<g id="edge39" class="edge">
<title>Node27&#45;&gt;Node152</title>
<path fill="none" stroke="#63b8ff" d="M2037.16,-133.95C2253.03,-130.26 2931.54,-116.39 3148.5,-85 3156.63,-83.82 3165.3,-81.96 3173.33,-79.98"/>
<polygon fill="#63b8ff" stroke="#63b8ff" points="2037.17,-130.45 2027.23,-134.11 2037.29,-137.44 2037.17,-130.45"/>
</g>
<!-- Node27&#45;&gt;Node203 -->
<g id="edge48" class="edge">
<title>Node27&#45;&gt;Node203</title>
<path fill="none" stroke="#63b8ff" d="M2036.96,-121.32C2037.81,-121.21 2038.66,-121.1 2039.5,-121 2395.84,-77.17 2489.78,-125.62 2846.5,-85 2857.3,-83.77 2868.87,-81.92 2879.65,-79.96"/>
<polygon fill="#63b8ff" stroke="#63b8ff" points="2036.61,-117.84 2027.23,-122.78 2037.64,-124.76 2036.61,-117.84"/>
</g>
<!-- Node27&#45;&gt;Node208 -->
<g id="edge49" class="edge">
<title>Node27&#45;&gt;Node208</title>
<path fill="none" stroke="#63b8ff" d="M2037,-125.34C2050.39,-123.67 2064.37,-122.11 2077.5,-121 2485.68,-86.39 2591.41,-130.71 2998.5,-85 3009.29,-83.79 3020.87,-81.92 3031.61,-79.93"/>
<polygon fill="#63b8ff" stroke="#63b8ff" points="2036.9,-121.83 2027.43,-126.58 2037.8,-128.77 2036.9,-121.83"/>
</g>
<!-- Node50&#45;&gt;Node51 -->
<g id="edge38" class="edge">
<title>Node50&#45;&gt;Node51</title>
<path fill="none" stroke="#63b8ff" d="M2848.34,-54.57C2905.62,-40.71 2960.82,-27.8 2996.73,-19.46"/>
<polygon fill="#63b8ff" stroke="#63b8ff" points="2847.6,-51.15 2838.71,-56.91 2849.25,-57.95 2847.6,-51.15"/>
</g>
<!-- Node221&#45;&gt;Node152 -->
<g id="edge70" class="edge">
<title>Node221&#45;&gt;Node152</title>
<path fill="none" stroke="#63b8ff" d="M3241,-243.87C3234.71,-235.9 3228.46,-226.56 3224.5,-217 3204.32,-168.32 3203.67,-103.44 3204.18,-79.96"/>
<polygon fill="#63b8ff" stroke="#63b8ff" points="3238.19,-245.96 3247.3,-251.37 3243.55,-241.46 3238.19,-245.96"/>
</g>
<!-- Node221&#45;&gt;Node210 -->
<g id="edge69" class="edge">
<title>Node221&#45;&gt;Node210</title>
<path fill="none" stroke="#63b8ff" d="M3188.53,-252.6C3054.19,-231.65 2907.56,-215.91 2830.4,-208.19"/>
<polygon fill="#63b8ff" stroke="#63b8ff" points="3187.91,-256.04 3198.33,-254.14 3189,-249.13 3187.91,-256.04"/>
</g>
<!-- Node222 -->
<g id="node49" class="node">
<title>Node222</title>
<g id="a_node49"><a xlink:href="JKRFileCache_8cpp.html" target="_top" xlink:title=" ">
<polygon fill="white" stroke="#666666" points="3342,-217 3233,-217 3233,-187 3342,-187 3342,-217"/>
<text text-anchor="start" x="3241" y="-205" font-family="Helvetica,sans-Serif" font-size="10.00">libs/JSystem/JKernel</text>
<text text-anchor="middle" x="3287.5" y="-194" font-family="Helvetica,sans-Serif" font-size="10.00">/JKRFileCache.cpp</text>
</a>
</g>
</g>
<!-- Node221&#45;&gt;Node222 -->
<g id="edge68" class="edge">
<title>Node221&#45;&gt;Node222</title>
<path fill="none" stroke="#63b8ff" d="M3272.17,-242.25C3275.49,-233.75 3279.09,-224.53 3281.97,-217.16"/>
<polygon fill="#63b8ff" stroke="#63b8ff" points="3268.98,-240.8 3268.6,-251.39 3275.5,-243.35 3268.98,-240.8"/>
</g>
</g>
</svg>
