<?xml version="1.0" encoding="UTF-8" standalone="no"?>
<!DOCTYPE svg PUBLIC "-//W3C//DTD SVG 1.1//EN"
 "http://www.w3.org/Graphics/SVG/1.1/DTD/svg11.dtd">
<!-- Generated by graphviz version 7.0.5 (20221223.1930)
 -->
<!-- Title: libs/JSystem/JKernel/JKRHeap.cpp Pages: 1 -->
<!--zoomable 489 -->
<svg id="main" version="1.1" xmlns="http://www.w3.org/2000/svg" xmlns:xlink="http://www.w3.org/1999/xlink" xml:space="preserve" onload="init(evt)">
<style type="text/css"><![CDATA[
.edge:hover path { stroke: red; }
.edge:hover polygon { stroke: red; fill: red; }
]]></style>
<script type="text/javascript"><![CDATA[
var edges = document.getElementsByTagName('g');
if (edges && edges.length) {
  for (var i=0;i<edges.length;i++) {
    if (edges[i].id.substr(0,4)=='edge') {
      edges[i].setAttribute('class','edge');
    }
  }
}
]]></script>
        <defs>
                <circle id="rim" cx="0" cy="0" r="7"/>
                <circle id="rim2" cx="0" cy="0" r="3.5"/>
                <g id="zoomPlus">
                        <use xlink:href="#rim" fill="#404040">
                                <set attributeName="fill" to="#808080" begin="zoomplus.mouseover" end="zoomplus.mouseout"/>
                        </use>
                        <path d="M-4,0h8M0,-4v8" fill="none" stroke="white" stroke-width="1.5" pointer-events="none"/>
                </g>
                <g id="zoomMin">
                        <use xlink:href="#rim" fill="#404040">
                                <set attributeName="fill" to="#808080" begin="zoomminus.mouseover" end="zoomminus.mouseout"/>
                        </use>
                        <path d="M-4,0h8" fill="none" stroke="white" stroke-width="1.5" pointer-events="none"/>
                </g>
                <g id="dirArrow">
                        <path fill="none" stroke="white" stroke-width="1.5" d="M0,-3.0v7 M-2.5,-0.5L0,-3.0L2.5,-0.5"/>
                </g>
               <g id="resetDef">
                       <use xlink:href="#rim2" fill="#404040">
                               <set attributeName="fill" to="#808080" begin="reset.mouseover" end="reset.mouseout"/>
                       </use>
               </g>
        </defs>

<script type="text/javascript">
var viewWidth = 2141;
var viewHeight = 489;
var sectionId = 'dynsection-0';
</script>
<script xlink:href="svgpan.js"/>
<svg id="graph" class="graph">
<g id="viewport">
<title>libs/JSystem/JKernel/JKRHeap.cpp</title>
<!-- Node1 -->
<g id="node1" class="node">
<title>Node1</title>
<g id="a_node1"><a xlink:title=" ">
<polygon fill="#999999" stroke="#666666" points="949.55,-481 840.55,-481 840.55,-451 949.55,-451 949.55,-481"/>
<text text-anchor="start" x="848.55" y="-469" font-family="Helvetica,sans-Serif" font-size="10.00">libs/JSystem/JKernel</text>
<text text-anchor="middle" x="895.05" y="-458" font-family="Helvetica,sans-Serif" font-size="10.00">/JKRHeap.cpp</text>
</a>
</g>
</g>
<!-- Node2 -->
<g id="node2" class="node">
<title>Node2</title>
<g id="a_node2"><a xlink:href="JKRHeap_8h.html" target="_top" xlink:title=" ">
<polygon fill="white" stroke="#666666" points="1548.55,-305 1405.55,-305 1405.55,-286 1548.55,-286 1548.55,-305"/>
<text text-anchor="middle" x="1477.05" y="-293" font-family="Helvetica,sans-Serif" font-size="10.00">JSystem/JKernel/JKRHeap.h</text>
</a>
</g>
</g>
<!-- Node1&#45;&gt;Node2 -->
<g id="edge1" class="edge">
<title>Node1&#45;&gt;Node2</title>
<path fill="none" stroke="#63b8ff" d="M944.92,-450.56C1057.68,-417.91 1330.56,-338.91 1435.22,-308.61"/>
<polygon fill="#63b8ff" stroke="#63b8ff" points="1435.89,-312.06 1444.52,-305.92 1433.94,-305.34 1435.89,-312.06"/>
</g>
<!-- Node10 -->
<g id="node10" class="node">
<title>Node10</title>
<g id="a_node10"><a xlink:href="JUTAssert_8h.html" target="_top" xlink:title=" ">
<polygon fill="white" stroke="#666666" points="813.05,-360 667.05,-360 667.05,-341 813.05,-341 813.05,-360"/>
<text text-anchor="middle" x="740.05" y="-348" font-family="Helvetica,sans-Serif" font-size="10.00">JSystem/JUtility/JUTAssert.h</text>
</a>
</g>
</g>
<!-- Node1&#45;&gt;Node10 -->
<g id="edge10" class="edge">
<title>Node1&#45;&gt;Node10</title>
<path fill="none" stroke="#63b8ff" d="M875.42,-450.63C846.14,-429.19 791.27,-389.01 761.16,-366.96"/>
<polygon fill="#63b8ff" stroke="#63b8ff" points="763.33,-364.21 753.19,-361.12 759.19,-369.86 763.33,-364.21"/>
</g>
<!-- Node11 -->
<g id="node11" class="node">
<title>Node11</title>
<g id="a_node11"><a xlink:href="os_8h.html" target="_top" xlink:title=" ">
<polygon fill="white" stroke="#666666" points="774.05,-305 706.05,-305 706.05,-286 774.05,-286 774.05,-305"/>
<text text-anchor="middle" x="740.05" y="-293" font-family="Helvetica,sans-Serif" font-size="10.00">dolphin/os.h</text>
</a>
</g>
</g>
<!-- Node1&#45;&gt;Node11 -->
<g id="edge74" class="edge">
<title>Node1&#45;&gt;Node11</title>
<path fill="none" stroke="#63b8ff" d="M889.65,-450.7C879.62,-425.76 856.01,-373.8 822.05,-341 808.51,-327.93 790.37,-317.55 774.6,-310.12"/>
<polygon fill="#63b8ff" stroke="#63b8ff" points="776.08,-306.95 765.52,-306.07 773.22,-313.34 776.08,-306.95"/>
</g>
<!-- Node32 -->
<g id="node32" class="node">
<title>Node32</title>
<g id="a_node32"><a xlink:href="JUTException_8h.html" target="_top" xlink:title=" ">
<polygon fill="white" stroke="#666666" points="1973.55,-415 1814.55,-415 1814.55,-396 1973.55,-396 1973.55,-415"/>
<text text-anchor="middle" x="1894.05" y="-403" font-family="Helvetica,sans-Serif" font-size="10.00">JSystem/JUtility/JUTException.h</text>
</a>
</g>
</g>
<!-- Node1&#45;&gt;Node32 -->
<g id="edge55" class="edge">
<title>Node1&#45;&gt;Node32</title>
<path fill="none" stroke="#63b8ff" d="M949.83,-461.79C1113.44,-452.21 1599.78,-423.73 1803.11,-411.83"/>
<polygon fill="#63b8ff" stroke="#63b8ff" points="1803.04,-415.34 1812.82,-411.26 1802.63,-408.35 1803.04,-415.34"/>
</g>
<!-- Node3 -->
<g id="node3" class="node">
<title>Node3</title>
<g id="a_node3"><a xlink:href="JKRDisposer_8h.html" target="_top" xlink:title=" ">
<polygon fill="white" stroke="#666666" points="1809.05,-184 1651.05,-184 1651.05,-165 1809.05,-165 1809.05,-184"/>
<text text-anchor="middle" x="1730.05" y="-172" font-family="Helvetica,sans-Serif" font-size="10.00">JSystem/JKernel/JKRDisposer.h</text>
</a>
</g>
</g>
<!-- Node2&#45;&gt;Node3 -->
<g id="edge2" class="edge">
<title>Node2&#45;&gt;Node3</title>
<path fill="none" stroke="#63b8ff" d="M1548.78,-294.34C1628.76,-292.45 1750.77,-283.9 1780.05,-250 1796.31,-231.17 1772.82,-206.84 1752.85,-191.2"/>
<polygon fill="#63b8ff" stroke="#63b8ff" points="1755.13,-188.53 1745.02,-185.38 1750.96,-194.15 1755.13,-188.53"/>
</g>
<!-- Node7 -->
<g id="node7" class="node">
<title>Node7</title>
<g id="a_node7"><a xlink:href="OSMutex_8h.html" target="_top" xlink:title=" ">
<polygon fill="white" stroke="#666666" points="1469.05,-244.5 1357.05,-244.5 1357.05,-225.5 1469.05,-225.5 1469.05,-244.5"/>
<text text-anchor="middle" x="1413.05" y="-232.5" font-family="Helvetica,sans-Serif" font-size="10.00">dolphin/os/OSMutex.h</text>
</a>
</g>
</g>
<!-- Node2&#45;&gt;Node7 -->
<g id="edge6" class="edge">
<title>Node2&#45;&gt;Node7</title>
<path fill="none" stroke="#63b8ff" d="M1467.33,-285.62C1457.74,-276.85 1442.86,-263.25 1431.1,-252.5"/>
<polygon fill="#63b8ff" stroke="#63b8ff" points="1433.72,-250.15 1423.98,-245.99 1429,-255.32 1433.72,-250.15"/>
</g>
<!-- Node4 -->
<g id="node4" class="node">
<title>Node4</title>
<g id="a_node4"><a xlink:href="JSUList_8h.html" target="_top" xlink:title=" ">
<polygon fill="white" stroke="#666666" points="1798.55,-129 1655.55,-129 1655.55,-110 1798.55,-110 1798.55,-129"/>
<text text-anchor="middle" x="1727.05" y="-117" font-family="Helvetica,sans-Serif" font-size="10.00">JSystem/JSupport/JSUList.h</text>
</a>
</g>
</g>
<!-- Node3&#45;&gt;Node4 -->
<g id="edge3" class="edge">
<title>Node3&#45;&gt;Node4</title>
<path fill="none" stroke="#63b8ff" d="M1729.55,-164.75C1729.19,-158.27 1728.67,-149.16 1728.2,-140.9"/>
<polygon fill="#63b8ff" stroke="#63b8ff" points="1731.7,-140.74 1727.64,-130.95 1724.71,-141.13 1731.7,-140.74"/>
</g>
<!-- Node5 -->
<g id="node5" class="node">
<title>Node5</title>
<g id="a_node5"><a xlink:href="types_8h.html" target="_top" xlink:title=" ">
<polygon fill="white" stroke="#666666" points="987.55,-74 906.55,-74 906.55,-55 987.55,-55 987.55,-74"/>
<text text-anchor="middle" x="947.05" y="-62" font-family="Helvetica,sans-Serif" font-size="10.00">dolphin/types.h</text>
</a>
</g>
</g>
<!-- Node4&#45;&gt;Node5 -->
<g id="edge4" class="edge">
<title>Node4&#45;&gt;Node5</title>
<path fill="none" stroke="#63b8ff" d="M1655.34,-111.53C1649.16,-110.99 1643,-110.47 1637.05,-110 1399.02,-91.09 1114.3,-74.7 999.16,-68.33"/>
<polygon fill="#63b8ff" stroke="#63b8ff" points="999.6,-64.85 989.42,-67.79 999.21,-71.84 999.6,-64.85"/>
</g>
<!-- Node6 -->
<g id="node6" class="node">
<title>Node6</title>
<g id="a_node6"><a xlink:href="stddef_8h.html" target="_top" xlink:title=" ">
<polygon fill="white" stroke="#666666" points="972.55,-19 921.55,-19 921.55,0 972.55,0 972.55,-19"/>
<text text-anchor="middle" x="947.05" y="-7" font-family="Helvetica,sans-Serif" font-size="10.00">stddef.h</text>
</a>
</g>
</g>
<!-- Node5&#45;&gt;Node6 -->
<g id="edge5" class="edge">
<title>Node5&#45;&gt;Node6</title>
<path fill="none" stroke="#63b8ff" d="M947.05,-54.75C947.05,-48.27 947.05,-39.16 947.05,-30.9"/>
<polygon fill="#63b8ff" stroke="#63b8ff" points="950.55,-30.96 947.05,-20.96 943.55,-30.96 950.55,-30.96"/>
</g>
<!-- Node8 -->
<g id="node8" class="node">
<title>Node8</title>
<g id="a_node8"><a xlink:href="OSThread_8h.html" target="_top" xlink:title=" ">
<polygon fill="white" stroke="#666666" points="1393.05,-184 1277.05,-184 1277.05,-165 1393.05,-165 1393.05,-184"/>
<text text-anchor="middle" x="1335.05" y="-172" font-family="Helvetica,sans-Serif" font-size="10.00">dolphin/os/OSThread.h</text>
</a>
</g>
</g>
<!-- Node7&#45;&gt;Node8 -->
<g id="edge7" class="edge">
<title>Node7&#45;&gt;Node8</title>
<path fill="none" stroke="#63b8ff" d="M1401.2,-225.12C1389.29,-216.18 1370.67,-202.22 1356.22,-191.37"/>
<polygon fill="#63b8ff" stroke="#63b8ff" points="1358.32,-188.58 1348.22,-185.38 1354.12,-194.18 1358.32,-188.58"/>
</g>
<!-- Node9 -->
<g id="node9" class="node">
<title>Node9</title>
<g id="a_node9"><a xlink:href="OSContext_8h.html" target="_top" xlink:title=" ">
<polygon fill="white" stroke="#666666" points="1113.55,-129 994.55,-129 994.55,-110 1113.55,-110 1113.55,-129"/>
<text text-anchor="middle" x="1054.05" y="-117" font-family="Helvetica,sans-Serif" font-size="10.00">dolphin/os/OSContext.h</text>
</a>
</g>
</g>
<!-- Node8&#45;&gt;Node9 -->
<g id="edge8" class="edge">
<title>Node8&#45;&gt;Node9</title>
<path fill="none" stroke="#63b8ff" d="M1287.38,-164.51C1239.1,-155.4 1164.33,-141.3 1112.5,-131.52"/>
<polygon fill="#63b8ff" stroke="#63b8ff" points="1113.44,-128.14 1102.97,-129.73 1112.15,-135.02 1113.44,-128.14"/>
</g>
<!-- Node9&#45;&gt;Node5 -->
<g id="edge9" class="edge">
<title>Node9&#45;&gt;Node5</title>
<path fill="none" stroke="#63b8ff" d="M1035.9,-109.51C1019.27,-101.27 994.41,-88.96 975.2,-79.45"/>
<polygon fill="#63b8ff" stroke="#63b8ff" points="976.8,-76.33 966.29,-75.03 973.7,-82.6 976.8,-76.33"/>
</g>
<!-- Node10&#45;&gt;Node5 -->
<g id="edge11" class="edge">
<title>Node10&#45;&gt;Node5</title>
<path fill="none" stroke="#63b8ff" d="M666.83,-345.87C480.15,-335.65 1.05,-302.89 1.05,-236 1.05,-236 1.05,-236 1.05,-173.5 1.05,-144.04 -3.15,-128.15 20.05,-110 54.68,-82.9 704.35,-69.66 894.92,-66.35"/>
<polygon fill="#63b8ff" stroke="#63b8ff" points="894.83,-69.85 904.77,-66.18 894.71,-62.85 894.83,-69.85"/>
</g>
<!-- Node10&#45;&gt;Node11 -->
<g id="edge12" class="edge">
<title>Node10&#45;&gt;Node11</title>
<path fill="none" stroke="#63b8ff" d="M740.05,-340.75C740.05,-334.27 740.05,-325.16 740.05,-316.9"/>
<polygon fill="#63b8ff" stroke="#63b8ff" points="743.55,-316.96 740.05,-306.96 736.55,-316.96 743.55,-316.96"/>
</g>
<!-- Node11&#45;&gt;Node7 -->
<g id="edge43" class="edge">
<title>Node11&#45;&gt;Node7</title>
<path fill="none" stroke="#63b8ff" d="M774.51,-293.66C867.51,-291.01 1131.19,-281.14 1348.05,-250 1353.41,-249.23 1358.99,-248.27 1364.52,-247.22"/>
<polygon fill="#63b8ff" stroke="#63b8ff" points="1365.15,-250.67 1374.26,-245.26 1363.77,-243.8 1365.15,-250.67"/>
</g>
<!-- Node11&#45;&gt;Node8 -->
<g id="edge53" class="edge">
<title>Node11&#45;&gt;Node8</title>
<path fill="none" stroke="#63b8ff" d="M774.45,-293.45C864.68,-290.3 1106.29,-279.31 1180.05,-250 1200.37,-241.92 1199.98,-230.69 1219.05,-220 1242.82,-206.67 1271.38,-195.66 1294.21,-187.93"/>
<polygon fill="#63b8ff" stroke="#63b8ff" points="1295.07,-191.33 1303.47,-184.87 1292.88,-184.68 1295.07,-191.33"/>
</g>
<!-- Node11&#45;&gt;Node9 -->
<g id="edge29" class="edge">
<title>Node11&#45;&gt;Node9</title>
<path fill="none" stroke="#63b8ff" d="M742.6,-285.86C747.29,-271.06 758.46,-240.49 776.05,-220 804.15,-187.26 816.51,-182.27 856.05,-165 896.31,-147.42 944.33,-136.41 982.99,-129.74"/>
<polygon fill="#63b8ff" stroke="#63b8ff" points="983.36,-133.22 992.66,-128.13 982.22,-126.32 983.36,-133.22"/>
</g>
<!-- Node12 -->
<g id="node12" class="node">
<title>Node12</title>
<g id="a_node12"><a xlink:href="____va__arg_8h.html" target="_top" xlink:title=" ">
<polygon fill="white" stroke="#666666" points="1771.05,-244.5 1707.05,-244.5 1707.05,-225.5 1771.05,-225.5 1771.05,-244.5"/>
<text text-anchor="middle" x="1739.05" y="-232.5" font-family="Helvetica,sans-Serif" font-size="10.00">__va_arg.h</text>
</a>
</g>
</g>
<!-- Node11&#45;&gt;Node12 -->
<g id="edge13" class="edge">
<title>Node11&#45;&gt;Node12</title>
<path fill="none" stroke="#63b8ff" d="M774.23,-294.27C894.98,-293.16 1312.69,-286.73 1655.05,-250 1668.35,-248.57 1682.75,-246.41 1695.8,-244.2"/>
<polygon fill="#63b8ff" stroke="#63b8ff" points="1696.12,-247.7 1705.37,-242.53 1694.92,-240.8 1696.12,-247.7"/>
</g>
<!-- Node13 -->
<g id="node13" class="node">
<title>Node13</title>
<g id="a_node13"><a xlink:href="dvd_8h.html" target="_top" xlink:title=" ">
<polygon fill="white" stroke="#666666" points="824.05,-129 750.05,-129 750.05,-110 824.05,-110 824.05,-129"/>
<text text-anchor="middle" x="787.05" y="-117" font-family="Helvetica,sans-Serif" font-size="10.00">dolphin/dvd.h</text>
</a>
</g>
</g>
<!-- Node11&#45;&gt;Node13 -->
<g id="edge15" class="edge">
<title>Node11&#45;&gt;Node13</title>
<path fill="none" stroke="#63b8ff" d="M705.59,-291.99C653.53,-287.41 558.69,-275.68 538.05,-250 529.7,-239.61 536.28,-233.22 538.05,-220 541.41,-194.89 534.45,-182.2 553.05,-165 554.76,-163.42 670.46,-141.93 738.5,-129.4"/>
<polygon fill="#63b8ff" stroke="#63b8ff" points="739.11,-132.85 748.32,-127.6 737.85,-125.97 739.11,-132.85"/>
</g>
<!-- Node14 -->
<g id="node14" class="node">
<title>Node14</title>
<g id="a_node14"><a xlink:href="OSAlarm_8h.html" target="_top" xlink:title=" ">
<polygon fill="white" stroke="#666666" points="1338.55,-244.5 1227.55,-244.5 1227.55,-225.5 1338.55,-225.5 1338.55,-244.5"/>
<text text-anchor="middle" x="1283.05" y="-232.5" font-family="Helvetica,sans-Serif" font-size="10.00">dolphin/os/OSAlarm.h</text>
</a>
</g>
</g>
<!-- Node11&#45;&gt;Node14 -->
<g id="edge17" class="edge">
<title>Node11&#45;&gt;Node14</title>
<path fill="none" stroke="#63b8ff" d="M774.33,-292.5C852.45,-287.67 1049.63,-273.96 1213.05,-250 1218.95,-249.13 1225.11,-248.1 1231.21,-246.99"/>
<polygon fill="#63b8ff" stroke="#63b8ff" points="1231.43,-250.51 1240.6,-245.21 1230.12,-243.63 1231.43,-250.51"/>
</g>
<!-- Node15 -->
<g id="node15" class="node">
<title>Node15</title>
<g id="a_node15"><a xlink:href="OSError_8h.html" target="_top" xlink:title=" ">
<polygon fill="white" stroke="#666666" points="971.05,-184 865.05,-184 865.05,-165 971.05,-165 971.05,-184"/>
<text text-anchor="middle" x="918.05" y="-172" font-family="Helvetica,sans-Serif" font-size="10.00">dolphin/os/OSError.h</text>
</a>
</g>
</g>
<!-- Node11&#45;&gt;Node15 -->
<g id="edge30" class="edge">
<title>Node11&#45;&gt;Node15</title>
<path fill="none" stroke="#63b8ff" d="M747.32,-285.65C760.11,-270.54 788.03,-239.51 817.05,-220 836.55,-206.89 860.54,-196.13 880.24,-188.48"/>
<polygon fill="#63b8ff" stroke="#63b8ff" points="881.44,-191.77 889.57,-184.97 878.98,-185.21 881.44,-191.77"/>
</g>
<!-- Node16 -->
<g id="node16" class="node">
<title>Node16</title>
<g id="a_node16"><a xlink:href="OSTime_8h.html" target="_top" xlink:title=" ">
<polygon fill="white" stroke="#666666" points="1594.55,-184 1487.55,-184 1487.55,-165 1594.55,-165 1594.55,-184"/>
<text text-anchor="middle" x="1541.05" y="-172" font-family="Helvetica,sans-Serif" font-size="10.00">dolphin/os/OSTime.h</text>
</a>
</g>
</g>
<!-- Node11&#45;&gt;Node16 -->
<g id="edge54" class="edge">
<title>Node11&#45;&gt;Node16</title>
<path fill="none" stroke="#63b8ff" d="M774.41,-294.08C933.53,-291.94 1592.34,-281.25 1622.05,-250 1631.24,-240.34 1628.84,-231.48 1622.05,-220 1613.64,-205.78 1598.88,-195.79 1584.25,-188.94"/>
<polygon fill="#63b8ff" stroke="#63b8ff" points="1585.68,-185.75 1575.1,-185.08 1582.95,-192.2 1585.68,-185.75"/>
</g>
<!-- Node17 -->
<g id="node17" class="node">
<title>Node17</title>
<g id="a_node17"><a xlink:href="OSAlloc_8h.html" target="_top" xlink:title=" ">
<polygon fill="white" stroke="#666666" points="669.55,-184 562.55,-184 562.55,-165 669.55,-165 669.55,-184"/>
<text text-anchor="middle" x="616.05" y="-172" font-family="Helvetica,sans-Serif" font-size="10.00">dolphin/os/OSAlloc.h</text>
</a>
</g>
</g>
<!-- Node11&#45;&gt;Node17 -->
<g id="edge22" class="edge">
<title>Node11&#45;&gt;Node17</title>
<path fill="none" stroke="#63b8ff" d="M731.07,-285.75C716.74,-271.8 687.78,-243.67 663.05,-220 653.41,-210.77 642.6,-200.53 633.78,-192.2"/>
<polygon fill="#63b8ff" stroke="#63b8ff" points="636.22,-189.69 626.54,-185.37 631.41,-194.78 636.22,-189.69"/>
</g>
<!-- Node18 -->
<g id="node18" class="node">
<title>Node18</title>
<g id="a_node18"><a xlink:href="OSArena_8h.html" target="_top" xlink:title=" ">
<polygon fill="white" stroke="#666666" points="798.55,-184 687.55,-184 687.55,-165 798.55,-165 798.55,-184"/>
<text text-anchor="middle" x="743.05" y="-172" font-family="Helvetica,sans-Serif" font-size="10.00">dolphin/os/OSArena.h</text>
</a>
</g>
</g>
<!-- Node11&#45;&gt;Node18 -->
<g id="edge24" class="edge">
<title>Node11&#45;&gt;Node18</title>
<path fill="none" stroke="#63b8ff" d="M740.28,-285.56C740.75,-266.6 741.88,-221.97 742.54,-195.73"/>
<polygon fill="#63b8ff" stroke="#63b8ff" points="746.04,-195.82 742.79,-185.74 739.04,-195.65 746.04,-195.82"/>
</g>
<!-- Node19 -->
<g id="node19" class="node">
<title>Node19</title>
<g id="a_node19"><a xlink:href="OSAudioSystem_8h.html" target="_top" xlink:title=" ">
<polygon fill="white" stroke="#666666" points="968.55,-244.5 825.55,-244.5 825.55,-225.5 968.55,-225.5 968.55,-244.5"/>
<text text-anchor="middle" x="897.05" y="-232.5" font-family="Helvetica,sans-Serif" font-size="10.00">dolphin/os/OSAudioSystem.h</text>
</a>
</g>
</g>
<!-- Node11&#45;&gt;Node19 -->
<g id="edge26" class="edge">
<title>Node11&#45;&gt;Node19</title>
<path fill="none" stroke="#63b8ff" d="M763.89,-285.62C790.06,-275.87 832.31,-260.12 862.19,-248.99"/>
<polygon fill="#63b8ff" stroke="#63b8ff" points="863.41,-252.27 871.56,-245.5 860.97,-245.71 863.41,-252.27"/>
</g>
<!-- Node20 -->
<g id="node20" class="node">
<title>Node20</title>
<g id="a_node20"><a xlink:href="OSCache_8h.html" target="_top" xlink:title=" ">
<polygon fill="white" stroke="#666666" points="1102.55,-184 989.55,-184 989.55,-165 1102.55,-165 1102.55,-184"/>
<text text-anchor="middle" x="1046.05" y="-172" font-family="Helvetica,sans-Serif" font-size="10.00">dolphin/os/OSCache.h</text>
</a>
</g>
</g>
<!-- Node11&#45;&gt;Node20 -->
<g id="edge27" class="edge">
<title>Node11&#45;&gt;Node20</title>
<path fill="none" stroke="#63b8ff" d="M774.25,-294.77C822.64,-293.73 912.49,-286.49 978.05,-250 1002.25,-236.53 1022.51,-211.26 1034.45,-193.92"/>
<polygon fill="#63b8ff" stroke="#63b8ff" points="1037.36,-195.86 1039.94,-185.59 1031.52,-192.01 1037.36,-195.86"/>
</g>
<!-- Node21 -->
<g id="node21" class="node">
<title>Node21</title>
<g id="a_node21"><a xlink:href="OSExec_8h.html" target="_top" xlink:title=" ">
<polygon fill="white" stroke="#666666" points="1170.55,-244.5 1063.55,-244.5 1063.55,-225.5 1170.55,-225.5 1170.55,-244.5"/>
<text text-anchor="middle" x="1117.05" y="-232.5" font-family="Helvetica,sans-Serif" font-size="10.00">dolphin/os/OSExec.h</text>
</a>
</g>
</g>
<!-- Node11&#45;&gt;Node21 -->
<g id="edge31" class="edge">
<title>Node11&#45;&gt;Node21</title>
<path fill="none" stroke="#63b8ff" d="M774.45,-290.23C831.62,-282.98 949.74,-267.36 1049.05,-250 1053.99,-249.14 1059.12,-248.18 1064.26,-247.19"/>
<polygon fill="#63b8ff" stroke="#63b8ff" points="1064.79,-250.65 1073.92,-245.28 1063.44,-243.79 1064.79,-250.65"/>
</g>
<!-- Node22 -->
<g id="node22" class="node">
<title>Node22</title>
<g id="a_node22"><a xlink:href="OSFont_8h.html" target="_top" xlink:title=" ">
<polygon fill="white" stroke="#666666" points="134.55,-129 29.55,-129 29.55,-110 134.55,-110 134.55,-129"/>
<text text-anchor="middle" x="82.05" y="-117" font-family="Helvetica,sans-Serif" font-size="10.00">dolphin/os/OSFont.h</text>
</a>
</g>
</g>
<!-- Node11&#45;&gt;Node22 -->
<g id="edge33" class="edge">
<title>Node11&#45;&gt;Node22</title>
<path fill="none" stroke="#63b8ff" d="M705.79,-294.78C577.46,-295.47 130.39,-294.63 87.05,-250 58.79,-220.89 67.86,-168.54 75.69,-140.13"/>
<polygon fill="#63b8ff" stroke="#63b8ff" points="79,-141.28 78.53,-130.69 72.3,-139.26 79,-141.28"/>
</g>
<!-- Node23 -->
<g id="node23" class="node">
<title>Node23</title>
<g id="a_node23"><a xlink:href="OSInterrupt_8h.html" target="_top" xlink:title=" ">
<polygon fill="white" stroke="#666666" points="224.05,-184 102.05,-184 102.05,-165 224.05,-165 224.05,-184"/>
<text text-anchor="middle" x="163.05" y="-172" font-family="Helvetica,sans-Serif" font-size="10.00">dolphin/os/OSInterrupt.h</text>
</a>
</g>
</g>
<!-- Node11&#45;&gt;Node23 -->
<g id="edge35" class="edge">
<title>Node11&#45;&gt;Node23</title>
<path fill="none" stroke="#63b8ff" d="M705.77,-294.79C578.44,-295.53 137.87,-294.81 96.05,-250 86.95,-240.25 89.75,-231.75 96.05,-220 103.18,-206.7 116.24,-196.69 128.94,-189.58"/>
<polygon fill="#63b8ff" stroke="#63b8ff" points="130.27,-192.83 137.59,-185.17 127.09,-186.59 130.27,-192.83"/>
</g>
<!-- Node24 -->
<g id="node24" class="node">
<title>Node24</title>
<g id="a_node24"><a xlink:href="OSLink_8h.html" target="_top" xlink:title=" ">
<polygon fill="white" stroke="#666666" points="295.05,-129 191.05,-129 191.05,-110 295.05,-110 295.05,-129"/>
<text text-anchor="middle" x="243.05" y="-117" font-family="Helvetica,sans-Serif" font-size="10.00">dolphin/os/OSLink.h</text>
</a>
</g>
</g>
<!-- Node11&#45;&gt;Node24 -->
<g id="edge37" class="edge">
<title>Node11&#45;&gt;Node24</title>
<path fill="none" stroke="#63b8ff" d="M705.7,-294.37C619.21,-293.48 394.82,-287.51 332.05,-250 289.24,-224.42 262.19,-169.33 250.22,-139.93"/>
<polygon fill="#63b8ff" stroke="#63b8ff" points="253.55,-138.85 246.67,-130.79 247.03,-141.38 253.55,-138.85"/>
</g>
<!-- Node25 -->
<g id="node25" class="node">
<title>Node25</title>
<g id="a_node25"><a xlink:href="OSMemory_8h.html" target="_top" xlink:title=" ">
<polygon fill="white" stroke="#666666" points="225.05,-244.5 105.05,-244.5 105.05,-225.5 225.05,-225.5 225.05,-244.5"/>
<text text-anchor="middle" x="165.05" y="-232.5" font-family="Helvetica,sans-Serif" font-size="10.00">dolphin/os/OSMemory.h</text>
</a>
</g>
</g>
<!-- Node11&#45;&gt;Node25 -->
<g id="edge39" class="edge">
<title>Node11&#45;&gt;Node25</title>
<path fill="none" stroke="#63b8ff" d="M705.6,-292.61C624.17,-287.89 413.55,-274.2 239.05,-250 232.66,-249.11 225.99,-248.05 219.37,-246.91"/>
<polygon fill="#63b8ff" stroke="#63b8ff" points="220.32,-243.52 209.86,-245.2 219.08,-250.41 220.32,-243.52"/>
</g>
<!-- Node26 -->
<g id="node26" class="node">
<title>Node26</title>
<g id="a_node26"><a xlink:href="OSMessage_8h.html" target="_top" xlink:title=" ">
<polygon fill="white" stroke="#666666" points="1612.55,-244.5 1487.55,-244.5 1487.55,-225.5 1612.55,-225.5 1612.55,-244.5"/>
<text text-anchor="middle" x="1550.05" y="-232.5" font-family="Helvetica,sans-Serif" font-size="10.00">dolphin/os/OSMessage.h</text>
</a>
</g>
</g>
<!-- Node11&#45;&gt;Node26 -->
<g id="edge41" class="edge">
<title>Node11&#45;&gt;Node26</title>
<path fill="none" stroke="#63b8ff" d="M774.41,-294.04C879.91,-292.27 1208.41,-284.19 1478.05,-250 1484.52,-249.18 1491.29,-248.13 1497.98,-246.97"/>
<polygon fill="#63b8ff" stroke="#63b8ff" points="1498.38,-250.45 1507.59,-245.21 1497.12,-243.56 1498.38,-250.45"/>
</g>
<!-- Node27 -->
<g id="node27" class="node">
<title>Node27</title>
<g id="a_node27"><a xlink:href="OSReboot_8h.html" target="_top" xlink:title=" ">
<polygon fill="white" stroke="#666666" points="429.05,-129 313.05,-129 313.05,-110 429.05,-110 429.05,-129"/>
<text text-anchor="middle" x="371.05" y="-117" font-family="Helvetica,sans-Serif" font-size="10.00">dolphin/os/OSReboot.h</text>
</a>
</g>
</g>
<!-- Node11&#45;&gt;Node27 -->
<g id="edge44" class="edge">
<title>Node11&#45;&gt;Node27</title>
<path fill="none" stroke="#63b8ff" d="M705.76,-292.35C630.04,-287.24 450.87,-273.04 395.05,-250 350.51,-231.62 330.36,-227.21 309.05,-184 299.2,-164.02 320.25,-146.36 340.44,-134.76"/>
<polygon fill="#63b8ff" stroke="#63b8ff" points="341.93,-137.93 349.11,-130.14 338.64,-131.76 341.93,-137.93"/>
</g>
<!-- Node28 -->
<g id="node28" class="node">
<title>Node28</title>
<g id="a_node28"><a xlink:href="OSReset_8h.html" target="_top" xlink:title=" ">
<polygon fill="white" stroke="#666666" points="429.55,-184 318.55,-184 318.55,-165 429.55,-165 429.55,-184"/>
<text text-anchor="middle" x="374.05" y="-172" font-family="Helvetica,sans-Serif" font-size="10.00">dolphin/os/OSReset.h</text>
</a>
</g>
</g>
<!-- Node11&#45;&gt;Node28 -->
<g id="edge46" class="edge">
<title>Node11&#45;&gt;Node28</title>
<path fill="none" stroke="#63b8ff" d="M705.73,-292.9C634.88,-289.08 475.23,-277.59 429.05,-250 407.43,-237.08 391.67,-212.07 382.7,-194.61"/>
<polygon fill="#63b8ff" stroke="#63b8ff" points="385.94,-193.28 378.45,-185.79 379.64,-196.32 385.94,-193.28"/>
</g>
<!-- Node29 -->
<g id="node29" class="node">
<title>Node29</title>
<g id="a_node29"><a xlink:href="OSResetSW_8h.html" target="_top" xlink:title=" ">
<polygon fill="white" stroke="#666666" points="612.55,-129 485.55,-129 485.55,-110 612.55,-110 612.55,-129"/>
<text text-anchor="middle" x="549.05" y="-117" font-family="Helvetica,sans-Serif" font-size="10.00">dolphin/os/OSResetSW.h</text>
</a>
</g>
</g>
<!-- Node11&#45;&gt;Node29 -->
<g id="edge48" class="edge">
<title>Node11&#45;&gt;Node29</title>
<path fill="none" stroke="#63b8ff" d="M705.61,-292.61C650.12,-288.77 544.83,-277.9 522.05,-250 495.63,-217.65 520.38,-165.91 536.92,-138.65"/>
<polygon fill="#63b8ff" stroke="#63b8ff" points="539.71,-140.79 542.13,-130.47 533.8,-137.03 539.71,-140.79"/>
</g>
<!-- Node30 -->
<g id="node30" class="node">
<title>Node30</title>
<g id="a_node30"><a xlink:href="OSRtc_8h.html" target="_top" xlink:title=" ">
<polygon fill="white" stroke="#666666" points="731.55,-129 630.55,-129 630.55,-110 731.55,-110 731.55,-129"/>
<text text-anchor="middle" x="681.05" y="-117" font-family="Helvetica,sans-Serif" font-size="10.00">dolphin/os/OSRtc.h</text>
</a>
</g>
</g>
<!-- Node11&#45;&gt;Node30 -->
<g id="edge50" class="edge">
<title>Node11&#45;&gt;Node30</title>
<path fill="none" stroke="#63b8ff" d="M705.56,-292.31C651.76,-288.1 551.75,-276.78 530.05,-250 519.78,-237.32 529.08,-174.48 537.05,-165 548.4,-151.49 587.78,-139.86 622.49,-131.88"/>
<polygon fill="#63b8ff" stroke="#63b8ff" points="623.07,-135.34 632.08,-129.75 621.55,-128.5 623.07,-135.34"/>
</g>
<!-- Node31 -->
<g id="node31" class="node">
<title>Node31</title>
<g id="a_node31"><a xlink:href="OSSync_8h.html" target="_top" xlink:title=" ">
<polygon fill="white" stroke="#666666" points="654.55,-244.5 547.55,-244.5 547.55,-225.5 654.55,-225.5 654.55,-244.5"/>
<text text-anchor="middle" x="601.05" y="-232.5" font-family="Helvetica,sans-Serif" font-size="10.00">dolphin/os/OSSync.h</text>
</a>
</g>
</g>
<!-- Node11&#45;&gt;Node31 -->
<g id="edge52" class="edge">
<title>Node11&#45;&gt;Node31</title>
<path fill="none" stroke="#63b8ff" d="M718.94,-285.62C696.08,-275.99 659.35,-260.54 632.97,-249.43"/>
<polygon fill="#63b8ff" stroke="#63b8ff" points="634.33,-246.21 623.75,-245.56 631.61,-252.66 634.33,-246.21"/>
</g>
<!-- Node12&#45;&gt;Node5 -->
<g id="edge14" class="edge">
<title>Node12&#45;&gt;Node5</title>
<path fill="none" stroke="#63b8ff" d="M1721.88,-225.13C1686.21,-206.73 1607.15,-166.01 1604.05,-165 1386.62,-94.13 1111.97,-73.36 999.1,-67.59"/>
<polygon fill="#63b8ff" stroke="#63b8ff" points="999.4,-64.1 989.24,-67.1 999.06,-71.09 999.4,-64.1"/>
</g>
<!-- Node13&#45;&gt;Node5 -->
<g id="edge16" class="edge">
<title>Node13&#45;&gt;Node5</title>
<path fill="none" stroke="#63b8ff" d="M814.19,-109.51C840.36,-100.84 880.19,-87.65 909.41,-77.97"/>
<polygon fill="#63b8ff" stroke="#63b8ff" points="910.21,-81.39 918.61,-74.92 908.01,-74.74 910.21,-81.39"/>
</g>
<!-- Node14&#45;&gt;Node15 -->
<g id="edge18" class="edge">
<title>Node14&#45;&gt;Node15</title>
<path fill="none" stroke="#63b8ff" d="M1227.22,-225.05C1161.39,-214.5 1052.16,-196.99 982.71,-185.86"/>
<polygon fill="#63b8ff" stroke="#63b8ff" points="983.42,-182.43 972.99,-184.31 982.31,-189.34 983.42,-182.43"/>
</g>
<!-- Node14&#45;&gt;Node16 -->
<g id="edge20" class="edge">
<title>Node14&#45;&gt;Node16</title>
<path fill="none" stroke="#63b8ff" d="M1322.52,-225.05C1367.56,-214.84 1441.36,-198.1 1490.56,-186.95"/>
<polygon fill="#63b8ff" stroke="#63b8ff" points="1491.13,-190.41 1500.11,-184.78 1489.59,-183.58 1491.13,-190.41"/>
</g>
<!-- Node15&#45;&gt;Node5 -->
<g id="edge19" class="edge">
<title>Node15&#45;&gt;Node5</title>
<path fill="none" stroke="#63b8ff" d="M920.42,-164.66C925.05,-147.42 935.4,-108.9 941.74,-85.27"/>
<polygon fill="#63b8ff" stroke="#63b8ff" points="945.04,-86.49 944.25,-75.92 938.28,-84.67 945.04,-86.49"/>
</g>
<!-- Node16&#45;&gt;Node5 -->
<g id="edge21" class="edge">
<title>Node16&#45;&gt;Node5</title>
<path fill="none" stroke="#63b8ff" d="M1491.68,-164.52C1380.66,-144.34 1112.16,-95.52 998.86,-74.92"/>
<polygon fill="#63b8ff" stroke="#63b8ff" points="999.7,-71.52 989.24,-73.17 998.45,-78.4 999.7,-71.52"/>
</g>
<!-- Node17&#45;&gt;Node5 -->
<g id="edge23" class="edge">
<title>Node17&#45;&gt;Node5</title>
<path fill="none" stroke="#63b8ff" d="M669.55,-164.55C723.78,-155.11 803.74,-140.11 833.05,-129 848.87,-123 851.3,-118.3 866.05,-110 884.29,-99.74 904.97,-88.38 920.87,-79.71"/>
<polygon fill="#63b8ff" stroke="#63b8ff" points="922.11,-83.02 929.22,-75.16 918.77,-76.87 922.11,-83.02"/>
</g>
<!-- Node18&#45;&gt;Node5 -->
<g id="edge25" class="edge">
<title>Node18&#45;&gt;Node5</title>
<path fill="none" stroke="#63b8ff" d="M776.65,-164.5C802.1,-156.95 837.45,-144.85 866.05,-129 889.83,-115.82 913.95,-95.88 929.61,-81.87"/>
<polygon fill="#63b8ff" stroke="#63b8ff" points="931.65,-84.75 936.67,-75.42 926.93,-79.58 931.65,-84.75"/>
</g>
<!-- Node20&#45;&gt;Node5 -->
<g id="edge28" class="edge">
<title>Node20&#45;&gt;Node5</title>
<path fill="none" stroke="#63b8ff" d="M1030.98,-164.63C1018.02,-156.5 999.37,-143.53 986.05,-129 973.76,-115.59 963.2,-97.75 956.18,-84.39"/>
<polygon fill="#63b8ff" stroke="#63b8ff" points="959.47,-83.13 951.84,-75.78 953.22,-86.28 959.47,-83.13"/>
</g>
<!-- Node21&#45;&gt;Node5 -->
<g id="edge32" class="edge">
<title>Node21&#45;&gt;Node5</title>
<path fill="none" stroke="#63b8ff" d="M1121.04,-225.02C1130.21,-202.83 1150.06,-144.69 1123.05,-110 1107.88,-90.51 1045.32,-78.21 999.08,-71.6"/>
<polygon fill="#63b8ff" stroke="#63b8ff" points="999.6,-68.13 989.22,-70.24 998.65,-75.07 999.6,-68.13"/>
</g>
<!-- Node22&#45;&gt;Node5 -->
<g id="edge34" class="edge">
<title>Node22&#45;&gt;Node5</title>
<path fill="none" stroke="#63b8ff" d="M135.04,-111.43C139.77,-110.9 144.5,-110.42 149.05,-110 429.78,-84.4 767.51,-71.41 894.97,-67.13"/>
<polygon fill="#63b8ff" stroke="#63b8ff" points="894.89,-70.64 904.77,-66.81 894.66,-63.64 894.89,-70.64"/>
</g>
<!-- Node23&#45;&gt;Node5 -->
<g id="edge36" class="edge">
<title>Node23&#45;&gt;Node5</title>
<path fill="none" stroke="#63b8ff" d="M162.77,-164.83C162.84,-150.78 165.26,-123.28 182.05,-110 237.72,-65.98 732.06,-64.43 895.13,-65.13"/>
<polygon fill="#63b8ff" stroke="#63b8ff" points="894.75,-68.63 904.77,-65.18 894.79,-61.63 894.75,-68.63"/>
</g>
<!-- Node24&#45;&gt;Node5 -->
<g id="edge38" class="edge">
<title>Node24&#45;&gt;Node5</title>
<path fill="none" stroke="#63b8ff" d="M295.26,-110.98C298.23,-110.63 301.18,-110.3 304.05,-110 523.11,-87.18 785.43,-73.15 894.98,-67.88"/>
<polygon fill="#63b8ff" stroke="#63b8ff" points="895.01,-71.38 904.83,-67.41 894.67,-64.39 895.01,-71.38"/>
</g>
<!-- Node25&#45;&gt;Node23 -->
<g id="edge40" class="edge">
<title>Node25&#45;&gt;Node23</title>
<path fill="none" stroke="#63b8ff" d="M164.75,-225.37C164.49,-217.5 164.08,-205.6 163.73,-195.39"/>
<polygon fill="#63b8ff" stroke="#63b8ff" points="167.24,-195.55 163.4,-185.68 160.24,-195.79 167.24,-195.55"/>
</g>
<!-- Node26&#45;&gt;Node8 -->
<g id="edge42" class="edge">
<title>Node26&#45;&gt;Node8</title>
<path fill="none" stroke="#63b8ff" d="M1517.4,-225.12C1480.46,-215.06 1420.12,-198.65 1379.05,-187.47"/>
<polygon fill="#63b8ff" stroke="#63b8ff" points="1380.04,-184.11 1369.47,-184.87 1378.2,-190.87 1380.04,-184.11"/>
</g>
<!-- Node27&#45;&gt;Node5 -->
<g id="edge45" class="edge">
<title>Node27&#45;&gt;Node5</title>
<path fill="none" stroke="#63b8ff" d="M429.19,-111.49C433.88,-110.97 438.54,-110.46 443.05,-110 607.74,-93.01 803.14,-76.92 894.74,-69.61"/>
<polygon fill="#63b8ff" stroke="#63b8ff" points="894.98,-73.1 904.67,-68.82 894.43,-66.12 894.98,-73.1"/>
</g>
<!-- Node28&#45;&gt;Node5 -->
<g id="edge47" class="edge">
<title>Node28&#45;&gt;Node5</title>
<path fill="none" stroke="#63b8ff" d="M386.79,-164.53C409.69,-148.58 457.18,-116.37 476.05,-110 552.47,-84.21 788.82,-71.8 894.76,-67.42"/>
<polygon fill="#63b8ff" stroke="#63b8ff" points="894.74,-70.92 904.59,-67.02 894.46,-63.93 894.74,-70.92"/>
</g>
<!-- Node29&#45;&gt;Node5 -->
<g id="edge49" class="edge">
<title>Node29&#45;&gt;Node5</title>
<path fill="none" stroke="#63b8ff" d="M613,-109.98C691.32,-99.55 822.48,-82.09 894.96,-72.44"/>
<polygon fill="#63b8ff" stroke="#63b8ff" points="895.12,-75.95 904.57,-71.16 894.2,-69.01 895.12,-75.95"/>
</g>
<!-- Node30&#45;&gt;Node5 -->
<g id="edge51" class="edge">
<title>Node30&#45;&gt;Node5</title>
<path fill="none" stroke="#63b8ff" d="M726.17,-109.51C772.93,-100.19 845.91,-85.65 895.05,-75.86"/>
<polygon fill="#63b8ff" stroke="#63b8ff" points="895.47,-79.35 904.59,-73.96 894.1,-72.48 895.47,-79.35"/>
</g>
<!-- Node32&#45;&gt;Node5 -->
<g id="edge71" class="edge">
<title>Node32&#45;&gt;Node5</title>
<path fill="none" stroke="#63b8ff" d="M1973.96,-400.42C2043.1,-392.06 2132.05,-367.51 2132.05,-296.5 2132.05,-296.5 2132.05,-296.5 2132.05,-173.5 2132.05,-144.04 2136.34,-128.04 2113.05,-110 2068.48,-75.47 1219.51,-67.34 999.02,-65.81"/>
<polygon fill="#63b8ff" stroke="#63b8ff" points="999.33,-62.31 989.31,-65.75 999.28,-69.31 999.33,-62.31"/>
</g>
<!-- Node32&#45;&gt;Node12 -->
<g id="edge67" class="edge">
<title>Node32&#45;&gt;Node12</title>
<path fill="none" stroke="#63b8ff" d="M1886.15,-395.91C1861.8,-369.44 1787.56,-288.74 1754.83,-253.16"/>
<polygon fill="#63b8ff" stroke="#63b8ff" points="1757.49,-250.88 1748.14,-245.89 1752.34,-255.62 1757.49,-250.88"/>
</g>
<!-- Node32&#45;&gt;Node15 -->
<g id="edge70" class="edge">
<title>Node32&#45;&gt;Node15</title>
<path fill="none" stroke="#63b8ff" d="M1814.24,-398.72C1662.34,-385.79 1322.92,-347.63 1055.05,-250 1012.38,-234.45 966.81,-207.29 940.46,-190.42"/>
<polygon fill="#63b8ff" stroke="#63b8ff" points="942.6,-187.63 932.3,-185.11 938.78,-193.5 942.6,-187.63"/>
</g>
<!-- Node33 -->
<g id="node33" class="node">
<title>Node33</title>
<g id="a_node33"><a xlink:href="JKRThread_8h.html" target="_top" xlink:title=" ">
<polygon fill="white" stroke="#666666" points="1754.05,-360 1604.05,-360 1604.05,-341 1754.05,-341 1754.05,-360"/>
<text text-anchor="middle" x="1679.05" y="-348" font-family="Helvetica,sans-Serif" font-size="10.00">JSystem/JKernel/JKRThread.h</text>
</a>
</g>
</g>
<!-- Node32&#45;&gt;Node33 -->
<g id="edge56" class="edge">
<title>Node32&#45;&gt;Node33</title>
<path fill="none" stroke="#63b8ff" d="M1857.58,-395.51C1821.41,-386.59 1765.82,-372.89 1726.29,-363.15"/>
<polygon fill="#63b8ff" stroke="#63b8ff" points="1727.36,-359.8 1716.81,-360.81 1725.68,-366.6 1727.36,-359.8"/>
</g>
<!-- Node34 -->
<g id="node34" class="node">
<title>Node34</title>
<g id="a_node34"><a xlink:href="JUTGamePad_8h.html" target="_top" xlink:title=" ">
<polygon fill="white" stroke="#666666" points="2001.05,-250 1865.05,-250 1865.05,-220 2001.05,-220 2001.05,-250"/>
<text text-anchor="start" x="1873.05" y="-238" font-family="Helvetica,sans-Serif" font-size="10.00">JSystem/JUtility/JUTGame</text>
<text text-anchor="middle" x="1933.05" y="-227" font-family="Helvetica,sans-Serif" font-size="10.00">Pad.h</text>
</a>
</g>
</g>
<!-- Node32&#45;&gt;Node34 -->
<g id="edge61" class="edge">
<title>Node32&#45;&gt;Node34</title>
<path fill="none" stroke="#63b8ff" d="M1896.04,-395.91C1901.72,-371.35 1918.21,-300.1 1927.14,-261.53"/>
<polygon fill="#63b8ff" stroke="#63b8ff" points="1930.51,-262.48 1929.36,-251.95 1923.69,-260.9 1930.51,-262.48"/>
</g>
<!-- Node36 -->
<g id="node36" class="node">
<title>Node36</title>
<g id="a_node36"><a xlink:href="GXEnum_8h.html" target="_top" xlink:title=" ">
<polygon fill="white" stroke="#666666" points="2051.05,-305 1941.05,-305 1941.05,-286 2051.05,-286 2051.05,-305"/>
<text text-anchor="middle" x="1996.05" y="-293" font-family="Helvetica,sans-Serif" font-size="10.00">dolphin/gx/GXEnum.h</text>
</a>
</g>
</g>
<!-- Node32&#45;&gt;Node36 -->
<g id="edge68" class="edge">
<title>Node32&#45;&gt;Node36</title>
<path fill="none" stroke="#63b8ff" d="M1902.4,-395.66C1919.28,-377.78 1957.76,-337.05 1979.78,-313.73"/>
<polygon fill="#63b8ff" stroke="#63b8ff" points="1982.23,-316.23 1986.55,-306.56 1977.14,-311.43 1982.23,-316.23"/>
</g>
<!-- Node37 -->
<g id="node37" class="node">
<title>Node37</title>
<g id="a_node37"><a xlink:href="global_8h.html" target="_top" xlink:title=" ">
<polygon fill="white" stroke="#666666" points="2104.05,-129 2054.05,-129 2054.05,-110 2104.05,-110 2104.05,-129"/>
<text text-anchor="middle" x="2079.05" y="-117" font-family="Helvetica,sans-Serif" font-size="10.00">global.h</text>
</a>
</g>
</g>
<!-- Node32&#45;&gt;Node37 -->
<g id="edge72" class="edge">
<title>Node32&#45;&gt;Node37</title>
<path fill="none" stroke="#63b8ff" d="M1952.08,-395.54C2006.33,-383.49 2079.05,-356.19 2079.05,-296.5 2079.05,-296.5 2079.05,-296.5 2079.05,-234 2079.05,-201.39 2079.05,-163.5 2079.05,-140.79"/>
<polygon fill="#63b8ff" stroke="#63b8ff" points="2082.55,-140.84 2079.05,-130.84 2075.55,-140.84 2082.55,-140.84"/>
</g>
<!-- Node33&#45;&gt;Node2 -->
<g id="edge57" class="edge">
<title>Node33&#45;&gt;Node2</title>
<path fill="none" stroke="#63b8ff" d="M1644.78,-340.51C1611.02,-331.65 1559.24,-318.07 1522.15,-308.33"/>
<polygon fill="#63b8ff" stroke="#63b8ff" points="1523.17,-304.98 1512.61,-305.83 1521.4,-311.75 1523.17,-304.98"/>
</g>
<!-- Node33&#45;&gt;Node5 -->
<g id="edge60" class="edge">
<title>Node33&#45;&gt;Node5</title>
<path fill="none" stroke="#63b8ff" d="M1715.7,-340.59C1762.37,-326.8 1837.05,-295.44 1837.05,-236 1837.05,-236 1837.05,-236 1837.05,-173.5 1837.05,-142.47 1833.71,-127.44 1808.05,-110 1741.27,-64.61 1175.37,-64.12 999.19,-65.09"/>
<polygon fill="#63b8ff" stroke="#63b8ff" points="999.41,-61.59 989.43,-65.15 999.45,-68.59 999.41,-61.59"/>
</g>
<!-- Node33&#45;&gt;Node16 -->
<g id="edge59" class="edge">
<title>Node33&#45;&gt;Node16</title>
<path fill="none" stroke="#63b8ff" d="M1678.73,-340.77C1677.47,-318.06 1671.09,-256.38 1639.05,-220 1626.06,-205.25 1607.2,-195.11 1589.49,-188.28"/>
<polygon fill="#63b8ff" stroke="#63b8ff" points="1590.7,-184.99 1580.1,-184.95 1588.36,-191.59 1590.7,-184.99"/>
</g>
<!-- Node33&#45;&gt;Node26 -->
<g id="edge58" class="edge">
<title>Node33&#45;&gt;Node26</title>
<path fill="none" stroke="#63b8ff" d="M1668.93,-340.59C1647.26,-321.53 1596.13,-276.54 1568.51,-252.24"/>
<polygon fill="#63b8ff" stroke="#63b8ff" points="1571.08,-249.84 1561.26,-245.86 1566.46,-255.1 1571.08,-249.84"/>
</g>
<!-- Node34&#45;&gt;Node3 -->
<g id="edge62" class="edge">
<title>Node34&#45;&gt;Node3</title>
<path fill="none" stroke="#63b8ff" d="M1882.87,-219.54C1848.74,-209.7 1804.09,-196.84 1771.88,-187.56"/>
<polygon fill="#63b8ff" stroke="#63b8ff" points="1773.08,-184.26 1762.5,-184.85 1771.14,-190.98 1773.08,-184.26"/>
</g>
<!-- Node34&#45;&gt;Node5 -->
<g id="edge66" class="edge">
<title>Node34&#45;&gt;Node5</title>
<path fill="none" stroke="#63b8ff" d="M1928.46,-219.65C1918.96,-192.61 1894.33,-134.66 1851.05,-110 1777.11,-67.88 1181.04,-65.18 999.4,-65.34"/>
<polygon fill="#63b8ff" stroke="#63b8ff" points="999.55,-61.84 989.56,-65.36 999.56,-68.84 999.55,-61.84"/>
</g>
<!-- Node34&#45;&gt;Node16 -->
<g id="edge63" class="edge">
<title>Node34&#45;&gt;Node16</title>
<path fill="none" stroke="#63b8ff" d="M1864.77,-223.81C1792,-212.95 1677.62,-195.88 1606.11,-185.21"/>
<polygon fill="#63b8ff" stroke="#63b8ff" points="1606.91,-181.79 1596.51,-183.78 1605.88,-188.71 1606.91,-181.79"/>
</g>
<!-- Node35 -->
<g id="node35" class="node">
<title>Node35</title>
<g id="a_node35"><a xlink:href="pad_8h.html" target="_top" xlink:title=" ">
<polygon fill="white" stroke="#666666" points="1977.05,-129 1903.05,-129 1903.05,-110 1977.05,-110 1977.05,-129"/>
<text text-anchor="middle" x="1940.05" y="-117" font-family="Helvetica,sans-Serif" font-size="10.00">dolphin/pad.h</text>
</a>
</g>
</g>
<!-- Node34&#45;&gt;Node35 -->
<g id="edge64" class="edge">
<title>Node34&#45;&gt;Node35</title>
<path fill="none" stroke="#63b8ff" d="M1933.94,-219.63C1935.17,-199.59 1937.42,-163.17 1938.82,-140.49"/>
<polygon fill="#63b8ff" stroke="#63b8ff" points="1942.3,-140.94 1939.42,-130.74 1935.31,-140.51 1942.3,-140.94"/>
</g>
<!-- Node35&#45;&gt;Node5 -->
<g id="edge65" class="edge">
<title>Node35&#45;&gt;Node5</title>
<path fill="none" stroke="#63b8ff" d="M1902.8,-111.77C1898.18,-111.09 1893.51,-110.48 1889.05,-110 1551.37,-74.01 1142.49,-67.13 999.46,-65.81"/>
<polygon fill="#63b8ff" stroke="#63b8ff" points="999.58,-62.31 989.55,-65.73 999.52,-69.31 999.58,-62.31"/>
</g>
<!-- Node36&#45;&gt;Node5 -->
<g id="edge69" class="edge">
<title>Node36&#45;&gt;Node5</title>
<path fill="none" stroke="#63b8ff" d="M1999.65,-285.82C2003.11,-276.99 2008.08,-262.81 2010.05,-250 2019.63,-187.6 2034.36,-150.64 1986.05,-110 1947.97,-77.97 1204.87,-68.1 999.33,-65.98"/>
<polygon fill="#63b8ff" stroke="#63b8ff" points="999.53,-62.48 989.5,-65.88 999.46,-69.48 999.53,-62.48"/>
</g>
<!-- Node37&#45;&gt;Node5 -->
<g id="edge73" class="edge">
<title>Node37&#45;&gt;Node5</title>
<path fill="none" stroke="#63b8ff" d="M2053.57,-112.28C2049.09,-111.38 2044.45,-110.56 2040.05,-110 1834.9,-83.67 1187.6,-69.93 999.06,-66.42"/>
<polygon fill="#63b8ff" stroke="#63b8ff" points="999.4,-62.92 989.34,-66.24 999.27,-69.92 999.4,-62.92"/>
</g>
</g>
</svg>
        <g id="navigator" transform="translate(0 0)" fill="#404254">
                <rect fill="#f2f5e9" fill-opacity="0.5" stroke="#606060" stroke-width=".5" x="0" y="0" width="60" height="60"/>
                <use id="zoomplus" xlink:href="#zoomPlus" x="17" y="9" onmousedown="handleZoom(evt,'in')"/>
                <use id="zoomminus" xlink:href="#zoomMin" x="42" y="9" onmousedown="handleZoom(evt,'out')"/>
                <use id="reset" xlink:href="#resetDef" x="30" y="36" onmousedown="handleReset()"/>
                <g id="arrowUp" xlink:href="#dirArrow" transform="translate(30 24)" onmousedown="handlePan(0,-1)">
                  <use xlink:href="#rim" fill="#404040">
                        <set attributeName="fill" to="#808080" begin="arrowUp.mouseover" end="arrowUp.mouseout"/>
                  </use>
                  <path fill="none" stroke="white" stroke-width="1.5" d="M0,-3.0v7 M-2.5,-0.5L0,-3.0L2.5,-0.5"/>
                </g>
                <g id="arrowRight" xlink:href="#dirArrow" transform="rotate(90) translate(36 -43)" onmousedown="handlePan(1,0)">
                  <use xlink:href="#rim" fill="#404040">
                        <set attributeName="fill" to="#808080" begin="arrowRight.mouseover" end="arrowRight.mouseout"/>
                  </use>
                  <path fill="none" stroke="white" stroke-width="1.5" d="M0,-3.0v7 M-2.5,-0.5L0,-3.0L2.5,-0.5"/>
                </g>
                <g id="arrowDown" xlink:href="#dirArrow" transform="rotate(180) translate(-30 -48)" onmousedown="handlePan(0,1)">
                  <use xlink:href="#rim" fill="#404040">
                        <set attributeName="fill" to="#808080" begin="arrowDown.mouseover" end="arrowDown.mouseout"/>
                  </use>
                  <path fill="none" stroke="white" stroke-width="1.5" d="M0,-3.0v7 M-2.5,-0.5L0,-3.0L2.5,-0.5"/>
                </g>
                <g id="arrowLeft" xlink:href="#dirArrow" transform="rotate(270) translate(-36 17)" onmousedown="handlePan(-1,0)">
                  <use xlink:href="#rim" fill="#404040">
                        <set attributeName="fill" to="#808080" begin="arrowLeft.mouseover" end="arrowLeft.mouseout"/>
                  </use>
                  <path fill="none" stroke="white" stroke-width="1.5" d="M0,-3.0v7 M-2.5,-0.5L0,-3.0L2.5,-0.5"/>
                </g>
        </g>
        <svg viewBox="0 0 15 15" width="100%" height="30px" preserveAspectRatio="xMaxYMin meet">
         <g id="arrow_out" transform="scale(0.3 0.3)">
          <a xlink:href="JKRHeap_8cpp__incl_org.svg" target="_base">
           <rect id="button" ry="5" rx="5" y="6" x="6" height="38" width="38"
                fill="#f2f5e9" fill-opacity="0.5" stroke="#606060" stroke-width="1.0"/>
           <path id="arrow"
             d="M 11.500037,31.436501 C 11.940474,20.09759 22.043105,11.32322 32.158766,21.979434 L 37.068811,17.246167 C 37.068811,17.246167 37.088388,32 37.088388,32 L 22.160133,31.978069 C 22.160133,31.978069 26.997745,27.140456 26.997745,27.140456 C 18.528582,18.264221 13.291696,25.230495 11.500037,31.436501 z"
             style="fill:#404040;"/>
          </a>
         </g>
        </svg>
</svg>
