<?xml version="1.0" encoding="UTF-8" standalone="no"?>
<!DOCTYPE svg PUBLIC "-//W3C//DTD SVG 1.1//EN"
 "http://www.w3.org/Graphics/SVG/1.1/DTD/svg11.dtd">
<!-- Generated by graphviz version 7.0.5 (20221223.1930)
 -->
<!-- Title: libs/JSystem/JKernel/JKRSolidHeap.cpp Pages: 1 -->
<!--zoomable 434 -->
<svg id="main" version="1.1" xmlns="http://www.w3.org/2000/svg" xmlns:xlink="http://www.w3.org/1999/xlink" xml:space="preserve" onload="init(evt)">
<style type="text/css"><![CDATA[
.edge:hover path { stroke: red; }
.edge:hover polygon { stroke: red; fill: red; }
]]></style>
<script type="text/javascript"><![CDATA[
var edges = document.getElementsByTagName('g');
if (edges && edges.length) {
  for (var i=0;i<edges.length;i++) {
    if (edges[i].id.substr(0,4)=='edge') {
      edges[i].setAttribute('class','edge');
    }
  }
}
]]></script>
        <defs>
                <circle id="rim" cx="0" cy="0" r="7"/>
                <circle id="rim2" cx="0" cy="0" r="3.5"/>
                <g id="zoomPlus">
                        <use xlink:href="#rim" fill="#404040">
                                <set attributeName="fill" to="#808080" begin="zoomplus.mouseover" end="zoomplus.mouseout"/>
                        </use>
                        <path d="M-4,0h8M0,-4v8" fill="none" stroke="white" stroke-width="1.5" pointer-events="none"/>
                </g>
                <g id="zoomMin">
                        <use xlink:href="#rim" fill="#404040">
                                <set attributeName="fill" to="#808080" begin="zoomminus.mouseover" end="zoomminus.mouseout"/>
                        </use>
                        <path d="M-4,0h8" fill="none" stroke="white" stroke-width="1.5" pointer-events="none"/>
                </g>
                <g id="dirArrow">
                        <path fill="none" stroke="white" stroke-width="1.5" d="M0,-3.0v7 M-2.5,-0.5L0,-3.0L2.5,-0.5"/>
                </g>
               <g id="resetDef">
                       <use xlink:href="#rim2" fill="#404040">
                               <set attributeName="fill" to="#808080" begin="reset.mouseover" end="reset.mouseout"/>
                       </use>
               </g>
        </defs>

<script type="text/javascript">
var viewWidth = 2308;
var viewHeight = 434;
var sectionId = 'dynsection-0';
</script>
<script xlink:href="svgpan.js"/>
<svg id="graph" class="graph">
<g id="viewport">
<title>libs/JSystem/JKernel/JKRSolidHeap.cpp</title>
<!-- Node1 -->
<g id="node1" class="node">
<title>Node1</title>
<g id="a_node1"><a xlink:title=" ">
<polygon fill="#999999" stroke="#666666" points="1936.5,-426 1827.5,-426 1827.5,-396 1936.5,-396 1936.5,-426"/>
<text text-anchor="start" x="1835.5" y="-414" font-family="Helvetica,sans-Serif" font-size="10.00">libs/JSystem/JKernel</text>
<text text-anchor="middle" x="1882" y="-403" font-family="Helvetica,sans-Serif" font-size="10.00">/JKRSolidHeap.cpp</text>
</a>
</g>
</g>
<!-- Node2 -->
<g id="node2" class="node">
<title>Node2</title>
<g id="a_node2"><a xlink:href="JKRSolidHeap_8h.html" target="_top" xlink:title=" ">
<polygon fill="white" stroke="#666666" points="1869,-360 1735,-360 1735,-330 1869,-330 1869,-360"/>
<text text-anchor="start" x="1743" y="-348" font-family="Helvetica,sans-Serif" font-size="10.00">JSystem/JKernel/JKRSolid</text>
<text text-anchor="middle" x="1802" y="-337" font-family="Helvetica,sans-Serif" font-size="10.00">Heap.h</text>
</a>
</g>
</g>
<!-- Node1&#45;&gt;Node2 -->
<g id="edge1" class="edge">
<title>Node1&#45;&gt;Node2</title>
<path fill="none" stroke="#63b8ff" d="M1864.25,-395.8C1853.86,-387.49 1840.53,-376.83 1828.88,-367.5"/>
<polygon fill="#63b8ff" stroke="#63b8ff" points="1831.16,-364.84 1821.16,-361.33 1826.79,-370.31 1831.16,-364.84"/>
</g>
<!-- Node11 -->
<g id="node11" class="node">
<title>Node11</title>
<g id="a_node11"><a xlink:href="JUTAssert_8h.html" target="_top" xlink:title=" ">
<polygon fill="white" stroke="#666666" points="1717,-354.5 1571,-354.5 1571,-335.5 1717,-335.5 1717,-354.5"/>
<text text-anchor="middle" x="1644" y="-342.5" font-family="Helvetica,sans-Serif" font-size="10.00">JSystem/JUtility/JUTAssert.h</text>
</a>
</g>
</g>
<!-- Node1&#45;&gt;Node11 -->
<g id="edge11" class="edge">
<title>Node1&#45;&gt;Node11</title>
<path fill="none" stroke="#63b8ff" d="M1828.29,-395.56C1786.02,-384.19 1727.84,-368.55 1688.23,-357.89"/>
<polygon fill="#63b8ff" stroke="#63b8ff" points="1689.36,-354.57 1678.79,-355.36 1687.54,-361.33 1689.36,-354.57"/>
</g>
<!-- Node33 -->
<g id="node33" class="node">
<title>Node33</title>
<g id="a_node33"><a xlink:href="JUTConsole_8h.html" target="_top" xlink:title=" ">
<polygon fill="white" stroke="#666666" points="2039,-354.5 1887,-354.5 1887,-335.5 2039,-335.5 2039,-354.5"/>
<text text-anchor="middle" x="1963" y="-342.5" font-family="Helvetica,sans-Serif" font-size="10.00">JSystem/JUtility/JUTConsole.h</text>
</a>
</g>
</g>
<!-- Node1&#45;&gt;Node33 -->
<g id="edge57" class="edge">
<title>Node1&#45;&gt;Node33</title>
<path fill="none" stroke="#63b8ff" d="M1899.98,-395.8C1912.73,-385.72 1929.85,-372.19 1943.03,-361.78"/>
<polygon fill="#63b8ff" stroke="#63b8ff" points="1944.94,-364.73 1950.62,-355.78 1940.6,-359.24 1944.94,-364.73"/>
</g>
<!-- Node38 -->
<g id="node38" class="node">
<title>Node38</title>
<g id="a_node38"><a xlink:href="global_8h.html" target="_top" xlink:title=" ">
<polygon fill="white" stroke="#666666" points="2239,-129 2189,-129 2189,-110 2239,-110 2239,-129"/>
<text text-anchor="middle" x="2214" y="-117" font-family="Helvetica,sans-Serif" font-size="10.00">global.h</text>
</a>
</g>
</g>
<!-- Node1&#45;&gt;Node38 -->
<g id="edge75" class="edge">
<title>Node1&#45;&gt;Node38</title>
<path fill="none" stroke="#63b8ff" d="M1936.7,-402.53C2037.36,-387.54 2245.51,-350.33 2288,-294 2326.38,-243.12 2263.64,-169.33 2231.35,-136.87"/>
<polygon fill="#63b8ff" stroke="#63b8ff" points="2234.19,-134.75 2224.59,-130.26 2229.29,-139.76 2234.19,-134.75"/>
</g>
<!-- Node3 -->
<g id="node3" class="node">
<title>Node3</title>
<g id="a_node3"><a xlink:href="JKRHeap_8h.html" target="_top" xlink:title=" ">
<polygon fill="white" stroke="#666666" points="1858.5,-294 1715.5,-294 1715.5,-275 1858.5,-275 1858.5,-294"/>
<text text-anchor="middle" x="1787" y="-282" font-family="Helvetica,sans-Serif" font-size="10.00">JSystem/JKernel/JKRHeap.h</text>
</a>
</g>
</g>
<!-- Node2&#45;&gt;Node3 -->
<g id="edge2" class="edge">
<title>Node2&#45;&gt;Node3</title>
<path fill="none" stroke="#63b8ff" d="M1798.29,-329.54C1796.4,-322.17 1794.08,-313.1 1792.03,-305.11"/>
<polygon fill="#63b8ff" stroke="#63b8ff" points="1795.47,-304.46 1789.6,-295.64 1788.69,-306.2 1795.47,-304.46"/>
</g>
<!-- Node4 -->
<g id="node4" class="node">
<title>Node4</title>
<g id="a_node4"><a xlink:href="JKRDisposer_8h.html" target="_top" xlink:title=" ">
<polygon fill="white" stroke="#666666" points="1935,-239 1777,-239 1777,-220 1935,-220 1935,-239"/>
<text text-anchor="middle" x="1856" y="-227" font-family="Helvetica,sans-Serif" font-size="10.00">JSystem/JKernel/JKRDisposer.h</text>
</a>
</g>
</g>
<!-- Node3&#45;&gt;Node4 -->
<g id="edge3" class="edge">
<title>Node3&#45;&gt;Node4</title>
<path fill="none" stroke="#63b8ff" d="M1798.7,-274.51C1808.78,-266.77 1823.54,-255.43 1835.56,-246.2"/>
<polygon fill="#63b8ff" stroke="#63b8ff" points="1837.47,-249.15 1843.27,-240.28 1833.21,-243.6 1837.47,-249.15"/>
</g>
<!-- Node8 -->
<g id="node8" class="node">
<title>Node8</title>
<g id="a_node8"><a xlink:href="OSMutex_8h.html" target="_top" xlink:title=" ">
<polygon fill="white" stroke="#666666" points="1639,-239 1527,-239 1527,-220 1639,-220 1639,-239"/>
<text text-anchor="middle" x="1583" y="-227" font-family="Helvetica,sans-Serif" font-size="10.00">dolphin/os/OSMutex.h</text>
</a>
</g>
</g>
<!-- Node3&#45;&gt;Node8 -->
<g id="edge7" class="edge">
<title>Node3&#45;&gt;Node8</title>
<path fill="none" stroke="#63b8ff" d="M1752.39,-274.51C1718.29,-265.65 1666.01,-252.07 1628.55,-242.33"/>
<polygon fill="#63b8ff" stroke="#63b8ff" points="1629.46,-238.95 1618.9,-239.83 1627.7,-245.73 1629.46,-238.95"/>
</g>
<!-- Node5 -->
<g id="node5" class="node">
<title>Node5</title>
<g id="a_node5"><a xlink:href="JSUList_8h.html" target="_top" xlink:title=" ">
<polygon fill="white" stroke="#666666" points="1920.5,-129 1777.5,-129 1777.5,-110 1920.5,-110 1920.5,-129"/>
<text text-anchor="middle" x="1849" y="-117" font-family="Helvetica,sans-Serif" font-size="10.00">JSystem/JSupport/JSUList.h</text>
</a>
</g>
</g>
<!-- Node4&#45;&gt;Node5 -->
<g id="edge4" class="edge">
<title>Node4&#45;&gt;Node5</title>
<path fill="none" stroke="#63b8ff" d="M1855.43,-219.66C1854.32,-202.57 1851.86,-164.61 1850.32,-140.92"/>
<polygon fill="#63b8ff" stroke="#63b8ff" points="1853.82,-140.72 1849.68,-130.97 1846.83,-141.18 1853.82,-140.72"/>
</g>
<!-- Node6 -->
<g id="node6" class="node">
<title>Node6</title>
<g id="a_node6"><a xlink:href="types_8h.html" target="_top" xlink:title=" ">
<polygon fill="white" stroke="#666666" points="1151.5,-74 1070.5,-74 1070.5,-55 1151.5,-55 1151.5,-74"/>
<text text-anchor="middle" x="1111" y="-62" font-family="Helvetica,sans-Serif" font-size="10.00">dolphin/types.h</text>
</a>
</g>
</g>
<!-- Node5&#45;&gt;Node6 -->
<g id="edge5" class="edge">
<title>Node5&#45;&gt;Node6</title>
<path fill="none" stroke="#63b8ff" d="M1777.22,-111.24C1772.41,-110.81 1767.63,-110.39 1763,-110 1540.19,-91.39 1274.04,-75.06 1163.32,-68.53"/>
<polygon fill="#63b8ff" stroke="#63b8ff" points="1163.55,-65.04 1153.36,-67.94 1163.14,-72.03 1163.55,-65.04"/>
</g>
<!-- Node7 -->
<g id="node7" class="node">
<title>Node7</title>
<g id="a_node7"><a xlink:href="stddef_8h.html" target="_top" xlink:title=" ">
<polygon fill="white" stroke="#666666" points="1723.5,-19 1672.5,-19 1672.5,0 1723.5,0 1723.5,-19"/>
<text text-anchor="middle" x="1698" y="-7" font-family="Helvetica,sans-Serif" font-size="10.00">stddef.h</text>
</a>
</g>
</g>
<!-- Node6&#45;&gt;Node7 -->
<g id="edge6" class="edge">
<title>Node6&#45;&gt;Node7</title>
<path fill="none" stroke="#63b8ff" d="M1151.81,-59.82C1260.59,-49.99 1556.29,-23.29 1660.8,-13.86"/>
<polygon fill="#63b8ff" stroke="#63b8ff" points="1660.86,-17.37 1670.5,-12.98 1660.23,-10.4 1660.86,-17.37"/>
</g>
<!-- Node9 -->
<g id="node9" class="node">
<title>Node9</title>
<g id="a_node9"><a xlink:href="OSThread_8h.html" target="_top" xlink:title=" ">
<polygon fill="white" stroke="#666666" points="1425,-184 1309,-184 1309,-165 1425,-165 1425,-184"/>
<text text-anchor="middle" x="1367" y="-172" font-family="Helvetica,sans-Serif" font-size="10.00">dolphin/os/OSThread.h</text>
</a>
</g>
</g>
<!-- Node8&#45;&gt;Node9 -->
<g id="edge8" class="edge">
<title>Node8&#45;&gt;Node9</title>
<path fill="none" stroke="#63b8ff" d="M1546.36,-219.51C1510.02,-210.59 1454.17,-196.89 1414.46,-187.15"/>
<polygon fill="#63b8ff" stroke="#63b8ff" points="1415.48,-183.79 1404.93,-184.81 1413.81,-190.59 1415.48,-183.79"/>
</g>
<!-- Node10 -->
<g id="node10" class="node">
<title>Node10</title>
<g id="a_node10"><a xlink:href="OSContext_8h.html" target="_top" xlink:title=" ">
<polygon fill="white" stroke="#666666" points="1340.5,-129 1221.5,-129 1221.5,-110 1340.5,-110 1340.5,-129"/>
<text text-anchor="middle" x="1281" y="-117" font-family="Helvetica,sans-Serif" font-size="10.00">dolphin/os/OSContext.h</text>
</a>
</g>
</g>
<!-- Node9&#45;&gt;Node10 -->
<g id="edge9" class="edge">
<title>Node9&#45;&gt;Node10</title>
<path fill="none" stroke="#63b8ff" d="M1352.41,-164.51C1339.48,-156.54 1320.36,-144.75 1305.15,-135.38"/>
<polygon fill="#63b8ff" stroke="#63b8ff" points="1307.01,-132.42 1296.66,-130.15 1303.34,-138.38 1307.01,-132.42"/>
</g>
<!-- Node10&#45;&gt;Node6 -->
<g id="edge10" class="edge">
<title>Node10&#45;&gt;Node6</title>
<path fill="none" stroke="#63b8ff" d="M1252.16,-109.51C1224.24,-100.8 1181.67,-87.53 1150.58,-77.84"/>
<polygon fill="#63b8ff" stroke="#63b8ff" points="1151.73,-74.53 1141.14,-74.9 1149.65,-81.21 1151.73,-74.53"/>
</g>
<!-- Node11&#45;&gt;Node6 -->
<g id="edge12" class="edge">
<title>Node11&#45;&gt;Node6</title>
<path fill="none" stroke="#63b8ff" d="M1651.8,-335.19C1672.2,-312.05 1725.9,-250.48 1730,-239 1732.84,-231.05 1734.96,-226.84 1730,-220 1662.73,-127.19 1299.64,-83.47 1163.02,-70.12"/>
<polygon fill="#63b8ff" stroke="#63b8ff" points="1163.46,-66.64 1153.17,-69.17 1162.79,-73.61 1163.46,-66.64"/>
</g>
<!-- Node12 -->
<g id="node12" class="node">
<title>Node12</title>
<g id="a_node12"><a xlink:href="os_8h.html" target="_top" xlink:title=" ">
<polygon fill="white" stroke="#666666" points="889,-294 821,-294 821,-275 889,-275 889,-294"/>
<text text-anchor="middle" x="855" y="-282" font-family="Helvetica,sans-Serif" font-size="10.00">dolphin/os.h</text>
</a>
</g>
</g>
<!-- Node11&#45;&gt;Node12 -->
<g id="edge13" class="edge">
<title>Node11&#45;&gt;Node12</title>
<path fill="none" stroke="#63b8ff" d="M1570.83,-338.58C1410.45,-326.68 1031.79,-298.61 900.65,-288.88"/>
<polygon fill="#63b8ff" stroke="#63b8ff" points="901.21,-285.42 890.98,-288.17 900.69,-292.4 901.21,-285.42"/>
</g>
<!-- Node12&#45;&gt;Node8 -->
<g id="edge44" class="edge">
<title>Node12&#45;&gt;Node8</title>
<path fill="none" stroke="#63b8ff" d="M889.17,-281.94C985.61,-277.38 1268.38,-262.93 1515.15,-239.11"/>
<polygon fill="#63b8ff" stroke="#63b8ff" points="1515.38,-242.61 1524.99,-238.15 1514.7,-235.64 1515.38,-242.61"/>
</g>
<!-- Node12&#45;&gt;Node9 -->
<g id="edge55" class="edge">
<title>Node12&#45;&gt;Node9</title>
<path fill="none" stroke="#63b8ff" d="M889.2,-281.76C947.73,-278.09 1070.42,-267.44 1170,-239 1190.09,-233.26 1193.36,-227.14 1213,-220 1248.29,-207.17 1289.16,-195.5 1319.93,-187.34"/>
<polygon fill="#63b8ff" stroke="#63b8ff" points="1320.53,-190.8 1329.31,-184.87 1318.75,-184.03 1320.53,-190.8"/>
</g>
<!-- Node12&#45;&gt;Node10 -->
<g id="edge30" class="edge">
<title>Node12&#45;&gt;Node10</title>
<path fill="none" stroke="#63b8ff" d="M889.46,-281.34C942.64,-277.26 1047.39,-266.24 1132,-239 1149.97,-233.21 1152.75,-227.67 1170,-220 1210.12,-202.16 1232.26,-216.3 1262,-184 1272.86,-172.21 1277.53,-154.44 1279.53,-140.69"/>
<polygon fill="#63b8ff" stroke="#63b8ff" points="1282.98,-141.31 1280.55,-130.99 1276.02,-140.57 1282.98,-141.31"/>
</g>
<!-- Node13 -->
<g id="node13" class="node">
<title>Node13</title>
<g id="a_node13"><a xlink:href="____va__arg_8h.html" target="_top" xlink:title=" ">
<polygon fill="white" stroke="#666666" points="1721,-239 1657,-239 1657,-220 1721,-220 1721,-239"/>
<text text-anchor="middle" x="1689" y="-227" font-family="Helvetica,sans-Serif" font-size="10.00">__va_arg.h</text>
</a>
</g>
</g>
<!-- Node12&#45;&gt;Node13 -->
<g id="edge14" class="edge">
<title>Node12&#45;&gt;Node13</title>
<path fill="none" stroke="#63b8ff" d="M889.18,-283.39C998.18,-282.65 1347.43,-277.36 1645.81,-239.07"/>
<polygon fill="#63b8ff" stroke="#63b8ff" points="1645.88,-242.59 1655.35,-237.83 1644.98,-235.65 1645.88,-242.59"/>
</g>
<!-- Node14 -->
<g id="node14" class="node">
<title>Node14</title>
<g id="a_node14"><a xlink:href="dvd_8h.html" target="_top" xlink:title=" ">
<polygon fill="white" stroke="#666666" points="74,-129 0,-129 0,-110 74,-110 74,-129"/>
<text text-anchor="middle" x="37" y="-117" font-family="Helvetica,sans-Serif" font-size="10.00">dolphin/dvd.h</text>
</a>
</g>
</g>
<!-- Node12&#45;&gt;Node14 -->
<g id="edge16" class="edge">
<title>Node12&#45;&gt;Node14</title>
<path fill="none" stroke="#63b8ff" d="M820.5,-282.87C669.5,-279.94 73,-266.65 45,-239 19.04,-213.36 25.15,-166.54 31.39,-140.08"/>
<polygon fill="#63b8ff" stroke="#63b8ff" points="34.71,-141.22 33.86,-130.66 27.94,-139.45 34.71,-141.22"/>
</g>
<!-- Node15 -->
<g id="node15" class="node">
<title>Node15</title>
<g id="a_node15"><a xlink:href="OSAlarm_8h.html" target="_top" xlink:title=" ">
<polygon fill="white" stroke="#666666" points="1089.5,-239 978.5,-239 978.5,-220 1089.5,-220 1089.5,-239"/>
<text text-anchor="middle" x="1034" y="-227" font-family="Helvetica,sans-Serif" font-size="10.00">dolphin/os/OSAlarm.h</text>
</a>
</g>
</g>
<!-- Node12&#45;&gt;Node15 -->
<g id="edge18" class="edge">
<title>Node12&#45;&gt;Node15</title>
<path fill="none" stroke="#63b8ff" d="M885.36,-274.51C914.9,-265.76 959.98,-252.42 992.75,-242.71"/>
<polygon fill="#63b8ff" stroke="#63b8ff" points="993.74,-246.07 1002.33,-239.88 991.75,-239.36 993.74,-246.07"/>
</g>
<!-- Node16 -->
<g id="node16" class="node">
<title>Node16</title>
<g id="a_node16"><a xlink:href="OSError_8h.html" target="_top" xlink:title=" ">
<polygon fill="white" stroke="#666666" points="1253,-184 1147,-184 1147,-165 1253,-165 1253,-184"/>
<text text-anchor="middle" x="1200" y="-172" font-family="Helvetica,sans-Serif" font-size="10.00">dolphin/os/OSError.h</text>
</a>
</g>
</g>
<!-- Node12&#45;&gt;Node16 -->
<g id="edge31" class="edge">
<title>Node12&#45;&gt;Node16</title>
<path fill="none" stroke="#63b8ff" d="M889.1,-281.29C937.13,-277.29 1026.8,-266.53 1098,-239 1128.62,-227.16 1160.15,-205.87 1179.89,-191.23"/>
<polygon fill="#63b8ff" stroke="#63b8ff" points="1181.77,-194.2 1187.62,-185.37 1177.54,-188.62 1181.77,-194.2"/>
</g>
<!-- Node17 -->
<g id="node17" class="node">
<title>Node17</title>
<g id="a_node17"><a xlink:href="OSTime_8h.html" target="_top" xlink:title=" ">
<polygon fill="white" stroke="#666666" points="1128.5,-184 1021.5,-184 1021.5,-165 1128.5,-165 1128.5,-184"/>
<text text-anchor="middle" x="1075" y="-172" font-family="Helvetica,sans-Serif" font-size="10.00">dolphin/os/OSTime.h</text>
</a>
</g>
</g>
<!-- Node12&#45;&gt;Node17 -->
<g id="edge56" class="edge">
<title>Node12&#45;&gt;Node17</title>
<path fill="none" stroke="#63b8ff" d="M869.84,-274.54C891.33,-261.72 932.54,-237.74 969,-220 992.58,-208.53 1019.88,-197.11 1040.86,-188.71"/>
<polygon fill="#63b8ff" stroke="#63b8ff" points="1042.1,-191.99 1050.1,-185.05 1039.52,-185.48 1042.1,-191.99"/>
</g>
<!-- Node18 -->
<g id="node18" class="node">
<title>Node18</title>
<g id="a_node18"><a xlink:href="OSAlloc_8h.html" target="_top" xlink:title=" ">
<polygon fill="white" stroke="#666666" points="263.5,-129 156.5,-129 156.5,-110 263.5,-110 263.5,-129"/>
<text text-anchor="middle" x="210" y="-117" font-family="Helvetica,sans-Serif" font-size="10.00">dolphin/os/OSAlloc.h</text>
</a>
</g>
</g>
<!-- Node12&#45;&gt;Node18 -->
<g id="edge23" class="edge">
<title>Node12&#45;&gt;Node18</title>
<path fill="none" stroke="#63b8ff" d="M820.63,-283.37C734.81,-282.45 504.5,-276.39 317,-239 238.71,-223.39 193.02,-248.52 146,-184 132.25,-165.13 156.25,-146.69 178.68,-134.59"/>
<polygon fill="#63b8ff" stroke="#63b8ff" points="180.04,-137.82 187.38,-130.18 176.88,-131.58 180.04,-137.82"/>
</g>
<!-- Node19 -->
<g id="node19" class="node">
<title>Node19</title>
<g id="a_node19"><a xlink:href="OSArena_8h.html" target="_top" xlink:title=" ">
<polygon fill="white" stroke="#666666" points="266.5,-184 155.5,-184 155.5,-165 266.5,-165 266.5,-184"/>
<text text-anchor="middle" x="211" y="-172" font-family="Helvetica,sans-Serif" font-size="10.00">dolphin/os/OSArena.h</text>
</a>
</g>
</g>
<!-- Node12&#45;&gt;Node19 -->
<g id="edge25" class="edge">
<title>Node12&#45;&gt;Node19</title>
<path fill="none" stroke="#63b8ff" d="M820.75,-283.3C742.3,-282.18 543.91,-275.63 383,-239 331.41,-227.26 274.31,-203.99 240.6,-189.12"/>
<polygon fill="#63b8ff" stroke="#63b8ff" points="242.04,-185.93 231.48,-185.05 239.18,-192.32 242.04,-185.93"/>
</g>
<!-- Node20 -->
<g id="node20" class="node">
<title>Node20</title>
<g id="a_node20"><a xlink:href="OSAudioSystem_8h.html" target="_top" xlink:title=" ">
<polygon fill="white" stroke="#666666" points="1508.5,-239 1365.5,-239 1365.5,-220 1508.5,-220 1508.5,-239"/>
<text text-anchor="middle" x="1437" y="-227" font-family="Helvetica,sans-Serif" font-size="10.00">dolphin/os/OSAudioSystem.h</text>
</a>
</g>
</g>
<!-- Node12&#45;&gt;Node20 -->
<g id="edge27" class="edge">
<title>Node12&#45;&gt;Node20</title>
<path fill="none" stroke="#63b8ff" d="M889.34,-280.64C968.86,-273.98 1172.09,-256.71 1353.64,-239.21"/>
<polygon fill="#63b8ff" stroke="#63b8ff" points="1353.89,-242.71 1363.51,-238.26 1353.22,-235.74 1353.89,-242.71"/>
</g>
<!-- Node21 -->
<g id="node21" class="node">
<title>Node21</title>
<g id="a_node21"><a xlink:href="OSCache_8h.html" target="_top" xlink:title=" ">
<polygon fill="white" stroke="#666666" points="397.5,-184 284.5,-184 284.5,-165 397.5,-165 397.5,-184"/>
<text text-anchor="middle" x="341" y="-172" font-family="Helvetica,sans-Serif" font-size="10.00">dolphin/os/OSCache.h</text>
</a>
</g>
</g>
<!-- Node12&#45;&gt;Node21 -->
<g id="edge28" class="edge">
<title>Node12&#45;&gt;Node21</title>
<path fill="none" stroke="#63b8ff" d="M820.6,-282.63C730.38,-279.94 488.88,-269.97 416,-239 391.81,-228.72 369.58,-207.82 355.71,-192.81"/>
<polygon fill="#63b8ff" stroke="#63b8ff" points="358.47,-190.65 349.21,-185.49 353.24,-195.3 358.47,-190.65"/>
</g>
<!-- Node22 -->
<g id="node22" class="node">
<title>Node22</title>
<g id="a_node22"><a xlink:href="OSExec_8h.html" target="_top" xlink:title=" ">
<polygon fill="white" stroke="#666666" points="522.5,-184 415.5,-184 415.5,-165 522.5,-165 522.5,-184"/>
<text text-anchor="middle" x="469" y="-172" font-family="Helvetica,sans-Serif" font-size="10.00">dolphin/os/OSExec.h</text>
</a>
</g>
</g>
<!-- Node12&#45;&gt;Node22 -->
<g id="edge32" class="edge">
<title>Node12&#45;&gt;Node22</title>
<path fill="none" stroke="#63b8ff" d="M820.82,-282.55C723.53,-279.48 450.45,-268.32 424,-239 410.33,-223.85 428.45,-204.47 445.61,-191.13"/>
<polygon fill="#63b8ff" stroke="#63b8ff" points="447.6,-194.02 453.62,-185.3 443.47,-188.36 447.6,-194.02"/>
</g>
<!-- Node23 -->
<g id="node23" class="node">
<title>Node23</title>
<g id="a_node23"><a xlink:href="OSFont_8h.html" target="_top" xlink:title=" ">
<polygon fill="white" stroke="#666666" points="602.5,-129 497.5,-129 497.5,-110 602.5,-110 602.5,-129"/>
<text text-anchor="middle" x="550" y="-117" font-family="Helvetica,sans-Serif" font-size="10.00">dolphin/os/OSFont.h</text>
</a>
</g>
</g>
<!-- Node12&#45;&gt;Node23 -->
<g id="edge34" class="edge">
<title>Node12&#45;&gt;Node23</title>
<path fill="none" stroke="#63b8ff" d="M820.66,-281.89C733.66,-277.45 509.89,-263.71 488,-239 463.45,-211.29 522.35,-197.14 531,-184 539.63,-170.89 544.46,-153.72 547.09,-140.54"/>
<polygon fill="#63b8ff" stroke="#63b8ff" points="550.5,-141.33 548.73,-130.88 543.6,-140.16 550.5,-141.33"/>
</g>
<!-- Node24 -->
<g id="node24" class="node">
<title>Node24</title>
<g id="a_node24"><a xlink:href="OSInterrupt_8h.html" target="_top" xlink:title=" ">
<polygon fill="white" stroke="#666666" points="755,-184 633,-184 633,-165 755,-165 755,-184"/>
<text text-anchor="middle" x="694" y="-172" font-family="Helvetica,sans-Serif" font-size="10.00">dolphin/os/OSInterrupt.h</text>
</a>
</g>
</g>
<!-- Node12&#45;&gt;Node24 -->
<g id="edge36" class="edge">
<title>Node12&#45;&gt;Node24</title>
<path fill="none" stroke="#63b8ff" d="M820.81,-280.21C772.83,-274.8 689.29,-262.24 671,-239 660.38,-225.51 669.44,-206.67 679.14,-193.02"/>
<polygon fill="#63b8ff" stroke="#63b8ff" points="681.73,-195.38 685.11,-185.34 676.21,-191.09 681.73,-195.38"/>
</g>
<!-- Node25 -->
<g id="node25" class="node">
<title>Node25</title>
<g id="a_node25"><a xlink:href="OSLink_8h.html" target="_top" xlink:title=" ">
<polygon fill="white" stroke="#666666" points="930,-129 826,-129 826,-110 930,-110 930,-129"/>
<text text-anchor="middle" x="878" y="-117" font-family="Helvetica,sans-Serif" font-size="10.00">dolphin/os/OSLink.h</text>
</a>
</g>
</g>
<!-- Node12&#45;&gt;Node25 -->
<g id="edge38" class="edge">
<title>Node12&#45;&gt;Node25</title>
<path fill="none" stroke="#63b8ff" d="M854.36,-274.75C853.13,-254.94 851.28,-205.25 860,-165 861.85,-156.45 865.21,-147.44 868.53,-139.77"/>
<polygon fill="#63b8ff" stroke="#63b8ff" points="871.66,-141.33 872.69,-130.79 865.31,-138.39 871.66,-141.33"/>
</g>
<!-- Node26 -->
<g id="node26" class="node">
<title>Node26</title>
<g id="a_node26"><a xlink:href="OSMemory_8h.html" target="_top" xlink:title=" ">
<polygon fill="white" stroke="#666666" points="624,-239 504,-239 504,-220 624,-220 624,-239"/>
<text text-anchor="middle" x="564" y="-227" font-family="Helvetica,sans-Serif" font-size="10.00">dolphin/os/OSMemory.h</text>
</a>
</g>
</g>
<!-- Node12&#45;&gt;Node26 -->
<g id="edge40" class="edge">
<title>Node12&#45;&gt;Node26</title>
<path fill="none" stroke="#63b8ff" d="M820.76,-277.26C772.56,-268.49 683.95,-252.35 624.5,-241.52"/>
<polygon fill="#63b8ff" stroke="#63b8ff" points="625.34,-238.11 614.88,-239.77 624.09,-245 625.34,-238.11"/>
</g>
<!-- Node27 -->
<g id="node27" class="node">
<title>Node27</title>
<g id="a_node27"><a xlink:href="OSMessage_8h.html" target="_top" xlink:title=" ">
<polygon fill="white" stroke="#666666" points="1347.5,-239 1222.5,-239 1222.5,-220 1347.5,-220 1347.5,-239"/>
<text text-anchor="middle" x="1285" y="-227" font-family="Helvetica,sans-Serif" font-size="10.00">dolphin/os/OSMessage.h</text>
</a>
</g>
</g>
<!-- Node12&#45;&gt;Node27 -->
<g id="edge42" class="edge">
<title>Node12&#45;&gt;Node27</title>
<path fill="none" stroke="#63b8ff" d="M889.46,-279.25C958.81,-270.7 1116.61,-251.26 1210.59,-239.67"/>
<polygon fill="#63b8ff" stroke="#63b8ff" points="1211,-243.15 1220.5,-238.45 1210.15,-236.2 1211,-243.15"/>
</g>
<!-- Node28 -->
<g id="node28" class="node">
<title>Node28</title>
<g id="a_node28"><a xlink:href="OSReboot_8h.html" target="_top" xlink:title=" ">
<polygon fill="white" stroke="#666666" points="1064,-129 948,-129 948,-110 1064,-110 1064,-129"/>
<text text-anchor="middle" x="1006" y="-117" font-family="Helvetica,sans-Serif" font-size="10.00">dolphin/os/OSReboot.h</text>
</a>
</g>
</g>
<!-- Node12&#45;&gt;Node28 -->
<g id="edge45" class="edge">
<title>Node12&#45;&gt;Node28</title>
<path fill="none" stroke="#63b8ff" d="M856.81,-274.65C862,-250.03 877.56,-181.47 893,-165 907.35,-149.69 927.62,-139.56 947.04,-132.89"/>
<polygon fill="#63b8ff" stroke="#63b8ff" points="948.07,-136.24 956.56,-129.9 945.97,-129.56 948.07,-136.24"/>
</g>
<!-- Node29 -->
<g id="node29" class="node">
<title>Node29</title>
<g id="a_node29"><a xlink:href="OSReset_8h.html" target="_top" xlink:title=" ">
<polygon fill="white" stroke="#666666" points="731.5,-129 620.5,-129 620.5,-110 731.5,-110 731.5,-129"/>
<text text-anchor="middle" x="676" y="-117" font-family="Helvetica,sans-Serif" font-size="10.00">dolphin/os/OSReset.h</text>
</a>
</g>
</g>
<!-- Node12&#45;&gt;Node29 -->
<g id="edge47" class="edge">
<title>Node12&#45;&gt;Node29</title>
<path fill="none" stroke="#63b8ff" d="M820.69,-281.8C734.9,-277.2 516.4,-263.21 495,-239 489.41,-232.67 490.6,-227.21 495,-220 513.22,-190.14 534.25,-200.69 565,-184 594.98,-167.72 628.96,-148.11 651.34,-135.03"/>
<polygon fill="#63b8ff" stroke="#63b8ff" points="652.88,-138.18 659.73,-130.11 649.34,-132.15 652.88,-138.18"/>
</g>
<!-- Node30 -->
<g id="node30" class="node">
<title>Node30</title>
<g id="a_node30"><a xlink:href="OSResetSW_8h.html" target="_top" xlink:title=" ">
<polygon fill="white" stroke="#666666" points="807.5,-239 680.5,-239 680.5,-220 807.5,-220 807.5,-239"/>
<text text-anchor="middle" x="744" y="-227" font-family="Helvetica,sans-Serif" font-size="10.00">dolphin/os/OSResetSW.h</text>
</a>
</g>
</g>
<!-- Node12&#45;&gt;Node30 -->
<g id="edge49" class="edge">
<title>Node12&#45;&gt;Node30</title>
<path fill="none" stroke="#63b8ff" d="M836.17,-274.51C818.84,-266.24 792.89,-253.84 772.93,-244.31"/>
<polygon fill="#63b8ff" stroke="#63b8ff" points="774.45,-241.16 763.92,-240.01 771.43,-247.48 774.45,-241.16"/>
</g>
<!-- Node31 -->
<g id="node31" class="node">
<title>Node31</title>
<g id="a_node31"><a xlink:href="OSRtc_8h.html" target="_top" xlink:title=" ">
<polygon fill="white" stroke="#666666" points="1003.5,-184 902.5,-184 902.5,-165 1003.5,-165 1003.5,-184"/>
<text text-anchor="middle" x="953" y="-172" font-family="Helvetica,sans-Serif" font-size="10.00">dolphin/os/OSRtc.h</text>
</a>
</g>
</g>
<!-- Node12&#45;&gt;Node31 -->
<g id="edge52" class="edge">
<title>Node12&#45;&gt;Node31</title>
<path fill="none" stroke="#63b8ff" d="M863.02,-274.66C879.24,-256.78 916.21,-216.05 937.36,-192.73"/>
<polygon fill="#63b8ff" stroke="#63b8ff" points="939.72,-195.34 943.85,-185.58 934.54,-190.63 939.72,-195.34"/>
</g>
<!-- Node32 -->
<g id="node32" class="node">
<title>Node32</title>
<g id="a_node32"><a xlink:href="OSSync_8h.html" target="_top" xlink:title=" ">
<polygon fill="white" stroke="#666666" points="161.5,-239 54.5,-239 54.5,-220 161.5,-220 161.5,-239"/>
<text text-anchor="middle" x="108" y="-227" font-family="Helvetica,sans-Serif" font-size="10.00">dolphin/os/OSSync.h</text>
</a>
</g>
</g>
<!-- Node12&#45;&gt;Node32 -->
<g id="edge54" class="edge">
<title>Node12&#45;&gt;Node32</title>
<path fill="none" stroke="#63b8ff" d="M820.68,-281.97C720.95,-277.36 422.67,-262.48 176,-239 174.99,-238.9 173.97,-238.8 172.95,-238.7"/>
<polygon fill="#63b8ff" stroke="#63b8ff" points="173.61,-235.25 163.29,-237.68 172.87,-242.21 173.61,-235.25"/>
</g>
<!-- Node13&#45;&gt;Node6 -->
<g id="edge15" class="edge">
<title>Node13&#45;&gt;Node6</title>
<path fill="none" stroke="#63b8ff" d="M1667.08,-219.56C1613.57,-198.03 1471.63,-142.63 1349,-110 1285.82,-93.19 1211.56,-80.38 1163.01,-72.91"/>
<polygon fill="#63b8ff" stroke="#63b8ff" points="1163.75,-69.49 1153.34,-71.45 1162.7,-76.41 1163.75,-69.49"/>
</g>
<!-- Node14&#45;&gt;Node6 -->
<g id="edge17" class="edge">
<title>Node14&#45;&gt;Node6</title>
<path fill="none" stroke="#63b8ff" d="M74.4,-115.32C95.67,-113.59 122.82,-111.49 147,-110 495.01,-88.53 914.28,-72.56 1058.96,-67.33"/>
<polygon fill="#63b8ff" stroke="#63b8ff" points="1058.72,-70.85 1068.59,-66.99 1058.47,-63.85 1058.72,-70.85"/>
</g>
<!-- Node15&#45;&gt;Node16 -->
<g id="edge19" class="edge">
<title>Node15&#45;&gt;Node16</title>
<path fill="none" stroke="#63b8ff" d="M1062.16,-219.51C1089.43,-210.8 1130.99,-197.53 1161.35,-187.84"/>
<polygon fill="#63b8ff" stroke="#63b8ff" points="1162.08,-191.28 1170.54,-184.91 1159.95,-184.61 1162.08,-191.28"/>
</g>
<!-- Node15&#45;&gt;Node17 -->
<g id="edge21" class="edge">
<title>Node15&#45;&gt;Node17</title>
<path fill="none" stroke="#63b8ff" d="M1040.77,-219.75C1046.32,-212.58 1054.34,-202.2 1061.23,-193.3"/>
<polygon fill="#63b8ff" stroke="#63b8ff" points="1063.81,-195.69 1067.16,-185.64 1058.27,-191.41 1063.81,-195.69"/>
</g>
<!-- Node16&#45;&gt;Node6 -->
<g id="edge20" class="edge">
<title>Node16&#45;&gt;Node6</title>
<path fill="none" stroke="#63b8ff" d="M1192.72,-164.66C1178.05,-146.86 1144.71,-106.41 1125.46,-83.04"/>
<polygon fill="#63b8ff" stroke="#63b8ff" points="1128.41,-81.12 1119.35,-75.63 1123,-85.57 1128.41,-81.12"/>
</g>
<!-- Node17&#45;&gt;Node6 -->
<g id="edge22" class="edge">
<title>Node17&#45;&gt;Node6</title>
<path fill="none" stroke="#63b8ff" d="M1083.23,-164.77C1090.62,-156.33 1101.05,-142.83 1106,-129 1110.97,-115.1 1112.12,-98.43 1112.08,-85.66"/>
<polygon fill="#63b8ff" stroke="#63b8ff" points="1115.58,-85.83 1111.78,-75.94 1108.59,-86.05 1115.58,-85.83"/>
</g>
<!-- Node18&#45;&gt;Node6 -->
<g id="edge24" class="edge">
<title>Node18&#45;&gt;Node6</title>
<path fill="none" stroke="#63b8ff" d="M263.94,-113.87C280.33,-112.54 298.4,-111.14 315,-110 595.54,-90.81 932.12,-74.05 1059.11,-67.95"/>
<polygon fill="#63b8ff" stroke="#63b8ff" points="1059.05,-71.46 1068.88,-67.48 1058.72,-64.47 1059.05,-71.46"/>
</g>
<!-- Node19&#45;&gt;Node6 -->
<g id="edge26" class="edge">
<title>Node19&#45;&gt;Node6</title>
<path fill="none" stroke="#63b8ff" d="M233.96,-164.56C271.84,-150.26 350.1,-122.56 419,-110 654.88,-67.01 942.57,-63.98 1058.69,-64.75"/>
<polygon fill="#63b8ff" stroke="#63b8ff" points="1058.5,-68.25 1068.53,-64.83 1058.55,-61.25 1058.5,-68.25"/>
</g>
<!-- Node21&#45;&gt;Node6 -->
<g id="edge29" class="edge">
<title>Node21&#45;&gt;Node6</title>
<path fill="none" stroke="#63b8ff" d="M354.72,-164.57C377.7,-150.14 425.87,-122.1 471,-110 581.43,-80.4 926.36,-69.66 1058.64,-66.56"/>
<polygon fill="#63b8ff" stroke="#63b8ff" points="1058.59,-70.06 1068.51,-66.34 1058.43,-63.07 1058.59,-70.06"/>
</g>
<!-- Node22&#45;&gt;Node6 -->
<g id="edge33" class="edge">
<title>Node22&#45;&gt;Node6</title>
<path fill="none" stroke="#63b8ff" d="M468.74,-164.86C468.84,-150.84 471.3,-123.39 488,-110 532.08,-74.67 917.22,-67.37 1058.95,-65.88"/>
<polygon fill="#63b8ff" stroke="#63b8ff" points="1058.83,-69.38 1068.8,-65.78 1058.76,-62.38 1058.83,-69.38"/>
</g>
<!-- Node23&#45;&gt;Node6 -->
<g id="edge35" class="edge">
<title>Node23&#45;&gt;Node6</title>
<path fill="none" stroke="#63b8ff" d="M602.88,-110.97C605.63,-110.63 608.34,-110.3 611,-110 774,-91.4 967.64,-76.09 1058.72,-69.29"/>
<polygon fill="#63b8ff" stroke="#63b8ff" points="1058.88,-72.79 1068.59,-68.56 1058.36,-65.81 1058.88,-72.79"/>
</g>
<!-- Node24&#45;&gt;Node6 -->
<g id="edge37" class="edge">
<title>Node24&#45;&gt;Node6</title>
<path fill="none" stroke="#63b8ff" d="M703.08,-164.77C718.39,-150.64 750.9,-123.02 784,-110 876.04,-73.79 992.65,-66.18 1058.84,-65.06"/>
<polygon fill="#63b8ff" stroke="#63b8ff" points="1058.73,-68.56 1068.68,-64.95 1058.64,-61.56 1058.73,-68.56"/>
</g>
<!-- Node25&#45;&gt;Node6 -->
<g id="edge39" class="edge">
<title>Node25&#45;&gt;Node6</title>
<path fill="none" stroke="#63b8ff" d="M917.53,-109.51C956.98,-100.54 1017.74,-86.71 1060.63,-76.96"/>
<polygon fill="#63b8ff" stroke="#63b8ff" points="1061.22,-80.41 1070.19,-74.78 1059.67,-73.59 1061.22,-80.41"/>
</g>
<!-- Node26&#45;&gt;Node24 -->
<g id="edge41" class="edge">
<title>Node26&#45;&gt;Node24</title>
<path fill="none" stroke="#63b8ff" d="M586.05,-219.51C606.81,-211.04 638.16,-198.27 661.73,-188.66"/>
<polygon fill="#63b8ff" stroke="#63b8ff" points="662.93,-191.95 670.87,-184.93 660.29,-185.46 662.93,-191.95"/>
</g>
<!-- Node27&#45;&gt;Node9 -->
<g id="edge43" class="edge">
<title>Node27&#45;&gt;Node9</title>
<path fill="none" stroke="#63b8ff" d="M1298.91,-219.51C1311.24,-211.54 1329.47,-199.75 1343.97,-190.38"/>
<polygon fill="#63b8ff" stroke="#63b8ff" points="1345.53,-193.55 1352.02,-185.18 1341.73,-187.67 1345.53,-193.55"/>
</g>
<!-- Node28&#45;&gt;Node6 -->
<g id="edge46" class="edge">
<title>Node28&#45;&gt;Node6</title>
<path fill="none" stroke="#63b8ff" d="M1023.81,-109.51C1040.13,-101.27 1064.53,-88.96 1083.37,-79.45"/>
<polygon fill="#63b8ff" stroke="#63b8ff" points="1084.75,-82.67 1092.1,-75.04 1081.6,-76.42 1084.75,-82.67"/>
</g>
<!-- Node29&#45;&gt;Node6 -->
<g id="edge48" class="edge">
<title>Node29&#45;&gt;Node6</title>
<path fill="none" stroke="#63b8ff" d="M731.98,-111.68C816.71,-101.36 976.35,-81.91 1058.79,-71.86"/>
<polygon fill="#63b8ff" stroke="#63b8ff" points="1059.13,-75.35 1068.63,-70.66 1058.28,-68.4 1059.13,-75.35"/>
</g>
<!-- Node30&#45;&gt;Node6 -->
<g id="edge50" class="edge">
<title>Node30&#45;&gt;Node6</title>
<path fill="none" stroke="#63b8ff" d="M748.17,-219.75C760.27,-194.77 795.84,-124 817,-110 855.72,-84.38 985.18,-72.8 1058.74,-68.17"/>
<polygon fill="#63b8ff" stroke="#63b8ff" points="1058.77,-71.67 1068.54,-67.58 1058.35,-64.69 1058.77,-71.67"/>
</g>
<!-- Node30&#45;&gt;Node24 -->
<g id="edge51" class="edge">
<title>Node30&#45;&gt;Node24</title>
<path fill="none" stroke="#63b8ff" d="M735.74,-219.75C728.84,-212.43 718.78,-201.76 710.26,-192.74"/>
<polygon fill="#63b8ff" stroke="#63b8ff" points="712.88,-190.42 703.47,-185.54 707.79,-195.22 712.88,-190.42"/>
</g>
<!-- Node31&#45;&gt;Node6 -->
<g id="edge53" class="edge">
<title>Node31&#45;&gt;Node6</title>
<path fill="none" stroke="#63b8ff" d="M997.75,-164.57C1022.06,-157.95 1051.47,-146.89 1073,-129 1087.2,-117.2 1097.44,-98.63 1103.68,-84.61"/>
<polygon fill="#63b8ff" stroke="#63b8ff" points="1106.84,-86.14 1107.41,-75.56 1100.37,-83.47 1106.84,-86.14"/>
</g>
<!-- Node33&#45;&gt;Node4 -->
<g id="edge60" class="edge">
<title>Node33&#45;&gt;Node4</title>
<path fill="none" stroke="#63b8ff" d="M1955.52,-335.35C1944.03,-322.14 1921.22,-296.22 1901,-275 1892,-265.56 1881.66,-255.3 1873.17,-247.01"/>
<polygon fill="#63b8ff" stroke="#63b8ff" points="1875.82,-244.71 1866.21,-240.27 1870.95,-249.74 1875.82,-244.71"/>
</g>
<!-- Node33&#45;&gt;Node6 -->
<g id="edge74" class="edge">
<title>Node33&#45;&gt;Node6</title>
<path fill="none" stroke="#63b8ff" d="M1965.13,-335.03C1972.86,-299.95 1995.67,-170.93 1929,-110 1900.68,-84.12 1338.96,-70.25 1163.14,-66.53"/>
<polygon fill="#63b8ff" stroke="#63b8ff" points="1163.47,-63.04 1153.4,-66.33 1163.32,-70.04 1163.47,-63.04"/>
</g>
<!-- Node33&#45;&gt;Node13 -->
<g id="edge73" class="edge">
<title>Node33&#45;&gt;Node13</title>
<path fill="none" stroke="#63b8ff" d="M1953.43,-335.18C1937,-320.52 1901.82,-291.14 1867,-275 1823.39,-254.78 1769.35,-242.94 1732.33,-236.62"/>
<polygon fill="#63b8ff" stroke="#63b8ff" points="1733.34,-233.24 1722.91,-235.08 1732.21,-240.15 1733.34,-233.24"/>
</g>
<!-- Node34 -->
<g id="node34" class="node">
<title>Node34</title>
<g id="a_node34"><a xlink:href="linklist_8h.html" target="_top" xlink:title=" ">
<polygon fill="white" stroke="#666666" points="2279.5,-294 2146.5,-294 2146.5,-275 2279.5,-275 2279.5,-294"/>
<text text-anchor="middle" x="2213" y="-282" font-family="Helvetica,sans-Serif" font-size="10.00">JSystem/JGadget/linklist.h</text>
</a>
</g>
</g>
<!-- Node33&#45;&gt;Node34 -->
<g id="edge58" class="edge">
<title>Node33&#45;&gt;Node34</title>
<path fill="none" stroke="#63b8ff" d="M2001.24,-335.05C2044.8,-324.86 2116.1,-308.17 2163.78,-297.02"/>
<polygon fill="#63b8ff" stroke="#63b8ff" points="2164.35,-300.48 2173.29,-294.79 2162.75,-293.66 2164.35,-300.48"/>
</g>
<!-- Node35 -->
<g id="node35" class="node">
<title>Node35</title>
<g id="a_node35"><a xlink:href="JUTFont_8h.html" target="_top" xlink:title=" ">
<polygon fill="white" stroke="#666666" points="2128.5,-294 1991.5,-294 1991.5,-275 2128.5,-275 2128.5,-294"/>
<text text-anchor="middle" x="2060" y="-282" font-family="Helvetica,sans-Serif" font-size="10.00">JSystem/JUtility/JUTFont.h</text>
</a>
</g>
</g>
<!-- Node33&#45;&gt;Node35 -->
<g id="edge61" class="edge">
<title>Node33&#45;&gt;Node35</title>
<path fill="none" stroke="#63b8ff" d="M1977.73,-335.12C1993.04,-325.88 2017.27,-311.27 2035.47,-300.29"/>
<polygon fill="#63b8ff" stroke="#63b8ff" points="2037.08,-303.41 2043.83,-295.25 2033.46,-297.42 2037.08,-303.41"/>
</g>
<!-- Node34&#45;&gt;Node6 -->
<g id="edge59" class="edge">
<title>Node34&#45;&gt;Node6</title>
<path fill="none" stroke="#63b8ff" d="M2219.2,-274.85C2238.5,-246.79 2293.58,-157.4 2248,-110 2209.97,-70.46 1381.66,-66.03 1163.35,-65.55"/>
<polygon fill="#63b8ff" stroke="#63b8ff" points="1163.45,-62.05 1153.44,-65.53 1163.43,-69.05 1163.45,-62.05"/>
</g>
<!-- Node36 -->
<g id="node36" class="node">
<title>Node36</title>
<g id="a_node36"><a xlink:href="TColor_8h.html" target="_top" xlink:title=" ">
<polygon fill="white" stroke="#666666" points="2126.5,-239 1999.5,-239 1999.5,-220 2126.5,-220 2126.5,-239"/>
<text text-anchor="middle" x="2063" y="-227" font-family="Helvetica,sans-Serif" font-size="10.00">JSystem/JUtility/TColor.h</text>
</a>
</g>
</g>
<!-- Node35&#45;&gt;Node36 -->
<g id="edge62" class="edge">
<title>Node35&#45;&gt;Node36</title>
<path fill="none" stroke="#63b8ff" d="M2060.5,-274.75C2060.86,-268.27 2061.38,-259.16 2061.85,-250.9"/>
<polygon fill="#63b8ff" stroke="#63b8ff" points="2065.34,-251.13 2062.41,-240.95 2058.35,-250.74 2065.34,-251.13"/>
</g>
<!-- Node41 -->
<g id="node41" class="node">
<title>Node41</title>
<g id="a_node41"><a xlink:href="string_8h.html" target="_top" xlink:title=" ">
<polygon fill="white" stroke="#666666" points="2198,-239 2150,-239 2150,-220 2198,-220 2198,-239"/>
<text text-anchor="middle" x="2174" y="-227" font-family="Helvetica,sans-Serif" font-size="10.00">string.h</text>
</a>
</g>
</g>
<!-- Node35&#45;&gt;Node41 -->
<g id="edge70" class="edge">
<title>Node35&#45;&gt;Node41</title>
<path fill="none" stroke="#63b8ff" d="M2079.34,-274.51C2097.22,-266.2 2124.04,-253.73 2144.57,-244.18"/>
<polygon fill="#63b8ff" stroke="#63b8ff" points="2145.98,-247.39 2153.57,-240 2143.03,-241.04 2145.98,-247.39"/>
</g>
<!-- Node37 -->
<g id="node37" class="node">
<title>Node37</title>
<g id="a_node37"><a xlink:href="GXStruct_8h.html" target="_top" xlink:title=" ">
<polygon fill="white" stroke="#666666" points="2124.5,-184 2013.5,-184 2013.5,-165 2124.5,-165 2124.5,-184"/>
<text text-anchor="middle" x="2069" y="-172" font-family="Helvetica,sans-Serif" font-size="10.00">dolphin/gx/GXStruct.h</text>
</a>
</g>
</g>
<!-- Node36&#45;&gt;Node37 -->
<g id="edge63" class="edge">
<title>Node36&#45;&gt;Node37</title>
<path fill="none" stroke="#63b8ff" d="M2063.99,-219.75C2064.73,-213.19 2065.78,-203.95 2066.72,-195.6"/>
<polygon fill="#63b8ff" stroke="#63b8ff" points="2070.17,-196.28 2067.82,-185.95 2063.21,-195.49 2070.17,-196.28"/>
</g>
<!-- Node37&#45;&gt;Node38 -->
<g id="edge64" class="edge">
<title>Node37&#45;&gt;Node38</title>
<path fill="none" stroke="#63b8ff" d="M2093.6,-164.51C2117.07,-155.93 2152.67,-142.92 2179.07,-133.27"/>
<polygon fill="#63b8ff" stroke="#63b8ff" points="2180.15,-136.6 2188.34,-129.88 2177.75,-130.02 2180.15,-136.6"/>
</g>
<!-- Node39 -->
<g id="node39" class="node">
<title>Node39</title>
<g id="a_node39"><a xlink:href="GXEnum_8h.html" target="_top" xlink:title=" ">
<polygon fill="white" stroke="#666666" points="2171,-129 2061,-129 2061,-110 2171,-110 2171,-129"/>
<text text-anchor="middle" x="2116" y="-117" font-family="Helvetica,sans-Serif" font-size="10.00">dolphin/gx/GXEnum.h</text>
</a>
</g>
</g>
<!-- Node37&#45;&gt;Node39 -->
<g id="edge66" class="edge">
<title>Node37&#45;&gt;Node39</title>
<path fill="none" stroke="#63b8ff" d="M2076.76,-164.75C2083.19,-157.5 2092.51,-146.98 2100.46,-138.02"/>
<polygon fill="#63b8ff" stroke="#63b8ff" points="2103.05,-140.38 2107.07,-130.57 2097.81,-135.73 2103.05,-140.38"/>
</g>
<!-- Node40 -->
<g id="node40" class="node">
<title>Node40</title>
<g id="a_node40"><a xlink:href="vi_8h.html" target="_top" xlink:title=" ">
<polygon fill="white" stroke="#666666" points="2042.5,-129 1977.5,-129 1977.5,-110 2042.5,-110 2042.5,-129"/>
<text text-anchor="middle" x="2010" y="-117" font-family="Helvetica,sans-Serif" font-size="10.00">dolphin/vi.h</text>
</a>
</g>
</g>
<!-- Node37&#45;&gt;Node40 -->
<g id="edge68" class="edge">
<title>Node37&#45;&gt;Node40</title>
<path fill="none" stroke="#63b8ff" d="M2058.99,-164.51C2050.63,-157 2038.5,-146.1 2028.4,-137.03"/>
<polygon fill="#63b8ff" stroke="#63b8ff" points="2030.76,-134.45 2020.99,-130.37 2026.09,-139.66 2030.76,-134.45"/>
</g>
<!-- Node38&#45;&gt;Node6 -->
<g id="edge65" class="edge">
<title>Node38&#45;&gt;Node6</title>
<path fill="none" stroke="#63b8ff" d="M2188.86,-111.61C2185.89,-110.98 2182.89,-110.42 2180,-110 1980.21,-81.17 1349.16,-69.22 1163.11,-66.27"/>
<polygon fill="#63b8ff" stroke="#63b8ff" points="1163.33,-62.77 1153.27,-66.11 1163.22,-69.77 1163.33,-62.77"/>
</g>
<!-- Node39&#45;&gt;Node6 -->
<g id="edge67" class="edge">
<title>Node39&#45;&gt;Node6</title>
<path fill="none" stroke="#63b8ff" d="M2060.72,-110.95C2057.43,-110.6 2054.17,-110.28 2051,-110 1713.46,-79.99 1305.8,-69.4 1163.24,-66.46"/>
<polygon fill="#63b8ff" stroke="#63b8ff" points="1163.43,-62.96 1153.37,-66.26 1163.29,-69.96 1163.43,-62.96"/>
</g>
<!-- Node40&#45;&gt;Node6 -->
<g id="edge69" class="edge">
<title>Node40&#45;&gt;Node6</title>
<path fill="none" stroke="#63b8ff" d="M1977.21,-112.02C1972.46,-111.24 1967.61,-110.54 1963,-110 1661.65,-75.02 1297.13,-67.53 1163.41,-65.93"/>
<polygon fill="#63b8ff" stroke="#63b8ff" points="1163.5,-62.43 1153.46,-65.82 1163.42,-69.43 1163.5,-62.43"/>
</g>
<!-- Node41&#45;&gt;Node7 -->
<g id="edge71" class="edge">
<title>Node41&#45;&gt;Node7</title>
<path fill="none" stroke="#63b8ff" d="M2187.11,-219.62C2215.81,-199.13 2279.25,-147.42 2248,-110 2182.05,-31.05 1848.07,-14.62 1735.27,-11.31"/>
<polygon fill="#63b8ff" stroke="#63b8ff" points="1735.45,-7.81 1725.36,-11.04 1735.26,-14.81 1735.45,-7.81"/>
</g>
<!-- Node42 -->
<g id="node42" class="node">
<title>Node42</title>
<g id="a_node42"><a xlink:href="extras_8h.html" target="_top" xlink:title=" ">
<polygon fill="white" stroke="#666666" points="2199,-184 2149,-184 2149,-165 2199,-165 2199,-184"/>
<text text-anchor="middle" x="2174" y="-172" font-family="Helvetica,sans-Serif" font-size="10.00">extras.h</text>
</a>
</g>
</g>
<!-- Node41&#45;&gt;Node42 -->
<g id="edge72" class="edge">
<title>Node41&#45;&gt;Node42</title>
<path fill="none" stroke="#63b8ff" d="M2174,-219.75C2174,-213.27 2174,-204.16 2174,-195.9"/>
<polygon fill="#63b8ff" stroke="#63b8ff" points="2177.5,-195.96 2174,-185.96 2170.5,-195.96 2177.5,-195.96"/>
</g>
</g>
</svg>
        <g id="navigator" transform="translate(0 0)" fill="#404254">
                <rect fill="#f2f5e9" fill-opacity="0.5" stroke="#606060" stroke-width=".5" x="0" y="0" width="60" height="60"/>
                <use id="zoomplus" xlink:href="#zoomPlus" x="17" y="9" onmousedown="handleZoom(evt,'in')"/>
                <use id="zoomminus" xlink:href="#zoomMin" x="42" y="9" onmousedown="handleZoom(evt,'out')"/>
                <use id="reset" xlink:href="#resetDef" x="30" y="36" onmousedown="handleReset()"/>
                <g id="arrowUp" xlink:href="#dirArrow" transform="translate(30 24)" onmousedown="handlePan(0,-1)">
                  <use xlink:href="#rim" fill="#404040">
                        <set attributeName="fill" to="#808080" begin="arrowUp.mouseover" end="arrowUp.mouseout"/>
                  </use>
                  <path fill="none" stroke="white" stroke-width="1.5" d="M0,-3.0v7 M-2.5,-0.5L0,-3.0L2.5,-0.5"/>
                </g>
                <g id="arrowRight" xlink:href="#dirArrow" transform="rotate(90) translate(36 -43)" onmousedown="handlePan(1,0)">
                  <use xlink:href="#rim" fill="#404040">
                        <set attributeName="fill" to="#808080" begin="arrowRight.mouseover" end="arrowRight.mouseout"/>
                  </use>
                  <path fill="none" stroke="white" stroke-width="1.5" d="M0,-3.0v7 M-2.5,-0.5L0,-3.0L2.5,-0.5"/>
                </g>
                <g id="arrowDown" xlink:href="#dirArrow" transform="rotate(180) translate(-30 -48)" onmousedown="handlePan(0,1)">
                  <use xlink:href="#rim" fill="#404040">
                        <set attributeName="fill" to="#808080" begin="arrowDown.mouseover" end="arrowDown.mouseout"/>
                  </use>
                  <path fill="none" stroke="white" stroke-width="1.5" d="M0,-3.0v7 M-2.5,-0.5L0,-3.0L2.5,-0.5"/>
                </g>
                <g id="arrowLeft" xlink:href="#dirArrow" transform="rotate(270) translate(-36 17)" onmousedown="handlePan(-1,0)">
                  <use xlink:href="#rim" fill="#404040">
                        <set attributeName="fill" to="#808080" begin="arrowLeft.mouseover" end="arrowLeft.mouseout"/>
                  </use>
                  <path fill="none" stroke="white" stroke-width="1.5" d="M0,-3.0v7 M-2.5,-0.5L0,-3.0L2.5,-0.5"/>
                </g>
        </g>
        <svg viewBox="0 0 15 15" width="100%" height="30px" preserveAspectRatio="xMaxYMin meet">
         <g id="arrow_out" transform="scale(0.3 0.3)">
          <a xlink:href="JKRSolidHeap_8cpp__incl_org.svg" target="_base">
           <rect id="button" ry="5" rx="5" y="6" x="6" height="38" width="38"
                fill="#f2f5e9" fill-opacity="0.5" stroke="#606060" stroke-width="1.0"/>
           <path id="arrow"
             d="M 11.500037,31.436501 C 11.940474,20.09759 22.043105,11.32322 32.158766,21.979434 L 37.068811,17.246167 C 37.068811,17.246167 37.088388,32 37.088388,32 L 22.160133,31.978069 C 22.160133,31.978069 26.997745,27.140456 26.997745,27.140456 C 18.528582,18.264221 13.291696,25.230495 11.500037,31.436501 z"
             style="fill:#404040;"/>
          </a>
         </g>
        </svg>
</svg>
