<?xml version="1.0" encoding="UTF-8" standalone="no"?>
<!DOCTYPE svg PUBLIC "-//W3C//DTD SVG 1.1//EN"
 "http://www.w3.org/Graphics/SVG/1.1/DTD/svg11.dtd">
<!-- Generated by graphviz version 7.0.5 (20221223.1930)
 -->
<!-- Title: include/JSystem/JMath/JMath.h Pages: 1 -->
<svg width="2974pt" height="610pt"
 viewBox="0.00 0.00 2974.00 610.00" xmlns="http://www.w3.org/2000/svg" xmlns:xlink="http://www.w3.org/1999/xlink">
<g id="graph0" class="graph" transform="scale(1 1) rotate(0) translate(4 606)">
<title>include/JSystem/JMath/JMath.h</title>
<!-- Node1 -->
<g id="node1" class="node">
<title>Node1</title>
<g id="a_node1"><a xlink:title=" ">
<polygon fill="#999999" stroke="#666666" points="2466.5,-602 2347.5,-602 2347.5,-572 2466.5,-572 2466.5,-602"/>
<text text-anchor="start" x="2355.5" y="-590" font-family="Helvetica,sans-Serif" font-size="10.00">include/JSystem/JMath</text>
<text text-anchor="middle" x="2407" y="-579" font-family="Helvetica,sans-Serif" font-size="10.00">/JMath.h</text>
</a>
</g>
</g>
<!-- Node2 -->
<g id="node2" class="node">
<title>Node2</title>
<g id="a_node2"><a xlink:href="TPosition3_8hh.html" target="_top" xlink:title=" ">
<polygon fill="white" stroke="#666666" points="2245.5,-530.5 2094.5,-530.5 2094.5,-511.5 2245.5,-511.5 2245.5,-530.5"/>
<text text-anchor="middle" x="2170" y="-518.5" font-family="Helvetica,sans-Serif" font-size="10.00">include/JSystem/TPosition3.hh</text>
</a>
</g>
</g>
<!-- Node1&#45;&gt;Node2 -->
<g id="edge1" class="edge">
<title>Node1&#45;&gt;Node2</title>
<path fill="none" stroke="#63b8ff" d="M2342.66,-568.63C2297.59,-556.46 2239.21,-540.69 2203.19,-530.96"/>
<polygon fill="#63b8ff" stroke="#63b8ff" points="2341.49,-571.93 2352.06,-571.16 2343.31,-565.18 2341.49,-571.93"/>
</g>
<!-- Node9 -->
<g id="node9" class="node">
<title>Node9</title>
<g id="a_node9"><a xlink:href="d__a__alink_8cpp.html" target="_top" xlink:title=" ">
<polygon fill="white" stroke="#666666" points="308.5,-24.5 199.5,-24.5 199.5,-5.5 308.5,-5.5 308.5,-24.5"/>
<text text-anchor="middle" x="254" y="-12.5" font-family="Helvetica,sans-Serif" font-size="10.00">src/d/a/d_a_alink.cpp</text>
</a>
</g>
</g>
<!-- Node1&#45;&gt;Node9 -->
<g id="edge72" class="edge">
<title>Node1&#45;&gt;Node9</title>
<path fill="none" stroke="#63b8ff" d="M2335.87,-586.13C2021.25,-586.41 752.88,-584.47 358,-536 196.18,-516.14 0,-619.04 0,-456 0,-456 0,-456 0,-146 0,-107.19 5.1,-90.75 35,-66 59.63,-45.61 142.58,-30.82 199.02,-22.83"/>
<polygon fill="#63b8ff" stroke="#63b8ff" points="2335.58,-589.63 2345.58,-586.12 2335.58,-582.63 2335.58,-589.63"/>
</g>
<!-- Node149 -->
<g id="node14" class="node">
<title>Node149</title>
<g id="a_node14"><a xlink:href="d__cc__s_8cpp.html" target="_top" xlink:title=" ">
<polygon fill="white" stroke="#666666" points="940,-90.5 836,-90.5 836,-71.5 940,-71.5 940,-90.5"/>
<text text-anchor="middle" x="888" y="-78.5" font-family="Helvetica,sans-Serif" font-size="10.00">src/d/cc/d_cc_s.cpp</text>
</a>
</g>
</g>
<!-- Node1&#45;&gt;Node149 -->
<g id="edge73" class="edge">
<title>Node1&#45;&gt;Node149</title>
<path fill="none" stroke="#63b8ff" d="M2335.85,-585.59C1958.77,-582.99 211,-565.03 211,-456 211,-456 211,-456 211,-272.5 211,-230.81 232.62,-220.06 268,-198 283.86,-188.11 579.6,-135.29 598,-132 698.99,-113.94 725.24,-115.31 826,-96 833.8,-94.5 842.12,-92.74 850.05,-90.98"/>
<polygon fill="#63b8ff" stroke="#63b8ff" points="2335.59,-589.09 2345.61,-585.66 2335.63,-582.09 2335.59,-589.09"/>
</g>
<!-- Node159 -->
<g id="node16" class="node">
<title>Node159</title>
<g id="a_node16"><a xlink:href="d__ky__thunder_8cpp.html" target="_top" xlink:title=" ">
<polygon fill="white" stroke="#666666" points="2167.5,-90.5 2050.5,-90.5 2050.5,-71.5 2167.5,-71.5 2167.5,-90.5"/>
<text text-anchor="middle" x="2109" y="-78.5" font-family="Helvetica,sans-Serif" font-size="10.00">src/d/d_ky_thunder.cpp</text>
</a>
</g>
</g>
<!-- Node1&#45;&gt;Node159 -->
<g id="edge74" class="edge">
<title>Node1&#45;&gt;Node159</title>
<path fill="none" stroke="#63b8ff" d="M2388.39,-562.44C2382.77,-554.42 2377.03,-545.15 2373,-536 2358.26,-502.56 2354,-492.54 2354,-456 2354,-456 2354,-456 2354,-212 2354,-128.1 2240.49,-98.18 2168,-87.64"/>
<polygon fill="#63b8ff" stroke="#63b8ff" points="2385.43,-564.32 2394.16,-570.31 2391.07,-560.17 2385.43,-564.32"/>
</g>
<!-- Node379 -->
<g id="node47" class="node">
<title>Node379</title>
<g id="a_node47"><a xlink:href="J3DJoint_8cpp.html" target="_top" xlink:title=" ">
<polygon fill="white" stroke="#666666" points="2540,-536 2382,-536 2382,-506 2540,-506 2540,-536"/>
<text text-anchor="start" x="2390" y="-524" font-family="Helvetica,sans-Serif" font-size="10.00">libs/JSystem/J3DGraphAnimator</text>
<text text-anchor="middle" x="2461" y="-513" font-family="Helvetica,sans-Serif" font-size="10.00">/J3DJoint.cpp</text>
</a>
</g>
</g>
<!-- Node1&#45;&gt;Node379 -->
<g id="edge69" class="edge">
<title>Node1&#45;&gt;Node379</title>
<path fill="none" stroke="#63b8ff" d="M2426.2,-563.24C2433.82,-554.21 2442.34,-544.11 2449.05,-536.16"/>
<polygon fill="#63b8ff" stroke="#63b8ff" points="2423.73,-560.74 2419.96,-570.64 2429.08,-565.25 2423.73,-560.74"/>
</g>
<!-- Node380 -->
<g id="node48" class="node">
<title>Node380</title>
<g id="a_node48"><a xlink:href="J3DStruct_8cpp.html" target="_top" xlink:title=" ">
<polygon fill="white" stroke="#666666" points="2700,-536 2558,-536 2558,-506 2700,-506 2700,-536"/>
<text text-anchor="start" x="2566" y="-524" font-family="Helvetica,sans-Serif" font-size="10.00">libs/JSystem/J3DGraphBase</text>
<text text-anchor="middle" x="2629" y="-513" font-family="Helvetica,sans-Serif" font-size="10.00">/J3DStruct.cpp</text>
</a>
</g>
</g>
<!-- Node1&#45;&gt;Node380 -->
<g id="edge70" class="edge">
<title>Node1&#45;&gt;Node380</title>
<path fill="none" stroke="#63b8ff" d="M2468.12,-568.38C2503.02,-558.32 2546.23,-545.86 2579.08,-536.39"/>
<polygon fill="#63b8ff" stroke="#63b8ff" points="2467.19,-565 2458.55,-571.14 2469.13,-571.73 2467.19,-565"/>
</g>
<!-- Node381 -->
<g id="node49" class="node">
<title>Node381</title>
<g id="a_node49"><a xlink:href="JMath_8cpp.html" target="_top" xlink:title=" ">
<polygon fill="white" stroke="#666666" points="2821.5,-536 2718.5,-536 2718.5,-506 2821.5,-506 2821.5,-536"/>
<text text-anchor="start" x="2726.5" y="-524" font-family="Helvetica,sans-Serif" font-size="10.00">libs/JSystem/JMath</text>
<text text-anchor="middle" x="2770" y="-513" font-family="Helvetica,sans-Serif" font-size="10.00">/JMath.cpp</text>
</a>
</g>
</g>
<!-- Node1&#45;&gt;Node381 -->
<g id="edge71" class="edge">
<title>Node1&#45;&gt;Node381</title>
<path fill="none" stroke="#63b8ff" d="M2477.89,-575.52C2539.23,-566.16 2630.22,-551.55 2709,-536 2711.98,-535.41 2715.05,-534.78 2718.13,-534.13"/>
<polygon fill="#63b8ff" stroke="#63b8ff" points="2477.65,-572.02 2468.29,-576.98 2478.7,-578.94 2477.65,-572.02"/>
</g>
<!-- Node382 -->
<g id="node50" class="node">
<title>Node382</title>
<g id="a_node50"><a xlink:href="m__Do__mtx_8cpp.html" target="_top" xlink:title=" ">
<polygon fill="white" stroke="#666666" points="2966,-530.5 2840,-530.5 2840,-511.5 2966,-511.5 2966,-530.5"/>
<text text-anchor="middle" x="2903" y="-518.5" font-family="Helvetica,sans-Serif" font-size="10.00">src/m_Do/m_Do_mtx.cpp</text>
</a>
</g>
</g>
<!-- Node1&#45;&gt;Node382 -->
<g id="edge75" class="edge">
<title>Node1&#45;&gt;Node382</title>
<path fill="none" stroke="#63b8ff" d="M2478.13,-579.25C2562.53,-570.86 2707.42,-555.27 2831,-536 2840.31,-534.55 2850.25,-532.77 2859.69,-530.97"/>
<polygon fill="#63b8ff" stroke="#63b8ff" points="2477.99,-575.75 2468.38,-580.21 2478.68,-582.71 2477.99,-575.75"/>
</g>
<!-- Node3 -->
<g id="node3" class="node">
<title>Node3</title>
<g id="a_node3"><a xlink:href="Z2Audience_8h.html" target="_top" xlink:title=" ">
<polygon fill="white" stroke="#666666" points="2179,-470 2079,-470 2079,-440 2179,-440 2179,-470"/>
<text text-anchor="start" x="2087" y="-458" font-family="Helvetica,sans-Serif" font-size="10.00">include/Z2AudioLib</text>
<text text-anchor="middle" x="2129" y="-447" font-family="Helvetica,sans-Serif" font-size="10.00">/Z2Audience.h</text>
</a>
</g>
</g>
<!-- Node2&#45;&gt;Node3 -->
<g id="edge2" class="edge">
<title>Node2&#45;&gt;Node3</title>
<path fill="none" stroke="#63b8ff" d="M2158.27,-501.7C2151.87,-491.7 2144.06,-479.51 2138.12,-470.23"/>
<polygon fill="#63b8ff" stroke="#63b8ff" points="2155.14,-503.29 2163.48,-509.83 2161.04,-499.52 2155.14,-503.29"/>
</g>
<!-- Node4 -->
<g id="node4" class="node">
<title>Node4</title>
<g id="a_node4"><a xlink:href="Z2AudioMgr_8h.html" target="_top" xlink:title=" ">
<polygon fill="white" stroke="#666666" points="1992,-404 1892,-404 1892,-374 1992,-374 1992,-404"/>
<text text-anchor="start" x="1900" y="-392" font-family="Helvetica,sans-Serif" font-size="10.00">include/Z2AudioLib</text>
<text text-anchor="middle" x="1942" y="-381" font-family="Helvetica,sans-Serif" font-size="10.00">/Z2AudioMgr.h</text>
</a>
</g>
</g>
<!-- Node3&#45;&gt;Node4 -->
<g id="edge3" class="edge">
<title>Node3&#45;&gt;Node4</title>
<path fill="none" stroke="#63b8ff" d="M2076.22,-435.94C2047.09,-425.97 2011.4,-413.75 1984.15,-404.43"/>
<polygon fill="#63b8ff" stroke="#63b8ff" points="2075.01,-439.22 2085.6,-439.15 2077.27,-432.6 2075.01,-439.22"/>
</g>
<!-- Node377 -->
<g id="node45" class="node">
<title>Node377</title>
<g id="a_node45"><a xlink:href="Z2Audience_8cpp.html" target="_top" xlink:title=" ">
<polygon fill="white" stroke="#666666" points="2167.5,-398.5 2010.5,-398.5 2010.5,-379.5 2167.5,-379.5 2167.5,-398.5"/>
<text text-anchor="middle" x="2089" y="-386.5" font-family="Helvetica,sans-Serif" font-size="10.00">libs/Z2AudioLib/Z2Audience.cpp</text>
</a>
</g>
</g>
<!-- Node3&#45;&gt;Node377 -->
<g id="edge67" class="edge">
<title>Node3&#45;&gt;Node377</title>
<path fill="none" stroke="#63b8ff" d="M2114.17,-430.28C2107.32,-419.31 2099.59,-406.94 2094.53,-398.84"/>
<polygon fill="#63b8ff" stroke="#63b8ff" points="2111.05,-431.89 2119.32,-438.51 2116.99,-428.18 2111.05,-431.89"/>
</g>
<!-- Node378 -->
<g id="node46" class="node">
<title>Node378</title>
<g id="a_node46"><a xlink:href="Z2WolfHowlMgr_8cpp.html" target="_top" xlink:title=" ">
<polygon fill="white" stroke="#666666" points="2326,-404 2186,-404 2186,-374 2326,-374 2326,-404"/>
<text text-anchor="start" x="2194" y="-392" font-family="Helvetica,sans-Serif" font-size="10.00">libs/Z2AudioLib/Z2WolfHowl</text>
<text text-anchor="middle" x="2256" y="-381" font-family="Helvetica,sans-Serif" font-size="10.00">Mgr.cpp</text>
</a>
</g>
</g>
<!-- Node3&#45;&gt;Node378 -->
<g id="edge68" class="edge">
<title>Node3&#45;&gt;Node378</title>
<path fill="none" stroke="#63b8ff" d="M2167.52,-434.59C2186.86,-424.84 2209.88,-413.24 2227.59,-404.31"/>
<polygon fill="#63b8ff" stroke="#63b8ff" points="2166.21,-431.33 2158.85,-438.96 2169.36,-437.58 2166.21,-431.33"/>
</g>
<!-- Node5 -->
<g id="node5" class="node">
<title>Node5</title>
<g id="a_node5"><a xlink:href="m__Do__audio_8h.html" target="_top" xlink:title=" ">
<polygon fill="white" stroke="#666666" points="1994,-338 1854,-338 1854,-319 1994,-319 1994,-338"/>
<text text-anchor="middle" x="1924" y="-326" font-family="Helvetica,sans-Serif" font-size="10.00">include/m_Do/m_Do_audio.h</text>
</a>
</g>
</g>
<!-- Node4&#45;&gt;Node5 -->
<g id="edge4" class="edge">
<title>Node4&#45;&gt;Node5</title>
<path fill="none" stroke="#63b8ff" d="M1934.18,-362.59C1931.49,-353.85 1928.66,-344.65 1926.67,-338.18"/>
<polygon fill="#63b8ff" stroke="#63b8ff" points="1930.82,-363.56 1937.11,-372.09 1937.51,-361.51 1930.82,-363.56"/>
</g>
<!-- Node376 -->
<g id="node44" class="node">
<title>Node376</title>
<g id="a_node44"><a xlink:href="Z2AudioMgr_8cpp.html" target="_top" xlink:title=" ">
<polygon fill="white" stroke="#666666" points="2170,-338 2012,-338 2012,-319 2170,-319 2170,-338"/>
<text text-anchor="middle" x="2091" y="-326" font-family="Helvetica,sans-Serif" font-size="10.00">libs/Z2AudioLib/Z2AudioMgr.cpp</text>
</a>
</g>
</g>
<!-- Node4&#45;&gt;Node376 -->
<g id="edge66" class="edge">
<title>Node4&#45;&gt;Node376</title>
<path fill="none" stroke="#63b8ff" d="M1989.42,-369.38C2015.87,-359 2047.59,-346.54 2068.47,-338.35"/>
<polygon fill="#63b8ff" stroke="#63b8ff" points="1988.27,-366.07 1980.24,-372.99 1990.83,-372.59 1988.27,-366.07"/>
</g>
<!-- Node6 -->
<g id="node6" class="node">
<title>Node6</title>
<g id="a_node6"><a xlink:href="m__Do__ext_8h.html" target="_top" xlink:title=" ">
<polygon fill="white" stroke="#666666" points="1042,-283 912,-283 912,-264 1042,-264 1042,-283"/>
<text text-anchor="middle" x="977" y="-271" font-family="Helvetica,sans-Serif" font-size="10.00">include/m_Do/m_Do_ext.h</text>
</a>
</g>
</g>
<!-- Node5&#45;&gt;Node6 -->
<g id="edge5" class="edge">
<title>Node5&#45;&gt;Node6</title>
<path fill="none" stroke="#63b8ff" d="M1842.34,-322.93C1657.62,-312.59 1210.68,-287.58 1042.48,-278.16"/>
<polygon fill="#63b8ff" stroke="#63b8ff" points="1841.9,-326.41 1852.08,-323.48 1842.29,-319.42 1841.9,-326.41"/>
</g>
<!-- Node11 -->
<g id="node10" class="node">
<title>Node11</title>
<g id="a_node10"><a xlink:href="d__com__inf__game_8cpp.html" target="_top" xlink:title=" ">
<polygon fill="white" stroke="#666666" points="688,-30 580,-30 580,0 688,0 688,-30"/>
<text text-anchor="start" x="588" y="-18" font-family="Helvetica,sans-Serif" font-size="10.00">src/d/com/d_com_inf</text>
<text text-anchor="middle" x="634" y="-7" font-family="Helvetica,sans-Serif" font-size="10.00">_game.cpp</text>
</a>
</g>
</g>
<!-- Node5&#45;&gt;Node11 -->
<g id="edge55" class="edge">
<title>Node5&#45;&gt;Node11</title>
<path fill="none" stroke="#63b8ff" d="M1842.43,-327.65C1557.71,-327.81 609.06,-325.08 308,-283 185.34,-265.86 38,-337.86 38,-214 38,-214 38,-214 38,-146 38,-109.46 29.33,-89.88 57,-66 76.64,-49.05 439.59,-26.94 579.57,-19"/>
<polygon fill="#63b8ff" stroke="#63b8ff" points="1842.37,-331.15 1852.37,-327.65 1842.36,-324.15 1842.37,-331.15"/>
</g>
<!-- Node16 -->
<g id="node11" class="node">
<title>Node16</title>
<g id="a_node11"><a xlink:href="d__msg__flow_8cpp.html" target="_top" xlink:title=" ">
<polygon fill="white" stroke="#666666" points="1602.5,-24.5 1469.5,-24.5 1469.5,-5.5 1602.5,-5.5 1602.5,-24.5"/>
<text text-anchor="middle" x="1536" y="-12.5" font-family="Helvetica,sans-Serif" font-size="10.00">src/d/msg/d_msg_flow.cpp</text>
</a>
</g>
</g>
<!-- Node5&#45;&gt;Node16 -->
<g id="edge60" class="edge">
<title>Node5&#45;&gt;Node16</title>
<path fill="none" stroke="#63b8ff" d="M2005.41,-318.11C2107.62,-306.19 2270.38,-286.73 2276,-283 2305.54,-263.41 2316,-249.45 2316,-214 2316,-214 2316,-214 2316,-146 2316,-74.34 2244.49,-87.08 2176,-66 2070.41,-33.5 1744.54,-21.35 1602.89,-17.52"/>
<polygon fill="#63b8ff" stroke="#63b8ff" points="2005.22,-314.61 1995.69,-319.24 2006.03,-321.56 2005.22,-314.61"/>
</g>
<!-- Node162 -->
<g id="node17" class="node">
<title>Node162</title>
<g id="a_node17"><a xlink:href="d__name_8cpp.html" target="_top" xlink:title=" ">
<polygon fill="white" stroke="#666666" points="1748,-90.5 1654,-90.5 1654,-71.5 1748,-71.5 1748,-90.5"/>
<text text-anchor="middle" x="1701" y="-78.5" font-family="Helvetica,sans-Serif" font-size="10.00">src/d/d_name.cpp</text>
</a>
</g>
</g>
<!-- Node5&#45;&gt;Node162 -->
<g id="edge56" class="edge">
<title>Node5&#45;&gt;Node162</title>
<path fill="none" stroke="#63b8ff" d="M2005.29,-318.5C2075.29,-309.91 2166.79,-296.34 2178,-283 2221.17,-231.61 2223.39,-181.43 2178,-132 2146.25,-97.42 1803.31,-103.72 1757,-96 1749.19,-94.7 1740.87,-92.87 1733.09,-90.96"/>
<polygon fill="#63b8ff" stroke="#63b8ff" points="2005.27,-314.98 1995.76,-319.65 2006.11,-321.93 2005.27,-314.98"/>
</g>
<!-- Node172 -->
<g id="node18" class="node">
<title>Node172</title>
<g id="a_node18"><a xlink:href="d__event__manager_8cpp.html" target="_top" xlink:title=" ">
<polygon fill="white" stroke="#666666" points="1501.5,-96 1398.5,-96 1398.5,-66 1501.5,-66 1501.5,-96"/>
<text text-anchor="start" x="1406.5" y="-84" font-family="Helvetica,sans-Serif" font-size="10.00">src/d/event/d_event</text>
<text text-anchor="middle" x="1450" y="-73" font-family="Helvetica,sans-Serif" font-size="10.00">_manager.cpp</text>
</a>
</g>
</g>
<!-- Node5&#45;&gt;Node172 -->
<g id="edge57" class="edge">
<title>Node5&#45;&gt;Node172</title>
<path fill="none" stroke="#63b8ff" d="M1873.03,-315.48C1837.8,-304.81 1800.65,-287.3 1821,-264 1899.19,-174.48 1995.01,-304.47 2086,-228 2119.44,-199.9 2136.94,-163.8 2107,-132 2061.52,-83.69 1576.67,-105.45 1511,-96 1507.99,-95.57 1504.91,-95.06 1501.8,-94.5"/>
<polygon fill="#63b8ff" stroke="#63b8ff" points="1871.8,-318.76 1882.38,-318.15 1873.72,-312.03 1871.8,-318.76"/>
</g>
<!-- Node176 -->
<g id="node19" class="node">
<title>Node176</title>
<g id="a_node19"><a xlink:href="d__kankyo__wether_8cpp.html" target="_top" xlink:title=" ">
<polygon fill="white" stroke="#666666" points="1636,-96 1520,-96 1520,-66 1636,-66 1636,-96"/>
<text text-anchor="start" x="1528" y="-84" font-family="Helvetica,sans-Serif" font-size="10.00">src/d/kankyo/d_kankyo</text>
<text text-anchor="middle" x="1578" y="-73" font-family="Helvetica,sans-Serif" font-size="10.00">_wether.cpp</text>
</a>
</g>
</g>
<!-- Node5&#45;&gt;Node176 -->
<g id="edge59" class="edge">
<title>Node5&#45;&gt;Node176</title>
<path fill="none" stroke="#63b8ff" d="M2000.76,-316.88C2060.81,-307.79 2135.66,-294.4 2145,-283 2157.97,-267.15 2226.7,-221.76 2140,-132 2101.69,-92.34 1699.61,-103.66 1645,-96 1642.18,-95.6 1639.29,-95.16 1636.39,-94.68"/>
<polygon fill="#63b8ff" stroke="#63b8ff" points="2000.61,-313.37 1991.24,-318.31 2001.65,-320.29 2000.61,-313.37"/>
</g>
<!-- Node193 -->
<g id="node20" class="node">
<title>Node193</title>
<g id="a_node20"><a xlink:href="d__s__name_8cpp.html" target="_top" xlink:title=" ">
<polygon fill="white" stroke="#666666" points="1879.5,-90.5 1766.5,-90.5 1766.5,-71.5 1879.5,-71.5 1879.5,-90.5"/>
<text text-anchor="middle" x="1823" y="-78.5" font-family="Helvetica,sans-Serif" font-size="10.00">src/d/s/d_s_name.cpp</text>
</a>
</g>
</g>
<!-- Node5&#45;&gt;Node193 -->
<g id="edge61" class="edge">
<title>Node5&#45;&gt;Node193</title>
<path fill="none" stroke="#63b8ff" d="M2005.6,-317.7C2089.57,-307.22 2209.1,-291.03 2216,-283 2259.73,-232.1 2260.78,-181.98 2216,-132 2167.22,-77.55 1961.18,-107.6 1889,-96 1880.21,-94.59 1870.82,-92.78 1861.97,-90.94"/>
<polygon fill="#63b8ff" stroke="#63b8ff" points="2005.26,-314.22 1995.77,-318.92 2006.12,-321.16 2005.26,-314.22"/>
</g>
<!-- Node200 -->
<g id="node21" class="node">
<title>Node200</title>
<g id="a_node21"><a xlink:href="m__Do__audio_8cpp.html" target="_top" xlink:title=" ">
<polygon fill="white" stroke="#666666" points="2032,-90.5 1898,-90.5 1898,-71.5 2032,-71.5 2032,-90.5"/>
<text text-anchor="middle" x="1965" y="-78.5" font-family="Helvetica,sans-Serif" font-size="10.00">src/m_Do/m_Do_audio.cpp</text>
</a>
</g>
</g>
<!-- Node5&#45;&gt;Node200 -->
<g id="edge65" class="edge">
<title>Node5&#45;&gt;Node200</title>
<path fill="none" stroke="#63b8ff" d="M2005.64,-317.82C2102.04,-306.2 2249.91,-287.68 2254,-283 2298.17,-232.47 2297.32,-183.26 2254,-132 2223.01,-95.34 2088.27,-104.35 2041,-96 2032.02,-94.41 2022.44,-92.68 2013.23,-90.99"/>
<polygon fill="#63b8ff" stroke="#63b8ff" points="2005.46,-314.32 1995.95,-318.98 2006.3,-321.27 2005.46,-314.32"/>
</g>
<!-- Node60 -->
<g id="node28" class="node">
<title>Node60</title>
<g id="a_node28"><a xlink:href="d__kankyo_8cpp.html" target="_top" xlink:title=" ">
<polygon fill="white" stroke="#666666" points="558,-90.5 424,-90.5 424,-71.5 558,-71.5 558,-90.5"/>
<text text-anchor="middle" x="491" y="-78.5" font-family="Helvetica,sans-Serif" font-size="10.00">src/d/kankyo/d_kankyo.cpp</text>
</a>
</g>
</g>
<!-- Node5&#45;&gt;Node60 -->
<g id="edge58" class="edge">
<title>Node5&#45;&gt;Node60</title>
<path fill="none" stroke="#63b8ff" d="M1842.36,-325.71C1516.23,-318.17 321.76,-286.62 268,-228 250.11,-208.49 270.34,-146.45 285,-132 296.3,-120.86 385.91,-102.03 443.16,-90.93"/>
<polygon fill="#63b8ff" stroke="#63b8ff" points="1842.01,-329.2 1852.08,-325.93 1842.17,-322.21 1842.01,-329.2"/>
</g>
<!-- Node65 -->
<g id="node29" class="node">
<title>Node65</title>
<g id="a_node29"><a xlink:href="d__s__play_8cpp.html" target="_top" xlink:title=" ">
<polygon fill="white" stroke="#666666" points="172,-90.5 66,-90.5 66,-71.5 172,-71.5 172,-90.5"/>
<text text-anchor="middle" x="119" y="-78.5" font-family="Helvetica,sans-Serif" font-size="10.00">src/d/s/d_s_play.cpp</text>
</a>
</g>
</g>
<!-- Node5&#45;&gt;Node65 -->
<g id="edge62" class="edge">
<title>Node5&#45;&gt;Node65</title>
<path fill="none" stroke="#63b8ff" d="M1842.58,-327.25C1576.02,-326.1 731.12,-319.57 461,-283 358.56,-269.13 322.08,-283.7 235,-228 177.73,-191.37 136.36,-116.59 123.34,-90.9"/>
<polygon fill="#63b8ff" stroke="#63b8ff" points="1842.18,-330.75 1852.19,-327.29 1842.2,-323.75 1842.18,-330.75"/>
</g>
<!-- Node21 -->
<g id="node42" class="node">
<title>Node21</title>
<g id="a_node42"><a xlink:href="d__shop__system_8cpp.html" target="_top" xlink:title=" ">
<polygon fill="white" stroke="#666666" points="1982,-283 1830,-283 1830,-264 1982,-264 1982,-283"/>
<text text-anchor="middle" x="1906" y="-271" font-family="Helvetica,sans-Serif" font-size="10.00">src/d/shop/d_shop_system.cpp</text>
</a>
</g>
</g>
<!-- Node5&#45;&gt;Node21 -->
<g id="edge63" class="edge">
<title>Node5&#45;&gt;Node21</title>
<path fill="none" stroke="#63b8ff" d="M1917.35,-307.93C1914.5,-299.53 1911.31,-290.13 1909.04,-283.44"/>
<polygon fill="#63b8ff" stroke="#63b8ff" points="1914.01,-308.97 1920.54,-317.31 1920.64,-306.72 1914.01,-308.97"/>
</g>
<!-- Node375 -->
<g id="node43" class="node">
<title>Node375</title>
<g id="a_node43"><a xlink:href="m__Do__Reset_8cpp.html" target="_top" xlink:title=" ">
<polygon fill="white" stroke="#666666" points="2136,-283 2000,-283 2000,-264 2136,-264 2136,-283"/>
<text text-anchor="middle" x="2068" y="-271" font-family="Helvetica,sans-Serif" font-size="10.00">src/m_Do/m_Do_Reset.cpp</text>
</a>
</g>
</g>
<!-- Node5&#45;&gt;Node375 -->
<g id="edge64" class="edge">
<title>Node5&#45;&gt;Node375</title>
<path fill="none" stroke="#63b8ff" d="M1959.09,-314.58C1985.41,-304.9 2020.75,-291.89 2043.93,-283.36"/>
<polygon fill="#63b8ff" stroke="#63b8ff" points="1958.02,-311.25 1949.85,-317.99 1960.44,-317.82 1958.02,-311.25"/>
</g>
<!-- Node7 -->
<g id="node7" class="node">
<title>Node7</title>
<g id="a_node7"><a xlink:href="d__attention_8h.html" target="_top" xlink:title=" ">
<polygon fill="white" stroke="#666666" points="911,-222.5 797,-222.5 797,-203.5 911,-203.5 911,-222.5"/>
<text text-anchor="middle" x="854" y="-210.5" font-family="Helvetica,sans-Serif" font-size="10.00">include/d/d_attention.h</text>
</a>
</g>
</g>
<!-- Node6&#45;&gt;Node7 -->
<g id="edge6" class="edge">
<title>Node6&#45;&gt;Node7</title>
<path fill="none" stroke="#63b8ff" d="M948.02,-258.72C924.8,-247.67 892.88,-232.49 872.86,-222.97"/>
<polygon fill="#63b8ff" stroke="#63b8ff" points="946.42,-261.83 956.95,-262.97 949.42,-255.51 946.42,-261.83"/>
</g>
<!-- Node142 -->
<g id="node13" class="node">
<title>Node142</title>
<g id="a_node13"><a xlink:href="c__dylink_8cpp.html" target="_top" xlink:title=" ">
<polygon fill="white" stroke="#666666" points="1053.5,-90.5 958.5,-90.5 958.5,-71.5 1053.5,-71.5 1053.5,-90.5"/>
<text text-anchor="middle" x="1006" y="-78.5" font-family="Helvetica,sans-Serif" font-size="10.00">src/c/c_dylink.cpp</text>
</a>
</g>
</g>
<!-- Node6&#45;&gt;Node142 -->
<g id="edge44" class="edge">
<title>Node6&#45;&gt;Node142</title>
<path fill="none" stroke="#63b8ff" d="M900.38,-268.32C853.48,-263.26 793.37,-252.19 745,-228 727.27,-219.14 729.05,-208.11 712,-198 669.93,-173.04 636.37,-201.84 608,-162 600.27,-151.14 599.08,-141.91 608,-132 658.97,-75.36 873.94,-109.12 949,-96 956.73,-94.65 964.97,-92.84 972.7,-90.98"/>
<polygon fill="#63b8ff" stroke="#63b8ff" points="899.9,-271.79 910.2,-269.3 900.6,-264.82 899.9,-271.79"/>
</g>
<!-- Node201 -->
<g id="node22" class="node">
<title>Node201</title>
<g id="a_node22"><a xlink:href="m__Do__ext_8cpp.html" target="_top" xlink:title=" ">
<polygon fill="white" stroke="#666666" points="1194.5,-90.5 1071.5,-90.5 1071.5,-71.5 1194.5,-71.5 1194.5,-90.5"/>
<text text-anchor="middle" x="1133" y="-78.5" font-family="Helvetica,sans-Serif" font-size="10.00">src/m_Do/m_Do_ext.cpp</text>
</a>
</g>
</g>
<!-- Node6&#45;&gt;Node201 -->
<g id="edge51" class="edge">
<title>Node6&#45;&gt;Node201</title>
<path fill="none" stroke="#63b8ff" d="M967.64,-253.41C954.79,-224.16 936.15,-167.88 963,-132 970.97,-121.35 1045.8,-102.26 1093.49,-91"/>
<polygon fill="#63b8ff" stroke="#63b8ff" points="964.46,-254.88 971.85,-262.47 970.81,-251.92 964.46,-254.88"/>
</g>
<!-- Node204 -->
<g id="node23" class="node">
<title>Node204</title>
<g id="a_node23"><a xlink:href="m__Do__machine__exception_8cpp.html" target="_top" xlink:title=" ">
<polygon fill="white" stroke="#666666" points="1341.5,-96 1212.5,-96 1212.5,-66 1341.5,-66 1341.5,-96"/>
<text text-anchor="start" x="1220.5" y="-84" font-family="Helvetica,sans-Serif" font-size="10.00">src/m_Do/m_Do_machine</text>
<text text-anchor="middle" x="1277" y="-73" font-family="Helvetica,sans-Serif" font-size="10.00">_exception.cpp</text>
</a>
</g>
</g>
<!-- Node6&#45;&gt;Node204 -->
<g id="edge53" class="edge">
<title>Node6&#45;&gt;Node204</title>
<path fill="none" stroke="#63b8ff" d="M977.33,-252.48C978.62,-236.05 982.9,-213.11 996,-198 1027.43,-161.77 1155.87,-118.51 1227.73,-96.47"/>
<polygon fill="#63b8ff" stroke="#63b8ff" points="973.86,-251.87 976.9,-262.02 980.85,-252.19 973.86,-251.87"/>
</g>
<!-- Node208 -->
<g id="node25" class="node">
<title>Node208</title>
<g id="a_node25"><a xlink:href="d__drawlist_8h.html" target="_top" xlink:title=" ">
<polygon fill="#fff0f0" stroke="red" points="703,-222.5 593,-222.5 593,-203.5 703,-203.5 703,-222.5"/>
<text text-anchor="middle" x="648" y="-210.5" font-family="Helvetica,sans-Serif" font-size="10.00">include/d/d_drawlist.h</text>
</a>
</g>
</g>
<!-- Node6&#45;&gt;Node208 -->
<g id="edge26" class="edge">
<title>Node6&#45;&gt;Node208</title>
<path fill="none" stroke="#63b8ff" d="M910.43,-261.68C857.84,-253 782.63,-240.27 717,-228 708.59,-226.43 699.62,-224.67 691.02,-222.94"/>
<polygon fill="#63b8ff" stroke="#63b8ff" points="909.7,-265.11 920.13,-263.28 910.84,-258.2 909.7,-265.11"/>
</g>
<!-- Node212 -->
<g id="node27" class="node">
<title>Node212</title>
<g id="a_node27"><a xlink:href="d__a__do_8h.html" target="_top" xlink:title=" ">
<polygon fill="white" stroke="#666666" points="286,-96 190,-96 190,-66 286,-66 286,-96"/>
<text text-anchor="start" x="198" y="-84" font-family="Helvetica,sans-Serif" font-size="10.00">include/rel/d/a/d_a</text>
<text text-anchor="middle" x="238" y="-73" font-family="Helvetica,sans-Serif" font-size="10.00">_do/d_a_do.h</text>
</a>
</g>
</g>
<!-- Node6&#45;&gt;Node212 -->
<g id="edge42" class="edge">
<title>Node6&#45;&gt;Node212</title>
<path fill="none" stroke="#63b8ff" d="M900.28,-273.13C724.53,-273.83 304.25,-270.94 258,-228 221.06,-193.71 229.13,-125.74 234.81,-96.23"/>
<polygon fill="#63b8ff" stroke="#63b8ff" points="900.25,-276.63 910.24,-273.09 900.22,-269.63 900.25,-276.63"/>
</g>
<!-- Node134 -->
<g id="node30" class="node">
<title>Node134</title>
<g id="a_node30"><a xlink:href="f__op__actor__mng_8cpp.html" target="_top" xlink:title=" ">
<polygon fill="white" stroke="#666666" points="405.5,-96 304.5,-96 304.5,-66 405.5,-66 405.5,-96"/>
<text text-anchor="start" x="312.5" y="-84" font-family="Helvetica,sans-Serif" font-size="10.00">src/f_op/f_op_actor</text>
<text text-anchor="middle" x="355" y="-73" font-family="Helvetica,sans-Serif" font-size="10.00">_mng.cpp</text>
</a>
</g>
</g>
<!-- Node6&#45;&gt;Node134 -->
<g id="edge47" class="edge">
<title>Node6&#45;&gt;Node134</title>
<path fill="none" stroke="#63b8ff" d="M900.31,-270.48C721.3,-265.38 289.39,-250.78 268,-228 251.13,-210.04 272.67,-149.97 285,-132 295.31,-116.98 311.69,-104.92 326.01,-96.41"/>
<polygon fill="#63b8ff" stroke="#63b8ff" points="900.12,-273.97 910.22,-270.76 900.32,-266.98 900.12,-273.97"/>
</g>
<!-- Node250 -->
<g id="node31" class="node">
<title>Node250</title>
<g id="a_node31"><a xlink:href="d__ky__thunder_8h.html" target="_top" xlink:title=" ">
<polygon fill="white" stroke="#666666" points="2098,-156.5 1974,-156.5 1974,-137.5 2098,-137.5 2098,-156.5"/>
<text text-anchor="middle" x="2036" y="-144.5" font-family="Helvetica,sans-Serif" font-size="10.00">include/d/d_ky_thunder.h</text>
</a>
</g>
</g>
<!-- Node6&#45;&gt;Node250 -->
<g id="edge35" class="edge">
<title>Node6&#45;&gt;Node250</title>
<path fill="none" stroke="#63b8ff" d="M1053.53,-272.25C1295.94,-271.08 2032.93,-264.53 2068,-228 2087.79,-207.39 2060.24,-173 2044.97,-156.87"/>
<polygon fill="#63b8ff" stroke="#63b8ff" points="1053.87,-268.75 1043.88,-272.29 1053.9,-275.75 1053.87,-268.75"/>
</g>
<!-- Node251 -->
<g id="node32" class="node">
<title>Node251</title>
<g id="a_node32"><a xlink:href="d__resorce_8h.html" target="_top" xlink:title=" ">
<polygon fill="#fff0f0" stroke="red" points="2059.5,-222.5 1950.5,-222.5 1950.5,-203.5 2059.5,-203.5 2059.5,-222.5"/>
<text text-anchor="middle" x="2005" y="-210.5" font-family="Helvetica,sans-Serif" font-size="10.00">include/d/d_resorce.h</text>
</a>
</g>
</g>
<!-- Node6&#45;&gt;Node251 -->
<g id="edge37" class="edge">
<title>Node6&#45;&gt;Node251</title>
<path fill="none" stroke="#63b8ff" d="M1053.59,-273.35C1217.26,-274.2 1612.92,-271.14 1941,-228 1950.13,-226.8 1959.9,-224.96 1968.97,-223"/>
<polygon fill="#63b8ff" stroke="#63b8ff" points="1053.75,-269.85 1043.73,-273.29 1053.71,-276.85 1053.75,-269.85"/>
</g>
<!-- Node252 -->
<g id="node33" class="node">
<title>Node252</title>
<g id="a_node33"><a xlink:href="d__kankyo_8h.html" target="_top" xlink:title=" ">
<polygon fill="#fff0f0" stroke="red" points="715,-162 617,-162 617,-132 715,-132 715,-162"/>
<text text-anchor="start" x="625" y="-150" font-family="Helvetica,sans-Serif" font-size="10.00">include/d/kankyo/d</text>
<text text-anchor="middle" x="666" y="-139" font-family="Helvetica,sans-Serif" font-size="10.00">_kankyo.h</text>
</a>
</g>
</g>
<!-- Node6&#45;&gt;Node252 -->
<g id="edge39" class="edge">
<title>Node6&#45;&gt;Node252</title>
<path fill="none" stroke="#63b8ff" d="M901.24,-261.43C865.82,-254.58 823.69,-243.95 788,-228 766.72,-218.49 764.41,-210.9 745,-198 726.48,-185.69 705.16,-172.23 689.34,-162.39"/>
<polygon fill="#63b8ff" stroke="#63b8ff" points="900.52,-264.86 911,-263.25 901.81,-257.98 900.52,-264.86"/>
</g>
<!-- Node367 -->
<g id="node34" class="node">
<title>Node367</title>
<g id="a_node34"><a xlink:href="DynamicLink_8cpp.html" target="_top" xlink:title=" ">
<polygon fill="white" stroke="#666666" points="1112.5,-222.5 1005.5,-222.5 1005.5,-203.5 1112.5,-203.5 1112.5,-222.5"/>
<text text-anchor="middle" x="1059" y="-210.5" font-family="Helvetica,sans-Serif" font-size="10.00">src/DynamicLink.cpp</text>
</a>
</g>
</g>
<!-- Node6&#45;&gt;Node367 -->
<g id="edge43" class="edge">
<title>Node6&#45;&gt;Node367</title>
<path fill="none" stroke="#63b8ff" d="M998.67,-257.04C1013.9,-246.17 1033.74,-232.02 1046.43,-222.97"/>
<polygon fill="#63b8ff" stroke="#63b8ff" points="996.79,-254.08 990.69,-262.74 1000.86,-259.78 996.79,-254.08"/>
</g>
<!-- Node368 -->
<g id="node35" class="node">
<title>Node368</title>
<g id="a_node35"><a xlink:href="d__pane__class_8cpp.html" target="_top" xlink:title=" ">
<polygon fill="white" stroke="#666666" points="1273.5,-222.5 1130.5,-222.5 1130.5,-203.5 1273.5,-203.5 1273.5,-222.5"/>
<text text-anchor="middle" x="1202" y="-210.5" font-family="Helvetica,sans-Serif" font-size="10.00">src/d/pane/d_pane_class.cpp</text>
</a>
</g>
</g>
<!-- Node6&#45;&gt;Node368 -->
<g id="edge45" class="edge">
<title>Node6&#45;&gt;Node368</title>
<path fill="none" stroke="#63b8ff" d="M1022.14,-260.76C1065.01,-249.62 1128.55,-233.1 1167.51,-222.97"/>
<polygon fill="#63b8ff" stroke="#63b8ff" points="1021.43,-257.33 1012.64,-263.23 1023.2,-264.11 1021.43,-257.33"/>
</g>
<!-- Node369 -->
<g id="node36" class="node">
<title>Node369</title>
<g id="a_node36"><a xlink:href="d__pane__class__alpha_8cpp.html" target="_top" xlink:title=" ">
<polygon fill="white" stroke="#666666" points="1416.5,-228 1291.5,-228 1291.5,-198 1416.5,-198 1416.5,-228"/>
<text text-anchor="start" x="1299.5" y="-216" font-family="Helvetica,sans-Serif" font-size="10.00">src/d/pane/d_pane_class</text>
<text text-anchor="middle" x="1354" y="-205" font-family="Helvetica,sans-Serif" font-size="10.00">_alpha.cpp</text>
</a>
</g>
</g>
<!-- Node6&#45;&gt;Node369 -->
<g id="edge46" class="edge">
<title>Node6&#45;&gt;Node369</title>
<path fill="none" stroke="#63b8ff" d="M1053.5,-262.36C1115.28,-253.92 1204.4,-241.2 1282,-228 1285.01,-227.49 1288.09,-226.95 1291.2,-226.39"/>
<polygon fill="#63b8ff" stroke="#63b8ff" points="1053.23,-258.86 1043.79,-263.68 1054.17,-265.8 1053.23,-258.86"/>
</g>
<!-- Node370 -->
<g id="node37" class="node">
<title>Node370</title>
<g id="a_node37"><a xlink:href="m__Do__DVDError_8cpp.html" target="_top" xlink:title=" ">
<polygon fill="white" stroke="#666666" points="1585.5,-222.5 1434.5,-222.5 1434.5,-203.5 1585.5,-203.5 1585.5,-222.5"/>
<text text-anchor="middle" x="1510" y="-210.5" font-family="Helvetica,sans-Serif" font-size="10.00">src/m_Do/m_Do_DVDError.cpp</text>
</a>
</g>
</g>
<!-- Node6&#45;&gt;Node370 -->
<g id="edge48" class="edge">
<title>Node6&#45;&gt;Node370</title>
<path fill="none" stroke="#63b8ff" d="M1053.83,-266.38C1143.19,-258.91 1295.09,-245.13 1425,-228 1435.97,-226.55 1447.7,-224.77 1458.84,-222.97"/>
<polygon fill="#63b8ff" stroke="#63b8ff" points="1053.63,-262.88 1043.95,-267.2 1054.21,-269.86 1053.63,-262.88"/>
</g>
<!-- Node371 -->
<g id="node38" class="node">
<title>Node371</title>
<g id="a_node38"><a xlink:href="m__Do__MemCard_8cpp.html" target="_top" xlink:title=" ">
<polygon fill="white" stroke="#666666" points="1756,-222.5 1604,-222.5 1604,-203.5 1756,-203.5 1756,-222.5"/>
<text text-anchor="middle" x="1680" y="-210.5" font-family="Helvetica,sans-Serif" font-size="10.00">src/m_Do/m_Do_MemCard.cpp</text>
</a>
</g>
</g>
<!-- Node6&#45;&gt;Node371 -->
<g id="edge49" class="edge">
<title>Node6&#45;&gt;Node371</title>
<path fill="none" stroke="#63b8ff" d="M1053.77,-269.17C1170.68,-263.6 1400.19,-250.72 1594,-228 1605.57,-226.64 1617.96,-224.84 1629.63,-222.97"/>
<polygon fill="#63b8ff" stroke="#63b8ff" points="1053.81,-265.67 1043.99,-269.63 1054.14,-272.66 1053.81,-265.67"/>
</g>
<!-- Node372 -->
<g id="node39" class="node">
<title>Node372</title>
<g id="a_node39"><a xlink:href="m__Do__dvd__thread_8cpp.html" target="_top" xlink:title=" ">
<polygon fill="white" stroke="#666666" points="1932,-222.5 1774,-222.5 1774,-203.5 1932,-203.5 1932,-222.5"/>
<text text-anchor="middle" x="1853" y="-210.5" font-family="Helvetica,sans-Serif" font-size="10.00">src/m_Do/m_Do_dvd_thread.cpp</text>
</a>
</g>
</g>
<!-- Node6&#45;&gt;Node372 -->
<g id="edge50" class="edge">
<title>Node6&#45;&gt;Node372</title>
<path fill="none" stroke="#63b8ff" d="M1053.81,-270.75C1194.99,-266.95 1505.11,-255.94 1765,-228 1777.15,-226.69 1790.18,-224.86 1802.39,-222.95"/>
<polygon fill="#63b8ff" stroke="#63b8ff" points="1053.72,-267.25 1043.82,-271.01 1053.91,-274.24 1053.72,-267.25"/>
</g>
<!-- Node373 -->
<g id="node40" class="node">
<title>Node373</title>
<g id="a_node40"><a xlink:href="m__Do__machine_8cpp.html" target="_top" xlink:title=" ">
<polygon fill="white" stroke="#666666" points="424.5,-222.5 277.5,-222.5 277.5,-203.5 424.5,-203.5 424.5,-222.5"/>
<text text-anchor="middle" x="351" y="-210.5" font-family="Helvetica,sans-Serif" font-size="10.00">src/m_Do/m_Do_machine.cpp</text>
</a>
</g>
</g>
<!-- Node6&#45;&gt;Node373 -->
<g id="edge52" class="edge">
<title>Node6&#45;&gt;Node373</title>
<path fill="none" stroke="#63b8ff" d="M900.15,-268.27C794.75,-262.01 599.55,-248.71 434,-228 422.98,-226.62 411.19,-224.83 400.05,-222.99"/>
<polygon fill="#63b8ff" stroke="#63b8ff" points="899.92,-271.77 910.11,-268.86 900.33,-264.78 899.92,-271.77"/>
</g>
<!-- Node374 -->
<g id="node41" class="node">
<title>Node374</title>
<g id="a_node41"><a xlink:href="m__Do__printf_8cpp.html" target="_top" xlink:title=" ">
<polygon fill="white" stroke="#666666" points="575,-222.5 443,-222.5 443,-203.5 575,-203.5 575,-222.5"/>
<text text-anchor="middle" x="509" y="-210.5" font-family="Helvetica,sans-Serif" font-size="10.00">src/m_Do/m_Do_printf.cpp</text>
</a>
</g>
</g>
<!-- Node6&#45;&gt;Node374 -->
<g id="edge54" class="edge">
<title>Node6&#45;&gt;Node374</title>
<path fill="none" stroke="#63b8ff" d="M900.44,-265.47C821.09,-257.8 693.55,-244.4 584,-228 574.31,-226.55 563.95,-224.77 554.12,-222.97"/>
<polygon fill="#63b8ff" stroke="#63b8ff" points="900,-268.95 910.29,-266.42 900.67,-261.98 900,-268.95"/>
</g>
<!-- Node8 -->
<g id="node8" class="node">
<title>Node8</title>
<g id="a_node8"><a xlink:href="d__a__alink_8h.html" target="_top" xlink:title=" ">
<polygon fill="#fff0f0" stroke="red" points="692,-90.5 576,-90.5 576,-71.5 692,-71.5 692,-90.5"/>
<text text-anchor="middle" x="634" y="-78.5" font-family="Helvetica,sans-Serif" font-size="10.00">include/d/a/d_a_alink.h</text>
</a>
</g>
</g>
<!-- Node7&#45;&gt;Node8 -->
<g id="edge7" class="edge">
<title>Node7&#45;&gt;Node8</title>
<path fill="none" stroke="#63b8ff" d="M830.4,-197.04C804.5,-180.72 761.59,-154 724,-132 698.7,-117.2 668.88,-100.84 650.71,-91"/>
<polygon fill="#63b8ff" stroke="#63b8ff" points="828.48,-199.96 838.8,-202.34 832.21,-194.05 828.48,-199.96"/>
</g>
<!-- Node18 -->
<g id="node12" class="node">
<title>Node18</title>
<g id="a_node12"><a xlink:href="d__com__inf__game_8h.html" target="_top" xlink:title=" ">
<polygon fill="#fff0f0" stroke="red" points="1465,-162 1355,-162 1355,-132 1465,-132 1465,-162"/>
<text text-anchor="start" x="1363" y="-150" font-family="Helvetica,sans-Serif" font-size="10.00">include/d/com/d_com</text>
<text text-anchor="middle" x="1410" y="-139" font-family="Helvetica,sans-Serif" font-size="10.00">_inf_game.h</text>
</a>
</g>
</g>
<!-- Node7&#45;&gt;Node18 -->
<g id="edge11" class="edge">
<title>Node7&#45;&gt;Node18</title>
<path fill="none" stroke="#63b8ff" d="M922.84,-204.08C1034.35,-191.24 1252.31,-166.15 1354.56,-154.38"/>
<polygon fill="#63b8ff" stroke="#63b8ff" points="922.45,-200.6 912.91,-205.22 923.25,-207.55 922.45,-200.6"/>
</g>
<!-- Node150 -->
<g id="node15" class="node">
<title>Node150</title>
<g id="a_node15"><a xlink:href="d__attention_8cpp.html" target="_top" xlink:title=" ">
<polygon fill="white" stroke="#666666" points="817.5,-90.5 710.5,-90.5 710.5,-71.5 817.5,-71.5 817.5,-90.5"/>
<text text-anchor="middle" x="764" y="-78.5" font-family="Helvetica,sans-Serif" font-size="10.00">src/d/d_attention.cpp</text>
</a>
</g>
</g>
<!-- Node7&#45;&gt;Node150 -->
<g id="edge25" class="edge">
<title>Node7&#45;&gt;Node150</title>
<path fill="none" stroke="#63b8ff" d="M833.05,-196.03C822.15,-186.95 809.23,-174.84 800,-162 783.11,-138.5 771.46,-105.82 766.58,-90.53"/>
<polygon fill="#63b8ff" stroke="#63b8ff" points="830.78,-198.7 840.77,-202.23 835.16,-193.24 830.78,-198.7"/>
</g>
<!-- Node207 -->
<g id="node24" class="node">
<title>Node207</title>
<g id="a_node24"><a xlink:href="d__att__dist_8cpp.html" target="_top" xlink:title=" ">
<polygon fill="white" stroke="#666666" points="911,-156.5 809,-156.5 809,-137.5 911,-137.5 911,-156.5"/>
<text text-anchor="middle" x="860" y="-144.5" font-family="Helvetica,sans-Serif" font-size="10.00">src/d/d_att_dist.cpp</text>
</a>
</g>
</g>
<!-- Node7&#45;&gt;Node207 -->
<g id="edge24" class="edge">
<title>Node7&#45;&gt;Node207</title>
<path fill="none" stroke="#63b8ff" d="M855.91,-191.68C857.01,-179.94 858.33,-165.77 859.17,-156.82"/>
<polygon fill="#63b8ff" stroke="#63b8ff" points="852.42,-191.31 854.98,-201.59 859.39,-191.96 852.42,-191.31"/>
</g>
<!-- Node8&#45;&gt;Node9 -->
<g id="edge8" class="edge">
<title>Node8&#45;&gt;Node9</title>
<path fill="none" stroke="#63b8ff" d="M581.36,-68.75C576.51,-67.79 571.67,-66.86 567,-66 476.89,-49.4 371.59,-33.24 308.98,-23.97"/>
<polygon fill="#63b8ff" stroke="#63b8ff" points="580.62,-72.18 591.12,-70.73 582.01,-65.31 580.62,-72.18"/>
</g>
<!-- Node8&#45;&gt;Node11 -->
<g id="edge9" class="edge">
<title>Node8&#45;&gt;Node11</title>
<path fill="none" stroke="#63b8ff" d="M634,-59.78C634,-50.17 634,-38.92 634,-30.23"/>
<polygon fill="#63b8ff" stroke="#63b8ff" points="630.5,-59.59 634,-69.59 637.5,-59.59 630.5,-59.59"/>
</g>
<!-- Node8&#45;&gt;Node16 -->
<g id="edge10" class="edge">
<title>Node8&#45;&gt;Node16</title>
<path fill="none" stroke="#63b8ff" d="M683.35,-68.84C689.27,-67.75 695.26,-66.77 701,-66 984.93,-28.04 1327.04,-18.89 1469.12,-16.69"/>
<polygon fill="#63b8ff" stroke="#63b8ff" points="682.73,-65.39 673.58,-70.74 684.07,-72.26 682.73,-65.39"/>
</g>
<!-- Node18&#45;&gt;Node11 -->
<g id="edge14" class="edge">
<title>Node18&#45;&gt;Node11</title>
<path fill="none" stroke="#63b8ff" d="M1398.85,-121.52C1388.9,-102.81 1372.43,-78.21 1350,-66 1292.41,-34.65 845.42,-21.05 688.36,-17.21"/>
<polygon fill="#63b8ff" stroke="#63b8ff" points="1395.67,-122.99 1403.27,-130.37 1401.93,-119.86 1395.67,-122.99"/>
</g>
<!-- Node18&#45;&gt;Node142 -->
<g id="edge12" class="edge">
<title>Node18&#45;&gt;Node142</title>
<path fill="none" stroke="#63b8ff" d="M1343.23,-138.46C1272.92,-130.05 1159.16,-115.07 1062,-96 1054.62,-94.55 1046.76,-92.75 1039.34,-90.93"/>
<polygon fill="#63b8ff" stroke="#63b8ff" points="1342.71,-141.93 1353.05,-139.63 1343.54,-134.98 1342.71,-141.93"/>
</g>
<!-- Node18&#45;&gt;Node149 -->
<g id="edge13" class="edge">
<title>Node18&#45;&gt;Node149</title>
<path fill="none" stroke="#63b8ff" d="M1343.33,-141.24C1253.38,-134.26 1088.37,-119.47 949,-96 940.86,-94.63 932.17,-92.84 923.99,-91"/>
<polygon fill="#63b8ff" stroke="#63b8ff" points="1342.97,-144.73 1353.21,-142 1343.5,-137.75 1342.97,-144.73"/>
</g>
<!-- Node18&#45;&gt;Node150 -->
<g id="edge15" class="edge">
<title>Node18&#45;&gt;Node150</title>
<path fill="none" stroke="#63b8ff" d="M1343.22,-143.17C1234.52,-137.91 1012.77,-124.48 827,-96 818.36,-94.68 809.14,-92.86 800.49,-90.97"/>
<polygon fill="#63b8ff" stroke="#63b8ff" points="1342.98,-146.66 1353.14,-143.64 1343.31,-139.67 1342.98,-146.66"/>
</g>
<!-- Node18&#45;&gt;Node159 -->
<g id="edge16" class="edge">
<title>Node18&#45;&gt;Node159</title>
<path fill="none" stroke="#63b8ff" d="M1476.54,-143.44C1591.92,-138.4 1836.41,-125.05 2041,-96 2050.31,-94.68 2060.26,-92.86 2069.59,-90.98"/>
<polygon fill="#63b8ff" stroke="#63b8ff" points="1476.47,-139.94 1466.63,-143.87 1476.77,-146.94 1476.47,-139.94"/>
</g>
<!-- Node18&#45;&gt;Node162 -->
<g id="edge17" class="edge">
<title>Node18&#45;&gt;Node162</title>
<path fill="none" stroke="#63b8ff" d="M1476.19,-132.57C1523.35,-122.84 1588.19,-109.14 1645,-96 1651.83,-94.42 1659.12,-92.66 1666.1,-90.93"/>
<polygon fill="#63b8ff" stroke="#63b8ff" points="1475.77,-129.08 1466.68,-134.52 1477.18,-135.94 1475.77,-129.08"/>
</g>
<!-- Node18&#45;&gt;Node172 -->
<g id="edge18" class="edge">
<title>Node18&#45;&gt;Node172</title>
<path fill="none" stroke="#63b8ff" d="M1424.93,-122.11C1430.39,-113.38 1436.39,-103.78 1441.15,-96.16"/>
<polygon fill="#63b8ff" stroke="#63b8ff" points="1422.01,-120.18 1419.68,-130.51 1427.95,-123.89 1422.01,-120.18"/>
</g>
<!-- Node18&#45;&gt;Node176 -->
<g id="edge19" class="edge">
<title>Node18&#45;&gt;Node176</title>
<path fill="none" stroke="#63b8ff" d="M1458.46,-127.54C1484.44,-117.64 1515.97,-105.63 1540.13,-96.43"/>
<polygon fill="#63b8ff" stroke="#63b8ff" points="1457.22,-124.27 1449.12,-131.1 1459.71,-130.81 1457.22,-124.27"/>
</g>
<!-- Node18&#45;&gt;Node193 -->
<g id="edge20" class="edge">
<title>Node18&#45;&gt;Node193</title>
<path fill="none" stroke="#63b8ff" d="M1476.75,-137.71C1546.78,-128.7 1659.93,-113.27 1757,-96 1765.42,-94.5 1774.4,-92.72 1782.95,-90.94"/>
<polygon fill="#63b8ff" stroke="#63b8ff" points="1476.45,-134.22 1466.97,-138.96 1477.34,-141.16 1476.45,-134.22"/>
</g>
<!-- Node18&#45;&gt;Node200 -->
<g id="edge21" class="edge">
<title>Node18&#45;&gt;Node200</title>
<path fill="none" stroke="#63b8ff" d="M1476.8,-140.62C1569.39,-132.79 1741.86,-116.9 1888,-96 1898.09,-94.56 1908.87,-92.76 1919.08,-90.94"/>
<polygon fill="#63b8ff" stroke="#63b8ff" points="1476.55,-137.13 1466.88,-141.45 1477.14,-144.1 1476.55,-137.13"/>
</g>
<!-- Node18&#45;&gt;Node201 -->
<g id="edge22" class="edge">
<title>Node18&#45;&gt;Node201</title>
<path fill="none" stroke="#63b8ff" d="M1343.48,-130.63C1289.84,-118.24 1216.24,-101.23 1171.79,-90.96"/>
<polygon fill="#63b8ff" stroke="#63b8ff" points="1342.6,-134.02 1353.14,-132.86 1344.18,-127.2 1342.6,-134.02"/>
</g>
<!-- Node18&#45;&gt;Node204 -->
<g id="edge23" class="edge">
<title>Node18&#45;&gt;Node204</title>
<path fill="none" stroke="#63b8ff" d="M1369.94,-126.72C1349.63,-116.95 1325.38,-105.28 1306.75,-96.31"/>
<polygon fill="#63b8ff" stroke="#63b8ff" points="1368.26,-129.8 1378.79,-130.98 1371.3,-123.49 1368.26,-129.8"/>
</g>
<!-- Node209 -->
<g id="node26" class="node">
<title>Node209</title>
<g id="a_node26"><a xlink:href="d__a__player_8h.html" target="_top" xlink:title=" ">
<polygon fill="#fff0f0" stroke="red" points="415.5,-156.5 294.5,-156.5 294.5,-137.5 415.5,-137.5 415.5,-156.5"/>
<text text-anchor="middle" x="355" y="-144.5" font-family="Helvetica,sans-Serif" font-size="10.00">include/d/a/d_a_player.h</text>
</a>
</g>
</g>
<!-- Node208&#45;&gt;Node209 -->
<g id="edge27" class="edge">
<title>Node208&#45;&gt;Node209</title>
<path fill="none" stroke="#63b8ff" d="M595.8,-200.58C591.81,-199.71 587.84,-198.84 584,-198 518.21,-183.62 441.77,-166.94 395.95,-156.94"/>
<polygon fill="#63b8ff" stroke="#63b8ff" points="595.03,-203.99 605.55,-202.71 596.53,-197.16 595.03,-203.99"/>
</g>
<!-- Node209&#45;&gt;Node8 -->
<g id="edge28" class="edge">
<title>Node209&#45;&gt;Node8</title>
<path fill="none" stroke="#63b8ff" d="M405.22,-134.48C459.73,-121.98 545.6,-102.28 595.18,-90.91"/>
<polygon fill="#63b8ff" stroke="#63b8ff" points="404.53,-131.05 395.56,-136.7 406.09,-137.87 404.53,-131.05"/>
</g>
<!-- Node209&#45;&gt;Node150 -->
<g id="edge30" class="edge">
<title>Node209&#45;&gt;Node150</title>
<path fill="none" stroke="#63b8ff" d="M411.87,-135.06C417.98,-133.98 424.11,-132.94 430,-132 549.98,-112.85 581.36,-117.2 701,-96 709.16,-94.55 717.87,-92.77 726.13,-90.97"/>
<polygon fill="#63b8ff" stroke="#63b8ff" points="411.65,-131.54 402.43,-136.76 412.9,-138.43 411.65,-131.54"/>
</g>
<!-- Node209&#45;&gt;Node172 -->
<g id="edge31" class="edge">
<title>Node209&#45;&gt;Node172</title>
<path fill="none" stroke="#63b8ff" d="M427.3,-141.87C477.9,-139.01 547.07,-135.16 608,-132 937.72,-114.88 1021.29,-126.92 1350,-96 1365.71,-94.52 1382.73,-92.35 1398.2,-90.16"/>
<polygon fill="#63b8ff" stroke="#63b8ff" points="427.12,-138.37 417.34,-142.43 427.52,-145.36 427.12,-138.37"/>
</g>
<!-- Node209&#45;&gt;Node212 -->
<g id="edge29" class="edge">
<title>Node209&#45;&gt;Node212</title>
<path fill="none" stroke="#63b8ff" d="M328.86,-131.7C309.68,-121.21 283.72,-107.01 264.47,-96.48"/>
<polygon fill="#63b8ff" stroke="#63b8ff" points="326.95,-134.65 337.4,-136.37 330.31,-128.51 326.95,-134.65"/>
</g>
<!-- Node209&#45;&gt;Node60 -->
<g id="edge32" class="edge">
<title>Node209&#45;&gt;Node60</title>
<path fill="none" stroke="#63b8ff" d="M384.18,-132.27C410.84,-119.72 449.49,-101.54 472.25,-90.82"/>
<polygon fill="#63b8ff" stroke="#63b8ff" points="382.84,-129.03 375.28,-136.46 385.82,-135.37 382.84,-129.03"/>
</g>
<!-- Node209&#45;&gt;Node65 -->
<g id="edge33" class="edge">
<title>Node209&#45;&gt;Node65</title>
<path fill="none" stroke="#63b8ff" d="M311.07,-134.09C264.9,-121.57 193.34,-102.16 151.84,-90.91"/>
<polygon fill="#63b8ff" stroke="#63b8ff" points="309.91,-137.4 320.48,-136.64 311.74,-130.64 309.91,-137.4"/>
</g>
<!-- Node209&#45;&gt;Node134 -->
<g id="edge34" class="edge">
<title>Node209&#45;&gt;Node134</title>
<path fill="none" stroke="#63b8ff" d="M355,-125.78C355,-116.17 355,-104.92 355,-96.23"/>
<polygon fill="#63b8ff" stroke="#63b8ff" points="351.5,-125.59 355,-135.59 358.5,-125.59 351.5,-125.59"/>
</g>
<!-- Node250&#45;&gt;Node159 -->
<g id="edge36" class="edge">
<title>Node250&#45;&gt;Node159</title>
<path fill="none" stroke="#63b8ff" d="M2054.61,-129.69C2068.7,-117.33 2087.53,-100.82 2098.94,-90.82"/>
<polygon fill="#63b8ff" stroke="#63b8ff" points="2052.5,-126.88 2047.29,-136.1 2057.12,-132.14 2052.5,-126.88"/>
</g>
<!-- Node251&#45;&gt;Node18 -->
<g id="edge38" class="edge">
<title>Node251&#45;&gt;Node18</title>
<path fill="none" stroke="#63b8ff" d="M1956.38,-200.72C1951.2,-199.71 1946,-198.78 1941,-198 1768.54,-171.12 1562.16,-156.72 1465.31,-150.99"/>
<polygon fill="#63b8ff" stroke="#63b8ff" points="1955.6,-204.13 1966.1,-202.71 1957,-197.28 1955.6,-204.13"/>
</g>
<!-- Node252&#45;&gt;Node176 -->
<g id="edge41" class="edge">
<title>Node252&#45;&gt;Node176</title>
<path fill="none" stroke="#63b8ff" d="M726.58,-138.98C749.55,-136.5 775.96,-133.86 800,-132 1115.02,-107.58 1196.58,-135.97 1510,-96 1513.23,-95.59 1516.53,-95.11 1519.86,-94.58"/>
<polygon fill="#63b8ff" stroke="#63b8ff" points="726.33,-135.48 716.77,-140.05 727.09,-142.44 726.33,-135.48"/>
</g>
<!-- Node252&#45;&gt;Node60 -->
<g id="edge40" class="edge">
<title>Node252&#45;&gt;Node60</title>
<path fill="none" stroke="#63b8ff" d="M615.94,-127.69C583.07,-115.67 541.49,-100.47 515.57,-90.99"/>
<polygon fill="#63b8ff" stroke="#63b8ff" points="614.71,-130.97 625.31,-131.12 617.12,-124.4 614.71,-130.97"/>
</g>
</g>
</svg>
