<?xml version="1.0" encoding="UTF-8" standalone="no"?>
<!DOCTYPE svg PUBLIC "-//W3C//DTD SVG 1.1//EN"
 "http://www.w3.org/Graphics/SVG/1.1/DTD/svg11.dtd">
<!-- Generated by graphviz version 9.0.0 (20230911.1827)
 -->
<!-- Title: include/JSystem/JMath/JMATrigonometric.h Pages: 1 -->
<svg width="5085pt" height="238pt"
 viewBox="0.00 0.00 5084.62 238.00" xmlns="http://www.w3.org/2000/svg" xmlns:xlink="http://www.w3.org/1999/xlink">
<g id="graph0" class="graph" transform="scale(1 1) rotate(0) translate(4 234)">
<title>include/JSystem/JMath/JMATrigonometric.h</title>
<!-- Node1 -->
<g id="Node000001" class="node">
<title>Node1</title>
<g id="a_Node000001"><a xlink:title=" ">
<polygon fill="#999999" stroke="#666666" points="4203.88,-230 4085.88,-230 4085.88,-199.5 4203.88,-199.5 4203.88,-230"/>
<text text-anchor="start" x="4093.88" y="-216.5" font-family="Helvetica,sans-Serif" font-size="10.00">include/JSystem/JMath</text>
<text text-anchor="middle" x="4144.88" y="-205.25" font-family="Helvetica,sans-Serif" font-size="10.00">/JMATrigonometric.h</text>
</a>
</g>
</g>
<!-- Node2 -->
<g id="Node000002" class="node">
<title>Node2</title>
<g id="a_Node000002"><a xlink:href="c__math_8h.html" target="_top" xlink:title=" ">
<polygon fill="white" stroke="#666666" points="2632.25,-163.5 2483.5,-163.5 2483.5,-133 2632.25,-133 2632.25,-163.5"/>
<text text-anchor="start" x="2491.5" y="-150" font-family="Helvetica,sans-Serif" font-size="10.00">include/SSystem/SComponent</text>
<text text-anchor="middle" x="2557.88" y="-138.75" font-family="Helvetica,sans-Serif" font-size="10.00">/c_math.h</text>
</a>
</g>
</g>
<!-- Node1&#45;&gt;Node2 -->
<g id="edge1_Node000001_Node000002" class="edge">
<title>Node1&#45;&gt;Node2</title>
<g id="a_edge1_Node000001_Node000002"><a xlink:title=" ">
<path fill="none" stroke="#63b8ff" d="M4074.34,-210.88C3812.96,-200.26 2900.92,-163.19 2632.65,-152.29"/>
<polygon fill="#63b8ff" stroke="#63b8ff" points="4073.91,-214.37 4084.05,-211.28 4074.2,-207.37 4073.91,-214.37"/>
</a>
</g>
</g>
<!-- Node41 -->
<g id="Node000041" class="node">
<title>Node41</title>
<g id="a_Node000041"><a xlink:href="m__Do__mtx_8cpp.html" target="_top" xlink:title=" ">
<polygon fill="white" stroke="#666666" points="5076.62,-85.75 4951.12,-85.75 4951.12,-66.5 5076.62,-66.5 5076.62,-85.75"/>
<text text-anchor="middle" x="5013.88" y="-72.25" font-family="Helvetica,sans-Serif" font-size="10.00">src/m_Do/m_Do_mtx.cpp</text>
</a>
</g>
</g>
<!-- Node1&#45;&gt;Node41 -->
<g id="edge47_Node000001_Node000041" class="edge">
<title>Node1&#45;&gt;Node41</title>
<g id="a_edge47_Node000001_Node000041"><a xlink:title=" ">
<path fill="none" stroke="#63b8ff" d="M4074.24,-214.54C3968.71,-213.53 3789.04,-202.09 3855.88,-133 3897.85,-89.61 4882.2,-106.09 4941.88,-97 4957,-94.69 4973.48,-90.29 4986.85,-86.21"/>
<polygon fill="#63b8ff" stroke="#63b8ff" points="4073.93,-218.04 4083.95,-214.6 4073.98,-211.04 4073.93,-218.04"/>
</a>
</g>
</g>
<!-- Node42 -->
<g id="Node000042" class="node">
<title>Node42</title>
<g id="a_Node000042"><a xlink:href="J3DTransform_8cpp.html" target="_top" xlink:title=" ">
<polygon fill="white" stroke="#666666" points="4006.5,-163.5 3865.25,-163.5 3865.25,-133 4006.5,-133 4006.5,-163.5"/>
<text text-anchor="start" x="3873.25" y="-150" font-family="Helvetica,sans-Serif" font-size="10.00">libs/JSystem/J3DGraphBase</text>
<text text-anchor="middle" x="3935.88" y="-138.75" font-family="Helvetica,sans-Serif" font-size="10.00">/J3DTransform.cpp</text>
</a>
</g>
</g>
<!-- Node1&#45;&gt;Node42 -->
<g id="edge41_Node000001_Node000042" class="edge">
<title>Node1&#45;&gt;Node42</title>
<g id="a_edge41_Node000001_Node000042"><a xlink:title=" ">
<path fill="none" stroke="#63b8ff" d="M4086.47,-195.72C4053.93,-185.68 4013.95,-173.34 3983.36,-163.9"/>
<polygon fill="#63b8ff" stroke="#63b8ff" points="4085.15,-198.98 4095.74,-198.59 4087.22,-192.29 4085.15,-198.98"/>
</a>
</g>
</g>
<!-- Node43 -->
<g id="Node000043" class="node">
<title>Node43</title>
<g id="a_Node000043"><a xlink:href="JASChannel_8cpp.html" target="_top" xlink:title=" ">
<polygon fill="white" stroke="#666666" points="4135.12,-163.5 4024.62,-163.5 4024.62,-133 4135.12,-133 4135.12,-163.5"/>
<text text-anchor="start" x="4032.62" y="-150" font-family="Helvetica,sans-Serif" font-size="10.00">libs/JSystem/JAudio2</text>
<text text-anchor="middle" x="4079.88" y="-138.75" font-family="Helvetica,sans-Serif" font-size="10.00">/JASChannel.cpp</text>
</a>
</g>
</g>
<!-- Node1&#45;&gt;Node43 -->
<g id="edge42_Node000001_Node000043" class="edge">
<title>Node1&#45;&gt;Node43</title>
<g id="a_edge42_Node000001_Node000043"><a xlink:title=" ">
<path fill="none" stroke="#63b8ff" d="M4122.14,-191.19C4112.99,-182.11 4102.7,-171.9 4094.57,-163.83"/>
<polygon fill="#63b8ff" stroke="#63b8ff" points="4119.49,-193.49 4129.05,-198.05 4124.42,-188.52 4119.49,-193.49"/>
</a>
</g>
</g>
<!-- Node44 -->
<g id="Node000044" class="node">
<title>Node44</title>
<g id="a_Node000044"><a xlink:href="JPABaseShape_8cpp.html" target="_top" xlink:title=" ">
<polygon fill="white" stroke="#666666" points="4266.62,-163.5 4153.12,-163.5 4153.12,-133 4266.62,-133 4266.62,-163.5"/>
<text text-anchor="start" x="4161.12" y="-150" font-family="Helvetica,sans-Serif" font-size="10.00">libs/JSystem/JParticle</text>
<text text-anchor="middle" x="4209.88" y="-138.75" font-family="Helvetica,sans-Serif" font-size="10.00">/JPABaseShape.cpp</text>
</a>
</g>
</g>
<!-- Node1&#45;&gt;Node44 -->
<g id="edge43_Node000001_Node000044" class="edge">
<title>Node1&#45;&gt;Node44</title>
<g id="a_edge43_Node000001_Node000044"><a xlink:title=" ">
<path fill="none" stroke="#63b8ff" d="M4167.61,-191.19C4176.76,-182.11 4187.05,-171.9 4195.18,-163.83"/>
<polygon fill="#63b8ff" stroke="#63b8ff" points="4165.33,-188.52 4160.7,-198.05 4170.26,-193.49 4165.33,-188.52"/>
</a>
</g>
</g>
<!-- Node45 -->
<g id="Node000045" class="node">
<title>Node45</title>
<g id="a_Node000045"><a xlink:href="JPAExtraShape_8cpp.html" target="_top" xlink:title=" ">
<polygon fill="white" stroke="#666666" points="4398.62,-163.5 4285.12,-163.5 4285.12,-133 4398.62,-133 4398.62,-163.5"/>
<text text-anchor="start" x="4293.12" y="-150" font-family="Helvetica,sans-Serif" font-size="10.00">libs/JSystem/JParticle</text>
<text text-anchor="middle" x="4341.88" y="-138.75" font-family="Helvetica,sans-Serif" font-size="10.00">/JPAExtraShape.cpp</text>
</a>
</g>
</g>
<!-- Node1&#45;&gt;Node45 -->
<g id="edge44_Node000001_Node000045" class="edge">
<title>Node1&#45;&gt;Node45</title>
<g id="a_edge44_Node000001_Node000045"><a xlink:title=" ">
<path fill="none" stroke="#63b8ff" d="M4200.49,-195.54C4231.01,-185.55 4268.36,-173.32 4297.01,-163.94"/>
<polygon fill="#63b8ff" stroke="#63b8ff" points="4199.43,-192.21 4191.02,-198.64 4201.61,-198.86 4199.43,-192.21"/>
</a>
</g>
</g>
<!-- Node46 -->
<g id="Node000046" class="node">
<title>Node46</title>
<g id="a_Node000046"><a xlink:href="JPAMath_8cpp.html" target="_top" xlink:title=" ">
<polygon fill="white" stroke="#666666" points="4530.62,-163.5 4417.12,-163.5 4417.12,-133 4530.62,-133 4530.62,-163.5"/>
<text text-anchor="start" x="4425.12" y="-150" font-family="Helvetica,sans-Serif" font-size="10.00">libs/JSystem/JParticle</text>
<text text-anchor="middle" x="4473.88" y="-138.75" font-family="Helvetica,sans-Serif" font-size="10.00">/JPAMath.cpp</text>
</a>
</g>
</g>
<!-- Node1&#45;&gt;Node46 -->
<g id="edge45_Node000001_Node000046" class="edge">
<title>Node1&#45;&gt;Node46</title>
<g id="a_edge45_Node000001_Node000046"><a xlink:title=" ">
<path fill="none" stroke="#63b8ff" d="M4215.54,-200.72C4268.54,-190.83 4342.84,-176.73 4407.88,-163.5 4410.75,-162.92 4413.69,-162.31 4416.66,-161.69"/>
<polygon fill="#63b8ff" stroke="#63b8ff" points="4214.91,-197.28 4205.72,-202.55 4216.19,-204.16 4214.91,-197.28"/>
</a>
</g>
</g>
<!-- Node47 -->
<g id="Node000047" class="node">
<title>Node47</title>
<g id="a_Node000047"><a xlink:href="Z2Audience_8cpp.html" target="_top" xlink:title=" ">
<polygon fill="white" stroke="#666666" points="4705,-157.88 4548.75,-157.88 4548.75,-138.62 4705,-138.62 4705,-157.88"/>
<text text-anchor="middle" x="4626.88" y="-144.38" font-family="Helvetica,sans-Serif" font-size="10.00">libs/Z2AudioLib/Z2Audience.cpp</text>
</a>
</g>
</g>
<!-- Node1&#45;&gt;Node47 -->
<g id="edge46_Node000001_Node000047" class="edge">
<title>Node1&#45;&gt;Node47</title>
<g id="a_edge46_Node000001_Node000047"><a xlink:title=" ">
<path fill="none" stroke="#63b8ff" d="M4215.47,-205.54C4294.57,-196.17 4426.59,-179.98 4539.88,-163.5 4550.63,-161.94 4562.11,-160.14 4573.09,-158.37"/>
<polygon fill="#63b8ff" stroke="#63b8ff" points="4215.21,-202.05 4205.69,-206.7 4216.03,-209 4215.21,-202.05"/>
</a>
</g>
</g>
<!-- Node3 -->
<g id="Node000003" class="node">
<title>Node3</title>
<g id="a_Node000003"><a xlink:href="d__a__formation__mng_8h.html" target="_top" xlink:title=" ">
<polygon fill="white" stroke="#666666" points="181.75,-91.38 0,-91.38 0,-60.88 181.75,-60.88 181.75,-91.38"/>
<text text-anchor="start" x="8" y="-77.88" font-family="Helvetica,sans-Serif" font-size="10.00">include/rel/d/a/d_a</text>
<text text-anchor="middle" x="90.88" y="-66.62" font-family="Helvetica,sans-Serif" font-size="10.00">_formation_mng/d_a_formation_mng.h</text>
</a>
</g>
</g>
<!-- Node2&#45;&gt;Node3 -->
<g id="edge2_Node000002_Node000003" class="edge">
<title>Node2&#45;&gt;Node3</title>
<g id="a_edge2_Node000002_Node000003"><a xlink:title=" ">
<path fill="none" stroke="#63b8ff" d="M2471.85,-147.44C2102.11,-147.95 646.11,-146.68 190.88,-97 179.7,-95.78 167.92,-93.94 156.52,-91.87"/>
<polygon fill="#63b8ff" stroke="#63b8ff" points="2471.74,-150.94 2481.74,-147.43 2471.73,-143.94 2471.74,-150.94"/>
</a>
</g>
</g>
<!-- Node4 -->
<g id="Node000004" class="node">
<title>Node4</title>
<g id="a_Node000004"><a xlink:href="d__a__ykgr_8h.html" target="_top" xlink:title=" ">
<polygon fill="white" stroke="#666666" points="295.62,-91.38 200.12,-91.38 200.12,-60.88 295.62,-60.88 295.62,-91.38"/>
<text text-anchor="start" x="208.12" y="-77.88" font-family="Helvetica,sans-Serif" font-size="10.00">include/rel/d/a/d_a</text>
<text text-anchor="middle" x="247.88" y="-66.62" font-family="Helvetica,sans-Serif" font-size="10.00">_ykgr/d_a_ykgr.h</text>
</a>
</g>
</g>
<!-- Node2&#45;&gt;Node4 -->
<g id="edge3_Node000002_Node000004" class="edge">
<title>Node2&#45;&gt;Node4</title>
<g id="a_edge3_Node000002_Node000004"><a xlink:title=" ">
<path fill="none" stroke="#63b8ff" d="M2471.74,-146.92C2085.25,-145.23 520.58,-136.01 304.88,-97 298.17,-95.79 291.2,-93.91 284.52,-91.78"/>
<polygon fill="#63b8ff" stroke="#63b8ff" points="2471.57,-150.42 2481.58,-146.96 2471.6,-143.42 2471.57,-150.42"/>
</a>
</g>
</g>
<!-- Node7 -->
<g id="Node000007" class="node">
<title>Node7</title>
<g id="a_Node000007"><a xlink:href="d__a__npc__fguard_8h.html" target="_top" xlink:title=" ">
<polygon fill="white" stroke="#666666" points="420.25,-97 313.5,-97 313.5,-55.25 420.25,-55.25 420.25,-97"/>
<text text-anchor="start" x="321.5" y="-83.5" font-family="Helvetica,sans-Serif" font-size="10.00">include/rel/d/a/npc</text>
<text text-anchor="start" x="321.5" y="-72.25" font-family="Helvetica,sans-Serif" font-size="10.00">/d_a_npc_fguard/d_a</text>
<text text-anchor="middle" x="366.88" y="-61" font-family="Helvetica,sans-Serif" font-size="10.00">_npc_fguard.h</text>
</a>
</g>
</g>
<!-- Node2&#45;&gt;Node7 -->
<g id="edge6_Node000002_Node000007" class="edge">
<title>Node2&#45;&gt;Node7</title>
<g id="a_edge6_Node000002_Node000007"><a xlink:title=" ">
<path fill="none" stroke="#63b8ff" d="M2471.71,-146.65C2098.75,-143.85 633.23,-130.78 429.88,-97 426.82,-96.49 423.71,-95.87 420.59,-95.17"/>
<polygon fill="#63b8ff" stroke="#63b8ff" points="2471.67,-150.15 2481.69,-146.72 2471.72,-143.15 2471.67,-150.15"/>
</a>
</g>
</g>
<!-- Node8 -->
<g id="Node000008" class="node">
<title>Node8</title>
<g id="a_Node000008"><a xlink:href="JASLfo_8cpp.html" target="_top" xlink:title=" ">
<polygon fill="white" stroke="#666666" points="549.12,-91.38 438.62,-91.38 438.62,-60.88 549.12,-60.88 549.12,-91.38"/>
<text text-anchor="start" x="446.62" y="-77.88" font-family="Helvetica,sans-Serif" font-size="10.00">libs/JSystem/JAudio2</text>
<text text-anchor="middle" x="493.88" y="-66.62" font-family="Helvetica,sans-Serif" font-size="10.00">/JASLfo.cpp</text>
</a>
</g>
</g>
<!-- Node2&#45;&gt;Node8 -->
<g id="edge7_Node000002_Node000008" class="edge">
<title>Node2&#45;&gt;Node8</title>
<g id="a_edge7_Node000002_Node000008"><a xlink:title=" ">
<path fill="none" stroke="#63b8ff" d="M2471.9,-146.49C2113.51,-143.12 748.16,-128.32 557.88,-97 550.53,-95.79 542.85,-93.94 535.48,-91.85"/>
<polygon fill="#63b8ff" stroke="#63b8ff" points="2471.67,-149.98 2481.71,-146.58 2471.74,-142.99 2471.67,-149.98"/>
</a>
</g>
</g>
<!-- Node9 -->
<g id="Node000009" class="node">
<title>Node9</title>
<g id="a_Node000009"><a xlink:href="c__lib_8cpp.html" target="_top" xlink:title=" ">
<polygon fill="white" stroke="#666666" points="700.38,-91.38 567.38,-91.38 567.38,-60.88 700.38,-60.88 700.38,-91.38"/>
<text text-anchor="start" x="575.38" y="-77.88" font-family="Helvetica,sans-Serif" font-size="10.00">libs/SSystem/SComponent</text>
<text text-anchor="middle" x="633.88" y="-66.62" font-family="Helvetica,sans-Serif" font-size="10.00">/c_lib.cpp</text>
</a>
</g>
</g>
<!-- Node2&#45;&gt;Node9 -->
<g id="edge8_Node000002_Node000009" class="edge">
<title>Node2&#45;&gt;Node9</title>
<g id="a_edge8_Node000002_Node000009"><a xlink:title=" ">
<path fill="none" stroke="#63b8ff" d="M2471.7,-147.55C2154.97,-148.26 1055.71,-146.98 708.88,-97 700.34,-95.77 691.39,-93.91 682.76,-91.82"/>
<polygon fill="#63b8ff" stroke="#63b8ff" points="2471.58,-151.06 2481.57,-147.53 2471.56,-144.06 2471.58,-151.06"/>
</a>
</g>
</g>
<!-- Node10 -->
<g id="Node000010" class="node">
<title>Node10</title>
<g id="a_Node000010"><a xlink:href="c__m3d_8cpp.html" target="_top" xlink:title=" ">
<polygon fill="white" stroke="#666666" points="851.38,-91.38 718.38,-91.38 718.38,-60.88 851.38,-60.88 851.38,-91.38"/>
<text text-anchor="start" x="726.38" y="-77.88" font-family="Helvetica,sans-Serif" font-size="10.00">libs/SSystem/SComponent</text>
<text text-anchor="middle" x="784.88" y="-66.62" font-family="Helvetica,sans-Serif" font-size="10.00">/c_m3d.cpp</text>
</a>
</g>
</g>
<!-- Node2&#45;&gt;Node10 -->
<g id="edge9_Node000002_Node000010" class="edge">
<title>Node2&#45;&gt;Node10</title>
<g id="a_edge9_Node000002_Node000010"><a xlink:title=" ">
<path fill="none" stroke="#63b8ff" d="M2472.01,-147.31C2172.63,-147.11 1175.94,-142.93 859.88,-97 851.34,-95.76 842.39,-93.9 833.76,-91.8"/>
<polygon fill="#63b8ff" stroke="#63b8ff" points="2471.7,-150.81 2481.7,-147.31 2471.7,-143.81 2471.7,-150.81"/>
</a>
</g>
</g>
<!-- Node11 -->
<g id="Node000011" class="node">
<title>Node11</title>
<g id="a_Node000011"><a xlink:href="c__math_8cpp.html" target="_top" xlink:title=" ">
<polygon fill="white" stroke="#666666" points="1002.38,-91.38 869.38,-91.38 869.38,-60.88 1002.38,-60.88 1002.38,-91.38"/>
<text text-anchor="start" x="877.38" y="-77.88" font-family="Helvetica,sans-Serif" font-size="10.00">libs/SSystem/SComponent</text>
<text text-anchor="middle" x="935.88" y="-66.62" font-family="Helvetica,sans-Serif" font-size="10.00">/c_math.cpp</text>
</a>
</g>
</g>
<!-- Node2&#45;&gt;Node11 -->
<g id="edge10_Node000002_Node000011" class="edge">
<title>Node2&#45;&gt;Node11</title>
<g id="a_edge10_Node000002_Node000011"><a xlink:title=" ">
<path fill="none" stroke="#63b8ff" d="M2471.68,-147.02C2189.63,-145.85 1296.05,-138.86 1010.88,-97 1002.35,-95.75 993.39,-93.88 984.76,-91.78"/>
<polygon fill="#63b8ff" stroke="#63b8ff" points="2471.52,-150.52 2481.54,-147.06 2471.55,-143.52 2471.52,-150.52"/>
</a>
</g>
</g>
<!-- Node12 -->
<g id="Node000012" class="node">
<title>Node12</title>
<g id="a_Node000012"><a xlink:href="c__xyz_8cpp.html" target="_top" xlink:title=" ">
<polygon fill="white" stroke="#666666" points="1153.38,-91.38 1020.38,-91.38 1020.38,-60.88 1153.38,-60.88 1153.38,-91.38"/>
<text text-anchor="start" x="1028.38" y="-77.88" font-family="Helvetica,sans-Serif" font-size="10.00">libs/SSystem/SComponent</text>
<text text-anchor="middle" x="1086.88" y="-66.62" font-family="Helvetica,sans-Serif" font-size="10.00">/c_xyz.cpp</text>
</a>
</g>
</g>
<!-- Node2&#45;&gt;Node12 -->
<g id="edge11_Node000002_Node000012" class="edge">
<title>Node2&#45;&gt;Node12</title>
<g id="a_edge11_Node000002_Node000012"><a xlink:title=" ">
<path fill="none" stroke="#63b8ff" d="M2471.76,-146.62C2208.56,-144.32 1417.29,-134.38 1162.88,-97 1154.37,-95.75 1145.45,-93.91 1136.84,-91.85"/>
<polygon fill="#63b8ff" stroke="#63b8ff" points="2471.6,-150.12 2481.63,-146.71 2471.66,-143.12 2471.6,-150.12"/>
</a>
</g>
</g>
<!-- Node13 -->
<g id="Node000013" class="node">
<title>Node13</title>
<g id="a_Node000013"><a xlink:href="d__a__alink_8cpp.html" target="_top" xlink:title=" ">
<polygon fill="white" stroke="#666666" points="1280,-85.75 1171.75,-85.75 1171.75,-66.5 1280,-66.5 1280,-85.75"/>
<text text-anchor="middle" x="1225.88" y="-72.25" font-family="Helvetica,sans-Serif" font-size="10.00">src/d/a/d_a_alink.cpp</text>
</a>
</g>
</g>
<!-- Node2&#45;&gt;Node13 -->
<g id="edge12_Node000002_Node000013" class="edge">
<title>Node2&#45;&gt;Node13</title>
<g id="a_edge12_Node000002_Node000013"><a xlink:title=" ">
<path fill="none" stroke="#63b8ff" d="M2471.92,-146.82C2225.04,-145.1 1516.99,-136.76 1288.88,-97 1275.54,-94.68 1261.12,-90.27 1249.44,-86.2"/>
<polygon fill="#63b8ff" stroke="#63b8ff" points="2471.78,-150.32 2481.81,-146.88 2471.83,-143.32 2471.78,-150.32"/>
</a>
</g>
</g>
<!-- Node14 -->
<g id="Node000014" class="node">
<title>Node14</title>
<g id="a_Node000014"><a xlink:href="d__a__npc_8cpp.html" target="_top" xlink:title=" ">
<polygon fill="white" stroke="#666666" points="1401.75,-85.75 1298,-85.75 1298,-66.5 1401.75,-66.5 1401.75,-85.75"/>
<text text-anchor="middle" x="1349.88" y="-72.25" font-family="Helvetica,sans-Serif" font-size="10.00">src/d/a/d_a_npc.cpp</text>
</a>
</g>
</g>
<!-- Node2&#45;&gt;Node14 -->
<g id="edge13_Node000002_Node000014" class="edge">
<title>Node2&#45;&gt;Node14</title>
<g id="a_edge13_Node000002_Node000014"><a xlink:title=" ">
<path fill="none" stroke="#63b8ff" d="M2471.87,-146.5C2241.52,-143.99 1614.35,-133.9 1410.88,-97 1397.94,-94.66 1383.97,-90.25 1372.67,-86.18"/>
<polygon fill="#63b8ff" stroke="#63b8ff" points="2471.64,-149.99 2481.68,-146.6 2471.72,-142.99 2471.64,-149.99"/>
</a>
</g>
</g>
<!-- Node15 -->
<g id="Node000015" class="node">
<title>Node15</title>
<g id="a_Node000015"><a xlink:href="d__a__obj_8cpp.html" target="_top" xlink:title=" ">
<polygon fill="white" stroke="#666666" points="1520.25,-85.75 1419.5,-85.75 1419.5,-66.5 1520.25,-66.5 1520.25,-85.75"/>
<text text-anchor="middle" x="1469.88" y="-72.25" font-family="Helvetica,sans-Serif" font-size="10.00">src/d/a/d_a_obj.cpp</text>
</a>
</g>
</g>
<!-- Node2&#45;&gt;Node15 -->
<g id="edge14_Node000002_Node000015" class="edge">
<title>Node2&#45;&gt;Node15</title>
<g id="a_edge14_Node000002_Node000015"><a xlink:title=" ">
<path fill="none" stroke="#63b8ff" d="M2471.86,-146.1C2258.4,-142.75 1708.67,-130.99 1528.88,-97 1516.34,-94.63 1502.83,-90.22 1491.9,-86.16"/>
<polygon fill="#63b8ff" stroke="#63b8ff" points="2471.73,-149.6 2481.79,-146.25 2471.84,-142.6 2471.73,-149.6"/>
</a>
</g>
</g>
<!-- Node16 -->
<g id="Node000016" class="node">
<title>Node16</title>
<g id="a_Node000016"><a xlink:href="d__a__player_8cpp.html" target="_top" xlink:title=" ">
<polygon fill="white" stroke="#666666" points="1651.62,-85.75 1538.12,-85.75 1538.12,-66.5 1651.62,-66.5 1651.62,-85.75"/>
<text text-anchor="middle" x="1594.88" y="-72.25" font-family="Helvetica,sans-Serif" font-size="10.00">src/d/a/d_a_player.cpp</text>
</a>
</g>
</g>
<!-- Node2&#45;&gt;Node16 -->
<g id="edge15_Node000002_Node000016" class="edge">
<title>Node2&#45;&gt;Node16</title>
<g id="a_edge15_Node000002_Node000016"><a xlink:title=" ">
<path fill="none" stroke="#63b8ff" d="M2471.83,-145.02C2278.57,-139.6 1814.99,-124.13 1660.88,-97 1647.09,-94.57 1632.12,-90.21 1619.92,-86.19"/>
<polygon fill="#63b8ff" stroke="#63b8ff" points="2471.72,-148.52 2481.81,-145.3 2471.92,-141.52 2471.72,-148.52"/>
</a>
</g>
</g>
<!-- Node17 -->
<g id="Node000017" class="node">
<title>Node17</title>
<g id="a_Node000017"><a xlink:href="d__bg__w_8cpp.html" target="_top" xlink:title=" ">
<polygon fill="white" stroke="#666666" points="1775.88,-85.75 1669.88,-85.75 1669.88,-66.5 1775.88,-66.5 1775.88,-85.75"/>
<text text-anchor="middle" x="1722.88" y="-72.25" font-family="Helvetica,sans-Serif" font-size="10.00">src/d/bg/d_bg_w.cpp</text>
</a>
</g>
</g>
<!-- Node2&#45;&gt;Node17 -->
<g id="edge16_Node000002_Node000017" class="edge">
<title>Node2&#45;&gt;Node17</title>
<g id="a_edge16_Node000002_Node000017"><a xlink:title=" ">
<path fill="none" stroke="#63b8ff" d="M2471.98,-144.32C2299.06,-137.99 1914.42,-121.59 1784.88,-97 1771.88,-94.53 1757.81,-90.17 1746.37,-86.16"/>
<polygon fill="#63b8ff" stroke="#63b8ff" points="2471.68,-147.81 2481.8,-144.68 2471.93,-140.82 2471.68,-147.81"/>
</a>
</g>
</g>
<!-- Node18 -->
<g id="Node000018" class="node">
<title>Node18</title>
<g id="a_Node000018"><a xlink:href="d__cc__mass__s_8cpp.html" target="_top" xlink:title=" ">
<polygon fill="white" stroke="#666666" points="1898.12,-91.38 1793.62,-91.38 1793.62,-60.88 1898.12,-60.88 1898.12,-91.38"/>
<text text-anchor="start" x="1801.62" y="-77.88" font-family="Helvetica,sans-Serif" font-size="10.00">src/d/cc/d_cc_mass</text>
<text text-anchor="middle" x="1845.88" y="-66.62" font-family="Helvetica,sans-Serif" font-size="10.00">_s.cpp</text>
</a>
</g>
</g>
<!-- Node2&#45;&gt;Node18 -->
<g id="edge17_Node000002_Node000018" class="edge">
<title>Node2&#45;&gt;Node18</title>
<g id="a_edge17_Node000002_Node000018"><a xlink:title=" ">
<path fill="none" stroke="#63b8ff" d="M2471.98,-147.09C2346.59,-145.4 2106.61,-136.66 1906.88,-97 1900.21,-95.68 1893.26,-93.86 1886.54,-91.85"/>
<polygon fill="#63b8ff" stroke="#63b8ff" points="2471.83,-150.59 2481.87,-147.21 2471.92,-143.59 2471.83,-150.59"/>
</a>
</g>
</g>
<!-- Node19 -->
<g id="Node000019" class="node">
<title>Node19</title>
<g id="a_Node000019"><a xlink:href="d__cc__uty_8cpp.html" target="_top" xlink:title=" ">
<polygon fill="white" stroke="#666666" points="2027.5,-85.75 1916.25,-85.75 1916.25,-66.5 2027.5,-66.5 2027.5,-85.75"/>
<text text-anchor="middle" x="1971.88" y="-72.25" font-family="Helvetica,sans-Serif" font-size="10.00">src/d/cc/d_cc_uty.cpp</text>
</a>
</g>
</g>
<!-- Node2&#45;&gt;Node19 -->
<g id="edge18_Node000002_Node000019" class="edge">
<title>Node2&#45;&gt;Node19</title>
<g id="a_edge18_Node000002_Node000019"><a xlink:title=" ">
<path fill="none" stroke="#63b8ff" d="M2472.07,-144.25C2368.17,-139.4 2188.28,-127.13 2036.88,-97 2023.57,-94.35 2009.1,-90.07 1997.2,-86.16"/>
<polygon fill="#63b8ff" stroke="#63b8ff" points="2471.77,-147.74 2481.91,-144.69 2472.08,-140.74 2471.77,-147.74"/>
</a>
</g>
</g>
<!-- Node20 -->
<g id="Node000020" class="node">
<title>Node20</title>
<g id="a_Node000020"><a xlink:href="d__cam__param_8cpp.html" target="_top" xlink:title=" ">
<polygon fill="white" stroke="#666666" points="2166,-85.75 2045.75,-85.75 2045.75,-66.5 2166,-66.5 2166,-85.75"/>
<text text-anchor="middle" x="2105.88" y="-72.25" font-family="Helvetica,sans-Serif" font-size="10.00">src/d/d_cam_param.cpp</text>
</a>
</g>
</g>
<!-- Node2&#45;&gt;Node20 -->
<g id="edge19_Node000002_Node000020" class="edge">
<title>Node2&#45;&gt;Node20</title>
<g id="a_edge19_Node000002_Node000020"><a xlink:title=" ">
<path fill="none" stroke="#63b8ff" d="M2471.97,-139.7C2393.93,-131.96 2275.93,-118.06 2174.88,-97 2161.21,-94.15 2146.29,-89.99 2133.84,-86.21"/>
<polygon fill="#63b8ff" stroke="#63b8ff" points="2471.38,-143.16 2481.67,-140.65 2472.06,-136.19 2471.38,-143.16"/>
</a>
</g>
</g>
<!-- Node21 -->
<g id="Node000021" class="node">
<title>Node21</title>
<g id="a_Node000021"><a xlink:href="d__k__wmark_8cpp.html" target="_top" xlink:title=" ">
<polygon fill="white" stroke="#666666" points="2293.38,-85.75 2184.38,-85.75 2184.38,-66.5 2293.38,-66.5 2293.38,-85.75"/>
<text text-anchor="middle" x="2238.88" y="-72.25" font-family="Helvetica,sans-Serif" font-size="10.00">src/d/d_k_wmark.cpp</text>
</a>
</g>
</g>
<!-- Node2&#45;&gt;Node21 -->
<g id="edge20_Node000002_Node000021" class="edge">
<title>Node2&#45;&gt;Node21</title>
<g id="a_edge20_Node000002_Node000021"><a xlink:title=" ">
<path fill="none" stroke="#63b8ff" d="M2472.08,-132.88C2422.12,-123.9 2358.08,-111.33 2301.88,-97 2289.76,-93.91 2276.54,-89.85 2265.35,-86.2"/>
<polygon fill="#63b8ff" stroke="#63b8ff" points="2471.22,-136.28 2481.68,-134.59 2472.45,-129.39 2471.22,-136.28"/>
</a>
</g>
</g>
<!-- Node22 -->
<g id="Node000022" class="node">
<title>Node22</title>
<g id="a_Node000022"><a xlink:href="d__k__wpillar_8cpp.html" target="_top" xlink:title=" ">
<polygon fill="white" stroke="#666666" points="2418.62,-85.75 2311.12,-85.75 2311.12,-66.5 2418.62,-66.5 2418.62,-85.75"/>
<text text-anchor="middle" x="2364.88" y="-72.25" font-family="Helvetica,sans-Serif" font-size="10.00">src/d/d_k_wpillar.cpp</text>
</a>
</g>
</g>
<!-- Node2&#45;&gt;Node22 -->
<g id="edge21_Node000002_Node000022" class="edge">
<title>Node2&#45;&gt;Node22</title>
<g id="a_edge21_Node000002_Node000022"><a xlink:title=" ">
<path fill="none" stroke="#63b8ff" d="M2506.64,-128.63C2468.97,-114.95 2419.4,-96.94 2389.96,-86.24"/>
<polygon fill="#63b8ff" stroke="#63b8ff" points="2505.4,-131.91 2515.99,-132.03 2507.79,-125.33 2505.4,-131.91"/>
</a>
</g>
</g>
<!-- Node23 -->
<g id="Node000023" class="node">
<title>Node23</title>
<g id="a_Node000023"><a xlink:href="d__ky__thunder_8cpp.html" target="_top" xlink:title=" ">
<polygon fill="white" stroke="#666666" points="2553.12,-85.75 2436.62,-85.75 2436.62,-66.5 2553.12,-66.5 2553.12,-85.75"/>
<text text-anchor="middle" x="2494.88" y="-72.25" font-family="Helvetica,sans-Serif" font-size="10.00">src/d/d_ky_thunder.cpp</text>
</a>
</g>
</g>
<!-- Node2&#45;&gt;Node23 -->
<g id="edge22_Node000002_Node000023" class="edge">
<title>Node2&#45;&gt;Node23</title>
<g id="a_edge22_Node000002_Node000023"><a xlink:title=" ">
<path fill="none" stroke="#63b8ff" d="M2537.13,-124.16C2525.36,-111.06 2511.31,-95.42 2502.74,-85.88"/>
<polygon fill="#63b8ff" stroke="#63b8ff" points="2534.52,-126.49 2543.81,-131.59 2539.73,-121.82 2534.52,-126.49"/>
</a>
</g>
</g>
<!-- Node24 -->
<g id="Node000024" class="node">
<title>Node24</title>
<g id="a_Node000024"><a xlink:href="d__npc__lib_8cpp.html" target="_top" xlink:title=" ">
<polygon fill="white" stroke="#666666" points="2670.88,-85.75 2570.88,-85.75 2570.88,-66.5 2670.88,-66.5 2670.88,-85.75"/>
<text text-anchor="middle" x="2620.88" y="-72.25" font-family="Helvetica,sans-Serif" font-size="10.00">src/d/d_npc_lib.cpp</text>
</a>
</g>
</g>
<!-- Node2&#45;&gt;Node24 -->
<g id="edge23_Node000002_Node000024" class="edge">
<title>Node2&#45;&gt;Node24</title>
<g id="a_edge23_Node000002_Node000024"><a xlink:title=" ">
<path fill="none" stroke="#63b8ff" d="M2578.62,-124.16C2590.39,-111.06 2604.44,-95.42 2613.01,-85.88"/>
<polygon fill="#63b8ff" stroke="#63b8ff" points="2576.02,-121.82 2571.94,-131.59 2581.23,-126.49 2576.02,-121.82"/>
</a>
</g>
</g>
<!-- Node25 -->
<g id="Node000025" class="node">
<title>Node25</title>
<g id="a_Node000025"><a xlink:href="d__timer_8cpp.html" target="_top" xlink:title=" ">
<polygon fill="white" stroke="#666666" points="2780.38,-85.75 2689.38,-85.75 2689.38,-66.5 2780.38,-66.5 2780.38,-85.75"/>
<text text-anchor="middle" x="2734.88" y="-72.25" font-family="Helvetica,sans-Serif" font-size="10.00">src/d/d_timer.cpp</text>
</a>
</g>
</g>
<!-- Node2&#45;&gt;Node25 -->
<g id="edge24_Node000002_Node000025" class="edge">
<title>Node2&#45;&gt;Node25</title>
<g id="a_edge24_Node000002_Node000025"><a xlink:title=" ">
<path fill="none" stroke="#63b8ff" d="M2605.31,-128.46C2639.8,-114.79 2684.99,-96.89 2711.87,-86.24"/>
<polygon fill="#63b8ff" stroke="#63b8ff" points="2604.39,-125.05 2596.39,-131.99 2606.97,-131.56 2604.39,-125.05"/>
</a>
</g>
</g>
<!-- Node26 -->
<g id="Node000026" class="node">
<title>Node26</title>
<g id="a_Node000026"><a xlink:href="d__tresure_8cpp.html" target="_top" xlink:title=" ">
<polygon fill="white" stroke="#666666" points="2897.5,-85.75 2798.25,-85.75 2798.25,-66.5 2897.5,-66.5 2897.5,-85.75"/>
<text text-anchor="middle" x="2847.88" y="-72.25" font-family="Helvetica,sans-Serif" font-size="10.00">src/d/d_tresure.cpp</text>
</a>
</g>
</g>
<!-- Node2&#45;&gt;Node26 -->
<g id="edge25_Node000002_Node000026" class="edge">
<title>Node2&#45;&gt;Node26</title>
<g id="a_edge25_Node000002_Node000026"><a xlink:title=" ">
<path fill="none" stroke="#63b8ff" d="M2643.69,-130.94C2687.43,-122.03 2741.29,-110.15 2788.88,-97 2800.23,-93.86 2812.61,-89.79 2823.09,-86.16"/>
<polygon fill="#63b8ff" stroke="#63b8ff" points="2643.1,-127.49 2633.99,-132.9 2644.49,-134.35 2643.1,-127.49"/>
</a>
</g>
</g>
<!-- Node27 -->
<g id="Node000027" class="node">
<title>Node27</title>
<g id="a_Node000027"><a xlink:href="d__vibration_8cpp.html" target="_top" xlink:title=" ">
<polygon fill="white" stroke="#666666" points="3021.88,-85.75 2915.88,-85.75 2915.88,-66.5 3021.88,-66.5 3021.88,-85.75"/>
<text text-anchor="middle" x="2968.88" y="-72.25" font-family="Helvetica,sans-Serif" font-size="10.00">src/d/d_vibration.cpp</text>
</a>
</g>
</g>
<!-- Node2&#45;&gt;Node27 -->
<g id="edge26_Node000002_Node000027" class="edge">
<title>Node2&#45;&gt;Node27</title>
<g id="a_edge26_Node000002_Node000027"><a xlink:title=" ">
<path fill="none" stroke="#63b8ff" d="M2643.54,-138.96C2714.64,-131.11 2818.12,-117.46 2906.88,-97 2919.21,-94.16 2932.62,-90 2943.8,-86.22"/>
<polygon fill="#63b8ff" stroke="#63b8ff" points="2643.48,-135.45 2633.91,-140.01 2644.23,-142.4 2643.48,-135.45"/>
</a>
</g>
</g>
<!-- Node28 -->
<g id="Node000028" class="node">
<title>Node28</title>
<g id="a_Node000028"><a xlink:href="d__event__manager_8cpp.html" target="_top" xlink:title=" ">
<polygon fill="white" stroke="#666666" points="3142,-91.38 3039.75,-91.38 3039.75,-60.88 3142,-60.88 3142,-91.38"/>
<text text-anchor="start" x="3047.75" y="-77.88" font-family="Helvetica,sans-Serif" font-size="10.00">src/d/event/d_event</text>
<text text-anchor="middle" x="3090.88" y="-66.62" font-family="Helvetica,sans-Serif" font-size="10.00">_manager.cpp</text>
</a>
</g>
</g>
<!-- Node2&#45;&gt;Node28 -->
<g id="edge27_Node000002_Node000028" class="edge">
<title>Node2&#45;&gt;Node28</title>
<g id="a_edge27_Node000002_Node000028"><a xlink:title=" ">
<path fill="none" stroke="#63b8ff" d="M2643.71,-143.65C2739.16,-138.38 2897.47,-125.83 3030.88,-97 3037.31,-95.61 3044.03,-93.78 3050.53,-91.79"/>
<polygon fill="#63b8ff" stroke="#63b8ff" points="2643.7,-140.15 2633.9,-144.18 2644.07,-147.14 2643.7,-140.15"/>
</a>
</g>
</g>
<!-- Node29 -->
<g id="Node000029" class="node">
<title>Node29</title>
<g id="a_Node000029"><a xlink:href="d__kankyo_8cpp.html" target="_top" xlink:title=" ">
<polygon fill="white" stroke="#666666" points="3293.75,-85.75 3160,-85.75 3160,-66.5 3293.75,-66.5 3293.75,-85.75"/>
<text text-anchor="middle" x="3226.88" y="-72.25" font-family="Helvetica,sans-Serif" font-size="10.00">src/d/kankyo/d_kankyo.cpp</text>
</a>
</g>
</g>
<!-- Node2&#45;&gt;Node29 -->
<g id="edge28_Node000002_Node000029" class="edge">
<title>Node2&#45;&gt;Node29</title>
<g id="a_edge28_Node000002_Node000029"><a xlink:title=" ">
<path fill="none" stroke="#63b8ff" d="M2643.6,-144.59C2759.42,-139.95 2972.01,-127.73 3150.88,-97 3166.33,-94.34 3183.24,-90.06 3197.17,-86.15"/>
<polygon fill="#63b8ff" stroke="#63b8ff" points="2643.72,-141.08 2633.86,-144.97 2643.99,-148.08 2643.72,-141.08"/>
</a>
</g>
</g>
<!-- Node30 -->
<g id="Node000030" class="node">
<title>Node30</title>
<g id="a_Node000030"><a xlink:href="d__kankyo__rain_8cpp.html" target="_top" xlink:title=" ">
<polygon fill="white" stroke="#666666" points="3427.75,-91.38 3312,-91.38 3312,-60.88 3427.75,-60.88 3427.75,-91.38"/>
<text text-anchor="start" x="3320" y="-77.88" font-family="Helvetica,sans-Serif" font-size="10.00">src/d/kankyo/d_kankyo</text>
<text text-anchor="middle" x="3369.88" y="-66.62" font-family="Helvetica,sans-Serif" font-size="10.00">_rain.cpp</text>
</a>
</g>
</g>
<!-- Node2&#45;&gt;Node30 -->
<g id="edge29_Node000002_Node000030" class="edge">
<title>Node2&#45;&gt;Node30</title>
<g id="a_edge29_Node000002_Node000030"><a xlink:title=" ">
<path fill="none" stroke="#63b8ff" d="M2643.98,-147.59C2783.48,-146.76 3067.08,-139.39 3302.88,-97 3310.16,-95.69 3317.78,-93.88 3325.15,-91.87"/>
<polygon fill="#63b8ff" stroke="#63b8ff" points="2644.05,-144.09 2634.07,-147.63 2644.09,-151.09 2644.05,-144.09"/>
</a>
</g>
</g>
<!-- Node31 -->
<g id="Node000031" class="node">
<title>Node31</title>
<g id="a_Node000031"><a xlink:href="d__kankyo__wether_8cpp.html" target="_top" xlink:title=" ">
<polygon fill="white" stroke="#666666" points="3561.75,-91.38 3446,-91.38 3446,-60.88 3561.75,-60.88 3561.75,-91.38"/>
<text text-anchor="start" x="3454" y="-77.88" font-family="Helvetica,sans-Serif" font-size="10.00">src/d/kankyo/d_kankyo</text>
<text text-anchor="middle" x="3503.88" y="-66.62" font-family="Helvetica,sans-Serif" font-size="10.00">_wether.cpp</text>
</a>
</g>
</g>
<!-- Node2&#45;&gt;Node31 -->
<g id="edge30_Node000002_Node000031" class="edge">
<title>Node2&#45;&gt;Node31</title>
<g id="a_edge30_Node000002_Node000031"><a xlink:title=" ">
<path fill="none" stroke="#63b8ff" d="M2643.93,-144.86C2834.32,-139.17 3286.27,-123.28 3436.88,-97 3444.29,-95.71 3452.04,-93.87 3459.53,-91.84"/>
<polygon fill="#63b8ff" stroke="#63b8ff" points="2644,-141.36 2634.11,-145.15 2644.21,-148.36 2644,-141.36"/>
</a>
</g>
</g>
<!-- Node32 -->
<g id="Node000032" class="node">
<title>Node32</title>
<g id="a_Node000032"><a xlink:href="d__map_8cpp.html" target="_top" xlink:title=" ">
<polygon fill="white" stroke="#666666" points="3689.75,-85.75 3580,-85.75 3580,-66.5 3689.75,-66.5 3689.75,-85.75"/>
<text text-anchor="middle" x="3634.88" y="-72.25" font-family="Helvetica,sans-Serif" font-size="10.00">src/d/map/d_map.cpp</text>
</a>
</g>
</g>
<!-- Node2&#45;&gt;Node32 -->
<g id="edge31_Node000002_Node000032" class="edge">
<title>Node2&#45;&gt;Node32</title>
<g id="a_edge31_Node000002_Node000032"><a xlink:title=" ">
<path fill="none" stroke="#63b8ff" d="M2644.02,-145.76C2855.13,-141.65 3393.92,-128.35 3570.88,-97 3584.28,-94.63 3598.8,-90.27 3610.62,-86.24"/>
<polygon fill="#63b8ff" stroke="#63b8ff" points="2644.15,-142.25 2634.22,-145.95 2644.29,-149.25 2644.15,-142.25"/>
</a>
</g>
</g>
<!-- Node33 -->
<g id="Node000033" class="node">
<title>Node33</title>
<g id="a_Node000033"><a xlink:href="d__menu__dmap_8cpp.html" target="_top" xlink:title=" ">
<polygon fill="white" stroke="#666666" points="3857.62,-85.75 3708.12,-85.75 3708.12,-66.5 3857.62,-66.5 3857.62,-85.75"/>
<text text-anchor="middle" x="3782.88" y="-72.25" font-family="Helvetica,sans-Serif" font-size="10.00">src/d/menu/d_menu_dmap.cpp</text>
</a>
</g>
</g>
<!-- Node2&#45;&gt;Node33 -->
<g id="edge32_Node000002_Node000033" class="edge">
<title>Node2&#45;&gt;Node33</title>
<g id="a_edge32_Node000002_Node000033"><a xlink:title=" ">
<path fill="none" stroke="#63b8ff" d="M2643.69,-145.56C2872.8,-140.73 3495.24,-125.32 3698.88,-97 3716.24,-94.59 3735.28,-90.23 3750.83,-86.2"/>
<polygon fill="#63b8ff" stroke="#63b8ff" points="2643.87,-142.06 2633.94,-145.77 2644.02,-149.06 2643.87,-142.06"/>
</a>
</g>
</g>
<!-- Node34 -->
<g id="Node000034" class="node">
<title>Node34</title>
<g id="a_Node000034"><a xlink:href="d__menu__ring_8cpp.html" target="_top" xlink:title=" ">
<polygon fill="white" stroke="#666666" points="4016.5,-85.75 3875.25,-85.75 3875.25,-66.5 4016.5,-66.5 4016.5,-85.75"/>
<text text-anchor="middle" x="3945.88" y="-72.25" font-family="Helvetica,sans-Serif" font-size="10.00">src/d/menu/d_menu_ring.cpp</text>
</a>
</g>
</g>
<!-- Node2&#45;&gt;Node34 -->
<g id="edge33_Node000002_Node000034" class="edge">
<title>Node2&#45;&gt;Node34</title>
<g id="a_edge33_Node000002_Node000034"><a xlink:title=" ">
<path fill="none" stroke="#63b8ff" d="M2643.84,-146.28C2895.79,-143.08 3629.64,-131.02 3866.88,-97 3883.39,-94.63 3901.47,-90.22 3916.16,-86.16"/>
<polygon fill="#63b8ff" stroke="#63b8ff" points="2644.03,-142.78 2634.08,-146.41 2644.12,-149.78 2644.03,-142.78"/>
</a>
</g>
</g>
<!-- Node35 -->
<g id="Node000035" class="node">
<title>Node35</title>
<g id="a_Node000035"><a xlink:href="d__shop__camera_8cpp.html" target="_top" xlink:title=" ">
<polygon fill="white" stroke="#666666" points="4186.75,-85.75 4035,-85.75 4035,-66.5 4186.75,-66.5 4186.75,-85.75"/>
<text text-anchor="middle" x="4110.88" y="-72.25" font-family="Helvetica,sans-Serif" font-size="10.00">src/d/shop/d_shop_camera.cpp</text>
</a>
</g>
</g>
<!-- Node2&#45;&gt;Node35 -->
<g id="edge34_Node000002_Node000035" class="edge">
<title>Node2&#45;&gt;Node35</title>
<g id="a_edge34_Node000002_Node000035"><a xlink:title=" ">
<path fill="none" stroke="#63b8ff" d="M2643.76,-146.51C2915.75,-143.84 3756.1,-132.81 4025.88,-97 4043.6,-94.65 4063.05,-90.24 4078.86,-86.17"/>
<polygon fill="#63b8ff" stroke="#63b8ff" points="2643.87,-143.01 2633.91,-146.61 2643.94,-150.01 2643.87,-143.01"/>
</a>
</g>
</g>
<!-- Node36 -->
<g id="Node000036" class="node">
<title>Node36</title>
<g id="a_Node000036"><a xlink:href="d__shop__system_8cpp.html" target="_top" xlink:title=" ">
<polygon fill="white" stroke="#666666" points="4355.38,-85.75 4204.38,-85.75 4204.38,-66.5 4355.38,-66.5 4355.38,-85.75"/>
<text text-anchor="middle" x="4279.88" y="-72.25" font-family="Helvetica,sans-Serif" font-size="10.00">src/d/shop/d_shop_system.cpp</text>
</a>
</g>
</g>
<!-- Node2&#45;&gt;Node36 -->
<g id="edge35_Node000002_Node000036" class="edge">
<title>Node2&#45;&gt;Node36</title>
<g id="a_edge35_Node000002_Node000036"><a xlink:title=" ">
<path fill="none" stroke="#63b8ff" d="M2644.08,-146.9C2936.85,-145.35 3891.62,-137.24 4195.88,-97 4213.41,-94.68 4232.62,-90.28 4248.25,-86.2"/>
<polygon fill="#63b8ff" stroke="#63b8ff" points="2644.2,-143.4 2634.22,-146.95 2644.24,-150.4 2644.2,-143.4"/>
</a>
</g>
</g>
<!-- Node37 -->
<g id="Node000037" class="node">
<title>Node37</title>
<g id="a_Node000037"><a xlink:href="f__op__actor__mng_8cpp.html" target="_top" xlink:title=" ">
<polygon fill="white" stroke="#666666" points="4473.88,-91.38 4373.88,-91.38 4373.88,-60.88 4473.88,-60.88 4473.88,-91.38"/>
<text text-anchor="start" x="4381.88" y="-77.88" font-family="Helvetica,sans-Serif" font-size="10.00">src/f_op/f_op_actor</text>
<text text-anchor="middle" x="4423.88" y="-66.62" font-family="Helvetica,sans-Serif" font-size="10.00">_mng.cpp</text>
</a>
</g>
</g>
<!-- Node2&#45;&gt;Node37 -->
<g id="edge36_Node000002_Node000037" class="edge">
<title>Node2&#45;&gt;Node37</title>
<g id="a_edge36_Node000002_Node000037"><a xlink:title=" ">
<path fill="none" stroke="#63b8ff" d="M2643.81,-146.36C2979.83,-142.66 4194.75,-127.32 4364.88,-97 4371.69,-95.79 4378.78,-93.94 4385.59,-91.85"/>
<polygon fill="#63b8ff" stroke="#63b8ff" points="2644.17,-142.85 2634.21,-146.46 2644.25,-149.85 2644.17,-142.85"/>
</a>
</g>
</g>
<!-- Node38 -->
<g id="Node000038" class="node">
<title>Node38</title>
<g id="a_Node000038"><a xlink:href="f__op__msg__mng_8cpp.html" target="_top" xlink:title=" ">
<polygon fill="white" stroke="#666666" points="4631.38,-85.75 4492.38,-85.75 4492.38,-66.5 4631.38,-66.5 4631.38,-85.75"/>
<text text-anchor="middle" x="4561.88" y="-72.25" font-family="Helvetica,sans-Serif" font-size="10.00">src/f_op/f_op_msg_mng.cpp</text>
</a>
</g>
</g>
<!-- Node2&#45;&gt;Node38 -->
<g id="edge37_Node000002_Node000038" class="edge">
<title>Node2&#45;&gt;Node38</title>
<g id="a_edge37_Node000002_Node000038"><a xlink:title=" ">
<path fill="none" stroke="#63b8ff" d="M2644.04,-146.12C2994.05,-141.37 4299.59,-122.13 4482.88,-97 4499.41,-94.73 4517.48,-90.33 4532.17,-86.25"/>
<polygon fill="#63b8ff" stroke="#63b8ff" points="2644.19,-142.62 2634.24,-146.25 2644.29,-149.62 2644.19,-142.62"/>
</a>
</g>
</g>
<!-- Node39 -->
<g id="Node000039" class="node">
<title>Node39</title>
<g id="a_Node000039"><a xlink:href="m__Do__lib_8cpp.html" target="_top" xlink:title=" ">
<polygon fill="white" stroke="#666666" points="4768.62,-85.75 4649.12,-85.75 4649.12,-66.5 4768.62,-66.5 4768.62,-85.75"/>
<text text-anchor="middle" x="4708.88" y="-72.25" font-family="Helvetica,sans-Serif" font-size="10.00">src/m_Do/m_Do_lib.cpp</text>
</a>
</g>
</g>
<!-- Node2&#45;&gt;Node39 -->
<g id="edge38_Node000002_Node000039" class="edge">
<title>Node2&#45;&gt;Node39</title>
<g id="a_edge38_Node000002_Node000039"><a xlink:title=" ">
<path fill="none" stroke="#63b8ff" d="M2644.03,-146.49C3011.97,-143.09 4441.81,-127.95 4640.88,-97 4655.34,-94.75 4671.05,-90.3 4683.72,-86.18"/>
<polygon fill="#63b8ff" stroke="#63b8ff" points="2644.16,-142.99 2634.2,-146.58 2644.23,-149.99 2644.16,-142.99"/>
</a>
</g>
</g>
<!-- Node40 -->
<g id="Node000040" class="node">
<title>Node40</title>
<g id="a_Node000040"><a xlink:href="m__Do__machine_8cpp.html" target="_top" xlink:title=" ">
<polygon fill="white" stroke="#666666" points="4933.12,-85.75 4786.62,-85.75 4786.62,-66.5 4933.12,-66.5 4933.12,-85.75"/>
<text text-anchor="middle" x="4859.88" y="-72.25" font-family="Helvetica,sans-Serif" font-size="10.00">src/m_Do/m_Do_machine.cpp</text>
</a>
</g>
</g>
<!-- Node2&#45;&gt;Node40 -->
<g id="edge39_Node000002_Node000040" class="edge">
<title>Node2&#45;&gt;Node40</title>
<g id="a_edge39_Node000002_Node000040"><a xlink:title=" ">
<path fill="none" stroke="#63b8ff" d="M2643.94,-146.4C3026.57,-142.46 4563.95,-125.01 4777.88,-97 4795.16,-94.74 4814.09,-90.28 4829.41,-86.16"/>
<polygon fill="#63b8ff" stroke="#63b8ff" points="2644.17,-142.89 2634.2,-146.5 2644.24,-149.89 2644.17,-142.89"/>
</a>
</g>
</g>
<!-- Node2&#45;&gt;Node41 -->
<g id="edge40_Node000002_Node000041" class="edge">
<title>Node2&#45;&gt;Node41</title>
<g id="a_edge40_Node000002_Node000041"><a xlink:title=" ">
<path fill="none" stroke="#63b8ff" d="M2643.94,-146.03C3057.6,-140.12 4826.18,-113.92 4941.88,-97 4957.14,-94.77 4973.78,-90.32 4987.2,-86.19"/>
<polygon fill="#63b8ff" stroke="#63b8ff" points="2644.15,-142.53 2634.2,-146.17 2644.25,-149.53 2644.15,-142.53"/>
</a>
</g>
</g>
<!-- Node5 -->
<g id="Node000005" class="node">
<title>Node5</title>
<g id="a_Node000005"><a xlink:href="d__com__static_8cpp.html" target="_top" xlink:title=" ">
<polygon fill="white" stroke="#666666" points="247.38,-19.25 108.38,-19.25 108.38,0 247.38,0 247.38,-19.25"/>
<text text-anchor="middle" x="177.88" y="-5.75" font-family="Helvetica,sans-Serif" font-size="10.00">src/d/com/d_com_static.cpp</text>
</a>
</g>
</g>
<!-- Node4&#45;&gt;Node5 -->
<g id="edge4_Node000004_Node000005" class="edge">
<title>Node4&#45;&gt;Node5</title>
<g id="a_edge4_Node000004_Node000005"><a xlink:title=" ">
<path fill="none" stroke="#63b8ff" d="M223.77,-52.91C211.29,-41.42 196.76,-28.03 187.45,-19.45"/>
<polygon fill="#63b8ff" stroke="#63b8ff" points="221.15,-55.26 230.88,-59.46 225.9,-50.11 221.15,-55.26"/>
</a>
</g>
</g>
<!-- Node6 -->
<g id="Node000006" class="node">
<title>Node6</title>
<g id="a_Node000006"><a xlink:href="d__s__play_8cpp.html" target="_top" xlink:title=" ">
<polygon fill="white" stroke="#666666" points="370.5,-19.25 265.25,-19.25 265.25,0 370.5,0 370.5,-19.25"/>
<text text-anchor="middle" x="317.88" y="-5.75" font-family="Helvetica,sans-Serif" font-size="10.00">src/d/s/d_s_play.cpp</text>
</a>
</g>
</g>
<!-- Node4&#45;&gt;Node6 -->
<g id="edge5_Node000004_Node000006" class="edge">
<title>Node4&#45;&gt;Node6</title>
<g id="a_edge5_Node000004_Node000006"><a xlink:title=" ">
<path fill="none" stroke="#63b8ff" d="M271.98,-52.91C284.46,-41.42 298.99,-28.03 308.3,-19.45"/>
<polygon fill="#63b8ff" stroke="#63b8ff" points="269.85,-50.11 264.87,-59.46 274.6,-55.26 269.85,-50.11"/>
</a>
</g>
</g>
</g>
</svg>
