<?xml version="1.0" encoding="UTF-8" standalone="no"?>
<!DOCTYPE svg PUBLIC "-//W3C//DTD SVG 1.1//EN"
 "http://www.w3.org/Graphics/SVG/1.1/DTD/svg11.dtd">
<!-- Generated by graphviz version 7.0.5 (20221223.1930)
 -->
<!-- Title: include/JSystem/JParticle/JPAList.h Pages: 1 -->
<svg width="2705pt" height="390pt"
 viewBox="0.00 0.00 2705.00 390.00" xmlns="http://www.w3.org/2000/svg" xmlns:xlink="http://www.w3.org/1999/xlink">
<g id="graph0" class="graph" transform="scale(1 1) rotate(0) translate(4 386)">
<title>include/JSystem/JParticle/JPAList.h</title>
<!-- Node1 -->
<g id="node1" class="node">
<title>Node1</title>
<g id="a_node1"><a xlink:title=" ">
<polygon fill="#999999" stroke="#666666" points="2001,-382 1871,-382 1871,-352 2001,-352 2001,-382"/>
<text text-anchor="start" x="1879" y="-370" font-family="Helvetica,sans-Serif" font-size="10.00">include/JSystem/JParticle</text>
<text text-anchor="middle" x="1936" y="-359" font-family="Helvetica,sans-Serif" font-size="10.00">/JPAList.h</text>
</a>
</g>
</g>
<!-- Node2 -->
<g id="node2" class="node">
<title>Node2</title>
<g id="a_node2"><a xlink:href="JPAEmitter_8h.html" target="_top" xlink:title=" ">
<polygon fill="white" stroke="#666666" points="2001,-316 1871,-316 1871,-286 2001,-286 2001,-316"/>
<text text-anchor="start" x="1879" y="-304" font-family="Helvetica,sans-Serif" font-size="10.00">include/JSystem/JParticle</text>
<text text-anchor="middle" x="1936" y="-293" font-family="Helvetica,sans-Serif" font-size="10.00">/JPAEmitter.h</text>
</a>
</g>
</g>
<!-- Node1&#45;&gt;Node2 -->
<g id="edge1" class="edge">
<title>Node1&#45;&gt;Node2</title>
<path fill="none" stroke="#63b8ff" d="M1936,-340.39C1936,-332.13 1936,-323.28 1936,-316.16"/>
<polygon fill="#63b8ff" stroke="#63b8ff" points="1932.5,-340.28 1936,-350.28 1939.5,-340.28 1932.5,-340.28"/>
</g>
<!-- Node227 -->
<g id="node45" class="node">
<title>Node227</title>
<g id="a_node45"><a xlink:href="JPAEmitterManager_8h.html" target="_top" xlink:title=" ">
<polygon fill="white" stroke="#666666" points="2465,-316 2335,-316 2335,-286 2465,-286 2465,-316"/>
<text text-anchor="start" x="2343" y="-304" font-family="Helvetica,sans-Serif" font-size="10.00">include/JSystem/JParticle</text>
<text text-anchor="middle" x="2400" y="-293" font-family="Helvetica,sans-Serif" font-size="10.00">/JPAEmitterManager.h</text>
</a>
</g>
</g>
<!-- Node1&#45;&gt;Node227 -->
<g id="edge54" class="edge">
<title>Node1&#45;&gt;Node227</title>
<path fill="none" stroke="#63b8ff" d="M2012.71,-355.42C2102.66,-343.01 2250.2,-322.66 2334.84,-310.99"/>
<polygon fill="#63b8ff" stroke="#63b8ff" points="2012.42,-351.93 2003,-356.76 2013.38,-358.86 2012.42,-351.93"/>
</g>
<!-- Node228 -->
<g id="node46" class="node">
<title>Node228</title>
<g id="a_node46"><a xlink:href="JPAParticle_8h.html" target="_top" xlink:title=" ">
<polygon fill="white" stroke="#666666" points="1671,-316 1541,-316 1541,-286 1671,-286 1671,-316"/>
<text text-anchor="start" x="1549" y="-304" font-family="Helvetica,sans-Serif" font-size="10.00">include/JSystem/JParticle</text>
<text text-anchor="middle" x="1606" y="-293" font-family="Helvetica,sans-Serif" font-size="10.00">/JPAParticle.h</text>
</a>
</g>
</g>
<!-- Node1&#45;&gt;Node228 -->
<g id="edge59" class="edge">
<title>Node1&#45;&gt;Node228</title>
<path fill="none" stroke="#63b8ff" d="M1859.68,-351.2C1802.66,-340.14 1725.53,-325.18 1671.34,-314.67"/>
<polygon fill="#63b8ff" stroke="#63b8ff" points="1858.83,-354.6 1869.32,-353.07 1860.17,-347.73 1858.83,-354.6"/>
</g>
<!-- Node3 -->
<g id="node3" class="node">
<title>Node3</title>
<g id="a_node3"><a xlink:href="d__particle_8h.html" target="_top" xlink:title=" ">
<polygon fill="white" stroke="#666666" points="1399,-244.5 1309,-244.5 1309,-214.5 1399,-214.5 1399,-244.5"/>
<text text-anchor="start" x="1317" y="-232.5" font-family="Helvetica,sans-Serif" font-size="10.00">include/d/particle</text>
<text text-anchor="middle" x="1354" y="-221.5" font-family="Helvetica,sans-Serif" font-size="10.00">/d_particle.h</text>
</a>
</g>
</g>
<!-- Node2&#45;&gt;Node3 -->
<g id="edge2" class="edge">
<title>Node2&#45;&gt;Node3</title>
<path fill="none" stroke="#63b8ff" d="M1859.26,-295.12C1734.17,-286.77 1491.86,-268.79 1408,-250 1402.16,-248.69 1396.1,-246.93 1390.23,-244.99"/>
<polygon fill="#63b8ff" stroke="#63b8ff" points="1858.9,-298.6 1869.11,-295.77 1859.36,-291.62 1858.9,-298.6"/>
</g>
<!-- Node218 -->
<g id="node36" class="node">
<title>Node218</title>
<g id="a_node36"><a xlink:href="d__a__obj__snow__soup_8h.html" target="_top" xlink:title=" ">
<polygon fill="white" stroke="#666666" points="2061,-250 1945,-250 1945,-209 2061,-209 2061,-250"/>
<text text-anchor="start" x="1953" y="-238" font-family="Helvetica,sans-Serif" font-size="10.00">include/rel/d/a/obj</text>
<text text-anchor="start" x="1953" y="-227" font-family="Helvetica,sans-Serif" font-size="10.00">/d_a_obj_snow_soup/d</text>
<text text-anchor="middle" x="2003" y="-216" font-family="Helvetica,sans-Serif" font-size="10.00">_a_obj_snow_soup.h</text>
</a>
</g>
</g>
<!-- Node2&#45;&gt;Node218 -->
<g id="edge45" class="edge">
<title>Node2&#45;&gt;Node218</title>
<path fill="none" stroke="#63b8ff" d="M1957.8,-277.39C1966.18,-268.69 1975.68,-258.84 1983.8,-250.42"/>
<polygon fill="#63b8ff" stroke="#63b8ff" points="1955.35,-274.88 1950.93,-284.51 1960.39,-279.74 1955.35,-274.88"/>
</g>
<!-- Node219 -->
<g id="node37" class="node">
<title>Node219</title>
<g id="a_node37"><a xlink:href="JPABaseShape_8cpp.html" target="_top" xlink:title=" ">
<polygon fill="white" stroke="#666666" points="1531,-244.5 1417,-244.5 1417,-214.5 1531,-214.5 1531,-244.5"/>
<text text-anchor="start" x="1425" y="-232.5" font-family="Helvetica,sans-Serif" font-size="10.00">libs/JSystem/JParticle</text>
<text text-anchor="middle" x="1474" y="-221.5" font-family="Helvetica,sans-Serif" font-size="10.00">/JPABaseShape.cpp</text>
</a>
</g>
</g>
<!-- Node2&#45;&gt;Node219 -->
<g id="edge46" class="edge">
<title>Node2&#45;&gt;Node219</title>
<path fill="none" stroke="#63b8ff" d="M1859.66,-294.05C1779.47,-286.94 1649.96,-273.03 1540,-250 1533.33,-248.6 1526.36,-246.86 1519.56,-245"/>
<polygon fill="#63b8ff" stroke="#63b8ff" points="1858.87,-297.49 1869.14,-294.88 1859.48,-290.52 1858.87,-297.49"/>
</g>
<!-- Node220 -->
<g id="node38" class="node">
<title>Node220</title>
<g id="a_node38"><a xlink:href="JPAChildShape_8cpp.html" target="_top" xlink:title=" ">
<polygon fill="white" stroke="#666666" points="1663,-244.5 1549,-244.5 1549,-214.5 1663,-214.5 1663,-244.5"/>
<text text-anchor="start" x="1557" y="-232.5" font-family="Helvetica,sans-Serif" font-size="10.00">libs/JSystem/JParticle</text>
<text text-anchor="middle" x="1606" y="-221.5" font-family="Helvetica,sans-Serif" font-size="10.00">/JPAChildShape.cpp</text>
</a>
</g>
</g>
<!-- Node2&#45;&gt;Node220 -->
<g id="edge47" class="edge">
<title>Node2&#45;&gt;Node220</title>
<path fill="none" stroke="#63b8ff" d="M1859.18,-287.54C1806.28,-278.45 1734.52,-265.12 1672,-250 1665.73,-248.48 1659.17,-246.74 1652.72,-244.93"/>
<polygon fill="#63b8ff" stroke="#63b8ff" points="1858.58,-290.99 1869.02,-289.22 1859.75,-284.09 1858.58,-290.99"/>
</g>
<!-- Node221 -->
<g id="node39" class="node">
<title>Node221</title>
<g id="a_node39"><a xlink:href="JPAEmitter_8cpp.html" target="_top" xlink:title=" ">
<polygon fill="white" stroke="#666666" points="2457,-244.5 2343,-244.5 2343,-214.5 2457,-214.5 2457,-244.5"/>
<text text-anchor="start" x="2351" y="-232.5" font-family="Helvetica,sans-Serif" font-size="10.00">libs/JSystem/JParticle</text>
<text text-anchor="middle" x="2400" y="-221.5" font-family="Helvetica,sans-Serif" font-size="10.00">/JPAEmitter.cpp</text>
</a>
</g>
</g>
<!-- Node2&#45;&gt;Node221 -->
<g id="edge48" class="edge">
<title>Node2&#45;&gt;Node221</title>
<path fill="none" stroke="#63b8ff" d="M2012.37,-294.11C2092.94,-287.04 2223.32,-273.14 2334,-250 2340.78,-248.58 2347.88,-246.81 2354.8,-244.91"/>
<polygon fill="#63b8ff" stroke="#63b8ff" points="2012.51,-290.59 2002.84,-294.94 2013.11,-297.56 2012.51,-290.59"/>
</g>
<!-- Node222 -->
<g id="node40" class="node">
<title>Node222</title>
<g id="a_node40"><a xlink:href="JPAEmitterManager_8cpp.html" target="_top" xlink:title=" ">
<polygon fill="white" stroke="#666666" points="2600.5,-244.5 2475.5,-244.5 2475.5,-214.5 2600.5,-214.5 2600.5,-244.5"/>
<text text-anchor="start" x="2483.5" y="-232.5" font-family="Helvetica,sans-Serif" font-size="10.00">libs/JSystem/JParticle</text>
<text text-anchor="middle" x="2538" y="-221.5" font-family="Helvetica,sans-Serif" font-size="10.00">/JPAEmitterManager.cpp</text>
</a>
</g>
</g>
<!-- Node2&#45;&gt;Node222 -->
<g id="edge49" class="edge">
<title>Node2&#45;&gt;Node222</title>
<path fill="none" stroke="#63b8ff" d="M2012.63,-296.87C2116.18,-291.71 2306.25,-278.95 2466,-250 2473.52,-248.64 2481.4,-246.87 2489.07,-244.95"/>
<polygon fill="#63b8ff" stroke="#63b8ff" points="2012.68,-293.36 2002.86,-297.35 2013.02,-300.36 2012.68,-293.36"/>
</g>
<!-- Node223 -->
<g id="node41" class="node">
<title>Node223</title>
<g id="a_node41"><a xlink:href="JPAExTexShape_8cpp.html" target="_top" xlink:title=" ">
<polygon fill="white" stroke="#666666" points="2193,-244.5 2079,-244.5 2079,-214.5 2193,-214.5 2193,-244.5"/>
<text text-anchor="start" x="2087" y="-232.5" font-family="Helvetica,sans-Serif" font-size="10.00">libs/JSystem/JParticle</text>
<text text-anchor="middle" x="2136" y="-221.5" font-family="Helvetica,sans-Serif" font-size="10.00">/JPAExTexShape.cpp</text>
</a>
</g>
</g>
<!-- Node2&#45;&gt;Node223 -->
<g id="edge50" class="edge">
<title>Node2&#45;&gt;Node223</title>
<path fill="none" stroke="#63b8ff" d="M1988.31,-281.82C2021.48,-270.3 2063.79,-255.59 2094.61,-244.88"/>
<polygon fill="#63b8ff" stroke="#63b8ff" points="1987.17,-278.51 1978.87,-285.1 1989.46,-285.13 1987.17,-278.51"/>
</g>
<!-- Node224 -->
<g id="node42" class="node">
<title>Node224</title>
<g id="a_node42"><a xlink:href="JPAExtraShape_8cpp.html" target="_top" xlink:title=" ">
<polygon fill="white" stroke="#666666" points="1795,-244.5 1681,-244.5 1681,-214.5 1795,-214.5 1795,-244.5"/>
<text text-anchor="start" x="1689" y="-232.5" font-family="Helvetica,sans-Serif" font-size="10.00">libs/JSystem/JParticle</text>
<text text-anchor="middle" x="1738" y="-221.5" font-family="Helvetica,sans-Serif" font-size="10.00">/JPAExtraShape.cpp</text>
</a>
</g>
</g>
<!-- Node2&#45;&gt;Node224 -->
<g id="edge51" class="edge">
<title>Node2&#45;&gt;Node224</title>
<path fill="none" stroke="#63b8ff" d="M1884.21,-281.82C1851.38,-270.3 1809.49,-255.59 1778.97,-244.88"/>
<polygon fill="#63b8ff" stroke="#63b8ff" points="1882.95,-285.09 1893.55,-285.1 1885.27,-278.48 1882.95,-285.09"/>
</g>
<!-- Node225 -->
<g id="node43" class="node">
<title>Node225</title>
<g id="a_node43"><a xlink:href="JPAParticle_8cpp.html" target="_top" xlink:title=" ">
<polygon fill="white" stroke="#666666" points="1927,-244.5 1813,-244.5 1813,-214.5 1927,-214.5 1927,-244.5"/>
<text text-anchor="start" x="1821" y="-232.5" font-family="Helvetica,sans-Serif" font-size="10.00">libs/JSystem/JParticle</text>
<text text-anchor="middle" x="1870" y="-221.5" font-family="Helvetica,sans-Serif" font-size="10.00">/JPAParticle.cpp</text>
</a>
</g>
</g>
<!-- Node2&#45;&gt;Node225 -->
<g id="edge52" class="edge">
<title>Node2&#45;&gt;Node225</title>
<path fill="none" stroke="#63b8ff" d="M1914.62,-277.48C1904.45,-266.78 1892.59,-254.29 1883.66,-244.88"/>
<polygon fill="#63b8ff" stroke="#63b8ff" points="1911.86,-279.66 1921.28,-284.5 1916.93,-274.84 1911.86,-279.66"/>
</g>
<!-- Node226 -->
<g id="node44" class="node">
<title>Node226</title>
<g id="a_node44"><a xlink:href="JPAResource_8cpp.html" target="_top" xlink:title=" ">
<polygon fill="white" stroke="#666666" points="2325,-244.5 2211,-244.5 2211,-214.5 2325,-214.5 2325,-244.5"/>
<text text-anchor="start" x="2219" y="-232.5" font-family="Helvetica,sans-Serif" font-size="10.00">libs/JSystem/JParticle</text>
<text text-anchor="middle" x="2268" y="-221.5" font-family="Helvetica,sans-Serif" font-size="10.00">/JPAResource.cpp</text>
</a>
</g>
</g>
<!-- Node2&#45;&gt;Node226 -->
<g id="edge53" class="edge">
<title>Node2&#45;&gt;Node226</title>
<path fill="none" stroke="#63b8ff" d="M2012.53,-287.74C2065.92,-278.66 2138.67,-265.27 2202,-250 2208.27,-248.49 2214.84,-246.75 2221.29,-244.94"/>
<polygon fill="#63b8ff" stroke="#63b8ff" points="2012.21,-284.24 2002.93,-289.35 2013.37,-291.14 2012.21,-284.24"/>
</g>
<!-- Node4 -->
<g id="node4" class="node">
<title>Node4</title>
<g id="a_node4"><a xlink:href="d__a__alink_8h.html" target="_top" xlink:title=" ">
<polygon fill="white" stroke="#666666" points="2415,-90.5 2299,-90.5 2299,-71.5 2415,-71.5 2415,-90.5"/>
<text text-anchor="middle" x="2357" y="-78.5" font-family="Helvetica,sans-Serif" font-size="10.00">include/d/a/d_a_alink.h</text>
</a>
</g>
</g>
<!-- Node3&#45;&gt;Node4 -->
<g id="edge3" class="edge">
<title>Node3&#45;&gt;Node4</title>
<path fill="none" stroke="#63b8ff" d="M1380.05,-206.89C1391.87,-196.84 1405.88,-184.57 1418,-173 1436.19,-155.63 1434.11,-142.41 1457,-132 1541.33,-93.65 2198.08,-107.51 2290,-96 2299.67,-94.79 2310.02,-92.92 2319.62,-90.93"/>
<polygon fill="#63b8ff" stroke="#63b8ff" points="1378.05,-204 1372.67,-213.12 1382.57,-209.35 1378.05,-204"/>
</g>
<!-- Node14 -->
<g id="node14" class="node">
<title>Node14</title>
<g id="a_node14"><a xlink:href="d__a__item__static_8h.html" target="_top" xlink:title=" ">
<polygon fill="white" stroke="#666666" points="414.5,-167.5 307.5,-167.5 307.5,-137.5 414.5,-137.5 414.5,-167.5"/>
<text text-anchor="start" x="315.5" y="-155.5" font-family="Helvetica,sans-Serif" font-size="10.00">include/d/a/d_a_item</text>
<text text-anchor="middle" x="361" y="-144.5" font-family="Helvetica,sans-Serif" font-size="10.00">_static.h</text>
</a>
</g>
</g>
<!-- Node3&#45;&gt;Node14 -->
<g id="edge13" class="edge">
<title>Node3&#45;&gt;Node14</title>
<path fill="none" stroke="#63b8ff" d="M1297.46,-224.23C1121.76,-210.96 586.74,-170.55 414.81,-157.56"/>
<polygon fill="#63b8ff" stroke="#63b8ff" points="1297.01,-227.71 1307.24,-224.97 1297.54,-220.73 1297.01,-227.71"/>
</g>
<!-- Node19 -->
<g id="node18" class="node">
<title>Node19</title>
<g id="a_node18"><a xlink:href="d__com__inf__game_8h.html" target="_top" xlink:title=" ">
<polygon fill="#fff0f0" stroke="red" points="1409,-167.5 1299,-167.5 1299,-137.5 1409,-137.5 1409,-167.5"/>
<text text-anchor="start" x="1307" y="-155.5" font-family="Helvetica,sans-Serif" font-size="10.00">include/d/com/d_com</text>
<text text-anchor="middle" x="1354" y="-144.5" font-family="Helvetica,sans-Serif" font-size="10.00">_inf_game.h</text>
</a>
</g>
</g>
<!-- Node3&#45;&gt;Node19 -->
<g id="edge17" class="edge">
<title>Node3&#45;&gt;Node19</title>
<path fill="none" stroke="#63b8ff" d="M1354,-202.73C1354,-191.08 1354,-177.76 1354,-167.92"/>
<polygon fill="#63b8ff" stroke="#63b8ff" points="1350.5,-202.53 1354,-212.53 1357.5,-202.53 1350.5,-202.53"/>
</g>
<!-- Node200 -->
<g id="node34" class="node">
<title>Node200</title>
<g id="a_node34"><a xlink:href="d__particle_8cpp.html" target="_top" xlink:title=" ">
<polygon fill="white" stroke="#666666" points="2697,-90.5 2561,-90.5 2561,-71.5 2697,-71.5 2697,-90.5"/>
<text text-anchor="middle" x="2629" y="-78.5" font-family="Helvetica,sans-Serif" font-size="10.00">src/d/particle/d_particle.cpp</text>
</a>
</g>
</g>
<!-- Node3&#45;&gt;Node200 -->
<g id="edge44" class="edge">
<title>Node3&#45;&gt;Node200</title>
<path fill="none" stroke="#63b8ff" d="M1401.08,-210.74C1403.41,-210.1 1405.72,-209.52 1408,-209 1906.32,-96.26 2046.02,-166.87 2552,-96 2562.09,-94.59 2572.88,-92.8 2583.09,-90.98"/>
<polygon fill="#63b8ff" stroke="#63b8ff" points="1400.23,-207.34 1391.68,-213.59 1402.27,-214.03 1400.23,-207.34"/>
</g>
<!-- Node217 -->
<g id="node35" class="node">
<title>Node217</title>
<g id="a_node35"><a xlink:href="d__a__arrow_8h.html" target="_top" xlink:title=" ">
<polygon fill="white" stroke="#666666" points="1566.5,-167.5 1465.5,-167.5 1465.5,-137.5 1566.5,-137.5 1566.5,-167.5"/>
<text text-anchor="start" x="1473.5" y="-155.5" font-family="Helvetica,sans-Serif" font-size="10.00">include/rel/d/a/d_a</text>
<text text-anchor="middle" x="1516" y="-144.5" font-family="Helvetica,sans-Serif" font-size="10.00">_arrow/d_a_arrow.h</text>
</a>
</g>
</g>
<!-- Node3&#45;&gt;Node217 -->
<g id="edge43" class="edge">
<title>Node3&#45;&gt;Node217</title>
<path fill="none" stroke="#63b8ff" d="M1395.47,-209.3C1423.33,-196.4 1459.45,-179.68 1484.86,-167.92"/>
<polygon fill="#63b8ff" stroke="#63b8ff" points="1394.21,-206.03 1386.61,-213.4 1397.15,-212.38 1394.21,-206.03"/>
</g>
<!-- Node5 -->
<g id="node5" class="node">
<title>Node5</title>
<g id="a_node5"><a xlink:href="d__a__alink_8cpp.html" target="_top" xlink:title=" ">
<polygon fill="white" stroke="#666666" points="2690.5,-24.5 2581.5,-24.5 2581.5,-5.5 2690.5,-5.5 2690.5,-24.5"/>
<text text-anchor="middle" x="2636" y="-12.5" font-family="Helvetica,sans-Serif" font-size="10.00">src/d/a/d_a_alink.cpp</text>
</a>
</g>
</g>
<!-- Node4&#45;&gt;Node5 -->
<g id="edge4" class="edge">
<title>Node4&#45;&gt;Node5</title>
<path fill="none" stroke="#63b8ff" d="M2407.22,-68.48C2461.73,-55.98 2547.6,-36.28 2597.18,-24.91"/>
<polygon fill="#63b8ff" stroke="#63b8ff" points="2406.53,-65.05 2397.56,-70.7 2408.09,-71.87 2406.53,-65.05"/>
</g>
<!-- Node6 -->
<g id="node6" class="node">
<title>Node6</title>
<g id="a_node6"><a xlink:href="d__a__player_8cpp.html" target="_top" xlink:title=" ">
<polygon fill="white" stroke="#666666" points="2144,-24.5 2030,-24.5 2030,-5.5 2144,-5.5 2144,-24.5"/>
<text text-anchor="middle" x="2087" y="-12.5" font-family="Helvetica,sans-Serif" font-size="10.00">src/d/a/d_a_player.cpp</text>
</a>
</g>
</g>
<!-- Node4&#45;&gt;Node6 -->
<g id="edge5" class="edge">
<title>Node4&#45;&gt;Node6</title>
<path fill="none" stroke="#63b8ff" d="M2308.07,-68.4C2255.3,-55.89 2172.45,-36.25 2124.57,-24.91"/>
<polygon fill="#63b8ff" stroke="#63b8ff" points="2307.16,-71.78 2317.7,-70.68 2308.78,-64.97 2307.16,-71.78"/>
</g>
<!-- Node7 -->
<g id="node7" class="node">
<title>Node7</title>
<g id="a_node7"><a xlink:href="d__com__inf__game_8cpp.html" target="_top" xlink:title=" ">
<polygon fill="white" stroke="#666666" points="1369,-30 1261,-30 1261,0 1369,0 1369,-30"/>
<text text-anchor="start" x="1269" y="-18" font-family="Helvetica,sans-Serif" font-size="10.00">src/d/com/d_com_inf</text>
<text text-anchor="middle" x="1315" y="-7" font-family="Helvetica,sans-Serif" font-size="10.00">_game.cpp</text>
</a>
</g>
</g>
<!-- Node4&#45;&gt;Node7 -->
<g id="edge6" class="edge">
<title>Node4&#45;&gt;Node7</title>
<path fill="none" stroke="#63b8ff" d="M2308.58,-68.91C2302.35,-67.77 2296.04,-66.75 2290,-66 1916.56,-19.36 1819.27,-58.32 1444,-30 1419.4,-28.14 1392.25,-25.31 1369.22,-22.68"/>
<polygon fill="#63b8ff" stroke="#63b8ff" points="2307.65,-72.29 2318.13,-70.77 2308.99,-65.42 2307.65,-72.29"/>
</g>
<!-- Node8 -->
<g id="node8" class="node">
<title>Node8</title>
<g id="a_node8"><a xlink:href="d__camera_8cpp.html" target="_top" xlink:title=" ">
<polygon fill="white" stroke="#666666" points="1555,-24.5 1453,-24.5 1453,-5.5 1555,-5.5 1555,-24.5"/>
<text text-anchor="middle" x="1504" y="-12.5" font-family="Helvetica,sans-Serif" font-size="10.00">src/d/d_camera.cpp</text>
</a>
</g>
</g>
<!-- Node4&#45;&gt;Node8 -->
<g id="edge7" class="edge">
<title>Node4&#45;&gt;Node8</title>
<path fill="none" stroke="#63b8ff" d="M2307.66,-68.81C2301.73,-67.73 2295.74,-66.75 2290,-66 2003.13,-28.3 1928.43,-52.82 1640,-30 1611.96,-27.78 1580.74,-24.62 1555.29,-21.86"/>
<polygon fill="#63b8ff" stroke="#63b8ff" points="2306.93,-72.24 2317.42,-70.71 2308.27,-65.37 2306.93,-72.24"/>
</g>
<!-- Node9 -->
<g id="node9" class="node">
<title>Node9</title>
<g id="a_node9"><a xlink:href="d__event_8cpp.html" target="_top" xlink:title=" ">
<polygon fill="white" stroke="#666666" points="2283.5,-24.5 2162.5,-24.5 2162.5,-5.5 2283.5,-5.5 2283.5,-24.5"/>
<text text-anchor="middle" x="2223" y="-12.5" font-family="Helvetica,sans-Serif" font-size="10.00">src/d/event/d_event.cpp</text>
</a>
</g>
</g>
<!-- Node4&#45;&gt;Node9 -->
<g id="edge8" class="edge">
<title>Node4&#45;&gt;Node9</title>
<path fill="none" stroke="#63b8ff" d="M2328.25,-66.27C2301.98,-53.72 2263.9,-35.54 2241.47,-24.82"/>
<polygon fill="#63b8ff" stroke="#63b8ff" points="2326.47,-69.3 2337,-70.45 2329.49,-62.98 2326.47,-69.3"/>
</g>
<!-- Node10 -->
<g id="node10" class="node">
<title>Node10</title>
<g id="a_node10"><a xlink:href="d__menu__ring_8cpp.html" target="_top" xlink:title=" ">
<polygon fill="white" stroke="#666666" points="1965,-24.5 1823,-24.5 1823,-5.5 1965,-5.5 1965,-24.5"/>
<text text-anchor="middle" x="1894" y="-12.5" font-family="Helvetica,sans-Serif" font-size="10.00">src/d/menu/d_menu_ring.cpp</text>
</a>
</g>
</g>
<!-- Node4&#45;&gt;Node10 -->
<g id="edge9" class="edge">
<title>Node4&#45;&gt;Node10</title>
<path fill="none" stroke="#63b8ff" d="M2305.42,-68.79C2300.22,-67.79 2295.01,-66.84 2290,-66 2229.26,-55.84 2061.95,-35.68 1965.35,-24.31"/>
<polygon fill="#63b8ff" stroke="#63b8ff" points="2304.73,-72.22 2315.22,-70.74 2306.1,-65.35 2304.73,-72.22"/>
</g>
<!-- Node11 -->
<g id="node11" class="node">
<title>Node11</title>
<g id="a_node11"><a xlink:href="d__meter2__draw_8cpp.html" target="_top" xlink:title=" ">
<polygon fill="white" stroke="#666666" points="2412,-30 2302,-30 2302,0 2412,0 2412,-30"/>
<text text-anchor="start" x="2310" y="-18" font-family="Helvetica,sans-Serif" font-size="10.00">src/d/meter/d_meter2</text>
<text text-anchor="middle" x="2357" y="-7" font-family="Helvetica,sans-Serif" font-size="10.00">_draw.cpp</text>
</a>
</g>
</g>
<!-- Node4&#45;&gt;Node11 -->
<g id="edge10" class="edge">
<title>Node4&#45;&gt;Node11</title>
<path fill="none" stroke="#63b8ff" d="M2357,-59.78C2357,-50.17 2357,-38.92 2357,-30.23"/>
<polygon fill="#63b8ff" stroke="#63b8ff" points="2353.5,-59.59 2357,-69.59 2360.5,-59.59 2353.5,-59.59"/>
</g>
<!-- Node12 -->
<g id="node12" class="node">
<title>Node12</title>
<g id="a_node12"><a xlink:href="d__msg__flow_8cpp.html" target="_top" xlink:title=" ">
<polygon fill="white" stroke="#666666" points="2563.5,-24.5 2430.5,-24.5 2430.5,-5.5 2563.5,-5.5 2563.5,-24.5"/>
<text text-anchor="middle" x="2497" y="-12.5" font-family="Helvetica,sans-Serif" font-size="10.00">src/d/msg/d_msg_flow.cpp</text>
</a>
</g>
</g>
<!-- Node4&#45;&gt;Node12 -->
<g id="edge11" class="edge">
<title>Node4&#45;&gt;Node12</title>
<path fill="none" stroke="#63b8ff" d="M2386.67,-66.44C2414.13,-53.88 2454.16,-35.58 2477.7,-24.82"/>
<polygon fill="#63b8ff" stroke="#63b8ff" points="2385.48,-63.13 2377.84,-70.47 2388.39,-69.5 2385.48,-63.13"/>
</g>
<!-- Node13 -->
<g id="node13" class="node">
<title>Node13</title>
<g id="a_node13"><a xlink:href="f__op__actor_8cpp.html" target="_top" xlink:title=" ">
<polygon fill="white" stroke="#666666" points="1767.5,-24.5 1648.5,-24.5 1648.5,-5.5 1767.5,-5.5 1767.5,-24.5"/>
<text text-anchor="middle" x="1708" y="-12.5" font-family="Helvetica,sans-Serif" font-size="10.00">src/f_op/f_op_actor.cpp</text>
</a>
</g>
</g>
<!-- Node4&#45;&gt;Node13 -->
<g id="edge12" class="edge">
<title>Node4&#45;&gt;Node13</title>
<path fill="none" stroke="#63b8ff" d="M2307.42,-68.89C2301.57,-67.8 2295.66,-66.8 2290,-66 2079.94,-36.24 2025.03,-51.9 1814,-30 1799.04,-28.45 1782.94,-26.48 1767.91,-24.51"/>
<polygon fill="#63b8ff" stroke="#63b8ff" points="2306.56,-72.28 2317.05,-70.77 2307.91,-65.42 2306.56,-72.28"/>
</g>
<!-- Node15 -->
<g id="node15" class="node">
<title>Node15</title>
<g id="a_node15"><a xlink:href="d__a__obj__item_8h.html" target="_top" xlink:title=" ">
<polygon fill="#fff0f0" stroke="red" points="294.5,-96 193.5,-96 193.5,-66 294.5,-66 294.5,-96"/>
<text text-anchor="start" x="201.5" y="-84" font-family="Helvetica,sans-Serif" font-size="10.00">include/d/a/d_a_obj</text>
<text text-anchor="middle" x="244" y="-73" font-family="Helvetica,sans-Serif" font-size="10.00">_item.h</text>
</a>
</g>
</g>
<!-- Node14&#45;&gt;Node15 -->
<g id="edge14" class="edge">
<title>Node14&#45;&gt;Node15</title>
<path fill="none" stroke="#63b8ff" d="M327.06,-131.34C308.22,-120.15 285.23,-106.49 268.21,-96.38"/>
<polygon fill="#63b8ff" stroke="#63b8ff" points="325.07,-134.23 335.46,-136.33 328.65,-128.21 325.07,-134.23"/>
</g>
<!-- Node17 -->
<g id="node16" class="node">
<title>Node17</title>
<g id="a_node16"><a xlink:href="d__a__do_8h.html" target="_top" xlink:title=" ">
<polygon fill="white" stroke="#666666" points="409,-96 313,-96 313,-66 409,-66 409,-96"/>
<text text-anchor="start" x="321" y="-84" font-family="Helvetica,sans-Serif" font-size="10.00">include/rel/d/a/d_a</text>
<text text-anchor="middle" x="361" y="-73" font-family="Helvetica,sans-Serif" font-size="10.00">_do/d_a_do.h</text>
</a>
</g>
</g>
<!-- Node14&#45;&gt;Node17 -->
<g id="edge15" class="edge">
<title>Node14&#45;&gt;Node17</title>
<path fill="none" stroke="#63b8ff" d="M361,-125.76C361,-115.83 361,-104.86 361,-96.38"/>
<polygon fill="#63b8ff" stroke="#63b8ff" points="357.5,-125.59 361,-135.59 364.5,-125.59 357.5,-125.59"/>
</g>
<!-- Node18 -->
<g id="node17" class="node">
<title>Node18</title>
<g id="a_node17"><a xlink:href="d__a__item__static_8cpp.html" target="_top" xlink:title=" ">
<polygon fill="white" stroke="#666666" points="175.5,-90.5 38.5,-90.5 38.5,-71.5 175.5,-71.5 175.5,-90.5"/>
<text text-anchor="middle" x="107" y="-78.5" font-family="Helvetica,sans-Serif" font-size="10.00">src/d/a/d_a_item_static.cpp</text>
</a>
</g>
</g>
<!-- Node14&#45;&gt;Node18 -->
<g id="edge16" class="edge">
<title>Node14&#45;&gt;Node18</title>
<path fill="none" stroke="#63b8ff" d="M304.41,-133.85C302.25,-133.22 300.11,-132.6 298,-132 244.28,-116.66 181.53,-100.59 143.04,-90.93"/>
<polygon fill="#63b8ff" stroke="#63b8ff" points="303.27,-137.17 313.86,-136.67 305.27,-130.46 303.27,-137.17"/>
</g>
<!-- Node19&#45;&gt;Node7 -->
<g id="edge39" class="edge">
<title>Node19&#45;&gt;Node7</title>
<path fill="none" stroke="#63b8ff" d="M1336.07,-127.96C1329.85,-118.53 1323.55,-107.24 1320,-96 1313,-73.84 1313,-46.55 1313.85,-30.25"/>
<polygon fill="#63b8ff" stroke="#63b8ff" points="1333.19,-129.95 1341.79,-136.15 1338.93,-125.94 1333.19,-129.95"/>
</g>
<!-- Node19&#45;&gt;Node8 -->
<g id="edge40" class="edge">
<title>Node19&#45;&gt;Node8</title>
<path fill="none" stroke="#63b8ff" d="M1348.18,-126.06C1345.49,-107.59 1345.27,-82.96 1358,-66 1379.95,-36.75 1420,-24.48 1452.61,-19.39"/>
<polygon fill="#63b8ff" stroke="#63b8ff" points="1344.7,-126.46 1349.92,-135.68 1351.58,-125.22 1344.7,-126.46"/>
</g>
<!-- Node19&#45;&gt;Node13 -->
<g id="edge42" class="edge">
<title>Node19&#45;&gt;Node13</title>
<path fill="none" stroke="#63b8ff" d="M1358.23,-125.95C1362.85,-106.45 1372.26,-80.52 1391,-66 1410.98,-50.51 1561.97,-31.85 1648.16,-22.3"/>
<polygon fill="#63b8ff" stroke="#63b8ff" points="1354.83,-125.13 1356.24,-135.63 1361.68,-126.54 1354.83,-125.13"/>
</g>
<!-- Node20 -->
<g id="node19" class="node">
<title>Node20</title>
<g id="a_node19"><a xlink:href="d__a__npc_8h.html" target="_top" xlink:title=" ">
<polygon fill="#fff0f0" stroke="red" points="1267.5,-90.5 1156.5,-90.5 1156.5,-71.5 1267.5,-71.5 1267.5,-90.5"/>
<text text-anchor="middle" x="1212" y="-78.5" font-family="Helvetica,sans-Serif" font-size="10.00">include/d/a/d_a_npc.h</text>
</a>
</g>
</g>
<!-- Node19&#45;&gt;Node20 -->
<g id="edge18" class="edge">
<title>Node19&#45;&gt;Node20</title>
<path fill="none" stroke="#63b8ff" d="M1314.43,-132.13C1286.83,-118.62 1251.28,-101.22 1230.14,-90.88"/>
<polygon fill="#63b8ff" stroke="#63b8ff" points="1312.7,-135.18 1323.22,-136.43 1315.77,-128.89 1312.7,-135.18"/>
</g>
<!-- Node27 -->
<g id="node20" class="node">
<title>Node27</title>
<g id="a_node20"><a xlink:href="d__a__npc__cd_8h.html" target="_top" xlink:title=" ">
<polygon fill="#fff0f0" stroke="red" points="1138.5,-90.5 1011.5,-90.5 1011.5,-71.5 1138.5,-71.5 1138.5,-90.5"/>
<text text-anchor="middle" x="1075" y="-78.5" font-family="Helvetica,sans-Serif" font-size="10.00">include/d/a/d_a_npc_cd.h</text>
</a>
</g>
</g>
<!-- Node19&#45;&gt;Node27 -->
<g id="edge19" class="edge">
<title>Node19&#45;&gt;Node27</title>
<path fill="none" stroke="#63b8ff" d="M1287.42,-134.91C1232.04,-121.12 1155.34,-102.01 1110.86,-90.93"/>
<polygon fill="#63b8ff" stroke="#63b8ff" points="1286.53,-138.3 1297.08,-137.32 1288.22,-131.51 1286.53,-138.3"/>
</g>
<!-- Node29 -->
<g id="node21" class="node">
<title>Node29</title>
<g id="a_node21"><a xlink:href="d__a__npc__cd2_8h.html" target="_top" xlink:title=" ">
<polygon fill="#fff0f0" stroke="red" points="994,-30 890,-30 890,0 994,0 994,-30"/>
<text text-anchor="start" x="898" y="-18" font-family="Helvetica,sans-Serif" font-size="10.00">include/d/a/d_a_npc</text>
<text text-anchor="middle" x="942" y="-7" font-family="Helvetica,sans-Serif" font-size="10.00">_cd2.h</text>
</a>
</g>
</g>
<!-- Node19&#45;&gt;Node29 -->
<g id="edge20" class="edge">
<title>Node19&#45;&gt;Node29</title>
<path fill="none" stroke="#63b8ff" d="M1287.38,-146.87C1199.31,-139.76 1049.82,-123.94 1003,-96 976.75,-80.34 957.89,-48.7 948.57,-30.25"/>
<polygon fill="#63b8ff" stroke="#63b8ff" points="1286.84,-150.34 1297.08,-147.64 1287.39,-143.36 1286.84,-150.34"/>
</g>
<!-- Node31 -->
<g id="node22" class="node">
<title>Node31</title>
<g id="a_node22"><a xlink:href="d__cc__uty_8h.html" target="_top" xlink:title=" ">
<polygon fill="#fff0f0" stroke="red" points="1657.5,-90.5 1538.5,-90.5 1538.5,-71.5 1657.5,-71.5 1657.5,-90.5"/>
<text text-anchor="middle" x="1598" y="-78.5" font-family="Helvetica,sans-Serif" font-size="10.00">include/d/cc/d_cc_uty.h</text>
</a>
</g>
</g>
<!-- Node19&#45;&gt;Node31 -->
<g id="edge21" class="edge">
<title>Node19&#45;&gt;Node31</title>
<path fill="none" stroke="#63b8ff" d="M1415.77,-133.91C1463.85,-120.21 1528.59,-101.77 1566.56,-90.96"/>
<polygon fill="#63b8ff" stroke="#63b8ff" points="1414.97,-130.49 1406.31,-136.6 1416.89,-137.23 1414.97,-130.49"/>
</g>
<!-- Node42 -->
<g id="node23" class="node">
<title>Node42</title>
<g id="a_node23"><a xlink:href="d__bright__check_8h.html" target="_top" xlink:title=" ">
<polygon fill="#fff0f0" stroke="red" points="1768.5,-96 1675.5,-96 1675.5,-66 1768.5,-66 1768.5,-96"/>
<text text-anchor="start" x="1683.5" y="-84" font-family="Helvetica,sans-Serif" font-size="10.00">include/d/d_bright</text>
<text text-anchor="middle" x="1722" y="-73" font-family="Helvetica,sans-Serif" font-size="10.00">_check.h</text>
</a>
</g>
</g>
<!-- Node19&#45;&gt;Node42 -->
<g id="edge22" class="edge">
<title>Node19&#45;&gt;Node42</title>
<path fill="none" stroke="#63b8ff" d="M1412.92,-134.31C1416.32,-133.48 1419.7,-132.71 1423,-132 1530.19,-109.05 1559.52,-117.55 1667,-96 1669.71,-95.46 1672.48,-94.87 1675.27,-94.24"/>
<polygon fill="#63b8ff" stroke="#63b8ff" points="1412.36,-130.84 1403.52,-136.69 1414.08,-137.62 1412.36,-130.84"/>
</g>
<!-- Node44 -->
<g id="node24" class="node">
<title>Node44</title>
<g id="a_node24"><a xlink:href="d__error__msg_8h.html" target="_top" xlink:title=" ">
<polygon fill="#fff0f0" stroke="red" points="1520,-90.5 1400,-90.5 1400,-71.5 1520,-71.5 1520,-90.5"/>
<text text-anchor="middle" x="1460" y="-78.5" font-family="Helvetica,sans-Serif" font-size="10.00">include/d/d_error_msg.h</text>
</a>
</g>
</g>
<!-- Node19&#45;&gt;Node44 -->
<g id="edge23" class="edge">
<title>Node19&#45;&gt;Node44</title>
<path fill="none" stroke="#63b8ff" d="M1385.46,-130.87C1405.77,-117.56 1431.17,-100.9 1446.46,-90.88"/>
<polygon fill="#63b8ff" stroke="#63b8ff" points="1383.67,-127.86 1377.23,-136.27 1387.51,-133.71 1383.67,-127.86"/>
</g>
<!-- Node47 -->
<g id="node25" class="node">
<title>Node47</title>
<g id="a_node25"><a xlink:href="d__npc__lib_8h.html" target="_top" xlink:title=" ">
<polygon fill="#fff0f0" stroke="red" points="954.5,-90.5 847.5,-90.5 847.5,-71.5 954.5,-71.5 954.5,-90.5"/>
<text text-anchor="middle" x="901" y="-78.5" font-family="Helvetica,sans-Serif" font-size="10.00">include/d/d_npc_lib.h</text>
</a>
</g>
</g>
<!-- Node19&#45;&gt;Node47 -->
<g id="edge24" class="edge">
<title>Node19&#45;&gt;Node47</title>
<path fill="none" stroke="#63b8ff" d="M1287.27,-143.11C1210.34,-133.16 1080.2,-115.44 969,-96 960.45,-94.51 951.33,-92.74 942.64,-90.98"/>
<polygon fill="#63b8ff" stroke="#63b8ff" points="1286.82,-146.58 1297.19,-144.39 1287.71,-139.64 1286.82,-146.58"/>
</g>
<!-- Node49 -->
<g id="node26" class="node">
<title>Node49</title>
<g id="a_node26"><a xlink:href="d__file__select_8h.html" target="_top" xlink:title=" ">
<polygon fill="#fff0f0" stroke="red" points="2021,-96 1925,-96 1925,-66 2021,-66 2021,-96"/>
<text text-anchor="start" x="1933" y="-84" font-family="Helvetica,sans-Serif" font-size="10.00">include/d/file/d_file</text>
<text text-anchor="middle" x="1973" y="-73" font-family="Helvetica,sans-Serif" font-size="10.00">_select.h</text>
</a>
</g>
</g>
<!-- Node19&#45;&gt;Node49 -->
<g id="edge26" class="edge">
<title>Node19&#45;&gt;Node49</title>
<path fill="none" stroke="#63b8ff" d="M1411.23,-134.38C1415.19,-133.48 1419.14,-132.68 1423,-132 1639.37,-93.93 1699,-130.32 1916,-96 1918.82,-95.55 1921.7,-95.04 1924.6,-94.47"/>
<polygon fill="#63b8ff" stroke="#63b8ff" points="1410.46,-130.96 1401.57,-136.73 1412.11,-137.76 1410.46,-130.96"/>
</g>
<!-- Node51 -->
<g id="node27" class="node">
<title>Node51</title>
<g id="a_node27"><a xlink:href="d__menu__insect_8h.html" target="_top" xlink:title=" ">
<polygon fill="#fff0f0" stroke="red" points="2159,-96 2039,-96 2039,-66 2159,-66 2159,-96"/>
<text text-anchor="start" x="2047" y="-84" font-family="Helvetica,sans-Serif" font-size="10.00">include/d/menu/d_menu</text>
<text text-anchor="middle" x="2099" y="-73" font-family="Helvetica,sans-Serif" font-size="10.00">_insect.h</text>
</a>
</g>
</g>
<!-- Node19&#45;&gt;Node51 -->
<g id="edge27" class="edge">
<title>Node19&#45;&gt;Node51</title>
<path fill="none" stroke="#63b8ff" d="M1410.66,-134.44C1414.81,-133.51 1418.96,-132.68 1423,-132 1689.48,-86.99 1762.02,-130.96 2030,-96 2032.91,-95.62 2035.88,-95.19 2038.87,-94.72"/>
<polygon fill="#63b8ff" stroke="#63b8ff" points="1410.07,-130.98 1401.18,-136.74 1411.72,-137.78 1410.07,-130.98"/>
</g>
<!-- Node56 -->
<g id="node28" class="node">
<title>Node56</title>
<g id="a_node28"><a xlink:href="d__menu__ring_8h.html" target="_top" xlink:title=" ">
<polygon fill="#fff0f0" stroke="red" points="1907,-96 1787,-96 1787,-66 1907,-66 1907,-96"/>
<text text-anchor="start" x="1795" y="-84" font-family="Helvetica,sans-Serif" font-size="10.00">include/d/menu/d_menu</text>
<text text-anchor="middle" x="1847" y="-73" font-family="Helvetica,sans-Serif" font-size="10.00">_ring.h</text>
</a>
</g>
</g>
<!-- Node19&#45;&gt;Node56 -->
<g id="edge28" class="edge">
<title>Node19&#45;&gt;Node56</title>
<path fill="none" stroke="#63b8ff" d="M1411.99,-134.33C1415.7,-133.47 1419.39,-132.69 1423,-132 1578.79,-102.32 1621.21,-119.8 1778,-96 1780.9,-95.56 1783.86,-95.08 1786.85,-94.57"/>
<polygon fill="#63b8ff" stroke="#63b8ff" points="1411.22,-130.92 1402.35,-136.71 1412.89,-137.71 1411.22,-130.92"/>
</g>
<!-- Node57 -->
<g id="node29" class="node">
<title>Node57</title>
<g id="a_node29"><a xlink:href="d__msg__object_8h.html" target="_top" xlink:title=" ">
<polygon fill="#fff0f0" stroke="red" points="2543,-96 2433,-96 2433,-66 2543,-66 2543,-96"/>
<text text-anchor="start" x="2441" y="-84" font-family="Helvetica,sans-Serif" font-size="10.00">include/d/msg/d_msg</text>
<text text-anchor="middle" x="2488" y="-73" font-family="Helvetica,sans-Serif" font-size="10.00">_object.h</text>
</a>
</g>
</g>
<!-- Node19&#45;&gt;Node57 -->
<g id="edge30" class="edge">
<title>Node19&#45;&gt;Node57</title>
<path fill="none" stroke="#63b8ff" d="M1420.35,-137.43C1432.5,-135.28 1445.09,-133.34 1457,-132 1884.37,-83.86 1997.35,-150.17 2424,-96 2426.82,-95.64 2429.7,-95.22 2432.6,-94.75"/>
<polygon fill="#63b8ff" stroke="#63b8ff" points="1420.06,-133.92 1410.85,-139.17 1421.32,-140.81 1420.06,-133.92"/>
</g>
<!-- Node76 -->
<g id="node30" class="node">
<title>Node76</title>
<g id="a_node30"><a xlink:href="d__a__andsw_8h.html" target="_top" xlink:title=" ">
<polygon fill="white" stroke="#666666" points="695,-96 585,-96 585,-66 695,-66 695,-96"/>
<text text-anchor="start" x="593" y="-84" font-family="Helvetica,sans-Serif" font-size="10.00">include/rel/d/a/d_a</text>
<text text-anchor="middle" x="640" y="-73" font-family="Helvetica,sans-Serif" font-size="10.00">_andsw/d_a_andsw.h</text>
</a>
</g>
</g>
<!-- Node19&#45;&gt;Node76 -->
<g id="edge35" class="edge">
<title>Node19&#45;&gt;Node76</title>
<path fill="none" stroke="#63b8ff" d="M1287.6,-148.69C1169.61,-143.06 915.87,-128.08 704,-96 701.19,-95.57 698.32,-95.1 695.42,-94.59"/>
<polygon fill="#63b8ff" stroke="#63b8ff" points="1287.27,-152.18 1297.42,-149.15 1287.59,-145.18 1287.27,-152.18"/>
</g>
<!-- Node77 -->
<g id="node31" class="node">
<title>Node77</title>
<g id="a_node31"><a xlink:href="d__a__cstaF_8h.html" target="_top" xlink:title=" ">
<polygon fill="white" stroke="#666666" points="2280.5,-96 2177.5,-96 2177.5,-66 2280.5,-66 2280.5,-96"/>
<text text-anchor="start" x="2185.5" y="-84" font-family="Helvetica,sans-Serif" font-size="10.00">include/rel/d/a/d_a</text>
<text text-anchor="middle" x="2229" y="-73" font-family="Helvetica,sans-Serif" font-size="10.00">_cstaF/d_a_cstaF.h</text>
</a>
</g>
</g>
<!-- Node19&#45;&gt;Node77 -->
<g id="edge36" class="edge">
<title>Node19&#45;&gt;Node77</title>
<path fill="none" stroke="#63b8ff" d="M1410.65,-134.39C1414.81,-133.47 1418.95,-132.66 1423,-132 1750.16,-78.58 1839.61,-141.25 2168,-96 2171.01,-95.58 2174.1,-95.09 2177.2,-94.55"/>
<polygon fill="#63b8ff" stroke="#63b8ff" points="1410.07,-130.93 1401.17,-136.67 1411.71,-137.74 1410.07,-130.93"/>
</g>
<!-- Node78 -->
<g id="node32" class="node">
<title>Node78</title>
<g id="a_node32"><a xlink:href="d__a__dmidna_8h.html" target="_top" xlink:title=" ">
<polygon fill="white" stroke="#666666" points="829,-96 713,-96 713,-66 829,-66 829,-96"/>
<text text-anchor="start" x="721" y="-84" font-family="Helvetica,sans-Serif" font-size="10.00">include/rel/d/a/d_a</text>
<text text-anchor="middle" x="771" y="-73" font-family="Helvetica,sans-Serif" font-size="10.00">_dmidna/d_a_dmidna.h</text>
</a>
</g>
</g>
<!-- Node19&#45;&gt;Node78 -->
<g id="edge37" class="edge">
<title>Node19&#45;&gt;Node78</title>
<path fill="none" stroke="#63b8ff" d="M1287.26,-146.36C1188.81,-138.32 999.03,-121.04 839,-96 835.78,-95.5 832.49,-94.94 829.17,-94.36"/>
<polygon fill="#63b8ff" stroke="#63b8ff" points="1286.76,-149.83 1297.01,-147.15 1287.32,-142.86 1286.76,-149.83"/>
</g>
<!-- Node150 -->
<g id="node33" class="node">
<title>Node150</title>
<g id="a_node33"><a xlink:href="c__damagereaction_8cpp.html" target="_top" xlink:title=" ">
<polygon fill="white" stroke="#666666" points="566.5,-90.5 427.5,-90.5 427.5,-71.5 566.5,-71.5 566.5,-90.5"/>
<text text-anchor="middle" x="497" y="-78.5" font-family="Helvetica,sans-Serif" font-size="10.00">src/c/c_damagereaction.cpp</text>
</a>
</g>
</g>
<!-- Node19&#45;&gt;Node150 -->
<g id="edge38" class="edge">
<title>Node19&#45;&gt;Node150</title>
<path fill="none" stroke="#63b8ff" d="M1287.3,-149.09C1152.5,-143.69 838.14,-128.49 576,-96 565.22,-94.66 553.67,-92.84 542.83,-90.95"/>
<polygon fill="#63b8ff" stroke="#63b8ff" points="1286.98,-152.58 1297.11,-149.47 1287.26,-145.58 1286.98,-152.58"/>
</g>
<!-- Node19&#45;&gt;Node200 -->
<g id="edge41" class="edge">
<title>Node19&#45;&gt;Node200</title>
<path fill="none" stroke="#63b8ff" d="M1420.35,-137.38C1432.49,-135.24 1445.09,-133.32 1457,-132 1940.99,-78.55 2067.82,-147.69 2552,-96 2563.08,-94.82 2574.96,-92.96 2585.99,-90.97"/>
<polygon fill="#63b8ff" stroke="#63b8ff" points="1420.05,-133.88 1410.85,-139.12 1421.31,-140.77 1420.05,-133.88"/>
</g>
<!-- Node47&#45;&gt;Node29 -->
<g id="edge25" class="edge">
<title>Node47&#45;&gt;Node29</title>
<path fill="none" stroke="#63b8ff" d="M912.73,-61.7C919.13,-51.7 926.94,-39.51 932.88,-30.23"/>
<polygon fill="#63b8ff" stroke="#63b8ff" points="909.96,-59.52 907.52,-69.83 915.86,-63.29 909.96,-59.52"/>
</g>
<!-- Node56&#45;&gt;Node10 -->
<g id="edge29" class="edge">
<title>Node56&#45;&gt;Node10</title>
<path fill="none" stroke="#63b8ff" d="M1864.18,-56.61C1872.29,-45.56 1881.5,-33.03 1887.5,-24.84"/>
<polygon fill="#63b8ff" stroke="#63b8ff" points="1861.42,-54.44 1858.33,-64.58 1867.07,-58.59 1861.42,-54.44"/>
</g>
<!-- Node57&#45;&gt;Node5 -->
<g id="edge31" class="edge">
<title>Node57&#45;&gt;Node5</title>
<path fill="none" stroke="#63b8ff" d="M2531.42,-61.22C2559.05,-49.27 2593.58,-34.34 2615.22,-24.99"/>
<polygon fill="#63b8ff" stroke="#63b8ff" points="2530.39,-57.85 2522.6,-65.04 2533.17,-64.28 2530.39,-57.85"/>
</g>
<!-- Node57&#45;&gt;Node9 -->
<g id="edge32" class="edge">
<title>Node57&#45;&gt;Node9</title>
<path fill="none" stroke="#63b8ff" d="M2421.84,-64.02C2370.82,-51.7 2302.1,-35.1 2260.26,-25"/>
<polygon fill="#63b8ff" stroke="#63b8ff" points="2420.76,-67.36 2431.3,-66.31 2422.4,-60.56 2420.76,-67.36"/>
</g>
<!-- Node57&#45;&gt;Node11 -->
<g id="edge33" class="edge">
<title>Node57&#45;&gt;Node11</title>
<path fill="none" stroke="#63b8ff" d="M2448.27,-60.59C2428.31,-50.84 2404.57,-39.24 2386.3,-30.31"/>
<polygon fill="#63b8ff" stroke="#63b8ff" points="2446.72,-63.73 2457.24,-64.97 2449.79,-57.44 2446.72,-63.73"/>
</g>
<!-- Node57&#45;&gt;Node12 -->
<g id="edge34" class="edge">
<title>Node57&#45;&gt;Node12</title>
<path fill="none" stroke="#63b8ff" d="M2491.57,-54.59C2493.05,-44.06 2494.68,-32.53 2495.76,-24.84"/>
<polygon fill="#63b8ff" stroke="#63b8ff" points="2488.13,-53.91 2490.21,-64.3 2495.07,-54.88 2488.13,-53.91"/>
</g>
<!-- Node227&#45;&gt;Node200 -->
<g id="edge58" class="edge">
<title>Node227&#45;&gt;Node200</title>
<path fill="none" stroke="#63b8ff" d="M2476.75,-291.02C2529.2,-283.23 2592.29,-270 2610,-250 2651.45,-203.2 2637.08,-117.97 2631.08,-90.67"/>
<polygon fill="#63b8ff" stroke="#63b8ff" points="2476.3,-287.55 2466.9,-292.44 2477.29,-294.48 2476.3,-287.55"/>
</g>
<!-- Node227&#45;&gt;Node221 -->
<g id="edge55" class="edge">
<title>Node227&#45;&gt;Node221</title>
<path fill="none" stroke="#63b8ff" d="M2400,-274.26C2400,-264.33 2400,-253.36 2400,-244.88"/>
<polygon fill="#63b8ff" stroke="#63b8ff" points="2396.5,-274.09 2400,-284.09 2403.5,-274.09 2396.5,-274.09"/>
</g>
<!-- Node227&#45;&gt;Node222 -->
<g id="edge56" class="edge">
<title>Node227&#45;&gt;Node222</title>
<path fill="none" stroke="#63b8ff" d="M2438.81,-280.46C2461.25,-269.15 2489.01,-255.17 2509.44,-244.88"/>
<polygon fill="#63b8ff" stroke="#63b8ff" points="2437.3,-277.29 2429.95,-284.92 2440.45,-283.55 2437.3,-277.29"/>
</g>
<!-- Node227&#45;&gt;Node225 -->
<g id="edge57" class="edge">
<title>Node227&#45;&gt;Node225</title>
<path fill="none" stroke="#63b8ff" d="M2323.28,-295.97C2230.74,-290.14 2070.8,-276.95 1936,-250 1929.09,-248.62 1921.86,-246.84 1914.82,-244.92"/>
<polygon fill="#63b8ff" stroke="#63b8ff" points="2322.8,-299.45 2332.99,-296.57 2323.23,-292.46 2322.8,-299.45"/>
</g>
<!-- Node228&#45;&gt;Node3 -->
<g id="edge65" class="edge">
<title>Node228&#45;&gt;Node3</title>
<path fill="none" stroke="#63b8ff" d="M1531.45,-283.03C1494.14,-274.06 1448.42,-262.37 1408,-250 1402.95,-248.45 1397.67,-246.71 1392.49,-244.92"/>
<polygon fill="#63b8ff" stroke="#63b8ff" points="1530.23,-286.33 1540.77,-285.25 1531.86,-279.52 1530.23,-286.33"/>
</g>
<!-- Node228&#45;&gt;Node219 -->
<g id="edge66" class="edge">
<title>Node228&#45;&gt;Node219</title>
<path fill="none" stroke="#63b8ff" d="M1568.59,-280.3C1547.17,-269.03 1520.78,-255.13 1501.32,-244.88"/>
<polygon fill="#63b8ff" stroke="#63b8ff" points="1566.83,-283.33 1577.31,-284.89 1570.09,-277.14 1566.83,-283.33"/>
</g>
<!-- Node228&#45;&gt;Node220 -->
<g id="edge67" class="edge">
<title>Node228&#45;&gt;Node220</title>
<path fill="none" stroke="#63b8ff" d="M1606,-274.26C1606,-264.33 1606,-253.36 1606,-244.88"/>
<polygon fill="#63b8ff" stroke="#63b8ff" points="1602.5,-274.09 1606,-284.09 1609.5,-274.09 1602.5,-274.09"/>
</g>
<!-- Node228&#45;&gt;Node221 -->
<g id="edge68" class="edge">
<title>Node228&#45;&gt;Node221</title>
<path fill="none" stroke="#63b8ff" d="M1682.78,-295.68C1856.84,-285.75 2271.24,-261.29 2334,-250 2341.17,-248.71 2348.68,-246.93 2355.94,-244.96"/>
<polygon fill="#63b8ff" stroke="#63b8ff" points="1682.72,-292.18 1672.93,-296.24 1683.11,-299.17 1682.72,-292.18"/>
</g>
<!-- Node228&#45;&gt;Node224 -->
<g id="edge69" class="edge">
<title>Node228&#45;&gt;Node224</title>
<path fill="none" stroke="#63b8ff" d="M1643.41,-280.3C1664.83,-269.03 1691.22,-255.13 1710.68,-244.88"/>
<polygon fill="#63b8ff" stroke="#63b8ff" points="1641.91,-277.14 1634.69,-284.89 1645.17,-283.33 1641.91,-277.14"/>
</g>
<!-- Node228&#45;&gt;Node225 -->
<g id="edge70" class="edge">
<title>Node228&#45;&gt;Node225</title>
<path fill="none" stroke="#63b8ff" d="M1676.86,-282.83C1714.69,-273.49 1761.98,-261.51 1804,-250 1809.76,-248.42 1815.79,-246.72 1821.76,-244.99"/>
<polygon fill="#63b8ff" stroke="#63b8ff" points="1676.29,-279.37 1667.42,-285.16 1677.96,-286.17 1676.29,-279.37"/>
</g>
<!-- Node229 -->
<g id="node47" class="node">
<title>Node229</title>
<g id="a_node47"><a xlink:href="JStudio_2JStudio__JParticle_2control_8h.html" target="_top" xlink:title=" ">
<polygon fill="white" stroke="#666666" points="295,-244.5 159,-244.5 159,-214.5 295,-214.5 295,-244.5"/>
<text text-anchor="start" x="167" y="-232.5" font-family="Helvetica,sans-Serif" font-size="10.00">include/JSystem/JStudio</text>
<text text-anchor="middle" x="227" y="-221.5" font-family="Helvetica,sans-Serif" font-size="10.00">/JStudio_JParticle/control.h</text>
</a>
</g>
</g>
<!-- Node228&#45;&gt;Node229 -->
<g id="edge60" class="edge">
<title>Node228&#45;&gt;Node229</title>
<path fill="none" stroke="#63b8ff" d="M1529.66,-296.15C1285.79,-283.86 527.95,-245.67 295.49,-233.95"/>
<polygon fill="#63b8ff" stroke="#63b8ff" points="1529.2,-299.63 1539.37,-296.64 1529.55,-292.64 1529.2,-299.63"/>
</g>
<!-- Node235 -->
<g id="node50" class="node">
<title>Node235</title>
<g id="a_node50"><a xlink:href="c__damagereaction_8h.html" target="_top" xlink:title=" ">
<polygon fill="white" stroke="#666666" points="930,-162 784,-162 784,-143 930,-143 930,-162"/>
<text text-anchor="middle" x="857" y="-150" font-family="Helvetica,sans-Serif" font-size="10.00">include/c/c_damagereaction.h</text>
</a>
</g>
</g>
<!-- Node228&#45;&gt;Node235 -->
<g id="edge63" class="edge">
<title>Node228&#45;&gt;Node235</title>
<path fill="none" stroke="#63b8ff" d="M1529.51,-288.64C1467.49,-279.16 1377.91,-264.84 1300,-250 1149.22,-221.28 971.11,-180.32 894.79,-162.43"/>
<polygon fill="#63b8ff" stroke="#63b8ff" points="1528.85,-292.08 1539.26,-290.13 1529.9,-285.16 1528.85,-292.08"/>
</g>
<!-- Node230 -->
<g id="node48" class="node">
<title>Node230</title>
<g id="a_node48"><a xlink:href="object-particle_8h.html" target="_top" xlink:title=" ">
<polygon fill="#fff0f0" stroke="red" points="289.5,-173 164.5,-173 164.5,-132 289.5,-132 289.5,-173"/>
<text text-anchor="start" x="172.5" y="-161" font-family="Helvetica,sans-Serif" font-size="10.00">include/JSystem/JStudio</text>
<text text-anchor="start" x="172.5" y="-150" font-family="Helvetica,sans-Serif" font-size="10.00">/JStudio_JParticle/object</text>
<text text-anchor="middle" x="227" y="-139" font-family="Helvetica,sans-Serif" font-size="10.00">&#45;particle.h</text>
</a>
</g>
</g>
<!-- Node229&#45;&gt;Node230 -->
<g id="edge61" class="edge">
<title>Node229&#45;&gt;Node230</title>
<path fill="none" stroke="#63b8ff" d="M227,-202.68C227,-193.06 227,-182.3 227,-173.3"/>
<polygon fill="#63b8ff" stroke="#63b8ff" points="223.5,-202.53 227,-212.53 230.5,-202.53 223.5,-202.53"/>
</g>
<!-- Node234 -->
<g id="node49" class="node">
<title>Node234</title>
<g id="a_node49"><a xlink:href="JStudio_2JStudio__JParticle_2control_8cpp.html" target="_top" xlink:title=" ">
<polygon fill="white" stroke="#666666" points="146,-167.5 0,-167.5 0,-137.5 146,-137.5 146,-167.5"/>
<text text-anchor="start" x="8" y="-155.5" font-family="Helvetica,sans-Serif" font-size="10.00">libs/JSystem/JStudio</text>
<text text-anchor="middle" x="73" y="-144.5" font-family="Helvetica,sans-Serif" font-size="10.00">/JStudio_JParticle/control.cpp</text>
</a>
</g>
</g>
<!-- Node229&#45;&gt;Node234 -->
<g id="edge62" class="edge">
<title>Node229&#45;&gt;Node234</title>
<path fill="none" stroke="#63b8ff" d="M187.23,-209.13C160.79,-196.26 126.65,-179.63 102.6,-167.92"/>
<polygon fill="#63b8ff" stroke="#63b8ff" points="185.42,-212.14 195.95,-213.38 188.49,-205.85 185.42,-212.14"/>
</g>
<!-- Node235&#45;&gt;Node150 -->
<g id="edge64" class="edge">
<title>Node235&#45;&gt;Node150</title>
<path fill="none" stroke="#63b8ff" d="M799.71,-140.44C728.68,-126.73 609.02,-103.63 543.43,-90.96"/>
<polygon fill="#63b8ff" stroke="#63b8ff" points="798.71,-143.81 809.19,-142.27 800.03,-136.94 798.71,-143.81"/>
</g>
</g>
</svg>
