<?xml version="1.0" encoding="UTF-8" standalone="no"?>
<!DOCTYPE svg PUBLIC "-//W3C//DTD SVG 1.1//EN"
 "http://www.w3.org/Graphics/SVG/1.1/DTD/svg11.dtd">
<!-- Generated by graphviz version 7.0.5 (20221223.1930)
 -->
<!-- Title: include/JSystem/JParticle/JPAMath.h Pages: 1 -->
<svg width="2613pt" height="445pt"
 viewBox="0.00 0.00 2612.50 445.00" xmlns="http://www.w3.org/2000/svg" xmlns:xlink="http://www.w3.org/1999/xlink">
<g id="graph0" class="graph" transform="scale(1 1) rotate(0) translate(4 441)">
<title>include/JSystem/JParticle/JPAMath.h</title>
<!-- Node1 -->
<g id="node1" class="node">
<title>Node1</title>
<g id="a_node1"><a xlink:title=" ">
<polygon fill="#999999" stroke="#666666" points="2149.5,-437 2019.5,-437 2019.5,-407 2149.5,-407 2149.5,-437"/>
<text text-anchor="start" x="2027.5" y="-425" font-family="Helvetica,sans-Serif" font-size="10.00">include/JSystem/JParticle</text>
<text text-anchor="middle" x="2084.5" y="-414" font-family="Helvetica,sans-Serif" font-size="10.00">/JPAMath.h</text>
</a>
</g>
</g>
<!-- Node2 -->
<g id="node2" class="node">
<title>Node2</title>
<g id="a_node2"><a xlink:href="JPAEmitter_8h.html" target="_top" xlink:title=" ">
<polygon fill="white" stroke="#666666" points="2009.5,-371 1879.5,-371 1879.5,-341 2009.5,-341 2009.5,-371"/>
<text text-anchor="start" x="1887.5" y="-359" font-family="Helvetica,sans-Serif" font-size="10.00">include/JSystem/JParticle</text>
<text text-anchor="middle" x="1944.5" y="-348" font-family="Helvetica,sans-Serif" font-size="10.00">/JPAEmitter.h</text>
</a>
</g>
</g>
<!-- Node1&#45;&gt;Node2 -->
<g id="edge1" class="edge">
<title>Node1&#45;&gt;Node2</title>
<path fill="none" stroke="#63b8ff" d="M2042.62,-401.86C2021.18,-392.05 1995.52,-380.32 1975.81,-371.31"/>
<polygon fill="#63b8ff" stroke="#63b8ff" points="2041.15,-405.03 2051.7,-406.01 2044.07,-398.67 2041.15,-405.03"/>
</g>
<!-- Node261 -->
<g id="node49" class="node">
<title>Node261</title>
<g id="a_node49"><a xlink:href="JPAKeyBlock_8cpp.html" target="_top" xlink:title=" ">
<polygon fill="white" stroke="#666666" points="2141.5,-371 2027.5,-371 2027.5,-341 2141.5,-341 2141.5,-371"/>
<text text-anchor="start" x="2035.5" y="-359" font-family="Helvetica,sans-Serif" font-size="10.00">libs/JSystem/JParticle</text>
<text text-anchor="middle" x="2084.5" y="-348" font-family="Helvetica,sans-Serif" font-size="10.00">/JPAKeyBlock.cpp</text>
</a>
</g>
</g>
<!-- Node1&#45;&gt;Node261 -->
<g id="edge67" class="edge">
<title>Node1&#45;&gt;Node261</title>
<path fill="none" stroke="#63b8ff" d="M2084.5,-395.39C2084.5,-387.13 2084.5,-378.28 2084.5,-371.16"/>
<polygon fill="#63b8ff" stroke="#63b8ff" points="2081,-395.28 2084.5,-405.28 2088,-395.28 2081,-395.28"/>
</g>
<!-- Node262 -->
<g id="node50" class="node">
<title>Node262</title>
<g id="a_node50"><a xlink:href="JPAMath_8cpp.html" target="_top" xlink:title=" ">
<polygon fill="white" stroke="#666666" points="2273.5,-371 2159.5,-371 2159.5,-341 2273.5,-341 2273.5,-371"/>
<text text-anchor="start" x="2167.5" y="-359" font-family="Helvetica,sans-Serif" font-size="10.00">libs/JSystem/JParticle</text>
<text text-anchor="middle" x="2216.5" y="-348" font-family="Helvetica,sans-Serif" font-size="10.00">/JPAMath.cpp</text>
</a>
</g>
</g>
<!-- Node1&#45;&gt;Node262 -->
<g id="edge68" class="edge">
<title>Node1&#45;&gt;Node262</title>
<path fill="none" stroke="#63b8ff" d="M2124.26,-401.72C2144.42,-391.95 2168.48,-380.28 2186.98,-371.31"/>
<polygon fill="#63b8ff" stroke="#63b8ff" points="2122.96,-398.46 2115.49,-405.98 2126.01,-404.76 2122.96,-398.46"/>
</g>
<!-- Node3 -->
<g id="node3" class="node">
<title>Node3</title>
<g id="a_node3"><a xlink:href="d__particle_8h.html" target="_top" xlink:title=" ">
<polygon fill="white" stroke="#666666" points="1402.5,-299.5 1312.5,-299.5 1312.5,-269.5 1402.5,-269.5 1402.5,-299.5"/>
<text text-anchor="start" x="1320.5" y="-287.5" font-family="Helvetica,sans-Serif" font-size="10.00">include/d/particle</text>
<text text-anchor="middle" x="1357.5" y="-276.5" font-family="Helvetica,sans-Serif" font-size="10.00">/d_particle.h</text>
</a>
</g>
</g>
<!-- Node2&#45;&gt;Node3 -->
<g id="edge2" class="edge">
<title>Node2&#45;&gt;Node3</title>
<path fill="none" stroke="#63b8ff" d="M1867.91,-353.87C1763.52,-350.96 1571.27,-340.73 1411.5,-305 1405.66,-303.69 1399.6,-301.93 1393.73,-299.99"/>
<polygon fill="#63b8ff" stroke="#63b8ff" points="1867.67,-357.37 1877.76,-354.13 1867.85,-350.37 1867.67,-357.37"/>
</g>
<!-- Node252 -->
<g id="node40" class="node">
<title>Node252</title>
<g id="a_node40"><a xlink:href="d__a__obj__snow__soup_8h.html" target="_top" xlink:title=" ">
<polygon fill="white" stroke="#666666" points="1536.5,-305 1420.5,-305 1420.5,-264 1536.5,-264 1536.5,-305"/>
<text text-anchor="start" x="1428.5" y="-293" font-family="Helvetica,sans-Serif" font-size="10.00">include/rel/d/a/obj</text>
<text text-anchor="start" x="1428.5" y="-282" font-family="Helvetica,sans-Serif" font-size="10.00">/d_a_obj_snow_soup/d</text>
<text text-anchor="middle" x="1478.5" y="-271" font-family="Helvetica,sans-Serif" font-size="10.00">_a_obj_snow_soup.h</text>
</a>
</g>
</g>
<!-- Node2&#45;&gt;Node252 -->
<g id="edge58" class="edge">
<title>Node2&#45;&gt;Node252</title>
<path fill="none" stroke="#63b8ff" d="M1867.96,-349.04C1787.2,-341.91 1656.5,-327.96 1545.5,-305 1542.65,-304.41 1539.75,-303.76 1536.83,-303.07"/>
<polygon fill="#63b8ff" stroke="#63b8ff" points="1867.24,-352.49 1877.51,-349.87 1867.85,-345.52 1867.24,-352.49"/>
</g>
<!-- Node253 -->
<g id="node41" class="node">
<title>Node253</title>
<g id="a_node41"><a xlink:href="JPABaseShape_8cpp.html" target="_top" xlink:title=" ">
<polygon fill="white" stroke="#666666" points="1668.5,-299.5 1554.5,-299.5 1554.5,-269.5 1668.5,-269.5 1668.5,-299.5"/>
<text text-anchor="start" x="1562.5" y="-287.5" font-family="Helvetica,sans-Serif" font-size="10.00">libs/JSystem/JParticle</text>
<text text-anchor="middle" x="1611.5" y="-276.5" font-family="Helvetica,sans-Serif" font-size="10.00">/JPABaseShape.cpp</text>
</a>
</g>
</g>
<!-- Node2&#45;&gt;Node253 -->
<g id="edge59" class="edge">
<title>Node2&#45;&gt;Node253</title>
<path fill="none" stroke="#63b8ff" d="M1867.96,-342.8C1814.34,-333.74 1741.17,-320.33 1677.5,-305 1671.23,-303.49 1664.66,-301.75 1658.21,-299.94"/>
<polygon fill="#63b8ff" stroke="#63b8ff" points="1867.16,-346.22 1877.6,-344.42 1868.31,-339.31 1867.16,-346.22"/>
</g>
<!-- Node254 -->
<g id="node42" class="node">
<title>Node254</title>
<g id="a_node42"><a xlink:href="JPAChildShape_8cpp.html" target="_top" xlink:title=" ">
<polygon fill="white" stroke="#666666" points="1800.5,-299.5 1686.5,-299.5 1686.5,-269.5 1800.5,-269.5 1800.5,-299.5"/>
<text text-anchor="start" x="1694.5" y="-287.5" font-family="Helvetica,sans-Serif" font-size="10.00">libs/JSystem/JParticle</text>
<text text-anchor="middle" x="1743.5" y="-276.5" font-family="Helvetica,sans-Serif" font-size="10.00">/JPAChildShape.cpp</text>
</a>
</g>
</g>
<!-- Node2&#45;&gt;Node254 -->
<g id="edge60" class="edge">
<title>Node2&#45;&gt;Node254</title>
<path fill="none" stroke="#63b8ff" d="M1892.36,-336.97C1858.97,-325.42 1816.21,-310.64 1785.09,-299.88"/>
<polygon fill="#63b8ff" stroke="#63b8ff" points="1890.83,-340.14 1901.42,-340.1 1893.12,-333.53 1890.83,-340.14"/>
</g>
<!-- Node255 -->
<g id="node43" class="node">
<title>Node255</title>
<g id="a_node43"><a xlink:href="JPAEmitter_8cpp.html" target="_top" xlink:title=" ">
<polygon fill="white" stroke="#666666" points="1932.5,-299.5 1818.5,-299.5 1818.5,-269.5 1932.5,-269.5 1932.5,-299.5"/>
<text text-anchor="start" x="1826.5" y="-287.5" font-family="Helvetica,sans-Serif" font-size="10.00">libs/JSystem/JParticle</text>
<text text-anchor="middle" x="1875.5" y="-276.5" font-family="Helvetica,sans-Serif" font-size="10.00">/JPAEmitter.cpp</text>
</a>
</g>
</g>
<!-- Node2&#45;&gt;Node255 -->
<g id="edge61" class="edge">
<title>Node2&#45;&gt;Node255</title>
<path fill="none" stroke="#63b8ff" d="M1922.15,-332.48C1911.51,-321.78 1899.12,-309.29 1889.78,-299.88"/>
<polygon fill="#63b8ff" stroke="#63b8ff" points="1919.61,-334.89 1929.14,-339.53 1924.58,-329.96 1919.61,-334.89"/>
</g>
<!-- Node256 -->
<g id="node44" class="node">
<title>Node256</title>
<g id="a_node44"><a xlink:href="JPAEmitterManager_8cpp.html" target="_top" xlink:title=" ">
<polygon fill="white" stroke="#666666" points="2076,-299.5 1951,-299.5 1951,-269.5 2076,-269.5 2076,-299.5"/>
<text text-anchor="start" x="1959" y="-287.5" font-family="Helvetica,sans-Serif" font-size="10.00">libs/JSystem/JParticle</text>
<text text-anchor="middle" x="2013.5" y="-276.5" font-family="Helvetica,sans-Serif" font-size="10.00">/JPAEmitterManager.cpp</text>
</a>
</g>
</g>
<!-- Node2&#45;&gt;Node256 -->
<g id="edge62" class="edge">
<title>Node2&#45;&gt;Node256</title>
<path fill="none" stroke="#63b8ff" d="M1966.85,-332.48C1977.49,-321.78 1989.88,-309.29 1999.22,-299.88"/>
<polygon fill="#63b8ff" stroke="#63b8ff" points="1964.42,-329.96 1959.86,-339.53 1969.39,-334.89 1964.42,-329.96"/>
</g>
<!-- Node257 -->
<g id="node45" class="node">
<title>Node257</title>
<g id="a_node45"><a xlink:href="JPAExTexShape_8cpp.html" target="_top" xlink:title=" ">
<polygon fill="white" stroke="#666666" points="2208.5,-299.5 2094.5,-299.5 2094.5,-269.5 2208.5,-269.5 2208.5,-299.5"/>
<text text-anchor="start" x="2102.5" y="-287.5" font-family="Helvetica,sans-Serif" font-size="10.00">libs/JSystem/JParticle</text>
<text text-anchor="middle" x="2151.5" y="-276.5" font-family="Helvetica,sans-Serif" font-size="10.00">/JPAExTexShape.cpp</text>
</a>
</g>
</g>
<!-- Node2&#45;&gt;Node257 -->
<g id="edge63" class="edge">
<title>Node2&#45;&gt;Node257</title>
<path fill="none" stroke="#63b8ff" d="M1998.41,-336.9C2032.68,-325.39 2076.46,-310.69 2108.41,-299.97"/>
<polygon fill="#63b8ff" stroke="#63b8ff" points="1997.44,-333.53 1989.08,-340.03 1999.67,-340.17 1997.44,-333.53"/>
</g>
<!-- Node258 -->
<g id="node46" class="node">
<title>Node258</title>
<g id="a_node46"><a xlink:href="JPAExtraShape_8cpp.html" target="_top" xlink:title=" ">
<polygon fill="white" stroke="#666666" points="2340.5,-299.5 2226.5,-299.5 2226.5,-269.5 2340.5,-269.5 2340.5,-299.5"/>
<text text-anchor="start" x="2234.5" y="-287.5" font-family="Helvetica,sans-Serif" font-size="10.00">libs/JSystem/JParticle</text>
<text text-anchor="middle" x="2283.5" y="-276.5" font-family="Helvetica,sans-Serif" font-size="10.00">/JPAExtraShape.cpp</text>
</a>
</g>
</g>
<!-- Node2&#45;&gt;Node258 -->
<g id="edge64" class="edge">
<title>Node2&#45;&gt;Node258</title>
<path fill="none" stroke="#63b8ff" d="M2021.17,-340.54C2108.84,-324.7 2133.55,-324.93 2217.5,-305 2223.78,-303.51 2230.34,-301.78 2236.8,-299.98"/>
<polygon fill="#63b8ff" stroke="#63b8ff" points="2020.56,-337.09 2011.35,-342.33 2021.82,-343.98 2020.56,-337.09"/>
</g>
<!-- Node259 -->
<g id="node47" class="node">
<title>Node259</title>
<g id="a_node47"><a xlink:href="JPAParticle_8cpp.html" target="_top" xlink:title=" ">
<polygon fill="white" stroke="#666666" points="2472.5,-299.5 2358.5,-299.5 2358.5,-269.5 2472.5,-269.5 2472.5,-299.5"/>
<text text-anchor="start" x="2366.5" y="-287.5" font-family="Helvetica,sans-Serif" font-size="10.00">libs/JSystem/JParticle</text>
<text text-anchor="middle" x="2415.5" y="-276.5" font-family="Helvetica,sans-Serif" font-size="10.00">/JPAParticle.cpp</text>
</a>
</g>
</g>
<!-- Node2&#45;&gt;Node259 -->
<g id="edge65" class="edge">
<title>Node2&#45;&gt;Node259</title>
<path fill="none" stroke="#63b8ff" d="M2020.98,-340.73C2166.86,-319.93 2207.95,-333.37 2349.5,-305 2356.41,-303.61 2363.64,-301.83 2370.68,-299.91"/>
<polygon fill="#63b8ff" stroke="#63b8ff" points="2020.71,-337.23 2011.32,-342.13 2021.72,-344.15 2020.71,-337.23"/>
</g>
<!-- Node260 -->
<g id="node48" class="node">
<title>Node260</title>
<g id="a_node48"><a xlink:href="JPAResource_8cpp.html" target="_top" xlink:title=" ">
<polygon fill="white" stroke="#666666" points="2604.5,-299.5 2490.5,-299.5 2490.5,-269.5 2604.5,-269.5 2604.5,-299.5"/>
<text text-anchor="start" x="2498.5" y="-287.5" font-family="Helvetica,sans-Serif" font-size="10.00">libs/JSystem/JParticle</text>
<text text-anchor="middle" x="2547.5" y="-276.5" font-family="Helvetica,sans-Serif" font-size="10.00">/JPAResource.cpp</text>
</a>
</g>
</g>
<!-- Node2&#45;&gt;Node260 -->
<g id="edge66" class="edge">
<title>Node2&#45;&gt;Node260</title>
<path fill="none" stroke="#63b8ff" d="M2021.21,-340.76C2225.15,-314.79 2282.19,-341.77 2481.5,-305 2488.67,-303.68 2496.17,-301.88 2503.43,-299.9"/>
<polygon fill="#63b8ff" stroke="#63b8ff" points="2020.77,-337.28 2011.31,-342.05 2021.68,-344.22 2020.77,-337.28"/>
</g>
<!-- Node4 -->
<g id="node4" class="node">
<title>Node4</title>
<g id="a_node4"><a xlink:href="d__a__alink_8h.html" target="_top" xlink:title=" ">
<polygon fill="white" stroke="#666666" points="1080.5,-90.5 964.5,-90.5 964.5,-71.5 1080.5,-71.5 1080.5,-90.5"/>
<text text-anchor="middle" x="1022.5" y="-78.5" font-family="Helvetica,sans-Serif" font-size="10.00">include/d/a/d_a_alink.h</text>
</a>
</g>
</g>
<!-- Node3&#45;&gt;Node4 -->
<g id="edge3" class="edge">
<title>Node3&#45;&gt;Node4</title>
<path fill="none" stroke="#63b8ff" d="M1301.11,-280.8C1165.58,-273.03 827.74,-245.49 759.5,-162 751.06,-151.68 751,-142.27 759.5,-132 784.95,-101.25 894.63,-89.26 964.06,-84.69"/>
<polygon fill="#63b8ff" stroke="#63b8ff" points="1300.74,-284.29 1310.92,-281.35 1301.13,-277.3 1300.74,-284.29"/>
</g>
<!-- Node16 -->
<g id="node16" class="node">
<title>Node16</title>
<g id="a_node16"><a xlink:href="d__a__item__static_8h.html" target="_top" xlink:title=" ">
<polygon fill="white" stroke="#666666" points="289,-228 182,-228 182,-198 289,-198 289,-228"/>
<text text-anchor="start" x="190" y="-216" font-family="Helvetica,sans-Serif" font-size="10.00">include/d/a/d_a_item</text>
<text text-anchor="middle" x="235.5" y="-205" font-family="Helvetica,sans-Serif" font-size="10.00">_static.h</text>
</a>
</g>
</g>
<!-- Node3&#45;&gt;Node16 -->
<g id="edge15" class="edge">
<title>Node3&#45;&gt;Node16</title>
<path fill="none" stroke="#63b8ff" d="M1300.86,-279.99C1107.98,-268.04 478.23,-229.04 289.46,-217.34"/>
<polygon fill="#63b8ff" stroke="#63b8ff" points="1300.42,-283.47 1310.62,-280.6 1300.85,-276.48 1300.42,-283.47"/>
</g>
<!-- Node21 -->
<g id="node20" class="node">
<title>Node21</title>
<g id="a_node20"><a xlink:href="d__com__inf__game_8h.html" target="_top" xlink:title=" ">
<polygon fill="#fff0f0" stroke="red" points="1371.5,-228 1261.5,-228 1261.5,-198 1371.5,-198 1371.5,-228"/>
<text text-anchor="start" x="1269.5" y="-216" font-family="Helvetica,sans-Serif" font-size="10.00">include/d/com/d_com</text>
<text text-anchor="middle" x="1316.5" y="-205" font-family="Helvetica,sans-Serif" font-size="10.00">_inf_game.h</text>
</a>
</g>
</g>
<!-- Node3&#45;&gt;Node21 -->
<g id="edge19" class="edge">
<title>Node3&#45;&gt;Node21</title>
<path fill="none" stroke="#63b8ff" d="M1343.27,-259.38C1337.18,-249.05 1330.26,-237.32 1324.98,-228.38"/>
<polygon fill="#63b8ff" stroke="#63b8ff" points="1340.14,-260.96 1348.24,-267.8 1346.17,-257.4 1340.14,-260.96"/>
</g>
<!-- Node108 -->
<g id="node37" class="node">
<title>Node108</title>
<g id="a_node37"><a xlink:href="d__a__ykgr_8h.html" target="_top" xlink:title=" ">
<polygon fill="#fff0f0" stroke="red" points="2249.5,-162 2153.5,-162 2153.5,-132 2249.5,-132 2249.5,-162"/>
<text text-anchor="start" x="2161.5" y="-150" font-family="Helvetica,sans-Serif" font-size="10.00">include/rel/d/a/d_a</text>
<text text-anchor="middle" x="2201.5" y="-139" font-family="Helvetica,sans-Serif" font-size="10.00">_ykgr/d_a_ykgr.h</text>
</a>
</g>
</g>
<!-- Node3&#45;&gt;Node108 -->
<g id="edge56" class="edge">
<title>Node3&#45;&gt;Node108</title>
<path fill="none" stroke="#63b8ff" d="M1368.88,-259.07C1379.78,-238.79 1398.29,-211.2 1423.5,-198 1492.69,-161.77 2047.93,-171.09 2125.5,-162 2134.56,-160.94 2144.17,-159.45 2153.4,-157.84"/>
<polygon fill="#63b8ff" stroke="#63b8ff" points="1365.85,-257.32 1364.44,-267.82 1372.09,-260.49 1365.85,-257.32"/>
</g>
<!-- Node235 -->
<g id="node38" class="node">
<title>Node235</title>
<g id="a_node38"><a xlink:href="d__particle_8cpp.html" target="_top" xlink:title=" ">
<polygon fill="white" stroke="#666666" points="2403.5,-156.5 2267.5,-156.5 2267.5,-137.5 2403.5,-137.5 2403.5,-156.5"/>
<text text-anchor="middle" x="2335.5" y="-144.5" font-family="Helvetica,sans-Serif" font-size="10.00">src/d/particle/d_particle.cpp</text>
</a>
</g>
</g>
<!-- Node3&#45;&gt;Node235 -->
<g id="edge57" class="edge">
<title>Node3&#45;&gt;Node235</title>
<path fill="none" stroke="#63b8ff" d="M1382.42,-261.48C1410.55,-236.74 1453,-199.78 1457.5,-198 1623.22,-132.55 2081.44,-181.98 2258.5,-162 2269.44,-160.77 2281.16,-158.91 2292.08,-156.95"/>
<polygon fill="#63b8ff" stroke="#63b8ff" points="1380.19,-258.79 1375,-268.02 1384.82,-264.04 1380.19,-258.79"/>
</g>
<!-- Node251 -->
<g id="node39" class="node">
<title>Node251</title>
<g id="a_node39"><a xlink:href="d__a__arrow_8h.html" target="_top" xlink:title=" ">
<polygon fill="white" stroke="#666666" points="1567,-228 1466,-228 1466,-198 1567,-198 1567,-228"/>
<text text-anchor="start" x="1474" y="-216" font-family="Helvetica,sans-Serif" font-size="10.00">include/rel/d/a/d_a</text>
<text text-anchor="middle" x="1516.5" y="-205" font-family="Helvetica,sans-Serif" font-size="10.00">_arrow/d_a_arrow.h</text>
</a>
</g>
</g>
<!-- Node3&#45;&gt;Node251 -->
<g id="edge55" class="edge">
<title>Node3&#45;&gt;Node251</title>
<path fill="none" stroke="#63b8ff" d="M1400.82,-264.57C1426.91,-253.16 1459.62,-238.86 1483.6,-228.38"/>
<polygon fill="#63b8ff" stroke="#63b8ff" points="1399.59,-261.28 1391.83,-268.49 1402.4,-267.7 1399.59,-261.28"/>
</g>
<!-- Node5 -->
<g id="node5" class="node">
<title>Node5</title>
<g id="a_node5"><a xlink:href="d__a__alink_8cpp.html" target="_top" xlink:title=" ">
<polygon fill="white" stroke="#666666" points="699,-24.5 590,-24.5 590,-5.5 699,-5.5 699,-24.5"/>
<text text-anchor="middle" x="644.5" y="-12.5" font-family="Helvetica,sans-Serif" font-size="10.00">src/d/a/d_a_alink.cpp</text>
</a>
</g>
</g>
<!-- Node4&#45;&gt;Node5 -->
<g id="edge4" class="edge">
<title>Node4&#45;&gt;Node5</title>
<path fill="none" stroke="#63b8ff" d="M953.05,-70.11C889.29,-60.76 792.29,-45.82 708.5,-30 700.45,-28.48 691.87,-26.71 683.69,-24.95"/>
<polygon fill="#63b8ff" stroke="#63b8ff" points="952.27,-73.53 962.67,-71.52 953.28,-66.61 952.27,-73.53"/>
</g>
<!-- Node6 -->
<g id="node6" class="node">
<title>Node6</title>
<g id="a_node6"><a xlink:href="d__a__player_8cpp.html" target="_top" xlink:title=" ">
<polygon fill="white" stroke="#666666" points="1250.5,-24.5 1136.5,-24.5 1136.5,-5.5 1250.5,-5.5 1250.5,-24.5"/>
<text text-anchor="middle" x="1193.5" y="-12.5" font-family="Helvetica,sans-Serif" font-size="10.00">src/d/a/d_a_player.cpp</text>
</a>
</g>
</g>
<!-- Node4&#45;&gt;Node6 -->
<g id="edge5" class="edge">
<title>Node4&#45;&gt;Node6</title>
<path fill="none" stroke="#63b8ff" d="M1056.94,-67.11C1090.41,-54.58 1140.35,-35.89 1169.65,-24.93"/>
<polygon fill="#63b8ff" stroke="#63b8ff" points="1055.83,-63.79 1047.69,-70.57 1058.29,-70.34 1055.83,-63.79"/>
</g>
<!-- Node7 -->
<g id="node7" class="node">
<title>Node7</title>
<g id="a_node7"><a xlink:href="d__com__inf__game_8cpp.html" target="_top" xlink:title=" ">
<polygon fill="white" stroke="#666666" points="1376.5,-30 1268.5,-30 1268.5,0 1376.5,0 1376.5,-30"/>
<text text-anchor="start" x="1276.5" y="-18" font-family="Helvetica,sans-Serif" font-size="10.00">src/d/com/d_com_inf</text>
<text text-anchor="middle" x="1322.5" y="-7" font-family="Helvetica,sans-Serif" font-size="10.00">_game.cpp</text>
</a>
</g>
</g>
<!-- Node4&#45;&gt;Node7 -->
<g id="edge6" class="edge">
<title>Node4&#45;&gt;Node7</title>
<path fill="none" stroke="#63b8ff" d="M1076.86,-68.71C1124.92,-58.68 1196.91,-43.56 1259.5,-30 1262.35,-29.38 1265.27,-28.75 1268.21,-28.1"/>
<polygon fill="#63b8ff" stroke="#63b8ff" points="1076.33,-65.24 1067.26,-70.71 1077.76,-72.09 1076.33,-65.24"/>
</g>
<!-- Node8 -->
<g id="node8" class="node">
<title>Node8</title>
<g id="a_node8"><a xlink:href="d__camera_8cpp.html" target="_top" xlink:title=" ">
<polygon fill="white" stroke="#666666" points="1496.5,-24.5 1394.5,-24.5 1394.5,-5.5 1496.5,-5.5 1496.5,-24.5"/>
<text text-anchor="middle" x="1445.5" y="-12.5" font-family="Helvetica,sans-Serif" font-size="10.00">src/d/d_camera.cpp</text>
</a>
</g>
</g>
<!-- Node4&#45;&gt;Node8 -->
<g id="edge7" class="edge">
<title>Node4&#45;&gt;Node8</title>
<path fill="none" stroke="#63b8ff" d="M1074.42,-68.86C1079.84,-67.83 1085.27,-66.86 1090.5,-66 1220.85,-44.66 1255.44,-53.04 1385.5,-30 1393.5,-28.58 1402.04,-26.77 1410.1,-24.93"/>
<polygon fill="#63b8ff" stroke="#63b8ff" points="1074.02,-65.37 1064.88,-70.73 1075.36,-72.24 1074.02,-65.37"/>
</g>
<!-- Node9 -->
<g id="node9" class="node">
<title>Node9</title>
<g id="a_node9"><a xlink:href="d__ev__camera_8cpp.html" target="_top" xlink:title=" ">
<polygon fill="white" stroke="#666666" points="1632.5,-24.5 1514.5,-24.5 1514.5,-5.5 1632.5,-5.5 1632.5,-24.5"/>
<text text-anchor="middle" x="1573.5" y="-12.5" font-family="Helvetica,sans-Serif" font-size="10.00">src/d/d_ev_camera.cpp</text>
</a>
</g>
</g>
<!-- Node4&#45;&gt;Node9 -->
<g id="edge8" class="edge">
<title>Node4&#45;&gt;Node9</title>
<path fill="none" stroke="#63b8ff" d="M1073.29,-68.87C1079.07,-67.8 1084.9,-66.82 1090.5,-66 1273.7,-39.29 1322.3,-56.71 1505.5,-30 1514.68,-28.66 1524.49,-26.86 1533.73,-25"/>
<polygon fill="#63b8ff" stroke="#63b8ff" points="1072.91,-65.38 1063.76,-70.71 1074.24,-72.25 1072.91,-65.38"/>
</g>
<!-- Node10 -->
<g id="node10" class="node">
<title>Node10</title>
<g id="a_node10"><a xlink:href="d__event_8cpp.html" target="_top" xlink:title=" ">
<polygon fill="white" stroke="#666666" points="838,-24.5 717,-24.5 717,-5.5 838,-5.5 838,-24.5"/>
<text text-anchor="middle" x="777.5" y="-12.5" font-family="Helvetica,sans-Serif" font-size="10.00">src/d/event/d_event.cpp</text>
</a>
</g>
</g>
<!-- Node4&#45;&gt;Node10 -->
<g id="edge9" class="edge">
<title>Node4&#45;&gt;Node10</title>
<path fill="none" stroke="#63b8ff" d="M977.19,-68.16C929.28,-55.65 854.76,-36.18 811.59,-24.91"/>
<polygon fill="#63b8ff" stroke="#63b8ff" points="976.15,-71.51 986.71,-70.65 977.92,-64.74 976.15,-71.51"/>
</g>
<!-- Node11 -->
<g id="node11" class="node">
<title>Node11</title>
<g id="a_node11"><a xlink:href="d__menu__collect_8cpp.html" target="_top" xlink:title=" ">
<polygon fill="white" stroke="#666666" points="411,-24.5 256,-24.5 256,-5.5 411,-5.5 411,-24.5"/>
<text text-anchor="middle" x="333.5" y="-12.5" font-family="Helvetica,sans-Serif" font-size="10.00">src/d/menu/d_menu_collect.cpp</text>
</a>
</g>
</g>
<!-- Node4&#45;&gt;Node11 -->
<g id="edge10" class="edge">
<title>Node4&#45;&gt;Node11</title>
<path fill="none" stroke="#63b8ff" d="M952.77,-74.24C795.66,-61.27 427.05,-30.8 420.5,-30 408.96,-28.59 396.6,-26.79 384.93,-24.95"/>
<polygon fill="#63b8ff" stroke="#63b8ff" points="952.4,-77.72 962.65,-75.06 952.98,-70.75 952.4,-77.72"/>
</g>
<!-- Node12 -->
<g id="node12" class="node">
<title>Node12</title>
<g id="a_node12"><a xlink:href="d__menu__ring_8cpp.html" target="_top" xlink:title=" ">
<polygon fill="white" stroke="#666666" points="571.5,-24.5 429.5,-24.5 429.5,-5.5 571.5,-5.5 571.5,-24.5"/>
<text text-anchor="middle" x="500.5" y="-12.5" font-family="Helvetica,sans-Serif" font-size="10.00">src/d/menu/d_menu_ring.cpp</text>
</a>
</g>
</g>
<!-- Node4&#45;&gt;Node12 -->
<g id="edge11" class="edge">
<title>Node4&#45;&gt;Node12</title>
<path fill="none" stroke="#63b8ff" d="M952.91,-73.37C865.86,-64.8 712.35,-48.71 581.5,-30 571.19,-28.53 560.17,-26.75 549.69,-24.97"/>
<polygon fill="#63b8ff" stroke="#63b8ff" points="952.42,-76.84 962.71,-74.34 953.1,-69.88 952.42,-76.84"/>
</g>
<!-- Node13 -->
<g id="node13" class="node">
<title>Node13</title>
<g id="a_node13"><a xlink:href="d__meter2__draw_8cpp.html" target="_top" xlink:title=" ">
<polygon fill="white" stroke="#666666" points="966.5,-30 856.5,-30 856.5,0 966.5,0 966.5,-30"/>
<text text-anchor="start" x="864.5" y="-18" font-family="Helvetica,sans-Serif" font-size="10.00">src/d/meter/d_meter2</text>
<text text-anchor="middle" x="911.5" y="-7" font-family="Helvetica,sans-Serif" font-size="10.00">_draw.cpp</text>
</a>
</g>
</g>
<!-- Node4&#45;&gt;Node13 -->
<g id="edge12" class="edge">
<title>Node4&#45;&gt;Node13</title>
<path fill="none" stroke="#63b8ff" d="M997.19,-65.41C979.05,-54.94 954.71,-40.91 936.61,-30.48"/>
<polygon fill="#63b8ff" stroke="#63b8ff" points="995.34,-68.38 1005.75,-70.35 998.84,-62.32 995.34,-68.38"/>
</g>
<!-- Node14 -->
<g id="node14" class="node">
<title>Node14</title>
<g id="a_node14"><a xlink:href="d__msg__flow_8cpp.html" target="_top" xlink:title=" ">
<polygon fill="white" stroke="#666666" points="1118,-24.5 985,-24.5 985,-5.5 1118,-5.5 1118,-24.5"/>
<text text-anchor="middle" x="1051.5" y="-12.5" font-family="Helvetica,sans-Serif" font-size="10.00">src/d/msg/d_msg_flow.cpp</text>
</a>
</g>
</g>
<!-- Node4&#45;&gt;Node14 -->
<g id="edge13" class="edge">
<title>Node4&#45;&gt;Node14</title>
<path fill="none" stroke="#63b8ff" d="M1031.2,-60.8C1036.61,-48.85 1043.32,-34.06 1047.5,-24.82"/>
<polygon fill="#63b8ff" stroke="#63b8ff" points="1028.1,-59.17 1027.16,-69.72 1034.47,-62.06 1028.1,-59.17"/>
</g>
<!-- Node15 -->
<g id="node15" class="node">
<title>Node15</title>
<g id="a_node15"><a xlink:href="f__op__actor_8cpp.html" target="_top" xlink:title=" ">
<polygon fill="white" stroke="#666666" points="1770,-24.5 1651,-24.5 1651,-5.5 1770,-5.5 1770,-24.5"/>
<text text-anchor="middle" x="1710.5" y="-12.5" font-family="Helvetica,sans-Serif" font-size="10.00">src/f_op/f_op_actor.cpp</text>
</a>
</g>
</g>
<!-- Node4&#45;&gt;Node15 -->
<g id="edge14" class="edge">
<title>Node4&#45;&gt;Node15</title>
<path fill="none" stroke="#63b8ff" d="M1072.82,-68.83C1078.76,-67.76 1084.75,-66.78 1090.5,-66 1333.71,-33.18 1398.25,-62.47 1641.5,-30 1651.07,-28.72 1661.31,-26.9 1670.88,-24.99"/>
<polygon fill="#63b8ff" stroke="#63b8ff" points="1072.18,-65.39 1063.02,-70.72 1073.5,-72.27 1072.18,-65.39"/>
</g>
<!-- Node17 -->
<g id="node17" class="node">
<title>Node17</title>
<g id="a_node17"><a xlink:href="d__a__obj__item_8h.html" target="_top" xlink:title=" ">
<polygon fill="#fff0f0" stroke="red" points="101,-162 0,-162 0,-132 101,-132 101,-162"/>
<text text-anchor="start" x="8" y="-150" font-family="Helvetica,sans-Serif" font-size="10.00">include/d/a/d_a_obj</text>
<text text-anchor="middle" x="50.5" y="-139" font-family="Helvetica,sans-Serif" font-size="10.00">_item.h</text>
</a>
</g>
</g>
<!-- Node16&#45;&gt;Node17 -->
<g id="edge16" class="edge">
<title>Node16&#45;&gt;Node17</title>
<path fill="none" stroke="#63b8ff" d="M183.28,-193.94C154.46,-183.97 119.16,-171.75 92.2,-162.43"/>
<polygon fill="#63b8ff" stroke="#63b8ff" points="181.96,-197.18 192.55,-197.14 184.25,-190.57 181.96,-197.18"/>
</g>
<!-- Node19 -->
<g id="node18" class="node">
<title>Node19</title>
<g id="a_node18"><a xlink:href="d__a__do_8h.html" target="_top" xlink:title=" ">
<polygon fill="white" stroke="#666666" points="215.5,-162 119.5,-162 119.5,-132 215.5,-132 215.5,-162"/>
<text text-anchor="start" x="127.5" y="-150" font-family="Helvetica,sans-Serif" font-size="10.00">include/rel/d/a/d_a</text>
<text text-anchor="middle" x="167.5" y="-139" font-family="Helvetica,sans-Serif" font-size="10.00">_do/d_a_do.h</text>
</a>
</g>
</g>
<!-- Node16&#45;&gt;Node19 -->
<g id="edge17" class="edge">
<title>Node16&#45;&gt;Node19</title>
<path fill="none" stroke="#63b8ff" d="M212.22,-190.09C202.4,-180.85 191.26,-170.36 182.55,-162.16"/>
<polygon fill="#63b8ff" stroke="#63b8ff" points="209.63,-192.45 219.31,-196.76 214.42,-187.36 209.63,-192.45"/>
</g>
<!-- Node20 -->
<g id="node19" class="node">
<title>Node20</title>
<g id="a_node19"><a xlink:href="d__a__item__static_8cpp.html" target="_top" xlink:title=" ">
<polygon fill="white" stroke="#666666" points="371,-156.5 234,-156.5 234,-137.5 371,-137.5 371,-156.5"/>
<text text-anchor="middle" x="302.5" y="-144.5" font-family="Helvetica,sans-Serif" font-size="10.00">src/d/a/d_a_item_static.cpp</text>
</a>
</g>
</g>
<!-- Node16&#45;&gt;Node20 -->
<g id="edge18" class="edge">
<title>Node16&#45;&gt;Node20</title>
<path fill="none" stroke="#63b8ff" d="M258.59,-189.94C270.49,-178.58 284.33,-165.36 293.24,-156.84"/>
<polygon fill="#63b8ff" stroke="#63b8ff" points="256.28,-187.31 251.46,-196.75 261.11,-192.37 256.28,-187.31"/>
</g>
<!-- Node21&#45;&gt;Node7 -->
<g id="edge49" class="edge">
<title>Node21&#45;&gt;Node7</title>
<path fill="none" stroke="#63b8ff" d="M1317.29,-186.22C1318.57,-144.46 1321.05,-63.37 1322.06,-30.43"/>
<polygon fill="#63b8ff" stroke="#63b8ff" points="1313.8,-185.97 1316.99,-196.07 1320.79,-186.19 1313.8,-185.97"/>
</g>
<!-- Node21&#45;&gt;Node8 -->
<g id="edge50" class="edge">
<title>Node21&#45;&gt;Node8</title>
<path fill="none" stroke="#63b8ff" d="M1325.3,-187.02C1338.39,-150.74 1363.08,-85.64 1378.5,-66 1392.39,-48.31 1414.02,-33.71 1428.93,-24.94"/>
<polygon fill="#63b8ff" stroke="#63b8ff" points="1322.07,-185.67 1322,-196.27 1328.66,-188.03 1322.07,-185.67"/>
</g>
<!-- Node21&#45;&gt;Node9 -->
<g id="edge51" class="edge">
<title>Node21&#45;&gt;Node9</title>
<path fill="none" stroke="#63b8ff" d="M1334.61,-188.94C1341.03,-180.56 1348.22,-170.95 1354.5,-162 1383.67,-120.42 1376.15,-96.85 1416.5,-66 1435.3,-51.62 1495.41,-34.94 1535.56,-24.94"/>
<polygon fill="#63b8ff" stroke="#63b8ff" points="1332.05,-186.53 1328.7,-196.58 1337.59,-190.81 1332.05,-186.53"/>
</g>
<!-- Node21&#45;&gt;Node11 -->
<g id="edge52" class="edge">
<title>Node21&#45;&gt;Node11</title>
<path fill="none" stroke="#63b8ff" d="M1249.9,-211.04C1065.92,-207.94 559.89,-196.37 493.5,-162 444.93,-136.85 457.67,-102 416.5,-66 396.62,-48.61 369.9,-33.75 352.22,-24.85"/>
<polygon fill="#63b8ff" stroke="#63b8ff" points="1249.72,-214.53 1259.78,-211.2 1249.83,-207.53 1249.72,-214.53"/>
</g>
<!-- Node21&#45;&gt;Node15 -->
<g id="edge54" class="edge">
<title>Node21&#45;&gt;Node15</title>
<path fill="none" stroke="#63b8ff" d="M1348.4,-191.5C1375.17,-174.64 1414.68,-150.6 1450.5,-132 1536.26,-87.47 1642.67,-43.3 1688.17,-24.91"/>
<polygon fill="#63b8ff" stroke="#63b8ff" points="1346.65,-188.46 1340.07,-196.77 1350.4,-194.37 1346.65,-188.46"/>
</g>
<!-- Node22 -->
<g id="node21" class="node">
<title>Node22</title>
<g id="a_node21"><a xlink:href="d__a__npc_8h.html" target="_top" xlink:title=" ">
<polygon fill="#fff0f0" stroke="red" points="715,-90.5 604,-90.5 604,-71.5 715,-71.5 715,-90.5"/>
<text text-anchor="middle" x="659.5" y="-78.5" font-family="Helvetica,sans-Serif" font-size="10.00">include/d/a/d_a_npc.h</text>
</a>
</g>
</g>
<!-- Node21&#45;&gt;Node22 -->
<g id="edge20" class="edge">
<title>Node21&#45;&gt;Node22</title>
<path fill="none" stroke="#63b8ff" d="M1249.93,-211.39C1119.87,-209.33 836.96,-200.45 748.5,-162 711.53,-145.93 679.48,-108.28 666.13,-90.98"/>
<polygon fill="#63b8ff" stroke="#63b8ff" points="1249.72,-214.88 1259.77,-211.53 1249.82,-207.88 1249.72,-214.88"/>
</g>
<!-- Node32 -->
<g id="node22" class="node">
<title>Node32</title>
<g id="a_node22"><a xlink:href="d__a__npc__cd_8h.html" target="_top" xlink:title=" ">
<polygon fill="#fff0f0" stroke="red" points="1586,-156.5 1459,-156.5 1459,-137.5 1586,-137.5 1586,-156.5"/>
<text text-anchor="middle" x="1522.5" y="-144.5" font-family="Helvetica,sans-Serif" font-size="10.00">include/d/a/d_a_npc_cd.h</text>
</a>
</g>
</g>
<!-- Node21&#45;&gt;Node32 -->
<g id="edge22" class="edge">
<title>Node21&#45;&gt;Node32</title>
<path fill="none" stroke="#63b8ff" d="M1373.92,-194.16C1412.88,-182.06 1462.74,-166.56 1493.65,-156.96"/>
<polygon fill="#63b8ff" stroke="#63b8ff" points="1372.94,-190.8 1364.43,-197.11 1375.02,-197.48 1372.94,-190.8"/>
</g>
<!-- Node34 -->
<g id="node23" class="node">
<title>Node34</title>
<g id="a_node23"><a xlink:href="d__a__npc__cd2_8h.html" target="_top" xlink:title=" ">
<polygon fill="#fff0f0" stroke="red" points="1943.5,-96 1839.5,-96 1839.5,-66 1943.5,-66 1943.5,-96"/>
<text text-anchor="start" x="1847.5" y="-84" font-family="Helvetica,sans-Serif" font-size="10.00">include/d/a/d_a_npc</text>
<text text-anchor="middle" x="1891.5" y="-73" font-family="Helvetica,sans-Serif" font-size="10.00">_cd2.h</text>
</a>
</g>
</g>
<!-- Node21&#45;&gt;Node34 -->
<g id="edge23" class="edge">
<title>Node21&#45;&gt;Node34</title>
<path fill="none" stroke="#63b8ff" d="M1382.96,-198.33C1383.81,-198.22 1384.66,-198.11 1385.5,-198 1425.29,-193 2078.86,-191.06 2106.5,-162 2157.21,-108.69 2022.75,-90.66 1943.98,-84.75"/>
<polygon fill="#63b8ff" stroke="#63b8ff" points="1382.6,-194.85 1373.24,-199.8 1383.65,-201.77 1382.6,-194.85"/>
</g>
<!-- Node36 -->
<g id="node24" class="node">
<title>Node36</title>
<g id="a_node24"><a xlink:href="d__cc__uty_8h.html" target="_top" xlink:title=" ">
<polygon fill="#fff0f0" stroke="red" points="1848,-156.5 1729,-156.5 1729,-137.5 1848,-137.5 1848,-156.5"/>
<text text-anchor="middle" x="1788.5" y="-144.5" font-family="Helvetica,sans-Serif" font-size="10.00">include/d/cc/d_cc_uty.h</text>
</a>
</g>
</g>
<!-- Node21&#45;&gt;Node36 -->
<g id="edge24" class="edge">
<title>Node21&#45;&gt;Node36</title>
<path fill="none" stroke="#63b8ff" d="M1382.97,-198.4C1383.82,-198.26 1384.66,-198.13 1385.5,-198 1533.48,-175.09 1572.55,-185.13 1720.5,-162 1729.55,-160.59 1739.22,-158.78 1748.34,-156.93"/>
<polygon fill="#63b8ff" stroke="#63b8ff" points="1382.54,-194.92 1373.27,-200.06 1383.72,-201.82 1382.54,-194.92"/>
</g>
<!-- Node47 -->
<g id="node25" class="node">
<title>Node47</title>
<g id="a_node25"><a xlink:href="d__bright__check_8h.html" target="_top" xlink:title=" ">
<polygon fill="#fff0f0" stroke="red" points="1959,-162 1866,-162 1866,-132 1959,-132 1959,-162"/>
<text text-anchor="start" x="1874" y="-150" font-family="Helvetica,sans-Serif" font-size="10.00">include/d/d_bright</text>
<text text-anchor="middle" x="1912.5" y="-139" font-family="Helvetica,sans-Serif" font-size="10.00">_check.h</text>
</a>
</g>
</g>
<!-- Node21&#45;&gt;Node47 -->
<g id="edge25" class="edge">
<title>Node21&#45;&gt;Node47</title>
<path fill="none" stroke="#63b8ff" d="M1382.97,-198.36C1383.82,-198.24 1384.66,-198.12 1385.5,-198 1593.88,-169.03 1649.89,-196.08 1857.5,-162 1860.13,-161.57 1862.81,-161.07 1865.51,-160.53"/>
<polygon fill="#63b8ff" stroke="#63b8ff" points="1382.57,-194.88 1373.25,-199.92 1383.68,-201.79 1382.57,-194.88"/>
</g>
<!-- Node49 -->
<g id="node26" class="node">
<title>Node49</title>
<g id="a_node26"><a xlink:href="d__error__msg_8h.html" target="_top" xlink:title=" ">
<polygon fill="#fff0f0" stroke="red" points="2097.5,-156.5 1977.5,-156.5 1977.5,-137.5 2097.5,-137.5 2097.5,-156.5"/>
<text text-anchor="middle" x="2037.5" y="-144.5" font-family="Helvetica,sans-Serif" font-size="10.00">include/d/d_error_msg.h</text>
</a>
</g>
</g>
<!-- Node21&#45;&gt;Node49 -->
<g id="edge26" class="edge">
<title>Node21&#45;&gt;Node49</title>
<path fill="none" stroke="#63b8ff" d="M1382.96,-198.34C1383.81,-198.23 1384.66,-198.11 1385.5,-198 1642.88,-164.11 1711.12,-195.89 1968.5,-162 1978.19,-160.72 1988.57,-158.88 1998.25,-156.94"/>
<polygon fill="#63b8ff" stroke="#63b8ff" points="1382.59,-194.86 1373.24,-199.86 1383.66,-201.78 1382.59,-194.86"/>
</g>
<!-- Node52 -->
<g id="node27" class="node">
<title>Node52</title>
<g id="a_node27"><a xlink:href="d__npc__lib_8h.html" target="_top" xlink:title=" ">
<polygon fill="#fff0f0" stroke="red" points="1711,-156.5 1604,-156.5 1604,-137.5 1711,-137.5 1711,-156.5"/>
<text text-anchor="middle" x="1657.5" y="-144.5" font-family="Helvetica,sans-Serif" font-size="10.00">include/d/d_npc_lib.h</text>
</a>
</g>
</g>
<!-- Node21&#45;&gt;Node52 -->
<g id="edge27" class="edge">
<title>Node21&#45;&gt;Node52</title>
<path fill="none" stroke="#63b8ff" d="M1382.98,-198.47C1383.83,-198.31 1384.67,-198.16 1385.5,-198 1478.58,-180.58 1502.62,-180.44 1595.5,-162 1603.18,-160.47 1611.38,-158.72 1619.2,-156.98"/>
<polygon fill="#63b8ff" stroke="#63b8ff" points="1382.48,-195.01 1373.32,-200.33 1383.8,-201.88 1382.48,-195.01"/>
</g>
<!-- Node54 -->
<g id="node28" class="node">
<title>Node54</title>
<g id="a_node28"><a xlink:href="d__file__select_8h.html" target="_top" xlink:title=" ">
<polygon fill="#fff0f0" stroke="red" points="598.5,-162 502.5,-162 502.5,-132 598.5,-132 598.5,-162"/>
<text text-anchor="start" x="510.5" y="-150" font-family="Helvetica,sans-Serif" font-size="10.00">include/d/file/d_file</text>
<text text-anchor="middle" x="550.5" y="-139" font-family="Helvetica,sans-Serif" font-size="10.00">_select.h</text>
</a>
</g>
</g>
<!-- Node21&#45;&gt;Node54 -->
<g id="edge29" class="edge">
<title>Node21&#45;&gt;Node54</title>
<path fill="none" stroke="#63b8ff" d="M1250.15,-210.63C1124.89,-207.3 845.25,-196.34 612.5,-162 608.02,-161.34 603.39,-160.53 598.77,-159.64"/>
<polygon fill="#63b8ff" stroke="#63b8ff" points="1249.82,-214.12 1259.91,-210.88 1250,-207.12 1249.82,-214.12"/>
</g>
<!-- Node56 -->
<g id="node29" class="node">
<title>Node56</title>
<g id="a_node29"><a xlink:href="d__menu__insect_8h.html" target="_top" xlink:title=" ">
<polygon fill="#fff0f0" stroke="red" points="407.5,-96 287.5,-96 287.5,-66 407.5,-66 407.5,-96"/>
<text text-anchor="start" x="295.5" y="-84" font-family="Helvetica,sans-Serif" font-size="10.00">include/d/menu/d_menu</text>
<text text-anchor="middle" x="347.5" y="-73" font-family="Helvetica,sans-Serif" font-size="10.00">_insect.h</text>
</a>
</g>
</g>
<!-- Node21&#45;&gt;Node56 -->
<g id="edge30" class="edge">
<title>Node21&#45;&gt;Node56</title>
<path fill="none" stroke="#63b8ff" d="M1249.81,-211.09C1055.32,-208.04 497.77,-196.37 423.5,-162 392.9,-147.84 368.45,-115.34 356.16,-96.41"/>
<polygon fill="#63b8ff" stroke="#63b8ff" points="1249.7,-214.59 1259.75,-211.24 1249.81,-207.59 1249.7,-214.59"/>
</g>
<!-- Node60 -->
<g id="node30" class="node">
<title>Node60</title>
<g id="a_node30"><a xlink:href="d__menu__ring_8h.html" target="_top" xlink:title=" ">
<polygon fill="#fff0f0" stroke="red" points="585.5,-96 465.5,-96 465.5,-66 585.5,-66 585.5,-96"/>
<text text-anchor="start" x="473.5" y="-84" font-family="Helvetica,sans-Serif" font-size="10.00">include/d/menu/d_menu</text>
<text text-anchor="middle" x="525.5" y="-73" font-family="Helvetica,sans-Serif" font-size="10.00">_ring.h</text>
</a>
</g>
</g>
<!-- Node21&#45;&gt;Node60 -->
<g id="edge32" class="edge">
<title>Node21&#45;&gt;Node60</title>
<path fill="none" stroke="#63b8ff" d="M1250.15,-209.52C1113.07,-203.92 802.88,-188.68 700.5,-162 643.77,-147.22 582.57,-115.11 549.7,-96.37"/>
<polygon fill="#63b8ff" stroke="#63b8ff" points="1249.65,-213 1259.78,-209.91 1249.93,-206.01 1249.65,-213"/>
</g>
<!-- Node61 -->
<g id="node31" class="node">
<title>Node61</title>
<g id="a_node31"><a xlink:href="d__msg__object_8h.html" target="_top" xlink:title=" ">
<polygon fill="#fff0f0" stroke="red" points="843.5,-96 733.5,-96 733.5,-66 843.5,-66 843.5,-96"/>
<text text-anchor="start" x="741.5" y="-84" font-family="Helvetica,sans-Serif" font-size="10.00">include/d/msg/d_msg</text>
<text text-anchor="middle" x="788.5" y="-73" font-family="Helvetica,sans-Serif" font-size="10.00">_object.h</text>
</a>
</g>
</g>
<!-- Node21&#45;&gt;Node61 -->
<g id="edge34" class="edge">
<title>Node21&#45;&gt;Node61</title>
<path fill="none" stroke="#63b8ff" d="M1249.58,-210.94C1108.74,-208.03 792,-197.55 759.5,-162 742.45,-143.36 761.12,-113.92 775.39,-96.44"/>
<polygon fill="#63b8ff" stroke="#63b8ff" points="1249.45,-214.44 1259.51,-211.14 1249.59,-207.44 1249.45,-214.44"/>
</g>
<!-- Node82 -->
<g id="node32" class="node">
<title>Node82</title>
<g id="a_node32"><a xlink:href="d__ovlp__fade2_8h.html" target="_top" xlink:title=" ">
<polygon fill="#fff0f0" stroke="red" points="876.5,-162 768.5,-162 768.5,-132 876.5,-132 876.5,-162"/>
<text text-anchor="start" x="776.5" y="-150" font-family="Helvetica,sans-Serif" font-size="10.00">include/d/ovlp/d_ovlp</text>
<text text-anchor="middle" x="822.5" y="-139" font-family="Helvetica,sans-Serif" font-size="10.00">_fade2.h</text>
</a>
</g>
</g>
<!-- Node21&#45;&gt;Node82 -->
<g id="edge40" class="edge">
<title>Node21&#45;&gt;Node82</title>
<path fill="none" stroke="#63b8ff" d="M1249.85,-206.42C1164.9,-198.81 1013.68,-183.62 885.5,-162 882.63,-161.52 879.69,-160.99 876.73,-160.42"/>
<polygon fill="#63b8ff" stroke="#63b8ff" points="1249.36,-209.89 1259.63,-207.28 1249.97,-202.92 1249.36,-209.89"/>
</g>
<!-- Node84 -->
<g id="node33" class="node">
<title>Node84</title>
<g id="a_node33"><a xlink:href="d__ovlp__fade3_8h.html" target="_top" xlink:title=" ">
<polygon fill="#fff0f0" stroke="red" points="1002.5,-162 894.5,-162 894.5,-132 1002.5,-132 1002.5,-162"/>
<text text-anchor="start" x="902.5" y="-150" font-family="Helvetica,sans-Serif" font-size="10.00">include/d/ovlp/d_ovlp</text>
<text text-anchor="middle" x="948.5" y="-139" font-family="Helvetica,sans-Serif" font-size="10.00">_fade3.h</text>
</a>
</g>
</g>
<!-- Node21&#45;&gt;Node84 -->
<g id="edge41" class="edge">
<title>Node21&#45;&gt;Node84</title>
<path fill="none" stroke="#63b8ff" d="M1250.07,-202.21C1188.15,-192.83 1093.34,-177.79 1011.5,-162 1008.64,-161.45 1005.71,-160.86 1002.76,-160.26"/>
<polygon fill="#63b8ff" stroke="#63b8ff" points="1249.33,-205.64 1259.74,-203.67 1250.37,-198.72 1249.33,-205.64"/>
</g>
<!-- Node86 -->
<g id="node34" class="node">
<title>Node86</title>
<g id="a_node34"><a xlink:href="d__particle__copoly_8h.html" target="_top" xlink:title=" ">
<polygon fill="#fff0f0" stroke="red" points="1122.5,-162 1020.5,-162 1020.5,-132 1122.5,-132 1122.5,-162"/>
<text text-anchor="start" x="1028.5" y="-150" font-family="Helvetica,sans-Serif" font-size="10.00">include/d/particle</text>
<text text-anchor="middle" x="1071.5" y="-139" font-family="Helvetica,sans-Serif" font-size="10.00">/d_particle_copoly.h</text>
</a>
</g>
</g>
<!-- Node21&#45;&gt;Node86 -->
<g id="edge42" class="edge">
<title>Node21&#45;&gt;Node86</title>
<path fill="none" stroke="#63b8ff" d="M1250.2,-194.68C1210.14,-184.22 1159.84,-171.08 1122.82,-161.41"/>
<polygon fill="#63b8ff" stroke="#63b8ff" points="1249.19,-198.03 1259.75,-197.17 1250.96,-191.26 1249.19,-198.03"/>
</g>
<!-- Node88 -->
<g id="node35" class="node">
<title>Node88</title>
<g id="a_node35"><a xlink:href="d__a__cstaF_8h.html" target="_top" xlink:title=" ">
<polygon fill="white" stroke="#666666" points="1202,-96 1099,-96 1099,-66 1202,-66 1202,-96"/>
<text text-anchor="start" x="1107" y="-84" font-family="Helvetica,sans-Serif" font-size="10.00">include/rel/d/a/d_a</text>
<text text-anchor="middle" x="1150.5" y="-73" font-family="Helvetica,sans-Serif" font-size="10.00">_cstaF/d_a_cstaF.h</text>
</a>
</g>
</g>
<!-- Node21&#45;&gt;Node88 -->
<g id="edge47" class="edge">
<title>Node21&#45;&gt;Node88</title>
<path fill="none" stroke="#63b8ff" d="M1249.99,-203.88C1221.52,-197.11 1190.16,-184.71 1169.5,-162 1152.98,-143.84 1150.08,-113.97 1149.96,-96.32"/>
<polygon fill="#63b8ff" stroke="#63b8ff" points="1249.14,-207.28 1259.66,-205.97 1250.62,-200.43 1249.14,-207.28"/>
</g>
<!-- Node96 -->
<g id="node36" class="node">
<title>Node96</title>
<g id="a_node36"><a xlink:href="d__a__andsw_8h.html" target="_top" xlink:title=" ">
<polygon fill="white" stroke="#666666" points="1288.5,-162 1178.5,-162 1178.5,-132 1288.5,-132 1288.5,-162"/>
<text text-anchor="start" x="1186.5" y="-150" font-family="Helvetica,sans-Serif" font-size="10.00">include/rel/d/a/d_a</text>
<text text-anchor="middle" x="1233.5" y="-139" font-family="Helvetica,sans-Serif" font-size="10.00">_andsw/d_a_andsw.h</text>
</a>
</g>
</g>
<!-- Node21&#45;&gt;Node96 -->
<g id="edge46" class="edge">
<title>Node21&#45;&gt;Node96</title>
<path fill="none" stroke="#63b8ff" d="M1289.23,-190.97C1277.08,-181.61 1263.08,-170.81 1252.16,-162.39"/>
<polygon fill="#63b8ff" stroke="#63b8ff" points="1286.82,-193.54 1296.88,-196.87 1291.1,-187.99 1286.82,-193.54"/>
</g>
<!-- Node21&#45;&gt;Node108 -->
<g id="edge48" class="edge">
<title>Node21&#45;&gt;Node108</title>
<path fill="none" stroke="#63b8ff" d="M1382.96,-198.33C1383.81,-198.21 1384.66,-198.1 1385.5,-198 1718.42,-156.52 1807.05,-207.12 2139.5,-162 2143.98,-161.39 2148.62,-160.62 2153.25,-159.75"/>
<polygon fill="#63b8ff" stroke="#63b8ff" points="1382.6,-194.84 1373.24,-199.79 1383.65,-201.76 1382.6,-194.84"/>
</g>
<!-- Node21&#45;&gt;Node235 -->
<g id="edge53" class="edge">
<title>Node21&#45;&gt;Node235</title>
<path fill="none" stroke="#63b8ff" d="M1383.01,-202.39C1396.39,-200.71 1410.38,-199.14 1423.5,-198 1793.56,-165.87 1889.35,-203.32 2258.5,-162 2269.44,-160.78 2281.16,-158.92 2292.08,-156.97"/>
<polygon fill="#63b8ff" stroke="#63b8ff" points="1382.91,-198.87 1373.44,-203.62 1383.8,-205.81 1382.91,-198.87"/>
</g>
<!-- Node22&#45;&gt;Node5 -->
<g id="edge21" class="edge">
<title>Node22&#45;&gt;Node5</title>
<path fill="none" stroke="#63b8ff" d="M654.83,-60.05C652.06,-48.24 648.69,-33.87 646.57,-24.82"/>
<polygon fill="#63b8ff" stroke="#63b8ff" points="651.38,-60.69 657.07,-69.63 658.19,-59.09 651.38,-60.69"/>
</g>
<!-- Node52&#45;&gt;Node34 -->
<g id="edge28" class="edge">
<title>Node52&#45;&gt;Node34</title>
<path fill="none" stroke="#63b8ff" d="M1701.03,-134.09C1740.07,-123.42 1797.44,-107.72 1839.01,-96.36"/>
<polygon fill="#63b8ff" stroke="#63b8ff" points="1700.22,-130.69 1691.5,-136.7 1702.07,-137.44 1700.22,-130.69"/>
</g>
<!-- Node56&#45;&gt;Node11 -->
<g id="edge31" class="edge">
<title>Node56&#45;&gt;Node11</title>
<path fill="none" stroke="#63b8ff" d="M341.94,-54.59C339.64,-44.06 337.12,-32.53 335.43,-24.84"/>
<polygon fill="#63b8ff" stroke="#63b8ff" points="338.51,-55.3 344.07,-64.32 345.35,-53.8 338.51,-55.3"/>
</g>
<!-- Node60&#45;&gt;Node12 -->
<g id="edge33" class="edge">
<title>Node60&#45;&gt;Node12</title>
<path fill="none" stroke="#63b8ff" d="M515.84,-55.27C511.65,-44.55 507.02,-32.7 503.95,-24.84"/>
<polygon fill="#63b8ff" stroke="#63b8ff" points="512.5,-56.35 519.4,-64.39 519.02,-53.8 512.5,-56.35"/>
</g>
<!-- Node61&#45;&gt;Node5 -->
<g id="edge35" class="edge">
<title>Node61&#45;&gt;Node5</title>
<path fill="none" stroke="#63b8ff" d="M745.89,-61.06C719.07,-49.14 685.68,-34.3 664.72,-24.99"/>
<polygon fill="#63b8ff" stroke="#63b8ff" points="744.24,-64.16 754.8,-65.02 747.08,-57.76 744.24,-64.16"/>
</g>
<!-- Node61&#45;&gt;Node10 -->
<g id="edge36" class="edge">
<title>Node61&#45;&gt;Node10</title>
<path fill="none" stroke="#63b8ff" d="M784.13,-54.59C782.32,-44.06 780.34,-32.53 779.02,-24.84"/>
<polygon fill="#63b8ff" stroke="#63b8ff" points="780.66,-55.04 785.8,-64.3 787.56,-53.86 780.66,-55.04"/>
</g>
<!-- Node61&#45;&gt;Node11 -->
<g id="edge37" class="edge">
<title>Node61&#45;&gt;Node11</title>
<path fill="none" stroke="#63b8ff" d="M721.99,-65.68C588.41,-43.7 551.7,-48.32 420.5,-30 409.59,-28.48 397.94,-26.7 386.82,-24.94"/>
<polygon fill="#63b8ff" stroke="#63b8ff" points="721.13,-69.09 731.57,-67.28 722.28,-62.18 721.13,-69.09"/>
</g>
<!-- Node61&#45;&gt;Node13 -->
<g id="edge38" class="edge">
<title>Node61&#45;&gt;Node13</title>
<path fill="none" stroke="#63b8ff" d="M826.07,-60.45C844.75,-50.73 866.91,-39.2 883.99,-30.31"/>
<polygon fill="#63b8ff" stroke="#63b8ff" points="824.7,-57.22 817.45,-64.94 827.93,-63.43 824.7,-57.22"/>
</g>
<!-- Node61&#45;&gt;Node14 -->
<g id="edge39" class="edge">
<title>Node61&#45;&gt;Node14</title>
<path fill="none" stroke="#63b8ff" d="M855.13,-63.79C905.74,-51.47 973.46,-34.99 1014.71,-24.95"/>
<polygon fill="#63b8ff" stroke="#63b8ff" points="854.31,-60.38 845.42,-66.15 855.97,-67.18 854.31,-60.38"/>
</g>
<!-- Node86&#45;&gt;Node4 -->
<g id="edge43" class="edge">
<title>Node86&#45;&gt;Node4</title>
<path fill="none" stroke="#63b8ff" d="M1053.85,-122.95C1045.33,-111.81 1035.6,-99.11 1029.27,-90.84"/>
<polygon fill="#63b8ff" stroke="#63b8ff" points="1050.85,-124.78 1059.71,-130.59 1056.41,-120.53 1050.85,-124.78"/>
</g>
<!-- Node86&#45;&gt;Node22 -->
<g id="edge44" class="edge">
<title>Node86&#45;&gt;Node22</title>
<path fill="none" stroke="#63b8ff" d="M1008.94,-131.67C882.97,-109.8 847.65,-116.94 724.5,-96 716.08,-94.57 707.09,-92.79 698.58,-91"/>
<polygon fill="#63b8ff" stroke="#63b8ff" points="1008.24,-135.1 1018.7,-133.39 1009.46,-128.21 1008.24,-135.1"/>
</g>
<!-- Node86&#45;&gt;Node88 -->
<g id="edge45" class="edge">
<title>Node86&#45;&gt;Node88</title>
<path fill="none" stroke="#63b8ff" d="M1097.79,-124.7C1109.28,-115.4 1122.44,-104.73 1132.74,-96.39"/>
<polygon fill="#63b8ff" stroke="#63b8ff" points="1095.78,-121.83 1090.21,-130.84 1100.18,-127.27 1095.78,-121.83"/>
</g>
</g>
</svg>
