<?xml version="1.0" encoding="UTF-8" standalone="no"?>
<!DOCTYPE svg PUBLIC "-//W3C//DTD SVG 1.1//EN"
 "http://www.w3.org/Graphics/SVG/1.1/DTD/svg11.dtd">
<!-- Generated by graphviz version 7.0.5 (20221223.1930)
 -->
<!-- Title: include/JSystem/JUtility/JUTAssert.h Pages: 1 -->
<svg width="5141pt" height="302pt"
 viewBox="0.00 0.00 5141.00 302.00" xmlns="http://www.w3.org/2000/svg" xmlns:xlink="http://www.w3.org/1999/xlink">
<g id="graph0" class="graph" transform="scale(1 1) rotate(0) translate(4 298)">
<title>include/JSystem/JUtility/JUTAssert.h</title>
<!-- Node1 -->
<g id="node1" class="node">
<title>Node1</title>
<g id="a_node1"><a xlink:title=" ">
<polygon fill="#999999" stroke="#666666" points="3678,-294 3556,-294 3556,-264 3678,-264 3678,-294"/>
<text text-anchor="start" x="3564" y="-282" font-family="Helvetica,sans-Serif" font-size="10.00">include/JSystem/JUtility</text>
<text text-anchor="middle" x="3617" y="-271" font-family="Helvetica,sans-Serif" font-size="10.00">/JUTAssert.h</text>
</a>
</g>
</g>
<!-- Node2 -->
<g id="node2" class="node">
<title>Node2</title>
<g id="a_node2"><a xlink:href="JAISeqMgr_8h.html" target="_top" xlink:title=" ">
<polygon fill="white" stroke="#666666" points="390.5,-162 263.5,-162 263.5,-132 390.5,-132 390.5,-162"/>
<text text-anchor="start" x="271.5" y="-150" font-family="Helvetica,sans-Serif" font-size="10.00">include/JSystem/JAudio2</text>
<text text-anchor="middle" x="327" y="-139" font-family="Helvetica,sans-Serif" font-size="10.00">/JAISeqMgr.h</text>
</a>
</g>
</g>
<!-- Node1&#45;&gt;Node2 -->
<g id="edge1" class="edge">
<title>Node1&#45;&gt;Node2</title>
<path fill="none" stroke="#63b8ff" d="M3544.47,-277.81C3116.72,-276.56 931.9,-268.21 636,-228 538.95,-214.81 428.61,-181.7 369.6,-162.46"/>
<polygon fill="#63b8ff" stroke="#63b8ff" points="3544.21,-281.31 3554.22,-277.84 3544.23,-274.31 3544.21,-281.31"/>
</g>
<!-- Node377 -->
<g id="node6" class="node">
<title>Node377</title>
<g id="a_node6"><a xlink:href="JAISoundHandles_8h.html" target="_top" xlink:title=" ">
<polygon fill="white" stroke="#666666" points="772.5,-228 645.5,-228 645.5,-198 772.5,-198 772.5,-228"/>
<text text-anchor="start" x="653.5" y="-216" font-family="Helvetica,sans-Serif" font-size="10.00">include/JSystem/JAudio2</text>
<text text-anchor="middle" x="709" y="-205" font-family="Helvetica,sans-Serif" font-size="10.00">/JAISoundHandles.h</text>
</a>
</g>
</g>
<!-- Node1&#45;&gt;Node377 -->
<g id="edge5" class="edge">
<title>Node1&#45;&gt;Node377</title>
<path fill="none" stroke="#63b8ff" d="M3544.32,-276.4C3138.24,-267.46 1154.77,-223.81 772.74,-215.4"/>
<polygon fill="#63b8ff" stroke="#63b8ff" points="3544,-279.89 3554.08,-276.62 3544.16,-272.9 3544,-279.89"/>
</g>
<!-- Node402 -->
<g id="node16" class="node">
<title>Node402</title>
<g id="a_node16"><a xlink:href="JAIStreamMgr_8h.html" target="_top" xlink:title=" ">
<polygon fill="white" stroke="#666666" points="245.5,-162 118.5,-162 118.5,-132 245.5,-132 245.5,-162"/>
<text text-anchor="start" x="126.5" y="-150" font-family="Helvetica,sans-Serif" font-size="10.00">include/JSystem/JAudio2</text>
<text text-anchor="middle" x="182" y="-139" font-family="Helvetica,sans-Serif" font-size="10.00">/JAIStreamMgr.h</text>
</a>
</g>
</g>
<!-- Node1&#45;&gt;Node402 -->
<g id="edge15" class="edge">
<title>Node1&#45;&gt;Node402</title>
<path fill="none" stroke="#63b8ff" d="M3544.4,-277.89C3103.94,-277.06 798.47,-270.7 487,-228 391,-214.84 281.95,-181.63 223.78,-162.39"/>
<polygon fill="#63b8ff" stroke="#63b8ff" points="3544.15,-281.39 3554.16,-277.9 3544.16,-274.39 3544.15,-281.39"/>
</g>
<!-- Node404 -->
<g id="node18" class="node">
<title>Node404</title>
<g id="a_node18"><a xlink:href="JASGadget_8h.html" target="_top" xlink:title=" ">
<polygon fill="#fff0f0" stroke="red" points="1765.5,-228 1638.5,-228 1638.5,-198 1765.5,-198 1765.5,-228"/>
<text text-anchor="start" x="1646.5" y="-216" font-family="Helvetica,sans-Serif" font-size="10.00">include/JSystem/JAudio2</text>
<text text-anchor="middle" x="1702" y="-205" font-family="Helvetica,sans-Serif" font-size="10.00">/JASGadget.h</text>
</a>
</g>
</g>
<!-- Node1&#45;&gt;Node404 -->
<g id="edge18" class="edge">
<title>Node1&#45;&gt;Node404</title>
<path fill="none" stroke="#63b8ff" d="M3544.34,-275.57C3238.02,-265.33 2054.45,-225.78 1765.77,-216.13"/>
<polygon fill="#63b8ff" stroke="#63b8ff" points="3544.1,-279.07 3554.21,-275.9 3544.33,-272.07 3544.1,-279.07"/>
</g>
<!-- Node425 -->
<g id="node26" class="node">
<title>Node425</title>
<g id="a_node26"><a xlink:href="JAUAudioArcLoader_8cpp.html" target="_top" xlink:title=" ">
<polygon fill="white" stroke="#666666" points="2660.5,-30 2533.5,-30 2533.5,0 2660.5,0 2660.5,-30"/>
<text text-anchor="start" x="2541.5" y="-18" font-family="Helvetica,sans-Serif" font-size="10.00">libs/JSystem/JAudio2</text>
<text text-anchor="middle" x="2597" y="-7" font-family="Helvetica,sans-Serif" font-size="10.00">/JAUAudioArcLoader.cpp</text>
</a>
</g>
</g>
<!-- Node1&#45;&gt;Node425 -->
<g id="edge45" class="edge">
<title>Node1&#45;&gt;Node425</title>
<path fill="none" stroke="#63b8ff" d="M3544.15,-278.67C3346.71,-279.82 2812.09,-278.21 2752,-228 2695.17,-180.51 2760.71,-122.64 2713,-66 2698.87,-49.23 2678.08,-37.93 2657.99,-30.39"/>
<polygon fill="#63b8ff" stroke="#63b8ff" points="3544.05,-282.17 3554.03,-278.61 3544.01,-275.17 3544.05,-282.17"/>
</g>
<!-- Node408 -->
<g id="node29" class="node">
<title>Node408</title>
<g id="a_node29"><a xlink:href="Z2SoundInfo_8cpp.html" target="_top" xlink:title=" ">
<polygon fill="white" stroke="#666666" points="2704.5,-90.5 2543.5,-90.5 2543.5,-71.5 2704.5,-71.5 2704.5,-90.5"/>
<text text-anchor="middle" x="2624" y="-78.5" font-family="Helvetica,sans-Serif" font-size="10.00">libs/Z2AudioLib/Z2SoundInfo.cpp</text>
</a>
</g>
</g>
<!-- Node1&#45;&gt;Node408 -->
<g id="edge61" class="edge">
<title>Node1&#45;&gt;Node408</title>
<path fill="none" stroke="#63b8ff" d="M3544.32,-278.21C3342.64,-278.2 2786.43,-273.97 2719,-228 2680.22,-201.56 2701.98,-170.4 2675,-132 2663.59,-115.77 2646.52,-100.29 2635.32,-90.97"/>
<polygon fill="#63b8ff" stroke="#63b8ff" points="3544.14,-281.71 3554.14,-278.21 3544.14,-274.71 3544.14,-281.71"/>
</g>
<!-- Node443 -->
<g id="node33" class="node">
<title>Node443</title>
<g id="a_node33"><a xlink:href="JAUStreamAramMgr_8h.html" target="_top" xlink:title=" ">
<polygon fill="#fff0f0" stroke="red" points="2888.5,-228 2761.5,-228 2761.5,-198 2888.5,-198 2888.5,-228"/>
<text text-anchor="start" x="2769.5" y="-216" font-family="Helvetica,sans-Serif" font-size="10.00">include/JSystem/JAudio2</text>
<text text-anchor="middle" x="2825" y="-205" font-family="Helvetica,sans-Serif" font-size="10.00">/JAUStreamAramMgr.h</text>
</a>
</g>
</g>
<!-- Node1&#45;&gt;Node443 -->
<g id="edge42" class="edge">
<title>Node1&#45;&gt;Node443</title>
<path fill="none" stroke="#63b8ff" d="M3544.32,-275.83C3414.22,-271.3 3133.17,-258.62 2898,-228 2894.93,-227.6 2891.79,-227.15 2888.63,-226.67"/>
<polygon fill="#63b8ff" stroke="#63b8ff" points="3544.05,-279.32 3554.16,-276.17 3544.29,-272.33 3544.05,-279.32"/>
</g>
<!-- Node444 -->
<g id="node34" class="node">
<title>Node444</title>
<g id="a_node34"><a xlink:href="JASBasicWaveBank_8cpp.html" target="_top" xlink:title=" ">
<polygon fill="white" stroke="#666666" points="3035,-228 2907,-228 2907,-198 3035,-198 3035,-228"/>
<text text-anchor="start" x="2915" y="-216" font-family="Helvetica,sans-Serif" font-size="10.00">libs/JSystem/JAudio2</text>
<text text-anchor="middle" x="2971" y="-205" font-family="Helvetica,sans-Serif" font-size="10.00">/JASBasicWaveBank.cpp</text>
</a>
</g>
</g>
<!-- Node1&#45;&gt;Node444 -->
<g id="edge43" class="edge">
<title>Node1&#45;&gt;Node444</title>
<path fill="none" stroke="#63b8ff" d="M3544.53,-274.06C3435.55,-267.61 3223.11,-252.92 3044,-228 3041.19,-227.61 3038.32,-227.18 3035.43,-226.73"/>
<polygon fill="#63b8ff" stroke="#63b8ff" points="3544.01,-277.54 3554.2,-274.63 3544.42,-270.55 3544.01,-277.54"/>
</g>
<!-- Node445 -->
<g id="node35" class="node">
<title>Node445</title>
<g id="a_node35"><a xlink:href="JAUAudioArcInterpreter_8cpp.html" target="_top" xlink:title=" ">
<polygon fill="white" stroke="#666666" points="3194.5,-228 3053.5,-228 3053.5,-198 3194.5,-198 3194.5,-228"/>
<text text-anchor="start" x="3061.5" y="-216" font-family="Helvetica,sans-Serif" font-size="10.00">libs/JSystem/JAudio2</text>
<text text-anchor="middle" x="3124" y="-205" font-family="Helvetica,sans-Serif" font-size="10.00">/JAUAudioArcInterpreter.cpp</text>
</a>
</g>
</g>
<!-- Node1&#45;&gt;Node445 -->
<g id="edge44" class="edge">
<title>Node1&#45;&gt;Node445</title>
<path fill="none" stroke="#63b8ff" d="M3544.53,-270.47C3461.76,-261.59 3322.34,-245.77 3203,-228 3200.24,-227.59 3197.44,-227.16 3194.6,-226.71"/>
<polygon fill="#63b8ff" stroke="#63b8ff" points="3544.01,-273.94 3554.33,-271.52 3544.75,-266.98 3544.01,-273.94"/>
</g>
<!-- Node446 -->
<g id="node36" class="node">
<title>Node446</title>
<g id="a_node36"><a xlink:href="JAUSeqCollection_8cpp.html" target="_top" xlink:title=" ">
<polygon fill="white" stroke="#666666" points="3329.5,-228 3212.5,-228 3212.5,-198 3329.5,-198 3329.5,-228"/>
<text text-anchor="start" x="3220.5" y="-216" font-family="Helvetica,sans-Serif" font-size="10.00">libs/JSystem/JAudio2</text>
<text text-anchor="middle" x="3271" y="-205" font-family="Helvetica,sans-Serif" font-size="10.00">/JAUSeqCollection.cpp</text>
</a>
</g>
</g>
<!-- Node1&#45;&gt;Node446 -->
<g id="edge46" class="edge">
<title>Node1&#45;&gt;Node446</title>
<path fill="none" stroke="#63b8ff" d="M3544.37,-265.45C3488.23,-255.63 3408.6,-241.42 3339,-228 3336.04,-227.43 3333.01,-226.84 3329.95,-226.23"/>
<polygon fill="#63b8ff" stroke="#63b8ff" points="3543.69,-268.88 3554.14,-267.16 3544.89,-261.99 3543.69,-268.88"/>
</g>
<!-- Node447 -->
<g id="node37" class="node">
<title>Node447</title>
<g id="a_node37"><a xlink:href="JFWDisplay_8cpp.html" target="_top" xlink:title=" ">
<polygon fill="white" stroke="#666666" points="3478,-228 3348,-228 3348,-198 3478,-198 3478,-228"/>
<text text-anchor="start" x="3356" y="-216" font-family="Helvetica,sans-Serif" font-size="10.00">libs/JSystem/JFramework</text>
<text text-anchor="middle" x="3413" y="-205" font-family="Helvetica,sans-Serif" font-size="10.00">/JFWDisplay.cpp</text>
</a>
</g>
</g>
<!-- Node1&#45;&gt;Node447 -->
<g id="edge47" class="edge">
<title>Node1&#45;&gt;Node447</title>
<path fill="none" stroke="#63b8ff" d="M3560.01,-260.12C3528.08,-250.1 3488.79,-237.78 3458.87,-228.39"/>
<polygon fill="#63b8ff" stroke="#63b8ff" points="3558.93,-263.45 3569.52,-263.1 3561.03,-256.77 3558.93,-263.45"/>
</g>
<!-- Node448 -->
<g id="node38" class="node">
<title>Node448</title>
<g id="a_node38"><a xlink:href="JKRAramArchive_8cpp.html" target="_top" xlink:title=" ">
<polygon fill="white" stroke="#666666" points="3609.5,-228 3496.5,-228 3496.5,-198 3609.5,-198 3609.5,-228"/>
<text text-anchor="start" x="3504.5" y="-216" font-family="Helvetica,sans-Serif" font-size="10.00">libs/JSystem/JKernel</text>
<text text-anchor="middle" x="3553" y="-205" font-family="Helvetica,sans-Serif" font-size="10.00">/JKRAramArchive.cpp</text>
</a>
</g>
</g>
<!-- Node1&#45;&gt;Node448 -->
<g id="edge48" class="edge">
<title>Node1&#45;&gt;Node448</title>
<path fill="none" stroke="#63b8ff" d="M3594.81,-255.81C3585.64,-246.64 3575.28,-236.28 3567.16,-228.16"/>
<polygon fill="#63b8ff" stroke="#63b8ff" points="3592.18,-258.13 3601.73,-262.73 3597.13,-253.18 3592.18,-258.13"/>
</g>
<!-- Node449 -->
<g id="node39" class="node">
<title>Node449</title>
<g id="a_node39"><a xlink:href="JKRArchivePub_8cpp.html" target="_top" xlink:title=" ">
<polygon fill="white" stroke="#666666" points="3736.5,-228 3627.5,-228 3627.5,-198 3736.5,-198 3736.5,-228"/>
<text text-anchor="start" x="3635.5" y="-216" font-family="Helvetica,sans-Serif" font-size="10.00">libs/JSystem/JKernel</text>
<text text-anchor="middle" x="3682" y="-205" font-family="Helvetica,sans-Serif" font-size="10.00">/JKRArchivePub.cpp</text>
</a>
</g>
</g>
<!-- Node1&#45;&gt;Node449 -->
<g id="edge49" class="edge">
<title>Node1&#45;&gt;Node449</title>
<path fill="none" stroke="#63b8ff" d="M3639.54,-255.81C3648.85,-246.64 3659.38,-236.28 3667.61,-228.16"/>
<polygon fill="#63b8ff" stroke="#63b8ff" points="3637.17,-253.22 3632.5,-262.73 3642.09,-258.21 3637.17,-253.22"/>
</g>
<!-- Node450 -->
<g id="node40" class="node">
<title>Node450</title>
<g id="a_node40"><a xlink:href="JKRCompArchive_8cpp.html" target="_top" xlink:title=" ">
<polygon fill="white" stroke="#666666" points="3869.5,-228 3754.5,-228 3754.5,-198 3869.5,-198 3869.5,-228"/>
<text text-anchor="start" x="3762.5" y="-216" font-family="Helvetica,sans-Serif" font-size="10.00">libs/JSystem/JKernel</text>
<text text-anchor="middle" x="3812" y="-205" font-family="Helvetica,sans-Serif" font-size="10.00">/JKRCompArchive.cpp</text>
</a>
</g>
</g>
<!-- Node1&#45;&gt;Node450 -->
<g id="edge50" class="edge">
<title>Node1&#45;&gt;Node450</title>
<path fill="none" stroke="#63b8ff" d="M3671.64,-260.07C3702.09,-250.07 3739.51,-237.79 3768.05,-228.43"/>
<polygon fill="#63b8ff" stroke="#63b8ff" points="3670.61,-256.72 3662.2,-263.17 3672.79,-263.37 3670.61,-256.72"/>
</g>
<!-- Node451 -->
<g id="node41" class="node">
<title>Node451</title>
<g id="a_node41"><a xlink:href="JKRDvdArchive_8cpp.html" target="_top" xlink:title=" ">
<polygon fill="white" stroke="#666666" points="3996.5,-228 3887.5,-228 3887.5,-198 3996.5,-198 3996.5,-228"/>
<text text-anchor="start" x="3895.5" y="-216" font-family="Helvetica,sans-Serif" font-size="10.00">libs/JSystem/JKernel</text>
<text text-anchor="middle" x="3942" y="-205" font-family="Helvetica,sans-Serif" font-size="10.00">/JKRDvdArchive.cpp</text>
</a>
</g>
</g>
<!-- Node1&#45;&gt;Node451 -->
<g id="edge51" class="edge">
<title>Node1&#45;&gt;Node451</title>
<path fill="none" stroke="#63b8ff" d="M3689.5,-264.77C3742.16,-255.01 3815.1,-241.19 3879,-228 3881.63,-227.46 3884.33,-226.89 3887.05,-226.31"/>
<polygon fill="#63b8ff" stroke="#63b8ff" points="3688.93,-261.32 3679.74,-266.58 3690.21,-268.2 3688.93,-261.32"/>
</g>
<!-- Node452 -->
<g id="node42" class="node">
<title>Node452</title>
<g id="a_node42"><a xlink:href="JKRDvdFile_8cpp.html" target="_top" xlink:title=" ">
<polygon fill="white" stroke="#666666" points="4123.5,-228 4014.5,-228 4014.5,-198 4123.5,-198 4123.5,-228"/>
<text text-anchor="start" x="4022.5" y="-216" font-family="Helvetica,sans-Serif" font-size="10.00">libs/JSystem/JKernel</text>
<text text-anchor="middle" x="4069" y="-205" font-family="Helvetica,sans-Serif" font-size="10.00">/JKRDvdFile.cpp</text>
</a>
</g>
</g>
<!-- Node1&#45;&gt;Node452 -->
<g id="edge52" class="edge">
<title>Node1&#45;&gt;Node452</title>
<path fill="none" stroke="#63b8ff" d="M3689.42,-270.68C3767.77,-262.3 3896.21,-247.21 4006,-228 4008.65,-227.54 4011.35,-227.04 4014.08,-226.51"/>
<polygon fill="#63b8ff" stroke="#63b8ff" points="3689.31,-267.17 3679.74,-271.71 3690.05,-274.13 3689.31,-267.17"/>
</g>
<!-- Node453 -->
<g id="node43" class="node">
<title>Node453</title>
<g id="a_node43"><a xlink:href="JKRFileCache_8cpp.html" target="_top" xlink:title=" ">
<polygon fill="white" stroke="#666666" points="4250.5,-228 4141.5,-228 4141.5,-198 4250.5,-198 4250.5,-228"/>
<text text-anchor="start" x="4149.5" y="-216" font-family="Helvetica,sans-Serif" font-size="10.00">libs/JSystem/JKernel</text>
<text text-anchor="middle" x="4196" y="-205" font-family="Helvetica,sans-Serif" font-size="10.00">/JKRFileCache.cpp</text>
</a>
</g>
</g>
<!-- Node1&#45;&gt;Node453 -->
<g id="edge53" class="edge">
<title>Node1&#45;&gt;Node453</title>
<path fill="none" stroke="#63b8ff" d="M3689.67,-273.76C3789.88,-267.29 3975.95,-252.96 4133,-228 4135.66,-227.58 4138.37,-227.11 4141.1,-226.61"/>
<polygon fill="#63b8ff" stroke="#63b8ff" points="3689.74,-270.25 3679.98,-274.38 3690.18,-277.24 3689.74,-270.25"/>
</g>
<!-- Node454 -->
<g id="node44" class="node">
<title>Node454</title>
<g id="a_node44"><a xlink:href="JKRHeap_8cpp.html" target="_top" xlink:title=" ">
<polygon fill="white" stroke="#666666" points="4377.5,-228 4268.5,-228 4268.5,-198 4377.5,-198 4377.5,-228"/>
<text text-anchor="start" x="4276.5" y="-216" font-family="Helvetica,sans-Serif" font-size="10.00">libs/JSystem/JKernel</text>
<text text-anchor="middle" x="4323" y="-205" font-family="Helvetica,sans-Serif" font-size="10.00">/JKRHeap.cpp</text>
</a>
</g>
</g>
<!-- Node1&#45;&gt;Node454 -->
<g id="edge54" class="edge">
<title>Node1&#45;&gt;Node454</title>
<path fill="none" stroke="#63b8ff" d="M3689.67,-275.69C3809.2,-271.14 4054.56,-258.66 4260,-228 4262.66,-227.6 4265.37,-227.16 4268.11,-226.68"/>
<polygon fill="#63b8ff" stroke="#63b8ff" points="3689.87,-272.18 3680.01,-276.05 3690.13,-279.17 3689.87,-272.18"/>
</g>
<!-- Node455 -->
<g id="node45" class="node">
<title>Node455</title>
<g id="a_node45"><a xlink:href="JKRMemArchive_8cpp.html" target="_top" xlink:title=" ">
<polygon fill="white" stroke="#666666" points="4506.5,-228 4395.5,-228 4395.5,-198 4506.5,-198 4506.5,-228"/>
<text text-anchor="start" x="4403.5" y="-216" font-family="Helvetica,sans-Serif" font-size="10.00">libs/JSystem/JKernel</text>
<text text-anchor="middle" x="4451" y="-205" font-family="Helvetica,sans-Serif" font-size="10.00">/JKRMemArchive.cpp</text>
</a>
</g>
</g>
<!-- Node1&#45;&gt;Node455 -->
<g id="edge55" class="edge">
<title>Node1&#45;&gt;Node455</title>
<path fill="none" stroke="#63b8ff" d="M3689.35,-276.93C3826.21,-274.09 4132.18,-263.94 4387,-228 4389.7,-227.62 4392.46,-227.19 4395.24,-226.71"/>
<polygon fill="#63b8ff" stroke="#63b8ff" points="3689.65,-273.42 3679.72,-277.12 3689.79,-280.42 3689.65,-273.42"/>
</g>
<!-- Node456 -->
<g id="node46" class="node">
<title>Node456</title>
<g id="a_node46"><a xlink:href="JKRSolidHeap_8cpp.html" target="_top" xlink:title=" ">
<polygon fill="white" stroke="#666666" points="4633.5,-228 4524.5,-228 4524.5,-198 4633.5,-198 4633.5,-228"/>
<text text-anchor="start" x="4532.5" y="-216" font-family="Helvetica,sans-Serif" font-size="10.00">libs/JSystem/JKernel</text>
<text text-anchor="middle" x="4579" y="-205" font-family="Helvetica,sans-Serif" font-size="10.00">/JKRSolidHeap.cpp</text>
</a>
</g>
</g>
<!-- Node1&#45;&gt;Node456 -->
<g id="edge56" class="edge">
<title>Node1&#45;&gt;Node456</title>
<path fill="none" stroke="#63b8ff" d="M3689.47,-277.96C3842.76,-277.02 4210.84,-270.11 4516,-228 4518.66,-227.63 4521.38,-227.21 4524.12,-226.75"/>
<polygon fill="#63b8ff" stroke="#63b8ff" points="3689.87,-274.46 3679.89,-278.02 3689.91,-281.46 3689.87,-274.46"/>
</g>
<!-- Node457 -->
<g id="node47" class="node">
<title>Node457</title>
<g id="a_node47"><a xlink:href="JKRThread_8cpp.html" target="_top" xlink:title=" ">
<polygon fill="white" stroke="#666666" points="4760.5,-228 4651.5,-228 4651.5,-198 4760.5,-198 4760.5,-228"/>
<text text-anchor="start" x="4659.5" y="-216" font-family="Helvetica,sans-Serif" font-size="10.00">libs/JSystem/JKernel</text>
<text text-anchor="middle" x="4706" y="-205" font-family="Helvetica,sans-Serif" font-size="10.00">/JKRThread.cpp</text>
</a>
</g>
</g>
<!-- Node1&#45;&gt;Node457 -->
<g id="edge57" class="edge">
<title>Node1&#45;&gt;Node457</title>
<path fill="none" stroke="#63b8ff" d="M3689.77,-278.68C3858.25,-279.35 4287.91,-275.75 4643,-228 4645.67,-227.64 4648.38,-227.23 4651.12,-226.77"/>
<polygon fill="#63b8ff" stroke="#63b8ff" points="3689.86,-275.19 3679.84,-278.64 3689.83,-282.19 3689.86,-275.19"/>
</g>
<!-- Node458 -->
<g id="node48" class="node">
<title>Node458</title>
<g id="a_node48"><a xlink:href="JUTAssert_8cpp.html" target="_top" xlink:title=" ">
<polygon fill="white" stroke="#666666" points="4885,-228 4779,-228 4779,-198 4885,-198 4885,-228"/>
<text text-anchor="start" x="4787" y="-216" font-family="Helvetica,sans-Serif" font-size="10.00">libs/JSystem/JUtility</text>
<text text-anchor="middle" x="4832" y="-205" font-family="Helvetica,sans-Serif" font-size="10.00">/JUTAssert.cpp</text>
</a>
</g>
</g>
<!-- Node1&#45;&gt;Node458 -->
<g id="edge58" class="edge">
<title>Node1&#45;&gt;Node458</title>
<path fill="none" stroke="#63b8ff" d="M3689.71,-276.55C3908.69,-271.91 4559.77,-256.06 4770,-228 4772.84,-227.62 4775.75,-227.17 4778.68,-226.68"/>
<polygon fill="#63b8ff" stroke="#63b8ff" points="3689.81,-273.05 3679.89,-276.75 3689.96,-280.04 3689.81,-273.05"/>
</g>
<!-- Node459 -->
<g id="node49" class="node">
<title>Node459</title>
<g id="a_node49"><a xlink:href="JUTConsole_8cpp.html" target="_top" xlink:title=" ">
<polygon fill="white" stroke="#666666" points="5009,-228 4903,-228 4903,-198 5009,-198 5009,-228"/>
<text text-anchor="start" x="4911" y="-216" font-family="Helvetica,sans-Serif" font-size="10.00">libs/JSystem/JUtility</text>
<text text-anchor="middle" x="4956" y="-205" font-family="Helvetica,sans-Serif" font-size="10.00">/JUTConsole.cpp</text>
</a>
</g>
</g>
<!-- Node1&#45;&gt;Node459 -->
<g id="edge59" class="edge">
<title>Node1&#45;&gt;Node459</title>
<path fill="none" stroke="#63b8ff" d="M3689.79,-276.9C3924.33,-273.09 4658.61,-258.92 4894,-228 4896.84,-227.63 4899.75,-227.18 4902.68,-226.69"/>
<polygon fill="#63b8ff" stroke="#63b8ff" points="3689.8,-273.4 3679.86,-277.06 3689.91,-280.4 3689.8,-273.4"/>
</g>
<!-- Node460 -->
<g id="node50" class="node">
<title>Node460</title>
<g id="a_node50"><a xlink:href="JUTResFont_8cpp.html" target="_top" xlink:title=" ">
<polygon fill="white" stroke="#666666" points="5133,-228 5027,-228 5027,-198 5133,-198 5133,-228"/>
<text text-anchor="start" x="5035" y="-216" font-family="Helvetica,sans-Serif" font-size="10.00">libs/JSystem/JUtility</text>
<text text-anchor="middle" x="5080" y="-205" font-family="Helvetica,sans-Serif" font-size="10.00">/JUTResFont.cpp</text>
</a>
</g>
</g>
<!-- Node1&#45;&gt;Node460 -->
<g id="edge60" class="edge">
<title>Node1&#45;&gt;Node460</title>
<path fill="none" stroke="#63b8ff" d="M3689.59,-277.2C3938.61,-274.16 4757.24,-261.79 5018,-228 5020.85,-227.63 5023.75,-227.19 5026.68,-226.7"/>
<polygon fill="#63b8ff" stroke="#63b8ff" points="3689.63,-273.7 3679.68,-277.32 3689.72,-280.7 3689.63,-273.7"/>
</g>
<!-- Node3 -->
<g id="node3" class="node">
<title>Node3</title>
<g id="a_node3"><a xlink:href="Z2SoundMgr_8h.html" target="_top" xlink:title=" ">
<polygon fill="#fff0f0" stroke="red" points="253,-96 153,-96 153,-66 253,-66 253,-96"/>
<text text-anchor="start" x="161" y="-84" font-family="Helvetica,sans-Serif" font-size="10.00">include/Z2AudioLib</text>
<text text-anchor="middle" x="203" y="-73" font-family="Helvetica,sans-Serif" font-size="10.00">/Z2SoundMgr.h</text>
</a>
</g>
</g>
<!-- Node2&#45;&gt;Node3 -->
<g id="edge2" class="edge">
<title>Node2&#45;&gt;Node3</title>
<path fill="none" stroke="#63b8ff" d="M289.13,-126.45C270.3,-116.73 247.95,-105.2 230.74,-96.31"/>
<polygon fill="#63b8ff" stroke="#63b8ff" points="287.34,-129.47 297.83,-130.94 290.55,-123.25 287.34,-129.47"/>
</g>
<!-- Node375 -->
<g id="node4" class="node">
<title>Node375</title>
<g id="a_node4"><a xlink:href="JAISeq_8cpp.html" target="_top" xlink:title=" ">
<polygon fill="white" stroke="#666666" points="511.5,-96 400.5,-96 400.5,-66 511.5,-66 511.5,-96"/>
<text text-anchor="start" x="408.5" y="-84" font-family="Helvetica,sans-Serif" font-size="10.00">libs/JSystem/JAudio2</text>
<text text-anchor="middle" x="456" y="-73" font-family="Helvetica,sans-Serif" font-size="10.00">/JAISeq.cpp</text>
</a>
</g>
</g>
<!-- Node2&#45;&gt;Node375 -->
<g id="edge3" class="edge">
<title>Node2&#45;&gt;Node375</title>
<path fill="none" stroke="#63b8ff" d="M366.13,-126.59C385.77,-116.84 409.16,-105.24 427.15,-96.31"/>
<polygon fill="#63b8ff" stroke="#63b8ff" points="364.71,-123.38 357.31,-130.96 367.82,-129.66 364.71,-123.38"/>
</g>
<!-- Node376 -->
<g id="node5" class="node">
<title>Node376</title>
<g id="a_node5"><a xlink:href="JAISeqMgr_8cpp.html" target="_top" xlink:title=" ">
<polygon fill="white" stroke="#666666" points="382.5,-96 271.5,-96 271.5,-66 382.5,-66 382.5,-96"/>
<text text-anchor="start" x="279.5" y="-84" font-family="Helvetica,sans-Serif" font-size="10.00">libs/JSystem/JAudio2</text>
<text text-anchor="middle" x="327" y="-73" font-family="Helvetica,sans-Serif" font-size="10.00">/JAISeqMgr.cpp</text>
</a>
</g>
</g>
<!-- Node2&#45;&gt;Node376 -->
<g id="edge4" class="edge">
<title>Node2&#45;&gt;Node376</title>
<path fill="none" stroke="#63b8ff" d="M327,-120.39C327,-112.13 327,-103.28 327,-96.16"/>
<polygon fill="#63b8ff" stroke="#63b8ff" points="323.5,-120.28 327,-130.28 330.5,-120.28 323.5,-120.28"/>
</g>
<!-- Node378 -->
<g id="node7" class="node">
<title>Node378</title>
<g id="a_node7"><a xlink:href="JStudio_2JStudio__JAudio2_2control_8h.html" target="_top" xlink:title=" ">
<polygon fill="#fff0f0" stroke="red" points="962.5,-96 829.5,-96 829.5,-66 962.5,-66 962.5,-96"/>
<text text-anchor="start" x="837.5" y="-84" font-family="Helvetica,sans-Serif" font-size="10.00">include/JSystem/JStudio</text>
<text text-anchor="middle" x="896" y="-73" font-family="Helvetica,sans-Serif" font-size="10.00">/JStudio_JAudio2/control.h</text>
</a>
</g>
</g>
<!-- Node377&#45;&gt;Node378 -->
<g id="edge6" class="edge">
<title>Node377&#45;&gt;Node378</title>
<path fill="none" stroke="#63b8ff" d="M633.8,-203.08C558.03,-193.32 450.54,-177.06 438,-162 429.47,-151.75 429.1,-141.93 438,-132 463.63,-103.42 708.44,-89.58 829.24,-84.45"/>
<polygon fill="#63b8ff" stroke="#63b8ff" points="633.33,-206.55 643.7,-204.34 634.22,-199.61 633.33,-206.55"/>
</g>
<!-- Node382 -->
<g id="node8" class="node">
<title>Node382</title>
<g id="a_node8"><a xlink:href="Z2SeMgr_8h.html" target="_top" xlink:title=" ">
<polygon fill="#fff0f0" stroke="red" points="995,-162 895,-162 895,-132 995,-132 995,-162"/>
<text text-anchor="start" x="903" y="-150" font-family="Helvetica,sans-Serif" font-size="10.00">include/Z2AudioLib</text>
<text text-anchor="middle" x="945" y="-139" font-family="Helvetica,sans-Serif" font-size="10.00">/Z2SeMgr.h</text>
</a>
</g>
</g>
<!-- Node377&#45;&gt;Node382 -->
<g id="edge7" class="edge">
<title>Node377&#45;&gt;Node382</title>
<path fill="none" stroke="#63b8ff" d="M773.28,-194.57C811.51,-184.2 859.31,-171.24 894.76,-161.62"/>
<polygon fill="#63b8ff" stroke="#63b8ff" points="772.45,-191.17 763.72,-197.16 774.29,-197.92 772.45,-191.17"/>
</g>
<!-- Node388 -->
<g id="node9" class="node">
<title>Node388</title>
<g id="a_node9"><a xlink:href="Z2SeqMgr_8h.html" target="_top" xlink:title=" ">
<polygon fill="#fff0f0" stroke="red" points="1113,-162 1013,-162 1013,-132 1113,-132 1113,-162"/>
<text text-anchor="start" x="1021" y="-150" font-family="Helvetica,sans-Serif" font-size="10.00">include/Z2AudioLib</text>
<text text-anchor="middle" x="1063" y="-139" font-family="Helvetica,sans-Serif" font-size="10.00">/Z2SeqMgr.h</text>
</a>
</g>
</g>
<!-- Node377&#45;&gt;Node388 -->
<g id="edge8" class="edge">
<title>Node377&#45;&gt;Node388</title>
<path fill="none" stroke="#63b8ff" d="M784.03,-200.66C843.8,-191.3 929.51,-177.13 1004,-162 1006.79,-161.43 1009.64,-160.83 1012.52,-160.21"/>
<polygon fill="#63b8ff" stroke="#63b8ff" points="783.65,-197.18 774.3,-202.18 784.72,-204.1 783.65,-197.18"/>
</g>
<!-- Node391 -->
<g id="node10" class="node">
<title>Node391</title>
<g id="a_node10"><a xlink:href="Z2SoundHandles_8h.html" target="_top" xlink:title=" ">
<polygon fill="#fff0f0" stroke="red" points="721,-162 619,-162 619,-132 721,-132 721,-162"/>
<text text-anchor="start" x="627" y="-150" font-family="Helvetica,sans-Serif" font-size="10.00">include/Z2AudioLib</text>
<text text-anchor="middle" x="670" y="-139" font-family="Helvetica,sans-Serif" font-size="10.00">/Z2SoundHandles.h</text>
</a>
</g>
</g>
<!-- Node377&#45;&gt;Node391 -->
<g id="edge9" class="edge">
<title>Node377&#45;&gt;Node391</title>
<path fill="none" stroke="#63b8ff" d="M694.44,-188.11C689.12,-179.38 683.27,-169.78 678.63,-162.16"/>
<polygon fill="#63b8ff" stroke="#63b8ff" points="691.36,-189.79 699.56,-196.5 697.34,-186.14 691.36,-189.79"/>
</g>
<!-- Node396 -->
<g id="node11" class="node">
<title>Node396</title>
<g id="a_node11"><a xlink:href="Z2SpeechMgr2_8h.html" target="_top" xlink:title=" ">
<polygon fill="#fff0f0" stroke="red" points="100,-162 0,-162 0,-132 100,-132 100,-162"/>
<text text-anchor="start" x="8" y="-150" font-family="Helvetica,sans-Serif" font-size="10.00">include/Z2AudioLib</text>
<text text-anchor="middle" x="50" y="-139" font-family="Helvetica,sans-Serif" font-size="10.00">/Z2SpeechMgr2.h</text>
</a>
</g>
</g>
<!-- Node377&#45;&gt;Node396 -->
<g id="edge10" class="edge">
<title>Node377&#45;&gt;Node396</title>
<path fill="none" stroke="#63b8ff" d="M633.76,-209.35C519.68,-204.52 296.37,-191.86 109,-162 106.19,-161.55 103.32,-161.04 100.43,-160.49"/>
<polygon fill="#63b8ff" stroke="#63b8ff" points="633.48,-212.84 643.61,-209.76 633.77,-205.85 633.48,-212.84"/>
</g>
<!-- Node398 -->
<g id="node12" class="node">
<title>Node398</title>
<g id="a_node12"><a xlink:href="Z2WolfHowlMgr_8h.html" target="_top" xlink:title=" ">
<polygon fill="#fff0f0" stroke="red" points="877,-162 777,-162 777,-132 877,-132 877,-162"/>
<text text-anchor="start" x="785" y="-150" font-family="Helvetica,sans-Serif" font-size="10.00">include/Z2AudioLib</text>
<text text-anchor="middle" x="827" y="-139" font-family="Helvetica,sans-Serif" font-size="10.00">/Z2WolfHowlMgr.h</text>
</a>
</g>
</g>
<!-- Node377&#45;&gt;Node398 -->
<g id="edge11" class="edge">
<title>Node377&#45;&gt;Node398</title>
<path fill="none" stroke="#63b8ff" d="M745.54,-192.18C763.35,-182.52 784.38,-171.12 800.61,-162.31"/>
<polygon fill="#63b8ff" stroke="#63b8ff" points="743.93,-189.07 736.81,-196.92 747.27,-195.22 743.93,-189.07"/>
</g>
<!-- Node399 -->
<g id="node13" class="node">
<title>Node399</title>
<g id="a_node13"><a xlink:href="JAISeMgr_8cpp.html" target="_top" xlink:title=" ">
<polygon fill="white" stroke="#666666" points="1243.5,-96 1132.5,-96 1132.5,-66 1243.5,-66 1243.5,-96"/>
<text text-anchor="start" x="1140.5" y="-84" font-family="Helvetica,sans-Serif" font-size="10.00">libs/JSystem/JAudio2</text>
<text text-anchor="middle" x="1188" y="-73" font-family="Helvetica,sans-Serif" font-size="10.00">/JAISeMgr.cpp</text>
</a>
</g>
</g>
<!-- Node377&#45;&gt;Node399 -->
<g id="edge12" class="edge">
<title>Node377&#45;&gt;Node399</title>
<path fill="none" stroke="#63b8ff" d="M656.77,-193.1C622.76,-178 588.41,-155.54 610,-132 618.78,-122.43 989.04,-95.79 1132.25,-85.83"/>
<polygon fill="#63b8ff" stroke="#63b8ff" points="655.28,-196.27 665.85,-196.95 658.01,-189.82 655.28,-196.27"/>
</g>
<!-- Node400 -->
<g id="node14" class="node">
<title>Node400</title>
<g id="a_node14"><a xlink:href="JAISound_8cpp.html" target="_top" xlink:title=" ">
<polygon fill="white" stroke="#666666" points="1601.5,-96 1490.5,-96 1490.5,-66 1601.5,-66 1601.5,-96"/>
<text text-anchor="start" x="1498.5" y="-84" font-family="Helvetica,sans-Serif" font-size="10.00">libs/JSystem/JAudio2</text>
<text text-anchor="middle" x="1546" y="-73" font-family="Helvetica,sans-Serif" font-size="10.00">/JAISound.cpp</text>
</a>
</g>
</g>
<!-- Node377&#45;&gt;Node400 -->
<g id="edge13" class="edge">
<title>Node377&#45;&gt;Node400</title>
<path fill="none" stroke="#63b8ff" d="M719.85,-187.5C729.56,-168.77 745.72,-144.17 768,-132 783.85,-123.35 1314.39,-94.35 1490.1,-84.96"/>
<polygon fill="#63b8ff" stroke="#63b8ff" points="716.77,-185.83 715.54,-196.35 723.06,-188.89 716.77,-185.83"/>
</g>
<!-- Node401 -->
<g id="node15" class="node">
<title>Node401</title>
<g id="a_node15"><a xlink:href="JAISoundHandles_8cpp.html" target="_top" xlink:title=" ">
<polygon fill="white" stroke="#666666" points="563,-162 447,-162 447,-132 563,-132 563,-162"/>
<text text-anchor="start" x="455" y="-150" font-family="Helvetica,sans-Serif" font-size="10.00">libs/JSystem/JAudio2</text>
<text text-anchor="middle" x="505" y="-139" font-family="Helvetica,sans-Serif" font-size="10.00">/JAISoundHandles.cpp</text>
</a>
</g>
</g>
<!-- Node377&#45;&gt;Node401 -->
<g id="edge14" class="edge">
<title>Node377&#45;&gt;Node401</title>
<path fill="none" stroke="#63b8ff" d="M652.01,-194.12C620.08,-184.1 580.79,-171.78 550.87,-162.39"/>
<polygon fill="#63b8ff" stroke="#63b8ff" points="650.93,-197.45 661.52,-197.1 653.03,-190.77 650.93,-197.45"/>
</g>
<!-- Node402&#45;&gt;Node3 -->
<g id="edge16" class="edge">
<title>Node402&#45;&gt;Node3</title>
<path fill="none" stroke="#63b8ff" d="M190.21,-120.97C192.98,-112.55 195.96,-103.45 198.35,-96.16"/>
<polygon fill="#63b8ff" stroke="#63b8ff" points="186.92,-119.77 187.13,-130.36 193.58,-121.95 186.92,-119.77"/>
</g>
<!-- Node403 -->
<g id="node17" class="node">
<title>Node403</title>
<g id="a_node17"><a xlink:href="JAIStreamMgr_8cpp.html" target="_top" xlink:title=" ">
<polygon fill="white" stroke="#666666" points="134.5,-96 23.5,-96 23.5,-66 134.5,-66 134.5,-96"/>
<text text-anchor="start" x="31.5" y="-84" font-family="Helvetica,sans-Serif" font-size="10.00">libs/JSystem/JAudio2</text>
<text text-anchor="middle" x="79" y="-73" font-family="Helvetica,sans-Serif" font-size="10.00">/JAIStreamMgr.cpp</text>
</a>
</g>
</g>
<!-- Node402&#45;&gt;Node403 -->
<g id="edge17" class="edge">
<title>Node402&#45;&gt;Node403</title>
<path fill="none" stroke="#63b8ff" d="M149.23,-125.64C133.87,-116.09 115.94,-104.95 102.04,-96.31"/>
<polygon fill="#63b8ff" stroke="#63b8ff" points="147.26,-128.53 157.6,-130.84 150.95,-122.59 147.26,-128.53"/>
</g>
<!-- Node404&#45;&gt;Node2 -->
<g id="edge19" class="edge">
<title>Node404&#45;&gt;Node2</title>
<path fill="none" stroke="#63b8ff" d="M1626.79,-211.28C1430.76,-208.91 888.11,-199.22 438,-162 422.71,-160.74 406.28,-158.92 390.88,-157.01"/>
<polygon fill="#63b8ff" stroke="#63b8ff" points="1626.54,-214.77 1636.58,-211.39 1626.62,-207.78 1626.54,-214.77"/>
</g>
<!-- Node404&#45;&gt;Node382 -->
<g id="edge39" class="edge">
<title>Node404&#45;&gt;Node382</title>
<path fill="none" stroke="#63b8ff" d="M1626.86,-210.59C1498.49,-207.29 1228.98,-196.52 1004,-162 1001.19,-161.57 998.32,-161.07 995.43,-160.53"/>
<polygon fill="#63b8ff" stroke="#63b8ff" points="1626.5,-214.08 1636.58,-210.83 1626.67,-207.08 1626.5,-214.08"/>
</g>
<!-- Node404&#45;&gt;Node388 -->
<g id="edge40" class="edge">
<title>Node404&#45;&gt;Node388</title>
<path fill="none" stroke="#63b8ff" d="M1626.72,-209.05C1515.69,-203.89 1301.74,-190.91 1122,-162 1119.19,-161.55 1116.32,-161.04 1113.43,-160.48"/>
<polygon fill="#63b8ff" stroke="#63b8ff" points="1626.45,-212.54 1636.6,-209.5 1626.77,-205.54 1626.45,-212.54"/>
</g>
<!-- Node404&#45;&gt;Node398 -->
<g id="edge41" class="edge">
<title>Node404&#45;&gt;Node398</title>
<path fill="none" stroke="#63b8ff" d="M1626.8,-211.69C1482.42,-210.16 1156.66,-202.1 886,-162 883.19,-161.58 880.31,-161.1 877.42,-160.57"/>
<polygon fill="#63b8ff" stroke="#63b8ff" points="1626.58,-215.19 1636.62,-211.79 1626.65,-208.19 1626.58,-215.19"/>
</g>
<!-- Node404&#45;&gt;Node402 -->
<g id="edge24" class="edge">
<title>Node404&#45;&gt;Node402</title>
<path fill="none" stroke="#63b8ff" d="M1626.96,-210.97C1369.63,-207.2 523.99,-192.72 254,-162 251.34,-161.7 248.64,-161.35 245.91,-160.97"/>
<polygon fill="#63b8ff" stroke="#63b8ff" points="1626.84,-214.47 1636.89,-211.12 1626.94,-207.47 1626.84,-214.47"/>
</g>
<!-- Node405 -->
<g id="node19" class="node">
<title>Node405</title>
<g id="a_node19"><a xlink:href="JAISoundInfo_8h.html" target="_top" xlink:title=" ">
<polygon fill="#fff0f0" stroke="red" points="1403.5,-162 1276.5,-162 1276.5,-132 1403.5,-132 1403.5,-162"/>
<text text-anchor="start" x="1284.5" y="-150" font-family="Helvetica,sans-Serif" font-size="10.00">include/JSystem/JAudio2</text>
<text text-anchor="middle" x="1340" y="-139" font-family="Helvetica,sans-Serif" font-size="10.00">/JAISoundInfo.h</text>
</a>
</g>
</g>
<!-- Node404&#45;&gt;Node405 -->
<g id="edge20" class="edge">
<title>Node404&#45;&gt;Node405</title>
<path fill="none" stroke="#63b8ff" d="M1626.99,-199.52C1568.39,-189.66 1484.94,-175.38 1412,-162 1409.37,-161.52 1406.69,-161.02 1403.98,-160.51"/>
<polygon fill="#63b8ff" stroke="#63b8ff" points="1626.07,-202.91 1636.51,-201.12 1627.23,-196.01 1626.07,-202.91"/>
</g>
<!-- Node410 -->
<g id="node20" class="node">
<title>Node410</title>
<g id="a_node20"><a xlink:href="JAISoundStarter_8h.html" target="_top" xlink:title=" ">
<polygon fill="#fff0f0" stroke="red" points="1258.5,-162 1131.5,-162 1131.5,-132 1258.5,-132 1258.5,-162"/>
<text text-anchor="start" x="1139.5" y="-150" font-family="Helvetica,sans-Serif" font-size="10.00">include/JSystem/JAudio2</text>
<text text-anchor="middle" x="1195" y="-139" font-family="Helvetica,sans-Serif" font-size="10.00">/JAISoundStarter.h</text>
</a>
</g>
</g>
<!-- Node404&#45;&gt;Node410 -->
<g id="edge22" class="edge">
<title>Node404&#45;&gt;Node410</title>
<path fill="none" stroke="#63b8ff" d="M1626.7,-205.13C1539.78,-196.8 1392.64,-181.41 1267,-162 1264.36,-161.59 1261.66,-161.16 1258.94,-160.7"/>
<polygon fill="#63b8ff" stroke="#63b8ff" points="1626.24,-208.61 1636.53,-206.07 1626.9,-201.64 1626.24,-208.61"/>
</g>
<!-- Node414 -->
<g id="node21" class="node">
<title>Node414</title>
<g id="a_node21"><a xlink:href="JASAudioThread_8h.html" target="_top" xlink:title=" ">
<polygon fill="#fff0f0" stroke="red" points="1548.5,-162 1421.5,-162 1421.5,-132 1548.5,-132 1548.5,-162"/>
<text text-anchor="start" x="1429.5" y="-150" font-family="Helvetica,sans-Serif" font-size="10.00">include/JSystem/JAudio2</text>
<text text-anchor="middle" x="1485" y="-139" font-family="Helvetica,sans-Serif" font-size="10.00">/JASAudioThread.h</text>
</a>
</g>
</g>
<!-- Node404&#45;&gt;Node414 -->
<g id="edge25" class="edge">
<title>Node404&#45;&gt;Node414</title>
<path fill="none" stroke="#63b8ff" d="M1642.26,-194.38C1608.14,-184.32 1565.9,-171.86 1533.79,-162.39"/>
<polygon fill="#63b8ff" stroke="#63b8ff" points="1641,-197.66 1651.58,-197.13 1642.98,-190.94 1641,-197.66"/>
</g>
<!-- Node419 -->
<g id="node22" class="node">
<title>Node419</title>
<g id="a_node22"><a xlink:href="JASBankTable_8h.html" target="_top" xlink:title=" ">
<polygon fill="#fff0f0" stroke="red" points="1693.5,-162 1566.5,-162 1566.5,-132 1693.5,-132 1693.5,-162"/>
<text text-anchor="start" x="1574.5" y="-150" font-family="Helvetica,sans-Serif" font-size="10.00">include/JSystem/JAudio2</text>
<text text-anchor="middle" x="1630" y="-139" font-family="Helvetica,sans-Serif" font-size="10.00">/JASBankTable.h</text>
</a>
</g>
</g>
<!-- Node404&#45;&gt;Node419 -->
<g id="edge26" class="edge">
<title>Node404&#45;&gt;Node419</title>
<path fill="none" stroke="#63b8ff" d="M1677.72,-190.42C1667.33,-181.18 1655.48,-170.65 1646.18,-162.39"/>
<polygon fill="#63b8ff" stroke="#63b8ff" points="1675.09,-192.76 1684.89,-196.79 1679.74,-187.53 1675.09,-192.76"/>
</g>
<!-- Node421 -->
<g id="node23" class="node">
<title>Node421</title>
<g id="a_node23"><a xlink:href="JASTrack_8h.html" target="_top" xlink:title=" ">
<polygon fill="#fff0f0" stroke="red" points="1838.5,-162 1711.5,-162 1711.5,-132 1838.5,-132 1838.5,-162"/>
<text text-anchor="start" x="1719.5" y="-150" font-family="Helvetica,sans-Serif" font-size="10.00">include/JSystem/JAudio2</text>
<text text-anchor="middle" x="1775" y="-139" font-family="Helvetica,sans-Serif" font-size="10.00">/JASTrack.h</text>
</a>
</g>
</g>
<!-- Node404&#45;&gt;Node421 -->
<g id="edge27" class="edge">
<title>Node404&#45;&gt;Node421</title>
<path fill="none" stroke="#63b8ff" d="M1726.61,-190.42C1737.15,-181.18 1749.17,-170.65 1758.59,-162.39"/>
<polygon fill="#63b8ff" stroke="#63b8ff" points="1724.55,-187.57 1719.34,-196.8 1729.17,-192.84 1724.55,-187.57"/>
</g>
<!-- Node431 -->
<g id="node24" class="node">
<title>Node431</title>
<g id="a_node24"><a xlink:href="JAUBankTable_8h.html" target="_top" xlink:title=" ">
<polygon fill="#fff0f0" stroke="red" points="2128.5,-162 2001.5,-162 2001.5,-132 2128.5,-132 2128.5,-162"/>
<text text-anchor="start" x="2009.5" y="-150" font-family="Helvetica,sans-Serif" font-size="10.00">include/JSystem/JAudio2</text>
<text text-anchor="middle" x="2065" y="-139" font-family="Helvetica,sans-Serif" font-size="10.00">/JAUBankTable.h</text>
</a>
</g>
</g>
<!-- Node404&#45;&gt;Node431 -->
<g id="edge29" class="edge">
<title>Node404&#45;&gt;Node431</title>
<path fill="none" stroke="#63b8ff" d="M1777,-199.47C1835.59,-189.58 1919.04,-175.28 1992,-162 1995.05,-161.45 1998.16,-160.87 2001.31,-160.29"/>
<polygon fill="#63b8ff" stroke="#63b8ff" points="1776.76,-195.96 1767.48,-201.07 1777.93,-202.86 1776.76,-195.96"/>
</g>
<!-- Node432 -->
<g id="node25" class="node">
<title>Node432</title>
<g id="a_node25"><a xlink:href="JAUSectionHeap_8h.html" target="_top" xlink:title=" ">
<polygon fill="#fff0f0" stroke="red" points="2525.5,-96 2398.5,-96 2398.5,-66 2525.5,-66 2525.5,-96"/>
<text text-anchor="start" x="2406.5" y="-84" font-family="Helvetica,sans-Serif" font-size="10.00">include/JSystem/JAudio2</text>
<text text-anchor="middle" x="2462" y="-73" font-family="Helvetica,sans-Serif" font-size="10.00">/JAUSectionHeap.h</text>
</a>
</g>
</g>
<!-- Node404&#45;&gt;Node432 -->
<g id="edge32" class="edge">
<title>Node404&#45;&gt;Node432</title>
<path fill="none" stroke="#63b8ff" d="M1777.41,-209.99C1970.21,-204.48 2467.76,-187.82 2492,-162 2509.36,-143.51 2490.14,-114.02 2475.47,-96.49"/>
<polygon fill="#63b8ff" stroke="#63b8ff" points="1777.39,-206.49 1767.49,-210.27 1777.59,-213.49 1777.39,-206.49"/>
</g>
<!-- Node434 -->
<g id="node27" class="node">
<title>Node434</title>
<g id="a_node27"><a xlink:href="JAUSoundInfo_8h.html" target="_top" xlink:title=" ">
<polygon fill="#fff0f0" stroke="red" points="1983.5,-162 1856.5,-162 1856.5,-132 1983.5,-132 1983.5,-162"/>
<text text-anchor="start" x="1864.5" y="-150" font-family="Helvetica,sans-Serif" font-size="10.00">include/JSystem/JAudio2</text>
<text text-anchor="middle" x="1920" y="-139" font-family="Helvetica,sans-Serif" font-size="10.00">/JAUSoundInfo.h</text>
</a>
</g>
</g>
<!-- Node404&#45;&gt;Node434 -->
<g id="edge33" class="edge">
<title>Node404&#45;&gt;Node434</title>
<path fill="none" stroke="#63b8ff" d="M1762.01,-194.38C1796.29,-184.32 1838.73,-171.86 1870.98,-162.39"/>
<polygon fill="#63b8ff" stroke="#63b8ff" points="1761.26,-190.96 1752.65,-197.13 1763.23,-197.67 1761.26,-190.96"/>
</g>
<!-- Node435 -->
<g id="node28" class="node">
<title>Node435</title>
<g id="a_node28"><a xlink:href="JAUSoundTable_8h.html" target="_top" xlink:title=" ">
<polygon fill="#fff0f0" stroke="red" points="2666.5,-162 2539.5,-162 2539.5,-132 2666.5,-132 2666.5,-162"/>
<text text-anchor="start" x="2547.5" y="-150" font-family="Helvetica,sans-Serif" font-size="10.00">include/JSystem/JAudio2</text>
<text text-anchor="middle" x="2603" y="-139" font-family="Helvetica,sans-Serif" font-size="10.00">/JAUSoundTable.h</text>
</a>
</g>
</g>
<!-- Node404&#45;&gt;Node435 -->
<g id="edge34" class="edge">
<title>Node404&#45;&gt;Node435</title>
<path fill="none" stroke="#63b8ff" d="M1777.38,-210.37C1922.55,-206.57 2250.83,-194.82 2525,-162 2529.64,-161.44 2534.43,-160.79 2539.24,-160.07"/>
<polygon fill="#63b8ff" stroke="#63b8ff" points="1777.41,-206.86 1767.51,-210.62 1777.59,-213.86 1777.41,-206.86"/>
</g>
<!-- Node437 -->
<g id="node30" class="node">
<title>Node437</title>
<g id="a_node30"><a xlink:href="Z2Audience_8h.html" target="_top" xlink:title=" ">
<polygon fill="#fff0f0" stroke="red" points="2247,-162 2147,-162 2147,-132 2247,-132 2247,-162"/>
<text text-anchor="start" x="2155" y="-150" font-family="Helvetica,sans-Serif" font-size="10.00">include/Z2AudioLib</text>
<text text-anchor="middle" x="2197" y="-139" font-family="Helvetica,sans-Serif" font-size="10.00">/Z2Audience.h</text>
</a>
</g>
</g>
<!-- Node404&#45;&gt;Node437 -->
<g id="edge36" class="edge">
<title>Node404&#45;&gt;Node437</title>
<path fill="none" stroke="#63b8ff" d="M1777.07,-206.01C1864.07,-198.46 2011.56,-183.77 2137,-162 2140.16,-161.45 2143.41,-160.84 2146.67,-160.19"/>
<polygon fill="#63b8ff" stroke="#63b8ff" points="1776.89,-202.51 1767.23,-206.85 1777.49,-209.48 1776.89,-202.51"/>
</g>
<!-- Node438 -->
<g id="node31" class="node">
<title>Node438</title>
<g id="a_node31"><a xlink:href="Z2FxLineMgr_8h.html" target="_top" xlink:title=" ">
<polygon fill="#fff0f0" stroke="red" points="2365,-162 2265,-162 2265,-132 2365,-132 2365,-162"/>
<text text-anchor="start" x="2273" y="-150" font-family="Helvetica,sans-Serif" font-size="10.00">include/Z2AudioLib</text>
<text text-anchor="middle" x="2315" y="-139" font-family="Helvetica,sans-Serif" font-size="10.00">/Z2FxLineMgr.h</text>
</a>
</g>
</g>
<!-- Node404&#45;&gt;Node438 -->
<g id="edge37" class="edge">
<title>Node404&#45;&gt;Node438</title>
<path fill="none" stroke="#63b8ff" d="M1777.24,-208.63C1884.2,-203.05 2086.1,-189.68 2256,-162 2258.81,-161.54 2261.68,-161.03 2264.57,-160.47"/>
<polygon fill="#63b8ff" stroke="#63b8ff" points="1777.25,-205.12 1767.44,-209.13 1777.61,-212.11 1777.25,-205.12"/>
</g>
<!-- Node440 -->
<g id="node32" class="node">
<title>Node440</title>
<g id="a_node32"><a xlink:href="Z2SceneMgr_8h.html" target="_top" xlink:title=" ">
<polygon fill="#fff0f0" stroke="red" points="2483,-162 2383,-162 2383,-132 2483,-132 2483,-162"/>
<text text-anchor="start" x="2391" y="-150" font-family="Helvetica,sans-Serif" font-size="10.00">include/Z2AudioLib</text>
<text text-anchor="middle" x="2433" y="-139" font-family="Helvetica,sans-Serif" font-size="10.00">/Z2SceneMgr.h</text>
</a>
</g>
</g>
<!-- Node404&#45;&gt;Node440 -->
<g id="edge38" class="edge">
<title>Node404&#45;&gt;Node440</title>
<path fill="none" stroke="#63b8ff" d="M1777.13,-210.29C1901.81,-206.6 2159.03,-195.29 2374,-162 2376.81,-161.57 2379.68,-161.07 2382.57,-160.52"/>
<polygon fill="#63b8ff" stroke="#63b8ff" points="1777.26,-206.79 1767.36,-210.58 1777.46,-213.79 1777.26,-206.79"/>
</g>
<!-- Node405&#45;&gt;Node399 -->
<g id="edge21" class="edge">
<title>Node405&#45;&gt;Node399</title>
<path fill="none" stroke="#63b8ff" d="M1295.53,-127.27C1272.14,-117.43 1243.92,-105.55 1222.26,-96.43"/>
<polygon fill="#63b8ff" stroke="#63b8ff" points="1293.92,-130.39 1304.49,-131.05 1296.64,-123.94 1293.92,-130.39"/>
</g>
<!-- Node410&#45;&gt;Node378 -->
<g id="edge23" class="edge">
<title>Node410&#45;&gt;Node378</title>
<path fill="none" stroke="#63b8ff" d="M1120.19,-129.99C1071.84,-119.64 1009.47,-106.29 962.79,-96.3"/>
<polygon fill="#63b8ff" stroke="#63b8ff" points="1119.23,-133.36 1129.74,-132.03 1120.7,-126.52 1119.23,-133.36"/>
</g>
<!-- Node421&#45;&gt;Node400 -->
<g id="edge28" class="edge">
<title>Node421&#45;&gt;Node400</title>
<path fill="none" stroke="#63b8ff" d="M1712.42,-128.51C1676.34,-118.43 1631.52,-105.9 1597.49,-96.39"/>
<polygon fill="#63b8ff" stroke="#63b8ff" points="1711.29,-131.83 1721.86,-131.15 1713.18,-125.09 1711.29,-131.83"/>
</g>
<!-- Node431&#45;&gt;Node432 -->
<g id="edge30" class="edge">
<title>Node431&#45;&gt;Node432</title>
<path fill="none" stroke="#63b8ff" d="M2139.77,-131.73C2235.87,-115.25 2335.27,-100.33 2398.26,-91.14"/>
<polygon fill="#63b8ff" stroke="#63b8ff" points="2139.43,-128.24 2130.17,-133.39 2140.62,-135.14 2139.43,-128.24"/>
</g>
<!-- Node432&#45;&gt;Node425 -->
<g id="edge31" class="edge">
<title>Node432&#45;&gt;Node425</title>
<path fill="none" stroke="#63b8ff" d="M2502.66,-60.72C2523.28,-50.95 2547.89,-39.28 2566.8,-30.31"/>
<polygon fill="#63b8ff" stroke="#63b8ff" points="2501.2,-57.54 2493.66,-64.99 2504.2,-63.87 2501.2,-57.54"/>
</g>
<!-- Node435&#45;&gt;Node408 -->
<g id="edge35" class="edge">
<title>Node435&#45;&gt;Node408</title>
<path fill="none" stroke="#63b8ff" d="M2611.23,-120.93C2614.71,-110.31 2618.55,-98.61 2621.1,-90.84"/>
<polygon fill="#63b8ff" stroke="#63b8ff" points="2607.92,-119.77 2608.13,-130.36 2614.58,-121.95 2607.92,-119.77"/>
</g>
</g>
</svg>
