<?xml version="1.0" encoding="UTF-8" standalone="no"?>
<!DOCTYPE svg PUBLIC "-//W3C//DTD SVG 1.1//EN"
 "http://www.w3.org/Graphics/SVG/1.1/DTD/svg11.dtd">
<!-- Generated by graphviz version 7.0.5 (20221223.1930)
 -->
<!-- Title: include/JSystem/JUtility/JUTFader.h Pages: 1 -->
<svg width="2283pt" height="302pt"
 viewBox="0.00 0.00 2283.00 302.00" xmlns="http://www.w3.org/2000/svg" xmlns:xlink="http://www.w3.org/1999/xlink">
<g id="graph0" class="graph" transform="scale(1 1) rotate(0) translate(4 298)">
<title>include/JSystem/JUtility/JUTFader.h</title>
<!-- Node1 -->
<g id="node1" class="node">
<title>Node1</title>
<g id="a_node1"><a xlink:title=" ">
<polygon fill="#999999" stroke="#666666" points="1319.5,-294 1197.5,-294 1197.5,-264 1319.5,-264 1319.5,-294"/>
<text text-anchor="start" x="1205.5" y="-282" font-family="Helvetica,sans-Serif" font-size="10.00">include/JSystem/JUtility</text>
<text text-anchor="middle" x="1258.5" y="-271" font-family="Helvetica,sans-Serif" font-size="10.00">/JUTFader.h</text>
</a>
</g>
</g>
<!-- Node2 -->
<g id="node2" class="node">
<title>Node2</title>
<g id="a_node2"><a xlink:href="JFWDisplay_8h.html" target="_top" xlink:title=" ">
<polygon fill="white" stroke="#666666" points="1259.5,-228 1113.5,-228 1113.5,-198 1259.5,-198 1259.5,-228"/>
<text text-anchor="start" x="1121.5" y="-216" font-family="Helvetica,sans-Serif" font-size="10.00">include/JSystem/JFramework</text>
<text text-anchor="middle" x="1186.5" y="-205" font-family="Helvetica,sans-Serif" font-size="10.00">/JFWDisplay.h</text>
</a>
</g>
</g>
<!-- Node1&#45;&gt;Node2 -->
<g id="edge1" class="edge">
<title>Node1&#45;&gt;Node2</title>
<path fill="none" stroke="#63b8ff" d="M1234.22,-256.42C1223.83,-247.18 1211.98,-236.65 1202.68,-228.39"/>
<polygon fill="#63b8ff" stroke="#63b8ff" points="1231.59,-258.76 1241.39,-262.79 1236.24,-253.53 1231.59,-258.76"/>
</g>
<!-- Node23 -->
<g id="node23" class="node">
<title>Node23</title>
<g id="a_node23"><a xlink:href="JUTFader_8cpp.html" target="_top" xlink:title=" ">
<polygon fill="white" stroke="#666666" points="1383.5,-228 1277.5,-228 1277.5,-198 1383.5,-198 1383.5,-228"/>
<text text-anchor="start" x="1285.5" y="-216" font-family="Helvetica,sans-Serif" font-size="10.00">libs/JSystem/JUtility</text>
<text text-anchor="middle" x="1330.5" y="-205" font-family="Helvetica,sans-Serif" font-size="10.00">/JUTFader.cpp</text>
</a>
</g>
</g>
<!-- Node1&#45;&gt;Node23 -->
<g id="edge22" class="edge">
<title>Node1&#45;&gt;Node23</title>
<path fill="none" stroke="#63b8ff" d="M1282.78,-256.42C1293.17,-247.18 1305.02,-236.65 1314.32,-228.39"/>
<polygon fill="#63b8ff" stroke="#63b8ff" points="1280.76,-253.53 1275.61,-262.79 1285.41,-258.76 1280.76,-253.53"/>
</g>
<!-- Node3 -->
<g id="node3" class="node">
<title>Node3</title>
<g id="a_node3"><a xlink:href="m__Do__graphic_8h.html" target="_top" xlink:title=" ">
<polygon fill="white" stroke="#666666" points="1182,-156.5 1033,-156.5 1033,-137.5 1182,-137.5 1182,-156.5"/>
<text text-anchor="middle" x="1107.5" y="-144.5" font-family="Helvetica,sans-Serif" font-size="10.00">include/m_Do/m_Do_graphic.h</text>
</a>
</g>
</g>
<!-- Node2&#45;&gt;Node3 -->
<g id="edge2" class="edge">
<title>Node2&#45;&gt;Node3</title>
<path fill="none" stroke="#63b8ff" d="M1160.09,-190.6C1145.88,-179.1 1129.13,-165.52 1118.42,-156.84"/>
<polygon fill="#63b8ff" stroke="#63b8ff" points="1157.82,-193.27 1167.79,-196.84 1162.22,-187.83 1157.82,-193.27"/>
</g>
<!-- Node22 -->
<g id="node22" class="node">
<title>Node22</title>
<g id="a_node22"><a xlink:href="JFWDisplay_8cpp.html" target="_top" xlink:title=" ">
<polygon fill="white" stroke="#666666" points="1330.5,-162 1200.5,-162 1200.5,-132 1330.5,-132 1330.5,-162"/>
<text text-anchor="start" x="1208.5" y="-150" font-family="Helvetica,sans-Serif" font-size="10.00">libs/JSystem/JFramework</text>
<text text-anchor="middle" x="1265.5" y="-139" font-family="Helvetica,sans-Serif" font-size="10.00">/JFWDisplay.cpp</text>
</a>
</g>
</g>
<!-- Node2&#45;&gt;Node22 -->
<g id="edge21" class="edge">
<title>Node2&#45;&gt;Node22</title>
<path fill="none" stroke="#63b8ff" d="M1212.79,-190.7C1224.28,-181.4 1237.44,-170.73 1247.74,-162.39"/>
<polygon fill="#63b8ff" stroke="#63b8ff" points="1210.78,-187.83 1205.21,-196.84 1215.18,-193.27 1210.78,-187.83"/>
</g>
<!-- Node4 -->
<g id="node4" class="node">
<title>Node4</title>
<g id="a_node4"><a xlink:href="d__menu__window_8h.html" target="_top" xlink:title=" ">
<polygon fill="white" stroke="#666666" points="214.5,-96 94.5,-96 94.5,-66 214.5,-66 214.5,-96"/>
<text text-anchor="start" x="102.5" y="-84" font-family="Helvetica,sans-Serif" font-size="10.00">include/d/menu/d_menu</text>
<text text-anchor="middle" x="154.5" y="-73" font-family="Helvetica,sans-Serif" font-size="10.00">_window.h</text>
</a>
</g>
</g>
<!-- Node3&#45;&gt;Node4 -->
<g id="edge3" class="edge">
<title>Node3&#45;&gt;Node4</title>
<path fill="none" stroke="#63b8ff" d="M1021.58,-145.23C863.15,-142.91 514.56,-133.56 223.5,-96 220.59,-95.62 217.62,-95.2 214.63,-94.73"/>
<polygon fill="#63b8ff" stroke="#63b8ff" points="1021.1,-148.72 1031.14,-145.37 1021.19,-141.73 1021.1,-148.72"/>
</g>
<!-- Node7 -->
<g id="node7" class="node">
<title>Node7</title>
<g id="a_node7"><a xlink:href="d__com__inf__game_8cpp.html" target="_top" xlink:title=" ">
<polygon fill="white" stroke="#666666" points="340.5,-96 232.5,-96 232.5,-66 340.5,-66 340.5,-96"/>
<text text-anchor="start" x="240.5" y="-84" font-family="Helvetica,sans-Serif" font-size="10.00">src/d/com/d_com_inf</text>
<text text-anchor="middle" x="286.5" y="-73" font-family="Helvetica,sans-Serif" font-size="10.00">_game.cpp</text>
</a>
</g>
</g>
<!-- Node3&#45;&gt;Node7 -->
<g id="edge6" class="edge">
<title>Node3&#45;&gt;Node7</title>
<path fill="none" stroke="#63b8ff" d="M1021.47,-144.6C880.43,-141.34 591.48,-130.66 349.5,-96 346.62,-95.59 343.67,-95.11 340.7,-94.6"/>
<polygon fill="#63b8ff" stroke="#63b8ff" points="1021.01,-148.09 1031.09,-144.81 1021.17,-141.09 1021.01,-148.09"/>
</g>
<!-- Node8 -->
<g id="node8" class="node">
<title>Node8</title>
<g id="a_node8"><a xlink:href="d__camera_8cpp.html" target="_top" xlink:title=" ">
<polygon fill="white" stroke="#666666" points="460.5,-90.5 358.5,-90.5 358.5,-71.5 460.5,-71.5 460.5,-90.5"/>
<text text-anchor="middle" x="409.5" y="-78.5" font-family="Helvetica,sans-Serif" font-size="10.00">src/d/d_camera.cpp</text>
</a>
</g>
</g>
<!-- Node3&#45;&gt;Node8 -->
<g id="edge7" class="edge">
<title>Node3&#45;&gt;Node8</title>
<path fill="none" stroke="#63b8ff" d="M1021.73,-143.39C898.79,-138.72 665.67,-126.4 469.5,-96 461.15,-94.71 452.24,-92.88 443.91,-90.97"/>
<polygon fill="#63b8ff" stroke="#63b8ff" points="1021.28,-146.88 1031.4,-143.75 1021.54,-139.88 1021.28,-146.88"/>
</g>
<!-- Node9 -->
<g id="node9" class="node">
<title>Node9</title>
<g id="a_node9"><a xlink:href="d__demo_8cpp.html" target="_top" xlink:title=" ">
<polygon fill="white" stroke="#666666" points="572.5,-90.5 478.5,-90.5 478.5,-71.5 572.5,-71.5 572.5,-90.5"/>
<text text-anchor="middle" x="525.5" y="-78.5" font-family="Helvetica,sans-Serif" font-size="10.00">src/d/d_demo.cpp</text>
</a>
</g>
</g>
<!-- Node3&#45;&gt;Node9 -->
<g id="edge8" class="edge">
<title>Node3&#45;&gt;Node9</title>
<path fill="none" stroke="#63b8ff" d="M1021.12,-141.78C916.47,-135.74 735.09,-122.35 581.5,-96 573.8,-94.68 565.59,-92.86 557.9,-90.98"/>
<polygon fill="#63b8ff" stroke="#63b8ff" points="1020.86,-145.27 1031.05,-142.34 1021.26,-138.28 1020.86,-145.27"/>
</g>
<!-- Node10 -->
<g id="node10" class="node">
<title>Node10</title>
<g id="a_node10"><a xlink:href="d__drawlist_8cpp.html" target="_top" xlink:title=" ">
<polygon fill="white" stroke="#666666" points="694.5,-90.5 590.5,-90.5 590.5,-71.5 694.5,-71.5 694.5,-90.5"/>
<text text-anchor="middle" x="642.5" y="-78.5" font-family="Helvetica,sans-Serif" font-size="10.00">src/d/d_drawlist.cpp</text>
</a>
</g>
</g>
<!-- Node3&#45;&gt;Node10 -->
<g id="edge9" class="edge">
<title>Node3&#45;&gt;Node10</title>
<path fill="none" stroke="#63b8ff" d="M1021.28,-137.79C939.43,-129.41 813.12,-114.95 704.5,-96 696.35,-94.58 687.65,-92.79 679.43,-90.97"/>
<polygon fill="#63b8ff" stroke="#63b8ff" points="1020.72,-141.25 1031.02,-138.78 1021.43,-134.29 1020.72,-141.25"/>
</g>
<!-- Node11 -->
<g id="node11" class="node">
<title>Node11</title>
<g id="a_node11"><a xlink:href="d__gameover_8cpp.html" target="_top" xlink:title=" ">
<polygon fill="white" stroke="#666666" points="826,-90.5 713,-90.5 713,-71.5 826,-71.5 826,-90.5"/>
<text text-anchor="middle" x="769.5" y="-78.5" font-family="Helvetica,sans-Serif" font-size="10.00">src/d/d_gameover.cpp</text>
</a>
</g>
</g>
<!-- Node3&#45;&gt;Node11 -->
<g id="edge10" class="edge">
<title>Node3&#45;&gt;Node11</title>
<path fill="none" stroke="#63b8ff" d="M1045.29,-135.06C990.1,-125.24 907.32,-110.22 835.5,-96 827.57,-94.43 819.12,-92.69 811.01,-90.99"/>
<polygon fill="#63b8ff" stroke="#63b8ff" points="1044.34,-138.45 1054.8,-136.75 1045.56,-131.55 1044.34,-138.45"/>
</g>
<!-- Node12 -->
<g id="node12" class="node">
<title>Node12</title>
<g id="a_node12"><a xlink:href="d__event_8cpp.html" target="_top" xlink:title=" ">
<polygon fill="white" stroke="#666666" points="965,-90.5 844,-90.5 844,-71.5 965,-71.5 965,-90.5"/>
<text text-anchor="middle" x="904.5" y="-78.5" font-family="Helvetica,sans-Serif" font-size="10.00">src/d/event/d_event.cpp</text>
</a>
</g>
</g>
<!-- Node3&#45;&gt;Node12 -->
<g id="edge11" class="edge">
<title>Node3&#45;&gt;Node12</title>
<path fill="none" stroke="#63b8ff" d="M1068.41,-133.68C1028.69,-121.15 968.13,-102.06 932.81,-90.93"/>
<polygon fill="#63b8ff" stroke="#63b8ff" points="1067.24,-136.98 1077.83,-136.65 1069.35,-130.3 1067.24,-136.98"/>
</g>
<!-- Node13 -->
<g id="node13" class="node">
<title>Node13</title>
<g id="a_node13"><a xlink:href="d__event__data_8cpp.html" target="_top" xlink:title=" ">
<polygon fill="white" stroke="#666666" points="1086,-96 983,-96 983,-66 1086,-66 1086,-96"/>
<text text-anchor="start" x="991" y="-84" font-family="Helvetica,sans-Serif" font-size="10.00">src/d/event/d_event</text>
<text text-anchor="middle" x="1034.5" y="-73" font-family="Helvetica,sans-Serif" font-size="10.00">_data.cpp</text>
</a>
</g>
</g>
<!-- Node3&#45;&gt;Node13 -->
<g id="edge12" class="edge">
<title>Node3&#45;&gt;Node13</title>
<path fill="none" stroke="#63b8ff" d="M1088.81,-129.62C1077.14,-119.38 1062.25,-106.33 1051.01,-96.48"/>
<polygon fill="#63b8ff" stroke="#63b8ff" points="1086.38,-132.14 1096.21,-136.1 1091,-126.88 1086.38,-132.14"/>
</g>
<!-- Node14 -->
<g id="node14" class="node">
<title>Node14</title>
<g id="a_node14"><a xlink:href="d__menu__fishing_8cpp.html" target="_top" xlink:title=" ">
<polygon fill="white" stroke="#666666" points="1258.5,-90.5 1104.5,-90.5 1104.5,-71.5 1258.5,-71.5 1258.5,-90.5"/>
<text text-anchor="middle" x="1181.5" y="-78.5" font-family="Helvetica,sans-Serif" font-size="10.00">src/d/menu/d_menu_fishing.cpp</text>
</a>
</g>
</g>
<!-- Node3&#45;&gt;Node14 -->
<g id="edge13" class="edge">
<title>Node3&#45;&gt;Node14</title>
<path fill="none" stroke="#63b8ff" d="M1126.36,-129.69C1140.65,-117.33 1159.74,-100.82 1171.3,-90.82"/>
<polygon fill="#63b8ff" stroke="#63b8ff" points="1124.21,-126.92 1118.93,-136.11 1128.79,-132.22 1124.21,-126.92"/>
</g>
<!-- Node15 -->
<g id="node15" class="node">
<title>Node15</title>
<g id="a_node15"><a xlink:href="d__menu__save_8cpp.html" target="_top" xlink:title=" ">
<polygon fill="white" stroke="#666666" points="1424,-90.5 1277,-90.5 1277,-71.5 1424,-71.5 1424,-90.5"/>
<text text-anchor="middle" x="1350.5" y="-78.5" font-family="Helvetica,sans-Serif" font-size="10.00">src/d/menu/d_menu_save.cpp</text>
</a>
</g>
</g>
<!-- Node3&#45;&gt;Node15 -->
<g id="edge14" class="edge">
<title>Node3&#45;&gt;Node15</title>
<path fill="none" stroke="#63b8ff" d="M1152.44,-134.16C1199.96,-121.65 1273.87,-102.18 1316.69,-90.91"/>
<polygon fill="#63b8ff" stroke="#63b8ff" points="1151.79,-130.72 1143.01,-136.65 1153.57,-137.49 1151.79,-130.72"/>
</g>
<!-- Node16 -->
<g id="node16" class="node">
<title>Node16</title>
<g id="a_node16"><a xlink:href="d__pane__class_8cpp.html" target="_top" xlink:title=" ">
<polygon fill="white" stroke="#666666" points="1585,-90.5 1442,-90.5 1442,-71.5 1585,-71.5 1585,-90.5"/>
<text text-anchor="middle" x="1513.5" y="-78.5" font-family="Helvetica,sans-Serif" font-size="10.00">src/d/pane/d_pane_class.cpp</text>
</a>
</g>
</g>
<!-- Node3&#45;&gt;Node16 -->
<g id="edge15" class="edge">
<title>Node3&#45;&gt;Node16</title>
<path fill="none" stroke="#63b8ff" d="M1171.6,-135.2C1178.31,-134.1 1185.04,-133.02 1191.5,-132 1298.91,-115.06 1326.16,-113.37 1433.5,-96 1443.24,-94.42 1453.64,-92.66 1463.6,-90.93"/>
<polygon fill="#63b8ff" stroke="#63b8ff" points="1171.15,-131.73 1161.85,-136.8 1172.28,-138.63 1171.15,-131.73"/>
</g>
<!-- Node17 -->
<g id="node17" class="node">
<title>Node17</title>
<g id="a_node17"><a xlink:href="d__s__logo_8cpp.html" target="_top" xlink:title=" ">
<polygon fill="white" stroke="#666666" points="1710,-90.5 1603,-90.5 1603,-71.5 1710,-71.5 1710,-90.5"/>
<text text-anchor="middle" x="1656.5" y="-78.5" font-family="Helvetica,sans-Serif" font-size="10.00">src/d/s/d_s_logo.cpp</text>
</a>
</g>
</g>
<!-- Node3&#45;&gt;Node17 -->
<g id="edge16" class="edge">
<title>Node3&#45;&gt;Node17</title>
<path fill="none" stroke="#63b8ff" d="M1168.72,-135.24C1176.37,-134.06 1184.11,-132.94 1191.5,-132 1369.87,-109.2 1416.85,-123.87 1594.5,-96 1603,-94.67 1612.08,-92.85 1620.59,-90.96"/>
<polygon fill="#63b8ff" stroke="#63b8ff" points="1168.42,-131.74 1159.1,-136.77 1169.52,-138.66 1168.42,-131.74"/>
</g>
<!-- Node18 -->
<g id="node18" class="node">
<title>Node18</title>
<g id="a_node18"><a xlink:href="d__s__name_8cpp.html" target="_top" xlink:title=" ">
<polygon fill="white" stroke="#666666" points="1841,-90.5 1728,-90.5 1728,-71.5 1841,-71.5 1841,-90.5"/>
<text text-anchor="middle" x="1784.5" y="-78.5" font-family="Helvetica,sans-Serif" font-size="10.00">src/d/s/d_s_name.cpp</text>
</a>
</g>
</g>
<!-- Node3&#45;&gt;Node18 -->
<g id="edge17" class="edge">
<title>Node3&#45;&gt;Node18</title>
<path fill="none" stroke="#63b8ff" d="M1167.5,-135.27C1175.55,-134.05 1183.72,-132.91 1191.5,-132 1425.11,-104.63 1486.59,-128.85 1719.5,-96 1728.53,-94.73 1738.18,-92.91 1747.2,-91"/>
<polygon fill="#63b8ff" stroke="#63b8ff" points="1167.07,-131.8 1157.74,-136.82 1168.16,-138.71 1167.07,-131.8"/>
</g>
<!-- Node19 -->
<g id="node19" class="node">
<title>Node19</title>
<g id="a_node19"><a xlink:href="d__s__play_8cpp.html" target="_top" xlink:title=" ">
<polygon fill="white" stroke="#666666" points="1965.5,-90.5 1859.5,-90.5 1859.5,-71.5 1965.5,-71.5 1965.5,-90.5"/>
<text text-anchor="middle" x="1912.5" y="-78.5" font-family="Helvetica,sans-Serif" font-size="10.00">src/d/s/d_s_play.cpp</text>
</a>
</g>
</g>
<!-- Node3&#45;&gt;Node19 -->
<g id="edge18" class="edge">
<title>Node3&#45;&gt;Node19</title>
<path fill="none" stroke="#63b8ff" d="M1166.9,-135.26C1175.14,-134.02 1183.52,-132.88 1191.5,-132 1483.06,-99.84 1559.98,-136.45 1850.5,-96 1859.35,-94.77 1868.81,-92.91 1877.6,-90.95"/>
<polygon fill="#63b8ff" stroke="#63b8ff" points="1166.62,-131.76 1157.28,-136.78 1167.71,-138.68 1166.62,-131.76"/>
</g>
<!-- Node20 -->
<g id="node20" class="node">
<title>Node20</title>
<g id="a_node20"><a xlink:href="m__Do__graphic_8cpp.html" target="_top" xlink:title=" ">
<polygon fill="white" stroke="#666666" points="2125.5,-90.5 1983.5,-90.5 1983.5,-71.5 2125.5,-71.5 2125.5,-90.5"/>
<text text-anchor="middle" x="2054.5" y="-78.5" font-family="Helvetica,sans-Serif" font-size="10.00">src/m_Do/m_Do_graphic.cpp</text>
</a>
</g>
</g>
<!-- Node3&#45;&gt;Node20 -->
<g id="edge19" class="edge">
<title>Node3&#45;&gt;Node20</title>
<path fill="none" stroke="#63b8ff" d="M1166.58,-135.25C1174.92,-133.99 1183.41,-132.86 1191.5,-132 1537.93,-95.3 1628.22,-134.1 1974.5,-96 1985.85,-94.75 1998.03,-92.89 2009.37,-90.93"/>
<polygon fill="#63b8ff" stroke="#63b8ff" points="1166.17,-131.77 1156.83,-136.78 1167.26,-138.68 1166.17,-131.77"/>
</g>
<!-- Node21 -->
<g id="node21" class="node">
<title>Node21</title>
<g id="a_node21"><a xlink:href="m__Do__main_8cpp.html" target="_top" xlink:title=" ">
<polygon fill="white" stroke="#666666" points="2275,-90.5 2144,-90.5 2144,-71.5 2275,-71.5 2275,-90.5"/>
<text text-anchor="middle" x="2209.5" y="-78.5" font-family="Helvetica,sans-Serif" font-size="10.00">src/m_Do/m_Do_main.cpp</text>
</a>
</g>
</g>
<!-- Node3&#45;&gt;Node21 -->
<g id="edge20" class="edge">
<title>Node3&#45;&gt;Node21</title>
<path fill="none" stroke="#63b8ff" d="M1166.26,-135.23C1174.71,-133.97 1183.31,-132.84 1191.5,-132 1608.75,-89.44 1717.68,-142.61 2134.5,-96 2145.29,-94.79 2156.87,-92.92 2167.62,-90.94"/>
<polygon fill="#63b8ff" stroke="#63b8ff" points="1165.72,-131.78 1156.39,-136.79 1166.81,-138.69 1165.72,-131.78"/>
</g>
<!-- Node5 -->
<g id="node5" class="node">
<title>Node5</title>
<g id="a_node5"><a xlink:href="d__menu__window_8cpp.html" target="_top" xlink:title=" ">
<polygon fill="white" stroke="#666666" points="159,-24.5 0,-24.5 0,-5.5 159,-5.5 159,-24.5"/>
<text text-anchor="middle" x="79.5" y="-12.5" font-family="Helvetica,sans-Serif" font-size="10.00">src/d/menu/d_menu_window.cpp</text>
</a>
</g>
</g>
<!-- Node4&#45;&gt;Node5 -->
<g id="edge4" class="edge">
<title>Node4&#45;&gt;Node5</title>
<path fill="none" stroke="#63b8ff" d="M129.43,-58.6C115.94,-47.1 100.04,-33.52 89.86,-24.84"/>
<polygon fill="#63b8ff" stroke="#63b8ff" points="126.82,-60.99 136.7,-64.81 131.37,-55.66 126.82,-60.99"/>
</g>
<!-- Node6 -->
<g id="node6" class="node">
<title>Node6</title>
<g id="a_node6"><a xlink:href="d__meter__map_8cpp.html" target="_top" xlink:title=" ">
<polygon fill="white" stroke="#666666" points="281.5,-30 177.5,-30 177.5,0 281.5,0 281.5,-30"/>
<text text-anchor="start" x="185.5" y="-18" font-family="Helvetica,sans-Serif" font-size="10.00">src/d/meter/d_meter</text>
<text text-anchor="middle" x="229.5" y="-7" font-family="Helvetica,sans-Serif" font-size="10.00">_map.cpp</text>
</a>
</g>
</g>
<!-- Node4&#45;&gt;Node6 -->
<g id="edge5" class="edge">
<title>Node4&#45;&gt;Node6</title>
<path fill="none" stroke="#63b8ff" d="M179.79,-58.42C190.61,-49.18 202.96,-38.65 212.64,-30.39"/>
<polygon fill="#63b8ff" stroke="#63b8ff" points="177.63,-55.66 172.3,-64.81 182.18,-60.99 177.63,-55.66"/>
</g>
</g>
</svg>
