<?xml version="1.0" encoding="UTF-8" standalone="no"?>
<!DOCTYPE svg PUBLIC "-//W3C//DTD SVG 1.1//EN"
 "http://www.w3.org/Graphics/SVG/1.1/DTD/svg11.dtd">
<!-- Generated by graphviz version 7.0.5 (20221223.1930)
 -->
<!-- Title: include/JSystem/JUtility/JUTNameTab.h Pages: 1 -->
<svg width="3501pt" height="434pt"
 viewBox="0.00 0.00 3500.50 434.00" xmlns="http://www.w3.org/2000/svg" xmlns:xlink="http://www.w3.org/1999/xlink">
<g id="graph0" class="graph" transform="scale(1 1) rotate(0) translate(4 430)">
<title>include/JSystem/JUtility/JUTNameTab.h</title>
<!-- Node1 -->
<g id="node1" class="node">
<title>Node1</title>
<g id="a_node1"><a xlink:title=" ">
<polygon fill="#999999" stroke="#666666" points="1606.5,-426 1484.5,-426 1484.5,-396 1606.5,-396 1606.5,-426"/>
<text text-anchor="start" x="1492.5" y="-414" font-family="Helvetica,sans-Serif" font-size="10.00">include/JSystem/JUtility</text>
<text text-anchor="middle" x="1545.5" y="-403" font-family="Helvetica,sans-Serif" font-size="10.00">/JUTNameTab.h</text>
</a>
</g>
</g>
<!-- Node2 -->
<g id="node2" class="node">
<title>Node2</title>
<g id="a_node2"><a xlink:href="J2DAnimation_8h.html" target="_top" xlink:title=" ">
<polygon fill="white" stroke="#666666" points="1228,-294 1093,-294 1093,-264 1228,-264 1228,-294"/>
<text text-anchor="start" x="1101" y="-282" font-family="Helvetica,sans-Serif" font-size="10.00">include/JSystem/J2DGraph</text>
<text text-anchor="middle" x="1160.5" y="-271" font-family="Helvetica,sans-Serif" font-size="10.00">/J2DAnimation.h</text>
</a>
</g>
</g>
<!-- Node1&#45;&gt;Node2 -->
<g id="edge1" class="edge">
<title>Node1&#45;&gt;Node2</title>
<path fill="none" stroke="#63b8ff" d="M1491.93,-391.91C1414.81,-365.87 1274.03,-318.33 1203.36,-294.47"/>
<polygon fill="#63b8ff" stroke="#63b8ff" points="1490.8,-395.22 1501.39,-395.11 1493.04,-388.59 1490.8,-395.22"/>
</g>
<!-- Node47 -->
<g id="node27" class="node">
<title>Node47</title>
<g id="a_node27"><a xlink:href="J3DAnimation_8h.html" target="_top" xlink:title=" ">
<polygon fill="white" stroke="#666666" points="1613,-360 1478,-360 1478,-330 1613,-330 1613,-360"/>
<text text-anchor="start" x="1486" y="-348" font-family="Helvetica,sans-Serif" font-size="10.00">include/JSystem/J3DGraph</text>
<text text-anchor="middle" x="1545.5" y="-337" font-family="Helvetica,sans-Serif" font-size="10.00">Animator/J3DAnimation.h</text>
</a>
</g>
</g>
<!-- Node1&#45;&gt;Node47 -->
<g id="edge36" class="edge">
<title>Node1&#45;&gt;Node47</title>
<path fill="none" stroke="#63b8ff" d="M1545.5,-384.39C1545.5,-376.13 1545.5,-367.28 1545.5,-360.16"/>
<polygon fill="#63b8ff" stroke="#63b8ff" points="1542,-384.28 1545.5,-394.28 1549,-384.28 1542,-384.28"/>
</g>
<!-- Node325 -->
<g id="node50" class="node">
<title>Node325</title>
<g id="a_node50"><a xlink:href="JUTNameTab_8cpp.html" target="_top" xlink:title=" ">
<polygon fill="white" stroke="#666666" points="1737.5,-360 1631.5,-360 1631.5,-330 1737.5,-330 1737.5,-360"/>
<text text-anchor="start" x="1639.5" y="-348" font-family="Helvetica,sans-Serif" font-size="10.00">libs/JSystem/JUtility</text>
<text text-anchor="middle" x="1684.5" y="-337" font-family="Helvetica,sans-Serif" font-size="10.00">/JUTNameTab.cpp</text>
</a>
</g>
</g>
<!-- Node1&#45;&gt;Node325 -->
<g id="edge69" class="edge">
<title>Node1&#45;&gt;Node325</title>
<path fill="none" stroke="#63b8ff" d="M1587.08,-390.86C1608.37,-381.05 1633.85,-369.32 1653.41,-360.31"/>
<polygon fill="#63b8ff" stroke="#63b8ff" points="1585.69,-387.64 1578.07,-395 1588.62,-394 1585.69,-387.64"/>
</g>
<!-- Node3 -->
<g id="node3" class="node">
<title>Node3</title>
<g id="a_node3"><a xlink:href="J2DAnmLoader_8h.html" target="_top" xlink:title=" ">
<polygon fill="white" stroke="#666666" points="1612,-162 1477,-162 1477,-132 1612,-132 1612,-162"/>
<text text-anchor="start" x="1485" y="-150" font-family="Helvetica,sans-Serif" font-size="10.00">include/JSystem/J2DGraph</text>
<text text-anchor="middle" x="1544.5" y="-139" font-family="Helvetica,sans-Serif" font-size="10.00">/J2DAnmLoader.h</text>
</a>
</g>
</g>
<!-- Node2&#45;&gt;Node3 -->
<g id="edge2" class="edge">
<title>Node2&#45;&gt;Node3</title>
<path fill="none" stroke="#63b8ff" d="M1215.56,-259.75C1238.64,-251.27 1265.43,-240.33 1288.5,-228 1309.05,-217.02 1310.22,-207.5 1331.5,-198 1377.8,-177.33 1433.74,-164.62 1476.67,-157.19"/>
<polygon fill="#63b8ff" stroke="#63b8ff" points="1214.54,-256.39 1206.32,-263.07 1216.91,-262.98 1214.54,-256.39"/>
</g>
<!-- Node4 -->
<g id="node4" class="node">
<title>Node4</title>
<g id="a_node4"><a xlink:href="J2DAnmLoader__nonmatching_8cpp.html" target="_top" xlink:title=" ">
<polygon fill="white" stroke="#666666" points="1462.5,-96 1296.5,-96 1296.5,-66 1462.5,-66 1462.5,-96"/>
<text text-anchor="start" x="1304.5" y="-84" font-family="Helvetica,sans-Serif" font-size="10.00">libs/JSystem/J2DGraph</text>
<text text-anchor="middle" x="1379.5" y="-73" font-family="Helvetica,sans-Serif" font-size="10.00">/J2DAnmLoader_nonmatching.cpp</text>
</a>
</g>
</g>
<!-- Node2&#45;&gt;Node4 -->
<g id="edge30" class="edge">
<title>Node2&#45;&gt;Node4</title>
<path fill="none" stroke="#63b8ff" d="M1171.84,-253.29C1187.6,-221.36 1218.96,-165.86 1260.5,-132 1280.13,-116 1305.61,-104.38 1327.96,-96.4"/>
<polygon fill="#63b8ff" stroke="#63b8ff" points="1168.75,-251.64 1167.57,-262.17 1175.06,-254.67 1168.75,-251.64"/>
</g>
<!-- Node7 -->
<g id="node7" class="node">
<title>Node7</title>
<g id="a_node7"><a xlink:href="d__select__cursor_8cpp.html" target="_top" xlink:title=" ">
<polygon fill="white" stroke="#666666" points="1608.5,-90.5 1480.5,-90.5 1480.5,-71.5 1608.5,-71.5 1608.5,-90.5"/>
<text text-anchor="middle" x="1544.5" y="-78.5" font-family="Helvetica,sans-Serif" font-size="10.00">src/d/d_select_cursor.cpp</text>
</a>
</g>
</g>
<!-- Node2&#45;&gt;Node7 -->
<g id="edge32" class="edge">
<title>Node2&#45;&gt;Node7</title>
<path fill="none" stroke="#63b8ff" d="M1191.21,-257.19C1216.72,-240.3 1254.24,-216.36 1288.5,-198 1372.36,-153.05 1477,-109.27 1522.11,-90.96"/>
<polygon fill="#63b8ff" stroke="#63b8ff" points="1189.36,-254.21 1182.98,-262.67 1193.24,-260.04 1189.36,-254.21"/>
</g>
<!-- Node8 -->
<g id="node8" class="node">
<title>Node8</title>
<g id="a_node8"><a xlink:href="d__menu__collect_8cpp.html" target="_top" xlink:title=" ">
<polygon fill="white" stroke="#666666" points="1166,-90.5 1011,-90.5 1011,-71.5 1166,-71.5 1166,-90.5"/>
<text text-anchor="middle" x="1088.5" y="-78.5" font-family="Helvetica,sans-Serif" font-size="10.00">src/d/menu/d_menu_collect.cpp</text>
</a>
</g>
</g>
<!-- Node2&#45;&gt;Node8 -->
<g id="edge35" class="edge">
<title>Node2&#45;&gt;Node8</title>
<path fill="none" stroke="#63b8ff" d="M1155.34,-252.55C1151.83,-236.66 1146.69,-215.9 1140.5,-198 1126.21,-156.71 1102.92,-109.9 1093.1,-90.81"/>
<polygon fill="#63b8ff" stroke="#63b8ff" points="1151.88,-253.09 1157.39,-262.14 1158.72,-251.63 1151.88,-253.09"/>
</g>
<!-- Node12 -->
<g id="node12" class="node">
<title>Node12</title>
<g id="a_node12"><a xlink:href="J2DMaterial_8h.html" target="_top" xlink:title=" ">
<polygon fill="white" stroke="#666666" points="466,-228 331,-228 331,-198 466,-198 466,-228"/>
<text text-anchor="start" x="339" y="-216" font-family="Helvetica,sans-Serif" font-size="10.00">include/JSystem/J2DGraph</text>
<text text-anchor="middle" x="398.5" y="-205" font-family="Helvetica,sans-Serif" font-size="10.00">/J2DMaterial.h</text>
</a>
</g>
</g>
<!-- Node2&#45;&gt;Node12 -->
<g id="edge11" class="edge">
<title>Node2&#45;&gt;Node12</title>
<path fill="none" stroke="#63b8ff" d="M1081.16,-271.34C930.93,-258.72 607.39,-231.54 466.44,-219.71"/>
<polygon fill="#63b8ff" stroke="#63b8ff" points="1080.78,-274.82 1091.03,-272.17 1081.36,-267.84 1080.78,-274.82"/>
</g>
<!-- Node31 -->
<g id="node15" class="node">
<title>Node31</title>
<g id="a_node15"><a xlink:href="d__file__select_8cpp.html" target="_top" xlink:title=" ">
<polygon fill="white" stroke="#666666" points="992.5,-90.5 864.5,-90.5 864.5,-71.5 992.5,-71.5 992.5,-90.5"/>
<text text-anchor="middle" x="928.5" y="-78.5" font-family="Helvetica,sans-Serif" font-size="10.00">src/d/file/d_file_select.cpp</text>
</a>
</g>
</g>
<!-- Node2&#45;&gt;Node31 -->
<g id="edge34" class="edge">
<title>Node2&#45;&gt;Node31</title>
<path fill="none" stroke="#63b8ff" d="M1081.23,-274.41C963.16,-268.25 752.44,-253.76 729.5,-228 720.63,-218.04 720.71,-208.02 729.5,-198 810.81,-105.35 923.19,-254.65 1004.5,-162 1027.88,-135.36 977.78,-105.45 948.19,-90.9"/>
<polygon fill="#63b8ff" stroke="#63b8ff" points="1081.03,-277.91 1091.2,-274.93 1081.39,-270.92 1081.03,-277.91"/>
</g>
<!-- Node44 -->
<g id="node24" class="node">
<title>Node44</title>
<g id="a_node24"><a xlink:href="J2DAnimation_8cpp.html" target="_top" xlink:title=" ">
<polygon fill="white" stroke="#666666" points="858,-228 739,-228 739,-198 858,-198 858,-228"/>
<text text-anchor="start" x="747" y="-216" font-family="Helvetica,sans-Serif" font-size="10.00">libs/JSystem/J2DGraph</text>
<text text-anchor="middle" x="798.5" y="-205" font-family="Helvetica,sans-Serif" font-size="10.00">/J2DAnimation.cpp</text>
</a>
</g>
</g>
<!-- Node2&#45;&gt;Node44 -->
<g id="edge29" class="edge">
<title>Node2&#45;&gt;Node44</title>
<path fill="none" stroke="#63b8ff" d="M1081.5,-265.33C1022.24,-255.63 939.16,-241.65 866.5,-228 863.78,-227.49 860.99,-226.96 858.18,-226.41"/>
<polygon fill="#63b8ff" stroke="#63b8ff" points="1080.73,-268.75 1091.16,-266.9 1081.85,-261.84 1080.73,-268.75"/>
</g>
<!-- Node45 -->
<g id="node25" class="node">
<title>Node45</title>
<g id="a_node25"><a xlink:href="J2DPane_8cpp.html" target="_top" xlink:title=" ">
<polygon fill="white" stroke="#666666" points="995,-228 876,-228 876,-198 995,-198 995,-228"/>
<text text-anchor="start" x="884" y="-216" font-family="Helvetica,sans-Serif" font-size="10.00">libs/JSystem/J2DGraph</text>
<text text-anchor="middle" x="935.5" y="-205" font-family="Helvetica,sans-Serif" font-size="10.00">/J2DPane.cpp</text>
</a>
</g>
</g>
<!-- Node2&#45;&gt;Node45 -->
<g id="edge31" class="edge">
<title>Node2&#45;&gt;Node45</title>
<path fill="none" stroke="#63b8ff" d="M1099.02,-260.51C1063.56,-250.43 1019.53,-237.9 986.09,-228.39"/>
<polygon fill="#63b8ff" stroke="#63b8ff" points="1097.69,-263.77 1108.27,-263.14 1099.61,-257.04 1097.69,-263.77"/>
</g>
<!-- Node46 -->
<g id="node26" class="node">
<title>Node46</title>
<g id="a_node26"><a xlink:href="d__select__icon_8cpp.html" target="_top" xlink:title=" ">
<polygon fill="white" stroke="#666666" points="1132,-222.5 1013,-222.5 1013,-203.5 1132,-203.5 1132,-222.5"/>
<text text-anchor="middle" x="1072.5" y="-210.5" font-family="Helvetica,sans-Serif" font-size="10.00">src/d/d_select_icon.cpp</text>
</a>
</g>
</g>
<!-- Node2&#45;&gt;Node46 -->
<g id="edge33" class="edge">
<title>Node2&#45;&gt;Node46</title>
<path fill="none" stroke="#63b8ff" d="M1131.98,-257.26C1115.97,-245.61 1096.82,-231.69 1084.66,-222.84"/>
<polygon fill="#63b8ff" stroke="#63b8ff" points="1129.6,-259.85 1139.75,-262.91 1133.72,-254.19 1129.6,-259.85"/>
</g>
<!-- Node3&#45;&gt;Node4 -->
<g id="edge3" class="edge">
<title>Node3&#45;&gt;Node4</title>
<path fill="none" stroke="#63b8ff" d="M1496.91,-127.54C1471.39,-117.64 1440.42,-105.63 1416.69,-96.43"/>
<polygon fill="#63b8ff" stroke="#63b8ff" points="1495.47,-130.74 1506.06,-131.09 1498,-124.21 1495.47,-130.74"/>
</g>
<!-- Node5 -->
<g id="node5" class="node">
<title>Node5</title>
<g id="a_node5"><a xlink:href="d__a__alink_8cpp.html" target="_top" xlink:title=" ">
<polygon fill="white" stroke="#666666" points="2131,-90.5 2022,-90.5 2022,-71.5 2131,-71.5 2131,-90.5"/>
<text text-anchor="middle" x="2076.5" y="-78.5" font-family="Helvetica,sans-Serif" font-size="10.00">src/d/a/d_a_alink.cpp</text>
</a>
</g>
</g>
<!-- Node3&#45;&gt;Node5 -->
<g id="edge4" class="edge">
<title>Node3&#45;&gt;Node5</title>
<path fill="none" stroke="#63b8ff" d="M1623.7,-136.47C1733.02,-123.32 1927.36,-99.94 2021.86,-88.57"/>
<polygon fill="#63b8ff" stroke="#63b8ff" points="1623.43,-132.98 1613.92,-137.65 1624.27,-139.93 1623.43,-132.98"/>
</g>
<!-- Node6 -->
<g id="node6" class="node">
<title>Node6</title>
<g id="a_node6"><a xlink:href="d__name_8cpp.html" target="_top" xlink:title=" ">
<polygon fill="white" stroke="#666666" points="1278.5,-90.5 1184.5,-90.5 1184.5,-71.5 1278.5,-71.5 1278.5,-90.5"/>
<text text-anchor="middle" x="1231.5" y="-78.5" font-family="Helvetica,sans-Serif" font-size="10.00">src/d/d_name.cpp</text>
</a>
</g>
</g>
<!-- Node3&#45;&gt;Node6 -->
<g id="edge5" class="edge">
<title>Node3&#45;&gt;Node6</title>
<path fill="none" stroke="#63b8ff" d="M1465.4,-131.73C1414.46,-122.26 1346.9,-109.19 1287.5,-96 1280.55,-94.46 1273.15,-92.69 1266.08,-90.95"/>
<polygon fill="#63b8ff" stroke="#63b8ff" points="1464.7,-135.16 1475.17,-133.54 1465.98,-128.28 1464.7,-135.16"/>
</g>
<!-- Node3&#45;&gt;Node7 -->
<g id="edge6" class="edge">
<title>Node3&#45;&gt;Node7</title>
<path fill="none" stroke="#63b8ff" d="M1544.5,-120.59C1544.5,-110.06 1544.5,-98.53 1544.5,-90.84"/>
<polygon fill="#63b8ff" stroke="#63b8ff" points="1541,-120.28 1544.5,-130.28 1548,-120.28 1541,-120.28"/>
</g>
<!-- Node3&#45;&gt;Node8 -->
<g id="edge7" class="edge">
<title>Node3&#45;&gt;Node8</title>
<path fill="none" stroke="#63b8ff" d="M1465.57,-135.88C1390.8,-126.16 1275.41,-110.81 1175.5,-96 1164.91,-94.43 1153.6,-92.67 1142.77,-90.95"/>
<polygon fill="#63b8ff" stroke="#63b8ff" points="1464.89,-139.32 1475.26,-137.14 1465.79,-132.38 1464.89,-139.32"/>
</g>
<!-- Node9 -->
<g id="node9" class="node">
<title>Node9</title>
<g id="a_node9"><a xlink:href="d__menu__save_8cpp.html" target="_top" xlink:title=" ">
<polygon fill="white" stroke="#666666" points="1898,-90.5 1751,-90.5 1751,-71.5 1898,-71.5 1898,-90.5"/>
<text text-anchor="middle" x="1824.5" y="-78.5" font-family="Helvetica,sans-Serif" font-size="10.00">src/d/menu/d_menu_save.cpp</text>
</a>
</g>
</g>
<!-- Node3&#45;&gt;Node9 -->
<g id="edge8" class="edge">
<title>Node3&#45;&gt;Node9</title>
<path fill="none" stroke="#63b8ff" d="M1618.83,-129.01C1672.3,-116.79 1742.29,-100.79 1785.29,-90.96"/>
<polygon fill="#63b8ff" stroke="#63b8ff" points="1618.13,-125.58 1609.16,-131.22 1619.69,-132.4 1618.13,-125.58"/>
</g>
<!-- Node10 -->
<g id="node10" class="node">
<title>Node10</title>
<g id="a_node10"><a xlink:href="d__meter2__draw_8cpp.html" target="_top" xlink:title=" ">
<polygon fill="white" stroke="#666666" points="2326.5,-96 2216.5,-96 2216.5,-66 2326.5,-66 2326.5,-96"/>
<text text-anchor="start" x="2224.5" y="-84" font-family="Helvetica,sans-Serif" font-size="10.00">src/d/meter/d_meter2</text>
<text text-anchor="middle" x="2271.5" y="-73" font-family="Helvetica,sans-Serif" font-size="10.00">_draw.cpp</text>
</a>
</g>
</g>
<!-- Node3&#45;&gt;Node10 -->
<g id="edge9" class="edge">
<title>Node3&#45;&gt;Node10</title>
<path fill="none" stroke="#63b8ff" d="M1623.88,-139.92C1738.15,-131.03 1955.62,-113.63 2140.5,-96 2165.32,-93.63 2192.75,-90.74 2216.07,-88.21"/>
<polygon fill="#63b8ff" stroke="#63b8ff" points="1623.68,-136.42 1613.98,-140.69 1624.23,-143.4 1623.68,-136.42"/>
</g>
<!-- Node11 -->
<g id="node11" class="node">
<title>Node11</title>
<g id="a_node11"><a xlink:href="d__msg__scrn__arrow_8cpp.html" target="_top" xlink:title=" ">
<polygon fill="white" stroke="#666666" points="1732.5,-96 1626.5,-96 1626.5,-66 1732.5,-66 1732.5,-96"/>
<text text-anchor="start" x="1634.5" y="-84" font-family="Helvetica,sans-Serif" font-size="10.00">src/msg/scrn/d_msg</text>
<text text-anchor="middle" x="1679.5" y="-73" font-family="Helvetica,sans-Serif" font-size="10.00">_scrn_arrow.cpp</text>
</a>
</g>
</g>
<!-- Node3&#45;&gt;Node11 -->
<g id="edge10" class="edge">
<title>Node3&#45;&gt;Node11</title>
<path fill="none" stroke="#63b8ff" d="M1585.16,-126.72C1605.78,-116.95 1630.39,-105.28 1649.3,-96.31"/>
<polygon fill="#63b8ff" stroke="#63b8ff" points="1583.7,-123.54 1576.16,-130.99 1586.7,-129.87 1583.7,-123.54"/>
</g>
<!-- Node13 -->
<g id="node13" class="node">
<title>Node13</title>
<g id="a_node13"><a xlink:href="J2DTextBox_8h.html" target="_top" xlink:title=" ">
<polygon fill="#fff0f0" stroke="red" points="996,-162 861,-162 861,-132 996,-132 996,-162"/>
<text text-anchor="start" x="869" y="-150" font-family="Helvetica,sans-Serif" font-size="10.00">include/JSystem/J2DGraph</text>
<text text-anchor="middle" x="928.5" y="-139" font-family="Helvetica,sans-Serif" font-size="10.00">/J2DTextBox.h</text>
</a>
</g>
</g>
<!-- Node12&#45;&gt;Node13 -->
<g id="edge12" class="edge">
<title>Node12&#45;&gt;Node13</title>
<path fill="none" stroke="#63b8ff" d="M477.81,-202.42C581.93,-189.85 762.95,-167.99 860.9,-156.16"/>
<polygon fill="#63b8ff" stroke="#63b8ff" points="477.44,-198.94 467.94,-203.62 478.28,-205.89 477.44,-198.94"/>
</g>
<!-- Node16 -->
<g id="node14" class="node">
<title>Node16</title>
<g id="a_node14"><a xlink:href="J2DTextBox_8cpp.html" target="_top" xlink:title=" ">
<polygon fill="white" stroke="#666666" points="846,-96 727,-96 727,-66 846,-66 846,-96"/>
<text text-anchor="start" x="735" y="-84" font-family="Helvetica,sans-Serif" font-size="10.00">libs/JSystem/J2DGraph</text>
<text text-anchor="middle" x="786.5" y="-73" font-family="Helvetica,sans-Serif" font-size="10.00">/J2DTextBox.cpp</text>
</a>
</g>
</g>
<!-- Node12&#45;&gt;Node16 -->
<g id="edge27" class="edge">
<title>Node12&#45;&gt;Node16</title>
<path fill="none" stroke="#63b8ff" d="M320.25,-194.33C276.19,-180.87 234.71,-159.9 260.5,-132 295.07,-94.6 667.06,-103.08 717.5,-96 720.53,-95.58 723.62,-95.1 726.74,-94.59"/>
<polygon fill="#63b8ff" stroke="#63b8ff" points="319.13,-197.65 329.71,-197.08 321.09,-190.93 319.13,-197.65"/>
</g>
<!-- Node37 -->
<g id="node17" class="node">
<title>Node37</title>
<g id="a_node17"><a xlink:href="J2DWindow_8h.html" target="_top" xlink:title=" ">
<polygon fill="#fff0f0" stroke="red" points="213,-162 78,-162 78,-132 213,-132 213,-162"/>
<text text-anchor="start" x="86" y="-150" font-family="Helvetica,sans-Serif" font-size="10.00">include/JSystem/J2DGraph</text>
<text text-anchor="middle" x="145.5" y="-139" font-family="Helvetica,sans-Serif" font-size="10.00">/J2DWindow.h</text>
</a>
</g>
</g>
<!-- Node12&#45;&gt;Node37 -->
<g id="edge18" class="edge">
<title>Node12&#45;&gt;Node37</title>
<path fill="none" stroke="#63b8ff" d="M330.4,-194.77C290.35,-184.64 240.31,-171.98 202.39,-162.39"/>
<polygon fill="#63b8ff" stroke="#63b8ff" points="329.39,-198.13 339.94,-197.19 331.1,-191.34 329.39,-198.13"/>
</g>
<!-- Node38 -->
<g id="node18" class="node">
<title>Node38</title>
<g id="a_node18"><a xlink:href="J2DWindowEx_8h.html" target="_top" xlink:title=" ">
<polygon fill="#fff0f0" stroke="red" points="175,-96 40,-96 40,-66 175,-66 175,-96"/>
<text text-anchor="start" x="48" y="-84" font-family="Helvetica,sans-Serif" font-size="10.00">include/JSystem/J2DGraph</text>
<text text-anchor="middle" x="107.5" y="-73" font-family="Helvetica,sans-Serif" font-size="10.00">/J2DWindowEx.h</text>
</a>
</g>
</g>
<!-- Node12&#45;&gt;Node38 -->
<g id="edge22" class="edge">
<title>Node12&#45;&gt;Node38</title>
<path fill="none" stroke="#63b8ff" d="M319.14,-211.41C232,-208.87 100.18,-198.84 68.5,-162 51.37,-142.08 74.19,-113.34 91.45,-96.28"/>
<polygon fill="#63b8ff" stroke="#63b8ff" points="318.99,-214.9 329.08,-211.67 319.18,-207.91 318.99,-214.9"/>
</g>
<!-- Node19 -->
<g id="node19" class="node">
<title>Node19</title>
<g id="a_node19"><a xlink:href="J2DScreen_8cpp.html" target="_top" xlink:title=" ">
<polygon fill="white" stroke="#666666" points="119,-30 0,-30 0,0 119,0 119,-30"/>
<text text-anchor="start" x="8" y="-18" font-family="Helvetica,sans-Serif" font-size="10.00">libs/JSystem/J2DGraph</text>
<text text-anchor="middle" x="59.5" y="-7" font-family="Helvetica,sans-Serif" font-size="10.00">/J2DScreen.cpp</text>
</a>
</g>
</g>
<!-- Node12&#45;&gt;Node19 -->
<g id="edge26" class="edge">
<title>Node12&#45;&gt;Node19</title>
<path fill="none" stroke="#63b8ff" d="M319.21,-209.18C231.74,-204.56 98.09,-192.59 58.5,-162 23.33,-134.83 18.95,-108.92 30.5,-66 33.99,-53.01 41.78,-39.92 48.4,-30.4"/>
<polygon fill="#63b8ff" stroke="#63b8ff" points="319.03,-212.67 329.19,-209.68 319.38,-205.68 319.03,-212.67"/>
</g>
<!-- Node41 -->
<g id="node20" class="node">
<title>Node41</title>
<g id="a_node20"><a xlink:href="J2DMaterial_8cpp.html" target="_top" xlink:title=" ">
<polygon fill="white" stroke="#666666" points="804,-162 685,-162 685,-132 804,-132 804,-162"/>
<text text-anchor="start" x="693" y="-150" font-family="Helvetica,sans-Serif" font-size="10.00">libs/JSystem/J2DGraph</text>
<text text-anchor="middle" x="744.5" y="-139" font-family="Helvetica,sans-Serif" font-size="10.00">/J2DMaterial.cpp</text>
</a>
</g>
</g>
<!-- Node12&#45;&gt;Node41 -->
<g id="edge23" class="edge">
<title>Node12&#45;&gt;Node41</title>
<path fill="none" stroke="#63b8ff" d="M477.47,-198.21C532.94,-188.42 608.82,-174.78 675.5,-162 678.5,-161.42 681.57,-160.83 684.68,-160.22"/>
<polygon fill="#63b8ff" stroke="#63b8ff" points="477.04,-194.73 467.8,-199.92 478.26,-201.63 477.04,-194.73"/>
</g>
<!-- Node42 -->
<g id="node21" class="node">
<title>Node42</title>
<g id="a_node21"><a xlink:href="J2DMaterialFactory_8cpp.html" target="_top" xlink:title=" ">
<polygon fill="white" stroke="#666666" points="666.5,-162 544.5,-162 544.5,-132 666.5,-132 666.5,-162"/>
<text text-anchor="start" x="552.5" y="-150" font-family="Helvetica,sans-Serif" font-size="10.00">libs/JSystem/J2DGraph</text>
<text text-anchor="middle" x="605.5" y="-139" font-family="Helvetica,sans-Serif" font-size="10.00">/J2DMaterialFactory.cpp</text>
</a>
</g>
</g>
<!-- Node12&#45;&gt;Node42 -->
<g id="edge24" class="edge">
<title>Node12&#45;&gt;Node42</title>
<path fill="none" stroke="#63b8ff" d="M455.91,-194.25C488.38,-184.21 528.46,-171.82 558.96,-162.39"/>
<polygon fill="#63b8ff" stroke="#63b8ff" points="455.18,-190.81 446.66,-197.11 457.25,-197.5 455.18,-190.81"/>
</g>
<!-- Node43 -->
<g id="node22" class="node">
<title>Node43</title>
<g id="a_node22"><a xlink:href="J2DPictureEx_8cpp.html" target="_top" xlink:title=" ">
<polygon fill="white" stroke="#666666" points="389,-162 270,-162 270,-132 389,-132 389,-162"/>
<text text-anchor="start" x="278" y="-150" font-family="Helvetica,sans-Serif" font-size="10.00">libs/JSystem/J2DGraph</text>
<text text-anchor="middle" x="329.5" y="-139" font-family="Helvetica,sans-Serif" font-size="10.00">/J2DPictureEx.cpp</text>
</a>
</g>
</g>
<!-- Node12&#45;&gt;Node43 -->
<g id="edge25" class="edge">
<title>Node12&#45;&gt;Node43</title>
<path fill="none" stroke="#63b8ff" d="M374.88,-190.09C364.91,-180.85 353.61,-170.36 344.77,-162.16"/>
<polygon fill="#63b8ff" stroke="#63b8ff" points="372.37,-192.53 382.08,-196.77 377.13,-187.4 372.37,-192.53"/>
</g>
<!-- Node17 -->
<g id="node23" class="node">
<title>Node17</title>
<g id="a_node23"><a xlink:href="J2DTextBoxEx_8cpp.html" target="_top" xlink:title=" ">
<polygon fill="white" stroke="#666666" points="526,-162 407,-162 407,-132 526,-132 526,-162"/>
<text text-anchor="start" x="415" y="-150" font-family="Helvetica,sans-Serif" font-size="10.00">libs/JSystem/J2DGraph</text>
<text text-anchor="middle" x="466.5" y="-139" font-family="Helvetica,sans-Serif" font-size="10.00">/J2DTextBoxEx.cpp</text>
</a>
</g>
</g>
<!-- Node12&#45;&gt;Node17 -->
<g id="edge28" class="edge">
<title>Node12&#45;&gt;Node17</title>
<path fill="none" stroke="#63b8ff" d="M421.78,-190.09C431.6,-180.85 442.74,-170.36 451.45,-162.16"/>
<polygon fill="#63b8ff" stroke="#63b8ff" points="419.58,-187.36 414.69,-196.76 424.37,-192.45 419.58,-187.36"/>
</g>
<!-- Node13&#45;&gt;Node6 -->
<g id="edge14" class="edge">
<title>Node13&#45;&gt;Node6</title>
<path fill="none" stroke="#63b8ff" d="M1007.28,-130.83C1055.64,-121.31 1118.77,-108.5 1174.5,-96 1181.46,-94.44 1188.88,-92.68 1195.98,-90.96"/>
<polygon fill="#63b8ff" stroke="#63b8ff" points="1006.89,-127.34 997.75,-132.7 1008.24,-134.21 1006.89,-127.34"/>
</g>
<!-- Node13&#45;&gt;Node8 -->
<g id="edge16" class="edge">
<title>Node13&#45;&gt;Node8</title>
<path fill="none" stroke="#63b8ff" d="M975.05,-127.38C1004.98,-115.41 1042.54,-100.38 1066.04,-90.99"/>
<polygon fill="#63b8ff" stroke="#63b8ff" points="973.8,-124.11 965.81,-131.08 976.4,-130.61 973.8,-124.11"/>
</g>
<!-- Node13&#45;&gt;Node16 -->
<g id="edge13" class="edge">
<title>Node13&#45;&gt;Node16</title>
<path fill="none" stroke="#63b8ff" d="M886.32,-126.99C864.52,-117.16 838.34,-105.36 818.26,-96.31"/>
<polygon fill="#63b8ff" stroke="#63b8ff" points="884.7,-130.1 895.25,-131.02 887.57,-123.72 884.7,-130.1"/>
</g>
<!-- Node13&#45;&gt;Node31 -->
<g id="edge15" class="edge">
<title>Node13&#45;&gt;Node31</title>
<path fill="none" stroke="#63b8ff" d="M928.5,-120.59C928.5,-110.06 928.5,-98.53 928.5,-90.84"/>
<polygon fill="#63b8ff" stroke="#63b8ff" points="925,-120.28 928.5,-130.28 932,-120.28 925,-120.28"/>
</g>
<!-- Node36 -->
<g id="node16" class="node">
<title>Node36</title>
<g id="a_node16"><a xlink:href="d__pane__class_8cpp.html" target="_top" xlink:title=" ">
<polygon fill="white" stroke="#666666" points="709,-90.5 566,-90.5 566,-71.5 709,-71.5 709,-90.5"/>
<text text-anchor="middle" x="637.5" y="-78.5" font-family="Helvetica,sans-Serif" font-size="10.00">src/d/pane/d_pane_class.cpp</text>
</a>
</g>
</g>
<!-- Node13&#45;&gt;Node36 -->
<g id="edge17" class="edge">
<title>Node13&#45;&gt;Node36</title>
<path fill="none" stroke="#63b8ff" d="M851.6,-129.09C795.99,-116.86 723.03,-100.81 678.25,-90.96"/>
<polygon fill="#63b8ff" stroke="#63b8ff" points="850.83,-132.5 861.35,-131.23 852.34,-125.67 850.83,-132.5"/>
</g>
<!-- Node37&#45;&gt;Node36 -->
<g id="edge21" class="edge">
<title>Node37&#45;&gt;Node36</title>
<path fill="none" stroke="#63b8ff" d="M224.48,-132.45C225.49,-132.3 226.5,-132.15 227.5,-132 345.64,-114.72 483.54,-98.77 565.52,-89.73"/>
<polygon fill="#63b8ff" stroke="#63b8ff" points="224.32,-128.93 214.97,-133.91 225.38,-135.85 224.32,-128.93"/>
</g>
<!-- Node37&#45;&gt;Node38 -->
<g id="edge19" class="edge">
<title>Node37&#45;&gt;Node38</title>
<path fill="none" stroke="#63b8ff" d="M131.32,-122.11C126.13,-113.38 120.43,-103.78 115.91,-96.16"/>
<polygon fill="#63b8ff" stroke="#63b8ff" points="128.18,-123.68 136.29,-130.49 134.2,-120.11 128.18,-123.68"/>
</g>
<!-- Node38&#45;&gt;Node19 -->
<g id="edge20" class="edge">
<title>Node38&#45;&gt;Node19</title>
<path fill="none" stroke="#63b8ff" d="M90.01,-56.68C83.35,-47.79 75.96,-37.95 70.12,-30.16"/>
<polygon fill="#63b8ff" stroke="#63b8ff" points="87.14,-58.69 95.94,-64.59 92.74,-54.49 87.14,-58.69"/>
</g>
<!-- Node47&#45;&gt;Node2 -->
<g id="edge37" class="edge">
<title>Node47&#45;&gt;Node2</title>
<path fill="none" stroke="#63b8ff" d="M1466.58,-330.88C1396.44,-319.22 1295,-302.36 1228.41,-291.29"/>
<polygon fill="#63b8ff" stroke="#63b8ff" points="1465.62,-334.27 1476.06,-332.46 1466.77,-327.36 1465.62,-334.27"/>
</g>
<!-- Node47&#45;&gt;Node41 -->
<g id="edge67" class="edge">
<title>Node47&#45;&gt;Node41</title>
<path fill="none" stroke="#63b8ff" d="M1466.35,-338.84C1268.92,-325.15 767.1,-285.01 719.5,-228 703.55,-208.9 720.06,-179.62 732.79,-162.29"/>
<polygon fill="#63b8ff" stroke="#63b8ff" points="1466.05,-342.33 1476.27,-339.52 1466.53,-335.34 1466.05,-342.33"/>
</g>
<!-- Node48 -->
<g id="node28" class="node">
<title>Node48</title>
<g id="a_node28"><a xlink:href="J3DMaterialAnm_8h.html" target="_top" xlink:title=" ">
<polygon fill="white" stroke="#666666" points="2778.5,-228 2640.5,-228 2640.5,-198 2778.5,-198 2778.5,-228"/>
<text text-anchor="start" x="2648.5" y="-216" font-family="Helvetica,sans-Serif" font-size="10.00">include/JSystem/J3DGraph</text>
<text text-anchor="middle" x="2709.5" y="-205" font-family="Helvetica,sans-Serif" font-size="10.00">Animator/J3DMaterialAnm.h</text>
</a>
</g>
</g>
<!-- Node47&#45;&gt;Node48 -->
<g id="edge38" class="edge">
<title>Node47&#45;&gt;Node48</title>
<path fill="none" stroke="#63b8ff" d="M1624.83,-329.82C1860.96,-301.18 1924.15,-318.07 2157.5,-294 2369.08,-272.18 2421.45,-261.46 2631.5,-228 2634.35,-227.55 2637.26,-227.07 2640.2,-226.58"/>
<polygon fill="#63b8ff" stroke="#63b8ff" points="1624.46,-326.34 1614.96,-331.03 1625.31,-333.28 1624.46,-326.34"/>
</g>
<!-- Node68 -->
<g id="node38" class="node">
<title>Node68</title>
<g id="a_node38"><a xlink:href="m__Do__ext_8h.html" target="_top" xlink:title=" ">
<polygon fill="#fff0f0" stroke="red" points="1992.5,-288.5 1862.5,-288.5 1862.5,-269.5 1992.5,-269.5 1992.5,-288.5"/>
<text text-anchor="middle" x="1927.5" y="-276.5" font-family="Helvetica,sans-Serif" font-size="10.00">include/m_Do/m_Do_ext.h</text>
</a>
</g>
</g>
<!-- Node47&#45;&gt;Node68 -->
<g id="edge50" class="edge">
<title>Node47&#45;&gt;Node68</title>
<path fill="none" stroke="#63b8ff" d="M1624.36,-329.7C1716.88,-313.77 1812.08,-298.37 1870.96,-288.97"/>
<polygon fill="#63b8ff" stroke="#63b8ff" points="1623.84,-326.23 1614.59,-331.38 1625.04,-333.13 1623.84,-326.23"/>
</g>
<!-- Node208 -->
<g id="node44" class="node">
<title>Node208</title>
<g id="a_node44"><a xlink:href="d__a__do_8h.html" target="_top" xlink:title=" ">
<polygon fill="white" stroke="#666666" points="2622.5,-228 2526.5,-228 2526.5,-198 2622.5,-198 2622.5,-228"/>
<text text-anchor="start" x="2534.5" y="-216" font-family="Helvetica,sans-Serif" font-size="10.00">include/rel/d/a/d_a</text>
<text text-anchor="middle" x="2574.5" y="-205" font-family="Helvetica,sans-Serif" font-size="10.00">_do/d_a_do.h</text>
</a>
</g>
</g>
<!-- Node47&#45;&gt;Node208 -->
<g id="edge66" class="edge">
<title>Node47&#45;&gt;Node208</title>
<path fill="none" stroke="#63b8ff" d="M1624.67,-329.78C1792.03,-307.09 1836.95,-312.33 2001.5,-294 2231.28,-268.4 2290.2,-270.31 2517.5,-228 2520.31,-227.48 2523.18,-226.9 2526.07,-226.29"/>
<polygon fill="#63b8ff" stroke="#63b8ff" points="1624.4,-326.29 1614.97,-331.11 1625.35,-333.22 1624.4,-326.29"/>
</g>
<!-- Node324 -->
<g id="node49" class="node">
<title>Node324</title>
<g id="a_node49"><a xlink:href="J3DAnimation_8cpp.html" target="_top" xlink:title=" ">
<polygon fill="white" stroke="#666666" points="1624.5,-294 1466.5,-294 1466.5,-264 1624.5,-264 1624.5,-294"/>
<text text-anchor="start" x="1474.5" y="-282" font-family="Helvetica,sans-Serif" font-size="10.00">libs/JSystem/J3DGraphAnimator</text>
<text text-anchor="middle" x="1545.5" y="-271" font-family="Helvetica,sans-Serif" font-size="10.00">/J3DAnimation.cpp</text>
</a>
</g>
</g>
<!-- Node47&#45;&gt;Node324 -->
<g id="edge68" class="edge">
<title>Node47&#45;&gt;Node324</title>
<path fill="none" stroke="#63b8ff" d="M1545.5,-318.39C1545.5,-310.13 1545.5,-301.28 1545.5,-294.16"/>
<polygon fill="#63b8ff" stroke="#63b8ff" points="1542,-318.28 1545.5,-328.28 1549,-318.28 1542,-318.28"/>
</g>
<!-- Node49 -->
<g id="node29" class="node">
<title>Node49</title>
<g id="a_node29"><a xlink:href="d__a__alink_8h.html" target="_top" xlink:title=" ">
<polygon fill="#fff0f0" stroke="red" points="2362.5,-156.5 2246.5,-156.5 2246.5,-137.5 2362.5,-137.5 2362.5,-156.5"/>
<text text-anchor="middle" x="2304.5" y="-144.5" font-family="Helvetica,sans-Serif" font-size="10.00">include/d/a/d_a_alink.h</text>
</a>
</g>
</g>
<!-- Node48&#45;&gt;Node49 -->
<g id="edge39" class="edge">
<title>Node48&#45;&gt;Node49</title>
<path fill="none" stroke="#63b8ff" d="M2628.86,-197.63C2514.34,-179.81 2482.85,-181.32 2371.5,-162 2362.95,-160.52 2353.83,-158.74 2345.16,-156.96"/>
<polygon fill="#63b8ff" stroke="#63b8ff" points="2628.28,-201.08 2638.71,-199.18 2629.37,-194.17 2628.28,-201.08"/>
</g>
<!-- Node56 -->
<g id="node30" class="node">
<title>Node56</title>
<g id="a_node30"><a xlink:href="d__a__npc_8h.html" target="_top" xlink:title=" ">
<polygon fill="#fff0f0" stroke="red" points="2612,-156.5 2501,-156.5 2501,-137.5 2612,-137.5 2612,-156.5"/>
<text text-anchor="middle" x="2556.5" y="-144.5" font-family="Helvetica,sans-Serif" font-size="10.00">include/d/a/d_a_npc.h</text>
</a>
</g>
</g>
<!-- Node48&#45;&gt;Node56 -->
<g id="edge42" class="edge">
<title>Node48&#45;&gt;Node56</title>
<path fill="none" stroke="#63b8ff" d="M2664.61,-193.22C2636.05,-181.27 2600.35,-166.34 2577.98,-156.99"/>
<polygon fill="#63b8ff" stroke="#63b8ff" points="2663.19,-196.42 2673.77,-197.05 2665.89,-189.97 2663.19,-196.42"/>
</g>
<!-- Node61 -->
<g id="node31" class="node">
<title>Node61</title>
<g id="a_node31"><a xlink:href="J3DJoint_8cpp.html" target="_top" xlink:title=" ">
<polygon fill="white" stroke="#666666" points="2788.5,-162 2630.5,-162 2630.5,-132 2788.5,-132 2788.5,-162"/>
<text text-anchor="start" x="2638.5" y="-150" font-family="Helvetica,sans-Serif" font-size="10.00">libs/JSystem/J3DGraphAnimator</text>
<text text-anchor="middle" x="2709.5" y="-139" font-family="Helvetica,sans-Serif" font-size="10.00">/J3DJoint.cpp</text>
</a>
</g>
</g>
<!-- Node48&#45;&gt;Node61 -->
<g id="edge43" class="edge">
<title>Node48&#45;&gt;Node61</title>
<path fill="none" stroke="#63b8ff" d="M2709.5,-186.39C2709.5,-178.13 2709.5,-169.28 2709.5,-162.16"/>
<polygon fill="#63b8ff" stroke="#63b8ff" points="2706,-186.28 2709.5,-196.28 2713,-186.28 2706,-186.28"/>
</g>
<!-- Node62 -->
<g id="node32" class="node">
<title>Node62</title>
<g id="a_node32"><a xlink:href="J3DMaterialAnm_8cpp.html" target="_top" xlink:title=" ">
<polygon fill="white" stroke="#666666" points="2964.5,-162 2806.5,-162 2806.5,-132 2964.5,-132 2964.5,-162"/>
<text text-anchor="start" x="2814.5" y="-150" font-family="Helvetica,sans-Serif" font-size="10.00">libs/JSystem/J3DGraphAnimator</text>
<text text-anchor="middle" x="2885.5" y="-139" font-family="Helvetica,sans-Serif" font-size="10.00">/J3DMaterialAnm.cpp</text>
</a>
</g>
</g>
<!-- Node48&#45;&gt;Node62 -->
<g id="edge44" class="edge">
<title>Node48&#45;&gt;Node62</title>
<path fill="none" stroke="#63b8ff" d="M2759.54,-193.8C2786.89,-183.86 2820.29,-171.71 2845.83,-162.43"/>
<polygon fill="#63b8ff" stroke="#63b8ff" points="2758.62,-190.41 2750.42,-197.12 2761.01,-196.99 2758.62,-190.41"/>
</g>
<!-- Node63 -->
<g id="node33" class="node">
<title>Node63</title>
<g id="a_node33"><a xlink:href="J3DMaterialAttach_8cpp.html" target="_top" xlink:title=" ">
<polygon fill="white" stroke="#666666" points="3140.5,-162 2982.5,-162 2982.5,-132 3140.5,-132 3140.5,-162"/>
<text text-anchor="start" x="2990.5" y="-150" font-family="Helvetica,sans-Serif" font-size="10.00">libs/JSystem/J3DGraphAnimator</text>
<text text-anchor="middle" x="3061.5" y="-139" font-family="Helvetica,sans-Serif" font-size="10.00">/J3DMaterialAttach.cpp</text>
</a>
</g>
</g>
<!-- Node48&#45;&gt;Node63 -->
<g id="edge45" class="edge">
<title>Node48&#45;&gt;Node63</title>
<path fill="none" stroke="#63b8ff" d="M2789.87,-197.39C2847.47,-186.91 2924.7,-172.87 2982.08,-162.44"/>
<polygon fill="#63b8ff" stroke="#63b8ff" points="2789.33,-193.93 2780.11,-199.16 2790.58,-200.82 2789.33,-193.93"/>
</g>
<!-- Node64 -->
<g id="node34" class="node">
<title>Node64</title>
<g id="a_node34"><a xlink:href="J3DModel_8cpp.html" target="_top" xlink:title=" ">
<polygon fill="white" stroke="#666666" points="3316.5,-162 3158.5,-162 3158.5,-132 3316.5,-132 3316.5,-162"/>
<text text-anchor="start" x="3166.5" y="-150" font-family="Helvetica,sans-Serif" font-size="10.00">libs/JSystem/J3DGraphAnimator</text>
<text text-anchor="middle" x="3237.5" y="-139" font-family="Helvetica,sans-Serif" font-size="10.00">/J3DModel.cpp</text>
</a>
</g>
</g>
<!-- Node48&#45;&gt;Node64 -->
<g id="edge46" class="edge">
<title>Node48&#45;&gt;Node64</title>
<path fill="none" stroke="#63b8ff" d="M2790.25,-203.92C2878.6,-194.82 3024.34,-179.06 3149.5,-162 3152.41,-161.6 3155.38,-161.19 3158.37,-160.76"/>
<polygon fill="#63b8ff" stroke="#63b8ff" points="2790.06,-200.42 2780.47,-204.92 2790.78,-207.38 2790.06,-200.42"/>
</g>
<!-- Node65 -->
<g id="node35" class="node">
<title>Node65</title>
<g id="a_node35"><a xlink:href="J3DModelData_8cpp.html" target="_top" xlink:title=" ">
<polygon fill="white" stroke="#666666" points="3492.5,-162 3334.5,-162 3334.5,-132 3492.5,-132 3492.5,-162"/>
<text text-anchor="start" x="3342.5" y="-150" font-family="Helvetica,sans-Serif" font-size="10.00">libs/JSystem/J3DGraphAnimator</text>
<text text-anchor="middle" x="3413.5" y="-139" font-family="Helvetica,sans-Serif" font-size="10.00">/J3DModelData.cpp</text>
</a>
</g>
</g>
<!-- Node48&#45;&gt;Node65 -->
<g id="edge47" class="edge">
<title>Node48&#45;&gt;Node65</title>
<path fill="none" stroke="#63b8ff" d="M2790.38,-207.42C2908.31,-200.29 3134.25,-184.94 3325.5,-162 3328.42,-161.65 3331.39,-161.27 3334.39,-160.88"/>
<polygon fill="#63b8ff" stroke="#63b8ff" points="2790.24,-203.92 2780.47,-208.02 2790.66,-210.91 2790.24,-203.92"/>
</g>
<!-- Node66 -->
<g id="node36" class="node">
<title>Node66</title>
<g id="a_node36"><a xlink:href="d__resorce_8cpp.html" target="_top" xlink:title=" ">
<polygon fill="white" stroke="#666666" points="2482.5,-156.5 2380.5,-156.5 2380.5,-137.5 2482.5,-137.5 2482.5,-156.5"/>
<text text-anchor="middle" x="2431.5" y="-144.5" font-family="Helvetica,sans-Serif" font-size="10.00">src/d/d_resorce.cpp</text>
</a>
</g>
</g>
<!-- Node48&#45;&gt;Node66 -->
<g id="edge48" class="edge">
<title>Node48&#45;&gt;Node66</title>
<path fill="none" stroke="#63b8ff" d="M2635.7,-195.01C2582.62,-182.79 2513.12,-166.79 2470.43,-156.96"/>
<polygon fill="#63b8ff" stroke="#63b8ff" points="2634.76,-198.39 2645.29,-197.22 2636.33,-191.56 2634.76,-198.39"/>
</g>
<!-- Node67 -->
<g id="node37" class="node">
<title>Node67</title>
<g id="a_node37"><a xlink:href="m__Do__ext_8cpp.html" target="_top" xlink:title=" ">
<polygon fill="white" stroke="#666666" points="2228,-156.5 2105,-156.5 2105,-137.5 2228,-137.5 2228,-156.5"/>
<text text-anchor="middle" x="2166.5" y="-144.5" font-family="Helvetica,sans-Serif" font-size="10.00">src/m_Do/m_Do_ext.cpp</text>
</a>
</g>
</g>
<!-- Node48&#45;&gt;Node67 -->
<g id="edge49" class="edge">
<title>Node48&#45;&gt;Node67</title>
<path fill="none" stroke="#63b8ff" d="M2628.88,-197.73C2455.27,-174.96 2407.89,-186.52 2237.5,-162 2227.92,-160.62 2217.69,-158.81 2208.05,-156.94"/>
<polygon fill="#63b8ff" stroke="#63b8ff" points="2628.35,-201.19 2638.73,-199.05 2629.28,-194.25 2628.35,-201.19"/>
</g>
<!-- Node49&#45;&gt;Node5 -->
<g id="edge40" class="edge">
<title>Node49&#45;&gt;Node5</title>
<path fill="none" stroke="#63b8ff" d="M2261.74,-134C2217.15,-121.48 2148.31,-102.16 2108.3,-90.93"/>
<polygon fill="#63b8ff" stroke="#63b8ff" points="2260.77,-137.36 2271.34,-136.69 2262.66,-130.62 2260.77,-137.36"/>
</g>
<!-- Node49&#45;&gt;Node10 -->
<g id="edge41" class="edge">
<title>Node49&#45;&gt;Node10</title>
<path fill="none" stroke="#63b8ff" d="M2294.73,-127.06C2289.64,-117.19 2283.52,-105.31 2278.84,-96.23"/>
<polygon fill="#63b8ff" stroke="#63b8ff" points="2291.52,-128.47 2299.22,-135.76 2297.75,-125.26 2291.52,-128.47"/>
</g>
<!-- Node68&#45;&gt;Node36 -->
<g id="edge62" class="edge">
<title>Node68&#45;&gt;Node36</title>
<path fill="none" stroke="#63b8ff" d="M1850.75,-273.34C1737.08,-266.03 1517.38,-250.37 1331.5,-228 1246.19,-217.73 1225.59,-209.98 1140.5,-198 1012.33,-179.96 971.23,-211.19 851.5,-162 831.27,-153.69 832.03,-141.85 812.5,-132 772.58,-111.87 723.32,-98.72 687.25,-90.98"/>
<polygon fill="#63b8ff" stroke="#63b8ff" points="1850.37,-276.82 1860.57,-273.96 1850.81,-269.83 1850.37,-276.82"/>
</g>
<!-- Node68&#45;&gt;Node67 -->
<g id="edge65" class="edge">
<title>Node68&#45;&gt;Node67</title>
<path fill="none" stroke="#63b8ff" d="M2003.59,-267.19C2036.36,-259.91 2073.86,-247.85 2103.5,-228 2131.7,-209.11 2153.04,-173.55 2161.94,-156.96"/>
<polygon fill="#63b8ff" stroke="#63b8ff" points="2003.23,-263.69 1994.16,-269.17 2004.67,-270.54 2003.23,-263.69"/>
</g>
<!-- Node69 -->
<g id="node39" class="node">
<title>Node69</title>
<g id="a_node39"><a xlink:href="d__attention_8h.html" target="_top" xlink:title=" ">
<polygon fill="#fff0f0" stroke="red" points="2380.5,-222.5 2266.5,-222.5 2266.5,-203.5 2380.5,-203.5 2380.5,-222.5"/>
<text text-anchor="middle" x="2323.5" y="-210.5" font-family="Helvetica,sans-Serif" font-size="10.00">include/d/d_attention.h</text>
</a>
</g>
</g>
<!-- Node68&#45;&gt;Node69 -->
<g id="edge51" class="edge">
<title>Node68&#45;&gt;Node69</title>
<path fill="none" stroke="#63b8ff" d="M2004.1,-267.69C2071.12,-258.36 2171,-243.71 2257.5,-228 2265.8,-226.49 2274.65,-224.73 2283.09,-222.96"/>
<polygon fill="#63b8ff" stroke="#63b8ff" points="2003.73,-264.21 1994.31,-269.05 2004.69,-271.14 2003.73,-264.21"/>
</g>
<!-- Node204 -->
<g id="node40" class="node">
<title>Node204</title>
<g id="a_node40"><a xlink:href="d__drawlist_8h.html" target="_top" xlink:title=" ">
<polygon fill="#fff0f0" stroke="red" points="1713.5,-222.5 1603.5,-222.5 1603.5,-203.5 1713.5,-203.5 1713.5,-222.5"/>
<text text-anchor="middle" x="1658.5" y="-210.5" font-family="Helvetica,sans-Serif" font-size="10.00">include/d/d_drawlist.h</text>
</a>
</g>
</g>
<!-- Node68&#45;&gt;Node204 -->
<g id="edge53" class="edge">
<title>Node68&#45;&gt;Node204</title>
<path fill="none" stroke="#63b8ff" d="M1878.75,-266.4C1826.18,-253.89 1743.63,-234.25 1695.93,-222.91"/>
<polygon fill="#63b8ff" stroke="#63b8ff" points="1877.8,-269.77 1888.34,-268.68 1879.42,-262.96 1877.8,-269.77"/>
</g>
<!-- Node242 -->
<g id="node41" class="node">
<title>Node242</title>
<g id="a_node41"><a xlink:href="d__ky__thunder_8h.html" target="_top" xlink:title=" ">
<polygon fill="#fff0f0" stroke="red" points="1855.5,-222.5 1731.5,-222.5 1731.5,-203.5 1855.5,-203.5 1855.5,-222.5"/>
<text text-anchor="middle" x="1793.5" y="-210.5" font-family="Helvetica,sans-Serif" font-size="10.00">include/d/d_ky_thunder.h</text>
</a>
</g>
</g>
<!-- Node68&#45;&gt;Node242 -->
<g id="edge54" class="edge">
<title>Node68&#45;&gt;Node242</title>
<path fill="none" stroke="#63b8ff" d="M1898.75,-264.27C1872.48,-251.72 1834.4,-233.54 1811.97,-222.82"/>
<polygon fill="#63b8ff" stroke="#63b8ff" points="1896.97,-267.3 1907.5,-268.45 1899.99,-260.98 1896.97,-267.3"/>
</g>
<!-- Node243 -->
<g id="node42" class="node">
<title>Node243</title>
<g id="a_node42"><a xlink:href="d__resorce_8h.html" target="_top" xlink:title=" ">
<polygon fill="#fff0f0" stroke="red" points="2508,-222.5 2399,-222.5 2399,-203.5 2508,-203.5 2508,-222.5"/>
<text text-anchor="middle" x="2453.5" y="-210.5" font-family="Helvetica,sans-Serif" font-size="10.00">include/d/d_resorce.h</text>
</a>
</g>
</g>
<!-- Node68&#45;&gt;Node243 -->
<g id="edge55" class="edge">
<title>Node68&#45;&gt;Node243</title>
<path fill="none" stroke="#63b8ff" d="M2004.26,-272.24C2096.21,-264.74 2254.72,-249.97 2389.5,-228 2398.03,-226.61 2407.14,-224.81 2415.73,-222.97"/>
<polygon fill="#63b8ff" stroke="#63b8ff" points="2004.03,-268.74 1994.34,-273.04 2004.59,-275.72 2004.03,-268.74"/>
</g>
<!-- Node244 -->
<g id="node43" class="node">
<title>Node244</title>
<g id="a_node43"><a xlink:href="d__kankyo_8h.html" target="_top" xlink:title=" ">
<polygon fill="#fff0f0" stroke="red" points="2248.5,-228 2150.5,-228 2150.5,-198 2248.5,-198 2248.5,-228"/>
<text text-anchor="start" x="2158.5" y="-216" font-family="Helvetica,sans-Serif" font-size="10.00">include/d/kankyo/d</text>
<text text-anchor="middle" x="2199.5" y="-205" font-family="Helvetica,sans-Serif" font-size="10.00">_kankyo.h</text>
</a>
</g>
</g>
<!-- Node68&#45;&gt;Node244 -->
<g id="edge57" class="edge">
<title>Node68&#45;&gt;Node244</title>
<path fill="none" stroke="#63b8ff" d="M1976.59,-266.45C2025.73,-254.89 2100.91,-237.2 2150.14,-225.61"/>
<polygon fill="#63b8ff" stroke="#63b8ff" points="1976.01,-262.99 1967.08,-268.69 1977.62,-269.8 1976.01,-262.99"/>
</g>
<!-- Node68&#45;&gt;Node208 -->
<g id="edge59" class="edge">
<title>Node68&#45;&gt;Node208</title>
<path fill="none" stroke="#63b8ff" d="M2004.22,-275.33C2117.24,-270.52 2334.84,-257.98 2517.5,-228 2520.32,-227.54 2523.2,-227.01 2526.1,-226.43"/>
<polygon fill="#63b8ff" stroke="#63b8ff" points="2004.31,-271.82 1994.47,-275.73 2004.6,-278.81 2004.31,-271.82"/>
</g>
<!-- Node317 -->
<g id="node45" class="node">
<title>Node317</title>
<g id="a_node45"><a xlink:href="DynamicLink_8cpp.html" target="_top" xlink:title=" ">
<polygon fill="white" stroke="#666666" points="1981,-222.5 1874,-222.5 1874,-203.5 1981,-203.5 1981,-222.5"/>
<text text-anchor="middle" x="1927.5" y="-210.5" font-family="Helvetica,sans-Serif" font-size="10.00">src/DynamicLink.cpp</text>
</a>
</g>
</g>
<!-- Node68&#45;&gt;Node317 -->
<g id="edge60" class="edge">
<title>Node68&#45;&gt;Node317</title>
<path fill="none" stroke="#63b8ff" d="M1927.5,-257.68C1927.5,-245.94 1927.5,-231.77 1927.5,-222.82"/>
<polygon fill="#63b8ff" stroke="#63b8ff" points="1924,-257.59 1927.5,-267.59 1931,-257.59 1924,-257.59"/>
</g>
<!-- Node153 -->
<g id="node46" class="node">
<title>Node153</title>
<g id="a_node46"><a xlink:href="c__dylink_8cpp.html" target="_top" xlink:title=" ">
<polygon fill="white" stroke="#666666" points="2094,-222.5 1999,-222.5 1999,-203.5 2094,-203.5 2094,-222.5"/>
<text text-anchor="middle" x="2046.5" y="-210.5" font-family="Helvetica,sans-Serif" font-size="10.00">src/c/c_dylink.cpp</text>
</a>
</g>
</g>
<!-- Node68&#45;&gt;Node153 -->
<g id="edge61" class="edge">
<title>Node68&#45;&gt;Node153</title>
<path fill="none" stroke="#63b8ff" d="M1953.97,-263.76C1977.26,-251.24 2010.44,-233.39 2030.09,-222.82"/>
<polygon fill="#63b8ff" stroke="#63b8ff" points="1952.53,-260.57 1945.38,-268.38 1955.84,-266.73 1952.53,-260.57"/>
</g>
<!-- Node318 -->
<g id="node47" class="node">
<title>Node318</title>
<g id="a_node47"><a xlink:href="d__pane__class__alpha_8cpp.html" target="_top" xlink:title=" ">
<polygon fill="white" stroke="#666666" points="1466,-228 1341,-228 1341,-198 1466,-198 1466,-228"/>
<text text-anchor="start" x="1349" y="-216" font-family="Helvetica,sans-Serif" font-size="10.00">src/d/pane/d_pane_class</text>
<text text-anchor="middle" x="1403.5" y="-205" font-family="Helvetica,sans-Serif" font-size="10.00">_alpha.cpp</text>
</a>
</g>
</g>
<!-- Node68&#45;&gt;Node318 -->
<g id="edge63" class="edge">
<title>Node68&#45;&gt;Node318</title>
<path fill="none" stroke="#63b8ff" d="M1850.78,-271.53C1760.47,-263.45 1606.12,-248.2 1474.5,-228 1471.77,-227.58 1468.98,-227.13 1466.17,-226.66"/>
<polygon fill="#63b8ff" stroke="#63b8ff" points="1850.23,-275 1860.5,-272.39 1850.85,-268.02 1850.23,-275"/>
</g>
<!-- Node145 -->
<g id="node48" class="node">
<title>Node145</title>
<g id="a_node48"><a xlink:href="f__op__actor__mng_8cpp.html" target="_top" xlink:title=" ">
<polygon fill="white" stroke="#666666" points="1585,-228 1484,-228 1484,-198 1585,-198 1585,-228"/>
<text text-anchor="start" x="1492" y="-216" font-family="Helvetica,sans-Serif" font-size="10.00">src/f_op/f_op_actor</text>
<text text-anchor="middle" x="1534.5" y="-205" font-family="Helvetica,sans-Serif" font-size="10.00">_mng.cpp</text>
</a>
</g>
</g>
<!-- Node68&#45;&gt;Node145 -->
<g id="edge64" class="edge">
<title>Node68&#45;&gt;Node145</title>
<path fill="none" stroke="#63b8ff" d="M1850.75,-268.26C1783.07,-259.24 1681.89,-244.73 1594.5,-228 1591.45,-227.42 1588.33,-226.79 1585.18,-226.13"/>
<polygon fill="#63b8ff" stroke="#63b8ff" points="1850.28,-271.72 1860.65,-269.57 1851.2,-264.78 1850.28,-271.72"/>
</g>
<!-- Node69&#45;&gt;Node49 -->
<g id="edge52" class="edge">
<title>Node69&#45;&gt;Node49</title>
<path fill="none" stroke="#63b8ff" d="M2317.69,-192.43C2314.16,-180.55 2309.83,-165.96 2307.12,-156.82"/>
<polygon fill="#63b8ff" stroke="#63b8ff" points="2314.23,-193.06 2320.43,-201.65 2320.94,-191.07 2314.23,-193.06"/>
</g>
<!-- Node243&#45;&gt;Node66 -->
<g id="edge56" class="edge">
<title>Node243&#45;&gt;Node66</title>
<path fill="none" stroke="#63b8ff" d="M2446.77,-192.43C2442.69,-180.55 2437.68,-165.96 2434.53,-156.82"/>
<polygon fill="#63b8ff" stroke="#63b8ff" points="2443.39,-193.35 2449.95,-201.67 2450.01,-191.08 2443.39,-193.35"/>
</g>
<!-- Node244&#45;&gt;Node67 -->
<g id="edge58" class="edge">
<title>Node244&#45;&gt;Node67</title>
<path fill="none" stroke="#63b8ff" d="M2186.92,-187.6C2181.35,-176.8 2175.15,-164.78 2171.06,-156.84"/>
<polygon fill="#63b8ff" stroke="#63b8ff" points="2183.79,-189.17 2191.48,-196.45 2190.01,-185.96 2183.79,-189.17"/>
</g>
</g>
</svg>
