<?xml version="1.0" encoding="UTF-8" standalone="no"?>
<!DOCTYPE svg PUBLIC "-//W3C//DTD SVG 1.1//EN"
 "http://www.w3.org/Graphics/SVG/1.1/DTD/svg11.dtd">
<!-- Generated by graphviz version 7.0.5 (20221223.1930)
 -->
<!-- Title: libs/TRK_MINNOW_DOLPHIN/MetroTRK/Portable/mutex_TRK.c Pages: 1 -->
<svg width="213pt" height="269pt"
 viewBox="0.00 0.00 213.00 269.00" xmlns="http://www.w3.org/2000/svg" xmlns:xlink="http://www.w3.org/1999/xlink">
<g id="graph0" class="graph" transform="scale(1 1) rotate(0) translate(4 265)">
<title>libs/TRK_MINNOW_DOLPHIN/MetroTRK/Portable/mutex_TRK.c</title>
<!-- Node1 -->
<g id="node1" class="node">
<title>Node1</title>
<g id="a_node1"><a xlink:title=" ">
<polygon fill="#999999" stroke="#666666" points="205,-261 41,-261 41,-231 205,-231 205,-261"/>
<text text-anchor="start" x="49" y="-249" font-family="Helvetica,sans-Serif" font-size="10.00">libs/TRK_MINNOW_DOLPHIN</text>
<text text-anchor="middle" x="123" y="-238" font-family="Helvetica,sans-Serif" font-size="10.00">/MetroTRK/Portable/mutex_TRK.c</text>
</a>
</g>
</g>
<!-- Node2 -->
<g id="node2" class="node">
<title>Node2</title>
<g id="a_node2"><a xlink:href="trk_8h.html" target="_top" xlink:title=" ">
<polygon fill="white" stroke="#666666" points="140.5,-195 105.5,-195 105.5,-176 140.5,-176 140.5,-195"/>
<text text-anchor="middle" x="123" y="-183" font-family="Helvetica,sans-Serif" font-size="10.00">trk.h</text>
</a>
</g>
</g>
<!-- Node1&#45;&gt;Node2 -->
<g id="edge1" class="edge">
<title>Node1&#45;&gt;Node2</title>
<path fill="none" stroke="#63b8ff" d="M123,-230.54C123,-223.34 123,-214.53 123,-206.68"/>
<polygon fill="#63b8ff" stroke="#63b8ff" points="126.5,-206.69 123,-196.69 119.5,-206.69 126.5,-206.69"/>
</g>
<!-- Node3 -->
<g id="node3" class="node">
<title>Node3</title>
<g id="a_node3"><a xlink:href="msgbuf_8h.html" target="_top" xlink:title=" ">
<polygon fill="white" stroke="#666666" points="146,-140 0,-140 0,-110 146,-110 146,-140"/>
<text text-anchor="start" x="8" y="-128" font-family="Helvetica,sans-Serif" font-size="10.00">TRK_MINNOW_DOLPHIN</text>
<text text-anchor="middle" x="73" y="-117" font-family="Helvetica,sans-Serif" font-size="10.00">/MetroTRK/Portable/msgbuf.h</text>
</a>
</g>
</g>
<!-- Node2&#45;&gt;Node3 -->
<g id="edge2" class="edge">
<title>Node2&#45;&gt;Node3</title>
<path fill="none" stroke="#63b8ff" d="M115.62,-175.87C109.53,-168.74 100.59,-158.28 92.48,-148.79"/>
<polygon fill="#63b8ff" stroke="#63b8ff" points="95.2,-146.59 86.05,-141.27 89.88,-151.14 95.2,-146.59"/>
</g>
<!-- Node4 -->
<g id="node4" class="node">
<title>Node4</title>
<g id="a_node4"><a xlink:href="types_8h.html" target="_top" xlink:title=" ">
<polygon fill="white" stroke="#666666" points="163.5,-74 82.5,-74 82.5,-55 163.5,-55 163.5,-74"/>
<text text-anchor="middle" x="123" y="-62" font-family="Helvetica,sans-Serif" font-size="10.00">dolphin/types.h</text>
</a>
</g>
</g>
<!-- Node2&#45;&gt;Node4 -->
<g id="edge5" class="edge">
<title>Node2&#45;&gt;Node4</title>
<path fill="none" stroke="#63b8ff" d="M132.05,-175.58C139.84,-167.22 150.51,-153.95 155,-140 159.09,-127.31 159.09,-122.69 155,-110 151.84,-100.19 145.63,-90.72 139.51,-83.05"/>
<polygon fill="#63b8ff" stroke="#63b8ff" points="142.23,-80.84 133.04,-75.57 136.93,-85.42 142.23,-80.84"/>
</g>
<!-- Node3&#45;&gt;Node4 -->
<g id="edge3" class="edge">
<title>Node3&#45;&gt;Node4</title>
<path fill="none" stroke="#63b8ff" d="M85.36,-109.54C92.25,-101.48 100.88,-91.38 108.14,-82.89"/>
<polygon fill="#63b8ff" stroke="#63b8ff" points="110.77,-85.2 114.6,-75.33 105.44,-80.65 110.77,-85.2"/>
</g>
<!-- Node5 -->
<g id="node5" class="node">
<title>Node5</title>
<g id="a_node5"><a xlink:href="stddef_8h.html" target="_top" xlink:title=" ">
<polygon fill="white" stroke="#666666" points="148.5,-19 97.5,-19 97.5,0 148.5,0 148.5,-19"/>
<text text-anchor="middle" x="123" y="-7" font-family="Helvetica,sans-Serif" font-size="10.00">stddef.h</text>
</a>
</g>
</g>
<!-- Node4&#45;&gt;Node5 -->
<g id="edge4" class="edge">
<title>Node4&#45;&gt;Node5</title>
<path fill="none" stroke="#63b8ff" d="M123,-54.75C123,-48.27 123,-39.16 123,-30.9"/>
<polygon fill="#63b8ff" stroke="#63b8ff" points="126.5,-30.96 123,-20.96 119.5,-30.96 126.5,-30.96"/>
</g>
</g>
</svg>
