<?xml version="1.0" encoding="UTF-8" standalone="no"?>
<!DOCTYPE svg PUBLIC "-//W3C//DTD SVG 1.1//EN"
 "http://www.w3.org/Graphics/SVG/1.1/DTD/svg11.dtd">
<!-- Generated by graphviz version 7.0.5 (20221223.1930)
 -->
<!-- Title: include/dolphin/os/OSArena.h Pages: 1 -->
<svg width="6653pt" height="159pt"
 viewBox="0.00 0.00 6652.50 159.00" xmlns="http://www.w3.org/2000/svg" xmlns:xlink="http://www.w3.org/1999/xlink">
<g id="graph0" class="graph" transform="scale(1 1) rotate(0) translate(4 155)">
<title>include/dolphin/os/OSArena.h</title>
<!-- Node1 -->
<g id="node1" class="node">
<title>Node1</title>
<g id="a_node1"><a xlink:title=" ">
<polygon fill="#999999" stroke="#666666" points="3518,-151 3423,-151 3423,-121 3518,-121 3518,-151"/>
<text text-anchor="start" x="3431" y="-139" font-family="Helvetica,sans-Serif" font-size="10.00">include/dolphin/os</text>
<text text-anchor="middle" x="3470.5" y="-128" font-family="Helvetica,sans-Serif" font-size="10.00">/OSArena.h</text>
</a>
</g>
</g>
<!-- Node2 -->
<g id="node2" class="node">
<title>Node2</title>
<g id="a_node2"><a xlink:href="OS_8h.html" target="_top" xlink:title=" ">
<polygon fill="#fff0f0" stroke="red" points="3388,-85 3269,-85 3269,-66 3388,-66 3388,-85"/>
<text text-anchor="middle" x="3328.5" y="-73" font-family="Helvetica,sans-Serif" font-size="10.00">include/dolphin/os/OS.h</text>
</a>
</g>
</g>
<!-- Node1&#45;&gt;Node2 -->
<g id="edge1" class="edge">
<title>Node1&#45;&gt;Node2</title>
<path fill="none" stroke="#63b8ff" d="M3424.97,-116.24C3399.83,-105.89 3369.78,-93.51 3349.97,-85.35"/>
<polygon fill="#63b8ff" stroke="#63b8ff" points="3423.42,-119.39 3434,-119.96 3426.09,-112.92 3423.42,-119.39"/>
</g>
<!-- Node90 -->
<g id="node49" class="node">
<title>Node90</title>
<g id="a_node49"><a xlink:href="OSArena_8c.html" target="_top" xlink:title=" ">
<polygon fill="white" stroke="#666666" points="3535,-85 3406,-85 3406,-66 3535,-66 3535,-85"/>
<text text-anchor="middle" x="3470.5" y="-73" font-family="Helvetica,sans-Serif" font-size="10.00">libs/dolphin/os/OSArena.c</text>
</a>
</g>
</g>
<!-- Node1&#45;&gt;Node90 -->
<g id="edge48" class="edge">
<title>Node1&#45;&gt;Node90</title>
<path fill="none" stroke="#63b8ff" d="M3470.5,-109.3C3470.5,-100.65 3470.5,-91.58 3470.5,-85.18"/>
<polygon fill="#63b8ff" stroke="#63b8ff" points="3467,-109.03 3470.5,-119.03 3474,-109.03 3467,-109.03"/>
</g>
<!-- Node91 -->
<g id="node50" class="node">
<title>Node91</title>
<g id="a_node50"><a xlink:href="OSAudioSystem_8c.html" target="_top" xlink:title=" ">
<polygon fill="white" stroke="#666666" points="3714,-85 3553,-85 3553,-66 3714,-66 3714,-85"/>
<text text-anchor="middle" x="3633.5" y="-73" font-family="Helvetica,sans-Serif" font-size="10.00">libs/dolphin/os/OSAudioSystem.c</text>
</a>
</g>
</g>
<!-- Node1&#45;&gt;Node91 -->
<g id="edge49" class="edge">
<title>Node1&#45;&gt;Node91</title>
<path fill="none" stroke="#63b8ff" d="M3521.61,-116.66C3550.7,-106.22 3585.81,-93.61 3608.85,-85.35"/>
<polygon fill="#63b8ff" stroke="#63b8ff" points="3520.45,-113.36 3512.22,-120.03 3522.81,-119.94 3520.45,-113.36"/>
</g>
<!-- Node3 -->
<g id="node3" class="node">
<title>Node3</title>
<g id="a_node3"><a xlink:href="J2DAnimation_8cpp.html" target="_top" xlink:title=" ">
<polygon fill="white" stroke="#666666" points="119,-30 0,-30 0,0 119,0 119,-30"/>
<text text-anchor="start" x="8" y="-18" font-family="Helvetica,sans-Serif" font-size="10.00">libs/JSystem/J2DGraph</text>
<text text-anchor="middle" x="59.5" y="-7" font-family="Helvetica,sans-Serif" font-size="10.00">/J2DAnimation.cpp</text>
</a>
</g>
</g>
<!-- Node2&#45;&gt;Node3 -->
<g id="edge2" class="edge">
<title>Node2&#45;&gt;Node3</title>
<path fill="none" stroke="#63b8ff" d="M3257.52,-74.31C2815.55,-73 448.83,-64.42 128.5,-30 125.46,-29.67 122.36,-29.28 119.23,-28.83"/>
<polygon fill="#63b8ff" stroke="#63b8ff" points="3257.3,-77.81 3267.31,-74.34 3257.32,-70.81 3257.3,-77.81"/>
</g>
<!-- Node4 -->
<g id="node4" class="node">
<title>Node4</title>
<g id="a_node4"><a xlink:href="J3DModel_8cpp.html" target="_top" xlink:title=" ">
<polygon fill="white" stroke="#666666" points="295.5,-30 137.5,-30 137.5,0 295.5,0 295.5,-30"/>
<text text-anchor="start" x="145.5" y="-18" font-family="Helvetica,sans-Serif" font-size="10.00">libs/JSystem/J3DGraphAnimator</text>
<text text-anchor="middle" x="216.5" y="-7" font-family="Helvetica,sans-Serif" font-size="10.00">/J3DModel.cpp</text>
</a>
</g>
</g>
<!-- Node2&#45;&gt;Node4 -->
<g id="edge3" class="edge">
<title>Node2&#45;&gt;Node4</title>
<path fill="none" stroke="#63b8ff" d="M3257.4,-74.06C2829.66,-71.36 606.86,-56.14 304.5,-30 301.57,-29.75 298.59,-29.45 295.59,-29.13"/>
<polygon fill="#63b8ff" stroke="#63b8ff" points="3257.11,-77.56 3267.13,-74.13 3257.16,-70.56 3257.11,-77.56"/>
</g>
<!-- Node5 -->
<g id="node5" class="node">
<title>Node5</title>
<g id="a_node5"><a xlink:href="J3DModelData_8cpp.html" target="_top" xlink:title=" ">
<polygon fill="white" stroke="#666666" points="471.5,-30 313.5,-30 313.5,0 471.5,0 471.5,-30"/>
<text text-anchor="start" x="321.5" y="-18" font-family="Helvetica,sans-Serif" font-size="10.00">libs/JSystem/J3DGraphAnimator</text>
<text text-anchor="middle" x="392.5" y="-7" font-family="Helvetica,sans-Serif" font-size="10.00">/J3DModelData.cpp</text>
</a>
</g>
</g>
<!-- Node2&#45;&gt;Node5 -->
<g id="edge4" class="edge">
<title>Node2&#45;&gt;Node5</title>
<path fill="none" stroke="#63b8ff" d="M3257.12,-74.76C2872.52,-75.96 1043.67,-78.95 480.5,-30 477.57,-29.75 474.59,-29.45 471.59,-29.13"/>
<polygon fill="#63b8ff" stroke="#63b8ff" points="3257.1,-78.26 3267.09,-74.73 3257.08,-71.26 3257.1,-78.26"/>
</g>
<!-- Node6 -->
<g id="node6" class="node">
<title>Node6</title>
<g id="a_node6"><a xlink:href="J3DSkinDeform_8cpp.html" target="_top" xlink:title=" ">
<polygon fill="white" stroke="#666666" points="647.5,-30 489.5,-30 489.5,0 647.5,0 647.5,-30"/>
<text text-anchor="start" x="497.5" y="-18" font-family="Helvetica,sans-Serif" font-size="10.00">libs/JSystem/J3DGraphAnimator</text>
<text text-anchor="middle" x="568.5" y="-7" font-family="Helvetica,sans-Serif" font-size="10.00">/J3DSkinDeform.cpp</text>
</a>
</g>
</g>
<!-- Node2&#45;&gt;Node6 -->
<g id="edge5" class="edge">
<title>Node2&#45;&gt;Node6</title>
<path fill="none" stroke="#63b8ff" d="M3257.4,-74.67C2887.79,-75.38 1182.87,-76.02 656.5,-30 653.57,-29.74 650.59,-29.45 647.59,-29.12"/>
<polygon fill="#63b8ff" stroke="#63b8ff" points="3257.2,-78.18 3267.19,-74.66 3257.19,-71.18 3257.2,-78.18"/>
</g>
<!-- Node7 -->
<g id="node7" class="node">
<title>Node7</title>
<g id="a_node7"><a xlink:href="J3DMatBlock_8cpp.html" target="_top" xlink:title=" ">
<polygon fill="white" stroke="#666666" points="807.5,-30 665.5,-30 665.5,0 807.5,0 807.5,-30"/>
<text text-anchor="start" x="673.5" y="-18" font-family="Helvetica,sans-Serif" font-size="10.00">libs/JSystem/J3DGraphBase</text>
<text text-anchor="middle" x="736.5" y="-7" font-family="Helvetica,sans-Serif" font-size="10.00">/J3DMatBlock.cpp</text>
</a>
</g>
</g>
<!-- Node2&#45;&gt;Node7 -->
<g id="edge6" class="edge">
<title>Node2&#45;&gt;Node7</title>
<path fill="none" stroke="#63b8ff" d="M3257.1,-74.74C2900.36,-75.68 1308.86,-77.15 816.5,-30 813.69,-29.73 810.84,-29.42 807.95,-29.07"/>
<polygon fill="#63b8ff" stroke="#63b8ff" points="3257.02,-78.24 3267.01,-74.71 3257,-71.24 3257.02,-78.24"/>
</g>
<!-- Node8 -->
<g id="node8" class="node">
<title>Node8</title>
<g id="a_node8"><a xlink:href="J3DShape_8cpp.html" target="_top" xlink:title=" ">
<polygon fill="white" stroke="#666666" points="967.5,-30 825.5,-30 825.5,0 967.5,0 967.5,-30"/>
<text text-anchor="start" x="833.5" y="-18" font-family="Helvetica,sans-Serif" font-size="10.00">libs/JSystem/J3DGraphBase</text>
<text text-anchor="middle" x="896.5" y="-7" font-family="Helvetica,sans-Serif" font-size="10.00">/J3DShape.cpp</text>
</a>
</g>
</g>
<!-- Node2&#45;&gt;Node8 -->
<g id="edge7" class="edge">
<title>Node2&#45;&gt;Node8</title>
<path fill="none" stroke="#63b8ff" d="M3257.26,-74.63C2914.81,-75.06 1435.5,-74.24 976.5,-30 973.69,-29.73 970.84,-29.42 967.95,-29.07"/>
<polygon fill="#63b8ff" stroke="#63b8ff" points="3257.22,-78.14 3267.21,-74.62 3257.21,-71.14 3257.22,-78.14"/>
</g>
<!-- Node9 -->
<g id="node9" class="node">
<title>Node9</title>
<g id="a_node9"><a xlink:href="J3DSys_8cpp.html" target="_top" xlink:title=" ">
<polygon fill="white" stroke="#666666" points="1127.5,-30 985.5,-30 985.5,0 1127.5,0 1127.5,-30"/>
<text text-anchor="start" x="993.5" y="-18" font-family="Helvetica,sans-Serif" font-size="10.00">libs/JSystem/J3DGraphBase</text>
<text text-anchor="middle" x="1056.5" y="-7" font-family="Helvetica,sans-Serif" font-size="10.00">/J3DSys.cpp</text>
</a>
</g>
</g>
<!-- Node2&#45;&gt;Node9 -->
<g id="edge8" class="edge">
<title>Node2&#45;&gt;Node9</title>
<path fill="none" stroke="#63b8ff" d="M3257.34,-74.52C2929.47,-74.39 1562.16,-71.32 1136.5,-30 1133.69,-29.73 1130.84,-29.41 1127.96,-29.06"/>
<polygon fill="#63b8ff" stroke="#63b8ff" points="3257.05,-78.02 3267.05,-74.52 3257.05,-71.02 3257.05,-78.02"/>
</g>
<!-- Node10 -->
<g id="node10" class="node">
<title>Node10</title>
<g id="a_node10"><a xlink:href="J3DClusterLoader_8cpp.html" target="_top" xlink:title=" ">
<polygon fill="white" stroke="#666666" points="1295,-30 1146,-30 1146,0 1295,0 1295,-30"/>
<text text-anchor="start" x="1154" y="-18" font-family="Helvetica,sans-Serif" font-size="10.00">libs/JSystem/J3DGraphLoader</text>
<text text-anchor="middle" x="1220.5" y="-7" font-family="Helvetica,sans-Serif" font-size="10.00">/J3DClusterLoader.cpp</text>
</a>
</g>
</g>
<!-- Node2&#45;&gt;Node10 -->
<g id="edge9" class="edge">
<title>Node2&#45;&gt;Node10</title>
<path fill="none" stroke="#63b8ff" d="M3257.74,-74.32C2946.18,-73.34 1694.69,-67.09 1303.5,-30 1300.74,-29.74 1297.92,-29.44 1295.09,-29.11"/>
<polygon fill="#63b8ff" stroke="#63b8ff" points="3257.33,-77.82 3267.34,-74.35 3257.36,-70.82 3257.33,-77.82"/>
</g>
<!-- Node11 -->
<g id="node11" class="node">
<title>Node11</title>
<g id="a_node11"><a xlink:href="J3DShapeFactory_8cpp.html" target="_top" xlink:title=" ">
<polygon fill="white" stroke="#666666" points="1462,-30 1313,-30 1313,0 1462,0 1462,-30"/>
<text text-anchor="start" x="1321" y="-18" font-family="Helvetica,sans-Serif" font-size="10.00">libs/JSystem/J3DGraphLoader</text>
<text text-anchor="middle" x="1387.5" y="-7" font-family="Helvetica,sans-Serif" font-size="10.00">/J3DShapeFactory.cpp</text>
</a>
</g>
</g>
<!-- Node2&#45;&gt;Node11 -->
<g id="edge10" class="edge">
<title>Node2&#45;&gt;Node11</title>
<path fill="none" stroke="#63b8ff" d="M3257.39,-74.16C2961.53,-72.53 1826.88,-64.15 1470.5,-30 1467.74,-29.74 1464.93,-29.43 1462.09,-29.1"/>
<polygon fill="#63b8ff" stroke="#63b8ff" points="3257.27,-77.66 3267.28,-74.21 3257.3,-70.66 3257.27,-77.66"/>
</g>
<!-- Node12 -->
<g id="node12" class="node">
<title>Node12</title>
<g id="a_node12"><a xlink:href="JASAudioThread_8cpp.html" target="_top" xlink:title=" ">
<polygon fill="white" stroke="#666666" points="1591,-30 1480,-30 1480,0 1591,0 1591,-30"/>
<text text-anchor="start" x="1488" y="-18" font-family="Helvetica,sans-Serif" font-size="10.00">libs/JSystem/JAudio2</text>
<text text-anchor="middle" x="1535.5" y="-7" font-family="Helvetica,sans-Serif" font-size="10.00">/JASAudioThread.cpp</text>
</a>
</g>
</g>
<!-- Node2&#45;&gt;Node12 -->
<g id="edge11" class="edge">
<title>Node2&#45;&gt;Node12</title>
<path fill="none" stroke="#63b8ff" d="M3257.2,-74.47C2974.01,-74.06 1928.25,-69.82 1599.5,-30 1596.79,-29.67 1594.03,-29.28 1591.24,-28.85"/>
<polygon fill="#63b8ff" stroke="#63b8ff" points="3257.01,-77.97 3267.02,-74.48 3257.02,-70.97 3257.01,-77.97"/>
</g>
<!-- Node13 -->
<g id="node13" class="node">
<title>Node13</title>
<g id="a_node13"><a xlink:href="dsptask_8cpp.html" target="_top" xlink:title=" ">
<polygon fill="white" stroke="#666666" points="1720,-30 1609,-30 1609,0 1720,0 1720,-30"/>
<text text-anchor="start" x="1617" y="-18" font-family="Helvetica,sans-Serif" font-size="10.00">libs/JSystem/JAudio2</text>
<text text-anchor="middle" x="1664.5" y="-7" font-family="Helvetica,sans-Serif" font-size="10.00">/dsptask.cpp</text>
</a>
</g>
</g>
<!-- Node2&#45;&gt;Node13 -->
<g id="edge12" class="edge">
<title>Node2&#45;&gt;Node13</title>
<path fill="none" stroke="#63b8ff" d="M3257.66,-74.3C2988.71,-73.25 2030.85,-66.94 1728.5,-30 1725.79,-29.67 1723.03,-29.28 1720.24,-28.84"/>
<polygon fill="#63b8ff" stroke="#63b8ff" points="3257.29,-77.79 3267.3,-74.33 3257.31,-70.79 3257.29,-77.79"/>
</g>
<!-- Node14 -->
<g id="node14" class="node">
<title>Node14</title>
<g id="a_node14"><a xlink:href="osdsp_8cpp.html" target="_top" xlink:title=" ">
<polygon fill="white" stroke="#666666" points="1849,-30 1738,-30 1738,0 1849,0 1849,-30"/>
<text text-anchor="start" x="1746" y="-18" font-family="Helvetica,sans-Serif" font-size="10.00">libs/JSystem/JAudio2</text>
<text text-anchor="middle" x="1793.5" y="-7" font-family="Helvetica,sans-Serif" font-size="10.00">/osdsp.cpp</text>
</a>
</g>
</g>
<!-- Node2&#45;&gt;Node14 -->
<g id="edge13" class="edge">
<title>Node2&#45;&gt;Node14</title>
<path fill="none" stroke="#63b8ff" d="M3257.57,-74.06C3002.76,-72.22 2134.17,-63.58 1858.5,-30 1855.52,-29.64 1852.48,-29.2 1849.41,-28.72"/>
<polygon fill="#63b8ff" stroke="#63b8ff" points="3257.34,-77.56 3267.37,-74.13 3257.39,-70.56 3257.34,-77.56"/>
</g>
<!-- Node15 -->
<g id="node15" class="node">
<title>Node15</title>
<g id="a_node15"><a xlink:href="JFWDisplay_8cpp.html" target="_top" xlink:title=" ">
<polygon fill="white" stroke="#666666" points="1997.5,-30 1867.5,-30 1867.5,0 1997.5,0 1997.5,-30"/>
<text text-anchor="start" x="1875.5" y="-18" font-family="Helvetica,sans-Serif" font-size="10.00">libs/JSystem/JFramework</text>
<text text-anchor="middle" x="1932.5" y="-7" font-family="Helvetica,sans-Serif" font-size="10.00">/JFWDisplay.cpp</text>
</a>
</g>
</g>
<!-- Node2&#45;&gt;Node15 -->
<g id="edge14" class="edge">
<title>Node2&#45;&gt;Node15</title>
<path fill="none" stroke="#63b8ff" d="M3257.26,-73.54C3019.15,-70.12 2252.12,-57.21 2006.5,-30 2003.64,-29.68 2000.73,-29.32 1997.79,-28.91"/>
<polygon fill="#63b8ff" stroke="#63b8ff" points="3256.97,-77.04 3267.02,-73.68 3257.07,-70.04 3256.97,-77.04"/>
</g>
<!-- Node16 -->
<g id="node16" class="node">
<title>Node16</title>
<g id="a_node16"><a xlink:href="JKRAramPiece_8cpp.html" target="_top" xlink:title=" ">
<polygon fill="white" stroke="#666666" points="2125,-30 2016,-30 2016,0 2125,0 2125,-30"/>
<text text-anchor="start" x="2024" y="-18" font-family="Helvetica,sans-Serif" font-size="10.00">libs/JSystem/JKernel</text>
<text text-anchor="middle" x="2070.5" y="-7" font-family="Helvetica,sans-Serif" font-size="10.00">/JKRAramPiece.cpp</text>
</a>
</g>
</g>
<!-- Node2&#45;&gt;Node16 -->
<g id="edge15" class="edge">
<title>Node2&#45;&gt;Node16</title>
<path fill="none" stroke="#63b8ff" d="M3257.39,-73.55C3034.73,-70.29 2352.84,-58.22 2133.5,-30 2130.83,-29.66 2128.11,-29.26 2125.37,-28.81"/>
<polygon fill="#63b8ff" stroke="#63b8ff" points="3257.02,-77.04 3267.06,-73.69 3257.12,-70.04 3257.02,-77.04"/>
</g>
<!-- Node17 -->
<g id="node17" class="node">
<title>Node17</title>
<g id="a_node17"><a xlink:href="JKRDvdArchive_8cpp.html" target="_top" xlink:title=" ">
<polygon fill="white" stroke="#666666" points="2252,-30 2143,-30 2143,0 2252,0 2252,-30"/>
<text text-anchor="start" x="2151" y="-18" font-family="Helvetica,sans-Serif" font-size="10.00">libs/JSystem/JKernel</text>
<text text-anchor="middle" x="2197.5" y="-7" font-family="Helvetica,sans-Serif" font-size="10.00">/JKRDvdArchive.cpp</text>
</a>
</g>
</g>
<!-- Node2&#45;&gt;Node17 -->
<g id="edge16" class="edge">
<title>Node2&#45;&gt;Node17</title>
<path fill="none" stroke="#63b8ff" d="M3257.33,-73.18C3050.86,-69.09 2454.07,-55.34 2260.5,-30 2257.83,-29.65 2255.11,-29.24 2252.37,-28.79"/>
<polygon fill="#63b8ff" stroke="#63b8ff" points="3257.04,-76.67 3267.1,-73.37 3257.18,-69.68 3257.04,-76.67"/>
</g>
<!-- Node18 -->
<g id="node18" class="node">
<title>Node18</title>
<g id="a_node18"><a xlink:href="JKRHeap_8cpp.html" target="_top" xlink:title=" ">
<polygon fill="white" stroke="#666666" points="2379,-30 2270,-30 2270,0 2379,0 2379,-30"/>
<text text-anchor="start" x="2278" y="-18" font-family="Helvetica,sans-Serif" font-size="10.00">libs/JSystem/JKernel</text>
<text text-anchor="middle" x="2324.5" y="-7" font-family="Helvetica,sans-Serif" font-size="10.00">/JKRHeap.cpp</text>
</a>
</g>
</g>
<!-- Node2&#45;&gt;Node18 -->
<g id="edge17" class="edge">
<title>Node2&#45;&gt;Node18</title>
<path fill="none" stroke="#63b8ff" d="M3257.14,-75.2C3099.64,-75.85 2710.65,-72.55 2388.5,-30 2385.46,-29.6 2382.34,-29.12 2379.21,-28.6"/>
<polygon fill="#63b8ff" stroke="#63b8ff" points="3257.03,-78.7 3267.01,-75.15 3257,-71.7 3257.03,-78.7"/>
</g>
<!-- Node19 -->
<g id="node19" class="node">
<title>Node19</title>
<g id="a_node19"><a xlink:href="JPAChildShape_8cpp.html" target="_top" xlink:title=" ">
<polygon fill="white" stroke="#666666" points="2511.5,-30 2397.5,-30 2397.5,0 2511.5,0 2511.5,-30"/>
<text text-anchor="start" x="2405.5" y="-18" font-family="Helvetica,sans-Serif" font-size="10.00">libs/JSystem/JParticle</text>
<text text-anchor="middle" x="2454.5" y="-7" font-family="Helvetica,sans-Serif" font-size="10.00">/JPAChildShape.cpp</text>
</a>
</g>
</g>
<!-- Node2&#45;&gt;Node19 -->
<g id="edge18" class="edge">
<title>Node2&#45;&gt;Node19</title>
<path fill="none" stroke="#63b8ff" d="M3257.18,-74.25C3115.94,-72.95 2790.91,-65.91 2520.5,-30 2517.6,-29.61 2514.63,-29.17 2511.64,-28.68"/>
<polygon fill="#63b8ff" stroke="#63b8ff" points="3257.11,-77.75 3267.14,-74.33 3257.17,-70.75 3257.11,-77.75"/>
</g>
<!-- Node20 -->
<g id="node20" class="node">
<title>Node20</title>
<g id="a_node20"><a xlink:href="JPAExtraShape_8cpp.html" target="_top" xlink:title=" ">
<polygon fill="white" stroke="#666666" points="2643.5,-30 2529.5,-30 2529.5,0 2643.5,0 2643.5,-30"/>
<text text-anchor="start" x="2537.5" y="-18" font-family="Helvetica,sans-Serif" font-size="10.00">libs/JSystem/JParticle</text>
<text text-anchor="middle" x="2586.5" y="-7" font-family="Helvetica,sans-Serif" font-size="10.00">/JPAExtraShape.cpp</text>
</a>
</g>
</g>
<!-- Node2&#45;&gt;Node20 -->
<g id="edge19" class="edge">
<title>Node2&#45;&gt;Node20</title>
<path fill="none" stroke="#63b8ff" d="M3257.36,-73.16C3133.79,-70.1 2871.68,-60.3 2652.5,-30 2649.6,-29.6 2646.64,-29.14 2643.65,-28.65"/>
<polygon fill="#63b8ff" stroke="#63b8ff" points="3256.93,-76.66 3267.01,-73.4 3257.1,-69.66 3256.93,-76.66"/>
</g>
<!-- Node21 -->
<g id="node21" class="node">
<title>Node21</title>
<g id="a_node21"><a xlink:href="JUTConsole_8cpp.html" target="_top" xlink:title=" ">
<polygon fill="white" stroke="#666666" points="2767.5,-30 2661.5,-30 2661.5,0 2767.5,0 2767.5,-30"/>
<text text-anchor="start" x="2669.5" y="-18" font-family="Helvetica,sans-Serif" font-size="10.00">libs/JSystem/JUtility</text>
<text text-anchor="middle" x="2714.5" y="-7" font-family="Helvetica,sans-Serif" font-size="10.00">/JUTConsole.cpp</text>
</a>
</g>
</g>
<!-- Node2&#45;&gt;Node21 -->
<g id="edge20" class="edge">
<title>Node2&#45;&gt;Node21</title>
<path fill="none" stroke="#63b8ff" d="M3257.1,-71.98C3151.53,-67.51 2947.81,-56.11 2776.5,-30 2773.66,-29.57 2770.76,-29.08 2767.84,-28.55"/>
<polygon fill="#63b8ff" stroke="#63b8ff" points="3256.9,-75.47 3267.04,-72.39 3257.19,-68.48 3256.9,-75.47"/>
</g>
<!-- Node22 -->
<g id="node22" class="node">
<title>Node22</title>
<g id="a_node22"><a xlink:href="JUTException_8cpp.html" target="_top" xlink:title=" ">
<polygon fill="white" stroke="#666666" points="2891.5,-30 2785.5,-30 2785.5,0 2891.5,0 2891.5,-30"/>
<text text-anchor="start" x="2793.5" y="-18" font-family="Helvetica,sans-Serif" font-size="10.00">libs/JSystem/JUtility</text>
<text text-anchor="middle" x="2838.5" y="-7" font-family="Helvetica,sans-Serif" font-size="10.00">/JUTException.cpp</text>
</a>
</g>
</g>
<!-- Node2&#45;&gt;Node22 -->
<g id="edge21" class="edge">
<title>Node2&#45;&gt;Node22</title>
<path fill="none" stroke="#63b8ff" d="M3257.3,-69.69C3172.09,-63.34 3025.25,-50.5 2900.5,-30 2897.67,-29.53 2894.77,-29.02 2891.86,-28.47"/>
<polygon fill="#63b8ff" stroke="#63b8ff" points="3256.92,-73.17 3267.15,-70.42 3257.43,-66.19 3256.92,-73.17"/>
</g>
<!-- Node23 -->
<g id="node23" class="node">
<title>Node23</title>
<g id="a_node23"><a xlink:href="JUTPalette_8cpp.html" target="_top" xlink:title=" ">
<polygon fill="white" stroke="#666666" points="3015.5,-30 2909.5,-30 2909.5,0 3015.5,0 3015.5,-30"/>
<text text-anchor="start" x="2917.5" y="-18" font-family="Helvetica,sans-Serif" font-size="10.00">libs/JSystem/JUtility</text>
<text text-anchor="middle" x="2962.5" y="-7" font-family="Helvetica,sans-Serif" font-size="10.00">/JUTPalette.cpp</text>
</a>
</g>
</g>
<!-- Node2&#45;&gt;Node23 -->
<g id="edge22" class="edge">
<title>Node2&#45;&gt;Node23</title>
<path fill="none" stroke="#63b8ff" d="M3257.4,-65.66C3195.63,-57.61 3103.86,-44.75 3024.5,-30 3021.68,-29.48 3018.79,-28.91 3015.88,-28.33"/>
<polygon fill="#63b8ff" stroke="#63b8ff" points="3256.71,-69.1 3267.07,-66.91 3257.61,-62.16 3256.71,-69.1"/>
</g>
<!-- Node24 -->
<g id="node24" class="node">
<title>Node24</title>
<g id="a_node24"><a xlink:href="uart__console__io__gcn_8c.html" target="_top" xlink:title=" ">
<polygon fill="white" stroke="#666666" points="3167.5,-30 3033.5,-30 3033.5,0 3167.5,0 3167.5,-30"/>
<text text-anchor="start" x="3041.5" y="-18" font-family="Helvetica,sans-Serif" font-size="10.00">libs/MSL_C/PPC_EABI</text>
<text text-anchor="middle" x="3100.5" y="-7" font-family="Helvetica,sans-Serif" font-size="10.00">/Src/uart_console_io_gcn.c</text>
</a>
</g>
</g>
<!-- Node2&#45;&gt;Node24 -->
<g id="edge23" class="edge">
<title>Node2&#45;&gt;Node24</title>
<path fill="none" stroke="#63b8ff" d="M3283.11,-62.85C3246.79,-53.54 3195.69,-40.42 3156.78,-30.44"/>
<polygon fill="#63b8ff" stroke="#63b8ff" points="3281.85,-66.14 3292.41,-65.24 3283.59,-59.36 3281.85,-66.14"/>
</g>
<!-- Node25 -->
<g id="node25" class="node">
<title>Node25</title>
<g id="a_node25"><a xlink:href="GCN__Mem__Alloc_8c.html" target="_top" xlink:title=" ">
<polygon fill="white" stroke="#666666" points="3311,-30 3186,-30 3186,0 3311,0 3311,-30"/>
<text text-anchor="start" x="3194" y="-18" font-family="Helvetica,sans-Serif" font-size="10.00">libs/Runtime.PPCEABI.H</text>
<text text-anchor="middle" x="3248.5" y="-7" font-family="Helvetica,sans-Serif" font-size="10.00">/GCN_Mem_Alloc.c</text>
</a>
</g>
</g>
<!-- Node2&#45;&gt;Node25 -->
<g id="edge24" class="edge">
<title>Node2&#45;&gt;Node25</title>
<path fill="none" stroke="#63b8ff" d="M3307.39,-59.06C3295.27,-50.2 3280.13,-39.13 3268.25,-30.44"/>
<polygon fill="#63b8ff" stroke="#63b8ff" points="3304.99,-61.64 3315.13,-64.72 3309.12,-55.99 3304.99,-61.64"/>
</g>
<!-- Node26 -->
<g id="node26" class="node">
<title>Node26</title>
<g id="a_node26"><a xlink:href="MWCriticalSection__gc_8c.html" target="_top" xlink:title=" ">
<polygon fill="white" stroke="#666666" points="3487.5,-30 3329.5,-30 3329.5,0 3487.5,0 3487.5,-30"/>
<text text-anchor="start" x="3337.5" y="-18" font-family="Helvetica,sans-Serif" font-size="10.00">libs/TRK_MINNOW_DOLPHIN</text>
<text text-anchor="middle" x="3408.5" y="-7" font-family="Helvetica,sans-Serif" font-size="10.00">/utils/gc/MWCriticalSection_gc.c</text>
</a>
</g>
</g>
<!-- Node2&#45;&gt;Node26 -->
<g id="edge25" class="edge">
<title>Node2&#45;&gt;Node26</title>
<path fill="none" stroke="#63b8ff" d="M3349.61,-59.06C3361.73,-50.2 3376.87,-39.13 3388.75,-30.44"/>
<polygon fill="#63b8ff" stroke="#63b8ff" points="3347.88,-55.99 3341.87,-64.72 3352.01,-61.64 3347.88,-55.99"/>
</g>
<!-- Node27 -->
<g id="node27" class="node">
<title>Node27</title>
<g id="a_node27"><a xlink:href="Z2AudioMgr_8cpp.html" target="_top" xlink:title=" ">
<polygon fill="white" stroke="#666666" points="3663.5,-24.5 3505.5,-24.5 3505.5,-5.5 3663.5,-5.5 3663.5,-24.5"/>
<text text-anchor="middle" x="3584.5" y="-12.5" font-family="Helvetica,sans-Serif" font-size="10.00">libs/Z2AudioLib/Z2AudioMgr.cpp</text>
</a>
</g>
</g>
<!-- Node2&#45;&gt;Node27 -->
<g id="edge26" class="edge">
<title>Node2&#45;&gt;Node27</title>
<path fill="none" stroke="#63b8ff" d="M3378.6,-63.05C3427.42,-51.89 3500.65,-35.16 3545.34,-24.95"/>
<polygon fill="#63b8ff" stroke="#63b8ff" points="3378.1,-59.57 3369.14,-65.21 3379.66,-66.4 3378.1,-59.57"/>
</g>
<!-- Node28 -->
<g id="node28" class="node">
<title>Node28</title>
<g id="a_node28"><a xlink:href="Z2LinkMgr_8cpp.html" target="_top" xlink:title=" ">
<polygon fill="white" stroke="#666666" points="3833.5,-24.5 3681.5,-24.5 3681.5,-5.5 3833.5,-5.5 3833.5,-24.5"/>
<text text-anchor="middle" x="3757.5" y="-12.5" font-family="Helvetica,sans-Serif" font-size="10.00">libs/Z2AudioLib/Z2LinkMgr.cpp</text>
</a>
</g>
</g>
<!-- Node2&#45;&gt;Node28 -->
<g id="edge27" class="edge">
<title>Node2&#45;&gt;Node28</title>
<path fill="none" stroke="#63b8ff" d="M3399.69,-65.59C3484.59,-54.9 3621.45,-37.5 3672.5,-30 3683.01,-28.46 3694.22,-26.69 3704.95,-24.95"/>
<polygon fill="#63b8ff" stroke="#63b8ff" points="3399.31,-62.11 3389.82,-66.83 3400.18,-69.05 3399.31,-62.11"/>
</g>
<!-- Node29 -->
<g id="node29" class="node">
<title>Node29</title>
<g id="a_node29"><a xlink:href="Z2WolfHowlMgr_8cpp.html" target="_top" xlink:title=" ">
<polygon fill="white" stroke="#666666" points="3991.5,-30 3851.5,-30 3851.5,0 3991.5,0 3991.5,-30"/>
<text text-anchor="start" x="3859.5" y="-18" font-family="Helvetica,sans-Serif" font-size="10.00">libs/Z2AudioLib/Z2WolfHowl</text>
<text text-anchor="middle" x="3921.5" y="-7" font-family="Helvetica,sans-Serif" font-size="10.00">Mgr.cpp</text>
</a>
</g>
</g>
<!-- Node2&#45;&gt;Node29 -->
<g id="edge28" class="edge">
<title>Node2&#45;&gt;Node29</title>
<path fill="none" stroke="#63b8ff" d="M3399.66,-65.83C3596.84,-46.21 3649.35,-54.87 3842.5,-30 3845.4,-29.63 3848.36,-29.22 3851.34,-28.79"/>
<polygon fill="#63b8ff" stroke="#63b8ff" points="3399.43,-62.34 3389.83,-66.82 3400.13,-69.3 3399.43,-62.34"/>
</g>
<!-- Node30 -->
<g id="node30" class="node">
<title>Node30</title>
<g id="a_node30"><a xlink:href="ai_8c.html" target="_top" xlink:title=" ">
<polygon fill="white" stroke="#666666" points="4103.5,-24.5 4009.5,-24.5 4009.5,-5.5 4103.5,-5.5 4103.5,-24.5"/>
<text text-anchor="middle" x="4056.5" y="-12.5" font-family="Helvetica,sans-Serif" font-size="10.00">libs/dolphin/ai/ai.c</text>
</a>
</g>
</g>
<!-- Node2&#45;&gt;Node30 -->
<g id="edge29" class="edge">
<title>Node2&#45;&gt;Node30</title>
<path fill="none" stroke="#63b8ff" d="M3399.54,-65.89C3666.82,-42.36 3738.76,-70.18 4000.5,-30 4008.52,-28.77 4017.08,-26.91 4025.02,-24.96"/>
<polygon fill="#63b8ff" stroke="#63b8ff" points="3399.47,-62.38 3389.82,-66.76 3400.09,-69.35 3399.47,-62.38"/>
</g>
<!-- Node31 -->
<g id="node31" class="node">
<title>Node31</title>
<g id="a_node31"><a xlink:href="ar_8c.html" target="_top" xlink:title=" ">
<polygon fill="white" stroke="#666666" points="4217,-24.5 4122,-24.5 4122,-5.5 4217,-5.5 4217,-24.5"/>
<text text-anchor="middle" x="4169.5" y="-12.5" font-family="Helvetica,sans-Serif" font-size="10.00">libs/dolphin/ar/ar.c</text>
</a>
</g>
</g>
<!-- Node2&#45;&gt;Node31 -->
<g id="edge30" class="edge">
<title>Node2&#45;&gt;Node31</title>
<path fill="none" stroke="#63b8ff" d="M3399.68,-65.89C3716.47,-39.4 3801.37,-75.62 4112.5,-30 4120.77,-28.79 4129.59,-26.92 4137.76,-24.93"/>
<polygon fill="#63b8ff" stroke="#63b8ff" points="3399.49,-62.4 3389.82,-66.74 3400.08,-69.37 3399.49,-62.4"/>
</g>
<!-- Node32 -->
<g id="node32" class="node">
<title>Node32</title>
<g id="a_node32"><a xlink:href="arq_8c.html" target="_top" xlink:title=" ">
<polygon fill="white" stroke="#666666" points="4336,-24.5 4235,-24.5 4235,-5.5 4336,-5.5 4336,-24.5"/>
<text text-anchor="middle" x="4285.5" y="-12.5" font-family="Helvetica,sans-Serif" font-size="10.00">libs/dolphin/ar/arq.c</text>
</a>
</g>
</g>
<!-- Node2&#45;&gt;Node32 -->
<g id="edge31" class="edge">
<title>Node2&#45;&gt;Node32</title>
<path fill="none" stroke="#63b8ff" d="M3399.54,-65.92C3766.98,-36.33 3864.88,-80.29 4226.5,-30 4235.05,-28.81 4244.18,-26.95 4252.63,-24.96"/>
<polygon fill="#63b8ff" stroke="#63b8ff" points="3399.5,-62.41 3389.82,-66.71 3400.07,-69.39 3399.5,-62.41"/>
</g>
<!-- Node33 -->
<g id="node33" class="node">
<title>Node33</title>
<g id="a_node33"><a xlink:href="CARDBios_8c.html" target="_top" xlink:title=" ">
<polygon fill="white" stroke="#666666" points="4498.5,-24.5 4354.5,-24.5 4354.5,-5.5 4498.5,-5.5 4498.5,-24.5"/>
<text text-anchor="middle" x="4426.5" y="-12.5" font-family="Helvetica,sans-Serif" font-size="10.00">libs/dolphin/card/CARDBios.c</text>
</a>
</g>
</g>
<!-- Node2&#45;&gt;Node33 -->
<g id="edge32" class="edge">
<title>Node2&#45;&gt;Node33</title>
<path fill="none" stroke="#63b8ff" d="M3399.56,-65.92C3819.71,-32.92 3929.85,-73.62 4345.5,-30 4357,-28.79 4369.33,-26.95 4380.81,-24.99"/>
<polygon fill="#63b8ff" stroke="#63b8ff" points="3399.51,-62.42 3389.82,-66.7 3400.06,-69.39 3399.51,-62.42"/>
</g>
<!-- Node34 -->
<g id="node34" class="node">
<title>Node34</title>
<g id="a_node34"><a xlink:href="CARDUnlock_8c.html" target="_top" xlink:title=" ">
<polygon fill="white" stroke="#666666" points="4672,-24.5 4517,-24.5 4517,-5.5 4672,-5.5 4672,-24.5"/>
<text text-anchor="middle" x="4594.5" y="-12.5" font-family="Helvetica,sans-Serif" font-size="10.00">libs/dolphin/card/CARDUnlock.c</text>
</a>
</g>
</g>
<!-- Node2&#45;&gt;Node34 -->
<g id="edge33" class="edge">
<title>Node2&#45;&gt;Node34</title>
<path fill="none" stroke="#63b8ff" d="M3399.62,-65.93C3891.55,-28.53 4019.9,-76.95 4507.5,-30 4519.99,-28.8 4533.4,-26.93 4545.87,-24.94"/>
<polygon fill="#63b8ff" stroke="#63b8ff" points="3399.52,-62.43 3389.82,-66.68 3400.05,-69.4 3399.52,-62.43"/>
</g>
<!-- Node35 -->
<g id="node35" class="node">
<title>Node35</title>
<g id="a_node35"><a xlink:href="db_8c.html" target="_top" xlink:title=" ">
<polygon fill="white" stroke="#666666" points="4790.5,-24.5 4690.5,-24.5 4690.5,-5.5 4790.5,-5.5 4790.5,-24.5"/>
<text text-anchor="middle" x="4740.5" y="-12.5" font-family="Helvetica,sans-Serif" font-size="10.00">libs/dolphin/db/db.c</text>
</a>
</g>
</g>
<!-- Node2&#45;&gt;Node35 -->
<g id="edge34" class="edge">
<title>Node2&#45;&gt;Node35</title>
<path fill="none" stroke="#63b8ff" d="M3399.69,-65.93C3968.75,-24.12 4119.19,-103.8 4681.5,-30 4690.16,-28.86 4699.41,-26.99 4707.95,-24.98"/>
<polygon fill="#63b8ff" stroke="#63b8ff" points="3399.53,-62.44 3389.81,-66.67 3400.05,-69.42 3399.53,-62.44"/>
</g>
<!-- Node36 -->
<g id="node36" class="node">
<title>Node36</title>
<g id="a_node36"><a xlink:href="dsp_8c.html" target="_top" xlink:title=" ">
<polygon fill="white" stroke="#666666" points="4918.5,-24.5 4808.5,-24.5 4808.5,-5.5 4918.5,-5.5 4918.5,-24.5"/>
<text text-anchor="middle" x="4863.5" y="-12.5" font-family="Helvetica,sans-Serif" font-size="10.00">libs/dolphin/dsp/dsp.c</text>
</a>
</g>
</g>
<!-- Node2&#45;&gt;Node36 -->
<g id="edge35" class="edge">
<title>Node2&#45;&gt;Node36</title>
<path fill="none" stroke="#63b8ff" d="M3399.34,-65.96C4021.01,-20.83 4184.33,-104.5 4799.5,-30 4808.87,-28.87 4818.89,-26.99 4828.16,-24.98"/>
<polygon fill="#63b8ff" stroke="#63b8ff" points="3399.53,-62.44 3389.81,-66.66 3400.04,-69.42 3399.53,-62.44"/>
</g>
<!-- Node37 -->
<g id="node37" class="node">
<title>Node37</title>
<g id="a_node37"><a xlink:href="dvd_8c.html" target="_top" xlink:title=" ">
<polygon fill="white" stroke="#666666" points="5046.5,-24.5 4936.5,-24.5 4936.5,-5.5 5046.5,-5.5 5046.5,-24.5"/>
<text text-anchor="middle" x="4991.5" y="-12.5" font-family="Helvetica,sans-Serif" font-size="10.00">libs/dolphin/dvd/dvd.c</text>
</a>
</g>
</g>
<!-- Node2&#45;&gt;Node37 -->
<g id="edge36" class="edge">
<title>Node2&#45;&gt;Node37</title>
<path fill="none" stroke="#63b8ff" d="M3399.34,-65.97C4077.78,-17.37 4255.79,-110.61 4927.5,-30 4936.87,-28.88 4946.9,-27.01 4956.16,-25"/>
<polygon fill="#63b8ff" stroke="#63b8ff" points="3399.53,-62.44 3389.81,-66.66 3400.04,-69.42 3399.53,-62.44"/>
</g>
<!-- Node38 -->
<g id="node38" class="node">
<title>Node38</title>
<g id="a_node38"><a xlink:href="dvdfs_8c.html" target="_top" xlink:title=" ">
<polygon fill="white" stroke="#666666" points="5184,-24.5 5065,-24.5 5065,-5.5 5184,-5.5 5184,-24.5"/>
<text text-anchor="middle" x="5124.5" y="-12.5" font-family="Helvetica,sans-Serif" font-size="10.00">libs/dolphin/dvd/dvdfs.c</text>
</a>
</g>
</g>
<!-- Node2&#45;&gt;Node38 -->
<g id="edge37" class="edge">
<title>Node2&#45;&gt;Node38</title>
<path fill="none" stroke="#63b8ff" d="M3399.71,-65.94C4134.61,-13.88 4326.72,-111.19 5055.5,-30 5065.7,-28.86 5076.64,-26.97 5086.73,-24.93"/>
<polygon fill="#63b8ff" stroke="#63b8ff" points="3399.54,-62.44 3389.81,-66.65 3400.04,-69.43 3399.54,-62.44"/>
</g>
<!-- Node39 -->
<g id="node39" class="node">
<title>Node39</title>
<g id="a_node39"><a xlink:href="fstload_8c.html" target="_top" xlink:title=" ">
<polygon fill="white" stroke="#666666" points="5326.5,-24.5 5202.5,-24.5 5202.5,-5.5 5326.5,-5.5 5326.5,-24.5"/>
<text text-anchor="middle" x="5264.5" y="-12.5" font-family="Helvetica,sans-Serif" font-size="10.00">libs/dolphin/dvd/fstload.c</text>
</a>
</g>
</g>
<!-- Node2&#45;&gt;Node39 -->
<g id="edge38" class="edge">
<title>Node2&#45;&gt;Node39</title>
<path fill="none" stroke="#63b8ff" d="M3399.77,-65.94C4195.83,-10.13 4403.49,-115.15 5193.5,-30 5203.99,-28.87 5215.24,-26.97 5225.63,-24.94"/>
<polygon fill="#63b8ff" stroke="#63b8ff" points="3399.54,-62.45 3389.81,-66.65 3400.03,-69.43 3399.54,-62.45"/>
</g>
<!-- Node40 -->
<g id="node40" class="node">
<title>Node40</title>
<g id="a_node40"><a xlink:href="EXIBios_8c.html" target="_top" xlink:title=" ">
<polygon fill="white" stroke="#666666" points="5470.5,-24.5 5344.5,-24.5 5344.5,-5.5 5470.5,-5.5 5470.5,-24.5"/>
<text text-anchor="middle" x="5407.5" y="-12.5" font-family="Helvetica,sans-Serif" font-size="10.00">libs/dolphin/exi/EXIBios.c</text>
</a>
</g>
</g>
<!-- Node2&#45;&gt;Node40 -->
<g id="edge39" class="edge">
<title>Node2&#45;&gt;Node40</title>
<path fill="none" stroke="#63b8ff" d="M3399.69,-65.96C3845.58,-36.3 4910.81,-74.89 5335.5,-30 5346.14,-28.88 5357.55,-26.98 5368.07,-24.94"/>
<polygon fill="#63b8ff" stroke="#63b8ff" points="3399.55,-62.47 3389.81,-66.64 3400.03,-69.45 3399.55,-62.47"/>
</g>
<!-- Node41 -->
<g id="node41" class="node">
<title>Node41</title>
<g id="a_node41"><a xlink:href="EXIUart_8c.html" target="_top" xlink:title=" ">
<polygon fill="white" stroke="#666666" points="5614,-24.5 5489,-24.5 5489,-5.5 5614,-5.5 5614,-24.5"/>
<text text-anchor="middle" x="5551.5" y="-12.5" font-family="Helvetica,sans-Serif" font-size="10.00">libs/dolphin/exi/EXIUart.c</text>
</a>
</g>
</g>
<!-- Node2&#45;&gt;Node41 -->
<g id="edge40" class="edge">
<title>Node2&#45;&gt;Node41</title>
<path fill="none" stroke="#63b8ff" d="M3399.46,-65.98C3877.19,-34.36 5022.89,-77.97 5479.5,-30 5490.14,-28.88 5501.55,-26.99 5512.08,-24.95"/>
<polygon fill="#63b8ff" stroke="#63b8ff" points="3399.55,-62.47 3389.81,-66.64 3400.03,-69.45 3399.55,-62.47"/>
</g>
<!-- Node42 -->
<g id="node42" class="node">
<title>Node42</title>
<g id="a_node42"><a xlink:href="OS_8c.html" target="_top" xlink:title=" ">
<polygon fill="white" stroke="#666666" points="5736.5,-24.5 5632.5,-24.5 5632.5,-5.5 5736.5,-5.5 5736.5,-24.5"/>
<text text-anchor="middle" x="5684.5" y="-12.5" font-family="Helvetica,sans-Serif" font-size="10.00">libs/dolphin/os/OS.c</text>
</a>
</g>
</g>
<!-- Node2&#45;&gt;Node42 -->
<g id="edge41" class="edge">
<title>Node2&#45;&gt;Node42</title>
<path fill="none" stroke="#63b8ff" d="M3399.47,-65.98C3909.18,-32.55 5135.98,-89.22 5623.5,-30 5632.56,-28.9 5642.24,-27.01 5651.16,-24.98"/>
<polygon fill="#63b8ff" stroke="#63b8ff" points="3399.55,-62.47 3389.81,-66.64 3400.02,-69.45 3399.55,-62.47"/>
</g>
<!-- Node43 -->
<g id="node43" class="node">
<title>Node43</title>
<g id="a_node43"><a xlink:href="OSAlarm_8c.html" target="_top" xlink:title=" ">
<polygon fill="white" stroke="#666666" points="5884,-24.5 5755,-24.5 5755,-5.5 5884,-5.5 5884,-24.5"/>
<text text-anchor="middle" x="5819.5" y="-12.5" font-family="Helvetica,sans-Serif" font-size="10.00">libs/dolphin/os/OSAlarm.c</text>
</a>
</g>
</g>
<!-- Node2&#45;&gt;Node43 -->
<g id="edge42" class="edge">
<title>Node2&#45;&gt;Node43</title>
<path fill="none" stroke="#63b8ff" d="M3399.67,-65.97C3936.58,-30.79 5230,-82.32 5745.5,-30 5756.43,-28.89 5768.15,-27 5778.97,-24.97"/>
<polygon fill="#63b8ff" stroke="#63b8ff" points="3399.55,-62.47 3389.81,-66.63 3400.02,-69.45 3399.55,-62.47"/>
</g>
<!-- Node44 -->
<g id="node44" class="node">
<title>Node44</title>
<g id="a_node44"><a xlink:href="OSCache_8c.html" target="_top" xlink:title=" ">
<polygon fill="white" stroke="#666666" points="6033,-24.5 5902,-24.5 5902,-5.5 6033,-5.5 6033,-24.5"/>
<text text-anchor="middle" x="5967.5" y="-12.5" font-family="Helvetica,sans-Serif" font-size="10.00">libs/dolphin/os/OSCache.c</text>
</a>
</g>
</g>
<!-- Node2&#45;&gt;Node44 -->
<g id="edge43" class="edge">
<title>Node2&#45;&gt;Node44</title>
<path fill="none" stroke="#63b8ff" d="M3399.53,-65.98C3969.22,-28.79 5345.22,-85.4 5893.5,-30 5904.43,-28.9 5916.15,-27.01 5926.97,-24.97"/>
<polygon fill="#63b8ff" stroke="#63b8ff" points="3399.55,-62.47 3389.81,-66.63 3400.02,-69.45 3399.55,-62.47"/>
</g>
<!-- Node45 -->
<g id="node45" class="node">
<title>Node45</title>
<g id="a_node45"><a xlink:href="OSContext_8c.html" target="_top" xlink:title=" ">
<polygon fill="white" stroke="#666666" points="6188,-24.5 6051,-24.5 6051,-5.5 6188,-5.5 6188,-24.5"/>
<text text-anchor="middle" x="6119.5" y="-12.5" font-family="Helvetica,sans-Serif" font-size="10.00">libs/dolphin/os/OSContext.c</text>
</a>
</g>
</g>
<!-- Node2&#45;&gt;Node45 -->
<g id="edge44" class="edge">
<title>Node2&#45;&gt;Node45</title>
<path fill="none" stroke="#63b8ff" d="M3399.75,-65.97C4002.64,-26.77 5461.13,-86.41 6042.5,-30 6053.86,-28.9 6066.06,-27.01 6077.31,-24.97"/>
<polygon fill="#63b8ff" stroke="#63b8ff" points="3399.56,-62.47 3389.81,-66.63 3400.02,-69.46 3399.56,-62.47"/>
</g>
<!-- Node46 -->
<g id="node46" class="node">
<title>Node46</title>
<g id="a_node46"><a xlink:href="OSError_8c.html" target="_top" xlink:title=" ">
<polygon fill="white" stroke="#666666" points="6330.5,-24.5 6206.5,-24.5 6206.5,-5.5 6330.5,-5.5 6330.5,-24.5"/>
<text text-anchor="middle" x="6268.5" y="-12.5" font-family="Helvetica,sans-Serif" font-size="10.00">libs/dolphin/os/OSError.c</text>
</a>
</g>
</g>
<!-- Node2&#45;&gt;Node46 -->
<g id="edge45" class="edge">
<title>Node2&#45;&gt;Node46</title>
<path fill="none" stroke="#63b8ff" d="M3399.47,-65.98C4036.6,-24.72 5582.2,-94.08 6197.5,-30 6208,-28.91 6219.25,-27.02 6229.63,-24.99"/>
<polygon fill="#63b8ff" stroke="#63b8ff" points="3399.56,-62.47 3389.81,-66.63 3400.02,-69.46 3399.56,-62.47"/>
</g>
<!-- Node47 -->
<g id="node47" class="node">
<title>Node47</title>
<g id="a_node47"><a xlink:href="OSInterrupt_8c.html" target="_top" xlink:title=" ">
<polygon fill="white" stroke="#666666" points="6488.5,-24.5 6348.5,-24.5 6348.5,-5.5 6488.5,-5.5 6488.5,-24.5"/>
<text text-anchor="middle" x="6418.5" y="-12.5" font-family="Helvetica,sans-Serif" font-size="10.00">libs/dolphin/os/OSInterrupt.c</text>
</a>
</g>
</g>
<!-- Node2&#45;&gt;Node47 -->
<g id="edge46" class="edge">
<title>Node2&#45;&gt;Node47</title>
<path fill="none" stroke="#63b8ff" d="M3399.54,-65.98C4068.21,-22.74 5692.2,-90.9 6339.5,-30 6351.15,-28.9 6363.66,-27.02 6375.21,-24.98"/>
<polygon fill="#63b8ff" stroke="#63b8ff" points="3399.56,-62.47 3389.81,-66.62 3400.02,-69.46 3399.56,-62.47"/>
</g>
<!-- Node48 -->
<g id="node48" class="node">
<title>Node48</title>
<g id="a_node48"><a xlink:href="OSMemory_8c.html" target="_top" xlink:title=" ">
<polygon fill="white" stroke="#666666" points="6644.5,-24.5 6506.5,-24.5 6506.5,-5.5 6644.5,-5.5 6644.5,-24.5"/>
<text text-anchor="middle" x="6575.5" y="-12.5" font-family="Helvetica,sans-Serif" font-size="10.00">libs/dolphin/os/OSMemory.c</text>
</a>
</g>
</g>
<!-- Node2&#45;&gt;Node48 -->
<g id="edge47" class="edge">
<title>Node2&#45;&gt;Node48</title>
<path fill="none" stroke="#63b8ff" d="M3399.61,-65.98C4103.4,-20.62 5815.33,-94.73 6497.5,-30 6509.01,-28.91 6521.36,-27.03 6532.76,-24.99"/>
<polygon fill="#63b8ff" stroke="#63b8ff" points="3399.56,-62.47 3389.81,-66.62 3400.02,-69.46 3399.56,-62.47"/>
</g>
</g>
</svg>
