<?xml version="1.0" encoding="UTF-8" standalone="no"?>
<!DOCTYPE svg PUBLIC "-//W3C//DTD SVG 1.1//EN"
 "http://www.w3.org/Graphics/SVG/1.1/DTD/svg11.dtd">
<!-- Generated by graphviz version 7.0.5 (20221223.1930)
 -->
<!-- Title: include/dolphin/os/OSContext.h Pages: 1 -->
<svg width="5790pt" height="313pt"
 viewBox="0.00 0.00 5789.50 313.00" xmlns="http://www.w3.org/2000/svg" xmlns:xlink="http://www.w3.org/1999/xlink">
<g id="graph0" class="graph" transform="scale(1 1) rotate(0) translate(4 309)">
<title>include/dolphin/os/OSContext.h</title>
<!-- Node1 -->
<g id="node1" class="node">
<title>Node1</title>
<g id="a_node1"><a xlink:title=" ">
<polygon fill="#999999" stroke="#666666" points="3088.5,-305 2993.5,-305 2993.5,-275 3088.5,-275 3088.5,-305"/>
<text text-anchor="start" x="3001.5" y="-293" font-family="Helvetica,sans-Serif" font-size="10.00">include/dolphin/os</text>
<text text-anchor="middle" x="3041" y="-282" font-family="Helvetica,sans-Serif" font-size="10.00">/OSContext.h</text>
</a>
</g>
</g>
<!-- Node2 -->
<g id="node2" class="node">
<title>Node2</title>
<g id="a_node2"><a xlink:href="os_8h.html" target="_top" xlink:title=" ">
<polygon fill="#fff0f0" stroke="red" points="2856,-173 2754,-173 2754,-154 2856,-154 2856,-173"/>
<text text-anchor="middle" x="2805" y="-161" font-family="Helvetica,sans-Serif" font-size="10.00">include/dolphin/os.h</text>
</a>
</g>
</g>
<!-- Node1&#45;&gt;Node2 -->
<g id="edge1" class="edge">
<title>Node1&#45;&gt;Node2</title>
<path fill="none" stroke="#63b8ff" d="M2982.14,-282.36C2925.8,-274.82 2846.18,-260.67 2824,-239 2805.86,-221.28 2804.18,-188.82 2804.52,-173.27"/>
<polygon fill="#63b8ff" stroke="#63b8ff" points="2981.56,-285.82 2991.93,-283.63 2982.46,-278.87 2981.56,-285.82"/>
</g>
<!-- Node627 -->
<g id="node45" class="node">
<title>Node627</title>
<g id="a_node45"><a xlink:href="OSContext_8c.html" target="_top" xlink:title=" ">
<polygon fill="white" stroke="#666666" points="5781.5,-107 5644.5,-107 5644.5,-88 5781.5,-88 5781.5,-107"/>
<text text-anchor="middle" x="5713" y="-95" font-family="Helvetica,sans-Serif" font-size="10.00">libs/dolphin/os/OSContext.c</text>
</a>
</g>
</g>
<!-- Node1&#45;&gt;Node627 -->
<g id="edge57" class="edge">
<title>Node1&#45;&gt;Node627</title>
<path fill="none" stroke="#63b8ff" d="M3006.82,-268.51C2983.06,-251.81 2958.67,-227.97 2977,-209 3079.71,-102.71 5489.66,-138.79 5636,-118 5651.97,-115.73 5669.43,-111.46 5683.68,-107.5"/>
<polygon fill="#63b8ff" stroke="#63b8ff" points="3004.64,-271.26 3014.89,-273.91 3008.53,-265.44 3004.64,-271.26"/>
</g>
<!-- Node681 -->
<g id="node46" class="node">
<title>Node681</title>
<g id="a_node46"><a xlink:href="OSThread_8h.html" target="_top" xlink:title=" ">
<polygon fill="#fff0f0" stroke="red" points="2928.5,-239 2833.5,-239 2833.5,-209 2928.5,-209 2928.5,-239"/>
<text text-anchor="start" x="2841.5" y="-227" font-family="Helvetica,sans-Serif" font-size="10.00">include/dolphin/os</text>
<text text-anchor="middle" x="2881" y="-216" font-family="Helvetica,sans-Serif" font-size="10.00">/OSThread.h</text>
</a>
</g>
</g>
<!-- Node1&#45;&gt;Node681 -->
<g id="edge52" class="edge">
<title>Node1&#45;&gt;Node681</title>
<path fill="none" stroke="#63b8ff" d="M2994.52,-270.41C2969.84,-260.54 2939.97,-248.59 2917.06,-239.43"/>
<polygon fill="#63b8ff" stroke="#63b8ff" points="2993.1,-273.61 3003.69,-274.08 2995.7,-267.11 2993.1,-273.61"/>
</g>
<!-- Node851 -->
<g id="node47" class="node">
<title>Node851</title>
<g id="a_node47"><a xlink:href="osdsp__task_8cpp.html" target="_top" xlink:title=" ">
<polygon fill="white" stroke="#666666" points="3096.5,-239 2985.5,-239 2985.5,-209 3096.5,-209 3096.5,-239"/>
<text text-anchor="start" x="2993.5" y="-227" font-family="Helvetica,sans-Serif" font-size="10.00">libs/JSystem/JAudio2</text>
<text text-anchor="middle" x="3041" y="-216" font-family="Helvetica,sans-Serif" font-size="10.00">/osdsp_task.cpp</text>
</a>
</g>
</g>
<!-- Node1&#45;&gt;Node851 -->
<g id="edge54" class="edge">
<title>Node1&#45;&gt;Node851</title>
<path fill="none" stroke="#63b8ff" d="M3041,-263.39C3041,-255.13 3041,-246.28 3041,-239.16"/>
<polygon fill="#63b8ff" stroke="#63b8ff" points="3037.5,-263.28 3041,-273.28 3044.5,-263.28 3037.5,-263.28"/>
</g>
<!-- Node852 -->
<g id="node48" class="node">
<title>Node852</title>
<g id="a_node48"><a xlink:href="dvdlow_8c.html" target="_top" xlink:title=" ">
<polygon fill="white" stroke="#666666" points="3239.5,-233.5 3114.5,-233.5 3114.5,-214.5 3239.5,-214.5 3239.5,-233.5"/>
<text text-anchor="middle" x="3177" y="-221.5" font-family="Helvetica,sans-Serif" font-size="10.00">libs/dolphin/dvd/dvdlow.c</text>
</a>
</g>
</g>
<!-- Node1&#45;&gt;Node852 -->
<g id="edge55" class="edge">
<title>Node1&#45;&gt;Node852</title>
<path fill="none" stroke="#63b8ff" d="M3081.91,-269.75C3107.13,-257.88 3138.28,-243.22 3157.91,-233.99"/>
<polygon fill="#63b8ff" stroke="#63b8ff" points="3080.45,-266.57 3072.89,-273.99 3083.43,-272.9 3080.45,-266.57"/>
</g>
<!-- Node785 -->
<g id="node49" class="node">
<title>Node785</title>
<g id="a_node49"><a xlink:href="GXMisc_8c.html" target="_top" xlink:title=" ">
<polygon fill="white" stroke="#666666" points="3382,-233.5 3258,-233.5 3258,-214.5 3382,-214.5 3382,-233.5"/>
<text text-anchor="middle" x="3320" y="-221.5" font-family="Helvetica,sans-Serif" font-size="10.00">libs/dolphin/gx/GXMisc.c</text>
</a>
</g>
</g>
<!-- Node1&#45;&gt;Node785 -->
<g id="edge56" class="edge">
<title>Node1&#45;&gt;Node785</title>
<path fill="none" stroke="#63b8ff" d="M3099.87,-275.5C3154.47,-262.97 3234.17,-244.69 3281.19,-233.9"/>
<polygon fill="#63b8ff" stroke="#63b8ff" points="3099.4,-272.01 3090.44,-277.66 3100.97,-278.84 3099.4,-272.01"/>
</g>
<!-- Node853 -->
<g id="node50" class="node">
<title>Node853</title>
<g id="a_node50"><a xlink:href="OSReboot_8c.html" target="_top" xlink:title=" ">
<polygon fill="white" stroke="#666666" points="3534,-233.5 3400,-233.5 3400,-214.5 3534,-214.5 3534,-233.5"/>
<text text-anchor="middle" x="3467" y="-221.5" font-family="Helvetica,sans-Serif" font-size="10.00">libs/dolphin/os/OSReboot.c</text>
</a>
</g>
</g>
<!-- Node1&#45;&gt;Node853 -->
<g id="edge58" class="edge">
<title>Node1&#45;&gt;Node853</title>
<path fill="none" stroke="#63b8ff" d="M3100.09,-281.3C3169.77,-272.04 3289,-255.67 3391,-239 3400.4,-237.46 3410.43,-235.7 3420.02,-233.96"/>
<polygon fill="#63b8ff" stroke="#63b8ff" points="3099.89,-277.79 3090.43,-282.58 3100.8,-284.73 3099.89,-277.79"/>
</g>
<!-- Node3 -->
<g id="node3" class="node">
<title>Node3</title>
<g id="a_node3"><a xlink:href="JUTAssert_8h.html" target="_top" xlink:title=" ">
<polygon fill="#fff0f0" stroke="red" points="390,-112.5 268,-112.5 268,-82.5 390,-82.5 390,-112.5"/>
<text text-anchor="start" x="276" y="-100.5" font-family="Helvetica,sans-Serif" font-size="10.00">include/JSystem/JUtility</text>
<text text-anchor="middle" x="329" y="-89.5" font-family="Helvetica,sans-Serif" font-size="10.00">/JUTAssert.h</text>
</a>
</g>
</g>
<!-- Node2&#45;&gt;Node3 -->
<g id="edge2" class="edge">
<title>Node2&#45;&gt;Node3</title>
<path fill="none" stroke="#63b8ff" d="M2742.26,-162.22C2387.6,-160.53 641.31,-150.58 404,-118 395.47,-116.83 386.52,-115.02 377.89,-112.98"/>
<polygon fill="#63b8ff" stroke="#63b8ff" points="2742.03,-165.72 2752.05,-162.27 2742.06,-158.72 2742.03,-165.72"/>
</g>
<!-- Node589 -->
<g id="node4" class="node">
<title>Node589</title>
<g id="a_node4"><a xlink:href="JFWDisplay_8cpp.html" target="_top" xlink:title=" ">
<polygon fill="white" stroke="#666666" points="130,-35.5 0,-35.5 0,-5.5 130,-5.5 130,-35.5"/>
<text text-anchor="start" x="8" y="-23.5" font-family="Helvetica,sans-Serif" font-size="10.00">libs/JSystem/JFramework</text>
<text text-anchor="middle" x="65" y="-12.5" font-family="Helvetica,sans-Serif" font-size="10.00">/JFWDisplay.cpp</text>
</a>
</g>
</g>
<!-- Node2&#45;&gt;Node589 -->
<g id="edge32" class="edge">
<title>Node2&#45;&gt;Node589</title>
<path fill="none" stroke="#63b8ff" d="M2742.12,-162.37C2358.41,-161.43 344.59,-154.78 220,-118 163.76,-101.4 107.86,-58.4 81.18,-35.82"/>
<polygon fill="#63b8ff" stroke="#63b8ff" points="2741.99,-165.87 2752,-162.39 2742.01,-158.87 2741.99,-165.87"/>
</g>
<!-- Node606 -->
<g id="node5" class="node">
<title>Node606</title>
<g id="a_node5"><a xlink:href="JKRDvdArchive_8cpp.html" target="_top" xlink:title=" ">
<polygon fill="white" stroke="#666666" points="257.5,-35.5 148.5,-35.5 148.5,-5.5 257.5,-5.5 257.5,-35.5"/>
<text text-anchor="start" x="156.5" y="-23.5" font-family="Helvetica,sans-Serif" font-size="10.00">libs/JSystem/JKernel</text>
<text text-anchor="middle" x="203" y="-12.5" font-family="Helvetica,sans-Serif" font-size="10.00">/JKRDvdArchive.cpp</text>
</a>
</g>
</g>
<!-- Node2&#45;&gt;Node606 -->
<g id="edge34" class="edge">
<title>Node2&#45;&gt;Node606</title>
<path fill="none" stroke="#63b8ff" d="M2742.15,-162.25C2355.5,-160.61 314.2,-150.43 259,-118 228.27,-99.94 212.79,-57.99 206.51,-35.82"/>
<polygon fill="#63b8ff" stroke="#63b8ff" points="2742.1,-165.75 2752.12,-162.29 2742.13,-158.75 2742.1,-165.75"/>
</g>
<!-- Node609 -->
<g id="node6" class="node">
<title>Node609</title>
<g id="a_node6"><a xlink:href="JKRHeap_8cpp.html" target="_top" xlink:title=" ">
<polygon fill="white" stroke="#666666" points="384.5,-35.5 275.5,-35.5 275.5,-5.5 384.5,-5.5 384.5,-35.5"/>
<text text-anchor="start" x="283.5" y="-23.5" font-family="Helvetica,sans-Serif" font-size="10.00">libs/JSystem/JKernel</text>
<text text-anchor="middle" x="330" y="-12.5" font-family="Helvetica,sans-Serif" font-size="10.00">/JKRHeap.cpp</text>
</a>
</g>
</g>
<!-- Node2&#45;&gt;Node609 -->
<g id="edge35" class="edge">
<title>Node2&#45;&gt;Node609</title>
<path fill="none" stroke="#63b8ff" d="M2742.19,-162.34C2380.73,-161.31 578.05,-154.35 467,-118 440.73,-109.4 377.99,-60.41 347.39,-35.72"/>
<polygon fill="#63b8ff" stroke="#63b8ff" points="2742.17,-165.84 2752.18,-162.37 2742.19,-158.84 2742.17,-165.84"/>
</g>
<!-- Node595 -->
<g id="node7" class="node">
<title>Node595</title>
<g id="a_node7"><a xlink:href="JUTConsole_8cpp.html" target="_top" xlink:title=" ">
<polygon fill="white" stroke="#666666" points="509,-35.5 403,-35.5 403,-5.5 509,-5.5 509,-35.5"/>
<text text-anchor="start" x="411" y="-23.5" font-family="Helvetica,sans-Serif" font-size="10.00">libs/JSystem/JUtility</text>
<text text-anchor="middle" x="456" y="-12.5" font-family="Helvetica,sans-Serif" font-size="10.00">/JUTConsole.cpp</text>
</a>
</g>
</g>
<!-- Node2&#45;&gt;Node595 -->
<g id="edge38" class="edge">
<title>Node2&#45;&gt;Node595</title>
<path fill="none" stroke="#63b8ff" d="M2742.43,-162.19C2378.65,-160.3 550.42,-149.22 502,-118 473.3,-99.5 462.09,-57.74 458.06,-35.72"/>
<polygon fill="#63b8ff" stroke="#63b8ff" points="2742.23,-165.69 2752.24,-162.24 2742.26,-158.69 2742.23,-165.69"/>
</g>
<!-- Node613 -->
<g id="node8" class="node">
<title>Node613</title>
<g id="a_node8"><a xlink:href="DDH__Stubs_8h.html" target="_top" xlink:title=" ">
<polygon fill="#fff0f0" stroke="red" points="645,-41 527,-41 527,0 645,0 645,-41"/>
<text text-anchor="start" x="535" y="-29" font-family="Helvetica,sans-Serif" font-size="10.00">include/TRK_MINNOW</text>
<text text-anchor="start" x="535" y="-18" font-family="Helvetica,sans-Serif" font-size="10.00">_DOLPHIN/Os/dolphin</text>
<text text-anchor="middle" x="586" y="-7" font-family="Helvetica,sans-Serif" font-size="10.00">/DDH_Stubs.h</text>
</a>
</g>
</g>
<!-- Node2&#45;&gt;Node613 -->
<g id="edge7" class="edge">
<title>Node2&#45;&gt;Node613</title>
<path fill="none" stroke="#63b8ff" d="M2742.2,-162.48C2378.1,-162.23 553.14,-158.92 513,-118 500.24,-104.99 504.9,-93.33 513,-77 520.36,-62.17 533.78,-50.23 547.13,-41.28"/>
<polygon fill="#63b8ff" stroke="#63b8ff" points="2742.02,-165.98 2752.02,-162.49 2742.02,-158.98 2742.02,-165.98"/>
</g>
<!-- Node615 -->
<g id="node9" class="node">
<title>Node615</title>
<g id="a_node9"><a xlink:href="GDEV__Stubs_8h.html" target="_top" xlink:title=" ">
<polygon fill="#fff0f0" stroke="red" points="781,-41 663,-41 663,0 781,0 781,-41"/>
<text text-anchor="start" x="671" y="-29" font-family="Helvetica,sans-Serif" font-size="10.00">include/TRK_MINNOW</text>
<text text-anchor="start" x="671" y="-18" font-family="Helvetica,sans-Serif" font-size="10.00">_DOLPHIN/Os/dolphin</text>
<text text-anchor="middle" x="722" y="-7" font-family="Helvetica,sans-Serif" font-size="10.00">/GDEV_Stubs.h</text>
</a>
</g>
</g>
<!-- Node2&#45;&gt;Node615 -->
<g id="edge8" class="edge">
<title>Node2&#45;&gt;Node615</title>
<path fill="none" stroke="#63b8ff" d="M2742.34,-162.37C2396.35,-161.52 733.71,-155.49 697,-118 676.9,-97.47 693.38,-62.99 707.45,-41.28"/>
<polygon fill="#63b8ff" stroke="#63b8ff" points="2742.09,-165.87 2752.1,-162.4 2742.11,-158.87 2742.09,-165.87"/>
</g>
<!-- Node616 -->
<g id="node10" class="node">
<title>Node616</title>
<g id="a_node10"><a xlink:href="UDP__Stubs_8h.html" target="_top" xlink:title=" ">
<polygon fill="#fff0f0" stroke="red" points="824,-118 706,-118 706,-77 824,-77 824,-118"/>
<text text-anchor="start" x="714" y="-106" font-family="Helvetica,sans-Serif" font-size="10.00">include/TRK_MINNOW</text>
<text text-anchor="start" x="714" y="-95" font-family="Helvetica,sans-Serif" font-size="10.00">_DOLPHIN/Os/dolphin</text>
<text text-anchor="middle" x="765" y="-84" font-family="Helvetica,sans-Serif" font-size="10.00">/UDP_Stubs.h</text>
</a>
</g>
</g>
<!-- Node2&#45;&gt;Node616 -->
<g id="edge9" class="edge">
<title>Node2&#45;&gt;Node616</title>
<path fill="none" stroke="#63b8ff" d="M2742.67,-161.97C2428.92,-159.21 1029.96,-145.41 838,-118 833.45,-117.35 828.79,-116.52 824.12,-115.56"/>
<polygon fill="#63b8ff" stroke="#63b8ff" points="2742.25,-165.47 2752.28,-162.06 2742.31,-158.47 2742.25,-165.47"/>
</g>
<!-- Node618 -->
<g id="node11" class="node">
<title>Node618</title>
<g id="a_node11"><a xlink:href="dolphin__trk__glue_8h.html" target="_top" xlink:title=" ">
<polygon fill="#fff0f0" stroke="red" points="998,-118 880,-118 880,-77 998,-77 998,-118"/>
<text text-anchor="start" x="888" y="-106" font-family="Helvetica,sans-Serif" font-size="10.00">include/TRK_MINNOW</text>
<text text-anchor="start" x="888" y="-95" font-family="Helvetica,sans-Serif" font-size="10.00">_DOLPHIN/Os/dolphin</text>
<text text-anchor="middle" x="939" y="-84" font-family="Helvetica,sans-Serif" font-size="10.00">/dolphin_trk_glue.h</text>
</a>
</g>
</g>
<!-- Node2&#45;&gt;Node618 -->
<g id="edge10" class="edge">
<title>Node2&#45;&gt;Node618</title>
<path fill="none" stroke="#63b8ff" d="M2742.37,-161.9C2444.8,-158.89 1181.09,-144.67 1007,-118 1004.09,-117.55 1001.12,-117.02 998.14,-116.42"/>
<polygon fill="#63b8ff" stroke="#63b8ff" points="2742.22,-165.39 2752.26,-161.99 2742.29,-158.39 2742.22,-165.39"/>
</g>
<!-- Node620 -->
<g id="node12" class="node">
<title>Node620</title>
<g id="a_node12"><a xlink:href="dolphin__trk_8c.html" target="_top" xlink:title=" ">
<polygon fill="white" stroke="#666666" points="983,-35.5 831,-35.5 831,-5.5 983,-5.5 983,-35.5"/>
<text text-anchor="start" x="839" y="-23.5" font-family="Helvetica,sans-Serif" font-size="10.00">libs/TRK_MINNOW_DOLPHIN</text>
<text text-anchor="middle" x="907" y="-12.5" font-family="Helvetica,sans-Serif" font-size="10.00">/Os/dolphin/dolphin_trk.c</text>
</a>
</g>
</g>
<!-- Node2&#45;&gt;Node620 -->
<g id="edge43" class="edge">
<title>Node2&#45;&gt;Node620</title>
<path fill="none" stroke="#63b8ff" d="M2742.59,-162.25C2414.63,-160.8 904.47,-152.25 871,-118 848.5,-94.98 875.44,-56.62 893.42,-35.88"/>
<polygon fill="#63b8ff" stroke="#63b8ff" points="2742.22,-165.75 2752.24,-162.29 2742.25,-158.75 2742.22,-165.75"/>
</g>
<!-- Node621 -->
<g id="node13" class="node">
<title>Node621</title>
<g id="a_node13"><a xlink:href="AmcExi2Stubs_8h.html" target="_top" xlink:title=" ">
<polygon fill="#fff0f0" stroke="red" points="649.5,-112.5 522.5,-112.5 522.5,-82.5 649.5,-82.5 649.5,-112.5"/>
<text text-anchor="start" x="530.5" y="-100.5" font-family="Helvetica,sans-Serif" font-size="10.00">include/dolphin/amcstubs</text>
<text text-anchor="middle" x="586" y="-89.5" font-family="Helvetica,sans-Serif" font-size="10.00">/AmcExi2Stubs.h</text>
</a>
</g>
</g>
<!-- Node2&#45;&gt;Node621 -->
<g id="edge12" class="edge">
<title>Node2&#45;&gt;Node621</title>
<path fill="none" stroke="#63b8ff" d="M2742.58,-162.04C2412.16,-159.47 874.32,-146.11 664,-118 655.15,-116.82 645.84,-115.01 636.87,-112.96"/>
<polygon fill="#63b8ff" stroke="#63b8ff" points="2742.28,-165.53 2752.31,-162.11 2742.34,-158.53 2742.28,-165.53"/>
</g>
<!-- Node630 -->
<g id="node14" class="node">
<title>Node630</title>
<g id="a_node14"><a xlink:href="J2DAnimation_8cpp.html" target="_top" xlink:title=" ">
<polygon fill="white" stroke="#666666" points="1135.5,-112.5 1016.5,-112.5 1016.5,-82.5 1135.5,-82.5 1135.5,-112.5"/>
<text text-anchor="start" x="1024.5" y="-100.5" font-family="Helvetica,sans-Serif" font-size="10.00">libs/JSystem/J2DGraph</text>
<text text-anchor="middle" x="1076" y="-89.5" font-family="Helvetica,sans-Serif" font-size="10.00">/J2DAnimation.cpp</text>
</a>
</g>
</g>
<!-- Node2&#45;&gt;Node630 -->
<g id="edge15" class="edge">
<title>Node2&#45;&gt;Node630</title>
<path fill="none" stroke="#63b8ff" d="M2742.38,-162.9C2479.18,-164.26 1461.64,-166.22 1145,-118 1137.12,-116.8 1128.87,-114.98 1120.93,-112.93"/>
<polygon fill="#63b8ff" stroke="#63b8ff" points="2742.12,-166.4 2752.1,-162.85 2742.08,-159.4 2742.12,-166.4"/>
</g>
<!-- Node631 -->
<g id="node15" class="node">
<title>Node631</title>
<g id="a_node15"><a xlink:href="J3DModel_8cpp.html" target="_top" xlink:title=" ">
<polygon fill="white" stroke="#666666" points="1312,-112.5 1154,-112.5 1154,-82.5 1312,-82.5 1312,-112.5"/>
<text text-anchor="start" x="1162" y="-100.5" font-family="Helvetica,sans-Serif" font-size="10.00">libs/JSystem/J3DGraphAnimator</text>
<text text-anchor="middle" x="1233" y="-89.5" font-family="Helvetica,sans-Serif" font-size="10.00">/J3DModel.cpp</text>
</a>
</g>
</g>
<!-- Node2&#45;&gt;Node631 -->
<g id="edge16" class="edge">
<title>Node2&#45;&gt;Node631</title>
<path fill="none" stroke="#63b8ff" d="M2742.34,-162.19C2497.17,-160.74 1602.52,-153.09 1321,-118 1311.22,-116.78 1300.92,-114.98 1290.95,-112.96"/>
<polygon fill="#63b8ff" stroke="#63b8ff" points="2741.99,-165.69 2752.01,-162.25 2742.03,-158.69 2741.99,-165.69"/>
</g>
<!-- Node632 -->
<g id="node16" class="node">
<title>Node632</title>
<g id="a_node16"><a xlink:href="J3DModelData_8cpp.html" target="_top" xlink:title=" ">
<polygon fill="white" stroke="#666666" points="1488,-112.5 1330,-112.5 1330,-82.5 1488,-82.5 1488,-112.5"/>
<text text-anchor="start" x="1338" y="-100.5" font-family="Helvetica,sans-Serif" font-size="10.00">libs/JSystem/J3DGraphAnimator</text>
<text text-anchor="middle" x="1409" y="-89.5" font-family="Helvetica,sans-Serif" font-size="10.00">/J3DModelData.cpp</text>
</a>
</g>
</g>
<!-- Node2&#45;&gt;Node632 -->
<g id="edge17" class="edge">
<title>Node2&#45;&gt;Node632</title>
<path fill="none" stroke="#63b8ff" d="M2742.45,-161.9C2516.42,-159.48 1742.38,-149.09 1497,-118 1487.22,-116.76 1476.92,-114.95 1466.96,-112.93"/>
<polygon fill="#63b8ff" stroke="#63b8ff" points="2742.19,-165.4 2752.22,-162 2742.26,-158.4 2742.19,-165.4"/>
</g>
<!-- Node633 -->
<g id="node17" class="node">
<title>Node633</title>
<g id="a_node17"><a xlink:href="J3DSkinDeform_8cpp.html" target="_top" xlink:title=" ">
<polygon fill="white" stroke="#666666" points="1664,-112.5 1506,-112.5 1506,-82.5 1664,-82.5 1664,-112.5"/>
<text text-anchor="start" x="1514" y="-100.5" font-family="Helvetica,sans-Serif" font-size="10.00">libs/JSystem/J3DGraphAnimator</text>
<text text-anchor="middle" x="1585" y="-89.5" font-family="Helvetica,sans-Serif" font-size="10.00">/J3DSkinDeform.cpp</text>
</a>
</g>
</g>
<!-- Node2&#45;&gt;Node633 -->
<g id="edge18" class="edge">
<title>Node2&#45;&gt;Node633</title>
<path fill="none" stroke="#63b8ff" d="M2742.14,-161.51C2536.07,-158.03 1882.28,-145.08 1673,-118 1663.38,-116.76 1653.26,-114.97 1643.44,-112.98"/>
<polygon fill="#63b8ff" stroke="#63b8ff" points="2742.05,-165.01 2752.11,-161.68 2742.17,-158.01 2742.05,-165.01"/>
</g>
<!-- Node634 -->
<g id="node18" class="node">
<title>Node634</title>
<g id="a_node18"><a xlink:href="J3DGD_8cpp.html" target="_top" xlink:title=" ">
<polygon fill="white" stroke="#666666" points="1824,-112.5 1682,-112.5 1682,-82.5 1824,-82.5 1824,-112.5"/>
<text text-anchor="start" x="1690" y="-100.5" font-family="Helvetica,sans-Serif" font-size="10.00">libs/JSystem/J3DGraphBase</text>
<text text-anchor="middle" x="1753" y="-89.5" font-family="Helvetica,sans-Serif" font-size="10.00">/J3DGD.cpp</text>
</a>
</g>
</g>
<!-- Node2&#45;&gt;Node634 -->
<g id="edge19" class="edge">
<title>Node2&#45;&gt;Node634</title>
<path fill="none" stroke="#63b8ff" d="M2742.07,-161.21C2555.84,-157.14 2009.5,-143.31 1833,-118 1824.23,-116.74 1815.01,-114.95 1806.08,-112.96"/>
<polygon fill="#63b8ff" stroke="#63b8ff" points="2741.96,-164.71 2752.03,-161.42 2742.11,-157.71 2741.96,-164.71"/>
</g>
<!-- Node635 -->
<g id="node19" class="node">
<title>Node635</title>
<g id="a_node19"><a xlink:href="J3DMatBlock_8cpp.html" target="_top" xlink:title=" ">
<polygon fill="white" stroke="#666666" points="1984,-112.5 1842,-112.5 1842,-82.5 1984,-82.5 1984,-112.5"/>
<text text-anchor="start" x="1850" y="-100.5" font-family="Helvetica,sans-Serif" font-size="10.00">libs/JSystem/J3DGraphBase</text>
<text text-anchor="middle" x="1913" y="-89.5" font-family="Helvetica,sans-Serif" font-size="10.00">/J3DMatBlock.cpp</text>
</a>
</g>
</g>
<!-- Node2&#45;&gt;Node635 -->
<g id="edge20" class="edge">
<title>Node2&#45;&gt;Node635</title>
<path fill="none" stroke="#63b8ff" d="M2742.39,-162.98C2605.62,-163.18 2270.18,-159.02 1993,-118 1984.37,-116.72 1975.32,-114.95 1966.52,-112.98"/>
<polygon fill="#63b8ff" stroke="#63b8ff" points="2742.34,-166.48 2752.33,-162.96 2742.32,-159.48 2742.34,-166.48"/>
</g>
<!-- Node636 -->
<g id="node20" class="node">
<title>Node636</title>
<g id="a_node20"><a xlink:href="J3DShape_8cpp.html" target="_top" xlink:title=" ">
<polygon fill="white" stroke="#666666" points="2144,-112.5 2002,-112.5 2002,-82.5 2144,-82.5 2144,-112.5"/>
<text text-anchor="start" x="2010" y="-100.5" font-family="Helvetica,sans-Serif" font-size="10.00">libs/JSystem/J3DGraphBase</text>
<text text-anchor="middle" x="2073" y="-89.5" font-family="Helvetica,sans-Serif" font-size="10.00">/J3DShape.cpp</text>
</a>
</g>
</g>
<!-- Node2&#45;&gt;Node636 -->
<g id="edge21" class="edge">
<title>Node2&#45;&gt;Node636</title>
<path fill="none" stroke="#63b8ff" d="M2742.35,-161.78C2625.71,-159.64 2367.58,-151.22 2153,-118 2144.52,-116.69 2135.63,-114.92 2126.97,-112.98"/>
<polygon fill="#63b8ff" stroke="#63b8ff" points="2741.96,-165.27 2752.02,-161.94 2742.08,-158.27 2741.96,-165.27"/>
</g>
<!-- Node637 -->
<g id="node21" class="node">
<title>Node637</title>
<g id="a_node21"><a xlink:href="J3DSys_8cpp.html" target="_top" xlink:title=" ">
<polygon fill="white" stroke="#666666" points="2304,-112.5 2162,-112.5 2162,-82.5 2304,-82.5 2304,-112.5"/>
<text text-anchor="start" x="2170" y="-100.5" font-family="Helvetica,sans-Serif" font-size="10.00">libs/JSystem/J3DGraphBase</text>
<text text-anchor="middle" x="2233" y="-89.5" font-family="Helvetica,sans-Serif" font-size="10.00">/J3DSys.cpp</text>
</a>
</g>
</g>
<!-- Node2&#45;&gt;Node637 -->
<g id="edge22" class="edge">
<title>Node2&#45;&gt;Node637</title>
<path fill="none" stroke="#63b8ff" d="M2742.41,-159.83C2648.58,-155.15 2466.1,-143.44 2313,-118 2304.68,-116.62 2295.95,-114.84 2287.43,-112.91"/>
<polygon fill="#63b8ff" stroke="#63b8ff" points="2742.01,-163.31 2752.17,-160.3 2742.36,-156.32 2742.01,-163.31"/>
</g>
<!-- Node638 -->
<g id="node22" class="node">
<title>Node638</title>
<g id="a_node22"><a xlink:href="J3DClusterLoader_8cpp.html" target="_top" xlink:title=" ">
<polygon fill="white" stroke="#666666" points="2471.5,-112.5 2322.5,-112.5 2322.5,-82.5 2471.5,-82.5 2471.5,-112.5"/>
<text text-anchor="start" x="2330.5" y="-100.5" font-family="Helvetica,sans-Serif" font-size="10.00">libs/JSystem/J3DGraphLoader</text>
<text text-anchor="middle" x="2397" y="-89.5" font-family="Helvetica,sans-Serif" font-size="10.00">/J3DClusterLoader.cpp</text>
</a>
</g>
</g>
<!-- Node2&#45;&gt;Node638 -->
<g id="edge23" class="edge">
<title>Node2&#45;&gt;Node638</title>
<path fill="none" stroke="#63b8ff" d="M2742.15,-155.68C2676.48,-148.14 2570.59,-134.8 2480,-118 2472,-116.52 2463.6,-114.77 2455.35,-112.94"/>
<polygon fill="#63b8ff" stroke="#63b8ff" points="2741.7,-159.15 2752.03,-156.81 2742.49,-152.2 2741.7,-159.15"/>
</g>
<!-- Node639 -->
<g id="node23" class="node">
<title>Node639</title>
<g id="a_node23"><a xlink:href="J3DModelLoader_8cpp.html" target="_top" xlink:title=" ">
<polygon fill="white" stroke="#666666" points="2638.5,-112.5 2489.5,-112.5 2489.5,-82.5 2638.5,-82.5 2638.5,-112.5"/>
<text text-anchor="start" x="2497.5" y="-100.5" font-family="Helvetica,sans-Serif" font-size="10.00">libs/JSystem/J3DGraphLoader</text>
<text text-anchor="middle" x="2564" y="-89.5" font-family="Helvetica,sans-Serif" font-size="10.00">/J3DModelLoader.cpp</text>
</a>
</g>
</g>
<!-- Node2&#45;&gt;Node639 -->
<g id="edge24" class="edge">
<title>Node2&#45;&gt;Node639</title>
<path fill="none" stroke="#63b8ff" d="M2760.2,-150.6C2720.09,-139.95 2661.19,-124.31 2618.4,-112.95"/>
<polygon fill="#63b8ff" stroke="#63b8ff" points="2759.21,-153.96 2769.77,-153.15 2761.01,-147.2 2759.21,-153.96"/>
</g>
<!-- Node640 -->
<g id="node24" class="node">
<title>Node640</title>
<g id="a_node24"><a xlink:href="J3DShapeFactory_8cpp.html" target="_top" xlink:title=" ">
<polygon fill="white" stroke="#666666" points="2805.5,-112.5 2656.5,-112.5 2656.5,-82.5 2805.5,-82.5 2805.5,-112.5"/>
<text text-anchor="start" x="2664.5" y="-100.5" font-family="Helvetica,sans-Serif" font-size="10.00">libs/JSystem/J3DGraphLoader</text>
<text text-anchor="middle" x="2731" y="-89.5" font-family="Helvetica,sans-Serif" font-size="10.00">/J3DShapeFactory.cpp</text>
</a>
</g>
</g>
<!-- Node2&#45;&gt;Node640 -->
<g id="edge25" class="edge">
<title>Node2&#45;&gt;Node640</title>
<path fill="none" stroke="#63b8ff" d="M2786.05,-146.12C2774.22,-135.88 2759.13,-122.83 2747.74,-112.98"/>
<polygon fill="#63b8ff" stroke="#63b8ff" points="2783.71,-148.72 2793.57,-152.61 2788.29,-143.42 2783.71,-148.72"/>
</g>
<!-- Node519 -->
<g id="node25" class="node">
<title>Node519</title>
<g id="a_node25"><a xlink:href="JASAudioThread_8cpp.html" target="_top" xlink:title=" ">
<polygon fill="white" stroke="#666666" points="2934.5,-112.5 2823.5,-112.5 2823.5,-82.5 2934.5,-82.5 2934.5,-112.5"/>
<text text-anchor="start" x="2831.5" y="-100.5" font-family="Helvetica,sans-Serif" font-size="10.00">libs/JSystem/JAudio2</text>
<text text-anchor="middle" x="2879" y="-89.5" font-family="Helvetica,sans-Serif" font-size="10.00">/JASAudioThread.cpp</text>
</a>
</g>
</g>
<!-- Node2&#45;&gt;Node519 -->
<g id="edge26" class="edge">
<title>Node2&#45;&gt;Node519</title>
<path fill="none" stroke="#63b8ff" d="M2823.95,-146.12C2835.78,-135.88 2850.87,-122.83 2862.26,-112.98"/>
<polygon fill="#63b8ff" stroke="#63b8ff" points="2821.71,-143.42 2816.43,-152.61 2826.29,-148.72 2821.71,-143.42"/>
</g>
<!-- Node641 -->
<g id="node26" class="node">
<title>Node641</title>
<g id="a_node26"><a xlink:href="JASCmdStack_8cpp.html" target="_top" xlink:title=" ">
<polygon fill="white" stroke="#666666" points="3063.5,-112.5 2952.5,-112.5 2952.5,-82.5 3063.5,-82.5 3063.5,-112.5"/>
<text text-anchor="start" x="2960.5" y="-100.5" font-family="Helvetica,sans-Serif" font-size="10.00">libs/JSystem/JAudio2</text>
<text text-anchor="middle" x="3008" y="-89.5" font-family="Helvetica,sans-Serif" font-size="10.00">/JASCmdStack.cpp</text>
</a>
</g>
</g>
<!-- Node2&#45;&gt;Node641 -->
<g id="edge27" class="edge">
<title>Node2&#45;&gt;Node641</title>
<path fill="none" stroke="#63b8ff" d="M2844.04,-150.19C2877.75,-139.56 2926.5,-124.19 2962.08,-112.98"/>
<polygon fill="#63b8ff" stroke="#63b8ff" points="2843.15,-146.8 2834.67,-153.15 2845.26,-153.48 2843.15,-146.8"/>
</g>
<!-- Node642 -->
<g id="node27" class="node">
<title>Node642</title>
<g id="a_node27"><a xlink:href="JASProbe_8cpp.html" target="_top" xlink:title=" ">
<polygon fill="white" stroke="#666666" points="3192.5,-112.5 3081.5,-112.5 3081.5,-82.5 3192.5,-82.5 3192.5,-112.5"/>
<text text-anchor="start" x="3089.5" y="-100.5" font-family="Helvetica,sans-Serif" font-size="10.00">libs/JSystem/JAudio2</text>
<text text-anchor="middle" x="3137" y="-89.5" font-family="Helvetica,sans-Serif" font-size="10.00">/JASProbe.cpp</text>
</a>
</g>
</g>
<!-- Node2&#45;&gt;Node642 -->
<g id="edge28" class="edge">
<title>Node2&#45;&gt;Node642</title>
<path fill="none" stroke="#63b8ff" d="M2867.51,-154.49C2922.12,-146.93 3003.33,-134.32 3073,-118 3079.22,-116.54 3085.72,-114.81 3092.1,-112.99"/>
<polygon fill="#63b8ff" stroke="#63b8ff" points="2867.21,-151 2857.77,-155.82 2868.15,-157.93 2867.21,-151"/>
</g>
<!-- Node643 -->
<g id="node28" class="node">
<title>Node643</title>
<g id="a_node28"><a xlink:href="JASTaskThread_8cpp.html" target="_top" xlink:title=" ">
<polygon fill="white" stroke="#666666" points="3321.5,-112.5 3210.5,-112.5 3210.5,-82.5 3321.5,-82.5 3321.5,-112.5"/>
<text text-anchor="start" x="3218.5" y="-100.5" font-family="Helvetica,sans-Serif" font-size="10.00">libs/JSystem/JAudio2</text>
<text text-anchor="middle" x="3266" y="-89.5" font-family="Helvetica,sans-Serif" font-size="10.00">/JASTaskThread.cpp</text>
</a>
</g>
</g>
<!-- Node2&#45;&gt;Node643 -->
<g id="edge29" class="edge">
<title>Node2&#45;&gt;Node643</title>
<path fill="none" stroke="#63b8ff" d="M2867.39,-159.07C2946.06,-153.93 3085.15,-142.14 3202,-118 3208.71,-116.61 3215.73,-114.83 3222.55,-112.91"/>
<polygon fill="#63b8ff" stroke="#63b8ff" points="2867.5,-155.55 2857.74,-159.68 2867.95,-162.54 2867.5,-155.55"/>
</g>
<!-- Node644 -->
<g id="node29" class="node">
<title>Node644</title>
<g id="a_node29"><a xlink:href="dsptask_8cpp.html" target="_top" xlink:title=" ">
<polygon fill="white" stroke="#666666" points="3450.5,-112.5 3339.5,-112.5 3339.5,-82.5 3450.5,-82.5 3450.5,-112.5"/>
<text text-anchor="start" x="3347.5" y="-100.5" font-family="Helvetica,sans-Serif" font-size="10.00">libs/JSystem/JAudio2</text>
<text text-anchor="middle" x="3395" y="-89.5" font-family="Helvetica,sans-Serif" font-size="10.00">/dsptask.cpp</text>
</a>
</g>
</g>
<!-- Node2&#45;&gt;Node644 -->
<g id="edge30" class="edge">
<title>Node2&#45;&gt;Node644</title>
<path fill="none" stroke="#63b8ff" d="M2867.34,-157.97C2996.8,-148.46 3286.5,-126.56 3331,-118 3337.84,-116.68 3345,-114.91 3351.93,-112.97"/>
<polygon fill="#63b8ff" stroke="#63b8ff" points="2867.29,-154.46 2857.57,-158.69 2867.8,-161.45 2867.29,-154.46"/>
</g>
<!-- Node645 -->
<g id="node30" class="node">
<title>Node645</title>
<g id="a_node30"><a xlink:href="osdsp_8cpp.html" target="_top" xlink:title=" ">
<polygon fill="white" stroke="#666666" points="3579.5,-112.5 3468.5,-112.5 3468.5,-82.5 3579.5,-82.5 3579.5,-112.5"/>
<text text-anchor="start" x="3476.5" y="-100.5" font-family="Helvetica,sans-Serif" font-size="10.00">libs/JSystem/JAudio2</text>
<text text-anchor="middle" x="3524" y="-89.5" font-family="Helvetica,sans-Serif" font-size="10.00">/osdsp.cpp</text>
</a>
</g>
</g>
<!-- Node2&#45;&gt;Node645 -->
<g id="edge31" class="edge">
<title>Node2&#45;&gt;Node645</title>
<path fill="none" stroke="#63b8ff" d="M2867.81,-158.62C3026.16,-148.79 3431.19,-123.3 3460,-118 3466.97,-116.72 3474.25,-114.94 3481.3,-112.98"/>
<polygon fill="#63b8ff" stroke="#63b8ff" points="2867.67,-155.12 2857.9,-159.24 2868.1,-162.11 2867.67,-155.12"/>
</g>
<!-- Node646 -->
<g id="node31" class="node">
<title>Node646</title>
<g id="a_node31"><a xlink:href="JKRAramPiece_8cpp.html" target="_top" xlink:title=" ">
<polygon fill="white" stroke="#666666" points="3706.5,-112.5 3597.5,-112.5 3597.5,-82.5 3706.5,-82.5 3706.5,-112.5"/>
<text text-anchor="start" x="3605.5" y="-100.5" font-family="Helvetica,sans-Serif" font-size="10.00">libs/JSystem/JKernel</text>
<text text-anchor="middle" x="3652" y="-89.5" font-family="Helvetica,sans-Serif" font-size="10.00">/JKRAramPiece.cpp</text>
</a>
</g>
</g>
<!-- Node2&#45;&gt;Node646 -->
<g id="edge33" class="edge">
<title>Node2&#45;&gt;Node646</title>
<path fill="none" stroke="#63b8ff" d="M2867.72,-158.56C2891.32,-157.1 2918.39,-155.44 2943,-154 3230.06,-137.16 3305.98,-168.89 3589,-118 3595.99,-116.74 3603.28,-114.95 3610.33,-112.96"/>
<polygon fill="#63b8ff" stroke="#63b8ff" points="2867.71,-155.05 2857.95,-159.17 2868.15,-162.04 2867.71,-155.05"/>
</g>
<!-- Node647 -->
<g id="node32" class="node">
<title>Node647</title>
<g id="a_node32"><a xlink:href="JPAChildShape_8cpp.html" target="_top" xlink:title=" ">
<polygon fill="white" stroke="#666666" points="3839,-112.5 3725,-112.5 3725,-82.5 3839,-82.5 3839,-112.5"/>
<text text-anchor="start" x="3733" y="-100.5" font-family="Helvetica,sans-Serif" font-size="10.00">libs/JSystem/JParticle</text>
<text text-anchor="middle" x="3782" y="-89.5" font-family="Helvetica,sans-Serif" font-size="10.00">/JPAChildShape.cpp</text>
</a>
</g>
</g>
<!-- Node2&#45;&gt;Node647 -->
<g id="edge36" class="edge">
<title>Node2&#45;&gt;Node647</title>
<path fill="none" stroke="#63b8ff" d="M2867.71,-158.44C2891.31,-156.96 2918.39,-155.33 2943,-154 3286.43,-135.43 3376.85,-175.14 3716,-118 3723.42,-116.75 3731.19,-114.93 3738.68,-112.91"/>
<polygon fill="#63b8ff" stroke="#63b8ff" points="2867.7,-154.93 2857.94,-159.05 2868.14,-161.92 2867.7,-154.93"/>
</g>
<!-- Node648 -->
<g id="node33" class="node">
<title>Node648</title>
<g id="a_node33"><a xlink:href="JPAExtraShape_8cpp.html" target="_top" xlink:title=" ">
<polygon fill="white" stroke="#666666" points="3971,-112.5 3857,-112.5 3857,-82.5 3971,-82.5 3971,-112.5"/>
<text text-anchor="start" x="3865" y="-100.5" font-family="Helvetica,sans-Serif" font-size="10.00">libs/JSystem/JParticle</text>
<text text-anchor="middle" x="3914" y="-89.5" font-family="Helvetica,sans-Serif" font-size="10.00">/JPAExtraShape.cpp</text>
</a>
</g>
</g>
<!-- Node2&#45;&gt;Node648 -->
<g id="edge37" class="edge">
<title>Node2&#45;&gt;Node648</title>
<path fill="none" stroke="#63b8ff" d="M2867.71,-158.35C2891.31,-156.86 2918.38,-155.25 2943,-154 3345.02,-133.63 3450.83,-183.53 3848,-118 3855.43,-116.77 3863.2,-114.97 3870.69,-112.95"/>
<polygon fill="#63b8ff" stroke="#63b8ff" points="2867.7,-154.84 2857.94,-158.97 2868.14,-161.83 2867.7,-154.84"/>
</g>
<!-- Node596 -->
<g id="node34" class="node">
<title>Node596</title>
<g id="a_node34"><a xlink:href="JUTException_8cpp.html" target="_top" xlink:title=" ">
<polygon fill="white" stroke="#666666" points="4095,-112.5 3989,-112.5 3989,-82.5 4095,-82.5 4095,-112.5"/>
<text text-anchor="start" x="3997" y="-100.5" font-family="Helvetica,sans-Serif" font-size="10.00">libs/JSystem/JUtility</text>
<text text-anchor="middle" x="4042" y="-89.5" font-family="Helvetica,sans-Serif" font-size="10.00">/JUTException.cpp</text>
</a>
</g>
</g>
<!-- Node2&#45;&gt;Node596 -->
<g id="edge39" class="edge">
<title>Node2&#45;&gt;Node596</title>
<path fill="none" stroke="#63b8ff" d="M2867.7,-158.28C2891.3,-156.79 2918.38,-155.19 2943,-154 3173.32,-142.91 3752.73,-156.94 3980,-118 3987.01,-116.8 3994.32,-115.01 4001.36,-112.99"/>
<polygon fill="#63b8ff" stroke="#63b8ff" points="2867.69,-154.78 2857.94,-158.91 2868.14,-161.76 2867.69,-154.78"/>
</g>
<!-- Node649 -->
<g id="node35" class="node">
<title>Node649</title>
<g id="a_node35"><a xlink:href="JUTPalette_8cpp.html" target="_top" xlink:title=" ">
<polygon fill="white" stroke="#666666" points="4219,-112.5 4113,-112.5 4113,-82.5 4219,-82.5 4219,-112.5"/>
<text text-anchor="start" x="4121" y="-100.5" font-family="Helvetica,sans-Serif" font-size="10.00">libs/JSystem/JUtility</text>
<text text-anchor="middle" x="4166" y="-89.5" font-family="Helvetica,sans-Serif" font-size="10.00">/JUTPalette.cpp</text>
</a>
</g>
</g>
<!-- Node2&#45;&gt;Node649 -->
<g id="edge40" class="edge">
<title>Node2&#45;&gt;Node649</title>
<path fill="none" stroke="#63b8ff" d="M2867.7,-158.23C2891.3,-156.73 2918.38,-155.14 2943,-154 3200.85,-142.06 3849.5,-161.13 4104,-118 4111.12,-116.79 4118.56,-114.97 4125.7,-112.92"/>
<polygon fill="#63b8ff" stroke="#63b8ff" points="2867.69,-154.73 2857.93,-158.86 2868.14,-161.71 2867.69,-154.73"/>
</g>
<!-- Node650 -->
<g id="node36" class="node">
<title>Node650</title>
<g id="a_node36"><a xlink:href="uart__console__io__gcn_8c.html" target="_top" xlink:title=" ">
<polygon fill="white" stroke="#666666" points="4383,-118 4237,-118 4237,-77 4383,-77 4383,-118"/>
<text text-anchor="start" x="4245" y="-106" font-family="Helvetica,sans-Serif" font-size="10.00">libs/PowerPC_EABI_Support</text>
<text text-anchor="start" x="4245" y="-95" font-family="Helvetica,sans-Serif" font-size="10.00">/MSL/MSL_C/PPC_EABI/Src</text>
<text text-anchor="middle" x="4310" y="-84" font-family="Helvetica,sans-Serif" font-size="10.00">/uart_console_io_gcn.c</text>
</a>
</g>
</g>
<!-- Node2&#45;&gt;Node650 -->
<g id="edge41" class="edge">
<title>Node2&#45;&gt;Node650</title>
<path fill="none" stroke="#63b8ff" d="M2867.7,-158.19C2891.3,-156.69 2918.37,-155.1 2943,-154 3228.38,-141.22 3944.77,-155.24 4228,-118 4230.9,-117.62 4233.85,-117.18 4236.82,-116.69"/>
<polygon fill="#63b8ff" stroke="#63b8ff" points="2867.69,-154.69 2857.93,-158.82 2868.14,-161.67 2867.69,-154.69"/>
</g>
<!-- Node651 -->
<g id="node37" class="node">
<title>Node651</title>
<g id="a_node37"><a xlink:href="GCN__Mem__Alloc_8c.html" target="_top" xlink:title=" ">
<polygon fill="white" stroke="#666666" points="4561,-112.5 4401,-112.5 4401,-82.5 4561,-82.5 4561,-112.5"/>
<text text-anchor="start" x="4409" y="-100.5" font-family="Helvetica,sans-Serif" font-size="10.00">libs/PowerPC_EABI_Support</text>
<text text-anchor="middle" x="4481" y="-89.5" font-family="Helvetica,sans-Serif" font-size="10.00">/Runtime/Src/GCN_Mem_Alloc.c</text>
</a>
</g>
</g>
<!-- Node2&#45;&gt;Node651 -->
<g id="edge42" class="edge">
<title>Node2&#45;&gt;Node651</title>
<path fill="none" stroke="#63b8ff" d="M2867.7,-158.15C2891.3,-156.64 2918.37,-155.06 2943,-154 3264.8,-140.1 4072.23,-156.64 4392,-118 4401.89,-116.8 4412.31,-115.02 4422.39,-113"/>
<polygon fill="#63b8ff" stroke="#63b8ff" points="2867.68,-154.64 2857.93,-158.79 2868.14,-161.63 2867.68,-154.64"/>
</g>
<!-- Node473 -->
<g id="node38" class="node">
<title>Node473</title>
<g id="a_node38"><a xlink:href="Z2AudioMgr_8cpp.html" target="_top" xlink:title=" ">
<polygon fill="white" stroke="#666666" points="4737,-107 4579,-107 4579,-88 4737,-88 4737,-107"/>
<text text-anchor="middle" x="4658" y="-95" font-family="Helvetica,sans-Serif" font-size="10.00">libs/Z2AudioLib/Z2AudioMgr.cpp</text>
</a>
</g>
</g>
<!-- Node2&#45;&gt;Node473 -->
<g id="edge44" class="edge">
<title>Node2&#45;&gt;Node473</title>
<path fill="none" stroke="#63b8ff" d="M2867.7,-158.11C2891.29,-156.6 2918.37,-155.03 2943,-154 3304.33,-138.88 4210.96,-161.33 4570,-118 4588.33,-115.79 4608.46,-111.47 4624.84,-107.46"/>
<polygon fill="#63b8ff" stroke="#63b8ff" points="2867.68,-154.61 2857.93,-158.75 2868.14,-161.59 2867.68,-154.61"/>
</g>
<!-- Node180 -->
<g id="node39" class="node">
<title>Node180</title>
<g id="a_node39"><a xlink:href="Z2LinkMgr_8cpp.html" target="_top" xlink:title=" ">
<polygon fill="white" stroke="#666666" points="4907,-107 4755,-107 4755,-88 4907,-88 4907,-107"/>
<text text-anchor="middle" x="4831" y="-95" font-family="Helvetica,sans-Serif" font-size="10.00">libs/Z2AudioLib/Z2LinkMgr.cpp</text>
</a>
</g>
</g>
<!-- Node2&#45;&gt;Node180 -->
<g id="edge45" class="edge">
<title>Node2&#45;&gt;Node180</title>
<path fill="none" stroke="#63b8ff" d="M2867.7,-158.09C2891.29,-156.57 2918.37,-155 2943,-154 3343.41,-137.68 4348.27,-167.06 4746,-118 4763.73,-115.81 4783.18,-111.5 4798.99,-107.48"/>
<polygon fill="#63b8ff" stroke="#63b8ff" points="2867.68,-154.58 2857.93,-158.72 2868.14,-161.56 2867.68,-154.58"/>
</g>
<!-- Node479 -->
<g id="node40" class="node">
<title>Node479</title>
<g id="a_node40"><a xlink:href="Z2WolfHowlMgr_8cpp.html" target="_top" xlink:title=" ">
<polygon fill="white" stroke="#666666" points="5065,-112.5 4925,-112.5 4925,-82.5 5065,-82.5 5065,-112.5"/>
<text text-anchor="start" x="4933" y="-100.5" font-family="Helvetica,sans-Serif" font-size="10.00">libs/Z2AudioLib/Z2WolfHowl</text>
<text text-anchor="middle" x="4995" y="-89.5" font-family="Helvetica,sans-Serif" font-size="10.00">Mgr.cpp</text>
</a>
</g>
</g>
<!-- Node2&#45;&gt;Node479 -->
<g id="edge46" class="edge">
<title>Node2&#45;&gt;Node479</title>
<path fill="none" stroke="#63b8ff" d="M2867.7,-158.06C2891.29,-156.54 2918.37,-154.98 2943,-154 3381.17,-136.52 4481.19,-174.9 4916,-118 4924.96,-116.83 4934.38,-115.02 4943.47,-112.97"/>
<polygon fill="#63b8ff" stroke="#63b8ff" points="2867.68,-154.56 2857.93,-158.7 2868.13,-161.54 2867.68,-154.56"/>
</g>
<!-- Node652 -->
<g id="node41" class="node">
<title>Node652</title>
<g id="a_node41"><a xlink:href="ai_8c.html" target="_top" xlink:title=" ">
<polygon fill="white" stroke="#666666" points="5177,-107 5083,-107 5083,-88 5177,-88 5177,-107"/>
<text text-anchor="middle" x="5130" y="-95" font-family="Helvetica,sans-Serif" font-size="10.00">libs/dolphin/ai/ai.c</text>
</a>
</g>
</g>
<!-- Node2&#45;&gt;Node652 -->
<g id="edge47" class="edge">
<title>Node2&#45;&gt;Node652</title>
<path fill="none" stroke="#63b8ff" d="M2867.69,-158.05C2891.29,-156.53 2918.37,-154.97 2943,-154 3179.63,-144.72 4840.85,-159.46 5074,-118 5086.06,-115.86 5099.01,-111.49 5109.41,-107.43"/>
<polygon fill="#63b8ff" stroke="#63b8ff" points="2867.68,-154.54 2857.93,-158.69 2868.13,-161.52 2867.68,-154.54"/>
</g>
<!-- Node653 -->
<g id="node42" class="node">
<title>Node653</title>
<g id="a_node42"><a xlink:href="ar_8c.html" target="_top" xlink:title=" ">
<polygon fill="white" stroke="#666666" points="5290.5,-107 5195.5,-107 5195.5,-88 5290.5,-88 5290.5,-107"/>
<text text-anchor="middle" x="5243" y="-95" font-family="Helvetica,sans-Serif" font-size="10.00">libs/dolphin/ar/ar.c</text>
</a>
</g>
</g>
<!-- Node2&#45;&gt;Node653 -->
<g id="edge48" class="edge">
<title>Node2&#45;&gt;Node653</title>
<path fill="none" stroke="#63b8ff" d="M2867.69,-158.03C2891.29,-156.51 2918.37,-154.96 2943,-154 3192.07,-144.34 4940.46,-160.87 5186,-118 5198.26,-115.86 5211.44,-111.5 5222.03,-107.44"/>
<polygon fill="#63b8ff" stroke="#63b8ff" points="2867.67,-154.53 2857.93,-158.68 2868.13,-161.51 2867.67,-154.53"/>
</g>
<!-- Node654 -->
<g id="node43" class="node">
<title>Node654</title>
<g id="a_node43"><a xlink:href="CARDBios_8c.html" target="_top" xlink:title=" ">
<polygon fill="white" stroke="#666666" points="5453,-107 5309,-107 5309,-88 5453,-88 5453,-107"/>
<text text-anchor="middle" x="5381" y="-95" font-family="Helvetica,sans-Serif" font-size="10.00">libs/dolphin/card/CARDBios.c</text>
</a>
</g>
</g>
<!-- Node2&#45;&gt;Node654 -->
<g id="edge49" class="edge">
<title>Node2&#45;&gt;Node654</title>
<path fill="none" stroke="#63b8ff" d="M2867.69,-158.02C2891.29,-156.5 2918.37,-154.95 2943,-154 3466.45,-133.89 4780.3,-183.7 5300,-118 5317.08,-115.84 5335.78,-111.48 5350.91,-107.42"/>
<polygon fill="#63b8ff" stroke="#63b8ff" points="2867.67,-154.52 2857.93,-158.67 2868.13,-161.5 2867.67,-154.52"/>
</g>
<!-- Node655 -->
<g id="node44" class="node">
<title>Node655</title>
<g id="a_node44"><a xlink:href="CARDUnlock_8c.html" target="_top" xlink:title=" ">
<polygon fill="white" stroke="#666666" points="5626.5,-107 5471.5,-107 5471.5,-88 5626.5,-88 5626.5,-107"/>
<text text-anchor="middle" x="5549" y="-95" font-family="Helvetica,sans-Serif" font-size="10.00">libs/dolphin/card/CARDUnlock.c</text>
</a>
</g>
</g>
<!-- Node2&#45;&gt;Node655 -->
<g id="edge50" class="edge">
<title>Node2&#45;&gt;Node655</title>
<path fill="none" stroke="#63b8ff" d="M2867.69,-158.01C2891.29,-156.49 2918.37,-154.93 2943,-154 3502.43,-132.79 4906.02,-183.57 5462,-118 5480.29,-115.84 5500.38,-111.48 5516.64,-107.42"/>
<polygon fill="#63b8ff" stroke="#63b8ff" points="2867.67,-154.5 2857.93,-158.65 2868.13,-161.49 2867.67,-154.5"/>
</g>
<!-- Node2&#45;&gt;Node627 -->
<g id="edge51" class="edge">
<title>Node2&#45;&gt;Node627</title>
<path fill="none" stroke="#63b8ff" d="M2867.69,-158C2891.29,-156.47 2918.37,-154.92 2943,-154 3242.04,-142.8 5339.3,-157 5636,-118 5652.27,-115.86 5670.05,-111.5 5684.43,-107.44"/>
<polygon fill="#63b8ff" stroke="#63b8ff" points="2867.67,-154.49 2857.92,-158.64 2868.13,-161.48 2867.67,-154.49"/>
</g>
<!-- Node3&#45;&gt;Node589 -->
<g id="edge3" class="edge">
<title>Node3&#45;&gt;Node589</title>
<path fill="none" stroke="#63b8ff" d="M267.05,-78.9C220.98,-65.81 158.89,-48.17 115.75,-35.92"/>
<polygon fill="#63b8ff" stroke="#63b8ff" points="266.07,-82.26 276.64,-81.63 267.98,-75.53 266.07,-82.26"/>
</g>
<!-- Node3&#45;&gt;Node606 -->
<g id="edge4" class="edge">
<title>Node3&#45;&gt;Node606</title>
<path fill="none" stroke="#63b8ff" d="M295.02,-76.27C273.6,-63.52 246.46,-47.37 227.22,-35.92"/>
<polygon fill="#63b8ff" stroke="#63b8ff" points="293.02,-79.16 303.41,-81.27 296.6,-73.14 293.02,-79.16"/>
</g>
<!-- Node3&#45;&gt;Node609 -->
<g id="edge5" class="edge">
<title>Node3&#45;&gt;Node609</title>
<path fill="none" stroke="#63b8ff" d="M329.34,-70.73C329.5,-59.08 329.68,-45.76 329.81,-35.92"/>
<polygon fill="#63b8ff" stroke="#63b8ff" points="325.85,-70.48 329.21,-80.53 332.85,-70.57 325.85,-70.48"/>
</g>
<!-- Node3&#45;&gt;Node595 -->
<g id="edge6" class="edge">
<title>Node3&#45;&gt;Node595</title>
<path fill="none" stroke="#63b8ff" d="M363.25,-76.27C384.84,-63.52 412.19,-47.37 431.59,-35.92"/>
<polygon fill="#63b8ff" stroke="#63b8ff" points="361.62,-73.17 354.79,-81.27 365.18,-79.2 361.62,-73.17"/>
</g>
<!-- Node618&#45;&gt;Node620 -->
<g id="edge11" class="edge">
<title>Node618&#45;&gt;Node620</title>
<path fill="none" stroke="#63b8ff" d="M926.11,-66.28C921.62,-55.78 916.8,-44.48 913.13,-35.86"/>
<polygon fill="#63b8ff" stroke="#63b8ff" points="922.85,-67.58 930,-75.4 929.29,-64.83 922.85,-67.58"/>
</g>
<!-- Node621&#45;&gt;Node613 -->
<g id="edge13" class="edge">
<title>Node621&#45;&gt;Node613</title>
<path fill="none" stroke="#63b8ff" d="M586,-70.68C586,-61.06 586,-50.3 586,-41.3"/>
<polygon fill="#63b8ff" stroke="#63b8ff" points="582.5,-70.53 586,-80.53 589.5,-70.53 582.5,-70.53"/>
</g>
<!-- Node621&#45;&gt;Node615 -->
<g id="edge14" class="edge">
<title>Node621&#45;&gt;Node615</title>
<path fill="none" stroke="#63b8ff" d="M622.06,-76.62C641.77,-65.75 666.11,-52.32 685.83,-41.44"/>
<polygon fill="#63b8ff" stroke="#63b8ff" points="620.61,-73.41 613.55,-81.31 623.99,-79.54 620.61,-73.41"/>
</g>
<!-- Node681&#45;&gt;Node2 -->
<g id="edge53" class="edge">
<title>Node681&#45;&gt;Node2</title>
<path fill="none" stroke="#63b8ff" d="M2853.28,-201.67C2840.49,-191.82 2826.01,-180.67 2816.27,-173.18"/>
<polygon fill="#63b8ff" stroke="#63b8ff" points="2850.95,-204.29 2861.01,-207.62 2855.22,-198.74 2850.95,-204.29"/>
</g>
</g>
</svg>
