<?xml version="1.0" encoding="UTF-8" standalone="no"?>
<!DOCTYPE svg PUBLIC "-//W3C//DTD SVG 1.1//EN"
 "http://www.w3.org/Graphics/SVG/1.1/DTD/svg11.dtd">
<!-- Generated by graphviz version 7.0.5 (20221223.1930)
 -->
<!-- Title: libs/JSystem/JAudio2/osdsp.cpp Pages: 1 -->
<svg width="1858pt" height="379pt"
 viewBox="0.00 0.00 1858.15 379.00" xmlns="http://www.w3.org/2000/svg" xmlns:xlink="http://www.w3.org/1999/xlink">
<g id="graph0" class="graph" transform="scale(1 1) rotate(0) translate(4 375)">
<title>libs/JSystem/JAudio2/osdsp.cpp</title>
<!-- Node1 -->
<g id="node1" class="node">
<title>Node1</title>
<g id="a_node1"><a xlink:title=" ">
<polygon fill="#999999" stroke="#666666" points="332.5,-371 221.5,-371 221.5,-341 332.5,-341 332.5,-371"/>
<text text-anchor="start" x="229.5" y="-359" font-family="Helvetica,sans-Serif" font-size="10.00">libs/JSystem/JAudio2</text>
<text text-anchor="middle" x="277" y="-348" font-family="Helvetica,sans-Serif" font-size="10.00">/osdsp.cpp</text>
</a>
</g>
</g>
<!-- Node2 -->
<g id="node2" class="node">
<title>Node2</title>
<g id="a_node2"><a xlink:href="osdsp_8h.html" target="_top" xlink:title=" ">
<polygon fill="white" stroke="#666666" points="130,-299.5 0,-299.5 0,-280.5 130,-280.5 130,-299.5"/>
<text text-anchor="middle" x="65" y="-287.5" font-family="Helvetica,sans-Serif" font-size="10.00">JSystem/JAudio2/osdsp.h</text>
</a>
</g>
</g>
<!-- Node1&#45;&gt;Node2 -->
<g id="edge1" class="edge">
<title>Node1&#45;&gt;Node2</title>
<path fill="none" stroke="#63b8ff" d="M229.16,-340.56C191.91,-329.31 140.79,-313.88 105.54,-303.24"/>
<polygon fill="#63b8ff" stroke="#63b8ff" points="106.72,-299.94 96.14,-300.4 104.7,-306.64 106.72,-299.94"/>
</g>
<!-- Node3 -->
<g id="node3" class="node">
<title>Node3</title>
<g id="a_node3"><a xlink:href="osdsp__task_8h.html" target="_top" xlink:title=" ">
<polygon fill="white" stroke="#666666" points="270,-305 148,-305 148,-275 270,-275 270,-305"/>
<text text-anchor="start" x="156" y="-293" font-family="Helvetica,sans-Serif" font-size="10.00">JSystem/JAudio2/osdsp</text>
<text text-anchor="middle" x="209" y="-282" font-family="Helvetica,sans-Serif" font-size="10.00">_task.h</text>
</a>
</g>
</g>
<!-- Node1&#45;&gt;Node3 -->
<g id="edge2" class="edge">
<title>Node1&#45;&gt;Node3</title>
<path fill="none" stroke="#63b8ff" d="M261.91,-340.8C253.19,-332.59 242.05,-322.1 232.23,-312.87"/>
<polygon fill="#63b8ff" stroke="#63b8ff" points="234.83,-310.51 225.15,-306.2 230.03,-315.6 234.83,-310.51"/>
</g>
<!-- Node9 -->
<g id="node9" class="node">
<title>Node9</title>
<g id="a_node9"><a xlink:href="os_8h.html" target="_top" xlink:title=" ">
<polygon fill="white" stroke="#666666" points="1036,-299.5 968,-299.5 968,-280.5 1036,-280.5 1036,-299.5"/>
<text text-anchor="middle" x="1002" y="-287.5" font-family="Helvetica,sans-Serif" font-size="10.00">dolphin/os.h</text>
</a>
</g>
</g>
<!-- Node1&#45;&gt;Node9 -->
<g id="edge9" class="edge">
<title>Node1&#45;&gt;Node9</title>
<path fill="none" stroke="#63b8ff" d="M332.99,-350.06C471.8,-337.8 829.79,-306.2 956.62,-295.01"/>
<polygon fill="#63b8ff" stroke="#63b8ff" points="956.65,-298.52 966.31,-294.15 956.04,-291.54 956.65,-298.52"/>
</g>
<!-- Node31 -->
<g id="node31" class="node">
<title>Node31</title>
<g id="a_node31"><a xlink:href="dsp__task_8h.html" target="_top" xlink:title=" ">
<polygon fill="white" stroke="#666666" points="404,-299.5 288,-299.5 288,-280.5 404,-280.5 404,-299.5"/>
<text text-anchor="middle" x="346" y="-287.5" font-family="Helvetica,sans-Serif" font-size="10.00">dolphin/dsp/dsp_task.h</text>
</a>
</g>
</g>
<!-- Node1&#45;&gt;Node31 -->
<g id="edge53" class="edge">
<title>Node1&#45;&gt;Node31</title>
<path fill="none" stroke="#63b8ff" d="M292.31,-340.8C302.96,-330.92 317.19,-317.72 328.33,-307.39"/>
<polygon fill="#63b8ff" stroke="#63b8ff" points="330.4,-310.24 335.36,-300.87 325.64,-305.11 330.4,-310.24"/>
</g>
<!-- Node4 -->
<g id="node4" class="node">
<title>Node4</title>
<g id="a_node4"><a xlink:href="dsp_8h.html" target="_top" xlink:title=" ">
<polygon fill="white" stroke="#666666" points="246,-239 172,-239 172,-220 246,-220 246,-239"/>
<text text-anchor="middle" x="209" y="-227" font-family="Helvetica,sans-Serif" font-size="10.00">dolphin/dsp.h</text>
</a>
</g>
</g>
<!-- Node3&#45;&gt;Node4 -->
<g id="edge3" class="edge">
<title>Node3&#45;&gt;Node4</title>
<path fill="none" stroke="#63b8ff" d="M209,-274.54C209,-267.34 209,-258.53 209,-250.68"/>
<polygon fill="#63b8ff" stroke="#63b8ff" points="212.5,-250.69 209,-240.69 205.5,-250.69 212.5,-250.69"/>
</g>
<!-- Node5 -->
<g id="node5" class="node">
<title>Node5</title>
<g id="a_node5"><a xlink:href="OSTime_8h.html" target="_top" xlink:title=" ">
<polygon fill="white" stroke="#666666" points="344.5,-184 237.5,-184 237.5,-165 344.5,-165 344.5,-184"/>
<text text-anchor="middle" x="291" y="-172" font-family="Helvetica,sans-Serif" font-size="10.00">dolphin/os/OSTime.h</text>
</a>
</g>
</g>
<!-- Node4&#45;&gt;Node5 -->
<g id="edge4" class="edge">
<title>Node4&#45;&gt;Node5</title>
<path fill="none" stroke="#63b8ff" d="M222.91,-219.51C235.24,-211.54 253.47,-199.75 267.97,-190.38"/>
<polygon fill="#63b8ff" stroke="#63b8ff" points="269.53,-193.55 276.02,-185.18 265.73,-187.67 269.53,-193.55"/>
</g>
<!-- Node8 -->
<g id="node8" class="node">
<title>Node8</title>
<g id="a_node8"><a xlink:href="OSInterrupt_8h.html" target="_top" xlink:title=" ">
<polygon fill="white" stroke="#666666" points="494,-184 372,-184 372,-165 494,-165 494,-184"/>
<text text-anchor="middle" x="433" y="-172" font-family="Helvetica,sans-Serif" font-size="10.00">dolphin/os/OSInterrupt.h</text>
</a>
</g>
</g>
<!-- Node4&#45;&gt;Node8 -->
<g id="edge7" class="edge">
<title>Node4&#45;&gt;Node8</title>
<path fill="none" stroke="#63b8ff" d="M246.49,-219.63C284.17,-210.71 342.45,-196.92 383.82,-187.14"/>
<polygon fill="#63b8ff" stroke="#63b8ff" points="384.61,-190.55 393.54,-184.84 383,-183.73 384.61,-190.55"/>
</g>
<!-- Node6 -->
<g id="node6" class="node">
<title>Node6</title>
<g id="a_node6"><a xlink:href="types_8h.html" target="_top" xlink:title=" ">
<polygon fill="white" stroke="#666666" points="1050.5,-74 969.5,-74 969.5,-55 1050.5,-55 1050.5,-74"/>
<text text-anchor="middle" x="1010" y="-62" font-family="Helvetica,sans-Serif" font-size="10.00">dolphin/types.h</text>
</a>
</g>
</g>
<!-- Node5&#45;&gt;Node6 -->
<g id="edge5" class="edge">
<title>Node5&#45;&gt;Node6</title>
<path fill="none" stroke="#63b8ff" d="M317.91,-164.51C360.93,-150.52 448.08,-123.71 524,-110 680.2,-81.79 868.05,-71.04 957.58,-67.3"/>
<polygon fill="#63b8ff" stroke="#63b8ff" points="957.67,-70.8 967.52,-66.9 957.39,-63.8 957.67,-70.8"/>
</g>
<!-- Node7 -->
<g id="node7" class="node">
<title>Node7</title>
<g id="a_node7"><a xlink:href="stddef_8h.html" target="_top" xlink:title=" ">
<polygon fill="white" stroke="#666666" points="1035.5,-19 984.5,-19 984.5,0 1035.5,0 1035.5,-19"/>
<text text-anchor="middle" x="1010" y="-7" font-family="Helvetica,sans-Serif" font-size="10.00">stddef.h</text>
</a>
</g>
</g>
<!-- Node6&#45;&gt;Node7 -->
<g id="edge6" class="edge">
<title>Node6&#45;&gt;Node7</title>
<path fill="none" stroke="#63b8ff" d="M1010,-54.75C1010,-48.27 1010,-39.16 1010,-30.9"/>
<polygon fill="#63b8ff" stroke="#63b8ff" points="1013.5,-30.96 1010,-20.96 1006.5,-30.96 1013.5,-30.96"/>
</g>
<!-- Node8&#45;&gt;Node6 -->
<g id="edge8" class="edge">
<title>Node8&#45;&gt;Node6</title>
<path fill="none" stroke="#63b8ff" d="M449.52,-164.57C476.56,-150.4 532.34,-123.05 583,-110 715.08,-75.97 876.53,-67.85 957.86,-65.99"/>
<polygon fill="#63b8ff" stroke="#63b8ff" points="957.82,-69.49 967.75,-65.79 957.68,-62.49 957.82,-69.49"/>
</g>
<!-- Node9&#45;&gt;Node5 -->
<g id="edge52" class="edge">
<title>Node9&#45;&gt;Node5</title>
<path fill="none" stroke="#63b8ff" d="M967.6,-289.21C832.08,-289.69 340.15,-288.03 293,-239 282.12,-227.69 282.72,-209.33 285.4,-195.25"/>
<polygon fill="#63b8ff" stroke="#63b8ff" points="288.75,-196.29 287.69,-185.74 281.94,-194.64 288.75,-196.29"/>
</g>
<!-- Node9&#45;&gt;Node8 -->
<g id="edge32" class="edge">
<title>Node9&#45;&gt;Node8</title>
<path fill="none" stroke="#63b8ff" d="M967.59,-287.83C854.95,-283.72 502.1,-268.58 461,-239 446.79,-228.77 439.69,-209.7 436.21,-195.11"/>
<polygon fill="#63b8ff" stroke="#63b8ff" points="439.72,-194.83 434.35,-185.7 432.85,-196.18 439.72,-194.83"/>
</g>
<!-- Node10 -->
<g id="node10" class="node">
<title>Node10</title>
<g id="a_node10"><a xlink:href="____va__arg_8h.html" target="_top" xlink:title=" ">
<polygon fill="white" stroke="#666666" points="678,-129 614,-129 614,-110 678,-110 678,-129"/>
<text text-anchor="middle" x="646" y="-117" font-family="Helvetica,sans-Serif" font-size="10.00">__va_arg.h</text>
</a>
</g>
</g>
<!-- Node9&#45;&gt;Node10 -->
<g id="edge10" class="edge">
<title>Node9&#45;&gt;Node10</title>
<path fill="none" stroke="#63b8ff" d="M967.92,-285.9C904.22,-279.59 769.98,-263.74 731,-239 692.83,-214.77 666.55,-166.69 654.15,-139.81"/>
<polygon fill="#63b8ff" stroke="#63b8ff" points="657.41,-138.54 650.17,-130.81 651.01,-141.37 657.41,-138.54"/>
</g>
<!-- Node11 -->
<g id="node11" class="node">
<title>Node11</title>
<g id="a_node11"><a xlink:href="dvd_8h.html" target="_top" xlink:title=" ">
<polygon fill="white" stroke="#666666" points="770,-129 696,-129 696,-110 770,-110 770,-129"/>
<text text-anchor="middle" x="733" y="-117" font-family="Helvetica,sans-Serif" font-size="10.00">dolphin/dvd.h</text>
</a>
</g>
</g>
<!-- Node9&#45;&gt;Node11 -->
<g id="edge12" class="edge">
<title>Node9&#45;&gt;Node11</title>
<path fill="none" stroke="#63b8ff" d="M967.65,-286.22C921.67,-281.45 838.42,-269.13 774,-239 737.84,-222.09 720.57,-219.84 703,-184 695.31,-168.32 705.62,-150.31 716.19,-137.48"/>
<polygon fill="#63b8ff" stroke="#63b8ff" points="718.58,-140.06 722.67,-130.29 713.37,-135.38 718.58,-140.06"/>
</g>
<!-- Node12 -->
<g id="node12" class="node">
<title>Node12</title>
<g id="a_node12"><a xlink:href="OSAlarm_8h.html" target="_top" xlink:title=" ">
<polygon fill="white" stroke="#666666" points="413.5,-239 302.5,-239 302.5,-220 413.5,-220 413.5,-239"/>
<text text-anchor="middle" x="358" y="-227" font-family="Helvetica,sans-Serif" font-size="10.00">dolphin/os/OSAlarm.h</text>
</a>
</g>
</g>
<!-- Node9&#45;&gt;Node12 -->
<g id="edge14" class="edge">
<title>Node9&#45;&gt;Node12</title>
<path fill="none" stroke="#63b8ff" d="M967.67,-286.42C878.54,-279.63 632.45,-260.31 428,-239 426.99,-238.89 425.97,-238.79 424.94,-238.68"/>
<polygon fill="#63b8ff" stroke="#63b8ff" points="425.59,-235.23 415.27,-237.61 424.83,-242.19 425.59,-235.23"/>
</g>
<!-- Node13 -->
<g id="node13" class="node">
<title>Node13</title>
<g id="a_node13"><a xlink:href="OSError_8h.html" target="_top" xlink:title=" ">
<polygon fill="white" stroke="#666666" points="618,-184 512,-184 512,-165 618,-165 618,-184"/>
<text text-anchor="middle" x="565" y="-172" font-family="Helvetica,sans-Serif" font-size="10.00">dolphin/os/OSError.h</text>
</a>
</g>
</g>
<!-- Node9&#45;&gt;Node13 -->
<g id="edge27" class="edge">
<title>Node9&#45;&gt;Node13</title>
<path fill="none" stroke="#63b8ff" d="M967.62,-286.62C889.35,-280.82 700.14,-264.53 642,-239 617.56,-228.27 594.66,-207.46 580.29,-192.59"/>
<polygon fill="#63b8ff" stroke="#63b8ff" points="582.91,-190.28 573.54,-185.35 577.79,-195.05 582.91,-190.28"/>
</g>
<!-- Node14 -->
<g id="node14" class="node">
<title>Node14</title>
<g id="a_node14"><a xlink:href="OSAlloc_8h.html" target="_top" xlink:title=" ">
<polygon fill="white" stroke="#666666" points="819.5,-184 712.5,-184 712.5,-165 819.5,-165 819.5,-184"/>
<text text-anchor="middle" x="766" y="-172" font-family="Helvetica,sans-Serif" font-size="10.00">dolphin/os/OSAlloc.h</text>
</a>
</g>
</g>
<!-- Node9&#45;&gt;Node14 -->
<g id="edge18" class="edge">
<title>Node9&#45;&gt;Node14</title>
<path fill="none" stroke="#63b8ff" d="M967.53,-284.74C914.72,-277.59 817.17,-261.69 791,-239 778.26,-227.96 771.96,-209.57 768.87,-195.41"/>
<polygon fill="#63b8ff" stroke="#63b8ff" points="772.37,-195.08 767.18,-185.85 765.48,-196.3 772.37,-195.08"/>
</g>
<!-- Node15 -->
<g id="node15" class="node">
<title>Node15</title>
<g id="a_node15"><a xlink:href="OSArena_8h.html" target="_top" xlink:title=" ">
<polygon fill="white" stroke="#666666" points="937.5,-129 826.5,-129 826.5,-110 937.5,-110 937.5,-129"/>
<text text-anchor="middle" x="882" y="-117" font-family="Helvetica,sans-Serif" font-size="10.00">dolphin/os/OSArena.h</text>
</a>
</g>
</g>
<!-- Node9&#45;&gt;Node15 -->
<g id="edge20" class="edge">
<title>Node9&#45;&gt;Node15</title>
<path fill="none" stroke="#63b8ff" d="M967.7,-288.12C932.86,-285.16 880.5,-274.61 855,-239 833.38,-208.81 854.24,-164.14 869.39,-139.16"/>
<polygon fill="#63b8ff" stroke="#63b8ff" points="872.33,-141.05 874.77,-130.74 866.44,-137.28 872.33,-141.05"/>
</g>
<!-- Node16 -->
<g id="node16" class="node">
<title>Node16</title>
<g id="a_node16"><a xlink:href="OSAudioSystem_8h.html" target="_top" xlink:title=" ">
<polygon fill="white" stroke="#666666" points="1563.5,-239 1420.5,-239 1420.5,-220 1563.5,-220 1563.5,-239"/>
<text text-anchor="middle" x="1492" y="-227" font-family="Helvetica,sans-Serif" font-size="10.00">dolphin/os/OSAudioSystem.h</text>
</a>
</g>
</g>
<!-- Node9&#45;&gt;Node16 -->
<g id="edge22" class="edge">
<title>Node9&#45;&gt;Node16</title>
<path fill="none" stroke="#63b8ff" d="M1036.46,-284.89C1113.14,-275.73 1299.74,-253.45 1408.85,-240.43"/>
<polygon fill="#63b8ff" stroke="#63b8ff" points="1409.11,-243.92 1418.63,-239.26 1408.28,-236.97 1409.11,-243.92"/>
</g>
<!-- Node17 -->
<g id="node17" class="node">
<title>Node17</title>
<g id="a_node17"><a xlink:href="OSCache_8h.html" target="_top" xlink:title=" ">
<polygon fill="white" stroke="#666666" points="989.5,-184 876.5,-184 876.5,-165 989.5,-165 989.5,-184"/>
<text text-anchor="middle" x="933" y="-172" font-family="Helvetica,sans-Serif" font-size="10.00">dolphin/os/OSCache.h</text>
</a>
</g>
</g>
<!-- Node9&#45;&gt;Node17 -->
<g id="edge23" class="edge">
<title>Node9&#45;&gt;Node17</title>
<path fill="none" stroke="#63b8ff" d="M967.74,-287.42C934.53,-283.85 885.79,-272.75 862,-239 847.83,-218.89 874.1,-200.71 898.6,-189.01"/>
<polygon fill="#63b8ff" stroke="#63b8ff" points="899.79,-192.31 907.48,-185.02 896.93,-185.92 899.79,-192.31"/>
</g>
<!-- Node18 -->
<g id="node18" class="node">
<title>Node18</title>
<g id="a_node18"><a xlink:href="OSContext_8h.html" target="_top" xlink:title=" ">
<polygon fill="white" stroke="#666666" points="1113.5,-129 994.5,-129 994.5,-110 1113.5,-110 1113.5,-129"/>
<text text-anchor="middle" x="1054" y="-117" font-family="Helvetica,sans-Serif" font-size="10.00">dolphin/os/OSContext.h</text>
</a>
</g>
</g>
<!-- Node9&#45;&gt;Node18 -->
<g id="edge25" class="edge">
<title>Node9&#45;&gt;Node18</title>
<path fill="none" stroke="#63b8ff" d="M1036.32,-288.39C1071.85,-285.71 1125.76,-275.41 1152,-239 1165.78,-219.88 1147.11,-181.92 1133,-165 1121.61,-151.35 1104.9,-141.08 1089.77,-133.87"/>
<polygon fill="#63b8ff" stroke="#63b8ff" points="1091.58,-130.84 1081.02,-129.98 1088.73,-137.24 1091.58,-130.84"/>
</g>
<!-- Node19 -->
<g id="node19" class="node">
<title>Node19</title>
<g id="a_node19"><a xlink:href="OSExec_8h.html" target="_top" xlink:title=" ">
<polygon fill="white" stroke="#666666" points="1287.5,-184 1180.5,-184 1180.5,-165 1287.5,-165 1287.5,-184"/>
<text text-anchor="middle" x="1234" y="-172" font-family="Helvetica,sans-Serif" font-size="10.00">dolphin/os/OSExec.h</text>
</a>
</g>
</g>
<!-- Node9&#45;&gt;Node19 -->
<g id="edge28" class="edge">
<title>Node9&#45;&gt;Node19</title>
<path fill="none" stroke="#63b8ff" d="M1036.29,-289.6C1080.72,-288.58 1158.27,-280.38 1207,-239 1220,-227.97 1226.89,-209.58 1230.44,-195.42"/>
<polygon fill="#63b8ff" stroke="#63b8ff" points="1233.82,-196.35 1232.47,-185.84 1226.98,-194.9 1233.82,-196.35"/>
</g>
<!-- Node20 -->
<g id="node20" class="node">
<title>Node20</title>
<g id="a_node20"><a xlink:href="OSFont_8h.html" target="_top" xlink:title=" ">
<polygon fill="white" stroke="#666666" points="1275.5,-129 1170.5,-129 1170.5,-110 1275.5,-110 1275.5,-129"/>
<text text-anchor="middle" x="1223" y="-117" font-family="Helvetica,sans-Serif" font-size="10.00">dolphin/os/OSFont.h</text>
</a>
</g>
</g>
<!-- Node9&#45;&gt;Node20 -->
<g id="edge30" class="edge">
<title>Node9&#45;&gt;Node20</title>
<path fill="none" stroke="#63b8ff" d="M1036.14,-286.36C1081.83,-281.75 1164.46,-269.61 1228,-239 1263.02,-222.13 1279.26,-219.08 1296,-184 1306.35,-162.31 1282.33,-145.03 1259.12,-134"/>
<polygon fill="#63b8ff" stroke="#63b8ff" points="1260.59,-130.83 1250.03,-130 1257.76,-137.23 1260.59,-130.83"/>
</g>
<!-- Node21 -->
<g id="node21" class="node">
<title>Node21</title>
<g id="a_node21"><a xlink:href="OSLink_8h.html" target="_top" xlink:title=" ">
<polygon fill="white" stroke="#666666" points="1398,-129 1294,-129 1294,-110 1398,-110 1398,-129"/>
<text text-anchor="middle" x="1346" y="-117" font-family="Helvetica,sans-Serif" font-size="10.00">dolphin/os/OSLink.h</text>
</a>
</g>
</g>
<!-- Node9&#45;&gt;Node21 -->
<g id="edge33" class="edge">
<title>Node9&#45;&gt;Node21</title>
<path fill="none" stroke="#63b8ff" d="M1036.33,-289.15C1088.41,-287.94 1189.05,-279.95 1262,-239 1301.46,-216.85 1326.87,-167.53 1338.54,-140.01"/>
<polygon fill="#63b8ff" stroke="#63b8ff" points="1341.77,-141.37 1342.26,-130.79 1335.27,-138.76 1341.77,-141.37"/>
</g>
<!-- Node22 -->
<g id="node22" class="node">
<title>Node22</title>
<g id="a_node22"><a xlink:href="OSMemory_8h.html" target="_top" xlink:title=" ">
<polygon fill="white" stroke="#666666" points="590,-239 470,-239 470,-220 590,-220 590,-239"/>
<text text-anchor="middle" x="530" y="-227" font-family="Helvetica,sans-Serif" font-size="10.00">dolphin/os/OSMemory.h</text>
</a>
</g>
</g>
<!-- Node9&#45;&gt;Node22 -->
<g id="edge35" class="edge">
<title>Node9&#45;&gt;Node22</title>
<path fill="none" stroke="#63b8ff" d="M967.67,-284.75C891,-275.24 704.46,-252.12 601.38,-239.35"/>
<polygon fill="#63b8ff" stroke="#63b8ff" points="602.01,-235.9 591.65,-238.14 601.15,-242.85 602.01,-235.9"/>
</g>
<!-- Node23 -->
<g id="node23" class="node">
<title>Node23</title>
<g id="a_node23"><a xlink:href="OSMessage_8h.html" target="_top" xlink:title=" ">
<polygon fill="white" stroke="#666666" points="996.5,-239 871.5,-239 871.5,-220 996.5,-220 996.5,-239"/>
<text text-anchor="middle" x="934" y="-227" font-family="Helvetica,sans-Serif" font-size="10.00">dolphin/os/OSMessage.h</text>
</a>
</g>
</g>
<!-- Node9&#45;&gt;Node23 -->
<g id="edge37" class="edge">
<title>Node9&#45;&gt;Node23</title>
<path fill="none" stroke="#63b8ff" d="M991.67,-280.12C981.39,-271.27 965.37,-257.48 952.82,-246.69"/>
<polygon fill="#63b8ff" stroke="#63b8ff" points="955.44,-244.32 945.57,-240.46 950.87,-249.63 955.44,-244.32"/>
</g>
<!-- Node24 -->
<g id="node24" class="node">
<title>Node24</title>
<g id="a_node24"><a xlink:href="OSThread_8h.html" target="_top" xlink:title=" ">
<polygon fill="white" stroke="#666666" points="1124,-184 1008,-184 1008,-165 1124,-165 1124,-184"/>
<text text-anchor="middle" x="1066" y="-172" font-family="Helvetica,sans-Serif" font-size="10.00">dolphin/os/OSThread.h</text>
</a>
</g>
</g>
<!-- Node9&#45;&gt;Node24 -->
<g id="edge51" class="edge">
<title>Node9&#45;&gt;Node24</title>
<path fill="none" stroke="#63b8ff" d="M1036.34,-286.76C1068.12,-282.65 1113.7,-271.13 1136,-239 1149.86,-219.04 1124.26,-200.92 1100.22,-189.2"/>
<polygon fill="#63b8ff" stroke="#63b8ff" points="1101.7,-186.03 1091.15,-185.06 1098.79,-192.4 1101.7,-186.03"/>
</g>
<!-- Node25 -->
<g id="node25" class="node">
<title>Node25</title>
<g id="a_node25"><a xlink:href="OSMutex_8h.html" target="_top" xlink:title=" ">
<polygon fill="white" stroke="#666666" points="1127,-239 1015,-239 1015,-220 1127,-220 1127,-239"/>
<text text-anchor="middle" x="1071" y="-227" font-family="Helvetica,sans-Serif" font-size="10.00">dolphin/os/OSMutex.h</text>
</a>
</g>
</g>
<!-- Node9&#45;&gt;Node25 -->
<g id="edge40" class="edge">
<title>Node9&#45;&gt;Node25</title>
<path fill="none" stroke="#63b8ff" d="M1012.48,-280.12C1022.92,-271.27 1039.17,-257.48 1051.91,-246.69"/>
<polygon fill="#63b8ff" stroke="#63b8ff" points="1053.9,-249.58 1059.27,-240.45 1049.38,-244.24 1053.9,-249.58"/>
</g>
<!-- Node26 -->
<g id="node26" class="node">
<title>Node26</title>
<g id="a_node26"><a xlink:href="OSReboot_8h.html" target="_top" xlink:title=" ">
<polygon fill="white" stroke="#666666" points="1532,-129 1416,-129 1416,-110 1532,-110 1532,-129"/>
<text text-anchor="middle" x="1474" y="-117" font-family="Helvetica,sans-Serif" font-size="10.00">dolphin/os/OSReboot.h</text>
</a>
</g>
</g>
<!-- Node9&#45;&gt;Node26 -->
<g id="edge42" class="edge">
<title>Node9&#45;&gt;Node26</title>
<path fill="none" stroke="#63b8ff" d="M1036.31,-287.4C1091.35,-283.87 1202.04,-272.84 1289,-239 1355.04,-213.3 1422.66,-162.5 1454.78,-136.56"/>
<polygon fill="#63b8ff" stroke="#63b8ff" points="1456.88,-139.36 1462.4,-130.32 1452.45,-133.94 1456.88,-139.36"/>
</g>
<!-- Node27 -->
<g id="node27" class="node">
<title>Node27</title>
<g id="a_node27"><a xlink:href="OSReset_8h.html" target="_top" xlink:title=" ">
<polygon fill="white" stroke="#666666" points="1817.5,-239 1706.5,-239 1706.5,-220 1817.5,-220 1817.5,-239"/>
<text text-anchor="middle" x="1762" y="-227" font-family="Helvetica,sans-Serif" font-size="10.00">dolphin/os/OSReset.h</text>
</a>
</g>
</g>
<!-- Node9&#45;&gt;Node27 -->
<g id="edge44" class="edge">
<title>Node9&#45;&gt;Node27</title>
<path fill="none" stroke="#63b8ff" d="M1036.46,-287.26C1136.53,-282.06 1435.97,-265.39 1695.04,-239.25"/>
<polygon fill="#63b8ff" stroke="#63b8ff" points="1695.08,-242.76 1704.67,-238.27 1694.37,-235.8 1695.08,-242.76"/>
</g>
<!-- Node28 -->
<g id="node28" class="node">
<title>Node28</title>
<g id="a_node28"><a xlink:href="OSResetSW_8h.html" target="_top" xlink:title=" ">
<polygon fill="white" stroke="#666666" points="1820.5,-184 1693.5,-184 1693.5,-165 1820.5,-165 1820.5,-184"/>
<text text-anchor="middle" x="1757" y="-172" font-family="Helvetica,sans-Serif" font-size="10.00">dolphin/os/OSResetSW.h</text>
</a>
</g>
</g>
<!-- Node9&#45;&gt;Node28 -->
<g id="edge46" class="edge">
<title>Node9&#45;&gt;Node28</title>
<path fill="none" stroke="#63b8ff" d="M1036.41,-288.22C1189.16,-284.58 1799.48,-268.24 1827,-239 1844.2,-220.73 1815.87,-201.63 1790.27,-189.21"/>
<polygon fill="#63b8ff" stroke="#63b8ff" points="1791.89,-186.1 1781.34,-185.1 1788.97,-192.46 1791.89,-186.1"/>
</g>
<!-- Node29 -->
<g id="node29" class="node">
<title>Node29</title>
<g id="a_node29"><a xlink:href="OSRtc_8h.html" target="_top" xlink:title=" ">
<polygon fill="white" stroke="#666666" points="1809.5,-129 1708.5,-129 1708.5,-110 1809.5,-110 1809.5,-129"/>
<text text-anchor="middle" x="1759" y="-117" font-family="Helvetica,sans-Serif" font-size="10.00">dolphin/os/OSRtc.h</text>
</a>
</g>
</g>
<!-- Node9&#45;&gt;Node29 -->
<g id="edge48" class="edge">
<title>Node9&#45;&gt;Node29</title>
<path fill="none" stroke="#63b8ff" d="M1036.3,-288.26C1190.7,-284.77 1814.88,-268.84 1843,-239 1856.06,-225.15 1849.56,-192.31 1830,-165 1820.55,-151.81 1805.85,-141.66 1792.28,-134.41"/>
<polygon fill="#63b8ff" stroke="#63b8ff" points="1794.09,-131.4 1783.57,-130.1 1790.98,-137.68 1794.09,-131.4"/>
</g>
<!-- Node30 -->
<g id="node30" class="node">
<title>Node30</title>
<g id="a_node30"><a xlink:href="OSSync_8h.html" target="_top" xlink:title=" ">
<polygon fill="white" stroke="#666666" points="1688.5,-239 1581.5,-239 1581.5,-220 1688.5,-220 1688.5,-239"/>
<text text-anchor="middle" x="1635" y="-227" font-family="Helvetica,sans-Serif" font-size="10.00">dolphin/os/OSSync.h</text>
</a>
</g>
</g>
<!-- Node9&#45;&gt;Node30 -->
<g id="edge50" class="edge">
<title>Node9&#45;&gt;Node30</title>
<path fill="none" stroke="#63b8ff" d="M1036.49,-286.57C1123.91,-280.29 1361.48,-262.43 1570.08,-239.28"/>
<polygon fill="#63b8ff" stroke="#63b8ff" points="1570.2,-242.79 1579.75,-238.2 1569.42,-235.83 1570.2,-242.79"/>
</g>
<!-- Node10&#45;&gt;Node6 -->
<g id="edge11" class="edge">
<title>Node10&#45;&gt;Node6</title>
<path fill="none" stroke="#63b8ff" d="M678.19,-111.61C681.16,-111.04 684.13,-110.49 687,-110 782.05,-93.62 893.67,-79.33 957.69,-71.6"/>
<polygon fill="#63b8ff" stroke="#63b8ff" points="958.06,-75.09 967.57,-70.42 957.22,-68.14 958.06,-75.09"/>
</g>
<!-- Node11&#45;&gt;Node6 -->
<g id="edge13" class="edge">
<title>Node11&#45;&gt;Node6</title>
<path fill="none" stroke="#63b8ff" d="M770.36,-111.35C818.75,-102.09 903.36,-85.9 958.01,-75.45"/>
<polygon fill="#63b8ff" stroke="#63b8ff" points="958.54,-78.91 967.7,-73.59 957.22,-72.03 958.54,-78.91"/>
</g>
<!-- Node12&#45;&gt;Node5 -->
<g id="edge17" class="edge">
<title>Node12&#45;&gt;Node5</title>
<path fill="none" stroke="#63b8ff" d="M346.63,-219.51C336.95,-211.85 322.8,-200.66 311.19,-191.47"/>
<polygon fill="#63b8ff" stroke="#63b8ff" points="313.4,-188.76 303.38,-185.3 309.06,-194.25 313.4,-188.76"/>
</g>
<!-- Node12&#45;&gt;Node13 -->
<g id="edge15" class="edge">
<title>Node12&#45;&gt;Node13</title>
<path fill="none" stroke="#63b8ff" d="M393.11,-219.51C427.86,-210.61 481.23,-196.95 519.27,-187.21"/>
<polygon fill="#63b8ff" stroke="#63b8ff" points="519.77,-190.69 528.59,-184.82 518.04,-183.91 519.77,-190.69"/>
</g>
<!-- Node13&#45;&gt;Node6 -->
<g id="edge16" class="edge">
<title>Node13&#45;&gt;Node6</title>
<path fill="none" stroke="#63b8ff" d="M567.73,-164.74C572.65,-150.55 584.46,-122.85 605,-110 662.64,-73.94 862.08,-66.94 957.86,-65.7"/>
<polygon fill="#63b8ff" stroke="#63b8ff" points="957.81,-69.2 967.77,-65.58 957.73,-62.2 957.81,-69.2"/>
</g>
<!-- Node14&#45;&gt;Node6 -->
<g id="edge19" class="edge">
<title>Node14&#45;&gt;Node6</title>
<path fill="none" stroke="#63b8ff" d="M770.6,-164.54C778.26,-150.58 794.96,-123.83 817,-110 859.77,-83.16 916.98,-72.47 957.99,-68.23"/>
<polygon fill="#63b8ff" stroke="#63b8ff" points="958.22,-71.73 967.86,-67.32 957.58,-64.76 958.22,-71.73"/>
</g>
<!-- Node15&#45;&gt;Node6 -->
<g id="edge21" class="edge">
<title>Node15&#45;&gt;Node6</title>
<path fill="none" stroke="#63b8ff" d="M903.71,-109.51C924.16,-101.04 955.02,-88.27 978.23,-78.66"/>
<polygon fill="#63b8ff" stroke="#63b8ff" points="979.31,-82 987.21,-74.94 976.63,-75.53 979.31,-82"/>
</g>
<!-- Node17&#45;&gt;Node6 -->
<g id="edge24" class="edge">
<title>Node17&#45;&gt;Node6</title>
<path fill="none" stroke="#63b8ff" d="M939.3,-164.66C951.88,-147.02 980.32,-107.12 997.05,-83.67"/>
<polygon fill="#63b8ff" stroke="#63b8ff" points="999.78,-85.87 1002.73,-75.69 994.08,-81.8 999.78,-85.87"/>
</g>
<!-- Node18&#45;&gt;Node6 -->
<g id="edge26" class="edge">
<title>Node18&#45;&gt;Node6</title>
<path fill="none" stroke="#63b8ff" d="M1046.73,-109.75C1040.72,-102.5 1031.99,-91.98 1024.54,-83.02"/>
<polygon fill="#63b8ff" stroke="#63b8ff" points="1027.47,-81.07 1018.39,-75.61 1022.08,-85.54 1027.47,-81.07"/>
</g>
<!-- Node19&#45;&gt;Node6 -->
<g id="edge29" class="edge">
<title>Node19&#45;&gt;Node6</title>
<path fill="none" stroke="#63b8ff" d="M1219.84,-164.63C1198.91,-151.72 1158.28,-127.39 1122,-110 1097.14,-98.09 1068.21,-86.65 1045.98,-78.35"/>
<polygon fill="#63b8ff" stroke="#63b8ff" points="1047.35,-75.13 1036.75,-74.95 1044.93,-81.7 1047.35,-75.13"/>
</g>
<!-- Node20&#45;&gt;Node6 -->
<g id="edge31" class="edge">
<title>Node20&#45;&gt;Node6</title>
<path fill="none" stroke="#63b8ff" d="M1186.87,-109.51C1151.11,-100.61 1096.2,-86.95 1057.05,-77.21"/>
<polygon fill="#63b8ff" stroke="#63b8ff" points="1057.97,-73.83 1047.42,-74.81 1056.28,-80.62 1057.97,-73.83"/>
</g>
<!-- Node21&#45;&gt;Node6 -->
<g id="edge34" class="edge">
<title>Node21&#45;&gt;Node6</title>
<path fill="none" stroke="#63b8ff" d="M1293.5,-110.22C1230.34,-100.26 1124.97,-83.63 1062.02,-73.71"/>
<polygon fill="#63b8ff" stroke="#63b8ff" points="1062.7,-70.27 1052.28,-72.17 1061.61,-77.18 1062.7,-70.27"/>
</g>
<!-- Node22&#45;&gt;Node8 -->
<g id="edge36" class="edge">
<title>Node22&#45;&gt;Node8</title>
<path fill="none" stroke="#63b8ff" d="M513.55,-219.51C498.68,-211.39 476.56,-199.3 459.25,-189.85"/>
<polygon fill="#63b8ff" stroke="#63b8ff" points="460.99,-186.81 450.54,-185.08 457.64,-192.95 460.99,-186.81"/>
</g>
<!-- Node23&#45;&gt;Node24 -->
<g id="edge38" class="edge">
<title>Node23&#45;&gt;Node24</title>
<path fill="none" stroke="#63b8ff" d="M956.39,-219.51C977.57,-211.01 1009.59,-198.15 1033.56,-188.53"/>
<polygon fill="#63b8ff" stroke="#63b8ff" points="1034.56,-191.9 1042.53,-184.92 1031.95,-185.4 1034.56,-191.9"/>
</g>
<!-- Node24&#45;&gt;Node18 -->
<g id="edge39" class="edge">
<title>Node24&#45;&gt;Node18</title>
<path fill="none" stroke="#63b8ff" d="M1064.02,-164.75C1062.53,-158.19 1060.44,-148.95 1058.55,-140.6"/>
<polygon fill="#63b8ff" stroke="#63b8ff" points="1061.98,-139.9 1056.36,-130.92 1055.15,-141.44 1061.98,-139.9"/>
</g>
<!-- Node25&#45;&gt;Node24 -->
<g id="edge41" class="edge">
<title>Node25&#45;&gt;Node24</title>
<path fill="none" stroke="#63b8ff" d="M1070.17,-219.75C1069.56,-213.27 1068.7,-204.16 1067.92,-195.9"/>
<polygon fill="#63b8ff" stroke="#63b8ff" points="1071.41,-195.58 1066.99,-185.95 1064.44,-196.23 1071.41,-195.58"/>
</g>
<!-- Node26&#45;&gt;Node6 -->
<g id="edge43" class="edge">
<title>Node26&#45;&gt;Node6</title>
<path fill="none" stroke="#63b8ff" d="M1415.54,-111.03C1412.65,-110.68 1409.79,-110.33 1407,-110 1283.36,-95.23 1137.89,-79.29 1062.01,-71.09"/>
<polygon fill="#63b8ff" stroke="#63b8ff" points="1062.71,-67.64 1052.39,-70.05 1061.96,-74.6 1062.71,-67.64"/>
</g>
<!-- Node27&#45;&gt;Node6 -->
<g id="edge45" class="edge">
<title>Node27&#45;&gt;Node6</title>
<path fill="none" stroke="#63b8ff" d="M1746.29,-219.6C1699.52,-193.16 1563.07,-116.54 1541,-110 1452.24,-83.72 1177.75,-71.33 1062.16,-67.18"/>
<polygon fill="#63b8ff" stroke="#63b8ff" points="1062.45,-63.69 1052.34,-66.83 1062.21,-70.68 1062.45,-63.69"/>
</g>
<!-- Node28&#45;&gt;Node6 -->
<g id="edge47" class="edge">
<title>Node28&#45;&gt;Node6</title>
<path fill="none" stroke="#63b8ff" d="M1741.19,-164.62C1714.76,-150.27 1659.52,-122.35 1609,-110 1505.86,-84.79 1187.77,-71.53 1061.97,-67.16"/>
<polygon fill="#63b8ff" stroke="#63b8ff" points="1062.39,-63.67 1052.28,-66.83 1062.15,-70.67 1062.39,-63.67"/>
</g>
<!-- Node29&#45;&gt;Node6 -->
<g id="edge49" class="edge">
<title>Node29&#45;&gt;Node6</title>
<path fill="none" stroke="#63b8ff" d="M1708.24,-113.15C1696.97,-112.04 1685.08,-110.93 1674,-110 1446.32,-90.99 1174.18,-74.8 1062.12,-68.41"/>
<polygon fill="#63b8ff" stroke="#63b8ff" points="1062.53,-64.93 1052.35,-67.86 1062.13,-71.92 1062.53,-64.93"/>
</g>
<!-- Node31&#45;&gt;Node4 -->
<g id="edge54" class="edge">
<title>Node31&#45;&gt;Node4</title>
<path fill="none" stroke="#63b8ff" d="M325.19,-280.12C302.66,-270.49 266.46,-255.04 240.46,-243.93"/>
<polygon fill="#63b8ff" stroke="#63b8ff" points="241.97,-240.77 231.4,-240.06 239.22,-247.21 241.97,-240.77"/>
</g>
</g>
</svg>
