<?xml version="1.0" encoding="UTF-8" standalone="no"?>
<!DOCTYPE svg PUBLIC "-//W3C//DTD SVG 1.1//EN"
 "http://www.w3.org/Graphics/SVG/1.1/DTD/svg11.dtd">
<!-- Generated by graphviz version 7.0.5 (20221223.1930)
 -->
<!-- Title: include/dolphin/os/OSExec.h Pages: 1 -->
<svg width="6529pt" height="236pt"
 viewBox="0.00 0.00 6529.00 236.00" xmlns="http://www.w3.org/2000/svg" xmlns:xlink="http://www.w3.org/1999/xlink">
<g id="graph0" class="graph" transform="scale(1 1) rotate(0) translate(4 232)">
<title>include/dolphin/os/OSExec.h</title>
<!-- Node1 -->
<g id="node1" class="node">
<title>Node1</title>
<g id="a_node1"><a xlink:title=" ">
<polygon fill="#999999" stroke="#666666" points="3283.5,-228 3188.5,-228 3188.5,-198 3283.5,-198 3283.5,-228"/>
<text text-anchor="start" x="3196.5" y="-216" font-family="Helvetica,sans-Serif" font-size="10.00">include/dolphin/os</text>
<text text-anchor="middle" x="3236" y="-205" font-family="Helvetica,sans-Serif" font-size="10.00">/OSExec.h</text>
</a>
</g>
</g>
<!-- Node2 -->
<g id="node2" class="node">
<title>Node2</title>
<g id="a_node2"><a xlink:href="OS_8h.html" target="_top" xlink:title=" ">
<polygon fill="#fff0f0" stroke="red" points="3225.5,-162 3106.5,-162 3106.5,-143 3225.5,-143 3225.5,-162"/>
<text text-anchor="middle" x="3166" y="-150" font-family="Helvetica,sans-Serif" font-size="10.00">include/dolphin/os/OS.h</text>
</a>
</g>
</g>
<!-- Node1&#45;&gt;Node2 -->
<g id="edge1" class="edge">
<title>Node1&#45;&gt;Node2</title>
<path fill="none" stroke="#63b8ff" d="M3210.13,-190.38C3198.43,-180.6 3185.26,-169.6 3176.38,-162.18"/>
<polygon fill="#63b8ff" stroke="#63b8ff" points="3207.62,-192.84 3217.54,-196.57 3212.11,-187.47 3207.62,-192.84"/>
</g>
<!-- Node549 -->
<g id="node50" class="node">
<title>Node549</title>
<g id="a_node50"><a xlink:href="OSExec_8c.html" target="_top" xlink:title=" ">
<polygon fill="white" stroke="#666666" points="3368.5,-162 3243.5,-162 3243.5,-143 3368.5,-143 3368.5,-162"/>
<text text-anchor="middle" x="3306" y="-150" font-family="Helvetica,sans-Serif" font-size="10.00">libs/dolphin/os/OSExec.c</text>
</a>
</g>
</g>
<!-- Node1&#45;&gt;Node549 -->
<g id="edge53" class="edge">
<title>Node1&#45;&gt;Node549</title>
<path fill="none" stroke="#63b8ff" d="M3261.87,-190.38C3273.57,-180.6 3286.74,-169.6 3295.62,-162.18"/>
<polygon fill="#63b8ff" stroke="#63b8ff" points="3259.89,-187.47 3254.46,-196.57 3264.38,-192.84 3259.89,-187.47"/>
</g>
<!-- Node3 -->
<g id="node3" class="node">
<title>Node3</title>
<g id="a_node3"><a xlink:href="JUTAssert_8h.html" target="_top" xlink:title=" ">
<polygon fill="#fff0f0" stroke="red" points="327,-101.5 205,-101.5 205,-71.5 327,-71.5 327,-101.5"/>
<text text-anchor="start" x="213" y="-89.5" font-family="Helvetica,sans-Serif" font-size="10.00">include/JSystem/JUtility</text>
<text text-anchor="middle" x="266" y="-78.5" font-family="Helvetica,sans-Serif" font-size="10.00">/JUTAssert.h</text>
</a>
</g>
</g>
<!-- Node2&#45;&gt;Node3 -->
<g id="edge2" class="edge">
<title>Node2&#45;&gt;Node3</title>
<path fill="none" stroke="#63b8ff" d="M3094.69,-151.39C2683.2,-150.65 620.82,-145.02 341,-107 332.47,-105.84 323.51,-104.04 314.88,-102"/>
<polygon fill="#63b8ff" stroke="#63b8ff" points="3094.58,-154.89 3104.58,-151.41 3094.59,-147.89 3094.58,-154.89"/>
</g>
<!-- Node482 -->
<g id="node4" class="node">
<title>Node482</title>
<g id="a_node4"><a xlink:href="JFWDisplay_8cpp.html" target="_top" xlink:title=" ">
<polygon fill="white" stroke="#666666" points="130,-30 0,-30 0,0 130,0 130,-30"/>
<text text-anchor="start" x="8" y="-18" font-family="Helvetica,sans-Serif" font-size="10.00">libs/JSystem/JFramework</text>
<text text-anchor="middle" x="65" y="-7" font-family="Helvetica,sans-Serif" font-size="10.00">/JFWDisplay.cpp</text>
</a>
</g>
</g>
<!-- Node2&#45;&gt;Node482 -->
<g id="edge23" class="edge">
<title>Node2&#45;&gt;Node482</title>
<path fill="none" stroke="#63b8ff" d="M3094.93,-151.72C2655.48,-152.95 322.59,-157.09 181,-107 136.84,-91.38 96.54,-51.59 77.15,-30.17"/>
<polygon fill="#63b8ff" stroke="#63b8ff" points="3094.66,-155.23 3104.65,-151.7 3094.64,-148.23 3094.66,-155.23"/>
</g>
<!-- Node486 -->
<g id="node5" class="node">
<title>Node486</title>
<g id="a_node5"><a xlink:href="JKRDvdArchive_8cpp.html" target="_top" xlink:title=" ">
<polygon fill="white" stroke="#666666" points="257.5,-30 148.5,-30 148.5,0 257.5,0 257.5,-30"/>
<text text-anchor="start" x="156.5" y="-18" font-family="Helvetica,sans-Serif" font-size="10.00">libs/JSystem/JKernel</text>
<text text-anchor="middle" x="203" y="-7" font-family="Helvetica,sans-Serif" font-size="10.00">/JKRDvdArchive.cpp</text>
</a>
</g>
</g>
<!-- Node2&#45;&gt;Node486 -->
<g id="edge25" class="edge">
<title>Node2&#45;&gt;Node486</title>
<path fill="none" stroke="#63b8ff" d="M3094.75,-151.11C2645.43,-148.57 222.27,-133.66 196,-107 176.1,-86.79 187.45,-50.35 196.08,-30.26"/>
<polygon fill="#63b8ff" stroke="#63b8ff" points="3094.7,-154.61 3104.72,-151.17 3094.74,-147.61 3094.7,-154.61"/>
</g>
<!-- Node489 -->
<g id="node6" class="node">
<title>Node489</title>
<g id="a_node6"><a xlink:href="JKRHeap_8cpp.html" target="_top" xlink:title=" ">
<polygon fill="white" stroke="#666666" points="384.5,-30 275.5,-30 275.5,0 384.5,0 384.5,-30"/>
<text text-anchor="start" x="283.5" y="-18" font-family="Helvetica,sans-Serif" font-size="10.00">libs/JSystem/JKernel</text>
<text text-anchor="middle" x="330" y="-7" font-family="Helvetica,sans-Serif" font-size="10.00">/JKRHeap.cpp</text>
</a>
</g>
</g>
<!-- Node2&#45;&gt;Node489 -->
<g id="edge26" class="edge">
<title>Node2&#45;&gt;Node489</title>
<path fill="none" stroke="#63b8ff" d="M3094.93,-151.21C2668.15,-149.33 462.01,-138.16 400,-107 367.59,-90.71 345.88,-51.59 336.04,-30.33"/>
<polygon fill="#63b8ff" stroke="#63b8ff" points="3094.62,-154.7 3104.64,-151.25 3094.65,-147.7 3094.62,-154.7"/>
</g>
<!-- Node496 -->
<g id="node7" class="node">
<title>Node496</title>
<g id="a_node7"><a xlink:href="JUTConsole_8cpp.html" target="_top" xlink:title=" ">
<polygon fill="white" stroke="#666666" points="509,-30 403,-30 403,0 509,0 509,-30"/>
<text text-anchor="start" x="411" y="-18" font-family="Helvetica,sans-Serif" font-size="10.00">libs/JSystem/JUtility</text>
<text text-anchor="middle" x="456" y="-7" font-family="Helvetica,sans-Serif" font-size="10.00">/JUTConsole.cpp</text>
</a>
</g>
</g>
<!-- Node2&#45;&gt;Node496 -->
<g id="edge29" class="edge">
<title>Node2&#45;&gt;Node496</title>
<path fill="none" stroke="#63b8ff" d="M3094.86,-151.71C2667.74,-152.84 460.46,-156.25 412,-107 390.21,-84.86 419.59,-49.83 439.79,-30.32"/>
<polygon fill="#63b8ff" stroke="#63b8ff" points="3094.59,-155.22 3104.58,-151.69 3094.57,-148.22 3094.59,-155.22"/>
</g>
<!-- Node499 -->
<g id="node8" class="node">
<title>Node499</title>
<g id="a_node8"><a xlink:href="dolphin__trk__glue_8h.html" target="_top" xlink:title=" ">
<polygon fill="#fff0f0" stroke="red" points="539,-107 421,-107 421,-66 539,-66 539,-107"/>
<text text-anchor="start" x="429" y="-95" font-family="Helvetica,sans-Serif" font-size="10.00">include/TRK_MINNOW</text>
<text text-anchor="start" x="429" y="-84" font-family="Helvetica,sans-Serif" font-size="10.00">_DOLPHIN/Os/dolphin</text>
<text text-anchor="middle" x="480" y="-73" font-family="Helvetica,sans-Serif" font-size="10.00">/dolphin_trk_glue.h</text>
</a>
</g>
</g>
<!-- Node2&#45;&gt;Node499 -->
<g id="edge7" class="edge">
<title>Node2&#45;&gt;Node499</title>
<path fill="none" stroke="#63b8ff" d="M3094.66,-151.39C2701.42,-150.62 806.65,-144.94 549,-107 545.8,-106.53 542.53,-105.95 539.26,-105.3"/>
<polygon fill="#63b8ff" stroke="#63b8ff" points="3094.61,-154.89 3104.61,-151.41 3094.62,-147.89 3094.61,-154.89"/>
</g>
<!-- Node501 -->
<g id="node9" class="node">
<title>Node501</title>
<g id="a_node9"><a xlink:href="J2DAnimation_8cpp.html" target="_top" xlink:title=" ">
<polygon fill="white" stroke="#666666" points="676.5,-101.5 557.5,-101.5 557.5,-71.5 676.5,-71.5 676.5,-101.5"/>
<text text-anchor="start" x="565.5" y="-89.5" font-family="Helvetica,sans-Serif" font-size="10.00">libs/JSystem/J2DGraph</text>
<text text-anchor="middle" x="617" y="-78.5" font-family="Helvetica,sans-Serif" font-size="10.00">/J2DAnimation.cpp</text>
</a>
</g>
</g>
<!-- Node2&#45;&gt;Node501 -->
<g id="edge8" class="edge">
<title>Node2&#45;&gt;Node501</title>
<path fill="none" stroke="#63b8ff" d="M3094.76,-151.31C2714.21,-150.18 929.36,-142.96 686,-107 678.12,-105.84 669.87,-104.03 661.92,-101.99"/>
<polygon fill="#63b8ff" stroke="#63b8ff" points="3094.61,-154.81 3104.62,-151.34 3094.63,-147.81 3094.61,-154.81"/>
</g>
<!-- Node502 -->
<g id="node10" class="node">
<title>Node502</title>
<g id="a_node10"><a xlink:href="J3DModel_8cpp.html" target="_top" xlink:title=" ">
<polygon fill="white" stroke="#666666" points="853,-101.5 695,-101.5 695,-71.5 853,-71.5 853,-101.5"/>
<text text-anchor="start" x="703" y="-89.5" font-family="Helvetica,sans-Serif" font-size="10.00">libs/JSystem/J3DGraphAnimator</text>
<text text-anchor="middle" x="774" y="-78.5" font-family="Helvetica,sans-Serif" font-size="10.00">/J3DModel.cpp</text>
</a>
</g>
</g>
<!-- Node2&#45;&gt;Node502 -->
<g id="edge9" class="edge">
<title>Node2&#45;&gt;Node502</title>
<path fill="none" stroke="#63b8ff" d="M3094.64,-150.97C2730.5,-148.13 1087.85,-133.93 862,-107 852.06,-105.81 841.58,-104 831.47,-101.95"/>
<polygon fill="#63b8ff" stroke="#63b8ff" points="3094.51,-154.47 3104.53,-151.04 3094.56,-147.47 3094.51,-154.47"/>
</g>
<!-- Node503 -->
<g id="node11" class="node">
<title>Node503</title>
<g id="a_node11"><a xlink:href="J3DModelData_8cpp.html" target="_top" xlink:title=" ">
<polygon fill="white" stroke="#666666" points="1029,-101.5 871,-101.5 871,-71.5 1029,-71.5 1029,-101.5"/>
<text text-anchor="start" x="879" y="-89.5" font-family="Helvetica,sans-Serif" font-size="10.00">libs/JSystem/J3DGraphAnimator</text>
<text text-anchor="middle" x="950" y="-78.5" font-family="Helvetica,sans-Serif" font-size="10.00">/J3DModelData.cpp</text>
</a>
</g>
</g>
<!-- Node2&#45;&gt;Node503 -->
<g id="edge10" class="edge">
<title>Node2&#45;&gt;Node503</title>
<path fill="none" stroke="#63b8ff" d="M3094.84,-150.85C2748.28,-147.55 1245.52,-131.91 1038,-107 1028.06,-105.81 1017.58,-103.99 1007.47,-101.94"/>
<polygon fill="#63b8ff" stroke="#63b8ff" points="3094.65,-154.34 3104.68,-150.94 3094.72,-147.34 3094.65,-154.34"/>
</g>
<!-- Node504 -->
<g id="node12" class="node">
<title>Node504</title>
<g id="a_node12"><a xlink:href="J3DSkinDeform_8cpp.html" target="_top" xlink:title=" ">
<polygon fill="white" stroke="#666666" points="1205,-101.5 1047,-101.5 1047,-71.5 1205,-71.5 1205,-101.5"/>
<text text-anchor="start" x="1055" y="-89.5" font-family="Helvetica,sans-Serif" font-size="10.00">libs/JSystem/J3DGraphAnimator</text>
<text text-anchor="middle" x="1126" y="-78.5" font-family="Helvetica,sans-Serif" font-size="10.00">/J3DSkinDeform.cpp</text>
</a>
</g>
</g>
<!-- Node2&#45;&gt;Node504 -->
<g id="edge11" class="edge">
<title>Node2&#45;&gt;Node504</title>
<path fill="none" stroke="#63b8ff" d="M3094.78,-151.74C2789.34,-152.47 1588.82,-152.36 1214,-107 1204.06,-105.8 1193.59,-103.98 1183.47,-101.92"/>
<polygon fill="#63b8ff" stroke="#63b8ff" points="3094.61,-155.24 3104.6,-151.71 3094.59,-148.24 3094.61,-155.24"/>
</g>
<!-- Node505 -->
<g id="node13" class="node">
<title>Node505</title>
<g id="a_node13"><a xlink:href="J3DMatBlock_8cpp.html" target="_top" xlink:title=" ">
<polygon fill="white" stroke="#666666" points="1365,-101.5 1223,-101.5 1223,-71.5 1365,-71.5 1365,-101.5"/>
<text text-anchor="start" x="1231" y="-89.5" font-family="Helvetica,sans-Serif" font-size="10.00">libs/JSystem/J3DGraphBase</text>
<text text-anchor="middle" x="1294" y="-78.5" font-family="Helvetica,sans-Serif" font-size="10.00">/J3DMatBlock.cpp</text>
</a>
</g>
</g>
<!-- Node2&#45;&gt;Node505 -->
<g id="edge12" class="edge">
<title>Node2&#45;&gt;Node505</title>
<path fill="none" stroke="#63b8ff" d="M3094.94,-151.77C2805.6,-152.54 1715.35,-152.31 1374,-107 1364.93,-105.8 1355.4,-103.98 1346.2,-101.92"/>
<polygon fill="#63b8ff" stroke="#63b8ff" points="3094.6,-155.27 3104.59,-151.74 3094.58,-148.27 3094.6,-155.27"/>
</g>
<!-- Node506 -->
<g id="node14" class="node">
<title>Node506</title>
<g id="a_node14"><a xlink:href="J3DShape_8cpp.html" target="_top" xlink:title=" ">
<polygon fill="white" stroke="#666666" points="1525,-101.5 1383,-101.5 1383,-71.5 1525,-71.5 1525,-101.5"/>
<text text-anchor="start" x="1391" y="-89.5" font-family="Helvetica,sans-Serif" font-size="10.00">libs/JSystem/J3DGraphBase</text>
<text text-anchor="middle" x="1454" y="-78.5" font-family="Helvetica,sans-Serif" font-size="10.00">/J3DShape.cpp</text>
</a>
</g>
</g>
<!-- Node2&#45;&gt;Node506 -->
<g id="edge13" class="edge">
<title>Node2&#45;&gt;Node506</title>
<path fill="none" stroke="#63b8ff" d="M3095.09,-151.56C2822.58,-151.5 1842.45,-148.32 1534,-107 1525.07,-105.8 1515.7,-104.02 1506.63,-102"/>
<polygon fill="#63b8ff" stroke="#63b8ff" points="3094.88,-155.06 3104.88,-151.56 3094.88,-148.06 3094.88,-155.06"/>
</g>
<!-- Node507 -->
<g id="node15" class="node">
<title>Node507</title>
<g id="a_node15"><a xlink:href="J3DSys_8cpp.html" target="_top" xlink:title=" ">
<polygon fill="white" stroke="#666666" points="1685,-101.5 1543,-101.5 1543,-71.5 1685,-71.5 1685,-101.5"/>
<text text-anchor="start" x="1551" y="-89.5" font-family="Helvetica,sans-Serif" font-size="10.00">libs/JSystem/J3DGraphBase</text>
<text text-anchor="middle" x="1614" y="-78.5" font-family="Helvetica,sans-Serif" font-size="10.00">/J3DSys.cpp</text>
</a>
</g>
</g>
<!-- Node2&#45;&gt;Node507 -->
<g id="edge14" class="edge">
<title>Node2&#45;&gt;Node507</title>
<path fill="none" stroke="#63b8ff" d="M3094.99,-151.29C2839.91,-150.23 1970.43,-143.92 1695,-107 1685.97,-105.79 1676.48,-103.99 1667.3,-101.97"/>
<polygon fill="#63b8ff" stroke="#63b8ff" points="3094.79,-154.79 3104.8,-151.33 3094.82,-147.79 3094.79,-154.79"/>
</g>
<!-- Node508 -->
<g id="node16" class="node">
<title>Node508</title>
<g id="a_node16"><a xlink:href="J3DClusterLoader_8cpp.html" target="_top" xlink:title=" ">
<polygon fill="white" stroke="#666666" points="1852.5,-101.5 1703.5,-101.5 1703.5,-71.5 1852.5,-71.5 1852.5,-101.5"/>
<text text-anchor="start" x="1711.5" y="-89.5" font-family="Helvetica,sans-Serif" font-size="10.00">libs/JSystem/J3DGraphLoader</text>
<text text-anchor="middle" x="1778" y="-78.5" font-family="Helvetica,sans-Serif" font-size="10.00">/J3DClusterLoader.cpp</text>
</a>
</g>
</g>
<!-- Node2&#45;&gt;Node508 -->
<g id="edge15" class="edge">
<title>Node2&#45;&gt;Node508</title>
<path fill="none" stroke="#63b8ff" d="M3094.88,-150.89C2858.94,-148.58 2103.4,-138.83 1862,-107 1852.65,-105.77 1842.81,-103.96 1833.3,-101.94"/>
<polygon fill="#63b8ff" stroke="#63b8ff" points="3094.5,-154.39 3104.54,-150.98 3094.57,-147.39 3094.5,-154.39"/>
</g>
<!-- Node509 -->
<g id="node17" class="node">
<title>Node509</title>
<g id="a_node17"><a xlink:href="J3DModelLoader_8cpp.html" target="_top" xlink:title=" ">
<polygon fill="white" stroke="#666666" points="2019.5,-101.5 1870.5,-101.5 1870.5,-71.5 2019.5,-71.5 2019.5,-101.5"/>
<text text-anchor="start" x="1878.5" y="-89.5" font-family="Helvetica,sans-Serif" font-size="10.00">libs/JSystem/J3DGraphLoader</text>
<text text-anchor="middle" x="1945" y="-78.5" font-family="Helvetica,sans-Serif" font-size="10.00">/J3DModelLoader.cpp</text>
</a>
</g>
</g>
<!-- Node2&#45;&gt;Node509 -->
<g id="edge16" class="edge">
<title>Node2&#45;&gt;Node509</title>
<path fill="none" stroke="#63b8ff" d="M3094.72,-150.47C2879.19,-147.09 2236.39,-134.88 2029,-107 2019.8,-105.76 2010.13,-103.98 2000.76,-101.99"/>
<polygon fill="#63b8ff" stroke="#63b8ff" points="3094.61,-153.97 3104.67,-150.63 3094.72,-146.97 3094.61,-153.97"/>
</g>
<!-- Node510 -->
<g id="node18" class="node">
<title>Node510</title>
<g id="a_node18"><a xlink:href="J3DShapeFactory_8cpp.html" target="_top" xlink:title=" ">
<polygon fill="white" stroke="#666666" points="2186.5,-101.5 2037.5,-101.5 2037.5,-71.5 2186.5,-71.5 2186.5,-101.5"/>
<text text-anchor="start" x="2045.5" y="-89.5" font-family="Helvetica,sans-Serif" font-size="10.00">libs/JSystem/J3DGraphLoader</text>
<text text-anchor="middle" x="2112" y="-78.5" font-family="Helvetica,sans-Serif" font-size="10.00">/J3DShapeFactory.cpp</text>
</a>
</g>
</g>
<!-- Node2&#45;&gt;Node510 -->
<g id="edge17" class="edge">
<title>Node2&#45;&gt;Node510</title>
<path fill="none" stroke="#63b8ff" d="M3094.8,-149.92C2901.49,-145.35 2369.68,-130.94 2196,-107 2186.8,-105.73 2177.14,-103.94 2167.76,-101.94"/>
<polygon fill="#63b8ff" stroke="#63b8ff" points="3094.63,-153.42 3104.71,-150.15 3094.79,-146.42 3094.63,-153.42"/>
</g>
<!-- Node451 -->
<g id="node19" class="node">
<title>Node451</title>
<g id="a_node19"><a xlink:href="JASAudioThread_8cpp.html" target="_top" xlink:title=" ">
<polygon fill="white" stroke="#666666" points="2315.5,-101.5 2204.5,-101.5 2204.5,-71.5 2315.5,-71.5 2315.5,-101.5"/>
<text text-anchor="start" x="2212.5" y="-89.5" font-family="Helvetica,sans-Serif" font-size="10.00">libs/JSystem/JAudio2</text>
<text text-anchor="middle" x="2260" y="-78.5" font-family="Helvetica,sans-Serif" font-size="10.00">/JASAudioThread.cpp</text>
</a>
</g>
</g>
<!-- Node2&#45;&gt;Node451 -->
<g id="edge18" class="edge">
<title>Node2&#45;&gt;Node451</title>
<path fill="none" stroke="#63b8ff" d="M3094.92,-149.92C2919.98,-145.67 2472.14,-132.58 2325,-107 2317.8,-105.75 2310.28,-103.96 2303.01,-101.97"/>
<polygon fill="#63b8ff" stroke="#63b8ff" points="3094.7,-153.41 3104.78,-150.15 3094.86,-146.42 3094.7,-153.41"/>
</g>
<!-- Node511 -->
<g id="node20" class="node">
<title>Node511</title>
<g id="a_node20"><a xlink:href="JASProbe_8cpp.html" target="_top" xlink:title=" ">
<polygon fill="white" stroke="#666666" points="2444.5,-101.5 2333.5,-101.5 2333.5,-71.5 2444.5,-71.5 2444.5,-101.5"/>
<text text-anchor="start" x="2341.5" y="-89.5" font-family="Helvetica,sans-Serif" font-size="10.00">libs/JSystem/JAudio2</text>
<text text-anchor="middle" x="2389" y="-78.5" font-family="Helvetica,sans-Serif" font-size="10.00">/JASProbe.cpp</text>
</a>
</g>
</g>
<!-- Node2&#45;&gt;Node511 -->
<g id="edge19" class="edge">
<title>Node2&#45;&gt;Node511</title>
<path fill="none" stroke="#63b8ff" d="M3095.14,-152.41C2966.4,-152.88 2685.96,-148.48 2454,-107 2446.81,-105.71 2439.29,-103.91 2432.02,-101.91"/>
<polygon fill="#63b8ff" stroke="#63b8ff" points="3094.88,-155.91 3104.87,-152.36 3094.85,-148.91 3094.88,-155.91"/>
</g>
<!-- Node512 -->
<g id="node21" class="node">
<title>Node512</title>
<g id="a_node21"><a xlink:href="JASTaskThread_8cpp.html" target="_top" xlink:title=" ">
<polygon fill="white" stroke="#666666" points="2573.5,-101.5 2462.5,-101.5 2462.5,-71.5 2573.5,-71.5 2573.5,-101.5"/>
<text text-anchor="start" x="2470.5" y="-89.5" font-family="Helvetica,sans-Serif" font-size="10.00">libs/JSystem/JAudio2</text>
<text text-anchor="middle" x="2518" y="-78.5" font-family="Helvetica,sans-Serif" font-size="10.00">/JASTaskThread.cpp</text>
</a>
</g>
</g>
<!-- Node2&#45;&gt;Node512 -->
<g id="edge20" class="edge">
<title>Node2&#45;&gt;Node512</title>
<path fill="none" stroke="#63b8ff" d="M3094.97,-150.98C2984.55,-149.08 2765.42,-140.91 2583,-107 2575.93,-105.69 2568.55,-103.89 2561.39,-101.92"/>
<polygon fill="#63b8ff" stroke="#63b8ff" points="3094.72,-154.48 3104.77,-151.14 3094.83,-147.48 3094.72,-154.48"/>
</g>
<!-- Node513 -->
<g id="node22" class="node">
<title>Node513</title>
<g id="a_node22"><a xlink:href="dsptask_8cpp.html" target="_top" xlink:title=" ">
<polygon fill="white" stroke="#666666" points="2702.5,-101.5 2591.5,-101.5 2591.5,-71.5 2702.5,-71.5 2702.5,-101.5"/>
<text text-anchor="start" x="2599.5" y="-89.5" font-family="Helvetica,sans-Serif" font-size="10.00">libs/JSystem/JAudio2</text>
<text text-anchor="middle" x="2647" y="-78.5" font-family="Helvetica,sans-Serif" font-size="10.00">/dsptask.cpp</text>
</a>
</g>
</g>
<!-- Node2&#45;&gt;Node513 -->
<g id="edge21" class="edge">
<title>Node2&#45;&gt;Node513</title>
<path fill="none" stroke="#63b8ff" d="M3094.92,-148.79C3005.02,-144.4 2845.81,-133.37 2712,-107 2705.18,-105.66 2698.05,-103.9 2691.12,-101.98"/>
<polygon fill="#63b8ff" stroke="#63b8ff" points="3094.67,-152.29 3104.82,-149.26 3095,-145.29 3094.67,-152.29"/>
</g>
<!-- Node514 -->
<g id="node23" class="node">
<title>Node514</title>
<g id="a_node23"><a xlink:href="osdsp_8cpp.html" target="_top" xlink:title=" ">
<polygon fill="white" stroke="#666666" points="2831.5,-101.5 2720.5,-101.5 2720.5,-71.5 2831.5,-71.5 2831.5,-101.5"/>
<text text-anchor="start" x="2728.5" y="-89.5" font-family="Helvetica,sans-Serif" font-size="10.00">libs/JSystem/JAudio2</text>
<text text-anchor="middle" x="2776" y="-78.5" font-family="Helvetica,sans-Serif" font-size="10.00">/osdsp.cpp</text>
</a>
</g>
</g>
<!-- Node2&#45;&gt;Node514 -->
<g id="edge22" class="edge">
<title>Node2&#45;&gt;Node514</title>
<path fill="none" stroke="#63b8ff" d="M3095.08,-145C3028.87,-138.17 2927.54,-125.79 2841,-107 2834.44,-105.58 2827.57,-103.82 2820.87,-101.95"/>
<polygon fill="#63b8ff" stroke="#63b8ff" points="3094.4,-148.45 3104.7,-145.97 3095.11,-141.48 3094.4,-148.45"/>
</g>
<!-- Node515 -->
<g id="node24" class="node">
<title>Node515</title>
<g id="a_node24"><a xlink:href="JKRAramPiece_8cpp.html" target="_top" xlink:title=" ">
<polygon fill="white" stroke="#666666" points="2958.5,-101.5 2849.5,-101.5 2849.5,-71.5 2958.5,-71.5 2958.5,-101.5"/>
<text text-anchor="start" x="2857.5" y="-89.5" font-family="Helvetica,sans-Serif" font-size="10.00">libs/JSystem/JKernel</text>
<text text-anchor="middle" x="2904" y="-78.5" font-family="Helvetica,sans-Serif" font-size="10.00">/JKRAramPiece.cpp</text>
</a>
</g>
</g>
<!-- Node2&#45;&gt;Node515 -->
<g id="edge24" class="edge">
<title>Node2&#45;&gt;Node515</title>
<path fill="none" stroke="#63b8ff" d="M3110.65,-140.22C3070.8,-131.81 3015.85,-119.65 2968,-107 2962.16,-105.46 2956.05,-103.74 2950.03,-101.97"/>
<polygon fill="#63b8ff" stroke="#63b8ff" points="3109.75,-143.6 3120.25,-142.23 3111.18,-136.75 3109.75,-143.6"/>
</g>
<!-- Node516 -->
<g id="node25" class="node">
<title>Node516</title>
<g id="a_node25"><a xlink:href="JPAChildShape_8cpp.html" target="_top" xlink:title=" ">
<polygon fill="white" stroke="#666666" points="3091,-101.5 2977,-101.5 2977,-71.5 3091,-71.5 3091,-101.5"/>
<text text-anchor="start" x="2985" y="-89.5" font-family="Helvetica,sans-Serif" font-size="10.00">libs/JSystem/JParticle</text>
<text text-anchor="middle" x="3034" y="-78.5" font-family="Helvetica,sans-Serif" font-size="10.00">/JPAChildShape.cpp</text>
</a>
</g>
</g>
<!-- Node2&#45;&gt;Node516 -->
<g id="edge27" class="edge">
<title>Node2&#45;&gt;Node516</title>
<path fill="none" stroke="#63b8ff" d="M3137.4,-137.63C3115.68,-127.1 3085.89,-112.66 3063.86,-101.98"/>
<polygon fill="#63b8ff" stroke="#63b8ff" points="3135.76,-140.73 3146.28,-141.94 3138.81,-134.43 3135.76,-140.73"/>
</g>
<!-- Node517 -->
<g id="node26" class="node">
<title>Node517</title>
<g id="a_node26"><a xlink:href="JPAExtraShape_8cpp.html" target="_top" xlink:title=" ">
<polygon fill="white" stroke="#666666" points="3223,-101.5 3109,-101.5 3109,-71.5 3223,-71.5 3223,-101.5"/>
<text text-anchor="start" x="3117" y="-89.5" font-family="Helvetica,sans-Serif" font-size="10.00">libs/JSystem/JParticle</text>
<text text-anchor="middle" x="3166" y="-78.5" font-family="Helvetica,sans-Serif" font-size="10.00">/JPAExtraShape.cpp</text>
</a>
</g>
</g>
<!-- Node2&#45;&gt;Node517 -->
<g id="edge28" class="edge">
<title>Node2&#45;&gt;Node517</title>
<path fill="none" stroke="#63b8ff" d="M3166,-131.28C3166,-121.67 3166,-110.42 3166,-101.73"/>
<polygon fill="#63b8ff" stroke="#63b8ff" points="3162.5,-131.09 3166,-141.09 3169.5,-131.09 3162.5,-131.09"/>
</g>
<!-- Node518 -->
<g id="node27" class="node">
<title>Node518</title>
<g id="a_node27"><a xlink:href="JUTException_8cpp.html" target="_top" xlink:title=" ">
<polygon fill="white" stroke="#666666" points="3347,-101.5 3241,-101.5 3241,-71.5 3347,-71.5 3347,-101.5"/>
<text text-anchor="start" x="3249" y="-89.5" font-family="Helvetica,sans-Serif" font-size="10.00">libs/JSystem/JUtility</text>
<text text-anchor="middle" x="3294" y="-78.5" font-family="Helvetica,sans-Serif" font-size="10.00">/JUTException.cpp</text>
</a>
</g>
</g>
<!-- Node2&#45;&gt;Node518 -->
<g id="edge30" class="edge">
<title>Node2&#45;&gt;Node518</title>
<path fill="none" stroke="#63b8ff" d="M3194.02,-137.49C3215.06,-126.97 3243.78,-112.61 3265.04,-101.98"/>
<polygon fill="#63b8ff" stroke="#63b8ff" points="3192.53,-134.32 3185.15,-141.92 3195.66,-140.58 3192.53,-134.32"/>
</g>
<!-- Node519 -->
<g id="node28" class="node">
<title>Node519</title>
<g id="a_node28"><a xlink:href="JUTPalette_8cpp.html" target="_top" xlink:title=" ">
<polygon fill="white" stroke="#666666" points="3471,-101.5 3365,-101.5 3365,-71.5 3471,-71.5 3471,-101.5"/>
<text text-anchor="start" x="3373" y="-89.5" font-family="Helvetica,sans-Serif" font-size="10.00">libs/JSystem/JUtility</text>
<text text-anchor="middle" x="3418" y="-78.5" font-family="Helvetica,sans-Serif" font-size="10.00">/JUTPalette.cpp</text>
</a>
</g>
</g>
<!-- Node2&#45;&gt;Node519 -->
<g id="edge31" class="edge">
<title>Node2&#45;&gt;Node519</title>
<path fill="none" stroke="#63b8ff" d="M3219.37,-140.12C3257.6,-131.69 3310.2,-119.55 3356,-107 3361.66,-105.45 3367.58,-103.72 3373.42,-101.96"/>
<polygon fill="#63b8ff" stroke="#63b8ff" points="3218.99,-136.62 3209.97,-142.18 3220.48,-143.46 3218.99,-136.62"/>
</g>
<!-- Node520 -->
<g id="node29" class="node">
<title>Node520</title>
<g id="a_node29"><a xlink:href="uart__console__io__gcn_8c.html" target="_top" xlink:title=" ">
<polygon fill="white" stroke="#666666" points="3623,-101.5 3489,-101.5 3489,-71.5 3623,-71.5 3623,-101.5"/>
<text text-anchor="start" x="3497" y="-89.5" font-family="Helvetica,sans-Serif" font-size="10.00">libs/MSL_C/PPC_EABI</text>
<text text-anchor="middle" x="3556" y="-78.5" font-family="Helvetica,sans-Serif" font-size="10.00">/Src/uart_console_io_gcn.c</text>
</a>
</g>
</g>
<!-- Node2&#45;&gt;Node520 -->
<g id="edge32" class="edge">
<title>Node2&#45;&gt;Node520</title>
<path fill="none" stroke="#63b8ff" d="M3237.07,-142.36C3314.97,-132.17 3434.9,-115.95 3480,-107 3487.35,-105.54 3495.05,-103.81 3502.61,-101.99"/>
<polygon fill="#63b8ff" stroke="#63b8ff" points="3236.86,-138.85 3227.39,-143.62 3237.76,-145.8 3236.86,-138.85"/>
</g>
<!-- Node521 -->
<g id="node30" class="node">
<title>Node521</title>
<g id="a_node30"><a xlink:href="GCN__Mem__Alloc_8c.html" target="_top" xlink:title=" ">
<polygon fill="white" stroke="#666666" points="3766.5,-101.5 3641.5,-101.5 3641.5,-71.5 3766.5,-71.5 3766.5,-101.5"/>
<text text-anchor="start" x="3649.5" y="-89.5" font-family="Helvetica,sans-Serif" font-size="10.00">libs/Runtime.PPCEABI.H</text>
<text text-anchor="middle" x="3704" y="-78.5" font-family="Helvetica,sans-Serif" font-size="10.00">/GCN_Mem_Alloc.c</text>
</a>
</g>
</g>
<!-- Node2&#45;&gt;Node521 -->
<g id="edge33" class="edge">
<title>Node2&#45;&gt;Node521</title>
<path fill="none" stroke="#63b8ff" d="M3237.06,-142.83C3413.12,-124.73 3461.19,-137.63 3632,-107 3639.52,-105.65 3647.4,-103.89 3655.07,-101.97"/>
<polygon fill="#63b8ff" stroke="#63b8ff" points="3236.91,-139.33 3227.33,-143.85 3237.64,-146.29 3236.91,-139.33"/>
</g>
<!-- Node405 -->
<g id="node31" class="node">
<title>Node405</title>
<g id="a_node31"><a xlink:href="Z2AudioMgr_8cpp.html" target="_top" xlink:title=" ">
<polygon fill="white" stroke="#666666" points="3943,-96 3785,-96 3785,-77 3943,-77 3943,-96"/>
<text text-anchor="middle" x="3864" y="-84" font-family="Helvetica,sans-Serif" font-size="10.00">libs/Z2AudioLib/Z2AudioMgr.cpp</text>
</a>
</g>
</g>
<!-- Node2&#45;&gt;Node405 -->
<g id="edge34" class="edge">
<title>Node2&#45;&gt;Node405</title>
<path fill="none" stroke="#63b8ff" d="M3237,-142.88C3476.83,-120.88 3541.07,-140.65 3776,-107 3793.81,-104.45 3813.38,-100.25 3829.53,-96.41"/>
<polygon fill="#63b8ff" stroke="#63b8ff" points="3236.95,-139.37 3227.32,-143.78 3237.61,-146.34 3236.95,-139.37"/>
</g>
<!-- Node149 -->
<g id="node32" class="node">
<title>Node149</title>
<g id="a_node32"><a xlink:href="Z2LinkMgr_8cpp.html" target="_top" xlink:title=" ">
<polygon fill="white" stroke="#666666" points="4113,-96 3961,-96 3961,-77 4113,-77 4113,-96"/>
<text text-anchor="middle" x="4037" y="-84" font-family="Helvetica,sans-Serif" font-size="10.00">libs/Z2AudioLib/Z2LinkMgr.cpp</text>
</a>
</g>
</g>
<!-- Node2&#45;&gt;Node149 -->
<g id="edge35" class="edge">
<title>Node2&#45;&gt;Node149</title>
<path fill="none" stroke="#63b8ff" d="M3237.21,-142.89C3554.86,-116.29 3639.66,-150.33 3952,-107 3969.4,-104.59 3988.48,-100.36 4004.15,-96.45"/>
<polygon fill="#63b8ff" stroke="#63b8ff" points="3236.99,-139.4 3227.32,-143.73 3237.58,-146.37 3236.99,-139.4"/>
</g>
<!-- Node409 -->
<g id="node33" class="node">
<title>Node409</title>
<g id="a_node33"><a xlink:href="Z2WolfHowlMgr_8cpp.html" target="_top" xlink:title=" ">
<polygon fill="white" stroke="#666666" points="4271,-101.5 4131,-101.5 4131,-71.5 4271,-71.5 4271,-101.5"/>
<text text-anchor="start" x="4139" y="-89.5" font-family="Helvetica,sans-Serif" font-size="10.00">libs/Z2AudioLib/Z2WolfHowl</text>
<text text-anchor="middle" x="4201" y="-78.5" font-family="Helvetica,sans-Serif" font-size="10.00">Mgr.cpp</text>
</a>
</g>
</g>
<!-- Node2&#45;&gt;Node409 -->
<g id="edge36" class="edge">
<title>Node2&#45;&gt;Node409</title>
<path fill="none" stroke="#63b8ff" d="M3237.22,-142.91C3630.23,-111.83 3735.1,-162.03 4122,-107 4130.67,-105.77 4139.78,-103.99 4148.6,-102"/>
<polygon fill="#63b8ff" stroke="#63b8ff" points="3237,-139.42 3227.32,-143.71 3237.57,-146.39 3237,-139.42"/>
</g>
<!-- Node522 -->
<g id="node34" class="node">
<title>Node522</title>
<g id="a_node34"><a xlink:href="ai_8c.html" target="_top" xlink:title=" ">
<polygon fill="white" stroke="#666666" points="4383,-96 4289,-96 4289,-77 4383,-77 4383,-96"/>
<text text-anchor="middle" x="4336" y="-84" font-family="Helvetica,sans-Serif" font-size="10.00">libs/dolphin/ai/ai.c</text>
</a>
</g>
</g>
<!-- Node2&#45;&gt;Node522 -->
<g id="edge37" class="edge">
<title>Node2&#45;&gt;Node522</title>
<path fill="none" stroke="#63b8ff" d="M3236.98,-142.97C3484.27,-125.52 4055.05,-149.04 4280,-107 4291.94,-104.77 4304.77,-100.45 4315.14,-96.44"/>
<polygon fill="#63b8ff" stroke="#63b8ff" points="3237.03,-139.46 3227.32,-143.69 3237.55,-146.44 3237.03,-139.46"/>
</g>
<!-- Node523 -->
<g id="node35" class="node">
<title>Node523</title>
<g id="a_node35"><a xlink:href="ar_8c.html" target="_top" xlink:title=" ">
<polygon fill="white" stroke="#666666" points="4496.5,-96 4401.5,-96 4401.5,-77 4496.5,-77 4496.5,-96"/>
<text text-anchor="middle" x="4449" y="-84" font-family="Helvetica,sans-Serif" font-size="10.00">libs/dolphin/ar/ar.c</text>
</a>
</g>
</g>
<!-- Node2&#45;&gt;Node523 -->
<g id="edge38" class="edge">
<title>Node2&#45;&gt;Node523</title>
<path fill="none" stroke="#63b8ff" d="M3236.91,-142.98C3509.11,-124.06 4142.4,-152.51 4392,-107 4404.14,-104.79 4417.2,-100.47 4427.75,-96.46"/>
<polygon fill="#63b8ff" stroke="#63b8ff" points="3237.03,-139.46 3227.32,-143.68 3237.54,-146.44 3237.03,-139.46"/>
</g>
<!-- Node524 -->
<g id="node36" class="node">
<title>Node524</title>
<g id="a_node36"><a xlink:href="CARDBios_8c.html" target="_top" xlink:title=" ">
<polygon fill="white" stroke="#666666" points="4659,-96 4515,-96 4515,-77 4659,-77 4659,-96"/>
<text text-anchor="middle" x="4587" y="-84" font-family="Helvetica,sans-Serif" font-size="10.00">libs/dolphin/card/CARDBios.c</text>
</a>
</g>
</g>
<!-- Node2&#45;&gt;Node524 -->
<g id="edge39" class="edge">
<title>Node2&#45;&gt;Node524</title>
<path fill="none" stroke="#63b8ff" d="M3237.08,-142.94C3800.47,-101.47 3949.51,-181.04 4506,-107 4522.92,-104.75 4541.45,-100.43 4556.51,-96.43"/>
<polygon fill="#63b8ff" stroke="#63b8ff" points="3237.03,-139.44 3227.31,-143.67 3237.55,-146.42 3237.03,-139.44"/>
</g>
<!-- Node525 -->
<g id="node37" class="node">
<title>Node525</title>
<g id="a_node37"><a xlink:href="CARDUnlock_8c.html" target="_top" xlink:title=" ">
<polygon fill="white" stroke="#666666" points="4832.5,-96 4677.5,-96 4677.5,-77 4832.5,-77 4832.5,-96"/>
<text text-anchor="middle" x="4755" y="-84" font-family="Helvetica,sans-Serif" font-size="10.00">libs/dolphin/card/CARDUnlock.c</text>
</a>
</g>
</g>
<!-- Node2&#45;&gt;Node525 -->
<g id="edge40" class="edge">
<title>Node2&#45;&gt;Node525</title>
<path fill="none" stroke="#63b8ff" d="M3237.08,-142.95C3872.31,-97.04 4039.41,-184.58 4668,-107 4686.13,-104.76 4706.03,-100.44 4722.22,-96.44"/>
<polygon fill="#63b8ff" stroke="#63b8ff" points="3237.03,-139.44 3227.31,-143.66 3237.54,-146.42 3237.03,-139.44"/>
</g>
<!-- Node526 -->
<g id="node38" class="node">
<title>Node526</title>
<g id="a_node38"><a xlink:href="db_8c.html" target="_top" xlink:title=" ">
<polygon fill="white" stroke="#666666" points="4951,-96 4851,-96 4851,-77 4951,-77 4951,-96"/>
<text text-anchor="middle" x="4901" y="-84" font-family="Helvetica,sans-Serif" font-size="10.00">libs/dolphin/db/db.c</text>
</a>
</g>
</g>
<!-- Node2&#45;&gt;Node526 -->
<g id="edge41" class="edge">
<title>Node2&#45;&gt;Node526</title>
<path fill="none" stroke="#63b8ff" d="M3237.21,-142.97C3609.64,-118.16 4493.61,-167.09 4842,-107 4854.65,-104.82 4868.29,-100.45 4879.26,-96.4"/>
<polygon fill="#63b8ff" stroke="#63b8ff" points="3237.05,-139.47 3227.31,-143.66 3237.53,-146.45 3237.05,-139.47"/>
</g>
<!-- Node527 -->
<g id="node39" class="node">
<title>Node527</title>
<g id="a_node39"><a xlink:href="dvd_8c.html" target="_top" xlink:title=" ">
<polygon fill="white" stroke="#666666" points="5079,-96 4969,-96 4969,-77 5079,-77 5079,-96"/>
<text text-anchor="middle" x="5024" y="-84" font-family="Helvetica,sans-Serif" font-size="10.00">libs/dolphin/dvd/dvd.c</text>
</a>
</g>
</g>
<!-- Node2&#45;&gt;Node527 -->
<g id="edge42" class="edge">
<title>Node2&#45;&gt;Node527</title>
<path fill="none" stroke="#63b8ff" d="M3237.14,-142.97C3635.73,-116.5 4584.98,-166.87 4960,-107 4973.65,-104.82 4988.44,-100.45 5000.36,-96.4"/>
<polygon fill="#63b8ff" stroke="#63b8ff" points="3237.05,-139.47 3227.31,-143.65 3237.53,-146.45 3237.05,-139.47"/>
</g>
<!-- Node528 -->
<g id="node40" class="node">
<title>Node528</title>
<g id="a_node40"><a xlink:href="dvdfs_8c.html" target="_top" xlink:title=" ">
<polygon fill="white" stroke="#666666" points="5216.5,-96 5097.5,-96 5097.5,-77 5216.5,-77 5216.5,-96"/>
<text text-anchor="middle" x="5157" y="-84" font-family="Helvetica,sans-Serif" font-size="10.00">libs/dolphin/dvd/dvdfs.c</text>
</a>
</g>
</g>
<!-- Node2&#45;&gt;Node528 -->
<g id="edge43" class="edge">
<title>Node2&#45;&gt;Node528</title>
<path fill="none" stroke="#63b8ff" d="M3237.02,-142.98C3663.96,-114.72 4684.19,-166.97 5088,-107 5102.65,-104.82 5118.59,-100.46 5131.46,-96.41"/>
<polygon fill="#63b8ff" stroke="#63b8ff" points="3237.05,-139.47 3227.31,-143.65 3237.53,-146.45 3237.05,-139.47"/>
</g>
<!-- Node529 -->
<g id="node41" class="node">
<title>Node529</title>
<g id="a_node41"><a xlink:href="fstload_8c.html" target="_top" xlink:title=" ">
<polygon fill="white" stroke="#666666" points="5359,-96 5235,-96 5235,-77 5359,-77 5359,-96"/>
<text text-anchor="middle" x="5297" y="-84" font-family="Helvetica,sans-Serif" font-size="10.00">libs/dolphin/dvd/fstload.c</text>
</a>
</g>
</g>
<!-- Node2&#45;&gt;Node529 -->
<g id="edge44" class="edge">
<title>Node2&#45;&gt;Node529</title>
<path fill="none" stroke="#63b8ff" d="M3237.16,-142.97C3694.83,-112.86 4791.64,-169.57 5226,-107 5241.06,-104.83 5257.46,-100.47 5270.7,-96.41"/>
<polygon fill="#63b8ff" stroke="#63b8ff" points="3237.05,-139.47 3227.31,-143.64 3237.53,-146.45 3237.05,-139.47"/>
</g>
<!-- Node530 -->
<g id="node42" class="node">
<title>Node530</title>
<g id="a_node42"><a xlink:href="EXIBios_8c.html" target="_top" xlink:title=" ">
<polygon fill="white" stroke="#666666" points="5503,-96 5377,-96 5377,-77 5503,-77 5503,-96"/>
<text text-anchor="middle" x="5440" y="-84" font-family="Helvetica,sans-Serif" font-size="10.00">libs/dolphin/exi/EXIBios.c</text>
</a>
</g>
</g>
<!-- Node2&#45;&gt;Node530 -->
<g id="edge45" class="edge">
<title>Node2&#45;&gt;Node530</title>
<path fill="none" stroke="#63b8ff" d="M3237.23,-142.97C3726.48,-110.96 4902.28,-172.95 5368,-107 5383.26,-104.84 5399.89,-100.47 5413.32,-96.42"/>
<polygon fill="#63b8ff" stroke="#63b8ff" points="3237.05,-139.47 3227.31,-143.64 3237.53,-146.46 3237.05,-139.47"/>
</g>
<!-- Node531 -->
<g id="node43" class="node">
<title>Node531</title>
<g id="a_node43"><a xlink:href="EXIUart_8c.html" target="_top" xlink:title=" ">
<polygon fill="white" stroke="#666666" points="5646.5,-96 5521.5,-96 5521.5,-77 5646.5,-77 5646.5,-96"/>
<text text-anchor="middle" x="5584" y="-84" font-family="Helvetica,sans-Serif" font-size="10.00">libs/dolphin/exi/EXIUart.c</text>
</a>
</g>
</g>
<!-- Node2&#45;&gt;Node531 -->
<g id="edge46" class="edge">
<title>Node2&#45;&gt;Node531</title>
<path fill="none" stroke="#63b8ff" d="M3237.22,-142.97C3758.43,-109.03 5014.57,-177.17 5512,-107 5527.26,-104.85 5543.89,-100.48 5557.32,-96.43"/>
<polygon fill="#63b8ff" stroke="#63b8ff" points="3237.05,-139.47 3227.31,-143.64 3237.52,-146.46 3237.05,-139.47"/>
</g>
<!-- Node532 -->
<g id="node44" class="node">
<title>Node532</title>
<g id="a_node44"><a xlink:href="OS_8c.html" target="_top" xlink:title=" ">
<polygon fill="white" stroke="#666666" points="5769,-96 5665,-96 5665,-77 5769,-77 5769,-96"/>
<text text-anchor="middle" x="5717" y="-84" font-family="Helvetica,sans-Serif" font-size="10.00">libs/dolphin/os/OS.c</text>
</a>
</g>
</g>
<!-- Node2&#45;&gt;Node532 -->
<g id="edge47" class="edge">
<title>Node2&#45;&gt;Node532</title>
<path fill="none" stroke="#63b8ff" d="M3237.15,-143.02C3551.05,-125.17 5393.87,-149.88 5656,-107 5669.06,-104.86 5683.16,-100.5 5694.51,-96.44"/>
<polygon fill="#63b8ff" stroke="#63b8ff" points="3237.07,-139.52 3227.31,-143.64 3237.51,-146.51 3237.07,-139.52"/>
</g>
<!-- Node533 -->
<g id="node45" class="node">
<title>Node533</title>
<g id="a_node45"><a xlink:href="OSAlarm_8c.html" target="_top" xlink:title=" ">
<polygon fill="white" stroke="#666666" points="5916.5,-96 5787.5,-96 5787.5,-77 5916.5,-77 5916.5,-96"/>
<text text-anchor="middle" x="5852" y="-84" font-family="Helvetica,sans-Serif" font-size="10.00">libs/dolphin/os/OSAlarm.c</text>
</a>
</g>
</g>
<!-- Node2&#45;&gt;Node533 -->
<g id="edge48" class="edge">
<title>Node2&#45;&gt;Node533</title>
<path fill="none" stroke="#63b8ff" d="M3237.24,-142.97C3817.52,-105.43 5221.73,-183.07 5778,-107 5793.66,-104.86 5810.76,-100.49 5824.56,-96.44"/>
<polygon fill="#63b8ff" stroke="#63b8ff" points="3237.06,-139.47 3227.31,-143.63 3237.52,-146.46 3237.06,-139.47"/>
</g>
<!-- Node534 -->
<g id="node46" class="node">
<title>Node534</title>
<g id="a_node46"><a xlink:href="OSCache_8c.html" target="_top" xlink:title=" ">
<polygon fill="white" stroke="#666666" points="6065.5,-96 5934.5,-96 5934.5,-77 6065.5,-77 6065.5,-96"/>
<text text-anchor="middle" x="6000" y="-84" font-family="Helvetica,sans-Serif" font-size="10.00">libs/dolphin/os/OSCache.c</text>
</a>
</g>
</g>
<!-- Node2&#45;&gt;Node534 -->
<g id="edge49" class="edge">
<title>Node2&#45;&gt;Node534</title>
<path fill="none" stroke="#63b8ff" d="M3237.09,-143.02C3581.21,-123.25 5633.11,-146.94 5926,-107 5941.67,-104.86 5958.76,-100.5 5972.56,-96.44"/>
<polygon fill="#63b8ff" stroke="#63b8ff" points="3237.07,-139.52 3227.31,-143.63 3237.51,-146.5 3237.07,-139.52"/>
</g>
<!-- Node535 -->
<g id="node47" class="node">
<title>Node535</title>
<g id="a_node47"><a xlink:href="OSContext_8c.html" target="_top" xlink:title=" ">
<polygon fill="white" stroke="#666666" points="6220.5,-96 6083.5,-96 6083.5,-77 6220.5,-77 6220.5,-96"/>
<text text-anchor="middle" x="6152" y="-84" font-family="Helvetica,sans-Serif" font-size="10.00">libs/dolphin/os/OSContext.c</text>
</a>
</g>
</g>
<!-- Node2&#45;&gt;Node535 -->
<g id="edge50" class="edge">
<title>Node2&#45;&gt;Node535</title>
<path fill="none" stroke="#63b8ff" d="M3237.16,-143.02C3598.24,-122.25 5765.53,-147.57 6075,-107 6091.27,-104.87 6109.05,-100.5 6123.43,-96.44"/>
<polygon fill="#63b8ff" stroke="#63b8ff" points="3237.07,-139.51 3227.31,-143.63 3237.51,-146.5 3237.07,-139.51"/>
</g>
<!-- Node536 -->
<g id="node48" class="node">
<title>Node536</title>
<g id="a_node48"><a xlink:href="OSError_8c.html" target="_top" xlink:title=" ">
<polygon fill="white" stroke="#666666" points="6363,-96 6239,-96 6239,-77 6363,-77 6363,-96"/>
<text text-anchor="middle" x="6301" y="-84" font-family="Helvetica,sans-Serif" font-size="10.00">libs/dolphin/os/OSError.c</text>
</a>
</g>
</g>
<!-- Node2&#45;&gt;Node536 -->
<g id="edge51" class="edge">
<title>Node2&#45;&gt;Node536</title>
<path fill="none" stroke="#63b8ff" d="M3237.2,-143.01C3615.82,-121.3 5903.92,-152.96 6230,-107 6245.06,-104.88 6261.46,-100.51 6274.7,-96.45"/>
<polygon fill="#63b8ff" stroke="#63b8ff" points="3237.07,-139.51 3227.31,-143.63 3237.51,-146.5 3237.07,-139.51"/>
</g>
<!-- Node537 -->
<g id="node49" class="node">
<title>Node537</title>
<g id="a_node49"><a xlink:href="OSInterrupt_8c.html" target="_top" xlink:title=" ">
<polygon fill="white" stroke="#666666" points="6521,-96 6381,-96 6381,-77 6521,-77 6521,-96"/>
<text text-anchor="middle" x="6451" y="-84" font-family="Helvetica,sans-Serif" font-size="10.00">libs/dolphin/os/OSInterrupt.c</text>
</a>
</g>
</g>
<!-- Node2&#45;&gt;Node537 -->
<g id="edge52" class="edge">
<title>Node2&#45;&gt;Node537</title>
<path fill="none" stroke="#63b8ff" d="M3237.14,-143.01C3631.5,-120.28 6029.68,-150.62 6372,-107 6388.68,-104.88 6406.92,-100.51 6421.67,-96.45"/>
<polygon fill="#63b8ff" stroke="#63b8ff" points="3237.07,-139.51 3227.31,-143.63 3237.51,-146.5 3237.07,-139.51"/>
</g>
<!-- Node3&#45;&gt;Node482 -->
<g id="edge3" class="edge">
<title>Node3&#45;&gt;Node482</title>
<path fill="none" stroke="#63b8ff" d="M213.86,-67.47C180.47,-55.92 137.71,-41.14 106.59,-30.38"/>
<polygon fill="#63b8ff" stroke="#63b8ff" points="212.33,-70.64 222.92,-70.6 214.62,-64.03 212.33,-70.64"/>
</g>
<!-- Node3&#45;&gt;Node486 -->
<g id="edge4" class="edge">
<title>Node3&#45;&gt;Node486</title>
<path fill="none" stroke="#63b8ff" d="M245.3,-62.67C235.66,-52.03 224.48,-39.7 216.04,-30.38"/>
<polygon fill="#63b8ff" stroke="#63b8ff" points="242.62,-64.92 251.93,-69.98 247.81,-60.22 242.62,-64.92"/>
</g>
<!-- Node3&#45;&gt;Node489 -->
<g id="edge5" class="edge">
<title>Node3&#45;&gt;Node489</title>
<path fill="none" stroke="#63b8ff" d="M287.03,-62.67C296.82,-52.03 308.18,-39.7 316.76,-30.38"/>
<polygon fill="#63b8ff" stroke="#63b8ff" points="284.49,-60.26 280.29,-69.99 289.63,-65 284.49,-60.26"/>
</g>
<!-- Node3&#45;&gt;Node496 -->
<g id="edge6" class="edge">
<title>Node3&#45;&gt;Node496</title>
<path fill="none" stroke="#63b8ff" d="M316.1,-67.17C347.55,-55.67 387.53,-41.05 416.68,-30.38"/>
<polygon fill="#63b8ff" stroke="#63b8ff" points="314.98,-63.86 306.79,-70.58 317.38,-70.43 314.98,-63.86"/>
</g>
</g>
</svg>
