<?xml version="1.0" encoding="UTF-8" standalone="no"?>
<!DOCTYPE svg PUBLIC "-//W3C//DTD SVG 1.1//EN"
 "http://www.w3.org/Graphics/SVG/1.1/DTD/svg11.dtd">
<!-- Generated by graphviz version 7.0.5 (20221223.1930)
 -->
<!-- Title: libs/dolphin/os/OSMutex.c Pages: 1 -->
<svg width="1809pt" height="357pt"
 viewBox="0.00 0.00 1808.50 357.00" xmlns="http://www.w3.org/2000/svg" xmlns:xlink="http://www.w3.org/1999/xlink">
<g id="graph0" class="graph" transform="scale(1 1) rotate(0) translate(4 353)">
<title>libs/dolphin/os/OSMutex.c</title>
<!-- Node1 -->
<g id="node1" class="node">
<title>Node1</title>
<g id="a_node1"><a xlink:title=" ">
<polygon fill="#999999" stroke="#666666" points="501,-349 371,-349 371,-330 501,-330 501,-349"/>
<text text-anchor="middle" x="436" y="-337" font-family="Helvetica,sans-Serif" font-size="10.00">libs/dolphin/os/OSMutex.c</text>
</a>
</g>
</g>
<!-- Node2 -->
<g id="node2" class="node">
<title>Node2</title>
<g id="a_node2"><a xlink:href="OSMutex_8h.html" target="_top" xlink:title=" ">
<polygon fill="white" stroke="#666666" points="112,-239 0,-239 0,-220 112,-220 112,-239"/>
<text text-anchor="middle" x="56" y="-227" font-family="Helvetica,sans-Serif" font-size="10.00">dolphin/os/OSMutex.h</text>
</a>
</g>
</g>
<!-- Node1&#45;&gt;Node2 -->
<g id="edge1" class="edge">
<title>Node1&#45;&gt;Node2</title>
<path fill="none" stroke="#63b8ff" d="M404.58,-329.57C336.45,-310.21 175.07,-264.34 98.17,-242.49"/>
<polygon fill="#63b8ff" stroke="#63b8ff" points="99.49,-239.22 88.91,-239.85 97.58,-245.95 99.49,-239.22"/>
</g>
<!-- Node7 -->
<g id="node7" class="node">
<title>Node7</title>
<g id="a_node7"><a xlink:href="os_8h.html" target="_top" xlink:title=" ">
<polygon fill="white" stroke="#666666" points="831,-294 763,-294 763,-275 831,-275 831,-294"/>
<text text-anchor="middle" x="797" y="-282" font-family="Helvetica,sans-Serif" font-size="10.00">dolphin/os.h</text>
</a>
</g>
</g>
<!-- Node1&#45;&gt;Node7 -->
<g id="edge6" class="edge">
<title>Node1&#45;&gt;Node7</title>
<path fill="none" stroke="#63b8ff" d="M497.24,-329.51C569.2,-318.94 686.94,-301.66 751.36,-292.2"/>
<polygon fill="#63b8ff" stroke="#63b8ff" points="751.86,-295.66 761.25,-290.75 750.84,-288.74 751.86,-295.66"/>
</g>
<!-- Node3 -->
<g id="node3" class="node">
<title>Node3</title>
<g id="a_node3"><a xlink:href="OSThread_8h.html" target="_top" xlink:title=" ">
<polygon fill="white" stroke="#666666" points="244,-184 128,-184 128,-165 244,-165 244,-184"/>
<text text-anchor="middle" x="186" y="-172" font-family="Helvetica,sans-Serif" font-size="10.00">dolphin/os/OSThread.h</text>
</a>
</g>
</g>
<!-- Node2&#45;&gt;Node3 -->
<g id="edge2" class="edge">
<title>Node2&#45;&gt;Node3</title>
<path fill="none" stroke="#63b8ff" d="M78.05,-219.51C98.81,-211.04 130.16,-198.27 153.73,-188.66"/>
<polygon fill="#63b8ff" stroke="#63b8ff" points="154.93,-191.95 162.87,-184.93 152.29,-185.46 154.93,-191.95"/>
</g>
<!-- Node4 -->
<g id="node4" class="node">
<title>Node4</title>
<g id="a_node4"><a xlink:href="OSContext_8h.html" target="_top" xlink:title=" ">
<polygon fill="white" stroke="#666666" points="381.5,-129 262.5,-129 262.5,-110 381.5,-110 381.5,-129"/>
<text text-anchor="middle" x="322" y="-117" font-family="Helvetica,sans-Serif" font-size="10.00">dolphin/os/OSContext.h</text>
</a>
</g>
</g>
<!-- Node3&#45;&gt;Node4 -->
<g id="edge3" class="edge">
<title>Node3&#45;&gt;Node4</title>
<path fill="none" stroke="#63b8ff" d="M209.07,-164.51C230.89,-156.01 263.88,-143.15 288.58,-133.53"/>
<polygon fill="#63b8ff" stroke="#63b8ff" points="289.81,-136.8 297.86,-129.91 287.27,-130.28 289.81,-136.8"/>
</g>
<!-- Node5 -->
<g id="node5" class="node">
<title>Node5</title>
<g id="a_node5"><a xlink:href="types_8h.html" target="_top" xlink:title=" ">
<polygon fill="white" stroke="#666666" points="945.5,-74 864.5,-74 864.5,-55 945.5,-55 945.5,-74"/>
<text text-anchor="middle" x="905" y="-62" font-family="Helvetica,sans-Serif" font-size="10.00">dolphin/types.h</text>
</a>
</g>
</g>
<!-- Node4&#45;&gt;Node5 -->
<g id="edge4" class="edge">
<title>Node4&#45;&gt;Node5</title>
<path fill="none" stroke="#63b8ff" d="M381.94,-111.08C385.34,-110.71 388.71,-110.34 392,-110 560.19,-92.5 759.92,-76.56 852.75,-69.44"/>
<polygon fill="#63b8ff" stroke="#63b8ff" points="852.85,-72.94 862.55,-68.69 852.31,-65.96 852.85,-72.94"/>
</g>
<!-- Node6 -->
<g id="node6" class="node">
<title>Node6</title>
<g id="a_node6"><a xlink:href="stddef_8h.html" target="_top" xlink:title=" ">
<polygon fill="white" stroke="#666666" points="930.5,-19 879.5,-19 879.5,0 930.5,0 930.5,-19"/>
<text text-anchor="middle" x="905" y="-7" font-family="Helvetica,sans-Serif" font-size="10.00">stddef.h</text>
</a>
</g>
</g>
<!-- Node5&#45;&gt;Node6 -->
<g id="edge5" class="edge">
<title>Node5&#45;&gt;Node6</title>
<path fill="none" stroke="#63b8ff" d="M905,-54.75C905,-48.27 905,-39.16 905,-30.9"/>
<polygon fill="#63b8ff" stroke="#63b8ff" points="908.5,-30.96 905,-20.96 901.5,-30.96 908.5,-30.96"/>
</g>
<!-- Node7&#45;&gt;Node2 -->
<g id="edge37" class="edge">
<title>Node7&#45;&gt;Node2</title>
<path fill="none" stroke="#63b8ff" d="M762.73,-281.89C663.84,-277.1 369.52,-261.84 126,-239 125.15,-238.92 124.3,-238.84 123.45,-238.76"/>
<polygon fill="#63b8ff" stroke="#63b8ff" points="123.95,-235.29 113.64,-237.75 123.23,-242.25 123.95,-235.29"/>
</g>
<!-- Node7&#45;&gt;Node3 -->
<g id="edge47" class="edge">
<title>Node7&#45;&gt;Node3</title>
<path fill="none" stroke="#63b8ff" d="M762.6,-283.77C635.9,-284.41 200.37,-283.35 159,-239 146.8,-225.92 158.01,-206.5 169.48,-192.58"/>
<polygon fill="#63b8ff" stroke="#63b8ff" points="171.77,-195.28 175.8,-185.48 166.54,-190.62 171.77,-195.28"/>
</g>
<!-- Node7&#45;&gt;Node4 -->
<g id="edge23" class="edge">
<title>Node7&#45;&gt;Node4</title>
<path fill="none" stroke="#63b8ff" d="M762.59,-282.27C682.28,-278.93 484.87,-267.95 426,-239 381.53,-217.13 347.94,-166.92 332.09,-139.4"/>
<polygon fill="#63b8ff" stroke="#63b8ff" points="335.21,-137.82 327.3,-130.77 329.09,-141.21 335.21,-137.82"/>
</g>
<!-- Node8 -->
<g id="node8" class="node">
<title>Node8</title>
<g id="a_node8"><a xlink:href="____va__arg_8h.html" target="_top" xlink:title=" ">
<polygon fill="white" stroke="#666666" points="465,-129 401,-129 401,-110 465,-110 465,-129"/>
<text text-anchor="middle" x="433" y="-117" font-family="Helvetica,sans-Serif" font-size="10.00">__va_arg.h</text>
</a>
</g>
</g>
<!-- Node7&#45;&gt;Node8 -->
<g id="edge7" class="edge">
<title>Node7&#45;&gt;Node8</title>
<path fill="none" stroke="#63b8ff" d="M762.76,-281.25C670.37,-274.35 420.14,-249.78 379,-184 367.68,-165.9 387.33,-147.58 406.02,-135.3"/>
<polygon fill="#63b8ff" stroke="#63b8ff" points="407.83,-138.3 414.53,-130.09 404.17,-132.33 407.83,-138.3"/>
</g>
<!-- Node9 -->
<g id="node9" class="node">
<title>Node9</title>
<g id="a_node9"><a xlink:href="dvd_8h.html" target="_top" xlink:title=" ">
<polygon fill="white" stroke="#666666" points="462,-184 388,-184 388,-165 462,-165 462,-184"/>
<text text-anchor="middle" x="425" y="-172" font-family="Helvetica,sans-Serif" font-size="10.00">dolphin/dvd.h</text>
</a>
</g>
</g>
<!-- Node7&#45;&gt;Node9 -->
<g id="edge9" class="edge">
<title>Node7&#45;&gt;Node9</title>
<path fill="none" stroke="#63b8ff" d="M762.81,-281.42C712.18,-277.5 614.86,-266.77 537,-239 503.56,-227.07 468.5,-205.5 446.7,-190.84"/>
<polygon fill="#63b8ff" stroke="#63b8ff" points="448.88,-188.09 438.65,-185.32 444.92,-193.86 448.88,-188.09"/>
</g>
<!-- Node10 -->
<g id="node10" class="node">
<title>Node10</title>
<g id="a_node10"><a xlink:href="OSAlarm_8h.html" target="_top" xlink:title=" ">
<polygon fill="white" stroke="#666666" points="673.5,-239 562.5,-239 562.5,-220 673.5,-220 673.5,-239"/>
<text text-anchor="middle" x="618" y="-227" font-family="Helvetica,sans-Serif" font-size="10.00">dolphin/os/OSAlarm.h</text>
</a>
</g>
</g>
<!-- Node7&#45;&gt;Node10 -->
<g id="edge11" class="edge">
<title>Node7&#45;&gt;Node10</title>
<path fill="none" stroke="#63b8ff" d="M766.64,-274.51C737.1,-265.76 692.02,-252.42 659.25,-242.71"/>
<polygon fill="#63b8ff" stroke="#63b8ff" points="660.25,-239.36 649.67,-239.88 658.26,-246.07 660.25,-239.36"/>
</g>
<!-- Node11 -->
<g id="node11" class="node">
<title>Node11</title>
<g id="a_node11"><a xlink:href="OSError_8h.html" target="_top" xlink:title=" ">
<polygon fill="white" stroke="#666666" points="586,-184 480,-184 480,-165 586,-165 586,-184"/>
<text text-anchor="middle" x="533" y="-172" font-family="Helvetica,sans-Serif" font-size="10.00">dolphin/os/OSError.h</text>
</a>
</g>
</g>
<!-- Node7&#45;&gt;Node11 -->
<g id="edge24" class="edge">
<title>Node7&#45;&gt;Node11</title>
<path fill="none" stroke="#63b8ff" d="M762.82,-281.55C703.22,-277.47 583.67,-266.07 553,-239 540.67,-228.12 535.87,-209.71 534.03,-195.51"/>
<polygon fill="#63b8ff" stroke="#63b8ff" points="537.55,-195.57 533.2,-185.91 530.58,-196.18 537.55,-195.57"/>
</g>
<!-- Node12 -->
<g id="node12" class="node">
<title>Node12</title>
<g id="a_node12"><a xlink:href="OSTime_8h.html" target="_top" xlink:title=" ">
<polygon fill="white" stroke="#666666" points="711.5,-184 604.5,-184 604.5,-165 711.5,-165 711.5,-184"/>
<text text-anchor="middle" x="658" y="-172" font-family="Helvetica,sans-Serif" font-size="10.00">dolphin/os/OSTime.h</text>
</a>
</g>
</g>
<!-- Node7&#45;&gt;Node12 -->
<g id="edge48" class="edge">
<title>Node7&#45;&gt;Node12</title>
<path fill="none" stroke="#63b8ff" d="M780.91,-274.6C766.13,-266.16 743.87,-252.75 726,-239 707.09,-224.46 687.37,-205.57 674.07,-192.18"/>
<polygon fill="#63b8ff" stroke="#63b8ff" points="676.89,-190.05 667.39,-185.36 671.89,-194.95 676.89,-190.05"/>
</g>
<!-- Node13 -->
<g id="node13" class="node">
<title>Node13</title>
<g id="a_node13"><a xlink:href="OSAlloc_8h.html" target="_top" xlink:title=" ">
<polygon fill="white" stroke="#666666" points="706.5,-129 599.5,-129 599.5,-110 706.5,-110 706.5,-129"/>
<text text-anchor="middle" x="653" y="-117" font-family="Helvetica,sans-Serif" font-size="10.00">dolphin/os/OSAlloc.h</text>
</a>
</g>
</g>
<!-- Node7&#45;&gt;Node13 -->
<g id="edge16" class="edge">
<title>Node7&#45;&gt;Node13</title>
<path fill="none" stroke="#63b8ff" d="M792.82,-274.61C782.65,-253.64 754.87,-200.22 720,-165 708.37,-153.25 693.17,-142.86 680.19,-135.07"/>
<polygon fill="#63b8ff" stroke="#63b8ff" points="682.09,-132.13 671.68,-130.17 678.6,-138.19 682.09,-132.13"/>
</g>
<!-- Node14 -->
<g id="node14" class="node">
<title>Node14</title>
<g id="a_node14"><a xlink:href="OSArena_8h.html" target="_top" xlink:title=" ">
<polygon fill="white" stroke="#666666" points="835.5,-129 724.5,-129 724.5,-110 835.5,-110 835.5,-129"/>
<text text-anchor="middle" x="780" y="-117" font-family="Helvetica,sans-Serif" font-size="10.00">dolphin/os/OSArena.h</text>
</a>
</g>
</g>
<!-- Node7&#45;&gt;Node14 -->
<g id="edge18" class="edge">
<title>Node7&#45;&gt;Node14</title>
<path fill="none" stroke="#63b8ff" d="M796.09,-274.74C793.46,-249.53 785.83,-176.36 782.1,-140.62"/>
<polygon fill="#63b8ff" stroke="#63b8ff" points="785.59,-140.4 781.08,-130.81 778.63,-141.12 785.59,-140.4"/>
</g>
<!-- Node15 -->
<g id="node15" class="node">
<title>Node15</title>
<g id="a_node15"><a xlink:href="OSAudioSystem_8h.html" target="_top" xlink:title=" ">
<polygon fill="white" stroke="#666666" points="1675.5,-239 1532.5,-239 1532.5,-220 1675.5,-220 1675.5,-239"/>
<text text-anchor="middle" x="1604" y="-227" font-family="Helvetica,sans-Serif" font-size="10.00">dolphin/os/OSAudioSystem.h</text>
</a>
</g>
</g>
<!-- Node7&#45;&gt;Node15 -->
<g id="edge20" class="edge">
<title>Node7&#45;&gt;Node15</title>
<path fill="none" stroke="#63b8ff" d="M831.18,-281.84C934.71,-276.71 1253.92,-260.19 1518,-239 1519.01,-238.92 1520.03,-238.84 1521.06,-238.75"/>
<polygon fill="#63b8ff" stroke="#63b8ff" points="1521.05,-242.26 1530.71,-237.92 1520.45,-235.29 1521.05,-242.26"/>
</g>
<!-- Node16 -->
<g id="node16" class="node">
<title>Node16</title>
<g id="a_node16"><a xlink:href="OSCache_8h.html" target="_top" xlink:title=" ">
<polygon fill="white" stroke="#666666" points="919.5,-184 806.5,-184 806.5,-165 919.5,-165 919.5,-184"/>
<text text-anchor="middle" x="863" y="-172" font-family="Helvetica,sans-Serif" font-size="10.00">dolphin/os/OSCache.h</text>
</a>
</g>
</g>
<!-- Node7&#45;&gt;Node16 -->
<g id="edge21" class="edge">
<title>Node7&#45;&gt;Node16</title>
<path fill="none" stroke="#63b8ff" d="M802.4,-274.66C813.13,-257.1 837.34,-217.48 851.7,-193.98"/>
<polygon fill="#63b8ff" stroke="#63b8ff" points="854.51,-196.11 856.74,-185.75 848.53,-192.46 854.51,-196.11"/>
</g>
<!-- Node17 -->
<g id="node17" class="node">
<title>Node17</title>
<g id="a_node17"><a xlink:href="OSExec_8h.html" target="_top" xlink:title=" ">
<polygon fill="white" stroke="#666666" points="999.5,-129 892.5,-129 892.5,-110 999.5,-110 999.5,-129"/>
<text text-anchor="middle" x="946" y="-117" font-family="Helvetica,sans-Serif" font-size="10.00">dolphin/os/OSExec.h</text>
</a>
</g>
</g>
<!-- Node7&#45;&gt;Node17 -->
<g id="edge25" class="edge">
<title>Node7&#45;&gt;Node17</title>
<path fill="none" stroke="#63b8ff" d="M806.54,-274.91C820.66,-262.33 848.14,-238.43 873,-220 896.47,-202.6 910.7,-207.54 928,-184 937.36,-171.26 941.86,-153.82 944.02,-140.44"/>
<polygon fill="#63b8ff" stroke="#63b8ff" points="947.47,-141 945.26,-130.64 940.53,-140.12 947.47,-141"/>
</g>
<!-- Node18 -->
<g id="node18" class="node">
<title>Node18</title>
<g id="a_node18"><a xlink:href="OSFont_8h.html" target="_top" xlink:title=" ">
<polygon fill="white" stroke="#666666" points="987.5,-239 882.5,-239 882.5,-220 987.5,-220 987.5,-239"/>
<text text-anchor="middle" x="935" y="-227" font-family="Helvetica,sans-Serif" font-size="10.00">dolphin/os/OSFont.h</text>
</a>
</g>
</g>
<!-- Node7&#45;&gt;Node18 -->
<g id="edge27" class="edge">
<title>Node7&#45;&gt;Node18</title>
<path fill="none" stroke="#63b8ff" d="M820.41,-274.51C842.65,-265.97 876.33,-253.03 901.42,-243.4"/>
<polygon fill="#63b8ff" stroke="#63b8ff" points="902.44,-246.75 910.52,-239.9 899.93,-240.22 902.44,-246.75"/>
</g>
<!-- Node19 -->
<g id="node19" class="node">
<title>Node19</title>
<g id="a_node19"><a xlink:href="OSInterrupt_8h.html" target="_top" xlink:title=" ">
<polygon fill="white" stroke="#666666" points="1136,-184 1014,-184 1014,-165 1136,-165 1136,-184"/>
<text text-anchor="middle" x="1075" y="-172" font-family="Helvetica,sans-Serif" font-size="10.00">dolphin/os/OSInterrupt.h</text>
</a>
</g>
</g>
<!-- Node7&#45;&gt;Node19 -->
<g id="edge29" class="edge">
<title>Node7&#45;&gt;Node19</title>
<path fill="none" stroke="#63b8ff" d="M831.29,-280.6C872.22,-276.09 941.93,-265.02 996,-239 1020.39,-227.26 1043.99,-206.71 1058.94,-192.17"/>
<polygon fill="#63b8ff" stroke="#63b8ff" points="1061.03,-195.03 1065.62,-185.48 1056.08,-190.08 1061.03,-195.03"/>
</g>
<!-- Node20 -->
<g id="node20" class="node">
<title>Node20</title>
<g id="a_node20"><a xlink:href="OSLink_8h.html" target="_top" xlink:title=" ">
<polygon fill="white" stroke="#666666" points="1208,-129 1104,-129 1104,-110 1208,-110 1208,-129"/>
<text text-anchor="middle" x="1156" y="-117" font-family="Helvetica,sans-Serif" font-size="10.00">dolphin/os/OSLink.h</text>
</a>
</g>
</g>
<!-- Node7&#45;&gt;Node20 -->
<g id="edge31" class="edge">
<title>Node7&#45;&gt;Node20</title>
<path fill="none" stroke="#63b8ff" d="M831.21,-282C919.63,-277.76 1150.46,-264.37 1173,-239 1185.68,-224.73 1171.41,-169.93 1162.34,-140.11"/>
<polygon fill="#63b8ff" stroke="#63b8ff" points="1165.76,-139.31 1159.42,-130.82 1159.08,-141.41 1165.76,-139.31"/>
</g>
<!-- Node21 -->
<g id="node21" class="node">
<title>Node21</title>
<g id="a_node21"><a xlink:href="OSMemory_8h.html" target="_top" xlink:title=" ">
<polygon fill="white" stroke="#666666" points="1164,-239 1044,-239 1044,-220 1164,-220 1164,-239"/>
<text text-anchor="middle" x="1104" y="-227" font-family="Helvetica,sans-Serif" font-size="10.00">dolphin/os/OSMemory.h</text>
</a>
</g>
</g>
<!-- Node7&#45;&gt;Node21 -->
<g id="edge33" class="edge">
<title>Node7&#45;&gt;Node21</title>
<path fill="none" stroke="#63b8ff" d="M831.32,-277.57C881.95,-268.83 977.49,-252.34 1040.96,-241.38"/>
<polygon fill="#63b8ff" stroke="#63b8ff" points="1041.28,-244.88 1050.54,-239.73 1040.09,-237.98 1041.28,-244.88"/>
</g>
<!-- Node22 -->
<g id="node22" class="node">
<title>Node22</title>
<g id="a_node22"><a xlink:href="OSMessage_8h.html" target="_top" xlink:title=" ">
<polygon fill="white" stroke="#666666" points="293.5,-239 168.5,-239 168.5,-220 293.5,-220 293.5,-239"/>
<text text-anchor="middle" x="231" y="-227" font-family="Helvetica,sans-Serif" font-size="10.00">dolphin/os/OSMessage.h</text>
</a>
</g>
</g>
<!-- Node7&#45;&gt;Node22 -->
<g id="edge35" class="edge">
<title>Node7&#45;&gt;Node22</title>
<path fill="none" stroke="#63b8ff" d="M762.59,-280.6C682.71,-273.81 478.48,-256.17 308,-239 306.98,-238.9 305.94,-238.79 304.91,-238.69"/>
<polygon fill="#63b8ff" stroke="#63b8ff" points="305.42,-235.22 295.11,-237.67 304.69,-242.18 305.42,-235.22"/>
</g>
<!-- Node23 -->
<g id="node23" class="node">
<title>Node23</title>
<g id="a_node23"><a xlink:href="OSReboot_8h.html" target="_top" xlink:title=" ">
<polygon fill="white" stroke="#666666" points="1308,-184 1192,-184 1192,-165 1308,-165 1308,-184"/>
<text text-anchor="middle" x="1250" y="-172" font-family="Helvetica,sans-Serif" font-size="10.00">dolphin/os/OSReboot.h</text>
</a>
</g>
</g>
<!-- Node7&#45;&gt;Node23 -->
<g id="edge38" class="edge">
<title>Node7&#45;&gt;Node23</title>
<path fill="none" stroke="#63b8ff" d="M831.42,-283.36C918.11,-282.46 1143,-276.47 1206,-239 1223.09,-228.84 1235.14,-209.16 1242.25,-194.39"/>
<polygon fill="#63b8ff" stroke="#63b8ff" points="1245.27,-196.23 1246.12,-185.67 1238.87,-193.39 1245.27,-196.23"/>
</g>
<!-- Node24 -->
<g id="node24" class="node">
<title>Node24</title>
<g id="a_node24"><a xlink:href="OSReset_8h.html" target="_top" xlink:title=" ">
<polygon fill="white" stroke="#666666" points="1437.5,-184 1326.5,-184 1326.5,-165 1437.5,-165 1437.5,-184"/>
<text text-anchor="middle" x="1382" y="-172" font-family="Helvetica,sans-Serif" font-size="10.00">dolphin/os/OSReset.h</text>
</a>
</g>
</g>
<!-- Node7&#45;&gt;Node24 -->
<g id="edge40" class="edge">
<title>Node7&#45;&gt;Node24</title>
<path fill="none" stroke="#63b8ff" d="M831.28,-283.36C905.27,-282.33 1084.99,-275.88 1230,-239 1275.67,-227.38 1325.51,-204.42 1355.24,-189.52"/>
<polygon fill="#63b8ff" stroke="#63b8ff" points="1356.57,-192.77 1363.89,-185.12 1353.39,-186.54 1356.57,-192.77"/>
</g>
<!-- Node25 -->
<g id="node25" class="node">
<title>Node25</title>
<g id="a_node25"><a xlink:href="OSResetSW_8h.html" target="_top" xlink:title=" ">
<polygon fill="white" stroke="#666666" points="1434.5,-129 1307.5,-129 1307.5,-110 1434.5,-110 1434.5,-129"/>
<text text-anchor="middle" x="1371" y="-117" font-family="Helvetica,sans-Serif" font-size="10.00">dolphin/os/OSResetSW.h</text>
</a>
</g>
</g>
<!-- Node7&#45;&gt;Node25 -->
<g id="edge42" class="edge">
<title>Node7&#45;&gt;Node25</title>
<path fill="none" stroke="#63b8ff" d="M831.35,-282.78C910.06,-280.59 1109.24,-271.96 1272,-239 1351.49,-222.9 1398.07,-249.42 1446,-184 1460.98,-163.56 1433.33,-145.46 1407.47,-133.87"/>
<polygon fill="#63b8ff" stroke="#63b8ff" points="1408.97,-130.7 1398.4,-130.05 1406.25,-137.15 1408.97,-130.7"/>
</g>
<!-- Node26 -->
<g id="node26" class="node">
<title>Node26</title>
<g id="a_node26"><a xlink:href="OSRtc_8h.html" target="_top" xlink:title=" ">
<polygon fill="white" stroke="#666666" points="1553.5,-129 1452.5,-129 1452.5,-110 1553.5,-110 1553.5,-129"/>
<text text-anchor="middle" x="1503" y="-117" font-family="Helvetica,sans-Serif" font-size="10.00">dolphin/os/OSRtc.h</text>
</a>
</g>
</g>
<!-- Node7&#45;&gt;Node26 -->
<g id="edge44" class="edge">
<title>Node7&#45;&gt;Node26</title>
<path fill="none" stroke="#63b8ff" d="M831.49,-282.46C936.96,-279.02 1254,-266.59 1353,-239 1405.65,-224.33 1422.49,-220.7 1463,-184 1476.73,-171.56 1487.55,-153.35 1494.45,-139.62"/>
<polygon fill="#63b8ff" stroke="#63b8ff" points="1497.55,-141.26 1498.66,-130.73 1491.22,-138.27 1497.55,-141.26"/>
</g>
<!-- Node27 -->
<g id="node27" class="node">
<title>Node27</title>
<g id="a_node27"><a xlink:href="OSSync_8h.html" target="_top" xlink:title=" ">
<polygon fill="white" stroke="#666666" points="1800.5,-239 1693.5,-239 1693.5,-220 1800.5,-220 1800.5,-239"/>
<text text-anchor="middle" x="1747" y="-227" font-family="Helvetica,sans-Serif" font-size="10.00">dolphin/os/OSSync.h</text>
</a>
</g>
</g>
<!-- Node7&#45;&gt;Node27 -->
<g id="edge46" class="edge">
<title>Node7&#45;&gt;Node27</title>
<path fill="none" stroke="#63b8ff" d="M831.32,-282.82C948.53,-280.26 1343.93,-269.83 1681.84,-239.11"/>
<polygon fill="#63b8ff" stroke="#63b8ff" points="1681.93,-242.62 1691.57,-238.22 1681.29,-235.65 1681.93,-242.62"/>
</g>
<!-- Node8&#45;&gt;Node5 -->
<g id="edge8" class="edge">
<title>Node8&#45;&gt;Node5</title>
<path fill="none" stroke="#63b8ff" d="M465.31,-112.33C470.22,-111.49 475.24,-110.68 480,-110 613.88,-90.91 772.58,-76.44 852.88,-69.7"/>
<polygon fill="#63b8ff" stroke="#63b8ff" points="852.96,-73.2 862.64,-68.88 852.38,-66.23 852.96,-73.2"/>
</g>
<!-- Node9&#45;&gt;Node5 -->
<g id="edge10" class="edge">
<title>Node9&#45;&gt;Node5</title>
<path fill="none" stroke="#63b8ff" d="M439.42,-164.64C463.04,-150.57 511.89,-123.35 557,-110 659,-79.81 783.79,-70.1 852.81,-66.98"/>
<polygon fill="#63b8ff" stroke="#63b8ff" points="852.85,-70.48 862.7,-66.56 852.56,-63.49 852.85,-70.48"/>
</g>
<!-- Node10&#45;&gt;Node11 -->
<g id="edge12" class="edge">
<title>Node10&#45;&gt;Node11</title>
<path fill="none" stroke="#63b8ff" d="M603.58,-219.51C590.8,-211.54 571.9,-199.75 556.87,-190.38"/>
<polygon fill="#63b8ff" stroke="#63b8ff" points="558.83,-187.48 548.49,-185.16 555.12,-193.42 558.83,-187.48"/>
</g>
<!-- Node10&#45;&gt;Node12 -->
<g id="edge14" class="edge">
<title>Node10&#45;&gt;Node12</title>
<path fill="none" stroke="#63b8ff" d="M624.61,-219.75C629.96,-212.66 637.68,-202.42 644.35,-193.59"/>
<polygon fill="#63b8ff" stroke="#63b8ff" points="647.11,-195.74 650.34,-185.65 641.52,-191.52 647.11,-195.74"/>
</g>
<!-- Node11&#45;&gt;Node5 -->
<g id="edge13" class="edge">
<title>Node11&#45;&gt;Node5</title>
<path fill="none" stroke="#63b8ff" d="M536.96,-164.77C543.88,-150.62 559.59,-122.99 582,-110 626.99,-83.93 773.75,-72.36 853.05,-67.9"/>
<polygon fill="#63b8ff" stroke="#63b8ff" points="852.93,-71.42 862.72,-67.38 852.55,-64.43 852.93,-71.42"/>
</g>
<!-- Node12&#45;&gt;Node5 -->
<g id="edge15" class="edge">
<title>Node12&#45;&gt;Node5</title>
<path fill="none" stroke="#63b8ff" d="M635.87,-164.66C609.61,-152.93 571.57,-131.22 590,-110 623.4,-71.55 772.17,-65.4 852.74,-64.97"/>
<polygon fill="#63b8ff" stroke="#63b8ff" points="852.6,-68.47 862.59,-64.95 852.59,-61.47 852.6,-68.47"/>
</g>
<!-- Node13&#45;&gt;Node5 -->
<g id="edge17" class="edge">
<title>Node13&#45;&gt;Node5</title>
<path fill="none" stroke="#63b8ff" d="M695.75,-109.51C739.21,-100.37 806.58,-86.2 853.08,-76.42"/>
<polygon fill="#63b8ff" stroke="#63b8ff" points="853.59,-79.89 862.65,-74.41 852.15,-73.04 853.59,-79.89"/>
</g>
<!-- Node14&#45;&gt;Node5 -->
<g id="edge19" class="edge">
<title>Node14&#45;&gt;Node5</title>
<path fill="none" stroke="#63b8ff" d="M801.2,-109.51C821.08,-101.08 851.03,-88.38 873.66,-78.79"/>
<polygon fill="#63b8ff" stroke="#63b8ff" points="874.87,-82.07 882.72,-74.95 872.14,-75.63 874.87,-82.07"/>
</g>
<!-- Node16&#45;&gt;Node5 -->
<g id="edge22" class="edge">
<title>Node16&#45;&gt;Node5</title>
<path fill="none" stroke="#63b8ff" d="M865.3,-164.72C868.66,-152.33 875.33,-129.09 883,-110 886.45,-101.4 890.89,-92.18 894.87,-84.37"/>
<polygon fill="#63b8ff" stroke="#63b8ff" points="897.96,-86 899.51,-75.52 891.76,-82.76 897.96,-86"/>
</g>
<!-- Node17&#45;&gt;Node5 -->
<g id="edge26" class="edge">
<title>Node17&#45;&gt;Node5</title>
<path fill="none" stroke="#63b8ff" d="M939.23,-109.75C933.68,-102.58 925.66,-92.2 918.77,-83.3"/>
<polygon fill="#63b8ff" stroke="#63b8ff" points="921.73,-81.41 912.84,-75.64 916.19,-85.69 921.73,-81.41"/>
</g>
<!-- Node18&#45;&gt;Node5 -->
<g id="edge28" class="edge">
<title>Node18&#45;&gt;Node5</title>
<path fill="none" stroke="#63b8ff" d="M947.76,-219.77C975.06,-199.99 1034.54,-150.38 1008,-110 996.45,-92.43 976.34,-81.77 956.93,-75.31"/>
<polygon fill="#63b8ff" stroke="#63b8ff" points="958,-71.98 947.42,-72.48 956.01,-78.69 958,-71.98"/>
</g>
<!-- Node19&#45;&gt;Node5 -->
<g id="edge30" class="edge">
<title>Node19&#45;&gt;Node5</title>
<path fill="none" stroke="#63b8ff" d="M1072.78,-164.76C1068.86,-151.12 1059.44,-124.78 1042,-110 1018.1,-89.76 984.8,-78.67 957.01,-72.62"/>
<polygon fill="#63b8ff" stroke="#63b8ff" points="957.85,-69.22 947.36,-70.7 956.48,-76.09 957.85,-69.22"/>
</g>
<!-- Node20&#45;&gt;Node5 -->
<g id="edge32" class="edge">
<title>Node20&#45;&gt;Node5</title>
<path fill="none" stroke="#63b8ff" d="M1113.42,-109.51C1070.14,-100.37 1003.03,-86.2 956.71,-76.42"/>
<polygon fill="#63b8ff" stroke="#63b8ff" points="957.69,-73.05 947.19,-74.41 956.25,-79.9 957.69,-73.05"/>
</g>
<!-- Node21&#45;&gt;Node19 -->
<g id="edge34" class="edge">
<title>Node21&#45;&gt;Node19</title>
<path fill="none" stroke="#63b8ff" d="M1099.21,-219.75C1095.46,-212.88 1090.09,-203.08 1085.37,-194.45"/>
<polygon fill="#63b8ff" stroke="#63b8ff" points="1088.49,-192.86 1080.62,-185.77 1082.35,-196.22 1088.49,-192.86"/>
</g>
<!-- Node22&#45;&gt;Node3 -->
<g id="edge36" class="edge">
<title>Node22&#45;&gt;Node3</title>
<path fill="none" stroke="#63b8ff" d="M223.57,-219.75C217.42,-212.5 208.49,-201.98 200.87,-193.02"/>
<polygon fill="#63b8ff" stroke="#63b8ff" points="203.71,-190.95 194.57,-185.6 198.38,-195.48 203.71,-190.95"/>
</g>
<!-- Node23&#45;&gt;Node5 -->
<g id="edge39" class="edge">
<title>Node23&#45;&gt;Node5</title>
<path fill="none" stroke="#63b8ff" d="M1248.18,-164.85C1244.73,-150.83 1235.85,-123.36 1217,-110 1176.24,-81.11 1034.85,-70.79 957.16,-67.25"/>
<polygon fill="#63b8ff" stroke="#63b8ff" points="957.37,-63.76 947.23,-66.82 957.07,-70.75 957.37,-63.76"/>
</g>
<!-- Node24&#45;&gt;Node5 -->
<g id="edge41" class="edge">
<title>Node24&#45;&gt;Node5</title>
<path fill="none" stroke="#63b8ff" d="M1366.38,-164.7C1340.82,-150.72 1288.07,-123.63 1240,-110 1142.56,-82.37 1024.19,-71.77 957.44,-67.79"/>
<polygon fill="#63b8ff" stroke="#63b8ff" points="957.68,-64.3 947.5,-67.23 957.29,-71.29 957.68,-64.3"/>
</g>
<!-- Node25&#45;&gt;Node5 -->
<g id="edge43" class="edge">
<title>Node25&#45;&gt;Node5</title>
<path fill="none" stroke="#63b8ff" d="M1307.18,-111.24C1214.12,-100.66 1042.93,-81.19 957.04,-71.42"/>
<polygon fill="#63b8ff" stroke="#63b8ff" points="957.59,-67.96 947.25,-70.31 956.8,-74.91 957.59,-67.96"/>
</g>
<!-- Node26&#45;&gt;Node5 -->
<g id="edge45" class="edge">
<title>Node26&#45;&gt;Node5</title>
<path fill="none" stroke="#63b8ff" d="M1452.29,-111.1C1449.15,-110.71 1446.03,-110.34 1443,-110 1265.3,-90.08 1053.64,-75.14 957.35,-68.81"/>
<polygon fill="#63b8ff" stroke="#63b8ff" points="957.63,-65.32 947.42,-68.17 957.17,-72.31 957.63,-65.32"/>
</g>
</g>
</svg>
