<?xml version="1.0" encoding="UTF-8" standalone="no"?>
<!DOCTYPE svg PUBLIC "-//W3C//DTD SVG 1.1//EN"
 "http://www.w3.org/Graphics/SVG/1.1/DTD/svg11.dtd">
<!-- Generated by graphviz version 7.0.5 (20221223.1930)
 -->
<!-- Title: include/JSystem/JMessage/processor.h Pages: 1 -->
<!--zoomable 302 -->
<svg id="main" version="1.1" xmlns="http://www.w3.org/2000/svg" xmlns:xlink="http://www.w3.org/1999/xlink" xml:space="preserve" onload="init(evt)">
<style type="text/css"><![CDATA[
.edge:hover path { stroke: red; }
.edge:hover polygon { stroke: red; fill: red; }
]]></style>
<script type="text/javascript"><![CDATA[
var edges = document.getElementsByTagName('g');
if (edges && edges.length) {
  for (var i=0;i<edges.length;i++) {
    if (edges[i].id.substr(0,4)=='edge') {
      edges[i].setAttribute('class','edge');
    }
  }
}
]]></script>
        <defs>
                <circle id="rim" cx="0" cy="0" r="7"/>
                <circle id="rim2" cx="0" cy="0" r="3.5"/>
                <g id="zoomPlus">
                        <use xlink:href="#rim" fill="#404040">
                                <set attributeName="fill" to="#808080" begin="zoomplus.mouseover" end="zoomplus.mouseout"/>
                        </use>
                        <path d="M-4,0h8M0,-4v8" fill="none" stroke="white" stroke-width="1.5" pointer-events="none"/>
                </g>
                <g id="zoomMin">
                        <use xlink:href="#rim" fill="#404040">
                                <set attributeName="fill" to="#808080" begin="zoomminus.mouseover" end="zoomminus.mouseout"/>
                        </use>
                        <path d="M-4,0h8" fill="none" stroke="white" stroke-width="1.5" pointer-events="none"/>
                </g>
                <g id="dirArrow">
                        <path fill="none" stroke="white" stroke-width="1.5" d="M0,-3.0v7 M-2.5,-0.5L0,-3.0L2.5,-0.5"/>
                </g>
               <g id="resetDef">
                       <use xlink:href="#rim2" fill="#404040">
                               <set attributeName="fill" to="#808080" begin="reset.mouseover" end="reset.mouseout"/>
                       </use>
               </g>
        </defs>

<script type="text/javascript">
var viewWidth = 4350;
var viewHeight = 302;
var sectionId = 'dynsection-1';
</script>
<script xlink:href="svgpan.js"/>
<svg id="graph" class="graph">
<g id="viewport">
<title>include/JSystem/JMessage/processor.h</title>
<!-- Node1 -->
<g id="node1" class="node">
<title>Node1</title>
<g id="a_node1"><a xlink:title=" ">
<polygon fill="#999999" stroke="#666666" points="2688.5,-294 2551.5,-294 2551.5,-264 2688.5,-264 2688.5,-294"/>
<text text-anchor="start" x="2559.5" y="-282" font-family="Helvetica,sans-Serif" font-size="10.00">include/JSystem/JMessage</text>
<text text-anchor="middle" x="2620" y="-271" font-family="Helvetica,sans-Serif" font-size="10.00">/processor.h</text>
</a>
</g>
</g>
<!-- Node2 -->
<g id="node2" class="node">
<title>Node2</title>
<g id="a_node2"><a xlink:href="JMessage_2control_8h.html" target="_top" xlink:title=" ">
<polygon fill="white" stroke="#666666" points="2640.5,-228 2503.5,-228 2503.5,-198 2640.5,-198 2640.5,-228"/>
<text text-anchor="start" x="2511.5" y="-216" font-family="Helvetica,sans-Serif" font-size="10.00">include/JSystem/JMessage</text>
<text text-anchor="middle" x="2572" y="-205" font-family="Helvetica,sans-Serif" font-size="10.00">/control.h</text>
</a>
</g>
</g>
<!-- Node1&#45;&gt;Node2 -->
<g id="edge1" class="edge">
<title>Node1&#45;&gt;Node2</title>
<path fill="none" stroke="#63b8ff" d="M2602.51,-254.68C2595.85,-245.79 2588.46,-235.95 2582.62,-228.16"/>
<polygon fill="#63b8ff" stroke="#63b8ff" points="2599.64,-256.69 2608.44,-262.59 2605.24,-252.49 2599.64,-256.69"/>
</g>
<!-- Node41 -->
<g id="node41" class="node">
<title>Node41</title>
<g id="a_node41"><a xlink:href="processor_8cpp.html" target="_top" xlink:title=" ">
<polygon fill="white" stroke="#666666" points="2771.5,-162 2650.5,-162 2650.5,-132 2771.5,-132 2771.5,-162"/>
<text text-anchor="start" x="2658.5" y="-150" font-family="Helvetica,sans-Serif" font-size="10.00">libs/JSystem/JMessage</text>
<text text-anchor="middle" x="2711" y="-139" font-family="Helvetica,sans-Serif" font-size="10.00">/processor.cpp</text>
</a>
</g>
</g>
<!-- Node1&#45;&gt;Node41 -->
<g id="edge46" class="edge">
<title>Node1&#45;&gt;Node41</title>
<path fill="none" stroke="#63b8ff" d="M2636.68,-254.17C2655.45,-227.36 2685.33,-184.67 2700.87,-162.47"/>
<polygon fill="#63b8ff" stroke="#63b8ff" points="2633.82,-252.15 2630.95,-262.35 2639.56,-256.17 2633.82,-252.15"/>
</g>
<!-- Node3 -->
<g id="node3" class="node">
<title>Node3</title>
<g id="a_node3"><a xlink:href="d__msg__class_8h.html" target="_top" xlink:title=" ">
<polygon fill="white" stroke="#666666" points="822,-162 712,-162 712,-132 822,-132 822,-162"/>
<text text-anchor="start" x="720" y="-150" font-family="Helvetica,sans-Serif" font-size="10.00">include/d/msg/d_msg</text>
<text text-anchor="middle" x="767" y="-139" font-family="Helvetica,sans-Serif" font-size="10.00">_class.h</text>
</a>
</g>
</g>
<!-- Node2&#45;&gt;Node3 -->
<g id="edge2" class="edge">
<title>Node2&#45;&gt;Node3</title>
<path fill="none" stroke="#63b8ff" d="M2491.69,-209.15C2183.68,-198.23 1082.15,-159.17 822.24,-149.96"/>
<polygon fill="#63b8ff" stroke="#63b8ff" points="2491.54,-212.65 2501.66,-209.51 2491.79,-205.65 2491.54,-212.65"/>
</g>
<!-- Node13 -->
<g id="node13" class="node">
<title>Node13</title>
<g id="a_node13"><a xlink:href="d__msg__object_8h.html" target="_top" xlink:title=" ">
<polygon fill="white" stroke="#666666" points="2493,-162 2383,-162 2383,-132 2493,-132 2493,-162"/>
<text text-anchor="start" x="2391" y="-150" font-family="Helvetica,sans-Serif" font-size="10.00">include/d/msg/d_msg</text>
<text text-anchor="middle" x="2438" y="-139" font-family="Helvetica,sans-Serif" font-size="10.00">_object.h</text>
</a>
</g>
</g>
<!-- Node2&#45;&gt;Node13 -->
<g id="edge12" class="edge">
<title>Node2&#45;&gt;Node13</title>
<path fill="none" stroke="#63b8ff" d="M2531.64,-192.72C2511.17,-182.95 2486.74,-171.28 2467.97,-162.31"/>
<polygon fill="#63b8ff" stroke="#63b8ff" points="2530.03,-195.83 2540.56,-196.98 2533.05,-189.52 2530.03,-195.83"/>
</g>
<!-- Node40 -->
<g id="node40" class="node">
<title>Node40</title>
<g id="a_node40"><a xlink:href="JMessage_2control_8cpp.html" target="_top" xlink:title=" ">
<polygon fill="white" stroke="#666666" points="2632.5,-162 2511.5,-162 2511.5,-132 2632.5,-132 2632.5,-162"/>
<text text-anchor="start" x="2519.5" y="-150" font-family="Helvetica,sans-Serif" font-size="10.00">libs/JSystem/JMessage</text>
<text text-anchor="middle" x="2572" y="-139" font-family="Helvetica,sans-Serif" font-size="10.00">/control.cpp</text>
</a>
</g>
</g>
<!-- Node2&#45;&gt;Node40 -->
<g id="edge44" class="edge">
<title>Node2&#45;&gt;Node40</title>
<path fill="none" stroke="#63b8ff" d="M2572,-186.39C2572,-178.13 2572,-169.28 2572,-162.16"/>
<polygon fill="#63b8ff" stroke="#63b8ff" points="2568.5,-186.28 2572,-196.28 2575.5,-186.28 2568.5,-186.28"/>
</g>
<!-- Node2&#45;&gt;Node41 -->
<g id="edge45" class="edge">
<title>Node2&#45;&gt;Node41</title>
<path fill="none" stroke="#63b8ff" d="M2613.58,-192.86C2634.87,-183.05 2660.35,-171.32 2679.91,-162.31"/>
<polygon fill="#63b8ff" stroke="#63b8ff" points="2612.19,-189.64 2604.57,-197 2615.12,-196 2612.19,-189.64"/>
</g>
<!-- Node4 -->
<g id="node4" class="node">
<title>Node4</title>
<g id="a_node4"><a xlink:href="d__menu__collect_8cpp.html" target="_top" xlink:title=" ">
<polygon fill="white" stroke="#666666" points="1071.5,-90.5 916.5,-90.5 916.5,-71.5 1071.5,-71.5 1071.5,-90.5"/>
<text text-anchor="middle" x="994" y="-78.5" font-family="Helvetica,sans-Serif" font-size="10.00">src/d/menu/d_menu_collect.cpp</text>
</a>
</g>
</g>
<!-- Node3&#45;&gt;Node4 -->
<g id="edge3" class="edge">
<title>Node3&#45;&gt;Node4</title>
<path fill="none" stroke="#63b8ff" d="M829.17,-128.47C872.26,-116.32 927.86,-100.65 962.21,-90.96"/>
<polygon fill="#63b8ff" stroke="#63b8ff" points="828.36,-125.06 819.68,-131.15 830.26,-131.8 828.36,-125.06"/>
</g>
<!-- Node5 -->
<g id="node5" class="node">
<title>Node5</title>
<g id="a_node5"><a xlink:href="d__menu__item__explain_8cpp.html" target="_top" xlink:title=" ">
<polygon fill="white" stroke="#666666" points="437.5,-96 310.5,-96 310.5,-66 437.5,-66 437.5,-96"/>
<text text-anchor="start" x="318.5" y="-84" font-family="Helvetica,sans-Serif" font-size="10.00">src/d/menu/d_menu_item</text>
<text text-anchor="middle" x="374" y="-73" font-family="Helvetica,sans-Serif" font-size="10.00">_explain.cpp</text>
</a>
</g>
</g>
<!-- Node3&#45;&gt;Node5 -->
<g id="edge4" class="edge">
<title>Node3&#45;&gt;Node5</title>
<path fill="none" stroke="#63b8ff" d="M700.43,-136.28C635.62,-126.66 534.4,-111.21 447,-96 443.95,-95.47 440.83,-94.91 437.68,-94.35"/>
<polygon fill="#63b8ff" stroke="#63b8ff" points="699.79,-139.73 710.2,-137.73 700.82,-132.8 699.79,-139.73"/>
</g>
<!-- Node6 -->
<g id="node6" class="node">
<title>Node6</title>
<g id="a_node6"><a xlink:href="d__menu__letter_8cpp.html" target="_top" xlink:title=" ">
<polygon fill="white" stroke="#666666" points="604,-90.5 456,-90.5 456,-71.5 604,-71.5 604,-90.5"/>
<text text-anchor="middle" x="530" y="-78.5" font-family="Helvetica,sans-Serif" font-size="10.00">src/d/menu/d_menu_letter.cpp</text>
</a>
</g>
</g>
<!-- Node3&#45;&gt;Node6 -->
<g id="edge5" class="edge">
<title>Node3&#45;&gt;Node6</title>
<path fill="none" stroke="#63b8ff" d="M702.66,-128.63C657.59,-116.46 599.21,-100.69 563.19,-90.96"/>
<polygon fill="#63b8ff" stroke="#63b8ff" points="701.49,-131.93 712.06,-131.16 703.31,-125.18 701.49,-131.93"/>
</g>
<!-- Node7 -->
<g id="node7" class="node">
<title>Node7</title>
<g id="a_node7"><a xlink:href="d__menu__option_8cpp.html" target="_top" xlink:title=" ">
<polygon fill="white" stroke="#666666" points="152,-90.5 0,-90.5 0,-71.5 152,-71.5 152,-90.5"/>
<text text-anchor="middle" x="76" y="-78.5" font-family="Helvetica,sans-Serif" font-size="10.00">src/d/menu/d_menu_option.cpp</text>
</a>
</g>
</g>
<!-- Node3&#45;&gt;Node7 -->
<g id="edge6" class="edge">
<title>Node3&#45;&gt;Node7</title>
<path fill="none" stroke="#63b8ff" d="M700.29,-142.27C588.48,-135.61 356.3,-120.1 161,-96 149.72,-94.61 137.64,-92.81 126.24,-90.97"/>
<polygon fill="#63b8ff" stroke="#63b8ff" points="700,-145.76 710.19,-142.85 700.41,-138.77 700,-145.76"/>
</g>
<!-- Node8 -->
<g id="node8" class="node">
<title>Node8</title>
<g id="a_node8"><a xlink:href="d__meter2__draw_8cpp.html" target="_top" xlink:title=" ">
<polygon fill="white" stroke="#666666" points="1200,-96 1090,-96 1090,-66 1200,-66 1200,-96"/>
<text text-anchor="start" x="1098" y="-84" font-family="Helvetica,sans-Serif" font-size="10.00">src/d/meter/d_meter2</text>
<text text-anchor="middle" x="1145" y="-73" font-family="Helvetica,sans-Serif" font-size="10.00">_draw.cpp</text>
</a>
</g>
</g>
<!-- Node3&#45;&gt;Node8 -->
<g id="edge7" class="edge">
<title>Node3&#45;&gt;Node8</title>
<path fill="none" stroke="#63b8ff" d="M833.33,-136.46C896.81,-127.08 995.17,-111.9 1080,-96 1083.18,-95.4 1086.44,-94.77 1089.72,-94.12"/>
<polygon fill="#63b8ff" stroke="#63b8ff" points="833.16,-132.95 823.78,-137.87 834.18,-139.87 833.16,-132.95"/>
</g>
<!-- Node9 -->
<g id="node9" class="node">
<title>Node9</title>
<g id="a_node9"><a xlink:href="d__msg__class_8cpp.html" target="_top" xlink:title=" ">
<polygon fill="white" stroke="#666666" points="1357.5,-90.5 1218.5,-90.5 1218.5,-71.5 1357.5,-71.5 1357.5,-90.5"/>
<text text-anchor="middle" x="1288" y="-78.5" font-family="Helvetica,sans-Serif" font-size="10.00">src/d/msg/d_msg_class.cpp</text>
</a>
</g>
</g>
<!-- Node3&#45;&gt;Node9 -->
<g id="edge8" class="edge">
<title>Node3&#45;&gt;Node9</title>
<path fill="none" stroke="#63b8ff" d="M833.51,-139.79C920.15,-131.4 1076.25,-115.25 1209,-96 1219.06,-94.54 1229.81,-92.78 1240.03,-91"/>
<polygon fill="#63b8ff" stroke="#63b8ff" points="833.39,-136.28 823.78,-140.73 834.07,-143.25 833.39,-136.28"/>
</g>
<!-- Node10 -->
<g id="node10" class="node">
<title>Node10</title>
<g id="a_node10"><a xlink:href="d__msg__object_8cpp.html" target="_top" xlink:title=" ">
<polygon fill="white" stroke="#666666" points="764,-90.5 622,-90.5 622,-71.5 764,-71.5 764,-90.5"/>
<text text-anchor="middle" x="693" y="-78.5" font-family="Helvetica,sans-Serif" font-size="10.00">src/d/msg/d_msg_object.cpp</text>
</a>
</g>
</g>
<!-- Node3&#45;&gt;Node10 -->
<g id="edge9" class="edge">
<title>Node3&#45;&gt;Node10</title>
<path fill="none" stroke="#63b8ff" d="M741.88,-124.27C728.66,-112.84 713.17,-99.44 703.23,-90.84"/>
<polygon fill="#63b8ff" stroke="#63b8ff" points="739.58,-126.91 749.43,-130.81 744.16,-121.62 739.58,-126.91"/>
</g>
<!-- Node11 -->
<g id="node11" class="node">
<title>Node11</title>
<g id="a_node11"><a xlink:href="d__msg__scrn__howl_8cpp.html" target="_top" xlink:title=" ">
<polygon fill="white" stroke="#666666" points="898,-96 782,-96 782,-66 898,-66 898,-96"/>
<text text-anchor="start" x="790" y="-84" font-family="Helvetica,sans-Serif" font-size="10.00">src/d/msg/d_msg_scrn</text>
<text text-anchor="middle" x="840" y="-73" font-family="Helvetica,sans-Serif" font-size="10.00">_howl.cpp</text>
</a>
</g>
</g>
<!-- Node3&#45;&gt;Node11 -->
<g id="edge10" class="edge">
<title>Node3&#45;&gt;Node11</title>
<path fill="none" stroke="#63b8ff" d="M791.61,-124.42C802.15,-115.18 814.17,-104.65 823.59,-96.39"/>
<polygon fill="#63b8ff" stroke="#63b8ff" points="789.55,-121.57 784.34,-130.8 794.17,-126.84 789.55,-121.57"/>
</g>
<!-- Node12 -->
<g id="node12" class="node">
<title>Node12</title>
<g id="a_node12"><a xlink:href="d__msg__string__base_8cpp.html" target="_top" xlink:title=" ">
<polygon fill="white" stroke="#666666" points="292,-96 170,-96 170,-66 292,-66 292,-96"/>
<text text-anchor="start" x="178" y="-84" font-family="Helvetica,sans-Serif" font-size="10.00">src/d/msg/d_msg_string</text>
<text text-anchor="middle" x="231" y="-73" font-family="Helvetica,sans-Serif" font-size="10.00">_base.cpp</text>
</a>
</g>
</g>
<!-- Node3&#45;&gt;Node12 -->
<g id="edge11" class="edge">
<title>Node3&#45;&gt;Node12</title>
<path fill="none" stroke="#63b8ff" d="M700.35,-140.76C609.68,-133.19 442.53,-117.7 301,-96 298.18,-95.57 295.31,-95.1 292.4,-94.61"/>
<polygon fill="#63b8ff" stroke="#63b8ff" points="699.79,-144.22 710.05,-141.56 700.37,-137.25 699.79,-144.22"/>
</g>
<!-- Node13&#45;&gt;Node4 -->
<g id="edge24" class="edge">
<title>Node13&#45;&gt;Node4</title>
<path fill="none" stroke="#63b8ff" d="M2371.25,-146.43C2173.67,-147.1 1574.71,-144.63 1081,-96 1068.67,-94.79 1055.43,-92.94 1043.09,-90.98"/>
<polygon fill="#63b8ff" stroke="#63b8ff" points="2371.08,-149.93 2381.06,-146.4 2371.05,-142.93 2371.08,-149.93"/>
</g>
<!-- Node13&#45;&gt;Node8 -->
<g id="edge26" class="edge">
<title>Node13&#45;&gt;Node8</title>
<path fill="none" stroke="#63b8ff" d="M2371.13,-144.82C2148.97,-140.66 1436.71,-125.31 1209,-96 1206.18,-95.64 1203.3,-95.21 1200.4,-94.74"/>
<polygon fill="#63b8ff" stroke="#63b8ff" points="2371,-148.32 2381.07,-145 2371.13,-141.32 2371,-148.32"/>
</g>
<!-- Node13&#45;&gt;Node9 -->
<g id="edge29" class="edge">
<title>Node13&#45;&gt;Node9</title>
<path fill="none" stroke="#63b8ff" d="M2371.21,-145.86C2202.41,-144.87 1745.22,-138.16 1367,-96 1355.79,-94.75 1343.76,-92.89 1332.56,-90.93"/>
<polygon fill="#63b8ff" stroke="#63b8ff" points="2371.09,-149.36 2381.11,-145.92 2371.13,-142.36 2371.09,-149.36"/>
</g>
<!-- Node13&#45;&gt;Node10 -->
<g id="edge31" class="edge">
<title>Node13&#45;&gt;Node10</title>
<path fill="none" stroke="#63b8ff" d="M2371.69,-145.28C2102.59,-142.15 1091.19,-128.45 773,-96 761.5,-94.83 749.16,-92.97 737.69,-90.99"/>
<polygon fill="#63b8ff" stroke="#63b8ff" points="2371.27,-148.77 2381.31,-145.39 2371.35,-141.77 2371.27,-148.77"/>
</g>
<!-- Node13&#45;&gt;Node11 -->
<g id="edge36" class="edge">
<title>Node13&#45;&gt;Node11</title>
<path fill="none" stroke="#63b8ff" d="M2371.18,-145.36C2115.2,-142.67 1196.8,-130.74 907,-96 904.17,-95.66 901.28,-95.26 898.37,-94.82"/>
<polygon fill="#63b8ff" stroke="#63b8ff" points="2370.96,-148.86 2381,-145.46 2371.04,-141.86 2370.96,-148.86"/>
</g>
<!-- Node14 -->
<g id="node14" class="node">
<title>Node14</title>
<g id="a_node14"><a xlink:href="d__timer_8h.html" target="_top" xlink:title=" ">
<polygon fill="white" stroke="#666666" points="2060,-90.5 1962,-90.5 1962,-71.5 2060,-71.5 2060,-90.5"/>
<text text-anchor="middle" x="2011" y="-78.5" font-family="Helvetica,sans-Serif" font-size="10.00">include/d/d_timer.h</text>
</a>
</g>
</g>
<!-- Node13&#45;&gt;Node14 -->
<g id="edge13" class="edge">
<title>Node13&#45;&gt;Node14</title>
<path fill="none" stroke="#63b8ff" d="M2371.69,-139.08C2297.57,-130.87 2174.15,-115.76 2069,-96 2061.36,-94.57 2053.23,-92.77 2045.53,-90.95"/>
<polygon fill="#63b8ff" stroke="#63b8ff" points="2370.88,-142.51 2381.2,-140.13 2371.64,-135.56 2370.88,-142.51"/>
</g>
<!-- Node19 -->
<g id="node19" class="node">
<title>Node19</title>
<g id="a_node19"><a xlink:href="d__a__alink_8cpp.html" target="_top" xlink:title=" ">
<polygon fill="white" stroke="#666666" points="2187.5,-90.5 2078.5,-90.5 2078.5,-71.5 2187.5,-71.5 2187.5,-90.5"/>
<text text-anchor="middle" x="2133" y="-78.5" font-family="Helvetica,sans-Serif" font-size="10.00">src/d/a/d_a_alink.cpp</text>
</a>
</g>
</g>
<!-- Node13&#45;&gt;Node19 -->
<g id="edge18" class="edge">
<title>Node13&#45;&gt;Node19</title>
<path fill="none" stroke="#63b8ff" d="M2371.66,-132.44C2323.23,-122.49 2256,-108.57 2197,-96 2189.44,-94.39 2181.37,-92.64 2173.61,-90.95"/>
<polygon fill="#63b8ff" stroke="#63b8ff" points="2370.95,-135.86 2381.44,-134.45 2372.35,-129.01 2370.95,-135.86"/>
</g>
<!-- Node20 -->
<g id="node20" class="node">
<title>Node20</title>
<g id="a_node20"><a xlink:href="d__a__npc_8cpp.html" target="_top" xlink:title=" ">
<polygon fill="white" stroke="#666666" points="2310,-90.5 2206,-90.5 2206,-71.5 2310,-71.5 2310,-90.5"/>
<text text-anchor="middle" x="2258" y="-78.5" font-family="Helvetica,sans-Serif" font-size="10.00">src/d/a/d_a_npc.cpp</text>
</a>
</g>
</g>
<!-- Node13&#45;&gt;Node20 -->
<g id="edge19" class="edge">
<title>Node13&#45;&gt;Node20</title>
<path fill="none" stroke="#63b8ff" d="M2386.96,-127.85C2353.07,-115.8 2310.05,-100.51 2283.27,-90.99"/>
<polygon fill="#63b8ff" stroke="#63b8ff" points="2385.58,-131.08 2396.18,-131.13 2387.93,-124.48 2385.58,-131.08"/>
</g>
<!-- Node21 -->
<g id="node21" class="node">
<title>Node21</title>
<g id="a_node21"><a xlink:href="d__demo_8cpp.html" target="_top" xlink:title=" ">
<polygon fill="white" stroke="#666666" points="2422,-90.5 2328,-90.5 2328,-71.5 2422,-71.5 2422,-90.5"/>
<text text-anchor="middle" x="2375" y="-78.5" font-family="Helvetica,sans-Serif" font-size="10.00">src/d/d_demo.cpp</text>
</a>
</g>
</g>
<!-- Node13&#45;&gt;Node21 -->
<g id="edge20" class="edge">
<title>Node13&#45;&gt;Node21</title>
<path fill="none" stroke="#63b8ff" d="M2415.96,-123.61C2404.85,-112.32 2392.01,-99.28 2383.71,-90.84"/>
<polygon fill="#63b8ff" stroke="#63b8ff" points="2413.45,-126.05 2422.96,-130.72 2418.44,-121.14 2413.45,-126.05"/>
</g>
<!-- Node22 -->
<g id="node22" class="node">
<title>Node22</title>
<g id="a_node22"><a xlink:href="d__event_8cpp.html" target="_top" xlink:title=" ">
<polygon fill="white" stroke="#666666" points="2561.5,-90.5 2440.5,-90.5 2440.5,-71.5 2561.5,-71.5 2561.5,-90.5"/>
<text text-anchor="middle" x="2501" y="-78.5" font-family="Helvetica,sans-Serif" font-size="10.00">src/d/event/d_event.cpp</text>
</a>
</g>
</g>
<!-- Node13&#45;&gt;Node22 -->
<g id="edge21" class="edge">
<title>Node13&#45;&gt;Node22</title>
<path fill="none" stroke="#63b8ff" d="M2460.04,-123.61C2471.15,-112.32 2483.99,-99.28 2492.29,-90.84"/>
<polygon fill="#63b8ff" stroke="#63b8ff" points="2457.56,-121.14 2453.04,-130.72 2462.55,-126.05 2457.56,-121.14"/>
</g>
<!-- Node23 -->
<g id="node23" class="node">
<title>Node23</title>
<g id="a_node23"><a xlink:href="d__event__data_8cpp.html" target="_top" xlink:title=" ">
<polygon fill="white" stroke="#666666" points="2682.5,-96 2579.5,-96 2579.5,-66 2682.5,-66 2682.5,-96"/>
<text text-anchor="start" x="2587.5" y="-84" font-family="Helvetica,sans-Serif" font-size="10.00">src/d/event/d_event</text>
<text text-anchor="middle" x="2631" y="-73" font-family="Helvetica,sans-Serif" font-size="10.00">_data.cpp</text>
</a>
</g>
</g>
<!-- Node13&#45;&gt;Node23 -->
<g id="edge22" class="edge">
<title>Node13&#45;&gt;Node23</title>
<path fill="none" stroke="#63b8ff" d="M2492.08,-128.07C2522.22,-118.07 2559.25,-105.79 2587.5,-96.43"/>
<polygon fill="#63b8ff" stroke="#63b8ff" points="2491.14,-124.69 2482.75,-131.16 2493.34,-131.34 2491.14,-124.69"/>
</g>
<!-- Node24 -->
<g id="node24" class="node">
<title>Node24</title>
<g id="a_node24"><a xlink:href="d__kankyo_8cpp.html" target="_top" xlink:title=" ">
<polygon fill="white" stroke="#666666" points="2835,-90.5 2701,-90.5 2701,-71.5 2835,-71.5 2835,-90.5"/>
<text text-anchor="middle" x="2768" y="-78.5" font-family="Helvetica,sans-Serif" font-size="10.00">src/d/kankyo/d_kankyo.cpp</text>
</a>
</g>
</g>
<!-- Node13&#45;&gt;Node24 -->
<g id="edge23" class="edge">
<title>Node13&#45;&gt;Node24</title>
<path fill="none" stroke="#63b8ff" d="M2504.76,-131.49C2558.21,-120.84 2658.88,-102.14 2719.28,-90.98"/>
<polygon fill="#63b8ff" stroke="#63b8ff" points="2504.08,-128.06 2494.97,-133.46 2505.46,-134.92 2504.08,-128.06"/>
</g>
<!-- Node25 -->
<g id="node25" class="node">
<title>Node25</title>
<g id="a_node25"><a xlink:href="d__menu__window_8cpp.html" target="_top" xlink:title=" ">
<polygon fill="white" stroke="#666666" points="3012.5,-90.5 2853.5,-90.5 2853.5,-71.5 3012.5,-71.5 3012.5,-90.5"/>
<text text-anchor="middle" x="2933" y="-78.5" font-family="Helvetica,sans-Serif" font-size="10.00">src/d/menu/d_menu_window.cpp</text>
</a>
</g>
</g>
<!-- Node13&#45;&gt;Node25 -->
<g id="edge25" class="edge">
<title>Node13&#45;&gt;Node25</title>
<path fill="none" stroke="#63b8ff" d="M2504.45,-131.72C2654.8,-108 2696.01,-115.42 2844,-96 2855.32,-94.51 2867.42,-92.74 2878.94,-90.96"/>
<polygon fill="#63b8ff" stroke="#63b8ff" points="2504.25,-128.21 2494.93,-133.24 2505.35,-135.12 2504.25,-128.21"/>
</g>
<!-- Node26 -->
<g id="node26" class="node">
<title>Node26</title>
<g id="a_node26"><a xlink:href="d__meter__button_8cpp.html" target="_top" xlink:title=" ">
<polygon fill="white" stroke="#666666" points="3135,-96 3031,-96 3031,-66 3135,-66 3135,-96"/>
<text text-anchor="start" x="3039" y="-84" font-family="Helvetica,sans-Serif" font-size="10.00">src/d/meter/d_meter</text>
<text text-anchor="middle" x="3083" y="-73" font-family="Helvetica,sans-Serif" font-size="10.00">_button.cpp</text>
</a>
</g>
</g>
<!-- Node13&#45;&gt;Node26 -->
<g id="edge27" class="edge">
<title>Node13&#45;&gt;Node26</title>
<path fill="none" stroke="#63b8ff" d="M2504.76,-131.76C2732.9,-100.17 2795.91,-129.02 3021,-96 3024.17,-95.54 3027.41,-95 3030.68,-94.41"/>
<polygon fill="#63b8ff" stroke="#63b8ff" points="2504.32,-128.28 2494.91,-133.15 2505.3,-135.22 2504.32,-128.28"/>
</g>
<!-- Node27 -->
<g id="node27" class="node">
<title>Node27</title>
<g id="a_node27"><a xlink:href="d__meter__map_8cpp.html" target="_top" xlink:title=" ">
<polygon fill="white" stroke="#666666" points="3257,-96 3153,-96 3153,-66 3257,-66 3257,-96"/>
<text text-anchor="start" x="3161" y="-84" font-family="Helvetica,sans-Serif" font-size="10.00">src/d/meter/d_meter</text>
<text text-anchor="middle" x="3205" y="-73" font-family="Helvetica,sans-Serif" font-size="10.00">_map.cpp</text>
</a>
</g>
</g>
<!-- Node13&#45;&gt;Node27 -->
<g id="edge28" class="edge">
<title>Node13&#45;&gt;Node27</title>
<path fill="none" stroke="#63b8ff" d="M2504.41,-131.83C2787.12,-94.41 2864.64,-135.6 3144,-96 3146.8,-95.6 3149.66,-95.14 3152.53,-94.64"/>
<polygon fill="#63b8ff" stroke="#63b8ff" points="2504.35,-128.31 2494.91,-133.11 2505.28,-135.25 2504.35,-128.31"/>
</g>
<!-- Node28 -->
<g id="node28" class="node">
<title>Node28</title>
<g id="a_node28"><a xlink:href="d__msg__flow_8cpp.html" target="_top" xlink:title=" ">
<polygon fill="white" stroke="#666666" points="3408.5,-90.5 3275.5,-90.5 3275.5,-71.5 3408.5,-71.5 3408.5,-90.5"/>
<text text-anchor="middle" x="3342" y="-78.5" font-family="Helvetica,sans-Serif" font-size="10.00">src/d/msg/d_msg_flow.cpp</text>
</a>
</g>
</g>
<!-- Node13&#45;&gt;Node28 -->
<g id="edge30" class="edge">
<title>Node13&#45;&gt;Node28</title>
<path fill="none" stroke="#63b8ff" d="M2504.45,-131.84C2840.96,-88.53 2931.93,-134.46 3266,-96 3276.8,-94.76 3288.37,-92.9 3299.15,-90.94"/>
<polygon fill="#63b8ff" stroke="#63b8ff" points="2504.37,-128.32 2494.9,-133.09 2505.27,-135.26 2504.37,-128.32"/>
</g>
<!-- Node29 -->
<g id="node29" class="node">
<title>Node29</title>
<g id="a_node29"><a xlink:href="d__msg__out__font_8cpp.html" target="_top" xlink:title=" ">
<polygon fill="white" stroke="#666666" points="3537.5,-96 3426.5,-96 3426.5,-66 3537.5,-66 3537.5,-96"/>
<text text-anchor="start" x="3434.5" y="-84" font-family="Helvetica,sans-Serif" font-size="10.00">src/d/msg/d_msg_out</text>
<text text-anchor="middle" x="3482" y="-73" font-family="Helvetica,sans-Serif" font-size="10.00">_font.cpp</text>
</a>
</g>
</g>
<!-- Node13&#45;&gt;Node29 -->
<g id="edge32" class="edge">
<title>Node13&#45;&gt;Node29</title>
<path fill="none" stroke="#63b8ff" d="M2504.8,-131.81C2907.71,-81.54 3016.98,-146.56 3417,-96 3419.98,-95.62 3423.02,-95.18 3426.09,-94.68"/>
<polygon fill="#63b8ff" stroke="#63b8ff" points="2504.38,-128.34 2494.9,-133.07 2505.26,-135.28 2504.38,-128.34"/>
</g>
<!-- Node30 -->
<g id="node30" class="node">
<title>Node30</title>
<g id="a_node30"><a xlink:href="d__msg__scrn__base_8cpp.html" target="_top" xlink:title=" ">
<polygon fill="white" stroke="#666666" points="3672,-96 3556,-96 3556,-66 3672,-66 3672,-96"/>
<text text-anchor="start" x="3564" y="-84" font-family="Helvetica,sans-Serif" font-size="10.00">src/d/msg/d_msg_scrn</text>
<text text-anchor="middle" x="3614" y="-73" font-family="Helvetica,sans-Serif" font-size="10.00">_base.cpp</text>
</a>
</g>
</g>
<!-- Node13&#45;&gt;Node30 -->
<g id="edge33" class="edge">
<title>Node13&#45;&gt;Node30</title>
<path fill="none" stroke="#63b8ff" d="M2504.67,-131.84C2964.65,-75.39 3088.71,-150.56 3546,-96 3549.23,-95.61 3552.54,-95.15 3555.87,-94.64"/>
<polygon fill="#63b8ff" stroke="#63b8ff" points="2504.39,-128.35 2494.9,-133.05 2505.25,-135.29 2504.39,-128.35"/>
</g>
<!-- Node31 -->
<g id="node31" class="node">
<title>Node31</title>
<g id="a_node31"><a xlink:href="d__msg__scrn__boss_8cpp.html" target="_top" xlink:title=" ">
<polygon fill="white" stroke="#666666" points="3806,-96 3690,-96 3690,-66 3806,-66 3806,-96"/>
<text text-anchor="start" x="3698" y="-84" font-family="Helvetica,sans-Serif" font-size="10.00">src/d/msg/d_msg_scrn</text>
<text text-anchor="middle" x="3748" y="-73" font-family="Helvetica,sans-Serif" font-size="10.00">_boss.cpp</text>
</a>
</g>
</g>
<!-- Node13&#45;&gt;Node31 -->
<g id="edge34" class="edge">
<title>Node13&#45;&gt;Node31</title>
<path fill="none" stroke="#63b8ff" d="M2504.57,-131.86C3024.26,-68.98 3164.1,-157.41 3681,-96 3683.83,-95.66 3686.72,-95.27 3689.63,-94.82"/>
<polygon fill="#63b8ff" stroke="#63b8ff" points="2504.4,-128.35 2494.9,-133.04 2505.25,-135.3 2504.4,-128.35"/>
</g>
<!-- Node32 -->
<g id="node32" class="node">
<title>Node32</title>
<g id="a_node32"><a xlink:href="d__msg__scrn__explain_8cpp.html" target="_top" xlink:title=" ">
<polygon fill="white" stroke="#666666" points="3940,-96 3824,-96 3824,-66 3940,-66 3940,-96"/>
<text text-anchor="start" x="3832" y="-84" font-family="Helvetica,sans-Serif" font-size="10.00">src/d/msg/d_msg_scrn</text>
<text text-anchor="middle" x="3882" y="-73" font-family="Helvetica,sans-Serif" font-size="10.00">_explain.cpp</text>
</a>
</g>
</g>
<!-- Node13&#45;&gt;Node32 -->
<g id="edge35" class="edge">
<title>Node13&#45;&gt;Node32</title>
<path fill="none" stroke="#63b8ff" d="M2504.54,-131.87C3083.45,-62.61 3238.88,-163.54 3815,-96 3817.83,-95.67 3820.72,-95.28 3823.64,-94.84"/>
<polygon fill="#63b8ff" stroke="#63b8ff" points="2504.4,-128.36 2494.9,-133.03 2505.24,-135.31 2504.4,-128.36"/>
</g>
<!-- Node33 -->
<g id="node33" class="node">
<title>Node33</title>
<g id="a_node33"><a xlink:href="d__msg__scrn__kanban_8cpp.html" target="_top" xlink:title=" ">
<polygon fill="white" stroke="#666666" points="4074,-96 3958,-96 3958,-66 4074,-66 4074,-96"/>
<text text-anchor="start" x="3966" y="-84" font-family="Helvetica,sans-Serif" font-size="10.00">src/d/msg/d_msg_scrn</text>
<text text-anchor="middle" x="4016" y="-73" font-family="Helvetica,sans-Serif" font-size="10.00">_kanban.cpp</text>
</a>
</g>
</g>
<!-- Node13&#45;&gt;Node33 -->
<g id="edge37" class="edge">
<title>Node13&#45;&gt;Node33</title>
<path fill="none" stroke="#63b8ff" d="M2504.72,-131.85C3142.67,-56.26 3313.72,-169.66 3949,-96 3951.83,-95.67 3954.72,-95.28 3957.64,-94.84"/>
<polygon fill="#63b8ff" stroke="#63b8ff" points="2504.41,-128.36 2494.9,-133.03 2505.24,-135.31 2504.41,-128.36"/>
</g>
<!-- Node34 -->
<g id="node34" class="node">
<title>Node34</title>
<g id="a_node34"><a xlink:href="d__msg__scrn__place_8cpp.html" target="_top" xlink:title=" ">
<polygon fill="white" stroke="#666666" points="4208,-96 4092,-96 4092,-66 4208,-66 4208,-96"/>
<text text-anchor="start" x="4100" y="-84" font-family="Helvetica,sans-Serif" font-size="10.00">src/d/msg/d_msg_scrn</text>
<text text-anchor="middle" x="4150" y="-73" font-family="Helvetica,sans-Serif" font-size="10.00">_place.cpp</text>
</a>
</g>
</g>
<!-- Node13&#45;&gt;Node34 -->
<g id="edge38" class="edge">
<title>Node13&#45;&gt;Node34</title>
<path fill="none" stroke="#63b8ff" d="M2504.73,-131.85C3201.87,-49.88 3388.49,-175.79 4083,-96 4085.83,-95.67 4088.72,-95.29 4091.64,-94.85"/>
<polygon fill="#63b8ff" stroke="#63b8ff" points="2504.41,-128.37 2494.89,-133.02 2505.24,-135.32 2504.41,-128.37"/>
</g>
<!-- Node35 -->
<g id="node35" class="node">
<title>Node35</title>
<g id="a_node35"><a xlink:href="d__msg__scrn__staff_8cpp.html" target="_top" xlink:title=" ">
<polygon fill="white" stroke="#666666" points="4342,-96 4226,-96 4226,-66 4342,-66 4342,-96"/>
<text text-anchor="start" x="4234" y="-84" font-family="Helvetica,sans-Serif" font-size="10.00">src/d/msg/d_msg_scrn</text>
<text text-anchor="middle" x="4284" y="-73" font-family="Helvetica,sans-Serif" font-size="10.00">_staff.cpp</text>
</a>
</g>
</g>
<!-- Node13&#45;&gt;Node35 -->
<g id="edge39" class="edge">
<title>Node13&#45;&gt;Node35</title>
<path fill="none" stroke="#63b8ff" d="M2504.57,-131.88C3261.04,-43.48 3463.21,-181.92 4217,-96 4219.83,-95.68 4222.72,-95.29 4225.64,-94.86"/>
<polygon fill="#63b8ff" stroke="#63b8ff" points="2504.42,-128.37 2494.89,-133.02 2505.24,-135.32 2504.42,-128.37"/>
</g>
<!-- Node36 -->
<g id="node36" class="node">
<title>Node36</title>
<g id="a_node36"><a xlink:href="d__msg__scrn__tree_8cpp.html" target="_top" xlink:title=" ">
<polygon fill="white" stroke="#666666" points="1492,-96 1376,-96 1376,-66 1492,-66 1492,-96"/>
<text text-anchor="start" x="1384" y="-84" font-family="Helvetica,sans-Serif" font-size="10.00">src/d/msg/d_msg_scrn</text>
<text text-anchor="middle" x="1434" y="-73" font-family="Helvetica,sans-Serif" font-size="10.00">_tree.cpp</text>
</a>
</g>
</g>
<!-- Node13&#45;&gt;Node36 -->
<g id="edge40" class="edge">
<title>Node13&#45;&gt;Node36</title>
<path fill="none" stroke="#63b8ff" d="M2371.45,-145.93C2217.56,-145 1825.45,-138.3 1501,-96 1498.17,-95.63 1495.29,-95.21 1492.38,-94.75"/>
<polygon fill="#63b8ff" stroke="#63b8ff" points="2371.02,-149.43 2381.04,-145.98 2371.05,-142.43 2371.02,-149.43"/>
</g>
<!-- Node37 -->
<g id="node37" class="node">
<title>Node37</title>
<g id="a_node37"><a xlink:href="d__s__play_8cpp.html" target="_top" xlink:title=" ">
<polygon fill="white" stroke="#666666" points="1616,-90.5 1510,-90.5 1510,-71.5 1616,-71.5 1616,-90.5"/>
<text text-anchor="middle" x="1563" y="-78.5" font-family="Helvetica,sans-Serif" font-size="10.00">src/d/s/d_s_play.cpp</text>
</a>
</g>
</g>
<!-- Node13&#45;&gt;Node37 -->
<g id="edge41" class="edge">
<title>Node13&#45;&gt;Node37</title>
<path fill="none" stroke="#63b8ff" d="M2371.71,-145.52C2232.62,-143.73 1900.4,-135.3 1625,-96 1616.26,-94.75 1606.93,-92.92 1598.23,-90.98"/>
<polygon fill="#63b8ff" stroke="#63b8ff" points="2371.42,-149.02 2381.46,-145.64 2371.5,-142.02 2371.42,-149.02"/>
</g>
<!-- Node38 -->
<g id="node38" class="node">
<title>Node38</title>
<g id="a_node38"><a xlink:href="d__shop__system_8cpp.html" target="_top" xlink:title=" ">
<polygon fill="white" stroke="#666666" points="1786,-90.5 1634,-90.5 1634,-71.5 1786,-71.5 1786,-90.5"/>
<text text-anchor="middle" x="1710" y="-78.5" font-family="Helvetica,sans-Serif" font-size="10.00">src/d/shop/d_shop_system.cpp</text>
</a>
</g>
</g>
<!-- Node13&#45;&gt;Node38 -->
<g id="edge42" class="edge">
<title>Node13&#45;&gt;Node38</title>
<path fill="none" stroke="#63b8ff" d="M2371.57,-142.71C2254.69,-136.51 2004.77,-121.38 1795,-96 1783.57,-94.62 1771.32,-92.8 1759.79,-90.93"/>
<polygon fill="#63b8ff" stroke="#63b8ff" points="2371.11,-146.2 2381.28,-143.22 2371.48,-139.2 2371.11,-146.2"/>
</g>
<!-- Node39 -->
<g id="node39" class="node">
<title>Node39</title>
<g id="a_node39"><a xlink:href="f__op__msg__mng_8cpp.html" target="_top" xlink:title=" ">
<polygon fill="white" stroke="#666666" points="1944,-90.5 1804,-90.5 1804,-71.5 1944,-71.5 1944,-90.5"/>
<text text-anchor="middle" x="1874" y="-78.5" font-family="Helvetica,sans-Serif" font-size="10.00">src/f_op/f_op_msg_mng.cpp</text>
</a>
</g>
</g>
<!-- Node13&#45;&gt;Node39 -->
<g id="edge43" class="edge">
<title>Node13&#45;&gt;Node39</title>
<path fill="none" stroke="#63b8ff" d="M2371.28,-140.67C2277.6,-132.83 2101.88,-116.84 1953,-96 1942.65,-94.55 1931.59,-92.75 1921.12,-90.93"/>
<polygon fill="#63b8ff" stroke="#63b8ff" points="2370.8,-144.14 2381.05,-141.48 2371.38,-137.16 2370.8,-144.14"/>
</g>
<!-- Node15 -->
<g id="node15" class="node">
<title>Node15</title>
<g id="a_node15"><a xlink:href="d__com__inf__game_8cpp.html" target="_top" xlink:title=" ">
<polygon fill="white" stroke="#666666" points="1883,-30 1775,-30 1775,0 1883,0 1883,-30"/>
<text text-anchor="start" x="1783" y="-18" font-family="Helvetica,sans-Serif" font-size="10.00">src/d/com/d_com_inf</text>
<text text-anchor="middle" x="1829" y="-7" font-family="Helvetica,sans-Serif" font-size="10.00">_game.cpp</text>
</a>
</g>
</g>
<!-- Node14&#45;&gt;Node15 -->
<g id="edge14" class="edge">
<title>Node14&#45;&gt;Node15</title>
<path fill="none" stroke="#63b8ff" d="M1975.21,-67.41C1945.01,-56.8 1901.79,-41.6 1870.17,-30.48"/>
<polygon fill="#63b8ff" stroke="#63b8ff" points="1973.67,-70.58 1984.27,-70.6 1975.99,-63.98 1973.67,-70.58"/>
</g>
<!-- Node16 -->
<g id="node16" class="node">
<title>Node16</title>
<g id="a_node16"><a xlink:href="d__timer_8cpp.html" target="_top" xlink:title=" ">
<polygon fill="white" stroke="#666666" points="1993,-24.5 1901,-24.5 1901,-5.5 1993,-5.5 1993,-24.5"/>
<text text-anchor="middle" x="1947" y="-12.5" font-family="Helvetica,sans-Serif" font-size="10.00">src/d/d_timer.cpp</text>
</a>
</g>
</g>
<!-- Node14&#45;&gt;Node16 -->
<g id="edge15" class="edge">
<title>Node14&#45;&gt;Node16</title>
<path fill="none" stroke="#63b8ff" d="M1993.98,-62.98C1981.7,-50.7 1965.63,-34.63 1955.82,-24.82"/>
<polygon fill="#63b8ff" stroke="#63b8ff" points="1991.48,-65.43 2001.03,-70.03 1996.43,-60.48 1991.48,-65.43"/>
</g>
<!-- Node17 -->
<g id="node17" class="node">
<title>Node17</title>
<g id="a_node17"><a xlink:href="d__meter2_8cpp.html" target="_top" xlink:title=" ">
<polygon fill="white" stroke="#666666" points="2139,-24.5 2011,-24.5 2011,-5.5 2139,-5.5 2139,-24.5"/>
<text text-anchor="middle" x="2075" y="-12.5" font-family="Helvetica,sans-Serif" font-size="10.00">src/d/meter/d_meter2.cpp</text>
</a>
</g>
</g>
<!-- Node14&#45;&gt;Node17 -->
<g id="edge16" class="edge">
<title>Node14&#45;&gt;Node17</title>
<path fill="none" stroke="#63b8ff" d="M2028.02,-62.98C2040.3,-50.7 2056.37,-34.63 2066.18,-24.82"/>
<polygon fill="#63b8ff" stroke="#63b8ff" points="2025.57,-60.48 2020.97,-70.03 2030.52,-65.43 2025.57,-60.48"/>
</g>
<!-- Node18 -->
<g id="node18" class="node">
<title>Node18</title>
<g id="a_node18"><a xlink:href="d__meter__string_8cpp.html" target="_top" xlink:title=" ">
<polygon fill="white" stroke="#666666" points="2261,-30 2157,-30 2157,0 2261,0 2261,-30"/>
<text text-anchor="start" x="2165" y="-18" font-family="Helvetica,sans-Serif" font-size="10.00">src/d/meter/d_meter</text>
<text text-anchor="middle" x="2209" y="-7" font-family="Helvetica,sans-Serif" font-size="10.00">_string.cpp</text>
</a>
</g>
</g>
<!-- Node14&#45;&gt;Node18 -->
<g id="edge17" class="edge">
<title>Node14&#45;&gt;Node18</title>
<path fill="none" stroke="#63b8ff" d="M2049.08,-67.69C2081.96,-57.06 2129.51,-41.69 2164.21,-30.48"/>
<polygon fill="#63b8ff" stroke="#63b8ff" points="2048.41,-64.23 2039.97,-70.64 2050.56,-70.89 2048.41,-64.23"/>
</g>
</g>
</svg>
        <g id="navigator" transform="translate(0 0)" fill="#404254">
                <rect fill="#f2f5e9" fill-opacity="0.5" stroke="#606060" stroke-width=".5" x="0" y="0" width="60" height="60"/>
                <use id="zoomplus" xlink:href="#zoomPlus" x="17" y="9" onmousedown="handleZoom(evt,'in')"/>
                <use id="zoomminus" xlink:href="#zoomMin" x="42" y="9" onmousedown="handleZoom(evt,'out')"/>
                <use id="reset" xlink:href="#resetDef" x="30" y="36" onmousedown="handleReset()"/>
                <g id="arrowUp" xlink:href="#dirArrow" transform="translate(30 24)" onmousedown="handlePan(0,-1)">
                  <use xlink:href="#rim" fill="#404040">
                        <set attributeName="fill" to="#808080" begin="arrowUp.mouseover" end="arrowUp.mouseout"/>
                  </use>
                  <path fill="none" stroke="white" stroke-width="1.5" d="M0,-3.0v7 M-2.5,-0.5L0,-3.0L2.5,-0.5"/>
                </g>
                <g id="arrowRight" xlink:href="#dirArrow" transform="rotate(90) translate(36 -43)" onmousedown="handlePan(1,0)">
                  <use xlink:href="#rim" fill="#404040">
                        <set attributeName="fill" to="#808080" begin="arrowRight.mouseover" end="arrowRight.mouseout"/>
                  </use>
                  <path fill="none" stroke="white" stroke-width="1.5" d="M0,-3.0v7 M-2.5,-0.5L0,-3.0L2.5,-0.5"/>
                </g>
                <g id="arrowDown" xlink:href="#dirArrow" transform="rotate(180) translate(-30 -48)" onmousedown="handlePan(0,1)">
                  <use xlink:href="#rim" fill="#404040">
                        <set attributeName="fill" to="#808080" begin="arrowDown.mouseover" end="arrowDown.mouseout"/>
                  </use>
                  <path fill="none" stroke="white" stroke-width="1.5" d="M0,-3.0v7 M-2.5,-0.5L0,-3.0L2.5,-0.5"/>
                </g>
                <g id="arrowLeft" xlink:href="#dirArrow" transform="rotate(270) translate(-36 17)" onmousedown="handlePan(-1,0)">
                  <use xlink:href="#rim" fill="#404040">
                        <set attributeName="fill" to="#808080" begin="arrowLeft.mouseover" end="arrowLeft.mouseout"/>
                  </use>
                  <path fill="none" stroke="white" stroke-width="1.5" d="M0,-3.0v7 M-2.5,-0.5L0,-3.0L2.5,-0.5"/>
                </g>
        </g>
        <svg viewBox="0 0 15 15" width="100%" height="30px" preserveAspectRatio="xMaxYMin meet">
         <g id="arrow_out" transform="scale(0.3 0.3)">
          <a xlink:href="processor_8h__dep__incl_org.svg" target="_base">
           <rect id="button" ry="5" rx="5" y="6" x="6" height="38" width="38"
                fill="#f2f5e9" fill-opacity="0.5" stroke="#606060" stroke-width="1.0"/>
           <path id="arrow"
             d="M 11.500037,31.436501 C 11.940474,20.09759 22.043105,11.32322 32.158766,21.979434 L 37.068811,17.246167 C 37.068811,17.246167 37.088388,32 37.088388,32 L 22.160133,31.978069 C 22.160133,31.978069 26.997745,27.140456 26.997745,27.140456 C 18.528582,18.264221 13.291696,25.230495 11.500037,31.436501 z"
             style="fill:#404040;"/>
          </a>
         </g>
        </svg>
</svg>
