<?xml version="1.0" encoding="UTF-8" standalone="no"?>
<!DOCTYPE svg PUBLIC "-//W3C//DTD SVG 1.1//EN"
 "http://www.w3.org/Graphics/SVG/1.1/DTD/svg11.dtd">
<!-- Generated by graphviz version 7.0.5 (20221223.1930)
 -->
<!-- Title: include/JSystem/JMessage/resource.h Pages: 1 -->
<!--zoomable 302 -->
<svg id="main" version="1.1" xmlns="http://www.w3.org/2000/svg" xmlns:xlink="http://www.w3.org/1999/xlink" xml:space="preserve" onload="init(evt)">
<style type="text/css"><![CDATA[
.edge:hover path { stroke: red; }
.edge:hover polygon { stroke: red; fill: red; }
]]></style>
<script type="text/javascript"><![CDATA[
var edges = document.getElementsByTagName('g');
if (edges && edges.length) {
  for (var i=0;i<edges.length;i++) {
    if (edges[i].id.substr(0,4)=='edge') {
      edges[i].setAttribute('class','edge');
    }
  }
}
]]></script>
        <defs>
                <circle id="rim" cx="0" cy="0" r="7"/>
                <circle id="rim2" cx="0" cy="0" r="3.5"/>
                <g id="zoomPlus">
                        <use xlink:href="#rim" fill="#404040">
                                <set attributeName="fill" to="#808080" begin="zoomplus.mouseover" end="zoomplus.mouseout"/>
                        </use>
                        <path d="M-4,0h8M0,-4v8" fill="none" stroke="white" stroke-width="1.5" pointer-events="none"/>
                </g>
                <g id="zoomMin">
                        <use xlink:href="#rim" fill="#404040">
                                <set attributeName="fill" to="#808080" begin="zoomminus.mouseover" end="zoomminus.mouseout"/>
                        </use>
                        <path d="M-4,0h8" fill="none" stroke="white" stroke-width="1.5" pointer-events="none"/>
                </g>
                <g id="dirArrow">
                        <path fill="none" stroke="white" stroke-width="1.5" d="M0,-3.0v7 M-2.5,-0.5L0,-3.0L2.5,-0.5"/>
                </g>
               <g id="resetDef">
                       <use xlink:href="#rim2" fill="#404040">
                               <set attributeName="fill" to="#808080" begin="reset.mouseover" end="reset.mouseout"/>
                       </use>
               </g>
        </defs>

<script type="text/javascript">
var viewWidth = 5798;
var viewHeight = 302;
var sectionId = 'dynsection-1';
</script>
<script xlink:href="svgpan.js"/>
<svg id="graph" class="graph">
<g id="viewport">
<title>include/JSystem/JMessage/resource.h</title>
<!-- Node1 -->
<g id="node1" class="node">
<title>Node1</title>
<g id="a_node1"><a xlink:title=" ">
<polygon fill="#999999" stroke="#666666" points="3521,-294 3384,-294 3384,-264 3521,-264 3521,-294"/>
<text text-anchor="start" x="3392" y="-282" font-family="Helvetica,sans-Serif" font-size="10.00">include/JSystem/JMessage</text>
<text text-anchor="middle" x="3452.5" y="-271" font-family="Helvetica,sans-Serif" font-size="10.00">/resource.h</text>
</a>
</g>
</g>
<!-- Node2 -->
<g id="node2" class="node">
<title>Node2</title>
<g id="a_node2"><a xlink:href="processor_8h.html" target="_top" xlink:title=" ">
<polygon fill="white" stroke="#666666" points="3318,-228 3181,-228 3181,-198 3318,-198 3318,-228"/>
<text text-anchor="start" x="3189" y="-216" font-family="Helvetica,sans-Serif" font-size="10.00">include/JSystem/JMessage</text>
<text text-anchor="middle" x="3249.5" y="-205" font-family="Helvetica,sans-Serif" font-size="10.00">/processor.h</text>
</a>
</g>
</g>
<!-- Node1&#45;&gt;Node2 -->
<g id="edge1" class="edge">
<title>Node1&#45;&gt;Node2</title>
<path fill="none" stroke="#63b8ff" d="M3395.78,-260.12C3364.01,-250.1 3324.92,-237.78 3295.14,-228.39"/>
<polygon fill="#63b8ff" stroke="#63b8ff" points="3394.66,-263.43 3405.25,-263.1 3396.76,-256.76 3394.66,-263.43"/>
</g>
<!-- Node43 -->
<g id="node38" class="node">
<title>Node43</title>
<g id="a_node38"><a xlink:href="d__msg__string__base_8h.html" target="_top" xlink:title=" ">
<polygon fill="white" stroke="#666666" points="3561.5,-162 3451.5,-162 3451.5,-132 3561.5,-132 3561.5,-162"/>
<text text-anchor="start" x="3459.5" y="-150" font-family="Helvetica,sans-Serif" font-size="10.00">include/d/msg/d_msg</text>
<text text-anchor="middle" x="3506.5" y="-139" font-family="Helvetica,sans-Serif" font-size="10.00">_string_base.h</text>
</a>
</g>
</g>
<!-- Node1&#45;&gt;Node43 -->
<g id="edge43" class="edge">
<title>Node1&#45;&gt;Node43</title>
<path fill="none" stroke="#63b8ff" d="M3456.52,-252.41C3459.62,-236.32 3464.71,-215.39 3472.5,-198 3478.25,-185.16 3487.3,-172.06 3494.61,-162.5"/>
<polygon fill="#63b8ff" stroke="#63b8ff" points="3453.09,-251.68 3454.79,-262.14 3459.99,-252.9 3453.09,-251.68"/>
</g>
<!-- Node56 -->
<g id="node50" class="node">
<title>Node56</title>
<g id="a_node50"><a xlink:href="resource_8cpp.html" target="_top" xlink:title=" ">
<polygon fill="white" stroke="#666666" points="3602,-228 3481,-228 3481,-198 3602,-198 3602,-228"/>
<text text-anchor="start" x="3489" y="-216" font-family="Helvetica,sans-Serif" font-size="10.00">libs/JSystem/JMessage</text>
<text text-anchor="middle" x="3541.5" y="-205" font-family="Helvetica,sans-Serif" font-size="10.00">/resource.cpp</text>
</a>
</g>
</g>
<!-- Node1&#45;&gt;Node56 -->
<g id="edge62" class="edge">
<title>Node1&#45;&gt;Node56</title>
<path fill="none" stroke="#63b8ff" d="M3481.36,-257.25C3494.47,-247.82 3509.66,-236.9 3521.5,-228.39"/>
<polygon fill="#63b8ff" stroke="#63b8ff" points="3479.56,-254.23 3473.48,-262.91 3483.64,-259.92 3479.56,-254.23"/>
</g>
<!-- Node3 -->
<g id="node3" class="node">
<title>Node3</title>
<g id="a_node3"><a xlink:href="JMessage_2control_8h.html" target="_top" xlink:title=" ">
<polygon fill="white" stroke="#666666" points="3184,-162 3047,-162 3047,-132 3184,-132 3184,-162"/>
<text text-anchor="start" x="3055" y="-150" font-family="Helvetica,sans-Serif" font-size="10.00">include/JSystem/JMessage</text>
<text text-anchor="middle" x="3115.5" y="-139" font-family="Helvetica,sans-Serif" font-size="10.00">/control.h</text>
</a>
</g>
</g>
<!-- Node2&#45;&gt;Node3 -->
<g id="edge2" class="edge">
<title>Node2&#45;&gt;Node3</title>
<path fill="none" stroke="#63b8ff" d="M3209.14,-192.72C3188.67,-182.95 3164.24,-171.28 3145.47,-162.31"/>
<polygon fill="#63b8ff" stroke="#63b8ff" points="3207.53,-195.83 3218.06,-196.98 3210.55,-189.52 3207.53,-195.83"/>
</g>
<!-- Node42 -->
<g id="node37" class="node">
<title>Node42</title>
<g id="a_node37"><a xlink:href="processor_8cpp.html" target="_top" xlink:title=" ">
<polygon fill="white" stroke="#666666" points="3310,-96 3189,-96 3189,-66 3310,-66 3310,-96"/>
<text text-anchor="start" x="3197" y="-84" font-family="Helvetica,sans-Serif" font-size="10.00">libs/JSystem/JMessage</text>
<text text-anchor="middle" x="3249.5" y="-73" font-family="Helvetica,sans-Serif" font-size="10.00">/processor.cpp</text>
</a>
</g>
</g>
<!-- Node2&#45;&gt;Node42 -->
<g id="edge42" class="edge">
<title>Node2&#45;&gt;Node42</title>
<path fill="none" stroke="#63b8ff" d="M3249.5,-186.38C3249.5,-159.49 3249.5,-118.18 3249.5,-96.47"/>
<polygon fill="#63b8ff" stroke="#63b8ff" points="3246,-186.08 3249.5,-196.08 3253,-186.08 3246,-186.08"/>
</g>
<!-- Node4 -->
<g id="node4" class="node">
<title>Node4</title>
<g id="a_node4"><a xlink:href="d__msg__class_8h.html" target="_top" xlink:title=" ">
<polygon fill="white" stroke="#666666" points="3170.5,-96 3060.5,-96 3060.5,-66 3170.5,-66 3170.5,-96"/>
<text text-anchor="start" x="3068.5" y="-84" font-family="Helvetica,sans-Serif" font-size="10.00">include/d/msg/d_msg</text>
<text text-anchor="middle" x="3115.5" y="-73" font-family="Helvetica,sans-Serif" font-size="10.00">_class.h</text>
</a>
</g>
</g>
<!-- Node3&#45;&gt;Node4 -->
<g id="edge3" class="edge">
<title>Node3&#45;&gt;Node4</title>
<path fill="none" stroke="#63b8ff" d="M3115.5,-120.39C3115.5,-112.13 3115.5,-103.28 3115.5,-96.16"/>
<polygon fill="#63b8ff" stroke="#63b8ff" points="3112,-120.28 3115.5,-130.28 3119,-120.28 3112,-120.28"/>
</g>
<!-- Node14 -->
<g id="node14" class="node">
<title>Node14</title>
<g id="a_node14"><a xlink:href="d__msg__object_8h.html" target="_top" xlink:title=" ">
<polygon fill="#fff0f0" stroke="red" points="1983.5,-96 1873.5,-96 1873.5,-66 1983.5,-66 1983.5,-96"/>
<text text-anchor="start" x="1881.5" y="-84" font-family="Helvetica,sans-Serif" font-size="10.00">include/d/msg/d_msg</text>
<text text-anchor="middle" x="1928.5" y="-73" font-family="Helvetica,sans-Serif" font-size="10.00">_object.h</text>
</a>
</g>
</g>
<!-- Node3&#45;&gt;Node14 -->
<g id="edge13" class="edge">
<title>Node3&#45;&gt;Node14</title>
<path fill="none" stroke="#63b8ff" d="M3035.17,-141.67C2809.73,-129.51 2175.2,-95.3 1983.82,-84.98"/>
<polygon fill="#63b8ff" stroke="#63b8ff" points="3034.87,-145.16 3045.04,-142.2 3035.24,-138.17 3034.87,-145.16"/>
</g>
<!-- Node41 -->
<g id="node36" class="node">
<title>Node41</title>
<g id="a_node36"><a xlink:href="JMessage_2control_8cpp.html" target="_top" xlink:title=" ">
<polygon fill="white" stroke="#666666" points="1855,-96 1734,-96 1734,-66 1855,-66 1855,-96"/>
<text text-anchor="start" x="1742" y="-84" font-family="Helvetica,sans-Serif" font-size="10.00">libs/JSystem/JMessage</text>
<text text-anchor="middle" x="1794.5" y="-73" font-family="Helvetica,sans-Serif" font-size="10.00">/control.cpp</text>
</a>
</g>
</g>
<!-- Node3&#45;&gt;Node41 -->
<g id="edge40" class="edge">
<title>Node3&#45;&gt;Node41</title>
<path fill="none" stroke="#63b8ff" d="M3035.22,-144.45C2796.33,-139.56 2092.52,-123.19 1864.5,-96 1861.55,-95.65 1858.53,-95.24 1855.49,-94.79"/>
<polygon fill="#63b8ff" stroke="#63b8ff" points="3034.99,-147.94 3045.06,-144.65 3035.14,-140.94 3034.99,-147.94"/>
</g>
<!-- Node3&#45;&gt;Node42 -->
<g id="edge41" class="edge">
<title>Node3&#45;&gt;Node42</title>
<path fill="none" stroke="#63b8ff" d="M3155.86,-126.72C3176.33,-116.95 3200.76,-105.28 3219.53,-96.31"/>
<polygon fill="#63b8ff" stroke="#63b8ff" points="3154.45,-123.52 3146.94,-130.98 3157.47,-129.83 3154.45,-123.52"/>
</g>
<!-- Node5 -->
<g id="node5" class="node">
<title>Node5</title>
<g id="a_node5"><a xlink:href="d__menu__collect_8cpp.html" target="_top" xlink:title=" ">
<polygon fill="white" stroke="#666666" points="3305,-24.5 3150,-24.5 3150,-5.5 3305,-5.5 3305,-24.5"/>
<text text-anchor="middle" x="3227.5" y="-12.5" font-family="Helvetica,sans-Serif" font-size="10.00">src/d/menu/d_menu_collect.cpp</text>
</a>
</g>
</g>
<!-- Node4&#45;&gt;Node5 -->
<g id="edge4" class="edge">
<title>Node4&#45;&gt;Node5</title>
<path fill="none" stroke="#63b8ff" d="M3150.59,-59.95C3171.1,-48.23 3195.98,-34.01 3211.77,-24.99"/>
<polygon fill="#63b8ff" stroke="#63b8ff" points="3148.9,-56.89 3141.95,-64.89 3152.37,-62.96 3148.9,-56.89"/>
</g>
<!-- Node6 -->
<g id="node6" class="node">
<title>Node6</title>
<g id="a_node6"><a xlink:href="d__menu__item__explain_8cpp.html" target="_top" xlink:title=" ">
<polygon fill="white" stroke="#666666" points="3847,-30 3720,-30 3720,0 3847,0 3847,-30"/>
<text text-anchor="start" x="3728" y="-18" font-family="Helvetica,sans-Serif" font-size="10.00">src/d/menu/d_menu_item</text>
<text text-anchor="middle" x="3783.5" y="-7" font-family="Helvetica,sans-Serif" font-size="10.00">_explain.cpp</text>
</a>
</g>
</g>
<!-- Node4&#45;&gt;Node6 -->
<g id="edge5" class="edge">
<title>Node4&#45;&gt;Node6</title>
<path fill="none" stroke="#63b8ff" d="M3182.16,-65.77C3415.66,-33.49 3479.58,-59.86 3710.5,-30 3713.57,-29.6 3716.71,-29.16 3719.87,-28.68"/>
<polygon fill="#63b8ff" stroke="#63b8ff" points="3181.83,-62.28 3172.41,-67.14 3182.8,-69.22 3181.83,-62.28"/>
</g>
<!-- Node7 -->
<g id="node7" class="node">
<title>Node7</title>
<g id="a_node7"><a xlink:href="d__menu__letter_8cpp.html" target="_top" xlink:title=" ">
<polygon fill="white" stroke="#666666" points="4013.5,-24.5 3865.5,-24.5 3865.5,-5.5 4013.5,-5.5 4013.5,-24.5"/>
<text text-anchor="middle" x="3939.5" y="-12.5" font-family="Helvetica,sans-Serif" font-size="10.00">src/d/menu/d_menu_letter.cpp</text>
</a>
</g>
</g>
<!-- Node4&#45;&gt;Node7 -->
<g id="edge6" class="edge">
<title>Node4&#45;&gt;Node7</title>
<path fill="none" stroke="#63b8ff" d="M3182.05,-65.81C3480.06,-26.58 3560.67,-62.71 3856.5,-30 3868.12,-28.72 3880.58,-26.87 3892.23,-24.93"/>
<polygon fill="#63b8ff" stroke="#63b8ff" points="3181.85,-62.31 3172.41,-67.1 3182.78,-69.25 3181.85,-62.31"/>
</g>
<!-- Node8 -->
<g id="node8" class="node">
<title>Node8</title>
<g id="a_node8"><a xlink:href="d__menu__option_8cpp.html" target="_top" xlink:title=" ">
<polygon fill="white" stroke="#666666" points="4183.5,-24.5 4031.5,-24.5 4031.5,-5.5 4183.5,-5.5 4183.5,-24.5"/>
<text text-anchor="middle" x="4107.5" y="-12.5" font-family="Helvetica,sans-Serif" font-size="10.00">src/d/menu/d_menu_option.cpp</text>
</a>
</g>
</g>
<!-- Node4&#45;&gt;Node8 -->
<g id="edge7" class="edge">
<title>Node4&#45;&gt;Node8</title>
<path fill="none" stroke="#63b8ff" d="M3182.24,-65.81C3553.38,-18.76 3653.21,-68.16 4022.5,-30 4034.55,-28.75 4047.48,-26.9 4059.54,-24.94"/>
<polygon fill="#63b8ff" stroke="#63b8ff" points="3181.87,-62.33 3172.4,-67.08 3182.77,-69.27 3181.87,-62.33"/>
</g>
<!-- Node9 -->
<g id="node9" class="node">
<title>Node9</title>
<g id="a_node9"><a xlink:href="d__meter2__draw_8cpp.html" target="_top" xlink:title=" ">
<polygon fill="white" stroke="#666666" points="2974.5,-30 2864.5,-30 2864.5,0 2974.5,0 2974.5,-30"/>
<text text-anchor="start" x="2872.5" y="-18" font-family="Helvetica,sans-Serif" font-size="10.00">src/d/meter/d_meter2</text>
<text text-anchor="middle" x="2919.5" y="-7" font-family="Helvetica,sans-Serif" font-size="10.00">_draw.cpp</text>
</a>
</g>
</g>
<!-- Node4&#45;&gt;Node9 -->
<g id="edge8" class="edge">
<title>Node4&#45;&gt;Node9</title>
<path fill="none" stroke="#63b8ff" d="M3060.58,-62.07C3029.98,-52.07 2992.37,-39.79 2963.68,-30.43"/>
<polygon fill="#63b8ff" stroke="#63b8ff" points="3059.48,-65.39 3070.07,-65.17 3061.66,-58.74 3059.48,-65.39"/>
</g>
<!-- Node10 -->
<g id="node10" class="node">
<title>Node10</title>
<g id="a_node10"><a xlink:href="d__msg__class_8cpp.html" target="_top" xlink:title=" ">
<polygon fill="white" stroke="#666666" points="3132,-24.5 2993,-24.5 2993,-5.5 3132,-5.5 3132,-24.5"/>
<text text-anchor="middle" x="3062.5" y="-12.5" font-family="Helvetica,sans-Serif" font-size="10.00">src/d/msg/d_msg_class.cpp</text>
</a>
</g>
</g>
<!-- Node4&#45;&gt;Node10 -->
<g id="edge9" class="edge">
<title>Node4&#45;&gt;Node10</title>
<path fill="none" stroke="#63b8ff" d="M3096.41,-56.95C3087.19,-45.81 3076.67,-33.11 3069.82,-24.84"/>
<polygon fill="#63b8ff" stroke="#63b8ff" points="3093.7,-59.16 3102.77,-64.63 3099.09,-54.7 3093.7,-59.16"/>
</g>
<!-- Node11 -->
<g id="node11" class="node">
<title>Node11</title>
<g id="a_node11"><a xlink:href="d__msg__object_8cpp.html" target="_top" xlink:title=" ">
<polygon fill="white" stroke="#666666" points="2712.5,-24.5 2570.5,-24.5 2570.5,-5.5 2712.5,-5.5 2712.5,-24.5"/>
<text text-anchor="middle" x="2641.5" y="-12.5" font-family="Helvetica,sans-Serif" font-size="10.00">src/d/msg/d_msg_object.cpp</text>
</a>
</g>
</g>
<!-- Node4&#45;&gt;Node11 -->
<g id="edge10" class="edge">
<title>Node4&#45;&gt;Node11</title>
<path fill="none" stroke="#63b8ff" d="M3049.09,-72.54C2970.67,-63.5 2836.36,-47.33 2721.5,-30 2711.46,-28.49 2700.74,-26.72 2690.52,-24.95"/>
<polygon fill="#63b8ff" stroke="#63b8ff" points="3048.41,-75.98 3058.74,-73.65 3049.21,-69.03 3048.41,-75.98"/>
</g>
<!-- Node12 -->
<g id="node12" class="node">
<title>Node12</title>
<g id="a_node12"><a xlink:href="d__msg__scrn__howl_8cpp.html" target="_top" xlink:title=" ">
<polygon fill="white" stroke="#666666" points="2846.5,-30 2730.5,-30 2730.5,0 2846.5,0 2846.5,-30"/>
<text text-anchor="start" x="2738.5" y="-18" font-family="Helvetica,sans-Serif" font-size="10.00">src/d/msg/d_msg_scrn</text>
<text text-anchor="middle" x="2788.5" y="-7" font-family="Helvetica,sans-Serif" font-size="10.00">_howl.cpp</text>
</a>
</g>
</g>
<!-- Node4&#45;&gt;Node12 -->
<g id="edge11" class="edge">
<title>Node4&#45;&gt;Node12</title>
<path fill="none" stroke="#63b8ff" d="M3048.97,-67.51C2996.41,-57.57 2921.21,-43.18 2855.5,-30 2852.7,-29.44 2849.84,-28.86 2846.95,-28.27"/>
<polygon fill="#63b8ff" stroke="#63b8ff" points="3048.2,-70.93 3058.68,-69.34 3049.5,-64.05 3048.2,-70.93"/>
</g>
<!-- Node13 -->
<g id="node13" class="node">
<title>Node13</title>
<g id="a_node13"><a xlink:href="d__msg__string__base_8cpp.html" target="_top" xlink:title=" ">
<polygon fill="white" stroke="#666666" points="3567.5,-30 3445.5,-30 3445.5,0 3567.5,0 3567.5,-30"/>
<text text-anchor="start" x="3453.5" y="-18" font-family="Helvetica,sans-Serif" font-size="10.00">src/d/msg/d_msg_string</text>
<text text-anchor="middle" x="3506.5" y="-7" font-family="Helvetica,sans-Serif" font-size="10.00">_base.cpp</text>
</a>
</g>
</g>
<!-- Node4&#45;&gt;Node13 -->
<g id="edge12" class="edge">
<title>Node4&#45;&gt;Node13</title>
<path fill="none" stroke="#63b8ff" d="M3182.13,-65.62C3294.97,-45.87 3326.35,-48.71 3436.5,-30 3439.31,-29.52 3442.18,-29.02 3445.08,-28.49"/>
<polygon fill="#63b8ff" stroke="#63b8ff" points="3181.68,-62.14 3172.44,-67.33 3182.9,-69.03 3181.68,-62.14"/>
</g>
<!-- Node14&#45;&gt;Node5 -->
<g id="edge21" class="edge">
<title>Node14&#45;&gt;Node5</title>
<path fill="none" stroke="#63b8ff" d="M1995.25,-80.01C2178.62,-79.45 2705.36,-73.83 3140.5,-30 3152.83,-28.76 3166.07,-26.9 3178.4,-24.94"/>
<polygon fill="#63b8ff" stroke="#63b8ff" points="1995.44,-76.51 1985.44,-80.04 1995.45,-83.51 1995.44,-76.51"/>
</g>
<!-- Node14&#45;&gt;Node9 -->
<g id="edge23" class="edge">
<title>Node14&#45;&gt;Node9</title>
<path fill="none" stroke="#63b8ff" d="M1995.38,-80.08C2148.39,-79.47 2535.43,-73.35 2855.5,-30 2858.32,-29.62 2861.2,-29.18 2864.09,-28.69"/>
<polygon fill="#63b8ff" stroke="#63b8ff" points="1995.41,-76.58 1985.42,-80.12 1995.43,-83.58 1995.41,-76.58"/>
</g>
<!-- Node14&#45;&gt;Node10 -->
<g id="edge26" class="edge">
<title>Node14&#45;&gt;Node10</title>
<path fill="none" stroke="#63b8ff" d="M1994.94,-79.8C2161.73,-78.65 2611.42,-71.61 2983.5,-30 2994.57,-28.76 3006.44,-26.93 3017.53,-25"/>
<polygon fill="#63b8ff" stroke="#63b8ff" points="1995.38,-76.3 1985.41,-79.86 1995.43,-83.3 1995.38,-76.3"/>
</g>
<!-- Node14&#45;&gt;Node11 -->
<g id="edge28" class="edge">
<title>Node14&#45;&gt;Node11</title>
<path fill="none" stroke="#63b8ff" d="M1995.05,-76.76C2110.48,-70.68 2355.15,-55.81 2560.5,-30 2571.4,-28.63 2583.07,-26.82 2594.07,-24.95"/>
<polygon fill="#63b8ff" stroke="#63b8ff" points="1994.94,-73.26 1985.13,-77.27 1995.3,-80.25 1994.94,-73.26"/>
</g>
<!-- Node14&#45;&gt;Node12 -->
<g id="edge33" class="edge">
<title>Node14&#45;&gt;Node12</title>
<path fill="none" stroke="#63b8ff" d="M1995.04,-79.01C2131.74,-76.28 2453.85,-66.21 2721.5,-30 2724.33,-29.62 2727.21,-29.18 2730.12,-28.71"/>
<polygon fill="#63b8ff" stroke="#63b8ff" points="1995.01,-75.51 1985.08,-79.2 1995.15,-82.51 1995.01,-75.51"/>
</g>
<!-- Node15 -->
<g id="node15" class="node">
<title>Node15</title>
<g id="a_node15"><a xlink:href="d__timer_8h.html" target="_top" xlink:title=" ">
<polygon fill="#fff0f0" stroke="red" points="2050.5,-24.5 1952.5,-24.5 1952.5,-5.5 2050.5,-5.5 2050.5,-24.5"/>
<text text-anchor="middle" x="2001.5" y="-12.5" font-family="Helvetica,sans-Serif" font-size="10.00">include/d/d_timer.h</text>
</a>
</g>
</g>
<!-- Node14&#45;&gt;Node15 -->
<g id="edge14" class="edge">
<title>Node14&#45;&gt;Node15</title>
<path fill="none" stroke="#63b8ff" d="M1953.28,-58.27C1966.33,-46.84 1981.61,-33.44 1991.41,-24.84"/>
<polygon fill="#63b8ff" stroke="#63b8ff" points="1951.05,-55.57 1945.84,-64.8 1955.67,-60.84 1951.05,-55.57"/>
</g>
<!-- Node20 -->
<g id="node16" class="node">
<title>Node20</title>
<g id="a_node16"><a xlink:href="d__a__alink_8cpp.html" target="_top" xlink:title=" ">
<polygon fill="white" stroke="#666666" points="2178,-24.5 2069,-24.5 2069,-5.5 2178,-5.5 2178,-24.5"/>
<text text-anchor="middle" x="2123.5" y="-12.5" font-family="Helvetica,sans-Serif" font-size="10.00">src/d/a/d_a_alink.cpp</text>
</a>
</g>
</g>
<!-- Node14&#45;&gt;Node20 -->
<g id="edge15" class="edge">
<title>Node14&#45;&gt;Node20</title>
<path fill="none" stroke="#63b8ff" d="M1982.85,-62.16C2019.7,-50.07 2066.86,-34.59 2096.12,-24.99"/>
<polygon fill="#63b8ff" stroke="#63b8ff" points="1982.11,-58.72 1973.7,-65.17 1984.29,-65.37 1982.11,-58.72"/>
</g>
<!-- Node21 -->
<g id="node17" class="node">
<title>Node21</title>
<g id="a_node17"><a xlink:href="d__a__npc_8cpp.html" target="_top" xlink:title=" ">
<polygon fill="white" stroke="#666666" points="2300.5,-24.5 2196.5,-24.5 2196.5,-5.5 2300.5,-5.5 2300.5,-24.5"/>
<text text-anchor="middle" x="2248.5" y="-12.5" font-family="Helvetica,sans-Serif" font-size="10.00">src/d/a/d_a_npc.cpp</text>
</a>
</g>
</g>
<!-- Node14&#45;&gt;Node21 -->
<g id="edge16" class="edge">
<title>Node14&#45;&gt;Node21</title>
<path fill="none" stroke="#63b8ff" d="M1995.07,-67.68C2047.24,-57.88 2121.6,-43.61 2186.5,-30 2193.95,-28.44 2201.89,-26.7 2209.51,-25"/>
<polygon fill="#63b8ff" stroke="#63b8ff" points="1994.63,-64.2 1985.45,-69.48 1995.92,-71.08 1994.63,-64.2"/>
</g>
<!-- Node22 -->
<g id="node18" class="node">
<title>Node22</title>
<g id="a_node18"><a xlink:href="d__demo_8cpp.html" target="_top" xlink:title=" ">
<polygon fill="white" stroke="#666666" points="2412.5,-24.5 2318.5,-24.5 2318.5,-5.5 2412.5,-5.5 2412.5,-24.5"/>
<text text-anchor="middle" x="2365.5" y="-12.5" font-family="Helvetica,sans-Serif" font-size="10.00">src/d/d_demo.cpp</text>
</a>
</g>
</g>
<!-- Node14&#45;&gt;Node22 -->
<g id="edge17" class="edge">
<title>Node14&#45;&gt;Node22</title>
<path fill="none" stroke="#63b8ff" d="M1995.04,-73.6C2071.37,-65.72 2200.09,-50.78 2309.5,-30 2316.88,-28.6 2324.75,-26.81 2332.18,-25"/>
<polygon fill="#63b8ff" stroke="#63b8ff" points="1994.8,-70.11 1985.21,-74.61 1995.52,-77.07 1994.8,-70.11"/>
</g>
<!-- Node23 -->
<g id="node19" class="node">
<title>Node23</title>
<g id="a_node19"><a xlink:href="d__event_8cpp.html" target="_top" xlink:title=" ">
<polygon fill="white" stroke="#666666" points="2552,-24.5 2431,-24.5 2431,-5.5 2552,-5.5 2552,-24.5"/>
<text text-anchor="middle" x="2491.5" y="-12.5" font-family="Helvetica,sans-Serif" font-size="10.00">src/d/event/d_event.cpp</text>
</a>
</g>
</g>
<!-- Node14&#45;&gt;Node23 -->
<g id="edge18" class="edge">
<title>Node14&#45;&gt;Node23</title>
<path fill="none" stroke="#63b8ff" d="M1995.24,-75.28C2090.25,-68.1 2269.8,-52.81 2421.5,-30 2430.81,-28.6 2440.77,-26.8 2450.16,-24.95"/>
<polygon fill="#63b8ff" stroke="#63b8ff" points="1995.02,-71.79 1985.31,-76.03 1995.54,-78.77 1995.02,-71.79"/>
</g>
<!-- Node24 -->
<g id="node20" class="node">
<title>Node24</title>
<g id="a_node20"><a xlink:href="d__event__data_8cpp.html" target="_top" xlink:title=" ">
<polygon fill="white" stroke="#666666" points="103,-30 0,-30 0,0 103,0 103,-30"/>
<text text-anchor="start" x="8" y="-18" font-family="Helvetica,sans-Serif" font-size="10.00">src/d/event/d_event</text>
<text text-anchor="middle" x="51.5" y="-7" font-family="Helvetica,sans-Serif" font-size="10.00">_data.cpp</text>
</a>
</g>
</g>
<!-- Node14&#45;&gt;Node24 -->
<g id="edge19" class="edge">
<title>Node14&#45;&gt;Node24</title>
<path fill="none" stroke="#63b8ff" d="M1861.87,-66.03C1088.36,22.9 881.23,-125.09 112.5,-30 109.48,-29.63 106.39,-29.17 103.29,-28.65"/>
<polygon fill="#63b8ff" stroke="#63b8ff" points="1861.46,-69.51 1871.8,-67.18 1862.27,-62.55 1861.46,-69.51"/>
</g>
<!-- Node25 -->
<g id="node21" class="node">
<title>Node25</title>
<g id="a_node21"><a xlink:href="d__kankyo_8cpp.html" target="_top" xlink:title=" ">
<polygon fill="white" stroke="#666666" points="1756.5,-24.5 1622.5,-24.5 1622.5,-5.5 1756.5,-5.5 1756.5,-24.5"/>
<text text-anchor="middle" x="1689.5" y="-12.5" font-family="Helvetica,sans-Serif" font-size="10.00">src/d/kankyo/d_kankyo.cpp</text>
</a>
</g>
</g>
<!-- Node14&#45;&gt;Node25 -->
<g id="edge20" class="edge">
<title>Node14&#45;&gt;Node25</title>
<path fill="none" stroke="#63b8ff" d="M1863.62,-62.63C1818.17,-50.46 1759.29,-34.69 1722.97,-24.96"/>
<polygon fill="#63b8ff" stroke="#63b8ff" points="1862.54,-65.96 1873.1,-65.17 1864.35,-59.2 1862.54,-65.96"/>
</g>
<!-- Node26 -->
<g id="node22" class="node">
<title>Node26</title>
<g id="a_node22"><a xlink:href="d__menu__window_8cpp.html" target="_top" xlink:title=" ">
<polygon fill="white" stroke="#666666" points="1934,-24.5 1775,-24.5 1775,-5.5 1934,-5.5 1934,-24.5"/>
<text text-anchor="middle" x="1854.5" y="-12.5" font-family="Helvetica,sans-Serif" font-size="10.00">src/d/menu/d_menu_window.cpp</text>
</a>
</g>
</g>
<!-- Node14&#45;&gt;Node26 -->
<g id="edge22" class="edge">
<title>Node14&#45;&gt;Node26</title>
<path fill="none" stroke="#63b8ff" d="M1903.38,-58.27C1890.16,-46.84 1874.67,-33.44 1864.73,-24.84"/>
<polygon fill="#63b8ff" stroke="#63b8ff" points="1901.08,-60.91 1910.93,-64.81 1905.66,-55.62 1901.08,-60.91"/>
</g>
<!-- Node27 -->
<g id="node23" class="node">
<title>Node27</title>
<g id="a_node23"><a xlink:href="d__meter__button_8cpp.html" target="_top" xlink:title=" ">
<polygon fill="white" stroke="#666666" points="3427.5,-30 3323.5,-30 3323.5,0 3427.5,0 3427.5,-30"/>
<text text-anchor="start" x="3331.5" y="-18" font-family="Helvetica,sans-Serif" font-size="10.00">src/d/meter/d_meter</text>
<text text-anchor="middle" x="3375.5" y="-7" font-family="Helvetica,sans-Serif" font-size="10.00">_button.cpp</text>
</a>
</g>
</g>
<!-- Node14&#45;&gt;Node27 -->
<g id="edge24" class="edge">
<title>Node14&#45;&gt;Node27</title>
<path fill="none" stroke="#63b8ff" d="M1995.29,-79.27C2235.48,-76.37 3054.81,-64.17 3314.5,-30 3317.3,-29.63 3320.16,-29.19 3323.04,-28.7"/>
<polygon fill="#63b8ff" stroke="#63b8ff" points="1995.43,-75.77 1985.48,-79.38 1995.52,-82.77 1995.43,-75.77"/>
</g>
<!-- Node28 -->
<g id="node24" class="node">
<title>Node28</title>
<g id="a_node24"><a xlink:href="d__meter__map_8cpp.html" target="_top" xlink:title=" ">
<polygon fill="white" stroke="#666666" points="225.5,-30 121.5,-30 121.5,0 225.5,0 225.5,-30"/>
<text text-anchor="start" x="129.5" y="-18" font-family="Helvetica,sans-Serif" font-size="10.00">src/d/meter/d_meter</text>
<text text-anchor="middle" x="173.5" y="-7" font-family="Helvetica,sans-Serif" font-size="10.00">_map.cpp</text>
</a>
</g>
</g>
<!-- Node14&#45;&gt;Node28 -->
<g id="edge25" class="edge">
<title>Node14&#45;&gt;Node28</title>
<path fill="none" stroke="#63b8ff" d="M1861.87,-66.03C1142.26,17.18 949.36,-118.99 234.5,-30 231.7,-29.65 228.83,-29.23 225.95,-28.75"/>
<polygon fill="#63b8ff" stroke="#63b8ff" points="1861.46,-69.51 1871.8,-67.19 1862.27,-62.55 1861.46,-69.51"/>
</g>
<!-- Node29 -->
<g id="node25" class="node">
<title>Node29</title>
<g id="a_node25"><a xlink:href="d__msg__flow_8cpp.html" target="_top" xlink:title=" ">
<polygon fill="white" stroke="#666666" points="377,-24.5 244,-24.5 244,-5.5 377,-5.5 377,-24.5"/>
<text text-anchor="middle" x="310.5" y="-12.5" font-family="Helvetica,sans-Serif" font-size="10.00">src/d/msg/d_msg_flow.cpp</text>
</a>
</g>
</g>
<!-- Node14&#45;&gt;Node29 -->
<g id="edge27" class="edge">
<title>Node14&#45;&gt;Node29</title>
<path fill="none" stroke="#63b8ff" d="M1862.19,-66.06C1209.06,10.29 1035.33,-98.12 385.5,-30 374.57,-28.85 362.84,-26.98 351.98,-24.97"/>
<polygon fill="#63b8ff" stroke="#63b8ff" points="1861.46,-69.5 1871.8,-67.2 1862.28,-62.55 1861.46,-69.5"/>
</g>
<!-- Node30 -->
<g id="node26" class="node">
<title>Node30</title>
<g id="a_node26"><a xlink:href="d__msg__out__font_8cpp.html" target="_top" xlink:title=" ">
<polygon fill="white" stroke="#666666" points="506,-30 395,-30 395,0 506,0 506,-30"/>
<text text-anchor="start" x="403" y="-18" font-family="Helvetica,sans-Serif" font-size="10.00">src/d/msg/d_msg_out</text>
<text text-anchor="middle" x="450.5" y="-7" font-family="Helvetica,sans-Serif" font-size="10.00">_font.cpp</text>
</a>
</g>
</g>
<!-- Node14&#45;&gt;Node30 -->
<g id="edge29" class="edge">
<title>Node14&#45;&gt;Node30</title>
<path fill="none" stroke="#63b8ff" d="M1862.27,-66.07C1266.5,4.11 1106.92,-100.97 515.5,-30 512.52,-29.64 509.47,-29.21 506.41,-28.73"/>
<polygon fill="#63b8ff" stroke="#63b8ff" points="1861.45,-69.5 1871.8,-67.2 1862.28,-62.55 1861.45,-69.5"/>
</g>
<!-- Node31 -->
<g id="node27" class="node">
<title>Node31</title>
<g id="a_node27"><a xlink:href="d__msg__scrn__base_8cpp.html" target="_top" xlink:title=" ">
<polygon fill="white" stroke="#666666" points="640.5,-30 524.5,-30 524.5,0 640.5,0 640.5,-30"/>
<text text-anchor="start" x="532.5" y="-18" font-family="Helvetica,sans-Serif" font-size="10.00">src/d/msg/d_msg_scrn</text>
<text text-anchor="middle" x="582.5" y="-7" font-family="Helvetica,sans-Serif" font-size="10.00">_base.cpp</text>
</a>
</g>
</g>
<!-- Node14&#45;&gt;Node31 -->
<g id="edge30" class="edge">
<title>Node14&#45;&gt;Node31</title>
<path fill="none" stroke="#63b8ff" d="M1862.16,-66.05C1325.69,-2.16 1181.89,-93.02 649.5,-30 646.67,-29.66 643.78,-29.27 640.87,-28.83"/>
<polygon fill="#63b8ff" stroke="#63b8ff" points="1861.45,-69.49 1871.8,-67.21 1862.29,-62.54 1861.45,-69.49"/>
</g>
<!-- Node32 -->
<g id="node28" class="node">
<title>Node32</title>
<g id="a_node28"><a xlink:href="d__msg__scrn__boss_8cpp.html" target="_top" xlink:title=" ">
<polygon fill="white" stroke="#666666" points="774.5,-30 658.5,-30 658.5,0 774.5,0 774.5,-30"/>
<text text-anchor="start" x="666.5" y="-18" font-family="Helvetica,sans-Serif" font-size="10.00">src/d/msg/d_msg_scrn</text>
<text text-anchor="middle" x="716.5" y="-7" font-family="Helvetica,sans-Serif" font-size="10.00">_boss.cpp</text>
</a>
</g>
</g>
<!-- Node14&#45;&gt;Node32 -->
<g id="edge31" class="edge">
<title>Node14&#45;&gt;Node32</title>
<path fill="none" stroke="#63b8ff" d="M1861.96,-66.02C1384.85,-8.45 1256.61,-86.88 783.5,-30 780.67,-29.66 777.78,-29.26 774.87,-28.82"/>
<polygon fill="#63b8ff" stroke="#63b8ff" points="1861.44,-69.48 1871.79,-67.22 1862.29,-62.54 1861.44,-69.48"/>
</g>
<!-- Node33 -->
<g id="node29" class="node">
<title>Node33</title>
<g id="a_node29"><a xlink:href="d__msg__scrn__explain_8cpp.html" target="_top" xlink:title=" ">
<polygon fill="white" stroke="#666666" points="3701.5,-30 3585.5,-30 3585.5,0 3701.5,0 3701.5,-30"/>
<text text-anchor="start" x="3593.5" y="-18" font-family="Helvetica,sans-Serif" font-size="10.00">src/d/msg/d_msg_scrn</text>
<text text-anchor="middle" x="3643.5" y="-7" font-family="Helvetica,sans-Serif" font-size="10.00">_explain.cpp</text>
</a>
</g>
</g>
<!-- Node14&#45;&gt;Node33 -->
<g id="edge32" class="edge">
<title>Node14&#45;&gt;Node33</title>
<path fill="none" stroke="#63b8ff" d="M1995.45,-79.54C2263.87,-77.44 3262.63,-67.26 3576.5,-30 3579.33,-29.66 3582.22,-29.27 3585.13,-28.83"/>
<polygon fill="#63b8ff" stroke="#63b8ff" points="1995.46,-76.04 1985.48,-79.61 1995.51,-83.04 1995.46,-76.04"/>
</g>
<!-- Node34 -->
<g id="node30" class="node">
<title>Node34</title>
<g id="a_node30"><a xlink:href="d__msg__scrn__kanban_8cpp.html" target="_top" xlink:title=" ">
<polygon fill="white" stroke="#666666" points="908.5,-30 792.5,-30 792.5,0 908.5,0 908.5,-30"/>
<text text-anchor="start" x="800.5" y="-18" font-family="Helvetica,sans-Serif" font-size="10.00">src/d/msg/d_msg_scrn</text>
<text text-anchor="middle" x="850.5" y="-7" font-family="Helvetica,sans-Serif" font-size="10.00">_kanban.cpp</text>
</a>
</g>
</g>
<!-- Node14&#45;&gt;Node34 -->
<g id="edge34" class="edge">
<title>Node14&#45;&gt;Node34</title>
<path fill="none" stroke="#63b8ff" d="M1862.1,-66.03C1444.07,-14.69 1331.45,-80.76 917.5,-30 914.67,-29.65 911.78,-29.25 908.87,-28.8"/>
<polygon fill="#63b8ff" stroke="#63b8ff" points="1861.44,-69.48 1871.79,-67.24 1862.3,-62.53 1861.44,-69.48"/>
</g>
<!-- Node35 -->
<g id="node31" class="node">
<title>Node35</title>
<g id="a_node31"><a xlink:href="d__msg__scrn__place_8cpp.html" target="_top" xlink:title=" ">
<polygon fill="white" stroke="#666666" points="1042.5,-30 926.5,-30 926.5,0 1042.5,0 1042.5,-30"/>
<text text-anchor="start" x="934.5" y="-18" font-family="Helvetica,sans-Serif" font-size="10.00">src/d/msg/d_msg_scrn</text>
<text text-anchor="middle" x="984.5" y="-7" font-family="Helvetica,sans-Serif" font-size="10.00">_place.cpp</text>
</a>
</g>
</g>
<!-- Node14&#45;&gt;Node35 -->
<g id="edge35" class="edge">
<title>Node14&#45;&gt;Node35</title>
<path fill="none" stroke="#63b8ff" d="M1862.05,-66.02C1503.24,-20.93 1406.24,-74.63 1051.5,-30 1048.67,-29.64 1045.78,-29.23 1042.87,-28.78"/>
<polygon fill="#63b8ff" stroke="#63b8ff" points="1861.43,-69.46 1871.79,-67.26 1862.31,-62.52 1861.43,-69.46"/>
</g>
<!-- Node36 -->
<g id="node32" class="node">
<title>Node36</title>
<g id="a_node32"><a xlink:href="d__msg__scrn__staff_8cpp.html" target="_top" xlink:title=" ">
<polygon fill="white" stroke="#666666" points="1176.5,-30 1060.5,-30 1060.5,0 1176.5,0 1176.5,-30"/>
<text text-anchor="start" x="1068.5" y="-18" font-family="Helvetica,sans-Serif" font-size="10.00">src/d/msg/d_msg_scrn</text>
<text text-anchor="middle" x="1118.5" y="-7" font-family="Helvetica,sans-Serif" font-size="10.00">_staff.cpp</text>
</a>
</g>
</g>
<!-- Node14&#45;&gt;Node36 -->
<g id="edge36" class="edge">
<title>Node14&#45;&gt;Node36</title>
<path fill="none" stroke="#63b8ff" d="M1862.08,-66C1562.41,-27.14 1481.08,-68.5 1185.5,-30 1182.67,-29.63 1179.79,-29.21 1176.88,-28.75"/>
<polygon fill="#63b8ff" stroke="#63b8ff" points="1861.41,-69.45 1871.79,-67.28 1862.33,-62.51 1861.41,-69.45"/>
</g>
<!-- Node37 -->
<g id="node33" class="node">
<title>Node37</title>
<g id="a_node33"><a xlink:href="d__msg__scrn__tree_8cpp.html" target="_top" xlink:title=" ">
<polygon fill="white" stroke="#666666" points="1310.5,-30 1194.5,-30 1194.5,0 1310.5,0 1310.5,-30"/>
<text text-anchor="start" x="1202.5" y="-18" font-family="Helvetica,sans-Serif" font-size="10.00">src/d/msg/d_msg_scrn</text>
<text text-anchor="middle" x="1252.5" y="-7" font-family="Helvetica,sans-Serif" font-size="10.00">_tree.cpp</text>
</a>
</g>
</g>
<!-- Node14&#45;&gt;Node37 -->
<g id="edge37" class="edge">
<title>Node14&#45;&gt;Node37</title>
<path fill="none" stroke="#63b8ff" d="M1862.07,-65.98C1621.56,-33.31 1555.93,-62.36 1319.5,-30 1316.67,-29.61 1313.79,-29.18 1310.88,-28.7"/>
<polygon fill="#63b8ff" stroke="#63b8ff" points="1861.4,-69.42 1871.78,-67.33 1862.35,-62.49 1861.4,-69.42"/>
</g>
<!-- Node38 -->
<g id="node34" class="node">
<title>Node38</title>
<g id="a_node34"><a xlink:href="d__s__play_8cpp.html" target="_top" xlink:title=" ">
<polygon fill="white" stroke="#666666" points="1434.5,-24.5 1328.5,-24.5 1328.5,-5.5 1434.5,-5.5 1434.5,-24.5"/>
<text text-anchor="middle" x="1381.5" y="-12.5" font-family="Helvetica,sans-Serif" font-size="10.00">src/d/s/d_s_play.cpp</text>
</a>
</g>
</g>
<!-- Node14&#45;&gt;Node38 -->
<g id="edge38" class="edge">
<title>Node14&#45;&gt;Node38</title>
<path fill="none" stroke="#63b8ff" d="M1862,-65.94C1676.23,-39 1625.02,-58.14 1443.5,-30 1434.99,-28.68 1425.92,-26.87 1417.4,-24.98"/>
<polygon fill="#63b8ff" stroke="#63b8ff" points="1861.37,-69.38 1871.77,-67.38 1862.39,-62.46 1861.37,-69.38"/>
</g>
<!-- Node39 -->
<g id="node35" class="node">
<title>Node39</title>
<g id="a_node35"><a xlink:href="d__shop__system_8cpp.html" target="_top" xlink:title=" ">
<polygon fill="white" stroke="#666666" points="1604.5,-24.5 1452.5,-24.5 1452.5,-5.5 1604.5,-5.5 1604.5,-24.5"/>
<text text-anchor="middle" x="1528.5" y="-12.5" font-family="Helvetica,sans-Serif" font-size="10.00">src/d/shop/d_shop_system.cpp</text>
</a>
</g>
</g>
<!-- Node14&#45;&gt;Node39 -->
<g id="edge39" class="edge">
<title>Node14&#45;&gt;Node39</title>
<path fill="none" stroke="#63b8ff" d="M1862.23,-65.86C1751.14,-46.21 1720.98,-46.59 1613.5,-30 1603.3,-28.43 1592.43,-26.68 1581.98,-24.98"/>
<polygon fill="#63b8ff" stroke="#63b8ff" points="1861.28,-69.25 1871.74,-67.56 1862.51,-62.36 1861.28,-69.25"/>
</g>
<!-- Node43&#45;&gt;Node13 -->
<g id="edge61" class="edge">
<title>Node43&#45;&gt;Node13</title>
<path fill="none" stroke="#63b8ff" d="M3506.5,-120.38C3506.5,-93.49 3506.5,-52.18 3506.5,-30.47"/>
<polygon fill="#63b8ff" stroke="#63b8ff" points="3503,-120.08 3506.5,-130.08 3510,-120.08 3503,-120.08"/>
</g>
<!-- Node44 -->
<g id="node39" class="node">
<title>Node44</title>
<g id="a_node39"><a xlink:href="d__msg__string_8h.html" target="_top" xlink:title=" ">
<polygon fill="white" stroke="#666666" points="4433.5,-96 4323.5,-96 4323.5,-66 4433.5,-66 4433.5,-96"/>
<text text-anchor="start" x="4331.5" y="-84" font-family="Helvetica,sans-Serif" font-size="10.00">include/d/msg/d_msg</text>
<text text-anchor="middle" x="4378.5" y="-73" font-family="Helvetica,sans-Serif" font-size="10.00">_string.h</text>
</a>
</g>
</g>
<!-- Node43&#45;&gt;Node44 -->
<g id="edge44" class="edge">
<title>Node43&#45;&gt;Node44</title>
<path fill="none" stroke="#63b8ff" d="M3572.72,-141.14C3738.63,-128.96 4169.77,-97.32 4323.25,-86.05"/>
<polygon fill="#63b8ff" stroke="#63b8ff" points="3572.94,-137.61 3563.22,-141.84 3573.45,-144.6 3572.94,-137.61"/>
</g>
<!-- Node44&#45;&gt;Node5 -->
<g id="edge49" class="edge">
<title>Node44&#45;&gt;Node5</title>
<path fill="none" stroke="#63b8ff" d="M4311.89,-79.47C4144.04,-77.57 3690.34,-68.95 3314.5,-30 3302.33,-28.74 3289.27,-26.9 3277.06,-24.96"/>
<polygon fill="#63b8ff" stroke="#63b8ff" points="4311.68,-82.97 4321.72,-79.58 4311.76,-75.97 4311.68,-82.97"/>
</g>
<!-- Node44&#45;&gt;Node6 -->
<g id="edge52" class="edge">
<title>Node44&#45;&gt;Node6</title>
<path fill="none" stroke="#63b8ff" d="M4311.68,-75.62C4212.16,-68.64 4019.25,-53.35 3856.5,-30 3853.43,-29.56 3850.3,-29.08 3847.14,-28.57"/>
<polygon fill="#63b8ff" stroke="#63b8ff" points="4311.33,-79.1 4321.54,-76.3 4311.81,-72.12 4311.33,-79.1"/>
</g>
<!-- Node44&#45;&gt;Node7 -->
<g id="edge53" class="edge">
<title>Node44&#45;&gt;Node7</title>
<path fill="none" stroke="#63b8ff" d="M4312.16,-71.24C4240.59,-61.66 4123.35,-45.58 4022.5,-30 4012.39,-28.44 4001.6,-26.68 3991.27,-24.96"/>
<polygon fill="#63b8ff" stroke="#63b8ff" points="4311.36,-74.66 4321.74,-72.52 4312.29,-67.72 4311.36,-74.66"/>
</g>
<!-- Node44&#45;&gt;Node8 -->
<g id="edge54" class="edge">
<title>Node44&#45;&gt;Node8</title>
<path fill="none" stroke="#63b8ff" d="M4311.81,-64.25C4259.48,-51.89 4188.52,-35.13 4145.48,-24.97"/>
<polygon fill="#63b8ff" stroke="#63b8ff" points="4311,-67.65 4321.53,-66.55 4312.6,-60.84 4311,-67.65"/>
</g>
<!-- Node44&#45;&gt;Node27 -->
<g id="edge58" class="edge">
<title>Node44&#45;&gt;Node27</title>
<path fill="none" stroke="#63b8ff" d="M4312.1,-80.4C4157.65,-80.47 3762.64,-75.73 3436.5,-30 3433.7,-29.61 3430.84,-29.15 3427.97,-28.65"/>
<polygon fill="#63b8ff" stroke="#63b8ff" points="4311.72,-83.9 4321.72,-80.39 4311.72,-76.9 4311.72,-83.9"/>
</g>
<!-- Node44&#45;&gt;Node33 -->
<g id="edge59" class="edge">
<title>Node44&#45;&gt;Node33</title>
<path fill="none" stroke="#63b8ff" d="M4312.15,-77.84C4191.9,-73.31 3930.14,-60.57 3711.5,-30 3708.28,-29.55 3704.98,-29.04 3701.65,-28.48"/>
<polygon fill="#63b8ff" stroke="#63b8ff" points="4311.71,-81.33 4321.83,-78.2 4311.96,-74.34 4311.71,-81.33"/>
</g>
<!-- Node45 -->
<g id="node40" class="node">
<title>Node45</title>
<g id="a_node40"><a xlink:href="d__file__select_8h.html" target="_top" xlink:title=" ">
<polygon fill="#fff0f0" stroke="red" points="4297.5,-30 4201.5,-30 4201.5,0 4297.5,0 4297.5,-30"/>
<text text-anchor="start" x="4209.5" y="-18" font-family="Helvetica,sans-Serif" font-size="10.00">include/d/file/d_file</text>
<text text-anchor="middle" x="4249.5" y="-7" font-family="Helvetica,sans-Serif" font-size="10.00">_select.h</text>
</a>
</g>
</g>
<!-- Node44&#45;&gt;Node45 -->
<g id="edge45" class="edge">
<title>Node44&#45;&gt;Node45</title>
<path fill="none" stroke="#63b8ff" d="M4339.37,-60.59C4319.73,-50.84 4296.34,-39.24 4278.35,-30.31"/>
<polygon fill="#63b8ff" stroke="#63b8ff" points="4337.68,-63.66 4348.19,-64.96 4340.79,-57.38 4337.68,-63.66"/>
</g>
<!-- Node47 -->
<g id="node41" class="node">
<title>Node47</title>
<g id="a_node41"><a xlink:href="d__bright__check_8cpp.html" target="_top" xlink:title=" ">
<polygon fill="white" stroke="#666666" points="4441,-24.5 4316,-24.5 4316,-5.5 4441,-5.5 4441,-24.5"/>
<text text-anchor="middle" x="4378.5" y="-12.5" font-family="Helvetica,sans-Serif" font-size="10.00">src/d/d_bright_check.cpp</text>
</a>
</g>
</g>
<!-- Node44&#45;&gt;Node47 -->
<g id="edge46" class="edge">
<title>Node44&#45;&gt;Node47</title>
<path fill="none" stroke="#63b8ff" d="M4378.5,-54.59C4378.5,-44.06 4378.5,-32.53 4378.5,-24.84"/>
<polygon fill="#63b8ff" stroke="#63b8ff" points="4375,-54.28 4378.5,-64.28 4382,-54.28 4375,-54.28"/>
</g>
<!-- Node48 -->
<g id="node42" class="node">
<title>Node48</title>
<g id="a_node42"><a xlink:href="d__file__sel__warning__NONMATCHING_8cpp.html" target="_top" xlink:title=" ">
<polygon fill="white" stroke="#666666" points="4614,-30 4459,-30 4459,0 4614,0 4614,-30"/>
<text text-anchor="start" x="4467" y="-18" font-family="Helvetica,sans-Serif" font-size="10.00">src/d/file/d_file_sel</text>
<text text-anchor="middle" x="4536.5" y="-7" font-family="Helvetica,sans-Serif" font-size="10.00">_warning_NONMATCHING.cpp</text>
</a>
</g>
</g>
<!-- Node44&#45;&gt;Node48 -->
<g id="edge47" class="edge">
<title>Node44&#45;&gt;Node48</title>
<path fill="none" stroke="#63b8ff" d="M4424.4,-61.41C4448.77,-51.54 4478.27,-39.59 4500.89,-30.43"/>
<polygon fill="#63b8ff" stroke="#63b8ff" points="4423.32,-58.07 4415.36,-65.07 4425.94,-64.56 4423.32,-58.07"/>
</g>
<!-- Node49 -->
<g id="node43" class="node">
<title>Node49</title>
<g id="a_node43"><a xlink:href="d__menu__calibration_8cpp.html" target="_top" xlink:title=" ">
<polygon fill="white" stroke="#666666" points="4802.5,-24.5 4632.5,-24.5 4632.5,-5.5 4802.5,-5.5 4802.5,-24.5"/>
<text text-anchor="middle" x="4717.5" y="-12.5" font-family="Helvetica,sans-Serif" font-size="10.00">src/d/menu/d_menu_calibration.cpp</text>
</a>
</g>
</g>
<!-- Node44&#45;&gt;Node49 -->
<g id="edge48" class="edge">
<title>Node44&#45;&gt;Node49</title>
<path fill="none" stroke="#63b8ff" d="M4444.86,-67.47C4511.11,-54.96 4611.28,-36.05 4669.97,-24.97"/>
<polygon fill="#63b8ff" stroke="#63b8ff" points="4444.39,-64 4435.21,-69.29 4445.68,-70.88 4444.39,-64"/>
</g>
<!-- Node50 -->
<g id="node44" class="node">
<title>Node50</title>
<g id="a_node44"><a xlink:href="d__menu__fishing_8cpp.html" target="_top" xlink:title=" ">
<polygon fill="white" stroke="#666666" points="4974.5,-24.5 4820.5,-24.5 4820.5,-5.5 4974.5,-5.5 4974.5,-24.5"/>
<text text-anchor="middle" x="4897.5" y="-12.5" font-family="Helvetica,sans-Serif" font-size="10.00">src/d/menu/d_menu_fishing.cpp</text>
</a>
</g>
</g>
<!-- Node44&#45;&gt;Node50 -->
<g id="edge50" class="edge">
<title>Node44&#45;&gt;Node50</title>
<path fill="none" stroke="#63b8ff" d="M4445.28,-73.26C4530.44,-64.44 4682.16,-47.99 4811.5,-30 4822.29,-28.5 4833.81,-26.74 4844.8,-24.98"/>
<polygon fill="#63b8ff" stroke="#63b8ff" points="4445.06,-69.76 4435.47,-74.27 4445.78,-76.73 4445.06,-69.76"/>
</g>
<!-- Node51 -->
<g id="node45" class="node">
<title>Node51</title>
<g id="a_node45"><a xlink:href="d__menu__insect_8cpp.html" target="_top" xlink:title=" ">
<polygon fill="white" stroke="#666666" points="5144.5,-24.5 4992.5,-24.5 4992.5,-5.5 5144.5,-5.5 5144.5,-24.5"/>
<text text-anchor="middle" x="5068.5" y="-12.5" font-family="Helvetica,sans-Serif" font-size="10.00">src/d/menu/d_menu_insect.cpp</text>
</a>
</g>
</g>
<!-- Node44&#45;&gt;Node51 -->
<g id="edge51" class="edge">
<title>Node44&#45;&gt;Node51</title>
<path fill="none" stroke="#63b8ff" d="M4445.1,-76.26C4556.73,-69.6 4788.52,-54.07 4983.5,-30 4994.78,-28.61 5006.85,-26.81 5018.26,-24.97"/>
<polygon fill="#63b8ff" stroke="#63b8ff" points="4445,-72.76 4435.22,-76.85 4445.41,-79.75 4445,-72.76"/>
</g>
<!-- Node52 -->
<g id="node46" class="node">
<title>Node52</title>
<g id="a_node46"><a xlink:href="d__menu__ring_8cpp.html" target="_top" xlink:title=" ">
<polygon fill="white" stroke="#666666" points="5304.5,-24.5 5162.5,-24.5 5162.5,-5.5 5304.5,-5.5 5304.5,-24.5"/>
<text text-anchor="middle" x="5233.5" y="-12.5" font-family="Helvetica,sans-Serif" font-size="10.00">src/d/menu/d_menu_ring.cpp</text>
</a>
</g>
</g>
<!-- Node44&#45;&gt;Node52 -->
<g id="edge55" class="edge">
<title>Node44&#45;&gt;Node52</title>
<path fill="none" stroke="#63b8ff" d="M4444.94,-78.15C4579.21,-73.87 4892.35,-61.18 5153.5,-30 5164.56,-28.68 5176.41,-26.84 5187.52,-24.93"/>
<polygon fill="#63b8ff" stroke="#63b8ff" points="4445.06,-74.64 4435.17,-78.46 4445.28,-81.64 4445.06,-74.64"/>
</g>
<!-- Node53 -->
<g id="node47" class="node">
<title>Node53</title>
<g id="a_node47"><a xlink:href="d__menu__save_8cpp.html" target="_top" xlink:title=" ">
<polygon fill="white" stroke="#666666" points="5470,-24.5 5323,-24.5 5323,-5.5 5470,-5.5 5470,-24.5"/>
<text text-anchor="middle" x="5396.5" y="-12.5" font-family="Helvetica,sans-Serif" font-size="10.00">src/d/menu/d_menu_save.cpp</text>
</a>
</g>
</g>
<!-- Node44&#45;&gt;Node53 -->
<g id="edge56" class="edge">
<title>Node44&#45;&gt;Node53</title>
<path fill="none" stroke="#63b8ff" d="M4444.8,-79.04C4598.14,-76.26 4988.99,-65.93 5313.5,-30 5325.12,-28.71 5337.58,-26.86 5349.23,-24.93"/>
<polygon fill="#63b8ff" stroke="#63b8ff" points="4445.19,-75.53 4435.26,-79.21 4445.32,-82.53 4445.19,-75.53"/>
</g>
<!-- Node54 -->
<g id="node48" class="node">
<title>Node54</title>
<g id="a_node48"><a xlink:href="d__menu__skill_8cpp.html" target="_top" xlink:title=" ">
<polygon fill="white" stroke="#666666" points="5631,-24.5 5488,-24.5 5488,-5.5 5631,-5.5 5631,-24.5"/>
<text text-anchor="middle" x="5559.5" y="-12.5" font-family="Helvetica,sans-Serif" font-size="10.00">src/d/menu/d_menu_skill.cpp</text>
</a>
</g>
</g>
<!-- Node44&#45;&gt;Node54 -->
<g id="edge57" class="edge">
<title>Node44&#45;&gt;Node54</title>
<path fill="none" stroke="#63b8ff" d="M4445.35,-79.93C4617.39,-79.12 5089.28,-72.83 5479.5,-30 5490.85,-28.75 5503.03,-26.89 5514.37,-24.94"/>
<polygon fill="#63b8ff" stroke="#63b8ff" points="4445.47,-76.43 4435.48,-79.98 4445.5,-83.43 4445.47,-76.43"/>
</g>
<!-- Node55 -->
<g id="node49" class="node">
<title>Node55</title>
<g id="a_node49"><a xlink:href="d__msg__string_8cpp.html" target="_top" xlink:title=" ">
<polygon fill="white" stroke="#666666" points="5789.5,-24.5 5649.5,-24.5 5649.5,-5.5 5789.5,-5.5 5789.5,-24.5"/>
<text text-anchor="middle" x="5719.5" y="-12.5" font-family="Helvetica,sans-Serif" font-size="10.00">src/d/msg/d_msg_string.cpp</text>
</a>
</g>
</g>
<!-- Node44&#45;&gt;Node55 -->
<g id="edge60" class="edge">
<title>Node44&#45;&gt;Node55</title>
<path fill="none" stroke="#63b8ff" d="M4445.08,-80.54C4633.35,-81.37 5185.41,-79.11 5640.5,-30 5651.72,-28.79 5663.75,-26.94 5674.95,-24.99"/>
<polygon fill="#63b8ff" stroke="#63b8ff" points="4445.27,-77.04 4435.26,-80.49 4445.24,-84.04 4445.27,-77.04"/>
</g>
</g>
</svg>
        <g id="navigator" transform="translate(0 0)" fill="#404254">
                <rect fill="#f2f5e9" fill-opacity="0.5" stroke="#606060" stroke-width=".5" x="0" y="0" width="60" height="60"/>
                <use id="zoomplus" xlink:href="#zoomPlus" x="17" y="9" onmousedown="handleZoom(evt,'in')"/>
                <use id="zoomminus" xlink:href="#zoomMin" x="42" y="9" onmousedown="handleZoom(evt,'out')"/>
                <use id="reset" xlink:href="#resetDef" x="30" y="36" onmousedown="handleReset()"/>
                <g id="arrowUp" xlink:href="#dirArrow" transform="translate(30 24)" onmousedown="handlePan(0,-1)">
                  <use xlink:href="#rim" fill="#404040">
                        <set attributeName="fill" to="#808080" begin="arrowUp.mouseover" end="arrowUp.mouseout"/>
                  </use>
                  <path fill="none" stroke="white" stroke-width="1.5" d="M0,-3.0v7 M-2.5,-0.5L0,-3.0L2.5,-0.5"/>
                </g>
                <g id="arrowRight" xlink:href="#dirArrow" transform="rotate(90) translate(36 -43)" onmousedown="handlePan(1,0)">
                  <use xlink:href="#rim" fill="#404040">
                        <set attributeName="fill" to="#808080" begin="arrowRight.mouseover" end="arrowRight.mouseout"/>
                  </use>
                  <path fill="none" stroke="white" stroke-width="1.5" d="M0,-3.0v7 M-2.5,-0.5L0,-3.0L2.5,-0.5"/>
                </g>
                <g id="arrowDown" xlink:href="#dirArrow" transform="rotate(180) translate(-30 -48)" onmousedown="handlePan(0,1)">
                  <use xlink:href="#rim" fill="#404040">
                        <set attributeName="fill" to="#808080" begin="arrowDown.mouseover" end="arrowDown.mouseout"/>
                  </use>
                  <path fill="none" stroke="white" stroke-width="1.5" d="M0,-3.0v7 M-2.5,-0.5L0,-3.0L2.5,-0.5"/>
                </g>
                <g id="arrowLeft" xlink:href="#dirArrow" transform="rotate(270) translate(-36 17)" onmousedown="handlePan(-1,0)">
                  <use xlink:href="#rim" fill="#404040">
                        <set attributeName="fill" to="#808080" begin="arrowLeft.mouseover" end="arrowLeft.mouseout"/>
                  </use>
                  <path fill="none" stroke="white" stroke-width="1.5" d="M0,-3.0v7 M-2.5,-0.5L0,-3.0L2.5,-0.5"/>
                </g>
        </g>
        <svg viewBox="0 0 15 15" width="100%" height="30px" preserveAspectRatio="xMaxYMin meet">
         <g id="arrow_out" transform="scale(0.3 0.3)">
          <a xlink:href="resource_8h__dep__incl_org.svg" target="_base">
           <rect id="button" ry="5" rx="5" y="6" x="6" height="38" width="38"
                fill="#f2f5e9" fill-opacity="0.5" stroke="#606060" stroke-width="1.0"/>
           <path id="arrow"
             d="M 11.500037,31.436501 C 11.940474,20.09759 22.043105,11.32322 32.158766,21.979434 L 37.068811,17.246167 C 37.068811,17.246167 37.088388,32 37.088388,32 L 22.160133,31.978069 C 22.160133,31.978069 26.997745,27.140456 26.997745,27.140456 C 18.528582,18.264221 13.291696,25.230495 11.500037,31.436501 z"
             style="fill:#404040;"/>
          </a>
         </g>
        </svg>
</svg>
