<?xml version="1.0" encoding="UTF-8" standalone="no"?>
<!DOCTYPE svg PUBLIC "-//W3C//DTD SVG 1.1//EN"
 "http://www.w3.org/Graphics/SVG/1.1/DTD/svg11.dtd">
<!-- Generated by graphviz version 7.0.5 (20221223.1930)
 -->
<!-- Title: JStudio::TAdaptor_message Pages: 1 -->
<!--zoomable 278 -->
<svg id="main" version="1.1" xmlns="http://www.w3.org/2000/svg" xmlns:xlink="http://www.w3.org/1999/xlink" xml:space="preserve" onload="init(evt)">
<style type="text/css"><![CDATA[
.edge:hover path { stroke: red; }
.edge:hover polygon { stroke: red; fill: red; }
]]></style>
<script type="text/javascript"><![CDATA[
var edges = document.getElementsByTagName('g');
if (edges && edges.length) {
  for (var i=0;i<edges.length;i++) {
    if (edges[i].id.substr(0,4)=='edge') {
      edges[i].setAttribute('class','edge');
    }
  }
}
]]></script>
        <defs>
                <circle id="rim" cx="0" cy="0" r="7"/>
                <circle id="rim2" cx="0" cy="0" r="3.5"/>
                <g id="zoomPlus">
                        <use xlink:href="#rim" fill="#404040">
                                <set attributeName="fill" to="#808080" begin="zoomplus.mouseover" end="zoomplus.mouseout"/>
                        </use>
                        <path d="M-4,0h8M0,-4v8" fill="none" stroke="white" stroke-width="1.5" pointer-events="none"/>
                </g>
                <g id="zoomMin">
                        <use xlink:href="#rim" fill="#404040">
                                <set attributeName="fill" to="#808080" begin="zoomminus.mouseover" end="zoomminus.mouseout"/>
                        </use>
                        <path d="M-4,0h8" fill="none" stroke="white" stroke-width="1.5" pointer-events="none"/>
                </g>
                <g id="dirArrow">
                        <path fill="none" stroke="white" stroke-width="1.5" d="M0,-3.0v7 M-2.5,-0.5L0,-3.0L2.5,-0.5"/>
                </g>
               <g id="resetDef">
                       <use xlink:href="#rim2" fill="#404040">
                               <set attributeName="fill" to="#808080" begin="reset.mouseover" end="reset.mouseout"/>
                       </use>
               </g>
        </defs>

<script type="text/javascript">
var viewWidth = 999;
var viewHeight = 278;
var sectionId = 'dynsection-1';
</script>
<script xlink:href="svgpan.js"/>
<svg id="graph" class="graph">
<g id="viewport">
<title>JStudio::TAdaptor_message</title>
<!-- Node1 -->
<g id="node1" class="node">
<title>Node1</title>
<g id="a_node1"><a xlink:title=" ">
<polygon fill="#999999" stroke="#666666" points="765,-270 626,-270 626,-251 765,-251 765,-270"/>
<text text-anchor="middle" x="695.5" y="-258" font-family="Helvetica,sans-Serif" font-size="10.00">JStudio::TAdaptor_message</text>
</a>
</g>
</g>
<!-- Node2 -->
<g id="node2" class="node">
<title>Node2</title>
<g id="a_node2"><a xlink:href="structJStudio_1_1TAdaptor.html" target="_top" xlink:title=" ">
<polygon fill="white" stroke="#666666" points="526,-244 432,-244 432,-225 526,-225 526,-244"/>
<text text-anchor="middle" x="479" y="-232" font-family="Helvetica,sans-Serif" font-size="10.00">JStudio::TAdaptor</text>
</a>
</g>
</g>
<!-- Node2&#45;&gt;Node1 -->
<g id="edge1" class="edge">
<title>Node2&#45;&gt;Node1</title>
<path fill="none" stroke="#63b8ff" d="M537.34,-243.66C544.29,-244.67 551.3,-245.64 558,-246.5 579.98,-249.32 604,-251.93 625.68,-254.12"/>
<polygon fill="#63b8ff" stroke="#63b8ff" points="538.04,-240.22 527.64,-242.22 537.01,-247.15 538.04,-240.22"/>
</g>
<!-- Node3 -->
<g id="node3" class="node">
<title>Node3</title>
<g id="a_node3"><a xlink:href="classJStudio_1_1TObject.html" target="_top" xlink:title=" ">
<polygon fill="white" stroke="#666666" points="740,-212 651,-212 651,-193 740,-193 740,-212"/>
<text text-anchor="middle" x="695.5" y="-200" font-family="Helvetica,sans-Serif" font-size="10.00">JStudio::TObject</text>
</a>
</g>
</g>
<!-- Node2&#45;&gt;Node3 -->
<g id="edge15" class="edge">
<title>Node2&#45;&gt;Node3</title>
<path fill="none" stroke="#9a32cd" stroke-dasharray="5,2" d="M506.84,-219.53C521.48,-212.22 540.2,-204.21 558,-200.5 588.51,-194.14 623.69,-194.84 650.7,-197.03"/>
<polygon fill="#9a32cd" stroke="#9a32cd" points="505.57,-216.24 498.32,-223.96 508.8,-222.45 505.57,-216.24"/>
<text text-anchor="middle" x="583" y="-203.5" font-family="Helvetica,sans-Serif" font-size="10.00"> mpAdaptor</text>
</g>
<!-- Node3&#45;&gt;Node2 -->
<g id="edge2" class="edge">
<title>Node3&#45;&gt;Node2</title>
<path fill="none" stroke="#9a32cd" stroke-dasharray="5,2" d="M639.49,-210.71C604.43,-215.94 559.51,-222.64 526.28,-227.6"/>
<polygon fill="#9a32cd" stroke="#9a32cd" points="639.63,-214.22 649,-209.29 638.6,-207.3 639.63,-214.22"/>
<text text-anchor="middle" x="583" y="-224.5" font-family="Helvetica,sans-Serif" font-size="10.00"> pObject_</text>
</g>
<!-- Node4 -->
<g id="node4" class="node">
<title>Node4</title>
<g id="a_node4"><a xlink:href="classJStudio_1_1stb_1_1TObject.html" target="_top" xlink:title=" ">
<polygon fill="white" stroke="#666666" points="532.5,-142 425.5,-142 425.5,-123 532.5,-123 532.5,-142"/>
<text text-anchor="middle" x="479" y="-130" font-family="Helvetica,sans-Serif" font-size="10.00">JStudio::stb::TObject</text>
</a>
</g>
</g>
<!-- Node4&#45;&gt;Node3 -->
<g id="edge3" class="edge">
<title>Node4&#45;&gt;Node3</title>
<path fill="none" stroke="#63b8ff" d="M517.33,-146.3C546.7,-156.97 588.74,-171.84 626,-183.5 636.01,-186.63 646.93,-189.78 657.04,-192.59"/>
<polygon fill="#63b8ff" stroke="#63b8ff" points="518.75,-143.09 508.16,-142.95 516.35,-149.67 518.75,-143.09"/>
</g>
<!-- Node12 -->
<g id="node12" class="node">
<title>Node12</title>
<g id="a_node12"><a xlink:href="classJStudio_1_1stb_1_1TObject__control.html" target="_top" xlink:title=" ">
<polygon fill="white" stroke="#666666" points="749,-174.5 642,-174.5 642,-144.5 749,-144.5 749,-174.5"/>
<text text-anchor="start" x="650" y="-162.5" font-family="Helvetica,sans-Serif" font-size="10.00">JStudio::stb::TObject</text>
<text text-anchor="middle" x="695.5" y="-151.5" font-family="Helvetica,sans-Serif" font-size="10.00">_control</text>
</a>
</g>
</g>
<!-- Node4&#45;&gt;Node12 -->
<g id="edge14" class="edge">
<title>Node4&#45;&gt;Node12</title>
<path fill="none" stroke="#63b8ff" d="M543.93,-140.55C575.07,-144.47 612.06,-149.12 641.58,-152.84"/>
<polygon fill="#63b8ff" stroke="#63b8ff" points="544.61,-137.1 534.25,-139.33 543.73,-144.05 544.61,-137.1"/>
</g>
<!-- Node5 -->
<g id="node5" class="node">
<title>Node5</title>
<g id="a_node5"><a xlink:href="structJStudio_1_1object_1_1TObject__ID.html" target="_top" xlink:title=" ">
<polygon fill="white" stroke="#666666" points="335,-142 201,-142 201,-123 335,-123 335,-142"/>
<text text-anchor="middle" x="268" y="-130" font-family="Helvetica,sans-Serif" font-size="10.00">JStudio::object::TObject_ID</text>
</a>
</g>
</g>
<!-- Node5&#45;&gt;Node4 -->
<g id="edge4" class="edge">
<title>Node5&#45;&gt;Node4</title>
<path fill="none" stroke="#63b8ff" d="M346.85,-132.5C373.02,-132.5 401.57,-132.5 425.33,-132.5"/>
<polygon fill="#63b8ff" stroke="#63b8ff" points="346.93,-129 336.93,-132.5 346.93,-136 346.93,-129"/>
</g>
<!-- Node6 -->
<g id="node6" class="node">
<title>Node6</title>
<g id="a_node6"><a xlink:href="structJStudio_1_1object_1_1TIDData.html" target="_top" xlink:title=" ">
<polygon fill="white" stroke="#666666" points="121.5,-142 0.5,-142 0.5,-123 121.5,-123 121.5,-142"/>
<text text-anchor="middle" x="61" y="-130" font-family="Helvetica,sans-Serif" font-size="10.00">JStudio::object::TIDData</text>
</a>
</g>
</g>
<!-- Node6&#45;&gt;Node5 -->
<g id="edge5" class="edge">
<title>Node6&#45;&gt;Node5</title>
<path fill="none" stroke="#63b8ff" d="M133.09,-132.5C155,-132.5 179.03,-132.5 200.61,-132.5"/>
<polygon fill="#63b8ff" stroke="#63b8ff" points="133.36,-129 123.36,-132.5 133.36,-136 133.36,-129"/>
</g>
<!-- Node7 -->
<g id="node7" class="node">
<title>Node7</title>
<g id="a_node7"><a xlink:href="structJGadget_1_1TLinkListNode.html" target="_top" xlink:title=" ">
<polygon fill="white" stroke="#666666" points="329,-61 207,-61 207,-42 329,-42 329,-61"/>
<text text-anchor="middle" x="268" y="-49" font-family="Helvetica,sans-Serif" font-size="10.00">JGadget::TLinkListNode</text>
</a>
</g>
</g>
<!-- Node7&#45;&gt;Node4 -->
<g id="edge6" class="edge">
<title>Node7&#45;&gt;Node4</title>
<path fill="none" stroke="#9a32cd" stroke-dasharray="5,2" d="M305.24,-65.54C347.31,-81.85 415.63,-108.33 452.49,-122.61"/>
<polygon fill="#9a32cd" stroke="#9a32cd" points="306.63,-62.33 296.04,-61.98 304.1,-68.86 306.63,-62.33"/>
<text text-anchor="middle" x="376.5" y="-105.5" font-family="Helvetica,sans-Serif" font-size="10.00"> ocObject_</text>
</g>
<!-- Node7&#45;&gt;Node7 -->
<g id="edge7" class="edge">
<title>Node7&#45;&gt;Node7</title>
<path fill="none" stroke="#9a32cd" stroke-dasharray="5,2" d="M249.1,-72.43C251.46,-76.29 257.76,-79 268,-79 286.72,-79 292.28,-69.94 284.67,-61.37"/>
<polygon fill="#9a32cd" stroke="#9a32cd" points="252.48,-73.35 251.03,-62.85 245.62,-71.96 252.48,-73.35"/>
<text text-anchor="middle" x="268" y="-93" font-family="Helvetica,sans-Serif" font-size="10.00"> mNext</text>
<text text-anchor="middle" x="268" y="-82" font-family="Helvetica,sans-Serif" font-size="10.00">mPrev</text>
</g>
<!-- Node11 -->
<g id="node11" class="node">
<title>Node11</title>
<g id="a_node11"><a xlink:href="structJGadget_1_1TNodeLinkList.html" target="_top" xlink:title=" ">
<polygon fill="white" stroke="#666666" points="540,-52 418,-52 418,-33 540,-33 540,-52"/>
<text text-anchor="middle" x="479" y="-40" font-family="Helvetica,sans-Serif" font-size="10.00">JGadget::TNodeLinkList</text>
</a>
</g>
</g>
<!-- Node7&#45;&gt;Node11 -->
<g id="edge12" class="edge">
<title>Node7&#45;&gt;Node11</title>
<path fill="none" stroke="#9a32cd" stroke-dasharray="5,2" d="M340.74,-48.41C365.8,-47.33 393.65,-46.13 417.68,-45.1"/>
<polygon fill="#9a32cd" stroke="#9a32cd" points="340.8,-44.9 330.96,-48.83 341.1,-51.9 340.8,-44.9"/>
<text text-anchor="middle" x="376.5" y="-51.5" font-family="Helvetica,sans-Serif" font-size="10.00"> ocObject_</text>
</g>
<!-- Node8 -->
<g id="node8" class="node">
<title>Node8</title>
<g id="a_node8"><a xlink:href="classJStudio_1_1stb_1_1TControl.html" target="_top" xlink:title=" ">
<polygon fill="white" stroke="#666666" points="991,-106 882,-106 882,-87 991,-87 991,-106"/>
<text text-anchor="middle" x="936.5" y="-94" font-family="Helvetica,sans-Serif" font-size="10.00">JStudio::stb::TControl</text>
</a>
</g>
</g>
<!-- Node8&#45;&gt;Node4 -->
<g id="edge8" class="edge">
<title>Node8&#45;&gt;Node4</title>
<path fill="none" stroke="#9a32cd" stroke-dasharray="5,2" d="M870.41,-87.47C807.49,-80.38 709.66,-73.63 626,-86.5 581.61,-93.33 532.2,-111.19 503.74,-122.54"/>
<polygon fill="#9a32cd" stroke="#9a32cd" points="869.9,-90.94 880.24,-88.62 870.71,-83.99 869.9,-90.94"/>
<text text-anchor="middle" x="695.5" y="-89.5" font-family="Helvetica,sans-Serif" font-size="10.00"> pControl</text>
</g>
<!-- Node9 -->
<g id="node9" class="node">
<title>Node9</title>
<g id="a_node9"><a xlink:href="classJStudio_1_1stb_1_1TFactory.html" target="_top" xlink:title=" ">
<polygon fill="white" stroke="#666666" points="750.5,-126 640.5,-126 640.5,-107 750.5,-107 750.5,-126"/>
<text text-anchor="middle" x="695.5" y="-114" font-family="Helvetica,sans-Serif" font-size="10.00">JStudio::stb::TFactory</text>
</a>
</g>
</g>
<!-- Node9&#45;&gt;Node8 -->
<g id="edge9" class="edge">
<title>Node9&#45;&gt;Node8</title>
<path fill="none" stroke="#9a32cd" stroke-dasharray="5,2" d="M762.11,-111.01C799.76,-107.86 846.45,-103.95 881.89,-100.99"/>
<polygon fill="#9a32cd" stroke="#9a32cd" points="761.91,-107.51 752.24,-111.84 762.5,-114.49 761.91,-107.51"/>
<text text-anchor="middle" x="823.5" y="-112.5" font-family="Helvetica,sans-Serif" font-size="10.00"> pFactory</text>
</g>
<!-- Node10 -->
<g id="node10" class="node">
<title>Node10</title>
<g id="a_node10"><a xlink:href="structJGadget_1_1TLinkList.html" target="_top" xlink:title=" ">
<polygon fill="white" stroke="#666666" points="754.5,-41 636.5,-41 636.5,0 754.5,0 754.5,-41"/>
<text text-anchor="start" x="644.5" y="-29" font-family="Helvetica,sans-Serif" font-size="10.00">JGadget::TLinkList</text>
<text text-anchor="start" x="644.5" y="-18" font-family="Helvetica,sans-Serif" font-size="10.00">&lt; JStudio::stb::TObject,</text>
<text text-anchor="middle" x="695.5" y="-7" font-family="Helvetica,sans-Serif" font-size="10.00"> &#45;12 &gt;</text>
</a>
</g>
</g>
<!-- Node10&#45;&gt;Node8 -->
<g id="edge10" class="edge">
<title>Node10&#45;&gt;Node8</title>
<path fill="none" stroke="#9a32cd" stroke-dasharray="5,2" d="M765.98,-28.01C796.74,-32.79 832.9,-40.43 864,-52.5 886.01,-61.04 908.8,-76.39 922.56,-86.52"/>
<polygon fill="#9a32cd" stroke="#9a32cd" points="766.82,-24.6 756.42,-26.6 765.8,-31.52 766.82,-24.6"/>
<text text-anchor="middle" x="823.5" y="-55.5" font-family="Helvetica,sans-Serif" font-size="10.00"> mObjectContainer</text>
</g>
<!-- Node11&#45;&gt;Node10 -->
<g id="edge11" class="edge">
<title>Node11&#45;&gt;Node10</title>
<path fill="none" stroke="#63b8ff" d="M551.46,-35.17C578.95,-32.35 609.99,-29.17 636.11,-26.49"/>
<polygon fill="#63b8ff" stroke="#63b8ff" points="551.42,-31.66 541.83,-36.16 552.13,-38.62 551.42,-31.66"/>
</g>
<!-- Node12&#45;&gt;Node8 -->
<g id="edge13" class="edge">
<title>Node12&#45;&gt;Node8</title>
<path fill="none" stroke="#9a32cd" stroke-dasharray="5,2" d="M760.75,-148.68C792.19,-142.73 830.4,-134.51 864,-124.5 880.74,-119.51 899.07,-112.3 912.98,-106.44"/>
<polygon fill="#9a32cd" stroke="#9a32cd" points="760.18,-145.23 750.99,-150.5 761.46,-152.11 760.18,-145.23"/>
<text text-anchor="middle" x="823.5" y="-147.5" font-family="Helvetica,sans-Serif" font-size="10.00"> mObject_control</text>
</g>
<!-- Node13 -->
<g id="node13" class="node">
<title>Node13</title>
<g id="a_node13"><a xlink:href="structJStudio_1_1TVariableValue.html" target="_top" xlink:title=" ">
<polygon fill="white" stroke="#666666" points="328,-244 208,-244 208,-225 328,-225 328,-244"/>
<text text-anchor="middle" x="268" y="-232" font-family="Helvetica,sans-Serif" font-size="10.00">JStudio::TVariableValue</text>
</a>
</g>
</g>
<!-- Node13&#45;&gt;Node2 -->
<g id="edge16" class="edge">
<title>Node13&#45;&gt;Node2</title>
<path fill="none" stroke="#9a32cd" stroke-dasharray="5,2" d="M339.75,-234.5C370.14,-234.5 404.8,-234.5 431.81,-234.5"/>
<polygon fill="#9a32cd" stroke="#9a32cd" points="339.85,-231 329.85,-234.5 339.85,-238 339.85,-231"/>
<text text-anchor="middle" x="376.5" y="-237.5" font-family="Helvetica,sans-Serif" font-size="10.00"> pValue_</text>
</g>
<!-- Node14 -->
<g id="node14" class="node">
<title>Node14</title>
<g id="a_node14"><a xlink:href="classJStudio_1_1TFunctionValue.html" target="_top" xlink:title=" ">
<polygon fill="white" stroke="#666666" points="122,-266 0,-266 0,-247 122,-247 122,-266"/>
<text text-anchor="middle" x="61" y="-254" font-family="Helvetica,sans-Serif" font-size="10.00">JStudio::TFunctionValue</text>
</a>
</g>
</g>
<!-- Node14&#45;&gt;Node13 -->
<g id="edge17" class="edge">
<title>Node14&#45;&gt;Node13</title>
<path fill="none" stroke="#9a32cd" stroke-dasharray="5,2" d="M133.68,-248.81C157.88,-246.21 184.61,-243.34 207.74,-240.86"/>
<polygon fill="#9a32cd" stroke="#9a32cd" points="133.47,-245.31 123.9,-249.86 134.22,-252.27 133.47,-245.31"/>
<text text-anchor="middle" x="161.5" y="-250.5" font-family="Helvetica,sans-Serif" font-size="10.00"> field_0xc</text>
</g>
<!-- Node15 -->
<g id="node15" class="node">
<title>Node15</title>
<g id="a_node15"><a xlink:href="structJStudio_1_1TVariableValue_1_1TOutput.html" target="_top" xlink:title=" ">
<polygon fill="white" stroke="#666666" points="121,-228.5 1,-228.5 1,-198.5 121,-198.5 121,-228.5"/>
<text text-anchor="start" x="9" y="-216.5" font-family="Helvetica,sans-Serif" font-size="10.00">JStudio::TVariableValue</text>
<text text-anchor="middle" x="61" y="-205.5" font-family="Helvetica,sans-Serif" font-size="10.00">::TOutput</text>
</a>
</g>
</g>
<!-- Node15&#45;&gt;Node13 -->
<g id="edge18" class="edge">
<title>Node15&#45;&gt;Node13</title>
<path fill="none" stroke="#9a32cd" stroke-dasharray="5,2" d="M132.69,-218.77C149.22,-220.16 166.74,-221.76 183,-223.5 191.04,-224.36 199.51,-225.36 207.84,-226.39"/>
<polygon fill="#9a32cd" stroke="#9a32cd" points="133.21,-215.3 122.95,-217.97 132.63,-222.28 133.21,-215.3"/>
<text text-anchor="middle" x="161.5" y="-226.5" font-family="Helvetica,sans-Serif" font-size="10.00"> pOutput_</text>
</g>
</g>
</svg>
        <g id="navigator" transform="translate(0 0)" fill="#404254">
                <rect fill="#f2f5e9" fill-opacity="0.5" stroke="#606060" stroke-width=".5" x="0" y="0" width="60" height="60"/>
                <use id="zoomplus" xlink:href="#zoomPlus" x="17" y="9" onmousedown="handleZoom(evt,'in')"/>
                <use id="zoomminus" xlink:href="#zoomMin" x="42" y="9" onmousedown="handleZoom(evt,'out')"/>
                <use id="reset" xlink:href="#resetDef" x="30" y="36" onmousedown="handleReset()"/>
                <g id="arrowUp" xlink:href="#dirArrow" transform="translate(30 24)" onmousedown="handlePan(0,-1)">
                  <use xlink:href="#rim" fill="#404040">
                        <set attributeName="fill" to="#808080" begin="arrowUp.mouseover" end="arrowUp.mouseout"/>
                  </use>
                  <path fill="none" stroke="white" stroke-width="1.5" d="M0,-3.0v7 M-2.5,-0.5L0,-3.0L2.5,-0.5"/>
                </g>
                <g id="arrowRight" xlink:href="#dirArrow" transform="rotate(90) translate(36 -43)" onmousedown="handlePan(1,0)">
                  <use xlink:href="#rim" fill="#404040">
                        <set attributeName="fill" to="#808080" begin="arrowRight.mouseover" end="arrowRight.mouseout"/>
                  </use>
                  <path fill="none" stroke="white" stroke-width="1.5" d="M0,-3.0v7 M-2.5,-0.5L0,-3.0L2.5,-0.5"/>
                </g>
                <g id="arrowDown" xlink:href="#dirArrow" transform="rotate(180) translate(-30 -48)" onmousedown="handlePan(0,1)">
                  <use xlink:href="#rim" fill="#404040">
                        <set attributeName="fill" to="#808080" begin="arrowDown.mouseover" end="arrowDown.mouseout"/>
                  </use>
                  <path fill="none" stroke="white" stroke-width="1.5" d="M0,-3.0v7 M-2.5,-0.5L0,-3.0L2.5,-0.5"/>
                </g>
                <g id="arrowLeft" xlink:href="#dirArrow" transform="rotate(270) translate(-36 17)" onmousedown="handlePan(-1,0)">
                  <use xlink:href="#rim" fill="#404040">
                        <set attributeName="fill" to="#808080" begin="arrowLeft.mouseover" end="arrowLeft.mouseout"/>
                  </use>
                  <path fill="none" stroke="white" stroke-width="1.5" d="M0,-3.0v7 M-2.5,-0.5L0,-3.0L2.5,-0.5"/>
                </g>
        </g>
        <svg viewBox="0 0 15 15" width="100%" height="30px" preserveAspectRatio="xMaxYMin meet">
         <g id="arrow_out" transform="scale(0.3 0.3)">
          <a xlink:href="structJStudio_1_1TAdaptor__message__coll__graph_org.svg" target="_base">
           <rect id="button" ry="5" rx="5" y="6" x="6" height="38" width="38"
                fill="#f2f5e9" fill-opacity="0.5" stroke="#606060" stroke-width="1.0"/>
           <path id="arrow"
             d="M 11.500037,31.436501 C 11.940474,20.09759 22.043105,11.32322 32.158766,21.979434 L 37.068811,17.246167 C 37.068811,17.246167 37.088388,32 37.088388,32 L 22.160133,31.978069 C 22.160133,31.978069 26.997745,27.140456 26.997745,27.140456 C 18.528582,18.264221 13.291696,25.230495 11.500037,31.436501 z"
             style="fill:#404040;"/>
          </a>
         </g>
        </svg>
</svg>
