<?xml version="1.0" encoding="UTF-8" standalone="no"?>
<!DOCTYPE svg PUBLIC "-//W3C//DTD SVG 1.1//EN"
 "http://www.w3.org/Graphics/SVG/1.1/DTD/svg11.dtd">
<!-- Generated by graphviz version 7.0.5 (20221223.1930)
 -->
<!-- Title: J2DWindowEx Pages: 1 -->
<svg width="1383pt" height="720pt"
 viewBox="0.00 0.00 1383.00 719.50" xmlns="http://www.w3.org/2000/svg" xmlns:xlink="http://www.w3.org/1999/xlink">
<g id="graph0" class="graph" transform="scale(1 1) rotate(0) translate(4 715.5)">
<title>J2DWindowEx</title>
<!-- Node1 -->
<g id="node1" class="node">
<title>Node1</title>
<g id="a_node1"><a xlink:title=" ">
<polygon fill="#999999" stroke="#666666" points="1375,-85 1296,-85 1296,-66 1375,-66 1375,-85"/>
<text text-anchor="middle" x="1335.5" y="-73" font-family="Helvetica,sans-Serif" font-size="10.00">J2DWindowEx</text>
</a>
</g>
</g>
<!-- Node2 -->
<g id="node2" class="node">
<title>Node2</title>
<g id="a_node2"><a xlink:href="classJ2DWindow.html" target="_top" xlink:title=" ">
<polygon fill="white" stroke="#666666" points="1175,-535 1107,-535 1107,-516 1175,-516 1175,-535"/>
<text text-anchor="middle" x="1141" y="-523" font-family="Helvetica,sans-Serif" font-size="10.00">J2DWindow</text>
</a>
</g>
</g>
<!-- Node2&#45;&gt;Node1 -->
<g id="edge1" class="edge">
<title>Node2&#45;&gt;Node1</title>
<path fill="none" stroke="#63b8ff" d="M1150.68,-505.22C1184.43,-426.32 1306.29,-141.44 1330.36,-85.19"/>
<polygon fill="#63b8ff" stroke="#63b8ff" points="1147.51,-503.72 1146.79,-514.29 1153.95,-506.47 1147.51,-503.72"/>
</g>
<!-- Node3 -->
<g id="node3" class="node">
<title>Node3</title>
<g id="a_node3"><a xlink:href="structJ2DPane.html" target="_top" xlink:title=" ">
<polygon fill="white" stroke="#666666" points="970,-478 914,-478 914,-459 970,-459 970,-478"/>
<text text-anchor="middle" x="942" y="-466" font-family="Helvetica,sans-Serif" font-size="10.00">J2DPane</text>
</a>
</g>
</g>
<!-- Node3&#45;&gt;Node2 -->
<g id="edge2" class="edge">
<title>Node3&#45;&gt;Node2</title>
<path fill="none" stroke="#63b8ff" d="M981.07,-479.52C1017.47,-490.05 1071.82,-505.77 1106.59,-515.83"/>
<polygon fill="#63b8ff" stroke="#63b8ff" points="982.42,-476.26 971.85,-476.85 980.48,-482.99 982.42,-476.26"/>
</g>
<!-- Node4 -->
<g id="node4" class="node">
<title>Node4</title>
<g id="a_node4"><a xlink:href="structJGeometry_1_1TBox2.html" target="_top" xlink:title=" ">
<polygon fill="white" stroke="#666666" points="735,-545 609,-545 609,-526 735,-526 735,-545"/>
<text text-anchor="middle" x="672" y="-533" font-family="Helvetica,sans-Serif" font-size="10.00">JGeometry::TBox2&lt; f32 &gt;</text>
</a>
</g>
</g>
<!-- Node4&#45;&gt;Node2 -->
<g id="edge21" class="edge">
<title>Node4&#45;&gt;Node2</title>
<path fill="none" stroke="#9a32cd" stroke-dasharray="5,2" d="M746.72,-533.92C849.61,-531.72 1032.03,-527.81 1106.71,-526.21"/>
<polygon fill="#9a32cd" stroke="#9a32cd" points="746.93,-530.42 737.01,-534.13 747.08,-537.41 746.93,-530.42"/>
<text text-anchor="middle" x="942" y="-534.5" font-family="Helvetica,sans-Serif" font-size="10.00"> field_0x114</text>
</g>
<!-- Node4&#45;&gt;Node3 -->
<g id="edge3" class="edge">
<title>Node4&#45;&gt;Node3</title>
<path fill="none" stroke="#9a32cd" stroke-dasharray="5,2" d="M694.25,-518.76C709.65,-507.59 731.46,-493.7 753,-486.5 807.89,-468.16 876.46,-466.55 913.75,-467.32"/>
<polygon fill="#9a32cd" stroke="#9a32cd" points="692.24,-515.89 686.34,-524.69 696.44,-521.49 692.24,-515.89"/>
<text text-anchor="middle" x="815.5" y="-522.5" font-family="Helvetica,sans-Serif" font-size="10.00"> mBounds</text>
<text text-anchor="middle" x="815.5" y="-511.5" font-family="Helvetica,sans-Serif" font-size="10.00">mClipRect</text>
<text text-anchor="middle" x="815.5" y="-500.5" font-family="Helvetica,sans-Serif" font-size="10.00">mGlobalBounds</text>
<text text-anchor="middle" x="815.5" y="-489.5" font-family="Helvetica,sans-Serif" font-size="10.00">static_mBounds</text>
</g>
<!-- Node5 -->
<g id="node5" class="node">
<title>Node5</title>
<g id="a_node5"><a xlink:href="structJGeometry_1_1TBox.html" target="_top" xlink:title=" ">
<polygon fill="white" stroke="#666666" points="479,-550.5 351,-550.5 351,-520.5 479,-520.5 479,-550.5"/>
<text text-anchor="start" x="359" y="-538.5" font-family="Helvetica,sans-Serif" font-size="10.00">JGeometry::TBox&lt; TVec2</text>
<text text-anchor="middle" x="415" y="-527.5" font-family="Helvetica,sans-Serif" font-size="10.00">&lt; T &gt; &gt;</text>
</a>
</g>
</g>
<!-- Node5&#45;&gt;Node4 -->
<g id="edge4" class="edge">
<title>Node5&#45;&gt;Node4</title>
<path fill="none" stroke="#63b8ff" d="M490.75,-535.5C528.29,-535.5 573.23,-535.5 608.85,-535.5"/>
<polygon fill="#63b8ff" stroke="#63b8ff" points="490.87,-532 480.87,-535.5 490.87,-539 490.87,-532"/>
</g>
<!-- Node6 -->
<g id="node6" class="node">
<title>Node6</title>
<g id="a_node6"><a xlink:href="classJSUTree.html" target="_top" xlink:title=" ">
<polygon fill="white" stroke="#666666" points="728,-462 616,-462 616,-443 728,-443 728,-462"/>
<text text-anchor="middle" x="672" y="-450" font-family="Helvetica,sans-Serif" font-size="10.00">JSUTree&lt; J2DPane &gt;</text>
</a>
</g>
</g>
<!-- Node6&#45;&gt;Node3 -->
<g id="edge5" class="edge">
<title>Node6&#45;&gt;Node3</title>
<path fill="none" stroke="#9a32cd" stroke-dasharray="5,2" d="M739.76,-448.33C779.96,-446.85 832.1,-446.76 878,-452.5 889.87,-453.98 902.71,-456.98 913.68,-459.99"/>
<polygon fill="#9a32cd" stroke="#9a32cd" points="739.84,-444.82 729.99,-448.73 740.13,-451.82 739.84,-444.82"/>
<text text-anchor="middle" x="815.5" y="-455.5" font-family="Helvetica,sans-Serif" font-size="10.00"> mPaneTree</text>
</g>
<!-- Node7 -->
<g id="node7" class="node">
<title>Node7</title>
<g id="a_node7"><a xlink:href="classJSUList.html" target="_top" xlink:title=" ">
<polygon fill="white" stroke="#666666" points="330,-462 255,-462 255,-443 330,-443 330,-462"/>
<text text-anchor="middle" x="292.5" y="-450" font-family="Helvetica,sans-Serif" font-size="10.00">JSUList&lt; T &gt;</text>
</a>
</g>
</g>
<!-- Node7&#45;&gt;Node6 -->
<g id="edge6" class="edge">
<title>Node7&#45;&gt;Node6</title>
<path fill="none" stroke="#63b8ff" d="M341.52,-452.5C411.65,-452.5 541.77,-452.5 615.77,-452.5"/>
<polygon fill="#63b8ff" stroke="#63b8ff" points="341.9,-449 331.9,-452.5 341.9,-456 341.9,-449"/>
</g>
<!-- Node8 -->
<g id="node8" class="node">
<title>Node8</title>
<g id="a_node8"><a xlink:href="classJSUPtrList.html" target="_top" xlink:title=" ">
<polygon fill="white" stroke="#666666" points="65,-495 0,-495 0,-476 65,-476 65,-495"/>
<text text-anchor="middle" x="32.5" y="-483" font-family="Helvetica,sans-Serif" font-size="10.00">JSUPtrList</text>
</a>
</g>
</g>
<!-- Node8&#45;&gt;Node7 -->
<g id="edge7" class="edge">
<title>Node8&#45;&gt;Node7</title>
<path fill="none" stroke="#63b8ff" d="M76.8,-479.37C94.8,-476.86 115.9,-473.98 135,-471.5 175.99,-466.19 223.07,-460.53 254.8,-456.79"/>
<polygon fill="#63b8ff" stroke="#63b8ff" points="76.4,-475.89 66.98,-480.74 77.37,-482.82 76.4,-475.89"/>
</g>
<!-- Node9 -->
<g id="node9" class="node">
<title>Node9</title>
<g id="a_node9"><a xlink:href="classJSUPtrLink.html" target="_top" xlink:title=" ">
<polygon fill="white" stroke="#666666" points="220,-500 152,-500 152,-481 220,-481 220,-500"/>
<text text-anchor="middle" x="186" y="-488" font-family="Helvetica,sans-Serif" font-size="10.00">JSUPtrLink</text>
</a>
</g>
</g>
<!-- Node8&#45;&gt;Node9 -->
<g id="edge9" class="edge">
<title>Node8&#45;&gt;Node9</title>
<path fill="none" stroke="#9a32cd" stroke-dasharray="5,2" d="M76.77,-484.58C78.88,-484.55 80.96,-484.52 83,-484.5 98.11,-484.35 101.9,-483.84 117,-484.5 128.37,-485 140.77,-485.97 151.84,-486.98"/>
<polygon fill="#9a32cd" stroke="#9a32cd" points="76.91,-481.07 66.97,-484.74 77.02,-488.07 76.91,-481.07"/>
<text text-anchor="middle" x="100" y="-487.5" font-family="Helvetica,sans-Serif" font-size="10.00"> mList</text>
</g>
<!-- Node9&#45;&gt;Node8 -->
<g id="edge8" class="edge">
<title>Node9&#45;&gt;Node8</title>
<path fill="none" stroke="#9a32cd" stroke-dasharray="5,2" d="M140.55,-497.16C122.63,-498.91 101.8,-499.75 83,-497.5 77.21,-496.81 71.11,-495.67 65.25,-494.37"/>
<polygon fill="#9a32cd" stroke="#9a32cd" points="140.79,-500.66 150.34,-496.07 140.02,-493.7 140.79,-500.66"/>
<text text-anchor="middle" x="100" y="-513.5" font-family="Helvetica,sans-Serif" font-size="10.00"> mHead</text>
<text text-anchor="middle" x="100" y="-502.5" font-family="Helvetica,sans-Serif" font-size="10.00">mTail</text>
</g>
<!-- Node9&#45;&gt;Node9 -->
<g id="edge10" class="edge">
<title>Node9&#45;&gt;Node9</title>
<path fill="none" stroke="#9a32cd" stroke-dasharray="5,2" d="M170.91,-511.76C172.94,-515.44 177.97,-518 186,-518 201.12,-518 205.61,-508.94 199.46,-500.37"/>
<polygon fill="#9a32cd" stroke="#9a32cd" points="174.37,-512.26 172.32,-501.87 167.44,-511.27 174.37,-512.26"/>
<text text-anchor="middle" x="186" y="-532" font-family="Helvetica,sans-Serif" font-size="10.00"> mNext</text>
<text text-anchor="middle" x="186" y="-521" font-family="Helvetica,sans-Serif" font-size="10.00">mPrev</text>
</g>
<!-- Node10 -->
<g id="node10" class="node">
<title>Node10</title>
<g id="a_node10"><a xlink:href="classJSULink.html" target="_top" xlink:title=" ">
<polygon fill="white" stroke="#666666" points="453.5,-500 376.5,-500 376.5,-481 453.5,-481 453.5,-500"/>
<text text-anchor="middle" x="415" y="-488" font-family="Helvetica,sans-Serif" font-size="10.00">JSULink&lt; T &gt;</text>
</a>
</g>
</g>
<!-- Node9&#45;&gt;Node10 -->
<g id="edge12" class="edge">
<title>Node9&#45;&gt;Node10</title>
<path fill="none" stroke="#63b8ff" d="M231.82,-490.5C274,-490.5 336.47,-490.5 376.2,-490.5"/>
<polygon fill="#63b8ff" stroke="#63b8ff" points="232.01,-487 222.01,-490.5 232.01,-494 232.01,-487"/>
</g>
<!-- Node10&#45;&gt;Node6 -->
<g id="edge11" class="edge">
<title>Node10&#45;&gt;Node6</title>
<path fill="none" stroke="#63b8ff" d="M465.32,-484.23C500.42,-479.65 548.67,-473.1 591,-466.5 598.94,-465.26 607.31,-463.88 615.53,-462.48"/>
<polygon fill="#63b8ff" stroke="#63b8ff" points="464.92,-480.75 455.45,-485.51 465.82,-487.7 464.92,-480.75"/>
</g>
<!-- Node11 -->
<g id="node11" class="node">
<title>Node11</title>
<g id="a_node11"><a xlink:href="structJ2DAnmTransform.html" target="_top" xlink:title=" ">
<polygon fill="white" stroke="#666666" points="721,-383 623,-383 623,-364 721,-364 721,-383"/>
<text text-anchor="middle" x="672" y="-371" font-family="Helvetica,sans-Serif" font-size="10.00">J2DAnmTransform</text>
</a>
</g>
</g>
<!-- Node11&#45;&gt;Node3 -->
<g id="edge13" class="edge">
<title>Node11&#45;&gt;Node3</title>
<path fill="none" stroke="#9a32cd" stroke-dasharray="5,2" d="M732.5,-370.22C784.39,-368.51 854.86,-369.33 878,-384.5 892.96,-394.31 885.78,-405.82 896,-420.5 906.05,-434.93 920.3,-449.37 930.05,-458.59"/>
<polygon fill="#9a32cd" stroke="#9a32cd" points="732.46,-366.72 722.59,-370.59 732.72,-373.72 732.46,-366.72"/>
<text text-anchor="middle" x="815.5" y="-387.5" font-family="Helvetica,sans-Serif" font-size="10.00"> mTransform</text>
</g>
<!-- Node12 -->
<g id="node12" class="node">
<title>Node12</title>
<g id="a_node12"><a xlink:href="structJ2DAnmBase.html" target="_top" xlink:title=" ">
<polygon fill="white" stroke="#666666" points="453.5,-124 376.5,-124 376.5,-105 453.5,-105 453.5,-124"/>
<text text-anchor="middle" x="415" y="-112" font-family="Helvetica,sans-Serif" font-size="10.00">J2DAnmBase</text>
</a>
</g>
</g>
<!-- Node12&#45;&gt;Node11 -->
<g id="edge14" class="edge">
<title>Node12&#45;&gt;Node11</title>
<path fill="none" stroke="#63b8ff" d="M438.84,-131.35C453.19,-143.08 471.01,-159.9 482,-178.5 497.46,-204.68 484.43,-218.38 500,-244.5 534.29,-302.01 552.72,-312.22 609,-348.5 618.46,-354.6 629.66,-359.67 639.91,-363.61"/>
<polygon fill="#63b8ff" stroke="#63b8ff" points="441.23,-128.78 431.2,-125.35 436.9,-134.28 441.23,-128.78"/>
</g>
<!-- Node37 -->
<g id="node37" class="node">
<title>Node37</title>
<g id="a_node37"><a xlink:href="structJ2DMaterial_1_1J2DMaterialAnmPointer.html" target="_top" xlink:title=" ">
<polygon fill="white" stroke="#666666" points="878,-153.5 753,-153.5 753,-123.5 878,-123.5 878,-153.5"/>
<text text-anchor="start" x="761" y="-141.5" font-family="Helvetica,sans-Serif" font-size="10.00">J2DMaterial::J2DMaterial</text>
<text text-anchor="middle" x="815.5" y="-130.5" font-family="Helvetica,sans-Serif" font-size="10.00">AnmPointer</text>
</a>
</g>
</g>
<!-- Node12&#45;&gt;Node37 -->
<g id="edge43" class="edge">
<title>Node12&#45;&gt;Node37</title>
<path fill="none" stroke="#9a32cd" stroke-dasharray="5,2" d="M464.92,-117.45C537.43,-121.81 673.36,-130 752.67,-134.78"/>
<polygon fill="#9a32cd" stroke="#9a32cd" points="465.55,-113.98 455.36,-116.87 465.13,-120.97 465.55,-113.98"/>
<text text-anchor="middle" x="545.5" y="-161.5" font-family="Helvetica,sans-Serif" font-size="10.00"> field_0x0</text>
<text text-anchor="middle" x="545.5" y="-150.5" font-family="Helvetica,sans-Serif" font-size="10.00">field_0x4</text>
<text text-anchor="middle" x="545.5" y="-139.5" font-family="Helvetica,sans-Serif" font-size="10.00">field_0x8</text>
<text text-anchor="middle" x="545.5" y="-128.5" font-family="Helvetica,sans-Serif" font-size="10.00">field_0xc</text>
</g>
<!-- Node38 -->
<g id="node38" class="node">
<title>Node38</title>
<g id="a_node38"><a xlink:href="structJ2DAnmVisibilityFull.html" target="_top" xlink:title=" ">
<polygon fill="white" stroke="#666666" points="725,-69 619,-69 619,-50 725,-50 725,-69"/>
<text text-anchor="middle" x="672" y="-57" font-family="Helvetica,sans-Serif" font-size="10.00">J2DAnmVisibilityFull</text>
</a>
</g>
</g>
<!-- Node12&#45;&gt;Node38 -->
<g id="edge45" class="edge">
<title>Node12&#45;&gt;Node38</title>
<path fill="none" stroke="#63b8ff" d="M464.77,-107.42C500.05,-101.92 548.74,-93.55 591,-83.5 607.65,-79.54 625.94,-74.13 640.83,-69.45"/>
<polygon fill="#63b8ff" stroke="#63b8ff" points="464.66,-103.89 455.31,-108.87 465.72,-110.81 464.66,-103.89"/>
</g>
<!-- Node40 -->
<g id="node40" class="node">
<title>Node40</title>
<g id="a_node40"><a xlink:href="structJ2DAnmVtxColor.html" target="_top" xlink:title=" ">
<polygon fill="white" stroke="#666666" points="717.5,-31 626.5,-31 626.5,-12 717.5,-12 717.5,-31"/>
<text text-anchor="middle" x="672" y="-19" font-family="Helvetica,sans-Serif" font-size="10.00">J2DAnmVtxColor</text>
</a>
</g>
</g>
<!-- Node12&#45;&gt;Node40 -->
<g id="edge48" class="edge">
<title>Node12&#45;&gt;Node40</title>
<path fill="none" stroke="#63b8ff" d="M455.83,-101.01C469.78,-96.35 485.56,-91.13 500,-86.5 540.3,-73.59 554.75,-80.33 591,-58.5 600.69,-52.66 599.3,-46.33 609,-40.5 614.98,-36.9 621.7,-33.93 628.45,-31.5"/>
<polygon fill="#63b8ff" stroke="#63b8ff" points="454.9,-97.63 446.54,-104.13 457.13,-104.27 454.9,-97.63"/>
</g>
<!-- Node13 -->
<g id="node13" class="node">
<title>Node13</title>
<g id="a_node13"><a xlink:href="classJUTTexture.html" target="_top" xlink:title=" ">
<polygon fill="white" stroke="#666666" points="976,-607 908,-607 908,-588 976,-588 976,-607"/>
<text text-anchor="middle" x="942" y="-595" font-family="Helvetica,sans-Serif" font-size="10.00">JUTTexture</text>
</a>
</g>
</g>
<!-- Node13&#45;&gt;Node2 -->
<g id="edge15" class="edge">
<title>Node13&#45;&gt;Node2</title>
<path fill="none" stroke="#9a32cd" stroke-dasharray="5,2" d="M987.7,-589.36C1017.25,-583.07 1056.4,-572.97 1089,-558.5 1102.88,-552.34 1117.28,-542.67 1127.23,-535.39"/>
<polygon fill="#9a32cd" stroke="#9a32cd" points="987.05,-585.92 977.96,-591.36 988.46,-592.78 987.05,-585.92"/>
<text text-anchor="middle" x="1047.5" y="-632.5" font-family="Helvetica,sans-Serif" font-size="10.00"> field_0x100</text>
<text text-anchor="middle" x="1047.5" y="-621.5" font-family="Helvetica,sans-Serif" font-size="10.00">field_0x104</text>
<text text-anchor="middle" x="1047.5" y="-610.5" font-family="Helvetica,sans-Serif" font-size="10.00">field_0x108</text>
<text text-anchor="middle" x="1047.5" y="-599.5" font-family="Helvetica,sans-Serif" font-size="10.00">field_0x10c</text>
<text text-anchor="middle" x="1047.5" y="-588.5" font-family="Helvetica,sans-Serif" font-size="10.00">field_0x110</text>
</g>
<!-- Node14 -->
<g id="node14" class="node">
<title>Node14</title>
<g id="a_node14"><a xlink:href="struct__GXTexObj.html" target="_top" xlink:title=" ">
<polygon fill="white" stroke="#666666" points="705.5,-585 638.5,-585 638.5,-566 705.5,-566 705.5,-585"/>
<text text-anchor="middle" x="672" y="-573" font-family="Helvetica,sans-Serif" font-size="10.00">_GXTexObj</text>
</a>
</g>
</g>
<!-- Node14&#45;&gt;Node13 -->
<g id="edge16" class="edge">
<title>Node14&#45;&gt;Node13</title>
<path fill="none" stroke="#9a32cd" stroke-dasharray="5,2" d="M717.14,-576.35C758.74,-577.51 822.77,-580.22 878,-586.5 887.71,-587.6 898.19,-589.25 907.76,-590.93"/>
<polygon fill="#9a32cd" stroke="#9a32cd" points="717.36,-572.85 707.28,-576.09 717.18,-579.85 717.36,-572.85"/>
<text text-anchor="middle" x="815.5" y="-589.5" font-family="Helvetica,sans-Serif" font-size="10.00"> mTexObj</text>
</g>
<!-- Node15 -->
<g id="node15" class="node">
<title>Node15</title>
<g id="a_node15"><a xlink:href="structResTIMG.html" target="_top" xlink:title=" ">
<polygon fill="white" stroke="#666666" points="701.5,-622 642.5,-622 642.5,-603 701.5,-603 701.5,-622"/>
<text text-anchor="middle" x="672" y="-610" font-family="Helvetica,sans-Serif" font-size="10.00">ResTIMG</text>
</a>
</g>
</g>
<!-- Node15&#45;&gt;Node13 -->
<g id="edge17" class="edge">
<title>Node15&#45;&gt;Node13</title>
<path fill="none" stroke="#9a32cd" stroke-dasharray="5,2" d="M713.24,-610.25C766.19,-607.28 858.29,-602.13 907.59,-599.37"/>
<polygon fill="#9a32cd" stroke="#9a32cd" points="713.24,-606.74 703.45,-610.8 713.63,-613.73 713.24,-606.74"/>
<text text-anchor="middle" x="815.5" y="-611.5" font-family="Helvetica,sans-Serif" font-size="10.00"> mTexInfo</text>
</g>
<!-- Node16 -->
<g id="node16" class="node">
<title>Node16</title>
<g id="a_node16"><a xlink:href="classJUTPalette.html" target="_top" xlink:title=" ">
<polygon fill="white" stroke="#666666" points="705,-676 639,-676 639,-657 705,-657 705,-676"/>
<text text-anchor="middle" x="672" y="-664" font-family="Helvetica,sans-Serif" font-size="10.00">JUTPalette</text>
</a>
</g>
</g>
<!-- Node16&#45;&gt;Node2 -->
<g id="edge22" class="edge">
<title>Node16&#45;&gt;Node2</title>
<path fill="none" stroke="#9a32cd" stroke-dasharray="5,2" d="M716.48,-678.45C798.38,-698.17 977.3,-727.59 1089,-644.5 1125.61,-617.27 1136.23,-558.4 1139.05,-535.19"/>
<polygon fill="#9a32cd" stroke="#9a32cd" points="717.37,-675.07 706.82,-676.05 715.68,-681.86 717.37,-675.07"/>
<text text-anchor="middle" x="942" y="-703.5" font-family="Helvetica,sans-Serif" font-size="10.00"> mPalette</text>
</g>
<!-- Node16&#45;&gt;Node13 -->
<g id="edge18" class="edge">
<title>Node16&#45;&gt;Node13</title>
<path fill="none" stroke="#9a32cd" stroke-dasharray="5,2" d="M716.22,-655.17C728.1,-652.19 741.02,-649.1 753,-646.5 808.21,-634.53 823.82,-639.47 878,-623.5 892.41,-619.25 908.03,-612.82 920.11,-607.42"/>
<polygon fill="#9a32cd" stroke="#9a32cd" points="715.5,-651.74 706.67,-657.59 717.22,-658.52 715.5,-651.74"/>
<text text-anchor="middle" x="815.5" y="-660.5" font-family="Helvetica,sans-Serif" font-size="10.00"> field_0x2c</text>
<text text-anchor="middle" x="815.5" y="-649.5" font-family="Helvetica,sans-Serif" font-size="10.00">mEmbPalette</text>
</g>
<!-- Node17 -->
<g id="node17" class="node">
<title>Node17</title>
<g id="a_node17"><a xlink:href="struct__GXTlutObj.html" target="_top" xlink:title=" ">
<polygon fill="white" stroke="#666666" points="449,-657 381,-657 381,-638 449,-638 449,-657"/>
<text text-anchor="middle" x="415" y="-645" font-family="Helvetica,sans-Serif" font-size="10.00">_GXTlutObj</text>
</a>
</g>
</g>
<!-- Node17&#45;&gt;Node16 -->
<g id="edge19" class="edge">
<title>Node17&#45;&gt;Node16</title>
<path fill="none" stroke="#9a32cd" stroke-dasharray="5,2" d="M460.65,-649.37C496.04,-651.02 546.73,-653.75 591,-657.5 606.74,-658.83 624.17,-660.74 638.73,-662.46"/>
<polygon fill="#9a32cd" stroke="#9a32cd" points="460.92,-645.88 450.77,-648.92 460.6,-652.88 460.92,-645.88"/>
<text text-anchor="middle" x="545.5" y="-660.5" font-family="Helvetica,sans-Serif" font-size="10.00"> mTlutObj</text>
</g>
<!-- Node18 -->
<g id="node18" class="node">
<title>Node18</title>
<g id="a_node18"><a xlink:href="structResTLUT.html" target="_top" xlink:title=" ">
<polygon fill="white" stroke="#666666" points="444.5,-694 385.5,-694 385.5,-675 444.5,-675 444.5,-694"/>
<text text-anchor="middle" x="415" y="-682" font-family="Helvetica,sans-Serif" font-size="10.00">ResTLUT</text>
</a>
</g>
</g>
<!-- Node18&#45;&gt;Node16 -->
<g id="edge20" class="edge">
<title>Node18&#45;&gt;Node16</title>
<path fill="none" stroke="#9a32cd" stroke-dasharray="5,2" d="M456.18,-681.66C506.67,-678.1 592.32,-672.05 638.75,-668.78"/>
<polygon fill="#9a32cd" stroke="#9a32cd" points="455.99,-678.17 446.27,-682.36 456.49,-685.15 455.99,-678.17"/>
<text text-anchor="middle" x="545.5" y="-681.5" font-family="Helvetica,sans-Serif" font-size="10.00"> mColorTable</text>
</g>
<!-- Node19 -->
<g id="node19" class="node">
<title>Node19</title>
<g id="a_node19"><a xlink:href="structJUtility_1_1TColor.html" target="_top" xlink:title=" ">
<polygon fill="white" stroke="#666666" points="712,-303 632,-303 632,-284 712,-284 712,-303"/>
<text text-anchor="middle" x="672" y="-291" font-family="Helvetica,sans-Serif" font-size="10.00">JUtility::TColor</text>
</a>
</g>
</g>
<!-- Node19&#45;&gt;Node2 -->
<g id="edge23" class="edge">
<title>Node19&#45;&gt;Node2</title>
<path fill="none" stroke="#9a32cd" stroke-dasharray="5,2" d="M722.6,-304.57C726.98,-306.52 731.19,-308.81 735,-311.5 746.19,-319.4 741.49,-329.09 753,-336.5 842.55,-394.16 893.25,-334.84 988,-383.5 1054.5,-417.65 1112.84,-489.42 1132.73,-515.64"/>
<polygon fill="#9a32cd" stroke="#9a32cd" points="724.18,-301.43 713.59,-301.14 721.7,-307.97 724.18,-301.43"/>
<text text-anchor="middle" x="942" y="-441.5" font-family="Helvetica,sans-Serif" font-size="10.00"> field_0x128</text>
<text text-anchor="middle" x="942" y="-430.5" font-family="Helvetica,sans-Serif" font-size="10.00">field_0x12C</text>
<text text-anchor="middle" x="942" y="-419.5" font-family="Helvetica,sans-Serif" font-size="10.00">field_0x130</text>
<text text-anchor="middle" x="942" y="-408.5" font-family="Helvetica,sans-Serif" font-size="10.00">field_0x134</text>
<text text-anchor="middle" x="942" y="-397.5" font-family="Helvetica,sans-Serif" font-size="10.00">mBlack</text>
<text text-anchor="middle" x="942" y="-386.5" font-family="Helvetica,sans-Serif" font-size="10.00">mWhite</text>
</g>
<!-- Node22 -->
<g id="node22" class="node">
<title>Node22</title>
<g id="a_node22"><a xlink:href="classJ2DColorBlock.html" target="_top" xlink:title=" ">
<polygon fill="white" stroke="#666666" points="982.5,-266 901.5,-266 901.5,-247 982.5,-247 982.5,-266"/>
<text text-anchor="middle" x="942" y="-254" font-family="Helvetica,sans-Serif" font-size="10.00">J2DColorBlock</text>
</a>
</g>
</g>
<!-- Node19&#45;&gt;Node22 -->
<g id="edge27" class="edge">
<title>Node19&#45;&gt;Node22</title>
<path fill="none" stroke="#9a32cd" stroke-dasharray="5,2" d="M723.61,-288.28C765.18,-283.77 825.54,-276.69 878,-268.5 885.48,-267.33 893.43,-265.94 901.08,-264.52"/>
<polygon fill="#9a32cd" stroke="#9a32cd" points="723.48,-284.77 713.91,-289.32 724.23,-291.73 723.48,-284.77"/>
<text text-anchor="middle" x="815.5" y="-288.5" font-family="Helvetica,sans-Serif" font-size="10.00"> mMatColor</text>
</g>
<!-- Node20 -->
<g id="node20" class="node">
<title>Node20</title>
<g id="a_node20"><a xlink:href="struct__GXColor.html" target="_top" xlink:title=" ">
<polygon fill="white" stroke="#666666" points="441.5,-303 388.5,-303 388.5,-284 441.5,-284 441.5,-303"/>
<text text-anchor="middle" x="415" y="-291" font-family="Helvetica,sans-Serif" font-size="10.00">GXColor</text>
</a>
</g>
</g>
<!-- Node20&#45;&gt;Node19 -->
<g id="edge24" class="edge">
<title>Node20&#45;&gt;Node19</title>
<path fill="none" stroke="#63b8ff" d="M453.19,-293.5C500.87,-293.5 583.18,-293.5 631.81,-293.5"/>
<polygon fill="#63b8ff" stroke="#63b8ff" points="453.37,-290 443.37,-293.5 453.37,-297 453.37,-290"/>
</g>
<!-- Node21 -->
<g id="node21" class="node">
<title>Node21</title>
<g id="a_node21"><a xlink:href="classJ2DMaterial.html" target="_top" xlink:title=" ">
<polygon fill="white" stroke="#666666" points="1175,-190 1107,-190 1107,-171 1175,-171 1175,-190"/>
<text text-anchor="middle" x="1141" y="-178" font-family="Helvetica,sans-Serif" font-size="10.00">J2DMaterial</text>
</a>
</g>
</g>
<!-- Node21&#45;&gt;Node1 -->
<g id="edge25" class="edge">
<title>Node21&#45;&gt;Node1</title>
<path fill="none" stroke="#9a32cd" stroke-dasharray="5,2" d="M1170.02,-165.22C1210.06,-143.37 1282.55,-103.84 1316.3,-85.43"/>
<polygon fill="#9a32cd" stroke="#9a32cd" points="1168.54,-162.04 1161.44,-169.9 1171.89,-168.18 1168.54,-162.04"/>
<text text-anchor="middle" x="1235.5" y="-166.5" font-family="Helvetica,sans-Serif" font-size="10.00"> mContentsMaterial</text>
<text text-anchor="middle" x="1235.5" y="-155.5" font-family="Helvetica,sans-Serif" font-size="10.00">mFrameMaterial</text>
</g>
<!-- Node22&#45;&gt;Node21 -->
<g id="edge26" class="edge">
<title>Node22&#45;&gt;Node21</title>
<path fill="none" stroke="#9a32cd" stroke-dasharray="5,2" d="M994.07,-252.14C1023.12,-248.1 1059.47,-240.36 1089,-225.5 1106.3,-216.8 1122.36,-200.78 1131.68,-190.39"/>
<polygon fill="#9a32cd" stroke="#9a32cd" points="993.91,-248.63 984.43,-253.37 994.79,-255.58 993.91,-248.63"/>
<text text-anchor="middle" x="1047.5" y="-253.5" font-family="Helvetica,sans-Serif" font-size="10.00"> mColorBlock</text>
</g>
<!-- Node23 -->
<g id="node23" class="node">
<title>Node23</title>
<g id="a_node23"><a xlink:href="classJ2DColorChan.html" target="_top" xlink:title=" ">
<polygon fill="white" stroke="#666666" points="711.5,-266 632.5,-266 632.5,-247 711.5,-247 711.5,-266"/>
<text text-anchor="middle" x="672" y="-254" font-family="Helvetica,sans-Serif" font-size="10.00">J2DColorChan</text>
</a>
</g>
</g>
<!-- Node23&#45;&gt;Node22 -->
<g id="edge28" class="edge">
<title>Node23&#45;&gt;Node22</title>
<path fill="none" stroke="#9a32cd" stroke-dasharray="5,2" d="M723.48,-256.5C774.97,-256.5 853.82,-256.5 901.11,-256.5"/>
<polygon fill="#9a32cd" stroke="#9a32cd" points="723.48,-253 713.48,-256.5 723.48,-260 723.48,-253"/>
<text text-anchor="middle" x="815.5" y="-259.5" font-family="Helvetica,sans-Serif" font-size="10.00"> mColorChan</text>
</g>
<!-- Node24 -->
<g id="node24" class="node">
<title>Node24</title>
<g id="a_node24"><a xlink:href="classJ2DTexGenBlock.html" target="_top" xlink:title=" ">
<polygon fill="white" stroke="#666666" points="988,-229 896,-229 896,-210 988,-210 988,-229"/>
<text text-anchor="middle" x="942" y="-217" font-family="Helvetica,sans-Serif" font-size="10.00">J2DTexGenBlock</text>
</a>
</g>
</g>
<!-- Node24&#45;&gt;Node21 -->
<g id="edge29" class="edge">
<title>Node24&#45;&gt;Node21</title>
<path fill="none" stroke="#9a32cd" stroke-dasharray="5,2" d="M999.54,-211.15C1026.71,-206.79 1059.68,-201.02 1089,-194.5 1094.74,-193.22 1100.79,-191.71 1106.65,-190.16"/>
<polygon fill="#9a32cd" stroke="#9a32cd" points="999.1,-207.67 989.77,-212.69 1000.19,-214.59 999.1,-207.67"/>
<text text-anchor="middle" x="1047.5" y="-213.5" font-family="Helvetica,sans-Serif" font-size="10.00"> mTexGenBlock</text>
</g>
<!-- Node25 -->
<g id="node25" class="node">
<title>Node25</title>
<g id="a_node25"><a xlink:href="classJ2DTexCoord.html" target="_top" xlink:title=" ">
<polygon fill="white" stroke="#666666" points="709.5,-192 634.5,-192 634.5,-173 709.5,-173 709.5,-192"/>
<text text-anchor="middle" x="672" y="-180" font-family="Helvetica,sans-Serif" font-size="10.00">J2DTexCoord</text>
</a>
</g>
</g>
<!-- Node25&#45;&gt;Node24 -->
<g id="edge30" class="edge">
<title>Node25&#45;&gt;Node24</title>
<path fill="none" stroke="#9a32cd" stroke-dasharray="5,2" d="M721.32,-185.95C763.02,-189.33 824.75,-195.34 878,-204.5 885.98,-205.87 894.45,-207.66 902.51,-209.52"/>
<polygon fill="#9a32cd" stroke="#9a32cd" points="721.61,-182.46 711.36,-185.16 721.06,-189.44 721.61,-182.46"/>
<text text-anchor="middle" x="815.5" y="-207.5" font-family="Helvetica,sans-Serif" font-size="10.00"> mTexGenCoord</text>
</g>
<!-- Node26 -->
<g id="node26" class="node">
<title>Node26</title>
<g id="a_node26"><a xlink:href="structJ2DTexCoordInfo.html" target="_top" xlink:title=" ">
<polygon fill="white" stroke="#666666" points="461,-207 369,-207 369,-188 461,-188 461,-207"/>
<text text-anchor="middle" x="415" y="-195" font-family="Helvetica,sans-Serif" font-size="10.00">J2DTexCoordInfo</text>
</a>
</g>
</g>
<!-- Node26&#45;&gt;Node25 -->
<g id="edge31" class="edge">
<title>Node26&#45;&gt;Node25</title>
<path fill="none" stroke="#9a32cd" stroke-dasharray="5,2" d="M472.74,-194.16C522.08,-191.26 592.11,-187.14 634.38,-184.65"/>
<polygon fill="#9a32cd" stroke="#9a32cd" points="472.58,-190.67 462.81,-194.75 472.99,-197.65 472.58,-190.67"/>
<text text-anchor="middle" x="545.5" y="-195.5" font-family="Helvetica,sans-Serif" font-size="10.00"> mTexCoordInfo</text>
</g>
<!-- Node27 -->
<g id="node27" class="node">
<title>Node27</title>
<g id="a_node27"><a xlink:href="classJ2DTexMtx.html" target="_top" xlink:title=" ">
<polygon fill="white" stroke="#666666" points="704.5,-229 639.5,-229 639.5,-210 704.5,-210 704.5,-229"/>
<text text-anchor="middle" x="672" y="-217" font-family="Helvetica,sans-Serif" font-size="10.00">J2DTexMtx</text>
</a>
</g>
</g>
<!-- Node27&#45;&gt;Node24 -->
<g id="edge32" class="edge">
<title>Node27&#45;&gt;Node24</title>
<path fill="none" stroke="#9a32cd" stroke-dasharray="5,2" d="M716.02,-219.5C765.3,-219.5 845.7,-219.5 895.85,-219.5"/>
<polygon fill="#9a32cd" stroke="#9a32cd" points="716.31,-216 706.31,-219.5 716.31,-223 716.31,-216"/>
<text text-anchor="middle" x="815.5" y="-222.5" font-family="Helvetica,sans-Serif" font-size="10.00"> mTexMtx</text>
</g>
<!-- Node28 -->
<g id="node28" class="node">
<title>Node28</title>
<g id="a_node28"><a xlink:href="structJ2DTexMtxInfo.html" target="_top" xlink:title=" ">
<polygon fill="white" stroke="#666666" points="456,-244 374,-244 374,-225 456,-225 456,-244"/>
<text text-anchor="middle" x="415" y="-232" font-family="Helvetica,sans-Serif" font-size="10.00">J2DTexMtxInfo</text>
</a>
</g>
</g>
<!-- Node28&#45;&gt;Node27 -->
<g id="edge33" class="edge">
<title>Node28&#45;&gt;Node27</title>
<path fill="none" stroke="#9a32cd" stroke-dasharray="5,2" d="M467.6,-231.46C518.98,-228.44 596.24,-223.9 639.24,-221.37"/>
<polygon fill="#9a32cd" stroke="#9a32cd" points="467.69,-227.95 457.92,-232.03 468.1,-234.94 467.69,-227.95"/>
<text text-anchor="middle" x="545.5" y="-232.5" font-family="Helvetica,sans-Serif" font-size="10.00"> mInfo</text>
</g>
<!-- Node29 -->
<g id="node29" class="node">
<title>Node29</title>
<g id="a_node29"><a xlink:href="structVec.html" target="_top" xlink:title=" ">
<polygon fill="white" stroke="#666666" points="203,-262 169,-262 169,-243 203,-243 203,-262"/>
<text text-anchor="middle" x="186" y="-250" font-family="Helvetica,sans-Serif" font-size="10.00">Vec</text>
</a>
</g>
</g>
<!-- Node29&#45;&gt;Node28 -->
<g id="edge34" class="edge">
<title>Node29&#45;&gt;Node28</title>
<path fill="none" stroke="#9a32cd" stroke-dasharray="5,2" d="M214.76,-250.3C254.59,-247.14 328.16,-241.31 373.89,-237.68"/>
<polygon fill="#9a32cd" stroke="#9a32cd" points="214.53,-246.81 204.83,-251.09 215.08,-253.78 214.53,-246.81"/>
<text text-anchor="middle" x="292.5" y="-250.5" font-family="Helvetica,sans-Serif" font-size="10.00"> mCenter</text>
</g>
<!-- Node30 -->
<g id="node30" class="node">
<title>Node30</title>
<g id="a_node30"><a xlink:href="structJ2DTextureSRTInfo.html" target="_top" xlink:title=" ">
<polygon fill="white" stroke="#666666" points="237,-225 135,-225 135,-206 237,-206 237,-225"/>
<text text-anchor="middle" x="186" y="-213" font-family="Helvetica,sans-Serif" font-size="10.00">J2DTextureSRTInfo</text>
</a>
</g>
</g>
<!-- Node30&#45;&gt;Node28 -->
<g id="edge35" class="edge">
<title>Node30&#45;&gt;Node28</title>
<path fill="none" stroke="#9a32cd" stroke-dasharray="5,2" d="M248.59,-219.99C273.83,-221.9 303.32,-224.2 330,-226.5 344.3,-227.73 359.97,-229.19 373.85,-230.53"/>
<polygon fill="#9a32cd" stroke="#9a32cd" points="249.06,-216.52 238.82,-219.26 248.53,-223.5 249.06,-216.52"/>
<text text-anchor="middle" x="292.5" y="-229.5" font-family="Helvetica,sans-Serif" font-size="10.00"> mTexSRTInfo</text>
</g>
<!-- Node31 -->
<g id="node31" class="node">
<title>Node31</title>
<g id="a_node31"><a xlink:href="classJ2DTevBlock.html" target="_top" xlink:title=" ">
<polygon fill="white" stroke="#666666" points="979.5,-144 904.5,-144 904.5,-125 979.5,-125 979.5,-144"/>
<text text-anchor="middle" x="942" y="-132" font-family="Helvetica,sans-Serif" font-size="10.00">J2DTevBlock</text>
</a>
</g>
</g>
<!-- Node31&#45;&gt;Node21 -->
<g id="edge36" class="edge">
<title>Node31&#45;&gt;Node21</title>
<path fill="none" stroke="#9a32cd" stroke-dasharray="5,2" d="M991.41,-137.64C1020.24,-140.45 1057.28,-145.71 1089,-155.5 1100.87,-159.16 1113.41,-165.28 1123.09,-170.54"/>
<polygon fill="#9a32cd" stroke="#9a32cd" points="991.78,-134.16 981.5,-136.75 991.15,-141.13 991.78,-134.16"/>
<text text-anchor="middle" x="1047.5" y="-158.5" font-family="Helvetica,sans-Serif" font-size="10.00"> mTevBlock</text>
</g>
<!-- Node32 -->
<g id="node32" class="node">
<title>Node32</title>
<g id="a_node32"><a xlink:href="classJ2DIndBlock.html" target="_top" xlink:title=" ">
<polygon fill="white" stroke="#666666" points="978,-107 906,-107 906,-88 978,-88 978,-107"/>
<text text-anchor="middle" x="942" y="-95" font-family="Helvetica,sans-Serif" font-size="10.00">J2DIndBlock</text>
</a>
</g>
</g>
<!-- Node32&#45;&gt;Node21 -->
<g id="edge37" class="edge">
<title>Node32&#45;&gt;Node21</title>
<path fill="none" stroke="#9a32cd" stroke-dasharray="5,2" d="M989.88,-98.58C1019.86,-101.04 1058.67,-107.64 1089,-124.5 1109.23,-135.75 1125.75,-158 1134.1,-170.81"/>
<polygon fill="#9a32cd" stroke="#9a32cd" points="990.17,-95.09 979.96,-97.91 989.7,-102.08 990.17,-95.09"/>
<text text-anchor="middle" x="1047.5" y="-127.5" font-family="Helvetica,sans-Serif" font-size="10.00"> mIndBlock</text>
</g>
<!-- Node33 -->
<g id="node33" class="node">
<title>Node33</title>
<g id="a_node33"><a xlink:href="classJ2DPEBlock.html" target="_top" xlink:title=" ">
<polygon fill="white" stroke="#666666" points="977.5,-314 906.5,-314 906.5,-295 977.5,-295 977.5,-314"/>
<text text-anchor="middle" x="942" y="-302" font-family="Helvetica,sans-Serif" font-size="10.00">J2DPEBlock</text>
</a>
</g>
</g>
<!-- Node33&#45;&gt;Node21 -->
<g id="edge38" class="edge">
<title>Node33&#45;&gt;Node21</title>
<path fill="none" stroke="#9a32cd" stroke-dasharray="5,2" d="M989.11,-301.16C1019.98,-296.9 1060.11,-287.27 1089,-265.5 1115.25,-245.72 1130.72,-208.14 1136.88,-190.33"/>
<polygon fill="#9a32cd" stroke="#9a32cd" points="988.78,-297.67 979.27,-302.36 989.62,-304.62 988.78,-297.67"/>
<text text-anchor="middle" x="1047.5" y="-301.5" font-family="Helvetica,sans-Serif" font-size="10.00"> mPEBlock</text>
</g>
<!-- Node34 -->
<g id="node34" class="node">
<title>Node34</title>
<g id="a_node34"><a xlink:href="structJ2DAlphaComp.html" target="_top" xlink:title=" ">
<polygon fill="white" stroke="#666666" points="714,-340 630,-340 630,-321 714,-321 714,-340"/>
<text text-anchor="middle" x="672" y="-328" font-family="Helvetica,sans-Serif" font-size="10.00">J2DAlphaComp</text>
</a>
</g>
</g>
<!-- Node34&#45;&gt;Node33 -->
<g id="edge39" class="edge">
<title>Node34&#45;&gt;Node33</title>
<path fill="none" stroke="#9a32cd" stroke-dasharray="5,2" d="M725.57,-325.4C778.95,-320.22 860.12,-312.35 906.07,-307.89"/>
<polygon fill="#9a32cd" stroke="#9a32cd" points="725.41,-321.9 715.79,-326.35 726.09,-328.87 725.41,-321.9"/>
<text text-anchor="middle" x="815.5" y="-325.5" font-family="Helvetica,sans-Serif" font-size="10.00"> mAlphaComp</text>
</g>
<!-- Node35 -->
<g id="node35" class="node">
<title>Node35</title>
<g id="a_node35"><a xlink:href="structJ2DBlend.html" target="_top" xlink:title=" ">
<polygon fill="white" stroke="#666666" points="701.5,-425 642.5,-425 642.5,-406 701.5,-406 701.5,-425"/>
<text text-anchor="middle" x="672" y="-413" font-family="Helvetica,sans-Serif" font-size="10.00">J2DBlend</text>
</a>
</g>
</g>
<!-- Node35&#45;&gt;Node33 -->
<g id="edge40" class="edge">
<title>Node35&#45;&gt;Node33</title>
<path fill="none" stroke="#9a32cd" stroke-dasharray="5,2" d="M712.86,-423.81C758.3,-430.81 832.19,-434.3 878,-395.5 901.53,-375.57 876.81,-352.64 896,-328.5 900.74,-322.54 907.37,-317.87 914.09,-314.31"/>
<polygon fill="#9a32cd" stroke="#9a32cd" points="713.61,-420.39 703.17,-422.18 712.45,-427.29 713.61,-420.39"/>
<text text-anchor="middle" x="815.5" y="-431.5" font-family="Helvetica,sans-Serif" font-size="10.00"> mBlend</text>
</g>
<!-- Node36 -->
<g id="node36" class="node">
<title>Node36</title>
<g id="a_node36"><a xlink:href="structJ2DBlendInfo.html" target="_top" xlink:title=" ">
<polygon fill="white" stroke="#666666" points="452.5,-424 377.5,-424 377.5,-405 452.5,-405 452.5,-424"/>
<text text-anchor="middle" x="415" y="-412" font-family="Helvetica,sans-Serif" font-size="10.00">J2DBlendInfo</text>
</a>
</g>
</g>
<!-- Node36&#45;&gt;Node35 -->
<g id="edge41" class="edge">
<title>Node36&#45;&gt;Node35</title>
<path fill="none" stroke="#9a32cd" stroke-dasharray="5,2" d="M464.17,-414.69C516.63,-414.89 598.83,-415.22 642.11,-415.39"/>
<polygon fill="#9a32cd" stroke="#9a32cd" points="464.33,-411.19 454.32,-414.65 464.31,-418.19 464.33,-411.19"/>
<text text-anchor="middle" x="545.5" y="-418.5" font-family="Helvetica,sans-Serif" font-size="10.00"> mBlendInfo</text>
</g>
<!-- Node37&#45;&gt;Node21 -->
<g id="edge42" class="edge">
<title>Node37&#45;&gt;Node21</title>
<path fill="none" stroke="#9a32cd" stroke-dasharray="5,2" d="M889.37,-151.47C891.6,-151.83 893.82,-152.17 896,-152.5 971.04,-163.88 1059.69,-172.97 1106.75,-177.45"/>
<polygon fill="#9a32cd" stroke="#9a32cd" points="890.01,-148.03 879.58,-149.89 888.89,-154.94 890.01,-148.03"/>
<text text-anchor="middle" x="942" y="-168.5" font-family="Helvetica,sans-Serif" font-size="10.00"> mAnmPointer</text>
</g>
<!-- Node38&#45;&gt;Node1 -->
<g id="edge44" class="edge">
<title>Node38&#45;&gt;Node1</title>
<path fill="none" stroke="#9a32cd" stroke-dasharray="5,2" d="M736.86,-61.04C872.56,-64.33 1186.17,-71.91 1295.81,-74.56"/>
<polygon fill="#9a32cd" stroke="#9a32cd" points="737.05,-57.55 726.97,-60.81 736.89,-64.55 737.05,-57.55"/>
<text text-anchor="middle" x="1047.5" y="-73.5" font-family="Helvetica,sans-Serif" font-size="10.00"> mAnmVisibilityFull</text>
</g>
<!-- Node39 -->
<g id="node39" class="node">
<title>Node39</title>
<g id="a_node39"><a xlink:href="structJ3DAnmVisibilityFullTable.html" target="_top" xlink:title=" ">
<polygon fill="white" stroke="#666666" points="480,-56 350,-56 350,-37 480,-37 480,-56"/>
<text text-anchor="middle" x="415" y="-44" font-family="Helvetica,sans-Serif" font-size="10.00">J3DAnmVisibilityFullTable</text>
</a>
</g>
</g>
<!-- Node39&#45;&gt;Node38 -->
<g id="edge46" class="edge">
<title>Node39&#45;&gt;Node38</title>
<path fill="none" stroke="#9a32cd" stroke-dasharray="5,2" d="M491.64,-50.36C532.56,-52.44 582.06,-54.97 618.69,-56.83"/>
<polygon fill="#9a32cd" stroke="#9a32cd" points="492.02,-46.87 481.86,-49.86 491.67,-53.86 492.02,-46.87"/>
<text text-anchor="middle" x="545.5" y="-58.5" font-family="Helvetica,sans-Serif" font-size="10.00"> mTable</text>
</g>
<!-- Node40&#45;&gt;Node1 -->
<g id="edge47" class="edge">
<title>Node40&#45;&gt;Node1</title>
<path fill="none" stroke="#9a32cd" stroke-dasharray="5,2" d="M729.31,-24.98C836.34,-31.79 1076.46,-48.03 1278,-68.5 1283.7,-69.08 1289.72,-69.76 1295.62,-70.45"/>
<polygon fill="#9a32cd" stroke="#9a32cd" points="729.56,-21.49 719.36,-24.35 729.11,-28.47 729.56,-21.49"/>
<text text-anchor="middle" x="1047.5" y="-54.5" font-family="Helvetica,sans-Serif" font-size="10.00"> mAnmVtxColor</text>
</g>
<!-- Node41 -->
<g id="node41" class="node">
<title>Node41</title>
<g id="a_node41"><a xlink:href="structJ3DAnmVtxColorIndexData.html" target="_top" xlink:title=" ">
<polygon fill="white" stroke="#666666" points="482,-19 348,-19 348,0 482,0 482,-19"/>
<text text-anchor="middle" x="415" y="-7" font-family="Helvetica,sans-Serif" font-size="10.00">J3DAnmVtxColorIndexData</text>
</a>
</g>
</g>
<!-- Node41&#45;&gt;Node40 -->
<g id="edge49" class="edge">
<title>Node41&#45;&gt;Node40</title>
<path fill="none" stroke="#9a32cd" stroke-dasharray="5,2" d="M493.52,-9.99C523.94,-10.52 559.13,-11.55 591,-13.5 602.42,-14.2 614.74,-15.27 626.2,-16.41"/>
<polygon fill="#9a32cd" stroke="#9a32cd" points="493.68,-6.5 483.63,-9.84 493.57,-13.49 493.68,-6.5"/>
<text text-anchor="middle" x="545.5" y="-16.5" font-family="Helvetica,sans-Serif" font-size="10.00"> mVtxColorIndexData</text>
</g>
</g>
</svg>
