<?xml version="1.0" encoding="UTF-8" standalone="no"?>
<!DOCTYPE svg PUBLIC "-//W3C//DTD SVG 1.1//EN"
 "http://www.w3.org/Graphics/SVG/1.1/DTD/svg11.dtd">
<!-- Generated by graphviz version 7.0.5 (20221223.1930)
 -->
<!-- Title: JAUSectionHeap::TSectionHeapData Pages: 1 -->
<svg width="2366pt" height="646pt"
 viewBox="0.00 0.00 2366.00 646.33" xmlns="http://www.w3.org/2000/svg" xmlns:xlink="http://www.w3.org/1999/xlink">
<g id="graph0" class="graph" transform="scale(1 1) rotate(0) translate(4 642.33)">
<title>JAUSectionHeap::TSectionHeapData</title>
<!-- Node1 -->
<g id="node1" class="node">
<title>Node1</title>
<g id="a_node1"><a xlink:title=" ">
<polygon fill="#999999" stroke="#666666" points="2358,-456.83 2222,-456.83 2222,-426.83 2358,-426.83 2358,-456.83"/>
<text text-anchor="start" x="2230" y="-444.83" font-family="Helvetica,sans-Serif" font-size="10.00">JAUSectionHeap::TSection</text>
<text text-anchor="middle" x="2290" y="-433.83" font-family="Helvetica,sans-Serif" font-size="10.00">HeapData</text>
</a>
</g>
</g>
<!-- Node2 -->
<g id="node2" class="node">
<title>Node2</title>
<g id="a_node2"><a xlink:href="classJAUWaveBankTable.html" target="_top" xlink:title=" ">
<polygon fill="white" stroke="#666666" points="2090,-525.33 1983,-525.33 1983,-506.33 2090,-506.33 2090,-525.33"/>
<text text-anchor="middle" x="2036.5" y="-513.33" font-family="Helvetica,sans-Serif" font-size="10.00">JAUWaveBankTable</text>
</a>
</g>
</g>
<!-- Node2&#45;&gt;Node1 -->
<g id="edge1" class="edge">
<title>Node2&#45;&gt;Node1</title>
<path fill="none" stroke="#9a32cd" stroke-dasharray="5,2" d="M2101.68,-506.41C2133,-500.89 2170.96,-492.81 2204,-481.83 2223.5,-475.36 2244.4,-465.56 2260.59,-457.29"/>
<polygon fill="#9a32cd" stroke="#9a32cd" points="2101.22,-502.94 2091.95,-508.08 2102.4,-509.84 2101.22,-502.94"/>
<text text-anchor="middle" x="2164.5" y="-503.83" font-family="Helvetica,sans-Serif" font-size="10.00"> waveBankTable</text>
</g>
<!-- Node3 -->
<g id="node3" class="node">
<title>Node3</title>
<g id="a_node3"><a xlink:href="classJASPtrArray.html" target="_top" xlink:title=" ">
<polygon fill="white" stroke="#666666" points="1822,-608.83 1674,-608.83 1674,-578.83 1822,-578.83 1822,-608.83"/>
<text text-anchor="start" x="1682" y="-596.83" font-family="Helvetica,sans-Serif" font-size="10.00">JASPtrArray&lt; JASWaveBank,</text>
<text text-anchor="middle" x="1748" y="-585.83" font-family="Helvetica,sans-Serif" font-size="10.00"> 255 &gt;</text>
</a>
</g>
</g>
<!-- Node3&#45;&gt;Node2 -->
<g id="edge2" class="edge">
<title>Node3&#45;&gt;Node2</title>
<path fill="none" stroke="#8b1a1a" d="M1833.06,-597.39C1870.93,-595.22 1914.54,-587.11 1948,-564.83 1960.94,-556.21 1953.61,-544.23 1966,-534.83 1970.98,-531.05 1976.67,-528.03 1982.6,-525.6"/>
<polygon fill="#8b1a1a" stroke="#8b1a1a" points="1833.38,-593.88 1823.54,-597.81 1833.68,-600.87 1833.38,-593.88"/>
</g>
<!-- Node4 -->
<g id="node4" class="node">
<title>Node4</title>
<g id="a_node4"><a xlink:href="classJASPtrTable.html" target="_top" xlink:title=" ">
<polygon fill="white" stroke="#666666" points="1520.5,-638.33 1425.5,-638.33 1425.5,-619.33 1520.5,-619.33 1520.5,-638.33"/>
<text text-anchor="middle" x="1473" y="-626.33" font-family="Helvetica,sans-Serif" font-size="10.00">JASPtrTable&lt; T &gt;</text>
</a>
</g>
</g>
<!-- Node4&#45;&gt;Node3 -->
<g id="edge3" class="edge">
<title>Node4&#45;&gt;Node3</title>
<path fill="none" stroke="#63b8ff" d="M1532.19,-621.37C1573.53,-616.07 1629.36,-608.91 1673.74,-603.22"/>
<polygon fill="#63b8ff" stroke="#63b8ff" points="1531.91,-617.88 1522.43,-622.62 1532.8,-624.82 1531.91,-617.88"/>
</g>
<!-- Node5 -->
<g id="node5" class="node">
<title>Node5</title>
<g id="a_node5"><a xlink:href="classJASWaveBank.html" target="_top" xlink:title=" ">
<polygon fill="white" stroke="#666666" points="1514.5,-601.33 1431.5,-601.33 1431.5,-582.33 1514.5,-582.33 1514.5,-601.33"/>
<text text-anchor="middle" x="1473" y="-589.33" font-family="Helvetica,sans-Serif" font-size="10.00">JASWaveBank</text>
</a>
</g>
</g>
<!-- Node5&#45;&gt;Node3 -->
<g id="edge4" class="edge">
<title>Node5&#45;&gt;Node3</title>
<path fill="none" stroke="#9a32cd" stroke-dasharray="5,2" d="M1526.18,-592.21C1567.98,-592.52 1627.12,-592.95 1673.68,-593.3"/>
<polygon fill="#9a32cd" stroke="#9a32cd" points="1526.41,-588.72 1516.38,-592.14 1526.36,-595.72 1526.41,-588.72"/>
<text text-anchor="middle" x="1591.5" y="-595.83" font-family="Helvetica,sans-Serif" font-size="10.00"> mArray</text>
</g>
<!-- Node6 -->
<g id="node6" class="node">
<title>Node6</title>
<g id="a_node6"><a xlink:href="structJAISeqDataUser.html" target="_top" xlink:title=" ">
<polygon fill="white" stroke="#666666" points="2081.5,-488.33 1991.5,-488.33 1991.5,-469.33 2081.5,-469.33 2081.5,-488.33"/>
<text text-anchor="middle" x="2036.5" y="-476.33" font-family="Helvetica,sans-Serif" font-size="10.00">JAISeqDataUser</text>
</a>
</g>
</g>
<!-- Node6&#45;&gt;Node1 -->
<g id="edge5" class="edge">
<title>Node6&#45;&gt;Node1</title>
<path fill="none" stroke="#9a32cd" stroke-dasharray="5,2" d="M2092.81,-472.13C2125.25,-468.05 2167.01,-462.54 2204,-456.83 2209.78,-455.94 2215.76,-454.97 2221.77,-453.97"/>
<polygon fill="#9a32cd" stroke="#9a32cd" points="2092.74,-468.62 2083.25,-473.33 2093.6,-475.56 2092.74,-468.62"/>
<text text-anchor="middle" x="2164.5" y="-469.83" font-family="Helvetica,sans-Serif" font-size="10.00"> seqDataUser</text>
</g>
<!-- Node7 -->
<g id="node7" class="node">
<title>Node7</title>
<g id="a_node7"><a xlink:href="classJAUDynamicSeqDataBlocks.html" target="_top" xlink:title=" ">
<polygon fill="white" stroke="#666666" points="2107,-451.33 1966,-451.33 1966,-432.33 2107,-432.33 2107,-451.33"/>
<text text-anchor="middle" x="2036.5" y="-439.33" font-family="Helvetica,sans-Serif" font-size="10.00">JAUDynamicSeqDataBlocks</text>
</a>
</g>
</g>
<!-- Node7&#45;&gt;Node1 -->
<g id="edge6" class="edge">
<title>Node7&#45;&gt;Node1</title>
<path fill="none" stroke="#9a32cd" stroke-dasharray="5,2" d="M2118.34,-441.83C2151.71,-441.83 2189.94,-441.83 2221.75,-441.83"/>
<polygon fill="#9a32cd" stroke="#9a32cd" points="2118.74,-438.33 2108.74,-441.83 2118.74,-445.33 2118.74,-438.33"/>
<text text-anchor="middle" x="2164.5" y="-444.83" font-family="Helvetica,sans-Serif" font-size="10.00"> seqDataBlocks</text>
</g>
<!-- Node8 -->
<g id="node8" class="node">
<title>Node8</title>
<g id="a_node8"><a xlink:href="classJAUSeqDataBlocks.html" target="_top" xlink:title=" ">
<polygon fill="white" stroke="#666666" points="931,-559.33 827,-559.33 827,-540.33 931,-540.33 931,-559.33"/>
<text text-anchor="middle" x="879" y="-547.33" font-family="Helvetica,sans-Serif" font-size="10.00">JAUSeqDataBlocks</text>
</a>
</g>
</g>
<!-- Node8&#45;&gt;Node7 -->
<g id="edge7" class="edge">
<title>Node8&#45;&gt;Node7</title>
<path fill="none" stroke="#9a32cd" stroke-dasharray="5,2" d="M942.74,-550.24C991.16,-550.51 1059.82,-550.83 1120,-550.83 1120,-550.83 1120,-550.83 1749,-550.83 1853.41,-550.83 1867.22,-494.67 1966,-460.83 1975.47,-457.59 1985.8,-454.52 1995.54,-451.83"/>
<polygon fill="#9a32cd" stroke="#9a32cd" points="943.03,-546.74 933.01,-550.18 942.99,-553.74 943.03,-546.74"/>
<text text-anchor="middle" x="1344.5" y="-575.83" font-family="Helvetica,sans-Serif" font-size="10.00"> field_0xc</text>
<text text-anchor="middle" x="1344.5" y="-564.83" font-family="Helvetica,sans-Serif" font-size="10.00">mFreeBlocks</text>
<text text-anchor="middle" x="1344.5" y="-553.83" font-family="Helvetica,sans-Serif" font-size="10.00">mLoadedBlocks</text>
</g>
<!-- Node9 -->
<g id="node9" class="node">
<title>Node9</title>
<g id="a_node9"><a xlink:href="classJSUList.html" target="_top" xlink:title=" ">
<polygon fill="white" stroke="#666666" points="286,-557.33 135,-557.33 135,-538.33 286,-538.33 286,-557.33"/>
<text text-anchor="middle" x="210.5" y="-545.33" font-family="Helvetica,sans-Serif" font-size="10.00">JSUList&lt; JAUSeqDataBlock &gt;</text>
</a>
</g>
</g>
<!-- Node9&#45;&gt;Node8 -->
<g id="edge8" class="edge">
<title>Node9&#45;&gt;Node8</title>
<path fill="none" stroke="#63b8ff" d="M297.46,-548.09C438.05,-548.51 712.9,-549.34 826.74,-549.68"/>
<polygon fill="#63b8ff" stroke="#63b8ff" points="297.86,-544.59 287.85,-548.06 297.84,-551.59 297.86,-544.59"/>
</g>
<!-- Node10 -->
<g id="node10" class="node">
<title>Node10</title>
<g id="a_node10"><a xlink:href="classJSUPtrList.html" target="_top" xlink:title=" ">
<polygon fill="white" stroke="#666666" points="65,-446.33 0,-446.33 0,-427.33 65,-427.33 65,-446.33"/>
<text text-anchor="middle" x="32.5" y="-434.33" font-family="Helvetica,sans-Serif" font-size="10.00">JSUPtrList</text>
</a>
</g>
</g>
<!-- Node10&#45;&gt;Node9 -->
<g id="edge9" class="edge">
<title>Node10&#45;&gt;Node9</title>
<path fill="none" stroke="#63b8ff" d="M39.74,-457.36C46.9,-477.29 60.63,-506.8 83,-522.83 98.01,-533.59 116.49,-540.01 134.63,-543.77"/>
<polygon fill="#63b8ff" stroke="#63b8ff" points="43.14,-456.48 36.67,-448.09 36.5,-458.69 43.14,-456.48"/>
</g>
<!-- Node11 -->
<g id="node11" class="node">
<title>Node11</title>
<g id="a_node11"><a xlink:href="classJSUPtrLink.html" target="_top" xlink:title=" ">
<polygon fill="white" stroke="#666666" points="244.5,-437.33 176.5,-437.33 176.5,-418.33 244.5,-418.33 244.5,-437.33"/>
<text text-anchor="middle" x="210.5" y="-425.33" font-family="Helvetica,sans-Serif" font-size="10.00">JSUPtrLink</text>
</a>
</g>
</g>
<!-- Node10&#45;&gt;Node11 -->
<g id="edge11" class="edge">
<title>Node10&#45;&gt;Node11</title>
<path fill="none" stroke="#9a32cd" stroke-dasharray="5,2" d="M66.46,-423.06C71.9,-421.31 77.55,-419.79 83,-418.83 114.33,-413.31 150.6,-416.89 176.24,-421.06"/>
<polygon fill="#9a32cd" stroke="#9a32cd" points="65.39,-419.73 57.14,-426.38 67.74,-426.32 65.39,-419.73"/>
<text text-anchor="middle" x="100" y="-421.83" font-family="Helvetica,sans-Serif" font-size="10.00"> mList</text>
</g>
<!-- Node24 -->
<g id="node24" class="node">
<title>Node24</title>
<g id="a_node24"><a xlink:href="classJSUList.html" target="_top" xlink:title=" ">
<polygon fill="white" stroke="#666666" points="404.5,-372.33 329.5,-372.33 329.5,-353.33 404.5,-353.33 404.5,-372.33"/>
<text text-anchor="middle" x="367" y="-360.33" font-family="Helvetica,sans-Serif" font-size="10.00">JSUList&lt; T &gt;</text>
</a>
</g>
</g>
<!-- Node10&#45;&gt;Node24 -->
<g id="edge33" class="edge">
<title>Node10&#45;&gt;Node24</title>
<path fill="none" stroke="#63b8ff" d="M59.94,-421.67C67.23,-417.99 75.26,-414.39 83,-411.83 168.68,-383.48 274.67,-370.72 329.42,-365.68"/>
<polygon fill="#63b8ff" stroke="#63b8ff" points="58.45,-418.5 51.26,-426.28 61.73,-424.68 58.45,-418.5"/>
</g>
<!-- Node26 -->
<g id="node26" class="node">
<title>Node26</title>
<g id="a_node26"><a xlink:href="classJSUList.html" target="_top" xlink:title=" ">
<polygon fill="white" stroke="#666666" points="430,-342.33 304,-342.33 304,-323.33 430,-323.33 430,-342.33"/>
<text text-anchor="middle" x="367" y="-330.33" font-family="Helvetica,sans-Serif" font-size="10.00">JSUList&lt; JKRDisposer &gt;</text>
</a>
</g>
</g>
<!-- Node10&#45;&gt;Node26 -->
<g id="edge37" class="edge">
<title>Node10&#45;&gt;Node26</title>
<path fill="none" stroke="#63b8ff" d="M52.02,-419.25C71.14,-402.29 102.67,-377.51 135,-365.83 189.86,-346.01 256.1,-338.04 303.55,-334.87"/>
<polygon fill="#63b8ff" stroke="#63b8ff" points="49.83,-416.51 44.8,-425.84 54.54,-421.69 49.83,-416.51"/>
</g>
<!-- Node29 -->
<g id="node29" class="node">
<title>Node29</title>
<g id="a_node29"><a xlink:href="classJSUList.html" target="_top" xlink:title=" ">
<polygon fill="white" stroke="#666666" points="677,-519.33 543,-519.33 543,-500.33 677,-500.33 677,-519.33"/>
<text text-anchor="middle" x="610" y="-507.33" font-family="Helvetica,sans-Serif" font-size="10.00">JSUList&lt; JKRFileLoader &gt;</text>
</a>
</g>
</g>
<!-- Node10&#45;&gt;Node29 -->
<g id="edge45" class="edge">
<title>Node10&#45;&gt;Node29</title>
<path fill="none" stroke="#63b8ff" d="M58.32,-452.66C78.21,-464.44 107.27,-479.66 135,-486.83 276.58,-523.45 449.7,-520.35 542.56,-515"/>
<polygon fill="#63b8ff" stroke="#63b8ff" points="60.2,-449.71 49.84,-447.5 56.56,-455.69 60.2,-449.71"/>
</g>
<!-- Node11&#45;&gt;Node10 -->
<g id="edge10" class="edge">
<title>Node11&#45;&gt;Node10</title>
<path fill="none" stroke="#9a32cd" stroke-dasharray="5,2" d="M164.69,-430.12C133.67,-431.71 93.13,-433.78 65.37,-435.2"/>
<polygon fill="#9a32cd" stroke="#9a32cd" points="164.75,-433.63 174.56,-429.62 164.39,-426.63 164.75,-433.63"/>
<text text-anchor="middle" x="100" y="-447.83" font-family="Helvetica,sans-Serif" font-size="10.00"> mHead</text>
<text text-anchor="middle" x="100" y="-436.83" font-family="Helvetica,sans-Serif" font-size="10.00">mTail</text>
</g>
<!-- Node11&#45;&gt;Node11 -->
<g id="edge12" class="edge">
<title>Node11&#45;&gt;Node11</title>
<path fill="none" stroke="#9a32cd" stroke-dasharray="5,2" d="M190.89,-448.76C193.34,-452.62 199.88,-455.33 210.5,-455.33 229.92,-455.33 235.69,-446.27 227.8,-437.7"/>
<polygon fill="#9a32cd" stroke="#9a32cd" points="194.27,-449.69 192.89,-439.18 187.42,-448.25 194.27,-449.69"/>
<text text-anchor="middle" x="210.5" y="-469.33" font-family="Helvetica,sans-Serif" font-size="10.00"> mNext</text>
<text text-anchor="middle" x="210.5" y="-458.33" font-family="Helvetica,sans-Serif" font-size="10.00">mPrev</text>
</g>
<!-- Node25 -->
<g id="node25" class="node">
<title>Node25</title>
<g id="a_node25"><a xlink:href="classJSULink.html" target="_top" xlink:title=" ">
<polygon fill="white" stroke="#666666" points="525,-399.33 448,-399.33 448,-380.33 525,-380.33 525,-399.33"/>
<text text-anchor="middle" x="486.5" y="-387.33" font-family="Helvetica,sans-Serif" font-size="10.00">JSULink&lt; T &gt;</text>
</a>
</g>
</g>
<!-- Node11&#45;&gt;Node25 -->
<g id="edge35" class="edge">
<title>Node11&#45;&gt;Node25</title>
<path fill="none" stroke="#63b8ff" d="M256.07,-420.91C271.27,-418.6 288.37,-416.05 304,-413.83 353.57,-406.8 410.84,-399.34 447.58,-394.64"/>
<polygon fill="#63b8ff" stroke="#63b8ff" points="255.73,-417.43 246.37,-422.4 256.78,-424.35 255.73,-417.43"/>
</g>
<!-- Node27 -->
<g id="node27" class="node">
<title>Node27</title>
<g id="a_node27"><a xlink:href="classJSULink.html" target="_top" xlink:title=" ">
<polygon fill="white" stroke="#666666" points="674,-437.33 546,-437.33 546,-418.33 674,-418.33 674,-437.33"/>
<text text-anchor="middle" x="610" y="-425.33" font-family="Helvetica,sans-Serif" font-size="10.00">JSULink&lt; JKRDisposer &gt;</text>
</a>
</g>
</g>
<!-- Node11&#45;&gt;Node27 -->
<g id="edge40" class="edge">
<title>Node11&#45;&gt;Node27</title>
<path fill="none" stroke="#63b8ff" d="M255.84,-427.83C326.41,-427.83 464.55,-427.83 545.57,-427.83"/>
<polygon fill="#63b8ff" stroke="#63b8ff" points="256.22,-424.33 246.22,-427.83 256.22,-431.33 256.22,-424.33"/>
</g>
<!-- Node28 -->
<g id="node28" class="node">
<title>Node28</title>
<g id="a_node28"><a xlink:href="classJSULink.html" target="_top" xlink:title=" ">
<polygon fill="white" stroke="#666666" points="1189,-472.33 1053,-472.33 1053,-453.33 1189,-453.33 1189,-472.33"/>
<text text-anchor="middle" x="1121" y="-460.33" font-family="Helvetica,sans-Serif" font-size="10.00">JSULink&lt; JKRFileLoader &gt;</text>
</a>
</g>
</g>
<!-- Node11&#45;&gt;Node28 -->
<g id="edge42" class="edge">
<title>Node11&#45;&gt;Node28</title>
<path fill="none" stroke="#63b8ff" d="M255.83,-437.81C309.79,-449.07 403.85,-465.83 485.5,-465.83 485.5,-465.83 485.5,-465.83 880,-465.83 938.23,-465.83 1004.41,-464.94 1052.5,-464.13"/>
<polygon fill="#63b8ff" stroke="#63b8ff" points="256.6,-434.4 246.1,-435.75 255.15,-441.25 256.6,-434.4"/>
</g>
<!-- Node12 -->
<g id="node12" class="node">
<title>Node12</title>
<g id="a_node12"><a xlink:href="structJKRArchive.html" target="_top" xlink:title=" ">
<polygon fill="white" stroke="#666666" points="1782,-451.33 1714,-451.33 1714,-432.33 1782,-432.33 1782,-451.33"/>
<text text-anchor="middle" x="1748" y="-439.33" font-family="Helvetica,sans-Serif" font-size="10.00">JKRArchive</text>
</a>
</g>
</g>
<!-- Node12&#45;&gt;Node7 -->
<g id="edge13" class="edge">
<title>Node12&#45;&gt;Node7</title>
<path fill="none" stroke="#9a32cd" stroke-dasharray="5,2" d="M1793.83,-441.83C1839.89,-441.83 1912.23,-441.83 1965.78,-441.83"/>
<polygon fill="#9a32cd" stroke="#9a32cd" points="1793.94,-438.33 1783.94,-441.83 1793.94,-445.33 1793.94,-438.33"/>
<text text-anchor="middle" x="1909.5" y="-444.83" font-family="Helvetica,sans-Serif" font-size="10.00"> seqDataArchive_</text>
</g>
<!-- Node13 -->
<g id="node13" class="node">
<title>Node13</title>
<g id="a_node13"><a xlink:href="structJKRFileLoader.html" target="_top" xlink:title=" ">
<polygon fill="white" stroke="#666666" points="1513.5,-418.33 1432.5,-418.33 1432.5,-399.33 1513.5,-399.33 1513.5,-418.33"/>
<text text-anchor="middle" x="1473" y="-406.33" font-family="Helvetica,sans-Serif" font-size="10.00">JKRFileLoader</text>
</a>
</g>
</g>
<!-- Node13&#45;&gt;Node12 -->
<g id="edge14" class="edge">
<title>Node13&#45;&gt;Node12</title>
<path fill="none" stroke="#63b8ff" d="M1525.28,-415.03C1580.52,-421.71 1666.79,-432.14 1713.77,-437.82"/>
<polygon fill="#63b8ff" stroke="#63b8ff" points="1525.84,-411.57 1515.49,-413.85 1525,-418.52 1525.84,-411.57"/>
</g>
<!-- Node13&#45;&gt;Node13 -->
<g id="edge43" class="edge">
<title>Node13&#45;&gt;Node13</title>
<path fill="none" stroke="#9a32cd" stroke-dasharray="5,2" d="M1451.97,-429.76C1454.6,-433.62 1461.61,-436.33 1473,-436.33 1493.83,-436.33 1500.01,-427.27 1491.55,-418.7"/>
<polygon fill="#9a32cd" stroke="#9a32cd" points="1455.34,-430.7 1454.12,-420.18 1448.51,-429.17 1455.34,-430.7"/>
<text text-anchor="middle" x="1473" y="-439.33" font-family="Helvetica,sans-Serif" font-size="10.00"> sCurrentVolume</text>
</g>
<!-- Node14 -->
<g id="node14" class="node">
<title>Node14</title>
<g id="a_node14"><a xlink:href="classJKRDisposer.html" target="_top" xlink:title=" ">
<polygon fill="white" stroke="#666666" points="1282,-414.33 1208,-414.33 1208,-395.33 1282,-395.33 1282,-414.33"/>
<text text-anchor="middle" x="1245" y="-402.33" font-family="Helvetica,sans-Serif" font-size="10.00">JKRDisposer</text>
</a>
</g>
</g>
<!-- Node14&#45;&gt;Node13 -->
<g id="edge15" class="edge">
<title>Node14&#45;&gt;Node13</title>
<path fill="none" stroke="#63b8ff" d="M1293.69,-405.68C1334.88,-406.41 1393.7,-407.45 1432.36,-408.13"/>
<polygon fill="#63b8ff" stroke="#63b8ff" points="1293.88,-402.18 1283.82,-405.5 1293.76,-409.18 1293.88,-402.18"/>
</g>
<!-- Node15 -->
<g id="node15" class="node">
<title>Node15</title>
<g id="a_node15"><a xlink:href="structJKRHeap.html" target="_top" xlink:title=" ">
<polygon fill="white" stroke="#666666" points="1021.5,-348.33 962.5,-348.33 962.5,-329.33 1021.5,-329.33 1021.5,-348.33"/>
<text text-anchor="middle" x="992" y="-336.33" font-family="Helvetica,sans-Serif" font-size="10.00">JKRHeap</text>
</a>
</g>
</g>
<!-- Node14&#45;&gt;Node15 -->
<g id="edge17" class="edge">
<title>Node14&#45;&gt;Node15</title>
<path fill="none" stroke="#63b8ff" d="M1196.15,-408.63C1156.36,-409.99 1099,-407.69 1053,-388.83 1031.42,-379.98 1011.75,-360.45 1001.17,-348.59"/>
<polygon fill="#63b8ff" stroke="#63b8ff" points="1196.3,-412.13 1206.14,-408.19 1195.99,-405.14 1196.3,-412.13"/>
</g>
<!-- Node15&#45;&gt;Node12 -->
<g id="edge46" class="edge">
<title>Node15&#45;&gt;Node12</title>
<path fill="none" stroke="#9a32cd" stroke-dasharray="5,2" d="M1033.37,-340.64C1124.35,-345.15 1352.11,-358.93 1540,-390.83 1602.03,-401.36 1672.96,-420.4 1713.62,-432"/>
<polygon fill="#9a32cd" stroke="#9a32cd" points="1033.63,-337.15 1023.47,-340.16 1033.29,-344.14 1033.63,-337.15"/>
<text text-anchor="middle" x="1344.5" y="-371.83" font-family="Helvetica,sans-Serif" font-size="10.00"> mHeap</text>
</g>
<!-- Node15&#45;&gt;Node14 -->
<g id="edge16" class="edge">
<title>Node15&#45;&gt;Node14</title>
<path fill="none" stroke="#9a32cd" stroke-dasharray="5,2" d="M1032.85,-350.01C1039.55,-351.73 1046.45,-353.41 1053,-354.83 1112.9,-367.86 1130.66,-359.02 1189,-377.83 1202.36,-382.14 1216.57,-389.19 1227.19,-395"/>
<polygon fill="#9a32cd" stroke="#9a32cd" points="1033.89,-346.67 1023.32,-347.5 1032.1,-353.44 1033.89,-346.67"/>
<text text-anchor="middle" x="1121" y="-380.83" font-family="Helvetica,sans-Serif" font-size="10.00"> mHeap</text>
</g>
<!-- Node15&#45;&gt;Node15 -->
<g id="edge38" class="edge">
<title>Node15&#45;&gt;Node15</title>
<path fill="none" stroke="#9a32cd" stroke-dasharray="5,2" d="M971.94,-359.76C974.45,-363.62 981.14,-366.33 992,-366.33 1011.86,-366.33 1017.76,-357.27 1009.69,-348.7"/>
<polygon fill="#9a32cd" stroke="#9a32cd" points="975.32,-360.69 973.99,-350.18 968.48,-359.23 975.32,-360.69"/>
<text text-anchor="middle" x="992" y="-391.33" font-family="Helvetica,sans-Serif" font-size="10.00"> sCurrentHeap</text>
<text text-anchor="middle" x="992" y="-380.33" font-family="Helvetica,sans-Serif" font-size="10.00">sRootHeap</text>
<text text-anchor="middle" x="992" y="-369.33" font-family="Helvetica,sans-Serif" font-size="10.00">sSystemHeap</text>
</g>
<!-- Node16 -->
<g id="node16" class="node">
<title>Node16</title>
<g id="a_node16"><a xlink:href="structOSMutex.html" target="_top" xlink:title=" ">
<polygon fill="white" stroke="#666666" points="780.5,-141.33 723.5,-141.33 723.5,-122.33 780.5,-122.33 780.5,-141.33"/>
<text text-anchor="middle" x="752" y="-129.33" font-family="Helvetica,sans-Serif" font-size="10.00">OSMutex</text>
</a>
</g>
</g>
<!-- Node16&#45;&gt;Node15 -->
<g id="edge18" class="edge">
<title>Node16&#45;&gt;Node15</title>
<path fill="none" stroke="#9a32cd" stroke-dasharray="5,2" d="M758.54,-152.59C767.63,-182.47 788.65,-237.16 827,-265.83 864.92,-294.18 888.5,-267.98 931,-288.83 951.69,-298.99 971.36,-317.7 982.24,-329.13"/>
<polygon fill="#9a32cd" stroke="#9a32cd" points="761.98,-151.89 755.86,-143.24 755.25,-153.82 761.98,-151.89"/>
<text text-anchor="middle" x="879" y="-291.83" font-family="Helvetica,sans-Serif" font-size="10.00"> mMutex</text>
</g>
<!-- Node18 -->
<g id="node18" class="node">
<title>Node18</title>
<g id="a_node18"><a xlink:href="structOSThread.html" target="_top" xlink:title=" ">
<polygon fill="white" stroke="#666666" points="1275.5,-199.33 1214.5,-199.33 1214.5,-180.33 1275.5,-180.33 1275.5,-199.33"/>
<text text-anchor="middle" x="1245" y="-187.33" font-family="Helvetica,sans-Serif" font-size="10.00">OSThread</text>
</a>
</g>
</g>
<!-- Node16&#45;&gt;Node18 -->
<g id="edge25" class="edge">
<title>Node16&#45;&gt;Node18</title>
<path fill="none" stroke="#9a32cd" stroke-dasharray="5,2" d="M792.06,-130.06C869.46,-127.64 1047.07,-127.47 1189,-167.83 1200.18,-171.01 1212.2,-175.67 1222.15,-179.88"/>
<polygon fill="#9a32cd" stroke="#9a32cd" points="792.34,-126.55 782.47,-130.4 792.58,-133.55 792.34,-126.55"/>
<text text-anchor="middle" x="992" y="-141.83" font-family="Helvetica,sans-Serif" font-size="10.00"> mutex</text>
</g>
<!-- Node21 -->
<g id="node21" class="node">
<title>Node21</title>
<g id="a_node21"><a xlink:href="structOSMutexQueue.html" target="_top" xlink:title=" ">
<polygon fill="white" stroke="#666666" points="1035,-180.33 949,-180.33 949,-161.33 1035,-161.33 1035,-180.33"/>
<text text-anchor="middle" x="992" y="-168.33" font-family="Helvetica,sans-Serif" font-size="10.00">OSMutexQueue</text>
</a>
</g>
</g>
<!-- Node16&#45;&gt;Node21 -->
<g id="edge27" class="edge">
<title>Node16&#45;&gt;Node21</title>
<path fill="none" stroke="#9a32cd" stroke-dasharray="5,2" d="M792,-139.48C803.28,-141.62 815.62,-143.89 827,-145.83 868.31,-152.89 915.64,-160 948.8,-164.82"/>
<polygon fill="#9a32cd" stroke="#9a32cd" points="792.68,-136.05 782.2,-137.6 791.37,-142.92 792.68,-136.05"/>
<text text-anchor="middle" x="879" y="-175.83" font-family="Helvetica,sans-Serif" font-size="10.00"> head</text>
<text text-anchor="middle" x="879" y="-164.83" font-family="Helvetica,sans-Serif" font-size="10.00">tail</text>
</g>
<!-- Node22 -->
<g id="node22" class="node">
<title>Node22</title>
<g id="a_node22"><a xlink:href="structOSMutexLink.html" target="_top" xlink:title=" ">
<polygon fill="white" stroke="#666666" points="1030,-40.33 954,-40.33 954,-21.33 1030,-21.33 1030,-40.33"/>
<text text-anchor="middle" x="992" y="-28.33" font-family="Helvetica,sans-Serif" font-size="10.00">OSMutexLink</text>
</a>
</g>
</g>
<!-- Node16&#45;&gt;Node22 -->
<g id="edge30" class="edge">
<title>Node16&#45;&gt;Node22</title>
<path fill="none" stroke="#9a32cd" stroke-dasharray="5,2" d="M758.93,-111.14C768.23,-83.02 789.21,-33.83 827,-12.83 872.57,12.49 936.23,-7.29 969.23,-20.84"/>
<polygon fill="#9a32cd" stroke="#9a32cd" points="755.6,-110.05 756,-120.64 762.29,-112.11 755.6,-110.05"/>
<text text-anchor="middle" x="879" y="-26.83" font-family="Helvetica,sans-Serif" font-size="10.00"> next</text>
<text text-anchor="middle" x="879" y="-15.83" font-family="Helvetica,sans-Serif" font-size="10.00">prev</text>
</g>
<!-- Node17 -->
<g id="node17" class="node">
<title>Node17</title>
<g id="a_node17"><a xlink:href="structOSThreadQueue.html" target="_top" xlink:title=" ">
<polygon fill="white" stroke="#666666" points="1517.5,-128.33 1428.5,-128.33 1428.5,-109.33 1517.5,-109.33 1517.5,-128.33"/>
<text text-anchor="middle" x="1473" y="-116.33" font-family="Helvetica,sans-Serif" font-size="10.00">OSThreadQueue</text>
</a>
</g>
</g>
<!-- Node17&#45;&gt;Node16 -->
<g id="edge19" class="edge">
<title>Node17&#45;&gt;Node16</title>
<path fill="none" stroke="#9a32cd" stroke-dasharray="5,2" d="M1425.15,-106.3C1413.13,-103.62 1400.16,-101.19 1388,-99.83 1349.57,-95.54 1339.65,-98.77 1301,-99.83 1090.1,-105.61 1037.5,-111.53 827,-125.83 811.7,-126.87 794.63,-128.24 780.75,-129.41"/>
<polygon fill="#9a32cd" stroke="#9a32cd" points="1424.32,-109.7 1434.85,-108.58 1425.92,-102.89 1424.32,-109.7"/>
<text text-anchor="middle" x="1121" y="-113.83" font-family="Helvetica,sans-Serif" font-size="10.00"> queue</text>
</g>
<!-- Node17&#45;&gt;Node18 -->
<g id="edge22" class="edge">
<title>Node17&#45;&gt;Node18</title>
<path fill="none" stroke="#9a32cd" stroke-dasharray="5,2" d="M1420.99,-106.98C1385.51,-101.42 1338.1,-99.49 1301,-117.83 1274.49,-130.94 1257.26,-163.63 1249.97,-180.07"/>
<polygon fill="#9a32cd" stroke="#9a32cd" points="1420.12,-110.39 1430.57,-108.64 1421.31,-103.49 1420.12,-110.39"/>
<text text-anchor="middle" x="1344.5" y="-131.83" font-family="Helvetica,sans-Serif" font-size="10.00"> join_queue</text>
<text text-anchor="middle" x="1344.5" y="-120.83" font-family="Helvetica,sans-Serif" font-size="10.00">queue</text>
</g>
<!-- Node18&#45;&gt;Node16 -->
<g id="edge28" class="edge">
<title>Node18&#45;&gt;Node16</title>
<path fill="none" stroke="#9a32cd" stroke-dasharray="5,2" d="M1220.09,-205.38C1210.77,-210.64 1199.75,-215.91 1189,-218.83 1184.66,-220.01 993.91,-232.66 949,-225.83 892.85,-217.29 877.51,-213.8 827,-187.83 802.07,-175.01 776.84,-153.75 763.24,-141.44"/>
<polygon fill="#9a32cd" stroke="#9a32cd" points="1221.71,-208.49 1228.49,-200.35 1218.12,-202.48 1221.71,-208.49"/>
<text text-anchor="middle" x="992" y="-231.83" font-family="Helvetica,sans-Serif" font-size="10.00"> thread</text>
</g>
<!-- Node18&#45;&gt;Node17 -->
<g id="edge20" class="edge">
<title>Node18&#45;&gt;Node17</title>
<path fill="none" stroke="#9a32cd" stroke-dasharray="5,2" d="M1282.99,-176.04C1288.99,-173.91 1295.15,-171.77 1301,-169.83 1347.47,-154.47 1401.72,-138.64 1436.44,-128.78"/>
<polygon fill="#9a32cd" stroke="#9a32cd" points="1282.1,-172.64 1273.89,-179.34 1284.48,-179.23 1282.1,-172.64"/>
<text text-anchor="middle" x="1344.5" y="-183.83" font-family="Helvetica,sans-Serif" font-size="10.00"> head</text>
<text text-anchor="middle" x="1344.5" y="-172.83" font-family="Helvetica,sans-Serif" font-size="10.00">tail</text>
</g>
<!-- Node20 -->
<g id="node20" class="node">
<title>Node20</title>
<g id="a_node20"><a xlink:href="structOSThreadLink.html" target="_top" xlink:title=" ">
<polygon fill="white" stroke="#666666" points="1513,-218.33 1433,-218.33 1433,-199.33 1513,-199.33 1513,-218.33"/>
<text text-anchor="middle" x="1473" y="-206.33" font-family="Helvetica,sans-Serif" font-size="10.00">OSThreadLink</text>
</a>
</g>
</g>
<!-- Node18&#45;&gt;Node20 -->
<g id="edge24" class="edge">
<title>Node18&#45;&gt;Node20</title>
<path fill="none" stroke="#9a32cd" stroke-dasharray="5,2" d="M1286.84,-193.27C1328.2,-196.74 1391.73,-202.08 1432.57,-205.52"/>
<polygon fill="#9a32cd" stroke="#9a32cd" points="1287.31,-189.79 1277.05,-192.44 1286.73,-196.77 1287.31,-189.79"/>
<text text-anchor="middle" x="1344.5" y="-215.83" font-family="Helvetica,sans-Serif" font-size="10.00"> next</text>
<text text-anchor="middle" x="1344.5" y="-204.83" font-family="Helvetica,sans-Serif" font-size="10.00">prev</text>
</g>
<!-- Node19 -->
<g id="node19" class="node">
<title>Node19</title>
<g id="a_node19"><a xlink:href="structOSContext.html" target="_top" xlink:title=" ">
<polygon fill="white" stroke="#666666" points="1024,-217.33 960,-217.33 960,-198.33 1024,-198.33 1024,-217.33"/>
<text text-anchor="middle" x="992" y="-205.33" font-family="Helvetica,sans-Serif" font-size="10.00">OSContext</text>
</a>
</g>
</g>
<!-- Node19&#45;&gt;Node18 -->
<g id="edge21" class="edge">
<title>Node19&#45;&gt;Node18</title>
<path fill="none" stroke="#9a32cd" stroke-dasharray="5,2" d="M1035.52,-204.78C1086.31,-201.14 1169.95,-195.14 1214.28,-191.96"/>
<polygon fill="#9a32cd" stroke="#9a32cd" points="1035.52,-201.27 1025.79,-205.48 1036.02,-208.26 1035.52,-201.27"/>
<text text-anchor="middle" x="1121" y="-206.83" font-family="Helvetica,sans-Serif" font-size="10.00"> context</text>
</g>
<!-- Node20&#45;&gt;Node18 -->
<g id="edge23" class="edge">
<title>Node20&#45;&gt;Node18</title>
<path fill="none" stroke="#9a32cd" stroke-dasharray="5,2" d="M1424.36,-221.8C1418.18,-223.49 1411.94,-225.2 1406,-226.83 1360.96,-239.23 1345.26,-246.8 1301,-231.83 1282.33,-225.52 1265.01,-210.06 1254.97,-199.76"/>
<polygon fill="#9a32cd" stroke="#9a32cd" points="1425.15,-225.21 1433.88,-219.2 1423.31,-218.46 1425.15,-225.21"/>
<text text-anchor="middle" x="1344.5" y="-254.83" font-family="Helvetica,sans-Serif" font-size="10.00"> active_threads_link</text>
<text text-anchor="middle" x="1344.5" y="-243.83" font-family="Helvetica,sans-Serif" font-size="10.00">link</text>
</g>
<!-- Node21&#45;&gt;Node18 -->
<g id="edge26" class="edge">
<title>Node21&#45;&gt;Node18</title>
<path fill="none" stroke="#9a32cd" stroke-dasharray="5,2" d="M1046.66,-171.36C1086.14,-172.22 1141.05,-174.4 1189,-179.83 1197.2,-180.76 1206.01,-182.18 1214.14,-183.65"/>
<polygon fill="#9a32cd" stroke="#9a32cd" points="1046.77,-167.86 1036.7,-171.17 1046.63,-174.86 1046.77,-167.86"/>
<text text-anchor="middle" x="1121" y="-182.83" font-family="Helvetica,sans-Serif" font-size="10.00"> owned_mutexes</text>
</g>
<!-- Node22&#45;&gt;Node16 -->
<g id="edge29" class="edge">
<title>Node22&#45;&gt;Node16</title>
<path fill="none" stroke="#9a32cd" stroke-dasharray="5,2" d="M942.48,-36.57C901.61,-41.98 846.74,-50.73 827,-60.83 797.52,-75.91 771.81,-106.56 759.96,-122.19"/>
<polygon fill="#9a32cd" stroke="#9a32cd" points="942.89,-40.05 952.36,-35.3 941.99,-33.11 942.89,-40.05"/>
<text text-anchor="middle" x="879" y="-63.83" font-family="Helvetica,sans-Serif" font-size="10.00"> link</text>
</g>
<!-- Node23 -->
<g id="node23" class="node">
<title>Node23</title>
<g id="a_node23"><a xlink:href="classJSUTree.html" target="_top" xlink:title=" ">
<polygon fill="white" stroke="#666666" points="809,-361.33 695,-361.33 695,-342.33 809,-342.33 809,-361.33"/>
<text text-anchor="middle" x="752" y="-349.33" font-family="Helvetica,sans-Serif" font-size="10.00">JSUTree&lt; JKRHeap &gt;</text>
</a>
</g>
</g>
<!-- Node23&#45;&gt;Node15 -->
<g id="edge31" class="edge">
<title>Node23&#45;&gt;Node15</title>
<path fill="none" stroke="#9a32cd" stroke-dasharray="5,2" d="M820.67,-348.14C867.41,-345.58 927.2,-342.32 962.09,-340.41"/>
<polygon fill="#9a32cd" stroke="#9a32cd" points="820.71,-344.63 810.91,-348.67 821.09,-351.62 820.71,-344.63"/>
<text text-anchor="middle" x="879" y="-349.83" font-family="Helvetica,sans-Serif" font-size="10.00"> mChildTree</text>
</g>
<!-- Node24&#45;&gt;Node23 -->
<g id="edge32" class="edge">
<title>Node24&#45;&gt;Node23</title>
<path fill="none" stroke="#63b8ff" d="M415.97,-361.45C486.87,-359.42 619.34,-355.61 694.72,-353.45"/>
<polygon fill="#63b8ff" stroke="#63b8ff" points="416.13,-357.95 406.24,-361.73 416.33,-364.95 416.13,-357.95"/>
</g>
<!-- Node25&#45;&gt;Node23 -->
<g id="edge34" class="edge">
<title>Node25&#45;&gt;Node23</title>
<path fill="none" stroke="#63b8ff" d="M536.7,-384.44C575.02,-380.03 629.5,-373.33 677,-365.83 684.62,-364.63 692.66,-363.24 700.52,-361.81"/>
<polygon fill="#63b8ff" stroke="#63b8ff" points="536.39,-380.95 526.85,-385.56 537.18,-387.9 536.39,-380.95"/>
</g>
<!-- Node26&#45;&gt;Node15 -->
<g id="edge36" class="edge">
<title>Node26&#45;&gt;Node15</title>
<path fill="none" stroke="#9a32cd" stroke-dasharray="5,2" d="M441.86,-332.43C529.45,-332.09 679.87,-331.91 809,-333.83 863.05,-334.64 926.09,-336.6 962.01,-337.81"/>
<polygon fill="#9a32cd" stroke="#9a32cd" points="441.94,-328.93 431.96,-332.47 441.97,-335.93 441.94,-328.93"/>
<text text-anchor="middle" x="610" y="-334.83" font-family="Helvetica,sans-Serif" font-size="10.00"> mDisposerList</text>
</g>
<!-- Node27&#45;&gt;Node14 -->
<g id="edge39" class="edge">
<title>Node27&#45;&gt;Node14</title>
<path fill="none" stroke="#9a32cd" stroke-dasharray="5,2" d="M685.75,-428.71C796.06,-429.38 1008.84,-428.22 1189,-412.83 1195.06,-412.31 1201.46,-411.57 1207.68,-410.74"/>
<polygon fill="#9a32cd" stroke="#9a32cd" points="685.96,-425.22 675.94,-428.65 685.92,-432.22 685.96,-425.22"/>
<text text-anchor="middle" x="879" y="-430.83" font-family="Helvetica,sans-Serif" font-size="10.00"> mLink</text>
</g>
<!-- Node28&#45;&gt;Node13 -->
<g id="edge41" class="edge">
<title>Node28&#45;&gt;Node13</title>
<path fill="none" stroke="#9a32cd" stroke-dasharray="5,2" d="M1197.87,-451.13C1269.93,-440.01 1375.46,-423.73 1432.27,-414.96"/>
<polygon fill="#9a32cd" stroke="#9a32cd" points="1197.45,-447.65 1188.1,-452.63 1198.52,-454.57 1197.45,-447.65"/>
<text text-anchor="middle" x="1245" y="-451.83" font-family="Helvetica,sans-Serif" font-size="10.00"> mFileLoaderLink</text>
</g>
<!-- Node29&#45;&gt;Node13 -->
<g id="edge44" class="edge">
<title>Node29&#45;&gt;Node13</title>
<path fill="none" stroke="#9a32cd" stroke-dasharray="5,2" d="M688.79,-510.72C742.05,-511.26 814.3,-511.83 878,-511.83 878,-511.83 878,-511.83 1246,-511.83 1290.63,-511.83 1410.85,-444.49 1455.24,-418.71"/>
<polygon fill="#9a32cd" stroke="#9a32cd" points="688.93,-507.22 678.9,-510.62 688.86,-514.22 688.93,-507.22"/>
<text text-anchor="middle" x="992" y="-514.83" font-family="Helvetica,sans-Serif" font-size="10.00"> sVolumeList</text>
</g>
<!-- Node30 -->
<g id="node30" class="node">
<title>Node30</title>
<g id="a_node30"><a xlink:href="structSArcDataInfo.html" target="_top" xlink:title=" ">
<polygon fill="white" stroke="#666666" points="1510.5,-329.33 1435.5,-329.33 1435.5,-310.33 1510.5,-310.33 1510.5,-329.33"/>
<text text-anchor="middle" x="1473" y="-317.33" font-family="Helvetica,sans-Serif" font-size="10.00">SArcDataInfo</text>
</a>
</g>
</g>
<!-- Node30&#45;&gt;Node12 -->
<g id="edge47" class="edge">
<title>Node30&#45;&gt;Node12</title>
<path fill="none" stroke="#9a32cd" stroke-dasharray="5,2" d="M1522.21,-316.35C1552.84,-315.96 1592.65,-318.87 1625,-332.83 1677.41,-355.46 1722.73,-409.75 1739.78,-432.03"/>
<polygon fill="#9a32cd" stroke="#9a32cd" points="1522.38,-312.85 1512.47,-316.61 1522.56,-319.85 1522.38,-312.85"/>
<text text-anchor="middle" x="1591.5" y="-335.83" font-family="Helvetica,sans-Serif" font-size="10.00"> mArcInfoBlock</text>
</g>
<!-- Node31 -->
<g id="node31" class="node">
<title>Node31</title>
<g id="a_node31"><a xlink:href="structJKRArchive_1_1SDIDirEntry.html" target="_top" xlink:title=" ">
<polygon fill="white" stroke="#666666" points="1534.5,-521.33 1411.5,-521.33 1411.5,-502.33 1534.5,-502.33 1534.5,-521.33"/>
<text text-anchor="middle" x="1473" y="-509.33" font-family="Helvetica,sans-Serif" font-size="10.00">JKRArchive::SDIDirEntry</text>
</a>
</g>
</g>
<!-- Node31&#45;&gt;Node12 -->
<g id="edge48" class="edge">
<title>Node31&#45;&gt;Node12</title>
<path fill="none" stroke="#9a32cd" stroke-dasharray="5,2" d="M1535.29,-499.59C1562.83,-493.79 1595.67,-486.47 1625,-478.83 1656.49,-470.63 1692.04,-459.65 1716.61,-451.78"/>
<polygon fill="#9a32cd" stroke="#9a32cd" points="1534.78,-496.12 1525.71,-501.59 1536.21,-502.97 1534.78,-496.12"/>
<text text-anchor="middle" x="1591.5" y="-496.83" font-family="Helvetica,sans-Serif" font-size="10.00"> mNodes</text>
</g>
<!-- Node32 -->
<g id="node32" class="node">
<title>Node32</title>
<g id="a_node32"><a xlink:href="structJKRArchive_1_1SDIFileEntry.html" target="_top" xlink:title=" ">
<polygon fill="white" stroke="#666666" points="1536.5,-484.33 1409.5,-484.33 1409.5,-465.33 1536.5,-465.33 1536.5,-484.33"/>
<text text-anchor="middle" x="1473" y="-472.33" font-family="Helvetica,sans-Serif" font-size="10.00">JKRArchive::SDIFileEntry</text>
</a>
</g>
</g>
<!-- Node32&#45;&gt;Node12 -->
<g id="edge49" class="edge">
<title>Node32&#45;&gt;Node12</title>
<path fill="none" stroke="#9a32cd" stroke-dasharray="5,2" d="M1548.24,-465.86C1602.28,-459.33 1672.9,-450.79 1713.78,-445.85"/>
<polygon fill="#9a32cd" stroke="#9a32cd" points="1547.98,-462.36 1538.48,-467.04 1548.82,-469.31 1547.98,-462.36"/>
<text text-anchor="middle" x="1591.5" y="-466.83" font-family="Helvetica,sans-Serif" font-size="10.00"> mFiles</text>
</g>
<!-- Node33 -->
<g id="node33" class="node">
<title>Node33</title>
<g id="a_node33"><a xlink:href="structJAISeqDataMgr.html" target="_top" xlink:title=" ">
<polygon fill="white" stroke="#666666" points="2079.5,-414.33 1993.5,-414.33 1993.5,-395.33 2079.5,-395.33 2079.5,-414.33"/>
<text text-anchor="middle" x="2036.5" y="-402.33" font-family="Helvetica,sans-Serif" font-size="10.00">JAISeqDataMgr</text>
</a>
</g>
</g>
<!-- Node33&#45;&gt;Node1 -->
<g id="edge50" class="edge">
<title>Node33&#45;&gt;Node1</title>
<path fill="none" stroke="#9a32cd" stroke-dasharray="5,2" d="M2090.79,-411.28C2123.5,-415.38 2166.24,-421.01 2204,-426.83 2209.78,-427.72 2215.76,-428.69 2221.77,-429.69"/>
<polygon fill="#9a32cd" stroke="#9a32cd" points="2091.51,-407.84 2081.16,-410.08 2090.65,-414.79 2091.51,-407.84"/>
<text text-anchor="middle" x="2164.5" y="-429.83" font-family="Helvetica,sans-Serif" font-size="10.00"> seSeqDataMgr_</text>
</g>
<!-- Node34 -->
<g id="node34" class="node">
<title>Node34</title>
<g id="a_node34"><a xlink:href="structJAIStreamDataMgr.html" target="_top" xlink:title=" ">
<polygon fill="white" stroke="#666666" points="2086.5,-562.33 1986.5,-562.33 1986.5,-543.33 2086.5,-543.33 2086.5,-562.33"/>
<text text-anchor="middle" x="2036.5" y="-550.33" font-family="Helvetica,sans-Serif" font-size="10.00">JAIStreamDataMgr</text>
</a>
</g>
</g>
<!-- Node34&#45;&gt;Node1 -->
<g id="edge51" class="edge">
<title>Node34&#45;&gt;Node1</title>
<path fill="none" stroke="#9a32cd" stroke-dasharray="5,2" d="M2097.89,-546.76C2130.62,-541.69 2171.01,-532.48 2204,-515.83 2233.17,-501.11 2260.45,-474.1 2275.9,-457.11"/>
<polygon fill="#9a32cd" stroke="#9a32cd" points="2097.54,-543.27 2088.15,-548.17 2098.55,-550.2 2097.54,-543.27"/>
<text text-anchor="middle" x="2164.5" y="-543.83" font-family="Helvetica,sans-Serif" font-size="10.00"> streamDataMgr_</text>
</g>
<!-- Node35 -->
<g id="node35" class="node">
<title>Node35</title>
<g id="a_node35"><a xlink:href="structJAUSoundTable.html" target="_top" xlink:title=" ">
<polygon fill="white" stroke="#666666" points="2080.5,-339.33 1992.5,-339.33 1992.5,-320.33 2080.5,-320.33 2080.5,-339.33"/>
<text text-anchor="middle" x="2036.5" y="-327.33" font-family="Helvetica,sans-Serif" font-size="10.00">JAUSoundTable</text>
</a>
</g>
</g>
<!-- Node35&#45;&gt;Node1 -->
<g id="edge52" class="edge">
<title>Node35&#45;&gt;Node1</title>
<path fill="none" stroke="#9a32cd" stroke-dasharray="5,2" d="M2072.2,-344.08C2106.02,-358.09 2158.82,-380.31 2204,-400.83 2222.05,-409.03 2242.03,-418.64 2258.08,-426.49"/>
<polygon fill="#9a32cd" stroke="#9a32cd" points="2073.9,-340.99 2063.32,-340.41 2071.22,-347.46 2073.9,-340.99"/>
<text text-anchor="middle" x="2164.5" y="-403.83" font-family="Helvetica,sans-Serif" font-size="10.00"> soundTable</text>
</g>
<!-- Node36 -->
<g id="node36" class="node">
<title>Node36</title>
<g id="a_node36"><a xlink:href="classJASGlobalInstance.html" target="_top" xlink:title=" ">
<polygon fill="white" stroke="#666666" points="2343.5,-335.83 2236.5,-335.83 2236.5,-305.83 2343.5,-305.83 2343.5,-335.83"/>
<text text-anchor="start" x="2244.5" y="-323.83" font-family="Helvetica,sans-Serif" font-size="10.00">JASGlobalInstance&lt;</text>
<text text-anchor="middle" x="2290" y="-312.83" font-family="Helvetica,sans-Serif" font-size="10.00"> JAUSoundTable &gt;</text>
</a>
</g>
</g>
<!-- Node35&#45;&gt;Node36 -->
<g id="edge54" class="edge">
<title>Node35&#45;&gt;Node36</title>
<path fill="none" stroke="#9a32cd" stroke-dasharray="5,2" d="M2092.06,-327.88C2134.84,-326.35 2194.02,-324.23 2236.31,-322.72"/>
<polygon fill="#9a32cd" stroke="#9a32cd" points="2092.12,-324.38 2082.25,-328.23 2092.37,-331.37 2092.12,-324.38"/>
<text text-anchor="middle" x="2164.5" y="-328.83" font-family="Helvetica,sans-Serif" font-size="10.00"> sInstance</text>
</g>
<!-- Node36&#45;&gt;Node35 -->
<g id="edge53" class="edge">
<title>Node36&#45;&gt;Node35</title>
<path fill="none" stroke="#63b8ff" d="M2224.97,-319.16C2217.9,-319.03 2210.8,-318.91 2204,-318.83 2168.89,-318.42 2160.04,-316.64 2125,-318.83 2110.48,-319.74 2094.69,-321.49 2080.57,-323.33"/>
<polygon fill="#63b8ff" stroke="#63b8ff" points="2224.82,-322.66 2234.89,-319.37 2224.97,-315.66 2224.82,-322.66"/>
</g>
<!-- Node37 -->
<g id="node37" class="node">
<title>Node37</title>
<g id="a_node37"><a xlink:href="structJAUSoundTable__.html" target="_top" xlink:title=" ">
<polygon fill="white" stroke="#666666" points="1834.5,-330.33 1661.5,-330.33 1661.5,-289.33 1834.5,-289.33 1834.5,-330.33"/>
<text text-anchor="start" x="1669.5" y="-318.33" font-family="Helvetica,sans-Serif" font-size="10.00">JAUSoundTable_&lt; JAUSound</text>
<text text-anchor="start" x="1669.5" y="-307.33" font-family="Helvetica,sans-Serif" font-size="10.00">TableRoot, JAUSoundTableSection,</text>
<text text-anchor="middle" x="1748" y="-296.33" font-family="Helvetica,sans-Serif" font-size="10.00"> JAUSoundTableGroup, void &gt;</text>
</a>
</g>
</g>
<!-- Node37&#45;&gt;Node35 -->
<g id="edge55" class="edge">
<title>Node37&#45;&gt;Node35</title>
<path fill="none" stroke="#9a32cd" stroke-dasharray="5,2" d="M1846.39,-316.63C1896,-320.09 1953.82,-324.13 1992.34,-326.82"/>
<polygon fill="#9a32cd" stroke="#9a32cd" points="1846.69,-313.14 1836.47,-315.94 1846.2,-320.13 1846.69,-313.14"/>
<text text-anchor="middle" x="1909.5" y="-325.83" font-family="Helvetica,sans-Serif" font-size="10.00"> field_0x0</text>
</g>
<!-- Node38 -->
<g id="node38" class="node">
<title>Node38</title>
<g id="a_node38"><a xlink:href="structJAUSoundTableRoot.html" target="_top" xlink:title=" ">
<polygon fill="white" stroke="#666666" points="1527,-292.33 1419,-292.33 1419,-273.33 1527,-273.33 1527,-292.33"/>
<text text-anchor="middle" x="1473" y="-280.33" font-family="Helvetica,sans-Serif" font-size="10.00">JAUSoundTableRoot</text>
</a>
</g>
</g>
<!-- Node38&#45;&gt;Node37 -->
<g id="edge56" class="edge">
<title>Node38&#45;&gt;Node37</title>
<path fill="none" stroke="#9a32cd" stroke-dasharray="5,2" d="M1538.44,-282.28C1565.27,-282.63 1596.71,-283.81 1625,-286.83 1636.79,-288.09 1649.14,-289.87 1661.27,-291.89"/>
<polygon fill="#9a32cd" stroke="#9a32cd" points="1538.79,-278.78 1528.76,-282.19 1538.73,-285.78 1538.79,-278.78"/>
<text text-anchor="middle" x="1591.5" y="-289.83" font-family="Helvetica,sans-Serif" font-size="10.00"> field_0x4</text>
</g>
<!-- Node39 -->
<g id="node39" class="node">
<title>Node39</title>
<g id="a_node39"><a xlink:href="structJAUSoundNameTable.html" target="_top" xlink:title=" ">
<polygon fill="white" stroke="#666666" points="2093.5,-255.33 1979.5,-255.33 1979.5,-236.33 2093.5,-236.33 2093.5,-255.33"/>
<text text-anchor="middle" x="2036.5" y="-243.33" font-family="Helvetica,sans-Serif" font-size="10.00">JAUSoundNameTable</text>
</a>
</g>
</g>
<!-- Node39&#45;&gt;Node1 -->
<g id="edge57" class="edge">
<title>Node39&#45;&gt;Node1</title>
<path fill="none" stroke="#9a32cd" stroke-dasharray="5,2" d="M2103.44,-258.73C2136.77,-268.02 2175.97,-283.52 2204,-308.83 2217.28,-320.82 2212.89,-329.43 2222,-344.83 2239.71,-374.78 2263.45,-407.73 2277.39,-426.49"/>
<polygon fill="#9a32cd" stroke="#9a32cd" points="2104.42,-255.37 2093.85,-256.2 2102.63,-262.14 2104.42,-255.37"/>
<text text-anchor="middle" x="2164.5" y="-311.83" font-family="Helvetica,sans-Serif" font-size="10.00"> soundNameTable</text>
</g>
<!-- Node40 -->
<g id="node40" class="node">
<title>Node40</title>
<g id="a_node40"><a xlink:href="classJASGlobalInstance.html" target="_top" xlink:title=" ">
<polygon fill="white" stroke="#666666" points="2352.5,-247.83 2227.5,-247.83 2227.5,-217.83 2352.5,-217.83 2352.5,-247.83"/>
<text text-anchor="start" x="2235.5" y="-235.83" font-family="Helvetica,sans-Serif" font-size="10.00">JASGlobalInstance&lt;</text>
<text text-anchor="middle" x="2290" y="-224.83" font-family="Helvetica,sans-Serif" font-size="10.00"> JAUSoundNameTable &gt;</text>
</a>
</g>
</g>
<!-- Node39&#45;&gt;Node40 -->
<g id="edge59" class="edge">
<title>Node39&#45;&gt;Node40</title>
<path fill="none" stroke="#9a32cd" stroke-dasharray="5,2" d="M2078.19,-232.81C2092.79,-228.76 2109.48,-224.84 2125,-222.83 2158.66,-218.48 2196.47,-220.34 2227.29,-223.57"/>
<polygon fill="#9a32cd" stroke="#9a32cd" points="2077.58,-229.35 2068.95,-235.48 2079.52,-236.07 2077.58,-229.35"/>
<text text-anchor="middle" x="2164.5" y="-225.83" font-family="Helvetica,sans-Serif" font-size="10.00"> sInstance</text>
</g>
<!-- Node40&#45;&gt;Node39 -->
<g id="edge58" class="edge">
<title>Node40&#45;&gt;Node39</title>
<path fill="none" stroke="#63b8ff" d="M2215.77,-236.62C2176.92,-238.63 2129.93,-241.05 2093.94,-242.91"/>
<polygon fill="#63b8ff" stroke="#63b8ff" points="2215.7,-240.13 2225.51,-236.11 2215.34,-233.14 2215.7,-240.13"/>
</g>
<!-- Node41 -->
<g id="node41" class="node">
<title>Node41</title>
<g id="a_node41"><a xlink:href="structJAUSoundTable__.html" target="_top" xlink:title=" ">
<polygon fill="white" stroke="#666666" points="1853,-266.33 1643,-266.33 1643,-225.33 1853,-225.33 1853,-266.33"/>
<text text-anchor="start" x="1651" y="-254.33" font-family="Helvetica,sans-Serif" font-size="10.00">JAUSoundTable_&lt; JAUSound</text>
<text text-anchor="start" x="1651" y="-243.33" font-family="Helvetica,sans-Serif" font-size="10.00">NameTableRoot, JAUSoundNameTable</text>
<text text-anchor="middle" x="1748" y="-232.33" font-family="Helvetica,sans-Serif" font-size="10.00">Section, JAUSoundNameTableGroup, void &gt;</text>
</a>
</g>
</g>
<!-- Node41&#45;&gt;Node39 -->
<g id="edge60" class="edge">
<title>Node41&#45;&gt;Node39</title>
<path fill="none" stroke="#9a32cd" stroke-dasharray="5,2" d="M1864.57,-245.83C1904.07,-245.83 1946.48,-245.83 1979.18,-245.83"/>
<polygon fill="#9a32cd" stroke="#9a32cd" points="1864.76,-242.33 1854.76,-245.83 1864.76,-249.33 1864.76,-242.33"/>
<text text-anchor="middle" x="1909.5" y="-248.83" font-family="Helvetica,sans-Serif" font-size="10.00"> field_0x0</text>
</g>
<!-- Node42 -->
<g id="node42" class="node">
<title>Node42</title>
<g id="a_node42"><a xlink:href="structJAUSoundNameTableRoot.html" target="_top" xlink:title=" ">
<polygon fill="white" stroke="#666666" points="1540,-255.33 1406,-255.33 1406,-236.33 1540,-236.33 1540,-255.33"/>
<text text-anchor="middle" x="1473" y="-243.33" font-family="Helvetica,sans-Serif" font-size="10.00">JAUSoundNameTableRoot</text>
</a>
</g>
</g>
<!-- Node42&#45;&gt;Node41 -->
<g id="edge61" class="edge">
<title>Node42&#45;&gt;Node41</title>
<path fill="none" stroke="#9a32cd" stroke-dasharray="5,2" d="M1551.85,-245.83C1580.1,-245.83 1612.47,-245.83 1642.63,-245.83"/>
<polygon fill="#9a32cd" stroke="#9a32cd" points="1551.95,-242.33 1541.95,-245.83 1551.95,-249.33 1551.95,-242.33"/>
<text text-anchor="middle" x="1591.5" y="-248.83" font-family="Helvetica,sans-Serif" font-size="10.00"> field_0x4</text>
</g>
</g>
</svg>
