<?xml version="1.0" encoding="UTF-8" standalone="no"?>
<!DOCTYPE svg PUBLIC "-//W3C//DTD SVG 1.1//EN"
 "http://www.w3.org/Graphics/SVG/1.1/DTD/svg11.dtd">
<!-- Generated by graphviz version 7.0.5 (20221223.1930)
 -->
<!-- Title: libs/TRK_MINNOW_DOLPHIN/ppc/Generic/targimpl.c Pages: 1 -->
<!--zoomable 412 -->
<svg id="main" version="1.1" xmlns="http://www.w3.org/2000/svg" xmlns:xlink="http://www.w3.org/1999/xlink" xml:space="preserve" onload="init(evt)">
<style type="text/css"><![CDATA[
.edge:hover path { stroke: red; }
.edge:hover polygon { stroke: red; fill: red; }
]]></style>
<script type="text/javascript"><![CDATA[
var edges = document.getElementsByTagName('g');
if (edges && edges.length) {
  for (var i=0;i<edges.length;i++) {
    if (edges[i].id.substr(0,4)=='edge') {
      edges[i].setAttribute('class','edge');
    }
  }
}
]]></script>
        <defs>
                <circle id="rim" cx="0" cy="0" r="7"/>
                <circle id="rim2" cx="0" cy="0" r="3.5"/>
                <g id="zoomPlus">
                        <use xlink:href="#rim" fill="#404040">
                                <set attributeName="fill" to="#808080" begin="zoomplus.mouseover" end="zoomplus.mouseout"/>
                        </use>
                        <path d="M-4,0h8M0,-4v8" fill="none" stroke="white" stroke-width="1.5" pointer-events="none"/>
                </g>
                <g id="zoomMin">
                        <use xlink:href="#rim" fill="#404040">
                                <set attributeName="fill" to="#808080" begin="zoomminus.mouseover" end="zoomminus.mouseout"/>
                        </use>
                        <path d="M-4,0h8" fill="none" stroke="white" stroke-width="1.5" pointer-events="none"/>
                </g>
                <g id="dirArrow">
                        <path fill="none" stroke="white" stroke-width="1.5" d="M0,-3.0v7 M-2.5,-0.5L0,-3.0L2.5,-0.5"/>
                </g>
               <g id="resetDef">
                       <use xlink:href="#rim2" fill="#404040">
                               <set attributeName="fill" to="#808080" begin="reset.mouseover" end="reset.mouseout"/>
                       </use>
               </g>
        </defs>

<script type="text/javascript">
var viewWidth = 4082;
var viewHeight = 412;
var sectionId = 'dynsection-0';
</script>
<script xlink:href="svgpan.js"/>
<svg id="graph" class="graph">
<g id="viewport">
<title>libs/TRK_MINNOW_DOLPHIN/ppc/Generic/targimpl.c</title>
<!-- Node1 -->
<g id="node1" class="node">
<title>Node1</title>
<g id="a_node1"><a xlink:title=" ">
<polygon fill="#999999" stroke="#666666" points="2071,-404 1919,-404 1919,-374 2071,-374 2071,-404"/>
<text text-anchor="start" x="1927" y="-392" font-family="Helvetica,sans-Serif" font-size="10.00">libs/TRK_MINNOW_DOLPHIN</text>
<text text-anchor="middle" x="1995" y="-381" font-family="Helvetica,sans-Serif" font-size="10.00">/ppc/Generic/targimpl.c</text>
</a>
</g>
</g>
<!-- Node2 -->
<g id="node2" class="node">
<title>Node2</title>
<g id="a_node2"><a xlink:href="targimpl_8h.html" target="_top" xlink:title=" ">
<polygon fill="white" stroke="#666666" points="134,-332.5 0,-332.5 0,-302.5 134,-302.5 134,-332.5"/>
<text text-anchor="start" x="8" y="-320.5" font-family="Helvetica,sans-Serif" font-size="10.00">TRK_MINNOW_DOLPHIN</text>
<text text-anchor="middle" x="67" y="-309.5" font-family="Helvetica,sans-Serif" font-size="10.00">/ppc/Generic/targimpl.h</text>
</a>
</g>
</g>
<!-- Node1&#45;&gt;Node2 -->
<g id="edge1" class="edge">
<title>Node1&#45;&gt;Node2</title>
<path fill="none" stroke="#63b8ff" d="M1918.6,-388.18C1615.23,-388.57 495.18,-386.6 144,-338 138.81,-337.28 133.46,-336.35 128.12,-335.28"/>
<polygon fill="#63b8ff" stroke="#63b8ff" points="129.21,-331.93 118.7,-333.23 127.73,-338.77 129.21,-331.93"/>
</g>
<!-- Node8 -->
<g id="node8" class="node">
<title>Node8</title>
<g id="a_node8"><a xlink:href="dol2asm_8h.html" target="_top" xlink:title=" ">
<polygon fill="white" stroke="#666666" points="213.5,-327 152.5,-327 152.5,-308 213.5,-308 213.5,-327"/>
<text text-anchor="middle" x="183" y="-315" font-family="Helvetica,sans-Serif" font-size="10.00">dol2asm.h</text>
</a>
</g>
</g>
<!-- Node1&#45;&gt;Node8 -->
<g id="edge10" class="edge">
<title>Node1&#45;&gt;Node8</title>
<path fill="none" stroke="#63b8ff" d="M1918.58,-387.75C1600.31,-386.43 388.92,-378.76 223,-338 217.88,-336.74 212.65,-334.77 207.73,-332.55"/>
<polygon fill="#63b8ff" stroke="#63b8ff" points="209.48,-329.52 198.97,-328.17 206.35,-335.78 209.48,-329.52"/>
</g>
<!-- Node9 -->
<g id="node9" class="node">
<title>Node9</title>
<g id="a_node9"><a xlink:title=" ">
<polygon fill="#e0e0e0" stroke="#999999" points="388,-338 232,-338 232,-297 388,-297 388,-338"/>
<text text-anchor="start" x="240" y="-326" font-family="Helvetica,sans-Serif" font-size="10.00">asm/TRK_MINNOW_DOLPHIN</text>
<text text-anchor="start" x="240" y="-315" font-family="Helvetica,sans-Serif" font-size="10.00">/ppc/Generic/targimpl</text>
<text text-anchor="middle" x="310" y="-304" font-family="Helvetica,sans-Serif" font-size="10.00">/TRK_ppc_memcpy.s</text>
</a>
</g>
</g>
<!-- Node1&#45;&gt;Node9 -->
<g id="edge11" class="edge">
<title>Node1&#45;&gt;Node9</title>
<path fill="none" stroke="#63b8ff" d="M1918.72,-387.53C1645.97,-385.54 718.89,-376.17 399.24,-338.11"/>
<polygon fill="#63b8ff" stroke="#63b8ff" points="399.99,-334.68 389.63,-336.93 399.13,-341.62 399.99,-334.68"/>
</g>
<!-- Node10 -->
<g id="node10" class="node">
<title>Node10</title>
<g id="a_node10"><a xlink:title=" ">
<polygon fill="#e0e0e0" stroke="#999999" points="562,-338 406,-338 406,-297 562,-297 562,-338"/>
<text text-anchor="start" x="414" y="-326" font-family="Helvetica,sans-Serif" font-size="10.00">asm/TRK_MINNOW_DOLPHIN</text>
<text text-anchor="start" x="414" y="-315" font-family="Helvetica,sans-Serif" font-size="10.00">/ppc/Generic/targimpl</text>
<text text-anchor="middle" x="484" y="-304" font-family="Helvetica,sans-Serif" font-size="10.00">/TRKInterruptHandler.s</text>
</a>
</g>
</g>
<!-- Node1&#45;&gt;Node10 -->
<g id="edge12" class="edge">
<title>Node1&#45;&gt;Node10</title>
<path fill="none" stroke="#63b8ff" d="M1918.76,-387.19C1666.14,-384.21 856.94,-372.27 573.22,-338.11"/>
<polygon fill="#63b8ff" stroke="#63b8ff" points="573.99,-334.68 563.64,-336.92 573.13,-341.63 573.99,-334.68"/>
</g>
<!-- Node11 -->
<g id="node11" class="node">
<title>Node11</title>
<g id="a_node11"><a xlink:title=" ">
<polygon fill="#e0e0e0" stroke="#999999" points="736,-338 580,-338 580,-297 736,-297 736,-338"/>
<text text-anchor="start" x="588" y="-326" font-family="Helvetica,sans-Serif" font-size="10.00">asm/TRK_MINNOW_DOLPHIN</text>
<text text-anchor="start" x="588" y="-315" font-family="Helvetica,sans-Serif" font-size="10.00">/ppc/Generic/targimpl</text>
<text text-anchor="middle" x="658" y="-304" font-family="Helvetica,sans-Serif" font-size="10.00">/TRKExceptionHandler.s</text>
</a>
</g>
</g>
<!-- Node1&#45;&gt;Node11 -->
<g id="edge13" class="edge">
<title>Node1&#45;&gt;Node11</title>
<path fill="none" stroke="#63b8ff" d="M1918.81,-386.76C1687.6,-382.7 995.2,-368.41 747.25,-338.12"/>
<polygon fill="#63b8ff" stroke="#63b8ff" points="748,-334.69 737.64,-336.9 747.12,-341.63 748,-334.69"/>
</g>
<!-- Node12 -->
<g id="node12" class="node">
<title>Node12</title>
<g id="a_node12"><a xlink:title=" ">
<polygon fill="#e0e0e0" stroke="#999999" points="910,-338 754,-338 754,-297 910,-297 910,-338"/>
<text text-anchor="start" x="762" y="-326" font-family="Helvetica,sans-Serif" font-size="10.00">asm/TRK_MINNOW_DOLPHIN</text>
<text text-anchor="start" x="762" y="-315" font-family="Helvetica,sans-Serif" font-size="10.00">/ppc/Generic/targimpl</text>
<text text-anchor="middle" x="832" y="-304" font-family="Helvetica,sans-Serif" font-size="10.00">/TRKSwapAndGo.s</text>
</a>
</g>
</g>
<!-- Node1&#45;&gt;Node12 -->
<g id="edge14" class="edge">
<title>Node1&#45;&gt;Node12</title>
<path fill="none" stroke="#63b8ff" d="M1918.79,-386.16C1710.69,-380.86 1134.74,-364.35 921.48,-338"/>
<polygon fill="#63b8ff" stroke="#63b8ff" points="921.95,-334.53 911.59,-336.73 921.06,-341.47 921.95,-334.53"/>
</g>
<!-- Node13 -->
<g id="node13" class="node">
<title>Node13</title>
<g id="a_node13"><a xlink:title=" ">
<polygon fill="#e0e0e0" stroke="#999999" points="1115.5,-338 928.5,-338 928.5,-297 1115.5,-297 1115.5,-338"/>
<text text-anchor="start" x="936.5" y="-326" font-family="Helvetica,sans-Serif" font-size="10.00">asm/TRK_MINNOW_DOLPHIN</text>
<text text-anchor="start" x="936.5" y="-315" font-family="Helvetica,sans-Serif" font-size="10.00">/ppc/Generic/targimpl</text>
<text text-anchor="middle" x="1022" y="-304" font-family="Helvetica,sans-Serif" font-size="10.00">/TRKInterruptHandlerEnableInterrupts.s</text>
</a>
</g>
</g>
<!-- Node1&#45;&gt;Node13 -->
<g id="edge15" class="edge">
<title>Node1&#45;&gt;Node13</title>
<path fill="none" stroke="#63b8ff" d="M1918.77,-386.94C1768.93,-384.13 1425.4,-374.11 1126.99,-338.15"/>
<polygon fill="#63b8ff" stroke="#63b8ff" points="1127.8,-334.72 1117.45,-336.99 1126.95,-341.67 1127.8,-334.72"/>
</g>
<!-- Node14 -->
<g id="node14" class="node">
<title>Node14</title>
<g id="a_node14"><a xlink:title=" ">
<polygon fill="#e0e0e0" stroke="#999999" points="1290,-338 1134,-338 1134,-297 1290,-297 1290,-338"/>
<text text-anchor="start" x="1142" y="-326" font-family="Helvetica,sans-Serif" font-size="10.00">asm/TRK_MINNOW_DOLPHIN</text>
<text text-anchor="start" x="1142" y="-315" font-family="Helvetica,sans-Serif" font-size="10.00">/ppc/Generic/targimpl</text>
<text text-anchor="middle" x="1212" y="-304" font-family="Helvetica,sans-Serif" font-size="10.00">/ReadFPSCR.s</text>
</a>
</g>
</g>
<!-- Node1&#45;&gt;Node14 -->
<g id="edge16" class="edge">
<title>Node1&#45;&gt;Node14</title>
<path fill="none" stroke="#63b8ff" d="M1918.64,-386.23C1792.19,-382.47 1531.26,-371.28 1301.42,-338.23"/>
<polygon fill="#63b8ff" stroke="#63b8ff" points="1302.05,-334.79 1291.65,-336.81 1301.04,-341.72 1302.05,-334.79"/>
</g>
<!-- Node15 -->
<g id="node15" class="node">
<title>Node15</title>
<g id="a_node15"><a xlink:title=" ">
<polygon fill="#e0e0e0" stroke="#999999" points="1464,-338 1308,-338 1308,-297 1464,-297 1464,-338"/>
<text text-anchor="start" x="1316" y="-326" font-family="Helvetica,sans-Serif" font-size="10.00">asm/TRK_MINNOW_DOLPHIN</text>
<text text-anchor="start" x="1316" y="-315" font-family="Helvetica,sans-Serif" font-size="10.00">/ppc/Generic/targimpl</text>
<text text-anchor="middle" x="1386" y="-304" font-family="Helvetica,sans-Serif" font-size="10.00">/WriteFPSCR.s</text>
</a>
</g>
</g>
<!-- Node1&#45;&gt;Node15 -->
<g id="edge17" class="edge">
<title>Node1&#45;&gt;Node15</title>
<path fill="none" stroke="#63b8ff" d="M1918.55,-383.68C1818.79,-377.37 1638.66,-363.7 1475.39,-338.28"/>
<polygon fill="#63b8ff" stroke="#63b8ff" points="1476.08,-334.84 1465.66,-336.74 1474.99,-341.76 1476.08,-334.84"/>
</g>
<!-- Node16 -->
<g id="node16" class="node">
<title>Node16</title>
<g id="a_node16"><a xlink:title=" ">
<polygon fill="#e0e0e0" stroke="#999999" points="1638,-338 1482,-338 1482,-297 1638,-297 1638,-338"/>
<text text-anchor="start" x="1490" y="-326" font-family="Helvetica,sans-Serif" font-size="10.00">asm/TRK_MINNOW_DOLPHIN</text>
<text text-anchor="start" x="1490" y="-315" font-family="Helvetica,sans-Serif" font-size="10.00">/ppc/Generic/targimpl</text>
<text text-anchor="middle" x="1560" y="-304" font-family="Helvetica,sans-Serif" font-size="10.00">/TRKTargetAccessARAM.s</text>
</a>
</g>
</g>
<!-- Node1&#45;&gt;Node16 -->
<g id="edge18" class="edge">
<title>Node1&#45;&gt;Node16</title>
<path fill="none" stroke="#63b8ff" d="M1918.69,-378.77C1850.55,-370.14 1747.8,-356.14 1649.26,-338.35"/>
<polygon fill="#63b8ff" stroke="#63b8ff" points="1650.15,-334.95 1639.68,-336.6 1648.89,-341.84 1650.15,-334.95"/>
</g>
<!-- Node17 -->
<g id="node17" class="node">
<title>Node17</title>
<g id="a_node17"><a xlink:title=" ">
<polygon fill="#e0e0e0" stroke="#999999" points="1812,-338 1656,-338 1656,-297 1812,-297 1812,-338"/>
<text text-anchor="start" x="1664" y="-326" font-family="Helvetica,sans-Serif" font-size="10.00">asm/TRK_MINNOW_DOLPHIN</text>
<text text-anchor="start" x="1664" y="-315" font-family="Helvetica,sans-Serif" font-size="10.00">/ppc/Generic/targimpl</text>
<text text-anchor="middle" x="1734" y="-304" font-family="Helvetica,sans-Serif" font-size="10.00">/TRKTargetSupportRequest.s</text>
</a>
</g>
</g>
<!-- Node1&#45;&gt;Node17 -->
<g id="edge19" class="edge">
<title>Node1&#45;&gt;Node17</title>
<path fill="none" stroke="#63b8ff" d="M1940.6,-373.52C1905.64,-364.21 1859.49,-351.91 1819.67,-341.31"/>
<polygon fill="#63b8ff" stroke="#63b8ff" points="1820.64,-337.95 1810.08,-338.76 1818.84,-344.71 1820.64,-337.95"/>
</g>
<!-- Node18 -->
<g id="node18" class="node">
<title>Node18</title>
<g id="a_node18"><a xlink:title=" ">
<polygon fill="#e0e0e0" stroke="#999999" points="1986,-338 1830,-338 1830,-297 1986,-297 1986,-338"/>
<text text-anchor="start" x="1838" y="-326" font-family="Helvetica,sans-Serif" font-size="10.00">asm/TRK_MINNOW_DOLPHIN</text>
<text text-anchor="start" x="1838" y="-315" font-family="Helvetica,sans-Serif" font-size="10.00">/ppc/Generic/targimpl</text>
<text text-anchor="middle" x="1908" y="-304" font-family="Helvetica,sans-Serif" font-size="10.00">/TRKTargetStepOutOfRange.s</text>
</a>
</g>
</g>
<!-- Node1&#45;&gt;Node18 -->
<g id="edge20" class="edge">
<title>Node1&#45;&gt;Node18</title>
<path fill="none" stroke="#63b8ff" d="M1976.97,-373.6C1966.82,-365.49 1953.81,-355.09 1941.83,-345.52"/>
<polygon fill="#63b8ff" stroke="#63b8ff" points="1944.11,-342.87 1934.11,-339.36 1939.74,-348.34 1944.11,-342.87"/>
</g>
<!-- Node19 -->
<g id="node19" class="node">
<title>Node19</title>
<g id="a_node19"><a xlink:title=" ">
<polygon fill="#e0e0e0" stroke="#999999" points="2160,-338 2004,-338 2004,-297 2160,-297 2160,-338"/>
<text text-anchor="start" x="2012" y="-326" font-family="Helvetica,sans-Serif" font-size="10.00">asm/TRK_MINNOW_DOLPHIN</text>
<text text-anchor="start" x="2012" y="-315" font-family="Helvetica,sans-Serif" font-size="10.00">/ppc/Generic/targimpl</text>
<text text-anchor="middle" x="2082" y="-304" font-family="Helvetica,sans-Serif" font-size="10.00">/TRKTargetSingleStep.s</text>
</a>
</g>
</g>
<!-- Node1&#45;&gt;Node19 -->
<g id="edge21" class="edge">
<title>Node1&#45;&gt;Node19</title>
<path fill="none" stroke="#63b8ff" d="M2013.03,-373.6C2023.18,-365.49 2036.19,-355.09 2048.17,-345.52"/>
<polygon fill="#63b8ff" stroke="#63b8ff" points="2050.26,-348.34 2055.89,-339.36 2045.89,-342.87 2050.26,-348.34"/>
</g>
<!-- Node20 -->
<g id="node20" class="node">
<title>Node20</title>
<g id="a_node20"><a xlink:title=" ">
<polygon fill="#e0e0e0" stroke="#999999" points="2334,-338 2178,-338 2178,-297 2334,-297 2334,-338"/>
<text text-anchor="start" x="2186" y="-326" font-family="Helvetica,sans-Serif" font-size="10.00">asm/TRK_MINNOW_DOLPHIN</text>
<text text-anchor="start" x="2186" y="-315" font-family="Helvetica,sans-Serif" font-size="10.00">/ppc/Generic/targimpl</text>
<text text-anchor="middle" x="2256" y="-304" font-family="Helvetica,sans-Serif" font-size="10.00">/TRKTargetAddExceptionInfo.s</text>
</a>
</g>
</g>
<!-- Node1&#45;&gt;Node20 -->
<g id="edge22" class="edge">
<title>Node1&#45;&gt;Node20</title>
<path fill="none" stroke="#63b8ff" d="M2049.4,-373.52C2084.36,-364.21 2130.51,-351.91 2170.33,-341.31"/>
<polygon fill="#63b8ff" stroke="#63b8ff" points="2171.16,-344.71 2179.92,-338.76 2169.36,-337.95 2171.16,-344.71"/>
</g>
<!-- Node21 -->
<g id="node21" class="node">
<title>Node21</title>
<g id="a_node21"><a xlink:title=" ">
<polygon fill="#e0e0e0" stroke="#999999" points="2508,-338 2352,-338 2352,-297 2508,-297 2508,-338"/>
<text text-anchor="start" x="2360" y="-326" font-family="Helvetica,sans-Serif" font-size="10.00">asm/TRK_MINNOW_DOLPHIN</text>
<text text-anchor="start" x="2360" y="-315" font-family="Helvetica,sans-Serif" font-size="10.00">/ppc/Generic/targimpl</text>
<text text-anchor="middle" x="2430" y="-304" font-family="Helvetica,sans-Serif" font-size="10.00">/TRKTargetAddStopInfo.s</text>
</a>
</g>
</g>
<!-- Node1&#45;&gt;Node21 -->
<g id="edge23" class="edge">
<title>Node1&#45;&gt;Node21</title>
<path fill="none" stroke="#63b8ff" d="M2071.31,-378.77C2139.45,-370.14 2242.2,-356.14 2340.74,-338.35"/>
<polygon fill="#63b8ff" stroke="#63b8ff" points="2341.11,-341.84 2350.32,-336.6 2339.85,-334.95 2341.11,-341.84"/>
</g>
<!-- Node22 -->
<g id="node22" class="node">
<title>Node22</title>
<g id="a_node22"><a xlink:title=" ">
<polygon fill="#e0e0e0" stroke="#999999" points="2682,-338 2526,-338 2526,-297 2682,-297 2682,-338"/>
<text text-anchor="start" x="2534" y="-326" font-family="Helvetica,sans-Serif" font-size="10.00">asm/TRK_MINNOW_DOLPHIN</text>
<text text-anchor="start" x="2534" y="-315" font-family="Helvetica,sans-Serif" font-size="10.00">/ppc/Generic/targimpl</text>
<text text-anchor="middle" x="2604" y="-304" font-family="Helvetica,sans-Serif" font-size="10.00">/TRKTargetInterrupt.s</text>
</a>
</g>
</g>
<!-- Node1&#45;&gt;Node22 -->
<g id="edge24" class="edge">
<title>Node1&#45;&gt;Node22</title>
<path fill="none" stroke="#63b8ff" d="M2071.45,-383.68C2171.21,-377.37 2351.34,-363.7 2514.61,-338.28"/>
<polygon fill="#63b8ff" stroke="#63b8ff" points="2515.01,-341.76 2524.34,-336.74 2513.92,-334.84 2515.01,-341.76"/>
</g>
<!-- Node23 -->
<g id="node23" class="node">
<title>Node23</title>
<g id="a_node23"><a xlink:title=" ">
<polygon fill="#e0e0e0" stroke="#999999" points="2856,-338 2700,-338 2700,-297 2856,-297 2856,-338"/>
<text text-anchor="start" x="2708" y="-326" font-family="Helvetica,sans-Serif" font-size="10.00">asm/TRK_MINNOW_DOLPHIN</text>
<text text-anchor="start" x="2708" y="-315" font-family="Helvetica,sans-Serif" font-size="10.00">/ppc/Generic/targimpl</text>
<text text-anchor="middle" x="2778" y="-304" font-family="Helvetica,sans-Serif" font-size="10.00">/TRKPostInterruptEvent.s</text>
</a>
</g>
</g>
<!-- Node1&#45;&gt;Node23 -->
<g id="edge25" class="edge">
<title>Node1&#45;&gt;Node23</title>
<path fill="none" stroke="#63b8ff" d="M2071.36,-386.23C2197.81,-382.47 2458.74,-371.28 2688.58,-338.23"/>
<polygon fill="#63b8ff" stroke="#63b8ff" points="2688.96,-341.72 2698.35,-336.81 2687.95,-334.79 2688.96,-341.72"/>
</g>
<!-- Node24 -->
<g id="node24" class="node">
<title>Node24</title>
<g id="a_node24"><a xlink:title=" ">
<polygon fill="#e0e0e0" stroke="#999999" points="3030,-338 2874,-338 2874,-297 3030,-297 3030,-338"/>
<text text-anchor="start" x="2882" y="-326" font-family="Helvetica,sans-Serif" font-size="10.00">asm/TRK_MINNOW_DOLPHIN</text>
<text text-anchor="start" x="2882" y="-315" font-family="Helvetica,sans-Serif" font-size="10.00">/ppc/Generic/targimpl</text>
<text text-anchor="middle" x="2952" y="-304" font-family="Helvetica,sans-Serif" font-size="10.00">/TRKTargetAccessExtended2.s</text>
</a>
</g>
</g>
<!-- Node1&#45;&gt;Node24 -->
<g id="edge26" class="edge">
<title>Node1&#45;&gt;Node24</title>
<path fill="none" stroke="#63b8ff" d="M2071.34,-387.78C2221.37,-386.45 2565.23,-378.92 2862.84,-338.17"/>
<polygon fill="#63b8ff" stroke="#63b8ff" points="2862.93,-341.69 2872.36,-336.85 2861.97,-334.76 2862.93,-341.69"/>
</g>
<!-- Node25 -->
<g id="node25" class="node">
<title>Node25</title>
<g id="a_node25"><a xlink:title=" ">
<polygon fill="#e0e0e0" stroke="#999999" points="3204,-338 3048,-338 3048,-297 3204,-297 3204,-338"/>
<text text-anchor="start" x="3056" y="-326" font-family="Helvetica,sans-Serif" font-size="10.00">asm/TRK_MINNOW_DOLPHIN</text>
<text text-anchor="start" x="3056" y="-315" font-family="Helvetica,sans-Serif" font-size="10.00">/ppc/Generic/targimpl</text>
<text text-anchor="middle" x="3126" y="-304" font-family="Helvetica,sans-Serif" font-size="10.00">/TRKTargetAccessExtended1.s</text>
</a>
</g>
</g>
<!-- Node1&#45;&gt;Node25 -->
<g id="edge27" class="edge">
<title>Node1&#45;&gt;Node25</title>
<path fill="none" stroke="#63b8ff" d="M2071.38,-388.84C2242.67,-389.75 2670.46,-386.61 3036.5,-338.2"/>
<polygon fill="#63b8ff" stroke="#63b8ff" points="3036.91,-341.68 3046.36,-336.88 3035.98,-334.74 3036.91,-341.68"/>
</g>
<!-- Node26 -->
<g id="node26" class="node">
<title>Node26</title>
<g id="a_node26"><a xlink:title=" ">
<polygon fill="#e0e0e0" stroke="#999999" points="3378,-338 3222,-338 3222,-297 3378,-297 3378,-338"/>
<text text-anchor="start" x="3230" y="-326" font-family="Helvetica,sans-Serif" font-size="10.00">asm/TRK_MINNOW_DOLPHIN</text>
<text text-anchor="start" x="3230" y="-315" font-family="Helvetica,sans-Serif" font-size="10.00">/ppc/Generic/targimpl</text>
<text text-anchor="middle" x="3300" y="-304" font-family="Helvetica,sans-Serif" font-size="10.00">/TRKTargetAccessFP.s</text>
</a>
</g>
</g>
<!-- Node1&#45;&gt;Node26 -->
<g id="edge28" class="edge">
<title>Node1&#45;&gt;Node26</title>
<path fill="none" stroke="#63b8ff" d="M2071.27,-386.66C2298.46,-382.39 2969.3,-367.7 3210.7,-338.13"/>
<polygon fill="#63b8ff" stroke="#63b8ff" points="3210.88,-341.63 3220.36,-336.9 3210,-334.69 3210.88,-341.63"/>
</g>
<!-- Node27 -->
<g id="node27" class="node">
<title>Node27</title>
<g id="a_node27"><a xlink:title=" ">
<polygon fill="#e0e0e0" stroke="#999999" points="3552,-338 3396,-338 3396,-297 3552,-297 3552,-338"/>
<text text-anchor="start" x="3404" y="-326" font-family="Helvetica,sans-Serif" font-size="10.00">asm/TRK_MINNOW_DOLPHIN</text>
<text text-anchor="start" x="3404" y="-315" font-family="Helvetica,sans-Serif" font-size="10.00">/ppc/Generic/targimpl</text>
<text text-anchor="middle" x="3474" y="-304" font-family="Helvetica,sans-Serif" font-size="10.00">/TRKTargetAccessDefault.s</text>
</a>
</g>
</g>
<!-- Node1&#45;&gt;Node27 -->
<g id="edge29" class="edge">
<title>Node1&#45;&gt;Node27</title>
<path fill="none" stroke="#63b8ff" d="M2071.28,-387.12C2320.07,-383.94 3107.39,-371.56 3384.63,-338.13"/>
<polygon fill="#63b8ff" stroke="#63b8ff" points="3384.88,-341.63 3394.36,-336.91 3384.01,-334.68 3384.88,-341.63"/>
</g>
<!-- Node28 -->
<g id="node28" class="node">
<title>Node28</title>
<g id="a_node28"><a xlink:title=" ">
<polygon fill="#e0e0e0" stroke="#999999" points="3726,-338 3570,-338 3570,-297 3726,-297 3726,-338"/>
<text text-anchor="start" x="3578" y="-326" font-family="Helvetica,sans-Serif" font-size="10.00">asm/TRK_MINNOW_DOLPHIN</text>
<text text-anchor="start" x="3578" y="-315" font-family="Helvetica,sans-Serif" font-size="10.00">/ppc/Generic/targimpl</text>
<text text-anchor="middle" x="3648" y="-304" font-family="Helvetica,sans-Serif" font-size="10.00">/TRKTargetReadInstruction.s</text>
</a>
</g>
</g>
<!-- Node1&#45;&gt;Node28 -->
<g id="edge30" class="edge">
<title>Node1&#45;&gt;Node28</title>
<path fill="none" stroke="#63b8ff" d="M2071.16,-387.47C2340.08,-385.31 3245.24,-375.46 3558.53,-338.14"/>
<polygon fill="#63b8ff" stroke="#63b8ff" points="3558.87,-341.62 3568.37,-336.93 3558.01,-334.67 3558.87,-341.62"/>
</g>
<!-- Node29 -->
<g id="node29" class="node">
<title>Node29</title>
<g id="a_node29"><a xlink:title=" ">
<polygon fill="#e0e0e0" stroke="#999999" points="3900,-338 3744,-338 3744,-297 3900,-297 3900,-338"/>
<text text-anchor="start" x="3752" y="-326" font-family="Helvetica,sans-Serif" font-size="10.00">asm/TRK_MINNOW_DOLPHIN</text>
<text text-anchor="start" x="3752" y="-315" font-family="Helvetica,sans-Serif" font-size="10.00">/ppc/Generic/targimpl</text>
<text text-anchor="middle" x="3822" y="-304" font-family="Helvetica,sans-Serif" font-size="10.00">/TRKTargetAccessMemory.s</text>
</a>
</g>
</g>
<!-- Node1&#45;&gt;Node29 -->
<g id="edge31" class="edge">
<title>Node1&#45;&gt;Node29</title>
<path fill="none" stroke="#63b8ff" d="M2071.46,-387.75C2359.94,-386.52 3383.26,-379.36 3732.48,-338.14"/>
<polygon fill="#63b8ff" stroke="#63b8ff" points="3732.86,-341.62 3742.37,-336.94 3732.02,-334.67 3732.86,-341.62"/>
</g>
<!-- Node30 -->
<g id="node30" class="node">
<title>Node30</title>
<g id="a_node30"><a xlink:title=" ">
<polygon fill="#e0e0e0" stroke="#999999" points="4074,-338 3918,-338 3918,-297 4074,-297 4074,-338"/>
<text text-anchor="start" x="3926" y="-326" font-family="Helvetica,sans-Serif" font-size="10.00">asm/TRK_MINNOW_DOLPHIN</text>
<text text-anchor="start" x="3926" y="-315" font-family="Helvetica,sans-Serif" font-size="10.00">/ppc/Generic/targimpl</text>
<text text-anchor="middle" x="3996" y="-304" font-family="Helvetica,sans-Serif" font-size="10.00">/TRKValidMemory32.s</text>
</a>
</g>
</g>
<!-- Node1&#45;&gt;Node30 -->
<g id="edge32" class="edge">
<title>Node1&#45;&gt;Node30</title>
<path fill="none" stroke="#63b8ff" d="M2071.32,-387.99C2377.91,-387.63 3521.53,-383.3 3906.7,-338.11"/>
<polygon fill="#63b8ff" stroke="#63b8ff" points="3906.86,-341.62 3916.37,-336.95 3906.02,-334.67 3906.86,-341.62"/>
</g>
<!-- Node3 -->
<g id="node3" class="node">
<title>Node3</title>
<g id="a_node3"><a xlink:href="nubevent_8h.html" target="_top" xlink:title=" ">
<polygon fill="white" stroke="#666666" points="196.5,-261 43.5,-261 43.5,-231 196.5,-231 196.5,-261"/>
<text text-anchor="start" x="51.5" y="-249" font-family="Helvetica,sans-Serif" font-size="10.00">TRK_MINNOW_DOLPHIN</text>
<text text-anchor="middle" x="120" y="-238" font-family="Helvetica,sans-Serif" font-size="10.00">/MetroTRK/Portable/nubevent.h</text>
</a>
</g>
</g>
<!-- Node2&#45;&gt;Node3 -->
<g id="edge2" class="edge">
<title>Node2&#45;&gt;Node3</title>
<path fill="none" stroke="#63b8ff" d="M77.98,-302.1C84.95,-292.97 94.12,-280.94 102.12,-270.45"/>
<polygon fill="#63b8ff" stroke="#63b8ff" points="104.83,-272.66 108.11,-262.59 99.27,-268.41 104.83,-272.66"/>
</g>
<!-- Node4 -->
<g id="node4" class="node">
<title>Node4</title>
<g id="a_node4"><a xlink:href="trk_8h.html" target="_top" xlink:title=" ">
<polygon fill="white" stroke="#666666" points="63.5,-195 28.5,-195 28.5,-176 63.5,-176 63.5,-195"/>
<text text-anchor="middle" x="46" y="-183" font-family="Helvetica,sans-Serif" font-size="10.00">trk.h</text>
</a>
</g>
</g>
<!-- Node2&#45;&gt;Node4 -->
<g id="edge9" class="edge">
<title>Node2&#45;&gt;Node4</title>
<path fill="none" stroke="#63b8ff" d="M55.71,-302.42C47.91,-291.75 38.22,-276.35 34,-261 28.96,-242.66 33.5,-221.16 38.37,-205.98"/>
<polygon fill="#63b8ff" stroke="#63b8ff" points="41.59,-207.37 41.66,-196.77 35,-205.01 41.59,-207.37"/>
</g>
<!-- Node3&#45;&gt;Node4 -->
<g id="edge3" class="edge">
<title>Node3&#45;&gt;Node4</title>
<path fill="none" stroke="#63b8ff" d="M101.71,-230.54C90.85,-221.96 77.08,-211.07 65.94,-202.26"/>
<polygon fill="#63b8ff" stroke="#63b8ff" points="68.18,-199.57 58.16,-196.11 63.84,-205.06 68.18,-199.57"/>
</g>
<!-- Node5 -->
<g id="node5" class="node">
<title>Node5</title>
<g id="a_node5"><a xlink:href="msgbuf_8h.html" target="_top" xlink:title=" ">
<polygon fill="white" stroke="#666666" points="193,-140 47,-140 47,-110 193,-110 193,-140"/>
<text text-anchor="start" x="55" y="-128" font-family="Helvetica,sans-Serif" font-size="10.00">TRK_MINNOW_DOLPHIN</text>
<text text-anchor="middle" x="120" y="-117" font-family="Helvetica,sans-Serif" font-size="10.00">/MetroTRK/Portable/msgbuf.h</text>
</a>
</g>
</g>
<!-- Node3&#45;&gt;Node5 -->
<g id="edge8" class="edge">
<title>Node3&#45;&gt;Node5</title>
<path fill="none" stroke="#63b8ff" d="M120,-230.88C120,-211.39 120,-175.92 120,-151.67"/>
<polygon fill="#63b8ff" stroke="#63b8ff" points="123.5,-151.98 120,-141.98 116.5,-151.98 123.5,-151.98"/>
</g>
<!-- Node4&#45;&gt;Node5 -->
<g id="edge4" class="edge">
<title>Node4&#45;&gt;Node5</title>
<path fill="none" stroke="#63b8ff" d="M57.24,-175.62C66.65,-168.18 80.47,-157.25 92.74,-147.55"/>
<polygon fill="#63b8ff" stroke="#63b8ff" points="94.87,-150.33 100.55,-141.38 90.53,-144.83 94.87,-150.33"/>
</g>
<!-- Node6 -->
<g id="node6" class="node">
<title>Node6</title>
<g id="a_node6"><a xlink:href="types_8h.html" target="_top" xlink:title=" ">
<polygon fill="white" stroke="#666666" points="109.5,-74 28.5,-74 28.5,-55 109.5,-55 109.5,-74"/>
<text text-anchor="middle" x="69" y="-62" font-family="Helvetica,sans-Serif" font-size="10.00">dolphin/types.h</text>
</a>
</g>
</g>
<!-- Node4&#45;&gt;Node6 -->
<g id="edge7" class="edge">
<title>Node4&#45;&gt;Node6</title>
<path fill="none" stroke="#63b8ff" d="M42.76,-175.55C38.1,-161.33 30.83,-132.84 38,-110 41.05,-100.27 47.07,-90.81 53,-83.13"/>
<polygon fill="#63b8ff" stroke="#63b8ff" points="55.53,-85.56 59.26,-75.64 50.16,-81.07 55.53,-85.56"/>
</g>
<!-- Node5&#45;&gt;Node6 -->
<g id="edge5" class="edge">
<title>Node5&#45;&gt;Node6</title>
<path fill="none" stroke="#63b8ff" d="M107.39,-109.54C100.29,-101.39 91.37,-91.16 83.92,-82.61"/>
<polygon fill="#63b8ff" stroke="#63b8ff" points="86.77,-80.55 77.56,-75.32 81.49,-85.15 86.77,-80.55"/>
</g>
<!-- Node7 -->
<g id="node7" class="node">
<title>Node7</title>
<g id="a_node7"><a xlink:href="stddef_8h.html" target="_top" xlink:title=" ">
<polygon fill="white" stroke="#666666" points="94.5,-19 43.5,-19 43.5,0 94.5,0 94.5,-19"/>
<text text-anchor="middle" x="69" y="-7" font-family="Helvetica,sans-Serif" font-size="10.00">stddef.h</text>
</a>
</g>
</g>
<!-- Node6&#45;&gt;Node7 -->
<g id="edge6" class="edge">
<title>Node6&#45;&gt;Node7</title>
<path fill="none" stroke="#63b8ff" d="M69,-54.75C69,-48.27 69,-39.16 69,-30.9"/>
<polygon fill="#63b8ff" stroke="#63b8ff" points="72.5,-30.96 69,-20.96 65.5,-30.96 72.5,-30.96"/>
</g>
</g>
</svg>
        <g id="navigator" transform="translate(0 0)" fill="#404254">
                <rect fill="#f2f5e9" fill-opacity="0.5" stroke="#606060" stroke-width=".5" x="0" y="0" width="60" height="60"/>
                <use id="zoomplus" xlink:href="#zoomPlus" x="17" y="9" onmousedown="handleZoom(evt,'in')"/>
                <use id="zoomminus" xlink:href="#zoomMin" x="42" y="9" onmousedown="handleZoom(evt,'out')"/>
                <use id="reset" xlink:href="#resetDef" x="30" y="36" onmousedown="handleReset()"/>
                <g id="arrowUp" xlink:href="#dirArrow" transform="translate(30 24)" onmousedown="handlePan(0,-1)">
                  <use xlink:href="#rim" fill="#404040">
                        <set attributeName="fill" to="#808080" begin="arrowUp.mouseover" end="arrowUp.mouseout"/>
                  </use>
                  <path fill="none" stroke="white" stroke-width="1.5" d="M0,-3.0v7 M-2.5,-0.5L0,-3.0L2.5,-0.5"/>
                </g>
                <g id="arrowRight" xlink:href="#dirArrow" transform="rotate(90) translate(36 -43)" onmousedown="handlePan(1,0)">
                  <use xlink:href="#rim" fill="#404040">
                        <set attributeName="fill" to="#808080" begin="arrowRight.mouseover" end="arrowRight.mouseout"/>
                  </use>
                  <path fill="none" stroke="white" stroke-width="1.5" d="M0,-3.0v7 M-2.5,-0.5L0,-3.0L2.5,-0.5"/>
                </g>
                <g id="arrowDown" xlink:href="#dirArrow" transform="rotate(180) translate(-30 -48)" onmousedown="handlePan(0,1)">
                  <use xlink:href="#rim" fill="#404040">
                        <set attributeName="fill" to="#808080" begin="arrowDown.mouseover" end="arrowDown.mouseout"/>
                  </use>
                  <path fill="none" stroke="white" stroke-width="1.5" d="M0,-3.0v7 M-2.5,-0.5L0,-3.0L2.5,-0.5"/>
                </g>
                <g id="arrowLeft" xlink:href="#dirArrow" transform="rotate(270) translate(-36 17)" onmousedown="handlePan(-1,0)">
                  <use xlink:href="#rim" fill="#404040">
                        <set attributeName="fill" to="#808080" begin="arrowLeft.mouseover" end="arrowLeft.mouseout"/>
                  </use>
                  <path fill="none" stroke="white" stroke-width="1.5" d="M0,-3.0v7 M-2.5,-0.5L0,-3.0L2.5,-0.5"/>
                </g>
        </g>
        <svg viewBox="0 0 15 15" width="100%" height="30px" preserveAspectRatio="xMaxYMin meet">
         <g id="arrow_out" transform="scale(0.3 0.3)">
          <a xlink:href="targimpl_8c__incl_org.svg" target="_base">
           <rect id="button" ry="5" rx="5" y="6" x="6" height="38" width="38"
                fill="#f2f5e9" fill-opacity="0.5" stroke="#606060" stroke-width="1.0"/>
           <path id="arrow"
             d="M 11.500037,31.436501 C 11.940474,20.09759 22.043105,11.32322 32.158766,21.979434 L 37.068811,17.246167 C 37.068811,17.246167 37.088388,32 37.088388,32 L 22.160133,31.978069 C 22.160133,31.978069 26.997745,27.140456 26.997745,27.140456 C 18.528582,18.264221 13.291696,25.230495 11.500037,31.436501 z"
             style="fill:#404040;"/>
          </a>
         </g>
        </svg>
</svg>
