<?xml version="1.0" encoding="UTF-8" standalone="no"?>
<!DOCTYPE svg PUBLIC "-//W3C//DTD SVG 1.1//EN"
 "http://www.w3.org/Graphics/SVG/1.1/DTD/svg11.dtd">
<!-- Generated by graphviz version 7.0.5 (20221223.1930)
 -->
<!-- Title: include/dolphin/vi/vi.h Pages: 1 -->
<!--zoomable 412 -->
<svg id="main" version="1.1" xmlns="http://www.w3.org/2000/svg" xmlns:xlink="http://www.w3.org/1999/xlink" xml:space="preserve" onload="init(evt)">
<style type="text/css"><![CDATA[
.edge:hover path { stroke: red; }
.edge:hover polygon { stroke: red; fill: red; }
]]></style>
<script type="text/javascript"><![CDATA[
var edges = document.getElementsByTagName('g');
if (edges && edges.length) {
  for (var i=0;i<edges.length;i++) {
    if (edges[i].id.substr(0,4)=='edge') {
      edges[i].setAttribute('class','edge');
    }
  }
}
]]></script>
        <defs>
                <circle id="rim" cx="0" cy="0" r="7"/>
                <circle id="rim2" cx="0" cy="0" r="3.5"/>
                <g id="zoomPlus">
                        <use xlink:href="#rim" fill="#404040">
                                <set attributeName="fill" to="#808080" begin="zoomplus.mouseover" end="zoomplus.mouseout"/>
                        </use>
                        <path d="M-4,0h8M0,-4v8" fill="none" stroke="white" stroke-width="1.5" pointer-events="none"/>
                </g>
                <g id="zoomMin">
                        <use xlink:href="#rim" fill="#404040">
                                <set attributeName="fill" to="#808080" begin="zoomminus.mouseover" end="zoomminus.mouseout"/>
                        </use>
                        <path d="M-4,0h8" fill="none" stroke="white" stroke-width="1.5" pointer-events="none"/>
                </g>
                <g id="dirArrow">
                        <path fill="none" stroke="white" stroke-width="1.5" d="M0,-3.0v7 M-2.5,-0.5L0,-3.0L2.5,-0.5"/>
                </g>
               <g id="resetDef">
                       <use xlink:href="#rim2" fill="#404040">
                               <set attributeName="fill" to="#808080" begin="reset.mouseover" end="reset.mouseout"/>
                       </use>
               </g>
        </defs>

<script type="text/javascript">
var viewWidth = 4659;
var viewHeight = 412;
var sectionId = 'dynsection-1';
</script>
<script xlink:href="svgpan.js"/>
<svg id="graph" class="graph">
<g id="viewport">
<title>include/dolphin/vi/vi.h</title>
<!-- Node1 -->
<g id="node1" class="node">
<title>Node1</title>
<g id="a_node1"><a xlink:title=" ">
<polygon fill="#999999" stroke="#666666" points="3961,-404 3851,-404 3851,-385 3961,-385 3961,-404"/>
<text text-anchor="middle" x="3906" y="-392" font-family="Helvetica,sans-Serif" font-size="10.00">include/dolphin/vi/vi.h</text>
</a>
</g>
</g>
<!-- Node2 -->
<g id="node2" class="node">
<title>Node2</title>
<g id="a_node2"><a xlink:href="JUTVideo_8h.html" target="_top" xlink:title=" ">
<polygon fill="white" stroke="#666666" points="2611,-349 2489,-349 2489,-319 2611,-319 2611,-349"/>
<text text-anchor="start" x="2497" y="-337" font-family="Helvetica,sans-Serif" font-size="10.00">include/JSystem/JUtility</text>
<text text-anchor="middle" x="2550" y="-326" font-family="Helvetica,sans-Serif" font-size="10.00">/JUTVideo.h</text>
</a>
</g>
</g>
<!-- Node1&#45;&gt;Node2 -->
<g id="edge1" class="edge">
<title>Node1&#45;&gt;Node2</title>
<path fill="none" stroke="#63b8ff" d="M3839.45,-390.63C3607.23,-380.61 2834.86,-347.29 2611.19,-337.64"/>
<polygon fill="#63b8ff" stroke="#63b8ff" points="3839.09,-394.12 3849.23,-391.05 3839.39,-387.12 3839.09,-394.12"/>
</g>
<!-- Node28 -->
<g id="node28" class="node">
<title>Node28</title>
<g id="a_node28"><a xlink:href="d__s__logo_8cpp.html" target="_top" xlink:title=" ">
<polygon fill="white" stroke="#666666" points="3631.5,-79.5 3524.5,-79.5 3524.5,-60.5 3631.5,-60.5 3631.5,-79.5"/>
<text text-anchor="middle" x="3578" y="-67.5" font-family="Helvetica,sans-Serif" font-size="10.00">src/d/s/d_s_logo.cpp</text>
</a>
</g>
</g>
<!-- Node1&#45;&gt;Node28 -->
<g id="edge53" class="edge">
<title>Node1&#45;&gt;Node28</title>
<path fill="none" stroke="#63b8ff" d="M3839.39,-391.24C3719.27,-386.55 3476.08,-374.06 3447,-349 3419.24,-325.08 3427,-305.65 3427,-269 3427,-269 3427,-269 3427,-201 3427,-135.97 3508.44,-96.34 3551.7,-79.88"/>
<polygon fill="#63b8ff" stroke="#63b8ff" points="3838.98,-394.72 3849.1,-391.61 3839.25,-387.73 3838.98,-394.72"/>
</g>
<!-- Node42 -->
<g id="node42" class="node">
<title>Node42</title>
<g id="a_node42"><a xlink:href="JKRDvdAramRipper_8cpp.html" target="_top" xlink:title=" ">
<polygon fill="white" stroke="#666666" points="3580.5,-349 3455.5,-349 3455.5,-319 3580.5,-319 3580.5,-349"/>
<text text-anchor="start" x="3463.5" y="-337" font-family="Helvetica,sans-Serif" font-size="10.00">libs/JSystem/JKernel</text>
<text text-anchor="middle" x="3518" y="-326" font-family="Helvetica,sans-Serif" font-size="10.00">/JKRDvdAramRipper.cpp</text>
</a>
</g>
</g>
<!-- Node1&#45;&gt;Node42 -->
<g id="edge44" class="edge">
<title>Node1&#45;&gt;Node42</title>
<path fill="none" stroke="#63b8ff" d="M3839.64,-385.18C3775.59,-376.9 3675.95,-363.4 3590,-349 3586.99,-348.5 3583.9,-347.96 3580.79,-347.41"/>
<polygon fill="#63b8ff" stroke="#63b8ff" points="3838.91,-388.61 3849.28,-386.42 3839.81,-381.67 3838.91,-388.61"/>
</g>
<!-- Node43 -->
<g id="node43" class="node">
<title>Node43</title>
<g id="a_node43"><a xlink:href="JKRDvdRipper_8cpp.html" target="_top" xlink:title=" ">
<polygon fill="white" stroke="#666666" points="3707.5,-349 3598.5,-349 3598.5,-319 3707.5,-319 3707.5,-349"/>
<text text-anchor="start" x="3606.5" y="-337" font-family="Helvetica,sans-Serif" font-size="10.00">libs/JSystem/JKernel</text>
<text text-anchor="middle" x="3653" y="-326" font-family="Helvetica,sans-Serif" font-size="10.00">/JKRDvdRipper.cpp</text>
</a>
</g>
</g>
<!-- Node1&#45;&gt;Node43 -->
<g id="edge45" class="edge">
<title>Node1&#45;&gt;Node43</title>
<path fill="none" stroke="#63b8ff" d="M3856.3,-382.01C3813.5,-372.11 3751.83,-357.85 3707.65,-347.64"/>
<polygon fill="#63b8ff" stroke="#63b8ff" points="3855.29,-385.37 3865.82,-384.21 3856.87,-378.55 3855.29,-385.37"/>
</g>
<!-- Node44 -->
<g id="node44" class="node">
<title>Node44</title>
<g id="a_node44"><a xlink:href="JKRFile_8cpp.html" target="_top" xlink:title=" ">
<polygon fill="white" stroke="#666666" points="3834.5,-349 3725.5,-349 3725.5,-319 3834.5,-319 3834.5,-349"/>
<text text-anchor="start" x="3733.5" y="-337" font-family="Helvetica,sans-Serif" font-size="10.00">libs/JSystem/JKernel</text>
<text text-anchor="middle" x="3780" y="-326" font-family="Helvetica,sans-Serif" font-size="10.00">/JKRFile.cpp</text>
</a>
</g>
</g>
<!-- Node1&#45;&gt;Node44 -->
<g id="edge46" class="edge">
<title>Node1&#45;&gt;Node44</title>
<path fill="none" stroke="#63b8ff" d="M3876.65,-379.87C3856.98,-370.74 3831.12,-358.74 3811.1,-349.44"/>
<polygon fill="#63b8ff" stroke="#63b8ff" points="3874.95,-382.94 3885.49,-383.98 3877.89,-376.59 3874.95,-382.94"/>
</g>
<!-- Node45 -->
<g id="node45" class="node">
<title>Node45</title>
<g id="a_node45"><a xlink:href="JUTAssert_8cpp.html" target="_top" xlink:title=" ">
<polygon fill="white" stroke="#666666" points="3959,-349 3853,-349 3853,-319 3959,-319 3959,-349"/>
<text text-anchor="start" x="3861" y="-337" font-family="Helvetica,sans-Serif" font-size="10.00">libs/JSystem/JUtility</text>
<text text-anchor="middle" x="3906" y="-326" font-family="Helvetica,sans-Serif" font-size="10.00">/JUTAssert.cpp</text>
</a>
</g>
</g>
<!-- Node1&#45;&gt;Node45 -->
<g id="edge47" class="edge">
<title>Node1&#45;&gt;Node45</title>
<path fill="none" stroke="#63b8ff" d="M3906,-373.51C3906,-365.49 3906,-356.43 3906,-349.11"/>
<polygon fill="#63b8ff" stroke="#63b8ff" points="3902.5,-373.35 3906,-383.35 3909.5,-373.35 3902.5,-373.35"/>
</g>
<!-- Node46 -->
<g id="node46" class="node">
<title>Node46</title>
<g id="a_node46"><a xlink:href="JUTException_8cpp.html" target="_top" xlink:title=" ">
<polygon fill="white" stroke="#666666" points="4083,-349 3977,-349 3977,-319 4083,-319 4083,-349"/>
<text text-anchor="start" x="3985" y="-337" font-family="Helvetica,sans-Serif" font-size="10.00">libs/JSystem/JUtility</text>
<text text-anchor="middle" x="4030" y="-326" font-family="Helvetica,sans-Serif" font-size="10.00">/JUTException.cpp</text>
</a>
</g>
</g>
<!-- Node1&#45;&gt;Node46 -->
<g id="edge48" class="edge">
<title>Node1&#45;&gt;Node46</title>
<path fill="none" stroke="#63b8ff" d="M3935.15,-379.75C3954.47,-370.63 3979.78,-358.69 3999.39,-349.44"/>
<polygon fill="#63b8ff" stroke="#63b8ff" points="3933.75,-376.54 3926.2,-383.97 3936.74,-382.87 3933.75,-376.54"/>
</g>
<!-- Node47 -->
<g id="node47" class="node">
<title>Node47</title>
<g id="a_node47"><a xlink:href="CARDFormat_8c.html" target="_top" xlink:title=" ">
<polygon fill="white" stroke="#666666" points="4256.5,-343.5 4101.5,-343.5 4101.5,-324.5 4256.5,-324.5 4256.5,-343.5"/>
<text text-anchor="middle" x="4179" y="-331.5" font-family="Helvetica,sans-Serif" font-size="10.00">libs/dolphin/card/CARDFormat.c</text>
</a>
</g>
</g>
<!-- Node1&#45;&gt;Node47 -->
<g id="edge49" class="edge">
<title>Node1&#45;&gt;Node47</title>
<path fill="none" stroke="#63b8ff" d="M3958.77,-382.19C4010.83,-371.04 4089.38,-354.2 4137.24,-343.95"/>
<polygon fill="#63b8ff" stroke="#63b8ff" points="3958.28,-378.72 3949.24,-384.23 3959.75,-385.56 3958.28,-378.72"/>
</g>
<!-- Node48 -->
<g id="node48" class="node">
<title>Node48</title>
<g id="a_node48"><a xlink:href="SIBios_8c.html" target="_top" xlink:title=" ">
<polygon fill="white" stroke="#666666" points="4391,-343.5 4275,-343.5 4275,-324.5 4391,-324.5 4391,-343.5"/>
<text text-anchor="middle" x="4333" y="-331.5" font-family="Helvetica,sans-Serif" font-size="10.00">libs/dolphin/si/SIBios.c</text>
</a>
</g>
</g>
<!-- Node1&#45;&gt;Node48 -->
<g id="edge50" class="edge">
<title>Node1&#45;&gt;Node48</title>
<path fill="none" stroke="#63b8ff" d="M3972.62,-386.94C4045.06,-379.41 4164.13,-365.91 4266,-349 4274.67,-347.56 4283.93,-345.78 4292.71,-343.98"/>
<polygon fill="#63b8ff" stroke="#63b8ff" points="3972.5,-383.43 3962.91,-387.94 3973.21,-390.4 3972.5,-383.43"/>
</g>
<!-- Node49 -->
<g id="node49" class="node">
<title>Node49</title>
<g id="a_node49"><a xlink:href="SISamplingRate_8c.html" target="_top" xlink:title=" ">
<polygon fill="white" stroke="#666666" points="4538.5,-349 4409.5,-349 4409.5,-319 4538.5,-319 4538.5,-349"/>
<text text-anchor="start" x="4417.5" y="-337" font-family="Helvetica,sans-Serif" font-size="10.00">libs/dolphin/si/SISampling</text>
<text text-anchor="middle" x="4474" y="-326" font-family="Helvetica,sans-Serif" font-size="10.00">Rate.c</text>
</a>
</g>
</g>
<!-- Node1&#45;&gt;Node49 -->
<g id="edge51" class="edge">
<title>Node1&#45;&gt;Node49</title>
<path fill="none" stroke="#63b8ff" d="M3972.85,-389.55C4068.03,-383.45 4247.92,-370.18 4400,-349 4402.98,-348.59 4406.02,-348.13 4409.09,-347.65"/>
<polygon fill="#63b8ff" stroke="#63b8ff" points="3972.66,-386.05 3962.9,-390.18 3973.11,-393.04 3972.66,-386.05"/>
</g>
<!-- Node50 -->
<g id="node50" class="node">
<title>Node50</title>
<g id="a_node50"><a xlink:href="vi_8c.html" target="_top" xlink:title=" ">
<polygon fill="white" stroke="#666666" points="4651,-343.5 4557,-343.5 4557,-324.5 4651,-324.5 4651,-343.5"/>
<text text-anchor="middle" x="4604" y="-331.5" font-family="Helvetica,sans-Serif" font-size="10.00">libs/dolphin/vi/vi.c</text>
</a>
</g>
</g>
<!-- Node1&#45;&gt;Node50 -->
<g id="edge52" class="edge">
<title>Node1&#45;&gt;Node50</title>
<path fill="none" stroke="#63b8ff" d="M3972.58,-392.73C4089.66,-390.52 4339.75,-381.99 4548,-349 4555.92,-347.75 4564.36,-345.91 4572.22,-343.97"/>
<polygon fill="#63b8ff" stroke="#63b8ff" points="3972.78,-389.23 3962.84,-392.9 3972.9,-396.22 3972.78,-389.23"/>
</g>
<!-- Node3 -->
<g id="node3" class="node">
<title>Node3</title>
<g id="a_node3"><a xlink:href="JUTXfb_8h.html" target="_top" xlink:title=" ">
<polygon fill="white" stroke="#666666" points="2269,-283 2147,-283 2147,-253 2269,-253 2269,-283"/>
<text text-anchor="start" x="2155" y="-271" font-family="Helvetica,sans-Serif" font-size="10.00">include/JSystem/JUtility</text>
<text text-anchor="middle" x="2208" y="-260" font-family="Helvetica,sans-Serif" font-size="10.00">/JUTXfb.h</text>
</a>
</g>
</g>
<!-- Node2&#45;&gt;Node3 -->
<g id="edge2" class="edge">
<title>Node2&#45;&gt;Node3</title>
<path fill="none" stroke="#63b8ff" d="M2477.64,-320.02C2422.8,-310.1 2345.6,-295.97 2278,-283 2275.2,-282.46 2272.34,-281.91 2269.45,-281.35"/>
<polygon fill="#63b8ff" stroke="#63b8ff" points="2476.69,-323.4 2487.15,-321.73 2477.94,-316.51 2476.69,-323.4"/>
</g>
<!-- Node34 -->
<g id="node34" class="node">
<title>Node34</title>
<g id="a_node34"><a xlink:href="JUTVideo_8cpp.html" target="_top" xlink:title=" ">
<polygon fill="white" stroke="#666666" points="2045,-217 1939,-217 1939,-187 2045,-187 2045,-217"/>
<text text-anchor="start" x="1947" y="-205" font-family="Helvetica,sans-Serif" font-size="10.00">libs/JSystem/JUtility</text>
<text text-anchor="middle" x="1992" y="-194" font-family="Helvetica,sans-Serif" font-size="10.00">/JUTVideo.cpp</text>
</a>
</g>
</g>
<!-- Node2&#45;&gt;Node34 -->
<g id="edge42" class="edge">
<title>Node2&#45;&gt;Node34</title>
<path fill="none" stroke="#63b8ff" d="M2477.34,-332.44C2393.61,-329.93 2252.81,-319.91 2138,-283 2089.85,-267.52 2039.3,-235.82 2012.14,-217.31"/>
<polygon fill="#63b8ff" stroke="#63b8ff" points="2477.16,-335.94 2487.25,-332.71 2477.35,-328.94 2477.16,-335.94"/>
</g>
<!-- Node37 -->
<g id="node37" class="node">
<title>Node37</title>
<g id="a_node37"><a xlink:href="JFWSystem_8cpp.html" target="_top" xlink:title=" ">
<polygon fill="white" stroke="#666666" points="2417,-283 2287,-283 2287,-253 2417,-253 2417,-283"/>
<text text-anchor="start" x="2295" y="-271" font-family="Helvetica,sans-Serif" font-size="10.00">libs/JSystem/JFramework</text>
<text text-anchor="middle" x="2352" y="-260" font-family="Helvetica,sans-Serif" font-size="10.00">/JFWSystem.cpp</text>
</a>
</g>
</g>
<!-- Node2&#45;&gt;Node37 -->
<g id="edge38" class="edge">
<title>Node2&#45;&gt;Node37</title>
<path fill="none" stroke="#63b8ff" d="M2494.93,-315.2C2463.94,-305.18 2425.74,-292.83 2396.63,-283.43"/>
<polygon fill="#63b8ff" stroke="#63b8ff" points="2493.53,-318.43 2504.12,-318.17 2495.69,-311.77 2493.53,-318.43"/>
</g>
<!-- Node38 -->
<g id="node38" class="node">
<title>Node38</title>
<g id="a_node38"><a xlink:href="JUTConsole_8cpp.html" target="_top" xlink:title=" ">
<polygon fill="white" stroke="#666666" points="2541,-283 2435,-283 2435,-253 2541,-253 2541,-283"/>
<text text-anchor="start" x="2443" y="-271" font-family="Helvetica,sans-Serif" font-size="10.00">libs/JSystem/JUtility</text>
<text text-anchor="middle" x="2488" y="-260" font-family="Helvetica,sans-Serif" font-size="10.00">/JUTConsole.cpp</text>
</a>
</g>
</g>
<!-- Node2&#45;&gt;Node38 -->
<g id="edge39" class="edge">
<title>Node2&#45;&gt;Node38</title>
<path fill="none" stroke="#63b8ff" d="M2528.5,-310.81C2519.62,-301.64 2509.58,-291.28 2501.72,-283.16"/>
<polygon fill="#63b8ff" stroke="#63b8ff" points="2525.72,-312.96 2535.19,-317.71 2530.74,-308.09 2525.72,-312.96"/>
</g>
<!-- Node39 -->
<g id="node39" class="node">
<title>Node39</title>
<g id="a_node39"><a xlink:href="JUTDbPrint_8cpp.html" target="_top" xlink:title=" ">
<polygon fill="white" stroke="#666666" points="2665,-283 2559,-283 2559,-253 2665,-253 2665,-283"/>
<text text-anchor="start" x="2567" y="-271" font-family="Helvetica,sans-Serif" font-size="10.00">libs/JSystem/JUtility</text>
<text text-anchor="middle" x="2612" y="-260" font-family="Helvetica,sans-Serif" font-size="10.00">/JUTDbPrint.cpp</text>
</a>
</g>
</g>
<!-- Node2&#45;&gt;Node39 -->
<g id="edge40" class="edge">
<title>Node2&#45;&gt;Node39</title>
<path fill="none" stroke="#63b8ff" d="M2571.5,-310.81C2580.38,-301.64 2590.42,-291.28 2598.28,-283.16"/>
<polygon fill="#63b8ff" stroke="#63b8ff" points="2569.26,-308.09 2564.81,-317.71 2574.28,-312.96 2569.26,-308.09"/>
</g>
<!-- Node40 -->
<g id="node40" class="node">
<title>Node40</title>
<g id="a_node40"><a xlink:href="JUTProcBar_8cpp.html" target="_top" xlink:title=" ">
<polygon fill="white" stroke="#666666" points="2789,-283 2683,-283 2683,-253 2789,-253 2789,-283"/>
<text text-anchor="start" x="2691" y="-271" font-family="Helvetica,sans-Serif" font-size="10.00">libs/JSystem/JUtility</text>
<text text-anchor="middle" x="2736" y="-260" font-family="Helvetica,sans-Serif" font-size="10.00">/JUTProcBar.cpp</text>
</a>
</g>
</g>
<!-- Node2&#45;&gt;Node40 -->
<g id="edge41" class="edge">
<title>Node2&#45;&gt;Node40</title>
<path fill="none" stroke="#63b8ff" d="M2602.5,-314.94C2631.47,-304.97 2666.97,-292.75 2694.08,-283.43"/>
<polygon fill="#63b8ff" stroke="#63b8ff" points="2601.49,-311.58 2593.17,-318.14 2603.77,-318.2 2601.49,-311.58"/>
</g>
<!-- Node41 -->
<g id="node41" class="node">
<title>Node41</title>
<g id="a_node41"><a xlink:href="m__Do__machine_8cpp.html" target="_top" xlink:title=" ">
<polygon fill="white" stroke="#666666" points="2954.5,-277.5 2807.5,-277.5 2807.5,-258.5 2954.5,-258.5 2954.5,-277.5"/>
<text text-anchor="middle" x="2881" y="-265.5" font-family="Helvetica,sans-Serif" font-size="10.00">src/m_Do/m_Do_machine.cpp</text>
</a>
</g>
</g>
<!-- Node2&#45;&gt;Node41 -->
<g id="edge43" class="edge">
<title>Node2&#45;&gt;Node41</title>
<path fill="none" stroke="#63b8ff" d="M2622.79,-318.93C2687.29,-306.46 2779.52,-288.62 2834.52,-277.99"/>
<polygon fill="#63b8ff" stroke="#63b8ff" points="2622.12,-315.49 2612.97,-320.82 2623.45,-322.36 2622.12,-315.49"/>
</g>
<!-- Node4 -->
<g id="node4" class="node">
<title>Node4</title>
<g id="a_node4"><a xlink:href="JFWDisplay_8h.html" target="_top" xlink:title=" ">
<polygon fill="white" stroke="#666666" points="2209,-217 2063,-217 2063,-187 2209,-187 2209,-217"/>
<text text-anchor="start" x="2071" y="-205" font-family="Helvetica,sans-Serif" font-size="10.00">include/JSystem/JFramework</text>
<text text-anchor="middle" x="2136" y="-194" font-family="Helvetica,sans-Serif" font-size="10.00">/JFWDisplay.h</text>
</a>
</g>
</g>
<!-- Node3&#45;&gt;Node4 -->
<g id="edge3" class="edge">
<title>Node3&#45;&gt;Node4</title>
<path fill="none" stroke="#63b8ff" d="M2183.72,-245.42C2173.33,-236.18 2161.48,-225.65 2152.18,-217.39"/>
<polygon fill="#63b8ff" stroke="#63b8ff" points="2181.09,-247.76 2190.89,-251.79 2185.74,-242.53 2181.09,-247.76"/>
</g>
<!-- Node3&#45;&gt;Node34 -->
<g id="edge35" class="edge">
<title>Node3&#45;&gt;Node34</title>
<path fill="none" stroke="#63b8ff" d="M2148.54,-249.38C2114.58,-239.32 2072.53,-226.86 2040.57,-217.39"/>
<polygon fill="#63b8ff" stroke="#63b8ff" points="2147.22,-252.64 2157.8,-252.13 2149.21,-245.93 2147.22,-252.64"/>
</g>
<!-- Node35 -->
<g id="node35" class="node">
<title>Node35</title>
<g id="a_node35"><a xlink:href="JUTXfb_8cpp.html" target="_top" xlink:title=" ">
<polygon fill="white" stroke="#666666" points="2333,-217 2227,-217 2227,-187 2333,-187 2333,-217"/>
<text text-anchor="start" x="2235" y="-205" font-family="Helvetica,sans-Serif" font-size="10.00">libs/JSystem/JUtility</text>
<text text-anchor="middle" x="2280" y="-194" font-family="Helvetica,sans-Serif" font-size="10.00">/JUTXfb.cpp</text>
</a>
</g>
</g>
<!-- Node3&#45;&gt;Node35 -->
<g id="edge36" class="edge">
<title>Node3&#45;&gt;Node35</title>
<path fill="none" stroke="#63b8ff" d="M2232.28,-245.42C2242.67,-236.18 2254.52,-225.65 2263.82,-217.39"/>
<polygon fill="#63b8ff" stroke="#63b8ff" points="2230.26,-242.53 2225.11,-251.79 2234.91,-247.76 2230.26,-242.53"/>
</g>
<!-- Node36 -->
<g id="node36" class="node">
<title>Node36</title>
<g id="a_node36"><a xlink:href="m__Do__Reset_8cpp.html" target="_top" xlink:title=" ">
<polygon fill="white" stroke="#666666" points="2487,-211.5 2351,-211.5 2351,-192.5 2487,-192.5 2487,-211.5"/>
<text text-anchor="middle" x="2419" y="-199.5" font-family="Helvetica,sans-Serif" font-size="10.00">src/m_Do/m_Do_Reset.cpp</text>
</a>
</g>
</g>
<!-- Node3&#45;&gt;Node36 -->
<g id="edge37" class="edge">
<title>Node3&#45;&gt;Node36</title>
<path fill="none" stroke="#63b8ff" d="M2266.56,-249.24C2306.5,-237.12 2357.73,-221.59 2389.45,-211.96"/>
<polygon fill="#63b8ff" stroke="#63b8ff" points="2265.62,-245.87 2257.06,-252.12 2267.65,-252.56 2265.62,-245.87"/>
</g>
<!-- Node5 -->
<g id="node5" class="node">
<title>Node5</title>
<g id="a_node5"><a xlink:href="m__Do__graphic_8h.html" target="_top" xlink:title=" ">
<polygon fill="white" stroke="#666666" points="1830.5,-145.5 1681.5,-145.5 1681.5,-126.5 1830.5,-126.5 1830.5,-145.5"/>
<text text-anchor="middle" x="1756" y="-133.5" font-family="Helvetica,sans-Serif" font-size="10.00">include/m_Do/m_Do_graphic.h</text>
</a>
</g>
</g>
<!-- Node4&#45;&gt;Node5 -->
<g id="edge4" class="edge">
<title>Node4&#45;&gt;Node5</title>
<path fill="none" stroke="#63b8ff" d="M2051.37,-186.56C1960.78,-171.24 1867.14,-155.56 1809.84,-145.99"/>
<polygon fill="#63b8ff" stroke="#63b8ff" points="2050.75,-190 2061.19,-188.22 2051.92,-183.1 2050.75,-190"/>
</g>
<!-- Node33 -->
<g id="node33" class="node">
<title>Node33</title>
<g id="a_node33"><a xlink:href="JFWDisplay_8cpp.html" target="_top" xlink:title=" ">
<polygon fill="white" stroke="#666666" points="2201,-151 2071,-151 2071,-121 2201,-121 2201,-151"/>
<text text-anchor="start" x="2079" y="-139" font-family="Helvetica,sans-Serif" font-size="10.00">libs/JSystem/JFramework</text>
<text text-anchor="middle" x="2136" y="-128" font-family="Helvetica,sans-Serif" font-size="10.00">/JFWDisplay.cpp</text>
</a>
</g>
</g>
<!-- Node4&#45;&gt;Node33 -->
<g id="edge34" class="edge">
<title>Node4&#45;&gt;Node33</title>
<path fill="none" stroke="#63b8ff" d="M2136,-175.39C2136,-167.13 2136,-158.28 2136,-151.16"/>
<polygon fill="#63b8ff" stroke="#63b8ff" points="2132.5,-175.28 2136,-185.28 2139.5,-175.28 2132.5,-175.28"/>
</g>
<!-- Node6 -->
<g id="node6" class="node">
<title>Node6</title>
<g id="a_node6"><a xlink:href="d__menu__window_8h.html" target="_top" xlink:title=" ">
<polygon fill="white" stroke="#666666" points="310,-85 190,-85 190,-55 310,-55 310,-85"/>
<text text-anchor="start" x="198" y="-73" font-family="Helvetica,sans-Serif" font-size="10.00">include/d/menu/d_menu</text>
<text text-anchor="middle" x="250" y="-62" font-family="Helvetica,sans-Serif" font-size="10.00">_window.h</text>
</a>
</g>
</g>
<!-- Node5&#45;&gt;Node6 -->
<g id="edge5" class="edge">
<title>Node5&#45;&gt;Node6</title>
<path fill="none" stroke="#63b8ff" d="M1669.97,-133.71C1402.4,-129.44 587.08,-114.31 324,-85 319.58,-84.51 315.03,-83.9 310.46,-83.21"/>
<polygon fill="#63b8ff" stroke="#63b8ff" points="1669.59,-137.21 1679.64,-133.87 1669.7,-130.21 1669.59,-137.21"/>
</g>
<!-- Node7 -->
<g id="node7" class="node">
<title>Node7</title>
<g id="a_node7"><a xlink:href="d__menu__option_8cpp.html" target="_top" xlink:title=" ">
<polygon fill="white" stroke="#666666" points="152,-19 0,-19 0,0 152,0 152,-19"/>
<text text-anchor="middle" x="76" y="-7" font-family="Helvetica,sans-Serif" font-size="10.00">src/d/menu/d_menu_option.cpp</text>
</a>
</g>
</g>
<!-- Node5&#45;&gt;Node7 -->
<g id="edge22" class="edge">
<title>Node5&#45;&gt;Node7</title>
<path fill="none" stroke="#63b8ff" d="M1670.2,-135.16C1362.07,-135.36 322.12,-132.46 181,-85 140.11,-71.25 101.2,-35.89 84.52,-19.32"/>
<polygon fill="#63b8ff" stroke="#63b8ff" points="1669.78,-138.66 1679.77,-135.16 1669.77,-131.66 1669.78,-138.66"/>
</g>
<!-- Node8 -->
<g id="node8" class="node">
<title>Node8</title>
<g id="a_node8"><a xlink:href="d__menu__ring_8cpp.html" target="_top" xlink:title=" ">
<polygon fill="white" stroke="#666666" points="490,-19 348,-19 348,0 490,0 490,-19"/>
<text text-anchor="middle" x="419" y="-7" font-family="Helvetica,sans-Serif" font-size="10.00">src/d/menu/d_menu_ring.cpp</text>
</a>
</g>
</g>
<!-- Node5&#45;&gt;Node8 -->
<g id="edge23" class="edge">
<title>Node5&#45;&gt;Node8</title>
<path fill="none" stroke="#63b8ff" d="M1669.99,-135.18C1372.48,-135.37 402.69,-132.35 357,-85 347.74,-75.41 350.91,-66.86 357,-55 365.47,-38.5 383.22,-26.74 397.56,-19.46"/>
<polygon fill="#63b8ff" stroke="#63b8ff" points="1669.62,-138.68 1679.62,-135.17 1669.61,-131.68 1669.62,-138.68"/>
</g>
<!-- Node10 -->
<g id="node10" class="node">
<title>Node10</title>
<g id="a_node10"><a xlink:href="d__com__inf__game_8cpp.html" target="_top" xlink:title=" ">
<polygon fill="white" stroke="#666666" points="474,-85 366,-85 366,-55 474,-55 474,-85"/>
<text text-anchor="start" x="374" y="-73" font-family="Helvetica,sans-Serif" font-size="10.00">src/d/com/d_com_inf</text>
<text text-anchor="middle" x="420" y="-62" font-family="Helvetica,sans-Serif" font-size="10.00">_game.cpp</text>
</a>
</g>
</g>
<!-- Node5&#45;&gt;Node10 -->
<g id="edge9" class="edge">
<title>Node5&#45;&gt;Node10</title>
<path fill="none" stroke="#63b8ff" d="M1669.92,-133.63C1422.66,-129.38 713.35,-114.87 483,-85 480.11,-84.63 477.16,-84.18 474.19,-83.69"/>
<polygon fill="#63b8ff" stroke="#63b8ff" points="1669.77,-137.13 1679.83,-133.8 1669.89,-130.13 1669.77,-137.13"/>
</g>
<!-- Node11 -->
<g id="node11" class="node">
<title>Node11</title>
<g id="a_node11"><a xlink:href="d__camera_8cpp.html" target="_top" xlink:title=" ">
<polygon fill="white" stroke="#666666" points="594,-79.5 492,-79.5 492,-60.5 594,-60.5 594,-79.5"/>
<text text-anchor="middle" x="543" y="-67.5" font-family="Helvetica,sans-Serif" font-size="10.00">src/d/d_camera.cpp</text>
</a>
</g>
</g>
<!-- Node5&#45;&gt;Node11 -->
<g id="edge10" class="edge">
<title>Node5&#45;&gt;Node11</title>
<path fill="none" stroke="#63b8ff" d="M1669.69,-133.34C1438.52,-128.55 808.94,-113.24 603,-85 594.31,-83.81 585.03,-81.94 576.43,-79.96"/>
<polygon fill="#63b8ff" stroke="#63b8ff" points="1669.47,-136.83 1679.54,-133.54 1669.62,-129.83 1669.47,-136.83"/>
</g>
<!-- Node12 -->
<g id="node12" class="node">
<title>Node12</title>
<g id="a_node12"><a xlink:href="d__demo_8cpp.html" target="_top" xlink:title=" ">
<polygon fill="white" stroke="#666666" points="706,-79.5 612,-79.5 612,-60.5 706,-60.5 706,-79.5"/>
<text text-anchor="middle" x="659" y="-67.5" font-family="Helvetica,sans-Serif" font-size="10.00">src/d/d_demo.cpp</text>
</a>
</g>
</g>
<!-- Node5&#45;&gt;Node12 -->
<g id="edge11" class="edge">
<title>Node5&#45;&gt;Node12</title>
<path fill="none" stroke="#63b8ff" d="M1669.84,-133.05C1454.75,-127.82 898.33,-112.05 715,-85 706.87,-83.8 698.2,-81.93 690.18,-79.95"/>
<polygon fill="#63b8ff" stroke="#63b8ff" points="1669.46,-136.54 1679.54,-133.28 1669.63,-129.54 1669.46,-136.54"/>
</g>
<!-- Node13 -->
<g id="node13" class="node">
<title>Node13</title>
<g id="a_node13"><a xlink:href="d__drawlist_8cpp.html" target="_top" xlink:title=" ">
<polygon fill="white" stroke="#666666" points="828,-79.5 724,-79.5 724,-60.5 828,-60.5 828,-79.5"/>
<text text-anchor="middle" x="776" y="-67.5" font-family="Helvetica,sans-Serif" font-size="10.00">src/d/d_drawlist.cpp</text>
</a>
</g>
</g>
<!-- Node5&#45;&gt;Node13 -->
<g id="edge12" class="edge">
<title>Node5&#45;&gt;Node13</title>
<path fill="none" stroke="#63b8ff" d="M1669.72,-135.21C1506.36,-134.54 1141.01,-127.83 837,-85 828.28,-83.77 818.98,-81.92 810.33,-79.96"/>
<polygon fill="#63b8ff" stroke="#63b8ff" points="1669.6,-138.71 1679.62,-135.25 1669.63,-131.71 1669.6,-138.71"/>
</g>
<!-- Node14 -->
<g id="node14" class="node">
<title>Node14</title>
<g id="a_node14"><a xlink:href="d__gameover_8cpp.html" target="_top" xlink:title=" ">
<polygon fill="white" stroke="#666666" points="959.5,-79.5 846.5,-79.5 846.5,-60.5 959.5,-60.5 959.5,-79.5"/>
<text text-anchor="middle" x="903" y="-67.5" font-family="Helvetica,sans-Serif" font-size="10.00">src/d/d_gameover.cpp</text>
</a>
</g>
</g>
<!-- Node5&#45;&gt;Node14 -->
<g id="edge13" class="edge">
<title>Node5&#45;&gt;Node14</title>
<path fill="none" stroke="#63b8ff" d="M1669.58,-133.62C1524.28,-130.37 1222.06,-119.69 969,-85 959.72,-83.73 949.79,-81.88 940.53,-79.95"/>
<polygon fill="#63b8ff" stroke="#63b8ff" points="1669.45,-137.11 1679.53,-133.83 1669.6,-130.12 1669.45,-137.11"/>
</g>
<!-- Node15 -->
<g id="node15" class="node">
<title>Node15</title>
<g id="a_node15"><a xlink:href="d__resorce_8cpp.html" target="_top" xlink:title=" ">
<polygon fill="white" stroke="#666666" points="1080,-79.5 978,-79.5 978,-60.5 1080,-60.5 1080,-79.5"/>
<text text-anchor="middle" x="1029" y="-67.5" font-family="Helvetica,sans-Serif" font-size="10.00">src/d/d_resorce.cpp</text>
</a>
</g>
</g>
<!-- Node5&#45;&gt;Node15 -->
<g id="edge14" class="edge">
<title>Node5&#45;&gt;Node15</title>
<path fill="none" stroke="#63b8ff" d="M1669.83,-132.79C1542.27,-128.55 1295.97,-116.71 1089,-85 1080.65,-83.72 1071.74,-81.9 1063.41,-79.99"/>
<polygon fill="#63b8ff" stroke="#63b8ff" points="1669.43,-136.28 1679.54,-133.1 1669.66,-129.28 1669.43,-136.28"/>
</g>
<!-- Node16 -->
<g id="node16" class="node">
<title>Node16</title>
<g id="a_node16"><a xlink:href="d__event_8cpp.html" target="_top" xlink:title=" ">
<polygon fill="white" stroke="#666666" points="1219.5,-79.5 1098.5,-79.5 1098.5,-60.5 1219.5,-60.5 1219.5,-79.5"/>
<text text-anchor="middle" x="1159" y="-67.5" font-family="Helvetica,sans-Serif" font-size="10.00">src/d/event/d_event.cpp</text>
</a>
</g>
</g>
<!-- Node5&#45;&gt;Node16 -->
<g id="edge15" class="edge">
<title>Node5&#45;&gt;Node16</title>
<path fill="none" stroke="#63b8ff" d="M1669.92,-129.66C1565.13,-122.51 1382.95,-107.99 1228,-85 1218.69,-83.62 1208.74,-81.8 1199.37,-79.94"/>
<polygon fill="#63b8ff" stroke="#63b8ff" points="1669.65,-133.15 1679.87,-130.33 1670.12,-126.16 1669.65,-133.15"/>
</g>
<!-- Node17 -->
<g id="node17" class="node">
<title>Node17</title>
<g id="a_node17"><a xlink:href="d__event__data_8cpp.html" target="_top" xlink:title=" ">
<polygon fill="white" stroke="#666666" points="1340.5,-85 1237.5,-85 1237.5,-55 1340.5,-55 1340.5,-85"/>
<text text-anchor="start" x="1245.5" y="-73" font-family="Helvetica,sans-Serif" font-size="10.00">src/d/event/d_event</text>
<text text-anchor="middle" x="1289" y="-62" font-family="Helvetica,sans-Serif" font-size="10.00">_data.cpp</text>
</a>
</g>
</g>
<!-- Node5&#45;&gt;Node17 -->
<g id="edge16" class="edge">
<title>Node5&#45;&gt;Node17</title>
<path fill="none" stroke="#63b8ff" d="M1669.87,-126.99C1587.43,-118.72 1459.72,-104.29 1350,-85 1347,-84.47 1343.93,-83.89 1340.84,-83.28"/>
<polygon fill="#63b8ff" stroke="#63b8ff" points="1669.4,-130.46 1679.69,-127.97 1670.09,-123.5 1669.4,-130.46"/>
</g>
<!-- Node18 -->
<g id="node18" class="node">
<title>Node18</title>
<g id="a_node18"><a xlink:href="d__file__select_8cpp.html" target="_top" xlink:title=" ">
<polygon fill="white" stroke="#666666" points="1487,-79.5 1359,-79.5 1359,-60.5 1487,-60.5 1487,-79.5"/>
<text text-anchor="middle" x="1423" y="-67.5" font-family="Helvetica,sans-Serif" font-size="10.00">src/d/file/d_file_select.cpp</text>
</a>
</g>
</g>
<!-- Node5&#45;&gt;Node18 -->
<g id="edge17" class="edge">
<title>Node5&#45;&gt;Node18</title>
<path fill="none" stroke="#63b8ff" d="M1698.11,-123.87C1633.27,-111.41 1529.44,-91.46 1469.61,-79.96"/>
<polygon fill="#63b8ff" stroke="#63b8ff" points="1697.38,-127.3 1707.86,-125.75 1698.7,-120.42 1697.38,-127.3"/>
</g>
<!-- Node19 -->
<g id="node19" class="node">
<title>Node19</title>
<g id="a_node19"><a xlink:href="d__menu__collect_8cpp.html" target="_top" xlink:title=" ">
<polygon fill="white" stroke="#666666" points="1660.5,-79.5 1505.5,-79.5 1505.5,-60.5 1660.5,-60.5 1660.5,-79.5"/>
<text text-anchor="middle" x="1583" y="-67.5" font-family="Helvetica,sans-Serif" font-size="10.00">src/d/menu/d_menu_collect.cpp</text>
</a>
</g>
</g>
<!-- Node5&#45;&gt;Node19 -->
<g id="edge18" class="edge">
<title>Node5&#45;&gt;Node19</title>
<path fill="none" stroke="#63b8ff" d="M1721.16,-122.11C1687.3,-109.58 1636.78,-90.89 1607.13,-79.93"/>
<polygon fill="#63b8ff" stroke="#63b8ff" points="1719.93,-125.39 1730.53,-125.58 1722.36,-118.82 1719.93,-125.39"/>
</g>
<!-- Node20 -->
<g id="node20" class="node">
<title>Node20</title>
<g id="a_node20"><a xlink:href="d__menu__fishing_8cpp.html" target="_top" xlink:title=" ">
<polygon fill="white" stroke="#666666" points="1833,-79.5 1679,-79.5 1679,-60.5 1833,-60.5 1833,-79.5"/>
<text text-anchor="middle" x="1756" y="-67.5" font-family="Helvetica,sans-Serif" font-size="10.00">src/d/menu/d_menu_fishing.cpp</text>
</a>
</g>
</g>
<!-- Node5&#45;&gt;Node20 -->
<g id="edge19" class="edge">
<title>Node5&#45;&gt;Node20</title>
<path fill="none" stroke="#63b8ff" d="M1756,-114.68C1756,-102.94 1756,-88.77 1756,-79.82"/>
<polygon fill="#63b8ff" stroke="#63b8ff" points="1752.5,-114.59 1756,-124.59 1759.5,-114.59 1752.5,-114.59"/>
</g>
<!-- Node21 -->
<g id="node21" class="node">
<title>Node21</title>
<g id="a_node21"><a xlink:href="d__menu__insect_8cpp.html" target="_top" xlink:title=" ">
<polygon fill="white" stroke="#666666" points="2003,-79.5 1851,-79.5 1851,-60.5 2003,-60.5 2003,-79.5"/>
<text text-anchor="middle" x="1927" y="-67.5" font-family="Helvetica,sans-Serif" font-size="10.00">src/d/menu/d_menu_insect.cpp</text>
</a>
</g>
</g>
<!-- Node5&#45;&gt;Node21 -->
<g id="edge20" class="edge">
<title>Node5&#45;&gt;Node21</title>
<path fill="none" stroke="#63b8ff" d="M1790.44,-122.11C1823.91,-109.58 1873.85,-90.89 1903.15,-79.93"/>
<polygon fill="#63b8ff" stroke="#63b8ff" points="1789.33,-118.79 1781.19,-125.57 1791.79,-125.34 1789.33,-118.79"/>
</g>
<!-- Node22 -->
<g id="node22" class="node">
<title>Node22</title>
<g id="a_node22"><a xlink:href="d__menu__item__explain_8cpp.html" target="_top" xlink:title=" ">
<polygon fill="white" stroke="#666666" points="2148.5,-85 2021.5,-85 2021.5,-55 2148.5,-55 2148.5,-85"/>
<text text-anchor="start" x="2029.5" y="-73" font-family="Helvetica,sans-Serif" font-size="10.00">src/d/menu/d_menu_item</text>
<text text-anchor="middle" x="2085" y="-62" font-family="Helvetica,sans-Serif" font-size="10.00">_explain.cpp</text>
</a>
</g>
</g>
<!-- Node5&#45;&gt;Node22 -->
<g id="edge21" class="edge">
<title>Node5&#45;&gt;Node22</title>
<path fill="none" stroke="#63b8ff" d="M1813.26,-123.86C1871.29,-112.57 1960.88,-95.15 2021.16,-83.42"/>
<polygon fill="#63b8ff" stroke="#63b8ff" points="1812.73,-120.4 1803.58,-125.74 1814.06,-127.27 1812.73,-120.4"/>
</g>
<!-- Node23 -->
<g id="node23" class="node">
<title>Node23</title>
<g id="a_node23"><a xlink:href="d__menu__save_8cpp.html" target="_top" xlink:title=" ">
<polygon fill="white" stroke="#666666" points="2313.5,-79.5 2166.5,-79.5 2166.5,-60.5 2313.5,-60.5 2313.5,-79.5"/>
<text text-anchor="middle" x="2240" y="-67.5" font-family="Helvetica,sans-Serif" font-size="10.00">src/d/menu/d_menu_save.cpp</text>
</a>
</g>
</g>
<!-- Node5&#45;&gt;Node23 -->
<g id="edge24" class="edge">
<title>Node5&#45;&gt;Node23</title>
<path fill="none" stroke="#63b8ff" d="M1842.17,-125.43C1923.68,-116.1 2049.35,-101.02 2158,-85 2168.29,-83.48 2179.27,-81.71 2189.75,-79.95"/>
<polygon fill="#63b8ff" stroke="#63b8ff" points="1842.01,-121.92 1832.47,-126.53 1842.8,-128.88 1842.01,-121.92"/>
</g>
<!-- Node24 -->
<g id="node24" class="node">
<title>Node24</title>
<g id="a_node24"><a xlink:href="d__menu__skill_8cpp.html" target="_top" xlink:title=" ">
<polygon fill="white" stroke="#666666" points="2474.5,-79.5 2331.5,-79.5 2331.5,-60.5 2474.5,-60.5 2474.5,-79.5"/>
<text text-anchor="middle" x="2403" y="-67.5" font-family="Helvetica,sans-Serif" font-size="10.00">src/d/menu/d_menu_skill.cpp</text>
</a>
</g>
</g>
<!-- Node5&#45;&gt;Node24 -->
<g id="edge25" class="edge">
<title>Node5&#45;&gt;Node24</title>
<path fill="none" stroke="#63b8ff" d="M1842.13,-129.7C1953.46,-122.32 2153.21,-107.3 2323,-85 2333.62,-83.6 2344.99,-81.8 2355.72,-79.96"/>
<polygon fill="#63b8ff" stroke="#63b8ff" points="1842.23,-126.18 1832.49,-130.33 1842.69,-133.17 1842.23,-126.18"/>
</g>
<!-- Node25 -->
<g id="node25" class="node">
<title>Node25</title>
<g id="a_node25"><a xlink:href="d__msg__flow_8cpp.html" target="_top" xlink:title=" ">
<polygon fill="white" stroke="#666666" points="2625.5,-79.5 2492.5,-79.5 2492.5,-60.5 2625.5,-60.5 2625.5,-79.5"/>
<text text-anchor="middle" x="2559" y="-67.5" font-family="Helvetica,sans-Serif" font-size="10.00">src/d/msg/d_msg_flow.cpp</text>
</a>
</g>
</g>
<!-- Node5&#45;&gt;Node25 -->
<g id="edge26" class="edge">
<title>Node5&#45;&gt;Node25</title>
<path fill="none" stroke="#63b8ff" d="M1841.86,-130.36C2006.73,-121.24 2362.07,-100.51 2484,-85 2494.38,-83.68 2505.5,-81.84 2515.91,-79.93"/>
<polygon fill="#63b8ff" stroke="#63b8ff" points="1842.11,-126.84 1832.32,-130.88 1842.49,-133.83 1842.11,-126.84"/>
</g>
<!-- Node26 -->
<g id="node26" class="node">
<title>Node26</title>
<g id="a_node26"><a xlink:href="d__pane__class_8cpp.html" target="_top" xlink:title=" ">
<polygon fill="white" stroke="#666666" points="2786.5,-79.5 2643.5,-79.5 2643.5,-60.5 2786.5,-60.5 2786.5,-79.5"/>
<text text-anchor="middle" x="2715" y="-67.5" font-family="Helvetica,sans-Serif" font-size="10.00">src/d/pane/d_pane_class.cpp</text>
</a>
</g>
</g>
<!-- Node5&#45;&gt;Node26 -->
<g id="edge27" class="edge">
<title>Node5&#45;&gt;Node26</title>
<path fill="none" stroke="#63b8ff" d="M1842.29,-130.67C2048.35,-120.23 2557.79,-93.92 2635,-85 2646.07,-83.72 2657.92,-81.9 2669.02,-79.99"/>
<polygon fill="#63b8ff" stroke="#63b8ff" points="1842.25,-127.16 1832.44,-131.16 1842.6,-134.15 1842.25,-127.16"/>
</g>
<!-- Node27 -->
<g id="node27" class="node">
<title>Node27</title>
<g id="a_node27"><a xlink:href="d__particle_8cpp.html" target="_top" xlink:title=" ">
<polygon fill="white" stroke="#666666" points="2941,-79.5 2805,-79.5 2805,-60.5 2941,-60.5 2941,-79.5"/>
<text text-anchor="middle" x="2873" y="-67.5" font-family="Helvetica,sans-Serif" font-size="10.00">src/d/particle/d_particle.cpp</text>
</a>
</g>
</g>
<!-- Node5&#45;&gt;Node27 -->
<g id="edge28" class="edge">
<title>Node5&#45;&gt;Node27</title>
<path fill="none" stroke="#63b8ff" d="M1842.24,-131C2087.43,-119.63 2772.42,-87.7 2796,-85 2806.93,-83.75 2818.66,-81.89 2829.58,-79.93"/>
<polygon fill="#63b8ff" stroke="#63b8ff" points="1842.24,-127.5 1832.42,-131.46 1842.57,-134.49 1842.24,-127.5"/>
</g>
<!-- Node5&#45;&gt;Node28 -->
<g id="edge29" class="edge">
<title>Node5&#45;&gt;Node28</title>
<path fill="none" stroke="#63b8ff" d="M1841.98,-130.58C1903.3,-127.55 1987.7,-123.62 2062,-121 2385.01,-109.61 3195.25,-124.79 3516,-85 3525.09,-83.87 3534.8,-82 3543.78,-79.99"/>
<polygon fill="#63b8ff" stroke="#63b8ff" points="1842.13,-127.07 1832.32,-131.06 1842.48,-134.06 1842.13,-127.07"/>
</g>
<!-- Node29 -->
<g id="node29" class="node">
<title>Node29</title>
<g id="a_node29"><a xlink:href="d__s__name_8cpp.html" target="_top" xlink:title=" ">
<polygon fill="white" stroke="#666666" points="3072.5,-79.5 2959.5,-79.5 2959.5,-60.5 3072.5,-60.5 3072.5,-79.5"/>
<text text-anchor="middle" x="3016" y="-67.5" font-family="Helvetica,sans-Serif" font-size="10.00">src/d/s/d_s_name.cpp</text>
</a>
</g>
</g>
<!-- Node5&#45;&gt;Node29 -->
<g id="edge30" class="edge">
<title>Node5&#45;&gt;Node29</title>
<path fill="none" stroke="#63b8ff" d="M1841.99,-130.95C1903.32,-128.08 1987.72,-124.2 2062,-121 2456.62,-103.97 2558.08,-134.16 2950,-85 2959.53,-83.8 2969.73,-81.94 2979.18,-79.95"/>
<polygon fill="#63b8ff" stroke="#63b8ff" points="1842.16,-127.43 1832.33,-131.4 1842.48,-134.43 1842.16,-127.43"/>
</g>
<!-- Node30 -->
<g id="node30" class="node">
<title>Node30</title>
<g id="a_node30"><a xlink:href="d__s__play_8cpp.html" target="_top" xlink:title=" ">
<polygon fill="white" stroke="#666666" points="3197,-79.5 3091,-79.5 3091,-60.5 3197,-60.5 3197,-79.5"/>
<text text-anchor="middle" x="3144" y="-67.5" font-family="Helvetica,sans-Serif" font-size="10.00">src/d/s/d_s_play.cpp</text>
</a>
</g>
</g>
<!-- Node5&#45;&gt;Node30 -->
<g id="edge31" class="edge">
<title>Node5&#45;&gt;Node30</title>
<path fill="none" stroke="#63b8ff" d="M1841.99,-130.83C1903.31,-127.91 1987.72,-124.01 2062,-121 2515.24,-102.63 2632.13,-143.21 3082,-85 3091.08,-83.82 3100.79,-81.94 3109.77,-79.93"/>
<polygon fill="#63b8ff" stroke="#63b8ff" points="1842.15,-127.31 1832.33,-131.29 1842.48,-134.31 1842.15,-127.31"/>
</g>
<!-- Node31 -->
<g id="node31" class="node">
<title>Node31</title>
<g id="a_node31"><a xlink:href="m__Do__graphic_8cpp.html" target="_top" xlink:title=" ">
<polygon fill="white" stroke="#666666" points="3357,-79.5 3215,-79.5 3215,-60.5 3357,-60.5 3357,-79.5"/>
<text text-anchor="middle" x="3286" y="-67.5" font-family="Helvetica,sans-Serif" font-size="10.00">src/m_Do/m_Do_graphic.cpp</text>
</a>
</g>
</g>
<!-- Node5&#45;&gt;Node31 -->
<g id="edge32" class="edge">
<title>Node5&#45;&gt;Node31</title>
<path fill="none" stroke="#63b8ff" d="M1841.99,-130.74C1903.3,-127.78 1987.71,-123.87 2062,-121 2570.32,-101.37 2699.97,-136.98 3206,-85 3217.5,-83.82 3229.84,-81.96 3241.31,-79.97"/>
<polygon fill="#63b8ff" stroke="#63b8ff" points="1842.14,-127.23 1832.32,-131.21 1842.48,-134.22 1842.14,-127.23"/>
</g>
<!-- Node32 -->
<g id="node32" class="node">
<title>Node32</title>
<g id="a_node32"><a xlink:href="m__Do__main_8cpp.html" target="_top" xlink:title=" ">
<polygon fill="white" stroke="#666666" points="3506.5,-79.5 3375.5,-79.5 3375.5,-60.5 3506.5,-60.5 3506.5,-79.5"/>
<text text-anchor="middle" x="3441" y="-67.5" font-family="Helvetica,sans-Serif" font-size="10.00">src/m_Do/m_Do_main.cpp</text>
</a>
</g>
</g>
<!-- Node5&#45;&gt;Node32 -->
<g id="edge33" class="edge">
<title>Node5&#45;&gt;Node32</title>
<path fill="none" stroke="#63b8ff" d="M1841.98,-130.65C1903.3,-127.65 1987.7,-123.72 2062,-121 2641.39,-99.75 2789.48,-146.38 3366,-85 3376.93,-83.84 3388.66,-81.96 3399.52,-79.94"/>
<polygon fill="#63b8ff" stroke="#63b8ff" points="1842.14,-127.14 1832.32,-131.12 1842.48,-134.13 1842.14,-127.14"/>
</g>
<!-- Node6&#45;&gt;Node7 -->
<g id="edge6" class="edge">
<title>Node6&#45;&gt;Node7</title>
<path fill="none" stroke="#63b8ff" d="M196.3,-50.94C165.19,-40.49 127.39,-27.78 102.57,-19.43"/>
<polygon fill="#63b8ff" stroke="#63b8ff" points="194.96,-54.19 205.55,-54.06 197.19,-47.55 194.96,-54.19"/>
</g>
<!-- Node6&#45;&gt;Node8 -->
<g id="edge7" class="edge">
<title>Node6&#45;&gt;Node8</title>
<path fill="none" stroke="#63b8ff" d="M302.59,-50.8C332.83,-40.33 369.45,-27.65 393.44,-19.35"/>
<polygon fill="#63b8ff" stroke="#63b8ff" points="301.51,-47.47 293.21,-54.04 303.8,-54.08 301.51,-47.47"/>
</g>
<!-- Node9 -->
<g id="node9" class="node">
<title>Node9</title>
<g id="a_node9"><a xlink:href="d__menu__window_8cpp.html" target="_top" xlink:title=" ">
<polygon fill="white" stroke="#666666" points="329.5,-19 170.5,-19 170.5,0 329.5,0 329.5,-19"/>
<text text-anchor="middle" x="250" y="-7" font-family="Helvetica,sans-Serif" font-size="10.00">src/d/menu/d_menu_window.cpp</text>
</a>
</g>
</g>
<!-- Node6&#45;&gt;Node9 -->
<g id="edge8" class="edge">
<title>Node6&#45;&gt;Node9</title>
<path fill="none" stroke="#63b8ff" d="M250,-43.3C250,-34.65 250,-25.58 250,-19.18"/>
<polygon fill="#63b8ff" stroke="#63b8ff" points="246.5,-43.03 250,-53.03 253.5,-43.03 246.5,-43.03"/>
</g>
</g>
</svg>
        <g id="navigator" transform="translate(0 0)" fill="#404254">
                <rect fill="#f2f5e9" fill-opacity="0.5" stroke="#606060" stroke-width=".5" x="0" y="0" width="60" height="60"/>
                <use id="zoomplus" xlink:href="#zoomPlus" x="17" y="9" onmousedown="handleZoom(evt,'in')"/>
                <use id="zoomminus" xlink:href="#zoomMin" x="42" y="9" onmousedown="handleZoom(evt,'out')"/>
                <use id="reset" xlink:href="#resetDef" x="30" y="36" onmousedown="handleReset()"/>
                <g id="arrowUp" xlink:href="#dirArrow" transform="translate(30 24)" onmousedown="handlePan(0,-1)">
                  <use xlink:href="#rim" fill="#404040">
                        <set attributeName="fill" to="#808080" begin="arrowUp.mouseover" end="arrowUp.mouseout"/>
                  </use>
                  <path fill="none" stroke="white" stroke-width="1.5" d="M0,-3.0v7 M-2.5,-0.5L0,-3.0L2.5,-0.5"/>
                </g>
                <g id="arrowRight" xlink:href="#dirArrow" transform="rotate(90) translate(36 -43)" onmousedown="handlePan(1,0)">
                  <use xlink:href="#rim" fill="#404040">
                        <set attributeName="fill" to="#808080" begin="arrowRight.mouseover" end="arrowRight.mouseout"/>
                  </use>
                  <path fill="none" stroke="white" stroke-width="1.5" d="M0,-3.0v7 M-2.5,-0.5L0,-3.0L2.5,-0.5"/>
                </g>
                <g id="arrowDown" xlink:href="#dirArrow" transform="rotate(180) translate(-30 -48)" onmousedown="handlePan(0,1)">
                  <use xlink:href="#rim" fill="#404040">
                        <set attributeName="fill" to="#808080" begin="arrowDown.mouseover" end="arrowDown.mouseout"/>
                  </use>
                  <path fill="none" stroke="white" stroke-width="1.5" d="M0,-3.0v7 M-2.5,-0.5L0,-3.0L2.5,-0.5"/>
                </g>
                <g id="arrowLeft" xlink:href="#dirArrow" transform="rotate(270) translate(-36 17)" onmousedown="handlePan(-1,0)">
                  <use xlink:href="#rim" fill="#404040">
                        <set attributeName="fill" to="#808080" begin="arrowLeft.mouseover" end="arrowLeft.mouseout"/>
                  </use>
                  <path fill="none" stroke="white" stroke-width="1.5" d="M0,-3.0v7 M-2.5,-0.5L0,-3.0L2.5,-0.5"/>
                </g>
        </g>
        <svg viewBox="0 0 15 15" width="100%" height="30px" preserveAspectRatio="xMaxYMin meet">
         <g id="arrow_out" transform="scale(0.3 0.3)">
          <a xlink:href="vi_8h__dep__incl_org.svg" target="_base">
           <rect id="button" ry="5" rx="5" y="6" x="6" height="38" width="38"
                fill="#f2f5e9" fill-opacity="0.5" stroke="#606060" stroke-width="1.0"/>
           <path id="arrow"
             d="M 11.500037,31.436501 C 11.940474,20.09759 22.043105,11.32322 32.158766,21.979434 L 37.068811,17.246167 C 37.068811,17.246167 37.088388,32 37.088388,32 L 22.160133,31.978069 C 22.160133,31.978069 26.997745,27.140456 26.997745,27.140456 C 18.528582,18.264221 13.291696,25.230495 11.500037,31.436501 z"
             style="fill:#404040;"/>
          </a>
         </g>
        </svg>
</svg>
