<?xml version="1.0" encoding="UTF-8" standalone="no"?>
<!DOCTYPE svg PUBLIC "-//W3C//DTD SVG 1.1//EN"
 "http://www.w3.org/Graphics/SVG/1.1/DTD/svg11.dtd">
<!-- Generated by graphviz version 7.0.5 (20221223.1930)
 -->
<!-- Title: include/Z2AudioLib/Z2Calc.h Pages: 1 -->
<svg width="4676pt" height="368pt"
 viewBox="0.00 0.00 4675.92 368.00" xmlns="http://www.w3.org/2000/svg" xmlns:xlink="http://www.w3.org/1999/xlink">
<g id="graph0" class="graph" transform="scale(1 1) rotate(0) translate(4 364)">
<title>include/Z2AudioLib/Z2Calc.h</title>
<!-- Node1 -->
<g id="node1" class="node">
<title>Node1</title>
<g id="a_node1"><a xlink:title=" ">
<polygon fill="#999999" stroke="#666666" points="3788.92,-360 3688.92,-360 3688.92,-330 3788.92,-330 3788.92,-360"/>
<text text-anchor="start" x="3696.92" y="-348" font-family="Helvetica,sans-Serif" font-size="10.00">include/Z2AudioLib</text>
<text text-anchor="middle" x="3738.92" y="-337" font-family="Helvetica,sans-Serif" font-size="10.00">/Z2Calc.h</text>
</a>
</g>
</g>
<!-- Node2 -->
<g id="node2" class="node">
<title>Node2</title>
<g id="a_node2"><a xlink:href="Z2EnvSeMgr_8h.html" target="_top" xlink:title=" ">
<polygon fill="white" stroke="#666666" points="3146.92,-294 3046.92,-294 3046.92,-264 3146.92,-264 3146.92,-294"/>
<text text-anchor="start" x="3054.92" y="-282" font-family="Helvetica,sans-Serif" font-size="10.00">include/Z2AudioLib</text>
<text text-anchor="middle" x="3096.92" y="-271" font-family="Helvetica,sans-Serif" font-size="10.00">/Z2EnvSeMgr.h</text>
</a>
</g>
</g>
<!-- Node1&#45;&gt;Node2 -->
<g id="edge1" class="edge">
<title>Node1&#45;&gt;Node2</title>
<path fill="none" stroke="#63b8ff" d="M3677.2,-341.7C3570.4,-337.05 3344.44,-324.28 3155.92,-294 3153.11,-293.55 3150.24,-293.04 3147.35,-292.48"/>
<polygon fill="#63b8ff" stroke="#63b8ff" points="3677.05,-345.2 3687.19,-342.12 3677.35,-338.2 3677.05,-345.2"/>
</g>
<!-- Node179 -->
<g id="node39" class="node">
<title>Node179</title>
<g id="a_node39"><a xlink:href="Z2EnvSeMgr_8cpp.html" target="_top" xlink:title=" ">
<polygon fill="white" stroke="#666666" points="2992.42,-222.5 2831.42,-222.5 2831.42,-203.5 2992.42,-203.5 2992.42,-222.5"/>
<text text-anchor="middle" x="2911.92" y="-210.5" font-family="Helvetica,sans-Serif" font-size="10.00">libs/Z2AudioLib/Z2EnvSeMgr.cpp</text>
</a>
</g>
</g>
<!-- Node1&#45;&gt;Node179 -->
<g id="edge46" class="edge">
<title>Node1&#45;&gt;Node179</title>
<path fill="none" stroke="#63b8ff" d="M3677.33,-343.46C3529.05,-341.53 3155.79,-332.86 3037.92,-294 2989.93,-278.18 2941.94,-240.04 2921.8,-222.77"/>
<polygon fill="#63b8ff" stroke="#63b8ff" points="3676.9,-346.95 3686.94,-343.58 3676.98,-339.95 3676.9,-346.95"/>
</g>
<!-- Node495 -->
<g id="node42" class="node">
<title>Node495</title>
<g id="a_node42"><a xlink:href="Z2Audience_8cpp.html" target="_top" xlink:title=" ">
<polygon fill="white" stroke="#666666" points="3322.42,-288.5 3165.42,-288.5 3165.42,-269.5 3322.42,-269.5 3322.42,-288.5"/>
<text text-anchor="middle" x="3243.92" y="-276.5" font-family="Helvetica,sans-Serif" font-size="10.00">libs/Z2AudioLib/Z2Audience.cpp</text>
</a>
</g>
</g>
<!-- Node1&#45;&gt;Node495 -->
<g id="edge43" class="edge">
<title>Node1&#45;&gt;Node495</title>
<path fill="none" stroke="#63b8ff" d="M3677.42,-337.13C3597.64,-328.07 3454.2,-311.23 3331.92,-294 3321.04,-292.47 3309.43,-290.71 3298.33,-288.97"/>
<polygon fill="#63b8ff" stroke="#63b8ff" points="3676.88,-340.6 3687.21,-338.24 3677.67,-333.64 3676.88,-340.6"/>
</g>
<!-- Node496 -->
<g id="node43" class="node">
<title>Node496</title>
<g id="a_node43"><a xlink:href="Z2Calc_8cpp.html" target="_top" xlink:title=" ">
<polygon fill="white" stroke="#666666" points="3476.92,-288.5 3340.92,-288.5 3340.92,-269.5 3476.92,-269.5 3476.92,-288.5"/>
<text text-anchor="middle" x="3408.92" y="-276.5" font-family="Helvetica,sans-Serif" font-size="10.00">libs/Z2AudioLib/Z2Calc.cpp</text>
</a>
</g>
</g>
<!-- Node1&#45;&gt;Node496 -->
<g id="edge44" class="edge">
<title>Node1&#45;&gt;Node496</title>
<path fill="none" stroke="#63b8ff" d="M3677.23,-332.04C3612.77,-319.53 3513.12,-300.21 3455.13,-288.96"/>
<polygon fill="#63b8ff" stroke="#63b8ff" points="3676.47,-335.45 3686.95,-333.92 3677.8,-328.58 3676.47,-335.45"/>
</g>
<!-- Node497 -->
<g id="node44" class="node">
<title>Node497</title>
<g id="a_node44"><a xlink:href="Z2Creature_8cpp.html" target="_top" xlink:title=" ">
<polygon fill="white" stroke="#666666" points="3648.42,-288.5 3495.42,-288.5 3495.42,-269.5 3648.42,-269.5 3648.42,-288.5"/>
<text text-anchor="middle" x="3571.92" y="-276.5" font-family="Helvetica,sans-Serif" font-size="10.00">libs/Z2AudioLib/Z2Creature.cpp</text>
</a>
</g>
</g>
<!-- Node1&#45;&gt;Node497 -->
<g id="edge45" class="edge">
<title>Node1&#45;&gt;Node497</title>
<path fill="none" stroke="#63b8ff" d="M3690.74,-325.54C3659.43,-313.54 3620,-298.43 3595.36,-288.99"/>
<polygon fill="#63b8ff" stroke="#63b8ff" points="3689.44,-328.79 3700.03,-329.1 3691.94,-322.25 3689.44,-328.79"/>
</g>
<!-- Node498 -->
<g id="node45" class="node">
<title>Node498</title>
<g id="a_node45"><a xlink:href="Z2SeMgr_8cpp.html" target="_top" xlink:title=" ">
<polygon fill="white" stroke="#666666" points="3811.42,-288.5 3666.42,-288.5 3666.42,-269.5 3811.42,-269.5 3811.42,-288.5"/>
<text text-anchor="middle" x="3738.92" y="-276.5" font-family="Helvetica,sans-Serif" font-size="10.00">libs/Z2AudioLib/Z2SeMgr.cpp</text>
</a>
</g>
</g>
<!-- Node1&#45;&gt;Node498 -->
<g id="edge47" class="edge">
<title>Node1&#45;&gt;Node498</title>
<path fill="none" stroke="#63b8ff" d="M3738.92,-318.59C3738.92,-308.06 3738.92,-296.53 3738.92,-288.84"/>
<polygon fill="#63b8ff" stroke="#63b8ff" points="3735.42,-318.28 3738.92,-328.28 3742.42,-318.28 3735.42,-318.28"/>
</g>
<!-- Node499 -->
<g id="node46" class="node">
<title>Node499</title>
<g id="a_node46"><a xlink:href="Z2SeqMgr_8cpp.html" target="_top" xlink:title=" ">
<polygon fill="white" stroke="#666666" points="3979.92,-288.5 3829.92,-288.5 3829.92,-269.5 3979.92,-269.5 3979.92,-288.5"/>
<text text-anchor="middle" x="3904.92" y="-276.5" font-family="Helvetica,sans-Serif" font-size="10.00">libs/Z2AudioLib/Z2SeqMgr.cpp</text>
</a>
</g>
</g>
<!-- Node1&#45;&gt;Node499 -->
<g id="edge48" class="edge">
<title>Node1&#45;&gt;Node499</title>
<path fill="none" stroke="#63b8ff" d="M3786.81,-325.54C3817.93,-313.54 3857.13,-298.43 3881.61,-288.99"/>
<polygon fill="#63b8ff" stroke="#63b8ff" points="3785.65,-322.23 3777.58,-329.09 3788.17,-328.76 3785.65,-322.23"/>
</g>
<!-- Node500 -->
<g id="node47" class="node">
<title>Node500</title>
<g id="a_node47"><a xlink:href="Z2SoundInfo_8cpp.html" target="_top" xlink:title=" ">
<polygon fill="white" stroke="#666666" points="4159.42,-288.5 3998.42,-288.5 3998.42,-269.5 4159.42,-269.5 4159.42,-288.5"/>
<text text-anchor="middle" x="4078.92" y="-276.5" font-family="Helvetica,sans-Serif" font-size="10.00">libs/Z2AudioLib/Z2SoundInfo.cpp</text>
</a>
</g>
</g>
<!-- Node1&#45;&gt;Node500 -->
<g id="edge49" class="edge">
<title>Node1&#45;&gt;Node500</title>
<path fill="none" stroke="#63b8ff" d="M3800.2,-332.47C3866.51,-319.98 3970.85,-300.34 4031.29,-288.97"/>
<polygon fill="#63b8ff" stroke="#63b8ff" points="3799.75,-328.99 3790.57,-334.28 3801.05,-335.87 3799.75,-328.99"/>
</g>
<!-- Node501 -->
<g id="node48" class="node">
<title>Node501</title>
<g id="a_node48"><a xlink:href="Z2SoundObjMgr_8cpp.html" target="_top" xlink:title=" ">
<polygon fill="white" stroke="#666666" points="4318.42,-294 4177.42,-294 4177.42,-264 4318.42,-264 4318.42,-294"/>
<text text-anchor="start" x="4185.42" y="-282" font-family="Helvetica,sans-Serif" font-size="10.00">libs/Z2AudioLib/Z2SoundObj</text>
<text text-anchor="middle" x="4247.92" y="-271" font-family="Helvetica,sans-Serif" font-size="10.00">Mgr.cpp</text>
</a>
</g>
</g>
<!-- Node1&#45;&gt;Node501 -->
<g id="edge50" class="edge">
<title>Node1&#45;&gt;Node501</title>
<path fill="none" stroke="#63b8ff" d="M3800.69,-337.99C3884.34,-329.58 4038.24,-313.16 4168.92,-294 4171.67,-293.6 4174.48,-293.17 4177.32,-292.73"/>
<polygon fill="#63b8ff" stroke="#63b8ff" points="3800.46,-334.49 3790.86,-338.97 3801.16,-341.46 3800.46,-334.49"/>
</g>
<!-- Node502 -->
<g id="node49" class="node">
<title>Node502</title>
<g id="a_node49"><a xlink:href="Z2SoundObject_8cpp.html" target="_top" xlink:title=" ">
<polygon fill="white" stroke="#666666" points="4509.42,-288.5 4336.42,-288.5 4336.42,-269.5 4509.42,-269.5 4509.42,-288.5"/>
<text text-anchor="middle" x="4422.92" y="-276.5" font-family="Helvetica,sans-Serif" font-size="10.00">libs/Z2AudioLib/Z2SoundObject.cpp</text>
</a>
</g>
</g>
<!-- Node1&#45;&gt;Node502 -->
<g id="edge51" class="edge">
<title>Node1&#45;&gt;Node502</title>
<path fill="none" stroke="#63b8ff" d="M3800.29,-340.04C3907.52,-332.85 4135.88,-316.28 4327.92,-294 4340.25,-292.57 4353.46,-290.78 4365.98,-288.97"/>
<polygon fill="#63b8ff" stroke="#63b8ff" points="3800.31,-336.53 3790.57,-340.69 3800.78,-343.52 3800.31,-336.53"/>
</g>
<!-- Node503 -->
<g id="node50" class="node">
<title>Node503</title>
<g id="a_node50"><a xlink:href="Z2WolfHowlMgr_8cpp.html" target="_top" xlink:title=" ">
<polygon fill="white" stroke="#666666" points="4667.92,-294 4527.92,-294 4527.92,-264 4667.92,-264 4667.92,-294"/>
<text text-anchor="start" x="4535.92" y="-282" font-family="Helvetica,sans-Serif" font-size="10.00">libs/Z2AudioLib/Z2WolfHowl</text>
<text text-anchor="middle" x="4597.92" y="-271" font-family="Helvetica,sans-Serif" font-size="10.00">Mgr.cpp</text>
</a>
</g>
</g>
<!-- Node1&#45;&gt;Node503 -->
<g id="edge52" class="edge">
<title>Node1&#45;&gt;Node503</title>
<path fill="none" stroke="#63b8ff" d="M3800.74,-342.38C3932.94,-338.39 4252.79,-326.01 4518.92,-294 4521.82,-293.65 4524.78,-293.26 4527.77,-292.85"/>
<polygon fill="#63b8ff" stroke="#63b8ff" points="3800.69,-338.88 3790.8,-342.67 3800.9,-345.87 3800.69,-338.88"/>
</g>
<!-- Node3 -->
<g id="node3" class="node">
<title>Node3</title>
<g id="a_node3"><a xlink:href="m__Do__audio_8h.html" target="_top" xlink:title=" ">
<polygon fill="white" stroke="#666666" points="3490.92,-222.5 3350.92,-222.5 3350.92,-203.5 3490.92,-203.5 3490.92,-222.5"/>
<text text-anchor="middle" x="3420.92" y="-210.5" font-family="Helvetica,sans-Serif" font-size="10.00">include/m_Do/m_Do_audio.h</text>
</a>
</g>
</g>
<!-- Node2&#45;&gt;Node3 -->
<g id="edge2" class="edge">
<title>Node2&#45;&gt;Node3</title>
<path fill="none" stroke="#63b8ff" d="M3158.54,-263.49C3237.54,-246.85 3318.39,-232.05 3369.48,-222.97"/>
<polygon fill="#63b8ff" stroke="#63b8ff" points="3157.95,-260.04 3148.89,-265.54 3159.4,-266.89 3157.95,-260.04"/>
</g>
<!-- Node2&#45;&gt;Node179 -->
<g id="edge40" class="edge">
<title>Node2&#45;&gt;Node179</title>
<path fill="none" stroke="#63b8ff" d="M3044.91,-260.01C3010.01,-247.93 2965.54,-232.55 2937.89,-222.99"/>
<polygon fill="#63b8ff" stroke="#63b8ff" points="3043.37,-263.18 3053.97,-263.14 3045.66,-256.57 3043.37,-263.18"/>
</g>
<!-- Node493 -->
<g id="node40" class="node">
<title>Node493</title>
<g id="a_node40"><a xlink:href="Z2SoundStarter_8cpp.html" target="_top" xlink:title=" ">
<polygon fill="white" stroke="#666666" points="3183.42,-222.5 3010.42,-222.5 3010.42,-203.5 3183.42,-203.5 3183.42,-222.5"/>
<text text-anchor="middle" x="3096.92" y="-210.5" font-family="Helvetica,sans-Serif" font-size="10.00">libs/Z2AudioLib/Z2SoundStarter.cpp</text>
</a>
</g>
</g>
<!-- Node2&#45;&gt;Node493 -->
<g id="edge41" class="edge">
<title>Node2&#45;&gt;Node493</title>
<path fill="none" stroke="#63b8ff" d="M3096.92,-252.59C3096.92,-242.06 3096.92,-230.53 3096.92,-222.84"/>
<polygon fill="#63b8ff" stroke="#63b8ff" points="3093.42,-252.28 3096.92,-262.28 3100.42,-252.28 3093.42,-252.28"/>
</g>
<!-- Node494 -->
<g id="node41" class="node">
<title>Node494</title>
<g id="a_node41"><a xlink:href="Z2SpeechMgr2_8cpp.html" target="_top" xlink:title=" ">
<polygon fill="white" stroke="#666666" points="3332.42,-228 3201.42,-228 3201.42,-198 3332.42,-198 3332.42,-228"/>
<text text-anchor="start" x="3209.42" y="-216" font-family="Helvetica,sans-Serif" font-size="10.00">libs/Z2AudioLib/Z2Speech</text>
<text text-anchor="middle" x="3266.92" y="-205" font-family="Helvetica,sans-Serif" font-size="10.00">Mgr2.cpp</text>
</a>
</g>
</g>
<!-- Node2&#45;&gt;Node494 -->
<g id="edge42" class="edge">
<title>Node2&#45;&gt;Node494</title>
<path fill="none" stroke="#63b8ff" d="M3145.6,-259.67C3171.95,-249.75 3204.04,-237.67 3228.6,-228.43"/>
<polygon fill="#63b8ff" stroke="#63b8ff" points="3144.61,-256.3 3136.49,-263.1 3147.08,-262.86 3144.61,-256.3"/>
</g>
<!-- Node4 -->
<g id="node4" class="node">
<title>Node4</title>
<g id="a_node4"><a xlink:href="m__Do__ext_8h.html" target="_top" xlink:title=" ">
<polygon fill="#fff0f0" stroke="red" points="1456.92,-156.5 1326.92,-156.5 1326.92,-137.5 1456.92,-137.5 1456.92,-156.5"/>
<text text-anchor="middle" x="1391.92" y="-144.5" font-family="Helvetica,sans-Serif" font-size="10.00">include/m_Do/m_Do_ext.h</text>
</a>
</g>
</g>
<!-- Node3&#45;&gt;Node4 -->
<g id="edge3" class="edge">
<title>Node3&#45;&gt;Node4</title>
<path fill="none" stroke="#63b8ff" d="M3365.29,-201.18C3357.14,-199.91 3348.83,-198.79 3340.92,-198 2963.27,-160.32 1751.71,-150.29 1456.99,-148.38"/>
<polygon fill="#63b8ff" stroke="#63b8ff" points="3364.72,-204.63 3375.15,-202.81 3365.86,-197.73 3364.72,-204.63"/>
</g>
<!-- Node55 -->
<g id="node10" class="node">
<title>Node55</title>
<g id="a_node10"><a xlink:href="d__kankyo_8cpp.html" target="_top" xlink:title=" ">
<polygon fill="white" stroke="#666666" points="1396.92,-24.5 1262.92,-24.5 1262.92,-5.5 1396.92,-5.5 1396.92,-24.5"/>
<text text-anchor="middle" x="1329.92" y="-12.5" font-family="Helvetica,sans-Serif" font-size="10.00">src/d/kankyo/d_kankyo.cpp</text>
</a>
</g>
</g>
<!-- Node3&#45;&gt;Node55 -->
<g id="edge29" class="edge">
<title>Node3&#45;&gt;Node55</title>
<path fill="none" stroke="#63b8ff" d="M3365.88,-201.21C3357.54,-199.92 3349.02,-198.78 3340.92,-198 2893.34,-155.12 1767.28,-177.31 1317.92,-162 1172.15,-157.04 107.42,-201.69 6.92,-96 -2.27,-86.34 -2.33,-75.6 6.92,-66 50.84,-20.39 999.54,-16.25 1262.74,-15.99"/>
<polygon fill="#63b8ff" stroke="#63b8ff" points="3365.14,-204.64 3375.58,-202.82 3366.28,-197.73 3365.14,-204.64"/>
</g>
<!-- Node221 -->
<g id="node11" class="node">
<title>Node221</title>
<g id="a_node11"><a xlink:href="d__kankyo__wether_8cpp.html" target="_top" xlink:title=" ">
<polygon fill="white" stroke="#666666" points="2834.92,-30 2718.92,-30 2718.92,0 2834.92,0 2834.92,-30"/>
<text text-anchor="start" x="2726.92" y="-18" font-family="Helvetica,sans-Serif" font-size="10.00">src/d/kankyo/d_kankyo</text>
<text text-anchor="middle" x="2776.92" y="-7" font-family="Helvetica,sans-Serif" font-size="10.00">_wether.cpp</text>
</a>
</g>
</g>
<!-- Node3&#45;&gt;Node221 -->
<g id="edge30" class="edge">
<title>Node3&#45;&gt;Node221</title>
<path fill="none" stroke="#63b8ff" d="M3363.25,-201.19C3355.76,-199.99 3348.17,-198.89 3340.92,-198 3284.97,-191.13 2880.38,-195.32 2834.92,-162 2797.91,-134.87 2813.88,-108.64 2796.92,-66 2792.15,-54.01 2786.71,-40.42 2782.71,-30.44"/>
<polygon fill="#63b8ff" stroke="#63b8ff" points="3362.57,-204.62 3373.01,-202.8 3363.72,-197.71 3362.57,-204.62"/>
</g>
<!-- Node9 -->
<g id="node27" class="node">
<title>Node9</title>
<g id="a_node27"><a xlink:href="d__com__inf__game_8cpp.html" target="_top" xlink:title=" ">
<polygon fill="white" stroke="#666666" points="2951.92,-162 2843.92,-162 2843.92,-132 2951.92,-132 2951.92,-162"/>
<text text-anchor="start" x="2851.92" y="-150" font-family="Helvetica,sans-Serif" font-size="10.00">src/d/com/d_com_inf</text>
<text text-anchor="middle" x="2897.92" y="-139" font-family="Helvetica,sans-Serif" font-size="10.00">_game.cpp</text>
</a>
</g>
</g>
<!-- Node3&#45;&gt;Node9 -->
<g id="edge26" class="edge">
<title>Node3&#45;&gt;Node9</title>
<path fill="none" stroke="#63b8ff" d="M3361.86,-201.13C3354.81,-199.99 3347.71,-198.92 3340.92,-198 3172.79,-175.36 3128.49,-188.45 2960.92,-162 2958.04,-161.55 2955.1,-161.04 2952.13,-160.5"/>
<polygon fill="#63b8ff" stroke="#63b8ff" points="3361.28,-204.58 3371.72,-202.77 3362.43,-197.67 3361.28,-204.58"/>
</g>
<!-- Node206 -->
<g id="node28" class="node">
<title>Node206</title>
<g id="a_node28"><a xlink:href="d__name_8cpp.html" target="_top" xlink:title=" ">
<polygon fill="white" stroke="#666666" points="3063.92,-156.5 2969.92,-156.5 2969.92,-137.5 3063.92,-137.5 3063.92,-156.5"/>
<text text-anchor="middle" x="3016.92" y="-144.5" font-family="Helvetica,sans-Serif" font-size="10.00">src/d/d_name.cpp</text>
</a>
</g>
</g>
<!-- Node3&#45;&gt;Node206 -->
<g id="edge27" class="edge">
<title>Node3&#45;&gt;Node206</title>
<path fill="none" stroke="#63b8ff" d="M3360.45,-201.16C3353.87,-200.05 3347.26,-198.98 3340.92,-198 3222.15,-179.64 3190.95,-184.61 3072.92,-162 3065.54,-160.59 3057.67,-158.8 3050.24,-156.98"/>
<polygon fill="#63b8ff" stroke="#63b8ff" points="3359.53,-204.55 3369.97,-202.78 3360.7,-197.65 3359.53,-204.55"/>
</g>
<!-- Node216 -->
<g id="node29" class="node">
<title>Node216</title>
<g id="a_node29"><a xlink:href="d__event__manager_8cpp.html" target="_top" xlink:title=" ">
<polygon fill="white" stroke="#666666" points="3185.42,-162 3082.42,-162 3082.42,-132 3185.42,-132 3185.42,-162"/>
<text text-anchor="start" x="3090.42" y="-150" font-family="Helvetica,sans-Serif" font-size="10.00">src/d/event/d_event</text>
<text text-anchor="middle" x="3133.92" y="-139" font-family="Helvetica,sans-Serif" font-size="10.00">_manager.cpp</text>
</a>
</g>
</g>
<!-- Node3&#45;&gt;Node216 -->
<g id="edge28" class="edge">
<title>Node3&#45;&gt;Node216</title>
<path fill="none" stroke="#63b8ff" d="M3368.26,-200.6C3322.23,-190.58 3253.6,-175.54 3193.92,-162 3191.21,-161.38 3188.43,-160.75 3185.62,-160.11"/>
<polygon fill="#63b8ff" stroke="#63b8ff" points="3367.47,-204 3377.98,-202.71 3368.95,-197.16 3367.47,-204"/>
</g>
<!-- Node16 -->
<g id="node30" class="node">
<title>Node16</title>
<g id="a_node30"><a xlink:href="d__msg__flow_8cpp.html" target="_top" xlink:title=" ">
<polygon fill="white" stroke="#666666" points="3336.42,-156.5 3203.42,-156.5 3203.42,-137.5 3336.42,-137.5 3336.42,-156.5"/>
<text text-anchor="middle" x="3269.92" y="-144.5" font-family="Helvetica,sans-Serif" font-size="10.00">src/d/msg/d_msg_flow.cpp</text>
</a>
</g>
</g>
<!-- Node3&#45;&gt;Node16 -->
<g id="edge31" class="edge">
<title>Node3&#45;&gt;Node16</title>
<path fill="none" stroke="#63b8ff" d="M3389.7,-198.77C3360.06,-186.21 3316.34,-167.68 3290.73,-156.82"/>
<polygon fill="#63b8ff" stroke="#63b8ff" points="3387.95,-201.83 3398.53,-202.51 3390.69,-195.39 3387.95,-201.83"/>
</g>
<!-- Node239 -->
<g id="node31" class="node">
<title>Node239</title>
<g id="a_node31"><a xlink:href="d__ovlp__fade_8cpp.html" target="_top" xlink:title=" ">
<polygon fill="white" stroke="#666666" points="3487.42,-156.5 3354.42,-156.5 3354.42,-137.5 3487.42,-137.5 3487.42,-156.5"/>
<text text-anchor="middle" x="3420.92" y="-144.5" font-family="Helvetica,sans-Serif" font-size="10.00">src/d/ovlp/d_ovlp_fade.cpp</text>
</a>
</g>
</g>
<!-- Node3&#45;&gt;Node239 -->
<g id="edge32" class="edge">
<title>Node3&#45;&gt;Node239</title>
<path fill="none" stroke="#63b8ff" d="M3420.92,-191.68C3420.92,-179.94 3420.92,-165.77 3420.92,-156.82"/>
<polygon fill="#63b8ff" stroke="#63b8ff" points="3417.42,-191.59 3420.92,-201.59 3424.42,-191.59 3417.42,-191.59"/>
</g>
<!-- Node83 -->
<g id="node32" class="node">
<title>Node83</title>
<g id="a_node32"><a xlink:href="d__ovlp__fade2_8cpp.html" target="_top" xlink:title=" ">
<polygon fill="white" stroke="#666666" points="3643.92,-156.5 3505.92,-156.5 3505.92,-137.5 3643.92,-137.5 3643.92,-156.5"/>
<text text-anchor="middle" x="3574.92" y="-144.5" font-family="Helvetica,sans-Serif" font-size="10.00">src/d/ovlp/d_ovlp_fade2.cpp</text>
</a>
</g>
</g>
<!-- Node3&#45;&gt;Node83 -->
<g id="edge33" class="edge">
<title>Node3&#45;&gt;Node83</title>
<path fill="none" stroke="#63b8ff" d="M3452.76,-198.77C3482.98,-186.21 3527.57,-167.68 3553.69,-156.82"/>
<polygon fill="#63b8ff" stroke="#63b8ff" points="3451.62,-195.45 3443.73,-202.52 3454.31,-201.91 3451.62,-195.45"/>
</g>
<!-- Node85 -->
<g id="node33" class="node">
<title>Node85</title>
<g id="a_node33"><a xlink:href="d__ovlp__fade3_8cpp.html" target="_top" xlink:title=" ">
<polygon fill="white" stroke="#666666" points="3799.92,-156.5 3661.92,-156.5 3661.92,-137.5 3799.92,-137.5 3799.92,-156.5"/>
<text text-anchor="middle" x="3730.92" y="-144.5" font-family="Helvetica,sans-Serif" font-size="10.00">src/d/ovlp/d_ovlp_fade3.cpp</text>
</a>
</g>
</g>
<!-- Node3&#45;&gt;Node85 -->
<g id="edge34" class="edge">
<title>Node3&#45;&gt;Node85</title>
<path fill="none" stroke="#63b8ff" d="M3475.58,-200.71C3536.08,-188.22 3632.35,-168.35 3687.78,-156.91"/>
<polygon fill="#63b8ff" stroke="#63b8ff" points="3474.92,-197.28 3465.83,-202.73 3476.33,-204.13 3474.92,-197.28"/>
</g>
<!-- Node242 -->
<g id="node34" class="node">
<title>Node242</title>
<g id="a_node34"><a xlink:href="d__s__name_8cpp.html" target="_top" xlink:title=" ">
<polygon fill="white" stroke="#666666" points="3931.42,-156.5 3818.42,-156.5 3818.42,-137.5 3931.42,-137.5 3931.42,-156.5"/>
<text text-anchor="middle" x="3874.92" y="-144.5" font-family="Helvetica,sans-Serif" font-size="10.00">src/d/s/d_s_name.cpp</text>
</a>
</g>
</g>
<!-- Node3&#45;&gt;Node242 -->
<g id="edge35" class="edge">
<title>Node3&#45;&gt;Node242</title>
<path fill="none" stroke="#63b8ff" d="M3502.55,-203.42C3581.27,-194.69 3703.62,-179.92 3808.92,-162 3817.46,-160.55 3826.58,-158.76 3835.23,-156.96"/>
<polygon fill="#63b8ff" stroke="#63b8ff" points="3502.33,-199.93 3492.77,-204.5 3503.09,-206.88 3502.33,-199.93"/>
</g>
<!-- Node80 -->
<g id="node35" class="node">
<title>Node80</title>
<g id="a_node35"><a xlink:href="d__s__play_8cpp.html" target="_top" xlink:title=" ">
<polygon fill="white" stroke="#666666" points="4055.92,-156.5 3949.92,-156.5 3949.92,-137.5 4055.92,-137.5 4055.92,-156.5"/>
<text text-anchor="middle" x="4002.92" y="-144.5" font-family="Helvetica,sans-Serif" font-size="10.00">src/d/s/d_s_play.cpp</text>
</a>
</g>
</g>
<!-- Node3&#45;&gt;Node80 -->
<g id="edge36" class="edge">
<title>Node3&#45;&gt;Node80</title>
<path fill="none" stroke="#63b8ff" d="M3502.29,-207.36C3604.99,-200.78 3786.85,-186.7 3940.92,-162 3949.31,-160.65 3958.26,-158.85 3966.68,-156.99"/>
<polygon fill="#63b8ff" stroke="#63b8ff" points="3502.35,-203.85 3492.59,-207.98 3502.8,-210.84 3502.35,-203.85"/>
</g>
<!-- Node22 -->
<g id="node36" class="node">
<title>Node22</title>
<g id="a_node36"><a xlink:href="d__shop__system_8cpp.html" target="_top" xlink:title=" ">
<polygon fill="white" stroke="#666666" points="4225.92,-156.5 4073.92,-156.5 4073.92,-137.5 4225.92,-137.5 4225.92,-156.5"/>
<text text-anchor="middle" x="4149.92" y="-144.5" font-family="Helvetica,sans-Serif" font-size="10.00">src/d/shop/d_shop_system.cpp</text>
</a>
</g>
</g>
<!-- Node3&#45;&gt;Node22 -->
<g id="edge37" class="edge">
<title>Node3&#45;&gt;Node22</title>
<path fill="none" stroke="#63b8ff" d="M3502.64,-207.91C3625.14,-201.26 3863.5,-186.36 4064.92,-162 4076.35,-160.62 4088.6,-158.8 4100.13,-156.93"/>
<polygon fill="#63b8ff" stroke="#63b8ff" points="3502.46,-204.41 3492.67,-208.44 3502.84,-211.4 3502.46,-204.41"/>
</g>
<!-- Node492 -->
<g id="node37" class="node">
<title>Node492</title>
<g id="a_node37"><a xlink:href="m__Do__Reset_8cpp.html" target="_top" xlink:title=" ">
<polygon fill="white" stroke="#666666" points="4379.92,-156.5 4243.92,-156.5 4243.92,-137.5 4379.92,-137.5 4379.92,-156.5"/>
<text text-anchor="middle" x="4311.92" y="-144.5" font-family="Helvetica,sans-Serif" font-size="10.00">src/m_Do/m_Do_Reset.cpp</text>
</a>
</g>
</g>
<!-- Node3&#45;&gt;Node492 -->
<g id="edge38" class="edge">
<title>Node3&#45;&gt;Node492</title>
<path fill="none" stroke="#63b8ff" d="M3502.53,-210.18C3649.48,-206.21 3968.13,-194.33 4234.92,-162 4245.57,-160.71 4256.99,-158.88 4267.67,-156.97"/>
<polygon fill="#63b8ff" stroke="#63b8ff" points="3502.82,-206.68 3492.91,-210.44 3503,-213.67 3502.82,-206.68"/>
</g>
<!-- Node250 -->
<g id="node38" class="node">
<title>Node250</title>
<g id="a_node38"><a xlink:href="m__Do__audio_8cpp.html" target="_top" xlink:title=" ">
<polygon fill="white" stroke="#666666" points="4531.92,-156.5 4397.92,-156.5 4397.92,-137.5 4531.92,-137.5 4531.92,-156.5"/>
<text text-anchor="middle" x="4464.92" y="-144.5" font-family="Helvetica,sans-Serif" font-size="10.00">src/m_Do/m_Do_audio.cpp</text>
</a>
</g>
</g>
<!-- Node3&#45;&gt;Node250 -->
<g id="edge39" class="edge">
<title>Node3&#45;&gt;Node250</title>
<path fill="none" stroke="#63b8ff" d="M3502.48,-211.37C3669.43,-209.31 4061.96,-200.39 4388.92,-162 4399.58,-160.75 4411,-158.91 4421.66,-156.98"/>
<polygon fill="#63b8ff" stroke="#63b8ff" points="3502.8,-207.87 3492.84,-211.49 3502.88,-214.87 3502.8,-207.87"/>
</g>
<!-- Node5 -->
<g id="node5" class="node">
<title>Node5</title>
<g id="a_node5"><a xlink:href="d__attention_8h.html" target="_top" xlink:title=" ">
<polygon fill="#fff0f0" stroke="red" points="2543.92,-90.5 2429.92,-90.5 2429.92,-71.5 2543.92,-71.5 2543.92,-90.5"/>
<text text-anchor="middle" x="2486.92" y="-78.5" font-family="Helvetica,sans-Serif" font-size="10.00">include/d/d_attention.h</text>
</a>
</g>
</g>
<!-- Node4&#45;&gt;Node5 -->
<g id="edge4" class="edge">
<title>Node4&#45;&gt;Node5</title>
<path fill="none" stroke="#63b8ff" d="M1468.58,-146.38C1639.88,-146.34 2066.47,-141.24 2419.92,-96 2429.46,-94.78 2439.68,-92.93 2449.18,-90.97"/>
<polygon fill="#63b8ff" stroke="#63b8ff" points="1468.69,-142.88 1458.69,-146.38 1468.69,-149.88 1468.69,-142.88"/>
</g>
<!-- Node257 -->
<g id="node6" class="node">
<title>Node257</title>
<g id="a_node6"><a xlink:href="d__drawlist_8h.html" target="_top" xlink:title=" ">
<polygon fill="#fff0f0" stroke="red" points="2671.92,-90.5 2561.92,-90.5 2561.92,-71.5 2671.92,-71.5 2671.92,-90.5"/>
<text text-anchor="middle" x="2616.92" y="-78.5" font-family="Helvetica,sans-Serif" font-size="10.00">include/d/d_drawlist.h</text>
</a>
</g>
</g>
<!-- Node4&#45;&gt;Node257 -->
<g id="edge5" class="edge">
<title>Node4&#45;&gt;Node257</title>
<path fill="none" stroke="#63b8ff" d="M1468.67,-144.42C1692.54,-139.54 2342.26,-123.37 2552.92,-96 2562.17,-94.8 2572.06,-92.93 2581.23,-90.95"/>
<polygon fill="#63b8ff" stroke="#63b8ff" points="1468.82,-140.92 1458.9,-144.63 1468.97,-147.92 1468.82,-140.92"/>
</g>
<!-- Node306 -->
<g id="node7" class="node">
<title>Node306</title>
<g id="a_node7"><a xlink:href="d__ky__thunder_8h.html" target="_top" xlink:title=" ">
<polygon fill="#fff0f0" stroke="red" points="139.92,-90.5 15.92,-90.5 15.92,-71.5 139.92,-71.5 139.92,-90.5"/>
<text text-anchor="middle" x="77.92" y="-78.5" font-family="Helvetica,sans-Serif" font-size="10.00">include/d/d_ky_thunder.h</text>
</a>
</g>
</g>
<!-- Node4&#45;&gt;Node306 -->
<g id="edge6" class="edge">
<title>Node4&#45;&gt;Node306</title>
<path fill="none" stroke="#63b8ff" d="M1315.09,-144.47C1080.63,-139.54 376.45,-122.85 148.92,-96 138.69,-94.79 127.72,-92.92 117.55,-90.94"/>
<polygon fill="#63b8ff" stroke="#63b8ff" points="1314.97,-147.96 1325.04,-144.67 1315.12,-140.97 1314.97,-147.96"/>
</g>
<!-- Node307 -->
<g id="node8" class="node">
<title>Node307</title>
<g id="a_node8"><a xlink:href="d__resorce_8h.html" target="_top" xlink:title=" ">
<polygon fill="#fff0f0" stroke="red" points="267.42,-90.5 158.42,-90.5 158.42,-71.5 267.42,-71.5 267.42,-90.5"/>
<text text-anchor="middle" x="212.92" y="-78.5" font-family="Helvetica,sans-Serif" font-size="10.00">include/d/d_resorce.h</text>
</a>
</g>
</g>
<!-- Node4&#45;&gt;Node307 -->
<g id="edge7" class="edge">
<title>Node4&#45;&gt;Node307</title>
<path fill="none" stroke="#63b8ff" d="M1315.23,-144.27C1097.49,-139.07 478.3,-122.35 276.92,-96 267.67,-94.79 257.78,-92.92 248.61,-90.93"/>
<polygon fill="#63b8ff" stroke="#63b8ff" points="1314.93,-147.76 1325.01,-144.5 1315.1,-140.76 1314.93,-147.76"/>
</g>
<!-- Node308 -->
<g id="node9" class="node">
<title>Node308</title>
<g id="a_node9"><a xlink:href="d__kankyo_8h.html" target="_top" xlink:title=" ">
<polygon fill="#fff0f0" stroke="red" points="2787.92,-96 2689.92,-96 2689.92,-66 2787.92,-66 2787.92,-96"/>
<text text-anchor="start" x="2697.92" y="-84" font-family="Helvetica,sans-Serif" font-size="10.00">include/d/kankyo/d</text>
<text text-anchor="middle" x="2738.92" y="-73" font-family="Helvetica,sans-Serif" font-size="10.00">_kankyo.h</text>
</a>
</g>
</g>
<!-- Node4&#45;&gt;Node308 -->
<g id="edge8" class="edge">
<title>Node4&#45;&gt;Node308</title>
<path fill="none" stroke="#63b8ff" d="M1468.77,-145.02C1709.13,-141.62 2444.66,-128.77 2680.92,-96 2683.79,-95.6 2686.73,-95.12 2689.68,-94.59"/>
<polygon fill="#63b8ff" stroke="#63b8ff" points="1468.82,-141.51 1458.87,-145.15 1468.92,-148.51 1468.82,-141.51"/>
</g>
<!-- Node261 -->
<g id="node12" class="node">
<title>Node261</title>
<g id="a_node12"><a xlink:href="d__a__do_8h.html" target="_top" xlink:title=" ">
<polygon fill="white" stroke="#666666" points="381.92,-96 285.92,-96 285.92,-66 381.92,-66 381.92,-96"/>
<text text-anchor="start" x="293.92" y="-84" font-family="Helvetica,sans-Serif" font-size="10.00">include/rel/d/a/d_a</text>
<text text-anchor="middle" x="333.92" y="-73" font-family="Helvetica,sans-Serif" font-size="10.00">_do/d_a_do.h</text>
</a>
</g>
</g>
<!-- Node4&#45;&gt;Node261 -->
<g id="edge11" class="edge">
<title>Node4&#45;&gt;Node261</title>
<path fill="none" stroke="#63b8ff" d="M1315.11,-144.06C1112.87,-138.66 568.99,-122.07 390.92,-96 388.09,-95.59 385.21,-95.1 382.3,-94.55"/>
<polygon fill="#63b8ff" stroke="#63b8ff" points="1314.89,-147.56 1324.98,-144.32 1315.08,-140.56 1314.89,-147.56"/>
</g>
<!-- Node460 -->
<g id="node13" class="node">
<title>Node460</title>
<g id="a_node13"><a xlink:href="d__a__mg__fshop_8h.html" target="_top" xlink:title=" ">
<polygon fill="white" stroke="#666666" points="539.42,-96 400.42,-96 400.42,-66 539.42,-66 539.42,-96"/>
<text text-anchor="start" x="408.42" y="-84" font-family="Helvetica,sans-Serif" font-size="10.00">include/rel/d/a/d_a</text>
<text text-anchor="middle" x="469.92" y="-73" font-family="Helvetica,sans-Serif" font-size="10.00">_mg_fshop/d_a_mg_fshop.h</text>
</a>
</g>
</g>
<!-- Node4&#45;&gt;Node460 -->
<g id="edge12" class="edge">
<title>Node4&#45;&gt;Node460</title>
<path fill="none" stroke="#63b8ff" d="M1315.44,-144.44C1167.12,-140.75 830.25,-129.16 548.92,-96 545.87,-95.64 542.77,-95.24 539.64,-94.81"/>
<polygon fill="#63b8ff" stroke="#63b8ff" points="1315.05,-147.93 1325.13,-144.67 1315.22,-140.93 1315.05,-147.93"/>
</g>
<!-- Node374 -->
<g id="node14" class="node">
<title>Node374</title>
<g id="a_node14"><a xlink:href="d__a__myna_8h.html" target="_top" xlink:title=" ">
<polygon fill="white" stroke="#666666" points="657.92,-96 557.92,-96 557.92,-66 657.92,-66 657.92,-96"/>
<text text-anchor="start" x="565.92" y="-84" font-family="Helvetica,sans-Serif" font-size="10.00">include/rel/d/a/d_a</text>
<text text-anchor="middle" x="607.92" y="-73" font-family="Helvetica,sans-Serif" font-size="10.00">_myna/d_a_myna.h</text>
</a>
</g>
</g>
<!-- Node4&#45;&gt;Node374 -->
<g id="edge13" class="edge">
<title>Node4&#45;&gt;Node374</title>
<path fill="none" stroke="#63b8ff" d="M1315.31,-144.84C1182.55,-141.91 901.44,-131.66 666.92,-96 664.11,-95.57 661.23,-95.08 658.34,-94.54"/>
<polygon fill="#63b8ff" stroke="#63b8ff" points="1314.95,-148.33 1325.02,-145.05 1315.1,-141.33 1314.95,-148.33"/>
</g>
<!-- Node483 -->
<g id="node15" class="node">
<title>Node483</title>
<g id="a_node15"><a xlink:href="DynamicLink_8cpp.html" target="_top" xlink:title=" ">
<polygon fill="white" stroke="#666666" points="783.42,-90.5 676.42,-90.5 676.42,-71.5 783.42,-71.5 783.42,-90.5"/>
<text text-anchor="middle" x="729.92" y="-78.5" font-family="Helvetica,sans-Serif" font-size="10.00">src/DynamicLink.cpp</text>
</a>
</g>
</g>
<!-- Node4&#45;&gt;Node483 -->
<g id="edge14" class="edge">
<title>Node4&#45;&gt;Node483</title>
<path fill="none" stroke="#63b8ff" d="M1315.35,-143.03C1200.91,-137.82 978.7,-124.73 791.92,-96 783.41,-94.69 774.33,-92.88 765.82,-91"/>
<polygon fill="#63b8ff" stroke="#63b8ff" points="1315.1,-146.52 1325.24,-143.47 1315.41,-139.53 1315.1,-146.52"/>
</g>
<!-- Node183 -->
<g id="node16" class="node">
<title>Node183</title>
<g id="a_node16"><a xlink:href="c__dylink_8cpp.html" target="_top" xlink:title=" ">
<polygon fill="white" stroke="#666666" points="896.42,-90.5 801.42,-90.5 801.42,-71.5 896.42,-71.5 896.42,-90.5"/>
<text text-anchor="middle" x="848.92" y="-78.5" font-family="Helvetica,sans-Serif" font-size="10.00">src/c/c_dylink.cpp</text>
</a>
</g>
</g>
<!-- Node4&#45;&gt;Node183 -->
<g id="edge15" class="edge">
<title>Node4&#45;&gt;Node183</title>
<path fill="none" stroke="#63b8ff" d="M1315.32,-141.41C1219.18,-134.89 1049.47,-120.89 905.92,-96 898.19,-94.66 889.95,-92.86 882.21,-91"/>
<polygon fill="#63b8ff" stroke="#63b8ff" points="1314.95,-144.89 1325.16,-142.06 1315.42,-137.91 1314.95,-144.89"/>
</g>
<!-- Node484 -->
<g id="node17" class="node">
<title>Node484</title>
<g id="a_node17"><a xlink:href="d__meter__HIO_8cpp.html" target="_top" xlink:title=" ">
<polygon fill="white" stroke="#666666" points="1018.92,-96 914.92,-96 914.92,-66 1018.92,-66 1018.92,-96"/>
<text text-anchor="start" x="922.92" y="-84" font-family="Helvetica,sans-Serif" font-size="10.00">src/d/meter/d_meter</text>
<text text-anchor="middle" x="966.92" y="-73" font-family="Helvetica,sans-Serif" font-size="10.00">_HIO.cpp</text>
</a>
</g>
</g>
<!-- Node4&#45;&gt;Node484 -->
<g id="edge16" class="edge">
<title>Node4&#45;&gt;Node484</title>
<path fill="none" stroke="#63b8ff" d="M1315.5,-137.51C1241.63,-128.83 1126.69,-114.08 1027.92,-96 1025.03,-95.47 1022.08,-94.9 1019.1,-94.3"/>
<polygon fill="#63b8ff" stroke="#63b8ff" points="1314.7,-140.94 1325.04,-138.62 1315.51,-133.99 1314.7,-140.94"/>
</g>
<!-- Node485 -->
<g id="node18" class="node">
<title>Node485</title>
<g id="a_node18"><a xlink:href="d__pane__class_8cpp.html" target="_top" xlink:title=" ">
<polygon fill="white" stroke="#666666" points="1180.42,-90.5 1037.42,-90.5 1037.42,-71.5 1180.42,-71.5 1180.42,-90.5"/>
<text text-anchor="middle" x="1108.92" y="-78.5" font-family="Helvetica,sans-Serif" font-size="10.00">src/d/pane/d_pane_class.cpp</text>
</a>
</g>
</g>
<!-- Node4&#45;&gt;Node485 -->
<g id="edge17" class="edge">
<title>Node4&#45;&gt;Node485</title>
<path fill="none" stroke="#63b8ff" d="M1341.33,-134.56C1286.05,-122.06 1198.69,-102.3 1148.3,-90.91"/>
<polygon fill="#63b8ff" stroke="#63b8ff" points="1340.27,-137.91 1350.79,-136.7 1341.81,-131.08 1340.27,-137.91"/>
</g>
<!-- Node486 -->
<g id="node19" class="node">
<title>Node486</title>
<g id="a_node19"><a xlink:href="d__pane__class__alpha_8cpp.html" target="_top" xlink:title=" ">
<polygon fill="white" stroke="#666666" points="1323.42,-96 1198.42,-96 1198.42,-66 1323.42,-66 1323.42,-96"/>
<text text-anchor="start" x="1206.42" y="-84" font-family="Helvetica,sans-Serif" font-size="10.00">src/d/pane/d_pane_class</text>
<text text-anchor="middle" x="1260.92" y="-73" font-family="Helvetica,sans-Serif" font-size="10.00">_alpha.cpp</text>
</a>
</g>
</g>
<!-- Node4&#45;&gt;Node486 -->
<g id="edge18" class="edge">
<title>Node4&#45;&gt;Node486</title>
<path fill="none" stroke="#63b8ff" d="M1363.54,-132.13C1341.98,-121.6 1312.41,-107.16 1290.55,-96.48"/>
<polygon fill="#63b8ff" stroke="#63b8ff" points="1361.82,-135.19 1372.34,-136.44 1364.89,-128.9 1361.82,-135.19"/>
</g>
<!-- Node174 -->
<g id="node20" class="node">
<title>Node174</title>
<g id="a_node20"><a xlink:href="f__op__actor__mng_8cpp.html" target="_top" xlink:title=" ">
<polygon fill="white" stroke="#666666" points="1442.42,-96 1341.42,-96 1341.42,-66 1442.42,-66 1442.42,-96"/>
<text text-anchor="start" x="1349.42" y="-84" font-family="Helvetica,sans-Serif" font-size="10.00">src/f_op/f_op_actor</text>
<text text-anchor="middle" x="1391.92" y="-73" font-family="Helvetica,sans-Serif" font-size="10.00">_mng.cpp</text>
</a>
</g>
</g>
<!-- Node4&#45;&gt;Node174 -->
<g id="edge19" class="edge">
<title>Node4&#45;&gt;Node174</title>
<path fill="none" stroke="#63b8ff" d="M1391.92,-125.78C1391.92,-116.17 1391.92,-104.92 1391.92,-96.23"/>
<polygon fill="#63b8ff" stroke="#63b8ff" points="1388.42,-125.59 1391.92,-135.59 1395.42,-125.59 1388.42,-125.59"/>
</g>
<!-- Node487 -->
<g id="node21" class="node">
<title>Node487</title>
<g id="a_node21"><a xlink:href="m__Do__DVDError_8cpp.html" target="_top" xlink:title=" ">
<polygon fill="white" stroke="#666666" points="1611.42,-90.5 1460.42,-90.5 1460.42,-71.5 1611.42,-71.5 1611.42,-90.5"/>
<text text-anchor="middle" x="1535.92" y="-78.5" font-family="Helvetica,sans-Serif" font-size="10.00">src/m_Do/m_Do_DVDError.cpp</text>
</a>
</g>
</g>
<!-- Node4&#45;&gt;Node487 -->
<g id="edge20" class="edge">
<title>Node4&#45;&gt;Node487</title>
<path fill="none" stroke="#63b8ff" d="M1422.44,-132.44C1450.68,-119.88 1491.86,-101.58 1516.06,-90.82"/>
<polygon fill="#63b8ff" stroke="#63b8ff" points="1421.04,-129.23 1413.32,-136.49 1423.88,-135.62 1421.04,-129.23"/>
</g>
<!-- Node488 -->
<g id="node22" class="node">
<title>Node488</title>
<g id="a_node22"><a xlink:href="m__Do__MemCard_8cpp.html" target="_top" xlink:title=" ">
<polygon fill="white" stroke="#666666" points="1781.92,-90.5 1629.92,-90.5 1629.92,-71.5 1781.92,-71.5 1781.92,-90.5"/>
<text text-anchor="middle" x="1705.92" y="-78.5" font-family="Helvetica,sans-Serif" font-size="10.00">src/m_Do/m_Do_MemCard.cpp</text>
</a>
</g>
</g>
<!-- Node4&#45;&gt;Node488 -->
<g id="edge21" class="edge">
<title>Node4&#45;&gt;Node488</title>
<path fill="none" stroke="#63b8ff" d="M1446.89,-134.8C1508.05,-122.33 1605.67,-102.43 1661.97,-90.96"/>
<polygon fill="#63b8ff" stroke="#63b8ff" points="1446.49,-131.3 1437.39,-136.73 1447.89,-138.16 1446.49,-131.3"/>
</g>
<!-- Node489 -->
<g id="node23" class="node">
<title>Node489</title>
<g id="a_node23"><a xlink:href="m__Do__dvd__thread_8cpp.html" target="_top" xlink:title=" ">
<polygon fill="white" stroke="#666666" points="1957.92,-90.5 1799.92,-90.5 1799.92,-71.5 1957.92,-71.5 1957.92,-90.5"/>
<text text-anchor="middle" x="1878.92" y="-78.5" font-family="Helvetica,sans-Serif" font-size="10.00">src/m_Do/m_Do_dvd_thread.cpp</text>
</a>
</g>
</g>
<!-- Node4&#45;&gt;Node489 -->
<g id="edge22" class="edge">
<title>Node4&#45;&gt;Node489</title>
<path fill="none" stroke="#63b8ff" d="M1468.32,-137.19C1548.71,-127.74 1678.86,-111.93 1790.92,-96 1801.79,-94.45 1813.4,-92.69 1824.51,-90.94"/>
<polygon fill="#63b8ff" stroke="#63b8ff" points="1468.35,-133.66 1458.82,-138.3 1469.16,-140.61 1468.35,-133.66"/>
</g>
<!-- Node251 -->
<g id="node24" class="node">
<title>Node251</title>
<g id="a_node24"><a xlink:href="m__Do__ext_8cpp.html" target="_top" xlink:title=" ">
<polygon fill="white" stroke="#666666" points="2099.42,-90.5 1976.42,-90.5 1976.42,-71.5 2099.42,-71.5 2099.42,-90.5"/>
<text text-anchor="middle" x="2037.92" y="-78.5" font-family="Helvetica,sans-Serif" font-size="10.00">src/m_Do/m_Do_ext.cpp</text>
</a>
</g>
</g>
<!-- Node4&#45;&gt;Node251 -->
<g id="edge23" class="edge">
<title>Node4&#45;&gt;Node251</title>
<path fill="none" stroke="#63b8ff" d="M1468.64,-141.97C1579.16,-135.56 1789.41,-121.14 1966.92,-96 1976.5,-94.64 1986.74,-92.84 1996.37,-90.97"/>
<polygon fill="#63b8ff" stroke="#63b8ff" points="1468.58,-138.47 1458.79,-142.53 1468.98,-145.46 1468.58,-138.47"/>
</g>
<!-- Node490 -->
<g id="node25" class="node">
<title>Node490</title>
<g id="a_node25"><a xlink:href="m__Do__machine_8cpp.html" target="_top" xlink:title=" ">
<polygon fill="white" stroke="#666666" points="2264.42,-90.5 2117.42,-90.5 2117.42,-71.5 2264.42,-71.5 2264.42,-90.5"/>
<text text-anchor="middle" x="2190.92" y="-78.5" font-family="Helvetica,sans-Serif" font-size="10.00">src/m_Do/m_Do_machine.cpp</text>
</a>
</g>
</g>
<!-- Node4&#45;&gt;Node490 -->
<g id="edge24" class="edge">
<title>Node4&#45;&gt;Node490</title>
<path fill="none" stroke="#63b8ff" d="M1468.77,-143.09C1600.12,-137.57 1876.1,-123.58 2107.92,-96 2119.24,-94.65 2131.36,-92.83 2142.75,-90.94"/>
<polygon fill="#63b8ff" stroke="#63b8ff" points="1468.63,-139.59 1458.79,-143.51 1468.92,-146.59 1468.63,-139.59"/>
</g>
<!-- Node254 -->
<g id="node26" class="node">
<title>Node254</title>
<g id="a_node26"><a xlink:href="m__Do__machine__exception_8cpp.html" target="_top" xlink:title=" ">
<polygon fill="white" stroke="#666666" points="2411.42,-96 2282.42,-96 2282.42,-66 2411.42,-66 2411.42,-96"/>
<text text-anchor="start" x="2290.42" y="-84" font-family="Helvetica,sans-Serif" font-size="10.00">src/m_Do/m_Do_machine</text>
<text text-anchor="middle" x="2346.92" y="-73" font-family="Helvetica,sans-Serif" font-size="10.00">_exception.cpp</text>
</a>
</g>
</g>
<!-- Node4&#45;&gt;Node254 -->
<g id="edge25" class="edge">
<title>Node4&#45;&gt;Node254</title>
<path fill="none" stroke="#63b8ff" d="M1468.51,-145C1621.79,-142.28 1976.96,-132.24 2272.92,-96 2275.9,-95.63 2278.95,-95.22 2282.02,-94.77"/>
<polygon fill="#63b8ff" stroke="#63b8ff" points="1468.84,-141.5 1458.9,-145.17 1468.96,-148.5 1468.84,-141.5"/>
</g>
<!-- Node308&#45;&gt;Node55 -->
<g id="edge9" class="edge">
<title>Node308&#45;&gt;Node55</title>
<path fill="none" stroke="#63b8ff" d="M2678.28,-65.89C2406.4,-30.93 1630.89,-19.46 1397.27,-16.71"/>
<polygon fill="#63b8ff" stroke="#63b8ff" points="2677.81,-69.35 2688.18,-67.21 2678.73,-62.42 2677.81,-69.35"/>
</g>
<!-- Node308&#45;&gt;Node221 -->
<g id="edge10" class="edge">
<title>Node308&#45;&gt;Node221</title>
<path fill="none" stroke="#63b8ff" d="M2753.1,-56.11C2758.29,-47.38 2763.99,-37.78 2768.51,-30.16"/>
<polygon fill="#63b8ff" stroke="#63b8ff" points="2750.22,-54.11 2748.12,-64.49 2756.24,-57.68 2750.22,-54.11"/>
</g>
</g>
</svg>
