<?xml version="1.0" encoding="UTF-8" standalone="no"?>
<!DOCTYPE svg PUBLIC "-//W3C//DTD SVG 1.1//EN"
 "http://www.w3.org/Graphics/SVG/1.1/DTD/svg11.dtd">
<!-- Generated by graphviz version 7.0.5 (20221223.1930)
 -->
<!-- Title: include/Z2AudioLib/Z2Creature.h Pages: 1 -->
<svg width="4209pt" height="247pt"
 viewBox="0.00 0.00 4208.50 247.00" xmlns="http://www.w3.org/2000/svg" xmlns:xlink="http://www.w3.org/1999/xlink">
<g id="graph0" class="graph" transform="scale(1 1) rotate(0) translate(4 243)">
<title>include/Z2AudioLib/Z2Creature.h</title>
<!-- Node1 -->
<g id="node1" class="node">
<title>Node1</title>
<g id="a_node1"><a xlink:title=" ">
<polygon fill="#999999" stroke="#666666" points="2667,-239 2567,-239 2567,-209 2667,-209 2667,-239"/>
<text text-anchor="start" x="2575" y="-227" font-family="Helvetica,sans-Serif" font-size="10.00">include/Z2AudioLib</text>
<text text-anchor="middle" x="2617" y="-216" font-family="Helvetica,sans-Serif" font-size="10.00">/Z2Creature.h</text>
</a>
</g>
</g>
<!-- Node2 -->
<g id="node2" class="node">
<title>Node2</title>
<g id="a_node2"><a xlink:href="d__a__alink_8h.html" target="_top" xlink:title=" ">
<polygon fill="white" stroke="#666666" points="606,-96 490,-96 490,-77 606,-77 606,-96"/>
<text text-anchor="middle" x="548" y="-84" font-family="Helvetica,sans-Serif" font-size="10.00">include/d/a/d_a_alink.h</text>
</a>
</g>
</g>
<!-- Node1&#45;&gt;Node2 -->
<g id="edge1" class="edge">
<title>Node1&#45;&gt;Node2</title>
<path fill="none" stroke="#63b8ff" d="M2555.16,-222.28C2360.94,-219.71 1745.88,-209.07 1238,-173 960.26,-153.28 888.19,-160.78 615,-107 601.57,-104.36 586.94,-100.25 574.79,-96.48"/>
<polygon fill="#63b8ff" stroke="#63b8ff" points="2554.97,-225.78 2565.02,-222.41 2555.06,-218.78 2554.97,-225.78"/>
</g>
<!-- Node15 -->
<g id="node15" class="node">
<title>Node15</title>
<g id="a_node15"><a xlink:href="d__a__npc_8h.html" target="_top" xlink:title=" ">
<polygon fill="white" stroke="#666666" points="1358.5,-167.5 1247.5,-167.5 1247.5,-148.5 1358.5,-148.5 1358.5,-167.5"/>
<text text-anchor="middle" x="1303" y="-155.5" font-family="Helvetica,sans-Serif" font-size="10.00">include/d/a/d_a_npc.h</text>
</a>
</g>
</g>
<!-- Node1&#45;&gt;Node15 -->
<g id="edge14" class="edge">
<title>Node1&#45;&gt;Node15</title>
<path fill="none" stroke="#63b8ff" d="M2555.26,-219.99C2332.39,-209.14 1571.43,-172.07 1358.67,-161.71"/>
<polygon fill="#63b8ff" stroke="#63b8ff" points="2555.02,-223.49 2565.18,-220.48 2555.37,-216.49 2555.02,-223.49"/>
</g>
<!-- Node25 -->
<g id="node24" class="node">
<title>Node25</title>
<g id="a_node24"><a xlink:href="d__a__npc__cd_8h.html" target="_top" xlink:title=" ">
<polygon fill="white" stroke="#666666" points="1786.5,-167.5 1659.5,-167.5 1659.5,-148.5 1786.5,-148.5 1786.5,-167.5"/>
<text text-anchor="middle" x="1723" y="-155.5" font-family="Helvetica,sans-Serif" font-size="10.00">include/d/a/d_a_npc_cd.h</text>
</a>
</g>
</g>
<!-- Node1&#45;&gt;Node25 -->
<g id="edge26" class="edge">
<title>Node1&#45;&gt;Node25</title>
<path fill="none" stroke="#63b8ff" d="M2555.35,-221.95C2418.32,-219.03 2078.22,-208.51 1796,-173 1785.89,-171.73 1775.06,-169.91 1764.93,-168"/>
<polygon fill="#63b8ff" stroke="#63b8ff" points="2555.23,-225.45 2565.3,-222.16 2555.37,-218.45 2555.23,-225.45"/>
</g>
<!-- Node27 -->
<g id="node26" class="node">
<title>Node27</title>
<g id="a_node26"><a xlink:href="d__a__npc__cd2_8h.html" target="_top" xlink:title=" ">
<polygon fill="white" stroke="#666666" points="1909,-173 1805,-173 1805,-143 1909,-143 1909,-173"/>
<text text-anchor="start" x="1813" y="-161" font-family="Helvetica,sans-Serif" font-size="10.00">include/d/a/d_a_npc</text>
<text text-anchor="middle" x="1857" y="-150" font-family="Helvetica,sans-Serif" font-size="10.00">_cd2.h</text>
</a>
</g>
</g>
<!-- Node1&#45;&gt;Node27 -->
<g id="edge28" class="edge">
<title>Node1&#45;&gt;Node27</title>
<path fill="none" stroke="#63b8ff" d="M2555.48,-221.7C2433.46,-218.44 2152.44,-207.52 1919,-173 1915.83,-172.53 1912.59,-171.99 1909.33,-171.4"/>
<polygon fill="#63b8ff" stroke="#63b8ff" points="2555.18,-225.19 2565.27,-221.95 2555.36,-218.2 2555.18,-225.19"/>
</g>
<!-- Node29 -->
<g id="node28" class="node">
<title>Node29</title>
<g id="a_node28"><a xlink:href="d__a__b__ob_8h.html" target="_top" xlink:title=" ">
<polygon fill="white" stroke="#666666" points="2291,-173 2185,-173 2185,-143 2291,-143 2291,-173"/>
<text text-anchor="start" x="2193" y="-161" font-family="Helvetica,sans-Serif" font-size="10.00">include/rel/d/a/b/d</text>
<text text-anchor="middle" x="2238" y="-150" font-family="Helvetica,sans-Serif" font-size="10.00">_a_b_ob/d_a_b_ob.h</text>
</a>
</g>
</g>
<!-- Node1&#45;&gt;Node29 -->
<g id="edge30" class="edge">
<title>Node1&#45;&gt;Node29</title>
<path fill="none" stroke="#63b8ff" d="M2555.7,-214.45C2491.89,-205.27 2389.15,-189.75 2301,-173 2297.81,-172.39 2294.53,-171.74 2291.23,-171.07"/>
<polygon fill="#63b8ff" stroke="#63b8ff" points="2554.86,-217.86 2565.26,-215.81 2555.85,-210.93 2554.86,-217.86"/>
</g>
<!-- Node31 -->
<g id="node30" class="node">
<title>Node31</title>
<g id="a_node30"><a xlink:href="d__a__cstaF_8h.html" target="_top" xlink:title=" ">
<polygon fill="white" stroke="#666666" points="2030.5,-173 1927.5,-173 1927.5,-143 2030.5,-143 2030.5,-173"/>
<text text-anchor="start" x="1935.5" y="-161" font-family="Helvetica,sans-Serif" font-size="10.00">include/rel/d/a/d_a</text>
<text text-anchor="middle" x="1979" y="-150" font-family="Helvetica,sans-Serif" font-size="10.00">_cstaF/d_a_cstaF.h</text>
</a>
</g>
</g>
<!-- Node1&#45;&gt;Node31 -->
<g id="edge32" class="edge">
<title>Node1&#45;&gt;Node31</title>
<path fill="none" stroke="#63b8ff" d="M2555.13,-220.47C2449.13,-215.5 2226.21,-202.29 2040,-173 2036.99,-172.53 2033.92,-171.99 2030.82,-171.41"/>
<polygon fill="#63b8ff" stroke="#63b8ff" points="2554.89,-223.96 2565.04,-220.92 2555.21,-216.97 2554.89,-223.96"/>
</g>
<!-- Node32 -->
<g id="node31" class="node">
<title>Node32</title>
<g id="a_node31"><a xlink:href="d__a__cstatue_8h.html" target="_top" xlink:title=" ">
<polygon fill="white" stroke="#666666" points="2167,-173 2049,-173 2049,-143 2167,-143 2167,-173"/>
<text text-anchor="start" x="2057" y="-161" font-family="Helvetica,sans-Serif" font-size="10.00">include/rel/d/a/d_a</text>
<text text-anchor="middle" x="2108" y="-150" font-family="Helvetica,sans-Serif" font-size="10.00">_cstatue/d_a_cstatue.h</text>
</a>
</g>
</g>
<!-- Node1&#45;&gt;Node32 -->
<g id="edge33" class="edge">
<title>Node1&#45;&gt;Node32</title>
<path fill="none" stroke="#63b8ff" d="M2555.22,-217.77C2469.71,-210.12 2310.59,-194.44 2176,-173 2173.14,-172.54 2170.22,-172.05 2167.28,-171.53"/>
<polygon fill="#63b8ff" stroke="#63b8ff" points="2554.76,-221.24 2565.03,-218.64 2555.38,-214.27 2554.76,-221.24"/>
</g>
<!-- Node33 -->
<g id="node32" class="node">
<title>Node33</title>
<g id="a_node32"><a xlink:href="d__a__horse_8h.html" target="_top" xlink:title=" ">
<polygon fill="#fff0f0" stroke="red" points="2549.5,-173 2448.5,-173 2448.5,-143 2549.5,-143 2549.5,-173"/>
<text text-anchor="start" x="2456.5" y="-161" font-family="Helvetica,sans-Serif" font-size="10.00">include/rel/d/a/d_a</text>
<text text-anchor="middle" x="2499" y="-150" font-family="Helvetica,sans-Serif" font-size="10.00">_horse/d_a_horse.h</text>
</a>
</g>
</g>
<!-- Node1&#45;&gt;Node33 -->
<g id="edge34" class="edge">
<title>Node1&#45;&gt;Node33</title>
<path fill="none" stroke="#63b8ff" d="M2580.46,-203.18C2562.65,-193.52 2541.62,-182.12 2525.39,-173.31"/>
<polygon fill="#63b8ff" stroke="#63b8ff" points="2578.73,-206.22 2589.19,-207.92 2582.07,-200.07 2578.73,-206.22"/>
</g>
<!-- Node41 -->
<g id="node37" class="node">
<title>Node41</title>
<g id="a_node37"><a xlink:href="d__a__mg__fish_8h.html" target="_top" xlink:title=" ">
<polygon fill="white" stroke="#666666" points="2430.5,-173 2309.5,-173 2309.5,-143 2430.5,-143 2430.5,-173"/>
<text text-anchor="start" x="2317.5" y="-161" font-family="Helvetica,sans-Serif" font-size="10.00">include/rel/d/a/d_a</text>
<text text-anchor="middle" x="2370" y="-150" font-family="Helvetica,sans-Serif" font-size="10.00">_mg_fish/d_a_mg_fish.h</text>
</a>
</g>
</g>
<!-- Node1&#45;&gt;Node41 -->
<g id="edge41" class="edge">
<title>Node1&#45;&gt;Node41</title>
<path fill="none" stroke="#63b8ff" d="M2555.82,-207.15C2516.01,-196.83 2464.5,-183.49 2425.81,-173.46"/>
<polygon fill="#63b8ff" stroke="#63b8ff" points="2554.69,-210.47 2565.25,-209.59 2556.45,-203.7 2554.69,-210.47"/>
</g>
<!-- Node42 -->
<g id="node38" class="node">
<title>Node42</title>
<g id="a_node38"><a xlink:href="d__a__mg__rod_8h.html" target="_top" xlink:title=" ">
<polygon fill="white" stroke="#666666" points="2942,-101.5 2824,-101.5 2824,-71.5 2942,-71.5 2942,-101.5"/>
<text text-anchor="start" x="2832" y="-89.5" font-family="Helvetica,sans-Serif" font-size="10.00">include/rel/d/a/d_a</text>
<text text-anchor="middle" x="2883" y="-78.5" font-family="Helvetica,sans-Serif" font-size="10.00">_mg_rod/d_a_mg_rod.h</text>
</a>
</g>
</g>
<!-- Node1&#45;&gt;Node42 -->
<g id="edge42" class="edge">
<title>Node1&#45;&gt;Node42</title>
<path fill="none" stroke="#63b8ff" d="M2601,-199.1C2591.54,-181.73 2583.76,-158.61 2597,-143 2628.77,-105.56 2767.1,-117.79 2815,-107 2821.59,-105.52 2828.49,-103.77 2835.25,-101.94"/>
<polygon fill="#63b8ff" stroke="#63b8ff" points="2597.73,-200.45 2605.84,-207.27 2603.75,-196.88 2597.73,-200.45"/>
</g>
<!-- Node43 -->
<g id="node39" class="node">
<title>Node43</title>
<g id="a_node39"><a xlink:href="d__a__midna_8h.html" target="_top" xlink:title=" ">
<polygon fill="white" stroke="#666666" points="1678,-101.5 1572,-101.5 1572,-71.5 1678,-71.5 1678,-101.5"/>
<text text-anchor="start" x="1580" y="-89.5" font-family="Helvetica,sans-Serif" font-size="10.00">include/rel/d/a/d_a</text>
<text text-anchor="middle" x="1625" y="-78.5" font-family="Helvetica,sans-Serif" font-size="10.00">_midna/d_a_midna.h</text>
</a>
</g>
</g>
<!-- Node1&#45;&gt;Node43 -->
<g id="edge44" class="edge">
<title>Node1&#45;&gt;Node43</title>
<path fill="none" stroke="#63b8ff" d="M2555.22,-221.76C2347.54,-217.34 1685.55,-201.11 1650,-173 1628.41,-155.93 1624.75,-121.26 1624.53,-101.72"/>
<polygon fill="#63b8ff" stroke="#63b8ff" points="2554.92,-225.26 2564.99,-221.97 2555.06,-218.26 2554.92,-225.26"/>
</g>
<!-- Node44 -->
<g id="node40" class="node">
<title>Node44</title>
<g id="a_node40"><a xlink:href="d__a__myna_8h.html" target="_top" xlink:title=" ">
<polygon fill="white" stroke="#666666" points="2706,-173 2606,-173 2606,-143 2706,-143 2706,-173"/>
<text text-anchor="start" x="2614" y="-161" font-family="Helvetica,sans-Serif" font-size="10.00">include/rel/d/a/d_a</text>
<text text-anchor="middle" x="2656" y="-150" font-family="Helvetica,sans-Serif" font-size="10.00">_myna/d_a_myna.h</text>
</a>
</g>
</g>
<!-- Node1&#45;&gt;Node44 -->
<g id="edge49" class="edge">
<title>Node1&#45;&gt;Node44</title>
<path fill="none" stroke="#63b8ff" d="M2631.56,-199.11C2636.88,-190.38 2642.73,-180.78 2647.37,-173.16"/>
<polygon fill="#63b8ff" stroke="#63b8ff" points="2628.66,-197.14 2626.44,-207.5 2634.64,-200.79 2628.66,-197.14"/>
</g>
<!-- Node45 -->
<g id="node41" class="node">
<title>Node45</title>
<g id="a_node41"><a xlink:href="d__a__e__yk_8h.html" target="_top" xlink:title=" ">
<polygon fill="white" stroke="#666666" points="2828,-173 2724,-173 2724,-143 2828,-143 2828,-173"/>
<text text-anchor="start" x="2732" y="-161" font-family="Helvetica,sans-Serif" font-size="10.00">include/rel/d/a/e/d</text>
<text text-anchor="middle" x="2776" y="-150" font-family="Helvetica,sans-Serif" font-size="10.00">_a_e_yk/d_a_e_yk.h</text>
</a>
</g>
</g>
<!-- Node1&#45;&gt;Node45 -->
<g id="edge50" class="edge">
<title>Node1&#45;&gt;Node45</title>
<path fill="none" stroke="#63b8ff" d="M2663.19,-204.41C2687.71,-194.54 2717.4,-182.59 2740.16,-173.43"/>
<polygon fill="#63b8ff" stroke="#63b8ff" points="2662.06,-201.09 2654.09,-208.07 2664.67,-207.58 2662.06,-201.09"/>
</g>
<!-- Node46 -->
<g id="node42" class="node">
<title>Node46</title>
<g id="a_node42"><a xlink:href="d__a__e__ym_8h.html" target="_top" xlink:title=" ">
<polygon fill="#fff0f0" stroke="red" points="2956,-173 2846,-173 2846,-143 2956,-143 2956,-173"/>
<text text-anchor="start" x="2854" y="-161" font-family="Helvetica,sans-Serif" font-size="10.00">include/rel/d/a/e/d</text>
<text text-anchor="middle" x="2901" y="-150" font-family="Helvetica,sans-Serif" font-size="10.00">_a_e_ym/d_a_e_ym.h</text>
</a>
</g>
</g>
<!-- Node1&#45;&gt;Node46 -->
<g id="edge51" class="edge">
<title>Node1&#45;&gt;Node46</title>
<path fill="none" stroke="#63b8ff" d="M2678.38,-209.17C2728.13,-197.96 2797.63,-182.29 2845.69,-171.47"/>
<polygon fill="#63b8ff" stroke="#63b8ff" points="2677.91,-205.69 2668.92,-211.3 2679.45,-212.51 2677.91,-205.69"/>
</g>
<!-- Node48 -->
<g id="node43" class="node">
<title>Node48</title>
<g id="a_node43"><a xlink:href="Z2Creature_8cpp.html" target="_top" xlink:title=" ">
<polygon fill="white" stroke="#666666" points="3127.5,-167.5 2974.5,-167.5 2974.5,-148.5 3127.5,-148.5 3127.5,-167.5"/>
<text text-anchor="middle" x="3051" y="-155.5" font-family="Helvetica,sans-Serif" font-size="10.00">libs/Z2AudioLib/Z2Creature.cpp</text>
</a>
</g>
</g>
<!-- Node1&#45;&gt;Node48 -->
<g id="edge52" class="edge">
<title>Node1&#45;&gt;Node48</title>
<path fill="none" stroke="#63b8ff" d="M2678.65,-214.5C2748.24,-204.81 2864.84,-188.35 2965,-173 2975.32,-171.42 2986.32,-169.67 2996.89,-167.97"/>
<polygon fill="#63b8ff" stroke="#63b8ff" points="2678.39,-211 2668.97,-215.84 2679.36,-217.93 2678.39,-211"/>
</g>
<!-- Node49 -->
<g id="node44" class="node">
<title>Node49</title>
<g id="a_node44"><a xlink:href="Z2LinkMgr_8cpp.html" target="_top" xlink:title=" ">
<polygon fill="white" stroke="#666666" points="3298,-167.5 3146,-167.5 3146,-148.5 3298,-148.5 3298,-167.5"/>
<text text-anchor="middle" x="3222" y="-155.5" font-family="Helvetica,sans-Serif" font-size="10.00">libs/Z2AudioLib/Z2LinkMgr.cpp</text>
</a>
</g>
</g>
<!-- Node1&#45;&gt;Node49 -->
<g id="edge53" class="edge">
<title>Node1&#45;&gt;Node49</title>
<path fill="none" stroke="#63b8ff" d="M2678.73,-218.42C2776.27,-210.87 2971.94,-194.5 3137,-173 3147.97,-171.57 3159.71,-169.8 3170.84,-168"/>
<polygon fill="#63b8ff" stroke="#63b8ff" points="2678.54,-214.92 2668.83,-219.18 2679.07,-221.9 2678.54,-214.92"/>
</g>
<!-- Node50 -->
<g id="node45" class="node">
<title>Node50</title>
<g id="a_node45"><a xlink:href="Z2SeqMgr_8cpp.html" target="_top" xlink:title=" ">
<polygon fill="white" stroke="#666666" points="3466,-167.5 3316,-167.5 3316,-148.5 3466,-148.5 3466,-167.5"/>
<text text-anchor="middle" x="3391" y="-155.5" font-family="Helvetica,sans-Serif" font-size="10.00">libs/Z2AudioLib/Z2SeqMgr.cpp</text>
</a>
</g>
</g>
<!-- Node1&#45;&gt;Node50 -->
<g id="edge54" class="edge">
<title>Node1&#45;&gt;Node50</title>
<path fill="none" stroke="#63b8ff" d="M2678.57,-220.46C2799.39,-215.05 3075.93,-200.57 3307,-173 3318.3,-171.65 3330.41,-169.85 3341.81,-167.98"/>
<polygon fill="#63b8ff" stroke="#63b8ff" points="2678.71,-216.95 2668.88,-220.89 2679.02,-223.94 2678.71,-216.95"/>
</g>
<!-- Node51 -->
<g id="node46" class="node">
<title>Node51</title>
<g id="a_node46"><a xlink:href="Z2SoundObjMgr_8cpp.html" target="_top" xlink:title=" ">
<polygon fill="white" stroke="#666666" points="3625.5,-173 3484.5,-173 3484.5,-143 3625.5,-143 3625.5,-173"/>
<text text-anchor="start" x="3492.5" y="-161" font-family="Helvetica,sans-Serif" font-size="10.00">libs/Z2AudioLib/Z2SoundObj</text>
<text text-anchor="middle" x="3555" y="-150" font-family="Helvetica,sans-Serif" font-size="10.00">Mgr.cpp</text>
</a>
</g>
</g>
<!-- Node1&#45;&gt;Node51 -->
<g id="edge55" class="edge">
<title>Node1&#45;&gt;Node51</title>
<path fill="none" stroke="#63b8ff" d="M2678.87,-221.83C2820.32,-218.63 3178.03,-207.52 3475,-173 3478.08,-172.64 3481.22,-172.24 3484.39,-171.81"/>
<polygon fill="#63b8ff" stroke="#63b8ff" points="2678.9,-218.33 2668.98,-222.05 2679.05,-225.33 2678.9,-218.33"/>
</g>
<!-- Node52 -->
<g id="node47" class="node">
<title>Node52</title>
<g id="a_node47"><a xlink:href="Z2StatusMgr_8cpp.html" target="_top" xlink:title=" ">
<polygon fill="white" stroke="#666666" points="3770.5,-173 3643.5,-173 3643.5,-143 3770.5,-143 3770.5,-173"/>
<text text-anchor="start" x="3651.5" y="-161" font-family="Helvetica,sans-Serif" font-size="10.00">libs/Z2AudioLib/Z2Status</text>
<text text-anchor="middle" x="3707" y="-150" font-family="Helvetica,sans-Serif" font-size="10.00">Mgr.cpp</text>
</a>
</g>
</g>
<!-- Node1&#45;&gt;Node52 -->
<g id="edge56" class="edge">
<title>Node1&#45;&gt;Node52</title>
<path fill="none" stroke="#63b8ff" d="M2678.68,-223.03C2837.71,-222.46 3274.47,-216.68 3635,-173 3637.65,-172.68 3640.36,-172.32 3643.09,-171.92"/>
<polygon fill="#63b8ff" stroke="#63b8ff" points="2678.77,-219.53 2668.78,-223.06 2678.79,-226.53 2678.77,-219.53"/>
</g>
<!-- Node53 -->
<g id="node48" class="node">
<title>Node53</title>
<g id="a_node48"><a xlink:href="Z2WolfHowlMgr_8cpp.html" target="_top" xlink:title=" ">
<polygon fill="white" stroke="#666666" points="3929,-173 3789,-173 3789,-143 3929,-143 3929,-173"/>
<text text-anchor="start" x="3797" y="-161" font-family="Helvetica,sans-Serif" font-size="10.00">libs/Z2AudioLib/Z2WolfHowl</text>
<text text-anchor="middle" x="3859" y="-150" font-family="Helvetica,sans-Serif" font-size="10.00">Mgr.cpp</text>
</a>
</g>
</g>
<!-- Node1&#45;&gt;Node53 -->
<g id="edge57" class="edge">
<title>Node1&#45;&gt;Node53</title>
<path fill="none" stroke="#63b8ff" d="M2678.79,-223.22C2852.7,-223.21 3360.97,-218.93 3780,-173 3782.91,-172.68 3785.87,-172.32 3788.86,-171.93"/>
<polygon fill="#63b8ff" stroke="#63b8ff" points="2678.85,-219.72 2668.85,-223.21 2678.85,-226.72 2678.85,-219.72"/>
</g>
<!-- Node54 -->
<g id="node49" class="node">
<title>Node54</title>
<g id="a_node49"><a xlink:href="d__cc__uty_8cpp.html" target="_top" xlink:title=" ">
<polygon fill="white" stroke="#666666" points="4059,-167.5 3947,-167.5 3947,-148.5 4059,-148.5 4059,-167.5"/>
<text text-anchor="middle" x="4003" y="-155.5" font-family="Helvetica,sans-Serif" font-size="10.00">src/d/cc/d_cc_uty.cpp</text>
</a>
</g>
</g>
<!-- Node1&#45;&gt;Node54 -->
<g id="edge58" class="edge">
<title>Node1&#45;&gt;Node54</title>
<path fill="none" stroke="#63b8ff" d="M2678.63,-222.09C2904.9,-218.54 3689.56,-204.22 3938,-173 3947.39,-171.82 3957.44,-169.96 3966.75,-167.98"/>
<polygon fill="#63b8ff" stroke="#63b8ff" points="2678.8,-218.59 2668.85,-222.25 2678.91,-225.59 2678.8,-218.59"/>
</g>
<!-- Node55 -->
<g id="node50" class="node">
<title>Node55</title>
<g id="a_node50"><a xlink:href="m__Do__ext_8cpp.html" target="_top" xlink:title=" ">
<polygon fill="white" stroke="#666666" points="4200.5,-167.5 4077.5,-167.5 4077.5,-148.5 4200.5,-148.5 4200.5,-167.5"/>
<text text-anchor="middle" x="4139" y="-155.5" font-family="Helvetica,sans-Serif" font-size="10.00">src/m_Do/m_Do_ext.cpp</text>
</a>
</g>
</g>
<!-- Node1&#45;&gt;Node55 -->
<g id="edge59" class="edge">
<title>Node1&#45;&gt;Node55</title>
<path fill="none" stroke="#63b8ff" d="M2678.6,-222.19C2918.76,-218.84 3792.53,-204.7 4068,-173 4078.23,-171.82 4089.2,-169.96 4099.37,-167.98"/>
<polygon fill="#63b8ff" stroke="#63b8ff" points="2678.78,-218.69 2668.83,-222.33 2678.88,-225.69 2678.78,-218.69"/>
</g>
<!-- Node3 -->
<g id="node3" class="node">
<title>Node3</title>
<g id="a_node3"><a xlink:href="d__a__alink_8cpp.html" target="_top" xlink:title=" ">
<polygon fill="white" stroke="#666666" points="1888.5,-24.5 1779.5,-24.5 1779.5,-5.5 1888.5,-5.5 1888.5,-24.5"/>
<text text-anchor="middle" x="1834" y="-12.5" font-family="Helvetica,sans-Serif" font-size="10.00">src/d/a/d_a_alink.cpp</text>
</a>
</g>
</g>
<!-- Node2&#45;&gt;Node3 -->
<g id="edge2" class="edge">
<title>Node2&#45;&gt;Node3</title>
<path fill="none" stroke="#63b8ff" d="M583.88,-73.27C593.84,-70.36 604.74,-67.64 615,-66 851.91,-28.18 1454.62,-45.94 1694,-30 1722.15,-28.12 1753.4,-25.09 1779.22,-22.33"/>
<polygon fill="#63b8ff" stroke="#63b8ff" points="583.09,-69.85 574.56,-76.13 585.15,-76.54 583.09,-69.85"/>
</g>
<!-- Node4 -->
<g id="node4" class="node">
<title>Node4</title>
<g id="a_node4"><a xlink:href="d__a__player_8cpp.html" target="_top" xlink:title=" ">
<polygon fill="white" stroke="#666666" points="1313,-24.5 1199,-24.5 1199,-5.5 1313,-5.5 1313,-24.5"/>
<text text-anchor="middle" x="1256" y="-12.5" font-family="Helvetica,sans-Serif" font-size="10.00">src/d/a/d_a_player.cpp</text>
</a>
</g>
</g>
<!-- Node2&#45;&gt;Node4 -->
<g id="edge3" class="edge">
<title>Node2&#45;&gt;Node4</title>
<path fill="none" stroke="#63b8ff" d="M585,-73.23C594.67,-70.44 605.15,-67.78 615,-66 830.34,-27.21 887.95,-48.17 1106,-30 1136.63,-27.45 1170.74,-24.29 1198.68,-21.62"/>
<polygon fill="#63b8ff" stroke="#63b8ff" points="584.12,-69.84 575.56,-76.08 586.14,-76.54 584.12,-69.84"/>
</g>
<!-- Node5 -->
<g id="node5" class="node">
<title>Node5</title>
<g id="a_node5"><a xlink:href="d__com__inf__game_8cpp.html" target="_top" xlink:title=" ">
<polygon fill="white" stroke="#666666" points="668,-30 560,-30 560,0 668,0 668,-30"/>
<text text-anchor="start" x="568" y="-18" font-family="Helvetica,sans-Serif" font-size="10.00">src/d/com/d_com_inf</text>
<text text-anchor="middle" x="614" y="-7" font-family="Helvetica,sans-Serif" font-size="10.00">_game.cpp</text>
</a>
</g>
</g>
<!-- Node2&#45;&gt;Node5 -->
<g id="edge4" class="edge">
<title>Node2&#45;&gt;Node5</title>
<path fill="none" stroke="#63b8ff" d="M564.07,-68.58C575.21,-56.85 589.89,-41.39 600.44,-30.27"/>
<polygon fill="#63b8ff" stroke="#63b8ff" points="561.75,-65.94 557.4,-75.6 566.83,-70.76 561.75,-65.94"/>
</g>
<!-- Node6 -->
<g id="node6" class="node">
<title>Node6</title>
<g id="a_node6"><a xlink:href="d__camera_8cpp.html" target="_top" xlink:title=" ">
<polygon fill="white" stroke="#666666" points="788,-24.5 686,-24.5 686,-5.5 788,-5.5 788,-24.5"/>
<text text-anchor="middle" x="737" y="-12.5" font-family="Helvetica,sans-Serif" font-size="10.00">src/d/d_camera.cpp</text>
</a>
</g>
</g>
<!-- Node2&#45;&gt;Node6 -->
<g id="edge5" class="edge">
<title>Node2&#45;&gt;Node6</title>
<path fill="none" stroke="#63b8ff" d="M582.82,-72.69C620.56,-58.82 679.79,-37.04 712.77,-24.91"/>
<polygon fill="#63b8ff" stroke="#63b8ff" points="581.92,-69.3 573.74,-76.03 584.34,-75.87 581.92,-69.3"/>
</g>
<!-- Node7 -->
<g id="node7" class="node">
<title>Node7</title>
<g id="a_node7"><a xlink:href="d__ev__camera_8cpp.html" target="_top" xlink:title=" ">
<polygon fill="white" stroke="#666666" points="924,-24.5 806,-24.5 806,-5.5 924,-5.5 924,-24.5"/>
<text text-anchor="middle" x="865" y="-12.5" font-family="Helvetica,sans-Serif" font-size="10.00">src/d/d_ev_camera.cpp</text>
</a>
</g>
</g>
<!-- Node2&#45;&gt;Node7 -->
<g id="edge6" class="edge">
<title>Node2&#45;&gt;Node7</title>
<path fill="none" stroke="#63b8ff" d="M587.55,-73.37C596.53,-70.78 606.06,-68.18 615,-66 695.11,-46.46 716.17,-46.31 797,-30 805.03,-28.38 813.6,-26.63 821.84,-24.94"/>
<polygon fill="#63b8ff" stroke="#63b8ff" points="586.61,-69.99 577.99,-76.17 588.58,-76.71 586.61,-69.99"/>
</g>
<!-- Node8 -->
<g id="node8" class="node">
<title>Node8</title>
<g id="a_node8"><a xlink:href="d__event_8cpp.html" target="_top" xlink:title=" ">
<polygon fill="white" stroke="#666666" points="1685.5,-24.5 1564.5,-24.5 1564.5,-5.5 1685.5,-5.5 1685.5,-24.5"/>
<text text-anchor="middle" x="1625" y="-12.5" font-family="Helvetica,sans-Serif" font-size="10.00">src/d/event/d_event.cpp</text>
</a>
</g>
</g>
<!-- Node2&#45;&gt;Node8 -->
<g id="edge7" class="edge">
<title>Node2&#45;&gt;Node8</title>
<path fill="none" stroke="#63b8ff" d="M584.14,-73.23C594.03,-70.35 604.83,-67.65 615,-66 1027.69,0.92 1139.82,-79.15 1555,-30 1565.09,-28.81 1575.9,-26.94 1585.93,-24.96"/>
<polygon fill="#63b8ff" stroke="#63b8ff" points="583.42,-69.79 574.88,-76.06 585.47,-76.48 583.42,-69.79"/>
</g>
<!-- Node9 -->
<g id="node9" class="node">
<title>Node9</title>
<g id="a_node9"><a xlink:href="d__menu__collect_8cpp.html" target="_top" xlink:title=" ">
<polygon fill="white" stroke="#666666" points="1097.5,-24.5 942.5,-24.5 942.5,-5.5 1097.5,-5.5 1097.5,-24.5"/>
<text text-anchor="middle" x="1020" y="-12.5" font-family="Helvetica,sans-Serif" font-size="10.00">src/d/menu/d_menu_collect.cpp</text>
</a>
</g>
</g>
<!-- Node2&#45;&gt;Node9 -->
<g id="edge8" class="edge">
<title>Node2&#45;&gt;Node9</title>
<path fill="none" stroke="#63b8ff" d="M585.56,-73.35C595.08,-70.61 605.35,-67.94 615,-66 754.46,-38.02 792.08,-49.3 933,-30 943.91,-28.51 955.57,-26.74 966.69,-24.98"/>
<polygon fill="#63b8ff" stroke="#63b8ff" points="584.83,-69.91 576.25,-76.13 586.83,-76.62 584.83,-69.91"/>
</g>
<!-- Node10 -->
<g id="node10" class="node">
<title>Node10</title>
<g id="a_node10"><a xlink:href="d__menu__ring_8cpp.html" target="_top" xlink:title=" ">
<polygon fill="white" stroke="#666666" points="142,-24.5 0,-24.5 0,-5.5 142,-5.5 142,-24.5"/>
<text text-anchor="middle" x="71" y="-12.5" font-family="Helvetica,sans-Serif" font-size="10.00">src/d/menu/d_menu_ring.cpp</text>
</a>
</g>
</g>
<!-- Node2&#45;&gt;Node10 -->
<g id="edge9" class="edge">
<title>Node2&#45;&gt;Node10</title>
<path fill="none" stroke="#63b8ff" d="M478.41,-76.51C399.06,-66.08 265.51,-48.02 151,-30 141.11,-28.44 130.55,-26.67 120.46,-24.93"/>
<polygon fill="#63b8ff" stroke="#63b8ff" points="477.85,-79.96 488.22,-77.79 478.76,-73.02 477.85,-79.96"/>
</g>
<!-- Node11 -->
<g id="node11" class="node">
<title>Node11</title>
<g id="a_node11"><a xlink:href="d__meter2__draw_8cpp.html" target="_top" xlink:title=" ">
<polygon fill="white" stroke="#666666" points="270,-30 160,-30 160,0 270,0 270,-30"/>
<text text-anchor="start" x="168" y="-18" font-family="Helvetica,sans-Serif" font-size="10.00">src/d/meter/d_meter2</text>
<text text-anchor="middle" x="215" y="-7" font-family="Helvetica,sans-Serif" font-size="10.00">_draw.cpp</text>
</a>
</g>
</g>
<!-- Node2&#45;&gt;Node11 -->
<g id="edge10" class="edge">
<title>Node2&#45;&gt;Node11</title>
<path fill="none" stroke="#63b8ff" d="M492.57,-74.26C438.15,-63.19 352.81,-45.69 279,-30 276.22,-29.41 273.37,-28.8 270.49,-28.18"/>
<polygon fill="#63b8ff" stroke="#63b8ff" points="491.72,-77.66 502.21,-76.23 493.11,-70.8 491.72,-77.66"/>
</g>
<!-- Node12 -->
<g id="node12" class="node">
<title>Node12</title>
<g id="a_node12"><a xlink:href="d__msg__flow_8cpp.html" target="_top" xlink:title=" ">
<polygon fill="white" stroke="#666666" points="1546.5,-24.5 1413.5,-24.5 1413.5,-5.5 1546.5,-5.5 1546.5,-24.5"/>
<text text-anchor="middle" x="1480" y="-12.5" font-family="Helvetica,sans-Serif" font-size="10.00">src/d/msg/d_msg_flow.cpp</text>
</a>
</g>
</g>
<!-- Node2&#45;&gt;Node12 -->
<g id="edge11" class="edge">
<title>Node2&#45;&gt;Node12</title>
<path fill="none" stroke="#63b8ff" d="M584.15,-73.31C594.05,-70.44 604.85,-67.71 615,-66 925.25,-13.69 1008.13,-51.89 1322,-30 1351.94,-27.91 1385.03,-25.06 1413.16,-22.48"/>
<polygon fill="#63b8ff" stroke="#63b8ff" points="583.44,-69.87 574.89,-76.14 585.48,-76.57 583.44,-69.87"/>
</g>
<!-- Node13 -->
<g id="node13" class="node">
<title>Node13</title>
<g id="a_node13"><a xlink:href="d__msg__scrn__howl_8cpp.html" target="_top" xlink:title=" ">
<polygon fill="white" stroke="#666666" points="404,-30 288,-30 288,0 404,0 404,-30"/>
<text text-anchor="start" x="296" y="-18" font-family="Helvetica,sans-Serif" font-size="10.00">src/d/msg/d_msg_scrn</text>
<text text-anchor="middle" x="346" y="-7" font-family="Helvetica,sans-Serif" font-size="10.00">_howl.cpp</text>
</a>
</g>
</g>
<!-- Node2&#45;&gt;Node13 -->
<g id="edge12" class="edge">
<title>Node2&#45;&gt;Node13</title>
<path fill="none" stroke="#63b8ff" d="M511.38,-72.9C476.65,-60.95 424.49,-43.01 388.06,-30.47"/>
<polygon fill="#63b8ff" stroke="#63b8ff" points="509.98,-76.12 520.57,-76.06 512.26,-69.5 509.98,-76.12"/>
</g>
<!-- Node14 -->
<g id="node14" class="node">
<title>Node14</title>
<g id="a_node14"><a xlink:href="f__op__actor_8cpp.html" target="_top" xlink:title=" ">
<polygon fill="white" stroke="#666666" points="541.5,-24.5 422.5,-24.5 422.5,-5.5 541.5,-5.5 541.5,-24.5"/>
<text text-anchor="middle" x="482" y="-12.5" font-family="Helvetica,sans-Serif" font-size="10.00">src/f_op/f_op_actor.cpp</text>
</a>
</g>
</g>
<!-- Node2&#45;&gt;Node14 -->
<g id="edge13" class="edge">
<title>Node2&#45;&gt;Node14</title>
<path fill="none" stroke="#63b8ff" d="M531.88,-68.53C518.82,-54.77 500.92,-35.93 490.5,-24.95"/>
<polygon fill="#63b8ff" stroke="#63b8ff" points="529.17,-70.76 538.6,-75.6 534.25,-65.94 529.17,-70.76"/>
</g>
<!-- Node15&#45;&gt;Node3 -->
<g id="edge23" class="edge">
<title>Node15&#45;&gt;Node3</title>
<path fill="none" stroke="#63b8ff" d="M1370.12,-154.81C1501.47,-149.92 1782.53,-136.13 1815,-107 1838.67,-85.77 1837.16,-43.33 1835.21,-24.89"/>
<polygon fill="#63b8ff" stroke="#63b8ff" points="1370.03,-151.32 1360.16,-155.18 1370.28,-158.31 1370.03,-151.32"/>
</g>
<!-- Node16 -->
<g id="node16" class="node">
<title>Node16</title>
<g id="a_node16"><a xlink:href="d__shop__system_8h.html" target="_top" xlink:title=" ">
<polygon fill="#fff0f0" stroke="red" points="1554,-101.5 1440,-101.5 1440,-71.5 1554,-71.5 1554,-101.5"/>
<text text-anchor="start" x="1448" y="-89.5" font-family="Helvetica,sans-Serif" font-size="10.00">include/d/shop/d_shop</text>
<text text-anchor="middle" x="1497" y="-78.5" font-family="Helvetica,sans-Serif" font-size="10.00">_system.h</text>
</a>
</g>
</g>
<!-- Node15&#45;&gt;Node16 -->
<g id="edge15" class="edge">
<title>Node15&#45;&gt;Node16</title>
<path fill="none" stroke="#63b8ff" d="M1338.6,-144.25C1371.96,-132.3 1421.77,-114.45 1456.6,-101.97"/>
<polygon fill="#63b8ff" stroke="#63b8ff" points="1337.62,-140.88 1329.39,-147.55 1339.98,-147.47 1337.62,-140.88"/>
</g>
<!-- Node18 -->
<g id="node17" class="node">
<title>Node18</title>
<g id="a_node17"><a xlink:href="d__a__npc__ash_8h.html" target="_top" xlink:title=" ">
<polygon fill="white" stroke="#666666" points="1156,-101.5 1010,-101.5 1010,-71.5 1156,-71.5 1156,-101.5"/>
<text text-anchor="start" x="1018" y="-89.5" font-family="Helvetica,sans-Serif" font-size="10.00">include/rel/d/a/npc</text>
<text text-anchor="middle" x="1083" y="-78.5" font-family="Helvetica,sans-Serif" font-size="10.00">/d_a_npc_ash/d_a_npc_ash.h</text>
</a>
</g>
</g>
<!-- Node15&#45;&gt;Node18 -->
<g id="edge17" class="edge">
<title>Node15&#45;&gt;Node18</title>
<path fill="none" stroke="#63b8ff" d="M1264.1,-144.71C1226.27,-132.76 1168.83,-114.61 1128.81,-101.97"/>
<polygon fill="#63b8ff" stroke="#63b8ff" points="1262.66,-147.93 1273.25,-147.6 1264.76,-141.25 1262.66,-147.93"/>
</g>
<!-- Node19 -->
<g id="node18" class="node">
<title>Node19</title>
<g id="a_node18"><a xlink:href="d__a__npc__gwolf_8h.html" target="_top" xlink:title=" ">
<polygon fill="white" stroke="#666666" points="1299.5,-107 1174.5,-107 1174.5,-66 1299.5,-66 1299.5,-107"/>
<text text-anchor="start" x="1182.5" y="-95" font-family="Helvetica,sans-Serif" font-size="10.00">include/rel/d/a/npc</text>
<text text-anchor="start" x="1182.5" y="-84" font-family="Helvetica,sans-Serif" font-size="10.00">/d_a_npc_gwolf/d_a_npc</text>
<text text-anchor="middle" x="1237" y="-73" font-family="Helvetica,sans-Serif" font-size="10.00">_gwolf.h</text>
</a>
</g>
</g>
<!-- Node15&#45;&gt;Node19 -->
<g id="edge18" class="edge">
<title>Node15&#45;&gt;Node19</title>
<path fill="none" stroke="#63b8ff" d="M1286.85,-140C1277.47,-130.11 1265.6,-117.62 1255.8,-107.29"/>
<polygon fill="#63b8ff" stroke="#63b8ff" points="1284.17,-142.26 1293.6,-147.1 1289.25,-137.44 1284.17,-142.26"/>
</g>
<!-- Node20 -->
<g id="node19" class="node">
<title>Node20</title>
<g id="a_node19"><a xlink:href="d__a__npc__wrestler_8h.html" target="_top" xlink:title=" ">
<polygon fill="white" stroke="#666666" points="1422,-107 1318,-107 1318,-66 1422,-66 1422,-107"/>
<text text-anchor="start" x="1326" y="-95" font-family="Helvetica,sans-Serif" font-size="10.00">include/rel/d/a/npc</text>
<text text-anchor="start" x="1326" y="-84" font-family="Helvetica,sans-Serif" font-size="10.00">/d_a_npc_wrestler/d</text>
<text text-anchor="middle" x="1370" y="-73" font-family="Helvetica,sans-Serif" font-size="10.00">_a_npc_wrestler.h</text>
</a>
</g>
</g>
<!-- Node15&#45;&gt;Node20 -->
<g id="edge19" class="edge">
<title>Node15&#45;&gt;Node20</title>
<path fill="none" stroke="#63b8ff" d="M1319.39,-140C1328.92,-130.11 1340.97,-117.62 1350.92,-107.29"/>
<polygon fill="#63b8ff" stroke="#63b8ff" points="1316.96,-137.48 1312.54,-147.11 1322,-142.34 1316.96,-137.48"/>
</g>
<!-- Node21 -->
<g id="node20" class="node">
<title>Node21</title>
<g id="a_node20"><a xlink:href="d__a__obj__sekizoa_8h.html" target="_top" xlink:title=" ">
<polygon fill="white" stroke="#666666" points="1806,-107 1696,-107 1696,-66 1806,-66 1806,-107"/>
<text text-anchor="start" x="1704" y="-95" font-family="Helvetica,sans-Serif" font-size="10.00">include/rel/d/a/obj</text>
<text text-anchor="start" x="1704" y="-84" font-family="Helvetica,sans-Serif" font-size="10.00">/d_a_obj_sekizoa/d_a</text>
<text text-anchor="middle" x="1751" y="-73" font-family="Helvetica,sans-Serif" font-size="10.00">_obj_sekizoa.h</text>
</a>
</g>
</g>
<!-- Node15&#45;&gt;Node21 -->
<g id="edge20" class="edge">
<title>Node15&#45;&gt;Node21</title>
<path fill="none" stroke="#63b8ff" d="M1370.27,-151.65C1447.39,-144.74 1577.3,-130.68 1687,-107 1689.84,-106.39 1692.73,-105.71 1695.65,-104.98"/>
<polygon fill="#63b8ff" stroke="#63b8ff" points="1369.98,-148.17 1360.33,-152.53 1370.6,-155.14 1369.98,-148.17"/>
</g>
<!-- Node22 -->
<g id="node21" class="node">
<title>Node22</title>
<g id="a_node21"><a xlink:href="d__a__tag__push_8h.html" target="_top" xlink:title=" ">
<polygon fill="white" stroke="#666666" points="742,-107 624,-107 624,-66 742,-66 742,-107"/>
<text text-anchor="start" x="632" y="-95" font-family="Helvetica,sans-Serif" font-size="10.00">include/rel/d/a/tag</text>
<text text-anchor="start" x="632" y="-84" font-family="Helvetica,sans-Serif" font-size="10.00">/d_a_tag_push/d_a_tag</text>
<text text-anchor="middle" x="683" y="-73" font-family="Helvetica,sans-Serif" font-size="10.00">_push.h</text>
</a>
</g>
</g>
<!-- Node15&#45;&gt;Node22 -->
<g id="edge22" class="edge">
<title>Node15&#45;&gt;Node22</title>
<path fill="none" stroke="#63b8ff" d="M1235.99,-155.01C1131.55,-150.99 923.99,-139.34 751,-107 748.1,-106.46 745.15,-105.85 742.18,-105.18"/>
<polygon fill="#63b8ff" stroke="#63b8ff" points="1235.65,-158.5 1245.78,-155.37 1235.91,-151.5 1235.65,-158.5"/>
</g>
<!-- Node23 -->
<g id="node22" class="node">
<title>Node23</title>
<g id="a_node22"><a xlink:href="d__a__npc_8cpp.html" target="_top" xlink:title=" ">
<polygon fill="white" stroke="#666666" points="864,-96 760,-96 760,-77 864,-77 864,-96"/>
<text text-anchor="middle" x="812" y="-84" font-family="Helvetica,sans-Serif" font-size="10.00">src/d/a/d_a_npc.cpp</text>
</a>
</g>
</g>
<!-- Node15&#45;&gt;Node23 -->
<g id="edge24" class="edge">
<title>Node15&#45;&gt;Node23</title>
<path fill="none" stroke="#63b8ff" d="M1235.79,-153.22C1150.61,-147.52 999.6,-134.33 873,-107 860.72,-104.35 847.39,-100.24 836.34,-96.47"/>
<polygon fill="#63b8ff" stroke="#63b8ff" points="1235.4,-156.71 1245.61,-153.87 1235.85,-149.72 1235.4,-156.71"/>
</g>
<!-- Node24 -->
<g id="node23" class="node">
<title>Node24</title>
<g id="a_node23"><a xlink:href="d__meter2__info_8cpp.html" target="_top" xlink:title=" ">
<polygon fill="white" stroke="#666666" points="992,-101.5 882,-101.5 882,-71.5 992,-71.5 992,-101.5"/>
<text text-anchor="start" x="890" y="-89.5" font-family="Helvetica,sans-Serif" font-size="10.00">src/d/meter/d_meter2</text>
<text text-anchor="middle" x="937" y="-78.5" font-family="Helvetica,sans-Serif" font-size="10.00">_info.cpp</text>
</a>
</g>
</g>
<!-- Node15&#45;&gt;Node24 -->
<g id="edge25" class="edge">
<title>Node15&#45;&gt;Node24</title>
<path fill="none" stroke="#63b8ff" d="M1236.08,-148.5C1174.55,-140.07 1081.01,-125.73 1001,-107 994.78,-105.54 988.28,-103.81 981.9,-101.99"/>
<polygon fill="#63b8ff" stroke="#63b8ff" points="1235.3,-151.93 1245.68,-149.8 1236.24,-144.99 1235.3,-151.93"/>
</g>
<!-- Node16&#45;&gt;Node12 -->
<g id="edge16" class="edge">
<title>Node16&#45;&gt;Node12</title>
<path fill="none" stroke="#63b8ff" d="M1490.75,-59.96C1487.72,-47.57 1484.28,-33.49 1482.12,-24.68"/>
<polygon fill="#63b8ff" stroke="#63b8ff" points="1487.34,-60.75 1493.12,-69.63 1494.14,-59.08 1487.34,-60.75"/>
</g>
<!-- Node21&#45;&gt;Node3 -->
<g id="edge21" class="edge">
<title>Node21&#45;&gt;Node3</title>
<path fill="none" stroke="#63b8ff" d="M1783.2,-58.54C1797.49,-46.57 1813.33,-33.3 1823.47,-24.82"/>
<polygon fill="#63b8ff" stroke="#63b8ff" points="1781.14,-55.69 1775.72,-64.8 1785.64,-61.06 1781.14,-55.69"/>
</g>
<!-- Node26 -->
<g id="node25" class="node">
<title>Node26</title>
<g id="a_node25"><a xlink:href="d__a__npc__cd_8cpp.html" target="_top" xlink:title=" ">
<polygon fill="white" stroke="#666666" points="1982,-96 1862,-96 1862,-77 1982,-77 1982,-96"/>
<text text-anchor="middle" x="1922" y="-84" font-family="Helvetica,sans-Serif" font-size="10.00">src/d/a/d_a_npc_cd.cpp</text>
</a>
</g>
</g>
<!-- Node25&#45;&gt;Node26 -->
<g id="edge27" class="edge">
<title>Node25&#45;&gt;Node26</title>
<path fill="none" stroke="#63b8ff" d="M1759.41,-144.28C1799.13,-130.41 1861.69,-108.56 1896.49,-96.41"/>
<polygon fill="#63b8ff" stroke="#63b8ff" points="1758.32,-140.96 1750.04,-147.56 1760.63,-147.56 1758.32,-140.96"/>
</g>
<!-- Node28 -->
<g id="node27" class="node">
<title>Node28</title>
<g id="a_node27"><a xlink:href="d__a__npc__cd2_8cpp.html" target="_top" xlink:title=" ">
<polygon fill="white" stroke="#666666" points="2125.5,-96 2000.5,-96 2000.5,-77 2125.5,-77 2125.5,-96"/>
<text text-anchor="middle" x="2063" y="-84" font-family="Helvetica,sans-Serif" font-size="10.00">src/d/a/d_a_npc_cd2.cpp</text>
</a>
</g>
</g>
<!-- Node27&#45;&gt;Node28 -->
<g id="edge29" class="edge">
<title>Node27&#45;&gt;Node28</title>
<path fill="none" stroke="#63b8ff" d="M1910.69,-138.89C1951.12,-125.25 2004.8,-107.13 2036.45,-96.46"/>
<polygon fill="#63b8ff" stroke="#63b8ff" points="1909.72,-135.52 1901.37,-142.03 1911.96,-142.15 1909.72,-135.52"/>
</g>
<!-- Node30 -->
<g id="node29" class="node">
<title>Node30</title>
<g id="a_node29"><a xlink:href="d__a__b__oh2_8h.html" target="_top" xlink:title=" ">
<polygon fill="white" stroke="#666666" points="2260,-101.5 2144,-101.5 2144,-71.5 2260,-71.5 2260,-101.5"/>
<text text-anchor="start" x="2152" y="-89.5" font-family="Helvetica,sans-Serif" font-size="10.00">include/rel/d/a/b/d</text>
<text text-anchor="middle" x="2202" y="-78.5" font-family="Helvetica,sans-Serif" font-size="10.00">_a_b_oh2/d_a_b_oh2.h</text>
</a>
</g>
</g>
<!-- Node29&#45;&gt;Node30 -->
<g id="edge31" class="edge">
<title>Node29&#45;&gt;Node30</title>
<path fill="none" stroke="#63b8ff" d="M2225.34,-132.56C2220.03,-122.3 2214.03,-110.73 2209.45,-101.88"/>
<polygon fill="#63b8ff" stroke="#63b8ff" points="2222.14,-133.99 2229.84,-141.26 2228.35,-130.77 2222.14,-133.99"/>
</g>
<!-- Node33&#45;&gt;Node3 -->
<g id="edge38" class="edge">
<title>Node33&#45;&gt;Node3</title>
<path fill="none" stroke="#63b8ff" d="M2436.88,-141.6C2383.34,-128.2 2313.75,-110.4 2308,-107 2286.34,-94.22 2291.51,-77.22 2269,-66 2203.52,-33.36 1990.55,-21.54 1888.93,-17.68"/>
<polygon fill="#63b8ff" stroke="#63b8ff" points="2436.01,-145 2446.56,-144.02 2437.71,-138.2 2436.01,-145"/>
</g>
<!-- Node34 -->
<g id="node33" class="node">
<title>Node34</title>
<g id="a_node33"><a xlink:href="d__a__e__wb_8h.html" target="_top" xlink:title=" ">
<polygon fill="#fff0f0" stroke="red" points="2806,-101.5 2696,-101.5 2696,-71.5 2806,-71.5 2806,-101.5"/>
<text text-anchor="start" x="2704" y="-89.5" font-family="Helvetica,sans-Serif" font-size="10.00">include/rel/d/a/e/d</text>
<text text-anchor="middle" x="2751" y="-78.5" font-family="Helvetica,sans-Serif" font-size="10.00">_a_e_wb/d_a_e_wb.h</text>
</a>
</g>
</g>
<!-- Node33&#45;&gt;Node34 -->
<g id="edge35" class="edge">
<title>Node33&#45;&gt;Node34</title>
<path fill="none" stroke="#63b8ff" d="M2560.84,-141.15C2597.59,-131.58 2645.06,-118.96 2687,-107 2692.58,-105.41 2698.43,-103.69 2704.22,-101.96"/>
<polygon fill="#63b8ff" stroke="#63b8ff" points="2560.07,-137.73 2551.27,-143.63 2561.83,-144.51 2560.07,-137.73"/>
</g>
<!-- Node36 -->
<g id="node34" class="node">
<title>Node36</title>
<g id="a_node34"><a xlink:href="d__a__tag__hinit_8h.html" target="_top" xlink:title=" ">
<polygon fill="white" stroke="#666666" points="2431.5,-107 2316.5,-107 2316.5,-66 2431.5,-66 2431.5,-107"/>
<text text-anchor="start" x="2324.5" y="-95" font-family="Helvetica,sans-Serif" font-size="10.00">include/rel/d/a/tag</text>
<text text-anchor="start" x="2324.5" y="-84" font-family="Helvetica,sans-Serif" font-size="10.00">/d_a_tag_hinit/d_a_tag</text>
<text text-anchor="middle" x="2374" y="-73" font-family="Helvetica,sans-Serif" font-size="10.00">_hinit.h</text>
</a>
</g>
</g>
<!-- Node33&#45;&gt;Node36 -->
<g id="edge37" class="edge">
<title>Node33&#45;&gt;Node36</title>
<path fill="none" stroke="#63b8ff" d="M2463.14,-137.06C2446.41,-127.76 2426.55,-116.72 2409.82,-107.42"/>
<polygon fill="#63b8ff" stroke="#63b8ff" points="2461.34,-140.06 2471.78,-141.86 2464.74,-133.95 2461.34,-140.06"/>
</g>
<!-- Node37 -->
<g id="node35" class="node">
<title>Node37</title>
<g id="a_node35"><a xlink:href="d__a__no__chg__room_8cpp.html" target="_top" xlink:title=" ">
<polygon fill="white" stroke="#666666" points="2552,-101.5 2450,-101.5 2450,-71.5 2552,-71.5 2552,-101.5"/>
<text text-anchor="start" x="2458" y="-89.5" font-family="Helvetica,sans-Serif" font-size="10.00">src/d/a/d_a_no_chg</text>
<text text-anchor="middle" x="2501" y="-78.5" font-family="Helvetica,sans-Serif" font-size="10.00">_room.cpp</text>
</a>
</g>
</g>
<!-- Node33&#45;&gt;Node37 -->
<g id="edge39" class="edge">
<title>Node33&#45;&gt;Node37</title>
<path fill="none" stroke="#63b8ff" d="M2499.74,-131.26C2500.03,-121.33 2500.34,-110.36 2500.59,-101.88"/>
<polygon fill="#63b8ff" stroke="#63b8ff" points="2496.25,-130.99 2499.46,-141.09 2503.24,-131.19 2496.25,-130.99"/>
</g>
<!-- Node38 -->
<g id="node36" class="node">
<title>Node38</title>
<g id="a_node36"><a xlink:href="d__bg__w_8cpp.html" target="_top" xlink:title=" ">
<polygon fill="white" stroke="#666666" points="2677.5,-96 2570.5,-96 2570.5,-77 2677.5,-77 2677.5,-96"/>
<text text-anchor="middle" x="2624" y="-84" font-family="Helvetica,sans-Serif" font-size="10.00">src/d/bg/d_bg_w.cpp</text>
</a>
</g>
</g>
<!-- Node33&#45;&gt;Node38 -->
<g id="edge40" class="edge">
<title>Node33&#45;&gt;Node38</title>
<path fill="none" stroke="#63b8ff" d="M2534.8,-137.1C2558.96,-123.66 2589.67,-106.59 2608.03,-96.38"/>
<polygon fill="#63b8ff" stroke="#63b8ff" points="2533.26,-133.95 2526.22,-141.86 2536.66,-140.06 2533.26,-133.95"/>
</g>
<!-- Node34&#45;&gt;Node3 -->
<g id="edge36" class="edge">
<title>Node34&#45;&gt;Node3</title>
<path fill="none" stroke="#63b8ff" d="M2697.8,-68.26C2694.17,-67.4 2690.54,-66.63 2687,-66 2532.76,-38.39 2052.23,-22.3 1888.94,-17.52"/>
<polygon fill="#63b8ff" stroke="#63b8ff" points="2696.63,-71.57 2707.19,-70.69 2698.38,-64.79 2696.63,-71.57"/>
</g>
<!-- Node42&#45;&gt;Node3 -->
<g id="edge43" class="edge">
<title>Node42&#45;&gt;Node3</title>
<path fill="none" stroke="#63b8ff" d="M2826.81,-68.32C2822.84,-67.43 2818.87,-66.65 2815,-66 2634.59,-35.94 2067.79,-21.15 1888.76,-17.15"/>
<polygon fill="#63b8ff" stroke="#63b8ff" points="2825.96,-71.71 2836.5,-70.68 2827.61,-64.91 2825.96,-71.71"/>
</g>
<!-- Node43&#45;&gt;Node3 -->
<g id="edge45" class="edge">
<title>Node43&#45;&gt;Node3</title>
<path fill="none" stroke="#63b8ff" d="M1679.47,-67.39C1720.49,-53.75 1774.96,-35.63 1807.07,-24.96"/>
<polygon fill="#63b8ff" stroke="#63b8ff" points="1678.38,-64.06 1670,-70.54 1680.59,-70.7 1678.38,-64.06"/>
</g>
<!-- Node43&#45;&gt;Node4 -->
<g id="edge46" class="edge">
<title>Node43&#45;&gt;Node4</title>
<path fill="none" stroke="#63b8ff" d="M1570.9,-67.99C1568.24,-67.28 1565.59,-66.62 1563,-66 1476.96,-45.58 1375.39,-30.82 1313.35,-22.84"/>
<polygon fill="#63b8ff" stroke="#63b8ff" points="1569.83,-71.32 1580.4,-70.65 1571.72,-64.58 1569.83,-71.32"/>
</g>
<!-- Node43&#45;&gt;Node8 -->
<g id="edge47" class="edge">
<title>Node43&#45;&gt;Node8</title>
<path fill="none" stroke="#63b8ff" d="M1625,-59.96C1625,-47.57 1625,-33.49 1625,-24.68"/>
<polygon fill="#63b8ff" stroke="#63b8ff" points="1621.5,-59.59 1625,-69.59 1628.5,-59.59 1621.5,-59.59"/>
</g>
<!-- Node43&#45;&gt;Node12 -->
<g id="edge48" class="edge">
<title>Node43&#45;&gt;Node12</title>
<path fill="none" stroke="#63b8ff" d="M1584.6,-66.13C1556.41,-52.62 1520.11,-35.22 1498.52,-24.88"/>
<polygon fill="#63b8ff" stroke="#63b8ff" points="1583.06,-69.28 1593.59,-70.45 1586.09,-62.97 1583.06,-69.28"/>
</g>
</g>
</svg>
