<?xml version="1.0" encoding="UTF-8" standalone="no"?>
<!DOCTYPE svg PUBLIC "-//W3C//DTD SVG 1.1//EN"
 "http://www.w3.org/Graphics/SVG/1.1/DTD/svg11.dtd">
<!-- Generated by graphviz version 7.0.5 (20221223.1930)
 -->
<!-- Title: include/Z2AudioLib/Z2Creature.h Pages: 1 -->
<svg width="4761pt" height="247pt"
 viewBox="0.00 0.00 4760.50 247.00" xmlns="http://www.w3.org/2000/svg" xmlns:xlink="http://www.w3.org/1999/xlink">
<g id="graph0" class="graph" transform="scale(1 1) rotate(0) translate(4 243)">
<title>include/Z2AudioLib/Z2Creature.h</title>
<!-- Node1 -->
<g id="node1" class="node">
<title>Node1</title>
<g id="a_node1"><a xlink:title=" ">
<polygon fill="#999999" stroke="#666666" points="3079,-239 2979,-239 2979,-209 3079,-209 3079,-239"/>
<text text-anchor="start" x="2987" y="-227" font-family="Helvetica,sans-Serif" font-size="10.00">include/Z2AudioLib</text>
<text text-anchor="middle" x="3029" y="-216" font-family="Helvetica,sans-Serif" font-size="10.00">/Z2Creature.h</text>
</a>
</g>
</g>
<!-- Node2 -->
<g id="node2" class="node">
<title>Node2</title>
<g id="a_node2"><a xlink:href="d__a__alink_8h.html" target="_top" xlink:title=" ">
<polygon fill="white" stroke="#666666" points="923,-96 807,-96 807,-77 923,-77 923,-96"/>
<text text-anchor="middle" x="865" y="-84" font-family="Helvetica,sans-Serif" font-size="10.00">include/d/a/d_a_alink.h</text>
</a>
</g>
</g>
<!-- Node1&#45;&gt;Node2 -->
<g id="edge1" class="edge">
<title>Node1&#45;&gt;Node2</title>
<path fill="none" stroke="#63b8ff" d="M2967.71,-222.34C2705.52,-219.35 1677.08,-205.74 1355,-173 1186.4,-155.86 988.33,-114.75 905.06,-96.5"/>
<polygon fill="#63b8ff" stroke="#63b8ff" points="2967.34,-225.84 2977.37,-222.45 2967.41,-218.84 2967.34,-225.84"/>
</g>
<!-- Node15 -->
<g id="node15" class="node">
<title>Node15</title>
<g id="a_node15"><a xlink:href="d__a__npc_8h.html" target="_top" xlink:title=" ">
<polygon fill="white" stroke="#666666" points="1855.5,-167.5 1744.5,-167.5 1744.5,-148.5 1855.5,-148.5 1855.5,-167.5"/>
<text text-anchor="middle" x="1800" y="-155.5" font-family="Helvetica,sans-Serif" font-size="10.00">include/d/a/d_a_npc.h</text>
</a>
</g>
</g>
<!-- Node1&#45;&gt;Node15 -->
<g id="edge14" class="edge">
<title>Node1&#45;&gt;Node15</title>
<path fill="none" stroke="#63b8ff" d="M2967.39,-220.23C2809.95,-213.08 2380.05,-193.18 2022,-173 1965.32,-169.81 1900.53,-165.66 1855.64,-162.72"/>
<polygon fill="#63b8ff" stroke="#63b8ff" points="2967.03,-223.72 2977.18,-220.67 2967.35,-216.72 2967.03,-223.72"/>
</g>
<!-- Node25 -->
<g id="node24" class="node">
<title>Node25</title>
<g id="a_node24"><a xlink:href="d__a__npc__cd_8h.html" target="_top" xlink:title=" ">
<polygon fill="white" stroke="#666666" points="2158.5,-167.5 2031.5,-167.5 2031.5,-148.5 2158.5,-148.5 2158.5,-167.5"/>
<text text-anchor="middle" x="2095" y="-155.5" font-family="Helvetica,sans-Serif" font-size="10.00">include/d/a/d_a_npc_cd.h</text>
</a>
</g>
</g>
<!-- Node1&#45;&gt;Node25 -->
<g id="edge26" class="edge">
<title>Node1&#45;&gt;Node25</title>
<path fill="none" stroke="#63b8ff" d="M2967.38,-222.2C2825.71,-219.75 2466.08,-210.07 2168,-173 2157.76,-171.73 2146.78,-169.88 2136.54,-167.95"/>
<polygon fill="#63b8ff" stroke="#63b8ff" points="2967.24,-225.7 2977.3,-222.36 2967.36,-218.7 2967.24,-225.7"/>
</g>
<!-- Node27 -->
<g id="node26" class="node">
<title>Node27</title>
<g id="a_node26"><a xlink:href="d__a__npc__cd2_8h.html" target="_top" xlink:title=" ">
<polygon fill="white" stroke="#666666" points="2281,-173 2177,-173 2177,-143 2281,-143 2281,-173"/>
<text text-anchor="start" x="2185" y="-161" font-family="Helvetica,sans-Serif" font-size="10.00">include/d/a/d_a_npc</text>
<text text-anchor="middle" x="2229" y="-150" font-family="Helvetica,sans-Serif" font-size="10.00">_cd2.h</text>
</a>
</g>
</g>
<!-- Node1&#45;&gt;Node27 -->
<g id="edge28" class="edge">
<title>Node1&#45;&gt;Node27</title>
<path fill="none" stroke="#63b8ff" d="M2967.2,-222.03C2840,-219.33 2539.92,-209.31 2291,-173 2287.83,-172.54 2284.59,-172 2281.32,-171.41"/>
<polygon fill="#63b8ff" stroke="#63b8ff" points="2967.02,-225.53 2977.09,-222.23 2967.17,-218.53 2967.02,-225.53"/>
</g>
<!-- Node29 -->
<g id="node28" class="node">
<title>Node29</title>
<g id="a_node28"><a xlink:href="d__a__b__ob_8h.html" target="_top" xlink:title=" ">
<polygon fill="white" stroke="#666666" points="2663,-173 2557,-173 2557,-143 2663,-143 2663,-173"/>
<text text-anchor="start" x="2565" y="-161" font-family="Helvetica,sans-Serif" font-size="10.00">include/rel/d/a/b/d</text>
<text text-anchor="middle" x="2610" y="-150" font-family="Helvetica,sans-Serif" font-size="10.00">_a_b_ob/d_a_b_ob.h</text>
</a>
</g>
</g>
<!-- Node1&#45;&gt;Node29 -->
<g id="edge30" class="edge">
<title>Node1&#45;&gt;Node29</title>
<path fill="none" stroke="#63b8ff" d="M2967.27,-215.83C2896.09,-207.22 2775.68,-191.59 2673,-173 2669.8,-172.42 2666.52,-171.79 2663.22,-171.14"/>
<polygon fill="#63b8ff" stroke="#63b8ff" points="2966.84,-219.31 2977.18,-217.03 2967.67,-212.36 2966.84,-219.31"/>
</g>
<!-- Node31 -->
<g id="node30" class="node">
<title>Node31</title>
<g id="a_node30"><a xlink:href="d__a__cstaF_8h.html" target="_top" xlink:title=" ">
<polygon fill="white" stroke="#666666" points="2402.5,-173 2299.5,-173 2299.5,-143 2402.5,-143 2402.5,-173"/>
<text text-anchor="start" x="2307.5" y="-161" font-family="Helvetica,sans-Serif" font-size="10.00">include/rel/d/a/d_a</text>
<text text-anchor="middle" x="2351" y="-150" font-family="Helvetica,sans-Serif" font-size="10.00">_cstaF/d_a_cstaF.h</text>
</a>
</g>
</g>
<!-- Node1&#45;&gt;Node31 -->
<g id="edge32" class="edge">
<title>Node1&#45;&gt;Node31</title>
<path fill="none" stroke="#63b8ff" d="M2967.4,-220.96C2855.99,-216.62 2613.83,-204.17 2412,-173 2408.99,-172.54 2405.91,-172.01 2402.82,-171.43"/>
<polygon fill="#63b8ff" stroke="#63b8ff" points="2967.09,-224.45 2977.22,-221.33 2967.36,-217.46 2967.09,-224.45"/>
</g>
<!-- Node32 -->
<g id="node31" class="node">
<title>Node32</title>
<g id="a_node31"><a xlink:href="d__a__cstatue_8h.html" target="_top" xlink:title=" ">
<polygon fill="white" stroke="#666666" points="2539,-173 2421,-173 2421,-143 2539,-143 2539,-173"/>
<text text-anchor="start" x="2429" y="-161" font-family="Helvetica,sans-Serif" font-size="10.00">include/rel/d/a/d_a</text>
<text text-anchor="middle" x="2480" y="-150" font-family="Helvetica,sans-Serif" font-size="10.00">_cstatue/d_a_cstatue.h</text>
</a>
</g>
</g>
<!-- Node1&#45;&gt;Node32 -->
<g id="edge33" class="edge">
<title>Node1&#45;&gt;Node32</title>
<path fill="none" stroke="#63b8ff" d="M2967.29,-218.56C2875.52,-211.51 2697.79,-196.15 2548,-173 2545.14,-172.56 2542.22,-172.08 2539.28,-171.57"/>
<polygon fill="#63b8ff" stroke="#63b8ff" points="2966.84,-222.04 2977.08,-219.3 2967.37,-215.06 2966.84,-222.04"/>
</g>
<!-- Node33 -->
<g id="node32" class="node">
<title>Node33</title>
<g id="a_node32"><a xlink:href="d__a__horse_8h.html" target="_top" xlink:title=" ">
<polygon fill="#fff0f0" stroke="red" points="2960.5,-173 2859.5,-173 2859.5,-143 2960.5,-143 2960.5,-173"/>
<text text-anchor="start" x="2867.5" y="-161" font-family="Helvetica,sans-Serif" font-size="10.00">include/rel/d/a/d_a</text>
<text text-anchor="middle" x="2910" y="-150" font-family="Helvetica,sans-Serif" font-size="10.00">_horse/d_a_horse.h</text>
</a>
</g>
</g>
<!-- Node1&#45;&gt;Node33 -->
<g id="edge34" class="edge">
<title>Node1&#45;&gt;Node33</title>
<path fill="none" stroke="#63b8ff" d="M2992.4,-203.32C2974.38,-193.63 2953.06,-182.16 2936.62,-173.31"/>
<polygon fill="#63b8ff" stroke="#63b8ff" points="2990.5,-206.27 3000.96,-207.92 2993.81,-200.1 2990.5,-206.27"/>
</g>
<!-- Node41 -->
<g id="node36" class="node">
<title>Node41</title>
<g id="a_node36"><a xlink:href="d__a__mg__fish_8h.html" target="_top" xlink:title=" ">
<polygon fill="white" stroke="#666666" points="2802.5,-173 2681.5,-173 2681.5,-143 2802.5,-143 2802.5,-173"/>
<text text-anchor="start" x="2689.5" y="-161" font-family="Helvetica,sans-Serif" font-size="10.00">include/rel/d/a/d_a</text>
<text text-anchor="middle" x="2742" y="-150" font-family="Helvetica,sans-Serif" font-size="10.00">_mg_fish/d_a_mg_fish.h</text>
</a>
</g>
</g>
<!-- Node1&#45;&gt;Node41 -->
<g id="edge40" class="edge">
<title>Node1&#45;&gt;Node41</title>
<path fill="none" stroke="#63b8ff" d="M2967.69,-209.33C2919.08,-198.49 2851.51,-183.42 2802.99,-172.6"/>
<polygon fill="#63b8ff" stroke="#63b8ff" points="2966.68,-212.69 2977.2,-211.45 2968.2,-205.86 2966.68,-212.69"/>
</g>
<!-- Node42 -->
<g id="node37" class="node">
<title>Node42</title>
<g id="a_node37"><a xlink:href="d__a__mg__rod_8h.html" target="_top" xlink:title=" ">
<polygon fill="white" stroke="#666666" points="2804,-101.5 2686,-101.5 2686,-71.5 2804,-71.5 2804,-101.5"/>
<text text-anchor="start" x="2694" y="-89.5" font-family="Helvetica,sans-Serif" font-size="10.00">include/rel/d/a/d_a</text>
<text text-anchor="middle" x="2745" y="-78.5" font-family="Helvetica,sans-Serif" font-size="10.00">_mg_rod/d_a_mg_rod.h</text>
</a>
</g>
</g>
<!-- Node1&#45;&gt;Node42 -->
<g id="edge41" class="edge">
<title>Node1&#45;&gt;Node42</title>
<path fill="none" stroke="#63b8ff" d="M2967.5,-212.15C2932.11,-204.36 2887.55,-191.86 2851,-173 2846.06,-170.45 2791.21,-125.54 2762.42,-101.85"/>
<polygon fill="#63b8ff" stroke="#63b8ff" points="2966.65,-215.55 2977.16,-214.2 2968.11,-208.7 2966.65,-215.55"/>
</g>
<!-- Node43 -->
<g id="node38" class="node">
<title>Node43</title>
<g id="a_node38"><a xlink:href="d__a__midna_8h.html" target="_top" xlink:title=" ">
<polygon fill="white" stroke="#666666" points="1138,-101.5 1032,-101.5 1032,-71.5 1138,-71.5 1138,-101.5"/>
<text text-anchor="start" x="1040" y="-89.5" font-family="Helvetica,sans-Serif" font-size="10.00">include/rel/d/a/d_a</text>
<text text-anchor="middle" x="1085" y="-78.5" font-family="Helvetica,sans-Serif" font-size="10.00">_midna/d_a_midna.h</text>
</a>
</g>
</g>
<!-- Node1&#45;&gt;Node43 -->
<g id="edge43" class="edge">
<title>Node1&#45;&gt;Node43</title>
<path fill="none" stroke="#63b8ff" d="M2967.21,-222.22C2780.89,-219.51 2208.25,-208.66 1735,-173 1472.77,-153.24 1404.29,-161.37 1147,-107 1140.49,-105.62 1133.68,-103.85 1127.07,-101.92"/>
<polygon fill="#63b8ff" stroke="#63b8ff" points="2967.1,-225.71 2977.15,-222.36 2967.2,-218.72 2967.1,-225.71"/>
</g>
<!-- Node44 -->
<g id="node39" class="node">
<title>Node44</title>
<g id="a_node39"><a xlink:href="d__a__myna_8h.html" target="_top" xlink:title=" ">
<polygon fill="white" stroke="#666666" points="3079,-173 2979,-173 2979,-143 3079,-143 3079,-173"/>
<text text-anchor="start" x="2987" y="-161" font-family="Helvetica,sans-Serif" font-size="10.00">include/rel/d/a/d_a</text>
<text text-anchor="middle" x="3029" y="-150" font-family="Helvetica,sans-Serif" font-size="10.00">_myna/d_a_myna.h</text>
</a>
</g>
</g>
<!-- Node1&#45;&gt;Node44 -->
<g id="edge48" class="edge">
<title>Node1&#45;&gt;Node44</title>
<path fill="none" stroke="#63b8ff" d="M3029,-197.39C3029,-189.13 3029,-180.28 3029,-173.16"/>
<polygon fill="#63b8ff" stroke="#63b8ff" points="3025.5,-197.28 3029,-207.28 3032.5,-197.28 3025.5,-197.28"/>
</g>
<!-- Node45 -->
<g id="node40" class="node">
<title>Node45</title>
<g id="a_node40"><a xlink:href="d__a__e__yk_8h.html" target="_top" xlink:title=" ">
<polygon fill="white" stroke="#666666" points="3201,-173 3097,-173 3097,-143 3201,-143 3201,-173"/>
<text text-anchor="start" x="3105" y="-161" font-family="Helvetica,sans-Serif" font-size="10.00">include/rel/d/a/e/d</text>
<text text-anchor="middle" x="3149" y="-150" font-family="Helvetica,sans-Serif" font-size="10.00">_a_e_yk/d_a_e_yk.h</text>
</a>
</g>
</g>
<!-- Node1&#45;&gt;Node45 -->
<g id="edge49" class="edge">
<title>Node1&#45;&gt;Node45</title>
<path fill="none" stroke="#63b8ff" d="M3065.9,-203.32C3084.07,-193.63 3105.58,-182.16 3122.16,-173.31"/>
<polygon fill="#63b8ff" stroke="#63b8ff" points="3064.44,-200.13 3057.27,-207.92 3067.74,-206.31 3064.44,-200.13"/>
</g>
<!-- Node46 -->
<g id="node41" class="node">
<title>Node46</title>
<g id="a_node41"><a xlink:href="d__a__e__ym_8h.html" target="_top" xlink:title=" ">
<polygon fill="#fff0f0" stroke="red" points="3329,-173 3219,-173 3219,-143 3329,-143 3329,-173"/>
<text text-anchor="start" x="3227" y="-161" font-family="Helvetica,sans-Serif" font-size="10.00">include/rel/d/a/e/d</text>
<text text-anchor="middle" x="3274" y="-150" font-family="Helvetica,sans-Serif" font-size="10.00">_a_e_ym/d_a_e_ym.h</text>
</a>
</g>
</g>
<!-- Node1&#45;&gt;Node46 -->
<g id="edge50" class="edge">
<title>Node1&#45;&gt;Node46</title>
<path fill="none" stroke="#63b8ff" d="M3090.54,-206.93C3129.99,-196.62 3180.78,-183.35 3218.91,-173.39"/>
<polygon fill="#63b8ff" stroke="#63b8ff" points="3089.72,-203.52 3080.93,-209.43 3091.49,-210.29 3089.72,-203.52"/>
</g>
<!-- Node48 -->
<g id="node42" class="node">
<title>Node48</title>
<g id="a_node42"><a xlink:href="Z2Creature_8cpp.html" target="_top" xlink:title=" ">
<polygon fill="white" stroke="#666666" points="3500.5,-167.5 3347.5,-167.5 3347.5,-148.5 3500.5,-148.5 3500.5,-167.5"/>
<text text-anchor="middle" x="3424" y="-155.5" font-family="Helvetica,sans-Serif" font-size="10.00">libs/Z2AudioLib/Z2Creature.cpp</text>
</a>
</g>
</g>
<!-- Node1&#45;&gt;Node48 -->
<g id="edge51" class="edge">
<title>Node1&#45;&gt;Node48</title>
<path fill="none" stroke="#63b8ff" d="M3090.52,-213.06C3152.88,-202.99 3252.15,-186.93 3338,-173 3348,-171.38 3358.66,-169.64 3368.95,-167.97"/>
<polygon fill="#63b8ff" stroke="#63b8ff" points="3090.12,-209.58 3080.81,-214.63 3091.24,-216.49 3090.12,-209.58"/>
</g>
<!-- Node49 -->
<g id="node43" class="node">
<title>Node49</title>
<g id="a_node43"><a xlink:href="Z2EnvSeMgr_8cpp.html" target="_top" xlink:title=" ">
<polygon fill="white" stroke="#666666" points="3679.5,-167.5 3518.5,-167.5 3518.5,-148.5 3679.5,-148.5 3679.5,-167.5"/>
<text text-anchor="middle" x="3599" y="-155.5" font-family="Helvetica,sans-Serif" font-size="10.00">libs/Z2AudioLib/Z2EnvSeMgr.cpp</text>
</a>
</g>
</g>
<!-- Node1&#45;&gt;Node49 -->
<g id="edge52" class="edge">
<title>Node1&#45;&gt;Node49</title>
<path fill="none" stroke="#63b8ff" d="M3090.58,-217.64C3182.19,-209.43 3359.71,-192.62 3510,-173 3521.32,-171.52 3533.42,-169.75 3544.94,-167.97"/>
<polygon fill="#63b8ff" stroke="#63b8ff" points="3090.46,-214.14 3080.81,-218.51 3091.08,-221.11 3090.46,-214.14"/>
</g>
<!-- Node50 -->
<g id="node44" class="node">
<title>Node50</title>
<g id="a_node44"><a xlink:href="Z2LinkMgr_8cpp.html" target="_top" xlink:title=" ">
<polygon fill="white" stroke="#666666" points="3850,-167.5 3698,-167.5 3698,-148.5 3850,-148.5 3850,-167.5"/>
<text text-anchor="middle" x="3774" y="-155.5" font-family="Helvetica,sans-Serif" font-size="10.00">libs/Z2AudioLib/Z2LinkMgr.cpp</text>
</a>
</g>
</g>
<!-- Node1&#45;&gt;Node50 -->
<g id="edge53" class="edge">
<title>Node1&#45;&gt;Node50</title>
<path fill="none" stroke="#63b8ff" d="M3090.42,-220.15C3207.28,-214.32 3469.55,-199.33 3689,-173 3700.43,-171.63 3712.68,-169.81 3724.21,-167.95"/>
<polygon fill="#63b8ff" stroke="#63b8ff" points="3090.57,-216.64 3080.75,-220.62 3090.91,-223.63 3090.57,-216.64"/>
</g>
<!-- Node51 -->
<g id="node45" class="node">
<title>Node51</title>
<g id="a_node45"><a xlink:href="Z2SeqMgr_8cpp.html" target="_top" xlink:title=" ">
<polygon fill="white" stroke="#666666" points="4018,-167.5 3868,-167.5 3868,-148.5 4018,-148.5 4018,-167.5"/>
<text text-anchor="middle" x="3943" y="-155.5" font-family="Helvetica,sans-Serif" font-size="10.00">libs/Z2AudioLib/Z2SeqMgr.cpp</text>
</a>
</g>
</g>
<!-- Node1&#45;&gt;Node51 -->
<g id="edge54" class="edge">
<title>Node1&#45;&gt;Node51</title>
<path fill="none" stroke="#63b8ff" d="M3090.34,-221.51C3228.15,-217.67 3572.63,-205.4 3859,-173 3870.61,-171.69 3883.05,-169.85 3894.7,-167.94"/>
<polygon fill="#63b8ff" stroke="#63b8ff" points="3090.63,-218 3080.73,-221.77 3090.82,-225 3090.63,-218"/>
</g>
<!-- Node52 -->
<g id="node46" class="node">
<title>Node52</title>
<g id="a_node46"><a xlink:href="Z2SoundObjMgr_8cpp.html" target="_top" xlink:title=" ">
<polygon fill="white" stroke="#666666" points="4177.5,-173 4036.5,-173 4036.5,-143 4177.5,-143 4177.5,-173"/>
<text text-anchor="start" x="4044.5" y="-161" font-family="Helvetica,sans-Serif" font-size="10.00">libs/Z2AudioLib/Z2SoundObj</text>
<text text-anchor="middle" x="4107" y="-150" font-family="Helvetica,sans-Serif" font-size="10.00">Mgr.cpp</text>
</a>
</g>
</g>
<!-- Node1&#45;&gt;Node52 -->
<g id="edge55" class="edge">
<title>Node1&#45;&gt;Node52</title>
<path fill="none" stroke="#63b8ff" d="M3090.53,-222.55C3247.25,-220.83 3674.01,-212.58 4027,-173 4030.08,-172.65 4033.23,-172.26 4036.4,-171.84"/>
<polygon fill="#63b8ff" stroke="#63b8ff" points="3090.76,-219.05 3080.8,-222.65 3090.83,-226.05 3090.76,-219.05"/>
</g>
<!-- Node53 -->
<g id="node47" class="node">
<title>Node53</title>
<g id="a_node47"><a xlink:href="Z2StatusMgr_8cpp.html" target="_top" xlink:title=" ">
<polygon fill="white" stroke="#666666" points="4322.5,-173 4195.5,-173 4195.5,-143 4322.5,-143 4322.5,-173"/>
<text text-anchor="start" x="4203.5" y="-161" font-family="Helvetica,sans-Serif" font-size="10.00">libs/Z2AudioLib/Z2Status</text>
<text text-anchor="middle" x="4259" y="-150" font-family="Helvetica,sans-Serif" font-size="10.00">Mgr.cpp</text>
</a>
</g>
</g>
<!-- Node1&#45;&gt;Node53 -->
<g id="edge56" class="edge">
<title>Node1&#45;&gt;Node53</title>
<path fill="none" stroke="#63b8ff" d="M3090.87,-223.56C3264.43,-224.43 3770.41,-222.22 4187,-173 4189.66,-172.69 4192.36,-172.33 4195.09,-171.94"/>
<polygon fill="#63b8ff" stroke="#63b8ff" points="3090.97,-220.06 3080.95,-223.5 3090.93,-227.06 3090.97,-220.06"/>
</g>
<!-- Node54 -->
<g id="node48" class="node">
<title>Node54</title>
<g id="a_node48"><a xlink:href="Z2WolfHowlMgr_8cpp.html" target="_top" xlink:title=" ">
<polygon fill="white" stroke="#666666" points="4481,-173 4341,-173 4341,-143 4481,-143 4481,-173"/>
<text text-anchor="start" x="4349" y="-161" font-family="Helvetica,sans-Serif" font-size="10.00">libs/Z2AudioLib/Z2WolfHowl</text>
<text text-anchor="middle" x="4411" y="-150" font-family="Helvetica,sans-Serif" font-size="10.00">Mgr.cpp</text>
</a>
</g>
</g>
<!-- Node1&#45;&gt;Node54 -->
<g id="edge57" class="edge">
<title>Node1&#45;&gt;Node54</title>
<path fill="none" stroke="#63b8ff" d="M3090.74,-223.63C3278.07,-224.88 3856.33,-224.03 4332,-173 4334.91,-172.69 4337.87,-172.33 4340.86,-171.94"/>
<polygon fill="#63b8ff" stroke="#63b8ff" points="3091.03,-220.13 3081,-223.56 3090.98,-227.13 3091.03,-220.13"/>
</g>
<!-- Node55 -->
<g id="node49" class="node">
<title>Node55</title>
<g id="a_node49"><a xlink:href="d__cc__uty_8cpp.html" target="_top" xlink:title=" ">
<polygon fill="white" stroke="#666666" points="4611,-167.5 4499,-167.5 4499,-148.5 4611,-148.5 4611,-167.5"/>
<text text-anchor="middle" x="4555" y="-155.5" font-family="Helvetica,sans-Serif" font-size="10.00">src/d/cc/d_cc_uty.cpp</text>
</a>
</g>
</g>
<!-- Node1&#45;&gt;Node55 -->
<g id="edge58" class="edge">
<title>Node1&#45;&gt;Node55</title>
<path fill="none" stroke="#63b8ff" d="M3090.64,-222.35C3331.93,-219.59 4212.76,-207.32 4490,-173 4499.39,-171.84 4509.44,-169.98 4518.75,-168"/>
<polygon fill="#63b8ff" stroke="#63b8ff" points="3090.77,-218.85 3080.81,-222.46 3090.85,-225.85 3090.77,-218.85"/>
</g>
<!-- Node56 -->
<g id="node50" class="node">
<title>Node56</title>
<g id="a_node50"><a xlink:href="m__Do__ext_8cpp.html" target="_top" xlink:title=" ">
<polygon fill="white" stroke="#666666" points="4752.5,-167.5 4629.5,-167.5 4629.5,-148.5 4752.5,-148.5 4752.5,-167.5"/>
<text text-anchor="middle" x="4691" y="-155.5" font-family="Helvetica,sans-Serif" font-size="10.00">src/m_Do/m_Do_ext.cpp</text>
</a>
</g>
</g>
<!-- Node1&#45;&gt;Node56 -->
<g id="edge59" class="edge">
<title>Node1&#45;&gt;Node56</title>
<path fill="none" stroke="#63b8ff" d="M3090.58,-222.41C3345.06,-219.76 4315.6,-207.56 4620,-173 4630.36,-171.82 4641.47,-169.94 4651.75,-167.93"/>
<polygon fill="#63b8ff" stroke="#63b8ff" points="3090.83,-218.91 3080.87,-222.51 3090.91,-225.91 3090.83,-218.91"/>
</g>
<!-- Node3 -->
<g id="node3" class="node">
<title>Node3</title>
<g id="a_node3"><a xlink:href="d__a__alink_8cpp.html" target="_top" xlink:title=" ">
<polygon fill="white" stroke="#666666" points="2296.5,-24.5 2187.5,-24.5 2187.5,-5.5 2296.5,-5.5 2296.5,-24.5"/>
<text text-anchor="middle" x="2242" y="-12.5" font-family="Helvetica,sans-Serif" font-size="10.00">src/d/a/d_a_alink.cpp</text>
</a>
</g>
</g>
<!-- Node2&#45;&gt;Node3 -->
<g id="edge2" class="edge">
<title>Node2&#45;&gt;Node3</title>
<path fill="none" stroke="#63b8ff" d="M934.51,-75.68C962.02,-72.11 993.95,-68.38 1023,-66 1471.59,-29.18 2015.38,-19.04 2187.23,-16.65"/>
<polygon fill="#63b8ff" stroke="#63b8ff" points="934.37,-72.16 924.91,-76.94 935.28,-79.1 934.37,-72.16"/>
</g>
<!-- Node4 -->
<g id="node4" class="node">
<title>Node4</title>
<g id="a_node4"><a xlink:href="d__a__player_8cpp.html" target="_top" xlink:title=" ">
<polygon fill="white" stroke="#666666" points="1369,-24.5 1255,-24.5 1255,-5.5 1369,-5.5 1369,-24.5"/>
<text text-anchor="middle" x="1312" y="-12.5" font-family="Helvetica,sans-Serif" font-size="10.00">src/d/a/d_a_player.cpp</text>
</a>
</g>
</g>
<!-- Node2&#45;&gt;Node4 -->
<g id="edge3" class="edge">
<title>Node2&#45;&gt;Node4</title>
<path fill="none" stroke="#63b8ff" d="M934.8,-76.6C1011.18,-66.57 1137.13,-49.13 1245,-30 1253.42,-28.51 1262.41,-26.75 1270.97,-24.99"/>
<polygon fill="#63b8ff" stroke="#63b8ff" points="934.4,-73.13 924.94,-77.89 935.31,-80.07 934.4,-73.13"/>
</g>
<!-- Node5 -->
<g id="node5" class="node">
<title>Node5</title>
<g id="a_node5"><a xlink:href="d__com__inf__game_8cpp.html" target="_top" xlink:title=" ">
<polygon fill="white" stroke="#666666" points="668,-30 560,-30 560,0 668,0 668,-30"/>
<text text-anchor="start" x="568" y="-18" font-family="Helvetica,sans-Serif" font-size="10.00">src/d/com/d_com_inf</text>
<text text-anchor="middle" x="614" y="-7" font-family="Helvetica,sans-Serif" font-size="10.00">_game.cpp</text>
</a>
</g>
</g>
<!-- Node2&#45;&gt;Node5 -->
<g id="edge4" class="edge">
<title>Node2&#45;&gt;Node5</title>
<path fill="none" stroke="#63b8ff" d="M821.72,-73.52C778.59,-61.57 712.31,-43.22 666.27,-30.47"/>
<polygon fill="#63b8ff" stroke="#63b8ff" points="820.67,-76.86 831.24,-76.15 822.54,-70.11 820.67,-76.86"/>
</g>
<!-- Node6 -->
<g id="node6" class="node">
<title>Node6</title>
<g id="a_node6"><a xlink:href="d__camera_8cpp.html" target="_top" xlink:title=" ">
<polygon fill="white" stroke="#666666" points="788,-24.5 686,-24.5 686,-5.5 788,-5.5 788,-24.5"/>
<text text-anchor="middle" x="737" y="-12.5" font-family="Helvetica,sans-Serif" font-size="10.00">src/d/d_camera.cpp</text>
</a>
</g>
</g>
<!-- Node2&#45;&gt;Node6 -->
<g id="edge5" class="edge">
<title>Node2&#45;&gt;Node6</title>
<path fill="none" stroke="#63b8ff" d="M838.73,-71.24C813.12,-57.33 774.98,-36.62 753.41,-24.91"/>
<polygon fill="#63b8ff" stroke="#63b8ff" points="836.74,-74.14 847.2,-75.83 840.08,-67.99 836.74,-74.14"/>
</g>
<!-- Node7 -->
<g id="node7" class="node">
<title>Node7</title>
<g id="a_node7"><a xlink:href="d__ev__camera_8cpp.html" target="_top" xlink:title=" ">
<polygon fill="white" stroke="#666666" points="924,-24.5 806,-24.5 806,-5.5 924,-5.5 924,-24.5"/>
<text text-anchor="middle" x="865" y="-12.5" font-family="Helvetica,sans-Serif" font-size="10.00">src/d/d_ev_camera.cpp</text>
</a>
</g>
</g>
<!-- Node2&#45;&gt;Node7 -->
<g id="edge6" class="edge">
<title>Node2&#45;&gt;Node7</title>
<path fill="none" stroke="#63b8ff" d="M865,-65.3C865,-51.94 865,-35.09 865,-24.95"/>
<polygon fill="#63b8ff" stroke="#63b8ff" points="861.5,-65.18 865,-75.18 868.5,-65.18 861.5,-65.18"/>
</g>
<!-- Node8 -->
<g id="node8" class="node">
<title>Node8</title>
<g id="a_node8"><a xlink:href="d__event_8cpp.html" target="_top" xlink:title=" ">
<polygon fill="white" stroke="#666666" points="1236.5,-24.5 1115.5,-24.5 1115.5,-5.5 1236.5,-5.5 1236.5,-24.5"/>
<text text-anchor="middle" x="1176" y="-12.5" font-family="Helvetica,sans-Serif" font-size="10.00">src/d/event/d_event.cpp</text>
</a>
</g>
</g>
<!-- Node2&#45;&gt;Node8 -->
<g id="edge7" class="edge">
<title>Node2&#45;&gt;Node8</title>
<path fill="none" stroke="#63b8ff" d="M916.03,-74.1C977.66,-60.32 1080,-37.45 1136.13,-24.91"/>
<polygon fill="#63b8ff" stroke="#63b8ff" points="915.49,-70.63 906.5,-76.23 917.02,-77.46 915.49,-70.63"/>
</g>
<!-- Node9 -->
<g id="node9" class="node">
<title>Node9</title>
<g id="a_node9"><a xlink:href="d__menu__collect_8cpp.html" target="_top" xlink:title=" ">
<polygon fill="white" stroke="#666666" points="1097.5,-24.5 942.5,-24.5 942.5,-5.5 1097.5,-5.5 1097.5,-24.5"/>
<text text-anchor="middle" x="1020" y="-12.5" font-family="Helvetica,sans-Serif" font-size="10.00">src/d/menu/d_menu_collect.cpp</text>
</a>
</g>
</g>
<!-- Node2&#45;&gt;Node9 -->
<g id="edge8" class="edge">
<title>Node2&#45;&gt;Node9</title>
<path fill="none" stroke="#63b8ff" d="M895.17,-71.97C926.17,-58.07 973.55,-36.83 1000.13,-24.91"/>
<polygon fill="#63b8ff" stroke="#63b8ff" points="894.02,-68.65 886.33,-75.94 896.88,-75.04 894.02,-68.65"/>
</g>
<!-- Node10 -->
<g id="node10" class="node">
<title>Node10</title>
<g id="a_node10"><a xlink:href="d__menu__ring_8cpp.html" target="_top" xlink:title=" ">
<polygon fill="white" stroke="#666666" points="142,-24.5 0,-24.5 0,-5.5 142,-5.5 142,-24.5"/>
<text text-anchor="middle" x="71" y="-12.5" font-family="Helvetica,sans-Serif" font-size="10.00">src/d/menu/d_menu_ring.cpp</text>
</a>
</g>
</g>
<!-- Node2&#45;&gt;Node10 -->
<g id="edge9" class="edge">
<title>Node2&#45;&gt;Node10</title>
<path fill="none" stroke="#63b8ff" d="M795.34,-82.3C667.34,-75.93 386.29,-59.66 151,-30 140.23,-28.64 128.7,-26.83 117.84,-24.97"/>
<polygon fill="#63b8ff" stroke="#63b8ff" points="794.83,-85.78 804.99,-82.78 795.17,-78.79 794.83,-85.78"/>
</g>
<!-- Node11 -->
<g id="node11" class="node">
<title>Node11</title>
<g id="a_node11"><a xlink:href="d__meter2__draw_8cpp.html" target="_top" xlink:title=" ">
<polygon fill="white" stroke="#666666" points="270,-30 160,-30 160,0 270,0 270,-30"/>
<text text-anchor="start" x="168" y="-18" font-family="Helvetica,sans-Serif" font-size="10.00">src/d/meter/d_meter2</text>
<text text-anchor="middle" x="215" y="-7" font-family="Helvetica,sans-Serif" font-size="10.00">_draw.cpp</text>
</a>
</g>
</g>
<!-- Node2&#45;&gt;Node11 -->
<g id="edge10" class="edge">
<title>Node2&#45;&gt;Node11</title>
<path fill="none" stroke="#63b8ff" d="M795.65,-81.66C685.62,-74.94 464.53,-58.97 279,-30 276.19,-29.56 273.32,-29.07 270.43,-28.55"/>
<polygon fill="#63b8ff" stroke="#63b8ff" points="795.2,-85.13 805.39,-82.24 795.62,-78.15 795.2,-85.13"/>
</g>
<!-- Node12 -->
<g id="node12" class="node">
<title>Node12</title>
<g id="a_node12"><a xlink:href="d__msg__flow_8cpp.html" target="_top" xlink:title=" ">
<polygon fill="white" stroke="#666666" points="1520.5,-24.5 1387.5,-24.5 1387.5,-5.5 1520.5,-5.5 1520.5,-24.5"/>
<text text-anchor="middle" x="1454" y="-12.5" font-family="Helvetica,sans-Serif" font-size="10.00">src/d/msg/d_msg_flow.cpp</text>
</a>
</g>
</g>
<!-- Node2&#45;&gt;Node12 -->
<g id="edge11" class="edge">
<title>Node2&#45;&gt;Node12</title>
<path fill="none" stroke="#63b8ff" d="M934.6,-76.58C962.12,-73.14 994.03,-69.26 1023,-66 1180.59,-48.29 1221,-52.38 1378,-30 1387.96,-28.58 1398.61,-26.79 1408.69,-24.97"/>
<polygon fill="#63b8ff" stroke="#63b8ff" points="934.48,-73.07 924.99,-77.79 935.35,-80.01 934.48,-73.07"/>
</g>
<!-- Node13 -->
<g id="node13" class="node">
<title>Node13</title>
<g id="a_node13"><a xlink:href="d__msg__scrn__howl_8cpp.html" target="_top" xlink:title=" ">
<polygon fill="white" stroke="#666666" points="404,-30 288,-30 288,0 404,0 404,-30"/>
<text text-anchor="start" x="296" y="-18" font-family="Helvetica,sans-Serif" font-size="10.00">src/d/msg/d_msg_scrn</text>
<text text-anchor="middle" x="346" y="-7" font-family="Helvetica,sans-Serif" font-size="10.00">_howl.cpp</text>
</a>
</g>
</g>
<!-- Node2&#45;&gt;Node13 -->
<g id="edge12" class="edge">
<title>Node2&#45;&gt;Node13</title>
<path fill="none" stroke="#63b8ff" d="M795.33,-78.78C706.33,-69.77 547.69,-52.3 413,-30 410.19,-29.53 407.31,-29.03 404.41,-28.51"/>
<polygon fill="#63b8ff" stroke="#63b8ff" points="794.82,-82.24 805.12,-79.76 795.52,-75.28 794.82,-82.24"/>
</g>
<!-- Node14 -->
<g id="node14" class="node">
<title>Node14</title>
<g id="a_node14"><a xlink:href="f__op__actor_8cpp.html" target="_top" xlink:title=" ">
<polygon fill="white" stroke="#666666" points="541.5,-24.5 422.5,-24.5 422.5,-5.5 541.5,-5.5 541.5,-24.5"/>
<text text-anchor="middle" x="482" y="-12.5" font-family="Helvetica,sans-Serif" font-size="10.00">src/f_op/f_op_actor.cpp</text>
</a>
</g>
</g>
<!-- Node2&#45;&gt;Node14 -->
<g id="edge13" class="edge">
<title>Node2&#45;&gt;Node14</title>
<path fill="none" stroke="#63b8ff" d="M800.83,-74.65C737.31,-63.79 637.32,-46.38 551,-30 542.71,-28.43 533.88,-26.69 525.4,-24.98"/>
<polygon fill="#63b8ff" stroke="#63b8ff" points="799.93,-78.04 810.38,-76.27 801.11,-71.14 799.93,-78.04"/>
</g>
<!-- Node15&#45;&gt;Node3 -->
<g id="edge23" class="edge">
<title>Node15&#45;&gt;Node3</title>
<path fill="none" stroke="#63b8ff" d="M1866.88,-153.34C1979.49,-146.56 2197.26,-130.56 2223,-107 2246.45,-85.53 2245.06,-43.22 2243.17,-24.85"/>
<polygon fill="#63b8ff" stroke="#63b8ff" points="1866.94,-149.83 1857.17,-153.92 1867.36,-156.82 1866.94,-149.83"/>
</g>
<!-- Node16 -->
<g id="node16" class="node">
<title>Node16</title>
<g id="a_node16"><a xlink:href="d__shop__system_8h.html" target="_top" xlink:title=" ">
<polygon fill="#fff0f0" stroke="red" points="1922,-101.5 1808,-101.5 1808,-71.5 1922,-71.5 1922,-101.5"/>
<text text-anchor="start" x="1816" y="-89.5" font-family="Helvetica,sans-Serif" font-size="10.00">include/d/shop/d_shop</text>
<text text-anchor="middle" x="1865" y="-78.5" font-family="Helvetica,sans-Serif" font-size="10.00">_system.h</text>
</a>
</g>
</g>
<!-- Node15&#45;&gt;Node16 -->
<g id="edge15" class="edge">
<title>Node15&#45;&gt;Node16</title>
<path fill="none" stroke="#63b8ff" d="M1815.82,-140.08C1826.8,-128.35 1841.26,-112.89 1851.65,-101.77"/>
<polygon fill="#63b8ff" stroke="#63b8ff" points="1813.54,-137.4 1809.27,-147.09 1818.65,-142.18 1813.54,-137.4"/>
</g>
<!-- Node18 -->
<g id="node17" class="node">
<title>Node18</title>
<g id="a_node17"><a xlink:href="d__a__npc__ash_8h.html" target="_top" xlink:title=" ">
<polygon fill="white" stroke="#666666" points="2214,-101.5 2068,-101.5 2068,-71.5 2214,-71.5 2214,-101.5"/>
<text text-anchor="start" x="2076" y="-89.5" font-family="Helvetica,sans-Serif" font-size="10.00">include/rel/d/a/npc</text>
<text text-anchor="middle" x="2141" y="-78.5" font-family="Helvetica,sans-Serif" font-size="10.00">/d_a_npc_ash/d_a_npc_ash.h</text>
</a>
</g>
</g>
<!-- Node15&#45;&gt;Node18 -->
<g id="edge17" class="edge">
<title>Node15&#45;&gt;Node18</title>
<path fill="none" stroke="#63b8ff" d="M1860.93,-146C1913.51,-136.32 1991.43,-121.55 2059,-107 2066.3,-105.43 2073.94,-103.71 2081.5,-101.96"/>
<polygon fill="#63b8ff" stroke="#63b8ff" points="1860.47,-142.52 1851.27,-147.77 1861.74,-149.41 1860.47,-142.52"/>
</g>
<!-- Node19 -->
<g id="node18" class="node">
<title>Node19</title>
<g id="a_node18"><a xlink:href="d__a__npc__gwolf_8h.html" target="_top" xlink:title=" ">
<polygon fill="white" stroke="#666666" points="1281.5,-107 1156.5,-107 1156.5,-66 1281.5,-66 1281.5,-107"/>
<text text-anchor="start" x="1164.5" y="-95" font-family="Helvetica,sans-Serif" font-size="10.00">include/rel/d/a/npc</text>
<text text-anchor="start" x="1164.5" y="-84" font-family="Helvetica,sans-Serif" font-size="10.00">/d_a_npc_gwolf/d_a_npc</text>
<text text-anchor="middle" x="1219" y="-73" font-family="Helvetica,sans-Serif" font-size="10.00">_gwolf.h</text>
</a>
</g>
</g>
<!-- Node15&#45;&gt;Node19 -->
<g id="edge18" class="edge">
<title>Node15&#45;&gt;Node19</title>
<path fill="none" stroke="#63b8ff" d="M1732.73,-153.96C1634.85,-148.74 1447.74,-135.72 1291,-107 1287.94,-106.44 1284.83,-105.81 1281.69,-105.14"/>
<polygon fill="#63b8ff" stroke="#63b8ff" points="1732.54,-157.46 1742.71,-154.48 1732.9,-150.47 1732.54,-157.46"/>
</g>
<!-- Node20 -->
<g id="node19" class="node">
<title>Node20</title>
<g id="a_node19"><a xlink:href="d__a__npc__wrestler_8h.html" target="_top" xlink:title=" ">
<polygon fill="white" stroke="#666666" points="1404,-107 1300,-107 1300,-66 1404,-66 1404,-107"/>
<text text-anchor="start" x="1308" y="-95" font-family="Helvetica,sans-Serif" font-size="10.00">include/rel/d/a/npc</text>
<text text-anchor="start" x="1308" y="-84" font-family="Helvetica,sans-Serif" font-size="10.00">/d_a_npc_wrestler/d</text>
<text text-anchor="middle" x="1352" y="-73" font-family="Helvetica,sans-Serif" font-size="10.00">_a_npc_wrestler.h</text>
</a>
</g>
</g>
<!-- Node15&#45;&gt;Node20 -->
<g id="edge19" class="edge">
<title>Node15&#45;&gt;Node20</title>
<path fill="none" stroke="#63b8ff" d="M1732.96,-152.04C1655.28,-145.45 1523.77,-131.65 1413,-107 1410.18,-106.37 1407.3,-105.67 1404.41,-104.92"/>
<polygon fill="#63b8ff" stroke="#63b8ff" points="1732.25,-155.5 1742.51,-152.84 1732.83,-148.52 1732.25,-155.5"/>
</g>
<!-- Node21 -->
<g id="node20" class="node">
<title>Node21</title>
<g id="a_node20"><a xlink:href="d__a__obj__sekizoa_8h.html" target="_top" xlink:title=" ">
<polygon fill="white" stroke="#666666" points="2050,-107 1940,-107 1940,-66 2050,-66 2050,-107"/>
<text text-anchor="start" x="1948" y="-95" font-family="Helvetica,sans-Serif" font-size="10.00">include/rel/d/a/obj</text>
<text text-anchor="start" x="1948" y="-84" font-family="Helvetica,sans-Serif" font-size="10.00">/d_a_obj_sekizoa/d_a</text>
<text text-anchor="middle" x="1995" y="-73" font-family="Helvetica,sans-Serif" font-size="10.00">_obj_sekizoa.h</text>
</a>
</g>
</g>
<!-- Node15&#45;&gt;Node21 -->
<g id="edge20" class="edge">
<title>Node15&#45;&gt;Node21</title>
<path fill="none" stroke="#63b8ff" d="M1835.58,-144.32C1864.66,-133.95 1906.28,-119.12 1939.7,-107.21"/>
<polygon fill="#63b8ff" stroke="#63b8ff" points="1834.76,-140.89 1826.52,-147.55 1837.11,-147.49 1834.76,-140.89"/>
</g>
<!-- Node22 -->
<g id="node21" class="node">
<title>Node22</title>
<g id="a_node21"><a xlink:href="d__a__tag__push_8h.html" target="_top" xlink:title=" ">
<polygon fill="white" stroke="#666666" points="1540,-107 1422,-107 1422,-66 1540,-66 1540,-107"/>
<text text-anchor="start" x="1430" y="-95" font-family="Helvetica,sans-Serif" font-size="10.00">include/rel/d/a/tag</text>
<text text-anchor="start" x="1430" y="-84" font-family="Helvetica,sans-Serif" font-size="10.00">/d_a_tag_push/d_a_tag</text>
<text text-anchor="middle" x="1481" y="-73" font-family="Helvetica,sans-Serif" font-size="10.00">_push.h</text>
</a>
</g>
</g>
<!-- Node15&#45;&gt;Node22 -->
<g id="edge22" class="edge">
<title>Node15&#45;&gt;Node22</title>
<path fill="none" stroke="#63b8ff" d="M1737.61,-146.05C1686.63,-136.76 1612.83,-122.48 1549,-107 1546.14,-106.31 1543.21,-105.57 1540.26,-104.81"/>
<polygon fill="#63b8ff" stroke="#63b8ff" points="1736.82,-149.47 1747.28,-147.81 1738.07,-142.58 1736.82,-149.47"/>
</g>
<!-- Node23 -->
<g id="node22" class="node">
<title>Node23</title>
<g id="a_node22"><a xlink:href="d__a__npc_8cpp.html" target="_top" xlink:title=" ">
<polygon fill="white" stroke="#666666" points="1662,-96 1558,-96 1558,-77 1662,-77 1662,-96"/>
<text text-anchor="middle" x="1610" y="-84" font-family="Helvetica,sans-Serif" font-size="10.00">src/d/a/d_a_npc.cpp</text>
</a>
</g>
</g>
<!-- Node15&#45;&gt;Node23 -->
<g id="edge24" class="edge">
<title>Node15&#45;&gt;Node23</title>
<path fill="none" stroke="#63b8ff" d="M1764.99,-144.19C1727.05,-130.32 1667.51,-108.54 1634.36,-96.41"/>
<polygon fill="#63b8ff" stroke="#63b8ff" points="1763.53,-147.39 1774.13,-147.54 1765.94,-140.81 1763.53,-147.39"/>
</g>
<!-- Node24 -->
<g id="node23" class="node">
<title>Node24</title>
<g id="a_node23"><a xlink:href="d__meter2__info_8cpp.html" target="_top" xlink:title=" ">
<polygon fill="white" stroke="#666666" points="1790,-101.5 1680,-101.5 1680,-71.5 1790,-71.5 1790,-101.5"/>
<text text-anchor="start" x="1688" y="-89.5" font-family="Helvetica,sans-Serif" font-size="10.00">src/d/meter/d_meter2</text>
<text text-anchor="middle" x="1735" y="-78.5" font-family="Helvetica,sans-Serif" font-size="10.00">_info.cpp</text>
</a>
</g>
</g>
<!-- Node15&#45;&gt;Node24 -->
<g id="edge25" class="edge">
<title>Node15&#45;&gt;Node24</title>
<path fill="none" stroke="#63b8ff" d="M1784.18,-140.08C1773.2,-128.35 1758.74,-112.89 1748.35,-101.77"/>
<polygon fill="#63b8ff" stroke="#63b8ff" points="1781.35,-142.18 1790.73,-147.09 1786.46,-137.4 1781.35,-142.18"/>
</g>
<!-- Node16&#45;&gt;Node12 -->
<g id="edge16" class="edge">
<title>Node16&#45;&gt;Node12</title>
<path fill="none" stroke="#63b8ff" d="M1808.03,-68.12C1804.98,-67.36 1801.96,-66.65 1799,-66 1703.37,-45.06 1590.86,-30.62 1520.97,-22.83"/>
<polygon fill="#63b8ff" stroke="#63b8ff" points="1807.04,-71.47 1817.6,-70.63 1808.81,-64.7 1807.04,-71.47"/>
</g>
<!-- Node21&#45;&gt;Node3 -->
<g id="edge21" class="edge">
<title>Node21&#45;&gt;Node3</title>
<path fill="none" stroke="#63b8ff" d="M2061.44,-65.33C2118.13,-49.06 2173.63,-34.11 2208.19,-24.92"/>
<polygon fill="#63b8ff" stroke="#63b8ff" points="2060.57,-61.94 2051.93,-68.07 2062.51,-68.67 2060.57,-61.94"/>
</g>
<!-- Node26 -->
<g id="node25" class="node">
<title>Node26</title>
<g id="a_node25"><a xlink:href="d__a__npc__cd_8cpp.html" target="_top" xlink:title=" ">
<polygon fill="white" stroke="#666666" points="2390,-96 2270,-96 2270,-77 2390,-77 2390,-96"/>
<text text-anchor="middle" x="2330" y="-84" font-family="Helvetica,sans-Serif" font-size="10.00">src/d/a/d_a_npc_cd.cpp</text>
</a>
</g>
</g>
<!-- Node25&#45;&gt;Node26 -->
<g id="edge27" class="edge">
<title>Node25&#45;&gt;Node26</title>
<path fill="none" stroke="#63b8ff" d="M2136.2,-144.81C2183,-130.97 2258.25,-108.72 2299.88,-96.41"/>
<polygon fill="#63b8ff" stroke="#63b8ff" points="2135.29,-141.43 2126.69,-147.63 2137.27,-148.15 2135.29,-141.43"/>
</g>
<!-- Node28 -->
<g id="node27" class="node">
<title>Node28</title>
<g id="a_node27"><a xlink:href="d__a__npc__cd2_8cpp.html" target="_top" xlink:title=" ">
<polygon fill="white" stroke="#666666" points="2533.5,-96 2408.5,-96 2408.5,-77 2533.5,-77 2533.5,-96"/>
<text text-anchor="middle" x="2471" y="-84" font-family="Helvetica,sans-Serif" font-size="10.00">src/d/a/d_a_npc_cd2.cpp</text>
</a>
</g>
</g>
<!-- Node27&#45;&gt;Node28 -->
<g id="edge29" class="edge">
<title>Node27&#45;&gt;Node28</title>
<path fill="none" stroke="#63b8ff" d="M2290.26,-139.41C2337.95,-125.71 2402.16,-107.27 2439.82,-96.46"/>
<polygon fill="#63b8ff" stroke="#63b8ff" points="2289.54,-135.97 2280.89,-142.1 2291.47,-142.7 2289.54,-135.97"/>
</g>
<!-- Node30 -->
<g id="node29" class="node">
<title>Node30</title>
<g id="a_node29"><a xlink:href="d__a__b__oh2_8h.html" target="_top" xlink:title=" ">
<polygon fill="white" stroke="#666666" points="2668,-101.5 2552,-101.5 2552,-71.5 2668,-71.5 2668,-101.5"/>
<text text-anchor="start" x="2560" y="-89.5" font-family="Helvetica,sans-Serif" font-size="10.00">include/rel/d/a/b/d</text>
<text text-anchor="middle" x="2610" y="-78.5" font-family="Helvetica,sans-Serif" font-size="10.00">_a_b_oh2/d_a_b_oh2.h</text>
</a>
</g>
</g>
<!-- Node29&#45;&gt;Node30 -->
<g id="edge31" class="edge">
<title>Node29&#45;&gt;Node30</title>
<path fill="none" stroke="#63b8ff" d="M2610,-131.26C2610,-121.33 2610,-110.36 2610,-101.88"/>
<polygon fill="#63b8ff" stroke="#63b8ff" points="2606.5,-131.09 2610,-141.09 2613.5,-131.09 2606.5,-131.09"/>
</g>
<!-- Node33&#45;&gt;Node3 -->
<g id="edge38" class="edge">
<title>Node33&#45;&gt;Node3</title>
<path fill="none" stroke="#63b8ff" d="M2883.32,-135.55C2872.99,-126.94 2861.21,-116.76 2851,-107 2833.05,-89.83 2835.31,-76.93 2813,-66 2723.07,-21.96 2421.65,-16.26 2296.84,-15.84"/>
<polygon fill="#63b8ff" stroke="#63b8ff" points="2880.85,-138.05 2890.79,-141.7 2885.3,-132.64 2880.85,-138.05"/>
</g>
<!-- Node34 -->
<g id="node33" class="node">
<title>Node34</title>
<g id="a_node33"><a xlink:href="d__a__e__wb_8h.html" target="_top" xlink:title=" ">
<polygon fill="#fff0f0" stroke="red" points="2970,-101.5 2860,-101.5 2860,-71.5 2970,-71.5 2970,-101.5"/>
<text text-anchor="start" x="2868" y="-89.5" font-family="Helvetica,sans-Serif" font-size="10.00">include/rel/d/a/e/d</text>
<text text-anchor="middle" x="2915" y="-78.5" font-family="Helvetica,sans-Serif" font-size="10.00">_a_e_wb/d_a_e_wb.h</text>
</a>
</g>
</g>
<!-- Node33&#45;&gt;Node34 -->
<g id="edge35" class="edge">
<title>Node33&#45;&gt;Node34</title>
<path fill="none" stroke="#63b8ff" d="M2911.85,-131.26C2912.57,-121.33 2913.36,-110.36 2913.97,-101.88"/>
<polygon fill="#63b8ff" stroke="#63b8ff" points="2908.37,-130.86 2911.14,-141.09 2915.35,-131.37 2908.37,-130.86"/>
</g>
<!-- Node36 -->
<g id="node34" class="node">
<title>Node36</title>
<g id="a_node34"><a xlink:href="d__a__tag__hinit_8h.html" target="_top" xlink:title=" ">
<polygon fill="white" stroke="#666666" points="3223.5,-107 3108.5,-107 3108.5,-66 3223.5,-66 3223.5,-107"/>
<text text-anchor="start" x="3116.5" y="-95" font-family="Helvetica,sans-Serif" font-size="10.00">include/rel/d/a/tag</text>
<text text-anchor="start" x="3116.5" y="-84" font-family="Helvetica,sans-Serif" font-size="10.00">/d_a_tag_hinit/d_a_tag</text>
<text text-anchor="middle" x="3166" y="-73" font-family="Helvetica,sans-Serif" font-size="10.00">_hinit.h</text>
</a>
</g>
</g>
<!-- Node33&#45;&gt;Node36 -->
<g id="edge37" class="edge">
<title>Node33&#45;&gt;Node36</title>
<path fill="none" stroke="#63b8ff" d="M2971.74,-141.08C3008.71,-131.44 3056.62,-118.77 3099,-107 3102.03,-106.16 3105.14,-105.28 3108.28,-104.4"/>
<polygon fill="#63b8ff" stroke="#63b8ff" points="2970.89,-137.68 2962.09,-143.59 2972.65,-144.45 2970.89,-137.68"/>
</g>
<!-- Node37 -->
<g id="node35" class="node">
<title>Node37</title>
<g id="a_node35"><a xlink:href="d__a__no__chg__room_8cpp.html" target="_top" xlink:title=" ">
<polygon fill="white" stroke="#666666" points="3090,-101.5 2988,-101.5 2988,-71.5 3090,-71.5 3090,-101.5"/>
<text text-anchor="start" x="2996" y="-89.5" font-family="Helvetica,sans-Serif" font-size="10.00">src/d/a/d_a_no_chg</text>
<text text-anchor="middle" x="3039" y="-78.5" font-family="Helvetica,sans-Serif" font-size="10.00">_room.cpp</text>
</a>
</g>
</g>
<!-- Node33&#45;&gt;Node37 -->
<g id="edge39" class="edge">
<title>Node33&#45;&gt;Node37</title>
<path fill="none" stroke="#63b8ff" d="M2946.85,-137.15C2967.73,-125.9 2993.37,-112.08 3012.31,-101.88"/>
<polygon fill="#63b8ff" stroke="#63b8ff" points="2945.2,-134.06 2938.06,-141.88 2948.53,-140.22 2945.2,-134.06"/>
</g>
<!-- Node34&#45;&gt;Node3 -->
<g id="edge36" class="edge">
<title>Node34&#45;&gt;Node3</title>
<path fill="none" stroke="#63b8ff" d="M2857.57,-68.38C2853.67,-67.49 2849.79,-66.69 2846,-66 2645.65,-29.75 2403.1,-19.73 2296.6,-17"/>
<polygon fill="#63b8ff" stroke="#63b8ff" points="2856.5,-71.72 2867.05,-70.69 2858.16,-64.92 2856.5,-71.72"/>
</g>
<!-- Node42&#45;&gt;Node3 -->
<g id="edge42" class="edge">
<title>Node42&#45;&gt;Node3</title>
<path fill="none" stroke="#63b8ff" d="M2687.32,-68.26C2683.84,-67.44 2680.38,-66.67 2677,-66 2541.69,-39.01 2379.59,-25.16 2296.7,-19.38"/>
<polygon fill="#63b8ff" stroke="#63b8ff" points="2686.41,-71.64 2696.96,-70.68 2688.11,-64.85 2686.41,-71.64"/>
</g>
<!-- Node43&#45;&gt;Node3 -->
<g id="edge44" class="edge">
<title>Node43&#45;&gt;Node3</title>
<path fill="none" stroke="#63b8ff" d="M1136.68,-68.16C1140.15,-67.33 1143.61,-66.6 1147,-66 1350.2,-30.04 1994.99,-19.12 2187.33,-16.63"/>
<polygon fill="#63b8ff" stroke="#63b8ff" points="1135.89,-64.75 1127.11,-70.69 1137.67,-71.52 1135.89,-64.75"/>
</g>
<!-- Node43&#45;&gt;Node4 -->
<g id="edge45" class="edge">
<title>Node43&#45;&gt;Node4</title>
<path fill="none" stroke="#63b8ff" d="M1141.48,-67.71C1143.34,-67.13 1145.18,-66.56 1147,-66 1194.19,-51.43 1249.09,-34.87 1282.16,-24.94"/>
<polygon fill="#63b8ff" stroke="#63b8ff" points="1140.64,-64.3 1132.14,-70.62 1142.73,-70.99 1140.64,-64.3"/>
</g>
<!-- Node43&#45;&gt;Node8 -->
<g id="edge46" class="edge">
<title>Node43&#45;&gt;Node8</title>
<path fill="none" stroke="#63b8ff" d="M1112.96,-64.14C1130.23,-50.95 1151.49,-34.72 1164.38,-24.88"/>
<polygon fill="#63b8ff" stroke="#63b8ff" points="1110.88,-61.33 1105.06,-70.18 1115.13,-66.89 1110.88,-61.33"/>
</g>
<!-- Node43&#45;&gt;Node12 -->
<g id="edge47" class="edge">
<title>Node43&#45;&gt;Node12</title>
<path fill="none" stroke="#63b8ff" d="M1139.1,-67.97C1141.76,-67.27 1144.4,-66.61 1147,-66 1248.18,-42.35 1275.56,-47.41 1378,-30 1387.26,-28.43 1397.14,-26.67 1406.6,-24.94"/>
<polygon fill="#63b8ff" stroke="#63b8ff" points="1138.28,-64.56 1129.59,-70.62 1140.16,-71.3 1138.28,-64.56"/>
</g>
</g>
</svg>
