<?xml version="1.0" encoding="UTF-8" standalone="no"?>
<!DOCTYPE svg PUBLIC "-//W3C//DTD SVG 1.1//EN"
 "http://www.w3.org/Graphics/SVG/1.1/DTD/svg11.dtd">
<!-- Generated by graphviz version 7.0.5 (20221223.1930)
 -->
<!-- Title: include/Z2AudioLib/Z2EnvSeMgr.h Pages: 1 -->
<svg width="865pt" height="533pt"
 viewBox="0.00 0.00 865.19 533.00" xmlns="http://www.w3.org/2000/svg" xmlns:xlink="http://www.w3.org/1999/xlink">
<g id="graph0" class="graph" transform="scale(1 1) rotate(0) translate(4 529)">
<title>include/Z2AudioLib/Z2EnvSeMgr.h</title>
<!-- Node1 -->
<g id="node1" class="node">
<title>Node1</title>
<g id="a_node1"><a xlink:title=" ">
<polygon fill="#999999" stroke="#666666" points="628,-525 528,-525 528,-495 628,-495 628,-525"/>
<text text-anchor="start" x="536" y="-513" font-family="Helvetica,sans-Serif" font-size="10.00">include/Z2AudioLib</text>
<text text-anchor="middle" x="578" y="-502" font-family="Helvetica,sans-Serif" font-size="10.00">/Z2EnvSeMgr.h</text>
</a>
</g>
</g>
<!-- Node2 -->
<g id="node2" class="node">
<title>Node2</title>
<g id="a_node2"><a xlink:href="Z2Calc_8h.html" target="_top" xlink:title=" ">
<polygon fill="white" stroke="#666666" points="814.5,-398.5 707.5,-398.5 707.5,-379.5 814.5,-379.5 814.5,-398.5"/>
<text text-anchor="middle" x="761" y="-386.5" font-family="Helvetica,sans-Serif" font-size="10.00">Z2AudioLib/Z2Calc.h</text>
</a>
</g>
</g>
<!-- Node1&#45;&gt;Node2 -->
<g id="edge1" class="edge">
<title>Node1&#45;&gt;Node2</title>
<path fill="none" stroke="#63b8ff" d="M600.07,-494.65C634.86,-472.03 702.11,-428.3 737.66,-405.18"/>
<polygon fill="#63b8ff" stroke="#63b8ff" points="739.46,-408.18 745.93,-399.8 735.64,-402.32 739.46,-408.18"/>
</g>
<!-- Node5 -->
<g id="node5" class="node">
<title>Node5</title>
<g id="a_node5"><a xlink:href="Z2SeMgr_8h.html" target="_top" xlink:title=" ">
<polygon fill="white" stroke="#666666" points="517,-459 401,-459 401,-440 517,-440 517,-459"/>
<text text-anchor="middle" x="459" y="-447" font-family="Helvetica,sans-Serif" font-size="10.00">Z2AudioLib/Z2SeMgr.h</text>
</a>
</g>
</g>
<!-- Node1&#45;&gt;Node5 -->
<g id="edge4" class="edge">
<title>Node1&#45;&gt;Node5</title>
<path fill="none" stroke="#63b8ff" d="M548.58,-494.54C529.83,-485.32 505.66,-473.44 487.15,-464.34"/>
<polygon fill="#63b8ff" stroke="#63b8ff" points="488.87,-461.28 478.35,-460.01 485.78,-467.57 488.87,-461.28"/>
</g>
<!-- Node17 -->
<g id="node17" class="node">
<title>Node17</title>
<g id="a_node17"><a xlink:href="global_8h.html" target="_top" xlink:title=" ">
<polygon fill="white" stroke="#666666" points="603,-277.5 553,-277.5 553,-258.5 603,-258.5 603,-277.5"/>
<text text-anchor="middle" x="578" y="-265.5" font-family="Helvetica,sans-Serif" font-size="10.00">global.h</text>
</a>
</g>
</g>
<!-- Node1&#45;&gt;Node17 -->
<g id="edge32" class="edge">
<title>Node1&#45;&gt;Node17</title>
<path fill="none" stroke="#63b8ff" d="M578,-494.71C578,-453.75 578,-335.91 578,-288.8"/>
<polygon fill="#63b8ff" stroke="#63b8ff" points="581.5,-289.03 578,-279.03 574.5,-289.03 581.5,-289.03"/>
</g>
<!-- Node3 -->
<g id="node3" class="node">
<title>Node3</title>
<g id="a_node3"><a xlink:href="types_8h.html" target="_top" xlink:title=" ">
<polygon fill="white" stroke="#666666" points="551.5,-90.5 470.5,-90.5 470.5,-71.5 551.5,-71.5 551.5,-90.5"/>
<text text-anchor="middle" x="511" y="-78.5" font-family="Helvetica,sans-Serif" font-size="10.00">dolphin/types.h</text>
</a>
</g>
</g>
<!-- Node2&#45;&gt;Node3 -->
<g id="edge2" class="edge">
<title>Node2&#45;&gt;Node3</title>
<path fill="none" stroke="#63b8ff" d="M775.43,-379.2C802,-361.75 856,-320.02 856,-269 856,-269 856,-269 856,-201 856,-169.19 860.76,-153.14 837,-132 816.86,-114.08 649.98,-95.47 563.12,-86.88"/>
<polygon fill="#63b8ff" stroke="#63b8ff" points="563.72,-83.42 553.43,-85.93 563.04,-90.39 563.72,-83.42"/>
</g>
<!-- Node4 -->
<g id="node4" class="node">
<title>Node4</title>
<g id="a_node4"><a xlink:href="stddef_8h.html" target="_top" xlink:title=" ">
<polygon fill="white" stroke="#666666" points="444,-30 308,-30 308,0 444,0 444,-30"/>
<text text-anchor="start" x="316" y="-18" font-family="Helvetica,sans-Serif" font-size="10.00">MSL_C/MSL_Common/Src</text>
<text text-anchor="middle" x="376" y="-7" font-family="Helvetica,sans-Serif" font-size="10.00">/stddef.h</text>
</a>
</g>
</g>
<!-- Node3&#45;&gt;Node4 -->
<g id="edge3" class="edge">
<title>Node3&#45;&gt;Node4</title>
<path fill="none" stroke="#63b8ff" d="M492.23,-71.1C472.83,-61.9 441.93,-47.26 416.87,-35.38"/>
<polygon fill="#63b8ff" stroke="#63b8ff" points="418.44,-32.25 407.91,-31.13 415.44,-38.57 418.44,-32.25"/>
</g>
<!-- Node6 -->
<g id="node6" class="node">
<title>Node6</title>
<g id="a_node6"><a xlink:href="JAISoundHandles_8h.html" target="_top" xlink:title=" ">
<polygon fill="white" stroke="#666666" points="495.5,-404 356.5,-404 356.5,-374 495.5,-374 495.5,-404"/>
<text text-anchor="start" x="364.5" y="-392" font-family="Helvetica,sans-Serif" font-size="10.00">JSystem/JAudio2/JAISound</text>
<text text-anchor="middle" x="426" y="-381" font-family="Helvetica,sans-Serif" font-size="10.00">Handles.h</text>
</a>
</g>
</g>
<!-- Node5&#45;&gt;Node6 -->
<g id="edge5" class="edge">
<title>Node5&#45;&gt;Node6</title>
<path fill="none" stroke="#63b8ff" d="M454.13,-439.87C450.27,-433.03 444.7,-423.14 439.52,-413.97"/>
<polygon fill="#63b8ff" stroke="#63b8ff" points="442.67,-412.42 434.71,-405.43 436.57,-415.86 442.67,-412.42"/>
</g>
<!-- Node12 -->
<g id="node12" class="node">
<title>Node12</title>
<g id="a_node12"><a xlink:href="vec_8h.html" target="_top" xlink:title=" ">
<polygon fill="white" stroke="#666666" points="632,-151 540,-151 540,-132 632,-132 632,-151"/>
<text text-anchor="middle" x="586" y="-139" font-family="Helvetica,sans-Serif" font-size="10.00">dolphin/mtx/vec.h</text>
</a>
</g>
</g>
<!-- Node5&#45;&gt;Node12 -->
<g id="edge31" class="edge">
<title>Node5&#45;&gt;Node12</title>
<path fill="none" stroke="#63b8ff" d="M471.1,-439.59C481.33,-431.43 495.63,-418.45 504,-404 538.8,-343.92 522.75,-319.09 544,-253 554.44,-220.52 569.03,-183.64 577.98,-161.76"/>
<polygon fill="#63b8ff" stroke="#63b8ff" points="581.15,-163.25 581.73,-152.67 574.68,-160.58 581.15,-163.25"/>
</g>
<!-- Node19 -->
<g id="node19" class="node">
<title>Node19</title>
<g id="a_node19"><a xlink:href="JASGadget_8h.html" target="_top" xlink:title=" ">
<polygon fill="white" stroke="#666666" points="297,-211.5 143,-211.5 143,-192.5 297,-192.5 297,-211.5"/>
<text text-anchor="middle" x="220" y="-199.5" font-family="Helvetica,sans-Serif" font-size="10.00">JSystem/JAudio2/JASGadget.h</text>
</a>
</g>
</g>
<!-- Node5&#45;&gt;Node19 -->
<g id="edge23" class="edge">
<title>Node5&#45;&gt;Node19</title>
<path fill="none" stroke="#63b8ff" d="M420.05,-439.55C396.92,-432.75 368.09,-421.5 347,-404 284.67,-352.27 243.27,-261.74 227.34,-222.29"/>
<polygon fill="#63b8ff" stroke="#63b8ff" points="230.61,-221.03 223.7,-213 224.09,-223.59 230.61,-221.03"/>
</g>
<!-- Node7 -->
<g id="node7" class="node">
<title>Node7</title>
<g id="a_node7"><a xlink:href="JAISound_8h.html" target="_top" xlink:title=" ">
<polygon fill="white" stroke="#666666" points="499,-338 353,-338 353,-319 499,-319 499,-338"/>
<text text-anchor="middle" x="426" y="-326" font-family="Helvetica,sans-Serif" font-size="10.00">JSystem/JAudio2/JAISound.h</text>
</a>
</g>
</g>
<!-- Node6&#45;&gt;Node7 -->
<g id="edge6" class="edge">
<title>Node6&#45;&gt;Node7</title>
<path fill="none" stroke="#63b8ff" d="M426,-373.54C426,-366.34 426,-357.53 426,-349.68"/>
<polygon fill="#63b8ff" stroke="#63b8ff" points="429.5,-349.69 426,-339.69 422.5,-349.69 429.5,-349.69"/>
</g>
<!-- Node18 -->
<g id="node18" class="node">
<title>Node18</title>
<g id="a_node18"><a xlink:href="JUTAssert_8h.html" target="_top" xlink:title=" ">
<polygon fill="white" stroke="#666666" points="426,-151 280,-151 280,-132 426,-132 426,-151"/>
<text text-anchor="middle" x="353" y="-139" font-family="Helvetica,sans-Serif" font-size="10.00">JSystem/JUtility/JUTAssert.h</text>
</a>
</g>
</g>
<!-- Node6&#45;&gt;Node18 -->
<g id="edge21" class="edge">
<title>Node6&#45;&gt;Node18</title>
<path fill="none" stroke="#63b8ff" d="M385.6,-373.58C369.68,-365.68 353.06,-354.14 344,-338 312.02,-281.04 333.15,-199.36 345.66,-162.23"/>
<polygon fill="#63b8ff" stroke="#63b8ff" points="348.93,-163.46 348.97,-152.87 342.33,-161.12 348.93,-163.46"/>
</g>
<!-- Node8 -->
<g id="node8" class="node">
<title>Node8</title>
<g id="a_node8"><a xlink:href="JAISoundParams_8h.html" target="_top" xlink:title=" ">
<polygon fill="white" stroke="#666666" points="494.5,-283 355.5,-283 355.5,-253 494.5,-253 494.5,-283"/>
<text text-anchor="start" x="363.5" y="-271" font-family="Helvetica,sans-Serif" font-size="10.00">JSystem/JAudio2/JAISound</text>
<text text-anchor="middle" x="425" y="-260" font-family="Helvetica,sans-Serif" font-size="10.00">Params.h</text>
</a>
</g>
</g>
<!-- Node7&#45;&gt;Node8 -->
<g id="edge7" class="edge">
<title>Node7&#45;&gt;Node8</title>
<path fill="none" stroke="#63b8ff" d="M425.85,-318.87C425.74,-312.4 425.58,-303.2 425.44,-294.45"/>
<polygon fill="#63b8ff" stroke="#63b8ff" points="428.94,-294.57 425.27,-284.63 421.94,-294.69 428.94,-294.57"/>
</g>
<!-- Node10 -->
<g id="node10" class="node">
<title>Node10</title>
<g id="a_node10"><a xlink:href="JAIAudible_8h.html" target="_top" xlink:title=" ">
<polygon fill="white" stroke="#666666" points="772.5,-277.5 621.5,-277.5 621.5,-258.5 772.5,-258.5 772.5,-277.5"/>
<text text-anchor="middle" x="697" y="-265.5" font-family="Helvetica,sans-Serif" font-size="10.00">JSystem/JAudio2/JAIAudible.h</text>
</a>
</g>
</g>
<!-- Node7&#45;&gt;Node10 -->
<g id="edge10" class="edge">
<title>Node7&#45;&gt;Node10</title>
<path fill="none" stroke="#63b8ff" d="M467.45,-318.55C514.97,-308.29 592.94,-291.46 644.62,-280.31"/>
<polygon fill="#63b8ff" stroke="#63b8ff" points="645.03,-283.8 654.07,-278.27 643.56,-276.96 645.03,-283.8"/>
</g>
<!-- Node7&#45;&gt;Node17 -->
<g id="edge19" class="edge">
<title>Node7&#45;&gt;Node17</title>
<path fill="none" stroke="#63b8ff" d="M449.09,-318.62C474.42,-308.87 515.32,-293.12 544.25,-281.99"/>
<polygon fill="#63b8ff" stroke="#63b8ff" points="545.21,-285.37 553.28,-278.51 542.69,-278.84 545.21,-285.37"/>
</g>
<!-- Node9 -->
<g id="node9" class="node">
<title>Node9</title>
<g id="a_node9"><a xlink:href="JASSoundParams_8h.html" target="_top" xlink:title=" ">
<polygon fill="white" stroke="#666666" points="496.5,-217 353.5,-217 353.5,-187 496.5,-187 496.5,-217"/>
<text text-anchor="start" x="361.5" y="-205" font-family="Helvetica,sans-Serif" font-size="10.00">JSystem/JAudio2/JASSound</text>
<text text-anchor="middle" x="425" y="-194" font-family="Helvetica,sans-Serif" font-size="10.00">Params.h</text>
</a>
</g>
</g>
<!-- Node8&#45;&gt;Node9 -->
<g id="edge8" class="edge">
<title>Node8&#45;&gt;Node9</title>
<path fill="none" stroke="#63b8ff" d="M425,-252.8C425,-245.67 425,-236.82 425,-228.56"/>
<polygon fill="#63b8ff" stroke="#63b8ff" points="428.5,-228.68 425,-218.68 421.5,-228.68 428.5,-228.68"/>
</g>
<!-- Node9&#45;&gt;Node3 -->
<g id="edge9" class="edge">
<title>Node9&#45;&gt;Node3</title>
<path fill="none" stroke="#63b8ff" d="M435.2,-186.88C450.86,-165.22 480.8,-123.78 498,-99.99"/>
<polygon fill="#63b8ff" stroke="#63b8ff" points="500.8,-102.09 503.82,-91.94 495.12,-97.99 500.8,-102.09"/>
</g>
<!-- Node11 -->
<g id="node11" class="node">
<title>Node11</title>
<g id="a_node11"><a xlink:href="JGeometry_8h.html" target="_top" xlink:title=" ">
<polygon fill="white" stroke="#666666" points="749.5,-211.5 636.5,-211.5 636.5,-192.5 749.5,-192.5 749.5,-211.5"/>
<text text-anchor="middle" x="693" y="-199.5" font-family="Helvetica,sans-Serif" font-size="10.00">JSystem/JGeometry.h</text>
</a>
</g>
</g>
<!-- Node10&#45;&gt;Node11 -->
<g id="edge11" class="edge">
<title>Node10&#45;&gt;Node11</title>
<path fill="none" stroke="#63b8ff" d="M696.44,-258.1C695.88,-249.12 695,-234.95 694.26,-223.22"/>
<polygon fill="#63b8ff" stroke="#63b8ff" points="697.76,-223.1 693.65,-213.33 690.78,-223.53 697.76,-223.1"/>
</g>
<!-- Node11&#45;&gt;Node12 -->
<g id="edge12" class="edge">
<title>Node11&#45;&gt;Node12</title>
<path fill="none" stroke="#63b8ff" d="M676.75,-192.12C659.7,-182.79 632.64,-168 612.49,-156.99"/>
<polygon fill="#63b8ff" stroke="#63b8ff" points="614.19,-153.92 603.73,-152.19 610.83,-160.06 614.19,-153.92"/>
</g>
<!-- Node13 -->
<g id="node13" class="node">
<title>Node13</title>
<g id="a_node13"><a xlink:href="float_8h.html" target="_top" xlink:title=" ">
<polygon fill="white" stroke="#666666" points="828,-151 750,-151 750,-132 828,-132 828,-151"/>
<text text-anchor="middle" x="789" y="-139" font-family="Helvetica,sans-Serif" font-size="10.00">MSL_C/float.h</text>
</a>
</g>
</g>
<!-- Node11&#45;&gt;Node13 -->
<g id="edge14" class="edge">
<title>Node11&#45;&gt;Node13</title>
<path fill="none" stroke="#63b8ff" d="M707.58,-192.12C722.66,-182.92 746.49,-168.41 764.48,-157.44"/>
<polygon fill="#63b8ff" stroke="#63b8ff" points="766.27,-160.45 772.99,-152.26 762.63,-154.47 766.27,-160.45"/>
</g>
<!-- Node16 -->
<g id="node16" class="node">
<title>Node16</title>
<g id="a_node16"><a xlink:href="math_8h.html" target="_top" xlink:title=" ">
<polygon fill="white" stroke="#666666" points="732,-151 650,-151 650,-132 732,-132 732,-151"/>
<text text-anchor="middle" x="691" y="-139" font-family="Helvetica,sans-Serif" font-size="10.00">MSL_C/math.h</text>
</a>
</g>
</g>
<!-- Node11&#45;&gt;Node16 -->
<g id="edge17" class="edge">
<title>Node11&#45;&gt;Node16</title>
<path fill="none" stroke="#63b8ff" d="M692.7,-192.37C692.44,-184.5 692.03,-172.6 691.68,-162.39"/>
<polygon fill="#63b8ff" stroke="#63b8ff" points="695.19,-162.55 691.35,-152.68 688.19,-162.79 695.19,-162.55"/>
</g>
<!-- Node12&#45;&gt;Node3 -->
<g id="edge13" class="edge">
<title>Node12&#45;&gt;Node3</title>
<path fill="none" stroke="#63b8ff" d="M574.61,-131.62C563.16,-122.68 545.25,-108.72 531.35,-97.87"/>
<polygon fill="#63b8ff" stroke="#63b8ff" points="533.73,-95.29 523.69,-91.9 529.42,-100.81 533.73,-95.29"/>
</g>
<!-- Node14 -->
<g id="node14" class="node">
<title>Node14</title>
<g id="a_node14"><a xlink:href="MSL__Common_2Src_2float_8h.html" target="_top" xlink:title=" ">
<polygon fill="white" stroke="#666666" points="808,-96 672,-96 672,-66 808,-66 808,-96"/>
<text text-anchor="start" x="680" y="-84" font-family="Helvetica,sans-Serif" font-size="10.00">MSL_C/MSL_Common/Src</text>
<text text-anchor="middle" x="740" y="-73" font-family="Helvetica,sans-Serif" font-size="10.00">/float.h</text>
</a>
</g>
</g>
<!-- Node13&#45;&gt;Node14 -->
<g id="edge15" class="edge">
<title>Node13&#45;&gt;Node14</title>
<path fill="none" stroke="#63b8ff" d="M781.77,-131.87C775.8,-124.74 767.04,-114.28 759.09,-104.79"/>
<polygon fill="#63b8ff" stroke="#63b8ff" points="761.9,-102.69 752.79,-97.27 756.53,-107.19 761.9,-102.69"/>
</g>
<!-- Node15 -->
<g id="node15" class="node">
<title>Node15</title>
<g id="a_node15"><a xlink:href="fdlibm_8h.html" target="_top" xlink:title=" ">
<polygon fill="white" stroke="#666666" points="765,-24.5 715,-24.5 715,-5.5 765,-5.5 765,-24.5"/>
<text text-anchor="middle" x="740" y="-12.5" font-family="Helvetica,sans-Serif" font-size="10.00">fdlibm.h</text>
</a>
</g>
</g>
<!-- Node14&#45;&gt;Node15 -->
<g id="edge16" class="edge">
<title>Node14&#45;&gt;Node15</title>
<path fill="none" stroke="#63b8ff" d="M740,-65.8C740,-57.09 740,-45.81 740,-36.18"/>
<polygon fill="#63b8ff" stroke="#63b8ff" points="743.5,-36.36 740,-26.36 736.5,-36.36 743.5,-36.36"/>
</g>
<!-- Node16&#45;&gt;Node14 -->
<g id="edge18" class="edge">
<title>Node16&#45;&gt;Node14</title>
<path fill="none" stroke="#63b8ff" d="M698.23,-131.87C704.2,-124.74 712.96,-114.28 720.91,-104.79"/>
<polygon fill="#63b8ff" stroke="#63b8ff" points="723.47,-107.19 727.21,-97.27 718.1,-102.69 723.47,-107.19"/>
</g>
<!-- Node17&#45;&gt;Node3 -->
<g id="edge20" class="edge">
<title>Node17&#45;&gt;Node3</title>
<path fill="none" stroke="#63b8ff" d="M574.02,-258.1C565.5,-238.81 545.09,-191.65 531,-151 525.31,-134.58 519.89,-115.59 516.13,-101.7"/>
<polygon fill="#63b8ff" stroke="#63b8ff" points="519.52,-100.82 513.57,-92.05 512.75,-102.61 519.52,-100.82"/>
</g>
<!-- Node18&#45;&gt;Node3 -->
<g id="edge22" class="edge">
<title>Node18&#45;&gt;Node3</title>
<path fill="none" stroke="#63b8ff" d="M377,-131.62C403.45,-121.82 446.22,-105.98 476.32,-94.84"/>
<polygon fill="#63b8ff" stroke="#63b8ff" points="477.2,-98.25 485.36,-91.49 474.76,-91.68 477.2,-98.25"/>
</g>
<!-- Node19&#45;&gt;Node18 -->
<g id="edge24" class="edge">
<title>Node19&#45;&gt;Node18</title>
<path fill="none" stroke="#63b8ff" d="M240.2,-192.12C261.98,-182.54 296.9,-167.18 322.12,-156.08"/>
<polygon fill="#63b8ff" stroke="#63b8ff" points="323.48,-159.31 331.22,-152.08 320.66,-152.9 323.48,-159.31"/>
</g>
<!-- Node20 -->
<g id="node20" class="node">
<title>Node20</title>
<g id="a_node20"><a xlink:href="string_8h.html" target="_top" xlink:title=" ">
<polygon fill="white" stroke="#666666" points="262,-151 178,-151 178,-132 262,-132 262,-151"/>
<text text-anchor="middle" x="220" y="-139" font-family="Helvetica,sans-Serif" font-size="10.00">MSL_C/string.h</text>
</a>
</g>
</g>
<!-- Node19&#45;&gt;Node20 -->
<g id="edge25" class="edge">
<title>Node19&#45;&gt;Node20</title>
<path fill="none" stroke="#63b8ff" d="M220,-192.37C220,-184.5 220,-172.6 220,-162.39"/>
<polygon fill="#63b8ff" stroke="#63b8ff" points="223.5,-162.68 220,-152.68 216.5,-162.68 223.5,-162.68"/>
</g>
<!-- Node21 -->
<g id="node21" class="node">
<title>Node21</title>
<g id="a_node21"><a xlink:href="extras_8h.html" target="_top" xlink:title=" ">
<polygon fill="white" stroke="#666666" points="136,-96 0,-96 0,-66 136,-66 136,-96"/>
<text text-anchor="start" x="8" y="-84" font-family="Helvetica,sans-Serif" font-size="10.00">MSL_C/MSL_Common/Src</text>
<text text-anchor="middle" x="68" y="-73" font-family="Helvetica,sans-Serif" font-size="10.00">/extras.h</text>
</a>
</g>
</g>
<!-- Node20&#45;&gt;Node21 -->
<g id="edge26" class="edge">
<title>Node20&#45;&gt;Node21</title>
<path fill="none" stroke="#63b8ff" d="M196.91,-131.62C175.51,-123.38 142.98,-110.86 115.95,-100.45"/>
<polygon fill="#63b8ff" stroke="#63b8ff" points="117.52,-97.31 106.93,-96.98 115.01,-103.84 117.52,-97.31"/>
</g>
<!-- Node22 -->
<g id="node22" class="node">
<title>Node22</title>
<g id="a_node22"><a xlink:href="mem_8h.html" target="_top" xlink:title=" ">
<polygon fill="white" stroke="#666666" points="444,-96 308,-96 308,-66 444,-66 444,-96"/>
<text text-anchor="start" x="316" y="-84" font-family="Helvetica,sans-Serif" font-size="10.00">MSL_C/MSL_Common/Src</text>
<text text-anchor="middle" x="376" y="-73" font-family="Helvetica,sans-Serif" font-size="10.00">/mem.h</text>
</a>
</g>
</g>
<!-- Node20&#45;&gt;Node22 -->
<g id="edge27" class="edge">
<title>Node20&#45;&gt;Node22</title>
<path fill="none" stroke="#63b8ff" d="M243.69,-131.62C265.67,-123.38 299.05,-110.86 326.79,-100.45"/>
<polygon fill="#63b8ff" stroke="#63b8ff" points="327.94,-103.76 336.08,-96.97 325.49,-97.21 327.94,-103.76"/>
</g>
<!-- Node23 -->
<g id="node23" class="node">
<title>Node23</title>
<g id="a_node23"><a xlink:href="MSL__Common_2Src_2string_8h.html" target="_top" xlink:title=" ">
<polygon fill="white" stroke="#666666" points="290,-96 154,-96 154,-66 290,-66 290,-96"/>
<text text-anchor="start" x="162" y="-84" font-family="Helvetica,sans-Serif" font-size="10.00">MSL_C/MSL_Common/Src</text>
<text text-anchor="middle" x="222" y="-73" font-family="Helvetica,sans-Serif" font-size="10.00">/string.h</text>
</a>
</g>
</g>
<!-- Node20&#45;&gt;Node23 -->
<g id="edge29" class="edge">
<title>Node20&#45;&gt;Node23</title>
<path fill="none" stroke="#63b8ff" d="M220.3,-131.87C220.52,-125.4 220.83,-116.2 221.13,-107.45"/>
<polygon fill="#63b8ff" stroke="#63b8ff" points="224.62,-107.74 221.47,-97.63 217.63,-107.5 224.62,-107.74"/>
</g>
<!-- Node22&#45;&gt;Node4 -->
<g id="edge28" class="edge">
<title>Node22&#45;&gt;Node4</title>
<path fill="none" stroke="#63b8ff" d="M376,-65.8C376,-58.67 376,-49.82 376,-41.56"/>
<polygon fill="#63b8ff" stroke="#63b8ff" points="379.5,-41.68 376,-31.68 372.5,-41.68 379.5,-41.68"/>
</g>
<!-- Node23&#45;&gt;Node4 -->
<g id="edge30" class="edge">
<title>Node23&#45;&gt;Node4</title>
<path fill="none" stroke="#63b8ff" d="M256.56,-65.64C278.48,-56.53 307.07,-44.65 330.78,-34.79"/>
<polygon fill="#63b8ff" stroke="#63b8ff" points="332,-38.08 339.89,-31.01 329.31,-31.61 332,-38.08"/>
</g>
</g>
</svg>
