<?xml version="1.0" encoding="UTF-8" standalone="no"?>
<!DOCTYPE svg PUBLIC "-//W3C//DTD SVG 1.1//EN"
 "http://www.w3.org/Graphics/SVG/1.1/DTD/svg11.dtd">
<!-- Generated by graphviz version 7.0.5 (20221223.1930)
 -->
<!-- Title: include/Z2AudioLib/Z2SeMgr.h Pages: 1 -->
<svg width="2314pt" height="511pt"
 viewBox="0.00 0.00 2314.00 511.00" xmlns="http://www.w3.org/2000/svg" xmlns:xlink="http://www.w3.org/1999/xlink">
<g id="graph0" class="graph" transform="scale(1 1) rotate(0) translate(4 507)">
<title>include/Z2AudioLib/Z2SeMgr.h</title>
<!-- Node1 -->
<g id="node1" class="node">
<title>Node1</title>
<g id="a_node1"><a xlink:title=" ">
<polygon fill="#999999" stroke="#666666" points="2132,-503 2032,-503 2032,-473 2132,-473 2132,-503"/>
<text text-anchor="start" x="2040" y="-491" font-family="Helvetica,sans-Serif" font-size="10.00">include/Z2AudioLib</text>
<text text-anchor="middle" x="2082" y="-480" font-family="Helvetica,sans-Serif" font-size="10.00">/Z2SeMgr.h</text>
</a>
</g>
</g>
<!-- Node2 -->
<g id="node2" class="node">
<title>Node2</title>
<g id="a_node2"><a xlink:href="JAISoundHandles_8h.html" target="_top" xlink:title=" ">
<polygon fill="white" stroke="#666666" points="2151.5,-437 2012.5,-437 2012.5,-407 2151.5,-407 2151.5,-437"/>
<text text-anchor="start" x="2020.5" y="-425" font-family="Helvetica,sans-Serif" font-size="10.00">JSystem/JAudio2/JAISound</text>
<text text-anchor="middle" x="2082" y="-414" font-family="Helvetica,sans-Serif" font-size="10.00">Handles.h</text>
</a>
</g>
</g>
<!-- Node1&#45;&gt;Node2 -->
<g id="edge1" class="edge">
<title>Node1&#45;&gt;Node2</title>
<path fill="none" stroke="#63b8ff" d="M2082,-472.8C2082,-465.67 2082,-456.82 2082,-448.56"/>
<polygon fill="#63b8ff" stroke="#63b8ff" points="2085.5,-448.68 2082,-438.68 2078.5,-448.68 2085.5,-448.68"/>
</g>
<!-- Node10 -->
<g id="node10" class="node">
<title>Node10</title>
<g id="a_node10"><a xlink:href="vec_8h.html" target="_top" xlink:title=" ">
<polygon fill="white" stroke="#666666" points="2298,-129 2206,-129 2206,-110 2298,-110 2298,-129"/>
<text text-anchor="middle" x="2252" y="-117" font-family="Helvetica,sans-Serif" font-size="10.00">dolphin/mtx/vec.h</text>
</a>
</g>
</g>
<!-- Node1&#45;&gt;Node10 -->
<g id="edge69" class="edge">
<title>Node1&#45;&gt;Node10</title>
<path fill="none" stroke="#63b8ff" d="M2132.27,-481.34C2198.31,-470.79 2306,-441.47 2306,-362.5 2306,-362.5 2306,-362.5 2306,-245 2306,-207.88 2297.89,-198.55 2282,-165 2277.62,-155.75 2271.47,-146.24 2265.88,-138.4"/>
<polygon fill="#63b8ff" stroke="#63b8ff" points="2268.73,-136.37 2259.96,-130.44 2263.12,-140.55 2268.73,-136.37"/>
</g>
<!-- Node40 -->
<g id="node40" class="node">
<title>Node40</title>
<g id="a_node40"><a xlink:href="JASGadget_8h.html" target="_top" xlink:title=" ">
<polygon fill="white" stroke="#666666" points="1978,-431.5 1824,-431.5 1824,-412.5 1978,-412.5 1978,-431.5"/>
<text text-anchor="middle" x="1901" y="-419.5" font-family="Helvetica,sans-Serif" font-size="10.00">JSystem/JAudio2/JASGadget.h</text>
</a>
</g>
</g>
<!-- Node1&#45;&gt;Node40 -->
<g id="edge64" class="edge">
<title>Node1&#45;&gt;Node40</title>
<path fill="none" stroke="#63b8ff" d="M2041.38,-472.64C2010,-461.54 1967,-446.34 1936.88,-435.69"/>
<polygon fill="#63b8ff" stroke="#63b8ff" points="1938.43,-432.52 1927.84,-432.49 1936.1,-439.12 1938.43,-432.52"/>
</g>
<!-- Node3 -->
<g id="node3" class="node">
<title>Node3</title>
<g id="a_node3"><a xlink:href="JAISound_8h.html" target="_top" xlink:title=" ">
<polygon fill="white" stroke="#666666" points="2163,-316 2017,-316 2017,-297 2163,-297 2163,-316"/>
<text text-anchor="middle" x="2090" y="-304" font-family="Helvetica,sans-Serif" font-size="10.00">JSystem/JAudio2/JAISound.h</text>
</a>
</g>
</g>
<!-- Node2&#45;&gt;Node3 -->
<g id="edge2" class="edge">
<title>Node2&#45;&gt;Node3</title>
<path fill="none" stroke="#63b8ff" d="M2083.01,-406.63C2084.43,-386.59 2086.99,-350.17 2088.59,-327.49"/>
<polygon fill="#63b8ff" stroke="#63b8ff" points="2092.07,-327.96 2089.28,-317.74 2085.08,-327.47 2092.07,-327.96"/>
</g>
<!-- Node15 -->
<g id="node15" class="node">
<title>Node15</title>
<g id="a_node15"><a xlink:href="JUTAssert_8h.html" target="_top" xlink:title=" ">
<polygon fill="white" stroke="#666666" points="1974,-371 1828,-371 1828,-352 1974,-352 1974,-371"/>
<text text-anchor="middle" x="1901" y="-359" font-family="Helvetica,sans-Serif" font-size="10.00">JSystem/JUtility/JUTAssert.h</text>
</a>
</g>
</g>
<!-- Node2&#45;&gt;Node15 -->
<g id="edge16" class="edge">
<title>Node2&#45;&gt;Node15</title>
<path fill="none" stroke="#63b8ff" d="M2037.26,-406.54C2007.22,-396.83 1968.06,-384.17 1939.43,-374.92"/>
<polygon fill="#63b8ff" stroke="#63b8ff" points="1940.67,-371.64 1930.08,-371.9 1938.52,-378.3 1940.67,-371.64"/>
</g>
<!-- Node4 -->
<g id="node4" class="node">
<title>Node4</title>
<g id="a_node4"><a xlink:href="JAISoundParams_8h.html" target="_top" xlink:title=" ">
<polygon fill="white" stroke="#666666" points="2069.5,-261 1930.5,-261 1930.5,-231 2069.5,-231 2069.5,-261"/>
<text text-anchor="start" x="1938.5" y="-249" font-family="Helvetica,sans-Serif" font-size="10.00">JSystem/JAudio2/JAISound</text>
<text text-anchor="middle" x="2000" y="-238" font-family="Helvetica,sans-Serif" font-size="10.00">Params.h</text>
</a>
</g>
</g>
<!-- Node3&#45;&gt;Node4 -->
<g id="edge3" class="edge">
<title>Node3&#45;&gt;Node4</title>
<path fill="none" stroke="#63b8ff" d="M2076.33,-296.62C2064.55,-288.96 2047.09,-277.61 2031.84,-267.69"/>
<polygon fill="#63b8ff" stroke="#63b8ff" points="2033.78,-264.78 2023.48,-262.26 2029.96,-270.65 2033.78,-264.78"/>
</g>
<!-- Node8 -->
<g id="node8" class="node">
<title>Node8</title>
<g id="a_node8"><a xlink:href="JAIAudible_8h.html" target="_top" xlink:title=" ">
<polygon fill="white" stroke="#666666" points="2277.5,-255.5 2126.5,-255.5 2126.5,-236.5 2277.5,-236.5 2277.5,-255.5"/>
<text text-anchor="middle" x="2202" y="-243.5" font-family="Helvetica,sans-Serif" font-size="10.00">JSystem/JAudio2/JAIAudible.h</text>
</a>
</g>
</g>
<!-- Node3&#45;&gt;Node8 -->
<g id="edge7" class="edge">
<title>Node3&#45;&gt;Node8</title>
<path fill="none" stroke="#63b8ff" d="M2107.01,-296.62C2125.02,-287.21 2153.71,-272.22 2174.85,-261.18"/>
<polygon fill="#63b8ff" stroke="#63b8ff" points="2176.24,-264.4 2183.49,-256.67 2173,-258.2 2176.24,-264.4"/>
</g>
<!-- Node14 -->
<g id="node14" class="node">
<title>Node14</title>
<g id="a_node14"><a xlink:href="global_8h.html" target="_top" xlink:title=" ">
<polygon fill="white" stroke="#666666" points="2141,-189.5 2091,-189.5 2091,-170.5 2141,-170.5 2141,-189.5"/>
<text text-anchor="middle" x="2116" y="-177.5" font-family="Helvetica,sans-Serif" font-size="10.00">global.h</text>
</a>
</g>
</g>
<!-- Node3&#45;&gt;Node14 -->
<g id="edge14" class="edge">
<title>Node3&#45;&gt;Node14</title>
<path fill="none" stroke="#63b8ff" d="M2091.87,-296.55C2096.03,-276.63 2106.13,-228.24 2111.86,-200.82"/>
<polygon fill="#63b8ff" stroke="#63b8ff" points="2115.22,-201.86 2113.84,-191.35 2108.37,-200.43 2115.22,-201.86"/>
</g>
<!-- Node5 -->
<g id="node5" class="node">
<title>Node5</title>
<g id="a_node5"><a xlink:href="JASSoundParams_8h.html" target="_top" xlink:title=" ">
<polygon fill="white" stroke="#666666" points="2072.5,-195 1929.5,-195 1929.5,-165 2072.5,-165 2072.5,-195"/>
<text text-anchor="start" x="1937.5" y="-183" font-family="Helvetica,sans-Serif" font-size="10.00">JSystem/JAudio2/JASSound</text>
<text text-anchor="middle" x="2001" y="-172" font-family="Helvetica,sans-Serif" font-size="10.00">Params.h</text>
</a>
</g>
</g>
<!-- Node4&#45;&gt;Node5 -->
<g id="edge4" class="edge">
<title>Node4&#45;&gt;Node5</title>
<path fill="none" stroke="#63b8ff" d="M2000.22,-230.8C2000.33,-223.67 2000.47,-214.82 2000.6,-206.56"/>
<polygon fill="#63b8ff" stroke="#63b8ff" points="2004.1,-206.73 2000.76,-196.68 1997.1,-206.62 2004.1,-206.73"/>
</g>
<!-- Node6 -->
<g id="node6" class="node">
<title>Node6</title>
<g id="a_node6"><a xlink:href="types_8h.html" target="_top" xlink:title=" ">
<polygon fill="white" stroke="#666666" points="1054.5,-74 973.5,-74 973.5,-55 1054.5,-55 1054.5,-74"/>
<text text-anchor="middle" x="1014" y="-62" font-family="Helvetica,sans-Serif" font-size="10.00">dolphin/types.h</text>
</a>
</g>
</g>
<!-- Node5&#45;&gt;Node6 -->
<g id="edge5" class="edge">
<title>Node5&#45;&gt;Node6</title>
<path fill="none" stroke="#63b8ff" d="M1988.7,-164.78C1973.37,-148.19 1945.42,-121.55 1915,-110 1835.75,-79.92 1246.15,-68.89 1066.08,-66.2"/>
<polygon fill="#63b8ff" stroke="#63b8ff" points="1066.38,-62.71 1056.33,-66.06 1066.28,-69.71 1066.38,-62.71"/>
</g>
<!-- Node7 -->
<g id="node7" class="node">
<title>Node7</title>
<g id="a_node7"><a xlink:href="stddef_8h.html" target="_top" xlink:title=" ">
<polygon fill="white" stroke="#666666" points="537.5,-19 486.5,-19 486.5,0 537.5,0 537.5,-19"/>
<text text-anchor="middle" x="512" y="-7" font-family="Helvetica,sans-Serif" font-size="10.00">stddef.h</text>
</a>
</g>
</g>
<!-- Node6&#45;&gt;Node7 -->
<g id="edge6" class="edge">
<title>Node6&#45;&gt;Node7</title>
<path fill="none" stroke="#63b8ff" d="M973.34,-59.21C877.97,-49.14 641.01,-24.12 549.19,-14.43"/>
<polygon fill="#63b8ff" stroke="#63b8ff" points="549.79,-10.97 539.48,-13.4 549.05,-17.93 549.79,-10.97"/>
</g>
<!-- Node9 -->
<g id="node9" class="node">
<title>Node9</title>
<g id="a_node9"><a xlink:href="JGeometry_8h.html" target="_top" xlink:title=" ">
<polygon fill="white" stroke="#666666" points="2272.5,-189.5 2159.5,-189.5 2159.5,-170.5 2272.5,-170.5 2272.5,-189.5"/>
<text text-anchor="middle" x="2216" y="-177.5" font-family="Helvetica,sans-Serif" font-size="10.00">JSystem/JGeometry.h</text>
</a>
</g>
</g>
<!-- Node8&#45;&gt;Node9 -->
<g id="edge8" class="edge">
<title>Node8&#45;&gt;Node9</title>
<path fill="none" stroke="#63b8ff" d="M2203.95,-236.1C2205.93,-227.03 2209.08,-212.64 2211.66,-200.85"/>
<polygon fill="#63b8ff" stroke="#63b8ff" points="2215.03,-201.82 2213.75,-191.3 2208.19,-200.32 2215.03,-201.82"/>
</g>
<!-- Node9&#45;&gt;Node10 -->
<g id="edge9" class="edge">
<title>Node9&#45;&gt;Node10</title>
<path fill="none" stroke="#63b8ff" d="M2221.31,-170.37C2226.42,-162.07 2234.29,-149.28 2240.79,-138.72"/>
<polygon fill="#63b8ff" stroke="#63b8ff" points="2243.61,-140.81 2245.87,-130.46 2237.65,-137.14 2243.61,-140.81"/>
</g>
<!-- Node11 -->
<g id="node11" class="node">
<title>Node11</title>
<g id="a_node11"><a xlink:href="math_8h.html" target="_top" xlink:title=" ">
<polygon fill="white" stroke="#666666" points="2188,-129 2142,-129 2142,-110 2188,-110 2188,-129"/>
<text text-anchor="middle" x="2165" y="-117" font-family="Helvetica,sans-Serif" font-size="10.00">math.h</text>
</a>
</g>
</g>
<!-- Node9&#45;&gt;Node11 -->
<g id="edge11" class="edge">
<title>Node9&#45;&gt;Node11</title>
<path fill="none" stroke="#63b8ff" d="M2208.47,-170.37C2201.02,-161.81 2189.39,-148.47 2180.03,-137.74"/>
<polygon fill="#63b8ff" stroke="#63b8ff" points="2182.76,-135.55 2173.55,-130.31 2177.48,-140.15 2182.76,-135.55"/>
</g>
<!-- Node10&#45;&gt;Node6 -->
<g id="edge10" class="edge">
<title>Node10&#45;&gt;Node6</title>
<path fill="none" stroke="#63b8ff" d="M2205.54,-110.93C2202.65,-110.58 2199.79,-110.27 2197,-110 1761.44,-68.29 1232.19,-65.18 1066.29,-65.31"/>
<polygon fill="#63b8ff" stroke="#63b8ff" points="1066.49,-61.81 1056.49,-65.33 1066.5,-68.81 1066.49,-61.81"/>
</g>
<!-- Node12 -->
<g id="node12" class="node">
<title>Node12</title>
<g id="a_node12"><a xlink:href="float_8h.html" target="_top" xlink:title=" ">
<polygon fill="white" stroke="#666666" points="2186,-74 2144,-74 2144,-55 2186,-55 2186,-74"/>
<text text-anchor="middle" x="2165" y="-62" font-family="Helvetica,sans-Serif" font-size="10.00">float.h</text>
</a>
</g>
</g>
<!-- Node11&#45;&gt;Node12 -->
<g id="edge12" class="edge">
<title>Node11&#45;&gt;Node12</title>
<path fill="none" stroke="#63b8ff" d="M2165,-109.75C2165,-103.27 2165,-94.16 2165,-85.9"/>
<polygon fill="#63b8ff" stroke="#63b8ff" points="2168.5,-85.96 2165,-75.96 2161.5,-85.96 2168.5,-85.96"/>
</g>
<!-- Node13 -->
<g id="node13" class="node">
<title>Node13</title>
<g id="a_node13"><a xlink:href="fdlibm_8h.html" target="_top" xlink:title=" ">
<polygon fill="white" stroke="#666666" points="2190,-19 2140,-19 2140,0 2190,0 2190,-19"/>
<text text-anchor="middle" x="2165" y="-7" font-family="Helvetica,sans-Serif" font-size="10.00">fdlibm.h</text>
</a>
</g>
</g>
<!-- Node12&#45;&gt;Node13 -->
<g id="edge13" class="edge">
<title>Node12&#45;&gt;Node13</title>
<path fill="none" stroke="#63b8ff" d="M2165,-54.75C2165,-48.27 2165,-39.16 2165,-30.9"/>
<polygon fill="#63b8ff" stroke="#63b8ff" points="2168.5,-30.96 2165,-20.96 2161.5,-30.96 2168.5,-30.96"/>
</g>
<!-- Node14&#45;&gt;Node6 -->
<g id="edge15" class="edge">
<title>Node14&#45;&gt;Node6</title>
<path fill="none" stroke="#63b8ff" d="M2099.61,-170.19C2069.84,-154.69 2004.43,-122.96 1945,-110 1775.47,-73.02 1236.59,-66.77 1066.19,-65.71"/>
<polygon fill="#63b8ff" stroke="#63b8ff" points="1066.33,-62.21 1056.31,-65.66 1066.29,-69.21 1066.33,-62.21"/>
</g>
<!-- Node15&#45;&gt;Node6 -->
<g id="edge17" class="edge">
<title>Node15&#45;&gt;Node6</title>
<path fill="none" stroke="#63b8ff" d="M1901,-351.67C1901,-332.58 1901,-286.02 1901,-247 1901,-247 1901,-247 1901,-179 1901,-138.07 1876.85,-127.82 1840,-110 1770.64,-76.47 1237.2,-67.88 1066.41,-65.98"/>
<polygon fill="#63b8ff" stroke="#63b8ff" points="1066.54,-62.49 1056.5,-65.88 1066.47,-69.49 1066.54,-62.49"/>
</g>
<!-- Node16 -->
<g id="node16" class="node">
<title>Node16</title>
<g id="a_node16"><a xlink:href="os_8h.html" target="_top" xlink:title=" ">
<polygon fill="white" stroke="#666666" points="1031,-316 963,-316 963,-297 1031,-297 1031,-316"/>
<text text-anchor="middle" x="997" y="-304" font-family="Helvetica,sans-Serif" font-size="10.00">dolphin/os.h</text>
</a>
</g>
</g>
<!-- Node15&#45;&gt;Node16 -->
<g id="edge18" class="edge">
<title>Node15&#45;&gt;Node16</title>
<path fill="none" stroke="#63b8ff" d="M1827.79,-356.21C1647.92,-345.66 1188.4,-318.72 1042.31,-310.16"/>
<polygon fill="#63b8ff" stroke="#63b8ff" points="1042.84,-306.68 1032.66,-309.59 1042.43,-313.67 1042.84,-306.68"/>
</g>
<!-- Node17 -->
<g id="node17" class="node">
<title>Node17</title>
<g id="a_node17"><a xlink:href="____va__arg_8h.html" target="_top" xlink:title=" ">
<polygon fill="white" stroke="#666666" points="584,-129 520,-129 520,-110 584,-110 584,-129"/>
<text text-anchor="middle" x="552" y="-117" font-family="Helvetica,sans-Serif" font-size="10.00">__va_arg.h</text>
</a>
</g>
</g>
<!-- Node16&#45;&gt;Node17 -->
<g id="edge19" class="edge">
<title>Node16&#45;&gt;Node17</title>
<path fill="none" stroke="#63b8ff" d="M962.85,-305.14C853.65,-303.62 518.19,-296.12 486,-261 476.99,-251.17 480.43,-243.11 486,-231 496.27,-208.66 514.38,-215.47 528,-195 539.04,-178.39 545.31,-156.34 548.65,-140.55"/>
<polygon fill="#63b8ff" stroke="#63b8ff" points="552.05,-141.41 550.46,-130.93 545.17,-140.11 552.05,-141.41"/>
</g>
<!-- Node18 -->
<g id="node18" class="node">
<title>Node18</title>
<g id="a_node18"><a xlink:href="dvd_8h.html" target="_top" xlink:title=" ">
<polygon fill="white" stroke="#666666" points="712,-129 638,-129 638,-110 712,-110 712,-129"/>
<text text-anchor="middle" x="675" y="-117" font-family="Helvetica,sans-Serif" font-size="10.00">dolphin/dvd.h</text>
</a>
</g>
</g>
<!-- Node16&#45;&gt;Node18 -->
<g id="edge21" class="edge">
<title>Node16&#45;&gt;Node18</title>
<path fill="none" stroke="#63b8ff" d="M962.69,-305.08C854.63,-303.39 526.53,-295.45 495,-261 486,-251.16 488.16,-242.44 495,-231 512.35,-201.99 532.97,-212.32 562,-195 594.37,-175.68 630.55,-151.32 653.05,-135.82"/>
<polygon fill="#63b8ff" stroke="#63b8ff" points="654.89,-138.8 661.12,-130.23 650.9,-133.05 654.89,-138.8"/>
</g>
<!-- Node19 -->
<g id="node19" class="node">
<title>Node19</title>
<g id="a_node19"><a xlink:href="OSAlarm_8h.html" target="_top" xlink:title=" ">
<polygon fill="white" stroke="#666666" points="911.5,-255.5 800.5,-255.5 800.5,-236.5 911.5,-236.5 911.5,-255.5"/>
<text text-anchor="middle" x="856" y="-243.5" font-family="Helvetica,sans-Serif" font-size="10.00">dolphin/os/OSAlarm.h</text>
</a>
</g>
</g>
<!-- Node16&#45;&gt;Node19 -->
<g id="edge23" class="edge">
<title>Node16&#45;&gt;Node19</title>
<path fill="none" stroke="#63b8ff" d="M975.59,-296.62C952.29,-286.95 914.81,-271.4 888.02,-260.28"/>
<polygon fill="#63b8ff" stroke="#63b8ff" points="889.59,-257.15 879.01,-256.55 886.91,-263.61 889.59,-257.15"/>
</g>
<!-- Node20 -->
<g id="node20" class="node">
<title>Node20</title>
<g id="a_node20"><a xlink:href="OSError_8h.html" target="_top" xlink:title=" ">
<polygon fill="white" stroke="#666666" points="797,-189.5 691,-189.5 691,-170.5 797,-170.5 797,-189.5"/>
<text text-anchor="middle" x="744" y="-177.5" font-family="Helvetica,sans-Serif" font-size="10.00">dolphin/os/OSError.h</text>
</a>
</g>
</g>
<!-- Node16&#45;&gt;Node20 -->
<g id="edge37" class="edge">
<title>Node16&#45;&gt;Node20</title>
<path fill="none" stroke="#63b8ff" d="M962.63,-305.01C855.95,-303.13 535.8,-294.72 505,-261 496.01,-251.16 496.59,-241.35 505,-231 526.58,-204.44 616,-191.49 679.11,-185.55"/>
<polygon fill="#63b8ff" stroke="#63b8ff" points="679.41,-189.04 689.06,-184.66 678.78,-182.07 679.41,-189.04"/>
</g>
<!-- Node21 -->
<g id="node21" class="node">
<title>Node21</title>
<g id="a_node21"><a xlink:href="OSTime_8h.html" target="_top" xlink:title=" ">
<polygon fill="white" stroke="#666666" points="922.5,-189.5 815.5,-189.5 815.5,-170.5 922.5,-170.5 922.5,-189.5"/>
<text text-anchor="middle" x="869" y="-177.5" font-family="Helvetica,sans-Serif" font-size="10.00">dolphin/os/OSTime.h</text>
</a>
</g>
</g>
<!-- Node16&#45;&gt;Node21 -->
<g id="edge63" class="edge">
<title>Node16&#45;&gt;Node21</title>
<path fill="none" stroke="#63b8ff" d="M987.79,-296.55C966.48,-275.82 913.49,-224.27 886.06,-197.59"/>
<polygon fill="#63b8ff" stroke="#63b8ff" points="888.82,-195.39 879.21,-190.93 883.94,-200.41 888.82,-195.39"/>
</g>
<!-- Node22 -->
<g id="node22" class="node">
<title>Node22</title>
<g id="a_node22"><a xlink:href="OSAlloc_8h.html" target="_top" xlink:title=" ">
<polygon fill="white" stroke="#666666" points="940.5,-129 833.5,-129 833.5,-110 940.5,-110 940.5,-129"/>
<text text-anchor="middle" x="887" y="-117" font-family="Helvetica,sans-Serif" font-size="10.00">dolphin/os/OSAlloc.h</text>
</a>
</g>
</g>
<!-- Node16&#45;&gt;Node22 -->
<g id="edge28" class="edge">
<title>Node16&#45;&gt;Node22</title>
<path fill="none" stroke="#63b8ff" d="M994.07,-296.72C986.15,-273.76 962.78,-210.52 931,-165 923.88,-154.79 914.32,-144.81 905.93,-136.89"/>
<polygon fill="#63b8ff" stroke="#63b8ff" points="908.33,-134.35 898.58,-130.22 903.63,-139.53 908.33,-134.35"/>
</g>
<!-- Node23 -->
<g id="node23" class="node">
<title>Node23</title>
<g id="a_node23"><a xlink:href="OSArena_8h.html" target="_top" xlink:title=" ">
<polygon fill="white" stroke="#666666" points="1069.5,-129 958.5,-129 958.5,-110 1069.5,-110 1069.5,-129"/>
<text text-anchor="middle" x="1014" y="-117" font-family="Helvetica,sans-Serif" font-size="10.00">dolphin/os/OSArena.h</text>
</a>
</g>
</g>
<!-- Node16&#45;&gt;Node23 -->
<g id="edge30" class="edge">
<title>Node16&#45;&gt;Node23</title>
<path fill="none" stroke="#63b8ff" d="M997.82,-296.58C1000.41,-268.37 1008.47,-180.65 1012.14,-140.7"/>
<polygon fill="#63b8ff" stroke="#63b8ff" points="1015.62,-141.12 1013.05,-130.84 1008.65,-140.48 1015.62,-141.12"/>
</g>
<!-- Node24 -->
<g id="node24" class="node">
<title>Node24</title>
<g id="a_node24"><a xlink:href="OSAudioSystem_8h.html" target="_top" xlink:title=" ">
<polygon fill="white" stroke="#666666" points="657.5,-255.5 514.5,-255.5 514.5,-236.5 657.5,-236.5 657.5,-255.5"/>
<text text-anchor="middle" x="586" y="-243.5" font-family="Helvetica,sans-Serif" font-size="10.00">dolphin/os/OSAudioSystem.h</text>
</a>
</g>
</g>
<!-- Node16&#45;&gt;Node24 -->
<g id="edge32" class="edge">
<title>Node16&#45;&gt;Node24</title>
<path fill="none" stroke="#63b8ff" d="M962.63,-301.33C902.42,-293.94 774.01,-277.71 666,-261 659.66,-260.02 653.05,-258.95 646.46,-257.84"/>
<polygon fill="#63b8ff" stroke="#63b8ff" points="647.39,-254.45 636.94,-256.22 646.22,-261.35 647.39,-254.45"/>
</g>
<!-- Node25 -->
<g id="node25" class="node">
<title>Node25</title>
<g id="a_node25"><a xlink:href="OSCache_8h.html" target="_top" xlink:title=" ">
<polygon fill="white" stroke="#666666" points="1200.5,-129 1087.5,-129 1087.5,-110 1200.5,-110 1200.5,-129"/>
<text text-anchor="middle" x="1144" y="-117" font-family="Helvetica,sans-Serif" font-size="10.00">dolphin/os/OSCache.h</text>
</a>
</g>
</g>
<!-- Node16&#45;&gt;Node25 -->
<g id="edge33" class="edge">
<title>Node16&#45;&gt;Node25</title>
<path fill="none" stroke="#63b8ff" d="M1001.36,-296.8C1015.06,-269.63 1057.55,-186.93 1078,-165 1089.08,-153.11 1103.9,-142.76 1116.69,-135.04"/>
<polygon fill="#63b8ff" stroke="#63b8ff" points="1118.19,-138.22 1125.1,-130.19 1114.69,-132.16 1118.19,-138.22"/>
</g>
<!-- Node26 -->
<g id="node26" class="node">
<title>Node26</title>
<g id="a_node26"><a xlink:href="OSContext_8h.html" target="_top" xlink:title=" ">
<polygon fill="white" stroke="#666666" points="1337.5,-129 1218.5,-129 1218.5,-110 1337.5,-110 1337.5,-129"/>
<text text-anchor="middle" x="1278" y="-117" font-family="Helvetica,sans-Serif" font-size="10.00">dolphin/os/OSContext.h</text>
</a>
</g>
</g>
<!-- Node16&#45;&gt;Node26 -->
<g id="edge35" class="edge">
<title>Node16&#45;&gt;Node26</title>
<path fill="none" stroke="#63b8ff" d="M1009.27,-296.63C1040.78,-273.97 1127.31,-212.38 1202,-165 1218.42,-154.59 1237.27,-143.54 1252.09,-135.06"/>
<polygon fill="#63b8ff" stroke="#63b8ff" points="1253.8,-138.11 1260.77,-130.13 1250.34,-132.03 1253.8,-138.11"/>
</g>
<!-- Node27 -->
<g id="node27" class="node">
<title>Node27</title>
<g id="a_node27"><a xlink:href="OSExec_8h.html" target="_top" xlink:title=" ">
<polygon fill="white" stroke="#666666" points="1831.5,-129 1724.5,-129 1724.5,-110 1831.5,-110 1831.5,-129"/>
<text text-anchor="middle" x="1778" y="-117" font-family="Helvetica,sans-Serif" font-size="10.00">dolphin/os/OSExec.h</text>
</a>
</g>
</g>
<!-- Node16&#45;&gt;Node27 -->
<g id="edge38" class="edge">
<title>Node16&#45;&gt;Node27</title>
<path fill="none" stroke="#63b8ff" d="M1031.28,-305C1186.32,-302.59 1815.57,-290.96 1844,-261 1878.97,-224.15 1826.66,-165.39 1796.64,-136.97"/>
<polygon fill="#63b8ff" stroke="#63b8ff" points="1799.01,-134.39 1789.27,-130.2 1794.27,-139.54 1799.01,-134.39"/>
</g>
<!-- Node28 -->
<g id="node28" class="node">
<title>Node28</title>
<g id="a_node28"><a xlink:href="OSFont_8h.html" target="_top" xlink:title=" ">
<polygon fill="white" stroke="#666666" points="1536.5,-255.5 1431.5,-255.5 1431.5,-236.5 1536.5,-236.5 1536.5,-255.5"/>
<text text-anchor="middle" x="1484" y="-243.5" font-family="Helvetica,sans-Serif" font-size="10.00">dolphin/os/OSFont.h</text>
</a>
</g>
</g>
<!-- Node16&#45;&gt;Node28 -->
<g id="edge40" class="edge">
<title>Node16&#45;&gt;Node28</title>
<path fill="none" stroke="#63b8ff" d="M1031.34,-303.28C1103.85,-298.3 1277.79,-284.75 1422,-261 1426.72,-260.22 1431.61,-259.31 1436.49,-258.33"/>
<polygon fill="#63b8ff" stroke="#63b8ff" points="1437.21,-261.75 1446.27,-256.25 1435.76,-254.9 1437.21,-261.75"/>
</g>
<!-- Node29 -->
<g id="node29" class="node">
<title>Node29</title>
<g id="a_node29"><a xlink:href="OSInterrupt_8h.html" target="_top" xlink:title=" ">
<polygon fill="white" stroke="#666666" points="1626,-189.5 1504,-189.5 1504,-170.5 1626,-170.5 1626,-189.5"/>
<text text-anchor="middle" x="1565" y="-177.5" font-family="Helvetica,sans-Serif" font-size="10.00">dolphin/os/OSInterrupt.h</text>
</a>
</g>
</g>
<!-- Node16&#45;&gt;Node29 -->
<g id="edge42" class="edge">
<title>Node16&#45;&gt;Node29</title>
<path fill="none" stroke="#63b8ff" d="M1031.26,-305C1145.1,-303.04 1505.83,-294.22 1545,-261 1562.12,-246.48 1565.77,-219.73 1566.03,-201.18"/>
<polygon fill="#63b8ff" stroke="#63b8ff" points="1569.53,-201.34 1565.82,-191.42 1562.54,-201.49 1569.53,-201.34"/>
</g>
<!-- Node30 -->
<g id="node30" class="node">
<title>Node30</title>
<g id="a_node30"><a xlink:href="OSLink_8h.html" target="_top" xlink:title=" ">
<polygon fill="white" stroke="#666666" points="1835,-255.5 1731,-255.5 1731,-236.5 1835,-236.5 1835,-255.5"/>
<text text-anchor="middle" x="1783" y="-243.5" font-family="Helvetica,sans-Serif" font-size="10.00">dolphin/os/OSLink.h</text>
</a>
</g>
</g>
<!-- Node16&#45;&gt;Node30 -->
<g id="edge44" class="edge">
<title>Node16&#45;&gt;Node30</title>
<path fill="none" stroke="#63b8ff" d="M1031.18,-305.39C1135.37,-304.63 1458.03,-299.13 1722,-261 1726.97,-260.28 1732.14,-259.37 1737.27,-258.35"/>
<polygon fill="#63b8ff" stroke="#63b8ff" points="1737.81,-261.81 1746.87,-256.31 1736.36,-254.96 1737.81,-261.81"/>
</g>
<!-- Node31 -->
<g id="node31" class="node">
<title>Node31</title>
<g id="a_node31"><a xlink:href="OSMemory_8h.html" target="_top" xlink:title=" ">
<polygon fill="white" stroke="#666666" points="1713,-255.5 1593,-255.5 1593,-236.5 1713,-236.5 1713,-255.5"/>
<text text-anchor="middle" x="1653" y="-243.5" font-family="Helvetica,sans-Serif" font-size="10.00">dolphin/os/OSMemory.h</text>
</a>
</g>
</g>
<!-- Node16&#45;&gt;Node31 -->
<g id="edge46" class="edge">
<title>Node16&#45;&gt;Node31</title>
<path fill="none" stroke="#63b8ff" d="M1031.25,-304.21C1121.3,-300.52 1372.05,-288.4 1579,-261 1585.48,-260.14 1592.24,-259.09 1598.94,-257.94"/>
<polygon fill="#63b8ff" stroke="#63b8ff" points="1599.37,-261.42 1608.6,-256.22 1598.14,-254.53 1599.37,-261.42"/>
</g>
<!-- Node32 -->
<g id="node32" class="node">
<title>Node32</title>
<g id="a_node32"><a xlink:href="OSMessage_8h.html" target="_top" xlink:title=" ">
<polygon fill="white" stroke="#666666" points="1413.5,-255.5 1288.5,-255.5 1288.5,-236.5 1413.5,-236.5 1413.5,-255.5"/>
<text text-anchor="middle" x="1351" y="-243.5" font-family="Helvetica,sans-Serif" font-size="10.00">dolphin/os/OSMessage.h</text>
</a>
</g>
</g>
<!-- Node16&#45;&gt;Node32 -->
<g id="edge48" class="edge">
<title>Node16&#45;&gt;Node32</title>
<path fill="none" stroke="#63b8ff" d="M1031.15,-300.24C1083.48,-292.14 1186.62,-275.96 1274,-261 1279.63,-260.04 1285.49,-259.01 1291.35,-257.97"/>
<polygon fill="#63b8ff" stroke="#63b8ff" points="1291.84,-261.44 1301.07,-256.23 1290.61,-254.55 1291.84,-261.44"/>
</g>
<!-- Node33 -->
<g id="node33" class="node">
<title>Node33</title>
<g id="a_node33"><a xlink:href="OSThread_8h.html" target="_top" xlink:title=" ">
<polygon fill="white" stroke="#666666" points="1327,-189.5 1211,-189.5 1211,-170.5 1327,-170.5 1327,-189.5"/>
<text text-anchor="middle" x="1269" y="-177.5" font-family="Helvetica,sans-Serif" font-size="10.00">dolphin/os/OSThread.h</text>
</a>
</g>
</g>
<!-- Node16&#45;&gt;Node33 -->
<g id="edge62" class="edge">
<title>Node16&#45;&gt;Node33</title>
<path fill="none" stroke="#63b8ff" d="M1031.09,-303.45C1090.56,-299.22 1209.9,-287.58 1241,-261 1258.46,-246.08 1265.03,-219.62 1267.51,-201.24"/>
<polygon fill="#63b8ff" stroke="#63b8ff" points="1270.99,-201.61 1268.52,-191.3 1264.03,-200.9 1270.99,-201.61"/>
</g>
<!-- Node34 -->
<g id="node34" class="node">
<title>Node34</title>
<g id="a_node34"><a xlink:href="OSMutex_8h.html" target="_top" xlink:title=" ">
<polygon fill="white" stroke="#666666" points="1232,-255.5 1120,-255.5 1120,-236.5 1232,-236.5 1232,-255.5"/>
<text text-anchor="middle" x="1176" y="-243.5" font-family="Helvetica,sans-Serif" font-size="10.00">dolphin/os/OSMutex.h</text>
</a>
</g>
</g>
<!-- Node16&#45;&gt;Node34 -->
<g id="edge51" class="edge">
<title>Node16&#45;&gt;Node34</title>
<path fill="none" stroke="#63b8ff" d="M1024.19,-296.62C1054.54,-286.69 1103.89,-270.57 1138.05,-259.4"/>
<polygon fill="#63b8ff" stroke="#63b8ff" points="1138.7,-262.87 1147.12,-256.44 1136.53,-256.22 1138.7,-262.87"/>
</g>
<!-- Node35 -->
<g id="node35" class="node">
<title>Node35</title>
<g id="a_node35"><a xlink:href="OSReboot_8h.html" target="_top" xlink:title=" ">
<polygon fill="white" stroke="#666666" points="238,-129 122,-129 122,-110 238,-110 238,-129"/>
<text text-anchor="middle" x="180" y="-117" font-family="Helvetica,sans-Serif" font-size="10.00">dolphin/os/OSReboot.h</text>
</a>
</g>
</g>
<!-- Node16&#45;&gt;Node35 -->
<g id="edge53" class="edge">
<title>Node16&#45;&gt;Node35</title>
<path fill="none" stroke="#63b8ff" d="M962.64,-305C838.35,-302.96 412.6,-293.67 281,-261 211.89,-243.84 173.61,-254.83 135,-195 127.77,-183.8 129.86,-177.3 135,-165 139.71,-153.71 148.84,-143.83 157.64,-136.26"/>
<polygon fill="#63b8ff" stroke="#63b8ff" points="159.65,-139.13 165.32,-130.19 155.31,-133.64 159.65,-139.13"/>
</g>
<!-- Node36 -->
<g id="node36" class="node">
<title>Node36</title>
<g id="a_node36"><a xlink:href="OSReset_8h.html" target="_top" xlink:title=" ">
<polygon fill="white" stroke="#666666" points="255.5,-189.5 144.5,-189.5 144.5,-170.5 255.5,-170.5 255.5,-189.5"/>
<text text-anchor="middle" x="200" y="-177.5" font-family="Helvetica,sans-Serif" font-size="10.00">dolphin/os/OSReset.h</text>
</a>
</g>
</g>
<!-- Node16&#45;&gt;Node36 -->
<g id="edge55" class="edge">
<title>Node16&#45;&gt;Node36</title>
<path fill="none" stroke="#63b8ff" d="M962.58,-304.95C846.62,-302.8 470.93,-293.44 355,-261 304.35,-246.83 251.09,-215.07 222.07,-196.1"/>
<polygon fill="#63b8ff" stroke="#63b8ff" points="224.05,-193.22 213.78,-190.59 220.17,-199.04 224.05,-193.22"/>
</g>
<!-- Node37 -->
<g id="node37" class="node">
<title>Node37</title>
<g id="a_node37"><a xlink:href="OSResetSW_8h.html" target="_top" xlink:title=" ">
<polygon fill="white" stroke="#666666" points="400.5,-189.5 273.5,-189.5 273.5,-170.5 400.5,-170.5 400.5,-189.5"/>
<text text-anchor="middle" x="337" y="-177.5" font-family="Helvetica,sans-Serif" font-size="10.00">dolphin/os/OSResetSW.h</text>
</a>
</g>
</g>
<!-- Node16&#45;&gt;Node37 -->
<g id="edge57" class="edge">
<title>Node16&#45;&gt;Node37</title>
<path fill="none" stroke="#63b8ff" d="M962.63,-304.82C840.96,-302.14 435.34,-291.04 386,-261 363.76,-247.46 350.18,-219.62 343.13,-200.63"/>
<polygon fill="#63b8ff" stroke="#63b8ff" points="346.5,-199.69 339.97,-191.35 339.88,-201.94 346.5,-199.69"/>
</g>
<!-- Node38 -->
<g id="node38" class="node">
<title>Node38</title>
<g id="a_node38"><a xlink:href="OSRtc_8h.html" target="_top" xlink:title=" ">
<polygon fill="white" stroke="#666666" points="519.5,-189.5 418.5,-189.5 418.5,-170.5 519.5,-170.5 519.5,-189.5"/>
<text text-anchor="middle" x="469" y="-177.5" font-family="Helvetica,sans-Serif" font-size="10.00">dolphin/os/OSRtc.h</text>
</a>
</g>
</g>
<!-- Node16&#45;&gt;Node38 -->
<g id="edge59" class="edge">
<title>Node16&#45;&gt;Node38</title>
<path fill="none" stroke="#63b8ff" d="M962.52,-305.61C840.53,-305.65 434.67,-302.64 396,-261 374.8,-238.18 411.61,-211.39 440.22,-195.33"/>
<polygon fill="#63b8ff" stroke="#63b8ff" points="441.79,-198.46 448.94,-190.64 438.47,-192.3 441.79,-198.46"/>
</g>
<!-- Node39 -->
<g id="node39" class="node">
<title>Node39</title>
<g id="a_node39"><a xlink:href="OSSync_8h.html" target="_top" xlink:title=" ">
<polygon fill="white" stroke="#666666" points="782.5,-255.5 675.5,-255.5 675.5,-236.5 782.5,-236.5 782.5,-255.5"/>
<text text-anchor="middle" x="729" y="-243.5" font-family="Helvetica,sans-Serif" font-size="10.00">dolphin/os/OSSync.h</text>
</a>
</g>
</g>
<!-- Node16&#45;&gt;Node39 -->
<g id="edge61" class="edge">
<title>Node16&#45;&gt;Node39</title>
<path fill="none" stroke="#63b8ff" d="M962.72,-298.2C921.82,-289.46 851.38,-274.34 791,-261 787.22,-260.17 783.32,-259.3 779.39,-258.42"/>
<polygon fill="#63b8ff" stroke="#63b8ff" points="780.35,-255.05 769.82,-256.27 778.81,-261.88 780.35,-255.05"/>
</g>
<!-- Node17&#45;&gt;Node6 -->
<g id="edge20" class="edge">
<title>Node17&#45;&gt;Node6</title>
<path fill="none" stroke="#63b8ff" d="M584.49,-114.77C663.43,-105.72 865.92,-82.49 961.96,-71.47"/>
<polygon fill="#63b8ff" stroke="#63b8ff" points="962.09,-74.98 971.62,-70.36 961.29,-68.02 962.09,-74.98"/>
</g>
<!-- Node18&#45;&gt;Node6 -->
<g id="edge22" class="edge">
<title>Node18&#45;&gt;Node6</title>
<path fill="none" stroke="#63b8ff" d="M712.25,-112.68C772.86,-103.2 892.97,-84.42 961.98,-73.63"/>
<polygon fill="#63b8ff" stroke="#63b8ff" points="962.17,-77.15 971.51,-72.14 961.09,-70.23 962.17,-77.15"/>
</g>
<!-- Node19&#45;&gt;Node20 -->
<g id="edge24" class="edge">
<title>Node19&#45;&gt;Node20</title>
<path fill="none" stroke="#63b8ff" d="M840.43,-236.1C822.04,-225.59 791.2,-207.97 769.35,-195.49"/>
<polygon fill="#63b8ff" stroke="#63b8ff" points="771.17,-192.5 760.75,-190.57 767.7,-198.57 771.17,-192.5"/>
</g>
<!-- Node19&#45;&gt;Node21 -->
<g id="edge26" class="edge">
<title>Node19&#45;&gt;Node21</title>
<path fill="none" stroke="#63b8ff" d="M857.81,-236.1C859.65,-227.03 862.57,-212.64 864.97,-200.85"/>
<polygon fill="#63b8ff" stroke="#63b8ff" points="868.35,-201.8 866.91,-191.31 861.49,-200.41 868.35,-201.8"/>
</g>
<!-- Node20&#45;&gt;Node6 -->
<g id="edge25" class="edge">
<title>Node20&#45;&gt;Node6</title>
<path fill="none" stroke="#63b8ff" d="M750.47,-170.24C761.93,-155.39 787.32,-125.39 816,-110 861.68,-85.48 920.28,-74.45 961.84,-69.49"/>
<polygon fill="#63b8ff" stroke="#63b8ff" points="962.03,-73 971.58,-68.42 961.26,-66.04 962.03,-73"/>
</g>
<!-- Node21&#45;&gt;Node6 -->
<g id="edge27" class="edge">
<title>Node21&#45;&gt;Node6</title>
<path fill="none" stroke="#63b8ff" d="M855.84,-170.15C837.4,-156.67 807.83,-130.4 824,-110 840.94,-88.63 911.69,-76.54 961.89,-70.51"/>
<polygon fill="#63b8ff" stroke="#63b8ff" points="962.17,-74 971.71,-69.38 961.37,-67.05 962.17,-74"/>
</g>
<!-- Node22&#45;&gt;Node6 -->
<g id="edge29" class="edge">
<title>Node22&#45;&gt;Node6</title>
<path fill="none" stroke="#63b8ff" d="M908.54,-109.51C928.74,-101.08 959.17,-88.38 982.16,-78.79"/>
<polygon fill="#63b8ff" stroke="#63b8ff" points="983.5,-82.02 991.38,-74.94 980.8,-75.56 983.5,-82.02"/>
</g>
<!-- Node23&#45;&gt;Node6 -->
<g id="edge31" class="edge">
<title>Node23&#45;&gt;Node6</title>
<path fill="none" stroke="#63b8ff" d="M1014,-109.75C1014,-103.27 1014,-94.16 1014,-85.9"/>
<polygon fill="#63b8ff" stroke="#63b8ff" points="1017.5,-85.96 1014,-75.96 1010.5,-85.96 1017.5,-85.96"/>
</g>
<!-- Node25&#45;&gt;Node6 -->
<g id="edge34" class="edge">
<title>Node25&#45;&gt;Node6</title>
<path fill="none" stroke="#63b8ff" d="M1121.95,-109.51C1101.19,-101.04 1069.84,-88.27 1046.27,-78.66"/>
<polygon fill="#63b8ff" stroke="#63b8ff" points="1047.71,-75.46 1037.13,-74.93 1045.07,-81.95 1047.71,-75.46"/>
</g>
<!-- Node26&#45;&gt;Node6 -->
<g id="edge36" class="edge">
<title>Node26&#45;&gt;Node6</title>
<path fill="none" stroke="#63b8ff" d="M1233.22,-109.51C1186.91,-100.21 1114.69,-85.71 1065.91,-75.92"/>
<polygon fill="#63b8ff" stroke="#63b8ff" points="1066.64,-72.5 1056.15,-73.96 1065.26,-79.36 1066.64,-72.5"/>
</g>
<!-- Node27&#45;&gt;Node6 -->
<g id="edge39" class="edge">
<title>Node27&#45;&gt;Node6</title>
<path fill="none" stroke="#63b8ff" d="M1724.37,-113.12C1712.72,-112.02 1700.45,-110.92 1689,-110 1456.94,-91.27 1179.53,-74.87 1066.15,-68.41"/>
<polygon fill="#63b8ff" stroke="#63b8ff" points="1066.43,-64.92 1056.25,-67.85 1066.03,-71.91 1066.43,-64.92"/>
</g>
<!-- Node28&#45;&gt;Node6 -->
<g id="edge41" class="edge">
<title>Node28&#45;&gt;Node6</title>
<path fill="none" stroke="#63b8ff" d="M1478.12,-236.13C1461.1,-211.26 1408.96,-140.71 1346,-110 1297.86,-86.52 1147.13,-73.79 1066.35,-68.5"/>
<polygon fill="#63b8ff" stroke="#63b8ff" points="1066.67,-65.01 1056.47,-67.87 1066.23,-72 1066.67,-65.01"/>
</g>
<!-- Node29&#45;&gt;Node6 -->
<g id="edge43" class="edge">
<title>Node29&#45;&gt;Node6</title>
<path fill="none" stroke="#63b8ff" d="M1552.55,-170.19C1530.33,-154.99 1481.89,-124.1 1436,-110 1307.3,-70.45 1147.28,-64.69 1066.25,-64.63"/>
<polygon fill="#63b8ff" stroke="#63b8ff" points="1066.39,-61.13 1056.4,-64.66 1066.41,-68.13 1066.39,-61.13"/>
</g>
<!-- Node30&#45;&gt;Node6 -->
<g id="edge45" class="edge">
<title>Node30&#45;&gt;Node6</title>
<path fill="none" stroke="#63b8ff" d="M1768.7,-236.22C1742.75,-220.51 1685.86,-187.19 1635,-165 1565.31,-134.59 1547.33,-126 1473,-110 1327.79,-78.75 1151.99,-69.42 1066.19,-66.66"/>
<polygon fill="#63b8ff" stroke="#63b8ff" points="1066.31,-63.16 1056.21,-66.35 1066.1,-70.15 1066.31,-63.16"/>
</g>
<!-- Node31&#45;&gt;Node29 -->
<g id="edge47" class="edge">
<title>Node31&#45;&gt;Node29</title>
<path fill="none" stroke="#63b8ff" d="M1640.76,-236.1C1626.71,-225.88 1603.4,-208.93 1586.34,-196.52"/>
<polygon fill="#63b8ff" stroke="#63b8ff" points="1588.5,-193.76 1578.36,-190.71 1584.38,-199.43 1588.5,-193.76"/>
</g>
<!-- Node32&#45;&gt;Node33 -->
<g id="edge49" class="edge">
<title>Node32&#45;&gt;Node33</title>
<path fill="none" stroke="#63b8ff" d="M1339.6,-236.1C1326.62,-225.98 1305.18,-209.24 1289.33,-196.87"/>
<polygon fill="#63b8ff" stroke="#63b8ff" points="1291.53,-194.15 1281.5,-190.75 1287.23,-199.67 1291.53,-194.15"/>
</g>
<!-- Node33&#45;&gt;Node26 -->
<g id="edge50" class="edge">
<title>Node33&#45;&gt;Node26</title>
<path fill="none" stroke="#63b8ff" d="M1270.33,-170.37C1271.54,-162.5 1273.37,-150.6 1274.94,-140.39"/>
<polygon fill="#63b8ff" stroke="#63b8ff" points="1278.38,-141.08 1276.44,-130.66 1271.46,-140.01 1278.38,-141.08"/>
</g>
<!-- Node34&#45;&gt;Node33 -->
<g id="edge52" class="edge">
<title>Node34&#45;&gt;Node33</title>
<path fill="none" stroke="#63b8ff" d="M1188.93,-236.1C1203.85,-225.83 1228.65,-208.77 1246.7,-196.34"/>
<polygon fill="#63b8ff" stroke="#63b8ff" points="1248.68,-199.23 1254.93,-190.68 1244.71,-193.47 1248.68,-199.23"/>
</g>
<!-- Node35&#45;&gt;Node6 -->
<g id="edge54" class="edge">
<title>Node35&#45;&gt;Node6</title>
<path fill="none" stroke="#63b8ff" d="M238.31,-114.79C393.44,-104.94 814.43,-78.18 962.03,-68.8"/>
<polygon fill="#63b8ff" stroke="#63b8ff" points="962.14,-72.3 971.89,-68.18 961.69,-65.32 962.14,-72.3"/>
</g>
<!-- Node36&#45;&gt;Node6 -->
<g id="edge56" class="edge">
<title>Node36&#45;&gt;Node6</title>
<path fill="none" stroke="#63b8ff" d="M224.18,-170.03C266.2,-154.85 355.68,-124.39 434,-110 626.48,-74.64 859.89,-67.32 961.98,-65.84"/>
<polygon fill="#63b8ff" stroke="#63b8ff" points="961.72,-69.35 971.68,-65.72 961.63,-62.35 961.72,-69.35"/>
</g>
<!-- Node37&#45;&gt;Node6 -->
<g id="edge58" class="edge">
<title>Node37&#45;&gt;Node6</title>
<path fill="none" stroke="#63b8ff" d="M351.89,-170.14C378.41,-154.85 436,-123.83 489,-110 577.46,-86.91 847.85,-72.75 962.13,-67.65"/>
<polygon fill="#63b8ff" stroke="#63b8ff" points="961.99,-71.16 971.83,-67.22 961.69,-64.17 961.99,-71.16"/>
</g>
<!-- Node38&#45;&gt;Node6 -->
<g id="edge60" class="edge">
<title>Node38&#45;&gt;Node6</title>
<path fill="none" stroke="#63b8ff" d="M471.42,-170.41C476.2,-155.26 488.37,-124.07 511,-110 548.65,-86.6 840.8,-72.4 961.79,-67.47"/>
<polygon fill="#63b8ff" stroke="#63b8ff" points="961.93,-70.96 971.78,-67.06 961.65,-63.97 961.93,-70.96"/>
</g>
<!-- Node40&#45;&gt;Node15 -->
<g id="edge65" class="edge">
<title>Node40&#45;&gt;Node15</title>
<path fill="none" stroke="#63b8ff" d="M1901,-412.37C1901,-404.5 1901,-392.6 1901,-382.39"/>
<polygon fill="#63b8ff" stroke="#63b8ff" points="1904.5,-382.68 1901,-372.68 1897.5,-382.68 1904.5,-382.68"/>
</g>
<!-- Node41 -->
<g id="node41" class="node">
<title>Node41</title>
<g id="a_node41"><a xlink:href="string_8h.html" target="_top" xlink:title=" ">
<polygon fill="white" stroke="#666666" points="102,-371 54,-371 54,-352 102,-352 102,-371"/>
<text text-anchor="middle" x="78" y="-359" font-family="Helvetica,sans-Serif" font-size="10.00">string.h</text>
</a>
</g>
</g>
<!-- Node40&#45;&gt;Node41 -->
<g id="edge66" class="edge">
<title>Node40&#45;&gt;Node41</title>
<path fill="none" stroke="#63b8ff" d="M1823.54,-418.51C1509.16,-408.43 334.75,-370.74 113.92,-363.65"/>
<polygon fill="#63b8ff" stroke="#63b8ff" points="114.05,-360.16 103.94,-363.33 113.83,-367.15 114.05,-360.16"/>
</g>
<!-- Node41&#45;&gt;Node7 -->
<g id="edge67" class="edge">
<title>Node41&#45;&gt;Node7</title>
<path fill="none" stroke="#63b8ff" d="M78,-351.67C78,-332.58 78,-286.02 78,-247 78,-247 78,-247 78,-118.5 78,-37.01 369.79,-16.54 474.86,-11.82"/>
<polygon fill="#63b8ff" stroke="#63b8ff" points="474.8,-15.32 484.64,-11.4 474.5,-8.33 474.8,-15.32"/>
</g>
<!-- Node42 -->
<g id="node42" class="node">
<title>Node42</title>
<g id="a_node42"><a xlink:href="extras_8h.html" target="_top" xlink:title=" ">
<polygon fill="white" stroke="#666666" points="50,-316 0,-316 0,-297 50,-297 50,-316"/>
<text text-anchor="middle" x="25" y="-304" font-family="Helvetica,sans-Serif" font-size="10.00">extras.h</text>
</a>
</g>
</g>
<!-- Node41&#45;&gt;Node42 -->
<g id="edge68" class="edge">
<title>Node41&#45;&gt;Node42</title>
<path fill="none" stroke="#63b8ff" d="M69.25,-351.75C61.85,-344.35 51.04,-333.54 41.95,-324.45"/>
<polygon fill="#63b8ff" stroke="#63b8ff" points="44.56,-322.11 35.01,-317.51 39.61,-327.06 44.56,-322.11"/>
</g>
</g>
</svg>
