<?xml version="1.0" encoding="UTF-8" standalone="no"?>
<!DOCTYPE svg PUBLIC "-//W3C//DTD SVG 1.1//EN"
 "http://www.w3.org/Graphics/SVG/1.1/DTD/svg11.dtd">
<!-- Generated by graphviz version 7.0.5 (20221223.1930)
 -->
<!-- Title: include/Z2AudioLib/Z2SoundObjMgr.h Pages: 1 -->
<svg width="583pt" height="280pt"
 viewBox="0.00 0.00 582.50 280.00" xmlns="http://www.w3.org/2000/svg" xmlns:xlink="http://www.w3.org/1999/xlink">
<g id="graph0" class="graph" transform="scale(1 1) rotate(0) translate(4 276)">
<title>include/Z2AudioLib/Z2SoundObjMgr.h</title>
<!-- Node1 -->
<g id="node1" class="node">
<title>Node1</title>
<g id="a_node1"><a xlink:title=" ">
<polygon fill="#999999" stroke="#666666" points="469,-272 369,-272 369,-242 469,-242 469,-272"/>
<text text-anchor="start" x="377" y="-260" font-family="Helvetica,sans-Serif" font-size="10.00">include/Z2AudioLib</text>
<text text-anchor="middle" x="419" y="-249" font-family="Helvetica,sans-Serif" font-size="10.00">/Z2SoundObjMgr.h</text>
</a>
</g>
</g>
<!-- Node2 -->
<g id="node2" class="node">
<title>Node2</title>
<g id="a_node2"><a xlink:href="JASGadget_8h.html" target="_top" xlink:title=" ">
<polygon fill="white" stroke="#666666" points="413,-206 259,-206 259,-187 413,-187 413,-206"/>
<text text-anchor="middle" x="336" y="-194" font-family="Helvetica,sans-Serif" font-size="10.00">JSystem/JAudio2/JASGadget.h</text>
</a>
</g>
</g>
<!-- Node1&#45;&gt;Node2 -->
<g id="edge1" class="edge">
<title>Node1&#45;&gt;Node2</title>
<path fill="none" stroke="#63b8ff" d="M398.48,-241.54C386.06,-232.78 370.23,-221.63 357.61,-212.73"/>
<polygon fill="#63b8ff" stroke="#63b8ff" points="359.74,-209.95 349.55,-207.05 355.7,-215.67 359.74,-209.95"/>
</g>
<!-- Node10 -->
<g id="node10" class="node">
<title>Node10</title>
<g id="a_node10"><a xlink:href="JSUList_8h.html" target="_top" xlink:title=" ">
<polygon fill="white" stroke="#666666" points="574.5,-206 431.5,-206 431.5,-187 574.5,-187 574.5,-206"/>
<text text-anchor="middle" x="503" y="-194" font-family="Helvetica,sans-Serif" font-size="10.00">JSystem/JSupport/JSUList.h</text>
</a>
</g>
</g>
<!-- Node1&#45;&gt;Node10 -->
<g id="edge11" class="edge">
<title>Node1&#45;&gt;Node10</title>
<path fill="none" stroke="#63b8ff" d="M439.76,-241.54C452.34,-232.78 468.36,-221.63 481.13,-212.73"/>
<polygon fill="#63b8ff" stroke="#63b8ff" points="483.1,-215.63 489.3,-207.04 479.1,-209.88 483.1,-215.63"/>
</g>
<!-- Node3 -->
<g id="node3" class="node">
<title>Node3</title>
<g id="a_node3"><a xlink:href="JUTAssert_8h.html" target="_top" xlink:title=" ">
<polygon fill="white" stroke="#666666" points="463,-151 317,-151 317,-132 463,-132 463,-151"/>
<text text-anchor="middle" x="390" y="-139" font-family="Helvetica,sans-Serif" font-size="10.00">JSystem/JUtility/JUTAssert.h</text>
</a>
</g>
</g>
<!-- Node2&#45;&gt;Node3 -->
<g id="edge2" class="edge">
<title>Node2&#45;&gt;Node3</title>
<path fill="none" stroke="#63b8ff" d="M344.92,-186.75C352.45,-179.35 363.47,-168.54 372.73,-159.45"/>
<polygon fill="#63b8ff" stroke="#63b8ff" points="375.12,-162 379.81,-152.5 370.22,-157.01 375.12,-162"/>
</g>
<!-- Node6 -->
<g id="node6" class="node">
<title>Node6</title>
<g id="a_node6"><a xlink:href="string_8h.html" target="_top" xlink:title=" ">
<polygon fill="white" stroke="#666666" points="276,-151 192,-151 192,-132 276,-132 276,-151"/>
<text text-anchor="middle" x="234" y="-139" font-family="Helvetica,sans-Serif" font-size="10.00">MSL_C/string.h</text>
</a>
</g>
</g>
<!-- Node2&#45;&gt;Node6 -->
<g id="edge5" class="edge">
<title>Node2&#45;&gt;Node6</title>
<path fill="none" stroke="#63b8ff" d="M318.7,-186.51C302.92,-178.31 279.36,-166.07 261.09,-156.58"/>
<polygon fill="#63b8ff" stroke="#63b8ff" points="262.88,-153.56 252.39,-152.06 259.65,-159.77 262.88,-153.56"/>
</g>
<!-- Node4 -->
<g id="node4" class="node">
<title>Node4</title>
<g id="a_node4"><a xlink:href="types_8h.html" target="_top" xlink:title=" ">
<polygon fill="white" stroke="#666666" points="543.5,-90.5 462.5,-90.5 462.5,-71.5 543.5,-71.5 543.5,-90.5"/>
<text text-anchor="middle" x="503" y="-78.5" font-family="Helvetica,sans-Serif" font-size="10.00">dolphin/types.h</text>
</a>
</g>
</g>
<!-- Node3&#45;&gt;Node4 -->
<g id="edge3" class="edge">
<title>Node3&#45;&gt;Node4</title>
<path fill="none" stroke="#63b8ff" d="M407.16,-131.62C425.33,-122.21 454.28,-107.22 475.61,-96.18"/>
<polygon fill="#63b8ff" stroke="#63b8ff" points="477.06,-99.37 484.33,-91.66 473.84,-93.15 477.06,-99.37"/>
</g>
<!-- Node5 -->
<g id="node5" class="node">
<title>Node5</title>
<g id="a_node5"><a xlink:href="stddef_8h.html" target="_top" xlink:title=" ">
<polygon fill="white" stroke="#666666" points="444,-30 308,-30 308,0 444,0 444,-30"/>
<text text-anchor="start" x="316" y="-18" font-family="Helvetica,sans-Serif" font-size="10.00">MSL_C/MSL_Common/Src</text>
<text text-anchor="middle" x="376" y="-7" font-family="Helvetica,sans-Serif" font-size="10.00">/stddef.h</text>
</a>
</g>
</g>
<!-- Node4&#45;&gt;Node5 -->
<g id="edge4" class="edge">
<title>Node4&#45;&gt;Node5</title>
<path fill="none" stroke="#63b8ff" d="M485.34,-71.1C467.17,-61.95 438.29,-47.39 414.77,-35.54"/>
<polygon fill="#63b8ff" stroke="#63b8ff" points="416.59,-32.53 406.08,-31.16 413.44,-38.78 416.59,-32.53"/>
</g>
<!-- Node7 -->
<g id="node7" class="node">
<title>Node7</title>
<g id="a_node7"><a xlink:href="extras_8h.html" target="_top" xlink:title=" ">
<polygon fill="white" stroke="#666666" points="290,-96 154,-96 154,-66 290,-66 290,-96"/>
<text text-anchor="start" x="162" y="-84" font-family="Helvetica,sans-Serif" font-size="10.00">MSL_C/MSL_Common/Src</text>
<text text-anchor="middle" x="222" y="-73" font-family="Helvetica,sans-Serif" font-size="10.00">/extras.h</text>
</a>
</g>
</g>
<!-- Node6&#45;&gt;Node7 -->
<g id="edge6" class="edge">
<title>Node6&#45;&gt;Node7</title>
<path fill="none" stroke="#63b8ff" d="M232.23,-131.87C230.89,-125.33 228.97,-115.99 227.16,-107.15"/>
<polygon fill="#63b8ff" stroke="#63b8ff" points="230.64,-106.69 225.2,-97.6 223.78,-108.1 230.64,-106.69"/>
</g>
<!-- Node8 -->
<g id="node8" class="node">
<title>Node8</title>
<g id="a_node8"><a xlink:href="mem_8h.html" target="_top" xlink:title=" ">
<polygon fill="white" stroke="#666666" points="136,-96 0,-96 0,-66 136,-66 136,-96"/>
<text text-anchor="start" x="8" y="-84" font-family="Helvetica,sans-Serif" font-size="10.00">MSL_C/MSL_Common/Src</text>
<text text-anchor="middle" x="68" y="-73" font-family="Helvetica,sans-Serif" font-size="10.00">/mem.h</text>
</a>
</g>
</g>
<!-- Node6&#45;&gt;Node8 -->
<g id="edge7" class="edge">
<title>Node6&#45;&gt;Node8</title>
<path fill="none" stroke="#63b8ff" d="M208.79,-131.62C185.2,-123.3 149.25,-110.63 119.59,-100.18"/>
<polygon fill="#63b8ff" stroke="#63b8ff" points="121,-96.97 110.4,-96.94 118.67,-103.57 121,-96.97"/>
</g>
<!-- Node9 -->
<g id="node9" class="node">
<title>Node9</title>
<g id="a_node9"><a xlink:href="MSL__Common_2Src_2string_8h.html" target="_top" xlink:title=" ">
<polygon fill="white" stroke="#666666" points="444,-96 308,-96 308,-66 444,-66 444,-96"/>
<text text-anchor="start" x="316" y="-84" font-family="Helvetica,sans-Serif" font-size="10.00">MSL_C/MSL_Common/Src</text>
<text text-anchor="middle" x="376" y="-73" font-family="Helvetica,sans-Serif" font-size="10.00">/string.h</text>
</a>
</g>
</g>
<!-- Node6&#45;&gt;Node9 -->
<g id="edge9" class="edge">
<title>Node6&#45;&gt;Node9</title>
<path fill="none" stroke="#63b8ff" d="M255.57,-131.62C275.39,-123.45 305.42,-111.08 330.53,-100.73"/>
<polygon fill="#63b8ff" stroke="#63b8ff" points="331.64,-104.06 339.55,-97.02 328.97,-97.59 331.64,-104.06"/>
</g>
<!-- Node8&#45;&gt;Node5 -->
<g id="edge8" class="edge">
<title>Node8&#45;&gt;Node5</title>
<path fill="none" stroke="#63b8ff" d="M136.36,-65.8C183.72,-55.95 246.95,-42.82 296.56,-32.51"/>
<polygon fill="#63b8ff" stroke="#63b8ff" points="297.01,-35.99 306.09,-30.53 295.59,-29.13 297.01,-35.99"/>
</g>
<!-- Node9&#45;&gt;Node5 -->
<g id="edge10" class="edge">
<title>Node9&#45;&gt;Node5</title>
<path fill="none" stroke="#63b8ff" d="M376,-65.8C376,-58.67 376,-49.82 376,-41.56"/>
<polygon fill="#63b8ff" stroke="#63b8ff" points="379.5,-41.68 376,-31.68 372.5,-41.68 379.5,-41.68"/>
</g>
<!-- Node10&#45;&gt;Node4 -->
<g id="edge12" class="edge">
<title>Node10&#45;&gt;Node4</title>
<path fill="none" stroke="#63b8ff" d="M503,-186.59C503,-168.53 503,-127.17 503,-102.21"/>
<polygon fill="#63b8ff" stroke="#63b8ff" points="506.5,-102.38 503,-92.38 499.5,-102.38 506.5,-102.38"/>
</g>
</g>
</svg>
