<?xml version="1.0" encoding="UTF-8" standalone="no"?>
<!DOCTYPE svg PUBLIC "-//W3C//DTD SVG 1.1//EN"
 "http://www.w3.org/Graphics/SVG/1.1/DTD/svg11.dtd">
<!-- Generated by graphviz version 7.0.5 (20221223.1930)
 -->
<!-- Title: include/Z2AudioLib/Z2SoundStarter.h Pages: 1 -->
<svg width="2396pt" height="566pt"
 viewBox="0.00 0.00 2395.50 566.00" xmlns="http://www.w3.org/2000/svg" xmlns:xlink="http://www.w3.org/1999/xlink">
<g id="graph0" class="graph" transform="scale(1 1) rotate(0) translate(4 562)">
<title>include/Z2AudioLib/Z2SoundStarter.h</title>
<!-- Node1 -->
<g id="node1" class="node">
<title>Node1</title>
<g id="a_node1"><a xlink:title=" ">
<polygon fill="#999999" stroke="#666666" points="1115.5,-558 1015.5,-558 1015.5,-528 1115.5,-528 1115.5,-558"/>
<text text-anchor="start" x="1023.5" y="-546" font-family="Helvetica,sans-Serif" font-size="10.00">include/Z2AudioLib</text>
<text text-anchor="middle" x="1065.5" y="-535" font-family="Helvetica,sans-Serif" font-size="10.00">/Z2SoundStarter.h</text>
</a>
</g>
</g>
<!-- Node2 -->
<g id="node2" class="node">
<title>Node2</title>
<g id="a_node2"><a xlink:href="JAISoundStarter_8h.html" target="_top" xlink:title=" ">
<polygon fill="white" stroke="#666666" points="1086,-492 947,-492 947,-462 1086,-462 1086,-492"/>
<text text-anchor="start" x="955" y="-480" font-family="Helvetica,sans-Serif" font-size="10.00">JSystem/JAudio2/JAISound</text>
<text text-anchor="middle" x="1016.5" y="-469" font-family="Helvetica,sans-Serif" font-size="10.00">Starter.h</text>
</a>
</g>
</g>
<!-- Node1&#45;&gt;Node2 -->
<g id="edge1" class="edge">
<title>Node1&#45;&gt;Node2</title>
<path fill="none" stroke="#63b8ff" d="M1054.63,-527.8C1048.66,-520.01 1041.12,-510.16 1034.32,-501.28"/>
<polygon fill="#63b8ff" stroke="#63b8ff" points="1037.12,-499.18 1028.26,-493.37 1031.56,-503.43 1037.12,-499.18"/>
</g>
<!-- Node15 -->
<g id="node15" class="node">
<title>Node15</title>
<g id="a_node15"><a xlink:href="JASGadget_8h.html" target="_top" xlink:title=" ">
<polygon fill="white" stroke="#666666" points="1191.5,-426 1037.5,-426 1037.5,-407 1191.5,-407 1191.5,-426"/>
<text text-anchor="middle" x="1114.5" y="-414" font-family="Helvetica,sans-Serif" font-size="10.00">JSystem/JAudio2/JASGadget.h</text>
</a>
</g>
</g>
<!-- Node1&#45;&gt;Node15 -->
<g id="edge68" class="edge">
<title>Node1&#45;&gt;Node15</title>
<path fill="none" stroke="#63b8ff" d="M1075.6,-527.72C1082.07,-518.02 1090.2,-504.71 1095.5,-492 1102.88,-474.29 1107.97,-452.98 1111,-437.69"/>
<polygon fill="#63b8ff" stroke="#63b8ff" points="1114.42,-438.44 1112.8,-427.97 1107.54,-437.17 1114.42,-438.44"/>
</g>
<!-- Node3 -->
<g id="node3" class="node">
<title>Node3</title>
<g id="a_node3"><a xlink:href="JAISound_8h.html" target="_top" xlink:title=" ">
<polygon fill="white" stroke="#666666" points="331.5,-316 185.5,-316 185.5,-297 331.5,-297 331.5,-316"/>
<text text-anchor="middle" x="258.5" y="-304" font-family="Helvetica,sans-Serif" font-size="10.00">JSystem/JAudio2/JAISound.h</text>
</a>
</g>
</g>
<!-- Node2&#45;&gt;Node3 -->
<g id="edge2" class="edge">
<title>Node2&#45;&gt;Node3</title>
<path fill="none" stroke="#63b8ff" d="M951.55,-461.56C803.65,-428.68 444.24,-348.79 310.11,-318.97"/>
<polygon fill="#63b8ff" stroke="#63b8ff" points="310.97,-315.58 300.45,-316.82 309.45,-322.41 310.97,-315.58"/>
</g>
<!-- Node2&#45;&gt;Node15 -->
<g id="edge16" class="edge">
<title>Node2&#45;&gt;Node15</title>
<path fill="none" stroke="#63b8ff" d="M1040.72,-461.54C1055.74,-452.58 1074.96,-441.1 1090.02,-432.11"/>
<polygon fill="#63b8ff" stroke="#63b8ff" points="1091.59,-435.25 1098.38,-427.12 1088,-429.24 1091.59,-435.25"/>
</g>
<!-- Node4 -->
<g id="node4" class="node">
<title>Node4</title>
<g id="a_node4"><a xlink:href="JAISoundParams_8h.html" target="_top" xlink:title=" ">
<polygon fill="white" stroke="#666666" points="139,-261 0,-261 0,-231 139,-231 139,-261"/>
<text text-anchor="start" x="8" y="-249" font-family="Helvetica,sans-Serif" font-size="10.00">JSystem/JAudio2/JAISound</text>
<text text-anchor="middle" x="69.5" y="-238" font-family="Helvetica,sans-Serif" font-size="10.00">Params.h</text>
</a>
</g>
</g>
<!-- Node3&#45;&gt;Node4 -->
<g id="edge3" class="edge">
<title>Node3&#45;&gt;Node4</title>
<path fill="none" stroke="#63b8ff" d="M229.79,-296.62C202.59,-288.19 160.93,-275.3 126.9,-264.77"/>
<polygon fill="#63b8ff" stroke="#63b8ff" points="128.18,-261.5 117.6,-261.89 126.11,-268.19 128.18,-261.5"/>
</g>
<!-- Node8 -->
<g id="node8" class="node">
<title>Node8</title>
<g id="a_node8"><a xlink:href="JAIAudible_8h.html" target="_top" xlink:title=" ">
<polygon fill="white" stroke="#666666" points="308,-255.5 157,-255.5 157,-236.5 308,-236.5 308,-255.5"/>
<text text-anchor="middle" x="232.5" y="-243.5" font-family="Helvetica,sans-Serif" font-size="10.00">JSystem/JAudio2/JAIAudible.h</text>
</a>
</g>
</g>
<!-- Node3&#45;&gt;Node8 -->
<g id="edge7" class="edge">
<title>Node3&#45;&gt;Node8</title>
<path fill="none" stroke="#63b8ff" d="M254.66,-296.87C251.05,-288.75 245.53,-276.31 240.89,-265.89"/>
<polygon fill="#63b8ff" stroke="#63b8ff" points="244.23,-264.77 236.97,-257.05 237.83,-267.61 244.23,-264.77"/>
</g>
<!-- Node14 -->
<g id="node14" class="node">
<title>Node14</title>
<g id="a_node14"><a xlink:href="global_8h.html" target="_top" xlink:title=" ">
<polygon fill="white" stroke="#666666" points="351.5,-189.5 301.5,-189.5 301.5,-170.5 351.5,-170.5 351.5,-189.5"/>
<text text-anchor="middle" x="326.5" y="-177.5" font-family="Helvetica,sans-Serif" font-size="10.00">global.h</text>
</a>
</g>
</g>
<!-- Node3&#45;&gt;Node14 -->
<g id="edge14" class="edge">
<title>Node3&#45;&gt;Node14</title>
<path fill="none" stroke="#63b8ff" d="M277.24,-296.62C290.82,-289.12 308.35,-277.05 317.5,-261 327.98,-242.62 329.21,-218 328.47,-200.95"/>
<polygon fill="#63b8ff" stroke="#63b8ff" points="331.97,-200.84 327.75,-191.12 324.99,-201.35 331.97,-200.84"/>
</g>
<!-- Node5 -->
<g id="node5" class="node">
<title>Node5</title>
<g id="a_node5"><a xlink:href="JASSoundParams_8h.html" target="_top" xlink:title=" ">
<polygon fill="white" stroke="#666666" points="147,-195 4,-195 4,-165 147,-165 147,-195"/>
<text text-anchor="start" x="12" y="-183" font-family="Helvetica,sans-Serif" font-size="10.00">JSystem/JAudio2/JASSound</text>
<text text-anchor="middle" x="75.5" y="-172" font-family="Helvetica,sans-Serif" font-size="10.00">Params.h</text>
</a>
</g>
</g>
<!-- Node4&#45;&gt;Node5 -->
<g id="edge4" class="edge">
<title>Node4&#45;&gt;Node5</title>
<path fill="none" stroke="#63b8ff" d="M70.83,-230.8C71.5,-223.67 72.33,-214.82 73.1,-206.56"/>
<polygon fill="#63b8ff" stroke="#63b8ff" points="76.58,-206.95 74.03,-196.67 69.61,-206.3 76.58,-206.95"/>
</g>
<!-- Node6 -->
<g id="node6" class="node">
<title>Node6</title>
<g id="a_node6"><a xlink:href="types_8h.html" target="_top" xlink:title=" ">
<polygon fill="white" stroke="#666666" points="903,-74 822,-74 822,-55 903,-55 903,-74"/>
<text text-anchor="middle" x="862.5" y="-62" font-family="Helvetica,sans-Serif" font-size="10.00">dolphin/types.h</text>
</a>
</g>
</g>
<!-- Node5&#45;&gt;Node6 -->
<g id="edge5" class="edge">
<title>Node5&#45;&gt;Node6</title>
<path fill="none" stroke="#63b8ff" d="M85.7,-164.58C98.31,-148.05 121.47,-121.74 148.5,-110 208.66,-83.87 655.72,-70.56 810.18,-66.71"/>
<polygon fill="#63b8ff" stroke="#63b8ff" points="810.22,-70.21 820.13,-66.46 810.05,-63.21 810.22,-70.21"/>
</g>
<!-- Node7 -->
<g id="node7" class="node">
<title>Node7</title>
<g id="a_node7"><a xlink:href="stddef_8h.html" target="_top" xlink:title=" ">
<polygon fill="white" stroke="#666666" points="1650,-19 1599,-19 1599,0 1650,0 1650,-19"/>
<text text-anchor="middle" x="1624.5" y="-7" font-family="Helvetica,sans-Serif" font-size="10.00">stddef.h</text>
</a>
</g>
</g>
<!-- Node6&#45;&gt;Node7 -->
<g id="edge6" class="edge">
<title>Node6&#45;&gt;Node7</title>
<path fill="none" stroke="#63b8ff" d="M903.47,-60.65C1037.17,-51.35 1459.49,-21.98 1587.42,-13.08"/>
<polygon fill="#63b8ff" stroke="#63b8ff" points="1587.28,-16.6 1597.01,-12.41 1586.79,-9.61 1587.28,-16.6"/>
</g>
<!-- Node9 -->
<g id="node9" class="node">
<title>Node9</title>
<g id="a_node9"><a xlink:href="JGeometry_8h.html" target="_top" xlink:title=" ">
<polygon fill="white" stroke="#666666" points="283,-189.5 170,-189.5 170,-170.5 283,-170.5 283,-189.5"/>
<text text-anchor="middle" x="226.5" y="-177.5" font-family="Helvetica,sans-Serif" font-size="10.00">JSystem/JGeometry.h</text>
</a>
</g>
</g>
<!-- Node8&#45;&gt;Node9 -->
<g id="edge8" class="edge">
<title>Node8&#45;&gt;Node9</title>
<path fill="none" stroke="#63b8ff" d="M231.67,-236.1C230.82,-227.12 229.49,-212.95 228.4,-201.22"/>
<polygon fill="#63b8ff" stroke="#63b8ff" points="231.89,-200.96 227.47,-191.33 224.92,-201.61 231.89,-200.96"/>
</g>
<!-- Node10 -->
<g id="node10" class="node">
<title>Node10</title>
<g id="a_node10"><a xlink:href="vec_8h.html" target="_top" xlink:title=" ">
<polygon fill="white" stroke="#666666" points="313.5,-129 221.5,-129 221.5,-110 313.5,-110 313.5,-129"/>
<text text-anchor="middle" x="267.5" y="-117" font-family="Helvetica,sans-Serif" font-size="10.00">dolphin/mtx/vec.h</text>
</a>
</g>
</g>
<!-- Node9&#45;&gt;Node10 -->
<g id="edge9" class="edge">
<title>Node9&#45;&gt;Node10</title>
<path fill="none" stroke="#63b8ff" d="M232.55,-170.37C238.42,-161.99 247.52,-149.01 254.96,-138.39"/>
<polygon fill="#63b8ff" stroke="#63b8ff" points="257.68,-140.6 260.56,-130.41 251.95,-136.59 257.68,-140.6"/>
</g>
<!-- Node11 -->
<g id="node11" class="node">
<title>Node11</title>
<g id="a_node11"><a xlink:href="math_8h.html" target="_top" xlink:title=" ">
<polygon fill="white" stroke="#666666" points="203.5,-129 157.5,-129 157.5,-110 203.5,-110 203.5,-129"/>
<text text-anchor="middle" x="180.5" y="-117" font-family="Helvetica,sans-Serif" font-size="10.00">math.h</text>
</a>
</g>
</g>
<!-- Node9&#45;&gt;Node11 -->
<g id="edge11" class="edge">
<title>Node9&#45;&gt;Node11</title>
<path fill="none" stroke="#63b8ff" d="M219.71,-170.37C213.05,-161.9 202.71,-148.74 194.31,-138.07"/>
<polygon fill="#63b8ff" stroke="#63b8ff" points="197.18,-136.05 188.25,-130.36 191.68,-140.38 197.18,-136.05"/>
</g>
<!-- Node10&#45;&gt;Node6 -->
<g id="edge10" class="edge">
<title>Node10&#45;&gt;Node6</title>
<path fill="none" stroke="#63b8ff" d="M313.98,-111.65C318.54,-111.05 323.11,-110.49 327.5,-110 504.21,-90.15 714.69,-75.17 810.44,-68.83"/>
<polygon fill="#63b8ff" stroke="#63b8ff" points="810.56,-72.33 820.31,-68.18 810.1,-65.34 810.56,-72.33"/>
</g>
<!-- Node12 -->
<g id="node12" class="node">
<title>Node12</title>
<g id="a_node12"><a xlink:href="float_8h.html" target="_top" xlink:title=" ">
<polygon fill="white" stroke="#666666" points="201.5,-74 159.5,-74 159.5,-55 201.5,-55 201.5,-74"/>
<text text-anchor="middle" x="180.5" y="-62" font-family="Helvetica,sans-Serif" font-size="10.00">float.h</text>
</a>
</g>
</g>
<!-- Node11&#45;&gt;Node12 -->
<g id="edge12" class="edge">
<title>Node11&#45;&gt;Node12</title>
<path fill="none" stroke="#63b8ff" d="M180.5,-109.75C180.5,-103.27 180.5,-94.16 180.5,-85.9"/>
<polygon fill="#63b8ff" stroke="#63b8ff" points="184,-85.96 180.5,-75.96 177,-85.96 184,-85.96"/>
</g>
<!-- Node13 -->
<g id="node13" class="node">
<title>Node13</title>
<g id="a_node13"><a xlink:href="fdlibm_8h.html" target="_top" xlink:title=" ">
<polygon fill="white" stroke="#666666" points="205.5,-19 155.5,-19 155.5,0 205.5,0 205.5,-19"/>
<text text-anchor="middle" x="180.5" y="-7" font-family="Helvetica,sans-Serif" font-size="10.00">fdlibm.h</text>
</a>
</g>
</g>
<!-- Node12&#45;&gt;Node13 -->
<g id="edge13" class="edge">
<title>Node12&#45;&gt;Node13</title>
<path fill="none" stroke="#63b8ff" d="M180.5,-54.75C180.5,-48.27 180.5,-39.16 180.5,-30.9"/>
<polygon fill="#63b8ff" stroke="#63b8ff" points="184,-30.96 180.5,-20.96 177,-30.96 184,-30.96"/>
</g>
<!-- Node14&#45;&gt;Node6 -->
<g id="edge15" class="edge">
<title>Node14&#45;&gt;Node6</title>
<path fill="none" stroke="#63b8ff" d="M328.56,-170.43C332.69,-155.31 343.53,-124.17 365.5,-110 402.27,-86.29 690.52,-72.29 810.44,-67.44"/>
<polygon fill="#63b8ff" stroke="#63b8ff" points="810.47,-70.94 820.33,-67.04 810.2,-63.94 810.47,-70.94"/>
</g>
<!-- Node16 -->
<g id="node16" class="node">
<title>Node16</title>
<g id="a_node16"><a xlink:href="JUTAssert_8h.html" target="_top" xlink:title=" ">
<polygon fill="white" stroke="#666666" points="1187.5,-371 1041.5,-371 1041.5,-352 1187.5,-352 1187.5,-371"/>
<text text-anchor="middle" x="1114.5" y="-359" font-family="Helvetica,sans-Serif" font-size="10.00">JSystem/JUtility/JUTAssert.h</text>
</a>
</g>
</g>
<!-- Node15&#45;&gt;Node16 -->
<g id="edge17" class="edge">
<title>Node15&#45;&gt;Node16</title>
<path fill="none" stroke="#63b8ff" d="M1114.5,-406.75C1114.5,-400.27 1114.5,-391.16 1114.5,-382.9"/>
<polygon fill="#63b8ff" stroke="#63b8ff" points="1118,-382.96 1114.5,-372.96 1111,-382.96 1118,-382.96"/>
</g>
<!-- Node41 -->
<g id="node41" class="node">
<title>Node41</title>
<g id="a_node41"><a xlink:href="string_8h.html" target="_top" xlink:title=" ">
<polygon fill="white" stroke="#666666" points="1451.5,-371 1403.5,-371 1403.5,-352 1451.5,-352 1451.5,-371"/>
<text text-anchor="middle" x="1427.5" y="-359" font-family="Helvetica,sans-Serif" font-size="10.00">string.h</text>
</a>
</g>
</g>
<!-- Node15&#45;&gt;Node41 -->
<g id="edge65" class="edge">
<title>Node15&#45;&gt;Node41</title>
<path fill="none" stroke="#63b8ff" d="M1167.6,-406.51C1231.46,-395.7 1336.89,-377.84 1391.78,-368.55"/>
<polygon fill="#63b8ff" stroke="#63b8ff" points="1392.25,-372.02 1401.52,-366.9 1391.08,-365.12 1392.25,-372.02"/>
</g>
<!-- Node16&#45;&gt;Node6 -->
<g id="edge18" class="edge">
<title>Node16&#45;&gt;Node6</title>
<path fill="none" stroke="#63b8ff" d="M1041.34,-356.81C855.43,-346.47 379.5,-313.5 379.5,-247 379.5,-247 379.5,-247 379.5,-179 379.5,-145.2 383.94,-129.57 411.5,-110 443.45,-87.32 698.75,-72.99 810.46,-67.75"/>
<polygon fill="#63b8ff" stroke="#63b8ff" points="810.43,-71.26 820.26,-67.3 810.11,-64.26 810.43,-71.26"/>
</g>
<!-- Node17 -->
<g id="node17" class="node">
<title>Node17</title>
<g id="a_node17"><a xlink:href="os_8h.html" target="_top" xlink:title=" ">
<polygon fill="white" stroke="#666666" points="1266.5,-316 1198.5,-316 1198.5,-297 1266.5,-297 1266.5,-316"/>
<text text-anchor="middle" x="1232.5" y="-304" font-family="Helvetica,sans-Serif" font-size="10.00">dolphin/os.h</text>
</a>
</g>
</g>
<!-- Node16&#45;&gt;Node17 -->
<g id="edge19" class="edge">
<title>Node16&#45;&gt;Node17</title>
<path fill="none" stroke="#63b8ff" d="M1134.52,-351.51C1153.11,-343.16 1181.04,-330.61 1202.33,-321.05"/>
<polygon fill="#63b8ff" stroke="#63b8ff" points="1203.71,-324.27 1211.4,-316.98 1200.84,-317.88 1203.71,-324.27"/>
</g>
<!-- Node18 -->
<g id="node18" class="node">
<title>Node18</title>
<g id="a_node18"><a xlink:href="____va__arg_8h.html" target="_top" xlink:title=" ">
<polygon fill="white" stroke="#666666" points="894.5,-129 830.5,-129 830.5,-110 894.5,-110 894.5,-129"/>
<text text-anchor="middle" x="862.5" y="-117" font-family="Helvetica,sans-Serif" font-size="10.00">__va_arg.h</text>
</a>
</g>
</g>
<!-- Node17&#45;&gt;Node18 -->
<g id="edge20" class="edge">
<title>Node17&#45;&gt;Node18</title>
<path fill="none" stroke="#63b8ff" d="M1215.41,-296.54C1200.61,-288.35 1179.03,-275.35 1162.5,-261 1141.32,-242.6 1104.67,-179.24 1080.5,-165 1014.3,-126.01 984.72,-143.47 905.68,-129.3"/>
<polygon fill="#63b8ff" stroke="#63b8ff" points="906.69,-125.93 896.21,-127.48 905.37,-132.81 906.69,-125.93"/>
</g>
<!-- Node19 -->
<g id="node19" class="node">
<title>Node19</title>
<g id="a_node19"><a xlink:href="dvd_8h.html" target="_top" xlink:title=" ">
<polygon fill="white" stroke="#666666" points="986.5,-129 912.5,-129 912.5,-110 986.5,-110 986.5,-129"/>
<text text-anchor="middle" x="949.5" y="-117" font-family="Helvetica,sans-Serif" font-size="10.00">dolphin/dvd.h</text>
</a>
</g>
</g>
<!-- Node17&#45;&gt;Node19 -->
<g id="edge22" class="edge">
<title>Node17&#45;&gt;Node19</title>
<path fill="none" stroke="#63b8ff" d="M1222.82,-296.65C1213.44,-287.91 1199,-274.01 1187.5,-261 1151.82,-220.64 1158.28,-194.95 1113.5,-165 1094.62,-152.37 1039.09,-138.83 997.85,-130.05"/>
<polygon fill="#63b8ff" stroke="#63b8ff" points="998.63,-126.63 988.12,-128.01 997.19,-133.48 998.63,-126.63"/>
</g>
<!-- Node20 -->
<g id="node20" class="node">
<title>Node20</title>
<g id="a_node20"><a xlink:href="OSAlarm_8h.html" target="_top" xlink:title=" ">
<polygon fill="white" stroke="#666666" points="809,-255.5 698,-255.5 698,-236.5 809,-236.5 809,-255.5"/>
<text text-anchor="middle" x="753.5" y="-243.5" font-family="Helvetica,sans-Serif" font-size="10.00">dolphin/os/OSAlarm.h</text>
</a>
</g>
</g>
<!-- Node17&#45;&gt;Node20 -->
<g id="edge24" class="edge">
<title>Node17&#45;&gt;Node20</title>
<path fill="none" stroke="#63b8ff" d="M1198.01,-302.06C1129.93,-295.16 973.51,-278.77 842.5,-261 835,-259.98 827.16,-258.85 819.37,-257.68"/>
<polygon fill="#63b8ff" stroke="#63b8ff" points="819.95,-254.23 809.54,-256.18 818.9,-261.15 819.95,-254.23"/>
</g>
<!-- Node21 -->
<g id="node21" class="node">
<title>Node21</title>
<g id="a_node21"><a xlink:href="OSError_8h.html" target="_top" xlink:title=" ">
<polygon fill="white" stroke="#666666" points="806.5,-189.5 700.5,-189.5 700.5,-170.5 806.5,-170.5 806.5,-189.5"/>
<text text-anchor="middle" x="753.5" y="-177.5" font-family="Helvetica,sans-Serif" font-size="10.00">dolphin/os/OSError.h</text>
</a>
</g>
</g>
<!-- Node17&#45;&gt;Node21 -->
<g id="edge38" class="edge">
<title>Node17&#45;&gt;Node21</title>
<path fill="none" stroke="#63b8ff" d="M1198.28,-301.41C1148.96,-295.1 1055.28,-281.52 977.5,-261 907.49,-242.53 828.31,-211.84 785.35,-194.32"/>
<polygon fill="#63b8ff" stroke="#63b8ff" points="786.72,-191.1 776.14,-190.54 784.06,-197.58 786.72,-191.1"/>
</g>
<!-- Node22 -->
<g id="node22" class="node">
<title>Node22</title>
<g id="a_node22"><a xlink:href="OSTime_8h.html" target="_top" xlink:title=" ">
<polygon fill="white" stroke="#666666" points="682,-189.5 575,-189.5 575,-170.5 682,-170.5 682,-189.5"/>
<text text-anchor="middle" x="628.5" y="-177.5" font-family="Helvetica,sans-Serif" font-size="10.00">dolphin/os/OSTime.h</text>
</a>
</g>
</g>
<!-- Node17&#45;&gt;Node22 -->
<g id="edge64" class="edge">
<title>Node17&#45;&gt;Node22</title>
<path fill="none" stroke="#63b8ff" d="M1198.22,-304.3C1085.97,-300.17 734.05,-285.37 689.5,-261 664.77,-247.47 646.97,-219.2 637.2,-200.15"/>
<polygon fill="#63b8ff" stroke="#63b8ff" points="640.43,-198.79 632.93,-191.31 634.12,-201.83 640.43,-198.79"/>
</g>
<!-- Node23 -->
<g id="node23" class="node">
<title>Node23</title>
<g id="a_node23"><a xlink:href="OSAlloc_8h.html" target="_top" xlink:title=" ">
<polygon fill="white" stroke="#666666" points="1112,-129 1005,-129 1005,-110 1112,-110 1112,-129"/>
<text text-anchor="middle" x="1058.5" y="-117" font-family="Helvetica,sans-Serif" font-size="10.00">dolphin/os/OSAlloc.h</text>
</a>
</g>
</g>
<!-- Node17&#45;&gt;Node23 -->
<g id="edge29" class="edge">
<title>Node17&#45;&gt;Node23</title>
<path fill="none" stroke="#63b8ff" d="M1227.79,-296.63C1212.19,-267.39 1162.6,-175.28 1151.5,-165 1136.49,-151.1 1116.35,-140.74 1098.65,-133.53"/>
<polygon fill="#63b8ff" stroke="#63b8ff" points="1100.01,-130.31 1089.42,-129.99 1097.5,-136.84 1100.01,-130.31"/>
</g>
<!-- Node24 -->
<g id="node24" class="node">
<title>Node24</title>
<g id="a_node24"><a xlink:href="OSArena_8h.html" target="_top" xlink:title=" ">
<polygon fill="white" stroke="#666666" points="1241,-129 1130,-129 1130,-110 1241,-110 1241,-129"/>
<text text-anchor="middle" x="1185.5" y="-117" font-family="Helvetica,sans-Serif" font-size="10.00">dolphin/os/OSArena.h</text>
</a>
</g>
</g>
<!-- Node17&#45;&gt;Node24 -->
<g id="edge31" class="edge">
<title>Node17&#45;&gt;Node24</title>
<path fill="none" stroke="#63b8ff" d="M1230.23,-296.58C1223.05,-268.31 1200.69,-180.27 1190.57,-140.44"/>
<polygon fill="#63b8ff" stroke="#63b8ff" points="1193.97,-139.63 1188.12,-130.8 1187.19,-141.35 1193.97,-139.63"/>
</g>
<!-- Node25 -->
<g id="node25" class="node">
<title>Node25</title>
<g id="a_node25"><a xlink:href="OSAudioSystem_8h.html" target="_top" xlink:title=" ">
<polygon fill="white" stroke="#666666" points="2069,-255.5 1926,-255.5 1926,-236.5 2069,-236.5 2069,-255.5"/>
<text text-anchor="middle" x="1997.5" y="-243.5" font-family="Helvetica,sans-Serif" font-size="10.00">dolphin/os/OSAudioSystem.h</text>
</a>
</g>
</g>
<!-- Node17&#45;&gt;Node25 -->
<g id="edge33" class="edge">
<title>Node17&#45;&gt;Node25</title>
<path fill="none" stroke="#63b8ff" d="M1266.93,-303.68C1386.66,-297.29 1784.44,-275.47 1911.5,-261 1919.56,-260.08 1928.02,-258.93 1936.35,-257.69"/>
<polygon fill="#63b8ff" stroke="#63b8ff" points="1936.75,-261.17 1946.09,-256.19 1935.68,-254.26 1936.75,-261.17"/>
</g>
<!-- Node26 -->
<g id="node26" class="node">
<title>Node26</title>
<g id="a_node26"><a xlink:href="OSCache_8h.html" target="_top" xlink:title=" ">
<polygon fill="white" stroke="#666666" points="1372,-129 1259,-129 1259,-110 1372,-110 1372,-129"/>
<text text-anchor="middle" x="1315.5" y="-117" font-family="Helvetica,sans-Serif" font-size="10.00">dolphin/os/OSCache.h</text>
</a>
</g>
</g>
<!-- Node17&#45;&gt;Node26 -->
<g id="edge34" class="edge">
<title>Node17&#45;&gt;Node26</title>
<path fill="none" stroke="#63b8ff" d="M1236.5,-296.58C1249.27,-268.13 1289.2,-179.13 1306.9,-139.67"/>
<polygon fill="#63b8ff" stroke="#63b8ff" points="1310.02,-141.27 1310.92,-130.71 1303.63,-138.41 1310.02,-141.27"/>
</g>
<!-- Node27 -->
<g id="node27" class="node">
<title>Node27</title>
<g id="a_node27"><a xlink:href="OSContext_8h.html" target="_top" xlink:title=" ">
<polygon fill="white" stroke="#666666" points="1957,-129 1838,-129 1838,-110 1957,-110 1957,-129"/>
<text text-anchor="middle" x="1897.5" y="-117" font-family="Helvetica,sans-Serif" font-size="10.00">dolphin/os/OSContext.h</text>
</a>
</g>
</g>
<!-- Node17&#45;&gt;Node27 -->
<g id="edge36" class="edge">
<title>Node17&#45;&gt;Node27</title>
<path fill="none" stroke="#63b8ff" d="M1266.73,-303.61C1299.32,-301.83 1349.75,-299.12 1393.5,-297 1438.77,-294.81 2177.17,-293.75 2208.5,-261 2285.32,-180.71 2082.64,-142.65 1968.77,-128.04"/>
<polygon fill="#63b8ff" stroke="#63b8ff" points="1969.23,-124.57 1958.87,-126.81 1968.36,-131.52 1969.23,-124.57"/>
</g>
<!-- Node28 -->
<g id="node28" class="node">
<title>Node28</title>
<g id="a_node28"><a xlink:href="OSExec_8h.html" target="_top" xlink:title=" ">
<polygon fill="white" stroke="#666666" points="1497,-129 1390,-129 1390,-110 1497,-110 1497,-129"/>
<text text-anchor="middle" x="1443.5" y="-117" font-family="Helvetica,sans-Serif" font-size="10.00">dolphin/os/OSExec.h</text>
</a>
</g>
</g>
<!-- Node17&#45;&gt;Node28 -->
<g id="edge39" class="edge">
<title>Node17&#45;&gt;Node28</title>
<path fill="none" stroke="#63b8ff" d="M1266.85,-305.27C1303.55,-303.19 1361.21,-294.31 1396.5,-261 1430.71,-228.72 1440.03,-170.86 1442.56,-140.44"/>
<polygon fill="#63b8ff" stroke="#63b8ff" points="1446.03,-140.95 1443.18,-130.75 1439.05,-140.5 1446.03,-140.95"/>
</g>
<!-- Node29 -->
<g id="node29" class="node">
<title>Node29</title>
<g id="a_node29"><a xlink:href="OSFont_8h.html" target="_top" xlink:title=" ">
<polygon fill="white" stroke="#666666" points="1549,-255.5 1444,-255.5 1444,-236.5 1549,-236.5 1549,-255.5"/>
<text text-anchor="middle" x="1496.5" y="-243.5" font-family="Helvetica,sans-Serif" font-size="10.00">dolphin/os/OSFont.h</text>
</a>
</g>
</g>
<!-- Node17&#45;&gt;Node29 -->
<g id="edge41" class="edge">
<title>Node17&#45;&gt;Node29</title>
<path fill="none" stroke="#63b8ff" d="M1266.74,-297.91C1312.11,-287.86 1392.51,-270.04 1445.16,-258.38"/>
<polygon fill="#63b8ff" stroke="#63b8ff" points="1445.79,-261.82 1454.79,-256.24 1444.27,-254.99 1445.79,-261.82"/>
</g>
<!-- Node30 -->
<g id="node30" class="node">
<title>Node30</title>
<g id="a_node30"><a xlink:href="OSInterrupt_8h.html" target="_top" xlink:title=" ">
<polygon fill="white" stroke="#666666" points="1675.5,-189.5 1553.5,-189.5 1553.5,-170.5 1675.5,-170.5 1675.5,-189.5"/>
<text text-anchor="middle" x="1614.5" y="-177.5" font-family="Helvetica,sans-Serif" font-size="10.00">dolphin/os/OSInterrupt.h</text>
</a>
</g>
</g>
<!-- Node17&#45;&gt;Node30 -->
<g id="edge43" class="edge">
<title>Node17&#45;&gt;Node30</title>
<path fill="none" stroke="#63b8ff" d="M1266.85,-304.25C1340.33,-301.05 1510.04,-290.57 1558.5,-261 1581.75,-246.81 1597.87,-218.93 1606.66,-200.12"/>
<polygon fill="#63b8ff" stroke="#63b8ff" points="1609.77,-201.74 1610.57,-191.18 1603.36,-198.94 1609.77,-201.74"/>
</g>
<!-- Node31 -->
<g id="node31" class="node">
<title>Node31</title>
<g id="a_node31"><a xlink:href="OSLink_8h.html" target="_top" xlink:title=" ">
<polygon fill="white" stroke="#666666" points="2359.5,-255.5 2255.5,-255.5 2255.5,-236.5 2359.5,-236.5 2359.5,-255.5"/>
<text text-anchor="middle" x="2307.5" y="-243.5" font-family="Helvetica,sans-Serif" font-size="10.00">dolphin/os/OSLink.h</text>
</a>
</g>
</g>
<!-- Node17&#45;&gt;Node31 -->
<g id="edge45" class="edge">
<title>Node17&#45;&gt;Node31</title>
<path fill="none" stroke="#63b8ff" d="M1266.73,-303.59C1299.32,-301.8 1349.74,-299.08 1393.5,-297 1770.3,-279.06 1867.25,-308.3 2241.5,-261 2247.46,-260.25 2253.67,-259.23 2259.81,-258.1"/>
<polygon fill="#63b8ff" stroke="#63b8ff" points="2260.07,-261.61 2269.2,-256.24 2258.71,-254.75 2260.07,-261.61"/>
</g>
<!-- Node32 -->
<g id="node32" class="node">
<title>Node32</title>
<g id="a_node32"><a xlink:href="OSMemory_8h.html" target="_top" xlink:title=" ">
<polygon fill="white" stroke="#666666" points="1725.5,-255.5 1605.5,-255.5 1605.5,-236.5 1725.5,-236.5 1725.5,-255.5"/>
<text text-anchor="middle" x="1665.5" y="-243.5" font-family="Helvetica,sans-Serif" font-size="10.00">dolphin/os/OSMemory.h</text>
</a>
</g>
</g>
<!-- Node17&#45;&gt;Node32 -->
<g id="edge47" class="edge">
<title>Node17&#45;&gt;Node32</title>
<path fill="none" stroke="#63b8ff" d="M1266.76,-301.99C1330.74,-295.27 1472.68,-279.59 1591.5,-261 1597.39,-260.08 1603.54,-259.04 1609.65,-257.96"/>
<polygon fill="#63b8ff" stroke="#63b8ff" points="1609.87,-261.47 1619.09,-256.24 1608.62,-254.59 1609.87,-261.47"/>
</g>
<!-- Node33 -->
<g id="node33" class="node">
<title>Node33</title>
<g id="a_node33"><a xlink:href="OSMessage_8h.html" target="_top" xlink:title=" ">
<polygon fill="white" stroke="#666666" points="1869,-255.5 1744,-255.5 1744,-236.5 1869,-236.5 1869,-255.5"/>
<text text-anchor="middle" x="1806.5" y="-243.5" font-family="Helvetica,sans-Serif" font-size="10.00">dolphin/os/OSMessage.h</text>
</a>
</g>
</g>
<!-- Node17&#45;&gt;Node33 -->
<g id="edge49" class="edge">
<title>Node17&#45;&gt;Node33</title>
<path fill="none" stroke="#63b8ff" d="M1266.73,-303.69C1348.12,-299.13 1559.5,-285.7 1734.5,-261 1740.57,-260.14 1746.9,-259.11 1753.18,-258.01"/>
<polygon fill="#63b8ff" stroke="#63b8ff" points="1753.67,-261.48 1762.87,-256.23 1752.41,-254.59 1753.67,-261.48"/>
</g>
<!-- Node34 -->
<g id="node34" class="node">
<title>Node34</title>
<g id="a_node34"><a xlink:href="OSThread_8h.html" target="_top" xlink:title=" ">
<polygon fill="white" stroke="#666666" points="1955.5,-189.5 1839.5,-189.5 1839.5,-170.5 1955.5,-170.5 1955.5,-189.5"/>
<text text-anchor="middle" x="1897.5" y="-177.5" font-family="Helvetica,sans-Serif" font-size="10.00">dolphin/os/OSThread.h</text>
</a>
</g>
</g>
<!-- Node17&#45;&gt;Node34 -->
<g id="edge63" class="edge">
<title>Node17&#45;&gt;Node34</title>
<path fill="none" stroke="#63b8ff" d="M1266.98,-303.68C1399.16,-296.62 1866.72,-270.98 1878.5,-261 1895.58,-246.52 1898.86,-219.77 1898.84,-201.2"/>
<polygon fill="#63b8ff" stroke="#63b8ff" points="1902.35,-201.29 1898.49,-191.43 1895.35,-201.55 1902.35,-201.29"/>
</g>
<!-- Node35 -->
<g id="node35" class="node">
<title>Node35</title>
<g id="a_node35"><a xlink:href="OSMutex_8h.html" target="_top" xlink:title=" ">
<polygon fill="white" stroke="#666666" points="2199.5,-255.5 2087.5,-255.5 2087.5,-236.5 2199.5,-236.5 2199.5,-255.5"/>
<text text-anchor="middle" x="2143.5" y="-243.5" font-family="Helvetica,sans-Serif" font-size="10.00">dolphin/os/OSMutex.h</text>
</a>
</g>
</g>
<!-- Node17&#45;&gt;Node35 -->
<g id="edge52" class="edge">
<title>Node17&#45;&gt;Node35</title>
<path fill="none" stroke="#63b8ff" d="M1266.73,-303.69C1299.33,-301.97 1349.76,-299.3 1393.5,-297 1697.94,-280.96 1776.3,-301.22 2078.5,-261 2084.15,-260.25 2090.03,-259.27 2095.86,-258.17"/>
<polygon fill="#63b8ff" stroke="#63b8ff" points="2096.3,-261.65 2105.41,-256.25 2094.92,-254.79 2096.3,-261.65"/>
</g>
<!-- Node36 -->
<g id="node36" class="node">
<title>Node36</title>
<g id="a_node36"><a xlink:href="OSReboot_8h.html" target="_top" xlink:title=" ">
<polygon fill="white" stroke="#666666" points="536.5,-129 420.5,-129 420.5,-110 536.5,-110 536.5,-129"/>
<text text-anchor="middle" x="478.5" y="-117" font-family="Helvetica,sans-Serif" font-size="10.00">dolphin/os/OSReboot.h</text>
</a>
</g>
</g>
<!-- Node17&#45;&gt;Node36 -->
<g id="edge54" class="edge">
<title>Node17&#45;&gt;Node36</title>
<path fill="none" stroke="#63b8ff" d="M1198.36,-304.82C1081.52,-302.23 698.36,-291.55 579.5,-261 512.1,-243.68 474.93,-253.67 437.5,-195 425.17,-175.68 442.88,-152.39 458.72,-137.06"/>
<polygon fill="#63b8ff" stroke="#63b8ff" points="460.95,-139.76 466.01,-130.45 456.25,-134.57 460.95,-139.76"/>
</g>
<!-- Node37 -->
<g id="node37" class="node">
<title>Node37</title>
<g id="a_node37"><a xlink:href="OSReset_8h.html" target="_top" xlink:title=" ">
<polygon fill="white" stroke="#666666" points="557,-189.5 446,-189.5 446,-170.5 557,-170.5 557,-189.5"/>
<text text-anchor="middle" x="501.5" y="-177.5" font-family="Helvetica,sans-Serif" font-size="10.00">dolphin/os/OSReset.h</text>
</a>
</g>
</g>
<!-- Node17&#45;&gt;Node37 -->
<g id="edge56" class="edge">
<title>Node17&#45;&gt;Node37</title>
<path fill="none" stroke="#63b8ff" d="M1198.03,-304.7C1089.51,-301.88 755.93,-290.95 652.5,-261 603.26,-246.74 551.7,-215.29 523.39,-196.34"/>
<polygon fill="#63b8ff" stroke="#63b8ff" points="525.54,-193.58 515.3,-190.84 521.6,-199.36 525.54,-193.58"/>
</g>
<!-- Node38 -->
<g id="node38" class="node">
<title>Node38</title>
<g id="a_node38"><a xlink:href="OSResetSW_8h.html" target="_top" xlink:title=" ">
<polygon fill="white" stroke="#666666" points="952,-189.5 825,-189.5 825,-170.5 952,-170.5 952,-189.5"/>
<text text-anchor="middle" x="888.5" y="-177.5" font-family="Helvetica,sans-Serif" font-size="10.00">dolphin/os/OSResetSW.h</text>
</a>
</g>
</g>
<!-- Node17&#45;&gt;Node38 -->
<g id="edge58" class="edge">
<title>Node17&#45;&gt;Node38</title>
<path fill="none" stroke="#63b8ff" d="M1198.3,-299.46C1161.22,-292.38 1100.63,-279.25 1050.5,-261 1000.14,-242.66 944.84,-213.17 913.63,-195.58"/>
<polygon fill="#63b8ff" stroke="#63b8ff" points="915.38,-192.54 904.96,-190.64 911.91,-198.63 915.38,-192.54"/>
</g>
<!-- Node39 -->
<g id="node39" class="node">
<title>Node39</title>
<g id="a_node39"><a xlink:href="OSRtc_8h.html" target="_top" xlink:title=" ">
<polygon fill="white" stroke="#666666" points="1071,-189.5 970,-189.5 970,-170.5 1071,-170.5 1071,-189.5"/>
<text text-anchor="middle" x="1020.5" y="-177.5" font-family="Helvetica,sans-Serif" font-size="10.00">dolphin/os/OSRtc.h</text>
</a>
</g>
</g>
<!-- Node17&#45;&gt;Node39 -->
<g id="edge60" class="edge">
<title>Node17&#45;&gt;Node39</title>
<path fill="none" stroke="#63b8ff" d="M1198.24,-301C1166.77,-295.56 1119.93,-284.11 1085.5,-261 1061.76,-245.07 1042.34,-217.87 1031.09,-199.67"/>
<polygon fill="#63b8ff" stroke="#63b8ff" points="1034.19,-198.03 1026.08,-191.21 1028.17,-201.6 1034.19,-198.03"/>
</g>
<!-- Node40 -->
<g id="node40" class="node">
<title>Node40</title>
<g id="a_node40"><a xlink:href="OSSync_8h.html" target="_top" xlink:title=" ">
<polygon fill="white" stroke="#666666" points="1387,-255.5 1280,-255.5 1280,-236.5 1387,-236.5 1387,-255.5"/>
<text text-anchor="middle" x="1333.5" y="-243.5" font-family="Helvetica,sans-Serif" font-size="10.00">dolphin/os/OSSync.h</text>
</a>
</g>
</g>
<!-- Node17&#45;&gt;Node40 -->
<g id="edge62" class="edge">
<title>Node17&#45;&gt;Node40</title>
<path fill="none" stroke="#63b8ff" d="M1247.84,-296.62C1263.86,-287.34 1289.24,-272.63 1308.23,-261.64"/>
<polygon fill="#63b8ff" stroke="#63b8ff" points="1309.81,-264.77 1316.71,-256.73 1306.3,-258.71 1309.81,-264.77"/>
</g>
<!-- Node18&#45;&gt;Node6 -->
<g id="edge21" class="edge">
<title>Node18&#45;&gt;Node6</title>
<path fill="none" stroke="#63b8ff" d="M862.5,-109.75C862.5,-103.27 862.5,-94.16 862.5,-85.9"/>
<polygon fill="#63b8ff" stroke="#63b8ff" points="866,-85.96 862.5,-75.96 859,-85.96 866,-85.96"/>
</g>
<!-- Node19&#45;&gt;Node6 -->
<g id="edge23" class="edge">
<title>Node19&#45;&gt;Node6</title>
<path fill="none" stroke="#63b8ff" d="M934.74,-109.51C921.54,-101.47 901.94,-89.53 886.49,-80.11"/>
<polygon fill="#63b8ff" stroke="#63b8ff" points="888.69,-77.36 878.33,-75.15 885.05,-83.34 888.69,-77.36"/>
</g>
<!-- Node20&#45;&gt;Node21 -->
<g id="edge25" class="edge">
<title>Node20&#45;&gt;Node21</title>
<path fill="none" stroke="#63b8ff" d="M753.5,-236.1C753.5,-227.12 753.5,-212.95 753.5,-201.22"/>
<polygon fill="#63b8ff" stroke="#63b8ff" points="757,-201.34 753.5,-191.34 750,-201.34 757,-201.34"/>
</g>
<!-- Node20&#45;&gt;Node22 -->
<g id="edge27" class="edge">
<title>Node20&#45;&gt;Node22</title>
<path fill="none" stroke="#63b8ff" d="M736.12,-236.1C715.32,-225.45 680.23,-207.49 655.8,-194.98"/>
<polygon fill="#63b8ff" stroke="#63b8ff" points="657.58,-191.96 647.08,-190.51 654.39,-198.19 657.58,-191.96"/>
</g>
<!-- Node21&#45;&gt;Node6 -->
<g id="edge26" class="edge">
<title>Node21&#45;&gt;Node6</title>
<path fill="none" stroke="#63b8ff" d="M754.9,-170.37C757.59,-156.23 764.66,-127.94 780.5,-110 792.52,-96.39 809.74,-86.16 825.3,-78.97"/>
<polygon fill="#63b8ff" stroke="#63b8ff" points="826.54,-82.24 834.33,-75.07 823.77,-75.82 826.54,-82.24"/>
</g>
<!-- Node22&#45;&gt;Node6 -->
<g id="edge28" class="edge">
<title>Node22&#45;&gt;Node6</title>
<path fill="none" stroke="#63b8ff" d="M645.41,-170.01C670.85,-156.57 720.55,-130.61 763.5,-110 786.04,-99.18 811.82,-87.62 831.41,-79"/>
<polygon fill="#63b8ff" stroke="#63b8ff" points="832.74,-82.23 840.5,-75.01 829.93,-75.82 832.74,-82.23"/>
</g>
<!-- Node23&#45;&gt;Node6 -->
<g id="edge30" class="edge">
<title>Node23&#45;&gt;Node6</title>
<path fill="none" stroke="#63b8ff" d="M1025.25,-109.51C992.49,-100.65 942.25,-87.07 906.26,-77.33"/>
<polygon fill="#63b8ff" stroke="#63b8ff" points="907.61,-74.07 897.05,-74.84 905.78,-80.83 907.61,-74.07"/>
</g>
<!-- Node24&#45;&gt;Node6 -->
<g id="edge32" class="edge">
<title>Node24&#45;&gt;Node6</title>
<path fill="none" stroke="#63b8ff" d="M1130.71,-109.51C1070.3,-99.6 973.84,-83.77 914.55,-74.04"/>
<polygon fill="#63b8ff" stroke="#63b8ff" points="915.14,-70.59 904.7,-72.42 914,-77.5 915.14,-70.59"/>
</g>
<!-- Node26&#45;&gt;Node6 -->
<g id="edge35" class="edge">
<title>Node26&#45;&gt;Node6</title>
<path fill="none" stroke="#63b8ff" d="M1258.79,-111.03C1255.99,-110.68 1253.21,-110.33 1250.5,-110 1130.4,-95.26 989.2,-79.45 914.68,-71.22"/>
<polygon fill="#63b8ff" stroke="#63b8ff" points="915.13,-67.75 904.81,-70.13 914.36,-74.71 915.13,-67.75"/>
</g>
<!-- Node27&#45;&gt;Node6 -->
<g id="edge37" class="edge">
<title>Node27&#45;&gt;Node6</title>
<path fill="none" stroke="#63b8ff" d="M1837.76,-115.44C1652.49,-105.95 1089.63,-77.13 914.85,-68.18"/>
<polygon fill="#63b8ff" stroke="#63b8ff" points="915.1,-64.69 904.94,-67.67 914.74,-71.68 915.1,-64.69"/>
</g>
<!-- Node28&#45;&gt;Node6 -->
<g id="edge40" class="edge">
<title>Node28&#45;&gt;Node6</title>
<path fill="none" stroke="#63b8ff" d="M1389.75,-110.96C1386.96,-110.62 1384.2,-110.3 1381.5,-110 1211.05,-91.02 1008.33,-75.74 914.68,-69.09"/>
<polygon fill="#63b8ff" stroke="#63b8ff" points="915.01,-65.61 904.79,-68.4 914.52,-72.59 915.01,-65.61"/>
</g>
<!-- Node29&#45;&gt;Node6 -->
<g id="edge42" class="edge">
<title>Node29&#45;&gt;Node6</title>
<path fill="none" stroke="#63b8ff" d="M1500.94,-236.31C1512.41,-212.52 1539.85,-145.74 1506.5,-110 1466.44,-67.07 1060.37,-64.61 914.4,-65.12"/>
<polygon fill="#63b8ff" stroke="#63b8ff" points="914.63,-61.62 904.64,-65.17 914.66,-68.62 914.63,-61.62"/>
</g>
<!-- Node30&#45;&gt;Node6 -->
<g id="edge44" class="edge">
<title>Node30&#45;&gt;Node6</title>
<path fill="none" stroke="#63b8ff" d="M1608.28,-170.25C1596.75,-154.83 1570.4,-123.24 1539.5,-110 1482.64,-85.64 1063.27,-71.3 914.58,-66.93"/>
<polygon fill="#63b8ff" stroke="#63b8ff" points="914.72,-63.43 904.63,-66.64 914.52,-70.43 914.72,-63.43"/>
</g>
<!-- Node31&#45;&gt;Node6 -->
<g id="edge46" class="edge">
<title>Node31&#45;&gt;Node6</title>
<path fill="none" stroke="#63b8ff" d="M2297.51,-236.1C2278.48,-219.59 2235.08,-184.18 2192.5,-165 2098.25,-122.54 2068.87,-124.37 1966.5,-110 1759.5,-80.93 1104.83,-69.11 914.73,-66.23"/>
<polygon fill="#63b8ff" stroke="#63b8ff" points="914.98,-62.73 904.92,-66.08 914.87,-69.73 914.98,-62.73"/>
</g>
<!-- Node32&#45;&gt;Node30 -->
<g id="edge48" class="edge">
<title>Node32&#45;&gt;Node30</title>
<path fill="none" stroke="#63b8ff" d="M1658.41,-236.1C1650.72,-226.45 1638.25,-210.81 1628.56,-198.65"/>
<polygon fill="#63b8ff" stroke="#63b8ff" points="1631.44,-196.65 1622.47,-191.01 1625.97,-201.01 1631.44,-196.65"/>
</g>
<!-- Node33&#45;&gt;Node34 -->
<g id="edge50" class="edge">
<title>Node33&#45;&gt;Node34</title>
<path fill="none" stroke="#63b8ff" d="M1819.15,-236.1C1833.82,-225.78 1858.25,-208.61 1875.93,-196.17"/>
<polygon fill="#63b8ff" stroke="#63b8ff" points="1877.55,-199.31 1883.72,-190.69 1873.52,-193.58 1877.55,-199.31"/>
</g>
<!-- Node34&#45;&gt;Node27 -->
<g id="edge51" class="edge">
<title>Node34&#45;&gt;Node27</title>
<path fill="none" stroke="#63b8ff" d="M1897.5,-170.37C1897.5,-162.5 1897.5,-150.6 1897.5,-140.39"/>
<polygon fill="#63b8ff" stroke="#63b8ff" points="1901,-140.68 1897.5,-130.68 1894,-140.68 1901,-140.68"/>
</g>
<!-- Node35&#45;&gt;Node34 -->
<g id="edge53" class="edge">
<title>Node35&#45;&gt;Node34</title>
<path fill="none" stroke="#63b8ff" d="M2109.04,-236.03C2065.58,-224.73 1990.75,-205.26 1942.73,-192.77"/>
<polygon fill="#63b8ff" stroke="#63b8ff" points="1943.75,-189.42 1933.2,-190.29 1941.99,-196.19 1943.75,-189.42"/>
</g>
<!-- Node36&#45;&gt;Node6 -->
<g id="edge55" class="edge">
<title>Node36&#45;&gt;Node6</title>
<path fill="none" stroke="#63b8ff" d="M536.82,-110.45C611.25,-100.18 738.89,-82.56 810.27,-72.71"/>
<polygon fill="#63b8ff" stroke="#63b8ff" points="810.72,-76.18 820.15,-71.34 809.77,-69.25 810.72,-76.18"/>
</g>
<!-- Node37&#45;&gt;Node6 -->
<g id="edge57" class="edge">
<title>Node37&#45;&gt;Node6</title>
<path fill="none" stroke="#63b8ff" d="M529.83,-170.09C594.02,-149.91 750.63,-100.67 823.73,-77.69"/>
<polygon fill="#63b8ff" stroke="#63b8ff" points="824.37,-81.16 832.86,-74.82 822.27,-74.48 824.37,-81.16"/>
</g>
<!-- Node38&#45;&gt;Node6 -->
<g id="edge59" class="edge">
<title>Node38&#45;&gt;Node6</title>
<path fill="none" stroke="#63b8ff" d="M848.81,-170.02C826.95,-162.83 801.66,-150.3 788.5,-129 775.49,-107.96 801.45,-90.25 826.12,-78.92"/>
<polygon fill="#63b8ff" stroke="#63b8ff" points="827.3,-82.23 835.11,-75.07 824.54,-75.79 827.3,-82.23"/>
</g>
<!-- Node39&#45;&gt;Node6 -->
<g id="edge61" class="edge">
<title>Node39&#45;&gt;Node6</title>
<path fill="none" stroke="#63b8ff" d="M983.82,-170.08C926.69,-156.15 822.77,-130.63 821.5,-129 809.49,-113.6 825.29,-94.65 840.64,-81.48"/>
<polygon fill="#63b8ff" stroke="#63b8ff" points="842.6,-84.39 848.22,-75.41 838.22,-78.93 842.6,-84.39"/>
</g>
<!-- Node41&#45;&gt;Node7 -->
<g id="edge66" class="edge">
<title>Node41&#45;&gt;Node7</title>
<path fill="none" stroke="#63b8ff" d="M1451.71,-360.26C1600.76,-358.44 2387.5,-344.24 2387.5,-247 2387.5,-247 2387.5,-247 2387.5,-118.5 2387.5,-44.33 1815.03,-17.62 1661.83,-11.8"/>
<polygon fill="#63b8ff" stroke="#63b8ff" points="1661.96,-8.3 1651.84,-11.43 1661.7,-15.3 1661.96,-8.3"/>
</g>
<!-- Node42 -->
<g id="node42" class="node">
<title>Node42</title>
<g id="a_node42"><a xlink:href="extras_8h.html" target="_top" xlink:title=" ">
<polygon fill="white" stroke="#666666" points="1452.5,-316 1402.5,-316 1402.5,-297 1452.5,-297 1452.5,-316"/>
<text text-anchor="middle" x="1427.5" y="-304" font-family="Helvetica,sans-Serif" font-size="10.00">extras.h</text>
</a>
</g>
</g>
<!-- Node41&#45;&gt;Node42 -->
<g id="edge67" class="edge">
<title>Node41&#45;&gt;Node42</title>
<path fill="none" stroke="#63b8ff" d="M1427.5,-351.75C1427.5,-345.27 1427.5,-336.16 1427.5,-327.9"/>
<polygon fill="#63b8ff" stroke="#63b8ff" points="1431,-327.96 1427.5,-317.96 1424,-327.96 1431,-327.96"/>
</g>
</g>
</svg>
